<?xml version="1.0" encoding="utf-8"?>
<!-- Generator: Adobe Illustrator 24.0.1, SVG Export Plug-In . SVG Version: 6.00 Build 0)  -->
<svg version="1.1" id="Layer_1" xmlns="http://www.w3.org/2000/svg" xmlns:xlink="http://www.w3.org/1999/xlink" x="0px" y="0px"
	 viewBox="0 0 141.7 141.7" style="enable-background:new 0 0 141.7 141.7;" xml:space="preserve">
<style type="text/css">
	.st0{fill:#070707;}
	.st1{fill:none;}
</style>
<g id="Layer_1_1_">
</g>
<g id="Layer_1_2_">
</g>
<g id="Layer_1_3_">
</g>
<g id="Layer_1_4_">
</g>
<g id="Layer_1_5_">
</g>
<g id="Layer_3">
</g>
<g id="Layer_3_1_">
</g>
<g id="Layer_1_6_">
</g>
<g id="Layer_1_7_">
</g>
<g id="Layer_1_8_">
</g>
<g id="Layer_1_9_">
</g>
<g id="Layer_1_10_">
</g>
<g id="Layer_1_11_">
</g>
<g id="Layer_1_12_">
</g>
<g id="Layer_1_13_">
</g>
<g id="Layer_1_14_">
</g>
<g id="Layer_1_15_">
</g>
<g id="Layer_1_16_">
</g>
<g id="Layer_1_17_">
</g>
<g id="Layer_1_18_">
</g>
<g id="Layer_1_19_">
</g>
<g id="Layer_1_20_">
</g>
<g id="Layer_2_1_">
</g>
<g id="Layer_2_2_">
	<g>
		<g>
			<path class="st0" d="M23.9,94c1.9,9.7,7.1,18.6,15.2,24.5c0.4,0.3,0.7-0.3,0.4-0.6c-7.9-5.8-13-14.6-14.8-24.1
				C24.5,93.4,23.8,93.5,23.9,94L23.9,94z"/>
		</g>
	</g>
	<g>
		<g>
			<path class="st0" d="M84.9,43.5C80.8,36.1,72,33,63.9,33.4c-2.8,0.1-5.6,0.5-8.4,0.8c-2.6,0.3-5.3,0.5-7.9,1.4
				c-4.3,1.5-8,4.5-10.4,8.3c-1.5,2.5-2.6,5.2-3.5,8c-1,3.1-2.2,6.2-3.4,9.3c-0.2,0.4,0.5,0.6,0.7,0.2c1-2.4,2-4.9,2.8-7.4
				c0.8-2.5,1.6-4.9,2.7-7.3c2-4.2,5.2-7.7,9.4-9.7c2.5-1.2,5.2-1.7,7.9-1.9c2.7-0.3,5.4-0.6,8.1-0.8c4-0.4,7.9-0.1,11.8,1.1
				c4.5,1.5,8.4,4.3,10.7,8.5C84.5,44.3,85.1,43.9,84.9,43.5L84.9,43.5z"/>
		</g>
	</g>
	<g>
		<g>
			<path class="st0" d="M45.3,121.8c4.8,2.9,10.8,2.9,16.2,2.5c2.8-0.2,5.5-0.7,8.3-1.1c2.9-0.5,6-0.7,8.6-2.3
				c0.4-0.2,0-0.8-0.4-0.6c-2.5,1.5-5.6,1.8-8.4,2.3c-2.7,0.5-5.4,0.9-8.1,1.1c-5.3,0.5-11.2,0.5-15.9-2.4
				C45.2,120.9,44.9,121.5,45.3,121.8L45.3,121.8z"/>
		</g>
	</g>
	<g>
		<g>
			<path class="st0" d="M51.7,35.3c0.4,0,0.4-0.7,0-0.7C51.3,34.6,51.3,35.3,51.7,35.3L51.7,35.3z"/>
		</g>
	</g>
	<g>
		<g>
			<path class="st0" d="M34.2,50.6c-4.3-0.4-6.8-4.9-4.1-8.5c1-1.4,2.6-2.3,4.3-2.7c1.7-0.3,4.1-0.3,5.3,1.2
				c0.3,0.3,0.8-0.2,0.5-0.5c-1.4-1.6-3.9-1.7-5.8-1.4c-2.1,0.4-4.1,1.6-5.2,3.4c-2.6,4.1,0.4,8.8,5,9.1
				C34.7,51.3,34.7,50.6,34.2,50.6L34.2,50.6z"/>
		</g>
	</g>
	<g>
		<g>
			<path class="st0" d="M81,39.2c2.9-1.5,7.7-2.3,9.8,0.9c2.1,3.3,0.9,8.4-3.3,9.2c-0.4,0.1-0.2,0.7,0.2,0.7c4.5-0.8,6-6.2,3.9-9.9
				c-2.2-3.9-7.5-3.2-10.9-1.5C80.2,38.8,80.6,39.4,81,39.2L81,39.2z"/>
		</g>
	</g>
	<g>
		<g>
			<path class="st0" d="M57.2,55.6c0.1,0,0.2,0,0.2,0c0-0.1,0-0.2-0.1-0.3c-1.1,0.4-2,0.9-2.8,1.8c-0.6,0.7-1.4,1.6-1.1,2.6
				c0.2,1.1,1.5,1.7,2.5,1.9c2,0.4,3.8-0.9,5.8-0.9c2,0,5.9,2.3,6.3-1.2c0.3-2.5-2.9-3.9-4.7-4.5c-0.2-0.1-0.3,0.2-0.1,0.3
				c1.7,0.6,4.7,1.9,4.5,4.2c-0.4,3.2-4.1,1-5.9,1c-1,0-2,0.3-3,0.6c-1.4,0.4-3.9,0.8-4.8-0.9c-1.1-2,2.1-3.8,3.5-4.4
				c0.2-0.1,0.2-0.3-0.1-0.3c-0.1,0-0.2,0-0.3,0.1C56.9,55.3,57,55.6,57.2,55.6L57.2,55.6z"/>
		</g>
	</g>
	<g>
		<g>
			<path class="st0" d="M64.1,61.1c0.5,1.2,0.7,2.6,0.3,3.8c-0.2,0.9-1.1,1.6-2.1,1.4c-0.7-0.2-0.9-0.8-1.2-1.4
				c-0.1-0.2-0.4,0-0.3,0.2c0.3,0.6,0.5,1.3,1.2,1.6c0.6,0.2,1.4,0.1,1.9-0.3c1.6-1.1,1.1-3.8,0.5-5.3C64.4,60.8,64,60.9,64.1,61.1
				L64.1,61.1z"/>
		</g>
	</g>
	<g>
		<g>
			<path class="st0" d="M40.1,118.3c2.5-1.2,3.9,1.9,5.6,3.1c0-0.1,0-0.2,0-0.3c-1.4,0.2-2.5,1.1-3.6,1.9c-1.2,0.9-2.8,2.3-4.4,1.8
				c-1-0.3-2-1.5-1.7-2.6c0.2-0.8,0.8-1.4,1.3-2c1-1,2.2-1.7,3.5-2.3c0.2-0.1,0-0.4-0.2-0.3c-2,1-6.8,3.8-4.4,6.6
				c3,3.3,6.5-2.3,9.5-2.8c0.2,0,0.1-0.2,0-0.3c-1.9-1.3-3.2-4.5-6-3.1C39.7,118.1,39.9,118.4,40.1,118.3L40.1,118.3z"/>
		</g>
	</g>
	<g>
		<g>
			<path class="st0" d="M37.2,124.4c-0.4-1.5,0.7-2.6,1.9-3.3c0.2-0.1,0-0.4-0.2-0.3c-1.4,0.7-2.5,2-2.1,3.7
				C36.9,124.7,37.2,124.6,37.2,124.4L37.2,124.4z"/>
		</g>
	</g>
	<g>
		<g>
			<path class="st0" d="M83,124.3c-1.4-0.9-2.2-2.2-3.4-3.3c-2.2-2,1.8-4,3.6-3.5c1.7,0.4,2.9,2.1,3.4,3.6c0.3,1,0.4,2.3-0.4,3.1
				C85.3,125,84,124.8,83,124.3c-0.2-0.1-0.4,0.2-0.2,0.3c1.7,0.9,4.1,0.6,4.4-1.7c0.3-2.2-1.3-4.7-3.3-5.6c-1-0.5-2.1-0.4-3.2,0.1
				c-0.8,0.4-2.2,1.3-2.5,2.2c-0.2,0.9,0.8,1.3,1.4,1.8c1,1.1,1.9,2.3,3.2,3.1C83,124.7,83.1,124.4,83,124.3z"/>
		</g>
	</g>
	<g>
		<g>
			<path class="st0" d="M83.8,120.9c1,1,1.7,2.3,1.8,3.7c0,0.2,0.4,0.2,0.3,0c-0.1-1.5-0.9-2.9-1.9-3.9
				C83.9,120.5,83.6,120.7,83.8,120.9L83.8,120.9z"/>
		</g>
	</g>
	<g>
		<g>
			<path class="st0" d="M81.5,81.4c0.6-0.2,1.3,0,1.8-0.1c0.9-0.1,1.8-0.4,2.6-0.9c1.2-0.7,2.1-2,1.9-3.4c-0.1-1-0.9-1.7-1.9-1.7
				c-1.8,0-3.2,1.2-4.4,2.3c-0.2,0.1,0.1,0.4,0.2,0.2c1-0.9,2-1.8,3.3-2.1c0.8-0.2,1.8-0.2,2.2,0.6c0.4,0.6,0.2,1.7-0.1,2.3
				c-0.6,1.2-1.9,1.9-3.2,2.2c-0.8,0.2-1.8-0.1-2.6,0.2C81.2,81.1,81.3,81.5,81.5,81.4L81.5,81.4z"/>
		</g>
	</g>
	<g>
		<g>
			<path class="st0" d="M85,78c1.1-0.3,2.5-1.3,1.8-2.6c-0.1-0.2-0.4,0-0.3,0.2c0.6,1.1-0.7,1.8-1.5,2.1C84.7,77.8,84.7,78.1,85,78
				L85,78z"/>
		</g>
	</g>
	<g>
		<path class="st0" d="M71.4,55.4c-4.8,0-8.8-3.9-8.8-8.8s3.9-8.8,8.8-8.8c4.8,0,8.8,3.9,8.8,8.8S76.3,55.4,71.4,55.4z M71.4,38.3
			c-4.6,0-8.4,3.7-8.4,8.4s3.7,8.4,8.4,8.4s8.4-3.7,8.4-8.4S76,38.3,71.4,38.3z"/>
	</g>
	<g>
		<path class="st0" d="M49.8,56.3c-4.8,0-8.8-3.9-8.8-8.8s3.9-8.8,8.8-8.8s8.8,3.9,8.8,8.8C58.6,52.4,54.7,56.3,49.8,56.3z
			 M49.8,39.2c-4.6,0-8.4,3.7-8.4,8.4s3.7,8.4,8.4,8.4s8.4-3.7,8.4-8.4C58.2,42.9,54.4,39.2,49.8,39.2z"/>
	</g>
	<g>
		<path class="st0" d="M87.9,43.2c0-1-0.8-1.8-1.8-1.8c-1,0-1.8,0.8-1.8,1.8s0.8,1.8,1.8,1.8C87.1,45.1,87.9,44.3,87.9,43.2z"/>
	</g>
	<g>
		<circle class="st0" cx="35" cy="44.9" r="1.8"/>
	</g>
	<g>
		<path class="st0" d="M64.5,54.6c0-1.2-1.7-2.1-3.8-2.1s-3.8,1-3.8,2.1c0,1.2,1.7,2.1,3.8,2.1C62.8,56.7,64.5,55.7,64.5,54.6z"/>
	</g>
	<g>
		<path class="st0" d="M71.3,49.8c1.5,0.1,2.9-1.2,2.9-2.7c0.1-1.5-1.2-2.9-2.7-2.9c-1.5-0.1-2.9,1.2-2.9,2.7
			C68.5,48.5,69.7,49.8,71.3,49.8z M70.3,45.2c0.4,0,0.8,0.4,0.8,0.8c0,0.4-0.4,0.8-0.8,0.8c-0.4,0-0.8-0.4-0.8-0.8
			C69.5,45.5,69.9,45.2,70.3,45.2z"/>
	</g>
	<g>
		<path class="st0" d="M49.7,50.6c1.5,0.1,2.9-1.1,2.9-2.7c0.1-1.5-1.1-2.9-2.7-2.9c-1.5-0.1-2.9,1.1-2.9,2.7
			C46.9,49.3,48.2,50.6,49.7,50.6z M48.8,46c0.4,0,0.8,0.4,0.8,0.8c0,0.4-0.4,0.8-0.8,0.8c-0.4,0-0.8-0.4-0.8-0.8S48.3,46,48.8,46z"
			/>
	</g>
	<g>
		<g>
			<path class="st0" d="M60.9,60.5c0.2,1,0.1,2.3,0.1,3.4c-0.1,0.7-0.2,1.4-0.6,1.9c-0.6,0.7-1.7,0.8-2.3,0.1
				c-1.1-1.1-0.7-3.4-0.4-4.7c0.1-0.2-0.3-0.3-0.3-0.1c-0.5,1.6-0.9,4.9,1.3,5.5c3.1,0.9,2.9-4.6,2.6-6.3
				C61.2,60.2,60.8,60.3,60.9,60.5L60.9,60.5z"/>
		</g>
	</g>
	<g>
		<g>
			<path class="st0" d="M52.9,82.9c2,0.8,4.5,0.3,6.4-0.8c1.4-0.8,2.3-2.2,0.9-3.5c-0.2-0.1-0.4,0.1-0.2,0.2
				c0.6,0.6,0.6,1.5,0.1,2.1c-0.2,0.3-0.5,0.5-0.8,0.7c-0.6,0.4-1.3,0.7-1.9,0.9c-1.4,0.5-2.9,0.6-4.3,0
				C52.8,82.4,52.7,82.8,52.9,82.9L52.9,82.9z"/>
		</g>
	</g>
	<g>
		<g>
			<path class="st0" d="M58.2,79.8c0.7-0.2,1.7-0.6,1.8-1.5c0.1-0.7-0.6-1.4-1.3-1.5c-1.7-0.5-4,1-5.2,2.1c-0.2,0.1,0.1,0.4,0.2,0.2
				c0.9-0.8,2-1.5,3.1-1.8c0.6-0.2,1.2-0.3,1.8-0.2c0.3,0.1,0.6,0.3,0.8,0.5c0,0.4,0,0.8,0,1.1c-0.2,0.4-0.9,0.6-1.3,0.7
				C57.9,79.5,58,79.9,58.2,79.8L58.2,79.8z"/>
		</g>
	</g>
	<g>
		<g>
			<path class="st0" d="M85.4,103.3c0.8,4.7,0.7,9.6-1.8,13.8c-0.2,0.4,0.4,0.7,0.6,0.4c2.6-4.4,2.7-9.5,1.9-14.4
				C86,102.7,85.3,102.9,85.4,103.3L85.4,103.3z"/>
		</g>
	</g>
	<g>
		<g>
			<path class="st0" d="M83.8,42.9c4.2,6.2,4.7,13.4,2.4,20.5c-2.3,6.8-5.8,13-5.4,20.4c0,0.4,0.7,0.4,0.7,0
				c-0.5-8,3.9-14.6,5.9-22.1c1.8-6.6,0.9-13.4-3-19.1C84.2,42.2,83.6,42.5,83.8,42.9L83.8,42.9z"/>
		</g>
	</g>
	<g>
		<g>
			<path class="st0" d="M78.2,120.5c0.1,0,0.1,0,0.1,0c0.2,0,0.2-0.3,0-0.3h0c-0.1,0-0.1,0-0.1,0.1c0,0-0.1,0,0,0
				c0.1,0.1,0.1,0.1,0.2,0.2c0-0.1,0-0.1,0.1-0.2C78.4,120.3,78.3,120.4,78.2,120.5c0,0,0.1,0,0.1,0.1c0.2,0.2,0.4-0.1,0.2-0.2
				c-0.1-0.1-0.1-0.1-0.2-0.2c-0.1-0.1-0.2-0.1-0.3,0.1c0,0.1,0,0.1-0.1,0.2c-0.1,0.1,0.1,0.2,0.2,0.2c0.1,0,0.2-0.1,0.2-0.2
				c-0.1,0-0.1,0.1-0.1,0.1h0c0.2,0,0.2-0.3,0-0.3c-0.1,0-0.1,0-0.1,0C78,120.1,78,120.5,78.2,120.5L78.2,120.5z"/>
		</g>
	</g>
	<g>
		<g>
			<path class="st0" d="M59.8,79.1c0.9,1.3,2.5,1.8,3.9,2.3c1.8,0.7,3.5,1.5,5.4,2.1c3.5,1.1,7.2,1.8,10.8,1.2
				c2.8-0.4,5.6-1.7,7.2-4c1.1-1.5,1.8-4.4-0.4-5.3c-0.4-0.2-0.6,0.5-0.2,0.7c1.4,0.6,1,2.6,0.4,3.6c-0.6,1.1-1.6,2-2.6,2.7
				c-2.2,1.4-4.9,1.9-7.5,1.9c-2.8-0.1-5.6-0.7-8.3-1.7c-1.4-0.5-2.8-1.1-4.2-1.7c-1.2-0.5-3.1-1-3.9-2.2
				C60.1,78.4,59.6,78.7,59.8,79.1L59.8,79.1z"/>
		</g>
	</g>
	<g>
		<g>
			<path class="st0" d="M58.3,82.4c1.7,7.6,1.7,15.5,0,23.1c-0.1,0.2,0.2,0.5,0.4,0.4c10.7-3.9,22.8-5.6,33.5-0.6
				c2.3,1.1,4.5,2.5,6.4,4.3c1.7,1.6,3.1,3.5,4.9,5.1c1.5,1.3,3.3,2.2,5.3,2c2.3-0.2,4.2-1.8,5.6-3.6c1.8-2.2,3.2-4.7,5.2-6.8
				c2.2-2.1,4.8-3.7,7.9-3.9c0.4,0,0.5-0.6,0.1-0.7c-3.9-1.2-7.9-2.5-11.5-4.3c-3.7-1.8-6.8-4.4-9.5-7.5c-2.5-2.9-4.8-6-7.9-8.3
				c-3.6-2.5-7.8-4.1-11.8-5.9c-0.4-0.2-0.7,0.4-0.4,0.6c4.2,1.9,8.8,3.5,12.5,6.4c3.1,2.5,5.4,5.8,8,8.7c5.5,6,12.9,8.6,20.4,10.9
				c0-0.2,0.1-0.4,0.1-0.7c-4.5,0.2-8.1,3.3-10.7,6.7c-1.8,2.3-3.2,5.2-5.8,6.7c-2.8,1.6-5.5,0.6-7.6-1.5c-1.7-1.7-3.1-3.6-5-5.1
				c-1.8-1.6-3.9-2.9-6.1-3.9c-4.5-2.1-9.5-3.1-14.4-3.2c-6.6-0.1-13.2,1.5-19.4,3.7c0.1,0.1,0.3,0.3,0.4,0.4
				c1.8-7.7,1.8-15.7,0-23.4C58.9,81.8,58.2,82,58.3,82.4L58.3,82.4z"/>
		</g>
	</g>
	<g>
		<g>
			<path class="st0" d="M57.2,77.1c0.2,0,0.2-0.3,0-0.3S56.9,77.1,57.2,77.1L57.2,77.1z"/>
		</g>
	</g>
	<g>
		<g>
			<path class="st0" d="M30.9,59.4c1.5,7.4,9.4,11.1,16,13.1c8.5,2.5,17.6,2.7,26.2,0.6c4.4-1.1,9-2.6,12.1-5.9
				c0.2-0.2-0.1-0.4-0.2-0.2c-3.5,3.7-9,5.3-13.9,6.3c-5.3,1.1-10.7,1.3-16,0.6c-5.2-0.6-10.5-2-15.1-4.5c-4.1-2.1-7.7-5.4-8.7-10.1
				C31.2,59.1,30.9,59.2,30.9,59.4L30.9,59.4z"/>
		</g>
	</g>
	<g>
		<g>
			<path class="st0" d="M33.5,53.1c0.2,0,0.2-0.3,0-0.3C33.3,52.7,33.3,53.1,33.5,53.1L33.5,53.1z"/>
		</g>
	</g>
	<g>
		<g>
			<path class="st0" d="M27.2,39.4c9.3-0.7,18.6-1.5,27.9-1.6c9.1-0.1,18.3,0.9,27.4,0.1c5.1-0.5,10.1-1.4,15.1-2.2
				c0.2,0,0.1-0.4-0.1-0.3c-4.6,0.8-9.2,1.7-13.9,2.1c-4.5,0.5-8.9,0.5-13.4,0.3c-9.2-0.3-18.3-0.4-27.4,0.1
				c-5.2,0.3-10.4,0.7-15.6,1.1C27,39,27,39.4,27.2,39.4L27.2,39.4z"/>
		</g>
	</g>
	<g>
		<g>
			<path class="st0" d="M56.3,82.7c-2.6,3.8-3.1,8.7-1.4,12.9c0.1-0.1,0.2-0.3,0.3-0.4c-9.3,0.4-18.7,0.8-27.9-1
				c-2.2-0.4-4.5-1-6.6-1.7c-1-0.3-2.8-0.7-3.5-1.4c-1.3-1.1-0.4-2.5,0.1-3.7c1.7-4.5,3.7-8.9,5.9-13.1c2.4-4.7,5.1-9.2,8.1-13.5
				c0.2-0.4-0.4-0.7-0.6-0.4c-5.7,8.3-10.4,17.4-14.1,26.8c-0.6,1.5-1.8,3.4,0,4.4c2,1.2,4.5,1.8,6.7,2.3c4.7,1.3,9.6,1.9,14.4,2.1
				c5.8,0.3,11.6,0.1,17.4-0.2c0.2,0,0.4-0.2,0.3-0.4c-1.7-4.1-1.2-8.7,1.3-12.4C57.1,82.7,56.5,82.3,56.3,82.7L56.3,82.7z"/>
		</g>
	</g>
	<g>
		<g>
			<path class="st0" d="M26.8,102.5c17.5,8.2,38.4,8.2,56,0.1c0.2-0.1,0-0.4-0.2-0.3c-17.4,8.1-38.2,8.1-55.6-0.1
				C26.8,102.1,26.6,102.4,26.8,102.5L26.8,102.5z"/>
		</g>
	</g>
	<g>
		<g>
			<path class="st0" d="M84.1,68.9c-2.6,4.4-6.9,7.5-11.9,8.6c-0.1,0-0.2,0.2-0.1,0.3c1.1,1.2,1.5,2.6,1.4,4.2
				c0,0.7-0.5,1.9-0.1,2.4c0.1,0.1,0.2,0.1,0.3,0c0,0,0.1-0.1,0.1-0.1c0.1-0.1,0.1-0.2,0-0.2c0,0-0.1-0.1-0.1-0.1
				c-0.1-0.2-0.4,0.1-0.2,0.2c0.1,0.1,0.3-1.5,0.3-1.5c0-0.6,0.1-1.1,0-1.6c-0.1-0.7-0.2-1.4-0.4-2c-0.1-0.2-0.8-1.3-0.8-1.3
				c0.1-0.2,0.6-0.2,0.8-0.3c0.8-0.2,1.6-0.5,2.4-0.9c3.6-1.6,6.6-4.2,8.5-7.6C84.6,68.8,84.2,68.7,84.1,68.9L84.1,68.9z"/>
		</g>
	</g>
	<g>
		<g>
			<path class="st0" d="M30.7,60.2c0.8,6.2,5.8,10.7,11.4,12.9c3.7,1.5,7.7,2.1,11.6,2.7c2,0.3,3.9,0.6,5.9,0.9
				c0.4,0.1,2.8,0.2,2.9,0.5c0.1,0.3-1.5,2-1.8,2.3c-0.1,0.2,0.1,0.4,0.2,0.2c0.7-0.9,1.4-1.7,2.1-2.6c0.1-0.1,0.1-0.3-0.1-0.3
				c-6.6-1-13.5-1.5-19.8-3.7c-5.8-2.1-11.2-6.5-12-12.9C31,60,30.7,60,30.7,60.2L30.7,60.2z"/>
		</g>
	</g>
	<g>
		<g>
			<path class="st0" d="M67.1,74.3c-1.2,0.1-2,1.3-1.5,2.5c0.6,1.3,2.1,1.6,3.3,1.1c1-0.4,2.2-1.5,1.5-2.7c-0.8-1.4-2.8-1.5-4.2-1
				c-0.2,0.1-0.1,0.4,0.1,0.3c0.9-0.3,1.7-0.4,2.6-0.1c0.7,0.2,1.5,0.7,1.3,1.7c-0.1,0.4-0.6,0.9-1,1.1c-0.7,0.5-1.7,0.7-2.5,0.2
				c-1.2-0.7-1.3-2.8,0.4-2.8C67.3,74.6,67.3,74.3,67.1,74.3L67.1,74.3z"/>
		</g>
	</g>
	<g>
		<g>
			<path class="st0" d="M67.1,78.1c-0.7,1.1-1.5,2.3-2.2,3.4c-0.1,0.2,0.2,0.4,0.3,0.2c0.7-1.1,1.5-2.3,2.2-3.4
				C67.5,78,67.2,77.9,67.1,78.1L67.1,78.1z"/>
		</g>
	</g>
	<g>
		<g>
			<path class="st0" d="M68.6,78c0.6,1.9,1.3,3.8,1.9,5.7c0.1,0.2,0.4,0.1,0.3-0.1c-0.6-1.9-1.3-3.8-1.9-5.7
				C68.8,77.6,68.5,77.7,68.6,78L68.6,78z"/>
		</g>
	</g>
	<g>
		<g>
			<path class="st0" d="M67.4,103.2c0.1,1.3,0.1,2.6,0.2,3.8c0,0.2,0.4,0.2,0.3,0c-0.1-1.3-0.1-2.6-0.2-3.8
				C67.7,103,67.4,103,67.4,103.2L67.4,103.2z"/>
		</g>
	</g>
	<g>
		<g>
			<path class="st0" d="M45.5,121.8c4.5-4.1,10.1-6.8,16.1-7.9c5.2-0.9,15.6-1.3,16.2,6.1c0,0.2,0.4,0.2,0.3,0
				c-0.6-6.9-9.7-7.2-14.9-6.6c-6.7,0.7-13.1,3.6-18.1,8.2C45.1,121.7,45.3,122,45.5,121.8L45.5,121.8z"/>
		</g>
	</g>
	<g>
		<g>
			<path class="st0" d="M60.3,59.8c0.6-0.1,0.9-0.7,0.7-1.3c-0.4-1-2-0.9-2.8-0.8c-2.1,0.3-3.9,1.3-6,1.3c-2.1,0-4.2-0.6-6-1.7
				c-0.2-0.1-0.4,0.1-0.2,0.3c3.9,3.9,9.8,4,14.5,1.7c0.2-0.1,0-0.4-0.2-0.3c-4.6,2.2-10.3,2.2-14.1-1.6c-0.1,0.1-0.1,0.2-0.2,0.3
				c1.9,1.2,4.1,1.8,6.4,1.7c1.1,0,2.2-0.2,3.2-0.6c0.6-0.2,1.3-0.4,1.9-0.6c0.4-0.1,0.9-0.2,1.4-0.2c0.3,0,0.5,0,0.8,0.1
				c0.8,0,0.9,0.4,0.5,1.3C59.9,59.5,60.1,59.9,60.3,59.8L60.3,59.8z"/>
		</g>
	</g>
	<g>
		<g>
			<path class="st0" d="M60.2,59.4c-1.5,0.9-3.1,1.1-4.7,0.6c-0.2-0.1-0.3,0.3-0.1,0.3c1.7,0.5,3.5,0.3,5-0.7
				C60.6,59.6,60.4,59.3,60.2,59.4L60.2,59.4z"/>
		</g>
	</g>
	<g>
		<g>
			<path class="st0" d="M61.9,59.3c0.2-0.9,0.7-1.3,1.4-1.2c0.5,0.1,1,0.1,1.5,0.2c0.7,0.1,1.4,0.2,2.1,0.3c1.2,0.2,2.3,0.3,3.5,0.2
				c1.9-0.1,3.7-0.6,5.2-1.8c-0.1-0.1-0.2-0.1-0.3-0.2c-1.5,2-3.9,3.3-6.5,3.4c-1.2,0-2.3-0.3-3.5-0.6c-0.5-0.1-0.9-0.2-1.4-0.2
				c-0.3,0-0.6,0-0.9,0.1c-0.7,0.2-1.1-0.2-1.3-1.1c0.2-0.1,0-0.4-0.2-0.3c-0.7,0.4-0.5,1.2,0.1,1.6s1.6,0,2.3,0.1
				c1.2,0,2.3,0.6,3.5,0.7c3.2,0.4,6.3-1,8.2-3.5c0.1-0.2-0.1-0.3-0.3-0.2c-3.2,2.6-7.3,1.6-11,1.1c-0.8-0.1-2.3-0.5-2.9,0.4
				c-0.3,0.5-0.2,1,0.3,1.3C61.9,59.7,62,59.4,61.9,59.3L61.9,59.3z"/>
		</g>
	</g>
	<g>
		<g>
			<path class="st0" d="M47,58.6c3.2,1.6,6.8,2,10.3,1.1c0.2-0.1,0.1-0.4-0.1-0.3c-1.3,0.1-2.6,0.2-3.9,0.2c0,0.1,0,0.2,0.1,0.3
				c1.8-0.3,3.7-0.7,5.5-1c0.2,0,0.1-0.4-0.1-0.3c-1.4,0.2-2.8,0.4-4.1,0.6c0,0.1,0.1,0.2,0.1,0.3c1.3-0.3,2.6-0.7,4-1
				c0.2-0.1,0.1-0.4-0.1-0.3c-1.2,0.1-2.4,0.3-3.6,0.6c-0.2,0.1-0.1,0.4,0.1,0.3c1.1-0.2,2.1-0.5,3.2-0.6c0.2,0,0.1-0.4-0.1-0.3
				c-0.7,0.1-1.4,0.2-2.1,0.4c-0.2,0.1-0.1,0.4,0.1,0.3c0.9-0.2,1.7-0.3,2.6-0.5c0.2-0.1,0.1-0.4-0.1-0.3c-0.6,0.1-1.2,0.2-1.8,0.2
				c0,0.1,0,0.2,0.1,0.3c0.7-0.2,1.4-0.3,2.1-0.4c0-0.1,0-0.2-0.1-0.3c-0.4,0.2-0.9,0.3-1.4,0.4c0,0.1,0,0.2,0.1,0.3
				c0.5-0.2,1.1-0.2,1.6,0c0-0.1,0-0.2,0-0.3c-0.4,0.3-0.8,0.4-1.2,0.3c0,0.1,0,0.2,0.1,0.3c0.5-0.2,1-0.3,1.6-0.3
				c0-0.1,0-0.2-0.1-0.3c-0.4,0.2-0.9,0.2-1.4,0.1c0,0.1,0,0.2,0,0.3c0.4-0.2,0.9-0.3,1.5-0.2c0-0.1,0-0.2,0-0.3
				c-0.3,0-0.6,0.1-0.8,0.1c0,0.1,0.1,0.2,0.1,0.3c0.2-0.1,0.5-0.1,0.8-0.2c0-0.1-0.1-0.2-0.1-0.3c-0.2,0.1-0.3,0.2-0.5,0.3
				c-0.2,0.1-0.1,0.4,0.1,0.3c0.2,0,0.4,0,0.6-0.1c0-0.1-0.1-0.2-0.1-0.3c-0.2,0.1-0.4,0.2-0.6,0.3c0.1,0.1,0.1,0.2,0.2,0.2
				c-0.1,0-0.2,0-0.2,0c0,0.1,0.1,0.2,0.1,0.3c0.2-0.1,0.4-0.1,0.6-0.2c0-0.1-0.1-0.2-0.1-0.3c-0.7,0.4-1.4,0.6-2.2,0.7
				c0,0.1,0.1,0.2,0.1,0.3c0.5-0.2,1-0.4,1.6-0.6c0.2-0.1,0.1-0.4-0.1-0.3c-0.8,0.2-1.7,0.4-2.5,0.5c0.1,0.1,0.1,0.2,0.1,0.3
				c0.6-0.3,1.3-0.5,1.9-0.7c0.2-0.1,0.1-0.4-0.1-0.3c-0.9,0.2-1.9,0.5-2.8,0.8c0,0.1,0.1,0.2,0.1,0.3c1.1-0.3,2.3-0.6,3.4-1
				c0-0.1-0.1-0.2-0.1-0.3c-1,0.3-1.9,0.6-2.9,0.7c0,0.1,0.1,0.2,0.1,0.3c0.9-0.2,1.7-0.4,2.5-0.5c0-0.1-0.1-0.2-0.1-0.3
				c-0.6,0.2-1.2,0.4-1.8,0.7c-0.2,0.1-0.1,0.4,0.1,0.3c0.8-0.1,1.5-0.3,2.3-0.4c0-0.1-0.1-0.2-0.1-0.3c-0.7,0.3-1.5,0.6-2.3,0.7
				c0,0.1,0.1,0.2,0.1,0.3c0.8-0.2,1.5-0.4,2.3-0.5c0-0.1-0.1-0.2-0.1-0.3c-0.8,0.3-1.7,0.5-2.5,0.7c0,0.1,0.1,0.2,0.1,0.3
				c0.8-0.2,1.5-0.4,2.3-0.5c0-0.1-0.1-0.2-0.1-0.3c-0.2,0-0.4,0.1-0.6,0.1c0,0.1,0,0.2,0.1,0.3c0.4-0.1,0.9-0.2,1.3-0.3
				c0-0.1-0.1-0.2-0.1-0.3c-0.2,0.1-0.4,0.2-0.7,0.3c0.1,0.1,0.1,0.2,0.2,0.3c0.2-0.1,0.3-0.3,0.5-0.4c0.2-0.1,0.1-0.4-0.1-0.3
				c-1.4,0.6-2.8,0.9-4.3,1c0,0.1,0,0.2,0.1,0.3c0.6-0.1,1.3-0.2,1.9-0.3c0-0.1-0.1-0.2-0.1-0.3c-1.1,0.2-2.1,0.3-3.2,0.4
				c0,0.1,0,0.2,0.1,0.3c1-0.2,1.9-0.2,2.9-0.2c0-0.1,0-0.2-0.1-0.3c-0.8,0.1-1.7,0.2-2.5,0.3c0,0.1,0,0.2,0.1,0.3
				c0.7-0.1,1.2-0.2,1.9-0.2c0-0.1,0-0.2-0.1-0.3c-0.6,0.1-1.2,0.2-1.8,0.3c0,0.1,0.1,0.2,0.1,0.3c0.4-0.1,0.8-0.1,1.2-0.2
				c0-0.1-0.1-0.2-0.1-0.3c-0.4,0.1-0.8,0.2-1.2,0.2c0,0.1,0,0.2,0.1,0.3c0.2,0,0.4-0.1,0.7-0.1c0-0.1,0-0.2-0.1-0.3
				c-0.7,0.2-1.4,0.2-2.1,0c0,0.1,0,0.2-0.1,0.3c0.9-0.1,1.6-0.3,2.4-0.6c0.2-0.1,0.1-0.3-0.1-0.3c-1-0.1-1.9,0.1-2.8,0.2
				c0.1,0.1,0.1,0.2,0.1,0.3c0.7-0.3,1.5-0.6,2.2-0.7c0.2-0.1,0.1-0.4-0.1-0.3c-0.7,0.1-1.3,0.2-2,0.3c0,0.1,0.1,0.2,0.1,0.3
				c0.7-0.2,1.3-0.4,2-0.5c0-0.1-0.1-0.2-0.1-0.3c-0.7,0.2-1.3,0.3-2,0.4c0,0.1,0,0.2,0.1,0.3c0.4-0.1,0.7-0.2,1.1-0.2
				c0-0.1,0-0.2-0.1-0.3c-0.9,0.2-1.7,0.3-2.5,0.2c0,0.1,0,0.2,0,0.3c0.6-0.1,1-0.1,1.6,0.1c0-0.1,0-0.2,0.1-0.3
				c-0.9,0.1-1.7,0.1-2.5,0c0,0.1,0,0.2,0,0.3c0.8,0,1.5,0.1,2.3,0.3c0-0.1,0-0.2,0.1-0.3c-0.7-0.1-1.4-0.2-2-0.3
				c0,0.1-0.1,0.2-0.1,0.3c0.9,0.1,1.7,0.3,2.5,0.5c0-0.1,0-0.2,0.1-0.3c-0.7,0-1.2,0-1.9-0.1c-0.2,0-0.3,0.3-0.1,0.3
				c0.5,0.2,1.1,0.3,1.6,0.5c0-0.1,0-0.2,0.1-0.3c-0.6-0.1-1.3-0.2-1.9-0.2c0,0.1,0,0.2,0,0.3c0.6,0.1,1.2,0.2,1.7,0.4
				c0-0.1,0-0.2,0.1-0.3c-0.7-0.1-1.3-0.2-1.9-0.3c-0.2-0.1-0.3,0.3-0.1,0.3c0.4,0.1,0.7,0.2,1.1,0.2c0.2,0,0.3-0.2,0.1-0.3
				c-0.4-0.1-0.7-0.3-1-0.4c-0.2-0.1-0.4,0.2-0.2,0.3c0.4,0.2,0.7,0.3,1.1,0.5c0-0.1,0.1-0.2,0.1-0.3c-0.4-0.1-0.7-0.1-1.1-0.2
				c0,0.1-0.1,0.2-0.1,0.3c0.7,0.2,1.3,0.3,2,0.3c0.2,0,0.2-0.3,0.1-0.3c-0.6-0.2-1.2-0.3-1.8-0.4c-0.2,0-0.2,0.3,0,0.3
				c0.6,0.1,1.3,0.2,1.9,0.2c0.2,0,0.2-0.3,0.1-0.3c-0.5-0.2-1.1-0.3-1.6-0.5c0,0.1-0.1,0.2-0.1,0.3c0.7,0.1,1.3,0.1,2,0.1
				c0.2,0,0.2-0.3,0.1-0.3c-0.8-0.2-1.7-0.4-2.5-0.5c-0.2,0-0.3,0.3-0.1,0.3c0.7,0.2,1.4,0.3,2.1,0.3c0.2,0,0.2-0.3,0.1-0.3
				c-0.8-0.2-1.6-0.3-2.4-0.3c-0.2,0-0.2,0.3,0,0.3c0.9,0.1,1.7,0.1,2.5,0c0.2,0,0.2-0.3,0.1-0.3c-0.6-0.1-1.1-0.1-1.7-0.1
				c-0.2,0-0.2,0.3,0,0.3c0.9,0.1,1.7,0.1,2.6-0.2c0.2-0.1,0.2-0.4-0.1-0.3c-0.4,0-0.8,0.1-1.2,0.2c-0.2,0.1-0.2,0.4,0.1,0.3
				c0.7-0.1,1.4-0.2,2.1-0.4c0.2-0.1,0.1-0.4-0.1-0.3c-0.7,0.1-1.4,0.3-2,0.5c-0.2,0.1-0.1,0.4,0.1,0.3c0.7-0.1,1.3-0.2,2-0.3
				c0-0.1-0.1-0.2-0.1-0.3c-0.8,0.2-1.5,0.4-2.3,0.7c-0.2,0.1-0.1,0.4,0.1,0.3c0.9-0.2,1.8-0.3,2.7-0.2c0-0.1-0.1-0.2-0.1-0.3
				c-0.8,0.4-1.4,0.5-2.2,0.6c-0.2,0-0.2,0.3-0.1,0.3c0.8,0.2,1.5,0.2,2.3,0c0.2-0.1,0.2-0.4-0.1-0.3c-0.4,0-0.3,0-0.8,0.1
				c-0.2,0.1-0.1,0.4,0.1,0.3c0.5,0,0.8-0.1,1.3-0.2c0.2-0.1,0.1-0.4-0.1-0.3c-0.4,0.1-0.8,0.1-1.2,0.2c-0.2,0-0.1,0.4,0.1,0.3
				c0.6-0.1,1.2-0.2,1.8-0.3c0.2-0.1,0.1-0.3-0.1-0.3c-0.7,0-1.3,0.1-2,0.2c-0.2,0-0.1,0.4,0.1,0.3c0.9-0.1,1.7-0.2,2.6-0.3
				c0.2,0,0.1-0.3-0.1-0.3c-1,0-2,0.1-3,0.3c-0.2,0-0.1,0.4,0.1,0.3c1.1-0.1,2.2-0.2,3.3-0.4c0.2,0,0.1-0.4-0.1-0.3
				c-0.6,0.1-1.3,0.2-1.9,0.3c-0.2,0-0.1,0.4,0.1,0.3c1.5-0.1,3-0.5,4.4-1c-0.1-0.1-0.1-0.2-0.1-0.3c-0.4,0.2-0.3,0.1-0.6,0.5
				c-0.1,0.1,0,0.4,0.2,0.3c0.2-0.1,0.4-0.2,0.7-0.3c0.2-0.1,0.1-0.4-0.1-0.3c-0.4,0.1-0.9,0.2-1.3,0.3c-0.2,0.1-0.1,0.4,0.1,0.3
				c0.4,0,0.3,0,0.7-0.1c0.2-0.1,0.1-0.4-0.1-0.3c-0.8,0.1-1.5,0.3-2.3,0.5c-0.2,0.1-0.1,0.4,0.1,0.3c0.9-0.2,1.7-0.4,2.5-0.7
				c0.2-0.1,0.1-0.4-0.1-0.3c-0.8,0.1-1.5,0.3-2.3,0.5c-0.2,0.1-0.1,0.4,0.1,0.3c0.8-0.2,1.5-0.4,2.3-0.7c0.2-0.1,0.1-0.4-0.1-0.3
				c-0.8,0.1-1.5,0.3-2.3,0.4c0,0.1,0.1,0.2,0.1,0.3c0.6-0.2,1.2-0.4,1.8-0.7c0.2-0.1,0.1-0.4-0.1-0.3c-0.9,0.1-1.7,0.3-2.5,0.5
				c-0.2,0.1-0.1,0.4,0.1,0.3c1-0.2,2-0.4,2.9-0.7c0.2-0.1,0.1-0.4-0.1-0.3c-1.1,0.3-2.3,0.6-3.4,1c-0.2,0.1-0.1,0.4,0.1,0.3
				c0.9-0.2,1.9-0.5,2.8-0.8c0-0.1-0.1-0.2-0.1-0.3c-0.7,0.2-1.4,0.4-2,0.7c-0.2,0.1-0.1,0.4,0.1,0.3c0.8-0.1,1.7-0.3,2.5-0.5
				c0-0.1-0.1-0.2-0.1-0.3c-0.5,0.2-1,0.4-1.6,0.6c-0.2,0.1-0.1,0.4,0.1,0.3c0.8-0.1,1.5-0.4,2.3-0.7c0.1-0.1,0.1-0.3-0.1-0.3
				c-0.4,0.1-0.4,0-0.7,0.2c-0.2,0.1-0.1,0.3,0.1,0.3c0.5,0,0.7-0.1,1-0.4c0.1-0.1,0.1-0.2,0-0.3c-0.1,0-0.1-0.1-0.2-0.1
				c-0.1,0-0.1,0-0.2,0c-0.1,0-0.1,0.1-0.2,0.1C60,58.5,60,58.6,60,58.6c0.1,0.9,1.2,0.2,0.7-0.4c-0.5-0.6-1.2,0.5-0.3,0.7
				c0.1,0,0.1,0,0.2-0.1c0.5-0.8-0.6-0.9-1-0.3c-0.1,0.1,0.1,0.3,0.2,0.2c0.5-0.1,0.4-0.1,0.7-0.4c0.1-0.1,0-0.3-0.1-0.3
				c-0.4,0-0.3,0-0.7,0.1c0,0.1,0.1,0.2,0.1,0.3c0.4-0.1,0.3-0.1,0.6-0.4c0.1-0.1,0-0.3-0.1-0.3c-0.4-0.1-0.7,0-1,0.3
				c-0.1,0.1,0,0.3,0.1,0.3c0.6,0,0.4,0.1,0.9-0.1c0.2-0.1,0.2-0.3,0-0.3c-0.6-0.1-1-0.1-1.6,0.2c-0.1,0.1-0.2,0.3,0,0.3
				c0.6,0.1,1,0.1,1.5-0.1c0.2-0.1,0.2-0.3-0.1-0.3c-0.6,0-1.1,0.1-1.7,0.3c-0.2,0.1-0.1,0.3,0.1,0.3c0.6,0.1,0.9,0,1.4-0.4
				c0.1-0.1,0.1-0.3,0-0.3c-0.6-0.2-1.2-0.2-1.8,0c-0.2,0.1-0.2,0.4,0.1,0.3c0.5-0.1,0.9-0.2,1.4-0.4c0.2-0.1,0.2-0.4-0.1-0.3
				c-0.8,0.1-1.5,0.2-2.2,0.4c-0.2,0.1-0.2,0.4,0.1,0.3c0.6-0.1,1.2-0.2,1.8-0.3c0-0.1-0.1-0.2-0.1-0.3c-0.9,0.2-1.7,0.3-2.6,0.5
				c0,0.1,0.1,0.2,0.1,0.3c0.7-0.1,1.4-0.3,2.1-0.4c0-0.1-0.1-0.2-0.1-0.3c-1.1,0.2-2.1,0.4-3.2,0.6c0,0.1,0.1,0.2,0.1,0.3
				c1.2-0.3,2.3-0.5,3.5-0.6c0-0.1,0-0.2-0.1-0.3c-1.3,0.3-2.6,0.7-4,1c-0.2,0.1-0.1,0.4,0.1,0.3c1.4-0.2,2.8-0.4,4.1-0.6
				c0-0.1-0.1-0.2-0.1-0.3c-1.8,0.3-3.7,0.7-5.5,1c-0.2,0-0.1,0.3,0.1,0.3c1.3,0,2.6-0.1,3.9-0.2c0-0.1,0-0.2-0.1-0.3
				c-3.4,0.9-6.9,0.5-10.1-1.1C47,58.2,46.8,58.5,47,58.6L47,58.6z"/>
		</g>
	</g>
	<g>
		<g>
			<path class="st0" d="M50,59.5c-0.3-0.2-0.6-0.3-0.9-0.3c-0.2-0.1-0.3,0.3-0.1,0.3c0.7,0.2,1.4,0.3,2,0.5c0-0.1,0.1-0.2,0.1-0.3
				c-0.7-0.1-1.4-0.3-2-0.5c0,0.1,0,0.2-0.1,0.3c0.7,0,1.3,0.1,2,0.2c0.2,0,0.2-0.3,0.1-0.3c-0.7-0.2-1.4-0.4-2-0.6
				c0,0.1-0.1,0.2-0.1,0.3c0.7,0.1,1.3,0.3,2,0.4c0-0.1,0-0.2,0.1-0.3c-0.8,0.1-1.5-0.1-2.3-0.3c0,0.1-0.1,0.2-0.1,0.3
				c0.7,0.1,1.3,0.4,2,0.6c0-0.1,0.1-0.2,0.1-0.3c-0.8-0.1-1.5-0.3-2.3-0.5c-0.2-0.1-0.3,0.2-0.1,0.3c0.6,0.3,1.2,0.6,1.9,0.8
				c0.2,0.1,0.3-0.2,0.1-0.3c-0.5-0.2-1-0.4-1.5-0.6c-0.2-0.1-0.3,0.2-0.1,0.3c0.7,0.3,1.4,0.6,2.1,0.7c0.2,0,0.3-0.2,0.1-0.3
				c-0.4-0.2-0.7-0.3-1.1-0.3c-0.2,0-0.3,0.2-0.1,0.3c0.6,0.2,1.1,0.3,1.7,0.4c0.2,0,0.3-0.2,0.1-0.3C51,59.8,50.5,59.7,50,59.5
				c-0.2,0-0.3,0.3-0.1,0.4c0.6,0.2,1.2,0.3,1.8,0.4c0.2,0,0.2-0.3,0.1-0.3c-0.4-0.1-0.7-0.2-1.1-0.4c0,0.1-0.1,0.2-0.1,0.3
				c0.9,0.2,1.9,0.4,2.8,0.4c0.2,0,0.2-0.2,0.1-0.3c-0.5-0.2-1-0.4-1.6-0.4c-0.2,0-0.2,0.3-0.1,0.3c0.7,0.2,1.3,0.3,2,0.3
				c0.2,0,0.2-0.3,0-0.3c-0.5-0.1-1-0.1-1.4-0.1c-0.2,0-0.2,0.2-0.1,0.3c0.4,0.2,0.8,0.3,1.2,0.3c0-0.1,0-0.2,0-0.3
				c-0.2,0-0.5,0-0.8,0c-0.2,0-0.2,0.2-0.1,0.3c0.3,0.2,0.5,0.2,0.9,0.2c0.2,0,0.2-0.3,0.1-0.3c-0.1-0.1-0.3-0.1-0.4-0.1
				c0,0.1,0,0.2-0.1,0.3c0.2,0,0.4,0,0.7,0c0.2,0,0.2-0.4,0-0.3c-0.2,0-0.4,0-0.7,0c-0.2,0-0.2,0.3-0.1,0.3c0.1,0.1,0.3,0.1,0.4,0.1
				c0-0.1,0-0.2,0.1-0.3c-0.2-0.1-0.5-0.1-0.7-0.2c0,0.1-0.1,0.2-0.1,0.3c0.2,0,0.5,0,0.8,0c0.2,0,0.2-0.3,0-0.3
				c-0.4-0.1-0.7-0.2-1-0.3c0,0.1-0.1,0.2-0.1,0.3c0.5,0,1,0,1.4,0.1c0-0.1,0-0.2,0-0.3c-0.7-0.1-1.3-0.1-1.9-0.3
				c0,0.1,0,0.2-0.1,0.3c0.5,0,1,0.1,1.4,0.3c0-0.1,0.1-0.2,0.1-0.3c-0.9-0.1-1.8-0.2-2.8-0.4c-0.2-0.1-0.3,0.3-0.1,0.3
				c0.4,0.1,0.8,0.2,1.1,0.4c0-0.1,0-0.2,0.1-0.3c-0.6,0-1.2-0.1-1.7-0.4c0,0.1-0.1,0.2-0.1,0.3c0.5,0.1,0.9,0.2,1.4,0.4
				c0.1-0.1,0.1-0.2,0.1-0.3c-0.6-0.1-1.1-0.2-1.7-0.4c0,0.1-0.1,0.2-0.1,0.3c0.4,0,0.7,0.1,1,0.3c0.1-0.1,0.1-0.2,0.1-0.3
				c-0.7-0.2-1.4-0.4-2-0.7c-0.1,0.1-0.1,0.2-0.1,0.3c0.5,0.1,0.9,0.3,1.4,0.5c0.1-0.1,0.1-0.2,0.1-0.3c-0.6-0.2-1.2-0.5-1.8-0.8
				c-0.1,0.1-0.1,0.2-0.1,0.3c0.8,0.2,1.5,0.4,2.3,0.5c0.2,0,0.3-0.2,0.1-0.3c-0.6-0.3-1.3-0.5-2-0.6c-0.2-0.1-0.3,0.3-0.1,0.3
				c0.8,0.2,1.5,0.4,2.4,0.3c0.2,0,0.2-0.3,0.1-0.3c-0.7-0.1-1.3-0.3-2-0.4c-0.2-0.1-0.3,0.3-0.1,0.3c0.7,0.2,1.4,0.4,2,0.6
				c0-0.1,0-0.2,0.1-0.3c-0.7-0.1-1.3-0.1-2-0.2c-0.2,0-0.2,0.3-0.1,0.3c0.7,0.2,1.3,0.4,2,0.5c0.2,0.1,0.3-0.3,0.1-0.3
				c-0.7-0.2-1.4-0.3-2-0.5c0,0.1-0.1,0.2-0.1,0.3c0.3,0,0.6,0.1,0.8,0.3C50,59.9,50.2,59.6,50,59.5L50,59.5z"/>
		</g>
	</g>
	<g>
		<g>
			<path class="st0" d="M60.1,58.4C60,58.4,60,58.4,60.1,58.4C60,58.5,60,58.4,60.1,58.4c0-0.1,0-0.1,0.1-0.1c0,0,0,0,0,0
				c0.1,0,0.1,0,0.2,0.1c0,0,0,0,0,0.1c0,0.1,0,0.1-0.1,0.2l0,0c-0.1,0-0.1,0-0.2,0.1v0c0,0.2,0.4,0.2,0.3,0c0-0.2-0.2-0.4-0.4-0.2
				c-0.1,0-0.1,0.1-0.1,0.2c0.1,0.1,0.2,0.2,0.3,0.1c0.1-0.1,0.1-0.3,0-0.4c-0.2-0.2-0.6-0.1-0.5,0.3C59.8,58.7,60.1,58.6,60.1,58.4
				L60.1,58.4z"/>
		</g>
	</g>
	<g>
		<g>
			<path class="st0" d="M52.7,60.5c-0.3-0.1-0.7-0.2-1-0.2c-0.2-0.1-0.3,0.2-0.1,0.3c1.5,0.7,3.4,0.6,4.9,0.3c1.4-0.2,3-0.4,4.1-1.3
				c0.2-0.1-0.1-0.4-0.2-0.2c-1.1,0.9-3,1.2-4.4,1.3c-1.3,0.1-3,0.3-4.3-0.4c-0.1,0.1-0.1,0.2-0.1,0.3c0.3,0.1,0.7,0.2,1,0.2
				C52.8,60.9,52.9,60.5,52.7,60.5L52.7,60.5z"/>
		</g>
	</g>
	<g>
		<g>
			<path class="st0" d="M56.4,60.7c1,0.1,5.2-0.2,4.3-2.1c-0.1-0.2-0.4,0-0.3,0.2c0.7,1.4-3.4,1.6-4,1.5
				C56.2,60.4,56.2,60.7,56.4,60.7L56.4,60.7z"/>
		</g>
	</g>
	<g>
		<g>
			<path class="st0" d="M60.2,59.5c1.5-0.9-0.2-2.1-1.2-2.4c-1-0.2-2-0.1-2.9,0.3c-1.7,0.6-2.9,2.3-4.8,2c-0.2,0-0.3,0.3-0.1,0.3
				c1.3,0.2,2.3-0.3,3.3-1c0.7-0.5,1.5-0.9,2.4-1.2c0.5-0.1,1-0.2,1.5-0.1c0.4,0,3.3,0.9,1.7,1.8C59.9,59.3,60,59.6,60.2,59.5
				L60.2,59.5z"/>
		</g>
	</g>
	<g>
		<g>
			<path class="st0" d="M53.6,59.3c0.7-0.4,1.4-0.7,2.1-0.9c0.2-0.1,0.1-0.4-0.1-0.3c-0.6,0.2-1.1,0.4-1.7,0.5
				c0,0.1,0.1,0.2,0.1,0.3c1-0.3,2-0.7,3-1c0.2-0.1,0.1-0.4-0.1-0.3c-0.8,0.3-1.5,0.6-2.3,0.9c-0.2,0.1-0.1,0.4,0.1,0.3
				c0.7-0.2,1.5-0.5,2.2-0.8c0-0.1-0.1-0.2-0.1-0.3c-0.5,0.2-1,0.4-1.5,0.5c0.1,0.1,0.1,0.2,0.1,0.3c0.5-0.2,1-0.4,1.5-0.7
				c0.2-0.1,0.1-0.4-0.1-0.3c-0.6,0.1-1.1,0.3-1.6,0.4c0.1,0.1,0.1,0.2,0.1,0.3c0.5-0.2,1-0.4,1.6-0.6c0-0.1-0.1-0.2-0.1-0.3
				c-0.4,0.1-0.8,0.3-1.2,0.4c-0.2,0.1-0.1,0.4,0.1,0.3c0.6-0.2,1.2-0.3,1.8-0.4c-0.1-0.1-0.1-0.2-0.1-0.3c-0.5,0.2-1,0.5-1.6,0.7
				c-0.2,0.1-0.1,0.4,0.1,0.3c0.6-0.2,1.2-0.4,1.7-0.6c0.2-0.1,0.1-0.4-0.1-0.3c-0.5,0.1-0.9,0.3-1.4,0.4c0,0.1,0.1,0.2,0.1,0.3
				c0.7-0.2,1.4-0.4,2.1-0.4c0-0.1,0-0.2-0.1-0.3c-0.5,0.2-0.9,0.3-1.5,0.3c0,0.1,0,0.2,0.1,0.3c0.7-0.2,1.3-0.2,2-0.2
				c0-0.1,0-0.2-0.1-0.3c-0.4,0-0.7,0-1,0c0,0.1,0,0.2,0,0.3c0.3,0,0.7,0,1,0c0-0.1,0-0.2,0-0.3c-0.4,0.1-0.9,0.1-1.2-0.1
				c0,0.1,0,0.2,0,0.3c0.6-0.2,1.1-0.1,1.6,0.2c0-0.1,0.1-0.2,0.1-0.3c-0.3-0.1-0.7-0.2-1-0.3c0,0.1-0.1,0.2-0.1,0.3
				c0.5,0,0.9,0.1,1.2,0.4c0.1-0.1,0.1-0.2,0.2-0.3c-0.1-0.1-0.2-0.1-0.3-0.1c0,0.1-0.1,0.2-0.1,0.3c0.1,0,0.3,0,0.4,0
				s0.2-0.2,0.1-0.3c-0.1-0.1-0.1-0.1-0.2-0.1c-0.1-0.1-0.4,0-0.3,0.2c0.2,0.3,0.2,0.3,0.4,0.6c0.1,0.2,0.4-0.1,0.2-0.2
				c-0.1-0.2-0.2-0.3-0.4-0.5c-0.1,0.1-0.2,0.1-0.3,0.2c0.1,0.1,0.1,0.1,0.2,0.1c0-0.1,0.1-0.2,0.1-0.3c-0.1,0-0.3,0-0.4,0
				c-0.2,0-0.2,0.2-0.1,0.3c0.1,0.1,0.2,0.1,0.3,0.1c0.2,0.1,0.4-0.2,0.2-0.3c-0.4-0.3-0.8-0.4-1.4-0.5c-0.2,0-0.2,0.2-0.1,0.3
				c0.4,0.2,0.7,0.4,1.2,0.4c0.2,0,0.2-0.2,0.1-0.3c-0.6-0.4-1.2-0.5-1.8-0.3c-0.2,0.1-0.2,0.3,0,0.3c0.5,0.2,0.9,0.2,1.4,0.1
				c0.2,0,0.2-0.3,0-0.3c-0.4-0.1-0.8-0.1-1.2,0c-0.1,0-0.2,0.2,0,0.3c0.5,0.2,0.8,0.2,1.3,0.1c0.2-0.1,0.1-0.3-0.1-0.3
				c-0.7-0.1-1.4,0-2.1,0.2C56.7,57.8,56.7,58,57,58c0.6,0,1.1-0.1,1.6-0.3c0.2-0.1,0.2-0.4-0.1-0.3c-0.8,0.1-1.5,0.2-2.2,0.4
				c-0.2,0.1-0.1,0.4,0.1,0.3c0.5-0.1,0.9-0.2,1.4-0.4c0-0.1-0.1-0.2-0.1-0.3c-0.6,0.2-1.2,0.4-1.7,0.6c0,0.1,0.1,0.2,0.1,0.3
				c0.6-0.2,1.1-0.4,1.7-0.7c0.2-0.1,0.1-0.3-0.1-0.3c-0.6,0.1-1.2,0.2-1.8,0.4c0,0.1,0.1,0.2,0.1,0.3c0.4-0.1,0.8-0.3,1.2-0.4
				c0.2-0.1,0.1-0.4-0.1-0.3c-0.6,0.2-1.1,0.4-1.7,0.6c-0.2,0.1-0.1,0.4,0.1,0.3c0.6-0.1,1.1-0.3,1.6-0.4c-0.1-0.1-0.1-0.2-0.1-0.3
				c-0.5,0.2-1,0.4-1.5,0.7c-0.2,0.1-0.1,0.4,0.1,0.3c0.5-0.2,1-0.4,1.5-0.5c0.2-0.1,0.1-0.4-0.1-0.3c-0.7,0.2-1.5,0.5-2.2,0.8
				c0.1,0.1,0.1,0.2,0.1,0.3c0.7-0.3,1.4-0.6,2.2-0.9c0-0.1-0.1-0.2-0.1-0.3c-1,0.4-2,0.7-3,1c-0.2,0.1-0.1,0.4,0.1,0.3
				c0.6-0.2,1.1-0.4,1.7-0.5c0-0.1-0.1-0.2-0.1-0.3c-0.8,0.3-1.5,0.6-2.2,1C53.3,59.1,53.4,59.4,53.6,59.3L53.6,59.3z"/>
		</g>
	</g>
	<g>
		<g>
			<path class="st0" d="M57,60.2c0.2,0,0.4-0.1,0.7-0.1c0-0.1,0-0.2-0.1-0.3c-0.2,0.1-0.3,0.1-0.5,0.1c0,0.1,0,0.2,0.1,0.3
				c0.2-0.1,0.3-0.1,0.5-0.1c0.2,0,0.2-0.4,0-0.3c-0.1,0-0.2,0.1-0.4,0.1c-0.2,0.1,0,0.4,0.2,0.3c0.1,0,0.1-0.1,0.2-0.1
				c0-0.1,0-0.2,0-0.3c-0.2,0-0.4,0.1-0.6,0.1c-0.2,0.1-0.2,0.4,0.1,0.3c0.2,0,0.4-0.1,0.6-0.1c0.2-0.1,0.2-0.4-0.1-0.3
				c-0.2,0-0.4,0.1-0.7,0.1c-0.1,0-0.2,0.1-0.2,0.2C56.9,60.1,56.9,60.2,57,60.2L57,60.2z"/>
		</g>
	</g>
	<g>
		<g>
			<path class="st0" d="M47.2,58.2c-0.1-0.2-0.2-0.2-0.4-0.4c-0.3-0.2-0.5-0.4-0.7-0.6c-0.1-0.1-0.2-0.2-0.3-0.3
				c-0.1-0.3,0-0.5,0.3-0.6c0.2-0.1,0.4-0.1,0.5,0c0.4,0.1,0.1,0.2-0.1,0.5c0.1-0.2-0.2-0.4-0.3-0.2c-0.4,0.5,0.7,0.6,0.9,0.4
				c0.6-0.4-0.2-1-0.6-1.1c-0.5-0.1-1.2,0.2-1.2,0.8c0,0.3,0.3,0.6,0.5,0.7c0.1,0.1,0.3,0.2,0.4,0.4c0.2,0.1,0.5,0.2,0.6,0.5
				C47,58.6,47.3,58.4,47.2,58.2L47.2,58.2z"/>
		</g>
	</g>
	<g>
		<g>
			<path class="st0" d="M74.3,58.1c0.5-0.4,1.3-0.8,1.6-1.4c0.2-0.6-0.3-0.9-0.9-0.9c-0.4,0-1.3,0.2-1.2,0.8
				c0.1,0.7,1.1,0.3,1.4,0.2c0.2-0.1,0-0.4-0.2-0.3c-0.2,0.1-0.4,0.2-0.6,0.2c-0.3,0-0.2-0.2,0-0.4c0.3-0.2,1.1-0.3,1.2,0.1
				c0.2,0.6-1.1,1.2-1.4,1.5C74,57.9,74.2,58.2,74.3,58.1L74.3,58.1z"/>
		</g>
	</g>
	<g>
		<g>
			<path class="st0" d="M62,58.2c-1.4,0.8-0.1,2.2,1,2.5c1.3,0.4,2.8,0.6,4.1,0.6c1.3,0,2.2-0.4,3.3-1c0.2-0.1,0.1-0.4-0.1-0.3
				c-2.3,0.9-4.7,0.6-7.1,0.2c-0.2,0-0.3,0.3-0.1,0.3c1.2,0.4,2.5,0.5,3.7,0.5c0.2,0,0.2-0.3,0-0.3c-0.8-0.1-1.6-0.1-2.4-0.2
				c-0.6-0.1-1.7-0.1-2-0.7c-0.1-0.2-0.4,0-0.3,0.2c0.6,1.2,3.6,1.1,4.7,1.2c0-0.1,0-0.2,0-0.3c-1.3,0-2.5-0.1-3.7-0.5
				c0,0.1-0.1,0.2-0.1,0.3c2.5,0.4,4.9,0.6,7.3-0.2c-0.1-0.1-0.1-0.2-0.1-0.3c-1.3,0.8-2.5,1.1-4,0.9c-0.8-0.1-1.7-0.2-2.5-0.3
				c-0.3-0.1-0.6-0.1-0.8-0.2c-0.9-0.2-1.1-0.8-0.7-1.8C62.3,58.4,62.1,58.1,62,58.2L62,58.2z"/>
		</g>
	</g>
	<g>
		<g>
			<path class="st0" d="M60.4,58.7c1.1,1.9-2.6,2.3-3.6,2.4c-1.3,0.1-2.6-0.1-3.9-0.4c0,0.1-0.1,0.2-0.1,0.3
				c1.9,0.3,3.8,0.2,5.7-0.2c0.2-0.1,0.1-0.4-0.1-0.3c-1.4,0.2-2.9,0.2-4.3,0.2c-0.2,0-0.2,0.3-0.1,0.3c2.1,0.6,4.3,0.3,6.2-0.9
				c-0.1-0.1-0.1-0.2-0.2-0.3c-0.9,0.6-1.7,0.9-2.8,0.8c-0.2,0-0.2,0.3,0,0.3c1,0,1.8-0.2,2.7-0.7c0.2-0.1,0-0.4-0.2-0.3
				c-2.7,1.3-6.7,1.9-9.3,0c-0.2-0.1-0.4,0.2-0.2,0.3c2.7,2,6.8,1.3,9.6,0C60,60.1,60,60,59.9,59.9c-0.8,0.5-1.6,0.7-2.6,0.6
				c0,0.1,0,0.2,0,0.3c1.1,0,2.1-0.2,3-0.9c0.2-0.1,0-0.4-0.2-0.3c-1.8,1.2-3.9,1.5-5.9,0.9c0,0.1,0,0.2-0.1,0.3
				c1.4,0.1,2.9,0,4.3-0.2c0-0.1,0-0.2-0.1-0.3c-1.8,0.4-3.7,0.5-5.6,0.2c-0.2,0-0.3,0.3-0.1,0.3c2.1,0.6,4.5,0.7,6.6,0
				c1.1-0.4,2-1.3,1.4-2.5C60.6,58.3,60.3,58.5,60.4,58.7L60.4,58.7z"/>
		</g>
	</g>
	<g>
		<g>
			<path class="st0" d="M49.4,59.8c0.3,0.1,0.6,0.2,0.8,0.4c0-0.1,0-0.2,0-0.3c-0.1,0-0.2,0.1-0.2,0.1c-0.2,0.1-0.2,0.3,0,0.3
				c1.8,0.7,3.7,1.3,5.7,0.9c0.2-0.1,0.1-0.4-0.1-0.3c-1.9,0.4-3.7-0.2-5.5-0.9c0,0.1,0,0.2,0,0.3c0.1,0,0.2-0.1,0.2-0.1
				c0.1,0,0.2-0.2,0-0.3c-0.3-0.1-0.6-0.2-0.8-0.4C49.4,59.4,49.2,59.7,49.4,59.8L49.4,59.8z"/>
		</g>
	</g>
	<g>
		<g>
			<path class="st0" d="M53.6,61.3c1.7,0.7,4.1,0.6,5.6-0.7c0.2-0.1-0.1-0.4-0.2-0.2c-1.3,1.1-3.6,1.3-5.2,0.6
				C53.6,61,53.4,61.3,53.6,61.3L53.6,61.3z"/>
		</g>
	</g>
	<g>
		<g>
			<path class="st0" d="M61.4,58.6c-0.4,0.4-0.4,0.9,0,1.3c0.4,0.5,1.1,0.7,1.7,0.7c0.2,0,0.2-0.3,0-0.3c-0.6-0.1-1-0.4-1.4-0.8
				c-0.2-0.2-0.4-0.4-0.2-0.7c0.1-0.2,0.4-0.4,0.7-0.4c0.2-0.1,0.1-0.4-0.1-0.3c-0.5,0.1-1.4,0.7-1,1.3c0.2,0.3,0.6,0.6,0.9,0.8
				c0.4,0.2,0.7,0.4,1.2,0.4c0-0.1,0-0.2,0-0.3c-0.6,0-2.3-0.6-1.5-1.4C61.8,58.7,61.5,58.4,61.4,58.6L61.4,58.6z"/>
		</g>
	</g>
	<g>
		<g>
			<path class="st0" d="M75.5,56.2c0.4,0.4-0.5,1.1-0.8,1.3c-0.2,0.1,0,0.4,0.2,0.3c0.5-0.3,1.4-1.2,0.9-1.8
				C75.6,55.8,75.3,56,75.5,56.2L75.5,56.2z"/>
		</g>
	</g>
	<g>
		<g>
			<path class="st0" d="M75.7,56.4C75.7,56.4,75.7,56.4,75.7,56.4C75.7,56.4,75.6,56.3,75.7,56.4c0,0.1-0.5,0.7-0.6,0.8
				c-0.2,0.2-0.5,0.4-0.8,0.6c-0.2,0.1,0,0.4,0.2,0.3c0.5-0.3,0.9-0.6,1.2-1.1c0.2-0.2,0.6-0.8,0.1-0.9C75.5,56,75.4,56.3,75.7,56.4
				L75.7,56.4z"/>
		</g>
	</g>
	<g>
		<g>
			<path class="st0" d="M46.2,56c-0.5,0.2-0.6,0.6-0.4,1.1c0.2,0.6,0.8,1,1.2,1.4c0.2,0.1,0.4-0.1,0.2-0.2c-0.2-0.2-0.5-0.4-0.7-0.6
				c-0.2-0.2-0.9-1.1-0.2-1.3C46.5,56.3,46.4,56,46.2,56L46.2,56z"/>
		</g>
	</g>
	<g>
		<g>
			<path class="st0" d="M45.4,56.8c0,0.6,0.4,1.1,0.9,1.5c0.6,0.5,1.4,0.5,2.1,1c0.2,0.1,0.4-0.2,0.2-0.3c-0.4-0.3-0.9-0.4-1.4-0.6
				c-0.6-0.2-1.5-0.8-1.5-1.6C45.8,56.5,45.4,56.5,45.4,56.8L45.4,56.8z"/>
		</g>
	</g>
	<g>
		<g>
			<path class="st0" d="M45.5,57c0.6,2,2.9,2.7,4.6,3.3c0.2,0.1,0.3-0.3,0.1-0.3c-1.6-0.5-3.9-1.2-4.4-3
				C45.8,56.7,45.5,56.7,45.5,57L45.5,57z"/>
		</g>
	</g>
	<g>
		<g>
			<path class="st0" d="M55.3,61.6c2.1,0.7,5.4,0.5,5.6-2.4c0-0.2-0.3-0.2-0.3-0.1c-0.5,1.8-2.5,2-4.1,2.1c-0.2,0-0.2,0.3-0.1,0.3
				c1.1,0.4,2.2,0.1,3.1-0.6c0.2-0.1-0.1-0.4-0.2-0.3c-0.7,0.4-1.4,0.6-2.1,0.7c-0.2,0-0.2,0.4,0,0.3c1,0,2-0.1,2.7-0.9
				c0.1-0.2-0.1-0.4-0.2-0.2c-0.4,0.4-1,0.6-1.5,0.5c-0.2,0-0.2,0.3,0,0.3c0.7,0.1,1.3-0.1,1.8-0.6c-0.1-0.1-0.2-0.2-0.2-0.2
				c-0.6,0.7-1.5,0.8-2.5,0.8c0,0.1,0,0.2,0,0.3c0.8-0.1,1.6-0.3,2.3-0.7c-0.1-0.1-0.1-0.2-0.2-0.3c-0.8,0.7-1.8,0.8-2.8,0.5
				c0,0.1,0,0.2-0.1,0.3c1.8-0.1,3.9-0.3,4.4-2.3c-0.1,0-0.2,0-0.3-0.1c-0.2,2.6-3.3,2.7-5.2,2.1C55.2,61.2,55.1,61.6,55.3,61.6
				L55.3,61.6z"/>
		</g>
	</g>
	<g>
		<path class="st1" d="M63.8,60.4c0.8,0.2,1.6,0.3,2.3,0.3c-0.2-0.1-0.4-0.1-0.6-0.1C65.3,60.6,64.6,60.5,63.8,60.4z"/>
		<path class="st1" d="M64.5,58.3c-0.1,0-0.3-0.1-0.4-0.2c-0.2,0-0.4-0.1-0.5-0.1c-0.1,0-0.1-0.1-0.1-0.1c0,0,0,0-0.1,0
			c-0.3,0.1-0.5,0.2-0.9,0.2c0,0,0,0,0,0.1c0.1,0,0.1,0,0.1,0c0,0,0.1-0.1,0.1-0.1c0.2,0,0.5,0.1,0.7,0.1
			C63.9,58.1,64.2,58.2,64.5,58.3z"/>
		<path class="st1" d="M64.8,59.7c-0.2-0.1-0.4-0.1-0.6-0.1c0,0-0.1,0-0.1,0c-0.3,0-0.7,0.1-1,0.1c0.2,0,0.3,0.1,0.5,0.1
			c0.5,0,1,0.1,1.5,0.1C65.1,59.8,65,59.7,64.8,59.7z"/>
		<path class="st1" d="M61.9,59.3c-0.1,0-0.1,0.1-0.2,0.1c0.1,0.1,0.2,0.2,0.3,0.2c0,0,0-0.1,0-0.1c0,0,0-0.1,0-0.1v0l0,0
			C62,59.4,62,59.3,61.9,59.3z"/>
		<path class="st1" d="M62.8,59.8c0-0.1,0-0.1,0-0.1c-0.1,0-0.2,0-0.4,0.1C62.5,59.7,62.6,59.8,62.8,59.8z"/>
		<path class="st1" d="M62,58.3C62,58.2,62,58.2,62,58.3c0-0.1,0-0.2,0.1-0.3c-0.1,0.1-0.1,0.1-0.2,0.1C61.9,58.1,61.9,58.2,62,58.3
			z"/>
		<path class="st1" d="M61.6,59.8c-0.1-0.1-0.1-0.1-0.1-0.2c0,0.1,0.1,0.2,0.1,0.3C61.6,59.9,61.6,59.8,61.6,59.8z"/>
		<path class="st1" d="M67.9,58.6c-0.1,0-0.2-0.1-0.2-0.1c0,0.1,0,0.1-0.1,0.1c0.2,0,0.4,0,0.5,0.1C68,58.6,68,58.6,67.9,58.6z"/>
		<path class="st1" d="M66.9,61.1c0,0-0.1,0-0.1,0.1c0.1,0,0.2,0,0.4,0c0.1,0,0.2,0,0.3,0c0.1,0,0.2-0.1,0.3-0.1c-0.1,0-0.1,0-0.2,0
			C67.3,61.1,67.1,61.1,66.9,61.1z"/>
		<path class="st1" d="M65.8,60C65.8,60,65.8,60.1,65.8,60c0.2,0.1,0.4,0.1,0.6,0.1C66.3,60.2,66.1,60.1,65.8,60
			C65.8,60.1,65.8,60.1,65.8,60z"/>
		<path class="st1" d="M70.6,60.2C70.6,60.2,70.6,60.2,70.6,60.2c0-0.1,0,0-0.1,0C70.5,60.2,70.5,60.2,70.6,60.2z"/>
		<path class="st1" d="M70.8,60L70.8,60L70.8,60L70.8,60z"/>
		<path class="st1" d="M66.3,58.4c-0.1,0-0.1,0-0.2-0.1c-0.1,0-0.2,0-0.3,0c-0.2,0-0.4,0-0.6,0c0.1,0,0.2,0,0.3,0.1
			c0.3,0.1,0.6,0.1,0.9,0.2c0,0,0.1,0,0.1,0c0,0,0.1,0,0.1,0C66.4,58.5,66.4,58.5,66.3,58.4C66.3,58.4,66.3,58.4,66.3,58.4z"/>
		<path class="st1" d="M70.2,60.2c0.1,0,0.2,0,0.2-0.1C70.3,60.2,70.3,60.2,70.2,60.2C70.2,60.2,70.2,60.2,70.2,60.2z"/>
		<path class="st1" d="M68.1,60.4C68.1,60.4,68.1,60.4,68.1,60.4c0,0-0.1,0-0.1,0C68,60.4,68,60.4,68.1,60.4z"/>
		<path class="st0" d="M74.5,57.6c-0.7,0.3-1.3,0.6-2,0.8c-0.1,0-0.3,0.1-0.4,0.1c0,0-0.1,0-0.1,0c-0.1,0-0.2,0.1-0.3,0.1
			c-0.4,0.1-0.7,0.1-1.1,0.2h0c-2.3,0-4.4-1.8-6.9-1.7c-0.9,0.1-2.5,0.6-2.5,1.6c-0.7,1.5,1.2,2.6,2.4,2.9c1.3,0.3,2.6,0.2,3.9-0.1
			c0.8-0.1,1.6-0.2,2.3-0.5c1.2-0.3,2.2-1,3.1-1.6c0.1-0.1,0.1-0.2,0.1-0.2c0.4-0.2,0.7-0.4,1-0.7c0.1-0.1,0.1-0.1,0.1-0.2
			c0.2-0.1,0.4-0.2,0.6-0.3C74.9,57.8,74.7,57.5,74.5,57.6z M61.4,59.6c0.1,0.1,0.1,0.1,0.1,0.2c0,0,0,0.1,0,0.1
			C61.5,59.8,61.5,59.7,61.4,59.6z M67.7,58.5c0.1,0,0.2,0.1,0.2,0.1c0.1,0,0.1,0.1,0.2,0.1c-0.2,0-0.4,0-0.5-0.1
			C67.6,58.6,67.6,58.5,67.7,58.5z M62,57.9c0,0.1,0,0.1,0,0.2c0,0-0.1,0-0.1,0.1c0-0.1-0.1-0.1-0.1-0.1C61.9,58.1,62,58,62,57.9z
			 M62.1,59.4C62.1,59.4,62.1,59.4,62.1,59.4c0,0.1,0,0.1,0,0.1c-0.1-0.1-0.2-0.1-0.3-0.2c0.1,0,0.1,0,0.2-0.1
			C62,59.3,62,59.4,62.1,59.4L62.1,59.4C62.1,59.4,62.1,59.4,62.1,59.4z M62.8,59.8c-0.1,0-0.2-0.1-0.3-0.1c0.1,0,0.2,0,0.4-0.1
			C62.8,59.7,62.8,59.8,62.8,59.8z M62.7,58.1c-0.1,0-0.1,0-0.1,0c0,0,0,0,0-0.1c0.3,0,0.6-0.1,0.9-0.2c0,0,0,0,0.1,0
			c0,0.1,0.1,0.1,0.1,0.1c0.2,0.1,0.4,0.1,0.5,0.1c0.1,0.1,0.3,0.1,0.4,0.2c-0.3-0.1-0.7-0.1-1-0.1C63.3,58.1,63,58.1,62.7,58.1
			C62.8,58.1,62.8,58.1,62.7,58.1z M63.1,59.6c0.3,0,0.7-0.1,1-0.1c0,0,0,0,0.1,0c0.2,0.1,0.4,0.1,0.6,0.1c0.1,0,0.2,0.1,0.4,0.1
			c-0.5,0-1-0.1-1.5-0.1C63.5,59.7,63.3,59.7,63.1,59.6z M63.8,60.4c0.8,0.1,1.5,0.1,1.8,0.2c0.2,0.1,0.4,0.1,0.6,0.1
			C65.3,60.7,64.5,60.6,63.8,60.4z M65.8,60.1L65.8,60.1L65.8,60.1c0.2,0,0.4,0.1,0.6,0.1C66.2,60.2,66,60.1,65.8,60.1z M66.4,58.6
			C66.4,58.6,66.3,58.6,66.4,58.6c-0.4,0-0.7-0.1-1-0.1c-0.1,0-0.2,0-0.3-0.1c0.2,0,0.4,0,0.6,0c0.1,0,0.2,0,0.3,0
			c0.1,0,0.1,0.1,0.2,0.1C66.3,58.4,66.3,58.4,66.4,58.6c0-0.1,0,0,0.1,0C66.4,58.6,66.4,58.6,66.4,58.6z M67.4,61.1
			c-0.1,0-0.2,0-0.3,0c-0.1,0-0.2,0-0.4,0c0,0,0.1,0,0.1-0.1c0.2,0,0.4,0,0.7-0.1c0.1,0,0.1,0,0.2,0C67.6,61.1,67.5,61.1,67.4,61.1z
			 M68.1,60.4c-0.1,0-0.1,0-0.2,0C68,60.4,68,60.4,68.1,60.4C68.1,60.4,68.1,60.4,68.1,60.4z M70.2,60.2
			C70.2,60.2,70.2,60.2,70.2,60.2c0.1,0,0.2-0.1,0.2-0.1C70.3,60.2,70.3,60.2,70.2,60.2z M70.6,60.2c0,0-0.1,0-0.1,0
			C70.5,60.2,70.6,60.1,70.6,60.2C70.6,60.2,70.6,60.2,70.6,60.2z M70.8,60L70.8,60L70.8,60L70.8,60z"/>
	</g>
	<g>
		<g>
			<path class="st0" d="M45.7,28.3c4.7-1.3,9.4-1.9,14.2-2.2c2.3-0.2,4.5-0.3,6.8-0.4c1.2-0.1,2.4-0.1,3.6-0.1
				c0.9,0,2.8-0.2,3.5,0.4c0.7,0.6,1.6-0.4,1-1c-1.4-1.3-4.3-0.8-6-0.8c-2.7,0.1-5.3,0.2-8,0.4C55.5,25,50.4,25.6,45.4,27
				C44.5,27.2,44.8,28.5,45.7,28.3L45.7,28.3z"/>
		</g>
	</g>
	<g>
		<g>
			<path class="st0" d="M94.1,30.4c0.8-0.3,1.8,1.5,2.1,2c0.2,0.4,0.6,1,0.5,1.5c0.2,0.4,0,0.5-0.4,0.6c-0.2,0.1-0.5,0.1-0.8,0.2
				c-2.2,0.5-4.5,0.6-6.8,0.7c-4.4,0.2-8.9,0.3-13.3,0.4c-0.9,0-0.9,1.4,0,1.4c6.3-0.1,12.8,0.1,19-0.9c1-0.2,2.8-0.2,3.5-1
				c0.6-0.7,0.2-1.9-0.1-2.6c-0.6-1.5-2.2-4.2-4.1-3.5C92.9,29.4,93.3,30.7,94.1,30.4L94.1,30.4z"/>
		</g>
	</g>
	<g>
		<path class="st1" d="M74,24.1c0.1,0,0.2,0,0.3,0.1l0,0c0.1,0,0.2-0.1,0.2-0.1c0.2,0,0.3,0,0.5,0c-0.4,0-0.8,0-1.2-0.1
			C73.9,24.1,73.9,24.1,74,24.1z"/>
		<path class="st1" d="M39.9,37c0.1,0,0.3,0,0.4,0c0,0,0,0,0,0C40.2,36.9,40.1,37,39.9,37z"/>
		<path class="st1" d="M62,24.9c0.1,0,0.2-0.1,0.4-0.1c0,0,0.1-0.1,0.1-0.1c0-0.1,0-0.1,0.1-0.1c-3.2,0.3-6.4,0.7-9.6,1.1
			c-0.6,0.1-1.2,0.2-1.8,0.2c3.6-0.4,7.2-0.7,10.8-0.9C61.9,24.9,62,24.9,62,24.9z"/>
		<path class="st1" d="M51.4,34.7c0,0-0.1,0-0.1,0c0,0.1,0,0.3-0.1,0.4c0.1,0,0.1,0,0.2,0C51.3,35,51.3,34.9,51.4,34.7z"/>
		<path class="st0" d="M89.1,26.1c-5.6-1.8-11.6-2.4-17.5-2.4c-6.1,0-12.3,0.7-18.4,1.5s-12.3,1.5-18.1,3.4
			c-0.9,0.3-1.8,0.7-2.8,1.1c-0.9,0.4-1.8,1-2.6,1.6c-2.5,1.9-4.1,4.5-2.9,7.9c0.1,0.2,0.2,0.1,0.3,0c0.3,0.1,0.6,0,0.8-0.2
			c0.3,0,0.6-0.1,0.8-0.1c0.2,0,0.5,0,0.8-0.1l0,0c8.3-0.5,16.5-1,24.8-1.5c7,0.5,14.1,0.7,21.1,0.6c6.2-0.1,13.3,0.4,19-2.5
			c0.1-0.1,0.2-0.1,0.3-0.2c0.7-0.1,1.5-0.1,2.2-0.1c0.6,0,0.8-0.6,0.6-1c0.1-0.1,0.1-0.2,0.1-0.4c0-1.6-0.8-2.9-1.8-3.9
			c0.4,0.4,0.8,0.8,1.1,1.3c0.4,0.6,0.8,1.3,1,2c0.3,1,0.5,1.8-0.8,2c-0.2,0-0.1,0.4,0.1,0.3c0.4-0.1,0.7-0.1,1.1-0.2
			c0.1,0,0.1-0.1,0.1-0.2C98.6,30,93.3,27.5,89.1,26.1z M74.6,24.2c-0.1,0-0.2,0-0.2,0.1l0,0c-0.1-0.1-0.2-0.1-0.3-0.1
			c-0.1,0-0.1,0-0.2,0c0.4,0,0.8,0,1.2,0.1C74.9,24.2,74.7,24.1,74.6,24.2z M39.9,37c0.1,0,0.3,0,0.4-0.1c0,0,0,0,0,0
			C40.2,37,40.1,37,39.9,37z M51.2,35.2c0.1-0.1,0.1-0.3,0.1-0.4c0,0,0.1,0,0.1,0c0,0.1,0,0.3,0,0.4C51.3,35.2,51.3,35.2,51.2,35.2z
			 M51.1,25.8c0.6-0.1,1.2-0.2,1.8-0.2c3.2-0.4,6.4-0.8,9.6-1.1c0,0.1-0.1,0.1-0.1,0.1c0,0-0.1,0.1-0.1,0.1c-0.1,0-0.2,0.1-0.4,0.1
			c-0.1,0-0.1,0.1-0.2,0.1C58.3,25.2,54.7,25.4,51.1,25.8z"/>
	</g>
	<g>
		<g>
			<path class="st0" d="M73.7,25.7c0.4,0,0.8-0.1,1.2-0.1c0.9-0.1,0.9-1.4,0-1.4c-0.4,0-0.9-0.1-1.3-0.2c0,0.4,0,0.9,0,1.3
				c0.4-0.1,0.9-0.2,1.4-0.2c0-0.5,0-0.9,0-1.4c-0.3,0-0.5,0-0.8,0c-0.1,0.4-0.1,0.9-0.2,1.4c0.3,0,0.5,0,0.8,0.1
				c-0.1-0.3-0.3-0.7-0.4-1c0,0,0,0,0,0c-0.8,0.4-0.1,1.6,0.7,1.2c0.2-0.1,0.4-0.3,0.5-0.5c0.2-0.4,0-0.9-0.4-1
				c-0.4-0.1-0.8-0.2-1.2-0.2c-0.3,0-0.6,0.2-0.7,0.6c0,0.3,0.2,0.7,0.5,0.7c0.4,0.1,0.8,0.1,1.2,0.1c0.4-0.1,0.7-0.3,0.7-0.7
				c0-0.4-0.3-0.7-0.7-0.7c-0.6,0-1.2,0.1-1.7,0.2c-0.6,0.2-0.7,1.2,0,1.3c0.6,0.1,1.1,0.2,1.7,0.2c0-0.5,0-0.9,0-1.4
				c-0.4,0-0.8,0.1-1.2,0.1c-0.4,0-0.7,0.3-0.7,0.7C73,25.4,73.3,25.8,73.7,25.7L73.7,25.7z"/>
		</g>
	</g>
	<g>
		<g>
			<path class="st0" d="M53.9,36.6c0.2-0.1,0.5-0.1,0.7,0c-0.2-0.4-0.3-0.8-0.5-1.2c-0.1,0.1-0.2,0.2-0.4,0.3
				c-0.3,0.1-0.5,0.4-0.5,0.7c0,0.3,0.2,0.6,0.5,0.7s0.6,0.1,0.8,0.1c-0.1-0.4-0.1-0.8-0.2-1.3C54.3,36,54.2,36,54.1,36
				c0,0.5,0,0.9,0,1.4c0.1,0,0.2,0,0.3,0c-0.1-0.4-0.1-0.8-0.2-1.3c-0.1,0-0.1,0-0.2,0c0,0.5,0,0.9,0,1.4c0.2,0,0.3,0,0.5,0
				c-0.1-0.4-0.2-0.9-0.4-1.3c0.1,0,0.1,0,0.2,0c0,0.4,0,0.9,0,1.3c0.4-0.1,0.8-0.2,1.2-0.4c0.9-0.2,0.5-1.6-0.4-1.3
				c-0.4,0.1-0.8,0.2-1.2,0.4c-0.7,0.2-0.7,1.2,0,1.3c0.3,0.1,0.6,0.1,0.9-0.1c0.6-0.3,0.3-1.3-0.4-1.3c-0.2,0-0.3,0-0.5,0
				c-0.9,0-0.9,1.3,0,1.4c0.3,0,0.6-0.1,0.9-0.2c0.6-0.3,0.4-1.1-0.2-1.3c-0.2-0.1-0.5-0.1-0.7-0.1c-0.4,0-0.7,0.3-0.7,0.7
				c0,0.4,0.3,0.7,0.7,0.7c0.3,0,0.7-0.1,0.9-0.3c0.5-0.3,0.4-1.2-0.2-1.3c-0.3-0.1-0.6-0.1-0.8-0.1c0,0.4,0,0.9,0,1.3
				c0.4-0.1,0.7-0.3,1-0.6c0.4-0.5,0.1-1.1-0.5-1.2c-0.4-0.1-0.7,0-1.1,0.1C52.7,35.5,53.1,36.8,53.9,36.6L53.9,36.6z"/>
		</g>
	</g>
	<g>
		<g>
			<path class="st0" d="M46,25.5c5-0.9,10.1-1.8,15.2-2.3c5-0.4,10-0.3,15,0c0.2,0,0.2-0.3,0-0.3c-5.2-0.3-10.3-0.4-15.5,0.1
				c-5,0.5-9.9,1.4-14.8,2.2C45.6,25.2,45.8,25.6,46,25.5L46,25.5z"/>
		</g>
	</g>
	<g>
		<g>
			<path class="st0" d="M60.4,19c0.4-0.1,0.7-0.2,1-0.3c0.1-0.1,0.2-0.3,0-0.3c-0.4-0.1-0.7,0-1,0.1c-0.2,0.1-0.1,0.3,0.1,0.3
				c0.3,0,0.6,0,0.9-0.1c0.2-0.1,0.2-0.3-0.1-0.3c-0.4,0-0.8,0-1.2,0.1c-0.2,0-0.2,0.3-0.1,0.3c0.2,0.1,0.4,0.1,0.5,0.2
				c0.2,0.1,0.3-0.3,0.1-0.3c-0.2-0.1-0.4-0.1-0.5-0.2c0,0.1,0,0.2-0.1,0.3c0.4,0,0.8-0.1,1.2-0.1c0-0.1,0-0.2-0.1-0.3
				c-0.2,0.1-0.5,0.1-0.8,0.1c0,0.1,0.1,0.2,0.1,0.3c0.2-0.1,0.5-0.1,0.7-0.1c0-0.1,0-0.2,0-0.3c-0.4,0.1-0.7,0.2-1,0.3
				C60.1,18.7,60.2,19.1,60.4,19L60.4,19z"/>
		</g>
	</g>
	<g>
		<g>
			<path class="st0" d="M54.7,20.6c-0.5,0-0.9,0.1-1.3,0.4c-0.1,0.1-0.1,0.3,0.1,0.3c0.3,0,0.6-0.1,0.9-0.2c0.2-0.1,0.1-0.4-0.1-0.3
				c-0.4,0.1-0.7,0.2-1,0.4c-0.2,0.1-0.1,0.3,0.1,0.3c0.2,0,0.4-0.1,0.7-0.2c0.2-0.1,0-0.4-0.2-0.3c-0.1,0.1-0.2,0.1-0.2,0.1
				c-0.2,0.1,0,0.4,0.2,0.3c0.1-0.1,0.2-0.1,0.2-0.1C54,21.2,54,21.1,53.9,21c-0.2,0.1-0.4,0.2-0.6,0.2c0.1,0.1,0.1,0.2,0.1,0.3
				c0.3-0.2,0.6-0.3,1-0.4c0-0.1-0.1-0.2-0.1-0.3c-0.2,0.1-0.5,0.1-0.8,0.1c0,0.1,0.1,0.2,0.1,0.3c0.4-0.2,0.7-0.3,1.1-0.3
				C55,20.9,55,20.6,54.7,20.6L54.7,20.6z"/>
		</g>
	</g>
	<g>
		<g>
			<path class="st0" d="M54,78.2c-1.9-1.6-3.1,3-3.3,4.1c-0.2,1,0,2.4,1,3c1.4,0.8,2.5-0.5,3-1.7c0.1-0.2-0.2-0.3-0.3-0.1
				c-0.4,1.1-1.8,2.7-3,1c-0.3-0.4-0.4-1-0.4-1.5c0-0.5,0.1-1,0.3-1.5c0.2-0.8,1.2-4.2,2.5-3.1C53.9,78.6,54.2,78.4,54,78.2L54,78.2
				z"/>
		</g>
	</g>
	<g>
		<g>
			<path class="st0" d="M49.9,79.3c-1.2,2.1-2.4,5-1.6,7.5c0.6,1.6,2.3,2.7,3.9,1.9c0.2-0.1,0-0.4-0.2-0.3c-2.6,1.3-3.9-2-3.6-4
				c0.2-1.7,0.9-3.4,1.7-4.8C50.3,79.3,50,79.1,49.9,79.3L49.9,79.3z"/>
		</g>
	</g>
	<g>
		<g>
			<path class="st0" d="M30.4,104.3c1.5,2.7,3.2,5.3,4.9,7.9c1.4,2.1,2.9,4.1,5,5.5c0.2,0.1,0.4-0.2,0.2-0.3c-2.3-1.6-3.9-4-5.4-6.3
				c-1.5-2.3-3-4.6-4.4-7C30.6,104,30.3,104.2,30.4,104.3L30.4,104.3z"/>
		</g>
	</g>
	<g>
		<g>
			<path class="st0" d="M35.6,106c2.8,5.4,6.4,10.3,10.7,14.6c0.2,0.2,0.4-0.1,0.2-0.2c-4.3-4.3-7.9-9.1-10.7-14.5
				C35.8,105.6,35.4,105.8,35.6,106L35.6,106z"/>
		</g>
	</g>
	<g>
		<g>
			<path class="st0" d="M41.3,107.4c0.8,2.2,1.7,4.4,2.6,6.5c0.5,1.1,1,2.2,1.6,3.3c0.4,0.9,0.8,2.1,1.6,2.7c0.1,0.1,0.2,0.1,0.2,0
				c0,0,0.1-0.1,0.1-0.1c0.1-0.1,0.1-0.1,0-0.2c0,0,0-0.1-0.1-0.1c-0.1-0.2-0.4,0-0.3,0.2c-2-4-3.9-8.1-5.5-12.3
				C41.5,107.1,41.2,107.2,41.3,107.4L41.3,107.4z"/>
		</g>
	</g>
	<g>
		<g>
			<path class="st0" d="M46,108.2c1,3.4,2,6.9,3.1,10.4c0.1,0.2,0.4,0.1,0.3-0.1c-1-3.4-2-6.9-3.1-10.4
				C46.3,107.8,45.9,108,46,108.2L46,108.2z"/>
		</g>
	</g>
	<g>
		<g>
			<path class="st0" d="M48.8,108.7c0.6,3,1.2,6,1.8,9c0.1,0.2,0.4,0.1,0.3-0.1c-0.6-3-1.2-6-1.8-9C49,108.4,48.7,108.5,48.8,108.7
				L48.8,108.7z"/>
		</g>
	</g>
	<g>
		<g>
			<path class="st0" d="M51.1,108.7c0.1,2.7,0.4,5.4,1,8.1c0.1,0.2,0.4,0.1,0.3-0.1c-0.6-2.6-0.9-5.3-1-8
				C51.5,108.5,51.1,108.5,51.1,108.7L51.1,108.7z"/>
		</g>
	</g>
	<g>
		<g>
			<path class="st0" d="M81.5,103c-0.7,5.1-1.4,10.2-2.3,15.3c0,0.2,0.3,0.3,0.3,0.1c0.9-5.1,1.7-10.2,2.4-15.4
				C81.9,102.8,81.5,102.8,81.5,103L81.5,103z"/>
		</g>
	</g>
	<g>
		<g>
			<path class="st0" d="M83.7,102.6c0.3,4.8-0.2,9.6-1.6,14.2c-0.1,0.2,0.3,0.3,0.3,0.1c1.4-4.7,1.9-9.5,1.6-14.3
				C84.1,102.4,83.7,102.4,83.7,102.6L83.7,102.6z"/>
		</g>
	</g>
	<g>
		<g>
			<path class="st0" d="M75.8,105.1c0.5,3.6,0.5,7.3,0,10.9c0,0.2,0.3,0.3,0.3,0.1c0.5-3.7,0.5-7.3,0.1-11
				C76.1,104.9,75.8,104.9,75.8,105.1L75.8,105.1z"/>
		</g>
	</g>
	<g>
		<g>
			<path class="st0" d="M72.3,106.1c0.2,2.6,0,5.2-0.6,7.8c-0.1,0.2,0.3,0.3,0.3,0.1c0.6-2.6,0.8-5.2,0.6-7.9
				C72.6,105.9,72.3,105.9,72.3,106.1L72.3,106.1z"/>
		</g>
	</g>
	<g>
		<g>
			<path class="st0" d="M74,105.8c0.4,2.8,0.4,5.6-0.2,8.3c-0.1,0.2,0.3,0.3,0.3,0.1c0.6-2.8,0.7-5.7,0.2-8.5
				C74.3,105.5,74,105.6,74,105.8L74,105.8z"/>
		</g>
	</g>
	<g>
		<g>
			<path class="st0" d="M62.5,108.9c0-0.3,0-0.6,0-0.9c-0.1,0-0.2,0-0.3,0c0.1,1.9,0.2,3.7,0.2,5.6c0,0.2,0.4,0.2,0.3,0
				c-0.1-1.9-0.2-3.7-0.2-5.6c0-0.2-0.3-0.2-0.3,0c0,0.3,0,0.6,0,0.9C62.1,109.1,62.5,109.1,62.5,108.9L62.5,108.9z"/>
		</g>
	</g>
	<g>
		<g>
			<path class="st0" d="M98.8,103.8c-2.5-2.8-4.7-5.8-6.8-8.9c-1-1.5-1.9-3-2.8-4.6c-0.4-0.8-1.4-2-1.3-2.9c0-0.6,0-0.5,0.5-0.3
				c0.4,0.1,0.8,0.5,1.1,0.7c5.6,3.6,9.5,9.1,14.6,13.2c0.2,0.1,0.4-0.1,0.2-0.2c-5.7-4.6-10-10.9-16.6-14.4c-0.1-0.1-0.2,0-0.2,0.1
				c-0.2,1.5,0.8,2.9,1.5,4.2c0.9,1.6,1.9,3.3,2.9,4.8c2,3,4.2,5.9,6.5,8.6C98.7,104.2,98.9,104,98.8,103.8L98.8,103.8z"/>
		</g>
	</g>
	<g>
		<g>
			<path class="st0" d="M98.6,92.4c2.1,2.1,4.5,4.1,6.9,5.9c0.2,0.1,0.4-0.2,0.2-0.3c-2.5-1.7-4.7-3.7-6.9-5.8
				C98.7,91.9,98.5,92.2,98.6,92.4L98.6,92.4z"/>
		</g>
	</g>
	<g>
		<g>
			<path class="st0" d="M16.4,89.2c1.7,2.1,4.3,2.8,6.8,3.3c3.3,0.7,6.6,1.3,9.9,1.7c7,0.8,14.1,0.8,21.1,0.1c0.2,0,0.2-0.4,0-0.3
				c-6.5,0.7-13,0.7-19.5,0.1c-3.3-0.3-6.6-0.8-9.9-1.5c-2.9-0.6-6.2-1.1-8.2-3.6C16.5,88.8,16.3,89.1,16.4,89.2L16.4,89.2z"/>
		</g>
	</g>
	<g>
		<g>
			<path class="st0" d="M51.7,88.8c-7.6,2.1-15.5,0.7-23.1-0.9c-0.2-0.1-0.3,0.3-0.1,0.3c7.6,1.5,15.6,3.1,23.3,0.9
				C52,89.1,51.9,88.7,51.7,88.8L51.7,88.8z"/>
		</g>
	</g>
	<g>
		<g>
			<path class="st0" d="M66.9,74.8c0.6-0.1,1.3,0.2,1.5,0.8c0.2,0.5-0.2,1.3-0.7,1.3c-0.7,0.1-1.3-0.9-0.6-1.3
				c0.2-0.1,0.4-0.1,0.6-0.1c0.6,0.2-0.1,0.5-0.2,0.2c-0.1-0.2-0.4-0.1-0.3,0.1c0.3,0.9,1.7,0.2,1-0.4c-0.7-0.6-2,0.1-1.7,1
				c0.4,1.1,1.9,1,2.3-0.1c0.4-1.2-0.8-2.1-1.9-1.9C66.6,74.5,66.7,74.8,66.9,74.8L66.9,74.8z"/>
		</g>
	</g>
	<g>
		<g>
			<path class="st0" d="M67.2,82.3c-0.2-1.6,0.2-3.2,1.2-4.5c-0.1,0-0.2,0-0.3,0c0.4,1.7,0.4,3.4,0,5.1c-0.1,0.2,0.3,0.3,0.3,0.1
				c0.4-1.8,0.4-3.5,0-5.3c0-0.2-0.2-0.1-0.3,0c-1,1.4-1.5,3-1.2,4.8C66.9,82.7,67.3,82.6,67.2,82.3L67.2,82.3z"/>
		</g>
	</g>
	<g>
		<g>
			<path class="st0" d="M41.4,46.9c0,0,1.4-1.2,1.7-1.4c0.7-0.4,1.4-0.8,2.1-1c1.4-0.6,3-0.8,4.5-0.8c3.2,0.1,6.2,1.4,8.3,3.7
				c0.2,0.2,0.4-0.1,0.2-0.2c-2.8-2.9-6.9-4.3-10.9-3.6c-2.1,0.4-4,1.2-5.7,2.5c-0.3,0.2-1.4,1.2-0.4,1.2
				C41.6,47.3,41.6,47,41.4,46.9L41.4,46.9z"/>
		</g>
	</g>
	<g>
		<g>
			<path class="st0" d="M62.9,47c1.3-3.1,5.9-3.8,8.8-3.6c3.2,0.3,6,2,8,4.4c0.1,0.2,0.4-0.1,0.2-0.2c-2.1-2.7-5.3-4.4-8.8-4.6
				c-2.9-0.2-7.4,0.7-8.7,3.7C62.5,47,62.8,47.2,62.9,47L62.9,47z"/>
		</g>
	</g>
	<g>
		<g>
			<path class="st0" d="M29.9,109.4C29.9,109.4,29.9,109.5,29.9,109.4c0.1,0.1,0.1,0.2,0.2,0.2c0.2,0,0.2-0.1,0.3-0.2
				c0-0.1,0-0.2-0.1-0.2c-0.4-0.3-1-0.1-1.5,0c-0.8,0-1.8-0.1-2.4-0.6c-0.5-0.4-0.9-1.3-0.7-2c0.3-1,1.5-1,2.4-0.9
				c0.2,0,0.2-0.3,0-0.3c-0.8-0.1-1.8-0.2-2.4,0.6c-0.4,0.5-0.4,1.3-0.2,1.9c0.2,0.7,0.8,1.2,1.4,1.4c0.4,0.2,0.9,0.2,1.4,0.3
				c0.2,0,0.5,0,0.8,0c0.2,0,0.3,0,0.5-0.1c0.2,0,0.3,0,0.4-0.2c0.1,0,0.1,0.1,0.2,0.1c0,0,0-0.1,0-0.1
				C30.1,109.1,29.8,109.2,29.9,109.4L29.9,109.4z"/>
		</g>
	</g>
	<g>
		<g>
			<path class="st0" d="M52.1,34.6c0.1,0.2,0.2,0.4,0.4,0.6c0.1,0.1,0.5,0.2,0.6,0.4c0.1,0.1,0,0.4,0.1,0.6c0.1,0.3,0.3,0.4,0.6,0.6
				c0-0.3,0-0.7,0-1c0,0-0.1,0.1-0.1,0.1c-0.3,0.1-0.6,0.5-0.5,0.9c0.1,0.2,0.2,0.4,0.3,0.6c0.1-0.4,0.1-0.7,0.1-1.1
				c-0.1,0.1-0.2,0.1-0.4,0.2c-0.9,0.2-0.5,1.5,0.4,1.3c0.2-0.1,0.5-0.2,0.7-0.3c0.4-0.2,0.5-0.7,0.1-1.1c0,0,0,0,0,0.1
				c-0.2,0.3-0.3,0.6-0.5,0.9c0.3-0.1,0.5-0.2,0.7-0.4c0.2-0.2,0.3-0.7,0-1c-0.2-0.2-0.2-0.2-0.3-0.4c-0.1-0.2-0.1-0.5-0.2-0.7
				c-0.2-0.4-0.7-0.4-0.9-0.8C52.9,33.1,51.7,33.8,52.1,34.6L52.1,34.6z"/>
		</g>
	</g>
	<g>
		<g>
			<path class="st0" d="M61.2,20.1C61.3,20.2,61.3,20.2,61.2,20.1c0.3,0.3,0.8,0.4,1,0.1c0.2-0.3,0.3-0.7,0-1c0,0-0.1-0.1-0.1-0.1
				c-0.2-0.2-0.7-0.3-1,0C61,19.4,61,19.9,61.2,20.1L61.2,20.1z"/>
		</g>
	</g>
	<g>
		<g>
			<path class="st0" d="M55.2,19.9c-0.6,0.2-1.2,0.3-1.7,0.5c0.1,0.4,0.2,0.9,0.4,1.3c0.1-0.1,0.3-0.1,0.4-0.1
				c0.7-0.2,0.6-1.4-0.2-1.4c-0.8,0.1-1.5,0.3-2.1,0.8s-0.8,1.4-1.4,1.8c-0.6,0.5,0.1,1.2,0.7,1.2c0,0,0.1,0,0.1,0
				c-0.2-0.1-0.5-0.2-0.8-0.3c0,0,0.1,0.1,0.1,0.1c0-0.3,0.1-0.6,0.1-0.8c0,0-0.1,0.1-0.1,0.1c0.3,0,0.6-0.1,0.8-0.1
				c0,0-0.1,0-0.1-0.1c0.1,0.3,0.2,0.6,0.2,0.9c0,0,0-0.1,0.1-0.1c-0.2,0.1-0.5,0.2-0.8,0.3c0.1,0,0.1,0,0.2,0
				c-0.2-0.2-0.3-0.3-0.5-0.5c0,0.1,0,0.1,0.1,0.1c0.2-0.3,0.3-0.6,0.5-0.9c-0.2,0.1-0.3,0.1-0.5,0.1c-0.8,0.2-0.6,1.3,0.2,1.4
				c0.1,0,0.3,0,0.4,0c-0.1-0.4-0.1-0.9-0.2-1.4c-0.3,0.1-0.6,0.1-0.8,0.2c0.1,0.4,0.2,0.9,0.4,1.3c3.6-1.4,7.4-2.2,11.3-2.4
				c0-0.5,0-0.9,0-1.4c-0.9,0.1-1.9,0.2-2.8,0.3c-0.9,0.1-0.9,1.4,0,1.4c0.8,0,1.5,0,2.3-0.1c-0.2-0.4-0.3-0.8-0.5-1.2
				c-0.2,0.1-0.4,0.2-0.6,0.3c-0.6,0.3-0.3,1.3,0.4,1.3c0.2,0,0.5,0,0.7,0c-0.1-0.4-0.2-0.9-0.4-1.3c-0.2,0.1-0.4,0.1-0.6,0.2
				c-0.9,0.1-0.9,1.4,0,1.4c0.2,0,0.3,0,0.5,0c0.7,0,0.9-0.9,0.4-1.3c0.2,0.4,0.4,0.3,0.7-0.2c0.2-0.2,0.5-0.3,0.7-0.4
				c0.6-0.3,1.2-0.5,1.8-0.6c1.2-0.3,2.5-0.4,3.7-0.4c0.5,0,0.9-0.6,0.6-1c-0.1-0.2-0.2-0.4-0.3-0.6c-0.2,0.4-0.4,0.7-0.6,1
				c0.4-0.1,0.9,0,1.3,0.1c0.8,0.1,1.2-0.8,0.5-1.3c-0.2-0.1-0.3-0.2-0.6-0.3c-0.2,0.4-0.4,0.8-0.5,1.3c1.6,0.4,2.9,1.1,4.2,2.1
				c0.3-0.3,0.7-0.7,1-1c-0.1-0.1-0.3-0.2-0.4-0.3c-0.3,0.4-0.6,0.7-0.8,1.1c0.3,0.1,0.6,0.3,0.9,0.6c0.3-0.4,0.6-0.7,0.8-1.1
				c-0.1-0.1-0.3-0.2-0.4-0.3c-0.6-0.4-1.4,0.6-0.8,1.1c0.4,0.3,0.7,0.6,1.1,1.1c0.5,0.7,1.7,0,1.2-0.7c-0.4-0.5-0.8-0.9-1.3-1.4
				c-0.3,0.4-0.6,0.7-0.8,1.1c0.1,0.1,0.3,0.2,0.4,0.3c0.6,0.4,1.4-0.6,0.8-1.1c-0.4-0.3-0.7-0.6-1.1-0.8c-0.7-0.3-1.5,0.6-0.8,1.1
				c0.1,0.1,0.3,0.2,0.4,0.3c0.7,0.5,1.7-0.4,1-1c-1.4-1.2-3-2.1-4.8-2.5c-0.7-0.2-1.3,0.9-0.5,1.3c0.2,0.1,0.4,0.2,0.6,0.3
				c0.2-0.4,0.4-0.8,0.5-1.3c-0.6-0.1-1.1-0.1-1.6-0.1c-0.5,0-0.9,0.6-0.6,1c0.1,0.2,0.2,0.4,0.3,0.6c0.2-0.4,0.4-0.7,0.6-1
				c-2.1,0.1-4.3,0.3-6.2,1.3c-1,0.5-3,2-1.4,3c0.1-0.4,0.2-0.9,0.4-1.3c-0.2,0-0.3,0-0.5,0c0,0.5,0,0.9,0,1.4
				c0.5,0,0.8-0.1,1.2-0.4c0.6-0.4,0.4-1.3-0.4-1.3c-0.2,0-0.5,0-0.7,0c0.1,0.4,0.2,0.9,0.4,1.3c0.4-0.2,0.5-0.3,0.9-0.6
				c0.5-0.4,0.1-1.2-0.5-1.2c-0.8,0-1.5,0-2.3,0.1c0,0.5,0,0.9,0,1.4c0.9-0.1,1.9-0.2,2.8-0.3c0.9-0.1,0.9-1.4,0-1.4
				c-4,0.2-7.9,1-11.6,2.4c-0.8,0.3-0.5,1.5,0.4,1.3c0.3-0.1,0.6-0.1,0.8-0.2c0.8-0.2,0.6-1.3-0.2-1.4c-0.1,0-0.3,0-0.4,0
				c0.1,0.4,0.1,0.9,0.2,1.4c0.2-0.1,0.3-0.1,0.5-0.1c0.3-0.1,0.6-0.5,0.5-0.9c-0.1-0.4-0.3-0.6-0.7-0.7c-0.3-0.1-0.6,0-0.8,0.3
				c0,0,0,0.1-0.1,0.1c-0.1,0.3-0.1,0.8,0.2,0.9c0,0,0.1,0,0.1,0.1c0.3,0.1,0.6,0.1,0.8-0.1c0,0,0.1-0.1,0.1-0.1
				c0.2-0.2,0.3-0.6,0.1-0.8c0,0-0.1-0.1-0.1-0.1c-0.2-0.3-0.5-0.4-0.8-0.3c0,0-0.1,0-0.1,0c0.2,0.4,0.4,0.8,0.7,1.2
				c0.5-0.4,0.4-0.5,0.7-1.1c0.4-0.7,1.1-1,1.8-1.1c-0.1-0.4-0.1-0.9-0.2-1.4c-0.1,0.1-0.3,0.1-0.4,0.1c-0.8,0.3-0.5,1.6,0.4,1.3
				c0.6-0.2,1.2-0.3,1.7-0.5C56.4,21,56,19.6,55.2,19.9L55.2,19.9z"/>
		</g>
	</g>
	<g>
		<path class="st1" d="M53.4,21.1c0.1,0,0.1,0,0.2-0.1v0C53.5,21.1,53.4,21.1,53.4,21.1z"/>
		<path class="st1" d="M60.9,18.5c0,0-0.1,0-0.1,0C60.9,18.6,60.9,18.6,60.9,18.5c0.2,0,0.4,0,0.5-0.1
			C61.3,18.5,61.2,18.5,60.9,18.5C61,18.5,61,18.5,60.9,18.5z"/>
		<path class="st1" d="M52.2,21c0.3-0.1,0.6-0.2,1-0.4c0-0.1,0-0.1,0.1-0.2c0,0,0,0,0,0c0,0,0,0,0,0C52.9,20.6,52.5,20.8,52.2,21z"
			/>
		<path class="st1" d="M60.7,22c-0.1,0-0.1,0-0.1,0s-0.1,0-0.2,0c0,0,0,0,0.1,0C60.5,22,60.7,22,60.7,22L60.7,22L60.7,22
			C60.7,22,60.7,22,60.7,22z"/>
		<path class="st1" d="M50.1,23.8L50.1,23.8c0,0-0.1,0-0.1,0C50,23.9,50,23.9,50.1,23.8z"/>
		<path class="st1" d="M64.2,17.6c0.1,0,0.2,0,0.4,0c0.1,0,0.3,0,0.4,0c0,0,0,0,0,0C64.7,17.5,64.5,17.5,64.2,17.6z"/>
		<path class="st1" d="M68.4,17.9c0.4,0.1,0.8,0.2,1.2,0.4c0,0,0.1-0.1,0.1-0.1C69.3,18,68.8,17.9,68.4,17.9z"/>
		<path class="st1" d="M71.2,18.7c0.2,0.1,0.5,0.3,0.7,0.5c0.2,0.1,0.4,0.2,0.6,0.3c0.1,0.1,0.1,0.1,0.1,0.2c0.1,0,0.1,0,0.2,0.1
			c0,0,0.1,0,0.1,0.1l0,0l0,0c0.9,0.7,1.7,1.4,2.4,2.2C74.2,20.4,72.8,19.4,71.2,18.7z"/>
		<path class="st1" d="M65.9,21C65.9,20.9,65.9,20.9,65.9,21C65.9,20.9,65.9,20.9,65.9,21C65.9,20.9,65.9,21,65.9,21z"/>
		<path class="st0" d="M76.3,23.1c-2.8-5.8-9.9-6.5-15.5-5.5c-3.6,0.6-7.4,1.6-10.5,3.6c-0.2,0.1-0.4,0.2-0.7,0.3
			c-0.1,0-0.1,0.1-0.1,0.2c-0.9,0.6-1.7,1.4-2.5,2.2c-0.3,0.2-0.6,0.5-0.8,0.7c0,0-0.1,0-0.1,0.1c-0.1,0-0.1,0.1-0.1,0.1l0,0
			c0,0-0.1,0-0.1,0.1c-0.1,0.1-0.2,0.2-0.2,0.2c0,0-0.1,0.1-0.1,0.1c0,0-0.1,0.1-0.1,0.1c0,0,0,0,0,0.1c0,0,0,0.1-0.1,0.1
			c0,0.1,0,0.1,0.1,0.2c0,0.1,0.1,0.1,0.2,0.1h0c0.1,0.1,0.2,0.1,0.3,0c0.1-0.1,0.2-0.3,0.3-0.4l0,0c0,0,0.1,0,0.1,0
			c0.2-0.1,0.4-0.1,0.6-0.1c0,0.1,0.1,0.1,0.2,0.1c0.9-0.1,1.7-0.2,2.6-0.4c0.1,0,0.1-0.1,0.1-0.2c0.4-0.1,0.9-0.2,1.3-0.3
			c0,0,0.1,0.1,0.1,0.1h0c0,0.1,0.1,0.1,0.1,0.1c0.8-0.1,1.5-0.2,2.3-0.3c0.9-0.1,1.8-0.2,2.8-0.3c0,0,0,0,0.1,0
			c1.4,0,2.7-0.2,4.1-0.5c0.2,0,0.2-0.2,0-0.3c0.1,0,0.1,0,0.1,0c0,0.1,0.1,0.1,0.2,0.1c1.2,0,2.3,0,3.4-0.1c0.1,0,0.2-0.1,0.2-0.2
			c0,0,0.1-0.1,0.1-0.1c0.3,0,0.6,0,0.9,0l0,0c0.4,0,0.7,0,1.1,0l0,0c0,0.1,0.1,0.1,0.2,0.1c0.2,0,0.5,0,0.7,0
			c0.1,0,0.1-0.1,0.1-0.1c0.9,0,1.7,0.1,2.6,0.1c0.2,0,0.3,0,0.5,0h0c0.6,0,1.3,0.1,1.9,0.1c0.1,0,0.1,0,0.1-0.1c0.2,0,0.4,0,0.6,0
			c0.4,0.1,0.8,0.1,1.2,0.1c0.1,0,0.1,0,0.1-0.1c0.2,0,0.3,0.1,0.5,0.1c0.1,0,0.1,0,0.1,0h0c0.1,0,0.2,0,0.4,0c0,0,0.1,0,0.1,0
			c0.1,0.1,0.1,0.2,0.2,0.3C76.1,23.4,76.4,23.3,76.3,23.1z M50.1,23.8c0,0-0.1,0-0.1,0C50,23.8,50,23.8,50.1,23.8L50.1,23.8z
			 M53.2,20.4c-0.1,0-0.1,0.1-0.1,0.2c-0.3,0.1-0.6,0.2-1,0.4C52.5,20.8,52.9,20.6,53.2,20.4C53.2,20.4,53.2,20.4,53.2,20.4
			C53.2,20.4,53.2,20.4,53.2,20.4z M53.4,21.1c0.1,0,0.1-0.1,0.2-0.1v0C53.5,21.1,53.4,21.1,53.4,21.1z M60.8,22c-0.1,0-0.2,0-0.4,0
			c0,0,0,0-0.1,0c0.1,0,0.1,0,0.2,0C60.7,22,60.7,22,60.8,22C60.7,22,60.7,22,60.8,22C60.8,22,60.8,22,60.8,22
			C60.8,22,60.8,22,60.8,22z M60.9,18.6c0,0-0.1,0-0.1,0C60.9,18.6,60.9,18.6,60.9,18.6C61,18.5,61,18.5,60.9,18.6
			c0.2-0.1,0.4-0.1,0.5-0.1C61.3,18.5,61.1,18.5,60.9,18.6z M64.5,17.6c-0.1,0-0.2,0-0.4,0c0.3,0,0.6,0,0.8,0c0,0,0,0,0,0
			C64.8,17.6,64.7,17.6,64.5,17.6z M65.9,21C65.9,20.9,65.9,20.9,65.9,21C65.9,20.9,65.9,20.9,65.9,21C65.9,20.9,65.9,21,65.9,21z
			 M68.4,17.9c0.4,0.1,0.9,0.2,1.3,0.3c0,0-0.1,0.1-0.1,0.1C69.2,18.1,68.8,18,68.4,17.9z M72.8,19.8C72.8,19.8,72.8,19.8,72.8,19.8
			C72.8,19.8,72.8,19.8,72.8,19.8C72.8,19.8,72.8,19.8,72.8,19.8c-0.1-0.1-0.2-0.1-0.3-0.1c0-0.1-0.1-0.1-0.1-0.2
			c-0.2-0.1-0.4-0.2-0.6-0.3c-0.2-0.2-0.4-0.3-0.7-0.5c1.6,0.7,3,1.8,4,3.3C74.5,21.2,73.7,20.4,72.8,19.8z"/>
	</g>
	<g>
		<g>
			<path class="st0" d="M70.3,20.6c0.4,0.1,0.8,0.2,1.2,0.5c0.5,0.3,1.2-0.2,1-0.8c-0.1-0.1-0.1-0.3-0.2-0.4
				c-0.2,0.3-0.3,0.6-0.5,0.9c0,0,0.1,0,0.1,0c0.8,0.5,1.4-0.7,0.7-1.2c0,0,0-0.1,0-0.1c-0.3,0.3-0.6,0.6-0.9,0.9
				c0.1,0,0.2,0.1,0.2,0.2c0.6,0.6,1.6-0.4,1-1c-0.1-0.1-0.2-0.2-0.3-0.3c-0.3,0.4-0.6,0.7-0.8,1.1c0.1,0.1,0.2,0.1,0.3,0.2
				c0.2-0.4,0.4-0.8,0.7-1.2c-0.3-0.1-0.6-0.2-0.8-0.5c-0.3,0.3-0.6,0.6-0.9,0.9c0.4,0.2,0.8,0.4,1.2,0.7c0.2,0.2,0.7,0.5,0.9,0.7
				c0.4,0.8,1.5,0.1,1.2-0.7c-0.2-0.4-0.7-0.7-1-1c-0.5-0.4-1-0.7-1.5-0.9c-0.6-0.3-1.4,0.3-0.9,0.9c0.4,0.6,0.9,1,1.6,1.1
				c0.7,0.1,1.2-0.6,0.7-1.2c-0.2-0.2-0.4-0.3-0.6-0.5c-0.7-0.4-1.4,0.5-0.8,1.1c0.1,0.1,0.2,0.2,0.3,0.3c0.3-0.3,0.7-0.7,1-1
				c-0.2-0.1-0.3-0.3-0.5-0.4c-0.6-0.3-1.3,0.3-0.9,0.9c0.1,0.2,0.3,0.4,0.5,0.6c0.2-0.4,0.5-0.8,0.7-1.2c-0.4-0.2-0.7-0.3-1.2-0.2
				c-0.3,0.1-0.6,0.5-0.5,0.9c0.1,0.1,0.1,0.3,0.2,0.4c0.3-0.2,0.7-0.5,1-0.8c-0.5-0.3-1-0.5-1.5-0.6C69.8,19.1,69.5,20.4,70.3,20.6
				L70.3,20.6z"/>
		</g>
	</g>
</g>
<g id="Layer_3_2_">
</g>
</svg>
