<?xml version="1.0" encoding="utf-8"?>
<!-- Generator: Adobe Illustrator 24.0.1, SVG Export Plug-In . SVG Version: 6.00 Build 0)  -->
<svg version="1.1" id="Layer_1" xmlns="http://www.w3.org/2000/svg" xmlns:xlink="http://www.w3.org/1999/xlink" x="0px" y="0px"
	 viewBox="0 0 141.7 141.7" style="enable-background:new 0 0 141.7 141.7;" xml:space="preserve">
<style type="text/css">
	.st0{fill:#070707;}
</style>
<g id="Layer_1_1_">
</g>
<g id="Layer_1_2_">
</g>
<g id="Layer_1_3_">
</g>
<g id="Layer_1_4_">
</g>
<g id="Layer_1_5_">
</g>
<g id="Layer_3">
</g>
<g id="Layer_3_1_">
</g>
<g id="Layer_1_6_">
</g>
<g id="Layer_1_7_">
</g>
<g id="Layer_1_8_">
</g>
<g id="Layer_1_9_">
</g>
<g id="Layer_1_10_">
</g>
<g id="Layer_1_11_">
</g>
<g id="Layer_1_12_">
</g>
<g id="Layer_1_13_">
</g>
<g id="Layer_1_14_">
</g>
<g id="Layer_1_15_">
</g>
<g id="Layer_1_16_">
</g>
<g id="Layer_1_17_">
</g>
<g id="Layer_1_18_">
</g>
<g id="Layer_1_19_">
</g>
<g id="Layer_1_20_">
</g>
<g id="Layer_2_1_">
</g>
<g id="Layer_4">
	<g>
		<g>
			<g>
				<path class="st0" d="M91.4,55.3c-2.1-3.8-5.7-6.5-9.8-7.9c-5.3-1.8-11.2-0.7-16.7-0.2c-4.9,0.4-9.5,2.2-12.8,5.8
					c-3.3,3.6-4.7,8.1-5.3,12.8c-0.9,6.6-0.3,13.3,0.5,19.9c0.1,0.6,1,0.6,0.9,0c-1.3-11.5-3.2-27.6,8-35c2.8-1.8,6.3-2.4,9.6-2.7
					c3.4-0.3,6.8-0.7,10.2-0.7c6,0.1,11.8,3.1,14.8,8.4C90.9,56.3,91.7,55.8,91.4,55.3L91.4,55.3z"/>
			</g>
		</g>
	</g>
	<g>
		<g>
			<g>
				<path class="st0" d="M62.8,48.5c0.6,0,0.6-0.9,0-0.9C62.2,47.6,62.2,48.5,62.8,48.5L62.8,48.5z"/>
			</g>
		</g>
	</g>
	<g>
		<g>
			<g>
				<path class="st0" d="M41.3,52.7c-3.4-0.3-5.6-3.8-3.5-6.9c1.6-2.3,6-3.7,8.2-1.4c0.4,0.4,1.1-0.2,0.7-0.7c-2.7-2.9-8.1-1-9.9,2
					c-2.1,3.7,0.7,7.5,4.6,7.8C41.9,53.7,41.9,52.8,41.3,52.7L41.3,52.7z"/>
			</g>
		</g>
	</g>
	<g>
		<g>
			<g>
				<path class="st0" d="M92.2,44.4c2.5-1.2,6.4-2,8.2,0.7c1.8,2.8,0.7,6.9-2.8,7.6c-0.6,0.1-0.3,1,0.3,0.9c3.8-0.8,5.3-5.2,3.5-8.6
					c-1.9-3.6-6.6-3.1-9.7-1.5C91.2,43.9,91.7,44.7,92.2,44.4L92.2,44.4z"/>
			</g>
		</g>
	</g>
	<g>
		<g>
			<g>
				<path class="st0" d="M67.5,68.3c0.1,0,0.1,0,0.2,0c-0.1-0.1-0.1-0.3-0.2-0.4c-0.8,0.5-1.6,0.7-2.4,1.5c-0.6,0.6-1.2,1.3-1,2.2
					c0.4,3.3,5.5,1,7.1,1c1.8,0,5.1,2,5.6-1c0.4-2.2-2.4-3.5-4.1-4.1c-0.3-0.1-0.4,0.3-0.1,0.4c0.7,0.3,1.4,0.6,2.1,1
					c0.4,0.3,0.9,0.6,1.2,1c0.6,0.9,1.2,2.7-1,3c-1.4,0.1-2.7-0.8-4.1-0.7c-0.7,0.1-1.3,0.3-1.9,0.4c-0.7,0.2-1.3,0.3-2.1,0.3
					c-0.5,0-1-0.1-1.5-0.4c-0.2-0.6-0.4-1.2-0.5-1.9c0.2-1.3,2.1-1.8,3-2.3c0.2-0.1,0.1-0.5-0.2-0.4c-0.1,0-0.1,0-0.2,0
					C67.1,67.9,67.2,68.3,67.5,68.3L67.5,68.3z"/>
			</g>
		</g>
	</g>
	<g>
		<g>
			<g>
				<path class="st0" d="M73.3,72.9c0.4,1,0.6,2.2,0.3,3.2c-0.2,0.7-0.9,1.3-1.7,1.1c-0.6-0.1-0.7-0.7-1-1.2c-0.1-0.3-0.5,0-0.4,0.2
					c0.3,0.6,0.4,1.2,1.1,1.4c0.6,0.2,1.2,0,1.7-0.3c1.3-0.9,1-3.3,0.4-4.6C73.7,72.5,73.2,72.6,73.3,72.9L73.3,72.9z"/>
			</g>
		</g>
	</g>
	<g>
		<g>
			<g>
				<path class="st0" d="M57.9,94c2.1-1,3.3,1.7,4.7,2.7c0-0.1,0-0.3,0-0.4c-2.2,0.4-4.2,3.7-6.5,3.2c-2.2-0.4-1.7-2.7-0.5-3.8
					c0.9-0.8,1.9-1.5,3-2c0.3-0.1,0-0.5-0.2-0.4c-1.8,0.9-5.8,3.2-3.8,5.7c2.5,3.1,5.7-1.8,8.3-2.3c0.2,0,0.2-0.3,0-0.4
					c-1.7-1.2-2.8-3.8-5.2-2.7C57.4,93.7,57.6,94.2,57.9,94L57.9,94z"/>
			</g>
		</g>
	</g>
	<g>
		<g>
			<g>
				<path class="st0" d="M55.4,99.1c-0.3-1.2,0.6-2.2,1.6-2.7c0.3-0.1,0-0.6-0.2-0.4c-1.2,0.6-2.2,1.8-1.8,3.2
					C55.1,99.5,55.5,99.4,55.4,99.1L55.4,99.1z"/>
			</g>
		</g>
	</g>
	<g>
		<g>
			<g>
				<path class="st0" d="M87.5,101.5c-1.1-0.7-1.8-1.8-2.8-2.7c-0.6-0.6-1.1-1.2-0.2-2.1c0.6-0.6,1.5-1.1,2.4-1.1
					c1.6,0,2.8,1.4,3.4,2.8c0.3,0.7,0.6,1.9,0.1,2.6C89.7,102.1,88.5,102,87.5,101.5c-0.3-0.1-0.5,0.3-0.2,0.4
					c1.5,0.7,3.5,0.6,3.8-1.3c0.4-1.9-1.2-4.3-3-5c-0.9-0.4-1.8-0.3-2.7,0.1c-0.7,0.3-2.1,1.2-2.2,2.1c0,0.7,0.7,1,1.2,1.4
					c1,0.9,1.7,2,2.8,2.7C87.5,102.1,87.7,101.7,87.5,101.5z"/>
			</g>
		</g>
	</g>
	<g>
		<g>
			<g>
				<path class="st0" d="M88.1,98.8c0.8,0.8,1.5,1.9,1.5,3.1c0,0.3,0.5,0.3,0.4,0c0-1.3-0.7-2.5-1.6-3.4
					C88.2,98.2,87.9,98.6,88.1,98.8L88.1,98.8z"/>
			</g>
		</g>
	</g>
	<g>
		<g>
			<g>
				<path class="st0" d="M105.9,78.3c0.6,0.3,1.4,0,2.1,0.1c1.2,0.3,2.3,0.9,2.8,2c0.6,1.3,0.1,2.9-1.6,2.6c-1.2-0.2-2.1-1.1-3-1.9
					c-0.2-0.2-0.6,0.1-0.3,0.3c1,1,2.2,2.1,3.7,2.1c1,0,1.8-0.6,1.9-1.6c0.1-1.2-0.6-2.4-1.5-3.1c-0.6-0.4-1.4-0.8-2.2-0.9
					c-0.6-0.1-1.2,0.1-1.8-0.1C105.7,77.7,105.6,78.2,105.9,78.3L105.9,78.3z"/>
			</g>
		</g>
	</g>
	<g>
		<g>
			<g>
				<path class="st0" d="M108.8,81.4c0.7,0.2,1.8,0.9,1.3,1.8c-0.1,0.3,0.3,0.5,0.4,0.2c0.6-1.2-0.5-2.1-1.6-2.5
					C108.7,80.9,108.5,81.3,108.8,81.4L108.8,81.4z"/>
			</g>
		</g>
	</g>
	<g>
		<path class="st0" d="M74.8,66.2c-4.2,0-7.6-3.4-7.6-7.6c0-4.2,3.4-7.6,7.6-7.6c4.2,0,7.6,3.4,7.6,7.6C82.5,62.7,79,66.2,74.8,66.2
			z M74.8,51.5c-3.9,0-7.1,3.2-7.1,7.1c0,3.9,3.2,7.1,7.1,7.1c3.9,0,7.1-3.2,7.1-7.1C81.9,54.6,78.7,51.5,74.8,51.5z"/>
	</g>
	<g>
		<path class="st0" d="M57.5,66.7c-4.2,0-7.6-3.4-7.6-7.6c0-4.2,3.4-7.6,7.6-7.6s7.6,3.4,7.6,7.6C65.1,63.3,61.7,66.7,57.5,66.7z
			 M57.5,52c-3.9,0-7.1,3.2-7.1,7.1c0,3.9,3.2,7.1,7.1,7.1s7.1-3.2,7.1-7.1C64.6,55.2,61.4,52,57.5,52z"/>
	</g>
	<g>
		<circle class="st0" cx="96.5" cy="47.7" r="1.6"/>
	</g>
	<g>
		<circle class="st0" cx="42" cy="48" r="1.6"/>
	</g>
	<g>
		<path class="st0" d="M73.8,67.3c0-1-1.5-1.8-3.3-1.8c-1.8,0-3.3,0.8-3.3,1.8s1.5,1.8,3.3,1.8C72.3,69.1,73.8,68.3,73.8,67.3z"/>
	</g>
	<g>
		<path class="st0" d="M72.4,54.5c-1.3,0-2.4,1.1-2.4,2.4c0,1.3,1.1,2.4,2.4,2.4c1.3,0,2.4-1.1,2.4-2.4
			C74.8,55.5,73.7,54.5,72.4,54.5z M73.3,58.4c-0.4,0-0.7-0.3-0.7-0.7c0-0.4,0.3-0.7,0.7-0.7s0.7,0.3,0.7,0.7
			C74,58.1,73.7,58.4,73.3,58.4z"/>
	</g>
	<g>
		<path class="st0" d="M54.8,55.3c-1.3,0-2.4,1.1-2.4,2.4c0,1.3,1.1,2.4,2.4,2.4c1.3,0,2.4-1.1,2.4-2.4
			C57.2,56.4,56.1,55.3,54.8,55.3z M55.7,59.2c-0.4,0-0.7-0.3-0.7-0.7s0.3-0.7,0.7-0.7c0.4,0,0.7,0.3,0.7,0.7
			C56.5,58.9,56.2,59.2,55.7,59.2z"/>
	</g>
	<g>
		<g>
			<g>
				<path class="st0" d="M70.6,72.4c0.1,0.9,0.1,2,0,2.9c0,0.5-0.1,1.2-0.5,1.6c-0.4,0.6-1.3,0.6-1.9,0.1c-0.9-0.9-0.6-2.9-0.3-4
					c0.1-0.3-0.4-0.4-0.4-0.1c-0.4,1.4-0.7,4.3,1.2,4.9c2.8,0.8,2.6-4,2.3-5.5C70.9,72,70.5,72.1,70.6,72.4L70.6,72.4z"/>
			</g>
		</g>
	</g>
	<g>
		<g>
			<g>
				<path class="st0" d="M38,66.2c-1-0.5-1.8-1.5-2.3-2.5c-0.3-0.7-1.2-3,0.5-2.8c0.3,0,0.4-0.4,0.1-0.4c-1.3-0.2-1.8,0.7-1.5,1.9
					c0.3,1.7,1.5,3.4,3,4.2C38.1,66.7,38.3,66.4,38,66.2L38,66.2z"/>
			</g>
		</g>
	</g>
	<g>
		<g>
			<g>
				<path class="st0" d="M37,62.1c-0.2-0.4-0.6-1.3,0.1-1.4c0.6-0.1,1.1,0.6,1.3,1c0.5,0.8,0.8,1.8,0.9,2.8c0,0.3,0.5,0.3,0.4,0
					c-0.1-1.3-0.6-3.3-1.9-4c-0.4-0.2-1.2-0.3-1.5,0.1c-0.3,0.5,0,1.3,0.3,1.7C36.7,62.6,37.1,62.3,37,62.1L37,62.1z"/>
			</g>
		</g>
	</g>
	<g>
		<g>
			<g>
				<path class="st0" d="M90.2,54.9c2.9,4.3,3.7,9.4,3.8,14.5c0.1,5.2-0.1,10.3,0.1,15.5c0,0.6,1,0.6,0.9,0
					c-0.3-5.6,0.1-11.2-0.2-16.7c-0.2-4.9-1.2-9.7-3.9-13.7C90.7,54,89.9,54.5,90.2,54.9L90.2,54.9z"/>
			</g>
		</g>
	</g>
	<g>
		<g>
			<g>
				<path class="st0" d="M81.5,89.9c0,0,0.1,0,0.1,0c0.3,0,0.3-0.4,0-0.4c0,0,0,0,0,0c-0.1,0-0.1,0-0.2,0.1c0,0,0,0,0,0
					c0.1,0.1,0.2,0.2,0.3,0.3c0,0,0-0.1,0-0.1c-0.1,0-0.3,0.1-0.4,0.1C81.4,89.9,81.5,89.9,81.5,89.9c0.2,0.2,0.6-0.1,0.3-0.3
					c0,0-0.1-0.1-0.1-0.1c-0.1-0.1-0.3-0.1-0.4,0.1c0,0,0,0.1,0,0.1c-0.1,0.2,0.2,0.3,0.3,0.3c0.1,0,0.1-0.1,0.2-0.2
					c-0.1,0-0.1,0.1-0.2,0.1c0,0,0,0,0,0c0.3,0,0.3-0.4,0-0.4c0,0-0.1,0-0.1,0C81.2,89.5,81.2,89.9,81.5,89.9L81.5,89.9z"/>
			</g>
		</g>
	</g>
	<g>
		<g>
			<path class="st0" d="M69.2,54.2c0-0.1,0.1-0.1,0.1-0.2c0-0.1,0.1-0.1,0.1-0.2c-1.7-2.8-4.7-4.7-8.2-4.7c-2.9,0-5.5,1.3-7.2,3.3
				l0,0c0.2-0.1,0.4-0.1,0.6,0c1.7-1.8,4-2.9,6.6-2.9C64.6,49.6,67.6,51.4,69.2,54.2z"/>
		</g>
		<g>
			<path class="st0" d="M69.1,63.3c-1.6,2.7-4.5,4.6-7.9,4.6c-1.9,0-3.7-0.6-5.2-1.6c-0.3,0-0.5-0.1-0.7-0.2c-0.1,0-0.1,0-0.3,0
				c1.7,1.5,3.8,2.3,6.2,2.3c3.5,0,6.5-1.9,8.2-4.7C69.3,63.5,69.2,63.4,69.1,63.3z"/>
		</g>
	</g>
	<g>
		<g>
			<path class="st0" d="M79.8,48.6c-2.7,0-5.2,1.2-6.9,3c0.2-0.1,0.4-0.1,0.6-0.2c0.1,0,0.2,0,0.3-0.1c1.6-1.5,3.8-2.4,6.1-2.4
				c5,0,9.1,4.1,9.1,9.1s-4.1,9.1-9.1,9.1c-1.9,0-3.6-0.6-5-1.5c-0.1,0-0.1,0-0.2,0c-0.1,0-0.2,0-0.3,0s-0.1,0-0.2,0
				c1.6,1.2,3.6,1.9,5.8,1.9c5.3,0,9.5-4.3,9.5-9.5C89.3,52.9,85,48.6,79.8,48.6z"/>
		</g>
	</g>
	<g>
		<path class="st0" d="M73.9,64.4c-3.7,0-6.6-3-6.6-6.6s3-6.6,6.6-6.6c3.7,0,6.6,3,6.6,6.6S77.6,64.4,73.9,64.4z M73.9,51.8
			c-3.3,0-6.1,2.7-6.1,6.1c0,3.3,2.7,6.1,6.1,6.1c3.3,0,6.1-2.7,6.1-6.1C80,54.5,77.3,51.8,73.9,51.8z"/>
	</g>
	<g>
		<path class="st0" d="M56.7,64.9c-3.7,0-6.6-3-6.6-6.6s3-6.6,6.6-6.6s6.6,3,6.6,6.6S60.3,64.9,56.7,64.9z M56.7,52.2
			c-3.3,0-6.1,2.7-6.1,6.1s2.7,6.1,6.1,6.1c3.3,0,6.1-2.7,6.1-6.1S60,52.2,56.7,52.2z"/>
	</g>
	<g>
		<g>
			<g>
				<path class="st0" d="M58.9,51.8c0.9-1.2,2.2-2,3.8-2.1c0.3,0,0.3-0.5,0-0.4c-1.7,0.2-3.1,1-4.2,2.4C58.3,51.8,58.7,52,58.9,51.8
					L58.9,51.8z"/>
			</g>
		</g>
	</g>
	<g>
		<g>
			<g>
				<path class="st0" d="M64.5,57.1c1.2,0,2.3-0.3,3.2-1c0.2-0.2,0-0.6-0.2-0.4c-0.9,0.7-1.9,1-3,1C64.2,56.7,64.2,57.1,64.5,57.1
					L64.5,57.1z"/>
			</g>
		</g>
	</g>
	<g>
		<g>
			<g>
				<path class="st0" d="M62.7,64.3c0.6,1.3,1.9,2.2,3.4,2.5c0.3,0,0.4-0.4,0.1-0.4c-1.3-0.2-2.5-1-3.1-2.2
					C62.9,63.8,62.5,64.1,62.7,64.3L62.7,64.3z"/>
			</g>
		</g>
	</g>
	<g>
		<g>
			<g>
				<path class="st0" d="M79.5,52.8c1.4-1.5,3.3-2.4,5.4-2.2c0.3,0,0.3-0.4,0-0.4c-2.2-0.1-4.2,0.7-5.7,2.4
					C78.9,52.7,79.3,53,79.5,52.8L79.5,52.8z"/>
			</g>
		</g>
	</g>
	<g>
		<g>
			<g>
				<path class="st0" d="M82,59c2.5,1.2,5.3,0.6,7.2-1.5c0.2-0.2-0.1-0.6-0.3-0.3c-1.6,1.9-4.3,2.5-6.6,1.4C82,58.5,81.8,58.9,82,59
					L82,59z"/>
			</g>
		</g>
	</g>
	<g>
		<g>
			<g>
				<path class="st0" d="M79.9,64c0,0,0,0.1,0,0.1c-0.1,0-0.2,0.1-0.3,0.1c0,0,0-0.1,0-0.1c0,0.1,0,0.2,0.1,0.2
					c1.4,1.5,3.4,2.2,5.4,1.6c0.3-0.1,0.1-0.5-0.1-0.4c-0.9,0.3-1.8,0.3-2.7,0c-0.3-0.1-2.3-1-2.2-1.3C80.2,64.1,80.1,63.9,79.9,64
					c0-0.1,0-0.1,0-0.1c-0.1-0.1-0.3,0-0.3,0.1c0,0,0,0.1,0,0.1c0,0.1,0,0.2,0.1,0.3c0,0,0.1,0,0.1,0.1C79.9,64.5,80.2,64.1,79.9,64
					L79.9,64z"/>
			</g>
		</g>
	</g>
	<g>
		<g>
			<g>
				<path class="st0" d="M52.1,62.9c-0.1,0.3-0.3,0.6-0.5,0.9c-0.1,0.3,0.3,0.5,0.4,0.2c0.1-0.3,0.3-0.6,0.5-0.9
					C52.6,62.8,52.2,62.6,52.1,62.9L52.1,62.9z"/>
			</g>
		</g>
	</g>
	<g>
		<g>
			<g>
				<path class="st0" d="M54.2,64.4c-0.1,0.4-0.1,0.7-0.3,1.1c-0.1,0.3,0.4,0.4,0.4,0.1c0.1-0.4,0.1-0.7,0.3-1.1
					C54.7,64.2,54.3,64.1,54.2,64.4L54.2,64.4z"/>
			</g>
		</g>
	</g>
	<g>
		<g>
			<g>
				<path class="st0" d="M57.6,64.6c0.1,0.5,0.3,1,0.4,1.6c0.1,0.3,0.5,0.1,0.4-0.1c-0.1-0.5-0.3-1-0.4-1.6
					C58,64.2,57.5,64.3,57.6,64.6L57.6,64.6z"/>
			</g>
		</g>
	</g>
	<g>
		<g>
			<g>
				<path class="st0" d="M60.6,63.6c0.4,0.3,0.7,0.6,1,1c0.1,0.3,0.6,0,0.4-0.2c-0.3-0.5-0.7-0.9-1.2-1.2
					C60.6,63,60.4,63.5,60.6,63.6L60.6,63.6z"/>
			</g>
		</g>
	</g>
	<g>
		<g>
			<g>
				<path class="st0" d="M63.1,59.1c0.3-0.3,0.9-0.3,1.2,0c0.2,0.2,0.6-0.1,0.3-0.3c-0.5-0.5-1.3-0.5-1.9,0
					C62.5,58.9,62.9,59.3,63.1,59.1L63.1,59.1z"/>
			</g>
		</g>
	</g>
	<g>
		<g>
			<g>
				<path class="st0" d="M62.3,55.4c0.4-0.3,0.8-0.4,1.2-0.3c0.3,0,0.4-0.4,0.1-0.4c-0.6-0.1-1.1,0-1.6,0.3
					C61.8,55.1,62,55.5,62.3,55.4L62.3,55.4z"/>
			</g>
		</g>
	</g>
	<g>
		<g>
			<g>
				<path class="st0" d="M60.2,53.2c0.2,0.1,0.5,0,0.7-0.1c0.2-0.2,0-0.6-0.2-0.4c-0.1,0.1-0.2,0.1-0.3,0.1
					C60,52.7,59.9,53.1,60.2,53.2L60.2,53.2z"/>
			</g>
		</g>
	</g>
	<g>
		<g>
			<g>
				<path class="st0" d="M70.3,63.6c0,0.2,0,0.4-0.1,0.6c0,0.3,0.4,0.3,0.4,0c0-0.2,0-0.4,0.1-0.6C70.8,63.3,70.3,63.3,70.3,63.6
					L70.3,63.6z"/>
			</g>
		</g>
	</g>
	<g>
		<g>
			<g>
				<path class="st0" d="M73,64.2c-0.6,0.4-0.6,1.2,0,1.6c0.3,0.2,0.5-0.2,0.2-0.4c-0.3-0.2-0.3-0.7,0-0.9
					C73.5,64.4,73.2,64,73,64.2L73,64.2z"/>
			</g>
		</g>
	</g>
	<g>
		<g>
			<g>
				<path class="st0" d="M76.8,63.8c0.3,0,0.3-0.4,0-0.4C76.5,63.4,76.5,63.8,76.8,63.8L76.8,63.8z"/>
			</g>
		</g>
	</g>
	<g>
		<g>
			<g>
				<path class="st0" d="M76.6,63.6c0,0.6,0.3,1.2,0.7,1.6c0.2,0.2,0.6-0.1,0.3-0.3c-0.4-0.3-0.6-0.7-0.6-1.2
					C77.1,63.3,76.6,63.3,76.6,63.6L76.6,63.6z"/>
			</g>
		</g>
	</g>
	<g>
		<g>
			<g>
				<path class="st0" d="M80.4,57.4C80.4,57.4,80.4,57.4,80.4,57.4c0,0,0.1,0,0.1,0c0,0,0,0,0.1,0c0,0.1,0,0.1,0,0.2
					c0.1-0.1,0.6-0.1,0.7,0c0.3,0.1,0.5,0.2,0.7,0.4c0.2,0.2,0.6-0.1,0.3-0.3c-0.4-0.4-1.1-0.7-1.7-0.5c-0.2,0.1-0.4,0.2-0.4,0.4
					c0,0.2,0.3,0.3,0.5,0.2C80.9,57.7,80.7,57.3,80.4,57.4L80.4,57.4z"/>
			</g>
		</g>
	</g>
	<g>
		<g>
			<g>
				<path class="st0" d="M79.9,55.2c0.2-0.3,0.6-0.2,0.8,0c0.2,0.2,0.5-0.1,0.3-0.3c-0.4-0.5-1.2-0.4-1.6,0.1
					C79.3,55.2,79.8,55.4,79.9,55.2L79.9,55.2z"/>
			</g>
		</g>
	</g>
	<g>
		<g>
			<g>
				<path class="st0" d="M78.7,53.4c0.1-0.1,0.2-0.3,0.3-0.4c0.1-0.1,0.3-0.1,0.3,0c0.1,0.3,0.5,0.1,0.4-0.1
					c-0.1-0.3-0.4-0.5-0.7-0.4c-0.4,0.1-0.6,0.4-0.8,0.7C78.1,53.4,78.5,53.7,78.7,53.4L78.7,53.4z"/>
			</g>
		</g>
	</g>
	<g>
		<g>
			<g>
				<path class="st0" d="M77.5,52.4c0-0.1,0-0.3,0.1-0.3l0.1,0c0-0.1,0-0.1-0.1-0.2c0-0.1,0.1-0.1,0.3,0.1c-0.1-0.3-0.5-0.1-0.4,0.1
					c0.1,0.5,0.8,0.1,0.6-0.3c-0.1-0.2-0.4-0.2-0.6-0.1c-0.1,0-0.2,0.1-0.3,0.2c-0.1,0.1-0.1,0.3-0.1,0.5
					C77,52.6,77.5,52.7,77.5,52.4L77.5,52.4z"/>
			</g>
		</g>
	</g>
	<g>
		<g>
			<g>
				<path class="st0" d="M73.3,67.7c1.2,0.1,2.5,0.3,3.4,1.1c1,1,1.2,3.3-0.7,3.4c-0.3,0-0.3,0.5,0,0.4c1.6-0.1,2.4-1.8,1.8-3.2
					c-0.7-1.8-2.8-2.2-4.5-2.4C73,67.2,73,67.7,73.3,67.7L73.3,67.7z"/>
			</g>
		</g>
	</g>
	<g>
		<g>
			<g>
				<path class="st0" d="M74.4,73.1c0.6,1.4,0.7,4.1-1.5,4.1c-0.3,0-0.3,0.4,0,0.4c1,0,1.8-0.6,2.2-1.5c0.4-1.1,0.1-2.2-0.3-3.2
					C74.7,72.6,74.3,72.8,74.4,73.1L74.4,73.1z"/>
			</g>
		</g>
	</g>
	<g>
		<g>
			<g>
				<path class="st0" d="M36.7,65.7c-0.5,0.6-1.1,1.4-0.6,2.2s1.1,0.6,1.7,0.1c2.1-1.5,4.1-3.7,4.6-6.2c0-0.1-0.1-0.3-0.2-0.3
					c-1.2,0-2.2,0.5-3,1.5c-0.2,0.2,0.1,0.6,0.3,0.3c0.7-0.9,1.6-1.3,2.7-1.3c-0.1-0.1-0.1-0.2-0.2-0.3c-0.3,1.5-1,2.7-2,3.7
					c-0.4,0.4-0.8,0.9-1.3,1.2c-0.2,0.1-0.4,0.4-0.6,0.5c-0.3,0.4-0.6,0.3-0.9-0.1c-0.7-0.2-0.8-0.6-0.2-1
					C37.2,65.8,36.9,65.5,36.7,65.7L36.7,65.7z"/>
			</g>
		</g>
	</g>
	<g>
		<g>
			<g>
				<path class="st0" d="M107.2,78.4c0.3-0.7,0.4-1.9-0.6-2.1c-1.3-0.2-2,1.9-2.3,2.8c-0.3,1-0.9,2.9,0.1,3.7c1,0.7,1.7-0.3,2.1-1
					c0.1-0.3-0.3-0.5-0.4-0.2c-0.1,0.2-0.2,0.4-0.3,0.6c-1.3,0-1.8-0.6-1.4-1.5c0.1-0.4,0.2-0.9,0.3-1.3c0.2-0.5,0.4-1.1,0.7-1.6
					c0.3-0.7,0.8-0.8,1.6-0.2c0,0.3-0.1,0.6-0.2,0.8C106.7,78.5,107.1,78.6,107.2,78.4L107.2,78.4z"/>
			</g>
		</g>
	</g>
	<g>
		<g>
			<g>
				<path class="st0" d="M62.5,97c0.6-0.2,1.2-0.4,1.8-0.6c0.1,0,0.2-0.1,0.1-0.3c-0.3-1.3-0.6-2.7-1.2-3.9
					c-0.4-0.9-1.3-2.3-2.3-2.5c-2.1-0.5-2.9,2.9-2.6,4.3c0.1,0.3,0.5,0.2,0.4-0.1c-0.2-1.1,0-2.3,0.9-3.1c1.3-1.3,2.6,0.5,3.1,1.6
					c0.4,0.8,0.7,1.7,0.9,2.6c0.1,0.3,0.3,0.8,0.1,1.1c-0.2,0.3-1.1,0.4-1.5,0.6C62.1,96.6,62.2,97,62.5,97L62.5,97z"/>
			</g>
		</g>
	</g>
	<g>
		<g>
			<g>
				<path class="st0" d="M83.8,98.1c-0.4-0.2-0.9-0.4-1.3-0.7c-0.6-0.4-0.7-0.4-0.6-1.1c0.1-0.9,0.6-2,1-2.8
					c1.9-3.7,5.2-0.6,5.4,2.3c0,0.3,0.5,0.3,0.4,0c-0.1-2-1.5-4.8-4-4.5c-2.4,0.3-3.2,3.9-3.4,5.8c0,0.1,0,0.2,0.1,0.3
					c0.7,0.4,1.5,0.7,2.2,1.2C83.8,98.7,84,98.3,83.8,98.1L83.8,98.1z"/>
			</g>
		</g>
	</g>
	<g>
		<g>
			<g>
				<path class="st0" d="M64.6,96.2c0.3-0.7,0.5-1.5,0.8-2.2c0.1-0.5,0.5-2.2,1.1-2.4c0.3-0.1,0.2-0.5-0.1-0.4
					c-0.7,0.1-0.8,0.9-1,1.5c-0.4,1.2-0.8,2.3-1.2,3.4C64,96.4,64.5,96.5,64.6,96.2L64.6,96.2z"/>
			</g>
		</g>
	</g>
	<g>
		<g>
			<g>
				<path class="st0" d="M81.3,97.4c-0.1-2.4-0.8-4.6-2.2-6.5c-0.2-0.2-0.6,0-0.4,0.2c1.4,1.8,2.1,3.9,2.2,6.2
					C80.8,97.7,81.3,97.7,81.3,97.4L81.3,97.4z"/>
			</g>
		</g>
	</g>
	<g>
		<g>
			<g>
				<path class="st0" d="M58.5,93.7c0.1,0.1,0.3-2.3,0.3-2.5c0-0.7,0-1.4,0-2.1c0-1-0.2-1.9-0.7-2.8c-0.1-0.3-0.6,0-0.4,0.2
					c0.8,1.5,0.6,3.2,0.7,4.9c0,0.6-0.3,1.8,0.2,2.3c0.1,0.1,0.3,0.1,0.3,0c0,0,0,0,0.1-0.1c0.1-0.1,0.1-0.2,0-0.3l0,0
					C58.6,93.2,58.3,93.6,58.5,93.7L58.5,93.7z"/>
			</g>
		</g>
	</g>
	<g>
		<g>
			<g>
				<path class="st0" d="M88.1,94c-1.5-2.2-1.9-4.7-1.4-7.2c0.1-0.3-0.4-0.4-0.4-0.1c-0.6,2.7-0.1,5.3,1.5,7.6
					C87.9,94.5,88.3,94.2,88.1,94L88.1,94z"/>
			</g>
		</g>
	</g>
	<g>
		<g>
			<g>
				<path class="st0" d="M36.3,67.9c0.4,0.7,0.6,1.3,0.7,2.1c0,0.1,0.1,0.3,0.3,0.2c2.8-1,5.1-3,6.4-5.7c0.3-0.6,1.2-2.2,0.7-2.9
					c-0.6-0.8-1.6,0.3-2.3-0.1c-0.3-0.1-0.5,0.3-0.2,0.4c0.6,0.3,1.1-0.3,1.6-0.1c1.5,0.5-1.1,4-1.6,4.6c-0.9,1.1-2,2-3.3,2.7
					c-0.3,0.1-0.6,0.4-0.9,0.4c-0.7-0.1,0,0.2-0.3-0.3c-0.3-0.4-0.4-1.1-0.7-1.6C36.6,67.5,36.1,67.7,36.3,67.9L36.3,67.9z"/>
			</g>
		</g>
	</g>
	<g>
		<g>
			<g>
				<path class="st0" d="M105.3,82.4c-1-0.3-1.8-0.3-2.8,0.2c0.1,0.1,0.2,0.1,0.3,0.2c-0.2-3.2,1-6.1,3.5-8.2
					c-0.1,0-0.3-0.1-0.4-0.1c0,1,0.3,1.8,0.9,2.5c0.2,0.2,0.5-0.1,0.3-0.3c-0.6-0.6-0.9-1.4-0.8-2.2c0-0.2-0.3-0.3-0.4-0.1
					c-2.5,2.1-3.8,5.2-3.6,8.5c0,0.2,0.2,0.3,0.3,0.2c0.8-0.4,1.6-0.5,2.4-0.1C105.5,82.9,105.6,82.5,105.3,82.4L105.3,82.4z"/>
			</g>
		</g>
	</g>
	<g>
		<g>
			<g>
				<path class="st0" d="M37.3,70.4c5.3,2.2,10.1-3.7,7-8.4c-0.1-0.3-0.6,0-0.4,0.2c2.9,4.4-1.6,9.8-6.5,7.8
					C37.1,69.8,37,70.3,37.3,70.4L37.3,70.4z"/>
			</g>
		</g>
	</g>
	<g>
		<g>
			<g>
				<path class="st0" d="M106.4,74c-2.2-1.7-5.1,1.7-5.9,3.5c-0.9,2.1-0.7,5.8,2.4,5.4c0.3,0,0.3-0.5,0-0.4
					c-3.3,0.4-2.7-3.7-1.7-5.4c0.8-1.4,3.1-4,4.9-2.7C106.4,74.6,106.7,74.2,106.4,74L106.4,74z"/>
			</g>
		</g>
	</g>
	<g>
		<g>
			<g>
				<path class="st0" d="M43.2,69.6c2.2,1.1-1.2,7-2.1,8.3c-0.8,1.2-1.8,2.2-2.9,3.2c-0.6,0.4-1.1,0.9-1.7,1.3
					c-0.3,0.2-0.6,0.4-0.9,0.6c-1.7-0.3-2.1-0.7-1.3-1.4c0.6-1.6,3.9-2.7,5.3-1.8c1.8,1,1.5,4.4,1,6.1c-0.1,0.5-0.3,1-0.6,1.4
					c-0.5,0-1.1,0-1.6,0.1c-0.6-0.6,2.2-2.6,2.7-2.7c1.6,0.1,2.4,0.7,2.4,1.9c0.1,0.6,0.1,1.2-0.1,1.7c-0.3-0.9,0.1-1.5,0.9-1.9
					c1.3,0.3,2.2-0.1,2.9-1.4c0.3-0.1,0.1-0.6-0.1-0.4c-1.5,0.5-2.1,2.1-1.4,3.5c0,0.1,0.2,0.1,0.3,0.1c1.1-0.8,0.5-2.5-0.9-2.5
					c-1.9,0-3.1,2.5-2.2,4c0.1,0.1,0.3,0.1,0.4,0c0.7-1.5,1.1-3.9-0.3-5.1c-1.4-1.1-3.4,0.2-4.3,1.3c-0.5,0.6-1.6,2.5-0.4,3
					c1.8,0.6,2.7-2.6,2.8-3.6c0.3-1.8,0.5-4.4-1.2-5.6c-1.7-1.2-3.8-0.2-5.3,1c-0.8,0.6-2.5,2.4-0.9,3.2c1.5,0.7,3.7-1.4,4.7-2.2
					c2.1-1.8,3.8-4.1,4.8-6.7c0.6-1.3,1.9-4.6,0.1-5.5C43.1,69.1,42.9,69.5,43.2,69.6L43.2,69.6z"/>
			</g>
		</g>
	</g>
	<g>
		<g>
			<g>
				<path class="st0" d="M101.4,76.2c-0.4-2.2-2.9-1-3.6,0.3c-0.4,0.8-1,2.4-0.5,3.3c0.3,0.4,0.6,0.6,1.1,0.3
					c0.9-0.8,0.2-3.3-1.3-2.7c-1.7,0.7-1.8,4.1,0.2,4.4c0.2,0,0.4-0.2,0.2-0.4c-0.4-0.4-1-0.5-1.5-0.1c-0.4,0.3-1,3.1-1.2,3
					c-0.3-0.2-0.5,0.2-0.2,0.4c0.3,0.2,0.5,0.2,0.8,0c0.3-0.2,0.3-0.5,0.4-0.8c0.1-0.3,0-3.3,1.4-2.1c0.1-0.1,0.1-0.3,0.2-0.4
					c-1.6-1.8-1.6-2.5-0.1-2c1.2,0.4,1.3,0,0.4-1.2c0-0.2,0.1-0.4,0.1-0.6c0.3-1.5,1.3-1.9,3.1-1.2C101,76.6,101.5,76.5,101.4,76.2
					L101.4,76.2z"/>
			</g>
		</g>
	</g>
	<g>
		<g>
			<g>
				<path class="st0" d="M47.5,84.6c0.4,0.2,0.9,0.4,1.3,0.4c0.3-0.1,0.6-0.3,0.7-0.7c0-0.3-0.2-0.7-0.6-0.7s-0.6,0.6-0.6,0.9
					c-0.1,0.3-0.1,0.7,0.2,1c0.3,0.2,0.6,0,0.7-0.3c0.2-0.5,0.1-1.6-0.6-1.5c-0.1,0-0.1,0-0.2,0.1c-0.2,0.4-0.2,0.9,0,1.4
					c0,0.1,0.2,0.1,0.3,0.1c0.5-0.2,0.6-1,0.1-1.3c-0.1-0.1-0.2,0-0.3,0c-0.3,0.2-0.3,0.7,0,0.9c0.1,0.1,0.2,0.1,0.3,0
					c0.2-0.2,0.3-0.4,0.2-0.7c0-0.1-0.3-0.2-0.4-0.1c-0.2,0.2-0.2,0.6,0,0.7c0.2,0.2,0.6-0.1,0.3-0.3c0,0,0-0.1,0-0.1
					c-0.1,0-0.3-0.1-0.4-0.1c0,0.1,0,0.2-0.1,0.3c0.1,0,0.2,0,0.3,0c-0.1-0.1,0-0.2,0-0.3c-0.1,0-0.2,0-0.3,0c0.1,0.1,0.1,0.4,0,0.4
					c0.1,0,0.2,0.1,0.3,0.1c-0.1-0.3-0.1-0.6,0-0.9c-0.1,0-0.1,0.1-0.2,0.1c0.3,0,0.3,0.6,0.2,0.9c-0.1,0.4-0.1-0.2-0.1-0.3
					c0-0.3,0.1-0.5,0.3-0.7C49,84,48.9,84,48.9,84c0.1,0,0.2,0.2,0.1,0.3c-0.1,0.1-0.3,0.2-0.4,0.2c-0.3,0-0.6-0.2-0.9-0.3
					C47.5,84.1,47.2,84.5,47.5,84.6L47.5,84.6z"/>
			</g>
		</g>
	</g>
	<g>
		<g>
			<g>
				<path class="st0" d="M95,84.6c-1-0.7-2.3,0-2.3,1.2c0,0.2,0.3,0.3,0.4,0.1c0.5-0.4,0.6-1.2,0.2-1.7c-0.1-0.1-0.3-0.1-0.4,0
					c-0.3,0.3-0.5,0.7-0.4,1.2c0,0.2,0.3,0.2,0.4,0.1c0.2-0.2,0.3-0.5,0.2-0.7c0-0.1-0.2-0.2-0.3-0.1c-0.4,0.3-0.5,0.8-0.2,1.2
					c0.1,0.1,0.3,0.1,0.3,0c0.2-0.3,0.3-0.6,0.1-1c0-0.1-0.2-0.2-0.3-0.1c-0.3,0.2-0.4,0.6-0.2,0.9c0.1,0.3,0.6,0,0.4-0.2
					c0-0.1,0-0.1,0-0.2c-0.1,0-0.2-0.1-0.3-0.1c0.1,0.2,0.1,0.3,0,0.5c0.1,0,0.2,0,0.3,0c-0.1-0.1-0.1-0.4,0.1-0.5
					c-0.1,0-0.2-0.1-0.3-0.1c0,0.1,0,0.2-0.1,0.3c0.1,0,0.3,0.1,0.4,0.1c0-0.3,0-0.5,0.3-0.7c-0.1,0-0.3,0-0.4,0
					c0.3,0.4,0.2,0.9-0.1,1.2c0.1,0,0.3,0.1,0.4,0.1c0-0.9,0.9-1.3,1.6-0.8C95,85.2,95.3,84.8,95,84.6L95,84.6z"/>
			</g>
		</g>
	</g>
	<g>
		<g>
			<g>
				<path class="st0" d="M38.8,65.5c1-0.6,1.6-1.6,1.6-2.7c0-0.3-0.4-0.3-0.4,0c-0.1,1-0.6,1.8-1.4,2.3
					C38.3,65.3,38.6,65.7,38.8,65.5L38.8,65.5z"/>
			</g>
		</g>
	</g>
	<g>
		<g>
			<g>
				<path class="st0" d="M106,77.5c-0.6,0.6-0.9,1.3-0.8,2.1c0,0.3,0.5,0.3,0.4,0c0-0.7,0.2-1.3,0.7-1.8
					C106.6,77.6,106.3,77.3,106,77.5L106,77.5z"/>
			</g>
		</g>
	</g>
	<g>
		<g>
			<g>
				<path class="st0" d="M41.4,53.4c0.3,0,0.3-0.4,0-0.4C41.1,52.9,41.1,53.4,41.4,53.4L41.4,53.4z"/>
			</g>
		</g>
	</g>
	<g>
		<g>
			<g>
				<path class="st0" d="M39.3,53.3c0.1,1-0.4,2.8,1.4,2.3c1.2-0.3,2.3-2.1,3-3.1c0.8-1,1.5-2,2.1-3.1c0.7-1.2,1.4-2.5,2-3.8
					c0.3-0.7,1-1.9,0.8-2.7c-0.4-1.5-2.2-0.6-2.9,0.1c-0.2,0.2,0.1,0.5,0.3,0.3c1.8-0.3,2.4,0,1.8,1c-0.1,0.2-0.1,0.4-0.2,0.6
					c-0.3,0.7-0.6,1.5-1,2.2c-0.6,1.1-1.2,2.2-1.9,3.2c-0.8,1.2-1.6,2.3-2.6,3.4c-0.6,0.7-0.6,0.9-1.6,0.8c-1.1-0.2-0.7-0.3-0.8-1.1
					C39.8,53,39.3,53,39.3,53.3L39.3,53.3z"/>
			</g>
		</g>
	</g>
	<g>
		<g>
			<g>
				<path class="st0" d="M41,54c0.6-0.6,1.2-1.2,1.5-2c0.1-0.3-0.3-0.5-0.4-0.2c-0.4,0.7-0.9,1.3-1.5,1.9C40.4,53.9,40.7,54.2,41,54
					L41,54z"/>
			</g>
		</g>
	</g>
	<g>
		<g>
			<g>
				<path class="st0" d="M46.4,43.5c-0.2,0.9-0.6,1.7-1,2.5c-0.1,0.3,0.3,0.5,0.4,0.2c0.5-0.8,0.9-1.6,1.1-2.6
					C46.9,43.4,46.5,43.2,46.4,43.5L46.4,43.5z"/>
			</g>
		</g>
	</g>
	<g>
		<g>
			<g>
				<path class="st0" d="M93.2,43.2c-0.7-0.6-1.4-0.9-2.4-1c-0.1,0-0.2,0.1-0.2,0.2c-0.4,2.1,0.6,4.1,1.5,5.9c1,2.1,2.4,4.2,4,5.8
					c0.7,0.7,2.4,1.8,3.2,0.5c0.5-0.7,0.1-1.6-0.7-1.8c-0.3-0.1-0.4,0.4-0.1,0.4c-0.9,1-1.6,1.2-2.1,0.5c-0.1-0.1-0.3-0.3-0.4-0.4
					c-0.4-0.5-0.9-1-1.3-1.6c-0.6-0.8-1.2-1.7-1.6-2.6c-0.5-1-1-2-1.4-3c-0.1-0.4-0.4-1-0.5-1.4c-0.1-1.1,0.6-2.1,1.7-1.1
					C93.1,43.7,93.4,43.4,93.2,43.2L93.2,43.2z"/>
			</g>
		</g>
	</g>
	<g>
		<g>
			<g>
				<path class="st0" d="M96.8,52.1c-0.1,0.8,0.4,1.6,1.3,1.7c0.3,0,0.3-0.4,0-0.4c-0.5,0-1-0.6-0.9-1.1
					C97.3,52,96.9,51.8,96.8,52.1L96.8,52.1z"/>
			</g>
		</g>
	</g>
	<g>
		<g>
			<g>
				<path class="st0" d="M91.6,43.1c-0.1,1,0.4,1.9,1.2,2.4c0.3,0.1,0.5-0.3,0.2-0.4c-0.7-0.4-1.1-1.2-1-2
					C92.1,42.8,91.7,42.8,91.6,43.1L91.6,43.1z"/>
			</g>
		</g>
	</g>
	<g>
		<g>
			<g>
				<path class="st0" d="M45.3,50.2c1.1,1,2.2,2,3.5,2.8c0.9,0.5,2.1,1.4,3.1,1c0.3-0.1,0.1-0.6-0.1-0.4c-1,0.4-2.7-0.9-3.5-1.5
					c-1-0.7-1.9-1.4-2.7-2.2C45.4,49.6,45,50,45.3,50.2L45.3,50.2z"/>
			</g>
		</g>
	</g>
	<g>
		<g>
			<g>
				<path class="st0" d="M88.3,52.1c1.9-0.2,3.6-1,5-2.3c0.2-0.2-0.1-0.5-0.3-0.3c-1.3,1.2-2.9,1.9-4.7,2.1
					C88,51.7,88,52.1,88.3,52.1L88.3,52.1z"/>
			</g>
		</g>
	</g>
	<g>
		<g>
			<g>
				<path class="st0" d="M44.4,50.6c2.1,1.8,4.2,3.8,4.8,6.6c0.1,0.3,0.5,0.2,0.4-0.1c-0.6-2.9-2.8-4.9-4.9-6.8
					C44.5,50.1,44.2,50.5,44.4,50.6L44.4,50.6z"/>
			</g>
		</g>
	</g>
	<g>
		<g>
			<g>
				<path class="st0" d="M90.9,54.5c-0.1,0-0.3,0-0.5,0c0.1,0.1,0.1,0.1,0.2,0.2c0.2-1.7,1.4-3.2,3-3.7c0.3-0.1,0.1-0.6-0.1-0.4
					c-1.9,0.6-3.2,2.2-3.4,4.1c0,0.1,0.1,0.2,0.2,0.2c0.1,0,0.3,0,0.5,0C91.2,54.9,91.2,54.5,90.9,54.5L90.9,54.5z"/>
			</g>
		</g>
	</g>
	<g>
		<g>
			<g>
				<path class="st0" d="M44.2,68.3c1.3,4.9-1.6,9.1-5.3,12c-0.2,0.2,0.1,0.5,0.3,0.3c3.8-3,6.7-7.4,5.4-12.5
					C44.5,67.9,44.1,68,44.2,68.3L44.2,68.3z"/>
			</g>
		</g>
	</g>
	<g>
		<g>
			<g>
				<path class="st0" d="M38.8,80.1C38,80.9,37,81.7,36,81.9c-0.7,0.1-0.9-0.7-0.5-1.2c0.2-0.3,0.5-0.4,0.7-0.6
					c0.5-0.3,1-0.5,1.6-0.6c0.3-0.1,0.2-0.5-0.1-0.4c-1,0.2-1.9,0.6-2.6,1.4c-0.4,0.4-0.7,1.2-0.3,1.7c1,1.3,3.6-0.9,4.4-1.6
					C39.4,80.3,39.1,80,38.8,80.1L38.8,80.1z"/>
			</g>
		</g>
	</g>
	<g>
		<g>
			<g>
				<path class="st0" d="M40.7,84.3c-0.1,0.5-0.3,1-0.6,1.5c-0.1,0.3-0.6,1.4-0.9,1.4c-0.6,0,0-1.2,0.1-1.4c0.3-0.4,0.6-0.7,1-1
					c0.3-0.1,0-0.6-0.2-0.4c-0.6,0.4-1.1,0.9-1.3,1.5c-0.2,0.4-0.4,1.3,0,1.6c1.2,0.8,2.1-2.4,2.4-3.1C41.3,84.1,40.8,84,40.7,84.3
					L40.7,84.3z"/>
			</g>
		</g>
	</g>
	<g>
		<g>
			<g>
				<path class="st0" d="M43.4,86.5c0.1,0.6,0.7,4.4-1.2,3.1c-0.7-0.6-0.4-1.6,0-2.2c0.4-0.5,1-0.8,1.6-1.2c0.3-0.1,0-0.6-0.2-0.4
					c-0.9,0.5-1.9,1.1-2.2,2.1c-0.3,0.8,0,1.8,0.8,2.2c0.7,0.3,1.4,0,1.7-0.6c0.4-0.9,0.1-2.2,0-3.2C43.8,86.1,43.4,86.2,43.4,86.5
					L43.4,86.5z"/>
			</g>
		</g>
	</g>
	<g>
		<g>
			<g>
				<path class="st0" d="M97.9,77.8c0.5,0.3,1,0.7,1.2,1.3c0.1,0.6-0.1,1.4-0.7,1.6c-1.6,0.3-0.8-1.9-0.8-2.7c0-0.3-0.4-0.3-0.4,0
					c0,0.8-0.5,1.8-0.1,2.5c0.3,0.6,1,0.8,1.7,0.5c0.7-0.3,1-1.1,0.9-1.8c-0.1-0.8-0.7-1.5-1.5-1.9C97.9,77.2,97.6,77.6,97.9,77.8
					L97.9,77.8z"/>
			</g>
		</g>
	</g>
	<g>
		<g>
			<g>
				<path class="st0" d="M97.1,81.8c0.3,0.1,0.4,0.2,0.6,0.5c0-0.1,0-0.1,0-0.2c-0.1,0.3-0.4,0.2-0.6,0c-0.2-0.2-0.3-0.5-0.4-0.8
					c-0.1-0.3-0.5-0.1-0.4,0.1c0.2,0.6,0.6,1.5,1.4,1.2c0.3-0.1,0.6-0.3,0.4-0.6c-0.1-0.4-0.4-0.6-0.8-0.7
					C97,81.3,96.8,81.8,97.1,81.8L97.1,81.8z"/>
			</g>
		</g>
	</g>
	<g>
		<g>
			<g>
				<path class="st0" d="M97.7,77.6c0.3-1,0.9-2.1,1.6-2.8c1.2-1.2,1.8,0.3,2,1.3c0,0.3,0.5,0.2,0.4-0.1c-0.1-1-0.6-2.4-1.9-2.1
					c-1.4,0.3-2.2,2.4-2.7,3.5C97.2,77.8,97.6,77.9,97.7,77.6L97.7,77.6z"/>
			</g>
		</g>
	</g>
	<g>
		<g>
			<g>
				<path class="st0" d="M48.7,55.4c1-0.1,1.7-1.2,1.2-2.2c-0.1-0.3-0.5,0-0.4,0.2c0.3,0.6-0.2,1.4-0.9,1.5
					C48.4,55,48.4,55.5,48.7,55.4L48.7,55.4z"/>
			</g>
		</g>
	</g>
	<g>
		<g>
			<g>
				<path class="st0" d="M47.8,53.9c0.7,0,1.2-1,0.6-1.6c-0.2-0.2-0.6,0.1-0.3,0.3c0.3,0.2,0.1,0.7-0.3,0.7
					C47.5,53.5,47.5,53.9,47.8,53.9L47.8,53.9z"/>
			</g>
		</g>
	</g>
	<g>
		<g>
			<g>
				<path class="st0" d="M89.5,51.6c0.2,0.5,0.5,0.9,1,1.2c0.3,0.1,0.5-0.3,0.2-0.4c-0.4-0.2-0.6-0.6-0.8-1
					C89.8,51.2,89.4,51.3,89.5,51.6L89.5,51.6z"/>
			</g>
		</g>
	</g>
	<g>
		<g>
			<g>
				<path class="st0" d="M90.9,50.8c-0.4,0.4-0.1,1.2,0.4,1.3c0.1,0,0.3,0,0.3-0.1c0-0.1,0-0.3-0.1-0.3c-0.2,0-0.4-0.3-0.2-0.5
					C91.4,50.9,91.1,50.5,90.9,50.8L90.9,50.8z"/>
			</g>
		</g>
	</g>
	<g>
		<g>
			<g>
				<path class="st0" d="M90.5,52.9c0.1,0,0.1,0.1,0.2,0.1c0.3,0.2,0.5-0.2,0.2-0.4c-0.1,0-0.1-0.1-0.2-0.1
					C90.5,52.3,90.2,52.7,90.5,52.9L90.5,52.9z"/>
			</g>
		</g>
	</g>
	<g>
		<g>
			<g>
				<path class="st0" d="M62.3,89.3c0-1.5-0.1-3-0.4-4.5c-0.2-0.8-0.5-2-1.5-2.2c-2.1-0.4-2.5,3.1-2.1,4.4c0.1,0.3,0.5,0.2,0.4-0.1
					c-0.2-0.8-0.2-1.5,0.1-2.3c0.3-1.2,1.2-1.3,2.5-0.3c0.1,0.3,0.1,0.6,0.2,0.9c0.3,1.4,0.4,2.8,0.4,4.2
					C61.9,89.6,62.3,89.6,62.3,89.3L62.3,89.3z"/>
			</g>
		</g>
	</g>
	<g>
		<g>
			<g>
				<path class="st0" d="M82,89.8c-0.1-0.7-0.1-1.3,0-2c0.1-0.7,0.1-2,0.8-2.4c1.5-0.9,2.7,1,3.2,2c0.1,0.2,0.5,0.1,0.4-0.2
					c0-0.1,0-0.2-0.1-0.3c-0.1-0.3-0.5-0.1-0.4,0.1c0,0.1,0,0.2,0.1,0.3c0.1-0.1,0.3-0.1,0.4-0.2c-0.7-1.3-1.9-3-3.6-2.3
					c-1.6,0.6-1.4,3.5-1.3,4.9C81.6,90,82,90.1,82,89.8L82,89.8z"/>
			</g>
		</g>
	</g>
	<g>
		<g>
			<g>
				<path class="st0" d="M59.4,85.5c-0.1-0.1-0.1-0.3,0.1-0.4c0.1-0.1,0.1-0.1,0.2-0.1c0,0,0-0.1,0,0c0,0.1,0,0.1,0.1,0.2
					c0,0.2,0.1,0.5-0.1,0.6C59.6,85.8,59.4,85.7,59.4,85.5c0-0.2-0.4-0.3-0.5,0c-0.1,0.4,0.3,0.8,0.7,0.7c0.6,0,0.7-0.6,0.6-1.1
					c0-0.2-0.1-0.5-0.4-0.6c-0.2-0.1-0.4,0-0.6,0.1c-0.3,0.2-0.6,0.7-0.3,1.1C59.2,86,59.6,85.7,59.4,85.5L59.4,85.5z"/>
			</g>
		</g>
	</g>
	<g>
		<g>
			<g>
				<path class="st0" d="M83.3,86.9c-0.1-0.2,0.1-0.5,0.3-0.6c0.2,0,0.4,0.1,0.4,0.3C84.1,87.1,83.4,87.2,83.3,86.9
					c-0.1-0.3-0.6-0.1-0.4,0.1c0.2,0.4,0.7,0.6,1.1,0.4c0.4-0.1,0.7-0.6,0.5-1c-0.1-0.4-0.6-0.7-1-0.6c-0.4,0.1-0.7,0.6-0.6,1.1
					C82.9,87.3,83.3,87.2,83.3,86.9L83.3,86.9z"/>
			</g>
		</g>
	</g>
	<g>
		<g>
			<g>
				<path class="st0" d="M60.5,94.3c-0.6-1.3,0-2.9,1.4-3.4c0.3-0.1,0.1-0.6-0.1-0.4c-1.6,0.6-2.4,2.5-1.7,4.1
					C60.2,94.8,60.6,94.6,60.5,94.3L60.5,94.3z"/>
			</g>
		</g>
	</g>
	<g>
		<g>
			<g>
				<path class="st0" d="M84.2,92.1c1.5,0.4,2.5,2,2.1,3.5c-0.1,0.3,0.4,0.4,0.4,0.1c0.4-1.8-0.7-3.6-2.4-4.1
					C84.1,91.6,83.9,92,84.2,92.1L84.2,92.1z"/>
			</g>
		</g>
	</g>
	<g>
		<g>
			<g>
				<path class="st0" d="M61.3,93C61.3,93,61.3,93,61.3,93C61.3,93,61.3,93,61.3,93c0,0,0.1,0,0.1,0c0.1,0,0.1,0.1,0.1,0.2
					c0,0.1-0.1,0.1-0.2,0.1c-0.1,0.1,0,0,0,0c0,0,0,0,0-0.1C61.3,93.2,61.3,93.1,61.3,93c0.4,0,0.2-0.4,0-0.4
					c-0.4,0.1-0.6,0.5-0.4,0.9c0.1,0.2,0.3,0.3,0.5,0.3s0.4-0.2,0.5-0.4c0.2-0.3,0.1-0.8-0.3-0.9c-0.3-0.1-0.7,0.1-0.7,0.5
					C60.9,93.3,61.3,93.3,61.3,93L61.3,93z"/>
			</g>
		</g>
	</g>
	<g>
		<g>
			<g>
				<path class="st0" d="M84.5,94c-0.2-0.1-0.1-0.5,0.1-0.4c0.4,0.1,0.1,0.6-0.1,0.7c-0.3,0.1-0.2,0.5,0.1,0.4
					c0.4-0.1,0.7-0.4,0.7-0.8c0-0.4-0.3-0.7-0.6-0.8s-0.7,0.1-0.8,0.4c-0.1,0.3,0,0.7,0.3,0.8C84.5,94.5,84.8,94.1,84.5,94L84.5,94z
					"/>
			</g>
		</g>
	</g>
	<g>
		<g>
			<g>
				<path class="st0" d="M55.9,100c3.2,1,6-1.8,8.4-3.6c0.2-0.2,0-0.6-0.2-0.4c-2.2,1.6-5,4.5-8,3.5C55.7,99.5,55.6,99.9,55.9,100
					L55.9,100z"/>
			</g>
		</g>
	</g>
	<g>
		<g>
			<g>
				<path class="st0" d="M81.1,97.3c-0.4,0.9,0.1,1.6,0.9,2.1c1.6,0.9,3.3,1.6,5,2.4c0.3,0.1,0.5-0.3,0.2-0.4c-1-0.4-1.9-0.9-3-1.4
					c-0.6-0.3-3.4-1.2-2.8-2.4C81.6,97.3,81.2,97,81.1,97.3L81.1,97.3z"/>
			</g>
		</g>
	</g>
	<g>
		<g>
			<g>
				<path class="st0" d="M47.8,86.7c0.3,0,0.3-0.4,0-0.4C47.5,86.2,47.5,86.7,47.8,86.7L47.8,86.7z"/>
			</g>
		</g>
	</g>
	<g>
		<g>
			<g>
				<path class="st0" d="M87,89.5c2.5-0.8,4.9-1.9,7.1-3.4c0.1-0.1,0.1-0.3,0-0.4c-0.1-0.1-0.2-0.3-0.4-0.4
					c-0.2-0.2-0.6,0.1-0.3,0.3c0.1,0.1,0.3,0.3,0.4,0.4c0-0.1,0-0.3,0-0.4c-2.2,1.4-4.5,2.5-7,3.4C86.6,89.1,86.8,89.6,87,89.5
					L87,89.5z"/>
			</g>
		</g>
	</g>
	<g>
		<g>
			<g>
				<path class="st0" d="M67.2,91.4c3.7,0.1,7.5,0.1,11.2-0.2c0.3,0,0.3-0.5,0-0.4c-3.7,0.3-7.5,0.3-11.2,0.2
					C66.9,90.9,66.9,91.4,67.2,91.4L67.2,91.4z"/>
			</g>
		</g>
	</g>
	<g>
		<g>
			<g>
				<path class="st0" d="M47.8,86.5c3,2.7,6.7,3.7,10.6,4.3c0.3,0,0.4-0.4,0.1-0.4c-3.8-0.6-7.5-1.6-10.4-4.1
					C47.9,85.9,47.5,86.2,47.8,86.5L47.8,86.5z"/>
			</g>
		</g>
	</g>
	<g>
		<g>
			<g>
				<path class="st0" d="M87.1,87.4c2.4-0.6,4.6-1.3,6.9-2.1c0.3-0.1,0.1-0.6-0.1-0.4c-2.2,0.9-4.6,1.5-6.9,2.1
					C86.7,87.1,86.8,87.5,87.1,87.4L87.1,87.4z"/>
			</g>
		</g>
	</g>
	<g>
		<g>
			<g>
				<path class="st0" d="M62.7,89.9c6.2,0,12.4-0.3,18.5-1.2c0.3,0,0.2-0.5-0.1-0.4c-6.1,0.9-12.2,1.2-18.4,1.2
					C62.4,89.4,62.4,89.9,62.7,89.9L62.7,89.9z"/>
			</g>
		</g>
	</g>
	<g>
		<g>
			<g>
				<path class="st0" d="M47.8,85.6c3.2,1.9,6.6,3.1,10.3,3.7c0.3,0,0.4-0.4,0.1-0.4c-3.6-0.7-7-1.8-10.2-3.7
					C47.8,85,47.5,85.5,47.8,85.6L47.8,85.6z"/>
			</g>
		</g>
	</g>
	<g>
		<g>
			<g>
				<path class="st0" d="M61.1,68.3c0.1,7.1,0.4,14.1,0.7,21.1c0,0.3,0.5,0.3,0.4,0c-0.4-7-0.6-14.1-0.7-21.1
					C61.5,68,61.1,68,61.1,68.3L61.1,68.3z"/>
			</g>
		</g>
	</g>
	<g>
		<g>
			<g>
				<path class="st0" d="M80.5,67.5c0.3,6.9,0.6,13.7,0.7,20.7c0,0.3,0.5,0.3,0.4,0c-0.1-6.9-0.4-13.8-0.7-20.7
					C80.9,67.2,80.5,67.2,80.5,67.5L80.5,67.5z"/>
			</g>
		</g>
	</g>
	<g>
		<g>
			<g>
				<path class="st0" d="M48.5,93.8c0-0.3,0.6-0.4,0.6,0c0,0.1,0,0.1-0.1,0.2c0,0,0,0-0.1,0.1c0,0,0,0,0,0c0,0,0,0,0,0
					c-0.2-0.1-0.4-0.3-0.4-0.5c0-0.3-0.5-0.2-0.4,0.1c0.1,0.4,0.4,0.8,0.9,0.9c0.4,0.1,0.6-0.4,0.6-0.8c0-0.4-0.3-0.7-0.7-0.7
					c-0.4,0-0.7,0.3-0.8,0.6C48.1,94,48.5,94.1,48.5,93.8L48.5,93.8z"/>
			</g>
		</g>
	</g>
	<g>
		<g>
			<g>
				<path class="st0" d="M91.4,92.7c0-0.4,0.6-0.5,0.6,0c0,0.1-0.1,0.3-0.3,0.3C91.6,93.1,91.4,92.9,91.4,92.7c0-0.3-0.5-0.3-0.4,0
					c0,0.4,0.4,0.8,0.8,0.8c0.4,0,0.7-0.4,0.7-0.8c0-0.4-0.3-0.8-0.7-0.8c-0.4,0-0.8,0.4-0.8,0.8C90.9,93,91.4,93,91.4,92.7
					L91.4,92.7z"/>
			</g>
		</g>
	</g>
	<g>
		<g>
			<g>
				<path class="st0" d="M48.7,83c0.2-0.3,0.7-0.1,0.9,0.1s0.3,0.5,0.3,0.8c0,0.5,0,1,0.1,1.5c0.1,0.3,0.5,0.2,0.4-0.1
					c-0.2-0.9,0.2-2-0.6-2.7c-0.4-0.4-1.2-0.4-1.5,0.1C48.2,83,48.6,83.2,48.7,83L48.7,83z"/>
			</g>
		</g>
	</g>
	<g>
		<g>
			<g>
				<path class="st0" d="M92,85.5c0-0.4-0.1-0.8,0.1-1.2c0.1-0.3,0.6-0.4,0.8-0.2c0.2,0.2,0.5-0.1,0.3-0.3c-0.4-0.4-0.9-0.3-1.3,0
					c-0.5,0.4-0.5,1.1-0.4,1.7C91.5,85.8,92,85.8,92,85.5L92,85.5z"/>
			</g>
		</g>
	</g>
	<g>
		<g>
			<g>
				<path class="st0" d="M49.2,81.6c-0.3-6.5-1.3-13.4,0.3-19.8c0.1-0.3-0.4-0.4-0.4-0.1c-1.5,6.5-0.6,13.4-0.3,19.9
					C48.8,81.9,49.2,81.9,49.2,81.6L49.2,81.6z"/>
			</g>
		</g>
	</g>
	<g>
		<g>
			<g>
				<path class="st0" d="M89.9,57c2.2,3.7,2.2,8,2.4,12.1c0.2,4.4,0.4,8.9,0.6,13.3c0,0.3,0.5,0.3,0.4,0c-0.2-4.9-0.4-9.8-0.6-14.8
					c-0.1-3.8-0.4-7.6-2.4-10.9C90.1,56.4,89.7,56.7,89.9,57L89.9,57z"/>
			</g>
		</g>
	</g>
	<g>
		<g>
			<g>
				<path class="st0" d="M41.4,50.1c-2-0.1-3.2-2.3-2-4c1.2-1.7,3.7-1.2,4.4,0.6c0.1,0.3,0.6,0.1,0.4-0.1c-0.9-2.2-3.8-2.8-5.2-0.8
					c-1.5,2,0,4.6,2.4,4.7C41.7,50.6,41.7,50.1,41.4,50.1L41.4,50.1z"/>
			</g>
		</g>
	</g>
	<g>
		<g>
			<g>
				<path class="st0" d="M94.7,46.2c0.4-0.2,0.8-0.5,1.2-0.8c1.2-0.7,2.2-0.1,2.7,1c0.7,1.5,0,3.3-1.6,3.8c-0.3,0.1-0.1,0.5,0.1,0.4
					c1.9-0.6,2.7-2.7,1.9-4.4c-0.3-0.8-1-1.6-1.9-1.7c-1-0.1-1.8,0.8-2.7,1.3C94.1,45.9,94.4,46.3,94.7,46.2L94.7,46.2z"/>
			</g>
		</g>
	</g>
	<g>
		<g>
			<g>
				<path class="st0" d="M40.4,68.5c0.8,0.7,1.9,0.8,2.9,0.8c0.3,0,0.3-0.5,0-0.4c-0.9,0-1.9,0-2.6-0.7
					C40.5,67.9,40.1,68.3,40.4,68.5L40.4,68.5z"/>
			</g>
		</g>
	</g>
	<g>
		<g>
			<g>
				<path class="st0" d="M42.9,65.3c0.9,0.6,1.3,1.6,1.1,2.7c-0.1,0.3,0.4,0.4,0.4,0.1c0.3-1.2-0.2-2.5-1.3-3.2
					C42.9,64.7,42.7,65.1,42.9,65.3L42.9,65.3z"/>
			</g>
		</g>
	</g>
	<g>
		<g>
			<g>
				<path class="st0" d="M101.9,76.3c0.7-0.6,1.8-0.6,2.5,0.1c0.2,0.2,0.6-0.1,0.3-0.3c-0.9-0.9-2.2-0.9-3.2-0.1
					C101.3,76.2,101.7,76.5,101.9,76.3L101.9,76.3z"/>
			</g>
		</g>
	</g>
	<g>
		<g>
			<g>
				<path class="st0" d="M101.2,76.4c-0.5,0.9-0.7,2-0.3,3c0.3,0.7,1,1.3,1.8,1c0.3-0.1,0.1-0.5-0.1-0.4c-0.8,0.2-1.3-0.7-1.4-1.3
					c-0.1-0.7,0.1-1.3,0.4-2C101.8,76.4,101.4,76.2,101.2,76.4L101.2,76.4z"/>
			</g>
		</g>
	</g>
	<g>
		<g>
			<g>
				<path class="st0" d="M61.7,50.5c2.2,0.3,4,1.5,5.1,3.4c0.1,0.3,0.6,0,0.4-0.2C66,51.6,64,50.3,61.7,50
					C61.4,49.9,61.4,50.4,61.7,50.5L61.7,50.5z"/>
			</g>
		</g>
	</g>
	<g>
		<g>
			<g>
				<path class="st0" d="M84.1,51.4c1.8,1.3,2.9,3.4,3.1,5.6c0,0.3,0.5,0.3,0.4,0c-0.2-2.4-1.4-4.6-3.3-6
					C84.1,50.8,83.9,51.2,84.1,51.4L84.1,51.4z"/>
			</g>
		</g>
	</g>
	<g>
		<g>
			<g>
				<path class="st0" d="M84.7,65c1.4-1.7,2.6-3.6,3.4-5.7c0.1-0.3-0.3-0.4-0.4-0.1c-0.8,2-1.9,3.8-3.3,5.5
					C84.2,64.9,84.5,65.2,84.7,65L84.7,65z"/>
			</g>
		</g>
	</g>
	<g>
		<g>
			<g>
				<path class="st0" d="M65.8,65.9c0.9-0.6,1.5-1.5,1.8-2.6c0.1-0.3-0.4-0.4-0.4-0.1c-0.2,0.9-0.8,1.7-1.6,2.3
					C65.3,65.7,65.5,66.1,65.8,65.9L65.8,65.9z"/>
			</g>
		</g>
	</g>
	<g>
		<g>
			<g>
				<path class="st0" d="M82.1,53.3c0.1,1.1,0.6,2.5,1.5,3.2c0.9,0.7,1.3-0.5,1.3-1.2c-0.1-1-0.6-2.4-1.6-2.8
					c-0.3-0.1-0.6-0.1-0.8,0.1c-0.4,0.4-0.2,1,0,1.4c0.1,0.3,0.5,0,0.4-0.2c0-0.8,0.1-1,0.4-0.7c0,0.1,0.1,0.1,0.1,0.2
					c0.2,0.2,0.4,0.4,0.5,0.7c0.3,0.5,0.4,1.1,0.4,1.7c0,0.5-0.5,0.5-0.8,0.2c-0.2-0.2-0.4-0.5-0.5-0.8c-0.3-0.6-0.4-1.2-0.5-1.8
					C82.5,53,82,53,82.1,53.3L82.1,53.3z"/>
			</g>
		</g>
	</g>
	<g>
		<g>
			<g>
				<path class="st0" d="M64,53.9c0.1,0.7,0.4,1.3,1,1.7c0.6,0.4,1.2-0.1,1.1-0.7c-0.1-0.6-0.6-1.4-1.2-1.6c-0.6-0.1-1.1,0.3-1,0.9
					c0,0.3,0.5,0.2,0.4-0.1c0-0.3,0.4-0.3,0.5-0.2c0.1,0.1,0.3,0.2,0.3,0.3c0.1,0.2,0.4,0.6,0.4,0.9c0,0.6-0.6,0.1-0.8-0.1
					c-0.2-0.3-0.4-0.6-0.4-0.9C64.4,53.6,63.9,53.6,64,53.9L64,53.9z"/>
			</g>
		</g>
	</g>
	<g>
		<g>
			<g>
				<path class="st0" d="M37.1,69.2c1.5-0.4,2.8-1.5,3.5-2.9c0.1-0.3-0.3-0.5-0.4-0.2c-0.7,1.3-1.8,2.2-3.2,2.7
					C36.7,68.9,36.8,69.3,37.1,69.2L37.1,69.2z"/>
			</g>
		</g>
	</g>
	<g>
		<g>
			<g>
				<path class="st0" d="M42.8,62.2c0,0.6-0.3,1.1-0.7,1.5c-0.2,0.2,0.1,0.6,0.3,0.3c0.5-0.5,0.7-1.2,0.8-1.9
					C43.3,61.9,42.8,61.9,42.8,62.2L42.8,62.2z"/>
			</g>
		</g>
	</g>
	<g>
		<g>
			<g>
				<path class="st0" d="M103.6,82.4c0.1-1.1-0.1-2.5,0.6-3.5c0.1-0.3-0.3-0.5-0.4-0.2c-0.7,1.1-0.6,2.5-0.6,3.7
					C103.1,82.7,103.6,82.7,103.6,82.4L103.6,82.4z"/>
			</g>
		</g>
	</g>
	<g>
		<g>
			<g>
				<path class="st0" d="M106.1,75.3c-0.6,0.3-1.1,0.9-1.3,1.6c-0.1,0.3,0.4,0.4,0.4,0.1c0.1-0.6,0.5-1,1.1-1.3
					C106.6,75.6,106.4,75.1,106.1,75.3L106.1,75.3z"/>
			</g>
		</g>
	</g>
	<g>
		<g>
			<g>
				<path class="st0" d="M68.5,75.1c-0.5,0.2-0.7,0.8-0.6,1.3c0.1,0.3,0.7,1,1.1,0.7c0.2-0.1,0.4-0.5,0.5-0.7c0.1-0.3,0.1-0.5,0-0.8
					C69.4,75.1,68.9,74.8,68.5,75.1c-0.3,0.2,0,0.6,0.2,0.4c0.3-0.2,0.5,0.1,0.5,0.4c0,0.3-0.3,0.6-0.5,0.9c0.1,0,0.1,0,0.2-0.1
					c-0.7-0.1-0.8-0.9-0.2-1.2C69,75.3,68.7,75,68.5,75.1L68.5,75.1z"/>
			</g>
		</g>
	</g>
	<g>
		<g>
			<g>
				<path class="st0" d="M72.4,75.7c-0.6-0.1-1,0.8-0.5,1.2c0.1,0,0.1,0,0.2,0c0.2-0.1,0.4-0.2,0.6-0.3c0.1,0,0.1-0.2,0.1-0.3
					c-0.1-0.3-0.3-0.5-0.5-0.7S71.8,75.8,72,76c0.1,0.1,0.3,0.3,0.4,0.5c0-0.1,0.1-0.2,0.1-0.3c-0.2,0.1-0.4,0.2-0.6,0.3
					c0.1,0,0.1,0,0.2,0c-0.1-0.1,0-0.3,0.1-0.3C72.5,76.2,72.7,75.8,72.4,75.7L72.4,75.7z"/>
			</g>
		</g>
	</g>
	<g>
		<g>
			<g>
				<path class="st0" d="M101.4,90.3c-1.5,0.6-2.1,1.9-2.3,3.4c-0.4,3,1.2,5.7-1.1,8.3c-1.9,2.2-4.4,3.8-7.1,5
					c-2.4,1-5.2,1.2-7.4,2.7c-0.1,0.1-0.1,0.3,0,0.4c2.3,2.7,7.8,0.3,10.4-0.7c1.9-0.7,3.9-1.5,5.5-2.8c0.4-0.3,0.8-0.6,0.9-1.1
					c0.5-1.5-1.2-4.3,2.1-3.9c0.3,0,0.4-0.4,0.1-0.4c-1.1-0.1-2.1,0.3-2.6,1.3c-0.2,0.5-0.1,0.8-0.1,1.4c-0.1,2.2-0.2,2.2-1.6,3
					c-0.6,0.3-1.2,0.6-1.8,0.9c-2.4,1.2-4.9,2.1-7.5,2.6c-1,0.2-3.7,1-4.6,0c-0.8-1,2.2-1.5,2.9-1.7c4.1-1.1,8-3,10.9-6.2
					c1.2-1.2,1.7-2.6,1.6-4.3c0-2.4-1.3-6.3,1.7-7.5C101.8,90.6,101.7,90.2,101.4,90.3L101.4,90.3z"/>
			</g>
		</g>
	</g>
	<g>
		<g>
			<g>
				<path class="st0" d="M43.4,98.3c1,4.4,6.6,4.2,10.1,4.6c2.2,0.3,4.4,0.6,6.4-0.4c1.7-0.9,3.9-3.5,6-3.2c1.2,1.6,1.2,2.7,0.1,3.1
					c-0.2,0.1-0.5,0.2-0.7,0.3c-0.8,0.4-1.6,0.7-2.5,1c-1.3,0.5-2.5,1-3.8,1.4c-1.6,0.5-3.2,0.8-4.9,0.9c-1.2,0-2.5-0.1-3.7,0
					c-1,0.1-2.8,0.4-3,1.6c-0.1,0.4,0,0.7,0.3,1c0.3,0.4,0.7,0.4,1,0.7c0.9,0.3,0.7,1.1-0.3,2.4c-0.6,0-1.1-0.1-1.7-0.3
					c-0.3-0.1-0.4,0.4-0.1,0.4c1.2,0.3,3.7,0.7,3.8-1.3c0-0.6-0.3-1-0.8-1.3c-0.3-0.1-0.6-0.3-0.8-0.4c0-0.6-0.1-1.2-0.1-1.9
					c0.4-0.7,2.2-0.6,3-0.6c2.9,0,5.5-0.1,8.3-1c1.5-0.5,3-1.1,4.4-1.7c1-0.4,2.2-0.8,3-1.5c1-1,1.1-2.5-0.3-3.2
					c-1.7-0.7-3.7,0.6-5,1.6c-1,0.7-2.1,1.6-3.3,1.9c-1.6,0.5-3.4,0.1-5.1-0.1c-3.3-0.4-8.7-0.2-9.6-4.3
					C43.8,97.9,43.3,98,43.4,98.3L43.4,98.3z"/>
			</g>
		</g>
	</g>
	<g>
		<g>
			<g>
				<path class="st0" d="M44.5,105.9c1.3,0.3,2.5-0.1,3.5-0.9c0.1-0.1,0.1-0.3,0-0.3c-0.6-0.6-1.2-1-1.9-1.4c-0.3-0.1-0.6-0.3-1-0.3
					c-0.1,0-0.3-0.1-0.4-0.1c-0.1,0-0.1,0-0.3,0c-0.2-0.1-0.4,0-0.4,0.2c-0.1-0.1-0.1-0.1-0.2-0.2c0,0,0,0,0,0.1
					c0,0.3,0.4,0.3,0.4,0c0,0,0,0,0-0.1c0-0.1-0.1-0.2-0.2-0.2c-0.5-0.1-0.6,0.4-0.2,0.7c0.2,0.1,0.5,0.1,0.7,0.1
					c0.4,0.1,0.7,0.1,1.1,0.3c0.7,0.3,1.4,0.7,1.9,1.3c0-0.1,0-0.2,0-0.3c-0.9,0.7-1.9,1-3.1,0.8C44.3,105.4,44.2,105.8,44.5,105.9
					L44.5,105.9z"/>
			</g>
		</g>
	</g>
	<g>
		<g>
			<g>
				<path class="st0" d="M51.8,97.9c-0.4,0.4-1.6,0.4-1.4,1.3c0.1,0.6,1.3,0.8,1.8,0.7c0.6-0.1,1-0.8,0.8-1.3
					c-0.2-0.5-0.9-0.7-1.3-0.3c-0.2,0.2,0.1,0.6,0.3,0.3c0.3-0.4,0.7,0.2,0.5,0.6c-0.3,0.4-0.8,0.4-1.2,0.2
					c-0.2-0.1-0.6-0.1-0.4-0.5c0.1-0.1,0.3-0.2,0.5-0.3c0.3-0.1,0.5-0.2,0.7-0.4C52.3,98,52,97.6,51.8,97.9L51.8,97.9z"/>
			</g>
		</g>
	</g>
	<g>
		<g>
			<g>
				<path class="st0" d="M53.1,100.9c1,0.1,1.9,0,2.9-0.2c0.3-0.1,0.2-0.5-0.1-0.4c-0.9,0.2-1.9,0.3-2.8,0.2
					C52.8,100.4,52.8,100.9,53.1,100.9L53.1,100.9z"/>
			</g>
		</g>
	</g>
	<g>
		<g>
			<g>
				<path class="st0" d="M58,100.7c-0.7-0.2-1.5,0-2,0.4c-0.1,0.1-0.1,0.3,0,0.4c0.8,0.4,1.8,0.4,2.6-0.1c0.2-0.1,0.1-0.3,0-0.4
					c-0.3-0.1-0.7-0.3-1-0.4c-0.3-0.1-0.4,0.3-0.1,0.4c0.3,0.1,0.7,0.3,1,0.4c0-0.1,0-0.3,0-0.4c-0.6,0.4-1.4,0.4-2.1,0.1
					c0,0.1,0,0.3,0,0.4c0.4-0.4,1-0.5,1.5-0.3C58.1,101.2,58.2,100.8,58,100.7L58,100.7z"/>
			</g>
		</g>
	</g>
	<g>
		<g>
			<g>
				<path class="st0" d="M60.4,99.8c-0.4-0.1-0.8,0-1,0.3c-0.1,0.1,0,0.2,0,0.3c0.3,0.3,0.9,0.3,1.2,0c0.2-0.2-0.1-0.6-0.3-0.3
					c-0.1,0.1-0.4,0.1-0.5,0c0,0.1,0,0.2,0,0.3c0.1-0.2,0.3-0.2,0.5-0.1C60.6,100.4,60.7,99.9,60.4,99.8L60.4,99.8z"/>
			</g>
		</g>
	</g>
	<g>
		<g>
			<g>
				<path class="st0" d="M63.9,97.6c2.5-0.5,4.9-0.6,7.4-0.4c0.3,0,0.3-0.4,0-0.4c-2.5-0.3-5-0.1-7.5,0.4
					C63.5,97.1,63.6,97.6,63.9,97.6L63.9,97.6z"/>
			</g>
		</g>
	</g>
	<g>
		<g>
			<g>
				<path class="st0" d="M74,99.6c2.3-0.4,4.6-0.4,6.9-0.1c0.3,0,0.4-0.4,0.1-0.4c-2.4-0.3-4.8-0.3-7.1,0.1
					C73.6,99.2,73.7,99.7,74,99.6L74,99.6z"/>
			</g>
		</g>
	</g>
	<g>
		<g>
			<g>
				<path class="st0" d="M79.6,100.7c-0.3,0.1-0.6,0.2-0.7,0.4c-0.1,0.1-0.1,0.3,0.1,0.4c0.7,0.3,1.5,0.3,2.2,0
					c0.2-0.1,0.2-0.3,0.1-0.4c-0.3-0.4-0.9-0.4-1.3-0.2c-0.3,0.1,0,0.6,0.2,0.4s0.6-0.1,0.7,0.1c0-0.1,0.1-0.3,0.1-0.4
					c-0.7,0.2-1.3,0.2-2,0c0,0.1,0.1,0.3,0.1,0.4c0.1-0.2,0.3-0.3,0.6-0.3C80.1,101.1,79.9,100.6,79.6,100.7L79.6,100.7z"/>
			</g>
		</g>
	</g>
	<g>
		<g>
			<g>
				<path class="st0" d="M84.6,101.6c-0.5-0.1-1,0-1.5,0.3c-0.1,0.1-0.1,0.3,0,0.4c0.3,0.2,0.7,0.1,0.9-0.1c0.2-0.2-0.1-0.5-0.3-0.3
					c-0.1,0.1-0.2,0.1-0.4,0c0,0.1,0,0.3,0,0.4c0.3-0.2,0.7-0.3,1.1-0.3C84.8,102.1,84.9,101.6,84.6,101.6L84.6,101.6z"/>
			</g>
		</g>
	</g>
	<g>
		<g>
			<g>
				<path class="st0" d="M86.6,103.2c0.2-0.1,0.3-0.1,0.5-0.2c0.2-0.1,0.2-0.4,0-0.4c-0.7-0.2-1.9-0.3-2.1,0.7
					c-0.1,0.9,0.8,1,1.5,0.9c0.6-0.1,1.5-0.3,1.5-1.1c-0.1-0.5-0.8-1-1.2-0.5c-0.2,0.2,0.1,0.6,0.3,0.3c0.1-0.2,0.4,0.1,0.4,0.2
					c0,0.2-0.2,0.3-0.3,0.4c-0.3,0.1-0.6,0.2-0.9,0.2c-0.4,0-1.2-0.1-0.6-0.7c0.3-0.3,0.9-0.2,1.3-0.1c0-0.1,0-0.3,0-0.4
					c-0.2,0.1-0.3,0.1-0.5,0.2C86.1,102.8,86.3,103.3,86.6,103.2L86.6,103.2z"/>
			</g>
		</g>
	</g>
	<g>
		<g>
			<g>
				<path class="st0" d="M60.3,108.3c-0.4-0.5-1.3-0.2-1.6,0.4c-0.3,0.7,0.4,1.3,1,1.4c0.7,0.1,1.7-0.4,1.6-1.2
					c-0.1-0.7-1-1-1.3-0.4c-0.2,0.3,0.2,0.5,0.4,0.2c0.2-0.2,0.5,0,0.5,0.2c0,0.2-0.2,0.5-0.4,0.6c-0.3,0.1-0.6,0.2-0.9,0
					c-0.3-0.1-0.6-0.4-0.4-0.7c0.1-0.3,0.6-0.4,0.8-0.2C60.2,108.8,60.6,108.5,60.3,108.3L60.3,108.3z"/>
			</g>
		</g>
	</g>
	<g>
		<g>
			<g>
				<path class="st0" d="M35.4,60.3c-0.8-1.1-0.8-1.9,0-2.5c0.3-0.3,0.6-0.4,0.9-0.5c1.5-0.2,1.2,0.6,1.7,1.2
					c0.2,0.3,0.5,0.4,0.8,0.4c0.6,0.1,1.1-0.1,1.6-0.1c0.1,0,0.2,0,0.3,0c0.9,1.5,0.6,2.2-0.9,2.1c-0.5,0-1,0-1.6,0
					c-0.3,0-0.3,0.5,0,0.4c1.2,0,4.4,0.1,3.9-2.1c-0.4-1.9-3.2-0.2-4.1-1.4c-0.4-0.6-0.4-1-1.2-1.2c-0.7-0.1-1.6,0.3-2.1,0.7
					c-1,0.9-1.1,2.7,0.4,3.1C35.5,60.8,35.7,60.4,35.4,60.3L35.4,60.3z"/>
			</g>
		</g>
	</g>
	<g>
		<g>
			<g>
				<path class="st0" d="M34.8,61.7c-1.4-0.6-2.8-1.6-2.7-3.4c0.1-2.1,2.3-3.4,4.2-2.5c1.5,0.7,2,2.7,3.8,2.9c0.3,0,0.3-0.4,0-0.4
					c-1.6-0.1-2.2-2.3-3.7-2.9c-1.2-0.5-2.6-0.4-3.6,0.4c-1,0.8-1.4,2.1-1.2,3.2c0.3,1.6,1.5,2.5,2.9,3.1
					C34.8,62.3,35.1,61.9,34.8,61.7L34.8,61.7z"/>
			</g>
		</g>
	</g>
	<g>
		<g>
			<g>
				<path class="st0" d="M46.6,81.6c-10.9,2.5-21.5,5.8-31.8,10c-0.3,0.1-0.1,0.6,0.1,0.4c10.3-4.2,20.9-7.6,31.8-10
					C47,82.1,46.9,81.6,46.6,81.6L46.6,81.6z"/>
			</g>
		</g>
	</g>
	<g>
		<g>
			<g>
				<path class="st0" d="M94.4,82.6c12.4,2.7,24.7,6.2,36.7,10.3c0.3,0.1,0.4-0.3,0.1-0.4c-12-4.2-24.3-7.6-36.7-10.3
					C94.2,82.1,94.1,82.5,94.4,82.6L94.4,82.6z"/>
			</g>
		</g>
	</g>
	<g>
		<path class="st0" d="M19.8,75.5c-2.1,0-3.8-1.7-3.8-3.8c0-2.1,1.7-3.8,3.8-3.8s3.8,1.7,3.8,3.8C23.6,73.7,21.9,75.5,19.8,75.5z
			 M19.8,67.9c-2.1,0-3.7,1.7-3.7,3.7s1.7,3.7,3.7,3.7s3.7-1.7,3.7-3.7S21.9,67.9,19.8,67.9z"/>
	</g>
	<g>
		<path class="st0" d="M25.4,42.3c-1.7,0-3.1-1.4-3.1-3.1s1.4-3.1,3.1-3.1s3.1,1.4,3.1,3.1S27.1,42.3,25.4,42.3z M25.4,36.2
			c-1.7,0-3,1.4-3,3c0,1.7,1.4,3,3,3s3-1.4,3-3C28.4,37.6,27.1,36.2,25.4,36.2z"/>
	</g>
	<g>
		<path class="st0" d="M70,40.9c-0.7,0-1.4-0.6-1.4-1.4s0.6-1.4,1.4-1.4c0.7,0,1.4,0.6,1.4,1.4S70.8,40.9,70,40.9z M70,38.3
			c-0.7,0-1.3,0.6-1.3,1.3c0,0.7,0.6,1.3,1.3,1.3c0.7,0,1.3-0.6,1.3-1.3C71.3,38.8,70.7,38.3,70,38.3z"/>
	</g>
	<g>
		<path class="st0" d="M122.1,65.7c-3.7,0-6.7-3-6.7-6.7c0-3.7,3-6.7,6.7-6.7c3.7,0,6.7,3,6.7,6.7C128.8,62.7,125.8,65.7,122.1,65.7
			z M122.1,52.5c-3.6,0-6.6,2.9-6.6,6.6s2.9,6.6,6.6,6.6s6.6-2.9,6.6-6.6S125.7,52.5,122.1,52.5z"/>
	</g>
	<g>
		<path class="st0" d="M125.7,81.5c-0.8,0-1.5-0.7-1.5-1.5s0.7-1.5,1.5-1.5s1.5,0.7,1.5,1.5S126.5,81.5,125.7,81.5z M125.7,78.6
			c-0.8,0-1.4,0.6-1.4,1.4c0,0.8,0.6,1.4,1.4,1.4s1.4-0.6,1.4-1.4C127.1,79.2,126.5,78.6,125.7,78.6z"/>
	</g>
	<g>
		<path class="st0" d="M13,49.6l-0.6-1.2l-1.3-0.2l0.9-0.9L11.8,46l1.2,0.6l1.2-0.6l-0.2,1.3l1,0.9l-1.3,0.2L13,49.6z M11.3,48.1
			l1.2,0.1l0.6,1.1l0.5-1.1l1.2-0.2l-0.9-0.8l0.2-1.2L13,46.7l-1.1-0.5l0.2,1.2L11.3,48.1z"/>
	</g>
	<g>
		<path class="st0" d="M52.1,40.6l-1-3.6l-3.5-1.3l3.1-2l0.1-3.7l2.9,2.4l3.6-1.1l-1.3,3.5l2.1,3l-3.7-0.2L52.1,40.6z M47.8,35.7
			l3.4,1.2l1,3.5l2.2-2.9l3.6,0.2l-2-2.9l0,0l1.3-3.3l-3.4,1l0,0l-2.8-2.3l-0.1,3.6L47.8,35.7z"/>
	</g>
	<g>
		<path class="st0" d="M106.2,65.4l-0.4-0.9l-1-0.2l0.8-0.6l-0.1-1l0.8,0.5l0.9-0.4l-0.2,1l0.6,0.8l-1,0.1L106.2,65.4z M105.1,64.2
			l0.8,0.2l0.3,0.8l0.4-0.8l0.9-0.1l-0.6-0.7l0.2-0.8l-0.8,0.3l-0.7-0.4l0.1,0.9L105.1,64.2z"/>
	</g>
	<g>
		<path class="st0" d="M108.1,48.2l-1.5-6.6l-6.3-2.5l5.8-3.5l0.4-6.8l5.1,4.5l6.6-1.7l0,0.1l-2.6,6.2l3.7,5.7l-6.8-0.6L108.1,48.2z
			 M100.5,39.1l6.2,2.4l1.5,6.5l4.2-5.2l6.7,0.6l-3.6-5.6l0,0l2.6-6.1l-6.4,1.7l0,0l-5-4.3l-0.4,6.7l0,0L100.5,39.1z"/>
	</g>
</g>
</svg>
