<?xml version="1.0" encoding="utf-8"?>
<!-- Generator: Adobe Illustrator 24.0.1, SVG Export Plug-In . SVG Version: 6.00 Build 0)  -->
<svg version="1.1" id="Layer_1" xmlns="http://www.w3.org/2000/svg" xmlns:xlink="http://www.w3.org/1999/xlink" x="0px" y="0px"
	 viewBox="0 0 141.7 141.7" style="enable-background:new 0 0 141.7 141.7;" xml:space="preserve">
<style type="text/css">
	.st0{fill:#070707;}
</style>
<g id="Layer_1_1_">
</g>
<g>
	<g>
		<g>
			<g>
				<g>
					<path d="M80.5,76.3c1.1,4.2,2.2,8.3,3.4,12.5c0.1,0.3-0.4,0.4-0.5,0.1c-1.1-4.2-2.2-8.3-3.4-12.5C80,76.2,80.4,76,80.5,76.3
						L80.5,76.3z"/>
				</g>
				<g>
					<path d="M48.9,80.1c0.9,7,1.9,14,2.9,20.9c0,0.3-0.4,0.4-0.5,0.1c-1.1-7-2-14-2.9-21C48.3,79.8,48.8,79.8,48.9,80.1L48.9,80.1z
						"/>
				</g>
				<g>
					<path d="M43.6,82.7c0.7,6.9,1.5,13.7,2.2,20.6c0,0.3-0.5,0.3-0.5,0c-0.7-6.9-1.5-13.7-2.2-20.6C43.1,82.3,43.6,82.3,43.6,82.7
						L43.6,82.7z"/>
				</g>
				<g>
					<path d="M76.8,73.2c-7.8-0.2-15.6,0.2-23.4,1.1c-0.3,0-0.3-0.5,0-0.5c7.8-0.9,15.6-1.2,23.4-1.1C77.2,72.7,77.2,73.2,76.8,73.2
						L76.8,73.2z"/>
				</g>
				<g>
					<path d="M46.2,76L46.2,76c-0.1,0-0.2-0.1-0.2-0.2c0,0-0.1,0-0.1,0.1c0,0.1,0,0.1,0,0.2c0,0,0,0,0,0c0,0,0.1,0.1,0.1,0.1
						c0.1,0,0.1,0,0,0c-0.1,0-0.1,0.1-0.2,0.2c-0.1,0.1-0.2,0.2-0.3,0.2c-0.3,0.2-0.5,0.4-0.8,0.6c-0.3,0.2-0.5-0.2-0.3-0.4
						c0.3-0.2,0.6-0.4,0.9-0.7c0.2-0.1,0.4-0.4,0.7-0.4c0.4,0,0.4,0.6,0,0.6c-0.1,0-0.2-0.1-0.2-0.2v0C45.6,75.8,46.1,75.7,46.2,76
						L46.2,76z"/>
				</g>
				<g>
					<path d="M46,76.4C46,76.4,46,76.4,46,76.4c-0.1,0-0.2-0.1-0.2-0.2c0-0.2,0-0.2,0.1-0.4c0-0.1,0.2-0.1,0.3-0.1
						c0.3,0.1,0.3,0.2,0.5,0.4c0.3,0.4,0.5,0.8,0.8,1.2c0.5,0.8,1.1,1.6,1.6,2.4c-0.1,0-0.3,0-0.4,0c0.5-1,1.4-1.9,2.1-2.7
						c0.9-1,1.7-2.1,2.6-3.1c0.2-0.3,0.6,0.1,0.4,0.4c-0.8,1-1.6,1.9-2.4,2.9c-0.8,0.9-1.7,1.8-2.2,2.8c-0.1,0.2-0.4,0.1-0.4,0
						c-0.4-0.6-0.8-1.3-1.2-1.9c-0.2-0.3-0.4-0.6-0.6-0.8c-0.1-0.2-0.2-0.4-0.4-0.5c-0.1-0.1-0.6-1-0.2-0.9
						C46.5,75.9,46.3,76.4,46,76.4L46,76.4z"/>
				</g>
				<g>
					<path d="M53.4,74.3c-2.6-0.5-5.3,0.2-7.3,1.9c-0.3,0.2-0.6-0.1-0.4-0.4c2.2-1.8,5-2.6,7.8-2C53.9,73.9,53.7,74.3,53.4,74.3
						L53.4,74.3z"/>
				</g>
				<g>
					<path d="M48.3,74.6c0.2,1.7,0.4,3.3,0.7,5c0,0.3-0.4,0.4-0.5,0.1c-0.3-1.7-0.5-3.4-0.7-5.1C47.8,74.3,48.3,74.3,48.3,74.6
						L48.3,74.6z"/>
				</g>
				<g>
					<path d="M44.7,77.1c-0.3,1.9-0.7,3.8-1.1,5.7c-0.1,0.3-0.4,0.2-0.5,0c-0.5-1.6-0.8-3.2-1-4.8c0-0.1,0-0.2,0.1-0.2
						c0.7-0.4,1.3-0.7,2-1.1c0.3-0.2,0.5,0.3,0.3,0.4c-0.5,0.3-1,0.5-1.5,0.8c-0.4,0.2-0.4,0.4-0.4,0.8c0,0.3,0.1,0.5,0.1,0.8
						c0.2,1.1,0.4,2.2,0.8,3.2c-0.2,0-0.3,0-0.5,0c0.5-1.8,0.8-3.7,1.1-5.5C44.3,76.8,44.8,76.8,44.7,77.1L44.7,77.1z"/>
				</g>
				<g>
					<path d="M83.8,89c-0.3,1.2-0.5,2.5-0.8,3.7c-0.1-0.1-0.3-0.2-0.4-0.3c0.8-0.4,1.7-0.6,2.5-0.8c0,0.1-0.1,0.2-0.2,0.4
						c-0.2-0.5-0.5-1-0.7-1.5c-0.1-0.2-0.2-0.5-0.3-0.7c0-0.1-0.1-0.2-0.2-0.4c-0.2-0.2-0.1-0.4,0.1-0.5c-0.1-0.1-0.2-0.1-0.2-0.2
						c0,0,0,0,0,0c0.3,0,0.3,0.5,0,0.5c0,0,0,0,0,0c-0.1,0-0.2-0.1-0.2-0.2c0-0.2,0-0.2,0.1-0.4c0-0.1,0.2-0.1,0.3-0.1
						c0.4,0.2,0.6,0.7,0.7,1.1c0.3,0.7,0.6,1.3,0.9,2c0.1,0.1,0,0.3-0.2,0.4c-0.8,0.2-1.6,0.4-2.4,0.8c-0.2,0.1-0.4,0-0.4-0.3
						c0.2-1.2,0.5-2.5,0.8-3.7C83.4,88.6,83.9,88.7,83.8,89L83.8,89z"/>
				</g>
				<g>
					<path d="M80.5,77c-1.3-1.3-2.6-2.7-3.9-4c-0.2-0.2,0-0.4,0.2-0.4c0.7-0.1,1.5-0.1,2.2-0.1c0.4,0,0.8,0,1.1,0.3
						c0.3,0.4,0.4,1.2,0.5,1.8c0.2,0.8,0.3,1.5,0.4,2.3c0,0.2-0.2,0.4-0.4,0.3c-0.1,0-0.2-0.1-0.3-0.2c-0.3-0.2,0-0.6,0.3-0.4
						c0.1,0,0.2,0.1,0.3,0.2c-0.1,0.1-0.3,0.2-0.4,0.3c-0.2-1.1-0.4-2.2-0.7-3.2c-0.1-0.4-0.1-0.6-0.5-0.7c-0.2-0.1-0.5,0-0.8,0
						c-0.6,0-1.2,0-1.8,0.1c0.1-0.1,0.1-0.3,0.2-0.4c1.3,1.3,2.6,2.7,3.9,4C81.1,76.8,80.7,77.2,80.5,77L80.5,77z"/>
				</g>
				<g>
					<path d="M82.7,92.9c-9.1,3.7-18.2,7.3-27.3,11c-0.3,0.1-0.4-0.4-0.1-0.5c9.1-3.7,18.2-7.3,27.3-11
						C82.9,92.3,83.1,92.8,82.7,92.9L82.7,92.9z"/>
				</g>
				<g>
					<path d="M52,101.4c0.1,0.4,0.2,0.8,0.3,1.3c0,0.3,0.1,0.5,0.2,0.8c0,0.2,0,0.5,0.1,0.6c0,0.1,0,0.2,0.2,0.1
						c0.1,0,0.3-0.1,0.4-0.1c0.2,0,0.4-0.1,0.6-0.2c0.5-0.1,0.9-0.2,1.4-0.4c0,0.1,0,0.3-0.1,0.4c-1.2-0.8-2.3-1.7-3.3-2.7
						c-0.2-0.2,0.1-0.6,0.4-0.4c0.9,1,2,1.9,3.2,2.7c0.2,0.1,0.2,0.4-0.1,0.4c-0.7,0.2-1.3,0.4-2,0.5c-0.3,0.1-0.7,0.3-0.9,0.1
						c-0.3-0.2-0.3-0.8-0.4-1.1c-0.1-0.7-0.3-1.4-0.4-2C51.4,101.2,51.9,101.1,52,101.4L52,101.4z"/>
				</g>
				<g>
					<path d="M52.2,104.7c-2.2-0.3-4.4-0.6-6.7-0.8c-0.3,0-0.3-0.5,0-0.5c2.3,0.2,4.6,0.5,6.8,0.8C52.7,104.3,52.6,104.8,52.2,104.7
						L52.2,104.7z"/>
				</g>
				<g>
					<path d="M51.4,101.4C51.4,101.4,51.4,101.4,51.4,101.4c-0.1,0-0.2-0.2-0.2-0.2c0-0.3,0.3-0.5,0.6-0.3c0.4,0.3-0.1,1-0.3,1.2
						c-0.1,0.3-1.1,2.7-1.6,1.8c-0.2-0.3,0.3-0.5,0.4-0.3c-0.1-0.1-0.1-0.2,0-0.3c0-0.1,0.1-0.2,0.2-0.3c0.1-0.2,0.2-0.4,0.3-0.6
						c0.1-0.2,0.2-0.4,0.3-0.6c0-0.1,0.1-0.2,0.2-0.3c0.1-0.2,0.2-0.4,0.5-0.4c0-0.1-0.1-0.1-0.1-0.2c0,0,0,0,0,0
						C52,101.1,51.8,101.6,51.4,101.4L51.4,101.4z"/>
				</g>
				<g>
					<path d="M47.3,104c-0.7-0.9-1.4-1.9-2-2.8c-0.2-0.3,0.3-0.5,0.4-0.3c0.7,1,1.3,1.9,2,2.8C47.9,104,47.5,104.3,47.3,104
						L47.3,104z"/>
				</g>
				<g>
					<path d="M45.7,76.8c0.6,9,1.2,17.9,1.8,26.8c0,0.3-0.5,0.3-0.5,0c-0.6-9-1.2-17.9-1.8-26.8C45.2,76.4,45.7,76.4,45.7,76.8
						L45.7,76.8z"/>
				</g>
				<g>
					<path d="M76.5,77.1c0.4,0,0.6,0.3,0.6,0.7c0,0.3,0,0.7-0.4,0.8c-0.4,0.1-0.6-0.2-0.7-0.5c-0.1-0.3,0-0.6,0.1-0.9
						c0.2-0.3,0.6,0,0.4,0.2c-0.1,0.2-0.2,0.4,0,0.6c0,0,0.1,0,0,0.1c0,0,0-0.1,0-0.2c0-0.1,0-0.3-0.1-0.3
						C76.2,77.6,76.2,77,76.5,77.1L76.5,77.1z"/>
				</g>
				<g>
					<path d="M72.6,77.7c0.3,0.2,0.5,0.6,0.4,1C73,79,72.6,79.2,72.3,79c-0.3-0.1-0.5-0.4-0.6-0.8c0-0.4,0.2-0.7,0.6-0.7
						c0.3,0,0.3,0.5,0,0.5c-0.2,0,0,0.5,0.2,0.5c0.1,0,0-0.1,0-0.2c0-0.2-0.1-0.3-0.3-0.4C72,77.8,72.4,77.4,72.6,77.7L72.6,77.7z"
						/>
				</g>
				<g>
					<path d="M62.6,78.9c0.3,0.1,0.4,0.4,0.5,0.7c0,0.3-0.1,0.6-0.4,0.6c-0.3,0.1-0.5-0.1-0.7-0.4c-0.1-0.3-0.1-0.6,0.1-0.9
						c0.2-0.3,0.6,0,0.4,0.2c-0.1,0.1-0.1,0.2-0.1,0.3c0,0,0,0.1,0,0.2c0,0,0.1,0,0,0c0,0,0-0.1,0-0.2c0-0.1-0.1-0.2-0.2-0.2
						C62.1,79.2,62.3,78.8,62.6,78.9L62.6,78.9z"/>
				</g>
				<g>
					<path d="M56.8,79.5c0.3,0.2,0.5,0.5,0.5,0.9c0,0.4-0.4,0.6-0.8,0.5c-0.3-0.1-0.6-0.4-0.6-0.7c0-0.3,0.2-0.7,0.5-0.7
						c0.3,0,0.4,0.4,0.1,0.5c-0.2,0-0.1,0.4,0,0.5c0.1,0,0.1,0,0.2-0.1c0-0.1-0.1-0.3-0.2-0.3C56.2,79.8,56.5,79.3,56.8,79.5
						L56.8,79.5z"/>
				</g>
				<g>
					<path d="M73.8,72.8c0.4,1.3,0.7,2.6,1,4c0,0.3-0.4,0.4-0.5,0.1c-0.2-1.3-0.5-2.7-1-4C73.3,72.6,73.7,72.5,73.8,72.8L73.8,72.8z
						"/>
				</g>
				<g>
					<path d="M72.5,72.9c0.3,1.2,0.7,2.5,1.1,3.7c0.1,0.3-0.4,0.4-0.5,0.1c-0.4-1.2-0.8-2.5-1.1-3.7C71.9,72.7,72.4,72.6,72.5,72.9
						L72.5,72.9z"/>
				</g>
				<g>
					<path d="M76.6,77.4c-0.4-0.9-1.7-0.3-2.4-0.3c-0.3,0-0.6-0.1-0.9-0.1c-0.6,0-1.2,0.4-1.4,1c-0.1,0.4,0,0.6,0.3,0.8
						c0.1,0.1,0.3,0.3,0.5,0.4c0.5,0.3,0.9,0.2,1.5,0c0.3-0.1,0.6-0.2,0.9-0.2c0.4,0,1.9,0.2,1.8-0.7c-0.1-0.3,0.4-0.4,0.5-0.1
						c0.3,1.6-1.9,1.2-2.9,1.5c-0.6,0.2-1.2,0.4-1.9,0.1c-0.5-0.2-1.1-0.7-1.3-1.2c-0.4-1.1,1.1-2.1,2.1-2c0.4,0,0.8,0.1,1.2,0.1
						c0.4,0,0.8-0.1,1.1-0.1c0.6,0,1.1,0.2,1.3,0.7C77.2,77.5,76.7,77.8,76.6,77.4L76.6,77.4z"/>
				</g>
				<g>
					<path d="M75.7,79.4c0.2,0.6,0.5,1.1,0.8,1.6c0.3,0.4,0.8,0.7,1,1.1c0.3,0.5,0.1,1-0.5,1.1c-0.7,0.1-1.5-0.6-1.9-1.1
						c-0.6-0.7-0.9-1.6-1.2-2.4c-0.1-0.3,0.4-0.4,0.5-0.1c0.2,0.6,0.4,1.2,0.8,1.7c0.2,0.3,0.4,0.5,0.6,0.8c0.1,0.1,0.2,0.2,0.3,0.3
						c0.3,0.2,0.4,0.4,0.7,0.2c0.4-0.2,0.2-0.2,0-0.4c-0.1-0.1-0.2-0.2-0.3-0.3c-0.2-0.2-0.3-0.4-0.5-0.6c-0.4-0.5-0.6-1-0.8-1.6
						C75.2,79.2,75.7,79,75.7,79.4L75.7,79.4z"/>
				</g>
				<g>
					<path d="M76.5,82.3c-0.3,0.1-0.4-0.4-0.1-0.5C76.7,81.7,76.8,82.2,76.5,82.3L76.5,82.3z"/>
				</g>
				<g>
					<path d="M75.8,81.4c-0.3,0.1-0.4-0.4-0.1-0.5C76,80.8,76.1,81.3,75.8,81.4L75.8,81.4z"/>
				</g>
				<g>
					<path d="M75.2,80.3c-0.3,0.1-0.4-0.4-0.1-0.5C75.4,79.7,75.6,80.2,75.2,80.3L75.2,80.3z"/>
				</g>
				<g>
					<path d="M73.9,76.5c-0.3,0.1-0.4-0.4-0.1-0.5C74.1,75.9,74.2,76.4,73.9,76.5L73.9,76.5z"/>
				</g>
				<g>
					<path d="M73.7,75.7C73.7,75.7,73.7,75.7,73.7,75.7c-0.2,0-0.3,0-0.4-0.1c0-0.1,0-0.3,0.2-0.3c0,0,0,0,0,0c0.1,0,0.3,0,0.3,0.2
						C73.9,75.5,73.8,75.6,73.7,75.7L73.7,75.7z"/>
				</g>
				<g>
					<path d="M76.5,82.7c1.2,3.7,2.2,7.4,3,11.2c0.1,0.3-0.4,0.4-0.5,0.1c-0.8-3.8-1.8-7.5-3-11.2C75.9,82.5,76.4,82.4,76.5,82.7
						L76.5,82.7z"/>
				</g>
				<g>
					<path d="M74.1,79.6c1.1,5.1,3.1,9.9,3.8,15.1c0,0.3-0.5,0.3-0.5,0c-0.6-5.1-2.7-9.9-3.8-15C73.5,79.4,74,79.3,74.1,79.6
						L74.1,79.6z"/>
				</g>
				<g>
					<path d="M63.1,80c-0.3,0.6-0.5,1.7-1.3,1.9c-0.4,0.1-0.9-0.1-1.3-0.1c-0.7,0-1.3,0.2-2,0.4c-0.8,0.4-1.5,0.3-2.2-0.1
						c-0.6-0.3-1.8-0.8-2-1.5c-0.1-0.6,0.9-1.4,1.3-1.7c0.8-0.6,1.5-0.6,2.4-0.7c1.4,0,4.3-1.1,4.8,0.9c0.1,0.3-0.4,0.4-0.5,0.1
						c-0.4-1.6-2.9-0.6-4.1-0.6c-0.8,0-1.5,0-2.2,0.5c-0.3,0.2-0.5,0.5-0.8,0.8c-0.3,0.4-0.5,0.6,0,1c0.5,0.4,1.2,0.8,1.9,1
						c0.8,0.2,1.5-0.4,2.3-0.6c0.5-0.1,1.1-0.1,1.6,0c0.4,0.1,0.7,0.1,1-0.3c0.2-0.3,0.4-0.8,0.6-1.2C62.8,79.5,63.3,79.7,63.1,80
						L63.1,80z"/>
				</g>
				<g>
					<path d="M60.7,81.6c0.1,0.7,0.3,1.3,0.5,1.9c0.2,0.6,0.6,1.2,0.7,1.8c0.1,0.8-0.6,1-1.2,0.9c-0.5-0.1-1-0.3-1.4-0.5
						c-0.3-0.2-0.4-0.6-0.5-0.9c-0.2-0.6-0.4-1.3-0.5-1.9c-0.1-0.3-0.2-0.6,0-0.9c0.2-0.2,0.6,0.1,0.4,0.4c-0.1,0.1,0.2,0.8,0.2,0.9
						c0.1,0.3,0.2,0.6,0.3,0.9c0.1,0.3,0.1,0.7,0.3,1c0.2,0.3,0.9,0.6,1.3,0.6c0.3,0,0.5-0.4,0.5-0.7c0-0.1-0.1-0.3-0.2-0.4
						c-0.1-0.3-0.2-0.6-0.3-0.8c-0.2-0.7-0.4-1.3-0.5-2C60.1,81.4,60.6,81.3,60.7,81.6L60.7,81.6z"/>
				</g>
				<g>
					<path d="M59.2,73.5c0.4,1.5,0.7,3,1,4.6c0,0.3-0.4,0.4-0.5,0.1c-0.2-1.6-0.6-3.1-1-4.6C58.6,73.3,59.1,73.1,59.2,73.5
						L59.2,73.5z"/>
				</g>
				<g>
					<path d="M57.3,73.7c0.3,1.5,0.6,3.1,0.9,4.6c0.1,0.3-0.4,0.4-0.5,0.1c-0.3-1.5-0.6-3.1-0.9-4.6C56.7,73.5,57.2,73.4,57.3,73.7
						L57.3,73.7z"/>
				</g>
				<g>
					<path d="M60.8,85C60.8,85,60.8,85,60.8,85c-0.1,0.2-0.3,0.2-0.4,0.2c-0.1-0.1-0.2-0.2-0.1-0.3c0,0,0,0,0-0.1
						c0.1-0.1,0.2-0.2,0.4-0.1C60.8,84.7,60.9,84.9,60.8,85L60.8,85z"/>
				</g>
				<g>
					<path d="M60.2,83.8c-0.3,0.1-0.4-0.4-0.1-0.5C60.4,83.3,60.5,83.7,60.2,83.8L60.2,83.8z"/>
				</g>
				<g>
					<path d="M59.7,82.4c-0.3,0.1-0.4-0.4-0.1-0.5C59.9,81.8,60,82.3,59.7,82.4L59.7,82.4z"/>
				</g>
				<g>
					<path d="M59.2,77.7C59.2,77.8,59.2,77.8,59.2,77.7c0,0.2,0,0.3-0.2,0.4c-0.1,0-0.3,0-0.3-0.2c0,0,0,0,0,0c0-0.1,0-0.3,0.2-0.3
						C59,77.5,59.2,77.6,59.2,77.7L59.2,77.7z"/>
				</g>
				<g>
					<path d="M58.8,76.9c-0.3,0.1-0.4-0.4-0.1-0.5C59,76.3,59.1,76.8,58.8,76.9L58.8,76.9z"/>
				</g>
				<g>
					<path d="M61.6,85.8c1,4.7,1.9,9.4,2.6,14.2c0,0.3-0.4,0.4-0.5,0.1c-0.7-4.8-1.6-9.5-2.6-14.2C61,85.6,61.5,85.5,61.6,85.8
						L61.6,85.8z"/>
				</g>
				<g>
					<path d="M59.4,85.2c1,5.2,1.8,10.5,2.3,15.8c0,0.3-0.5,0.3-0.5,0c-0.5-5.3-1.3-10.5-2.3-15.7C58.9,85.1,59.4,84.9,59.4,85.2
						L59.4,85.2z"/>
				</g>
				<g>
					<path d="M65.3,74.4c0.6,0.9,1.1,1.9,1.6,2.9c0.2,0.5,0.4,0.9,0.6,1.4c0.1,0.2,0.2,0.4,0.1,0.6c0,0.1-0.2,0.2-0.4,0.1l0,0
						c-0.1-0.1-0.2-0.2-0.1-0.3c0,0,0,0,0,0c0.2-0.3,0.6,0,0.4,0.2c0,0,0,0,0,0c0-0.1-0.1-0.2-0.1-0.3l0,0c-0.1,0-0.2,0.1-0.4,0.1
						c-0.1,0.2-0.2-0.3-0.2-0.4c-0.1-0.2-0.2-0.4-0.3-0.6c-0.2-0.4-0.4-0.8-0.6-1.2c-0.4-0.8-0.8-1.5-1.3-2.2
						C64.7,74.4,65.1,74.1,65.3,74.4L65.3,74.4z"/>
				</g>
				<g>
					<path d="M61.9,75.4c1,1.7,2,3.5,2.9,5.3c0.1,0.3-0.3,0.5-0.4,0.3c-0.9-1.8-1.9-3.5-2.9-5.3C61.2,75.4,61.7,75.1,61.9,75.4
						L61.9,75.4z"/>
				</g>
				<g>
					<path d="M65.2,74.7c-1.1,0.4-2.1,0.7-3.2,1.1c-0.3,0.1-0.4-0.4-0.1-0.5c1.1-0.4,2.1-0.7,3.2-1.1C65.4,74.1,65.5,74.6,65.2,74.7
						L65.2,74.7z"/>
				</g>
				<g>
					<path d="M67.7,79.3c0,0.4-0.5,0.5-0.9,0.7c-0.6,0.3-1.2,0.6-1.8,0.9c-0.3,0.1-0.6-0.3-0.3-0.4c0.4-0.2,0.8-0.4,1.2-0.6
						c0.1,0,1.2-0.5,1.2-0.5C67.2,79,67.7,79,67.7,79.3L67.7,79.3z"/>
				</g>
				<g>
					<path d="M64.8,80.9c-0.3,0.1-0.4-0.4-0.1-0.5C65,80.3,65.1,80.8,64.8,80.9L64.8,80.9z"/>
				</g>
				<g>
					<path d="M65.3,79.8c-0.2-0.5-0.4-1-0.6-1.5c-0.1-0.2-0.4-1-0.5-1c-0.1,0,0.2,0.8,0.2,0.8c0.1,0.2,0.2,0.4,0.3,0.6
						c0.2,0.5,0.4,0.9,0.7,1.4c0.1,0.3-0.3,0.5-0.4,0.3c-0.4-0.8-0.8-1.7-1.2-2.6c-0.2-0.4-0.2-0.7,0.3-0.9c0.4-0.2,0.6,0.1,0.8,0.4
						c0.4,0.8,0.7,1.6,1,2.4C65.9,80,65.4,80.1,65.3,79.8L65.3,79.8z"/>
				</g>
				<g>
					<path d="M66.4,79.4c-0.2-0.4-0.3-0.7-0.5-1c-0.1-0.1-0.2-0.3-0.3-0.4c0,0-0.2-0.4-0.2-0.4c0.1,0,0.1,0.4,0.2,0.5
						c0.1,0.2,0.2,0.4,0.3,0.6c0.2,0.4,0.4,0.7,0.6,1.1c0.2,0.3-0.3,0.5-0.4,0.3c-0.4-0.5-0.7-1.1-0.9-1.7c-0.1-0.3-0.4-0.9,0-1.2
						c0.3-0.2,0.6,0,0.8,0.3c0.4,0.6,0.8,1.2,1.1,1.9C66.9,79.4,66.5,79.7,66.4,79.4L66.4,79.4z"/>
				</g>
				<g>
					<path d="M66.6,79.8c-0.1-0.2-0.1-0.3-0.2-0.5c0-0.1,0-0.3,0.1-0.4c0.1-0.1,0.3,0,0.4,0.1c0.1,0.2,0.1,0.3,0.2,0.5
						c0,0.1,0,0.3-0.1,0.4C66.8,79.9,66.7,79.9,66.6,79.8L66.6,79.8z"/>
				</g>
				<g>
					<path d="M65.4,80.1c0-0.1,0-0.2-0.1-0.3c0-0.1,0-0.3,0.2-0.3c0.1,0,0.3,0,0.3,0.2c0,0.1,0,0.2,0.1,0.3c0,0.1,0,0.3-0.2,0.3
						C65.6,80.3,65.5,80.2,65.4,80.1L65.4,80.1z"/>
				</g>
				<g>
					<path d="M65.6,80c-0.1,0.1-0.3,0.1-0.4,0.2c-0.1,0-0.3,0-0.4-0.1c-0.1-0.1,0-0.3,0.1-0.4c0.1-0.1,0.3-0.1,0.4-0.2
						c0.1,0,0.3,0,0.4,0.1C65.7,79.7,65.7,79.9,65.6,80L65.6,80z"/>
				</g>
				<g>
					<path d="M66.6,79.4c-0.2,0-0.4,0.1-0.6,0.2c-0.3,0.1-0.4-0.4-0.1-0.5c0.2,0,0.4-0.1,0.6-0.2C66.7,78.9,66.9,79.4,66.6,79.4
						L66.6,79.4z"/>
				</g>
				<g>
					<path d="M65.9,78.4c-0.1,0-0.2,0-0.3,0c-0.1,0-0.3,0-0.4-0.1c-0.1-0.1,0-0.3,0.1-0.4c0.2-0.1,0.4-0.1,0.6-0.1
						c0.1,0,0.3,0.1,0.3,0.3C66.2,78.3,66.1,78.4,65.9,78.4L65.9,78.4z"/>
				</g>
				<g>
					<path d="M65.1,78.8c-0.1,0.1-0.3,0.1-0.4,0.2c-0.1,0-0.3,0-0.4-0.1c-0.1-0.1,0-0.3,0.1-0.4c0.1-0.1,0.3-0.1,0.4-0.2
						c0.1,0,0.3,0,0.4,0.1C65.2,78.5,65.2,78.7,65.1,78.8L65.1,78.8z"/>
				</g>
				<g>
					<path d="M65.1,76.9c0.1-0.2-0.3-0.3-0.4-0.4c-0.2-0.1-0.4-0.2-0.4-0.4c0.2-0.1,0.3-0.1,0.5-0.2c0.1,0.2,0.1,0.5,0.1,0.7
						c0,0.2,0,0.4,0.3,0.4c0.3,0,0.3,0.5,0,0.5c-0.3,0-0.5-0.2-0.7-0.4c-0.2-0.4,0-0.7-0.2-1.1c-0.1-0.3,0.3-0.4,0.5-0.2
						c0.1,0.3,0.6,0.3,0.8,0.5c0.2,0.2,0.3,0.5,0.1,0.8C65.4,77.4,64.9,77.1,65.1,76.9L65.1,76.9z"/>
				</g>
				<g>
					<path d="M64,76.8c0.1-0.1-0.4-0.3-0.4-0.3c-0.2-0.1-0.3-0.1-0.5-0.3c0.1-0.1,0.3-0.2,0.4-0.3c0.1,0.2,0.1,0.4,0.1,0.6
						c0,0.1,0,0.5,0.2,0.4c0.3-0.1,0.4,0.4,0.1,0.5c-0.3,0.1-0.5,0-0.7-0.3c-0.2-0.3-0.1-0.7-0.3-1c-0.1-0.3,0.2-0.5,0.4-0.3
						c0.3,0.2,0.7,0.2,0.9,0.5c0.2,0.2,0.2,0.5,0,0.8C64.1,77.4,63.8,77,64,76.8L64,76.8z"/>
				</g>
				<g>
					<path d="M66.9,78.2c-0.3,0.1-0.6,0.2-0.8,0.3c-0.3,0.1-0.4-0.4-0.1-0.5c0.3-0.1,0.6-0.2,0.8-0.3C67.1,77.6,67.2,78.1,66.9,78.2
						L66.9,78.2z"/>
				</g>
				<g>
					<path d="M64.4,79.2c-0.1,0-0.3,0.1-0.4,0.2c-0.1,0.1-0.3,0-0.4-0.1c-0.1-0.1,0-0.3,0.1-0.4c0.2-0.1,0.3-0.2,0.5-0.2
						c0.1,0,0.3,0,0.3,0.2C64.6,79,64.5,79.2,64.4,79.2L64.4,79.2z"/>
				</g>
				<g>
					<path d="M66.9,78.8c-0.3,0.1-0.4-0.4-0.1-0.5C67.1,78.2,67.2,78.7,66.9,78.8L66.9,78.8z"/>
				</g>
				<g>
					<path d="M67.3,79C67.3,79,67.3,79,67.3,79c0,0.2,0,0.3-0.2,0.4c-0.1,0-0.3,0-0.3-0.2c0,0,0,0,0,0c0-0.1,0-0.3,0.2-0.3
						C67.1,78.8,67.2,78.9,67.3,79L67.3,79z"/>
				</g>
				<g>
					<path d="M64.4,79.8c-0.3,0.1-0.4-0.4-0.1-0.5C64.6,79.2,64.7,79.7,64.4,79.8L64.4,79.8z"/>
				</g>
				<g>
					<path d="M64.7,80.3c-0.3,0.1-0.4-0.4-0.1-0.5C64.8,79.8,65,80.2,64.7,80.3L64.7,80.3z"/>
				</g>
				<g>
					<path d="M55.5,83c0.3,2.5,0.4,5,0.4,7.6c0,0.3-0.5,0.3-0.5,0c0.1-2.5,0-5.1-0.4-7.6C54.9,82.7,55.4,82.7,55.5,83L55.5,83z"/>
				</g>
				<g>
					<path d="M55.1,83.2c-0.9,0-1.7,0-2.6,0c-0.1,0-0.8-0.1-0.8,0c0,0,0,0.4,0,0.5c0,0.5,0,1,0.1,1.4c0.1,1.8,0.2,3.5,0.3,5.3
						c0,0.3-0.5,0.3-0.5,0c-0.1-2.2-0.2-4.3-0.4-6.5c0-0.6-0.2-1.2,0.5-1.3c0.5-0.1,1.1,0,1.6,0c0.6,0,1.2,0,1.8,0
						C55.5,82.7,55.4,83.2,55.1,83.2L55.1,83.2z"/>
				</g>
				<g>
					<path d="M55.6,90.7c-1.2,0-2.4,0-3.6,0c-0.3,0-0.3-0.5,0-0.5c1.2,0.1,2.4,0.1,3.6,0C55.9,90.2,55.9,90.7,55.6,90.7L55.6,90.7z"
						/>
				</g>
				<g>
					<path d="M54.6,88.9c-0.8-1.7-1.7-3.4-1.4-5.4c0-0.3,0.5-0.2,0.5,0.1c0.1,1.9-0.2,3.6-0.6,5.4c-0.1-0.1-0.1-0.2-0.2-0.3
						c0,0,0,0,0,0c-0.1,0.1-0.2,0.1-0.3,0.2v0c0-0.3,0.5-0.2,0.5,0.1v0c0,0.1-0.2,0.2-0.3,0.2c0,0,0,0,0,0c-0.1,0-0.2-0.2-0.2-0.3
						c0.4-1.8,0.7-3.5,0.6-5.3c0.2,0,0.3,0,0.5,0.1c-0.3,1.8,0.7,3.4,1.4,5C55.2,88.9,54.7,89.2,54.6,88.9L54.6,88.9z"/>
				</g>
				<g>
					<path d="M54.2,87.9c-0.4,0-0.8,0-1.1,0c-0.3,0-0.4-0.4-0.1-0.5c0.4-0.1,0.8-0.1,1.3-0.1C54.6,87.4,54.6,87.9,54.2,87.9
						L54.2,87.9z"/>
				</g>
				<g>
					<path d="M54.4,88.8c-0.2-0.6-1.1-0.6-1.2,0.1c0,0.3-0.6,0.3-0.5,0c0.1-0.5,0.4-1,1-1.1c0.6-0.1,1.1,0.3,1.2,0.8
						C55,88.9,54.5,89.1,54.4,88.8L54.4,88.8z"/>
				</g>
				<g>
					<path d="M53.8,87.5c-0.2-0.5-0.4-1-0.6-1.5c0.2,0,0.3,0,0.5-0.1c0,0.6-0.1,1.2-0.2,1.8c0,0.3-0.5,0.2-0.5-0.1
						c0.1-0.5,0.1-1.1,0.2-1.6c0-0.3,0.4-0.3,0.5-0.1c0.2,0.5,0.4,1,0.6,1.5C54.4,87.7,53.9,87.8,53.8,87.5L53.8,87.5z"/>
				</g>
				<g>
					<path d="M55.1,89.2c-0.3,0-0.6,0-0.8,0c-0.3-0.1-0.2-0.6,0.1-0.5c0.2,0,0.4,0.1,0.6,0c0.1,0,0.3,0,0.3,0.2
						C55.3,89,55.3,89.2,55.1,89.2L55.1,89.2z"/>
				</g>
				<g>
					<path d="M53.1,89.4c-0.2,0-0.4,0-0.5,0c-0.1,0-0.3-0.1-0.3-0.3s0.1-0.3,0.3-0.3c0.2,0,0.4,0,0.5,0c0.1,0,0.3,0.1,0.3,0.3
						C53.4,89.3,53.3,89.4,53.1,89.4L53.1,89.4z"/>
				</g>
				<g>
					<path d="M74.5,83.8c-0.5,1.9-0.9,3.8-1.1,5.7c0,0.3-0.5,0.3-0.5,0c0.2-2,0.6-3.9,1.1-5.9C74,83.4,74.5,83.5,74.5,83.8
						L74.5,83.8z"/>
				</g>
				<g>
					<path d="M73.1,89.9c-2.9-0.3-5.7-0.7-8.5-1.3c-0.3-0.1-0.2-0.5,0.1-0.5c2.8,0.6,5.6,1,8.4,1.3C73.4,89.4,73.4,89.9,73.1,89.9
						L73.1,89.9z"/>
				</g>
				<g>
					<path d="M74.1,84c-2.8-0.6-5.6-0.9-8.5-1c-0.3,0-0.3-0.5,0-0.5c2.9,0.1,5.8,0.4,8.6,1C74.6,83.5,74.4,84,74.1,84L74.1,84z"/>
				</g>
				<g>
					<path d="M65.8,82.7c-0.3,1.9-0.3,3.9-1.1,5.6c-0.1,0.3-0.6,0-0.4-0.2c0.7-1.7,0.8-3.6,1-5.4C65.4,82.4,65.9,82.4,65.8,82.7
						L65.8,82.7z"/>
				</g>
				<g>
					<path d="M82,84.1c0.2,1.7,0.4,3.3,0.8,5c0.1,0.3-0.4,0.4-0.5,0.1c-0.4-1.7-0.6-3.4-0.8-5.1C81.5,83.8,82,83.8,82,84.1L82,84.1z
						"/>
				</g>
				<g>
					<path d="M79.1,83.9c0.2,2,0.3,4,0.4,6c0,0.3-0.5,0.3-0.5,0c-0.1-2-0.2-4-0.4-6C78.5,83.6,79,83.6,79.1,83.9L79.1,83.9z"/>
				</g>
				<g>
					<path d="M81.8,84.2c-1,0-2,0-3-0.1c-0.3,0-0.3-0.5,0-0.5c1,0,2,0,3,0.1C82.2,83.7,82.1,84.2,81.8,84.2L81.8,84.2z"/>
				</g>
				<g>
					<path d="M82.6,89.4c-1.1,0.1-2.1,0.3-3.1,0.6c-0.3,0.1-0.4-0.4-0.1-0.5c1.1-0.4,2.2-0.6,3.3-0.6C83,88.9,82.9,89.4,82.6,89.4
						L82.6,89.4z"/>
				</g>
				<g>
					<path d="M67.9,90.6c0.4,1.1,0.9,2.1,1.6,3c0.2,0.3-0.3,0.5-0.4,0.3c-0.7-1-1.2-2-1.6-3.1C67.3,90.4,67.8,90.3,67.9,90.6
						L67.9,90.6z"/>
				</g>
				<g>
					<path d="M63.7,92.3c0.7,1.1,1.2,2.2,1.7,3.3c0.1,0.3-0.4,0.4-0.5,0.1c-0.4-1.1-1-2.2-1.6-3.2C63.1,92.3,63.5,92.1,63.7,92.3
						L63.7,92.3z"/>
				</g>
				<g>
					<path d="M67.7,90.8c-1.4,0.6-2.7,1.2-4.1,1.8c-0.3,0.1-0.6-0.3-0.3-0.4c1.4-0.6,2.7-1.2,4.1-1.8C67.8,90.2,68,90.6,67.7,90.8
						L67.7,90.8z"/>
				</g>
				<g>
					<path d="M69.5,94.1c-1.4,0.6-2.7,1.3-4.1,2c-0.3,0.1-0.5-0.3-0.3-0.4c1.3-0.7,2.7-1.3,4.1-2C69.5,93.5,69.8,93.9,69.5,94.1
						L69.5,94.1z"/>
				</g>
				<g>
					<path d="M51.1,75.2c0-0.1-0.2-0.2-0.2,0c0,0,0,0.1,0,0.1c0,0,0.1,0,0.1,0S51,75.3,51.1,75.2c0-0.1,0.1-0.2,0.2-0.2
						c0.1,0,0.2,0.2,0.2,0.3c-0.1,0.3-0.4,0.4-0.7,0.4c-0.3,0-0.5-0.4-0.4-0.6c0-0.3,0.3-0.5,0.6-0.5c0.3,0,0.6,0.3,0.6,0.6
						C51.6,75.6,51.1,75.6,51.1,75.2L51.1,75.2z"/>
				</g>
				<g>
					<path d="M50.2,76.8c0-0.1,0.1-0.2,0-0.3c0,0-0.1-0.1-0.1-0.1c-0.1,0-0.1,0.2,0,0.2C50.1,76.8,50.1,76.8,50.2,76.8
						C50.2,76.9,50.2,76.9,50.2,76.8c0.2-0.2,0.5,0.1,0.3,0.4c-0.3,0.3-0.7,0.2-0.8-0.1c-0.2-0.3-0.1-0.7,0.1-0.9
						c0.3-0.2,0.7-0.2,0.9,0c0.3,0.3,0.2,0.7-0.1,1C50.4,77.4,50,77.1,50.2,76.8L50.2,76.8z"/>
				</g>
				<g>
					<path d="M49.3,77.9c0,0,0-0.2-0.1-0.1C49,77.9,49.2,78,49.3,77.9c0.2,0,0.3,0.1,0.4,0.2c0,0.1,0,0.3-0.2,0.3
						c-0.3,0.1-0.6,0-0.8-0.3c-0.2-0.3,0-0.6,0.2-0.8c0.2-0.2,0.6-0.1,0.8,0.1c0.2,0.2,0.2,0.6,0,0.8c-0.1,0.1-0.3,0.1-0.4,0
						C49.2,78.2,49.2,78,49.3,77.9L49.3,77.9z"/>
				</g>
				<g>
					<path d="M47.8,77.3C47.8,77.3,47.8,77.3,47.8,77.3C47.8,77.3,47.7,77.2,47.8,77.3C47.7,77.2,47.7,77.2,47.8,77.3
						C47.7,77.3,47.7,77.3,47.8,77.3C47.7,77.3,47.7,77.3,47.8,77.3C47.7,77.3,47.7,77.3,47.8,77.3C47.7,77.3,47.7,77.3,47.8,77.3
						C47.7,77.3,47.7,77.3,47.8,77.3L47.8,77.3C47.7,77.3,47.7,77.3,47.8,77.3L47.8,77.3C47.7,77.3,47.7,77.3,47.8,77.3
						C47.7,77.3,47.7,77.3,47.8,77.3L47.8,77.3C47.7,77.3,47.7,77.3,47.8,77.3C47.7,77.3,47.7,77.3,47.8,77.3
						C47.7,77.3,47.7,77.3,47.8,77.3C47.8,77.4,47.7,77.4,47.8,77.3C47.8,77.4,47.8,77.4,47.8,77.3C47.8,77.4,47.8,77.4,47.8,77.3
						L47.8,77.3C47.7,77.4,47.7,77.4,47.8,77.3C47.7,77.3,47.7,77.3,47.8,77.3C47.7,77.4,47.7,77.4,47.8,77.3
						C47.7,77.4,47.8,77.3,47.8,77.3C47.8,77.3,47.8,77.3,47.8,77.3C47.8,77.3,47.8,77.3,47.8,77.3C47.8,77.3,47.8,77.3,47.8,77.3
						c-0.1-0.1-0.1-0.3,0-0.4c0.1-0.1,0.3-0.1,0.4,0c0.1,0.1,0.2,0.3,0.1,0.5c0,0.1-0.1,0.3-0.3,0.4c-0.3,0.2-0.6,0-0.8-0.3
						c-0.1-0.3,0-0.6,0.3-0.7c0.3-0.1,0.7,0.1,0.7,0.4c0,0.1,0,0.3-0.2,0.3C48,77.5,47.8,77.4,47.8,77.3L47.8,77.3z"/>
				</g>
				<g>
					<path d="M47.1,76.6c0,0,0.1-0.5,0-0.4c0,0,0,0.1,0,0.1c0,0,0.1,0.1,0.2,0.1c0.3,0,0.3,0.5,0,0.5c-0.3,0-0.5-0.1-0.7-0.4
						c-0.1-0.3,0-0.6,0.2-0.8c0.2-0.2,0.5-0.1,0.7,0.1c0.2,0.2,0.2,0.5,0.1,0.8C47.5,77,47,76.9,47.1,76.6L47.1,76.6z"/>
				</g>
				<g>
					<path d="M43.6,78.4C43.5,78.4,43.6,78.4,43.6,78.4C43.6,78.4,43.6,78.3,43.6,78.4C43.6,78.4,43.5,78.3,43.6,78.4
						C43.5,78.3,43.6,78.3,43.6,78.4c0-0.1,0-0.1,0-0.1c0,0,0,0,0,0c0,0,0,0,0,0c0,0,0,0,0,0c0,0,0,0,0,0c0,0,0,0,0,0c0,0,0,0,0,0
						c0,0,0,0,0,0c0,0.1,0,0,0,0c0,0,0,0,0,0c0,0,0,0,0,0c0,0,0,0,0,0C43.5,78.3,43.4,78.3,43.6,78.4C43.5,78.4,43.5,78.3,43.6,78.4
						C43.5,78.4,43.5,78.4,43.6,78.4C43.5,78.4,43.5,78.4,43.6,78.4c0-0.1,0.2-0.1,0.3,0s0.1,0.3,0,0.4c-0.2,0.2-0.5,0.2-0.8,0
						c-0.2-0.2-0.2-0.5,0-0.7c0.2-0.2,0.5-0.2,0.8,0s0.3,0.5,0.1,0.7c-0.1,0.1-0.2,0.2-0.4,0.1C43.5,78.7,43.5,78.5,43.6,78.4
						L43.6,78.4z"/>
				</g>
				<g>
					<path d="M43.1,80.6c0-0.1,0.1-0.2,0.1-0.3c0,0,0,0,0-0.1c0,0,0,0,0,0c0.1-0.1,0,0.1,0,0.1c0,0,0,0.1,0,0.1h-0.1
						c0.1-0.1,0.3-0.1,0.4,0c0.1,0.1,0.1,0.2,0,0.4c-0.2,0.2-0.6,0.1-0.7-0.1c-0.1-0.2-0.1-0.6,0.1-0.8c0.2-0.2,0.6-0.2,0.8,0
						c0.2,0.3,0.1,0.6,0,0.9c0,0.1-0.2,0.2-0.4,0.1C43,80.9,43,80.8,43.1,80.6L43.1,80.6z"/>
				</g>
				<g>
					<path d="M79.8,75.2c0,0,0.1-0.1,0.1-0.2c0,0,0,0,0-0.1c0,0,0,0,0,0c0,0,0,0,0,0h0c0,0,0,0,0,0c0,0,0,0,0,0h0c0.1,0,0,0,0,0
						s-0.1,0,0,0c0,0,0,0,0,0c0,0,0,0,0,0c0,0,0,0,0,0c0,0,0,0,0,0c0,0,0,0.1,0,0c0,0,0,0,0,0c0,0,0.1,0,0,0c0,0,0,0,0,0
						c0.1,0,0.3,0,0.3,0.2c0,0.1,0,0.3-0.2,0.3c-0.3,0-0.6-0.1-0.7-0.4c-0.1-0.3,0-0.6,0.3-0.7c0.2-0.1,0.6-0.1,0.7,0.2
						c0.2,0.3,0,0.6-0.2,0.8C79.9,75.7,79.6,75.4,79.8,75.2L79.8,75.2z"/>
				</g>
				<g>
					<path d="M79.1,74.3C79.2,74.3,79.2,74.3,79.1,74.3C79.2,74.3,79.2,74.3,79.1,74.3C79.2,74.3,79.2,74.3,79.1,74.3
						C79.2,74.3,79.2,74.2,79.1,74.3C79.2,74.3,79.2,74.1,79.1,74.3C79.2,74.2,79.2,74.2,79.1,74.3c0-0.1,0-0.1,0-0.1c0,0,0,0,0,0
						c0,0,0,0,0,0c0,0,0,0,0,0C79.2,74.2,79.2,74.2,79.1,74.3C79.2,74.2,79.2,74.2,79.1,74.3C79.1,74.2,79.1,74.2,79.1,74.3
						C79.1,74.2,79.1,74.2,79.1,74.3C79.1,74.3,79.1,74.3,79.1,74.3C79.1,74.2,79.1,74.2,79.1,74.3C79.1,74.2,79.1,74.2,79.1,74.3
						C79.1,74.2,79.1,74.2,79.1,74.3C79.1,74.2,79.1,74.3,79.1,74.3C79.1,74.3,79.1,74.3,79.1,74.3C79.2,74.3,79.1,74.3,79.1,74.3
						C79.2,74.3,79.2,74.3,79.1,74.3c0.2-0.1,0.4,0,0.4,0.1c0.1,0.1,0,0.3-0.1,0.4c-0.3,0.2-0.6,0.1-0.8-0.2s0-0.6,0.2-0.8
						c0.3-0.1,0.6-0.1,0.8,0.1c0.1,0.2,0.1,0.6-0.1,0.7c-0.1,0.1-0.3,0.1-0.4,0C79,74.6,79,74.4,79.1,74.3L79.1,74.3z"/>
				</g>
				<g>
					<path d="M78.1,73.5c0,0,0.1,0,0.2-0.1c0,0,0-0.1-0.1-0.1c0,0,0,0,0,0C78.2,73.4,78.2,73.4,78.1,73.5c0.2-0.2,0.3-0.2,0.4-0.1
						s0.1,0.3,0,0.4c-0.2,0.2-0.6,0.2-0.8-0.1s0-0.7,0.3-0.8s0.6,0.1,0.7,0.4c0.1,0.3-0.2,0.7-0.5,0.7c-0.1,0-0.3,0-0.3-0.2
						C77.9,73.7,78,73.5,78.1,73.5L78.1,73.5z"/>
				</g>
				<g>
					<path d="M84.1,91.2C84.1,91.1,84.1,91.1,84.1,91.2L84.1,91.2C84.1,91.2,84.1,91.2,84.1,91.2L84.1,91.2
						C84.1,91.1,84.1,91.1,84.1,91.2L84.1,91.2C84.2,91.2,84.1,91.2,84.1,91.2L84.1,91.2C84.2,91.2,84.2,91.2,84.1,91.2
						C84.2,91.2,84.2,91.2,84.1,91.2C84.1,91.2,84.1,91.2,84.1,91.2L84.1,91.2C84.2,91.2,84.2,91.2,84.1,91.2
						C84.1,91.2,84.2,91.2,84.1,91.2L84.1,91.2C84.1,91.2,84.1,91.2,84.1,91.2L84.1,91.2L84.1,91.2C84.1,91.2,84.1,91.2,84.1,91.2
						L84.1,91.2C84.1,91.2,84.1,91.2,84.1,91.2C84.2,91.2,84.2,91.2,84.1,91.2C84.1,91.2,84.2,91.3,84.1,91.2
						C84.1,91.2,84.2,91.2,84.1,91.2C84.2,91.2,84.2,91.2,84.1,91.2C84.2,91.2,84.2,91.2,84.1,91.2C84.2,91.2,84.2,91.2,84.1,91.2
						C84.2,91.2,84.2,91.2,84.1,91.2C84.2,91.3,84.2,91.3,84.1,91.2C84.2,91.2,84.2,91.2,84.1,91.2c0,0.1,0,0.1,0,0.1
						c0-0.1,0.2-0.2,0.3-0.2c0.1,0,0.2,0.2,0.2,0.3c-0.1,0.3-0.4,0.4-0.7,0.3c-0.3-0.1-0.4-0.4-0.3-0.7c0.1-0.3,0.4-0.4,0.7-0.3
						c0.3,0.1,0.4,0.5,0.2,0.7c-0.1,0.1-0.2,0.2-0.4,0.1C84.1,91.5,84,91.3,84.1,91.2L84.1,91.2z"/>
				</g>
				<g>
					<path d="M84.2,90.1c0,0,0-0.1,0.1-0.1c0.1-0.1,0.4-0.2,0.4,0c0.2,0.5-0.4,0.8-0.8,0.4c-0.1-0.2-0.2-0.4-0.1-0.6
						c0-0.2,0.3-0.4,0.5-0.4c0.1,0,0.2,0.2,0.2,0.3c0,0.1-0.2,0.2-0.3,0.2c-0.3-0.1,0.1,0,0.1,0v0c0,0,0,0.1,0,0.2h0c0,0,0,0,0,0
						c0,0-0.1,0.1,0,0.2c0.1,0,0.3,0,0.4,0c0,0,0,0.1-0.1,0.1C84.4,90.6,84,90.3,84.2,90.1L84.2,90.1z"/>
				</g>
				<g>
					<path d="M83.7,91.9c0,0,0,0.1,0,0.1c0,0,0,0,0,0c0,0,0,0,0,0l0,0c0,0-0.1,0.1-0.1,0.2c0,0.1-0.1,0.3-0.3,0.3s-0.3-0.1-0.3-0.3
						c0-0.3,0.3-0.7,0.6-0.7c0.4,0,0.6,0.4,0.4,0.7c-0.1,0.1-0.3,0.1-0.4,0C83.6,92.2,83.6,92,83.7,91.9L83.7,91.9z"/>
				</g>
				<g>
					<path d="M53.8,104.1L53.8,104.1C53.8,104.1,53.8,104.1,53.8,104.1L53.8,104.1C53.8,104.1,53.9,104.1,53.8,104.1
						C53.8,104.1,53.8,104.1,53.8,104.1C53.8,104.1,53.8,104.1,53.8,104.1C53.8,104.1,53.8,104.1,53.8,104.1
						C53.8,104.1,53.8,104.1,53.8,104.1c0,0.1,0,0.3-0.2,0.3c-0.1,0-0.3,0-0.3-0.2c-0.1-0.2,0-0.5,0.2-0.6c0.2-0.1,0.5-0.1,0.6,0.1
						C54.4,104,54.1,104.3,53.8,104.1L53.8,104.1z"/>
				</g>
				<g>
					<path d="M53.3,103.6c0-0.1,0-0.2-0.1-0.2c0,0,0,0,0,0c0,0,0,0,0,0c0,0,0,0,0,0l0,0c0,0,0,0,0,0c0,0,0,0,0,0c0,0,0,0,0,0
						c0,0,0,0,0,0c0,0,0,0,0,0c0,0,0,0,0,0s0,0,0,0h0h0c0,0,0,0,0,0c0-0.1,0.2-0.2,0.3-0.2c0.1,0,0.2,0.2,0.2,0.3
						c-0.1,0.2-0.3,0.4-0.6,0.3c-0.3-0.1-0.4-0.3-0.3-0.6c0.1-0.3,0.4-0.4,0.6-0.3c0.3,0.1,0.4,0.3,0.5,0.6c0,0.1,0,0.3-0.2,0.3
						C53.4,103.8,53.3,103.8,53.3,103.6L53.3,103.6z"/>
				</g>
				<g>
					<path d="M52.3,102.6C52.4,102.6,52.3,102.6,52.3,102.6C52.3,102.6,52.3,102.6,52.3,102.6C52.3,102.6,52.3,102.6,52.3,102.6
						L52.3,102.6C52.3,102.6,52.3,102.6,52.3,102.6C52.3,102.6,52.3,102.6,52.3,102.6C52.3,102.6,52.3,102.6,52.3,102.6
						C52.3,102.6,52.3,102.6,52.3,102.6L52.3,102.6C52.3,102.6,52.4,102.6,52.3,102.6C52.4,102.6,52.4,102.6,52.3,102.6
						C52.3,102.6,52.3,102.6,52.3,102.6C52.3,102.6,52.3,102.6,52.3,102.6C52.3,102.6,52.3,102.6,52.3,102.6
						C52.3,102.6,52.4,102.6,52.3,102.6C52.4,102.6,52.4,102.6,52.3,102.6C52.4,102.6,52.4,102.6,52.3,102.6
						C52.4,102.6,52.4,102.5,52.3,102.6C52.4,102.5,52.4,102.5,52.3,102.6C52.4,102.5,52.4,102.5,52.3,102.6
						C52.4,102.5,52.4,102.5,52.3,102.6C52.4,102.6,52.4,102.6,52.3,102.6C52.4,102.5,52.4,102.5,52.3,102.6
						C52.4,102.5,52.3,102.5,52.3,102.6c0.2,0,0.3,0.2,0.2,0.3c0,0.1-0.2,0.2-0.3,0.2c-0.2,0-0.4-0.3-0.4-0.5c0-0.2,0.2-0.4,0.4-0.5
						c0.2,0,0.5,0.1,0.6,0.3c0.1,0.2,0,0.5-0.2,0.6c-0.1,0.1-0.3,0-0.4-0.1C52.2,102.8,52.2,102.7,52.3,102.6L52.3,102.6z"/>
				</g>
				<g>
					<path d="M51.4,103.3C51.5,103.3,51.4,103.4,51.4,103.3C51.4,103.4,51.4,103.4,51.4,103.3C51.4,103.4,51.4,103.4,51.4,103.3
						C51.4,103.4,51.4,103.4,51.4,103.3C51.4,103.4,51.4,103.4,51.4,103.3C51.4,103.4,51.4,103.4,51.4,103.3c0,0.1,0,0.1,0,0.1h0
						c0,0,0,0,0,0c0,0,0,0,0,0c-0.1,0-0.1,0-0.1,0.1c0-0.1,0.1-0.3,0.3-0.3s0.3,0.1,0.3,0.3c0,0.3-0.4,0.5-0.6,0.4
						c-0.3-0.1-0.4-0.5-0.2-0.7c0.1-0.3,0.5-0.4,0.7-0.2c0.2,0.1,0.2,0.5,0,0.6c-0.1,0.1-0.3,0.1-0.4,0
						C51.3,103.6,51.3,103.4,51.4,103.3L51.4,103.3z"/>
				</g>
				<g>
					<path d="M46.1,102.9C46.1,102.9,46.1,102.9,46.1,102.9C46.1,102.9,46.1,102.9,46.1,102.9C46.1,102.9,46.1,103,46.1,102.9
						C46.1,103,46.1,103,46.1,102.9C46.1,102.9,46.1,102.9,46.1,102.9C46.1,103,46.1,102.9,46.1,102.9
						C46.1,102.9,46.1,102.9,46.1,102.9C46.1,102.9,46.1,102.9,46.1,102.9C46.1,102.9,46.1,102.9,46.1,102.9
						C46.1,102.9,46.2,102.9,46.1,102.9C46.2,102.9,46.2,102.9,46.1,102.9C46.2,102.9,46.2,102.9,46.1,102.9
						C46.1,103,46.2,102.9,46.1,102.9C46.2,103,46.2,102.9,46.1,102.9C46.2,102.9,46.2,102.9,46.1,102.9
						C46.2,102.9,46.2,102.9,46.1,102.9C46.2,102.9,46.2,102.9,46.1,102.9C46.2,102.9,46.2,102.9,46.1,102.9
						C46.2,102.9,46.2,102.9,46.1,102.9C46.2,102.9,46.2,102.9,46.1,102.9C46.1,102.9,46.1,102.9,46.1,102.9
						C46.2,102.9,46.2,102.9,46.1,102.9C46.2,102.9,46.2,102.9,46.1,102.9C46.1,102.9,46.2,102.9,46.1,102.9
						C46.1,102.9,46.1,102.9,46.1,102.9C46.1,102.9,46.1,102.9,46.1,102.9c0.1-0.1,0.2-0.1,0.4,0c0.1,0.1,0.1,0.3,0,0.4
						c-0.1,0.1-0.2,0.1-0.4,0.1c-0.1,0-0.3,0-0.3-0.1c-0.2-0.2-0.2-0.5,0-0.7s0.5-0.2,0.7,0c0.2,0.2,0.2,0.5,0,0.7
						c-0.1,0.1-0.3,0.1-0.4,0C46,103.1,46,103,46.1,102.9L46.1,102.9z"/>
				</g>
				<g>
					<path d="M45.7,76.5C45.7,76.5,45.7,76.6,45.7,76.5c0,0.1,0,0.1,0,0.1c0,0,0-0.1,0,0S45.7,76.6,45.7,76.5c-0.1,0-0.1,0-0.2,0
						l0,0c-0.1,0-0.2,0-0.3,0.1c0,0-0.1,0.1,0,0.1c0,0,0,0,0,0c0-0.1,0.1-0.3,0.3-0.3c0.1,0,0.3,0.1,0.3,0.3c0,0.1,0,0.2-0.1,0.2
						c-0.1,0.1-0.4,0.1-0.4-0.1c0-0.1,0-0.2,0-0.3c0-0.1,0.1-0.3,0.3-0.3C45.6,76.2,45.7,76.3,45.7,76.5L45.7,76.5z"/>
				</g>
				<g>
					<path d="M59.9,73.4c0.1-0.3-0.2-0.7-0.5-0.7c-0.4,0-0.5,0.6-0.3,0.8c0.2,0.2-0.1,0.6-0.4,0.4c-0.5-0.5-0.3-1.5,0.5-1.7
						c0.7-0.2,1.4,0.6,1.2,1.3C60.3,73.9,59.8,73.7,59.9,73.4L59.9,73.4z"/>
				</g>
				<g>
					<path d="M67.1,71.3c0.9,0,1.9-0.3,2.7,0.1c0.5,0.3,1.2,1.2,0.3,1.4c-0.3,0.1-0.4-0.4-0.1-0.5c0.2,0-0.4-0.5-0.6-0.6
						c-0.2-0.1-0.5-0.1-0.8-0.1c-0.5,0-1,0.1-1.5,0.1C66.7,71.9,66.8,71.4,67.1,71.3L67.1,71.3z"/>
				</g>
				<g>
					<path d="M58.8,72.6c1.1-0.6,2.3-0.8,3.5-0.8c0.3,0,0.3,0.5,0,0.5c-1.1,0.1-2.2,0.3-3.2,0.8C58.7,73.1,58.5,72.7,58.8,72.6
						L58.8,72.6z"/>
				</g>
			</g>
			<g>
				<path d="M99.1,84.2c3.3-3.9,3.1-9.3,1.8-13.8c-0.8-3-2.2-5.8-3.5-8.6c-1.3-2.9-2.3-5.8-2.9-8.9c-0.3-1.8-0.5-3.6-0.9-5.3
					c-0.4-1.8-1.3-3.4-2.3-5c-0.2-0.4,0.4-0.7,0.6-0.4c0.9,1.4,1.6,2.8,2.1,4.4c0.5,1.6,0.6,3.2,0.9,4.8c0.3,1.7,0.6,3.4,1.1,5
					c0.5,1.7,1.2,3.3,1.9,4.9c2.3,5,4.8,10.2,4.4,16c-0.2,2.7-1.1,5.2-2.8,7.3C99.3,85,98.8,84.6,99.1,84.2L99.1,84.2z"/>
			</g>
			<g>
				<path d="M81.2,95.6c5.1-2.3,9.9-5.1,14.4-8.3c0.4-0.3,0.7,0.3,0.4,0.6c-4.5,3.2-9.3,6-14.4,8.3C81.2,96.3,80.8,95.8,81.2,95.6
					L81.2,95.6z"/>
			</g>
			<g>
				<path d="M68.3,98.5c1.5,0.1,2.9,0,4.4-0.4c0.4-0.1,0.6,0.5,0.2,0.6c-1.5,0.4-3,0.5-4.6,0.4C67.9,99.1,67.9,98.5,68.3,98.5
					L68.3,98.5z"/>
			</g>
			<g>
				<path d="M51.4,43.7c-1.6,5,1.2,9.9,2.7,14.6c0.8,2.5,1.2,4.9,1,7.5c-0.1,2.6-0.5,5.2-0.8,7.8c0,0.4-0.7,0.4-0.7,0
					c0.3-2.7,0.7-5.4,0.8-8.1c0.1-2.7-0.4-5.3-1.2-7.8c-1.5-4.6-4-9.3-2.4-14.2C50.9,43.2,51.6,43.3,51.4,43.7L51.4,43.7z"/>
			</g>
			<g>
				<path d="M83.8,33.1c-0.6-1.4-2.2-2-3.5-2.4c-1.3-0.5-2.6-0.8-4-1.1c-2.9-0.5-5.9-0.5-8.7,0c-4.8,0.9-9.3,3.3-12.4,7
					c-1.8,2.1-3,4.7-3.7,7.3c-0.1,0.4-0.8,0.3-0.7-0.2c1.2-4.9,4.3-9.1,8.7-11.8c4.8-2.9,10.7-4,16.3-3.1c1.7,0.3,3.4,0.7,5.1,1.4
					c1.4,0.5,2.9,1.2,3.5,2.6C84.5,33.1,83.9,33.5,83.8,33.1L83.8,33.1z"/>
			</g>
			<path class="st0" d="M81.4,35.1c1-0.2,1.9,0.4,2.1,1.3c0.2,0.9-0.4,1.9-1.4,2.1c-1,0.2-1.9-0.4-2.1-1.3
				C79.8,36.3,80.4,35.3,81.4,35.1z M81.3,38c0.3-0.1,0.4-0.3,0.4-0.6c-0.1-0.3-0.3-0.4-0.6-0.4c-0.3,0.1-0.4,0.3-0.4,0.6
				C80.8,37.9,81.1,38.1,81.3,38z"/>
			<g>
				<path d="M83.7,32.1c3.4-1.6,7.6-0.1,9.6,2.8c0.9,1.4,1.3,3.1,0.8,4.7c-0.5,1.5-1.6,2.7-3.1,3.2c-0.2,0.1-0.3-0.3-0.1-0.3
					c1.5-0.5,2.6-1.7,3-3.2c0.4-1.5,0-3.1-0.9-4.3c-1.9-2.6-5.9-4-9-2.5C83.7,32.5,83.5,32.2,83.7,32.1L83.7,32.1z"/>
			</g>
			<g>
				<path d="M88.2,44.8c0.7-0.4,1.2,0,1.9,0c1.2,0,0.9-1.7,0.4-2.3c-0.3-0.3,0.2-0.8,0.5-0.5c0.7,0.7,0.9,1.8,0.4,2.7
					c-0.2,0.4-0.6,0.7-1.1,0.7c-0.5,0-1.2-0.3-1.7,0C88.2,45.6,87.8,45,88.2,44.8L88.2,44.8z"/>
			</g>
			<path d="M90.8,42.1c0,0.4-0.3,0.6-0.6,0.8C89.8,43,89.4,43,89.1,43c-0.6,0-1.2-0.1-1.8-0.1c-0.6,0-1.2-0.1-1.6-0.4
				s-0.9-0.8-0.7-1.4c0.1-0.3,0.3-0.5,0.5-0.7c0.9-0.8,2.2-1.2,3.4-0.9s2,1.5,1.9,2.7"/>
			<g>
				<path d="M85.2,41.1c-1.1,0.8-2,2.5-0.6,3.4c1.2,0.7,2.8,0.1,4.2,0c0.4,0,0.4,0.6,0,0.7c-1.7,0.1-4,0.9-5.2-0.7
					c-1-1.4,0-3.1,1.2-3.9C85.3,40.3,85.6,40.9,85.2,41.1L85.2,41.1z"/>
			</g>
			<g>
				<path d="M86.6,45.3c0.1,0.8,0.3,1.8,0.9,2.5c0.2,0.2,0.6,0.6,0.8,0.1c0.1-0.2,0-0.6,0-0.8c0-0.6-0.1-1.2-0.3-1.8
					c-0.1-0.4,0.5-0.6,0.7-0.2c0.2,0.8,1,3.9-0.7,3.7c-1.5-0.2-1.9-2.2-2.1-3.3C85.9,45.1,86.6,44.9,86.6,45.3L86.6,45.3z"/>
			</g>
			<g>
				<path d="M88.5,48.3c1.3-0.4,1.6-1.9,0.8-2.9c-0.3-0.3,0.3-0.7,0.6-0.4c1.1,1.4,0.4,3.3-1.2,3.9C88.2,49.1,88,48.4,88.5,48.3
					L88.5,48.3z"/>
			</g>
			<g>
				<path class="st0" d="M61.4,65.6c2.2,0,4.3,1.5,5.5,3.1c0.9,1.2,1.3,2.9-0.6,3.4c-0.2,0.1-0.3-0.3-0.1-0.3c1.8-0.5,0.9-2.4,0-3.3
					c-1.2-1.4-2.9-2.6-4.9-2.6C61.2,66,61.2,65.6,61.4,65.6L61.4,65.6z"/>
			</g>
			<g>
				<path class="st0" d="M65,70.3c0.6,0.4,1.3,1.1,1.2,1.9c-0.1,0.8-1,1-1.7,1c-0.9-0.1-1.7-0.8-2.3-1.4c-0.7-0.7-1.3-1.6-1.7-2.4
					c-0.1-0.2,0.2-0.4,0.3-0.2c0.6,1.3,1.6,2.6,2.8,3.3c0.6,0.4,1.7,0.6,2.2-0.1c0.4-0.7-0.4-1.5-0.9-1.8
					C64.7,70.4,64.8,70.2,65,70.3L65,70.3z"/>
			</g>
			<g>
				<path class="st0" d="M97.7,84.7c-1.7,0.1-1.4,2.3-2,3.5c-0.1-0.1-0.2-0.1-0.2-0.2c0.9-0.4,1.9-0.3,2.9-0.2
					c1.1,0.1,2.6,0.2,3-1.1c0.6-2.1-2.9-2-4.3-1.9c-0.2,0-0.2-0.3,0-0.3c1.4-0.1,4.8-0.3,4.7,1.9c-0.2,3.1-4.3,1.2-6.2,2
					c-0.2,0.1-0.3-0.1-0.2-0.2c0.6-1.3,0.2-3.5,2.3-3.7C97.9,84.4,97.9,84.7,97.7,84.7L97.7,84.7z"/>
			</g>
			<g>
				<path class="st0" d="M101.2,86.9c-0.2-0.9-1.2-1.1-2.1-1.1c-0.2,0-0.2-0.3,0-0.3c1-0.1,2.1,0.3,2.4,1.3
					C101.6,87,101.3,87.1,101.2,86.9L101.2,86.9z"/>
			</g>
			<g>
				<path class="st0" d="M74.3,96.6c-0.4,0.7-0.8,1.4-1.4,2c0-0.1-0.1-0.2-0.1-0.3c2.3-0.1,4,1.6,6.1,2c0.8,0.2,1.5,0.1,2.2-0.4
					c0.7-0.6,1.2-1.5,0.8-2.3c-0.5-1.4-2.4-2.1-3.7-2.6c-0.2-0.1-0.1-0.4,0.1-0.3c1.4,0.5,3.1,1.1,3.8,2.4c0.7,1.2,0,2.6-1.2,3.2
					c-1.2,0.7-2.6,0.2-3.7-0.3c-1.4-0.7-2.8-1.6-4.4-1.4c-0.1,0-0.2-0.2-0.1-0.3c0.6-0.6,0.9-1.2,1.3-1.9
					C74.1,96.2,74.4,96.4,74.3,96.6L74.3,96.6z"/>
			</g>
			<g>
				<path class="st0" d="M81.3,99.6c0.1-1.4-1.1-2.2-2.3-2.6c-0.2-0.1-0.1-0.4,0.1-0.3c1.4,0.4,2.7,1.3,2.6,2.9
					C81.6,99.8,81.2,99.8,81.3,99.6L81.3,99.6z"/>
			</g>
			<g>
				<path class="st0" d="M55,35.7c-2.7-1-6.9-1.1-8.3,2c-1.3,2.8,0.2,6.9,3.7,7c0.2,0,0.2,0.3,0,0.3c-3.7-0.1-5.3-4.1-4.2-7.2
					c1.3-3.5,5.8-3.6,8.9-2.5C55.3,35.4,55.2,35.7,55,35.7L55,35.7z"/>
			</g>
			<path class="st0" d="M49.5,39.7c-0.1-0.8,0.5-1.6,1.3-1.6c0.8-0.1,1.6,0.5,1.7,1.3c0.1,0.8-0.5,1.6-1.3,1.6
				C50.4,41.1,49.6,40.5,49.5,39.7z"/>
			<path class="st0" d="M91.6,34.5c1-0.2,1.9,0.4,2.1,1.3s-0.4,1.9-1.4,2.1c-1,0.2-1.9-0.4-2.1-1.3C90,35.6,90.6,34.7,91.6,34.5z
				 M91.5,37.4c0.3-0.1,0.4-0.3,0.4-0.6s-0.3-0.4-0.6-0.4c-0.3,0.1-0.4,0.3-0.4,0.6C91,37.3,91.3,37.5,91.5,37.4z"/>
			<g>
				<path d="M86.5,40c1-2,0.2-4.3-1.4-5.7c-1.7-1.4-4-1.8-6.2-1.6c-1.4,0.2-2.7,0.6-3.8,1.5c-0.9,0.8-1.8,1.9-2.1,3
					c-0.7,2.3,1,4.7,2.8,5.9c2.3,1.5,5.2,1.4,7.5,0c0.2-0.1,0.4,0.2,0.2,0.3c-2.2,1.3-5.1,1.5-7.4,0.3c-2.1-1.1-3.9-3.4-3.7-5.8
					c0.1-1.2,0.9-2.3,1.6-3.2c0.9-1.1,2.1-1.8,3.5-2.2c2.4-0.6,5.2-0.3,7.2,1.1c2,1.4,3,4.2,1.9,6.5C86.7,40.3,86.4,40.2,86.5,40
					L86.5,40z"/>
			</g>
			<g>
				<path class="st0" d="M97.4,55.3c1.6-0.4,3.5-0.4,5.1,0.3c1.2,0.5,2,1.6,1.1,2.8c-0.1,0.2-0.4,0-0.3-0.2c1-1.3-0.5-2.2-1.7-2.6
					c-1.3-0.4-2.7-0.3-4.1,0C97.3,55.6,97.2,55.3,97.4,55.3L97.4,55.3z"/>
			</g>
			<g>
				<path class="st0" d="M101.4,57.6c1.1,0,2.8,0.5,2,1.9c-0.8,1.5-3.1,1.1-4.5,0.8c-0.2,0-0.1-0.4,0.1-0.3c1.1,0.3,2.5,0.6,3.6-0.1
					c0.6-0.4,1-1.2,0.2-1.6c-0.4-0.2-0.9-0.3-1.4-0.3C101.2,58,101.2,57.6,101.4,57.6L101.4,57.6z"/>
			</g>
			<g>
				<path class="st0" d="M95.3,52.5c2.7,2.9,4.1,6.8,3.8,10.7c0,0.3-0.5,0.3-0.5,0c0.3-3.8-1-7.6-3.6-10.4
					C94.8,52.6,95.1,52.3,95.3,52.5L95.3,52.5z"/>
			</g>
			<g>
				<path class="st0" d="M67.9,29.1c-1-1.8-3.7-1.9-5.5-1.2c-1.8,0.8-2.9,2.5-2.9,4.4c0,0.2-0.4,0.2-0.4,0c0.1-2,1.3-3.9,3.3-4.7
					c1.9-0.8,4.7-0.5,5.8,1.4C68.3,29.1,68,29.3,67.9,29.1L67.9,29.1z"/>
			</g>
			<g>
				<path class="st0" d="M41.7,57.7c-1.9,0.8-1.5,3.1-1.4,4.7c0.2,2.2,0.2,4.5-0.2,6.7c-0.5,2.5-1.9,4.7-3,7.1s-2.2,5.6-0.7,8
					c1.5,2.3,4.9,2.8,7.4,3.2c0.2,0,0.1,0.4-0.1,0.3c-2.4-0.4-5-0.8-6.8-2.4c-2-1.7-1.8-4.5-1.1-6.8c0.8-2.8,2.6-5.3,3.5-8.1
					c0.8-2.6,0.9-5.3,0.6-7.9c-0.2-1.7-0.5-4.2,1.5-5C41.7,57.4,41.9,57.7,41.7,57.7L41.7,57.7z"/>
			</g>
			<g>
				<path class="st0" d="M53.4,58.2C52,56.3,50.2,54.9,48,54c-0.2-0.1-0.1-0.4,0.1-0.3c2.3,0.9,4.2,2.4,5.7,4.3
					C53.9,58.2,53.6,58.3,53.4,58.2L53.4,58.2z"/>
			</g>
			<g>
				<path class="st0" d="M62.3,66c-1.3-3.5-3.8-7.2-8.1-7.2c-0.3,0-0.3-0.5,0-0.5c4.5,0,7.2,3.9,8.6,7.6
					C62.9,66.1,62.4,66.2,62.3,66L62.3,66z"/>
			</g>
			<g>
				<path class="st0" d="M61.3,65.8c-1.2-2.8-3.8-4.8-6.8-5.5c-0.3-0.1-0.2-0.5,0.1-0.5c3.2,0.6,5.9,2.8,7.1,5.7
					C61.9,65.9,61.5,66.1,61.3,65.8L61.3,65.8z"/>
			</g>
			<g>
				<path class="st0" d="M61,69.6c0,0.9,0,1.7-0.1,2.6c0,0.3-0.5,0.3-0.5,0c0.1-0.9,0.1-1.7,0.1-2.6C60.4,69.3,61,69.3,61,69.6
					L61,69.6z"/>
			</g>
			<g>
				<path class="st0" d="M43.2,83.4c-3-0.7-5.7-2.2-7.3-4.9c-0.1-0.2,0.2-0.4,0.3-0.2c1.5,2.6,4.1,4,7.1,4.7
					C43.5,83.1,43.4,83.4,43.2,83.4L43.2,83.4z"/>
			</g>
			<g>
				<path class="st0" d="M54.2,60.5c-1.5-1.9-3.5-3.4-5.8-4.3c-0.2-0.1-0.1-0.4,0.1-0.3c2.4,0.8,4.4,2.4,6,4.4
					C54.6,60.5,54.3,60.6,54.2,60.5L54.2,60.5z"/>
			</g>
			<g>
				<path class="st0" d="M48.1,52.4c1.1,0.2,2.2,0.5,3.3,0c0.2-0.1,0.4,0.2,0.2,0.3c-1.2,0.5-2.4,0.2-3.5,0
					C47.8,52.7,47.9,52.4,48.1,52.4L48.1,52.4z"/>
			</g>
			<g>
				<path class="st0" d="M47.7,53.9c-0.2-2.1-0.5-4.2-0.7-6.3c0.1,0,0.2,0.1,0.3,0.2c-2.8,0.7-5.8,0.4-8.2-0.9
					c-1.1-0.5-4-2.5-2.1-3.8c1.2-0.8,3.2-0.4,4.6-0.2c1,0.1,5.9,0.8,3.9,2.6c-0.8,0.8-2.3,0.8-3.3,0.7c-1.3-0.2-2.5-0.8-3.4-1.8
					c-0.1-0.2,0-0.4,0.2-0.4c1.3,0,2.5,0.3,3.7,0.8c0.3,0.1,0,0.6-0.3,0.4c-1.1-0.5-2.2-0.7-3.4-0.7c0.1-0.1,0.1-0.3,0.2-0.4
					c1.2,1.4,3.3,2,5.1,1.5c0.2-0.1,0.5-0.2,0.7-0.3c0.3-0.2,0.6-0.5,0.4-0.8c-0.3-0.4-1.3-0.5-1.8-0.7c-0.7-0.2-1.5-0.3-2.2-0.4
					c-1.1-0.2-2.5-0.4-3.6,0c-0.8,0.3-0.9,0.9-0.5,1.6c0.5,0.8,1.6,1.3,2.4,1.8c2.3,1.1,5,1.4,7.6,0.8c0.1,0,0.3,0,0.3,0.2
					c0.3,2.1,0.5,4.3,0.8,6.4C48.2,54.3,47.7,54.3,47.7,53.9L47.7,53.9z"/>
			</g>
			<g>
				<path class="st0" d="M49,72.2c-0.2-6-0.7-12.1-1.3-18.1c0-0.3,0.5-0.3,0.5,0c0.6,6,1.1,12.1,1.3,18.1C49.5,72.5,49,72.5,49,72.2
					L49,72.2z"/>
			</g>
			<g>
				<path class="st0" d="M36.8,44.4c4.3,9,7.1,18.6,8.4,28.5c0,0.3-0.4,0.4-0.5,0.1c-1.3-9.8-4.1-19.4-8.3-28.4
					C36.2,44.4,36.7,44.1,36.8,44.4L36.8,44.4z"/>
			</g>
			<g>
				<path class="st0" d="M52.7,71.5c0.9,1.2-2.4,1.4-3,1.5c-1.5,0.1-3,0-4.5-0.2c-1.3-0.2-2.8-0.6-3.7-1.6c-0.2-0.2,0.2-0.6,0.4-0.4
					c0.7,0.9,2,1.2,3.1,1.4c1.2,0.2,2.4,0.3,3.5,0.3c0.8,0,1.5,0,2.3-0.1c0.2,0,1.7-0.3,1.5-0.6C52.1,71.5,52.5,71.2,52.7,71.5
					L52.7,71.5z"/>
			</g>
			<g>
				<path class="st0" d="M42.4,81.1c-1.7-0.2-4.1-0.3-4.1-2.5c0-2.7,1.9-4.9,3.2-7.2c0.1-0.2,0.4,0,0.3,0.2
					c-1.1,1.9-2.7,3.8-3.1,6.1c-0.2,1-0.2,2.1,0.9,2.6c0.8,0.4,1.8,0.4,2.7,0.5C42.6,80.8,42.6,81.1,42.4,81.1L42.4,81.1z"/>
			</g>
			<g>
				<path class="st0" d="M52.5,72.5c-0.1,0.3-0.1,0.7-0.2,1c0,0.2-0.4,0.2-0.4,0c0-0.4,0.1-0.7,0.2-1.1
					C52.2,72.2,52.6,72.3,52.5,72.5L52.5,72.5z"/>
			</g>
			<g>
				<path class="st0" d="M44.3,76.7c0.5-1.2,0.7-2.6,0.6-3.9c0-0.2,0.3-0.2,0.4,0c0.1,1.4-0.1,2.7-0.6,4
					C44.6,77,44.3,76.9,44.3,76.7L44.3,76.7z"/>
			</g>
			<g>
				<path class="st0" d="M49.7,72.4c0,0.5,0.1,1,0.1,1.6c0,0.2-0.3,0.2-0.4,0c0-0.5-0.1-1-0.1-1.6C49.4,72.2,49.7,72.2,49.7,72.4
					L49.7,72.4z"/>
			</g>
			<g>
				<path class="st0" d="M45.9,44.5c0,1,0,2-0.2,3c0,0.3-0.5,0.3-0.5,0c0.1-1,0.2-2,0.2-3C45.4,44.2,45.9,44.2,45.9,44.5L45.9,44.5z
					"/>
			</g>
			<g>
				<path class="st0" d="M39.3,44.3c0.4,0.9,0.8,1.7,1.1,2.6c0.1,0.3-0.3,0.5-0.4,0.3c-0.4-0.9-0.8-1.7-1.1-2.6
					C38.8,44.2,39.2,44,39.3,44.3L39.3,44.3z"/>
			</g>
			<g>
				<path class="st0" d="M42.7,45.1c0,0.1,0,0.3,0,0.4c0,0.1-0.1,0.3-0.3,0.3c-0.1,0-0.2-0.1-0.3-0.3c0-0.1,0-0.3,0-0.4
					c0-0.1,0.1-0.3,0.3-0.3C42.6,44.9,42.7,45,42.7,45.1L42.7,45.1z"/>
			</g>
			<g>
				<path class="st0" d="M51.3,72.5c0.3,0.3,0.5,0.6,0.8,0.9c0.1,0.2-0.1,0.4-0.2,0.2c-0.3-0.3-0.5-0.6-0.8-0.9
					C51,72.6,51.2,72.4,51.3,72.5L51.3,72.5z"/>
			</g>
			<g>
				<path class="st0" d="M50.1,72.6c0.3,0.3,0.6,0.6,0.9,0.9c0.1,0.2-0.1,0.4-0.2,0.2c-0.3-0.3-0.6-0.6-0.9-0.9
					C49.7,72.7,49.9,72.4,50.1,72.6L50.1,72.6z"/>
			</g>
			<g>
				<path class="st0" d="M48.9,72.8c0.3,0.4,0.6,0.7,0.8,1.1c0.1,0.2-0.2,0.3-0.3,0.2c-0.3-0.4-0.6-0.7-0.8-1.1
					C48.5,72.8,48.8,72.7,48.9,72.8L48.9,72.8z"/>
			</g>
			<g>
				<path class="st0" d="M47.2,72.7c0.4,0.6,0.8,1.1,1.2,1.6c0.1,0.2-0.2,0.4-0.3,0.2c-0.4-0.5-0.8-1.1-1.2-1.6
					C46.8,72.7,47.1,72.6,47.2,72.7L47.2,72.7z"/>
			</g>
			<g>
				<path class="st0" d="M45.3,72.4c0.6,0.8,1.2,1.7,1.8,2.5c0.1,0.2-0.2,0.4-0.3,0.2c-0.6-0.8-1.2-1.6-1.8-2.5
					C44.9,72.4,45.2,72.3,45.3,72.4L45.3,72.4z"/>
			</g>
			<g>
				<path class="st0" d="M43.7,72.2c0.6,1.3,1.3,2.5,2,3.8c0.1,0.2-0.2,0.4-0.3,0.2c-0.8-1.2-1.4-2.5-2-3.8
					C43.3,72.1,43.6,71.9,43.7,72.2L43.7,72.2z"/>
			</g>
			<g>
				<path class="st0" d="M41.9,71.5c0.8,1.7,1.8,3.4,2.8,5c0.1,0.2-0.2,0.4-0.3,0.2c-1-1.6-2-3.3-2.8-5
					C41.5,71.5,41.8,71.4,41.9,71.5L41.9,71.5z"/>
			</g>
			<g>
				<path class="st0" d="M41,73.3c0.8,1.4,1.7,2.7,2.6,4.1c0.1,0.2-0.2,0.4-0.3,0.2c-0.9-1.3-1.8-2.7-2.6-4.1
					C40.6,73.3,40.8,73.1,41,73.3L41,73.3z"/>
			</g>
			<g>
				<path class="st0" d="M40.2,74.7c0.6,1.5,1.4,3,2.3,4.3c0.1,0.2-0.2,0.4-0.3,0.2c-0.9-1.4-1.7-2.9-2.3-4.4
					C39.8,74.6,40.1,74.5,40.2,74.7L40.2,74.7z"/>
			</g>
			<g>
				<path class="st0" d="M39.4,76.5c0.8,1.3,1.6,2.6,2.4,3.9c0.1,0.2-0.2,0.4-0.3,0.2c-0.8-1.3-1.6-2.6-2.4-3.9
					C39,76.5,39.3,76.3,39.4,76.5L39.4,76.5z"/>
			</g>
			<g>
				<path class="st0" d="M38.8,77.5c0.5,0.9,1.1,1.8,1.6,2.7c0.1,0.2-0.2,0.4-0.3,0.2c-0.5-0.9-1.1-1.8-1.6-2.7
					C38.4,77.4,38.7,77.3,38.8,77.5L38.8,77.5z"/>
			</g>
			<g>
				<path class="st0" d="M51,73c-0.1,0.3-0.3,0.5-0.4,0.8c-0.1,0.2-0.4,0-0.3-0.2c0.1-0.3,0.3-0.5,0.4-0.8
					C50.8,72.6,51.1,72.8,51,73L51,73z"/>
			</g>
			<g>
				<path class="st0" d="M49,73c-0.5,0.6-0.9,1.2-1.2,1.8c-0.1,0.2-0.4,0-0.3-0.2c0.4-0.7,0.8-1.3,1.3-1.9
					C48.9,72.6,49.1,72.8,49,73L49,73z"/>
			</g>
			<g>
				<path class="st0" d="M46.7,72.7c-2,2.6-4.2,5.1-6.4,7.5c-0.1,0.2-0.4-0.1-0.2-0.2c2.2-2.4,4.4-4.9,6.4-7.5
					C46.6,72.3,46.9,72.5,46.7,72.7L46.7,72.7z"/>
			</g>
			<g>
				<path class="st0" d="M44,72.5c-1.5,1.7-3.2,3.4-4.9,4.9c-0.2,0.1-0.4-0.1-0.2-0.2c1.8-1.5,3.4-3.1,4.9-4.9
					C43.9,72.1,44.2,72.4,44,72.5L44,72.5z"/>
			</g>
			<g>
				<path class="st0" d="M40.4,54.1c-3,2-2.9,6-2.8,9.1c0.1,2.4,0.4,6.3-2.4,7.5c0-0.1,0-0.2,0-0.3c1.2,0.6,2.5,0.9,3.8,1
					c0.2,0,0.2,0.4,0,0.3c-1.4-0.1-2.7-0.4-4-1c-0.1,0-0.1-0.2,0-0.3c1.6-0.7,2.1-2.4,2.3-3.9c0.2-1.8,0-3.6,0-5.4
					c0-2.7,0.6-5.7,3-7.4C40.4,53.7,40.6,54,40.4,54.1L40.4,54.1z"/>
			</g>
			<g>
				<path class="st0" d="M61.3,66c-0.7,0.5-1.6,0.6-2.3,0.2c-0.2-0.1,0-0.4,0.2-0.3c0.4,0.2,1.5,0.7,1.5,1.3s-0.9,0.4-1.1,0.8
					c0-0.1-0.1-0.2-0.1-0.2c0.3,0.1,0.5,0.2,0.6,0.5c0.1,0.4-0.4,1.1-0.2,1.3c-0.1,0-0.2,0-0.3,0.1c0.2-0.5,0.6-0.8,1.2-0.9
					c0.2,0,0.2,0.3,0,0.3c-0.4,0-0.7,0.3-0.8,0.7c0,0.1-0.2,0.2-0.3,0.1c-0.2-0.1-0.2-0.3-0.2-0.5c0-0.3,0.7-1.1,0-1.2
					c-0.1,0-0.1-0.1-0.1-0.2c0.1-0.3,0.4-0.3,0.7-0.4c0.2-0.1,0.2,0,0.2-0.2c0-0.2,0-0.3-0.2-0.4c-0.3-0.2-0.6-0.4-0.9-0.6
					c0-0.1,0.1-0.2,0.2-0.3c0.6,0.4,1.3,0.3,1.9-0.1C61.3,65.6,61.5,65.9,61.3,66L61.3,66z"/>
			</g>
			<g>
				<path class="st0" d="M102.1,74.4c0.9,0.5,1.8,0.9,2.7,1.4c0.2,0.1,0,0.4-0.2,0.3c-0.9-0.5-1.8-1-2.7-1.4
					C101.8,74.6,101.9,74.3,102.1,74.4L102.1,74.4z"/>
			</g>
			<g>
				<path class="st0" d="M102,64.9c2.2,1.2,4.4,2.4,6.6,3.5c0.2,0.1,0,0.4-0.2,0.3c-2.2-1.2-4.4-2.4-6.6-3.5
					C101.6,65.1,101.8,64.8,102,64.9L102,64.9z"/>
			</g>
			<g>
				<path class="st0" d="M106.7,68.4c0-0.1,0.1-0.2,0.2-0.3c0,0,0-0.1,0.1-0.1c0,0,0,0,0,0c0,0,0,0,0,0c0,0,0,0,0,0c0,0,0,0.1,0,0.1
					c0,0,0,0,0,0.1l0,0c0,0,0,0,0.1,0c0.1,0,0.1,0,0.1,0c0,0,0,0,0,0l0,0c0,0,0,0-0.1,0.1c-0.1,0.1-0.2,0.1-0.2,0
					c-0.1-0.1-0.1-0.2,0-0.2c0.1-0.1,0.2-0.2,0.3-0.2c0.2,0,0.1,0.2,0.1,0.3c-0.1,0.2-0.2,0.3-0.3,0.4
					C106.9,68.8,106.6,68.6,106.7,68.4L106.7,68.4z"/>
			</g>
			<g>
				<path class="st0" d="M100.7,68.9c0.6-1.2,1.1-2.5,1.5-3.8c0.1-0.2,0.4-0.1,0.3,0.1c-0.4,1.3-0.9,2.6-1.5,3.9
					C100.9,69.3,100.6,69.1,100.7,68.9L100.7,68.9z"/>
			</g>
			<g>
				<path class="st0" d="M100.1,66.6c0.4-0.7,0.8-1.3,1.3-1.9c0.1-0.2,0.4,0,0.3,0.2c-0.4,0.6-0.9,1.3-1.3,1.9
					C100.3,66.9,100,66.8,100.1,66.6L100.1,66.6z"/>
			</g>
			<g>
				<path class="st0" d="M104.7,75.6c1.7-2.1,3-4.5,3.9-7c0.1-0.2,0.4-0.1,0.3,0.1c-0.9,2.6-2.2,5-3.9,7.2
					C104.8,76,104.6,75.8,104.7,75.6L104.7,75.6z"/>
			</g>
			<g>
				<path class="st0" d="M103.9,67.7c0.2-0.4,0.3-0.8,0.4-1.2c0-0.2,0.4-0.2,0.4,0c0,0.5-0.2,0.9-0.4,1.3
					C104.1,68.1,103.9,67.9,103.9,67.7L103.9,67.7z"/>
			</g>
			<g>
				<path class="st0" d="M101.5,64.7c0.1-0.1,0.3-0.1,0.4,0c0.1,0.1,0.1,0.3,0,0.4c0,0.1-0.2,0.1-0.2,0c-0.1-0.1,0-0.2,0-0.2
					c0,0,0,0.1,0,0.1c0,0,0,0,0,0c0,0,0,0,0,0l0,0c0,0,0,0,0,0c0,0,0,0,0,0c0,0,0.1,0,0,0c-0.1,0.1-0.2,0.1-0.2,0
					C101.4,64.9,101.4,64.8,101.5,64.7L101.5,64.7z"/>
			</g>
			<g>
				<path class="st0" d="M101.4,64.7c0.4-1.3,0.5-2.7,0.2-4.1c0-0.2,0.3-0.3,0.3-0.1c0.2,1.4,0.2,2.8-0.2,4.3
					C101.7,65,101.3,64.9,101.4,64.7L101.4,64.7z"/>
			</g>
			<g>
				<path class="st0" d="M100.8,55.4c-0.3-0.1-0.5,0.6-0.5,0.7c0,0.2-0.1,0.4-0.1,0.7c0,0.4,0,0.7-0.1,1.1c0,0.8,0,1.5,0.1,2.2
					c0.2,1.6,0.6,3.1,1.3,4.6c0.1,0.2-0.2,0.4-0.3,0.2c-0.8-1.8-1.3-3.8-1.4-5.8c0-0.6-0.3-4.4,1.1-3.9
					C101.1,55.2,101,55.5,100.8,55.4L100.8,55.4z"/>
			</g>
			<g>
				<path class="st0" d="M101.4,55.6c-0.8,2.9-0.8,6,0.3,8.8c0.1,0.2-0.3,0.3-0.3,0.1c-1-2.9-1.1-6-0.3-9
					C101.1,55.3,101.4,55.4,101.4,55.6L101.4,55.6z"/>
			</g>
			<g>
				<path class="st0" d="M102.8,60.1c-0.1,0.8,0.1,1.7,0,2.6c-0.1,0.8-0.4,1.6-0.8,2.4c-0.1,0.2-0.4,0-0.3-0.2
					c0.4-0.8,0.7-1.6,0.8-2.5c0.1-0.8-0.1-1.5,0-2.3C102.5,59.9,102.8,59.8,102.8,60.1L102.8,60.1z"/>
			</g>
			<g>
				<path class="st0" d="M108.7,68.8c0.1-0.2-0.6-1-0.7-1.2c-0.3-0.2-0.6-0.4-0.8-0.6c-0.5-0.3-1.1-0.6-1.6-0.9
					c-1.2-0.6-2.4-1.2-3.5-1.9c-0.2-0.1,0-0.4,0.2-0.3c1.6,0.8,3.2,1.7,4.8,2.5c0.6,0.3,1.2,0.6,1.6,1.2c0.2,0.3,0.6,0.8,0.3,1.2
					c0,0.1-0.1,0.1-0.2,0.1c-0.1,0-0.2,0-0.2-0.2c0-0.1,0-0.1,0-0.2c0,0,0,0,0,0C108.6,68.4,108.9,68.6,108.7,68.8L108.7,68.8z"/>
			</g>
			<g>
				<path class="st0" d="M100.6,63.8c0,0-0.2-0.1-0.3-0.1c-0.1,0.1-0.1,0.2-0.2,0.3c0.1,0,0.1,0.1,0.2,0.1c0.2,0.1,0.4,0.2,0.5,0.4
					c0.4,0.2,0.8,0.4,1.2,0.6c0.2,0.1,0.1,0.4-0.1,0.3c-0.4-0.2-0.9-0.4-1.3-0.6c-0.3-0.2-0.9-0.4-1-0.8c-0.1-0.2,0-0.4,0.2-0.5
					c0.3-0.2,0.6,0,0.9,0.1C100.9,63.6,100.8,63.9,100.6,63.8L100.6,63.8z"/>
			</g>
			<g>
				<path class="st0" d="M108.7,68.4c0.7,0.4,1.5,0.6,1.3,1.5c-0.2,1.1-1,2.1-1.5,3c-0.6,1.2-1.2,2.4-2,3.5c-0.7,1-1.5,0-2.2-0.5
					c-0.2-0.1,0-0.4,0.2-0.3c0.3,0.2,0.7,0.6,1.1,0.8c0.6,0.2,0.9-0.6,1.1-1c0.4-0.8,0.9-1.6,1.3-2.4c0.4-0.7,0.8-1.4,1.2-2.2
					c0.2-0.4,0.6-1,0.3-1.4c-0.2-0.3-0.8-0.5-1.1-0.7C108.3,68.6,108.5,68.3,108.7,68.4L108.7,68.4z"/>
			</g>
			<g>
				<g>
					<path class="st0" d="M44.6,50.1c-2.1,0.3-4.3-0.1-6.2-0.9c-0.2-0.1,0-0.4,0.2-0.3c1.9,0.8,4,1.2,6.1,0.9
						C44.8,49.7,44.8,50,44.6,50.1L44.6,50.1z"/>
				</g>
				<g>
					<path class="st0" d="M44.6,49.9c0.7,8.3,2,16.5,2.8,24.8c0,0.2-0.3,0.2-0.4,0c-0.8-8.3-2-16.5-2.8-24.8
						C44.2,49.7,44.6,49.7,44.6,49.9L44.6,49.9z"/>
				</g>
				<g>
					<path class="st0" d="M44.7,59c-0.1-0.4-0.3-0.8-0.6-1.1c-0.1-0.2,0.1-0.4,0.2-0.2c0.3,0.4,0.5,0.8,0.7,1.3
						C45.1,59.2,44.8,59.3,44.7,59L44.7,59z"/>
				</g>
				<g>
					<path class="st0" d="M43.5,57c-0.3-0.4-0.5-0.7-0.8-1c-0.1-0.2,0.2-0.3,0.3-0.2c0.3,0.4,0.5,0.7,0.8,1
						C44,56.9,43.7,57.1,43.5,57L43.5,57z"/>
				</g>
				<g>
					<path class="st0" d="M41.8,54.9c-0.3-0.5-0.7-0.9-1.2-1.3c-0.2-0.1,0.1-0.4,0.2-0.2c0.5,0.4,0.9,0.8,1.3,1.3
						C42.2,54.9,41.9,55.1,41.8,54.9L41.8,54.9z"/>
				</g>
				<g>
					<path class="st0" d="M45.3,64.5c-0.1-0.2-0.2-0.4-0.3-0.6c0-0.1-0.1-0.3-0.2-0.3c-0.1,0-0.3,0.1-0.3,0.2c0,0.3,0.1,0.6,0,0.9
						c-0.2,0.4-0.8,0.5-1.1,0.1c-0.1-0.2,0.2-0.4,0.3-0.2c0.1,0,0.2,0,0.3,0.1c0.1,0,0.2-0.1,0.2-0.3c0-0.1,0-0.2,0-0.3
						c0-0.1,0-0.3,0-0.4c0-0.2,0.1-0.4,0.3-0.5c0.6-0.3,1,0.7,1.2,1.1C45.7,64.5,45.4,64.6,45.3,64.5L45.3,64.5z"/>
				</g>
				<g>
					<path class="st0" d="M43.8,59.3c-0.3,0.3-0.5,0.8-0.6,1.2c0,0.2-0.4,0.2-0.4,0c0.1-0.5,0.3-1,0.7-1.4
						C43.7,58.9,43.9,59.1,43.8,59.3L43.8,59.3z"/>
				</g>
				<g>
					<path class="st0" d="M43.8,60.8c-0.2-0.6-0.6-1-1.1-1.4c-0.2-0.1,0-0.4,0.2-0.3c0.6,0.4,1,0.9,1.2,1.6
						C44.2,60.9,43.9,61,43.8,60.8L43.8,60.8z"/>
				</g>
				<g>
					<path class="st0" d="M43.8,61.1c0,0.1,0,0.3,0,0.4c0,0.2-0.4,0.2-0.4,0c0-0.1,0-0.3,0-0.4C43.5,60.9,43.8,60.9,43.8,61.1
						L43.8,61.1z"/>
				</g>
				<g>
					<path class="st0" d="M43.7,62.5c0,0.1,0,0.2-0.1,0.3c0,0.1-0.1,0.1-0.2,0.1s-0.1-0.1-0.1-0.2c0-0.1,0-0.2,0.1-0.3
						c0-0.1,0.1-0.1,0.2-0.1C43.7,62.3,43.7,62.4,43.7,62.5L43.7,62.5z"/>
				</g>
				<g>
					<path class="st0" d="M46.3,71.8c0-0.4-0.1-0.7-0.4-0.9c-0.1-0.2,0.2-0.3,0.3-0.2c0.2,0.3,0.4,0.7,0.4,1.1
						C46.7,72,46.3,72,46.3,71.8L46.3,71.8z"/>
				</g>
				<g>
					<path class="st0" d="M45.4,69.9c-0.1-0.2-0.2-0.4-0.4-0.5c-0.2-0.1,0-0.4,0.2-0.3c0.3,0.2,0.4,0.4,0.5,0.7
						C45.8,70,45.5,70.1,45.4,69.9L45.4,69.9z"/>
				</g>
			</g>
			<g>
				<path class="st0" d="M109.7,69.4c-0.4-0.7-0.9-1.4-1.6-1.8c-0.2-0.1,0-0.4,0.2-0.3c0.7,0.5,1.3,1.2,1.8,2
					C110.1,69.4,109.8,69.6,109.7,69.4L109.7,69.4z"/>
			</g>
			<g>
				<path class="st0" d="M100,64c-0.1,0.2-0.3,0.4-0.4,0.7c-0.1,0.2-0.4,0-0.3-0.2c0.1-0.2,0.3-0.4,0.4-0.7
					C99.8,63.7,100.1,63.8,100,64L100,64z"/>
			</g>
			<g>
				<path class="st0" d="M107,68.6c-0.1,0.1-0.1,0.3-0.2,0.4c0,0.1-0.2,0.1-0.2,0.1c-0.1,0-0.1-0.1-0.1-0.2c0.1-0.1,0.1-0.3,0.2-0.4
					c0-0.1,0.2-0.1,0.2-0.1C107,68.4,107.1,68.5,107,68.6L107,68.6z"/>
			</g>
			<g>
				<path class="st0" d="M104.3,73.5c0,0.1-0.1,0.2-0.1,0.3c-0.1,0.2-0.4,0-0.3-0.2c0-0.1,0.1-0.2,0.1-0.3
					C104.1,73.2,104.4,73.3,104.3,73.5L104.3,73.5z"/>
			</g>
			<g>
				<path class="st0" d="M102.6,69.3c-0.1,0-0.3-0.1-0.4-0.1c-0.2-0.1-0.1-0.4,0.1-0.3c0.1,0,0.3,0.1,0.4,0.1
					C102.9,69,102.8,69.3,102.6,69.3L102.6,69.3z"/>
			</g>
			<g>
				<g>
					<path class="st0" d="M100.7,68.4c0.3-0.3,0.6-0.6,1-0.9c0.2-0.1,0.4,0.2,0.2,0.3c-0.4,0.2-0.7,0.5-0.9,0.8
						C100.8,68.8,100.5,68.6,100.7,68.4L100.7,68.4z"/>
				</g>
				<g>
					<path class="st0" d="M102,67.6c1.9-0.5,3.7,1.1,3.8,2.9c0.1,2-2.2,3.3-4,2.7c-0.2-0.1-0.1-0.4,0.1-0.3c1.6,0.5,3.7-0.7,3.6-2.4
						c-0.1-1.6-1.6-3.1-3.4-2.6C101.9,68,101.8,67.6,102,67.6L102,67.6z"/>
				</g>
				<g>
					<path class="st0" d="M105.3,69.6c-1.1-1.2-2.9-1.4-4.3-0.5c-0.2,0.1-0.4-0.2-0.2-0.3c1.5-1,3.5-0.8,4.7,0.5
						C105.7,69.5,105.5,69.7,105.3,69.6L105.3,69.6z"/>
				</g>
				<g>
					<path class="st0" d="M101.9,68.4c0-0.1,0-0.2-0.1-0.3c-0.1-0.2,0.2-0.4,0.3-0.2c0.1,0.1,0.1,0.3,0.1,0.5
						C102.2,68.6,101.9,68.6,101.9,68.4L101.9,68.4z"/>
				</g>
				<g>
					<path class="st0" d="M104.8,71c-0.1,0.5-1,1.7-1.6,1.1c-0.3-0.2,0-0.7,0.1-1c0.3-0.6,0.6-1.1,0.6-1.8c0-0.1,0.1-0.2,0.2-0.2
						c1,0.2,0.9,1.3,0.7,2c-0.1,0.2-0.4,0.1-0.3-0.1c0.2-0.6,0.4-1.5-0.4-1.6c0.1,0,0.1-0.1,0.2-0.2c0,0.6-0.1,1.1-0.4,1.6
						c-0.1,0.1-0.2,0.3-0.2,0.4c0,0.1-0.1,0.2-0.1,0.3c0,0.2,0.1,0.3,0.2,0.2c0.4,0,0.8-0.6,0.8-0.9C104.6,70.7,104.9,70.8,104.8,71
						L104.8,71z"/>
				</g>
				<g>
					<path class="st0" d="M103.2,70.3c0,0.4-0.5,0.5-0.8,0.2c-0.3-0.4,0-0.8,0.3-1c0,0,0.1-0.1,0.2,0
						C103.2,69.6,103.4,69.9,103.2,70.3c-0.1,0.1-0.4-0.1-0.3-0.3c0.1-0.1,0-0.3-0.1-0.3c0,0,0.1,0,0.2,0c-0.1,0.1-0.3,0.2-0.3,0.4
						c0,0,0,0.2,0.1,0.2c0,0,0.1,0,0.1,0C102.9,70.1,103.2,70.1,103.2,70.3L103.2,70.3z"/>
				</g>
				<g>
					<path class="st0" d="M101.1,70c0.3-0.8,0.9-1.2,1.8-1.3c0.8-0.1,1.6,0,2.1,0.7c0.1,0.2-0.2,0.4-0.3,0.2
						c-0.4-0.6-1.1-0.6-1.8-0.5c-0.7,0.1-1.2,0.4-1.5,1.1C101.4,70.3,101.1,70.2,101.1,70L101.1,70z"/>
				</g>
				<g>
					<path class="st0" d="M104.9,69.1c0.6,0.9,0.7,2.1-0.1,2.9c-0.8,0.9-2.1,1-3.1,0.3c-0.2-0.1,0-0.4,0.2-0.3
						c0.8,0.6,2,0.5,2.7-0.3c0.7-0.8,0.6-1.8,0-2.5C104.5,69.1,104.8,68.9,104.9,69.1L104.9,69.1z"/>
				</g>
			</g>
			<g>
				<path class="st0" d="M107.5,67.8c0.3-0.3-0.4-0.6-0.6-0.7c-0.3-0.1-0.5-0.1-0.8-0.1c0-0.1,0.1-0.1,0.2-0.2
					c0.2,0.7,0.9,0.8,1.5,1c0.2,0,0.1,0.4-0.1,0.3c-0.7-0.2-1.5-0.4-1.7-1.2c0-0.1,0-0.2,0.2-0.2c0.5,0,1,0.1,1.5,0.4
					c0.3,0.2,0.5,0.7,0.2,1C107.6,68.1,107.4,67.9,107.5,67.8L107.5,67.8z"/>
			</g>
			<g>
				<path class="st0" d="M108.4,69.3c-0.4-0.4-0.9-0.7-1.5-0.7c-0.2,0-0.2-0.4,0-0.3c0.7,0,1.3,0.3,1.7,0.8
					C108.8,69.2,108.6,69.5,108.4,69.3L108.4,69.3z"/>
			</g>
			<g>
				<path class="st0" d="M108.2,70.3c-0.4-0.1-0.8-0.3-1.1-0.6c-0.2-0.1,0.1-0.4,0.2-0.2c0.3,0.3,0.6,0.4,0.9,0.5
					C108.5,70,108.4,70.3,108.2,70.3L108.2,70.3z"/>
			</g>
			<g>
				<path class="st0" d="M100.5,60.6c0,0.5,0,1.1,0.3,1.6c0.1,0.2-0.3,0.3-0.3,0.1c-0.2-0.5-0.3-1.1-0.3-1.7
					C100.2,60.4,100.6,60.4,100.5,60.6L100.5,60.6z"/>
			</g>
			<g>
				<path class="st0" d="M104.3,73.9c-0.2,0.4-0.5,0.9-0.7,1.3c-0.1,0.2-0.4,0-0.3-0.2c0.4-0.8,0.9-1.7,1.3-2.5
					c0.1-0.2,0.4,0,0.3,0.2c-0.4,0.8-0.9,1.7-1.3,2.5c-0.1,0-0.2-0.1-0.3-0.2c0.2-0.4,0.5-0.9,0.7-1.3
					C104,73.5,104.3,73.7,104.3,73.9L104.3,73.9z"/>
			</g>
			<g>
				<path class="st0" d="M106.8,68.9c-0.2,0.8-0.6,1.5-1.1,2.2c-0.1,0.2-0.4,0-0.3-0.2c0.4-0.7,0.8-1.4,1-2.2
					C106.6,68.6,106.9,68.7,106.8,68.9L106.8,68.9z"/>
			</g>
			<g>
				<path class="st0" d="M107.1,69.5c-0.1,0-0.3-0.1-0.4-0.1c-0.1,0-0.1-0.1-0.1-0.2s0.1-0.1,0.2-0.1c0.1,0,0.3,0.1,0.4,0.1
					c0.1,0,0.1,0.1,0.1,0.2C107.3,69.5,107.2,69.5,107.1,69.5L107.1,69.5z"/>
			</g>
			<g>
				<path class="st0" d="M107.6,68.8c0,0.2-0.1,0.4-0.1,0.5c0,0.2-0.4,0.1-0.3-0.1c0-0.2,0.1-0.4,0.1-0.5
					C107.3,68.5,107.6,68.6,107.6,68.8L107.6,68.8z"/>
			</g>
			<g>
				<path class="st0" d="M103.9,74.1c-0.5-0.2-1-0.4-1.5-0.6c-0.2-0.1,0-0.4,0.2-0.3c0.5,0.2,1,0.4,1.5,0.6
					C104.3,73.9,104.1,74.2,103.9,74.1L103.9,74.1z"/>
			</g>
			<g>
				<path class="st0" d="M52.4,71.8c-0.9,0.1-1.8,0.2-2.7,0.1c-0.2,0-0.2-0.4,0-0.3c0.9,0.1,1.7,0.1,2.6-0.1
					C52.5,71.4,52.6,71.7,52.4,71.8L52.4,71.8z"/>
			</g>
			<g>
				<path class="st0" d="M44.7,71.5c-0.9-0.1-1.9-0.3-2.8-0.5c-0.2,0-0.1-0.4,0.1-0.3c0.9,0.2,1.8,0.4,2.7,0.4
					C44.9,71.2,44.9,71.6,44.7,71.5L44.7,71.5z"/>
			</g>
			<g>
				<path class="st0" d="M43.6,87.2c-1.6-0.4-3.1-1.1-4.6-1.8c-1.3-0.7-2.7-1.4-3.4-2.7c-0.1-0.2,0.2-0.4,0.3-0.2
					c0.7,1.3,2.1,2,3.5,2.7c1.4,0.7,2.8,1.2,4.3,1.6C43.9,87,43.8,87.3,43.6,87.2L43.6,87.2z"/>
			</g>
			<g>
				<path class="st0" d="M40.1,82.3c-1.4-0.1-2.2,1.3-1.5,2.4c0.1,0.2-0.2,0.4-0.3,0.2c-0.9-1.3,0.1-3,1.7-2.9
					C40.3,81.9,40.3,82.3,40.1,82.3L40.1,82.3z"/>
			</g>
			<g>
				<path class="st0" d="M37.7,80.6c-1.1,0.6-1.4,2-0.7,3c0.1,0.2-0.2,0.4-0.3,0.2c-0.8-1.1-0.4-2.7,0.8-3.5
					C37.7,80.2,37.9,80.5,37.7,80.6L37.7,80.6z"/>
			</g>
			<g>
				<path class="st0" d="M40.5,54.8c-1.4,1-1.9,2.7-2,4.3c-0.2,1.6,0,3.2,0,4.7c0.1,2.3,0.3,5.3-2,6.8c-0.2,0.1-0.4-0.2-0.2-0.3
					c2.6-1.8,1.8-5.8,1.7-8.4c-0.1-2.5-0.1-5.9,2.3-7.5C40.5,54.4,40.7,54.7,40.5,54.8L40.5,54.8z"/>
			</g>
			<g>
				<path class="st0" d="M36.5,71c-0.2,0-0.3-0.3-0.1-0.3C36.7,70.6,36.8,70.9,36.5,71L36.5,71z"/>
			</g>
			<g>
				<path class="st0" d="M36.5,70.6c0.9,0.1,1.9,0.3,2.8,0.5c0.2,0,0.1,0.4-0.1,0.3c-0.9-0.2-1.8-0.4-2.7-0.5
					C36.3,70.9,36.3,70.6,36.5,70.6L36.5,70.6z"/>
			</g>
			<g>
				<path class="st0" d="M52.9,56.5c-1.2-1.6-2.9-2.6-4.8-2.9c-0.2,0-0.1-0.4,0.1-0.3c2,0.3,3.8,1.4,5,3.1
					C53.3,56.5,53,56.6,52.9,56.5L52.9,56.5z"/>
			</g>
			<g>
				<path class="st0" d="M52.4,71.9L52.4,71.9c0,0-0.1,0-0.2,0c0,0,0,0-0.1,0c0,0.1,0,0.1,0.1,0.2c-0.2-0.1-1.1,0.3-1.3,0.4
					c-0.2,0-0.3-0.2-0.2-0.3c0.3-0.3,0.7-0.5,1.2-0.5c0.2,0,0.2,0.3,0,0.3c-0.6,0.2-1.2,0.3-1.8,0.2c-0.2,0-0.2-0.3,0-0.3
					c0.4,0,0.8,0,1.2-0.1c0,0.1,0,0.2,0,0.3c-0.4-0.1-0.7-0.1-1,0.1c0-0.1,0-0.2,0-0.3c0.1,0.1,0.2,0.2,0.4,0.3
					c0.2,0.1,0.1,0.4-0.1,0.3c-0.4-0.1-0.7-0.2-0.9-0.5c0.1-0.1,0.2-0.1,0.3-0.2c0,0.1,0.1,0.2,0.2,0.3c-0.1,0-0.2,0.1-0.3,0.2
					c0,0-0.1,0-0.1,0c0-0.1,0-0.2,0-0.3c0.3,0.1,0.3,0.3,0.2,0.6c0,0-0.1,0.1-0.2,0c-0.2-0.1-0.4-0.3-0.3-0.5c0.1-0.2,0.3-0.1,0.5,0
					c0.1,0,0,0.1,0,0.2c0,0,0,0,0,0c0,0.1-0.2,0.1-0.3,0c-0.2-0.2-0.2-0.4-0.1-0.6c0.1-0.2,0.4,0,0.3,0.1c0,0.1-0.1,0.2-0.1,0.4
					c-0.1,0.2-0.4,0.1-0.3-0.1c0-0.1,0.1-0.2,0.1-0.4c0.1,0,0.2,0.1,0.3,0.1c0,0.1,0,0.1,0,0.2c-0.1,0-0.2,0-0.3,0c0,0,0,0,0,0
					c0,0.1,0,0.1,0,0.2c0.1,0,0.1,0,0.2,0c-0.1,0-0.1,0-0.2,0l0,0c-0.1,0-0.2-0.2,0-0.3c0.2-0.1,0.4-0.1,0.6,0.1
					c0.1,0.2-0.2,0.4-0.3,0.2c0-0.1-0.1-0.2-0.2-0.3c-0.1-0.2,0.1-0.3,0.3-0.2c0.2,0.2,0.5,0.4,0.8,0.4c0,0.1-0.1,0.2-0.1,0.3
					c-0.2-0.1-0.4-0.2-0.6-0.4c-0.1-0.1-0.1-0.2,0-0.3c0.4-0.2,0.8-0.3,1.2-0.1c0.2,0.1,0.1,0.3,0,0.3c-0.4,0-0.8,0-1.2,0.1
					c0-0.1,0-0.2,0-0.3c0.6,0.1,1.1,0,1.7-0.2c0,0.1,0,0.2,0,0.3c-0.4,0-0.6,0.2-0.9,0.4c0-0.1-0.1-0.2-0.2-0.3
					c0.4-0.1,0.7-0.3,1.1-0.4c0.2,0,0.2-0.1,0.4,0C52.5,71.8,52.5,71.9,52.4,71.9c0,0.2,0,0.2-0.1,0.2c-0.1,0-0.2,0-0.2-0.1l0,0
					C52,71.9,52.3,71.7,52.4,71.9L52.4,71.9z"/>
			</g>
			<g>
				<path class="st0" d="M50.7,72.4c0,0.1,0,0.3-0.1,0.4c-0.1,0.1-0.3,0.1-0.4,0c0.1-0.1,0.2-0.2,0.2-0.2c0,0-0.1-0.1-0.1,0
					c0,0,0,0,0,0.1c0,0,0,0,0,0c-0.1,0-0.2,0-0.2,0c-0.1,0-0.3-0.2-0.2-0.3c0-0.1,0.2-0.2,0.3-0.2c0.1,0.1,0.2,0.2,0.1,0.4
					c-0.2,0.2-0.4-0.1-0.2-0.2l0,0c0,0,0,0,0,0.1c0,0.2,0.1,0.2,0.2,0l0,0h0c0.1,0,0.1,0,0.2,0c0.1,0,0.3,0.1,0.3,0.3
					c0.1,0.3-0.3,0.4-0.5,0.2c-0.1-0.1,0.1-0.3,0.2-0.2c0,0,0,0,0,0c0,0,0,0,0,0c0,0,0,0,0,0c0-0.1,0-0.2,0.1-0.2
					C50.6,72.3,50.7,72.3,50.7,72.4L50.7,72.4z"/>
			</g>
			<g>
				<path class="st0" d="M44.3,71.6c0.1,0.1,0.2,0.2,0.4,0.3c-0.1,0.1-0.2,0.2-0.2,0.2c-0.2-0.2-0.3-0.3-0.3-0.6
					c0-0.2,0.2-0.3,0.3-0.2c0.1,0.1,0.2,0.2,0.3,0.4c0,0.1-0.1,0.2-0.3,0.2c-0.6-0.3-1.2-0.4-1.8-0.5c0-0.1,0.1-0.2,0.1-0.3
					c0.4,0.1,0.7,0.2,1,0.3c0,0.1-0.1,0.2-0.2,0.3c-0.1-0.1-0.3-0.2-0.4-0.1c0-0.1,0-0.2,0-0.3c0.3,0.1,0.5,0.2,0.8,0.3
					c0.2,0,0.2,0.3,0,0.3c-0.2,0.1-0.4,0.1-0.7,0c0-0.1,0.1-0.2,0.1-0.3c0.2,0.1,0.4,0.2,0.6,0.3c0,0.1-0.1,0.2-0.1,0.3
					c-0.3-0.1-0.6-0.2-0.9-0.4c-0.2-0.1-0.1-0.4,0.1-0.3c0.4,0.1,0.7,0.2,1.1,0.3c0,0.1-0.1,0.2-0.1,0.3c-0.7-0.2-1.5-0.5-2.2-0.7
					c0-0.1,0.1-0.2,0.1-0.3c0.1,0.1,0.2,0.1,0.4,0.2c0.2,0.1,0,0.4-0.2,0.3c-0.1-0.1-0.2-0.1-0.4-0.2c-0.2-0.1,0-0.4,0.1-0.3
					c0.7,0.2,1.5,0.5,2.2,0.7c0.2,0.1,0.1,0.4-0.1,0.3c-0.4-0.1-0.7-0.2-1.1-0.3c0-0.1,0.1-0.2,0.1-0.3c0.3,0.1,0.6,0.2,0.9,0.4
					c0.2,0.1,0.1,0.4-0.1,0.3c-0.3,0-0.5-0.1-0.7-0.3c-0.1-0.1-0.1-0.4,0.1-0.3c0.2,0.1,0.3,0.1,0.5,0c0,0.1,0,0.2,0,0.3
					c-0.3-0.1-0.5-0.2-0.8-0.3c-0.2-0.1-0.2-0.3,0-0.3c0.3,0,0.5,0.1,0.7,0.2c0.1,0.1,0,0.3-0.2,0.3c-0.4-0.1-0.7-0.2-1-0.3
					c-0.2-0.1-0.1-0.4,0.1-0.3c0.7,0.1,1.3,0.3,1.9,0.5c-0.1,0.1-0.2,0.1-0.3,0.2C44.4,71.7,44.3,71.6,44.3,71.6
					c0,0,0.1-0.1,0.2-0.2c0,0.2,0.1,0.3,0.2,0.4c0.1,0.2-0.1,0.4-0.2,0.2c-0.1-0.1-0.2-0.2-0.4-0.3C43.9,71.7,44.2,71.5,44.3,71.6
					L44.3,71.6z"/>
			</g>
			<g>
				<path class="st0" d="M52.2,71.9C52.2,72,52.1,72,52,72.1c-0.1,0.1-0.2,0.1-0.2,0c-0.1-0.1-0.1-0.2,0-0.2
					c0.1-0.1,0.1-0.1,0.2-0.2c0.1-0.1,0.2-0.1,0.2,0C52.3,71.7,52.3,71.8,52.2,71.9L52.2,71.9z"/>
			</g>
			<g>
				<path class="st0" d="M70.7,85c0,0.2-0.1,0.4-0.1,0.5c0,0.2-0.4,0.1-0.3-0.1c0-0.2,0.1-0.4,0.1-0.5C70.4,84.7,70.7,84.8,70.7,85
					L70.7,85z"/>
			</g>
			<g>
				<path class="st0" d="M69.8,84.8c0,0.1-0.1,0.2-0.1,0.3c-0.1,0.2-0.4,0.1-0.3-0.1c0-0.1,0.1-0.2,0.1-0.3
					C69.5,84.5,69.8,84.6,69.8,84.8L69.8,84.8z"/>
			</g>
			<g>
				<path class="st0" d="M71.1,86.5c0.1-0.1,0.2-0.1,0.2-0.2c0.1,0.1,0.2,0.2,0.2,0.2c-1.7,1.4-4.2,0.4-4.3-1.7c0-0.2,0.3-0.2,0.4,0
					c0.1,1.8,2.3,2.7,3.8,1.5c0.2-0.1,0.4,0.1,0.2,0.2c-0.1,0.1-0.2,0.1-0.2,0.2C71.2,86.9,71,86.7,71.1,86.5L71.1,86.5z"/>
			</g>
			<g>
				<path class="st0" d="M67.8,94.5c-0.1-0.4-0.2-0.8-0.4-1.2c0-0.1-0.1-0.3-0.2-0.4c-0.2-0.2-0.4-0.1-0.7,0c-0.1,0-0.6,0.1-0.7,0.3
					c-0.1,0.2,0.1,0.4,0.1,0.4c0.3,0.4,0.5,0.7,0.8,1.1c0.1,0.2-0.2,0.4-0.3,0.2c-0.2-0.3-0.4-0.6-0.7-0.9c-0.1-0.2-0.4-0.4-0.4-0.7
					c0-0.4,0.6-0.5,0.9-0.6c0.4-0.2,0.8-0.4,1.1,0c0.4,0.5,0.6,1.1,0.8,1.7C68.2,94.6,67.9,94.6,67.8,94.5L67.8,94.5z"/>
			</g>
			<g>
				<path class="st0" d="M66.2,94.4c-0.3,0.3-0.6,0.4-1,0.4c-0.2,0-0.2-0.4,0-0.3c0.3,0,0.5,0,0.8-0.3C66.1,94,66.4,94.3,66.2,94.4
					L66.2,94.4z"/>
			</g>
			<g>
				<path class="st0" d="M68.3,92.6c-0.2,0.1-0.4,0.2-0.6,0.3s-0.4-0.2-0.2-0.3c0.2-0.1,0.4-0.2,0.6-0.3
					C68.4,92.2,68.5,92.5,68.3,92.6L68.3,92.6z"/>
			</g>
			<g>
				<path class="st0" d="M65.9,92.6c0-0.1-0.1-0.1-0.1-0.2c0.1,0,0.1,0,0.2,0c-0.5,0.4-1,0.7-1.6,0.8c-0.2,0-0.3-0.3-0.1-0.3
					c0.5-0.1,1-0.4,1.5-0.8c0.1,0,0.1-0.1,0.2,0c0.2,0.1,0.3,0.3,0.3,0.5C66.2,92.8,65.8,92.8,65.9,92.6L65.9,92.6z"/>
			</g>
			<g>
				<path class="st0" d="M82,88.2c-0.9-0.1-1.8,0-2.7,0.5c-0.2,0.1-0.4-0.2-0.2-0.3c0.9-0.5,1.9-0.7,2.9-0.6
					C82.3,87.9,82.2,88.2,82,88.2L82,88.2z"/>
			</g>
			<g>
				<path class="st0" d="M82.2,87.4c-0.9-0.2-1.8,0-2.6,0.4c-0.2,0.1-0.4-0.2-0.2-0.3c0.8-0.5,1.8-0.7,2.8-0.4
					C82.5,87.1,82.4,87.4,82.2,87.4L82.2,87.4z"/>
			</g>
			<g>
				<path class="st0" d="M80.7,87c-0.2-0.5-0.7-0.9-1.2-1.1c-0.2-0.1-0.1-0.4,0.1-0.3c0.6,0.2,1.1,0.7,1.4,1.3
					C81.1,87,80.8,87.2,80.7,87L80.7,87z"/>
			</g>
			<g>
				<path class="st0" d="M81.7,86.5c-0.3,0-0.5,0-0.8,0c-0.2,0-0.2-0.4,0-0.3c0.3,0,0.5,0,0.8,0C81.9,86.1,81.9,86.5,81.7,86.5
					L81.7,86.5z"/>
			</g>
			<g>
				<path class="st0" d="M81.8,85.3c-0.7,0-1.2-0.5-1.5-1.1c-0.1-0.2,0.3-0.3,0.3-0.1c0.2,0.5,0.6,0.8,1.2,0.8
					C82,85,82,85.3,81.8,85.3L81.8,85.3z"/>
			</g>
			<g>
				<path class="st0" d="M81.2,85.3c0,0,0,0.1,0,0.1c0,0.1-0.1,0.2-0.2,0.2c-0.1,0-0.2-0.1-0.2-0.2c0,0,0-0.1,0-0.1
					c0-0.1,0.1-0.2,0.2-0.2C81.1,85.2,81.2,85.2,81.2,85.3L81.2,85.3z"/>
			</g>
			<g>
				<path class="st0" d="M80.8,85c-0.1,0.1-0.1,0.1-0.2,0.2c-0.1,0.1-0.2,0.1-0.2,0c-0.1-0.1-0.1-0.2,0-0.2c0.1-0.1,0.1-0.1,0.2-0.2
					c0.1-0.1,0.2-0.1,0.2,0C80.8,84.8,80.8,85,80.8,85L80.8,85z"/>
			</g>
			<g>
				<path class="st0" d="M80.5,85.1c-0.2-0.3-0.4-0.4-0.7-0.5c-0.2,0-0.1-0.4,0.1-0.3c0.4,0.1,0.7,0.3,0.9,0.6
					C80.9,85.1,80.6,85.3,80.5,85.1L80.5,85.1z"/>
			</g>
		</g>
		<g>
			<g>
				<path d="M62.7,16.4c17-4.6,33.7,2.3,37.2,15.3S92.5,59,75.5,63.6c-10.1,2.7-20,1.4-27.2-2.7c0-0.2,0-0.4-0.1-0.5
					c7.1,4.3,17.1,5.6,27.1,2.9c16.8-4.5,27.7-18.6,24.2-31.4c-3.5-12.8-20-19.5-36.8-15C48.2,20.7,38.1,31.9,38,43.2
					c-0.1,0-0.3,0-0.4,0C37.7,31.8,47.9,20.4,62.7,16.4z"/>
			</g>
			<g>
				<path d="M63.8,17.8c15.9-4.3,31.7,2.8,35.3,15.8c3.5,13-6.6,27.1-22.5,31.4c-10.7,2.9-21.3,0.6-28.2-5.1c0-0.1,0-0.2,0-0.3
					c0-0.1,0-0.2,0-0.2c6.8,5.8,17.4,8.1,28.1,5.2c15.7-4.2,25.7-18.1,22.2-30.9c-3.5-12.8-19-19.8-34.8-15.5
					C50.6,21.8,41.5,32.3,41,43.1c-0.1,0-0.3,0-0.4,0C41,32,50.3,21.4,63.8,17.8z"/>
			</g>
		</g>
	</g>
	<g>
		<g>
			<path d="M45.1,103.4c-2.7,1.8-5.3,3.6-8,5.4c-2.3,1.6-4.7,3.1-6.8,5c-0.1,0.1,0.1,0.3,0.2,0.2c2.2-2,4.7-3.5,7.1-5.2
				c2.6-1.7,5.1-3.5,7.6-5.2C45.5,103.5,45.3,103.3,45.1,103.4L45.1,103.4z"/>
		</g>
	</g>
	<g>
		<g>
			<path d="M109.2,68.2c3.2-2.6,6.5-5.1,9.9-7.5c0.2-0.1,0-0.4-0.1-0.3c-3.4,2.4-6.7,4.9-9.9,7.5C108.9,68.2,109.1,68.4,109.2,68.2
				L109.2,68.2z"/>
		</g>
	</g>
	<g>
		<g>
			<path d="M23.4,103c0.6-0.2,1.3-0.1,1.8-0.6c0.7-0.8-0.5-2,0.6-2.7c1.1-0.7,3.8,0.7,4.3-0.9c0.4-1.5,0.9-2.9,1.6-4.3
				c0.4-0.8,0.8-1.3,0.6-2.3c-0.2-1.3-0.1-2.1,1-3c0.5-0.4,1.1-0.7,1.7-1c1.2-0.6,2.5-1.1,3.7-1.7c0.2-0.1,0-0.4-0.1-0.3
				c-1.2,0.6-2.4,1.1-3.6,1.6c-0.8,0.4-2.1,0.9-2.7,1.7c-0.6,0.8-0.4,1.7-0.3,2.5c0.3,1.4-0.9,2.9-1.4,4.1c-0.3,0.7-0.4,1.3-0.7,2
				c-0.3,0.8-0.5,0.9-1.4,0.9c-0.8,0-1.5-0.2-2.3,0c-0.5,0.1-1.1,0.5-1.2,1.1c0,0.1,0,0.3,0,0.4c-0.1,0.9,0.4-0.4-0.2,1.1
				c-0.4,1,0,0.5-0.7,0.8c-0.2,0.1-0.5,0.1-0.7,0.2C23.2,102.8,23.2,103.1,23.4,103L23.4,103z"/>
		</g>
	</g>
	<g>
		<g>
			<path d="M104.2,57.5c0.3-0.7,1.5-0.4,2-0.3c0.5,0.2,1,0.5,1.5,0.8c0.5,0.3,1.1,0.5,1.7,0.4c0.7-0.2,0.9-0.4,1.1-1
				c0.4-1.1,1.2-1.8,1.8-2.7c0.2-0.3,0.4-0.7,0.6-1c0.2-0.5,0.2-0.6,0.8-0.6c0.7-0.1,1.3-0.1,2-0.3c1.3-0.4,1.8-1.3,1.8-2.6
				c0-0.2-0.3-0.2-0.3,0c0,2.5-2.3,2.5-4.2,2.7c-0.1,0-0.1,0-0.1,0.1c-0.3,1.4-1.2,2.2-2,3.2c-0.3,0.4-0.4,0.7-0.6,1.2
				c-0.3,0.9-1.2,0.9-2,0.6c-1-0.4-3.5-2.2-4.3-0.6C103.9,57.5,104.1,57.6,104.2,57.5L104.2,57.5z"/>
		</g>
	</g>
	<g>
		<g>
			<path d="M16.8,89.5c6.5-3.8,12.9-7.7,19.4-11.5c0.2-0.1,0-0.4-0.1-0.3c-6.5,3.8-12.9,7.7-19.4,11.5
				C16.5,89.3,16.7,89.6,16.8,89.5L16.8,89.5z"/>
		</g>
	</g>
	<g>
		<g>
			<path d="M96.3,53.9c6.2-4,12.4-8.2,18.5-12.3c0.2-0.1,0-0.4-0.1-0.3c-6.1,4.2-12.3,8.3-18.5,12.3C96,53.7,96.1,54,96.3,53.9
				L96.3,53.9z"/>
		</g>
	</g>
	<g>
		<g>
			<path d="M96.8,124.2c-0.6-2.1,1-3.4,2.1-4.8c0.7-0.9,1.3-1.8,0.5-2.8c-0.2-0.3-0.5-0.5-0.7-0.7c-0.1-0.2-0.4-0.8-0.2-1
				c0.1-0.1,0.6-0.1,0.8-0.2c1.2-0.2,2.3-0.1,3.5-0.1c1.2,0,3.4,0.1,4.2-0.9c0.5-0.5,0.5-1.8,0.5-2.5c0-1.1-0.2-2.1-0.5-3.1
				c-0.5-2-0.8-3.9-0.3-6c0.3-1,0.8-2,1.8-2.6c1-0.6,2.3-0.5,3.5-0.9c0.6-0.2,0.5-0.4,0.6-1c0.2-1,0.1-2.1,0.4-3.1s1.2-2,1.8-2.9
				c0.8-1.1,2.1-2,3.2-2.8c2-1.5,4.1-2.8,6.3-4.1c0.2-0.1,0-0.4-0.1-0.3c-3.5,2.2-7.7,4.4-10.1,7.8c-0.5,0.8-1.1,1.3-1.4,2.2
				c-0.3,1-0.2,2.1-0.4,3.1c-0.3,1.2-1.8,1-2.9,1.3c-0.8,0.2-1.4,0.5-1.9,1.2c-1,1.2-1.3,2.8-1.3,4.3c0,2.2,0.9,4.1,1,6.3
				c0.1,1.4,0,3-1.6,3.4c-1.2,0.3-2.4,0.3-3.6,0.3c-0.7,0-3.9-0.2-4.1,0.8c-0.1,0.7,1,1.3,1.3,1.8c0.8,1.3-0.6,2.6-1.4,3.5
				c-1,1.2-1.7,2.4-1.3,4C96.6,124.4,96.8,124.4,96.8,124.2L96.8,124.2z"/>
		</g>
	</g>
	<g>
		<g>
			<path d="M63.7,127.2c0.6-2.5,2.3-4.1,4.8-4.8c1.8-0.5,3.6-0.6,5.2-1.6c3.2-2,3.2-7.1,6.9-8.5c4.5-1.6,6.9,3.6,7.2,7.1
				c0.3,2.8,0.4,5.9,3.1,7.4c0.2,0.1,0.3-0.2,0.1-0.3c-3-1.7-2.6-5.1-3.1-8c-0.4-2.4-1.5-5.1-3.9-6.3c-2.3-1.1-4.7-0.2-6.2,1.8
				c-1,1.3-1.5,2.8-2.3,4.2c-1,1.7-2.5,2.8-4.5,3.2c-1.8,0.4-3.7,0.6-5.3,1.7c-1.3,0.9-2.1,2.3-2.5,3.9
				C63.4,127.3,63.7,127.4,63.7,127.2L63.7,127.2z"/>
		</g>
	</g>
	<g>
		<g>
			<path d="M31.8,91.7c0.5,6.2,1.4,12.3,2.7,18.4c0,0.2,0.3,0.1,0.3-0.1c-1.3-6-2.3-12.1-2.7-18.3C32.1,91.5,31.8,91.5,31.8,91.7
				L31.8,91.7z"/>
		</g>
	</g>
	<g>
		<g>
			<path d="M110,58.1c0.4,2.7,0.8,5.4,0.9,8.2c0,0.2,0.3,0.2,0.3,0c-0.1-2.8-0.4-5.5-0.9-8.3C110.2,57.9,110,57.9,110,58.1L110,58.1
				z"/>
		</g>
	</g>
	<g>
		<g>
			<path d="M70.3,107.1c-2,0.5-3.5,1.7-4.6,3.4c0,0.1,0,0.2,0.1,0.2c1.7,0.7,3.4-0.8,5.1-0.9c1.5,0,3,0.3,4-1c0-0.1,0-0.2,0-0.2
				c-1.6-0.8-3.2-1.2-5-1.1c-0.2,0-0.2,0.3,0,0.3c0.8,0,1.7,0,2.5,0.2c0.6,0.1,2.6,0.5,1.7,1.3c-1,0.9-3.1,0.1-4.3,0.4
				c-0.6,0.1-1.1,0.4-1.7,0.6c-0.6,0.2-2.2,0.7-1.7-0.3c0.7-1.4,2.6-2.3,4-2.7C70.6,107.3,70.5,107.1,70.3,107.1L70.3,107.1z"/>
		</g>
	</g>
	<g>
		<g>
			<path d="M74.9,106.1c-0.4,0.1-0.7,0.3-0.9,0.6c0,0,0,0.1,0,0.2c0.6,0.5,1.5,0.6,2.1,0c0,0,0-0.2,0-0.2c-0.2-0.2-0.4-0.4-0.6-0.5
				c-0.1-0.1-0.4,0.1-0.2,0.2c0.2,0.2,0.4,0.4,0.6,0.5c0-0.1,0-0.1,0-0.2c-0.5,0.4-1.2,0.4-1.7,0c0,0.1,0,0.1,0,0.2
				c0.2-0.3,0.4-0.4,0.7-0.4C75.1,106.4,75,106.1,74.9,106.1L74.9,106.1z"/>
		</g>
	</g>
	<g>
		<g>
			<path d="M96,96.5c-0.9,0.2-6.3,2-4.6,3.5c0.4,0.4,1.2,0.4,1.7,0.4c1,0.1,2,0.3,2.9,0.4c1.6,0.2,3.4,0.8,5.1,0.6
				c1.1-0.1,2-0.8,2.6-1.6c0.5-0.7,1.6-1.9,0.9-2.7c-0.7-0.8-2.5-0.9-3.4-1.1c-0.9-0.1-1.7-0.2-2.6-0.2c-0.9,0-2.3,0.5-3-0.1
				c-0.1-0.1-0.3,0.1-0.1,0.3c0.6,0.4,1.2,0.3,1.9,0.2c1.3-0.1,2.6-0.1,3.9,0.1c0.6,0.1,1.3,0.2,1.9,0.4c0.8,0.2,1.6,0.6,1.2,1.6
				c-0.3,1-1.5,2.3-2.5,2.6c-1.2,0.4-2.6,0-3.9-0.1c-1.2-0.2-2.4-0.3-3.6-0.5c-0.6-0.1-1.2-0.1-1.8-0.3c-0.6-0.1-0.5,0-0.5-0.8
				c0-0.8,0-0.7,0.5-1c1.1-0.7,2.3-1.2,3.6-1.5C96.3,96.7,96.2,96.5,96,96.5L96,96.5z"/>
		</g>
	</g>
	<g>
		<g>
			<path d="M95.4,96.2c-0.1-0.7,0.4-1.4,1.2-1.4c0.7,0,1.2,0.7,1.2,1.4c0,0.2,0.3,0.2,0.3,0c0.1-0.8-0.6-1.7-1.5-1.7
				c-0.9,0-1.6,0.9-1.5,1.7C95.1,96.4,95.4,96.4,95.4,96.2L95.4,96.2z"/>
		</g>
	</g>
	<g>
		<g>
			<path d="M87.9,107.9c0.2-0.7,1.1-0.6,1.2,0c0,0,0-0.1,0.1-0.2c-0.5,0.3-1,0.3-1.5,0c-0.2-0.1-0.3,0.1-0.1,0.3
				c0.5,0.4,1.2,0.4,1.7,0c0.1,0,0.1-0.1,0.1-0.2c-0.1-1-1.5-1-1.7,0C87.6,108,87.8,108.1,87.9,107.9L87.9,107.9z"/>
		</g>
	</g>
	<g>
		<g>
			<path d="M38.7,113.3c2-1.5,5.3-2,7.4-0.3c0.7,0.5,0.7,0.6,0.4,1.5c-0.3,0.9-0.2,0.9-1.1,1c-0.6,0-1.2,0-1.8,0
				c-1.1-0.1-4.6-0.2-4.5-2c0-0.1-0.1-0.1-0.1-0.1c-1.1,0-3.5,0.8-3.3,2.3c0,0.2,0.1,0.3,0.2,0.4c0.1,0.4,0.1,0.7,0.1,1.1
				c0,0.4-0.1,0.6-0.1,1c0.1,0.7,0.6,1.3,1.3,1.6c0.5,0.2,1.1,0.1,1.6-0.2c0.7-0.4,0.8-1,1.1-1.7c0.2-0.7,0.7-1,1.1-1.6
				c0.1-0.1,0.2-0.2,0.2-0.4c0-0.4-0.3-0.5-0.6-0.4c-0.2,0.1-0.1,0.4,0.1,0.3c0.3-0.1-0.6,0.9-0.7,1c-0.1,0.1-0.1,0.2-0.2,0.3
				c-0.5,1-0.3,2.4-1.9,2.5c-0.8,0-1.5-0.6-1.6-1.3c-0.2-0.8,0.2-0.9,0.2-1.5c0-0.8-0.4-1.5,0.2-2.2c0.3-0.4,1.1-0.8,1.6-0.8
				c0.6-0.1,0.4,0,0.7,0.3c0.3,0.3,0.4,0.6,0.8,0.8c1.3,0.8,3.1,0.8,4.6,0.9c0.9,0,2.2,0.2,2.9-0.7c0.7-0.8,0-1.9-0.8-2.4
				c-2.3-1.7-5.6-1.3-7.8,0.3C38.4,113.1,38.5,113.4,38.7,113.3L38.7,113.3z"/>
		</g>
	</g>
	<g>
		<g>
			<path d="M43.7,118.6c-0.4-0.2-0.9-0.4-1.2,0.1c-0.2,0.3-0.1,0.6,0.2,0.8c0.9,0.4,2,0,2.5-0.8c0.1-0.1,0-0.2-0.2-0.2
				c-0.2,0-0.5,0.1-0.7,0.1c-0.2,0-0.1,0.3,0.1,0.3c0.2,0,0.5-0.1,0.7-0.1c0-0.1-0.1-0.1-0.2-0.2c-0.3,0.4-0.6,0.7-1.1,0.8
				c-0.2,0-0.4,0-0.7,0c-0.3,0-0.2,0-0.3-0.3c-0.1-0.3-0.1-0.4,0.2-0.3c0.2,0,0.3,0,0.5,0.1C43.7,118.9,43.9,118.7,43.7,118.6
				L43.7,118.6z"/>
		</g>
	</g>
	<g>
		<g>
			<path d="M120.4,71.7c-0.6,0.3-0.9,0.8-1.1,1.4c0,0.1,0,0.1,0.1,0.2c0.7,0.4,1.6,0.2,2.1-0.4c0.2-0.3,0.4-0.6,0.1-0.8
				c-0.3-0.3-0.7-0.4-1.1-0.2c-0.2,0.1-0.1,0.4,0.1,0.3c0.2-0.1,0.8-0.1,0.9,0.3c0.1,0.2-0.3,0.5-0.5,0.6c-0.4,0.3-1,0.3-1.4,0
				c0,0,0,0.1,0.1,0.2c0.1-0.5,0.5-1,0.9-1.2C120.7,71.9,120.6,71.7,120.4,71.7L120.4,71.7z"/>
		</g>
	</g>
	<g>
		<g>
			<path d="M107.4,112.8c0,1.4,0.6,2.7,0.9,4.1c0,0.2,0.3,0.1,0.3-0.1c-0.2-1.4-0.8-2.7-0.8-4C107.7,112.7,107.4,112.7,107.4,112.8
				L107.4,112.8z"/>
		</g>
	</g>
	<g>
		<g>
			<path d="M71.5,100.4c-4.7,2.5-9.4,5.2-14,7.9c-0.2,0.1,0,0.4,0.1,0.3c4.6-2.7,9.3-5.3,14-7.9C71.8,100.6,71.7,100.3,71.5,100.4
				L71.5,100.4z"/>
		</g>
	</g>
	<g>
		<g>
			<path d="M73.4,101.6c-2,1-3.9,2-5.8,2.9c-0.2,0.1,0,0.3,0.1,0.3c2-1,3.9-2,5.8-2.9C73.7,101.8,73.5,101.5,73.4,101.6L73.4,101.6z
				"/>
		</g>
	</g>
	<g>
		<g>
			<path d="M97.4,89.5c-2.4,1.7-4.9,3.3-7.5,4.7c-0.2,0.1,0,0.4,0.1,0.3c2.6-1.4,5.1-2.9,7.5-4.7C97.7,89.6,97.6,89.4,97.4,89.5
				L97.4,89.5z"/>
		</g>
	</g>
	<g>
		<g>
			<path d="M98.8,90.2c-0.8,0.7-1.8,1.2-2.7,1.6c-0.2,0.1-0.1,0.4,0.1,0.3c1-0.4,2-1,2.9-1.7C99.1,90.3,98.9,90.1,98.8,90.2
				L98.8,90.2z"/>
		</g>
	</g>
	<g>
		<g>
			<path d="M54.6,16.5C46.3,19.9,40.6,27,35.5,34c-0.1,0.2,0.1,0.3,0.3,0.1c5.1-7,10.7-14.1,18.9-17.4
				C54.9,16.7,54.8,16.5,54.6,16.5L54.6,16.5z"/>
		</g>
	</g>
	<g>
		<g>
			<path d="M50.2,16.6c-1.1,0.6-2.2,1.2-3.3,1.9c-0.2,0.1,0,0.4,0.1,0.3c1.1-0.6,2.2-1.2,3.3-1.9C50.5,16.7,50.3,16.5,50.2,16.6
				L50.2,16.6z"/>
		</g>
	</g>
</g>
</svg>
