<?xml version="1.0" encoding="utf-8"?>
<!-- Generator: Adobe Illustrator 24.0.1, SVG Export Plug-In . SVG Version: 6.00 Build 0)  -->
<svg version="1.1" id="Layer_1" xmlns="http://www.w3.org/2000/svg" xmlns:xlink="http://www.w3.org/1999/xlink" x="0px" y="0px"
	 viewBox="0 0 141.7 141.7" style="enable-background:new 0 0 141.7 141.7;" xml:space="preserve">
<style type="text/css">
	.st0{fill:#010101;}
	.st1{fill:#070707;}
</style>
<g id="Layer_1_1_">
</g>
<g id="Layer_1_2_">
</g>
<g id="Layer_1_3_">
</g>
<g id="Layer_1_4_">
</g>
<g id="Layer_1_5_">
</g>
<g id="Layer_3">
</g>
<g id="Layer_3_1_">
</g>
<g id="Layer_1_6_">
</g>
<g id="Layer_1_7_">
</g>
<g id="Layer_1_8_">
</g>
<g id="Layer_1_9_">
</g>
<g id="Layer_1_10_">
</g>
<g id="Layer_1_11_">
</g>
<g id="Layer_1_12_">
</g>
<g id="Layer_1_13_">
</g>
<g id="Layer_1_14_">
</g>
<g id="Layer_1_15_">
</g>
<g id="Layer_1_16_">
</g>
<g id="Layer_1_17_">
</g>
<g id="Layer_1_18_">
</g>
<g id="Layer_1_19_">
</g>
<g id="Layer_1_20_">
</g>
<g id="Layer_2_1_">
</g>
<g id="Layer_1_21_">
</g>
<g id="Layer_2_2_">
	<g>
		<path class="st0" d="M10.4,73.1c-2.8,0-5.1-2.3-5.1-5.1s2.3-5.1,5.1-5.1c2.8,0,5.1,2.3,5.1,5.1S13.2,73.1,10.4,73.1z M10.4,63
			c-2.8,0-5,2.2-5,5s2.2,5,5,5c2.8,0,5-2.2,5-5S13.1,63,10.4,63z"/>
	</g>
	<g>
		<path class="st0" d="M62,73.1c-2.8,0-5.1-2.3-5.1-5.1s2.3-5.1,5.1-5.1c2.8,0,5.1,2.3,5.1,5.1S64.8,73.1,62,73.1z M62,63
			c-2.8,0-5,2.2-5,5s2.2,5,5,5c2.8,0,5-2.2,5-5S64.8,63,62,63z"/>
	</g>
	<g>
		<path class="st0" d="M79.3,73.1c-2.8,0-5.1-2.3-5.1-5.1s2.3-5.1,5.1-5.1c2.8,0,5.1,2.3,5.1,5.1S82.1,73.1,79.3,73.1z M79.3,63
			c-2.8,0-5,2.2-5,5s2.2,5,5,5c2.8,0,5-2.2,5-5S82.1,63,79.3,63z"/>
	</g>
	<g>
		<g>
			<path class="st0" d="M95.7,71.2c-1.6-0.4-2.7-1.8-2.7-3.6c0-2,1.6-3.7,3.7-3.7c1.6,0,3,1,3.5,2.5c0-0.1,0-0.1,0-0.1
				c-0.5-1.4-1.9-2.4-3.5-2.4c-2.1,0-3.7,1.7-3.7,3.7c0,1.8,1.2,3.2,2.9,3.6C95.7,71.2,95.7,71.2,95.7,71.2z"/>
		</g>
		<g>
			<path class="st0" d="M100.3,67.3c0,0-0.1-0.1-0.1-0.1c0,0.1,0,0.3,0,0.4c0,1.7-1.2,3.1-2.8,3.6c0,0-0.1,0.1-0.1,0.1
				c1.7-0.4,2.9-1.9,2.9-3.6C100.3,67.5,100.3,67.4,100.3,67.3z"/>
		</g>
	</g>
	<g>
		<g>
			<path class="st0" d="M117.2,68.9C117.2,68.9,117.2,68.9,117.2,68.9c-0.5,1.4-1.9,2.4-3.5,2.4c-2,0-3.7-1.6-3.7-3.7
				c0-1.8,1.2-3.2,2.9-3.6c0.1-0.1,0.2-0.1,0.2-0.1c-1.8,0.3-3.1,1.8-3.1,3.7c0,2.1,1.7,3.7,3.7,3.7c1.6,0,3.1-1.1,3.6-2.6
				C117.2,68.8,117.2,68.8,117.2,68.9z"/>
		</g>
		<g>
			<path class="st0" d="M114,63.9c0.1,0,0.1,0.1,0.2,0.1l0,0c1.7,0.2,3.1,1.6,3.2,3.3l0,0c0,0.1,0.1,0.1,0.1,0.1
				C117.4,65.6,115.9,64,114,63.9z"/>
		</g>
	</g>
	<g>
		<path class="st0" d="M131.1,73.1c-2.8,0-5.1-2.3-5.1-5.1s2.3-5.1,5.1-5.1c2.8,0,5.1,2.3,5.1,5.1S133.9,73.1,131.1,73.1z M131.1,63
			c-2.8,0-5,2.2-5,5s2.2,5,5,5s5-2.2,5-5S133.8,63,131.1,63z"/>
	</g>
	<g>
		<path class="st1" d="M29.6,67.8C29.6,67.8,29.6,67.8,29.6,67.8c-1.1,0-1.8-0.9-1.8-2v0c0-1,0.8-1.8,1.8-1.8c0,0,0,0,0.1,0
			c0.5,0,0.9,0.2,1.3,0.6c0.3,0.4,0.5,0.9,0.5,1.4c0,0.5-0.2,1-0.6,1.3C30.5,67.6,30.1,67.8,29.6,67.8z M27.9,65.8
			c0,1,0.7,1.9,1.7,1.9c0.5,0,0.9-0.2,1.3-0.5c0.3-0.3,0.5-0.8,0.6-1.3c0-0.5-0.1-1-0.5-1.3c-0.3-0.4-0.7-0.6-1.2-0.6
			C28.8,64,27.9,64.8,27.9,65.8L27.9,65.8z"/>
	</g>
	<g>
		<path class="st1" d="M29.7,72C29.6,72,29.6,72,29.7,72c-1.1,0-1.8-0.9-1.8-2l0,0c0-1,0.8-1.8,1.8-1.8c0,0,0,0,0.1,0
			c0.5,0,0.9,0.2,1.3,0.6c0.3,0.4,0.5,0.9,0.5,1.4c0,0.5-0.2,1-0.6,1.3C30.6,71.9,30.1,72,29.7,72z M27.9,70.1c0,1,0.7,1.9,1.7,1.9
			c0.5,0,0.9-0.2,1.3-0.5c0.3-0.3,0.5-0.8,0.6-1.3c0-0.5-0.1-1-0.5-1.3c-0.3-0.4-0.7-0.6-1.2-0.6c0,0,0,0-0.1,0
			C28.7,68.3,28,69.1,27.9,70.1L27.9,70.1z"/>
	</g>
	<g>
		
			<ellipse transform="matrix(7.105520e-02 -0.9975 0.9975 7.105520e-02 -38.3535 94.7786)" class="st1" cx="31.7" cy="68" rx="0.8" ry="0.4"/>
	</g>
	<g>
		<path class="st1" d="M30.2,65c-0.2,0.3-0.2,0.6,0,0.9c0.3,0.2,0.6,0.2,0.9,0s0.2-0.6,0-0.9C30.8,64.8,30.4,64.8,30.2,65z
			 M31.1,65.6c-0.1,0.1-0.2,0.1-0.3,0c-0.1-0.1-0.1-0.2,0-0.3c0.1-0.1,0.2-0.1,0.3,0C31.2,65.4,31.2,65.5,31.1,65.6z"/>
	</g>
	<g>
		<path class="st1" d="M29.8,68.7c-0.2,0.3-0.2,0.6,0,0.9c0.3,0.2,0.6,0.2,0.9,0c0.2-0.3,0.2-0.6,0-0.9C30.4,68.4,30,68.4,29.8,68.7
			z M30.7,69.2c-0.1,0.1-0.2,0.1-0.3,0c-0.1-0.1-0.1-0.2,0-0.3c0.1-0.1,0.2-0.1,0.3,0C30.8,69,30.8,69.1,30.7,69.2z"/>
	</g>
	<g>
		<path class="st1" d="M97,66.6c-1.1,0-1.9-0.6-1.9-1.3c0-0.7,0.9-1.3,1.9-1.3c1.1,0,1.9,0.6,1.9,1.3C98.9,66,98,66.6,97,66.6z
			 M97,64c-1,0-1.8,0.6-1.8,1.3s0.8,1.3,1.8,1.3c1,0,1.8-0.6,1.8-1.3S98,64,97,64z"/>
	</g>
	<g>
		<path class="st1" d="M94.2,69.5c-0.7,0-1.3-0.9-1.3-1.9c0-1.1,0.6-1.9,1.3-1.9c0.7,0,1.3,0.9,1.3,1.9
			C95.5,68.6,94.9,69.5,94.2,69.5z M94.2,65.7c-0.7,0-1.2,0.8-1.2,1.8c0,1,0.6,1.8,1.2,1.8c0.7,0,1.2-0.8,1.2-1.8
			C95.4,66.6,94.9,65.7,94.2,65.7z"/>
	</g>
	<g>
		<ellipse transform="matrix(0.7254 -0.6884 0.6884 0.7254 -19.9482 84.6752)" class="st1" cx="96.1" cy="67.3" rx="0.6" ry="0.3"/>
	</g>
	<g>
		<path class="st1" d="M96,64.6c-0.3,0-0.6,0.3-0.6,0.6c0,0.3,0.3,0.6,0.6,0.6c0.3,0,0.6-0.3,0.6-0.6C96.7,64.9,96.4,64.6,96,64.6z
			 M96.3,65.6c-0.1,0-0.2-0.1-0.2-0.2c0-0.1,0.1-0.2,0.2-0.2s0.2,0.1,0.2,0.2S96.4,65.6,96.3,65.6z"/>
	</g>
	<g>
		<path class="st1" d="M94.2,65.9c-0.3,0-0.6,0.3-0.6,0.6c0,0.3,0.3,0.6,0.6,0.6s0.6-0.3,0.6-0.6C94.8,66.1,94.5,65.9,94.2,65.9z
			 M94.4,66.9c-0.1,0-0.2-0.1-0.2-0.2s0.1-0.2,0.2-0.2c0.1,0,0.2,0.1,0.2,0.2C94.6,66.8,94.5,66.9,94.4,66.9z"/>
	</g>
	<g>
		<path class="st1" d="M81.3,68.5c-0.9,0-1.6-1-1.6-2.1s0.7-2.1,1.6-2.1c0.9,0,1.6,1,1.6,2.1S82.2,68.5,81.3,68.5z M81.3,64.3
			c-0.8,0-1.5,0.9-1.5,2.1s0.7,2.1,1.5,2.1c0.8,0,1.5-0.9,1.5-2.1S82.2,64.3,81.3,64.3z"/>
	</g>
	<g>
		<path class="st1" d="M77.3,68.7c-0.9,0-1.6-1-1.6-2.1s0.7-2.1,1.6-2.1s1.6,1,1.6,2.1S78.2,68.7,77.3,68.7z M77.3,64.5
			c-0.8,0-1.5,0.9-1.5,2.1c0,1.1,0.7,2.1,1.5,2.1s1.5-0.9,1.5-2.1C78.9,65.5,78.2,64.5,77.3,64.5z"/>
	</g>
	<g>
		<ellipse class="st1" cx="79.4" cy="68.4" rx="0.7" ry="0.4"/>
	</g>
	<g>
		<path class="st1" d="M81.3,67.4c0.3,0,0.5-0.2,0.5-0.5c0-0.3-0.2-0.5-0.5-0.5c-0.3,0-0.5,0.2-0.5,0.5
			C80.8,67.2,81.1,67.4,81.3,67.4z M81.1,66.5c0.1,0,0.2,0.1,0.2,0.2s-0.1,0.2-0.2,0.2c-0.1,0-0.2-0.1-0.2-0.2
			C81,66.6,81.1,66.5,81.1,66.5z"/>
	</g>
	<g>
		<path class="st1" d="M77.3,67.4c0.3,0,0.5-0.2,0.5-0.5c0-0.3-0.2-0.5-0.5-0.5s-0.5,0.2-0.5,0.5C76.8,67.2,77.1,67.4,77.3,67.4z
			 M77.1,66.6c0.1,0,0.2,0.1,0.2,0.2c0,0.1-0.1,0.2-0.2,0.2c-0.1,0-0.2-0.1-0.2-0.2C77,66.7,77.1,66.6,77.1,66.6z"/>
	</g>
	<g>
		<path class="st1" d="M115,70.1c-0.3,0-0.7-0.1-1-0.4c-0.5-0.5-0.6-1.3-0.2-1.8c0.2-0.2,0.5-0.3,0.9-0.3c0.3,0,0.7,0.2,0.9,0.4
			c0.5,0.5,0.6,1.3,0.2,1.8C115.6,70,115.3,70.1,115,70.1z M114.7,67.7c-0.3,0-0.6,0.1-0.7,0.3c-0.4,0.4-0.4,1.2,0.2,1.7
			c0.5,0.5,1.3,0.5,1.7,0.1c0.4-0.4,0.4-1.2-0.2-1.7C115.4,67.8,115,67.7,114.7,67.7C114.7,67.7,114.7,67.7,114.7,67.7z"/>
	</g>
	<g>
		<path class="st1" d="M112.5,67.9C112.5,67.9,112.5,67.9,112.5,67.9c-0.4,0-0.7-0.2-1-0.4c-0.5-0.5-0.6-1.3-0.2-1.8
			c0.2-0.2,0.5-0.3,0.9-0.3c0.3,0,0.7,0.2,0.9,0.4l0,0c0.3,0.3,0.4,0.6,0.5,0.9c0,0.3-0.1,0.6-0.3,0.9
			C113.1,67.8,112.8,67.9,112.5,67.9z M112.1,65.5c-0.3,0-0.5,0.1-0.7,0.3c-0.4,0.4-0.3,1.2,0.2,1.7c0.2,0.2,0.6,0.4,0.9,0.4
			c0.3,0,0.6-0.1,0.8-0.3c0.2-0.2,0.3-0.5,0.3-0.8c0-0.3-0.2-0.6-0.4-0.9l0,0C112.8,65.6,112.5,65.5,112.1,65.5
			C112.2,65.5,112.2,65.5,112.1,65.5z"/>
	</g>
	<g>
		
			<ellipse transform="matrix(0.6962 -0.7179 0.7179 0.6962 -14.8144 101.8594)" class="st1" cx="112.9" cy="68.4" rx="0.3" ry="0.6"/>
	</g>
	<g>
		<path class="st1" d="M114.7,68c-0.2-0.2-0.5-0.2-0.6,0c-0.2,0.2-0.2,0.5,0,0.6c0.2,0.2,0.5,0.2,0.6,0
			C114.9,68.4,114.9,68.2,114.7,68z M114.3,68.6c-0.1-0.1-0.1-0.1,0-0.2c0.1-0.1,0.1-0.1,0.2,0c0.1,0.1,0.1,0.1,0,0.2
			C114.5,68.7,114.4,68.7,114.3,68.6z"/>
	</g>
	<g>
		<path class="st1" d="M112.2,65.7c-0.2-0.2-0.5-0.2-0.6,0c-0.2,0.2-0.2,0.5,0,0.6c0.2,0.2,0.5,0.2,0.6,0
			C112.4,66.2,112.4,65.9,112.2,65.7z M111.9,66.3c-0.1-0.1-0.1-0.1,0-0.2c0.1-0.1,0.1-0.1,0.2,0c0.1,0.1,0.1,0.1,0,0.2
			C112,66.4,111.9,66.4,111.9,66.3z"/>
	</g>
	<g>
		<path class="st1" d="M128.5,71.9C128.5,71.9,128.5,71.9,128.5,71.9c-0.7-0.1-1.2-0.9-1.1-2c0-0.5,0.2-1,0.4-1.3
			c0.2-0.3,0.6-0.5,0.9-0.5c0.6,0.1,1.1,0.9,1,2c0,0.5-0.2,1-0.4,1.3C129.1,71.8,128.8,71.9,128.5,71.9z M128.7,68.2
			c-0.3,0-0.5,0.2-0.8,0.5c-0.2,0.3-0.4,0.8-0.4,1.3c-0.1,1,0.4,1.9,1,1.9c0.3,0,0.6-0.1,0.8-0.5c0.2-0.3,0.4-0.8,0.4-1.3l0,0
			C129.8,69.1,129.4,68.3,128.7,68.2C128.7,68.2,128.7,68.2,128.7,68.2z"/>
	</g>
	<g>
		<path class="st1" d="M128.7,67.4C128.7,67.4,128.6,67.4,128.7,67.4c-0.7-0.1-1.2-1-1.1-2c0.1-1,0.7-1.8,1.3-1.8c0,0,0,0,0.1,0
			c0.7,0.1,1.2,0.9,1.1,2c0,0.5-0.2,1-0.5,1.3C129.3,67.2,129,67.4,128.7,67.4z M128.8,63.7c-0.6,0-1.2,0.8-1.2,1.8
			c-0.1,1,0.4,1.9,1,1.9c0.3,0,0.6-0.1,0.9-0.5c0.2-0.3,0.4-0.8,0.4-1.3l0,0l0,0C130,64.6,129.5,63.7,128.8,63.7
			C128.9,63.7,128.9,63.7,128.8,63.7z"/>
	</g>
	<g>
		
			<ellipse transform="matrix(4.470018e-02 -0.999 0.999 4.470018e-02 54.273 192.311)" class="st1" cx="127.7" cy="67.8" rx="0.6" ry="0.4"/>
	</g>
	<g>
		<path class="st1" d="M128.7,70.1c0-0.3-0.2-0.6-0.6-0.7c-0.3,0-0.6,0.2-0.7,0.6c0,0.3,0.2,0.6,0.6,0.7
			C128.4,70.7,128.7,70.5,128.7,70.1z M127.7,70.3c0-0.1,0.1-0.2,0.2-0.2c0.1,0,0.2,0.1,0.2,0.2c0,0.1-0.1,0.2-0.2,0.2
			C127.8,70.5,127.7,70.4,127.7,70.3z"/>
	</g>
	<g>
		<path class="st1" d="M128.8,65.7c0-0.3-0.2-0.6-0.6-0.7c-0.3,0-0.6,0.2-0.7,0.6c0,0.3,0.2,0.6,0.6,0.7
			C128.5,66.3,128.8,66.1,128.8,65.7z M127.8,65.9c0-0.1,0.1-0.2,0.2-0.2c0.1,0,0.2,0.1,0.2,0.2c0,0.1-0.1,0.2-0.2,0.2
			C127.8,66.1,127.8,66,127.8,65.9z"/>
	</g>
	<g>
		<path class="st1" d="M47.7,70.2c-1.3,0-2.3-1-2.3-2.3c0-1.3,1-2.3,2.3-2.3s2.3,1,2.3,2.3C50,69.2,49,70.2,47.7,70.2z M47.7,65.7
			c-1.2,0-2.2,1-2.2,2.2c0,1.2,1,2.2,2.2,2.2s2.2-1,2.2-2.2C50,66.7,49,65.7,47.7,65.7z"/>
	</g>
	<g>
		<path class="st1" d="M42.7,70.5c-1.5,0-2.8-1.3-2.8-2.8c0-1.5,1.3-2.8,2.8-2.8c1.5,0,2.8,1.3,2.8,2.8
			C45.5,69.2,44.3,70.5,42.7,70.5z M42.7,64.9c-1.5,0-2.7,1.2-2.7,2.7c0,1.5,1.2,2.7,2.7,2.7s2.7-1.2,2.7-2.7
			C45.4,66.2,44.2,64.9,42.7,64.9z"/>
	</g>
	<g>
		<ellipse class="st1" cx="45.5" cy="70" rx="0.8" ry="0.5"/>
	</g>
	<g>
		<path class="st1" d="M46.8,68.8c0.3-0.3,0.3-0.6,0-0.9c-0.3-0.3-0.6-0.3-0.9,0c-0.3,0.3-0.3,0.6,0,0.9
			C46.2,69.1,46.6,69.1,46.8,68.8z M45.9,68.3c0.1-0.1,0.2-0.1,0.3,0c0.1,0.1,0.1,0.2,0,0.3c-0.1,0.1-0.2,0.1-0.3,0
			C45.9,68.5,45.9,68.4,45.9,68.3z"/>
	</g>
	<g>
		<path class="st1" d="M43.8,66.7c-0.3,0.3-0.3,0.6,0,0.9c0.3,0.3,0.6,0.3,0.9,0c0.3-0.3,0.3-0.6,0-0.9C44.4,66.5,44,66.5,43.8,66.7
			z M44.7,67.2c-0.1,0.1-0.2,0.1-0.3,0c-0.1-0.1-0.1-0.2,0-0.3c0.1-0.1,0.2-0.1,0.3,0C44.7,67,44.7,67.2,44.7,67.2z"/>
	</g>
	<g>
		<path class="st1" d="M64.2,68c-1.1,0-1.9-0.3-1.9-0.7c0-0.4,0.8-0.7,1.9-0.7s1.9,0.3,1.9,0.7C66.1,67.7,65.2,68,64.2,68z
			 M64.2,66.7c-1,0-1.8,0.3-1.8,0.6c0,0.3,0.8,0.6,1.8,0.6c1,0,1.8-0.3,1.8-0.6C66,66.9,65.2,66.7,64.2,66.7z"/>
	</g>
	<g>
		<path class="st1" d="M59.7,68c-1.1,0-1.9-0.3-1.9-0.7s0.8-0.7,1.9-0.7c1.1,0,1.9,0.3,1.9,0.7S60.7,68,59.7,68z M59.7,66.7
			c-1,0-1.8,0.3-1.8,0.6s0.8,0.6,1.8,0.6c1,0,1.8-0.3,1.8-0.6S60.7,66.7,59.7,66.7z"/>
	</g>
	<g>
		<ellipse class="st1" cx="62" cy="68.4" rx="0.8" ry="0.5"/>
	</g>
	<g>
		<path class="st1" d="M63.7,67.3c0,0.3,0.3,0.6,0.6,0.6c0.3,0,0.6-0.3,0.6-0.6s-0.3-0.6-0.6-0.6C64,66.7,63.7,66.9,63.7,67.3z
			 M64.7,67c0,0.1-0.1,0.2-0.2,0.2c-0.1,0-0.2-0.1-0.2-0.2c0-0.1,0.1-0.2,0.2-0.2C64.6,66.9,64.7,66.9,64.7,67z"/>
	</g>
	<g>
		<path class="st1" d="M59.2,67.4c0,0.3,0.3,0.6,0.6,0.6s0.6-0.3,0.6-0.6s-0.3-0.6-0.6-0.6C59.5,66.8,59.2,67,59.2,67.4z M60.2,67.1
			c0,0.1-0.1,0.2-0.2,0.2c-0.1,0-0.2-0.1-0.2-0.2S59.9,67,60,67C60.1,67,60.2,67,60.2,67.1z"/>
	</g>
	<g>
		<path class="st1" d="M13,69.1c-1.1,0-1.9-0.9-1.9-1.9c0-1.1,0.9-1.9,1.9-1.9s1.9,0.9,1.9,1.9C14.9,68.3,14.1,69.1,13,69.1z
			 M13,65.4c-1,0-1.8,0.8-1.8,1.8c0,1,0.8,1.8,1.8,1.8c1,0,1.8-0.8,1.8-1.8C14.9,66.2,14,65.4,13,65.4z"/>
	</g>
	<g>
		<path class="st1" d="M7.8,69.3c-1.1,0-1.9-0.9-1.9-1.9c0-1.1,0.9-1.9,1.9-1.9s1.9,0.9,1.9,1.9C9.7,68.5,8.8,69.3,7.8,69.3z
			 M7.8,65.6c-1,0-1.8,0.8-1.8,1.8c0,1,0.8,1.8,1.8,1.8s1.8-0.8,1.8-1.8C9.6,66.4,8.8,65.6,7.8,65.6z"/>
	</g>
	<g>
		<ellipse class="st1" cx="10.6" cy="69.5" rx="0.8" ry="0.5"/>
	</g>
	<g>
		<path class="st1" d="M14,67.8c0.3,0,0.6-0.3,0.6-0.6c0-0.3-0.3-0.6-0.6-0.6c-0.3,0-0.6,0.3-0.6,0.6C13.4,67.5,13.7,67.8,14,67.8z
			 M13.8,66.8c0.1,0,0.2,0.1,0.2,0.2c0,0.1-0.1,0.2-0.2,0.2c-0.1,0-0.2-0.1-0.2-0.2S13.7,66.8,13.8,66.8z"/>
	</g>
	<g>
		<path class="st1" d="M6.1,67.2c0,0.3,0.3,0.6,0.6,0.6c0.3,0,0.6-0.3,0.6-0.6S7,66.6,6.7,66.6S6.1,66.9,6.1,67.2z M7.1,67
			c0,0.1-0.1,0.2-0.2,0.2c-0.1,0-0.2-0.1-0.2-0.2c0-0.1,0.1-0.2,0.2-0.2C7,66.8,7.1,66.9,7.1,67z"/>
	</g>
	<g>
		<path class="st1" d="M64.2,69.1c-1.1,0-1.9-0.9-1.9-1.9c0-1.1,0.9-1.9,1.9-1.9c1.1,0,1.9,0.9,1.9,1.9
			C66.1,68.2,65.2,69.1,64.2,69.1z M64.2,65.3c-1,0-1.8,0.8-1.8,1.8c0,1,0.8,1.8,1.8,1.8c1,0,1.8-0.8,1.8-1.8
			C66,66.1,65.2,65.3,64.2,65.3z"/>
	</g>
	<g>
		<path class="st1" d="M59.6,69.3c-1.1,0-1.9-0.9-1.9-1.9c0-1.1,0.9-1.9,1.9-1.9s1.9,0.9,1.9,1.9C61.5,68.5,60.7,69.3,59.6,69.3z
			 M59.6,65.6c-1,0-1.8,0.8-1.8,1.8c0,1,0.8,1.8,1.8,1.8c1,0,1.8-0.8,1.8-1.8C61.5,66.4,60.7,65.6,59.6,65.6z"/>
	</g>
	<g>
		<g>
			<g>
				<path class="st1" d="M10.2,69.6c-0.3,0.2-0.6,0.6-0.4,0.9c0.2,0.4,0.7,0.2,0.9,0.1c0.3-0.1,0.9,0.2,1.1-0.2
					c0.1-0.3-0.2-0.6-0.5-0.8c0,0-0.1,0,0,0.1c0.1,0.1,0.2,0.2,0.3,0.3c0.2,0.3-0.1,0.6-0.3,0.6c-0.2,0-0.4-0.1-0.6,0
					c-0.2,0-0.4,0.1-0.6,0.1C9.5,70.6,9.9,69.9,10.2,69.6C10.2,69.7,10.2,69.6,10.2,69.6L10.2,69.6z"/>
			</g>
		</g>
	</g>
	<g>
		<g>
			<g>
				<path class="st1" d="M10.4,70.8c-0.1,0.2-0.3,0.9,0.1,0.9c0.2,0,0.3-0.1,0.3-0.2c0.1-0.2,0.1-0.5,0.2-0.8c0-0.1-0.1-0.1-0.1,0
					c0,0.1-0.1,0.3-0.1,0.4s0,0.3-0.1,0.4c-0.1,0.2-0.3,0.2-0.4,0c0-0.1,0-0.2,0-0.2C10.3,71.1,10.3,70.9,10.4,70.8
					C10.4,70.8,10.4,70.8,10.4,70.8L10.4,70.8z"/>
			</g>
		</g>
	</g>
	<g>
		<g>
			<g>
				<path class="st1" d="M10.7,71.5c0.1,0.2,0.4,0.3,0.6,0.1c0.3-0.3,0.1-0.7-0.1-0.9c0,0-0.1,0-0.1,0c0.1,0.2,0.3,0.5,0.2,0.7
					C11.3,71.6,10.9,71.8,10.7,71.5C10.7,71.5,10.7,71.5,10.7,71.5L10.7,71.5z"/>
			</g>
		</g>
	</g>
	<g>
		<g>
			<g>
				<path class="st1" d="M10.2,67.7c0.7,0.2,0.6,0.3-0.2,0.4c-0.1-0.1-0.1-0.2-0.2-0.3c-0.1-0.2,0-0.5,0.2-0.6
					c0.5-0.3,0.9,0.2,1,0.6c0.1,0.5-0.1,0.9-0.6,1c-0.4,0.1-0.8,0-1.1-0.3c0,0-0.1,0,0,0.1c0.6,0.4,1.8,0.5,1.9-0.5
					c0-0.3,0-0.7-0.3-0.9s-0.6-0.2-0.9,0c-0.4,0.4-0.1,1.3,0.5,1.1C11.1,68.1,10.6,67.3,10.2,67.7C10.1,67.7,10.2,67.8,10.2,67.7
					L10.2,67.7z"/>
			</g>
		</g>
	</g>
	<g>
		<g>
			<g>
				<path class="st1" d="M8.9,65.9c0.8-0.9,2.1-1,2.9-0.2c0,0,0.1,0,0.1-0.1C11,64.9,9.6,64.9,8.9,65.9C8.8,65.9,8.8,66,8.9,65.9
					L8.9,65.9z"/>
			</g>
		</g>
	</g>
	<g>
		<g>
			<g>
				<path class="st1" d="M7.6,65.6c1.2-2.4,4.4-2.5,5.8-0.2c0,0,0.1,0,0.1,0C12,63.1,8.8,63.2,7.6,65.6C7.5,65.6,7.6,65.6,7.6,65.6
					L7.6,65.6z"/>
			</g>
		</g>
	</g>
	<g>
		<g>
			<g>
				<path class="st1" d="M13.9,68.9c0,2.1-1.7,3.7-3.9,3.5C8.2,72.2,7,70.7,6.6,69c0-0.1-0.1,0-0.1,0c0.4,2,1.9,3.6,4,3.5
					C12.6,72.4,14,70.8,13.9,68.9C14,68.9,13.9,68.9,13.9,68.9L13.9,68.9z"/>
			</g>
		</g>
	</g>
	<g>
		<path class="st0" d="M27.7,72.9c-2.8,0-5.1-2.3-5.1-5.1s2.3-5.1,5.1-5.1c2.8,0,5.1,2.3,5.1,5.1S30.5,72.9,27.7,72.9z M27.7,62.9
			c-2.8,0-5,2.2-5,5s2.2,5,5,5c2.8,0,5-2.2,5-5S30.5,62.9,27.7,62.9z"/>
	</g>
	<g>
		<g>
			<g>
				<path class="st1" d="M32,67.6c0-0.1,0.1-0.1,0.1-0.2c0.1-0.2,0.2-0.2,0.4-0.1c0.2,0,0.3,0,0.2,0.1c0.1,0.1,0,0.4,0,0.6
					c0,0.2,0,0.4,0,0.5c0,0.1,0,0.1,0,0.1c-0.2,0.2-0.3,0.3-0.4,0.2c-0.1-0.1-0.2-0.3-0.3-0.4c0-0.1-0.1,0-0.1,0
					c0.1,0.2,0.3,0.6,0.6,0.6c0.4-0.1,0.3-0.7,0.3-1c0-0.3,0.2-0.8-0.2-0.9C32.3,67,32.1,67.3,32,67.6C31.9,67.6,32,67.6,32,67.6
					L32,67.6z"/>
			</g>
		</g>
	</g>
	<g>
		<g>
			<g>
				<path class="st1" d="M32.8,67.7c0.1-0.1,0.2-0.2,0.4-0.1c0.1,0.1,0.2,0.2,0.2,0.4c0,0.2-0.2,0.3-0.3,0.2c-0.1,0-0.2,0-0.2,0
					c-0.1,0,0,0.1,0,0.1c0.2-0.1,0.3,0.1,0.5,0c0.1-0.1,0.2-0.3,0.1-0.4C33.3,67.5,32.9,67.4,32.8,67.7
					C32.7,67.7,32.8,67.8,32.8,67.7L32.8,67.7z"/>
			</g>
		</g>
	</g>
	<g>
		<g>
			<g>
				<path class="st1" d="M32.6,68.7c0.1,0.2,0.4,0.3,0.6,0.1c0.2-0.2,0.2-0.4,0-0.6c0,0-0.1,0-0.1,0.1c0.2,0.1,0.2,0.4,0,0.5
					C32.9,68.9,32.7,68.8,32.6,68.7C32.6,68.6,32.6,68.7,32.6,68.7L32.6,68.7z"/>
			</g>
		</g>
	</g>
	<g>
		<g>
			<g>
				<path class="st1" d="M23.3,65.6c0.6-0.4,1-0.2,1.6,0.2c0.2,0.1,0.4,0.2,0.6,0.3c0.8,0.1,1.5-0.6,2.3-0.5c0.1,0,0.1-0.1,0-0.1
					c-0.4,0-0.7,0-1.1,0.1c-0.3,0.1-0.5,0.3-0.8,0.4c-0.5,0.1-0.9-0.2-1.3-0.4C24.1,65.2,23.8,65.3,23.3,65.6
					C23.2,65.6,23.3,65.6,23.3,65.6L23.3,65.6z"/>
			</g>
		</g>
	</g>
	<g>
		<g>
			<g>
				<path class="st1" d="M23.1,66c0.4-0.3,1.1-0.1,1.5,0.1c0.2,0.1,0.4,0.2,0.6,0.3c0.3,0.1,0.5,0.2,0.8,0.2
					c0.8,0.1,1.2-0.5,1.9-0.7c0.1,0,0-0.1,0-0.1c-0.3,0.1-0.5,0.2-0.8,0.4c-1,0.6-1.7,0.1-2.6-0.3C23.9,65.8,23.5,65.7,23.1,66
					C23,66,23,66,23.1,66L23.1,66z"/>
			</g>
		</g>
	</g>
	<g>
		<g>
			<g>
				<path class="st1" d="M22.7,67.8c1,0,2,0.3,2.9,0.2c0.4-0.1,0.8-0.3,1.2-0.3c0.6-0.1,1.2-0.1,1.9,0c0.1,0,0.1-0.1,0-0.1
					c-0.9-0.1-1.6,0-2.5,0.2C25,68,23.9,67.7,22.7,67.8C22.6,67.7,22.6,67.8,22.7,67.8L22.7,67.8z"/>
			</g>
		</g>
	</g>
	<g>
		<g>
			<g>
				<path class="st1" d="M30.5,67.6c0.3,0.2,0.6,0.2,0.9,0.1c0.1,0,0-0.1,0-0.1C31.1,67.7,30.8,67.7,30.5,67.6
					C30.5,67.5,30.5,67.5,30.5,67.6L30.5,67.6z"/>
			</g>
		</g>
	</g>
	<g>
		<g>
			<g>
				<path class="st1" d="M23.7,70.9c0.5,0.2,1,0.4,1.5,0.3c0.2-0.1,0.4-0.2,0.6-0.2c0.3-0.2,0.6-0.3,1-0.3c0.4,0,0.8,0.1,1.1,0.3
					c0-0.1-0.1-0.1-0.1,0v0c0,0,0,0,0.1,0h0c0,0,0,0,0-0.1c-0.3-0.4-1.1-0.4-1.4-0.3c-0.2,0.1-0.4,0.1-0.6,0.2
					C25.1,71.2,24.5,71.2,23.7,70.9C23.7,70.8,23.7,70.9,23.7,70.9L23.7,70.9z"/>
			</g>
		</g>
	</g>
	<g>
		<g>
			<g>
				<path class="st1" d="M25.2,72.2c0.6,0.1,1.1,0.1,1.6-0.2c0.5-0.2,0.9-0.2,1.4-0.1c0.3,0,0.4,0,0.6-0.1c0,0,0-0.1,0-0.1
					c-0.5,0.2-0.9-0.1-1.4,0c-0.2,0.1-0.4,0.2-0.5,0.2C26.3,72.2,25.8,72.3,25.2,72.2C25.2,72.2,25.2,72.2,25.2,72.2L25.2,72.2z"/>
			</g>
		</g>
	</g>
	<g>
		<g>
			<g>
				<path class="st1" d="M30.6,71.7c0.1,0,0.1,0,0.2,0.1c0.1,0,0.1-0.1,0-0.1C30.8,71.7,30.7,71.7,30.6,71.7
					C30.6,71.7,30.6,71.7,30.6,71.7L30.6,71.7z"/>
			</g>
		</g>
	</g>
	<g>
		<g>
			<g>
				<path class="st1" d="M31.1,71.1C31.1,71.1,31.1,71.2,31.1,71.1c-0.1,0.2,0.1,0.1,0.1,0.2c0,0,0.1,0,0-0.1S31.2,71.2,31.1,71.1
					C31.2,71.2,31.2,71.1,31.1,71.1L31.1,71.1z"/>
			</g>
		</g>
	</g>
	<g>
		<g>
			<g>
				<path class="st1" d="M31.4,66.3c0.3-0.1,0.4,0.1,0.6,0.1c0.2,0,0.3-0.1,0.5-0.2c0,0,0-0.1,0-0.1c-0.1,0.1-0.2,0.1-0.3,0.2
					c-0.2,0.1-0.3,0-0.4-0.1C31.7,66.2,31.6,66.1,31.4,66.3C31.3,66.2,31.4,66.3,31.4,66.3L31.4,66.3z"/>
			</g>
		</g>
	</g>
	<g>
		<g>
			<g>
				<path class="st1" d="M31.4,65.9c0.2-0.1,0.4-0.1,0.7,0c0.1,0.1,0.2,0.1,0.3,0c0,0,0-0.1,0-0.1c-0.1,0.1-0.4-0.1-0.5-0.1
					C31.7,65.7,31.6,65.7,31.4,65.9C31.3,65.8,31.4,65.9,31.4,65.9L31.4,65.9z"/>
			</g>
		</g>
	</g>
	<g>
		<g>
			<g>
				<path class="st1" d="M24.8,63.9c0.6-0.2,0.9,0.3,1.5,0.4c0.3,0.1,0.5,0,0.7-0.1c0.5-0.1,0.9-0.1,1.3-0.2
					c0.7-0.1,1.2-0.3,1.9-0.2c0.1,0,0.1-0.1,0-0.1c-1-0.1-1.9,0.1-2.8,0.3c-0.6,0.1-1.1,0.1-1.8-0.1C25.3,63.8,25.2,63.7,24.8,63.9
					C24.8,63.8,24.8,63.9,24.8,63.9L24.8,63.9z"/>
			</g>
		</g>
	</g>
	<g>
		<g>
			<g>
				<path class="st1" d="M30.3,63.8c0,0,0.1,0,0.1-0.1c0,0,0-0.1-0.1-0.1c0,0,0,0-0.1,0l0,0C30.3,63.8,30.4,63.8,30.3,63.8
					L30.3,63.8C30.4,63.7,30.4,63.8,30.3,63.8C30.3,63.8,30.3,63.7,30.3,63.8c-0.1-0.1-0.1-0.1-0.1,0C30.3,63.8,30.3,63.8,30.3,63.8
					L30.3,63.8z"/>
			</g>
		</g>
	</g>
	<g>
		<path class="st0" d="M45,73.1c-2.9,0-5.2-2.3-5.2-5.2c0-2.9,2.3-5.2,5.2-5.2c2.9,0,5.2,2.3,5.2,5.2C50.2,70.8,47.9,73.1,45,73.1z
			 M45,62.8c-2.8,0-5.1,2.3-5.1,5.1c0,2.8,2.3,5.1,5.1,5.1c2.8,0,5.1-2.3,5.1-5.1C50.1,65.1,47.8,62.8,45,62.8z"/>
	</g>
	<g>
		<g>
			<g>
				<path class="st1" d="M45,70.2c-0.4,0.3-0.8,0.7-0.6,1.2c0.3,0.5,0.8,0.1,1.2,0.1c0.4,0,0.9,0.2,1.1-0.3c0.2-0.5-0.3-0.8-0.7-1
					c0,0-0.1,0,0,0.1c0.3,0.2,0.8,0.5,0.7,0.9c-0.2,0.6-0.7,0.2-1.1,0.3c-0.4,0-0.9,0.5-1.1-0.3C44.4,70.8,44.8,70.5,45,70.2
					C45.1,70.2,45,70.2,45,70.2L45,70.2z"/>
			</g>
		</g>
	</g>
	<g>
		<g>
			<g>
				<path class="st1" d="M45.2,71.7c-0.1,0.2-0.2,0.4-0.1,0.6c0.1,0.1,0.2,0.2,0.4,0.1c0.4-0.2,0.4-0.7,0.2-1c0,0-0.1,0-0.1,0
					c0.2,0.2,0.2,0.6,0,0.8c-0.2,0.2-0.4,0.1-0.5-0.2C45.2,72,45.2,71.8,45.2,71.7C45.3,71.7,45.2,71.7,45.2,71.7L45.2,71.7z"/>
			</g>
		</g>
	</g>
	<g>
		<g>
			<g>
				<path class="st1" d="M45.6,72.4c0.2,0.1,0.4,0.1,0.5-0.1c0.2-0.3,0-0.6-0.1-0.8c0,0-0.1,0-0.1,0c0.1,0.2,0.2,0.4,0.2,0.6
					C46.1,72.3,45.9,72.5,45.6,72.4C45.6,72.3,45.6,72.4,45.6,72.4L45.6,72.4z"/>
			</g>
		</g>
	</g>
	<g>
		<g>
			<g>
				<path class="st1" d="M42.5,63.5c0.3,0.2,0.1,0.5,0.3,0.7c0.1,0.2,0.3,0.2,0.5,0.1c0.1,0,0.3-0.1,0.4-0.1
					c0.4,0.1,0.3,0.4,0.5,0.6c0.1,0.1,0.2,0.2,0.3,0.2c0.1,0,0.1-0.1,0-0.1c-0.4,0-0.3-0.5-0.5-0.7c-0.1-0.1-0.3-0.1-0.4-0.1
					c-0.1,0-0.1,0-0.2,0c-0.3,0.1-0.5-0.2-0.6-0.5C42.7,63.6,42.7,63.5,42.5,63.5C42.5,63.4,42.5,63.5,42.5,63.5L42.5,63.5z"/>
			</g>
		</g>
	</g>
	<g>
		<g>
			<g>
				<path class="st1" d="M44.4,65c0.1-0.1,0.1-0.1,0.2-0.2c0.1-0.2,0.3-0.2,0.5,0.1c0,0.1,0,0.1,0,0.2c0,0.2,0,0.3,0.1,0.5
					c0.2,0.3,0.4,0.1,0.6,0c0,0,0-0.1,0-0.1c-0.1,0-0.1,0-0.1,0.1c-0.1,0.2-0.3,0.1-0.4-0.1c0-0.1,0-0.2,0-0.3c0-0.1,0-0.3-0.1-0.4
					C44.8,64.4,44.6,64.9,44.4,65C44.3,65,44.4,65.1,44.4,65L44.4,65z"/>
			</g>
		</g>
	</g>
	<g>
		<g>
			<g>
				<path class="st1" d="M45.8,65.5c0.2-0.3-0.1-0.6,0.1-0.9c0.1-0.2,0.2-0.3,0-0.5c-0.1-0.2-0.4-0.3-0.6-0.4
					c-0.2-0.1-0.3-0.1-0.2-0.2c0.1-0.2,0.4-0.1,0.5-0.1c0.3,0.1,0.5,0.2,0.8,0.4c0,0,0.1-0.1,0-0.1c-0.4-0.2-1.1-0.7-1.5-0.3v0
					c0.1,0.3,0.5,0.3,0.7,0.4c0.3,0.2,0.3,0.3,0.2,0.7c0,0.1-0.1,0.1-0.1,0.1C45.8,64.9,45.9,65.1,45.8,65.5
					C45.8,65.5,45.8,65.5,45.8,65.5L45.8,65.5z"/>
			</g>
		</g>
	</g>
	<g>
		<g>
			<g>
				<path class="st1" d="M46.3,63.8c0.3,0.3,0.2,0.6,0.1,1c0,0.1-0.1,0.3,0,0.4c0.1,0.2,0.4,0.1,0.5-0.1C47,65,47,64.8,47,64.7
					c-0.1-0.3,0.1-0.5,0.4-0.5c0.1,0,0.2,0.1,0.2,0.1c0.1,0,0.1,0.1,0.2,0.1c0.3,0,0.4-0.3,0.4-0.5c0-0.1-0.1-0.1-0.1,0
					c-0.1,0.3-0.2,0.5-0.6,0.4c-0.1,0-0.2-0.1-0.3-0.1c-0.2,0-0.4,0.2-0.4,0.4c0,0.1,0,0.1,0,0.2c0,0.1,0,0.1,0,0.1
					c-0.4,0.2-0.5,0.2-0.4,0.1c0-0.2,0.1-0.3,0.2-0.4c0-0.3-0.1-0.5-0.2-0.6C46.3,63.8,46.3,63.8,46.3,63.8L46.3,63.8z"/>
			</g>
		</g>
	</g>
	<g>
		<g>
			<g>
				<path class="st1" d="M41.9,64.2c0.1-0.1,0.3-0.2,0.4-0.1c0.1,0.2-0.1,0.3-0.2,0.4s-0.4,0.2-0.4,0C41.7,64.3,41.8,64.2,41.9,64.2
					C42,64.2,41.9,64.1,41.9,64.2c-0.1,0.1-0.4,0.2-0.3,0.4c0.1,0.2,0.4,0.1,0.5,0c0.1-0.1,0.3-0.3,0.2-0.4
					C42.3,63.9,42,64,41.9,64.2C41.8,64.1,41.9,64.2,41.9,64.2L41.9,64.2z"/>
			</g>
		</g>
	</g>
	<g>
		<g>
			<g>
				<path class="st1" d="M47.6,64.9C47.7,64.9,47.7,64.9,47.6,64.9c0,0.1,0,0.1-0.1,0.1C47.6,65.1,47.6,65,47.6,64.9L47.6,64.9
					L47.6,64.9C47.5,65,47.5,65,47.5,65v0c0.1,0.1,0.3,0,0.3-0.1C47.7,64.8,47.6,64.8,47.6,64.9C47.5,64.9,47.6,65,47.6,64.9
					L47.6,64.9z"/>
			</g>
		</g>
	</g>
	<g>
		<g>
			<g>
				<path class="st1" d="M48.4,64.4c-0.2,0-0.3,0.2-0.1,0.2C48.4,64.8,48.5,64.5,48.4,64.4C48.3,64.4,48.3,64.5,48.4,64.4
					C48.3,64.5,48.3,64.5,48.4,64.4C48.4,64.5,48.4,64.4,48.4,64.4L48.4,64.4z"/>
			</g>
		</g>
	</g>
	<g>
		<g>
			<g>
				<path class="st1" d="M40.7,70.8c0.2,0.2,0.5,0.3,0.8,0.3c0.1,0,0.2,0,0.3-0.1c0.3-0.1,0.4-0.2,0.7,0.1c0.3,0.3,0.2,0.6,0.7,0.6
					c0.1,0,0.1-0.1,0-0.1c-0.2,0-0.3-0.1-0.3-0.2c-0.1-0.1-0.2-0.2-0.1-0.3c0,0,0-0.1,0-0.1c-0.1-0.1-0.1-0.2-0.2-0.2
					c-0.1-0.1-0.3,0-0.4,0c-0.1,0-0.3,0.1-0.4,0.1C41.3,71,41,70.9,40.7,70.8C40.7,70.7,40.7,70.8,40.7,70.8L40.7,70.8z"/>
			</g>
		</g>
	</g>
	<g>
		<g>
			<g>
				<path class="st1" d="M43.2,71.7c-0.1,0.3,0.2,0.6,0.5,0.6c0.1,0,0.1,0,0.2-0.1c0.2-0.1,0.2-0.1,0.3-0.1c0.2,0.1,0.2,0.1,0.2,0.2
					c0,0.1-0.1,0.4,0.1,0.5c0,0,0,0,0.1,0c0,0,0,0,0,0c0,0,0-0.1-0.1-0.1c0,0,0-0.4,0-0.4c0-0.1,0-0.1,0-0.1c0-0.1-0.1-0.2-0.2-0.2
					c-0.1,0-0.2,0-0.3,0.1c-0.1,0-0.1,0.1-0.2,0.1C43.4,72.3,43.2,72,43.2,71.7C43.2,71.7,43.2,71.7,43.2,71.7L43.2,71.7z"/>
			</g>
		</g>
	</g>
	<g>
		<g>
			<g>
				<path class="st1" d="M44.4,72.9c0.2,0,0.6-0.1,0.6,0.2c0,0.1,0.1,0.1,0.1,0C45.1,72.7,44.6,72.8,44.4,72.9
					C44.3,72.8,44.3,72.9,44.4,72.9L44.4,72.9z"/>
			</g>
		</g>
	</g>
	<g>
		<g>
			<g>
				<path class="st1" d="M47.2,72.5c-0.2-0.3,0-0.6,0.2-0.7c0.1-0.1,0.1,0,0.2-0.1c0.2-0.2,0.1-0.4,0.4-0.6c0.3-0.2,0.4-0.2,0.7-0.2
					c0.1,0,0.2,0,0.3,0c0.1,0,0.2-0.1,0.3-0.1c0,0,0-0.1-0.1-0.1c-0.3,0.2-0.7,0-1,0.1c-0.2,0.1-0.4,0.2-0.5,0.4
					c-0.1,0.2-0.2,0.3-0.4,0.5c-0.1,0.1-0.2,0.1-0.2,0.2C47,72.2,47.1,72.4,47.2,72.5C47.2,72.6,47.2,72.5,47.2,72.5L47.2,72.5z"/>
			</g>
		</g>
	</g>
	<g>
		<g>
			<g>
				<path class="st1" d="M43.6,71.9c0.1-0.1,0.2-0.1,0.3,0c0,0,0,0,0-0.1C43.7,71.9,43.7,71.9,43.6,71.9
					C43.5,71.8,43.5,71.9,43.6,71.9c0.1,0.1,0.2,0.1,0.3,0c0,0,0,0,0-0.1C43.8,71.7,43.6,71.7,43.6,71.9
					C43.5,71.9,43.5,71.9,43.6,71.9L43.6,71.9z"/>
			</g>
		</g>
	</g>
	<g>
		<g>
			<g>
				<path class="st1" d="M58.4,64.5c0.2,0.2,0.5,0.3,0.7,0.2c0.2,0,0.3-0.1,0.4-0.2c0.3-0.2,0.6-0.1,0.9-0.1c0.1,0,0.1-0.1,0-0.1
					c-0.2,0-0.5-0.1-0.7,0c-0.2,0.1-0.3,0.2-0.5,0.3C59,64.8,58.7,64.7,58.4,64.5C58.4,64.4,58.4,64.5,58.4,64.5L58.4,64.5z"/>
			</g>
		</g>
	</g>
	<g>
		<g>
			<g>
				<path class="st1" d="M60.5,64.4c0.2-0.1,0.3-0.2,0.5-0.2c0.1,0,0.2,0.1,0.3,0.1c0.2,0.1,0.4,0.1,0.5,0.1c0.1,0,0.1-0.1,0-0.1
					c-0.2,0-0.4,0-0.5-0.1c-0.1,0-0.2-0.1-0.4-0.1C60.8,64.1,60.6,64.3,60.5,64.4C60.4,64.4,60.5,64.4,60.5,64.4L60.5,64.4z"/>
			</g>
		</g>
	</g>
	<g>
		<g>
			<g>
				<path class="st1" d="M61.8,64.4c0.5-0.3,1.1-0.1,1.6,0c0.1,0,0.1-0.1,0-0.1C62.9,64.2,62.4,64.1,61.8,64.4
					C61.8,64.4,61.8,64.4,61.8,64.4L61.8,64.4z"/>
			</g>
		</g>
	</g>
	<g>
		<g>
			<g>
				<path class="st1" d="M63.4,64.4c0.6,0.2,0.9-0.5,1.5-0.5c0.1,0,0.1-0.1,0-0.1C64.4,63.8,64,64.5,63.4,64.4
					C63.4,64.3,63.4,64.4,63.4,64.4L63.4,64.4z"/>
			</g>
		</g>
	</g>
	<g>
		<g>
			<g>
				<path class="st1" d="M60,65.6c0.2-0.2,0.4-0.4,0.7-0.3c0.2,0.1,0.3,0.1,0.5,0.1c0.1,0,0.1-0.1,0-0.1c-0.3,0-0.5-0.2-0.8-0.1
					C60.2,65.2,60.1,65.4,60,65.6C60,65.6,60,65.6,60,65.6L60,65.6z"/>
			</g>
		</g>
	</g>
	<g>
		<g>
			<g>
				<path class="st1" d="M61.2,65.3c0.2-0.1,0.3-0.1,0.4-0.2c0.2-0.2,0.5-0.2,0.7-0.1c0.1,0,0.1,0.1,0.1,0.1c0.5,0,1.1-0.4,1.4,0.2
					c0,0,0.1,0,0.1,0c-0.2-0.5-0.6-0.4-1-0.3c-0.4,0.1-0.6-0.1-1-0.1C61.6,65,61.4,65.2,61.2,65.3C61.1,65.3,61.1,65.4,61.2,65.3
					L61.2,65.3z"/>
			</g>
		</g>
	</g>
	<g>
		<g>
			<g>
				<path class="st1" d="M57.1,66.9c0.3,0,0.6-0.1,0.8-0.3c0,0,0-0.1-0.1-0.1C57.6,66.8,57.4,66.9,57.1,66.9
					C57.1,66.8,57.1,66.9,57.1,66.9L57.1,66.9z"/>
			</g>
		</g>
	</g>
	<g>
		<g>
			<g>
				<path class="st1" d="M65.8,66.2c0.2,0.4,0.7,0,0.9,0c0.1,0,0.1-0.1,0-0.1c-0.2,0-0.3,0-0.4,0.1S66,66.4,65.8,66.2
					C65.9,66.2,65.8,66.2,65.8,66.2L65.8,66.2z"/>
			</g>
		</g>
	</g>
	<g>
		<g>
			<g>
				<path class="st1" d="M61.5,69.9c-0.1,0.3-0.2,1.1,0.3,1c0.5-0.1,0.4-0.8,0.3-1.1c0-0.1-0.1,0-0.1,0c0.1,0.2,0.1,0.3,0.1,0.5
					s-0.1,0.5-0.2,0.5c-0.3,0.1-0.4-0.2-0.4-0.4C61.5,70.2,61.5,70.1,61.5,69.9C61.6,69.8,61.6,69.8,61.5,69.9L61.5,69.9z"/>
			</g>
		</g>
	</g>
	<g>
		<g>
			<g>
				<path class="st1" d="M62,70.7c0.1,0.2,0.4,0.3,0.6,0.1c0.3-0.3,0.2-0.7,0-1c0,0-0.1,0-0.1,0c0.1,0.2,0.2,0.5,0.1,0.7
					C62.7,70.8,62.3,71,62,70.7C62.1,70.6,62,70.7,62,70.7L62,70.7z"/>
			</g>
		</g>
	</g>
	<g>
		<g>
			<g>
				<path class="st1" d="M58.1,70.8c0.3-0.1,0.5,0.2,0.8,0.2c0.2,0,0.3,0,0.5-0.1c0.2-0.1,0.6-0.1,0.8,0c0.1,0,0.2,0.1,0.3,0.2
					c0.2,0.1,0.3,0.1,0.5,0.1c0.1,0,0-0.1,0-0.1c-0.5,0.1-0.6-0.3-1-0.4c-0.2,0-0.2,0-0.4,0.1c-0.5,0.1,0.4,0.3-0.9,0
					c-0.1,0-0.2-0.1-0.2-0.1c-0.2,0-0.2,0-0.3,0.1c0,0,0,0.1,0,0.1C58,70.9,58,70.9,58.1,70.8C58.1,70.8,58.1,70.8,58.1,70.8
					L58.1,70.8z"/>
			</g>
		</g>
	</g>
	<g>
		<g>
			<g>
				<path class="st1" d="M60.9,71.1c0.6,0.1,1.2,0.5,1.8,0.3c0.1,0,0-0.1,0-0.1C62,71.6,61.5,71.2,60.9,71.1
					C60.8,71.1,60.8,71.1,60.9,71.1L60.9,71.1z"/>
			</g>
		</g>
	</g>
	<g>
		<g>
			<g>
				<path class="st1" d="M62.7,71.4c0.2-0.1,0.5-0.1,0.6,0.2c0.1,0.3-0.3,0.3-0.5,0.4c-0.1,0-0.1,0.1,0,0.1c0.2,0,0.6-0.1,0.5-0.5
					C63.3,71.2,62.9,71.2,62.7,71.4C62.6,71.4,62.7,71.4,62.7,71.4L62.7,71.4z"/>
			</g>
		</g>
	</g>
	<g>
		<g>
			<g>
				<path class="st1" d="M62.8,71.9c-0.6,0.1-1.3,0.3-1.9,0.1c-0.4-0.2-0.7-0.3-1.1-0.1c0,0,0,0.1,0,0.1c0.6-0.2,0.9,0.2,1.4,0.2
					C61.7,72.2,62.3,72,62.8,71.9C62.8,72,62.8,71.9,62.8,71.9L62.8,71.9z"/>
			</g>
		</g>
	</g>
	<g>
		<g>
			<g>
				<path class="st1" d="M59.8,71.9C59.5,72,59.2,72,59,71.8c0,0-0.1,0,0,0.1C59.2,72.1,59.6,72.1,59.8,71.9
					C59.9,71.9,59.8,71.9,59.8,71.9L59.8,71.9z"/>
			</g>
		</g>
	</g>
	<g>
		<g>
			<g>
				<path class="st1" d="M59,71.9C59,71.9,59,71.9,59,71.9C58.9,71.9,58.9,71.9,59,71.9L59,71.9z"/>
			</g>
		</g>
	</g>
	<g>
		<g>
			<g>
				<path class="st1" d="M63.9,72.6c-0.1-0.1-0.2-0.1-0.2-0.2c-0.2-0.3,0.1-0.3,0.2-0.4c0.1-0.1,0.1-0.1,0.2-0.2
					c0.4-0.5,0.1-0.3,0.4-0.4c0.2-0.1,0.4-0.1,0.5-0.1c0.3-0.1,0.7-0.1,1-0.2c0.1,0,0-0.1,0-0.1c-0.5,0.1-1,0.1-1.5,0.2
					c-0.3,0.1-0.3,0.1-0.4,0.3c-0.1,0.1-0.1,0.3-0.2,0.3c-0.1,0.1-0.1,0.1-0.2,0.1c0,0.1-0.1,0.1-0.1,0.1
					C63.5,72.4,63.7,72.5,63.9,72.6C63.9,72.7,64,72.6,63.9,72.6L63.9,72.6z"/>
			</g>
		</g>
	</g>
	<g>
		<g>
			<g>
				<path class="st1" d="M61.4,70.4c-0.8,0-1.5-0.4-2.4-0.3c-0.5,0.1-0.5,0-1.1-0.1c-0.1,0-0.2-0.1-0.2-0.1c-0.2,0-0.2-0.1-0.3,0.1
					v0c0,0,0,0,0,0c0,0,0.1,0,0.1,0c0,0,0.7,0.2,0.8,0.3c0.3,0.1,0.6-0.1,0.9-0.1C60,70.1,60.7,70.4,61.4,70.4
					C61.4,70.5,61.4,70.4,61.4,70.4L61.4,70.4z"/>
			</g>
		</g>
	</g>
	<g>
		<g>
			<g>
				<path class="st1" d="M57.3,69.5c0.1,0,0.3,0,0.4-0.1c0.1-0.1,0.4-0.4,0.5-0.2c0,0,0.1,0,0.1-0.1c-0.1-0.1-0.2-0.1-0.3,0
					c-0.1,0.1-0.2,0.2-0.2,0.2C57.6,69.4,57.4,69.4,57.3,69.5C57.2,69.5,57.2,69.5,57.3,69.5L57.3,69.5z"/>
			</g>
		</g>
	</g>
	<g>
		<g>
			<g>
				<path class="st1" d="M58.2,69.3c0.2,0.1,0.4,0,0.6-0.1c0,0,0-0.1-0.1-0.1C58.6,69.2,58.4,69.3,58.2,69.3
					C58.2,69.2,58.1,69.2,58.2,69.3L58.2,69.3z"/>
			</g>
		</g>
	</g>
	<g>
		<g>
			<g>
				<path class="st1" d="M62.8,70.7c0-0.1,0.1-0.1,0.1-0.1c0,0,0.1-0.1,0.1-0.1c0,0,0.1,0.1,0.1,0.1c0,0,0,0.1,0,0.2
					c0,0.1,0.1,0.1,0.2,0.1c0.2,0,0.3-0.3,0.3-0.4c0-0.1-0.1-0.1-0.1,0c0,0.1,0,0.2,0,0.2c-0.1,0.1-0.2,0.2-0.3,0.1
					c-0.1-0.1,0-0.2-0.1-0.3C63,70.3,62.8,70.5,62.8,70.7C62.7,70.7,62.8,70.7,62.8,70.7L62.8,70.7z"/>
			</g>
		</g>
	</g>
	<g>
		<g>
			<g>
				<path class="st1" d="M63.5,70.4c0-0.1,0.1-0.1,0.2-0.1c0,0,0,0.1,0,0.1c0,0,0,0.1,0,0.1c0,0.1,0.1,0.1,0.2,0.1
					c0.3,0,0.2-0.5,0.4-0.5c0.1,0,0-0.1,0-0.1c-0.1,0-0.2,0.1-0.2,0.2c0,0.1,0,0.1-0.1,0.2c-0.1,0.1-0.1,0.2-0.2,0.1
					c0,0,0-0.1,0-0.1c0-0.1,0-0.2-0.1-0.2c-0.1,0-0.2,0.1-0.2,0.2C63.5,70.4,63.5,70.5,63.5,70.4L63.5,70.4z"/>
			</g>
		</g>
	</g>
	<g>
		<g>
			<g>
				<path class="st1" d="M64.3,70.2c0.2,0.3,0.4,0.5,0.8,0.5c0.2,0,0.3-0.1,0.4-0.2c0.2-0.2,0.3-0.5,0.6-0.6c0.1,0,0-0.1,0-0.1
					c-0.2,0-0.3,0.2-0.4,0.4C65.3,70.7,64.6,70.7,64.3,70.2C64.3,70.1,64.3,70.2,64.3,70.2L64.3,70.2z"/>
			</g>
		</g>
	</g>
	<g>
		<g>
			<g>
				<path class="st1" d="M66,70c0.1,0.1,0,0.3,0.2,0.4c0.1,0,0.1,0,0.2,0c0.1-0.1,0.2-0.2,0.3-0.3c0,0,0-0.1-0.1-0.1
					c-0.1,0.1-0.2,0.2-0.2,0.3c-0.1,0.1-0.2,0.2-0.2,0c0,0,0-0.1,0-0.1C66.1,70.1,66.1,70,66,70C66,69.9,66,69.9,66,70L66,70z"/>
			</g>
		</g>
	</g>
	<g>
		<g>
			<g>
				<path class="st1" d="M61.5,68.7c-0.2,0.2-0.5,0.6-0.4,0.9c0.2,0.4,0.7,0.3,1,0.2c0.1,0,0-0.1,0-0.1c-0.3,0.1-0.8,0.2-0.9-0.2
					C61,69.2,61.3,68.9,61.5,68.7C61.5,68.7,61.5,68.6,61.5,68.7L61.5,68.7z"/>
			</g>
		</g>
	</g>
	<g>
		<g>
			<g>
				<path class="st1" d="M62.6,68.7c0.3,0.2,0.7,0.4,0.5,0.8c-0.2,0.3-0.7,0.3-1,0.2c-0.1,0-0.1,0.1,0,0.1c0.4,0.1,0.9,0.2,1.1-0.3
					C63.3,69.1,62.9,68.8,62.6,68.7C62.6,68.6,62.6,68.7,62.6,68.7L62.6,68.7z"/>
			</g>
		</g>
	</g>
	<g>
		<g>
			<g>
				<path class="st1" d="M64.9,68.9c0.3-0.1,0.4,0.4,0.7,0.4c0.1,0,0.2-0.1,0.3-0.1c0.3-0.2,0.7-0.2,0.9,0.2c0,0,0.1,0,0.1,0
					c-0.2-0.3-0.4-0.4-0.7-0.3c-0.1,0-0.1,0.1-0.2,0.1c-0.2,0.1-0.4,0.1-0.6,0c-0.1-0.1-0.1-0.1-0.1-0.2
					C65.1,68.9,65,68.9,64.9,68.9C64.8,68.9,64.9,68.9,64.9,68.9L64.9,68.9z"/>
			</g>
		</g>
	</g>
	<g>
		<g>
			<g>
				<path class="st1" d="M75.8,64.5c1.8-0.7,4.4-1.3,6.3-0.6c0.1,0,0.1-0.1,0-0.1C80.2,63.2,77.6,63.8,75.8,64.5
					C75.7,64.5,75.7,64.5,75.8,64.5L75.8,64.5z"/>
			</g>
		</g>
	</g>
	<g>
		<g>
			<g>
				<path class="st1" d="M75.1,65.4c2.5-1.3,5.3-1.5,8-0.6c0.1,0,0.1-0.1,0-0.1C80.4,63.8,77.6,64,75.1,65.4
					C75.1,65.3,75.1,65.4,75.1,65.4L75.1,65.4z"/>
			</g>
		</g>
	</g>
	<g>
		<g>
			<g>
				<path class="st1" d="M74.4,67.2c0.4-0.3,0.8-0.5,1.3-0.6c0.1,0,0.1-0.1,0-0.1C75.1,66.6,74.7,66.8,74.4,67.2
					C74.3,67.2,74.4,67.2,74.4,67.2L74.4,67.2z"/>
			</g>
		</g>
	</g>
	<g>
		<g>
			<g>
				<path class="st1" d="M78.9,66.3c0.3,0,0.5,0,0.8,0c0.1,0,0.1-0.1,0-0.1C79.5,66.2,79.2,66.2,78.9,66.3
					C78.9,66.2,78.9,66.3,78.9,66.3L78.9,66.3z"/>
			</g>
		</g>
	</g>
	<g>
		<g>
			<g>
				<path class="st1" d="M83,66.3c0.4,0,0.8,0.1,1.1,0.3c0.1,0,0.1-0.1,0-0.1C83.7,66.4,83.4,66.3,83,66.3
					C82.9,66.3,82.9,66.3,83,66.3L83,66.3z"/>
			</g>
		</g>
	</g>
	<g>
		<g>
			<g>
				<path class="st1" d="M74.7,66.2c0.3-0.2,0.7-0.3,1.1-0.4c0.1,0,0-0.1,0-0.1C75.3,65.8,75,65.9,74.7,66.2
					C74.6,66.1,74.7,66.2,74.7,66.2L74.7,66.2z"/>
			</g>
		</g>
	</g>
	<g>
		<g>
			<g>
				<path class="st1" d="M78.6,65.3c0.5-0.1,0.9-0.1,1.4,0c0.1,0,0.1-0.1,0-0.1C79.5,65.2,79,65.2,78.6,65.3
					C78.5,65.2,78.5,65.3,78.6,65.3L78.6,65.3z"/>
			</g>
		</g>
	</g>
	<g>
		<g>
			<g>
				<path class="st1" d="M82.8,65.5c0.3,0,0.6,0.1,0.9,0.2c0.1,0,0.1-0.1,0-0.1C83.4,65.5,83.1,65.4,82.8,65.5
					C82.8,65.4,82.8,65.5,82.8,65.5L82.8,65.5z"/>
			</g>
		</g>
	</g>
	<g>
		<g>
			<g>
				<path class="st1" d="M78.9,68.6c-0.4,0-0.5,0.4-0.6,0.7c-0.1,0.4,0.1,0.5,0.5,0.6c0.1,0,0.1-0.1,0-0.1c-0.1,0-0.3,0-0.4-0.2
					c-0.1-0.2,0-0.4,0.1-0.5C78.5,68.9,78.7,68.6,78.9,68.6C79,68.6,79,68.6,78.9,68.6L78.9,68.6z"/>
			</g>
		</g>
	</g>
	<g>
		<g>
			<g>
				<path class="st1" d="M78.8,69.8c0.5-0.3,1.3,0.3,1.6-0.2c0.3-0.4-0.3-0.9-0.6-1c0,0-0.1,0,0,0.1c0.2,0.2,0.5,0.4,0.6,0.6
					c0.2,0.5-0.3,0.6-0.6,0.6C79.5,69.7,79.1,69.6,78.8,69.8C78.8,69.8,78.8,69.8,78.8,69.8L78.8,69.8z"/>
			</g>
		</g>
	</g>
	<g>
		<g>
			<g>
				<path class="st1" d="M78.8,69.8c0,0.3-0.2,1.3,0.5,1.2c0.5-0.1,0.4-0.9,0.3-1.2c0-0.1-0.1-0.1-0.1,0c0,0.3,0.2,0.9-0.1,1.1
					c-0.4,0.3-0.6-0.2-0.6-0.5C78.8,70.2,78.8,70,78.8,69.8C78.9,69.8,78.8,69.8,78.8,69.8L78.8,69.8z"/>
			</g>
		</g>
	</g>
	<g>
		<g>
			<g>
				<path class="st1" d="M79.5,70.8c0.1,0.3,0.4,0.3,0.6,0.1c0.3-0.3,0.2-0.8,0-1.1c0,0-0.1,0-0.1,0c0.1,0.2,0.2,0.5,0.1,0.8
					c0,0.1-0.1,0.2-0.2,0.3C79.9,71,79.6,71,79.5,70.8C79.6,70.7,79.5,70.7,79.5,70.8L79.5,70.8z"/>
			</g>
		</g>
	</g>
	<g>
		<g>
			<g>
				<path class="st1" d="M74.4,68.6c0.5-0.3,1.1-0.5,1.8-0.6c0.1,0,0.1-0.1,0-0.1C75.5,68,74.9,68.2,74.4,68.6
					C74.3,68.6,74.4,68.6,74.4,68.6L74.4,68.6z"/>
			</g>
		</g>
	</g>
	<g>
		<g>
			<g>
				<path class="st1" d="M78.6,67.9c0.5-0.1,1-0.2,1.5-0.1c0.1,0,0.1-0.1,0-0.1C79.6,67.7,79.1,67.7,78.6,67.9
					C78.6,67.9,78.6,67.9,78.6,67.9L78.6,67.9z"/>
			</g>
		</g>
	</g>
	<g>
		<g>
			<g>
				<path class="st1" d="M82.5,67.9c0.6,0,1.2,0.1,1.8,0.3c0.1,0,0.1-0.1,0-0.1C83.7,67.9,83.1,67.9,82.5,67.9
					C82.4,67.9,82.4,67.9,82.5,67.9L82.5,67.9z"/>
			</g>
		</g>
	</g>
	<g>
		<g>
			<g>
				<path class="st1" d="M74.6,69.8c0.9,1,3,1.1,4.2,0.8c0.1,0,0-0.1,0-0.1C77.6,70.8,75.5,70.7,74.6,69.8
					C74.6,69.7,74.5,69.8,74.6,69.8L74.6,69.8z"/>
			</g>
		</g>
	</g>
	<g>
		<g>
			<g>
				<path class="st1" d="M80.2,70.6c0.8-0.2,1.7-0.3,2.5-0.5c0.6-0.1,1-0.3,1.4-0.8c0,0,0-0.1-0.1-0.1
					C83.3,70.3,81.4,70.3,80.2,70.6C80.2,70.5,80.2,70.6,80.2,70.6L80.2,70.6z"/>
			</g>
		</g>
	</g>
	<g>
		<g>
			<g>
				<path class="st1" d="M75.3,71.1c2.7,1,5.7,0.9,8.2-0.4c0,0,0-0.1,0-0.1C81,72,78.1,72.1,75.3,71.1
					C75.3,71.1,75.3,71.1,75.3,71.1L75.3,71.1z"/>
			</g>
		</g>
	</g>
	<g>
		<g>
			<g>
				<path class="st1" d="M76.3,72.1c2.1,0.6,4.2,0.5,6.3-0.3c0,0,0-0.1,0-0.1C80.5,72.6,78.4,72.6,76.3,72.1
					C76.3,72,76.3,72.1,76.3,72.1L76.3,72.1z"/>
			</g>
		</g>
	</g>
	<g>
		<g>
			<g>
				<path class="st1" d="M96.1,67.6c-0.1,0.3-0.2,0.8,0.1,1c0.3,0.3,0.7-0.1,1-0.3c0.2-0.2,0.7-0.6,0.5-0.9
					c-0.2-0.4-0.9-0.3-1.2-0.2c-0.1,0,0,0.1,0,0.1c0.3-0.1,0.9-0.2,1.1,0.1c0.2,0.3-0.3,0.7-0.4,0.8c-0.3,0.2-0.8,0.7-1,0.1
					c-0.1-0.2,0-0.6,0.1-0.8C96.2,67.6,96.2,67.5,96.1,67.6L96.1,67.6z"/>
			</g>
		</g>
	</g>
	<g>
		<g>
			<g>
				<path class="st1" d="M96.9,68.7c0.1,0.3,0.4,0.7,0.8,0.6c0.4-0.2-0.2-0.7-0.3-0.9c0,0-0.1,0-0.1,0.1c0.1,0.1,0.2,0.2,0.3,0.3
					c0,0.1,0.1,0.1,0.1,0.2c0.1,0.1,0,0.3-0.2,0.3C97.2,69.1,97,68.8,96.9,68.7C96.9,68.6,96.8,68.6,96.9,68.7L96.9,68.7z"/>
			</g>
		</g>
	</g>
	<g>
		<g>
			<g>
				<path class="st1" d="M97.6,68.9c0,0.1,0.1,0.1,0.2,0.1c0.1,0,0.2-0.1,0.2-0.2c0.1-0.3-0.2-0.5-0.5-0.7c0,0-0.1,0,0,0.1
					c0.2,0.1,0.3,0.2,0.4,0.4c0.1,0.1,0.1,0.2,0,0.3c0,0.1,0,0.1-0.1,0.1C97.9,68.9,97.7,69,97.6,68.9
					C97.7,68.9,97.6,68.9,97.6,68.9L97.6,68.9z"/>
			</g>
		</g>
	</g>
	<g>
		<g>
			<g>
				<path class="st0" d="M101.8,62.5c-0.5-0.4-1.8,0.4-3.4,1.8c0,0,0,0,0.1,0c1.3-1.2,2.4-1.9,3-1.9
					C101.6,62.5,101.7,62.5,101.8,62.5c0.6,0.6-0.8,3.5-3.3,6.5c-1.2,1.5-2.5,2.7-3.6,3.6c-1.1,0.8-1.9,1.1-2.2,0.9
					c-0.5-0.4,0-1.7,1-3.4c0,0,0,0-0.1-0.1c-1.1,1.8-1.5,3.1-1,3.5c0.1,0.1,0.2,0.1,0.3,0.1c0.4,0,1.1-0.3,1.9-1
					c1.1-0.8,2.4-2.1,3.6-3.6C101.1,66,102.5,63.2,101.8,62.5z"/>
			</g>
		</g>
		<g>
			<g>
				<path class="st0" d="M101,63.4c-0.4-0.3-1.3,0.1-2.5,1c0,0,0,0,0.1,0.1c0.9-0.7,1.6-1.1,2.1-1.1C100.7,63.4,100.8,63.4,101,63.4
					c0.6,0.6-0.6,3.1-2.7,5.6c-1,1.2-2.1,2.3-3,3c-0.9,0.7-1.6,0.9-1.9,0.7c-0.4-0.3-0.1-1.3,0.5-2.5c0,0,0,0-0.1-0.1
					c-0.7,1.3-0.9,2.3-0.5,2.6c0.1,0.1,0.2,0.1,0.4,0.1c0.4,0,0.9-0.3,1.6-0.8c0.9-0.7,2-1.8,3-3C100.5,66.5,101.7,64,101,63.4z"/>
			</g>
		</g>
	</g>
	<g>
		<g>
			<g>
				<path class="st1" d="M100,66.3c0,0.1,0.1,0.2,0.1,0.2c0,0.1,0.1,0,0.1,0C100.1,66.4,100.1,66.3,100,66.3
					C100.1,66.2,100,66.3,100,66.3L100,66.3z"/>
			</g>
		</g>
	</g>
	<g>
		<g>
			<g>
				<path class="st1" d="M100.3,67.4c0-0.2,0-0.3-0.1-0.4c0-0.1-0.1,0-0.1,0C100.2,67.1,100.3,67.3,100.3,67.4
					C100.3,67.4,100.3,67.4,100.3,67.4L100.3,67.4z"/>
			</g>
		</g>
	</g>
	<g>
		<g>
			<g>
				<path class="st1" d="M95.7,71.2c0.2,0.1,0.4,0.1,0.5,0.1c0.1,0,0.1-0.1,0-0.1C96,71.2,95.8,71.2,95.7,71.2
					C95.6,71.2,95.6,71.2,95.7,71.2L95.7,71.2z"/>
			</g>
		</g>
	</g>
	<g>
		<g>
			<g>
				<path class="st1" d="M97.5,71.2c-0.3,0.1-0.6,0.1-0.9,0.1c-0.1,0-0.1,0.1,0,0.1C96.9,71.3,97.2,71.3,97.5,71.2
					C97.5,71.2,97.5,71.2,97.5,71.2L97.5,71.2z"/>
			</g>
		</g>
	</g>
	<g>
		<g>
			<g>
				<path class="st0" d="M119.2,69.8c-0.7-1.1-1.8-2.5-3.1-3.8c-2.8-2.8-5.6-4.7-6.4-4.2c-0.5,0.3,0.1,1.6,1.3,3.3c0,0,0,0,0.1,0
					c-1-1.3-1.6-2.5-1.5-3c0-0.1,0.1-0.2,0.2-0.2c0.7-0.5,3.6,1.4,6.3,4.2C117.4,67.4,118.5,68.7,119.2,69.8
					c0.6,1.1,0.8,1.9,0.5,2.1c-0.5,0.3-1.8-0.4-3.3-1.6c0,0,0,0-0.1,0.1c1.6,1.2,3,1.9,3.5,1.6c0.1-0.1,0.2-0.2,0.2-0.3
					C120,71.3,119.8,70.6,119.2,69.8z"/>
			</g>
		</g>
		<g>
			<g>
				<path class="st0" d="M118.6,69.4c-0.6-1-1.5-2.1-2.6-3.2c-2.4-2.4-4.8-3.9-5.5-3.5c-0.4,0.3-0.1,1.1,0.7,2.3c0,0,0,0,0.1-0.1
					c-0.6-0.9-0.9-1.6-0.8-2c0-0.1,0.1-0.2,0.2-0.3c0.7-0.4,3.1,1.1,5.4,3.5C117,67.3,118,68.4,118.6,69.4c0.5,0.9,0.6,1.6,0.3,1.8
					c-0.4,0.2-1.3-0.2-2.5-1c0,0,0,0-0.1,0.1c1.2,0.8,2.2,1.2,2.6,1c0.1-0.1,0.2-0.2,0.2-0.3C119.2,70.7,119,70.1,118.6,69.4z"/>
			</g>
		</g>
	</g>
	<g>
		<g>
			<g>
				<path class="st1" d="M112.9,64c0.1,0,0.3-0.1,0.4-0.1c0.1,0,0.1-0.1,0-0.1C113.2,63.9,113,64,112.9,64
					C112.9,64,112.9,64,112.9,64L112.9,64z"/>
			</g>
		</g>
	</g>
	<g>
		<g>
			<g>
				<path class="st1" d="M114.2,63.9c-0.1,0-0.2,0-0.3,0c-0.1,0-0.1,0.1,0,0.1C114,64,114.1,64,114.2,63.9
					C114.2,64,114.2,63.9,114.2,63.9L114.2,63.9z"/>
			</g>
		</g>
	</g>
	<g>
		<g>
			<g>
				<path class="st1" d="M117.2,68.9c0.1-0.4,0.2-0.7,0.2-1.1c0-0.1-0.1-0.1-0.1,0C117.4,68.2,117.3,68.6,117.2,68.9
					C117.1,69,117.2,69,117.2,68.9L117.2,68.9z"/>
			</g>
		</g>
	</g>
	<g>
		<g>
			<g>
				<path class="st1" d="M112.5,68.3c-0.3-0.1-0.7-0.1-0.9,0.3c-0.1,0.3,0.2,0.5,0.4,0.7c0.2,0.2,0.4,0.6,0.7,0.5
					c0.4-0.1,0.4-0.6,0.4-0.9c0-0.1-0.1-0.1-0.1,0c0,0.2,0,0.5-0.1,0.7c-0.2,0.3-0.5,0.2-0.7-0.1c-0.1-0.1-0.1-0.1-0.1-0.2
					c-0.1-0.1-0.3-0.2-0.4-0.3c0-0.1-0.1-0.3-0.1-0.4c0.1-0.1,0.2-0.2,0.3-0.2C112.2,68.3,112.4,68.3,112.5,68.3
					C112.5,68.3,112.6,68.3,112.5,68.3L112.5,68.3z"/>
			</g>
		</g>
	</g>
	<g>
		<g>
			<g>
				<path class="st1" d="M111.8,68.9c-0.2,0.1-0.6,0.4-0.4,0.6c0.2,0.3,0.6-0.1,0.8-0.2c0,0,0-0.1,0-0.1c-0.2,0.1-0.4,0.4-0.6,0.3
					c-0.2-0.1-0.1-0.3,0-0.4C111.6,69,111.7,69,111.8,68.9C111.8,68.9,111.8,68.9,111.8,68.9L111.8,68.9z"/>
			</g>
		</g>
	</g>
	<g>
		<g>
			<g>
				<path class="st1" d="M111.6,69.6c-0.1,0.2,0.1,0.4,0.3,0.4c0.3,0,0.5-0.2,0.6-0.4c0,0,0-0.1-0.1,0c-0.1,0.1-0.2,0.2-0.3,0.3
					C111.9,70,111.6,69.9,111.6,69.6C111.6,69.5,111.6,69.5,111.6,69.6L111.6,69.6z"/>
			</g>
		</g>
	</g>
	<g>
		<g>
			<g>
				<path class="st1" d="M127.6,67.3c-0.2-0.2-0.4-0.5-0.7-0.4c-0.3,0.1-0.3,0.4-0.3,0.7c0,0.1,0.1,0.2,0.1,0.3c0,0.2,0,0.3,0,0.5
					c0,0.1,0.1,0.2,0.2,0.2c0.3,0.2,0.6-0.2,0.8-0.4c0,0,0-0.1,0-0.1c-0.2,0.1-0.3,0.2-0.4,0.3c-0.2,0.1-0.4,0.1-0.5-0.2
					c0-0.1,0-0.2,0-0.3c0-0.2-0.1-0.4-0.1-0.6c0-0.3,0.2-0.6,0.5-0.4C127.4,67,127.5,67.2,127.6,67.3
					C127.5,67.4,127.6,67.3,127.6,67.3L127.6,67.3z"/>
			</g>
		</g>
	</g>
	<g>
		<g>
			<g>
				<path class="st1" d="M126.6,67.4L126.6,67.4C126.6,67.4,126.6,67.4,126.6,67.4c0-0.1-0.2-0.1-0.2-0.1c-0.1,0-0.2,0.1-0.3,0.2
					c0,0.1,0,0.2,0.1,0.2c0.1,0.1,0.3,0.1,0.4,0.1c0.1,0,0.1-0.1,0-0.1c-0.1,0-0.4,0.1-0.4-0.1c-0.1-0.1,0-0.2,0.1-0.3
					C126.4,67.4,126.5,67.3,126.6,67.4C126.6,67.3,126.6,67.3,126.6,67.4L126.6,67.4C126.5,67.3,126.5,67.4,126.6,67.4L126.6,67.4z"
					/>
			</g>
		</g>
	</g>
	<g>
		<g>
			<g>
				<path class="st1" d="M126.3,67.7c-0.2,0-0.3,0.2-0.2,0.3c0.1,0.2,0.4,0.2,0.6,0.2c0.1,0,0-0.1,0-0.1c-0.1,0-0.3,0.1-0.4,0
					c-0.1,0-0.1-0.1-0.1-0.2C126.1,67.9,126.2,67.8,126.3,67.7C126.3,67.8,126.3,67.7,126.3,67.7L126.3,67.7z"/>
			</g>
		</g>
	</g>
	<g>
		<g>
			<g>
				<path class="st1" d="M126.2,66.9c0.4-0.5,0.8-0.8,1.4-1c0.1,0,0-0.1,0-0.1C127,66.1,126.5,66.4,126.2,66.9
					C126.1,66.9,126.2,67,126.2,66.9L126.2,66.9z"/>
			</g>
		</g>
	</g>
	<g>
		<g>
			<g>
				<path class="st1" d="M126.4,70c0.3,0.3,0.6,0.4,1,0.5c0.1,0,0.1-0.1,0-0.1C127.1,70.3,126.7,70.2,126.4,70
					C126.4,69.9,126.4,69.9,126.4,70L126.4,70z"/>
			</g>
		</g>
	</g>
	<g>
		<g>
			<g>
				<path class="st1" d="M130,65.3c2.2-0.4,4.1,0,5.8,1.3c0,0,0.1,0,0-0.1C134.1,65.3,132.2,64.9,130,65.3
					C130,65.3,130,65.3,130,65.3L130,65.3z"/>
			</g>
		</g>
	</g>
	<g>
		<g>
			<g>
				<path class="st1" d="M129.7,70.6c2.3,0,4.6,0.2,6.3-1.6c0,0,0-0.1-0.1-0.1C134.3,70.8,132,70.5,129.7,70.6
					C129.7,70.6,129.7,70.6,129.7,70.6L129.7,70.6z"/>
			</g>
		</g>
	</g>
	<g>
		<g>
			<g>
				<path class="st1" d="M129.8,66.3c1.6-0.1,5.3-0.8,5.2,1.8c0,0.1,0.1,0.1,0.1,0C135.2,65.5,131.3,66.2,129.8,66.3
					C129.8,66.2,129.8,66.3,129.8,66.3L129.8,66.3z"/>
			</g>
		</g>
	</g>
	<g>
		<g>
			<g>
				<path class="st1" d="M135,68.1c-0.6,1.4-3.2,1.8-4.4,1.2c0,0-0.1,0,0,0.1C131.8,70,134.4,69.6,135,68.1
					C135.1,68.1,135,68.1,135,68.1L135,68.1z"/>
			</g>
		</g>
	</g>
	<g>
		<g>
			<g>
				<path class="st1" d="M130.5,69.2c-0.8-0.4,0-1.2,0.5-1.5c0.5-0.2,1-0.3,1.5-0.3c0.1,0,0.1-0.1,0-0.1c-0.7,0-1.6,0.2-2.2,0.7
					C130.1,68.5,130,69,130.5,69.2C130.5,69.3,130.6,69.2,130.5,69.2L130.5,69.2z"/>
			</g>
		</g>
	</g>
	<g>
		<g>
			<g>
				<path class="st1" d="M132.6,67.5c0.3,0,0.5,0,0.7,0.1c0.3,0.1,0.7,0.3,0.8,0.6c0.1,0.7-0.9,0.8-1.4,0.9c-0.1,0,0,0.1,0,0.1
					c0.4-0.1,1.5-0.2,1.5-0.9C134.1,67.6,133.1,67.3,132.6,67.5C132.5,67.4,132.5,67.5,132.6,67.5L132.6,67.5z"/>
			</g>
		</g>
	</g>
	<g>
		<g>
			<g>
				<path class="st1" d="M132.6,69.1c-0.3,0-0.6,0-0.8-0.1c-0.1,0-0.2,0-0.4-0.1c-0.1,0-0.1,0-0.1,0c-0.2,0-0.3-0.1-0.3-0.3
					c0,0,0-0.1,0-0.1c-0.2,0.1-0.1,0.3,0.1,0.4c0.2,0.1,0.5,0.1,0.7,0.1C132,69.2,132.3,69.2,132.6,69.1
					C132.6,69.2,132.6,69.1,132.6,69.1L132.6,69.1z"/>
			</g>
		</g>
	</g>
	<g>
		<g>
			<g>
				<path class="st1" d="M131,68.7c0.3-0.6,1.4-0.6,2-0.6c0.1,0,0.1-0.1,0-0.1C132.4,68,131.3,68,131,68.7
					C130.9,68.7,131,68.7,131,68.7L131,68.7z"/>
			</g>
		</g>
	</g>
	<g>
		<g>
			<g>
				<path class="st1" d="M132.9,68.1c0.3,0.2,0.1,0.6-0.2,0.6c-0.1,0-0.1,0.1,0,0.1C133.1,68.7,133.3,68.3,132.9,68.1
					C132.9,68,132.9,68,132.9,68.1L132.9,68.1z"/>
			</g>
		</g>
	</g>
	<g>
		<g>
			<g>
				<path class="st1" d="M132.7,68.7c-0.4,0-0.8,0-1.1-0.2c0,0,0,0.1,0,0.1c0.4-0.1,0.7-0.2,1.1-0.2c0.1,0,0.1-0.1,0-0.1
					c-0.4,0-0.8,0.1-1.1,0.2c0,0,0,0.1,0,0.1C131.8,68.8,132.3,68.8,132.7,68.7C132.7,68.8,132.7,68.7,132.7,68.7L132.7,68.7z"/>
			</g>
		</g>
	</g>
	<g>
		<g>
			<g>
				<path class="st1" d="M115.6,68c0.4-0.3,0.7-0.7,1-1.1c0,0,0-0.1-0.1,0C116.3,67.3,115.9,67.6,115.6,68
					C115.5,68,115.5,68,115.6,68L115.6,68z"/>
			</g>
		</g>
	</g>
	<g>
		<g>
			<g>
				<path class="st1" d="M113.1,65.8c0.4-0.4,0.8-0.9,1.4-0.9c0.1,0,0.1-0.1,0-0.1C113.9,64.9,113.5,65.4,113.1,65.8
					C113,65.8,113,65.9,113.1,65.8L113.1,65.8z"/>
			</g>
		</g>
	</g>
	<g>
		<g>
			<g>
				<path class="st1" d="M114.8,64.8c0.4-0.1,0.8-0.1,1.2,0c0.1,0,0.1-0.1,0-0.1C115.7,64.6,115.3,64.7,114.8,64.8
					C114.8,64.8,114.8,64.9,114.8,64.8L114.8,64.8z"/>
			</g>
		</g>
	</g>
	<g>
		<g>
			<g>
				<path class="st1" d="M116.7,66.7c0.2-0.3,0.2-0.6,0.2-0.9c0-0.1-0.1,0-0.1,0C116.9,66,116.9,66.4,116.7,66.7
					C116.6,66.7,116.7,66.7,116.7,66.7L116.7,66.7z"/>
			</g>
		</g>
	</g>
	<g>
		<g>
			<g>
				<path class="st1" d="M113.4,67.4c0.9,0.1,2.1-0.4,2.6-1.1c0,0,0-0.1-0.1,0C115.5,67,114.3,67.5,113.4,67.4
					C113.4,67.4,113.4,67.4,113.4,67.4L113.4,67.4z"/>
			</g>
		</g>
	</g>
	<g>
		<g>
			<g>
				<path class="st1" d="M116.1,66c0.1-0.2,0.1-0.4,0-0.6c-0.1-0.2-0.4-0.2-0.6-0.1c0,0,0,0.1,0,0.1c0.2-0.1,0.4-0.1,0.6,0.1
					C116.2,65.7,116.2,65.9,116.1,66C116,66,116.1,66.1,116.1,66L116.1,66z"/>
			</g>
		</g>
	</g>
	<g>
		<g>
			<g>
				<path class="st1" d="M115.3,65.6c-0.4,0.1-0.8,0.3-1.1,0.6c-0.2,0.2-0.6,0.6-0.4,0.9c0.4,0.5,1.7-0.8,2-1.1c0,0,0-0.1-0.1-0.1
					c-0.2,0.2-0.5,0.5-0.8,0.7c-0.2,0.1-1,0.8-1.1,0.3c0-0.3,0.4-0.6,0.6-0.8C114.6,65.9,114.9,65.8,115.3,65.6
					C115.3,65.6,115.3,65.6,115.3,65.6L115.3,65.6z"/>
			</g>
		</g>
	</g>
	<g>
		<g>
			<g>
				<path class="st1" d="M95.5,67.3c1.3-0.1,3.8-0.4,4.1-1.9c0-0.1-0.1-0.1-0.1,0C99.2,66.9,96.7,67.2,95.5,67.3
					C95.4,67.3,95.4,67.3,95.5,67.3L95.5,67.3z"/>
			</g>
		</g>
	</g>
	<g>
		<g>
			<g>
				<path class="st1" d="M95.1,69c0.3-0.1,0.6-0.1,0.9-0.1c0.2,0,0.6,0,0.7,0.3c0.1,0.2-0.1,0.5-0.2,0.7c-0.2,0.2-0.4,0.5-0.5,0.7
					c-0.1,0.1-0.5,0.6-0.6,0.6c0.1,0,0.1-0.1,0-0.1l0,0c0,0,0,0,0,0s0,0,0,0c0,0,0,0,0.1,0c0.3-0.1,0.7-0.6,0.9-0.8
					c0.2-0.3,0.5-0.6,0.5-0.9C96.7,68.6,95.5,68.8,95.1,69C95,68.9,95,69,95.1,69L95.1,69z"/>
			</g>
		</g>
	</g>
</g>
</svg>
