<?xml version="1.0" encoding="utf-8"?>
<!-- Generator: Adobe Illustrator 24.0.1, SVG Export Plug-In . SVG Version: 6.00 Build 0)  -->
<svg version="1.1" id="Layer_1" xmlns="http://www.w3.org/2000/svg" xmlns:xlink="http://www.w3.org/1999/xlink" x="0px" y="0px"
	 viewBox="0 0 141.7 141.7" style="enable-background:new 0 0 141.7 141.7;" xml:space="preserve">
<g id="Layer_1_1_">
</g>
<g id="Layer_1_2_">
</g>
<g id="Layer_1_3_">
</g>
<g id="Layer_1_4_">
</g>
<g id="Layer_1_5_">
</g>
<g id="Layer_3">
</g>
<g id="Layer_3_1_">
</g>
<g id="Layer_1_6_">
</g>
<g id="Layer_1_7_">
</g>
<g id="Layer_1_8_">
</g>
<g id="Layer_1_9_">
</g>
<g id="Layer_1_10_">
</g>
<g id="Layer_1_11_">
</g>
<g id="Layer_1_12_">
</g>
<g id="Layer_1_13_">
</g>
<g id="Layer_1_14_">
</g>
<g id="Layer_1_15_">
</g>
<g id="Layer_1_16_">
</g>
<g id="Layer_1_17_">
</g>
<g id="Layer_1_18_">
</g>
<g id="Layer_1_19_">
</g>
<g id="Layer_1_20_">
</g>
<g id="Layer_2_1_">
</g>
<g id="Layer_1_21_">
</g>
<g id="Layer_1_22_">
</g>
<g id="Layer_2_2_">
	<g>
		<g>
			<g>
				<path d="M126.8,127.9H73.6V74.7h53.2V127.9z M74.7,126.9h51.1V75.7H74.7V126.9z"/>
			</g>
		</g>
		<g>
			<g>
				<path d="M74.7,127.9H47.6V74.7h27.1V127.9z M48.6,126.9h25V75.7h-25V126.9z"/>
			</g>
		</g>
		<g>
			<g>
				<path d="M48.6,127.9H21.4V74.7h27.1V127.9z M22.5,126.9h25V75.7h-25V126.9z"/>
			</g>
		</g>
		<g>
			<g>
				<path d="M126.8,75.7H73.6V48.6h53.2V75.7z M74.7,74.7h51.1v-25H74.7V74.7z"/>
			</g>
		</g>
		<g>
			<g>
				<path d="M126.8,50H73.6V22.9h53.2V50z M74.7,49h51.1V24H74.7V49z"/>
			</g>
		</g>
		<g>
			<g>
				<path d="M86.5,75.7H73.6V48.6h12.9V75.7z M74.7,74.7h10.8v-25H74.7V74.7z"/>
			</g>
		</g>
		<g>
			<g>
				<path d="M74.7,87.7H47.6v-13h27.1V87.7z M48.6,86.6h25V75.7h-25V86.6z"/>
			</g>
		</g>
		<g>
			<g>
				<g>
					<path d="M74.6,24.1c0.1-2.9,0.2-5.8,0.3-8.8c0-0.6-0.8-0.6-0.9,0c-0.1,2.9-0.2,5.8-0.3,8.8C73.7,24.6,74.6,24.6,74.6,24.1
						L74.6,24.1z"/>
				</g>
			</g>
		</g>
		<g>
			<g>
				<g>
					<path d="M126.7,24.1c0-2.1,0-4.2,0-6.3c0-0.6-0.9-0.6-0.9,0c0,2.1,0,4.2,0,6.3C125.8,24.6,126.7,24.6,126.7,24.1L126.7,24.1z"
						/>
				</g>
			</g>
		</g>
		<g>
			<g>
				<g>
					<path d="M22.6,74.6c-2.2-0.2-4.4-0.4-6.7-0.5c-0.6,0-0.6,0.8,0,0.9c2.2,0.2,4.4,0.4,6.7,0.5C23.1,75.5,23.1,74.7,22.6,74.6
						L22.6,74.6z"/>
				</g>
			</g>
		</g>
		<g>
			<g>
				<g>
					<path d="M22.5,126.6c-2.1,0-4.2,0.1-6.3,0.1c-0.6,0-0.6,0.9,0,0.9c2.1,0,4.2-0.1,6.3-0.1C23.1,127.5,23.1,126.6,22.5,126.6
						L22.5,126.6z"/>
				</g>
			</g>
		</g>
		<g>
			<g>
				<g>
					<path d="M117.5,116c-10,0.5-20.1,0.9-30.1,1.4c-1.1,0.1-1.1,1.8,0,1.8c10-0.5,20.1-0.9,30.1-1.4
						C118.6,117.7,118.6,116,117.5,116L117.5,116z"/>
				</g>
			</g>
		</g>
		<g>
			<g>
				<g>
					<path d="M93.2,114.2c-3.5,1.4-7.2,2.4-10.9,3c-0.8,0.1-0.8,1.5,0,1.7c3.9,0.7,7.9,1.5,11.8,2.2c1.1,0.2,1.6-1.5,0.5-1.7
						c-3.9-0.7-7.9-1.5-11.8-2.2c0,0.6,0,1.1,0,1.7c3.7-0.6,7.4-1.6,10.9-3C94.7,115.5,94.2,113.8,93.2,114.2L93.2,114.2z"/>
				</g>
			</g>
		</g>
		<g>
			<path d="M83.6,104.8c-1.8-2.5-2.6-5-2.6-7.3c0.1-2.3,1-4.1,2.9-5.4c1.4-0.9,2.9-1.3,4.7-1.1c1.7,0.3,3.3,1,4.5,2.4l-1.7,1.5
				c-0.9-0.9-1.9-1.5-3.1-1.6c-1.2-0.2-2.2,0-3.2,0.7c-1.3,0.9-1.9,2.2-1.9,4c0,1.7,0.7,3.6,2.2,5.6c1.4,2,2.8,3.3,4.5,3.9
				c1.6,0.7,3,0.5,4.3-0.4c1.2-0.8,1.8-2,1.9-3.4c0.1-1.4-0.4-2.9-1.4-4.4l-4,2.8l-1.4-2l5.8-4l5.7,8.3l-1.3,0.9l-1.5-1.6
				c0.1,1.1-0.2,2.1-0.7,3c-0.5,0.9-1.1,1.7-2,2.2c-1.9,1.3-3.8,1.6-6,0.8C87.3,109,85.3,107.3,83.6,104.8z"/>
			<path d="M96.8,95.7c-1.8-2.5-2.6-5-2.5-7.4s1.2-4.2,3.1-5.6c2-1.4,4-1.7,6.3-0.9c2.2,0.7,4.3,2.4,6,4.9c1.7,2.5,2.5,4.9,2.4,7.3
				c-0.1,2.3-1.1,4.2-3.1,5.5c-2,1.4-4,1.7-6.3,1C100.5,99.8,98.5,98.2,96.8,95.7z M98.5,94.4c1.4,2,2.9,3.2,4.6,3.8
				c1.7,0.6,3.2,0.4,4.6-0.6c1.4-1,2.1-2.3,2.2-4.1c0-1.8-0.7-3.7-2-5.6c-1.4-2-2.9-3.3-4.6-3.9c-1.7-0.6-3.2-0.5-4.7,0.5
				c-1.4,1-2.2,2.4-2.2,4.2C96.5,90.5,97.2,92.4,98.5,94.4z"/>
		</g>
	</g>
</g>
</svg>
