<?xml version="1.0" encoding="utf-8"?>
<!-- Generator: Adobe Illustrator 24.0.1, SVG Export Plug-In . SVG Version: 6.00 Build 0)  -->
<svg version="1.1" id="Layer_1" xmlns="http://www.w3.org/2000/svg" xmlns:xlink="http://www.w3.org/1999/xlink" x="0px" y="0px"
	 viewBox="0 0 141.7 141.7" style="enable-background:new 0 0 141.7 141.7;" xml:space="preserve">
<style type="text/css">
	.st0{fill:#070707;}
</style>
<g id="Layer_1_1_">
</g>
<g id="Layer_1_2_">
</g>
<g id="Layer_1_3_">
</g>
<g id="Layer_1_4_">
</g>
<g id="Layer_1_5_">
</g>
<g id="Layer_3">
</g>
<g id="Layer_3_1_">
</g>
<g id="Layer_1_6_">
</g>
<g id="Layer_1_7_">
</g>
<g id="Layer_1_8_">
</g>
<g id="Layer_1_9_">
</g>
<g id="Layer_1_10_">
</g>
<g id="Layer_1_11_">
</g>
<g id="Layer_1_12_">
</g>
<g id="Layer_1_13_">
</g>
<g id="Layer_1_14_">
</g>
<g id="Layer_1_15_">
</g>
<g id="Layer_1_16_">
</g>
<g id="Layer_1_17_">
</g>
<g id="Layer_1_18_">
</g>
<g id="Layer_1_19_">
</g>
<g id="Layer_1_20_">
</g>
<g id="Layer_2_1_">
</g>
<g id="Layer_1_21_">
</g>
<g id="Layer_1_22_">
</g>
<g id="Layer_1_23_">
</g>
<g id="Layer_2_2_">
	<g>
		<g>
			<g>
				<g>
					<path d="M60.5,77.5l-18.5,27.6L11.8,84.8l20.3-30.2l27.1,18.2c0.1-0.2,0.3-0.4,0.5-0.5L31.9,53.6L10.8,85l31.4,21.1l19.1-28.4
						C61,77.7,60.8,77.6,60.5,77.5C60.5,77.5,60.5,77.5,60.5,77.5z"/>
				</g>
			</g>
			<g>
				<g>
					<g>
						<path d="M41.3,95.4C35.2,91.7,29.1,88,23,84.3c-0.7-0.4-1.4,0.6-0.7,1c6.1,3.7,12.2,7.4,18.3,11.1
							C41.3,96.9,42,95.8,41.3,95.4L41.3,95.4z"/>
					</g>
				</g>
			</g>
			<g>
				<g>
					<g>
						<path d="M27.7,84.7c-2.6-0.6-5.2-1.4-7.6-2.5c-0.6-0.2-1.1,0.6-0.7,1c2,2,4.1,4,6.1,6c0.6,0.6,1.5-0.2,0.9-0.8
							c-2-2-4.1-4-6.1-6c-0.2,0.3-0.5,0.7-0.7,1c2.5,1.1,5,2,7.6,2.5C28.1,86,28.5,84.9,27.7,84.7L27.7,84.7z"/>
					</g>
				</g>
			</g>
			<g>
				<path d="M25.8,75.4c0-2.2,0.4-4,1.4-5.3c0.9-1.4,2.2-2,3.8-2.1c1.2,0,2.2,0.4,3.2,1.2c0.9,0.8,1.5,1.9,1.7,3.2l-1.6,0.2
					c-0.2-0.9-0.5-1.6-1.2-2.2c-0.6-0.6-1.3-0.9-2.1-0.8c-1.1,0-2,0.6-2.7,1.6c-0.7,1.1-1,2.4-1,4.2c0,1.7,0.4,3.1,1.1,4.1
					c0.7,1,1.6,1.5,2.7,1.5c1,0,1.9-0.4,2.5-1.2c0.6-0.8,0.9-1.9,0.9-3.2l-3.4,0.1l0-1.7l5-0.1l0.1,7.2l-1.1,0l-0.2-1.5
					c-0.4,0.6-0.9,1.2-1.6,1.5c-0.6,0.4-1.3,0.5-2.1,0.5c-1.6,0-2.9-0.6-3.9-1.9C26.3,79.3,25.8,77.5,25.8,75.4z"/>
				<path d="M37.2,75.2c0-2.2,0.5-4,1.5-5.4c1-1.4,2.4-2,4.1-2.1s3.1,0.6,4.1,1.9c1.1,1.3,1.6,3.1,1.6,5.3c0,2.2-0.5,3.9-1.5,5.2
					c-1,1.3-2.3,2-4,2c-1.7,0-3.1-0.6-4.1-1.9C37.8,79.1,37.2,77.4,37.2,75.2z M38.7,75.2c0,1.7,0.4,3.1,1.2,4.1
					c0.8,1,1.8,1.5,3,1.5c1.2,0,2.2-0.5,2.9-1.6c0.7-1.1,1.1-2.4,1.1-4.1c0-1.7-0.4-3.1-1.2-4.1c-0.8-1-1.7-1.5-2.9-1.5
					c-1.2,0-2.2,0.6-2.9,1.6C39.1,72,38.7,73.4,38.7,75.2z"/>
			</g>
		</g>
		<g>
			<g>
				<path class="st0" d="M57.1,53.8c-0.2-6.5,3.3-12.6,7.9-16.4c2.9-2.4,6.3-3.8,9.5-5.5c3.3-1.7,6.4-3.3,10.1-3.5
					c11.4-0.7,18.5,10.8,23.1,20.5c1.4,2.9,2.6,5.8,4,8.6c2,4.2,4.5,8.3,7,12.2c2.4,3.7,4.8,7.4,6,11.7c1.1,3.9,1.1,8,0.3,12
					c-0.1,0.4-0.7,0.2-0.6-0.2c0.8-4,0.7-8.1-0.4-12.1c-1.2-4.1-3.6-7.6-5.8-11.1c-2.3-3.5-4.4-7.1-6.3-10.8
					c-1.4-2.6-2.5-5.4-3.8-8.1c-4.9-10.5-11.9-23.2-24.4-22c-3.5,0.3-6.6,2.2-9.7,3.8c-2.9,1.4-5.8,2.8-8.4,4.8
					c-4.6,3.7-8.1,9.7-7.9,16.1C57.7,54.3,57.1,54.3,57.1,53.8L57.1,53.8z"/>
			</g>
		</g>
		<g>
			<g>
				<path class="st0" d="M122.4,99.1c-2.2,4.6-6.6,7.6-10.8,9.8c-2.2,1.2-4.4,2.2-6.6,3.1c-2.6,1.1-5.3,2.6-8.1,2.5
					c-0.4,0-0.4-0.7,0-0.7c2.7,0.1,5.4-1.5,7.9-2.5c2.2-0.9,4.4-1.9,6.5-3.1c4.1-2.2,8.4-5.1,10.5-9.6
					C122.1,98.3,122.6,98.7,122.4,99.1L122.4,99.1z"/>
			</g>
		</g>
		<g>
			<g>
				<path class="st0" d="M98.8,34.7c2.4-2.5,2.7-6.3-0.2-8.5c-1.3-0.9-2.9-1.2-4.4-0.8c-1.6,0.4-3.9,1.7-4.4,3.5
					c-0.1,0.4-0.7,0.2-0.6-0.2c0.5-2,2.5-3.2,4.2-3.8c1.7-0.7,3.6-0.4,5.2,0.6c1.4,0.9,2.4,2.5,2.7,4.2c0.3,2.1-0.7,4.1-2.1,5.5
					C98.9,35.6,98.5,35.1,98.8,34.7L98.8,34.7z"/>
			</g>
		</g>
		<g>
			<g>
				<path class="st0" d="M58.1,48.3c-2.6,0.2-6.1,1.5-6.9,4.5c-1.1,4.1,2.8,8.5,6.5,7c0.4-0.2,0.5,0.5,0.2,0.7
					c-4,1.6-7.5-2.5-7.4-6.7c0.1-4.1,4.5-6,7.6-6.2C58.5,47.6,58.5,48.3,58.1,48.3L58.1,48.3z"/>
			</g>
		</g>
		<g>
			<g>
				<path class="st0" d="M83.5,50.2c-0.1,0-0.1,0.1-0.2,0.1c0-0.1-0.1-0.2-0.1-0.3c1.6-0.3,4.1-0.3,4.9,1.5c0.4,0.8-0.2,2-0.7,2.6
					c-1,1.1-2.4,1.4-3.7,1.8c-1.6,0.5-2.4,1.6-3.5,2.8c-0.7,0.8-1.6,1.1-2.5,0.6c-2.6-1.4-0.3-5.2,0.8-6.8c0.1-0.2,0.4,0.1,0.2,0.2
					c-0.7,1-1.3,2-1.7,3.2c-0.5,1.7,0.6,4.1,2.4,3.1c0.8-0.4,1.4-1.4,1.9-2.1c0.5-0.5,1.1-0.9,1.7-1.1c0.9-0.4,1.8-0.5,2.7-0.9
					c1.1-0.4,2.6-1.9,2-3.4c-0.7-1.6-3.2-1.4-4.5-1.2c-0.2,0-0.3-0.2-0.1-0.3c0.1-0.1,0.2-0.1,0.3-0.1
					C83.6,49.7,83.7,50.1,83.5,50.2L83.5,50.2z"/>
			</g>
		</g>
		<g>
			<g>
				<path class="st0" d="M80.8,58.1c0.2,1.2,0.7,2.4,1.4,3.3c0.5,0.6,1.1,0.9,1.8,0.5c0.6-0.3,1.1-1.4,0.6-2
					c-0.1-0.2,0.1-0.4,0.2-0.2c1,1.2-0.4,2.8-1.6,2.8c-1.5-0.1-2.5-2.9-2.7-4.2C80.4,57.9,80.7,57.9,80.8,58.1L80.8,58.1z"/>
			</g>
		</g>
		<g>
			<g>
				<path class="st0" d="M124.8,93.7c-2.5,0.2-2.1,3.5-2.8,5.4c-0.1-0.1-0.1-0.2-0.2-0.2c2.4-1,7,1.6,8.1-1.8
					c1.1-3.4-4.1-3.4-5.9-3.2c-0.2,0-0.2-0.3,0-0.4c1.9-0.1,6.3-0.3,6.3,2.8c0,4.7-6.2,1.8-8.5,2.8c-0.1,0.1-0.2-0.1-0.2-0.2
					c0.9-2.1,0.4-5.3,3.1-5.5C125,93.3,125,93.6,124.8,93.7L124.8,93.7z"/>
			</g>
		</g>
		<g>
			<g>
				<path class="st0" d="M129.7,97.2c-0.4-1.4-1.7-1.8-2.9-1.8c-0.2,0-0.2-0.3,0-0.4c1.4-0.1,2.8,0.4,3.2,2
					C130.1,97.4,129.7,97.5,129.7,97.2L129.7,97.2z"/>
			</g>
		</g>
		<g>
			<g>
				<path class="st0" d="M97.3,114.5c-1.7-1.4-4.6-1.8-5.9,0.3c-0.9,1.4-0.8,3.5-0.2,5c0.8,2.1,2.6,1.8,3.8,0.2
					c1.1-1.6,0.8-4,1.6-5.8c0.1-0.2,0.4,0,0.3,0.2c-1,2.4-0.5,5.5-2.9,7.1c-1.4,0.9-2.6-0.3-3.1-1.7c-0.6-1.6-0.5-3.9,0.5-5.4
					c1.5-2.1,4.4-1.6,6.2-0.2C97.6,114.4,97.4,114.6,97.3,114.5L97.3,114.5z"/>
			</g>
		</g>
		<g>
			<g>
				<path class="st0" d="M92.8,117.4c-0.3,1.3-0.3,2.7,0.3,3.9c0.1,0.2-0.2,0.4-0.3,0.2c-0.6-1.3-0.6-2.8-0.4-4.2
					C92.6,117.1,92.9,117.2,92.8,117.4L92.8,117.4z"/>
			</g>
		</g>
		<g>
			<g>
				<path class="st0" d="M63.8,74.1c-1.3-1-2.8-1.6-4.4-0.9c-1.1,0.5-1.7,1.7-0.9,2.9c0.4,0.6,1.2,0.9,1.9,1
					c1.1,0.3,2.3-0.2,3.4-0.3c0.8,0,1.7,0.5,2.4,1c0.2,0.1,0,0.4-0.2,0.3c-1-0.8-2.2-1-3.4-0.8c-0.6,0.1-1.3,0.3-1.9,0.2
					c-1.2-0.2-2.4-0.8-2.8-2.2c-0.4-1.2,0.9-2.2,1.7-2.6c1.5-0.7,3.2,0.1,4.4,1C64.1,73.9,64,74.2,63.8,74.1L63.8,74.1z"/>
			</g>
		</g>
		<g>
			<g>
				<path class="st0" d="M60.7,75.3c-0.8-0.4-2-0.7-2.4,0.5C58.2,76,58,75.9,58,75.7c0.4-1.4,1.8-1.2,2.8-0.7
					C61,75.1,60.8,75.4,60.7,75.3L60.7,75.3z"/>
			</g>
		</g>
		<g>
			<path class="st0" d="M68.7,58.2c-0.6,0-1.2-0.1-1.7-0.2c-2.1-0.5-3.8-1.9-4.9-3.9c-2.2-4-1-9.1,2.7-11.5c1.7-1.1,3.7-1.5,5.7-1
				c2.1,0.5,3.8,1.9,4.9,3.9c2.2,4,1,9.1-2.7,11.5C71.4,57.8,70,58.2,68.7,58.2z M68.7,41.6c-1.3,0-2.6,0.4-3.8,1.2
				c-3.5,2.3-4.7,7.3-2.6,11.2l0,0c1.1,1.9,2.7,3.3,4.7,3.8c1.9,0.5,3.8,0.1,5.5-0.9c3.5-2.3,4.7-7.3,2.6-11.2
				c-1.1-1.9-2.7-3.3-4.7-3.8C69.8,41.7,69.2,41.6,68.7,41.6z"/>
		</g>
		<g>
			<path class="st0" d="M85.5,48.3c-0.6,0-1.2-0.1-1.7-0.2c-2.1-0.5-3.8-1.9-4.9-3.9l0,0c-2.2-4-1-9.1,2.7-11.5
				c1.7-1.1,3.7-1.5,5.7-1c2.1,0.5,3.8,1.9,4.9,3.9c2.2,4,1,9.1-2.7,11.5C88.2,47.9,86.8,48.3,85.5,48.3z M79.1,44
				c1.1,1.9,2.7,3.3,4.7,3.8c1.9,0.5,3.8,0.1,5.5-0.9c3.5-2.3,4.7-7.3,2.6-11.2c-1.1-1.9-2.7-3.3-4.7-3.8c-1.9-0.5-3.8-0.1-5.5,0.9
				C78.1,35.1,77,40.2,79.1,44L79.1,44z"/>
		</g>
		<g>
			<path class="st0" d="M54.7,55c-0.5-0.8-0.2-1.9,0.6-2.4c0.8-0.5,1.7-0.2,2.2,0.6c0.5,0.8,0.2,1.9-0.6,2.4
				C56.1,56.1,55.1,55.8,54.7,55z"/>
		</g>
		<g>
			<path class="st0" d="M93.8,31.3c-0.5-0.8-0.2-1.9,0.6-2.4c0.8-0.5,1.8-0.2,2.2,0.6c0.5,0.8,0.2,1.9-0.6,2.4
				C95.3,32.4,94.3,32.1,93.8,31.3z"/>
		</g>
		<g>
			<path class="st0" d="M77.5,52.9c-0.5-1,0.4-2.6,1.9-3.6c1.6-1.1,3.4-1.1,3.9-0.1c0.5,1-0.4,2.6-1.9,3.6
				C79.7,53.9,78,53.9,77.5,52.9z"/>
		</g>
		<g>
			<path class="st0" d="M64.5,48.1c1.2-0.8,2.7-0.4,3.4,0.9s0.3,2.9-0.9,3.7c-1.2,0.8-2.7,0.4-3.4-0.9C63,50.5,63.3,48.8,64.5,48.1z
				 M65.7,52.4c0.3-0.2,0.4-0.7,0.2-1.1c-0.2-0.4-0.6-0.5-1-0.3c-0.3,0.2-0.4,0.7-0.2,1.1C65,52.5,65.4,52.6,65.7,52.4z"/>
		</g>
		<g>
			<path class="st0" d="M81.3,37.9c1.2-0.8,2.7-0.4,3.4,0.9s0.3,2.9-0.9,3.7c-1.2,0.8-2.7,0.4-3.4-0.9
				C79.7,40.3,80.1,38.6,81.3,37.9z M82.5,42.2c0.3-0.2,0.4-0.7,0.2-1.1c-0.2-0.4-0.6-0.5-1-0.3c-0.3,0.2-0.4,0.7-0.2,1.1
				C81.8,42.3,82.2,42.4,82.5,42.2z"/>
		</g>
		<g>
			<g>
				<path class="st0" d="M83,56c0.5,1.1,1,2.1,1.6,3.1c0.5,0.8,1.2,1.4,2.1,1.2c0.5-0.1,0.8-0.4,0.9-0.9c0.4-1.4-0.9-3.3-1.8-4.2
					C85.7,55,85.9,54.8,86,55c1,1.1,2.5,3.5,1.6,5c-0.5,0.9-1.6,0.8-2.4,0.4c-1.3-0.7-2-2.9-2.6-4.2C82.6,56,82.8,55.8,83,56L83,56z
					"/>
			</g>
		</g>
		<g>
			<g>
				<path class="st0" d="M111.6,57.9c1.4-1.2,3.2-1.5,4.8-1.1c1.3,0.2,2.4,1.2,1.6,2.6c-0.1,0.2-0.4,0-0.3-0.2
					c0.9-1.8-1.4-2.1-2.4-2.2c-1.3-0.1-2.6,0.2-3.6,1.2C111.6,58.3,111.4,58.1,111.6,57.9L111.6,57.9z"/>
			</g>
		</g>
		<g>
			<g>
				<path class="st0" d="M116.3,58.9c0.6-0.1,1.4,0.1,1.8,0.7c0.3,0.5-0.2,1.2-0.6,1.5c-0.5,0.4-1.4,0.4-2,0.4c-0.6,0-1.4-0.1-2-0.3
					c-0.2-0.1-0.1-0.4,0.1-0.3c0.8,0.3,1.6,0.3,2.4,0.3c0.4,0,0.9-0.1,1.2-0.3c0.6-0.4,0.5-1.2-0.1-1.5c-0.3-0.1-0.6-0.1-0.9-0.1
					C116.1,59.2,116.1,58.9,116.3,58.9L116.3,58.9z"/>
			</g>
		</g>
		<g>
			<g>
				<path class="st0" d="M57.6,52.8c-0.3,6,1.9,11.5,4.5,16.6c2.7,5.3,5.7,10.4,8.3,15.7c2.7,5.6,5.3,11.3,8.4,16.7
					c1.5,2.7,3.2,5.2,5.3,7.4c2.1,2.2,4.7,3.2,7.2,4.8c0.4,0.2,0,0.8-0.3,0.6c-2.2-1.5-4.7-2.4-6.7-4.3c-2.1-2-3.8-4.4-5.3-6.9
					c-3.4-5.7-6.2-11.9-9.1-17.9C67.1,80,64,74.8,61.3,69.4c-2.6-5.1-4.7-10.7-4.4-16.6C57,52.4,57.6,52.4,57.6,52.8L57.6,52.8z"/>
			</g>
		</g>
	</g>
</g>
</svg>
