<?xml version="1.0" encoding="utf-8"?>
<!-- Generator: Adobe Illustrator 24.0.1, SVG Export Plug-In . SVG Version: 6.00 Build 0)  -->
<svg version="1.1" id="Layer_1" xmlns="http://www.w3.org/2000/svg" xmlns:xlink="http://www.w3.org/1999/xlink" x="0px" y="0px"
	 viewBox="0 0 141.7 141.7" style="enable-background:new 0 0 141.7 141.7;" xml:space="preserve">
<style type="text/css">
	.st0{fill:#070707;}
</style>
<g id="Layer_1_1_">
</g>
<g id="Layer_1_2_">
</g>
<g id="Layer_1_3_">
</g>
<g id="Layer_1_4_">
</g>
<g id="Layer_1_5_">
</g>
<g id="Layer_3">
</g>
<g id="Layer_3_1_">
</g>
<g id="Layer_1_6_">
</g>
<g id="Layer_1_7_">
</g>
<g id="Layer_1_8_">
</g>
<g id="Layer_1_9_">
</g>
<g id="Layer_1_10_">
</g>
<g id="Layer_1_11_">
</g>
<g id="Layer_1_12_">
</g>
<g id="Layer_1_13_">
</g>
<g id="Layer_1_14_">
</g>
<g id="Layer_1_15_">
</g>
<g id="Layer_1_16_">
</g>
<g id="Layer_1_17_">
</g>
<g id="Layer_1_18_">
</g>
<g id="Layer_1_19_">
</g>
<g id="Layer_1_20_">
</g>
<g id="Layer_2_1_">
</g>
<g id="Layer_1_21_">
</g>
<g id="Layer_1_22_">
</g>
<g id="Layer_1_23_">
</g>
<g id="Layer_1_24_">
</g>
<g id="Layer_1_25_">
</g>
<g id="Layer_2_2_">
	<g>
		<g>
			<g>
				<g>
					<path d="M86.8,98.1v9.6H52.2V92.4h28.5c-0.1-0.1-0.2-0.2-0.2-0.3h-29v16h36v-9.5C87.3,98.4,87,98.3,86.8,98.1z"/>
				</g>
			</g>
			<g>
				<g>
					<path d="M52.2,108.1H33.8v-16h18.4V108.1z M34.5,107.8h16.9V92.4H34.5V107.8z"/>
				</g>
			</g>
			<g>
				<g>
					<path d="M34.5,108.1H16.2v-16h18.4V108.1z M16.9,107.8h16.9V92.4H16.9V107.8z"/>
				</g>
			</g>
			<g>
				<g>
					<path d="M80.5,92.1H52.2v-7.5h24.7c0-0.1,0-0.1,0-0.1c0-0.1-0.1-0.1-0.1-0.2H51.5v8.2h29.2C80.6,92.3,80.5,92.2,80.5,92.1z"/>
				</g>
			</g>
			<g>
				<g>
					<path d="M76.9,84.4C76.9,84.4,76.8,84.4,76.9,84.4l-24.7-0.1v-7.5h20.7c-0.1-0.1-0.1-0.2-0.2-0.3l0,0H51.5v8.2h25.5
						C76.9,84.6,76.9,84.5,76.9,84.4z"/>
				</g>
			</g>
			<g>
				<g>
					<path d="M60.2,92.4h-8.8v-8.2h8.8V92.4z M52.2,92.1h7.3v-7.5h-7.3V92.1z"/>
				</g>
			</g>
			<g>
				<g>
					<path d="M52.2,96H33.8v-3.9h18.4V96z M34.5,95.7h16.9v-3.3H34.5V95.7z"/>
				</g>
			</g>
			<g>
				<g>
					<g>
						<path d="M52.1,76.8c0.1-0.9,0.1-1.8,0.2-2.6c0-0.2-0.6-0.2-0.6,0c-0.1,0.9-0.1,1.8-0.2,2.6C51.6,77,52.1,77,52.1,76.8
							L52.1,76.8z"/>
					</g>
				</g>
			</g>
			<g>
				<g>
					<g>
						<path d="M16.9,92.1c-1.5-0.1-3-0.1-4.5-0.2c-0.4,0-0.4,0.3,0,0.3c1.5,0.1,3,0.1,4.5,0.2C17.3,92.3,17.3,92.1,16.9,92.1
							L16.9,92.1z"/>
					</g>
				</g>
			</g>
			<g>
				<g>
					<g>
						<path d="M16.9,107.7c-1.4,0-2.9,0-4.3,0c-0.4,0-0.4,0.3,0,0.3c1.4,0,2.9,0,4.3,0C17.3,108,17.3,107.7,16.9,107.7L16.9,107.7z"
							/>
					</g>
				</g>
			</g>
			<g>
				<g>
					<g>
						<path d="M81.2,104.5c-6.8,0.1-13.6,0.3-20.4,0.4c-0.8,0-0.8,0.5,0,0.5c6.8-0.1,13.6-0.3,20.4-0.4
							C81.9,105,81.9,104.5,81.2,104.5L81.2,104.5z"/>
					</g>
				</g>
			</g>
			<g>
				<g>
					<g>
						<path d="M64.7,104c-2.4,0.4-4.9,0.7-7.4,0.9c-0.6,0.1-0.6,0.5,0,0.5c2.7,0.2,5.3,0.4,8,0.7c0.8,0.1,1.1-0.4,0.3-0.5
							c-2.7-0.2-5.3-0.4-8-0.7c0,0.2,0,0.3,0,0.5c2.5-0.2,5-0.5,7.4-0.9C65.7,104.4,65.4,103.9,64.7,104L64.7,104z"/>
					</g>
				</g>
			</g>
			<g>
				<path d="M58.2,101.2c-1.2-0.8-1.8-1.5-1.8-2.2c0.1-0.7,0.7-1.2,1.9-1.6c0.9-0.3,2-0.4,3.1-0.3c1.2,0.1,2.2,0.3,3.1,0.7l-1.1,0.4
					c-0.6-0.3-1.3-0.4-2.1-0.5s-1.5,0-2.2,0.2c-0.9,0.3-1.3,0.7-1.3,1.2c0,0.5,0.5,1.1,1.5,1.7c0.9,0.6,1.9,1,3,1.2
					c1.1,0.2,2,0.2,2.9-0.1c0.8-0.3,1.2-0.6,1.3-1c0.1-0.4-0.3-0.9-1-1.3l-2.7,0.8l-0.9-0.6l3.9-1.2l3.9,2.5l-0.9,0.3l-1-0.5
					c0.1,0.3-0.1,0.6-0.4,0.9c-0.3,0.3-0.8,0.5-1.3,0.7c-1.2,0.4-2.6,0.5-4.1,0.3C60.7,102.4,59.4,101.9,58.2,101.2z"/>
				<path d="M67.1,98.4c-1.2-0.8-1.8-1.5-1.7-2.2c0.1-0.7,0.8-1.3,2.1-1.7s2.7-0.5,4.3-0.3c1.5,0.2,2.9,0.7,4.1,1.5
					c1.2,0.8,1.7,1.5,1.6,2.2c-0.1,0.7-0.8,1.2-2.1,1.7c-1.3,0.4-2.7,0.5-4.3,0.3C69.7,99.7,68.3,99.2,67.1,98.4z M68.4,98
					c0.9,0.6,1.9,1,3.1,1.2s2.2,0.1,3.1-0.2c1-0.3,1.4-0.7,1.5-1.2c0-0.5-0.4-1.1-1.3-1.7c-0.9-0.6-2-1-3.1-1.2
					c-1.1-0.2-2.2-0.1-3.1,0.2c-1,0.3-1.5,0.7-1.5,1.3C67,96.8,67.4,97.4,68.4,98z"/>
			</g>
		</g>
		<g>
			<g>
				<path class="st0" d="M62.4,53.3c-0.2-5,2.6-9.7,6.3-12.6c2.3-1.8,5-3,7.5-4.2c2.6-1.3,5-2.5,8-2.7c9.1-0.6,14.6,8.3,18.3,15.8
					c1.1,2.2,2.1,4.4,3.2,6.6c1.6,3.3,3.5,6.4,5.6,9.4c1.9,2.9,3.8,5.7,4.7,9c0.9,3,0.9,6.2,0.2,9.2c-0.1,0.3-0.5,0.2-0.5-0.1
					c0.6-3.1,0.6-6.2-0.3-9.3c-0.9-3.2-2.8-5.9-4.6-8.6c-1.8-2.7-3.5-5.4-5-8.3c-1.1-2-2-4.2-3-6.3c-3.9-8.1-9.4-17.8-19.3-16.9
					c-2.8,0.3-5.2,1.7-7.7,2.9c-2.3,1.1-4.6,2.1-6.6,3.7c-3.7,2.8-6.4,7.4-6.3,12.4C62.9,53.7,62.4,53.7,62.4,53.3L62.4,53.3z"/>
			</g>
		</g>
		<g>
			<g>
				<path class="st0" d="M114.2,88.1c-1.8,3.6-5.2,5.8-8.5,7.6c-1.7,0.9-3.5,1.7-5.3,2.4c-2,0.8-4.2,2-6.4,1.9c-0.3,0-0.3-0.5,0-0.5
					c2.2,0,4.3-1.1,6.3-1.9c1.7-0.7,3.5-1.5,5.1-2.4c3.2-1.7,6.6-3.9,8.4-7.4C113.9,87.6,114.3,87.8,114.2,88.1L114.2,88.1z"/>
			</g>
		</g>
		<g>
			<g>
				<path class="st0" d="M95.4,38.6c1.9-1.9,2.1-4.8-0.2-6.5c-1-0.7-2.3-0.9-3.5-0.6c-1.3,0.3-3.1,1.3-3.5,2.7
					c-0.1,0.3-0.6,0.2-0.5-0.1c0.4-1.6,2-2.5,3.3-3c1.4-0.5,2.9-0.3,4.2,0.4c1.1,0.7,1.9,1.9,2.1,3.2c0.3,1.6-0.6,3.1-1.7,4.3
					C95.6,39.2,95.2,38.8,95.4,38.6L95.4,38.6z"/>
			</g>
		</g>
		<g>
			<g>
				<path class="st0" d="M63.2,49.1c-2.1,0.2-4.8,1.2-5.4,3.5c-0.9,3.1,2.2,6.6,5.2,5.4c0.3-0.1,0.4,0.4,0.1,0.5
					c-3.2,1.2-5.9-1.9-5.9-5.2c0.1-3.1,3.6-4.6,6-4.8C63.5,48.5,63.5,49.1,63.2,49.1L63.2,49.1z"/>
			</g>
		</g>
		<g>
			<g>
				<path class="st0" d="M83.3,50.5c-0.1,0-0.1,0.1-0.2,0.1c0-0.1-0.1-0.2-0.1-0.2c1.2-0.2,3.2-0.3,3.9,1.2c0.3,0.6-0.1,1.5-0.5,2
					c-0.8,0.9-1.9,1.1-2.9,1.4c-1.3,0.4-1.9,1.2-2.8,2.2c-0.6,0.6-1.2,0.8-2,0.4c-2.1-1-0.2-4,0.6-5.2c0.1-0.1,0.3,0.1,0.2,0.2
					c-0.6,0.8-1.1,1.5-1.3,2.4c-0.4,1.3,0.4,3.2,1.9,2.4c0.6-0.3,1.1-1.1,1.6-1.6c0.4-0.4,0.9-0.7,1.4-0.9c0.7-0.3,1.4-0.4,2.1-0.7
					c0.9-0.3,2.1-1.5,1.6-2.6c-0.6-1.2-2.6-1.1-3.6-0.9c-0.1,0-0.2-0.2-0.1-0.2c0.1-0.1,0.2-0.1,0.2-0.1
					C83.4,50.2,83.5,50.4,83.3,50.5L83.3,50.5z"/>
			</g>
		</g>
		<g>
			<g>
				<path class="st0" d="M81.2,56.6c0.1,0.9,0.6,1.8,1.1,2.5c0.4,0.5,0.9,0.7,1.5,0.4c0.5-0.3,0.9-1.1,0.5-1.6
					c-0.1-0.1,0.1-0.3,0.2-0.2c0.8,1-0.3,2.2-1.3,2.1c-1.2-0.1-2-2.2-2.2-3.2C80.9,56.5,81.2,56.4,81.2,56.6L81.2,56.6z"/>
			</g>
		</g>
		<g>
			<g>
				<path class="st0" d="M116,84c-2,0.2-1.6,2.7-2.2,4.1c-0.1-0.1-0.1-0.1-0.1-0.2c1.9-0.8,5.5,1.3,6.4-1.3c0.9-2.6-3.2-2.6-4.6-2.5
					c-0.2,0-0.2-0.3,0-0.3c1.5-0.1,5-0.2,5,2.2c0,3.6-4.9,1.4-6.7,2.2c-0.1,0.1-0.2-0.1-0.1-0.2c0.7-1.6,0.3-4.1,2.4-4.3
					C116.2,83.7,116.2,84,116,84L116,84z"/>
			</g>
		</g>
		<g>
			<g>
				<path class="st0" d="M119.9,86.7c-0.3-1.1-1.3-1.4-2.3-1.3c-0.2,0-0.2-0.3,0-0.3c1.1-0.1,2.3,0.3,2.5,1.6
					C120.2,86.8,120,86.9,119.9,86.7L119.9,86.7z"/>
			</g>
		</g>
		<g>
			<g>
				<path class="st0" d="M94.2,100c-1.4-1.1-3.6-1.4-4.7,0.2c-0.7,1.1-0.6,2.7-0.2,3.8c0.6,1.6,2.1,1.4,3,0.2
					c0.9-1.2,0.7-3.1,1.3-4.5c0.1-0.2,0.3,0,0.2,0.1c-0.8,1.9-0.4,4.3-2.3,5.4c-1.1,0.7-2.1-0.2-2.5-1.3c-0.5-1.2-0.4-3,0.4-4.1
					c1.2-1.6,3.5-1.3,4.9-0.2C94.5,99.9,94.4,100.1,94.2,100L94.2,100z"/>
			</g>
		</g>
		<g>
			<g>
				<path class="st0" d="M90.8,102.2c-0.2,1-0.2,2.1,0.3,3c0.1,0.2-0.1,0.3-0.2,0.1c-0.5-1-0.5-2.2-0.3-3.2
					C90.5,102,90.8,102.1,90.8,102.2L90.8,102.2z"/>
			</g>
		</g>
		<g>
			<g>
				<path class="st0" d="M67.7,68.9c-1-0.8-2.2-1.2-3.5-0.6c-0.9,0.4-1.4,1.3-0.7,2.2c0.3,0.5,0.9,0.7,1.5,0.8
					c0.9,0.2,1.8-0.2,2.7-0.2c0.6,0,1.4,0.4,1.9,0.8c0.1,0.1,0,0.3-0.1,0.2c-0.8-0.6-1.8-0.8-2.7-0.6c-0.5,0.1-1,0.2-1.5,0.2
					c-1-0.2-1.9-0.6-2.2-1.7c-0.3-0.9,0.7-1.7,1.4-2c1.2-0.5,2.5,0.1,3.5,0.8C68,68.8,67.9,69,67.7,68.9L67.7,68.9z"/>
			</g>
		</g>
		<g>
			<g>
				<path class="st0" d="M65.3,69.8c-0.6-0.3-1.6-0.5-1.8,0.4c-0.1,0.2-0.3,0.1-0.2-0.1c0.3-1.1,1.5-1,2.2-0.5
					C65.5,69.7,65.4,69.9,65.3,69.8L65.3,69.8z"/>
			</g>
		</g>
		<g>
			<path class="st0" d="M71.6,56.7c-0.5,0-1-0.1-1.4-0.2c-1.6-0.4-3-1.5-3.9-3l0,0c-1.7-3.1-0.8-7.1,2.1-8.9c1.4-0.9,3-1.1,4.6-0.8
				c1.6,0.4,3,1.5,3.9,3c1.7,3.1,0.8,7.1-2.1,8.9C73.8,56.4,72.7,56.7,71.6,56.7z M66.6,53.4c0.8,1.5,2.1,2.5,3.7,2.9
				c1.5,0.4,3,0.1,4.3-0.7c2.8-1.8,3.7-5.6,2-8.5c-0.8-1.5-2.1-2.5-3.7-2.9c-1.5-0.4-3-0.1-4.3,0.7C65.8,46.6,64.9,50.4,66.6,53.4
				L66.6,53.4z"/>
		</g>
		<g>
			<path class="st0" d="M84.9,49.1c-0.5,0-1-0.1-1.4-0.2c-1.6-0.4-3-1.5-3.9-3l0,0c-1.7-3.1-0.8-7.1,2.1-8.9c1.4-0.9,3-1.1,4.6-0.8
				c1.6,0.4,3,1.5,3.9,3c1.7,3.1,0.8,7.1-2.1,8.9C87.1,48.8,86,49.1,84.9,49.1z M79.9,45.7c0.8,1.5,2.1,2.5,3.7,2.9
				c1.5,0.4,3,0.1,4.3-0.7c2.8-1.8,3.7-5.6,2-8.5c-0.8-1.5-2.1-2.5-3.7-2.9c-1.5-0.4-3-0.1-4.3,0.7C79.1,38.9,78.2,42.8,79.9,45.7
				L79.9,45.7z"/>
		</g>
		<g>
			<path class="st0" d="M60.5,54.2c-0.4-0.6-0.2-1.5,0.4-1.8c0.6-0.4,1.4-0.2,1.7,0.5c0.4,0.6,0.2,1.5-0.4,1.8
				C61.7,55,60.9,54.8,60.5,54.2z"/>
		</g>
		<g>
			<path class="st0" d="M91.5,36c-0.4-0.6-0.2-1.5,0.4-1.8c0.6-0.4,1.4-0.2,1.7,0.5c0.4,0.6,0.2,1.5-0.4,1.8
				C92.6,36.8,91.9,36.6,91.5,36z"/>
		</g>
		<g>
			<path class="st0" d="M78.6,52.6c-0.4-0.8,0.3-2,1.5-2.8c1.3-0.8,2.6-0.9,3.1-0.1c0.4,0.8-0.3,2-1.5,2.8
				C80.3,53.3,79,53.4,78.6,52.6z"/>
		</g>
		<g>
			<path class="st0" d="M69.3,50.7c0.9-0.6,2.1-0.3,2.7,0.7c0.5,1,0.3,2.3-0.7,2.9c-0.9,0.6-2.1,0.3-2.7-0.7
				C68.1,52.6,68.4,51.3,69.3,50.7z M70.3,54c0.3-0.2,0.3-0.5,0.2-0.8c-0.2-0.3-0.5-0.4-0.8-0.2c-0.3,0.2-0.3,0.5-0.2,0.8
				C69.7,54.1,70,54.2,70.3,54z"/>
		</g>
		<g>
			<path class="st0" d="M82.6,42.8c0.9-0.6,2.1-0.3,2.7,0.7c0.5,1,0.3,2.3-0.7,2.9c-0.9,0.6-2.1,0.3-2.7-0.7
				C81.4,44.7,81.7,43.4,82.6,42.8z M83.6,46.2c0.3-0.2,0.3-0.5,0.2-0.8c-0.2-0.3-0.5-0.4-0.8-0.2c-0.3,0.2-0.3,0.5-0.2,0.8
				C83,46.3,83.3,46.4,83.6,46.2z"/>
		</g>
		<g>
			<g>
				<path class="st0" d="M82.9,55c0.4,0.8,0.8,1.7,1.2,2.4c0.4,0.6,0.9,1.1,1.6,0.9c0.4-0.1,0.6-0.3,0.8-0.7
					c0.3-1.1-0.7-2.5-1.4-3.2c-0.1-0.1,0.1-0.3,0.2-0.2c0.8,0.8,2,2.6,1.3,3.9c-0.4,0.7-1.3,0.6-1.9,0.3c-1-0.5-1.6-2.2-2.1-3.2
					C82.6,55,82.8,54.8,82.9,55L82.9,55z"/>
			</g>
		</g>
		<g>
			<g>
				<path class="st0" d="M105.6,56.5c1.1-1,2.5-1.1,3.8-0.9c1,0.2,1.9,0.9,1.3,2c-0.1,0.2-0.3,0-0.2-0.1c0.7-1.4-1.1-1.6-1.9-1.7
					c-1-0.1-2.1,0.2-2.9,0.9C105.6,56.7,105.4,56.6,105.6,56.5L105.6,56.5z"/>
			</g>
		</g>
		<g>
			<g>
				<path class="st0" d="M109.3,57.2c0.5-0.1,1.1,0,1.4,0.5c0.2,0.4-0.2,0.9-0.4,1.2c-0.4,0.3-1.1,0.3-1.6,0.3
					c-0.5,0-1.1-0.1-1.6-0.2c-0.2-0.1-0.1-0.3,0.1-0.3c0.6,0.2,1.3,0.3,1.9,0.2c0.3,0,0.7-0.1,1-0.2c0.5-0.3,0.4-1-0.1-1.2
					c-0.2-0.1-0.5-0.1-0.8-0.1C109.1,57.5,109.1,57.2,109.3,57.2L109.3,57.2z"/>
			</g>
		</g>
		<g>
			<g>
				<path class="st0" d="M62.8,52.5c-0.3,4.6,1.5,8.9,3.6,12.8c2.1,4.1,4.5,8,6.6,12.1c2.2,4.3,4.2,8.7,6.6,12.8
					c1.2,2.1,2.6,4,4.2,5.7c1.7,1.7,3.7,2.5,5.7,3.7c0.3,0.2,0,0.6-0.3,0.5c-1.8-1.1-3.7-1.8-5.3-3.3c-1.6-1.6-3-3.4-4.2-5.3
					c-2.7-4.4-4.9-9.2-7.2-13.8c-2.1-4.2-4.6-8.2-6.7-12.4c-2-3.9-3.7-8.2-3.5-12.8C62.3,52.2,62.8,52.2,62.8,52.5L62.8,52.5z"/>
			</g>
		</g>
		<g>
			<g>
				<path d="M94.3,107c11.5-1,23-1.8,34.6-2.2c0.5,0,0.5-0.8,0-0.8c-11.5,0.5-23.1,1.2-34.6,2.2C93.8,106.3,93.8,107,94.3,107
					L94.3,107z"/>
			</g>
		</g>
		<g>
			<g>
				<path d="M97.2,104.1c3.8-0.3,7.7-0.6,11.5-0.9c0.5,0,0.5-0.8,0-0.8c-3.8,0.3-7.7,0.6-11.5,0.9C96.7,103.4,96.7,104.2,97.2,104.1
					L97.2,104.1z"/>
			</g>
		</g>
	</g>
</g>
</svg>
