<?xml version="1.0" encoding="utf-8"?>
<!-- Generator: Adobe Illustrator 24.0.1, SVG Export Plug-In . SVG Version: 6.00 Build 0)  -->
<svg version="1.1" id="Layer_1" xmlns="http://www.w3.org/2000/svg" xmlns:xlink="http://www.w3.org/1999/xlink" x="0px" y="0px"
	 viewBox="0 0 141.7 141.7" style="enable-background:new 0 0 141.7 141.7;" xml:space="preserve">
<style type="text/css">
	.st0{fill:#070707;}
</style>
<g id="Layer_1_1_">
</g>
<g id="Layer_1_2_">
</g>
<g id="Layer_1_3_">
</g>
<g id="Layer_1_4_">
</g>
<g id="Layer_1_5_">
</g>
<g id="Layer_3">
</g>
<g id="Layer_3_1_">
</g>
<g id="Layer_1_6_">
</g>
<g id="Layer_1_7_">
</g>
<g id="Layer_1_8_">
</g>
<g id="Layer_1_9_">
</g>
<g id="Layer_1_10_">
</g>
<g id="Layer_1_11_">
</g>
<g id="Layer_1_12_">
</g>
<g id="Layer_1_13_">
</g>
<g id="Layer_1_14_">
</g>
<g id="Layer_1_15_">
</g>
<g id="Layer_1_16_">
</g>
<g id="Layer_1_17_">
</g>
<g id="Layer_1_18_">
</g>
<g id="Layer_1_19_">
</g>
<g id="Layer_1_20_">
</g>
<g id="Layer_2_1_">
</g>
<g id="Layer_1_21_">
</g>
<g id="Layer_1_22_">
</g>
<g id="Layer_1_23_">
</g>
<g id="Layer_1_24_">
</g>
<g id="Layer_1_25_">
</g>
<g id="Layer_1_26_">
</g>
<g id="Layer_2_2_">
	<g>
		<g>
			<g>
				<g>
					<g>
						<path d="M50.8,74.3c-2-1.2-4-1.5-6-0.7c-1.2,0.4-2.2,1.2-3.2,2.1c-1.9,1.9-2.8,4.1-2.6,6.7c0.2,2.6,1.7,5.4,4.5,8.3
							c2.8,2.9,5.5,4.3,8,4.2c2.5-0.1,4.6-1,6.3-2.6c1.6-1.6,2.5-3.4,2.7-5.4c0.1-2-0.4-3.9-1.7-5.6l-5.4,5.4l-3.9-3.9l9.8-9.7
							l12.4,12.6l-3.3,3.2l-3.4-2.4c0.2,2.1,0.1,3.7-0.3,4.9c-0.5,2.1-1.7,4.1-3.6,5.9c-3.1,3.1-6.7,4.5-10.9,4.3
							c-4.2-0.1-8.2-2.1-11.9-5.9c-3.8-3.8-5.7-7.9-5.9-12.3c-0.2-4.4,1.5-8.3,4.9-11.6c3-2.9,6.1-4.6,9.5-4.8s6.2,0.6,8.7,2.6
							L50.8,74.3z"/>
					</g>
					<g>
						<g>
							<path d="M50.9,74.3c-3.5-2.1-7.5-0.9-10,2.2c-2.2,2.7-2.5,6.3-1,9.3c1.6,3.5,5,7.2,8.6,8.7c3.1,1.3,6.8,0.4,9.3-1.9
								c3.3-3.1,3.6-7.6,1.1-11.3c0,0-0.1-0.1-0.1,0c-1.4,1.4-2.7,2.7-4.1,4.1c-0.2,0.2-1.3,1.3-1.3,1.3c-0.5-0.1-1.6-1.6-1.9-2
								c-0.3-0.3-1.8-1.4-1.9-1.9c0-0.1,0,0.2,0.1-0.1c0.1-0.2,0.5-0.5,0.7-0.7c1.6-1.6,3.3-3.2,4.9-4.9c0.7-0.7,1.5-1.5,2.2-2.2
								c0.4-0.4,1.1-1.4,1.6-1.6c0.3-0.1,0-0.2,0.3,0.2c0.6,0.5,1.1,1.1,1.6,1.6c3.2,3.2,6.3,6.5,9.5,9.7c0.2,0.2,1,0.8,1,1
								c0,0.1-1.7,1.6-2.1,2c-0.2,0.2-0.8,1-1.1,1.1c-0.1,0-0.5-0.3-0.7-0.5c-0.9-0.6-1.8-1.3-2.7-1.9c-0.1,0-0.1,0-0.1,0.1
								c0.2,3.6-0.3,6.7-2.7,9.5c-2.1,2.5-4.9,4.5-8.1,5.2c-6.9,1.5-13.3-2.3-17.5-7.6c-4.1-5.1-5.5-12.1-2.1-18
								c3.4-5.7,10.3-10.1,17-8.1c0.6,0.2,4,1.5,3.9,2.1c0,0.3-1.2,1.2-1.5,1.5c-1.1,1.1-2.2,2.2-3.3,3.2
								C50.6,74.3,50.7,74.4,50.9,74.3c1.6-1.5,3.2-3.1,4.8-4.7c0,0,0-0.1,0-0.1c-4.9-3.8-11.4-3.3-16.2,0.4c-5,3.8-8,9.7-6.7,16.1
								c1.3,6.1,6.4,11.9,12,14.4c5.6,2.4,11.9,1.3,16.2-2.9c2.4-2.3,4-5.2,4.1-8.5c0-0.4,0-2.4-0.1-2.4c0.3,0,0.9,0.6,1.1,0.8
								c0.7,0.5,1.5,1,2.2,1.6c0,0,0.1,0,0.1,0c1.1-1.1,2.2-2.2,3.3-3.2c0,0,0-0.1,0-0.1c-4.1-4.2-8.3-8.4-12.4-12.6
								c0,0-0.1,0-0.1,0c-3.3,3.2-6.5,6.5-9.8,9.7c0,0,0,0.1,0,0.1c1.3,1.3,2.6,2.6,3.9,3.9c0,0,0.1,0,0.1,0
								c1.4-1.4,2.8-2.8,4.2-4.1c0.3-0.3,0.6-0.7,0.9-0.9c0.5-0.3,0.4-0.2,0.8,0.6c1.2,2.3,1.6,4.9,0.5,7.3c-2.1,4.5-7.6,6.7-12,4.4
								c-3.8-2-7.8-6.3-8.5-10.6c-1-6.3,5.7-12.4,11.6-8.9C50.9,74.4,51,74.3,50.9,74.3z"/>
						</g>
					</g>
				</g>
				<g>
					<g>
						<path d="M92.5,61.1c0,3.6-1.6,7-5,10.3c-3.4,3.3-6.8,4.9-10.4,4.8c-4.6,0.1-9-2-13.1-6.2c-4.2-4.3-6.2-8.7-6-13.2
							c0-3.6,1.6-7,5-10.3s6.8-4.9,10.4-4.8c4.5-0.2,8.9,1.9,13.1,6.2C90.6,52.1,92.6,56.5,92.5,61.1z M85.9,60.6
							c-0.3-2.6-1.7-5.2-4.3-7.8c-2.6-2.6-5.2-4.1-7.8-4.4S69,48.8,67,50.7c-2,1.9-2.8,4.2-2.5,6.7c0.3,2.6,1.7,5.2,4.3,7.8
							c2.6,2.7,5.2,4.1,7.8,4.4c2.6,0.3,4.8-0.5,6.8-2.4C85.3,65.4,86.1,63.1,85.9,60.6z"/>
					</g>
					<g>
						<g>
							<path d="M92.4,61.1C92.3,67.8,86,74.7,79.5,76c-7.3,1.4-14-3.4-18.1-9c-4-5.4-4.7-12.4-0.6-18c4.3-5.8,11.3-9.1,18.3-6.3
								C86.2,45.6,92.6,53.3,92.4,61.1c0,0.1,0.2,0.1,0.2,0c0.2-7.4-5.4-14.2-11.6-17.6c-2.8-1.6-6.1-2.2-9.4-1.8
								c-3.6,0.5-6.6,2.7-9.1,5.2c-2.3,2.4-4.2,5.3-4.6,8.6c-0.4,3.4,0.3,6.7,2,9.6c3.5,6.2,10.2,11.5,17.6,11.2
								c7.5-0.2,15-7.8,15.1-15.3C92.6,61,92.4,61,92.4,61.1z"/>
						</g>
						<g>
							<path d="M86,60.6c-1.1-8.1-12.7-17.1-19.5-9.4c-2.9,3.3-2.5,7.8-0.1,11.3c2.5,3.7,6.7,7.5,11.4,7.4
								C82.6,69.7,86.3,65.3,86,60.6c0-0.1-0.2-0.1-0.2,0c0.4,5.7-4.9,10.3-10.5,8.8c-2.7-0.7-5-2.6-6.9-4.6c-1.9-2-3.6-4.5-3.9-7.3
								c-0.6-5.7,5-10.3,10.5-8.8c5,1.4,10.1,6.7,10.7,11.9C85.8,60.6,86,60.6,86,60.6z"/>
						</g>
					</g>
				</g>
			</g>
			<g>
				<g>
					<g>
						<path d="M41.2,34.5c0.3,0.6,0.2,1.2-0.3,1.7h25.9c0-0.1,0-0.2,0.1-0.3c0-0.1,0.1-0.3,0.1-0.4c-0.8,0.1-1.6,0.1-2.6-0.1
							c-0.7-0.2-1-0.6-1.1-1.1H41.1C41.1,34.3,41.2,34.4,41.2,34.5z"/>
					</g>
					<g>
						<path d="M99.9,35.8c0-0.3,0.1-0.6,0.3-0.9c0-0.1,0.1-0.2,0.2-0.3c0.1-0.1,0.1-0.2,0.2-0.3c0,0,0,0,0-0.1s0,0,0-0.1H76.1v0
							c0,0,0,0.1-0.1,0.1v0c-0.1,0.2-0.2,0.4-0.3,0.5c-0.1,0.1-0.1,0.1-0.2,0.2c-0.1,0.1-0.2,0.3-0.4,0.3c-0.3,0.2-0.9,0.3-1.2,0.2
							c-0.1,0-0.3-0.1-0.4-0.2c-0.3,0-0.5-0.1-0.8-0.1c0,0,0,0.1,0,0.1c0,0.1,0,0.1,0,0.2c0,0.1,0.1,0.1,0.1,0.2c0,0,0,0.1,0,0.1
							c0.1,0.1,0.1,0.2,0.2,0.3h26.7C99.8,36.1,99.8,36,99.9,35.8z"/>
					</g>
					<g>
						<path d="M103.7,34.3c0.2,0.2,0.3,0.4,0.4,0.7c0,0.2,0.1,0.4,0.1,0.6c0,0,0,0.1,0,0.1c0,0.2,0.1,0.3,0.1,0.5h14.8v94.1H25V36.2
							h12.9c-0.1-0.2-0.2-0.5-0.2-0.7c0,0,0-0.1,0-0.1v0c0,0,0-0.1,0-0.1s0-0.1,0-0.1c0-0.3,0.1-0.5,0.2-0.7c0-0.1,0-0.1,0.1-0.2
							H23.1v98h98v-98H103.7z"/>
					</g>
					<g>
						<g>
							<path d="M121,34.2h-17.4c0.1,0,0.1,0.1,0.2,0.2h15.8c0.3,0,1-0.1,1.3,0c0,0,0,0,0,0c0,0,0,0.1,0,0.1c0.1,0.4,0,1,0,1.5v96.2
								H24.5c-0.3,0-1,0.1-1.3,0c0,0,0,0-0.1,0c0,0,0-0.1,0-0.1c-0.1-0.3,0-1,0-1.4V34.9c0-0.8-0.2-0.6,0.7-0.6h14.1
								c0-0.1,0-0.1,0.1-0.2H23c0,0-0.1,0-0.1,0.1v98c0,0,0,0.1,0.1,0.1h98h0c0,0,0,0,0,0c0,0,0,0,0,0v0L121,34.2
								C121.1,34.2,121,34.2,121,34.2z"/>
						</g>
						<g>
							<path d="M100.6,34.3c0,0,0-0.1,0.1-0.1l0,0H76.1c0,0.1,0,0.1,0,0.2L100.6,34.3L100.6,34.3z"/>
						</g>
						<g>
							<path d="M41.1,34.3h22.2c0-0.1,0-0.1,0-0.2H41.1C41.1,34.2,41.1,34.3,41.1,34.3z"/>
						</g>
						<g>
							<path d="M66.8,36.3c0-0.1,0-0.1,0-0.2H41c0,0-0.1,0.1-0.1,0.1c0,0,0,0,0,0.1H66.8z"/>
						</g>
						<g>
							<path d="M99.8,36.2C99.8,36.2,99.8,36.2,99.8,36.2L73,36.1c0,0.1,0.1,0.1,0.1,0.2L99.8,36.2C99.8,36.3,99.8,36.2,99.8,36.2z"
								/>
						</g>
						<g>
							<path d="M119.1,36.1h-14.8c0,0.1,0,0.1,0,0.2h0.8c4.5,0,9,0.1,13.4,0c0.8,0,0.5-0.1,0.5,0.6v92c0,0.3,0.1,0.9,0,1.2
								c0,0,0,0,0,0c0,0-0.1,0-0.2,0c-1,0.3-2.7,0-3.8,0H25V37.6c0-0.3-0.1-1,0-1.3c0,0,0,0,0-0.1c0,0,0.1,0,0.1,0
								c0.3-0.1,0.9,0,1.3,0h11.4c0-0.1-0.1-0.1-0.1-0.2H25c0,0-0.1,0-0.1,0.1v94.1v0v0c0,0,0,0,0,0h0h94.1c0,0,0.1,0,0.1-0.1
								L119.1,36.1C119.1,36.2,119.1,36.1,119.1,36.1z"/>
						</g>
					</g>
				</g>
			</g>
			<g>
				<g>
					<path d="M102.4,67.2c-15.3,15.7-29.6,32.4-42.9,49.8c-0.6,0.8,0.8,1.6,1.4,0.8c13.2-17.3,27.5-33.8,42.7-49.5
						C104.2,67.6,103.1,66.4,102.4,67.2L102.4,67.2z"/>
				</g>
			</g>
			<g>
				<g>
					<path d="M104.1,77.2c-4.4,5.2-8.8,10.4-13.2,15.7c-0.7,0.8,0.5,1.9,1.1,1.1c4.4-5.2,8.8-10.4,13.2-15.7
						C105.9,77.5,104.7,76.4,104.1,77.2L104.1,77.2z"/>
				</g>
			</g>
		</g>
		<g>
			<g>
				<g>
					<path class="st0" d="M91.4,19.8c-2.4-4.3-6.8-7.2-11.6-8.4c-5.8-1.5-12.1-0.3-17.9,0.3c-4.9,0.6-9.3,3-12.3,6.9
						C46.1,23,45,28.6,44.7,34c0,0.5,0.8,0.5,0.8,0c0.3-5.1,1.3-10.4,4.5-14.6c3.2-4.3,7.8-6.5,13.1-7c5.3-0.5,10.7-1.6,15.9-0.4
						c4.8,1,9.3,3.8,11.7,8.2C91,20.6,91.6,20.2,91.4,19.8L91.4,19.8z"/>
				</g>
			</g>
		</g>
		<g>
			<g>
				<g>
					<path class="st0" d="M61.7,12.6c0.5,0,0.5-0.8,0-0.8S61.1,12.6,61.7,12.6L61.7,12.6z"/>
				</g>
			</g>
		</g>
		<g>
			<g>
				<g>
					<path class="st0" d="M46,26.1c-3.8-0.3-6-4.4-3.5-7.5c1.7-2.2,6.3-3.7,8.5-1.3c0.3,0.4,0.9-0.2,0.6-0.6c-2.7-3-8.2-1.1-10,1.9
						c-2.3,3.7,0.4,7.9,4.5,8.3C46.5,26.9,46.5,26.1,46,26.1L46,26.1z"/>
				</g>
			</g>
		</g>
		<g>
			<g>
				<g>
					<path class="st0" d="M87.9,16c2.6-1.3,6.8-2.1,8.6,0.8c1.9,2.9,0.8,7.4-2.9,8.1c-0.5,0.1-0.3,0.9,0.2,0.8
						c4.1-0.8,5.4-5.5,3.6-8.9c-2-3.6-6.8-3-9.9-1.4C87,15.6,87.4,16.3,87.9,16L87.9,16z"/>
				</g>
			</g>
		</g>
		<g>
			<g>
				<g>
					<path class="st0" d="M66.6,30.7c0.1-0.3,0.1-0.4-0.2-0.3c-0.1,0-0.1,0-0.2,0.1c-0.2,0-0.3,0.1-0.5,0.2
						c-0.5,0.3-1.1,0.8-1.5,1.2c-0.6,0.6-1.3,1.6-1,2.5c0.3,0.9,1.5,1.5,2.4,1.6c1.7,0.3,3.3-0.8,5-0.8c1.8,0,5.5,2.1,5.7-1.3
						c0.2-2.2-2.6-3.4-4.3-4c-0.3-0.1-0.3,0.3-0.1,0.4c1.5,0.6,4.4,1.7,4,3.8c-0.5,2.5-3.7,0.6-5.3,0.6c-2,0-4.2,1.6-6.2,0.4
						c-2.4-1.5,0.9-4,2.4-4.5c0.2-0.1,0.2-0.2,0.1-0.3c-0.1-0.1-0.3-0.1-0.4,0C66.2,30.3,66.3,30.7,66.6,30.7L66.6,30.7z"/>
				</g>
			</g>
		</g>
		<g>
			<g>
				<g>
					<path class="st0" d="M72.7,35.5c0.4,1,0.6,2.3,0.3,3.4c-0.2,0.8-1,1.4-1.8,1.2c-0.6-0.2-0.8-0.7-1-1.3c-0.1-0.2-0.4,0-0.3,0.2
						c0.3,0.6,0.5,1.2,1.1,1.5c0.6,0.2,1.3,0.1,1.7-0.3c1.4-1,1-3.4,0.5-4.8C73,35.2,72.6,35.3,72.7,35.5L72.7,35.5z"/>
				</g>
			</g>
		</g>
		<g>
			<path class="st0" d="M79.3,30.5c-4.4,0-7.9-3.6-7.9-7.9c0-4.4,3.6-7.9,7.9-7.9c4.4,0,7.9,3.6,7.9,7.9
				C87.2,27,83.6,30.5,79.3,30.5z M79.3,15.2c-4.1,0-7.5,3.3-7.5,7.5c0,4.1,3.3,7.5,7.5,7.5c4.1,0,7.5-3.3,7.5-7.5
				C86.7,18.5,83.4,15.2,79.3,15.2z"/>
		</g>
		<g>
			<path class="st0" d="M59.9,31.4c-4.4,0-7.9-3.6-7.9-7.9c0-4.4,3.6-7.9,7.9-7.9c4.4,0,7.9,3.6,7.9,7.9
				C67.9,27.8,64.3,31.3,59.9,31.4z M59.9,16c-4.1,0-7.5,3.3-7.5,7.5c0,4.1,3.3,7.5,7.5,7.5c4.1,0,7.5-3.4,7.5-7.5
				C67.4,19.3,64.1,16,59.9,16z"/>
		</g>
		<g>
			<path class="st0" d="M94,19.6c0-0.9-0.7-1.6-1.6-1.6s-1.6,0.7-1.6,1.6s0.7,1.6,1.6,1.6C93.3,21.2,94,20.5,94,19.6z"/>
		</g>
		<g>
			<circle class="st0" cx="46.7" cy="21" r="1.6"/>
		</g>
		<g>
			<path class="st0" d="M73.1,29.7c0-1-1.6-1.9-3.4-1.9s-3.4,0.9-3.4,1.9c0,1,1.6,1.9,3.4,1.9C71.6,31.6,73.1,30.7,73.1,29.7z"/>
		</g>
		<g>
			<path class="st0" d="M75.3,20.6c-1.4,0-2.5,1.1-2.5,2.5c0,1.4,1.1,2.5,2.5,2.5c1.4,0,2.5-1.1,2.5-2.5
				C77.8,21.7,76.7,20.6,75.3,20.6z M76.3,24.7c-0.4,0-0.7-0.3-0.7-0.7c0-0.4,0.3-0.7,0.7-0.7c0.4,0,0.7,0.3,0.7,0.7
				C77,24.4,76.7,24.7,76.3,24.7z"/>
		</g>
		<g>
			<path class="st0" d="M55.8,21.2c-1.4,0-2.5,1.1-2.5,2.5c0,1.4,1.1,2.5,2.5,2.5c1.4,0,2.5-1.1,2.5-2.5
				C58.3,22.3,57.2,21.2,55.8,21.2z M56.8,25.3c-0.4,0-0.7-0.3-0.7-0.7s0.3-0.7,0.7-0.7c0.4,0,0.7,0.3,0.7,0.7
				C57.5,25,57.2,25.3,56.8,25.3z"/>
		</g>
		<g>
			<g>
				<g>
					<path class="st0" d="M69.8,35c0.2,0.9,0.1,2.1,0,3c-0.1,0.6-0.1,1.2-0.5,1.7c-0.5,0.6-1.4,0.7-2,0.1c-0.9-1-0.7-3-0.3-4.2
						c0.1-0.3-0.3-0.3-0.4-0.1c-0.4,1.5-0.8,4.5,1.2,5c2.9,0.8,2.7-4.1,2.4-5.7C70.1,34.7,69.8,34.8,69.8,35L69.8,35z"/>
				</g>
			</g>
		</g>
		<g>
			<g>
				<g>
					<path class="st0" d="M90.3,19.3c2.8,4.6,4,9.7,4,15.1c0,0.5,0.8,0.5,0.8,0c0.1-5.5-1.2-10.8-4.1-15.4
						C90.7,18.5,90,18.9,90.3,19.3L90.3,19.3z"/>
				</g>
			</g>
		</g>
		<g>
			<g>
				<g>
					<path d="M43.9,34.4c-1.5-3-6.7-2.7-6.5,1.2c0.1,1.4,1.2,2.3,2.6,1.8c1.6-0.6,1.8-2.4,1.3-3.8c-0.1-0.3-0.5-0.1-0.4,0.1
						c0.4,1.2,0.3,2.9-1.2,3.4c-1.9,0.5-2.3-1.9-1.6-3.2c1.3-2.2,4.4-1.3,5.3,0.7C43.6,34.9,44,34.7,43.9,34.4L43.9,34.4z"/>
				</g>
			</g>
		</g>
		<g>
			<g>
				<g>
					<path d="M39.6,37.2c-0.6-0.6-0.5-1.7,0.2-2.2c0.2-0.2,0-0.5-0.2-0.3c-0.9,0.7-1,2-0.3,2.9C39.5,37.7,39.8,37.4,39.6,37.2
						L39.6,37.2z"/>
				</g>
			</g>
		</g>
		<g>
			<g>
				<g>
					<path d="M98.2,34.8c0.9-0.9,2.2-2.1,3.6-2c1.6,0.1,2.2,2,2.2,3.4c0,0.8-0.1,1.9-0.9,2.2c-0.8,0.3-1.7-0.1-2.3-0.6
						c-1.1-1-0.9-2.7,0.2-3.6c0.2-0.2-0.1-0.4-0.3-0.3c-1.2,1.1-1.5,3-0.2,4.2c1,0.9,3,1.2,3.6-0.2c0.7-1.4,0.3-4.1-1-5
						c-1.8-1.4-4,0.4-5.2,1.7C97.7,34.7,98,35,98.2,34.8L98.2,34.8z"/>
				</g>
			</g>
		</g>
		<g>
			<g>
				<g>
					<path d="M102.1,38.7c0.5-1,0.6-2.2,0.3-3.3c-0.1-0.3-0.5-0.1-0.4,0.1c0.3,1,0.3,2.1-0.2,3C101.7,38.7,102,38.9,102.1,38.7
						L102.1,38.7z"/>
				</g>
			</g>
		</g>
	</g>
</g>
</svg>
