<?xml version="1.0" encoding="utf-8"?>
<!-- Generator: Adobe Illustrator 24.0.1, SVG Export Plug-In . SVG Version: 6.00 Build 0)  -->
<svg version="1.1" id="Layer_1" xmlns="http://www.w3.org/2000/svg" xmlns:xlink="http://www.w3.org/1999/xlink" x="0px" y="0px"
	 viewBox="0 0 141.7 141.7" style="enable-background:new 0 0 141.7 141.7;" xml:space="preserve">
<style type="text/css">
	.st0{enable-background:new    ;}
	.st1{fill:#070707;}
</style>
<g id="Layer_1_1_">
</g>
<g id="Layer_1_2_">
</g>
<g id="Layer_1_3_">
</g>
<g id="Layer_1_4_">
</g>
<g id="Layer_1_5_">
</g>
<g id="Layer_3">
</g>
<g id="Layer_3_1_">
</g>
<g id="Layer_1_6_">
</g>
<g id="Layer_1_7_">
</g>
<g id="Layer_1_8_">
</g>
<g id="Layer_1_9_">
</g>
<g id="Layer_1_10_">
</g>
<g id="Layer_1_11_">
</g>
<g id="Layer_1_12_">
</g>
<g id="Layer_1_13_">
</g>
<g id="Layer_1_14_">
</g>
<g id="Layer_1_15_">
</g>
<g id="Layer_1_16_">
</g>
<g id="Layer_1_17_">
</g>
<g id="Layer_1_18_">
</g>
<g id="Layer_1_19_">
</g>
<g id="Layer_1_20_">
</g>
<g id="Layer_2_1_">
</g>
<g id="Layer_1_21_">
</g>
<g id="Layer_1_22_">
</g>
<g id="Layer_1_23_">
</g>
<g id="Layer_1_24_">
</g>
<g id="Layer_1_25_">
</g>
<g id="Layer_1_26_">
</g>
<g id="Layer_2_2_">
	<g>
		<g>
			<path d="M40.8,73.3c-3.2,0-5.7-2.6-5.7-5.7c0-3.2,2.6-5.7,5.7-5.7c3.2,0,5.7,2.6,5.7,5.7C46.5,70.8,44,73.3,40.8,73.3z
				 M40.8,62.5c-2.8,0-5.2,2.3-5.2,5.2c0,2.8,2.3,5.2,5.2,5.2s5.2-2.3,5.2-5.2C46,64.8,43.7,62.5,40.8,62.5z"/>
		</g>
		<g class="st0">
			<path d="M39.8,70.5v-4.9h1.8c0.3,0,0.6,0,0.7,0c0.2,0,0.4,0.1,0.6,0.2c0.2,0.1,0.3,0.3,0.4,0.5c0.1,0.2,0.1,0.4,0.1,0.7
				c0,0.4-0.1,0.8-0.4,1.1c-0.3,0.3-0.7,0.4-1.4,0.4h-1.3v2H39.8z M40.4,68h1.3c0.4,0,0.7-0.1,0.9-0.2c0.2-0.2,0.3-0.4,0.3-0.7
				c0-0.2-0.1-0.4-0.2-0.5s-0.2-0.2-0.4-0.3c-0.1,0-0.3,0-0.6,0h-1.2V68z"/>
		</g>
	</g>
	<g>
		<g>
			<path d="M53.7,80C50,80,47,77,47,73.4c0-3.7,3-6.7,6.7-6.7s6.7,3,6.7,6.7C60.4,77,57.4,80,53.7,80z M53.7,67.2
				c-3.4,0-6.1,2.7-6.1,6.1c0,3.4,2.7,6.1,6.1,6.1s6.1-2.7,6.1-6.1C59.8,70,57.1,67.2,53.7,67.2z"/>
		</g>
		<g class="st0">
			<path d="M52.3,76.4v-5.1H56v0.6h-3v1.6h2.8V74H53v1.7h3.1v0.6H52.3z"/>
		</g>
	</g>
	<g>
		<g>
			<path d="M70.7,84.1c-4.8,0-8.7-3.9-8.7-8.7s3.9-8.7,8.7-8.7s8.7,3.9,8.7,8.7S75.6,84.1,70.7,84.1z M70.7,67.1
				c-4.5,0-8.2,3.7-8.2,8.2c0,4.5,3.7,8.2,8.2,8.2c4.5,0,8.2-3.7,8.2-8.2C78.9,70.8,75.3,67.1,70.7,67.1z"/>
		</g>
		<g class="st0">
			<path d="M67.2,78.7l2.6-6.7h1l2.8,6.7h-1l-0.8-2h-2.8l-0.7,2H67.2z M69.2,76h2.3l-0.7-1.9c-0.2-0.6-0.4-1-0.5-1.4
				c-0.1,0.4-0.2,0.9-0.4,1.3L69.2,76z"/>
		</g>
	</g>
	<g>
		<g>
			<path d="M86.9,78.4c-3.6,0-6.5-2.9-6.5-6.5s2.9-6.5,6.5-6.5s6.5,2.9,6.5,6.5S90.5,78.4,86.9,78.4z M86.9,66
				c-3.3,0-5.9,2.7-5.9,5.9c0,3.3,2.7,5.9,5.9,5.9c3.3,0,5.9-2.7,5.9-5.9C92.9,68.7,90.2,66,86.9,66z"/>
		</g>
		<g class="st0">
			<path d="M88.6,72.9l0.7,0.2c-0.1,0.5-0.4,0.9-0.7,1.2c-0.4,0.3-0.8,0.4-1.3,0.4c-0.5,0-1-0.1-1.3-0.3c-0.3-0.2-0.6-0.5-0.8-0.9
				c-0.2-0.4-0.3-0.9-0.3-1.3c0-0.5,0.1-1,0.3-1.3c0.2-0.4,0.5-0.7,0.8-0.9c0.4-0.2,0.8-0.3,1.2-0.3c0.5,0,0.9,0.1,1.2,0.4
				c0.3,0.3,0.6,0.6,0.7,1.1l-0.6,0.2c-0.1-0.4-0.3-0.6-0.5-0.8c-0.2-0.2-0.5-0.2-0.8-0.2c-0.4,0-0.7,0.1-1,0.3
				c-0.3,0.2-0.4,0.4-0.5,0.7c-0.1,0.3-0.2,0.6-0.2,0.9c0,0.4,0.1,0.8,0.2,1.1c0.1,0.3,0.3,0.5,0.6,0.7c0.3,0.2,0.5,0.2,0.8,0.2
				c0.4,0,0.7-0.1,0.9-0.3C88.4,73.7,88.5,73.3,88.6,72.9z"/>
		</g>
	</g>
	<g>
		<g>
			<path d="M99.1,72.2c-3,0-5.4-2.4-5.4-5.4c0-3,2.4-5.4,5.4-5.4c3,0,5.4,2.4,5.4,5.4C104.6,69.8,102.1,72.2,99.1,72.2z M99.1,61.9
				c-2.7,0-4.9,2.2-4.9,4.9c0,2.7,2.2,4.9,4.9,4.9c2.7,0,4.9-2.2,4.9-4.9C104,64.1,101.8,61.9,99.1,61.9z"/>
		</g>
		<g class="st0">
			<path d="M97.9,69.1V65h3v0.5h-2.4v1.3h2.3v0.5h-2.3v1.4h2.5v0.5H97.9z"/>
		</g>
	</g>
	<g>
		<g>
			<g>
				<path class="st1" d="M100.3,24.9c-4.9-8.9-15.5-13.3-25.4-13.2c-3.4,0.1-6.7,0.5-10.1,0.9c-3.3,0.4-6.7,0.4-10,1.2
					c-5.5,1.2-10.4,4.1-14.1,8.3c-6.3,7.3-7.9,17.1-8,26.4c-0.1,5,0.3,9.9,0.6,14.9c0.4,6.2,0.7,12.4,0.5,18.6
					c-0.3,7.5-1.7,15.3-0.6,22.8c1,6.4,4,12.2,8.5,16.9c0.3,0.3,0.8-0.2,0.5-0.5c-4-4.3-6.9-9.4-8-15.1c-1.3-6.4-0.4-12.9,0.1-19.3
					c0.4-6.4,0.5-12.9,0.1-19.3c-0.3-4.6-0.7-9.2-0.9-13.8c-0.3-9.2,0.1-19.1,4.9-27.2c2.6-4.4,6.5-8.1,11.1-10.3
					c3-1.4,6.2-2.1,9.5-2.4c3.4-0.3,6.8-0.7,10.2-1.1c6-0.6,11.6-0.5,17.3,1.6c5.5,2,10.3,5.7,13.1,10.8
					C99.9,25.6,100.5,25.3,100.3,24.9L100.3,24.9z"/>
			</g>
		</g>
	</g>
	<g>
		<g>
			<g>
				<path class="st1" d="M49,126.4c6.1,3.8,13.9,3.8,20.9,3.2c3.6-0.3,7.1-0.8,10.7-1.4c3.8-0.6,8-0.9,11.3-3c0.4-0.2,0-0.8-0.4-0.6
					c-3.2,2.1-7.4,2.3-11.1,3c-3.5,0.6-7,1.1-10.5,1.4c-6.8,0.6-14.5,0.6-20.5-3.1C49,125.5,48.6,126.1,49,126.4L49,126.4z"/>
			</g>
		</g>
	</g>
	<g>
		<g>
			<g>
				<path class="st1" d="M57.3,14c0.4,0,0.4-0.7,0-0.7S56.9,14,57.3,14L57.3,14z"/>
			</g>
		</g>
	</g>
	<g>
		<g>
			<g>
				<path class="st1" d="M34.6,34.1c-2.5-0.2-5-1.5-6.2-3.9c-1.2-2.4-0.8-5.2,0.8-7.4c1.4-1.9,3.6-3.2,5.9-3.6
					c2.2-0.4,5.3-0.3,6.9,1.6c0.3,0.3,0.8-0.1,0.5-0.5c-1.7-2-4.8-2.2-7.2-1.8c-2.8,0.4-5.4,2-7,4.4c-1.5,2.3-1.8,5.2-0.5,7.7
					c1.3,2.6,4,4,6.8,4.2C35.1,34.8,35.1,34.1,34.6,34.1L34.6,34.1z"/>
			</g>
		</g>
	</g>
	<g>
		<g>
			<g>
				<path class="st1" d="M95.3,19.1c3.9-2,10.2-3,12.9,1.3c2.7,4.3,1.1,11.1-4.4,12c-0.4,0.1-0.2,0.7,0.2,0.7c5.9-1,7.7-8.1,5-12.7
					c-2.8-5-9.7-4.1-14-1.8C94.5,18.7,94.9,19.3,95.3,19.1L95.3,19.1z"/>
			</g>
		</g>
	</g>
	<g>
		<g>
			<g>
				<path class="st1" d="M64.5,40.4c0.1,0,0.2,0,0.3-0.1c0-0.1-0.1-0.2-0.1-0.3c-0.2,0.2-0.7,0.1-1,0.2c-0.6,0.2-1.1,0.7-1.6,1.1
					c-0.9,0.7-1.9,1.7-2.3,2.8c-1,2.6,2.2,4.1,4.4,3.9c1.8-0.1,3.5-0.9,5.3-1.2c1.8-0.2,3.3,0.5,4.9,0.8c2.2,0.5,4.4-0.7,4.1-3.3
					c-0.4-2.7-3.9-4.2-6.1-5c-0.2-0.1-0.3,0.2-0.1,0.3c2.3,0.9,6.7,2.7,5.8,5.9c-0.7,2.3-2.8,2-4.6,1.4c-1.2-0.4-2.4-0.7-3.8-0.6
					c-1.6,0.2-3.1,0.8-4.7,1.1c-1.8,0.3-5.3-0.3-5-2.7c0.2-1.5,1.7-2.8,2.9-3.6c0.4-0.3,0.8-0.5,1.2-0.7c0.2-0.1,0.6-0.1,0.8-0.3
					c0.1-0.1,0-0.3-0.1-0.3c-0.1,0-0.2,0-0.4,0.1C64.1,40.1,64.2,40.5,64.5,40.4L64.5,40.4z"/>
			</g>
		</g>
	</g>
	<g>
		<g>
			<g>
				<path class="st1" d="M73.5,47.6c0.6,1.6,1,3.7,0.3,5.3c-0.5,1.2-2.1,2.1-3.2,1.2c-0.6-0.4-0.7-1-1-1.6c-0.1-0.2-0.4,0-0.3,0.2
					c0.4,0.7,0.6,1.6,1.3,2c0.8,0.4,1.9,0.2,2.6-0.3c2-1.4,1.4-4.9,0.7-6.9C73.7,47.3,73.4,47.4,73.5,47.6L73.5,47.6z"/>
			</g>
		</g>
	</g>
	<g>
		<g>
			<g>
				<path class="st1" d="M42.2,121.9c3.3-1.7,5,2.5,7.3,4.1c0-0.1,0-0.2,0-0.3c-1.9,0.3-3.4,1.6-4.9,2.7c-1.6,1.2-3.9,3.1-6,1.9
					c-5.1-2.9,1.9-7.4,4.5-8.8c0.2-0.1,0-0.4-0.2-0.3c-2.6,1.3-8.8,5-5.6,8.5c3.9,4.2,8.3-3.1,12.2-3.7c0.2,0,0.1-0.2,0-0.3
					c-2.4-1.7-4.1-5.9-7.7-4.1C41.8,121.7,42,122,42.2,121.9L42.2,121.9z"/>
			</g>
		</g>
	</g>
	<g>
		<g>
			<g>
				<path class="st1" d="M38.4,129.9c-0.6-1.9,0.9-3.5,2.5-4.3c0.2-0.1,0-0.4-0.2-0.3c-1.7,0.9-3.2,2.6-2.7,4.7
					C38.1,130.2,38.5,130,38.4,129.9L38.4,129.9z"/>
			</g>
		</g>
	</g>
	<g>
		<g>
			<g>
				<path class="st1" d="M97.9,129.8c-1.9-1.1-3-3.1-4.6-4.5c-0.7-0.6-1.5-0.8-0.6-2.3c0.3-0.5,1.1-1,1.6-1.3
					c1.3-0.8,2.7-1.3,4.2-0.8c2.2,0.7,3.9,3.1,4.4,5.3c0.3,1.2,0.2,2.6-0.8,3.5C101,130.8,99.1,130.4,97.9,129.8
					c-0.2-0.1-0.4,0.2-0.2,0.3c2.2,1.1,5.2,0.8,5.6-2.1c0.4-2.8-1.7-6.2-4.3-7.3c-1.4-0.6-2.8-0.5-4.1,0.2c-1,0.5-3,1.7-3.1,3
					c-0.1,1.1,1.5,1.8,2.1,2.5c1.2,1.3,2.3,2.7,3.8,3.7C97.9,130.2,98.1,129.9,97.9,129.8z"/>
			</g>
		</g>
	</g>
	<g>
		<g>
			<g>
				<path class="st1" d="M99,125.3c1.2,1.3,2.2,3,2.3,4.8c0,0.2,0.4,0.2,0.3,0c-0.1-1.9-1.1-3.7-2.4-5
					C99.1,124.9,98.9,125.2,99,125.3L99,125.3z"/>
			</g>
		</g>
	</g>
	<g>
		<g>
			<g>
				<path class="st1" d="M105.7,69.8c0.9,0.4,2,0,2.9,0.2c1.9,0.4,3.9,1.5,4.7,3.3c0.9,2.1,0.1,4.5-2.6,4c-1.9-0.3-3.3-1.7-4.7-3
					c-0.2-0.2-0.4,0.1-0.2,0.2c1.5,1.4,3.1,2.9,5.3,3.1c1.6,0.1,2.7-0.7,2.9-2.2c0.2-1.8-0.8-3.5-2.3-4.5c-0.9-0.7-2.1-1.2-3.3-1.3
					c-0.8-0.1-1.9,0.2-2.6-0.1C105.7,69.4,105.5,69.7,105.7,69.8L105.7,69.8z"/>
			</g>
		</g>
	</g>
	<g>
		<g>
			<g>
				<path class="st1" d="M110.3,74.5c1.3,0.4,2.8,1.5,2.1,3c-0.1,0.2,0.2,0.4,0.3,0.2c0.9-1.7-0.7-3-2.2-3.5
					C110.2,74.1,110.1,74.5,110.3,74.5L110.3,74.5z"/>
			</g>
		</g>
	</g>
	<g>
		<path class="st1" d="M83,40.2c-6.3,0-11.4-5.1-11.4-11.4c0-6.3,5.1-11.4,11.4-11.4c6.3,0,11.4,5.1,11.4,11.4
			C94.3,35.1,89.2,40.2,83,40.2z M83,17.9c-6,0-10.9,4.9-10.9,10.9c0,6,4.9,10.9,10.9,10.9c6,0,10.9-4.9,10.9-10.9
			C93.9,22.8,89,17.9,83,17.9z"/>
	</g>
	<g>
		<path class="st1" d="M54.9,41.4c-6.3,0-11.4-5.1-11.4-11.4c0-6.3,5.1-11.4,11.4-11.4c6.3,0,11.4,5.1,11.4,11.4
			C66.2,36.3,61.1,41.4,54.9,41.4z M54.9,19.1c-6,0-10.9,4.9-10.9,10.9c0,6,4.9,10.9,10.9,10.9c6,0,10.9-4.9,10.9-10.9
			C65.8,24,60.9,19.1,54.9,19.1z"/>
	</g>
	<g>
		<path class="st1" d="M104.3,24.5c0-1.3-1.1-2.4-2.4-2.4s-2.4,1.1-2.4,2.4c0,1.3,1.1,2.4,2.4,2.4S104.3,25.8,104.3,24.5z"/>
	</g>
	<g>
		<circle class="st1" cx="35.7" cy="26.6" r="2.4"/>
	</g>
	<g>
		<path class="st1" d="M74,39.2c0-1.5-2.2-2.8-5-2.8c-2.7,0-5,1.2-5,2.8c0,1.5,2.2,2.8,5,2.8C71.7,41.9,74,40.7,74,39.2z"/>
	</g>
	<g>
		<path class="st1" d="M79.3,28.7c0,2,1.6,3.6,3.6,3.6c2,0,3.6-1.6,3.6-3.6c0-2-1.6-3.6-3.6-3.6C80.9,25.1,79.3,26.7,79.3,28.7z
			 M85.3,27.2c0,0.6-0.5,1-1,1c-0.6,0-1-0.5-1-1c0-0.6,0.5-1,1-1C84.8,26.2,85.3,26.7,85.3,27.2z"/>
	</g>
	<g>
		<path class="st1" d="M51,29.6c0,2,1.6,3.6,3.6,3.6c2,0,3.7-1.6,3.7-3.6c0-2-1.6-3.6-3.7-3.6C52.6,25.9,51,27.6,51,29.6z
			 M56.9,28.1c0,0.6-0.5,1-1,1c-0.6,0-1-0.5-1-1c0-0.6,0.5-1,1-1C56.5,27.1,56.9,27.5,56.9,28.1z"/>
	</g>
	<g>
		<g>
			<g>
				<path class="st1" d="M69.3,46.8c0.3,1.4,0.2,3.3,0,4.7c-0.1,0.9-0.3,1.9-0.9,2.5c-0.7,0.7-2,0.7-2.8,0c-1.5-1.4-1.1-4.5-0.6-6.3
					c0.1-0.2-0.3-0.3-0.3-0.1c-0.6,2-1.1,6.4,1.6,7.2c1.3,0.4,2.4-0.3,2.9-1.6c0.4-1.1,0.5-2.2,0.5-3.4c0-1.1,0.1-2.2-0.1-3.2
					C69.6,46.5,69.2,46.6,69.3,46.8L69.3,46.8z"/>
			</g>
		</g>
	</g>
	<g>
		<g>
			<g>
				<path class="st1" d="M34.3,70.7c-2.5-0.4-5.2,0.7-7,2.5c-1.3,1.2-2,3-0.2,4c0.2,0.1,0.4-0.2,0.2-0.3c-2.2-1.2,0-3.4,1.3-4.3
					c1.6-1.1,3.6-1.9,5.6-1.5C34.4,71.1,34.5,70.7,34.3,70.7L34.3,70.7z"/>
			</g>
		</g>
	</g>
	<g>
		<g>
			<g>
				<path class="st1" d="M29,75.3c-0.7,0.4-1.7,1-1.7,1.9c0,0.8,0.9,1.3,1.6,1.4c2.1,0.4,4.5-2,5.6-3.6c0.1-0.2-0.2-0.4-0.3-0.2
					c-0.9,1.2-2.2,2.4-3.6,3c-0.8,0.4-2.4,0.7-2.9-0.3c-0.5-0.9,0.8-1.7,1.4-2.1C29.4,75.6,29.2,75.3,29,75.3L29,75.3z"/>
			</g>
		</g>
	</g>
	<g>
		<g>
			<g>
				<path class="st1" d="M99.1,24c6.7,9.8,5.9,22.5,5.8,33.8c-0.1,14.1,1.9,28.1,1.1,42.2c-0.2,3.8-0.8,7.6-2,11.2
					c-1.2,3.4-3.6,6.1-5.3,9.2c-0.2,0.4,0.4,0.7,0.6,0.4c1.5-2.7,3.5-5.1,4.8-8c1.3-2.9,1.9-6.2,2.3-9.3c0.9-7.2,0.4-14.5,0.1-21.7
					c-0.4-7.4-0.9-14.9-0.9-22.3c0-5.9,0.2-11.7-0.2-17.6c-0.5-6.4-2-12.9-5.6-18.2C99.5,23.2,98.9,23.6,99.1,24L99.1,24z"/>
			</g>
		</g>
	</g>
	<g>
		<g>
			<g>
				<path class="st1" d="M91.7,124.7c0.1,0,0.1,0,0.2,0c0.2,0,0.2-0.3,0-0.3h0c-0.1,0-0.1,0-0.1,0.1l0,0c0,0,0,0,0,0
					c0.1,0.1,0.1,0.1,0.2,0.2c0-0.1,0.1-0.1,0.1-0.2C91.9,124.6,91.8,124.6,91.7,124.7c0,0,0.1,0.1,0.2,0.1c0.2,0.2,0.4-0.1,0.2-0.2
					c-0.1-0.1-0.1-0.1-0.2-0.2c-0.1-0.1-0.2-0.1-0.3,0.1c0,0.1-0.1,0.1-0.1,0.2c-0.1,0.1,0.1,0.2,0.2,0.2c0.1,0,0.2-0.1,0.2-0.2
					c-0.1,0-0.1,0.1-0.1,0.1h0c0.2,0,0.2-0.3,0-0.3c-0.1,0-0.1,0-0.2,0C91.5,124.4,91.5,124.7,91.7,124.7L91.7,124.7z"/>
			</g>
		</g>
	</g>
	<g>
		<g>
			<g>
				<path d="M34,63.4c0.6,0.7,1.2,1.1,2.1,1.5c0.2,0.1,0.3-0.2,0.1-0.3c-0.7-0.3-1.4-0.8-1.9-1.4C34.1,63,33.8,63.3,34,63.4L34,63.4
					z"/>
			</g>
		</g>
	</g>
	<g>
		<g>
			<g>
				<path d="M45.6,70.3c0.7,0.6,1.4,1.1,2.3,1.4c0.2,0.1,0.3-0.2,0.1-0.3c-0.8-0.3-1.5-0.7-2.1-1.3C45.7,69.9,45.5,70.1,45.6,70.3
					L45.6,70.3z"/>
			</g>
		</g>
	</g>
	<g>
		<g>
			<g>
				<path d="M60,74.9c0.7,0.6,1.5,0.8,2.3,0.8c0.2,0,0.2-0.4,0-0.3c-0.8,0-1.5-0.2-2.1-0.7C60.1,74.5,59.8,74.7,60,74.9L60,74.9z"/>
			</g>
		</g>
	</g>
	<g>
		<g>
			<g>
				<path d="M79.2,75.1c0.7-0.2,1.4-0.5,2-0.7c0.2-0.1,0.1-0.4-0.1-0.3c-0.7,0.2-1.4,0.5-2,0.7C78.9,74.8,79,75.2,79.2,75.1
					L79.2,75.1z"/>
			</g>
		</g>
	</g>
	<g>
		<g>
			<g>
				<path d="M93,70.1c0.6-0.3,1.1-0.6,1.7-0.9c0.2-0.1,0-0.4-0.2-0.3c-0.6,0.3-1.1,0.6-1.7,0.9C92.6,69.9,92.8,70.2,93,70.1L93,70.1
					z"/>
			</g>
		</g>
	</g>
	<g>
		<g>
			<g>
				<path d="M104.1,64.1c0.2-0.5,0.6-0.8,1-1.1c0.2-0.1,0-0.4-0.2-0.3c-0.5,0.2-0.9,0.7-1.2,1.2C103.7,64.2,104,64.4,104.1,64.1
					L104.1,64.1z"/>
			</g>
		</g>
	</g>
	<g>
		<g>
			<g>
				<path d="M36.2,64.6c-0.1,0.1-0.1,0.1-0.2,0.2c-0.3,0.3,0.2,0.8,0.5,0.5c0.1-0.1,0.1-0.1,0.2-0.2C37,64.7,36.5,64.2,36.2,64.6
					L36.2,64.6z"/>
			</g>
		</g>
	</g>
	<g>
		<g>
			<g>
				<path d="M35.9,64.8c0-0.1,0.1-0.1,0.1-0.1c-0.1,0,0,0,0.1,0c-0.1,0,0.2,0,0.1,0c0.2,0,0.1,0,0.1,0c-0.1,0-0.1,0,0.1,0
					c0,0-0.1,0-0.1,0c0,0,0.1,0.1,0.1,0.1c0,0,0,0-0.1-0.1c0.1,0,0.1,0.1,0,0c0.1,0.1,0.1,0.1,0,0.1c0,0.1,0,0.2,0,0.2
					c0-0.1-0.1,0.1,0,0c0,0.1-0.1,0.1-0.1,0.1c-0.1,0-0.1,0.1,0,0c-0.1,0.1-0.1,0.1-0.1,0c0.1,0,0,0,0,0c-0.1,0-0.1,0,0,0
					c0.1,0,0.1,0-0.1,0l0.1,0c-0.1-0.1-0.1-0.1-0.1,0c0,0,0,0,0.1,0c0.1,0,0,0-0.1-0.1c0,0,0,0,0.1,0.1c-0.1-0.1-0.1-0.1-0.1-0.1
					c0,0.1,0,0,0-0.1c0,0.1,0,0,0-0.1C35.8,65,35.8,64.9,35.9,64.8c-0.1,0.4,0.1,0.8,0.5,0.9c0.3,0.1,0.8-0.1,0.9-0.5
					c0.1-0.6-0.2-1.1-0.8-1.3c-0.5-0.2-1.1,0-1.4,0.4c-0.3,0.6-0.1,1.2,0.5,1.5c0.2,0.1,0.4,0.2,0.7,0.2c0.4,0,0.6-0.2,0.9-0.5
					c0.2-0.3,0.1-0.8-0.2-0.9C36.4,64.4,36.1,64.5,35.9,64.8L35.9,64.8z"/>
			</g>
		</g>
	</g>
	<g>
		<g>
			<g>
				<path d="M45,69.5c-0.1,0.1-0.1,0.1-0.2,0.2c-0.2,0.2-0.3,0.7,0,1s0.7,0.3,1,0c0.1-0.1,0.1-0.1,0.2-0.2c0.2-0.2,0.3-0.7,0-1
					C45.8,69.2,45.3,69.2,45,69.5L45,69.5z"/>
			</g>
		</g>
	</g>
	<g>
		<g>
			<g>
				<path d="M47.9,71.1C47.9,71.1,47.9,71.1,47.9,71.1c0.1,0,0.2,0.1,0.3,0.1c0,0.4,0,0.7,0,1.1c-0.1,0-0.2,0.1-0.4,0.1h0
					c0.4,0,0.7-0.3,0.7-0.7c0-0.4-0.3-0.7-0.7-0.7c-0.4,0-0.7,0.3-0.7,0.8s0.3,0.7,0.7,0.8c0.4,0,0.7-0.3,0.7-0.7
					C48.6,71.4,48.3,71.1,47.9,71.1L47.9,71.1z"/>
			</g>
		</g>
	</g>
	<g>
		<g>
			<g>
				<path d="M58.9,74.6c0,0.1,0,0.1,0,0.2c0,0.4,0.3,0.7,0.7,0.7c0.4,0,0.7-0.3,0.7-0.7c0-0.1,0-0.1,0-0.2c0-0.4-0.3-0.7-0.7-0.7
					C59.2,73.9,58.9,74.2,58.9,74.6L58.9,74.6z"/>
			</g>
		</g>
	</g>
	<g>
		<g>
			<g>
				<path d="M62,76.4c0.1,0,0.1,0,0.2,0c0.4,0,0.7-0.3,0.7-0.7c0-0.4-0.3-0.7-0.7-0.7c-0.1,0-0.1,0-0.2,0c-0.4,0-0.7,0.3-0.7,0.7
					C61.3,76.1,61.6,76.4,62,76.4L62,76.4z"/>
			</g>
		</g>
	</g>
	<g>
		<g>
			<g>
				<path d="M78.8,74.3c-0.4,0-0.7,0.4-0.7,0.8c0,0.4,0.4,0.8,0.8,0.8c0.4,0,0.7-0.3,0.7-0.7c0-0.4-0.3-0.7-0.7-0.7
					c0.1,0,0.1,0,0.1,0c0.1,0.1,0.2,0.1,0.3,0.2c0.3,0.3,0.2,0.6-0.1,0.9c-0.1,0-0.2,0.1-0.4,0.1c0,0,0,0,0,0c0.4,0,0.7-0.3,0.7-0.7
					C79.5,74.6,79.2,74.3,78.8,74.3L78.8,74.3z"/>
			</g>
		</g>
	</g>
	<g>
		<g>
			<g>
				<path d="M81,75.1c0.9,0,0.9-1.4,0-1.4S80.2,75.1,81,75.1L81,75.1z"/>
			</g>
		</g>
	</g>
	<g>
		<g>
			<g>
				<path d="M92.5,70.9c0.9,0,0.9-1.4,0-1.4S91.6,70.9,92.5,70.9L92.5,70.9z"/>
			</g>
		</g>
	</g>
	<g>
		<g>
			<g>
				<path d="M94.7,69.7c0.9,0,0.9-1.4,0-1.4C93.8,68.4,93.8,69.7,94.7,69.7L94.7,69.7z"/>
			</g>
		</g>
	</g>
	<g>
		<g>
			<g>
				<path d="M103.4,65.1c0.9,0,0.9-1.4,0-1.4C102.5,63.7,102.5,65.1,103.4,65.1L103.4,65.1z"/>
			</g>
		</g>
	</g>
	<g>
		<g>
			<g>
				<path d="M35.7,64c-0.7-0.4-1.5-0.5-2.2-0.9c-0.4-0.2-0.7-0.5-0.9-0.9c-0.2-0.5,0-1.3,0.7-1.4c0.2,0,0.2-0.4,0-0.3
					c-0.9,0.1-1.3,1.1-1,1.8c0.5,1.2,2.1,1.4,3.2,2C35.7,64.4,35.9,64.1,35.7,64L35.7,64z"/>
			</g>
		</g>
	</g>
	<g>
		<g>
			<g>
				<path d="M103.8,64.2c0.9-0.9,2.4-1.5,2.7-2.8c0.2-0.8-0.3-1.7-1.2-1.7c-0.2,0-0.2,0.3,0,0.3c0.7,0,1,0.8,0.9,1.4
					c-0.2,0.5-0.6,0.9-1,1.2c-0.6,0.4-1.1,0.8-1.6,1.3C103.3,64.1,103.6,64.4,103.8,64.2L103.8,64.2z"/>
			</g>
		</g>
	</g>
	<g>
		<g>
			<g>
				<path d="M105.5,59.6c0.2-1,0.3-2,0.5-3.1c0.1-0.7,0.3-2,0.9-2.5c0.3-0.6,0.8-0.5,1.4,0.3c0,0.1-0.1,0.2-0.1,0.3
					c0,0.4-0.6,1.2-0.8,1.6c-0.5,0.9-1.2,1.8-2,2.5c0.1,0.1,0.2,0.2,0.2,0.2c0.7-0.7,1.5-1.2,2.5-1.5c0.7-0.2,2.6-0.3,3.2,0.4
					c-0.1,0.6-0.1,1.2-0.2,1.8c-0.4,0.1-0.9,0.1-1.4,0.1c-0.5,0-1,0.1-1.5,0.1c-1,0-2,0-3,0c0,0.1,0.1,0.2,0.1,0.3
					c2.9-1.5,2.4,2.6,4.1,3.1c0.6,0.2,1.1-0.1,1.3-0.6c0.1-0.2-0.2-0.3-0.3-0.1c-0.5-0.1-1-0.2-1.5-0.3c-0.1-0.2-0.2-0.4-0.3-0.6
					c-0.1-0.2-0.2-0.5-0.4-0.7c-0.2-0.4-0.5-0.7-0.9-1c-0.7-0.5-1.5-0.6-2.3-0.1c-0.2,0.1-0.1,0.3,0.1,0.3c1.1,0.1,8.5,0.7,6.8-2.1
					c-0.6-1-2.2-1.2-3.2-1.1c-1.4,0.1-2.6,0.7-3.5,1.7c-0.2,0.2,0.1,0.4,0.2,0.2c0.7-0.7,4.6-5.2,2.5-6c-0.9-0.3-1.7,0.9-2,1.5
					c-0.7,1.5-0.7,3.4-1,5C105.1,59.7,105.4,59.8,105.5,59.6L105.5,59.6z"/>
			</g>
		</g>
	</g>
	<g>
		<g>
			<g>
				<path d="M106.3,60.6c1.1,0.8,0.3,2.4,0.8,3.5c0.5,1,1.4,0.8,2.3,0.4c0.2-0.1,0-0.4-0.2-0.3c-0.6,0.2-1.3,0.5-1.7-0.1
					c-0.1-0.2-0.2-0.5-0.2-0.7c-0.1-0.4,0-0.9,0-1.3c0-0.7-0.1-1.3-0.7-1.7C106.4,60.2,106.1,60.5,106.3,60.6L106.3,60.6z"/>
			</g>
		</g>
	</g>
	<g>
		<g>
			<g>
				<path d="M63.6,73.4c0.4-0.5,0.9-1.1,1.4-1.6c0.1-0.2-0.1-0.4-0.2-0.2c-0.4,0.5-0.9,1.1-1.4,1.6C63.2,73.3,63.4,73.6,63.6,73.4
					L63.6,73.4z"/>
			</g>
		</g>
	</g>
	<g>
		<g>
			<g>
				<path d="M63.8,73.8c0.5-0.5,1-1,1.5-1.5c0.2-0.2-0.1-0.4-0.2-0.2c-0.5,0.5-1,1-1.5,1.5C63.4,73.7,63.6,74,63.8,73.8L63.8,73.8z"
					/>
			</g>
		</g>
	</g>
	<g>
		<g>
			<g>
				<path d="M63.8,74.9c0.3-0.3,0.6-0.6,0.9-0.9c0.2-0.2-0.1-0.4-0.2-0.2c-0.3,0.3-0.6,0.6-0.9,0.9C63.3,74.8,63.6,75,63.8,74.9
					L63.8,74.9z"/>
			</g>
		</g>
	</g>
	<g>
		<g>
			<g>
				<path d="M63.8,76c0.3-0.4,0.6-0.7,0.9-1.1c0.1-0.2-0.1-0.4-0.2-0.2c-0.3,0.4-0.6,0.7-0.9,1.1C63.4,75.9,63.6,76.2,63.8,76
					L63.8,76z"/>
			</g>
		</g>
	</g>
	<g>
		<g>
			<g>
				<path d="M64,77c0.1-0.3,0.2-0.6,0.5-0.8c0.2-0.1,0-0.4-0.2-0.3c-0.3,0.2-0.6,0.6-0.6,1C63.6,77.2,64,77.3,64,77L64,77z"/>
			</g>
		</g>
	</g>
	<g>
		<g>
			<g>
				<path d="M64.2,77.5C64.2,77.5,64.2,77.5,64.2,77.5c0.1,0.2,0.3-0.1,0.1-0.2c-0.2-0.1-0.5,0.1-0.4,0.4
					C64,77.8,64.3,77.7,64.2,77.5L64.2,77.5z"/>
			</g>
		</g>
	</g>
	<g>
		<g>
			<g>
				<path d="M64,77.7c0.1,0,0.2,0,0.4,0c0.2,0,0.2-0.3,0-0.3c-0.1,0-0.2,0-0.4,0C63.8,77.4,63.8,77.7,64,77.7L64,77.7z"/>
			</g>
		</g>
	</g>
	<g>
		<g>
			<g>
				<path d="M64.6,78.6c0.1,0,0.1,0,0.2,0c0.2,0,0.2-0.4,0-0.3c-0.1,0-0.1,0-0.2,0C64.4,78.3,64.4,78.7,64.6,78.6L64.6,78.6z"/>
			</g>
		</g>
	</g>
	<g>
		<g>
			<g>
				<path d="M64.6,78.8c0.1,0,0.2,0,0.4,0c0.2,0,0.2-0.3,0-0.3c-0.1,0-0.2,0-0.4,0C64.4,78.5,64.4,78.8,64.6,78.8L64.6,78.8z"/>
			</g>
		</g>
	</g>
	<g>
		<g>
			<g>
				<path d="M65.3,79.6c0.1,0,0.1,0,0.2,0c0.2,0,0.2-0.3,0-0.3c-0.1,0-0.1,0-0.2,0C65.1,79.2,65.1,79.6,65.3,79.6L65.3,79.6z"/>
			</g>
		</g>
	</g>
	<g>
		<g>
			<g>
				<path d="M82.1,69.9c0.4-0.4,0.7-0.7,1.1-1.1c0.2-0.2-0.1-0.4-0.2-0.2c-0.4,0.4-0.7,0.7-1.1,1.1C81.7,69.8,81.9,70.1,82.1,69.9
					L82.1,69.9z"/>
			</g>
		</g>
	</g>
	<g>
		<g>
			<g>
				<path d="M81.9,70.8c0.3-0.3,0.6-0.6,0.9-0.9c0.2-0.2-0.1-0.4-0.2-0.2c-0.3,0.3-0.6,0.6-0.9,0.9C81.5,70.7,81.7,71,81.9,70.8
					L81.9,70.8z"/>
			</g>
		</g>
	</g>
	<g>
		<g>
			<g>
				<path d="M82.1,71.4c0.1-0.1,0.1-0.1,0.2-0.2c0.2-0.2-0.1-0.4-0.2-0.2c-0.1,0.1-0.1,0.1-0.2,0.2C81.7,71.3,81.9,71.5,82.1,71.4
					L82.1,71.4z"/>
			</g>
		</g>
	</g>
	<g>
		<g>
			<g>
				<path d="M82.1,72.7c0.1-0.1,0.1-0.1,0.2-0.2c0.2-0.2-0.1-0.4-0.2-0.2c-0.1,0.1-0.1,0.1-0.2,0.2C81.7,72.6,81.9,72.9,82.1,72.7
					L82.1,72.7z"/>
			</g>
		</g>
	</g>
	<g>
		<g>
			<g>
				<path d="M82,72.7c0.1,0,0.2,0,0.4,0c0.2,0,0.2-0.3,0-0.3c-0.1,0-0.2,0-0.4,0C81.7,72.4,81.7,72.7,82,72.7L82,72.7z"/>
			</g>
		</g>
	</g>
	<g>
		<g>
			<g>
				<path d="M82.7,74c0.2,0,0.2-0.3,0-0.3C82.5,73.7,82.5,74,82.7,74L82.7,74z"/>
			</g>
		</g>
	</g>
	<g>
		<g>
			<g>
				<path d="M82.6,74c0.1,0.1,0.2,0.1,0.4,0.2c0.2,0.1,0.4-0.2,0.2-0.3c-0.1-0.1-0.2-0.1-0.4-0.2C82.6,73.6,82.4,73.9,82.6,74
					L82.6,74z"/>
			</g>
		</g>
	</g>
	<g>
		<g>
			<g>
				<path d="M83.3,75.2c0,0.1,0,0.1,0,0.2c0,0.2,0.3,0.2,0.3,0c0-0.1,0-0.1,0-0.2C83.6,74.9,83.3,74.9,83.3,75.2L83.3,75.2z"/>
			</g>
		</g>
	</g>
	<g>
		<g>
			<g>
				<path d="M84.1,76.4c0.1,0.1,0.1,0.1,0.2,0.2c0.2,0.2,0.4-0.1,0.2-0.2c-0.1-0.1-0.1-0.1-0.2-0.2C84.1,76,83.9,76.2,84.1,76.4
					L84.1,76.4z"/>
			</g>
		</g>
	</g>
	<g>
		<g>
			<g>
				<path d="M48.8,74.1c0.2-0.4,0.5-0.9,0.7-1.3c0.1-0.2-0.2-0.4-0.3-0.2c-0.2,0.4-0.5,0.9-0.7,1.3C48.4,74.2,48.7,74.3,48.8,74.1
					L48.8,74.1z"/>
			</g>
		</g>
	</g>
	<g>
		<g>
			<g>
				<path d="M48.8,75.1c0.3-0.2,0.6-0.5,0.9-0.7c0.2-0.1-0.1-0.4-0.2-0.2c-0.3,0.2-0.6,0.5-0.9,0.7C48.4,75,48.7,75.3,48.8,75.1
					L48.8,75.1z"/>
			</g>
		</g>
	</g>
	<g>
		<g>
			<g>
				<path d="M49.1,75.9c0.4-0.1,0.7-0.3,0.7-0.7c0-0.2-0.3-0.2-0.3,0c0,0.2-0.2,0.4-0.4,0.4C48.8,75.6,48.8,75.9,49.1,75.9
					L49.1,75.9z"/>
			</g>
		</g>
	</g>
	<g>
		<g>
			<g>
				<path d="M49.5,77c0.3-0.2,0.5-0.5,0.6-0.8c0.1-0.2-0.2-0.3-0.3-0.1c-0.1,0.2-0.2,0.5-0.5,0.6C49.1,76.8,49.3,77.1,49.5,77
					L49.5,77z"/>
			</g>
		</g>
	</g>
	<g>
		<g>
			<g>
				<path d="M50.3,76.9c0.1-0.1,0.1-0.1,0.2-0.2c0.2-0.2-0.1-0.4-0.2-0.2c-0.1,0.1-0.1,0.1-0.2,0.2C49.9,76.8,50.1,77.1,50.3,76.9
					L50.3,76.9z"/>
			</g>
		</g>
	</g>
	<g>
		<g>
			<g>
				<path d="M50.2,77c0.2,0,0.5,0,0.7,0c0.2,0,0.2-0.3,0-0.3c-0.2,0-0.5,0-0.7,0C49.9,76.7,49.9,77,50.2,77L50.2,77z"/>
			</g>
		</g>
	</g>
	<g>
		<g>
			<g>
				<path d="M51.1,77.2c0,0.1,0,0.1,0,0.2c0,0.2,0.3,0.2,0.3,0c0-0.1,0-0.1,0-0.2C51.4,77,51.1,77,51.1,77.2L51.1,77.2z"/>
			</g>
		</g>
	</g>
	<g>
		<g>
			<g>
				<path d="M51.3,77.5c0.2,0,0.5,0,0.7,0c0.2,0,0.2-0.3,0-0.3c-0.2,0-0.5,0-0.7,0C51.1,77.2,51.1,77.5,51.3,77.5L51.3,77.5z"/>
			</g>
		</g>
	</g>
	<g>
		<g>
			<g>
				<path d="M95.4,65.5c0.3-0.4,0.6-0.7,0.9-1.1c0.1-0.2-0.1-0.4-0.2-0.2c-0.3,0.4-0.6,0.7-0.9,1.1C95,65.4,95.3,65.6,95.4,65.5
					L95.4,65.5z"/>
			</g>
		</g>
	</g>
	<g>
		<g>
			<g>
				<path d="M95.2,66.6c0.3-0.4,0.7-0.7,1.1-1c0.2-0.1,0-0.4-0.2-0.3c-0.4,0.3-0.8,0.7-1.2,1.1C94.8,66.5,95,66.7,95.2,66.6
					L95.2,66.6z"/>
			</g>
		</g>
	</g>
	<g>
		<g>
			<g>
				<path d="M95.8,66.9c0.2-0.3,0.4-0.5,0.7-0.7c0.2-0.1,0-0.4-0.2-0.3c-0.4,0.2-0.6,0.4-0.8,0.8C95.4,66.9,95.7,67.1,95.8,66.9
					L95.8,66.9z"/>
			</g>
		</g>
	</g>
	<g>
		<g>
			<g>
				<path d="M95.8,67.9c0.2,0.1,0.5-0.1,0.4-0.4c-0.1-0.2-0.4,0-0.3,0.2c0-0.1,0-0.1,0.1-0.1C95.7,67.5,95.6,67.8,95.8,67.9
					L95.8,67.9z"/>
			</g>
		</g>
	</g>
	<g>
		<g>
			<g>
				<path d="M95.7,67.9c0.1,0.1,0.1,0.1,0.2,0.2c0.2,0.2,0.4-0.1,0.2-0.2c-0.1-0.1-0.1-0.1-0.2-0.2C95.8,67.5,95.5,67.7,95.7,67.9
					L95.7,67.9z"/>
			</g>
		</g>
	</g>
	<g>
		<g>
			<g>
				<path d="M96.4,69.2c0.2,0,0.2-0.3,0-0.3C96.2,68.9,96.2,69.2,96.4,69.2L96.4,69.2z"/>
			</g>
		</g>
	</g>
	<g>
		<g>
			<g>
				<path d="M96.3,69.2c0.1,0.1,0.2,0.2,0.4,0.4c0.2,0.2,0.4-0.1,0.2-0.2c-0.1-0.1-0.2-0.2-0.4-0.4C96.3,68.8,96.1,69,96.3,69.2
					L96.3,69.2z"/>
			</g>
		</g>
	</g>
	<g>
		<g>
			<g>
				<path d="M97.7,70.7c0.2,0,0.2-0.3,0-0.3C97.5,70.4,97.5,70.7,97.7,70.7L97.7,70.7z"/>
			</g>
		</g>
	</g>
	<g>
		<g>
			<g>
				<path d="M36.4,67.1c0.2-0.4,0.4-0.7,0.7-1.1c0.2-0.1-0.1-0.4-0.2-0.2c-0.3,0.3-0.6,0.7-0.8,1.1C36,67.1,36.3,67.3,36.4,67.1
					L36.4,67.1z"/>
			</g>
		</g>
	</g>
	<g>
		<g>
			<g>
				<path d="M36.4,68.2c0.4-0.4,0.7-0.9,1.1-1.3c0.1-0.2-0.1-0.4-0.2-0.2c-0.4,0.4-0.7,0.9-1.1,1.3C36.1,68.2,36.3,68.4,36.4,68.2
					L36.4,68.2z"/>
			</g>
		</g>
	</g>
	<g>
		<g>
			<g>
				<path d="M37,68.6c0.2-0.2,0.4-0.5,0.6-0.7c0.1-0.2-0.2-0.4-0.3-0.2c-0.2,0.2-0.4,0.5-0.6,0.7C36.6,68.6,36.9,68.8,37,68.6
					L37,68.6z"/>
			</g>
		</g>
	</g>
	<g>
		<g>
			<g>
				<path d="M37.2,69.2c0.1-0.1,0.1-0.1,0.2-0.2c0.2-0.2-0.1-0.4-0.2-0.2c-0.1,0.1-0.1,0.1-0.2,0.2C36.7,69.1,37,69.3,37.2,69.2
					L37.2,69.2z"/>
			</g>
		</g>
	</g>
	<g>
		<g>
			<g>
				<path d="M37.1,69.2c0.1,0.1,0.1,0.1,0.2,0.2c0.2,0.2,0.4-0.1,0.2-0.2c-0.1-0.1-0.1-0.1-0.2-0.2C37.2,68.8,36.9,69,37.1,69.2
					L37.1,69.2z"/>
			</g>
		</g>
	</g>
	<g>
		<g>
			<g>
				<path d="M37.8,70c0.2,0,0.2-0.3,0-0.3C37.5,69.6,37.5,70,37.8,70L37.8,70z"/>
			</g>
		</g>
	</g>
	<g>
		<g>
			<g>
				<path d="M37.8,70.2c0.1,0,0.1,0,0.2,0c0.2,0,0.2-0.3,0-0.3c-0.1,0-0.1,0-0.2,0C37.5,69.8,37.5,70.2,37.8,70.2L37.8,70.2z"/>
			</g>
		</g>
	</g>
	<g>
		<g>
			<g>
				<path d="M38.7,70.7c0.2,0,0.2-0.3,0-0.3C38.5,70.4,38.5,70.7,38.7,70.7L38.7,70.7z"/>
			</g>
		</g>
	</g>
</g>
</svg>
