<?xml version="1.0" encoding="utf-8"?>
<!-- Generator: Adobe Illustrator 24.0.1, SVG Export Plug-In . SVG Version: 6.00 Build 0)  -->
<svg version="1.1" id="Layer_1" xmlns="http://www.w3.org/2000/svg" xmlns:xlink="http://www.w3.org/1999/xlink" x="0px" y="0px"
	 viewBox="0 0 141.7 141.7" style="enable-background:new 0 0 141.7 141.7;" xml:space="preserve">
<style type="text/css">
	.st0{fill:#070707;}
	.st1{fill:#231F20;}
	.st2{enable-background:new    ;}
</style>
<g id="Layer_1_1_">
</g>
<g id="Layer_1_2_">
</g>
<g id="Layer_1_3_">
</g>
<g id="Layer_1_4_">
</g>
<g id="Layer_1_5_">
</g>
<g id="Layer_3">
</g>
<g id="Layer_3_1_">
</g>
<g id="Layer_1_6_">
</g>
<g id="Layer_1_7_">
</g>
<g id="Layer_1_8_">
</g>
<g id="Layer_1_9_">
</g>
<g id="Layer_1_10_">
</g>
<g id="Layer_1_11_">
</g>
<g id="Layer_1_12_">
</g>
<g id="Layer_1_13_">
</g>
<g id="Layer_1_14_">
</g>
<g id="Layer_1_15_">
</g>
<g id="Layer_1_16_">
</g>
<g id="Layer_1_17_">
</g>
<g id="Layer_1_18_">
</g>
<g id="Layer_1_19_">
</g>
<g id="Layer_1_20_">
</g>
<g id="Layer_2_1_">
</g>
<g id="Layer_1_21_">
</g>
<g id="Layer_1_22_">
</g>
<g id="Layer_1_23_">
</g>
<g id="Layer_1_24_">
</g>
<g id="Layer_1_25_">
</g>
<g id="Layer_1_26_">
</g>
<g>
	<g>
		<path class="st0" d="M37.4,75.3c0.2,3.7,0.4,7.4,0.4,11.1c0.2,6.6,0.2,13.3-0.1,19.9c0,0.4,0.6,0.4,0.6,0
			c0.4-10.3,0.2-20.6-0.3-30.8C37.8,75.5,37.6,75.4,37.4,75.3z"/>
	</g>
	<g>
		<path class="st0" d="M46.3,41.3c-3.6,3.3-6.1,7.3-7.6,12c-1.4,4.6-1.7,9.5-1.6,14.3c0,1.7,0.1,3.3,0.2,5c0.1,0,0.2-0.1,0.4-0.1
			c0.1,0,0.2,0,0.3,0c-0.1-1.1-0.1-2.3-0.2-3.4c-0.2-4.9-0.1-9.9,1.2-14.7c1.3-4.9,4-9.3,7.7-12.8C47,41.5,46.6,41,46.3,41.3z"/>
	</g>
</g>
<g>
	<g>
		<path class="st0" d="M73.9,35.5c-5.8-0.5-11.6,0.5-17.3,1.2c-0.4,0.1-0.2,0.7,0.2,0.6c5.7-0.8,11.4-1.7,17.1-1.2
			C74.3,36.2,74.3,35.6,73.9,35.5L73.9,35.5z"/>
	</g>
</g>
<g>
	<g>
		<path class="st0" d="M91.7,46c-1.4-2.6-3.4-4.6-5.8-6.3c-0.3-0.2-0.7,0.3-0.3,0.6c2.3,1.6,4.2,3.6,5.6,6.1
			C91.3,46.7,91.8,46.4,91.7,46L91.7,46z"/>
	</g>
</g>
<g>
	<g>
		<path class="st0" d="M50.3,127.7c4.9,3.1,11.2,3,16.9,2.6c2.9-0.2,5.8-0.7,8.6-1.2c3-0.5,6.4-0.8,9-2.4c0.4-0.2,0-0.8-0.3-0.6
			c-2.6,1.6-5.9,1.9-8.9,2.4c-2.8,0.5-5.6,0.9-8.5,1.1c-5.5,0.5-11.7,0.5-16.5-2.5C50.3,127,50,127.5,50.3,127.7L50.3,127.7z"/>
	</g>
</g>
<g>
	<g>
		<path class="st0" d="M57,37.4c0.4,0,0.4-0.6,0-0.6C56.6,36.7,56.6,37.4,57,37.4L57,37.4z"/>
	</g>
</g>
<g>
	<g>
		<path class="st0" d="M38.6,53.7c-3.7-0.9-6-4-4.6-7.7c0.6-1.6,2-2.9,3.6-3.6c2-0.9,5.5-1.2,7.1,0.5c0.3,0.3,0.7-0.2,0.5-0.5
			c-1.7-1.7-4.9-1.5-7.1-0.9c-1.9,0.6-3.5,2-4.4,3.8c-0.8,1.6-0.9,3.5-0.2,5.2c0.9,2.1,2.9,3.3,5.1,3.8C38.9,54.4,39,53.8,38.6,53.7
			L38.6,53.7z"/>
	</g>
</g>
<g>
	<g>
		<path class="st0" d="M87.6,41.5c3.1-1.6,8-2.4,10.3,0.9c2.3,3.4,0.9,9-3.5,9.7c-0.4,0.1-0.2,0.7,0.2,0.6c4.7-0.8,6-6.3,4.2-10.1
			c-2.1-4.3-7.9-3.5-11.5-1.7C86.9,41.1,87.2,41.6,87.6,41.5L87.6,41.5z"/>
	</g>
</g>
<g>
	<g>
		<path class="st0" d="M62.8,58.6c0.1,0,0.2,0,0.3-0.1c0-0.1-0.1-0.2-0.1-0.3c-0.3,0.2-0.7,0.2-1.1,0.4c-0.6,0.4-1.1,0.8-1.7,1.3
			c-0.7,0.7-1.7,1.8-1.4,2.9c0.3,1.2,1.7,1.9,2.8,2c2,0.1,3.8-0.9,5.7-1c2.3-0.1,5.9,2.5,6.7-1.2c0.5-2.6-3.1-4.1-4.9-4.8
			c-0.2-0.1-0.3,0.2-0.1,0.3c1.9,0.7,5.2,2.1,4.6,4.7c-0.6,2.9-4.5,0.7-6.3,0.7c-2.6-0.1-6.2,2.6-8.1-0.4c-0.8-1.2,0.8-2.7,1.6-3.4
			c0.3-0.3,1-0.9,1.4-1c0.3,0,0.5-0.1,0.8-0.2c0.1-0.1,0.1-0.3-0.1-0.3c-0.1,0-0.2,0-0.4,0.1C62.5,58.3,62.6,58.6,62.8,58.6
			L62.8,58.6z"/>
	</g>
</g>
<g>
	<g>
		<path class="st0" d="M70,64.3c0.4,1,0.5,2.1,0.5,3.2c0,0.7-0.2,1.4-0.6,1.9c-0.9,1-3.1,0.4-2.8-1.1c0-0.2-0.3-0.3-0.3-0.1
			c-0.3,1.9,2.1,2.4,3.3,1.4c1.3-1.1,0.8-4.1,0.3-5.4C70.2,64.1,69.9,64.2,70,64.3L70,64.3z"/>
	</g>
</g>
<g>
	<g>
		<path class="st0" d="M44.7,124.2c2.7-1.3,4.1,2,5.9,3.3c0-0.1,0-0.2,0-0.3c-1.5,0.2-2.7,1.2-3.8,2.1c-1.3,1-3,2.4-4.7,1.7
			c-2.2-1-1.7-3.2-0.3-4.5c1.1-1.1,2.4-1.9,3.8-2.6c0.2-0.1,0-0.4-0.2-0.3c-1.9,1-7.1,4-4.7,6.7c3.3,3.7,6.7-2.3,10-2.8
			c0.2,0,0.1-0.2,0-0.3c-2-1.4-3.3-4.7-6.2-3.3C44.4,124,44.5,124.3,44.7,124.2L44.7,124.2z"/>
	</g>
</g>
<g>
	<g>
		<path class="st0" d="M41.7,130.6c-0.5-1.6,0.7-2.8,2-3.5c0.2-0.1,0-0.4-0.2-0.3c-1.4,0.8-2.6,2.1-2.1,3.8
			C41.4,130.8,41.7,130.8,41.7,130.6L41.7,130.6z"/>
	</g>
</g>
<g>
	<g>
		<path class="st0" d="M89.1,123.4c1.8,0.1,3.2,1.4,4,3c0.6,1.2,1,3.2-0.1,4.3c-0.6,0.6-1.7,0.5-2.5,0.3c-1.4-0.3-2.4-1.5-3.4-2.5
			c-0.3-0.3-2.4-2.1-2.2-2.5C85.7,124.6,87.6,123.4,89.1,123.4c0.2,0,0.2-0.3,0-0.3c-1.7,0.1-3,1.1-4.1,2.2
			c-1.1,1.1-0.2,1.4,0.7,2.1c1.8,1.6,4,5.1,6.9,3.8c1.7-0.8,1.5-2.9,1-4.4c-0.7-2-2.4-3.6-4.5-3.8C88.9,123.1,88.9,123.4,89.1,123.4
			z"/>
	</g>
</g>
<g>
	<g>
		<path class="st0" d="M90.6,127.1c1,1,1.8,2.4,1.8,3.9c0,0.2,0.3,0.2,0.3,0c-0.1-1.6-0.9-3-1.9-4.1C90.7,126.8,90.4,127,90.6,127.1
			L90.6,127.1z"/>
	</g>
</g>
<g>
	<g>
		<path class="st0" d="M96.4,82.2c1.5-0.1,3,0.3,4.3,1.1c1.3,0.9,2.3,2.9,1.5,4.3c-1.1,2-4.8-0.5-5.7-1.6c-0.1-0.2-0.4,0.1-0.2,0.2
			c1.1,1.4,4.9,3.7,6.2,1.4c0.7-1.3-0.1-3.1-1-4c-1.3-1.4-3.4-1.8-5.1-1.7C96.2,81.9,96.2,82.2,96.4,82.2L96.4,82.2z"/>
	</g>
</g>
<g>
	<g>
		<path class="st0" d="M99.6,86c1,0.3,2.2,1.2,1.6,2.3c-0.1,0.2,0.2,0.3,0.3,0.2c0.7-1.4-0.6-2.4-1.8-2.8C99.5,85.7,99.4,86,99.6,86
			L99.6,86z"/>
	</g>
</g>
<g>
	<path class="st0" d="M77.7,58.4c-5,0-9.1-4.1-9.1-9.1s4.1-9.1,9.1-9.1c5,0,9.1,4.1,9.1,9.1S82.7,58.4,77.7,58.4z M77.7,40.5
		c-4.8,0-8.8,3.9-8.8,8.8s3.9,8.8,8.8,8.8c4.8,0,8.8-3.9,8.8-8.8S82.5,40.5,77.7,40.5z"/>
</g>
<g>
	<path class="st0" d="M55,59.4c-5.1,0-9.2-4.1-9.2-9.1s4.1-9.1,9.2-9.1s9.2,4.1,9.2,9.1S60.1,59.4,55,59.4z M55,41.4
		c-4.9,0-8.8,3.9-8.8,8.8S50.2,59,55,59s8.8-3.9,8.8-8.8S59.9,41.4,55,41.4z"/>
</g>
<g>
	<circle class="st0" cx="92.9" cy="45.7" r="1.9"/>
</g>
<g>
	<circle class="st0" cx="39.8" cy="47.4" r="1.9"/>
</g>
<g>
	<path class="st0" d="M70.4,57.6c0-1.2-1.8-2.2-4-2.2c-2.2,0-4,1-4,2.2c0,1.2,1.8,2.2,4,2.2S70.4,58.8,70.4,57.6z"/>
</g>
<g>
	<path class="st0" d="M74.7,49c0,1.6,1.3,2.9,2.9,2.9c1.6,0,2.9-1.3,2.9-2.9c0-1.6-1.3-2.9-2.9-2.9C76,46,74.7,47.4,74.7,49z
		 M79.5,47.8c0,0.5-0.4,0.8-0.8,0.8s-0.8-0.4-0.8-0.8s0.4-0.8,0.8-0.8C79.1,47,79.5,47.3,79.5,47.8z"/>
</g>
<g>
	<path class="st0" d="M51.6,50.4c0,1.6,1.3,2.9,2.9,2.9c1.6,0,2.9-1.3,2.9-2.9c0-1.6-1.3-2.9-2.9-2.9C52.9,47.5,51.6,48.8,51.6,50.4
		z M56.4,49.3c0,0.5-0.4,0.8-0.8,0.8s-0.8-0.4-0.8-0.8s0.4-0.8,0.8-0.8C56,48.4,56.4,48.8,56.4,49.3z"/>
</g>
<g>
	<g>
		<path class="st0" d="M66.6,63.8c0,1.8,0.5,4-0.5,5.6C65.7,70,65,70,64.3,69.9c-0.8-0.2-1.1-1-1.3-1.7c-0.3-1.2-0.1-2.6,0.2-3.7
			c0.1-0.2-0.3-0.3-0.3-0.1c-0.6,2-0.7,6.4,2.5,5.8c2.3-0.5,1.5-4.9,1.5-6.5C66.9,63.6,66.6,63.6,66.6,63.8L66.6,63.8z"/>
	</g>
</g>
<g>
	<g>
		<path class="st0" d="M38.5,82.9c-2-0.4-4.2,0.6-5.7,2c-1.1,1-1.6,2.4-0.1,3.3c0.2,0.1,0.3-0.2,0.2-0.3c-1.8-1,0-2.7,1.1-3.5
			c1.3-0.9,2.9-1.5,4.5-1.2C38.6,83.3,38.7,82.9,38.5,82.9L38.5,82.9z"/>
	</g>
</g>
<g>
	<g>
		<path class="st0" d="M34.2,86.7c-0.6,0.3-1.4,0.8-1.4,1.5c0,0.7,0.6,1.1,1.2,1.2c0.8,0.1,1.6-0.4,2.2-0.8c0.7-0.4,1.4-0.9,1.9-1.5
			c0.1-0.2-0.1-0.4-0.2-0.2c-0.7,0.8-1.7,1.5-2.7,1.9c-0.7,0.3-1.3,0.4-1.9-0.1c-0.8-0.6,0.6-1.6,1-1.8
			C34.6,86.8,34.4,86.6,34.2,86.7L34.2,86.7z"/>
	</g>
</g>
<g>
	<g>
		<path class="st0" d="M95.4,67.1c0.2-0.2,0.4-0.3,0.6-0.3c0-7.6-0.4-15.4-4.8-21.9c-0.2-0.3-0.8,0-0.6,0.3
			C95.1,51.8,95.4,59.5,95.4,67.1z"/>
	</g>
	<g>
		<path class="st0" d="M96,72.4c-0.2,0.1-0.4,0.1-0.5,0.1h-0.1c0,0.1,0,0.1,0,0.1C95.3,84.1,97,95.5,96.2,107c0,0.4,0.6,0.4,0.6,0
			C97.6,95.5,95.9,84,96,72.4z"/>
	</g>
</g>
<g>
	<g>
		<path class="st0" d="M64.5,29.1c-1.3,0-2.6-0.5-3.5-1.4c-2-2-2-5.1,0-7.1c1-1,2.2-1.5,3.6-1.5c0,0,0,0,0,0c1.3,0,2.6,0.5,3.5,1.5
			c1.9,2,1.9,5.1,0,7.1l0,0C67,28.6,65.8,29.1,64.5,29.1z M64.5,19.5c-1.2,0-2.4,0.5-3.3,1.4c-1.8,1.8-1.8,4.7,0,6.5
			c1.8,1.8,4.7,1.8,6.5,0c1.8-1.8,1.8-4.7,0-6.5C66.9,20,65.7,19.5,64.5,19.5C64.5,19.5,64.5,19.5,64.5,19.5z"/>
	</g>
	<g>
		<g>
			<path class="st0" d="M59.2,25c0.1,0.1,0.2,0.1,0.2,0.2c0.1-0.1,0.1-0.2,0.2-0.3c-0.4-0.1-0.7-0.4-1.2-0.5c-0.7-0.2-1.3-0.2-2-0.2
				c-1,0-2.3,0.1-2.9,1c-0.6,1-0.3,2.4,0.5,3.3c1.1,1.4,2.9,2,4.3,3c2,1.4,2.5,5.8,5.7,4.7c3-1,1.3-5.4,0.5-7.2
				c-0.1-0.2-0.4,0-0.3,0.2c0.9,2,2.5,6.9-1.3,7c-1.2,0-1.9-1.5-2.4-2.4c-0.5-0.9-1-1.7-1.8-2.3c-1-0.8-2.1-1.3-3.2-1.9
				c-1.2-0.8-2.8-2.9-1.6-4.3c0.7-0.8,2.1-0.8,3.1-0.7c0.6,0,1.1,0.1,1.6,0.3c0.4,0.1,0.6,0.4,1,0.5c0.2,0.1,0.3-0.2,0.2-0.3
				c-0.1-0.1-0.2-0.1-0.3-0.2C59.2,24.6,59.1,24.9,59.2,25L59.2,25z"/>
		</g>
	</g>
	<g>
		<g>
			<path class="st0" d="M64.8,29.5c0.1-0.1,0.1-0.2,0.2-0.2c-0.1-0.1-0.2-0.1-0.3-0.2c-0.2,0.4-0.5,0.7-0.6,1.1
				c-0.2,0.6-0.3,1.3-0.4,1.9c-0.1,1.1-0.1,2.3,0.8,3.1c0.9,0.8,2.4,0.3,3.3-0.2c1.5-0.8,2.3-2.7,3.4-4c1.6-1.9,6-2,5.2-5.3
				c-0.8-3-5.3-1.8-7.1-1.1c-0.2,0.1-0.1,0.4,0.1,0.3c2.1-0.8,6.7-1.9,6.9,1.6c0.1,1.4-1.6,2-2.7,2.4c-1,0.4-1.8,0.9-2.6,1.8
				c-0.9,1-1.5,2.2-2.4,3.2c-0.9,1-3.2,2-4.2,0.6c-0.6-0.9-0.4-2.4-0.2-3.4c0.2-0.8,0.6-1.3,0.9-2c0.1-0.2-0.2-0.3-0.3-0.2
				c-0.1,0.1-0.2,0.2-0.2,0.2C64.5,29.4,64.7,29.7,64.8,29.5L64.8,29.5z"/>
		</g>
	</g>
	<g>
		<g>
			<path class="st0" d="M69.5,23.3c-0.1-0.1-0.2-0.1-0.2-0.2c-0.1,0.1-0.1,0.2-0.2,0.3c0.4,0.1,0.7,0.4,1.2,0.5
				c0.7,0.2,1.3,0.2,2,0.2c1,0,2.3-0.1,2.9-1c0.6-1,0.3-2.4-0.5-3.3c-1.1-1.4-2.9-2-4.3-3c-2-1.4-2.5-5.8-5.7-4.7
				c-3,1-1.3,5.4-0.5,7.2c0.1,0.2,0.4,0,0.3-0.2c-0.9-2-2.5-6.9,1.3-7c1.2,0,1.9,1.5,2.4,2.4c0.5,0.9,1,1.7,1.8,2.3
				c1,0.8,2.1,1.3,3.2,1.9c1.2,0.8,2.8,2.9,1.6,4.3c-0.7,0.8-2.1,0.8-3.1,0.7c-0.6,0-1.1-0.1-1.6-0.3c-0.4-0.1-0.6-0.4-1-0.5
				c-0.2-0.1-0.3,0.2-0.2,0.3c0.1,0.1,0.2,0.1,0.3,0.2C69.5,23.6,69.6,23.4,69.5,23.3L69.5,23.3z"/>
		</g>
	</g>
	<g>
		<g>
			<path class="st0" d="M63.7,19.1c-0.1,0.1-0.1,0.2-0.2,0.2c0.1,0.1,0.2,0.1,0.3,0.2c0.1-0.4,0.4-0.7,0.5-1.2
				c0.2-0.7,0.2-1.3,0.2-2c0-1-0.1-2.3-1-2.9c-1-0.6-2.4-0.3-3.3,0.5c-1.4,1.1-2,2.9-3,4.3c-1.4,2-5.8,2.5-4.7,5.7
				c1,3,5.4,1.3,7.2,0.5c0.2-0.1,0-0.4-0.2-0.3c-2,0.9-6.9,2.5-7-1.3c0-1.2,1.5-1.9,2.4-2.4c0.9-0.5,1.7-1,2.3-1.8
				c0.8-1,1.3-2.1,1.9-3.2c0.8-1.2,2.9-2.8,4.3-1.6c0.8,0.7,0.8,2.1,0.7,3.1c0,0.6-0.1,1.1-0.3,1.6c-0.1,0.4-0.4,0.6-0.5,1
				c-0.1,0.2,0.2,0.3,0.3,0.2c0.1-0.1,0.1-0.2,0.2-0.3C64.1,19.1,63.8,18.9,63.7,19.1L63.7,19.1z"/>
		</g>
	</g>
	<g>
		<path class="st0" d="M66.2,27.3C66.2,27.3,66.2,27.3,66.2,27.3c-0.9,0-1.7-0.3-2.2-0.9c-0.6-0.6-0.9-1.4-0.9-2.2
			c0-0.9,0.3-1.7,0.9-2.3c1.2-1.2,3.3-1.2,4.5,0c0.6,0.6,0.9,1.4,0.9,2.3c0,0.8-0.3,1.6-0.9,2.2C67.9,27,67.1,27.3,66.2,27.3z
			 M66.2,21.3c-0.7,0-1.4,0.3-2,0.8c-0.5,0.5-0.8,1.3-0.8,2c0,0.7,0.3,1.4,0.8,2c0.5,0.5,1.2,0.8,2,0.8c0,0,0,0,0,0
			c0.7,0,1.5-0.3,2-0.8l0,0c0.5-0.5,0.8-1.2,0.8-2c0-0.8-0.3-1.5-0.8-2C67.7,21.6,67,21.3,66.2,21.3z"/>
	</g>
	<g>
		<circle class="st0" cx="67.3" cy="24.1" r="1.9"/>
	</g>
	<g>
		<g>
			<path class="st0" d="M60.9,27.7c-0.6,0.5-1.1,1-1.6,1.6c-0.1,0.2,0.2,0.3,0.3,0.2c0.4-0.6,1-1.1,1.5-1.5
				C61.3,27.8,61.1,27.5,60.9,27.7L60.9,27.7z"/>
		</g>
	</g>
	<g>
		<g>
			<path class="st0" d="M61.2,20.3c-0.6-0.6-1.4-0.7-2.2-0.9c-0.2-0.1-0.3,0.3-0.1,0.3c0.7,0.2,1.5,0.3,2.1,0.8
				C61.1,20.7,61.4,20.5,61.2,20.3L61.2,20.3z"/>
		</g>
	</g>
	<g>
		<g>
			<path class="st0" d="M68,20.3c0.1-0.5,0.3-0.9,0.5-1.3c0.1-0.2-0.2-0.3-0.3-0.2c-0.2,0.4-0.5,0.9-0.5,1.3
				C67.6,20.4,67.9,20.5,68,20.3L68,20.3z"/>
		</g>
	</g>
	<g>
		<g>
			<path class="st0" d="M68.2,20.8c0.4-0.3,0.8-0.5,1.2-0.7c0.2-0.1,0-0.4-0.2-0.3c-0.4,0.2-0.9,0.4-1.2,0.7
				C67.9,20.6,68.1,20.9,68.2,20.8L68.2,20.8z"/>
		</g>
	</g>
	<g>
		<g>
			<path class="st0" d="M68.2,27.7c0.5,0.2,0.9,0.6,1.3,1c0.1,0.2,0.4-0.1,0.2-0.2c-0.4-0.5-0.8-0.9-1.4-1.1
				C68.1,27.3,68,27.6,68.2,27.7L68.2,27.7z"/>
		</g>
	</g>
	<g>
		<g>
			<path class="st0" d="M67.5,28.2c0.1,0.4,0.1,0.8,0.2,1.2c0,0.2,0.3,0.1,0.3-0.1c-0.1-0.4-0.1-0.8-0.2-1.2
				C67.8,27.9,67.5,28,67.5,28.2L67.5,28.2z"/>
		</g>
	</g>
	<g>
		<g>
			<path class="st0" d="M61.5,28.3c-0.2,0.2-0.3,0.5-0.5,0.7c-0.1,0.2,0.2,0.4,0.3,0.2c0.1-0.3,0.3-0.5,0.5-0.7
				C61.9,28.3,61.6,28.1,61.5,28.3L61.5,28.3z"/>
		</g>
	</g>
	<g>
		<g>
			<path class="st0" d="M61.7,19.8c-0.1-0.3-0.2-0.5-0.4-0.8c-0.1-0.2-0.4,0-0.3,0.2c0.2,0.2,0.3,0.4,0.3,0.7
				C61.4,20.1,61.8,20,61.7,19.8L61.7,19.8z"/>
		</g>
	</g>
</g>
<g>
	<g>
		<path class="st0" d="M48.1,36.5c-1.6,0-3.2-0.9-3.9-2.5c-0.4-1-0.5-2.1-0.1-3c0.4-1,1.2-1.7,2.2-2.1c2.1-0.8,4.5,0.2,5.4,2.2
			c0.4,1,0.5,2.1,0.1,3c-0.4,1-1.2,1.7-2.2,2.1C49.1,36.4,48.6,36.5,48.1,36.5z M47.8,29c-0.5,0-0.9,0.1-1.4,0.3
			c-0.9,0.3-1.6,1-1.9,1.9c-0.4,0.9-0.3,1.8,0.1,2.7c0.8,1.8,3,2.7,4.9,2l0,0c0.9-0.3,1.6-1,1.9-1.9c0.4-0.9,0.3-1.8-0.1-2.7
			C50.7,29.9,49.3,29,47.8,29z"/>
	</g>
	<g>
		<g>
			<path class="st0" d="M43.7,31.6c0.1,0.1,0.1,0.1,0.1,0.2c0.1-0.1,0.2-0.1,0.3-0.2c-1.1-1.1-3-2.5-4.7-1.7
				c-0.9,0.4-0.8,1.7-0.7,2.5c0.3,1.5,1.8,2.6,2.5,3.8c1,1.7,0.1,5.1,3,4.9c2.3-0.2,2.3-3.4,2.2-5c0-0.2-0.3-0.2-0.3,0
				c0.1,1.7,0.1,4.6-2.2,4.7c-2.2,0.2-1.7-3.2-2.3-4.4c-0.4-0.8-1-1.5-1.6-2.1c-0.8-1-1.9-3-0.5-4c1.3-0.9,3.4,0.8,4.3,1.7
				c0.1,0.1,0.3,0,0.3-0.2c0-0.1-0.1-0.1-0.2-0.3C43.9,31.3,43.6,31.4,43.7,31.6L43.7,31.6z"/>
		</g>
	</g>
	<g>
		<g>
			<path class="st0" d="M46.7,36.5c0-0.1,0-0.2-0.1-0.3c-0.1,0.1-0.2,0.2-0.4,0.2c-0.2,0.1-0.3,0.3-0.5,0.4
				c-0.3,0.4-0.6,0.8-0.9,1.3c-0.4,0.8-0.7,1.7-0.2,2.4c0.4,0.8,1.7,1,2.5,0.8c1.7-0.3,2.9-1.7,4.6-2.1c1.4-0.4,5,0.5,4.6-2.2
				c-0.4-2.2-3.3-2.6-5.1-2.7c-0.2,0-0.2,0.3,0,0.3c1.6,0.1,4.2,0.4,4.8,2.2c0.7,2.5-3.1,1.8-4.4,2.1c-2.2,0.5-3.8,3-6.3,1.8
				c-1.9-0.9,0.5-3.7,1.4-4.4c0.1-0.1,0.1-0.2,0-0.3c-0.1-0.1-0.3,0-0.4,0.1C46.3,36.4,46.5,36.6,46.7,36.5L46.7,36.5z"/>
		</g>
	</g>
	<g>
		<g>
			<path class="st0" d="M52,33.5c-0.1-0.1-0.1-0.1-0.1-0.2c-0.1,0.1-0.2,0.1-0.3,0.2c1.1,1.1,3,2.5,4.7,1.7c0.9-0.4,0.8-1.7,0.7-2.5
				c-0.3-1.5-1.8-2.6-2.5-3.8c-1-1.7-0.1-5.1-3-4.9c-2.3,0.2-2.3,3.4-2.2,5c0,0.2,0.3,0.2,0.3,0c-0.1-1.7-0.1-4.6,2.2-4.7
				c2.2-0.2,1.7,3.2,2.3,4.4c0.4,0.8,1,1.5,1.6,2.1c0.8,1,1.9,3,0.5,4c-1.3,0.9-3.4-0.8-4.3-1.7c-0.1-0.1-0.3,0-0.3,0.2
				c0.1,0.1,0.1,0.1,0.2,0.3C51.8,33.8,52.1,33.7,52,33.5L52,33.5z"/>
		</g>
	</g>
	<g>
		<g>
			<path class="st0" d="M48.8,28.7c0.1,0.1,0.2,0.1,0.2,0.2c0.1-0.1,0.2-0.1,0.3-0.2c0.1-0.1,0.2-0.3,0.3-0.4
				c0.3-0.4,0.5-0.8,0.7-1.3c0.3-0.8,0.6-1.8,0-2.5c-0.5-0.7-1.7-0.8-2.5-0.6c-1.5,0.4-2.5,1.6-3.9,2.3c-1.6,0.9-5.3-0.1-4.9,2.8
				c0.3,2.2,3.6,2.3,5.3,2.3c0.2,0,0.2-0.3,0-0.3c-1.7,0-4.7-0.1-5-2.3c-0.3-2.1,3.3-1.5,4.5-2.1c0.9-0.4,1.6-1,2.4-1.6
				c1-0.7,3-1.4,3.9-0.2c0.9,1.2-0.7,3.3-1.6,4c-0.1,0.1-0.1,0.2,0,0.3c0.2,0.1,0.2,0,0.4-0.1C49.2,28.9,49,28.6,48.8,28.7
				L48.8,28.7z"/>
		</g>
	</g>
	<g>
		<path class="st0" d="M49.4,35.6c-1,0-2.1-0.6-2.5-1.6c-0.3-0.6-0.3-1.3-0.1-1.9c0.3-0.6,0.7-1.1,1.4-1.4c1.3-0.5,2.9,0.1,3.4,1.4
			c0.3,0.6,0.3,1.3,0.1,1.9c-0.3,0.6-0.7,1.1-1.4,1.4l0,0C50,35.6,49.7,35.6,49.4,35.6z M49.2,31c-0.3,0-0.6,0-0.8,0.2
			c-0.6,0.2-1,0.6-1.2,1.1c-0.2,0.5-0.2,1.1,0.1,1.6c0.5,1.1,1.8,1.6,3,1.2c0.6-0.2,1-0.6,1.2-1.1c0.2-0.5,0.2-1.1-0.1-1.6
			C50.9,31.5,50.1,31,49.2,31z"/>
	</g>
	<g>
		
			<ellipse transform="matrix(0.3801 -0.925 0.925 0.3801 9.725470e-02 67.0484)" class="st0" cx="50.1" cy="33.5" rx="1.5" ry="1.5"/>
	</g>
	<g>
		<g>
			<path class="st0" d="M44.3,34c-0.6,0.2-1.2,0.4-1.7,0.7c-0.2,0.1,0,0.4,0.2,0.3c0.5-0.3,1.1-0.5,1.6-0.6
				C44.5,34.2,44.5,33.9,44.3,34L44.3,34z"/>
		</g>
	</g>
	<g>
		<g>
			<path class="st0" d="M46.6,28.8c-0.3-0.6-0.9-1-1.4-1.3c-0.2-0.1-0.3,0.2-0.2,0.3c0.5,0.3,1.1,0.6,1.3,1.2
				C46.5,29.2,46.7,29,46.6,28.8L46.6,28.8z"/>
		</g>
	</g>
	<g>
		<g>
			<path class="st0" d="M51.7,30.9c0.2-0.3,0.4-0.5,0.7-0.7c0.2-0.1,0-0.4-0.2-0.3c-0.3,0.2-0.6,0.5-0.8,0.8
				C51.4,30.9,51.6,31.1,51.7,30.9L51.7,30.9z"/>
		</g>
	</g>
	<g>
		<g>
			<path class="st0" d="M51.8,31.4c0.4-0.1,0.7-0.1,1.1-0.1c0.2,0,0.2-0.3,0-0.3c-0.4,0-0.8,0-1.2,0.1
				C51.5,31.1,51.6,31.4,51.8,31.4L51.8,31.4z"/>
		</g>
	</g>
	<g>
		<g>
			<path class="st0" d="M49.7,36.3c0.4,0.3,0.5,0.7,0.7,1.1c0.1,0.2,0.4,0.1,0.3-0.1c-0.2-0.5-0.4-0.9-0.8-1.3
				C49.8,35.9,49.5,36.2,49.7,36.3L49.7,36.3z"/>
		</g>
	</g>
	<g>
		<g>
			<path class="st0" d="M49,36.4c-0.1,0.3-0.2,0.6-0.2,0.9c-0.1,0.2,0.3,0.3,0.3,0.1c0.1-0.3,0.2-0.6,0.2-0.9
				C49.4,36.3,49,36.2,49,36.4L49,36.4z"/>
		</g>
	</g>
	<g>
		<g>
			<path class="st0" d="M44.5,34.6c-0.2,0.1-0.4,0.3-0.6,0.4c-0.2,0.1,0.1,0.4,0.2,0.2c0.2-0.1,0.3-0.3,0.5-0.4
				C44.8,34.7,44.7,34.5,44.5,34.6L44.5,34.6z"/>
		</g>
	</g>
	<g>
		<g>
			<path class="st0" d="M47.2,28.7c0.1-0.3,0-0.5-0.1-0.7c-0.1-0.2-0.4-0.1-0.3,0.1c0.1,0.2,0.1,0.4,0.1,0.5
				C46.8,28.8,47.1,28.9,47.2,28.7L47.2,28.7z"/>
		</g>
	</g>
</g>
<g>
	<g>
		<path class="st0" d="M82.4,35.6c-0.6,0-1.3-0.1-1.9-0.4c-1-0.5-1.6-1.3-1.9-2.3c-0.3-1-0.2-2.1,0.4-3c1.1-1.9,3.6-2.6,5.6-1.6
			c0.9,0.5,1.6,1.3,1.9,2.3c0.3,1,0.2,2.1-0.4,3C85.3,34.9,83.8,35.6,82.4,35.6z M82.6,28.2c-1.3,0-2.7,0.7-3.4,1.9
			c-0.5,0.8-0.6,1.8-0.3,2.7c0.3,0.9,0.9,1.6,1.7,2.1c1.8,0.9,4.1,0.2,5.1-1.5l0,0c0.5-0.8,0.6-1.8,0.3-2.7
			c-0.3-0.9-0.9-1.6-1.7-2.1C83.8,28.3,83.2,28.2,82.6,28.2z"/>
	</g>
	<g>
		<g>
			<path class="st0" d="M78.6,33.6c0.1,0,0.1,0.1,0.2,0.1c0-0.1,0.1-0.2,0.1-0.3c-1.4-0.1-4-0.1-4.7,1.5c-1,2.5,2.9,3.3,4.4,3.6
				s2.3,1.3,3.5,2.2c0.7,0.6,1.5,0.7,2.3,0.3c2.5-1.2,0.2-4.4-0.9-5.7c-0.1-0.2-0.4,0.1-0.2,0.2c0.6,0.7,1.1,1.4,1.6,2.2
				c0.7,1.3,0.3,3.6-1.7,3.2c-0.8-0.2-1.5-1-2-1.6c-0.5-0.5-1.1-0.8-1.8-1c-0.8-0.3-1.7-0.4-2.6-0.6c-1.1-0.3-3.2-1.7-2-3
				c0.9-1.1,2.9-1.1,4.2-1c0.2,0,0.2-0.2,0.1-0.3c-0.1-0.1-0.2-0.1-0.3-0.1C78.4,33.2,78.4,33.5,78.6,33.6L78.6,33.6z"/>
		</g>
	</g>
	<g>
		<g>
			<path class="st0" d="M84,35.6c-0.1-0.1-0.2-0.1-0.2-0.2c-0.1,0.2-0.1,0.3-0.2,0.5c-0.1,0.2,0,0.4-0.1,0.5c0,0.5,0.1,1,0.2,1.5
				c0.1,0.7,0.5,1.7,1.2,1.9c2.5,1,3.6-2.5,4.2-4.1c0.6-1.5,1.7-2.1,2.8-3.2c0.6-0.6,0.9-1.4,0.5-2.1c-1.4-2.3-4.4-0.6-6,0.6
				c-0.2,0.1,0,0.4,0.2,0.3c1.3-0.9,5.5-3.3,5.8,0c0.1,0.9-1.2,1.7-1.8,2.2c-0.6,0.5-1,1-1.4,1.7c-0.8,1.6-1.3,5.1-3.9,4.6
				c-1.6-0.3-1.4-3.2-1-4.3c0-0.1-0.1-0.2-0.2-0.2c-0.1,0-0.2,0.2-0.2,0.3C83.6,35.6,83.9,35.8,84,35.6L84,35.6z"/>
		</g>
	</g>
	<g>
		<g>
			<path class="st0" d="M86.2,29.9c-0.1,0-0.1-0.1-0.2-0.1c0,0.1-0.1,0.2-0.1,0.3c1.4,0.1,4,0.1,4.7-1.5c1-2.5-2.9-3.3-4.4-3.6
				c-1.5-0.3-2.3-1.3-3.5-2.2c-0.7-0.6-1.5-0.7-2.3-0.3c-2.5,1.2-0.2,4.4,0.9,5.7c0.1,0.2,0.4-0.1,0.2-0.2c-0.6-0.7-1.1-1.4-1.6-2.2
				c-0.7-1.3-0.3-3.6,1.7-3.2c0.8,0.2,1.5,1,2,1.6c0.5,0.5,1.1,0.8,1.8,1c0.8,0.3,1.7,0.4,2.6,0.6c1.1,0.3,3.2,1.7,2,3
				c-0.9,1.1-2.9,1.1-4.2,1c-0.2,0-0.2,0.2-0.1,0.3c0.1,0.1,0.2,0.1,0.3,0.1C86.3,30.2,86.4,29.9,86.2,29.9L86.2,29.9z"/>
		</g>
	</g>
	<g>
		<g>
			<path class="st0" d="M80.7,28.2c0.1,0.1,0.2,0.1,0.2,0.2c0-0.1,0.1-0.3,0.1-0.4c0.1-0.2,0.1-0.1,0.1-0.4c0-0.5-0.1-1-0.2-1.6
				c-0.2-0.7-0.6-1.7-1.3-2c-2.7-0.9-3.5,3-4,4.6c-0.4,1.4-1.6,2.2-2.5,3.3c-0.6,0.8-0.6,1.6,0,2.3c1.4,2,4.5-0.3,5.8-1.3
				c0.2-0.1-0.1-0.4-0.2-0.2c-0.7,0.6-1.4,1.1-2.2,1.5c-1.2,0.6-3.3,0.8-3.5-1.1c-0.1-0.9,1-1.7,1.6-2.2c0.5-0.5,1-1,1.2-1.6
				c0.8-1.9,0.7-4.4,3-5.1c2-0.6,2.2,3,2,4.1c0,0.1,0.1,0.2,0.2,0.2c0.2-0.1,0.2-0.2,0.2-0.3C81.1,28.1,80.8,28,80.7,28.2L80.7,28.2
				z"/>
		</g>
	</g>
	<g>
		<path class="st0" d="M83.8,33.8c-0.4,0-0.8-0.1-1.2-0.3c-0.6-0.3-1.1-0.8-1.2-1.4c-0.2-0.6-0.1-1.3,0.2-1.9
			c0.7-1.2,2.3-1.7,3.6-1.1c0.6,0.3,1.1,0.8,1.2,1.4c0.2,0.6,0.1,1.3-0.2,1.9C85.6,33.3,84.7,33.8,83.8,33.8z M83.9,29.2
			c-0.8,0-1.6,0.4-2,1.2c-0.3,0.5-0.4,1.1-0.2,1.6c0.2,0.5,0.5,1,1.1,1.2c1.1,0.6,2.5,0.2,3.1-0.9l0,0c0.3-0.5,0.4-1.1,0.2-1.6
			c-0.2-0.5-0.5-1-1.1-1.2C84.6,29.2,84.3,29.2,83.9,29.2z"/>
	</g>
	<g>
		<path class="st0" d="M86.2,30.6c-0.2-0.8-1.1-1.2-1.9-1c-0.8,0.3-1.3,1.1-1.1,1.8c0.2,0.8,1.1,1.2,1.9,1
			C85.9,32.2,86.4,31.4,86.2,30.6z"/>
	</g>
	<g>
		<g>
			<path class="st0" d="M80.5,35.1c-0.3,0.5-0.7,1-0.9,1.6c-0.1,0.2,0.2,0.3,0.3,0.1c0.2-0.5,0.6-1,0.9-1.5
				C80.9,35.1,80.6,35,80.5,35.1L80.5,35.1z"/>
		</g>
	</g>
	<g>
		<g>
			<path class="st0" d="M79.1,29.6c-0.6-0.3-1.3-0.2-1.9-0.2c-0.2,0-0.2,0.3,0,0.3c0.6-0.1,1.2-0.2,1.8,0.1
				C79.1,30,79.3,29.7,79.1,29.6L79.1,29.6z"/>
		</g>
	</g>
	<g>
		<g>
			<path class="st0" d="M84.4,28.1c-0.1-0.4,0-0.7,0.1-1c0.1-0.2-0.3-0.3-0.3-0.1c-0.1,0.4-0.2,0.7-0.1,1.1
				C84.1,28.3,84.4,28.3,84.4,28.1L84.4,28.1z"/>
		</g>
	</g>
	<g>
		<g>
			<path class="st0" d="M84.7,28.4c0.3-0.3,0.5-0.5,0.8-0.8c0.2-0.1-0.1-0.4-0.2-0.2c-0.3,0.3-0.6,0.5-0.8,0.8
				C84.3,28.3,84.6,28.6,84.7,28.4L84.7,28.4z"/>
		</g>
	</g>
	<g>
		<g>
			<path class="st0" d="M86.2,33.5c0.5,0,0.8,0.2,1.2,0.5c0.2,0.1,0.3-0.2,0.2-0.3c-0.4-0.3-0.9-0.5-1.4-0.5
				C86,33.2,86,33.5,86.2,33.5L86.2,33.5z"/>
		</g>
	</g>
	<g>
		<g>
			<path class="st0" d="M85.7,34c0.2,0.3,0.3,0.6,0.4,0.9c0.1,0.2,0.4,0,0.3-0.2c-0.1-0.3-0.2-0.6-0.4-0.9
				C85.9,33.7,85.6,33.8,85.7,34L85.7,34z"/>
		</g>
	</g>
	<g>
		<g>
			<path class="st0" d="M81,35.4c-0.1,0.2-0.2,0.4-0.2,0.7c-0.1,0.2,0.3,0.3,0.3,0.1c0.1-0.2,0.1-0.4,0.2-0.7
				C81.4,35.3,81.1,35.3,81,35.4L81,35.4z"/>
		</g>
	</g>
	<g>
		<g>
			<path class="st0" d="M79.4,29.2c-0.1-0.2-0.3-0.4-0.5-0.5c-0.2-0.1-0.3,0.2-0.2,0.3c0.2,0.1,0.3,0.3,0.4,0.4
				C79.2,29.5,79.5,29.3,79.4,29.2L79.4,29.2z"/>
		</g>
	</g>
</g>
<g>
	<g>
		<path class="st0" d="M41.5,36.3c-1.7-0.8-3.8-0.7-5.6-0.2c-2.1,0.5-3.4,2.4-4.8,4c-0.1,0.1,0,0.3,0.1,0.3c2-0.1,4,0,6-0.3
			c1.9-0.3,3.4-1.3,4.9-2.5c0.2-0.1-0.1-0.4-0.2-0.2c-1.7,1.4-3.3,2.2-5.5,2.5c-1.7,0.2-3.4,0.1-5.1,0.2c0,0.1,0.1,0.2,0.1,0.3
			c1.3-1.5,2.5-3.1,4.4-3.8c1.7-0.6,4-0.7,5.6,0.1C41.5,36.6,41.7,36.4,41.5,36.3L41.5,36.3z"/>
	</g>
</g>
<g>
	<g>
		<path class="st0" d="M89.8,34.7c1.7-0.6,3.6-0.5,5.3,0c2,0.5,3.2,2,4.8,3.1c0-0.1,0-0.2,0-0.3c-3.6,1.1-7.8,1.3-10.8-1.4
			c-0.2-0.1-0.4,0.1-0.2,0.2c3.1,2.8,7.4,2.7,11.1,1.5c0.1-0.1,0.2-0.2,0-0.3c-0.9-0.6-1.6-1.4-2.5-2c-0.7-0.5-1.6-0.9-2.4-1.1
			c-1.7-0.5-3.7-0.6-5.4,0C89.5,34.5,89.6,34.8,89.8,34.7L89.8,34.7z"/>
	</g>
</g>
<g>
	<g>
		<path class="st0" d="M89.2,35.8c2,0.5,4.1,0.8,6.1,1c0.2,0,0.2-0.3,0-0.3c-2-0.3-4.1-0.6-6.1-1C89.1,35.5,89,35.8,89.2,35.8
			L89.2,35.8z"/>
	</g>
</g>
<g>
	<g>
		<path class="st0" d="M41.6,36.8c-1.7-0.1-3.3,0.2-4.9,0.7c-0.2,0.1-0.1,0.4,0.1,0.3c1.6-0.5,3.2-0.9,4.8-0.7
			C41.8,37.1,41.8,36.8,41.6,36.8L41.6,36.8z"/>
	</g>
</g>
<g>
	<g>
		<path class="st0" d="M47.3,24c-2-0.4-3.5-1.6-4.7-3.2c-0.5-0.7-0.9-1.4-1.3-2.1c-0.2-0.4-0.4-0.8-0.5-1.2
			c-0.2-0.6,0.4-0.4,0.9-0.4c4,0.1,8.4,1.9,10.4,5.6c0.1,0.2,0.4,0,0.3-0.2c-2.3-4.3-7.3-5.8-11.9-5.7c-0.1,0-0.2,0.1-0.2,0.2
			c0.9,3.3,3.3,6.7,6.8,7.4C47.5,24.3,47.5,24,47.3,24L47.3,24z"/>
	</g>
</g>
<g>
	<g>
		<path class="st0" d="M45.6,20.4c1,0.5,2,0.9,3,1.4c1.1,0.6,2,1.5,3,2.3c0.2,0.1,0.4-0.1,0.2-0.2c-0.8-0.6-1.5-1.3-2.3-1.9
			c-1.1-0.8-2.5-1.3-3.7-1.9C45.6,20,45.4,20.3,45.6,20.4L45.6,20.4z"/>
	</g>
</g>
<g>
	<g>
		<path class="st0" d="M75.7,21.7c-0.1-2,1.7-3.5,3-4.7c1-0.9,1.9-1.8,3-2.6c0.6-0.4,1.2-0.8,1.9-0.9c1.4-0.2,0.8,2.3,0.7,3
			c-0.6,2.2-1.3,4.1-2.9,5.8c-0.2,0.2,0.1,0.4,0.2,0.2c1.8-1.9,2.7-4.2,3.2-6.8c0.3-1.2,0-2.8-1.6-2.4c-1.5,0.4-2.9,1.9-4,2.9
			c-1.6,1.5-3.9,3.2-3.8,5.6C75.3,21.9,75.7,21.9,75.7,21.7L75.7,21.7z"/>
	</g>
</g>
<g>
	<g>
		<path class="st0" d="M76,24.9c1-2.9,3.2-5.1,5.6-6.9c0.2-0.1,0-0.4-0.2-0.3c-2.5,1.9-4.7,4.1-5.8,7.1C75.7,25,76,25,76,24.9
			L76,24.9z"/>
	</g>
</g>
<g>
	<g>
		<path class="st0" d="M44.2,25.8c-1-1.2-2.4-1.9-3.8-2.6C39,22.5,37.5,22,36,21.7c-2.6-0.5-6-0.1-7.2,2.6c-0.9,1.8,0.6,4.7,2.8,4
			c0.7-0.2,1.5-1.1,1.3-1.9c-0.3-0.9-1.3-0.8-2-0.7c-0.2,0-0.1,0.3,0.1,0.3c0.2,0,0.3-0.1,0.5-0.1c0.7-0.1,0.9,0.4,0.8,1.5
			c-0.6,0.7-1.4,0.7-2.2,0.4c-1.1-0.6-1.3-2-1.1-3.1c0.5-2.1,3.2-2.8,5.1-2.9c1.9-0.1,3.8,0.6,5.5,1.3c1.5,0.7,3.3,1.5,4.4,2.9
			C44.1,26.2,44.3,26,44.2,25.8L44.2,25.8z"/>
	</g>
</g>
<g>
	<g>
		<path class="st0" d="M85.9,24.9c2-2.1,4-3.9,6.7-5.1c2.1-0.9,4.6-1.6,6.9-1.1c1.4,0.3,2.4,1.3,2.8,2.7c0.4,1.7-1,3.4-2.3,4.2
			c-1.5,0.9-4,1.2-5.4,0.1c-1-0.8-0.5-2.1,0.3-2.8c0.4-0.4,0.8-0.6,1.3-0.8c0.2,0,0.4-0.1,0.6-0.1c0.8,0.8,0.8,1.4,0,1.7
			c-0.2,0.1,0,0.4,0.2,0.3c1.1-0.7,1.6-2.1-0.2-2.3c-1.5-0.2-3,1.6-2.9,3c0.1,1.8,2.6,2.1,3.9,1.9c2.1-0.3,3.8-1.3,4.7-3.3
			c0.6-1.4,0.2-3.3-1.1-4.2c-1.4-1-3.1-1-4.7-0.8c-1.8,0.3-3.7,0.9-5.3,1.7c-2.3,1.1-3.9,2.8-5.7,4.6C85.6,24.8,85.8,25,85.9,24.9
			L85.9,24.9z"/>
	</g>
</g>
<g>
	<g>
		<path class="st0" d="M56.5,19c0.3-2-0.9-4.6-2.8-5.4c-1.9-0.8-3.4,0.7-3.5,2.5c0,0.8,0.3,1.5,1.1,1.9c0.7,0.3,1.9-0.4,2-1.1
			c0.3-1.2-1.6-1.7-1.7-0.5c0,0.2,0.3,0.2,0.3,0c0.1-0.4,0.4-0.5,0.7-0.4c0.5,0.7,0.4,1.1-0.3,1.5c-1.2,0.8-1.9-0.7-1.8-1.6
			c0.1-1.2,0.9-2.1,2.1-2.1c2.3-0.1,3.8,3.2,3.5,5.1C56.1,19.1,56.4,19.2,56.5,19L56.5,19z"/>
	</g>
</g>
<g>
	<g>
		<path class="st0" d="M71.3,17.2c-0.3-1.9,0-4.3,2.3-4.9c1.2-0.3,2,0.8,2.1,1.9c0.1,0.5-0.3,0.9-0.6,1.2c-0.4,0.5-1.8,0.2-1.2-0.6
			c0.2-0.3,0.5-0.1,0.4,0.2c-0.1,0.2,0.2,0.3,0.3,0.1c0.4-1-1.1-0.9-1.1,0.1c0,0.5,0.6,1,1.1,0.9c0.7-0.2,1.2-0.9,1.4-1.7
			c0.3-1.7-1.5-2.9-3-2.2c-2.1,0.9-2.3,3.2-2,5.1C71,17.4,71.3,17.4,71.3,17.2L71.3,17.2z"/>
	</g>
</g>
<g>
	<g>
		<path class="st0" d="M38,106.3c2.4,3.4,6.6,4.7,10.4,5.6c5.3,1.3,10.9,1.3,16.3,1.2c10.9-0.3,21.7-2.3,31.9-6
			c0.2-0.1,0.1-0.4-0.1-0.3c-9.8,3.5-20,5.5-30.4,5.9c-5.2,0.2-10.6,0.1-15.7-0.8c-4.3-0.8-9.4-2.1-12.1-5.9
			C38.1,106,37.8,106.1,38,106.3L38,106.3z"/>
	</g>
</g>
<g>
	<g>
		<path class="st0" d="M45.5,111c-1.1,1.4-1.9,3.1-2.7,4.7c-0.1,0.2,0.2,0.4,0.3,0.2c0.8-1.6,1.5-3.3,2.7-4.7
			C45.9,111.1,45.6,110.8,45.5,111L45.5,111z"/>
	</g>
</g>
<g>
	<g>
		<path class="st0" d="M52.5,112.8c-0.3,0.8-0.5,1.6-0.8,2.4c-0.1,0.2,0.3,0.3,0.3,0.1c0.3-0.8,0.5-1.6,0.8-2.4
			C52.9,112.7,52.6,112.6,52.5,112.8L52.5,112.8z"/>
	</g>
</g>
<g>
	<g>
		<path class="st0" d="M64.1,113.2c0.7,1.8,1,3.7,1,5.7c0,0.2,0.3,0.2,0.3,0c0-2-0.3-3.9-1-5.8C64.4,112.9,64,113,64.1,113.2
			L64.1,113.2z"/>
	</g>
</g>
<g>
	<g>
		<path class="st0" d="M66.2,113.1c0.5,0.9,0.8,1.8,1.1,2.8c0.1,0.2,0.4,0.1,0.3-0.1c-0.4-1-0.7-1.9-1.2-2.9
			C66.4,112.8,66.1,112.9,66.2,113.1L66.2,113.1z"/>
	</g>
</g>
<g>
	<g>
		<path class="st0" d="M81.9,111.3c2.3,0.8,3.1,4,4,6c0.1,0.2,0.4,0.1,0.3-0.1c-0.9-2.2-1.7-5.4-4.2-6.2
			C81.8,110.9,81.7,111.2,81.9,111.3L81.9,111.3z"/>
	</g>
</g>
<g>
	<g>
		<path class="st0" d="M84.8,110.7c0.8,0.8,1.3,1.8,2,2.7c0.1,0.2,0.4-0.1,0.2-0.2c-0.7-0.9-1.3-1.9-2-2.7
			C84.9,110.3,84.7,110.5,84.8,110.7L84.8,110.7z"/>
	</g>
</g>
<g>
	<g>
		<path class="st0" d="M44.3,110.7c-0.3,0.5-0.6,0.9-0.9,1.4c-0.1,0.2,0.2,0.3,0.3,0.2c0.3-0.5,0.6-0.9,0.9-1.4
			C44.7,110.7,44.4,110.6,44.3,110.7L44.3,110.7z"/>
	</g>
</g>
<g>
	<g>
		<path class="st0" d="M38.2,99.4c2.3,0.8,4.5,1.8,6.9,2.6c2.4,0.8,4.9,1,7.3,1.2c5.4,0.3,10.9,0.1,16.3-0.1
			c5.1-0.2,9.9-1.2,14.8-2.6c4.6-1.3,9.4-2.3,13.4-5.3c0.2-0.1,0-0.4-0.2-0.3c-3.9,2.9-8.7,3.9-13.3,5.2c-2.4,0.7-4.8,1.3-7.2,1.8
			c-2.7,0.5-5.3,0.7-8,0.8c-5.1,0.2-10.2,0.3-15.3,0.1c-2.6-0.1-5.2-0.4-7.7-1.2c-2.3-0.7-4.5-1.8-6.9-2.6
			C38.1,99,38,99.3,38.2,99.4L38.2,99.4z"/>
	</g>
</g>
<g>
	<g>
		<path class="st0" d="M38.3,103.5c0.3,0.4,0.8,0.7,1.1,1c0.8,0.6,1.6,1.2,2.5,1.7c1.7,1,3.7,1.6,5.7,2.1c4.1,0.9,8.4,0.8,12.6,0.7
			c0.2,0,0.2-0.3,0-0.3c-3.9,0.1-7.9,0.2-11.8-0.5c-2-0.3-3.9-0.9-5.7-1.8c-0.9-0.4-1.7-0.9-2.4-1.5c-0.6-0.4-1.4-0.9-1.8-1.5
			C38.5,103.2,38.2,103.3,38.3,103.5L38.3,103.5z"/>
	</g>
</g>
<g>
	<g>
		<path class="st0" d="M38.4,101.6c3.3,1.2,6.4,2.7,9.7,3.7c0.2,0.1,0.3-0.3,0.1-0.3c-3.3-1-6.4-2.5-9.7-3.7
			C38.3,101.2,38.2,101.5,38.4,101.6L38.4,101.6z"/>
	</g>
</g>
<g>
	<g>
		<path class="st0" d="M96.4,98.6c-0.6,0.6-1.1,1.1-1.9,1.5c-0.7,0.3-1.5,0.5-2.2,0.7c-1.5,0.5-3.1,1.1-4.6,1.6
			c-3.1,1-6.2,2-9.3,3.1c-0.2,0.1-0.1,0.4,0.1,0.3c3.4-1.2,6.8-2.3,10.3-3.4c1.7-0.6,3.3-1.2,5-1.7c1.3-0.4,2-0.9,3-1.8
			C96.8,98.6,96.6,98.4,96.4,98.6L96.4,98.6z"/>
	</g>
</g>
<g>
	<g>
		<path class="st0" d="M96.5,102.5c-1.4,0.9-3,1.5-4.5,2.3c-0.2,0.1,0,0.4,0.2,0.3c1.5-0.7,3-1.4,4.5-2.3
			C96.8,102.6,96.7,102.4,96.5,102.5L96.5,102.5z"/>
	</g>
</g>
<g>
	<g>
		<g>
			<path class="st0" d="M51.6,41.7c-0.4-0.3-0.6-0.7-0.7-1.1c-0.1-0.4-0.7-0.2-0.6,0.2c0.1,0.6,0.4,1,0.8,1.4
				C51.4,42.4,51.9,41.9,51.6,41.7L51.6,41.7z"/>
		</g>
	</g>
</g>
<g>
	<g>
		<g>
			<path class="st0" d="M53,40.9c-0.3-0.3-0.4-0.6-0.5-1c-0.1-0.4-0.7-0.2-0.6,0.2c0.1,0.5,0.3,0.9,0.6,1.3
				C52.8,41.7,53.2,41.3,53,40.9L53,40.9z"/>
		</g>
	</g>
</g>
<g>
	<g>
		<g>
			<path class="st0" d="M55.1,41c-0.3-0.5-0.5-1-0.5-1.5c0-0.4-0.6-0.4-0.6,0c0,0.7,0.2,1.3,0.6,1.8C54.8,41.7,55.3,41.4,55.1,41
				L55.1,41z"/>
		</g>
	</g>
</g>
<g>
	<g>
		<g>
			<path class="st0" d="M78.1,40.6c0.4,0,0.4-0.6,0-0.6S77.7,40.6,78.1,40.6L78.1,40.6z"/>
		</g>
	</g>
</g>
<g>
	<g>
		<g>
			<path class="st0" d="M78.3,40.5c0.4-0.4,0.7-0.9,1.1-1.3c0.3-0.3-0.2-0.8-0.5-0.5c-0.4,0.4-0.7,0.9-1.1,1.3
				C77.6,40.3,78,40.8,78.3,40.5L78.3,40.5z"/>
		</g>
	</g>
</g>
<g>
	<g>
		<g>
			<path class="st0" d="M80.4,40.2c0.3-0.4,0.5-0.7,0.7-1.1c0.2-0.3-0.3-0.7-0.6-0.3c-0.3,0.4-0.5,0.7-0.7,1.1
				C79.6,40.3,80.2,40.6,80.4,40.2L80.4,40.2z"/>
		</g>
	</g>
</g>
<g>
	<g>
		<g>
			<path class="st0" d="M81.9,41.4c0.6-0.1,1-0.5,1.1-1.1c0.1-0.4-0.5-0.6-0.6-0.2c-0.1,0.4-0.3,0.6-0.7,0.6c-0.2,0-0.3,0.2-0.2,0.4
				C81.5,41.4,81.7,41.4,81.9,41.4L81.9,41.4z"/>
		</g>
	</g>
</g>
<g>
	<g>
		<g>
			<path class="st0" d="M49.5,42.1C49.4,42.1,49.4,42.2,49.5,42.1c0,0,0.1,0,0.2,0c0,0,0.1,0,0.1,0c0.1,0,0.1,0.1,0.2,0.1
				c0.1,0.1,0.1,0.3-0.1,0.4c-0.1,0-0.1,0-0.2,0.1c-0.1,0-0.1,0-0.1,0c0.2,0.1,0.4,0,0.4-0.1c0.1-0.2,0-0.3-0.1-0.4
				c-0.3-0.2-0.6,0.1-0.6,0.3c0,0.1,0,0.2,0.1,0.3c0.1,0.1,0.3,0.1,0.4,0.1c0.2-0.1,0.2-0.3,0.1-0.4C49.8,42.1,49.6,42.1,49.5,42.1
				L49.5,42.1z"/>
		</g>
	</g>
</g>
<g>
	<g>
		<g>
			<path class="st0" d="M48.5,43.7c0.4,0,0.4-0.6,0-0.6S48.1,43.7,48.5,43.7L48.5,43.7z"/>
		</g>
	</g>
</g>
<g>
	<g>
		<g>
			<path class="st0" d="M83.2,42.2c0.1,0,0.1,0,0.2,0c0.4,0,0.4-0.6,0-0.6c-0.1,0-0.1,0-0.2,0C82.8,41.6,82.8,42.2,83.2,42.2
				L83.2,42.2z"/>
		</g>
	</g>
</g>
<g>
	<g>
		<g>
			<path class="st0" d="M84.6,43.2c0.1-0.1,0.1-0.1,0.2-0.2c0.3-0.3-0.2-0.7-0.5-0.5c-0.1,0.1-0.1,0.1-0.2,0.2
				C83.8,43.1,84.3,43.5,84.6,43.2L84.6,43.2z"/>
		</g>
	</g>
</g>
<g>
	<g>
		<g>
			<path class="st0" d="M37.8,106.1c-0.3,2.6-2.2,4.4-4.3,5.9c-1.6,1.1-3.7,2-4.9,3.5c-0.7,0.8-0.8,2,0.4,2.4
				c1.7,0.6,3.7-0.3,5.4-0.4c1.4-0.1,2.4,0.3,3.4,1.3c0.7,0.7,1.2,1.4,2.1,1.8c1.5,0.7,3.2,0.5,4.7,0c2.1-0.8,5.7-3.6,7.7-1.6
				c1.3,1.2,1.9,3.2,3,4.5c1,1.2,2.4,2,4,1.9c1-0.1,1.9-0.4,2.8-0.7c0.4-0.2,0.7-0.3,1.1-0.5c0.2-0.1,0.4-0.2,0.6-0.3
				c0.8-0.4,1.1-0.6,2-0.3c1,0.3,1.6,1,2.5,1.5c0.7,0.4,1.4,0.6,2.1,0.7c1.4,0.2,2.9-0.1,4-1c0.7-0.6,1.3-1.4,2-2
				c1-0.9,2.1-1.5,3.3-1.8c2.3-0.7,4.3,0,6.5,0.6c1.5,0.4,3,0.4,4.1-0.8c0.8-0.8,1.2-1.7,2.4-2c1.3-0.4,2.7,0.2,3.9,0.7
				c1.6,0.7,3.4,1.7,5.2,1.3c0.8-0.2,1.4-0.6,1.9-1.2c0.9-1.1,1.4-2.1,2.9-2.6c2.3-0.8,8.3-0.5,7.5-4.6c0-0.1-0.1-0.1-0.2-0.1
				c-3,0.1-6-0.2-8.9-1c-1.5-0.4-2.9-0.9-4.3-1.5c-0.9-0.4-4.2-1.6-4-3c0-0.2-0.3-0.3-0.3-0.1c-0.3,1.6,2.2,2.4,3.3,2.9
				c2,1,4.1,1.7,6.2,2.2c1,0.2,2,0.4,3.1,0.6c1.3,0.2,2.7,0,4,0.2c0.4,0.1,0.6-0.2,0.8,0.4c0.1,0.3-0.2,0.9-0.3,1
				c-0.3,0.5-0.8,0.9-1.4,1.2c-1.1,0.6-2.3,0.8-3.5,0.9c-1.7,0.2-3.3,0.6-4.4,2c-0.7,0.9-1.3,1.9-2.5,2.2c-1.4,0.3-2.9-0.4-4.1-0.9
				c-1.5-0.7-3.3-1.6-5-1.1c-0.8,0.2-1.3,0.7-1.8,1.3c-1.1,1.3-2.1,2-4,1.7c-2-0.4-3.8-1.2-5.9-1c-1.9,0.2-3.6,1-5,2.3
				c-0.8,0.8-1.5,1.7-2.4,2.3c-1.1,0.7-2.5,0.8-3.7,0.5c-1.2-0.3-2.1-0.9-3-1.7c-0.5-0.4-0.9-0.8-1.5-0.7c-1,0.1-2,0.9-2.9,1.3
				c-1.5,0.7-3.2,1.2-4.8,0.6c-2.1-0.8-3.1-3.1-4.2-4.8c-1-1.7-2.2-2.4-4.1-1.8c-2.4,0.7-4.4,2.4-6.9,2.5c-1.7,0.1-3-0.7-4.1-1.9
				c-0.7-0.7-1.4-1.4-2.4-1.6c-0.9-0.2-1.8-0.1-2.7,0.1c-0.8,0.1-1.5,0.3-2.3,0.4c-0.3,0-0.5,0.1-0.8,0.1c-0.8,0-1,0.1-1.3-0.8
				c-0.3-0.8-0.3-0.8,0.3-1.4c0.3-0.4,0.7-0.6,1.1-0.9c0.5-0.4,1.1-0.7,1.6-1.1c1-0.7,2.1-1.3,3.1-2.1c1.7-1.3,3-3.1,3.2-5.2
				C38.2,105.9,37.9,105.9,37.8,106.1L37.8,106.1z"/>
		</g>
	</g>
</g>
<g>
	<g>
		<g>
			<path class="st0" d="M31.7,114.7c-0.8,0-1.3,0.7-1.2,1.4c0,0.1,0.1,0.2,0.2,0.2c1.1-0.2,2.2-0.6,3.1-1.3c0.2-0.1,0-0.4-0.2-0.3
				c-0.9,0.6-1.9,1-3.1,1.2c0.1,0.1,0.1,0.1,0.2,0.2c-0.1-0.6,0.3-1.1,0.9-1.1C31.9,115,31.9,114.7,31.7,114.7L31.7,114.7z"/>
		</g>
	</g>
</g>
<g>
	<g>
		<g>
			<path class="st0" d="M39.4,117.3c0.4,1,1.3,1.4,2.3,1.4c1.4,0,2.5-1.2,3.4-2.1c0.2-0.2-0.1-0.4-0.2-0.2c-0.7,0.7-1.4,1.5-2.3,1.8
				c-1.1,0.4-2.4,0.2-2.9-1C39.6,117,39.3,117.1,39.4,117.3L39.4,117.3z"/>
		</g>
	</g>
</g>
<g>
	<g>
		<g>
			<path class="st0" d="M55.5,119.4c-0.3,1.2,0.4,2.6,1.6,3c1.7,0.5,3.1-1,4.1-2.1c0.1-0.2-0.1-0.4-0.2-0.2
				c-0.7,0.8-1.6,1.8-2.7,2.1c-1.6,0.4-2.9-1.1-2.5-2.6C55.8,119.3,55.5,119.2,55.5,119.4L55.5,119.4z"/>
		</g>
	</g>
</g>
<g>
	<g>
		<g>
			<path class="st0" d="M68.6,122.2c0.4,0.9,1.2,1.3,2.2,1.2c1.2-0.1,2.1-1.2,2.8-2.1c0.1-0.2-0.2-0.3-0.3-0.2
				c-0.5,0.7-1.1,1.4-1.9,1.8c-0.9,0.4-2.1,0.2-2.5-0.8C68.8,121.9,68.5,122,68.6,122.2L68.6,122.2z"/>
		</g>
	</g>
</g>
<g>
	<g>
		<g>
			<path class="st0" d="M85,119.7c1.7,1,3.9,0.5,5-1.1c0.1-0.2-0.2-0.3-0.3-0.2c-1,1.5-3,1.9-4.6,1C85,119.4,84.8,119.6,85,119.7
				L85,119.7z"/>
		</g>
	</g>
</g>
<g>
	<g>
		<g>
			<path class="st0" d="M97.4,116.5c0.2,1.1,1.2,1.8,2.3,1.8c1.4,0,2.4-1.1,3.2-2.1c0.1-0.2-0.2-0.3-0.3-0.2
				c-0.6,0.9-1.4,1.7-2.5,1.9c-1.1,0.2-2.2-0.4-2.4-1.5C97.7,116.3,97.4,116.3,97.4,116.5L97.4,116.5z"/>
		</g>
	</g>
</g>
<g>
	<g>
		<g>
			<path class="st0" d="M107.9,114.8c1,0.5,2.2,0.2,3-0.6c0.1-0.2-0.1-0.4-0.2-0.2c-0.7,0.7-1.7,1-2.5,0.6
				C107.9,114.5,107.7,114.7,107.9,114.8L107.9,114.8z"/>
		</g>
	</g>
</g>
<g>
	<g>
		<g>
			<path class="st0" d="M40.4,116.3c0.1,0.6,0.8,1,1.3,0.7c0.2-0.1,0-0.4-0.2-0.3c-0.3,0.2-0.8,0-0.9-0.4
				C40.7,116.1,40.4,116.1,40.4,116.3L40.4,116.3z"/>
		</g>
	</g>
</g>
<g>
	<g>
		<g>
			<path class="st0" d="M56.7,119.6c-0.3,0.7,0.7,1.4,1.2,0.9c0.2-0.2-0.1-0.4-0.2-0.2c-0.3,0.3-0.9-0.1-0.7-0.5
				C57,119.6,56.7,119.4,56.7,119.6L56.7,119.6z"/>
		</g>
	</g>
</g>
<g>
	<g>
		<g>
			<path class="st0" d="M69.3,121.2c0.2,0.2,0.4,0.4,0.6,0.6c0.1,0.1,0.1,0.1,0.2,0.1c0.4-0.1,0.7-0.3,1-0.6
				c0.1-0.2-0.1-0.4-0.2-0.2c-0.2,0.3-0.5,0.5-0.8,0.5c0.1,0,0.1,0,0.2,0.1c-0.2-0.2-0.4-0.4-0.6-0.6
				C69.4,120.9,69.1,121.1,69.3,121.2L69.3,121.2z"/>
		</g>
	</g>
</g>
<g>
	<g>
		<g>
			<path class="st0" d="M86.2,119.1c0.9,0.2,1.8-0.1,2.3-0.8c0.1-0.2-0.1-0.4-0.2-0.2c-0.5,0.6-1.3,0.9-2,0.7
				C86,118.7,86,119,86.2,119.1L86.2,119.1z"/>
		</g>
	</g>
</g>
<g>
	<g>
		<g>
			<path class="st0" d="M98.5,116.2c0.3,0.9,1.6,1.1,2.1,0.3c0.1-0.2-0.2-0.3-0.3-0.2c-0.4,0.5-1.4,0.4-1.6-0.3
				C98.8,115.9,98.5,116,98.5,116.2L98.5,116.2z"/>
		</g>
	</g>
</g>
<g>
	<g>
		<g>
			<path class="st0" d="M108.2,114.3c0.5,0,0.9-0.3,1.2-0.6c0.1-0.2-0.2-0.3-0.3-0.2c-0.2,0.3-0.6,0.5-1,0.5
				C108,113.9,108,114.3,108.2,114.3L108.2,114.3z"/>
		</g>
	</g>
</g>
<g>
	<g>
		<g>
			<path class="st0" d="M37.9,119c0.4,2.9,2.1,5.3,4.7,6.5c0.4,0.2,0.7-0.4,0.3-0.6c-2.4-1.2-4.1-3.5-4.4-6.2
				C38.4,118.4,37.8,118.6,37.9,119L37.9,119z"/>
		</g>
	</g>
</g>
<g>
	<g>
		<g>
			<path class="st0" d="M92.7,125.2c2.3-1.2,3.8-3.5,4-6.1c0-0.4-0.6-0.4-0.6,0c-0.1,2.4-1.5,4.5-3.7,5.5
				C92,124.8,92.3,125.4,92.7,125.2L92.7,125.2z"/>
		</g>
	</g>
</g>
<g>
	<g>
		<g>
			<path class="st1" d="M43.2,83.4c-2.6,0-4.6-2.1-4.6-4.6c0-2.6,2.1-4.6,4.6-4.6c2.6,0,4.6,2.1,4.6,4.6
				C47.9,81.3,45.8,83.4,43.2,83.4z M43.2,74.6c-2.3,0-4.1,1.9-4.1,4.1s1.9,4.1,4.1,4.1c2.3,0,4.1-1.9,4.1-4.1S45.5,74.6,43.2,74.6z
				"/>
		</g>
		<g class="st2">
			<path class="st1" d="M42.4,81.1v-4h1.5c0.3,0,0.5,0,0.6,0c0.2,0,0.4,0.1,0.5,0.2c0.1,0.1,0.2,0.2,0.3,0.4
				c0.1,0.2,0.1,0.3,0.1,0.5c0,0.3-0.1,0.6-0.3,0.9c-0.2,0.2-0.6,0.3-1.2,0.3h-1v1.6H42.4z M42.9,79h1c0.3,0,0.6-0.1,0.7-0.2
				c0.1-0.1,0.2-0.3,0.2-0.5c0-0.2,0-0.3-0.1-0.4s-0.2-0.2-0.3-0.2c-0.1,0-0.3,0-0.5,0h-1V79z"/>
		</g>
	</g>
	<g>
		<g>
			<path class="st1" d="M53.7,88.8c-3,0-5.4-2.4-5.4-5.4s2.4-5.4,5.4-5.4s5.4,2.4,5.4,5.4S56.6,88.8,53.7,88.8z M53.7,78.4
				c-2.7,0-4.9,2.2-4.9,4.9s2.2,4.9,4.9,4.9c2.7,0,4.9-2.2,4.9-4.9S56.4,78.4,53.7,78.4z"/>
		</g>
		<g class="st2">
			<path class="st1" d="M52.5,85.8v-4.1h3v0.5h-2.4v1.3h2.3v0.5h-2.3v1.4h2.5v0.5H52.5z"/>
		</g>
	</g>
	<g>
		<g>
			<path class="st1" d="M67.5,92.1c-3.9,0-7.1-3.2-7.1-7.1c0-3.9,3.2-7.1,7.1-7.1c3.9,0,7.1,3.2,7.1,7.1
				C74.6,88.9,71.4,92.1,67.5,92.1z M67.5,78.4c-3.6,0-6.6,3-6.6,6.6c0,3.6,3,6.6,6.6,6.6c3.6,0,6.6-3,6.6-6.6
				C74.1,81.3,71.1,78.4,67.5,78.4z"/>
		</g>
		<g class="st2">
			<path class="st1" d="M64.6,87.7l2.1-5.5h0.8l2.2,5.5h-0.8l-0.6-1.7H66l-0.6,1.7H64.6z M66.2,85.5H68L67.5,84
				c-0.2-0.5-0.3-0.8-0.4-1.1c-0.1,0.4-0.2,0.7-0.3,1L66.2,85.5z"/>
		</g>
	</g>
	<g>
		<g>
			<path class="st1" d="M80.6,87.5c-2.9,0-5.3-2.4-5.3-5.3s2.4-5.3,5.3-5.3s5.3,2.4,5.3,5.3S83.5,87.5,80.6,87.5z M80.6,77.4
				c-2.6,0-4.8,2.1-4.8,4.8c0,2.6,2.1,4.8,4.8,4.8c2.6,0,4.8-2.1,4.8-4.8C85.4,79.6,83.2,77.4,80.6,77.4z"/>
		</g>
		<g class="st2">
			<path class="st1" d="M82,83l0.5,0.1c-0.1,0.4-0.3,0.8-0.6,1c-0.3,0.2-0.6,0.3-1.1,0.3c-0.4,0-0.8-0.1-1.1-0.3
				c-0.3-0.2-0.5-0.4-0.6-0.8c-0.1-0.3-0.2-0.7-0.2-1.1c0-0.4,0.1-0.8,0.2-1.1c0.2-0.3,0.4-0.5,0.7-0.7c0.3-0.2,0.6-0.2,1-0.2
				c0.4,0,0.7,0.1,1,0.3c0.3,0.2,0.5,0.5,0.6,0.9l-0.5,0.1c-0.1-0.3-0.2-0.5-0.4-0.6c-0.2-0.1-0.4-0.2-0.7-0.2
				c-0.3,0-0.6,0.1-0.8,0.2c-0.2,0.1-0.4,0.3-0.4,0.6c-0.1,0.2-0.1,0.5-0.1,0.8c0,0.3,0,0.6,0.1,0.9c0.1,0.3,0.3,0.4,0.5,0.6
				c0.2,0.1,0.4,0.2,0.7,0.2c0.3,0,0.5-0.1,0.8-0.3C81.7,83.6,81.9,83.4,82,83z"/>
		</g>
	</g>
	<g>
		<g>
			<path class="st1" d="M90.5,82.5c-2.4,0-4.4-2-4.4-4.4s2-4.4,4.4-4.4s4.4,2,4.4,4.4S92.9,82.5,90.5,82.5z M90.5,74.1
				c-2.2,0-3.9,1.8-3.9,3.9s1.8,3.9,3.9,3.9s3.9-1.8,3.9-3.9S92.7,74.1,90.5,74.1z"/>
		</g>
		<g class="st2">
			<path class="st1" d="M89.5,79.9v-3.3h2.4V77h-2v1h1.8v0.4h-1.8v1.1h2v0.4H89.5z"/>
		</g>
	</g>
	<g>
		<g>
			<g>
				<path class="st1" d="M37.6,75.3c0.5,0.5,1,0.9,1.7,1.2c0.2,0.1,0.3-0.2,0.1-0.3c-0.6-0.3-1.1-0.6-1.5-1.1
					C37.7,74.9,37.5,75.2,37.6,75.3L37.6,75.3z"/>
			</g>
		</g>
	</g>
	<g>
		<g>
			<g>
				<path class="st1" d="M47.1,80.9c0.6,0.5,1.2,0.9,1.8,1.1c0.2,0.1,0.3-0.2,0.1-0.3c-0.6-0.3-1.2-0.6-1.7-1.1
					C47.2,80.5,46.9,80.8,47.1,80.9L47.1,80.9z"/>
			</g>
		</g>
	</g>
	<g>
		<g>
			<g>
				<path class="st1" d="M58.8,84.6c0.6,0.5,1.2,0.7,1.9,0.7c0.2,0,0.2-0.3,0-0.3c-0.6,0-1.2-0.2-1.7-0.6
					C58.8,84.3,58.6,84.5,58.8,84.6L58.8,84.6z"/>
			</g>
		</g>
	</g>
	<g>
		<g>
			<g>
				<path class="st1" d="M74.3,84.8c0.6-0.2,1.1-0.4,1.6-0.6c0.2-0.1,0.1-0.4-0.1-0.3c-0.6,0.2-1.1,0.4-1.6,0.6
					C74.1,84.6,74.2,84.9,74.3,84.8L74.3,84.8z"/>
			</g>
		</g>
	</g>
	<g>
		<g>
			<g>
				<path class="st1" d="M85.5,80.8c0.5-0.3,0.9-0.5,1.3-0.8c0.2-0.1,0-0.4-0.2-0.3c-0.5,0.3-0.9,0.5-1.3,0.8
					C85.2,80.6,85.3,80.9,85.5,80.8L85.5,80.8z"/>
			</g>
		</g>
	</g>
	<g>
		<g>
			<g>
				<path class="st1" d="M94.5,75.9c0.2-0.4,0.5-0.7,0.8-0.9c0.2-0.1,0-0.4-0.2-0.3c-0.4,0.2-0.8,0.6-0.9,1
					C94.2,75.9,94.5,76.1,94.5,75.9L94.5,75.9z"/>
			</g>
		</g>
	</g>
	<g>
		<g>
			<g>
				<path class="st1" d="M39.5,76.2c-0.1,0.1-0.1,0.1-0.2,0.2c-0.3,0.3,0.2,0.7,0.5,0.5c0.1-0.1,0.1-0.1,0.2-0.2
					C40.2,76.4,39.8,75.9,39.5,76.2L39.5,76.2z"/>
			</g>
		</g>
	</g>
	<g>
		<g>
			<g>
				<path class="st1" d="M39.1,76.4c0-0.1,0.1-0.1,0.2-0.2c-0.1,0,0,0,0.1,0c-0.1,0,0.2,0,0.1,0c0.2,0,0.1,0,0.1,0c-0.1,0,0,0,0.1,0
					c0,0,0,0-0.1,0c0,0,0.1,0.1,0.1,0.1c0,0,0,0-0.1-0.1c0.1,0.1,0.1,0.1,0,0c0.1,0.1,0.1,0.1,0,0.1c0,0.1,0,0.2,0,0.2
					c0-0.1-0.1,0.1,0,0.1c0,0.1-0.1,0.1-0.1,0.1c-0.1,0-0.1,0.1,0,0c-0.1,0.1-0.2,0.1-0.1,0c0.1,0,0,0,0,0c-0.1,0-0.1,0,0,0
					c0.1,0,0,0-0.1,0l0.1,0c-0.1-0.1-0.1-0.1-0.1,0l0,0c0.1,0,0,0-0.1-0.1c0,0,0,0,0,0c-0.1-0.1-0.1-0.1-0.1-0.1c0,0.1,0,0,0-0.1
					C39.1,76.6,39.1,76.6,39.1,76.4C39.1,76.6,39.1,76.5,39.1,76.4c-0.1,0.3,0.1,0.7,0.4,0.8c0.3,0.1,0.7-0.1,0.8-0.4
					c0.1-0.5-0.2-1-0.7-1.2c-0.4-0.2-1,0-1.2,0.4c-0.3,0.5-0.1,1.1,0.4,1.3c0.2,0.1,0.4,0.2,0.6,0.2c0.3,0,0.6-0.2,0.8-0.4
					c0.2-0.3,0.1-0.7-0.2-0.9C39.7,76,39.3,76.1,39.1,76.4L39.1,76.4z"/>
			</g>
		</g>
	</g>
	<g>
		<g>
			<g>
				<path class="st1" d="M46.6,80.2c-0.1,0.1-0.1,0.1-0.2,0.2c-0.2,0.2-0.3,0.7,0,0.9s0.6,0.3,0.9,0c0.1-0.1,0.1-0.1,0.2-0.2
					c0.2-0.2,0.3-0.7,0-0.9C47.2,79.9,46.8,79.9,46.6,80.2L46.6,80.2z"/>
			</g>
		</g>
	</g>
	<g>
		<g>
			<g>
				<path class="st1" d="M49,81.5C49,81.5,49,81.5,49,81.5c0.1,0,0.2,0.1,0.3,0.1c0,0,0,0,0,0c0.1,0.1,0.2,0.2,0.2,0.2
					c0.1,0.1,0.1,0.3,0.1,0.4c-0.1,0.1-0.1,0.2-0.2,0.3c0,0-0.1,0.1-0.1,0.1c-0.1,0-0.2,0.1-0.3,0.1h0c0.3,0,0.7-0.3,0.6-0.6
					c0-0.3-0.3-0.7-0.6-0.6c-0.4,0-0.7,0.3-0.7,0.7c0,0.1,0.1,0.3,0.1,0.4c0.1,0.2,0.3,0.3,0.6,0.3c0.3,0,0.7-0.3,0.6-0.6
					C49.6,81.7,49.3,81.5,49,81.5L49,81.5z"/>
			</g>
		</g>
	</g>
	<g>
		<g>
			<g>
				<path class="st1" d="M57.8,84.4c0,0.1,0,0.1,0,0.2c0,0.3,0.3,0.7,0.6,0.6c0.4,0,0.6-0.3,0.6-0.6c0-0.1,0-0.1,0-0.2
					c0-0.3-0.3-0.7-0.6-0.6C58.1,83.8,57.8,84,57.8,84.4L57.8,84.4z"/>
			</g>
		</g>
	</g>
	<g>
		<g>
			<g>
				<path class="st1" d="M60.4,85.9c0.1,0,0.1,0,0.2,0c0.3,0,0.7-0.3,0.6-0.6s-0.3-0.6-0.6-0.6c-0.1,0-0.1,0-0.2,0
					c-0.3,0-0.7,0.3-0.6,0.6C59.8,85.6,60,85.9,60.4,85.9L60.4,85.9z"/>
			</g>
		</g>
	</g>
	<g>
		<g>
			<g>
				<path class="st1" d="M74,84.1c-0.4,0-0.7,0.3-0.7,0.7s0.3,0.7,0.7,0.7c0.3,0,0.7-0.3,0.6-0.6c0-0.3-0.3-0.7-0.6-0.6
					c0.1,0,0.1,0,0.1,0c0.1,0.1,0.2,0.1,0.3,0.2c0,0.5,0.1,0.7,0.2,0.5c-0.1,0.1-0.1,0.2-0.2,0.3c0,0-0.1,0.1-0.1,0.1
					c-0.1,0-0.2,0.1-0.3,0.1c0,0,0,0,0,0c0.3,0,0.7-0.3,0.6-0.6C74.6,84.4,74.4,84.1,74,84.1L74,84.1z"/>
			</g>
		</g>
	</g>
	<g>
		<g>
			<g>
				<path class="st1" d="M75.8,84.9c0.8,0,0.8-1.3,0-1.3S75,84.9,75.8,84.9L75.8,84.9z"/>
			</g>
		</g>
	</g>
	<g>
		<g>
			<g>
				<path class="st1" d="M85.1,81.4c0.8,0,0.8-1.3,0-1.3C84.3,80.1,84.3,81.4,85.1,81.4L85.1,81.4z"/>
			</g>
		</g>
	</g>
	<g>
		<g>
			<g>
				<path class="st1" d="M86.9,80.5c0.8,0,0.8-1.3,0-1.3C86.1,79.3,86.1,80.5,86.9,80.5L86.9,80.5z"/>
			</g>
		</g>
	</g>
	<g>
		<g>
			<g>
				<path class="st1" d="M93.9,76.8c0.8,0,0.8-1.3,0-1.3S93.1,76.8,93.9,76.8L93.9,76.8z"/>
			</g>
		</g>
	</g>
	<g>
		<g>
			<g>
				<path class="st1" d="M39.1,75.8c-0.6-0.3-1.2-0.4-1.7-0.8c-0.3-0.2-0.6-0.4-0.7-0.7c-0.2-0.4,0-1,0.5-1.1c0.2,0,0.2-0.3,0-0.3
					c-0.7,0.1-1.1,0.9-0.8,1.5c0.4,1,1.7,1.2,2.6,1.6C39.1,76.2,39.3,75.9,39.1,75.8L39.1,75.8z"/>
			</g>
		</g>
	</g>
	<g>
		<g>
			<g>
				<path class="st1" d="M94.2,76c0.7-0.8,2-1.2,2.2-2.3c0.2-0.7-0.3-1.4-1-1.4c-0.2,0-0.2,0.3,0,0.3c0.6,0,0.8,0.7,0.7,1.1
					c-0.1,0.4-0.5,0.8-0.8,1c-0.5,0.3-0.9,0.6-1.3,1C93.9,75.9,94.1,76.1,94.2,76L94.2,76z"/>
			</g>
		</g>
	</g>
	<g>
		<g>
			<g>
				<path class="st1" d="M95.7,72.2c0.2-1.1,0.1-3.7,1.1-4.4c0.4-0.4,1.3-0.5,1.1,0.4c-0.1,0.4-0.4,0.9-0.6,1.3
					c-0.5,0.8-1,1.5-1.6,2.1c0.1,0.1,0.2,0.2,0.2,0.2c0.5-0.6,1.1-1,1.9-1.2c0.4-0.1,0.8-0.2,1.2-0.1c0.9,0.1,1,0.1,1.2,1
					c0.3,1.1,0.1,0.9-0.9,0.9c-0.4,0-0.8,0.1-1.2,0.1c-0.8,0-1.7,0-2.5,0c0,0.1,0.1,0.2,0.1,0.3c2.2-1.1,2,1.9,3.2,2.5
					c0.5,0.2,1,0.1,1.2-0.4c0.1-0.2-0.2-0.4-0.3-0.2c-0.4-0.1-0.8-0.2-1.2-0.2c-0.1-0.2-0.2-0.3-0.2-0.5c-0.1-0.2-0.2-0.4-0.3-0.6
					c-0.2-0.3-0.4-0.6-0.7-0.8c-0.6-0.4-1.2-0.5-1.8-0.1c-0.2,0.1-0.1,0.3,0.1,0.3c0.9,0.1,6.7,0.7,5.6-1.6c-0.4-0.9-1.7-1.1-2.5-1
					c-1.2,0.1-2.2,0.6-3,1.4c-0.2,0.2,0.1,0.4,0.2,0.2c0.6-0.6,3.7-4.2,2-4.9c-0.7-0.3-1.3,0.7-1.6,1.2c-0.6,1.2-0.6,2.8-0.8,4.1
					C95.3,72.3,95.6,72.4,95.7,72.2L95.7,72.2z"/>
			</g>
		</g>
	</g>
	<g>
		<g>
			<g>
				<path class="st1" d="M96.3,73.1c0.9,0.7,0.2,2,0.7,2.9c0.4,0.8,1.2,0.7,1.9,0.4c0.2-0.1,0-0.4-0.2-0.3c-1.5,0.7-1.6-0.7-1.6-1.7
					c0-0.6-0.1-1.1-0.6-1.4C96.3,72.7,96.1,72.9,96.3,73.1L96.3,73.1z"/>
			</g>
		</g>
	</g>
	<g>
		<g>
			<g>
				<path class="st1" d="M61.7,83.4c0.4-0.4,0.7-0.9,1.1-1.3c0.1-0.2-0.1-0.4-0.2-0.2c-0.4,0.4-0.7,0.9-1.1,1.3
					C61.3,83.4,61.5,83.6,61.7,83.4L61.7,83.4z"/>
			</g>
		</g>
	</g>
	<g>
		<g>
			<g>
				<path class="st1" d="M61.8,83.7c0.4-0.4,0.8-0.8,1.2-1.2c0.2-0.2-0.1-0.4-0.2-0.2c-0.4,0.4-0.8,0.8-1.2,1.2
					C61.5,83.7,61.7,83.9,61.8,83.7L61.8,83.7z"/>
			</g>
		</g>
	</g>
	<g>
		<g>
			<g>
				<path class="st1" d="M61.8,84.6c0.3-0.3,0.5-0.5,0.8-0.7c0.2-0.2-0.1-0.4-0.2-0.2c-0.3,0.3-0.5,0.5-0.8,0.7
					C61.4,84.5,61.7,84.8,61.8,84.6L61.8,84.6z"/>
			</g>
		</g>
	</g>
	<g>
		<g>
			<g>
				<path class="st1" d="M61.8,85.5c0.3-0.3,0.5-0.6,0.8-0.9c0.1-0.2-0.1-0.4-0.2-0.2c-0.3,0.3-0.5,0.6-0.8,0.9
					C61.5,85.5,61.7,85.7,61.8,85.5L61.8,85.5z"/>
			</g>
		</g>
	</g>
	<g>
		<g>
			<g>
				<path class="st1" d="M62,86.4c0.1-0.3,0.2-0.5,0.4-0.7c0.2-0.1,0-0.4-0.2-0.3c-0.3,0.2-0.5,0.5-0.5,0.8
					C61.7,86.5,62,86.6,62,86.4L62,86.4z"/>
			</g>
		</g>
	</g>
	<g>
		<g>
			<g>
				<path class="st1" d="M62.2,86.7C62.2,86.8,62.2,86.8,62.2,86.7c0.1,0.2,0.3-0.1,0.1-0.2c-0.2-0.1-0.5,0.1-0.4,0.4
					C62,87,62.3,86.9,62.2,86.7L62.2,86.7z"/>
			</g>
		</g>
	</g>
	<g>
		<g>
			<g>
				<path class="st1" d="M62,86.9c0.1,0,0.2,0,0.3,0c0.2,0,0.2-0.3,0-0.3c-0.1,0-0.2,0-0.3,0C61.8,86.6,61.8,86.9,62,86.9L62,86.9z"
					/>
			</g>
		</g>
	</g>
	<g>
		<g>
			<g>
				<path class="st1" d="M62.5,87.7c0.1,0,0.1,0,0.2,0c0.2,0,0.2-0.3,0-0.3c-0.1,0-0.1,0-0.2,0C62.3,87.4,62.3,87.7,62.5,87.7
					L62.5,87.7z"/>
			</g>
		</g>
	</g>
	<g>
		<g>
			<g>
				<path class="st1" d="M62.5,87.8c0.1,0,0.2,0,0.3,0c0.2,0,0.2-0.3,0-0.3c-0.1,0-0.2,0-0.3,0C62.3,87.5,62.3,87.8,62.5,87.8
					L62.5,87.8z"/>
			</g>
		</g>
	</g>
	<g>
		<g>
			<g>
				<path class="st1" d="M63.1,88.4c0.1,0,0.1,0,0.2,0c0.2,0,0.2-0.3,0-0.3c-0.1,0-0.1,0-0.2,0C62.9,88.1,62.9,88.4,63.1,88.4
					L63.1,88.4z"/>
			</g>
		</g>
	</g>
	<g>
		<g>
			<g>
				<path class="st1" d="M76.7,80.6c0.3-0.3,0.6-0.6,0.9-0.9c0.2-0.2-0.1-0.4-0.2-0.2c-0.3,0.3-0.6,0.6-0.9,0.9
					C76.3,80.5,76.5,80.7,76.7,80.6L76.7,80.6z"/>
			</g>
		</g>
	</g>
	<g>
		<g>
			<g>
				<path class="st1" d="M76.5,81.3c0.3-0.3,0.5-0.5,0.7-0.8c0.2-0.2-0.1-0.4-0.2-0.2c-0.3,0.3-0.5,0.5-0.7,0.8
					C76.1,81.3,76.4,81.5,76.5,81.3L76.5,81.3z"/>
			</g>
		</g>
	</g>
	<g>
		<g>
			<g>
				<path class="st1" d="M76.7,81.8c0.1-0.1,0.1-0.1,0.2-0.2c0.2-0.2-0.1-0.4-0.2-0.2c-0.1,0.1-0.1,0.1-0.2,0.2
					C76.3,81.7,76.5,81.9,76.7,81.8L76.7,81.8z"/>
			</g>
		</g>
	</g>
	<g>
		<g>
			<g>
				<path class="st1" d="M76.7,82.8c0.1-0.1,0.1-0.1,0.2-0.2c0.2-0.2-0.1-0.4-0.2-0.2c-0.1,0.1-0.1,0.1-0.2,0.2
					C76.3,82.8,76.5,83,76.7,82.8L76.7,82.8z"/>
			</g>
		</g>
	</g>
	<g>
		<g>
			<g>
				<path class="st1" d="M76.6,82.9c0.1,0,0.2,0,0.3,0c0.2,0,0.2-0.3,0-0.3c-0.1,0-0.2,0-0.3,0C76.4,82.6,76.4,82.9,76.6,82.9
					L76.6,82.9z"/>
			</g>
		</g>
	</g>
	<g>
		<g>
			<g>
				<path class="st1" d="M77.2,83.9c0.2,0,0.2-0.3,0-0.3C76.9,83.6,76.9,83.9,77.2,83.9L77.2,83.9z"/>
			</g>
		</g>
	</g>
	<g>
		<g>
			<g>
				<path class="st1" d="M77.1,83.9c0.1,0.1,0.2,0.1,0.3,0.2c0.2,0.1,0.4-0.2,0.2-0.3c-0.1-0.1-0.2-0.1-0.3-0.2
					C77.1,83.6,76.9,83.8,77.1,83.9L77.1,83.9z"/>
			</g>
		</g>
	</g>
	<g>
		<g>
			<g>
				<path class="st1" d="M77.6,84.8c0,0.1,0,0.1,0,0.2c0,0.2,0.3,0.2,0.3,0c0-0.1,0-0.1,0-0.2C77.9,84.6,77.6,84.6,77.6,84.8
					L77.6,84.8z"/>
			</g>
		</g>
	</g>
	<g>
		<g>
			<g>
				<path class="st1" d="M78.3,85.8c0.1,0.1,0.1,0.1,0.2,0.2c0.2,0.2,0.4-0.1,0.2-0.2c-0.1-0.1-0.1-0.1-0.2-0.2
					C78.3,85.5,78.1,85.7,78.3,85.8L78.3,85.8z"/>
			</g>
		</g>
	</g>
	<g>
		<g>
			<g>
				<path class="st1" d="M49.7,84c0.2-0.4,0.4-0.7,0.6-1.1c0.1-0.2-0.2-0.3-0.3-0.2c-0.2,0.4-0.4,0.7-0.6,1.1
					C49.3,84,49.6,84.2,49.7,84L49.7,84z"/>
			</g>
		</g>
	</g>
	<g>
		<g>
			<g>
				<path class="st1" d="M49.7,84.8c0.3-0.2,0.5-0.4,0.7-0.6c0.2-0.1-0.1-0.4-0.2-0.2c-0.3,0.2-0.5,0.4-0.7,0.6
					C49.4,84.7,49.6,84.9,49.7,84.8L49.7,84.8z"/>
			</g>
		</g>
	</g>
	<g>
		<g>
			<g>
				<path class="st1" d="M49.9,85.4c0.3-0.1,0.6-0.3,0.6-0.6c0-0.2-0.3-0.2-0.3,0c0,0.2-0.2,0.3-0.3,0.3
					C49.7,85.1,49.7,85.4,49.9,85.4L49.9,85.4z"/>
			</g>
		</g>
	</g>
	<g>
		<g>
			<g>
				<path class="st1" d="M50.3,86.3c0.3-0.2,0.4-0.4,0.5-0.7c0.1-0.2-0.2-0.3-0.3-0.1s-0.2,0.4-0.4,0.5
					C49.9,86.2,50.1,86.4,50.3,86.3L50.3,86.3z"/>
			</g>
		</g>
	</g>
	<g>
		<g>
			<g>
				<path class="st1" d="M50.9,86.3c0.1-0.1,0.1-0.1,0.2-0.2c0.2-0.2-0.1-0.4-0.2-0.2c-0.1,0.1-0.1,0.1-0.2,0.2
					C50.5,86.2,50.7,86.4,50.9,86.3L50.9,86.3z"/>
			</g>
		</g>
	</g>
	<g>
		<g>
			<g>
				<path class="st1" d="M50.8,86.3c0.2,0,0.4,0,0.6,0c0.2,0,0.2-0.3,0-0.3s-0.4,0-0.6,0C50.6,86,50.6,86.3,50.8,86.3L50.8,86.3z"/>
			</g>
		</g>
	</g>
	<g>
		<g>
			<g>
				<path class="st1" d="M51.5,86.5c0,0.1,0,0.1,0,0.2c0,0.2,0.3,0.2,0.3,0c0-0.1,0-0.1,0-0.2C51.9,86.3,51.5,86.3,51.5,86.5
					L51.5,86.5z"/>
			</g>
		</g>
	</g>
	<g>
		<g>
			<g>
				<path class="st1" d="M51.7,86.8c0.2,0,0.4,0,0.6,0s0.2-0.3,0-0.3c-0.2,0-0.4,0-0.6,0C51.5,86.5,51.5,86.8,51.7,86.8L51.7,86.8z"
					/>
			</g>
		</g>
	</g>
	<g>
		<g>
			<g>
				<path class="st1" d="M87.5,77c0.3-0.3,0.5-0.6,0.8-0.9c0.1-0.2-0.1-0.4-0.2-0.2c-0.3,0.3-0.5,0.6-0.8,0.9
					C87.1,76.9,87.3,77.1,87.5,77L87.5,77z"/>
			</g>
		</g>
	</g>
	<g>
		<g>
			<g>
				<path class="st1" d="M87.3,77.9c0.3-0.3,0.6-0.6,0.9-0.8c0.2-0.1,0-0.4-0.2-0.3c-0.4,0.3-0.7,0.6-1,0.9
					C86.9,77.8,87.1,78,87.3,77.9L87.3,77.9z"/>
			</g>
		</g>
	</g>
	<g>
		<g>
			<g>
				<path class="st1" d="M87.8,78.2c0.1-0.2,0.3-0.4,0.6-0.5c0.2-0.1,0-0.4-0.2-0.3c-0.3,0.1-0.5,0.4-0.7,0.6
					C87.4,78.2,87.7,78.3,87.8,78.2L87.8,78.2z"/>
			</g>
		</g>
	</g>
	<g>
		<g>
			<g>
				<path class="st1" d="M87.7,79c0.2,0.1,0.5-0.1,0.4-0.4c-0.1-0.2-0.4,0-0.3,0.2c0-0.1,0-0.1,0.1-0.1C87.7,78.6,87.5,78.9,87.7,79
					L87.7,79z"/>
			</g>
		</g>
	</g>
	<g>
		<g>
			<g>
				<path class="st1" d="M87.7,78.9c0.1,0.1,0.1,0.1,0.2,0.2c0.2,0.2,0.4-0.1,0.2-0.2c-0.1-0.1-0.1-0.1-0.2-0.2
					C87.8,78.6,87.5,78.8,87.7,78.9L87.7,78.9z"/>
			</g>
		</g>
	</g>
	<g>
		<g>
			<g>
				<path class="st1" d="M88.3,80c0.2,0,0.2-0.3,0-0.3C88.1,79.7,88.1,80,88.3,80L88.3,80z"/>
			</g>
		</g>
	</g>
	<g>
		<g>
			<g>
				<path class="st1" d="M88.1,80c0.1,0.1,0.2,0.2,0.3,0.3c0.2,0.2,0.4-0.1,0.2-0.2c-0.1-0.1-0.2-0.2-0.3-0.3
					C88.2,79.6,88,79.8,88.1,80L88.1,80z"/>
			</g>
		</g>
	</g>
	<g>
		<g>
			<g>
				<path class="st1" d="M89.3,81.2c0.2,0,0.2-0.3,0-0.3S89.1,81.2,89.3,81.2L89.3,81.2z"/>
			</g>
		</g>
	</g>
	<g>
		<g>
			<g>
				<path class="st1" d="M39.7,78.3c0.2-0.3,0.3-0.6,0.6-0.9c0.2-0.1-0.1-0.4-0.2-0.2c-0.3,0.3-0.5,0.6-0.7,0.9
					C39.3,78.3,39.6,78.5,39.7,78.3L39.7,78.3z"/>
			</g>
		</g>
	</g>
	<g>
		<g>
			<g>
				<path class="st1" d="M39.7,79.3c0.3-0.4,0.6-0.7,0.9-1.1c0.1-0.2-0.1-0.4-0.2-0.2c-0.3,0.4-0.6,0.7-0.9,1.1
					C39.3,79.2,39.5,79.4,39.7,79.3L39.7,79.3z"/>
			</g>
		</g>
	</g>
	<g>
		<g>
			<g>
				<path class="st1" d="M40.1,79.5c0.2-0.2,0.3-0.4,0.5-0.6c0.1-0.2-0.2-0.3-0.3-0.2c-0.2,0.2-0.3,0.4-0.5,0.6
					C39.7,79.5,40,79.7,40.1,79.5L40.1,79.5z"/>
			</g>
		</g>
	</g>
	<g>
		<g>
			<g>
				<path class="st1" d="M40.3,80c0.1-0.1,0.1-0.1,0.2-0.2c0.2-0.2-0.1-0.4-0.2-0.2c-0.1,0.1-0.1,0.1-0.2,0.2
					C39.9,79.9,40.1,80.1,40.3,80L40.3,80z"/>
			</g>
		</g>
	</g>
	<g>
		<g>
			<g>
				<path class="st1" d="M40.2,80c0.1,0.1,0.1,0.1,0.2,0.2c0.2,0.2,0.4-0.1,0.2-0.2c-0.1-0.1-0.1-0.1-0.2-0.2
					C40.3,79.6,40,79.8,40.2,80L40.2,80z"/>
			</g>
		</g>
	</g>
	<g>
		<g>
			<g>
				<path class="st1" d="M40.8,80.7c0.2,0,0.2-0.3,0-0.3C40.6,80.3,40.6,80.7,40.8,80.7L40.8,80.7z"/>
			</g>
		</g>
	</g>
	<g>
		<g>
			<g>
				<path class="st1" d="M40.8,80.8c0.1,0,0.1,0,0.2,0c0.2,0,0.2-0.3,0-0.3c-0.1,0-0.1,0-0.2,0C40.6,80.5,40.6,80.8,40.8,80.8
					L40.8,80.8z"/>
			</g>
		</g>
	</g>
	<g>
		<g>
			<g>
				<path class="st1" d="M41.5,81.2c0.2,0,0.2-0.3,0-0.3C41.3,80.9,41.3,81.2,41.5,81.2L41.5,81.2z"/>
			</g>
		</g>
	</g>
</g>
<g>
	<g>
		<g>
			<path class="st0" d="M37.3,72.2c0.1,1.3,0.2,2.6,0.2,3.9c0,0.4,0.7,0.4,0.6,0c-0.1-1.3-0.2-2.6-0.2-3.9
				C37.9,71.8,37.2,71.8,37.3,72.2L37.3,72.2z"/>
		</g>
	</g>
</g>
<g>
	<g>
		<g>
			<path class="st0" d="M95.5,66.4c-0.4,2.2-0.5,4.5-0.3,6.7c0,0.4,0.7,0.4,0.6,0c-0.2-2.2-0.1-4.4,0.3-6.6
				C96.2,66.2,95.6,66,95.5,66.4L95.5,66.4z"/>
		</g>
	</g>
</g>
<g>
	<g>
		<g>
			<path class="st0" d="M38.5,82.9c8.2,4.5,15.8,9.7,23.3,15.1c1.5,1.1,3.1,2.1,4.9,2.2c1.8,0.2,3.4-0.6,4.9-1.5
				c1.6-1.1,3.1-2.4,4.6-3.6c1.9-1.6,3.9-3.1,5.9-4.6c4.3-3.2,8.7-6.2,13.3-9c0.2-0.1,0-0.4-0.2-0.3c-7.5,4.5-14.5,9.6-21.3,15.2
				c-1.6,1.3-3.3,2.8-5.4,3.3c-2.3,0.6-4.4-0.5-6.3-1.8c-3.6-2.5-7.1-5.2-10.8-7.6c-4.2-2.8-8.5-5.3-12.8-7.7
				C38.5,82.5,38.3,82.8,38.5,82.9L38.5,82.9z"/>
		</g>
	</g>
</g>
<g>
	<g>
		<g>
			<path class="st0" d="M57.2,100.8c6.8,0.2,13.5-0.3,20.2-1.3c0.2,0,0.1-0.3-0.1-0.3c-6.6,1-13.4,1.5-20.1,1.3
				C57,100.5,57,100.8,57.2,100.8L57.2,100.8z"/>
		</g>
	</g>
</g>
<g>
	<g>
		<g>
			<path class="st0" d="M57.5,98.6c1.7,0.6,3.4,1.1,5.2,1.5c0.2,0.1,0.3-0.3,0.1-0.3c-1.8-0.4-3.5-0.8-5.2-1.5
				C57.4,98.2,57.3,98.5,57.5,98.6L57.5,98.6z"/>
		</g>
	</g>
</g>
<g>
	<g>
		<g>
			<path class="st0" d="M70.7,99.5c1.3-0.3,2.7-0.8,3.9-1.4c0.2-0.1,0-0.4-0.2-0.3c-1.2,0.6-2.5,1-3.8,1.3
				C70.5,99.3,70.5,99.6,70.7,99.5L70.7,99.5z"/>
		</g>
	</g>
</g>
</svg>
