<?xml version="1.0" encoding="utf-8"?>
<!-- Generator: Adobe Illustrator 24.0.1, SVG Export Plug-In . SVG Version: 6.00 Build 0)  -->
<svg version="1.1" id="Layer_1" xmlns="http://www.w3.org/2000/svg" xmlns:xlink="http://www.w3.org/1999/xlink" x="0px" y="0px"
	 viewBox="0 0 141.7 141.7" style="enable-background:new 0 0 141.7 141.7;" xml:space="preserve">
<style type="text/css">
	.st0{enable-background:new    ;}
	.st1{fill:#070707;}
</style>
<g id="Layer_1_1_">
</g>
<g id="Layer_1_2_">
</g>
<g id="Layer_1_3_">
</g>
<g id="Layer_1_4_">
</g>
<g id="Layer_1_5_">
</g>
<g id="Layer_3">
</g>
<g id="Layer_3_1_">
</g>
<g id="Layer_1_6_">
</g>
<g id="Layer_1_7_">
</g>
<g id="Layer_1_8_">
</g>
<g id="Layer_1_9_">
</g>
<g id="Layer_1_10_">
</g>
<g id="Layer_1_11_">
</g>
<g id="Layer_1_12_">
</g>
<g id="Layer_1_13_">
</g>
<g id="Layer_1_14_">
</g>
<g id="Layer_1_15_">
</g>
<g id="Layer_1_16_">
</g>
<g id="Layer_1_17_">
</g>
<g id="Layer_1_18_">
</g>
<g id="Layer_1_19_">
</g>
<g id="Layer_1_20_">
</g>
<g id="Layer_2_1_">
</g>
<g id="Layer_1_21_">
</g>
<g id="Layer_1_22_">
</g>
<g id="Layer_1_23_">
</g>
<g id="Layer_1_24_">
</g>
<g id="Layer_1_25_">
</g>
<g id="Layer_1_26_">
</g>
<g id="Layer_1_27_">
</g>
<g id="Layer_2_2_">
	<g>
		<g>
			<g>
				<path d="M39.5,89.4c-2.3,0-4.2-1.9-4.2-4.2c0-2.3,1.9-4.2,4.2-4.2c2.3,0,4.2,1.9,4.2,4.2C43.8,87.5,41.9,89.4,39.5,89.4z
					 M39.5,81.4c-2.1,0-3.8,1.7-3.8,3.8c0,2.1,1.7,3.8,3.8,3.8s3.8-1.7,3.8-3.8C43.3,83.1,41.6,81.4,39.5,81.4z"/>
			</g>
			<g class="st0">
				<path d="M38.8,87.4v-3.6h1.4c0.2,0,0.4,0,0.5,0c0.2,0,0.3,0.1,0.4,0.2c0.1,0.1,0.2,0.2,0.3,0.3c0.1,0.1,0.1,0.3,0.1,0.5
					c0,0.3-0.1,0.6-0.3,0.8c-0.2,0.2-0.5,0.3-1.1,0.3h-0.9v1.5H38.8z M39.2,85.5h0.9c0.3,0,0.5-0.1,0.7-0.2c0.1-0.1,0.2-0.3,0.2-0.5
					c0-0.2,0-0.3-0.1-0.4s-0.2-0.2-0.3-0.2c-0.1,0-0.2,0-0.4,0h-0.9V85.5z"/>
			</g>
		</g>
		<g>
			<g>
				<path d="M37,101.2c-2.7,0-4.9-2.2-4.9-4.9c0-2.7,2.2-4.9,4.9-4.9s4.9,2.2,4.9,4.9C42,99,39.7,101.2,37,101.2z M37,91.7
					c-2.5,0-4.5,2-4.5,4.5c0,2.5,2,4.5,4.5,4.5s4.5-2,4.5-4.5C41.5,93.7,39.5,91.7,37,91.7z"/>
			</g>
			<g class="st0">
				<path d="M36,98.5v-3.8h2.7v0.4h-2.2v1.2h2.1v0.4h-2.1V98h2.3v0.4H36z"/>
			</g>
		</g>
		<g>
			<g>
				<path d="M38,116.4c-3.6,0-6.4-2.9-6.4-6.4s2.9-6.4,6.4-6.4s6.4,2.9,6.4,6.4S41.5,116.4,38,116.4z M38,103.9c-3.3,0-6,2.7-6,6
					c0,3.3,2.7,6,6,6s6-2.7,6-6C44,106.6,41.3,103.9,38,103.9z"/>
			</g>
			<g class="st0">
				<path d="M35.4,112.4l1.9-5H38l2,5h-0.8l-0.6-1.5h-2.1l-0.5,1.5H35.4z M36.8,110.4h1.7L38,109c-0.2-0.4-0.3-0.8-0.4-1
					c-0.1,0.3-0.2,0.6-0.3,1L36.8,110.4z"/>
			</g>
		</g>
		<g>
			<g>
				<path d="M46,127.7c-2.6,0-4.8-2.1-4.8-4.8c0-2.6,2.1-4.8,4.8-4.8s4.8,2.1,4.8,4.8C50.7,125.6,48.6,127.7,46,127.7z M46,118.6
					c-2.4,0-4.4,2-4.4,4.4c0,2.4,2,4.4,4.4,4.4c2.4,0,4.4-2,4.4-4.4C50.3,120.5,48.4,118.6,46,118.6z"/>
			</g>
			<g class="st0">
				<path d="M47.2,123.7l0.5,0.1c-0.1,0.4-0.3,0.7-0.5,0.9c-0.3,0.2-0.6,0.3-1,0.3c-0.4,0-0.7-0.1-1-0.2c-0.2-0.2-0.4-0.4-0.6-0.7
					c-0.1-0.3-0.2-0.6-0.2-1c0-0.4,0.1-0.7,0.2-1c0.1-0.3,0.4-0.5,0.6-0.6c0.3-0.1,0.6-0.2,0.9-0.2c0.4,0,0.7,0.1,0.9,0.3
					c0.2,0.2,0.4,0.4,0.5,0.8l-0.5,0.1c-0.1-0.3-0.2-0.5-0.4-0.6c-0.2-0.1-0.4-0.2-0.6-0.2c-0.3,0-0.5,0.1-0.7,0.2
					c-0.2,0.1-0.3,0.3-0.4,0.5c-0.1,0.2-0.1,0.5-0.1,0.7c0,0.3,0,0.6,0.1,0.8c0.1,0.2,0.2,0.4,0.4,0.5c0.2,0.1,0.4,0.2,0.6,0.2
					c0.3,0,0.5-0.1,0.7-0.2C47,124.2,47.1,124,47.2,123.7z"/>
			</g>
		</g>
		<g>
			<g>
				<path d="M60.6,130.1c-2.2,0-4-1.8-4-4c0-2.2,1.8-4,4-4s4,1.8,4,4C64.6,128.3,62.8,130.1,60.6,130.1z M60.6,122.5
					c-2,0-3.6,1.6-3.6,3.6c0,2,1.6,3.6,3.6,3.6s3.6-1.6,3.6-3.6C64.2,124.1,62.6,122.5,60.6,122.5z"/>
			</g>
			<g class="st0">
				<path d="M59.7,127.9v-3h2.2v0.4h-1.8v0.9h1.7v0.4h-1.7v1H62v0.4H59.7z"/>
			</g>
		</g>
		<g>
			<g>
				<g>
					<path class="st1" d="M94.3,38.8c-3.6-6.6-11.5-9.8-18.7-9.7c-2.5,0-5,0.4-7.4,0.7c-2.4,0.3-5,0.3-7.3,0.9
						c-4,0.9-7.7,3-10.4,6.2c-4.6,5.4-5.8,12.6-5.9,19.5c0,3.7,0.2,7.3,0.5,11c0.3,4.6,0.6,9.1,0.4,13.8c-0.2,5.6-1.3,11.3-0.4,16.8
						c0.7,4.7,3,9,6.2,12.5c0.2,0.2,0.6-0.1,0.4-0.4c-2.9-3.2-5.1-6.9-5.9-11.2c-1-4.7-0.3-9.5,0-14.2c0.3-4.7,0.4-9.5,0.1-14.2
						c-0.2-3.4-0.5-6.8-0.6-10.2C44.8,53.3,45.2,46,48.7,40c1.9-3.3,4.8-6,8.2-7.6c2.2-1.1,4.6-1.6,7-1.8c2.5-0.2,5-0.5,7.5-0.8
						c4.4-0.4,8.6-0.4,12.8,1.2c4,1.5,7.6,4.2,9.7,8C94,39.3,94.5,39.1,94.3,38.8L94.3,38.8z"/>
				</g>
			</g>
		</g>
		<g>
			<g>
				<g>
					<path class="st1" d="M56.5,113.6c4.5,2.8,10.3,2.8,15.4,2.4c2.6-0.2,5.3-0.6,7.9-1.1c2.8-0.5,5.9-0.7,8.3-2.2
						c0.3-0.2,0-0.6-0.3-0.5c-2.4,1.5-5.5,1.7-8.2,2.2c-2.6,0.5-5.2,0.8-7.7,1c-5,0.4-10.7,0.5-15.1-2.3
						C56.4,113,56.2,113.5,56.5,113.6L56.5,113.6z"/>
				</g>
			</g>
		</g>
		<g>
			<g>
				<g>
					<path class="st1" d="M62.6,30.8c0.3,0,0.3-0.5,0-0.5C62.3,30.3,62.3,30.8,62.6,30.8L62.6,30.8z"/>
				</g>
			</g>
		</g>
		<g>
			<g>
				<g>
					<path class="st1" d="M45.8,45.6c-1.9-0.1-3.7-1.1-4.6-2.8c-0.9-1.8-0.6-3.9,0.6-5.4c1-1.4,2.6-2.3,4.3-2.6
						c1.7-0.3,3.9-0.2,5.1,1.2c0.2,0.2,0.6-0.1,0.4-0.4c-1.2-1.5-3.5-1.6-5.3-1.4c-2,0.3-4,1.5-5.1,3.2c-1.1,1.7-1.3,3.8-0.4,5.6
						c1,1.9,3,2.9,5,3.1C46.2,46.1,46.2,45.6,45.8,45.6L45.8,45.6z"/>
				</g>
			</g>
		</g>
		<g>
			<g>
				<g>
					<path class="st1" d="M90.6,34.5c2.9-1.5,7.5-2.2,9.5,0.9c2,3.2,0.8,8.2-3.2,8.9c-0.3,0.1-0.2,0.6,0.1,0.5
						c4.3-0.7,5.6-6,3.7-9.4c-2.1-3.7-7.1-3-10.4-1.4C90.1,34.2,90.3,34.7,90.6,34.5L90.6,34.5z"/>
				</g>
			</g>
		</g>
		<g>
			<g>
				<g>
					<path class="st1" d="M67.9,50.3c0.1,0,0.2,0,0.2,0c0-0.1-0.1-0.1-0.1-0.2c-0.1,0.1-0.5,0.1-0.7,0.2c-0.4,0.2-0.8,0.5-1.2,0.8
						c-0.7,0.6-1.4,1.2-1.7,2.1c-0.8,1.9,1.6,3,3.2,2.9c1.3-0.1,2.6-0.7,3.9-0.9c1.3-0.2,2.4,0.3,3.6,0.6c1.6,0.4,3.3-0.5,3-2.4
						c-0.3-2-2.8-3.1-4.5-3.7c-0.2-0.1-0.2,0.2-0.1,0.2c1.7,0.6,4.9,2,4.3,4.4c-0.5,1.7-2.1,1.5-3.4,1.1c-0.9-0.3-1.8-0.5-2.8-0.4
						c-1.2,0.1-2.3,0.6-3.5,0.8c-1.3,0.2-3.9-0.2-3.7-2c0.1-1.1,1.3-2,2.1-2.7c0.3-0.2,0.6-0.4,0.9-0.5c0.2-0.1,0.5-0.1,0.6-0.2
						c0.1-0.1,0-0.2-0.1-0.2c-0.1,0-0.2,0-0.3,0C67.6,50,67.7,50.3,67.9,50.3L67.9,50.3z"/>
				</g>
			</g>
		</g>
		<g>
			<g>
				<g>
					<path class="st1" d="M74.5,55.6c0.5,1.2,0.7,2.7,0.2,3.9c-0.4,0.9-1.5,1.5-2.4,0.9c-0.4-0.3-0.5-0.8-0.8-1.2
						c-0.1-0.1-0.3,0-0.2,0.1c0.3,0.5,0.5,1.2,1,1.5c0.6,0.3,1.4,0.1,1.9-0.2c1.5-1,1-3.6,0.5-5.1C74.7,55.3,74.4,55.4,74.5,55.6
						L74.5,55.6z"/>
				</g>
			</g>
		</g>
		<g>
			<g>
				<g>
					<path class="st1" d="M51.4,110.4c2.4-1.2,3.7,1.9,5.4,3c0-0.1,0-0.2,0-0.2c-1.4,0.2-2.5,1.1-3.6,2c-1.2,0.9-2.9,2.3-4.4,1.4
						c-3.8-2.1,1.4-5.5,3.4-6.5c0.1-0.1,0-0.3-0.1-0.2c-1.9,1-6.5,3.7-4.2,6.3c2.9,3.1,6.2-2.3,9-2.7c0.1,0,0.1-0.2,0-0.2
						c-1.8-1.2-3-4.3-5.7-3C51.2,110.2,51.3,110.5,51.4,110.4L51.4,110.4z"/>
				</g>
			</g>
		</g>
		<g>
			<g>
				<g>
					<path class="st1" d="M48.6,116.2c-0.4-1.4,0.7-2.6,1.8-3.2c0.1-0.1,0-0.3-0.1-0.2c-1.3,0.7-2.4,1.9-2,3.5
						C48.4,116.5,48.7,116.4,48.6,116.2L48.6,116.2z"/>
				</g>
			</g>
		</g>
		<g>
			<g>
				<g>
					<path class="st1" d="M92.6,116.2c-1.4-0.8-2.2-2.3-3.4-3.3c-0.5-0.4-1.1-0.6-0.5-1.7c0.2-0.4,0.8-0.7,1.2-1
						c0.9-0.6,2-0.9,3.1-0.6c1.7,0.6,2.8,2.3,3.2,3.9c0.2,0.9,0.2,1.9-0.6,2.6C94.8,116.9,93.5,116.6,92.6,116.2
						c-0.1-0.1-0.3,0.1-0.1,0.2c1.6,0.8,3.8,0.6,4.1-1.5c0.3-2.1-1.3-4.6-3.2-5.4c-1-0.4-2.1-0.3-3,0.1c-0.8,0.4-2.2,1.3-2.3,2.2
						c-0.1,0.8,1.1,1.3,1.6,1.8c0.9,1,1.7,2,2.8,2.7C92.6,116.5,92.7,116.2,92.6,116.2z"/>
				</g>
			</g>
		</g>
		<g>
			<g>
				<g>
					<path class="st1" d="M93.4,112.9c0.9,1,1.7,2.2,1.7,3.5c0,0.2,0.3,0.2,0.2,0c0-1.4-0.8-2.7-1.8-3.7
						C93.4,112.6,93.3,112.8,93.4,112.9L93.4,112.9z"/>
				</g>
			</g>
		</g>
		<g>
			<g>
				<g>
					<path class="st1" d="M98.3,71.9c0.6,0.3,1.5,0,2.1,0.1c1.4,0.3,2.8,1.1,3.5,2.4c0.7,1.6,0.1,3.3-1.9,3
						c-1.4-0.2-2.5-1.2-3.4-2.2c-0.1-0.1-0.3,0.1-0.2,0.2c1.1,1.1,2.3,2.2,3.9,2.3c1.1,0.1,2-0.5,2.1-1.7c0.1-1.4-0.6-2.6-1.7-3.4
						c-0.7-0.5-1.6-0.9-2.4-1c-0.6-0.1-1.4,0.2-1.9-0.1C98.3,71.6,98.1,71.9,98.3,71.9L98.3,71.9z"/>
				</g>
			</g>
		</g>
		<g>
			<g>
				<g>
					<path class="st1" d="M101.7,75.4c0.9,0.3,2.1,1.1,1.5,2.2c-0.1,0.1,0.1,0.3,0.2,0.1c0.7-1.3-0.6-2.2-1.7-2.6
						C101.6,75.1,101.5,75.4,101.7,75.4L101.7,75.4z"/>
				</g>
			</g>
		</g>
		<g>
			<path class="st1" d="M81.5,50.1c-4.6,0-8.4-3.8-8.4-8.4c0-4.6,3.8-8.4,8.4-8.4c4.6,0,8.4,3.8,8.4,8.4
				C89.9,46.3,86.1,50.1,81.5,50.1z M81.5,33.7c-4.5,0-8.1,3.6-8.1,8.1c0,4.5,3.6,8.1,8.1,8.1s8.1-3.6,8.1-8.1
				C89.6,37.3,86,33.7,81.5,33.7z"/>
		</g>
		<g>
			<path class="st1" d="M60.8,51c-4.6,0-8.4-3.8-8.4-8.4c0-4.6,3.8-8.4,8.4-8.4c4.6,0,8.4,3.8,8.4,8.4C69.2,47.2,65.4,51,60.8,51z
				 M60.8,34.5c-4.5,0-8.1,3.6-8.1,8.1c0,4.5,3.6,8.1,8.1,8.1c4.5,0,8.1-3.6,8.1-8.1C68.9,38.2,65.2,34.5,60.8,34.5z"/>
		</g>
		<g>
			<path class="st1" d="M97.3,38.5c0-1-0.8-1.7-1.7-1.7c-1,0-1.7,0.8-1.7,1.7s0.8,1.7,1.7,1.7C96.5,40.2,97.3,39.4,97.3,38.5z"/>
		</g>
		<g>
			<circle class="st1" cx="46.6" cy="40" r="1.7"/>
		</g>
		<g>
			<path class="st1" d="M74.9,49.3c0-1.1-1.7-2-3.7-2s-3.7,0.9-3.7,2s1.7,2,3.7,2S74.9,50.4,74.9,49.3z"/>
		</g>
		<g>
			<path class="st1" d="M82.1,42.4c-1-1-2.8-1-3.8,0c-1,1-1,2.8,0,3.8c1,1,2.8,1,3.8,0C83.1,45.1,83.1,43.4,82.1,42.4z M79.7,46.2
				c-0.3-0.3-0.3-0.8,0-1.1c0.3-0.3,0.8-0.3,1.1,0c0.3,0.3,0.3,0.8,0,1.1C80.5,46.6,80,46.6,79.7,46.2z"/>
		</g>
		<g>
			<path class="st1" d="M61.2,43c-1-1-2.8-1-3.8,0c-1,1-1,2.8,0,3.8c1,1,2.8,1,3.8,0C62.2,45.8,62.2,44.1,61.2,43z M58.8,46.9
				c-0.3-0.3-0.3-0.8,0-1.1s0.8-0.3,1.1,0c0.3,0.3,0.3,0.8,0,1.1C59.6,47.2,59.1,47.2,58.8,46.9z"/>
		</g>
		<g>
			<g>
				<g>
					<path class="st1" d="M71.4,55c0.2,1.1,0.1,2.4,0,3.5c-0.1,0.6-0.2,1.4-0.7,1.9c-0.6,0.5-1.5,0.5-2,0c-1.1-1-0.8-3.3-0.4-4.6
						c0-0.2-0.2-0.2-0.2-0.1c-0.5,1.5-0.8,4.7,1.2,5.3c1,0.3,1.8-0.2,2.2-1.1c0.3-0.8,0.3-1.7,0.3-2.5c0-0.8,0.1-1.6-0.1-2.4
						C71.6,54.8,71.4,54.8,71.4,55L71.4,55z"/>
				</g>
			</g>
		</g>
		<g>
			<g>
				<g>
					<path class="st1" d="M45.6,72.6c-1.8-0.3-3.8,0.5-5.2,1.8c-0.9,0.9-1.5,2.2-0.1,3c0.1,0.1,0.3-0.1,0.1-0.2
						c-1.7-0.9,0-2.5,1-3.2c1.2-0.8,2.7-1.4,4.1-1.1C45.7,72.9,45.8,72.6,45.6,72.6L45.6,72.6z"/>
				</g>
			</g>
		</g>
		<g>
			<g>
				<g>
					<path class="st1" d="M41.7,76c-0.6,0.3-1.2,0.7-1.3,1.4c0,0.6,0.6,1,1.2,1.1c1.6,0.3,3.3-1.5,4.2-2.6c0.1-0.1-0.1-0.3-0.2-0.1
						c-0.7,0.9-1.6,1.7-2.6,2.2c-0.6,0.3-1.7,0.5-2.1-0.2c-0.4-0.7,0.6-1.3,1.1-1.5C42,76.2,41.9,76,41.7,76L41.7,76z"/>
				</g>
			</g>
		</g>
		<g>
			<g>
				<g>
					<path class="st1" d="M93.5,38.1c5,7.2,4.3,16.6,4.3,25c-0.1,10.4,1.4,20.7,0.8,31.1c-0.1,2.8-0.6,5.6-1.5,8.3
						c-0.9,2.5-2.6,4.5-3.9,6.8c-0.2,0.3,0.3,0.6,0.5,0.3c1.1-2,2.6-3.8,3.5-5.9c0.9-2.1,1.4-4.5,1.7-6.9c0.7-5.3,0.3-10.7,0.1-16
						c-0.3-5.5-0.7-11-0.7-16.5c0-4.3,0.2-8.7-0.2-13c-0.4-4.7-1.5-9.5-4.2-13.4C93.7,37.6,93.3,37.8,93.5,38.1L93.5,38.1z"/>
				</g>
			</g>
		</g>
		<g>
			<g>
				<g>
					<path class="st1" d="M88,112.5c0,0,0.1,0,0.1,0c0.2,0,0.2-0.2,0-0.2h0c0,0-0.1,0-0.1,0.1l0,0c0,0,0,0,0,0
						c0.1,0.1,0.1,0.1,0.2,0.2c0,0,0-0.1,0-0.1C88.1,112.4,88,112.4,88,112.5c0,0,0.1,0,0.1,0.1c0.1,0.1,0.3-0.1,0.2-0.2
						c0,0-0.1-0.1-0.1-0.1c-0.1-0.1-0.2,0-0.2,0.1C87.9,112.3,87.9,112.4,88,112.5c-0.1,0.1,0,0.1,0.1,0.1c0.1,0,0.1-0.1,0.2-0.2
						c0,0-0.1,0-0.1,0.1h0c0.2,0,0.2-0.2,0-0.2c0,0-0.1,0-0.1,0C87.8,112.2,87.8,112.5,88,112.5L88,112.5z"/>
				</g>
			</g>
		</g>
		<g>
			<g>
				<g>
					<path d="M36.2,83c0,0-0.1,0.1-0.1,0.1c-0.2,0.2,0.1,0.6,0.4,0.4c0,0,0.1-0.1,0.1-0.1C36.8,83.1,36.4,82.7,36.2,83L36.2,83z"/>
				</g>
			</g>
		</g>
		<g>
			<g>
				<g>
					<path d="M32.7,108.5c0.3-0.4,0.7-0.8,1-1.2c0.1-0.1-0.1-0.3-0.2-0.2c-0.3,0.4-0.7,0.8-1,1.2C32.4,108.5,32.6,108.6,32.7,108.5
						L32.7,108.5z"/>
				</g>
			</g>
		</g>
		<g>
			<g>
				<g>
					<path d="M32.8,108.8c0.4-0.4,0.7-0.7,1.1-1.1c0.1-0.1-0.1-0.3-0.2-0.2c-0.4,0.4-0.7,0.7-1.1,1.1
						C32.5,108.7,32.7,108.9,32.8,108.8L32.8,108.8z"/>
				</g>
			</g>
		</g>
		<g>
			<g>
				<g>
					<path d="M32.8,109.6c0.2-0.2,0.5-0.5,0.7-0.7c0.1-0.1-0.1-0.3-0.2-0.2c-0.2,0.2-0.5,0.5-0.7,0.7
						C32.5,109.5,32.7,109.7,32.8,109.6L32.8,109.6z"/>
				</g>
			</g>
		</g>
		<g>
			<g>
				<g>
					<path d="M32.8,110.4c0.2-0.3,0.5-0.6,0.7-0.8c0.1-0.1-0.1-0.3-0.2-0.2c-0.2,0.3-0.5,0.6-0.7,0.8
						C32.5,110.4,32.7,110.6,32.8,110.4L32.8,110.4z"/>
				</g>
			</g>
		</g>
		<g>
			<g>
				<g>
					<path d="M33,111.2c0-0.2,0.2-0.5,0.3-0.6c0.1-0.1,0-0.3-0.1-0.2c-0.2,0.2-0.4,0.5-0.5,0.8C32.7,111.3,33,111.4,33,111.2
						L33,111.2z"/>
				</g>
			</g>
		</g>
		<g>
			<g>
				<g>
					<path d="M33.1,111.5C33.2,111.6,33.1,111.6,33.1,111.5c0.1,0.1,0.2-0.1,0.1-0.2c-0.2-0.1-0.4,0.1-0.3,0.3
						C33,111.8,33.2,111.6,33.1,111.5L33.1,111.5z"/>
				</g>
			</g>
		</g>
		<g>
			<g>
				<g>
					<path d="M33,111.7c0.1,0,0.2,0,0.3,0c0.2,0,0.2-0.2,0-0.2c-0.1,0-0.2,0-0.3,0C32.8,111.4,32.8,111.7,33,111.7L33,111.7z"/>
				</g>
			</g>
		</g>
		<g>
			<g>
				<g>
					<path d="M33.4,112.4c0,0,0.1,0,0.1,0c0.2,0,0.2-0.3,0-0.2c0,0-0.1,0-0.1,0C33.3,112.1,33.3,112.4,33.4,112.4L33.4,112.4z"/>
				</g>
			</g>
		</g>
		<g>
			<g>
				<g>
					<path d="M33.4,112.5c0.1,0,0.2,0,0.3,0c0.2,0,0.2-0.2,0-0.2c-0.1,0-0.2,0-0.3,0C33.3,112.3,33.3,112.5,33.4,112.5L33.4,112.5z"
						/>
				</g>
			</g>
		</g>
		<g>
			<g>
				<g>
					<path d="M34,113.1c0,0,0.1,0,0.1,0c0.2,0,0.2-0.2,0-0.2c0,0-0.1,0-0.1,0C33.8,112.8,33.8,113.1,34,113.1L34,113.1z"/>
				</g>
			</g>
		</g>
		<g>
			<g>
				<g>
					<path d="M42.4,121.4c0.3-0.3,0.5-0.6,0.8-0.8c0.1-0.1-0.1-0.3-0.2-0.2c-0.3,0.3-0.5,0.6-0.8,0.8
						C42.1,121.4,42.3,121.5,42.4,121.4L42.4,121.4z"/>
				</g>
			</g>
		</g>
		<g>
			<g>
				<g>
					<path d="M42.2,122.1c0.2-0.2,0.5-0.5,0.7-0.7c0.1-0.1-0.1-0.3-0.2-0.2c-0.2,0.2-0.5,0.5-0.7,0.7
						C42,122.1,42.1,122.2,42.2,122.1L42.2,122.1z"/>
				</g>
			</g>
		</g>
		<g>
			<g>
				<g>
					<path d="M42.4,122.5c0,0,0.1-0.1,0.1-0.1c0.1-0.1-0.1-0.3-0.2-0.2c0,0-0.1,0.1-0.1,0.1C42.1,122.5,42.3,122.7,42.4,122.5
						L42.4,122.5z"/>
				</g>
			</g>
		</g>
		<g>
			<g>
				<g>
					<path d="M42.4,123.5c0,0,0.1-0.1,0.1-0.1c0.1-0.1-0.1-0.3-0.2-0.2c0,0-0.1,0.1-0.1,0.1C42.1,123.4,42.3,123.6,42.4,123.5
						L42.4,123.5z"/>
				</g>
			</g>
		</g>
		<g>
			<g>
				<g>
					<path d="M42.3,123.5c0.1,0,0.2,0,0.3,0c0.2,0,0.2-0.2,0-0.2c-0.1,0-0.2,0-0.3,0C42.1,123.3,42.1,123.5,42.3,123.5L42.3,123.5z"
						/>
				</g>
			</g>
		</g>
		<g>
			<g>
				<g>
					<path d="M42.8,124.5c0.2,0,0.2-0.2,0-0.2C42.7,124.2,42.7,124.5,42.8,124.5L42.8,124.5z"/>
				</g>
			</g>
		</g>
		<g>
			<g>
				<g>
					<path d="M42.8,124.5c0.1,0,0.2,0.1,0.3,0.1c0.1,0.1,0.3-0.1,0.1-0.2c-0.1,0-0.2-0.1-0.3-0.1C42.8,124.2,42.6,124.4,42.8,124.5
						L42.8,124.5z"/>
				</g>
			</g>
		</g>
		<g>
			<g>
				<g>
					<path d="M43.3,125.3c0,0,0,0.1,0,0.1c0,0.2,0.2,0.2,0.2,0c0,0,0-0.1,0-0.1C43.5,125.1,43.3,125.1,43.3,125.3L43.3,125.3z"/>
				</g>
			</g>
		</g>
		<g>
			<g>
				<g>
					<path d="M43.8,126.2c0,0,0.1,0.1,0.1,0.1c0.1,0.1,0.3-0.1,0.2-0.2c0,0-0.1-0.1-0.1-0.1C43.9,125.9,43.7,126.1,43.8,126.2
						L43.8,126.2z"/>
				</g>
			</g>
		</g>
		<g>
			<g>
				<g>
					<path d="M33.4,96.8c0.2-0.3,0.4-0.6,0.6-1c0.1-0.1-0.1-0.3-0.2-0.1c-0.2,0.3-0.4,0.6-0.6,1C33.1,96.8,33.3,97,33.4,96.8
						L33.4,96.8z"/>
				</g>
			</g>
		</g>
		<g>
			<g>
				<g>
					<path d="M33.4,97.5c0.2-0.2,0.5-0.4,0.7-0.6c0.1-0.1-0.1-0.3-0.2-0.2c-0.2,0.2-0.5,0.4-0.7,0.6C33.1,97.5,33.3,97.6,33.4,97.5
						L33.4,97.5z"/>
				</g>
			</g>
		</g>
		<g>
			<g>
				<g>
					<path d="M33.6,98.1c0.3,0,0.5-0.2,0.5-0.5c0-0.2-0.2-0.2-0.2,0c0,0.1-0.1,0.3-0.3,0.3C33.4,97.9,33.4,98.1,33.6,98.1L33.6,98.1
						z"/>
				</g>
			</g>
		</g>
		<g>
			<g>
				<g>
					<path d="M33.9,98.9c0.2-0.2,0.4-0.4,0.5-0.6c0.1-0.2-0.2-0.2-0.2-0.1c-0.1,0.2-0.2,0.3-0.3,0.5C33.7,98.8,33.8,99,33.9,98.9
						L33.9,98.9z"/>
				</g>
			</g>
		</g>
		<g>
			<g>
				<g>
					<path d="M34.5,98.9c0,0,0.1-0.1,0.1-0.1c0.1-0.1-0.1-0.3-0.2-0.2c0,0-0.1,0.1-0.1,0.1C34.2,98.8,34.4,99,34.5,98.9L34.5,98.9z"
						/>
				</g>
			</g>
		</g>
		<g>
			<g>
				<g>
					<path d="M34.4,98.9c0.2,0,0.4,0,0.6,0c0.2,0,0.2-0.2,0-0.2c-0.2,0-0.4,0-0.6,0C34.3,98.7,34.3,98.9,34.4,98.9L34.4,98.9z"/>
				</g>
			</g>
		</g>
		<g>
			<g>
				<g>
					<path d="M35.1,99.1c0,0,0,0.1,0,0.1c0,0.2,0.2,0.2,0.2,0c0,0,0-0.1,0-0.1C35.4,98.9,35.1,98.9,35.1,99.1L35.1,99.1z"/>
				</g>
			</g>
		</g>
		<g>
			<g>
				<g>
					<path d="M35.2,99.3c0.2,0,0.4,0,0.6,0c0.2,0,0.2-0.2,0-0.2c-0.2,0-0.4,0-0.6,0C35.1,99.1,35.1,99.3,35.2,99.3L35.2,99.3z"/>
				</g>
			</g>
		</g>
		<g>
			<g>
				<g>
					<path d="M57.8,125.1c0.2-0.3,0.5-0.6,0.7-0.8c0.1-0.1-0.1-0.3-0.2-0.2c-0.2,0.3-0.5,0.6-0.7,0.8
						C57.5,125.1,57.7,125.3,57.8,125.1L57.8,125.1z"/>
				</g>
			</g>
		</g>
		<g>
			<g>
				<g>
					<path d="M57.7,125.9c0.2-0.3,0.5-0.6,0.8-0.8c0.1-0.1,0-0.3-0.1-0.2c-0.3,0.2-0.6,0.5-0.9,0.8
						C57.4,125.9,57.6,126.1,57.7,125.9L57.7,125.9z"/>
				</g>
			</g>
		</g>
		<g>
			<g>
				<g>
					<path d="M58.1,126.2c0.1-0.2,0.3-0.4,0.5-0.5c0.1-0.1,0-0.3-0.1-0.2c-0.3,0.1-0.5,0.3-0.6,0.6C57.8,126.2,58,126.4,58.1,126.2
						L58.1,126.2z"/>
				</g>
			</g>
		</g>
		<g>
			<g>
				<g>
					<path d="M58.1,126.9c0.2,0.1,0.4-0.1,0.3-0.3c-0.1-0.1-0.3,0-0.2,0.1c0,0,0-0.1,0.1-0.1C58.1,126.6,58,126.8,58.1,126.9
						L58.1,126.9z"/>
				</g>
			</g>
		</g>
		<g>
			<g>
				<g>
					<path d="M58.1,126.9c0,0,0.1,0.1,0.1,0.1c0.1,0.1,0.3-0.1,0.2-0.2c0,0-0.1-0.1-0.1-0.1C58.1,126.6,58,126.8,58.1,126.9
						L58.1,126.9z"/>
				</g>
			</g>
		</g>
		<g>
			<g>
				<g>
					<path d="M58.6,127.9c0.2,0,0.2-0.2,0-0.2C58.4,127.7,58.4,127.9,58.6,127.9L58.6,127.9z"/>
				</g>
			</g>
		</g>
		<g>
			<g>
				<g>
					<path d="M58.5,127.9c0.1,0.1,0.2,0.2,0.3,0.3c0.1,0.1,0.3-0.1,0.2-0.2c-0.1-0.1-0.2-0.2-0.3-0.3
						C58.5,127.6,58.4,127.8,58.5,127.9L58.5,127.9z"/>
				</g>
			</g>
		</g>
		<g>
			<g>
				<g>
					<path d="M59.5,129c0.2,0,0.2-0.2,0-0.2C59.3,128.8,59.3,129,59.5,129L59.5,129z"/>
				</g>
			</g>
		</g>
		<g>
			<g>
				<g>
					<path d="M36.3,84.8c0.1-0.3,0.3-0.6,0.6-0.8c0.1-0.1-0.1-0.3-0.2-0.2c-0.2,0.2-0.5,0.5-0.6,0.8C36,84.8,36.2,85,36.3,84.8
						L36.3,84.8z"/>
				</g>
			</g>
		</g>
		<g>
			<g>
				<g>
					<path d="M36.3,85.7c0.3-0.3,0.6-0.6,0.8-1c0.1-0.1-0.1-0.3-0.2-0.2c-0.3,0.3-0.6,0.6-0.8,1C36,85.6,36.2,85.8,36.3,85.7
						L36.3,85.7z"/>
				</g>
			</g>
		</g>
		<g>
			<g>
				<g>
					<path d="M36.7,85.9c0.1-0.2,0.3-0.4,0.4-0.6c0.1-0.1-0.1-0.3-0.2-0.1c-0.1,0.2-0.3,0.4-0.4,0.6C36.4,85.9,36.6,86,36.7,85.9
						L36.7,85.9z"/>
				</g>
			</g>
		</g>
		<g>
			<g>
				<g>
					<path d="M36.8,86.4c0,0,0.1-0.1,0.1-0.1c0.1-0.1-0.1-0.3-0.2-0.2c0,0-0.1,0.1-0.1,0.1C36.5,86.3,36.7,86.5,36.8,86.4L36.8,86.4
						z"/>
				</g>
			</g>
		</g>
		<g>
			<g>
				<g>
					<path d="M36.8,86.4c0,0,0.1,0.1,0.1,0.1c0.1,0.1,0.3-0.1,0.2-0.2c0,0-0.1-0.1-0.1-0.1C36.9,86.1,36.7,86.3,36.8,86.4L36.8,86.4
						z"/>
				</g>
			</g>
		</g>
		<g>
			<g>
				<g>
					<path d="M37.3,86.9c0.2,0,0.2-0.2,0-0.2C37.1,86.7,37.1,86.9,37.3,86.9L37.3,86.9z"/>
				</g>
			</g>
		</g>
		<g>
			<g>
				<g>
					<path d="M37.3,87.1c0,0,0.1,0,0.1,0c0.2,0,0.2-0.2,0-0.2c0,0-0.1,0-0.1,0C37.1,86.8,37.1,87.1,37.3,87.1L37.3,87.1z"/>
				</g>
			</g>
		</g>
		<g>
			<g>
				<g>
					<path d="M38,87.5c0.2,0,0.2-0.2,0-0.2C37.8,87.2,37.8,87.5,38,87.5L38,87.5z"/>
				</g>
			</g>
		</g>
		<g>
			<g>
				<g>
					<path d="M38.1,69.6c1.9,1.8,3.2,4.1,3.6,6.6c0,0.2,0.3,0.1,0.2-0.1c-0.5-2.6-1.8-4.9-3.7-6.7C38.1,69.3,38,69.5,38.1,69.6
						L38.1,69.6z"/>
				</g>
			</g>
		</g>
		<g>
			<g>
				<g>
					<path d="M42,78.4c0.1,1.1-0.2,2.1-0.9,2.9c-0.1,0.1,0.1,0.3,0.2,0.2c0.7-0.9,1.1-1.9,1-3.1C42.2,78.3,42,78.3,42,78.4L42,78.4z
						"/>
				</g>
			</g>
		</g>
		<g>
			<g>
				<g>
					<path d="M38.6,89.3c-0.6,0.7-0.9,1.5-1.1,2.3c0,0.2,0.2,0.2,0.2,0.1c0.1-0.8,0.5-1.6,1-2.2C38.9,89.3,38.7,89.2,38.6,89.3
						L38.6,89.3z"/>
				</g>
			</g>
		</g>
		<g>
			<g>
				<g>
					<path d="M36.3,101.1c-0.2,0.8-0.2,1.7,0,2.5c0,0.2,0.3,0.1,0.2-0.1c-0.2-0.8-0.2-1.6,0-2.4C36.6,101,36.4,100.9,36.3,101.1
						L36.3,101.1z"/>
				</g>
			</g>
		</g>
		<g>
			<g>
				<g>
					<path d="M38.8,115.9c0.8,1.8,1.9,3.4,3.3,4.7c0.1,0.1,0.3-0.1,0.2-0.2c-1.4-1.3-2.5-2.9-3.3-4.7
						C39,115.7,38.8,115.8,38.8,115.9L38.8,115.9z"/>
				</g>
			</g>
		</g>
		<g>
			<g>
				<g>
					<path d="M50,125.6c2.1,1.1,4.3,1.5,6.7,1.1c0.2,0,0.1-0.3-0.1-0.2c-2.3,0.3-4.4-0.1-6.5-1.1C50,125.3,49.9,125.5,50,125.6
						L50,125.6z"/>
				</g>
			</g>
		</g>
		<g>
			<g>
				<g>
					<path d="M64.8,126.7c0.7-0.5,1.5-0.8,2.3-1c0.5-0.1,1-0.2,1.6-0.2c0.4,0,1.3-0.1,1.6,0.2c0.7,0.8-1,1.7-0.6,2.7
						c0.4,0.8,1.8,0.9,2.5,0.8c1.3-0.1,2.5-0.6,3.8-0.7c0.8-0.1,1.5,0.1,2.1,0.6c0.5,0.4,0.8,0.8,1.5,0.9c0.6,0.1,1.2-0.2,1.8-0.4
						c1.1-0.2,2.1-0.2,3.2-0.2c1.9,0.1,3.7,0.2,5.6,0c1.8-0.2,3.5-0.6,5.3-0.9c4-0.8,8.5-1.3,12.1,1.1c0.1,0.1,0.3-0.1,0.1-0.2
						c-5.1-3.4-11.3-1-16.9-0.3c-1.7,0.2-3.4,0.3-5,0.1c-1.5-0.1-2.9-0.2-4.4,0.1c-0.4,0.1-0.8,0.3-1.2,0.3
						c-0.8,0.1-1.2-0.1-1.8-0.6c-0.3-0.3-0.6-0.5-1-0.7c-0.9-0.3-1.8-0.2-2.7,0c-1.3,0.3-2.8,0.8-4.1,0.4c-0.6-0.2-1-0.9-0.7-1.5
						c0.1-0.2,0.3-0.4,0.4-0.7c0.2-0.4,0.3-0.7,0.2-1.1c0,0,0-0.1-0.1-0.1c-2.1-0.5-4.2-0.2-6,0.9C64.5,126.6,64.6,126.8,64.8,126.7
						L64.8,126.7z"/>
				</g>
			</g>
		</g>
		<g>
			<g>
				<g>
					<path d="M63.7,127.2c0.7,0,0.7-1,0-1S63.1,127.2,63.7,127.2L63.7,127.2z"/>
				</g>
			</g>
		</g>
		<g>
			<g>
				<g>
					<path d="M49.7,125.9c0.7,0,0.7-1,0-1C49.1,124.9,49.1,125.9,49.7,125.9L49.7,125.9z"/>
				</g>
			</g>
		</g>
		<g>
			<g>
				<g>
					<path d="M38.4,115.7c0,0.1,0,0.1,0,0.2c0,0.3,0.2,0.5,0.5,0.5s0.5-0.2,0.5-0.5c0-0.1,0-0.1,0-0.2c0-0.3-0.2-0.5-0.5-0.5
						C38.7,115.2,38.4,115.4,38.4,115.7L38.4,115.7z"/>
				</g>
			</g>
		</g>
		<g>
			<g>
				<g>
					<path d="M36.5,101.3c0.7,0,0.7-1,0-1C35.9,100.3,35.9,101.3,36.5,101.3L36.5,101.3z"/>
				</g>
			</g>
		</g>
		<g>
			<g>
				<g>
					<path d="M38.7,89.2c0.7,0,0.7-1,0-1C38.1,88.2,38.1,89.2,38.7,89.2L38.7,89.2z"/>
				</g>
			</g>
		</g>
		<g>
			<g>
				<g>
					<path d="M68.1,29.5c-0.3,0.5-1.4-1.2-1.6-1.4c-0.4-0.6-0.6-1.3-0.8-2c-0.2-0.8-0.3-1.6,0-2.4c0.3-0.7,1-1.1,1.8-0.8
						c0.5,0.2,0.7,0.9,0.8,1.4c0.1,0,0.1-0.1,0.2-0.1c-0.6-0.3-1-0.9-1.1-1.6c-0.1-0.5-0.1-1.6,0.7-1.1c0.1,0.1,0.2,0,0.2-0.1
						c-0.6-3,0.2-6.1,2.1-8.4c0.1-0.1-0.1-0.3-0.2-0.2c-2,2.4-2.8,5.6-2.2,8.7c0.1,0,0.1-0.1,0.2-0.1c-0.2-0.1-0.3-0.2-0.5-0.3
						c-0.1,0-0.1,0-0.2,0c-0.8,1.2-0.4,2.8,0.9,3.5c0.1,0.1,0.2,0,0.2-0.1c-0.2-0.9-0.8-1.8-1.8-1.7c-1.2,0.1-1.6,1.5-1.5,2.5
						c0.1,1.5,0.7,2.9,1.6,4c0.3,0.3,1,1.2,1.4,0.6C68.4,29.5,68.2,29.4,68.1,29.5L68.1,29.5z"/>
				</g>
			</g>
		</g>
		<g>
			<g>
				<g>
					<path d="M69.7,29.7c-0.8-0.8-1.2-1.8-1.2-2.9c0-0.2-0.2-0.2-0.2,0c-0.1,1.2,0.4,2.3,1.3,3.1C69.7,30,69.9,29.8,69.7,29.7
						L69.7,29.7z"/>
				</g>
			</g>
		</g>
		<g>
			<g>
				<g>
					<path d="M70.9,29.4c-0.1-0.4-0.3-0.9-0.4-1.3c0-0.2-0.3-0.1-0.2,0.1c0.1,0.4,0.3,0.9,0.4,1.3C70.8,29.6,71,29.5,70.9,29.4
						L70.9,29.4z"/>
				</g>
			</g>
		</g>
		<g>
			<g>
				<g>
					<path d="M54.4,57.1c0.2,0,0.2-0.2,0-0.2C54.2,56.9,54.2,57.1,54.4,57.1L54.4,57.1z"/>
				</g>
			</g>
		</g>
		<g>
			<g>
				<g>
					<path d="M56.3,54.3c0.2,0,0.2-0.2,0-0.2C56.1,54.1,56.1,54.3,56.3,54.3L56.3,54.3z"/>
				</g>
			</g>
		</g>
		<g>
			<g>
				<g>
					<path d="M58.5,57.1c-0.3,0-0.2,0.4,0,0.4c0.2,0,0.2-0.3,0-0.2c0,0,0.1,0,0.1,0.1c0,0,0,0-0.1,0C58.7,57.3,58.7,57.1,58.5,57.1
						L58.5,57.1z"/>
				</g>
			</g>
		</g>
		<g>
			<g>
				<g>
					<path d="M82.5,57.1c0.2,0,0.2-0.2,0-0.2S82.4,57.1,82.5,57.1L82.5,57.1z"/>
				</g>
			</g>
		</g>
		<g>
			<g>
				<g>
					<path d="M82.9,53.2c0.1,0,0.1,0,0.2,0c0.2,0,0.2-0.2,0-0.2c-0.1,0-0.1,0-0.2,0C82.8,52.9,82.8,53.2,82.9,53.2L82.9,53.2z"/>
				</g>
			</g>
		</g>
		<g>
			<g>
				<g>
					<path d="M86.3,55.6c-0.1,0-0.1,0-0.2,0c-0.2,0-0.2,0.2,0,0.2c0.1,0,0.1,0,0.2,0C86.4,55.8,86.4,55.6,86.3,55.6L86.3,55.6z"/>
				</g>
			</g>
		</g>
	</g>
</g>
</svg>
