<?xml version="1.0" encoding="utf-8"?>
<!-- Generator: Adobe Illustrator 24.0.1, SVG Export Plug-In . SVG Version: 6.00 Build 0)  -->
<svg version="1.1" id="Layer_1" xmlns="http://www.w3.org/2000/svg" xmlns:xlink="http://www.w3.org/1999/xlink" x="0px" y="0px"
	 viewBox="0 0 141.7 141.7" style="enable-background:new 0 0 141.7 141.7;" xml:space="preserve">
<style type="text/css">
	.st0{fill:#070707;}
	.st1{fill:#231F20;}
</style>
<g id="Layer_1_1_">
</g>
<g id="Layer_1_2_">
</g>
<g id="Layer_1_3_">
</g>
<g id="Layer_1_4_">
</g>
<g id="Layer_1_5_">
</g>
<g id="Layer_3">
</g>
<g id="Layer_3_1_">
</g>
<g id="Layer_1_6_">
</g>
<g id="Layer_1_7_">
</g>
<g id="Layer_1_8_">
</g>
<g id="Layer_1_9_">
</g>
<g id="Layer_1_10_">
</g>
<g id="Layer_1_11_">
</g>
<g id="Layer_1_12_">
</g>
<g id="Layer_1_13_">
</g>
<g id="Layer_1_14_">
</g>
<g id="Layer_1_15_">
</g>
<g id="Layer_1_16_">
</g>
<g id="Layer_1_17_">
</g>
<g id="Layer_1_18_">
</g>
<g id="Layer_1_19_">
</g>
<g id="Layer_1_20_">
</g>
<g id="Layer_2_1_">
</g>
<g id="Layer_1_21_">
</g>
<g id="Layer_1_22_">
</g>
<g id="Layer_1_23_">
</g>
<g id="Layer_1_24_">
</g>
<g id="Layer_1_25_">
</g>
<g id="Layer_1_26_">
</g>
<g>
	<g>
		<g>
			<g>
				<g>
					<path class="st0" d="M63.7,128c3-0.4,6.2-0.8,8.9-2.4c2.4-1.4,3.9-3.7,5.2-6c1.6-2.8,3.5-5.1,6.5-6.5c3.2-1.5,6.8-1.9,10.1-3.1
						c4.8-1.7,9-4.8,11.1-9.6c2.5-5.8,2-12.6-0.5-18.3c-1.4-3.3-3.5-6.5-5.5-9.5c-1.4-2-3.8-5.2-6.6-4.6c-0.5,0.1-0.3,0.8,0.2,0.7
						c3-0.7,5.5,3.9,6.9,5.9c1.7,2.7,3.5,5.4,4.7,8.4c2.2,5.7,2.6,12.4-0.2,17.9c-2.4,4.7-7,7.4-11.9,8.9c-5,1.5-10.1,2.2-13.5,6.5
						c-1.8,2.3-2.8,5.3-5,7.3c-2.7,2.5-6.8,3.1-10.3,3.6C63.2,127.3,63.2,128,63.7,128L63.7,128z"/>
				</g>
			</g>
		</g>
		<g>
			<g>
				<g>
					<path class="st0" d="M33.9,106.7c1.2,5.1,4.4,9.5,7.8,13.3c3.5,3.9,7.7,7.1,13,8.1c0.5,0.1,0.7-0.6,0.2-0.7
						c-5.2-0.9-9.2-4-12.7-7.9c-3.4-3.8-6.5-8-7.6-13C34.5,106,33.8,106.2,33.9,106.7L33.9,106.7z"/>
				</g>
			</g>
		</g>
		<g>
			<g>
				<g>
					<path class="st0" d="M48.8,76.9c-8.5,5.5-14.8,14.6-15.4,24.8c0,0.5,0.7,0.5,0.7,0c0.6-10,6.7-18.9,15-24.2
						C49.6,77.3,49.2,76.6,48.8,76.9L48.8,76.9z"/>
				</g>
			</g>
		</g>
		<g>
			<g>
				<g>
					<path class="st0" d="M83.4,86.3c0,0.1,0.1,0.1,0.1,0.2c0.1-0.1,0.2-0.1,0.3-0.2c-0.3-0.3-0.5-0.7-0.9-1
						c-0.4-0.4-0.9-0.7-1.4-0.9c-0.7-0.3-1.5-0.5-2.1-0.1c-0.8,0.5-1,1.7-0.9,2.5c0.2,1.7,1.7,2.8,2,4.4c0.4,1.6-0.5,4.8,2.3,4.6
						c2.2-0.2,2.6-3.1,2.7-4.8c0-0.2-0.4-0.2-0.4,0c-0.1,1.5-0.7,5.2-3,4.4c-1.7-0.6-0.9-3.2-1.3-4.6c-0.3-0.8-0.8-1.5-1.2-2.2
						c-0.6-1-1.4-3.1-0.1-4c0.8-0.5,1.9,0.2,2.5,0.6c0.6,0.4,0.9,1,1.4,1.4c0.1,0.1,0.4,0,0.3-0.2c0-0.1-0.1-0.1-0.1-0.2
						C83.6,85.9,83.3,86.1,83.4,86.3L83.4,86.3z"/>
				</g>
			</g>
		</g>
		<g>
			<g>
				<g>
					<path class="st0" d="M80.7,92.9c-0.8,0.6-1.9,1.2-2.9,1.1c-0.6,0-1.4-0.4-1.5-1c-0.1-0.8,0.4-1.1,0.8-1.5
						c0.2-0.1-0.1-0.4-0.3-0.3c-0.4,0.4-0.9,0.7-1,1.3c-0.1,0.6,0.3,1.2,0.7,1.5c1.2,1,3.3,0,4.3-0.8C81.1,93.1,80.8,92.7,80.7,92.9
						L80.7,92.9z"/>
				</g>
			</g>
		</g>
		<g>
			<path class="st0" d="M93.7,102.7c-4,0-7.2-3.3-7.2-7.2c0-4,3.3-7.2,7.2-7.2c4,0,7.2,3.3,7.2,7.2C101,99.4,97.7,102.7,93.7,102.7z
				 M93.7,88.6c-3.8,0-6.8,3.1-6.8,6.8c0,3.8,3.1,6.8,6.8,6.8c3.8,0,6.8-3.1,6.8-6.8C100.5,91.7,97.5,88.6,93.7,88.6z"/>
		</g>
		<g>
			<path class="st0" d="M88.1,85.9c-3.1,0-6.1-2.1-7-5.2c-0.5-1.9-0.3-3.8,0.6-5.5c0.9-1.7,2.5-2.9,4.3-3.5c1.9-0.5,3.8-0.3,5.5,0.6
				c1.7,0.9,2.9,2.5,3.5,4.3c0.5,1.9,0.3,3.8-0.6,5.5c-0.9,1.7-2.5,2.9-4.3,3.5C89.4,85.8,88.8,85.9,88.1,85.9z M88.1,71.8
				c-0.6,0-1.3,0.1-1.9,0.3c-1.8,0.5-3.2,1.7-4.1,3.3c-0.9,1.6-1.1,3.4-0.6,5.2c1.1,3.6,4.8,5.7,8.4,4.7l0,0
				c1.8-0.5,3.2-1.7,4.1-3.3c0.9-1.6,1.1-3.4,0.6-5.2c-0.5-1.8-1.7-3.2-3.3-4.1C90.4,72.1,89.2,71.8,88.1,71.8z"/>
		</g>
		<g>
			<path class="st0" d="M85.9,91.8c0.9-0.3,1.3-1.8,0.8-3.5c-0.5-1.7-1.6-2.8-2.5-2.5c-0.9,0.3-1.3,1.8-0.8,3.5
				C83.8,90.9,85,92,85.9,91.8z"/>
		</g>
		<g>
			<path class="st0" d="M94.5,91.4c-0.4-1.2-1.6-1.9-2.8-1.6c-1.2,0.4-1.9,1.6-1.6,2.8c0.4,1.2,1.6,1.9,2.8,1.6
				C94.2,93.9,94.8,92.6,94.5,91.4z M91.1,93.3c-0.1-0.4,0.1-0.7,0.4-0.8c0.4-0.1,0.7,0.1,0.8,0.4c0.1,0.4-0.1,0.7-0.4,0.8
				C91.6,93.8,91.3,93.6,91.1,93.3z"/>
		</g>
		<g>
			<path class="st0" d="M89,74.3c-0.4-1.2-1.6-1.9-2.8-1.6c-1.2,0.4-1.9,1.6-1.6,2.8c0.4,1.2,1.6,1.9,2.8,1.6
				C88.7,76.8,89.4,75.6,89,74.3z M85.7,76.3c-0.1-0.4,0.1-0.7,0.4-0.8c0.4-0.1,0.7,0.1,0.8,0.4c0.1,0.4-0.1,0.7-0.4,0.8
				C86.1,76.8,85.8,76.6,85.7,76.3z"/>
		</g>
		<g>
			<g>
				<g>
					<path class="st0" d="M80.4,90.2c-1,0.5-5.8,1.9-5-0.7c0.4-1.3,2.6-1.6,3.7-1.6c0.2,0,0.2-0.4,0-0.4c-1.5,0-4.4,0.6-4.1,2.6
						c0.4,2.4,4.3,1,5.6,0.4C80.8,90.4,80.6,90.1,80.4,90.2L80.4,90.2z"/>
				</g>
			</g>
		</g>
		<g>
			<g>
				<g>
					<path class="st0" d="M106.4,97.1c2.6,1.8,5.1,4.9,3.2,8.1c-1.7,2.9-5.8,4.2-8.4,1.6c-0.3-0.3-0.9,0.2-0.5,0.5
						c2.8,2.8,7.3,1.7,9.3-1.4c2.4-3.7-0.2-7.3-3.3-9.5C106.4,96.2,106,96.9,106.4,97.1L106.4,97.1z"/>
				</g>
			</g>
		</g>
		<g>
			<g>
				<g>
					<path class="st0" d="M32.4,101.5c2.6,0.6,1.7,3.6,2.3,5.5c0.1-0.1,0.2-0.1,0.3-0.2c-2.2-1.2-7,0.5-8.1-2.3
						c-1.5-3.8,4.4-3.2,6.3-2.8c0.2,0.1,0.3-0.3,0.1-0.4c-2-0.4-6.8-1.2-7,1.9c-0.4,4.5,6.1,2.5,8.5,3.8c0.1,0.1,0.3-0.1,0.3-0.2
						c-0.6-2.1,0.3-5.2-2.5-5.8C32.3,101.1,32.2,101.5,32.4,101.5L32.4,101.5z"/>
				</g>
			</g>
		</g>
		<g>
			<g>
				<g>
					<path class="st0" d="M26.9,104.3c0.5-1.3,2-1.5,3.2-1.3c0.2,0,0.3-0.3,0.1-0.4c-1.5-0.3-3.1,0-3.7,1.5
						C26.4,104.4,26.8,104.5,26.9,104.3L26.9,104.3z"/>
				</g>
			</g>
		</g>
		<g>
			<g>
				<g>
					<path class="st0" d="M60.1,130.4c-1.6-0.4-2.7-1.4-4.2-2c-0.8-0.3-1.2-0.7-0.7-1.8c0.3-0.7,1.1-1.7,1.8-2
						c1.9-0.9,4,0.3,5.2,1.8c0.7,0.9,1.2,2.2,0.4,3.3C62.1,130.5,60.9,130.5,60.1,130.4c-0.3,0-0.3,0.4-0.1,0.4
						c1.7,0.2,3.6-0.6,3.3-2.6c-0.3-2-2.6-3.9-4.6-4.1c-1.2-0.1-2.2,0.4-3,1.2c-0.6,0.6-1.5,1.7-1.3,2.6c0.1,0.8,0.7,0.8,1.3,1
						c1.5,0.6,2.6,1.6,4.2,1.9C60.2,130.9,60.3,130.5,60.1,130.4z"/>
				</g>
			</g>
		</g>
		<g>
			<g>
				<g>
					<path class="st0" d="M59.8,127.3c1.1,0.6,2.2,1.5,2.7,2.7c0.1,0.2,0.4,0.1,0.4-0.1c-0.5-1.3-1.6-2.3-2.8-2.9
						C59.7,126.9,59.6,127.2,59.8,127.3L59.8,127.3z"/>
				</g>
			</g>
		</g>
		<g>
			<g>
				<g>
					<path class="st0" d="M63.7,76.7c-0.4-0.4-1.1-0.5-1.6-0.7c-1.1-0.6-2.1-1.8-2.4-3c-0.4-1.8,0.9-3.7,2.8-2.4
						c1.1,0.7,1.6,2,2.1,3.2c0.1,0.2,0.4,0,0.3-0.2c-0.6-1.4-1.4-3.1-3-3.7c-0.9-0.4-1.8,0-2.3,0.9c-0.7,1.2-0.4,2.7,0.3,3.8
						c0.4,0.6,0.9,1.1,1.5,1.5c0.6,0.4,1.4,0.5,1.9,0.9C63.7,77.2,63.9,76.9,63.7,76.7L63.7,76.7z"/>
				</g>
			</g>
		</g>
		<g>
			<g>
				<g>
					<path class="st0" d="M62.1,72.4c-0.7-0.6-1.4-1.7-0.5-2.5c0.2-0.1-0.1-0.4-0.3-0.3c-1.1,0.9-0.4,2.3,0.5,3
						C62,72.8,62.3,72.5,62.1,72.4L62.1,72.4z"/>
				</g>
			</g>
		</g>
		<g>
			<path class="st0" d="M107,104c0.8-0.5,1-1.6,0.4-2.3s-1.6-1-2.3-0.4s-1,1.6-0.4,2.3C105.1,104.3,106.2,104.5,107,104z"/>
		</g>
		<g>
			<g>
				<g>
					<path class="st0" d="M49.5,77.1c-1-0.8-1.7-1.9-2-3.1c-0.1-0.4-0.3-0.9-0.3-1.4c-0.1-0.7,0.3-1.7,1.2-1.4
						c0.2,0.1,0.3-0.3,0.1-0.4c-1.3-0.5-1.8,0.5-1.7,1.7c0.1,1.7,1.1,3.6,2.5,4.7C49.5,77.5,49.7,77.3,49.5,77.1L49.5,77.1z"/>
				</g>
			</g>
		</g>
		<g>
			<g>
				<g>
					<path class="st0" d="M48.9,72.7c-0.1-0.2-0.3-0.6-0.2-0.9c0.1-0.5,0.6-0.6,1-0.3c0.5,0.3,0.7,0.9,0.9,1.4
						c0.3,0.9,0.4,1.8,0.4,2.7c0,0.2,0.4,0.2,0.4,0c0.1-1.4-0.2-3.4-1.3-4.4c-0.4-0.3-1-0.6-1.5-0.3c-0.5,0.4-0.2,1.3,0,1.8
						C48.7,73,49,72.9,48.9,72.7L48.9,72.7z"/>
				</g>
			</g>
		</g>
		<g>
			<g>
				<g>
					<path class="st0" d="M44,78.2c1.4-0.2,2.7-0.4,4.1-0.7c0.5-0.1,0.3-0.8-0.2-0.7c-1.4,0.2-2.7,0.4-4.1,0.7
						C43.3,77.6,43.5,78.3,44,78.2L44,78.2z"/>
				</g>
			</g>
		</g>
		<g>
			<g>
				<g>
					<path class="st0" d="M52.1,77.5c2.7-0.5,5.3-0.8,8.1-1c0.5,0,0.5-0.8,0-0.7c-2.8,0.2-5.5,0.6-8.2,1.1
						C51.4,76.8,51.6,77.6,52.1,77.5L52.1,77.5z"/>
				</g>
			</g>
		</g>
		<g>
			<g>
				<g>
					<path class="st0" d="M64.7,74.1c-0.1,0.5-0.1,0.9,0.1,1.3c0.1,0.2,0.2,0.3,0.4,0.3c4.2-1.1,8.4-2,12.6-2.8
						c0.5-0.1,0.3-0.8-0.2-0.7C73.4,73,69.2,73.9,65,75c0.1,0.1,0.3,0.2,0.4,0.3c0-0.3-0.1-0.6-0.1-0.9
						C65.5,73.8,64.8,73.6,64.7,74.1L64.7,74.1z"/>
				</g>
			</g>
		</g>
		<g>
			<g>
				<g>
					<path class="st0" d="M76.8,73c5.3-1.5,10.8-2.3,15.9-4.3c1.2-0.4,3.4-0.8,3.1-2.4c-0.2-1.2-0.9-2.5-1.4-3.6
						c-0.6-1.3-1.2-2.6-1.9-3.9c-0.2-0.4-0.9-0.1-0.7,0.4c1.1,2.1,2.1,4.3,2.9,6.6c0.3,0.9,0.3,1-0.4,1.5c-0.5,0.4-1.3,0.5-1.9,0.8
						c-1,0.4-2,0.7-3,1c-4.2,1.3-8.6,2.1-12.9,3.3C76.1,72.4,76.3,73.1,76.8,73L76.8,73z"/>
				</g>
			</g>
		</g>
		<g>
			<g>
				<g>
					<path class="st0" d="M44,77.8c-0.5-1.2-1.4-2.8-1.4-4.2c-0.1-1.1,0.7-1.3,1.6-1.6c0.7-0.2,1.4-0.4,2.1-0.5
						c0.5-0.1,0.3-0.8-0.2-0.7c-1.2,0.2-4,0.6-4.3,2c-0.2,0.7,0.2,1.7,0.4,2.4c0.3,1,0.7,2,1.1,3C43.5,78.6,44.1,78.2,44,77.8
						L44,77.8z"/>
				</g>
			</g>
		</g>
		<g>
			<g>
				<g>
					<path class="st0" d="M42.8,72.8C42,71.2,41,68.7,42.1,67c1.3-2,5-1.7,7-2c4.7-0.6,9.4-1.1,14.1-1.7c9.4-1.1,18.8-2.3,28.3-3.4
						c0.5-0.1,0.5-0.8,0-0.7c-11,1.3-22,2.6-32.9,3.9c-2.8,0.3-5.5,0.7-8.2,1c-2.3,0.3-4.9,0.2-7,1c-3.5,1.4-2.4,5.4-1.2,8
						C42.3,73.7,43,73.3,42.8,72.8L42.8,72.8z"/>
				</g>
			</g>
		</g>
		<g>
			<g>
				<g>
					<path class="st0" d="M91.9,59.9c6.9-8,13.8-15.9,20.8-23.9c-0.2,0-0.4-0.1-0.6-0.1c0.9,1.4,1.7,2.7,2.6,4.1
						c0.4,0.6,0.9,1.2,1.2,1.9c0.3,0.9-0.4,1.4-1,2c-2.2,2.5-4.3,5-6.5,7.6c-4.3,5-8.7,10.1-13,15.1c-0.3,0.4,0.2,0.9,0.5,0.5
						c7-8.2,14-16.4,21-24.5c0.1-0.1,0.1-0.3,0.1-0.4c-1.4-2.2-2.8-4.4-4.2-6.7c-0.1-0.2-0.4-0.3-0.6-0.1
						c-6.9,8-13.8,15.9-20.8,23.9C91,59.7,91.6,60.2,91.9,59.9L91.9,59.9z"/>
				</g>
			</g>
		</g>
		<g>
			<g>
				<g>
					<path class="st0" d="M41.5,67.2c4.3-4.1,8.3-8.5,12-13.2c0.3-0.4-0.2-0.9-0.5-0.5c-3.7,4.7-7.7,9.1-12,13.2
						C40.6,67.1,41.2,67.6,41.5,67.2L41.5,67.2z"/>
				</g>
			</g>
		</g>
		<g>
			<g>
				<g>
					<path class="st0" d="M112.1,36.3c0.8-0.2,0.4-1-0.2-1.2c-0.8-0.2-2.2,0.2-3,0.4c-1.4,0.2-2.8,0.5-4.2,0.9
						c-0.5,0.1-0.3,0.8,0.2,0.7c1.1-0.3,2.2-0.6,3.3-0.8c0.6-0.1,1.2-0.2,1.8-0.3c0.3-0.1,0.7-0.1,1-0.1c0.4,0.1,0.6,0,0.8-0.3
						C111.5,35.7,111.7,36.4,112.1,36.3L112.1,36.3z"/>
				</g>
			</g>
		</g>
		<g>
			<g>
				<g>
					<path class="st0" d="M45.5,48.1c0.3,2.2,0.7,4.4,0.9,6.5c0,0.1,0.2,0.3,0.4,0.3c6.7-0.8,13.3-1.5,20-2.3
						c6.6-0.7,13.3-2,19.9-1.6c0.2,0,0.4-0.2,0.4-0.5c-0.7-2.5-1.8-4.7-3.4-6.6c-0.3-0.4-0.8,0.1-0.5,0.5c1.5,1.9,2.6,4,3.2,6.3
						c0.1-0.1,0.2-0.3,0.4-0.5c-3.9-0.2-7.8,0.2-11.7,0.7c-3.8,0.4-7.6,0.9-11.4,1.3c-3.8,0.4-7.6,0.9-11.4,1.3
						c-1,0.1-2,0.2-2.9,0.3c-0.4,0-0.8,0.1-1.2,0.1c-0.9,0-0.8,0.1-1-0.7c-0.4-1.7-0.5-3.7-0.8-5.5C46.1,47.4,45.4,47.6,45.5,48.1
						L45.5,48.1z"/>
				</g>
			</g>
		</g>
		<g>
			<g>
				<g>
					<path class="st0" d="M83.1,44.7c4.7-3,9.3-6.1,13.8-9.4c2.3-1.6,4.5-3.3,6.7-5c0.9-0.7,1.8-1.4,2.7-2.1
						c1.2-0.9,2.1-0.9,2.8,0.4c0.5,0.8,0.7,1.7,0.8,2.6c0,0.5,0.8,0.5,0.7,0c-0.1-1.5-1-4.8-3.1-4.6c-1.2,0.1-2.6,1.7-3.5,2.4
						c-1.4,1.1-2.8,2.1-4.2,3.2c-5.6,4.2-11.3,8.1-17.2,11.9C82.3,44.3,82.7,45,83.1,44.7L83.1,44.7z"/>
				</g>
			</g>
		</g>
		<g>
			<g>
				<g>
					<path class="st0" d="M87,51.2c8.2-6.3,16.1-12.7,23.9-19.4c0.4-0.3-0.2-0.8-0.5-0.5c-7.8,6.6-15.7,13.1-23.8,19.3
						C86.2,50.9,86.6,51.5,87,51.2L87,51.2z"/>
				</g>
			</g>
		</g>
		<g>
			<g>
				<g>
					<path class="st0" d="M45.6,48.8c12.6-0.8,25.1-2.3,37.5-4.4c0.5-0.1,0.3-0.8-0.2-0.7c-12.4,2.1-24.8,3.5-37.4,4.3
						C45.2,48.1,45.2,48.8,45.6,48.8L45.6,48.8z"/>
				</g>
			</g>
		</g>
		<g>
			<g>
				<g>
					<path class="st0" d="M46.1,47.9c2.5-1.7,4.9-3.5,7.3-5.3c0.4-0.3,0-0.9-0.4-0.7c-2.4,1.8-4.9,3.6-7.3,5.3
						C45.4,47.5,45.7,48.2,46.1,47.9L46.1,47.9z"/>
				</g>
			</g>
		</g>
		<g>
			<g>
				<g>
					<path class="st0" d="M40.1,43c11.4-0.9,22.9-1.2,34.3-0.8c0.5,0,0.5-0.7,0-0.7c-11.4-0.4-22.9-0.1-34.3,0.8
						C39.6,42.3,39.6,43,40.1,43L40.1,43z"/>
				</g>
			</g>
		</g>
		<g>
			<g>
				<g>
					<path class="st0" d="M74.8,42.3c-0.7-1.6-1.2-3.3-1.6-5c-0.1-0.6-0.3-0.9,0-1.5c0.2-0.3,0.9-0.6,1.2-0.8c0.8-0.5,1.7-1,2.5-1.6
						c3.4-2.1,6.8-4.3,10.2-6.4c6.8-4.3,13.5-8.5,20.3-12.8c0.4-0.3,0-0.9-0.4-0.7c-11.6,7.3-23.2,14.5-34.7,21.8
						c-0.1,0.1-0.2,0.2-0.2,0.4c0.4,2.3,1,4.5,1.9,6.6C74.2,42.9,74.9,42.7,74.8,42.3L74.8,42.3z"/>
				</g>
			</g>
		</g>
		<g>
			<g>
				<g>
					<path class="st0" d="M75,42.8c10.8-7.5,22-14.4,33.6-20.7c0.4-0.2,0.1-0.9-0.4-0.7c-11.5,6.3-22.7,13.3-33.6,20.7
						C74.2,42.5,74.6,43.1,75,42.8L75,42.8z"/>
				</g>
			</g>
		</g>
		<g>
			<g>
				<g>
					<path class="st0" d="M108,26.9c-4.4,0.2-8.8,0.8-13.1,1.8c-0.5,0.1-0.3,0.8,0.2,0.7c4.2-1,8.5-1.6,12.9-1.8
						C108.4,27.7,108.4,26.9,108,26.9L108,26.9z"/>
				</g>
			</g>
		</g>
		<g>
			<g>
				<g>
					<path class="st0" d="M39.9,42.7c-0.8-0.8-2.2-2.2-0.5-3.3c0.6-0.4,1.5-0.5,2.2-0.7c1.5-0.4,2.9-0.7,4.4-0.9c3-0.6,6-1,9.1-1.3
						c5.9-0.6,11.8-0.6,17.7-0.2c0.5,0,0.5-0.7,0-0.7c-7.4-0.6-14.9-0.3-22.3,0.7c-3.6,0.5-7.4,1-10.8,2.2c-2.7,0.9-1.9,3.2-0.3,4.8
						C39.7,43.5,40.3,43,39.9,42.7L39.9,42.7z"/>
				</g>
			</g>
		</g>
		<g>
			<g>
				<g>
					<path class="st0" d="M52.4,71.7c1.9-0.3,3.8-0.5,5.8-0.6c0.5,0,0.5-0.8,0-0.7c-2,0.1-4,0.4-6,0.7C51.7,71,51.9,71.7,52.4,71.7
						L52.4,71.7z"/>
				</g>
			</g>
		</g>
		<g>
			<g>
				<g>
					<path class="st0" d="M65.4,70.6c6.9-1.8,13.8-3.9,20.8-5.2c0.5-0.1,0.3-0.8-0.2-0.7c-7,1.3-13.9,3.4-20.8,5.2
						C64.8,70,65,70.7,65.4,70.6L65.4,70.6z"/>
				</g>
			</g>
		</g>
		<g>
			<g>
				<g>
					<path class="st0" d="M43,70.5c8-1.5,16-2.8,24.1-3.8c0.5-0.1,0.5-0.8,0-0.7c-8.1,1-16.2,2.3-24.3,3.8
						C42.3,69.8,42.5,70.6,43,70.5L43,70.5z"/>
				</g>
			</g>
		</g>
		<g>
			<g>
				<g>
					<path class="st0" d="M47.2,53.2c10.5-0.9,21-2.3,31.4-4.1c0.5-0.1,0.3-0.8-0.2-0.7c-10.3,1.8-20.8,3.1-31.2,4.1
						C46.7,52.5,46.7,53.2,47.2,53.2L47.2,53.2z"/>
				</g>
			</g>
		</g>
		<g>
			<g>
				<g>
					<path class="st0" d="M52.1,51c6.4-0.9,12.8-1.6,19.2-2.1c0.5,0,0.5-0.8,0-0.7c-6.5,0.5-13,1.2-19.4,2.2
						C51.5,50.3,51.6,51,52.1,51L52.1,51z"/>
				</g>
			</g>
		</g>
		<g>
			<g>
				<g>
					<path class="st0" d="M47.2,40.9c6.2-0.4,12.4-0.5,18.6-0.4c0.5,0,0.5-0.7,0-0.7c-6.2-0.1-12.4,0.1-18.6,0.4
						C46.7,40.2,46.7,40.9,47.2,40.9L47.2,40.9z"/>
				</g>
			</g>
		</g>
		<g>
			<g>
				<g>
					<path class="st0" d="M107.1,14.7c1.3,2.2,1.8,4.7,1.5,7.2c-0.1,0.4,0.6,0.4,0.7,0.1c0.1-0.2,0.1-0.4,0.2-0.6
						c0.2-0.4-0.5-0.7-0.7-0.2c-0.1,0.2-0.1,0.4-0.2,0.6c0.2,0,0.5,0.1,0.7,0.1c0.3-2.7-0.2-5.3-1.6-7.6
						C107.6,13.9,106.9,14.3,107.1,14.7L107.1,14.7z"/>
				</g>
			</g>
		</g>
		<g>
			<g>
				<g>
					<path class="st0" d="M96.4,66.1c5.3-2.5,10.7-5,16-7.5c0.7-0.4,1.5-0.6,1.7-1.4c0.2-0.8,0-1.8-0.2-2.6
						c-0.5-1.9-1.7-3.5-3.3-4.6c-0.4-0.3-0.8,0.4-0.4,0.7c1.8,1.2,3,3,3.2,5.2c0.2,1.6-1,2-2.2,2.5c-1,0.5-2.1,1-3.1,1.5
						c-4,1.9-8.1,3.8-12.1,5.7C95.5,65.7,95.9,66.3,96.4,66.1L96.4,66.1z"/>
				</g>
			</g>
		</g>
		<g>
			<g>
				<g>
					<path class="st0" d="M96.5,69.9c2.3,0.1,4.7,0.3,7,0.4c1.3,0,3.5,0.6,4.5-0.5c0.9-1,1.2-3,1.1-4.3c0-1.7-0.5-3.3-1.4-4.7
						c-0.2-0.4-0.9,0-0.7,0.4c0.8,1.3,1.3,2.8,1.3,4.3c0,1.6-0.3,4.1-2.3,4.1c-3.2,0-6.5-0.2-9.7-0.4C96,69.1,96,69.8,96.5,69.9
						L96.5,69.9z"/>
				</g>
			</g>
		</g>
		<g>
			<g>
				<g>
					<path class="st0" d="M42.2,58.8c-0.5,1.8-0.2,3.6,0.8,5.1c0.3,0.4,0.9,0,0.7-0.4c-0.9-1.4-1.2-3-0.8-4.5
						C43.1,58.5,42.4,58.3,42.2,58.8L42.2,58.8z"/>
				</g>
			</g>
		</g>
		<g>
			<g>
				<g>
					<path class="st0" d="M42.7,59.1c2.4-0.6,4.8-1.2,7.2-1.8c0.5-0.1,0.3-0.8-0.2-0.7c-2.4,0.6-4.8,1.2-7.2,1.8
						C42,58.5,42.2,59.3,42.7,59.1L42.7,59.1z"/>
				</g>
			</g>
		</g>
		<g>
			<g>
				<g>
					<path class="st0" d="M43,64.5c0.1,0.1,0.3,0.1,0.5,0c0.1-0.1,0.2-0.2,0.2-0.4c0-0.4-0.3-0.6-0.7-0.4c-0.2,0.1-0.2,0.4-0.1,0.5
						c0.1,0.2,0.3,0.2,0.5,0.1c0,0,0,0-0.1,0c-0.1,0-0.1,0-0.2,0c-0.1-0.1-0.1-0.1-0.2-0.2c0-0.1,0-0.1,0-0.1s0,0,0,0
						c0-0.1,0.1-0.2,0.2-0.2c0.1,0,0.1,0,0.2,0c0,0,0,0,0.1,0c-0.2-0.1-0.4-0.1-0.5,0.1C42.7,64.2,42.8,64.4,43,64.5L43,64.5z"/>
				</g>
			</g>
		</g>
		<g>
			<g>
				<g>
					<path class="st0" d="M50,57.5c0.1,0,0.2,0,0.3,0c0.5,0,0.5-0.7,0-0.7c-0.1,0-0.2,0-0.3,0C49.5,56.8,49.5,57.5,50,57.5L50,57.5z
						"/>
				</g>
			</g>
		</g>
		<g>
			<g>
				<g>
					<path class="st0" d="M38.4,39.5C51.7,30.2,65.6,21.8,80,14.3c0.4-0.2,0.1-0.9-0.4-0.7c-14.4,7.5-28.3,16-41.6,25.3
						C37.6,39.2,38,39.8,38.4,39.5L38.4,39.5z"/>
				</g>
			</g>
		</g>
		<g>
			<g>
				<g>
					<path class="st0" d="M79.7,14.5c4.6-0.3,9.2-0.6,13.8-0.8c2.3-0.1,4.5-0.2,6.8-0.3c0.8,0,7.1-0.6,7.1,0.5c0,0.5,0.7,0.5,0.7,0
						c0.1-1.6-2.1-1.4-3.1-1.4c-2.7,0.1-5.5,0.1-8.2,0.3c-5.7,0.2-11.3,0.6-17,0.9C79.2,13.8,79.2,14.5,79.7,14.5L79.7,14.5z"/>
				</g>
			</g>
		</g>
		<g>
			<g>
				<g>
					<path class="st0" d="M73.5,37.7c3.7-3,7.6-5.6,11.7-7.9c0.4-0.2,0-0.9-0.4-0.7c-4.2,2.3-8.2,5-11.9,8
						C72.6,37.5,73.2,38,73.5,37.7L73.5,37.7z"/>
				</g>
			</g>
		</g>
		<g>
			<g>
				<g>
					<path class="st0" d="M73.8,39.9c0.8-0.5,1.5-1,2.3-1.5c0.4-0.3,0-0.9-0.4-0.7c-0.8,0.5-1.5,1-2.3,1.5
						C73.1,39.5,73.4,40.2,73.8,39.9L73.8,39.9z"/>
				</g>
			</g>
		</g>
		<g>
			<g>
				<g>
					<path class="st0" d="M107.8,16.2c-3,1.8-6,3.5-8.9,5.3c-0.4,0.2,0,0.9,0.4,0.7c3-1.8,6-3.5,8.9-5.3
						C108.6,16.6,108.2,15.9,107.8,16.2L107.8,16.2z"/>
				</g>
			</g>
		</g>
		<g>
			<g>
				<g>
					<path class="st0" d="M108,18.9c-0.7,0.4-1.4,0.9-2,1.3c-0.4,0.3,0,0.9,0.4,0.7c0.7-0.4,1.4-0.9,2-1.3
						C108.8,19.3,108.4,18.6,108,18.9L108,18.9z"/>
				</g>
			</g>
		</g>
		<g>
			<g>
				<g>
					<path class="st0" d="M88.8,30.7c2-1.2,3.9-2.4,5.9-3.6c0.4-0.2,0-0.9-0.4-0.7c-2,1.2-3.9,2.4-5.9,3.6
						C88,30.3,88.4,30.9,88.8,30.7L88.8,30.7z"/>
				</g>
			</g>
		</g>
		<g>
			<g>
				<g>
					<path class="st0" d="M87.3,44.9c6.7-4.2,13.2-8.6,19.7-13.1c0.4-0.3,0-0.9-0.4-0.7c-6.5,4.5-13,8.9-19.7,13.1
						C86.5,44.6,86.9,45.2,87.3,44.9L87.3,44.9z"/>
				</g>
			</g>
		</g>
		<g>
			<g>
				<g>
					<path class="st0" d="M93.2,43.5c1.6-1,3.1-2.2,4.6-3.4c0.4-0.3-0.1-0.8-0.5-0.5c-1.4,1.2-2.9,2.3-4.5,3.3
						C92.4,43.1,92.8,43.8,93.2,43.5L93.2,43.5z"/>
				</g>
			</g>
		</g>
		<g>
			<g>
				<g>
					<path class="st0" d="M69.7,66.4c1.9-0.6,3.9-1,5.8-1.3c0.5-0.1,0.3-0.8-0.2-0.7c-2,0.3-3.9,0.7-5.8,1.3
						C69,65.8,69.2,66.5,69.7,66.4L69.7,66.4z"/>
				</g>
			</g>
		</g>
		<g>
			<g>
				<g>
					<path class="st0" d="M74.9,124c1,0.9,2.8,0.8,3.5-0.4c0.8-1.3-0.1-3-1.4-3.4c-0.2-0.1-0.3,0.3-0.1,0.4c1.1,0.3,1.8,1.8,1.2,2.8
						c-0.6,1-2.1,1.1-2.9,0.4C75,123.6,74.7,123.9,74.9,124L74.9,124z"/>
				</g>
			</g>
		</g>
	</g>
	<g>
		<g>
			<g>
				<path class="st1" d="M74.9,19.4c0.8-0.4,1.6-0.9,2.5-1.2c0.2-0.1,0.9-0.5,1.1-0.3c0.1,0-0.4,1.5-0.4,1.6c0,0.1,0.1,0.3,0.2,0.2
					c0.8-0.2,1.6-0.4,2.4-0.6c0.7-0.2,1.5-0.9,1.5,0.1c0,0.1,0.1,0.2,0.2,0.2c0.7-0.1,1.4-0.2,2.1-0.4c0.7-0.2,1.2-0.7,1.1,0.2
					c0,0.4-0.3,0.8,0.1,1.2c0.4,0.4,1.1,0.1,1.6-0.1c1.4-0.4,2.7-0.9,4.1-1.4c0.2-0.1,0.1-0.4-0.1-0.4c-1.3,0.4-2.6,0.9-3.9,1.3
					C86.7,20,86,20.2,86,19.3c0-0.3,0.2-0.7,0.2-1.1c0-0.1-0.1-0.2-0.2-0.2c-0.8,0.3-3.4,1.7-3.3,0.2c0-0.1-0.1-0.2-0.2-0.2
					c-0.9,0.4-1.9,0.7-2.8,0.9c-0.3,0.1-0.7,0.3-0.9,0c-0.1-0.1,0.4-1.4,0.4-1.6c0-0.1-0.1-0.3-0.2-0.2c-1.4,0.6-2.7,1.2-4,1.8
					C74.5,19.1,74.7,19.5,74.9,19.4L74.9,19.4z"/>
			</g>
		</g>
	</g>
	<g>
		<g>
			<g>
				<path class="st1" d="M70.1,24.1c0.5-0.2,1-0.6,1.5-0.7c0.5-0.2,0.7-0.5,0.7,0.3c0,0.1,0.1,0.2,0.3,0.1c1.1-0.5,2.3-0.7,3.4-0.4
					c0.4,0.1,0.8,0.4,1.2,0.5c0.1,0,1,0,1,0c-0.1,0-0.1,0-0.2,0c0,0-0.1,0-0.1,0c-0.2,0.1,0,0.4,0.2,0.3c-0.1,0.1,0.4,0.2,0.3,0.1
					c0.1,0,0.1,0,0.2-0.1c0,0,0-0.1,0.1-0.1c0-0.1,0-0.1,0-0.2c-0.2-0.3-0.3-0.2-0.6-0.4c-0.6-0.3-1.7-0.6-2.4-0.7
					c-0.5-0.1-1-0.1-1.5,0c-0.7,0.1-1.5,0.9-1.5-0.2c0-0.1-0.1-0.2-0.3-0.1c-0.8,0.4-1.6,0.8-2.5,1.2C69.6,23.9,69.8,24.2,70.1,24.1
					L70.1,24.1z"/>
			</g>
		</g>
	</g>
	<g>
		<g>
			<g>
				<path class="st1" d="M63.7,28.7c0.3-0.2,0.6-0.5,0.9-0.4c0.3,0,0.5,0.4,0.9,0.4c0.7,0,1.5-0.4,2.2-0.4c1.3-0.1,2.5,0.1,3.7,0.6
					c0.2,0.1,0.4-0.2,0.2-0.3c-0.9-0.4-1.7-0.6-2.7-0.7c-0.7,0-3.9,0.6-4.1,0c0-0.1-0.2-0.2-0.3-0.1c-0.3,0.2-0.7,0.5-1,0.7
					C63.3,28.5,63.5,28.9,63.7,28.7L63.7,28.7z"/>
			</g>
		</g>
	</g>
</g>
</svg>
