<?xml version="1.0" encoding="utf-8"?>
<!-- Generator: Adobe Illustrator 24.0.1, SVG Export Plug-In . SVG Version: 6.00 Build 0)  -->
<svg version="1.1" id="Layer_1" xmlns="http://www.w3.org/2000/svg" xmlns:xlink="http://www.w3.org/1999/xlink" x="0px" y="0px"
	 viewBox="0 0 141.7 141.7" style="enable-background:new 0 0 141.7 141.7;" xml:space="preserve">
<style type="text/css">
	.st0{fill:#070707;}
</style>
<g id="Layer_1_1_">
</g>
<g>
	<g>
		<g>
			<g>
				<path d="M79.1,80c1.6,3.4,3.1,6.7,4.7,10.1c0.1,0.2-0.3,0.4-0.4,0.2c-1.6-3.4-3.1-6.7-4.7-10.1C78.6,79.9,79,79.7,79.1,80
					L79.1,80z"/>
			</g>
		</g>
		<g>
			<g>
				<path d="M53.8,87.5c1.8,5.8,3.7,11.6,5.7,17.4c0.1,0.2-0.3,0.4-0.4,0.2c-2-5.8-3.9-11.7-5.7-17.5C53.3,87.3,53.7,87.3,53.8,87.5
					L53.8,87.5z"/>
			</g>
		</g>
		<g>
			<g>
				<path d="M49.9,90.4c1.7,5.7,3.4,11.5,5,17.2c0.1,0.3-0.3,0.3-0.4,0.1c-1.7-5.7-3.4-11.5-5-17.2C49.4,90.2,49.8,90.1,49.9,90.4
					L49.9,90.4z"/>
			</g>
		</g>
		<g>
			<g>
				<path d="M75.6,77.8c-6.4,0.9-12.8,2.3-19,4.1c-0.2,0.1-0.3-0.4-0.1-0.4c6.2-1.8,12.6-3.2,19-4.1C75.8,77.4,75.9,77.8,75.6,77.8
					L75.6,77.8z"/>
			</g>
		</g>
		<g>
			<g>
				<path d="M50.9,84.4L50.9,84.4c-0.1,0-0.1-0.1-0.2-0.1c0,0-0.1,0.1-0.1,0.1c0,0.1,0,0.1,0,0.2c0,0,0,0,0,0c0,0,0.1,0.1,0.1,0.1
					c0.1,0,0.1,0,0,0c-0.1,0.1-0.1,0.1-0.1,0.2c-0.1,0.1-0.1,0.2-0.2,0.2c-0.2,0.2-0.3,0.4-0.5,0.6c-0.2,0.2-0.5-0.1-0.3-0.3
					c0.2-0.2,0.4-0.5,0.6-0.7c0.1-0.1,0.3-0.4,0.5-0.4c0.4,0,0.4,0.5,0.1,0.5c-0.1,0-0.2,0-0.2-0.1v0C50.5,84.3,50.8,84.1,50.9,84.4
					L50.9,84.4z"/>
			</g>
		</g>
		<g>
			<g>
				<path d="M50.9,84.7C50.8,84.7,50.8,84.7,50.9,84.7c-0.1,0-0.2-0.1-0.2-0.1c-0.1-0.1-0.1-0.2,0-0.3c0-0.1,0.1-0.1,0.2-0.1
					c0.2,0,0.3,0.2,0.5,0.3c0.3,0.3,0.6,0.6,0.8,0.9c0.6,0.6,1.1,1.2,1.7,1.9c-0.1,0-0.2,0.1-0.4,0.1c0.2-0.9,0.9-1.8,1.3-2.6
					c0.6-1,1.1-2,1.6-3c0.1-0.2,0.5,0,0.4,0.2c-0.5,0.9-1,1.9-1.5,2.8c-0.5,0.9-1.1,1.7-1.4,2.7c-0.1,0.2-0.2,0.2-0.4,0.1
					c-0.4-0.5-0.9-1-1.3-1.5c-0.2-0.2-0.4-0.4-0.6-0.6c-0.1-0.1-0.2-0.3-0.4-0.4c-0.1-0.1-0.7-0.7-0.3-0.7
					C51.2,84.3,51.1,84.7,50.9,84.7L50.9,84.7z"/>
			</g>
		</g>
		<g>
			<g>
				<path d="M56.6,81.9c-2.2-0.1-4.3,0.9-5.7,2.6c-0.2,0.2-0.5,0-0.4-0.2c1.5-1.8,3.7-2.9,6.1-2.8C56.9,81.5,56.9,81.9,56.6,81.9
					L56.6,81.9z"/>
			</g>
		</g>
		<g>
			<g>
				<path d="M52.5,82.9c0.4,1.4,0.8,2.8,1.3,4.2c0.1,0.2-0.3,0.4-0.4,0.2c-0.5-1.4-1-2.8-1.4-4.3C52,82.7,52.4,82.7,52.5,82.9
					L52.5,82.9z"/>
			</g>
		</g>
		<g>
			<g>
				<path d="M50,85.5c0.1,1.7,0.1,3.3,0,5c0,0.2-0.3,0.2-0.4,0.1c-0.6-1.3-1.1-2.6-1.6-4c0-0.1,0-0.2,0.1-0.2c0.5-0.4,1-0.8,1.5-1.2
					c0.2-0.2,0.5,0.2,0.3,0.3c-0.4,0.3-0.7,0.6-1.1,0.9c-0.3,0.2-0.2,0.3-0.2,0.7c0.1,0.2,0.1,0.4,0.2,0.6c0.3,0.9,0.7,1.8,1.1,2.7
					c-0.1,0-0.3,0.1-0.4,0.1c0.1-1.6,0.1-3.2,0-4.9C49.5,85.3,50,85.2,50,85.5L50,85.5z"/>
			</g>
		</g>
		<g>
			<g>
				<path d="M83.8,90.3c-0.1,1.1-0.1,2.2-0.1,3.2c-0.1-0.1-0.2-0.1-0.4-0.2c0.6-0.4,1.2-0.8,1.9-1.1c0,0.1-0.1,0.2-0.1,0.3
					c-0.3-0.4-0.6-0.8-0.8-1.2c-0.1-0.2-0.2-0.4-0.4-0.6c-0.1-0.1-0.1-0.2-0.2-0.3c-0.2-0.1-0.2-0.3,0-0.4c-0.1,0-0.2-0.1-0.2-0.1
					c0,0,0,0,0.1,0c0.3-0.1,0.3,0.4,0.1,0.4c0,0,0,0-0.1,0c-0.1,0-0.2-0.1-0.2-0.1c-0.1-0.1-0.1-0.2,0-0.3c0-0.1,0.1-0.1,0.2-0.1
					c0.4,0.1,0.6,0.5,0.8,0.8c0.4,0.5,0.7,1.1,1.1,1.6c0.1,0.1,0.1,0.3-0.1,0.3c-0.7,0.3-1.3,0.6-1.9,1c-0.2,0.1-0.4,0-0.4-0.2
					c0-1.1,0-2.2,0.1-3.2C83.4,90,83.8,90,83.8,90.3L83.8,90.3z"/>
			</g>
		</g>
		<g>
			<g>
				<path d="M79.2,80.5c-1.3-1-2.6-1.9-3.9-2.9c-0.2-0.1-0.1-0.3,0.1-0.4c0.6-0.2,1.2-0.3,1.8-0.4c0.3-0.1,0.7-0.2,1,0.1
					c0.4,0.3,0.5,1,0.7,1.4c0.2,0.6,0.5,1.2,0.7,1.9c0.1,0.2-0.1,0.4-0.3,0.3c-0.1,0-0.2-0.1-0.3-0.1c-0.2-0.1-0.1-0.5,0.1-0.4
					c0.1,0,0.2,0.1,0.3,0.1C79.4,80.2,79.3,80.3,79.2,80.5c-0.3-1-0.7-1.9-1.1-2.7c-0.1-0.3-0.2-0.5-0.6-0.6c-0.2,0-0.4,0.1-0.6,0.1
					c-0.5,0.1-1,0.2-1.4,0.3c0-0.1,0.1-0.2,0.1-0.4c1.3,1,2.6,1.9,3.9,2.9C79.7,80.3,79.4,80.6,79.2,80.5L79.2,80.5z"/>
			</g>
		</g>
		<g>
			<g>
				<path d="M83.5,93.8c-6.9,4.4-13.8,8.7-20.6,13.1c-0.2,0.1-0.4-0.2-0.2-0.4c6.9-4.4,13.8-8.7,20.6-13.1
					C83.6,93.2,83.8,93.6,83.5,93.8L83.5,93.8z"/>
			</g>
		</g>
		<g>
			<g>
				<path d="M59.7,105.2c0.1,0.4,0.3,0.7,0.4,1.1c0.1,0.2,0.2,0.4,0.2,0.6c0.1,0.1,0.1,0.4,0.2,0.5c0,0.1,0.1,0.1,0.1,0.1
					c0.1-0.1,0.2-0.1,0.3-0.1c0.2-0.1,0.3-0.1,0.5-0.2c0.4-0.2,0.7-0.3,1.1-0.5c0,0.1,0,0.3,0,0.4c-1.1-0.5-2.2-1.1-3.1-1.9
					c-0.2-0.2,0-0.5,0.2-0.4c0.9,0.7,1.9,1.4,3,1.8c0.2,0.1,0.2,0.3,0,0.4c-0.5,0.2-1.1,0.5-1.6,0.7c-0.2,0.1-0.5,0.3-0.7,0.2
					c-0.2-0.1-0.4-0.6-0.5-0.9c-0.2-0.6-0.5-1.1-0.7-1.7C59.2,105.1,59.6,104.9,59.7,105.2L59.7,105.2z"/>
			</g>
		</g>
		<g>
			<g>
				<path d="M60.4,108c-1.9,0-3.7,0.1-5.6,0.2c-0.3,0-0.4-0.4-0.1-0.4c1.9-0.1,3.8-0.2,5.7-0.2C60.7,107.6,60.7,108,60.4,108
					L60.4,108z"/>
			</g>
		</g>
		<g>
			<g>
				<path d="M59.2,105.3L59.2,105.3c-0.1,0-0.2-0.1-0.2-0.2c0-0.2,0.2-0.5,0.4-0.3c0.4,0.2,0.1,0.8,0,1.1c-0.1,0.3-0.5,2.4-1.1,1.7
					c-0.2-0.2,0.1-0.5,0.3-0.3c-0.1-0.1-0.1-0.1-0.1-0.2c0-0.1,0.1-0.2,0.1-0.3c0.1-0.2,0.1-0.4,0.2-0.6c0.1-0.2,0.1-0.4,0.2-0.6
					c0-0.1,0.1-0.2,0.1-0.3c0-0.2,0.1-0.3,0.4-0.4c-0.1-0.1-0.1-0.1-0.1-0.2h0C59.7,105,59.5,105.4,59.2,105.3L59.2,105.3z"/>
			</g>
		</g>
		<g>
			<g>
				<path d="M56.3,108c-0.7-0.7-1.4-1.4-2.1-2.1c-0.2-0.2,0.1-0.5,0.3-0.3c0.7,0.7,1.4,1.4,2.1,2.1C56.8,108,56.4,108.2,56.3,108
					L56.3,108z"/>
			</g>
		</g>
		<g>
			<g>
				<path d="M50.7,85.1c1.9,7.5,3.8,15.1,5.7,22.6c0.1,0.3-0.4,0.3-0.4,0.1c-1.9-7.5-3.8-15.1-5.7-22.6
					C50.2,84.9,50.6,84.8,50.7,85.1L50.7,85.1z"/>
			</g>
		</g>
		<g>
			<g>
				<path d="M76,81.2c0.3,0,0.5,0.2,0.6,0.5c0.1,0.2,0.1,0.6-0.2,0.7c-0.3,0.1-0.6-0.1-0.7-0.3c-0.1-0.2-0.1-0.5,0-0.8
					c0.1-0.2,0.5-0.1,0.4,0.1c-0.1,0.2-0.1,0.4,0.1,0.5c0.1,0,0.1,0,0.1,0.1c0,0,0-0.1,0-0.1c0-0.1-0.1-0.3-0.2-0.2
					C75.8,81.6,75.7,81.2,76,81.2L76,81.2z"/>
			</g>
		</g>
		<g>
			<g>
				<path d="M72.9,82.2c0.2,0.2,0.5,0.4,0.5,0.8c0,0.3-0.2,0.5-0.5,0.4c-0.3-0.1-0.5-0.3-0.6-0.6c-0.1-0.3,0-0.6,0.4-0.7
					c0.3-0.1,0.3,0.4,0.1,0.4c-0.1,0,0.1,0.4,0.2,0.4c0.1,0,0-0.1,0-0.1c-0.1-0.1-0.2-0.2-0.3-0.3C72.4,82.4,72.6,82,72.9,82.2
					L72.9,82.2z"/>
			</g>
		</g>
		<g>
			<g>
				<path d="M64.9,84.6c0.2,0.1,0.4,0.2,0.5,0.5c0.1,0.2,0,0.5-0.2,0.6c-0.2,0.1-0.5,0-0.6-0.2c-0.1-0.2-0.2-0.5-0.1-0.7
					c0.1-0.2,0.5-0.1,0.4,0.1c0,0.1-0.1,0.2,0,0.3c0,0.1,0,0.1,0.1,0.1c0,0,0.1,0,0,0c0,0,0-0.1-0.1-0.1C64.8,85,64.8,85,64.7,85
					C64.5,84.9,64.6,84.5,64.9,84.6L64.9,84.6z"/>
			</g>
		</g>
		<g>
			<g>
				<path d="M60.2,85.9c0.3,0.1,0.5,0.3,0.5,0.7c0,0.3-0.2,0.6-0.6,0.5c-0.3,0-0.5-0.2-0.6-0.5c-0.1-0.3,0-0.6,0.3-0.7
					c0.2-0.1,0.4,0.3,0.2,0.4c-0.2,0.1-0.1,0.4,0.1,0.4c0.1,0,0.1,0,0.1-0.1c0-0.1-0.1-0.2-0.2-0.2C59.8,86.2,59.9,85.8,60.2,85.9
					L60.2,85.9z"/>
			</g>
		</g>
		<g>
			<g>
				<path d="M73.1,77.9c0.6,1.1,1,2.1,1.4,3.2c0.1,0.2-0.3,0.4-0.4,0.2c-0.4-1.1-0.9-2.2-1.4-3.2C72.6,77.8,73,77.6,73.1,77.9
					L73.1,77.9z"/>
			</g>
		</g>
		<g>
			<g>
				<path d="M72,78.2c0.5,1,1,2,1.5,3c0.1,0.2-0.2,0.4-0.4,0.2c-0.5-1-1-2-1.5-3C71.5,78.1,71.9,77.9,72,78.2L72,78.2z"/>
			</g>
		</g>
		<g>
			<g>
				<path d="M76.1,81.5c-0.5-0.7-1.4,0-2.1,0.1c-0.2,0-0.5,0-0.8,0.1c-0.5,0.1-0.9,0.5-0.9,1c0,0.4,0.1,0.5,0.4,0.7
					c0.1,0.1,0.3,0.2,0.5,0.2c0.5,0.2,0.8,0,1.2-0.2c0.2-0.1,0.5-0.2,0.7-0.3c0.4-0.1,1.6-0.1,1.3-0.9c-0.1-0.2,0.3-0.4,0.4-0.2
					c0.5,1.4-1.4,1.3-2.1,1.6c-0.5,0.2-0.9,0.5-1.5,0.4c-0.4-0.1-1-0.4-1.2-0.9c-0.5-0.9,0.6-1.9,1.4-2c0.3,0,0.6,0,1-0.1
					c0.3-0.1,0.6-0.2,0.9-0.3c0.5-0.1,0.9,0,1.2,0.4C76.5,81.4,76.2,81.7,76.1,81.5L76.1,81.5z"/>
			</g>
		</g>
		<g>
			<g>
				<path d="M75.7,83.2c0.2,0.4,0.6,0.9,0.9,1.2c0.3,0.3,0.7,0.5,1,0.8c0.3,0.4,0.2,0.9-0.2,1c-0.6,0.2-1.3-0.3-1.7-0.7
					c-0.6-0.5-1-1.2-1.4-1.9c-0.1-0.2,0.2-0.4,0.4-0.2c0.3,0.5,0.6,0.9,0.9,1.3c0.2,0.2,0.4,0.4,0.6,0.6c0.1,0.1,0.2,0.1,0.3,0.2
					c0.2,0.2,0.4,0.2,0.6,0.1c0.2-0.2,0.1-0.2-0.1-0.4c-0.1-0.1-0.2-0.1-0.3-0.2c-0.2-0.1-0.3-0.3-0.5-0.4c-0.4-0.4-0.7-0.8-0.9-1.2
					C75.2,83.1,75.6,82.9,75.7,83.2L75.7,83.2z"/>
			</g>
		</g>
		<g>
			<g>
				<path d="M76.8,85.6c-0.2,0.1-0.4-0.3-0.2-0.4C76.8,85,77,85.5,76.8,85.6L76.8,85.6z"/>
			</g>
		</g>
		<g>
			<g>
				<path d="M76.1,84.9c-0.2,0.1-0.4-0.3-0.2-0.4C76.1,84.4,76.3,84.8,76.1,84.9L76.1,84.9z"/>
			</g>
		</g>
		<g>
			<g>
				<path d="M75.4,84.1c-0.2,0.1-0.4-0.3-0.2-0.4C75.5,83.5,75.6,83.9,75.4,84.1L75.4,84.1z"/>
			</g>
		</g>
		<g>
			<g>
				<path d="M73.7,81c-0.2,0.1-0.4-0.3-0.2-0.4C73.8,80.5,74,80.9,73.7,81L73.7,81z"/>
			</g>
		</g>
		<g>
			<g>
				<path d="M73.5,80.3C73.5,80.3,73.4,80.3,73.5,80.3c-0.1,0.1-0.3,0-0.3-0.1c-0.1-0.1,0-0.2,0.1-0.3c0,0,0,0,0,0
					c0.1-0.1,0.2,0,0.3,0.1C73.6,80.2,73.5,80.3,73.5,80.3L73.5,80.3z"/>
			</g>
		</g>
		<g>
			<g>
				<path d="M76.8,85.9c1.6,3,3,6,4.2,9.2c0.1,0.2-0.3,0.4-0.4,0.2c-1.3-3.1-2.7-6.2-4.2-9.2C76.3,85.8,76.7,85.7,76.8,85.9
					L76.8,85.9z"/>
			</g>
		</g>
		<g>
			<g>
				<path d="M74.3,83.6c1.7,4.2,4.1,8,5.5,12.3c0.1,0.3-0.3,0.3-0.4,0.1c-1.3-4.3-3.7-8.1-5.4-12.2C73.8,83.6,74.2,83.4,74.3,83.6
					L74.3,83.6z"/>
			</g>
		</g>
		<g>
			<g>
				<path d="M65.5,85.4c-0.1,0.5-0.2,1.5-0.7,1.8c-0.3,0.2-0.8,0.1-1.1,0.1c-0.6,0.1-1.1,0.3-1.5,0.6c-0.6,0.4-1.1,0.4-1.9,0.2
					c-0.5-0.1-1.6-0.4-1.8-1c-0.2-0.5,0.5-1.3,0.8-1.7c0.5-0.6,1.1-0.7,1.8-0.9c1.2-0.2,3.4-1.6,4.1,0.1c0.1,0.2-0.3,0.4-0.4,0.2
					c-0.6-1.3-2.5-0.1-3.4,0.1c-0.6,0.1-1.2,0.2-1.7,0.7c-0.2,0.2-0.4,0.5-0.5,0.7c-0.2,0.4-0.3,0.6,0.1,0.8
					c0.5,0.3,1.1,0.6,1.7,0.6c0.7,0.1,1.2-0.5,1.8-0.8c0.4-0.2,0.9-0.2,1.3-0.2c0.4,0,0.6,0,0.8-0.4c0.1-0.3,0.2-0.7,0.3-1.1
					C65.1,85.1,65.5,85.2,65.5,85.4L65.5,85.4z"/>
			</g>
		</g>
		<g>
			<g>
				<path d="M63.7,87.2c0.2,0.5,0.4,1.1,0.7,1.6c0.2,0.5,0.7,0.9,0.8,1.4c0.2,0.6-0.3,0.9-0.9,0.9c-0.4,0-0.9-0.1-1.2-0.3
					c-0.3-0.2-0.4-0.4-0.6-0.7c-0.2-0.5-0.5-1-0.7-1.6c-0.1-0.3-0.3-0.5-0.1-0.8c0.1-0.2,0.5,0,0.4,0.2c0,0.1,0.3,0.7,0.3,0.7
					c0.1,0.2,0.2,0.5,0.4,0.8c0.1,0.2,0.2,0.6,0.4,0.8c0.2,0.2,0.9,0.4,1.2,0.4c0.2-0.1,0.4-0.4,0.3-0.6c0-0.1-0.1-0.2-0.2-0.3
					c-0.1-0.2-0.3-0.4-0.4-0.7c-0.3-0.5-0.6-1.1-0.8-1.7C63.2,87.1,63.6,86.9,63.7,87.2L63.7,87.2z"/>
			</g>
		</g>
		<g>
			<g>
				<path d="M61.2,80.4c0.6,1.2,1.1,2.5,1.5,3.7c0.1,0.2-0.3,0.4-0.4,0.2c-0.4-1.3-0.9-2.5-1.5-3.7C60.7,80.4,61.1,80.2,61.2,80.4
					L61.2,80.4z"/>
			</g>
		</g>
		<g>
			<g>
				<path d="M59.6,80.9c0.5,1.2,1,2.5,1.5,3.8c0.1,0.2-0.3,0.4-0.4,0.2c-0.5-1.2-1-2.5-1.5-3.8C59.2,80.9,59.6,80.7,59.6,80.9
					L59.6,80.9z"/>
			</g>
		</g>
		<g>
			<g>
				<path d="M64.3,90C64.3,90.1,64.3,90.1,64.3,90c-0.1,0.2-0.2,0.2-0.3,0.2c-0.1-0.1-0.2-0.2-0.1-0.3c0,0,0,0,0-0.1
					c0-0.1,0.2-0.2,0.3-0.1C64.3,89.8,64.4,89.9,64.3,90L64.3,90z"/>
			</g>
		</g>
		<g>
			<g>
				<path d="M63.6,89.1c-0.2,0.1-0.4-0.3-0.2-0.4C63.7,88.6,63.9,89,63.6,89.1L63.6,89.1z"/>
			</g>
		</g>
		<g>
			<g>
				<path d="M63,88c-0.2,0.1-0.4-0.3-0.2-0.4C63.1,87.5,63.3,87.9,63,88L63,88z"/>
			</g>
		</g>
		<g>
			<g>
				<path d="M61.9,84.1C61.9,84.1,61.9,84.1,61.9,84.1c0.1,0.1,0,0.3-0.1,0.3c-0.1,0.1-0.2,0-0.3-0.1c0,0,0,0,0,0
					c-0.1-0.1,0-0.2,0.1-0.3C61.7,83.9,61.8,84,61.9,84.1L61.9,84.1z"/>
			</g>
		</g>
		<g>
			<g>
				<path d="M61.4,83.4c-0.2,0.1-0.4-0.3-0.2-0.4C61.5,82.9,61.7,83.3,61.4,83.4L61.4,83.4z"/>
			</g>
		</g>
		<g>
			<g>
				<path d="M65.1,90.6c1.6,3.9,3,7.8,4.4,11.7c0.1,0.2-0.3,0.4-0.4,0.2c-1.3-4-2.8-7.9-4.4-11.7C64.6,90.5,65,90.3,65.1,90.6
					L65.1,90.6z"/>
			</g>
		</g>
		<g>
			<g>
				<path d="M63.2,90.4c1.7,4.3,3.1,8.7,4.4,13.1c0.1,0.3-0.3,0.3-0.4,0.1c-1.3-4.4-2.7-8.8-4.4-13C62.8,90.3,63.2,90.2,63.2,90.4
					L63.2,90.4z"/>
			</g>
		</g>
		<g>
			<g>
				<path d="M66.3,80.4c0.6,0.7,1.2,1.5,1.8,2.2c0.2,0.4,0.5,0.7,0.7,1.1c0.1,0.2,0.2,0.3,0.2,0.5c0,0.1-0.2,0.2-0.3,0.1h0
					c-0.1,0-0.2-0.2-0.1-0.3c0,0,0,0,0,0c0.1-0.2,0.5-0.1,0.4,0.1c0,0,0,0,0,0c-0.1-0.1-0.1-0.2-0.1-0.3h0c-0.1,0.1-0.2,0.1-0.3,0.1
					c0,0.2-0.2-0.2-0.3-0.3c-0.1-0.2-0.2-0.3-0.3-0.5c-0.2-0.3-0.4-0.6-0.6-0.9c-0.4-0.6-0.9-1.2-1.4-1.7
					C65.9,80.5,66.2,80.2,66.3,80.4L66.3,80.4z"/>
			</g>
		</g>
		<g>
			<g>
				<path d="M63.7,81.7c1.1,1.3,2.1,2.7,3.2,4.1c0.2,0.2-0.2,0.5-0.3,0.3c-1-1.4-2.1-2.7-3.2-4.1C63.2,81.8,63.5,81.5,63.7,81.7
					L63.7,81.7z"/>
			</g>
		</g>
		<g>
			<g>
				<path d="M66.3,80.6c-0.8,0.4-1.6,0.9-2.4,1.3c-0.2,0.1-0.4-0.2-0.2-0.4c0.8-0.4,1.6-0.9,2.4-1.3C66.4,80.1,66.6,80.5,66.3,80.6
					L66.3,80.6z"/>
			</g>
		</g>
		<g>
			<g>
				<path d="M69.1,84.2c0,0.4-0.4,0.5-0.6,0.7c-0.4,0.3-0.9,0.7-1.3,1c-0.2,0.2-0.5-0.2-0.3-0.3c0.3-0.2,0.6-0.4,0.9-0.7
					c0.1-0.1,0.9-0.6,0.9-0.6C68.6,84,69,83.9,69.1,84.2L69.1,84.2z"/>
			</g>
		</g>
		<g>
			<g>
				<path d="M67,86c-0.2,0.1-0.4-0.3-0.2-0.4C67,85.5,67.2,85.9,67,86L67,86z"/>
			</g>
		</g>
		<g>
			<g>
				<path d="M67.2,85c-0.2-0.4-0.4-0.8-0.7-1.2c-0.1-0.1-0.4-0.8-0.6-0.8c-0.1,0,0.2,0.6,0.3,0.7c0.1,0.2,0.2,0.3,0.3,0.5
					c0.2,0.4,0.5,0.7,0.8,1.1c0.2,0.2-0.2,0.5-0.3,0.3c-0.5-0.7-1-1.3-1.4-2c-0.2-0.4-0.3-0.6,0.1-0.8c0.3-0.2,0.5,0,0.7,0.3
					c0.4,0.6,0.8,1.2,1.2,1.9C67.7,85.1,67.3,85.3,67.2,85L67.2,85z"/>
			</g>
		</g>
		<g>
			<g>
				<path d="M68,84.5c-0.2-0.3-0.4-0.5-0.6-0.8c-0.1-0.1-0.2-0.2-0.3-0.3L66.9,83c0.1,0,0.2,0.3,0.2,0.4c0.1,0.2,0.2,0.3,0.3,0.5
					c0.2,0.3,0.4,0.6,0.7,0.8c0.2,0.2-0.1,0.5-0.3,0.3c-0.4-0.4-0.7-0.8-1-1.3c-0.2-0.2-0.5-0.7-0.2-1.1c0.2-0.2,0.5-0.1,0.6,0.1
					c0.4,0.4,0.8,0.9,1.2,1.5C68.5,84.4,68.2,84.7,68,84.5L68,84.5z"/>
			</g>
		</g>
		<g>
			<g>
				<path d="M68.3,84.8c-0.1-0.1-0.2-0.2-0.2-0.4c-0.1-0.1-0.1-0.2,0-0.3c0.1-0.1,0.2-0.1,0.3,0c0.1,0.1,0.2,0.2,0.2,0.4
					c0.1,0.1,0.1,0.2,0,0.3C68.5,84.9,68.3,84.9,68.3,84.8L68.3,84.8z"/>
			</g>
		</g>
		<g>
			<g>
				<path d="M67.3,85.2c0-0.1-0.1-0.1-0.1-0.2c-0.1-0.1,0-0.2,0.1-0.3c0.1-0.1,0.2,0,0.3,0.1c0,0.1,0.1,0.1,0.1,0.2
					c0.1,0.1,0,0.2-0.1,0.3C67.5,85.4,67.4,85.4,67.3,85.2L67.3,85.2z"/>
			</g>
		</g>
		<g>
			<g>
				<path d="M67.4,85.1c-0.1,0.1-0.2,0.1-0.3,0.2c-0.1,0.1-0.2,0.1-0.3,0c-0.1-0.1-0.1-0.2,0-0.3c0.1-0.1,0.2-0.1,0.3-0.2
					c0.1-0.1,0.2-0.1,0.3,0C67.5,84.9,67.5,85,67.4,85.1L67.4,85.1z"/>
			</g>
		</g>
		<g>
			<g>
				<path d="M68.2,84.5c-0.2,0.1-0.3,0.1-0.5,0.2c-0.2,0.1-0.4-0.3-0.2-0.4c0.2-0.1,0.3-0.1,0.5-0.2C68.2,84,68.4,84.4,68.2,84.5
					L68.2,84.5z"/>
			</g>
		</g>
		<g>
			<g>
				<path d="M67.5,83.7c-0.1,0-0.2,0-0.2,0.1c-0.1,0.1-0.2,0.1-0.3,0c-0.1-0.1-0.1-0.2,0-0.3c0.1-0.1,0.3-0.2,0.4-0.2
					c0.1,0,0.2,0.1,0.2,0.2C67.7,83.6,67.6,83.7,67.5,83.7L67.5,83.7z"/>
			</g>
		</g>
		<g>
			<g>
				<path d="M66.8,84.1c-0.1,0.1-0.2,0.1-0.3,0.2c-0.1,0.1-0.2,0.1-0.3,0c-0.1-0.1-0.1-0.2,0-0.3c0.1-0.1,0.2-0.1,0.3-0.2
					c0.1-0.1,0.2-0.1,0.3,0C66.9,83.9,67,84.1,66.8,84.1L66.8,84.1z"/>
			</g>
		</g>
		<g>
			<g>
				<path d="M66.6,82.5c0.1-0.2-0.3-0.2-0.4-0.2c-0.2-0.1-0.3-0.1-0.4-0.3c0.1-0.1,0.2-0.2,0.4-0.2c0.1,0.2,0.1,0.4,0.2,0.6
					c0,0.1,0.1,0.4,0.3,0.3c0.3-0.1,0.3,0.4,0.1,0.4c-0.2,0.1-0.4-0.1-0.6-0.3c-0.2-0.3-0.1-0.6-0.3-0.9c-0.1-0.2,0.2-0.4,0.4-0.2
					c0.2,0.2,0.5,0.2,0.7,0.3c0.2,0.1,0.3,0.4,0.2,0.6C66.9,82.9,66.5,82.8,66.6,82.5L66.6,82.5z"/>
			</g>
		</g>
		<g>
			<g>
				<path d="M65.7,82.6c0.1-0.1-0.3-0.2-0.4-0.2c-0.2,0-0.3-0.1-0.4-0.2c0.1-0.1,0.2-0.2,0.3-0.3c0.1,0.2,0.2,0.3,0.2,0.5
					c0,0.1,0.1,0.4,0.3,0.3c0.2-0.1,0.4,0.3,0.2,0.4c-0.2,0.1-0.4,0-0.6-0.1c-0.2-0.2-0.2-0.6-0.4-0.8c-0.1-0.2,0.1-0.4,0.3-0.3
					c0.3,0.2,0.6,0.1,0.8,0.3c0.2,0.2,0.2,0.4,0.1,0.6C65.9,83.1,65.5,82.9,65.7,82.6L65.7,82.6z"/>
			</g>
		</g>
		<g>
			<g>
				<path d="M68.3,83.4c-0.2,0.1-0.4,0.2-0.7,0.4c-0.2,0.1-0.4-0.2-0.2-0.4c0.2-0.1,0.4-0.2,0.7-0.4C68.3,82.9,68.5,83.2,68.3,83.4
					L68.3,83.4z"/>
			</g>
		</g>
		<g>
			<g>
				<path d="M66.3,84.6c-0.1,0.1-0.2,0.1-0.3,0.2c-0.1,0.1-0.2,0.1-0.3,0c-0.1-0.1-0.1-0.2,0-0.3c0.1-0.1,0.2-0.2,0.4-0.2
					c0.1-0.1,0.2,0,0.3,0.1C66.5,84.5,66.4,84.6,66.3,84.6L66.3,84.6z"/>
			</g>
		</g>
		<g>
			<g>
				<path d="M68.3,83.9c-0.2,0.1-0.4-0.3-0.2-0.4C68.4,83.4,68.6,83.8,68.3,83.9L68.3,83.9z"/>
			</g>
		</g>
		<g>
			<g>
				<path d="M68.7,84.1C68.7,84.1,68.7,84.1,68.7,84.1c0.1,0.1,0,0.3-0.1,0.3c-0.1,0.1-0.2,0-0.3-0.1c0,0,0,0,0,0
					c-0.1-0.1,0-0.2,0.1-0.3C68.5,83.9,68.6,83.9,68.7,84.1L68.7,84.1z"/>
			</g>
		</g>
		<g>
			<g>
				<path d="M66.5,85.1c-0.2,0.1-0.4-0.3-0.2-0.4C66.5,84.6,66.7,85,66.5,85.1L66.5,85.1z"/>
			</g>
		</g>
		<g>
			<g>
				<path d="M66.8,85.5c-0.2,0.1-0.4-0.3-0.2-0.4C66.8,85,67,85.4,66.8,85.5L66.8,85.5z"/>
			</g>
		</g>
		<g>
			<g>
				<path d="M59.7,89.1c0.6,2.1,1.1,4.2,1.5,6.4c0.1,0.3-0.4,0.4-0.4,0.1c-0.3-2.2-0.8-4.3-1.5-6.4C59.2,88.9,59.6,88.8,59.7,89.1
					L59.7,89.1z"/>
			</g>
		</g>
		<g>
			<g>
				<path d="M59.4,89.3c-0.7,0.1-1.4,0.2-2.2,0.3c-0.1,0-0.6,0.1-0.6,0.1c0,0.1,0.1,0.4,0.1,0.4c0.1,0.4,0.2,0.8,0.3,1.2
					c0.4,1.5,0.7,3,1.1,4.5c0.1,0.3-0.4,0.3-0.4,0.1c-0.4-1.8-0.9-3.7-1.3-5.5c-0.1-0.5-0.4-0.9,0.2-1.1c0.4-0.1,0.9-0.1,1.3-0.2
					c0.5-0.1,1-0.1,1.5-0.2C59.6,88.8,59.7,89.2,59.4,89.3L59.4,89.3z"/>
			</g>
		</g>
		<g>
			<g>
				<path d="M60.9,95.6C60,95.8,59,96,58,96.1c-0.3,0-0.3-0.4-0.1-0.4c1-0.1,2-0.2,2.9-0.4C61.1,95.1,61.2,95.6,60.9,95.6L60.9,95.6
					z"/>
			</g>
		</g>
		<g>
			<g>
				<path d="M59.9,94.2c-0.9-1.4-1.9-2.7-2-4.4c0-0.2,0.4-0.2,0.4,0c0.4,1.6,0.4,3.1,0.3,4.7c-0.1-0.1-0.1-0.2-0.2-0.2h0
					c-0.1,0.1-0.2,0.1-0.2,0.2v0c0-0.3,0.4-0.2,0.4,0v0c0,0.1-0.1,0.2-0.2,0.2h0c-0.1,0-0.2-0.1-0.2-0.2c0.1-1.6,0-3.1-0.3-4.6
					c0.1,0,0.3,0,0.4,0c0.1,1.6,1.1,2.8,1.9,4.1C60.3,94.1,60,94.4,59.9,94.2L59.9,94.2z"/>
			</g>
		</g>
		<g>
			<g>
				<path d="M59.4,93.4c-0.3,0-0.6,0.1-0.9,0.2c-0.2,0.1-0.4-0.3-0.2-0.4c0.3-0.1,0.7-0.2,1-0.2C59.6,93,59.7,93.4,59.4,93.4
					L59.4,93.4z"/>
			</g>
		</g>
		<g>
			<g>
				<path d="M59.7,94.1c-0.2-0.5-1-0.3-1,0.2c0,0.3-0.4,0.4-0.4,0.1c0-0.4,0.2-0.9,0.6-1c0.4-0.1,0.9,0.1,1.1,0.5
					C60.2,94.2,59.8,94.4,59.7,94.1L59.7,94.1z"/>
			</g>
		</g>
		<g>
			<g>
				<path d="M59,93.1c-0.2-0.4-0.5-0.8-0.7-1.2c0.1-0.1,0.3-0.1,0.4-0.1c0.1,0.5,0.1,1,0.1,1.5c0,0.3-0.4,0.2-0.4,0
					c0-0.5-0.1-0.9-0.1-1.4c0-0.2,0.3-0.3,0.4-0.1c0.2,0.4,0.5,0.8,0.7,1.2C59.5,93.2,59.1,93.4,59,93.1L59,93.1z"/>
			</g>
		</g>
		<g>
			<g>
				<path d="M60.3,94.4c-0.2,0.1-0.5,0.1-0.7,0.1c-0.3,0-0.2-0.4,0-0.4c0.2,0,0.3,0,0.5-0.1c0.1,0,0.2,0,0.3,0.1
					C60.5,94.2,60.4,94.4,60.3,94.4L60.3,94.4z"/>
			</g>
		</g>
		<g>
			<g>
				<path d="M58.7,94.9c-0.1,0-0.3,0-0.4,0.1c-0.1,0-0.2-0.1-0.2-0.2c0-0.1,0.1-0.2,0.2-0.2c0.1,0,0.3,0,0.4-0.1
					c0.1,0,0.2,0.1,0.2,0.2C58.9,94.7,58.9,94.8,58.7,94.9L58.7,94.9z"/>
			</g>
		</g>
		<g>
			<g>
				<path d="M75.3,87.2c-0.1,1.7-0.1,3.4,0,5c0,0.3-0.4,0.4-0.4,0.1c-0.1-1.7-0.2-3.4,0-5.1C74.9,86.9,75.3,86.9,75.3,87.2
					L75.3,87.2z"/>
			</g>
		</g>
		<g>
			<g>
				<path d="M75.2,92.5c-2.4,0.2-4.8,0.2-7.2,0c-0.3,0-0.2-0.4,0-0.4c2.4,0.1,4.7,0.1,7.1,0C75.4,92.1,75.4,92.5,75.2,92.5
					L75.2,92.5z"/>
			</g>
		</g>
		<g>
			<g>
				<path d="M75.1,87.3c-2.4-0.1-4.7,0-7.1,0.3c-0.3,0-0.3-0.4-0.1-0.4c2.4-0.3,4.8-0.4,7.2-0.3C75.4,86.9,75.3,87.3,75.1,87.3
					L75.1,87.3z"/>
			</g>
		</g>
		<g>
			<g>
				<path d="M68.1,87.4c0.1,1.6,0.3,3.3,0,4.9c-0.1,0.3-0.5,0.1-0.4-0.1c0.3-1.5,0.1-3.2,0-4.7C67.7,87.2,68.1,87.1,68.1,87.4
					L68.1,87.4z"/>
			</g>
		</g>
		<g>
			<g>
				<path d="M81.6,86.4c0.4,1.4,0.9,2.8,1.4,4.1c0.1,0.2-0.3,0.4-0.4,0.2c-0.6-1.4-1.1-2.8-1.5-4.2C81.1,86.2,81.5,86.1,81.6,86.4
					L81.6,86.4z"/>
			</g>
		</g>
		<g>
			<g>
				<path d="M79.1,86.6c0.5,1.7,0.9,3.4,1.2,5C80.4,92,80,92,80,91.8c-0.4-1.7-0.8-3.4-1.2-5C78.6,86.4,79.1,86.4,79.1,86.6
					L79.1,86.6z"/>
			</g>
		</g>
		<g>
			<g>
				<path d="M81.4,86.5c-0.8,0.1-1.6,0.2-2.5,0.4c-0.3,0-0.3-0.4-0.1-0.4c0.8-0.1,1.6-0.2,2.5-0.4C81.6,86,81.7,86.4,81.4,86.5
					L81.4,86.5z"/>
			</g>
		</g>
		<g>
			<g>
				<path d="M82.9,90.8c-0.9,0.2-1.7,0.5-2.5,1c-0.2,0.1-0.4-0.2-0.2-0.4c0.8-0.4,1.7-0.8,2.6-1C83.1,90.3,83.2,90.7,82.9,90.8
					L82.9,90.8z"/>
			</g>
		</g>
		<g>
			<g>
				<path d="M71,93.8c0.5,0.9,1.1,1.6,1.7,2.4c0.2,0.2-0.1,0.5-0.3,0.3c-0.7-0.7-1.3-1.6-1.8-2.4C70.5,93.8,70.9,93.6,71,93.8
					L71,93.8z"/>
			</g>
		</g>
		<g>
			<g>
				<path d="M67.9,95.9c0.7,0.8,1.3,1.7,1.9,2.6c0.1,0.2-0.2,0.4-0.4,0.2c-0.6-0.9-1.2-1.7-1.9-2.5C67.3,96,67.7,95.7,67.9,95.9
					L67.9,95.9z"/>
			</g>
		</g>
		<g>
			<g>
				<path d="M70.9,94c-1,0.7-2,1.4-3.1,2.1c-0.2,0.2-0.5-0.2-0.3-0.3c1-0.7,2-1.4,3.1-2.1C70.8,93.5,71.1,93.8,70.9,94L70.9,94z"/>
			</g>
		</g>
		<g>
			<g>
				<path d="M72.9,96.6c-1,0.7-2,1.5-3,2.2c-0.2,0.2-0.5-0.2-0.3-0.3c1-0.8,2-1.5,3-2.2C72.8,96.1,73.1,96.4,72.9,96.6L72.9,96.6z"
					/>
			</g>
		</g>
		<g>
			<g>
				<path d="M54.9,83.1c0-0.1-0.2-0.1-0.2,0c0,0.1,0,0.1,0,0.1c0,0,0.1,0,0.1,0L54.9,83.1c-0.1-0.1,0-0.2,0.1-0.2
					c0.1,0,0.2,0.1,0.2,0.2c-0.1,0.2-0.2,0.4-0.5,0.4c-0.2,0-0.4-0.2-0.4-0.5c0-0.2,0.2-0.5,0.4-0.5c0.3,0,0.5,0.2,0.6,0.4
					C55.4,83.3,54.9,83.4,54.9,83.1L54.9,83.1z"/>
			</g>
		</g>
		<g>
			<g>
				<path d="M54.4,84.5c0-0.1,0.1-0.2,0-0.2c0,0-0.1-0.1-0.1,0c-0.1,0.1,0,0.1,0,0.2C54.3,84.5,54.3,84.6,54.4,84.5
					C54.4,84.6,54.3,84.6,54.4,84.5c0.1-0.2,0.4,0.1,0.3,0.3c-0.2,0.2-0.5,0.2-0.7,0c-0.2-0.2-0.2-0.6-0.1-0.8
					c0.2-0.2,0.5-0.2,0.7-0.1c0.2,0.2,0.2,0.6,0.1,0.8C54.6,85,54.3,84.8,54.4,84.5L54.4,84.5z"/>
			</g>
		</g>
		<g>
			<g>
				<path d="M53.8,85.6c0,0-0.1-0.1-0.1-0.1C53.6,85.6,53.8,85.7,53.8,85.6c0.2,0,0.3,0.1,0.3,0.2c0.1,0.1,0,0.2-0.1,0.3
					c-0.2,0.1-0.5,0.1-0.7-0.1c-0.2-0.2-0.1-0.5,0.1-0.7c0.2-0.2,0.4-0.2,0.6-0.1c0.2,0.2,0.2,0.4,0.1,0.7c-0.1,0.1-0.2,0.1-0.3,0.1
					C53.7,85.8,53.7,85.7,53.8,85.6L53.8,85.6z"/>
			</g>
		</g>
		<g>
			<g>
				<path d="M52.5,85.3C52.5,85.2,52.4,85.2,52.5,85.3C52.5,85.2,52.4,85.2,52.5,85.3C52.4,85.2,52.4,85.2,52.5,85.3L52.5,85.3
					C52.4,85.2,52.4,85.2,52.5,85.3C52.4,85.2,52.4,85.2,52.5,85.3C52.4,85.2,52.4,85.2,52.5,85.3C52.4,85.2,52.4,85.2,52.5,85.3
					C52.4,85.2,52.4,85.2,52.5,85.3C52.4,85.2,52.4,85.2,52.5,85.3C52.4,85.2,52.4,85.2,52.5,85.3C52.4,85.2,52.4,85.2,52.5,85.3
					C52.4,85.3,52.4,85.3,52.5,85.3L52.5,85.3C52.4,85.3,52.4,85.3,52.5,85.3L52.5,85.3C52.4,85.3,52.4,85.3,52.5,85.3L52.5,85.3
					C52.5,85.3,52.5,85.3,52.5,85.3C52.5,85.3,52.5,85.3,52.5,85.3L52.5,85.3L52.5,85.3C52.5,85.3,52.5,85.3,52.5,85.3
					C52.4,85.3,52.4,85.3,52.5,85.3C52.4,85.3,52.5,85.2,52.5,85.3C52.4,85.2,52.4,85.3,52.5,85.3C52.4,85.2,52.4,85.2,52.5,85.3
					C52.4,85.2,52.4,85.2,52.5,85.3c-0.1-0.1-0.1-0.2-0.1-0.3c0.1-0.1,0.2-0.1,0.3-0.1c0.1,0.1,0.2,0.2,0.2,0.4
					c0,0.1-0.1,0.2-0.2,0.3c-0.2,0.2-0.5,0.1-0.6-0.1c-0.1-0.2-0.1-0.5,0.2-0.6c0.2-0.1,0.6,0,0.7,0.2c0,0.1,0,0.2-0.1,0.3
					C52.6,85.4,52.5,85.4,52.5,85.3L52.5,85.3z"/>
			</g>
		</g>
		<g>
			<g>
				<path d="M51.8,84.7c0,0,0-0.4-0.1-0.3c0,0,0,0.1,0,0.1c0.1,0.1,0.1,0,0.2,0c0.3-0.1,0.3,0.4,0.1,0.4c-0.2,0.1-0.5,0-0.6-0.2
					c-0.1-0.2-0.1-0.5,0.1-0.7c0.2-0.2,0.4-0.1,0.6,0c0.2,0.2,0.2,0.4,0.2,0.7C52.2,85,51.8,85,51.8,84.7L51.8,84.7z"/>
			</g>
		</g>
		<g>
			<g>
				<path d="M49.2,86.8C49.2,86.8,49.2,86.8,49.2,86.8C49.2,86.8,49.2,86.7,49.2,86.8C49.2,86.8,49.2,86.7,49.2,86.8
					C49.1,86.7,49.2,86.7,49.2,86.8C49.1,86.7,49.1,86.7,49.2,86.8C49.1,86.7,49.1,86.7,49.2,86.8C49.1,86.7,49.1,86.7,49.2,86.8
					l-0.1-0.1l0,0c0,0,0,0,0,0c0,0,0,0,0,0c0,0,0,0,0,0c0,0.1,0,0,0,0c0,0,0,0,0,0l0,0l0,0c0,0,0,0,0,0c0,0,0,0,0,0l0,0c0,0,0,0,0,0
					c0.1-0.1,0.2-0.1,0.3-0.1c0.1,0.1,0.1,0.2,0.1,0.3c-0.1,0.2-0.4,0.2-0.6,0.1c-0.2-0.1-0.2-0.4-0.1-0.6c0.1-0.2,0.4-0.3,0.6-0.1
					c0.2,0.1,0.3,0.4,0.2,0.6c0,0.1-0.2,0.2-0.3,0.1C49.2,87,49.2,86.9,49.2,86.8L49.2,86.8z"/>
			</g>
		</g>
		<g>
			<g>
				<path d="M49.1,88.8c0-0.1,0-0.2,0-0.2c0,0,0,0,0-0.1c0,0,0,0,0,0c0.1-0.1,0,0.1,0.1,0.1l0,0.1h-0.1c0.1-0.1,0.2-0.1,0.3-0.1
					c0.1,0.1,0.1,0.2,0.1,0.3c-0.1,0.2-0.4,0.2-0.6,0c-0.1-0.2-0.2-0.5-0.1-0.7c0.1-0.2,0.4-0.2,0.6-0.1c0.2,0.2,0.2,0.5,0.1,0.7
					c0,0.1-0.2,0.2-0.3,0.1C49.2,89,49.1,88.9,49.1,88.8L49.1,88.8z"/>
			</g>
		</g>
		<g>
			<g>
				<path d="M78.3,79.1c0-0.1,0.1-0.1,0.1-0.1c0,0,0-0.1,0-0.1l0,0c0,0,0,0,0,0c0,0,0,0,0,0c0,0,0,0,0,0c0,0,0,0,0,0h0
					c0.1,0,0,0,0,0s-0.1,0.1,0,0c0,0,0,0,0,0s0,0,0,0c0,0,0,0,0,0c0,0,0,0,0,0c0,0,0.1,0.1,0,0C78.4,78.9,78.4,79,78.3,79.1
					c0.1-0.1,0.1-0.1,0.1-0.1h0c0.1,0,0.2,0,0.3,0.1c0.1,0.1,0,0.2-0.1,0.3c-0.2,0.1-0.5,0-0.6-0.2c-0.1-0.2-0.1-0.5,0.1-0.6
					c0.2-0.1,0.4-0.1,0.6,0c0.2,0.2,0.1,0.5,0,0.7C78.5,79.5,78.2,79.3,78.3,79.1L78.3,79.1z"/>
			</g>
		</g>
		<g>
			<g>
				<path d="M77.6,78.4L77.6,78.4C77.7,78.4,77.7,78.4,77.6,78.4C77.7,78.4,77.7,78.4,77.6,78.4C77.7,78.4,77.6,78.3,77.6,78.4
					C77.7,78.4,77.6,78.3,77.6,78.4C77.6,78.3,77.6,78.3,77.6,78.4C77.7,78.3,77.7,78.3,77.6,78.4C77.6,78.3,77.6,78.3,77.6,78.4
					C77.7,78.3,77.7,78.3,77.6,78.4C77.7,78.3,77.6,78.3,77.6,78.4C77.6,78.3,77.6,78.3,77.6,78.4C77.6,78.4,77.6,78.4,77.6,78.4
					C77.6,78.4,77.6,78.4,77.6,78.4C77.6,78.4,77.6,78.4,77.6,78.4C77.6,78.4,77.6,78.4,77.6,78.4L77.6,78.4
					C77.6,78.4,77.6,78.4,77.6,78.4C77.6,78.4,77.6,78.4,77.6,78.4C77.6,78.4,77.6,78.4,77.6,78.4C77.6,78.4,77.6,78.4,77.6,78.4
					C77.7,78.4,77.6,78.4,77.6,78.4C77.6,78.4,77.7,78.4,77.6,78.4c0.1-0.1,0.2-0.1,0.3,0c0.1,0.1,0.1,0.2,0,0.3
					c-0.2,0.2-0.5,0.1-0.7,0c-0.2-0.2-0.1-0.5,0.1-0.7c0.2-0.2,0.5-0.2,0.6,0c0.1,0.2,0.2,0.5,0,0.6c-0.1,0.1-0.2,0.1-0.3,0.1
					C77.6,78.6,77.6,78.5,77.6,78.4L77.6,78.4z"/>
			</g>
		</g>
		<g>
			<g>
				<path d="M76.7,77.9c0.1,0,0.1-0.1,0.1-0.1c0,0,0-0.1-0.1-0.1l0,0c0,0,0,0,0,0c0.1-0.1,0.2-0.1,0.3-0.1c0.1,0.1,0.1,0.2,0.1,0.3
					c-0.2,0.2-0.5,0.2-0.7,0c-0.2-0.2-0.1-0.6,0.1-0.7c0.2-0.1,0.6,0,0.6,0.3c0.1,0.3-0.1,0.6-0.3,0.7c-0.1,0-0.2,0-0.3-0.1
					C76.6,78.1,76.6,77.9,76.7,77.9L76.7,77.9z"/>
			</g>
		</g>
		<g>
			<g>
				<path d="M84.4,92.1C84.4,92.1,84.4,92.1,84.4,92.1C84.4,92.1,84.4,92.1,84.4,92.1L84.4,92.1C84.4,92.1,84.4,92.1,84.4,92.1
					C84.4,92.1,84.4,92.1,84.4,92.1L84.4,92.1L84.4,92.1C84.4,92.1,84.4,92.1,84.4,92.1C84.4,92.1,84.4,92.1,84.4,92.1L84.4,92.1
					L84.4,92.1L84.4,92.1C84.4,92.1,84.4,92.1,84.4,92.1L84.4,92.1L84.4,92.1C84.4,92.1,84.4,92.1,84.4,92.1
					C84.4,92.1,84.4,92.1,84.4,92.1L84.4,92.1C84.4,92.1,84.4,92.1,84.4,92.1L84.4,92.1C84.4,92.1,84.4,92.1,84.4,92.1
					C84.4,92.1,84.4,92.2,84.4,92.1C84.4,92.1,84.5,92.2,84.4,92.1L84.4,92.1C84.4,92.2,84.4,92.2,84.4,92.1
					C84.5,92.2,84.5,92.2,84.4,92.1C84.5,92.2,84.5,92.2,84.4,92.1C84.4,92.2,84.5,92.2,84.4,92.1C84.4,92.2,84.4,92.2,84.4,92.1
					L84.4,92.1L84.4,92.1c0,0,0.1-0.1,0.2-0.1c0.1,0,0.2,0.1,0.2,0.2c0,0.2-0.3,0.4-0.5,0.3C84.1,92.5,84,92.2,84,92
					c0.1-0.2,0.3-0.4,0.6-0.3c0.2,0.1,0.4,0.3,0.3,0.6c-0.1,0.1-0.2,0.2-0.3,0.1C84.4,92.3,84.4,92.2,84.4,92.1L84.4,92.1z"/>
			</g>
		</g>
		<g>
			<g>
				<path d="M84.2,91.2c0,0,0-0.1,0-0.1c0.1-0.1,0.3-0.2,0.4-0.1c0.2,0.4-0.2,0.7-0.6,0.5c-0.1-0.1-0.2-0.3-0.2-0.5s0.1-0.4,0.4-0.4
					c0.1,0,0.2,0.1,0.2,0.2c0,0.1-0.1,0.2-0.2,0.2c-0.2-0.1,0.1-0.1,0.1-0.1s0,0,0,0.1c0,0,0.1,0.1,0.1,0.1
					C84.4,91.1,84.4,91.1,84.2,91.2C84.3,91.1,84.3,91.2,84.2,91.2c0.1,0,0.1,0.1,0.1,0.1c0.1,0,0.2-0.1,0.4-0.1c0,0,0,0.1,0,0.1
					C84.5,91.5,84.2,91.4,84.2,91.2L84.2,91.2z"/>
			</g>
		</g>
		<g>
			<g>
				<path d="M84.2,92.8c0,0,0,0.1,0,0.1c0,0,0,0,0.1,0c0,0,0,0,0,0l0,0c0,0,0,0.1,0,0.1c0,0.1-0.1,0.2-0.2,0.2
					c-0.1,0-0.2-0.1-0.2-0.2c-0.1-0.3,0.1-0.6,0.4-0.7c0.3-0.1,0.6,0.2,0.4,0.5c-0.1,0.1-0.2,0.1-0.3,0.1
					C84.1,93,84.1,92.9,84.2,92.8L84.2,92.8z"/>
			</g>
		</g>
		<g>
			<g>
				<path d="M61.6,107.2L61.6,107.2C61.6,107.2,61.6,107.2,61.6,107.2C61.6,107.2,61.6,107.2,61.6,107.2
					C61.6,107.2,61.6,107.2,61.6,107.2C61.6,107.2,61.6,107.2,61.6,107.2C61.6,107.2,61.6,107.2,61.6,107.2
					C61.6,107.2,61.6,107.2,61.6,107.2C61.6,107.3,61.6,107.2,61.6,107.2c0.1,0.1,0,0.2-0.1,0.3c-0.1,0.1-0.2,0-0.3-0.1
					c-0.1-0.2-0.1-0.4,0.1-0.5c0.1-0.1,0.4-0.1,0.5,0C62.1,107,61.9,107.4,61.6,107.2L61.6,107.2z"/>
			</g>
		</g>
		<g>
			<g>
				<path d="M61.1,106.9c0-0.1-0.1-0.1-0.1-0.2c0,0,0,0,0,0c0,0,0,0,0,0c0,0,0,0,0,0v0c0,0,0,0,0,0l0,0c0,0,0,0,0,0s0,0,0,0
					c0,0,0,0,0,0l0,0c0,0,0,0,0,0s0,0,0,0c0,0,0,0,0,0c0,0,0,0,0,0.1c0-0.1,0.1-0.2,0.2-0.2s0.2,0.1,0.2,0.2
					c-0.1,0.2-0.2,0.4-0.4,0.3c-0.2,0-0.4-0.2-0.3-0.4c0-0.2,0.2-0.4,0.4-0.3c0.2,0,0.4,0.2,0.5,0.4c0,0.1,0,0.2-0.1,0.3
					C61.3,107.1,61.1,107,61.1,106.9L61.1,106.9z"/>
			</g>
		</g>
		<g>
			<g>
				<path d="M60.2,106.2C60.2,106.1,60.1,106.2,60.2,106.2C60.2,106.2,60.2,106.2,60.2,106.2C60.2,106.2,60.2,106.2,60.2,106.2
					L60.2,106.2C60.2,106.2,60.2,106.2,60.2,106.2L60.2,106.2L60.2,106.2C60.2,106.1,60.2,106.2,60.2,106.2L60.2,106.2
					C60.1,106.2,60.2,106.2,60.2,106.2C60.2,106.2,60.2,106.2,60.2,106.2C60.2,106.2,60.2,106.2,60.2,106.2
					C60.2,106.2,60.1,106.2,60.2,106.2C60.2,106.2,60.1,106.2,60.2,106.2C60.2,106.2,60.2,106.1,60.2,106.2
					C60.2,106.2,60.2,106.2,60.2,106.2C60.2,106.2,60.2,106.2,60.2,106.2C60.2,106.2,60.2,106.1,60.2,106.2
					C60.2,106.1,60.2,106.1,60.2,106.2C60.2,106.1,60.2,106.1,60.2,106.2C60.2,106.1,60.2,106.1,60.2,106.2
					C60.2,106.1,60.2,106.1,60.2,106.2C60.2,106.1,60.2,106.1,60.2,106.2C60.2,106.1,60.2,106.1,60.2,106.2c0.1,0,0.2,0.1,0.2,0.2
					c0,0.1-0.1,0.2-0.2,0.2c-0.2,0-0.4-0.2-0.4-0.4c0-0.2,0.1-0.4,0.2-0.4c0.2-0.1,0.4,0,0.5,0.2c0.1,0.2,0.1,0.4-0.1,0.5
					c-0.1,0.1-0.2,0.1-0.3,0C60.1,106.4,60.1,106.2,60.2,106.2L60.2,106.2z"/>
			</g>
		</g>
		<g>
			<g>
				<path d="M59.5,106.9C59.6,106.9,59.5,106.9,59.5,106.9C59.5,107,59.5,107,59.5,106.9c0,0.1,0,0.1,0,0.1c0,0,0,0,0,0s0,0,0,0
					c0,0,0,0,0,0s0,0,0,0h0c0,0,0,0,0,0v0.1c-0.1,0-0.1,0-0.1,0.1c0-0.1,0.1-0.2,0.2-0.2c0.1,0,0.2,0.1,0.2,0.2
					c0,0.2-0.2,0.5-0.5,0.4c-0.2-0.1-0.4-0.3-0.3-0.6c0.1-0.2,0.3-0.4,0.6-0.2c0.2,0.1,0.3,0.4,0.1,0.5c-0.1,0.1-0.2,0.1-0.3,0.1
					C59.5,107.2,59.4,107,59.5,106.9L59.5,106.9z"/>
			</g>
		</g>
		<g>
			<g>
				<path d="M55.1,107.3C55.1,107.3,55.1,107.3,55.1,107.3C55.1,107.3,55.1,107.3,55.1,107.3S55.1,107.4,55.1,107.3
					C55.1,107.3,55.1,107.3,55.1,107.3C55.1,107.3,55.1,107.3,55.1,107.3C55.1,107.4,55.1,107.3,55.1,107.3
					C55.1,107.3,55.1,107.3,55.1,107.3L55.1,107.3C55.1,107.3,55.1,107.3,55.1,107.3C55.1,107.3,55.2,107.3,55.1,107.3
					C55.2,107.3,55.2,107.3,55.1,107.3C55.2,107.3,55.2,107.3,55.1,107.3C55.1,107.3,55.1,107.3,55.1,107.3
					C55.1,107.3,55.1,107.3,55.1,107.3C55.1,107.3,55.1,107.3,55.1,107.3C55.1,107.2,55.1,107.2,55.1,107.3
					C55.1,107.2,55.1,107.2,55.1,107.3C55.1,107.3,55.1,107.2,55.1,107.3C55.1,107.2,55.1,107.2,55.1,107.3
					C55.1,107.3,55.1,107.3,55.1,107.3C55.1,107.2,55.1,107.3,55.1,107.3C55.1,107.3,55.1,107.3,55.1,107.3
					C55.1,107.3,55.1,107.3,55.1,107.3C55.1,107.2,55.2,107.2,55.1,107.3L55.1,107.3L55.1,107.3c0.1-0.1,0.2-0.1,0.3,0
					c0.1,0.1,0.1,0.2,0.1,0.3c-0.1,0.1-0.2,0.1-0.2,0.2c-0.1,0-0.2,0-0.3-0.1c-0.2-0.1-0.2-0.4-0.1-0.6c0.1-0.2,0.4-0.2,0.6-0.1
					c0.2,0.1,0.2,0.4,0.1,0.6c-0.1,0.1-0.2,0.1-0.3,0.1C55.1,107.5,55.1,107.4,55.1,107.3L55.1,107.3z"/>
			</g>
		</g>
		<g>
			<g>
				<path d="M50.6,84.9C50.6,84.9,50.7,84.9,50.6,84.9c0,0.1,0,0.1,0,0.1c0,0,0-0.1,0,0C50.7,85,50.6,84.9,50.6,84.9
					c-0.1,0.1-0.1,0-0.1,0l0,0c-0.1,0-0.1,0.1-0.2,0.1c0,0-0.1,0.1,0,0.1c0,0,0-0.1,0,0c0-0.1,0.1-0.2,0.2-0.2
					c0.1,0,0.2,0.1,0.2,0.2c0,0.1,0,0.1,0,0.2c-0.1,0.1-0.3,0.1-0.4,0c0-0.1-0.1-0.2-0.1-0.2c0-0.1,0.1-0.2,0.2-0.2
					C50.5,84.7,50.6,84.7,50.6,84.9L50.6,84.9z"/>
			</g>
		</g>
		<g>
			<g>
				<path d="M61.8,80.3c0-0.3-0.3-0.6-0.6-0.5c-0.3,0.1-0.3,0.6-0.1,0.7c0.2,0.2,0,0.5-0.2,0.4c-0.5-0.4-0.4-1.2,0.2-1.5
					c0.6-0.2,1.2,0.3,1.2,0.9C62.2,80.6,61.8,80.6,61.8,80.3L61.8,80.3z"/>
			</g>
		</g>
		<g>
			<g>
				<path d="M66.5,77.8c0.7-0.2,1.4-0.4,2.2-0.5c0.4-0.1,0.9-0.1,1.3,0.2c0.3,0.3,0.5,1.2-0.2,1c-0.3-0.1-0.1-0.5,0.1-0.4
					c0,0-0.1,0.1-0.1,0.1c0-0.1,0-0.1-0.1-0.2c-0.1-0.1-0.1-0.1-0.2-0.2c-0.3-0.2-0.8-0.1-1.1-0.1c-0.6,0.1-1.2,0.3-1.9,0.5
					C66.3,78.3,66.2,77.8,66.5,77.8L66.5,77.8z"/>
			</g>
		</g>
		<g>
			<g>
				<path d="M60.7,79.8c0.8-0.6,1.7-0.9,2.7-1.2c0.3-0.1,0.3,0.4,0.1,0.4c-0.9,0.2-1.7,0.5-2.5,1.1C60.8,80.2,60.5,79.9,60.7,79.8
					L60.7,79.8z"/>
			</g>
		</g>
	</g>
	<g>
		<g>
			<path d="M95.6,84.1c2.1-3.7,1.1-8.3-0.7-12c-1.1-2.4-2.7-4.6-4.2-6.8c-1.6-2.3-2.8-4.6-3.8-7.2c-0.6-1.5-1-3-1.6-4.4
				c-0.6-1.4-1.6-2.7-2.6-3.9c-0.2-0.3,0.2-0.6,0.4-0.4c0.9,1.1,1.8,2.2,2.4,3.4s1,2.6,1.5,4c0.5,1.4,1.1,2.8,1.7,4.1
				c0.7,1.4,1.5,2.6,2.3,3.9c2.7,4,5.5,8,6.1,13c0.3,2.3-0.1,4.6-1.2,6.6C95.9,84.8,95.4,84.4,95.6,84.1L95.6,84.1z"/>
		</g>
	</g>
	<g>
		<g>
			<path d="M82.7,96.2c3.8-2.6,7.3-5.7,10.5-9c0.2-0.3,0.6,0.2,0.4,0.4c-3.2,3.4-6.7,6.4-10.5,9C82.8,96.9,82.4,96.5,82.7,96.2
				L82.7,96.2z"/>
		</g>
	</g>
	<g>
		<g>
			<path d="M72.6,100.5c1.2-0.1,2.4-0.4,3.5-1c0.3-0.2,0.6,0.4,0.2,0.5c-1.2,0.5-2.4,0.9-3.7,1C72.3,101.1,72.2,100.5,72.6,100.5
				L72.6,100.5z"/>
		</g>
	</g>
	<g>
		<g>
			<path d="M50.2,56.2c-0.5,4.5,2.6,8.3,4.5,12.1c1,2,1.7,4.1,2,6.3c0.3,2.2,0.4,4.5,0.6,6.8c0,0.4-0.5,0.5-0.6,0.1
				c-0.2-2.3-0.3-4.7-0.6-7S54.9,70,53.9,68c-1.9-3.7-4.7-7.4-4.2-11.8C49.7,55.8,50.2,55.9,50.2,56.2L50.2,56.2z"/>
		</g>
	</g>
	<g>
		<g>
			<path d="M75,42.7c-0.7-1.1-2.1-1.4-3.3-1.6c-1.1-0.2-2.3-0.4-3.4-0.4c-2.4-0.1-4.9,0.4-7.2,1.2c-3.8,1.4-7.1,4.1-9,7.6
				c-1.1,2.1-1.7,4.4-1.9,6.7c0,0.4-0.6,0.3-0.6-0.1c0.2-4.3,2.1-8.3,5.3-11.2c3.5-3.2,8.2-4.9,12.8-4.9c1.5,0,2.9,0.1,4.4,0.5
				c1.2,0.3,2.6,0.6,3.3,1.7C75.6,42.7,75.2,43.1,75,42.7L75,42.7z"/>
		</g>
	</g>
	<g>
		<path class="st0" d="M75.4,47c-0.6,0.6-1.5,0.6-2.1,0c-0.6-0.6-0.6-1.5-0.1-2.1c0.6-0.6,1.5-0.6,2.1,0C75.9,45.4,76,46.4,75.4,47z
			 M74,44.8c-0.2,0.2-0.2,0.4,0,0.6c0.2,0.2,0.4,0.2,0.6,0c0.2-0.2,0.2-0.4,0-0.6C74.4,44.6,74.2,44.6,74,44.8z"/>
	</g>
	<g>
		<g>
			<path d="M74.8,41.9c2.5-1.8,6.2-1.1,8.3,1.1c1,1.1,1.6,2.4,1.4,3.9c-0.2,1.3-0.9,2.5-2.1,3.1c-0.2,0.1-0.3-0.2-0.1-0.2
				c1.2-0.6,1.8-1.8,1.9-3.1c0.1-1.4-0.5-2.6-1.4-3.6c-2-1.9-5.4-2.6-7.7-0.9C74.9,42.2,74.7,42.1,74.8,41.9L74.8,41.9z"/>
		</g>
	</g>
	<g>
		<g>
			<path d="M80.5,52.1c0.5-0.4,1-0.2,1.6-0.3c1-0.2,0.5-1.6-0.1-2c-0.3-0.2,0-0.7,0.3-0.5c0.7,0.5,1.1,1.4,0.7,2.2
				c-0.1,0.4-0.4,0.7-0.8,0.7c-0.4,0.1-1-0.1-1.4,0.2C80.6,52.8,80.2,52.3,80.5,52.1L80.5,52.1z"/>
		</g>
	</g>
	<g>
		<path d="M82.1,49.5c0.1,0.3-0.1,0.6-0.4,0.7s-0.6,0.2-0.9,0.2c-0.5,0.1-1,0.1-1.5,0.1c-0.5,0-1,0.1-1.4-0.1
			c-0.4-0.2-0.8-0.6-0.8-1.1c0-0.2,0.1-0.5,0.3-0.7c0.6-0.8,1.6-1.4,2.6-1.2c1,0.1,1.9,1,1.9,2.1"/>
	</g>
	<g>
		<g>
			<path d="M77.5,49.4c-0.7,0.8-1.2,2.4,0.1,3c1.1,0.4,2.3-0.3,3.4-0.6c0.4-0.1,0.4,0.5,0.1,0.6c-1.4,0.3-3.1,1.3-4.4,0.1
				c-1.1-1-0.5-2.6,0.4-3.6C77.4,48.7,77.7,49.1,77.5,49.4L77.5,49.4z"/>
		</g>
	</g>
	<g>
		<g>
			<path d="M79.2,52.8c0.2,0.7,0.5,1.5,1.1,2c0.2,0.1,0.6,0.4,0.7,0c0.1-0.2-0.1-0.5-0.1-0.7c-0.1-0.5-0.3-1-0.6-1.5
				c-0.2-0.3,0.3-0.6,0.5-0.2c0.3,0.6,1.4,3.2,0,3.2c-1.3,0-1.9-1.6-2.2-2.6C78.6,52.6,79.1,52.4,79.2,52.8L79.2,52.8z"/>
		</g>
	</g>
	<g>
		<g>
			<path d="M81.2,55c1-0.6,1-1.8,0.2-2.6c-0.3-0.2,0.2-0.6,0.4-0.4c1.1,1,0.9,2.7-0.4,3.4C81.1,55.7,80.9,55.2,81.2,55L81.2,55z"/>
		</g>
	</g>
	<g>
		<g>
			<path class="st0" d="M61.8,73.5c1.8-0.3,3.7,0.7,5,1.9c0.9,0.9,1.5,2.3,0.1,3c-0.2,0.1-0.3-0.2-0.1-0.2c1.4-0.7,0.4-2.1-0.5-2.8
				c-1.2-1-2.8-1.8-4.4-1.5C61.7,73.8,61.6,73.5,61.8,73.5L61.8,73.5z"/>
		</g>
	</g>
	<g>
		<g>
			<path class="st0" d="M65.5,76.9c0.6,0.3,1.2,0.8,1.2,1.4c0,0.7-0.7,1-1.2,1.1c-0.7,0.1-1.5-0.4-2.1-0.9c-0.7-0.5-1.3-1.1-1.8-1.8
				c-0.1-0.1,0.1-0.3,0.2-0.2c0.7,1,1.7,2,2.8,2.4c0.5,0.2,1.5,0.3,1.8-0.4c0.2-0.6-0.6-1.2-1-1.4C65.2,77.1,65.3,76.9,65.5,76.9
				L65.5,76.9z"/>
		</g>
	</g>
	<g>
		<g>
			<path class="st0" d="M94.5,84.7c-1.4,0.4-0.8,2.2-1.1,3.2c-0.1-0.1-0.1-0.1-0.2-0.2c0.7-0.4,1.5-0.5,2.3-0.5
				c0.9-0.1,2.2-0.2,2.3-1.4c0.2-1.9-2.7-1.3-3.8-1c-0.2,0.1-0.2-0.2-0.1-0.3c1.1-0.3,3.9-0.9,4.1,0.9c0.3,2.7-3.4,1.6-4.7,2.5
				c-0.1,0.1-0.2,0-0.2-0.2c0.3-1.2-0.4-3,1.3-3.4C94.6,84.4,94.7,84.7,94.5,84.7L94.5,84.7z"/>
		</g>
	</g>
	<g>
		<g>
			<path class="st0" d="M97.8,86.1c-0.3-0.7-1.2-0.8-1.9-0.6c-0.2,0.1-0.2-0.2-0.1-0.3c0.8-0.2,1.8-0.1,2.2,0.8
				C98.1,86.2,97.8,86.3,97.8,86.1L97.8,86.1z"/>
		</g>
	</g>
	<g>
		<g>
			<path class="st0" d="M77.2,98c-0.2,0.6-0.4,1.3-0.8,1.9c-0.1-0.1-0.1-0.1-0.1-0.2c1.9-0.4,3.5,0.8,5.3,0.9c0.6,0,1.2-0.1,1.7-0.6
				c0.5-0.6,0.7-1.4,0.3-2.1c-0.6-1.1-2.3-1.4-3.4-1.7c-0.2,0-0.2-0.3,0-0.3c1.2,0.2,2.7,0.5,3.5,1.6c0.7,0.9,0.4,2.2-0.4,2.9
				s-2.1,0.5-3.1,0.2c-1.3-0.4-2.5-0.9-3.9-0.6c-0.1,0-0.2-0.1-0.1-0.2c0.4-0.6,0.6-1.2,0.8-1.8C77,97.8,77.3,97.9,77.2,98L77.2,98z
				"/>
		</g>
	</g>
	<g>
		<g>
			<path class="st0" d="M83.4,99.6c-0.1-1.2-1.2-1.7-2.3-1.9c-0.2,0-0.2-0.3,0-0.3c1.2,0.1,2.4,0.8,2.6,2.1
				C83.7,99.8,83.4,99.8,83.4,99.6L83.4,99.6z"/>
		</g>
	</g>
	<g>
		<g>
			<path class="st0" d="M51.8,48.9c-2.4-0.5-5.9,0-6.5,2.8c-0.6,2.6,1.2,5.9,4.1,5.5c0.2,0,0.2,0.2,0.1,0.3c-3,0.4-5-2.8-4.5-5.5
				c0.6-3.2,4.2-3.9,6.9-3.3C52,48.6,52,48.9,51.8,48.9L51.8,48.9z"/>
		</g>
	</g>
	<g>
		<path class="st0" d="M48,53c-0.2-0.7,0.2-1.4,0.8-1.6s1.4,0.2,1.6,0.9c0.2,0.7-0.2,1.4-0.8,1.6C48.9,54.1,48.2,53.7,48,53z"/>
	</g>
	<g>
		<path class="st0" d="M82,44.4c-0.5,0.7-1.4,0.9-2.1,0.4c-0.7-0.5-0.9-1.4-0.4-2.1c0.5-0.7,1.4-0.9,2.1-0.4
			C82.3,42.8,82.5,43.7,82,44.4z M80.3,42.5c-0.1,0.2-0.1,0.5,0.1,0.6c0.2,0.1,0.5,0.1,0.6-0.1c0.1-0.2,0.1-0.5-0.1-0.6
			C80.7,42.2,80.5,42.3,80.3,42.5z"/>
	</g>
	<g>
		<g>
			<path d="M78.3,48.2c0.5-1.8-0.5-3.7-2.1-4.7c-1.6-1-3.6-1-5.3-0.5c-1.1,0.3-2.1,0.9-2.8,1.8c-0.6,0.8-1.1,1.8-1.3,2.8
				c-0.2,2,1.6,3.9,3.2,4.7c2.1,0.9,4.5,0.5,6.2-1c0.1-0.1,0.3,0.1,0.2,0.2c-1.6,1.4-3.9,2-6,1.3c-1.9-0.6-3.7-2.4-3.9-4.5
				c-0.1-1,0.4-2.1,0.9-2.9c0.6-1.1,1.4-1.8,2.6-2.3c1.9-0.8,4.2-1,6.1,0c1.9,0.9,3.1,3.1,2.6,5.2C78.5,48.5,78.3,48.4,78.3,48.2
				L78.3,48.2z"/>
		</g>
	</g>
	<g>
		<g>
			<path class="st0" d="M89.7,59.7c1.3-0.6,2.8-0.8,4.2-0.5c1.1,0.3,1.9,1.1,1.4,2.2c-0.1,0.2-0.4,0.1-0.3-0.1
				c0.6-1.3-0.8-1.8-1.8-1.9c-1.1-0.1-2.3,0.1-3.4,0.6C89.6,60.1,89.5,59.8,89.7,59.7L89.7,59.7z"/>
		</g>
	</g>
	<g>
		<g>
			<path class="st0" d="M93.3,61.2c0.9-0.2,2.4,0.1,1.9,1.3c-0.5,1.4-2.4,1.4-3.6,1.3c-0.2,0-0.2-0.3,0-0.3c0.9,0.1,2.2,0.1,2.9-0.6
				c0.5-0.4,0.6-1.2-0.1-1.4c-0.4-0.1-0.8-0.1-1.2-0.1C93.1,61.5,93.1,61.2,93.3,61.2L93.3,61.2z"/>
		</g>
	</g>
	<g>
		<g>
			<path class="st0" d="M87.5,57.6c2.7,2.1,4.4,5.2,4.8,8.6c0,0.3-0.4,0.4-0.4,0.1c-0.4-3.3-2-6.3-4.6-8.3
				C87.1,57.8,87.3,57.5,87.5,57.6L87.5,57.6z"/>
		</g>
	</g>
	<g>
		<g>
			<path class="st0" d="M61.4,41.5c-1.1-1.4-3.3-1.1-4.7-0.2s-2,2.5-1.7,4.1c0,0.2-0.2,0.2-0.3,0.1c-0.2-1.7,0.5-3.5,1.9-4.5
				c1.4-0.9,3.8-1.1,4.9,0.4C61.7,41.4,61.5,41.6,61.4,41.5L61.4,41.5z"/>
		</g>
	</g>
	<g>
		<g>
			<path class="st0" d="M44.4,69.5c-1.4,0.9-0.8,2.9-0.4,4.2c0.6,1.9,0.9,3.8,0.9,5.7c-0.1,2.2-0.8,4.3-1.3,6.4
				c-0.5,2.1-0.9,5.1,0.7,6.9c1.6,1.7,4.5,1.7,6.6,1.7c0.2,0,0.2,0.3,0,0.3c-2,0-4.2,0-6-1.1c-1.9-1.2-2.2-3.6-2-5.7
				c0.2-2.5,1.3-4.9,1.6-7.4c0.2-2.3-0.1-4.6-0.7-6.8c-0.4-1.4-1.1-3.5,0.5-4.5C44.4,69.2,44.6,69.4,44.4,69.5L44.4,69.5z"/>
			<path d="M50.2,94.7c-1.9,0-3.8-0.2-5.4-1.1c-1.6-1-2.3-2.9-2-5.7c0.1-1.3,0.5-2.6,0.8-3.8c0.3-1.2,0.7-2.4,0.8-3.6
				c0.2-2,0-4.3-0.7-6.8l0-0.1c-0.4-1.4-1-3.5,0.5-4.5c0.1,0,0.1,0,0.2,0c0.1,0,0.1,0.1,0.1,0.2c0,0,0,0.1-0.1,0.1
				c-1.3,0.9-0.8,2.7-0.4,4l0,0.1c0.6,2,0.9,3.9,0.9,5.8c0,1.6-0.5,3.2-0.9,4.8c-0.1,0.6-0.3,1.1-0.4,1.7c-0.5,2.1-0.9,5.1,0.7,6.8
				c1.6,1.7,4.6,1.7,6.6,1.7c0.1,0,0.1,0,0.2,0.1c0,0,0.1,0.1,0.1,0.1c0,0.1-0.1,0.2-0.2,0.2C50.7,94.7,50.4,94.7,50.2,94.7z
				 M44.3,69.3C44.3,69.3,44.3,69.3,44.3,69.3c-1.5,1-0.9,2.9-0.5,4.4l0,0.1c0.7,2.5,1,4.8,0.8,6.8c-0.1,1.2-0.5,2.4-0.8,3.6
				c-0.3,1.2-0.7,2.5-0.8,3.8c-0.3,2.7,0.4,4.6,1.9,5.6c1.8,1.1,3.9,1.1,6,1.1c0.1,0,0.1-0.1,0.1-0.1c0,0,0,0,0,0c0,0,0,0,0,0
				c-2,0-5,0.1-6.7-1.7c-1.7-1.8-1.2-4.9-0.7-7c0.1-0.6,0.3-1.1,0.4-1.7c0.4-1.5,0.8-3.1,0.9-4.7c0-1.8-0.3-3.7-0.9-5.7l0-0.1
				c-0.4-1.3-1-3.2,0.4-4.2l0,0C44.4,69.4,44.4,69.4,44.3,69.3C44.4,69.4,44.4,69.3,44.3,69.3C44.3,69.3,44.3,69.3,44.3,69.3z"/>
		</g>
	</g>
	<g>
		<g>
			<path class="st0" d="M54.1,68.2c-1.4-1.4-3.2-2.4-5.1-2.8c-0.2,0-0.2-0.3,0-0.3c2,0.4,3.8,1.4,5.3,2.9
				C54.4,68.2,54.2,68.3,54.1,68.2L54.1,68.2z"/>
			<path d="M54.2,68.3c-0.1,0-0.1,0-0.1-0.1l0,0c-1.5-1.4-3.3-2.4-5.1-2.8c-0.1,0-0.1-0.1-0.2-0.1c0-0.1,0-0.2,0-0.2
				c0,0,0.1-0.1,0.2,0c2,0.4,3.8,1.4,5.4,2.9c0.1,0.1,0.1,0.1,0.1,0.2C54.4,68.2,54.4,68.3,54.2,68.3C54.3,68.3,54.2,68.3,54.2,68.3
				z M54.1,68.2c0,0,0.1,0,0.1,0c0,0,0,0,0,0c0,0,0,0,0,0c-1.5-1.5-3.3-2.4-5.3-2.9c0,0,0,0-0.1,0c0,0,0,0,0,0.1c0,0,0,0,0.1,0.1
				C50.8,65.8,52.6,66.8,54.1,68.2z"/>
		</g>
	</g>
	<g>
		<g>
			<path class="st0" d="M62.6,73.6c-1.6-2.7-4.3-5.6-7.8-5c-0.3,0.1-0.3-0.4-0.1-0.4c3.7-0.6,6.5,2.3,8.2,5.2
				C63.1,73.7,62.7,73.9,62.6,73.6L62.6,73.6z"/>
		</g>
	</g>
	<g>
		<g>
			<path class="st0" d="M61.8,73.7c-1.4-2.2-3.9-3.6-6.5-3.7c-0.3,0-0.2-0.4,0-0.4c2.7,0.1,5.3,1.6,6.7,3.9
				C62.2,73.6,61.9,73.9,61.8,73.7L61.8,73.7z"/>
		</g>
	</g>
	<g>
		<g>
			<path class="st0" d="M62.1,76.9c0.1,0.7,0.2,1.5,0.3,2.2c0,0.3-0.4,0.4-0.4,0.1c-0.1-0.7-0.2-1.5-0.3-2.2
				C61.6,76.8,62,76.7,62.1,76.9L62.1,76.9z"/>
		</g>
	</g>
	<g>
		<g>
			<path class="st0" d="M49.7,91.1c-2.6-0.2-5-1.1-6.7-3.2c-0.1-0.1,0.1-0.3,0.2-0.2c1.6,2,4,2.9,6.5,3.1
				C49.8,90.8,49.8,91.1,49.7,91.1L49.7,91.1z"/>
			<path d="M49.7,91.1C49.7,91.1,49.7,91.1,49.7,91.1c-2.9-0.2-5.2-1.3-6.8-3.2c0-0.1-0.1-0.1,0-0.2c0-0.1,0.1-0.1,0.2-0.2
				c0.1,0,0.1,0,0.2,0.1c1.5,1.8,3.7,2.8,6.5,3l0,0c0.1,0,0.2,0.2,0.2,0.3C49.8,91.1,49.8,91.1,49.7,91.1z M43.1,87.7
				C43.1,87.7,43.1,87.7,43.1,87.7C43,87.7,43,87.8,43.1,87.7C43,87.8,43,87.8,43,87.9c1.5,1.8,3.8,2.9,6.7,3.1l0,0c0,0,0,0,0.1,0
				c0,0,0-0.1-0.1-0.1C46.9,90.6,44.6,89.6,43.1,87.7C43.1,87.7,43.1,87.7,43.1,87.7z"/>
		</g>
	</g>
	<g>
		<g>
			<path class="st0" d="M55.1,70.1c-1.5-1.4-3.4-2.4-5.4-2.8c-0.2,0-0.2-0.3,0-0.3c2.1,0.4,4,1.4,5.6,2.9
				C55.4,70,55.2,70.2,55.1,70.1L55.1,70.1z"/>
			<path d="M55.2,70.2c-0.1,0-0.1,0-0.2-0.1c-1.6-1.5-3.5-2.4-5.4-2.8c-0.1,0-0.1-0.1-0.2-0.1c0-0.1,0-0.2,0-0.2c0,0,0.1-0.1,0.2,0
				c2,0.4,4,1.4,5.6,2.9c0.1,0,0.1,0.1,0.1,0.2C55.4,70.1,55.3,70.2,55.2,70.2C55.2,70.2,55.2,70.2,55.2,70.2z M49.6,67.1
				C49.6,67.1,49.6,67.1,49.6,67.1C49.6,67.1,49.6,67.1,49.6,67.1c0,0.1,0,0.1,0,0.1c1.9,0.3,3.8,1.3,5.4,2.8l0,0c0,0,0.1,0,0.1,0
				c0,0,0.1,0,0.1-0.1c0,0,0,0,0,0C53.6,68.4,51.7,67.4,49.6,67.1C49.7,67.1,49.6,67.1,49.6,67.1z"/>
		</g>
	</g>
	<g>
		<g>
			<path class="st0" d="M48.8,64.1c0.9,0,1.9,0.1,2.7-0.4c0.1-0.1,0.3,0.1,0.2,0.2c-0.9,0.6-1.9,0.5-2.9,0.5
				C48.6,64.4,48.7,64.1,48.8,64.1L48.8,64.1z"/>
			<path d="M49.6,64.4c-0.1,0-0.3,0-0.4,0c-0.1,0-0.3,0-0.4,0c-0.1,0-0.1,0-0.2-0.1c0-0.1,0-0.1,0-0.2c0-0.1,0.1-0.1,0.2-0.1
				c0.2,0,0.4,0,0.5,0c0.7,0,1.5,0,2.1-0.4c0.1-0.1,0.2,0,0.3,0c0,0,0.1,0.1,0.1,0.1c0,0.1,0,0.1-0.1,0.1
				C51.1,64.4,50.4,64.4,49.6,64.4z M48.9,64.3c0.1,0,0.2,0,0.4,0c0.9,0,1.7,0,2.5-0.5c0,0,0,0,0,0c0,0,0,0,0-0.1c0,0-0.1-0.1-0.1,0
				c-0.7,0.5-1.4,0.5-2.2,0.5c-0.2,0-0.4,0-0.5,0h0c0,0-0.1,0-0.1,0c0,0,0,0.1,0,0.1C48.8,64.3,48.8,64.3,48.9,64.3
				C48.8,64.3,48.8,64.3,48.9,64.3z"/>
		</g>
	</g>
	<g>
		<g>
			<path class="st0" d="M48.7,65.4c-0.5-1.7-1-3.5-1.6-5.3c0.1,0,0.2,0.1,0.3,0.1c-2.2,1-4.7,1.1-6.9,0.3c-0.9-0.3-3.7-1.6-2.3-3
				c0.9-0.9,2.6-0.8,3.7-0.8c0.8,0,4.9-0.1,3.6,1.7c-0.6,0.7-1.7,1-2.6,1.1c-1.1,0-2.2-0.3-3-1.1c-0.1-0.1-0.1-0.4,0.1-0.4
				c1.1-0.2,2.1-0.1,3.1,0.2c0.3,0.1,0.1,0.5-0.1,0.4c-1-0.3-1.9-0.3-2.9-0.2c0-0.1,0.1-0.2,0.1-0.4c1.2,1,3,1.3,4.4,0.6
				c0.2-0.1,0.4-0.2,0.5-0.3c0.2-0.2,0.4-0.5,0.1-0.7c-0.3-0.3-1.2-0.3-1.6-0.3c-0.6-0.1-1.2-0.1-1.9,0c-0.9,0-2.1,0-3,0.5
				c-0.6,0.3-0.6,0.9-0.1,1.4c0.6,0.6,1.5,0.9,2.3,1.2c2.1,0.6,4.3,0.5,6.3-0.4c0.1-0.1,0.2,0,0.3,0.1c0.6,1.8,1.1,3.6,1.6,5.4
				C49.2,65.6,48.8,65.7,48.7,65.4L48.7,65.4z"/>
		</g>
	</g>
	<g>
		<g>
			<path class="st0" d="M52.7,80.8c-1.1-5.1-2.4-10.2-3.9-15.2c-0.1-0.3,0.3-0.3,0.4-0.1c1.4,5,2.7,10.1,3.9,15.2
				C53.1,81,52.7,81.1,52.7,80.8L52.7,80.8z"/>
		</g>
	</g>
	<g>
		<g>
			<path class="st0" d="M38.3,58.8c4.9,7.1,8.7,14.9,11.3,23.1c0.1,0.2-0.3,0.4-0.4,0.2c-2.6-8.2-6.4-16-11.3-23
				C37.8,58.8,38.2,58.6,38.3,58.8L38.3,58.8z"/>
		</g>
	</g>
	<g>
		<g>
			<path class="st0" d="M55.6,79.6c0.9,0.9-1.7,1.5-2.2,1.6c-1.2,0.3-2.5,0.5-3.7,0.4c-1.1,0-2.4-0.1-3.3-0.8
				c-0.2-0.2,0-0.5,0.2-0.4c0.7,0.6,1.8,0.7,2.8,0.7c1,0,2-0.1,2.9-0.2c0.6-0.1,1.2-0.2,1.9-0.4c0.2-0.1,1.4-0.5,1.1-0.7
				C55.1,79.7,55.4,79.4,55.6,79.6L55.6,79.6z"/>
		</g>
	</g>
	<g>
		<g>
			<path class="st0" d="M48.7,89.2c-1.4,0.1-3.4,0.3-3.7-1.6c-0.4-2.3,0.8-4.4,1.5-6.5c0.1-0.2,0.3-0.1,0.3,0.1
				c-0.6,1.8-1.6,3.6-1.6,5.6c0,0.9,0.2,1.8,1.2,2.1c0.7,0.2,1.6,0.1,2.3,0.1C48.8,89,48.8,89.2,48.7,89.2L48.7,89.2z"/>
		</g>
	</g>
	<g>
		<g>
			<path class="st0" d="M55.6,80.6c0,0.3,0,0.6,0,0.9c0,0.2-0.3,0.2-0.3,0.1c0-0.3,0-0.6,0-0.9C55.3,80.4,55.6,80.4,55.6,80.6
				L55.6,80.6z"/>
		</g>
	</g>
	<g>
		<g>
			<path class="st0" d="M49.5,85.2c0.2-1.1,0.2-2.3-0.1-3.4c-0.1-0.2,0.2-0.2,0.3-0.1c0.3,1.1,0.3,2.3,0.1,3.5
				C49.8,85.4,49.5,85.4,49.5,85.2L49.5,85.2z"/>
		</g>
	</g>
	<g>
		<g>
			<path class="st0" d="M53.3,80.9c0.1,0.4,0.2,0.9,0.3,1.3c0.1,0.2-0.2,0.2-0.3,0.1c-0.1-0.4-0.2-0.9-0.3-1.3
				C53,80.7,53.3,80.7,53.3,80.9L53.3,80.9z"/>
		</g>
	</g>
	<g>
		<g>
			<path class="st0" d="M45.8,57.7c0.2,0.9,0.3,1.7,0.3,2.6c0,0.3-0.4,0.4-0.4,0.1c-0.1-0.9-0.2-1.7-0.3-2.6
				C45.3,57.5,45.7,57.4,45.8,57.7L45.8,57.7z"/>
		</g>
	</g>
	<g>
		<g>
			<path class="st0" d="M40.4,58.3c0.4,0.7,0.9,1.4,1.3,2.1c0.1,0.2-0.2,0.5-0.3,0.3c-0.4-0.7-0.9-1.4-1.3-2.1
				C39.9,58.4,40.2,58.1,40.4,58.3L40.4,58.3z"/>
		</g>
	</g>
	<g>
		<g>
			<path class="st0" d="M43.2,58.6c0,0.1,0.1,0.2,0.1,0.4c0,0.1-0.1,0.2-0.2,0.2c-0.1,0-0.2-0.1-0.2-0.2c0-0.1-0.1-0.2-0.1-0.4
				c0-0.1,0.1-0.2,0.2-0.2C43.1,58.4,43.2,58.5,43.2,58.6L43.2,58.6z"/>
		</g>
	</g>
	<g>
		<g>
			<path class="st0" d="M54.6,80.7c0.2,0.2,0.5,0.4,0.7,0.7c0.1,0.1,0,0.4-0.2,0.2c-0.2-0.2-0.5-0.4-0.7-0.7
				C54.3,80.9,54.5,80.6,54.6,80.7L54.6,80.7z"/>
		</g>
	</g>
	<g>
		<g>
			<path class="st0" d="M53.6,80.9c0.3,0.2,0.6,0.4,0.9,0.7c0.1,0.1,0,0.4-0.2,0.2c-0.3-0.2-0.6-0.5-0.9-0.7
				C53.3,81.1,53.5,80.8,53.6,80.9L53.6,80.9z"/>
		</g>
	</g>
	<g>
		<g>
			<path class="st0" d="M52.7,81.3c0.3,0.3,0.6,0.6,0.9,0.8c0.1,0.1-0.1,0.3-0.2,0.2c-0.3-0.3-0.6-0.6-0.9-0.8
				C52.3,81.4,52.5,81.2,52.7,81.3L52.7,81.3z"/>
		</g>
	</g>
	<g>
		<g>
			<path class="st0" d="M51.3,81.4c0.4,0.4,0.8,0.8,1.2,1.2c0.1,0.1-0.1,0.3-0.2,0.2c-0.4-0.4-0.8-0.8-1.2-1.2
				C51,81.5,51.2,81.3,51.3,81.4L51.3,81.4z"/>
		</g>
	</g>
	<g>
		<g>
			<path class="st0" d="M49.7,81.5c0.6,0.6,1.2,1.2,1.8,1.9c0.1,0.1-0.1,0.3-0.2,0.2c-0.6-0.6-1.2-1.2-1.8-1.9
				C49.3,81.5,49.5,81.3,49.7,81.5L49.7,81.5z"/>
		</g>
	</g>
	<g>
		<g>
			<path class="st0" d="M48.3,81.4c0.7,1,1.4,2,2.2,2.9c0.1,0.1-0.1,0.3-0.2,0.2c-0.8-0.9-1.6-1.9-2.2-2.9
				C48,81.5,48.2,81.3,48.3,81.4L48.3,81.4z"/>
		</g>
	</g>
	<g>
		<g>
			<path class="st0" d="M46.7,81.2c1,1.3,2,2.6,3.1,3.9c0.1,0.1-0.1,0.3-0.2,0.2c-1.1-1.2-2.1-2.5-3.1-3.9
				C46.4,81.2,46.6,81.1,46.7,81.2L46.7,81.2z"/>
		</g>
	</g>
	<g>
		<g>
			<path class="st0" d="M46.2,82.8c0.9,1.1,1.8,2.1,2.7,3.1c0.1,0.1-0.1,0.3-0.2,0.2c-0.9-1-1.9-2.1-2.7-3.1
				C45.9,82.8,46.1,82.7,46.2,82.8L46.2,82.8z"/>
		</g>
	</g>
	<g>
		<g>
			<path class="st0" d="M45.8,84.1c0.7,1.2,1.6,2.4,2.6,3.4c0.1,0.1-0.1,0.3-0.2,0.2c-1-1.1-1.9-2.2-2.6-3.5
				C45.5,84,45.7,83.9,45.8,84.1L45.8,84.1z"/>
		</g>
	</g>
	<g>
		<g>
			<path class="st0" d="M45.5,85.7c0.9,1,1.7,2,2.6,3c0.1,0.1-0.1,0.3-0.2,0.2c-0.9-1-1.7-2-2.6-3C45.2,85.8,45.4,85.6,45.5,85.7
				L45.5,85.7z"/>
		</g>
	</g>
	<g>
		<g>
			<path class="st0" d="M45.1,86.7c0.6,0.7,1.2,1.4,1.7,2.1c0.1,0.1-0.1,0.3-0.2,0.2c-0.6-0.7-1.2-1.4-1.7-2.1
				C44.8,86.7,45,86.5,45.1,86.7L45.1,86.7z"/>
		</g>
	</g>
	<g>
		<g>
			<path class="st0" d="M54.4,81.1c-0.1,0.2-0.1,0.5-0.2,0.7c-0.1,0.2-0.3,0.1-0.3-0.1c0.1-0.2,0.1-0.5,0.2-0.7
				C54.2,80.9,54.5,81,54.4,81.1L54.4,81.1z"/>
		</g>
	</g>
	<g>
		<g>
			<path class="st0" d="M52.8,81.4c-0.3,0.6-0.5,1.1-0.7,1.7c-0.1,0.2-0.3,0.1-0.3-0.1c0.2-0.6,0.5-1.2,0.7-1.8
				C52.6,81.1,52.9,81.3,52.8,81.4L52.8,81.4z"/>
		</g>
	</g>
	<g>
		<g>
			<path class="st0" d="M50.9,81.5c-1.3,2.5-2.6,4.9-4.1,7.3c-0.1,0.2-0.3,0-0.2-0.2c1.4-2.4,2.8-4.8,4.1-7.3
				C50.7,81.2,51,81.3,50.9,81.5L50.9,81.5z"/>
		</g>
	</g>
	<g>
		<g>
			<path class="st0" d="M48.7,81.7c-1,1.7-2.1,3.3-3.3,4.8c-0.1,0.1-0.4,0-0.2-0.2c1.2-1.5,2.3-3.1,3.3-4.8
				C48.5,81.4,48.7,81.6,48.7,81.7L48.7,81.7z"/>
		</g>
	</g>
	<g>
		<g>
			<path class="st0" d="M42.8,66.5c-2.2,2.1-1.5,5.5-0.9,8.1c0.5,2,1.3,5.3-0.8,6.7c0-0.1,0-0.2-0.1-0.2c1.1,0.3,2.2,0.4,3.3,0.3
				c0.2,0,0.2,0.3,0.1,0.3c-1.2,0.1-2.3,0-3.4-0.3c-0.1,0-0.1-0.2-0.1-0.2c1.2-0.8,1.4-2.3,1.2-3.6c-0.1-1.6-0.6-3-0.9-4.5
				c-0.4-2.3-0.4-5,1.3-6.7C42.7,66.2,42.9,66.4,42.8,66.5L42.8,66.5z"/>
			<path d="M43.5,81.8c-0.9,0-1.7-0.1-2.6-0.4c-0.1,0-0.1-0.1-0.1-0.2c0-0.1,0-0.1,0.1-0.2c1.2-0.8,1.3-2.3,1.2-3.5
				c-0.1-1-0.3-1.9-0.5-2.9c-0.1-0.5-0.3-1.1-0.4-1.7c-0.6-3-0.1-5.3,1.4-6.8c0.1-0.1,0.3,0,0.3,0.1c0.1,0.1,0.1,0.2,0,0.3
				c-2.2,2.2-1.4,5.6-0.8,8.1l0,0.2c0.5,2,1.1,4.8-0.5,6.3c0.9,0.2,1.8,0.3,2.8,0.2c0.1,0,0.2,0,0.2,0.1c0,0.1,0.1,0.2,0,0.2
				c0,0.1-0.1,0.1-0.2,0.1C44.1,81.8,43.8,81.8,43.5,81.8z M41.2,81.4c1,0.3,2.1,0.4,3.2,0.3c0,0,0,0,0,0c0,0,0-0.1,0-0.1
				c0,0,0,0-0.1,0c-1.1,0.1-2,0-3-0.2C41.3,81.3,41.3,81.4,41.2,81.4z M41,81.2C41,81.2,40.9,81.2,41,81.2
				C40.9,81.2,40.9,81.2,41,81.2c-0.1,0.1,0,0.2,0,0.2c0,0,0,0,0.1,0c0,0,0,0,0-0.1C41,81.2,41,81.2,41,81.2L41,81.2z M41.1,81.2
				C41.1,81.2,41.1,81.2,41.1,81.2C41.1,81.3,41.1,81.3,41.1,81.2C41.2,81.3,41.2,81.3,41.1,81.2C41.2,81.2,41.2,81.2,41.1,81.2z
				 M41.1,81.1c0.1,0,0.2,0,0.2,0.1c1.7-1.4,1-4.3,0.6-6.2l0-0.2c-0.6-2.5-1.4-6,0.9-8.2l0,0c0,0,0-0.1,0-0.1c0,0-0.1-0.1-0.1,0
				c-1.4,1.4-1.9,3.7-1.3,6.6c0.1,0.6,0.2,1.1,0.4,1.7c0.2,0.9,0.4,1.9,0.5,2.9C42.3,78.7,42.2,80.2,41.1,81.1z"/>
		</g>
	</g>
	<g>
		<g>
			<path class="st0" d="M61.7,73.8c-0.5,0.5-1.2,0.7-1.8,0.4C59.7,74.2,59.8,74,60,74c0.4,0.1,1.3,0.4,1.4,0.9
				c0.1,0.5-0.7,0.4-0.7,0.8c0-0.1-0.1-0.1-0.1-0.2c0.2,0,0.5,0.1,0.6,0.4c0.1,0.3-0.2,1,0,1.1c-0.1,0-0.1,0.1-0.2,0.1
				c0.1-0.5,0.4-0.8,0.8-0.9c0.2-0.1,0.2,0.2,0.1,0.3c-0.3,0.1-0.5,0.3-0.6,0.7c0,0.1-0.1,0.2-0.2,0.1c-0.2-0.1-0.2-0.2-0.2-0.4
				c0-0.3,0.4-1-0.2-1c-0.1,0-0.1-0.1-0.1-0.2c0.1-0.3,0.3-0.3,0.5-0.4c0.1-0.1,0.1,0,0.1-0.2c0-0.2-0.1-0.2-0.2-0.3
				c-0.3-0.2-0.6-0.3-0.9-0.4c0-0.1,0.1-0.2,0.1-0.3c0.6,0.2,1.1,0.1,1.6-0.4C61.7,73.5,61.9,73.7,61.7,73.8L61.7,73.8z"/>
		</g>
	</g>
	<g>
		<g>
			<path class="st0" d="M96.5,75.3c0.8,0.3,1.6,0.6,2.4,0.9c0.2,0.1,0.1,0.3-0.1,0.3c-0.8-0.3-1.6-0.6-2.4-0.9
				C96.2,75.5,96.3,75.3,96.5,75.3L96.5,75.3z"/>
		</g>
	</g>
	<g>
		<g>
			<path class="st0" d="M94.9,67.3c2,0.7,4,1.4,6,2.1c0.2,0.1,0.1,0.3-0.1,0.3c-2-0.7-4-1.4-6-2.1C94.6,67.5,94.8,67.2,94.9,67.3
				L94.9,67.3z"/>
		</g>
	</g>
	<g>
		<g>
			<path class="st0" d="M99.3,69.7c0-0.1,0.1-0.2,0.1-0.2c0-0.1,0-0.1,0.1-0.1v0c0,0,0,0,0,0c0,0,0,0,0,0c0,0,0,0.1,0,0.1
				c0,0,0,0,0.1,0.1c0,0,0,0,0,0c0,0,0.1,0,0.1,0c0.1,0,0.1-0.1,0.1,0c0,0,0,0,0,0s0,0,0,0c0,0,0,0.1-0.1,0.1c0,0.1-0.1,0.1-0.2,0
				c-0.1-0.1-0.1-0.1,0-0.2c0.1-0.1,0.1-0.2,0.2-0.2c0.1,0,0.1,0.2,0.1,0.2c0,0.1-0.1,0.3-0.1,0.4C99.5,69.9,99.2,69.8,99.3,69.7
				L99.3,69.7z"/>
		</g>
	</g>
	<g>
		<g>
			<path class="st0" d="M94.5,70.9c0.3-1.1,0.5-2.3,0.6-3.4c0-0.2,0.3-0.2,0.3,0c-0.1,1.2-0.4,2.3-0.6,3.5
				C94.7,71.2,94.5,71.1,94.5,70.9L94.5,70.9z"/>
		</g>
	</g>
	<g>
		<g>
			<path class="st0" d="M93.6,69c0.2-0.6,0.5-1.2,0.7-1.8c0.1-0.2,0.3-0.1,0.3,0.1c-0.2,0.6-0.5,1.2-0.7,1.8
				C93.8,69.3,93.5,69.2,93.6,69L93.6,69z"/>
		</g>
	</g>
	<g>
		<g>
			<path class="st0" d="M98.8,76c1.1-2,1.7-4.2,2.1-6.5c0-0.2,0.3-0.2,0.3,0c-0.3,2.3-1,4.5-2.1,6.6C99,76.4,98.7,76.2,98.8,76
				L98.8,76z"/>
		</g>
	</g>
	<g>
		<g>
			<path class="st0" d="M96.9,69.4c0.1-0.3,0.1-0.7,0.1-1.1c0-0.2,0.2-0.2,0.3-0.1c0,0.4,0,0.8-0.1,1.2
				C97.2,69.7,96.9,69.6,96.9,69.4L96.9,69.4z"/>
		</g>
	</g>
	<g>
		<g>
			<path class="st0" d="M94.4,67.2c0.1-0.1,0.2-0.1,0.3-0.1c0.1,0.1,0.1,0.2,0.1,0.3c0,0.1-0.1,0.1-0.2,0c-0.1-0.1-0.1-0.1,0-0.2
				c0,0,0,0.1,0,0.1l0,0l0,0l0,0c0,0,0,0,0,0h0c0,0,0.1,0,0,0c0,0.1-0.1,0.1-0.2,0C94.4,67.4,94.4,67.3,94.4,67.2L94.4,67.2z"/>
		</g>
	</g>
	<g>
		<g>
			<path class="st0" d="M94.4,67.2c0.1-1.2-0.1-2.4-0.4-3.5c-0.1-0.2,0.2-0.3,0.2-0.1c0.4,1.2,0.6,2.4,0.5,3.7
				C94.7,67.4,94.4,67.4,94.4,67.2L94.4,67.2z"/>
		</g>
	</g>
	<g>
		<g>
			<path class="st0" d="M92.5,59.4c-0.2-0.1-0.3,0.6-0.3,0.7c0,0.2,0,0.4,0,0.6c0,0.3,0.1,0.6,0.1,0.9c0.1,0.6,0.2,1.2,0.4,1.9
				c0.4,1.3,1,2.6,1.8,3.7c0.1,0.1-0.1,0.3-0.2,0.2c-1-1.4-1.7-3.1-2.1-4.8c-0.1-0.5-0.9-3.7,0.2-3.5C92.6,59.1,92.6,59.4,92.5,59.4
				L92.5,59.4z"/>
		</g>
	</g>
	<g>
		<g>
			<path class="st0" d="M92.9,59.5c-0.2,2.6,0.3,5.2,1.6,7.5c0.1,0.2-0.2,0.3-0.2,0.1c-1.3-2.3-1.9-5-1.6-7.6
				C92.6,59.3,93,59.3,92.9,59.5L92.9,59.5z"/>
		</g>
	</g>
	<g>
		<g>
			<path class="st0" d="M94.8,63.1c0.1,0.7,0.4,1.4,0.4,2.2c0,0.7-0.1,1.5-0.3,2.2c-0.1,0.2-0.3,0.1-0.3-0.1
				c0.2-0.7,0.3-1.5,0.3-2.2c-0.1-0.7-0.3-1.3-0.4-1.9C94.5,62.9,94.8,62.9,94.8,63.1L94.8,63.1z"/>
		</g>
	</g>
	<g>
		<g>
			<path class="st0" d="M101,69.7c0.1-0.1-0.7-0.8-0.8-0.9c-0.2-0.2-0.5-0.3-0.8-0.4c-0.5-0.2-1-0.3-1.5-0.5
				c-1.1-0.4-2.1-0.7-3.2-1.1c-0.2-0.1-0.1-0.3,0.1-0.3c1.4,0.5,2.9,1,4.3,1.5c0.5,0.2,1.1,0.4,1.5,0.7
				C100.9,69,101.2,69.4,101,69.7c0.1,0.1,0,0.2-0.1,0.2c-0.1,0-0.1,0-0.2-0.1c0-0.1-0.1-0.1,0-0.2c0,0,0,0,0-0.1
				C100.9,69.3,101.1,69.5,101,69.7L101,69.7z"/>
		</g>
	</g>
	<g>
		<g>
			<path class="st0" d="M93.6,66.5c-0.1,0-0.2-0.1-0.2-0.1c-0.1,0.1-0.1,0.2-0.1,0.3c0.1,0,0.1,0.1,0.2,0.1c0.2,0.1,0.3,0.2,0.5,0.2
				c0.4,0.1,0.7,0.2,1.1,0.3c0.2,0,0.2,0.3,0,0.3c-0.4-0.1-0.8-0.2-1.2-0.3c-0.3-0.1-0.8-0.3-1-0.5c-0.1-0.2-0.1-0.4,0.1-0.5
				c0.2-0.2,0.5-0.1,0.8,0C93.8,66.4,93.8,66.6,93.6,66.5L93.6,66.5z"/>
		</g>
	</g>
	<g>
		<g>
			<path class="st0" d="M100.9,69.4c0.6,0.2,1.3,0.3,1.3,1.1c0,0.9-0.5,1.9-0.7,2.8c-0.3,1.1-0.6,2.2-1,3.3
				c-0.4,0.9-1.2,0.2-1.9-0.1c-0.2-0.1-0.1-0.4,0.1-0.3c0.3,0.1,0.7,0.4,1,0.5c0.6,0.1,0.6-0.6,0.8-1c0.2-0.7,0.5-1.5,0.7-2.2
				c0.2-0.7,0.4-1.3,0.6-2c0.1-0.3,0.3-0.9,0.1-1.2c-0.2-0.2-0.7-0.3-1-0.4C100.6,69.6,100.7,69.3,100.9,69.4L100.9,69.4z"/>
		</g>
	</g>
	<g>
		<g>
			<g>
				<path class="st0" d="M45.5,62.6c-1.7,0.5-3.5,0.5-5.2,0.1c-0.2-0.1-0.1-0.3,0.1-0.3c1.7,0.5,3.4,0.4,5.1-0.1
					C45.7,62.2,45.7,62.5,45.5,62.6L45.5,62.6z"/>
			</g>
		</g>
		<g>
			<g>
				<path class="st0" d="M45.5,62.4c1.9,7,4.2,13.8,6.2,20.7c0.1,0.2-0.2,0.2-0.3,0.1c-2-6.9-4.3-13.8-6.2-20.7
					C45.2,62.3,45.5,62.2,45.5,62.4L45.5,62.4z"/>
			</g>
		</g>
		<g>
			<g>
				<path class="st0" d="M47.1,70.2c-0.1-0.3-0.4-0.6-0.6-0.9c-0.1-0.1,0-0.4,0.2-0.2c0.3,0.3,0.6,0.6,0.7,1
					C47.4,70.2,47.2,70.3,47.1,70.2L47.1,70.2z"/>
			</g>
		</g>
		<g>
			<g>
				<path class="st0" d="M45.8,68.5c-0.3-0.2-0.6-0.5-0.8-0.8c-0.1-0.1,0.1-0.3,0.2-0.2c0.3,0.2,0.6,0.5,0.8,0.8
					C46.2,68.5,45.9,68.7,45.8,68.5L45.8,68.5z"/>
			</g>
		</g>
		<g>
			<g>
				<path class="st0" d="M44,67c-0.3-0.4-0.7-0.7-1.2-0.9c-0.2-0.1,0-0.3,0.2-0.2c0.5,0.2,0.9,0.6,1.2,1C44.4,67,44.2,67.2,44,67
					L44,67z"/>
			</g>
		</g>
		<g>
			<g>
				<path class="st0" d="M48.4,74.7c-0.1-0.2-0.2-0.3-0.3-0.4C48,74.2,47.9,74,47.9,74c-0.1,0-0.2,0.1-0.2,0.2
					c0,0.2,0.2,0.5,0.1,0.7c-0.1,0.4-0.6,0.6-0.8,0.2c-0.1-0.1,0.1-0.3,0.2-0.2c0.1,0,0.1,0,0.2,0c0.1-0.1,0.1-0.1,0.1-0.2
					c0-0.1,0-0.2,0-0.2c0-0.1-0.1-0.2-0.1-0.4c0-0.2,0-0.4,0.2-0.5c0.4-0.3,0.9,0.5,1.1,0.7C48.7,74.6,48.5,74.8,48.4,74.7
					L48.4,74.7z"/>
			</g>
		</g>
		<g>
			<g>
				<path class="st0" d="M46.3,70.5c-0.2,0.3-0.3,0.7-0.3,1.1c0,0.2-0.3,0.2-0.3,0.1c0-0.5,0.1-0.9,0.3-1.3
					C46.2,70.2,46.4,70.3,46.3,70.5L46.3,70.5z"/>
			</g>
		</g>
		<g>
			<g>
				<path class="st0" d="M46.7,71.8c-0.2-0.5-0.6-0.8-1.1-1c-0.2-0.1-0.1-0.3,0.1-0.3c0.6,0.2,1,0.6,1.3,1.1
					C47,71.8,46.7,72,46.7,71.8L46.7,71.8z"/>
			</g>
		</g>
		<g>
			<g>
				<path class="st0" d="M46.7,72.1c0,0.1,0,0.2,0.1,0.4c0,0.2-0.2,0.2-0.3,0.1c0-0.1,0-0.2-0.1-0.4C46.3,71.9,46.6,71.9,46.7,72.1
					L46.7,72.1z"/>
			</g>
		</g>
		<g>
			<g>
				<path class="st0" d="M46.8,73.2c0,0.1,0,0.2,0,0.2c0,0.1-0.1,0.1-0.2,0.1s-0.1-0.1-0.1-0.2c0-0.1,0-0.2,0-0.2
					c0-0.1,0.1-0.1,0.2-0.1C46.8,73,46.8,73.1,46.8,73.2L46.8,73.2z"/>
			</g>
		</g>
		<g>
			<g>
				<path class="st0" d="M50.4,80.8c-0.1-0.3-0.2-0.5-0.4-0.7c-0.1-0.1,0.1-0.3,0.2-0.2c0.2,0.2,0.4,0.5,0.5,0.9
					C50.7,80.9,50.5,81,50.4,80.8L50.4,80.8z"/>
			</g>
		</g>
		<g>
			<g>
				<path class="st0" d="M49.3,79.3C49.3,79.1,49.1,79,49,79c-0.2-0.1-0.1-0.3,0.1-0.3c0.2,0.1,0.4,0.3,0.5,0.5
					C49.7,79.3,49.4,79.5,49.3,79.3L49.3,79.3z"/>
			</g>
		</g>
	</g>
	<g>
		<g>
			<path class="st0" d="M101.9,70c-0.4-0.6-1-1-1.6-1.3c-0.2-0.1-0.1-0.4,0.1-0.3c0.7,0.3,1.3,0.8,1.7,1.4
				C102.2,70,102,70.2,101.9,70L101.9,70z"/>
		</g>
	</g>
	<g>
		<g>
			<path class="st0" d="M93.1,66.8C93,67,93,67.2,92.9,67.4c-0.1,0.2-0.3,0.1-0.3-0.1c0.1-0.2,0.1-0.4,0.2-0.6
				C92.9,66.5,93.2,66.6,93.1,66.8L93.1,66.8z"/>
		</g>
	</g>
	<g>
		<g>
			<path class="st0" d="M99.6,69.8c0,0.1-0.1,0.2-0.1,0.4c0,0.1-0.1,0.1-0.2,0.1c-0.1,0-0.1-0.1-0.1-0.2c0-0.1,0.1-0.2,0.1-0.4
				c0-0.1,0.1-0.1,0.2-0.1C99.6,69.6,99.6,69.7,99.6,69.8L99.6,69.8z"/>
		</g>
	</g>
	<g>
		<g>
			<path class="st0" d="M98.1,74.3c0,0.1-0.1,0.2-0.1,0.2c-0.1,0.2-0.3,0.1-0.3-0.1c0-0.1,0.1-0.2,0.1-0.2
				C97.9,74,98.2,74.1,98.1,74.3L98.1,74.3z"/>
		</g>
	</g>
	<g>
		<g>
			<path class="st0" d="M96.1,70.9c-0.1,0-0.2,0-0.3,0c-0.2,0-0.2-0.3,0-0.3c0.1,0,0.2,0,0.3,0C96.3,70.7,96.3,71,96.1,70.9
				L96.1,70.9z"/>
		</g>
	</g>
	<g>
		<g>
			<g>
				<path class="st0" d="M94.4,70.5c0.2-0.3,0.4-0.6,0.7-0.9c0.1-0.1,0.3,0.1,0.2,0.2c-0.2,0.2-0.4,0.5-0.6,0.8
					C94.5,70.8,94.3,70.6,94.4,70.5L94.4,70.5z"/>
			</g>
		</g>
		<g>
			<g>
				<path class="st0" d="M95.4,69.5c1.5-0.7,3.2,0.4,3.6,2c0.4,1.7-1.3,3.1-2.9,2.9c-0.2,0-0.2-0.3,0-0.3c1.4,0.2,2.9-1.1,2.6-2.6
					c-0.3-1.4-1.8-2.4-3.2-1.7C95.3,69.9,95.2,69.6,95.4,69.5L95.4,69.5z"/>
			</g>
		</g>
		<g>
			<g>
				<path class="st0" d="M98.4,70.8c-1.1-0.9-2.6-0.8-3.6,0.2c-0.1,0.1-0.3-0.1-0.2-0.2c1.1-1.1,2.7-1.1,3.9-0.2
					C98.7,70.7,98.5,70.9,98.4,70.8L98.4,70.8z"/>
			</g>
		</g>
		<g>
			<g>
				<path class="st0" d="M95.4,70.2c0-0.1-0.1-0.2-0.1-0.2c-0.1-0.1,0.1-0.3,0.2-0.2c0.1,0.1,0.2,0.2,0.2,0.4
					C95.7,70.4,95.4,70.4,95.4,70.2L95.4,70.2z"/>
			</g>
		</g>
		<g>
			<g>
				<path class="st0" d="M98.2,72.1c0,0.4-0.6,1.6-1.2,1.2c-0.2-0.2-0.2-0.6-0.1-0.9c0.1-0.6,0.3-1,0.2-1.6c0-0.1,0.1-0.2,0.2-0.2
					c0.8,0.1,0.9,1,0.9,1.6c0,0.2-0.3,0.2-0.3,0c0.1-0.5,0.1-1.3-0.6-1.3c0.1-0.1,0.1-0.1,0.2-0.2c0.1,0.5,0.1,1-0.1,1.5
					c-0.1,0.1-0.1,0.3-0.1,0.4c0,0.1,0,0.1,0,0.2c0,0.2,0.1,0.2,0.2,0.1c0.4-0.1,0.5-0.6,0.6-0.9C97.9,71.9,98.2,71.9,98.2,72.1
					L98.2,72.1z"/>
			</g>
		</g>
		<g>
			<g>
				<path class="st0" d="M96.7,71.8c0,0.3-0.4,0.5-0.6,0.3c-0.3-0.3-0.1-0.6,0.1-0.9c0,0,0.1-0.1,0.1-0.1
					C96.6,71.2,96.8,71.4,96.7,71.8c0,0.1-0.3,0.1-0.2-0.1c0-0.1,0-0.2-0.1-0.2c0.1,0,0.1,0,0.1-0.1c-0.1,0.1-0.2,0.2-0.2,0.4
					c0,0.1,0,0.1,0.1,0.1c0,0,0.1,0,0.1,0C96.4,71.6,96.7,71.6,96.7,71.8L96.7,71.8z"/>
			</g>
		</g>
		<g>
			<g>
				<path class="st0" d="M95,71.7c0.1-0.7,0.6-1.2,1.3-1.4c0.6-0.2,1.3-0.2,1.8,0.3c0.1,0.1-0.1,0.3-0.2,0.2c-0.4-0.4-1-0.4-1.5-0.2
					c-0.6,0.2-1,0.5-1.1,1.1C95.3,72,95,71.9,95,71.7L95,71.7z"/>
			</g>
		</g>
		<g>
			<g>
				<path class="st0" d="M98,70.4c0.7,0.6,0.9,1.7,0.4,2.5c-0.5,0.9-1.6,1.2-2.5,0.7c-0.2-0.1-0.1-0.4,0.1-0.3
					c0.8,0.4,1.7,0.2,2.2-0.6c0.4-0.7,0.2-1.6-0.4-2.2C97.6,70.5,97.8,70.3,98,70.4L98,70.4z"/>
			</g>
		</g>
	</g>
	<g>
		<g>
			<path class="st0" d="M99.9,69c0.2-0.3-0.4-0.5-0.6-0.5c-0.2,0-0.4,0-0.7,0.1c0-0.1,0.1-0.1,0.1-0.2c0.2,0.5,0.9,0.6,1.4,0.6
				c0.2,0,0.2,0.3,0,0.3c-0.6-0.1-1.3-0.2-1.6-0.8c-0.1-0.1,0-0.2,0.1-0.2c0.4-0.1,0.9-0.1,1.2,0.1c0.3,0.2,0.5,0.5,0.3,0.8
				C100,69.3,99.8,69.1,99.9,69L99.9,69z"/>
		</g>
	</g>
	<g>
		<g>
			<path class="st0" d="M100.9,70.2c-0.4-0.3-0.9-0.4-1.3-0.4c-0.2,0-0.2-0.3-0.1-0.3c0.6-0.1,1.1,0.1,1.6,0.4
				C101.2,70,101,70.3,100.9,70.2L100.9,70.2z"/>
		</g>
	</g>
	<g>
		<g>
			<path class="st0" d="M100.8,71c-0.4-0.1-0.7-0.2-1-0.4c-0.1-0.1,0-0.3,0.2-0.2c0.2,0.2,0.6,0.3,0.9,0.3C101,70.7,101,71,100.8,71
				L100.8,71z"/>
		</g>
	</g>
	<g>
		<g>
			<path class="st0" d="M93.1,63.8c0.1,0.5,0.2,0.9,0.4,1.3c0.1,0.2-0.2,0.3-0.2,0.1c-0.2-0.4-0.4-0.9-0.5-1.4
				C92.8,63.7,93,63.7,93.1,63.8L93.1,63.8z"/>
		</g>
	</g>
	<g>
		<g>
			<path class="st0" d="M98.2,74.6c-0.1,0.4-0.2,0.8-0.4,1.2c-0.1,0.2-0.3,0.1-0.3-0.1c0.2-0.8,0.4-1.6,0.7-2.3
				c0.1-0.2,0.3-0.1,0.3,0.1c-0.2,0.8-0.4,1.6-0.7,2.3c-0.1,0-0.2-0.1-0.3-0.1c0.1-0.4,0.2-0.8,0.4-1.2
				C97.9,74.3,98.2,74.5,98.2,74.6L98.2,74.6z"/>
		</g>
	</g>
	<g>
		<g>
			<path class="st0" d="M99.5,70c-0.1,0.7-0.2,1.4-0.5,2.1c-0.1,0.2-0.3,0.1-0.3-0.1c0.3-0.6,0.4-1.3,0.5-2
				C99.2,69.8,99.5,69.8,99.5,70L99.5,70z"/>
		</g>
	</g>
	<g>
		<g>
			<path class="st0" d="M99.8,70.5c-0.1,0-0.2,0-0.4-0.1c-0.1,0-0.1-0.1-0.1-0.2c0-0.1,0.1-0.1,0.2-0.1c0.1,0,0.2,0,0.4,0.1
				c0.1,0,0.1,0.1,0.1,0.2C100,70.5,99.9,70.5,99.8,70.5L99.8,70.5z"/>
		</g>
	</g>
	<g>
		<g>
			<path class="st0" d="M100.1,69.8c0,0.2,0,0.3,0,0.5c0,0.2-0.3,0.2-0.3,0c0-0.2,0-0.3,0-0.5C99.8,69.6,100.1,69.7,100.1,69.8
				L100.1,69.8z"/>
		</g>
	</g>
	<g>
		<g>
			<path class="st0" d="M97.9,74.9c-0.4-0.1-0.9-0.2-1.3-0.3c-0.2-0.1-0.1-0.3,0.1-0.3c0.4,0.1,0.9,0.2,1.3,0.3
				C98.2,74.6,98.1,74.9,97.9,74.9L97.9,74.9z"/>
		</g>
	</g>
	<g>
		<g>
			<path class="st0" d="M55.4,79.9c-0.7,0.2-1.4,0.4-2.2,0.4c-0.2,0-0.2-0.3-0.1-0.3c0.7,0,1.4-0.2,2.1-0.4
				C55.4,79.6,55.5,79.9,55.4,79.9L55.4,79.9z"/>
		</g>
	</g>
	<g>
		<g>
			<path class="st0" d="M49,80.8c-0.8,0.1-1.6,0.1-2.4,0c-0.2,0-0.2-0.3,0-0.3c0.8,0.1,1.5,0.1,2.3,0C49.1,80.5,49.2,80.8,49,80.8
				L49,80.8z"/>
		</g>
	</g>
	<g>
		<g>
			<path class="st0" d="M50.6,94.3c-1.4-0.2-2.7-0.5-4-0.9c-1.2-0.4-2.4-0.9-3.2-1.9c-0.1-0.1,0.1-0.3,0.2-0.2
				c0.8,1,2.1,1.4,3.2,1.8c1.2,0.4,2.5,0.7,3.7,0.8C50.8,94.1,50.8,94.3,50.6,94.3L50.6,94.3z"/>
			<path d="M50.6,94.4C50.6,94.4,50.6,94.4,50.6,94.4c-1.4-0.2-2.7-0.5-4.1-0.9c-1.2-0.4-2.4-0.9-3.2-1.9c-0.1-0.1,0-0.2,0-0.3
				c0,0,0.1-0.1,0.1-0.1c0,0,0,0,0,0c0.1,0,0.1,0,0.1,0.1c0.8,1,2,1.4,3.2,1.8l0,0c1.2,0.4,2.5,0.7,3.7,0.8c0.1,0,0.2,0.1,0.2,0.1
				c0,0.1,0,0.1,0,0.2C50.7,94.4,50.7,94.4,50.6,94.4z M43.5,91.4C43.5,91.4,43.5,91.4,43.5,91.4c-0.1,0-0.1,0.1-0.1,0.1
				c0.8,1,2,1.4,3.2,1.8c1.3,0.4,2.7,0.7,4,0.9l0,0c0,0,0,0,0.1,0c0,0,0,0,0-0.1c0,0,0-0.1-0.1-0.1c-1.3-0.2-2.5-0.4-3.8-0.8l0,0
				C45.6,92.9,44.4,92.4,43.5,91.4C43.5,91.4,43.5,91.4,43.5,91.4z"/>
		</g>
	</g>
	<g>
		<g>
			<path class="st0" d="M47,90.5c-1.1,0.1-1.6,1.4-0.8,2.3c0.1,0.1-0.1,0.3-0.2,0.2c-0.9-1-0.4-2.6,1-2.7
				C47.1,90.2,47.1,90.5,47,90.5L47,90.5z"/>
			<path d="M46,93.1c0,0-0.1,0-0.1-0.1c-0.5-0.5-0.6-1.2-0.4-1.8c0.2-0.6,0.7-1,1.4-1.1c0.1,0,0.2,0.1,0.2,0.2c0,0.1,0,0.2-0.2,0.2
				l0,0c-0.5,0-0.9,0.3-1.1,0.8c-0.2,0.5-0.1,1,0.3,1.4c0.1,0.1,0.1,0.2,0,0.3C46.2,93.1,46.1,93.1,46,93.1z M46.9,90.3
				C46.9,90.3,46.9,90.3,46.9,90.3c-0.6,0.1-1.1,0.4-1.3,1c-0.2,0.6-0.1,1.2,0.4,1.6c0,0,0.1,0,0.1,0c0,0,0,0,0-0.1
				c-0.4-0.4-0.5-1-0.3-1.5c0.2-0.5,0.6-0.8,1.2-0.9C47,90.5,47,90.4,46.9,90.3C47,90.4,47,90.3,46.9,90.3z"/>
		</g>
	</g>
	<g>
		<g>
			<path class="st0" d="M44.7,89.4c-0.8,0.7-0.8,1.9-0.1,2.7c0.1,0.1-0.1,0.3-0.2,0.2c-0.8-0.9-0.8-2.3,0.1-3.1
				C44.7,89.1,44.9,89.3,44.7,89.4L44.7,89.4z"/>
			<path d="M44.5,92.4c0,0-0.1,0-0.1-0.1c-0.4-0.4-0.6-1-0.6-1.7c0-0.6,0.3-1.1,0.7-1.5c0.1-0.1,0.2-0.1,0.2,0
				c0.1,0,0.1,0.1,0.1,0.2c0,0.1,0,0.1-0.1,0.2c-0.3,0.3-0.6,0.7-0.6,1.2c0,0.5,0.2,1,0.5,1.3c0.1,0.1,0.1,0.2,0,0.3
				C44.6,92.4,44.6,92.4,44.5,92.4z M44.6,89.3C44.6,89.3,44.6,89.3,44.6,89.3c-0.5,0.4-0.7,0.9-0.7,1.4c0,0.6,0.2,1.1,0.6,1.5
				c0,0,0.1,0,0.1,0c0,0,0,0,0-0.1c-0.4-0.4-0.6-0.9-0.5-1.5c0-0.5,0.2-1,0.6-1.3l0,0C44.7,89.4,44.7,89.3,44.6,89.3
				C44.7,89.3,44.7,89.3,44.6,89.3C44.6,89.3,44.6,89.3,44.6,89.3z"/>
		</g>
	</g>
	<g>
		<g>
			<path class="st0" d="M43,67.2c-1,1-1.1,2.6-1,4c0.1,1.4,0.4,2.7,0.7,4.1c0.4,1.9,1,4.5-0.5,6C42,81.4,41.9,81.1,42,81
				c1.8-1.9,0.6-5.2,0.1-7.4c-0.5-2.1-1-5,0.7-6.7C42.9,66.8,43.1,67,43,67.2L43,67.2z"/>
			<path d="M42.1,81.3c0,0-0.1,0-0.1-0.1c-0.1-0.1-0.1-0.2,0-0.3c1.5-1.5,0.9-4.1,0.3-6.2c-0.1-0.4-0.2-0.8-0.3-1.1
				c-0.6-2.5-0.9-5.1,0.7-6.8c0.1-0.1,0.2,0,0.3,0c0,0,0.1,0.1,0.1,0.1c0,0.1,0,0.1-0.1,0.1c-0.8,0.8-1.1,2.1-1,3.9
				c0.1,1.2,0.4,2.5,0.7,3.7l0.1,0.3c0.5,2,1,4.5-0.5,6.1C42.2,81.3,42.1,81.3,42.1,81.3z M42.9,67C42.8,67,42.8,67,42.9,67
				c-1.6,1.6-1.3,4.2-0.7,6.7c0.1,0.4,0.2,0.7,0.3,1.1c0.5,2.1,1.2,4.7-0.4,6.3c0,0,0,0.1,0,0.1c0,0,0,0,0.1,0c1.5-1.5,1-4,0.5-6
				l-0.1-0.4c-0.3-1.2-0.6-2.5-0.7-3.7c-0.1-1.8,0.2-3.2,1-4l0,0C42.9,67.1,42.9,67.1,42.9,67C42.9,67,42.9,67,42.9,67
				C42.9,67,42.9,67,42.9,67z"/>
		</g>
	</g>
	<g>
		<g>
			<path class="st0" d="M42.3,81.4c-0.2,0.1-0.3-0.2-0.1-0.2C42.3,81.1,42.4,81.4,42.3,81.4L42.3,81.4z"/>
		</g>
	</g>
	<g>
		<g>
			<path class="st0" d="M42.2,81.1c0.8,0,1.6,0,2.4,0.1c0.2,0,0.2,0.3,0,0.3c-0.8-0.1-1.5-0.1-2.3-0.1C42,81.4,42,81.1,42.2,81.1
				L42.2,81.1z"/>
			<path d="M44.6,81.5C44.6,81.5,44.5,81.5,44.6,81.5c-0.8-0.1-1.6-0.1-2.3-0.1c-0.1,0-0.2,0-0.2-0.1c0-0.1-0.1-0.2,0-0.2
				c0-0.1,0.1-0.1,0.2-0.1c0.8,0,1.6,0,2.4,0.1c0.1,0,0.2,0.1,0.2,0.2C44.8,81.5,44.7,81.5,44.6,81.5z M42.8,81.3
				c0.6,0,1.1,0,1.7,0.1c0.1,0,0.1,0,0.1-0.1c0,0,0-0.1-0.1-0.1c-0.8-0.1-1.6-0.1-2.4-0.1h0c0,0,0,0,0,0c0,0,0,0.1,0,0.1
				c0,0,0,0,0.1,0C42.4,81.3,42.6,81.3,42.8,81.3z"/>
		</g>
	</g>
	<g>
		<g>
			<path class="st0" d="M53.4,66.9C52.2,65.7,50.6,65,49,65c-0.2,0-0.2-0.3,0-0.3c1.7,0,3.4,0.7,4.6,1.9
				C53.7,66.8,53.5,67,53.4,66.9L53.4,66.9z"/>
			<path d="M53.5,67c-0.1,0-0.1,0-0.2-0.1c-1.2-1.2-2.7-1.8-4.4-1.8c-0.1,0-0.1,0-0.2-0.1c0,0-0.1-0.1-0.1-0.1
				c0-0.1,0.1-0.2,0.2-0.2c1.7,0,3.4,0.7,4.7,1.9c0.1,0.1,0.1,0.2,0,0.3C53.6,66.9,53.6,67,53.5,67z M49,64.8
				C48.9,64.8,48.9,64.9,49,64.8c-0.1,0.1-0.1,0.1-0.1,0.1c0,0,0,0,0,0c1.7,0,3.3,0.7,4.5,1.9c0,0,0.1,0,0.1,0c0,0,0-0.1,0-0.1
				C52.3,65.5,50.7,64.8,49,64.8z"/>
		</g>
	</g>
	<g>
		<g>
			<path class="st0" d="M55.4,80L55.4,80c0,0-0.1,0-0.1,0c0,0,0,0-0.1,0.1c0,0.1,0.1,0.1,0.1,0.1c-0.2-0.1-0.8,0.4-1,0.5
				c-0.1,0.1-0.2-0.1-0.2-0.2c0.2-0.3,0.5-0.5,0.9-0.6c0.2-0.1,0.2,0.2,0.1,0.3c-0.4,0.2-0.9,0.4-1.4,0.4c-0.2,0-0.2-0.2-0.1-0.3
				c0.3-0.1,0.6-0.1,0.9-0.2c0,0.1,0,0.2,0,0.3c-0.3-0.1-0.6,0-0.8,0.2c0-0.1,0-0.1,0-0.2c0.1,0.1,0.2,0.2,0.4,0.2
				c0.2,0,0.2,0.3,0,0.3c-0.3,0-0.6-0.1-0.9-0.3c0.1-0.1,0.1-0.1,0.2-0.2c0.1,0.1,0.1,0.1,0.2,0.2c-0.1,0.1-0.1,0.1-0.2,0.2
				c0,0-0.1,0-0.1,0c0-0.1-0.1-0.2-0.1-0.2c0.2,0,0.3,0.2,0.2,0.4c0,0.1-0.1,0.1-0.2,0.1c-0.1-0.1-0.4-0.2-0.3-0.4
				c0.1-0.2,0.2-0.1,0.4-0.1c0.1,0,0.1,0.1,0.1,0.2c0,0,0,0,0,0.1c0,0.1-0.1,0.1-0.2,0.1C53,80.5,53,80.4,53,80.2
				c0-0.2,0.3-0.1,0.3,0.1c0,0.1-0.1,0.2-0.1,0.3c0,0.2-0.3,0.2-0.3,0c0-0.1,0.1-0.2,0.1-0.3c0.1,0,0.2,0.1,0.3,0.1
				c0,0.1,0.1,0.1,0.1,0.2c-0.1,0-0.1,0.1-0.2,0.1c0,0,0,0,0-0.1c0,0.1,0,0.1,0.1,0.2c0.1,0,0.1,0,0.2,0c-0.1,0-0.1,0-0.2,0.1l0,0
				c-0.1,0-0.2-0.2-0.1-0.2c0.1-0.2,0.4-0.1,0.5,0c0.1,0.1-0.1,0.3-0.2,0.2c-0.1-0.1-0.1-0.1-0.2-0.2c-0.1-0.1,0.1-0.3,0.2-0.2
				c0.2,0.2,0.4,0.2,0.7,0.2c0,0.1,0,0.2,0,0.3c-0.2,0-0.4-0.1-0.5-0.2c-0.1-0.1-0.1-0.2,0-0.2c0.3-0.2,0.6-0.3,1-0.3
				c0.2,0,0.2,0.2,0,0.3c-0.3,0.1-0.6,0.1-0.9,0.2c0-0.1,0-0.2-0.1-0.3c0.5,0,0.9-0.2,1.4-0.4c0,0.1,0.1,0.2,0.1,0.3
				c-0.3,0.1-0.5,0.2-0.7,0.5c-0.1-0.1-0.1-0.1-0.2-0.2c0.3-0.2,0.6-0.3,0.9-0.5c0.1-0.1,0.2-0.1,0.3-0.1c0.1,0,0.1,0.1,0.1,0.1
				c0,0.1,0,0.1-0.1,0.2c-0.1,0-0.1,0-0.2,0c0,0,0,0,0,0C55.1,80.1,55.3,79.9,55.4,80L55.4,80z"/>
		</g>
	</g>
	<g>
		<g>
			<path class="st0" d="M54.1,80.7c0.1,0.1,0.1,0.2,0,0.3c-0.1,0.1-0.2,0.1-0.3,0.1c0.1-0.1,0.1-0.1,0.2-0.2c-0.1-0.1-0.1-0.1-0.1,0
				c0,0,0,0.1,0,0.1c0,0,0,0-0.1,0c-0.1,0-0.1,0-0.2,0c-0.1,0-0.2-0.1-0.2-0.2c0-0.1,0.1-0.2,0.2-0.2c0.1,0,0.2,0.2,0.1,0.3
				c-0.1,0.2-0.3,0-0.2-0.2l0,0c0,0,0,0.1,0,0.1c0,0.1,0.1,0.1,0.2,0l0,0h0c0.1,0,0.1,0,0.2,0c0.1,0,0.2,0.1,0.3,0.2
				c0.1,0.2-0.2,0.4-0.4,0.2c-0.1-0.1,0-0.3,0.2-0.2c0,0,0,0,0,0c0,0,0,0,0,0c0,0,0,0,0,0c-0.1-0.1-0.1-0.1,0-0.2
				C53.9,80.6,54,80.6,54.1,80.7L54.1,80.7z"/>
		</g>
	</g>
	<g>
		<g>
			<path class="st0" d="M48.8,80.9c0.1,0.1,0.2,0.1,0.3,0.2c-0.1,0.1-0.1,0.2-0.2,0.2c-0.2-0.1-0.2-0.2-0.3-0.4
				c-0.1-0.1,0.1-0.2,0.2-0.2c0.1,0.1,0.2,0.2,0.3,0.3c0.1,0.1-0.1,0.2-0.2,0.2c-0.5-0.1-1.1-0.2-1.6-0.2c0-0.1,0-0.2,0-0.3
				c0.3,0,0.6,0.1,0.9,0.1c0,0.1-0.1,0.2-0.1,0.2C48.1,81,47.9,81,47.8,81c0-0.1,0-0.2,0-0.3c0.2,0,0.4,0.1,0.6,0.1
				c0.1,0,0.2,0.2,0.1,0.3c-0.2,0.1-0.3,0.1-0.6,0.1c0-0.1,0-0.2,0.1-0.3c0.2,0.1,0.3,0.1,0.6,0.1c0,0.1,0,0.2,0,0.3
				c-0.3-0.1-0.6-0.1-0.8-0.2c-0.2,0-0.2-0.3,0-0.3c0.3,0,0.6,0.1,0.9,0.1c0,0.1,0,0.2,0,0.3c-0.6-0.1-1.3-0.2-1.9-0.3
				c0-0.1,0-0.2,0.1-0.3c0.1,0.1,0.2,0.1,0.3,0.1c0.2,0.1,0.1,0.3-0.1,0.3c-0.1-0.1-0.2-0.1-0.3-0.1c-0.1-0.1-0.1-0.3,0.1-0.3
				c0.6,0.1,1.3,0.2,1.9,0.3c0.2,0,0.2,0.3,0,0.3c-0.3,0-0.6-0.1-0.9-0.1c0-0.1,0-0.2,0-0.3c0.3,0.1,0.6,0.1,0.8,0.2
				c0.2,0,0.2,0.3,0,0.3c-0.2,0-0.4-0.1-0.6-0.2c-0.1-0.1-0.1-0.3,0.1-0.3c0.1,0.1,0.3,0,0.4-0.1c0,0.1,0,0.2,0.1,0.3
				c-0.2,0-0.4-0.1-0.6-0.1c-0.2,0-0.2-0.2,0-0.3c0.2-0.1,0.4,0,0.6,0.1c0.1,0.1,0.1,0.3-0.1,0.2c-0.3,0-0.6-0.1-0.9-0.1
				c-0.2,0-0.2-0.3,0-0.3c0.6,0,1.1,0.1,1.7,0.2C49,81,49,81.1,48.9,81.1C48.8,81.1,48.8,81,48.8,80.9c0,0,0.1-0.1,0.2-0.1
				c0.1,0.1,0.1,0.2,0.2,0.3c0.1,0.1,0,0.3-0.2,0.2c-0.1-0.1-0.2-0.1-0.3-0.2C48.4,81,48.6,80.8,48.8,80.9L48.8,80.9z"/>
		</g>
	</g>
	<g>
		<g>
			<path class="st0" d="M55.3,80.1c-0.1,0.1-0.1,0.1-0.1,0.2c-0.1,0.1-0.1,0.1-0.2,0c-0.1-0.1-0.1-0.1,0-0.2
				c0.1-0.1,0.1-0.1,0.1-0.2c0.1-0.1,0.1-0.1,0.2,0S55.3,80,55.3,80.1L55.3,80.1z"/>
		</g>
	</g>
	<g>
		<g>
			<path class="st0" d="M72.4,88.7c0,0.2,0,0.3,0,0.5c0,0.2-0.3,0.2-0.3,0c0-0.2,0-0.3,0-0.5C72.1,88.5,72.4,88.5,72.4,88.7
				L72.4,88.7z"/>
		</g>
	</g>
	<g>
		<g>
			<path class="st0" d="M71.6,88.6c0,0.1,0,0.2,0,0.3c0,0.2-0.3,0.2-0.3,0c0-0.1,0-0.2,0-0.3C71.4,88.4,71.6,88.5,71.6,88.6
				L71.6,88.6z"/>
		</g>
	</g>
	<g>
		<g>
			<path class="st0" d="M73,89.9c0.1-0.1,0.1-0.1,0.2-0.2c0.1,0.1,0.2,0.1,0.2,0.2c-1.2,1.4-3.4,0.9-3.8-0.9
				c-0.1-0.2,0.2-0.2,0.3-0.1c0.4,1.6,2.3,2,3.3,0.7c0.1-0.1,0.3,0,0.2,0.2c-0.1,0.1-0.1,0.1-0.2,0.2C73.1,90.2,72.9,90.1,73,89.9
				L73,89.9z"/>
		</g>
	</g>
	<g>
		<g>
			<path class="st0" d="M71.6,97.1c-0.1-0.3-0.3-0.7-0.6-0.9c-0.1-0.1-0.2-0.2-0.2-0.3c-0.2-0.2-0.4,0-0.6,0.1
				c-0.1,0.1-0.4,0.2-0.5,0.3c-0.1,0.1,0.1,0.3,0.2,0.4c0.2,0.3,0.5,0.6,0.8,0.8c0.1,0.1-0.1,0.3-0.2,0.2c-0.2-0.2-0.4-0.5-0.7-0.7
				c-0.1-0.1-0.4-0.3-0.4-0.5c-0.1-0.4,0.4-0.5,0.7-0.7c0.3-0.2,0.6-0.4,0.9-0.1c0.4,0.4,0.7,0.9,0.9,1.3
				C71.9,97.2,71.6,97.3,71.6,97.1L71.6,97.1z"/>
		</g>
	</g>
	<g>
		<g>
			<path class="st0" d="M70.3,97.3c-0.2,0.2-0.4,0.4-0.7,0.4c-0.2,0-0.2-0.3-0.1-0.3c0.2,0,0.4-0.1,0.6-0.3
				C70.1,97,70.4,97.1,70.3,97.3L70.3,97.3z"/>
		</g>
	</g>
	<g>
		<g>
			<path class="st0" d="M71.7,95.4c-0.1,0.1-0.3,0.2-0.4,0.3c-0.1,0.1-0.3-0.1-0.2-0.2c0.1-0.1,0.3-0.2,0.4-0.3
				C71.6,95.1,71.8,95.3,71.7,95.4L71.7,95.4z"/>
		</g>
	</g>
	<g>
		<g>
			<path class="st0" d="M69.7,95.8c0-0.1-0.1-0.1-0.1-0.1c0.1,0,0.1,0,0.2-0.1c-0.3,0.4-0.7,0.7-1.2,0.9c-0.2,0.1-0.3-0.2-0.1-0.2
				c0.4-0.2,0.8-0.5,1.1-0.8c0-0.1,0.1-0.1,0.2-0.1c0.2,0.1,0.3,0.2,0.3,0.4C70,96,69.7,96,69.7,95.8L69.7,95.8z"/>
		</g>
	</g>
	<g>
		<g>
			<path class="st0" d="M82.2,89.8c-0.8,0-1.5,0.3-2.1,0.8c-0.1,0.1-0.3-0.1-0.2-0.2c0.6-0.6,1.4-0.9,2.3-0.9
				C82.4,89.5,82.4,89.8,82.2,89.8L82.2,89.8z"/>
		</g>
	</g>
	<g>
		<g>
			<path class="st0" d="M82.2,89.1c-0.7-0.1-1.5,0.2-2,0.7c-0.1,0.1-0.3-0.1-0.2-0.2c0.6-0.6,1.4-0.8,2.2-0.8
				C82.4,88.8,82.4,89.2,82.2,89.1L82.2,89.1z"/>
		</g>
	</g>
	<g>
		<g>
			<path class="st0" d="M80.9,89c-0.3-0.4-0.7-0.7-1.1-0.8c-0.2,0-0.2-0.3,0-0.3c0.6,0.1,1,0.4,1.3,0.9C81.2,89,81,89.2,80.9,89
				L80.9,89z"/>
		</g>
	</g>
	<g>
		<g>
			<path class="st0" d="M81.7,88.4c-0.2,0-0.4,0.1-0.7,0.1c-0.2,0-0.2-0.3-0.1-0.3c0.2,0,0.4-0.1,0.7-0.1
				C81.8,88.1,81.9,88.4,81.7,88.4L81.7,88.4z"/>
		</g>
	</g>
	<g>
		<g>
			<path class="st0" d="M81.6,87.4c-0.6,0.1-1.1-0.2-1.4-0.7c-0.1-0.2,0.2-0.3,0.2-0.1c0.2,0.4,0.6,0.6,1.1,0.6
				C81.7,87.1,81.7,87.4,81.6,87.4L81.6,87.4z"/>
		</g>
	</g>
	<g>
		<g>
			<path class="st0" d="M81.1,87.5c0,0,0,0.1,0,0.1c0,0.1-0.1,0.2-0.1,0.2c-0.1,0-0.1-0.1-0.2-0.1c0,0,0-0.1,0-0.1
				c0-0.1,0.1-0.2,0.1-0.2C81,87.4,81.1,87.4,81.1,87.5L81.1,87.5z"/>
		</g>
	</g>
	<g>
		<g>
			<path class="st0" d="M80.7,87.3c-0.1,0.1-0.1,0.1-0.1,0.2c-0.1,0.1-0.1,0.1-0.2,0c-0.1-0.1-0.1-0.1,0-0.2
				c0.1-0.1,0.1-0.1,0.1-0.2s0.1-0.1,0.2,0C80.7,87.2,80.7,87.3,80.7,87.3L80.7,87.3z"/>
		</g>
	</g>
	<g>
		<g>
			<path class="st0" d="M80.5,87.4c-0.2-0.2-0.4-0.3-0.7-0.3c-0.2,0-0.2-0.3,0-0.3c0.3,0,0.6,0.1,0.8,0.4
				C80.8,87.4,80.6,87.6,80.5,87.4L80.5,87.4z"/>
		</g>
	</g>
	<g>
		<g>
			<g>
				<path d="M27.6,96.4c-0.7,0-1.3,0.5-1.5,1.1c-0.1,0.4,0.6,0.6,0.7,0.2c0.1-0.4,0.4-0.6,0.8-0.6C28.1,97.1,28.1,96.4,27.6,96.4
					L27.6,96.4z"/>
			</g>
		</g>
	</g>
	<g>
		<g>
			<g>
				<g>
					<path d="M114.8,24.9c-2.7,3.6-7.1,7.8-12,5.4c-0.1-0.1-0.3,0.1-0.2,0.2c2.7,4.9-2.8,9.3-5.9,12.4c-1.6,1.6-3.3,2.9-4.9,4.5
						c-0.5,0.5-1,1-1.3,1.7c-0.5,1.2-1,1.9-2.5,2.1c-0.1,0-0.1,0.1-0.1,0.2c-0.1,1.1-0.6,1.9-1.5,2.4c-0.2,0.1,0,0.4,0.2,0.3
						c0.4-0.2,0.7-0.4,1-0.8c0.4-0.5,0.4-1,0.7-1.5c0.4-0.7,1.8-0.6,2.3-1.4c0.2-0.4,0.2-1.1,0.5-1.5c0.4-0.7,1-1.2,1.6-1.8
						c1.2-1.1,2.5-2.2,3.7-3.4c2.1-2.1,4.4-4.2,6-6.6c1.4-2.1,1.7-4.5,0.5-6.8c-0.1,0.1-0.2,0.2-0.2,0.2c5.1,2.6,9.7-1.7,12.5-5.5
						C115.3,24.9,115,24.7,114.8,24.9L114.8,24.9z"/>
				</g>
			</g>
		</g>
		<g>
			<g>
				<g>
					<path d="M44.9,94c-0.9,0.2-1.7,0.8-2,1.7c-0.3,0.9,0.1,1.7-0.6,2.7c-0.4,0.6-1.2,1.1-1.7,1.6c-2.2,2.2-3.9,4.7-5.2,7.5
						c-0.7,1.5-1.2,3.1-2,4.5c-0.7,1.4-1.8,2.5-2.9,3.6c-2,1.8-4.1,3.5-5.2,6c-0.1,0.2,0.2,0.4,0.3,0.2c1.1-2.5,3.2-4.2,5.1-6
						c2-1.9,3.2-3.9,4.2-6.4c1.2-3,2.8-5.8,5-8.2c0.9-1,2.2-1.8,2.9-2.9c0.2-0.4,0.3-0.7,0.3-1.1c0-1.4,0.4-2.5,1.9-2.9
						C45.2,94.3,45.1,94,44.9,94L44.9,94z"/>
				</g>
			</g>
		</g>
		<g>
			<g>
				<g>
					<path d="M111.2,28.3c-4-3-8.3-5.5-13-7.4c-2.4-1-4.8-1.8-7.3-2.5c-2.1-0.6-4-0.9-6,0.1c-4.1,2.1-7.4,5.9-10.2,9.4
						c-2.9,3.8-5.4,7.9-7.9,12.1c-0.1,0.2,0.2,0.4,0.3,0.2c4.5-7.6,9.4-16.1,17.1-20.9c1.4-0.9,2.8-1.3,4.5-1
						c1.1,0.2,2.2,0.5,3.4,0.9c2.3,0.7,4.5,1.5,6.7,2.4c4.3,1.9,8.3,4.2,12,7C111.2,28.7,111.4,28.5,111.2,28.3L111.2,28.3z"/>
				</g>
			</g>
		</g>
		<g>
			<g>
				<g>
					<path d="M70,33.7c-4.8-1.9-9.6-3.9-14.4-5.7c-4.1-1.5-8.8-3.8-13.2-2.4c-2.2,0.7-4.2,1.8-6.3,2.8c-2.3,1.1-4.6,2.1-6.9,3.2
						c-4.8,2.2-9.5,4.5-14.3,6.7c-0.2,0.1,0,0.4,0.2,0.3c4.4-2.1,8.8-4.2,13.3-6.3c2.3-1.1,4.6-2.1,6.9-3.2c2.2-1,4.5-2.2,6.8-3.1
						c4.7-1.7,9.8,0.9,14.2,2.5c4.6,1.7,9.1,3.6,13.7,5.4C70.2,34.1,70.3,33.8,70,33.7L70,33.7z"/>
				</g>
			</g>
		</g>
		<g>
			<g>
				<g>
					<path d="M98.1,85c0.5-1,0.5-1.9,0.1-3c-0.1,0.1-0.2,0.1-0.2,0.2c0.4,0.3,1.2,1.1,1.9,1.1c0.4,0,0.5-0.4,0.9-0.5
						c1.1-0.4,1.9,0.8,3-0.2c1.1-1.1,1.6-2.8,2.6-3.9c1.4-1.5,3.1-2.6,5-3.2c-0.1-0.1-0.1-0.2-0.2-0.2c-0.4,0.8-0.6,1.6-0.5,2.6
						c0,0.2,0.2,0.2,0.3,0.1c0.2-0.6,0.6-0.7,1.3-0.4c0,0.1,0.1,0.1,0.2,0.1c2.4,0,4.6-0.9,6.4-2.6c0.2-0.2-0.1-0.4-0.2-0.2
						c-1.3,1.3-4.1,3.1-6,2.3c-0.4-0.2-0.4-0.5-1-0.3c-0.5,0.1-0.7,0.7-0.9,1.1c0.1,0,0.2,0.1,0.3,0.1c-0.1-0.9,0.1-1.6,0.5-2.4
						c0.1-0.1-0.1-0.3-0.2-0.2c-2.6,0.8-4.9,2.4-6.3,4.7c-0.4,0.6-0.6,1.3-1,1.9c-0.6,0.9-1.4,1-2.4,0.6c-0.2-0.1-0.3-0.2-0.5-0.2
						c-0.4,0-0.4,0.1-0.8,0.2c-0.4,0.2,1.7,0.6-0.8,0.4c-0.3,0-1.1-0.7-1.3-0.9c-0.1-0.1-0.3,0.1-0.2,0.2c0.4,0.9,0.4,1.8-0.1,2.7
						C97.7,85.1,98,85.2,98.1,85L98.1,85z"/>
				</g>
			</g>
		</g>
		<g>
			<g>
				<g>
					<path d="M77.1,100.7c-0.6,0.4-2.6,1.4-2.5,2.3c0.1,0.5,0.6,0.6,0.7,1.1c0.4,0.9-1.9,1.4-2.7,1.6c-0.8,0.2-2.6,0.3-2.6,1.5
						c0,0.9,1,1.2,1.7,1.3c0-0.1,0-0.2,0-0.3c-0.5,0.2-1,0.5-1.4,0.9c-0.3,0.4-0.1,0.3-0.3,0.9c-0.3,0.7-0.5,1.2-1,1.8
						c-1.4,1.7-2.9,3.3-4.4,4.9c-0.1,0.2,0.1,0.4,0.2,0.2c1.3-1.5,2.7-3,4-4.5c0.4-0.4,0.9-0.9,1.2-1.5c0.5-1,0.7-1.9,1.8-2.5
						c0.1-0.1,0.1-0.3,0-0.3c-0.2,0-0.4-0.1-0.6-0.1c-0.6-1-0.4-1.6,0.3-1.7c0.4-0.2,1-0.2,1.5-0.4c1-0.3,2-0.7,3-1.3
						c0.1-0.1,0.1-0.2,0.1-0.2c-0.2-0.3-0.7-0.7-0.7-0.9c-0.2-0.6,0.4-1.3,0.8-1.6c0.3-0.3,0.8-0.6,1.2-0.9
						C77.5,100.9,77.3,100.6,77.1,100.7L77.1,100.7z"/>
				</g>
			</g>
		</g>
		<g>
			<g>
				<g>
					<path d="M103,97.9c0.7-1.1,0.6-2.3,0.7-3.5c0.2-2.1,0.8-4,1.6-5.9c0.1-0.2-0.1-0.4-0.3-0.2c-1.6,1.5-3,3.1-4.1,5
						c-0.6,0.9-1.1,1.9-1.6,3c-0.2,0.4-0.3,0.9-0.5,1.3c0,0.4-0.1,0.5-0.4,0.4c-0.3-0.2-0.6-0.4-0.8-0.7c-0.1-0.1-0.2-0.1-0.3,0
						c-0.6,0.7-0.9,3.4-2,3.3c-0.2,0-0.2,0.2-0.1,0.3c0.4,0.5,0.8,1,1.2,1.6c0.1-0.1,0.1-0.2,0.2-0.3c-2.4-0.4-4.8-0.9-7.2-1
						c-1.5-0.1-2.9,0.2-3.8,1.5c-0.1,0.2,0.2,0.4,0.3,0.2c1.1-1.6,3.3-1.4,5-1.1c1.9,0.2,3.7,0.6,5.6,0.8c0.2,0,0.3-0.1,0.2-0.3
						c-0.4-0.5-0.8-1-1.2-1.6c0,0.1-0.1,0.2-0.1,0.3c0.6,0,1-0.2,1.3-0.8c0.3-0.5,0.3-1.2,0.5-1.7c0.4-1,0.8-0.5,1.5,0.1
						c0.1,0.1,0.2,0.1,0.3-0.1c1.3-3.8,3.5-7.2,6.4-9.9c-0.1-0.1-0.2-0.1-0.3-0.2c-0.6,1.5-1.2,3-1.4,4.5c-0.3,1.6-0.1,3.5-0.9,4.9
						C102.6,97.9,102.9,98.1,103,97.9L103,97.9z"/>
				</g>
			</g>
		</g>
		<g>
			<g>
				<g>
					<path d="M92,105.2c-0.7-0.6-1.6-1-2.5-1.1c-0.1,0-0.2,0.2-0.1,0.2c0.3,0.6,0.6,1.1,0.7,1.7c0-0.1,0.1-0.1,0.1-0.2
						c-0.2,0.1-0.4,0.1-0.5-0.1c-0.2-0.1-0.4,0.2-0.2,0.3c0.3,0.2,0.5,0.2,0.8,0.1c0.1,0,0.2-0.1,0.1-0.2c-0.2-0.6-0.5-1.2-0.8-1.8
						c-0.1,0.1-0.1,0.2-0.1,0.2c0.8,0.1,1.6,0.4,2.2,1C92,105.6,92.2,105.4,92,105.2L92,105.2z"/>
				</g>
			</g>
		</g>
		<g>
			<g>
				<g>
					<path d="M89.3,108.5c-0.6-0.2-1.2-0.2-1.9-0.1c-0.2,0.1-0.1,0.4,0.1,0.3c0.6-0.1,1.1-0.1,1.7,0.1
						C89.5,108.9,89.5,108.6,89.3,108.5L89.3,108.5z"/>
				</g>
			</g>
		</g>
		<g>
			<g>
				<g>
					<path d="M112.9,65.5c-1.6-7.7-1.4-15.6,0.3-23.2c0.1-0.2-0.3-0.3-0.3-0.1c-1.8,7.7-1.9,15.7-0.3,23.4
						C112.6,65.9,113,65.8,112.9,65.5L112.9,65.5z"/>
				</g>
			</g>
		</g>
		<g>
			<g>
				<g>
					<path d="M111.9,65.3c-0.6-2.9-1.4-5.6-2.4-8.3c-0.1-0.2-0.4-0.1-0.3,0.1c1.1,2.7,1.9,5.5,2.4,8.3
						C111.6,65.6,111.9,65.5,111.9,65.3L111.9,65.3z"/>
				</g>
			</g>
		</g>
		<g>
			<g>
				<g>
					<path d="M110.7,66.6c-0.7-2.5-1.7-4.9-2.9-7.2c-0.1-0.2-0.4,0-0.3,0.2c1.2,2.2,2.2,4.6,2.9,7.1
						C110.4,66.9,110.7,66.9,110.7,66.6L110.7,66.6z"/>
				</g>
			</g>
		</g>
		<g>
			<g>
				<g>
					<path d="M113.3,41.9c-0.7,7.2-0.1,14.5,1.6,21.5c0.1,0.2,0.4,0.1,0.3-0.1c-1.7-7-2.2-14.2-1.6-21.4
						C113.7,41.7,113.4,41.7,113.3,41.9L113.3,41.9z"/>
				</g>
			</g>
		</g>
		<g>
			<g>
				<g>
					<path d="M108.5,66.9c-0.1-0.8-0.3-1.5-0.7-2.2c-0.1-0.1-0.3-0.1-0.3,0c-0.1,0.5-0.1,0.9,0.1,1.4c0.1-0.1,0.2-0.1,0.2-0.2
						c-0.2-0.2-0.5-0.3-0.7-0.5c-0.2-0.1-0.4,0.2-0.2,0.3c0.2,0.2,0.5,0.3,0.7,0.5c0.1,0.1,0.3-0.1,0.2-0.2
						c-0.1-0.4-0.1-0.8-0.1-1.2c-0.1,0-0.2,0-0.3,0c0.4,0.6,0.6,1.3,0.7,2C108.2,67.1,108.5,67.1,108.5,66.9L108.5,66.9z"/>
				</g>
			</g>
		</g>
		<g>
			<g>
				<g>
					<path d="M106.9,67.5c-0.4-0.7-0.9-1.4-1.3-2.1c-0.1-0.1-0.3-0.1-0.3,0.1c0.1,0.6,0.1,1.1,0.2,1.7c0,0.2,0.4,0.2,0.3,0
						c-0.1-0.6-0.1-1.1-0.2-1.7c-0.1,0-0.2,0.1-0.3,0.1c0.4,0.7,0.9,1.4,1.3,2.1C106.7,67.9,107,67.7,106.9,67.5L106.9,67.5z"/>
				</g>
			</g>
		</g>
		<g>
			<g>
				<g>
					<path d="M105.6,67.9c-0.4-0.3-0.8-0.6-1.2-0.9c-0.2-0.1-0.4,0.2-0.2,0.3c0.4,0.3,0.8,0.6,1.2,0.9
						C105.6,68.3,105.8,68,105.6,67.9L105.6,67.9z"/>
				</g>
			</g>
		</g>
		<g>
			<g>
				<g>
					<path d="M55.2,111.4c-3.1-2.4-6.3-4.6-9.5-6.7c-0.2-0.1-0.4,0.2-0.2,0.3c3.2,2.1,6.4,4.4,9.5,6.7
						C55.2,111.9,55.4,111.6,55.2,111.4L55.2,111.4z"/>
				</g>
			</g>
		</g>
		<g>
			<g>
				<g>
					<path d="M52.8,112.1c-2.4-2.4-4.9-4.8-7.3-7.2c-0.2-0.2-0.4,0.1-0.2,0.2c2.4,2.4,4.9,4.8,7.3,7.2
						C52.7,112.5,53,112.3,52.8,112.1L52.8,112.1z"/>
				</g>
			</g>
		</g>
		<g>
			<g>
				<g>
					<path d="M52.2,113.7c-1.6-1-3.2-1.9-5-2.6c-0.2-0.1-0.4,0.2-0.2,0.3c1.7,0.7,3.4,1.6,5,2.6C52.3,114.1,52.4,113.8,52.2,113.7
						L52.2,113.7z"/>
				</g>
			</g>
		</g>
		<g>
			<g>
				<g>
					<path d="M51.1,113.6c-1.1-0.2-2.1-0.3-3.1-0.5c-0.1,0-0.3,0.1-0.2,0.2c0.1,0.2,0.3,0.4,0.4,0.7c0.1,0.2,0.4,0,0.3-0.2
						c-0.1-0.2-0.3-0.4-0.4-0.7c-0.1,0.1-0.1,0.2-0.2,0.2c1.1,0.2,2.1,0.3,3.1,0.5C51.2,114,51.3,113.7,51.1,113.6L51.1,113.6z"/>
				</g>
			</g>
		</g>
		<g>
			<g>
				<g>
					<path d="M50.3,115.3c-0.4-0.3-0.8-0.5-1.3-0.5c-0.1,0-0.2,0.2-0.1,0.3c0.1,0.1,0.3,0.2,0.4,0.4c0-0.1,0.1-0.2,0.1-0.3
						c-0.6,0.1-1.2,0.2-1.8,0.1c-0.2,0-0.2,0.3,0,0.3c0.6,0.1,1.2,0,1.9-0.1c0.1,0,0.2-0.2,0.1-0.3c-0.1-0.1-0.3-0.2-0.4-0.4
						c0,0.1-0.1,0.2-0.1,0.3c0.4,0,0.8,0.1,1.1,0.4C50.2,115.6,50.5,115.4,50.3,115.3L50.3,115.3z"/>
				</g>
			</g>
		</g>
		<g>
			<g>
				<g>
					<path d="M48.9,116.8c-0.9,0.3-1.8,0.6-2.6,0.9c-0.2,0.1-0.1,0.4,0.1,0.3c0.9-0.3,1.8-0.6,2.6-0.9
						C49.2,117,49.2,116.7,48.9,116.8L48.9,116.8z"/>
				</g>
			</g>
		</g>
		<g>
			<g>
				<g>
					<path d="M48.1,119.8c-1.5,2.5-2.9,5-4.2,7.6c-0.1,0.2,0.2,0.4,0.3,0.2c1.3-2.6,2.7-5.1,4.2-7.6
						C48.5,119.8,48.2,119.6,48.1,119.8L48.1,119.8z"/>
				</g>
			</g>
		</g>
		<g>
			<g>
				<g>
					<path d="M123.3,56.3c0,0,0.1,0,0.1-0.1c0.1,0,0.1-0.1,0.1-0.2c0.1-1.2-1.8,0.7-1.9,0.7c-2,1.7-3.8,3.6-5.5,5.6
						c-0.1,0.2,0.1,0.4,0.2,0.2c1-1.2,2.1-2.3,3.2-3.4c0.5-0.5,1.1-1,1.6-1.5c0.6-0.5,1.3-1.5,2.1-1.8C123,56,123.1,56.3,123.3,56.3
						L123.3,56.3z"/>
				</g>
			</g>
		</g>
		<g>
			<g>
				<g>
					<path d="M111,84.9c0.5-0.5,0.9-1,1.3-1.6c0.2-0.4,0.8-1,0.6-1.5c-0.2-0.9-1.8,0.1-2.2,0.3c-0.7,0.4-2.1,1.3-1.9,2.2
						c0.2,1.2,1.7,0.7,2.4,0.3c0.2-0.1,0-0.4-0.2-0.3c-0.3,0.2-0.8,0.5-1.2,0.4c-0.7-0.5-0.8-0.9-0.3-1.3c0.1-0.1,0.2-0.2,0.3-0.3
						c0.4-0.4,0.9-0.8,1.5-1.1c0.1-0.1,0.7-0.4,0.9-0.3c0.6,0.2,0,0.8-0.1,1.1c-0.4,0.6-0.9,1.2-1.4,1.7
						C110.6,84.8,110.9,85,111,84.9L111,84.9z"/>
				</g>
			</g>
		</g>
		<g>
			<g>
				<g>
					<path d="M109.8,86.7c0.1-0.6-0.6-1.2-1.1-0.9c-0.3,0.2-0.1,0.6,0.1,0.8c0.2,0.2,0.5,0.3,0.8,0.2c0.2-0.1,0-0.4-0.2-0.3
						c-0.3,0.1-0.6-0.2-0.5-0.5c0,0-0.1,0.1-0.1,0.1c0.3-0.2,0.7,0.1,0.6,0.4C109.4,86.8,109.7,86.9,109.8,86.7L109.8,86.7z"/>
				</g>
			</g>
		</g>
		<g>
			<g>
				<g>
					<path d="M61.3,114.4c1.4-0.3,2.5-1.1,3.1-2.5c0.1-0.1,0-0.2-0.1-0.2c-1.5-0.4-3.1-0.3-4.5,0.3c-1.1,0.5-3,1.6-3.1,3
						c-0.1,0.9,0.7,1.6,1.6,1.7C59.7,116.8,60.7,115.4,61.3,114.4c0.1-0.3-0.2-0.4-0.3-0.2c-0.6,1-2,3.1-3.5,2
						c-1.9-1.4,1.4-3.4,2.4-3.8c1-0.4,2.4-0.8,3.5-0.5c1.5,0.5-1.5,2.1-2.2,2.2C61,114.1,61.1,114.4,61.3,114.4L61.3,114.4z"/>
				</g>
			</g>
		</g>
		<g>
			<g>
				<g>
					<path d="M62.4,115.5c0-0.4,0.5-0.2,0.6,0.1c0,0.2-0.1,0.4-0.3,0.6c-0.2,0.2-0.5,0.3-0.8,0.4c-0.2,0-0.7,0.1-0.7-0.2
						c-0.1-0.4,0.6-0.6,0.8-0.6c0.2,0,0.1-0.4-0.1-0.3c-0.5,0.1-1.4,0.5-1,1.1c0.2,0.6,1.1,0.4,1.5,0.2c0.6-0.2,1.3-1,0.8-1.6
						c-0.3-0.4-1.1-0.2-1.1,0.3C62.1,115.8,62.4,115.8,62.4,115.5L62.4,115.5z"/>
				</g>
			</g>
		</g>
		<g>
			<g>
				<g>
					<path d="M38.8,123.9c0.6-0.2,0.4-1,0-1.3c-0.7-0.5-1.5,0.3-1.9,0.8c-0.1,0.1-0.1,0.2,0,0.2c0.5,0.6,1.2,0.7,1.9,0.5
						C39.1,124,38.9,123.7,38.8,123.9c-0.6,0.1-1.2,0-1.6-0.5c0,0.1,0,0.2,0,0.2c0.3-0.4,0.7-0.9,1.2-0.9c0.3,0,0.8,0.6,0.4,0.8
						C38.5,123.6,38.6,123.9,38.8,123.9L38.8,123.9z"/>
				</g>
			</g>
		</g>
		<g>
			<g>
				<g>
					<path d="M41.8,109.7c-0.2-0.5-1-0.6-1.2-0.1c-0.1,0.2-0.1,0.5,0.1,0.7c0,0.1,0.1,0.1,0.1,0.1c0.1,0.1,0.2,0,0.3,0
						c0.2,0,0.4-0.1,0.6-0.1c0.2,0,0.2-0.4,0-0.3c-0.2,0-0.5,0.1-0.8,0.1c0,0,0.1,0,0.1,0.1c-0.1-0.1-0.2-0.4,0-0.6
						c0.2-0.1,0.4,0,0.5,0.1C41.6,110,41.9,109.9,41.8,109.7L41.8,109.7z"/>
				</g>
			</g>
		</g>
		<g>
			<g>
				<g>
					<path d="M125.6,68.5c0.1-0.7-1-1.2-1.5-0.6c-0.5,0.6,0.2,1.6,0.9,1.4c0.2-0.1,0.1-0.4-0.1-0.3c-0.4,0.1-0.9-0.5-0.6-0.8
						c0.3-0.3,0.9,0.1,0.8,0.4C125.2,68.7,125.6,68.7,125.6,68.5L125.6,68.5z"/>
				</g>
			</g>
		</g>
		<g>
			<g>
				<g>
					<path d="M107,22.1c-0.1-0.3-0.1-0.6-0.2-0.9c0-0.2-0.4-0.1-0.3,0.1c0.1,0.3,0.1,0.6,0.2,0.9C106.7,22.4,107,22.3,107,22.1
						L107,22.1z"/>
				</g>
			</g>
		</g>
		<g>
			<g>
				<g>
					<path d="M106.7,20.6c0-0.2-0.1-0.4-0.1-0.6c-0.1,0-0.2,0.1-0.3,0.1c0.3,1.7,0.6,3.4,0.9,5c0,0.2,0.4,0.1,0.3-0.1
						c-0.3-1.7-0.6-3.4-0.9-5c0-0.2-0.4-0.1-0.3,0.1c0,0.2,0.1,0.4,0.1,0.6C106.4,20.9,106.8,20.8,106.7,20.6L106.7,20.6z"/>
				</g>
			</g>
		</g>
		<g>
			<g>
				<g>
					<path d="M108.9,21.5c-0.3-0.9,0.2-1.8-0.7-2.5c-0.4-0.4-1.1-0.7-1.2,0.1c0.1,0,0.2-0.1,0.3-0.1c-0.5-0.8-1.4-2-2.5-1.5
						c-0.2,0.1-0.4,0.3-0.6,0.5c-0.3,0.3-0.6,0.4-1,0.6c-0.3,0.2-0.6,0.4-0.7,0.8c-0.1,0.4,0,0.7,0.2,1c-0.1-0.2,0.6,0.6,0.5,0.3
						c0.1,0.2,0,0.1,0.1,0.4c0.3,0.7,0.7,1.4,1.7,1.1c0.2-0.1,0.1-0.4-0.1-0.3c-0.9,0.1-1.3-0.3-1.2-1.2c0-0.1,0-0.2-0.1-0.2
						c-0.6-0.9-0.6-1.5,0.1-1.7c0.1,0,0.1,0,0.2-0.1c0.2-0.1,0.3-0.1,0.4-0.3c0.5-0.4,0.5-1.1,1.6-0.6c0.5,0.2,0.8,0.8,1.1,1.2
						c0.1,0.1,0.3,0.1,0.3-0.1c0-0.4,0.9,0.4,0.9,0.4c0.2,0.3,0.2,0.7,0.2,1c0,0.3,0,0.7,0.1,1.1C108.6,21.8,108.9,21.7,108.9,21.5
						L108.9,21.5z"/>
				</g>
			</g>
		</g>
		<g>
			<g>
				<g>
					<path d="M102.1,18.9c0.2-0.7-0.1-1.4-0.8-1.7c-0.1,0-0.2,0-0.2,0c-0.4,0.5-0.3,0.5-0.8,0.3c-0.3-0.1-0.4-0.1-0.7-0.1
						c-0.2,0-0.2,0.1-0.5,0.1c-0.5,0-0.2-0.1-0.6-0.1c-0.3-0.1-0.6-0.1-0.9,0c-1.4,0.4-1.6,2-0.7,3c0.1,0.2,0.4-0.1,0.2-0.2
						c-0.5-0.6-0.6-1.5,0-2.1c0.7-0.7,1.1-0.3,1.9-0.2c0.6,0.1,1.1-0.3,1.6,0.1c0.1,0.1,0.2,0.1,0.2,0c0.1-0.2,0.2-0.3,0.4-0.5
						c0.6,0.1,0.8,0.5,0.6,1.2C101.7,19,102,19.1,102.1,18.9L102.1,18.9z"/>
				</g>
			</g>
		</g>
		<g>
			<g>
				<g>
					<path d="M95.7,18.3c0-0.6-0.2-1.6-0.9-1.7c-0.4-0.1-0.8,0.1-0.7,0.5c0.1-0.1,0.2-0.1,0.3-0.2c-0.6-0.6-1.1-0.1-1.7,0.2
						c-0.4,0.2-1.6,0.3-1.2,1.1c0.1,0.2,0.4,0,0.3-0.2c-0.1-0.2,0.9-0.4,1.1-0.4c0.4-0.1,0.8-1,1.3-0.4c0.1,0.1,0.3,0,0.3-0.2
						c0.5,0,0.8,0.3,0.9,0.7c0.1,0.2,0.1,0.4,0.1,0.6C95.3,18.5,95.7,18.5,95.7,18.3L95.7,18.3z"/>
				</g>
			</g>
		</g>
		<g>
			<g>
				<g>
					<path d="M99.6,19.7c0.1,0.5,0.2,1,0.2,1.5c0,0.2,0.4,0.1,0.3-0.1c-0.1-0.5-0.2-1-0.2-1.5C99.9,19.4,99.5,19.5,99.6,19.7
						L99.6,19.7z"/>
				</g>
			</g>
		</g>
		<g>
			<g>
				<g>
					<path d="M94,18.6c-0.1,0-0.1,0-0.2,0c-0.2,0-0.1,0.4,0.1,0.3c0.1,0,0.1,0,0.2,0C94.3,18.9,94.2,18.6,94,18.6L94,18.6z"/>
				</g>
			</g>
		</g>
		<g>
			<g>
				<g>
					<path d="M123.2,56.6c-0.1,1.4-0.4,2.7-0.9,4c-0.1,0.2,0.2,0.3,0.3,0.1c0.5-1.3,0.8-2.7,0.9-4.1
						C123.6,56.4,123.2,56.4,123.2,56.6L123.2,56.6z"/>
				</g>
			</g>
		</g>
		<g>
			<g>
				<g>
					<path d="M83.4,20.4c-0.3,1.1,0.2,2.2,1.1,2.8c1.2,0.9,2.7,0.7,4.1,0.4c2-0.4,3.9-0.7,6-0.7c1.1,0,2.2,0.1,3.1,0.6
						c0.4,0.2,0.9,0.5,1.2,1c0.7,1.2-0.4,2.1-1.4,2.4c-3.9,1.3-8.4,0.8-12.4,1.1c-2.7,0.2-7.4,0.3-9.1,2.9c-1.7,2.6,3.7,2.7,5.2,2.7
						c1.9,0.1,3.9-0.1,5.9-0.1c2,0,4.6-0.1,6.4,0.9c1.2,0.7,0.7,2.2-0.5,2.6c-0.4,0.1-0.8,0.2-1.2,0.3c-1,0.2-2,0.2-3,0.1
						c-2-0.1-3.9-0.5-5.9-0.3c-0.7,0.1-2.3,0-2.7,0.9c-0.4,1.1,1.3,1.6,1.9,1.9c2.1,0.9,4.2,1.5,6.3,2.1c1.1,0.3,3,1,2.8,2.5
						C91,46.3,89,45.8,88,46.2c-0.7,0.3-1.3,1.1-0.8,1.9c0.6,1,2.9,0.7,3,2c0,0.2,0.4,0.2,0.3,0c-0.1-0.7-0.5-0.9-1.1-1.2
						c-0.5-0.2-1.2-0.3-1.6-0.6c-0.9-0.7-0.3-1.6,0.6-1.9c0.5-0.2,1.1-0.1,1.6-0.2c1-0.2,1.7-0.9,1.5-2c-0.1-1.1-1.1-1.8-2.1-2.2
						c-1.7-0.7-3.6-1-5.4-1.6c-0.5-0.2-1-0.4-1.4-0.6c-0.2-0.1-1.5-0.5-1.7-0.7c-1.3-1.7,2.5-1.6,3.2-1.6c1.8,0,3.6,0.4,5.4,0.4
						c1.5,0,3.5-0.1,4.7-1.1c0.6-0.5,0.7-1.2,0.2-1.8c-0.8-1.2-2.7-1.5-4.1-1.6c-4-0.5-8.1,0.4-12.1-0.4c-0.4-0.1-0.8-0.1-1.2-0.3
						c-1.1-0.5-1.2-1.5-0.4-2.2c0.8-0.7,1.8-1.1,2.8-1.4c2.3-0.6,4.7-0.8,7-0.9c2.1-0.1,4.1-0.1,6.2-0.3c1.7-0.1,3.6-0.2,5.2-0.9
						c0.9-0.4,1.7-1.1,1.5-2.2c-0.2-1.2-1.6-1.8-2.6-2.1c-1.9-0.5-4-0.3-5.9-0.1c-1.3,0.2-2.5,0.6-3.8,0.7c-1.7,0.1-3.9-0.9-3.4-3.1
						C83.7,20.3,83.4,20.2,83.4,20.4L83.4,20.4z"/>
				</g>
			</g>
		</g>
		<g>
			<g>
				<g>
					<path d="M41.8,99.2c-6.3-1.6-12.7-2.1-19.2-1.5c-0.2,0-0.2,0.4,0,0.3c6.4-0.6,12.8-0.2,19.1,1.4C41.9,99.6,42,99.3,41.8,99.2
						L41.8,99.2z"/>
				</g>
			</g>
		</g>
		<g>
			<g>
				<g>
					<path d="M42.3,76.8c-0.3-0.9-1.1-1.4-2-1.4c-1.4,0-1.5,1.3-2.2,2.3c-1.5,2.2-5.6,1.2-6,4.4c-0.2,1.6,0.6,2.9,1.5,4.1
						c0.6,0.8,1.9,1.9,1.3,2.9c-0.4,0.6-1.2,1-1.9,1.5c-0.7,0.5-1.3,1.2-1.2,2.2c0.1,0.4,0.3,0.9,0.6,1.1c0.2,0.2,0.5,0.3,0.8,0.4
						c0.3,0.1,0.6,0.1,0.9,0.1c0.8,0,1,0.5,0.6,1.4c-0.2,0-0.2,0.2-0.1,0.3c0.5,0.3,1.1,0.5,1.6,0.8c0.2,0.1,2.2,1.2,1.9,1.3
						c-0.2,0.1-0.1,0.4,0.1,0.3c1.6-0.6-3.1-2.6-3.4-2.7c0,0.1-0.1,0.2-0.1,0.3c0.5-0.1,0.9-0.4,0.8-0.9c-0.1-1.2-1.6-0.9-2.3-1.3
						c-0.4-0.6-0.8-1.2-1.1-1.9c0.1-0.2,0.2-0.5,0.4-0.7c0.2-0.3,0.5-0.5,0.8-0.7c0.4-0.3,0.8-0.5,1.2-0.8c0.6-0.5,1.1-1,0.8-1.7
						c-0.2-0.6-0.9-1.3-1.3-1.8c-0.6-0.8-1.2-1.6-1.6-2.6c-0.7-2.2,0.6-3.6,2.6-4.2c0.9-0.3,2-0.6,2.7-1.2c0.4-0.3,0.6-0.8,0.8-1.2
						c0.6-1.3,2.6-2.1,3.2-0.2C42.1,77.1,42.4,77.1,42.3,76.8L42.3,76.8z"/>
				</g>
			</g>
		</g>
		<g>
			<g>
				<g>
					<path d="M33.1,90.2c-0.2-1.4-1.3-3.6-3-3.8c-0.5-0.1-0.7,0-0.9,0.4c-0.2,0.3-0.1,0.8-0.5,1c-0.3,0.2-0.8,0.1-1.2,0.2
						c-0.4,0.1-0.7,0.4-0.8,0.8c-0.1,0.4,0.1,0.9,0.1,1.2c0.1,0.9-0.3,1.5-0.7,2.3c-0.9,1.7-0.6,2.9,0.8,4.2
						c0.2,0.1,0.4-0.1,0.2-0.2c-0.8-0.7-1.6-1.6-1.2-2.8c0.2-0.7,0.7-1.3,0.9-2c0.2-0.4,0.3-0.8,0.3-1.2c0-0.2-0.1-0.4-0.1-0.6
						c0.1-1.5,0.4-1.2,1.3-1.4c0.7-0.1,0.7-0.2,1-0.7c0.3-0.4-0.9-0.7,0.7-0.7c0.4,0,1.1,0.6,1.3,0.9c0.7,0.7,1.1,1.6,1.3,2.6
						C32.8,90.5,33.1,90.5,33.1,90.2L33.1,90.2z"/>
				</g>
			</g>
		</g>
		<g>
			<g>
				<g>
					<path d="M26.4,92.5c-0.3-0.4-0.6-0.6-1.1-0.7c-0.1,0-0.2,0.1-0.2,0.2c0,1.7-1.6,0.7-2.3,1.1c-0.5,0.3-0.5,1-0.6,1.5
						c-0.2,0.9-0.9,2.8,0.6,3c0.2,0,0.3-0.3,0.1-0.3c-1.1-0.2-0.5-2.3-0.2-2.9c0.2-0.5,0.5-0.9,1-0.9c0.2,0,0.5,0.1,0.8,0
						c0.7-0.1,1-0.7,1-1.4c-0.1,0.1-0.1,0.1-0.2,0.2c0.3,0.2,0.6,0.4,0.9,0.5C26.2,92.9,26.5,92.7,26.4,92.5L26.4,92.5z"/>
				</g>
			</g>
		</g>
		<g>
			<g>
				<g>
					<path d="M30.7,97.3c0-1-0.1-2-0.1-3.1c0-0.2-0.4-0.2-0.3,0c0,1,0.1,2,0.1,3.1C30.3,97.5,30.7,97.5,30.7,97.3L30.7,97.3z"/>
				</g>
			</g>
		</g>
		<g>
			<g>
				<g>
					<path d="M24.9,97.5c0-0.3,0-0.6,0.1-0.9c0-0.2-0.3-0.2-0.3,0c0,0.3,0,0.6-0.1,0.9C24.5,97.8,24.9,97.8,24.9,97.5L24.9,97.5z"/>
				</g>
			</g>
		</g>
		<g>
			<g>
				<g>
					<path d="M41.1,99.5c0-1.2-0.2-2.3-0.4-3.5c-0.1-0.2-0.4-0.1-0.3,0.1c0.2,1.1,0.4,2.2,0.4,3.4C40.8,99.8,41.1,99.8,41.1,99.5
						L41.1,99.5z"/>
				</g>
			</g>
		</g>
	</g>
</g>
</svg>
