<?xml version="1.0" encoding="utf-8"?>
<!-- Generator: Adobe Illustrator 24.0.1, SVG Export Plug-In . SVG Version: 6.00 Build 0)  -->
<svg version="1.1" id="Layer_1" xmlns="http://www.w3.org/2000/svg" xmlns:xlink="http://www.w3.org/1999/xlink" x="0px" y="0px"
	 viewBox="0 0 141.7 141.7" style="enable-background:new 0 0 141.7 141.7;" xml:space="preserve">
<style type="text/css">
	.st0{fill:#070707;}
</style>
<g id="Layer_1_1_">
</g>
<g id="Layer_1_2_">
</g>
<g id="Layer_1_3_">
</g>
<g id="Layer_1_4_">
</g>
<g id="Layer_1_5_">
</g>
<g id="Layer_3">
</g>
<g id="Layer_4">
	<g>
		<g>
			<path class="st0" d="M68.5,52.4c-0.2-4.6,2.6-8.9,6.4-11.7c2.3-1.7,5-2.7,7.6-3.9c2.7-1.2,5.1-2.4,8.1-2.5
				c9.2-0.5,14.8,7.7,18.6,14.6c1.1,2,2.1,4.1,3.2,6.1c1.6,3,3.6,5.9,5.6,8.7c1.9,2.6,3.8,5.2,4.8,8.3c0.9,2.8,0.9,5.7,0.2,8.5
				c-0.1,0.3-0.6,0.2-0.5-0.1c0.6-2.9,0.6-5.7-0.3-8.6c-0.9-2.9-2.9-5.4-4.7-7.9c-1.8-2.5-3.6-5-5.1-7.7c-1.1-1.9-2-3.8-3.1-5.8
				c-3.9-7.5-9.6-16.4-19.6-15.6C87,35,84.5,36.4,82,37.5c-2.3,1-4.6,2-6.7,3.4c-3.7,2.6-6.5,6.9-6.4,11.4
				C69,52.7,68.5,52.7,68.5,52.4L68.5,52.4z"/>
		</g>
		<g>
			<path class="st0" d="M120.9,84.5c-1.8,3.3-5.3,5.4-8.7,7c-1.7,0.8-3.5,1.5-5.3,2.2c-2.1,0.8-4.2,1.8-6.5,1.8
				c-0.3,0-0.3-0.5,0-0.5c2.2,0,4.3-1,6.3-1.8c1.8-0.7,3.5-1.4,5.2-2.2c3.3-1.5,6.7-3.6,8.5-6.8C120.7,84,121.1,84.2,120.9,84.5
				L120.9,84.5z"/>
		</g>
		<g>
			<path class="st0" d="M102,38.8c1.9-1.8,2.1-4.5-0.2-6c-1-0.7-2.3-0.8-3.5-0.6c-1.3,0.2-3.1,1.2-3.5,2.5c-0.1,0.3-0.6,0.2-0.5-0.1
				c0.4-1.4,2-2.3,3.3-2.7c1.4-0.5,2.9-0.3,4.2,0.4c1.2,0.6,1.9,1.7,2.2,3c0.3,1.5-0.6,2.9-1.7,3.9C102.1,39.4,101.7,39,102,38.8
				L102,38.8z"/>
		</g>
		<g>
			<path class="st0" d="M69.3,48.5c-2.1,0.1-4.9,1.1-5.5,3.2c-0.9,2.9,2.2,6.1,5.2,5c0.3-0.1,0.4,0.4,0.1,0.5c-3.2,1.1-6-1.8-6-4.8
				c0-2.9,3.6-4.2,6.1-4.4C69.6,48,69.6,48.4,69.3,48.5L69.3,48.5z"/>
		</g>
		<g>
			<path class="st0" d="M89.7,49.8c-0.1,0-0.1,0-0.2,0.1c0-0.1-0.1-0.1-0.1-0.2c1.2-0.2,3.3-0.2,4,1.1c0.3,0.6-0.1,1.4-0.6,1.8
				c-0.8,0.8-1.9,1-3,1.3c-1.3,0.3-1.9,1.1-2.8,2c-0.6,0.6-1.3,0.7-2,0.4c-2.1-1-0.2-3.7,0.7-4.8c0.1-0.1,0.3,0,0.2,0.2
				c-0.6,0.7-1.1,1.4-1.4,2.2C84,55,84.9,56.8,86.3,56c0.6-0.3,1.1-1,1.6-1.5c0.4-0.4,0.9-0.6,1.4-0.8c0.7-0.3,1.5-0.4,2.2-0.6
				c0.9-0.3,2.1-1.4,1.6-2.4c-0.6-1.1-2.6-1-3.6-0.8c-0.1,0-0.2-0.1-0.1-0.2c0.1,0,0.1-0.1,0.2-0.1C89.8,49.5,89.8,49.7,89.7,49.8
				L89.7,49.8z"/>
		</g>
		<g>
			<path class="st0" d="M87.5,55.4c0.1,0.8,0.6,1.7,1.1,2.3c0.4,0.4,0.9,0.6,1.5,0.4c0.5-0.2,0.9-1,0.5-1.4
				c-0.1-0.1,0.1-0.3,0.2-0.2c0.8,0.9-0.3,2-1.3,2c-1.2-0.1-2-2-2.2-3C87.2,55.3,87.5,55.2,87.5,55.4L87.5,55.4z"/>
		</g>
		<g>
			<path class="st0" d="M122.9,80.6c-2,0.1-1.6,2.5-2.3,3.8c0-0.1-0.1-0.1-0.1-0.2c1.9-0.7,5.6,1.2,6.5-1.2c0.9-2.4-3.3-2.4-4.7-2.3
				c-0.2,0-0.2-0.2,0-0.2c1.6-0.1,5.1-0.2,5.1,2c0,3.3-5,1.3-6.8,2c-0.1,0-0.2-0.1-0.1-0.2c0.7-1.5,0.3-3.8,2.5-3.9
				C123,80.4,123,80.6,122.9,80.6L122.9,80.6z"/>
		</g>
		<g>
			<path class="st0" d="M126.8,83.2c-0.3-1-1.4-1.3-2.3-1.3c-0.2,0-0.2-0.2,0-0.2c1.1-0.1,2.3,0.3,2.6,1.4
				C127.1,83.3,126.8,83.3,126.8,83.2L126.8,83.2z"/>
		</g>
		<g>
			<path class="st0" d="M100.7,95.4c-1.4-1-3.7-1.3-4.8,0.2c-0.7,1-0.7,2.4-0.2,3.5c0.6,1.5,2.1,1.3,3,0.1c0.9-1.1,0.7-2.8,1.3-4.1
				c0.1-0.1,0.3,0,0.2,0.1c-0.8,1.7-0.4,3.9-2.3,5c-1.1,0.6-2.1-0.2-2.5-1.2c-0.5-1.2-0.4-2.8,0.4-3.8c1.2-1.5,3.5-1.2,5-0.1
				C101,95.3,100.9,95.5,100.7,95.4L100.7,95.4z"/>
		</g>
		<g>
			<path class="st0" d="M97.2,97.5c-0.2,0.9-0.2,1.9,0.3,2.8c0.1,0.1-0.1,0.3-0.2,0.1c-0.5-0.9-0.5-2-0.3-3
				C97,97.3,97.3,97.4,97.2,97.5L97.2,97.5z"/>
		</g>
		<g>
			<path class="st0" d="M73.9,66.7c-1-0.7-2.3-1.1-3.5-0.6c-0.9,0.4-1.4,1.2-0.7,2.1c0.3,0.4,1,0.6,1.5,0.7c0.9,0.2,1.8-0.2,2.7-0.2
				c0.6,0,1.4,0.3,1.9,0.7c0.1,0.1,0,0.3-0.1,0.2c-0.8-0.6-1.8-0.7-2.7-0.6c-0.5,0.1-1,0.2-1.6,0.1c-1-0.1-1.9-0.6-2.2-1.5
				c-0.3-0.9,0.7-1.6,1.4-1.8c1.2-0.5,2.5,0.1,3.5,0.7C74.1,66.6,74,66.8,73.9,66.7L73.9,66.7z"/>
		</g>
		<g>
			<path class="st0" d="M71.4,67.6c-0.6-0.3-1.6-0.5-1.9,0.3c0,0.1-0.3,0.1-0.2-0.1c0.3-1,1.5-0.9,2.2-0.5
				C71.6,67.4,71.5,67.7,71.4,67.6L71.4,67.6z"/>
		</g>
		<g>
			<path class="st0" d="M77.8,55.5c-2.1,0-4.2-1-5.4-2.9c-0.8-1.4-1.1-3-0.7-4.5c0.4-1.6,1.4-2.9,2.9-3.7c3-1.7,6.8-0.8,8.6,2.1
				c0.8,1.4,1.1,3,0.7,4.5c-0.4,1.6-1.4,2.9-2.9,3.7C80,55.3,78.9,55.5,77.8,55.5z M77.8,43.8c-1,0-2.1,0.3-3,0.8
				c-1.4,0.8-2.3,2-2.7,3.5c-0.4,1.5-0.1,3,0.7,4.3c1.7,2.7,5.3,3.6,8.1,2c1.4-0.8,2.3-2,2.7-3.5c0.4-1.5,0.1-3-0.7-4.3
				C81.7,44.8,79.8,43.8,77.8,43.8z"/>
		</g>
		<g>
			<path class="st0" d="M91.3,48.5c-2.1,0-4.2-1-5.4-2.9l0,0c-0.8-1.4-1.1-3-0.7-4.5c0.4-1.6,1.4-2.9,2.9-3.7c3-1.7,6.8-0.8,8.6,2.1
				c0.8,1.4,1.1,3,0.7,4.5c-0.4,1.6-1.4,2.9-2.9,3.7C93.4,48.2,92.4,48.5,91.3,48.5z M86.2,45.4c1.7,2.7,5.3,3.6,8.1,2
				c1.4-0.8,2.3-2,2.7-3.5c0.4-1.5,0.1-3-0.7-4.3c-1.7-2.7-5.3-3.6-8.1-2c-1.4,0.8-2.3,2-2.7,3.5C85.1,42.6,85.4,44.1,86.2,45.4z"/>
		</g>
		<g>
			<path class="st0" d="M66.6,53.2c-0.4-0.6-0.2-1.3,0.4-1.7c0.6-0.3,1.4-0.1,1.8,0.4c0.4,0.6,0.2,1.3-0.4,1.7
				C67.7,53.9,66.9,53.8,66.6,53.2z"/>
		</g>
		<g>
			<path class="st0" d="M98,36.4c-0.4-0.6-0.2-1.3,0.4-1.7c0.6-0.3,1.4-0.1,1.8,0.4c0.4,0.6,0.2,1.3-0.4,1.7
				C99.1,37.2,98.3,37,98,36.4z"/>
		</g>
		<g>
			<path class="st0" d="M84.8,51.7c-0.4-0.7,0.3-1.9,1.6-2.6c1.3-0.7,2.7-0.8,3.1-0.1c0.4,0.7-0.3,1.9-1.6,2.6
				C86.7,52.4,85.3,52.4,84.8,51.7z"/>
		</g>
		<g>
			<path class="st0" d="M75.7,50.6c0.9-0.5,2.2-0.2,2.7,0.7c0.6,0.9,0.3,2.1-0.7,2.6s-2.2,0.2-2.7-0.7S74.8,51.1,75.7,50.6z
				 M76.7,53.7c0.3-0.1,0.3-0.5,0.2-0.7c-0.1-0.3-0.5-0.3-0.8-0.2c-0.3,0.1-0.4,0.5-0.2,0.7C76.1,53.7,76.4,53.8,76.7,53.7z"/>
		</g>
		<g>
			<path class="st0" d="M90.2,43.6c0.9-0.5,2.2-0.2,2.7,0.7c0.6,0.9,0.3,2.1-0.7,2.6c-0.9,0.5-2.2,0.2-2.7-0.7
				C89,45.3,89.3,44.1,90.2,43.6z M91.2,46.7c0.3-0.1,0.4-0.5,0.2-0.7c-0.1-0.3-0.5-0.3-0.8-0.2c-0.3,0.1-0.4,0.5-0.2,0.7
				C90.6,46.8,91,46.9,91.2,46.7z"/>
		</g>
		<g>
			<path class="st0" d="M89.2,53.9c0.4,0.7,0.8,1.5,1.3,2.2c0.4,0.5,0.9,1,1.7,0.8c0.4-0.1,0.7-0.3,0.8-0.7c0.3-1-0.7-2.3-1.4-3
				c-0.1-0.1,0.1-0.3,0.2-0.2c0.8,0.8,2,2.4,1.3,3.6c-0.4,0.6-1.3,0.6-1.9,0.3c-1-0.5-1.6-2.1-2.1-3C89,53.9,89.2,53.8,89.2,53.9
				L89.2,53.9z"/>
		</g>
		<g>
			<path class="st0" d="M112.2,55.3c1.1-0.9,2.5-1,3.9-0.8c1,0.2,1.9,0.8,1.3,1.8c-0.1,0.1-0.3,0-0.2-0.1c0.7-1.3-1.2-1.5-1.9-1.6
				c-1-0.1-2.1,0.2-2.9,0.8C112.3,55.5,112.1,55.4,112.2,55.3L112.2,55.3z"/>
		</g>
		<g>
			<path class="st0" d="M116,55.9c0.5,0,1.1,0,1.4,0.5c0.2,0.4-0.1,0.9-0.4,1.1c-0.4,0.3-1.1,0.3-1.6,0.3c-0.5,0-1.1,0-1.6-0.2
				c-0.1-0.1-0.1-0.3,0.1-0.2c0.6,0.2,1.3,0.2,1.9,0.2c0.3,0,0.7-0.1,1-0.2c0.5-0.3,0.4-0.9-0.1-1.1c-0.2-0.1-0.5-0.1-0.8-0.1
				C115.9,56.2,115.9,56,116,55.9L116,55.9z"/>
		</g>
		<g>
			<path class="st0" d="M70.8,60.6c0,0,0.1-0.1,0.1-0.1l0,0c-1.3-2.8-2.2-5.7-2-8.8c0-0.3-0.5-0.3-0.5,0c-0.2,3.2,0.8,6.3,2.2,9.2
				C70.6,60.7,70.7,60.7,70.8,60.6z"/>
		</g>
		<g>
			<path class="st0" d="M95.9,95.1c-2-1.1-4.1-1.8-5.8-3.4c-1.7-1.6-3-3.4-4.3-5.3c-2.5-3.8-4.5-7.9-6.7-11.8
				c-1.9-3.4-4.1-6.7-6.1-10.1V65c0,0.1,0,0.2-0.1,0.3c1.9,3.2,3.9,6.3,5.7,9.5c2.4,4.3,4.6,8.7,7.3,12.7c1.2,1.8,2.6,3.5,4.2,4.9
				c1.6,1.4,3.6,2,5.4,3C96,95.7,96.2,95.3,95.9,95.1z"/>
		</g>
		<g>
			<g>
				<g>
					<path class="st0" d="M92.5,45.2c0,0,0.1,0,0.1,0c0.3,0,0.3-0.5,0-0.5c0,0-0.1,0-0.1,0C92.2,44.7,92.2,45.2,92.5,45.2
						c0,0,0.1,0,0.1,0c0.3,0,0.3-0.5,0-0.5c0,0-0.1,0-0.1,0C92.2,44.7,92.2,45.2,92.5,45.2L92.5,45.2z"/>
				</g>
			</g>
		</g>
		<g>
			<g>
				<g>
					<path class="st0" d="M25,111.5c12.3-0.4,24.7-0.4,37,0c0.1,0,0.1-0.1,0.1-0.1c0-1.1,0.1-2.1,0.4-3.1c-0.1,0-0.2,0-0.2,0
						c0.6,1,1.1,2,1.4,3.1c0,0.1,0.1,0.1,0.1,0.1c6.4,0.2,12.8,0.4,19.2,1c0.1,0,0.2-0.1,0.1-0.2c-0.4-0.7-1.9,0-0.1,0.2
						c0.1,0,0.1-0.1,0.1-0.2c-0.1-0.3-0.2-0.6-0.2-0.9c-0.1-0.7,1-1.1,1-1.3c-0.1,0.3-0.3,0.4-0.3,0.7c-0.1,0.6,0.3,1.1,0.8,1.5
						c0.7,0.6,1.5,0.4,2.4,0.4c1.5,0,3,0,4.4,0c5.8,0,11.5,0,17.3,0c0.1,0,0.1-0.1,0.1-0.2c-0.3-0.7-0.5-1.4-0.7-2.1
						c-0.1,0-0.1,0.1-0.2,0.1c0.9,1,2.2,1.5,3.5,1.7c1.8,0.2,3.6,0.3,5.4,0.4c1.6,0.1,3.3,0.3,4.9,0.3c1.1,0,3-0.4,3.9,0.4
						c0.1,0.1,0.3-0.1,0.2-0.2c-0.6-0.6-1.7-0.5-2.5-0.5c-1.3,0-2.7,0.1-4,0c-2.1-0.1-4.1-0.3-6.2-0.5c-1.9-0.1-3.7-0.3-5.1-1.8
						c-0.1-0.1-0.3,0-0.2,0.1c0.1,0.4,0.4,1,0.5,1.4c0.2,0.2,0.2,0.4,0,0.5c-0.3,0-0.6,0-0.9,0c-1.1,0-2.2,0-3.4,0
						c-2.2,0-4.5,0-6.7,0c-2.2,0-4.5,0-6.7,0c-1.1,0-2.2,0-3.4,0c-0.6,0-1.3,0.1-1.8,0c-0.8-0.2-2-1.6-0.8-2.3c0.1,0,0.1-0.1,0-0.2
						c-1-0.8-1.9,0.5-1.7,1.5c0,0.1,0,0.2,0.1,0.3c0.2,0.2,0.1,0.3-0.1,0.3c0,0-0.4,0.1,0,0.1c-0.7,0-1.4-0.1-2.1-0.2
						c-1.4-0.1-2.8-0.2-4.2-0.3c-2.7-0.1-5.4-0.3-8.1-0.3c-0.7,0-1.4,0-2.1-0.1c-0.6,0-1.6,0.1-2.1-0.2c-0.4-0.2-0.5-0.9-0.7-1.3
						c-0.3-0.6-0.6-1.1-0.9-1.7c-0.1-0.1-0.2-0.1-0.2,0c-0.2,0.6-0.4,1.3-0.4,2c0,0.4,0.1,0.8-0.3,1c-0.2,0.1-1.1,0-1.3,0
						c-1.7,0-3.4-0.1-5.1-0.1c-3.3-0.1-6.7-0.1-10-0.1c-6.7,0-13.5,0.1-20.2,0.3C24.8,111.2,24.8,111.5,25,111.5L25,111.5z"/>
				</g>
			</g>
		</g>
		<g>
			<g>
				<g>
					<path class="st0" d="M24.6,111.1c0-0.1,0.6-1.5,0.7-1.6c0.2-0.6,0.4-1.1,0.6-1.6c0-0.1,0-0.2-0.1-0.2c-2.5-0.2-2.9,3.4-5.1,4
						c-0.9,0.3-1.9,0-2.8-0.1c-1.1-0.1-2.2-0.3-3.2-0.4c-0.5-0.1-0.9-0.1-1.4-0.2c-0.2,0-1.3,0-1.4-0.2c-0.3-0.4,1-2.2,1.2-2.6
						c3.9-6.9,8.1-13.5,12.6-19.9c2.7-3.7,5.4-7.4,8.3-10.9c0.1-0.1-0.1-0.3-0.2-0.2c-8.5,10.5-16,21.8-22.5,33.7
						c0,0.1,0,0.2,0.1,0.2c2.2,0.3,4.3,0.5,6.5,0.7c1.4,0.2,2.9,0.4,4-0.6c1-0.8,1.5-2.1,2.4-2.9c0.1-0.1,1-0.7,1.2-0.5
						c0.1,0.2-0.4,1.1-0.4,1.3c-0.2,0.5-0.8,1.5-0.6,2c0,0,0.1,0.1,0.1,0.1c0.1,0,0.1,0,0.3-0.1c0.1,0,0.1-0.1,0-0.2c0,0,0,0,0-0.1
						C24.8,110.8,24.6,110.9,24.6,111.1L24.6,111.1z"/>
				</g>
			</g>
		</g>
		<g>
			<g>
				<g>
					<path class="st0" d="M34.1,77.2c0.3-2,0.2-4.5,1.3-6.2c0.6-0.9,1.5-1.4,2.6-1.6c0.9-0.1,1.8-0.1,2.3,0.8c0.3,0.4,0.4,1,0.5,1.5
						c0.2,1.2,0.2,2.4-0.1,3.5c-0.1,0.4-0.3,0.9-0.5,1.3c-0.3,0.6-1.3,2.3-2.3,1c-0.6-0.7-0.5-2.5-0.2-3.3c0.3-0.8,1-1.8,2-1.5
						c0.7,0.4,1,0.9,0.7,1.5c-0.1,0.8-0.7,0.9-1.6,0.3c0.1-0.2-0.2-0.2-0.3-0.1c-0.3,0.7,0.5,1.3,1.1,1.1c0.8-0.3,1.3-1.6,0.9-2.4
						c-0.4-0.9-1.5-1-2.2-0.5c-1.2,0.7-1.2,2.4-1.1,3.6c0.1,0.8,0.4,2,1.4,1.9c1.2-0.1,1.8-1.6,2.1-2.6c0.7-2.2,0.8-7-2.5-6.6
						c-4.1,0.5-4,5-4.4,8.1C33.8,77.4,34,77.4,34.1,77.2L34.1,77.2z"/>
				</g>
			</g>
		</g>
		<g>
			<g>
				<g>
					<path class="st0" d="M38.8,78.3c10-1.8,20.2-2.3,30.4-1.5c0.2,0,0.2-0.3,0-0.3c-10.2-0.7-20.4-0.2-30.4,1.5
						C38.6,78.1,38.6,78.4,38.8,78.3L38.8,78.3z"/>
				</g>
			</g>
		</g>
		<g>
			<g>
				<g>
					<path class="st0" d="M72.7,77.2c2.5-0.5,4.9-0.3,7.4,0.2c0.2,0,0.2-0.2,0.1-0.3c-2.5-0.5-5-0.7-7.6-0.2
						C72.5,77,72.6,77.2,72.7,77.2L72.7,77.2z"/>
				</g>
			</g>
		</g>
		<g>
			<g>
				<g>
					<path class="st0" d="M37.3,69.7c10.8-0.5,21.6-0.6,32.4-0.3c0.2,0,0.2-0.3,0-0.3c-10.8-0.3-21.6-0.2-32.4,0.3
						C37.1,69.4,37.1,69.7,37.3,69.7L37.3,69.7z"/>
				</g>
			</g>
		</g>
		<g>
			<g>
				<g>
					<path class="st0" d="M125.9,113.4c-4.3-7.6-9.2-14.9-14.6-21.9c-0.1-0.1-0.3,0.1-0.2,0.2c5.4,6.9,10.2,14.2,14.6,21.8
						C125.7,113.7,126,113.6,125.9,113.4L125.9,113.4z"/>
				</g>
			</g>
		</g>
		<g>
			<g>
				<g>
					<path class="st0" d="M99.2,100.2c1.1-1.2,3.2-1,4.7-1.1c1.5-0.1,3.1-0.2,4.6-0.2c0.2,0,0.2-0.3,0-0.3c-2,0-4,0.1-5.9,0.3
						C101.3,99,99.9,99,99,100C98.9,100.1,99.1,100.3,99.2,100.2L99.2,100.2z"/>
				</g>
			</g>
		</g>
		<g>
			<g>
				<g>
					<path class="st0" d="M99.7,100.7c0.9,0.1,1.9,0.1,2.8,0.2c0.2,0,0.2-0.3,0-0.3c-0.9-0.1-1.9-0.1-2.8-0.2
						C99.5,100.4,99.5,100.6,99.7,100.7L99.7,100.7z"/>
				</g>
			</g>
		</g>
		<g>
			<g>
				<g>
					<path class="st0" d="M95.6,99.9c-1.5-1.7-3.4-2.7-5.6-3c-0.2,0-0.2,0.3,0,0.3c2.1,0.3,4,1.3,5.4,2.9
						C95.6,100.3,95.8,100.1,95.6,99.9L95.6,99.9z"/>
				</g>
			</g>
		</g>
		<g>
			<g>
				<g>
					<path class="st0" d="M35.4,76.9c0.3,0,0.7,0,1,0c0.2,0,0.2-0.3,0-0.3c-0.3,0-0.7,0-1,0C35.2,76.6,35.2,76.9,35.4,76.9
						L35.4,76.9z"/>
				</g>
			</g>
		</g>
		<g>
			<g>
				<g>
					<path class="st0" d="M42.3,75.7c8.6-1.4,17.3-1.6,26-0.9c0.2,0,0.2-0.3,0-0.3c-8.7-0.8-17.4-0.5-26.1,0.9
						C42,75.5,42.1,75.8,42.3,75.7L42.3,75.7z"/>
				</g>
			</g>
		</g>
		<g>
			<g>
				<g>
					<path class="st0" d="M13.8,110.7c0.9-0.1,1.8-0.1,2.6-0.2c0.2,0,0.2-0.3,0-0.3c-0.9,0.1-1.8,0.1-2.6,0.2
						C13.7,110.5,13.7,110.7,13.8,110.7L13.8,110.7z"/>
				</g>
			</g>
		</g>
		<g>
			<g>
				<g>
					<path class="st0" d="M28.1,110.5c6-0.6,12.1-0.7,18.1-0.4c0.2,0,0.2-0.3,0-0.3c-6-0.3-12.1-0.2-18.1,0.4
						C28,110.3,28,110.6,28.1,110.5L28.1,110.5z"/>
				</g>
			</g>
		</g>
		<g>
			<g>
				<g>
					<path class="st0" d="M65,110.9c3.4,0.1,6.9,0.1,10.3,0c0.2,0,0.2-0.3,0-0.3c-3.4,0.1-6.9,0-10.3,0
						C64.9,110.6,64.9,110.9,65,110.9L65,110.9z"/>
				</g>
			</g>
		</g>
		<g>
			<g>
				<g>
					<path class="st0" d="M87.6,111.5c4.6,0.1,9.1,0,13.7-0.4c0.2,0,0.2-0.3,0-0.3c-4.6,0.4-9.1,0.5-13.7,0.4
						C87.4,111.2,87.4,111.5,87.6,111.5L87.6,111.5z"/>
				</g>
			</g>
		</g>
		<g>
			<g>
				<g>
					<path class="st0" d="M111.4,111.5c2.7,0.1,5.4,0.2,8.1,0c0.2,0,0.2-0.3,0-0.3c-2.7,0.1-5.4,0.1-8.1,0
						C111.2,111.2,111.2,111.5,111.4,111.5L111.4,111.5z"/>
				</g>
			</g>
		</g>
		<g>
			<g>
				<g>
					<path class="st0" d="M28.7,86c-5.6,7.4-10.7,15.2-15.2,23.3c-0.1,0.1,0.1,0.3,0.2,0.1c4.5-8.1,9.6-15.9,15.2-23.3
						C29,86,28.8,85.8,28.7,86L28.7,86z"/>
				</g>
			</g>
		</g>
		<g>
			<g>
				<g>
					<path class="st0" d="M112.6,96.9c3.8,4.7,7,9.8,9.7,15.2c0.1,0.1,0.3,0,0.2-0.1c-2.6-5.5-5.9-10.6-9.7-15.3
						C112.6,96.6,112.4,96.8,112.6,96.9L112.6,96.9z"/>
				</g>
			</g>
		</g>
		<g>
			<g>
				<g>
					<path class="st0" d="M60.6,95c5.6-0.2,11.3-0.3,16.9,0c0.2,0,0.2-0.3,0-0.3c-5.6-0.2-11.3-0.2-16.9,0
						C60.4,94.7,60.4,95,60.6,95L60.6,95z"/>
				</g>
			</g>
		</g>
		<g>
			<g>
				<g>
					<path class="st0" d="M61.2,94.5c5.2-0.6,10.4-0.6,15.5,0c0.2,0,0.2-0.3,0-0.3c-5.2-0.6-10.4-0.6-15.5,0
						C61,94.2,61,94.5,61.2,94.5L61.2,94.5z"/>
				</g>
			</g>
		</g>
		<g>
			<g>
				<g>
					<path class="st0" d="M70.2,66c0-1.6-0.4-3.5,0.4-4.9c0.4-0.6,0.9-1.1,1.6-0.8c0.8,0.3,0.8,1.3,0.7,2.1c0,1.1-0.3,2.2-0.6,3.4
						c-0.1,0.3,0.4,0.5,0.5,0.1c0.3-1.5,0.9-3.4,0.5-4.9c-0.2-0.9-1.1-1.6-2-1.4c-1,0.3-1.6,1.5-1.8,2.4c-0.3,1.3-0.1,2.7-0.1,4
						C69.7,66.3,70.2,66.3,70.2,66L70.2,66z"/>
				</g>
			</g>
		</g>
		<g>
			<g>
				<g>
					<path class="st0" d="M71.5,62.7c-0.3-0.2-0.2-0.7,0.1-0.8c0.5-0.2,0.7,0.8,0.1,0.9c-0.3,0-0.3,0.6,0,0.5c0.5,0,0.9-0.4,0.9-1
						c0-0.5-0.4-0.9-0.9-0.9c-1,0-1.2,1.3-0.5,1.8C71.6,63.4,71.8,62.9,71.5,62.7L71.5,62.7z"/>
				</g>
			</g>
		</g>
		<g>
			<g>
				<g>
					<path class="st0" d="M70,68.8c0,1.1-0.2,1.6-0.8,2.5c-0.2,0.3-0.4,0.7-0.3,1.1c0.1,0.4,0.4,0.6,0.5,1c0.1,0.4,0.1,0.7,0.1,1.1
						c0,0.8-0.2,1.6-0.1,2.5c0,0.1,0.1,0.2,0.2,0.3c1.1,0.2,4,0.6,3.6-1.4c-0.1-0.7-0.5-0.9-0.1-1.7c0.2-0.4,0.5-0.7,0.6-1.2
						c0.2-1.4-1-2.4-0.4-3.9c0.1-0.3-0.3-0.6-0.5-0.3c-0.3,0.6-0.3,1.1-0.2,1.8c0.2,1.1,0.8,1.8,0.2,3c-0.3,0.5-0.6,0.9-0.4,1.5
						c0.1,0.6,0.5,1-0.1,1.6c-0.4,0.4-1.4,0.2-1.9,0.1c-0.5-0.1-0.5-0.1-0.5-0.6c0-0.4,0.1-0.8,0.1-1.2c0.1-0.7,0.1-1.4-0.2-2.1
						c-0.3-0.6-0.5-0.8-0.1-1.4c0.2-0.3,0.4-0.5,0.5-0.8c0.3-0.6,0.3-1.3,0.3-2C70.5,68.5,70,68.5,70,68.8L70,68.8z"/>
				</g>
			</g>
		</g>
		<g>
			<g>
				<g>
					<path class="st0" d="M70.5,77.2c-0.4,1.2-0.7,2.8,0.2,3.8c0.6,0.6,1.5,0.8,2.3,1c1.2,0.3,2.3,0.6,3.5,0.8
						c2.1,0.4,4.6,0.4,6.5,1.6c1.1,0.7,0.8,2.3,0.9,3.4c0,1,0.5,4.3-1.4,3.7c-0.3-0.1-0.5,0.4-0.1,0.5c2,0.6,2.2-1.9,2.2-3.3
						c0-1.1,0-2.3-0.2-3.4c-0.1-0.9-0.7-1.3-1.5-1.7c-2.2-1.1-4.8-1.1-7.1-1.6c-1.2-0.3-2.6-0.5-3.8-1c-1.6-0.7-1.2-2.4-0.8-3.7
						C71.1,77,70.6,76.8,70.5,77.2L70.5,77.2z"/>
				</g>
			</g>
		</g>
		<g>
			<g>
				<g>
					<path class="st0" d="M71,77.3c0,1.7-0.3,3.2,1.5,3.9c2.3,0.9,4.8,1.3,7.2,1.6c1.3,0.1,2.7,0.3,3.8,1.2c1.1,0.9,1.4,2.5,1.5,3.9
						c0,1.8,0,4.9-2.5,4.7c-0.3,0-0.3,0.5,0,0.5c1.8,0.1,2.6-1.3,2.9-2.9c0.3-2.1,0.4-4.6-1.1-6.3c-1.7-1.9-4.9-1.6-7.2-2.1
						c-1.3-0.3-2.7-0.6-4-1c-0.9-0.3-1.5-0.6-1.5-1.7c0-0.6,0-1.2,0-1.8C71.5,77,71,77,71,77.3L71,77.3z"/>
				</g>
			</g>
		</g>
		<g>
			<g>
				<g>
					<path class="st0" d="M69.7,71.9c1-0.4,2.1-0.4,3.1,0c0.3,0.1,0.4-0.4,0.1-0.5c-1.2-0.5-2.4-0.4-3.5,0.1
						C69.1,71.6,69.4,72,69.7,71.9L69.7,71.9z"/>
				</g>
			</g>
		</g>
		<g>
			<g>
				<g>
					<path class="st0" d="M69.6,73.6c1.1,0.7,2.4,0.7,3.6,0.2c0.3-0.1,0-0.6-0.3-0.5c-1,0.4-2.1,0.4-3.1-0.2
						C69.6,72.9,69.3,73.4,69.6,73.6L69.6,73.6z"/>
				</g>
			</g>
		</g>
		<g>
			<g>
				<g>
					<path class="st0" d="M57.6,86.5c-1.2,0.6-1.5,2-1.7,3.3c-0.2,1.9,0,3.8,0.8,5.6c0.1,0.3,0.6,0.2,0.5-0.1
						c-0.6-1.4-0.9-2.8-0.8-4.3c0-1.3,0.2-3.2,1.5-3.9C58.2,86.8,57.9,86.3,57.6,86.5L57.6,86.5z"/>
				</g>
			</g>
		</g>
		<g>
			<g>
				<g>
					<path class="st0" d="M81.9,88.6c0.2,2.4,0.1,4.9-0.3,7.3c-0.1,0.3,0.5,0.5,0.5,0.1c0.4-2.5,0.5-4.9,0.3-7.5
						C82.4,88.3,81.9,88.3,81.9,88.6L81.9,88.6z"/>
				</g>
			</g>
		</g>
		<g>
			<g>
				<g>
					<path class="st0" d="M57.7,87c4,0.1,8.1,0.3,12.1,0.4c2,0.1,4,0.1,5.9,0.2c1,0,2,0.1,3,0.1c0.8,0,2.7-0.2,3,0.8
						c0.1,0.3,0.6,0.2,0.5-0.1c-0.4-1.3-2.1-1.1-3.1-1.2c-2.4-0.1-4.8-0.1-7.2-0.2c-4.7-0.1-9.5-0.3-14.2-0.4
						C57.4,86.4,57.4,86.9,57.7,87L57.7,87z"/>
				</g>
			</g>
		</g>
		<g>
			<g>
				<g>
					<path class="st0" d="M57.2,96.2c8-0.5,16.1-0.5,24.1,0c0.7,0,0.7-1,0-1.1c-8-0.5-16.1-0.5-24.1,0
						C56.5,95.2,56.5,96.3,57.2,96.2L57.2,96.2z"/>
				</g>
			</g>
		</g>
		<g>
			<g>
				<g>
					<path class="st0" d="M59,86.6c-2.1,2.4-2.5,5.9-1,8.7c0.1,0.3,0.6,0,0.5-0.3c-1.4-2.6-1-5.8,0.9-8.1
						C59.6,86.8,59.2,86.4,59,86.6L59,86.6z"/>
				</g>
			</g>
		</g>
		<g>
			<g>
				<g>
					<path class="st0" d="M60.4,86.7c-2.4,2.4-2.2,6.6-0.3,9.1c0.2,0.3,0.7,0,0.5-0.3c-1.8-2.4-2.1-6.3,0.2-8.5
						C61,86.9,60.6,86.5,60.4,86.7L60.4,86.7z"/>
				</g>
			</g>
		</g>
		<g>
			<g>
				<g>
					<path class="st0" d="M77.7,87.7c0,2.6-0.1,5.2-0.4,7.7c0,0.3,0.5,0.3,0.5,0c0.3-2.6,0.4-5.1,0.4-7.7
						C78.2,87.3,77.7,87.3,77.7,87.7L77.7,87.7z"/>
				</g>
			</g>
		</g>
		<g>
			<g>
				<g>
					<path class="st0" d="M79.4,87.5c0.1,2.6,0.1,5.3,0.2,7.9c0,0.3,0.5,0.3,0.5,0c-0.1-2.6-0.1-5.3-0.2-7.9
						C79.9,87.1,79.4,87.1,79.4,87.5L79.4,87.5z"/>
				</g>
			</g>
		</g>
		<g>
			<g>
				<g>
					<path class="st0" d="M57.9,95.7c-7,2.9-14,5.8-21,8.6c-0.1,0.1-0.1,0.3,0.1,0.3c7-2.9,14-5.7,21-8.6
						C58.1,95.9,58,95.6,57.9,95.7L57.9,95.7z"/>
				</g>
			</g>
		</g>
		<g>
			<g>
				<g>
					<path class="st0" d="M59.5,95.9c-5.8,2.8-11.5,5.9-17.4,8.7c-0.1,0.1,0,0.3,0.1,0.2c5.9-2.7,11.5-5.8,17.4-8.7
						C59.8,96.1,59.6,95.8,59.5,95.9L59.5,95.9z"/>
				</g>
			</g>
		</g>
		<g>
			<g>
				<g>
					<path class="st0" d="M67.6,101.6c-0.4,1.9-0.7,3.9-1.1,5.8c0,0.2,0.2,0.2,0.3,0.1c0.3-1.9,0.7-3.9,1.1-5.8
						C67.9,101.5,67.6,101.4,67.6,101.6L67.6,101.6z"/>
				</g>
			</g>
		</g>
		<g>
			<g>
				<g>
					<path class="st0" d="M68,101.7c0.1-0.2,0.4,0.1,0.4,0.2c0.1,0.1,0.1,0.4,0.1,0.5c0,0.4,0,0.9,0,1.3c-0.1,1.2-0.2,2.3-0.3,3.5
						c0,0.2,0.3,0.2,0.3,0c0.1-1.2,0.2-2.3,0.3-3.5c0-0.6,0.1-1.3-0.1-1.9c-0.2-0.6-0.5-1-0.9-0.3C67.7,101.7,67.9,101.9,68,101.7
						L68,101.7z"/>
				</g>
			</g>
		</g>
		<g>
			<g>
				<g>
					<path class="st0" d="M68.2,96.5c-0.4,0.9-0.6,1.8-0.5,2.7c0,0.1,0.1,0.2,0.2,0.1c0.3-0.2,0.5-0.3,0.9-0.3
						c0.1,0,0.1-0.1,0.1-0.1c0-0.6,0-1.1,0-1.7c0-0.2,0.1-0.6-0.1-0.8c-0.2-0.3-0.6-0.1-0.5,0.2c0.1,0.2,0.3,0.1,0.3-0.1
						c0.1,0.4,0,0.8,0,1.2c0,0.4,0,0.8,0,1.2c0,0,0.1-0.1,0.1-0.1c-0.4-0.1-0.7,0.1-1,0.3c0.1,0,0.1,0.1,0.2,0.1
						c-0.1-0.9,0.1-1.8,0.5-2.6C68.5,96.4,68.3,96.3,68.2,96.5L68.2,96.5z"/>
				</g>
			</g>
		</g>
		<g>
			<g>
				<g>
					<path class="st0" d="M68.3,89c-0.2,1.3-0.4,2.6-0.6,4c0,0.2,0.1,0.3,0.3,0.3c0.9,0,1.3-0.7,1.4-1.5c0.1-0.6,0-1.3,0-1.9
						c0-0.5,0-0.9-0.3-1.2c-0.1-0.1-0.2-0.1-0.3-0.1c-0.2,0-0.3,0.1-0.4,0.3c0,0.1,0,0.2,0,0.3c0,0,0,0.1,0.1,0.1
						c0.2,0.3,0.6,0,0.5-0.3c-0.1,0.2-0.1,0.4-0.2,0.6c0,0.2,0,0.3,0,0.5c0,0.3,0,0.6,0,0.8c0,0.6,0.2,1.9-0.9,1.9
						c0.1,0.1,0.2,0.2,0.3,0.3c0.2-1.3,0.4-2.6,0.6-4C68.9,88.9,68.4,88.7,68.3,89L68.3,89z"/>
				</g>
			</g>
		</g>
		<g>
			<g>
				<g>
					<path class="st0" d="M68.5,86.9c-0.5,0.3-0.4,1,0.1,1.2c0.2,0.1,0.5,0,0.7-0.1c0.1-0.1,0.1-0.3,0.1-0.5c0-0.2-0.1-0.3-0.1-0.5
						c-0.1-0.3-0.6-0.2-0.5,0.1c0,0.2,0.1,0.5,0.1,0.7c0-0.1,0-0.2,0.1-0.3c-0.2,0.1-0.4-0.1-0.2-0.3C69.1,87.2,68.8,86.7,68.5,86.9
						L68.5,86.9z"/>
				</g>
			</g>
		</g>
		<g>
			<g>
				<g>
					<path class="st0" d="M77.5,95.8c4.9,4,10.3,7.4,15.8,10.8c0.1,0.1,0.3-0.1,0.1-0.2C88,103,82.7,99.6,77.7,95.6
						C77.6,95.5,77.4,95.7,77.5,95.8L77.5,95.8z"/>
				</g>
			</g>
		</g>
		<g>
			<g>
				<g>
					<path class="st0" d="M80.6,95.6c6.2,3.3,12.3,6.9,18.5,10.2c0.1,0.1,0.3-0.1,0.1-0.2c-6.2-3.4-12.3-6.9-18.5-10.2
						C80.5,95.3,80.4,95.5,80.6,95.6L80.6,95.6z"/>
				</g>
			</g>
		</g>
		<g>
			<g>
				<g>
					<path class="st0" d="M82.1,95.9c1,0,1.9,0.5,2.8,0.9c0.9,0.4,1.8,0.8,2.6,1.2c1.8,0.9,3.6,1.7,5.4,2.6
						c3.5,1.7,6.9,3.5,10.5,5.1c0.1,0.1,0.3-0.1,0.1-0.2c-3.8-1.7-7.5-3.6-11.2-5.4c-1.8-0.9-3.7-1.8-5.5-2.7
						c-1.4-0.7-3.1-1.7-4.6-1.7C81.9,95.6,81.9,95.9,82.1,95.9L82.1,95.9z"/>
				</g>
			</g>
		</g>
		<g>
			<g>
				<g>
					<path class="st0" d="M57.5,95.4c-0.3,0-0.3,0-0.4,0.2c0,0,0,0.1,0,0.1c0.2,0.4,0.6,0.5,0.7,0c0-0.1,0-0.2-0.1-0.2
						c-2,0.1-4.2,1.2-6.1,1.9c-2.2,0.8-4.4,1.6-6.6,2.4c-4.4,1.6-8.8,3.2-13.2,4.7c-0.2,0.1-0.1,0.3,0.1,0.3c4.3-1.4,8.5-3,12.8-4.6
						c2.1-0.7,4.1-1.5,6.2-2.2c1.1-0.4,2.2-0.8,3.3-1.2c0.5-0.2,1-0.4,1.6-0.5s1.3-0.6,1.8-0.6C57.7,95.7,57.7,95.4,57.5,95.4
						L57.5,95.4z"/>
				</g>
			</g>
		</g>
		<g>
			<g>
				<g>
					<path class="st0" d="M55.7,89.2c-0.6-0.6-0.7-1.4-0.4-2.2c0.1-0.1-0.2-0.2-0.2-0.1c-0.4,0.5-0.9,1.5-1.4,1.8
						c-0.4,0.2-1.4,0-1.9,0c-1.3,0.1-4.4,0.9-4.3-1.3c0-0.1-0.1-0.2-0.2-0.1c-0.6,0.7-1.8,0-2.5,0c-0.9,0-1.5,0.7-2.5,0.7
						c-1.2,0-3-0.8-3.7,0.7c-0.1,0.1-0.1,0.4-0.1,0.5c-0.5,0.7-1.5,0.1-2-0.2c-0.6-0.3-1.1-0.7-1.8-0.8c-1.6-0.1-2.9,1.7-4.5,1.1
						c-0.2-0.1-0.2,0.2-0.1,0.3c1.5,0.5,2.6-0.8,4-1.1c1.7-0.4,3,2,4.7,1c0.1,0,0.1-0.1,0.1-0.1c-0.4-1.9,2.4-1.2,3.2-1.2
						c0.8,0.1,1.3-0.1,2-0.4c0.9-0.5,1.6-0.1,2.5,0c0.4,0,0.8,0,1.1-0.4c-0.1,0-0.1-0.1-0.2-0.1c0,0.9,0.7,1.5,1.5,1.8
						c1.6,0.5,3.2-0.6,4.8,0c0.1,0,0.1,0,0.1-0.1c0.6-0.7,1.1-1.4,1.6-2.1c-0.1,0-0.2-0.1-0.2-0.1c-0.4,0.9-0.2,1.8,0.5,2.4
						C55.6,89.5,55.8,89.3,55.7,89.2L55.7,89.2z"/>
				</g>
			</g>
		</g>
		<g>
			<g>
				<g>
					<path class="st0" d="M85.6,89.8c0.1-0.2,0.2-0.4,0.4-0.5c-0.1,0-0.1,0-0.2,0c0.3,0.1,0.6,0.1,0.9,0.2c0.3,0.1,0.5-0.4,0.1-0.5
						c-0.2,0-0.4-0.1-0.6-0.1c-0.2,0-0.4-0.1-0.6,0c-0.3,0.2-0.5,0.5-0.7,0.8C85,89.9,85.5,90.1,85.6,89.8L85.6,89.8z"/>
				</g>
			</g>
		</g>
		<g>
			<g>
				<g>
					<path class="st0" d="M82.8,90c0.1-0.2,0.3-0.3,0.6-0.2c0.1,0.1,0.3,0,0.4-0.1c0.1-0.1,0-0.3-0.1-0.4c-0.5-0.2-1,0-1.3,0.4
						C82.2,90,82.7,90.3,82.8,90L82.8,90z"/>
				</g>
			</g>
		</g>
		<g>
			<g>
				<g>
					<path class="st0" d="M33.7,88.5c-0.5-0.4-0.8-1-1-1.7c-0.1-0.7,0.2-3,1.7-2.2c0.1,0,0.2,0,0.2-0.1c0.2-0.9,0.5-1.7,1-2.4
						c0.3-0.4,0.7-0.9,1.2-1.1c0.3-0.2,0.7-0.3,1.2-0.1c0.5,0.3,0.6,0.8,0.3,1.4c-0.1,0.1,0,0.3,0.1,0.2c0.7-0.3,1.3,0.3,1.3,0.9
						c0,0-0.1,0.7,0,0.8c0.1,0.3,0.1,0.3,0.3,0.5c0.4,0.4,0.8,0.6,1.1,1.2c0.3,0.6,0.3,1.3,0.5,1.9c0,0.1,0.2,0.1,0.3,0
						c0.1-0.7,0.3-1.5,0.4-2.2c0.1-0.3,0.1-0.7,0.2-1c0-0.1,0-0.2,0.1-0.3c0.1-0.7,0.6-0.9,1.6-0.8c0,0.1,0.1,0.1,0.2,0
						c0.3-0.3,0.6-0.5,1-0.6c0.6,0,1,0.3,1.3,0.8c0.2,0.2,0.2,0.2,0.4,0.3c0.3,0.1,0.7,0.1,1,0.3c0.6,0.4,0.8,1.2,0.5,1.8
						c0,0.1,0,0.1,0.1,0.2c1.1,0.2,1.7,1.5,1.2,2.4c-0.1,0.1,0.1,0.3,0.2,0.1c0.3-0.6,0.3-1.2,0.1-1.8c-0.1-0.3-0.4-0.6-0.6-0.8
						c-0.2-0.1-0.5-0.2-0.6-0.4c-0.1-0.2,0.1-0.6,0-0.8c-0.1-0.3-0.2-0.6-0.4-0.8c-0.2-0.2-0.4-0.3-0.7-0.4
						c-0.4-0.2-0.7-0.3-1.1-0.7c-0.4-0.4,0.1-0.2-0.3-0.5c-0.4-0.3-1-0.3-1.4,0c-0.4,0.2-0.4,0.4-0.7,0.3c-0.2,0-0.3-0.2-0.6-0.2
						c-0.5,0-0.9,0.3-1.1,0.8c-0.6,1.2-0.6,2.9-0.9,4.2c0.1,0,0.2,0,0.3,0c-0.2-0.8-0.2-1.7-0.7-2.3c-0.1-0.2-0.3-0.3-0.4-0.5
						c-0.5-0.4-0.5-0.6-0.5-1.2c0-1-0.7-1.7-1.8-1.4c0,0.1,0.1,0.1,0.1,0.2c0.6-0.6,0.2-1.7-0.6-2c-1.5-0.5-2.7,1.4-3.1,2.5
						c-0.1,0.2-0.2,0.9-0.4,1c-0.2,0.2-0.2,0-0.5,0.1c-0.5,0.1-0.9,0.4-1.2,0.8c-0.7,1.2-0.2,2.8,0.8,3.7
						C33.7,88.8,33.9,88.6,33.7,88.5L33.7,88.5z"/>
				</g>
			</g>
		</g>
		<g>
			<g>
				<g>
					<path class="st0" d="M50.1,87c0-0.8,0.5-1.5,1.3-1.6c0.4,0,0.7,0.2,1.1,0.3c0.1,0,0.5,0.1,0.6,0.1c0.2,0.2,0.3,0.6,0.4,0.8
						c0.2,0.5,0.3,1,0.5,1.5c0,0.2,0.3,0.1,0.3-0.1c-0.2-0.7-0.4-1.6-0.9-2.2c-0.3-0.4-0.8-0.4-1.2-0.6c-1.2-0.4-2.4,0.4-2.3,1.7
						C49.8,87.2,50.1,87.2,50.1,87L50.1,87z"/>
				</g>
			</g>
		</g>
		<g>
			<g>
				<g>
					<path class="st0" d="M37.1,89.3c0.2-1.1,0.1-2.2-0.1-3.3c0-0.2-0.3-0.1-0.3,0.1c0.3,1,0.3,2.1,0.1,3.2
						C36.8,89.4,37,89.5,37.1,89.3L37.1,89.3z"/>
				</g>
			</g>
		</g>
		<g>
			<g>
				<g>
					<path class="st0" d="M38,89.3c0.2-0.4,0.3-0.9,0.2-1.3c0-0.2-0.3-0.1-0.3,0.1c0.1,0.4,0,0.8-0.1,1.1
						C37.7,89.3,37.9,89.5,38,89.3L38,89.3z"/>
				</g>
			</g>
		</g>
		<g>
			<g>
				<g>
					<path class="st0" d="M45.6,87.2c-0.2-0.4-0.2-0.9-0.1-1.4c0-0.2-0.2-0.2-0.3-0.1c-0.1,0.5-0.1,1,0.1,1.5
						C45.4,87.4,45.6,87.4,45.6,87.2L45.6,87.2z"/>
				</g>
			</g>
		</g>
		<g>
			<g>
				<g>
					<path class="st0" d="M52.1,88.8c0-0.2,0-0.4,0-0.6c0-0.2-0.3-0.2-0.3,0c0,0.2,0,0.4,0,0.6C51.8,89,52.1,89,52.1,88.8L52.1,88.8
						z"/>
				</g>
			</g>
		</g>
		<g>
			<g>
				<g>
					<path class="st0" d="M30.5,102.7c-0.4-1.6-0.8-3.2-1.2-4.9c-0.1,0-0.1,0.1-0.2,0.1c1,1.1,1.8,2.4,2.3,3.8
						c0.1,0.2,0.3,0.1,0.3-0.1c-0.5-1.5-1.3-2.8-2.4-3.9c-0.1-0.1-0.3,0-0.2,0.1c0.4,1.6,0.8,3.2,1.2,4.9
						C30.3,102.9,30.6,102.9,30.5,102.7L30.5,102.7z"/>
				</g>
			</g>
		</g>
		<g>
			<g>
				<g>
					<path class="st0" d="M33.9,101.5c-0.4-0.3-0.4-0.8-0.2-1.2c-0.1,0-0.1,0-0.2,0c0.2,0.3,0.3,0.6,0.5,0.9c0,0.1,0.2,0.1,0.2,0
						c0.2-0.3,0.3-0.6,0.5-0.9c-0.1,0-0.2,0-0.2,0c0.1,0.5,0.5,0.8,1,0.9c0.2,0,0.2-0.3,0-0.3c-0.4,0-0.6-0.3-0.7-0.7
						c0-0.1-0.2-0.1-0.2,0c-0.2,0.3-0.3,0.6-0.5,0.9c0.1,0,0.1,0,0.2,0c-0.2-0.3-0.3-0.6-0.5-0.9c0-0.1-0.2-0.1-0.2,0
						c-0.3,0.5-0.2,1.2,0.2,1.6C33.8,101.8,34,101.6,33.9,101.5L33.9,101.5z"/>
				</g>
			</g>
		</g>
		<g>
			<g>
				<g>
					<path class="st0" d="M37.5,100.1c0-0.5,0.2-1,0.6-1.3c0.1-0.1-0.1-0.3-0.2-0.2c-0.4,0.4-0.7,0.9-0.7,1.5
						C37.2,100.3,37.5,100.3,37.5,100.1L37.5,100.1z"/>
				</g>
			</g>
		</g>
		<g>
			<g>
				<g>
					<path class="st0" d="M39.8,99.6C39.8,99.5,39.8,99.5,39.8,99.6C39.9,99.5,39.9,99.5,39.8,99.6c0.1,0,0.1,0,0.1,0
						c0,0.2,0.3,0.1,0.3-0.1c-0.1-0.3-0.6-0.3-0.6,0C39.5,99.6,39.7,99.7,39.8,99.6L39.8,99.6z"/>
				</g>
			</g>
		</g>
		<g>
			<g>
				<g>
					<path class="st0" d="M42.4,98.7C42.4,98.7,42.4,98.7,42.4,98.7c-0.1,0.1-0.1,0.1-0.1,0c0,0.2,0.3,0.2,0.3,0
						c0-0.3-0.4-0.3-0.4,0C42.2,98.9,42.4,98.9,42.4,98.7L42.4,98.7z"/>
				</g>
			</g>
		</g>
		<g>
			<g>
				<g>
					<path class="st0" d="M44.7,98.2c0.2,0,0.2-0.3,0-0.3S44.5,98.2,44.7,98.2L44.7,98.2z"/>
				</g>
			</g>
		</g>
		<g>
			<g>
				<g>
					<path class="st0" d="M104.5,104.6c-0.1-1.2,0.6-2.4,1.8-2.9c0-0.1-0.1-0.1-0.1-0.2c-0.6,0.8-0.9,1.7-0.7,2.7
						c0,0.2,0.3,0.2,0.3,0c-0.1-0.9,0.1-1.8,0.7-2.6c0.1-0.1,0-0.2-0.1-0.2c-1.3,0.5-2.1,1.8-2,3.1
						C104.2,104.7,104.5,104.7,104.5,104.6L104.5,104.6z"/>
				</g>
			</g>
		</g>
		<g>
			<g>
				<g>
					<path class="st0" d="M106.8,104.6c0,0,0.2,0.3,0.2,0.3c0,0.1,0.1,0.1,0.1,0.2c0.1,0.2,0.2,0.3,0.3,0.5c0.1,0.1,0.3,0,0.2-0.1
						c-0.2-0.2-0.3-0.5-0.5-0.7c-0.1-0.1-0.2-0.3-0.4-0.4c-0.3,0-0.4,0.5-0.1,0.5C106.9,104.8,106.9,104.5,106.8,104.6L106.8,104.6z
						"/>
				</g>
			</g>
		</g>
		<g>
			<g>
				<g>
					<path class="st0" d="M109.2,106.5c0.4,0,0.8,0,1.2,0c0.2,0,0.2-0.3,0-0.3c-0.4,0-0.8,0-1.2,0C109,106.2,109,106.5,109.2,106.5
						L109.2,106.5z"/>
				</g>
			</g>
		</g>
		<g>
			<g>
				<g>
					<path class="st0" d="M28.6,103.5c-1.5-0.3-3.1-0.4-4.7-0.3c-0.2,0-0.2,0.3,0,0.3c1.6-0.1,3.1,0,4.6,0.3
						C28.7,103.8,28.8,103.6,28.6,103.5L28.6,103.5z"/>
				</g>
			</g>
		</g>
		<g>
			<g>
				<g>
					<path class="st0" d="M23.5,115c1.6-0.9,3.4-1.3,5.3-1.3c0.9,0,1.8,0.2,2.7,0.4c0.2,0.1,1.3,0.4,1.3,0.5c0,0.3-1.4,0.4-1.5,0.5
						c-1.8,0.2-3.7,0-5.5,0c-1.9,0-3.9-0.1-5.8-0.1c-0.2,0-0.2,0.3,0,0.3c2.5,0,5,0.1,7.5,0.1c1.9,0,4.1,0.4,5.8-0.6
						c0.1,0,0.1-0.2,0-0.2c-3.1-1.5-6.7-1.4-9.8,0.2C23.3,114.9,23.4,115.1,23.5,115L23.5,115z"/>
				</g>
			</g>
		</g>
		<g>
			<g>
				<g>
					<path class="st0" d="M47.7,116.2c0.6-0.4,1.3-0.3,1.8,0.2c0-0.1,0-0.1,0-0.2c-0.6,0.4-1.4,0.4-2.1,0.1c0,0.1,0,0.1,0,0.2
						c0.3-0.3,0.6-0.4,0.9-0.5c0.2,0,0.1-0.3-0.1-0.3c-0.4,0.1-0.7,0.3-1.1,0.6c-0.1,0.1,0,0.2,0,0.2c0.7,0.4,1.6,0.4,2.3-0.1
						c0.1,0,0.1-0.1,0-0.2c-0.6-0.6-1.5-0.7-2.1-0.3C47.4,116,47.5,116.3,47.7,116.2L47.7,116.2z"/>
				</g>
			</g>
		</g>
		<g>
			<g>
				<g>
					<path class="st0" d="M53.2,114.2c0.6-0.3,1.2-0.5,1.8-0.5c0.2,0,0.5,0,0.7,0c0.1,0,0.3,0,0.4,0.1c0.3,0,0.4,0.2,0.2,0.6
						c-0.1,0.6-0.2,0.4-0.7,0.5c-0.3,0-0.5,0-0.7,0.1c-0.2,0-0.4,0-0.6,0c-0.1,0-0.2,0-0.3,0c-0.6-0.3-0.6-0.6-0.1-0.8
						c0.2,0.1,0.2-0.2,0.1-0.3c-0.6-0.2-0.9,0.6-0.6,1c0.3,0.3,0.7,0.3,1.1,0.3c0.6,0,1.4,0,2-0.2c0.7-0.3,0.7-1,0-1.3
						c-1-0.5-2.5-0.2-3.4,0.3C52.9,114.1,53.1,114.3,53.2,114.2L53.2,114.2z"/>
				</g>
			</g>
		</g>
		<g>
			<g>
				<g>
					<path class="st0" d="M120.7,115.7c-1.3-0.4-2.7-0.2-3.8,0.6c-0.1,0.1-0.1,0.2,0,0.2c1,0.2,2,0.3,3.1,0.2c0.5,0,1.7,0.1,2.1-0.4
						c0.6-0.8-1.3-1-1.7-0.9c-0.2,0-0.1,0.3,0.1,0.3c0.4-0.1,0.9,0,1.3,0.2c-0.2,0.2-0.4,0.3-0.6,0.5c-0.4,0.1-0.9,0.1-1.3,0.1
						c-0.9,0-1.9-0.1-2.8-0.2c0,0.1,0,0.2,0,0.2c1-0.8,2.3-1,3.6-0.6C120.8,116,120.9,115.8,120.7,115.7L120.7,115.7z"/>
				</g>
			</g>
		</g>
		<g>
			<g>
				<g>
					<path class="st0" d="M113.3,116.3c-0.4-0.2-0.8-0.2-1.1,0.1c-0.1,0.1,0,0.2,0,0.2c0.8,0.4,1.7,0.5,2.5,0.1
						c0.1,0,0.1-0.1,0.1-0.2c-0.5-0.5-1.1-0.6-1.8-0.4c-0.2,0-0.1,0.3,0.1,0.3c0.5-0.2,1.1,0,1.5,0.3c0-0.1,0-0.1,0.1-0.2
						c-0.8,0.3-1.6,0.3-2.3-0.1c0,0.1,0,0.1,0,0.2c0.2-0.2,0.5-0.2,0.8,0C113.3,116.7,113.4,116.4,113.3,116.3L113.3,116.3z"/>
				</g>
			</g>
		</g>
		<g>
			<g>
				<path class="st0" d="M108.3,33.6c-2.5-4.8-7.3-8.1-13.4-9.2c-6.1-1.1-12.8,0.1-18.9,3.3c-12.6,6.6-18.6,20.1-13.4,30
					c1.7,3.1,4.3,5.6,7.5,7.2c0-0.2,0-0.3,0-0.5c-3-1.6-5.5-3.9-7-6.9c-5.1-9.7,0.8-22.9,13.2-29.4c4.5-2.4,9.4-3.6,14.1-3.6
					c1.5,0,3,0.1,4.5,0.4c6,1.1,10.6,4.3,13.1,8.9c2.5,4.7,2.5,10.3,0,15.9c-2.5,5.6-7.2,10.4-13.2,13.5c-4.6,2.4-9.5,3.6-14.1,3.6
					c-2.7,0-5.4-0.4-7.8-1.2c0,0.1-0.1,0.3-0.1,0.4c2.4,0.8,5.1,1.3,7.9,1.3c4.6,0,9.6-1.2,14.3-3.7c6.1-3.2,10.8-8.1,13.4-13.8
					C110.9,44.2,110.9,38.4,108.3,33.6z"/>
			</g>
		</g>
		<g>
			<g>
				<path class="st0" d="M108.4,34.3c-2.2-4.2-6.7-7-12.6-7.7c-5.9-0.7-12.5,0.7-18.6,3.9c-12.6,6.6-19.1,19.2-14.5,27.9
					c1.5,2.9,4.2,5.1,7.4,6.4c0-0.1,0-0.3,0-0.5c-3.1-1.3-5.5-3.3-7-6.1c-4.5-8.5,1.9-20.8,14.3-27.3c5-2.6,10.3-4,15.3-4
					c1,0,2,0.1,3,0.2c5.8,0.7,10.1,3.3,12.3,7.5c2.2,4.1,1.9,9.2-0.8,14.4c-2.7,5.2-7.5,9.8-13.5,12.9c-5.1,2.7-10.5,4-15.3,4
					c-1.9,0-3.7-0.2-5.4-0.6c0,0.1-0.1,0.3-0.1,0.4c1.7,0.4,3.6,0.6,5.5,0.6c4.9,0,10.3-1.3,15.5-4c6.1-3.2,10.9-7.9,13.7-13.1
					C110.3,43.8,110.6,38.5,108.4,34.3z"/>
			</g>
		</g>
		<g>
			<g>
				<g>
					<path class="st0" d="M67.1,63.1c-2.8-0.7-5.6,0.9-8.4,0.2c-1.5-0.4-2.3-1.3-2.6-2.8c-0.1-0.8-0.2-1.6-1-2.1c-0.1,0-0.1,0-0.2,0
						c-0.5,0.7-0.7,1.5-1,2.4c-0.4,1.5-1.4,2.2-2.9,2.5c-2.5,0.6-5.1,0.1-7.7-0.3c-2.1-0.3-4.3-0.6-6.4-0.1c-2.6,0.5-5.2,1.9-7.9,1
						c-0.1,0-0.1,0-0.2,0.1c-0.1,0.4-0.2,1.3-0.7,1.4c-0.3,0.1-1.1-0.3-1.5-0.3C25.8,65,24.8,65,23.9,65c-0.9,0-1.8,0.1-2.7,0.4
						c-0.7,0.1-0.9,0.1-1.3-0.5c-0.3-0.5-0.6-0.9-1-1.4c-0.4-0.7-1.1-1.9-2.1-1.2c-0.5,0.4-0.7,1-1,1.6c-0.7,1.1-2,1.5-3.1,0.8
						c-0.1-0.1-0.3,0.1-0.1,0.2c1,0.7,2.5,0.5,3.2-0.5c0.1-0.2,0.3-0.4,0.4-0.7c0.1-0.2,0.2-0.4,0.3-0.6c0.3-0.5,0.3-0.5,1-0.3
						c0.7,0.2,0.7,0.3,1.1,0.8c0.1,0.2,0.3,0.4,0.4,0.6c0.4,0.5,0.7,1,1.1,1.6c0,0,0.1,0.1,0.1,0.1c2.7-0.8,5.5-0.8,8.2,0
						c0.1,0,0.1,0,0.2-0.1c0.1-0.4,0.2-1.1,0.5-1.3c0.3-0.1,0.6,0,0.9,0c0.7,0.1,1.5,0,2.2-0.1c1.7-0.3,3.3-0.9,4.9-1.2
						c3.5-0.6,6.9,0.5,10.3,0.7c2.3,0.1,5.6,0,6.5-2.6c0.2-0.6,0.3-1.2,0.5-1.8c0.2-0.4,0.3-1,0.8-0.4c0.2,0.3,0.3,0.8,0.3,1.2
						c0.2,1,0.4,1.9,1.3,2.6c2.9,2.2,6.7-0.3,9.9,0.5C67.2,63.4,67.3,63.2,67.1,63.1L67.1,63.1z"/>
				</g>
			</g>
		</g>
		<g>
			<g>
				<g>
					<path class="st0" d="M115.6,61c0.7,0.1,1.3,0.1,2-0.2c0.3-0.1,1.1-0.8,1.4-0.7c0.1,0,0.5,0.7,0.6,0.7c0.2,0.2,0.5,0.4,0.7,0.5
						c0.5,0.2,0.9,0,1.3,0.1c0.3,0.1,0.5,0.4,0.8,0.7c0.4,0.3,1,0.5,1.5,0.6c1.8,0.3,3.6-0.6,5.4-0.1c0.2,0,0.2-0.2,0.1-0.3
						c-2.2-0.6-6.1,1.4-7.4-1.3c0-0.1-0.1-0.1-0.2,0c-1.2,0.7-2.1-0.5-2.7-1.3c0-0.1-0.1-0.1-0.2,0c-0.9,0.9-2,1.2-3.2,1
						C115.4,60.7,115.4,61,115.6,61L115.6,61z"/>
				</g>
			</g>
		</g>
		<g>
			<g>
				<g>
					<path class="st0" d="M26.5,74.4c-0.3-0.4-1-0.1-0.9,0.4c0,0.3,0.3,0.5,0.5,0.6c0.4,0.2,0.8,0,1.2-0.1c0.1,0,0.1-0.1,0.1-0.2
						c-0.2-0.6-0.7-0.9-1.3-0.9c-0.2,0-0.2,0.3,0,0.3c0.5,0,0.9,0.3,1,0.7c0-0.1,0.1-0.1,0.1-0.2c-0.4,0.1-0.8,0.3-1.1,0
						c-0.1-0.1-0.3-0.3-0.2-0.5c0.1-0.1,0.3-0.3,0.4-0.1C26.4,74.7,26.6,74.6,26.5,74.4L26.5,74.4z"/>
				</g>
			</g>
		</g>
		<g>
			<g>
				<g>
					<path class="st0" d="M17,81.7c-0.6,0.1-1,0.3-1.4,0.8c0,0,0,0.1,0,0.2c0.5,0.2,0.9,0.3,1.5,0.3c0.3,0,0.9,0,1.1-0.3
						c0.1-0.2,0.1-0.5-0.1-0.7C17.8,81.6,17.4,81.7,17,81.7c-0.2,0.1-0.1,0.4,0.1,0.3c0.1,0,0.3-0.1,0.4-0.1
						c0.6,0.1,0.6,0.4,0.2,0.6c-0.2,0.1-0.4,0.1-0.6,0.1c-0.4,0-0.9-0.1-1.3-0.3c0,0.1,0,0.1,0,0.2c0.3-0.4,0.7-0.6,1.2-0.7
						C17.2,81.9,17.2,81.6,17,81.7L17,81.7z"/>
				</g>
			</g>
		</g>
		<g>
			<g>
				<g>
					<path class="st0" d="M122.6,90.7c-0.5-0.1-1,0-1.4,0.3c-0.1,0,0,0.1,0,0.2c0.7,0.7,1.9,0.7,2.6,0c0,0,0-0.1,0-0.2
						c-0.4-0.4-0.9-0.6-1.5-0.5c-0.2,0-0.2,0.3,0,0.3c0.5-0.1,0.9,0.1,1.3,0.4c0-0.1,0-0.1,0-0.2c-0.6,0.6-1.6,0.6-2.2,0
						c0,0.1,0,0.1,0,0.2c0.3-0.3,0.7-0.3,1.2-0.2C122.7,91,122.8,90.7,122.6,90.7L122.6,90.7z"/>
				</g>
			</g>
		</g>
	</g>
</g>
</svg>
