<?xml version="1.0" encoding="utf-8"?>
<!-- Generator: Adobe Illustrator 24.0.1, SVG Export Plug-In . SVG Version: 6.00 Build 0)  -->
<svg version="1.1" id="Layer_1" xmlns="http://www.w3.org/2000/svg" xmlns:xlink="http://www.w3.org/1999/xlink" x="0px" y="0px"
	 viewBox="0 0 141.7 141.7" style="enable-background:new 0 0 141.7 141.7;" xml:space="preserve">
<style type="text/css">
	.st0{fill:#070707;}
</style>
<g id="Layer_1_1_">
</g>
<g id="Layer_1_2_">
</g>
<g id="Layer_1_3_">
</g>
<g id="Layer_1_4_">
</g>
<g id="Layer_1_5_">
</g>
<g id="Layer_3">
</g>
<g id="Layer_3_1_">
</g>
<g>
	<g>
		<g>
			<path class="st0" d="M88.6,121.9c3.8-1.5,7.2-3.8,10.4-6.4c0.3-0.2-0.1-0.7-0.4-0.4c-3.1,2.5-6.4,4.8-10.1,6.2
				C88,121.5,88.2,122.1,88.6,121.9L88.6,121.9z"/>
		</g>
	</g>
</g>
<g>
	<g>
		<g>
			<path class="st0" d="M39,73.8c0.6,8.1-0.5,16.4,1.4,24.3c0.1,0.4,0.7,0.2,0.6-0.2c-1.8-7.9-0.8-16.1-1.4-24.2
				C39.5,73.4,38.9,73.4,39,73.8L39,73.8z"/>
		</g>
	</g>
</g>
<g>
	<g>
		<g>
			<path class="st0" d="M52.7,32.3c-6.3,2.6-10.9,8-12.9,14.5c-2.4,7.6-1.9,16-1,23.8c0,0.4,0.7,0.4,0.6,0
				C38.5,63.3,38,55.4,40,48.2c1.8-6.7,6.3-12.5,12.8-15.3C53.2,32.7,53.1,32.2,52.7,32.3L52.7,32.3z"/>
		</g>
	</g>
</g>
<g>
	<g>
		<g>
			<path class="st0" d="M63.1,30.4c-0.8,0.1-1.7,0.2-2.5,0.3c-0.4,0-0.4,0.7,0,0.6c0.8-0.1,1.7-0.2,2.5-0.3
				C63.5,31,63.5,30.4,63.1,30.4L63.1,30.4z"/>
		</g>
	</g>
</g>
<g>
	<g>
		<g>
			<path class="st0" d="M76.5,30.1c-3.4-0.4-6.8-0.4-10.1,0c-0.4,0-0.4,0.7,0,0.6c3.4-0.3,6.8-0.4,10.1,0
				C76.9,30.8,76.9,30.2,76.5,30.1L76.5,30.1z"/>
		</g>
	</g>
</g>
<g>
	<g>
		<g>
			<path class="st0" d="M86.8,33.7c-1.5-0.9-3.1-1.7-4.8-2.3c-0.4-0.1-0.5,0.5-0.2,0.6c1.6,0.6,3.2,1.4,4.7,2.3
				C86.8,34.4,87.1,33.9,86.8,33.7L86.8,33.7z"/>
		</g>
	</g>
</g>
<g>
	<g>
		<g>
			<path class="st0" d="M93.1,40.5c-0.4-0.8-0.9-1.5-1.5-2.3c-0.2-0.3-0.8,0-0.5,0.3c0.5,0.7,1,1.5,1.5,2.3
				C92.8,41.1,93.3,40.8,93.1,40.5L93.1,40.5z"/>
		</g>
	</g>
</g>
<g>
	<g>
		<g>
			<path class="st0" d="M58.2,31.7c0.4,0,0.4-0.6,0-0.6S57.8,31.7,58.2,31.7L58.2,31.7z"/>
		</g>
	</g>
</g>
<g>
	<g>
		<g>
			<path class="st0" d="M39.5,47.9c-4.2-0.6-6.8-4.9-4.4-8.7c1.1-1.7,2.9-2.8,4.8-3.2c1.9-0.4,4.5-0.4,5.8,1.2
				c0.2,0.3,0.7-0.1,0.4-0.4c-1.4-1.7-3.9-1.8-5.9-1.5C38,35.7,35.9,37,34.6,39c-2.6,4,0.2,8.9,4.7,9.6C39.7,48.6,39.9,48,39.5,47.9
				L39.5,47.9z"/>
		</g>
	</g>
</g>
<g>
	<g>
		<g>
			<path class="st0" d="M91.1,35c3.3-1,7.3-0.9,8.9,2.7c1.6,3.5,0.1,8.2-4,8.9c-0.4,0.1-0.2,0.7,0.2,0.6c4.4-0.8,6-5.8,4.5-9.5
				c-1.7-4-6-4.3-9.7-3.2C90.5,34.5,90.7,35.1,91.1,35L91.1,35z"/>
		</g>
	</g>
</g>
<g>
	<g>
		<g>
			<path class="st0" d="M64,53.1c0.1,0,0.2,0,0.3,0c0-0.1,0-0.2-0.1-0.3c-0.3,0.1-0.6,0.1-0.8,0.2c-0.5,0.2-0.9,0.6-1.4,0.9
				c-0.8,0.6-1.5,1.4-1.9,2.3c-0.7,2.1,2,3.2,3.7,3c1.4-0.1,2.7-0.8,4.2-0.9c1.5-0.2,2.7,0.4,4,0.7c1.8,0.4,3.7-0.6,3.3-2.7
				c-0.3-2.2-3.1-3.4-5-4c-0.2-0.1-0.3,0.2-0.1,0.3c1.9,0.7,5.4,2.2,4.7,4.8c-0.8,3-4.5,0.6-6.5,0.7c-1.2,0-2.3,0.5-3.5,0.8
				c-1.5,0.4-4.1,0.4-4.7-1.5c-0.3-1.2,0.8-2.3,1.6-3c0.5-0.4,1-0.8,1.6-1.1c0.2-0.1,0.5-0.1,0.8-0.2c0.1-0.1,0.1-0.3-0.1-0.3
				c-0.1,0-0.2,0-0.3,0C63.7,52.9,63.8,53.2,64,53.1L64,53.1z"/>
		</g>
	</g>
</g>
<g>
	<g>
		<g>
			<path class="st0" d="M71.3,59c0.5,1.3,0.7,2.7,0.4,4c-0.3,1-1.2,1.7-2.3,1.5c-0.8-0.2-0.9-0.9-1.3-1.5c-0.1-0.2-0.3,0-0.3,0.1
				c0.3,0.6,0.5,1.4,1.3,1.7c0.6,0.2,1.4,0,2-0.3c1.6-1.1,1.1-4,0.5-5.5C71.5,58.7,71.2,58.8,71.3,59L71.3,59z"/>
		</g>
	</g>
</g>
<g>
	<g>
		<g>
			<path class="st0" d="M105.8,112.9c2.5,1.2,5.8,5.3,8.9,3.4c1.3-0.8,1.9-2.3,1.4-3.8c-0.6-1.6-2.2-2.8-3.7-3.6
				c-0.2-0.1-0.3,0.2-0.1,0.3c1.3,0.7,2.6,1.7,3.3,3c1,1.9-0.3,4.3-2.6,4.3c-2.7,0-4.8-2.8-7.1-3.8
				C105.8,112.5,105.6,112.8,105.8,112.9L105.8,112.9z"/>
		</g>
	</g>
</g>
<g>
	<g>
		<g>
			<path class="st0" d="M115.1,115.7c0.4-1.9-0.9-3.5-2.6-4.3c-0.2-0.1-0.3,0.2-0.1,0.3c1.5,0.7,2.8,2.1,2.5,3.9
				C114.8,115.8,115.1,115.9,115.1,115.7L115.1,115.7z"/>
		</g>
	</g>
</g>
<g>
	<g>
		<path class="st0" d="M108.6,100.6C108.6,100.6,108.6,100.7,108.6,100.6c-0.1,0.1-0.2,0.2-0.2,0.2c1.4,0.9,2.4,2.6,2.7,4.1
			c0.1,0.5,0.1,1,0.1,1.5c0.1,0,0.2,0,0.3,0c0,0,0,0,0,0C111.8,104.4,110.5,101.8,108.6,100.6z"/>
	</g>
</g>
<g>
	<g>
		<g>
			<path class="st0" d="M100.6,70c-1.6,0.5-2.7,1.7-3.7,3c-0.1,0.1,0.1,0.4,0.2,0.2c1-1.2,2-2.5,3.6-3C100.8,70.3,100.8,70,100.6,70
				L100.6,70z"/>
		</g>
	</g>
</g>
<g>
	<g>
		<g>
			<path class="st0" d="M97.3,77.4c2.8-0.1,5.5-1.6,6.1-4.5c0-0.2-0.2-0.3-0.3-0.1c-0.7,2.7-3.2,4.2-5.9,4.3
				C97.1,77.1,97.1,77.4,97.3,77.4L97.3,77.4z"/>
		</g>
	</g>
</g>
<g>
	<g>
		<g>
			<path class="st0" d="M100.3,73.2c1.2-0.6,2.3-1.8,1.5-3.1c-0.1-0.2-0.4,0-0.3,0.1c0.8,1.2-0.3,2.2-1.4,2.7
				C100,73,100.2,73.3,100.3,73.2L100.3,73.2z"/>
		</g>
	</g>
</g>
<g>
	<path class="st0" d="M79,53c-5.1,0-9.2-4.1-9.2-9.2s4.1-9.2,9.2-9.2c5.1,0,9.2,4.1,9.2,9.2S84.1,53,79,53z M79,34.9
		c-4.9,0-8.9,4-8.9,8.9s4,8.9,8.9,8.9s8.9-4,8.9-8.9S83.9,34.9,79,34.9z"/>
</g>
<g>
	<path class="st0" d="M56.2,53.9c-5.1,0-9.2-4.1-9.2-9.2s4.1-9.2,9.2-9.2s9.2,4.1,9.2,9.2S61.3,53.9,56.2,53.9z M56.2,35.8
		c-4.9,0-8.9,4-8.9,8.9s4,8.9,8.9,8.9s8.9-4,8.9-8.9S61.1,35.8,56.2,35.8z"/>
</g>
<g>
	<path class="st0" d="M96.4,40.2c0-1.1-0.8-1.9-1.9-1.9s-1.9,0.8-1.9,1.9s0.8,1.9,1.9,1.9S96.4,41.2,96.4,40.2z"/>
</g>
<g>
	<circle class="st0" cx="40.6" cy="41.9" r="1.9"/>
</g>
<g>
	<path class="st0" d="M71.7,52.1c0-1.2-1.8-2.3-4-2.3c-2.3,0-4,1-4,2.3c0,1.2,1.8,2.3,4,2.3C69.9,54.3,71.7,53.3,71.7,52.1z"/>
</g>
<g>
	<path class="st0" d="M74.8,43.8c-1.6,0-3,1.3-3,3c0,1.6,1.3,3,3,3c1.6,0,3-1.3,3-3C77.8,45.1,76.5,43.8,74.8,43.8z M76,48.6
		c-0.5,0-0.8-0.4-0.8-0.8c0-0.5,0.4-0.8,0.8-0.8c0.5,0,0.8,0.4,0.8,0.8C76.8,48.3,76.5,48.6,76,48.6z"/>
</g>
<g>
	<path class="st0" d="M51.8,44.3c-1.6,0-3,1.3-3,3c0,1.6,1.3,3,3,3c1.6,0,3-1.3,3-3C54.8,45.6,53.5,44.3,51.8,44.3z M53,49.1
		c-0.5,0-0.8-0.4-0.8-0.8c0-0.5,0.4-0.8,0.8-0.8s0.8,0.4,0.8,0.8S53.5,49.1,53,49.1z"/>
</g>
<g>
	<g>
		<g>
			<path class="st0" d="M67.9,58.3c0.2,1.2,0.2,2.7,0,3.8c-0.1,0.7-0.2,1.5-0.8,2c-0.6,0.6-1.6,0.6-2.3,0c-1.2-1.1-0.8-3.6-0.4-5
				c0-0.2-0.2-0.3-0.3-0.1c-0.5,1.7-0.9,5.2,1.3,5.8c3.3,0.9,3-4.9,2.7-6.6C68.2,58.1,67.9,58.1,67.9,58.3L67.9,58.3z"/>
		</g>
	</g>
</g>
<g>
	<g>
		<g>
			<path class="st0" d="M39.4,77.5c-1.6,0.3-3.2-0.3-4.5-1.3c-1.1-0.8-2.9-2.5-1.1-3.6c0.2-0.1,0-0.4-0.1-0.3
				c-1.5,0.8-0.9,2.3,0.1,3.3c1.5,1.4,3.7,2.4,5.7,2C39.7,77.8,39.6,77.5,39.4,77.5L39.4,77.5z"/>
		</g>
	</g>
</g>
<g>
	<g>
		<g>
			<path class="st0" d="M35.4,73.7c-1.1-0.6-1.8-2.3,0-2.3c1.5,0,2.8,1.4,3.7,2.4c0.1,0.1,0.3-0.1,0.2-0.2c-1-1.2-3.1-3.3-4.9-2.3
				c-1.3,0.7-0.1,2.2,0.8,2.6C35.4,74.1,35.5,73.8,35.4,73.7L35.4,73.7z"/>
		</g>
	</g>
</g>
<g>
	<g>
		<g>
			<path class="st0" d="M109.8,99.8c-1.1-3.8-1.3-7.9-4.5-10.7c-0.3-0.2-0.7,0.2-0.4,0.4c3.1,2.7,3.2,6.7,4.3,10.4
				C109.3,100.4,109.9,100.2,109.8,99.8L109.8,99.8z"/>
		</g>
	</g>
</g>
<g>
	<g>
		<g>
			<path class="st0" d="M96.5,71.3c0,4.4,0.9,8.5,3.6,12c0.2,0.3,0.7-0.1,0.4-0.4c-2.6-3.4-3.4-7.4-3.4-11.6
				C97.1,70.9,96.5,70.9,96.5,71.3L96.5,71.3z"/>
		</g>
	</g>
</g>
<g>
	<g>
		<g>
			<path class="st0" d="M92.1,39.7c5.3,8.2,4.9,18.2,4.5,27.5c0,0.4,0.6,0.4,0.6,0c0.4-9.4,0.8-19.6-4.6-27.8
				C92.5,39.1,91.9,39.4,92.1,39.7L92.1,39.7z"/>
		</g>
	</g>
</g>
<g>
	<g>
		<g>
			<path class="st0" d="M92.8,68.3c1.4-0.3,2.7-0.6,4.1-0.7c0.4,0,0.4-0.7,0-0.6c-1.4,0.1-2.9,0.4-4.3,0.7
				C92.2,67.8,92.4,68.4,92.8,68.3L92.8,68.3z"/>
		</g>
	</g>
</g>
<g>
	<g>
		<g>
			<path class="st0" d="M39,71.1c3.4,0.3,6.6,1.6,9.8,2.9c1.5,0.6,3.1,1.1,4.7,1.5c1.9,0.4,3.8,0.6,5.7,1c2.7,0.5,6,1.5,8.1,3.4
				c0.8,0.7,1.5,1.6,2.1,2.4c0.4,0.6,1.4,1.8,1.1,2.6c-0.1,0.3,0.4,0.5,0.6,0.2c3.4-6.5,8.9-11.6,15.5-14.7c0.4-0.2,0-0.7-0.3-0.5
				c-6.7,3.2-12.3,8.3-15.7,14.9c0.2,0.1,0.4,0.1,0.6,0.2c0.6-1.6-1.7-3.9-2.6-4.9c-1.8-2-4.5-3.1-7.1-3.8c-1.9-0.6-3.9-0.8-5.9-1.1
				c-2-0.3-3.8-0.9-5.7-1.6c-3.5-1.3-6.9-2.8-10.7-3.2C38.6,70.5,38.6,71.1,39,71.1L39,71.1z"/>
		</g>
	</g>
</g>
<g>
	<g>
		<g>
			<path class="st0" d="M70.4,84.8c-1.3,0-4.5,0.9-4.1,2.8c0.2,0.9,1.3,1.1,2.1,1.2c1.3,0.2,2.7,0.3,4,0.2c1.4-0.1,4.2-0.4,4-2.4
				c-0.1-0.8-0.7-1.1-1.4-1.3c-1.3-0.5-2.6-0.7-4-0.6c-0.4,0-0.4,0.6,0,0.6c1.1,0,2.6,0,3.6,0.5c0.1,0,0.3,0.1,0.4,0.1
				c0.1,0.5,0.3,1,0.4,1.5c-0.1,0.3-0.8,0.5-1.1,0.6c-0.7,0.2-1.5,0.3-2.2,0.4c-1.3,0.1-2.6,0-3.8-0.2c-0.7-0.1-0.6,0-0.8-0.9
				c-0.1-0.8-0.1-0.9,0.6-1.3c0.7-0.4,1.5-0.6,2.3-0.6C70.8,85.4,70.8,84.8,70.4,84.8L70.4,84.8z"/>
		</g>
	</g>
</g>
<g>
	<g>
		<g>
			<path class="st0" d="M94.1,72.3c1.5-0.5,3.8-1.1,4.3-2.8c0.4-1.1-0.2-2.7-1.6-2.5c-0.4,0-0.4,0.7,0,0.6c1.4-0.2,1.2,1.7,0.5,2.4
				c-0.9,0.9-2.2,1.3-3.4,1.6C93.5,71.9,93.7,72.4,94.1,72.3L94.1,72.3z"/>
		</g>
	</g>
</g>
<g>
	<g>
		<g>
			<path class="st0" d="M72.6,85.2c5.5-2.3,8.7-7.7,13.9-10.5c0.3-0.2,0-0.7-0.3-0.5c-5.1,2.8-8.3,8.2-13.7,10.5
				C72.1,84.8,72.2,85.4,72.6,85.2L72.6,85.2z"/>
		</g>
	</g>
</g>
<g>
	<g>
		<g>
			<path class="st0" d="M68.9,84.9c-4.6-3.2-9.7-5.6-15-7.5c-2.6-0.9-5.3-1.8-8-2.5c-1.4-0.4-2.8-0.8-4.1-1.1
				c-0.5-0.1-1.1-0.2-1.6-0.4c-0.3-0.1-0.7-0.2-1-0.4c-0.7-0.4-0.8-1.5,0-1.9c0.4-0.2,0-0.7-0.3-0.5c-0.7,0.3-1.2,1-1,1.9
				c0.3,0.9,1.4,1.3,2.3,1.5c3.2,0.8,6.3,1.6,9.5,2.6c6.7,2.1,13.1,4.8,18.9,8.8C68.9,85.6,69.2,85.1,68.9,84.9L68.9,84.9z"/>
		</g>
	</g>
</g>
<g>
	<g>
		<g>
			<path class="st0" d="M67.8,84.4c-0.4-0.6-1.2-0.6-1.7-0.1c-0.5,0.5-0.8,1.5-0.2,2c0.4,0.4,1.3,0.4,1.7,0c0.5-0.5,0.4-1.4,0.1-2
				c-0.2-0.3-0.7,0-0.5,0.3c0.2,0.3,0.3,0.8,0.1,1.1c-0.1,0.3-0.5,0.4-0.8,0.3c-0.4-0.2-0.2-0.8,0-1.1s0.7-0.5,0.9-0.2
				C67.5,85,68,84.7,67.8,84.4L67.8,84.4z"/>
		</g>
	</g>
</g>
<g>
	<g>
		<g>
			<path class="st0" d="M66,85.9c-1-0.5-2.2,0.3-1.9,1.4c0.3,1.2,1.7,1.4,2.5,0.5c0.3-0.3-0.2-0.7-0.4-0.4c-0.4,0.5-1.2,0.5-1.5-0.2
				c-0.2-0.6,0.4-1.2,1-0.8C66,86.7,66.3,86.1,66,85.9L66,85.9z"/>
		</g>
	</g>
</g>
<g>
	<g>
		<g>
			<path class="st0" d="M65.7,87.9c-0.4,0.4-0.9,0.9-0.9,1.5c0,0.5,0.4,0.9,0.9,1c1.2,0.3,2.2-0.9,1.8-2.1c-0.1-0.4-0.7-0.2-0.6,0.2
				c0.3,0.7-0.2,1.5-1,1.3c-0.9-0.2-0.1-1.2,0.2-1.5C66.5,88,66,87.6,65.7,87.9L65.7,87.9z"/>
		</g>
	</g>
</g>
<g>
	<g>
		<g>
			<path class="st0" d="M68.2,88.5c-0.7,0.1-1.3,0.8-1.3,1.5c0,0.7,0.5,1.3,1.2,1.5c1.6,0.3,2.3-1.8,1.1-2.7
				c-0.3-0.2-0.6,0.3-0.3,0.5c0.8,0.6,0.2,1.8-0.8,1.6c-1-0.3-0.8-1.6,0.2-1.8C68.7,89,68.5,88.4,68.2,88.5L68.2,88.5z"/>
		</g>
	</g>
</g>
<g>
	<g>
		<g>
			<path class="st0" d="M70.1,88.7c-1.3,1.1-0.4,3.3,1.3,2.9c0.7-0.2,1.3-0.8,1.1-1.6c-0.1-0.8-0.9-1.4-1.7-1.2
				c-0.4,0-0.2,0.6,0.2,0.6c0.5-0.1,1,0.5,0.9,0.9c0,0.5-0.5,0.7-0.9,0.8c-1.1,0-1.2-1.4-0.5-1.9C70.9,88.9,70.5,88.5,70.1,88.7
				L70.1,88.7z"/>
		</g>
	</g>
</g>
<g>
	<g>
		<g>
			<path class="st0" d="M73.1,88.7c-0.7,0.1-1.2,0.8-1.1,1.5c0.1,0.8,0.8,1.3,1.6,1.3s1.4-0.6,1.6-1.3c0.2-0.7,0-1.5-0.8-1.7
				c-0.4-0.1-0.5,0.5-0.2,0.6c0.5,0.1,0.5,0.7,0.3,1.1c-0.2,0.4-0.6,0.7-1,0.7c-1,0-1.4-1.4-0.3-1.6C73.6,89.2,73.5,88.6,73.1,88.7
				L73.1,88.7z"/>
		</g>
	</g>
</g>
<g>
	<g>
		<g>
			<path class="st0" d="M75,88.1c-0.5,0.3-0.6,1-0.2,1.5c0.4,0.6,1.2,0.6,1.8,0.3c0.6-0.3,1-0.9,0.9-1.6c-0.1-0.6-0.8-1-1.4-0.9
				c-0.4,0.1-0.2,0.7,0.2,0.6c0.3-0.1,0.6,0.2,0.7,0.6c0,0.3-0.2,0.6-0.5,0.8c-0.3,0.2-0.7,0.2-0.9,0c-0.2-0.1-0.3-0.5-0.1-0.7
				C75.6,88.4,75.3,87.9,75,88.1L75,88.1z"/>
		</g>
	</g>
</g>
<g>
	<g>
		<g>
			<path class="st0" d="M76,87.3c0.3,0.5,0.9,0.7,1.5,0.4c0.5-0.2,0.8-0.8,0.6-1.4c-0.2-0.6-0.8-0.9-1.3-0.8c-0.6,0.2-1,0.8-0.8,1.4
				c0.1,0.4,0.7,0.2,0.6-0.2c-0.1-0.3,0.1-0.6,0.5-0.7c0.3,0,0.5,0.2,0.6,0.4c0.1,0.6-0.7,0.8-1,0.4C76.3,86.7,75.8,87,76,87.3
				L76,87.3z"/>
		</g>
	</g>
</g>
<g>
	<g>
		<g>
			<path class="st0" d="M76.1,84.1c-0.4-0.6-1.1-0.1-1.2,0.4c-0.1,0.7,0.3,1.5,1,1.6c0.6,0.1,1.4-0.2,1.5-0.9
				c0.2-0.7-0.5-1.5-1.2-1.4c-0.4,0-0.4,0.7,0,0.6c0.3,0,0.7,0.2,0.6,0.6c0,0.3-0.3,0.5-0.6,0.5c-0.3,0-0.6-0.2-0.7-0.5
				c0-0.1-0.1-0.3-0.1-0.5c0-0.1,0-0.1,0.1-0.2c0.1,0,0.1,0,0-0.1C75.8,84.8,76.3,84.4,76.1,84.1L76.1,84.1z"/>
		</g>
	</g>
</g>
<g>
	<g>
		<g>
			<path class="st0" d="M73.8,85.1c-0.1-0.4,0.1-1,0.6-0.9c0.2,0,0.4,0.1,0.4,0.3s-0.2,0.4-0.4,0.3c-0.3-0.2-0.7,0.3-0.3,0.5
				c0.4,0.2,1,0,1.2-0.4c0.3-0.4,0.1-1-0.3-1.2c-0.4-0.2-0.9-0.2-1.3,0.1c-0.4,0.3-0.5,0.9-0.4,1.4C73.3,85.7,73.9,85.5,73.8,85.1
				L73.8,85.1z"/>
		</g>
	</g>
</g>
<g>
	<g>
		<g>
			<path class="st0" d="M66.9,87.3c1.8,0.5,3.6,0.6,5.4,0.4c1.1-0.1,2.9-0.2,3.6-1.2c0.2-0.3-0.3-0.6-0.5-0.3
				c-0.7,0.9-3.2,0.9-4.2,0.9c-1.4,0-2.8-0.1-4.1-0.5C66.7,86.6,66.5,87.2,66.9,87.3L66.9,87.3z"/>
		</g>
	</g>
</g>
<g>
	<g>
		<g>
			<path class="st0" d="M72,84.9c1.9-2.2,3.9-4.3,6.1-6.2c0.3-0.3-0.1-0.7-0.4-0.4c-2.2,1.9-4.2,4-6.1,6.2
				C71.3,84.8,71.7,85.2,72,84.9L72,84.9z"/>
		</g>
	</g>
</g>
<g>
	<g>
		<g>
			<path class="st0" d="M69.8,85.1c-1.8-2.6-3.7-6-7.2-6.4c-0.4,0-0.4,0.6,0,0.6c3.2,0.4,5,3.8,6.6,6.1C69.5,85.7,70,85.4,69.8,85.1
				L69.8,85.1z"/>
		</g>
	</g>
</g>
<g>
	<g>
		<g>
			<path class="st0" d="M75.2,97.5c-0.7-0.4-1.6-0.5-2.3,0c-0.6,0.4-0.9,1-0.5,1.6c0.4,0.6,1.2,0.8,1.8,0.5c0.8-0.3,1.3-0.9,1.5-1.7
				c0.1-0.4-0.5-0.5-0.6-0.2C75,98.5,74,99.6,73.2,99c-0.7-0.4-0.1-1.1,0.5-1.2c0.4-0.1,0.9,0,1.3,0.2
				C75.2,98.2,75.5,97.7,75.2,97.5L75.2,97.5z"/>
		</g>
	</g>
</g>
<g>
	<g>
		<g>
			<path class="st0" d="M72.8,97.8c-1.2-1.1-2.3-2.3-3.5-3.3c-0.7-0.6-1.4-1.1-2.3-0.7c-0.8,0.3-1.3,1.1-1.3,1.9
				c-0.1,1.5,1.1,2.6,0.5,4.1c-0.4,1-0.9,1.7-0.8,2.8c0.1,0.9,0.7,1.9,1.5,2.4c0.9,0.5,1.5,0,2.1-0.7c1.2-1.3,2.3-2.6,3.5-3.9
				c0.3-0.3-0.2-0.7-0.4-0.4c-0.8,0.8-1.5,1.7-2.3,2.5c-0.5,0.6-1.2,1.7-1.8,2c-1.5,0.8-2.2-1.8-2-2.9c0.2-0.8,0.7-1.4,0.9-2.1
				c0.4-1.6-1.8-4.4,0.5-5c0.9-0.2,1.3,0.2,1.8,0.8c0.3,0.3,0.7,0.6,1,0.9c0.8,0.7,1.5,1.4,2.3,2.1C72.6,98.5,73.1,98.1,72.8,97.8
				L72.8,97.8z"/>
		</g>
	</g>
</g>
<g>
	<g>
		<g>
			<path class="st0" d="M76,97.9c0.3-1.7,1.1-5.6,3.7-4.2c1.3,0.7,0,2.1-0.1,3c0,0.3,0,0.7,0.2,1c0.5,1,1.5,1.5,2.1,2.4
				c0.4,0.7,0.5,1.2-0.6,1.5c-0.4,0.1-1-0.1-1.4-0.2c-1-0.2-1.9-0.6-2.8-1c-0.3-0.2-0.7,0.3-0.3,0.5c1.1,0.6,2.3,1,3.6,1.2
				c0.8,0.1,1.7,0.3,2.2-0.5c0.9-1.7-1.5-2.9-2.2-4c-0.7-1.2,0.7-2.2,0.4-3.4c-0.2-0.9-1.1-1.1-1.9-1.3c-2.6-0.3-3.2,2.8-3.6,4.8
				C75.4,98.2,75.9,98.3,76,97.9L76,97.9z"/>
		</g>
	</g>
</g>
<g>
	<g>
		<g>
			<path class="st0" d="M72.4,98.9c-1.5-0.7-3.2-0.7-4.8,0.1c-0.3,0.2,0,0.7,0.3,0.5c1.3-0.7,2.8-0.7,4.2-0.1
				C72.5,99.6,72.8,99.1,72.4,98.9L72.4,98.9z"/>
		</g>
	</g>
</g>
<g>
	<g>
		<g>
			<path class="st0" d="M72,99.4c-0.9,0.2-1.7,0.6-2.4,1.2c-0.3,0.2,0.1,0.7,0.4,0.4c0.6-0.5,1.4-0.9,2.2-1
				C72.5,99.9,72.4,99.3,72,99.4L72,99.4z"/>
		</g>
	</g>
</g>
<g>
	<g>
		<g>
			<path class="st0" d="M76,98.1c0.6-0.5,1.4-0.9,2.2-1c0.4-0.1,0.2-0.7-0.2-0.6c-0.9,0.1-1.7,0.6-2.4,1.2
				C75.2,97.9,75.7,98.4,76,98.1L76,98.1z"/>
		</g>
	</g>
</g>
<g>
	<g>
		<g>
			<path class="st0" d="M76,99.1c0.6-0.2,1.1,0,1.6,0.3c0.3,0.2,0.6-0.3,0.3-0.5c-0.6-0.5-1.4-0.6-2.1-0.4
				C75.4,98.6,75.6,99.2,76,99.1L76,99.1z"/>
		</g>
	</g>
</g>
<g>
	<g>
		<g>
			<path class="st0" d="M72.3,99.6c-0.9,1.5-1.5,3.1-1.9,4.9c0,0.2,0.1,0.4,0.4,0.4c1.1-0.2,1.7,0.6,2.3,1.3
				c0.2,0.2,0.6,0.2,0.6-0.1c-0.1-1.5-1.3-4.4,0-5.4c0.3-0.5,0.6-0.4,0.8,0.2c0.1,0.2,0.2,0.4,0.3,0.5c0.2,0.4,0.4,0.7,0.6,1.1
				c0.4,0.9,0.7,1.9,0.9,2.9c0,0.2,0.3,0.3,0.5,0.1c0.3-0.3,0.7-0.6,1.1-0.7c0.3,0,0.6,0,0.9-0.1c0.1-0.1,0.3-0.1,0.4-0.2
				c0.2-0.4-0.1-0.9-0.3-1.2c-0.8-1.6-2.1-3-3.7-3.8c-0.3-0.2-0.7,0.3-0.3,0.5c1.4,0.8,2.6,2,3.4,3.5c0.6,1.1,0.2,0.6-0.6,0.8
				c-0.5,0.1-1,0.4-1.4,0.8c0.2,0,0.3,0.1,0.5,0.1c-0.3-1.4-0.8-2.7-1.5-4c-0.3-0.6-0.9-1.8-1.7-1.6c-2.2,0.4-0.6,5.3-0.6,6.5
				c0.2,0,0.4-0.1,0.6-0.1c-0.8-1-1.6-1.9-3-1.6c0.1,0.1,0.2,0.2,0.4,0.4c0.3-1.7,0.9-3.2,1.8-4.7C73,99.6,72.5,99.3,72.3,99.6
				L72.3,99.6z"/>
		</g>
	</g>
</g>
<g>
	<g>
		<g>
			<path class="st0" d="M74.1,99.8c1.4,1.2,2.4,2.8,3,4.6c0.1,0.4,0.7,0.2,0.6-0.2c-0.6-1.9-1.6-3.6-3.1-4.9
				C74.3,99.1,73.8,99.5,74.1,99.8L74.1,99.8z"/>
		</g>
	</g>
</g>
<g>
	<g>
		<g>
			<path class="st0" d="M73.2,100.2c0.4-0.5-0.3-0.9-0.7-0.4c-0.7,0.8-1,2.1-1,3.1c0,0.4,0.6,0.4,0.6,0c0-0.5,0.1-1,0.3-1.5
				c0.1-0.3,0.4-1.2,0.8-1.4c-0.1,0-0.2,0-0.3,0c0,0,0,0,0,0c0-0.1,0-0.2,0.1-0.3c0,0,0,0,0,0C72.5,100.1,73,100.5,73.2,100.2
				L73.2,100.2z"/>
		</g>
	</g>
</g>
<g>
	<g>
		<g>
			<path class="st0" d="M80.2,96.4c4.1-0.5,7.3-3.2,10.2-5.9c3.2-2.9,6.3-6,8.1-10c0.2-0.4-0.4-0.7-0.5-0.3
				c-1.6,3.7-4.5,6.6-7.4,9.3c-3,2.7-6.2,5.7-10.4,6.2C79.8,95.8,79.8,96.4,80.2,96.4L80.2,96.4z"/>
		</g>
	</g>
</g>
<g>
	<g>
		<g>
			<path class="st0" d="M80.3,97.9c8.1-2.7,15.2-8,20.1-15c0.2-0.3-0.3-0.6-0.5-0.3C95,89.5,88,94.7,80.1,97.3
				C79.7,97.5,79.9,98.1,80.3,97.9L80.3,97.9z"/>
		</g>
	</g>
</g>
<g>
	<g>
		<g>
			<path class="st0" d="M66.3,98.1c-8.4,1.3-17.2,2.4-25.5-0.4c-0.4-0.1-0.5,0.5-0.2,0.6c8.3,2.9,17.3,1.7,25.8,0.4
				C66.9,98.6,66.7,98.1,66.3,98.1L66.3,98.1z"/>
		</g>
	</g>
</g>
<g>
	<g>
		<g>
			<path class="st0" d="M66.5,99.4c-4.1,1.3-8.3,2.2-12.6,2.6c-2,0.2-4.1,0.3-6.1,0.2c-2.3,0-4.3-0.5-6.5-0.9
				c-0.4-0.1-0.5,0.5-0.2,0.6c2.1,0.5,4.1,0.9,6.2,0.9c2.2,0.1,4.4,0,6.6-0.2c4.3-0.4,8.6-1.3,12.8-2.6C67,99.9,66.8,99.3,66.5,99.4
				L66.5,99.4z"/>
		</g>
	</g>
</g>
<g>
	<g>
		<g>
			<path class="st0" d="M43.6,112.1c-1.1,3.8-0.6,7.7,0.4,11.5c0.5,1.8,1,3.7,1.7,5.3c0.7,1.4,1.5,2.1,3,2.5
				c1.8,0.5,3.6-0.2,5.3-0.3c2.1-0.1,4.2-0.3,6.4-0.6c4.2-0.4,8.4-1,12.5-1.8c2.1-0.4,4.2-0.9,6.3-1.4c0.7-0.2,1.3-0.5,2-0.8
				c0.9-0.5,1.8-0.6,2.7-0.9c1.4-0.5,2.5-2.1,3.5-3.1c1.4-1.4,2.8-2.7,4.4-3.8c3.3-2.2,7.4-3.2,11.1-4.6c1.7-0.7,3.4-1.3,5.1-2.1
				c1.7-0.8,3.7-1.8,5.2-3.1c0.7-0.6,0.5-1.7-0.2-2.2c-1.5-1-3.8-1.2-5.5-1.4c-2.2-0.2-4.5-0.6-6.7-0.5c-2.5,0-4.9,0.5-7.4,0.3
				c-0.4,0-0.4,0.6,0,0.6c1.9,0.1,3.7-0.1,5.5-0.2c1.9-0.1,3.8,0,5.7,0.2c1.7,0.1,3.5,0.2,5.3,0.6c0.8,0.2,2,0.4,2.7,0.8
				c1.3,0.8,0,1.6-0.8,2.1c-2.9,1.9-6.1,3.3-9.4,4.5c-3.1,1.2-6.6,2-9.5,3.7c-2.8,1.6-5,3.9-7.2,6.2c-0.7,0.7-1.1,1.2-2.1,1.5
				c-0.5,0.1-1.1,0.2-1.6,0.5c-0.6,0.3-1.2,0.6-1.9,0.9c-1.1,0.4-2.3,0.6-3.4,0.9c-7.4,1.7-15,2.6-22.6,3.1
				c-2.1,0.1-4.1,0.9-6.2-0.1c-1.8-0.9-2.3-3.5-2.8-5.3c-1.3-4.2-2.1-8.6-0.9-12.9C44.3,111.9,43.7,111.7,43.6,112.1L43.6,112.1z"/>
		</g>
	</g>
</g>
<g>
	<g>
		<g>
			<path class="st0" d="M80.6,98.6c2.5,0.4,4.9,0.1,7.4-0.4c2.4-0.4,4.8-0.9,6.8-2.3c2-1.4,3.6-3.2,5.7-4.5c1.1-0.7,2.4-1.5,3.7-1.9
				c0.7-0.2,1.5-0.3,2.2,0.1c0.9,0.5,0.9,0.8,0.5,1.6c-0.2,0.3,0.4,0.7,0.5,0.3c0.4-0.8,0.7-1.1,0.1-1.8c-0.5-0.6-1.4-0.9-2.2-0.9
				c-2.4,0-5.1,2-6.9,3.4c-2.5,1.9-4.4,4-7.5,4.9c-3.2,0.8-6.8,1.6-10.1,1C80.4,98,80.2,98.6,80.6,98.6L80.6,98.6z"/>
		</g>
	</g>
</g>
<g>
	<g>
		<g>
			<path class="st0" d="M108.1,90.4c-0.1-2-0.7-4.1-2.1-5.7c-1.7-1.9-3.8-1.8-6.2-1.6c-0.4,0-0.4,0.6,0,0.6c2.2-0.2,4.2-0.3,5.8,1.4
				c1.3,1.4,1.8,3.4,1.9,5.2C107.5,90.8,108.1,90.8,108.1,90.4L108.1,90.4z"/>
		</g>
	</g>
</g>
<g>
	<g>
		<g>
			<path class="st0" d="M66,104.1c-2.1,2.9-5.3,4.6-8.9,5c-3.7,0.5-7.2-0.4-10.6-1.8c-3-1.3-6-2.9-9.3-3.3c-1.9-0.2-3.5,0.2-5.3,0.5
				c-1.2,0.2-3.1,0.2-3.4-1.3c-0.1-0.8,0.3-1.7,0.8-2.3c0.2-0.3-0.3-0.6-0.5-0.3c-1.4,1.9-1.2,4.2,1.4,4.6c1.8,0.2,3.5-0.6,5.3-0.6
				c1.8,0,3.5,0.4,5.2,1c3.2,1.1,6.1,2.9,9.4,3.8c2.8,0.8,5.8,0.8,8.6,0.2c3.1-0.7,5.9-2.4,7.8-5.1C66.7,104.1,66.2,103.8,66,104.1
				L66,104.1z"/>
		</g>
	</g>
</g>
<g>
	<g>
		<g>
			<path class="st0" d="M28,101.6c-1.4,3.5-2.5,7.1-3.2,10.8c-0.3,1.7-0.6,3.4-0.8,5.1c-0.1,1-0.6,2.9,0.4,3.6c0.8,0.6,2,0,2.7-0.5
				c1.5-1,2.8-2.1,4.4-2.9c1.6-0.8,3.4-1.4,5.2-1.8c1.6-0.3,3.2-0.5,4.6-1.2c1.6-0.8,2.6-2.4,4.1-3.5c1.8-1.3,4.2-1.4,6.4-1.4
				c0.4,0,0.4-0.6,0-0.6c-1.8,0-3.6,0-5.3,0.7c-1.6,0.7-2.7,2-4,3.2c-1.7,1.6-3.8,1.8-6,2.3c-1.8,0.4-3.6,1-5.3,1.9
				c-0.9,0.5-1.8,1-2.7,1.6c-0.7,0.5-1.4,1.2-2.1,1.6c-0.3,0.1-0.5,0.3-0.8,0.4c-0.9-0.3-1.3-0.8-1.1-1.5c0-0.4,0.1-0.9,0.1-1.3
				c0.1-1.2,0.3-2.4,0.5-3.7c0.7-4.3,1.9-8.5,3.5-12.5C28.7,101.4,28.2,101.2,28,101.6L28,101.6z"/>
		</g>
	</g>
</g>
<g>
	<g>
		<g>
			<path class="st0" d="M28.3,102.7c0.6-2.4,3-3.1,5.1-3.6c2.3-0.5,4.6-1,6.9-0.8c0.4,0,0.4-0.6,0-0.6c-2.8-0.2-5.7,0.4-8.4,1.2
				c-1.9,0.6-3.8,1.6-4.3,3.7C27.6,102.9,28.2,103.1,28.3,102.7L28.3,102.7z"/>
		</g>
	</g>
</g>
<g>
	<g>
		<g>
			<path class="st0" d="M65.4,33.5c0.6,1,0.4,1.4-0.6,1.1c-0.6-0.2-0.9-0.6-1.1-1.1c-0.2-0.7,0-1.4,0.4-1.9c0.3-0.4,1.1-1,1.7-0.8
				c0.7,1.1,0.5,1.2-0.6,0.3c-0.3-0.9-0.2-1.3,0.4-1c0.1-0.1,0.2-0.2,0.3-0.3c-0.5,0-0.9-0.2-1.1-0.6c-0.3-0.2-0.3-0.5,0.1-0.8
				c-0.2,0.3,0.3,0.7,0.5,0.3c0.5-0.9-0.7-1.7-1.3-0.9c-0.9,1.1,0.7,2.6,1.8,2.6c0.2,0,0.3-0.1,0.3-0.3c0-0.4-0.1-0.7-0.4-1
				c-0.1-0.1-0.3-0.1-0.4,0c-2.3,1.2,0,4.4,1.5,3c0.6-0.6,0.1-1.4-0.5-1.6c-1-0.4-2.3,0.1-2.9,0.9c-1.4,1.7,0.1,5.1,2.5,3.9
				c2.2-1.1-0.3-3.8-1.2-1.9C64.7,33.6,65.2,33.9,65.4,33.5L65.4,33.5z"/>
		</g>
	</g>
</g>
<g>
	<g>
		<g>
			<path class="st0" d="M61.7,31.4c-0.9-0.2-1.6-0.9-1.9-1.8c-0.3-1.1,0.2,0.1-0.3,0.6c-0.3,0.3-0.9,0.5-1.4,0.6c-1,0.2-1.9,0.1-3,0
				c-1.5-0.2-2.6,0.9-4.1,0.7c-0.3,0-0.5,0.2-0.3,0.4c0.7,1.4-1.4,1.4-2,1.4c0,0.2,0,0.4,0.1,0.6c-0.3,0.7-0.8,0.9-1.5,0.7
				c0,0.1,0.1,0.3,0.2,0.4c0.2-0.1,0.3-0.3,0.5-0.4c0.3-0.2,0-0.7-0.3-0.5c-0.3,0.2-0.5,0.3-0.7,0.6c-0.1,0.1,0,0.4,0.2,0.4
				c0.8,0.2,2.1,0,2.4-0.9c0.2-0.7-0.3-1.1-0.9-1c-0.3,0.1-0.3,0.6,0.1,0.6c1.3,0,3.4-0.5,2.6-2.3c-0.1,0.1-0.2,0.3-0.3,0.4
				c1.1,0.2,2.7,0,3.4-1c0.5-0.7,0.2-1.5-0.7-1.3c-0.1,0-0.2,0.2-0.2,0.3c0.1,2.2,4.4,1.6,5.7,1c0.7-0.3,1.4-0.8,1.4-1.6
				c0-0.8-0.5-1.3-1.2-1.3c-0.1,0-0.3,0.1-0.3,0.2c-0.2,1.7,0.8,3.2,2.4,3.6C61.9,32,62.1,31.4,61.7,31.4L61.7,31.4z"/>
		</g>
	</g>
</g>
<g>
	<g>
		<g>
			<path class="st0" d="M67.4,30c0.1-0.9,0.6-1.7,1.5-2c0.4-0.1,0.8-0.1,1.2,0c0.4,0.1,0.7,0.3,0.8,0.8c0,0.2,0.1,0.3,0.1,0.5
				c0.9-1.1,2.3-0.9,3,0.2c0.1,0.1,0.3,0.2,0.4,0.1c1-0.8,2.2-0.1,2.1,1.1c0,0.2,0.3,0.4,0.5,0.3c0.4,0.1,0.9,0.3,1.3,0.4
				c-0.1,0.3,0.3,0.5,0.5,0.3c0.8-0.8,2-0.6,2.6,0.3c0.2,0.3,0.7,0,0.5-0.3c-0.8-1.3-2.5-1.5-3.5-0.5c0.2,0.1,0.3,0.2,0.5,0.3
				c0.5-1.5-1.3-1.6-2.2-1.1c0.1,0.1,0.3,0.2,0.5,0.3c0.1-1.7-1.6-2.7-3-1.6c0.1,0,0.3,0.1,0.4,0.1c-0.9-1.5-2.8-1.7-4-0.4
				c-0.1,0.2-0.1,0.4,0.1,0.5c0.4,0.1,0.8,0,0.9-0.5c0.1-0.7-0.9-1.2-1.4-1.4c-1.8-0.5-3.3,0.8-3.5,2.5C66.8,30.4,67.4,30.4,67.4,30
				L67.4,30z"/>
		</g>
	</g>
</g>
<g>
	<g>
		<g>
			<path class="st0" d="M45.2,36c0-2.4,1.5-4.3,3.1-5.9c1.4-1.3,3.5-3.6,5.6-2.6c0.1,0.1,0.3,0,0.4-0.1c0.3-0.6,1.6-2.6,2.2-1.1
				c0.1,0.2,0.3,0.3,0.5,0.1c0.5-0.4,1.2-0.7,1.9-0.6c0.4,0.1,0.7,0.3,1.1,0.4s0.8,0.1,1.1-0.1c0.8-0.3,1.4-0.9,2.3-1.1
				c1.2-0.3,2.3,0,3.3,0.8c0.3,0.2,0.6,0,0.5-0.4c-0.1-0.3-0.5-0.6-0.8-0.8c-0.2-0.1-0.5,0.2-0.3,0.4c0.2,0.2,0.4,0.5,0.7,0.7
				c0.2,0.2,0.5,0,0.5-0.2c0-0.5-0.2-1.8-1-1.5c-0.9,0.3,0.1,1.4,0.5,1.8c0.2,0.2,0.5,0,0.5-0.2c0-1.5,2-1.1,3-1.1
				c1.2,0.1,4.9,0,5,1.7c0,0.2,0.2,0.3,0.4,0.3c0.7-0.1,1.3-0.1,2,0.2c0.4,0.1,0.5-0.4,0.2-0.6c-0.8-0.3-1.5-0.3-2.3-0.2
				c0.1,0.1,0.3,0.2,0.4,0.3c-0.2-2.3-3.9-2.2-5.6-2.3c-1.4-0.1-3.6-0.2-3.6,1.7c0.2-0.1,0.3-0.1,0.5-0.2c-0.1-0.1-0.5-0.7-0.7-0.6
				c0,0,0.1,0.8,0.1,0.8c0.2-0.1,0.3-0.1,0.5-0.2c-0.2-0.1-0.4-0.4-0.6-0.6c-0.1,0.1-0.2,0.3-0.3,0.4c0.1,0,0.4,0.3,0.4,0.5
				c0.2-0.1,0.3-0.2,0.5-0.4c-1.4-1.2-3.3-1.4-5-0.5c-0.8,0.4-1.3,0.9-2.3,0.6c-0.3-0.1-0.6-0.3-0.9-0.3c-0.9-0.1-1.7,0.3-2.3,0.8
				c0.2,0,0.3,0.1,0.5,0.1c-0.3-0.7-0.8-1-1.6-0.9c-0.9,0.1-1.4,1-1.8,1.8c0.1,0,0.3-0.1,0.4-0.1c-2.2-1.1-4.3,0.8-5.8,2.3
				c-2,1.8-3.8,4-3.8,6.8C44.6,36.4,45.2,36.4,45.2,36L45.2,36z"/>
		</g>
	</g>
</g>
<g>
	<g>
		<g>
			<path class="st0" d="M46,27c0.1-0.3,0.6-0.3,0.6,0.1c0,0.2-0.2,0.3-0.3,0.3c-0.2,0-0.4-0.3-0.3-0.5c0.1-0.4-0.5-0.5-0.6-0.2
				c-0.1,0.5,0.2,1.1,0.7,1.2c0.5,0.1,1-0.2,1.1-0.7c0.1-0.5-0.1-0.9-0.7-1c-0.5-0.1-1,0.2-1.1,0.7C45.3,27.2,45.9,27.4,46,27L46,27
				z"/>
		</g>
	</g>
</g>
<g>
	<g>
		<g>
			<path class="st0" d="M53.4,22.8c0-0.1,0.1-0.1,0.2-0.1c0.1,0,0.1,0.1,0.1,0.2c0,0.4-0.5,0.3-0.7,0.1c-0.3-0.3-0.7,0.2-0.4,0.4
				c0.3,0.3,0.8,0.4,1.2,0.2c0.4-0.2,0.6-0.6,0.5-1c-0.1-0.4-0.5-0.7-0.9-0.6s-0.7,0.5-0.6,0.9C52.9,23.4,53.4,23.2,53.4,22.8
				L53.4,22.8z"/>
		</g>
	</g>
</g>
<g>
	<g>
		<g>
			<path class="st0" d="M62,21.3C62,21.3,62,21.3,62,21.3c0-0.1,0.1-0.2,0.1-0.2c0,0,0.1,0,0.1,0c0,0,0.1,0,0.1,0c0,0,0,0.1,0,0.2
				c0,0-0.1,0.1-0.1,0.1C62.2,21.4,62.1,21.4,62,21.3c-0.3-0.1-0.6,0.4-0.2,0.6c0.7,0.4,1.5-0.6,1-1.2c-0.5-0.6-1.6,0-1.4,0.8
				C61.5,21.9,62.1,21.7,62,21.3L62,21.3z"/>
		</g>
	</g>
</g>
<g>
	<g>
		<g>
			<path class="st0" d="M71.6,21.9c0-0.2,0.2-0.4,0.4-0.4s0.4,0.3,0.4,0.5c0.1-0.1,0.1-0.2,0.2-0.3c-0.2,0-0.4,0-0.7,0
				c-0.4-0.1-0.5,0.5-0.2,0.6c0.3,0.1,0.7,0.1,1,0c0.1,0,0.2-0.2,0.2-0.3c0-0.5-0.4-1-0.9-1.1c-0.5,0-1,0.3-1.1,0.9
				C70.9,22.2,71.5,22.3,71.6,21.9L71.6,21.9z"/>
		</g>
	</g>
</g>
<g>
	<g>
		<g>
			<path class="st0" d="M78.5,24.2c0.1-0.2,0.5-0.4,0.6-0.1c0,0,0,0.1,0,0.1c0,0,0,0.1-0.1,0.1s-0.1,0-0.1,0c0,0,0-0.1,0,0
				c0-0.2,0-0.3-0.2-0.4c-0.1,0-0.3,0-0.4,0.2c-0.1,0.4,0.2,0.8,0.6,0.8c0.4,0.1,0.8-0.2,0.8-0.7c0-0.4-0.2-0.8-0.6-0.9
				c-0.5-0.1-0.9,0.1-1.1,0.5C77.8,24.2,78.3,24.5,78.5,24.2L78.5,24.2z"/>
		</g>
	</g>
</g>
<g>
	<g>
		<g>
			<path class="st0" d="M46,31.1c-0.8,0.6-1.7,0.3-2.4-0.4c-0.2-0.2-0.4-0.5-0.6-0.8c-0.1-0.2-0.2-0.4-0.3-0.6
				c-0.2-0.3-0.2-0.6,0.2-0.9c0.1-0.1,0.2-0.3,0.3-0.5c-1.3-0.1-1.6-1.5-1.1-2.5c0.4-0.8,1-1.2,1.9-1.1c0.6,0.1,0.8,0,1.4-0.2
				c0.8-0.3,1.3-0.2,2,0.1c0.8,0.4,1.3,0.1,1.7,1.3c0.1,0.2,0,0.5,0.1,0.7c0,0,0.6,0.7,0.6,0.7c-0.4,0-0.4,0.6,0,0.6
				c0.4,0,0.7-0.3,0.6-0.7c0-0.3-0.2-0.4-0.3-0.6c-0.3-0.5-0.3-0.9-0.5-1.5c-0.4-0.9-1.2-0.8-1.9-1.1c-0.8-0.3-1.2-0.7-2-0.4
				c-0.6,0.2-0.9,0.5-1.6,0.4c-0.3,0-0.4-0.1-0.8-0.1c-0.8,0.2-1.5,1-1.8,1.7c-0.7,1.4,0.1,3.1,1.7,3.2c0.2,0,0.4-0.3,0.3-0.5
				c-0.3-0.4-0.8-0.5-1.2-0.2c-0.6,0.5-0.3,1.3,0,1.9c0.7,1.5,2.4,3.1,4,1.9C46.6,31.3,46.3,30.8,46,31.1L46,31.1z"/>
		</g>
	</g>
</g>
<g>
	<g>
		<g>
			<path class="st0" d="M48.3,23.7c-0.1-0.8,0-1.5,0.4-2.2c0.1-0.2,0.4-0.6,0.6-0.8c0.2-0.1,0.5-0.1,0.7-0.2c0,0,0.1,0.1,0.2,0.1
				c0.8,0.1,1.1-0.4,1.8-0.8c0.8-0.5,1.2-0.5,2-0.2c0.2,0.1,0.5,0.1,0.8,0.2c1.1,0.5,1.3,1.2,1.8,2.1c0.3,0.7,1.3,2,0.3,2.6
				c-0.3,0.2,0,0.7,0.3,0.5c1.6-0.9,0.2-2.9-0.4-4c-0.3-0.7-0.7-1.4-1.4-1.7c-0.5-0.2-0.9-0.2-1.3-0.5c-0.2-0.1-0.3-0.2-0.6-0.3
				c-0.8-0.1-1.7,0.6-2.3,1c-0.2,0.1-0.4,0.4-0.6,0.4c-0.2,0-0.1-0.1-0.3-0.2c-0.2,0-0.3-0.1-0.5-0.1c-1.6,0.1-2.2,2.8-2.1,4
				C47.8,24.1,48.4,24.1,48.3,23.7L48.3,23.7z"/>
		</g>
	</g>
</g>
<g>
	<g>
		<g>
			<path class="st0" d="M56.6,20.1c0.4-0.7,1-1.3,1.7-1.7c0.3-0.2,0.7-0.3,1-0.4c0.6-0.2,0.7,0,1.1,0.2c0.3,0.2,0.1,0.3,0.6,0.3
				c0.5,0,1.1-0.3,1.6-0.5c1-0.3,1.3,0.1,2,0.7c0.3,0.3,0.8,0.3,1.1,0.6c0.7,0.6,0.3,1.4,0.4,2.1c0.2,0.9,1.2,1.7,0,2.5
				c-0.3,0.2,0,0.7,0.3,0.5c0.5-0.3,0.9-0.8,0.9-1.5c0-0.3-0.1-0.6-0.2-0.9c-0.2-0.5-0.3-0.9-0.3-1.4c0-0.2,0.1-0.4,0.1-0.6
				c0-0.6-0.2-1-0.8-1.2c-0.5-0.3-0.8-0.5-1.2-0.9c-0.2-0.2-0.3-0.4-0.6-0.5c-0.8-0.4-1.6,0-2.3,0.3c-0.5,0.2-0.7,0.2-1.1,0
				c-0.3-0.2-0.2-0.3-0.6-0.4c-1.6-0.4-3.4,1.3-4.2,2.5C55.9,20.1,56.4,20.4,56.6,20.1L56.6,20.1z"/>
		</g>
	</g>
</g>
<g>
	<g>
		<g>
			<path class="st0" d="M67.1,18.8c0.3-0.3,0.6-0.7,1-0.9c0.7-0.4,0.9-0.2,1.8,0.1c0.3,0.1,0.4,0.2,0.8,0.1c0.7-0.1,1.3-0.7,2.1-0.8
				c1-0.1,1.4,0.6,2.3,0.8c0.5,0.2,1.2,0.1,1.1,0.9c0,0.4-0.3,0.7-0.2,1.1c0.1,0.4,0.4,0.5,0.4,0.9c0,0.6-0.4,2.4-0.9,2.5
				c-0.4,0-0.2,0.6,0.2,0.6c0.6-0.1,1-0.6,1.1-1.2c0.1-0.5,0-1,0.1-1.5c0-0.3,0.2-0.6,0.1-0.9c-0.1-0.3-0.4-0.6-0.4-0.9
				c0-0.3,0.3-0.6,0.3-1c0-0.5-0.2-0.8-0.7-0.9c-0.5-0.2-0.9-0.2-1.4-0.4c-0.4-0.2-0.8-0.5-1.2-0.6c-0.9-0.2-1.6,0.2-2.5,0.5
				c-0.7,0.2-0.8,0-1.4-0.1c-0.3-0.1-0.5-0.1-0.8-0.1c-0.9,0-1.6,0.7-2.2,1.3C66.4,18.7,66.8,19.1,67.1,18.8L67.1,18.8z"/>
		</g>
	</g>
</g>
<g>
	<g>
		<g>
			<path class="st0" d="M77.6,20.2c0.9-1.3,2.6-0.8,2.7,0.8c0,0.2,0.2,0.3,0.4,0.3c0.8-0.1,1.1-0.2,1.5,0.4s0.1,0.4,0.3,0.9
				c0.1,0.3,0.2,0.5,0.4,0.8c0.4,0.4,0.8,0.7,1,1.3c0.1,0.4,0.8,2.5,0.2,2.5c-0.4,0-0.4,0.6,0,0.6c0.6,0,1-0.5,1.1-1.1
				c0-0.7-0.4-1.2-0.6-1.8c-0.1-0.4-0.1-0.8-0.4-1.2c-0.5-0.7-0.9-0.6-1.1-1.6c-0.1-0.4,0-0.7-0.2-1c-0.6-0.8-1.6-0.6-2.4-0.5
				c0.1,0.1,0.3,0.2,0.4,0.3c-0.1-2.2-2.6-2.8-3.8-1.1C76.8,20.2,77.4,20.5,77.6,20.2L77.6,20.2z"/>
		</g>
	</g>
</g>
<g>
	<g>
		<g>
			<path class="st0" d="M42.2,23.7c0,0.1,0,0.1,0.1,0.2c0.1,0.4,0.6,0.2,0.6-0.2c-0.2-1.6-0.6-3.4,0.2-4.9c0.7-1.2,1.8-2,3.1-2.3
				c1.9-0.5,4.1-0.1,6-0.9c1-0.4,1.5-1.5,2.5-2c0.8-0.4,1.5-0.3,2.2,0.3c0.2,0.2,0.3,0.5,0.6,0.6c0.2,0.1,0.4,0.2,0.6,0.2
				c0.8,0,1.5-0.9,2-1.3c0.2-0.2,0.7-0.7,0.9-0.7c0,0,0.1,0.1,0.2,0.1c0.4,0.1,0.6,0.1,0.6,0.7c0,0.2,0.3,0.4,0.5,0.3
				c0.2-0.2,0.3-0.2,0.4-0.4c0.1-0.1,0-0.3,0-0.4l0,0c-0.1-0.1-0.3-0.1-0.4,0c-0.2,0.1-0.3,0.2-0.4,0.5c-0.2,0.3,0.2,0.5,0.4,0.4
				c1.6-0.7,1.1,1.1,2.1,1.2c0.4,0,0.8-0.2,1-0.4c0.5-0.4,0.8-1.1,1.4-1.4c1.1-0.5,2.1,0.6,3,1.1c0.9,0.5,1.8,0.7,2.6-0.1
				c0.4-0.4,0.7-1,1.2-1.3c1.5-0.9,3,0.7,2.5,2.2c0,0.2,0.1,0.5,0.4,0.4c2.3-0.8,4.5,0.7,6.5,1.6c1.5,0.7,2.9,1.7,4.1,3
				c1.2,1.3,2,2.9,2.6,4.5c0.3,0.8,0.5,1.8,0.6,2.7c0.1,1.2-0.3,2.4-0.5,3.6c0,0.1,0,0.2,0.1,0.3c1,0.8,1.4,1.8,0.8,3
				c-0.2,0.3,0.4,0.7,0.5,0.3c0.5-1,0.5-1.9-0.1-2.9c-0.4-0.6-0.7-0.7-0.6-1.5c0.1-0.6,0.3-1.3,0.4-1.9c0.2-2.3-0.8-5-2-6.9
				c-1.2-1.9-2.9-3.5-4.9-4.5c-2.2-1.2-5-2.9-7.6-2c0.1,0.1,0.2,0.2,0.4,0.4c0.4-1.5-0.5-3.1-2.2-3.1c-0.8,0-1.4,0.3-1.9,0.8
				c-0.3,0.3-0.5,0.7-0.8,0.9c-0.7,0.6-1.3,0.4-2-0.1c-1.5-0.9-2.7-1.9-4.2-0.4c-0.3,0.3-0.8,1-1.2,0.9c-0.3-0.1-0.4-0.4-0.6-0.7
				c-0.6-0.5-1.3-0.6-2-0.3c0.1,0.1,0.3,0.3,0.4,0.4c-0.1-0.1-0.3-0.3-0.4-0.4c0.1,0.1,0.3,0.2,0.5,0.3c0-0.8-0.2-1.1-1-1.2
				c-0.9-0.2-1.4,0.4-2.1,1c-0.3,0.2-0.6,0.6-0.9,0.7c-0.7,0.1-0.8-0.3-1.2-0.7c-0.4-0.4-0.8-0.7-1.4-0.8c-1.4-0.1-2.2,1.6-3.2,2.2
				c-1.2,0.8-3,0.7-4.4,0.8c-1.1,0.1-2.3,0.3-3.3,0.8c-3,1.6-2.8,4.5-2.4,7.4c0.2,0,0.4-0.1,0.6-0.2c0-0.1,0-0.1-0.1-0.2
				C42.7,23.1,42.1,23.3,42.2,23.7L42.2,23.7z"/>
		</g>
	</g>
</g>
<g>
	<g>
		<g>
			<path class="st0" d="M38,47.8c-0.5,0.7-0.6,1.6-0.6,2.4c-0.1,1.6,0,3.1,0,4.7c0,1.6,0,3.3-0.4,4.9c-0.3,1.2-1.1,2.2-1,3.4
				c0,0.4,0.6,0.4,0.6,0c0-1.2,0.7-2.2,1-3.3c0.3-1.2,0.5-2.4,0.5-3.7s0-2.5-0.1-3.8c0-1.2-0.3-3.2,0.5-4.2
				C38.7,47.9,38.3,47.5,38,47.8L38,47.8z"/>
		</g>
	</g>
</g>
<g>
	<g>
		<g>
			<path class="st0" d="M36.2,77.4c-0.2,0.7-0.5,1.4-0.3,2.2c0.1,0.6,0.4,1.1,0.5,1.7c0,0.5,0,1,0,1.5c0,2.1,0.2,4.1,0.6,6.1
				c0,0.2,0.3,0.3,0.4,0.2c1.1-0.7,1.9-1.6,2.4-2.9c0.1-0.4-0.5-0.5-0.6-0.2c-0.4,1.1-1.1,1.9-2.1,2.5c0.1,0,0.3,0.1,0.4,0.2
				c-0.4-1.9-0.6-3.9-0.6-5.9c0-0.8,0.1-1.5-0.1-2.3c-0.1-0.4-0.3-0.8-0.4-1.2c-0.1-0.7,0-1.2,0.3-1.9
				C36.9,77.3,36.3,77.1,36.2,77.4L36.2,77.4z"/>
		</g>
	</g>
</g>
<g>
	<g>
		<g>
			<path class="st0" d="M90.6,34.1c0,0.8,0,1.7,0.2,2.5c0.3,1,0.6,2,0.8,3c0.6,2.2,1.1,4.3,1.2,6.6c0,2-0.8,3.9-0.4,5.9
				c0.2,0.9,0.6,1.8,0.9,2.6c0.4,1.2,0.3,2.4,0,3.6c-1,4.2-1.5,8.3-0.5,12.6c1.1,4.5-0.7,9.2-1.3,13.6c0,0.3,0.5,0.4,0.6,0.1
				c0.1-0.4,0.4-1,0.3-1.5c0-0.3-0.4-0.3-0.6-0.1c-0.2,0.3-0.2,1-0.3,1.4c-0.1,0.4,0.5,0.5,0.6,0.2c0.3-0.8-0.2-1.6-0.9-2
				c-0.7-0.3-1.4-0.3-2.1-0.4c-0.4-0.1-0.9-0.2-1.2-0.4c-0.7-0.4-0.5-1.1-0.5-1.8c0-0.8-0.2-1.5-0.4-2.2c-0.2-1.1-0.3-2.2-0.4-3.3
				c-0.1-2,0-4,0.2-6.1c0.4-4.2,1.2-8.2,2-12.3c0.7-3.7,1.2-7.4,0.9-11.2c-0.3-3.9-1.4-7.8-3.2-11.3c-0.2-0.3-0.7,0-0.5,0.3
				c3.6,6.8,3.7,14.3,2.3,21.7c-1.4,7.2-3.2,14.7-1.9,22c0.1,0.5,0.3,1.1,0.3,1.6c0.1,0.5-0.1,1-0.1,1.5c0,0.6,0.2,0.9,0.6,1.3
				c0.9,0.7,4.8,0.7,4.3,2.3c0.2,0,0.4,0.1,0.6,0.2c0-0.3,0-0.9,0.3-1.2c-0.2,0-0.4,0-0.6-0.1c0.1,0.3-0.2,0.9-0.3,1.1
				c0.2,0,0.4,0,0.6,0.1c0.3-2.4,0.8-4.8,1.2-7.2c0.3-1.9,0.7-3.8,0.2-5.7c-0.5-2.4-1-4.6-0.8-7.1c0.1-1.2,0.2-2.5,0.5-3.7
				c0.2-1.1,0.7-2.3,0.8-3.4c0.2-1.8-0.4-3.2-1-4.9c-0.7-2.2,0.2-4.2,0.2-6.4c0-2-0.4-4-0.9-5.9c-0.3-1-0.6-2-0.8-2.9
				c-0.3-1.1-0.3-2.1-0.4-3.2C91.2,33.7,90.6,33.7,90.6,34.1L90.6,34.1z"/>
		</g>
	</g>
</g>
<g>
	<g>
		<g>
			<path class="st0" d="M47.5,99.2c-0.4-2.3-1-4.4-1.9-6.6c-0.1-0.4-0.7-0.2-0.6,0.2c0.8,2.1,1.5,4.3,1.9,6.6
				C47,99.7,47.6,99.5,47.5,99.2L47.5,99.2z"/>
		</g>
	</g>
</g>
<g>
	<g>
		<g>
			<path class="st0" d="M50.5,99.3c-0.1-1-0.2-2-0.3-3.1c0-0.4-0.7-0.4-0.6,0c0.1,1,0.2,2,0.3,3.1C49.9,99.6,50.5,99.6,50.5,99.3
				L50.5,99.3z"/>
		</g>
	</g>
</g>
<g>
	<g>
		<g>
			<path class="st0" d="M40.3,97.7c-1.8,1.1-1.4,3.8,0.7,4.3c0.4,0.1,0.5-0.5,0.2-0.6c-1.5-0.4-1.9-2.3-0.6-3.1
				C41,98,40.7,97.5,40.3,97.7L40.3,97.7z"/>
		</g>
	</g>
</g>
<g>
	<g>
		<g>
			<path class="st0" d="M35.1,63.3c-0.6,0-1.1,0.2-1.5,0.5c0.1,0.1,0.2,0.1,0.3,0.2c0.3-0.3,0.8-0.4,1.2-0.4c1.1,0,2,0.9,2,2
				s-0.9,2-2,2c-0.6,0-1.2-0.3-1.5-0.8c0,0.1-0.1,0.1-0.1,0.2c0,0,0,0,0,0.1c0.4,0.5,1.1,0.8,1.8,0.8c1.3,0,2.3-1,2.3-2.3
				C37.4,64.3,36.4,63.3,35.1,63.3z"/>
		</g>
	</g>
	<g>
		<g>
			<path class="st0" d="M36.2,65.7c0.4,0,0.7-0.3,0.7-0.7s-0.3-0.7-0.7-0.7c-0.4,0-0.7,0.3-0.7,0.7S35.8,65.7,36.2,65.7z M35.9,64.5
				c0.1,0,0.2,0.1,0.2,0.2c0,0.1-0.1,0.2-0.2,0.2c-0.1,0-0.2-0.1-0.2-0.2C35.7,64.6,35.8,64.5,35.9,64.5z"/>
		</g>
	</g>
</g>
<g>
	<path class="st0" d="M32,68c-1.3,0-2.3-1-2.3-2.3s1-2.3,2.3-2.3c1.3,0,2.3,1,2.3,2.3S33.3,68,32,68z M32,63.7
		c-1.1,0-1.9,0.9-1.9,1.9s0.9,1.9,1.9,1.9c1.1,0,1.9-0.9,1.9-1.9S33.1,63.7,32,63.7z"/>
</g>
<g>
	<path class="st0" d="M33.1,65.8c0.4,0,0.7-0.3,0.7-0.7s-0.3-0.7-0.7-0.7s-0.7,0.3-0.7,0.7C32.4,65.5,32.7,65.8,33.1,65.8z
		 M32.8,64.6c0.1,0,0.2,0.1,0.2,0.2c0,0.1-0.1,0.2-0.2,0.2c-0.1,0-0.2-0.1-0.2-0.2C32.6,64.7,32.7,64.6,32.8,64.6z"/>
</g>
<g>
	<g>
		<g>
			<path class="st0" d="M33.8,67.8c1.4-0.3,2.3,1.1,2.9,2.1c0.1-0.1,0.3-0.3,0.4-0.4c-1.2-0.5-2.4-1-3.6-1.5
				c-0.4-0.1-0.7,0.4-0.3,0.5c1.2,0.5,2.4,1,3.6,1.5c0.3,0.1,0.6-0.1,0.4-0.4c-0.8-1.3-1.9-2.7-3.6-2.4
				C33.3,67.3,33.5,67.8,33.8,67.8L33.8,67.8z"/>
		</g>
	</g>
</g>
<g>
	<g>
		<g>
			<path class="st0" d="M35.8,69.3c-0.9-0.3-3.3,0-3.2-1.4c0-0.4-0.6-0.4-0.6,0c-0.1,1.9,2.5,1.6,3.6,2C36.1,70,36.2,69.4,35.8,69.3
				L35.8,69.3z"/>
		</g>
	</g>
</g>
<g>
	<g>
		<g>
			<path class="st0" d="M34.9,63c-1.1-0.3-1.7-1.5-1.2-2.5c0.1-0.3-0.2-0.6-0.5-0.4c-0.6,0.6-0.9,1.2-1,2c0.1-0.1,0.3-0.2,0.5-0.3
				c-0.4-0.2-0.8-0.4-1.4-0.4c-0.2,0-0.3,0.1-0.3,0.3c0,0.2,0,0.4,0,0.5c0.1-0.1,0.3-0.2,0.5-0.3c-0.6-0.3-1.2-0.4-1.8-0.3
				c-0.2,0-0.3,0.4-0.1,0.5c0.2,0.2,0.4,0.4,0.6,0.6c0.3,0.3,0.7-0.1,0.4-0.4c-0.2-0.2-0.4-0.4-0.6-0.6c0,0.2-0.1,0.3-0.1,0.5
				c0.5-0.1,1,0,1.4,0.2c0.2,0.1,0.4,0,0.5-0.3c0-0.2,0-0.4,0-0.5c-0.1,0.1-0.2,0.2-0.3,0.3c0.4,0,0.7,0,1,0.3
				c0.2,0.1,0.4,0,0.5-0.3c0.1-0.7,0.4-1.1,0.8-1.6c-0.2-0.1-0.3-0.2-0.5-0.4c-0.7,1.4,0,3,1.5,3.4C35.1,63.7,35.3,63.1,34.9,63
				L34.9,63z"/>
		</g>
	</g>
</g>
<g>
	<g>
		<g>
			<path class="st0" d="M27.2,71.2c0.8,1.5,2.3,2.3,3.9,2.4c1.2,0.1,2.7,0,3.1-1.3c0.1-0.4-0.5-0.5-0.6-0.2c-0.3,1-1.9,0.9-2.8,0.8
				c-1.4-0.1-2.5-0.8-3.2-2.1C27.5,70.5,27,70.8,27.2,71.2L27.2,71.2z"/>
		</g>
	</g>
</g>
<g>
	<g>
		<g>
			<path class="st0" d="M29.9,62.5c-1,0.6-1.7,1.5-2.3,2.5c-0.2,0.3,0.3,0.7,0.5,0.3c0.5-0.9,1.2-1.7,2.1-2.3
				C30.5,62.8,30.2,62.3,29.9,62.5L29.9,62.5z"/>
		</g>
	</g>
</g>
<g>
	<g>
		<g>
			<path class="st0" d="M35.5,69.8c0.2,0.5,0.1,1-0.1,1.5c-0.1,0.4,0.4,0.5,0.6,0.2c0.2-0.6,0.3-1.2,0.1-1.8
				C36,69.2,35.4,69.4,35.5,69.8L35.5,69.8z"/>
		</g>
	</g>
</g>
<g>
	<g>
		<g>
			<path class="st0" d="M28.3,72.6c-3,4.8-4.1,10.6-2.9,16.1c0,0.3,0.4,0.3,0.6,0.1c0.7-1.1,1.1-2.3,1.5-3.6c-0.2,0-0.4,0-0.6,0
				c0.1,0.4,0.3,0.8,0.4,1.3c0.1,0.3,0.4,0.3,0.6,0.1c0.2-0.3,0.5-0.7,0.7-1c-0.2,0-0.3,0-0.5,0.1c0.2,0.2,0.4,0.5,0.6,0.7
				c0.1,0.1,0.3,0.1,0.4,0c0.3-0.4,0.5-0.7,0.7-1.1c-0.2,0-0.4,0-0.6-0.1c0,0.5,0.5,0.9,1.1,0.7c0.8-0.4,0.4-1.6,0.4-2.2
				c-0.2,0-0.4,0-0.6,0.1c0.2,1.1,1.9,1.6,1.7,2.7c0,0.3,0.3,0.4,0.5,0.2c3.9-3.9-1.4-9.1-1.4-13.3c0-0.4-0.6-0.4-0.6,0
				c0,2.1,0.8,3.9,1.7,5.8c1,2.3,1.9,5.1-0.1,7.1c0.2,0.1,0.3,0.1,0.5,0.2c0.2-1.4-1.5-1.6-1.8-2.9c-0.1-0.3-0.6-0.2-0.6,0.1
				c0,0.1,0,0.3,0,0.4c0.1,0.4,0,0.8-0.2,1.2c0-0.3-0.5-0.4-0.6-0.1c-0.2,0.3-0.3,0.6-0.5,0.8c0.1,0,0.3,0,0.4,0
				c-0.2-0.2-0.4-0.5-0.6-0.7c-0.1-0.1-0.4-0.1-0.5,0.1c-0.2,0.3-0.5,0.7-0.7,1c0.2,0,0.4,0,0.6,0.1c-0.1-0.4-0.3-0.8-0.4-1.3
				c-0.1-0.3-0.5-0.3-0.6,0c-0.3,1.2-0.8,2.3-1.4,3.4c0.2,0,0.4,0,0.6,0.1c-1.2-5.4-0.1-11,2.8-15.7C29,72.6,28.5,72.3,28.3,72.6
				L28.3,72.6z"/>
		</g>
	</g>
</g>
<g>
	<g>
		<g>
			<path class="st0" d="M29.1,72.9c-0.7,1.5-1.1,3-1.3,4.5c0,0.2,0.3,0.2,0.3,0c0.2-1.5,0.6-3,1.3-4.4
				C29.5,72.9,29.2,72.8,29.1,72.9L29.1,72.9z"/>
		</g>
	</g>
</g>
<g>
	<g>
		<g>
			<path class="st0" d="M29.6,73.5c0,1.1,0,2.3,0,3.4c0,0.2,0.3,0.2,0.3,0c0-1.1,0-2.3,0-3.4C29.9,73.3,29.6,73.3,29.6,73.5
				L29.6,73.5z"/>
		</g>
	</g>
</g>
<g>
	<g>
		<g>
			<path class="st0" d="M34.3,71.8c0.4,0.1,0.6,0.5,0.4,0.8c0,0.1,0,0.2,0,0.2c0.3,0.2,0.7,0,0.8-0.4c0.2-0.5-0.2-0.9-0.5-1.2
				c-0.1-0.1-0.4,0.1-0.2,0.2c0.2,0.2,0.4,0.4,0.4,0.6c0,0.2-0.1,0.6-0.4,0.5c0,0.1,0,0.1,0,0.2c0.3-0.5,0-1.2-0.5-1.3
				C34.2,71.4,34.2,71.7,34.3,71.8L34.3,71.8z"/>
		</g>
	</g>
</g>
<g>
	<g>
		<g>
			<path class="st0" d="M35.5,72.8c0.5-0.4,0.5-1.2,0.1-1.7c-0.1-0.1-0.3,0.1-0.2,0.2c0.3,0.4,0.3,0.9-0.1,1.2
				C35.1,72.7,35.3,72.9,35.5,72.8L35.5,72.8z"/>
		</g>
	</g>
</g>
<g>
	<g>
		<g>
			<path class="st0" d="M32.7,73.1c-0.1,0.3-0.2,0.7,0,1c0.1,0.2,0.4,0.3,0.6,0.2c0.2-0.1,0.3-0.3,0.3-0.6c-0.1-0.3-0.3-0.5-0.3-0.8
				c0-0.2-0.3-0.2-0.3,0c0,0.2,0,0.3,0.1,0.5c0.1,0.1,0.2,0.3,0.2,0.4c0,0.2-0.2,0.1-0.3,0c-0.2-0.2,0-0.5,0-0.8
				C33.1,73,32.8,73,32.7,73.1L32.7,73.1z"/>
		</g>
	</g>
</g>
<g>
	<g>
		<g>
			<path class="st0" d="M31.7,73.3c-0.1,0.3,0,0.7,0.2,0.9s0.6,0.4,0.9,0.3c0.2,0,0.2-0.2,0.2-0.4c0-0.2-0.2-0.2-0.4-0.2
				c-0.3,0-0.4-0.3-0.3-0.5c0.1-0.1-0.1-0.3-0.2-0.4C31.9,73,31.8,73.1,31.7,73.3L31.7,73.3z"/>
		</g>
	</g>
</g>
<g>
	<g>
		<g>
			<path class="st0" d="M29.1,70.3c-1,0.2-2,0-2.9-0.5c-0.4-0.2-0.8-0.5-1.1-0.9c-0.2-0.2-0.3-0.4-0.5-0.7c-0.4-0.5-0.3-0.7,0.4-0.8
				c0.1,0.1,0.3,0,0.2-0.1c-0.2-0.5,0-0.9,0.6-1.2c0.1,0.1,0.3,0,0.2-0.1c0.2,0.1,0.4,0.1,0.7,0.2c0,0.1,0.2,0.1,0.2,0.1
				c0.6-0.5,0.9,0,1.4,0.4c0.7,0.6,1.5,1.4,0.8,2.4c-0.1,0.2,0.1,0.3,0.3,0.1c1.1-1.6-0.8-2.7-1.9-3.6c-0.1,0-0.1,0-0.2,0
				c-0.2,0.1-0.4,0.3-0.5,0.5c0.1,0,0.2,0,0.2,0.1c-0.1-0.4-0.4-0.9-0.9-0.7c-0.3,0.1-0.4,0.4-0.3,0.7c0.1,0,0.2-0.1,0.2-0.1
				c-0.3-0.3-0.7-0.3-1,0c-0.4,0.4-0.3,1-0.1,1.5c0.1,0,0.2-0.1,0.2-0.1c-0.3-0.3-0.8-0.7-1.1-0.3c-0.4,0.5,0.3,1.5,0.6,1.8
				c1,1.4,2.8,2,4.5,1.7C29.4,70.5,29.3,70.2,29.1,70.3L29.1,70.3z"/>
		</g>
	</g>
</g>
<g>
	<g>
		<g>
			<path class="st0" d="M28.8,70.4c-5.6,1-9.2-4.2-10.9-8.7c-0.1,0.1-0.3,0.2-0.4,0.3c1.4,0.9,2.7,2,4,3c0.2,0.2,0.6,0,0.5-0.3
				c-0.1-0.9-0.3-1.8-0.4-2.8c-0.2,0.1-0.3,0.2-0.5,0.3c0.8,0.8,1.6,1.5,2.4,2.2c0.1,0.1,0.5,0.1,0.5-0.1c0.1-0.4,0.1-0.8,0.2-1.3
				c-0.1,0-0.3,0.1-0.4,0.2c0.6,0.3,1.1,0.6,1.7,1c0.2,0.1,0.4,0.1,0.5-0.1c0.3-0.8,1.6,1.2,1.7,1.4c0.3,0.5,0.6,1,0.9,1.5
				c0.2,0.3,0.7,0,0.5-0.3c-0.3-0.6-2.9-5.3-3.7-2.7c0.2,0,0.3-0.1,0.5-0.1c-0.6-0.5-1.1-0.8-1.8-1.1c-0.2-0.1-0.4,0-0.4,0.2
				c-0.1,0.4-0.1,0.8-0.2,1.3c0.2,0,0.3-0.1,0.5-0.1c-0.8-0.8-1.6-1.5-2.4-2.2c-0.2-0.2-0.6,0-0.5,0.3c0.1,0.9,0.3,1.8,0.4,2.8
				c0.2-0.1,0.3-0.2,0.5-0.3c-1.4-1.1-2.7-2.2-4.2-3.1c-0.2-0.1-0.5,0.1-0.4,0.3C19.2,66.6,23,72,29,70.9
				C29.3,70.9,29.1,70.3,28.8,70.4L28.8,70.4z"/>
		</g>
	</g>
</g>
<g>
	<g>
		<g>
			<path class="st0" d="M28.4,64.1c-1.4-2.4-2.8-4.9-3-7.7c-0.2,0-0.4,0.1-0.6,0.1c0.4,0.7,0.9,1.4,1.3,2.2c0.1,0.2,0.3,0.2,0.5,0.1
				c0.4-0.4,0.8,0.4,1.3,0.5c0,0,0.1,0,0.1,0c0.3,0,0.3,0,0.6,0.2c0.3,0.2,0.3,0.3,0.7,0.3c0.1,0,0.2-0.1,0.3-0.1
				c0.1-0.2,0.3-0.5,0.4-0.7c-0.2,0-0.3,0-0.5,0.1c1,0.8,1.6,1.9,1.8,3.2c0,0.4,0.7,0.4,0.6,0c-0.2-1.5-0.8-2.7-2-3.6
				c-0.1-0.1-0.4-0.1-0.5,0.1c-0.4,0.8-0.4,0.1-0.9,0c-0.5-0.1-0.5,0.2-1-0.2c-0.6-0.5-0.8-0.6-1.4,0c0.2,0,0.3,0,0.5,0.1
				c-0.5-0.7-0.9-1.4-1.3-2.2c-0.1-0.2-0.6-0.1-0.6,0.1c0.2,3,1.6,5.5,3,8C28.1,64.7,28.6,64.4,28.4,64.1L28.4,64.1z"/>
		</g>
	</g>
</g>
<g>
	<g>
		<g>
			<path class="st0" d="M28.4,70.1c-0.6,0-1.2-0.1-1.6-0.5c-0.1-0.1-0.5-0.6-0.3-0.9c0.1-0.2,0.5,0.1,0.7,0.2c0.1,0,0.2,0,0.2-0.1
				c0.1-0.3,0.1-0.6,0-0.9c-0.1,0.1-0.1,0.1-0.2,0.2c0.3,0.2,0.7,0.2,1,0.1c-0.1,0-0.1-0.1-0.2-0.1c0,0.2,0.2,0.3,0.4,0.3
				c0.3,0,0.4,0,0.6,0.1c0.3,0.2,0.2,0.5,0.2,0.9c0,0.2,0.3,0.3,0.3,0.1c0.1-0.4,0.1-0.8-0.1-1.1c-0.1-0.1-0.2-0.2-0.4-0.2
				c-0.1,0-0.6,0-0.7-0.1c0-0.1-0.1-0.1-0.2-0.1c-0.3,0.1-0.5,0-0.8-0.1c-0.1-0.1-0.3,0.1-0.2,0.2c0.1,0.2,0.1,0.5,0,0.7
				c0.1,0,0.1,0,0.2-0.1c-0.3-0.2-0.5-0.3-0.8-0.4c-0.1,0-0.1,0-0.2,0.1c-0.3,0.5-0.2,1,0.2,1.4c0.5,0.5,1.2,0.6,1.9,0.6
				C28.6,70.4,28.6,70.1,28.4,70.1L28.4,70.1z"/>
		</g>
	</g>
</g>
<g>
	<g>
		<g>
			<path class="st0" d="M25.6,84.1c0-0.4,0.2-0.7,0.7-0.8c0.1,0.2,0.2,0.5,0.3,0.7c0,0.1,0.1,0.1,0.2,0.1c0.3-0.1,0.4-0.2,0.6-0.4
				c0,0,0.9-1.5,1-0.9c0,0.1,0.2,0.2,0.3,0.1c0.2-0.2,1.4-0.4,1.6-0.3c0.4,0.2,0.4,0.8,1,0.8s0.5-0.5,1,0.2c0.2,0.3,0.2,0.5,0.7,0.4
				c0.1,0,0.1-0.1,0.1-0.1c0-0.1,0.1-0.3,0.1-0.4c0.1-0.2-0.2-0.3-0.3-0.1c-0.4,0.8-0.3-0.5-0.8-0.7c-0.1,0-0.2,0-0.3,0
				c-0.1,0-0.1,0.2-0.2,0.2c-0.8,0.2-1,0-1.2-0.5c0-0.1-0.2-0.1-0.2,0c-0.5,0.5-1.3,0-1.7,0.6c0.1,0,0.2,0.1,0.3,0.1
				c0-0.3-0.2-0.6-0.6-0.5c-0.2,0-0.3,0.1-0.4,0.3c-0.1,0.1-0.1,0.3-0.2,0.5c-0.2,0.2-0.5,0.4-0.8,0.6c-0.1-0.2-0.2-0.5-0.3-0.7
				c0-0.1-0.1-0.1-0.2-0.1c-0.5,0.3-0.8,0.7-0.9,1.3C25.3,84.2,25.6,84.3,25.6,84.1L25.6,84.1z"/>
		</g>
	</g>
</g>
<g>
	<g>
		<g>
			<path class="st0" d="M67.4,89.3c-0.1,1.1,1.3,1.7,2,0.9c0.1-0.1-0.1-0.4-0.2-0.2c-0.6,0.7-1.6,0.2-1.5-0.7
				C67.7,89.1,67.4,89.1,67.4,89.3L67.4,89.3z"/>
		</g>
	</g>
</g>
<g>
	<g>
		<g>
			<path class="st0" d="M69.8,90.3c0.7,0.8,2.1,0.6,2.5-0.4c0.1-0.2-0.2-0.3-0.3-0.1c-0.4,0.8-1.5,0.9-2,0.3
				C69.9,90,69.7,90.2,69.8,90.3L69.8,90.3z"/>
		</g>
	</g>
</g>
<g>
	<g>
		<g>
			<path class="st0" d="M72.4,90.2c0.8,0.6,2,0.2,2.3-0.7c0-0.2-0.2-0.3-0.3-0.1c-0.2,0.7-1.2,1.1-1.8,0.6
				C72.5,89.9,72.2,90.1,72.4,90.2L72.4,90.2z"/>
		</g>
	</g>
</g>
<g>
	<g>
		<g>
			<path class="st0" d="M75,89.5c0.9,0,1.7-0.6,2-1.5c0-0.2-0.2-0.3-0.3-0.1c-0.2,0.8-0.9,1.3-1.7,1.3C74.8,89.2,74.8,89.5,75,89.5
				L75,89.5z"/>
		</g>
	</g>
</g>
<g>
	<g>
		<g>
			<path class="st0" d="M65.6,88.7c0,0.9,1.1,1.4,1.8,0.9c0.1-0.1-0.1-0.3-0.2-0.2c-0.5,0.4-1.3,0-1.3-0.7
				C65.9,88.5,65.6,88.5,65.6,88.7L65.6,88.7z"/>
		</g>
	</g>
</g>
<g>
	<g>
		<g>
			<path class="st0" d="M64.5,86.7c0.4,1,1.8,1.2,2.4,0.1c0.1-0.2-0.2-0.3-0.3-0.1c-0.4,0.8-1.5,0.8-1.8-0.1
				C64.8,86.5,64.5,86.6,64.5,86.7L64.5,86.7z"/>
		</g>
	</g>
</g>
<g>
	<g>
		<g>
			<path class="st0" d="M75.5,85.1c0.7,0.4,1.6-0.1,1.6-0.9c0-0.2-0.3-0.2-0.3,0c0,0.5-0.7,0.9-1.1,0.6C75.5,84.8,75.4,85,75.5,85.1
				L75.5,85.1z"/>
		</g>
	</g>
</g>
<g>
	<g>
		<g>
			<path class="st0" d="M65.9,84.7c-0.2,0.3,0,0.7,0.2,0.9c0.4,0.3,1,0,1.4-0.2c0.2-0.1,0-0.4-0.1-0.3c-0.3,0.1-0.6,0.4-0.9,0.3
				c-0.2-0.1-0.4-0.4-0.3-0.6C66.3,84.7,66.1,84.6,65.9,84.7L65.9,84.7z"/>
		</g>
	</g>
</g>
<g>
	<g>
		<g>
			<path class="st0" d="M66.4,99c-3.8,0.6-7.6,1.2-11.3,1.9c-0.2,0-0.1,0.3,0.1,0.3c3.8-0.6,7.6-1.2,11.3-1.9
				C66.6,99.2,66.6,98.9,66.4,99L66.4,99z"/>
		</g>
	</g>
</g>
<g>
	<g>
		<g>
			<path class="st0" d="M79.9,97.2c1.7-0.6,3.4-1.2,5.1-2c0.2-0.1,0-0.3-0.1-0.3c-1.6,0.8-3.3,1.4-5,2C79.7,97,79.7,97.3,79.9,97.2
				L79.9,97.2z"/>
		</g>
	</g>
</g>
<g>
	<g>
		<g>
			<path class="st0" d="M67.5,87.3c2.6-1,5.3-1.2,8-0.5c0.4,0.1,0.5-0.5,0.2-0.6c-2.8-0.8-5.7-0.6-8.3,0.5
				C67,86.9,67.2,87.5,67.5,87.3L67.5,87.3z"/>
		</g>
	</g>
</g>
<g>
	<g>
		<g>
			<path class="st0" d="M101.4,72.3c-0.4-1.7-0.5-3.4-0.6-5.2c0-0.2-0.3-0.2-0.3,0c0,1.8,0.2,3.5,0.6,5.3
				C101.1,72.6,101.4,72.5,101.4,72.3L101.4,72.3z"/>
		</g>
	</g>
</g>
<g>
	<g>
		<g>
			<path class="st0" d="M101.2,72.6c0.5-1.3,1.2-2.5,2.1-3.6c0.1-0.1-0.1-0.4-0.2-0.2c-0.9,1.1-1.6,2.3-2.1,3.7
				C100.9,72.7,101.1,72.8,101.2,72.6L101.2,72.6z"/>
		</g>
	</g>
</g>
<g>
	<g>
		<g>
			<path class="st0" d="M100.2,66c0,1.1,1.8,1.4,1.8,0.2c0-0.5-0.3-0.9-0.8-1c-0.6-0.1-1.1,0.4-1.3,1c0,0.2,0.2,0.3,0.3,0.1
				c0.1-0.4,0.5-0.9,1-0.8c0.3,0.1,0.5,0.4,0.5,0.7c0,0.9-1.3,0.6-1.2-0.1C100.5,65.9,100.2,65.9,100.2,66L100.2,66z"/>
		</g>
	</g>
</g>
<g>
	<g>
		<g>
			<path class="st0" d="M103.8,67.9c0.3,0,0.6,0.2,0.6,0.5c0,0.3-0.2,0.5-0.5,0.5C103.3,69,103.2,68.1,103.8,67.9
				c0.1,0-0.1-0.3-0.2-0.2c-0.4,0.2-0.6,0.6-0.4,1c0.1,0.4,0.5,0.6,0.9,0.5c0.4-0.1,0.7-0.4,0.7-0.8s-0.4-0.8-0.9-0.8
				C103.6,67.6,103.6,67.9,103.8,67.9L103.8,67.9z"/>
		</g>
	</g>
</g>
<g>
	<g>
		<g>
			<path class="st0" d="M101,65.4c-0.9-0.1-1.5,1-0.7,1.6c0.8,0.7,1.8,0,2-0.8c0-0.2-0.2-0.3-0.3-0.1c-0.1,0.5-0.6,1-1.2,0.8
				c-0.2-0.1-0.5-0.3-0.6-0.5c-0.1-0.4,0.3-0.8,0.7-0.8C101.1,65.7,101.2,65.4,101,65.4L101,65.4z"/>
		</g>
	</g>
</g>
<g>
	<g>
		<g>
			<path class="st0" d="M101.1,66.9c0,1.7,0.1,3.5,0.1,5.2c0,0.2,0.2,0.2,0.3,0.1c0.8-1.1,1.8-2.2,2.8-3.2c0.1-0.1-0.1-0.3-0.2-0.2
				c-1,1-2,2.1-2.8,3.2c0.1,0,0.2,0,0.3,0.1c0-1.7-0.1-3.5-0.1-5.2C101.4,66.8,101.1,66.8,101.1,66.9L101.1,66.9z"/>
		</g>
	</g>
</g>
<g>
	<g>
		<g>
			<path class="st0" d="M101.8,71.7c0.7-0.6,1.4-1.2,2.2-1.7c0.4-0.2,0.9-0.4,1.3-0.5c0.2,0,1.5-0.2,1.7,0c0.6,0.6-1.4,1.5-1.8,1.6
				c-0.9,0.3-1.9,0.2-2.9,0.1c-0.1,0-0.2,0.1-0.1,0.2c0.7,1,1.7,3.1,3.1,3.4c0.9,0.2,1.8-0.3,2.2-1.1c0-0.1,0-0.2-0.1-0.2
				c-0.9,0-1.5-1.5-2.4-2c-0.6-0.3-1.1-0.3-1.7-0.2c-0.1,0-0.1,0.2-0.1,0.2c0.6,0.7,1.2,1.4,2,2c0.1,0.1,0.4-0.1,0.2-0.2
				c-0.4-0.3-1.2-0.8-1.5-1.3c-0.1-0.1-0.2-0.2-0.3-0.3c0.2-0.1,0.4-0.2,0.6-0.1c0.7,0.1,1.1,0.5,1.5,1c0.5,0.6,0.7,1.2,1.6,1.2
				c0-0.1-0.1-0.1-0.1-0.2c-0.6,1.4-2.1,1.2-2.9,0.2c-0.7-0.8-1.2-1.6-1.8-2.5c0,0.1-0.1,0.1-0.1,0.2c1.9,0.2,4.3,0.1,5.1-2
				c0-0.1,0-0.2-0.1-0.2c-2.3-0.8-4.2,0.7-5.8,2.2C101.4,71.6,101.7,71.9,101.8,71.7L101.8,71.7z"/>
		</g>
	</g>
</g>
<g>
	<g>
		<g>
			<path class="st0" d="M102.8,71c0.8-0.1,1.4-0.3,2.1-0.7c0.2-0.1,0-0.4-0.1-0.3c-0.6,0.4-1.2,0.6-1.9,0.6
				C102.6,70.7,102.6,71,102.8,71L102.8,71z"/>
		</g>
	</g>
</g>
<g>
	<g>
		<g>
			<path class="st0" d="M101,66.7c-1.9-0.1-1.5-2.8,0.2-2.9c0.6,0,1.2,0.3,1.5,0.8c0.4,0.8-0.2,1.8-1.1,1.8c-0.2,0-0.2,0.3,0,0.3
				c0.9,0,1.6-0.8,1.5-1.7c-0.1-0.9-1-1.6-1.9-1.5c-0.9,0-1.7,0.8-1.8,1.6c-0.1,1,0.7,1.9,1.6,1.9C101.2,67,101.2,66.7,101,66.7
				L101,66.7z"/>
		</g>
	</g>
</g>
<g>
	<g>
		<g>
			<path class="st0" d="M103.6,68.5c-0.9-0.7-0.3-2.2,0.9-1.9c0.5,0.1,0.9,0.6,0.8,1.2c-0.1,0.5-0.6,0.9-1.1,0.8
				c-0.2,0-0.3,0.3-0.1,0.3c1.5,0.2,2.1-1.9,0.7-2.5c-0.6-0.3-1.4-0.1-1.7,0.6c-0.3,0.6-0.2,1.4,0.4,1.8
				C103.5,68.8,103.7,68.6,103.6,68.5L103.6,68.5z"/>
		</g>
	</g>
</g>
<g>
	<g>
		<g>
			<path class="st0" d="M89.5,79.7c-0.6-3.8-1.3-7.7-0.9-11.5c0.3-3.7,2-7,2.2-10.7c0.1-1.9-0.1-3.8-0.1-5.7c0-1.9,0.4-3.7,0.4-5.6
				c0.1-3.5-0.8-7-1.8-10.3c0-0.2-0.3-0.1-0.3,0.1c1.1,3.6,2.1,7.2,1.8,10.9c-0.1,1.9-0.4,3.7-0.4,5.6c0,2,0.3,4.1,0,6.1
				c-0.5,3.5-1.9,6.8-2.1,10.3c-0.2,3.7,0.4,7.3,1,10.9C89.3,79.9,89.6,79.9,89.5,79.7L89.5,79.7z"/>
		</g>
	</g>
</g>
<g>
	<g>
		<g>
			<path class="st0" d="M90.4,37.2c0.7,2.7,1.1,5.5,1.1,8.3c0,2.6-0.4,5.3,0.1,7.9c0.2,1.4,0.6,2.7,0.6,4.1c0,1.3-0.4,2.6-0.8,3.8
				c-0.6,2-1.2,4-0.8,6.1c0,0.2,0.3,0.1,0.3-0.1c-0.6-2.5,0.5-4.9,1.1-7.3c0.6-2.4,0.2-4.3-0.2-6.7c-0.5-2.8,0-5.7-0.1-8.5
				c-0.1-2.6-0.5-5.2-1.1-7.7C90.6,36.9,90.3,37,90.4,37.2L90.4,37.2z"/>
		</g>
	</g>
</g>
<g>
	<g>
		<g>
			<path class="st0" d="M38.8,48.1c-1.6,7.4,0.1,15-1.2,22.4c0,0.2,0.3,0.3,0.3,0.1c1.4-7.4-0.4-15,1.2-22.4
				C39.1,48,38.8,47.9,38.8,48.1L38.8,48.1z"/>
		</g>
	</g>
</g>
<g>
	<g>
		<g>
			<path class="st0" d="M37.7,78c0.1,1.6,0.2,3.2,0.4,4.7c0,0.2,0.3,0.2,0.3,0c-0.1-1.6-0.2-3.2-0.4-4.7C38,77.8,37.7,77.8,37.7,78
				L37.7,78z"/>
		</g>
	</g>
</g>
<g>
	<g>
		<g>
			<path class="st0" d="M64.5,29.9c-2.2,0.9-3,3.8-1.3,5.6c1.6,1.7,5.1,1.8,6-0.7c0.2-0.6,0.3-1.7-0.4-2c-0.6-0.3-1.6,0.6-1.6,1.2
				c0,1.4,1.7,0.4,0.8-0.2c-0.2-0.1-0.3,0.1-0.1,0.3c0.1-1.2,0.5-1.2,1.2,0c-0.1,0.3-0.2,0.6-0.3,0.9c-0.3,0.6-0.9,1.1-1.5,1.3
				c-1.2,0.4-2.6,0.1-3.6-0.8c-1.9-1.6-1.2-4.4,0.9-5.3C64.8,30.1,64.6,29.8,64.5,29.9L64.5,29.9z"/>
		</g>
	</g>
</g>
<g>
	<g>
		<g>
			<path class="st0" d="M45.8,36c-0.9-0.7-0.3-2.1,0.2-2.8c0.4-0.5,1.1-0.9,1.7-0.6c0.4,0.2,0.7,0.6,0.5,1c0,0.4-0.3,0.5-0.8,0.5
				c-0.6-0.4-0.6-0.7,0-1c-0.2-0.1-0.3,0.1-0.1,0.3c0.3,0.2,0.8,0.2,0.8-0.3c0-0.6-0.7-0.6-1.1-0.3c-1.1,0.9,0.6,2.4,1.4,1.3
				c0.3-0.5,0.2-1.1-0.2-1.5c-0.5-0.5-1.3-0.4-1.9,0c-1.1,0.7-2,2.8-0.8,3.8C45.7,36.4,45.9,36.2,45.8,36L45.8,36z"/>
		</g>
	</g>
</g>
<g>
	<g>
		<g>
			<path class="st0" d="M48.4,30.5c-0.1-0.7,0.5-1.5,1.2-1.5c0.6,0,1.1,0.6,1.1,1.2c0,0.8-1.1,1.5-1.7,0.7c-0.3-0.4,0-1,0.5-1
				c0,0,0.6,0.2,0.3,0.4c-0.1,0.1-0.1-0.4-0.1-0.5c0.1-0.2-0.2-0.3-0.3-0.1c-0.1,0.3-0.2,0.8,0.2,0.9c0.3,0.1,0.5-0.2,0.5-0.5
				c-0.1-0.9-1.5-0.5-1.6,0.2c-0.2,1.1,1.3,1.5,2,0.8c0.8-0.7,0.4-2-0.5-2.4c-1.1-0.6-2.3,0.6-2.1,1.7
				C48.1,30.8,48.4,30.7,48.4,30.5L48.4,30.5z"/>
		</g>
	</g>
</g>
<g>
	<g>
		<g>
			<path class="st0" d="M52.4,28.9c-0.1-0.6,0.5-1,1-0.7c0.2,0.1,0.3,0.3,0.2,0.6c-0.1,0.4-0.4,0-0.3-0.1c0,0-0.1,0-0.1,0
				c0.1,0.1,0.2,0.2,0.3,0.3c0.1,0.2,0.4,0.1,0.3-0.1c-0.1-0.2-0.3-0.6-0.5-0.5c-0.2,0-0.3,0.3-0.2,0.5c0.1,0.5,0.8,0.5,0.9,0
				c0.2-0.6-0.3-1.1-0.9-1.1c-0.7,0-1.1,0.6-1,1.2C52.2,29.1,52.5,29,52.4,28.9L52.4,28.9z"/>
		</g>
	</g>
</g>
<g>
	<g>
		<g>
			<path class="st0" d="M55.8,29.7c-0.5-0.9-0.4-2.2,0.5-2.8c0.9-0.5,2.1-0.2,2.3,0.8c0.3,1-0.8,2-1.7,1.4c-0.4-0.2-0.5-0.6-0.4-1
				c0-0.2,0.1-0.4,0.2-0.5c0.1-0.1,0.1-0.2,0.3-0.2c0.3-0.2,0.5-0.1,0.5,0.3c0.1-0.1-0.1-0.3-0.2-0.2c-0.3,0.3-0.2,0.8,0.2,0.9
				c0.4,0.1,0.8-0.4,0.7-0.8c-0.1-0.6-0.8-0.8-1.3-0.6c-0.5,0.2-0.8,0.7-0.8,1.2c-0.1,1.3,1.6,1.7,2.4,0.9c1-1,0.1-2.7-1.2-2.8
				c-2-0.2-2.7,2-1.9,3.5C55.7,30.1,55.9,29.9,55.8,29.7L55.8,29.7z"/>
		</g>
	</g>
</g>
<g>
	<g>
		<g>
			<path class="st0" d="M61.2,26.8c0.3-0.3,0.7-0.6,1.1-0.7c0.5-0.1,1,0.1,1,0.7c0,0.4-0.2,0.8-0.5,0.9c-0.2,0.1-0.5,0.2-0.8,0
				c-0.1-0.1-0.2-0.2-0.2-0.4c0-0.1,0.3-0.4,0.4-0.2c0.1,0.1,0.3-0.1,0.2-0.2c-0.4-0.4-1.1,0.2-0.9,0.7c0.3,0.7,1.3,0.5,1.7,0
				c0.4-0.5,0.5-1.3,0-1.7c-0.8-0.6-1.8,0.1-2.3,0.7C60.8,26.7,61.1,26.9,61.2,26.8L61.2,26.8z"/>
		</g>
	</g>
</g>
<g>
	<g>
		<g>
			<path class="st0" d="M61.4,29.7c-0.1-0.5,0.5-1,0.9-0.6c0.1,0.1,0.2,0.4,0.2,0.6c0,0.1-0.2,0.3-0.4,0.3s-0.3-0.2-0.1-0.3
				c0.2-0.1,0-0.4-0.1-0.3c-0.4,0.2-0.2,0.8,0.2,0.9c0.5,0.1,0.9-0.5,0.8-0.9c-0.1-0.5-0.6-0.8-1-0.7c-0.5,0.1-0.8,0.7-0.7,1.1
				C61.2,29.9,61.5,29.9,61.4,29.7L61.4,29.7z"/>
		</g>
	</g>
</g>
<g>
	<g>
		<g>
			<path class="st0" d="M66.2,27.3c0.2-0.5,0.7-1.4,1.3-0.9c0.3,0.2,0.4,0.6,0.1,0.8c-0.1,0.1-0.2,0.1-0.4,0.2c-0.1,0-0.2,0-0.3,0
				c-0.2,0-0.2-0.1,0.1-0.2c0.1,0.1,0.3-0.1,0.2-0.2c-0.4-0.5-1.1,0.1-0.8,0.6c0.3,0.5,1.2,0.1,1.4-0.3c0.3-0.5-0.1-1.2-0.7-1.3
				c-0.7-0.1-1.2,0.7-1.4,1.2C65.9,27.4,66.2,27.4,66.2,27.3L66.2,27.3z"/>
		</g>
	</g>
</g>
<g>
	<g>
		<g>
			<path class="st0" d="M70.3,26.9c-0.3-1.1,0.9-2.2,1.9-1.6c0.7,0.4,0.8,1.5-0.1,1.7c-0.4,0.1-0.9-0.1-0.8-0.6
				c0-0.3,0.2-0.4,0.5-0.4c0.2,0,0.3,0.2,0.2,0.4c0.1,0,0.1,0,0.2,0c0,0,0,0,0,0.1c0.2-0.1,0-0.4-0.1-0.3c0,0,0,0,0,0
				c0,0-0.1,0.1-0.1,0.1c0,0.1,0,0.2,0.1,0.2c0,0,0.1,0,0.2,0c0.8-0.4-0.4-1.5-1-0.8c-0.3,0.3-0.1,0.8,0.2,1.1
				c0.4,0.3,0.9,0.3,1.3,0c1.1-0.8,0.3-2.3-0.8-2.3c-1.1-0.1-2,1.1-1.7,2.1C70,27.1,70.3,27.1,70.3,26.9L70.3,26.9z"/>
		</g>
	</g>
</g>
<g>
	<g>
		<g>
			<path class="st0" d="M74.6,27.5c0.1-0.3,0.6-0.6,0.8-0.3c0.2,0.2,0,0.7-0.3,0.7c0,0,0.1,0,0.1,0c-0.1-0.1-0.2-0.2-0.1-0.4
				c0-0.2-0.2-0.3-0.3-0.1c-0.1,0.3,0.1,0.9,0.5,0.7c0.3-0.1,0.5-0.5,0.5-0.8c0-0.4-0.3-0.6-0.7-0.5c-0.4,0-0.7,0.3-0.8,0.6
				C74.3,27.7,74.6,27.7,74.6,27.5L74.6,27.5z"/>
		</g>
	</g>
</g>
<g>
	<g>
		<g>
			<path class="st0" d="M78.4,29.6c-0.5-0.3,0.1-0.9,0.4-1.1c0.3-0.2,0.8-0.3,1.1-0.1c0.4,0.2,0.6,0.7,0.3,1.1
				c-0.1,0.1-0.3,0.2-0.5,0.2c-0.2,0-0.3-0.1-0.4-0.3c0.1-0.3,0.2-0.4,0.3-0.1c0,0.2,0.3,0.2,0.3,0c0-0.7-1.2-0.5-0.8,0.3
				c0.3,0.8,1.5,0.4,1.6-0.3c0.2-1-0.9-1.5-1.7-1.2c-0.6,0.2-1.4,1.3-0.6,1.8C78.4,29.9,78.6,29.7,78.4,29.6L78.4,29.6z"/>
		</g>
	</g>
</g>
<g>
	<g>
		<g>
			<path class="st0" d="M82.4,30.5c0,0,0-0.1,0-0.2c0-0.1,0.1-0.1,0.2-0.2c0.2-0.1,0.4,0,0.5,0.1c0.3,0.2,0.1,0.8-0.2,0.8
				c0,0,0.1,0,0.1,0c0,0,0-0.1,0-0.1c0.2-0.1,0.1-0.4-0.1-0.3c-0.2,0.1-0.3,0.3-0.2,0.5c0.1,0.2,0.3,0.3,0.5,0.2
				c0.4-0.2,0.6-0.8,0.3-1.2c-0.3-0.4-0.9-0.4-1.2-0.1c-0.3,0.3-0.1,1,0.3,0.7C82.8,30.6,82.6,30.4,82.4,30.5L82.4,30.5z"/>
		</g>
	</g>
</g>
<g>
	<g>
		<g>
			<path class="st0" d="M68.6,29.7c-0.4-0.2-0.2-0.7,0-0.8c0.3-0.2,0.7-0.2,1-0.1c0.3,0.1,0.6,0.6,0.2,0.9c-0.2,0.1-0.4,0-0.4-0.2
				c0,0,0-0.1,0-0.1c0,0-0.1-0.2-0.1,0c0,0.2,0.3,0.2,0.3,0c0-0.2-0.3-0.3-0.4-0.2c-0.1,0.1-0.1,0.3,0,0.5c0.2,0.7,1.2,0.4,1.2-0.2
				c0-0.9-0.9-1.1-1.6-0.9c-0.3,0.1-0.7,0.4-0.7,0.7c0,0.3,0.1,0.6,0.4,0.8C68.7,30,68.8,29.8,68.6,29.7L68.6,29.7z"/>
		</g>
	</g>
</g>
<g>
	<g>
		<g>
			<path class="st0" d="M72.2,29.8c-0.1-0.4,0.3-0.8,0.7-0.6c0.3,0.1,0.4,0.6,0.2,0.8c0,0,0.1,0,0.1,0c-0.2,0-0.3-0.2-0.2-0.4
				c0.1-0.2-0.1-0.3-0.3-0.1c-0.2,0.3,0,0.8,0.4,0.8c0.2,0,0.2-0.2,0.3-0.4c0-0.2,0-0.4-0.1-0.6c-0.2-0.4-0.6-0.6-0.9-0.4
				c-0.4,0.1-0.7,0.6-0.6,1C72,30.1,72.3,30,72.2,29.8L72.2,29.8z"/>
		</g>
	</g>
</g>
<g>
	<g>
		<g>
			<path class="st0" d="M53.7,99.2c-0.2-1.3-0.2-2.5,0-3.8c0-0.2-0.3-0.3-0.3-0.1c-0.2,1.3-0.2,2.6,0,3.9
				C53.4,99.5,53.7,99.4,53.7,99.2L53.7,99.2z"/>
		</g>
	</g>
</g>
<g>
	<g>
		<g>
			<path class="st0" d="M57.3,99.6c0.1-0.4,0.3-0.7,0.5-1.1c0.1-0.2-0.2-0.3-0.3-0.1c-0.1,0.4-0.3,0.7-0.5,1.1
				C57,99.7,57.3,99.8,57.3,99.6L57.3,99.6z"/>
		</g>
	</g>
</g>
<g>
	<g>
		<g>
			<path class="st0" d="M85.5,94.4c0.5-1,0.7-2.1,0.7-3.3c0-0.2-0.3-0.2-0.3,0c0,1.1-0.2,2.1-0.6,3.1C85.2,94.4,85.4,94.6,85.5,94.4
				L85.5,94.4z"/>
		</g>
	</g>
</g>
<g>
	<g>
		<g>
			<path class="st0" d="M88.6,91.8c0.4-1.5,0.8-3,1.1-4.4c0-0.2-0.2-0.3-0.3-0.1c-0.4,1.5-0.8,3-1.1,4.4
				C88.3,91.9,88.6,92,88.6,91.8L88.6,91.8z"/>
		</g>
	</g>
</g>
<g>
	<g>
		<g>
			<path class="st0" d="M107,105.9c0.5,3-2.7,4.3-5,5c-1.9,0.6-3.8,1-5.8,1.5c-3.6,0.9-7.2,1.9-10,4.5c-1.6,1.5-2.9,3.2-4.5,4.5
				c-1.7,1.4-3.8,2.5-5.9,3.2c-4.3,1.5-9,2.3-13.5,2.9c-5.1,0.7-10.4,0.5-15.4,2.1c-0.2,0-0.1,0.4,0.1,0.3c5-1.6,10.4-1.5,15.5-2.1
				c4.6-0.6,9.3-1.4,13.7-3c1.8-0.7,3.6-1.6,5.2-2.8c1.8-1.4,3.1-3.1,4.7-4.6c3.3-3.2,7.8-4.1,12.1-5.1c3.2-0.8,9.9-1.8,9.1-6.4
				C107.2,105.6,106.9,105.7,107,105.9L107,105.9z"/>
		</g>
	</g>
</g>
<g>
	<g>
		<g>
			<path class="st0" d="M24.5,120.3c2.1-0.7,3.7-2.2,5.5-3.3c2.3-1.3,4.9-1.4,7.3-2.3c4.7-1.8,8.9-6.6,14.4-5.1
				c0.2,0,0.3-0.2,0.1-0.3c-5.1-1.5-9.2,2.6-13.4,4.6c-2.3,1.1-5,1.2-7.3,2.2c-2.4,1-4.2,3-6.7,3.9C24.2,120,24.3,120.3,24.5,120.3
				L24.5,120.3z"/>
		</g>
	</g>
</g>
<g>
	<g>
		<g>
			<path class="st0" d="M25.3,110.1c-1.6,0.3-3.2,0.3-4.8,0c-0.2,0-0.3,0.3-0.1,0.3c1.7,0.3,3.3,0.3,5,0
				C25.6,110.4,25.5,110.1,25.3,110.1L25.3,110.1z"/>
		</g>
	</g>
</g>
<g>
	<g>
		<g>
			<path class="st0" d="M113.7,108.3c3.3,0,6.6-0.1,10-0.2c0.2,0,0.2-0.3,0-0.3c-3.3,0-6.6,0.1-10,0.2
				C113.5,108,113.5,108.3,113.7,108.3L113.7,108.3z"/>
		</g>
	</g>
</g>
<g>
	<g>
		<g>
			<path class="st0" d="M108.9,100c-0.9,0.6-1.4,1.5-1.9,2.4c-0.9,1.5-2,2.6-3.9,2.6c-0.4,0-0.4,0.6,0,0.6c1.3,0,2.6-0.5,3.5-1.5
				c1-1.1,1.4-2.7,2.7-3.6C109.6,100.2,109.3,99.7,108.9,100L108.9,100z"/>
		</g>
	</g>
</g>
<g>
	<g>
		<g>
			<path class="st0" d="M28,106.1c3.7,4.2,9.7-1.5,13.9,1.6c0.1,0.1,0.3-0.1,0.1-0.3c-4.2-3.1-10.2,2.6-13.8-1.5
				C28.1,105.7,27.9,106,28,106.1L28,106.1z"/>
		</g>
	</g>
</g>
<g>
	<g>
		<g>
			<path class="st0" d="M40.7,108.6c-0.7-1.5-3.5-0.5-4.6,0c-2.3,1.1-4.1,3-5.8,4.9c-0.1,0.1,0.1,0.4,0.2,0.2c1.2-1.4,2.5-2.8,4-3.9
				c0.7-0.5,1.5-0.9,2.4-1.3c0.8-0.3,3-0.9,3.5,0.1C40.5,108.9,40.8,108.8,40.7,108.6L40.7,108.6z"/>
		</g>
	</g>
</g>
<g>
	<g>
		<g>
			<path class="st0" d="M32.7,109c-0.7,0.5-1.4,1-2.2,1.5c-0.2,0.1,0,0.4,0.1,0.3c0.7-0.5,1.4-1,2.2-1.5
				C33,109.2,32.8,108.9,32.7,109L32.7,109z"/>
		</g>
	</g>
</g>
<g>
	<g>
		<g>
			<path class="st0" d="M64.1,102c-1.5,3.2-5,5-8.5,4.5c-0.2,0-0.3,0.3-0.1,0.3c3.6,0.5,7.2-1.4,8.8-4.7
				C64.5,102,64.2,101.8,64.1,102L64.1,102z"/>
		</g>
	</g>
</g>
<g>
	<g>
		<g>
			<path class="st0" d="M62.6,102.1c-1.1,0.4-2.2,0.7-3.2,1.1c-0.2,0.1-0.1,0.4,0.1,0.3c1.1-0.4,2.2-0.7,3.2-1.1
				C62.9,102.4,62.8,102.1,62.6,102.1L62.6,102.1z"/>
		</g>
	</g>
</g>
<g>
	<g>
		<g>
			<path class="st0" d="M83.7,97.7c2.8-0.3,5.4-1.5,7.4-3.5c0.1-0.1-0.1-0.4-0.2-0.2c-2,1.9-4.5,3.1-7.2,3.4
				C83.5,97.4,83.5,97.7,83.7,97.7L83.7,97.7z"/>
		</g>
	</g>
</g>
<g>
	<g>
		<g>
			<path class="st0" d="M109,98.8c-1.9-0.6-3,1.1-4,2.3c-1.6,1.8-3.7,3.1-6,3.7c-0.2,0-0.1,0.3,0.1,0.3c1.6-0.4,3.1-1.1,4.5-2.2
				c1.5-1.2,3.1-4.5,5.4-3.8C109.1,99.2,109.2,98.9,109,98.8L109,98.8z"/>
		</g>
	</g>
</g>
<g>
	<g>
		<g>
			<path class="st0" d="M65.9,104.4c-3.3,4-5.6,8.5-7,13.5c0,0.2,0.2,0.3,0.3,0.1c1.4-4.9,3.7-9.4,6.9-13.3
				C66.3,104.5,66.1,104.3,65.9,104.4L65.9,104.4z"/>
		</g>
	</g>
</g>
<g>
	<g>
		<g>
			<path class="st0" d="M67.4,104.6c-0.6,1.4-1.1,2.9-1.7,4.3c-0.1,0.2,0.2,0.3,0.3,0.1c0.6-1.4,1.1-2.9,1.7-4.3
				C67.8,104.5,67.5,104.4,67.4,104.6L67.4,104.6z"/>
		</g>
	</g>
</g>
<g>
	<g>
		<g>
			<path class="st0" d="M81.2,98.9c4.9,0.1,9.7,1.5,13.9,4.1c0.2,0.1,0.3-0.2,0.1-0.3c-4.2-2.6-9.1-4-14.1-4.2
				C81,98.6,81,98.9,81.2,98.9L81.2,98.9z"/>
		</g>
	</g>
</g>
<g>
	<g>
		<g>
			<path class="st0" d="M84.7,99.2c3.6-0.6,7.3-0.7,10.9-0.3c0.2,0,0.2-0.3,0-0.3c-3.7-0.5-7.4-0.4-11,0.3
				C84.4,98.9,84.5,99.2,84.7,99.2L84.7,99.2z"/>
		</g>
	</g>
</g>
<g>
	<g>
		<g>
			<path class="st0" d="M86.1,33.9c1,0.6,2.2,1.5,3.4,1.9c0.6,0.2,1,0,1.3-0.6c0.8-1.7-2-2.9-3.2-3.2c0,0.1,0.1,0.3,0.2,0.4
				c1-2.1-1.1-3.6-2.8-4.1c-0.7-0.2-1.5-0.4-2.2-0.8c-0.6-0.3-1.1-0.9-1.7-1.1c-1.2-0.4-2.2,0.8-3.3-0.4c-0.3-0.3-0.7,0.1-0.4,0.4
				c0.4,0.5,1,0.8,1.7,0.8c0.3,0,0.6-0.2,0.9-0.2c0.8-0.1,1.3,0.2,1.9,0.6c1.5,1.1,6.7,1.7,5.4,4.5c-0.1,0.2,0,0.4,0.2,0.4
				c0.6,0.1,1.2,0.3,1.7,0.7c0.3,0.2,0.6,0.4,0.8,0.6c0,1-0.3,1.4-0.7,1c-0.4-0.1-0.9-0.5-1.3-0.7c-0.5-0.3-1-0.6-1.5-0.8
				C86,33.2,85.7,33.7,86.1,33.9L86.1,33.9z"/>
		</g>
	</g>
</g>
<g>
	<g>
		<g>
			<path class="st0" d="M84.5,31.2c-0.1-0.6,0.6-1.3,1.1-0.8c0.4,0.3,0.2,1-0.2,1.2c0.1,0,0.1,0,0.2,0c-0.3-0.3-0.3-0.7,0-1
				c0.1-0.1-0.1-0.3-0.3-0.1c-0.3,0.4-0.3,1,0.1,1.4c0,0,0.1,0,0.2,0c0.7-0.3,0.8-1.4,0.1-1.8c-0.8-0.5-1.7,0.4-1.5,1.2
				C84.3,31.5,84.6,31.4,84.5,31.2L84.5,31.2z"/>
		</g>
	</g>
</g>
<g>
	<g>
		<g>
			<path class="st0" d="M87.8,34.1c0-0.3,0-0.6,0-0.8c0,0-0.1,0.1-0.1,0.1c0.6,0,1.2,0.5,1.1,1.2c0,0,0.1-0.1,0.1-0.1
				c-0.1,0-0.2,0-0.2-0.1c0-0.2-0.3-0.2-0.3,0c0,0.3,0.3,0.5,0.6,0.4c0.1,0,0.1-0.1,0.1-0.1c0-0.8-0.7-1.5-1.5-1.5
				c-0.1,0-0.1,0.1-0.1,0.1c0,0.3,0,0.6,0,0.8C87.5,34.2,87.8,34.2,87.8,34.1L87.8,34.1z"/>
		</g>
	</g>
</g>
<g>
	<g>
		<g>
			<path class="st0" d="M108.1,104.3c0.8,0,1.5,0.8,1.6,1.6c0,0.2,0.3,0.2,0.3,0c0-1-0.8-1.8-1.9-1.9
				C107.9,104,107.9,104.3,108.1,104.3L108.1,104.3z"/>
		</g>
	</g>
</g>
<g>
	<g>
		<g>
			<path class="st0" d="M43.8,98.5c-0.4-0.5-0.7-1-1.1-1.5c-0.1-0.2-0.4,0-0.3,0.1c0.4,0.5,0.7,1,1.1,1.5
				C43.7,98.8,44,98.7,43.8,98.5L43.8,98.5z"/>
		</g>
	</g>
</g>
<g>
	<g>
		<g>
			<path class="st0" d="M49.8,27.1c-0.4,0.2-0.4,0.8-0.2,1.1c0.1,0.1,0.3-0.1,0.2-0.2c-0.1-0.2-0.1-0.5,0.1-0.6
				C50.1,27.3,50,27,49.8,27.1L49.8,27.1z"/>
		</g>
	</g>
</g>
<g>
	<g>
		<g>
			<path class="st0" d="M57.2,24.6c-0.4,0.1-0.6,0.5-0.5,0.9c0.1,0.2,0.4,0.1,0.3-0.1c-0.1-0.2,0-0.4,0.3-0.5
				C57.4,24.9,57.3,24.6,57.2,24.6L57.2,24.6z"/>
		</g>
	</g>
</g>
<g>
	<g>
		<g>
			<path class="st0" d="M59,25.5c0.8,0.9,2,0.8,2.9,0c0.1-0.1,0-0.3-0.2-0.2c-0.6,0.3-1.1,0.4-1.7,0.3c-0.2,0-0.2,0.3,0,0.3
				c0.7,0.1,1.3-0.1,1.9-0.5c0-0.1-0.1-0.2-0.1-0.3c-0.2,0.2-0.4,0.3-0.6,0.5c-0.1,0.1,0,0.3,0.1,0.3c0.3-0.1,0.6-0.3,0.9-0.4
				c0.2-0.1,0-0.3-0.1-0.3c-0.3,0-0.5,0.1-0.7,0.3c-0.1,0.1,0,0.4,0.1,0.3c0.1-0.1,0.2-0.1,0.3-0.2c0.2-0.1,0-0.4-0.1-0.3
				c-0.1,0.1-0.2,0.1-0.3,0.2c0,0.1,0.1,0.2,0.1,0.3c0.2-0.1,0.4-0.2,0.6-0.3c0-0.1-0.1-0.2-0.1-0.3c-0.3,0.1-0.6,0.3-0.9,0.4
				c0,0.1,0.1,0.2,0.1,0.3c0.2-0.2,0.4-0.3,0.6-0.5c0.1-0.1,0-0.4-0.1-0.3c-0.5,0.4-1.1,0.5-1.7,0.4c0,0.1,0,0.2,0,0.3
				c0.7,0,1.3-0.1,1.9-0.3c-0.1-0.1-0.1-0.2-0.2-0.2c-0.7,0.6-1.8,0.8-2.5,0C59.1,25.1,58.9,25.3,59,25.5L59,25.5z"/>
		</g>
	</g>
</g>
<g>
	<g>
		<g>
			<path class="st0" d="M59.2,25.7c0.2,0,0.3,0.1,0.5,0.1c0.2,0,0.3-0.2,0.1-0.3c-0.2,0-0.3-0.1-0.5-0.1C59,25.4,59,25.7,59.2,25.7
				L59.2,25.7z"/>
		</g>
	</g>
</g>
<g>
	<g>
		<g>
			<path class="st0" d="M75.9,23.7c-0.6-0.1-1.3,0.3-1.4,0.9c0,0.2,0.2,0.3,0.3,0.1c0.1-0.4,0.6-0.8,1.1-0.7
				C76,24,76.1,23.7,75.9,23.7L75.9,23.7z"/>
		</g>
	</g>
</g>
<g>
	<g>
		<g>
			<path class="st0" d="M66.8,18.7c-0.2,0.2-0.3,0.3-0.5,0.5c-0.1,0.1,0.1,0.4,0.2,0.2c0.2-0.2,0.3-0.3,0.5-0.5
				C67.1,18.7,66.9,18.5,66.8,18.7L66.8,18.7z"/>
		</g>
	</g>
</g>
<g>
	<g>
		<g>
			<path class="st0" d="M77.6,19.8c-0.5,0.2-0.8,0.5-1,1c-0.1,0.2,0.2,0.3,0.3,0.1c0.1-0.4,0.5-0.7,0.8-0.8
				C77.9,20,77.8,19.7,77.6,19.8L77.6,19.8z"/>
		</g>
	</g>
</g>
<g>
	<g>
		<g>
			<path class="st0" d="M84.2,27.5c-0.3,0-0.6,0-0.9,0.1c-0.2,0-0.1,0.3,0.1,0.3c0.3-0.1,0.5-0.1,0.8-0.1
				C84.4,27.8,84.4,27.5,84.2,27.5L84.2,27.5z"/>
		</g>
	</g>
</g>
<g>
	<g>
		<g>
			<path class="st0" d="M62.6,20.6c-1-0.9-2.7,0.1-2.1,1.4c0.3,0.6,0.9,1,1.6,0.7c0.7-0.2,1-1,0.8-1.6c0-0.2-0.3-0.1-0.3,0.1
				c0.1,0.5-0.1,1.1-0.6,1.3c-0.5,0.2-1-0.1-1.2-0.7c-0.4-1,1-1.6,1.7-1C62.5,21,62.7,20.8,62.6,20.6L62.6,20.6z"/>
		</g>
	</g>
</g>
<g>
	<g>
		<g>
			<path class="st0" d="M53.6,22.1c-1.1-0.8-2.5,0.6-1.7,1.7c0.9,1.2,2.6,0.2,2.3-1.2c0-0.2-0.3-0.1-0.3,0.1
				c0.3,1.1-1.1,1.9-1.7,0.8c-0.5-0.9,0.6-1.8,1.4-1.2C53.6,22.5,53.8,22.2,53.6,22.1L53.6,22.1z"/>
		</g>
	</g>
</g>
<g>
	<g>
		<g>
			<path class="st0" d="M46.7,26.4c-0.7-1.1-2.5-0.1-2.3,1.1c0.1,0.5,0.6,0.9,1.1,0.9c0.6,0,1.2-0.4,1.4-0.9
				c0.1-0.2-0.2-0.3-0.3-0.1c-0.3,0.7-1.3,1.2-1.9,0.4c-0.6-0.9,1-2.1,1.6-1.2C46.6,26.7,46.8,26.5,46.7,26.4L46.7,26.4z"/>
		</g>
	</g>
</g>
<g>
	<g>
		<g>
			<path class="st0" d="M72.2,20.9c-0.6-0.3-1.3-0.3-1.8,0.1c-0.5,0.4-0.6,0.9-0.2,1.4c0.8,1.1,2.5,0.7,2.9-0.5
				c0.1-0.2-0.2-0.3-0.3-0.1c-0.3,0.8-1.3,1.2-2,0.7c-0.5-0.3-0.7-1-0.2-1.4c0.4-0.3,1-0.3,1.4-0.1C72.3,21.2,72.4,20.9,72.2,20.9
				L72.2,20.9z"/>
		</g>
	</g>
</g>
<g>
	<g>
		<g>
			<path class="st0" d="M79,23.3c-1.1-0.3-2.1,0.9-1.3,1.9c0.3,0.4,1,0.5,1.5,0.3c0.6-0.3,0.8-0.9,0.9-1.4c0-0.2-0.2-0.3-0.3-0.1
				c-0.2,0.7-0.7,1.7-1.6,1.2c-0.4-0.2-0.5-0.7-0.4-1.1c0.2-0.5,0.7-0.7,1.2-0.5C79.1,23.7,79.2,23.4,79,23.3L79,23.3z"/>
		</g>
	</g>
</g>
<g>
	<g>
		<g>
			<path class="st0" d="M101.7,76.1c0.1-0.1,0.1-0.2,0-0.4c0-0.1-0.2-0.1-0.3,0c-0.1,0.7,0,1.5,0.4,2.1c0.1,0.2,0.4,0,0.3-0.1
				c-0.4-0.6-0.5-1.2-0.4-1.9c-0.1,0-0.2,0-0.3,0c0,0,0,0,0,0C101.3,76,101.5,76.2,101.7,76.1L101.7,76.1z"/>
		</g>
	</g>
</g>
<g>
	<g>
		<g>
			<path class="st0" d="M101.7,75.7c-0.1,0.6,0,1.2,0,1.7c0,0.2,0.3,0.2,0.3,0c-0.1-0.6-0.1-1.2,0-1.7
				C102,75.5,101.7,75.5,101.7,75.7L101.7,75.7z"/>
		</g>
	</g>
</g>
<g>
	<g>
		<g>
			<path class="st0" d="M33.8,64.2c0.2,0,0.2-0.3,0-0.3C33.6,63.9,33.6,64.2,33.8,64.2L33.8,64.2z"/>
		</g>
	</g>
</g>
<g>
	<g>
		<g>
			<path class="st0" d="M36.1,63.2c0,0.1,0.1,0.3,0.1,0.4c0,0.2,0.3,0.1,0.3-0.1c0-0.1-0.1-0.3-0.1-0.4C36.4,63,36.1,63,36.1,63.2
				L36.1,63.2z"/>
		</g>
	</g>
</g>
<g>
	<g>
		<g>
			<path class="st0" d="M59.1,30.8c-0.2,1,0.4,1.9,1.4,2c0.3,0,0.8,0,0.9-0.4c0-0.5-0.8-0.6-1.1-0.7C60,31.7,60,32,60.1,32
				c0.1,0,1,0.2,0.8,0.5c-0.2,0.2-0.7,0-0.9-0.1c-0.6-0.3-0.8-0.9-0.6-1.5C59.4,30.7,59.1,30.6,59.1,30.8L59.1,30.8z"/>
		</g>
	</g>
</g>
<g>
	<g>
		<g>
			<path class="st0" d="M76.7,30c-0.2,0.5-0.7,1.7-0.2,2.3c0.4,0.5,1.7,0.4,2.3,0.3c0.1,0,0.2-0.1,0.1-0.2c-0.5-0.9-1.8-0.1-1.2,0.7
				c0.8,1,2.6,0.3,2.4-1c0-0.2-0.3-0.1-0.3,0.1c0.2,1.1,1.4,1,2.2,1c0.2,0,0.2-0.3,0-0.3c-0.6,0-1.8,0-1.9-0.8c-0.1,0-0.2,0-0.3,0.1
				c-1.1,1.3-1.5,1.4-1.2,0.4c0-0.1,0.1-0.1,0.1-0.2c-0.6,0.1-1.6,0.2-2-0.3s0-1.3,0.2-1.9C77.1,29.9,76.8,29.8,76.7,30L76.7,30z"/>
		</g>
	</g>
</g>
<g>
	<g>
		<g>
			<path class="st0" d="M59.3,30.9c-0.4,0.3-0.7,0.8-1.1,1.1c-0.5,0.5-2,1.5-2.6,0.9c0-0.2-0.1-0.5-0.1-0.7
				c-0.2,0.1-0.4,0.2-0.7,0.2c-0.3,0.1-0.7,0.1-1.1,0.1c-0.8,0-1.5-0.2-2.2-0.5c-0.2,0-0.3,0.2-0.1,0.3c1.2,0.4,3.5,1,4.5-0.2
				c0.6-0.7-0.3-1.3-1-0.8c-0.9,0.6-0.2,1.6,0.6,1.9c1.9,0.6,2.8-1.1,4-2.1C59.7,31,59.5,30.8,59.3,30.9L59.3,30.9z"/>
		</g>
	</g>
</g>
<g>
	<g>
		<g>
			<path class="st0" d="M44.2,21.1c0-0.1,0-0.3,0-0.4c0-0.2,0.1-0.2,0.3-0.3c0.3,0,0.6,0.1,0.8,0c0.5,0,0.9-0.3,1.2-0.6
				c0.2-0.3-0.2-0.7-0.4-0.4c-0.3,0.4-0.8,0.5-1.3,0.4c-0.3,0-0.5-0.1-0.8,0.1c-0.5,0.3-0.5,0.9-0.4,1.4
				C43.6,21.6,44.2,21.5,44.2,21.1L44.2,21.1z"/>
		</g>
	</g>
</g>
<g>
	<g>
		<g>
			<path class="st0" d="M50.5,18.3C50.5,18.3,50.5,18.3,50.5,18.3C50.4,18.4,50.5,18.3,50.5,18.3C50.4,18.3,50.4,18.3,50.5,18.3
				C50.5,18.3,50.5,18.3,50.5,18.3C50.4,18.3,50.4,18.3,50.5,18.3L50.5,18.3C50.4,18.3,50.4,18.3,50.5,18.3
				C50.4,18.3,50.4,18.3,50.5,18.3L50.5,18.3C50.5,18.3,50.5,18.3,50.5,18.3C50.4,18.3,50.4,18.3,50.5,18.3c0,0.1,0.1,0.2,0.2,0.2
				c0.1,0,0.3-0.1,0.3-0.3c0-0.2-0.2-0.4-0.4-0.5c-0.2,0-0.5,0-0.6,0.3c-0.1,0.1,0,0.3,0.1,0.4C50.2,18.5,50.4,18.4,50.5,18.3
				L50.5,18.3z"/>
		</g>
	</g>
</g>
<g>
	<g>
		<g>
			<path class="st0" d="M41.8,32c0,0.2,0,0.5,0,0.7c0,0.2,0,0.3,0.2,0.4c0.4,0.1,0.8,0.1,1.1,0c0.1-0.1,0.2-0.3,0.1-0.4
				c-0.1-0.1-0.3-0.2-0.4-0.1c-0.2,0.1-0.4,0.1-0.6,0c0.1,0.1,0.1,0.2,0.2,0.4c0-0.3,0.1-0.6,0.1-0.9C42.4,31.6,41.8,31.6,41.8,32
				L41.8,32z"/>
		</g>
	</g>
</g>
<g>
	<g>
		<g>
			<path class="st0" d="M59.4,16.1c0.1-0.2,0.3-0.4,0.5-0.5c0.1,0,0.2-0.1,0.3-0.1c0,0,0.1,0.1,0.1,0.1c-0.2,0.3,0.2,0.7,0.4,0.4
				c0.4-0.4,0-1.1-0.5-1.1c-0.6-0.1-1.3,0.5-1.5,1C58.7,16.3,59.2,16.4,59.4,16.1L59.4,16.1z"/>
		</g>
	</g>
</g>
<g>
	<g>
		<g>
			<path class="st0" d="M68.4,15.8C68.4,15.8,68.4,15.7,68.4,15.8C68.4,15.8,68.4,15.8,68.4,15.8C68.4,15.8,68.5,15.7,68.4,15.8
				C68.4,15.8,68.5,15.7,68.4,15.8c0.1-0.1,0.1-0.1,0.1-0.1C68.5,15.7,68.5,15.7,68.4,15.8l0.1-0.1L68.4,15.8
				C68.5,15.8,68.5,15.8,68.4,15.8c0.2,0,0.4,0,0.5-0.1c0.1-0.1,0.1-0.3,0-0.4c-0.2-0.1-0.4-0.2-0.7-0.1c-0.2,0.1-0.4,0.3-0.5,0.5
				c0,0.2,0,0.3,0.2,0.4C68.2,16.1,68.4,16,68.4,15.8L68.4,15.8z"/>
		</g>
	</g>
</g>
<g>
	<g>
		<g>
			<path class="st0" d="M79,16.9c0.1-0.1,0.3-0.2,0.5-0.2c0,0,0.2,0.1,0.2,0.2c-0.1,0.1-0.1,0.4,0.1,0.5c0.3,0.1,0.6,0.1,0.8-0.1
				c0.3-0.3-0.1-0.7-0.4-0.4c0,0-0.1,0-0.1,0c0,0.2,0,0.3,0.1,0.5c0.3-0.3,0.2-0.8-0.1-1c-0.4-0.3-0.9-0.2-1.3,0.1
				C78.3,16.6,78.6,17.2,79,16.9L79,16.9z"/>
		</g>
	</g>
</g>
<g>
	<g>
		<g>
			<path class="st0" d="M87.4,23.9c-0.1,0-0.1,0-0.1,0.1c0,0,0,0.1,0,0.1c0,0.1,0.1,0.2,0.1,0.3c0.1,0.1,0.4,0.3,0.3,0.5
				c-0.2,0.3,0.3,0.6,0.5,0.3c0.3-0.5-0.2-0.9-0.4-1.3c-0.2-0.4-0.7-0.7-1-0.2C86.7,24,87.2,24.3,87.4,23.9L87.4,23.9z"/>
		</g>
	</g>
</g>
<g>
	<g>
		<g>
			<path class="st0" d="M88.7,29.1C88.7,29,88.6,29.1,88.7,29.1C88.6,29.1,88.6,29.1,88.7,29.1C88.6,29.1,88.6,29.1,88.7,29.1
				C88.7,29.1,88.7,29.1,88.7,29.1C88.6,29.1,88.6,29.1,88.7,29.1C88.6,29,88.6,29,88.7,29.1c-0.1,0.1,0,0.3,0.2,0.4
				c0.2,0,0.3,0,0.4-0.2c0.2-0.5-0.4-0.9-0.8-0.7c-0.1,0.1-0.2,0.3-0.1,0.4C88.3,29.1,88.5,29.2,88.7,29.1L88.7,29.1z"/>
		</g>
	</g>
</g>
<g>
	<g>
		<g>
			<path class="st0" d="M41.4,27.3c-1.1,0.7-0.8,1.8-0.9,2.9c0,0.7-0.2,1.1-0.4,1.7c-0.1,0.3-0.3,0.5-0.3,0.8
				c-0.1,0.8,0.8,2.3-0.1,2.7c-0.3,0.2,0,0.7,0.3,0.5c1.1-0.6,0.5-1.5,0.4-2.5c-0.1-1,0.5-1.5,0.7-2.4c0.2-1-0.5-2.5,0.6-3.2
				C42,27.6,41.7,27.1,41.4,27.3L41.4,27.3z"/>
		</g>
	</g>
</g>
<g>
	<path class="st0" d="M68.5,73.6c-0.8,0-1.4-0.5-1.4-1.2c0-0.7,0.6-1.2,1.4-1.2c0.8,0,1.4,0.5,1.4,1.2C70,73.1,69.3,73.6,68.5,73.6z
		 M68.5,71.6c-0.6,0-1.1,0.4-1.1,0.9c0,0.5,0.5,0.9,1.1,0.9c0.6,0,1.1-0.4,1.1-0.9C69.6,71.9,69.1,71.6,68.5,71.6z"/>
</g>
<g>
	<path class="st0" d="M71.2,73.5c-0.8,0-1.4-0.5-1.4-1.2c0-0.7,0.6-1.2,1.4-1.2c0.8,0,1.4,0.5,1.4,1.2C72.6,73,72,73.5,71.2,73.5z
		 M71.2,71.4c-0.6,0-1.1,0.4-1.1,0.9s0.5,0.9,1.1,0.9s1.1-0.4,1.1-0.9S71.8,71.4,71.2,71.4z"/>
</g>
<g>
	<path class="st0" d="M73.3,73c-0.8,0-1.4-0.5-1.4-1.2c0-0.7,0.6-1.2,1.4-1.2c0.8,0,1.4,0.5,1.4,1.2C74.7,72.5,74.1,73,73.3,73z
		 M73.3,70.9c-0.6,0-1.1,0.4-1.1,0.9c0,0.5,0.5,0.9,1.1,0.9s1.1-0.4,1.1-0.9C74.3,71.3,73.9,70.9,73.3,70.9z"/>
</g>
<g>
	<path class="st0" d="M76,72.8c-0.7,0-1.3-0.4-1.4-1c-0.1-0.3,0-0.6,0.2-0.8c0.2-0.3,0.6-0.5,1-0.5c0.7-0.1,1.5,0.4,1.6,1l0,0
		c0.1,0.3,0,0.6-0.2,0.8c-0.2,0.3-0.6,0.5-1,0.5C76.2,72.8,76.1,72.8,76,72.8z M76.1,70.7c-0.1,0-0.1,0-0.2,0
		c-0.3,0-0.6,0.2-0.7,0.4C75,71.3,75,71.5,75,71.7c0.1,0.5,0.6,0.8,1.2,0.7c0.3,0,0.6-0.2,0.7-0.4c0.1-0.2,0.2-0.4,0.1-0.6l0,0
		C77,71.1,76.6,70.7,76.1,70.7z"/>
</g>
<g>
	<path class="st0" d="M80.9,71.2c-0.7,0-1.3-0.4-1.4-1c-0.1-0.3,0-0.6,0.2-0.8c0.2-0.3,0.6-0.5,1-0.5c0.7-0.1,1.5,0.4,1.6,1l0,0
		c0.1,0.3,0,0.6-0.2,0.8c-0.2,0.3-0.6,0.5-1,0.5C81,71.2,81,71.2,80.9,71.2z M80.9,69.1c-0.1,0-0.1,0-0.2,0c-0.3,0-0.6,0.2-0.7,0.4
		c-0.1,0.2-0.2,0.4-0.1,0.6c0.1,0.5,0.6,0.8,1.2,0.7c0.3,0,0.6-0.2,0.7-0.4c0.1-0.2,0.2-0.4,0.1-0.6C81.9,69.5,81.4,69.1,80.9,69.1z
		"/>
</g>
<g>
	<path class="st0" d="M78.5,72c-0.7,0-1.3-0.4-1.4-1c-0.1-0.3,0-0.6,0.2-0.8c0.2-0.3,0.6-0.5,1-0.5c0.7-0.1,1.5,0.4,1.6,1l0,0
		c0.1,0.3,0,0.6-0.2,0.8c-0.2,0.3-0.6,0.5-1,0.5C78.7,72,78.6,72,78.5,72z M78.6,69.9c-0.1,0-0.1,0-0.2,0c-0.3,0-0.6,0.2-0.7,0.4
		c-0.1,0.2-0.2,0.4-0.1,0.6c0.1,0.5,0.6,0.8,1.2,0.7c0.3,0,0.6-0.2,0.7-0.4c0.1-0.2,0.2-0.4,0.1-0.6C79.5,70.2,79.1,69.9,78.6,69.9z
		"/>
</g>
<g>
	<path class="st0" d="M83.1,70.2c-0.8,0-1.4-0.5-1.4-1.2s0.6-1.2,1.4-1.2c0.8,0,1.4,0.5,1.4,1.2S83.9,70.2,83.1,70.2z M83.1,68.1
		c-0.6,0-1.1,0.4-1.1,0.9s0.5,0.9,1.1,0.9c0.6,0,1.1-0.4,1.1-0.9S83.7,68.1,83.1,68.1z"/>
</g>
<g>
	<path class="st0" d="M65.8,73.7c-0.8,0-1.4-0.5-1.4-1.2c0-0.7,0.6-1.2,1.4-1.2c0.8,0,1.4,0.5,1.4,1.2
		C67.2,73.1,66.6,73.7,65.8,73.7z M65.8,71.6c-0.6,0-1.1,0.4-1.1,0.9c0,0.5,0.5,0.9,1.1,0.9s1.1-0.4,1.1-0.9
		C66.8,72,66.4,71.6,65.8,71.6z"/>
</g>
<g>
	<path class="st0" d="M85.4,69c-0.8,0-1.4-0.5-1.4-1.2s0.6-1.2,1.4-1.2c0.8,0,1.4,0.5,1.4,1.2S86.2,69,85.4,69z M85.4,67
		c-0.6,0-1.1,0.4-1.1,0.9s0.5,0.9,1.1,0.9c0.6,0,1.1-0.4,1.1-0.9S86,67,85.4,67z"/>
</g>
<g>
	<path class="st0" d="M58.5,73c-0.8,0-1.4-0.5-1.4-1.2c0-0.7,0.6-1.2,1.4-1.2s1.4,0.5,1.4,1.2C59.9,72.5,59.2,73,58.5,73z
		 M58.5,70.9c-0.6,0-1.1,0.4-1.1,0.9c0,0.5,0.5,0.9,1.1,0.9c0.6,0,1.1-0.4,1.1-0.9C59.5,71.3,59,70.9,58.5,70.9z"/>
</g>
<g>
	<path class="st0" d="M60.7,73.3c-0.8,0-1.4-0.5-1.4-1.2c0-0.7,0.6-1.2,1.4-1.2s1.4,0.5,1.4,1.2C62.1,72.7,61.5,73.3,60.7,73.3z
		 M60.7,71.2c-0.6,0-1.1,0.4-1.1,0.9c0,0.5,0.5,0.9,1.1,0.9s1.1-0.4,1.1-0.9C61.8,71.6,61.3,71.2,60.7,71.2z"/>
</g>
<g>
	<path class="st0" d="M63.2,73.6c-0.8,0-1.4-0.5-1.4-1.2c0-0.7,0.6-1.2,1.4-1.2s1.4,0.5,1.4,1.2C64.6,73.1,64,73.6,63.2,73.6z
		 M63.2,71.5c-0.6,0-1.1,0.4-1.1,0.9c0,0.5,0.5,0.9,1.1,0.9c0.6,0,1.1-0.4,1.1-0.9C64.3,71.9,63.8,71.5,63.2,71.5z"/>
</g>
<g>
	<path class="st0" d="M50.7,71.8c-0.8,0-1.4-0.5-1.4-1.2s0.6-1.2,1.4-1.2s1.4,0.5,1.4,1.2S51.5,71.8,50.7,71.8z M50.7,69.7
		c-0.6,0-1.1,0.4-1.1,0.9s0.5,0.9,1.1,0.9c0.6,0,1.1-0.4,1.1-0.9S51.3,69.7,50.7,69.7z"/>
</g>
<g>
	<path class="st0" d="M53.3,72.2c-0.8,0-1.4-0.5-1.4-1.2s0.6-1.2,1.4-1.2s1.4,0.5,1.4,1.2S54.1,72.2,53.3,72.2z M53.3,70.1
		c-0.6,0-1.1,0.4-1.1,0.9s0.5,0.9,1.1,0.9c0.6,0,1.1-0.4,1.1-0.9S53.9,70.1,53.3,70.1z"/>
</g>
<g>
	<path class="st0" d="M55.8,72.6c-0.8,0-1.4-0.5-1.4-1.2c0-0.7,0.6-1.2,1.4-1.2s1.4,0.5,1.4,1.2C57.3,72.1,56.6,72.6,55.8,72.6z
		 M55.8,70.5c-0.6,0-1.1,0.4-1.1,0.9c0,0.5,0.5,0.9,1.1,0.9c0.6,0,1.1-0.4,1.1-0.9C56.9,70.9,56.4,70.5,55.8,70.5z"/>
</g>
<g>
	<path class="st0" d="M43.4,69.6c-0.8,0-1.4-0.5-1.4-1.2s0.6-1.2,1.4-1.2s1.4,0.5,1.4,1.2S44.2,69.6,43.4,69.6z M43.4,67.5
		c-0.6,0-1.1,0.4-1.1,0.9s0.5,0.9,1.1,0.9c0.6,0,1.1-0.4,1.1-0.9S44,67.5,43.4,67.5z"/>
</g>
<g>
	<path class="st0" d="M46,70.4c-0.8,0-1.4-0.5-1.4-1.2c0-0.7,0.6-1.2,1.4-1.2s1.4,0.5,1.4,1.2C47.5,69.9,46.8,70.4,46,70.4z
		 M46,68.3c-0.6,0-1.1,0.4-1.1,0.9s0.5,0.9,1.1,0.9c0.6,0,1.1-0.4,1.1-0.9S46.6,68.3,46,68.3z"/>
</g>
<g>
	<path class="st0" d="M48.5,71.2c-0.8,0-1.4-0.5-1.4-1.2c0-0.7,0.6-1.2,1.4-1.2s1.4,0.5,1.4,1.2C49.9,70.6,49.2,71.2,48.5,71.2z
		 M48.5,69.1c-0.6,0-1.1,0.4-1.1,0.9c0,0.5,0.5,0.9,1.1,0.9c0.6,0,1.1-0.4,1.1-0.9C49.5,69.5,49,69.1,48.5,69.1z"/>
</g>
<g>
	<path class="st0" d="M39.5,67.4c-0.8,0-1.4-0.5-1.4-1.2s0.6-1.2,1.4-1.2s1.4,0.5,1.4,1.2S40.3,67.4,39.5,67.4z M39.5,65.4
		c-0.6,0-1.1,0.4-1.1,0.9s0.5,0.9,1.1,0.9s1.1-0.4,1.1-0.9S40.1,65.4,39.5,65.4z"/>
</g>
<g>
	<path class="st0" d="M41.4,68.5c-0.8,0-1.4-0.5-1.4-1.2s0.6-1.2,1.4-1.2s1.4,0.5,1.4,1.2S42.1,68.5,41.4,68.5z M41.4,66.4
		c-0.6,0-1.1,0.4-1.1,0.9s0.5,0.9,1.1,0.9c0.6,0,1.1-0.4,1.1-0.9S41.9,66.4,41.4,66.4z"/>
</g>
</svg>
