<?xml version="1.0" encoding="utf-8"?>
<!-- Generator: Adobe Illustrator 24.0.1, SVG Export Plug-In . SVG Version: 6.00 Build 0)  -->
<svg version="1.1" id="Layer_1" xmlns="http://www.w3.org/2000/svg" xmlns:xlink="http://www.w3.org/1999/xlink" x="0px" y="0px"
	 viewBox="0 0 141.7 141.7" style="enable-background:new 0 0 141.7 141.7;" xml:space="preserve">
<style type="text/css">
	.st0{fill:#070707;}
</style>
<g id="Layer_1_1_">
</g>
<g id="Layer_1_2_">
</g>
<g id="Layer_1_3_">
</g>
<g id="Layer_1_4_">
</g>
<g id="Layer_1_5_">
</g>
<g id="Layer_3">
</g>
<g id="Layer_3_1_">
</g>
<g>
	<g>
		<g>
			<path class="st0" d="M89.3,120.3c3.8-1.5,7.2-3.7,10.3-6.3c0.3-0.2-0.1-0.7-0.4-0.4c-3.1,2.5-6.3,4.7-10,6.2
				C88.7,119.9,88.9,120.5,89.3,120.3L89.3,120.3z"/>
		</g>
	</g>
</g>
<g>
	<g>
		<g>
			<path class="st0" d="M40.2,72.7c0.6,8-0.5,16.2,1.4,24.1c0.1,0.4,0.7,0.2,0.6-0.2c-1.8-7.9-0.7-16-1.3-23.9
				C40.7,72.3,40.1,72.3,40.2,72.7L40.2,72.7z"/>
		</g>
	</g>
</g>
<g>
	<g>
		<g>
			<path class="st0" d="M53.8,31.6C47.5,34.2,43,39.6,41,46c-2.4,7.5-1.8,15.9-1,23.6c0,0.4,0.6,0.4,0.6,0
				c-0.8-7.3-1.3-15.1,0.7-22.3c1.8-6.7,6.3-12.4,12.7-15.1C54.3,32,54.1,31.5,53.8,31.6L53.8,31.6z"/>
		</g>
	</g>
</g>
<g>
	<g>
		<g>
			<path class="st0" d="M64.1,29.7c-0.8,0.1-1.7,0.2-2.5,0.3c-0.4,0-0.4,0.6,0,0.6c0.8-0.1,1.7-0.2,2.5-0.3
				C64.5,30.3,64.5,29.7,64.1,29.7L64.1,29.7z"/>
		</g>
	</g>
</g>
<g>
	<g>
		<g>
			<path class="st0" d="M77.4,29.4c-3.3-0.4-6.7-0.4-10,0c-0.4,0-0.4,0.6,0,0.6c3.3-0.3,6.7-0.4,10,0C77.7,30.1,77.7,29.5,77.4,29.4
				L77.4,29.4z"/>
		</g>
	</g>
</g>
<g>
	<g>
		<g>
			<path class="st0" d="M87.5,33c-1.5-0.9-3.1-1.7-4.8-2.3c-0.4-0.1-0.5,0.5-0.2,0.6c1.6,0.6,3.2,1.3,4.6,2.3
				C87.6,33.7,87.9,33.2,87.5,33L87.5,33z"/>
		</g>
	</g>
</g>
<g>
	<g>
		<g>
			<path class="st0" d="M93.8,39.7c-0.4-0.8-0.9-1.5-1.4-2.2c-0.2-0.3-0.7,0-0.5,0.3c0.5,0.7,1,1.5,1.4,2.2
				C93.5,40.3,94,40,93.8,39.7L93.8,39.7z"/>
		</g>
	</g>
</g>
<g>
	<g>
		<g>
			<path class="st0" d="M59.2,31c0.4,0,0.4-0.6,0-0.6C58.8,30.4,58.8,31,59.2,31L59.2,31z"/>
		</g>
	</g>
</g>
<g>
	<g>
		<g>
			<path class="st0" d="M40.7,47.1c-4.1-0.6-6.7-4.9-4.3-8.6c1.1-1.7,2.9-2.8,4.7-3.2c1.9-0.4,4.4-0.4,5.7,1.2
				c0.2,0.3,0.7-0.1,0.4-0.4c-1.4-1.7-3.8-1.7-5.8-1.5c-2.3,0.3-4.4,1.6-5.6,3.5c-2.6,4,0.2,8.8,4.7,9.5
				C40.9,47.7,41.1,47.1,40.7,47.1L40.7,47.1z"/>
		</g>
	</g>
</g>
<g>
	<g>
		<g>
			<path class="st0" d="M91.7,34.3c3.3-1,7.2-0.9,8.8,2.7c1.6,3.5,0.1,8.1-4,8.8c-0.4,0.1-0.2,0.6,0.2,0.6c4.3-0.7,6-5.7,4.4-9.4
				c-1.7-4-5.9-4.3-9.6-3.2C91.2,33.8,91.4,34.4,91.7,34.3L91.7,34.3z"/>
		</g>
	</g>
</g>
<g>
	<g>
		<g>
			<path class="st0" d="M65,52.2c0.1,0,0.2,0,0.3,0c0-0.1,0-0.2-0.1-0.3c-0.3,0.1-0.6,0.1-0.8,0.2c-0.5,0.2-0.9,0.6-1.3,0.9
				c-0.7,0.6-1.5,1.4-1.8,2.3c-0.7,2.1,2,3.2,3.7,3c1.4-0.1,2.7-0.7,4.1-0.9c1.4-0.2,2.6,0.4,4,0.7c1.8,0.4,3.6-0.6,3.3-2.7
				c-0.3-2.2-3.1-3.3-4.9-4c-0.2-0.1-0.3,0.2-0.1,0.3c1.8,0.7,5.3,2.2,4.6,4.7c-0.8,2.9-4.5,0.6-6.5,0.7c-1.2,0-2.3,0.5-3.4,0.8
				c-1.5,0.4-4.1,0.4-4.6-1.4c-0.3-1.2,0.8-2.3,1.6-3c0.5-0.4,1-0.8,1.6-1.1c0.2-0.1,0.5-0.1,0.7-0.2c0.1-0.1,0.1-0.3-0.1-0.3
				c-0.1,0-0.2,0-0.3,0C64.7,52,64.8,52.3,65,52.2L65,52.2z"/>
		</g>
	</g>
</g>
<g>
	<g>
		<g>
			<path class="st0" d="M72.2,58c0.5,1.2,0.7,2.7,0.4,4c-0.3,1-1.2,1.7-2.3,1.4c-0.8-0.2-0.9-0.9-1.3-1.5c-0.1-0.2-0.3,0-0.3,0.1
				c0.3,0.6,0.5,1.4,1.2,1.7c0.6,0.2,1.4,0,1.9-0.3c1.6-1.1,1.1-4,0.5-5.5C72.4,57.7,72.1,57.8,72.2,58L72.2,58z"/>
		</g>
	</g>
</g>
<g>
	<g>
		<g>
			<path class="st0" d="M106.3,111.4c2.5,1.2,5.7,5.2,8.8,3.4c1.3-0.8,1.9-2.3,1.4-3.8c-0.6-1.6-2.2-2.7-3.6-3.6
				c-0.2-0.1-0.3,0.2-0.1,0.3c1.3,0.7,2.6,1.7,3.3,3c1,1.9-0.3,4.2-2.5,4.2c-2.6,0-4.7-2.7-7-3.8
				C106.3,111.1,106.1,111.3,106.3,111.4L106.3,111.4z"/>
		</g>
	</g>
</g>
<g>
	<g>
		<g>
			<path class="st0" d="M115.6,114.2c0.4-1.9-0.9-3.4-2.6-4.2c-0.2-0.1-0.3,0.2-0.1,0.3c1.5,0.7,2.8,2.1,2.4,3.9
				C115.2,114.3,115.5,114.4,115.6,114.2L115.6,114.2z"/>
		</g>
	</g>
</g>
<g>
	<g>
		<path class="st0" d="M109.2,99.2C109.1,99.3,109.1,99.3,109.2,99.2c-0.1,0.1-0.2,0.2-0.2,0.2c1.4,0.9,2.4,2.5,2.7,4.1
			c0.1,0.5,0.1,1,0.1,1.5c0.1,0,0.2,0,0.3,0c0,0,0,0,0,0C112.3,103,111,100.5,109.2,99.2z"/>
	</g>
</g>
<g>
	<g>
		<g>
			<path class="st0" d="M101.2,69c-1.6,0.5-2.7,1.7-3.6,3c-0.1,0.1,0.1,0.4,0.2,0.2c1-1.2,2-2.4,3.5-2.9
				C101.4,69.2,101.3,68.9,101.2,69L101.2,69z"/>
		</g>
	</g>
</g>
<g>
	<g>
		<g>
			<path class="st0" d="M97.9,76.2c2.8-0.1,5.4-1.6,6.1-4.4c0-0.2-0.2-0.3-0.3-0.1c-0.6,2.7-3.1,4.1-5.8,4.2
				C97.7,75.9,97.7,76.2,97.9,76.2L97.9,76.2z"/>
		</g>
	</g>
</g>
<g>
	<g>
		<g>
			<path class="st0" d="M100.9,72.1c1.2-0.6,2.3-1.8,1.5-3.1c-0.1-0.2-0.4,0-0.3,0.1c0.7,1.2-0.3,2.2-1.3,2.7
				C100.6,71.9,100.7,72.2,100.9,72.1L100.9,72.1z"/>
		</g>
	</g>
</g>
<g>
	<path class="st0" d="M79.8,52.1c-5,0-9.1-4.1-9.1-9.1s4.1-9.1,9.1-9.1s9.1,4.1,9.1,9.1S84.9,52.1,79.8,52.1z M79.8,34.1
		c-4.8,0-8.8,3.9-8.8,8.8s3.9,8.8,8.8,8.8s8.8-3.9,8.8-8.8S84.7,34.1,79.8,34.1z"/>
</g>
<g>
	<path class="st0" d="M57.3,53c-5,0-9.1-4.1-9.1-9.1s4.1-9.1,9.1-9.1s9.1,4.1,9.1,9.1S62.3,53,57.3,53z M57.3,35.1
		c-4.8,0-8.8,3.9-8.8,8.8s3.9,8.8,8.8,8.8s8.8-3.9,8.8-8.8S62.1,35.1,57.3,35.1z"/>
</g>
<g>
	<path class="st0" d="M97,39.4c0-1.1-0.8-1.9-1.9-1.9s-1.9,0.8-1.9,1.9s0.8,1.9,1.9,1.9S97,40.4,97,39.4z"/>
</g>
<g>
	<circle class="st0" cx="41.8" cy="41.1" r="1.9"/>
</g>
<g>
	<path class="st0" d="M72.6,51.2c0-1.2-1.8-2.2-4-2.2c-2.2,0-4,1-4,2.2c0,1.2,1.8,2.2,4,2.2C70.8,53.4,72.6,52.4,72.6,51.2z"/>
</g>
<g>
	<path class="st0" d="M75.7,43c-1.6,0-2.9,1.3-2.9,2.9c0,1.6,1.3,2.9,2.9,2.9c1.6,0,2.9-1.3,2.9-2.9C78.6,44.3,77.3,43,75.7,43z
		 M76.9,47.8c-0.5,0-0.8-0.4-0.8-0.8c0-0.5,0.4-0.8,0.8-0.8c0.5,0,0.8,0.4,0.8,0.8C77.7,47.4,77.3,47.8,76.9,47.8z"/>
</g>
<g>
	<path class="st0" d="M52.9,43.5c-1.6,0-2.9,1.3-2.9,2.9c0,1.6,1.3,2.9,2.9,2.9c1.6,0,2.9-1.3,2.9-2.9
		C55.8,44.8,54.5,43.5,52.9,43.5z M54.1,48.3c-0.5,0-0.8-0.4-0.8-0.8c0-0.5,0.4-0.8,0.8-0.8c0.5,0,0.8,0.4,0.8,0.8
		C54.9,47.9,54.5,48.3,54.1,48.3z"/>
</g>
<g>
	<g>
		<g>
			<path class="st0" d="M68.8,57.4c0.2,1.2,0.2,2.6,0,3.8c-0.1,0.7-0.2,1.5-0.8,2c-0.6,0.6-1.6,0.6-2.3,0c-1.2-1.1-0.8-3.6-0.4-5
				c0-0.2-0.2-0.3-0.3-0.1c-0.5,1.7-0.9,5.1,1.3,5.8c3.3,0.9,3-4.8,2.7-6.5C69.1,57.1,68.8,57.2,68.8,57.4L68.8,57.4z"/>
		</g>
	</g>
</g>
<g>
	<g>
		<g>
			<path class="st0" d="M40.6,76.4c-1.6,0.3-3.2-0.3-4.5-1.2c-1.1-0.7-2.9-2.5-1.1-3.5c0.2-0.1,0-0.4-0.1-0.3
				c-1.5,0.8-0.9,2.3,0.1,3.3c1.4,1.4,3.6,2.4,5.7,2C40.9,76.6,40.8,76.3,40.6,76.4L40.6,76.4z"/>
		</g>
	</g>
</g>
<g>
	<g>
		<g>
			<path class="st0" d="M36.6,72.6c-1.1-0.6-1.7-2.3,0-2.3c1.5,0,2.8,1.3,3.7,2.4c0.1,0.1,0.3-0.1,0.2-0.2c-1-1.2-3.1-3.3-4.8-2.3
				c-1.2,0.7-0.1,2.2,0.7,2.6C36.6,73,36.8,72.7,36.6,72.6L36.6,72.6z"/>
		</g>
	</g>
</g>
<g>
	<g>
		<g>
			<path class="st0" d="M110.3,98.5c-1.1-3.7-1.2-7.9-4.4-10.6c-0.3-0.2-0.7,0.2-0.4,0.4c3.1,2.6,3.2,6.7,4.2,10.3
				C109.8,99,110.4,98.9,110.3,98.5L110.3,98.5z"/>
		</g>
	</g>
</g>
<g>
	<g>
		<g>
			<path class="st0" d="M97.2,70.2c0,4.3,0.9,8.5,3.5,11.9c0.2,0.3,0.6-0.1,0.4-0.4c-2.6-3.3-3.4-7.4-3.4-11.5
				C97.8,69.8,97.2,69.8,97.2,70.2L97.2,70.2z"/>
		</g>
	</g>
</g>
<g>
	<g>
		<g>
			<path class="st0" d="M92.8,39c5.2,8.1,4.8,18,4.4,27.2c0,0.4,0.6,0.4,0.6,0c0.4-9.3,0.8-19.4-4.5-27.5
				C93.1,38.4,92.6,38.7,92.8,39L92.8,39z"/>
		</g>
	</g>
</g>
<g>
	<g>
		<g>
			<path class="st0" d="M93.5,67.2c1.3-0.3,2.7-0.6,4-0.7c0.4,0,0.4-0.6,0-0.6c-1.4,0.1-2.8,0.4-4.2,0.7
				C92.9,66.8,93.1,67.3,93.5,67.2L93.5,67.2z"/>
		</g>
	</g>
</g>
<g>
	<g>
		<g>
			<path class="st0" d="M40.2,70c3.4,0.3,6.5,1.6,9.7,2.8c1.5,0.6,3.1,1.1,4.7,1.5c1.8,0.4,3.7,0.6,5.6,1c2.7,0.5,6,1.5,8,3.4
				c0.8,0.7,1.5,1.6,2.1,2.4c0.4,0.6,1.4,1.8,1.1,2.6c-0.1,0.3,0.4,0.5,0.6,0.2c3.4-6.4,8.8-11.5,15.4-14.5c0.4-0.2,0-0.7-0.3-0.5
				c-6.6,3.1-12.1,8.3-15.6,14.8c0.2,0.1,0.4,0.1,0.6,0.2c0.6-1.6-1.7-3.9-2.6-4.9c-1.8-2-4.5-3-7-3.8c-1.9-0.6-3.9-0.8-5.8-1.1
				c-1.9-0.3-3.8-0.9-5.7-1.6c-3.5-1.3-6.9-2.8-10.6-3.1C39.8,69.4,39.8,70,40.2,70L40.2,70z"/>
		</g>
	</g>
</g>
<g>
	<g>
		<g>
			<path class="st0" d="M71.3,83.6c-1.3,0-4.4,0.9-4.1,2.7c0.2,0.9,1.3,1.1,2,1.2c1.3,0.2,2.6,0.3,4,0.2c1.3-0.1,4.2-0.4,4-2.4
				c-0.1-0.7-0.7-1.1-1.3-1.3c-1.3-0.5-2.6-0.6-3.9-0.6c-0.4,0-0.4,0.6,0,0.6c1.1,0,2.6,0,3.6,0.5c0.1,0,0.3,0.1,0.4,0.1
				c0.1,0.5,0.3,1,0.4,1.5c-0.1,0.3-0.8,0.5-1.1,0.6C74.4,87,73.6,87,73,87.1c-1.3,0.1-2.5,0-3.8-0.2c-0.7-0.1-0.6,0-0.8-0.9
				c-0.1-0.8-0.1-0.9,0.6-1.2c0.7-0.4,1.5-0.6,2.3-0.6C71.7,84.2,71.7,83.6,71.3,83.6L71.3,83.6z"/>
		</g>
	</g>
</g>
<g>
	<g>
		<g>
			<path class="st0" d="M94.7,71.2c1.5-0.5,3.7-1.1,4.3-2.7c0.4-1.1-0.2-2.6-1.6-2.5c-0.4,0-0.4,0.6,0,0.6c1.4-0.2,1.2,1.7,0.5,2.4
				c-0.9,0.9-2.2,1.2-3.4,1.6C94.2,70.8,94.4,71.3,94.7,71.2L94.7,71.2z"/>
		</g>
	</g>
</g>
<g>
	<g>
		<g>
			<path class="st0" d="M73.5,84c5.4-2.3,8.6-7.6,13.7-10.4c0.3-0.2,0-0.7-0.3-0.5c-5.1,2.8-8.2,8.1-13.6,10.4
				C73,83.6,73.1,84.2,73.5,84L73.5,84z"/>
		</g>
	</g>
</g>
<g>
	<g>
		<g>
			<path class="st0" d="M69.8,83.6c-4.6-3.2-9.6-5.5-14.8-7.4c-2.6-0.9-5.2-1.7-7.9-2.5c-1.4-0.4-2.7-0.8-4.1-1.1
				c-0.5-0.1-1.1-0.2-1.6-0.4c-0.3-0.1-0.7-0.2-1-0.4c-0.7-0.4-0.8-1.5,0-1.9c0.4-0.2,0-0.7-0.3-0.5c-0.7,0.3-1.2,1-1,1.9
				c0.3,0.9,1.4,1.3,2.2,1.5c3.1,0.8,6.3,1.6,9.4,2.6c6.6,2.1,13,4.7,18.7,8.7C69.8,84.4,70.1,83.9,69.8,83.6L69.8,83.6z"/>
		</g>
	</g>
</g>
<g>
	<g>
		<g>
			<path class="st0" d="M68.7,83.2c-0.4-0.6-1.2-0.6-1.7-0.1c-0.5,0.5-0.7,1.5-0.2,2c0.4,0.4,1.2,0.4,1.7,0c0.5-0.5,0.4-1.4,0.1-2
				c-0.2-0.3-0.7,0-0.5,0.3c0.2,0.3,0.3,0.8,0.1,1.1c-0.1,0.3-0.5,0.4-0.8,0.3c-0.4-0.2-0.2-0.8,0-1.1c0.2-0.3,0.6-0.5,0.9-0.2
				C68.4,83.8,68.9,83.5,68.7,83.2L68.7,83.2z"/>
		</g>
	</g>
</g>
<g>
	<g>
		<g>
			<path class="st0" d="M66.9,84.7c-1-0.5-2.1,0.3-1.9,1.4c0.3,1.2,1.7,1.4,2.5,0.5c0.3-0.3-0.2-0.7-0.4-0.4
				c-0.4,0.5-1.2,0.5-1.4-0.2c-0.2-0.6,0.4-1.2,1-0.8C66.9,85.4,67.2,84.9,66.9,84.7L66.9,84.7z"/>
		</g>
	</g>
</g>
<g>
	<g>
		<g>
			<path class="st0" d="M66.7,86.6c-0.4,0.4-0.9,0.9-0.9,1.5c0,0.5,0.4,0.9,0.9,1c1.2,0.3,2.2-0.9,1.8-2c-0.1-0.4-0.7-0.2-0.6,0.2
				c0.3,0.7-0.2,1.5-1,1.3c-0.9-0.2-0.1-1.2,0.2-1.5C67.4,86.8,67,86.4,66.7,86.6L66.7,86.6z"/>
		</g>
	</g>
</g>
<g>
	<g>
		<g>
			<path class="st0" d="M69.1,87.2c-0.7,0.1-1.3,0.8-1.3,1.5c0,0.7,0.5,1.3,1.2,1.5c1.6,0.3,2.3-1.8,1.1-2.7
				c-0.3-0.2-0.6,0.3-0.3,0.5c0.7,0.6,0.2,1.8-0.7,1.6c-1-0.3-0.8-1.6,0.2-1.7C69.6,87.7,69.5,87.1,69.1,87.2L69.1,87.2z"/>
		</g>
	</g>
</g>
<g>
	<g>
		<g>
			<path class="st0" d="M71,87.4c-1.3,1.1-0.4,3.3,1.3,2.9c0.7-0.2,1.2-0.8,1.1-1.6c-0.1-0.8-0.9-1.3-1.7-1.2
				c-0.4,0-0.2,0.6,0.2,0.6c0.5-0.1,1,0.5,0.9,0.9c0,0.5-0.5,0.7-0.9,0.7c-1.1,0-1.2-1.3-0.5-1.9C71.8,87.6,71.3,87.2,71,87.4
				L71,87.4z"/>
		</g>
	</g>
</g>
<g>
	<g>
		<g>
			<path class="st0" d="M73.9,87.4c-0.7,0.1-1.2,0.8-1.1,1.5c0.1,0.7,0.8,1.3,1.6,1.3s1.4-0.6,1.6-1.3c0.2-0.6,0-1.5-0.7-1.7
				c-0.4-0.1-0.5,0.5-0.2,0.6c0.5,0.1,0.5,0.7,0.3,1.1c-0.2,0.4-0.6,0.7-1,0.7c-1,0-1.4-1.4-0.3-1.6C74.5,87.9,74.3,87.3,73.9,87.4
				L73.9,87.4z"/>
		</g>
	</g>
</g>
<g>
	<g>
		<g>
			<path class="st0" d="M75.8,86.9c-0.5,0.3-0.6,1-0.2,1.4c0.4,0.6,1.2,0.6,1.7,0.3c0.6-0.3,1-0.9,0.9-1.6c-0.1-0.6-0.8-1-1.4-0.9
				c-0.4,0.1-0.2,0.7,0.2,0.6c0.3-0.1,0.6,0.2,0.6,0.6c0,0.3-0.2,0.6-0.5,0.8c-0.3,0.2-0.6,0.2-0.9,0c-0.2-0.1-0.3-0.5-0.1-0.7
				C76.4,87.1,76.1,86.6,75.8,86.9L75.8,86.9z"/>
		</g>
	</g>
</g>
<g>
	<g>
		<g>
			<path class="st0" d="M76.9,86.1c0.3,0.5,0.9,0.6,1.4,0.4c0.5-0.2,0.8-0.8,0.6-1.3c-0.2-0.6-0.7-0.9-1.3-0.8
				c-0.6,0.2-1,0.8-0.8,1.4c0.1,0.4,0.7,0.2,0.6-0.2c-0.1-0.3,0.1-0.6,0.5-0.7c0.3,0,0.5,0.2,0.6,0.4c0.1,0.6-0.6,0.8-1,0.4
				C77.1,85.5,76.6,85.8,76.9,86.1L76.9,86.1z"/>
		</g>
	</g>
</g>
<g>
	<g>
		<g>
			<path class="st0" d="M77,82.9c-0.4-0.6-1.1-0.1-1.2,0.4c-0.1,0.7,0.3,1.5,1,1.6c0.6,0.1,1.3-0.2,1.5-0.9c0.2-0.7-0.5-1.4-1.2-1.3
				c-0.4,0-0.4,0.6,0,0.6c0.3,0,0.7,0.2,0.6,0.6c0,0.3-0.3,0.5-0.6,0.5c-0.3,0-0.6-0.2-0.7-0.5c0-0.1-0.1-0.3-0.1-0.5
				c0-0.1,0-0.1,0.1-0.2c0.1,0,0.1,0,0-0.1C76.6,83.5,77.2,83.2,77,82.9L77,82.9z"/>
		</g>
	</g>
</g>
<g>
	<g>
		<g>
			<path class="st0" d="M74.7,83.9c-0.1-0.4,0.1-1,0.6-0.9c0.2,0,0.4,0.1,0.4,0.3s-0.2,0.4-0.4,0.3c-0.3-0.2-0.6,0.3-0.3,0.5
				c0.4,0.2,1,0,1.2-0.4c0.3-0.4,0.1-1-0.3-1.2c-0.4-0.2-0.9-0.2-1.3,0.1c-0.4,0.3-0.5,0.9-0.4,1.4C74.2,84.4,74.8,84.3,74.7,83.9
				L74.7,83.9z"/>
		</g>
	</g>
</g>
<g>
	<g>
		<g>
			<path class="st0" d="M67.8,86c1.7,0.5,3.5,0.6,5.4,0.4c1.1-0.1,2.9-0.2,3.6-1.2c0.2-0.3-0.3-0.6-0.5-0.3
				c-0.6,0.9-3.2,0.9-4.2,0.9c-1.4,0-2.8-0.1-4.1-0.5C67.6,85.4,67.5,85.9,67.8,86L67.8,86z"/>
		</g>
	</g>
</g>
<g>
	<g>
		<g>
			<path class="st0" d="M72.9,83.7c1.8-2.2,3.8-4.3,6-6.2c0.3-0.3-0.1-0.7-0.4-0.4c-2.2,1.9-4.2,4-6,6.2
				C72.2,83.6,72.6,84,72.9,83.7L72.9,83.7z"/>
		</g>
	</g>
</g>
<g>
	<g>
		<g>
			<path class="st0" d="M70.7,83.9c-1.8-2.6-3.6-6-7.1-6.4c-0.4,0-0.4,0.6,0,0.6c3.2,0.4,4.9,3.7,6.6,6.1
				C70.4,84.5,70.9,84.2,70.7,83.9L70.7,83.9z"/>
		</g>
	</g>
</g>
<g>
	<g>
		<g>
			<path class="st0" d="M76,96.2c-0.7-0.4-1.6-0.5-2.3,0c-0.6,0.4-0.9,1-0.5,1.6c0.4,0.6,1.2,0.7,1.8,0.5c0.8-0.3,1.3-0.9,1.5-1.7
				c0.1-0.4-0.5-0.5-0.6-0.2c-0.2,0.7-1.2,1.8-2,1.2c-0.6-0.4-0.1-1.1,0.5-1.2c0.4-0.1,0.9,0,1.3,0.2C76.1,96.9,76.4,96.4,76,96.2
				L76,96.2z"/>
		</g>
	</g>
</g>
<g>
	<g>
		<g>
			<path class="st0" d="M73.6,96.5c-1.2-1.1-2.3-2.2-3.5-3.3c-0.6-0.6-1.4-1.1-2.3-0.7c-0.8,0.3-1.2,1.1-1.3,1.9
				c-0.1,1.5,1.1,2.5,0.5,4c-0.4,1-0.9,1.7-0.8,2.8c0.1,0.9,0.6,1.9,1.5,2.4c0.9,0.5,1.5,0,2.1-0.7c1.2-1.3,2.3-2.6,3.5-3.9
				c0.3-0.3-0.2-0.7-0.4-0.4c-0.7,0.8-1.5,1.7-2.2,2.5c-0.5,0.6-1.2,1.7-1.8,2c-1.5,0.7-2.2-1.8-1.9-2.8c0.2-0.7,0.7-1.4,0.9-2.1
				c0.4-1.6-1.8-4.3,0.5-5c0.9-0.2,1.2,0.2,1.8,0.8c0.3,0.3,0.6,0.6,1,0.9c0.7,0.7,1.5,1.4,2.2,2.1C73.5,97.1,73.9,96.7,73.6,96.5
				L73.6,96.5z"/>
		</g>
	</g>
</g>
<g>
	<g>
		<g>
			<path class="st0" d="M76.9,96.6c0.3-1.7,1.1-5.5,3.7-4.1c1.2,0.7,0,2.1-0.1,3c0,0.3,0,0.6,0.2,1c0.5,1,1.5,1.5,2.1,2.4
				c0.4,0.6,0.5,1.2-0.6,1.5c-0.4,0.1-1-0.1-1.3-0.2c-1-0.2-1.9-0.6-2.8-1c-0.3-0.2-0.6,0.3-0.3,0.5c1.1,0.6,2.3,1,3.6,1.2
				c0.7,0.1,1.7,0.3,2.2-0.5c0.9-1.7-1.5-2.9-2.1-4c-0.6-1.2,0.6-2.2,0.4-3.4c-0.2-0.9-1.1-1.1-1.9-1.2c-2.5-0.3-3.2,2.8-3.5,4.7
				C76.2,96.8,76.8,97,76.9,96.6L76.9,96.6z"/>
		</g>
	</g>
</g>
<g>
	<g>
		<g>
			<path class="st0" d="M73.3,97.6c-1.5-0.7-3.2-0.7-4.7,0.1c-0.3,0.2,0,0.7,0.3,0.5c1.3-0.7,2.8-0.7,4.1-0.1
				C73.3,98.3,73.6,97.8,73.3,97.6L73.3,97.6z"/>
		</g>
	</g>
</g>
<g>
	<g>
		<g>
			<path class="st0" d="M72.9,98c-0.9,0.2-1.7,0.6-2.4,1.2c-0.3,0.2,0.1,0.7,0.4,0.4c0.6-0.5,1.3-0.9,2.1-1
				C73.4,98.5,73.2,98,72.9,98L72.9,98z"/>
		</g>
	</g>
</g>
<g>
	<g>
		<g>
			<path class="st0" d="M76.8,96.7c0.6-0.5,1.3-0.9,2.1-1c0.4-0.1,0.2-0.6-0.2-0.6c-0.9,0.1-1.7,0.6-2.4,1.2
				C76.1,96.6,76.5,97,76.8,96.7L76.8,96.7z"/>
		</g>
	</g>
</g>
<g>
	<g>
		<g>
			<path class="st0" d="M76.8,97.7c0.6-0.2,1.1,0,1.6,0.3c0.3,0.2,0.6-0.3,0.3-0.5c-0.6-0.5-1.3-0.6-2-0.4
				C76.3,97.2,76.5,97.8,76.8,97.7L76.8,97.7z"/>
		</g>
	</g>
</g>
<g>
	<g>
		<g>
			<path class="st0" d="M73.2,98.3c-0.9,1.5-1.5,3.1-1.9,4.8c0,0.2,0.1,0.4,0.4,0.4c1.1-0.2,1.7,0.6,2.3,1.3
				c0.2,0.2,0.6,0.2,0.6-0.1c-0.1-1.4-1.2-4.4,0-5.4c0.3-0.5,0.6-0.4,0.7,0.2c0.1,0.2,0.2,0.4,0.3,0.5c0.2,0.4,0.4,0.7,0.6,1.1
				c0.4,0.9,0.7,1.9,0.9,2.9c0,0.2,0.3,0.3,0.5,0.1c0.3-0.3,0.6-0.6,1.1-0.6c0.3,0,0.6,0,0.9-0.1c0.1-0.1,0.3-0.1,0.4-0.2
				c0.2-0.4-0.1-0.9-0.3-1.2c-0.8-1.6-2.1-2.9-3.6-3.8c-0.3-0.2-0.6,0.3-0.3,0.5c1.4,0.8,2.6,2,3.4,3.5c0.6,1.1,0.2,0.6-0.6,0.8
				c-0.5,0.1-1,0.4-1.3,0.8c0.2,0,0.3,0.1,0.5,0.1c-0.3-1.4-0.8-2.7-1.5-3.9c-0.3-0.6-0.9-1.8-1.7-1.6c-2.1,0.4-0.6,5.2-0.6,6.4
				c0.2,0,0.4-0.1,0.6-0.1c-0.8-1-1.6-1.9-3-1.6c0.1,0.1,0.2,0.2,0.4,0.4c0.3-1.7,0.9-3.2,1.8-4.7C73.9,98.3,73.4,98,73.2,98.3
				L73.2,98.3z"/>
		</g>
	</g>
</g>
<g>
	<g>
		<g>
			<path class="st0" d="M75,98.4c1.4,1.2,2.4,2.8,2.9,4.6c0.1,0.4,0.7,0.2,0.6-0.2c-0.6-1.9-1.6-3.5-3.1-4.8
				C75.1,97.8,74.7,98.2,75,98.4L75,98.4z"/>
		</g>
	</g>
</g>
<g>
	<g>
		<g>
			<path class="st0" d="M74.1,98.9c0.4-0.5-0.3-0.9-0.7-0.4c-0.7,0.8-1,2-1,3.1c0,0.4,0.6,0.4,0.6,0c0-0.5,0.1-1,0.3-1.4
				c0.1-0.3,0.4-1.2,0.7-1.4c-0.1,0-0.2,0-0.3,0c0,0,0,0,0,0c0-0.1,0-0.2,0.1-0.3c0,0,0,0,0,0C73.4,98.7,73.8,99.2,74.1,98.9
				L74.1,98.9z"/>
		</g>
	</g>
</g>
<g>
	<g>
		<g>
			<path class="st0" d="M81,95.1c4-0.5,7.2-3.2,10.1-5.8c3.2-2.9,6.3-5.9,8-9.9c0.2-0.4-0.4-0.6-0.5-0.3c-1.6,3.7-4.4,6.6-7.4,9.2
				c-2.9,2.7-6.2,5.6-10.3,6.2C80.6,94.5,80.6,95.1,81,95.1L81,95.1z"/>
		</g>
	</g>
</g>
<g>
	<g>
		<g>
			<path class="st0" d="M81.1,96.6c8-2.7,15-7.9,19.9-14.9c0.2-0.3-0.3-0.6-0.5-0.3C95.6,88.2,88.8,93.3,80.9,96
				C80.5,96.1,80.7,96.7,81.1,96.6L81.1,96.6z"/>
		</g>
	</g>
</g>
<g>
	<g>
		<g>
			<path class="st0" d="M67.2,96.8c-8.3,1.3-17,2.4-25.2-0.4c-0.4-0.1-0.5,0.5-0.2,0.6c8.2,2.9,17.1,1.7,25.5,0.4
				C67.8,97.3,67.6,96.7,67.2,96.8L67.2,96.8z"/>
		</g>
	</g>
</g>
<g>
	<g>
		<g>
			<path class="st0" d="M67.4,98c-4.1,1.3-8.2,2.2-12.5,2.5c-2,0.2-4,0.3-6.1,0.2c-2.3,0-4.3-0.5-6.5-0.9c-0.4-0.1-0.5,0.5-0.2,0.6
				c2.1,0.5,4,0.9,6.2,0.9c2.2,0.1,4.4,0,6.5-0.2c4.3-0.4,8.5-1.3,12.7-2.6C67.9,98.5,67.8,97.9,67.4,98L67.4,98z"/>
		</g>
	</g>
</g>
<g>
	<g>
		<g>
			<path class="st0" d="M44.8,110.6c-1.1,3.8-0.6,7.6,0.4,11.4c0.5,1.8,1,3.6,1.7,5.3c0.6,1.4,1.5,2,3,2.5c1.7,0.5,3.5-0.2,5.3-0.3
				c2.1-0.1,4.2-0.3,6.3-0.6c4.1-0.4,8.3-1,12.4-1.8c2.1-0.4,4.2-0.9,6.2-1.4c0.7-0.2,1.3-0.5,2-0.8c0.9-0.5,1.8-0.6,2.7-0.9
				c1.4-0.5,2.5-2.1,3.5-3.1c1.4-1.4,2.8-2.7,4.4-3.8c3.3-2.2,7.3-3.2,11-4.5c1.7-0.6,3.4-1.3,5-2.1c1.7-0.8,3.7-1.8,5.1-3
				c0.7-0.6,0.5-1.7-0.2-2.2c-1.5-1-3.7-1.2-5.5-1.4c-2.2-0.2-4.5-0.6-6.6-0.5c-2.4,0-4.9,0.5-7.3,0.3c-0.4,0-0.4,0.6,0,0.6
				c1.8,0.1,3.7-0.1,5.5-0.2c1.9-0.1,3.7,0,5.6,0.2c1.7,0.1,3.5,0.2,5.2,0.6c0.8,0.2,1.9,0.4,2.6,0.8c1.2,0.8,0,1.6-0.8,2.1
				c-2.9,1.9-6.1,3.3-9.3,4.5c-3.1,1.2-6.5,2-9.4,3.6c-2.8,1.6-5,3.9-7.1,6.2c-0.6,0.6-1.1,1.2-2.1,1.5c-0.5,0.1-1.1,0.2-1.6,0.5
				c-0.6,0.3-1.2,0.6-1.9,0.9c-1.1,0.4-2.3,0.6-3.4,0.9c-7.3,1.7-14.9,2.6-22.3,3.1c-2.1,0.1-4.1,0.9-6.1-0.1
				c-1.8-0.9-2.3-3.5-2.8-5.3c-1.2-4.1-2.1-8.5-0.9-12.7C45.4,110.4,44.9,110.2,44.8,110.6L44.8,110.6z"/>
		</g>
	</g>
</g>
<g>
	<g>
		<g>
			<path class="st0" d="M81.4,97.3c2.4,0.4,4.9,0.1,7.3-0.4c2.3-0.4,4.7-0.9,6.7-2.3c1.9-1.4,3.6-3.1,5.6-4.5
				c1.1-0.7,2.4-1.5,3.6-1.8c0.7-0.2,1.5-0.3,2.2,0.1c0.9,0.5,0.9,0.8,0.5,1.6c-0.2,0.3,0.4,0.6,0.5,0.3c0.4-0.8,0.7-1.1,0.1-1.8
				c-0.5-0.6-1.4-0.9-2.2-0.9c-2.4,0-5,2-6.8,3.4c-2.4,1.9-4.3,4-7.4,4.8c-3.2,0.8-6.7,1.6-10,1C81.1,96.7,81,97.2,81.4,97.3
				L81.4,97.3z"/>
		</g>
	</g>
</g>
<g>
	<g>
		<g>
			<path class="st0" d="M108.6,89.1c-0.1-2-0.7-4.1-2.1-5.6c-1.7-1.8-3.8-1.8-6.2-1.6c-0.4,0-0.4,0.6,0,0.6c2.2-0.2,4.1-0.3,5.7,1.4
				c1.3,1.4,1.8,3.3,1.9,5.2C108.1,89.5,108.7,89.5,108.6,89.1L108.6,89.1z"/>
		</g>
	</g>
</g>
<g>
	<g>
		<g>
			<path class="st0" d="M66.9,102.7c-2.1,2.9-5.3,4.5-8.8,5c-3.7,0.5-7.2-0.4-10.5-1.8c-3-1.3-5.9-2.9-9.2-3.3
				c-1.9-0.2-3.4,0.2-5.3,0.5c-1.2,0.2-3.1,0.2-3.3-1.3c-0.1-0.8,0.3-1.7,0.8-2.3c0.2-0.3-0.3-0.6-0.5-0.3c-1.3,1.9-1.2,4.2,1.4,4.6
				c1.7,0.2,3.5-0.6,5.2-0.6c1.7,0,3.5,0.4,5.1,1c3.2,1.1,6.1,2.9,9.3,3.8c2.7,0.7,5.8,0.8,8.5,0.2c3.1-0.7,5.8-2.4,7.7-5
				C67.6,102.7,67.1,102.4,66.9,102.7L66.9,102.7z"/>
		</g>
	</g>
</g>
<g>
	<g>
		<g>
			<path class="st0" d="M29.3,100.2c-1.4,3.5-2.5,7-3.2,10.7c-0.3,1.7-0.6,3.4-0.7,5.1c-0.1,1-0.6,2.8,0.4,3.6c0.8,0.6,2,0,2.7-0.5
				c1.4-1,2.7-2.1,4.3-2.9c1.6-0.8,3.4-1.4,5.1-1.8c1.6-0.3,3.2-0.5,4.6-1.2c1.6-0.8,2.6-2.4,4-3.5c1.8-1.3,4.2-1.4,6.3-1.4
				c0.4,0,0.4-0.6,0-0.6c-1.8,0-3.6,0-5.3,0.7c-1.6,0.7-2.7,2-3.9,3.1c-1.7,1.6-3.8,1.8-5.9,2.2c-1.8,0.4-3.6,1-5.3,1.8
				c-0.9,0.5-1.8,1-2.6,1.6c-0.7,0.5-1.3,1.2-2.1,1.6c-0.3,0.1-0.5,0.3-0.8,0.4c-0.9-0.3-1.2-0.7-1.1-1.4c0-0.4,0.1-0.9,0.1-1.3
				c0.1-1.2,0.3-2.4,0.5-3.6c0.7-4.3,1.9-8.4,3.5-12.4C30,100,29.5,99.9,29.3,100.2L29.3,100.2z"/>
		</g>
	</g>
</g>
<g>
	<g>
		<g>
			<path class="st0" d="M29.6,101.3c0.6-2.4,3-3,5.1-3.5c2.3-0.5,4.5-1,6.9-0.8c0.4,0,0.4-0.6,0-0.6c-2.8-0.2-5.6,0.4-8.3,1.2
				c-1.9,0.6-3.8,1.6-4.2,3.6C28.9,101.5,29.5,101.7,29.6,101.3L29.6,101.3z"/>
		</g>
	</g>
</g>
<g>
	<g>
		<g>
			<path class="st0" d="M66.3,32.8c0.6,1,0.4,1.4-0.6,1.1c-0.6-0.2-0.9-0.6-1.1-1.1c-0.2-0.7,0-1.3,0.4-1.9c0.3-0.4,1.1-1,1.7-0.8
				c0.7,1.1,0.5,1.2-0.6,0.3c-0.3-0.9-0.2-1.3,0.4-1c0.1-0.1,0.2-0.2,0.3-0.3c-0.5,0-0.9-0.2-1.1-0.6c-0.3-0.2-0.3-0.5,0.1-0.8
				c-0.2,0.3,0.3,0.6,0.5,0.3c0.5-0.9-0.6-1.7-1.3-0.9c-0.9,1.1,0.7,2.6,1.8,2.5c0.2,0,0.3-0.1,0.3-0.3c0-0.4-0.1-0.7-0.4-1
				c-0.1-0.1-0.3-0.1-0.4,0c-2.3,1.2,0,4.4,1.5,2.9c0.6-0.6,0.1-1.4-0.5-1.6c-1-0.4-2.3,0.1-2.9,0.9c-1.4,1.7,0.1,5,2.5,3.9
				c2.2-1.1-0.3-3.7-1.2-1.9C65.6,32.9,66.2,33.2,66.3,32.8L66.3,32.8z"/>
		</g>
	</g>
</g>
<g>
	<g>
		<g>
			<path class="st0" d="M62.7,30.7c-0.9-0.2-1.6-0.9-1.9-1.8c-0.3-1.1,0.2,0.1-0.3,0.6c-0.3,0.3-0.9,0.5-1.3,0.6
				c-1,0.2-1.9,0.1-2.9,0c-1.4-0.2-2.5,0.9-4,0.6c-0.3,0-0.5,0.2-0.3,0.4c0.7,1.4-1.4,1.4-2,1.3c0,0.2,0,0.4,0.1,0.6
				c-0.3,0.7-0.8,0.9-1.5,0.7c0,0.1,0.1,0.3,0.2,0.4c0.2-0.1,0.3-0.3,0.5-0.4c0.3-0.2,0-0.7-0.3-0.5c-0.3,0.2-0.5,0.3-0.7,0.6
				c-0.1,0.1,0,0.4,0.2,0.4c0.8,0.2,2.1,0,2.4-0.9c0.2-0.6-0.3-1.1-0.9-1c-0.3,0.1-0.3,0.6,0.1,0.6c1.3,0,3.4-0.5,2.5-2.3
				c-0.1,0.1-0.2,0.3-0.3,0.4c1.1,0.2,2.7,0,3.4-1c0.5-0.6,0.2-1.5-0.7-1.3c-0.1,0-0.2,0.2-0.2,0.3c0.1,2.2,4.4,1.6,5.7,1
				c0.6-0.3,1.4-0.8,1.4-1.6c0-0.7-0.5-1.3-1.2-1.3c-0.1,0-0.3,0.1-0.3,0.2c-0.2,1.7,0.7,3.2,2.4,3.6C62.9,31.3,63.1,30.8,62.7,30.7
				L62.7,30.7z"/>
		</g>
	</g>
</g>
<g>
	<g>
		<g>
			<path class="st0" d="M68.4,29.3c0.1-0.9,0.6-1.7,1.5-1.9c0.4-0.1,0.8-0.1,1.2,0c0.4,0.1,0.7,0.3,0.8,0.8c0,0.2,0.1,0.3,0.1,0.5
				c0.9-1.1,2.3-0.9,3,0.2c0.1,0.1,0.3,0.2,0.4,0.1c1-0.7,2.2-0.1,2.1,1.1c0,0.2,0.3,0.4,0.5,0.3c0.4,0.1,0.9,0.3,1.3,0.4
				c-0.1,0.3,0.3,0.5,0.5,0.3c0.8-0.7,2-0.6,2.6,0.3c0.2,0.3,0.7,0,0.5-0.3c-0.7-1.3-2.5-1.5-3.5-0.5c0.2,0.1,0.3,0.2,0.5,0.3
				c0.5-1.5-1.3-1.6-2.2-1.1c0.1,0.1,0.3,0.2,0.5,0.3c0.1-1.7-1.6-2.6-3-1.6c0.1,0,0.3,0.1,0.4,0.1c-0.9-1.5-2.8-1.7-4-0.4
				c-0.1,0.2-0.1,0.4,0.1,0.5c0.4,0.1,0.8,0,0.9-0.5c0.1-0.7-0.9-1.2-1.4-1.4c-1.7-0.5-3.3,0.8-3.4,2.5
				C67.7,29.7,68.3,29.7,68.4,29.3L68.4,29.3z"/>
		</g>
	</g>
</g>
<g>
	<g>
		<g>
			<path class="st0" d="M46.3,35.2c0-2.4,1.4-4.2,3.1-5.8c1.3-1.3,3.5-3.6,5.5-2.6c0.1,0.1,0.3,0,0.4-0.1c0.3-0.6,1.6-2.6,2.2-1.1
				c0.1,0.2,0.3,0.3,0.5,0.1c0.5-0.4,1.2-0.7,1.8-0.6c0.4,0.1,0.7,0.3,1.1,0.4c0.4,0.1,0.7,0.1,1.1-0.1c0.8-0.3,1.4-0.9,2.3-1.1
				c1.2-0.3,2.3,0,3.3,0.7c0.3,0.2,0.6,0,0.5-0.4c-0.1-0.3-0.5-0.6-0.8-0.7c-0.2-0.1-0.5,0.2-0.3,0.4c0.2,0.2,0.4,0.5,0.6,0.7
				c0.2,0.2,0.5,0,0.5-0.2c0-0.5-0.2-1.8-1-1.5c-0.9,0.3,0.1,1.4,0.5,1.7c0.2,0.2,0.5,0,0.5-0.2c0-1.4,2-1.1,3-1.1
				c1.2,0.1,4.8,0,5,1.7c0,0.2,0.2,0.3,0.4,0.3c0.7-0.1,1.3-0.1,2,0.2c0.4,0.1,0.5-0.4,0.2-0.6c-0.8-0.3-1.5-0.3-2.3-0.2
				c0.1,0.1,0.3,0.2,0.4,0.3c-0.2-2.3-3.9-2.1-5.6-2.3c-1.4-0.1-3.5-0.2-3.6,1.7c0.2-0.1,0.3-0.1,0.5-0.2c-0.1-0.1-0.5-0.7-0.6-0.6
				c0,0,0.1,0.8,0.1,0.8c0.2-0.1,0.3-0.1,0.5-0.2c-0.2-0.1-0.4-0.4-0.6-0.6c-0.1,0.1-0.2,0.3-0.3,0.4c0.1,0,0.4,0.3,0.4,0.5
				c0.2-0.1,0.3-0.2,0.5-0.4c-1.4-1.2-3.3-1.3-4.9-0.5c-0.8,0.4-1.3,0.9-2.3,0.6c-0.3-0.1-0.6-0.3-0.9-0.3c-0.9-0.1-1.7,0.3-2.3,0.8
				c0.2,0,0.3,0.1,0.5,0.1c-0.3-0.7-0.8-1-1.6-0.9c-0.9,0.1-1.4,1-1.7,1.8c0.1,0,0.3-0.1,0.4-0.1c-2.2-1.1-4.3,0.8-5.8,2.2
				c-1.9,1.8-3.7,4-3.7,6.7C45.7,35.6,46.3,35.6,46.3,35.2L46.3,35.2z"/>
		</g>
	</g>
</g>
<g>
	<g>
		<g>
			<path class="st0" d="M47.1,26.3c0.1-0.3,0.6-0.3,0.6,0.1c0,0.2-0.2,0.3-0.3,0.3c-0.2,0-0.4-0.3-0.3-0.5c0.1-0.4-0.5-0.5-0.6-0.2
				c-0.1,0.5,0.2,1.1,0.7,1.2c0.5,0.1,1-0.2,1.1-0.7c0.1-0.5-0.1-0.9-0.6-1c-0.5-0.1-1,0.2-1.1,0.6C46.5,26.6,47,26.7,47.1,26.3
				L47.1,26.3z"/>
		</g>
	</g>
</g>
<g>
	<g>
		<g>
			<path class="st0" d="M54.4,22.2c0-0.1,0.1-0.1,0.2-0.1c0.1,0,0.1,0.1,0.1,0.2c0,0.4-0.5,0.3-0.7,0.1c-0.3-0.3-0.7,0.2-0.4,0.4
				c0.3,0.3,0.8,0.4,1.2,0.2c0.4-0.2,0.6-0.6,0.5-1c-0.1-0.4-0.5-0.7-0.9-0.6c-0.4,0.1-0.7,0.5-0.6,0.9
				C53.9,22.8,54.5,22.6,54.4,22.2L54.4,22.2z"/>
		</g>
	</g>
</g>
<g>
	<g>
		<g>
			<path class="st0" d="M63,20.8C63,20.7,63,20.7,63,20.8c0-0.1,0.1-0.2,0.1-0.2c0,0,0.1,0,0.1,0c0,0,0.1,0,0.1,0c0,0,0,0.1,0,0.2
				c0,0-0.1,0.1-0.1,0.1C63.1,20.9,63.1,20.9,63,20.8c-0.3-0.1-0.6,0.4-0.2,0.6c0.7,0.4,1.5-0.6,1-1.2c-0.5-0.6-1.6,0-1.4,0.8
				C62.5,21.3,63.1,21.1,63,20.8L63,20.8z"/>
		</g>
	</g>
</g>
<g>
	<g>
		<g>
			<path class="st0" d="M72.5,21.3c0-0.2,0.2-0.4,0.4-0.4c0.2,0,0.4,0.3,0.4,0.5c0.1-0.1,0.1-0.2,0.2-0.3c-0.2,0-0.4,0-0.6,0
				c-0.4-0.1-0.5,0.5-0.2,0.6c0.3,0.1,0.6,0.1,1,0c0.1,0,0.2-0.2,0.2-0.3c0-0.5-0.4-1-0.9-1.1c-0.5,0-1,0.3-1.1,0.9
				C71.8,21.6,72.4,21.7,72.5,21.3L72.5,21.3z"/>
		</g>
	</g>
</g>
<g>
	<g>
		<g>
			<path class="st0" d="M79.3,23.6c0.1-0.2,0.5-0.4,0.6-0.1c0,0,0,0.1,0,0.1c0,0,0,0.1-0.1,0.1c0,0-0.1,0-0.1,0s0-0.1,0,0
				c0-0.2,0-0.3-0.2-0.4c-0.1,0-0.3,0-0.4,0.2c-0.1,0.4,0.2,0.7,0.6,0.8c0.4,0.1,0.8-0.2,0.8-0.7c0-0.4-0.2-0.8-0.6-0.9
				c-0.5-0.1-0.9,0.1-1.1,0.5C78.7,23.6,79.2,23.9,79.3,23.6L79.3,23.6z"/>
		</g>
	</g>
</g>
<g>
	<g>
		<g>
			<path class="st0" d="M47.1,30.4c-0.8,0.6-1.7,0.3-2.4-0.4c-0.2-0.2-0.4-0.5-0.6-0.8c-0.1-0.2-0.2-0.4-0.3-0.6
				c-0.2-0.3-0.2-0.6,0.2-0.9c0.1-0.1,0.2-0.3,0.3-0.5c-1.3-0.1-1.6-1.5-1.1-2.5c0.4-0.8,1-1.2,1.9-1.1c0.6,0.1,0.8,0,1.4-0.2
				c0.8-0.3,1.2-0.2,2,0.1c0.8,0.4,1.2,0.1,1.7,1.2c0.1,0.2,0,0.5,0.1,0.7c0,0,0.6,0.7,0.6,0.7c-0.4,0-0.4,0.6,0,0.6
				c0.4,0,0.6-0.3,0.6-0.7c0-0.3-0.2-0.4-0.3-0.6c-0.3-0.5-0.3-0.9-0.5-1.4c-0.4-0.9-1.2-0.8-1.9-1.1c-0.8-0.3-1.2-0.7-2-0.4
				c-0.6,0.2-0.9,0.5-1.6,0.4c-0.3,0-0.4-0.1-0.7-0.1c-0.7,0.2-1.5,1-1.8,1.7c-0.7,1.4,0.1,3.1,1.7,3.2c0.2,0,0.4-0.3,0.3-0.5
				c-0.3-0.4-0.7-0.5-1.2-0.2c-0.6,0.5-0.3,1.3,0,1.9c0.7,1.5,2.3,3.1,4,1.8C47.7,30.7,47.4,30.1,47.1,30.4L47.1,30.4z"/>
		</g>
	</g>
</g>
<g>
	<g>
		<g>
			<path class="st0" d="M49.4,23.1c-0.1-0.8,0-1.5,0.4-2.2c0.1-0.2,0.4-0.6,0.6-0.8c0.2-0.1,0.5-0.1,0.7-0.2c0,0,0.1,0.1,0.2,0.1
				c0.8,0.1,1.1-0.4,1.8-0.8c0.8-0.5,1.2-0.5,2-0.2c0.2,0.1,0.5,0.1,0.7,0.2c1.1,0.5,1.3,1.2,1.8,2.1c0.3,0.6,1.3,2,0.3,2.6
				c-0.3,0.2,0,0.7,0.3,0.5c1.6-0.9,0.2-2.8-0.4-4c-0.3-0.6-0.6-1.4-1.4-1.7c-0.5-0.2-0.9-0.2-1.3-0.5c-0.2-0.1-0.3-0.2-0.6-0.3
				c-0.8-0.1-1.7,0.6-2.3,1c-0.2,0.1-0.4,0.4-0.6,0.4c-0.2,0-0.1-0.1-0.3-0.2c-0.2,0-0.3-0.1-0.5-0.1c-1.6,0.1-2.2,2.7-2,3.9
				C48.9,23.5,49.5,23.5,49.4,23.1L49.4,23.1z"/>
		</g>
	</g>
</g>
<g>
	<g>
		<g>
			<path class="st0" d="M57.6,19.5c0.4-0.7,1-1.2,1.7-1.7c0.3-0.2,0.6-0.3,1-0.4c0.6-0.2,0.6,0,1.1,0.2c0.3,0.2,0.1,0.3,0.6,0.3
				c0.5,0,1.1-0.3,1.6-0.5c1-0.3,1.3,0.1,2,0.7c0.3,0.3,0.8,0.3,1.1,0.6c0.7,0.6,0.3,1.3,0.4,2.1c0.2,0.9,1.2,1.7,0,2.5
				c-0.3,0.2,0,0.7,0.3,0.5c0.5-0.3,0.9-0.8,0.9-1.5c0-0.3-0.1-0.6-0.2-0.9c-0.2-0.5-0.3-0.9-0.3-1.4c0-0.2,0.1-0.4,0.1-0.6
				c0-0.6-0.2-1-0.7-1.2c-0.5-0.3-0.8-0.5-1.2-0.9c-0.2-0.2-0.3-0.4-0.6-0.5c-0.8-0.4-1.6,0-2.3,0.3c-0.5,0.2-0.7,0.2-1.1,0
				c-0.3-0.2-0.2-0.3-0.6-0.4c-1.6-0.4-3.4,1.3-4.1,2.5C56.9,19.5,57.4,19.9,57.6,19.5L57.6,19.5z"/>
		</g>
	</g>
</g>
<g>
	<g>
		<g>
			<path class="st0" d="M68,18.3c0.3-0.3,0.6-0.6,1-0.9c0.7-0.4,0.9-0.2,1.8,0.1c0.3,0.1,0.4,0.2,0.8,0.1c0.7-0.1,1.3-0.7,2.1-0.8
				c1-0.1,1.4,0.6,2.2,0.8c0.5,0.2,1.2,0.1,1.1,0.9c0,0.4-0.3,0.7-0.2,1.1c0.1,0.4,0.4,0.5,0.4,0.9c0,0.6-0.4,2.4-0.9,2.5
				c-0.4,0-0.2,0.6,0.2,0.6c0.6-0.1,1-0.6,1.1-1.2c0.1-0.5,0-1,0.1-1.4c0-0.3,0.2-0.6,0.1-0.9c-0.1-0.3-0.4-0.6-0.4-0.9
				c0-0.3,0.3-0.6,0.3-1c0-0.5-0.2-0.8-0.6-0.9c-0.5-0.2-0.9-0.2-1.4-0.4c-0.4-0.2-0.7-0.5-1.2-0.6c-0.9-0.2-1.6,0.2-2.5,0.5
				c-0.6,0.2-0.8,0-1.3-0.1c-0.3-0.1-0.5-0.1-0.8-0.1c-0.9,0-1.6,0.7-2.2,1.3C67.3,18.1,67.7,18.5,68,18.3L68,18.3z"/>
		</g>
	</g>
</g>
<g>
	<g>
		<g>
			<path class="st0" d="M78.4,19.6c0.9-1.3,2.6-0.8,2.7,0.7c0,0.2,0.2,0.3,0.4,0.3c0.8-0.1,1.1-0.2,1.5,0.4c0.4,0.7,0.1,0.4,0.3,0.9
				c0.1,0.3,0.2,0.5,0.4,0.8c0.4,0.4,0.8,0.7,1,1.3c0.1,0.4,0.8,2.5,0.2,2.5c-0.4,0-0.4,0.6,0,0.6c0.6,0,1-0.5,1.1-1.1
				c0-0.6-0.4-1.2-0.6-1.7c-0.1-0.4-0.1-0.8-0.4-1.2c-0.5-0.7-0.9-0.6-1.1-1.6c-0.1-0.4,0-0.7-0.2-1c-0.6-0.8-1.6-0.6-2.4-0.5
				c0.1,0.1,0.3,0.2,0.4,0.3c-0.1-2.1-2.6-2.8-3.8-1.1C77.7,19.6,78.2,19.9,78.4,19.6L78.4,19.6z"/>
		</g>
	</g>
</g>
<g>
	<g>
		<g>
			<path class="st0" d="M43.4,23.1c0,0.1,0,0.1,0.1,0.2c0.1,0.4,0.6,0.2,0.6-0.2c-0.2-1.6-0.6-3.4,0.2-4.8c0.6-1.2,1.7-1.9,3-2.3
				c1.9-0.5,4.1-0.1,5.9-0.9c1-0.4,1.5-1.5,2.5-2c0.8-0.4,1.5-0.3,2.1,0.3c0.2,0.2,0.3,0.5,0.6,0.6c0.2,0.1,0.4,0.2,0.6,0.2
				c0.8,0,1.4-0.9,1.9-1.3c0.2-0.2,0.7-0.7,0.9-0.7c0,0,0.1,0.1,0.2,0.1c0.4,0.1,0.6,0.1,0.6,0.6c0,0.2,0.3,0.4,0.5,0.3
				c0.2-0.2,0.3-0.2,0.4-0.4c0.1-0.1,0-0.3,0-0.4l0,0c-0.1-0.1-0.3-0.1-0.4,0c-0.2,0.1-0.3,0.2-0.4,0.5c-0.2,0.3,0.2,0.5,0.4,0.4
				c1.6-0.7,1.1,1.1,2.1,1.2c0.4,0,0.8-0.2,1-0.4c0.5-0.4,0.8-1.1,1.4-1.4c1.1-0.5,2.1,0.6,2.9,1.1c0.9,0.5,1.8,0.7,2.6-0.1
				c0.4-0.4,0.7-1,1.2-1.3c1.5-0.9,2.9,0.7,2.5,2.1c0,0.2,0.1,0.5,0.4,0.4c2.2-0.8,4.4,0.7,6.4,1.6c1.5,0.7,2.9,1.7,4,3
				c1.2,1.3,2,2.9,2.5,4.5c0.3,0.8,0.5,1.8,0.6,2.7c0.1,1.2-0.3,2.4-0.5,3.6c0,0.1,0,0.2,0.1,0.3c1,0.8,1.4,1.8,0.8,3
				c-0.2,0.3,0.4,0.6,0.5,0.3c0.5-1,0.5-1.9-0.1-2.8c-0.4-0.6-0.7-0.7-0.6-1.4c0.1-0.6,0.3-1.2,0.4-1.9c0.2-2.3-0.8-4.9-2-6.9
				c-1.2-1.9-2.9-3.5-4.8-4.5c-2.2-1.2-5-2.8-7.5-2c0.1,0.1,0.2,0.2,0.4,0.4c0.4-1.5-0.5-3-2.1-3.1c-0.7,0-1.4,0.3-1.9,0.8
				c-0.3,0.3-0.5,0.6-0.7,0.9c-0.6,0.6-1.3,0.4-2-0.1c-1.5-0.9-2.7-1.8-4.1-0.4c-0.3,0.3-0.7,1-1.2,0.9c-0.3-0.1-0.4-0.4-0.6-0.7
				c-0.6-0.5-1.3-0.6-2-0.3c0.1,0.1,0.3,0.3,0.4,0.4c-0.1-0.1-0.3-0.3-0.4-0.4c0.1,0.1,0.3,0.2,0.5,0.3c0-0.8-0.2-1.1-1-1.2
				c-0.9-0.2-1.4,0.4-2.1,1c-0.3,0.2-0.6,0.6-0.9,0.7c-0.6,0.1-0.8-0.3-1.2-0.7c-0.4-0.4-0.8-0.7-1.4-0.7c-1.4-0.1-2.2,1.6-3.2,2.2
				C52.2,15,50.4,14.9,49,15c-1.1,0.1-2.3,0.3-3.3,0.8c-2.9,1.6-2.8,4.5-2.3,7.4c0.2,0,0.4-0.1,0.6-0.2c0-0.1,0-0.1-0.1-0.2
				C43.8,22.5,43.3,22.7,43.4,23.1L43.4,23.1z"/>
		</g>
	</g>
</g>
<g>
	<g>
		<g>
			<path class="st0" d="M39.3,47c-0.5,0.7-0.6,1.6-0.6,2.4c-0.1,1.6,0,3.1,0,4.6c0,1.6,0,3.3-0.4,4.8c-0.3,1.2-1.1,2.2-1,3.4
				c0,0.4,0.6,0.4,0.6,0c0-1.2,0.7-2.1,1-3.2c0.3-1.2,0.5-2.4,0.5-3.7c0-1.2,0-2.5-0.1-3.8c0-1.2-0.3-3.2,0.5-4.2
				C39.9,47.1,39.5,46.6,39.3,47L39.3,47z"/>
		</g>
	</g>
</g>
<g>
	<g>
		<g>
			<path class="st0" d="M37.4,76.3c-0.2,0.7-0.5,1.4-0.3,2.2c0.1,0.6,0.4,1.1,0.5,1.7c0,0.5,0,1,0,1.5c0,2,0.2,4,0.6,6
				c0,0.2,0.3,0.3,0.4,0.2c1.1-0.7,1.9-1.6,2.3-2.8c0.1-0.4-0.5-0.5-0.6-0.2c-0.4,1.1-1.1,1.9-2.1,2.5c0.1,0,0.3,0.1,0.4,0.2
				c-0.4-1.9-0.6-3.9-0.6-5.8c0-0.7,0.1-1.5-0.1-2.3c-0.1-0.4-0.3-0.7-0.4-1.2c-0.1-0.6,0-1.2,0.3-1.8
				C38.1,76.1,37.5,75.9,37.4,76.3L37.4,76.3z"/>
		</g>
	</g>
</g>
<g>
	<g>
		<g>
			<path class="st0" d="M91.3,33.4c0,0.8,0,1.7,0.2,2.5c0.3,1,0.6,1.9,0.8,2.9c0.6,2.1,1.1,4.3,1.2,6.5c0,2-0.8,3.9-0.4,5.8
				c0.2,0.9,0.6,1.7,0.9,2.6c0.4,1.2,0.3,2.3,0,3.5c-1,4.2-1.5,8.3-0.5,12.5c1.1,4.4-0.7,9.1-1.2,13.5c0,0.3,0.5,0.4,0.6,0.1
				c0.1-0.4,0.4-1,0.3-1.4c0-0.3-0.4-0.3-0.6-0.1c-0.2,0.3-0.2,1-0.3,1.4c-0.1,0.4,0.5,0.5,0.6,0.2c0.3-0.8-0.2-1.6-0.9-1.9
				c-0.6-0.3-1.4-0.3-2-0.4c-0.4-0.1-0.9-0.2-1.2-0.4c-0.6-0.4-0.5-1.1-0.5-1.8c0-0.8-0.2-1.5-0.4-2.2c-0.2-1.1-0.3-2.2-0.4-3.3
				c-0.1-2,0-4,0.2-6c0.4-4.1,1.2-8.1,2-12.2c0.7-3.6,1.2-7.3,0.9-11c-0.3-3.9-1.3-7.7-3.2-11.1c-0.2-0.3-0.7,0-0.5,0.3
				c3.6,6.8,3.6,14.2,2.3,21.5c-1.3,7.1-3.1,14.6-1.8,21.8c0.1,0.5,0.3,1.1,0.3,1.6s-0.1,1-0.1,1.5c0,0.6,0.2,0.9,0.6,1.2
				c0.9,0.7,4.7,0.7,4.2,2.3c0.2,0,0.4,0.1,0.6,0.2c0-0.3,0-0.9,0.3-1.2c-0.2,0-0.4,0-0.6-0.1c0.1,0.3-0.2,0.9-0.3,1.1
				c0.2,0,0.4,0,0.6,0.1c0.3-2.4,0.8-4.7,1.2-7.1c0.3-1.9,0.7-3.8,0.2-5.7c-0.5-2.3-1-4.6-0.8-7c0.1-1.2,0.2-2.4,0.5-3.6
				c0.2-1.1,0.7-2.2,0.8-3.3c0.2-1.8-0.4-3.2-1-4.9c-0.7-2.2,0.2-4.2,0.2-6.4c0-2-0.4-4-0.9-5.8c-0.3-1-0.6-1.9-0.8-2.9
				c-0.3-1.1-0.3-2.1-0.4-3.2C91.9,33,91.3,33,91.3,33.4L91.3,33.4z"/>
		</g>
	</g>
</g>
<g>
	<g>
		<g>
			<path class="st0" d="M48.7,97.8c-0.4-2.2-1-4.4-1.8-6.5c-0.1-0.4-0.7-0.2-0.6,0.2c0.8,2.1,1.4,4.3,1.8,6.5
				C48.1,98.3,48.7,98.2,48.7,97.8L48.7,97.8z"/>
		</g>
	</g>
</g>
<g>
	<g>
		<g>
			<path class="st0" d="M51.6,97.9c-0.1-1-0.2-2-0.3-3c0-0.4-0.6-0.4-0.6,0c0.1,1,0.2,2,0.3,3C51,98.3,51.6,98.3,51.6,97.9
				L51.6,97.9z"/>
		</g>
	</g>
</g>
<g>
	<g>
		<g>
			<path class="st0" d="M41.5,96.4c-1.7,1.1-1.3,3.7,0.7,4.2c0.4,0.1,0.5-0.5,0.2-0.6c-1.5-0.4-1.9-2.3-0.6-3.1
				C42.1,96.7,41.8,96.2,41.5,96.4L41.5,96.4z"/>
		</g>
	</g>
</g>
<g>
	<g>
		<g>
			<path class="st0" d="M36.4,62.3c-0.6,0-1.1,0.2-1.5,0.5c0.1,0.1,0.2,0.1,0.3,0.2c0.3-0.3,0.7-0.4,1.2-0.4c1.1,0,1.9,0.9,1.9,1.9
				c0,1.1-0.9,1.9-1.9,1.9c-0.6,0-1.2-0.3-1.5-0.8c0,0.1-0.1,0.1-0.1,0.2c0,0,0,0,0,0.1c0.4,0.5,1.1,0.8,1.7,0.8
				c1.2,0,2.3-1,2.3-2.3C38.7,63.3,37.7,62.3,36.4,62.3z"/>
		</g>
	</g>
	<g>
		<g>
			<path class="st0" d="M37.4,64.7c0.4,0,0.7-0.3,0.7-0.7s-0.3-0.7-0.7-0.7s-0.7,0.3-0.7,0.7C36.7,64.3,37,64.7,37.4,64.7z
				 M37.1,63.5c0.1,0,0.2,0.1,0.2,0.2c0,0.1-0.1,0.2-0.2,0.2c-0.1,0-0.2-0.1-0.2-0.2C36.9,63.6,37,63.5,37.1,63.5z"/>
		</g>
	</g>
</g>
<g>
	<path class="st0" d="M33.3,66.9c-1.3,0-2.3-1-2.3-2.3c0-1.3,1-2.3,2.3-2.3s2.3,1,2.3,2.3C35.6,65.9,34.6,66.9,33.3,66.9z
		 M33.3,62.7c-1.1,0-1.9,0.9-1.9,1.9c0,1.1,0.9,1.9,1.9,1.9s1.9-0.9,1.9-1.9C35.2,63.6,34.4,62.7,33.3,62.7z"/>
</g>
<g>
	<path class="st0" d="M34.3,64.8c0.4,0,0.7-0.3,0.7-0.7s-0.3-0.7-0.7-0.7s-0.7,0.3-0.7,0.7C33.6,64.4,33.9,64.8,34.3,64.8z
		 M34.1,63.6c0.1,0,0.2,0.1,0.2,0.2c0,0.1-0.1,0.2-0.2,0.2c-0.1,0-0.2-0.1-0.2-0.2C33.8,63.7,33.9,63.6,34.1,63.6z"/>
</g>
<g>
	<g>
		<g>
			<path class="st0" d="M35.1,66.7c1.4-0.3,2.3,1.1,2.9,2.1c0.1-0.1,0.3-0.3,0.4-0.4c-1.2-0.5-2.3-1-3.5-1.5
				c-0.4-0.1-0.6,0.4-0.3,0.5c1.2,0.5,2.3,1,3.5,1.5c0.3,0.1,0.6-0.1,0.4-0.4c-0.8-1.3-1.8-2.7-3.6-2.4
				C34.5,66.2,34.7,66.8,35.1,66.7L35.1,66.7z"/>
		</g>
	</g>
</g>
<g>
	<g>
		<g>
			<path class="st0" d="M37.1,68.3c-0.9-0.3-3.2,0-3.1-1.4c0-0.4-0.6-0.4-0.6,0c-0.1,1.9,2.4,1.6,3.6,1.9
				C37.3,69,37.4,68.4,37.1,68.3L37.1,68.3z"/>
		</g>
	</g>
</g>
<g>
	<g>
		<g>
			<path class="st0" d="M36.1,62c-1.1-0.3-1.7-1.5-1.2-2.5c0.1-0.3-0.2-0.6-0.5-0.4c-0.6,0.6-0.9,1.2-1,2c0.1-0.1,0.3-0.2,0.5-0.3
				c-0.4-0.2-0.8-0.4-1.3-0.4c-0.2,0-0.3,0.1-0.3,0.3c0,0.2,0,0.4,0,0.5c0.1-0.1,0.3-0.2,0.5-0.3c-0.6-0.3-1.2-0.4-1.8-0.3
				c-0.2,0-0.3,0.4-0.1,0.5c0.2,0.2,0.4,0.4,0.6,0.6c0.3,0.3,0.7-0.1,0.4-0.4c-0.2-0.2-0.4-0.4-0.6-0.6c0,0.2-0.1,0.3-0.1,0.5
				c0.5-0.1,1,0,1.4,0.2c0.2,0.1,0.4,0,0.5-0.3c0-0.2,0-0.4,0-0.5c-0.1,0.1-0.2,0.2-0.3,0.3c0.4,0,0.7,0,1,0.3
				c0.2,0.1,0.4,0,0.5-0.3c0.1-0.6,0.4-1.1,0.8-1.6c-0.2-0.1-0.3-0.2-0.5-0.4c-0.7,1.4,0,3,1.5,3.4C36.4,62.6,36.5,62.1,36.1,62
				L36.1,62z"/>
		</g>
	</g>
</g>
<g>
	<g>
		<g>
			<path class="st0" d="M28.5,70.1c0.8,1.5,2.2,2.3,3.9,2.3c1.2,0.1,2.7,0,3.1-1.3c0.1-0.4-0.5-0.5-0.6-0.2c-0.3,1-1.9,0.9-2.7,0.8
				c-1.4-0.1-2.5-0.8-3.2-2C28.8,69.4,28.3,69.7,28.5,70.1L28.5,70.1z"/>
		</g>
	</g>
</g>
<g>
	<g>
		<g>
			<path class="st0" d="M31.2,61.5c-1,0.6-1.7,1.5-2.3,2.4c-0.2,0.3,0.3,0.6,0.5,0.3c0.5-0.9,1.2-1.7,2.1-2.2
				C31.8,61.8,31.5,61.3,31.2,61.5L31.2,61.5z"/>
		</g>
	</g>
</g>
<g>
	<g>
		<g>
			<path class="st0" d="M36.7,68.7c0.2,0.5,0.1,1-0.1,1.5c-0.1,0.4,0.4,0.5,0.6,0.2c0.2-0.6,0.3-1.2,0.1-1.8
				C37.2,68.2,36.6,68.3,36.7,68.7L36.7,68.7z"/>
		</g>
	</g>
</g>
<g>
	<g>
		<g>
			<path class="st0" d="M29.6,71.5c-3,4.7-4,10.5-2.9,16c0,0.3,0.4,0.3,0.6,0.1c0.6-1.1,1.1-2.3,1.5-3.5c-0.2,0-0.4,0-0.6,0
				c0.1,0.4,0.3,0.8,0.4,1.2c0.1,0.3,0.4,0.3,0.6,0.1c0.2-0.3,0.5-0.7,0.7-1c-0.2,0-0.3,0-0.5,0.1c0.2,0.2,0.4,0.5,0.6,0.7
				c0.1,0.1,0.3,0.1,0.4,0c0.3-0.4,0.5-0.6,0.6-1.1c-0.2,0-0.4,0-0.6-0.1c0,0.5,0.5,0.9,1.1,0.6c0.8-0.4,0.4-1.6,0.4-2.2
				c-0.2,0-0.4,0-0.6,0.1c0.2,1.1,1.8,1.6,1.7,2.7c0,0.3,0.3,0.4,0.5,0.2c3.9-3.9-1.4-9-1.3-13.2c0-0.4-0.6-0.4-0.6,0
				c0,2.1,0.8,3.9,1.7,5.7c1,2.2,1.8,5.1-0.1,7c0.2,0.1,0.3,0.1,0.5,0.2c0.2-1.4-1.5-1.6-1.7-2.9c-0.1-0.3-0.6-0.2-0.6,0.1
				c0,0.1,0,0.3,0,0.4c0.1,0.4,0,0.8-0.2,1.2c0-0.3-0.5-0.4-0.6-0.1c-0.2,0.3-0.3,0.6-0.5,0.8c0.1,0,0.3,0,0.4,0
				c-0.2-0.2-0.4-0.5-0.6-0.7c-0.1-0.1-0.4-0.1-0.5,0.1c-0.2,0.3-0.5,0.7-0.7,1c0.2,0,0.4,0,0.6,0.1c-0.1-0.4-0.3-0.8-0.4-1.2
				c-0.1-0.3-0.5-0.3-0.6,0c-0.3,1.2-0.8,2.3-1.4,3.4c0.2,0,0.4,0,0.6,0.1c-1.2-5.3-0.1-10.9,2.8-15.5
				C30.3,71.5,29.8,71.2,29.6,71.5L29.6,71.5z"/>
		</g>
	</g>
</g>
<g>
	<g>
		<g>
			<path class="st0" d="M30.4,71.9c-0.7,1.4-1.1,2.9-1.3,4.5c0,0.2,0.3,0.2,0.3,0c0.2-1.5,0.6-3,1.3-4.4
				C30.8,71.8,30.5,71.7,30.4,71.9L30.4,71.9z"/>
		</g>
	</g>
</g>
<g>
	<g>
		<g>
			<path class="st0" d="M30.9,72.4c0,1.1,0,2.2,0,3.3c0,0.2,0.3,0.2,0.3,0c0-1.1,0-2.2,0-3.3C31.2,72.2,30.9,72.2,30.9,72.4
				L30.9,72.4z"/>
		</g>
	</g>
</g>
<g>
	<g>
		<g>
			<path class="st0" d="M35.6,70.7c0.4,0.1,0.6,0.5,0.4,0.8c0,0.1,0,0.2,0,0.2c0.3,0.2,0.7,0,0.8-0.4c0.2-0.5-0.2-0.9-0.5-1.2
				c-0.1-0.1-0.4,0.1-0.2,0.2c0.2,0.2,0.4,0.4,0.4,0.6c0,0.2-0.1,0.6-0.4,0.5c0,0.1,0,0.1,0,0.2c0.3-0.5,0-1.2-0.5-1.3
				C35.5,70.3,35.4,70.6,35.6,70.7L35.6,70.7z"/>
		</g>
	</g>
</g>
<g>
	<g>
		<g>
			<path class="st0" d="M36.7,71.7c0.5-0.4,0.5-1.2,0.1-1.7c-0.1-0.1-0.3,0.1-0.2,0.2c0.3,0.4,0.3,0.9-0.1,1.2
				C36.3,71.6,36.6,71.8,36.7,71.7L36.7,71.7z"/>
		</g>
	</g>
</g>
<g>
	<g>
		<g>
			<path class="st0" d="M34,72c-0.1,0.3-0.2,0.7,0,1c0.1,0.2,0.4,0.3,0.6,0.2s0.3-0.3,0.3-0.6c-0.1-0.3-0.3-0.5-0.3-0.7
				c0-0.2-0.3-0.2-0.3,0c0,0.2,0,0.3,0.1,0.5c0.1,0.1,0.2,0.3,0.2,0.4c0,0.2-0.2,0.1-0.3,0c-0.2-0.2,0-0.5,0-0.7
				C34.4,71.9,34.1,71.9,34,72L34,72z"/>
		</g>
	</g>
</g>
<g>
	<g>
		<g>
			<path class="st0" d="M33,72.2c-0.1,0.3,0,0.7,0.2,0.9s0.6,0.4,0.9,0.3c0.2,0,0.2-0.2,0.2-0.4c0-0.2-0.2-0.2-0.4-0.2
				c-0.3,0-0.4-0.3-0.3-0.5c0.1-0.1-0.1-0.3-0.2-0.4C33.1,71.9,33,72,33,72.2L33,72.2z"/>
		</g>
	</g>
</g>
<g>
	<g>
		<g>
			<path class="st0" d="M30.4,69.2c-1,0.2-2,0-2.9-0.5c-0.4-0.2-0.8-0.5-1.1-0.9c-0.2-0.2-0.3-0.4-0.5-0.7c-0.4-0.5-0.3-0.7,0.4-0.7
				c0.1,0.1,0.3,0,0.2-0.1c-0.2-0.5,0-0.9,0.6-1.2c0.1,0.1,0.3,0,0.2-0.1c0.2,0.1,0.4,0.1,0.6,0.2c0,0.1,0.2,0.1,0.2,0.1
				c0.6-0.5,0.9,0,1.4,0.4c0.7,0.6,1.5,1.4,0.8,2.3c-0.1,0.2,0.1,0.3,0.3,0.1c1.1-1.6-0.8-2.7-1.9-3.6c-0.1,0-0.1,0-0.2,0
				c-0.2,0.1-0.4,0.3-0.5,0.5c0.1,0,0.2,0,0.2,0.1c-0.1-0.4-0.4-0.9-0.9-0.7c-0.3,0.1-0.4,0.4-0.3,0.7c0.1,0,0.2-0.1,0.2-0.1
				c-0.3-0.3-0.7-0.3-1,0c-0.4,0.4-0.3,1-0.1,1.5c0.1,0,0.2-0.1,0.2-0.1c-0.3-0.3-0.8-0.6-1.1-0.3c-0.4,0.5,0.3,1.5,0.6,1.8
				c1,1.4,2.8,2,4.5,1.7C30.7,69.4,30.6,69.1,30.4,69.2L30.4,69.2z"/>
		</g>
	</g>
</g>
<g>
	<g>
		<g>
			<path class="st0" d="M30.1,69.3c-5.5,1-9.1-4.1-10.8-8.7c-0.1,0.1-0.3,0.2-0.4,0.3c1.4,0.9,2.7,1.9,4,3c0.2,0.2,0.6,0,0.5-0.3
				c-0.1-0.9-0.3-1.8-0.4-2.7c-0.2,0.1-0.3,0.2-0.5,0.3c0.8,0.7,1.6,1.5,2.4,2.2c0.1,0.1,0.5,0.1,0.5-0.1c0.1-0.4,0.1-0.8,0.2-1.2
				c-0.1,0-0.3,0.1-0.4,0.2c0.6,0.3,1.1,0.6,1.7,1c0.2,0.1,0.4,0.1,0.5-0.1c0.3-0.8,1.6,1.2,1.7,1.4c0.3,0.5,0.6,1,0.9,1.5
				c0.2,0.3,0.7,0,0.5-0.3c-0.3-0.6-2.8-5.2-3.7-2.7c0.2,0,0.3-0.1,0.5-0.1c-0.6-0.5-1.1-0.8-1.8-1.1c-0.2-0.1-0.4,0-0.4,0.2
				c-0.1,0.4-0.1,0.8-0.2,1.2c0.2,0,0.3-0.1,0.5-0.1c-0.8-0.7-1.6-1.5-2.4-2.2c-0.2-0.2-0.6,0-0.5,0.3c0.1,0.9,0.3,1.8,0.4,2.7
				c0.2-0.1,0.3-0.2,0.5-0.3c-1.3-1.1-2.7-2.2-4.1-3.1c-0.2-0.1-0.5,0.1-0.4,0.3c1.8,4.8,5.6,10.1,11.5,9.1
				C30.6,69.8,30.4,69.3,30.1,69.3L30.1,69.3z"/>
		</g>
	</g>
</g>
<g>
	<g>
		<g>
			<path class="st0" d="M29.7,63.1c-1.4-2.4-2.8-4.8-2.9-7.7c-0.2,0-0.4,0.1-0.6,0.1c0.4,0.7,0.9,1.4,1.3,2.1
				c0.1,0.2,0.3,0.2,0.5,0.1c0.4-0.4,0.8,0.4,1.3,0.5c0,0,0.1,0,0.1,0c0.3,0,0.3,0,0.6,0.2c0.3,0.2,0.3,0.3,0.6,0.3
				c0.1,0,0.2-0.1,0.3-0.1c0.1-0.2,0.3-0.5,0.4-0.7c-0.2,0-0.3,0-0.5,0.1c1,0.8,1.6,1.9,1.8,3.2c0,0.4,0.6,0.4,0.6,0
				c-0.2-1.4-0.8-2.7-2-3.6c-0.1-0.1-0.4-0.1-0.5,0.1c-0.4,0.7-0.4,0.1-0.9,0c-0.5-0.1-0.5,0.2-1-0.2c-0.6-0.5-0.7-0.6-1.4,0
				c0.2,0,0.3,0,0.5,0.1c-0.5-0.7-0.9-1.4-1.3-2.1c-0.1-0.2-0.6-0.1-0.6,0.1c0.2,2.9,1.6,5.5,3,8C29.4,63.7,29.9,63.4,29.7,63.1
				L29.7,63.1z"/>
		</g>
	</g>
</g>
<g>
	<g>
		<g>
			<path class="st0" d="M29.7,69c-0.6,0-1.2-0.1-1.6-0.5c-0.1-0.1-0.5-0.6-0.3-0.9c0.1-0.2,0.5,0.1,0.7,0.2c0.1,0,0.2,0,0.2-0.1
				c0.1-0.3,0.1-0.6,0-0.9c-0.1,0.1-0.1,0.1-0.2,0.2c0.3,0.2,0.7,0.2,1,0.1c-0.1,0-0.1-0.1-0.2-0.1c0,0.2,0.2,0.3,0.4,0.3
				c0.3,0,0.4,0,0.6,0.1c0.3,0.2,0.2,0.5,0.2,0.9c0,0.2,0.3,0.3,0.3,0.1c0.1-0.4,0.1-0.8-0.1-1.1c-0.1-0.1-0.2-0.2-0.4-0.2
				c-0.1,0-0.6,0-0.7-0.1c0-0.1-0.1-0.1-0.2-0.1c-0.3,0.1-0.5,0-0.8-0.1c-0.1-0.1-0.3,0.1-0.2,0.2c0.1,0.2,0.1,0.5,0,0.7
				c0.1,0,0.1,0,0.2-0.1c-0.3-0.2-0.5-0.3-0.8-0.4c-0.1,0-0.1,0-0.2,0.1c-0.3,0.5-0.2,1,0.2,1.4c0.5,0.5,1.2,0.6,1.9,0.6
				C29.9,69.3,29.9,69,29.7,69L29.7,69z"/>
		</g>
	</g>
</g>
<g>
	<g>
		<g>
			<path class="st0" d="M26.9,82.9c0-0.4,0.2-0.7,0.6-0.8c0.1,0.2,0.2,0.5,0.3,0.7c0,0.1,0.1,0.1,0.2,0.1c0.3-0.1,0.4-0.2,0.6-0.4
				c0,0,0.9-1.4,1-0.9c0,0.1,0.2,0.2,0.3,0.1c0.2-0.2,1.4-0.4,1.6-0.3c0.4,0.2,0.4,0.8,1,0.8s0.5-0.5,1,0.2c0.2,0.3,0.2,0.5,0.6,0.4
				c0.1,0,0.1-0.1,0.1-0.1c0-0.1,0.1-0.3,0.1-0.4c0.1-0.2-0.2-0.3-0.3-0.1c-0.4,0.7-0.3-0.5-0.8-0.7c-0.1,0-0.2,0-0.3,0
				c-0.1,0-0.1,0.2-0.2,0.2c-0.8,0.2-1,0-1.2-0.5c0-0.1-0.2-0.1-0.2,0c-0.5,0.5-1.2,0-1.7,0.6c0.1,0,0.2,0.1,0.3,0.1
				c0-0.3-0.2-0.6-0.6-0.5c-0.2,0-0.3,0.1-0.4,0.3c-0.1,0.1-0.1,0.3-0.2,0.5c-0.2,0.2-0.5,0.4-0.7,0.6c-0.1-0.2-0.2-0.5-0.3-0.7
				c0-0.1-0.1-0.1-0.2-0.1c-0.5,0.3-0.7,0.7-0.9,1.3C26.6,83,26.9,83.1,26.9,82.9L26.9,82.9z"/>
		</g>
	</g>
</g>
<g>
	<g>
		<g>
			<path class="st0" d="M68.3,88c-0.1,1.1,1.3,1.7,2,0.9c0.1-0.1-0.1-0.4-0.2-0.2c-0.6,0.7-1.6,0.2-1.5-0.6
				C68.6,87.8,68.4,87.8,68.3,88L68.3,88z"/>
		</g>
	</g>
</g>
<g>
	<g>
		<g>
			<path class="st0" d="M70.7,89.1c0.7,0.8,2,0.6,2.5-0.4c0.1-0.2-0.2-0.3-0.3-0.1c-0.4,0.8-1.4,0.9-2,0.3
				C70.8,88.7,70.6,88.9,70.7,89.1L70.7,89.1z"/>
		</g>
	</g>
</g>
<g>
	<g>
		<g>
			<path class="st0" d="M73.3,88.9c0.8,0.6,2,0.2,2.3-0.7c0-0.2-0.2-0.3-0.3-0.1c-0.2,0.7-1.2,1.1-1.7,0.6
				C73.3,88.6,73.1,88.8,73.3,88.9L73.3,88.9z"/>
		</g>
	</g>
</g>
<g>
	<g>
		<g>
			<path class="st0" d="M75.8,88.2c0.9,0,1.7-0.6,1.9-1.5c0-0.2-0.2-0.3-0.3-0.1c-0.2,0.8-0.9,1.3-1.7,1.3
				C75.6,87.9,75.6,88.2,75.8,88.2L75.8,88.2z"/>
		</g>
	</g>
</g>
<g>
	<g>
		<g>
			<path class="st0" d="M66.6,87.4c0,0.9,1.1,1.4,1.8,0.9c0.1-0.1-0.1-0.3-0.2-0.2c-0.5,0.4-1.3,0-1.3-0.6
				C66.9,87.2,66.6,87.2,66.6,87.4L66.6,87.4z"/>
		</g>
	</g>
</g>
<g>
	<g>
		<g>
			<path class="st0" d="M65.5,85.5c0.4,1,1.8,1.2,2.4,0.1c0.1-0.2-0.2-0.3-0.3-0.1c-0.4,0.8-1.5,0.7-1.8-0.1
				C65.7,85.2,65.4,85.3,65.5,85.5L65.5,85.5z"/>
		</g>
	</g>
</g>
<g>
	<g>
		<g>
			<path class="st0" d="M76.4,83.9c0.6,0.4,1.6-0.1,1.6-0.9c0-0.2-0.3-0.2-0.3,0c0,0.5-0.7,0.9-1.1,0.6
				C76.4,83.6,76.2,83.8,76.4,83.9L76.4,83.9z"/>
		</g>
	</g>
</g>
<g>
	<g>
		<g>
			<path class="st0" d="M66.9,83.5c-0.2,0.3,0,0.7,0.2,0.9c0.4,0.3,1,0,1.4-0.2c0.2-0.1,0-0.4-0.1-0.3c-0.3,0.1-0.6,0.4-0.9,0.3
				c-0.2-0.1-0.4-0.4-0.3-0.6C67.2,83.5,67,83.4,66.9,83.5L66.9,83.5z"/>
		</g>
	</g>
</g>
<g>
	<g>
		<g>
			<path class="st0" d="M67.3,97.6c-3.7,0.6-7.5,1.2-11.2,1.8c-0.2,0-0.1,0.3,0.1,0.3c3.7-0.6,7.5-1.2,11.2-1.8
				C67.6,97.9,67.5,97.6,67.3,97.6L67.3,97.6z"/>
		</g>
	</g>
</g>
<g>
	<g>
		<g>
			<path class="st0" d="M80.7,95.9c1.7-0.6,3.4-1.2,5.1-2c0.2-0.1,0-0.3-0.1-0.3c-1.6,0.8-3.3,1.4-5,1.9
				C80.5,95.7,80.5,96,80.7,95.9L80.7,95.9z"/>
		</g>
	</g>
</g>
<g>
	<g>
		<g>
			<path class="st0" d="M68.4,86.1c2.5-1,5.3-1.2,7.9-0.5c0.4,0.1,0.5-0.5,0.2-0.6c-2.8-0.7-5.6-0.6-8.2,0.5
				C67.9,85.7,68.1,86.3,68.4,86.1L68.4,86.1z"/>
		</g>
	</g>
</g>
<g>
	<g>
		<g>
			<path class="st0" d="M102,71.2c-0.4-1.7-0.5-3.4-0.6-5.1c0-0.2-0.3-0.2-0.3,0c0,1.7,0.2,3.5,0.6,5.2
				C101.7,71.5,102,71.4,102,71.2L102,71.2z"/>
		</g>
	</g>
</g>
<g>
	<g>
		<g>
			<path class="st0" d="M101.8,71.5c0.5-1.3,1.2-2.5,2-3.5c0.1-0.1-0.1-0.4-0.2-0.2c-0.9,1.1-1.6,2.3-2.1,3.7
				C101.4,71.6,101.7,71.7,101.8,71.5L101.8,71.5z"/>
		</g>
	</g>
</g>
<g>
	<g>
		<g>
			<path class="st0" d="M100.8,65c0,1.1,1.8,1.4,1.8,0.2c0-0.5-0.3-0.9-0.7-1c-0.6-0.1-1.1,0.4-1.3,1c0,0.2,0.2,0.3,0.3,0.1
				c0.1-0.4,0.5-0.9,1-0.8c0.3,0.1,0.5,0.4,0.5,0.7c0,0.9-1.3,0.6-1.2-0.1C101.1,64.8,100.8,64.8,100.8,65L100.8,65z"/>
		</g>
	</g>
</g>
<g>
	<g>
		<g>
			<path class="st0" d="M104.3,66.8c0.3,0,0.6,0.2,0.6,0.5c0,0.3-0.2,0.5-0.5,0.5C103.8,67.9,103.7,67.1,104.3,66.8
				c0.1,0-0.1-0.3-0.2-0.2c-0.4,0.2-0.6,0.6-0.4,1c0.1,0.4,0.5,0.6,0.9,0.5c0.4-0.1,0.7-0.4,0.7-0.8s-0.4-0.8-0.9-0.8
				C104.1,66.5,104.1,66.8,104.3,66.8L104.3,66.8z"/>
		</g>
	</g>
</g>
<g>
	<g>
		<g>
			<path class="st0" d="M101.6,64.3c-0.9-0.1-1.4,1-0.7,1.6c0.8,0.6,1.7,0,2-0.8c0-0.2-0.2-0.3-0.3-0.1c-0.1,0.5-0.6,1-1.2,0.8
				c-0.2-0.1-0.5-0.3-0.6-0.5c-0.1-0.4,0.3-0.8,0.7-0.8C101.7,64.7,101.8,64.4,101.6,64.3L101.6,64.3z"/>
		</g>
	</g>
</g>
<g>
	<g>
		<g>
			<path class="st0" d="M101.7,65.9c0,1.7,0.1,3.4,0.1,5.1c0,0.2,0.2,0.2,0.3,0.1c0.8-1.1,1.8-2.2,2.8-3.1c0.1-0.1-0.1-0.3-0.2-0.2
				c-1,1-2,2.1-2.8,3.2c0.1,0,0.2,0,0.3,0.1c0-1.7-0.1-3.4-0.1-5.1C102,65.7,101.7,65.7,101.7,65.9L101.7,65.9z"/>
		</g>
	</g>
</g>
<g>
	<g>
		<g>
			<path class="st0" d="M102.4,70.7c0.7-0.6,1.4-1.2,2.2-1.7c0.4-0.2,0.9-0.4,1.3-0.5c0.2,0,1.4-0.2,1.7,0c0.6,0.6-1.4,1.5-1.8,1.6
				c-0.9,0.3-1.9,0.2-2.8,0.1c-0.1,0-0.2,0.1-0.1,0.2c0.7,1,1.7,3.1,3,3.4c0.9,0.2,1.8-0.3,2.2-1.1c0-0.1,0-0.2-0.1-0.2
				c-0.9,0-1.5-1.5-2.3-1.9c-0.6-0.3-1.1-0.3-1.7-0.2c-0.1,0-0.1,0.2-0.1,0.2c0.6,0.7,1.2,1.4,2,1.9c0.1,0.1,0.4-0.1,0.2-0.2
				c-0.4-0.3-1.2-0.8-1.5-1.3c-0.1-0.1-0.2-0.2-0.3-0.3c0.2-0.1,0.4-0.2,0.6-0.1c0.6,0.1,1.1,0.5,1.5,1c0.5,0.6,0.7,1.2,1.6,1.2
				c0-0.1-0.1-0.1-0.1-0.2c-0.6,1.4-2,1.2-2.9,0.2c-0.6-0.7-1.2-1.6-1.8-2.4c0,0.1-0.1,0.1-0.1,0.2c1.9,0.2,4.2,0.1,5.1-1.9
				c0-0.1,0-0.2-0.1-0.2c-2.3-0.8-4.2,0.7-5.8,2.1C102,70.6,102.2,70.8,102.4,70.7L102.4,70.7z"/>
		</g>
	</g>
</g>
<g>
	<g>
		<g>
			<path class="st0" d="M103.4,69.9c0.7-0.1,1.4-0.3,2-0.7c0.2-0.1,0-0.4-0.1-0.3c-0.6,0.4-1.2,0.6-1.9,0.6
				C103.2,69.6,103.2,69.9,103.4,69.9L103.4,69.9z"/>
		</g>
	</g>
</g>
<g>
	<g>
		<g>
			<path class="st0" d="M101.6,65.7c-1.9-0.1-1.5-2.8,0.2-2.9c0.6,0,1.2,0.3,1.5,0.8c0.4,0.8-0.2,1.8-1.1,1.8c-0.2,0-0.2,0.3,0,0.3
				c0.9,0,1.6-0.8,1.5-1.7c-0.1-0.9-1-1.6-1.9-1.5c-0.9,0-1.7,0.7-1.8,1.6c-0.1,1,0.6,1.8,1.6,1.9C101.8,66,101.8,65.7,101.6,65.7
				L101.6,65.7z"/>
		</g>
	</g>
</g>
<g>
	<g>
		<g>
			<path class="st0" d="M104.1,67.5c-0.9-0.7-0.3-2.2,0.9-1.9c0.5,0.1,0.9,0.6,0.7,1.2c-0.1,0.5-0.6,0.9-1.1,0.8
				c-0.2,0-0.3,0.3-0.1,0.3c1.4,0.2,2.1-1.9,0.7-2.5c-0.6-0.3-1.4-0.1-1.7,0.6c-0.3,0.6-0.2,1.4,0.4,1.8
				C104.1,67.8,104.3,67.6,104.1,67.5L104.1,67.5z"/>
		</g>
	</g>
</g>
<g>
	<g>
		<g>
			<path class="st0" d="M90.2,78.5c-0.6-3.8-1.3-7.6-0.9-11.4c0.3-3.6,1.9-7,2.2-10.6c0.1-1.9-0.1-3.8-0.1-5.7
				c0-1.8,0.4-3.7,0.4-5.5C92,41.8,91,38.4,90,35.1c0-0.2-0.3-0.1-0.3,0.1c1.1,3.5,2,7.1,1.8,10.8c-0.1,1.8-0.4,3.7-0.4,5.6
				c0,2,0.3,4,0,6c-0.5,3.5-1.9,6.7-2.1,10.2c-0.2,3.6,0.4,7.2,1,10.8C90,78.8,90.3,78.7,90.2,78.5L90.2,78.5z"/>
		</g>
	</g>
</g>
<g>
	<g>
		<g>
			<path class="st0" d="M91.1,36.4c0.7,2.7,1.1,5.5,1.1,8.2c0,2.6-0.4,5.2,0.1,7.8c0.2,1.3,0.6,2.7,0.6,4c0,1.3-0.4,2.5-0.8,3.8
				c-0.6,2-1.2,4-0.7,6.1c0,0.2,0.3,0.1,0.3-0.1c-0.6-2.5,0.5-4.9,1.1-7.2c0.6-2.3,0.2-4.3-0.2-6.6c-0.5-2.8,0-5.6-0.1-8.4
				c-0.1-2.6-0.5-5.2-1.1-7.6C91.3,36.1,91,36.2,91.1,36.4L91.1,36.4z"/>
		</g>
	</g>
</g>
<g>
	<g>
		<g>
			<path class="st0" d="M40,47.3c-1.6,7.3,0.1,14.8-1.2,22.2c0,0.2,0.3,0.3,0.3,0.1c1.3-7.3-0.4-14.9,1.2-22.2
				C40.3,47.2,40.1,47.1,40,47.3L40,47.3z"/>
		</g>
	</g>
</g>
<g>
	<g>
		<g>
			<path class="st0" d="M38.9,76.8c0.1,1.6,0.2,3.1,0.4,4.7c0,0.2,0.3,0.2,0.3,0c-0.1-1.6-0.2-3.1-0.4-4.7
				C39.2,76.6,38.9,76.6,38.9,76.8L38.9,76.8z"/>
		</g>
	</g>
</g>
<g>
	<g>
		<g>
			<path class="st0" d="M65.4,29.2c-2.2,0.9-2.9,3.7-1.2,5.5c1.6,1.7,5,1.8,5.9-0.7c0.2-0.6,0.3-1.7-0.4-2c-0.6-0.3-1.6,0.6-1.6,1.2
				c0,1.4,1.7,0.4,0.8-0.2c-0.2-0.1-0.3,0.1-0.1,0.3c0.1-1.2,0.5-1.2,1.2,0c-0.1,0.3-0.2,0.6-0.3,0.9c-0.3,0.6-0.9,1.1-1.5,1.3
				c-1.2,0.4-2.6,0.1-3.5-0.7c-1.8-1.6-1.2-4.4,0.9-5.3C65.7,29.4,65.6,29.2,65.4,29.2L65.4,29.2z"/>
		</g>
	</g>
</g>
<g>
	<g>
		<g>
			<path class="st0" d="M46.9,35.3c-0.9-0.7-0.3-2.1,0.2-2.8c0.4-0.5,1.1-0.9,1.7-0.6c0.4,0.2,0.6,0.6,0.5,1c0,0.4-0.3,0.5-0.8,0.5
				c-0.6-0.4-0.6-0.7,0-1c-0.2-0.1-0.3,0.1-0.1,0.3c0.3,0.2,0.8,0.2,0.8-0.3c0-0.6-0.7-0.6-1.1-0.3c-1.1,0.9,0.6,2.4,1.4,1.3
				c0.3-0.5,0.2-1.1-0.2-1.5c-0.5-0.5-1.3-0.4-1.8,0c-1.1,0.7-2,2.8-0.8,3.7C46.8,35.6,47,35.4,46.9,35.3L46.9,35.3z"/>
		</g>
	</g>
</g>
<g>
	<g>
		<g>
			<path class="st0" d="M49.5,29.9c-0.1-0.7,0.5-1.5,1.2-1.5c0.6,0,1.1,0.6,1.1,1.2c0,0.8-1.1,1.5-1.7,0.7c-0.3-0.4,0-1,0.5-1
				c0,0,0.6,0.2,0.3,0.4c-0.1,0.1-0.1-0.4-0.1-0.5c0.1-0.2-0.2-0.3-0.3-0.1c-0.1,0.3-0.2,0.7,0.2,0.9c0.3,0.1,0.5-0.2,0.5-0.5
				c-0.1-0.9-1.5-0.5-1.6,0.2c-0.2,1.1,1.3,1.5,1.9,0.8c0.7-0.7,0.4-1.9-0.5-2.4c-1.1-0.6-2.3,0.6-2,1.7
				C49.3,30.1,49.5,30,49.5,29.9L49.5,29.9z"/>
		</g>
	</g>
</g>
<g>
	<g>
		<g>
			<path class="st0" d="M53.5,28.2c-0.1-0.6,0.5-1,1-0.7c0.2,0.1,0.3,0.3,0.2,0.6c-0.1,0.4-0.4,0-0.3-0.1c0,0-0.1,0-0.1,0
				c0.1,0.1,0.2,0.2,0.3,0.3c0.1,0.2,0.4,0.1,0.3-0.1c-0.1-0.2-0.3-0.6-0.5-0.5c-0.2,0-0.3,0.3-0.2,0.5c0.1,0.5,0.7,0.5,0.9,0
				c0.2-0.6-0.3-1.1-0.9-1.1c-0.6,0-1.1,0.6-1,1.2C53.3,28.5,53.6,28.4,53.5,28.2L53.5,28.2z"/>
		</g>
	</g>
</g>
<g>
	<g>
		<g>
			<path class="st0" d="M56.9,29.1c-0.5-0.9-0.4-2.2,0.5-2.8c0.9-0.5,2-0.2,2.3,0.8c0.3,1-0.8,1.9-1.7,1.4c-0.4-0.2-0.5-0.6-0.4-1
				c0-0.2,0.1-0.4,0.2-0.5c0.1-0.1,0.1-0.2,0.3-0.2c0.3-0.2,0.5-0.1,0.5,0.3c0.1-0.1-0.1-0.3-0.2-0.2c-0.3,0.3-0.2,0.8,0.2,0.9
				c0.4,0.1,0.8-0.4,0.7-0.8c-0.1-0.6-0.8-0.7-1.2-0.6c-0.5,0.2-0.8,0.7-0.8,1.2c-0.1,1.3,1.6,1.7,2.4,0.9c1-1,0.1-2.6-1.2-2.8
				c-1.9-0.2-2.7,2-1.9,3.5C56.7,29.4,57,29.2,56.9,29.1L56.9,29.1z"/>
		</g>
	</g>
</g>
<g>
	<g>
		<g>
			<path class="st0" d="M62.2,26.2c0.3-0.3,0.7-0.6,1.1-0.7c0.5-0.1,1,0.1,1,0.6c0,0.4-0.2,0.7-0.5,0.9c-0.2,0.1-0.5,0.2-0.7,0
				c-0.1-0.1-0.2-0.2-0.2-0.4c0-0.1,0.3-0.4,0.4-0.2c0.1,0.1,0.3-0.1,0.2-0.2c-0.4-0.4-1.1,0.2-0.9,0.7c0.3,0.7,1.3,0.5,1.7,0
				c0.4-0.5,0.5-1.3,0-1.7c-0.7-0.6-1.7,0.1-2.3,0.6C61.8,26.1,62,26.3,62.2,26.2L62.2,26.2z"/>
		</g>
	</g>
</g>
<g>
	<g>
		<g>
			<path class="st0" d="M62.4,29c-0.1-0.5,0.5-1,0.9-0.6c0.1,0.1,0.2,0.4,0.2,0.6c0,0.1-0.2,0.3-0.4,0.3c-0.2,0-0.3-0.2-0.1-0.3
				c0.2-0.1,0-0.4-0.1-0.3c-0.4,0.2-0.2,0.8,0.2,0.9c0.5,0.1,0.9-0.5,0.8-0.9s-0.6-0.8-1-0.7c-0.5,0.1-0.8,0.6-0.7,1.1
				C62.1,29.3,62.4,29.2,62.4,29L62.4,29z"/>
		</g>
	</g>
</g>
<g>
	<g>
		<g>
			<path class="st0" d="M67.2,26.6c0.2-0.5,0.7-1.3,1.3-0.9c0.3,0.2,0.4,0.6,0.1,0.8c-0.1,0.1-0.2,0.1-0.4,0.2c-0.1,0-0.2,0-0.3,0
				c-0.2,0-0.2-0.1,0.1-0.2c0.1,0.1,0.3-0.1,0.2-0.2c-0.4-0.5-1.1,0.1-0.8,0.6c0.3,0.5,1.2,0.1,1.4-0.3c0.3-0.5-0.1-1.2-0.7-1.3
				c-0.7-0.1-1.2,0.6-1.4,1.2C66.8,26.7,67.1,26.8,67.2,26.6L67.2,26.6z"/>
		</g>
	</g>
</g>
<g>
	<g>
		<g>
			<path class="st0" d="M71.2,26.2C70.9,25.2,72,24,73,24.7c0.6,0.4,0.8,1.5-0.1,1.7c-0.4,0.1-0.9-0.1-0.8-0.6
				c0-0.3,0.2-0.4,0.5-0.4c0.2,0,0.3,0.2,0.2,0.4c0.1,0,0.1,0,0.2,0c0,0,0,0,0,0.1c0.2-0.1,0-0.4-0.1-0.3c0,0,0,0,0,0
				c0,0-0.1,0.1-0.1,0.1c0,0.1,0,0.2,0.1,0.2c0,0,0.1,0,0.2,0c0.7-0.4-0.4-1.4-1-0.7c-0.3,0.3-0.1,0.8,0.2,1.1
				c0.4,0.3,0.9,0.3,1.2,0c1.1-0.7,0.3-2.2-0.8-2.3c-1.1-0.1-2,1.1-1.7,2.1C70.9,26.5,71.2,26.4,71.2,26.2L71.2,26.2z"/>
		</g>
	</g>
</g>
<g>
	<g>
		<g>
			<path class="st0" d="M75.5,26.9c0.1-0.3,0.6-0.6,0.8-0.3s0,0.6-0.3,0.7c0,0,0.1,0,0.1,0c-0.1-0.1-0.2-0.2-0.1-0.4
				c0-0.2-0.2-0.3-0.3-0.1c-0.1,0.3,0.1,0.9,0.5,0.7c0.3-0.1,0.5-0.5,0.5-0.8c0-0.4-0.3-0.6-0.7-0.5c-0.4,0-0.7,0.3-0.8,0.6
				C75.1,27,75.4,27.1,75.5,26.9L75.5,26.9z"/>
		</g>
	</g>
</g>
<g>
	<g>
		<g>
			<path class="st0" d="M79.2,28.9c-0.5-0.3,0.1-0.9,0.4-1.1c0.3-0.2,0.8-0.3,1.1-0.1c0.4,0.2,0.6,0.7,0.3,1.1
				c-0.1,0.1-0.3,0.2-0.5,0.2c-0.2,0-0.3-0.1-0.4-0.3c0.1-0.3,0.2-0.4,0.3-0.1c0,0.2,0.3,0.2,0.3,0c0-0.7-1.2-0.5-0.8,0.3
				c0.3,0.7,1.4,0.4,1.6-0.3c0.2-1-0.9-1.5-1.7-1.2c-0.6,0.2-1.4,1.2-0.6,1.7C79.3,29.3,79.4,29,79.2,28.9L79.2,28.9z"/>
		</g>
	</g>
</g>
<g>
	<g>
		<g>
			<path class="st0" d="M83.2,29.8c0,0,0-0.1,0-0.2c0-0.1,0.1-0.1,0.2-0.2c0.2-0.1,0.4,0,0.5,0.1c0.3,0.2,0.1,0.8-0.2,0.8
				c0,0,0.1,0,0.1,0c0,0,0-0.1,0-0.1c0.2-0.1,0.1-0.4-0.1-0.3c-0.2,0.1-0.3,0.3-0.2,0.5c0.1,0.2,0.3,0.3,0.5,0.2
				c0.4-0.2,0.6-0.8,0.3-1.2C84,29.1,83.4,29,83,29.3c-0.3,0.3-0.1,1,0.3,0.7C83.5,30,83.4,29.7,83.2,29.8L83.2,29.8z"/>
		</g>
	</g>
</g>
<g>
	<g>
		<g>
			<path class="st0" d="M69.5,29c-0.4-0.2-0.2-0.6,0-0.8c0.3-0.2,0.7-0.2,1-0.1c0.3,0.1,0.6,0.6,0.2,0.9c-0.2,0.1-0.4,0-0.4-0.2
				c0,0,0-0.1,0-0.1c0,0-0.1-0.2-0.1,0c0,0.2,0.3,0.2,0.3,0c0-0.2-0.3-0.3-0.4-0.2c-0.1,0.1-0.1,0.3,0,0.5c0.2,0.6,1.2,0.4,1.2-0.2
				c0-0.9-0.9-1.1-1.6-0.9C69.4,28,69,28.2,69,28.5c0,0.3,0.1,0.6,0.4,0.8C69.6,29.4,69.7,29.1,69.5,29L69.5,29z"/>
		</g>
	</g>
</g>
<g>
	<g>
		<g>
			<path class="st0" d="M73.1,29.1c-0.1-0.4,0.3-0.8,0.7-0.6c0.3,0.1,0.4,0.6,0.2,0.8c0,0,0.1,0,0.1,0c-0.2,0-0.3-0.2-0.2-0.4
				c0.1-0.2-0.1-0.3-0.3-0.1c-0.2,0.3,0,0.8,0.4,0.8c0.2,0,0.2-0.2,0.3-0.4c0-0.2,0-0.4-0.1-0.6c-0.2-0.4-0.6-0.6-0.9-0.4
				c-0.4,0.1-0.6,0.6-0.6,1C72.9,29.4,73.2,29.3,73.1,29.1L73.1,29.1z"/>
		</g>
	</g>
</g>
<g>
	<g>
		<g>
			<path class="st0" d="M54.7,97.8c-0.2-1.2-0.2-2.5,0-3.7c0-0.2-0.3-0.3-0.3-0.1c-0.2,1.3-0.2,2.6,0,3.9
				C54.5,98.1,54.8,98,54.7,97.8L54.7,97.8z"/>
		</g>
	</g>
</g>
<g>
	<g>
		<g>
			<path class="st0" d="M58.4,98.3c0.1-0.4,0.3-0.7,0.5-1.1c0.1-0.2-0.2-0.3-0.3-0.1c-0.1,0.4-0.3,0.7-0.5,1.1
				C58,98.3,58.3,98.4,58.4,98.3L58.4,98.3z"/>
		</g>
	</g>
</g>
<g>
	<g>
		<g>
			<path class="st0" d="M86.3,93.1c0.5-1,0.7-2.1,0.7-3.3c0-0.2-0.3-0.2-0.3,0c0,1.1-0.2,2.1-0.6,3.1C85.9,93.1,86.2,93.3,86.3,93.1
				L86.3,93.1z"/>
		</g>
	</g>
</g>
<g>
	<g>
		<g>
			<path class="st0" d="M89.3,90.5c0.4-1.5,0.7-2.9,1.1-4.4c0-0.2-0.2-0.3-0.3-0.1c-0.4,1.5-0.7,2.9-1.1,4.4
				C89,90.6,89.3,90.7,89.3,90.5L89.3,90.5z"/>
		</g>
	</g>
</g>
<g>
	<g>
		<g>
			<path class="st0" d="M107.5,104.4c0.5,2.9-2.7,4.3-5,5c-1.9,0.6-3.8,1-5.7,1.5c-3.6,0.9-7.2,1.9-9.9,4.5
				c-1.6,1.4-2.8,3.2-4.5,4.5c-1.7,1.4-3.8,2.4-5.9,3.2c-4.3,1.5-8.9,2.3-13.4,2.9c-5.1,0.6-10.3,0.5-15.2,2.1
				c-0.2,0-0.1,0.4,0.1,0.3c5-1.6,10.3-1.5,15.4-2.1c4.6-0.6,9.2-1.4,13.6-3c1.8-0.7,3.6-1.6,5.2-2.8c1.7-1.3,3.1-3.1,4.6-4.6
				c3.3-3.1,7.7-4.1,12-5.1c3.1-0.7,9.8-1.8,9.1-6.4C107.7,104.2,107.5,104.2,107.5,104.4L107.5,104.4z"/>
		</g>
	</g>
</g>
<g>
	<g>
		<g>
			<path class="st0" d="M25.8,118.7c2.1-0.7,3.6-2.2,5.5-3.3c2.3-1.3,4.9-1.3,7.3-2.3c4.6-1.8,8.8-6.6,14.2-5c0.2,0,0.3-0.2,0.1-0.3
				c-5-1.4-9.1,2.5-13.3,4.5c-2.3,1.1-4.9,1.2-7.3,2.2c-2.3,1-4.1,3-6.6,3.8C25.6,118.5,25.6,118.8,25.8,118.7L25.8,118.7z"/>
		</g>
	</g>
</g>
<g>
	<g>
		<g>
			<path class="st0" d="M26.6,108.7c-1.6,0.3-3.2,0.3-4.8,0c-0.2,0-0.3,0.3-0.1,0.3c1.7,0.3,3.3,0.3,4.9,0
				C26.9,108.9,26.8,108.7,26.6,108.7L26.6,108.7z"/>
		</g>
	</g>
</g>
<g>
	<g>
		<g>
			<path class="st0" d="M114.2,106.8c3.3,0,6.6-0.1,9.9-0.2c0.2,0,0.2-0.3,0-0.3c-3.3,0-6.6,0.1-9.9,0.2
				C114,106.5,114,106.9,114.2,106.8L114.2,106.8z"/>
		</g>
	</g>
</g>
<g>
	<g>
		<g>
			<path class="st0" d="M109.4,98.6c-0.9,0.6-1.4,1.5-1.9,2.4c-0.9,1.5-2,2.6-3.8,2.6c-0.4,0-0.4,0.6,0,0.6c1.3,0,2.6-0.5,3.4-1.5
				c1-1.1,1.3-2.7,2.6-3.6C110.1,98.9,109.8,98.4,109.4,98.6L109.4,98.6z"/>
		</g>
	</g>
</g>
<g>
	<g>
		<g>
			<path class="st0" d="M29.3,104.7c3.7,4.2,9.6-1.5,13.8,1.6c0.1,0.1,0.3-0.1,0.1-0.3c-4.1-3-10.1,2.6-13.7-1.5
				C29.4,104.3,29.2,104.5,29.3,104.7L29.3,104.7z"/>
		</g>
	</g>
</g>
<g>
	<g>
		<g>
			<path class="st0" d="M41.9,107.2c-0.7-1.5-3.5-0.5-4.5,0c-2.3,1.1-4,3-5.7,4.9c-0.1,0.1,0.1,0.4,0.2,0.2c1.2-1.4,2.5-2.8,4-3.9
				c0.7-0.5,1.5-0.9,2.3-1.2c0.8-0.3,2.9-0.9,3.5,0.1C41.7,107.5,41.9,107.3,41.9,107.2L41.9,107.2z"/>
		</g>
	</g>
</g>
<g>
	<g>
		<g>
			<path class="st0" d="M34,107.5c-0.7,0.5-1.4,1-2.1,1.5c-0.2,0.1,0,0.4,0.1,0.3c0.7-0.5,1.4-1,2.1-1.5
				C34.3,107.7,34.1,107.4,34,107.5L34,107.5z"/>
		</g>
	</g>
</g>
<g>
	<g>
		<g>
			<path class="st0" d="M65.1,100.6c-1.5,3.1-5,5-8.4,4.5c-0.2,0-0.3,0.3-0.1,0.3c3.6,0.5,7.2-1.4,8.7-4.6
				C65.4,100.6,65.2,100.4,65.1,100.6L65.1,100.6z"/>
		</g>
	</g>
</g>
<g>
	<g>
		<g>
			<path class="st0" d="M63.6,100.7c-1.1,0.4-2.1,0.7-3.2,1.1c-0.2,0.1-0.1,0.4,0.1,0.3c1.1-0.4,2.1-0.7,3.2-1.1
				C63.9,101,63.8,100.7,63.6,100.7L63.6,100.7z"/>
		</g>
	</g>
</g>
<g>
	<g>
		<g>
			<path class="st0" d="M84.5,96.3c2.8-0.3,5.3-1.5,7.4-3.5c0.1-0.1-0.1-0.4-0.2-0.2c-1.9,1.9-4.4,3.1-7.1,3.4
				C84.3,96.1,84.3,96.3,84.5,96.3L84.5,96.3z"/>
		</g>
	</g>
</g>
<g>
	<g>
		<g>
			<path class="st0" d="M109.5,97.5c-1.8-0.6-2.9,1.1-4,2.3c-1.6,1.8-3.6,3-5.9,3.6c-0.2,0-0.1,0.3,0.1,0.3c1.6-0.4,3.1-1.1,4.4-2.1
				c1.5-1.2,3.1-4.5,5.3-3.8C109.6,97.8,109.7,97.5,109.5,97.5L109.5,97.5z"/>
		</g>
	</g>
</g>
<g>
	<g>
		<g>
			<path class="st0" d="M66.9,103c-3.2,3.9-5.6,8.4-6.9,13.3c0,0.2,0.2,0.3,0.3,0.1c1.4-4.8,3.7-9.3,6.9-13.2
				C67.2,103.1,67,102.9,66.9,103L66.9,103z"/>
		</g>
	</g>
</g>
<g>
	<g>
		<g>
			<path class="st0" d="M68.4,103.1c-0.6,1.4-1.1,2.9-1.7,4.3c-0.1,0.2,0.2,0.3,0.3,0.1c0.6-1.4,1.1-2.9,1.7-4.3
				C68.7,103,68.4,103,68.4,103.1L68.4,103.1z"/>
		</g>
	</g>
</g>
<g>
	<g>
		<g>
			<path class="st0" d="M82,97.5c4.9,0.1,9.6,1.5,13.8,4.1c0.2,0.1,0.3-0.2,0.1-0.3c-4.2-2.6-9-4-13.9-4.1
				C81.8,97.3,81.8,97.5,82,97.5L82,97.5z"/>
		</g>
	</g>
</g>
<g>
	<g>
		<g>
			<path class="st0" d="M85.4,97.8c3.6-0.6,7.2-0.7,10.8-0.3c0.2,0,0.2-0.3,0-0.3c-3.6-0.5-7.3-0.4-10.9,0.3
				C85.1,97.6,85.2,97.9,85.4,97.8L85.4,97.8z"/>
		</g>
	</g>
</g>
<g>
	<g>
		<g>
			<path class="st0" d="M86.8,33.2c1,0.6,2.2,1.5,3.3,1.8c0.6,0.2,1,0,1.3-0.6c0.8-1.7-2-2.9-3.2-3.1c0,0.1,0.1,0.3,0.2,0.4
				c1-2-1.1-3.5-2.8-4.1c-0.7-0.2-1.5-0.4-2.2-0.8c-0.6-0.3-1.1-0.9-1.7-1.1c-1.2-0.4-2.2,0.8-3.3-0.4c-0.3-0.3-0.7,0.1-0.4,0.4
				c0.4,0.5,1,0.8,1.7,0.8c0.3,0,0.6-0.2,0.9-0.2c0.8-0.1,1.3,0.2,1.9,0.6c1.5,1.1,6.7,1.7,5.3,4.5c-0.1,0.2,0,0.4,0.2,0.4
				c0.6,0.1,1.2,0.3,1.7,0.6c0.3,0.2,0.6,0.4,0.8,0.6c0,1-0.3,1.4-0.7,1c-0.4-0.1-0.9-0.5-1.3-0.7c-0.5-0.3-1-0.6-1.5-0.8
				C86.8,32.5,86.5,33,86.8,33.2L86.8,33.2z"/>
		</g>
	</g>
</g>
<g>
	<g>
		<g>
			<path class="st0" d="M85.2,30.5c-0.1-0.6,0.6-1.2,1.1-0.8c0.4,0.3,0.2,1-0.2,1.2c0.1,0,0.1,0,0.2,0c-0.3-0.3-0.3-0.7,0-1
				c0.1-0.1-0.1-0.3-0.3-0.1c-0.3,0.4-0.3,1,0.1,1.4c0,0,0.1,0,0.2,0c0.7-0.3,0.7-1.4,0.1-1.8c-0.7-0.5-1.7,0.4-1.5,1.2
				C85,30.8,85.3,30.7,85.2,30.5L85.2,30.5z"/>
		</g>
	</g>
</g>
<g>
	<g>
		<g>
			<path class="st0" d="M88.5,33.3c0-0.3,0-0.6,0-0.8c0,0-0.1,0.1-0.1,0.1c0.6,0,1.2,0.5,1.1,1.2c0,0,0.1-0.1,0.1-0.1
				c-0.1,0-0.2,0-0.2-0.1c0-0.2-0.3-0.2-0.3,0c0,0.3,0.3,0.5,0.6,0.4c0.1,0,0.1-0.1,0.1-0.1c0-0.8-0.6-1.5-1.4-1.5
				c-0.1,0-0.1,0.1-0.1,0.1c0,0.3,0,0.6,0,0.8C88.2,33.5,88.5,33.5,88.5,33.3L88.5,33.3z"/>
		</g>
	</g>
</g>
<g>
	<g>
		<g>
			<path class="st0" d="M108.6,102.9c0.8,0,1.5,0.7,1.6,1.6c0,0.2,0.3,0.2,0.3,0c0-1-0.8-1.8-1.8-1.9
				C108.4,102.6,108.4,102.9,108.6,102.9L108.6,102.9z"/>
		</g>
	</g>
</g>
<g>
	<g>
		<g>
			<path class="st0" d="M45,97.2c-0.4-0.5-0.7-1-1.1-1.5c-0.1-0.2-0.4,0-0.3,0.1c0.4,0.5,0.7,1,1.1,1.5C44.8,97.5,45.1,97.3,45,97.2
				L45,97.2z"/>
		</g>
	</g>
</g>
<g>
	<g>
		<g>
			<path class="st0" d="M50.9,26.5c-0.4,0.2-0.4,0.7-0.2,1.1c0.1,0.1,0.3-0.1,0.2-0.2c-0.1-0.2-0.1-0.5,0.1-0.6
				C51.2,26.6,51,26.4,50.9,26.5L50.9,26.5z"/>
		</g>
	</g>
</g>
<g>
	<g>
		<g>
			<path class="st0" d="M58.2,24c-0.4,0.1-0.6,0.5-0.5,0.9c0.1,0.2,0.4,0.1,0.3-0.1c-0.1-0.2,0-0.4,0.3-0.5
				C58.5,24.2,58.4,23.9,58.2,24L58.2,24z"/>
		</g>
	</g>
</g>
<g>
	<g>
		<g>
			<path class="st0" d="M60,24.9c0.8,0.9,2,0.7,2.9,0c0.1-0.1,0-0.3-0.2-0.2C62.1,24.9,61.6,25,61,25c-0.2,0-0.2,0.3,0,0.3
				c0.7,0.1,1.3-0.1,1.8-0.5c0-0.1-0.1-0.2-0.1-0.3c-0.2,0.2-0.4,0.3-0.6,0.5c-0.1,0.1,0,0.3,0.1,0.3c0.3-0.1,0.6-0.3,0.9-0.4
				c0.2-0.1,0-0.3-0.1-0.3c-0.3,0-0.5,0.1-0.7,0.3c-0.1,0.1,0,0.4,0.1,0.3c0.1-0.1,0.2-0.1,0.3-0.2c0.2-0.1,0-0.4-0.1-0.3
				c-0.1,0.1-0.2,0.1-0.3,0.2c0,0.1,0.1,0.2,0.1,0.3c0.2-0.1,0.4-0.2,0.6-0.3c0-0.1-0.1-0.2-0.1-0.3c-0.3,0.1-0.6,0.3-0.9,0.4
				c0,0.1,0.1,0.2,0.1,0.3c0.2-0.2,0.4-0.3,0.6-0.5c0.1-0.1,0-0.4-0.1-0.3C62.1,24.9,61.6,25,61,25c0,0.1,0,0.2,0,0.3
				c0.6,0,1.2-0.1,1.8-0.3c-0.1-0.1-0.1-0.2-0.2-0.2c-0.7,0.6-1.7,0.8-2.4,0C60.1,24.5,59.9,24.7,60,24.9L60,24.9z"/>
		</g>
	</g>
</g>
<g>
	<g>
		<g>
			<path class="st0" d="M60.2,25.1c0.2,0,0.3,0.1,0.5,0.1c0.2,0,0.3-0.2,0.1-0.3c-0.2,0-0.3-0.1-0.5-0.1C60,24.8,60,25.1,60.2,25.1
				L60.2,25.1z"/>
		</g>
	</g>
</g>
<g>
	<g>
		<g>
			<path class="st0" d="M76.7,23.1c-0.6-0.1-1.2,0.3-1.4,0.9c0,0.2,0.2,0.3,0.3,0.1c0.1-0.4,0.6-0.7,1.1-0.6
				C76.8,23.4,76.9,23.1,76.7,23.1L76.7,23.1z"/>
		</g>
	</g>
</g>
<g>
	<g>
		<g>
			<path class="st0" d="M67.7,18.1c-0.2,0.2-0.3,0.3-0.5,0.5c-0.1,0.1,0.1,0.4,0.2,0.2c0.2-0.2,0.3-0.3,0.5-0.5
				C68.1,18.2,67.8,18,67.7,18.1L67.7,18.1z"/>
		</g>
	</g>
</g>
<g>
	<g>
		<g>
			<path class="st0" d="M78.5,19.2c-0.5,0.2-0.8,0.5-1,1c-0.1,0.2,0.2,0.3,0.3,0.1c0.1-0.4,0.5-0.6,0.8-0.8
				C78.7,19.4,78.6,19.2,78.5,19.2L78.5,19.2z"/>
		</g>
	</g>
</g>
<g>
	<g>
		<g>
			<path class="st0" d="M85,26.8c-0.3,0-0.6,0-0.9,0.1c-0.2,0-0.1,0.3,0.1,0.3c0.3-0.1,0.5-0.1,0.8-0.1C85.2,27.2,85.2,26.8,85,26.8
				L85,26.8z"/>
		</g>
	</g>
</g>
<g>
	<g>
		<g>
			<path class="st0" d="M63.6,20c-1-0.9-2.7,0.1-2.1,1.4c0.3,0.6,0.9,1,1.6,0.7c0.6-0.2,1-1,0.8-1.6c0-0.2-0.3-0.1-0.3,0.1
				c0.1,0.5-0.1,1.1-0.6,1.2c-0.5,0.2-1-0.1-1.2-0.6c-0.4-1,1-1.6,1.7-1C63.5,20.4,63.7,20.2,63.6,20L63.6,20z"/>
		</g>
	</g>
</g>
<g>
	<g>
		<g>
			<path class="st0" d="M54.6,21.6c-1.1-0.8-2.5,0.6-1.7,1.7c0.9,1.2,2.6,0.2,2.2-1.2c0-0.2-0.3-0.1-0.3,0.1
				c0.3,1.1-1.1,1.8-1.7,0.8c-0.5-0.9,0.6-1.7,1.3-1.2C54.6,21.9,54.8,21.6,54.6,21.6L54.6,21.6z"/>
		</g>
	</g>
</g>
<g>
	<g>
		<g>
			<path class="st0" d="M47.8,25.7c-0.7-1.1-2.4-0.1-2.3,1.1c0.1,0.5,0.6,0.9,1.1,0.9c0.6,0,1.2-0.4,1.4-0.9
				c0.1-0.2-0.2-0.3-0.3-0.1c-0.3,0.7-1.3,1.2-1.8,0.4c-0.6-0.9,1-2,1.6-1.2C47.7,26,48,25.9,47.8,25.7L47.8,25.7z"/>
		</g>
	</g>
</g>
<g>
	<g>
		<g>
			<path class="st0" d="M73.1,20.3c-0.6-0.3-1.3-0.3-1.8,0.1c-0.5,0.4-0.6,0.9-0.2,1.4c0.8,1.1,2.4,0.7,2.9-0.5
				c0.1-0.2-0.2-0.3-0.3-0.1c-0.3,0.8-1.2,1.2-2,0.7c-0.5-0.3-0.7-1-0.2-1.3c0.4-0.3,1-0.3,1.4-0.1C73.1,20.6,73.3,20.4,73.1,20.3
				L73.1,20.3z"/>
		</g>
	</g>
</g>
<g>
	<g>
		<g>
			<path class="st0" d="M79.8,22.7c-1.1-0.3-2.1,0.9-1.3,1.9c0.3,0.4,1,0.5,1.4,0.3c0.6-0.3,0.8-0.9,0.9-1.4c0-0.2-0.2-0.3-0.3-0.1
				c-0.2,0.7-0.7,1.7-1.6,1.2c-0.4-0.2-0.5-0.7-0.4-1.1c0.2-0.5,0.7-0.7,1.2-0.5C79.9,23.1,80,22.8,79.8,22.7L79.8,22.7z"/>
		</g>
	</g>
</g>
<g>
	<g>
		<g>
			<path class="st0" d="M102.2,75c0.1-0.1,0.1-0.2,0-0.4c0-0.1-0.2-0.1-0.3,0c-0.1,0.7,0,1.4,0.4,2.1c0.1,0.2,0.4,0,0.3-0.1
				c-0.4-0.6-0.5-1.2-0.4-1.8c-0.1,0-0.2,0-0.3,0c0,0,0,0,0,0C101.9,74.9,102.1,75.1,102.2,75L102.2,75z"/>
		</g>
	</g>
</g>
<g>
	<g>
		<g>
			<path class="st0" d="M102.3,74.6c-0.1,0.6,0,1.2,0,1.7c0,0.2,0.3,0.2,0.3,0c-0.1-0.6-0.1-1.2,0-1.7
				C102.6,74.4,102.3,74.4,102.3,74.6L102.3,74.6z"/>
		</g>
	</g>
</g>
<g>
	<g>
		<g>
			<path class="st0" d="M35,63.2c0.2,0,0.2-0.3,0-0.3C34.8,62.9,34.8,63.2,35,63.2L35,63.2z"/>
		</g>
	</g>
</g>
<g>
	<g>
		<g>
			<path class="st0" d="M37.4,62.2c0,0.1,0.1,0.3,0.1,0.4c0,0.2,0.3,0.1,0.3-0.1c0-0.1-0.1-0.3-0.1-0.4C37.6,62,37.3,62,37.4,62.2
				L37.4,62.2z"/>
		</g>
	</g>
</g>
<g>
	<g>
		<g>
			<path class="st0" d="M60.1,30.1c-0.2,1,0.4,1.9,1.4,2c0.3,0,0.8,0,0.9-0.4c0-0.5-0.8-0.6-1.1-0.7c-0.2,0-0.3,0.2-0.1,0.3
				c0.1,0,1,0.2,0.7,0.5c-0.2,0.2-0.7,0-0.9-0.1c-0.6-0.3-0.8-0.9-0.6-1.5C60.4,30,60.1,29.9,60.1,30.1L60.1,30.1z"/>
		</g>
	</g>
</g>
<g>
	<g>
		<g>
			<path class="st0" d="M77.6,29.3c-0.2,0.5-0.7,1.7-0.2,2.3c0.4,0.5,1.7,0.4,2.3,0.3c0.1,0,0.2-0.1,0.1-0.2
				c-0.5-0.9-1.8-0.1-1.2,0.7c0.8,1,2.6,0.3,2.3-1c0-0.2-0.3-0.1-0.3,0.1c0.2,1.1,1.4,1,2.2,1c0.2,0,0.2-0.3,0-0.3
				c-0.6,0-1.8,0-1.9-0.8c-0.1,0-0.2,0-0.3,0.1c-1.1,1.3-1.5,1.4-1.2,0.4c0-0.1,0.1-0.1,0.1-0.2c-0.6,0.1-1.6,0.2-1.9-0.3
				s0-1.3,0.2-1.9C77.9,29.2,77.6,29.1,77.6,29.3L77.6,29.3z"/>
		</g>
	</g>
</g>
<g>
	<g>
		<g>
			<path class="st0" d="M60.3,30.2c-0.4,0.3-0.7,0.8-1.1,1.1c-0.5,0.5-1.9,1.4-2.6,0.9c0-0.2-0.1-0.5-0.1-0.7
				c-0.2,0.1-0.4,0.2-0.6,0.2c-0.3,0.1-0.7,0.1-1.1,0.1c-0.7,0-1.5-0.2-2.2-0.5c-0.2,0-0.3,0.2-0.1,0.3c1.2,0.4,3.5,1,4.4-0.2
				c0.6-0.7-0.3-1.3-1-0.8c-0.9,0.6-0.2,1.6,0.6,1.9c1.8,0.6,2.8-1.1,4-2.1C60.7,30.3,60.5,30.1,60.3,30.2L60.3,30.2z"/>
		</g>
	</g>
</g>
<g>
	<g>
		<g>
			<path class="st0" d="M45.3,20.5c0-0.1,0-0.3,0-0.4c0-0.2,0.1-0.2,0.3-0.3c0.3,0,0.6,0.1,0.8,0c0.5,0,0.9-0.3,1.2-0.6
				c0.2-0.3-0.2-0.7-0.4-0.4c-0.3,0.4-0.7,0.5-1.2,0.4c-0.3,0-0.5-0.1-0.8,0.1c-0.5,0.3-0.5,0.9-0.4,1.4
				C44.8,21,45.4,20.9,45.3,20.5L45.3,20.5z"/>
		</g>
	</g>
</g>
<g>
	<g>
		<g>
			<path class="st0" d="M51.6,17.7C51.6,17.7,51.6,17.7,51.6,17.7C51.5,17.8,51.6,17.7,51.6,17.7C51.5,17.8,51.5,17.8,51.6,17.7
				C51.6,17.8,51.6,17.8,51.6,17.7C51.5,17.8,51.5,17.8,51.6,17.7L51.6,17.7C51.5,17.8,51.5,17.8,51.6,17.7
				C51.5,17.8,51.5,17.7,51.6,17.7L51.6,17.7C51.6,17.8,51.6,17.8,51.6,17.7C51.5,17.7,51.5,17.7,51.6,17.7c0,0.1,0.1,0.2,0.2,0.2
				c0.1,0,0.3-0.1,0.3-0.3c0-0.2-0.2-0.4-0.4-0.5c-0.2,0-0.5,0-0.6,0.3c-0.1,0.1,0,0.3,0.1,0.4C51.3,17.9,51.5,17.9,51.6,17.7
				L51.6,17.7z"/>
		</g>
	</g>
</g>
<g>
	<g>
		<g>
			<path class="st0" d="M43,31.3c0,0.2,0,0.5,0,0.7c0,0.2,0,0.3,0.2,0.4c0.4,0.1,0.7,0.1,1.1,0c0.1-0.1,0.2-0.3,0.1-0.4
				c-0.1-0.1-0.3-0.2-0.4-0.1c-0.2,0.1-0.4,0.1-0.6,0c0.1,0.1,0.1,0.2,0.2,0.4c0-0.3,0.1-0.6,0.1-0.9C43.6,30.9,43,30.9,43,31.3
				L43,31.3z"/>
		</g>
	</g>
</g>
<g>
	<g>
		<g>
			<path class="st0" d="M60.4,15.5c0.1-0.2,0.3-0.4,0.5-0.5c0.1,0,0.2-0.1,0.3-0.1c0,0,0.1,0.1,0.1,0.1c-0.2,0.3,0.2,0.7,0.4,0.4
				c0.4-0.4,0-1.1-0.5-1.1c-0.6-0.1-1.2,0.5-1.4,1C59.7,15.7,60.3,15.9,60.4,15.5L60.4,15.5z"/>
		</g>
	</g>
</g>
<g>
	<g>
		<g>
			<path class="st0" d="M69.3,15.3C69.3,15.3,69.3,15.2,69.3,15.3C69.3,15.2,69.3,15.2,69.3,15.3C69.3,15.3,69.4,15.2,69.3,15.3
				C69.3,15.2,69.4,15.2,69.3,15.3c0.1-0.1,0.1-0.1,0.1-0.1C69.5,15.2,69.5,15.2,69.3,15.3l0.1-0.1L69.3,15.3
				C69.4,15.2,69.4,15.2,69.3,15.3c0.2,0,0.4,0,0.5-0.1c0.1-0.1,0.1-0.3,0-0.4c-0.2-0.1-0.4-0.2-0.7-0.1c-0.2,0.1-0.4,0.3-0.5,0.5
				c0,0.2,0,0.3,0.2,0.4C69.1,15.5,69.3,15.4,69.3,15.3L69.3,15.3z"/>
		</g>
	</g>
</g>
<g>
	<g>
		<g>
			<path class="st0" d="M79.8,16.4c0.1-0.1,0.3-0.2,0.5-0.2c0,0,0.2,0.1,0.2,0.2c-0.1,0.1-0.1,0.4,0.1,0.5c0.3,0.1,0.6,0.1,0.8-0.1
				c0.3-0.3-0.1-0.7-0.4-0.4c0,0-0.1,0-0.1,0c0,0.2,0,0.3,0.1,0.5c0.3-0.3,0.2-0.7-0.1-1c-0.4-0.3-0.9-0.2-1.2,0.1
				C79.1,16.1,79.4,16.6,79.8,16.4L79.8,16.4z"/>
		</g>
	</g>
</g>
<g>
	<g>
		<g>
			<path class="st0" d="M88.1,23.3c-0.1,0-0.1,0-0.1,0.1c0,0,0,0.1,0,0.1c0,0.1,0.1,0.2,0.1,0.3c0.1,0.1,0.4,0.3,0.3,0.5
				c-0.2,0.3,0.3,0.6,0.5,0.3c0.3-0.5-0.2-0.9-0.4-1.3c-0.2-0.4-0.7-0.7-1-0.2C87.4,23.3,87.9,23.6,88.1,23.3L88.1,23.3z"/>
		</g>
	</g>
</g>
<g>
	<g>
		<g>
			<path class="st0" d="M89.4,28.4C89.4,28.4,89.3,28.4,89.4,28.4C89.3,28.4,89.3,28.4,89.4,28.4C89.3,28.4,89.3,28.4,89.4,28.4
				C89.4,28.4,89.4,28.5,89.4,28.4C89.3,28.4,89.3,28.4,89.4,28.4C89.3,28.4,89.3,28.4,89.4,28.4c-0.1,0.1,0,0.3,0.2,0.4
				c0.2,0,0.3,0,0.4-0.2c0.2-0.5-0.4-0.9-0.8-0.6c-0.1,0.1-0.2,0.3-0.1,0.4C89.1,28.4,89.2,28.5,89.4,28.4L89.4,28.4z"/>
		</g>
	</g>
</g>
<g>
	<g>
		<g>
			<path class="st0" d="M42.5,26.7c-1.1,0.7-0.8,1.7-0.9,2.9c0,0.6-0.2,1.1-0.4,1.7c-0.1,0.3-0.3,0.5-0.3,0.7
				c-0.1,0.7,0.8,2.2-0.1,2.7c-0.3,0.2,0,0.7,0.3,0.5c1.1-0.6,0.5-1.5,0.4-2.4c-0.1-1,0.5-1.5,0.7-2.4c0.2-1-0.5-2.5,0.6-3.2
				C43.2,27,42.9,26.4,42.5,26.7L42.5,26.7z"/>
		</g>
	</g>
</g>
<g>
	<path class="st0" d="M69.5,72.5c-0.8,0-1.4-0.5-1.4-1.2c0-0.7,0.6-1.2,1.4-1.2s1.4,0.5,1.4,1.2C70.9,72,70.2,72.5,69.5,72.5z
		 M69.5,70.5c-0.6,0-1,0.4-1,0.9s0.5,0.9,1,0.9c0.6,0,1-0.4,1-0.9S70,70.5,69.5,70.5z"/>
</g>
<g>
	<path class="st0" d="M72.1,72.4c-0.8,0-1.4-0.5-1.4-1.2c0-0.7,0.6-1.2,1.4-1.2c0.8,0,1.4,0.5,1.4,1.2
		C73.5,71.9,72.8,72.4,72.1,72.4z M72.1,70.4c-0.6,0-1,0.4-1,0.9s0.5,0.9,1,0.9c0.6,0,1-0.4,1-0.9S72.6,70.4,72.1,70.4z"/>
</g>
<g>
	<path class="st0" d="M74.1,71.9c-0.8,0-1.4-0.5-1.4-1.2c0-0.7,0.6-1.2,1.4-1.2c0.8,0,1.4,0.5,1.4,1.2
		C75.6,71.4,74.9,71.9,74.1,71.9z M74.1,69.8c-0.6,0-1,0.4-1,0.9c0,0.5,0.5,0.9,1,0.9c0.6,0,1-0.4,1-0.9
		C75.2,70.2,74.7,69.8,74.1,69.8z"/>
</g>
<g>
	<path class="st0" d="M76.9,71.7c-0.7,0-1.2-0.4-1.3-1c-0.1-0.3,0-0.6,0.2-0.8c0.2-0.3,0.6-0.5,1-0.5c0.7-0.1,1.4,0.4,1.6,1l0,0
		c0.1,0.3,0,0.6-0.2,0.8c-0.2,0.3-0.6,0.5-1,0.5C77,71.7,76.9,71.7,76.9,71.7z M76.9,69.7c-0.1,0-0.1,0-0.2,0
		c-0.3,0-0.6,0.2-0.7,0.4c-0.1,0.2-0.2,0.4-0.1,0.6c0.1,0.5,0.6,0.8,1.2,0.7c0.3,0,0.6-0.2,0.7-0.4c0.1-0.2,0.2-0.4,0.1-0.6l0,0
		C77.8,70,77.4,69.7,76.9,69.7z"/>
</g>
<g>
	<path class="st0" d="M81.7,70.1c-0.7,0-1.2-0.4-1.3-1c-0.1-0.3,0-0.6,0.2-0.8c0.2-0.3,0.6-0.5,1-0.5c0.7-0.1,1.4,0.4,1.6,1l0,0
		c0.1,0.3,0,0.6-0.2,0.8c-0.2,0.3-0.6,0.5-1,0.5C81.8,70.1,81.7,70.1,81.7,70.1z M81.7,68.1c-0.1,0-0.1,0-0.2,0
		c-0.3,0-0.6,0.2-0.7,0.4c-0.1,0.2-0.2,0.4-0.1,0.6c0.1,0.5,0.6,0.8,1.2,0.7c0.3,0,0.6-0.2,0.7-0.4c0.1-0.2,0.2-0.4,0.1-0.6
		C82.6,68.4,82.2,68.1,81.7,68.1z"/>
</g>
<g>
	<path class="st0" d="M79.3,70.9c-0.7,0-1.2-0.4-1.3-1c-0.1-0.3,0-0.6,0.2-0.8c0.2-0.3,0.6-0.5,1-0.5c0.7-0.1,1.4,0.4,1.6,1l0,0
		c0.1,0.3,0,0.6-0.2,0.8c-0.2,0.3-0.6,0.5-1,0.5C79.5,70.9,79.4,70.9,79.3,70.9z M79.4,68.8c-0.1,0-0.1,0-0.2,0
		c-0.3,0-0.6,0.2-0.7,0.4c-0.1,0.2-0.2,0.4-0.1,0.6c0.1,0.5,0.6,0.8,1.2,0.7c0.3,0,0.6-0.2,0.7-0.4c0.1-0.2,0.2-0.4,0.1-0.6
		C80.3,69.1,79.9,68.8,79.4,68.8z"/>
</g>
<g>
	<path class="st0" d="M83.9,69.1c-0.8,0-1.4-0.5-1.4-1.2c0-0.7,0.6-1.2,1.4-1.2c0.8,0,1.4,0.5,1.4,1.2
		C85.3,68.6,84.6,69.1,83.9,69.1z M83.9,67c-0.6,0-1,0.4-1,0.9c0,0.5,0.5,0.9,1,0.9c0.6,0,1-0.4,1-0.9C84.9,67.4,84.4,67,83.9,67z"
		/>
</g>
<g>
	<path class="st0" d="M66.7,72.6c-0.8,0-1.4-0.5-1.4-1.2c0-0.7,0.6-1.2,1.4-1.2c0.8,0,1.4,0.5,1.4,1.2C68.1,72,67.5,72.6,66.7,72.6z
		 M66.7,70.5c-0.6,0-1,0.4-1,0.9c0,0.5,0.5,0.9,1,0.9c0.6,0,1-0.4,1-0.9C67.8,70.9,67.3,70.5,66.7,70.5z"/>
</g>
<g>
	<path class="st0" d="M86.2,68c-0.8,0-1.4-0.5-1.4-1.2s0.6-1.2,1.4-1.2c0.8,0,1.4,0.5,1.4,1.2S86.9,68,86.2,68z M86.2,65.9
		c-0.6,0-1,0.4-1,0.9s0.5,0.9,1,0.9c0.6,0,1-0.4,1-0.9S86.7,65.9,86.2,65.9z"/>
</g>
<g>
	<path class="st0" d="M59.5,71.9c-0.8,0-1.4-0.5-1.4-1.2c0-0.7,0.6-1.2,1.4-1.2c0.8,0,1.4,0.5,1.4,1.2
		C60.9,71.4,60.2,71.9,59.5,71.9z M59.5,69.8c-0.6,0-1,0.4-1,0.9c0,0.5,0.5,0.9,1,0.9s1-0.4,1-0.9C60.5,70.2,60,69.8,59.5,69.8z"/>
</g>
<g>
	<path class="st0" d="M61.7,72.2c-0.8,0-1.4-0.5-1.4-1.2c0-0.7,0.6-1.2,1.4-1.2s1.4,0.5,1.4,1.2C63.1,71.7,62.5,72.2,61.7,72.2z
		 M61.7,70.1c-0.6,0-1,0.4-1,0.9c0,0.5,0.5,0.9,1,0.9s1-0.4,1-0.9C62.8,70.5,62.3,70.1,61.7,70.1z"/>
</g>
<g>
	<path class="st0" d="M64.2,72.5c-0.8,0-1.4-0.5-1.4-1.2c0-0.7,0.6-1.2,1.4-1.2c0.8,0,1.4,0.5,1.4,1.2C65.6,72,65,72.5,64.2,72.5z
		 M64.2,70.4c-0.6,0-1,0.4-1,0.9c0,0.5,0.5,0.9,1,0.9c0.6,0,1-0.4,1-0.9C65.2,70.8,64.8,70.4,64.2,70.4z"/>
</g>
<g>
	<path class="st0" d="M51.8,70.7c-0.8,0-1.4-0.5-1.4-1.2c0-0.7,0.6-1.2,1.4-1.2c0.8,0,1.4,0.5,1.4,1.2
		C53.2,70.1,52.5,70.7,51.8,70.7z M51.8,68.6c-0.6,0-1,0.4-1,0.9s0.5,0.9,1,0.9s1-0.4,1-0.9S52.3,68.6,51.8,68.6z"/>
</g>
<g>
	<path class="st0" d="M54.4,71.1c-0.8,0-1.4-0.5-1.4-1.2s0.6-1.2,1.4-1.2s1.4,0.5,1.4,1.2S55.2,71.1,54.4,71.1z M54.4,69.1
		c-0.6,0-1,0.4-1,0.9s0.5,0.9,1,0.9s1-0.4,1-0.9S55,69.1,54.4,69.1z"/>
</g>
<g>
	<path class="st0" d="M56.9,71.5c-0.8,0-1.4-0.5-1.4-1.2s0.6-1.2,1.4-1.2c0.8,0,1.4,0.5,1.4,1.2S57.6,71.5,56.9,71.5z M56.9,69.5
		c-0.6,0-1,0.4-1,0.9s0.5,0.9,1,0.9s1-0.4,1-0.9S57.4,69.5,56.9,69.5z"/>
</g>
<g>
	<path class="st0" d="M44.6,68.5c-0.8,0-1.4-0.5-1.4-1.2s0.6-1.2,1.4-1.2c0.8,0,1.4,0.5,1.4,1.2S45.4,68.5,44.6,68.5z M44.6,66.4
		c-0.6,0-1,0.4-1,0.9s0.5,0.9,1,0.9s1-0.4,1-0.9S45.2,66.4,44.6,66.4z"/>
</g>
<g>
	<path class="st0" d="M47.2,69.3c-0.8,0-1.4-0.5-1.4-1.2c0-0.7,0.6-1.2,1.4-1.2s1.4,0.5,1.4,1.2C48.6,68.8,47.9,69.3,47.2,69.3z
		 M47.2,67.3c-0.6,0-1,0.4-1,0.9s0.5,0.9,1,0.9s1-0.4,1-0.9S47.7,67.3,47.2,67.3z"/>
</g>
<g>
	<path class="st0" d="M49.6,70.1c-0.8,0-1.4-0.5-1.4-1.2s0.6-1.2,1.4-1.2s1.4,0.5,1.4,1.2S50.3,70.1,49.6,70.1z M49.6,68
		c-0.6,0-1,0.4-1,0.9s0.5,0.9,1,0.9s1-0.4,1-0.9S50.1,68,49.6,68z"/>
</g>
<g>
	<path class="st0" d="M40.7,66.4c-0.8,0-1.4-0.5-1.4-1.2c0-0.7,0.6-1.2,1.4-1.2c0.8,0,1.4,0.5,1.4,1.2
		C42.1,65.9,41.5,66.4,40.7,66.4z M40.7,64.3c-0.6,0-1,0.4-1,0.9s0.5,0.9,1,0.9s1-0.4,1-0.9S41.3,64.3,40.7,64.3z"/>
</g>
<g>
	<path class="st0" d="M42.5,67.4c-0.8,0-1.4-0.5-1.4-1.2c0-0.7,0.6-1.2,1.4-1.2c0.8,0,1.4,0.5,1.4,1.2
		C43.9,66.9,43.3,67.4,42.5,67.4z M42.5,65.4c-0.6,0-1,0.4-1,0.9c0,0.5,0.5,0.9,1,0.9s1-0.4,1-0.9C43.6,65.7,43.1,65.4,42.5,65.4z"
		/>
</g>
<g>
	<g>
		<g>
			<path class="st0" d="M48.5,44c5.4-2.6,11.7-2.8,17.2-0.4c0.4,0.1,0.6-0.4,0.3-0.5c-5.7-2.4-12.2-2.3-17.8,0.4
				C47.8,43.7,48.1,44.2,48.5,44L48.5,44z"/>
		</g>
	</g>
</g>
<g>
	<g>
		<g>
			<path class="st0" d="M71.1,43.4c5.5-2.4,11.7-2.6,17.3-0.6c0.4,0.1,0.5-0.5,0.2-0.6c-5.8-2-12.2-1.7-17.8,0.7
				C70.4,43,70.7,43.5,71.1,43.4L71.1,43.4z"/>
		</g>
	</g>
</g>
</svg>
