<?xml version="1.0" encoding="utf-8"?>
<!-- Generator: Adobe Illustrator 24.0.1, SVG Export Plug-In . SVG Version: 6.00 Build 0)  -->
<svg version="1.1" id="Layer_1" xmlns="http://www.w3.org/2000/svg" xmlns:xlink="http://www.w3.org/1999/xlink" x="0px" y="0px"
	 viewBox="0 0 141.7 141.7" style="enable-background:new 0 0 141.7 141.7;" xml:space="preserve">
<style type="text/css">
	.st0{fill:#070707;}
</style>
<g id="Layer_1_1_">
</g>
<g id="Layer_1_2_">
</g>
<g id="Layer_1_3_">
</g>
<g id="Layer_1_4_">
</g>
<g id="Layer_1_5_">
</g>
<g id="Layer_3">
</g>
<g id="Layer_3_1_">
</g>
<g id="Layer_2_1_">
	<g>
		<g>
			<g>
				<path class="st0" d="M46,37.5c-4.2,4.6-6.7,10.4-7.7,16.5c-0.5,3.3-0.6,6.6-0.6,9.9c0,3.8,0.2,7.7,0.5,11.5
					c0.3,4.3,0.8,8.6,1.4,12.9c0,0.3,0.5,0.3,0.5,0c-1-7.3-1.7-14.6-1.8-21.9c-0.1-6.6,0-13.1,2.3-19.3c1.3-3.4,3.2-6.6,5.7-9.2
					C46.6,37.6,46.2,37.3,46,37.5L46,37.5z"/>
			</g>
		</g>
	</g>
	<g>
		<g>
			<g>
				<path class="st0" d="M96.3,41.1c-1.1-1.9-2.4-3.6-4.1-5.1c-0.2-0.2-0.6,0.1-0.3,0.3c1.6,1.4,3,3.1,4,5
					C96.1,41.6,96.5,41.4,96.3,41.1L96.3,41.1z"/>
			</g>
		</g>
	</g>
	<g>
		<g>
			<g>
				<path class="st0" d="M39.5,49.1c-2.3-0.2-4.4-1.4-5.5-3.4c-1-2-0.7-4.4,0.6-6.3c1.2-1.7,3.2-2.9,5.3-3.3c1.9-0.3,4.6-0.2,6,1.4
					c0.2,0.2,0.5-0.1,0.3-0.3c-1.4-1.8-4.3-1.9-6.4-1.5c-2.3,0.4-4.4,1.7-5.7,3.7c-1.3,1.9-1.5,4.4-0.5,6.5c1.1,2.2,3.4,3.5,5.9,3.7
					C39.8,49.6,39.7,49.1,39.5,49.1L39.5,49.1z"/>
			</g>
		</g>
	</g>
	<g>
		<g>
			<g>
				<path class="st0" d="M92,36c3.4-1.8,9-2.6,11.4,1.3c2.2,3.7,0.9,9.6-3.9,10.4c-0.3,0-0.2,0.5,0.1,0.4c5-0.8,6.5-6.9,4.3-10.9
					c-2.4-4.3-8.3-3.6-12.1-1.6C91.5,35.8,91.7,36.1,92,36L92,36z"/>
			</g>
		</g>
	</g>
	<g>
		<g>
			<g>
				<path class="st0" d="M73.5,61.5c0.3,1.1,0.4,2.4,0,3.5c-0.3,0.8-1.2,1.6-2.1,1.5c-1-0.1-1.3-0.9-1.7-1.8c-0.1-0.1-0.3,0-0.2,0.1
					c0.3,0.7,0.6,1.6,1.5,1.8c0.8,0.2,1.6-0.1,2.2-0.6c1.2-1.1,0.9-3.2,0.6-4.6C73.7,61.3,73.5,61.4,73.5,61.5L73.5,61.5z"/>
			</g>
		</g>
	</g>
	<g>
		<g>
			<g>
				<path class="st0" d="M101.2,67.3c0.6-0.3,1.4,0,2.1-0.1c1-0.1,1.9-0.5,2.8-1c1.4-0.8,2.4-2.3,2.3-4c-0.1-1.3-1-2-2.3-2
					c-1.9,0.1-3.4,1.4-4.7,2.7c-0.1,0.1,0.1,0.3,0.2,0.2c1.2-1.2,2.6-2.4,4.4-2.6c1.9-0.2,2.6,1.4,2.1,3.1c-0.5,1.7-2.2,2.8-3.8,3.2
					c-0.7,0.2-1.3,0.2-1.9,0.2c-0.3,0-0.7-0.1-1,0.1C101,67.1,101.1,67.3,101.2,67.3L101.2,67.3z"/>
			</g>
		</g>
	</g>
	<g>
		<g>
			<g>
				<path class="st0" d="M105.1,63.3c1.3-0.4,2.7-1.5,1.9-2.9c-0.1-0.1-0.3,0-0.2,0.1c0.7,1.3-0.7,2.2-1.8,2.6
					C104.9,63.1,105,63.3,105.1,63.3L105.1,63.3z"/>
			</g>
		</g>
	</g>
	<g>
		<path class="st0" d="M81.3,54.3c-5.4,0-9.8-4.4-9.8-9.8s4.4-9.8,9.8-9.8c5.4,0,9.8,4.4,9.8,9.8S86.8,54.3,81.3,54.3z M81.3,35
			c-5.3,0-9.5,4.3-9.5,9.5s4.3,9.5,9.5,9.5c5.3,0,9.5-4.3,9.5-9.5S86.6,35,81.3,35z"/>
	</g>
	<g>
		<path class="st0" d="M57,55.4c-5.4,0-9.8-4.4-9.8-9.8c0-5.4,4.4-9.8,9.8-9.8c5.4,0,9.8,4.4,9.8,9.8C66.8,51,62.4,55.4,57,55.4z
			 M57,36c-5.3,0-9.5,4.3-9.5,9.5c0,5.3,4.3,9.5,9.5,9.5c5.3,0,9.5-4.3,9.5-9.5C66.5,40.3,62.2,36,57,36z"/>
	</g>
	<g>
		<path class="st0" d="M99.9,40.7c0-1.1-0.9-2-2-2c-1.1,0-2,0.9-2,2c0,1.1,0.9,2,2,2C98.9,42.7,99.9,41.8,99.9,40.7z"/>
	</g>
	<g>
		<circle class="st0" cx="40.4" cy="42.5" r="2"/>
	</g>
	<g>
		<path class="st0" d="M73.6,53.4c0-1.3-1.9-2.4-4.3-2.4s-4.3,1.1-4.3,2.4c0,1.3,1.9,2.4,4.3,2.4C71.6,55.8,73.6,54.8,73.6,53.4z"/>
	</g>
	<g>
		<path class="st0" d="M78.2,44.8c0.1,1.7,1.7,3,3.4,2.9c1.7-0.1,3-1.7,2.9-3.4c-0.1-1.7-1.7-3-3.4-2.9
			C79.3,41.5,78.1,43.1,78.2,44.8z M83.2,43.1c0,0.5-0.3,0.9-0.8,1c-0.5,0-0.9-0.3-1-0.8c0-0.5,0.3-0.9,0.8-1
			C82.8,42.2,83.2,42.6,83.2,43.1z"/>
	</g>
	<g>
		<path class="st0" d="M54.3,47.2c0.9,1.5,2.9,1.9,4.3,1c1.5-0.9,1.9-2.9,1-4.3c-0.9-1.5-2.9-1.9-4.3-1
			C53.9,43.8,53.4,45.7,54.3,47.2z M58.1,43.4c0.3,0.4,0.1,1-0.3,1.2c-0.4,0.3-1,0.1-1.2-0.3c-0.3-0.4-0.1-1,0.3-1.2
			C57.2,42.9,57.8,43,58.1,43.4z"/>
	</g>
	<g>
		<g>
			<g>
				<path class="st0" d="M69.5,59.8c0.3,1.9,0.8,4.5-0.6,6.1c-0.4,0.4-0.9,0.8-1.5,0.8c-0.7-0.1-1.3-0.9-1.6-1.5
					c-0.6-1.1-0.6-2.5-0.2-3.7c0-0.1-0.2-0.2-0.2-0.1c-0.4,1.3-0.4,2.8,0.3,4c0.6,1,1.6,2,2.8,1.3c2.2-1.5,1.7-4.7,1.3-6.9
					C69.7,59.6,69.5,59.7,69.5,59.8L69.5,59.8z"/>
			</g>
		</g>
	</g>
	<g>
		<g>
			<g>
				<path class="st0" d="M38.2,69.8c-1.9,0.4-3.9-0.6-5.3-1.8c-1.1-0.9-2.5-2.8-0.7-3.8c0.1-0.1,0-0.3-0.1-0.2
					c-1.6,0.9-0.9,2.6,0.2,3.7c1.5,1.5,3.9,2.7,6,2.3C38.5,70,38.4,69.8,38.2,69.8L38.2,69.8z"/>
			</g>
		</g>
	</g>
	<g>
		<g>
			<g>
				<path class="st0" d="M33.9,65.5c-0.6-0.3-1.5-1-1.3-1.8c0.3-1.1,1.8-0.9,2.6-0.5c1.3,0.6,2.4,1.7,3.2,2.9c0.1,0.1,0.3,0,0.2-0.1
					c-0.9-1.4-2.9-3.5-4.7-3.3c-0.7,0.1-1.4,0.5-1.5,1.3c0,0.8,0.8,1.5,1.5,1.8C33.9,65.8,34,65.6,33.9,65.5L33.9,65.5z"/>
			</g>
		</g>
	</g>
	<g>
		<g>
			<g>
				<path class="st0" d="M95.4,40.2c1.9,2.8,3.5,5.9,4.1,9.3c0.3,1.8,0.7,3.7,0.8,5.6c0.1,1.9,0,3.7,0.1,5.6
					c0.1,7.7,0.2,15.4,0.2,23.1c0,4.4-0.1,8.8-0.2,13.1c0,0.3,0.4,0.3,0.5,0c0.3-7.9,0.3-15.8,0.1-23.7c-0.1-3.9-0.1-7.9-0.1-11.8
					c0-2,0.1-4,0-6c-0.1-1.8-0.5-3.6-0.8-5.3c-0.5-3.7-2.2-7-4.3-10.1C95.7,39.7,95.3,40,95.4,40.2L95.4,40.2z"/>
			</g>
		</g>
	</g>
	<g>
		<g>
			<g>
				<path class="st0" d="M45.1,36.4c1.5-3.8,4.3-6.9,7.8-8.9c-0.1-0.1-0.2-0.1-0.3-0.2c0,0.5,0,1.1,0,1.6c0,0.2,0.2,0.3,0.3,0.2
					c1-0.4,1.8-1.1,2.4-1.9c-0.1,0-0.2,0.1-0.3,0.1c0.4,0.3,0.7,0.6,1.1,0.8c0.1,0.1,0.2,0,0.3,0c4.9-4,11.8-2.7,17.5-1.5
					c0.2,0.1,0.4-0.3,0.2-0.4c-0.8-0.4-1.6-0.2-2.1,0.4c-0.2,0.2,0,0.5,0.3,0.4C76,25,80.3,27,83.9,28.7c3.6,1.7,7.1,3.4,10.1,6
					c0.2,0.2,0.6-0.1,0.3-0.3c-3.2-2.8-7.2-4.7-11.1-6.4c-3.5-1.6-7.6-3.2-11.3-1.5c0.1,0.1,0.2,0.2,0.3,0.4c0.4-0.5,1-0.6,1.6-0.3
					c0.1-0.1,0.1-0.3,0.2-0.4c-3.3-0.7-6.7-1.3-10.1-1.2c-1.6,0.1-3.1,0.3-4.6,0.9c-0.7,0.3-1.4,0.6-2,1c-0.3,0.2-0.6,0.4-0.8,0.6
					c-0.2,0.1-0.2,0.2-0.4,0.1c-0.2,0-0.6-0.5-0.8-0.6c-0.1-0.1-0.2,0-0.3,0.1c-0.6,0.8-1.3,1.4-2.2,1.8c0.1,0.1,0.2,0.1,0.3,0.2
					c0-0.5,0-1.1,0-1.6c0-0.2-0.2-0.3-0.3-0.2c-3.6,2.1-6.4,5.3-8,9.2C44.6,36.6,45,36.7,45.1,36.4L45.1,36.4z"/>
			</g>
		</g>
	</g>
	<g>
		<g>
			<g>
				<path class="st0" d="M55.1,28.2c0.7-4.8,4-8.9,8.3-11.1c2.5-1.3,5.3-1.9,8.1-2c1.4-0.1,2.8,0,4.1,0.1c1.2,0.1,3.2,0.2,3.8,1.4
					c0.1,0.3,0.5,0,0.4-0.2c-0.5-1-1.6-1.2-2.6-1.4c-1.5-0.3-3-0.4-4.5-0.4c-3,0-6,0.5-8.8,1.7c-4.8,2.1-8.7,6.5-9.4,11.8
					C54.6,28.4,55,28.5,55.1,28.2L55.1,28.2z"/>
			</g>
		</g>
	</g>
	<g>
		<g>
			<g>
				<path class="st0" d="M77.8,26c0.5-4.1-3-7.4-7-6.8c-0.3,0-0.2,0.5,0.1,0.4c3.8-0.5,6.9,2.6,6.4,6.4C77.3,26.3,77.7,26.3,77.8,26
					L77.8,26z"/>
			</g>
		</g>
	</g>
	<g>
		<g>
			<g>
				<path class="st0" d="M77.2,22.8c1.2-0.8,2.3-1.7,3.4-2.6c0.2-0.2,0-0.6-0.2-0.4c-1.2,0.8-2.3,1.7-3.4,2.6
					C76.8,22.6,77,23,77.2,22.8L77.2,22.8z"/>
			</g>
		</g>
	</g>
	<g>
		<g>
			<g>
				<path class="st0" d="M79.9,16.5c-0.5-1.5,0.5-2.8,1.4-3.9c-0.1,0-0.2,0-0.4-0.1c0,0.2,0,0.4,0.1,0.6c-0.1,0.2,0.2,0.5,0.4,0.3
					c2.6-2.3,6.7-2.6,9.6-0.6c0-0.1,0-0.3,0.1-0.4c-0.4,0.1-0.8,0.2-1.1,0.3c-0.2,0-0.2,0.3-0.1,0.4c2.5,2.1,3.1,5.9,1.4,8.7
					c0.1,0,0.3,0,0.4,0c-0.3-0.5-0.3-0.9-0.2-1.4c0.1-0.2-0.3-0.4-0.4-0.2c-0.8,1.5-1.9,3-3.6,3.6c-1.6,0.6-3.5,0.4-4.7-0.9
					c0,0.1,0,0.2-0.1,0.4c0.3-0.2,0.6-0.4,0.9-0.6c0.1-0.1,0.2-0.3,0.1-0.4c-1.4-1.2-2.7-2.4-4.1-3.7c0,0.1,0,0.2,0,0.3
					c1.2-0.9,0.8-2.6,0.3-3.7c-0.1-0.3-0.6-0.1-0.4,0.1c0.4,1,0.8,2.5-0.2,3.3C79,18.8,79,19,79.1,19c1.4,1.2,2.7,2.4,4.1,3.7
					c0-0.1,0-0.2,0.1-0.4c-0.3,0.2-0.6,0.4-0.9,0.6c-0.1,0.1-0.1,0.2-0.1,0.4c1.2,1.3,3.1,1.6,4.8,1.1c1.9-0.6,3.3-2.2,4.2-4
					c-0.1-0.1-0.3-0.1-0.4-0.2c-0.2,0.6-0.1,1.2,0.2,1.8c0.1,0.1,0.3,0.1,0.4,0c1.8-3,1.1-7-1.5-9.3c0,0.1-0.1,0.3-0.1,0.4
					c0.4-0.1,0.8-0.2,1.1-0.3c0.2-0.1,0.2-0.3,0.1-0.4c-3.1-2.1-7.4-1.8-10.1,0.7c0.1,0.1,0.2,0.2,0.4,0.3c0.2-0.4,0.2-0.7-0.1-1.1
					c-0.1-0.1-0.3-0.2-0.4-0.1c-1,1.2-2,2.7-1.5,4.4C79.5,16.9,79.9,16.8,79.9,16.5L79.9,16.5z"/>
			</g>
		</g>
	</g>
	<g>
		<g>
			<g>
				<path class="st0" d="M67.1,54.9c-2.5-2.1-5.4,0.5-7.3,2.1c-2.8,2.5-7,2.9-10,0.4c-0.2-0.2-0.5,0.1-0.3,0.3
					c0.8,0.8,1.6,1.7,2.4,2.5c0-0.1,0.1-0.3,0.1-0.4c-2.6,0.4-5.2,0-7.7-1c-0.2-0.1-0.4,0.2-0.3,0.3c1.4,2.3,3.5,4.2,6,5.2
					c1.3,0.5,2.7,0.8,4,0.4c1.4-0.3,2.6-1.2,3.8-2c-0.1,0-0.2-0.1-0.3-0.1c0.1,0.6,0.4,1.1,0.9,1.5c0.1,0.1,0.3,0.1,0.4-0.1
					c2.2-3,6.6-1.9,9.4-4c1.8-1.3,2.5-4.4,0.2-5.6c-0.3-0.1-0.5,0.3-0.2,0.4c1.4,0.7,1.6,2.5,0.8,3.7c-0.8,1.3-2.3,1.9-3.7,2.2
					c-2.4,0.6-5.2,0.8-6.8,2.9c0.1,0,0.2,0,0.4-0.1c-0.4-0.3-0.7-0.8-0.8-1.3c0-0.1-0.2-0.2-0.3-0.1c-1.1,0.7-2.2,1.5-3.4,1.9
					c-1.5,0.4-2.9,0.2-4.3-0.5c-2.3-1-4.2-2.8-5.5-4.9c-0.1,0.1-0.2,0.2-0.3,0.3c2.5,1,5.2,1.4,7.9,1c0.2,0,0.2-0.3,0.1-0.4
					c-0.8-0.8-1.6-1.7-2.4-2.5c-0.1,0.1-0.2,0.2-0.3,0.3c2.2,1.8,5.4,2.3,8.1,1.2c1.5-0.6,2.6-1.8,3.8-2.8c1.4-1.2,3.7-2.4,5.4-1
					C67,55.4,67.3,55.1,67.1,54.9L67.1,54.9z"/>
			</g>
		</g>
	</g>
	<g>
		<g>
			<g>
				<path class="st0" d="M70.5,55.2c-2.1,1.7-0.7,5,1.3,6c3.3,1.7,7.3,0,10.7,1.6c0.2,0.1,0.4-0.1,0.3-0.3c-0.2-0.4-0.5-0.9-0.7-1.3
					c-0.1,0.1-0.2,0.2-0.3,0.3c4.5,1.2,9.9-0.9,11.9-5.2c0.1-0.2-0.1-0.4-0.3-0.3c-1.2,0.5-2.6,0.6-3.9,0.6c-1.4,0-2.8,0-3.4-1.5
					c0-0.1-0.2-0.2-0.3-0.1c-2.1,1.5-5.1,1.1-7.5,0.4c-2.5-0.7-5.1-1.9-7.7-0.9c-0.3,0.1-0.1,0.6,0.1,0.4c3-1.1,6,0.7,8.9,1.2
					c2.1,0.4,4.6,0.5,6.4-0.8c-0.1,0-0.2-0.1-0.3-0.1c0.5,1.4,1.6,1.8,3,1.9c1.7,0,3.4,0,4.9-0.7c-0.1-0.1-0.2-0.2-0.3-0.3
					c-1.9,4.1-7.1,6.2-11.4,5c-0.2-0.1-0.3,0.2-0.3,0.3c0.2,0.4,0.5,0.9,0.7,1.3c0.1-0.1,0.2-0.2,0.3-0.3c-2.7-1.2-5.7-0.5-8.5-0.9
					c-1.5-0.2-3-0.8-3.8-2.1c-0.7-1.2-0.8-2.8,0.4-3.8C71,55.4,70.7,55,70.5,55.2L70.5,55.2z"/>
			</g>
		</g>
	</g>
	<g>
		<g>
			<g>
				<path class="st0" d="M50.4,64.7c-2.2,1.9-4.1,4.1-5.5,6.6c-0.1,0.2,0.1,0.4,0.3,0.3c0.9-0.2,1.8-0.4,2.7-0.6
					c-0.1-0.1-0.2-0.2-0.3-0.3c-2.6,10.7-1.2,22.1,3.9,31.9c0.1,0.2,0.5,0.1,0.4-0.2c-0.8-2.3-0.2-4.9,1.6-6.6
					c-0.1,0-0.3-0.1-0.4-0.1c3.5,11.5,11,21.5,20.9,28.1c0.2,0.1,0.4-0.2,0.3-0.4c-0.3-0.4-0.6-0.7-1-1.1c-0.2-0.2-0.5,0.1-0.4,0.3
					c2.2,4.7,6.6,8.2,11.6,9.4c5.1,1.3,10.4,0,14.6-3.2c2.3-1.8,4.1-4.1,5.3-6.8c0.1-0.3-0.3-0.5-0.4-0.2c-1.4,2.8-4.6,4.4-7.6,3.7
					c0,0.1,0.1,0.2,0.1,0.3c1.9-3.2,2.1-7,0.5-10.4c0-0.1-0.1-0.1-0.2-0.1c-2.9,0.2-5.6-1.9-6.2-4.8c-0.1,0.1-0.2,0.2-0.3,0.3
					c1.9,0.9,3.9,1.4,6,1.3c0.2,0,0.3-0.2,0.2-0.3c-1.2-2.2-2.4-4.5-3.6-6.7c-0.1,0.1-0.2,0.2-0.3,0.3c1,0.4,1.9,0.7,3,0.8
					c0.1,0,0.2-0.1,0.2-0.2c0.1-0.9,0-1.8-0.3-2.7c-0.1,0.1-0.2,0.2-0.3,0.3c0.7,0.3,1.4,0.5,2.2,0.5c0.1,0,0.2-0.1,0.2-0.2
					c1.6-8.1,0.5-16.5-3.2-23.9c-0.1,0.1-0.2,0.2-0.3,0.3c0.9,0.6,1.8,1.2,2.7,1.9c0.2,0.1,0.4-0.1,0.3-0.3
					c-1.5-7.8-5.4-15.1-11-20.8c-0.2-0.2-0.5,0.1-0.3,0.3c5.6,5.6,9.4,12.8,10.9,20.6c0.1-0.1,0.2-0.2,0.3-0.3
					c-0.9-0.6-1.8-1.2-2.7-1.9c-0.2-0.1-0.4,0.1-0.3,0.3c1.9,3.8,3.2,8,3.7,12.3c0.2,2,0.3,4.1,0.2,6.1c-0.1,1.1-0.2,2.2-0.3,3.3
					c-0.1,0.3-0.1,1.3-0.3,1.6c-0.3,0.4-1.4-0.1-1.8-0.3c-0.2-0.1-0.4,0.1-0.3,0.3c0.3,0.8,0.4,1.7,0.3,2.6c0.1-0.1,0.1-0.1,0.2-0.2
					c-1-0.1-1.9-0.3-2.8-0.7c-0.2-0.1-0.4,0.1-0.3,0.3c1.2,2.2,2.4,4.5,3.6,6.7c0.1-0.1,0.1-0.2,0.2-0.3c-2,0-4-0.4-5.8-1.3
					c-0.2-0.1-0.4,0.1-0.3,0.3c0.5,2.7,2.8,4.8,5.5,5.1c0.3,0,0.7,0,1,0.1c0.3,0.2,0.5,1,0.6,1.4c0.3,0.9,0.4,1.9,0.4,2.8
					c0,1.9-0.5,3.8-1.5,5.5c-0.1,0.1,0,0.3,0.1,0.3c3.2,0.7,6.7-1,8.1-4c-0.1-0.1-0.3-0.1-0.4-0.2c-2,4.6-6.1,8.2-11,9.6
					c-4.9,1.4-10.1,0.3-14.2-2.6c-2.3-1.7-4.2-3.9-5.5-6.5c-0.1,0.1-0.2,0.2-0.4,0.3c0.3,0.4,0.6,0.7,1,1.1c0.1-0.1,0.2-0.2,0.3-0.4
					c-9.9-6.5-17.3-16.5-20.7-27.8c-0.1-0.2-0.3-0.2-0.4-0.1c-1.9,1.8-2.6,4.6-1.7,7.1c0.1-0.1,0.3-0.1,0.4-0.2
					c-5-9.7-6.3-21-3.8-31.6c0-0.2-0.1-0.3-0.3-0.3c-0.9,0.2-1.8,0.4-2.7,0.6c0.1,0.1,0.2,0.2,0.3,0.3c1.4-2.5,3.3-4.6,5.4-6.5
					C51,64.9,50.6,64.5,50.4,64.7L50.4,64.7z"/>
			</g>
		</g>
	</g>
	<g>
		<g>
			<g>
				<path class="st0" d="M65.7,69.9c3,2.6,7.4,1.9,9.5-1.4c0.2-0.3-0.2-0.5-0.4-0.2c-1.9,3.1-6,3.7-8.8,1.3
					C65.7,69.4,65.4,69.7,65.7,69.9L65.7,69.9z"/>
			</g>
		</g>
	</g>
	<g>
		<g>
			<g>
				<path class="st0" d="M49.9,71c-1.4,6.4-1.2,13.1,0.7,19.4c0,0.1,0.3,0.1,0.2-0.1C49,84.1,48.7,77.4,50.1,71
					C50.2,70.9,49.9,70.8,49.9,71L49.9,71z"/>
			</g>
		</g>
	</g>
	<g>
		<g>
			<g>
				<path class="st0" d="M50.6,76.8c0.1,2,0.2,4,0.3,6c0,0.1,0.2,0.1,0.2,0c-0.1-2-0.2-4-0.3-6C50.8,76.6,50.5,76.6,50.6,76.8
					L50.6,76.8z"/>
			</g>
		</g>
	</g>
	<g>
		<g>
			<g>
				<path class="st0" d="M92.2,82.5c2,5.2,2.9,10.7,2.5,16.2c0,0.1,0.2,0.1,0.2,0c0.4-5.5-0.5-11.1-2.5-16.3
					C92.4,82.3,92.2,82.4,92.2,82.5L92.2,82.5z"/>
			</g>
		</g>
	</g>
	<g>
		<g>
			<g>
				<path class="st0" d="M91.6,90.6c0.2,1.5,0.3,3,0.5,4.4c0,0.1,0.2,0.1,0.2,0c-0.2-1.5-0.3-3-0.5-4.4
					C91.8,90.5,91.6,90.5,91.6,90.6L91.6,90.6z"/>
			</g>
		</g>
	</g>
	<g>
		<g>
			<g>
				<path class="st0" d="M75.9,121.6c2.3,5.8,8.9,7.4,14.6,7.1c0.1,0,0.1-0.2,0-0.2c-5.5,0.3-12.1-1.2-14.4-6.9
					C76,121.4,75.8,121.4,75.9,121.6L75.9,121.6z"/>
			</g>
		</g>
	</g>
	<g>
		<g>
			<g>
				<path class="st0" d="M82,122.9c0.8,1.3,2.2,2,3.8,1.9c0.1,0,0.1-0.2,0-0.2c-1.4,0.2-2.8-0.5-3.6-1.7
					C82.1,122.7,81.9,122.8,82,122.9L82,122.9z"/>
			</g>
		</g>
	</g>
	<g>
		<g>
			<g>
				<path class="st0" d="M46.2,37.8c2.7-0.8,5.4-1.7,8.2-2.5c2.2-0.7,5-1.3,6.8,0.5c0.2,0.2,0.4,0,0.4-0.2c-0.1-0.5-0.2-1-0.3-1.5
					c-0.1,0.1-0.1,0.2-0.2,0.3c1.7,0.2,3.1,1.2,3.8,2.8c0.1,0.1,0.3,0.1,0.4,0c0.5-1.1,1.2-2,2.3-2.6c-0.1-0.1-0.2-0.1-0.3-0.2
					c0.1,0.6,0.3,0.9,0.7,1.2c0.1,0,0.2,0,0.2,0c0.6-0.3,1.5,0.3,2.2,0.3c0.7-0.1,1.3-0.5,1.9-0.9c0.9-0.6,3.5-2.5,4.1-0.6
					c0.1,0.2,0.4,0.2,0.4,0c0.9-2.4,5.3-1,7.1-0.6c2.8,0.7,5.5,1.7,8,3c0.3,0.1,0.5-0.3,0.2-0.4c-3.1-1.6-6.3-2.8-9.7-3.4
					c-1.9-0.4-5.1-1.1-6,1.3c0.1,0,0.3,0,0.4,0c-0.4-1.4-2.1-1.3-3.2-0.8c-1,0.5-1.7,1.4-2.8,1.8c-0.7,0.2-1.2,0-1.8-0.2
					c-0.5-0.1-1.2,0.2-1.3-0.7c0-0.2-0.2-0.3-0.3-0.2c-1.1,0.7-2,1.6-2.5,2.8c0.1,0,0.3,0,0.4,0c-0.8-1.7-2.3-2.8-4.2-3
					c-0.2,0-0.3,0.2-0.2,0.3c0.1,0.5,0.2,1,0.3,1.5c0.1-0.1,0.3-0.1,0.4-0.2c-1.7-1.6-4.1-1.4-6.2-0.9c-3.1,0.8-6.1,1.9-9.2,2.8
					C45.8,37.4,45.9,37.9,46.2,37.8L46.2,37.8z"/>
			</g>
		</g>
	</g>
	<g>
		<g>
			<path class="st0" d="M41.8,99.2c0,0.1-0.1,0.1-0.1,0.1c5,3.9,10.8,6.9,17.2,8.4c-0.1-0.1-0.1-0.2-0.2-0.3
				C52.5,105.8,46.8,103,41.8,99.2C41.9,99.1,41.9,99.1,41.8,99.2z"/>
			<path class="st0" d="M59.1,107.9l-0.2,0c-6.3-1.6-12.1-4.4-17.2-8.5l-0.1-0.1l0.1-0.1c0,0,0,0,0-0.1c0,0,0,0,0-0.1l0,0v-0.2
				l0.2,0.1c5,3.9,10.7,6.8,16.9,8.3l0,0l0,0c0,0.1,0.1,0.1,0.1,0.1c0,0.1,0.1,0.1,0.1,0.2L59.1,107.9z M41.9,99.3
				c5.1,4,10.8,6.8,16.9,8.3c0,0,0-0.1-0.1-0.1C52.6,105.9,46.9,103.1,41.9,99.3C41.9,99.2,41.9,99.2,41.9,99.3
				C41.9,99.3,41.9,99.3,41.9,99.3z"/>
		</g>
		<g>
			<path class="st0" d="M24.1,63.2c0,9.1,2.6,17.5,7.2,24.7c0.1,0,0.2-0.1,0.3-0.1c-4.6-7.1-7.2-15.5-7.2-24.6
				c0-22.1,15.8-40.7,36.8-44.8c0,0,0.1,0,0.1-0.1c0.2-0.1,0.4-0.2,0.6-0.3C40.4,21.9,24.1,40.7,24.1,63.2z"/>
			<path class="st0" d="M31.3,87.9L31.3,87.9c-4.8-7.5-7.2-16-7.2-24.8c0-10.8,3.9-21.4,10.8-29.6c6.9-8.2,16.5-13.7,27-15.6
				l0.4-0.1L61.9,18c-0.2,0.1-0.4,0.2-0.6,0.3c0,0,0,0,0,0c0,0,0,0,0,0l0,0l0,0c-21.3,4.2-36.7,23-36.7,44.7
				c0,8.7,2.5,17.2,7.2,24.5l0.1,0.1l-0.1,0C31.5,87.9,31.4,87.9,31.3,87.9L31.3,87.9z M61.4,18.2c-10.2,2-19.6,7.5-26.4,15.5
				c-7,8.3-10.8,18.7-10.8,29.5c0,8.7,2.5,17.2,7.1,24.6c0,0,0.1,0,0.1,0c-4.7-7.3-7.1-15.8-7.1-24.5c0-21.8,15.5-40.7,36.8-44.9
				c0,0,0,0,0,0c0,0,0,0,0,0l0,0C61.3,18.2,61.3,18.2,61.4,18.2z"/>
		</g>
		<g>
			<path class="st0" d="M90.2,21.9C90.1,21.9,90,22,90,22c0,0,0,0-0.1,0.1c15.3,7.4,25.8,23,25.8,41.1c0,14.5-6.8,27.4-17.3,35.8
				c0,0.1,0,0.2,0,0.4c10.7-8.4,17.6-21.5,17.6-36.1C116,45.1,105.5,29.3,90.2,21.9z"/>
			<path class="st0" d="M98.2,99.5l0-0.3c0-0.1,0-0.2,0-0.3v0l0,0c11-8.7,17.3-21.7,17.3-35.7c0-8.7-2.5-17.2-7.2-24.5
				c-4.6-7.1-11-12.8-18.6-16.5l-0.1,0l0-0.1c0,0,0.1-0.1,0.1-0.1l0,0c0,0,0.1,0,0.1-0.1c0,0,0.1,0,0.1-0.1l0,0l0,0
				c7.6,3.7,14.1,9.5,18.7,16.7c4.7,7.4,7.2,15.9,7.2,24.7c0,14.2-6.4,27.4-17.7,36.2L98.2,99.5z M98.5,99c0,0,0,0.1,0,0.1
				c11.1-8.8,17.4-21.9,17.4-35.9c0-8.7-2.5-17.3-7.2-24.6c-4.6-7.1-11-12.9-18.6-16.6c0,0,0,0-0.1,0c0,0,0,0,0,0
				c7.6,3.7,14,9.4,18.6,16.5c4.7,7.4,7.2,15.9,7.2,24.6C115.8,77.2,109.5,90.3,98.5,99z"/>
		</g>
	</g>
	<g>
		<g>
			<path class="st0" d="M94.2,105.9c-0.3,0.2-0.6,0.3-0.9,0.5c0.1,0.1,0.2,0.3,0.2,0.5c0.3-0.2,0.6-0.3,1-0.5
				C94.4,106.2,94.3,106,94.2,105.9z"/>
		</g>
		<g>
			<path class="st0" d="M92.5,18.3c0.1,0.2,0.1,0.4,0,0.6c15.9,8.2,26.8,24.8,26.8,43.9c0,17.1-8.7,32.2-22,41
				c0.1,0.2,0.1,0.4,0.1,0.6c13.5-8.9,22.4-24.2,22.4-41.6C119.9,43.4,108.7,26.6,92.5,18.3z"/>
		</g>
		<g>
			<path class="st0" d="M39.3,102C39.2,102.1,39.2,102.1,39.3,102c6.4,5.2,14.3,8.8,22.8,10.1c-0.2-0.2-0.4-0.4-0.5-0.6
				c-8.2-1.4-15.7-4.8-22-9.8L39.3,102z"/>
		</g>
		<g>
			<path class="st0" d="M70,12.9c-27.5,0-49.9,22.4-49.9,49.9c0,10.1,3,19.5,8.2,27.3c0.1-0.2,0.2-0.3,0.3-0.5c-5-7.7-8-17-8-26.9
				c0-27.2,22.1-49.4,49.4-49.4c3.5,0,6.9,0.4,10.2,1.1c0.1-0.2,0.1-0.3,0.2-0.5C77,13.3,73.5,12.9,70,12.9z"/>
		</g>
	</g>
	<g>
		<path class="st0" d="M34.8,103.6c-4.7,0-8.5-3.8-8.5-8.5c0-4.7,3.8-8.5,8.5-8.5s8.5,3.8,8.5,8.5C43.2,99.8,39.4,103.6,34.8,103.6z
			 M34.8,87c-4.5,0-8.1,3.6-8.1,8.1c0,4.5,3.6,8.1,8.1,8.1s8.1-3.6,8.1-8.1C42.8,90.6,39.2,87,34.8,87z"/>
	</g>
	<g>
		<path class="st0" d="M106.2,82.5c-2.1,0-3.9-1.7-3.9-3.9s1.7-3.9,3.9-3.9s3.9,1.7,3.9,3.9S108.3,82.5,106.2,82.5z M106.2,75.1
			c-1.9,0-3.5,1.6-3.5,3.5s1.6,3.5,3.5,3.5s3.5-1.6,3.5-3.5S108.1,75.1,106.2,75.1z"/>
	</g>
	<g>
		<g>
			<g>
				<path class="st0" d="M32.9,86.9c-0.8-0.3-0.7-1.3,0.1-1.7c0.3-0.1,0.8-0.2,1.1-0.2c1.1-0.2,3.1,0.1,2.6,1.7
					c-0.1,0.3,0.4,0.4,0.4,0.1c0.2-0.8-0.1-1.5-0.8-1.9c-0.9-0.6-2.1-0.4-3-0.2c-0.7,0.1-1.4,0.4-1.4,1.2c-0.1,0.7,0.3,1.2,0.9,1.4
					C33,87.4,33.2,87,32.9,86.9L32.9,86.9z"/>
			</g>
		</g>
	</g>
	<g>
		<g>
			<g>
				<path class="st0" d="M34.8,84.3c-1-1-1.2-2.3-0.7-3.7c0.4-1.2,0.7-2.1,0.6-3.3c-0.1-1.2-0.5-2.5-0.7-3.7
					c-0.2-1.4-0.1-2.9,0.1-4.3c0-0.3-0.4-0.4-0.4-0.1c-0.2,1.4-0.3,2.7-0.1,4.1c0.2,1.5,0.7,3,0.8,4.6c0.1,1.5-0.9,2.6-0.9,4.1
					c0,1,0.4,2,1.1,2.8C34.7,84.8,35,84.5,34.8,84.3L34.8,84.3z"/>
			</g>
		</g>
	</g>
	<g>
		<g>
			<g>
				<path class="st0" d="M106,74.4c-0.5-0.8-0.8-1.7-0.5-2.6c0.1-0.6,0.5-1.2,0.6-1.9c0.2-1-1-2.7-0.3-3.5c0.2-0.2-0.1-0.6-0.3-0.3
					c-1,1.2,0.4,2.7,0.1,4c-0.2,0.8-0.6,1.5-0.6,2.3c0,0.8,0.2,1.5,0.7,2.2C105.8,74.9,106.2,74.7,106,74.4L106,74.4z"/>
			</g>
		</g>
	</g>
	<g>
		<path class="st0" d="M34.8,99.1c-2.4,0-4.3-1.9-4.3-4.3s1.9-4.3,4.3-4.3s4.3,1.9,4.3,4.3S37.1,99.1,34.8,99.1z M34.8,90.9
			c-2.2,0-3.9,1.8-3.9,3.9s1.8,3.9,3.9,3.9s3.9-1.8,3.9-3.9S36.9,90.9,34.8,90.9z"/>
	</g>
	<g>
		<path class="st0" d="M106.2,80.9c-1.2,0-2.3-1-2.3-2.3c0-1.2,1-2.3,2.3-2.3c1.2,0,2.3,1,2.3,2.3C108.4,79.8,107.4,80.9,106.2,80.9
			z M106.2,76.7c-1,0-1.9,0.8-1.9,1.9c0,1,0.8,1.9,1.9,1.9c1,0,1.9-0.8,1.9-1.9C108.1,77.6,107.2,76.7,106.2,76.7z"/>
	</g>
	<g>
		<path class="st0" d="M106.9,71l-0.2-0.8l-0.8-0.2l0.7-0.5l0-0.8l0.7,0.5l0.8-0.3l-0.2,0.8l0.5,0.6h-0.8L106.9,71z M106.3,69.9
			l0.5,0.1l0.2,0.5l0.3-0.4h0.5l-0.3-0.4l0.2-0.5l-0.5,0.2l-0.4-0.3l0,0.5L106.3,69.9z"/>
	</g>
	<g>
		<path class="st0" d="M33,75.9l-0.2-0.8L32,74.9l0.6-0.5l0-0.8l0.7,0.5l0.8-0.3l-0.2,0.8l0.5,0.6h-0.8L33,75.9z M32.4,74.8l0.5,0.1
			l0.2,0.5l0.3-0.4h0.5l-0.3-0.4l0.2-0.5l-0.5,0.2L32.8,74l0,0.5L32.4,74.8z"/>
	</g>
	<g>
		<path class="st0" d="M35.3,79.7L35,79l-0.8-0.2l0.6-0.5l0-0.8l0.6,0.5l0.8-0.3L36,78.5l0.5,0.6h-0.8L35.3,79.7z M34.7,78.7
			l0.5,0.1l0.2,0.5l0.3-0.4h0.5l-0.3-0.4L36,78l-0.5,0.2l-0.4-0.3l0,0.5L34.7,78.7z"/>
	</g>
	<g>
		<path class="st0" d="M106,79.7l-0.2-0.8l-0.8-0.2l0.6-0.5l0-0.8l0.7,0.5l0.8-0.3l-0.2,0.8l0.5,0.6h-0.8L106,79.7z M105.4,78.7
			l0.5,0.1l0.2,0.5l0.3-0.4h0.5l-0.3-0.4l0.2-0.5l-0.5,0.2l-0.4-0.3l0,0.5L105.4,78.7z"/>
	</g>
	<g>
		<path class="st0" d="M34.5,97.2L34,95.6l-1.6-0.5l1.3-1l0-1.7l1.3,1l1.5-0.5l-0.5,1.6l1,1.3h-1.7L34.5,97.2z M32.8,95l1.3,0.4
			l0.4,1.3l0.8-1.1h1.4l-0.9-1.1l0.4-1.3L35,93.7l-1.1-0.8l0,1.4L32.8,95z"/>
	</g>
</g>
<g id="Layer_3_2_">
</g>
</svg>
