<?xml version="1.0" encoding="utf-8"?>
<!-- Generator: Adobe Illustrator 24.0.1, SVG Export Plug-In . SVG Version: 6.00 Build 0)  -->
<svg version="1.1" id="Layer_1" xmlns="http://www.w3.org/2000/svg" xmlns:xlink="http://www.w3.org/1999/xlink" x="0px" y="0px"
	 viewBox="0 0 141.7 141.7" style="enable-background:new 0 0 141.7 141.7;" xml:space="preserve">
<style type="text/css">
	.st0{fill:#070707;}
</style>
<g id="Layer_1_1_">
</g>
<g id="Layer_1_2_">
</g>
<g id="Layer_1_3_">
</g>
<g id="Layer_1_4_">
</g>
<g id="Layer_1_5_">
</g>
<g id="Layer_3">
</g>
<g id="Layer_3_1_">
</g>
<g>
	<g>
		<g>
			<path class="st0" d="M105.6,86.5c0.4,0.3,0.8,0.6,1.2,0.9c0.2,0.1,0.4-0.2,0.2-0.3c-0.4-0.2-0.8-0.5-1.2-0.8
				C105.7,86.1,105.4,86.3,105.6,86.5L105.6,86.5z"/>
		</g>
	</g>
</g>
<g>
	<g>
		<g>
			<path class="st0" d="M100.3,71.6c1,3.4,1.9,7,1.8,10.6c0,0.2,0.4,0.2,0.4,0c0.1-3.6-0.8-7.2-1.8-10.7
				C100.6,71.3,100.2,71.4,100.3,71.6L100.3,71.6z"/>
		</g>
	</g>
</g>
<g>
	<g>
		<g>
			<path class="st0" d="M118.4,50.9c-1.4-1.5-3.4-2.4-5.4-2.6c-2.5-0.3-4.9,0.5-7.2,1.4c-1.9,0.7-3.9,1.3-5.4,2.7
				c-1.6,1.5-2.5,3.6-2.8,5.7c-0.4,2.9,0.4,5.9,1.2,8.7c0.1,0.2,0.4,0.1,0.3-0.1c-1.3-4.3-2.4-9.7,0.8-13.5c1.3-1.5,3.2-2.3,5-2.9
				c2.1-0.8,4.3-1.6,6.5-1.7c2.4-0.1,4.9,0.7,6.6,2.5C118.3,51.4,118.5,51.1,118.4,50.9L118.4,50.9z"/>
		</g>
	</g>
</g>
<g>
	<g>
		<g>
			<path class="st0" d="M109.5,88.3c3.3,1.1,7.1-0.5,10.1-1.8c1.5-0.6,3-1.3,4.2-2.5c1.2-1.1,2.1-2.6,2.6-4.1
				c0.1-0.2-0.3-0.3-0.3-0.1c-0.5,1.6-1.4,3-2.6,4.1c-1.2,1.1-2.6,1.7-4.1,2.3c-2.9,1.2-6.6,2.7-9.8,1.7
				C109.4,87.8,109.3,88.2,109.5,88.3L109.5,88.3z"/>
		</g>
	</g>
</g>
<g>
	<g>
		<g>
			<path class="st0" d="M103.4,50.9c0.2,0,0.2-0.4,0-0.4C103.2,50.5,103.2,50.9,103.4,50.9L103.4,50.9z"/>
		</g>
	</g>
</g>
<g>
	<g>
		<g>
			<path class="st0" d="M97.6,59.1c-1.8,0.3-3.3-1.4-2.6-3.1c0.5-1.3,2.6-2.6,3.9-1.6c0.2,0.1,0.4-0.2,0.2-0.3
				c-0.8-0.5-1.9-0.3-2.7,0c-0.9,0.4-1.6,1.1-1.8,2c-0.6,2,1.1,3.6,3.1,3.3C97.9,59.4,97.8,59.1,97.6,59.1L97.6,59.1z"/>
		</g>
	</g>
</g>
<g>
	<g>
		<g>
			<path class="st0" d="M116.3,49.5c1.2-1,3.2-1.8,4.4-0.5c1.1,1.2,1,3.3-0.6,4c-0.2,0.1,0,0.4,0.2,0.3c1.8-0.8,1.9-3.1,0.8-4.5
				c-1.3-1.6-3.6-0.8-5,0.3C115.9,49.4,116.1,49.7,116.3,49.5L116.3,49.5z"/>
		</g>
	</g>
</g>
<g>
	<g>
		<g>
			<path class="st0" d="M107.9,58.9c0-0.2,0-0.2-0.1-0.1c-0.1,0-0.1,0.1-0.2,0.1c-0.1,0-0.1,0.1-0.2,0.2c-0.2,0.2-0.4,0.5-0.5,0.7
				c-0.2,0.3-0.4,0.8-0.2,1.2c0.2,0.5,1,0.6,1.5,0.5c0.8-0.1,1.4-0.8,2.2-1c0.9-0.2,2.7,0.4,2.6-1.1c-0.1-1.1-1.6-1.4-2.5-1.5
				c-0.1,0-0.1,0.2,0,0.2c0.8,0.1,2.5,0.4,2.3,1.6c-0.2,1.1-1.7,0.5-2.5,0.8c-0.9,0.3-2.3,1.6-3.2,0.6c-0.6-0.7,0.5-1.8,1.1-2.2
				c0.1,0,0.1-0.1,0-0.2c-0.1,0-0.1,0-0.2,0C107.7,58.8,107.8,59,107.9,58.9L107.9,58.9z"/>
		</g>
	</g>
</g>
<g>
	<g>
		<g>
			<path class="st0" d="M111.3,60.6c0.3,0.5,0.5,1,0.5,1.6c0,0.3-0.2,0.8-0.6,0.8c-0.4,0-0.6-0.2-0.8-0.5c-0.1-0.1-0.2,0-0.1,0.1
				c0.2,0.2,0.4,0.5,0.7,0.6c0.3,0,0.7-0.1,0.9-0.4c0.4-0.6,0-1.7-0.4-2.2C111.4,60.4,111.3,60.5,111.3,60.6L111.3,60.6z"/>
		</g>
	</g>
</g>
<g>
	<g>
		<g>
			<path class="st0" d="M107,87.3c0.9-0.8,1.8,0.4,2.7,0.8c0-0.1,0-0.1,0-0.2c-1.1,0.5-1.5,2-2.6,2.4c-0.4,0.1-1-0.1-1.2-0.5
				c-0.2-0.4,0-0.9,0.2-1.3c0.3-0.5,0.8-1,1.3-1.4c0.1-0.1,0-0.2-0.1-0.1c-0.8,0.7-2.6,2.5-1.1,3.3c1.6,0.9,2.4-1.7,3.6-2.2
				c0.1,0,0.1-0.1,0-0.2c-1-0.4-1.8-1.6-2.9-0.7C106.8,87.3,106.9,87.4,107,87.3L107,87.3z"/>
		</g>
	</g>
</g>
<g>
	<g>
		<g>
			<path class="st0" d="M106.4,90.2c-0.3-0.6,0-1.2,0.5-1.6c0.1-0.1,0-0.2-0.1-0.1c-0.5,0.5-0.9,1.1-0.5,1.8
				C106.3,90.3,106.4,90.3,106.4,90.2L106.4,90.2z"/>
		</g>
	</g>
</g>
<g>
	<g>
		<g>
			<path class="st0" d="M128.4,79.1c-0.4,0.2-0.7,0.3-1.1,0.4c-0.3,0.1-0.7,0.2-1,0.2c-1.1,0-0.8-1.7-0.3-2.2
				c0.5-0.4,1.2-0.6,1.8-0.5c0.4,0,0.7,0.1,1,0.4C129.3,77.8,129,78.7,128.4,79.1c-0.1,0.1,0,0.2,0.1,0.2c0.7-0.5,1.2-1.4,0.3-2
				c-0.7-0.5-1.9-0.5-2.7-0.1c-0.8,0.5-1.1,1.7-0.6,2.6c0.2,0.4,0.4,0.3,0.7,0.2c0.8-0.2,1.6-0.3,2.3-0.6
				C128.6,79.2,128.5,79,128.4,79.1z"/>
		</g>
	</g>
</g>
<g>
	<g>
		<g>
			<path class="st0" d="M127.3,78c0.6-0.1,1.2-0.1,1.8,0.2c0.1,0.1,0.2-0.1,0.1-0.2c-0.6-0.3-1.3-0.3-1.9-0.2
				C127.2,77.9,127.2,78.1,127.3,78L127.3,78z"/>
		</g>
	</g>
</g>
<g>
	<g>
		<g>
			<path class="st0" d="M123.6,65.3c0.2,0,0.5-0.1,0.7-0.1c0.6-0.1,1.4,0,1.9,0.5c0.4,0.4,0.7,1.4-0.1,1.6c-0.7,0.2-1.4-0.2-2-0.6
				c-0.1-0.1-0.2,0.1-0.1,0.2c0.6,0.4,1.4,0.8,2.2,0.6c0.4-0.1,0.7-0.5,0.6-0.9c-0.1-0.6-0.5-1.1-1.1-1.3c-0.3-0.1-0.7-0.2-1.1-0.2
				c-0.3,0-0.7,0.2-1,0.2C123.6,65.1,123.5,65.3,123.6,65.3L123.6,65.3z"/>
		</g>
	</g>
</g>
<g>
	<g>
		<g>
			<path class="st0" d="M125.5,66.5c0.4,0,1,0.2,0.9,0.8c0,0.1,0.1,0.2,0.2,0c0.2-0.6-0.5-1-1-1C125.4,66.3,125.4,66.5,125.5,66.5
				L125.5,66.5z"/>
		</g>
	</g>
</g>
<g>
	<path class="st0" d="M113,57.5c-2.1,0-3.9-1.7-3.9-3.9c0-2.1,1.7-3.9,3.9-3.9c2.1,0,3.9,1.7,3.9,3.9
		C116.8,55.8,115.1,57.5,113,57.5z M113,50c-2,0-3.6,1.6-3.6,3.6s1.6,3.6,3.6,3.6c2,0,3.6-1.6,3.6-3.6S115,50,113,50z"/>
</g>
<g>
	<path class="st0" d="M103.9,60.1c-0.7,0-1.4-0.2-2-0.6c-0.9-0.5-1.5-1.4-1.7-2.4c-0.2-1-0.1-2,0.5-2.9c0.5-0.9,1.4-1.5,2.4-1.7
		c2.1-0.5,4.2,0.8,4.6,2.9l0,0c0.5,2.1-0.8,4.2-2.9,4.6C104.5,60.1,104.2,60.1,103.9,60.1z M103.9,52.6c-0.3,0-0.6,0-0.8,0.1
		c-0.9,0.2-1.7,0.8-2.3,1.6c-0.5,0.8-0.7,1.8-0.4,2.8c0.2,0.9,0.8,1.8,1.6,2.3c0.8,0.5,1.8,0.7,2.8,0.4c1.9-0.5,3.2-2.4,2.7-4.4
		C107,53.7,105.5,52.6,103.9,52.6z"/>
</g>
<g>
	<path class="st0" d="M119.6,50.5c-0.1-0.4-0.5-0.7-1-0.6c-0.4,0.1-0.7,0.5-0.6,1c0.1,0.4,0.5,0.7,1,0.6
		C119.5,51.4,119.7,51,119.6,50.5z"/>
</g>
<g>
	<circle class="st0" cx="97.4" cy="56.6" r="0.8"/>
</g>
<g>
	<path class="st0" d="M110.9,57.7c-0.1-0.5-0.9-0.7-1.8-0.5c-0.9,0.2-1.5,0.8-1.4,1.3c0.1,0.5,0.9,0.7,1.8,0.5
		C110.4,58.8,111,58.2,110.9,57.7z"/>
</g>
<g>
	<path class="st0" d="M110.8,53.1c-0.7,0.2-1.1,0.8-0.9,1.5c0.2,0.7,0.8,1.1,1.5,0.9s1.1-0.8,0.9-1.5
		C112.2,53.4,111.5,53,110.8,53.1z M111.8,55c-0.2,0-0.4-0.1-0.4-0.3c0-0.2,0.1-0.4,0.3-0.4s0.4,0.1,0.4,0.3
		C112.1,54.8,112,54.9,111.8,55z"/>
</g>
<g>
	<path class="st0" d="M101.7,55.7c-0.7,0.2-1.1,0.8-0.9,1.5c0.2,0.7,0.8,1.1,1.5,0.9c0.7-0.2,1.1-0.8,0.9-1.5
		C103,55.9,102.3,55.5,101.7,55.7z M102.6,57.5c-0.2,0-0.4-0.1-0.4-0.3s0.1-0.4,0.3-0.4s0.4,0.1,0.4,0.3
		C102.9,57.3,102.8,57.5,102.6,57.5z"/>
</g>
<g>
	<g>
		<g>
			<path class="st0" d="M109.9,60.6c0.2,0.4,0.3,0.9,0.4,1.4c0.1,0.6,0,1.7-0.9,1.3c-0.6-0.3-0.7-1.4-0.7-2c0-0.1-0.2-0.1-0.2,0
				c0,0.8,0.2,2.4,1.3,2.2c1.3-0.2,0.6-2.3,0.3-3C110,60.4,109.9,60.5,109.9,60.6L109.9,60.6z"/>
		</g>
	</g>
</g>
<g>
	<g>
		<g>
			<path class="st0" d="M100.4,71.1c-0.9,0.1-1.7,0.7-2.2,1.5c-0.3,0.5-0.3,1.1,0.3,1.3c0.1,0,0.2-0.1,0-0.2c-0.7-0.2-0.3-1,0-1.4
				c0.5-0.5,1.1-1,1.8-1C100.5,71.3,100.5,71.1,100.4,71.1L100.4,71.1z"/>
		</g>
	</g>
</g>
<g>
	<g>
		<g>
			<path class="st0" d="M99,73.1c-0.2,0.2-0.5,0.5-0.4,0.8c0,0.3,0.4,0.4,0.7,0.4c0.7-0.1,1.3-1,1.6-1.6c0-0.1-0.1-0.2-0.2,0
				c-0.2,0.5-0.6,1.1-1.1,1.4c-0.2,0.1-0.7,0.3-0.8-0.1c-0.1-0.2,0.2-0.5,0.4-0.7C99.2,73.1,99.1,73,99,73.1L99,73.1z"/>
		</g>
	</g>
</g>
<g>
	<g>
		<g>
			<path class="st0" d="M123.2,64.2c0.8,2.9,1.7,5.7,2.4,8.6c0.1,0.2,0.4,0.1,0.3-0.1c-0.7-2.9-1.7-5.7-2.4-8.6
				C123.4,63.8,123.1,63.9,123.2,64.2L123.2,64.2z"/>
		</g>
	</g>
</g>
<g>
	<g>
		<g>
			<path class="st0" d="M117.8,50.8c2.5,2.3,3.4,5.6,4.1,8.8c0.1,0.2,0.4,0.1,0.3-0.1c-0.8-3.2-1.7-6.7-4.2-9
				C117.9,50.4,117.7,50.7,117.8,50.8L117.8,50.8z"/>
		</g>
	</g>
</g>
<g>
	<g>
		<g>
			<path class="st0" d="M123.4,84.3C123.4,84.3,123.4,84.3,123.4,84.3c0.2,0,0.1-0.2,0-0.2h0c0,0-0.1,0-0.1,0.1c0,0,0,0,0,0
				C123.4,84.2,123.4,84.3,123.4,84.3c0.1-0.1,0.1-0.1,0.1-0.1C123.4,84.2,123.4,84.3,123.4,84.3C123.4,84.3,123.4,84.3,123.4,84.3
				c0.1,0.1,0.2-0.1,0.1-0.2c0,0-0.1,0-0.1-0.1c-0.1,0-0.1,0-0.1,0.1C123.3,84.2,123.3,84.2,123.4,84.3
				C123.3,84.3,123.4,84.4,123.4,84.3c0.1,0,0.1-0.1,0.1-0.1C123.5,84.2,123.5,84.3,123.4,84.3L123.4,84.3c0.1-0.1,0-0.2,0-0.2
				c0,0,0,0-0.1,0C123.2,84.2,123.3,84.4,123.4,84.3L123.4,84.3z"/>
		</g>
	</g>
</g>
<g>
	<g>
		<g>
			<path class="st0" d="M98.3,53.9c-0.5-2.4,1.3-4.2,3.1-5.4c1.6-1.1,3.4-1.9,5.3-2.4c1.9-0.5,3.9-0.6,5.9-0.3
				c1.9,0.3,4.2,0.9,5.3,2.7c0.1,0.2,0.4,0,0.3-0.2c-1-1.8-3.3-2.5-5.3-2.8c-2.1-0.3-4.4-0.2-6.5,0.3s-4.1,1.5-5.8,2.8
				c-1.7,1.3-3.1,3-2.6,5.4C98,54.2,98.3,54.1,98.3,53.9L98.3,53.9z"/>
		</g>
	</g>
</g>
<g>
	<g>
		<g>
			<path class="st0" d="M99.5,49.9c0.8-2.3,1.7-4.6,2.5-6.8c0.7-2,1.6-4,3.4-5.1c3.6-2.3,8.4-0.4,9.6,3.6c0.1,0.2,0.4,0.1,0.3-0.1
				c-1.2-4-5.7-6.1-9.5-4.2c-1.9,0.9-3,2.7-3.8,4.6c-1.1,2.6-2,5.3-2.9,8C99.1,50.1,99.4,50.1,99.5,49.9L99.5,49.9z"/>
		</g>
	</g>
</g>
<g>
	<g>
		<g>
			<path class="st0" d="M115.4,42.1c1-0.6,2.1,0.5,2,1.5c-0.1,1.1-1.1,1.7-2.1,1.5c-0.8-0.2-1.8-0.7-1.8-1.6c-0.1-1.1,1.1-1.7,2-1.6
				c0.2,0,0.2-0.3,0-0.4c-1.2-0.1-2.5,0.7-2.4,2c0.1,1.3,1.8,2,2.9,1.9c1.1-0.1,2-1.2,1.8-2.3c-0.2-1.1-1.5-2-2.5-1.4
				C115,41.9,115.2,42.2,115.4,42.1L115.4,42.1z"/>
		</g>
	</g>
</g>
<g>
	<g>
		<g>
			<path class="st0" d="M113.6,45.7c-0.2-1.7-1.9-2.9-3.5-3.5c-1.8-0.6-3.7-0.6-5.5,0.1c-0.2,0.1-0.1,0.4,0.1,0.3
				c1.6-0.6,3.3-0.7,4.9-0.2c1.6,0.5,3.4,1.6,3.6,3.3C113.3,46,113.7,45.9,113.6,45.7L113.6,45.7z"/>
		</g>
	</g>
</g>
<g>
	<g>
		<g>
			<path class="st0" d="M111.4,42.5c-0.8-0.7-0.2-1.8,0.7-2c0.9-0.2,1.7,0.5,2.2,1.3c0.1,0.2,0.4,0,0.3-0.2c-0.6-1-1.8-1.8-3-1.3
				c-1,0.4-1.3,1.7-0.5,2.5C111.3,42.9,111.5,42.7,111.4,42.5L111.4,42.5z"/>
		</g>
	</g>
</g>
<g>
	<g>
		<g>
			<path class="st0" d="M119.1,62.9c1.5-1.1,3.4-2.3,4.1-4.1c0.3-0.8,0.3-1.6-0.2-2.3c-0.5-0.6-1.1-0.9-1.8-0.6
				c-0.2,0.1-0.1,0.4,0.1,0.3c1-0.4,1.8,0.7,1.8,1.6c0,0.8-0.5,1.6-1,2.2c-0.9,1-2,1.8-3,2.6C118.7,62.8,118.9,63.1,119.1,62.9
				L119.1,62.9z"/>
		</g>
	</g>
</g>
<g>
	<g>
		<g>
			<path class="st0" d="M117.4,64c0.2-0.1,0.5-0.3,0.7-0.4c0.2-0.1,0-0.4-0.2-0.3c-0.2,0.1-0.5,0.3-0.7,0.4
				C117,63.8,117.2,64.2,117.4,64L117.4,64z"/>
		</g>
	</g>
</g>
<g>
	<g>
		<g>
			<path class="st0" d="M97.6,61.9c-2,1-1.1,3.4,0.3,4.4c2.2,1.5,5.2,1.6,7.7,1.4c0.2,0,0.2-0.4,0-0.4c-2.2,0.2-4.5,0.1-6.5-0.8
				c-0.8-0.4-1.6-0.9-2-1.7c-0.5-1-0.3-2.2,0.7-2.7C98,62.1,97.9,61.8,97.6,61.9L97.6,61.9z"/>
		</g>
	</g>
</g>
<g>
	<g>
		<g>
			<path class="st0" d="M118.9,67c1.2-0.7,2.4-1.5,3.6-2.3c1-0.7,2-1.5,2.6-2.6c0.5-0.8,0.5-1.8,0.2-2.7c-0.5-1.2-1.7-2.1-2.5-3.2
				c-0.1-0.2-0.4,0-0.3,0.2c0.6,0.9,1.5,1.6,2.1,2.5c0.7,1.1,0.7,2.3-0.1,3.3c-0.7,1-1.8,1.8-2.8,2.5c-1,0.7-2,1.3-3.1,1.9
				C118.5,66.8,118.7,67.1,118.9,67L118.9,67z"/>
		</g>
	</g>
</g>
<g>
	<g>
		<g>
			<path class="st0" d="M97.3,62.1c-1.7,2.1-3.8,6.6-0.7,8.6c1.1,0.7,2.5,0.9,3.8,0.9c2.2,0.1,4.4-0.1,6.5-0.4
				c0.2,0,0.1-0.4-0.1-0.3c-1.9,0.3-3.9,0.4-5.9,0.4c-1.2,0-2.5-0.1-3.6-0.6c-3.5-1.5-1.5-6.2,0.2-8.3
				C97.7,62.2,97.4,61.9,97.3,62.1L97.3,62.1z"/>
		</g>
	</g>
</g>
<g>
	<g>
		<g>
			<path class="st0" d="M111,72.7c-0.4,0.2-0.7,0.3-1.1,0.5c-0.2,0.1,0,0.4,0.2,0.3c0.4-0.2,0.7-0.4,1.1-0.5
				C111.4,72.9,111.2,72.6,111,72.7L111,72.7z"/>
		</g>
	</g>
</g>
<g>
	<g>
		<g>
			<path class="st0" d="M109.7,73.4c0.1,1,0.2,1.9,0.5,2.9c0.2,0.8,0.5,1.7,1,2.3c0.9,1,2.5,0.5,3.6,0.2c1.9-0.6,3.6-1.2,5.3-2.2
				c0.6-0.4,1.2-0.8,1.4-1.5c0.2-0.8-0.2-1.6-0.6-2.3c-0.8-1.5-1.9-2.6-3.7-2.3c-0.2,0-0.1,0.4,0.1,0.3c1.9-0.4,3.4,1.5,3.8,3.2
				c0.3,1.3-0.6,1.9-1.6,2.4c-0.9,0.5-1.9,1-2.9,1.4c-0.7,0.3-1.5,0.5-2.2,0.7c-0.7,0.2-1.5,0.4-2.2,0.2c-1-0.3-1.3-1.6-1.5-2.4
				c-0.3-1-0.5-2-0.6-3C110.1,73.1,109.7,73.1,109.7,73.4L109.7,73.4z"/>
		</g>
	</g>
</g>
<g>
	<g>
		<g>
			<path class="st0" d="M111.7,73.8c0,1,0.1,3,1.3,3.4c0.7,0.3,1.6-0.1,2.3-0.3c0.8-0.2,1.7-0.5,2.5-0.9c0.6-0.3,1.4-0.7,1.7-1.4
				c0.3-0.6,0-1.3-0.3-1.8c-0.3-0.5-0.8-1.1-1.4-1.3c-0.8-0.2-1.6,0.3-2.3,0.6c-0.2,0.1,0,0.4,0.2,0.3c0.7-0.3,1.4-0.8,2.1-0.5
				c0.5,0.2,1,0.9,1.3,1.4c0.7,1.5-1.4,2.3-2.5,2.7c-0.5,0.2-1,0.4-1.6,0.5c-0.5,0.1-1.3,0.4-1.8,0.3c-1-0.3-1.1-2.3-1.1-3.1
				C112,73.6,111.7,73.6,111.7,73.8L111.7,73.8z"/>
		</g>
	</g>
</g>
<g>
	<g>
		<g>
			<path class="st0" d="M119,70.9c2.1-0.3,4.1-1.4,5.5-3c0.2-0.2-0.1-0.4-0.3-0.3c-1.4,1.5-3.3,2.5-5.4,2.9
				C118.7,70.6,118.8,70.9,119,70.9L119,70.9z"/>
		</g>
	</g>
</g>
<g>
	<g>
		<g>
			<path class="st0" d="M121.7,74.6c0.1-0.5,0.9-0.8,1.3-1c0.3-0.2,0.6-0.4,0.8-0.7c0.6-0.6,1.1-1.2,1.6-1.9
				c0.1-0.2-0.2-0.4-0.3-0.2c-0.6,0.9-1.3,1.7-2.1,2.3c-0.5,0.4-1.4,0.7-1.6,1.4C121.3,74.8,121.6,74.9,121.7,74.6L121.7,74.6z"/>
		</g>
	</g>
</g>
<g>
	<g>
		<g>
			<path class="st0" d="M111.1,78.1c-2.9,0.1-5.8,0.1-8.7,0.1c-0.2,0-0.2,0.4,0,0.4c2.9,0,5.8-0.1,8.7-0.1
				C111.3,78.5,111.3,78.1,111.1,78.1L111.1,78.1z"/>
		</g>
	</g>
</g>
<g>
	<g>
		<g>
			<path class="st0" d="M101.3,75.6c3.1,0.6,6.3,0,9-1.8c0.2-0.1,0-0.4-0.2-0.3c-2.6,1.7-5.7,2.3-8.7,1.7
				C101.2,75.3,101.1,75.6,101.3,75.6L101.3,75.6z"/>
		</g>
	</g>
</g>
<g>
	<g>
		<g>
			<path class="st0" d="M119.1,81.6c1.7-0.9,3.3-1.9,4.9-3c1.1-0.8,2.3-1.5,3.3-2.4c0.8-0.7,1.5-1.6,1.2-2.7
				c-0.3-1.1-1.5-1.6-2.6-1.8c-0.2,0-0.2,0.3,0,0.4c1.2,0.1,2.8,1,2.2,2.5c-0.4,1-1.5,1.7-2.3,2.3c-2.2,1.6-4.5,3.1-6.9,4.4
				C118.7,81.4,118.9,81.8,119.1,81.6L119.1,81.6z"/>
		</g>
	</g>
</g>
<g>
	<g>
		<g>
			<path class="st0" d="M102.4,82.2c-1.4,0-1.8,1.7-1.4,2.8c0.6,1.5,2.6,1.8,4,1.6c1.9-0.2,3.9-0.9,5.8-1.5c2-0.6,3.9-1.3,5.7-2.2
				c0.2-0.1,0-0.4-0.2-0.3c-2.8,1.3-5.7,2.3-8.6,3c-1.4,0.4-2.9,0.8-4.4,0.5c-0.8-0.1-1.6-0.5-1.9-1.2c-0.4-0.8-0.2-2.4,1-2.4
				C102.6,82.5,102.6,82.2,102.4,82.2L102.4,82.2z"/>
		</g>
	</g>
</g>
<g>
	<g>
		<g>
			<path class="st0" d="M119.6,78.4c1.5-0.7,3.1-1.4,4.4-2.5c0.6-0.5,1.1-1.1,1.5-1.8c0.5-0.8,0.6-1.5,0.5-2.4
				c0-0.2-0.4-0.1-0.3,0.1c0.3,1.8-1.1,3.3-2.5,4.2c-1.1,0.8-2.4,1.4-3.7,2C119.2,78.2,119.3,78.5,119.6,78.4L119.6,78.4z"/>
		</g>
	</g>
</g>
<g>
	<g>
		<g>
			<path class="st0" d="M102.4,82.8c1.7,1,3.7,0.8,5.5,0.4c2.2-0.5,4.4-1.3,6.4-2.2c0.2-0.1,0-0.4-0.2-0.3c-1.9,0.9-3.8,1.6-5.8,2.1
				c-1.9,0.5-4,0.8-5.8-0.3C102.4,82.4,102.2,82.7,102.4,82.8L102.4,82.8z"/>
		</g>
	</g>
</g>
<g>
	<g>
		<g>
			<path class="st0" d="M116.4,78.2c0.2,0.2,0.3,0.5,0.4,0.8c0,0.2,0.4,0.1,0.3-0.1c-0.1-0.4-0.2-0.7-0.4-1
				C116.5,77.7,116.2,78,116.4,78.2L116.4,78.2z"/>
		</g>
	</g>
</g>
<g>
	<g>
		<g>
			<path class="st0" d="M113.8,79.2c0.4,0.3,0.7,0.8,0.6,1.3c0,0.2,0.3,0.3,0.3,0.1c0.1-0.7-0.2-1.3-0.8-1.7
				C113.7,78.8,113.6,79.1,113.8,79.2L113.8,79.2z"/>
		</g>
	</g>
</g>
<g>
	<g>
		<g>
			<path class="st0" d="M118.7,77.1c-0.4,0.5-0.2,1.2,0.4,1.4c0.2,0.1,0.3-0.3,0.1-0.3c-0.3-0.1-0.4-0.6-0.2-0.8
				C119.1,77.2,118.9,76.9,118.7,77.1L118.7,77.1z"/>
		</g>
	</g>
</g>
<g>
	<g>
		<g>
			<path class="st0" d="M116.1,83.2c1.5-0.9,1.9-2.9,0.9-4.3c-0.1-0.2-0.4,0-0.3,0.2c0.9,1.2,0.5,3-0.8,3.8
				C115.7,83,115.9,83.3,116.1,83.2L116.1,83.2z"/>
		</g>
	</g>
</g>
<g>
	<g>
		<g>
			<path class="st0" d="M117.2,80.3c0.3,0.8,1.1,1.4,1.9,1.3c0.2,0,0.2-0.4,0-0.4c-0.7,0-1.4-0.4-1.6-1.1
				C117.5,80,117.1,80.1,117.2,80.3L117.2,80.3z"/>
		</g>
	</g>
</g>
<g>
	<g>
		<g>
			<path class="st0" d="M108.2,76.6c0-0.3,0.4-0.2,0.4,0c0,0.3-0.5,0.3-0.5,0c-0.1-0.2-0.4-0.1-0.3,0.1c0.1,0.3,0.4,0.5,0.7,0.5
				c0.3,0,0.5-0.3,0.6-0.6c0-0.3-0.2-0.6-0.5-0.6c-0.3,0-0.6,0.2-0.6,0.4C107.8,76.8,108.1,76.9,108.2,76.6L108.2,76.6z"/>
		</g>
	</g>
</g>
<g>
	<g>
		<g>
			<path class="st0" d="M105.3,77c-0.1-0.1,0-0.2,0.1-0.2c0.1,0,0.2,0.1,0.2,0.1c0.1,0.3-0.3,0.4-0.5,0.2c-0.2-0.1-0.4,0.1-0.3,0.3
				c0.2,0.2,0.6,0.3,0.9,0.1c0.3-0.2,0.3-0.5,0.2-0.8c-0.1-0.3-0.5-0.4-0.7-0.2c-0.2,0.2-0.3,0.5-0.1,0.7
				C105.2,77.4,105.4,77.2,105.3,77L105.3,77z"/>
		</g>
	</g>
</g>
<g>
	<g>
		<g>
			<path class="st0" d="M122.3,71.4c0.1-0.2,0.5-0.1,0.4,0.1c0,0.1-0.2,0.2-0.2,0.2c0,0-0.1,0-0.1,0
				C122.4,71.6,122.4,71.5,122.3,71.4c0,0,0-0.1,0-0.1c0-0.2-0.4-0.1-0.3,0.1c0,0.2,0,0.4,0.2,0.5c0.1,0.1,0.2,0.1,0.3,0.1
				c0.3,0,0.5-0.2,0.6-0.5c0.1-0.6-0.8-0.8-1.1-0.3C121.9,71.4,122.2,71.6,122.3,71.4L122.3,71.4z"/>
		</g>
	</g>
</g>
<g>
	<g>
		<g>
			<path class="st0" d="M110.1,73.7c0.7,1.7,0.7,3.5,1.5,5.2c0.1,0.2,0.4,0,0.3-0.2c-0.8-1.6-0.7-3.5-1.5-5.2
				C110.3,73.3,110,73.5,110.1,73.7L110.1,73.7z"/>
		</g>
	</g>
</g>
<g>
	<g>
		<g>
			<path class="st0" d="M118.3,70.9c1.5,1,2.5,2.7,2.7,4.5c0,0.2,0.4,0.2,0.4,0c-0.2-2-1.2-3.7-2.8-4.8
				C118.3,70.5,118.1,70.8,118.3,70.9L118.3,70.9z"/>
		</g>
	</g>
</g>
<g>
	<g>
		<g>
			<path class="st0" d="M115.4,73.1c0.8-0.3,1.5-0.6,2.3-0.8c0.2-0.1,0.1-0.4-0.1-0.3c-0.8,0.3-1.5,0.5-2.3,0.8
				C115.1,72.9,115.2,73.2,115.4,73.1L115.4,73.1z"/>
		</g>
	</g>
</g>
<g>
	<g>
		<g>
			<path class="st0" d="M112,74.7c0.2-0.1,0.4-0.2,0.6-0.3c0.2-0.1,0-0.4-0.2-0.3c-0.2,0.1-0.4,0.2-0.6,0.3
				C111.7,74.5,111.8,74.8,112,74.7L112,74.7z"/>
		</g>
	</g>
</g>
<g>
	<g>
		<g>
			<path class="st0" d="M69.7,70c-0.9-0.3-0.5-1.5-0.1-2c0.4-0.4,0.8-0.8,1.1-1.3c-0.1,0-0.2,0-0.3,0c0.2,0.9,1.6,2.2,0.7,3
				c-0.2,0.1,0.1,0.4,0.3,0.3c1.1-1-0.4-2.3-0.6-3.3c0-0.2-0.2-0.2-0.3,0c-0.5,0.8-1.6,1.4-1.7,2.4c-0.1,0.6,0.2,1.2,0.8,1.4
				C69.9,70.4,69.9,70.1,69.7,70L69.7,70z"/>
		</g>
	</g>
</g>
<g>
	<g>
		<g>
			<path class="st0" d="M75.8,72.9c0.2-0.5,0.8-0.3,1.2-0.2c0.4,0.1,0.7,0.2,1.1,0.1c-0.1-0.1-0.1-0.1-0.2-0.2
				c-0.2,1-1.2,1.8-2.3,1.5c-0.2-0.1-0.3,0.3-0.1,0.3c1.2,0.3,2.5-0.5,2.7-1.8c0-0.1-0.1-0.3-0.2-0.2c-0.7,0.2-2-0.7-2.5,0.3
				C75.4,72.9,75.7,73.1,75.8,72.9L75.8,72.9z"/>
		</g>
	</g>
</g>
<g>
	<g>
		<g>
			<path class="st0" d="M71.1,70.2c0.5-0.4,1.1-0.6,1.7-0.4c0.2,0.1,0.5,0.1,0.7,0.1c0.6-0.1,0.9-0.7,1.2-1.2c-0.1,0-0.2,0-0.3,0
				c0.1,0.5,0,1-0.3,1.5c-0.1,0.1,0,0.3,0.2,0.3c0.4,0,0.9-0.1,1.3-0.2c-0.1-0.1-0.1-0.2-0.2-0.3c-0.2,0.3-0.5,0.6-0.7,0.8
				c-0.1,0.1-0.1,0.3,0.1,0.3c0.1,0,0.9,0.1,0.9,0.2c0.1,0.2-0.3,0.5-0.4,0.6c-0.1,0.1-0.1,0.1-0.2,0.2c-0.2,0.4,0.2,0.7,0.1,1.1
				c-0.1,0.2,0.3,0.3,0.3,0.1c0-0.1,0.1-0.2,0-0.4c-0.1-0.4-0.3-0.4,0.1-0.8c0.3-0.3,0.4-0.5,0.4-0.9c0-0.1-0.1-0.2-0.1-0.2
				c-0.4-0.1-0.7-0.2-1.1-0.3c0,0.1,0.1,0.2,0.1,0.3c0.2-0.3,0.5-0.6,0.7-0.8c0.1-0.1,0-0.3-0.2-0.3c-0.4,0.1-0.8,0.2-1.2,0.2
				c0.1,0.1,0.1,0.2,0.2,0.3c0.4-0.5,0.5-1.1,0.4-1.7c0-0.2-0.3-0.2-0.3,0c-0.2,0.3-0.4,0.7-0.8,0.9c-0.5,0.2-0.8-0.1-1.3-0.1
				c-0.6,0-1.1,0.3-1.5,0.6C70.7,70,70.9,70.3,71.1,70.2L71.1,70.2z"/>
		</g>
	</g>
</g>
<g>
	<g>
		<g>
			<path class="st0" d="M72.7,69.7c0.3-2.9,1.6-5.6,3.1-8.1c0.7-1.2,1.6-2.3,2.3-3.5c0.4-0.7-0.1-1.3-0.8-0.9
				c-0.4,0.2-0.8,0.6-1.1,0.9c-0.5,0.5-1,1-1.4,1.6c-0.8,1-1.4,2.1-1.9,3.2c-0.1,0.3-0.2,0.8-0.7,0.8c-0.2,0-0.5-0.4-0.7-0.6
				c-0.4-0.4-0.7-0.9-1.2-1.3c-0.4-0.4-1.4-1.2-1.8-0.4c-0.4,0.9,1,2,1.6,2.4c0.5,0.4,1.8,0.8,1.8,1.5c0,0.4-0.3,0.9-0.4,1.2
				c-0.2,0.4-0.3,0.9-0.5,1.3c-0.1,0.2,0.3,0.3,0.3,0.1c0.2-0.7,0.5-1.3,0.7-2c0.1-0.4,0.4-0.8,0.2-1.2c-0.2-0.3-0.6-0.5-0.9-0.6
				c-0.6-0.3-1.1-0.7-1.6-1.1c-0.2-0.2-0.4-0.4-0.5-0.6c0,0-0.4-0.4-0.3-0.6c0.1-0.1,0.2-0.1,0.2-0.2c0.1-0.2,0.3-0.2,0.4-0.1
				c0.4,0.2,0.8,0.8,1.1,1.1c0.4,0.4,1.2,1.6,2,1.4c0.2-0.1,0.3-0.2,0.4-0.4c0.3-0.6,0.5-1.3,0.9-1.9c0.6-1.1,1.3-2.1,2.2-3
				c0.3-0.3,1-1.2,1.4-1.3c0,0,0.1,0,0.1-0.1c0.1,0.1,0.2,0.3,0.3,0.4c0,0.1-0.2,0.3-0.2,0.4c-0.2,0.3-0.4,0.6-0.6,0.9
				c-0.7,1-1.4,2.1-2,3.1c-1.3,2.3-2.4,4.8-2.7,7.5C72.3,69.9,72.7,69.9,72.7,69.7L72.7,69.7z"/>
		</g>
	</g>
</g>
<g>
	<g>
		<g>
			<path class="st0" d="M75.6,71.2c2.1-1.4,4-3.1,5.6-5.1c0.7-1,1.4-2,2-3.1c0.7-1.2,1.3-2.5,2.4-3.3c-0.1-0.1-0.2-0.1-0.3-0.2
				c-0.3,4.2-3.5,7.2-6.5,9.8c-0.1,0.1-0.1,0.2,0,0.2c0.3,0.4,0.7,0.6,1.2,0.8c0.2,0.1,0.5,0.2,0.6,0.3c0.2,0.1,0.2,0.3,0,0.6
				c0,0.4-0.2,0.6-0.6,0.4c-0.5-0.1-0.9-0.5-1.2-0.8c-0.3-0.3-0.6-0.7-1.1-0.6c-0.3,0.1-0.5,0.4-0.7,0.6c-0.4,0.4-0.7,0.7-1.1,1.1
				c-0.2,0.2,0.1,0.4,0.3,0.3c0.2-0.2,0.5-0.5,0.7-0.7c0.2-0.2,0.5-0.6,0.7-0.7c0.6-0.2,1,0.3,1.4,0.6c0.5,0.4,1.3,0.8,1.9,0.5
				c0.5-0.2,0.6-0.8,0.3-1.3c-0.2-0.3-0.5-0.5-0.8-0.6c-0.2-0.1-1.2-0.3-1.1-0.7c0-0.1,0.5-0.4,0.6-0.5c0.2-0.2,0.4-0.3,0.6-0.5
				c0.4-0.4,0.9-0.8,1.3-1.2c0.7-0.7,1.4-1.5,2-2.3c1.1-1.6,1.9-3.4,2-5.3c0-0.1-0.2-0.2-0.3-0.2c-0.9,0.6-1.5,1.6-2.1,2.5
				c-0.6,1.1-1.3,2.3-2,3.3c-1.6,2.2-3.6,4.1-5.9,5.6C75.2,71,75.4,71.3,75.6,71.2L75.6,71.2z"/>
		</g>
	</g>
</g>
<g>
	<g>
		<path class="st0" d="M70.7,74c-0.9,0-1.6-0.7-1.6-1.6c0-0.9,0.7-1.6,1.6-1.6c0.9,0,1.6,0.7,1.6,1.6C72.3,73.3,71.6,74,70.7,74z
			 M70.7,71c-0.8,0-1.4,0.6-1.4,1.4c0,0.8,0.6,1.4,1.4,1.4c0.8,0,1.4-0.6,1.4-1.4C72.1,71.6,71.5,71,70.7,71z"/>
	</g>
	<g>
		<path class="st0" d="M69.8,72.1c-0.3,0.1-0.4,0.3-0.4,0.6s0.3,0.4,0.6,0.4c0.3-0.1,0.4-0.3,0.4-0.6C70.4,72.2,70.1,72.1,69.8,72.1
			z M70.2,72.9c-0.1,0-0.2,0-0.2-0.1c0-0.1,0-0.2,0.1-0.2c0.1,0,0.2,0,0.2,0.1C70.3,72.8,70.3,72.9,70.2,72.9z"/>
	</g>
</g>
<g>
	<g>
		<path class="st0" d="M73.4,75.9c-0.9,0-1.6-0.7-1.6-1.6c0-0.9,0.7-1.6,1.6-1.6c0.9,0,1.6,0.7,1.6,1.6C75,75.2,74.3,75.9,73.4,75.9
			z M73.4,72.9c-0.8,0-1.4,0.6-1.4,1.4c0,0.8,0.6,1.4,1.4,1.4c0.8,0,1.4-0.6,1.4-1.4C74.8,73.5,74.1,72.9,73.4,72.9z"/>
	</g>
	<g>
		<path class="st0" d="M74.3,74.6c0.3-0.1,0.4-0.3,0.4-0.6c-0.1-0.3-0.3-0.4-0.6-0.4c-0.3,0.1-0.4,0.3-0.4,0.6
			C73.7,74.4,74,74.6,74.3,74.6z M73.9,73.8c0.1,0,0.2,0,0.2,0.1c0,0.1,0,0.2-0.1,0.2c-0.1,0-0.2,0-0.2-0.1
			C73.8,73.9,73.8,73.8,73.9,73.8z"/>
	</g>
</g>
<g>
	<g>
		<path class="st0" d="M41,73.6c-0.9,0-1.6-0.7-1.6-1.6c0-0.9,0.7-1.6,1.6-1.6s1.6,0.7,1.6,1.6C42.6,72.9,41.9,73.6,41,73.6z
			 M41,70.6c-0.8,0-1.4,0.6-1.4,1.4c0,0.8,0.6,1.4,1.4,1.4s1.4-0.6,1.4-1.4C42.4,71.2,41.8,70.6,41,70.6z"/>
	</g>
	<g>
		<path class="st0" d="M41.9,71.8c0.2-0.2,0.2-0.5,0-0.7c-0.2-0.2-0.5-0.2-0.7,0s-0.2,0.5,0,0.7C41.4,72,41.7,72,41.9,71.8z
			 M41.3,71.3c0.1-0.1,0.1,0,0.2,0c0.1,0.1,0,0.1,0,0.2s-0.1,0-0.2,0C41.2,71.5,41.2,71.4,41.3,71.3z"/>
	</g>
</g>
<g>
	<g>
		<path class="st0" d="M44,75c-0.9,0-1.6-0.7-1.6-1.6c0-0.9,0.7-1.6,1.6-1.6s1.6,0.7,1.6,1.6C45.6,74.3,44.9,75,44,75z M44,72
			c-0.8,0-1.4,0.6-1.4,1.4c0,0.8,0.6,1.4,1.4,1.4s1.4-0.6,1.4-1.4C45.4,72.7,44.7,72,44,72z"/>
	</g>
	<g>
		<path class="st0" d="M44.9,73.5c0.3-0.1,0.4-0.4,0.3-0.7c-0.1-0.3-0.4-0.4-0.7-0.3c-0.3,0.1-0.4,0.4-0.3,0.7
			C44.4,73.5,44.6,73.6,44.9,73.5z M44.4,72.9c0.1,0,0.2,0,0.2,0.1c0,0.1,0,0.2-0.1,0.2c-0.1,0-0.2,0-0.2-0.1
			C44.3,73,44.3,72.9,44.4,72.9z"/>
	</g>
</g>
<g>
	<path class="st0" d="M11.9,73.8c-0.9,0-1.6-0.7-1.6-1.6c0-0.9,0.7-1.6,1.6-1.6c0.9,0,1.6,0.7,1.6,1.6C13.5,73,12.8,73.8,11.9,73.8z
		 M11.9,70.7c-0.8,0-1.4,0.6-1.4,1.4c0,0.8,0.6,1.4,1.4,1.4c0.8,0,1.4-0.6,1.4-1.4C13.3,71.4,12.7,70.7,11.9,70.7z"/>
</g>
<g>
	<path class="st0" d="M12.5,72.5c0.2-0.2,0.1-0.5-0.1-0.7c-0.2-0.2-0.5-0.1-0.7,0.1c-0.2,0.2-0.1,0.5,0.1,0.7
		C12,72.8,12.3,72.7,12.5,72.5z M11.7,72.2c0-0.1,0.1-0.1,0.2,0c0.1,0,0.1,0.1,0,0.2c0,0.1-0.1,0.1-0.2,0
		C11.7,72.3,11.7,72.3,11.7,72.2z"/>
</g>
<g>
	<path class="st0" d="M15.1,74.5c-0.9,0-1.6-0.7-1.6-1.6c0-0.9,0.7-1.6,1.6-1.6c0.9,0,1.6,0.7,1.6,1.6C16.7,73.8,16,74.5,15.1,74.5z
		 M15.1,71.5c-0.8,0-1.4,0.6-1.4,1.4c0,0.8,0.6,1.4,1.4,1.4c0.8,0,1.4-0.6,1.4-1.4C16.5,72.1,15.9,71.5,15.1,71.5z"/>
</g>
<g>
	<path class="st0" d="M15.6,73.2c0.2-0.2,0.3-0.5,0.1-0.7c-0.2-0.2-0.5-0.3-0.7-0.1c-0.2,0.2-0.3,0.5-0.1,0.7
		C15,73.3,15.4,73.3,15.6,73.2z M14.9,72.6c0.1,0,0.2,0,0.2,0c0,0.1,0,0.2,0,0.2c-0.1,0-0.2,0-0.2,0C14.9,72.8,14.9,72.7,14.9,72.6z
		"/>
</g>
<g>
	<path class="st0" d="M12.1,83.7c-0.6,0-1.2-0.1-1.8-0.3l0,0c-2.9-0.8-4.8-3.5-4-6c0.3-1,1-1.9,2-2.5c1.3-0.7,3-0.9,4.6-0.4
		c1.4,0.4,2.6,1.3,3.4,2.4c0.8,1.1,1,2.4,0.7,3.6c-0.3,1-1,1.9-2,2.5C14,83.4,13.1,83.7,12.1,83.7z M10.3,83.1
		c1.5,0.4,3.1,0.3,4.4-0.4c1-0.5,1.6-1.3,1.9-2.3c0.3-1.1,0.1-2.3-0.6-3.4c-0.7-1.1-1.9-1.9-3.2-2.3c-1.5-0.4-3.1-0.3-4.4,0.4
		c-1,0.5-1.6,1.3-1.9,2.3C5.8,79.8,7.6,82.3,10.3,83.1L10.3,83.1z"/>
</g>
<g>
	<path class="st0" d="M40.7,83.8c-0.6,0-1.2-0.1-1.8-0.3c-2.9-0.8-4.8-3.5-4-6c0.3-1,1-1.9,2-2.5c1.3-0.7,3-0.9,4.6-0.4
		c1.4,0.4,2.6,1.3,3.4,2.4c0.8,1.1,1,2.4,0.7,3.6c-0.3,1-1,1.9-2,2.5C42.6,83.6,41.7,83.8,40.7,83.8z M39.6,74.7
		c-0.9,0-1.8,0.2-2.6,0.6c-1,0.5-1.6,1.3-1.9,2.3c-0.7,2.3,1.1,4.8,3.8,5.6c1.5,0.4,3.1,0.3,4.4-0.4c1-0.5,1.6-1.3,1.9-2.3
		c0.3-1.1,0.1-2.3-0.6-3.4c-0.7-1.1-1.9-1.9-3.2-2.3C40.8,74.7,40.2,74.7,39.6,74.7z"/>
</g>
<g>
	<path class="st0" d="M68.3,83.8c-0.6,0-1.2-0.1-1.8-0.3c-1.6-0.5-2.9-1.5-3.6-2.8c-0.6-1-0.7-2.2-0.4-3.2c0.3-1,1-1.9,2-2.5
		c1.3-0.7,3-0.9,4.6-0.4c1.4,0.4,2.6,1.3,3.4,2.4c0.8,1.1,1,2.4,0.7,3.6c-0.3,1-1,1.9-2,2.5C70.2,83.6,69.3,83.8,68.3,83.8z
		 M67.2,74.7c-0.9,0-1.8,0.2-2.6,0.6c-1,0.5-1.6,1.3-1.9,2.3c-0.3,1-0.1,2,0.4,3c0.7,1.2,2,2.2,3.5,2.7c1.5,0.4,3.1,0.3,4.4-0.4
		c1-0.5,1.6-1.3,1.9-2.3c0.3-1.1,0.1-2.3-0.6-3.4c-0.7-1.1-1.9-1.9-3.2-2.3C68.4,74.7,67.8,74.7,67.2,74.7z"/>
</g>
<g>
	<g>
		<g>
			<path class="st0" d="M35.1,76.9c0.9-2.5,1.6-6.1,4.3-7.3c0.1,0,0.1-0.2,0-0.3c-0.4-0.5-0.7-1.1-0.8-1.7c0-0.1-0.1-0.6,0-0.7
				c0.3-0.4,0.5-0.1,0.6,0.1c0.4,0.5,0.7,1.2,0.8,1.8c0,0.2,0.4,0.2,0.4,0c-0.1-0.7-0.7-2.4-1.5-2.5c-0.5,0-0.7,0.6-0.6,1
				c0,0.9,0.4,1.6,0.9,2.3c0-0.1,0-0.2,0-0.3c-2.8,1.2-3.5,4.9-4.5,7.5C34.7,77,35.1,77.1,35.1,76.9L35.1,76.9z"/>
		</g>
	</g>
</g>
<g>
	<g>
		<g>
			<path class="st0" d="M41.9,68c-0.4-2.3-0.2-4.7,0.4-7c0.3-1.1,0.8-2.2,1.4-3.2c0.3-0.4,0.7-1.4-0.1-1.6c-0.7-0.2-1.1,0.7-1.3,1.2
				c-0.2,0.4-0.4,0.9-0.6,1.3c-0.1,0.2-0.2,0.5-0.4,0.7c-0.4,0.4-0.6,0.2-1,0.1c-0.7-0.3-1.6-0.5-2.3-0.1c-0.4,0.2-0.8,0.8-0.3,1.1
				c0.8,0.6,2.5-0.1,2.3,1.5c-0.1,0.7-0.5,1.5,0,2.2c0.1-0.1,0.2-0.1,0.3-0.2c-0.5-0.4-1.2-0.6-1.9-0.5c-0.5,0.1-1.3,0.4-1.3,1.1
				c0,0.6,0.6,0.9,1.1,1c0.7,0.1,1.4-0.1,1.8,0.6c0.4,0.6,0.2,1.4,0,2.1c-0.1,0.2,0.3,0.3,0.3,0.1c0.2-1,0.4-2.3-0.6-2.9
				c-0.6-0.3-1.5,0-2-0.4c-0.3-0.1-0.3-0.2-0.1-0.5c-0.1-0.3,0-0.4,0.2-0.5c0.2-0.1,0.5-0.2,0.7-0.2c0.5,0,1,0.1,1.4,0.4
				c0.1,0.1,0.4,0,0.3-0.2c-0.5-0.8,0.2-1.7,0.1-2.5c-0.1-0.7-0.7-1-1.4-1.1c-0.2,0-0.6,0-0.8-0.1c-0.2-0.6,0-0.8,0.5-0.8
				c0.1,0,0.1,0,0.2,0c0.4,0,0.8,0.1,1.2,0.3c0.2,0.1,0.4,0.3,0.6,0.4c0.7,0.2,1.1-0.9,1.3-1.4c0.2-0.5,0.4-1,0.6-1.4
				c0.1-0.1,0.1-0.3,0.2-0.4c0.6,0.1,0.7,0.3,0.5,0.7c-0.1,0.2-0.2,0.4-0.4,0.6c-0.5,1-1,2.1-1.2,3.3c-0.6,2.2-0.7,4.5-0.3,6.7
				C41.5,68.3,41.9,68.3,41.9,68L41.9,68z"/>
		</g>
	</g>
</g>
<g>
	<g>
		<g>
			<path class="st0" d="M45.2,69.4c1.7-1.7,3.2-3.7,4.2-6c0.5-1.1,0.9-2.3,1.4-3.4c0.1-0.3,0.7-1.9,1.1-1.5c0.2,0.2-0.1,1-0.1,1.2
				c-0.1,0.3-0.1,0.6-0.2,0.8c-0.2,0.7-0.6,1.2-0.9,1.8c-0.2,0.4-0.3,0.8-0.2,1.3c0.3,0.9,1.4,0.9,2,1.4c0.5,0.5,0.2,1.2-0.5,1.1
				c-0.3,0-0.5-0.1-0.8-0.2c-0.5-0.2-1.2-0.6-1.7-0.7c-0.3,0-0.4,0.1-0.6,0.4c-0.4,0.5-0.6,1.2-0.9,1.8c0,0.1,0,0.2,0.1,0.2
				c0.5,0.2,1.1,0.3,1.4,0.7c0.4,0.4,0.3,0.7-0.4,1c-0.2-0.1-0.3-0.1-0.5-0.3c-0.2-0.1-0.4-0.3-0.6-0.4c-0.3-0.2-0.6-0.4-1-0.3
				c-0.4,0.1-0.5,0.5-0.6,0.9c-0.1,0.2,0.2,0.4,0.3,0.2c0.2-0.4,0.1-0.5,0.6-0.5c0.5-0.1,0.5,0.1,0.9,0.3c0.2,0.1,0.4,0.3,0.6,0.4
				c0.4,0.2,0.9,0.2,1.1-0.2c0.8-1.1-1.1-1.7-1.7-2.1c0,0.1,0,0.2,0.1,0.2c0.2-0.5,0.5-1,0.7-1.4c0.2-0.4,0.4-0.5,0.8-0.4
				c0.3,0.1,0.7,0.3,1,0.4c0.6,0.2,1.4,0.5,1.9,0.2c0.5-0.3,0.5-1,0.1-1.4c-0.7-0.8-2.5-0.8-2-2.2c0.4-1,1-1.9,1.2-3
				c0.1-0.4,0.4-1.7-0.2-1.9c-0.7-0.2-1.2,1.2-1.3,1.7c-0.4,0.9-0.8,1.9-1.2,2.9c-1,2.5-2.5,4.7-4.5,6.6
				C44.8,69.3,45.1,69.6,45.2,69.4L45.2,69.4z"/>
		</g>
	</g>
</g>
<g>
	<g>
		<g>
			<path class="st0" d="M6.5,77.2c0.5-2.7,1.8-5.1,3.8-6.9c0.2-0.2-0.1-0.4-0.3-0.3c-2,1.9-3.4,4.4-3.9,7.1
				C6.1,77.3,6.5,77.4,6.5,77.2L6.5,77.2z"/>
		</g>
	</g>
</g>
<g>
	<g>
		<g>
			<path class="st0" d="M10.1,70c-0.8-0.7-1-1.9-0.3-2.8c-0.1,0-0.2,0-0.3,0c0.3,0.4,0.7,0.7,1,1c0.3,0.2,1,0.8,1.4,0.8
				c0.5,0,1.2-0.6,1.6-1c0.8-0.8,1.1-2.5-0.2-3c-0.2-0.1-0.3,0.2-0.1,0.3c1.2,0.5,1.8,1.7,1.7,3c0,0.2,0.2,0.2,0.3,0.1
				c0.4-0.4,0.7-0.8,1-1.3c-0.1,0-0.2,0-0.3,0c0.2,0.7,0,1.4-0.4,2c-0.1,0.1,0.1,0.3,0.2,0.3c0.2-0.1,0.4-0.1,0.6-0.3
				C16.2,69.1,16.1,69,16,69c0,0.2-0.1,0.4-0.1,0.6c0,0.1,0,0.2,0.1,0.2c0.8,0.4,1.6,0.2,2.2-0.5c-0.1,0-0.2,0-0.2,0.1
				c0.5,0.3,0.5,1,0.1,1.4c-0.3,0.4-0.8,0.5-1.3,0.6c-0.1,0-0.2,0.1-0.2,0.2c0.8,2.7,0.9,5.5,0.3,8.3c-0.1,0.2,0.3,0.3,0.3,0.1
				c0.6-2.8,0.5-5.7-0.3-8.5c-0.1,0.1-0.1,0.2-0.2,0.2c0.7-0.1,1.5-0.4,1.8-1.1c0.3-0.6,0.1-1.3-0.5-1.6c-0.1-0.1-0.2,0-0.2,0.1
				c-0.3,0.4-1.7,1-1.5,0c0-0.1-0.1-0.3-0.3-0.2c-0.1,0.1-0.3,0.2-0.5,0.2c0.1,0.1,0.1,0.2,0.2,0.3c0.4-0.7,0.6-1.5,0.4-2.3
				c0-0.2-0.2-0.2-0.3,0c-0.3,0.4-0.6,0.8-0.9,1.2c0.1,0,0.2,0.1,0.3,0.1c0.2-1.4-0.6-2.7-1.9-3.3c0,0.1-0.1,0.2-0.1,0.3
				c0.6,0.2,0.8,1,0.6,1.5c-0.2,0.6-0.7,1.1-1.3,1.4c-0.6,0.4-0.8,0.2-1.3-0.1c-0.5-0.3-1-0.8-1.4-1.2c-0.1-0.1-0.2-0.1-0.3,0
				c-0.8,1-0.7,2.5,0.3,3.3C10.1,70.4,10.3,70.2,10.1,70L10.1,70z"/>
		</g>
	</g>
</g>
<g>
	<g>
		<g>
			<path class="st0" d="M11.6,55.7c-0.1,1.1-0.4,2.2-0.5,3.3c-0.1,0.5-0.1,0.9-0.2,1.4c0,0.3,0,0.5,0,0.8c0.1,0.3-0.1,0.5-0.4,0.6
				C10.2,62,10,62,9.8,61.9c-0.4-0.1-0.7-0.3-1.1-0.4c-0.3-0.1-0.6-0.1-0.9-0.1c-0.4,0-1.1,0.2-1.1,0.7c-0.2,1.3,3.2,0.7,3.7,1.3
				c0.6,0.6,0.3,2,0.3,2.8c0,0.9,0.1,1.8,0.5,2.6c0.1,0.2,0.4,0,0.3-0.2c-0.5-1-0.5-2.1-0.5-3.2c0-0.8,0.1-1.5-0.4-2.2
				c-0.3-0.5-1.1-0.4-1.7-0.5c-0.4,0-1.1,0-1.4-0.2c-0.2,0-0.3-0.1-0.3-0.3c-0.2-0.3-0.1-0.4,0.3-0.5c0.2-0.1,0.5,0,0.7,0
				c0.9,0.2,2.6,1.2,2.9-0.3c0.1-0.4,0-0.8,0.1-1.3c0.1-0.6,0.1-1.1,0.2-1.7c0.2-1,0.4-1.9,0.5-2.9C12,55.5,11.6,55.5,11.6,55.7
				L11.6,55.7z"/>
		</g>
	</g>
</g>
<g>
	<g>
		<g>
			<path class="st0" d="M12.5,68.6c0.7-0.4,0.4-1.1,0.4-1.8c0-1.2,0-2.3,0-3.5c0-2.4,0.2-4.7,0.5-7.1c0-0.2-0.3-0.3-0.3-0.1
				c-0.3,2-0.4,4-0.5,6.1c0,1,0,2,0,3.1c0,0.5,0,1,0,1.5c0,0.4,0.2,1.3-0.2,1.5C12.1,68.4,12.3,68.7,12.5,68.6L12.5,68.6z"/>
		</g>
	</g>
</g>
<g>
	<g>
		<g>
			<path class="st0" d="M16.4,68.8c2.5-4.8,4.6-9.8,6.3-15c0.1-0.3,0.2-0.7,0.3-1c0.1-0.3,0.1-0.8,0.4-1c0.7-0.5,1,0.4,1.1,0.7
				c0.1,0.3,0.1,0.7,0,1c-0.2,1.3-1,2.6-1.6,3.8c-1.3,2.6-2.6,5.2-3.9,7.9c0,0.1,0,0.2,0.1,0.3c0.4,0.1,0.8,0.2,1.2,0.5
				c0.2,0.1,0.5,0.3,0.6,0.5c0,0.1,0.1,0.1,0.1,0.2c-0.1,0.3-0.1,0.6-0.2,0.9c-0.4,0.1-1.1-1-1.5-1.1c-1.3-0.3-1.8,1.3-2,2.2
				c0,0.2,0.3,0.3,0.3,0.1c0.1-0.7,0.2-1.5,0.8-1.9c0.7-0.4,1.1,0.1,1.6,0.5c0.3,0.3,1,0.6,1.4,0.3c0.5-0.4,0.1-1-0.2-1.4
				c-0.5-0.7-1.3-1.1-2.1-1.3c0,0.1,0.1,0.2,0.1,0.3c1.2-2.4,2.4-4.8,3.6-7.2c0.5-1.1,1.1-2.1,1.6-3.2c0.3-0.8,0.6-1.7,0.3-2.6
				c-0.1-0.5-0.6-1.3-1.2-1.1c-0.8,0.2-0.9,1.6-1.1,2.2c-0.8,2.4-1.6,4.8-2.6,7.1c-1.1,2.7-2.4,5.4-3.8,8C16,68.8,16.3,69,16.4,68.8
				L16.4,68.8z"/>
		</g>
	</g>
</g>
<g>
	<g>
		<g>
			<path class="st0" d="M16.7,80.9c0.9,0.7,2,0.9,3.1,0.7c0.7-0.1,1.3-0.5,2-0.6c0.6-0.1,1,0,1.5,0.2c0.2,0.1,0.4,0.2,0.6,0.2
				c2,0.2,2.2-2.8,0.3-3c-0.2,0-0.3,0.3-0.1,0.3c1,0.4,2,1,2.5,2.1c0.4,0.9,0.3,2.2-0.6,2.8c-0.5,0.4-1.4,0.3-1.6,1
				c-0.2,0.6,0.3,1.1,0.8,1.4c0.8,0.5,1.7,0.7,2.6,0.7c0.5,0,0.9-0.1,1.4-0.1c0.3,0,0.3-0.1,0.5,0.2c0.1,0.2,0.1,0.5,0.2,0.7
				c0.2,1.8-1,3.6-2.8,4c-1.8,0.4-3.8-0.7-4.4-2.5c-0.3-0.9-0.2-1.8-0.8-2.6c-0.4-0.6-1-0.9-1.6-1c-1.7-0.2-3,1.3-3.9,2.6
				c-1,1.5-2.3,3.7-4.4,3.2c-1.1-0.3-1.9-1.2-2.4-2.2c-0.2-0.5-0.5-1.3-0.3-1.8c0.3-0.7,1.2-0.8,1.9-1c0.8-0.2,1.7-0.5,2.3-1.2
				c0.4-0.6,0.6-1.3,0.2-2c-0.1-0.2-0.4,0-0.3,0.2c0.5,0.9-0.2,1.8-1,2.2c-0.8,0.4-1.8,0.5-2.6,0.8c-1.1,0.5-0.9,1.8-0.5,2.8
				c0.5,1.1,1.3,2.1,2.5,2.5c1.1,0.3,2.3-0.1,3.1-0.9c1.1-1,1.7-2.5,2.7-3.5c0.6-0.6,1.4-1.2,2.3-1.3c1.2-0.1,1.9,0.8,2.1,1.9
				c0.3,1.3,0.5,2.4,1.6,3.2c0.9,0.7,2.1,1.1,3.3,1c2.6-0.4,4-3.4,3-5.7c0-0.1-0.1-0.1-0.2-0.1c-0.8,0.2-1.6,0.2-2.4,0.1
				c-0.6-0.1-1.9-0.3-2.2-0.9c0-0.3,0-0.6,0-1c0.1,0,0.2-0.1,0.3-0.1c0.1,0,0.2-0.1,0.4-0.1c0.2-0.1,0.4-0.2,0.5-0.3
				c0.3-0.2,0.5-0.6,0.7-0.9c0.9-2.1-0.9-3.8-2.7-4.5c0,0.1-0.1,0.2-0.1,0.3c1.3,0.2,1.6,2,0.2,2.3c-0.7,0.1-1.4-0.5-2.2-0.4
				c-0.8,0.1-1.5,0.5-2.3,0.7c-1,0.2-2-0.1-2.8-0.7C16.7,80.5,16.5,80.8,16.7,80.9L16.7,80.9z"/>
		</g>
	</g>
</g>
<g>
	<g>
		<g>
			<path class="st0" d="M45.4,81.6c0.9,0.7,2,0.9,3.1,0.7c0.7-0.1,1.3-0.5,2-0.6c0.6-0.1,1,0,1.5,0.2c0.2,0.1,0.4,0.2,0.6,0.2
				c2,0.2,2.2-2.8,0.3-3c-0.2,0-0.3,0.3-0.1,0.3c1,0.4,2,1,2.5,2.1c0.4,0.9,0.3,2.2-0.6,2.8c-0.5,0.4-1.4,0.3-1.6,1
				c-0.2,0.6,0.3,1.1,0.8,1.4c0.8,0.5,1.7,0.7,2.6,0.7c0.5,0,0.9-0.1,1.4-0.1c0.3,0,0.3-0.1,0.5,0.2c0.1,0.2,0.1,0.5,0.2,0.7
				c0.2,1.8-1,3.6-2.8,4c-1.8,0.4-3.8-0.7-4.4-2.5C50.9,89,51,88,50.5,87.2c-0.4-0.6-1-0.9-1.6-1c-1.7-0.2-3,1.3-3.9,2.6
				c-1,1.5-2.3,3.7-4.4,3.2c-1.1-0.3-1.9-1.2-2.4-2.2c-0.2-0.5-0.5-1.3-0.3-1.8c0.3-0.7,1.2-0.8,1.9-1c0.8-0.2,1.7-0.5,2.3-1.2
				c0.4-0.6,0.6-1.3,0.2-2c-0.1-0.2-0.4,0-0.3,0.2c0.5,0.9-0.2,1.8-1,2.2c-0.8,0.4-1.8,0.5-2.6,0.8c-1.1,0.5-0.9,1.8-0.5,2.8
				c0.5,1.1,1.3,2.1,2.5,2.5c1.1,0.3,2.3-0.1,3.1-0.9c1.1-1,1.7-2.5,2.7-3.5c0.6-0.6,1.4-1.2,2.3-1.3c1.2-0.1,1.9,0.8,2.1,1.9
				c0.3,1.3,0.5,2.4,1.6,3.2c0.9,0.7,2.1,1.1,3.3,1c2.6-0.4,4-3.4,3-5.7c0-0.1-0.1-0.1-0.2-0.1c-0.8,0.2-1.6,0.2-2.4,0.1
				c-0.6-0.1-1.9-0.3-2.2-0.9c0-0.3,0-0.6,0-1c0.1,0,0.2-0.1,0.3-0.1c0.1,0,0.2-0.1,0.4-0.1c0.2-0.1,0.4-0.2,0.5-0.3
				c0.3-0.2,0.5-0.6,0.7-0.9c0.9-2.1-0.9-3.8-2.7-4.5c0,0.1-0.1,0.2-0.1,0.3c1.3,0.2,1.6,2,0.2,2.3c-0.7,0.1-1.4-0.5-2.2-0.4
				c-0.8,0.1-1.5,0.5-2.3,0.7c-1,0.2-2-0.1-2.8-0.7C45.4,81.1,45.2,81.4,45.4,81.6L45.4,81.6z"/>
		</g>
	</g>
</g>
<g>
	<g>
		<g>
			<path class="st0" d="M73.2,81.4c0.9,0.7,2,0.9,3.1,0.7c0.7-0.1,1.3-0.5,2-0.6c0.6-0.1,1,0,1.5,0.2c0.2,0.1,0.4,0.2,0.6,0.2
				c2,0.2,2.2-2.8,0.3-3c-0.2,0-0.3,0.3-0.1,0.3c1,0.4,2,1,2.5,2.1c0.4,0.9,0.3,2.2-0.6,2.8c-0.5,0.4-1.4,0.3-1.6,1
				c-0.2,0.6,0.3,1.1,0.8,1.4c0.8,0.5,1.7,0.7,2.6,0.7c0.5,0,0.9-0.1,1.4-0.1c0.3,0,0.3-0.1,0.5,0.2c0.1,0.2,0.1,0.5,0.2,0.7
				c0.2,1.8-1,3.6-2.8,4c-1.8,0.4-3.8-0.7-4.4-2.5c-0.3-0.9-0.2-1.8-0.8-2.6c-0.4-0.6-1-0.9-1.6-1c-1.7-0.2-3,1.3-3.9,2.6
				c-1,1.5-2.3,3.7-4.4,3.2c-1.1-0.3-1.9-1.2-2.4-2.2c-0.2-0.5-0.5-1.3-0.3-1.8c0.3-0.7,1.2-0.8,1.9-1c0.8-0.2,1.7-0.5,2.3-1.2
				c0.4-0.6,0.6-1.3,0.2-2c-0.1-0.2-0.4,0-0.3,0.2c0.5,0.9-0.2,1.8-1,2.2c-0.8,0.4-1.8,0.5-2.6,0.8c-1.1,0.5-0.9,1.8-0.5,2.8
				c0.5,1.1,1.3,2.1,2.5,2.5c1.1,0.3,2.3-0.1,3.1-0.9c1.1-1,1.7-2.5,2.7-3.5c0.6-0.6,1.4-1.2,2.3-1.3c1.2-0.1,1.9,0.8,2.1,1.9
				c0.3,1.3,0.5,2.4,1.6,3.2c0.9,0.7,2.1,1.1,3.3,1c2.6-0.4,4-3.4,3-5.7c0-0.1-0.1-0.1-0.2-0.1c-0.8,0.2-1.6,0.2-2.4,0.1
				c-0.6-0.1-1.9-0.3-2.2-0.9c0-0.3,0-0.6,0-1c0.1,0,0.2-0.1,0.3-0.1c0.1,0,0.2-0.1,0.4-0.1c0.2-0.1,0.4-0.2,0.5-0.3
				c0.3-0.2,0.5-0.6,0.7-0.9c0.9-2.1-0.9-3.8-2.7-4.5c0,0.1-0.1,0.2-0.1,0.3c1.3,0.2,1.6,2,0.2,2.3c-0.7,0.1-1.4-0.5-2.2-0.4
				c-0.8,0.1-1.5,0.5-2.3,0.7c-1,0.2-2-0.1-2.8-0.7C73.2,81,73,81.3,73.2,81.4L73.2,81.4z"/>
		</g>
	</g>
</g>
<g>
	<g>
		<g>
			<path class="st0" d="M42.1,68.4c0-0.6,0.4-0.2,0.7-0.2c0.3,0,0.5-0.1,0.7-0.3c0.3-0.3,0.4-0.6,0.4-1c0.1-0.5-0.1-2.1,1-1.9
				c0-0.1-0.1-0.1-0.1-0.2c-0.4,1-0.7,2.1-0.8,3.2c0,0.1,0.2,0.2,0.3,0.2c0.1-0.1,0.2-0.1,0.4-0.2c-0.1-0.1-0.2-0.1-0.3-0.2
				c-0.1,0.4-0.3,0.9-0.4,1.3c-0.1,0.2,0.1,0.3,0.3,0.2c0.3-0.2,0.6-0.2,0.8,0.3c-0.1,0.1,0,0.3,0.2,0.3c1.5-0.1,1.2,3.1,1.1,4.1
				c-0.2,1.4-0.6,2.8-1.3,4c-0.1,0.2,0.2,0.4,0.3,0.2c0.9-1.6,1.4-3.3,1.4-5.2c0-1,0.1-3.6-1.6-3.5c0.1,0.1,0.1,0.2,0.2,0.3
				c0.2-0.3,0.1-0.6-0.1-0.8c-0.3-0.3-0.8-0.1-1.2,0.1c0.1,0.1,0.2,0.1,0.3,0.2c0.1-0.4,0.3-0.9,0.4-1.3c0-0.2-0.1-0.3-0.3-0.2
				c-0.1,0.1-0.2,0.1-0.4,0.2c0.1,0.1,0.2,0.1,0.3,0.2c0.1-1.1,0.4-2.1,0.8-3.2c0-0.1,0-0.2-0.1-0.2c-1.3-0.3-1.3,1.3-1.4,2.1
				c0,0.2-0.1,0.6-0.3,0.8c-0.1,0.1-0.7,0.1-0.8,0.1c-0.2,0-0.2-0.1-0.4-0.1c-0.3,0.1-0.4,0.5-0.3,0.8
				C41.8,68.6,42.1,68.6,42.1,68.4L42.1,68.4z"/>
		</g>
	</g>
</g>
<g>
	<g>
		<g>
			<path class="st0" d="M69.5,70c-2.4,1.2-4.4,3.1-5.7,5.5c-0.1,0.2,0.2,0.4,0.3,0.2c1.3-2.3,3.2-4.2,5.6-5.3
				C69.9,70.2,69.7,69.9,69.5,70L69.5,70z"/>
		</g>
	</g>
</g>
<g>
	<g>
		<g>
			<path class="st0" d="M75.1,74.4c0.1,1.1-0.4,2.1-0.8,3.1c-0.4,0.9-0.9,1.8-1.4,2.6c-0.1,0.2,0.2,0.4,0.3,0.2c0.6-1,1.1-2,1.5-3
				c0.4-0.9,0.8-1.9,0.7-2.9C75.5,74.1,75.1,74.1,75.1,74.4L75.1,74.4z"/>
		</g>
	</g>
</g>
<g>
	<g>
		<g>
			<path class="st0" d="M18.7,81.8c0.3,1.4,0,2.8-0.7,4c-0.1,0.2,0.2,0.4,0.3,0.2c0.8-1.3,1.1-2.8,0.8-4.3
				C19,81.4,18.7,81.5,18.7,81.8L18.7,81.8z"/>
		</g>
	</g>
</g>
<g>
	<g>
		<g>
			<path class="st0" d="M19.8,81.5c0.4,1.8,1,3.6,1.7,5.4c0.1,0.2,0.4,0.1,0.3-0.1c-0.7-1.8-1.2-3.6-1.7-5.4
				C20.1,81.2,19.7,81.3,19.8,81.5L19.8,81.5z"/>
		</g>
	</g>
</g>
<g>
	<g>
		<g>
			<path class="st0" d="M47.4,82.3c0,1.8-0.5,3.5-1.5,5c-0.1,0.2,0.2,0.4,0.3,0.2c1-1.6,1.6-3.3,1.6-5.2
				C47.7,82.1,47.4,82.1,47.4,82.3L47.4,82.3z"/>
		</g>
	</g>
</g>
<g>
	<g>
		<g>
			<path class="st0" d="M49.2,82.2c0,1.8,0.4,3.5,1,5.2c0.1,0.2,0.4,0.1,0.3-0.1c-0.7-1.6-1-3.3-1-5.1
				C49.5,81.9,49.2,81.9,49.2,82.2L49.2,82.2z"/>
		</g>
	</g>
</g>
<g>
	<g>
		<g>
			<path class="st0" d="M74.5,82c0.3,1.6,0.5,3.3-0.3,4.7c-0.1,0.2,0.2,0.4,0.3,0.2c0.9-1.5,0.6-3.3,0.4-5
				C74.8,81.7,74.4,81.8,74.5,82L74.5,82z"/>
		</g>
	</g>
</g>
<g>
	<g>
		<g>
			<path class="st0" d="M76.6,81.7c0,2,0.5,3.9,1.4,5.6c0.1,0.2,0.4,0,0.3-0.2c-0.9-1.7-1.3-3.6-1.4-5.5
				C77,81.5,76.6,81.5,76.6,81.7L76.6,81.7z"/>
		</g>
	</g>
</g>
<g>
	<g>
		<g>
			<path class="st0" d="M7.1,77.8c0,1.5,1.1,2.5,2.2,3.2c1.6,1,3.5,1.5,5.4,1.8c0.2,0,0.3-0.3,0.1-0.3c-1.6-0.2-3.3-0.7-4.7-1.5
				c-1.3-0.6-2.6-1.7-2.6-3.2C7.4,77.5,7.1,77.5,7.1,77.8L7.1,77.8z"/>
		</g>
	</g>
</g>
<g>
	<g>
		<g>
			<path class="st0" d="M36.9,79.6c0.6-0.7,1.4,1.2,2,1.4c0.2,0.1,0.4,0,0.6,0c0.6-0.1,1.1-0.1,1.7,0.1c0.6,0.2,1.4,0.5,2,0
				c0.4-0.3,0.6-0.7,0.5-1.2c0-0.2-0.4-0.1-0.3,0.1c-0.1,0.2-0.1,0.4-0.2,0.7c-0.2,0.2-0.5,0.3-0.8,0.2c-0.3,0-0.5,0-0.7-0.1
				c-0.4-0.1-0.7-0.3-1.1-0.3c-0.3,0-0.6,0-0.8,0c-0.6,0.1-0.8,0.1-1.2-0.5c-0.4-0.5-1.1-1.6-1.8-0.8C36.5,79.5,36.7,79.7,36.9,79.6
				L36.9,79.6z"/>
		</g>
	</g>
</g>
<g>
	<g>
		<g>
			<path class="st0" d="M64.3,77.1c-0.4,3.2,4.3,4.1,6.6,4.1c0.2,0,0.2-0.4,0-0.4c-2,0-6.7-0.8-6.3-3.7C64.7,77,64.4,76.9,64.3,77.1
				L64.3,77.1z"/>
		</g>
	</g>
</g>
<g>
	<g>
		<g>
			<path class="st0" d="M65.9,80.3c-0.3,1.1,0.3,2.3,1.5,2.3c1,0,1.7-1,1.3-1.9c-0.1-0.2-0.4,0-0.3,0.2c0.4,0.8-0.4,1.5-1.2,1.3
				c-0.8-0.2-1.1-1.1-0.9-1.8C66.3,80.2,65.9,80.1,65.9,80.3L65.9,80.3z"/>
		</g>
	</g>
</g>
<g>
	<g>
		<g>
			<path class="st0" d="M67,80.8c-0.2,0.3-0.2,0.7,0,1.1c0.1,0.2,0.4,0,0.3-0.2c-0.1-0.2-0.1-0.5,0-0.7C67.5,80.7,67.1,80.6,67,80.8
				L67,80.8z"/>
		</g>
	</g>
</g>
<g>
	<g>
		<g>
			<path class="st0" d="M10.3,75.8c0.4-0.5,0.8,0.5,0.9,0.8c0.1,0.4,0,0.8-0.1,1.2c0,0.1,0.1,0.2,0.2,0c0.2-0.6,0.3-1.4-0.1-1.9
				c-0.2-0.3-0.6-0.6-0.9-0.2C10.1,75.7,10.2,75.9,10.3,75.8L10.3,75.8z"/>
		</g>
	</g>
</g>
<g>
	<g>
		<g>
			<path class="st0" d="M12.9,78.6c0-0.5,0.5-0.9,0.9-0.8c0.1,0,0.2-0.2,0-0.2c-0.6-0.1-1.1,0.4-1.1,1
				C12.7,78.8,12.9,78.8,12.9,78.6L12.9,78.6z"/>
		</g>
	</g>
</g>
<g>
	<g>
		<g>
			<path class="st0" d="M9.8,76.7c-0.2-0.1-0.2-0.3-0.1-0.5c-0.1,0-0.1,0-0.2,0c0.1,0.1,0.3,0.2,0.4,0.3C10,76.7,10,76.7,9.8,76.7
				C9.9,76.8,9.9,76.8,9.8,76.7C9.9,76.8,9.9,76.8,9.8,76.7c-0.1-0.1-0.4,0.1-0.2,0.3c0.2,0.3,0.6,0,0.7-0.2
				c0.1-0.4-0.3-0.6-0.6-0.8c-0.1,0-0.2,0-0.2,0c-0.3,0.3-0.2,0.8,0.1,1C9.9,77.2,10.1,76.8,9.8,76.7L9.8,76.7z"/>
		</g>
	</g>
</g>
<g>
	<g>
		<g>
			<path class="st0" d="M13.5,78.6c0.1-0.1,0.5,0.1,0.4,0.2c-0.1,0.2-0.4,0.1-0.4-0.1c0-0.2-0.4-0.1-0.3,0.1
				c0.1,0.5,0.9,0.6,1.1,0.1c0.2-0.5-0.6-1-1-0.6C13.1,78.5,13.4,78.8,13.5,78.6L13.5,78.6z"/>
		</g>
	</g>
</g>
<g>
	<g>
		<g>
			<path class="st0" d="M38.7,75.5c0.9,0.1,1.6,0.9,1.5,1.8c0,0.1,0.2,0.1,0.2,0c0.1-1-0.7-1.9-1.6-2C38.6,75.3,38.6,75.5,38.7,75.5
				L38.7,75.5z"/>
		</g>
	</g>
</g>
<g>
	<g>
		<g>
			<path class="st0" d="M41.7,77.6c0.2-0.5,0.8-0.6,1.2-0.3c0.1,0.1,0.2-0.1,0.1-0.2c-0.5-0.4-1.3-0.1-1.5,0.5
				C41.4,77.7,41.6,77.7,41.7,77.6L41.7,77.6z"/>
		</g>
	</g>
</g>
<g>
	<g>
		<g>
			<path class="st0" d="M38.5,76.7c0.2,0.1,0.4,0.2,0.4,0.5c0,0,0-0.1,0-0.1c-0.1,0.2-0.4,0.3-0.6,0.1c-0.2-0.2-0.1-0.5,0-0.6
				c0.2-0.1-0.1-0.4-0.3-0.3c-0.5,0.4-0.2,1.3,0.4,1.3c0.2,0,0.6-0.1,0.7-0.4c0-0.1-0.1-0.4-0.2-0.5c-0.1-0.1-0.2-0.2-0.4-0.3
				C38.4,76.3,38.2,76.6,38.5,76.7L38.5,76.7z"/>
		</g>
	</g>
</g>
<g>
	<g>
		<g>
			<path class="st0" d="M42.3,78.3C42.3,78.3,42.3,78.3,42.3,78.3c0-0.1,0-0.1,0-0.2c0.2-0.1,0.5,0.2,0.6,0.3c0-0.1,0-0.1,0-0.2
				C42.8,78.3,42.6,78.4,42.3,78.3c-0.1-0.1-0.3,0.2-0.1,0.4c0.3,0.2,0.8,0,1-0.3c0-0.1,0-0.2,0-0.2c-0.3-0.3-0.9-0.6-1.2-0.2
				c-0.2,0.3-0.1,0.7,0.3,0.7C42.6,78.6,42.6,78.3,42.3,78.3L42.3,78.3z"/>
		</g>
	</g>
</g>
<g>
	<g>
		<g>
			<path class="st0" d="M66.7,75.9c0.7,0.4,1.2,1.1,1.2,1.9c0,0.1,0.2,0.1,0.2,0c0-0.9-0.5-1.7-1.3-2C66.7,75.7,66.6,75.8,66.7,75.9
				L66.7,75.9z"/>
		</g>
	</g>
</g>
<g>
	<g>
		<g>
			<path class="st0" d="M69.4,77.9c0.5-0.6,1.4-0.7,2-0.2c0.1,0.1,0.2-0.1,0.1-0.2c-0.7-0.5-1.7-0.4-2.2,0.3
				C69.2,77.9,69.3,78,69.4,77.9L69.4,77.9z"/>
		</g>
	</g>
</g>
<g>
	<g>
		<g>
			<path class="st0" d="M66.5,76.8c0.2,0,0.3,0.1,0.4,0.2c0.1,0.1,0.1,0.2,0,0.3c-0.4,0-0.3-0.6-0.3-0.8c0-0.2-0.3-0.2-0.4,0
				c0,0.3-0.1,0.7,0.2,1c0.2,0.2,0.5,0.3,0.7,0.2c0.2-0.1,0.3-0.4,0.2-0.6c-0.1-0.3-0.4-0.4-0.7-0.5C66.4,76.4,66.3,76.8,66.5,76.8
				L66.5,76.8z"/>
		</g>
	</g>
</g>
<g>
	<g>
		<g>
			<path class="st0" d="M70.1,78.2c0.3,0,0.6,0.1,0.9,0.4c0-0.1,0-0.2,0-0.3c-0.2,0.1-0.4,0.2-0.6,0.2c-0.1,0-0.2-0.2-0.1-0.3
				c0.2-0.2-0.1-0.4-0.3-0.3c-0.2,0.2-0.1,0.6,0.1,0.8c0.3,0.3,0.8,0.1,1.1-0.1c0.1-0.1,0.1-0.2,0-0.3c-0.3-0.3-0.7-0.5-1.1-0.5
				C69.9,77.9,69.9,78.2,70.1,78.2L70.1,78.2z"/>
		</g>
	</g>
</g>
<g>
	<g>
		<g>
			<path class="st0" d="M10.3,86.3c0.3,2.2,1.9,4,3.9,4.7c0.2,0.1,0.3-0.3,0.1-0.3c-2-0.7-3.4-2.4-3.7-4.5
				C10.6,86,10.3,86.1,10.3,86.3L10.3,86.3z"/>
		</g>
	</g>
</g>
<g>
	<g>
		<g>
			<path class="st0" d="M23.7,91.2c1.2,0.6,2.6-0.1,3.5-1c1-0.9,1.7-2.2,1.9-3.6c0-0.2-0.3-0.3-0.3-0.1c-0.2,1.1-0.6,2.1-1.4,3
				c-0.8,0.9-2.3,1.9-3.5,1.3C23.7,90.8,23.5,91.1,23.7,91.2L23.7,91.2z"/>
		</g>
	</g>
</g>
<g>
	<g>
		<g>
			<path class="st0" d="M38.7,87.3c-0.3,1.3,0.9,2.2,2,2.5c1.4,0.5,2.9,0.3,4.1-0.4c0.2-0.1,0-0.4-0.2-0.3c-1,0.5-2.1,0.8-3.2,0.6
				c-1.1-0.2-2.7-0.9-2.4-2.3C39.1,87.1,38.7,87.1,38.7,87.3L38.7,87.3z"/>
		</g>
	</g>
</g>
<g>
	<g>
		<g>
			<path class="st0" d="M50.9,89.6c0.9,1,2.2,1.3,3.5,0.9c1.5-0.4,2.6-1.7,3.3-3c0.1-0.2-0.2-0.4-0.3-0.2c-0.7,1.2-1.6,2.3-2.9,2.7
				c-1.2,0.4-2.5,0.2-3.3-0.8C51,89.2,50.7,89.4,50.9,89.6L50.9,89.6z"/>
		</g>
	</g>
</g>
<g>
	<g>
		<g>
			<path class="st0" d="M67.5,86.7c-0.4,2.1,0.8,4.3,2.8,5c0.2,0.1,0.3-0.3,0.1-0.3c-1.8-0.6-2.9-2.6-2.5-4.5
				C67.9,86.6,67.6,86.5,67.5,86.7L67.5,86.7z"/>
		</g>
	</g>
</g>
<g>
	<g>
		<g>
			<path class="st0" d="M81.9,92.4c1.6-1.2,3.6-2.9,2.8-5.2c-0.1-0.2-0.4-0.1-0.3,0.1c0.7,2.1-1.2,3.7-2.6,4.8
				C81.6,92.2,81.8,92.5,81.9,92.4L81.9,92.4z"/>
		</g>
	</g>
</g>
<g>
	<g>
		<g>
			<path class="st0" d="M19,81.4c-0.2-0.2-0.4-0.5-0.5-0.8C18.4,80.3,18.6,80,19,80c0.3,0,0.5,0.2,0.6,0.5
				C19.6,80.9,19.4,81.2,19,81.4c-0.1,0.1,0,0.4,0.2,0.3c0.4-0.3,0.7-0.7,0.7-1.3c-0.1-0.4-0.4-0.8-0.9-0.8c-0.4,0-0.8,0.2-0.9,0.7
				c-0.1,0.5,0.3,1,0.6,1.4C18.9,81.8,19.2,81.6,19,81.4L19,81.4z"/>
		</g>
	</g>
</g>
<g>
	<g>
		<g>
			<path class="st0" d="M48,82.2c-0.3-0.7-0.6-1.7,0.2-2.1c0.4-0.2,0.8,0,0.8,0.5c0,0.5-0.3,0.8-0.6,1.1c-0.2,0.2,0.1,0.4,0.3,0.3
				c0.4-0.4,0.8-0.9,0.7-1.5c-0.1-0.4-0.4-0.8-0.9-0.8c-0.4,0-0.9,0.3-1.1,0.7c-0.3,0.6,0,1.3,0.2,1.9C47.7,82.6,48.1,82.5,48,82.2
				L48,82.2z"/>
		</g>
	</g>
</g>
<g>
	<g>
		<g>
			<path class="st0" d="M75.6,81.7c-0.8-0.2-0.9-1.4,0-1.6c0.8-0.1,1,1.1,0.2,1.2c-0.2,0-0.1,0.4,0.1,0.3c0.5-0.1,0.8-0.6,0.8-1.1
				c-0.1-0.5-0.5-0.9-1.1-0.8c-0.5,0-1,0.4-1,1c-0.1,0.6,0.4,1.1,0.9,1.3C75.7,82.1,75.8,81.7,75.6,81.7L75.6,81.7z"/>
		</g>
	</g>
</g>
<g>
	<g>
		<g>
			<path class="st0" d="M19.6,80.8c3.5,2.4,7.4,4,11.6,4.7c3.7,0.7,7.8,0.7,11.5-0.5c1.9-0.6,3.7-1.7,5.1-3.1c0.1-0.1,0-0.2-0.1-0.1
				c-3.4,3.6-8.7,4.3-13.3,4c-5.2-0.4-10.3-2.1-14.6-5.1C19.6,80.5,19.5,80.7,19.6,80.8L19.6,80.8z"/>
		</g>
	</g>
</g>
<g>
	<g>
		<g>
			<path class="st0" d="M48.7,82c3.9,2.7,8.8,3.4,13.5,3.4c4.3,0,8.9-0.6,12.1-3.6c0.1-0.1,0-0.2-0.1-0.1c-3.2,3.1-7.9,3.6-12.2,3.6
				c-4.6,0-9.4-0.8-13.2-3.4C48.7,81.8,48.6,82,48.7,82L48.7,82z"/>
		</g>
	</g>
</g>
<g>
	<g>
		<g>
			<path class="st0" d="M74.8,81.9c4.4,2.3,9.6,2,14.1,0.5c4.2-1.4,8.4-4,10.3-8.2c0-0.1-0.1-0.2-0.2-0.1c-1.9,4.1-6,6.7-10.2,8.1
				c-4.5,1.5-9.7,1.9-14-0.4C74.8,81.7,74.7,81.9,74.8,81.9L74.8,81.9z"/>
		</g>
	</g>
</g>
<g>
	<g>
		<g>
			<path class="st0" d="M18.8,79.8c-0.2-0.4-0.3-0.8-0.4-1.3c0-0.2,0-0.5,0.1-0.7c0.1-0.4,0.1-0.6,0.5-0.5c0.4,0,0.3,0.1,0.4,0.4
				c0,0.2,0,0.4,0,0.6c0,0.5-0.2,1-0.4,1.4c0.1,0,0.1,0,0.2,0.1c0.3-0.7,0.8-1.8,1.7-2c0.3-0.1,0.5,0,0.6,0.3
				c0.5,0.2,0.5,0.5,0.1,0.8c-0.1,0.1-0.3,0.3-0.5,0.4c-0.3,0.2-0.6,0.3-0.8,0.3c-0.1,0-0.3,0-0.4,0.1c-0.3,0.1-0.4,0-0.4-0.4
				c-0.3-0.5-0.2-0.3,0.1-0.7c0.1-0.1,0.1-0.2,0.2-0.3c0.1-0.2,0.2-0.4,0.2-0.7c0-0.3,0-0.7,0.1-1c0-0.2,0.1-0.5,0.3-0.6
				c0.1,0,0.4,0.3,0.5,0.4c0.1,0,0.1,0,0.1-0.1c0.3-0.1,0.7-0.3,1-0.4c0,0,0.1-0.1,0.1-0.1c-0.1-0.2-0.2-0.5-0.2-0.7
				c0.1-0.2,0.3-0.4,0.6-0.4c0.2-0.1,0.5-0.1,0.8-0.1c0.1,0,0.1-0.1,0.1-0.1C23,74.3,23,74,23,73.7c0.1-0.4,0.4-0.5,0.9-0.3
				c0.1,0.1,0.2,0,0.2-0.1c-0.2-0.3-0.6-0.3-0.9-0.2c-0.2,0.1-0.3,0.3-0.3,0.5c-0.1,0.2,0.1,0.7-0.1,0.9c-0.1,0.1-0.6,0.1-0.8,0.2
				c-0.2,0.1-0.4,0.3-0.5,0.6c-0.1,0.4,0.1,0.7,0.4,0.8c0.1,0,0.1-0.1,0.1-0.1c-0.5-0.8-1.5-0.3-1.3,0.6c0,0,0.1-0.1,0.1-0.1
				c-0.2-0.2-0.5-0.3-0.7-0.5c0,0-0.1,0-0.1,0c-0.3,0.6-0.2,1.3-0.4,2c-0.1,0.5-0.5,0.7-0.7,1.2c-0.1,0.1-0.1,0.3-0.1,0.4
				c0.1,1.1,2.3,0.1,2.7-0.2c0.5-0.4,0.9-1.5-0.1-1.7c-1.2-0.2-2.1,1.3-2.4,2.2c0,0.1,0.1,0.2,0.2,0.1c0.4-0.7,0.6-1.4,0.4-2.1
				c0-0.3-0.1-0.9-0.5-0.9c-0.5-0.1-0.7,0.8-0.8,1.2c-0.1,0.7,0,1.3,0.4,1.9C18.7,80,18.8,79.9,18.8,79.8L18.8,79.8z"/>
		</g>
	</g>
</g>
<g>
	<g>
		<g>
			<path class="st0" d="M47.5,80.2c-0.2-0.1-0.4-0.3-0.5-0.5c-0.3-0.5-0.2-0.7,0.3-0.6c0.3-0.2,0.5-0.1,0.5,0.2c0,0.2,0.1,0.4,0,0.6
				c0,0.1,0.1,0.1,0.2,0c0.2-0.5,0.4-1,0.8-1.4c0.2-0.2,0.5-0.4,0.9-0.4c0.2,0,0.3,0,0.4,0.1c0.3,0.1,0.5,0.3,0.4,0.7
				c0.2,0.4,0,0.7-0.4,0.9c-0.1,0.1-0.3,0.2-0.5,0.2C49.4,80,49.1,80,48.9,80c-1.1,0-1.7-2.4-0.3-2.4c0.1,0,0.1-0.1,0.1-0.1
				c0-0.3-0.1-0.6-0.1-0.8c0.1-0.4,0.4-1.1,1.1-0.7c0.1,0,0.1,0,0.1-0.1c-0.1-0.3-0.1-0.5,0-0.8c0.2-0.4,0.4-0.5,0.8-0.2
				c0.1,0.1,0.2,0,0.1-0.1c-0.2-0.7,0.5-1.3,1.1-1.1c0.1,0,0.2-0.1,0-0.2c-0.8-0.2-1.6,0.5-1.4,1.3c0,0,0.1-0.1,0.1-0.1
				c-0.2-0.3-0.6-0.3-0.9,0c-0.3,0.3-0.3,0.8-0.2,1.2c0,0,0.1-0.1,0.1-0.1c-0.4-0.2-0.8-0.1-1.1,0.2c-0.2,0.3-0.2,0.7-0.2,1
				c0,0.4,0,0.2-0.2,0.4c-0.6,0.4-0.7,1-0.5,1.6c0.2,0.7,0.4,1.2,1.2,1.1c0.6-0.1,1.4-0.3,1.8-0.9c0.2-0.4,0.2-0.9-0.2-1.2
				c-1.3-0.9-2.2,0.8-2.6,1.7c0.1,0,0.1,0,0.2,0c0-0.5-0.3-2.1-1.1-1.5c-0.7,0.5-0.1,1.7,0.5,2C47.5,80.4,47.6,80.3,47.5,80.2
				L47.5,80.2z"/>
		</g>
	</g>
</g>
<g>
	<g>
		<g>
			<path class="st0" d="M48,79.2c-0.2-0.9,0.7-1.6,1.5-1.4c0.1,0,0.1,0,0.1-0.1c0.3-0.9,0.6-1,1-0.5c0,0.1,0.2,0,0.2-0.1
				c0.3,0,0.7,0,1,0c0,0.1,0.2,0.1,0.2,0c0.1-0.8,1.1-1,1.6-0.5c0.2,0.1,0.4,0.4,0.4,0.6c0.1,0.1,0.1,0.2-0.1,0.2
				c-0.2,0.1-0.2,0,0.1-0.3c0.3-0.4,1-0.5,1.4-0.1c0.4,0.4,0.3,1.2-0.2,1.5c-0.1,0.1,0,0.2,0.1,0.2c0.7-0.5,0.7-1.6-0.1-2
				c-0.4-0.2-1,0-1.3,0.3c-0.2,0.2-0.5,0.7-0.2,1c0.2,0.3,0.4,0.2,0.6-0.1c0.2-0.4-0.1-0.9-0.3-1.2c-0.6-0.8-2-0.7-2.1,0.4
				c0.1,0,0.1,0,0.2,0c0-1-1.4-1-1.4,0c0.1,0,0.1,0,0.2-0.1c-0.2-0.3-0.6-0.5-1-0.3c-0.2,0.1-0.3,0.2-0.4,0.4c0,0,0,0.4-0.1,0.4
				c-0.1,0-0.4,0-0.6,0c-0.2,0.1-0.5,0.2-0.6,0.4c-0.3,0.3-0.4,0.8-0.4,1.2C47.8,79.4,48,79.3,48,79.2L48,79.2z"/>
		</g>
	</g>
</g>
<g>
	<g>
		<g>
			<path class="st0" d="M75.9,79.6c-0.3-0.5-0.2-1.1,0.2-1.6c0.3-0.3,0.6-0.1,0.6,0.3c0,0.4-0.2,0.7-0.4,1c0,0,0.1,0.1,0.1,0.1
				c0.2-0.2,0.4-0.5,0.7-0.6c0.2-0.1,0.4-0.2,0.7-0.1c0.6,0.4,0.7,0.8,0.3,1c-0.4,0.5-1.8,0.6-1.8-0.3c-0.1-0.5,0.4-1.2,0.7-1.5
				c0.2-0.2,0.4-0.3,0.6-0.4c0.2-0.1,1.5-0.5,1.3,0.2c0.1,0,0.1,0,0.2,0c-0.1-0.2-0.1-0.4,0-0.7c-0.1-0.6,0.2-0.7,1-0.2
				c0,0.1,0.1,0.2,0.2,0c0.1-0.2,0.1-0.3,0.3-0.4c0.3-0.4,0.6-0.3,1.1,0.3c0,0.1,0.1,0.2,0.2,0c0.1-0.4-0.2-0.8-0.6-0.9
				c-0.6-0.1-0.9,0.5-1.1,0.9c0.1,0,0.1,0,0.2,0c0.1-0.5-0.3-0.9-0.8-0.8c-0.7,0.2-0.7,1.1-0.5,1.6c0,0.1,0.2,0.1,0.2,0
				c0.1-0.3-0.2-0.5-0.5-0.6c-0.5-0.1-1.2,0.2-1.6,0.6c-0.5,0.4-1.6,2-0.6,2.5c0.6,0.4,2.3-0.1,2.1-1c-0.1-0.4-0.5-0.6-0.8-0.7
				c-0.6-0.1-1.1,0.4-1.4,0.8c-0.1,0.1,0.1,0.2,0.1,0.1c0.5-0.5,0.6-1.2,0.3-1.9c0,0-0.1-0.1-0.1,0c-0.9,0.3-1.2,1.4-0.8,2.2
				C75.8,79.8,76,79.7,75.9,79.6L75.9,79.6z"/>
		</g>
	</g>
</g>
<g>
	<g>
		<g>
			<path class="st0" d="M76.9,78.6c-0.7-0.5-0.6-1.6,0.1-2c0.1,0,0.1-0.1,0-0.2c-0.2-0.1-0.4-0.3-0.5-0.5c-0.1-0.1-0.2,0-0.2,0.1
				c0.1,0.3,0.3,0.5,0.6,0.6c0-0.1,0-0.1,0-0.2c-0.8,0.5-0.9,1.7-0.2,2.3C76.8,78.7,77,78.6,76.9,78.6L76.9,78.6z"/>
		</g>
	</g>
</g>
<g>
	<g>
		<g>
			<path class="st0" d="M75.7,80.1C75.7,80.1,75.8,80.1,75.7,80.1c-0.1,0-0.1,0-0.1,0c-0.1,0.1-0.1,0.1-0.2,0.2
				c-0.1,0.1-0.1,0.3-0.1,0.5c0,0.4,0.2,0.7,0.5,0.8c0.1,0,0.2-0.1,0-0.2c-0.3-0.1-0.4-0.5-0.4-0.8c0-0.1,0.1-0.3,0.2-0.4
				c0.1-0.1,0.2-0.1,0.3-0.2c0.1-0.3-0.5-0.3-0.4,0C75.6,80.3,75.7,80.2,75.7,80.1L75.7,80.1z"/>
		</g>
	</g>
</g>
<g>
	<g>
		<g>
			<path class="st0" d="M48,80c0.5,0.7,0.3,1.8-0.5,2.2c-0.1,0.1,0,0.2,0.1,0.2c0.8-0.5,1.1-1.7,0.5-2.5C48.1,79.8,48,79.9,48,80
				L48,80z"/>
		</g>
	</g>
</g>
<g>
	<g>
		<g>
			<path class="st0" d="M19,79.9c-0.5,0.6-0.4,1.5,0.2,2c0.1,0.1,0.2-0.1,0.1-0.1c-0.5-0.4-0.6-1.2-0.2-1.7
				C19.2,79.9,19.1,79.8,19,79.9L19,79.9z"/>
		</g>
	</g>
</g>
<g>
	<g>
		<g>
			<path class="st0" d="M19,81.6c0.4,1.4,0.4,2.8,0.1,4.2c0,0.1,0.1,0.2,0.2,0c0.4-1.4,0.4-2.9-0.1-4.3C19.2,81.5,19,81.5,19,81.6
				L19,81.6z"/>
		</g>
	</g>
</g>
<g>
	<g>
		<g>
			<path class="st0" d="M19.4,81.7c0.4,1.3,0.7,2.6,0.7,4c0,0.1,0.2,0.1,0.2,0c0-1.4-0.2-2.7-0.7-4C19.6,81.6,19.4,81.6,19.4,81.7
				L19.4,81.7z"/>
		</g>
	</g>
</g>
<g>
	<g>
		<g>
			<path class="st0" d="M47.6,82.2c0.2,1.4,0.2,2.8,0,4.2c0,0.1,0.2,0.2,0.2,0c0.3-1.4,0.3-2.9,0-4.3C47.8,82,47.6,82.1,47.6,82.2
				L47.6,82.2z"/>
		</g>
	</g>
</g>
<g>
	<g>
		<g>
			<path class="st0" d="M48.8,82.2c0,0.8-0.1,1.7-0.1,2.5c0,0.4-0.2,1.3,0,1.6c0,0,0,0,0.1,0c0.1,0,0.1,0,0.2-0.1c0,0,0-0.1,0-0.1
				c0,0,0,0,0,0c0-0.1-0.2,0-0.2,0.1c-0.1-0.2,0.1-0.8,0.1-1c0-0.3,0-0.7,0.1-1c0-0.7,0.1-1.4,0.1-2.1
				C48.9,82.1,48.8,82.1,48.8,82.2L48.8,82.2z"/>
		</g>
	</g>
</g>
<g>
	<g>
		<g>
			<path class="st0" d="M74.9,82c0.5,1.4,0.7,2.8,0.5,4.2c0,0.1,0.2,0.1,0.2,0c0.1-1.5,0-2.9-0.5-4.3C75,81.9,74.8,81.9,74.9,82
				L74.9,82z"/>
		</g>
	</g>
</g>
<g>
	<g>
		<g>
			<path class="st0" d="M76.3,81.7c-0.4,1.4-0.4,2.9,0,4.3c0,0.1,0.2,0.1,0.2,0c-0.3-1.4-0.3-2.8,0-4.2
				C76.5,81.6,76.4,81.6,76.3,81.7L76.3,81.7z"/>
		</g>
	</g>
</g>
<g>
	<g>
		<g>
			<path class="st0" d="M65.6,89.1c0.3-0.7,1-1.2,1.8-1.1c0.1,0,0.2-0.2,0-0.2c-0.9-0.1-1.8,0.4-2.1,1.2
				C65.4,89.1,65.5,89.2,65.6,89.1L65.6,89.1z"/>
		</g>
	</g>
</g>
<g>
	<g>
		<g>
			<path class="st0" d="M66.4,90.6c0.2-0.7,0.7-1.2,1.3-1.6c0.1-0.1,0-0.2-0.1-0.2c-0.7,0.3-1.2,0.9-1.4,1.7
				C66.2,90.6,66.3,90.7,66.4,90.6L66.4,90.6z"/>
		</g>
	</g>
</g>
<g>
	<g>
		<g>
			<path class="st0" d="M67.4,91.7c0.1-0.6,0.4-1.1,1-1.4c0.1-0.1,0-0.2-0.1-0.2c-0.6,0.3-1,0.9-1.1,1.6
				C67.2,91.8,67.4,91.8,67.4,91.7L67.4,91.7z"/>
		</g>
	</g>
</g>
<g>
	<g>
		<g>
			<path class="st0" d="M68.7,92.3c0.1-0.3,0.3-0.6,0.4-0.9c0.1-0.1-0.1-0.2-0.2-0.1c-0.1,0.3-0.3,0.6-0.4,0.9
				C68.5,92.4,68.7,92.4,68.7,92.3L68.7,92.3z"/>
		</g>
	</g>
</g>
<g>
	<g>
		<g>
			<path class="st0" d="M83.3,91.2c0.4,0.4,0.9,0.5,1.4,0.4c0.1,0,0.1-0.2,0-0.2c-0.4,0.1-0.9-0.1-1.2-0.4
				C83.3,90.9,83.2,91.1,83.3,91.2L83.3,91.2z"/>
		</g>
	</g>
</g>
<g>
	<g>
		<g>
			<path class="st0" d="M84.2,89.7c0.2,0.6,0.8,1,1.5,0.9c0.1,0,0.1-0.2,0-0.2c-0.6,0.1-1.1-0.3-1.3-0.8
				C84.3,89.5,84.2,89.6,84.2,89.7L84.2,89.7z"/>
		</g>
	</g>
</g>
<g>
	<g>
		<g>
			<path class="st0" d="M85,88.4c0.5-0.2,1-0.1,1.3,0.3c0.1,0.1,0.2,0,0.1-0.1c-0.4-0.5-1-0.6-1.5-0.3C84.8,88.3,84.9,88.5,85,88.4
				L85,88.4z"/>
		</g>
	</g>
</g>
<g>
	<g>
		<g>
			<path class="st0" d="M99.2,91c7,0.1,14.1,0,21.1-0.4c0.1,0,0.1-0.2,0-0.2c-7,0.4-14.1,0.5-21.1,0.4C99,90.8,99,91,99.2,91
				L99.2,91z"/>
		</g>
	</g>
</g>
<g>
	<g>
		<g>
			<path class="st0" d="M108.7,90c1.9,0,3.7-0.1,5.6-0.1c0.1,0,0.1-0.2,0-0.2c-1.9,0-3.7,0.1-5.6,0.1C108.6,89.9,108.6,90,108.7,90
				L108.7,90z"/>
		</g>
	</g>
</g>
<g>
	<g>
		<g>
			<path class="st0" d="M91.7,95.1c11.5-0.5,23.1-0.7,34.6-0.5c3.3,0,6.6,0.1,9.8,0.2c0.1,0,0.1-0.2,0-0.2
				c-11.5-0.3-23.1-0.3-34.6,0c-3.3,0.1-6.6,0.2-9.8,0.3C91.6,94.9,91.6,95.1,91.7,95.1L91.7,95.1z"/>
		</g>
	</g>
</g>
<g>
	<g>
		<g>
			<path class="st0" d="M62.8,92.7c2.8,0,5.6,0,8.4,0c0.1,0,0.1-0.2,0-0.2c-2.8,0-5.6,0-8.4,0C62.6,92.5,62.6,92.7,62.8,92.7
				L62.8,92.7z"/>
		</g>
	</g>
</g>
<g>
	<g>
		<g>
			<path class="st0" d="M35.9,92.4c1.3,0,2.6,0,4,0c0.1,0,0.1-0.2,0-0.2c-1.3,0-2.6,0-4,0C35.8,92.2,35.8,92.4,35.9,92.4L35.9,92.4z
				"/>
		</g>
	</g>
</g>
<g>
	<g>
		<g>
			<path class="st0" d="M5.5,91.4c2.2,0.1,4.5,0.2,6.7,0.3c0.1,0,0.1-0.2,0-0.2c-2.2-0.1-4.5-0.2-6.7-0.3
				C5.4,91.2,5.4,91.3,5.5,91.4L5.5,91.4z"/>
		</g>
	</g>
</g>
<g>
	<g>
		<g>
			<path class="st0" d="M6.7,90.6c0.3,0,0.6,0,0.9,0c0.1,0,0.1-0.2,0-0.2c-0.3,0-0.6,0-0.9,0C6.6,90.5,6.6,90.6,6.7,90.6L6.7,90.6z"
				/>
		</g>
	</g>
</g>
<g>
	<g>
		<g>
			<path class="st0" d="M35.9,91.7c0.4,0,0.9,0,1.3,0c0.1,0,0.1-0.2,0-0.2c-0.4,0-0.9,0-1.3,0C35.8,91.5,35.8,91.7,35.9,91.7
				L35.9,91.7z"/>
		</g>
	</g>
</g>
<g>
	<g>
		<g>
			<path class="st0" d="M63.2,91.8c0.5,0,1,0,1.5,0c0.1,0,0.1-0.2,0-0.2c-0.5,0-1,0-1.5,0C63.1,91.6,63.1,91.8,63.2,91.8L63.2,91.8z
				"/>
		</g>
	</g>
</g>
<g>
	<g>
		<g>
			<path class="st0" d="M11.3,70.2c0.5-0.3,1.2-0.3,1.7,0c0.1,0.1,0.2-0.1,0.1-0.2c-0.6-0.4-1.3-0.4-1.9,0
				C11.1,70.1,11.2,70.3,11.3,70.2L11.3,70.2z"/>
		</g>
	</g>
</g>
<g>
	<g>
		<g>
			<path class="st0" d="M14.4,71.1c0.2-0.3,0.6-0.3,0.9-0.1c0.1,0.1,0.2-0.1,0.1-0.1c-0.4-0.3-0.9-0.2-1.2,0.1
				C14.2,71.1,14.3,71.2,14.4,71.1L14.4,71.1z"/>
		</g>
	</g>
</g>
<g>
	<g>
		<g>
			<path class="st0" d="M39.2,70.5c0.5-0.3,1.1-0.5,1.7-0.6c0.1,0,0.1-0.2,0-0.2c-0.6,0.1-1.2,0.3-1.8,0.6
				C39,70.4,39.1,70.6,39.2,70.5L39.2,70.5z"/>
		</g>
	</g>
</g>
<g>
	<g>
		<g>
			<path class="st0" d="M44.8,71.3c0.7,0.6,1.1,1.5,1.1,2.5c0,0.1,0.2,0.1,0.2,0c0-1-0.4-1.9-1.2-2.6C44.8,71.1,44.7,71.3,44.8,71.3
				L44.8,71.3z"/>
		</g>
	</g>
</g>
<g>
	<g>
		<g>
			<path class="st0" d="M71.9,71c0.2,0,0.4,0.1,0.5,0.3c0.1,0.1,0.2,0,0.2-0.1c-0.1-0.2-0.4-0.4-0.7-0.3C71.7,70.8,71.7,71,71.9,71
				L71.9,71z"/>
		</g>
	</g>
</g>
<g>
	<g>
		<g>
			<path class="st0" d="M73.7,71.9c0,0.1,0.1,0.2,0.1,0.3c0.1,0.1,0.2,0,0.2-0.1c0-0.1-0.1-0.2-0.1-0.3
				C73.8,71.8,73.6,71.8,73.7,71.9L73.7,71.9z"/>
		</g>
	</g>
</g>
<g>
	<g>
		<g>
			<path class="st0" d="M38.5,66.9c0.7,0.6,1,1.5,0.9,2.5c0,0.1,0.2,0.2,0.2,0c0.1-1-0.2-2-0.9-2.6C38.6,66.7,38.4,66.8,38.5,66.9
				L38.5,66.9z"/>
		</g>
	</g>
</g>
<g>
	<g>
		<g>
			<path class="st0" d="M46.3,70.5c0.4-0.4,0.9-0.6,1.4-0.6c0.3,0,1.2,0,1.1,0.5c0,0.4-0.5,0.8-0.8,1c-0.4,0.2-0.9,0.3-1.4,0.1
				c-0.1,0-0.2,0.1,0,0.2c1.1,0.4,2.3-0.4,2.4-1.5c0,0,0-0.1,0-0.1c-0.9-0.5-2.1-0.4-2.8,0.3C46,70.5,46.2,70.6,46.3,70.5L46.3,70.5
				z"/>
		</g>
	</g>
</g>
<g>
	<g>
		<g>
			<path class="st0" d="M46.8,71.5c-0.3-0.1,0.3-0.5,0.3-0.5c0.2-0.1,0.3-0.2,0.5-0.2c0.4-0.2,0.8-0.2,1.2-0.3c0.1,0,0.1-0.2,0-0.2
				c-0.7,0.1-1.5,0.3-2,0.7c-0.2,0.2-0.4,0.6-0.1,0.7C46.9,71.7,46.9,71.5,46.8,71.5L46.8,71.5z"/>
		</g>
	</g>
</g>
<g>
	<g>
		<g>
			<path class="st0" d="M10.2,70.1c0-1-0.1-1.9-0.5-2.8c0-0.1-0.2-0.1-0.2,0c0.4,0.9,0.5,1.8,0.5,2.7C10,70.3,10.1,70.3,10.2,70.1
				L10.2,70.1z"/>
		</g>
	</g>
</g>
<g>
	<g>
		<g>
			<path class="st0" d="M16.5,71.3c0.8-0.5,1.4-1.3,1.7-2.3c0-0.1-0.1-0.2-0.2,0c-0.3,0.9-0.8,1.6-1.6,2.2
				C16.3,71.2,16.4,71.4,16.5,71.3L16.5,71.3z"/>
		</g>
	</g>
</g>
<g>
	<g>
		<g>
			<path class="st0" d="M69.8,70.2c0.8-1,1.1-2.2,0.8-3.4c0-0.1-0.2-0.1-0.2,0c0.2,1.2,0,2.3-0.8,3.3C69.7,70.1,69.8,70.3,69.8,70.2
				L69.8,70.2z"/>
		</g>
	</g>
</g>
<g>
	<g>
		<g>
			<path class="st0" d="M75.3,74.4c0.1-1,1.3-1.6,2.1-1.1c0.1,0.1,0.2-0.1,0.1-0.2c-1-0.5-2.3,0.2-2.4,1.3
				C75.1,74.5,75.3,74.5,75.3,74.4L75.3,74.4z"/>
		</g>
	</g>
</g>
<g>
	<g>
		<g>
			<path class="st0" d="M9.3,88.6c0.1-0.1,0.1-0.2,0.2-0.3c0.2-0.5,0.5-0.4,0.9,0.2c0,0.1-0.4,0.3-0.5,0.4c-0.2,0.3-0.3,0.6-0.4,1
				c0,0,0,0.1,0.1,0.1c0.3,0.1,0.6,0,0.9-0.2c0.1-0.1,0.2-0.1,0.3-0.2c0.3-0.2,0.5,0,0.6,0.6c0,0.2-0.5,0.6-0.7,0.8c0,0,0,0.1,0,0.1
				c0.2,0.2,0.4,0.2,0.7,0.2c0.1,0,0.3-0.1,0.4-0.2c0.1-0.1,0.2-0.2,0.3-0.2c0.2-0.2,0.3-0.1,0.3,0.2c0.2,0.2,0.2,0.4,0,0.4
				c-0.1,0.1,0,0.2,0.1,0.2c0.3-0.2,0.7-0.5,0.7-0.9c-0.1-0.4-0.5-0.4-0.8-0.3c-0.3,0.1-0.5,0.4-0.8,0.5c-0.3,0.2-0.5,0.1-0.4-0.2
				c0-0.2,0.3-0.4,0.4-0.5c0.2-0.3,0.6-0.6,0.2-1c-0.4-0.4-0.9,0.1-1.3,0.2c-0.5,0.2-0.9,0-0.6-0.4c0.3-0.4,0.4-0.3,0.7-0.6
				c0.1-0.1,0.2-0.2,0.2-0.4c0-0.3-0.3-0.6-0.6-0.6c-0.5,0-0.8,0.5-1,0.9C9.1,88.6,9.3,88.7,9.3,88.6L9.3,88.6z"/>
		</g>
	</g>
</g>
<g>
	<g>
		<g>
			<path class="st0" d="M27,91.8c-0.2-0.2-0.8-0.6-0.7-0.9c0.2-0.6,0.7,0.3,0.9,0.4c0.2,0.1,0.4,0.2,0.6,0.2
				c0.6-0.1,0.8-0.8,0.4-1.2C28.1,90.1,28,90,27.9,90c-0.4-0.1-0.2-0.3,0.5-0.6c0.2,0.1,0.3,0.2,0.5,0.4c0.1,0,0.2,0,0.3-0.1
				c0.2-0.2,0.2-0.4,0.1-0.6c0-0.2-0.2-0.2-0.2-0.4c-0.2-0.2-0.3-0.4-0.4-0.6c0.4-0.3,0.8-0.3,0.9,0.1c0.1,0.1,0.2,0,0.2-0.1
				c-0.2-0.3-0.5-0.7-0.9-0.6c-0.3,0.1-0.4,0.3-0.3,0.6c0,0.2,0.1,0.3,0.3,0.5c0.1,0.1,0.1,0.2,0.2,0.2c0,0.2-0.1,0.5-0.1,0.7
				c0,0-0.2-0.2-0.3-0.2c-0.3-0.2-0.8-0.3-1,0.1c-0.1,0.2-0.1,0.4,0,0.6c0.3,0.3,0.5-0.1-0.1,0.5c-0.7,0.7-0.1,0.4-0.5,0.2
				c-0.2-0.1-0.2-0.2-0.4-0.3c-0.3,0-0.4,0.1-0.5,0.3c0,0.4,0.4,1,0.7,1.2C27,92,27.1,91.9,27,91.8L27,91.8z"/>
		</g>
	</g>
</g>
<g>
	<g>
		<g>
			<path class="st0" d="M37.7,89.1c0.3-0.3,0.8-0.5,1.2-0.4c0.1,0,0.2-0.1,0-0.2c-0.5-0.1-1,0.1-1.4,0.4
				C37.5,89.1,37.6,89.2,37.7,89.1L37.7,89.1z"/>
		</g>
	</g>
</g>
<g>
	<g>
		<g>
			<path class="st0" d="M38.6,90.9c0.6-0.3,1-0.9,1.1-1.5c0-0.1-0.2-0.1-0.2,0c-0.1,0.6-0.5,1.1-1,1.4C38.4,90.8,38.5,91,38.6,90.9
				L38.6,90.9z"/>
		</g>
	</g>
</g>
<g>
	<g>
		<g>
			<path class="st0" d="M40.5,92.1c-0.3-0.7,0-1.6,0.7-1.9c0.1-0.1,0-0.2-0.1-0.2c-0.7,0.4-1.1,1.3-0.8,2.1
				C40.4,92.3,40.6,92.2,40.5,92.1L40.5,92.1z"/>
		</g>
	</g>
</g>
<g>
	<g>
		<g>
			<path class="st0" d="M42,90.3c0.4,0.5,0.5,1.2,0.4,1.8c0,0.1,0.2,0.2,0.2,0c0.1-0.7,0-1.4-0.4-2C42.1,90.1,41.9,90.2,42,90.3
				L42,90.3z"/>
		</g>
	</g>
</g>
<g>
	<g>
		<g>
			<path class="st0" d="M53.6,92.3c-0.3-0.6,0-1.4,0.6-1.6c0.1,0,0-0.2-0.1-0.2c-0.7,0.3-1,1.2-0.6,1.9
				C53.5,92.5,53.6,92.4,53.6,92.3L53.6,92.3z"/>
		</g>
	</g>
</g>
<g>
	<g>
		<g>
			<path class="st0" d="M54.6,90.6c0.7,0.4,1,1.1,1,1.8c0,0.1,0.2,0.1,0.2,0c0.1-0.8-0.3-1.6-1.1-2C54.6,90.4,54.5,90.6,54.6,90.6
				L54.6,90.6z"/>
		</g>
	</g>
</g>
<g>
	<g>
		<g>
			<path class="st0" d="M57.5,91.2c-0.9-0.3-1.4-1.4-1-2.2c0.1-0.1-0.1-0.2-0.2-0.1c-0.5,1,0,2.2,1.1,2.5
				C57.6,91.4,57.6,91.2,57.5,91.2L57.5,91.2z"/>
		</g>
	</g>
</g>
<g>
	<g>
		<g>
			<path class="st0" d="M57.1,88.7c0.5-0.3,1.2,0.1,1.3,0.7c0,0.1,0.2,0.1,0.2,0c-0.1-0.7-0.9-1.2-1.6-0.8
				C56.9,88.6,57,88.8,57.1,88.7L57.1,88.7z"/>
		</g>
	</g>
</g>
<g>
	<g>
		<g>
			<path class="st0" d="M39.3,81.6c0.5-0.2,1,0.1,1.2,0.6c0,0.1,0.2,0.1,0.2,0c-0.2-0.6-0.8-0.9-1.4-0.7
				C39.1,81.5,39.2,81.7,39.3,81.6L39.3,81.6z"/>
		</g>
	</g>
</g>
<g>
	<g>
		<g>
			<path class="st0" d="M8.7,81.5c0.5,0.6,1.3,0.7,2,0.5c0.1,0,0.1-0.2,0-0.2c-0.6,0.2-1.3,0-1.8-0.5C8.8,81.3,8.6,81.4,8.7,81.5
				L8.7,81.5z"/>
		</g>
	</g>
</g>
<g>
	<g>
		<g>
			<path class="st0" d="M64.9,80.8c0,0.4,0.1,0.9,0.3,1.2c0.1,0.1,0.2,0,0.2-0.1c-0.2-0.3-0.3-0.7-0.3-1.1
				C65.1,80.7,64.9,80.7,64.9,80.8L64.9,80.8z"/>
		</g>
	</g>
</g>
<g>
	<path class="st0" d="M11.7,57.5l-0.4-3.1L8.6,53l2.8-1.3l0.5-3L14,51l3-0.4l-1.5,2.7l1.4,2.8l-3-0.6L11.7,57.5z M9.2,53.1l2.4,1.2
		l0.3,2.6l1.9-1.9l2.6,0.5l-1.2-2.4l1.3-2.3l-2.6,0.4l-1.8-1.9l-0.4,2.6L9.2,53.1z"/>
</g>
<g>
	<path class="st0" d="M85.9,62.5l-0.4-3.1l-2.7-1.4l2.8-1.3l0.5-3l2.1,2.3l3-0.5l-1.5,2.7l1.4,2.8l-3-0.6L85.9,62.5z M83.4,58.1
		l2.4,1.2l0.3,2.6l1.9-1.9l2.6,0.5l-1.2-2.4l1.3-2.3l-2.6,0.4l-1.8-1.9L85.8,57L83.4,58.1z"/>
</g>
<g>
	<path class="st0" d="M53,71.8l-0.4-3.1l-2.7-1.4l2.8-1.3l0.5-3l2.1,2.3l3-0.5l-1.5,2.7l1.4,2.8l-3-0.6L53,71.8z M50.5,67.3l2.4,1.2
		l0.3,2.6l1.9-1.9l2.6,0.5l-1.2-2.4l1.3-2.3l-2.6,0.4l-1.8-1.9l-0.4,2.6L50.5,67.3z"/>
</g>
<g>
	<path class="st0" d="M24.3,68.3l-1.5-1L21.2,68l0.5-1.7l-1.1-1.4l1.8-0.1l0.9-1.5l0.6,1.6l1.7,0.4l-1.4,1.1L24.3,68.3z M22.8,67
		l1.1,0.7l-0.1-1.3l1-0.8l-1.3-0.3L23.1,64l-0.7,1.1l-1.3,0.1l0.9,1l-0.4,1.3L22.8,67z"/>
</g>
<g>
	<path class="st0" d="M70.9,62.1l-1.5-1l-1.6,0.7l0.5-1.7l-1.1-1.4l1.8-0.1l0.9-1.5l0.6,1.6l1.7,0.4l-1.4,1.1L70.9,62.1z M69.5,60.8
		l1.1,0.7l-0.1-1.3l1-0.8l-1.3-0.3l-0.5-1.2l-0.7,1.1L67.7,59l0.9,1l-0.4,1.3L69.5,60.8z"/>
</g>
<g>
	<path class="st0" d="M44.7,57.4l-1.5-1l-1.6,0.7l0.5-1.7l-1.1-1.3l1.8-0.1l0.9-1.5l0.6,1.6l1.7,0.4l-1.4,1.1L44.7,57.4z M43.3,56.1
		l1.1,0.7l-0.1-1.3l1-0.8L44,54.4l-0.5-1.2l-0.7,1.1l-1.3,0.1l0.9,1L42,56.6L43.3,56.1z"/>
</g>
<g>
	<path class="st0" d="M45.6,65.5l-1.1-0.7l-1.2,0.5l0.3-1.3l-0.8-1l1.3-0.1l0.7-1.1l0.5,1.2l1.3,0.3l-1,0.8L45.6,65.5z M44.6,64.4
		l0.7,0.5l-0.1-0.9l0.7-0.5l-0.8-0.2l-0.3-0.8l-0.5,0.7l-0.9,0l0.6,0.7l-0.2,0.8L44.6,64.4z"/>
</g>
<g>
	<g>
		<g>
			<path class="st0" d="M13.9,55.1c0.3,0.5,0.2,1.4,0,1.9c-0.2,0.6-0.5,1.2-0.9,1.7c-0.7,0.9-1.7,1.6-2.8,1.9
				c-0.2,0-0.8,0.2-0.9,0.1c-0.5-0.4,0.3-0.8,0.6-0.9c0.5-0.3,1-0.6,1.6-0.7c0.8-0.2,2.3-0.6,2.4,0.6c0,0.8-0.5,1.5-1.2,1.8
				c-0.1,0-0.1,0.2,0,0.2c0.7-0.3,1.3-1,1.4-1.8c0.1-0.9-0.6-1.4-1.4-1.3c-1.1,0.1-2.2,0.6-3.1,1.2c-0.3,0.2-1,0.8-0.3,1
				c0.9,0.3,2.2-0.5,2.9-1c0.8-0.6,1.6-1.4,2-2.4c0.2-0.4,0.3-0.8,0.3-1.3c0-0.3,0-1-0.2-1.2c-0.2-0.2-0.5-0.1-0.3,0.2
				C13.8,55.2,14,55.2,13.9,55.1L13.9,55.1z"/>
		</g>
	</g>
</g>
<g>
	<g>
		<g>
			<path class="st0" d="M10.4,63.8c-0.4,0.4-1,0.9-1.3,1.4c-0.1,0.2-0.2,0.4,0,0.7c0.5,0.8,2,0,2.6-0.3c0.6-0.3,1.3-0.7,1.8-1.1
				c0.2-0.2,0.7-0.4,0.7-0.7c0-0.8-1.1-0.3-1.3,0c-0.1,0.1,0,0.2,0.1,0.1c0.3-0.4,0.5-0.3,0.7,0.3c-0.1,0-0.1,0.1-0.2,0.1
				c-0.1,0.2-0.4,0.3-0.6,0.4c-0.5,0.3-1,0.6-1.5,0.8c-0.3,0.1-0.5,0.2-0.8,0.3c-0.1,0-0.2,0.1-0.3,0.1c-0.4,0.2-0.6,0.1-0.6-0.4
				C9.4,65,9.5,65,9.9,64.6c0.2-0.2,0.5-0.5,0.7-0.7C10.6,63.8,10.5,63.7,10.4,63.8L10.4,63.8z"/>
		</g>
	</g>
</g>
<g>
	<g>
		<g>
			<path class="st0" d="M21.5,67.2c-0.5,0.2-0.7,0.6-1,1c-0.1,0.2-0.3,0.3-0.4,0.4c-0.8,0.1-1.1-0.2-1.1-0.8c0-0.4,0.2-0.8,0.4-1.1
				c0.4-0.8,0.7-1.5,0.3-2.3c-0.6-1.1-1.8-1.8-1.7-3.2c0-0.5,0.4-1.4,1.1-1.1c0.3,0.1,0.6,0.6,0.8,0.9c0.2,0.2,0.3,0.5,0.5,0.8
				c0.1,0.2,0.2,0.4,0.2,0.6c0.2,0.4,0,0.8-0.5,1.1c-0.1,0-0.1,0.2,0,0.2c0.7,0.1,0.8-0.6,0.7-1.1c-0.2-0.9-0.7-1.8-1.4-2.3
				c-0.4-0.4-0.9-0.4-1.3,0c-0.5,0.6-0.4,1.5-0.1,2.2c0.4,0.9,1.4,1.5,1.7,2.4c0.3,1-0.6,1.8-0.8,2.8c-0.1,0.5,0.1,1.2,0.7,1.3
				c0.9,0.1,1.3-1.2,2.1-1.5C21.7,67.3,21.6,67.2,21.5,67.2L21.5,67.2z"/>
		</g>
	</g>
</g>
<g>
	<g>
		<g>
			<path class="st0" d="M20.7,58.4c0.9-0.5,1.8,0.2,2.3,1c0.3,0.4,0.6,1.2-0.1,1.4c-0.5,0.1-1-0.2-1.3-0.4c-0.1-0.1-0.2,0.1-0.1,0.2
				c0.5,0.3,1.1,0.7,1.6,0.4c0.4-0.2,0.6-0.6,0.4-1c-0.4-1.1-1.7-2.4-2.9-1.7C20.5,58.3,20.6,58.5,20.7,58.4L20.7,58.4z"/>
		</g>
	</g>
</g>
<g>
	<g>
		<g>
			<path class="st0" d="M44.4,57.4c0.2,0.2,0.5,0.5,0.6,0.8c0.4,1.3-1,0.7-1.3,0.5c-0.5-0.2-1-0.4-1.5-0.5c-0.5-0.1-1.4-0.5-1.9-0.1
				c-0.3,0.2-0.3,0.5,0,0.8c0.3,0.3,0.7,0.6,1,0.9c0.2,0.2,0.4,0.3,0.6,0.5c0.1,0.1,0.2,0.1,0.2,0.2c0.4,0.4,0.3,0.8-0.3,1.2
				c-0.1,0-0.2,0.1,0,0.2c0.6,0.2,1-0.4,0.8-0.9c-0.2-0.5-0.7-0.8-1-1.2c-0.2-0.2-0.6-0.4-0.8-0.7c-0.1-0.1-0.1-0.1-0.2-0.2
				c0.1-0.2,0.2-0.5,0.3-0.7c0.1-0.1,0.5,0.1,0.7,0.1c0.7,0.2,1.3,0.4,2,0.6c0.4,0.1,0.9,0.5,1.3,0.2c0.7-0.5,0.1-1.4-0.4-1.8
				C44.5,57.2,44.3,57.4,44.4,57.4L44.4,57.4z"/>
		</g>
	</g>
</g>
<g>
	<g>
		<g>
			<path class="st0" d="M52.9,65.3c-0.6-0.8-1.4-1.4-2.2-2c-0.6-0.4-1.4-1-2.2-0.8c-0.7,0.1-0.7,0.8-0.5,1.4
				c0.1,0.4,0.4,0.8,0.7,1.2c0.1,0.1,0.2,0.2,0.3,0.4c0.1,0.1,0.2,0.2,0.3,0.3c0.5,0.5,0.4,0.8-0.4,1c0-0.1-0.2,0-0.2,0.1
				c0.2,0.4,0.6,0.4,0.9,0.2c0.6-0.6-0.2-1.3-0.6-1.7c-0.3-0.4-1-1.1-1-1.7c0-1.1,0.6-1,1.1-0.8c0.3,0.1,0.7,0.3,1,0.5
				c1,0.6,1.9,1.3,2.6,2.2C52.9,65.5,53,65.4,52.9,65.3L52.9,65.3z"/>
		</g>
	</g>
</g>
<g>
	<g>
		<g>
			<path class="st0" d="M70.1,61.7c-0.4,0.4-2.1,2.9-0.6,2.9c0.7,0,1.2-1.1,1.6-1.6c0.3-0.3,0.6-1,0.9-1.2c0.9-0.5,0.4,0.2,0.2,0.4
				c-0.2,0.3-0.4,0.7-0.5,1c-0.1,0.1,0.1,0.2,0.2,0.1c0.3-0.6,0.6-1.2,1-1.7c0,0,0-0.1,0-0.1c-0.8-0.5-1.6,1-1.9,1.5
				c-0.2,0.3-0.4,0.5-0.6,0.8c-0.1,0.1-0.2,0.3-0.3,0.3c-0.2,0.1-0.8-0.1-0.8-0.3c-0.1-0.6,0.7-1.6,1.1-2
				C70.3,61.7,70.2,61.6,70.1,61.7L70.1,61.7z"/>
		</g>
	</g>
</g>
<g>
	<g>
		<g>
			<path class="st0" d="M85.6,59.6c-1-0.1-3.2,0.4-2.5,1.8c0.5,0.9,1.2,1.7,1.7,2.6c0.4,0.7,0.5,1.7-0.5,2c-0.5,0.1-1.1,0-1.6-0.2
				c-0.9-0.3-2.8-1-3.1,0.4c-0.2,0.6,0.3,1.2,0.8,1.6c0.2,0.1,0.4,0.3,0.5,0.4c0.1,0.1,0.2,0.1,0.2,0.2c0.3,0.2,0.3,0.4,0,0.7
				c0,0.3-0.2,0.4-0.4,0.4c-0.2,0-0.4,0-0.6-0.1c-0.3-0.1-0.7-0.2-1-0.4c-0.1-0.1-0.2,0.1-0.1,0.2c0.5,0.3,3,1,2.5-0.4
				c-0.3-0.9-2.5-1.5-1.8-2.7c0.6-1.2,2.2-0.3,3.1,0c1,0.4,2.6,0.1,2.4-1.3c-0.2-0.9-1-1.8-1.5-2.5c-0.4-0.6-1.1-1.5-0.2-2.1
				c0.6-0.3,1.2-0.4,1.9-0.4C85.7,59.8,85.7,59.6,85.6,59.6L85.6,59.6z"/>
		</g>
	</g>
</g>
<g>
	<g>
		<g>
			<path class="st0" d="M78.2,69.2c-0.5-0.7-1.7-0.6-1.7,0.4c0,0.6,0.6,1,0.9,1.5c0.2,0.2,0.8,0.8,0.8,1c0.1,1-1.2,0-1.5-0.2
				c-0.1-0.1-0.2,0.1-0.1,0.2c0.2,0.1,1.9,1.3,2,0.5c0.1-0.3-0.4-0.7-0.6-0.9c-0.2-0.3-0.5-0.6-0.7-0.9c-0.2-0.2-0.4-0.4-0.5-0.6
				c-0.1-0.1-0.1-0.3-0.1-0.5c-0.2-0.7,0.2-0.8,1.2-0.3C78.1,69.4,78.2,69.3,78.2,69.2L78.2,69.2z"/>
		</g>
	</g>
</g>
<g>
	<g>
		<g>
			<path class="st0" d="M74.1,64.3c0.5,0.2,1.1,0.4,1.5,0c0.3-0.3,0.3-0.8,0.2-1.2c-0.3-0.7-1-1.1-1.4-1.8c-0.2-0.4-0.4-0.8-0.5-1.3
				c0-0.1-0.3-0.7-0.2-0.8c0.3-0.1,0.6-0.2,0.9-0.3c0.1,0.2,0.3,0.3,0.4,0.5c0.1,0.1,0.2,0,0.2-0.1c-0.2-0.4-0.6-1-1.1-0.8
				c-0.5,0.1-0.5,0.7-0.4,1.1c0.2,0.8,0.5,1.7,1,2.3c0.2,0.3,0.6,0.5,0.8,0.9c0.1,0.1,0.2,0.3,0.3,0.5c0.1,0.3,0,0.5-0.3,0.7
				c-0.2,0.3-0.4,0.4-0.8,0.3c-0.1,0-0.3-0.1-0.4-0.2C74.1,64.1,74,64.2,74.1,64.3L74.1,64.3z"/>
		</g>
	</g>
</g>
<g>
	<g>
		<g>
			<path class="st0" d="M76.5,60.9c0.3,1,1.5,0.6,1.7-0.3c0.1-0.6-0.2-1.1-0.5-1.5c-0.3-0.3-0.6-0.6-0.8-0.8
				c-0.2-0.2-0.5-0.4-0.5-0.7c-0.2-0.3-0.1-0.5,0.3-0.7c0.2,0.1,0.4,0.2,0.6,0.4c0.1,0.1,0.2,0,0.1-0.1c-0.2-0.3-0.7-0.6-1-0.5
				c-0.3,0.1-0.3,0.5-0.2,0.8c0.2,0.5,0.7,0.9,1.1,1.3c0.3,0.3,0.6,0.6,0.8,1.1c0.1,0.3,0.2,0.7,0,1c-0.3,0.4-1,0.6-1.3,0
				C76.6,60.7,76.4,60.8,76.5,60.9L76.5,60.9z"/>
		</g>
	</g>
</g>
<g>
	<g>
		<g>
			<path class="st0" d="M11.2,87.2c0.5,0.9,1.2,1.7,2.1,2.2c0.2,0.1,0.4-0.2,0.2-0.3c-0.9-0.5-1.5-1.2-2-2.1
				C11.4,86.8,11.1,87,11.2,87.2L11.2,87.2z"/>
		</g>
	</g>
</g>
<g>
	<g>
		<g>
			<path class="st0" d="M12.2,87.6c0.1,0,0.2,0.1,0.3,0.1c0.1,0,0.2,0,0.2-0.1c0-0.1,0-0.2-0.1-0.2c-0.1,0-0.2-0.1-0.3-0.1
				c-0.1,0-0.2,0-0.2,0.1C12.1,87.5,12.1,87.6,12.2,87.6L12.2,87.6z"/>
		</g>
	</g>
</g>
<g>
	<g>
		<g>
			<path class="st0" d="M39.7,88.1c0.7,0.9,1.9,1.2,2.9,0.9c0.2-0.1,0.1-0.4-0.1-0.3c-1,0.3-2,0-2.6-0.8
				C39.8,87.6,39.6,87.9,39.7,88.1L39.7,88.1z"/>
		</g>
	</g>
</g>
<g>
	<g>
		<g>
			<path class="st0" d="M41.1,88.3c0.2,0,0.4,0,0.6,0c0.2,0,0.2-0.4,0-0.4c-0.2,0-0.4,0-0.6,0C40.9,87.9,40.9,88.3,41.1,88.3
				L41.1,88.3z"/>
		</g>
	</g>
</g>
<g>
	<g>
		<g>
			<path class="st0" d="M68.2,87.2c0.1,1.1,0.6,2.2,1.4,3c0.2,0.2,0.4-0.1,0.3-0.3c-0.8-0.7-1.2-1.7-1.3-2.7
				C68.5,87,68.2,87,68.2,87.2L68.2,87.2z"/>
		</g>
	</g>
</g>
<g>
	<g>
		<g>
			<path class="st0" d="M69.1,88.2c0.2,0.3,0.5,0.7,0.7,1c0.1,0.2,0.4,0,0.3-0.2c-0.2-0.3-0.5-0.7-0.7-1C69.3,87.8,69,88,69.1,88.2
				L69.1,88.2z"/>
		</g>
	</g>
</g>
<g>
	<g>
		<g>
			<path class="st0" d="M86.6,56.7c0-0.3,0-0.6,0.1-0.9c-0.1,0-0.1,0-0.2,0c0,0.3,0.2,0.6,0.5,0.7c0.1,0.1,0.2-0.1,0.1-0.2
				c-0.2-0.1-0.4-0.3-0.4-0.6c0-0.1-0.1-0.1-0.2,0c-0.1,0.3-0.2,0.7-0.1,1C86.4,56.9,86.6,56.8,86.6,56.7L86.6,56.7z"/>
		</g>
	</g>
</g>
<g>
	<g>
		<g>
			<path class="st0" d="M88.8,56.8c0.3,0,0.6,0,0.9-0.1c0,0-0.1-0.1-0.1-0.1c-0.1,0.2-0.2,0.4-0.4,0.5c-0.1,0.1,0,0.2,0.1,0.1
				c0.2-0.2,0.3-0.4,0.4-0.6c0-0.1,0-0.2-0.1-0.1c-0.3,0.1-0.5,0.1-0.8,0.1C88.7,56.6,88.7,56.8,88.8,56.8L88.8,56.8z"/>
		</g>
	</g>
</g>
<g>
	<g>
		<g>
			<path class="st0" d="M89.2,59.4c0.2,0.2,0.4,0.4,0.6,0.7c0,0,0.1-0.1,0.1-0.1c-0.2-0.2-0.5-0.3-0.8-0.2c-0.1,0-0.1,0.2,0,0.2
				c0.2,0,0.5,0,0.6,0.2c0.1,0.1,0.2,0,0.1-0.1c-0.2-0.2-0.4-0.4-0.6-0.7C89.2,59.2,89.1,59.3,89.2,59.4L89.2,59.4z"/>
		</g>
	</g>
</g>
<g>
	<g>
		<g>
			<path class="st0" d="M86.4,59.9c0,0.2,0,0.5,0.1,0.7c0,0.1,0.1,0.1,0.1,0.1c0.2-0.1,0.4-0.3,0.5-0.4c0.1-0.1-0.1-0.2-0.2-0.1
				c-0.1,0.2-0.3,0.3-0.4,0.4c0,0,0.1,0.1,0.1,0.1c0-0.2,0-0.5-0.1-0.7C86.6,59.8,86.4,59.8,86.4,59.9L86.4,59.9z"/>
		</g>
	</g>
</g>
<g>
	<g>
		<g>
			<path class="st0" d="M85.2,57.6c-0.2,0.1-0.4,0.1-0.6,0.2c-0.1,0-0.1,0.1-0.1,0.1c0.1,0.2,0.3,0.4,0.5,0.5
				c0.1,0.1,0.2-0.1,0.1-0.2c-0.2-0.1-0.3-0.3-0.4-0.5c0,0,0,0.1-0.1,0.1c0.2-0.1,0.4-0.1,0.6-0.2C85.4,57.8,85.3,57.6,85.2,57.6
				L85.2,57.6z"/>
		</g>
	</g>
</g>
<g>
	<g>
		<g>
			<path class="st0" d="M69.4,59c0.1-0.1,0.2-0.2,0.3-0.4c-0.1,0-0.1,0-0.2,0c0,0.2,0.1,0.3,0.2,0.5c0.1,0.1,0.2,0,0.2-0.1
				c-0.1-0.1-0.1-0.2-0.1-0.4c0-0.1-0.1-0.1-0.2,0c-0.1,0.1-0.2,0.2-0.3,0.4C69.2,59,69.3,59.1,69.4,59L69.4,59z"/>
		</g>
	</g>
</g>
<g>
	<g>
		<g>
			<path class="st0" d="M70.1,59.6c0.1,0,0.2,0.1,0.4,0.1c0,0,0-0.1,0-0.1c-0.1,0.1-0.2,0.2-0.2,0.2c-0.1,0.1,0,0.2,0.1,0.1
				c0.1-0.1,0.2-0.2,0.2-0.2c0.1,0,0-0.1,0-0.1c-0.1,0-0.2-0.1-0.4-0.1C70.1,59.4,70,59.5,70.1,59.6L70.1,59.6z"/>
		</g>
	</g>
</g>
<g>
	<g>
		<g>
			<path class="st0" d="M69.6,60.7c0.1,0.1,0.2,0.1,0.3,0.2c0.1,0,0.1,0,0.1-0.1c0-0.1,0-0.2,0-0.3c0-0.1-0.1-0.2-0.2,0
				c0,0.1-0.1,0.2-0.1,0.3c0,0,0.1-0.1,0.1-0.1c-0.1-0.1-0.2-0.1-0.3-0.2C69.6,60.4,69.5,60.6,69.6,60.7L69.6,60.7z"/>
		</g>
	</g>
</g>
<g>
	<g>
		<g>
			<path class="st0" d="M68.8,60.2c0,0.1,0,0.2-0.1,0.3c0,0.1,0,0.1,0.1,0.1c0.1,0,0.2-0.1,0.3-0.2c0-0.1-0.1-0.2-0.2,0
				c0,0.1-0.1,0.1-0.1,0.1c0,0,0.1,0.1,0.1,0.1c0-0.1,0-0.2,0.1-0.3C69,60.1,68.8,60.1,68.8,60.2L68.8,60.2z"/>
		</g>
	</g>
</g>
<g>
	<g>
		<g>
			<path class="st0" d="M68.8,59.6c-0.1-0.1-0.2-0.2-0.3-0.3c0,0.1,0,0.1-0.1,0.2c0.2,0,0.3,0,0.4,0.1c0.1,0,0.2-0.1,0-0.2
				c-0.2-0.1-0.3-0.1-0.5-0.1c-0.1,0-0.1,0.1-0.1,0.2c0.1,0.1,0.2,0.2,0.3,0.3C68.8,59.9,68.9,59.7,68.8,59.6L68.8,59.6z"/>
		</g>
	</g>
</g>
<g>
	<g>
		<g>
			<path class="st0" d="M43.1,54.5c0.1-0.1,0.2-0.2,0.2-0.4c-0.1,0-0.1,0-0.2,0c0,0.1,0.1,0.2,0.1,0.3c0,0.1,0.2,0,0.2-0.1
				c0-0.1-0.1-0.2-0.1-0.3c0-0.1-0.1-0.1-0.2,0c-0.1,0.1-0.2,0.2-0.2,0.4C42.9,54.5,43.1,54.6,43.1,54.5L43.1,54.5z"/>
		</g>
	</g>
</g>
<g>
	<g>
		<g>
			<path class="st0" d="M42.5,54.9c-0.1-0.1-0.1-0.2-0.2-0.3c0,0,0,0.1-0.1,0.1c0.1,0,0.3,0,0.4,0c0.1,0,0.2-0.1,0-0.2
				c-0.2-0.1-0.3-0.1-0.5,0c0,0-0.1,0.1-0.1,0.1c0.1,0.1,0.1,0.2,0.2,0.3S42.6,55,42.5,54.9L42.5,54.9z"/>
		</g>
	</g>
</g>
<g>
	<g>
		<g>
			<path class="st0" d="M42.6,55.6c-0.1,0.1-0.1,0.2-0.1,0.3c0,0.1,0.1,0.1,0.1,0.1c0.1-0.1,0.2-0.1,0.4-0.2c0.1,0,0-0.2-0.1-0.2
				c-0.1,0.1-0.2,0.1-0.4,0.2c0,0,0.1,0.1,0.1,0.1c0-0.1,0-0.2,0-0.2C42.8,55.6,42.6,55.5,42.6,55.6L42.6,55.6z"/>
		</g>
	</g>
</g>
<g>
	<g>
		<g>
			<path class="st0" d="M43.6,55.8c0,0.1,0.1,0.2,0.1,0.2c0,0,0.1,0,0.1,0c0.1-0.1,0.2-0.2,0.1-0.4c-0.1-0.1-0.2,0-0.2,0.1
				c0,0,0,0.1,0,0.1c0,0,0.1,0,0.1,0c0,0-0.1,0-0.1-0.1C43.8,55.7,43.6,55.7,43.6,55.8L43.6,55.8z"/>
		</g>
	</g>
</g>
<g>
	<g>
		<g>
			<path class="st0" d="M44,54.9c0.1,0,0.3,0,0.4,0c0,0-0.1-0.1-0.1-0.1c0,0.1-0.1,0.1-0.1,0.2c-0.1,0.1,0.1,0.2,0.2,0.1
				c0-0.1,0.1-0.1,0.1-0.2c0-0.1,0-0.1-0.1-0.1c-0.1,0-0.3,0-0.4,0C43.9,54.7,43.9,54.9,44,54.9L44,54.9z"/>
		</g>
	</g>
</g>
<g>
	<g>
		<g>
			<path class="st0" d="M53.7,66c0-0.3,0-0.6,0.1-0.9c-0.1,0-0.1,0-0.2,0c0.1,0.2,0.3,0.4,0.4,0.6c0.1,0.1,0.2,0,0.2-0.1
				c-0.1-0.2-0.3-0.4-0.4-0.6c0-0.1-0.1-0.1-0.2,0c-0.1,0.3-0.1,0.6-0.1,1C53.5,66.1,53.7,66.1,53.7,66L53.7,66z"/>
		</g>
	</g>
</g>
<g>
	<g>
		<g>
			<path class="st0" d="M55.8,66.2c0.2-0.1,0.5-0.2,0.7-0.2c0,0-0.1-0.1-0.1-0.1c-0.1,0.2-0.2,0.4-0.2,0.6c0,0.1,0.1,0.2,0.2,0
				c0.1-0.2,0.2-0.4,0.2-0.6c0-0.1-0.1-0.1-0.1-0.1c-0.3,0-0.5,0.1-0.8,0.2C55.6,66.1,55.7,66.2,55.8,66.2L55.8,66.2z"/>
		</g>
	</g>
</g>
<g>
	<g>
		<g>
			<path class="st0" d="M52.1,67.1c-0.2,0.1-0.3,0.2-0.5,0.2c-0.1,0-0.1,0.1,0,0.2c0.2,0.1,0.5,0.3,0.7,0.4c0.1,0,0.2-0.1,0.1-0.2
				c-0.2-0.1-0.5-0.2-0.7-0.4c0,0.1,0,0.1,0,0.2c0.2,0,0.4-0.1,0.5-0.2C52.3,67.2,52.2,67,52.1,67.1L52.1,67.1z"/>
		</g>
	</g>
</g>
<g>
	<g>
		<g>
			<path class="st0" d="M53.3,69.2c0,0.2,0.1,0.4,0.1,0.6c0,0.1,0.1,0.1,0.1,0.1c0.2-0.1,0.3-0.3,0.4-0.5c0-0.1-0.1-0.2-0.2-0.1
				c-0.1,0.2-0.2,0.3-0.3,0.4c0,0,0.1,0,0.1,0.1c0-0.2-0.1-0.4-0.1-0.6C53.4,69.1,53.2,69.1,53.3,69.2L53.3,69.2z"/>
		</g>
	</g>
</g>
<g>
	<g>
		<g>
			<path class="st0" d="M55.9,69.1c0.2,0.1,0.4,0.2,0.6,0.1c0,0,0.1-0.1,0.1-0.1c-0.1-0.2-0.1-0.3-0.2-0.5c0-0.1-0.2-0.1-0.2,0
				c0.1,0.2,0.1,0.3,0.2,0.5c0,0,0-0.1,0.1-0.1c-0.2,0-0.3,0-0.5-0.1C55.9,68.8,55.8,69,55.9,69.1L55.9,69.1z"/>
		</g>
	</g>
</g>
<g>
	<g>
		<g>
			<path class="st0" d="M75.3,82.7c0.2-0.1,0.6,0,0.4,0.2c0,0-0.1,0-0.1,0c-0.1,0.2-0.1,0-0.2,0.2c0,0.1,0,0.1,0.1,0.1
				c0.2,0,0.5,0,0.4,0.2c-0.1,0.1-0.4,0.2-0.5,0.2c0,0-0.1,0.1,0,0.1c0.1,0.2,0.1,0.1,0.3,0.2c0.1,0,0.2,0,0.2,0.1
				c0.1,0.1,0.1,0.1-0.1,0.1c-0.1,0.1-0.2,0.1-0.2,0.2c0,0,0,0.1,0,0.1c0-0.1,0.1,0.1,0.1,0.1c0-0.1,0.7,0.2,0,0.3
				c-0.1,0-0.1,0.1,0,0.2c0.5,0.2,0.4,0.2-0.1,0.4c-0.1,0-0.1,0.1,0,0.2c0.1,0,0.7,0.2,0.7,0.3c-0.1,0.1,0.1,0.2,0.1,0.1
				c0.1-0.1,0.1-0.3,0-0.4c-0.3-0.3-0.8,0,0-0.3c0.1,0,0.1-0.1,0-0.2c-0.2-0.1-0.4-0.2-0.6-0.3c0,0.1,0,0.1,0,0.2
				c0.2,0,0.6-0.1,0.5-0.4c0-0.1-0.1-0.1-0.1-0.2c0,0-0.2,0-0.2,0c0-0.1,0.1,0,0.2-0.1c0.1-0.1,0.3-0.1,0.1-0.3
				C76.2,84,76.1,84,76,84c-0.1,0-0.2,0-0.3-0.1c0,0,0.5-0.3,0.6-0.3c0.1,0,0.1-0.1,0-0.2c0,0-0.5-0.3-0.5-0.2c0,0,0.2,0,0.2,0
				c0.1-0.1,0.2-0.1,0.2-0.2c0.1-0.5-0.6-0.4-0.9-0.3C75.2,82.6,75.2,82.8,75.3,82.7L75.3,82.7z"/>
		</g>
	</g>
</g>
<g>
	<g>
		<g>
			<path class="st0" d="M47.9,86.4c0.2,0.1,0.7,0,0.7-0.3c0-0.5-1-0.1-0.1-0.5c0.1,0,0.1-0.1,0-0.2c-0.6-0.3-0.7-0.4-0.1-0.5
				c0,0,0.1-0.1,0.1-0.1c-0.1-0.3-0.6-0.5-0.1-0.6c0.1,0,0.1-0.1,0-0.2c-0.2,0-0.3-0.3-0.1-0.5c0,0,0.1,0,0.2,0
				c0.1-0.1,0.2,0,0.2-0.2c0.1-0.3-0.2-0.2-0.4-0.4c-0.4-0.4,0.2-0.2,0.3-0.5c0.1-0.3-0.2-0.4-0.4-0.4c-0.1,0-0.2,0.2,0,0.2
				c0.4,0.1-0.4,0.3-0.2,0.1c-0.1,0.1-0.1,0.1-0.2,0.2c0,0.1,0,0.2,0,0.3c0.1,0.1,0.4,0.2,0.4,0.2c0.1,0.2-0.4,0.2-0.4,0.5
				c-0.1,0.4,0.3,0.5,0.6,0.6c0-0.1,0-0.1,0-0.2c-0.2,0.1-0.7,0.1-0.6,0.4s0.9,0.2,0,0.4c-0.1,0-0.1,0.1,0,0.1
				c0.2,0.2,0.4,0.4,0.7,0.5c0-0.1,0-0.1,0-0.2c-0.2,0.1-0.4,0.1-0.6,0.1c0,0-0.1,0-0.1,0.1c0,0.1,0,0.2,0,0.3c0,0,0.1,0.1,0.1,0.1
				c0,0,0,0,0,0c0.2,0,0.2,0.1,0,0.2C47.9,86.2,47.8,86.4,47.9,86.4L47.9,86.4z"/>
		</g>
	</g>
</g>
<g>
	<g>
		<g>
			<path class="st0" d="M17.9,85.9c-0.1,0.2-0.1,0.4-0.2,0.6c0,0.1,0.1,0.2,0.2,0c0.1-0.2,0.1-0.4,0.2-0.6
				C18.1,85.8,17.9,85.8,17.9,85.9L17.9,85.9z"/>
		</g>
	</g>
</g>
<g>
	<g>
		<g>
			<path class="st0" d="M17.9,85.9c0,0.1,0,0.2-0.1,0.3c-0.1,0.1,0.1,0.2,0.2,0.1c0.1-0.1,0.2-0.2,0.2-0.4c-0.1,0-0.1-0.1-0.2-0.1
				C18,85.9,18,86,17.9,86.1c-0.1,0.1,0.1,0.2,0.2,0.1c0-0.1,0.1-0.2,0.1-0.2c0.1-0.1-0.1-0.2-0.2-0.1c0,0.1-0.1,0.2-0.1,0.2
				c0.1,0,0.1,0.1,0.2,0.1c0.1-0.1,0.1-0.2,0.2-0.3c0.1-0.1-0.1-0.2-0.2-0.1c-0.1,0.1-0.2,0.2-0.2,0.4c0.1,0,0.1,0.1,0.2,0.1
				c0.1-0.1,0.1-0.3,0.1-0.4C18.1,85.8,17.9,85.8,17.9,85.9L17.9,85.9z"/>
		</g>
	</g>
</g>
<g>
	<g>
		<g>
			<path class="st0" d="M19.4,85.6c-0.1-0.2,1-0.2,0.6-0.7c-0.2-0.2-0.3,0-0.2-0.3c0-0.1,0.2-0.1,0.2-0.2c0,0,0-0.1,0-0.1
				c0,0-0.1-0.1-0.1-0.1c-0.3-0.3-0.3-0.5-0.1-0.5c0,0,0.2-0.2,0.1-0.1c0,0,0-0.1,0-0.1c-0.1-0.2-0.1-0.4-0.2-0.6
				c0.1,0,0.1-0.1,0.1-0.2c-0.3-0.3-0.4-0.7-0.4-1.1c0-0.1-0.2-0.1-0.2,0c0,0.5,0.1,0.9,0.4,1.2c0-0.1,0-0.1,0.1-0.2
				c-0.2,0-0.4,0.2-0.4,0.5c0,0.1,0.2,0.3,0.3,0.4c0,0.1-0.1,0-0.2,0.1c-0.2,0.2-0.1,0.2,0,0.4c0,0.1,0.1,0.1,0.2,0.2
				c0.2,0.6,0,0.1-0.1,0.2c-0.1,0.2-0.1,0-0.2,0.2c0,0,0,0.1,0,0.1c0.1,0,0.3,0.2,0.3,0.2c0.2,0.2-0.2,0.2-0.4,0.3
				c-0.2,0.1-0.2,0.2-0.1,0.4C19.3,85.7,19.4,85.7,19.4,85.6L19.4,85.6z"/>
		</g>
	</g>
</g>
<g>
	<g>
		<g>
			<path class="st0" d="M11,52.7c-0.2-0.1-0.5-0.1-0.6,0.1c0,0,0,0.1,0,0.1c0.3,0.1,0.6,0.3,1,0.4c0.1,0,0.2-0.1,0.1-0.2
				c-0.3-0.1-0.6-0.3-1-0.4c0,0,0,0.1,0,0.1c0.1-0.1,0.3-0.1,0.4-0.1C11,52.9,11.1,52.7,11,52.7L11,52.7z"/>
		</g>
	</g>
</g>
<g>
	<g>
		<g>
			<path class="st0" d="M12.6,51.4c0-0.2,0-0.5,0.1-0.7c0,0-0.1,0-0.1,0c0.1,0.1,0.3,0.3,0.4,0.4c0.1,0.1,0.2,0,0.1-0.1
				c-0.1-0.1-0.3-0.3-0.4-0.4c0-0.1-0.1,0-0.1,0c-0.1,0.3-0.1,0.5-0.1,0.8C12.4,51.6,12.6,51.5,12.6,51.4L12.6,51.4z"/>
		</g>
	</g>
</g>
<g>
	<g>
		<g>
			<path class="st0" d="M14.6,51.8c0.2-0.1,0.5-0.1,0.7-0.2c0,0-0.1-0.1-0.1-0.1c-0.1,0.1-0.1,0.3-0.2,0.4C15,52,15.1,52.1,15.2,52
				c0.1-0.1,0.2-0.3,0.3-0.4c0-0.1-0.1-0.1-0.1-0.1c-0.2,0.1-0.5,0.1-0.7,0.2C14.5,51.7,14.5,51.8,14.6,51.8L14.6,51.8z"/>
		</g>
	</g>
</g>
<g>
	<g>
		<g>
			<path class="st0" d="M12.2,54.9c0,0.3,0,0.5,0.1,0.8c0,0.1,0.1,0.1,0.1,0c0.1-0.1,0.2-0.2,0.4-0.4c0.1-0.1,0-0.2-0.1-0.1
				c-0.1,0.1-0.2,0.2-0.4,0.4c0,0,0.1,0,0.1,0c-0.1-0.3-0.1-0.5,0-0.8C12.4,54.8,12.2,54.8,12.2,54.9L12.2,54.9z"/>
		</g>
	</g>
</g>
<g>
	<g>
		<g>
			<path class="st0" d="M14.7,54.7c0.2,0,0.4,0.1,0.6,0.1c0.1,0,0.1,0,0.1-0.1c0-0.2,0-0.4-0.1-0.6c-0.1-0.1-0.2,0-0.2,0.1
				c0.1,0.2,0.1,0.3,0.1,0.5c0,0,0.1-0.1,0.1-0.1c-0.2,0-0.4-0.1-0.6-0.1C14.6,54.5,14.5,54.7,14.7,54.7L14.7,54.7z"/>
		</g>
	</g>
</g>
<g>
	<g>
		<g>
			<path class="st0" d="M22.2,65.7c-0.1,0-0.2-0.1-0.3-0.1c0,0.1,0,0.1,0,0.2c0.1,0,0.3,0,0.4,0c0.1,0,0.1-0.2,0-0.2
				c-0.1,0-0.3,0-0.4,0c-0.1,0-0.1,0.1,0,0.2c0.1,0.1,0.2,0.1,0.3,0.1C22.3,65.9,22.3,65.7,22.2,65.7L22.2,65.7z"/>
		</g>
	</g>
</g>
<g>
	<g>
		<g>
			<path class="st0" d="M22.9,65.2c0-0.1,0-0.2,0.1-0.3c-0.1,0-0.1,0-0.2,0C22.8,65,22.8,65.1,22.9,65.2c-0.1,0.1,0.1,0.1,0.1,0
				c0-0.1,0-0.2,0-0.3c0-0.1-0.2-0.1-0.2,0c0,0.1,0,0.2-0.1,0.3C22.7,65.3,22.8,65.3,22.9,65.2L22.9,65.2z"/>
		</g>
	</g>
</g>
<g>
	<g>
		<g>
			<path class="st0" d="M22.1,66.5c0,0.1,0,0.2,0,0.2c0,0.1,0.1,0.1,0.1,0.1c0.1-0.1,0.2-0.1,0.2-0.2c0.1-0.1,0-0.2-0.1-0.2
				c-0.1,0.1-0.2,0.1-0.2,0.2c0,0,0.1,0.1,0.1,0.1c0-0.1,0-0.2,0-0.2C22.2,66.4,22.1,66.4,22.1,66.5L22.1,66.5z"/>
		</g>
	</g>
</g>
<g>
	<g>
		<g>
			<path class="st0" d="M23.2,66.9c0,0.2,0.2,0.3,0.3,0.1c0.1-0.1,0-0.3-0.1-0.4c-0.1-0.1-0.2,0.1-0.1,0.2c0.1,0,0.1,0.1,0,0.2
				c0,0,0.1,0,0.1,0c0,0,0,0,0,0C23.4,66.8,23.2,66.8,23.2,66.9L23.2,66.9z"/>
		</g>
	</g>
</g>
<g>
	<g>
		<g>
			<path class="st0" d="M23.6,65.8c0.1,0,0.3,0.1,0.4,0.1c0-0.1,0-0.1,0-0.2c-0.1,0-0.2,0.1-0.3,0.1c-0.1,0,0,0.2,0.1,0.2
				c0.1,0,0.2-0.1,0.3-0.1c0.1,0,0.1-0.1,0-0.2c-0.1,0-0.3-0.1-0.4-0.1C23.6,65.6,23.5,65.8,23.6,65.8L23.6,65.8z"/>
		</g>
	</g>
</g>
<g>
	<g>
		<g>
			<path class="st0" d="M44.1,64.2C44.1,64.2,44.1,64.3,44.1,64.2c0,0.2,0.2,0.1,0.2,0c0,0,0,0,0-0.1C44.3,64.1,44.1,64.1,44.1,64.2
				L44.1,64.2z"/>
		</g>
	</g>
</g>
<g>
	<g>
		<g>
			<path class="st0" d="M43.8,63.5c0,0,0.1,0.1,0.1,0.1c0.1,0.1,0.2-0.1,0.1-0.1c0,0-0.1-0.1-0.1-0.1C43.9,63.3,43.7,63.4,43.8,63.5
				L43.8,63.5z"/>
		</g>
	</g>
</g>
<g>
	<g>
		<g>
			<path class="st0" d="M44.7,63.4c0,0,0.1-0.1,0.1-0.1c0.1-0.1,0-0.2-0.1-0.1c0,0-0.1,0.1-0.1,0.1C44.4,63.3,44.6,63.4,44.7,63.4
				L44.7,63.4z"/>
		</g>
	</g>
</g>
<g>
	<g>
		<g>
			<path class="st0" d="M45.1,63.7c0.1,0,0.1,0,0.2-0.1c0.1,0,0.1-0.2,0-0.2c-0.1,0-0.1,0-0.2,0.1C44.9,63.6,45,63.8,45.1,63.7
				L45.1,63.7z"/>
		</g>
	</g>
</g>
<g>
	<g>
		<g>
			<path class="st0" d="M44.8,64.4C44.8,64.5,44.9,64.5,44.8,64.4c0.1,0.1,0.3,0,0.2-0.1c0,0,0,0-0.1-0.1
				C44.9,64.2,44.7,64.4,44.8,64.4L44.8,64.4z"/>
		</g>
	</g>
</g>
<g>
	<g>
		<g>
			<path class="st0" d="M19.5,79.8c0.1-0.3,0.2-0.5,0.4-0.7c0.2-0.2,0.5-0.5,0.7-0.5c0.1,0,0.1,0,0.1,0.2c0.1,0.1,0.1,0.1,0,0.2
				c0,0.1-0.1,0.1-0.1,0.2c-0.1,0.1-0.2,0.2-0.3,0.2c-0.3,0.1-0.5,0.2-0.8,0.2C19.3,79.5,19.3,79.7,19.5,79.8c0.4,0,0.8-0.1,1.1-0.4
				c0.2-0.2,0.6-0.6,0.4-0.9c-0.2-0.3-0.7-0.1-0.9,0.1c-0.4,0.3-0.6,0.7-0.8,1.1C19.3,79.8,19.4,79.9,19.5,79.8L19.5,79.8z"/>
		</g>
	</g>
</g>
<g>
	<g>
		<g>
			<path class="st0" d="M19,79.5c-0.1-0.2-0.2-0.4-0.2-0.7c0-0.1,0-0.2,0-0.3c0-0.1,0-0.4,0.1-0.3s0.1,0.4,0.1,0.6
				c0,0.2,0,0.5,0,0.7C18.8,79.5,19,79.5,19,79.5c0.1-0.3,0.3-1.9-0.3-1.6c-0.2,0.1-0.2,0.5-0.2,0.7c0,0.4,0.1,0.7,0.3,1
				C18.9,79.7,19,79.6,19,79.5L19,79.5z"/>
		</g>
	</g>
</g>
<g>
	<g>
		<g>
			<path class="st0" d="M48.5,79.9c0.1-0.4,0.5-0.9,0.9-1c0.3-0.1,0.5,0.2,0.3,0.4c-0.1,0.1-0.2,0.1-0.2,0.2
				c-0.2,0.1-0.4,0.1-0.6,0.2c-0.1,0.1,0,0.2,0.1,0.2c0.3-0.2,0.7-0.2,0.9-0.5c0.1-0.2,0.1-0.5-0.1-0.7c-0.3-0.2-0.6,0.1-0.8,0.2
				c-0.3,0.2-0.5,0.5-0.6,0.9C48.3,80,48.5,80,48.5,79.9L48.5,79.9z"/>
		</g>
	</g>
</g>
<g>
	<g>
		<g>
			<path class="st0" d="M47.7,80c-0.3-0.1-0.5-0.4-0.3-0.7c0,0-0.1,0-0.1,0C47.5,79.5,47.7,79.7,47.7,80c0.1,0.1,0.3,0,0.2-0.1
				c-0.1-0.3-0.3-0.6-0.6-0.7c0,0-0.1,0-0.1,0c-0.2,0.4,0,0.8,0.4,0.9C47.7,80.2,47.8,80,47.7,80L47.7,80z"/>
		</g>
	</g>
</g>
<g>
	<g>
		<g>
			<path class="st0" d="M76.6,80c0.2-0.3,0.6-0.8,1-0.7c0.4,0.2,0,0.4-0.2,0.5c-0.2,0-0.4,0-0.7,0C76.6,79.8,76.5,80,76.6,80
				c0.4,0,0.7,0,1-0.1c0.2-0.1,0.4-0.3,0.3-0.6s-0.5-0.2-0.7-0.2c-0.4,0.1-0.6,0.4-0.8,0.7C76.4,80,76.6,80.1,76.6,80L76.6,80z"/>
		</g>
	</g>
</g>
<g>
	<g>
		<g>
			<path class="st0" d="M76.2,79.7c-0.1-0.2-0.3-1.3,0.2-1.1c0,0,0-0.1-0.1-0.1c-0.1,0.2-0.1,0.3-0.2,0.5c0,0.1,0.1,0.2,0.2,0
				c0.1-0.2,0.1-0.3,0.2-0.5c0,0,0-0.1-0.1-0.1c-0.3-0.1-0.5,0.1-0.6,0.3c-0.1,0.3,0,0.7,0.1,1.1C76.1,79.9,76.3,79.8,76.2,79.7
				L76.2,79.7z"/>
		</g>
	</g>
</g>
<g>
	<g>
		<g>
			<path class="st0" d="M75.7,82c0.1-0.1,0.1-0.2,0.2-0.3c0.1-0.1,0-0.2-0.1-0.1c-0.1,0.1-0.2,0.2-0.3,0.4c0,0,0,0.1,0.1,0.1
				C75.6,82.1,75.7,82.1,75.7,82L75.7,82z"/>
		</g>
	</g>
</g>
<g>
	<g>
		<g>
			<path class="st0" d="M53.9,80.1c0.3,0.4,0.4,0.9,0.2,1.5c0,0.1,0.1,0.2,0.2,0c0.1-0.6,0-1.1-0.3-1.6C54,80,53.8,80,53.9,80.1
				L53.9,80.1z"/>
		</g>
	</g>
</g>
<g>
	<g>
		<g>
			<path class="st0" d="M54.8,80.9c0.1,0.5,0,1.1-0.2,1.5c-0.1,0.1,0.1,0.2,0.2,0.1c0.3-0.5,0.4-1.1,0.3-1.7
				C54.9,80.8,54.7,80.8,54.8,80.9L54.8,80.9z"/>
		</g>
	</g>
</g>
<g>
	<g>
		<g>
			<path class="st0" d="M25.1,79.4c0.5,0.7,0.6,1.5,0.3,2.3c0,0.1,0.1,0.2,0.2,0c0.3-0.8,0.2-1.8-0.3-2.5
				C25.2,79.3,25.1,79.3,25.1,79.4L25.1,79.4z"/>
		</g>
	</g>
</g>
<g>
	<g>
		<g>
			<path class="st0" d="M26.1,80.2c0.1,0.6,0.1,1.2-0.1,1.8c0,0.1,0.1,0.2,0.2,0c0.2-0.6,0.2-1.3,0.1-1.9
				C26.3,80,26.1,80.1,26.1,80.2L26.1,80.2z"/>
		</g>
	</g>
</g>
<g>
	<g>
		<g>
			<path class="st0" d="M82.5,80.3c0.2,0.6,0.2,1.1-0.2,1.6c-0.1,0.1,0.1,0.2,0.2,0.1c0.4-0.5,0.4-1.2,0.2-1.8
				C82.6,80.1,82.4,80.2,82.5,80.3L82.5,80.3z"/>
		</g>
	</g>
</g>
<g>
	<g>
		<g>
			<path class="st0" d="M83.2,81.6c-0.1,0.5-0.3,0.8-0.6,1.2c-0.1,0.1,0,0.2,0.1,0.1c0.4-0.3,0.6-0.8,0.7-1.3
				C83.4,81.4,83.2,81.4,83.2,81.6L83.2,81.6z"/>
		</g>
	</g>
</g>
<g>
	<path class="st0" d="M103,45.9l0-0.8l-0.6-0.4l0.7-0.2l0.2-0.7l0.4,0.6l0.8,0l-0.4,0.6l0.2,0.7l-0.7-0.2L103,45.9z M102.7,44.7
		l0.5,0.3l0,0.6l0.5-0.3l0.5,0.2l-0.2-0.5l0.3-0.5l-0.6,0l-0.3-0.5l-0.2,0.5L102.7,44.7z"/>
</g>
<g>
	<path class="st0" d="M108.3,44.7l-0.1-0.5l-0.5-0.2l0.4-0.3l0-0.5l0.4,0.3l0.5-0.1l-0.2,0.5l0.3,0.4l-0.5,0L108.3,44.7z M108,44.1
		l0.3,0.1l0.1,0.3l0.2-0.2l0.3,0l-0.2-0.2l0.1-0.3l-0.3,0.1l-0.2-0.2l0,0.3L108,44.1z"/>
</g>
<g>
	<path class="st0" d="M108.4,41.2l-0.4-1.2l-1.2-0.3l1-0.8l-0.1-1.2l1,0.7l1.1-0.4l-0.3,1.2l0.8,1l-1.2,0L108.4,41.2z M107.2,39.7
		l1,0.3l0.3,1l0.6-0.9l1,0l-0.6-0.8l0.3-1l-0.9,0.4l-0.8-0.6l0.1,1L107.2,39.7z"/>
</g>
<g>
	<g>
		<g>
			<path class="st0" d="M105.1,77.4c-0.5-0.7-1,0.2-1.6-0.1c-0.2-0.1-0.3-0.4-0.5-0.4c-0.4,0-0.3,0.8-1,0.3
				c-0.1-0.1-0.2,0.1-0.1,0.2c0.2,0.1,0.4,0.2,0.6,0.1c0.3-0.1,0.4-0.4,0.7-0.2c0.2,0.1,0.3,0.4,0.6,0.4c0.3,0.1,0.9-0.4,1.1-0.1
				C105,77.5,105.1,77.5,105.1,77.4L105.1,77.4z"/>
		</g>
	</g>
</g>
<g>
	<g>
		<g>
			<path class="st0" d="M106,76.7c0.2,0,0.3,0,0.5,0.1c0,0,0.1,0,0.1,0.1c0.1,0,0.2,0.1,0.2,0c0.1,0,0.7-0.5,0.8-0.2
				c0,0.1,0.2,0.1,0.2,0c0-0.2-0.1-0.3-0.3-0.3c-0.1,0-0.2,0-0.3,0.1c-0.1,0-0.1,0.1-0.2,0.1c-0.4,0.2-0.3,0-0.5-0.1
				c-0.2-0.1-0.4-0.2-0.6,0c-0.1,0.1-0.1,0.3,0.1,0.3C106.1,76.9,106.1,76.7,106,76.7L106,76.7z"/>
		</g>
	</g>
</g>
<g>
	<g>
		<g>
			<path class="st0" d="M109,77c0.2-0.2,0.7,0.2,1,0c0.2-0.1,0.2-0.6,0.4-0.6c0.1,0,0.1-0.2,0-0.2c-0.3,0-0.3,0.3-0.5,0.5
				c-0.2,0.4-0.8-0.2-1.1,0.1C108.8,77,108.9,77.1,109,77L109,77z"/>
		</g>
	</g>
</g>
<g>
	<g>
		<g>
			<path class="st0" d="M121.2,73.1c0.1-0.2,0.2-0.5,0.4-0.6c0.2-0.1,0.4-0.1,0.5-0.2c0.3-0.1,0.5-0.3,0.7-0.6
				c0.1-0.1-0.1-0.2-0.1-0.1c-0.1,0.2-0.3,0.3-0.5,0.4c-0.2,0.1-0.4,0.1-0.6,0.2c-0.3,0.2-0.5,0.5-0.6,0.8
				C120.9,73.1,121.1,73.2,121.2,73.1L121.2,73.1z"/>
		</g>
	</g>
</g>
<g>
	<g>
		<g>
			<path class="st0" d="M122.9,71.2c0-0.2,0.6-0.2,0.7-0.3c0.1-0.1,0.2-0.3,0.2-0.5c0-0.1,0-0.2,0.1-0.3c0.1-0.2,0.3-0.3,0.5-0.3
				c0.2-0.1,0.3-0.2,0.4-0.4c0-0.1-0.2-0.2-0.2,0c0,0.1-0.3,0.2-0.4,0.3c0,0-0.1,0-0.1,0c-0.1,0-0.2,0.1-0.2,0.2
				c-0.1,0.2-0.1,0.4-0.2,0.6c-0.1,0.2-0.1,0.4-0.4,0.4c-0.1,0-0.2,0-0.3,0c-0.2,0.1-0.2,0.2-0.3,0.3
				C122.7,71.3,122.9,71.3,122.9,71.2L122.9,71.2z"/>
		</g>
	</g>
</g>
<g>
	<g>
		<g>
			<path class="st0" d="M100.8,51.4c3.1-1.7,6.4-2.8,9.9-3.2c0.1,0,0.1-0.2,0-0.2c-3.5,0.4-6.9,1.5-10,3.2
				C100.6,51.3,100.7,51.5,100.8,51.4L100.8,51.4z"/>
		</g>
	</g>
</g>
<g>
	<g>
		<g>
			<path class="st0" d="M103.5,49.5c1.6-0.5,3.1-1,4.7-1.4c0.1,0,0.1-0.2,0-0.2c-1.6,0.5-3.2,0.9-4.7,1.4
				C103.3,49.4,103.4,49.6,103.5,49.5L103.5,49.5z"/>
		</g>
	</g>
</g>
<g>
	<g>
		<g>
			<path class="st0" d="M117.8,64.5c1.1-0.6,2.2-1.2,3.3-1.7c0.1-0.1,0-0.2-0.1-0.2c-1.1,0.6-2.2,1.1-3.3,1.7
				C117.6,64.4,117.7,64.6,117.8,64.5L117.8,64.5z"/>
		</g>
	</g>
</g>
<g>
	<g>
		<g>
			<path class="st0" d="M118.2,65.1c0.2-0.1,0.3-0.2,0.5-0.2c0.1,0,0-0.2-0.1-0.2c-0.2,0.1-0.3,0.2-0.5,0.2
				C118,65,118.1,65.2,118.2,65.1L118.2,65.1z"/>
		</g>
	</g>
</g>
<g>
	<g>
		<g>
			<path class="st0" d="M105.8,68.3c-1.4,0.2-2.7,0.4-4.1,0.6c-0.1,0-0.1,0.2,0,0.2c1.4-0.2,2.8-0.3,4.2-0.6
				C105.9,68.5,105.9,68.3,105.8,68.3L105.8,68.3z"/>
		</g>
	</g>
</g>
<g>
	<g>
		<g>
			<path class="st0" d="M119.9,78.8c1.3-0.7,2.6-1.3,3.9-2c0.1-0.1,0-0.2-0.1-0.2c-1.3,0.7-2.6,1.3-3.9,2
				C119.7,78.7,119.8,78.9,119.9,78.8L119.9,78.8z"/>
		</g>
	</g>
</g>
<g>
	<g>
		<g>
			<path class="st0" d="M114.8,81.2c-1.1,0.6-2.3,1.1-3.5,1.6c-0.1,0-0.1,0.2,0,0.2c1.2-0.5,2.4-1,3.5-1.6
				C114.9,81.3,114.9,81.2,114.8,81.2L114.8,81.2z"/>
		</g>
	</g>
</g>
<g>
	<g>
		<g>
			<path class="st0" d="M99.4,74.3c0.1,0.2,0.2,0.3,0.3,0.5c-0.2,0.3-0.2,0.5,0.1,0.7c0.3,0.3,0.3,0.8,0.1,1.2
				c0,0.1,0.1,0.2,0.1,0.1c0.5-0.6,0.7,1.6,0.6,2.2c-0.1,0.4-0.3,0.7-0.5,1.1c-0.1,0.1,0.1,0.2,0.2,0.1c0.3-0.5,1-1.9,0.4-2.5
				c-0.2-0.2-0.5-0.1-0.4,0.2c0,0.1,0.1,0.1,0.1,0.1c0.6-0.5,0-1.8-0.5-1.2c0,0,0.1,0.1,0.1,0.1c0.2-0.4,0.4-1.4-0.2-1.6
				c-0.4-0.1-0.6,0.2-0.4,0.5c0,0,0.1,0.1,0.1,0c0.3-0.4,0.6-1,0.2-1.5c-0.2-0.2-0.4-0.3-0.5,0C99.2,74.4,99.4,74.5,99.4,74.3
				L99.4,74.3z"/>
		</g>
	</g>
</g>
<g>
	<g>
		<g>
			<path class="st0" d="M98.8,74.2c-0.6,0-1.1,0.2-1.5,0.6c-0.1,0,0,0.1,0,0.1c0.4,0.1,0.8,0.1,1.2-0.1c0.2-0.1,0.3-0.2,0.5-0.3
				c0.1-0.1,0.9-0.3,0.6-0.1c0,0.1-0.1,0.2-0.2,0.1c-0.2,0-0.3-0.1-0.5-0.2c-0.1,0-0.2,0-0.2,0.1c0.1,0.6,0,1.2,0,1.8
				c0,0.1,0.2,0.1,0.2,0c0.1-0.6,0.1-1.2,0-1.8c-0.1,0-0.1,0-0.2,0.1c0.4,0.3,0.8,0.4,1.2,0.2c0,0,0.1-0.1,0-0.1
				c-0.1-0.3-0.3-0.4-0.6-0.4c-0.2,0-0.4,0.2-0.6,0.3c-0.4,0.3-0.9,0.4-1.4,0.2c0,0,0,0.1,0,0.1c0.4-0.4,0.8-0.5,1.4-0.5
				C99,74.4,99,74.2,98.8,74.2L98.8,74.2z"/>
		</g>
	</g>
</g>
<g>
	<g>
		<g>
			<path class="st0" d="M99.1,76.3c0.1,0.2,0.1,0.4-0.1,0.4c-0.1,0.1-0.2,0.1-0.4,0.1C98.4,77,98.2,77,98,77.1c0,0.1,0,0.1,0,0.2
				c0.2-0.1,0.4-0.2,0.7-0.3c0.2,0,0.9-0.3,0.7,0.3c-0.1,0.4-0.7,0.5-1.1,0.5c0,0.1,0,0.1,0,0.2c0.1-0.1,0.3-0.1,0.4-0.1
				c0.2,0.3,0.1,0.5-0.2,0.4c0,0,0.1,0.1,0.1,0.1c0,0,0.1,0,0.1,0c0,0.1,0.2,0,0.2-0.1c-0.1-0.2-0.3-0.2-0.5,0c0,0.1,0,0.1,0.1,0.1
				c0.3,0,0.7-0.1,0.6-0.5c-0.1-0.4-0.7-0.3-0.9-0.2c-0.1,0-0.1,0.2,0,0.2c0.5,0.1,1.5-0.3,1.4-0.9c-0.1-0.7-1.4-0.1-1.7,0.1
				c-0.1,0,0,0.2,0,0.2c0.4,0,1.5-0.2,1.5-0.8c0-0.3-0.4-0.5-0.6-0.2C98.9,76.4,99,76.4,99.1,76.3L99.1,76.3z"/>
		</g>
	</g>
</g>
<g>
	<g>
		<g>
			<path class="st0" d="M105.2,77.1c-0.2-0.2-0.5-0.6-0.1-0.7c0.3-0.1,0.5,0.2,0.6,0.4c0.1,0.1,0.2,0,0.2-0.1
				c-0.2-0.3-0.5-0.7-0.9-0.5c-0.5,0.2-0.1,0.7,0.1,1C105.2,77.3,105.3,77.2,105.2,77.1L105.2,77.1z"/>
		</g>
	</g>
</g>
<g>
	<g>
		<g>
			<path class="st0" d="M108,76.7c-0.2-0.2-0.2-0.6,0.1-0.8c0.4-0.2,0.7,0.3,0.6,0.6c0,0.1,0.1,0.2,0.2,0c0.2-0.5-0.3-1-0.8-0.8
				c-0.4,0.2-0.5,0.8-0.2,1.1C107.9,76.9,108,76.8,108,76.7L108,76.7z"/>
		</g>
	</g>
</g>
<g>
	<g>
		<g>
			<path class="st0" d="M122.4,71.9c-0.2-0.2-0.3-0.5-0.2-0.8c0.1-0.2,0.2-0.4,0.5-0.3c0.2,0.1,0.2,0.4,0.3,0.6c0,0.1,0.2,0.1,0.2,0
				c0-0.3-0.1-0.6-0.3-0.7c-0.2-0.1-0.4-0.1-0.6,0c-0.4,0.3-0.3,1,0.1,1.3C122.3,72.1,122.4,72,122.4,71.9L122.4,71.9z"/>
		</g>
	</g>
</g>
<g>
	<g>
		<g>
			<path class="st0" d="M115.3,75c0-0.1,0.3-0.3,0.3-0.1c0,0.1-0.2,0.2-0.2,0.1C115.5,74.8,115.3,74.8,115.3,75c0,0.3,0.5,0.3,0.5,0
				c0-0.2-0.1-0.3-0.3-0.3c-0.2,0-0.3,0.1-0.4,0.3C115.1,75,115.3,75.1,115.3,75L115.3,75z"/>
		</g>
	</g>
</g>
<g>
	<g>
		<g>
			<path class="st0" d="M117.4,74.1c0-0.1,0.1-0.1,0.2-0.1c0.1,0.1,0,0.2,0,0.2c0,0,0.1,0,0.1,0c-0.1-0.1-0.1-0.2-0.2-0.3
				c-0.1-0.1-0.2,0-0.2,0.1c0.1,0.1,0.1,0.2,0.2,0.3c0,0,0.1,0.1,0.1,0c0.2-0.1,0.2-0.4,0-0.6c-0.2-0.1-0.5,0.1-0.4,0.3
				C117.2,74.2,117.4,74.2,117.4,74.1L117.4,74.1z"/>
		</g>
	</g>
</g>
<g>
	<g>
		<g>
			<path class="st0" d="M112.9,75.9c0-0.1,0.3-0.1,0.3,0c0,0.1-0.1,0.1-0.1,0.1c0,0-0.1-0.1,0-0.1c0.1-0.1,0-0.2-0.1-0.1
				c-0.1,0.1-0.1,0.3,0.1,0.4c0.1,0.1,0.3,0,0.4-0.1c0.1-0.2,0-0.3-0.2-0.4c-0.2,0-0.3,0.1-0.4,0.2C112.7,75.9,112.9,76,112.9,75.9
				L112.9,75.9z"/>
		</g>
	</g>
</g>
<g>
	<g>
		<g>
			<path class="st0" d="M107.5,61.4c-2.1,0.7-3.6,2.6-3.9,4.7c0,0.1,0.1,0.1,0.1,0.1c0.6-0.4,1.3-0.8,2-0.9c0.4-0.1,0.3,0,0.2,0.3
				c-0.1,0.2-0.1,0.5-0.2,0.7c-0.1,0.8-0.1,1.7,0.1,2.4c0.4,1.7,1.6,3.2,3.2,4c0.1,0,0.1,0,0.1-0.1c-0.1-0.4,0-0.9,0.2-1.2
				c0.2-0.4,0.3-0.5,0.6-0.2c0.4,0.5,0.8,1,1.2,1.5c0.9,1,1.9,2,3,2.8c0,0,0.1,0,0.1,0c0.3-0.8,0.6-1.5,0.9-2.3
				c0.1-0.4,0.2-0.9,0.4-1.2c0.2-0.4,0.3-0.2,0.6-0.3c1.4-0.4,1-2.1,0.7-3.1c0,0-0.1,0.1-0.1,0.1c1,1,2-0.1,2.1-1.2
				c0.1-1.6-1-3-2-4.1c0,0.1,0,0.1-0.1,0.2c0.8,0.1,1.5-0.1,2.2-0.4c0.1,0,0.1-0.1,0-0.1c-1.8-1.7-4.2-2.7-6.7-2.8
				c-0.1,0-0.1,0.2,0,0.2c1.5,0,3,0.4,4.3,1.1c0.6,0.3,1.2,0.7,1.8,1.2c0,0,0.3,0.2,0.3,0.3c0,0.1-0.4,0.3-0.5,0.3
				c-0.5,0.2-1,0.2-1.5,0.1c-0.1,0-0.1,0.1-0.1,0.2c0.7,0.8,1.4,1.6,1.7,2.6c0.2,0.5,0.3,1,0.2,1.6c-0.1,0.8-1,1.7-1.7,0.9
				c-0.1-0.1-0.2,0-0.1,0.1c0.1,0.5,0.3,1,0.3,1.5c0,0.8-0.6,1.6-1.4,1.4c0,0-0.1,0-0.1,0.1c-0.2,0.8-0.4,1.7-0.7,2.5
				c-0.1,0.3-0.2,0.9-0.5,1.1c-0.2,0.2-0.3,0-0.5-0.2c-0.2-0.1-0.3-0.3-0.5-0.4c-1.3-1.1-2.4-2.4-3.4-3.8c0,0-0.1-0.1-0.1,0
				c-0.6,0.5-0.9,1.2-0.7,2c0,0,0.1-0.1,0.1-0.1c-2.7-1.3-4-4.7-2.9-7.5c0-0.1-0.1-0.1-0.1-0.1c-0.9,0.2-1.8,0.5-2.5,1
				c0,0,0.1,0.1,0.1,0.1c0.3-2.1,1.8-3.9,3.8-4.6C107.6,61.6,107.6,61.4,107.5,61.4L107.5,61.4z"/>
		</g>
	</g>
</g>
<g>
	<g>
		<g>
			<path class="st0" d="M106.9,65.6c-0.5,1.7-0.2,3.4,0.6,4.9c0.1,0.1,0.2,0,0.2-0.1c-0.9-1.5-1.1-3.1-0.6-4.7
				C107.1,65.5,106.9,65.5,106.9,65.6L106.9,65.6z"/>
		</g>
	</g>
</g>
<g>
	<g>
		<g>
			<path class="st0" d="M107.4,67.5c0,0.5,0.1,1,0.3,1.4c0,0.1,0.2,0.1,0.2,0c-0.1-0.5-0.2-0.9-0.3-1.4
				C107.5,67.4,107.3,67.4,107.4,67.5L107.4,67.5z"/>
		</g>
	</g>
</g>
<g>
	<g>
		<g>
			<path class="st0" d="M110.5,70.6c1,1.2,2.1,2.3,3.4,3.2c0.1,0.1,0.2-0.1,0.1-0.2c-1.2-0.9-2.4-2-3.3-3.2
				C110.5,70.4,110.4,70.6,110.5,70.6L110.5,70.6z"/>
		</g>
	</g>
</g>
<g>
	<g>
		<g>
			<path class="st0" d="M112.3,71.3c0.4,0.5,0.9,0.9,1.4,1.3c0.1,0.1,0.2-0.1,0.1-0.2c-0.5-0.3-1-0.8-1.4-1.2
				C112.3,71.1,112.2,71.3,112.3,71.3L112.3,71.3z"/>
		</g>
	</g>
</g>
<g>
	<g>
		<g>
			<path class="st0" d="M109.8,64.5c1,0.7,2.1-0.1,2.8-0.9c0.1-0.1,0-0.2-0.1-0.1c-0.7,0.7-1.6,1.5-2.6,0.8
				C109.8,64.3,109.7,64.5,109.8,64.5L109.8,64.5z"/>
		</g>
	</g>
</g>
</svg>
