<?xml version="1.0" encoding="utf-8"?>
<!-- Generator: Adobe Illustrator 24.0.1, SVG Export Plug-In . SVG Version: 6.00 Build 0)  -->
<svg version="1.1" id="Layer_1" xmlns="http://www.w3.org/2000/svg" xmlns:xlink="http://www.w3.org/1999/xlink" x="0px" y="0px"
	 viewBox="0 0 141.7 141.7" style="enable-background:new 0 0 141.7 141.7;" xml:space="preserve">
<style type="text/css">
	.st0{fill:#070707;}
</style>
<g id="Layer_1_1_">
</g>
<g id="Layer_1_2_">
</g>
<g id="Layer_1_3_">
</g>
<g id="Layer_1_4_">
</g>
<g id="Layer_1_5_">
</g>
<g id="Layer_3">
</g>
<g id="Layer_3_1_">
</g>
<g>
	<g>
		<g>
			<path class="st0" d="M46.5,117.6c1.1,1.4,2.3,2.7,3.4,4.1c0.2,0.3,0.8,0,0.5-0.3c-1.1-1.4-2.3-2.7-3.4-4.1
				C46.8,117,46.3,117.3,46.5,117.6L46.5,117.6z"/>
		</g>
	</g>
</g>
<g>
	<g>
		<g>
			<path class="st0" d="M42.2,53.6C42,56,41.8,58.5,41.9,61c0,0.4,0.6,0.4,0.6,0c-0.1-2.5,0.1-4.9,0.3-7.4
				C42.8,53.2,42.2,53.2,42.2,53.6L42.2,53.6z"/>
		</g>
	</g>
</g>
<g>
	<g>
		<g>
			<path class="st0" d="M49.8,33.3c-3.3,3.3-5.2,7.5-6.4,11.9c-0.1,0.4,0.5,0.5,0.6,0.2c1.1-4.4,3-8.4,6.2-11.6
				C50.5,33.5,50.1,33,49.8,33.3L49.8,33.3z"/>
		</g>
	</g>
</g>
<g>
	<g>
		<g>
			<path class="st0" d="M101.1,36.8c-1.1-2.2-2.7-4-4.5-5.6c-0.3-0.2-0.7,0.2-0.4,0.4c1.8,1.5,3.4,3.4,4.4,5.5
				C100.8,37.4,101.3,37.1,101.1,36.8L101.1,36.8z"/>
		</g>
	</g>
</g>
<g>
	<g>
		<g>
			<path class="st0" d="M56.2,125.7c5.4,3.3,12.2,3.3,18.3,2.8c3.1-0.3,6.2-0.7,9.4-1.3c3.3-0.6,7-0.8,9.9-2.6
				c0.3-0.2,0-0.7-0.3-0.5c-2.8,1.8-6.5,2-9.7,2.6c-3.1,0.5-6.1,1-9.2,1.2c-6,0.5-12.7,0.5-18-2.7C56.2,125,55.8,125.5,56.2,125.7
				L56.2,125.7z"/>
		</g>
	</g>
</g>
<g>
	<g>
		<g>
			<path class="st0" d="M43.6,44.9c-4.9-0.4-7.7-5.4-4.9-9.6c1.2-1.8,3.2-2.9,5.3-3.4c1.9-0.4,4.7-0.2,6,1.4
				c0.2,0.3,0.7-0.1,0.4-0.4c-1.4-1.7-4.2-1.9-6.3-1.6c-2.4,0.4-4.6,1.7-6,3.7c-1.4,2-1.6,4.5-0.6,6.7c1,2.4,3.6,3.6,6,3.8
				C43.9,45.5,43.9,44.9,43.6,44.9L43.6,44.9z"/>
		</g>
	</g>
</g>
<g>
	<g>
		<g>
			<path class="st0" d="M96.7,31.8c3.5-1.8,8.8-2.6,11.3,1.1c2.5,3.7,0.9,9.7-3.8,10.5c-0.4,0.1-0.2,0.7,0.2,0.6
				c5.2-0.9,6.6-7,4.4-11.2c-2.4-4.4-8.6-3.5-12.3-1.6C96.1,31.4,96.4,31.9,96.7,31.8L96.7,31.8z"/>
		</g>
	</g>
</g>
<g>
	<g>
		<g>
			<path class="st0" d="M69.7,50.4c0.1,0,0.2,0,0.3,0c0-0.1-0.1-0.2-0.1-0.3c-0.2,0.2-0.8,0.2-1.1,0.3c-0.7,0.4-1.2,0.9-1.8,1.4
				c-0.9,0.8-1.7,1.9-1.5,3.2c0.2,1.2,1.9,2,2.9,2.1c2.2,0.2,4.2-1,6.3-1.1c2.4-0.1,6.3,2.7,7.2-1.2c0.6-2.8-3.3-4.5-5.3-5.3
				c-0.2-0.1-0.3,0.2-0.1,0.3c2.1,0.8,5.7,2.3,5.1,5.2c-0.4,1.9-2.3,1.8-3.8,1.3c-1.1-0.3-2.2-0.7-3.4-0.6c-1.3,0-2.6,0.6-3.9,0.9
				c-1.6,0.4-4.7,0.1-4.8-2.1c0-1.4,1.6-2.6,2.6-3.4c0.3-0.2,0.7-0.5,1.1-0.6c0.2,0,0.6-0.1,0.7-0.2c0.1-0.1,0-0.3-0.1-0.3
				c-0.1,0-0.2,0-0.4,0C69.4,50.2,69.5,50.5,69.7,50.4L69.7,50.4z"/>
		</g>
	</g>
</g>
<g>
	<g>
		<g>
			<path class="st0" d="M77.6,56.7c0.5,1.4,0.7,2.9,0.4,4.4c-0.3,1.2-1.5,1.8-2.6,1.6c-0.7-0.1-1-1.1-1.2-1.7
				c-0.1-0.2-0.3,0-0.3,0.1c0.3,0.6,0.5,1.3,1.1,1.7c0.7,0.4,1.7,0.1,2.3-0.2c1.8-1,1.2-4.4,0.6-6C77.8,56.5,77.5,56.5,77.6,56.7
				L77.6,56.7z"/>
		</g>
	</g>
</g>
<g>
	<g>
		<g>
			<path class="st0" d="M50.2,121.8c2.9-1.5,4.4,2.2,6.4,3.6c0-0.1,0-0.2,0-0.3c-1.6,0.2-2.9,1.3-4.1,2.2c-1.5,1.1-3.3,2.7-5.3,1.8
				c-2.4-1.1-1.8-3.5-0.2-5c1.2-1.1,2.6-2,4.1-2.7c0.2-0.1,0-0.3-0.1-0.3c-2.3,1.2-7.5,4.2-5,7.3c3.2,4,7.6-2.6,10.8-3.1
				c0.1,0,0.1-0.2,0-0.3c-2.1-1.5-3.6-5.2-6.7-3.6C49.9,121.7,50,121.9,50.2,121.8L50.2,121.8z"/>
		</g>
	</g>
</g>
<g>
	<g>
		<g>
			<path class="st0" d="M46.9,128.8c-0.5-1.7,0.8-3,2.2-3.8c0.2-0.1,0-0.4-0.1-0.3c-1.5,0.8-2.8,2.3-2.3,4.1
				C46.6,129.1,46.9,129,46.9,128.8L46.9,128.8z"/>
		</g>
	</g>
</g>
<g>
	<g>
		<g>
			<path class="st0" d="M99,128.7c-1.7-1-2.7-2.6-4.1-3.9c-0.1-0.1-0.3-0.3-0.5-0.4c-1.3-0.9,0.5-2.2,1-2.6c1.2-0.9,2.6-1.4,4-0.9
				c2,0.6,3.3,2.8,3.8,4.7c0.3,1.1,0.1,2.2-0.7,3.1C101.8,129.7,100.1,129.2,99,128.7c-0.2-0.1-0.3,0.2-0.1,0.3
				c1.8,0.9,4.7,0.8,4.9-1.8c0.2-2.6-1.5-5.3-3.8-6.4c-1.2-0.6-2.5-0.4-3.6,0.2c-0.9,0.4-2.7,1.6-2.7,2.6c0,1,1.3,1.5,1.8,2.2
				c1.1,1.1,2,2.4,3.4,3.2C99.1,129.1,99.2,128.8,99,128.7z"/>
		</g>
	</g>
</g>
<g>
	<g>
		<g>
			<path class="st0" d="M100,124.8c1.1,1.1,2,2.6,2,4.2c0,0.2,0.3,0.2,0.3,0c0-1.7-0.9-3.2-2.1-4.4
				C100.1,124.5,99.9,124.7,100,124.8L100,124.8z"/>
		</g>
	</g>
</g>
<g>
	<g>
		<g>
			<path class="st0" d="M105.9,76.2c0.6,0.3,1.4,0.1,2,0.1c1.8,0,3.6,1.2,4.5,2.7c0.5,0.8,0.6,1.7,0.4,2.6c-0.2,1.2-1.4,1.4-2.5,1.3
				c-1.7-0.2-2.9-1.5-4.1-2.6c-0.1-0.1-0.4,0.1-0.2,0.2c1.3,1.2,2.7,2.6,4.6,2.7c1.2,0.1,2.4-0.5,2.5-1.8c0.2-1.6-0.5-3.1-1.8-4
				c-0.9-0.6-1.8-1-2.8-1.2c-0.8-0.2-1.8,0.2-2.5-0.1C105.8,75.8,105.7,76.1,105.9,76.2L105.9,76.2z"/>
		</g>
	</g>
</g>
<g>
	<g>
		<g>
			<path class="st0" d="M109.9,80.3c1.1,0.3,2.5,1.3,1.8,2.6c-0.1,0.2,0.2,0.3,0.3,0.1c0.8-1.5-0.7-2.6-2-3
				C109.7,80,109.7,80.3,109.9,80.3L109.9,80.3z"/>
		</g>
	</g>
</g>
<g>
	<path class="st0" d="M85.9,50.3c-5.5,0-10-4.5-10-10c0-5.5,4.5-10,10-10s10,4.5,10,10C95.9,45.8,91.4,50.3,85.9,50.3z M85.9,30.7
		c-5.3,0-9.6,4.3-9.6,9.6c0,5.3,4.3,9.6,9.6,9.6c5.3,0,9.6-4.3,9.6-9.6C95.5,35,91.2,30.7,85.9,30.7z"/>
</g>
<g>
	<path class="st0" d="M61.3,51.3c-5.5,0-10-4.5-10-10s4.5-10,10-10c5.5,0,10,4.5,10,10S66.8,51.3,61.3,51.3z M61.3,31.7
		c-5.3,0-9.6,4.3-9.6,9.6s4.3,9.6,9.6,9.6c5.3,0,9.6-4.3,9.6-9.6S66.6,31.7,61.3,31.7z"/>
</g>
<g>
	<path class="st0" d="M104.6,36.4c0-1.1-0.9-2.1-2.1-2.1c-1.1,0-2.1,0.9-2.1,2.1c0,1.1,0.9,2.1,2.1,2.1
		C103.7,38.5,104.6,37.6,104.6,36.4z"/>
</g>
<g>
	<circle class="st0" cx="44.5" cy="38.3" r="2.1"/>
</g>
<g>
	<path class="st0" d="M78.1,49.3c0-1.3-2-2.4-4.4-2.4s-4.4,1.1-4.4,2.4s2,2.4,4.4,2.4C76.1,51.7,78.1,50.7,78.1,49.3z"/>
</g>
<g>
	<path class="st0" d="M82.7,40.9c0,1.8,1.4,3.2,3.2,3.2c1.8,0,3.2-1.4,3.2-3.2c0-1.8-1.4-3.2-3.2-3.2C84.2,37.7,82.7,39.1,82.7,40.9
		z M87.9,39.6c0,0.5-0.4,0.9-0.9,0.9c-0.5,0-0.9-0.4-0.9-0.9c0-0.5,0.4-0.9,0.9-0.9C87.6,38.7,87.9,39.1,87.9,39.6z"/>
</g>
<g>
	<path class="st0" d="M58.1,41.1c0,1.8,1.4,3.2,3.2,3.2c1.8,0,3.2-1.4,3.2-3.2c0-1.8-1.4-3.2-3.2-3.2C59.5,37.9,58.1,39.3,58.1,41.1
		z M63.3,39.8c0,0.5-0.4,0.9-0.9,0.9c-0.5,0-0.9-0.4-0.9-0.9c0-0.5,0.4-0.9,0.9-0.9S63.3,39.3,63.3,39.8z"/>
</g>
<g>
	<g>
		<g>
			<path class="st0" d="M73.9,56.1c0.2,1.3,0.1,2.8,0,4.1c-0.1,1.7-1.5,3.7-3.3,2.2c-1.4-1.1-0.9-4-0.5-5.5c0-0.2-0.2-0.3-0.3-0.1
				c-0.6,1.9-0.9,5.5,1.4,6.3c3.5,1.2,3.2-5.3,2.9-7.1C74.2,55.8,73.9,55.9,73.9,56.1L73.9,56.1z"/>
		</g>
	</g>
</g>
<g>
	<g>
		<g>
			<path class="st0" d="M103.6,113.7c-0.7,1.5-1.3,2.8-2.4,4.1c-0.7,0.8-1.2,1.8-1.4,2.8c-0.1,0.4,0.5,0.5,0.6,0.2
				c0.3-1.4,1.1-2.2,1.9-3.2c0.8-1,1.3-2.3,1.8-3.5C104.3,113.6,103.8,113.3,103.6,113.7L103.6,113.7z"/>
		</g>
	</g>
</g>
<g>
	<g>
		<g>
			<path class="st0" d="M105.5,76.3c0,5.5,0.7,11,1,16.5c0,0.4,0.6,0.4,0.6,0c-0.3-5.5-0.9-11-1-16.5
				C106.1,75.9,105.5,75.9,105.5,76.3L105.5,76.3z"/>
		</g>
	</g>
</g>
<g>
	<g>
		<g>
			<path class="st0" d="M105,52.5c0.1,2.9,0.1,5.8,0.1,8.7c0,0.4,0.6,0.4,0.6,0c0-2.9,0-5.8-0.1-8.7C105.6,52.2,105,52.2,105,52.5
				L105,52.5z"/>
		</g>
	</g>
</g>
<g>
	<g>
		<g>
			<path class="st0" d="M100.1,36c1.6,2.4,2.8,5.1,3.5,7.8c0.1,0.4,0.7,0.2,0.6-0.2c-0.8-2.8-1.9-5.5-3.6-8
				C100.4,35.4,99.9,35.7,100.1,36L100.1,36z"/>
		</g>
	</g>
</g>
<g>
	<g>
		<g>
			<path class="st0" d="M93.6,124.3c0,0,0.1,0,0.1,0c0.2,0,0.2-0.3,0-0.3h0c0,0-0.1,0-0.1,0.1c0,0,0,0,0,0c0.1,0.1,0.1,0.1,0.2,0.2
				c0,0,0-0.1,0-0.2C93.8,124.2,93.7,124.2,93.6,124.3c0,0,0.1,0,0.1,0.1c0.1,0.1,0.4-0.1,0.2-0.2c0,0-0.1-0.1-0.2-0.2
				c-0.1-0.1-0.2,0-0.2,0.1C93.6,124.2,93.5,124.2,93.6,124.3c-0.1,0.1,0,0.2,0.1,0.1c0.1,0,0.2-0.1,0.2-0.2c0,0-0.1,0-0.1,0.1h0
				c0.2,0,0.2-0.3,0-0.3c0,0-0.1,0-0.1,0C93.4,124,93.4,124.3,93.6,124.3L93.6,124.3z"/>
		</g>
	</g>
</g>
<g>
	<g>
		<g>
			<path class="st0" d="M45.6,70c0.9-2.1,0.7-4.6-1.4-5.9c-1.9-1.2-4.4-0.4-5.6,1.4c-0.2,0.3,0.3,0.6,0.5,0.3
				c1.1-1.8,3.5-2.3,5.2-0.9c1.5,1.2,1.4,3.3,0.8,4.9C44.9,70.2,45.5,70.4,45.6,70L45.6,70z"/>
		</g>
	</g>
</g>
<g>
	<g>
		<g>
			<path class="st0" d="M39,65c-1,1.2-1.9,2.6-2.2,4.1c-0.1,0.4,0.5,0.5,0.6,0.2c0.3-1.5,1.1-2.7,2.1-3.9C39.7,65.1,39.3,64.6,39,65
				L39,65z"/>
		</g>
	</g>
</g>
<g>
	<g>
		<g>
			<path class="st0" d="M49,70c0.6-3.3-0.2-6.8-3-8.9c-1.1-0.8-2.5-1.4-3.7-0.5c-1.1,0.8-1.6,2.2-1.7,3.5c0,0.4,0.6,0.4,0.6,0
				c0.1-1.2,0.6-2.7,1.9-3.2c1.3-0.5,2.8,0.8,3.6,1.7c1.8,2,2.2,4.7,1.7,7.3C48.3,70.2,48.9,70.3,49,70L49,70z"/>
		</g>
	</g>
</g>
<g>
	<g>
		<g>
			<path class="st0" d="M102.5,67.3c0.8,2.6,3,5.6,5.8,6c2.5,0.4,4-2.2,3.5-4.4c-0.5-2.6-3.3-5.4-5.9-5.7c-2.3-0.3-4.9,2-3.2,4.3
				c0.2,0.3,0.8,0,0.5-0.3c-0.8-1-0.4-2.5,0.8-3.1c1.1-0.6,2.4-0.3,3.5,0.3c1.8,1,3.8,3.2,3.8,5.3c0,1-0.4,2-1.2,2.6
				c-1.1,0.8-2.5,0.2-3.5-0.4c-1.7-1.1-2.9-2.8-3.5-4.8C103,66.8,102.4,67,102.5,67.3L102.5,67.3z"/>
		</g>
	</g>
</g>
<g>
	<g>
		<g>
			<path class="st0" d="M111.1,71.8c-0.2,0.6,0.2,1.1,0.7,1.4c0,0,0.7,0.3,0.6,0.3c0.1,0.4,0.3,0.8,0.4,1.2
				c-0.2,0.1-0.4,0.1-0.6,0.2c-0.7,0.2-1.4,0.5-2.2,0.6c-3.1,0.7-6.1,0-8.1-2.5c-1.9-2.4-2.3-5.7-1.5-8.6c0.4-1.6,1.3-3.1,3.2-3.2
				c1.7,0,2.9,1.3,3.3,2.8c0.1,0.4,0.7,0.2,0.6-0.2c-0.6-2.8-4-4.5-6.3-2.3c-1.2,1.1-1.6,3.1-1.7,4.7c-0.2,1.8,0.1,3.7,0.9,5.4
				c1.6,3.2,4.9,5,8.4,4.6c1-0.1,1.9-0.4,2.9-0.7c0.6-0.2,1.7-0.3,2.1-0.9c1.1-1.6-2.4-1.7-2.1-2.8
				C111.8,71.6,111.2,71.5,111.1,71.8L111.1,71.8z"/>
		</g>
	</g>
</g>
<g>
	<g>
		<g>
			<path class="st0" d="M92,99.7c5.1-1.2,9.9-3.2,14.1-6.3c0.3-0.2,0-0.8-0.3-0.5c-4.2,3-9,5-14,6.2C91.4,99.2,91.6,99.8,92,99.7
				L92,99.7z"/>
		</g>
	</g>
</g>
<g>
	<g>
		<g>
			<path class="st0" d="M80.2,101.3c2.9-0.2,5.9-0.5,8.8-1c0.4-0.1,0.2-0.7-0.2-0.6c-2.9,0.5-5.7,0.8-8.6,0.9
				C79.8,100.7,79.8,101.3,80.2,101.3L80.2,101.3z"/>
		</g>
	</g>
</g>
<g>
	<g>
		<g>
			<path class="st0" d="M57.9,100.3c2.8,0.6,5.7,0.9,8.6,1.1c0.4,0,0.4-0.6,0-0.6c-2.8-0.2-5.6-0.5-8.4-1.1
				C57.6,99.6,57.5,100.2,57.9,100.3L57.9,100.3z"/>
		</g>
	</g>
</g>
<g>
	<g>
		<g>
			<path class="st0" d="M91.9,93.3c4.9-1.5,9.8-3,14.1-5.8c0.3-0.2,0-0.7-0.3-0.5c-4.3,2.7-9.1,4.2-14,5.7
				C91.4,92.8,91.5,93.4,91.9,93.3L91.9,93.3z"/>
		</g>
	</g>
</g>
<g>
	<g>
		<g>
			<path class="st0" d="M79.2,96.8c3.3-0.6,6.4-1.5,9.5-2.5c0.4-0.1,0.2-0.7-0.2-0.6c-3.1,1-6.3,1.9-9.5,2.5
				C78.7,96.3,78.9,96.9,79.2,96.8L79.2,96.8z"/>
		</g>
	</g>
</g>
<g>
	<g>
		<g>
			<path class="st0" d="M69.6,97.4c2.2,0.1,4.3,0.1,6.5-0.1c0.4,0,0.4-0.6,0-0.6c-2.2,0.2-4.3,0.2-6.5,0.1
				C69.2,96.7,69.2,97.3,69.6,97.4L69.6,97.4z"/>
		</g>
	</g>
</g>
<g>
	<g>
		<g>
			<path class="st0" d="M59.6,95.7c2.2,0.6,4.4,1.1,6.6,1.4c0.4,0,0.6-0.5,0.2-0.6c-2.2-0.3-4.4-0.8-6.6-1.4
				C59.4,95,59.3,95.5,59.6,95.7L59.6,95.7z"/>
		</g>
	</g>
</g>
<g>
	<g>
		<g>
			<path class="st0" d="M68.4,96.8c-0.2,1.2-0.5,2.8,0.3,3.8c0.9,1.2,2.9,1,4.3,1c1.3,0,3.6,0.3,4.4-1c0.8-1.3,0.3-3.1-0.6-4.2
				c-0.2-0.3-0.8,0-0.5,0.3c1,1.3,1.6,3.7-0.5,4.2c-1,0.2-2.2,0.1-3.2,0.1c-1.1,0-2.8,0.1-3.5-1c-0.5-0.9-0.3-2.2-0.1-3.1
				C69,96.6,68.5,96.4,68.4,96.8L68.4,96.8z"/>
		</g>
	</g>
</g>
<g>
	<g>
		<g>
			<path class="st0" d="M67.3,101.4c-0.5-1.3-1-2.7-0.6-4c0.5-1.7,2.5-1.8,3.9-2.1c2.7-0.5,6.5-1.1,7.8,2c0.4,1,0.7,2.2,0.7,3.4
				c-0.1,1.8-1.3,2.4-2.9,2.3c-1.4-0.1-2.8-0.2-4.2-0.3c-0.7,0-5.2,0-4.8-1.3c0.1-0.4-0.5-0.5-0.6-0.2c-0.4,1.5,1.3,1.7,2.4,1.8
				c2.4,0.2,4.7,0.4,7.1,0.5c1.4,0.1,2.8-0.1,3.4-1.5c0.6-1.3,0.3-2.9-0.1-4.2c-0.4-1.4-1.2-2.6-2.7-3.2c-1.8-0.6-3.8-0.3-5.7,0
				c-1.5,0.2-3.6,0.4-4.5,1.9c-1,1.6-0.3,3.5,0.3,5.1C66.9,101.9,67.5,101.7,67.3,101.4L67.3,101.4z"/>
		</g>
	</g>
</g>
<g>
	<g>
		<g>
			<path class="st0" d="M89.3,93.7c1.2,0.2,1,2.6,0.9,3.4c-0.1,1.2-0.4,2.4-1.2,3.3c-0.2,0.3,0.2,0.7,0.4,0.4
				c1.1-1.3,1.4-2.8,1.4-4.5c0-1.1,0-3-1.4-3.3C89.1,93.1,88.9,93.6,89.3,93.7L89.3,93.7z"/>
		</g>
	</g>
</g>
<g>
	<g>
		<g>
			<path class="st0" d="M90.5,92.6c1.5,2.5,1.7,5.5,0.4,8c-0.2,0.3,0.3,0.7,0.5,0.3c1.4-2.8,1.2-6-0.4-8.7
				C90.8,91.9,90.3,92.2,90.5,92.6L90.5,92.6z"/>
		</g>
	</g>
</g>
<g>
	<g>
		<g>
			<path class="st0" d="M88.3,103.4c1.1-0.2,2.3-0.4,3.4-0.6c0.4-0.1,0.2-0.7-0.2-0.6c-1.1,0.2-2.3,0.4-3.4,0.6
				C87.7,102.9,87.9,103.5,88.3,103.4L88.3,103.4z"/>
		</g>
	</g>
</g>
<g>
	<g>
		<g>
			<path class="st0" d="M88.1,92.7c0.7-0.5,1.5-1,2.2-1.5c0.3-0.2,0-0.8-0.3-0.5c-0.7,0.5-1.5,1-2.2,1.5
				C87.5,92.4,87.8,93,88.1,92.7L88.1,92.7z"/>
		</g>
	</g>
</g>
<g>
	<g>
		<g>
			<path class="st0" d="M48.5,26c3.3,1.6,6.8,2.6,10.4,3.3c3.7,0.8,7.5,1.4,11.2,1.7c3.9,0.3,7.4-0.7,11.1-2.1
				c3.8-1.4,7.4-2.9,11.1-4.7c0.4-0.2,0-0.7-0.3-0.5c-3.5,1.7-7.1,3.2-10.7,4.5c-3.6,1.4-7.2,2.5-11.1,2.1
				c-3.6-0.3-7.3-0.9-10.8-1.7c-3.6-0.7-7.1-1.7-10.4-3.3C48.4,25.3,48.1,25.9,48.5,26L48.5,26z"/>
		</g>
	</g>
</g>
<g>
	<g>
		<g>
			<path class="st0" d="M90,21.6c0.6,0.7,1.1,1.4,1.6,2.2c0.2,0.3,0.7,0,0.5-0.3c-0.5-0.8-1-1.6-1.7-2.3
				C90.1,20.9,89.7,21.3,90,21.6L90,21.6z"/>
		</g>
	</g>
</g>
<g>
	<g>
		<g>
			<path class="st0" d="M58.1,16.7c3.4-2.4,7.6-3.2,11.7-3c4.4,0.2,8.9,1.1,12.9,2.8c0.4,0.1,0.7-0.4,0.3-0.5
				c-4.1-1.8-8.8-2.7-13.2-2.9c-4.2-0.2-8.5,0.6-12,3.1C57.5,16.3,57.8,16.9,58.1,16.7L58.1,16.7z"/>
		</g>
	</g>
</g>
<g>
	<g>
		<g>
			<path class="st0" d="M48.7,25.7c1.6-1.8,3.3-3.6,5-5.3c0.3-0.3-0.1-0.7-0.4-0.4c-1.8,1.7-3.4,3.4-5,5.3
				C48,25.6,48.4,26,48.7,25.7L48.7,25.7z"/>
		</g>
	</g>
</g>
<g>
	<g>
		<g>
			<path class="st0" d="M51.5,31.9c-4-0.5-8.9-1.3-10.9-5.2c-0.1,0.1-0.2,0.3-0.3,0.4c0.2,0.1,0.5,0.2,0.8,0.2
				c-0.2-0.2-0.3-0.4-0.4-0.7c-0.1,0.1-0.2,0.3-0.3,0.4c1.5,0.3,3,0.6,4.4,0.1c1.3-0.4,2.5-2,4-1.3c0.3,0.2,0.7-0.3,0.3-0.5
				c-1.1-0.5-1.9-0.2-2.9,0.4c-1.8,1.2-3.5,1.1-5.7,0.7c-0.3,0-0.5,0.2-0.3,0.4c0.2,0.3,0.9,1.6,1.4,0.8c0.4-0.6-0.6-1.2-1-1.3
				c-0.3-0.1-0.5,0.2-0.3,0.4c2.2,4.1,7.3,5,11.4,5.5C51.9,32.6,51.9,32,51.5,31.9L51.5,31.9z"/>
		</g>
	</g>
</g>
<g>
	<g>
		<g>
			<path class="st0" d="M91.8,24.6c1.1-0.6,2.5-0.9,3.7-0.6c1.1,0.2,2,0.8,2.9,1.2c1.7,0.7,3.5,0.7,5.2,0c-0.1-0.1-0.2-0.3-0.3-0.4
				c-1,2.2-2.6,4.1-4.6,5.5c-0.3,0.2,0,0.8,0.3,0.5c2.1-1.4,3.8-3.4,4.8-5.7c0.1-0.2-0.1-0.6-0.3-0.4c-1.2,0.5-2.6,0.7-3.9,0.3
				c-1.1-0.3-2-0.9-3.1-1.3c-1.7-0.7-3.5-0.4-5.1,0.4C91.2,24.3,91.5,24.8,91.8,24.6L91.8,24.6z"/>
		</g>
	</g>
</g>
<g>
	<g>
		<g>
			<path class="st0" d="M70.3,13.4c1.7,2.2,2.2,5.7,2.4,8.4c0.2,2.7,0,5.5-0.7,8.2c-0.1,0.4,0.5,0.5,0.6,0.2c0.8-3,1-6.1,0.7-9.2
				c-0.3-2.6-0.9-5.8-2.5-7.9C70.5,12.7,70,13.1,70.3,13.4L70.3,13.4z"/>
		</g>
	</g>
</g>
<g>
	<g>
		<g>
			<path class="st0" d="M84.2,19.5c1.1-0.5,1.8,1.8,1.3,2.4c-0.7,0.8-1.8,0.4-2.4-0.2c-0.8-0.8-1.4-2.1-1.3-3.2
				c0.2-3.1,4.1-1.9,6.1-2.1c1.6-0.2,2.6-1.3,3.5-2.5c0.3-0.5,1-1.9,1.9-1.1c0.7,0.7-0.5,1.7-0.9,2.1c-0.9,0.9-1.7,1.7-2.6,2.5
				c-0.2,0.2,0,0.6,0.3,0.5c0.8-0.3,1.6-0.6,2.4-0.9c0.3-0.1,0.7-0.4,1-0.4c0.9-0.1,0.8,0.6,0.4,1.2c-0.8,1.1-2.5,1.4-3.7,1.6
				c0,0.2,0.1,0.4,0.2,0.6c0.3-0.1,0.7-0.1,1.1,0c0.8-0.1,1,0.3,0.8,1.1c-0.3,0.3-1,0.3-1.4,0.2c-1.1-0.1-2-0.7-3.1-1.1
				c-0.6-0.2-2-0.6-2,0.4c0,0.4,0.6,0.4,0.6,0c0-0.4,2.1,0.6,2.4,0.7c0.5,0.2,1.1,0.5,1.6,0.6c0.8,0.1,1.7,0,2.4-0.5
				c0.5-0.4,0.9-1.1,0.3-1.6c-0.7-0.6-2-0.5-2.8-0.4c-0.4,0-0.2,0.6,0.2,0.6c1.6-0.2,4.2-0.8,4.5-2.8c0.4-2.8-3.9-0.2-4.9,0.1
				c0.1,0.2,0.2,0.3,0.3,0.5c0.9-0.9,5.5-4.3,3.1-5.8c-0.7-0.5-1.4,0-1.8,0.6c-1.3,1.6-2.2,3.1-4.5,3.2c-1.4,0-2.9-0.3-4.3,0.3
				c-1,0.5-1.5,1.4-1.6,2.5c0,1.9,1.7,5,4,4.2c2.4-0.9,0.5-4.7-1.3-3.7C83.5,19.2,83.8,19.7,84.2,19.5L84.2,19.5z"/>
		</g>
	</g>
</g>
<g>
	<g>
		<g>
			<path class="st0" d="M58.9,20c1.4,0.5,0.7,2.3-0.5,2.5c-0.8,0.2-1.5-0.1-2.2-0.5c-1.1-0.7-2-1.8-2.7-2.9
				c-0.8-1.2-1.3-2.6-1.3-4.1c0-0.7,0.1-1.4,0.3-2c0-0.1,0.4-1.1,0.6-1.1c0.6,0,0.4,1,0.3,1.3c-0.1,0.7-0.3,1.4,0.2,1.9
				c0.3,0.3,0.9,0.5,1.3,0.2c0.7-0.6,0.3-1.7,0.4-2.5c-0.1-0.8,0.2-1.1,0.7-1c0.3-0.1,0.4,0,0.3,0.4c0.1,0.3,0,0.9,0,1.2
				c-0.1,0.9-0.4,1.7-0.8,2.5c0.2,0.1,0.4,0.1,0.6,0.2c0.1-0.5,0.2-1.1,0.6-1.5c0.3-0.5,0.8-0.7,1.3-0.6c0.1,0.4,0.2,0.9,0.2,1.3
				c-0.1,0.4-0.6,0.9-0.8,1.3c-0.1,0.3-0.2,0.5-0.2,0.8c-0.1,1.1,0.5,2.1,1.7,2.2c0.4,0,0.4-0.6,0-0.6c-0.3-0.3-0.7-0.6-1-0.9
				c-0.1-0.4,0-0.8,0.2-1.2c0.1-0.4,0.3-0.6,0.5-0.9c0.2-0.4,0.5-0.8,0.6-1.2c0-0.6-0.2-1-0.7-1.3c-1.7-0.8-2.6,1.2-2.9,2.4
				c-0.1,0.3,0.4,0.5,0.6,0.2c0.9-1.5,1.1-3.2,0.8-4.9c0-0.1-0.1-0.2-0.2-0.2c-1.6-0.5-1.9,1.3-1.9,2.4c0,0.6,0.3,1.4-0.4,0.5
				c-0.5-0.6-0.3-0.5-0.2-1.1c0-0.3,0.1-0.5,0-0.8c-0.1-0.6-0.4-0.9-1-1c-0.1,0-0.3,0-0.3,0.1c-2.6,3.6-0.6,8.5,2.6,11
				c1.2,0.9,3.1,1.5,4.3,0.2c0.9-1,0.5-2.6-0.7-3C58.7,19.3,58.5,19.9,58.9,20L58.9,20z"/>
		</g>
	</g>
</g>
<g>
	<g>
		<g>
			<path class="st0" d="M50.9,32.9c4.8-0.8,9.8-1,14.7-0.5c4.1,0.4,8.3,2,12.3,0.7c3.4-1.1,6.6-3.6,10.2-3.5c3.4,0,7.1,3.9,10.3,1.2
				c0.3-0.2-0.1-0.7-0.4-0.4c-2,1.6-4.5,0.3-6.5-0.6c-1.6-0.7-3.2-1-4.9-0.7c-3.4,0.6-6.3,2.8-9.7,3.6c-2.3,0.6-4.5,0.1-6.8-0.3
				c-2-0.4-4-0.6-6-0.8c-4.5-0.3-9-0.1-13.4,0.7C50.3,32.3,50.5,32.9,50.9,32.9L50.9,32.9z"/>
		</g>
	</g>
</g>
<g>
	<g>
		<g>
			<path class="st0" d="M47,116.5c1.2-0.2,2.2-0.7,3.2-1.4c0.8-0.6,1.5-1.4,2.4-1.7c1.3-0.4,2.2,0.5,3.1,1.3c1.9,1.6,3.9,3.3,6.3,4
				c2.9,0.8,5.7-0.6,8.6-1.2c3.7-0.8,7.2,0.1,10.8,0.4c1.8,0.1,3.6,0.2,5.3,0c1.3-0.1,3.1-0.3,4.2-1c1.3-0.8,1.3-2.4,3-2.5
				c1.4-0.1,2.7,0.8,4,1.2c1.1,0.4,2.2,0.4,3.2,0c1.4-0.6,2.7-2.1,4.3-2.2c1-0.1,1.9,0.3,2.7,0.8c0.5,0.3,0.6,0.4,1.2,0.4
				c0.9-0.1,1.5-0.6,1.8-1.4c0.4-1,0.3-2.3,0.1-3.3c-0.3-1.7-0.6-3.4-1-5.1c-1-4.2-2.4-8.2-3.6-12.3c-0.1-0.4-0.7-0.2-0.6,0.2
				c1,3.4,2.1,6.8,3,10.2c0.7,2.8,1.8,6,1.7,8.9c0,1.4-0.9,2.9-2.4,2c-1-0.6-2.2-1-3.5-0.8c-1.2,0.2-2.2,1.2-3.2,1.8
				c-1.6,0.9-3,0.7-4.7,0c-2-0.8-4.2-1.6-5.6,0.5c-0.6,0.8-0.9,1.2-1.9,1.5c-0.7,0.2-1.5,0.4-2.2,0.5c-1.9,0.3-3.8,0.3-5.7,0.2
				c-3.3-0.2-6.6-1.2-9.8-0.7c-3.1,0.4-6.3,2.3-9.5,1.6c-3.2-0.7-5.2-3.2-7.7-5c-1-0.7-2.2-0.7-3.2,0c-1.6,1-2.6,2.5-4.7,2.8
				C46.6,116,46.6,116.6,47,116.5L47,116.5z"/>
		</g>
	</g>
</g>
<g>
	<g>
		<g>
			<path class="st0" d="M45.1,60.9c4.5,5.9,11.7,8.5,18.8,9.4c4.4,0.6,9,0.7,13.4,0.7c4.1,0,8.3-0.4,12.3-1.7c4-1.3,7.7-3.4,11-6.1
				c0.3-0.2-0.1-0.7-0.4-0.4c-6.1,5.1-13.5,7.4-21.4,7.6c-3.9,0.1-7.9,0-11.8-0.3c-3.9-0.3-7.8-1-11.5-2.4c-3.8-1.5-7.2-3.8-9.7-7
				C45.4,60.3,44.8,60.6,45.1,60.9L45.1,60.9z"/>
		</g>
	</g>
</g>
<g>
	<g>
		<g>
			<path class="st0" d="M53.3,32c-7.1,6.2-8.2,16.9-2.4,24.4c0.1-0.1,0.3-0.3,0.4-0.4c-6-3.1-13-3.8-19.5-1.8
				c0.1,0.1,0.2,0.2,0.4,0.4c1.8-4.6,3.5-9.2,5.3-13.8c0.1-0.4-0.4-0.5-0.6-0.2c-1.8,4.6-3.5,9.2-5.3,13.8c-0.1,0.2,0.2,0.4,0.4,0.4
				c6.3-1.9,13.2-1.3,19,1.8c0.2,0.1,0.6-0.1,0.4-0.4c-5.6-7.3-4.6-17.6,2.3-23.7C54,32.1,53.5,31.7,53.3,32L53.3,32z"/>
		</g>
	</g>
</g>
<g>
	<g>
		<g>
			<path class="st0" d="M41.1,32.8c0.2-1.2,0.8-2.1,1.8-2.8c0.3-0.2,0-0.7-0.3-0.5c-1.1,0.7-1.9,1.8-2.1,3.1
				C40.4,33,41,33.1,41.1,32.8L41.1,32.8z"/>
		</g>
	</g>
</g>
<g>
	<g>
		<g>
			<path class="st0" d="M106.7,43.2c1.4,4.2,2.8,8.3,4.2,12.5c0.2-0.1,0.3-0.2,0.5-0.3c-4.1-4.3-10.6-5.6-16-3.3
				c0.1,0.1,0.3,0.2,0.4,0.3c2.8-7,2.5-14.9-0.6-21.7c-0.2-0.4-0.7,0-0.5,0.3c3.1,6.7,3.2,14.4,0.5,21.2c-0.1,0.3,0.2,0.4,0.4,0.3
				c5.2-2.2,11.4-0.9,15.3,3.2c0.2,0.2,0.6,0,0.5-0.3c-1.4-4.2-2.8-8.3-4.2-12.5C107.1,42.6,106.5,42.8,106.7,43.2L106.7,43.2z"/>
		</g>
	</g>
</g>
<g>
	<g>
		<g>
			<path class="st0" d="M60.3,73.5c6.3,1.4,12.9,2.3,19.4,1.9c3.1-0.2,6.2-0.7,9.2-1.5c1.5-0.4,3-0.9,4.5-1.6c1.5-0.6,2.7-1.5,4-2.4
				c0.3-0.2,0-0.8-0.3-0.5c-1.2,0.9-2.2,1.7-3.6,2.3c-1.5,0.7-3.1,1.2-4.7,1.7c-3.1,0.9-6.3,1.3-9.5,1.5c-6.3,0.3-12.6-0.5-18.8-1.9
				C60.1,72.8,59.9,73.4,60.3,73.5L60.3,73.5z"/>
		</g>
	</g>
</g>
<g>
	<g>
		<g>
			<path class="st0" d="M64.1,82.9c1.6-0.2,3.1-0.9,4.7-1.3c1.8-0.5,3.7-0.4,5.6-0.2c3.7,0.4,7.2,1.8,10.8,2.4
				c2.1,0.3,4.7,0.7,6.1-1.2c1.6-2.1,0.6-4.8-0.6-6.9c-0.2-0.3-0.7,0-0.5,0.3c1.4,2.3,2.5,6.6-1.3,7.3c-2.7,0.5-5.9-0.6-8.5-1.3
				c-2.8-0.7-5.7-1.4-8.6-1.4c-2.8,0-5.2,1.3-7.9,1.7C63.6,82.3,63.8,82.9,64.1,82.9L64.1,82.9z"/>
		</g>
	</g>
</g>
<g>
	<g>
		<g>
			<path class="st0" d="M61.4,90.7c3.7-0.3,7.3-1.7,11-1.9c4-0.3,7.7,1.3,11.6,1.8c1.8,0.2,4,0.4,5.7-0.3c1.3-0.6,2.8-2.9,1-3.8
				c0,0.2,0,0.4-0.1,0.6c0,0,0.1,0,0.2,0c0-0.1,0-0.3,0-0.4c0,0-0.1-0.1-0.1-0.2c0,0.2,0,0.3,0,0.5c0.3-0.2,0.7-0.4,1-0.5
				c0.3-0.2,0-0.7-0.3-0.5c-0.3,0.2-0.7,0.4-1,0.5c-0.2,0.1-0.2,0.4,0,0.5c0.3,0.1,0.6,0.3,0.8,0.1c0.1-0.1,0.1-0.3,0-0.4
				c-0.2-0.2-0.5-0.3-0.8-0.2c-0.2,0-0.3,0.4-0.1,0.6c1.1,0.5,0.1,2.1-0.7,2.6c-0.8,0.5-1.8,0.6-2.8,0.6c-2.5,0.1-5-0.5-7.4-1.1
				c-2.9-0.7-5.7-1.1-8.7-0.7c-3.2,0.5-6.3,1.5-9.5,1.8C61,90.1,61,90.8,61.4,90.7L61.4,90.7z"/>
		</g>
	</g>
</g>
<g>
	<g>
		<g>
			<path class="st0" d="M50,115.2c0.5-1.7,1.3-3.3,2.2-4.8c0.2-0.3-0.3-0.6-0.5-0.3c-0.9,1.6-1.7,3.2-2.3,4.9
				C49.3,115.4,49.9,115.5,50,115.2L50,115.2z"/>
		</g>
	</g>
</g>
<g>
	<g>
		<g>
			<path class="st0" d="M89.4,117c-0.5-1.6-0.9-3.3-1.4-4.9c-0.1-0.4-0.7-0.2-0.6,0.2c0.5,1.6,0.9,3.3,1.4,4.9
				C89,117.5,89.5,117.3,89.4,117L89.4,117z"/>
		</g>
	</g>
</g>
<g>
	<g>
		<g>
			<path class="st0" d="M102.3,114.5c-0.5-1.4-0.9-2.8-1.4-4.2c-0.1-0.4-0.7-0.2-0.6,0.2c0.5,1.4,0.9,2.8,1.4,4.2
				C101.8,115.1,102.4,114.9,102.3,114.5L102.3,114.5z"/>
		</g>
	</g>
</g>
<g>
	<g>
		<g>
			<path class="st0" d="M94.3,113.3c-0.2-0.8-0.3-1.6-0.5-2.4c-0.1-0.4-0.7-0.2-0.6,0.2c0.2,0.8,0.3,1.6,0.5,2.4
				C93.8,113.8,94.4,113.7,94.3,113.3L94.3,113.3z"/>
		</g>
	</g>
</g>
<g>
	<g>
		<g>
			<path class="st0" d="M55.7,113.8c0.6-0.9,0.9-1.8,0.9-2.9c0-0.4-0.6-0.4-0.6,0c0,0.9-0.3,1.8-0.8,2.6
				C55,113.8,55.5,114.2,55.7,113.8L55.7,113.8z"/>
		</g>
	</g>
</g>
<g>
	<g>
		<g>
			<path class="st0" d="M71,117.3c0-1.8,0.2-3.7,0.5-5.5c0-0.4-0.5-0.6-0.6-0.2c-0.3,1.9-0.5,3.8-0.5,5.7
				C70.4,117.7,71,117.7,71,117.3L71,117.3z"/>
		</g>
	</g>
</g>
<g>
	<g>
		<g>
			<path class="st0" d="M22.3,87.3c-1.5-5-2.6-11.7,2.3-15.3c3.8-2.8,9-2.4,13.5-2.2c3.8,0.2,7.5,0,11.3,0.3c3.8,0.3,7.9,1,10.9,3.5
				c1.7,1.5,2.9,3.6,3.2,5.9c0.3,3.1-0.8,6.1-1.8,9c-2.1,5.8-5.1,11.2-8.2,16.5c-1.4,2.3-2.8,4.5-4.1,6.8c-1,1.7-1.9,3.3-3,4.9
				c-0.9,1.3-2.4,3.7-4.2,3.9c-1.5,0.2-2.8-1.8-3.6-2.8c-1.3-1.6-2.4-3.4-3.5-5.1c-1.5-2.3-3.1-4.6-4.5-7
				C26.9,99.9,24.2,93.7,22.3,87.3c-0.1-0.4-0.7-0.2-0.6,0.2c1.9,6.1,4.4,12.1,7.6,17.6c1.5,2.6,3.1,5,4.8,7.5
				c1.1,1.7,2.1,3.3,3.3,4.9c0.9,1.3,2,2.8,3.5,3.5c1.3,0.6,2.6-0.3,3.5-1.2c1.5-1.4,2.7-3.3,3.8-5.1c1.2-2,2.4-4,3.6-6
				c3.5-5.6,6.8-11.3,9.3-17.4c2.1-5,4.7-11.4,1.2-16.4c-2.3-3.2-6.2-4.6-10-5.2c-4.2-0.7-8.4-0.5-12.6-0.6c-5.1-0.1-11-1-15.5,2.2
				c-5.1,3.7-4.1,10.7-2.6,16C21.8,87.8,22.4,87.7,22.3,87.3z"/>
		</g>
	</g>
</g>
<g>
	<g>
		<g>
			<path class="st0" d="M58,100c-0.2-0.2-0.5-0.3-0.7-0.5c-0.1-0.1-0.3,0-0.4,0.1c-0.1,0.1,0,0.3,0.1,0.4c0.2,0.2,0.5,0.3,0.7,0.5
				c0.1,0.1,0.3,0,0.4-0.1C58.2,100.2,58.1,100.1,58,100L58,100z"/>
		</g>
	</g>
</g>
<g>
	<g>
		<g>
			<path class="st0" d="M111.1,55.8c0.1,0.1-1.3,0.7-1.5,0.7c-0.5,0.1-0.9,0.3-1.4,0.4c-0.9,0.2-1.8,0.4-2.6,0.6
				c-0.4,0.1-0.2,0.7,0.2,0.6c1.7-0.3,3.7-0.7,5.3-1.5c0.6-0.3,1-0.9,0.4-1.4C111.1,55.1,110.8,55.6,111.1,55.8L111.1,55.8z"/>
		</g>
	</g>
</g>
<g>
	<g>
		<g>
			<path class="st0" d="M31.4,54.7c-0.7,1.9,1.4,3,2.9,3.6c2.4,1,4.8,1.7,7.4,2.1c0.4,0,0.6-0.5,0.2-0.6c-1.8-0.3-3.5-0.7-5.2-1.3
				c-1.4-0.5-5.4-1.6-4.6-3.7C32.2,54.5,31.6,54.3,31.4,54.7L31.4,54.7z"/>
		</g>
	</g>
</g>
<g>
	<g>
		<g>
			<path class="st0" d="M87.2,102.5c0,0.4,0.2,0.9,0.7,0.9c0.4,0,0.7-0.6,0.3-0.9c-0.1-0.1-0.3,0-0.4,0.1c-0.1,0.1,0,0.3,0.1,0.4
				c-0.1,0-0.1-0.1-0.1-0.2c0,0,0,0,0,0c0,0,0,0,0,0c0,0,0,0,0,0c0,0,0,0,0.1,0c0,0,0,0,0,0c0,0,0,0,0,0c0,0,0,0,0,0
				c0,0,0-0.1,0-0.1c0,0,0-0.1,0-0.1c0-0.2-0.1-0.3-0.3-0.3C87.3,102.2,87.1,102.3,87.2,102.5L87.2,102.5z"/>
		</g>
	</g>
</g>
<g>
	<g>
		<g>
			<path class="st0" d="M91.9,102.4c0.2-0.3,0.5-0.7,0.7-1c0.1-0.1,0-0.3-0.1-0.4c-0.1-0.1-0.3,0-0.4,0.1c-0.2,0.3-0.5,0.7-0.7,1
				c-0.1,0.1,0,0.3,0.1,0.4C91.6,102.6,91.8,102.5,91.9,102.4L91.9,102.4z"/>
		</g>
	</g>
</g>
<g>
	<g>
		<g>
			<path class="st0" d="M87.7,92.3c-0.1,0.1-0.2,0.3-0.3,0.4c-0.1,0.1,0,0.3,0.1,0.4c0.1,0.1,0.3,0,0.4-0.1c0.1-0.1,0.2-0.3,0.3-0.4
				c0.1-0.1,0-0.3-0.1-0.4C87.9,92.1,87.8,92.2,87.7,92.3L87.7,92.3z"/>
		</g>
	</g>
</g>
<g>
	<g>
		<g>
			<path class="st0" d="M90,91.2c0.2,0.2,0.5,0.5,0.7,0.7c0.3,0.3,0.7-0.1,0.4-0.4c-0.2-0.2-0.5-0.5-0.7-0.7
				C90.1,90.5,89.7,90.9,90,91.2L90,91.2z"/>
		</g>
	</g>
</g>
<g>
	<g>
		<g>
			<path class="st0" d="M68.3,99.5c2.8,0,5.7-0.1,8.5-0.4c0.4,0,0.4-0.6,0-0.6c-2.8,0.2-5.7,0.4-8.5,0.4
				C67.9,98.9,67.9,99.5,68.3,99.5L68.3,99.5z"/>
		</g>
	</g>
</g>
<g>
	<g>
		<g>
			<path class="st0" d="M67.9,99.3c-0.2-0.2-0.4-0.4-0.6-0.6c-0.1,0.1-0.2,0.3-0.3,0.4c3.3-0.4,6.6-0.5,9.9-0.4c0.4,0,0.4-0.6,0-0.6
				c-3.3-0.1-6.6,0.1-9.9,0.4c-0.2,0-0.4,0.2-0.3,0.4c0.2,0.5,0.4,0.7,0.9,1C68,100,68.3,99.5,67.9,99.3L67.9,99.3z"/>
		</g>
	</g>
</g>
<g>
	<g>
		<g>
			<path class="st0" d="M83.6,98.3c0-0.3,0.5-0.5,0.7-0.3c0-0.1,0-0.2,0-0.3c-0.2,0.3-0.3,0.6-0.5,0.9c0.1,0,0.2-0.1,0.3-0.1
				c-0.1,0-0.2,0-0.2-0.2c0-0.4-0.6-0.4-0.6,0c0,0.4,0.3,0.7,0.6,0.8c0.1,0,0.3,0,0.3-0.1c0.2-0.3,0.3-0.6,0.5-0.9
				c0-0.1,0.1-0.2,0-0.3C84.3,97,83,97.4,83,98.3C83,98.7,83.6,98.7,83.6,98.3L83.6,98.3z"/>
		</g>
	</g>
</g>
<g>
	<g>
		<g>
			<path class="st0" d="M95.5,95.4c0-0.2,0.2-0.5,0.4-0.6c0.2,0,0.4,0.2,0.4,0.4C96.4,95.6,95.8,95.8,95.5,95.4
				c-0.2-0.3-0.7,0-0.5,0.4c0.6,0.9,2.2,0.4,1.9-0.8c-0.1-0.4-0.6-0.9-1-0.8c-0.6,0.1-0.9,0.7-1,1.2C94.9,95.8,95.5,95.8,95.5,95.4
				L95.5,95.4z"/>
		</g>
	</g>
</g>
<g>
	<g>
		<g>
			<path class="st0" d="M101.2,92.7c-0.1-0.2,0.1-0.4,0.2-0.5c0.2-0.1,0.3,0.1,0.4,0.2C102,92.9,101.4,93.1,101.2,92.7
				c-0.2-0.3-0.7,0-0.5,0.3c0.2,0.4,0.8,0.6,1.3,0.4c0.5-0.2,0.7-0.8,0.5-1.3c-0.2-0.5-0.8-0.7-1.2-0.5c-0.5,0.2-0.7,0.8-0.5,1.3
				C100.8,93.4,101.4,93.1,101.2,92.7L101.2,92.7z"/>
		</g>
	</g>
</g>
<g>
	<g>
		<g>
			<path class="st0" d="M61.1,98.2c0.1-0.4,0.7-0.1,0.5,0.2c0.1,0,0.3-0.1,0.4-0.1c-0.4-0.2-0.8-0.3-1.1-0.5c-0.1-0.1-0.3,0-0.4,0.1
				c-0.1,0.1,0,0.3,0.1,0.4c0.4,0.2,0.8,0.3,1.1,0.5c0.1,0.1,0.3,0,0.4-0.1c0.2-0.5,0.1-1.1-0.4-1.3c-0.5-0.2-1.1,0.1-1.2,0.6
				C60.3,98.4,60.9,98.5,61.1,98.2L61.1,98.2z"/>
		</g>
	</g>
</g>
<g>
	<g>
		<g>
			<path class="st0" d="M61.3,100.8c-0.6,0.6-1.1,1.1-1.7,1.7c-0.3,0.3,0.1,0.7,0.4,0.4c0.6-0.6,1.1-1.1,1.7-1.7
				C62,100.9,61.5,100.5,61.3,100.8L61.3,100.8z"/>
		</g>
	</g>
</g>
<g>
	<g>
		<g>
			<path class="st0" d="M96.5,98.1c0.2,1,0.4,1.9,0.7,2.9c0.1,0.4,0.7,0.2,0.6-0.2c-0.2-1-0.4-1.9-0.7-2.9
				C97,97.6,96.4,97.8,96.5,98.1L96.5,98.1z"/>
		</g>
	</g>
</g>
<g>
	<g>
		<g>
			<path class="st0" d="M97.6,97.9c0.1,0.4,0.2,0.8,0.2,1.2c0.1,0.4,0.7,0.2,0.6-0.2c-0.1-0.4-0.2-0.8-0.2-1.2
				C98.1,97.4,97.5,97.5,97.6,97.9L97.6,97.9z"/>
		</g>
	</g>
</g>
<g>
	<g>
		<g>
			<path class="st0" d="M62.1,100.8c-0.2,0.2-0.3,0.5-0.5,0.7c-0.1,0.1,0,0.3,0.1,0.4c0.1,0.1,0.3,0,0.4-0.1
				c0.2-0.2,0.3-0.5,0.5-0.7c0.1-0.1,0-0.3-0.1-0.4C62.4,100.6,62.2,100.7,62.1,100.8L62.1,100.8z"/>
		</g>
	</g>
</g>
<g>
	<g>
		<g>
			<path class="st0" d="M74.3,103.6c-0.1,0.7-0.2,1.3-0.3,1.9c0,0.4,0.5,0.6,0.6,0.2c0.1-0.7,0.2-1.3,0.3-1.9
				C74.9,103.4,74.4,103.2,74.3,103.6L74.3,103.6z"/>
		</g>
	</g>
</g>
<g>
	<g>
		<g>
			<path class="st0" d="M75.9,103.6c-0.5,0.3-0.7,0.8-0.6,1.3c0,0.2,0.2,0.2,0.4,0.2c0.2,0,0.2-0.2,0.2-0.4c0-0.3,0.1-0.5,0.3-0.6
				C76.5,104,76.2,103.4,75.9,103.6L75.9,103.6z"/>
		</g>
	</g>
</g>
<g>
	<g>
		<g>
			<path class="st0" d="M67.4,26.2c3.5,0.7,6.9,0.7,10.4,0.1c0.4-0.1,0.2-0.7-0.2-0.6c-3.4,0.5-6.7,0.5-10.1-0.1
				C67.2,25.6,67,26.2,67.4,26.2L67.4,26.2z"/>
		</g>
	</g>
</g>
<g>
	<g>
		<g>
			<path class="st0" d="M70.9,22.8c1.4,0.1,2.8,0,4.2-0.3c0.4-0.1,0.2-0.7-0.2-0.6c-1.3,0.3-2.7,0.4-4.1,0.3
				C70.5,22.2,70.5,22.8,70.9,22.8L70.9,22.8z"/>
		</g>
	</g>
</g>
<g>
	<g>
		<g>
			<path class="st0" d="M71.5,20.1c0.6-0.1,1.1-0.2,1.7-0.2c0.4,0,0.2-0.6-0.2-0.6c-0.6,0.1-1.1,0.2-1.7,0.2
				C71,19.6,71.1,20.2,71.5,20.1L71.5,20.1z"/>
		</g>
	</g>
</g>
<g>
	<g>
		<g>
			<path class="st0" d="M55.5,24.2c1.8,0.6,3.7,0.1,4.9-1.3c0.2-0.3-0.2-0.7-0.4-0.4c-1.1,1.3-2.7,1.7-4.3,1.2
				C55.3,23.5,55.2,24.1,55.5,24.2L55.5,24.2z"/>
		</g>
	</g>
</g>
<g>
	<g>
		<g>
			<path class="st0" d="M80.1,20.7c0.7,1.7,2.4,2.7,4.2,2.7c0.4,0,0.4-0.6,0-0.6c-1.6,0-3-1-3.7-2.5C80.5,20,80,20.3,80.1,20.7
				L80.1,20.7z"/>
		</g>
	</g>
</g>
<g>
	<g>
		<g>
			<path class="st0" d="M97.7,50c3.7-1.1,7.7-0.5,10.8,1.8c0.3,0.2,0.6-0.3,0.3-0.5c-3.2-2.4-7.4-3.1-11.3-1.9
				C97.2,49.6,97.3,50.1,97.7,50L97.7,50z"/>
		</g>
	</g>
</g>
<g>
	<g>
		<g>
			<path class="st0" d="M34.5,52.4c4-1.1,8.1-0.9,12,0.4c0.4,0.1,0.5-0.5,0.2-0.6c-4-1.3-8.2-1.5-12.3-0.4
				C34,51.9,34.2,52.5,34.5,52.4L34.5,52.4z"/>
		</g>
	</g>
</g>
<g>
	<g>
		<g>
			<path class="st0" d="M58.4,74.5c4.1,2.4,3.7,7.7,2.2,11.5c-1.7,4.3-4,8.4-6.2,12.5c-2.2,4-4.5,7.9-6.9,11.8
				c-1.2,1.9-2.5,3.8-3.7,5.7c-0.5,0.8-0.9,1.9-2.2,1.1c-0.4-0.3-0.8-0.8-1-1.2c-0.8-0.9-1.5-1.9-2.3-2.8c-0.2-0.3-0.7,0.1-0.4,0.4
				c0.7,0.8,1.3,1.7,2,2.5c0.5,0.6,1,1.5,1.8,1.9c1.2,0.7,1.9-0.5,2.6-1.4c2.4-3.6,4.7-7.2,7-11c2.3-3.8,4.4-7.7,6.4-11.6
				c1.8-3.6,4.1-7.4,4.7-11.4c0.5-3.3-0.5-6.9-3.5-8.6C58.3,73.8,58,74.3,58.4,74.5L58.4,74.5z"/>
		</g>
	</g>
</g>
<g>
	<g>
		<g>
			<path class="st0" d="M34.8,108.7c-4.4-6.1-7.9-12.8-10.2-20c-1.1-3.3-2.4-7.1-2-10.6c0.5-4.4,4.4-6.6,8.5-6.8
				c2.2-0.1,4.4,0.1,6.7,0.4c2.3,0.2,4.6,0.5,6.9,0.8c0.4,0,0.4-0.6,0-0.6c-2.2-0.2-4.5-0.5-6.7-0.7c-2.2-0.2-4.4-0.5-6.7-0.4
				c-3.3,0.2-6.9,1.4-8.5,4.5c-1.6,3.2-0.8,7,0.1,10.2c1.1,3.9,2.5,7.8,4.2,11.5c2,4.3,4.4,8.3,7.1,12.1
				C34.5,109.3,35.1,109,34.8,108.7L34.8,108.7z"/>
		</g>
	</g>
</g>
<g>
	<g>
		<g>
			<path class="st0" d="M47,72.3c2.1,0.4,4.2,0.8,6.3,1.1c0.4,0.1,0.5-0.5,0.2-0.6c-2.1-0.4-4.2-0.8-6.3-1.1
				C46.8,71.7,46.6,72.3,47,72.3L47,72.3z"/>
		</g>
	</g>
</g>
<g>
	<g>
		<path d="M32.1,77.2c0.1,0,0.2,0,0.2,0.1c0,0.1,0.1,0.1,0.1,0.2s0,0.2-0.1,0.2c-0.1,0-0.1,0.1-0.2,0.1c-0.3,0-0.4,0.1-0.4,0.3
			l-0.1,1.4c0,0.3-0.1,0.5-0.3,0.7c0.1,0.2,0.2,0.4,0.1,0.7l-0.1,1.4c0,0.2,0.1,0.4,0.4,0.4c0.1,0,0.2,0,0.2,0.1
			c0,0.1,0.1,0.1,0.1,0.2s0,0.2-0.1,0.2c-0.1,0-0.1,0.1-0.2,0.1c-0.7-0.1-1-0.4-1-1.1l0.1-1.4c0-0.2-0.1-0.4-0.4-0.4
			c-0.1,0-0.2,0-0.2-0.1c0-0.1-0.1-0.1-0.1-0.2s0-0.2,0.1-0.2s0.1-0.1,0.2-0.1c0.3,0,0.4-0.1,0.4-0.3l0.1-1.4
			C31,77.4,31.4,77.1,32.1,77.2z"/>
	</g>
	<g>
		<path d="M43,82.7c0,0.1,0,0.2-0.1,0.4c0,0.1-0.1,0.2-0.1,0.3s-0.1,0.2-0.2,0.3c-0.1,0.1-0.1,0.1-0.2,0.1c-0.1,0-0.1,0-0.2-0.1
			c0,0-0.1-0.1,0-0.2c0-0.1,0-0.1,0.1-0.1c0,0,0.1-0.1,0.1-0.1c0-0.1,0-0.1-0.1-0.2c-0.1-0.1-0.1-0.2-0.1-0.3c0-0.1,0.1-0.2,0.2-0.3
			c0.1-0.1,0.2-0.1,0.3-0.1c0.1,0,0.2,0.1,0.3,0.1C42.9,82.5,43,82.6,43,82.7z M43.2,80.3c0,0.1-0.1,0.2-0.2,0.3
			c-0.1,0.1-0.2,0.1-0.3,0.1c-0.1,0-0.2-0.1-0.3-0.1c-0.1-0.1-0.1-0.2-0.1-0.3c0-0.1,0.1-0.2,0.2-0.3c0.1-0.1,0.2-0.1,0.3-0.1
			c0.1,0,0.2,0.1,0.3,0.1C43.2,80,43.2,80.1,43.2,80.3z"/>
	</g>
	<g>
		<path d="M48.3,79.9c0,0,0.1,0,0.2,0c0,0,0.1,0,0.1,0c0,0,0.1,0,0.1,0.1c0,0,0,0.1,0.1,0.1c0,0,0,0.1,0,0.1c0,0.1-0.1,0.2-0.2,0.2
			l-2.1,0.9l1.8,1.3c0.1,0.1,0.1,0.2,0.1,0.3c0,0.1,0,0.2-0.1,0.2c-0.1,0-0.1,0.1-0.2,0.1c-0.1,0-0.1,0-0.2,0l-2.3-1.6
			c-0.1-0.1-0.2-0.2-0.1-0.3c0-0.1,0.1-0.2,0.2-0.3L48.3,79.9z"/>
	</g>
	<g>
		<path d="M49.4,82.5c-0.1,0-0.2,0-0.2-0.1c0-0.1-0.1-0.1-0.1-0.2s0-0.2,0.1-0.2c0.1,0,0.1-0.1,0.2-0.1l1.5,0.1c0.1,0,0.2,0,0.2,0.1
			c0,0.1,0.1,0.1,0.1,0.2s0,0.2-0.1,0.2c-0.1,0-0.1,0.1-0.2,0.1L49.4,82.5z"/>
	</g>
	<g>
		<path d="M51.9,82.7c-0.1,0-0.2,0-0.2-0.1c0-0.1-0.1-0.1-0.1-0.2s0-0.2,0.1-0.2c0.1,0,0.1-0.1,0.2-0.1l1.5,0.1c0.1,0,0.2,0,0.2,0.1
			c0,0.1,0.1,0.1,0.1,0.2c0,0.1,0,0.2-0.1,0.2c-0.1,0-0.1,0.1-0.2,0.1L51.9,82.7z"/>
	</g>
	<g>
		<path d="M54.5,83c-0.1,0-0.2,0-0.2-0.1c0-0.1-0.1-0.1-0.1-0.2s0-0.2,0.1-0.2c0.1,0,0.1-0.1,0.2-0.1l1.5,0.1c0.1,0,0.2,0,0.2,0.1
			c0,0.1,0.1,0.1,0.1,0.2s0,0.2-0.1,0.2c-0.1,0-0.1,0.1-0.2,0.1L54.5,83z"/>
	</g>
	<g>
		<path d="M33.8,89.2c0,0.1,0,0.2-0.1,0.4c0,0.1-0.1,0.2-0.1,0.3c0,0.1-0.1,0.2-0.2,0.3s-0.1,0.1-0.2,0.1c-0.1,0-0.1,0-0.2-0.1
			s-0.1-0.1,0-0.2c0-0.1,0-0.1,0.1-0.2c0,0,0.1-0.1,0.1-0.1c0-0.1,0-0.1-0.1-0.2c-0.1-0.1-0.1-0.2-0.1-0.3s0.1-0.2,0.2-0.3
			c0.1-0.1,0.2-0.1,0.3-0.1s0.2,0.1,0.3,0.1C33.8,89,33.8,89.1,33.8,89.2z M34.1,86.7c0,0.1-0.1,0.2-0.2,0.3
			c-0.1,0.1-0.2,0.1-0.3,0.1c-0.1,0-0.2-0.1-0.3-0.1c-0.1-0.1-0.1-0.2-0.1-0.3c0-0.1,0.1-0.2,0.2-0.3s0.2-0.1,0.3-0.1
			c0.1,0,0.2,0.1,0.3,0.1C34,86.5,34.1,86.6,34.1,86.7z"/>
	</g>
	<g>
		<path d="M39.1,86.4c0,0,0.1,0,0.2,0c0,0,0.1,0,0.1,0c0,0,0.1,0,0.1,0.1c0,0,0,0.1,0.1,0.1c0,0,0,0.1,0,0.1c0,0.1-0.1,0.2-0.2,0.2
			l-2.1,0.9l1.8,1.3c0.1,0.1,0.1,0.2,0.1,0.3c0,0.1,0,0.2-0.1,0.2c-0.1,0-0.1,0.1-0.2,0.1c-0.1,0-0.1,0-0.2,0L36.5,88
			c-0.1-0.1-0.2-0.2-0.1-0.3c0-0.1,0.1-0.2,0.2-0.3L39.1,86.4z"/>
	</g>
	<g>
		<path d="M40.2,88.9c-0.1,0-0.2,0-0.2-0.1c0-0.1-0.1-0.1-0.1-0.2s0-0.2,0.1-0.2c0.1,0,0.1-0.1,0.2-0.1l1.5,0.1c0.1,0,0.2,0,0.2,0.1
			c0,0.1,0.1,0.1,0.1,0.2s0,0.2-0.1,0.2c-0.1,0-0.1,0.1-0.2,0.1L40.2,88.9z"/>
	</g>
	<g>
		<path d="M42.8,89.2c-0.1,0-0.2,0-0.2-0.1c0-0.1-0.1-0.1-0.1-0.2s0-0.2,0.1-0.2c0.1,0,0.1-0.1,0.2-0.1l1.5,0.1c0.1,0,0.2,0,0.2,0.1
			c0,0.1,0.1,0.1,0.1,0.2c0,0.1,0,0.2-0.1,0.2c-0.1,0-0.1,0.1-0.2,0.1L42.8,89.2z"/>
	</g>
	<g>
		<path d="M45.4,89.4c-0.1,0-0.2,0-0.2-0.1c0-0.1-0.1-0.1-0.1-0.2s0-0.2,0.1-0.2c0.1,0,0.1-0.1,0.2-0.1l1.5,0.1c0.1,0,0.2,0,0.2,0.1
			c0,0.1,0.1,0.1,0.1,0.2s0,0.2-0.1,0.2c-0.1,0-0.1,0.1-0.2,0.1L45.4,89.4z"/>
	</g>
	<g>
		<path d="M36.4,92.5c0.1,0,0.2,0,0.2,0.1c0,0.1,0.1,0.1,0.1,0.2s0,0.2-0.1,0.2c-0.1,0-0.1,0.1-0.2,0.1c-0.3,0-0.4,0.1-0.4,0.3
			l-0.1,1.4c0,0.3-0.1,0.5-0.3,0.7c0.1,0.2,0.2,0.4,0.1,0.7l-0.1,1.4c0,0.2,0.1,0.4,0.4,0.4c0.1,0,0.2,0,0.2,0.1
			c0.1,0.1,0.1,0.1,0.1,0.2s0,0.2-0.1,0.2c-0.1,0-0.1,0.1-0.2,0.1c-0.7-0.1-1-0.4-1-1.1l0.1-1.4c0-0.2-0.1-0.4-0.4-0.4
			c-0.1,0-0.2,0-0.2-0.1c0-0.1-0.1-0.1-0.1-0.2s0-0.2,0.1-0.2c0.1,0,0.1-0.1,0.2-0.1c0.3,0,0.4-0.1,0.4-0.3l0.1-1.4
			C35.2,92.7,35.6,92.4,36.4,92.5z"/>
	</g>
</g>
<g>
	<g>
		<g>
			<path class="st0" d="M110.6,88.6c0-0.8-0.1-1.5,0-2.3c0-0.5,0.1-1,0.2-1.5c0-0.1,0-0.3,0.1-0.4c0.1-0.7,0.8-0.8,1.9,0
				c0.4,0.6,0.3,1.6,0.3,2.3c0,0.9,0,1.7,0,2.6c0,0.4,0.6,0.4,0.6,0c0.1-1.6,0.5-6.1-1.8-6.5c-2.4-0.4-2,4.5-2,5.8
				C110,89,110.6,89,110.6,88.6L110.6,88.6z"/>
		</g>
	</g>
</g>
<g>
	<g>
		<g>
			<path class="st0" d="M110.4,89.1c-1.3-0.5-2.6-0.3-3.7,0.6c-0.1,0.1-0.1,0.3,0,0.4c1,1.3,2.6,1.8,4.2,1.8c2.5,0.1,5-0.3,7.4-1
				c0.2-0.1,0.3-0.4,0.1-0.6c-2.8-1.3-5.8-1.2-8.8-1c-0.4,0-0.4,0.6,0,0.6c2.8-0.2,5.8-0.3,8.4,0.9c0-0.2,0-0.4,0.1-0.6
				c-2.4,0.7-4.8,1-7.2,0.9c-1,0-2-0.2-2.9-0.7s-0.3-0.9,0.4-1.1c0.6-0.1,1.2,0,1.8,0.2C110.6,89.8,110.7,89.2,110.4,89.1
				L110.4,89.1z"/>
		</g>
	</g>
</g>
<g>
	<g>
		<g>
			<path class="st0" d="M110.4,89.4c-0.7-0.4-1.7,0-1.8,0.7c-0.2,0.9,0.7,1.7,1.6,1.4c0.4-0.1,0.2-0.7-0.2-0.6
				c-0.4,0.1-0.9-0.3-0.8-0.7c0.1-0.4,0.6-0.5,0.9-0.3C110.4,90.1,110.7,89.6,110.4,89.4L110.4,89.4z"/>
		</g>
	</g>
</g>
<g>
	<g>
		<g>
			<path class="st0" d="M113.7,89.9c0.9,0,1.7,0,2.6,0c0.4,0,0.8,0,1.2,0c0.2,0,0.4,0,0.6,0c0.2,0.7,0,1-0.5,0.8
				c-0.4,0-0.4,0.6,0,0.6c0.6,0,1.3,0,1.6-0.6c0.2-0.4,0.2-0.9-0.1-1.2c-0.4-0.4-1.3-0.3-1.8-0.3c-1.2,0-2.4,0-3.6,0
				C113.3,89.3,113.3,89.9,113.7,89.9L113.7,89.9z"/>
		</g>
	</g>
</g>
<g>
	<g>
		<g>
			<path class="st0" d="M113.5,91.8c0.1,6.1,0,12.3-0.2,18.4c-0.1,3-0.3,6.1-0.5,9.1c-0.1,1.5-0.2,3-0.4,4.5
				c-0.1,1.6-0.3,3.2-1.1,4.7c0.2,0,0.3,0,0.5,0c-2.4-4.3-3.4-9.2-2.9-14.1c0-0.4-0.6-0.4-0.6,0c-0.5,5,0.5,10,3,14.4
				c0.1,0.2,0.4,0.2,0.5,0c1.2-2.4,1.2-5.3,1.4-7.9c0.3-3.3,0.5-6.5,0.6-9.8c0.3-6.4,0.4-12.9,0.3-19.3
				C114.1,91.4,113.5,91.4,113.5,91.8L113.5,91.8z"/>
		</g>
	</g>
</g>
<g>
	<g>
		<g>
			<path class="st0" d="M110,102.9c-0.1-3.6,0.1-7.3,0.5-10.9c0-0.4-0.6-0.4-0.6,0c-0.4,3.6-0.6,7.3-0.5,10.9
				C109.4,103.3,110,103.3,110,102.9L110,102.9z"/>
		</g>
	</g>
</g>
<g>
	<g>
		<g>
			<path class="st0" d="M112.8,84c1.2-0.5,1.7-2,0.8-3c-0.2-0.3-0.7,0.1-0.4,0.4c0.6,0.7,0.3,1.7-0.5,2
				C112.3,83.6,112.5,84.2,112.8,84L112.8,84z"/>
		</g>
	</g>
</g>
<g>
	<g>
		<g>
			<path class="st0" d="M110.8,84.1c-0.5,0-0.9-0.4-0.9-0.9c0-0.4-0.7-0.4-0.6,0c0.1,0.8,0.7,1.5,1.5,1.5
				C111.2,84.7,111.2,84,110.8,84.1L110.8,84.1z"/>
		</g>
	</g>
</g>
<g>
	<g>
		<g>
			<path class="st0" d="M111.7,91.7c0.9,12.1-2.4,24.1-0.9,36.2c0,0.4,0.7,0.4,0.6,0c-1.4-12.1,1.8-24.1,0.9-36.2
				C112.3,91.3,111.7,91.3,111.7,91.7L111.7,91.7z"/>
		</g>
	</g>
</g>
</svg>
