<?xml version="1.0" encoding="utf-8"?>
<!-- Generator: Adobe Illustrator 24.0.1, SVG Export Plug-In . SVG Version: 6.00 Build 0)  -->
<svg version="1.1" id="Layer_1" xmlns="http://www.w3.org/2000/svg" xmlns:xlink="http://www.w3.org/1999/xlink" x="0px" y="0px"
	 viewBox="0 0 141.7 141.7" style="enable-background:new 0 0 141.7 141.7;" xml:space="preserve">
<style type="text/css">
	.st0{fill:#231F20;}
	.st1{fill:#070707;}
</style>
<g id="Layer_1_1_">
</g>
<g id="Layer_1_2_">
</g>
<g id="Layer_1_3_">
</g>
<g id="Layer_1_4_">
</g>
<g id="Layer_1_5_">
</g>
<g id="Layer_3">
</g>
<g id="Layer_3_1_">
</g>
<g>
	<g>
		<g>
			<path class="st0" d="M44.2,113.9c-1.9-1.4-3.5-3.2-4.7-5.2c-0.7-1.2-1.3-2.5-2.3-3.3c-0.4-0.3-0.8-0.5-1.3-0.7
				c-0.8-0.3-2.5-0.4-2.4-1.6c0-0.4,0.4-1,0.6-1.4c0.2-0.5,0.4-1.1,0.5-1.6c0.2-1.1,0.3-2.2,0.3-3.3c0-2.3-0.5-4.9,0-7.1
				c0.2-0.9,0.8-1.5,1.2-2.3c0.5-0.9,0.7-1.8,0.9-2.8c0.4-2.3,0.6-4.6,0.9-6.9c0.4-2.6,0.7-5.2,0.7-7.8c0.1-6-1.5-11.9-0.6-17.9
				c0.1-0.6-0.8-0.9-0.9-0.3c-0.8,5.3,0.4,10.6,0.6,15.9c0.2,5.3-0.8,10.7-1.5,16c-0.2,1.3-0.4,2.4-1.1,3.5
				c-0.4,0.7-0.9,1.4-1.1,2.3c-0.6,2.2-0.1,4.7-0.1,7c0,1.3-0.1,2.6-0.4,3.9c-0.3,1-1.1,2.1-1.1,3.1c-0.1,1.7,2,1.7,3.1,2.2
				c1.7,0.7,2.3,2.3,3.2,3.8c1.3,2.1,2.9,3.9,4.9,5.4C44.3,115,44.7,114.2,44.2,113.9L44.2,113.9z"/>
		</g>
	</g>
	<g>
		<g>
			<path class="st0" d="M75.1,123.8c-8.4-1.4-16.5-3.6-24.5-6.7c-0.6-0.2-0.8,0.7-0.3,0.9c7.9,3.1,16.1,5.3,24.5,6.7
				C75.4,124.8,75.7,123.9,75.1,123.8L75.1,123.8z"/>
		</g>
	</g>
	<g>
		<g>
			<path class="st0" d="M109.4,99.6c-0.2,2.1-0.3,4.1,0.1,6.1c0,0.2,0.2,0.3,0.3,0.3c0.9,0.2,2,0.4,2.7,1c0.7,0.7,0.5,1.6-0.6,1.8
				c-1,0.2-1.9,0.2-2.6,0.9c-1,1.1-1.8,2.4-2.8,3.6c-0.9,1.1-1.8,2.2-2.8,3.2c-4.1,4.3-9.2,7.5-15.3,7.4c-0.6,0-0.6,0.9,0,1
				c7.8,0.2,13.9-4.9,18.6-10.7c0.6-0.7,1.1-1.4,1.6-2.1c0.7-0.9,1.2-2,2.3-2.2c1.1-0.2,2.9-0.2,3-1.7c0.1-1.2-0.9-2.2-1.9-2.6
				c-0.4-0.2-1.3-0.3-1.6-0.5c-0.5-0.4-0.4-1.4-0.4-2c0-1.2,0.1-2.5,0.2-3.7C110.4,99,109.4,99,109.4,99.6L109.4,99.6z"/>
		</g>
	</g>
	<g>
		<g>
			<path class="st0" d="M100.4,50.4c-0.2,2.2-0.3,4.4-0.3,6.6c0,0.6,1,0.6,1,0c0-2.2,0.1-4.4,0.3-6.6
				C101.4,49.8,100.5,49.8,100.4,50.4L100.4,50.4z"/>
		</g>
	</g>
	<g>
		<g>
			<path class="st0" d="M98.3,32.8c1.8,3.1,2.5,6.7,3,10.2c0.1,0.6,1,0.4,0.9-0.3c-0.6-3.6-1.3-7.3-3.1-10.4
				C98.8,31.8,98,32.3,98.3,32.8L98.3,32.8z"/>
		</g>
	</g>
	<g>
		<g>
			<path class="st0" d="M67.3,18.1c6.3-0.8,12.8,0,18.5,2.8c5.4,2.6,9.6,6.9,12.5,12.1c0.3,0.5,1.1,0.1,0.8-0.5
				c-2.9-5.3-7.3-9.7-12.8-12.4c-5.9-2.9-12.5-3.7-19-3C66.7,17.2,66.7,18.1,67.3,18.1L67.3,18.1z"/>
		</g>
	</g>
	<g>
		<g>
			<path class="st0" d="M46.5,29.8c0.1-0.5,0.2-0.9,0.4-1.3c0.3-0.5-0.5-1-0.8-0.5c-0.3,0.6-0.5,1.2-0.6,1.8c0,0.3,0.3,0.5,0.5,0.5
				C46.3,30.3,46.5,30.1,46.5,29.8L46.5,29.8z"/>
		</g>
	</g>
	<path class="st1" d="M50.8,32c-1.5,0.1-2.7,1.3-2.6,2.8c0.1,1.5,1.3,2.7,2.8,2.6c1.5-0.1,2.7-1.3,2.6-2.8S52.3,31.9,50.8,32z
		 M52.1,36.4c-0.4,0-0.8-0.3-0.8-0.8c0-0.4,0.3-0.8,0.8-0.8c0.4,0,0.8,0.3,0.8,0.8C52.8,36.1,52.5,36.4,52.1,36.4z"/>
	<g>
		<g>
			<path class="st0" d="M38.8,47.6c0.4,0.1,0.7,0.1,1.1,0.1c0.4,0,0.4-0.6,0-0.6c-0.3,0-0.6,0-0.9-0.1c-0.2,0-0.3,0.1-0.4,0.2
				C38.5,47.3,38.6,47.6,38.8,47.6L38.8,47.6z"/>
		</g>
	</g>
	<g>
		<g>
			<path class="st0" d="M46.2,28.4c-7.8-1.4-16.2,7.3-12.6,15c0.2,0.4,0.7,0.1,0.6-0.3c-3.3-7.2,4.7-15.4,11.9-14.1
				C46.4,29.1,46.6,28.5,46.2,28.4L46.2,28.4z"/>
		</g>
	</g>
	<g>
		<g>
			<path class="st0" d="M44.6,49.6c-1.1-0.3-1.8,0.4-2.8,0.7c-1.9,0.5-2.1-2.3-1.5-3.4c0.3-0.5-0.5-1-0.8-0.5
				c-0.8,1.3-0.7,3.1,0.5,4.2c0.5,0.5,1.2,0.8,1.9,0.6c0.8-0.2,1.6-1,2.5-0.8C44.9,50.7,45.2,49.8,44.6,49.6L44.6,49.6z"/>
		</g>
	</g>
	<g>
		<path class="st0" d="M39.8,46.5c0.1,0.5,0.7,0.9,1.2,0.9c0.5,0.1,1.1-0.2,1.6-0.3c0.9-0.3,1.7-0.7,2.6-1c0.8-0.3,1.7-0.6,2.3-1.2
			c0.6-0.6,0.9-1.6,0.5-2.4c-0.2-0.4-0.6-0.7-1-0.9c-1.6-0.9-3.8-1-5.3,0.1c-1.6,1-2.4,3.2-1.6,4.9"/>
	</g>
	<g>
		<g>
			<path class="st0" d="M47.6,42.7c2,0.8,4.2,3.3,2,5.2c-1.6,1.4-4,1.1-5.9,1.5c-0.6,0.1-0.4,1,0.3,0.9c2.5-0.5,6.2-0.3,7.3-3.2
				c0.9-2.5-1.2-4.6-3.4-5.4C47.2,41.6,47,42.5,47.6,42.7L47.6,42.7z"/>
		</g>
	</g>
	<g>
		<g>
			<path class="st0" d="M47.2,49.7c0.2,1.4,0.3,3-0.4,4.2c-0.2,0.4-0.7,1.1-1.2,0.5c-0.2-0.2-0.3-0.9-0.4-1.2
				c-0.2-1-0.3-1.9-0.3-2.9c0-0.6-0.9-0.6-1,0c-0.1,1.2,0.1,6.2,2.4,5.3c2.2-0.9,2-4.1,1.8-5.9C48.1,49.1,47.1,49.1,47.2,49.7
				L47.2,49.7z"/>
		</g>
	</g>
	<g>
		<g>
			<path class="st0" d="M45.7,55c-2.1-0.2-3.2-2.2-2.4-4.1c0.2-0.6-0.7-0.8-0.9-0.3c-1,2.5,0.7,5.1,3.3,5.3C46.3,56,46.3,55,45.7,55
				L45.7,55z"/>
		</g>
	</g>
	<g>
		<g>
			<path class="st1" d="M46.5,114c2.6-0.5,3,2.9,4.2,4.5c0.1-0.2,0.2-0.4,0.3-0.5c-1.5-0.2-2.8,0.4-4.2,0.9
				c-1.6,0.6-3.8,1.5-4.9-0.3c-1.9-3,3.5-4.2,5.4-4.6c0.4-0.1,0.2-0.7-0.2-0.6c-2.1,0.4-7.2,1.6-6.2,4.7c1.5,4.7,7,0.1,9.8,0.5
				c0.3,0.1,0.5-0.3,0.3-0.5c-1.5-1.8-1.8-5.2-4.9-4.6C46,113.5,46.1,114.1,46.5,114L46.5,114z"/>
		</g>
	</g>
	<g>
		<g>
			<path class="st1" d="M42.2,118.7c0-1.4,1.4-2.2,2.6-2.4c0.4-0.1,0.2-0.7-0.2-0.6c-1.5,0.3-3,1.3-3,3
				C41.6,119.2,42.2,119.2,42.2,118.7L42.2,118.7z"/>
		</g>
	</g>
	<g>
		<g>
			<path class="st1" d="M80.1,120.9c3.5-2.1,5.7,2.4,8.3,4c0-0.2,0.1-0.4,0.1-0.6c-2.1,0.4-3.7,2-5.2,3.3c-1.6,1.4-3.9,3.7-6.3,2.5
				c-5.8-2.7,1.6-8.2,4.3-9.8c0.4-0.2,0-0.8-0.3-0.6c-2.9,1.7-9.7,6.5-5.4,10.1c4.7,4,8.8-4.2,13.1-5.1c0.3-0.1,0.3-0.5,0.1-0.6
				c-2.8-1.7-5.1-6.3-8.9-4C79.4,120.6,79.8,121.1,80.1,120.9L80.1,120.9z"/>
		</g>
	</g>
	<g>
		<g>
			<path class="st1" d="M76.6,129.8c-0.7-2,0.7-3.8,2.4-4.8c0.4-0.2,0-0.8-0.3-0.6c-1.9,1.2-3.5,3.2-2.6,5.5
				C76.1,130.3,76.8,130.2,76.6,129.8L76.6,129.8z"/>
		</g>
	</g>
	<g>
		<g>
			<path class="st1" d="M89.9,22.1c3.6-2.6,9.8-4.5,13-0.4c2.9,3.8,2.4,10.4-2.7,12c-0.4,0.1-0.2,0.7,0.2,0.6
				c5.3-1.7,6.2-8.4,3.3-12.6c-3.3-4.9-10-3.2-14.1-0.2C89.2,21.8,89.6,22.3,89.9,22.1L89.9,22.1z"/>
		</g>
	</g>
	<path class="st1" d="M99.5,25.9c-0.2-1.3-1.4-2.1-2.6-1.9c-1.3,0.2-2.1,1.4-1.9,2.6c0.2,1.3,1.4,2.1,2.6,1.9
		C98.8,28.4,99.6,27.2,99.5,25.9z"/>
	<path class="st1" d="M35.6,35.2c-1.5,0.1-2.7,1.3-2.6,2.8c0.1,1.5,1.3,2.7,2.8,2.6c1.5-0.1,2.7-1.3,2.6-2.8
		C38.3,36.3,37.1,35.2,35.6,35.2z M36.8,39.7c-0.4,0-0.8-0.3-0.8-0.8s0.3-0.8,0.8-0.8c0.4,0,0.8,0.3,0.8,0.8
		C37.6,39.3,37.3,39.6,36.8,39.7z"/>
	<g>
		<g>
			<path class="st0" d="M44.6,40.5c-1.6-2.8-0.9-6.2,0.9-8.7c1.8-2.4,4.7-3.9,7.7-4.4c3-0.5,6.3,0.2,8.7,2.1
				c2.9,2.3,3.4,5.7,2.2,9.1c-0.1,0.4,0.5,0.6,0.6,0.2c1.2-3.4,0.7-7-2.1-9.4c-2.5-2.2-6-3-9.3-2.6c-3.3,0.5-6.5,2.1-8.5,4.9
				c-1.9,2.7-2.5,6.2-0.8,9.2C44.3,41.2,44.8,40.9,44.6,40.5L44.6,40.5z"/>
		</g>
	</g>
	<g>
		<g>
			<path class="st1" d="M37.8,69.1c-2.6,0.1-5.3,0.8-7.4,2.5c-1.6,1.3-2.4,3.3-0.6,4.8c0.3,0.3,0.8-0.2,0.5-0.5
				c-2.1-1.7,0.1-3.7,1.8-4.6c1.8-1,3.7-1.5,5.7-1.5C38.2,69.7,38.2,69.1,37.8,69.1L37.8,69.1z"/>
		</g>
	</g>
	<g>
		<g>
			<path class="st1" d="M32.9,74.3c-1.6,0.4-3.9,2-2.3,3.7c1.8,2,5.2,0.5,7.1-0.6c0.4-0.2,0-0.8-0.3-0.6c-1.4,0.8-3.3,1.8-5,1.4
				c-1.2-0.3-2.1-1.5-1.1-2.5c0.5-0.5,1.2-0.8,1.9-0.9C33.4,74.9,33.2,74.2,32.9,74.3L32.9,74.3z"/>
		</g>
	</g>
	<g>
		<g>
			<path class="st1" d="M68.2,17.4c0.8-3.2,4.8-4.5,7.8-3.9c2.8,0.5,4.9,2.7,5.7,5.3c0.1,0.4,0.7,0.2,0.6-0.2
				c-0.9-3.1-3.6-5.5-6.8-5.9c-3.1-0.4-7.1,1.2-7.9,4.5C67.5,17.6,68.1,17.8,68.2,17.4L68.2,17.4z"/>
		</g>
	</g>
	<g>
		<g>
			<path class="st0" d="M52,39.2c3-0.3,6-0.3,9.1-0.1c1.7,0.1,4.3,1,5.2-1c0.9-1.9,0.6-4.7,0.2-6.7c-0.4-1.9-1.5-3.7-3.3-4.5
				c-2.3-1-4.8-0.6-7.2-0.3c-3.1,0.3-6.1,0.6-9.2,0.9c-5,0.6-10.2,1.3-14.5,4c-2,1.3-3.8,3.2-4.1,5.7c-0.4,2.9,1.1,5.6,2.5,7.9
				c0.3,0.5,1.1,0.1,0.8-0.5c-1.2-2-2.5-4.1-2.5-6.5c0-2.5,1.6-4.4,3.6-5.7c3.7-2.5,8.3-3.3,12.6-3.8c4.5-0.6,9-1.1,13.5-1.4
				c2.3-0.2,4.8,0.2,6.1,2.3c1,1.7,1.2,4,1,5.9c-0.1,1.3-0.2,2.9-1.8,2.9c-1.2,0-2.4-0.3-3.7-0.3c-2.8-0.2-5.6-0.1-8.4,0.1
				C51.4,38.3,51.4,39.3,52,39.2L52,39.2z"/>
		</g>
	</g>
	<g>
		<g>
			<path class="st0" d="M31.6,45.1c1.6-0.8,3.3-1.6,5-2.3c0.6-0.2,0.3-1.1-0.3-0.9c-1.8,0.7-3.5,1.5-5.3,2.3
				C30.6,44.6,31.1,45.4,31.6,45.1L31.6,45.1z"/>
		</g>
	</g>
	<g>
		<g>
			<path class="st0" d="M30.9,45.6c1.3,3.3,1.9,6.8,1.8,10.4c0,0.5,0.6,0.6,0.9,0.2c1.7-2.5,3.9-4.4,6.5-5.7
				c0.6-0.3,0.1-1.1-0.5-0.8c-2.8,1.4-5.1,3.4-6.9,6c0.3,0.1,0.6,0.2,0.9,0.2c0.2-3.7-0.5-7.3-1.8-10.6C31.6,44.8,30.7,45,30.9,45.6
				L30.9,45.6z"/>
		</g>
	</g>
	<g>
		<g>
			<path class="st0" d="M49.6,48.8c17.7-3.8,37.3-4.9,53.8,3.8c0.3,0.2,0.9-0.1,0.7-0.5c-1.4-3.2-2-6.6-2-10.2c0-0.6-0.9-0.6-1,0
				c0,3.6,0.7,7.1,2.1,10.4c0.2-0.2,0.5-0.4,0.7-0.5C91,45,76,44,61.7,45.8c-4.1,0.5-8.2,1.2-12.3,2.1C48.8,48,49,48.9,49.6,48.8
				L49.6,48.8z"/>
		</g>
	</g>
	<g>
		<g>
			<path class="st0" d="M28.5,37.9c-1.5-4.2-2.4-8.5-2.9-12.9c-0.1,0.2-0.2,0.3-0.4,0.5c14.6-4.9,29.9-6.4,45.2-7.8
				c0.6-0.1,0.6-1,0-0.9c-15.3,1.4-30.8,2.9-45.5,7.9c-0.2,0.1-0.4,0.3-0.4,0.5c0.4,4.5,1.4,8.9,2.9,13.1
				C27.8,38.7,28.7,38.5,28.5,37.9L28.5,37.9z"/>
		</g>
	</g>
	<g>
		<g>
			<path class="st0" d="M25,24.2c-0.2-0.7-0.1-1.1,0.4-1.3c0.2-0.1,0.4-0.2,0.5-0.3c0.5-0.2,0.9-0.4,1.4-0.6
				c0.9-0.4,1.8-0.8,2.7-1.1c1.7-0.6,3.5-1.2,5.2-1.6c3.7-1,7.5-1.6,11.3-1.9c7.6-0.6,15.2,0,22.7,1.4c0.6,0.1,0.9-0.8,0.3-0.9
				c-8.9-1.6-18.1-2.2-27-1c-4.5,0.6-8.9,1.7-13.1,3.2c-1,0.4-2,0.8-2.9,1.2c-0.8,0.4-1.9,0.7-2.4,1.5c-0.7,0.9-0.3,2.3,1,2.3
				C25.6,25.2,25.6,24.2,25,24.2L25,24.2z"/>
		</g>
	</g>
	<g>
		<g>
			<path class="st0" d="M33,55c0,0.3,0,0.6-0.3,0.8c-0.2,0.2-0.2,0.6,0.1,0.7c1.3,0.7,2.8,0.9,4.3,0.6c0.6-0.1,0.4-1-0.3-0.9
				c-1.2,0.3-2.4,0.1-3.5-0.5c0,0.3,0.1,0.5,0.1,0.7c0.4-0.5,0.6-0.9,0.5-1.5C33.9,54.4,32.9,54.4,33,55L33,55z"/>
		</g>
	</g>
	<g>
		<g>
			<path class="st0" d="M103.8,52.9c0.9,0.2-0.9,1.2-1.1,1.3c-0.6,0.3-1.3,0.5-1.9,0.3c-0.6-0.2-0.8,0.7-0.3,0.9
				c1.2,0.4,2.8-0.3,3.8-1.1c0.8-0.6,1-2.1-0.2-2.4C103.5,51.8,103.2,52.7,103.8,52.9L103.8,52.9z"/>
		</g>
	</g>
	<g>
		<g>
			<path class="st0" d="M68.6,17.7c4.5,8.3,6.4,17.7,5.7,27c-0.1,0.6,0.9,0.6,1,0c0.8-9.5-1.3-19.1-5.8-27.5
				C69.2,16.7,68.4,17.1,68.6,17.7L68.6,17.7z"/>
		</g>
	</g>
	<g>
		<g>
			<path class="st0" d="M36,43.2c1.1-1.7,2.1,2.4,2.2,2.9c0.3,1.4,0.4,2.9,0.3,4.4c0,0.6,0.9,0.6,1,0c0.1-2.3,0-5.2-1.1-7.3
				c-0.7-1.2-2.3-1.8-3.2-0.5C34.8,43.2,35.6,43.7,36,43.2L36,43.2z"/>
		</g>
	</g>
	<g>
		<g>
			<path class="st0" d="M52.6,38.2c-3,1.8-2.1,6.8-1.6,9.7c0.1,0.6,1,0.4,0.9-0.3c-0.4-2.3-1.4-7.1,1.1-8.6
				C53.5,38.7,53.1,37.9,52.6,38.2L52.6,38.2z"/>
		</g>
	</g>
	<g>
		<g>
			<path class="st0" d="M114.7,77.6C110.2,88.4,103,97.8,95,106.2c-0.9,0.9-1.8,1.8-2.7,2.7c-1,1-2.1,2.4-3.6,2.8
				c-2.4,0.6-4.6-2.4-6.2-3.8c-4.7-3.8-9-7.8-13-12.4c-4-4.6-7.3-9.6-10.2-15c-1.5-2.7-3.1-5.5-4.2-8.4c-0.6-1.4-0.8-2.9,0.1-4.2
				c0.8-1.2,2.3-1.9,3.7-2.4c11.1-4.6,22.9-7.3,35-7.6c6.7-0.1,13.4,0.5,19.9,2.1c1.6,0.4,3.8,0.6,4.3,2.4c0.4,1.6,0,3.5-0.3,5
				C117.1,71,116,74.4,114.7,77.6c-0.2,0.6,0.7,0.8,0.9,0.3c1.3-3.2,2.3-6.5,2.9-9.9c0.4-2.1,1.3-5.5-0.5-7.3
				c-0.9-0.9-2.3-1.1-3.5-1.4c-1.6-0.4-3.2-0.8-4.9-1.1c-3.1-0.6-6.2-0.9-9.4-1.1c-13.2-0.8-26.5,1.6-38.8,6.3
				c-2.3,0.9-5.3,1.7-6.9,3.7c-1.8,2.3-0.5,5,0.6,7.3c3,6,6.1,12,10.2,17.4c4,5.3,8.5,10.1,13.5,14.4c1.1,0.9,2.2,1.8,3.3,2.7
				c1,0.9,2,1.9,3,2.6c2.1,1.5,4,1.5,5.9-0.2c2.5-2.1,4.7-4.7,6.9-7.1c2.3-2.5,4.5-5.2,6.6-7.9c4.4-5.7,8.2-11.8,10.9-18.4
				C115.8,77.3,114.9,77.1,114.7,77.6z"/>
		</g>
	</g>
	<g>
		<g>
			<path class="st1" d="M36.7,82.7c1.2,1.2,2.8,1.7,4.5,2.1c2.3,0.6,4.7,1.3,7.1,1.8c2.2,0.5,4.4,0.7,6.6,0.4c2.2-0.3,4.3-1,6.4-1.7
				c-0.1-0.2-0.2-0.4-0.3-0.5c-0.2,0.2-0.3,0.4-0.5,0.5c-0.3,0.3,0.2,0.8,0.5,0.5c0.2-0.2,0.3-0.4,0.5-0.5c0.2-0.2,0-0.6-0.3-0.5
				c-1.9,0.7-3.9,1.3-5.8,1.6c-2.3,0.4-4.5,0.2-6.8-0.3c-2-0.5-4.1-1-6.1-1.5c-1.8-0.5-3.8-0.8-5.1-2.2C36.9,82,36.4,82.4,36.7,82.7
				L36.7,82.7z"/>
		</g>
	</g>
	<g>
		<g>
			<path class="st1" d="M35.9,86c-1,2,10.7,4.5,12.2,4.8c5.3,0.8,10.7,0.4,15.9-1.1c0.4-0.1,0.2-0.7-0.2-0.6
				c-4.5,1.3-9.1,1.7-13.7,1.3c-2.3-0.2-4.6-0.7-6.9-1.3c-0.7-0.2-7-2.4-6.8-2.7C36.6,86,36.1,85.7,35.9,86L35.9,86z"/>
		</g>
	</g>
	<g>
		<g>
			<path class="st1" d="M27.1,26.9c0.1-0.4,0.4-0.8,0.8-0.9c0.4-0.1,1,0.2,0.8,0.7c-0.2,0.6-1.3,0.4-1.8,0.2
				c-0.4-0.2-0.7,0.4-0.3,0.6c0.9,0.4,3,0.5,2.7-1c-0.1-0.7-0.8-1.1-1.4-1c-0.7,0.1-1.2,0.7-1.4,1.4C26.4,27.1,27,27.3,27.1,26.9
				L27.1,26.9z"/>
		</g>
	</g>
	<g>
		<g>
			<path class="st1" d="M33.7,25.2c-0.2-0.8,0.9-1.3,1.2-0.5c0.3,0.7-0.7,1.1-1.1,0.6c-0.3-0.3-0.7,0.2-0.5,0.5
				c0.4,0.5,1.2,0.5,1.7,0.2c0.6-0.3,0.7-1.1,0.5-1.6c-0.3-0.6-1-0.9-1.6-0.7c-0.6,0.3-1,1-0.8,1.6C33.3,25.8,33.9,25.6,33.7,25.2
				L33.7,25.2z"/>
		</g>
	</g>
	<g>
		<g>
			<path class="st1" d="M42.2,23.7c-0.5-0.8,0.3-1.8,1.1-1.3c0.9,0.6,0.2,1.8-0.8,1.6c-0.4-0.1-0.6,0.5-0.2,0.6
				c0.7,0.2,1.4-0.1,1.8-0.7c0.4-0.7,0.2-1.5-0.5-1.9c-1.4-1-3,0.7-2.1,2.1C41.9,24.3,42.4,24,42.2,23.7L42.2,23.7z"/>
		</g>
	</g>
	<g>
		<g>
			<path class="st1" d="M49.9,22.6c-0.7-0.4-0.2-1.5,0.6-1.3c0.9,0.3,0.6,1.5-0.3,1.6c-0.4,0-0.4,0.7,0,0.6c0.7-0.1,1.4-0.6,1.5-1.3
				c0.1-0.7-0.4-1.3-1-1.5c-1.5-0.4-2.3,1.6-1.1,2.4C49.9,23.4,50.2,22.8,49.9,22.6L49.9,22.6z"/>
		</g>
	</g>
	<g>
		<g>
			<path class="st1" d="M56.9,21.4c-0.1-0.3,0.2-0.7,0.5-0.8c0.3-0.1,0.6,0.2,0.7,0.5c0.2,0.7-0.7,1-1.1,0.5c-0.2-0.3-0.8,0-0.6,0.3
				c0.8,1.1,2.7,0.4,2.2-1.1c-0.2-0.6-0.8-1-1.4-0.8c-0.7,0.2-1.1,0.9-0.9,1.5C56.4,21.9,57,21.8,56.9,21.4L56.9,21.4z"/>
		</g>
	</g>
	<g>
		<g>
			<path class="st1" d="M63.5,21.6c0.3,0.6,0.9,1,1.6,0.9c0.7-0.1,1.1-0.8,1-1.5c-0.1-0.7-0.6-1.3-1.3-1.2c-0.8,0-1.4,0.7-1.4,1.5
				c0,0.4,0.7,0.4,0.6,0c0-0.4,0.3-0.8,0.8-0.9c0.4,0,0.7,0.3,0.7,0.7c0.1,0.8-1.1,1.1-1.4,0.3C64,21.1,63.4,21.2,63.5,21.6
				L63.5,21.6z"/>
		</g>
	</g>
	<g>
		<g>
			<path class="st1" d="M52.8,39.8c-0.7,2.2-0.8,4.5-0.3,6.7c0.1,0.4,0.7,0.2,0.6-0.2c-0.5-2.1-0.4-4.3,0.3-6.3
				C53.5,39.6,52.9,39.4,52.8,39.8L52.8,39.8z"/>
		</g>
	</g>
	<g>
		<g>
			<path class="st1" d="M35.5,44.5c0.8,1.3,1.2,2.7,1.2,4.2c0,0.4,0.6,0.4,0.6,0c0-1.6-0.4-3.1-1.3-4.5
				C35.9,43.9,35.3,44.2,35.5,44.5L35.5,44.5z"/>
		</g>
	</g>
	<g>
		<g>
			<path class="st1" d="M54.6,40.9c3.2-0.1,6.4-0.1,9.6-0.1c0.4,0,0.4-0.6,0-0.6c-3.2,0.1-6.4,0.1-9.6,0.1
				C54.2,40.3,54.2,40.9,54.6,40.9L54.6,40.9z"/>
		</g>
	</g>
	<g>
		<g>
			<path class="st1" d="M35.3,44.1c-0.8,0.4-1.7,0.7-2.5,1c-0.4,0.2-0.2,0.8,0.2,0.6c0.8-0.4,1.7-0.7,2.5-1
				C35.9,44.5,35.7,43.9,35.3,44.1L35.3,44.1z"/>
		</g>
	</g>
	<g>
		<g>
			<path class="st1" d="M71.6,19.1c3.3,7.6,5.1,15.8,5.4,24.1c0,0.4,0.7,0.4,0.6,0c-0.3-8.4-2.2-16.7-5.5-24.4
				C71.9,18.4,71.4,18.7,71.6,19.1L71.6,19.1z"/>
		</g>
	</g>
	<g>
		<g>
			<path class="st1" d="M79,44.4c6.1-0.2,12.1,1.1,17.6,3.9c0.4,0.2,0.7-0.4,0.3-0.6c-5.5-2.8-11.7-4.2-17.9-4
				C78.6,43.7,78.6,44.4,79,44.4L79,44.4z"/>
		</g>
	</g>
	<g>
		<g>
			<path class="st1" d="M73.9,19.7c4.1-0.2,7.9,1.7,11.4,3.6c1.6,0.9,3.2,1.8,4.7,2.9c1.6,1.1,3.4,2.3,4.3,4.1
				c0.2,0.4,0.7,0.1,0.6-0.3c-0.8-1.7-2.3-2.7-3.8-3.8c-1.7-1.2-3.6-2.4-5.4-3.4c-3.6-2-7.5-3.8-11.7-3.7
				C73.5,19,73.5,19.7,73.9,19.7L73.9,19.7z"/>
		</g>
	</g>
	<g>
		<g>
			<path class="st1" d="M79.7,42c-0.4-0.7,0.6-1.4,1.1-0.7c0.5,0.6-0.4,1.3-0.9,0.9c-0.3-0.2-0.7,0.3-0.3,0.6
				c0.5,0.3,1.2,0.2,1.7-0.2c0.5-0.5,0.5-1.2,0-1.7c-0.4-0.5-1.2-0.6-1.7-0.2c-0.5,0.4-0.7,1.1-0.4,1.7C79.3,42.7,79.9,42.4,79.7,42
				L79.7,42z"/>
		</g>
	</g>
	<g>
		<g>
			<path class="st1" d="M75.2,21.7c0.3-0.6,1.1-0.5,1.1,0.2c-0.1,0.7-0.9,0.7-1.1,0.1c-0.1-0.4-0.7-0.2-0.6,0.2
				c0.2,0.5,0.7,0.9,1.2,0.9c0.6,0,1.1-0.5,1.1-1.1c0.1-0.6-0.3-1.1-0.8-1.3c-0.6-0.1-1.2,0.1-1.4,0.6C74.5,21.7,75,22,75.2,21.7
				L75.2,21.7z"/>
		</g>
	</g>
	<g>
		<g>
			<path class="st1" d="M71.4,42.9c0.5-0.6,1.7-0.3,1.4,0.6c-0.1,0.3-0.5,0.6-0.8,0.4c-0.3-0.2-0.4-0.6-0.2-0.9
				c0.3-0.3-0.2-0.8-0.5-0.5c-0.5,0.5-0.3,1.3,0.2,1.8c0.6,0.5,1.3,0.3,1.7-0.3c0.4-0.6,0.3-1.4-0.3-1.8c-0.6-0.4-1.5-0.3-1.9,0.3
				C70.7,42.7,71.1,43.2,71.4,42.9L71.4,42.9z"/>
		</g>
	</g>
	<g>
		<g>
			<path class="st1" d="M53.9,45.7c0.3,0.5,0.9,0.7,1.4,0.6c0.6-0.2,0.9-0.8,0.7-1.3c-0.2-0.6-0.7-1-1.3-0.8
				c-0.6,0.1-1.1,0.8-0.9,1.4c0.1,0.4,0.7,0.2,0.6-0.2c-0.1-0.3,0.2-0.6,0.5-0.7c0.3,0,0.4,0.2,0.5,0.5c0.1,0.6-0.7,0.7-1,0.2
				C54.3,45,53.7,45.3,53.9,45.7L53.9,45.7z"/>
		</g>
	</g>
	<g>
		<g>
			<path class="st1" d="M34.5,50.2c0,1,1.7,1.3,2,0.4c0.3-1-1.4-1.7-1.9-0.8c-0.2,0.4,0.4,0.7,0.6,0.3c0.2-0.3,0.8-0.1,0.7,0.3
				c-0.1,0.3-0.8,0.2-0.8-0.2C35.2,49.8,34.6,49.8,34.5,50.2L34.5,50.2z"/>
		</g>
	</g>
	<g>
		<g>
			<path class="st0" d="M36.6,105.6c0.5,0.7,1,1,1.9,1c0.2,0,0.4-0.1,0.5-0.4c0.7-4.4,1.7-8.6,3.2-12.8c0.2-0.6-0.7-0.8-0.9-0.3
				c-1.5,4.2-2.6,8.4-3.2,12.8c0.2-0.1,0.3-0.2,0.5-0.4c-0.4-0.2-0.7-0.4-1.1-0.5C37.1,104.6,36.3,105.1,36.6,105.6L36.6,105.6z"/>
		</g>
	</g>
	<g>
		<g>
			<path class="st0" d="M38.7,106.1c1.2-0.8,2,0.6,2.6,1.4c0.5,0.6,1,1.2,1.7,1.6c1,0.6,2.7,1.3,3.8,0.8c1.3-0.6,0.9-2.5,0.9-3.7
				c0.1-2.3,0.1-4.6,0.1-6.8c0-0.6-0.9-0.6-1,0c0,1.9-0.1,3.9-0.1,5.8c0,0.9,0.1,1.8-0.1,2.7c-0.3,1.6-1.7,1.1-2.8,0.6
				c-1.4-0.7-2-2.1-3.2-3.1c-0.8-0.6-1.8-0.8-2.6-0.2C37.7,105.6,38.2,106.4,38.7,106.1L38.7,106.1z"/>
		</g>
	</g>
	<g>
		<g>
			<path class="st0" d="M47.4,107.3c3.2-0.6,4.9,4.3,8.3,3.1c0.2-0.1,0.4-0.3,0.3-0.6c-1.2-4-1.6-8.1-1.2-12.2c0.1-0.6-0.9-0.6-1,0
				c-0.4,4.2,0.1,8.4,1.3,12.4c0.1-0.2,0.2-0.4,0.3-0.6c-1.9,0.7-3.4-1-4.8-2c-1.1-0.8-2.2-1.3-3.6-1
				C46.5,106.5,46.8,107.4,47.4,107.3L47.4,107.3z"/>
		</g>
	</g>
	<g>
		<g>
			<path class="st0" d="M54.7,108.6c1,1.2,2.3,2,3.9,2.3c0.9,0.1,1.7,0.1,2.6-0.2c0.5-0.2,1-0.4,1.5-0.5c1.2-0.1,1.2,0.3,1.8,0.9
				c1,0.9,2,0.5,2.2-0.7c0.5-2.5,0.7-5.1,1-7.7c0.1-0.6-0.8-0.9-0.9-0.3c-0.3,2-0.5,4-0.8,6c-0.1,0.8,0.1,2.7-1.1,1.8
				c-0.5-0.4-0.7-0.8-1.3-0.9c-1.3-0.3-2.6,0.7-3.9,0.7c-1.7,0.1-3.2-0.8-4.3-2.1C55,107.5,54.3,108.1,54.7,108.6L54.7,108.6z"/>
		</g>
	</g>
	<g>
		<g>
			<path class="st0" d="M66.9,109c1.1,1.4,2.7,2.9,4.6,2.2c0.4-0.2,0.6-0.4,0.9-0.7c1-0.7,1.6-0.2,2.4,0.5c0.7,0.5,1.4,0.8,2.3,0.7
				c1-0.1,1.8-0.7,2.7-0.8c0.8-0.2,1.8,0.4,2.5-0.2c0.4-0.3,0.6-0.7,0.4-1.2c-0.1-0.5-1.2-1.4-1-1.9c0.3-0.6-0.6-1-0.8-0.5
				c-0.2,0.4-0.2,0.7,0,1.2c0.1,0.3,1,1.2,0.9,1.4c-0.1,0.2-1.9,0.1-2.3,0.2c-0.8,0.2-1.5,0.6-2.3,0.8c-1.8,0.4-2.8-2.1-4.6-1.5
				c-1,0.3-1.2,1.4-2.5,1.2c-1.1-0.2-1.9-1.2-2.5-2.1C67.2,107.8,66.5,108.5,66.9,109L66.9,109z"/>
		</g>
	</g>
	<g>
		<g>
			<path class="st0" d="M94.7,108.3c0.7-0.7,2.2-0.1,3-0.5c0.5-0.2,0.7-0.6,1.1-0.9c0.6-0.5,1.3-0.7,2-0.8c0.7-0.1,2.1-0.2,2.6-0.9
				c0.5-0.7,0-2.6-0.2-3.4c-0.1-0.6-1-0.4-0.9,0.3c0.2,0.6,0.4,1.5,0.3,2.2c-0.2,0.6-0.6,0.6-1.2,0.7c-1,0.2-2,0.2-2.8,0.8
				c-0.3,0.2-0.5,0.5-0.8,0.8c-0.6,0.5-1.1,0.5-1.8,0.5c-0.8,0-1.4,0-1.9,0.6C93.6,108,94.3,108.7,94.7,108.3L94.7,108.3z"/>
		</g>
	</g>
	<g>
		<g>
			<path class="st0" d="M104,105c-0.4-1.3,2.3-1,3.1-1.3c0.3-0.1,0.5-0.3,0.7-0.5c0.2-0.2,1-1.8,1.3-1.3c0.2,0.3,0.6,0.1,0.7-0.1
				c0.5-0.6,0.6-1.2,0.6-1.9c0-0.6-1-0.6-1,0c0,0.5-0.1,1-0.5,1.5c0.3,0,0.5-0.1,0.7-0.1c-0.4-0.5-0.9-0.5-1.4-0.3
				c-0.4,0.2-0.6,0.4-0.8,0.7c-0.5,0.8-0.8,1.2-1.8,1.2c-1.3,0.1-3.3,0.6-2.7,2.3C103.2,105.8,104.1,105.6,104,105L104,105z"/>
		</g>
	</g>
	<g>
		<g>
			<path class="st0" d="M110.7,99.3c0-0.4,1.6-0.6,1.9-1.1c0.5-0.8,0-1.9-0.2-2.6c-0.7-2.4-1.5-4.6-2.6-6.9
				c-0.3-0.6-1.1-0.1-0.8,0.5c1,2.1,1.8,4.2,2.4,6.4c0.1,0.4,0.4,1,0.4,1.4c-0.1,1.2-0.7,0.8-1.3,1.2c-0.5,0.3-0.7,0.6-0.7,1.1
				C109.7,99.9,110.7,99.9,110.7,99.3L110.7,99.3z"/>
		</g>
	</g>
	<g>
		<g>
			<path class="st0" d="M36.7,69.1c0-0.8,0.7-1.5,1.5-1.5c0.6,0,0.6-1,0-1c-1.3,0-2.4,1.1-2.4,2.4C35.8,69.7,36.7,69.7,36.7,69.1
				L36.7,69.1z"/>
		</g>
	</g>
	<g>
		<g>
			<path class="st0" d="M38.1,66.8c4.6,3.3,10.6,4.3,16.1,2.7c0.6-0.2,0.3-1.1-0.3-0.9C48.7,70.2,43,69.2,38.6,66
				C38.1,65.6,37.6,66.5,38.1,66.8L38.1,66.8z"/>
		</g>
	</g>
	<g>
		<g>
			<path class="st0" d="M37.8,67.5c2.9,3,6.6,5.2,10.7,6.3c0.6,0.2,0.8-0.8,0.3-0.9c-3.9-1-7.4-3.1-10.2-6
				C38,66.4,37.3,67.1,37.8,67.5L37.8,67.5z"/>
		</g>
	</g>
	<g>
		<g>
			<path class="st0" d="M37.5,67.3c1.4,2.9,3.5,5.3,6.3,6.9c0.5,0.3,1-0.5,0.5-0.8c-2.6-1.6-4.6-3.8-5.9-6.6
				C38,66.3,37.2,66.8,37.5,67.3L37.5,67.3z"/>
		</g>
	</g>
	<g>
		<g>
			<path class="st0" d="M56.9,106.1c-0.5-2.1-0.2-4.3,0.9-6.2c0.3-0.5-0.5-1-0.8-0.5c-1.2,2.1-1.6,4.5-1,6.9
				C56.1,106.9,57,106.6,56.9,106.1L56.9,106.1z"/>
		</g>
	</g>
	<g>
		<g>
			<path class="st0" d="M37.7,96.9c-0.3,0.8-0.5,1.5-0.8,2.3c-0.2,0.6,0.7,0.8,0.9,0.3c0.3-0.8,0.5-1.5,0.8-2.3
				C38.9,96.6,37.9,96.4,37.7,96.9L37.7,96.9z"/>
		</g>
	</g>
	<g>
		<g>
			<path class="st0" d="M103.5,100.1c0.2,0.3,0.3,0.7,0.5,1c0.1,0.2,0.4,0.3,0.7,0.2s0.3-0.4,0.2-0.7c-0.2-0.3-0.3-0.7-0.5-1
				c-0.1-0.2-0.4-0.3-0.7-0.2C103.5,99.6,103.4,99.8,103.5,100.1L103.5,100.1z"/>
		</g>
	</g>
	<g>
		<g>
			<path class="st1" d="M115.5,63.8c0.3,4.6-2,8.8-3.9,12.8c-1.8,3.7-3.6,7.4-5.6,10.9c-4.1,7.2-8.9,14.2-15.1,19.7
				c-1.3,1.1-2.4,1.6-4.1,1c-1.1-0.4-2-1-3-1.6c-2-1.3-3.8-3.1-5.1-5.1c-0.2-0.3-0.8,0-0.6,0.3c1.2,1.7,2.5,3.2,4.2,4.5
				c1.5,1.2,3.3,2.4,5.2,2.8c1.9,0.4,3.3-0.9,4.6-2.1c1.7-1.6,3.2-3.2,4.7-5c6-7,10.5-15.1,14.5-23.3c2.2-4.6,5.2-9.6,4.8-14.9
				C116.1,63.4,115.4,63.4,115.5,63.8L115.5,63.8z"/>
		</g>
	</g>
	<g>
		<g>
			<path class="st1" d="M76.6,99.3c-4.7-5.6-9.1-11.5-13.1-17.6c-2-3-3.9-6-5.7-9c-0.2-0.3-0.5-0.6-0.6-1c-0.4-1.2,0-1.6,0.7-2.2
				s1.4-1.2,2.2-1.7c1.5-1,3.1-1.6,4.8-2c0.4-0.1,0.2-0.7-0.2-0.6c-1.8,0.4-3.5,1.1-5,2.1c-1.1,0.7-2.7,1.8-3.2,3
				c-0.6,1.4,0.9,3,1.6,4.1c1.1,1.8,2.2,3.6,3.3,5.3c4.5,7,9.5,13.7,14.8,20.1C76.4,100,76.8,99.6,76.6,99.3L76.6,99.3z"/>
		</g>
	</g>
	<g>
		<g>
			<path class="st1" d="M69.7,64.8c13.1-3.2,26.6-4.1,40-2.7c0.4,0.1,0.4-0.6,0-0.6c-13.4-1.5-27-0.5-40.2,2.7
				C69.2,64.2,69.3,64.9,69.7,64.8L69.7,64.8z"/>
		</g>
	</g>
	<g>
		<g>
			<path class="st1" d="M37.8,85.8c3,1.2,6.1,2.3,9.1,3.5c0.4,0.2,0.6-0.5,0.2-0.6c-3-1.2-6.1-2.3-9.1-3.5
				C37.6,85.1,37.5,85.7,37.8,85.8L37.8,85.8z"/>
		</g>
	</g>
	<g>
		<g>
			<path class="st1" d="M53.6,89.7c2.7-0.4,5.4-0.8,8.1-1.2c0.4-0.1,0.2-0.7-0.2-0.6c-2.7,0.4-5.4,0.8-8.1,1.2
				C53.1,89.2,53.2,89.8,53.6,89.7L53.6,89.7z"/>
		</g>
	</g>
	<g>
		<g>
			<path class="st1" d="M31.9,78.8c-0.7,0.3-5.8,3-3.4,3.9c1.1,0.4,3,0,4.1-0.3c1.6-0.4,3.1-1.1,4.5-2c0.3-0.2,0-0.8-0.3-0.6
				c-1.8,1.2-3.8,2-5.9,2.2c-0.4,0.1-0.8,0.1-1.2,0.1c-0.3,0-0.7,0-1-0.1c0.1-0.4,0.2-0.7,0.5-0.9c0.7-0.8,1.9-1.4,2.9-1.8
				C32.4,79.3,32.3,78.6,31.9,78.8L31.9,78.8z"/>
		</g>
	</g>
	<g>
		<g>
			<path class="st1" d="M31.6,82.4c-2,2.6,3.3,3.5,2.6,5.7c-0.1,0.4,0.5,0.6,0.6,0.2c0.3-0.8,0-1.5-0.5-2.1
				c-0.7-0.8-3.4-1.9-2.2-3.3C32.3,82.6,31.9,82.1,31.6,82.4L31.6,82.4z"/>
		</g>
	</g>
	<g>
		<g>
			<path class="st1" d="M33.7,84.3c0.8-0.3,1.5-0.6,2.3-0.9c0.4-0.2,0.2-0.8-0.2-0.6c-0.8,0.3-1.5,0.6-2.3,0.9
				C33.2,83.8,33.4,84.4,33.7,84.3L33.7,84.3z"/>
		</g>
	</g>
	<g>
		<g>
			<path class="st1" d="M30.4,79.6c-0.9-1.8-1.6-3.8-2-5.7c-0.2-0.9-0.5-2-0.5-2.9c0.1-1.4,1.2-1.5,2-0.9c0.4,0.3,0.7,0.8,0.9,1.3
				c0.2,0.4,0.7,0.1,0.6-0.3c-0.5-0.9-1.1-1.8-2.1-2c-1-0.2-1.7,0.4-1.9,1.3c-0.3,1.4,0.3,3.2,0.7,4.6c0.5,1.7,1.1,3.4,1.8,5
				C30,80.2,30.5,79.9,30.4,79.6L30.4,79.6z"/>
		</g>
	</g>
	<g>
		<g>
			<path class="st1" d="M27.6,69.5c-1,0.1-1.9-0.6-2.2-1.6c-0.3-1,0.5-1.9,1.5-2.2c0.9-0.2,1.8,0.2,2.1,1c0.2,0.4,0.2,0.8,0.2,1.2
				c0,0.2-0.1,0.4-0.2,0.6c-0.1,0.1-0.5,0.9-0.5,0.9c0.4-0.2,0.2-0.8-0.2-0.6s-0.5,0.7-0.1,0.9c0.6,0.2,1.1-0.7,1.3-1.1
				c0.5-1.3-0.1-3-1.4-3.5c-1.4-0.5-3.1,0.5-3.4,1.9c-0.4,1.6,1.2,3.2,2.8,3.1C28,70.1,28,69.5,27.6,69.5L27.6,69.5z"/>
		</g>
	</g>
	<g>
		<g>
			<path class="st1" d="M29,79.1c-1.4,0.6-2.6,1.3-3.7,2.4c-0.6,0.6-1.9,2-1.8,2.9c0.1,1.1,1.7,1.4,2.5,1.3c1.7-0.2,3.6-1.2,5.2-1.8
				c0.4-0.2,0.2-0.8-0.2-0.6c-0.8,0.3-7.1,3.2-6.8,0.8c0.1-0.8,1.2-1.8,1.8-2.4c0.9-0.9,1.9-1.5,3.1-2C29.6,79.6,29.4,79,29,79.1
				L29,79.1z"/>
		</g>
	</g>
	<g>
		<path d="M71.7,69.1c0.2,0,0.3,0,0.4,0.1c0.1,0.1,0.2,0.2,0.2,0.3c0,0.1,0,0.3-0.1,0.3c-0.1,0.1-0.2,0.2-0.3,0.2
			c-0.4,0.1-0.6,0.3-0.5,0.6l0.3,2.1c0.1,0.4,0,0.8-0.2,1c0.2,0.2,0.4,0.5,0.4,0.9l0.3,2.1c0.1,0.4,0.3,0.5,0.7,0.5
			c0.2,0,0.3,0,0.4,0.1c0.1,0.1,0.2,0.2,0.2,0.3s0,0.3-0.1,0.4c-0.1,0.1-0.2,0.2-0.3,0.2c-1,0.1-1.6-0.3-1.7-1.2l-0.3-2.1
			c-0.1-0.4-0.3-0.5-0.6-0.5c-0.2,0-0.3,0-0.4-0.1c-0.1-0.1-0.2-0.2-0.2-0.3c0-0.1,0-0.3,0.1-0.3c0.1-0.1,0.2-0.2,0.3-0.2
			c0.4-0.1,0.6-0.3,0.5-0.6l-0.3-2.1C70.2,69.7,70.7,69.2,71.7,69.1z"/>
		<path d="M88.4,69.7c0,0.2,0,0.3-0.2,0.5c-0.1,0.1-0.3,0.2-0.5,0.2c-0.2,0-0.4,0-0.5-0.1c-0.2-0.1-0.2-0.3-0.3-0.4s0-0.3,0.2-0.5
			s0.3-0.2,0.5-0.2c0.2,0,0.4,0,0.5,0.1C88.3,69.4,88.4,69.5,88.4,69.7z M88.9,73.3c0,0.2,0,0.3,0,0.5c0,0.2,0,0.4-0.1,0.5
			c-0.1,0.2-0.1,0.3-0.2,0.4c-0.1,0.1-0.2,0.2-0.3,0.2c-0.1,0-0.2,0-0.3-0.1c-0.1-0.1-0.1-0.2-0.2-0.3c0-0.1,0-0.2,0.1-0.3
			c0.1-0.1,0.1-0.2,0.1-0.2c0-0.1-0.1-0.2-0.2-0.3c-0.2-0.1-0.2-0.2-0.3-0.4s0-0.3,0.2-0.5c0.1-0.1,0.3-0.2,0.5-0.2
			c0.2,0,0.4,0,0.5,0.1C88.8,73,88.9,73.1,88.9,73.3z"/>
		<path d="M95.5,67.5c0.1-0.1,0.2-0.1,0.2-0.1s0.1,0,0.2,0c0.1,0,0.1,0.1,0.2,0.1c0.1,0,0.1,0.1,0.1,0.1s0.1,0.1,0.1,0.2
			c0,0.2-0.1,0.3-0.2,0.4l-2.6,1.9l3,1.2c0.2,0.1,0.3,0.2,0.3,0.4c0,0.1,0,0.3-0.1,0.3c-0.1,0.1-0.2,0.2-0.3,0.2c-0.1,0-0.2,0-0.3,0
			l-3.8-1.5c-0.2-0.1-0.3-0.2-0.3-0.4c0-0.2,0.1-0.3,0.2-0.4L95.5,67.5z"/>
		<path d="M97.9,70.8c-0.2,0-0.3,0-0.4-0.1c-0.1-0.1-0.2-0.2-0.2-0.3c0-0.1,0-0.3,0.1-0.3c0.1-0.1,0.2-0.2,0.3-0.2l2.1-0.3
			c0.2,0,0.3,0,0.4,0.1c0.1,0.1,0.2,0.2,0.2,0.3c0,0.1,0,0.3-0.1,0.3c-0.1,0.1-0.2,0.2-0.3,0.2L97.9,70.8z"/>
		<path d="M101.6,70.3c-0.2,0-0.3,0-0.4-0.1c-0.1-0.1-0.2-0.2-0.2-0.3c0-0.1,0-0.3,0.1-0.3c0.1-0.1,0.2-0.2,0.3-0.2l2.1-0.3
			c0.2,0,0.3,0,0.4,0.1c0.1,0.1,0.2,0.2,0.2,0.3s0,0.3-0.1,0.3c-0.1,0.1-0.2,0.2-0.3,0.2L101.6,70.3z"/>
		<path d="M105.3,69.8c-0.2,0-0.3,0-0.4-0.1c-0.1-0.1-0.2-0.2-0.2-0.3c0-0.1,0-0.3,0.1-0.3c0.1-0.1,0.2-0.2,0.3-0.2l2.1-0.3
			c0.2,0,0.3,0,0.4,0.1c0.1,0.1,0.2,0.2,0.2,0.3s0,0.3-0.1,0.3c-0.1,0.1-0.2,0.2-0.3,0.2L105.3,69.8z"/>
		<path d="M77.6,81.8c0,0.2,0,0.3-0.2,0.5s-0.3,0.2-0.5,0.2c-0.2,0-0.4,0-0.5-0.1c-0.2-0.1-0.2-0.3-0.3-0.4c0-0.2,0-0.3,0.2-0.5
			c0.1-0.1,0.3-0.2,0.5-0.2c0.2,0,0.4,0,0.5,0.1C77.5,81.5,77.6,81.6,77.6,81.8z M78.1,85.4c0,0.2,0,0.3,0,0.5c0,0.2,0,0.4-0.1,0.5
			c-0.1,0.2-0.1,0.3-0.2,0.4c-0.1,0.1-0.2,0.2-0.3,0.2c-0.1,0-0.2,0-0.3-0.1c-0.1-0.1-0.1-0.2-0.2-0.3c0-0.1,0-0.2,0.1-0.3
			c0.1-0.1,0.1-0.2,0.1-0.2c0-0.1-0.1-0.2-0.2-0.3c-0.2-0.1-0.2-0.2-0.3-0.4s0-0.3,0.2-0.5s0.3-0.2,0.5-0.2c0.2,0,0.4,0,0.5,0.1
			C78,85.1,78,85.2,78.1,85.4z"/>
		<path d="M84.7,79.7c0.1-0.1,0.2-0.1,0.2-0.1c0.1,0,0.1,0,0.2,0c0.1,0,0.1,0.1,0.2,0.1c0.1,0,0.1,0.1,0.1,0.1
			c0,0.1,0.1,0.1,0.1,0.2c0,0.2-0.1,0.3-0.2,0.4l-2.6,1.9l3,1.2c0.2,0.1,0.3,0.2,0.3,0.4c0,0.1,0,0.3-0.1,0.3
			c-0.1,0.1-0.2,0.2-0.3,0.2c-0.1,0-0.2,0-0.3,0l-3.8-1.5c-0.2-0.1-0.3-0.2-0.3-0.4c0-0.2,0.1-0.3,0.2-0.4L84.7,79.7z"/>
		<path d="M87,82.9c-0.2,0-0.3,0-0.4-0.1c-0.1-0.1-0.2-0.2-0.2-0.3c0-0.1,0-0.3,0.1-0.3c0.1-0.1,0.2-0.2,0.3-0.2l2.1-0.3
			c0.2,0,0.3,0,0.4,0.1c0.1,0.1,0.2,0.2,0.2,0.3s0,0.3-0.1,0.3c-0.1,0.1-0.2,0.2-0.3,0.2L87,82.9z"/>
		<path d="M90.8,82.4c-0.2,0-0.3,0-0.4-0.1c-0.1-0.1-0.2-0.2-0.2-0.3s0-0.3,0.1-0.3c0.1-0.1,0.2-0.2,0.3-0.2l2.1-0.3
			c0.2,0,0.3,0,0.4,0.1c0.1,0.1,0.2,0.2,0.2,0.3c0,0.1,0,0.3-0.1,0.3c-0.1,0.1-0.2,0.2-0.3,0.2L90.8,82.4z"/>
		<path d="M94.5,82c-0.2,0-0.3,0-0.4-0.1c-0.1-0.1-0.2-0.2-0.2-0.3s0-0.3,0.1-0.3c0.1-0.1,0.2-0.2,0.3-0.2l2.1-0.3
			c0.2,0,0.3,0,0.4,0.1c0.1,0.1,0.2,0.2,0.2,0.3c0,0.1,0,0.3-0.1,0.3c-0.1,0.1-0.2,0.2-0.3,0.2L94.5,82z"/>
		<path d="M82.8,89.2c0.2,0,0.3,0,0.4,0.1c0.1,0.1,0.2,0.2,0.2,0.3s0,0.3-0.1,0.3C83.1,90,83,90,82.9,90.1c-0.4,0.1-0.6,0.3-0.5,0.6
			l0.3,2.1c0.1,0.4,0,0.8-0.2,1c0.2,0.2,0.4,0.5,0.4,0.9l0.3,2.1c0.1,0.4,0.3,0.5,0.7,0.5c0.2,0,0.3,0,0.4,0.1
			c0.1,0.1,0.2,0.2,0.2,0.3c0,0.1,0,0.3-0.1,0.4c-0.1,0.1-0.2,0.2-0.3,0.2c-1,0.1-1.6-0.3-1.7-1.2l-0.3-2.1
			c-0.1-0.4-0.3-0.5-0.7-0.5c-0.2,0-0.3,0-0.4-0.1c-0.1-0.1-0.2-0.2-0.2-0.3c0-0.1,0-0.3,0.1-0.3c0.1-0.1,0.2-0.2,0.3-0.2
			c0.4-0.1,0.6-0.3,0.5-0.6l-0.3-2.1C81.3,89.9,81.7,89.3,82.8,89.2z"/>
	</g>
	<g>
		<g>
			<path class="st1" d="M40,111.4c-2.1-0.2-4.3-0.1-6.4,0.4c-0.4,0.1-0.2,0.7,0.2,0.6c2.1-0.4,4.1-0.5,6.2-0.3
				C40.4,112.1,40.4,111.5,40,111.4L40,111.4z"/>
		</g>
	</g>
	<g>
		<g>
			<path class="st1" d="M107.7,113.4c3.9-0.5,7.7-0.6,11.6-0.5c0.4,0,0.4-0.6,0-0.6c-3.9-0.1-7.7,0.1-11.6,0.5
				C107.3,112.8,107.3,113.4,107.7,113.4L107.7,113.4z"/>
		</g>
	</g>
</g>
</svg>
