<?xml version="1.0" encoding="utf-8"?>
<!-- Generator: Adobe Illustrator 24.0.1, SVG Export Plug-In . SVG Version: 6.00 Build 0)  -->
<svg version="1.1" id="Layer_1" xmlns="http://www.w3.org/2000/svg" xmlns:xlink="http://www.w3.org/1999/xlink" x="0px" y="0px"
	 viewBox="0 0 141.7 141.7" style="enable-background:new 0 0 141.7 141.7;" xml:space="preserve">
<style type="text/css">
	.st0{fill:#070707;}
</style>
<g id="Layer_1_1_">
</g>
<g id="Layer_1_2_">
</g>
<g id="Layer_1_3_">
</g>
<g id="Layer_1_4_">
</g>
<g id="Layer_1_5_">
</g>
<g id="Layer_3">
</g>
<g id="Layer_3_1_">
</g>
<g>
	<g>
		<g>
			<path class="st0" d="M31.2,89.9c-0.4,3.8,1.1,7.5,2.9,10.9c1.8,3.5,4.2,6.6,6.9,9.4c5.4,5.4,12.2,9.2,19.3,11.8
				c4.5,1.6,9.2,2.7,13.9,3.2c0.4,0.1,0.4-0.6,0-0.7c-9.7-1-19.4-4.5-27.3-10.3c-4-2.8-7.5-6.3-10.2-10.3c-2.7-4-5.3-9.1-4.8-14
				C32,89.5,31.3,89.5,31.2,89.9L31.2,89.9z"/>
		</g>
	</g>
</g>
<g>
	<g>
		<g>
			<path class="st0" d="M39.9,73.6c-2.2,3.1-4.6,6.1-6.4,9.5c-0.2,0.4,0.4,0.7,0.6,0.4c1.8-3.4,4.2-6.3,6.4-9.5
				C40.7,73.5,40.1,73.2,39.9,73.6L39.9,73.6z"/>
		</g>
	</g>
</g>
<g>
	<g>
		<g>
			<path class="st0" d="M115.7,24.1c-3.3-6.3-9.7-10.4-16.5-12.1c-4.2-1-8.6-1.1-12.9-0.8c-4.3,0.3-8.6,0.7-12.8,1.4
				c-4,0.6-7.8,1.7-11.2,4c-3,2.1-5.6,4.8-7.6,7.9c-2,3.1-3.4,6.5-4.2,10.1c-0.9,3.9-0.9,7.9-1.1,11.9c-0.1,2.6-0.2,5.4-0.8,7.9
				c-0.4,1.8-1.3,3.1-2.7,4.4c-0.9,0.9-3,2.5-3,3.9c0,0.5,0.2,0.7,0.5,1c0.5,0.5,1,0.7,1,1.6c0,0.7-0.3,1.3-0.9,1.6
				c-0.4,0.2,0,0.8,0.4,0.6c0.9-0.5,1.3-1.4,1.3-2.4c0-0.4-0.2-0.9-0.4-1.3c-0.1-0.2-0.3-0.3-0.4-0.4c-0.4-0.5-0.5-1-0.2-1.6
				c0.7-1.3,2.1-2.2,3.1-3.2c0.9-0.9,1.5-1.9,1.9-3.1c1.2-3.9,1-8.3,1.1-12.3c0.1-3.9,0.6-7.7,1.8-11.4c2.5-7.5,8-14.3,15.6-17
				c4.1-1.5,8.5-1.7,12.8-2.2c4.3-0.5,8.6-0.9,12.9-0.6c8.8,0.5,17.6,4.6,21.9,12.6C115.4,24.9,116,24.5,115.7,24.1L115.7,24.1z"/>
		</g>
	</g>
</g>
<g>
	<g>
		<g>
			<path class="st0" d="M73.2,13.4c0.4,0,0.4-0.7,0-0.7C72.8,12.7,72.8,13.4,73.2,13.4L73.2,13.4z"/>
		</g>
	</g>
</g>
<g>
	<g>
		<g>
			<path class="st0" d="M50.7,33.3c-5.5-0.4-8.6-6.1-5.5-10.8c1.3-2,3.6-3.3,6-3.8c2.2-0.4,5.3-0.2,6.8,1.6c0.3,0.3,0.8-0.1,0.5-0.5
				c-1.6-1.9-4.7-2.2-7.1-1.8c-2.7,0.4-5.2,1.9-6.8,4.1c-1.6,2.2-1.8,5.1-0.7,7.5c1.2,2.7,4.1,4.1,6.8,4.3
				C51.2,34,51.2,33.3,50.7,33.3L50.7,33.3z"/>
		</g>
	</g>
</g>
<g>
	<g>
		<g>
			<path class="st0" d="M110.8,18.5c3.9-2,10-3,12.8,1.3c2.8,4.2,1,11-4.3,11.9c-0.4,0.1-0.2,0.7,0.2,0.7c5.9-1,7.4-8,4.9-12.6
				c-2.7-5-9.7-4-13.9-1.8C110,18.1,110.4,18.7,110.8,18.5L110.8,18.5z"/>
		</g>
	</g>
</g>
<g>
	<g>
		<g>
			<path class="st0" d="M79.6,43.1c0.1,0,0.2,0,0.3-0.1c0-0.1-0.1-0.2-0.1-0.3c-0.2,0.2-0.7,0.1-1,0.2c-0.5,0.2-1.1,0.7-1.6,1.1
				c-0.9,0.7-1.9,1.6-2.3,2.8c-1,2.6,2.2,4,4.3,3.9c1.8-0.1,3.5-0.9,5.2-1.2c1.8-0.2,3.2,0.5,4.9,0.8c2.2,0.5,4.4-0.7,4-3.2
				c-0.4-2.7-3.8-4.2-6-5c-0.2-0.1-0.3,0.2-0.1,0.3c2.3,0.9,6.6,2.7,5.7,5.8c-0.7,2.3-2.8,1.9-4.6,1.4c-1.2-0.4-2.4-0.7-3.7-0.6
				c-1.6,0.2-3.1,0.8-4.7,1.1c-1.8,0.3-5.3-0.3-4.9-2.7c0.2-1.5,1.7-2.7,2.9-3.6c0.4-0.3,0.8-0.5,1.2-0.7c0.2-0.1,0.6-0.1,0.8-0.3
				c0.1-0.1,0-0.3-0.1-0.3c-0.1,0-0.2,0-0.4,0.1C79.3,42.9,79.4,43.2,79.6,43.1L79.6,43.1z"/>
		</g>
	</g>
</g>
<g>
	<g>
		<g>
			<path class="st0" d="M88.5,50.2c0.6,1.6,1,3.7,0.3,5.3c-0.5,1.2-2.1,2-3.2,1.2c-0.5-0.4-0.7-1-1-1.6c-0.1-0.2-0.4,0-0.3,0.2
				c0.4,0.7,0.6,1.6,1.3,1.9c0.8,0.4,1.8,0.2,2.6-0.3c2-1.4,1.4-4.9,0.7-6.8C88.7,49.9,88.4,50,88.5,50.2L88.5,50.2z"/>
		</g>
	</g>
</g>
<g>
	<g>
		<g>
			<path class="st0" d="M32,81.7c3,2.1,0.2,5.6,0,8.3c0.1,0,0.2-0.1,0.3-0.1c-1.1-1.5-2.9-2.2-4.6-2.9c-1.8-0.8-4.4-1.8-4.6-4
				c-0.2-2.9,2.2-3.8,4.6-3.2c1.8,0.5,3.6,1.5,5.1,2.6c0.2,0.1,0.4-0.2,0.2-0.3c-2.4-1.6-8.8-5.4-10.1-0.6c-1.5,5.3,6.7,5.5,9.1,8.6
				c0.1,0.1,0.3,0.1,0.3-0.1c0.3-2.9,3.1-6.4-0.2-8.6C32,81.3,31.8,81.6,32,81.7L32,81.7z"/>
		</g>
	</g>
</g>
<g>
	<g>
		<g>
			<path class="st0" d="M23.3,82.2c1.4-1.4,3.4-0.9,4.9,0.1c0.2,0.1,0.4-0.2,0.2-0.3c-1.6-1.1-3.8-1.6-5.4-0.1
				C22.9,82.1,23.1,82.4,23.3,82.2L23.3,82.2z"/>
		</g>
	</g>
</g>
<g>
	<g>
		<g>
			<path class="st0" d="M80.6,130.9c-1.9-1.1-3-3-4.6-4.4c-0.2-0.1-0.4-0.3-0.5-0.4c-1.5-1.1,0.6-2.4,1.2-2.9c1.3-1,2.9-1.5,4.6-1.1
				c2.3,0.7,3.8,3.1,4.3,5.3c0.3,1.2,0.1,2.5-0.8,3.5C83.7,132,81.7,131.4,80.6,130.9c-0.2-0.1-0.4,0.2-0.2,0.3
				c2.1,1,5.3,0.9,5.5-2.1c0.3-2.9-1.6-6-4.3-7.2c-1.3-0.6-2.8-0.4-4.1,0.2c-1,0.4-3,1.8-3.1,3c0,1.1,1.4,1.7,2.1,2.4
				c1.2,1.3,2.2,2.7,3.8,3.6C80.6,131.3,80.8,131,80.6,130.9z"/>
		</g>
	</g>
</g>
<g>
	<g>
		<g>
			<path class="st0" d="M81.7,126.5c1.2,1.3,2.2,2.9,2.3,4.7c0,0.2,0.4,0.2,0.3,0c-0.1-1.9-1.1-3.6-2.4-5
				C81.8,126.1,81.5,126.3,81.7,126.5L81.7,126.5z"/>
		</g>
	</g>
</g>
<g>
	<g>
		<g>
			<path class="st0" d="M120,65.4c2.6,0.1,5.8,2.1,5.7,5c0,1.7-1.4,2.6-3,2.3c-1.6-0.3-2.9-1.3-4-2.4c-0.2-0.1-0.4,0.1-0.2,0.2
				c1.3,1.3,3,2.6,4.9,2.6c1.3,0,2.3-0.7,2.6-2c0.7-3.4-3-6-6-6.1C119.8,65,119.8,65.4,120,65.4L120,65.4z"/>
		</g>
	</g>
</g>
<g>
	<g>
		<g>
			<path class="st0" d="M122.3,70c1.3,0.4,2.8,1.5,2,2.9c-0.1,0.2,0.2,0.4,0.3,0.2c0.9-1.7-0.7-3-2.2-3.4
				C122.2,69.6,122.1,69.9,122.3,70L122.3,70z"/>
		</g>
	</g>
</g>
<g>
	<path class="st0" d="M98.6,39.4c-6.2,0-11.2-5-11.2-11.2c0-6.2,5-11.2,11.2-11.2s11.2,5,11.2,11.2C109.8,34.3,104.8,39.4,98.6,39.4
		z M98.6,17.3c-6,0-10.8,4.9-10.8,10.8c0,6,4.9,10.8,10.8,10.8s10.8-4.9,10.8-10.8C109.4,22.1,104.5,17.3,98.6,17.3z"/>
</g>
<g>
	<path class="st0" d="M70.8,40.5c-6.2,0-11.2-5-11.2-11.2c0-6.2,5-11.2,11.2-11.2S82,23.1,82,29.3C82,35.5,77,40.5,70.8,40.5z
		 M70.8,18.5c-6,0-10.8,4.9-10.8,10.8c0,6,4.9,10.8,10.8,10.8s10.8-4.9,10.8-10.8C81.6,23.3,76.7,18.5,70.8,18.5z"/>
</g>
<g>
	<path class="st0" d="M119.7,23.8c0-1.3-1-2.3-2.3-2.3s-2.3,1-2.3,2.3c0,1.3,1,2.3,2.3,2.3S119.7,25,119.7,23.8z"/>
</g>
<g>
	<circle class="st0" cx="51.8" cy="25.8" r="2.3"/>
</g>
<g>
	<path class="st0" d="M89,41.9c0-1.5-2.2-2.7-4.9-2.7s-4.9,1.2-4.9,2.7s2.2,2.7,4.9,2.7C86.8,44.6,89,43.4,89,41.9z"/>
</g>
<g>
	<path class="st0" d="M92.8,25.2c-2,0-3.6,1.6-3.6,3.6c0,2,1.6,3.6,3.6,3.6c2,0,3.6-1.6,3.6-3.6C96.4,26.8,94.8,25.2,92.8,25.2z
		 M94.2,31.1c-0.6,0-1-0.5-1-1c0-0.6,0.5-1,1-1c0.6,0,1,0.5,1,1C95.3,30.6,94.8,31.1,94.2,31.1z"/>
</g>
<g>
	<path class="st0" d="M64.8,26c-2,0-3.6,1.6-3.6,3.6c0,2,1.6,3.6,3.6,3.6c2,0,3.6-1.6,3.6-3.6C68.4,27.7,66.8,26,64.8,26z
		 M66.3,31.9c-0.6,0-1-0.5-1-1c0-0.6,0.5-1,1-1c0.6,0,1,0.5,1,1C67.3,31.5,66.8,31.9,66.3,31.9z"/>
</g>
<g>
	<g>
		<g>
			<path class="st0" d="M84.3,49.5c0.3,1.4,0.2,3.3,0,4.7c-0.1,0.9-0.3,1.9-0.9,2.5c-0.7,0.7-2,0.7-2.7,0c-1.5-1.4-1.1-4.5-0.5-6.2
				c0.1-0.2-0.3-0.3-0.3-0.1c-0.6,2-1.1,6.3,1.6,7.1c1.3,0.4,2.4-0.3,2.9-1.5c0.4-1,0.5-2.2,0.5-3.3c0-1,0.1-2.1-0.1-3.2
				C84.6,49.2,84.3,49.3,84.3,49.5L84.3,49.5z"/>
		</g>
	</g>
</g>
<g>
	<g>
		<g>
			<path class="st0" d="M49.5,50.1c-2.4-0.4-5,0.6-6.9,2.2c-1.3,1.1-2.1,2.8-0.2,3.7c0.2,0.1,0.4-0.2,0.2-0.3
				c-1.2-0.6-1-1.8-0.2-2.6c0.5-0.5,1.1-1,1.8-1.4c1.6-1,3.5-1.6,5.4-1.3C49.6,50.5,49.7,50.1,49.5,50.1L49.5,50.1z"/>
		</g>
	</g>
</g>
<g>
	<g>
		<g>
			<path class="st0" d="M44.3,54.3c-0.9,0.4-2.4,1.7-1.2,2.7c1.7,1.4,4.1-0.4,5.4-1.5c0.2-0.1-0.1-0.4-0.2-0.2
				c-1.1,0.9-2.6,2.1-4.2,1.8c-1.8-0.4-0.6-1.9,0.5-2.4C44.6,54.5,44.5,54.2,44.3,54.3L44.3,54.3z"/>
		</g>
	</g>
</g>
<g>
	<g>
		<g>
			<path class="st0" d="M114.6,23.2c4.2,6.5,5.6,14.2,5.9,21.8c0.4,8,0,16-2,23.7c-2,7.6-4.8,15.1-7.9,22.3
				c-1.5,3.4-2.6,6.7-3.4,10.3c-0.4,1.8-0.8,3.7-1.8,5.3c-0.9,1.5-2.1,1.9-3.6,2.5c-1,0.4-1.6,1.1-2.2,1.9c-1.4,1.8-2.7,3.7-4.3,5.4
				c-2.9,3.1-6.3,5.7-10.3,7.5c-0.4,0.2-0.1,0.8,0.4,0.6c3.5-1.6,6.7-3.8,9.4-6.6c1.3-1.3,2.4-2.6,3.5-4c1-1.3,1.9-3.3,3.4-4
				c1-0.5,2.1-0.6,3-1.3c1-0.8,1.7-2.1,2.1-3.3c0.7-1.7,1-3.5,1.4-5.3c0.4-2.1,1.1-4.1,1.9-6c1.5-3.6,3.1-7.2,4.4-10.8
				c1.4-3.9,2.8-7.8,4-11.7c2.3-8,3.1-16.1,2.8-24.4c-0.2-8.5-1.5-16.9-6.1-24.2C115,22.5,114.3,22.9,114.6,23.2L114.6,23.2z"/>
		</g>
	</g>
</g>
<g>
	<g>
		<g>
			<path class="st0" d="M70.1,18.4c9,0.8,18.2,1.5,27.1-1.1c0.4-0.1,0.2-0.8-0.2-0.7c-8.8,2.6-17.9,1.8-26.9,1.1
				C69.7,17.7,69.7,18.3,70.1,18.4L70.1,18.4z"/>
		</g>
	</g>
</g>
<g>
	<g>
		<g>
			<path class="st0" d="M73.8,40.5c6.9-2.2,14.2-2.7,21.2-1.3c0.4,0.1,0.6-0.6,0.2-0.7c-7.2-1.4-14.6-1-21.6,1.3
				C73.2,39.9,73.4,40.6,73.8,40.5L73.8,40.5z"/>
		</g>
	</g>
</g>
<g>
	<g>
		<g>
			<path class="st0" d="M69,18.1c-4,0.2-8,1.5-10.7,4.4c-2.5,2.6-3.8,6.3-3,9.9c0.8,3.5,3.2,6.4,6.6,7.7c4.1,1.5,8.6,0.7,12.7-0.1
				c0.4-0.1,0.2-0.7-0.2-0.7c-3.7,0.7-7.6,1.4-11.2,0.4c-3.5-1-6.2-3.7-7.1-7.2c-0.9-3.5,0.3-7.1,2.8-9.7c2.7-2.8,6.5-4.1,10.3-4.2
				C69.5,18.8,69.5,18.1,69,18.1L69,18.1z"/>
		</g>
	</g>
</g>
<g>
	<g>
		<g>
			<path class="st0" d="M102.4,17.9c4.9,1.5,10.5,4.6,10.6,10.5c0.1,6-6.3,8.4-11.1,9.6c-0.4,0.1-0.2,0.8,0.2,0.7
				c5.1-1.3,11.7-4,11.6-10.3c-0.1-6.1-5.9-9.6-11.1-11.1C102.2,17.1,102,17.7,102.4,17.9L102.4,17.9z"/>
		</g>
	</g>
</g>
<g>
	<g>
		<g>
			<path class="st0" d="M81.1,39.8c-2.4-0.3-4.7,1.5-6.4,3c-1.8,1.5-3.4,3.3-4.1,5.6c-1.2,4.4,1.8,9,5.7,10.9
				c4.5,2.3,10.6,2.2,15.3,0.6c4.1-1.3,8.1-5.1,7.1-9.9c-1.2-5.2-6.8-8.8-11.8-9.5c-0.4-0.1-0.4,0.6,0,0.7c4.2,0.5,8.2,3,10.3,6.8
				c2.6,4.6-0.6,9.3-5.1,11c-4,1.5-9.1,1.8-13.1,0.5c-4.1-1.2-7.9-4.6-7.9-9.1c0-2.4,1.3-4.6,3-6.2c1.7-1.7,4.5-4.1,7.1-3.8
				C81.6,40.6,81.6,39.9,81.1,39.8L81.1,39.8z"/>
		</g>
	</g>
</g>
<g>
	<g>
		<g>
			<path class="st0" d="M34.9,81.5c1.8-1.4,2.3,2.3,2.3,3.3c0,1.2-0.2,2.5-0.6,3.7c-0.7,2-1.9,5.1-4.4,5.1c-0.4,0-0.4,0.7,0,0.7
				c3.5,0,5.1-4.9,5.5-7.7c0.2-1.6,0.3-3.7-0.7-5c-0.7-0.9-1.8-1.2-2.7-0.5C34.1,81.3,34.6,81.8,34.9,81.5L34.9,81.5z"/>
		</g>
	</g>
</g>
<g>
	<g>
		<g>
			<path class="st0" d="M72.3,124.8c-1.4-1.8-0.3-4,1.4-5.1c1.5-1,3.4-1.5,5.2-1.8c3.6-0.6,8.8,0.9,8.5,5.5c0,0.4,0.7,0.4,0.7,0
				c0.2-2-0.9-3.8-2.4-5c-2-1.5-4.6-1.6-6.9-1.2c-2.2,0.4-5,1.2-6.6,2.9c-1.2,1.4-1.6,3.5-0.4,5C71.9,125.4,72.5,125.1,72.3,124.8
				L72.3,124.8z"/>
		</g>
	</g>
</g>
<g>
	<g>
		<g>
			<path class="st0" d="M50,48c1.3-0.8,1.6,2.9,1.6,3.3c0.1,1,0,2-0.2,2.9c-0.5,1.8-1.8,3.3-3.6,3.8c-0.4,0.1-0.2,0.8,0.2,0.7
				c2.7-0.7,4.2-3.3,4.3-6c0.1-1.2-0.2-6.9-2.7-5.3C49.3,47.7,49.6,48.3,50,48L50,48z"/>
		</g>
	</g>
</g>
<g>
	<g>
		<g>
			<path class="st0" d="M120.3,61.6c-2.4-2.6-5.5,2.7-6,4.5c-0.7,2.4-0.5,7.8,3,7.8c0.4,0,0.4-0.7,0-0.7c-2.8-0.1-2.9-4.7-2.5-6.6
				c0.2-1,0.7-2.1,1.3-2.9c0.7-0.9,2.5-3,3.6-1.7C120.1,62.4,120.6,61.9,120.3,61.6L120.3,61.6z"/>
		</g>
	</g>
</g>
<g>
	<g>
		<g>
			<path class="st0" d="M54.6,79.6c11.7,0.7,19,11.1,23,21c0.2,0.4,0.8,0.2,0.7-0.2c-4.2-10.2-11.6-20.7-23.7-21.5
				C54.2,78.9,54.2,79.6,54.6,79.6L54.6,79.6z"/>
		</g>
	</g>
</g>
<g>
	<g>
		<g>
			<path class="st0" d="M89.1,101.6c2.6,3.8,4.8,7.9,6.8,12c0.2,0.4,0.8,0.1,0.6-0.4c-1.9-4.2-4.2-8.2-6.8-12
				C89.5,100.9,88.9,101.2,89.1,101.6L89.1,101.6z"/>
		</g>
	</g>
</g>
<g>
	<g>
		<g>
			<path class="st0" d="M44.3,68.2c8.1,0.2,15.6,5.2,22,9.8c6.9,5,13.1,10.9,18.4,17.5c0.3,0.4,0.8-0.1,0.5-0.5
				c-5.5-6.8-11.8-12.9-19-17.9c-6.4-4.5-13.8-9.4-21.9-9.6C43.9,67.5,43.9,68.2,44.3,68.2L44.3,68.2z"/>
		</g>
	</g>
</g>
<g>
	<g>
		<g>
			<path class="st0" d="M94.6,98.3c2.4,3.5,4.7,7.1,7,10.7c0.2,0.4,0.8,0,0.6-0.4c-2.2-3.6-4.6-7.2-7-10.7
				C95,97.6,94.4,97.9,94.6,98.3L94.6,98.3z"/>
		</g>
	</g>
</g>
<g>
	<g>
		<g>
			<path class="st0" d="M45.5,65.3c4.2-1.5,9.2,0.5,13.2,2c4.2,1.6,8.2,3.7,12,6.2c7.4,4.9,13.6,11.3,19.1,18.2
				c0.3,0.4,0.8-0.1,0.5-0.5C84.5,84,78,77.4,70.2,72.4c-3.9-2.5-8-4.6-12.3-6.1c-3.9-1.4-8.5-3.1-12.6-1.6
				C44.9,64.8,45.1,65.4,45.5,65.3L45.5,65.3z"/>
		</g>
	</g>
</g>
<g>
	<g>
		<g>
			<path class="st0" d="M96,113.7c0.1,0.3,0.2,0.6,0.4,0.9c0.1,0.1,0.1,0.3,0.1,0.4c0,0,0,0,0,0c0.1-0.1,0.2-0.2,0.3-0.1
				c0,0,0,0,0,0c0-0.1-0.1-0.2-0.2-0.2c-0.1-0.2-0.4,0-0.3,0.2c0.1,0.1,0.2,0.4,0.4,0.4c0.2-0.1,0.1-0.3,0.1-0.4
				c-0.1-0.4-0.3-0.8-0.4-1.2C96.3,113.4,95.9,113.4,96,113.7L96,113.7z"/>
		</g>
	</g>
</g>
<g>
	<g>
		<g>
			<path class="st0" d="M89.4,90.2c-3.3-0.4-4.3,3.8-4.4,6.3c-0.1,2.6,1.1,5.3,4.1,5.4c3.2,0.2,5.4-2.6,6-5.5
				c0.5-2.4-0.5-6.3-3.7-5.3c-3.2,1-4.5,5-3.7,8c0.2-0.1,0.4-0.2,0.6-0.3c-0.1-0.4-0.2-0.8-0.2-1.2c0.1-0.4-0.5-0.6-0.7-0.2
				c-0.2,0.7-0.1,1.3,0.4,1.9c0.2,0.3,0.7,0,0.6-0.3c-0.7-2.6,0.4-6.3,3.3-7.1c2.6-0.8,3.3,2.4,2.9,4.3c-0.2,1.4-0.9,2.8-1.9,3.8
				c-2.2,2.2-6.1,1.8-6.8-1.5c-0.5-2.4,0.3-7.7,3.6-7.4C89.8,90.9,89.8,90.3,89.4,90.2L89.4,90.2z"/>
		</g>
	</g>
</g>
<g>
	<g>
		<g>
			<path class="st0" d="M86.5,101.7c0.5,3.3,0.2,6.5-0.7,9.7c-0.2,0.7-0.5,1.6-0.1,2.2c0.1,0.2,0.3,0.3,0.4,0.4
				c1,0.5,1.8,0.2,2.3,1.6c0.1,0.2,0.3,0.3,0.5,0.2c1.6-0.7,1-3.6,0.9-4.9c-0.1-2.9-0.1-5.8-0.2-8.8c0-0.4-0.7-0.4-0.7,0
				c0.1,2.2,0.1,4.4,0.2,6.6c0,1.1,0.1,2.2,0.1,3.3c0,0.9,0.4,2.7-0.6,3.2c0.2,0.1,0.3,0.1,0.5,0.2c-0.3-0.8-0.9-1.5-1.8-1.8
				c-0.8-0.3-1.3-0.2-1.1-1.5c0.1-0.7,0.4-1.5,0.6-2.1c0.6-2.7,0.7-5.5,0.2-8.3C87.1,101.1,86.4,101.3,86.5,101.7L86.5,101.7z"/>
		</g>
	</g>
</g>
<g>
	<g>
		<g>
			<path class="st0" d="M85.5,100.1c-0.3,1.2-0.7,2.3-1,3.5c-0.3,1.2-0.9,2.5-1,3.7c-0.2,1.8,1.3,1.1,2.4,1.7
				c0.4,0.2,0.7-0.4,0.4-0.6c-0.4-0.2-0.7-0.2-1.1-0.3c-0.3,0.1-0.5-0.1-0.6-0.4c-0.4-0.2-0.4-0.5-0.2-0.9c0-0.4,0.2-0.9,0.4-1.3
				c0.5-1.8,1-3.5,1.5-5.2C86.2,99.8,85.6,99.7,85.5,100.1L85.5,100.1z"/>
		</g>
	</g>
</g>
<g>
	<g>
		<g>
			<path class="st0" d="M94.2,102.3c1.1,1.6,2,3.3,2.7,5.1c0.2,0.4,0.8,0.2,0.7-0.2c-0.7-1.9-1.7-3.6-2.8-5.3
				C94.6,101.6,94,101.9,94.2,102.3L94.2,102.3z"/>
		</g>
	</g>
</g>
<g>
	<g>
		<g>
			<path class="st0" d="M56.7,69.2c2.2-0.1,4.5,1.8,6.3,3c1.9,1.2,3.7,2.5,5.5,3.9c3.6,2.7,7.1,5.7,10.5,8.8
				c0.3,0.3,0.8-0.2,0.5-0.5c-3.5-3.3-7.2-6.3-11-9.1c-1.9-1.4-3.9-2.8-6-4.1c-1.7-1.1-3.6-2.7-5.8-2.6
				C56.2,68.5,56.2,69.2,56.7,69.2L56.7,69.2z"/>
		</g>
	</g>
</g>
<g>
	<g>
		<g>
			<path class="st0" d="M54.6,78.9c-1.7-0.3-4.5,0.1-5.8-1.3c-1.1-1.1,0.1-1.4,0.1-2.4c0-0.4-0.3-1-0.6-1.3
				c-0.7-0.9-1.9-1.2-3.1-1.2c-0.7,0-1.3,0.1-1.9,0.2c-1.1,0.2-2.1,0.3-3.2,0.4c0,0.2,0,0.5,0,0.7c0.3,0,0.7,0.2,1,0
				c0.3-0.2,0.2-0.5-0.1-0.6c-0.2-0.1-0.5-0.1-0.8-0.2c-0.4-0.1-0.6,0.6-0.2,0.7c0.2,0.1,0.5,0.1,0.8,0.2c0-0.2-0.1-0.4-0.1-0.6
				c0.1-0.1-0.5-0.1-0.6-0.1c-0.4,0-0.4,0.7,0,0.7c0.9,0,1.7,0.1,2.5-0.1c0.8-0.2,1.5-0.4,2.3-0.4c0.8,0,1.7,0.1,2.4,0.5
				c0.4,0.3,0.9,0.8,0.9,1.3c0,0.5-0.4,0.9-0.5,1.3c-0.4,1.2,0.9,1.9,1.9,2.3c1.6,0.6,3.3,0.5,5,0.8C54.8,79.7,55,79,54.6,78.9
				L54.6,78.9z"/>
		</g>
	</g>
</g>
<g>
	<g>
		<g>
			<path class="st0" d="M78.6,101.3c1.5-0.7,3.3,0.1,3.9,1.6c0.3,0.8,0.4,1.8,1.3,2c0.4,0.1,0.6-0.5,0.2-0.7
				c-0.8-0.2-0.8-1.5-1.1-2.1c-0.3-0.5-0.7-0.9-1.2-1.2c-1.1-0.6-2.3-0.7-3.4-0.2C77.8,100.9,78.2,101.5,78.6,101.3L78.6,101.3z"/>
		</g>
	</g>
</g>
<g>
	<g>
		<g>
			<path class="st0" d="M89.9,110.5c1.5-0.2,1.5,2.6,2.1,3.4c0.5,0.6,1.2,1,1.9,1.3c0.7,0.4,1.2,0.8,1.5,1.6
				c0.2,0.4,0.2,0.8,0.4,1.2c0.3,0.7,0.8,1.2,1.6,1.3c0.2,0,0.4-0.1,0.4-0.3c0.2-1.8,0-3.5-0.4-5.3c-0.1-0.4-0.8-0.2-0.7,0.2
				c0.5,1.7,0.6,3.4,0.4,5.1c0.1-0.1,0.3-0.2,0.4-0.3c-1.5-0.2-1.3-2.2-2.1-3.2c-0.7-0.8-1.6-1-2.4-1.7c-1.3-1.1-0.9-4.5-3.3-4.1
				C89.3,109.9,89.5,110.5,89.9,110.5L89.9,110.5z"/>
		</g>
	</g>
</g>
<g>
	<g>
		<g>
			<path class="st0" d="M43.4,67.4c-2.2,0.8-4.6,1.8-6.3,3.5c-1.6,1.5,2,2.6,2.9,3c0.4,0.2,0.7-0.4,0.4-0.6
				c-0.7-0.4-1.6-0.7-2.2-1.2c-0.7-0.5-0.7-0.7,0.1-1.3c0.3-0.2,0.6-0.4,0.9-0.6c1.4-0.9,2.9-1.6,4.4-2.2
				C44,67.9,43.8,67.2,43.4,67.4L43.4,67.4z"/>
		</g>
	</g>
</g>
<g>
	<g>
		<g>
			<path class="st0" d="M46.2,68c-1.5,0.4-2.9,0.7-4.4,1.1c-0.4,0.1-0.2,0.8,0.2,0.7c1.5-0.4,2.9-0.7,4.4-1.1
				C46.8,68.6,46.6,67.9,46.2,68L46.2,68z"/>
		</g>
	</g>
</g>
<g>
	<g>
		<g>
			<path class="st0" d="M46.1,68.3c-0.4,0.3-0.7,0.5-1.1,0.8c-0.1,0.1-0.2,0.3-0.1,0.5c0.1,0.1,0.3,0.2,0.5,0.1
				c0.4-0.3,0.7-0.5,1.1-0.8c0.1-0.1,0.2-0.3,0.1-0.5C46.5,68.3,46.2,68.2,46.1,68.3L46.1,68.3z"/>
		</g>
	</g>
</g>
<g>
	<g>
		<g>
			<path class="st0" d="M55.3,71.4c-0.7,0.7-1.5,1.4-2.4,1.9c-0.4,0.2,0,0.8,0.4,0.6c0.9-0.5,1.8-1.2,2.6-2
				C56.1,71.6,55.6,71.1,55.3,71.4L55.3,71.4z"/>
		</g>
	</g>
</g>
<g>
	<g>
		<g>
			<path class="st0" d="M56.9,72c-0.2,0.4-0.4,0.7-0.5,1.1c-0.2,0.4,0.4,0.7,0.6,0.4c0.2-0.4,0.4-0.7,0.5-1.1
				C57.7,72,57.1,71.6,56.9,72L56.9,72z"/>
		</g>
	</g>
</g>
<g>
	<g>
		<g>
			<path class="st0" d="M81.1,92c-0.5,1-0.9,2-1.4,3c-0.2,0.4,0.4,0.7,0.6,0.4c0.5-1,0.9-2,1.4-3C81.8,92,81.3,91.6,81.1,92L81.1,92
				z"/>
		</g>
	</g>
</g>
<g>
	<g>
		<g>
			<path class="st0" d="M82.4,93.4c-0.3,0.5-0.5,1.1-0.8,1.6c-0.2,0.4,0.4,0.7,0.6,0.4c0.3-0.5,0.5-1.1,0.8-1.6
				C83.2,93.4,82.6,93,82.4,93.4L82.4,93.4z"/>
		</g>
	</g>
</g>
<g>
	<g>
		<g>
			<path class="st0" d="M49,60.3c2.6-1.3,4.6-3.4,5.7-6.1c0.2-0.4-0.4-0.7-0.6-0.4c-1.1,2.6-3,4.6-5.5,5.8
				C48.3,59.9,48.6,60.5,49,60.3L49,60.3z"/>
		</g>
	</g>
</g>
<g>
	<g>
		<g>
			<path class="st0" d="M111.6,65.8c-0.7,3.2-0.1,6.4,1.8,9.1c0.2,0.4,0.9,0,0.6-0.4c-1.8-2.5-2.4-5.5-1.8-8.5
				C112.3,65.6,111.7,65.4,111.6,65.8L111.6,65.8z"/>
		</g>
	</g>
</g>
<g>
	<g>
		<g>
			<path class="st0" d="M39.8,81.8c0.7,4.4-0.2,8.8-2.5,12.6c-0.2,0.4,0.4,0.7,0.6,0.4c2.4-4,3.3-8.6,2.5-13.1
				C40.4,81.2,39.7,81.4,39.8,81.8L39.8,81.8z"/>
		</g>
	</g>
</g>
<g>
	<g>
		<g>
			<path class="st0" d="M68.6,120.6c1.2-1.9,2.8-3.3,4.9-4.1c0.4-0.2,0.2-0.8-0.2-0.7c-2.2,0.9-4,2.4-5.3,4.4
				C67.8,120.6,68.4,121,68.6,120.6L68.6,120.6z"/>
		</g>
	</g>
</g>
<g>
	<g>
		<g>
			<path class="st0" d="M21.7,91.8c-7.4-6.3-5.3-16.8-3.3-25c0.1-0.4-0.5-0.6-0.7-0.2c-2,8.4-4.1,19.2,3.5,25.7
				C21.6,92.6,22.1,92.1,21.7,91.8L21.7,91.8z"/>
		</g>
	</g>
</g>
<g>
	<g>
		<g>
			<path class="st0" d="M15.5,88.5c-0.8-1.5-1.3-3-1.5-4.6c-0.1-0.4-0.7-0.2-0.7,0.2c0.2,1.7,0.8,3.3,1.6,4.8
				C15.1,89.2,15.7,88.9,15.5,88.5L15.5,88.5z"/>
		</g>
	</g>
</g>
<g>
	<g>
		<g>
			<path class="st0" d="M84.6,124.6c0.1,0,0.2,0,0.3,0c0.2,0,0.2-0.3,0-0.3c-0.1,0-0.2,0-0.3,0C84.4,124.3,84.4,124.6,84.6,124.6
				L84.6,124.6z"/>
		</g>
	</g>
</g>
<g>
	<g>
		<g>
			<path class="st0" d="M85.4,126.4c6.2,0,12.4,0,18.7,0c0.2,0,0.2-0.3,0-0.3c-6.2,0-12.4,0-18.7,0C85.2,126,85.2,126.4,85.4,126.4
				L85.4,126.4z"/>
		</g>
	</g>
</g>
<g>
	<g>
		<g>
			<path class="st0" d="M75.3,126.5c-9.6-0.5-19.2-0.3-28.8,0.5c-0.2,0-0.2,0.4,0,0.3c9.6-0.8,19.2-1,28.8-0.5
				C75.5,126.9,75.5,126.5,75.3,126.5L75.3,126.5z"/>
		</g>
	</g>
</g>
<g>
	<g>
		<g>
			<path class="st0" d="M60.7,25.5c0.2,0,0.2-0.3,0-0.3C60.5,25.2,60.5,25.5,60.7,25.5L60.7,25.5z"/>
		</g>
	</g>
</g>
<g>
	<g>
		<g>
			<path class="st0" d="M60.8,25.7c3-1.2,6.3-1.9,9.5-2.1c1.7-0.1,3.3,0,5,0.2c1.5,0.2,4,0.4,5,1.6c0.1,0.2,0.4-0.1,0.2-0.2
				c-1-1.1-2.9-1.3-4.3-1.5c-1.7-0.3-3.4-0.4-5.1-0.4c-3.6,0-7.2,0.7-10.6,2.1C60.5,25.4,60.6,25.8,60.8,25.7L60.8,25.7z"/>
		</g>
	</g>
</g>
<g>
	<g>
		<g>
			<path class="st0" d="M60.8,34.4c6.7,1,13.9,2,20.1-1.3c0.2-0.1,0-0.4-0.2-0.3c-6.2,3.3-13.3,2.3-19.8,1.3
				C60.7,34,60.6,34.4,60.8,34.4L60.8,34.4z"/>
		</g>
	</g>
</g>
<g>
	<g>
		<g>
			<path class="st0" d="M88,25.2c3.2-1.2,6.6-1.9,10-2.2c1.6-0.1,3.1-0.2,4.7-0.1c0.8,0,1.6,0.1,2.5,0.2c0.5,0.1,1.1,0.1,1.7,0.2
				c0.2,0,0.3,0.1,0.5,0.1c0.3,0,0.6,0.1,0.8,0.3c-0.2,0.1-0.1,0.4,0.1,0.3c0.7-0.2,0.1-0.8-0.3-0.9c-0.9-0.3-2-0.3-3-0.4
				c-1.2-0.1-2.3-0.2-3.5-0.2c-4.6-0.1-9.2,0.8-13.6,2.3C87.7,25,87.8,25.3,88,25.2L88,25.2z"/>
		</g>
	</g>
</g>
<g>
	<g>
		<g>
			<path class="st0" d="M89.1,33.9c6,3,13.2,2.6,18.8-1c0.2-0.1,0-0.4-0.2-0.3c-5.5,3.5-12.6,3.9-18.5,1
				C89.1,33.5,88.9,33.8,89.1,33.9L89.1,33.9z"/>
		</g>
	</g>
</g>
<g>
	<g>
		<g>
			<path class="st0" d="M90.1,97.4c0.2-0.7,0.5-1.5,0.9-2.1c0.2-0.3,0.4-0.8,0.7-0.9c0.5-0.2,0.6,0.1,0.7,0.6
				c0.1,0.6,0.1,1.2-0.1,1.8c-0.1,0.4-0.3,0.8-0.6,1.1c-0.1,0.1-0.1,0.1-0.2,0.2c-0.3,0.4-0.7,0.4-1.1-0.1c0.3-0.3-0.2-0.8-0.5-0.5
				c-0.7,0.7-0.1,1.8,0.9,1.7c1.4-0.1,2.2-1.9,2.3-3c0.1-0.7,0.1-2.9-1.2-2.7c-0.6,0.1-1,0.8-1.3,1.3c-0.5,0.8-0.9,1.6-1.2,2.6
				C89.4,97.6,90,97.8,90.1,97.4L90.1,97.4z"/>
		</g>
	</g>
</g>
</svg>
