<?xml version="1.0" encoding="utf-8"?>
<!-- Generator: Adobe Illustrator 24.0.1, SVG Export Plug-In . SVG Version: 6.00 Build 0)  -->
<svg version="1.1" id="Layer_1" xmlns="http://www.w3.org/2000/svg" xmlns:xlink="http://www.w3.org/1999/xlink" x="0px" y="0px"
	 viewBox="0 0 141.7 141.7" style="enable-background:new 0 0 141.7 141.7;" xml:space="preserve">
<style type="text/css">
	.st0{fill:#070707;}
	.st1{enable-background:new    ;}
</style>
<g id="Layer_1_1_">
</g>
<g id="Layer_1_2_">
</g>
<g id="Layer_1_3_">
</g>
<g id="Layer_1_4_">
</g>
<g id="Layer_1_5_">
</g>
<g id="Layer_3">
</g>
<g id="Layer_3_1_">
</g>
<g>
	<g>
		<g>
			<path class="st0" d="M33.8,89.9c-0.4,3.7,1.1,7.3,2.8,10.6c1.8,3.4,4.1,6.4,6.8,9.1c5.3,5.2,11.8,9,18.8,11.5
				c4.4,1.6,8.9,2.6,13.5,3.1c0.4,0.1,0.4-0.6,0-0.7c-9.4-1-18.8-4.4-26.6-10c-3.8-2.7-7.3-6.1-9.9-10c-2.6-3.9-5.1-8.8-4.7-13.6
				C34.5,89.5,33.9,89.5,33.8,89.9L33.8,89.9z"/>
		</g>
	</g>
</g>
<g>
	<g>
		<g>
			<path class="st0" d="M42.2,74c-2.1,3-4.5,5.9-6.2,9.2c-0.2,0.4,0.4,0.7,0.6,0.3c1.8-3.3,4.1-6.2,6.2-9.2
				C43.1,74,42.5,73.7,42.2,74L42.2,74z"/>
		</g>
	</g>
</g>
<g>
	<g>
		<g>
			<path class="st0" d="M116,26c-3.2-6.1-9.4-10.1-16.1-11.8c-4.1-1-8.4-1.1-12.6-0.8c-4.2,0.3-8.4,0.7-12.5,1.3
				c-3.9,0.6-7.6,1.7-10.9,3.9c-3,2-5.5,4.7-7.4,7.7c-1.9,3-3.3,6.4-4.1,9.8c-0.9,3.8-0.9,7.7-1,11.5c-0.1,2.6-0.2,5.2-0.7,7.7
				c-0.4,1.8-1.3,3-2.6,4.2c-0.9,0.9-2.9,2.4-3,3.8c0,0.5,0.2,0.6,0.5,0.9c0.5,0.5,1,0.7,1,1.5c0,0.7-0.3,1.3-0.9,1.6
				c-0.4,0.2,0,0.8,0.3,0.6c0.9-0.5,1.3-1.3,1.2-2.3c0-0.4-0.2-0.9-0.4-1.2c-0.1-0.2-0.3-0.3-0.4-0.4c-0.4-0.5-0.5-1-0.2-1.6
				c0.6-1.3,2.1-2.2,3-3.1c0.9-0.9,1.5-1.9,1.9-3c1.2-3.8,1-8.1,1.1-12c0.1-3.8,0.6-7.5,1.8-11.1c2.4-7.3,7.8-13.9,15.2-16.5
				c4-1.4,8.3-1.7,12.5-2.1c4.2-0.5,8.4-0.9,12.5-0.6c8.5,0.5,17.2,4.5,21.3,12.3C115.6,26.7,116.2,26.4,116,26L116,26z"/>
		</g>
	</g>
</g>
<g>
	<g>
		<g>
			<path class="st0" d="M74.6,15.6c0.4,0,0.4-0.7,0-0.7S74.2,15.6,74.6,15.6L74.6,15.6z"/>
		</g>
	</g>
</g>
<g>
	<g>
		<g>
			<path class="st0" d="M52.8,34.9c-5.4-0.4-8.4-5.9-5.4-10.5c1.3-2,3.5-3.2,5.8-3.7c2.1-0.4,5.1-0.2,6.6,1.5
				c0.3,0.3,0.7-0.1,0.5-0.5c-1.6-1.9-4.6-2.1-6.9-1.8c-2.7,0.4-5,1.8-6.6,4c-1.5,2.2-1.7,4.9-0.7,7.3c1.1,2.6,3.9,4,6.6,4.2
				C53.2,35.6,53.2,34.9,52.8,34.9L52.8,34.9z"/>
		</g>
	</g>
</g>
<g>
	<g>
		<g>
			<path class="st0" d="M111.2,20.5c3.8-2,9.7-2.9,12.4,1.2c2.7,4.1,1,10.7-4.2,11.6c-0.4,0.1-0.2,0.7,0.2,0.6
				c5.7-1,7.2-7.7,4.8-12.2c-2.6-4.9-9.4-3.9-13.5-1.8C110.5,20.1,110.8,20.6,111.2,20.5L111.2,20.5z"/>
		</g>
	</g>
</g>
<g>
	<g>
		<g>
			<path class="st0" d="M80.8,44.4c0.1,0,0.2,0,0.3-0.1c0-0.1-0.1-0.2-0.1-0.3c-0.2,0.2-0.7,0.1-0.9,0.2c-0.5,0.2-1.1,0.7-1.5,1
				c-0.9,0.7-1.8,1.6-2.2,2.7c-1,2.5,2.1,3.9,4.2,3.8c1.7-0.1,3.4-0.9,5.1-1.1c1.7-0.2,3.1,0.5,4.7,0.8c2.1,0.5,4.2-0.7,3.9-3.1
				c-0.3-2.6-3.7-4.1-5.9-4.9c-0.2-0.1-0.3,0.2-0.1,0.3c2.2,0.8,6.4,2.6,5.5,5.7c-0.6,2.2-2.7,1.9-4.5,1.4c-1.2-0.3-2.3-0.7-3.6-0.6
				c-1.5,0.2-3,0.8-4.5,1.1c-1.7,0.3-5.1-0.3-4.8-2.6c0.2-1.4,1.7-2.7,2.8-3.5c0.4-0.3,0.7-0.5,1.2-0.7c0.2-0.1,0.6-0.1,0.8-0.3
				c0.1-0.1,0-0.3-0.1-0.3c-0.1,0-0.2,0-0.4,0.1C80.5,44.2,80.6,44.5,80.8,44.4L80.8,44.4z"/>
		</g>
	</g>
</g>
<g>
	<g>
		<g>
			<path class="st0" d="M89.5,51.4c0.6,1.5,1,3.6,0.3,5.1c-0.5,1.2-2,2-3.1,1.1c-0.5-0.4-0.7-1-1-1.6c-0.1-0.2-0.4,0-0.3,0.2
				c0.3,0.7,0.6,1.5,1.3,1.9c0.8,0.4,1.8,0.2,2.5-0.3c1.9-1.3,1.4-4.7,0.6-6.6C89.7,51.1,89.4,51.1,89.5,51.4L89.5,51.4z"/>
		</g>
	</g>
</g>
<g>
	<g>
		<g>
			<path class="st0" d="M34.5,81.9c2.9,2,0.2,5.4,0,8.1c0.1,0,0.2-0.1,0.3-0.1c-1.1-1.4-2.8-2.1-4.4-2.8c-1.7-0.7-4.3-1.7-4.5-3.9
				c-0.2-2.9,2.2-3.7,4.5-3.1c1.8,0.5,3.5,1.5,5,2.5c0.2,0.1,0.3-0.2,0.2-0.3c-2.3-1.6-8.5-5.2-9.8-0.6c-1.4,5.1,6.5,5.3,8.8,8.3
				c0.1,0.1,0.3,0.1,0.3-0.1c0.3-2.9,3-6.2-0.2-8.4C34.5,81.5,34.4,81.8,34.5,81.9L34.5,81.9z"/>
		</g>
	</g>
</g>
<g>
	<g>
		<g>
			<path class="st0" d="M26.1,82.4c1.4-1.4,3.3-0.9,4.8,0.1c0.2,0.1,0.3-0.2,0.2-0.3c-1.6-1-3.7-1.5-5.2-0.1
				C25.7,82.4,26,82.6,26.1,82.4L26.1,82.4z"/>
		</g>
	</g>
</g>
<g>
	<g>
		<g>
			<path class="st0" d="M81.8,129.8c-1.8-1.1-2.9-2.9-4.5-4.3c-0.2-0.1-0.4-0.3-0.5-0.4c-1.4-1,0.6-2.4,1.1-2.8c1.3-1,2.8-1.5,4.4-1
				c2.2,0.6,3.7,3,4.2,5.1c0.3,1.2,0.1,2.5-0.7,3.4C84.8,130.8,82.9,130.3,81.8,129.8c-0.2-0.1-0.4,0.2-0.2,0.3c2,1,5.1,0.8,5.4-2
				c0.3-2.8-1.6-5.8-4.1-7c-1.3-0.6-2.7-0.4-3.9,0.2c-0.9,0.4-3,1.7-3,2.9c0,1.1,1.4,1.7,2,2.4c1.2,1.3,2.2,2.6,3.7,3.5
				C81.8,130.2,82,129.9,81.8,129.8z"/>
		</g>
	</g>
</g>
<g>
	<g>
		<g>
			<path class="st0" d="M82.9,125.5c1.2,1.3,2.2,2.9,2.2,4.6c0,0.2,0.3,0.2,0.3,0c-0.1-1.9-1-3.5-2.3-4.9
				C83,125.1,82.7,125.4,82.9,125.5L82.9,125.5z"/>
		</g>
	</g>
</g>
<g>
	<g>
		<g>
			<path class="st0" d="M120.1,66.1c2.6,0.1,5.6,2.1,5.6,4.9c0,1.7-1.3,2.5-2.9,2.2c-1.5-0.3-2.8-1.3-3.9-2.3
				c-0.2-0.1-0.4,0.1-0.2,0.2c1.3,1.2,2.9,2.5,4.7,2.5c1.3,0,2.3-0.7,2.5-1.9c0.7-3.3-3-5.8-5.8-5.9
				C119.9,65.7,119.9,66.1,120.1,66.1L120.1,66.1z"/>
		</g>
	</g>
</g>
<g>
	<g>
		<g>
			<path class="st0" d="M122.4,70.6c1.2,0.4,2.7,1.4,2,2.9c-0.1,0.2,0.2,0.3,0.3,0.2c0.9-1.7-0.7-2.9-2.2-3.3
				C122.3,70.2,122.2,70.5,122.4,70.6L122.4,70.6z"/>
		</g>
	</g>
</g>
<g>
	<path class="st0" d="M99.3,40.8c-6,0-10.9-4.9-10.9-10.9c0-6,4.9-10.9,10.9-10.9s10.9,4.9,10.9,10.9
		C110.2,35.9,105.3,40.8,99.3,40.8z M99.3,19.3c-5.8,0-10.5,4.7-10.5,10.5c0,5.8,4.7,10.5,10.5,10.5s10.5-4.7,10.5-10.5
		C109.8,24.1,105.1,19.3,99.3,19.3z"/>
</g>
<g>
	<path class="st0" d="M72.3,41.9c-6,0-10.9-4.9-10.9-10.9c0-6,4.9-10.9,10.9-10.9S83.2,25,83.2,31C83.2,37,78.3,41.9,72.3,41.9z
		 M72.3,20.5c-5.8,0-10.5,4.7-10.5,10.5c0,5.8,4.7,10.5,10.5,10.5c5.8,0,10.5-4.7,10.5-10.5C82.8,25.2,78.1,20.5,72.3,20.5z"/>
</g>
<g>
	<path class="st0" d="M119.8,25.6c0-1.3-1-2.3-2.3-2.3c-1.3,0-2.3,1-2.3,2.3c0,1.3,1,2.3,2.3,2.3C118.8,27.9,119.8,26.9,119.8,25.6z
		"/>
</g>
<g>
	<circle class="st0" cx="53.8" cy="27.6" r="2.3"/>
</g>
<g>
	<path class="st0" d="M90,43.2c0-1.5-2.2-2.7-4.8-2.7s-4.8,1.2-4.8,2.7s2.2,2.7,4.8,2.7C87.8,45.9,90,44.7,90,43.2z"/>
</g>
<g>
	<path class="st0" d="M93.7,27c-1.9,0-3.5,1.6-3.5,3.5c0,1.9,1.6,3.5,3.5,3.5c1.9,0,3.5-1.6,3.5-3.5C97.2,28.5,95.6,27,93.7,27z
		 M95.1,32.7c-0.6,0-1-0.5-1-1c0-0.6,0.5-1,1-1c0.6,0,1,0.5,1,1C96.1,32.3,95.6,32.7,95.1,32.7z"/>
</g>
<g>
	<path class="st0" d="M66.5,27.8c-1.9,0-3.5,1.6-3.5,3.5c0,1.9,1.6,3.5,3.5,3.5c1.9,0,3.5-1.6,3.5-3.5C70,29.4,68.4,27.8,66.5,27.8z
		 M67.9,33.6c-0.6,0-1-0.5-1-1c0-0.6,0.5-1,1-1c0.6,0,1,0.5,1,1S68.4,33.6,67.9,33.6z"/>
</g>
<g>
	<g>
		<g>
			<path class="st0" d="M85.5,50.6c0.3,1.4,0.2,3.2,0,4.5c-0.1,0.8-0.3,1.8-0.9,2.4c-0.7,0.7-1.9,0.6-2.7,0c-1.5-1.3-1-4.3-0.5-6
				c0.1-0.2-0.3-0.3-0.3-0.1c-0.6,1.9-1.1,6.1,1.6,6.9c1.3,0.4,2.3-0.3,2.8-1.5c0.4-1,0.5-2.2,0.5-3.3c0-1,0.1-2.1-0.1-3.1
				C85.7,50.3,85.4,50.4,85.5,50.6L85.5,50.6z"/>
		</g>
	</g>
</g>
<g>
	<g>
		<g>
			<path class="st0" d="M51.5,51.2c-2.3-0.4-4.9,0.6-6.7,2.1c-1.3,1.1-2.1,2.7-0.2,3.6c0.2,0.1,0.3-0.2,0.2-0.3
				c-1.1-0.6-1-1.8-0.2-2.6c0.5-0.5,1.1-1,1.7-1.3c1.6-0.9,3.4-1.5,5.2-1.2C51.7,51.6,51.8,51.3,51.5,51.2L51.5,51.2z"/>
		</g>
	</g>
</g>
<g>
	<g>
		<g>
			<path class="st0" d="M46.5,55.3c-0.9,0.4-2.3,1.7-1.2,2.6c1.6,1.3,3.9-0.4,5.2-1.4c0.2-0.1-0.1-0.4-0.2-0.2
				c-1.1,0.9-2.6,2.1-4.1,1.7c-1.8-0.4-0.6-1.9,0.5-2.3C46.8,55.5,46.7,55.2,46.5,55.3L46.5,55.3z"/>
		</g>
	</g>
</g>
<g>
	<g>
		<g>
			<path class="st0" d="M114.9,25.1c4.1,6.4,5.4,13.8,5.8,21.2c0.3,7.8,0,15.5-2,23.1c-1.9,7.4-4.6,14.7-7.7,21.7
				c-1.4,3.3-2.5,6.5-3.3,10.1c-0.4,1.8-0.8,3.6-1.7,5.1c-0.9,1.4-2,1.9-3.5,2.4c-0.9,0.3-1.5,1.1-2.1,1.9c-1.4,1.8-2.7,3.6-4.2,5.3
				c-2.9,3-6.1,5.6-10,7.3c-0.4,0.2-0.1,0.7,0.3,0.6c3.4-1.5,6.5-3.7,9.2-6.4c1.2-1.2,2.4-2.5,3.4-3.9c1-1.2,1.9-3.2,3.3-3.9
				c1-0.5,2-0.6,2.9-1.3c1-0.8,1.6-2.1,2.1-3.2c0.6-1.7,0.9-3.4,1.3-5.2c0.4-2,1.1-3.9,1.8-5.8c1.4-3.5,3-7,4.3-10.5
				c1.3-3.8,2.7-7.6,3.8-11.4c2.3-7.7,3-15.7,2.7-23.7c-0.2-8.2-1.4-16.5-5.9-23.5C115.2,24.4,114.6,24.8,114.9,25.1L114.9,25.1z"/>
		</g>
	</g>
</g>
<g>
	<g>
		<g>
			<path class="st0" d="M71.6,20.4c8.8,0.7,17.7,1.5,26.3-1c0.4-0.1,0.2-0.8-0.2-0.6c-8.5,2.5-17.4,1.8-26.1,1
				C71.2,19.7,71.2,20.4,71.6,20.4L71.6,20.4z"/>
		</g>
	</g>
</g>
<g>
	<g>
		<g>
			<path class="st0" d="M75.2,41.9c6.7-2.2,13.8-2.6,20.7-1.3c0.4,0.1,0.6-0.6,0.2-0.6c-7-1.4-14.2-1-21,1.3
				C74.6,41.4,74.8,42,75.2,41.9L75.2,41.9z"/>
		</g>
	</g>
</g>
<g>
	<g>
		<g>
			<path class="st0" d="M70.6,20.1c-3.8,0.2-7.7,1.4-10.4,4.3c-2.5,2.6-3.7,6.2-3,9.7c0.7,3.4,3.1,6.2,6.4,7.5
				c3.9,1.5,8.3,0.7,12.3-0.1c0.4-0.1,0.2-0.7-0.2-0.6c-3.6,0.7-7.4,1.4-10.9,0.4c-3.4-0.9-6-3.6-6.9-7c-0.9-3.4,0.3-6.9,2.7-9.4
				c2.6-2.7,6.3-3.9,10-4.1C71,20.8,71,20.1,70.6,20.1L70.6,20.1z"/>
		</g>
	</g>
</g>
<g>
	<g>
		<g>
			<path class="st0" d="M103,19.9c4.7,1.4,10.2,4.5,10.3,10.2c0.1,5.8-6.2,8.2-10.8,9.4c-0.4,0.1-0.2,0.7,0.2,0.6
				c5-1.2,11.4-3.9,11.3-10c-0.1-6-5.8-9.3-10.8-10.8C102.8,19.1,102.6,19.8,103,19.9L103,19.9z"/>
		</g>
	</g>
</g>
<g>
	<g>
		<g>
			<path class="st0" d="M82.3,41.2c-2.3-0.3-4.5,1.5-6.2,2.9c-1.8,1.4-3.3,3.2-3.9,5.4c-1.2,4.3,1.7,8.7,5.5,10.6
				c4.4,2.2,10.3,2.1,14.9,0.6c4-1.3,7.9-5,6.9-9.6c-1.1-5.1-6.6-8.6-11.5-9.2c-0.4-0.1-0.4,0.6,0,0.7c4.1,0.5,8,3,10,6.6
				c2.5,4.5-0.6,9-4.9,10.7c-3.9,1.5-8.8,1.7-12.8,0.5c-3.9-1.1-7.7-4.5-7.7-8.9c0-2.4,1.3-4.4,2.9-6c1.7-1.6,4.4-4,6.9-3.7
				C82.8,42,82.8,41.3,82.3,41.2L82.3,41.2z"/>
		</g>
	</g>
</g>
<g>
	<g>
		<g>
			<path class="st0" d="M37.4,81.7c1.7-1.4,2.2,2.3,2.2,3.2c0,1.2-0.2,2.4-0.6,3.6c-0.6,1.9-1.8,5-4.3,5c-0.4,0-0.4,0.7,0,0.7
				c3.4,0,5-4.8,5.4-7.5c0.2-1.5,0.3-3.6-0.6-4.9c-0.6-0.9-1.7-1.1-2.6-0.5C36.6,81.6,37.1,82,37.4,81.7L37.4,81.7z"/>
		</g>
	</g>
</g>
<g>
	<g>
		<g>
			<path class="st0" d="M73.7,123.8c-1.3-1.8-0.3-3.9,1.4-5c1.5-1,3.3-1.5,5-1.8c3.5-0.6,8.6,0.9,8.2,5.3c0,0.4,0.6,0.4,0.7,0
				c0.2-1.9-0.8-3.7-2.3-4.8c-1.9-1.4-4.4-1.5-6.7-1.1c-2.2,0.4-4.9,1.1-6.4,2.9c-1.2,1.4-1.6,3.4-0.4,4.9
				C73.4,124.5,74,124.1,73.7,123.8L73.7,123.8z"/>
		</g>
	</g>
</g>
<g>
	<g>
		<g>
			<path class="st0" d="M52,49.2c1.2-0.8,1.6,2.8,1.6,3.2c0.1,1,0,1.9-0.2,2.8c-0.5,1.8-1.7,3.2-3.5,3.7c-0.4,0.1-0.2,0.7,0.2,0.6
				c2.6-0.7,4.1-3.2,4.2-5.8c0.1-1.2-0.2-6.7-2.6-5.1C51.4,48.9,51.7,49.4,52,49.2L52,49.2z"/>
		</g>
	</g>
</g>
<g>
	<g>
		<g>
			<path class="st0" d="M120.4,62.4c-2.3-2.5-5.4,2.7-5.8,4.4c-0.6,2.3-0.5,7.6,3,7.6c0.4,0,0.4-0.7,0-0.7c-2.7-0.1-2.9-4.5-2.4-6.4
				c0.2-1,0.7-2,1.3-2.9c0.6-0.9,2.4-2.9,3.5-1.6C120.2,63.2,120.7,62.7,120.4,62.4L120.4,62.4z"/>
		</g>
	</g>
</g>
<g>
	<g>
		<g>
			<path class="st0" d="M56.5,79.9c11.4,0.7,18.4,10.8,22.4,20.4c0.2,0.4,0.8,0.2,0.6-0.2c-4.1-9.9-11.3-20.2-23-20.9
				C56.1,79.2,56.1,79.9,56.5,79.9L56.5,79.9z"/>
		</g>
	</g>
</g>
<g>
	<g>
		<g>
			<path class="st0" d="M90.1,101.3c2.5,3.7,4.7,7.7,6.6,11.7c0.2,0.4,0.7,0.1,0.6-0.3c-1.9-4.1-4.1-8-6.6-11.7
				C90.5,100.6,89.9,101,90.1,101.3L90.1,101.3z"/>
		</g>
	</g>
</g>
<g>
	<g>
		<g>
			<path class="st0" d="M46.6,68.8c7.9,0.2,15.1,5.1,21.3,9.5c6.7,4.8,12.8,10.6,17.9,17c0.3,0.3,0.7-0.1,0.5-0.5
				C81,88.3,74.8,82.4,67.9,77.5c-6.2-4.4-13.4-9.2-21.3-9.3C46.1,68.1,46.1,68.8,46.6,68.8L46.6,68.8z"/>
		</g>
	</g>
</g>
<g>
	<g>
		<g>
			<path class="st0" d="M95.5,98.1c2.4,3.4,4.6,6.9,6.8,10.4c0.2,0.4,0.8,0,0.6-0.3c-2.2-3.5-4.4-7-6.8-10.4
				C95.8,97.4,95.2,97.7,95.5,98.1L95.5,98.1z"/>
		</g>
	</g>
</g>
<g>
	<g>
		<g>
			<path class="st0" d="M47.7,66c4.1-1.4,9,0.5,12.8,1.9c4.1,1.5,8,3.6,11.7,6.1c7.2,4.8,13.2,11,18.6,17.7c0.3,0.3,0.7-0.1,0.5-0.5
				c-5.6-7-12-13.4-19.5-18.3c-3.8-2.4-7.8-4.5-12-5.9c-3.8-1.3-8.3-3-12.3-1.6C47.1,65.5,47.3,66.1,47.7,66L47.7,66z"/>
		</g>
	</g>
</g>
<g>
	<g>
		<g>
			<path class="st0" d="M96.8,113c0.1,0.3,0.2,0.6,0.3,0.9c0.1,0.1,0.1,0.3,0.1,0.4c0,0,0,0,0,0c0.1-0.1,0.2-0.2,0.3-0.1
				c0,0,0,0,0,0c0-0.1-0.1-0.2-0.2-0.2c-0.1-0.2-0.4,0-0.3,0.2c0.1,0.1,0.2,0.4,0.4,0.4c0.2-0.1,0.1-0.3,0.1-0.4
				c-0.1-0.4-0.3-0.8-0.4-1.1C97.1,112.8,96.7,112.8,96.8,113L96.8,113z"/>
		</g>
	</g>
</g>
<g>
	<g>
		<g>
			<path class="st0" d="M90.3,90.2c-3.2-0.3-4.1,3.7-4.2,6.1c-0.1,2.6,1.1,5.1,3.9,5.3c3.1,0.2,5.2-2.6,5.8-5.4
				c0.5-2.3-0.5-6.1-3.6-5.2c-3.1,0.9-4.4,4.9-3.6,7.8c0.2-0.1,0.4-0.2,0.6-0.3c-0.1-0.4-0.2-0.8-0.2-1.2c0.1-0.4-0.5-0.6-0.6-0.2
				c-0.2,0.7-0.1,1.3,0.4,1.8c0.2,0.3,0.6,0,0.6-0.3c-0.7-2.5,0.4-6.1,3.2-6.9c2.5-0.7,3.2,2.4,2.9,4.1c-0.2,1.3-0.9,2.7-1.8,3.7
				c-2.1,2.2-5.9,1.7-6.6-1.5c-0.5-2.3,0.3-7.5,3.5-7.2C90.8,91,90.7,90.3,90.3,90.2L90.3,90.2z"/>
		</g>
	</g>
</g>
<g>
	<g>
		<g>
			<path class="st0" d="M87.6,101.4c0.5,3.2,0.2,6.3-0.7,9.4c-0.2,0.6-0.5,1.5-0.1,2.1c0.1,0.2,0.3,0.3,0.4,0.3
				c1,0.5,1.7,0.2,2.3,1.5c0.1,0.2,0.3,0.3,0.5,0.2c1.6-0.7,0.9-3.5,0.9-4.7c-0.1-2.8-0.1-5.7-0.2-8.5c0-0.4-0.7-0.4-0.7,0
				c0.1,2.1,0.1,4.2,0.2,6.4c0,1.1,0.1,2.1,0.1,3.2c0,0.8,0.4,2.7-0.6,3.1c0.2,0.1,0.3,0.1,0.5,0.2c-0.3-0.8-0.9-1.5-1.7-1.8
				c-0.8-0.3-1.3-0.2-1.1-1.5c0.1-0.7,0.4-1.4,0.6-2.1c0.6-2.7,0.6-5.4,0.2-8.1C88.1,100.8,87.5,101,87.6,101.4L87.6,101.4z"/>
		</g>
	</g>
</g>
<g>
	<g>
		<g>
			<path class="st0" d="M86.5,99.8c-0.3,1.1-0.6,2.3-0.9,3.4c-0.3,1.2-0.8,2.4-1,3.6c-0.2,1.8,1.3,1.1,2.3,1.7
				c0.4,0.2,0.7-0.4,0.3-0.6c-0.3-0.2-0.7-0.2-1-0.3c-0.3,0.1-0.5-0.1-0.6-0.4c-0.3-0.2-0.4-0.5-0.2-0.9c0-0.4,0.2-0.8,0.3-1.2
				c0.5-1.7,0.9-3.4,1.4-5.1C87.3,99.6,86.7,99.4,86.5,99.8L86.5,99.8z"/>
		</g>
	</g>
</g>
<g>
	<g>
		<g>
			<path class="st0" d="M95.1,102c1,1.6,1.9,3.2,2.6,5c0.2,0.4,0.8,0.2,0.6-0.2c-0.7-1.8-1.6-3.5-2.7-5.1
				C95.4,101.3,94.8,101.6,95.1,102L95.1,102z"/>
		</g>
	</g>
</g>
<g>
	<g>
		<g>
			<path class="st0" d="M58.6,69.8c2.2-0.1,4.3,1.8,6.1,2.9c1.8,1.2,3.6,2.5,5.4,3.8c3.5,2.6,6.9,5.5,10.2,8.5
				c0.3,0.3,0.8-0.2,0.5-0.5c-3.4-3.2-7-6.1-10.7-8.9c-1.9-1.4-3.8-2.7-5.8-4c-1.7-1.1-3.5-2.6-5.6-2.5
				C58.1,69.1,58.1,69.8,58.6,69.8L58.6,69.8z"/>
		</g>
	</g>
</g>
<g>
	<g>
		<g>
			<path class="st0" d="M56.5,79.3c-1.7-0.3-4.4,0.1-5.7-1.2c-1.1-1.1,0.1-1.4,0.1-2.4c0-0.4-0.3-1-0.6-1.3c-0.7-0.9-1.9-1.2-3-1.2
				c-0.6,0-1.3,0.1-1.9,0.2c-1.1,0.2-2,0.3-3.1,0.3c0,0.2,0,0.5,0,0.7c0.3,0,0.7,0.2,1,0c0.3-0.2,0.2-0.5-0.1-0.6
				c-0.2-0.1-0.5-0.1-0.7-0.2c-0.4-0.1-0.6,0.6-0.2,0.6c0.2,0.1,0.5,0.1,0.7,0.2c0-0.2-0.1-0.4-0.1-0.6c0.1-0.1-0.5-0.1-0.6-0.1
				c-0.4,0-0.4,0.7,0,0.7c0.8,0,1.7,0.1,2.5-0.1c0.8-0.2,1.5-0.4,2.3-0.4c0.8,0,1.7,0.1,2.3,0.5c0.4,0.3,0.8,0.8,0.8,1.3
				c0,0.5-0.3,0.8-0.5,1.3c-0.4,1.2,0.9,1.9,1.8,2.2c1.5,0.6,3.2,0.5,4.8,0.8C56.7,80,56.9,79.3,56.5,79.3L56.5,79.3z"/>
		</g>
	</g>
</g>
<g>
	<g>
		<g>
			<path class="st0" d="M79.9,101c1.4-0.7,3.2,0.1,3.8,1.5c0.3,0.8,0.4,1.7,1.3,2c0.4,0.1,0.6-0.5,0.2-0.6c-0.7-0.2-0.7-1.5-1.1-2.1
				c-0.3-0.5-0.7-0.9-1.2-1.2c-1-0.6-2.2-0.7-3.3-0.2C79.1,100.6,79.5,101.2,79.9,101L79.9,101z"/>
		</g>
	</g>
</g>
<g>
	<g>
		<g>
			<path class="st0" d="M90.9,110c1.5-0.2,1.4,2.5,2.1,3.3c0.5,0.6,1.2,0.9,1.8,1.3c0.7,0.4,1.2,0.8,1.5,1.6
				c0.2,0.4,0.2,0.8,0.4,1.2c0.3,0.7,0.8,1.2,1.6,1.3c0.2,0,0.4-0.1,0.4-0.3c0.2-1.8,0-3.4-0.4-5.1c-0.1-0.4-0.7-0.2-0.6,0.2
				c0.5,1.7,0.6,3.3,0.4,5c0.1-0.1,0.3-0.2,0.4-0.3c-1.4-0.2-1.3-2.2-2.1-3.1c-0.6-0.7-1.6-1-2.3-1.6c-1.3-1-0.9-4.3-3.2-4
				C90.3,109.4,90.4,110,90.9,110L90.9,110z"/>
		</g>
	</g>
</g>
<g>
	<g>
		<g>
			<path class="st0" d="M45.6,68c-2.1,0.7-4.4,1.8-6.1,3.4c-1.5,1.5,1.9,2.5,2.8,3c0.4,0.2,0.7-0.4,0.3-0.6
				c-0.7-0.3-1.5-0.7-2.2-1.1c-0.7-0.5-0.7-0.7,0.1-1.3c0.3-0.2,0.6-0.4,0.9-0.6c1.3-0.9,2.8-1.6,4.3-2.1C46.2,68.5,46,67.9,45.6,68
				L45.6,68z"/>
		</g>
	</g>
</g>
<g>
	<g>
		<g>
			<path class="st0" d="M48.3,68.6c-1.4,0.4-2.9,0.7-4.3,1.1c-0.4,0.1-0.2,0.7,0.2,0.6c1.4-0.4,2.9-0.7,4.3-1.1
				C48.9,69.2,48.7,68.5,48.3,68.6L48.3,68.6z"/>
		</g>
	</g>
</g>
<g>
	<g>
		<g>
			<path class="st0" d="M48.3,68.9c-0.3,0.3-0.7,0.5-1.1,0.8c-0.1,0.1-0.2,0.3-0.1,0.5c0.1,0.1,0.3,0.2,0.5,0.1
				c0.3-0.3,0.7-0.5,1.1-0.8c0.1-0.1,0.2-0.3,0.1-0.5C48.6,68.9,48.4,68.8,48.3,68.9L48.3,68.9z"/>
		</g>
	</g>
</g>
<g>
	<g>
		<g>
			<path class="st0" d="M57.3,71.9c-0.7,0.7-1.5,1.3-2.3,1.8c-0.4,0.2,0,0.8,0.3,0.6c0.9-0.5,1.7-1.1,2.5-1.9
				C58,72.1,57.5,71.6,57.3,71.9L57.3,71.9z"/>
		</g>
	</g>
</g>
<g>
	<g>
		<g>
			<path class="st0" d="M58.8,72.5c-0.2,0.3-0.3,0.7-0.5,1.1c-0.2,0.4,0.4,0.7,0.6,0.3c0.2-0.3,0.3-0.7,0.5-1.1
				C59.6,72.5,59,72.2,58.8,72.5L58.8,72.5z"/>
		</g>
	</g>
</g>
<g>
	<g>
		<g>
			<path class="st0" d="M82.3,92c-0.5,1-0.9,1.9-1.3,2.9c-0.2,0.4,0.4,0.7,0.6,0.3c0.5-1,0.9-1.9,1.3-2.9C83,92,82.5,91.6,82.3,92
				L82.3,92z"/>
		</g>
	</g>
</g>
<g>
	<g>
		<g>
			<path class="st0" d="M83.6,93.4c-0.3,0.5-0.5,1.1-0.8,1.6c-0.2,0.4,0.4,0.7,0.6,0.3c0.3-0.5,0.5-1.1,0.8-1.6
				C84.4,93.3,83.8,93,83.6,93.4L83.6,93.4z"/>
		</g>
	</g>
</g>
<g>
	<g>
		<g>
			<path class="st0" d="M51.1,61.2c2.5-1.3,4.5-3.3,5.6-5.9c0.2-0.4-0.4-0.7-0.6-0.3c-1.1,2.5-2.9,4.5-5.3,5.7
				C50.4,60.8,50.7,61.4,51.1,61.2L51.1,61.2z"/>
		</g>
	</g>
</g>
<g>
	<g>
		<g>
			<path class="st0" d="M111.9,66.5c-0.7,3.1-0.1,6.2,1.8,8.8c0.2,0.3,0.8,0,0.6-0.3c-1.7-2.4-2.3-5.4-1.7-8.3
				C112.7,66.3,112,66.1,111.9,66.5L111.9,66.5z"/>
		</g>
	</g>
</g>
<g>
	<g>
		<g>
			<path class="st0" d="M42.2,82.1c0.7,4.3-0.2,8.6-2.4,12.2c-0.2,0.4,0.3,0.7,0.6,0.3c2.3-3.8,3.2-8.3,2.5-12.8
				C42.7,81.5,42.1,81.7,42.2,82.1L42.2,82.1z"/>
		</g>
	</g>
</g>
<g>
	<g>
		<g>
			<path class="st0" d="M70.2,119.8c1.1-1.8,2.7-3.2,4.7-4c0.4-0.2,0.2-0.8-0.2-0.6c-2.2,0.9-3.9,2.3-5.1,4.3
				C69.4,119.8,70,120.1,70.2,119.8L70.2,119.8z"/>
		</g>
	</g>
</g>
<g>
	<g>
		<g>
			<path class="st0" d="M24.6,91.8c-7.2-6.1-5.1-16.3-3.2-24.3c0.1-0.4-0.5-0.6-0.6-0.2c-2,8.2-4,18.7,3.4,24.9
				C24.5,92.5,24.9,92,24.6,91.8L24.6,91.8z"/>
		</g>
	</g>
</g>
<g>
	<g>
		<g>
			<path class="st0" d="M18.5,88.6c-0.8-1.4-1.3-2.9-1.5-4.5c-0.1-0.4-0.7-0.2-0.6,0.2c0.2,1.7,0.7,3.2,1.5,4.6
				C18.1,89.3,18.7,89,18.5,88.6L18.5,88.6z"/>
		</g>
	</g>
</g>
<g>
	<g>
		<g>
			<path class="st0" d="M85.7,123.7c0.1,0,0.2,0,0.3,0c0.2,0,0.2-0.3,0-0.3c-0.1,0-0.2,0-0.3,0C85.5,123.3,85.5,123.7,85.7,123.7
				L85.7,123.7z"/>
		</g>
	</g>
</g>
<g>
	<g>
		<g>
			<path class="st0" d="M86.5,125.4c6.1,0,12.1,0,18.1,0c0.2,0,0.2-0.3,0-0.3c-6.1,0-12.1,0-18.1,0
				C86.3,125.1,86.3,125.4,86.5,125.4L86.5,125.4z"/>
		</g>
	</g>
</g>
<g>
	<g>
		<g>
			<path class="st0" d="M76.6,125.5c-9.3-0.5-18.7-0.3-28,0.5c-0.2,0-0.2,0.3,0,0.3c9.3-0.8,18.7-0.9,28-0.5
				C76.8,125.9,76.8,125.5,76.6,125.5L76.6,125.5z"/>
		</g>
	</g>
</g>
<g>
	<g>
		<g>
			<path class="st0" d="M62.5,27.3c0.2,0,0.2-0.3,0-0.3S62.3,27.3,62.5,27.3L62.5,27.3z"/>
		</g>
	</g>
</g>
<g>
	<g>
		<g>
			<path class="st0" d="M62.6,27.5c3-1.2,6.1-1.9,9.3-2c1.6-0.1,3.3,0,4.9,0.2c1.4,0.2,3.9,0.4,4.9,1.5c0.1,0.2,0.4-0.1,0.2-0.2
				c-0.9-1.1-2.8-1.3-4.1-1.5c-1.6-0.3-3.3-0.4-4.9-0.4c-3.5,0-7,0.7-10.3,2.1C62.3,27.2,62.4,27.6,62.6,27.5L62.6,27.5z"/>
		</g>
	</g>
</g>
<g>
	<g>
		<g>
			<path class="st0" d="M62.6,36c6.5,1,13.5,2,19.6-1.3c0.2-0.1,0-0.4-0.2-0.3c-6,3.2-12.9,2.2-19.3,1.2
				C62.5,35.6,62.4,35.9,62.6,36L62.6,36z"/>
		</g>
	</g>
</g>
<g>
	<g>
		<g>
			<path class="st0" d="M89,27c3.1-1.1,6.4-1.9,9.8-2.2c1.5-0.1,3-0.2,4.6-0.1c0.8,0,1.6,0.1,2.4,0.2c0.5,0.1,1.1,0.1,1.6,0.2
				c0.2,0,0.3,0.1,0.5,0.1c0.3,0,0.6,0.1,0.7,0.3c-0.2,0.1-0.1,0.4,0.1,0.3c0.7-0.2,0.1-0.7-0.3-0.9c-0.9-0.3-2-0.3-2.9-0.4
				c-1.1-0.1-2.2-0.2-3.4-0.2c-4.5-0.1-9,0.7-13.2,2.3C88.7,26.8,88.8,27.1,89,27L89,27z"/>
		</g>
	</g>
</g>
<g>
	<g>
		<g>
			<path class="st0" d="M90.1,35.5c5.8,2.9,12.9,2.5,18.3-1c0.2-0.1,0-0.4-0.2-0.3c-5.4,3.4-12.3,3.8-18,1
				C90.1,35.1,89.9,35.4,90.1,35.5L90.1,35.5z"/>
		</g>
	</g>
</g>
<g>
	<g>
		<g>
			<path class="st0" d="M91.1,97.2c0.2-0.7,0.5-1.4,0.9-2.1c0.2-0.3,0.4-0.8,0.6-0.9c0.5-0.2,0.6,0.1,0.7,0.6
				c0.1,0.6,0.1,1.2-0.1,1.8c-0.1,0.4-0.3,0.7-0.6,1c-0.1,0.1-0.1,0.1-0.2,0.2c-0.3,0.4-0.7,0.4-1-0.1c0.3-0.3-0.2-0.8-0.5-0.5
				c-0.7,0.6-0.1,1.7,0.8,1.6c1.3-0.1,2.1-1.8,2.3-3c0.1-0.7,0.1-2.8-1.1-2.7c-0.6,0.1-1,0.8-1.3,1.2c-0.5,0.8-0.9,1.6-1.2,2.5
				C90.3,97.4,91,97.6,91.1,97.2L91.1,97.2z"/>
		</g>
	</g>
</g>
<g class="st1">
	<path d="M27.6,56.8v-6.5h6.5v6.5c0,2.4-0.4,4.3-1.3,5.8c-0.9,1.5-2.2,2.6-4.1,3.4l-1.6-2.5c1.2-0.5,2.1-1.3,2.7-2.3
		c0.6-1,0.9-2.5,1-4.5H27.6z M27.6,29.4v-6.5h6.5v6.5H27.6z"/>
</g>
</svg>
