<?xml version="1.0" encoding="utf-8"?>
<!-- Generator: Adobe Illustrator 24.0.1, SVG Export Plug-In . SVG Version: 6.00 Build 0)  -->
<svg version="1.1" id="Layer_1" xmlns="http://www.w3.org/2000/svg" xmlns:xlink="http://www.w3.org/1999/xlink" x="0px" y="0px"
	 viewBox="0 0 141.7 141.7" style="enable-background:new 0 0 141.7 141.7;" xml:space="preserve">
<style type="text/css">
	.st0{fill:#070707;}
	.st1{enable-background:new    ;}
</style>
<g id="Layer_1_1_">
</g>
<g id="Layer_1_2_">
</g>
<g id="Layer_1_3_">
</g>
<g id="Layer_1_4_">
</g>
<g id="Layer_1_5_">
</g>
<g id="Layer_3">
</g>
<g id="Layer_3_1_">
</g>
<g id="Layer_2_1_">
	<g>
		<g>
			<g>
				<path class="st0" d="M103.3,22.3c-0.9-2.1-2.6-3.8-4.2-5.4c-1.6-1.6-3.6-2.9-5.7-3.9c-4.4-2.2-9.2-3.1-14.1-3.1
					c-5.5,0-10.9,0.8-16.4,1.4c-4.8,0.5-9.8,2.5-13.4,5.8c-1.7,1.6-3.3,3.2-4.5,5.2c-1.2,1.8-2.1,3.8-2.9,5.8
					c-1.6,4.1-2.3,8.6-2.6,12.9c-0.6,10.3,1.4,20.5,1.1,30.8c-0.2,6.1-1.4,12.1-3.1,18c-1.4,5-4.6,9.9-2.8,15.2
					c0.1,0.3,0.6,0.2,0.5-0.1c-1.6-4.8,1-9.3,2.5-13.7c0.8-2.3,1.3-4.8,1.8-7.2c0.5-2.4,1.1-4.9,1.3-7.4c1.2-10.1-0.7-20.1-0.8-30.1
					c-0.1-8.7,1-17.8,6.2-25.1c2.9-4,7.1-7,11.8-8.6c2.6-0.9,5.1-1.1,7.8-1.4c2.6-0.3,5.2-0.6,7.8-0.8c5.7-0.5,11.3-0.5,16.7,1.5
					c2.4,0.9,4.7,2.1,6.8,3.6c2.2,1.7,4.7,4.1,5.8,6.7C102.9,22.7,103.4,22.6,103.3,22.3L103.3,22.3z"/>
			</g>
		</g>
	</g>
	<g>
		<g>
			<g>
				<path class="st0" d="M39.9,111.2c5.1,4.9,12.1,6.5,18.7,8.6c1.8,0.6,3.5,1.2,5.4,1.6c1.9,0.4,3.8,0.5,5.8,0.4
					c4.1-0.1,8.1-0.8,12.1-1.5c2.3-0.4,4.6-0.7,6.9-1.1c1.1-0.2,2.2-0.5,3.4-0.8c1.1-0.3,2.1-0.9,3.1-1.4c0.3-0.1,0-0.6-0.3-0.4
					c-1.8,0.9-3.6,1.7-5.7,2.1c-2,0.4-4,0.6-5.9,0.9c-4,0.7-8.1,1.4-12.1,1.7c-2,0.1-4.1,0.2-6.1-0.1c-1.8-0.3-3.5-0.8-5.3-1.4
					c-3.2-1.1-6.4-1.9-9.6-3c-3.7-1.3-7.2-3.1-10.1-5.8C40,110.6,39.7,110.9,39.9,111.2L39.9,111.2z"/>
			</g>
		</g>
	</g>
	<g>
		<g>
			<g>
				<path class="st0" d="M62.6,11.8c0.3,0,0.3-0.5,0-0.5C62.3,11.4,62.3,11.8,62.6,11.8L62.6,11.8z"/>
			</g>
		</g>
	</g>
	<g>
		<g>
			<g>
				<path class="st0" d="M41.1,31c-2.5-0.2-4.9-1.5-6-3.8c-1.1-2.2-0.7-4.8,0.6-6.7c1.3-1.9,3.4-3.2,5.6-3.6
					c2.2-0.4,5.2-0.4,6.7,1.5c0.2,0.3,0.5-0.1,0.4-0.4c-1.6-1.9-4.7-2-6.9-1.7c-2.5,0.4-4.9,1.9-6.3,4.1c-1.4,2.1-1.6,4.9-0.4,7.1
					c1.2,2.4,3.8,3.7,6.4,3.9C41.4,31.5,41.4,31,41.1,31L41.1,31z"/>
			</g>
		</g>
	</g>
	<g>
		<g>
			<g>
				<path class="st0" d="M98.5,16.7c3.7-1.9,9.8-2.9,12.4,1.3c2.5,4.1,1,10.6-4.2,11.4c-0.3,0-0.2,0.5,0.1,0.5
					c5.5-0.9,7.1-7.6,4.7-11.9c-2.7-4.7-9.1-3.8-13.2-1.7C98,16.4,98.2,16.8,98.5,16.7L98.5,16.7z"/>
			</g>
		</g>
	</g>
	<g>
		<g>
			<g>
				<path class="st0" d="M69.4,36.9c0.1,0,0.2,0,0.3-0.1c0-0.1,0-0.2-0.1-0.2c-0.3,0.2-0.7,0.1-1,0.3c-0.5,0.2-1,0.6-1.4,1
					c-0.9,0.7-1.8,1.6-2.2,2.6c-1,2.6,2.3,3.8,4.3,3.6c1.7-0.2,3.3-1,5-1.1c1.5-0.1,2.8,0.4,4.2,0.8c1,0.3,2.1,0.4,3-0.2
					c0.8-0.6,1.2-1.8,1.1-2.8c-0.4-2.6-3.6-3.9-5.8-4.7c-0.2-0.1-0.2,0.2-0.1,0.2c1.9,0.7,4.2,1.7,5.2,3.5c0.7,1.2,0.4,2.9-0.8,3.6
					c-1,0.6-2.3,0.2-3.4-0.1c-0.9-0.3-1.8-0.5-2.8-0.6c-1.2,0-2.4,0.4-3.6,0.7c-1.4,0.4-2.9,0.8-4.2,0.3c-1.3-0.5-2.5-1.5-2-3
					c0.4-1.2,1.5-2.1,2.5-2.9c0.4-0.3,0.8-0.6,1.2-0.7c0.3-0.1,0.6-0.1,0.8-0.2c0.1-0.1,0.1-0.2-0.1-0.2c-0.1,0-0.3,0-0.4,0.1
					C69.1,36.7,69.2,36.9,69.4,36.9L69.4,36.9z"/>
			</g>
		</g>
	</g>
	<g>
		<g>
			<g>
				<path class="st0" d="M77.9,43.7c0.6,1.5,0.9,3.5,0.3,5.1c-0.4,1.1-1.9,1.9-3,1.3c-0.6-0.3-0.8-1.2-1.1-1.7
					c-0.1-0.1-0.3,0-0.2,0.1c0.4,0.7,0.6,1.6,1.4,1.9c0.8,0.3,1.7,0.1,2.4-0.4c1.8-1.3,1.2-4.6,0.5-6.3
					C78.1,43.5,77.9,43.5,77.9,43.7L77.9,43.7z"/>
			</g>
		</g>
	</g>
	<g>
		<g>
			<g>
				<path class="st0" d="M34.8,105.1c3.5-0.6,3.8,3.8,5.4,5.9c0-0.1,0.1-0.1,0.1-0.2c-2-0.4-4,0.5-5.8,1.1c-2.3,0.7-4.9,1.3-6-1.4
					c-1.7-3.8,4.9-5.1,7.4-5.5c0.2,0,0.1-0.3-0.1-0.2c-1.5,0.2-3,0.5-4.4,1.1c-1.2,0.5-2.6,1.2-3.2,2.4c-0.6,1.2,0,2.7,0.8,3.6
					c1.1,1.2,2.8,1.1,4.3,0.7c2.2-0.6,4.6-1.9,6.9-1.5c0.1,0,0.2-0.1,0.1-0.2c-1.7-2.2-1.9-6.5-5.6-5.9
					C34.5,104.9,34.6,105.1,34.8,105.1L34.8,105.1z"/>
			</g>
		</g>
	</g>
	<g>
		<g>
			<g>
				<path class="st0" d="M28.9,111.1c0.1-1.9,1.9-2.9,3.6-3.2c0.2,0,0.1-0.3-0.1-0.2c-1.8,0.3-3.7,1.4-3.8,3.4
					C28.7,111.3,28.9,111.3,28.9,111.1L28.9,111.1z"/>
			</g>
		</g>
	</g>
	<g>
		<g>
			<g>
				<path class="st0" d="M101,121.5c-1.9-1.1-2.9-3.1-4.6-4.4c-0.2-0.1-0.5-0.3-0.6-0.5c-0.4-0.5-0.2-1,0.2-1.4
					c0.4-0.5,1-0.9,1.5-1.3c1.2-0.8,2.6-1.3,4-0.9c2.3,0.6,4,3.1,4.4,5.4c0.2,1.2,0,2.7-1.2,3.4C103.5,122.4,102.1,122,101,121.5
					c-0.1-0.1-0.3,0.1-0.1,0.2c1.5,0.8,3.8,1,4.8-0.7c1.1-1.8,0.2-4.2-0.9-5.8c-1.2-1.8-3.4-3.1-5.6-2.5c-1.1,0.3-4.6,2.1-3.8,3.7
					c0.2,0.4,0.6,0.6,0.9,0.8c0.5,0.4,1,1,1.5,1.5c0.9,1.1,1.9,2.2,3.1,2.9C101,121.8,101.1,121.6,101,121.5z"/>
			</g>
		</g>
	</g>
	<g>
		<g>
			<g>
				<path class="st0" d="M102.1,117.2c1.2,1.2,2.1,2.8,2.2,4.6c0,0.2,0.3,0.2,0.2,0c-0.1-1.8-1-3.5-2.3-4.8
					C102.2,116.9,102,117.1,102.1,117.2L102.1,117.2z"/>
			</g>
		</g>
	</g>
	<g>
		<g>
			<g>
				<path class="st0" d="M108.4,64.7c0.3,0.2,0.8,0.1,1.1,0.1c0.7,0,1.3,0,2,0.1c1.9,0.5,3.8,1.7,4.3,3.6c0.2,0.7,0.3,1.6-0.1,2.3
					c-0.4,1-1.5,1.2-2.5,1.1c-1.9-0.3-3.2-1.6-4.5-2.8c-0.1-0.1-0.3,0.1-0.2,0.2c1.4,1.4,2.9,2.7,5,2.9c1.5,0.1,2.6-0.7,2.7-2.2
					c0.1-1.8-0.9-3.4-2.4-4.3c-0.9-0.6-2-1-3.1-1.1c-0.7-0.1-1.6,0.3-2.2-0.1C108.4,64.4,108.3,64.6,108.4,64.7L108.4,64.7z"/>
			</g>
		</g>
	</g>
	<g>
		<g>
			<g>
				<path class="st0" d="M112.7,69.2c1.2,0.4,2.7,1.4,1.9,2.9c-0.1,0.1,0.1,0.3,0.2,0.1c0.8-1.6-0.7-2.8-2.1-3.2
					C112.6,68.9,112.6,69.1,112.7,69.2L112.7,69.2z"/>
			</g>
		</g>
	</g>
	<g>
		<path class="st0" d="M86.9,36.7c-5.9,0-10.7-4.8-10.7-10.7S81,15.3,86.9,15.3c5.9,0,10.7,4.8,10.7,10.7S92.8,36.7,86.9,36.7z
			 M86.9,15.6c-5.7,0-10.4,4.7-10.4,10.4s4.7,10.4,10.4,10.4c5.7,0,10.4-4.7,10.4-10.4S92.6,15.6,86.9,15.6z"/>
	</g>
	<g>
		<path class="st0" d="M60.3,37.8c-5.9,0-10.7-4.8-10.7-10.7s4.8-10.7,10.7-10.7S71,21.2,71,27.1S66.2,37.8,60.3,37.8z M60.3,16.7
			c-5.7,0-10.4,4.7-10.4,10.4s4.7,10.4,10.4,10.4s10.4-4.7,10.4-10.4S66,16.7,60.3,16.7z"/>
	</g>
	<g>
		<path class="st0" d="M107.1,21.8c0-1.2-1-2.2-2.2-2.2c-1.2,0-2.2,1-2.2,2.2c0,1.2,1,2.2,2.2,2.2S107.1,23,107.1,21.8z"/>
	</g>
	<g>
		<path class="st0" d="M44.4,23.8c0-1.2-1-2.2-2.2-2.2c-1.2,0-2.2,1-2.2,2.2c0,1.2,1,2.2,2.2,2.2C43.3,26,44.4,25,44.4,23.8z"/>
	</g>
	<g>
		<path class="st0" d="M78.4,35.7c0-1.4-2.1-2.6-4.7-2.6c-2.6,0-4.7,1.2-4.7,2.6s2.1,2.6,4.7,2.6C76.2,38.3,78.4,37.2,78.4,35.7z"/>
	</g>
	<g>
		<path class="st0" d="M83.4,26c0,1.9,1.5,3.5,3.5,3.5c1.9,0,3.5-1.5,3.5-3.5s-1.5-3.5-3.5-3.5S83.4,24.1,83.4,26z M89.1,24.7
			c0,0.5-0.4,1-1,1c-0.5,0-1-0.4-1-1s0.4-1,1-1C88.6,23.7,89.1,24.1,89.1,24.7z"/>
	</g>
	<g>
		<path class="st0" d="M56.8,27.1c0,1.9,1.5,3.5,3.5,3.5c1.9,0,3.5-1.5,3.5-3.5s-1.5-3.5-3.5-3.5C58.4,23.7,56.8,25.2,56.8,27.1z
			 M62.5,25.7c0,0.5-0.4,1-1,1s-1-0.4-1-1s0.4-1,1-1C62,24.7,62.5,25.2,62.5,25.7z"/>
	</g>
	<g>
		<g>
			<g>
				<path class="st0" d="M74,43c0.2,0.8,0.1,1.6,0.1,2.4c0,0.9,0,1.9-0.2,2.7c-0.3,1.5-1.7,3-3.3,1.8c-1.7-1.2-1.2-4.4-0.7-6.1
					c0-0.2-0.2-0.2-0.2-0.1c-0.6,1.9-1,5.9,1.4,6.7c1.3,0.4,2.4-0.3,2.9-1.6c0.4-1,0.4-2.1,0.4-3.2c0-1,0.1-1.9-0.1-2.9
					C74.1,42.8,73.9,42.8,74,43L74,43z"/>
			</g>
		</g>
	</g>
	<g>
		<g>
			<g>
				<path class="st0" d="M40.8,65.6c-2.3-0.4-4.9,0.7-6.6,2.3c-1.2,1.1-2,2.8-0.2,3.8c0.1,0.1,0.3-0.1,0.1-0.2c-2-1.1-0.3-3.1,1-4
					c1.6-1.2,3.6-2,5.6-1.6C40.9,65.9,40.9,65.6,40.8,65.6L40.8,65.6z"/>
			</g>
		</g>
	</g>
	<g>
		<g>
			<g>
				<path class="st0" d="M35.8,70c-0.7,0.3-1.6,0.9-1.6,1.8c0,0.8,0.9,1.3,1.6,1.4c1.9,0.2,4.1-1.9,5.1-3.4c0.1-0.1-0.1-0.3-0.2-0.1
					c-0.9,1.2-2.2,2.4-3.6,3c-0.8,0.3-2.1,0.5-2.6-0.4s0.6-1.7,1.3-2C36.1,70.1,36,69.9,35.8,70L35.8,70z"/>
			</g>
		</g>
	</g>
	<g>
		<g>
			<g>
				<path class="st0" d="M102.3,21.3c6.3,9.2,5.6,21.1,5.5,31.8c-0.1,13.4,1.8,26.7,1.1,40.1c-0.2,3.7-0.7,7.4-2,10.9
					c-1.1,3.1-3.4,5.7-4.9,8.5c-0.2,0.3,0.3,0.5,0.4,0.3c1.4-2.6,3.3-4.8,4.5-7.5c1.2-2.7,1.8-5.8,2.2-8.8c0.9-6.9,0.4-14,0.1-20.9
					s-0.8-13.8-0.8-20.7c0-5.6,0.2-11.1-0.3-16.7c-0.5-6-1.9-12.1-5.3-17.2C102.5,20.8,102.1,21,102.3,21.3L102.3,21.3z"/>
			</g>
		</g>
	</g>
	<g>
		<g>
			<g>
				<path class="st0" d="M95.2,116.7c0.1,0,0.1,0,0.2,0c0.2,0,0.2-0.2,0-0.2c0,0,0,0,0,0c0,0-0.1,0-0.1,0.1
					C95.2,116.5,95.2,116.5,95.2,116.7c0,0,0.1,0,0.1,0.1c0-0.1,0-0.1,0.1-0.2C95.3,116.5,95.2,116.6,95.2,116.7
					c0,0,0.1,0.1,0.2,0.1c0.1,0.1,0.3-0.1,0.2-0.2c-0.1-0.1-0.1-0.1-0.2-0.2c-0.1-0.1-0.2,0-0.2,0.1
					C95.1,116.5,95.1,116.6,95.2,116.7c-0.1,0.1,0,0.2,0.1,0.2c0.1,0,0.2-0.1,0.2-0.2c0,0-0.1,0-0.1,0.1c0,0,0,0,0,0
					c0.2,0,0.2-0.2,0-0.2c-0.1,0-0.1,0-0.2,0C95,116.4,95,116.7,95.2,116.7L95.2,116.7z"/>
			</g>
		</g>
	</g>
	<g class="st1">
		<path d="M57.7,125.9v-0.7c1.9,0,2.9-0.5,2.9-1.6v-10.7c0-0.7-0.3-1-0.9-1h-2.1v-0.7c0.6-0.1,1.1-0.2,1.5-0.3
			c0.4-0.1,0.8-0.2,1.1-0.3c0.3-0.1,0.6-0.3,0.9-0.5c0.3-0.2,0.7-0.5,1-0.8l0.6,0.2c-0.1,0.3-0.1,0.6-0.1,0.9c0,0.3,0,0.5,0,0.7
			v12.6c0,1.1,1,1.6,2.9,1.6v0.7H57.7z"/>
	</g>
	<g class="st1">
		<path d="M66.5,132.4c-0.6,0-1.1,0-1.6,0c-0.5,0-1,0.1-1.4,0.1l-0.2-1.3c1.9-2.2,3.6-4.3,5.1-6.3c1.6-2,2.9-4,4.1-5.9
			c1.1-1.9,2-3.8,2.7-5.7c0.6-1.9,1-3.7,1-5.6c0-2-0.5-3.4-1.4-4.4c-0.9-1-2.2-1.5-3.9-1.5c-1.6,0-2.8,0.3-3.6,1
			c-0.8,0.7-1.2,1.6-1.2,2.8c1,0.3,1.5,0.9,1.5,1.8c0,1.6-0.6,2.4-1.8,2.4c-1.2,0-1.7-1.1-1.7-3.2c0-2.5,0.7-4.3,2.1-5.6
			c1.4-1.3,3.5-1.9,6.3-1.9c5,0,7.5,2.7,7.5,8.2c0,1.9-0.2,3.6-0.7,5.3c-0.5,1.7-1.3,3.3-2.3,5c-1,1.7-2.4,3.4-3.9,5.1
			c-1.6,1.7-3.5,3.6-5.7,5.6h7.4c0.7,0,1.4,0,1.9-0.1c0.5-0.1,1-0.3,1.4-0.6c0.4-0.3,0.7-0.7,1-1.3c0.3-0.5,0.6-1.3,0.8-2.1l1.1,0.2
			l-1.6,7.9H66.5z"/>
	</g>
	<g class="st1">
		<path d="M34.9,72c2.9,0.3,4.4,2,4.4,5.2c0,4.1-2.4,6.2-7.2,6.2c-3.1,0-4.6-1-4.6-2.9c0-0.9,0.5-1.4,1.5-1.4c0.7,0,1,0.3,1,0.9
			c0,0.6-0.2,0.9-0.6,1c0.1,0.7,0.7,1.1,1.9,1.1c3.4,0,5.1-1.6,5.1-4.9c0-2.8-1.1-4.1-3.2-4.1h-1.5c-0.2,0-0.3-0.2-0.3-0.5
			c0-0.4,0.1-0.6,0.3-0.6c1.4,0,2.5-0.4,3.1-1.1c0.7-0.7,1-1.8,1-3.1c0-2.2-0.9-3.2-2.8-3.2c-1.8,0-2.7,0.4-2.7,1.2
			c0.4,0.2,0.6,0.5,0.6,1c0,0.8-0.4,1.3-1.2,1.3c-0.8,0-1.2-0.4-1.2-1.2c0-2.4,1.8-3.7,5.3-3.7c3,0,4.5,1.4,4.5,4.3
			c0,2.2-1.1,3.6-3.4,4.2V72z"/>
	</g>
	<g class="st1">
		<path d="M49,128.2c-1,0-1.8-0.3-2.5-0.8c-0.7-0.5-1.4-1.2-1.9-2c-0.5-0.8-0.9-1.8-1.1-3c-0.3-1.1-0.4-2.3-0.4-3.6
			c0-1.3,0.1-2.6,0.4-3.8c0.3-1.2,0.7-2.3,1.3-3.3c0.5-1,1.2-1.7,2-2.3c0.8-0.6,1.7-0.8,2.6-0.8c0.9,0,1.7,0.3,2.5,0.8
			c0.7,0.5,1.4,1.2,1.9,2.1c0.5,0.9,0.9,1.9,1.2,3c0.3,1.1,0.4,2.3,0.4,3.6c0,1.2-0.1,2.5-0.4,3.7c-0.3,1.2-0.7,2.3-1.3,3.2
			c-0.6,0.9-1.2,1.7-2,2.3C50.9,127.9,50,128.2,49,128.2z M49.4,127c0.7,0,1.3-0.2,1.8-0.6c0.5-0.4,0.8-1,1.1-1.7
			c0.3-0.7,0.4-1.5,0.5-2.5c0.1-0.9,0.1-1.9,0.1-2.9c0-0.9-0.1-1.8-0.2-2.9c-0.1-1.1-0.3-2.1-0.6-3c-0.3-0.9-0.7-1.7-1.3-2.4
			c-0.6-0.6-1.3-1-2.2-1c-0.6,0-1.1,0.3-1.4,0.8c-0.4,0.5-0.7,1.1-0.9,1.9c-0.2,0.8-0.4,1.6-0.5,2.5c-0.1,0.9-0.2,1.8-0.2,2.6
			c0,1.4,0.1,2.7,0.2,3.9c0.2,1.1,0.4,2.1,0.7,2.9s0.7,1.4,1.2,1.8C48.2,126.8,48.8,127,49.4,127z"/>
	</g>
	<g class="st1">
		<path d="M109.6,94v-1c1.2,0,1.8-0.5,1.8-1.4v-3.2c0-0.4-0.2-0.7-0.7-0.7h-8.8v-1.2l11.7-14.6l1.2,0.1c-0.3,0.8-0.4,1.7-0.4,2.6
			v10.4c0,0.4,0.2,0.6,0.6,0.6h1.4c0.3,0,0.7,0,1-0.1c0.3,0,0.6-0.1,0.8-0.2v2.3h-3.2c-0.4,0-0.6,0.2-0.6,0.7v3.2
			c0,0.9,0.6,1.4,1.7,1.4v1H109.6z M111.4,76.7l-7.3,9h6.5c0.5,0,0.7-0.2,0.7-0.6V76.7z"/>
	</g>
	<g>
		<g>
			<g>
				<path class="st0" d="M27.8,109.1c-2.7,1-5.4,2-8.1,3c-0.1,0.1-0.1,0.3,0.1,0.2c2.7-1,5.4-2,8.1-3
					C28,109.3,27.9,109.1,27.8,109.1L27.8,109.1z"/>
			</g>
		</g>
	</g>
	<g>
		<g>
			<g>
				<path class="st0" d="M104.8,108.7c6.3,1.9,12.5,4,18.6,6.3c0.2,0.1,0.2-0.2,0.1-0.2c-6.1-2.3-12.3-4.4-18.6-6.3
					C104.7,108.4,104.6,108.6,104.8,108.7L104.8,108.7z"/>
			</g>
		</g>
	</g>
	<g>
		<g>
			<g>
				<path class="st0" d="M29.2,122.1c0.2,0.4,0.7,0.5,1.1,0.4c0.4-0.2,0.6-0.6,0.5-1c-0.1-0.4-0.6-0.7-1-0.6
					c-0.4,0.1-0.7,0.6-0.6,1.1c0,0.2,0.3,0.1,0.2-0.1c-0.1-0.3,0.1-0.7,0.4-0.8c0.3-0.1,0.6,0.2,0.7,0.4c0.2,0.7-0.8,1-1.1,0.4
					C29.3,121.8,29.1,121.9,29.2,122.1L29.2,122.1z"/>
			</g>
		</g>
	</g>
	<g>
		<g>
			<g>
				<path class="st0" d="M31.7,117.4c0-0.2,0-0.3,0.2-0.4c0,0-0.1,0-0.1,0c0.2,0.1,0.3,0.2,0.4,0.3c0,0,0.1,0.1,0.1,0.1
					c0,0.1,0,0.1,0,0.2c-0.2,0.3-0.6,0-0.6-0.3c0-0.2-0.2-0.2-0.2-0.1c-0.1,0.3,0.1,0.6,0.4,0.7c0.3,0.1,0.7-0.1,0.7-0.5
					c0-0.2-0.1-0.3-0.2-0.4c-0.1-0.1-0.3-0.2-0.5-0.3c-0.4-0.1-0.5,0.4-0.4,0.7C31.5,117.6,31.7,117.6,31.7,117.4L31.7,117.4z"/>
			</g>
		</g>
	</g>
	<g>
		<g>
			<g>
				<path class="st0" d="M21.5,120.2c0.1-1.3,1.5-2.3,2.8-2c0.7,0.2,1.3,0.8,1.6,1.5c0.3,0.5,0.4,0.7-0.2,0.9
					c-0.3,0.1-0.7,0.1-1,0.1c-1.4,0-2.6-0.3-4-0.6c-1.1-0.3-2.3-0.2-3.4-0.3c-0.2,0-0.2,0.2,0,0.2c0.8,0,1.7,0.1,2.5,0.1
					c0.9,0.1,1.6,0.4,2.5,0.5c1.4,0.3,2.8,0.3,4.2,0.1c0.1,0,0.1-0.1,0.1-0.2c-0.4-1.4-1.3-2.8-2.9-2.6c-1.2,0.1-2.2,1.1-2.3,2.3
					C21.3,120.3,21.5,120.3,21.5,120.2L21.5,120.2z"/>
			</g>
		</g>
	</g>
	<g>
		<g>
			<g>
				<path class="st0" d="M110.2,117.1c0.1-0.4,0.8-0.5,0.9,0c0,0.2-0.1,0.4-0.3,0.4c-0.2,0-0.5-0.2-0.4-0.4
					C110.4,116.9,110.2,116.9,110.2,117.1c-0.1,0.3,0.1,0.6,0.5,0.7s0.6-0.3,0.6-0.6c0-0.4-0.2-0.7-0.6-0.7c-0.4,0-0.7,0.2-0.8,0.5
					C109.9,117.2,110.2,117.2,110.2,117.1L110.2,117.1z"/>
			</g>
		</g>
	</g>
	<g>
		<g>
			<g>
				<path class="st0" d="M107.9,123.9c-1.3-0.3,0.2-1.4,0.5-1.5c0.3-0.1,0.7-0.1,1-0.1c0.5,0,1.1-0.2,1.6,0c0.4,0,0.6,0.3,0.6,0.9
					c-0.2,0.2-0.5,0.3-0.7,0.5c-0.2,0.1-0.6,0.1-0.9,0.2c-0.7,0.1-1.3,0.2-2,0.3c-0.2,0-0.1,0.3,0.1,0.2c0.9-0.1,1.7-0.2,2.6-0.4
					c0.5-0.1,1-0.3,1.2-0.7c0.3-0.7-0.4-1.2-1-1.2c-0.7,0-1.5,0-2.2,0.1c-0.4,0.1-0.9,0.2-1.2,0.5c-0.4,0.5-0.3,1.3,0.4,1.5
					C108,124.2,108.1,123.9,107.9,123.9L107.9,123.9z"/>
			</g>
		</g>
	</g>
	<g>
		<g>
			<g>
				<path class="st0" d="M116.2,119.9c1.6-0.6,3.1,0.6,4.7,0.4c0.4-0.1,0.9-0.2,1.3-0.3c0.6-0.1,1.2,0,1.8,0.2
					c0.6,0.2,1.2,0.3,1.8,0.1c0.2,0,0.1-0.3-0.1-0.2c-0.9,0.2-1.7-0.2-2.6-0.3c-0.9-0.1-1.7,0.3-2.6,0.3c-1.5,0.1-2.9-1-4.4-0.4
					C116,119.7,116,119.9,116.2,119.9L116.2,119.9z"/>
			</g>
		</g>
	</g>
</g>
<g id="Layer_3_2_">
</g>
</svg>
