<?xml version="1.0" encoding="utf-8"?>
<!-- Generator: Adobe Illustrator 24.0.1, SVG Export Plug-In . SVG Version: 6.00 Build 0)  -->
<svg version="1.1" id="Layer_1" xmlns="http://www.w3.org/2000/svg" xmlns:xlink="http://www.w3.org/1999/xlink" x="0px" y="0px"
	 viewBox="0 0 141.7 141.7" style="enable-background:new 0 0 141.7 141.7;" xml:space="preserve">
<style type="text/css">
	.st0{fill:#070707;}
</style>
<g id="Layer_1_1_">
</g>
<g id="Layer_1_2_">
</g>
<g id="Layer_1_3_">
</g>
<g id="Layer_1_4_">
</g>
<g id="Layer_1_5_">
</g>
<g id="Layer_3">
</g>
<g id="Layer_3_1_">
</g>
<g id="Layer_2_1_">
	<g>
		<g>
			<g>
				<g>
					<path class="st0" d="M38.3,44.6C36,55.2,37.8,66,38.1,76.7c0.2,5.5,0,11-0.5,16.5c-0.4,5.1-0.8,10.3,0.3,15.3
						c1.2,5,3.7,9.6,7.3,13.3c0.2,0.2,0.5-0.1,0.3-0.3c-3.2-3.4-5.6-7.5-6.8-12c-1.4-5-1.1-10.2-0.7-15.3c0.4-5.3,0.7-10.5,0.6-15.8
						c-0.1-5.3-0.7-10.6-0.9-15.9c-0.3-5.9-0.3-12,1-17.8C38.8,44.5,38.3,44.3,38.3,44.6L38.3,44.6z"/>
				</g>
			</g>
		</g>
		<g>
			<g>
				<g>
					<path class="st0" d="M97.9,34.5c-2.9-5.4-8.3-9.1-14.2-10.7c-7.3-2-14.9-0.9-22.2,0c-2.3,0.3-4.5,0.5-6.7,1.2
						c-2,0.6-4,1.7-5.8,2.8c-0.2,0.2,0,0.5,0.2,0.4c1.6-1,3.3-1.9,5-2.5c2-0.7,4.1-1,6.2-1.2c3.8-0.5,7.7-1.1,11.5-1.2
						c6.4-0.3,12.9,0.5,18.4,4c2.9,1.9,5.4,4.4,7,7.5C97.6,34.9,98,34.7,97.9,34.5L97.9,34.5z"/>
				</g>
			</g>
		</g>
		<g>
			<g>
				<g>
					<path class="st0" d="M51.7,126c4.2,2.6,9.4,3.2,14.2,3.1c5.1-0.1,10.2-0.8,15.3-1.7c3-0.5,6.4-0.8,9.1-2.5
						c0.2-0.2,0-0.5-0.2-0.4c-2.4,1.5-5.4,1.8-8.1,2.3c-2.3,0.4-4.6,0.8-6.9,1.1c-5.1,0.7-10.5,1.1-15.6,0.3
						c-2.6-0.4-5.2-1.2-7.5-2.6C51.7,125.5,51.4,125.8,51.7,126L51.7,126z"/>
				</g>
			</g>
		</g>
		<g>
			<g>
				<g>
					<path class="st0" d="M59.2,24.5c0.3,0,0.3-0.4,0-0.4C58.9,24.1,58.9,24.5,59.2,24.5L59.2,24.5z"/>
				</g>
			</g>
		</g>
		<g>
			<g>
				<g>
					<path class="st0" d="M34.2,40.9c-2.7-2.7-2.2-7.1,0.7-9.6c1.3-1.1,3-1.8,4.7-2.1c1.8-0.2,4-0.2,5.4,1c0.2,0.2,0.5-0.1,0.3-0.3
						c-1.5-1.2-3.6-1.4-5.5-1.2c-1.9,0.2-3.8,1-5.3,2.2c-3,2.6-3.6,7.3-0.7,10.2C34.1,41.4,34.4,41.1,34.2,40.9L34.2,40.9z"/>
				</g>
			</g>
		</g>
		<g>
			<g>
				<g>
					<path class="st0" d="M93.4,29.1c3.4-1.8,8.9-2.8,11.5,0.8c2.4,3.2,1.8,8.1-1.4,10.5c-0.2,0.2,0,0.5,0.2,0.4
						c3.5-2.5,4.1-7.6,1.6-11.1c-2.8-3.8-8.5-2.9-12.1-1C92.9,28.9,93.1,29.3,93.4,29.1L93.4,29.1z"/>
				</g>
			</g>
		</g>
		<g>
			<g>
				<g>
					<path class="st0" d="M65.6,48.4c0.1,0,0.4-0.2,0.2-0.2c-0.1,0-0.2,0.1-0.3,0.1c-0.2,0-0.4,0.1-0.5,0.1c-0.5,0.2-1,0.6-1.4,0.9
						c-0.8,0.7-1.7,1.5-2.1,2.5c-1.1,2.4,1.9,3.7,3.9,3.6c1.6-0.1,3-0.8,4.6-1c1.5-0.2,2.9,0.3,4.3,0.7c0.9,0.2,2,0.4,2.8-0.1
						s1.3-1.7,1.1-2.7c-0.3-2.5-3.4-3.8-5.5-4.5c-0.1-0.1-0.2,0.2-0.1,0.2c1.8,0.7,4.1,1.6,5,3.4c0.6,1.1,0.3,2.8-0.9,3.4
						c-1,0.6-2.3,0.1-3.3-0.2c-0.9-0.3-1.8-0.5-2.7-0.5c-1.2,0-2.4,0.4-3.5,0.7c-1.5,0.4-3.1,0.7-4.5-0.2c-1.2-0.7-1.6-1.7-1-3
						c0.6-1.1,1.6-1.9,2.6-2.6c0.4-0.2,0.6-0.4,1-0.5c0.1,0,0.5-0.1,0.6-0.2c0-0.1,0-0.2-0.1-0.2c-0.1,0-0.2,0-0.4,0.1
						C65.4,48.2,65.4,48.4,65.6,48.4L65.6,48.4z"/>
				</g>
			</g>
		</g>
		<g>
			<g>
				<g>
					<path class="st0" d="M73.8,54.9c0.6,1.5,1,3.8,0.1,5.3c-0.5,0.8-1.8,1.3-2.7,0.9c-0.6-0.3-0.8-1.1-1.1-1.7
						c-0.1-0.1-0.2,0-0.2,0.1c0.3,0.7,0.6,1.5,1.3,1.8c0.8,0.3,1.7,0.1,2.3-0.5c1.6-1.3,1.1-4.3,0.4-6
						C73.9,54.7,73.7,54.8,73.8,54.9L73.8,54.9z"/>
				</g>
			</g>
		</g>
		<g>
			<g>
				<g>
					<path class="st0" d="M45.5,122c3-1.6,4.6,2.3,6.7,3.7c0-0.1,0-0.1,0-0.2c-1.8,0.2-3.3,1.6-4.7,2.7c-1.4,1.1-3.4,2.5-5.2,1.4
						c-4.4-2.8,1.8-6.7,4.2-7.9c0.1-0.1,0-0.2-0.1-0.2c-1.3,0.7-2.7,1.5-3.8,2.4c-1,0.8-2.1,2-2.1,3.4c0.1,1.3,1.3,2.5,2.5,2.8
						c1.4,0.4,2.9-0.5,4-1.3c1.6-1.1,3.2-2.8,5.3-3.1c0.1,0,0.1-0.2,0-0.2c-2.2-1.5-3.7-5.3-6.9-3.7C45.2,121.9,45.3,122.1,45.5,122
						L45.5,122z"/>
				</g>
			</g>
		</g>
		<g>
			<g>
				<g>
					<path class="st0" d="M42,129.2c-0.5-1.8,0.8-3.2,2.3-3.9c0.1-0.1,0-0.3-0.1-0.2c-1.6,0.8-2.9,2.3-2.4,4.2
						C41.8,129.4,42.1,129.3,42,129.2L42,129.2z"/>
				</g>
			</g>
		</g>
		<g>
			<g>
				<g>
					<path class="st0" d="M95.8,129.2c-1.8-1.1-2.8-3-4.5-4.3c-0.3-0.2-0.5-0.3-0.7-0.7c-0.2-0.5,0.1-0.8,0.5-1.2
						c0.4-0.4,0.8-0.7,1.3-1c1.2-0.8,2.6-1.3,4-0.8c2.1,0.7,3.6,2.9,4,5c0.2,1.2,0,2.7-1.2,3.3C98.1,130,96.8,129.7,95.8,129.2
						c-0.1-0.1-0.2,0.1-0.1,0.2c1.4,0.7,3.6,1,4.6-0.6c1-1.7,0.2-4-0.8-5.5c-1.1-1.7-3.1-3-5.2-2.5c-1,0.3-4.5,2-3.8,3.6
						c0.2,0.4,0.6,0.6,0.9,0.8c0.5,0.4,1,1,1.4,1.5c0.9,1,1.8,2,2.9,2.7C95.8,129.4,95.9,129.2,95.8,129.2z"/>
				</g>
			</g>
		</g>
		<g>
			<g>
				<g>
					<path class="st0" d="M96.9,125.1c1.1,1.2,2,2.7,2.1,4.4c0,0.1,0.2,0.1,0.2,0c-0.1-1.7-1-3.3-2.2-4.5
						C96.9,124.8,96.7,125,96.9,125.1L96.9,125.1z"/>
				</g>
			</g>
		</g>
		<g>
			<g>
				<g>
					<path class="st0" d="M102.9,75c0.4,0.2,0.8,0.1,1.2,0.1c0.7,0,1.4,0,2.1,0.2c1.7,0.5,3.5,1.7,3.9,3.6c0.4,1.7-0.4,3.2-2.3,3
						s-3.3-1.5-4.6-2.7c-0.1-0.1-0.3,0.1-0.2,0.2c1.3,1.3,2.8,2.6,4.7,2.8c1.4,0.1,2.4-0.6,2.6-2c0.2-1.7-0.8-3.2-2.1-4.1
						c-0.9-0.6-1.9-1-2.9-1.1c-0.7-0.1-1.7,0.2-2.3-0.1C102.8,74.7,102.7,74.9,102.9,75L102.9,75z"/>
				</g>
			</g>
		</g>
		<g>
			<g>
				<g>
					<path class="st0" d="M107,79.2c1.2,0.4,2.6,1.4,1.9,2.7c-0.1,0.1,0.1,0.2,0.2,0.1c0.8-1.5-0.7-2.7-2-3.1
						C106.9,79,106.8,79.2,107,79.2L107,79.2z"/>
				</g>
			</g>
		</g>
		<g>
			<path class="st0" d="M82.3,48.3c-5.6,0-10.2-4.6-10.2-10.2s4.6-10.2,10.2-10.2c5.6,0,10.2,4.6,10.2,10.2S87.9,48.3,82.3,48.3z
				 M82.3,28.2c-5.5,0-9.9,4.4-9.9,9.9s4.4,9.9,9.9,9.9c5.5,0,9.9-4.4,9.9-9.9S87.7,28.2,82.3,28.2z"/>
		</g>
		<g>
			<path class="st0" d="M56.9,49.3c-5.6,0-10.2-4.6-10.2-10.2s4.6-10.2,10.2-10.2s10.2,4.6,10.2,10.2S62.6,49.3,56.9,49.3z
				 M56.9,29.2c-5.5,0-9.9,4.4-9.9,9.9s4.4,9.9,9.9,9.9s9.9-4.4,9.9-9.9S62.4,29.2,56.9,29.2z"/>
		</g>
		<g>
			<path class="st0" d="M101.6,34.1c0-1.2-1-2.1-2.1-2.1s-2.1,1-2.1,2.1s1,2.1,2.1,2.1S101.6,35.2,101.6,34.1z"/>
		</g>
		<g>
			<path class="st0" d="M40.4,35.3c0.2-0.3,0.4-0.6,0.6-0.9c-0.4-0.3-0.9-0.5-1.4-0.5c-1.2,0-2.1,1-2.1,2.1c0,0.6,0.2,1.1,0.6,1.5
				C38.9,36.8,39.6,36,40.4,35.3z"/>
		</g>
		<g>
			<path class="st0" d="M74.2,47.3c0-1.4-2-2.5-4.5-2.5s-4.5,1.1-4.5,2.5c0,1.4,2,2.5,4.5,2.5C72.2,49.8,74.2,48.7,74.2,47.3z"/>
		</g>
		<g>
			<path class="st0" d="M82.4,33c-1.8,0-3.3,1.5-3.3,3.3s1.5,3.3,3.3,3.3c1.8,0,3.3-1.5,3.3-3.3S84.2,33,82.4,33z M83.8,38.4
				c-0.5,0-0.9-0.4-0.9-0.9c0-0.5,0.4-0.9,0.9-0.9c0.5,0,0.9,0.4,0.9,0.9C84.7,38,84.3,38.4,83.8,38.4z"/>
		</g>
		<g>
			<path class="st0" d="M59.4,33.4c-1.8,0-3.3,1.5-3.3,3.3s1.5,3.3,3.3,3.3c1.8,0,3.3-1.5,3.3-3.3C62.7,34.9,61.2,33.4,59.4,33.4z
				 M60.8,38.8c-0.5,0-0.9-0.4-0.9-0.9c0-0.5,0.4-0.9,0.9-0.9c0.5,0,0.9,0.4,0.9,0.9S61.3,38.8,60.8,38.8z"/>
		</g>
		<g>
			<g>
				<g>
					<path class="st0" d="M70,54.3c0.2,0.8,0.1,1.5,0.1,2.3c0,0.9,0,1.8-0.1,2.6c-0.3,1.4-1.5,2.8-3.1,1.8c-1.7-1.1-1.3-4.3-0.8-5.9
						c0-0.1-0.2-0.2-0.2-0.1c-0.5,1.8-1,5.6,1.4,6.4c1.3,0.4,2.3-0.3,2.8-1.5c0.3-0.9,0.4-1.8,0.3-2.7c0-1,0.1-2-0.1-3
						C70.1,54.1,69.9,54.1,70,54.3L70,54.3z"/>
				</g>
			</g>
		</g>
		<g>
			<g>
				<g>
					<path class="st0" d="M38.3,75.9c-2.2-0.4-4.6,0.6-6.2,2.1c-1.2,1-2,2.7-0.3,3.7c0.1,0.1,0.2-0.1,0.1-0.2c-2-1.1-0.2-3,1-3.9
						c1.5-1.1,3.4-1.8,5.3-1.5C38.4,76.1,38.4,75.9,38.3,75.9L38.3,75.9z"/>
				</g>
			</g>
		</g>
		<g>
			<g>
				<g>
					<path class="st0" d="M33.6,80c-0.7,0.3-1.5,0.9-1.5,1.7C32,82.5,32.9,83,33.6,83c1.9,0.2,3.9-1.8,4.9-3.2
						c0.1-0.1-0.1-0.2-0.2-0.1c-0.9,1.2-2.1,2.3-3.5,2.9c-0.7,0.3-2,0.4-2.5-0.4c-0.4-0.8,0.7-1.6,1.3-1.9
						C33.8,80.2,33.7,80,33.6,80L33.6,80z"/>
				</g>
			</g>
		</g>
		<g>
			<g>
				<g>
					<path class="st0" d="M101.3,44.3c1,5.1,1,10.4,0.9,15.6c-0.1,5.1,0,10.3,0.2,15.4c0.2,5.1,0.5,10.3,0.8,15.4
						c0.3,5,0.4,10-0.3,15c-0.4,2.6-1.1,5.2-2.1,7.7c-1,2.6-2.8,4.8-4.2,7.1c-0.1,0.2,0.2,0.5,0.4,0.2c1.3-2.1,2.9-4.1,3.9-6.4
						c1-2.1,1.6-4.4,2.1-6.7c1-4.7,1-9.6,0.8-14.4c-0.4-10.6-1.3-21.1-1.2-31.7c0.1-5.8,0.2-11.7-0.9-17.5
						C101.7,44,101.2,44.1,101.3,44.3L101.3,44.3z"/>
				</g>
			</g>
		</g>
		<g>
			<g>
				<g>
					<path class="st0" d="M97,33.5c0.7,1.1,1.4,2.1,1.9,3.3c0.1,0.2,0.5,0,0.4-0.2c-0.6-1.1-1.2-2.2-1.9-3.3
						C97.2,33.1,96.8,33.3,97,33.5L97,33.5z"/>
				</g>
			</g>
		</g>
		<g>
			<g>
				<g>
					<path class="st0" d="M90.2,124.6c0.1,0,0.1,0,0.2,0c0.1,0,0.1-0.2,0-0.2c0,0,0,0,0,0c0,0-0.1,0-0.1,0.1
						C90.2,124.4,90.2,124.5,90.2,124.6c0,0,0.1,0,0.1,0.1c0-0.1,0-0.1,0.1-0.2C90.4,124.4,90.3,124.5,90.2,124.6
						c0.1,0,0.1,0.1,0.2,0.1c0.1,0.1,0.3-0.1,0.2-0.2c-0.1-0.1-0.1-0.1-0.2-0.2c-0.1-0.1-0.2,0-0.2,0.1
						C90.2,124.4,90.2,124.5,90.2,124.6c-0.1,0.1,0,0.1,0.1,0.1c0.1,0,0.2-0.1,0.2-0.2c0,0-0.1,0-0.1,0.1c0,0,0,0,0,0
						c0.1,0,0.1-0.2,0-0.2c-0.1,0-0.1,0-0.2,0C90.1,124.3,90.1,124.6,90.2,124.6L90.2,124.6z"/>
				</g>
			</g>
		</g>
		<g>
			<g>
				<g>
					<path class="st0" d="M67.9,46.3c0.3,0,0.3-0.4,0-0.4C67.6,45.8,67.6,46.3,67.9,46.3L67.9,46.3z"/>
				</g>
			</g>
		</g>
		<g>
			<g>
				<g>
					<path class="st0" d="M69,45.7c-2.4-0.1-4.3,1.4-6.1,2.7c-1.1,0.7-2.2,1.5-3.4,1.9c-1.4,0.5-3,0.6-4.5,0.4
						c-6.1-0.6-10.8-5.1-16.7-6.5c-2.9-0.7-5.9-0.7-8.6,0.7c-0.2,0.1,0,0.5,0.2,0.4c5.6-3,11.7,0.5,16.7,3
						c4.6,2.3,10.1,4.3,14.9,1.4c2.3-1.4,4.5-3.7,7.4-3.6C69.3,46.1,69.3,45.7,69,45.7L69,45.7z"/>
				</g>
			</g>
		</g>
		<g>
			<g>
				<g>
					<path class="st0" d="M71.4,45.7c3.9,3.2,9,4.8,14,4.3c5.7-0.5,10.5-3.9,15.9-5.4c3.2-0.9,6.8-1.3,9.9,0.1
						c0.3,0.1,0.5-0.3,0.2-0.4c-4.9-2.1-10.3-0.4-15,1.6c-2.7,1.2-5.4,2.4-8.3,3.2c-2.7,0.7-5.5,0.8-8.2,0.2c-3-0.6-5.9-2-8.3-3.9
						C71.5,45.2,71.2,45.5,71.4,45.7L71.4,45.7z"/>
				</g>
			</g>
		</g>
		<g>
			<g>
				<g>
					<path class="st0" d="M29.6,45.3c5.5-3.3,9-8.8,13.7-13c2.4-2.1,5.1-4,8.2-4.8c3.4-0.9,6.8-0.2,10.2,0.7
						c3.2,0.8,6.3,1.4,9.6,0.8c3.3-0.6,6.5-2,9.8-2.4c5.7-0.8,10.2,2.5,14,6.3c2.1,2.1,4.1,4.4,6.3,6.5c1.3,1.3,2.7,2.4,4.4,3.2
						c1.6,0.8,3.3,1.4,5,1.9c0.3,0.1,0.4-0.3,0.1-0.4c-1.7-0.5-3.3-1.1-4.9-1.8c-1.6-0.8-3-1.9-4.3-3.1c-2-1.9-3.9-4-5.8-6
						c-3.4-3.5-7.4-6.9-12.6-7.1c-3.2-0.1-6.3,1.1-9.3,2c-1.8,0.5-3.6,0.9-5.4,0.9c-1.8,0-3.6-0.3-5.3-0.7c-3.2-0.8-6.4-1.8-9.8-1.4
						c-3,0.4-5.7,1.7-8.1,3.4c-5.9,4.3-9.7,10.9-16,14.7C29.1,45.1,29.3,45.5,29.6,45.3L29.6,45.3z"/>
				</g>
			</g>
		</g>
		<g>
			<g>
				<g>
					<path class="st0" d="M30.6,44.9c0.2,13.2,0.7,26.4,1.5,39.6c0.2,3.8,0.5,7.6,0.8,11.3c0,0.3,0.5,0.3,0.4,0
						c-1.1-13.2-1.8-26.4-2.1-39.6c-0.1-3.8-0.2-7.6-0.2-11.4C31,44.6,30.6,44.6,30.6,44.9L30.6,44.9z"/>
				</g>
			</g>
		</g>
		<g>
			<g>
				<g>
					<path class="st0" d="M32.7,82.9c0.2,4.3,0.5,8.6,0.8,13c0,0.3,0.5,0.3,0.4,0c-0.3-4.3-0.6-8.6-0.8-13
						C33.1,82.6,32.7,82.6,32.7,82.9L32.7,82.9z"/>
				</g>
			</g>
		</g>
		<g>
			<g>
				<g>
					<path class="st0" d="M32.3,44.4c-0.4,12-0.2,24,0.2,36c0,0.3,0.5,0.3,0.4,0c-0.4-12-0.6-24-0.2-36
						C32.8,44.1,32.3,44.1,32.3,44.4L32.3,44.4z"/>
				</g>
			</g>
		</g>
		<g>
			<g>
				<g>
					<path class="st0" d="M33.4,96.2c0-0.3-0.2-0.5-0.4-0.6c-0.1-0.1-0.3,0-0.3,0.1c-0.1,0.4,0.1,0.9,0.5,1c0.1,0,0.2,0,0.2-0.1
						c0.2-0.2,0.4-0.5,0.6-0.8c0.2-0.2-0.2-0.4-0.4-0.2c-0.2,0.2-0.4,0.5-0.6,0.8c0.1,0,0.2-0.1,0.2-0.1c-0.2-0.1-0.3-0.3-0.2-0.4
						c-0.1,0-0.2,0.1-0.3,0.1c0.1,0.1,0.2,0.2,0.2,0.4C33,96.6,33.5,96.5,33.4,96.2L33.4,96.2z"/>
				</g>
			</g>
		</g>
		<g>
			<path class="st0" d="M62.4,18.9c-1.9,0-3.4-1.5-3.4-3.4s1.5-3.4,3.4-3.4s3.4,1.5,3.4,3.4S64.2,18.9,62.4,18.9z M62.4,12.5
				c-1.7,0-3,1.4-3,3s1.4,3,3,3c1.7,0,3-1.4,3-3S64,12.5,62.4,12.5z"/>
		</g>
		<g>
			<path class="st0" d="M75,17.9c-0.8,0-1.5-0.7-1.5-1.5c0-0.8,0.7-1.5,1.5-1.5c0.8,0,1.5,0.7,1.5,1.5C76.5,17.3,75.8,17.9,75,17.9z
				 M75,15.4c-0.6,0-1.1,0.5-1.1,1.1c0,0.6,0.5,1.1,1.1,1.1s1.1-0.5,1.1-1.1C76.1,15.9,75.6,15.4,75,15.4z"/>
		</g>
		<g>
			<path class="st0" d="M92.1,21.3c-3.3,0-5.9-2.6-5.9-5.9s2.6-5.9,5.9-5.9c3.3,0,5.9,2.6,5.9,5.9S95.4,21.3,92.1,21.3z M92.1,9.9
				c-3.1,0-5.5,2.5-5.5,5.5s2.5,5.5,5.5,5.5c3.1,0,5.5-2.5,5.5-5.5S95.2,9.9,92.1,9.9z"/>
		</g>
		<g>
			<path class="st0" d="M55,76.8c-4.4,0-7.9-3.6-7.9-7.9S50.6,61,55,61s7.9,3.6,7.9,7.9S59.3,76.8,55,76.8z M55,61.3
				c-4.2,0-7.6,3.4-7.6,7.6c0,4.2,3.4,7.6,7.6,7.6s7.6-3.4,7.6-7.6C62.5,64.7,59.2,61.3,55,61.3z"/>
		</g>
		<g>
			<path class="st0" d="M81.6,78.2c-1.8,0-3.3-1.5-3.3-3.3s1.5-3.3,3.3-3.3c1.8,0,3.3,1.5,3.3,3.3S83.4,78.2,81.6,78.2z M81.6,72.1
				c-1.6,0-2.9,1.3-2.9,2.9c0,1.6,1.3,2.9,2.9,2.9c1.6,0,2.9-1.3,2.9-2.9C84.5,73.4,83.2,72.1,81.6,72.1z"/>
		</g>
		<g>
			<path class="st0" d="M93.6,64.4c-3.7,0-6.7-3-6.7-6.7c0-3.7,3-6.7,6.7-6.7c3.7,0,6.7,3,6.7,6.7C100.3,61.4,97.3,64.4,93.6,64.4z
				 M93.6,51.4c-3.5,0-6.3,2.8-6.3,6.3s2.8,6.3,6.3,6.3s6.3-2.8,6.3-6.3S97.1,51.4,93.6,51.4z"/>
		</g>
		<g>
			<g>
				<g>
					<path class="st0" d="M58.7,50.6c-1.1,1-2.6,1.5-3.7,2.5c-1.2,1-1.5,2.3-1.7,3.8c-0.1,0.8-0.3,1.7-0.7,2.4
						c-0.4,0.7-0.9,1.2-1.5,1.6c-0.9,0.8-1.8,1.5-1.9,2.7c0,0.3,0.4,0.3,0.4,0c0.2-1.4,1.6-2.1,2.5-3c1-0.9,1.3-2.1,1.5-3.4
						c0.3-1.6,0.6-3.1,2-4.1c1.1-0.8,2.4-1.3,3.4-2.2C59.3,50.7,58.9,50.4,58.7,50.6L58.7,50.6z"/>
				</g>
			</g>
		</g>
		<g>
			<g>
				<g>
					<path class="st0" d="M65.4,28.5C63.9,28,62.7,27,62,25.6c-0.5-1-0.3-1.8,0.1-2.7c0.2-0.5,0.4-0.9,0.4-1.4
						c-0.1-2-2.8-2.7-2.7-4.6c0-0.3-0.4-0.3-0.4,0c0,1,0.6,1.7,1.2,2.4c0.4,0.4,0.9,0.8,1.2,1.4c0.5,0.9,0.2,1.6-0.2,2.4
						c-1.2,2.6,1.4,5.1,3.7,5.9C65.5,29,65.6,28.6,65.4,28.5L65.4,28.5z"/>
				</g>
			</g>
		</g>
		<g>
			<g>
				<g>
					<path class="st0" d="M72.8,28.6c1.8-0.5,3.2-2.4,2.9-4.4c-0.2-1.2-1-2.3-1.4-3.5c-0.5-1.5-0.6-3.1-0.3-4.6
						c0.1-0.3-0.4-0.4-0.4-0.1c-0.4,2.2-0.1,4.3,0.9,6.3c0.6,1.2,1.1,2.2,0.7,3.6c-0.4,1.1-1.3,2-2.4,2.4
						C72.4,28.3,72.5,28.7,72.8,28.6L72.8,28.6z"/>
				</g>
			</g>
		</g>
		<g>
			<g>
				<g>
					<path class="st0" d="M83.4,26.4c2-0.1,4-0.6,5.7-1.7c0.8-0.5,1.6-1.1,2.3-1.8c0.9-0.9,1.7-1.8,2.9-2.2c0.3-0.1,0.2-0.5-0.1-0.4
						c-1.9,0.7-3,2.4-4.6,3.6c-1.8,1.3-4,2-6.2,2.1C83.1,26,83.1,26.4,83.4,26.4L83.4,26.4z"/>
				</g>
			</g>
		</g>
		<g>
			<g>
				<g>
					<path class="st0" d="M80.5,50.3c2.1,0.8,2.7,3.3,3,5.3c0.4,2.6,0.4,5.2-1,7.6c-1.9,3.3-5.9,6.8-4,10.9c0.1,0.3,0.5,0,0.4-0.2
						c-1.1-2.5,0.3-5.2,1.7-7.3c1.4-1.9,2.9-3.7,3.4-6.1c0.4-2.1,0.2-4.5-0.4-6.6c-0.5-1.7-1.3-3.4-3-4.1
						C80.4,49.7,80.3,50.2,80.5,50.3L80.5,50.3z"/>
				</g>
			</g>
		</g>
		<g>
			<g>
				<g>
					<path class="st0" d="M89,49.2c1,0.8,2.2,1.3,3.5,1.2c1-0.1,1.8-0.1,2.7,0.4c0.7,0.4,1.3,1,1.9,1.6c0.2,0.2,0.5-0.1,0.3-0.3
						c-0.9-0.9-1.9-1.9-3.2-2.1c-0.8-0.1-1.6,0.1-2.4,0c-1-0.1-1.9-0.5-2.7-1.1C89.1,48.7,88.8,49,89,49.2L89,49.2z"/>
				</g>
			</g>
		</g>
		<g>
			<g>
				<g>
					<path class="st0" d="M49.3,63.7c-0.9,2.2-1.5,4.9-0.5,7.2c0.3,0.7,0.9,1.6,1.8,1.7c1,0.1,1.1-0.7,1.3-1.4
						c0.6-1.8,1.9-0.7,2.2,0.5c0.1,0.5,0.2,1.1,0.4,1.5c0.2,0.5,0.8,1.3,1.5,1c0.3-0.2,0.3-0.5,0.5-0.8c0.8-0.8,1.4,0.7,1.8,0.9
						c1,0.6,1.5-1,2.4-0.6c0.1,0.1,0.2-0.2,0.1-0.2c-1-0.4-1.4,1.2-2.5,0.5c-0.5-0.3-0.9-1.5-1.7-1c-0.2,0.1-0.3,0.3-0.4,0.5
						c-0.7,1.3-1.6-0.3-1.8-1c-0.2-0.8-0.2-1.8-1-2.3c-0.5-0.3-1.1-0.3-1.5,0.2c-0.2,0.3-0.2,0.6-0.3,1c-0.2,0.7-0.6,1.2-1.4,0.8
						c-0.3-0.2-0.6-0.5-0.8-0.8c-1.5-2.3-0.8-5.4,0.1-7.8C49.5,63.6,49.3,63.5,49.3,63.7L49.3,63.7z"/>
				</g>
			</g>
		</g>
		<g>
			<g>
				<g>
					<path class="st0" d="M54.9,61.5c-1,1.1-2.3,2.9-2.2,4.5c0.1,1.4,1.5,1.1,2.4,0.5c0.9-0.7,2-2.1,3.3-1.4c1,0.6,0.4,1.8,1,2.7
						c0.8,1.3,2.7-0.2,3.3-1c0.1-0.1-0.1-0.3-0.2-0.2c-0.5,0.6-2,2-2.9,1.2c-0.6-0.6-0.3-1.6-0.6-2.3c-0.3-0.7-1.1-1-1.9-0.8
						c-0.5,0.1-1,0.5-1.4,0.8c-0.5,0.5-2.2,2.3-2.8,0.7c-0.3-0.8,0.3-1.9,0.6-2.5c0.4-0.8,0.9-1.4,1.4-2.1
						C55.1,61.6,55,61.4,54.9,61.5L54.9,61.5z"/>
				</g>
			</g>
		</g>
		<g>
			<g>
				<g>
					<path class="st0" d="M49.7,66.3c-0.3,0.4-0.3,0.9,0,1.3c0.4,0.5,1,0.4,1.4,0c0.4-0.4,0.4-1,0-1.4C50.7,66,50.1,65.9,49.7,66.3
						c-0.1,0.1,0.1,0.2,0.2,0.2c0.3-0.2,0.7-0.3,1-0.1c0.4,0.2,0.4,0.8,0.1,1.1c-0.3,0.3-0.8,0.4-1.1,0c-0.2-0.3-0.3-0.7,0-1
						C50,66.4,49.8,66.2,49.7,66.3L49.7,66.3z"/>
				</g>
			</g>
		</g>
		<g>
			<g>
				<g>
					<path class="st0" d="M56.3,67.8c0.3-0.5,1.1-0.4,1,0.2c0,0.3-0.2,0.5-0.5,0.5c-0.3,0-0.5-0.2-0.6-0.4c0-0.1-0.2-0.1-0.2,0.1
						c0.1,0.4,0.5,0.6,0.8,0.6s0.6-0.3,0.7-0.7c0-0.4-0.2-0.7-0.5-0.8c-0.4-0.1-0.7,0.1-0.9,0.4C56,67.8,56.2,67.9,56.3,67.8
						L56.3,67.8z"/>
				</g>
			</g>
		</g>
		<g>
			<g>
				<g>
					<path class="st0" d="M81.2,71.9c-1.4,0.8-2.2,2.7-0.9,4c1.1,1,3,0.6,3.2-1c0.1-1.3-1.7-2.4-2.4-1c-0.5,1.1,1.2,1.8,1.5,0.7
						c0.1-0.1-0.2-0.2-0.2-0.1c-0.5,0.8-0.8,0.5-0.8-0.9c0.7-0.2,1.1,0,1.5,0.5c0.2,0.4,0.2,0.9,0,1.3c-0.4,0.8-1.2,1.1-2.1,0.8
						c-1.9-0.8-1.2-3.2,0.2-4C81.4,72.1,81.3,71.9,81.2,71.9L81.2,71.9z"/>
				</g>
			</g>
		</g>
		<g>
			<g>
				<g>
					<path class="st0" d="M88.4,54.2c0.3-0.8,1.3-0.5,1.7-0.2c0.4,0.2,0.7,0.5,1,0.7c0.5,0.2,1,0.2,1.5,0c0.8-0.3,1.3-1,2.1-1.3
						c1.1-0.5,2.3-0.3,3.3,0.3c0.1,0.1,0.2-0.1,0.1-0.2c-0.8-0.6-1.8-0.8-2.7-0.6c-1,0.2-1.7,1-2.6,1.5c-1.4,0.7-2-0.8-3.3-1
						c-0.6-0.1-1.1,0.1-1.3,0.6C88.2,54.2,88.4,54.3,88.4,54.2L88.4,54.2z"/>
				</g>
			</g>
		</g>
		<g>
			<g>
				<g>
					<path class="st0" d="M87.7,57.8c1.1-1.3,2.8-0.2,4.1,0.2c0.9,0.3,1.7,0.2,2.5-0.3c0.8-0.5,1.5-1.4,2.5-1.6
						c1.1-0.3,2.1,0.8,3.2,0.4c0.1-0.1,0.1-0.3-0.1-0.2c-0.8,0.3-1.5-0.3-2.2-0.4c-0.4-0.1-0.8,0-1.2,0.1c-0.9,0.3-1.5,1.1-2.3,1.6
						c-1.5,0.9-2.7-0.1-4.2-0.4c-0.9-0.2-1.8-0.2-2.4,0.5C87.5,57.8,87.6,57.9,87.7,57.8L87.7,57.8z"/>
				</g>
			</g>
		</g>
		<g>
			<g>
				<g>
					<path class="st0" d="M88.8,62.2c1.8-1.5,4.3,0.3,6.3-0.5c0.4-0.2,0.7-0.4,1.1-0.7c0.8-0.6,1.3-0.4,2.2-0.4
						c0.6,0,1.1-0.2,1.3-0.7c0.1-0.1-0.2-0.2-0.2-0.1c-0.4,1.1-2,0.3-2.9,0.7c-0.4,0.2-0.8,0.6-1.2,0.9c-0.6,0.4-1.2,0.4-1.9,0.4
						c-1.7-0.1-3.5-0.8-4.9,0.4C88.5,62.1,88.7,62.2,88.8,62.2L88.8,62.2z"/>
				</g>
			</g>
		</g>
		<g>
			<g>
				<g>
					<path class="st0" d="M98.2,54c0.2,0,0.5,0,0.8,0c0.1,0,0.1-0.2,0-0.2c-0.2,0-0.5,0-0.8,0C98.1,53.8,98.1,54,98.2,54L98.2,54z"
						/>
				</g>
			</g>
		</g>
		<g>
			<g>
				<g>
					<path class="st0" d="M60.7,12.6c-1.1,1.2-1.1,3.3,0.2,4.4c1.3,1.1,3.3,0.7,4.3-0.7c0.1-0.1-0.1-0.2-0.2-0.1
						c-0.8,1.2-2.6,1.5-3.8,0.7c-1.4-0.9-1.4-3-0.3-4.2C60.9,12.7,60.8,12.5,60.7,12.6L60.7,12.6z"/>
				</g>
			</g>
		</g>
		<g>
			<g>
				<g>
					<path class="st0" d="M62.6,12.4c-1.4,0.4-1.4,2.4-0.1,2.9c0.7,0.3,1.5,0.2,2.1-0.2c0.6-0.4,0.9-1.2,0.5-1.8
						c-0.1-0.1-0.3,0-0.2,0.1c0.4,0.6,0,1.3-0.5,1.6c-0.5,0.3-1.2,0.3-1.7,0.1c-1-0.5-1.1-2.2,0.1-2.5
						C62.8,12.6,62.8,12.3,62.6,12.4L62.6,12.4z"/>
				</g>
			</g>
		</g>
		<g>
			<g>
				<g>
					<path class="st0" d="M63.5,13.1c-0.4,0.2-0.9,0.5-0.9,1c0.1,0.5,0.7,0.5,1.1,0.4c0.4-0.2,0.8-0.7,0.6-1.1
						c-0.2-0.4-0.6-0.7-1.1-0.5c-0.1,0.1,0,0.2,0.1,0.2c0.3-0.1,0.7,0.1,0.8,0.4c0.1,0.4-0.2,0.7-0.5,0.8c-0.3,0.1-1,0-0.7-0.5
						c0.1-0.3,0.4-0.4,0.7-0.5C63.8,13.2,63.7,13,63.5,13.1L63.5,13.1z"/>
				</g>
			</g>
		</g>
		<g>
			<g>
				<g>
					<path class="st0" d="M74,17c0-0.6,0.6-1.4,1.2-0.9c0.3,0.2,0.3,0.6,0,0.8c-0.5,0.3-0.5-0.3-0.5-0.6c0-0.1-0.2-0.1-0.2,0.1
						c0,0.2,0,0.7,0.2,0.8c0.2,0.1,0.4,0.1,0.5,0c0.4-0.2,0.6-0.5,0.4-0.9c-0.2-0.4-0.7-0.5-1.1-0.4C74,16,73.8,16.5,73.8,17
						C73.8,17.2,74,17.2,74,17L74,17z"/>
				</g>
			</g>
		</g>
		<g>
			<g>
				<g>
					<path class="st0" d="M94.1,20.3c1.1-0.2,1.6-1.5,0.7-2.3c-0.1-0.1-0.2-0.1-0.3-0.2c-0.2-0.2,0-0.7,0.2-0.9
						c0.2-0.3,0.8-0.3,1.1-0.5c0.2-0.1,0.3-0.3,0.4-0.5c0.2-0.4,0.1-2.1,1-1.7c0.1,0.1,0.2-0.2,0.1-0.2c-0.8-0.3-1.1,0.7-1.1,1.2
						c-0.1,1.2-1,1.1-1.7,1.7c-0.3,0.3-0.4,0.5-0.4,0.9c0,0.1,0,0.1,0.1,0.1c1.2,0.3,1.2,1.9,0,2.1C93.9,20.1,94,20.4,94.1,20.3
						L94.1,20.3z"/>
				</g>
			</g>
		</g>
		<g>
			<g>
				<g>
					<path class="st0" d="M88.8,16.1c-0.5-0.7-0.4-1.7,0.2-2.3c0.5-0.5,1.2-0.4,1.7-0.9c0.2-0.2,0.2-0.5,0.3-0.7
						c0.3-0.5,0.8-0.8,1.3-1c0.2-0.1,0.5-0.1,0.8,0c0.3,0,0.4,0.1,0.3,0.5c0.2,0.2,0.2,0.4,0.1,0.6c-0.1,0.3-0.4,0.6-0.5,0.9
						c-0.6,1.6,0.4,3.9-1.1,5.1c-0.5,0.4-1.3,0.5-1.8,0c-0.3-0.3-0.4-0.7-0.6-1.1c-0.2-0.4-0.4-0.8-0.8-1.1
						c-0.1-0.1-0.2,0.1-0.1,0.2c0.8,0.6,0.7,1.9,1.6,2.3c0.6,0.3,1.4,0,1.9-0.4c0.8-0.8,0.8-2,0.8-3c0-0.8,0-1.5,0.4-2.3
						c0.2-0.4,0.6-0.8,0.6-1.3c0-0.6-0.8-0.7-1.3-0.7c-0.9,0.1-1.4,0.6-1.9,1.4c-0.5,0.8-0.4,0.5-1,0.7c-0.2,0.1-0.4,0.2-0.5,0.3
						c-0.3,0.2-0.5,0.5-0.7,0.8c-0.3,0.7-0.3,1.4,0.1,2C88.7,16.4,88.9,16.3,88.8,16.1L88.8,16.1z"/>
				</g>
			</g>
		</g>
		<g>
			<g>
				<g>
					<path class="st0" d="M94.7,12.9c0.3-0.2,0.8,0.2,0.6,0.5c-0.1,0.2-0.4,0.1-0.5,0c-0.2-0.2,0-0.5,0.2-0.5c0.1,0,0.1-0.2,0-0.2
						c-0.4,0-0.6,0.4-0.5,0.7c0.1,0.3,0.5,0.4,0.8,0.2c0.3-0.2,0.2-0.6,0-0.8c-0.2-0.2-0.5-0.4-0.8-0.2C94.4,12.8,94.5,13,94.7,12.9
						L94.7,12.9z"/>
				</g>
			</g>
		</g>
		<g>
			<g>
				<g>
					<path class="st0" d="M92.6,19.6c0-0.2,0.2-0.4,0.4-0.4c0.2,0,0.4,0.2,0.4,0.4c0,0.2-0.1,0.4-0.3,0.4
						C92.9,20,92.7,19.8,92.6,19.6c0-0.1-0.2-0.1-0.2,0c0,0.3,0.3,0.6,0.7,0.6c0.4,0,0.6-0.3,0.6-0.6c0-0.3-0.2-0.6-0.6-0.6
						s-0.7,0.3-0.7,0.7C92.4,19.8,92.6,19.8,92.6,19.6L92.6,19.6z"/>
				</g>
			</g>
		</g>
		<g>
			<g>
				<g>
					<path class="st0" d="M58.8,29.1c-1.5-0.9-3.2-0.5-4.8-0.1c-1.8,0.5-3.7,1-5.4,1.9c-1.7,0.9-3.1,2.1-4.4,3.6
						c-1.5,1.7-3,3.5-4.4,5.3c-0.1,0.1-0.1,0.2,0,0.3c3.4,4,7.9,7,13,8.6c0.3,0.1,0.4-0.3,0.1-0.4c-5-1.6-9.4-4.5-12.8-8.5
						c0,0.1,0,0.2,0,0.3c1.3-1.5,2.6-3,3.8-4.6c1.2-1.4,2.5-2.8,4.1-3.8c1.5-0.9,3.2-1.5,4.9-1.9c1.7-0.5,3.9-1.3,5.6-0.3
						C58.9,29.6,59.1,29.2,58.8,29.1L58.8,29.1z"/>
				</g>
			</g>
		</g>
		<g>
			<g>
				<g>
					<path class="st0" d="M85.6,47.9c2.3-0.5,4.3-2.1,6.4-3.1c2.4-1.1,4.9-1.9,7.4-2.3c0.2,0,0.2-0.4,0-0.4c-3.5-1-5.7-4.3-7.1-7.5
						c-0.1-0.3-0.5,0-0.4,0.2c1.5,3.3,3.7,6.6,7.4,7.7c0-0.1,0-0.3,0-0.4c-2.4,0.4-4.7,1-7,2c-2.3,1-4.4,2.7-6.9,3.3
						C85.2,47.5,85.3,47.9,85.6,47.9L85.6,47.9z"/>
				</g>
			</g>
		</g>
		<g>
			<g>
				<g>
					<path class="st0" d="M34.4,41.3c-0.8,0.4-0.7,1.6,0.1,2c0.9,0.5,2.3-0.1,2.7-1.1c0.4-1-0.7-1.7-1.6-1.1
						c-0.3,0.2-0.8,0.8-0.6,1.2c0.2,0.4,0.8,0.4,1.1,0.3c0.1,0,0.1-0.1,0.1-0.2c0.1-0.5-0.4-0.8-0.8-0.7c-0.3,0.1-0.2,0.5,0.1,0.4
						c0.1,0.1,0.2,0.2,0.3,0.3c0-0.1,0.1-0.1,0.1-0.2c-0.2,0.1-0.4,0-0.6-0.2c0,0.1,0,0.1,0.1,0.2c0.1-0.3,0.2-0.5,0.4-0.7
						c0.2-0.2,0.7-0.4,0.9-0.1c0.5,0.5-0.3,1.2-0.7,1.4c-0.5,0.2-1.2,0.4-1.5-0.1c-0.2-0.3-0.2-0.9,0.2-1.1
						C34.9,41.5,34.7,41.1,34.4,41.3L34.4,41.3z"/>
				</g>
			</g>
		</g>
		<g>
			<g>
				<g>
					<path class="st0" d="M39.8,39.8c-0.3-1-1.2-1.7-2.2-1.3c-0.9,0.4-1.2,1.6-0.4,2.2c0.7,0.5,1.9-0.2,1.6-1.1
						c-0.1-0.3-0.4-0.7-0.8-0.5c-0.3,0.1-0.4,0.6-0.2,0.8c0.2,0.2,0.5-0.1,0.3-0.3c0.6,0.5-0.3,1.1-0.8,0.7c-0.3-0.3-0.3-0.8,0-1.1
						c0.7-0.8,1.7,0,2,0.8C39.4,40.2,39.9,40.1,39.8,39.8L39.8,39.8z"/>
				</g>
			</g>
		</g>
		<g>
			<g>
				<g>
					<path class="st0" d="M41.2,41.5c-0.8-0.7-2.2-0.8-2.8,0.3c-0.4,0.9,0.1,2,1.2,1.9c0.4-0.1,0.8-0.3,1-0.7c0.2-0.4,0-0.9-0.4-1.2
						c-0.8-0.5-1.3,1-0.5,1.1c0.3,0.1,0.4-0.4,0.1-0.4c-0.1,0-0.1-0.2-0.1-0.3c0.1-0.2,0.4,0.1,0.4,0.2c0.1,0.3,0,0.5-0.2,0.7
						c-0.4,0.2-0.9,0.2-1.1-0.3c-0.2-0.5,0-1.1,0.5-1.4c0.5-0.3,1.2-0.1,1.6,0.3C41.1,42,41.4,41.7,41.2,41.5L41.2,41.5z"/>
				</g>
			</g>
		</g>
		<g>
			<g>
				<g>
					<path class="st0" d="M101.6,39.4c-1,0.1-1.9,0.7-2,1.7c-0.1,0.9,0.6,1.8,1.6,1.7c0.8-0.1,1.2-1.1,0.7-1.7
						c-0.6-0.6-1.6,0-1.5,0.8c0,0.1,0.1,0.2,0.2,0.2c0.3,0,0.5-0.1,0.8-0.2c0.2-0.1,0-0.5-0.2-0.4c-0.2,0.1-0.4,0.2-0.6,0.2
						c0.1,0.1,0.1,0.1,0.2,0.2c-0.1-0.6,0.7-0.6,0.8-0.1c0.1,0.2,0,0.4-0.1,0.6c-0.5,0.5-1.2,0.1-1.4-0.4c-0.4-1,0.6-1.8,1.5-1.9
						C101.8,39.8,101.8,39.3,101.6,39.4L101.6,39.4z"/>
				</g>
			</g>
		</g>
		<g>
			<g>
				<g>
					<path class="st0" d="M103.7,41.8c0.2,0.7,0.2,1.8-0.8,1.9c-0.3,0-0.6-0.1-0.7-0.5c0-0.1,0-0.3,0.1-0.4c0-0.1,0.1-0.1,0.2-0.1
						c0,0,0.1,0,0.1,0c0.1,0,0.2,0,0.2,0.2c-0.2-0.2-0.5,0.1-0.3,0.3c0.6,0.5,1.2-0.5,0.5-0.9c-0.7-0.3-1.2,0.5-1.1,1.1
						c0.1,0.8,1,1,1.6,0.7c0.9-0.4,1-1.5,0.7-2.3C104,41.4,103.6,41.5,103.7,41.8L103.7,41.8z"/>
				</g>
			</g>
		</g>
		<g>
			<g>
				<g>
					<path class="st0" d="M98.9,44.7c0-0.7,0.2-1.6,1-1.7c0.3,0,0.7,0.1,0.8,0.4c0.1,0.2,0,0.4-0.1,0.5c0,0.1-0.5,0.4-0.5,0.1
						c0,0.1-0.1,0.1-0.1,0.2c0,0-0.1,0-0.1,0c0-0.1,0-0.1-0.1-0.2c0,0,0,0,0,0.1c-0.1,0.3,0.3,0.4,0.4,0.1c0,0,0,0,0-0.1
						c0-0.1,0-0.2-0.1-0.2c-0.2-0.2-0.5-0.1-0.5,0.1c-0.1,0.3,0.2,0.5,0.5,0.5c0.7,0.1,1.2-0.7,1-1.3c-0.2-0.7-1-0.8-1.6-0.6
						c-0.8,0.3-1.1,1.2-1,2C98.4,45,98.9,45,98.9,44.7L98.9,44.7z"/>
				</g>
			</g>
		</g>
		<g>
			<g>
				<g>
					<path class="st0" d="M40.6,37.6c-0.1-0.7-0.1-1.3-0.2-2c-0.1,0.1-0.2,0.1-0.3,0.2c0.5,0.4,0.7,0.8,0.8,1.4
						c0.1-0.1,0.2-0.1,0.3-0.2c-0.6-0.2-1.2-0.2-1.8,0c0.1,0.1,0.2,0.2,0.2,0.3c0.4-0.7,1-1.2,1.6-1.7c-0.1-0.1-0.2-0.2-0.3-0.2
						c-0.2,0.7-0.5,1.4-1,2.1c-0.2,0.2,0.2,0.5,0.4,0.2c0.5-0.7,0.8-1.4,1-2.2c0.1-0.2-0.2-0.4-0.3-0.2c-0.7,0.5-1.3,1.1-1.8,1.8
						c-0.1,0.2,0.1,0.4,0.2,0.3c0.5-0.2,1-0.1,1.5,0c0.1,0,0.3-0.1,0.3-0.2c-0.1-0.7-0.4-1.4-1-1.8c-0.1-0.1-0.4,0-0.3,0.2
						c0.1,0.7,0.1,1.3,0.2,2C40.2,37.9,40.6,37.9,40.6,37.6L40.6,37.6z"/>
				</g>
			</g>
		</g>
		<g>
			<g>
				<g>
					<path class="st0" d="M41.6,45.1c0.4-0.4,0.9-0.8,1.3-1.2c-0.1-0.1-0.2-0.1-0.4-0.2c-0.1,0.5-0.1,1,0,1.5
						c0.1-0.1,0.2-0.2,0.3-0.3c-0.6-0.2-1.2-0.6-1.7-1c-0.1,0.1-0.1,0.2-0.2,0.4c0.8,0.3,1.7,0.4,2.6,0.5c0-0.1,0-0.3-0.1-0.4
						c-0.7,0.2-1.5,0.4-2.2,0.5c-0.3,0.1-0.2,0.5,0.1,0.4c0.7-0.2,1.5-0.4,2.2-0.5c0.3-0.1,0.2-0.4-0.1-0.4
						c-0.8-0.1-1.7-0.2-2.4-0.5c-0.2-0.1-0.4,0.2-0.2,0.4c0.6,0.5,1.2,0.8,1.9,1.1c0.2,0.1,0.3-0.1,0.3-0.3c-0.1-0.4-0.1-0.9,0-1.3
						c0.1-0.2-0.2-0.4-0.4-0.2c-0.4,0.4-0.9,0.8-1.3,1.2C41.1,45,41.4,45.3,41.6,45.1L41.6,45.1z"/>
				</g>
			</g>
		</g>
		<g>
			<g>
				<g>
					<path class="st0" d="M66.2,32.3c0.1-0.5,0.3-1,0.4-1.5c-0.1,0-0.3,0-0.4,0.1c0.2,0.4,0.5,0.9,0.7,1.3c0.1-0.1,0.2-0.2,0.2-0.3
						c-0.5-0.2-1.1-0.4-1.6-0.6c0,0.1,0,0.3,0,0.4c0.6-0.1,1.2-0.2,1.9-0.3c-0.1-0.1-0.1-0.3-0.2-0.4c-0.4,0.3-0.8,0.6-1.2,0.9
						C65.8,32,66,32.3,66.2,32.3c0.5-0.4,0.9-0.7,1.3-1c0.2-0.2,0.1-0.4-0.2-0.4c-0.6,0.1-1.2,0.2-1.9,0.3c-0.2,0-0.2,0.4,0,0.4
						c0.5,0.2,1.1,0.4,1.6,0.6c0.2,0.1,0.3-0.2,0.2-0.3c-0.2-0.4-0.5-0.9-0.7-1.3c-0.1-0.2-0.4-0.1-0.4,0.1c-0.1,0.5-0.3,1-0.4,1.5
						C65.7,32.4,66.1,32.5,66.2,32.3L66.2,32.3z"/>
				</g>
			</g>
		</g>
		<g>
			<g>
				<g>
					<path class="st0" d="M68.5,36.7c0.1-0.7,0.2-1.3,0.5-2c-0.1,0-0.3,0-0.4-0.1c0.2,0.6,0.4,1.2,0.7,1.8c0.1-0.1,0.3-0.1,0.4-0.2
						c-0.4-0.6-1-1-1.7-1.1c0,0.1,0,0.3,0,0.4c0.5-0.2,1.1-0.3,1.7-0.2c0-0.1,0-0.3-0.1-0.4c-0.5,0.4-1.1,0.7-1.6,1.1
						c-0.2,0.2,0,0.5,0.2,0.4c0.5-0.4,1.1-0.7,1.6-1.1c0.1-0.1,0.1-0.4-0.1-0.4c-0.7-0.1-1.3-0.1-1.9,0.2c-0.2,0.1-0.2,0.4,0,0.4
						c0.6,0.1,1.1,0.4,1.4,0.9c0.1,0.2,0.5,0.1,0.4-0.2c-0.2-0.6-0.4-1.2-0.7-1.8c-0.1-0.2-0.3-0.2-0.4-0.1
						c-0.3,0.7-0.5,1.4-0.6,2.2C68,37,68.4,37,68.5,36.7L68.5,36.7z"/>
				</g>
			</g>
		</g>
		<g>
			<g>
				<g>
					<path class="st0" d="M71.4,32.1c0.1-0.5,0.2-1,0.2-1.5c-0.1,0-0.2,0.1-0.3,0.1c0.4,0.3,0.6,0.7,0.8,1.1
						c0.1-0.1,0.2-0.2,0.3-0.3c-0.6-0.2-1.3-0.3-1.9-0.4c0,0.1,0,0.3,0.1,0.4c0.7-0.2,1.4-0.5,2-0.8c-0.1-0.1-0.2-0.2-0.3-0.4
						c-0.5,0.5-0.9,1.1-1.4,1.6c-0.2,0.2,0.1,0.5,0.3,0.3c0.5-0.5,0.9-1.1,1.4-1.6c0.2-0.2,0-0.5-0.3-0.4c-0.6,0.4-1.2,0.6-1.9,0.8
						c-0.2,0.1-0.2,0.4,0.1,0.4c0.6,0.1,1.2,0.2,1.8,0.4c0.2,0.1,0.3-0.1,0.3-0.3c-0.1-0.6-0.5-1-1-1.4c-0.1-0.1-0.3,0-0.3,0.1
						c-0.1,0.5-0.2,1-0.2,1.5C70.9,32.2,71.4,32.3,71.4,32.1L71.4,32.1z"/>
				</g>
			</g>
		</g>
		<g>
			<g>
				<g>
					<path class="st0" d="M96.1,39c0.1-0.7,0.3-1.3,0.6-1.9c-0.1,0-0.3,0-0.4-0.1c0.1,0.7,0.4,1.3,0.7,1.9c0.1-0.1,0.2-0.2,0.4-0.3
						c-0.6-0.5-1.3-0.9-2-1.1c0,0.1-0.1,0.3-0.1,0.4c0.7,0.1,1.4,0.2,2.1,0.1c-0.1-0.1-0.1-0.2-0.2-0.4c-0.5,0.4-1,0.6-1.6,0.6
						c-0.3,0-0.3,0.4,0,0.4c0.7,0,1.4-0.3,1.9-0.7c0.1-0.1,0-0.4-0.2-0.4c-0.7,0.1-1.4,0-2-0.1c-0.3-0.1-0.4,0.4-0.1,0.4
						c0.7,0.2,1.3,0.5,1.8,1c0.2,0.2,0.5-0.1,0.4-0.3c-0.3-0.6-0.5-1.2-0.6-1.8c0-0.2-0.3-0.2-0.4-0.1c-0.3,0.6-0.6,1.3-0.7,2
						C95.7,39.2,96.1,39.3,96.1,39L96.1,39z"/>
				</g>
			</g>
		</g>
		<g>
			<g>
				<g>
					<path class="st0" d="M94.8,45.7c0.1-0.3,0.1-0.6,0.2-0.9c-0.1,0-0.2,0.1-0.4,0.1c0.2,0.3,0.5,0.6,0.7,0.8c0-0.1,0-0.2,0.1-0.4
						c-0.5,0.2-1.1,0.2-1.6-0.2c0,0.1,0,0.3-0.1,0.4c0.5-0.1,1-0.2,1.4-0.3c-0.1-0.1-0.1-0.2-0.2-0.4c-0.3,0.3-0.6,0.6-0.9,0.9
						c-0.2,0.2,0.1,0.5,0.3,0.3c0.3-0.3,0.6-0.6,0.9-0.9c0.2-0.2,0-0.4-0.2-0.4c-0.5,0.1-1,0.2-1.4,0.3c-0.2,0.1-0.2,0.3-0.1,0.4
						c0.6,0.4,1.4,0.4,2,0.2c0.1-0.1,0.1-0.2,0.1-0.4c-0.2-0.3-0.5-0.6-0.7-0.8c-0.1-0.1-0.3-0.1-0.4,0.1c-0.1,0.3-0.1,0.6-0.2,0.9
						C94.4,45.9,94.8,46,94.8,45.7L94.8,45.7z"/>
				</g>
			</g>
		</g>
		<g>
			<g>
				<g>
					<path class="st0" d="M32.1,83.2c0.4,4.2,0.7,8.3,0.5,12.5c0.3,0,0.6,0,0.9,0c0-0.5,0-1,0-1.4c0-0.6-0.8-0.5-0.9,0
						c0,0.3-0.1,0.6-0.1,0.9c-0.1,0.6,0.8,0.6,0.9,0c0-0.3,0.1-0.6,0.1-0.9c-0.3,0-0.6,0-0.9,0c0,0.5,0,1,0,1.4c0,0.6,0.9,0.6,0.9,0
						c0.1-4.2-0.2-8.3-0.5-12.5C33,82.6,32.1,82.6,32.1,83.2L32.1,83.2z"/>
				</g>
			</g>
		</g>
		<g>
			<g>
				<g>
					<path class="st0" d="M32.8,80.5c-0.4-11.8-0.7-23.7-1.1-35.5c-0.3,0-0.6,0-0.9,0c0.1,1.8,0.1,3.5,0.2,5.3c0,0.6,0.9,0.6,0.9,0
						c0-1,0-1.9-0.1-2.9c0-0.6-0.8-0.6-0.9,0c-0.3,3.5-0.2,7,0.3,10.4c0.1,0.5,0.9,0.4,0.9-0.1c0-2.6,0-5.3,0-7.9
						c-0.3,0-0.6,0-0.9,0c0.1,1.7,0.2,3.3,0.3,5c0.3,0,0.6,0,0.9,0c-0.4-3.5-0.3-7,0.1-10.5c-0.3,0-0.6,0-0.9,0
						c-0.8,12.1-0.8,24.2,0.3,36.2C32,81.2,32.9,81.2,32.8,80.5c-1.1-12-1.1-24.1-0.3-36.2c0-0.6-0.8-0.5-0.9,0
						c-0.5,3.5-0.5,7-0.1,10.5c0.1,0.5,0.9,0.6,0.9,0c-0.1-1.7-0.2-3.3-0.3-5c0-0.6-0.9-0.6-0.9,0c0,2.6,0,5.3,0,7.9
						c0.3,0,0.6-0.1,0.9-0.1c-0.5-3.4-0.5-6.8-0.3-10.2c-0.3,0-0.6,0-0.9,0c0,1,0,1.9,0.1,2.9c0.3,0,0.6,0,0.9,0
						c-0.1-1.8-0.1-3.5-0.2-5.3c0-0.6-0.9-0.6-0.9,0c0.3,11.8,0.7,23.7,1.1,35.5C32,81.1,32.9,81.1,32.8,80.5L32.8,80.5z"/>
				</g>
			</g>
		</g>
		<g>
			<g>
				<g>
					<path class="st0" d="M32.7,80.5c-0.1-1.1-0.2-2.1-0.2-3.2c-0.3,0-0.6,0-0.9,0c0.1,1.1,0.2,2.2,0.3,3.2
						C31.9,81.1,32.8,81.1,32.7,80.5c0-1-0.1-2.1-0.2-3.2c-0.1-0.6-0.9-0.6-0.9,0c0.1,1.1,0.2,2.1,0.2,3.2
						C31.8,81.1,32.7,81.1,32.7,80.5L32.7,80.5z"/>
				</g>
			</g>
		</g>
		<g>
			<g>
				<g>
					<path class="st0" d="M33.8,96c-0.3-4.3-0.6-8.6-1-13c0-0.6-0.9-0.6-0.9,0c0.3,4.3,0.6,8.6,1,13C33,96.6,33.8,96.6,33.8,96
						L33.8,96z"/>
				</g>
			</g>
		</g>
		<g>
			<g>
				<g>
					<path class="st0" d="M33.2,94.7c-0.9,0-1.6,1.2-0.7,1.8c0.7,0.4,1.7-0.1,1.4-1c-0.3-0.9-1.5-0.8-1.7,0c-0.1,0.3-0.1,1,0.1,1.2
						c0.3,0.3,0.8,0.2,1.1,0c0.8-0.5,0.6-1.7-0.3-1.9c-0.9-0.2-1.4,0.7-1.1,1.4c0.3,0.7,1.3,0.8,1.8,0.2c0.4-0.7,0.1-1.6-0.7-1.7
						c-0.8-0.1-1.5,0.6-1.2,1.4c0.2,0.7,1.3,1,1.9,0.5c0.7-0.7,0.1-1.7-0.8-1.5c-1,0.2-0.8,1.5,0,1.8c0.9,0.4,2-0.5,1.8-1.4
						c-0.2-1-1.6-1.1-2.3-0.6c-0.6,0.5-0.6,1.6,0.1,2.1c0.7,0.4,1.8-0.3,1.6-1.1c-0.2-0.9-1.4-1-1.8-0.3c-0.2,0.4-0.1,1,0.3,1.2
						c0.4,0.2,0.9,0.2,1.2-0.2c0.7-0.8-0.1-1.9-1.1-1.6c-1.1,0.4-0.6,1.9,0.4,2c0.6,0,0.6-0.8,0-0.9c-0.2,0-0.2-0.3,0-0.3
						c0.2,0,0.1,0.2,0,0.2c-0.1,0,0-0.1-0.1,0c0,0,0.1-0.1,0.2-0.1c0,0,0,0.1-0.1,0.2c-0.2,0.1-0.3-0.1-0.3-0.2
						c0-0.3,0.1-0.4,0.4-0.5c0.2,0,0.6,0,0.6,0.2c0,0.2-0.4,0.5-0.6,0.4c-0.1-0.1-0.1-0.1-0.1-0.2c0,0.1,0.1-0.1,0.1-0.1
						c0,0-0.1,0.1-0.2,0.1c-0.1,0-0.1,0-0.2,0c-0.4-0.2,0.2-0.5,0.3-0.3c0.2,0.2-0.3,0.6-0.3,0.2c0-0.1,0.1-0.2,0.2-0.1
						c0.1,0.1,0,0.3-0.2,0.2c0.1,0.1,0.1,0.2,0.2,0.3c0-0.1,0-0.3,0-0.5c0,0,0-0.1,0.1-0.1c0,0-0.1,0,0,0.1c0.1,0-0.1,0-0.1,0
						c-0.1-0.1,0.1-0.2,0.2-0.2C33.8,95.6,33.8,94.7,33.2,94.7L33.2,94.7z"/>
				</g>
			</g>
		</g>
		<g>
			<g>
				<g>
					<path class="st0" d="M41.6,39.4c-0.1-0.1-0.2-0.2-0.4-0.3c-0.4-0.3-1,0.1-0.7,0.5c0,0,0.1-0.1,0.1-0.1c0.1,0,0.3,0,0.4,0
						c0,0-0.1,0-0.1-0.1c0,0.2,0.1,0.5,0.1,0.7c1-1.2,2-2.4,3-3.7c-0.2-0.2-0.5-0.4-0.7-0.5c-0.5,0.9-1.1,1.6-1.9,2.2
						c0.2,0.2,0.5,0.4,0.7,0.5c1-1.6,2.3-3.1,3.7-4.4c-0.2-0.2-0.4-0.4-0.6-0.6c-0.8,0.8-1.5,1.7-2.3,2.5c-0.4,0.4,0.2,1,0.6,0.6
						c1.2-1.3,2.6-2.6,4-3.7c-0.2-0.2-0.4-0.5-0.5-0.7c-0.7,0.8-1.5,1.4-2.4,2c0.2,0.2,0.4,0.5,0.5,0.7c1.1-1,2.2-1.9,3.3-2.8
						c-0.2-0.2-0.4-0.4-0.6-0.6c-0.5,0.5-1.1,0.9-1.7,1.2c0.2,0.2,0.4,0.5,0.5,0.7c1.5-1.2,3.1-2.2,4.9-2.9
						c-0.1-0.3-0.2-0.5-0.3-0.8c-2.1,1.6-3.9,3.6-5.2,5.9c-0.3,0.5,0.5,0.9,0.8,0.4c0.8-1.3,1.7-2.6,2.6-3.9
						c0.3-0.4-0.4-0.9-0.7-0.5c-1.1,1.2-2.2,2.4-3.2,3.7c0.2,0.2,0.5,0.4,0.7,0.5c0.8-1,1.6-2.1,2.4-3.1c0.3-0.4-0.3-0.8-0.7-0.5
						c-1.5,1.4-2.9,3-4,4.8c-0.2,0.4,0.4,0.9,0.7,0.5c1-1.3,2.1-2.6,3.1-3.8c0.4-0.4-0.2-1-0.6-0.6c-1.6,1.5-3.1,3.2-4.6,4.8
						c-0.4,0.4,0.2,1,0.6,0.6c1.1-1.1,2.1-2.3,3.2-3.4c0.4-0.4-0.1-0.9-0.5-0.7c-1.5,0.8-2.7,2-3.5,3.6c-0.2,0.5,0.3,0.9,0.7,0.5
						c1.1-0.9,2.1-2,3.1-3.1c0.4-0.4-0.2-1-0.6-0.6c-1,1.1-2,2.2-2.8,3.5c-0.3,0.4,0.4,0.9,0.7,0.5c1-1.2,1.9-2.4,2.7-3.7
						c-0.2-0.1-0.5-0.3-0.8-0.4c-0.9,1.5-1.6,3-2.3,4.6c-0.2,0.5,0.5,0.7,0.8,0.3c1.1-1.5,2-3,2.9-4.6c-0.3-0.1-0.5-0.2-0.8-0.3
						c-0.7,1.6-1.2,3.2-1.7,4.9c-0.2,0.6,0.6,0.7,0.8,0.2c0.7-1.7,1.2-3.3,1.6-5.1c-0.3-0.1-0.6-0.2-0.8-0.2c-0.3,2-0.7,4-1.2,6
						c-0.1,0.5,0.7,0.8,0.8,0.2c0.5-2.2,1.1-4.3,1.8-6.4c-0.3,0-0.6-0.1-0.9-0.1c-0.1,2.2-0.6,4.3-1.4,6.3c0.3,0.1,0.6,0.2,0.8,0.2
						c0.4-2.3,1-4.5,1.7-6.7c0.2-0.5-0.7-0.8-0.8-0.2c-0.8,2.4-1.3,4.8-1.4,7.3c0.3,0,0.6,0,0.9,0c0.1-1.8,0.2-3.5,0.3-5.3
						c0-0.5-0.8-0.6-0.9-0.1c-0.4,2-0.4,4,0,6.1c0.1,0.5,0.8,0.4,0.9-0.1c0.1-1.7,0-3.3-0.2-5c-0.1-0.6-0.8-0.6-0.9,0
						c-0.1,1.8,0,3.5,0.3,5.3c0.1,0.4,0.8,0.4,0.8,0c0.2-1.4,0.1-2.8-0.5-4.1c-0.2-0.4-0.8-0.2-0.8,0.2c0,1.7,0.3,3.3,0.8,4.9
						c0.2,0.5,0.9,0.4,0.9-0.1c0-1.8,0-3.6-0.1-5.4c0-0.6-0.9-0.6-0.9,0c0,2.1,0.3,4.2,0.7,6.3c0.1,0.5,0.9,0.4,0.9-0.1
						c-0.2-2.3-0.6-4.5-1.4-6.6c-0.1-0.4-0.7-0.4-0.8,0c-0.5,1.6-0.2,3.2,0.1,4.7c0.3-0.1,0.5-0.2,0.8-0.3c-0.7-1.3-1.3-2.5-2-3.8
						c-0.2-0.4-0.9-0.1-0.8,0.3c0.3,1.2,0.8,2.3,1.4,3.4c0.3,0.5,1,0.1,0.8-0.4c-0.5-1.1-1.1-2-1.9-2.9c-0.2-0.3-0.8-0.1-0.8,0.3
						c0.1,1.2,0.5,2.1,1.2,3.1c0.2-0.2,0.4-0.4,0.6-0.6c-0.7-0.8-1.3-1.5-2-2.3c-0.4-0.4-0.9,0.1-0.7,0.5c0.4,1,1,1.8,1.7,2.6
						c0.2-0.2,0.4-0.4,0.6-0.6c-0.7-0.8-1.3-1.6-2-2.4c-0.3-0.4-0.8,0.1-0.7,0.4c0.2,1,0.7,1.9,1.4,2.6c0.4,0.3,1-0.1,0.7-0.5
						c-0.5-0.7-1-1.2-1.7-1.7c-0.3-0.2-0.7,0.1-0.7,0.4c0,0.9,0.4,1.6,1.1,2.1c0.3,0.2,0.8-0.1,0.7-0.5c-0.2-0.5-0.4-0.9-0.8-1.3
						c-0.4-0.4-1,0.2-0.6,0.6c0.6,0.7,1.2,1.3,2,1.9c0.4,0.3,1-0.2,0.6-0.6c-0.4-0.4-0.9-0.8-1.3-1.3c-0.4-0.4-1,0.2-0.6,0.6
						c0.6,0.8,1.4,1.4,2.2,2c0.5,0.3,0.9-0.4,0.4-0.8c-0.7-0.5-1.3-1.1-1.8-1.8c-0.2,0.2-0.5,0.4-0.7,0.5c0.4,0.5,0.8,1.1,1.2,1.6
						c0.2-0.2,0.4-0.4,0.6-0.6c-0.9-0.7-1.7-1.4-2.6-2.2c-0.4-0.3-1,0.1-0.7,0.5c0.2,0.2,0.3,0.4,0.5,0.7c0.4,0.4,1,0.1,0.8-0.4
						C42.1,40.4,41.8,39.9,41.6,39.4c-0.4-0.4-1.1-0.2-0.9,0.3c0.1,0.4,0.3,0.7,0.4,1.1c0.2-0.1,0.5-0.3,0.7-0.4
						c-0.1-0.2-0.3-0.3-0.4-0.5c-0.2,0.2-0.4,0.5-0.5,0.7c0,0,0.1,0,0.1,0.1c-0.1-0.1-0.1-0.2-0.2-0.4c0.1-0.1,0.2-0.1,0.3-0.2
						c-0.4-0.1-0.8,0.5-0.4,0.7c1.7,1.4,3.5,2.9,5.2,4.3c0.4,0.4,1.1-0.2,0.6-0.6c-1.1-1-1.9-2.1-2.6-3.4c-0.2,0.1-0.5,0.3-0.8,0.4
						c0.6,1,1.4,1.8,2.3,2.5c0.3,0.2,0.9,0,0.7-0.4c-0.4-1-0.9-1.8-1.5-2.6c-0.3-0.4-1,0.1-0.7,0.5c0.6,0.8,1.2,1.7,2,2.4
						c0.4,0.4,0.9-0.1,0.7-0.5c-0.3-0.8-0.7-1.5-1.1-2.2c-0.3-0.4-0.9-0.1-0.8,0.3c0.2,1.1,0.7,2.1,1.5,2.9c0.3,0.3,0.9,0,0.7-0.4
						c-0.3-0.7-0.5-1.4-0.8-2.1c-0.2-0.5-1.1-0.3-0.8,0.2c0.4,1,0.8,1.9,1.4,2.8c0.3,0.4,1,0.2,0.8-0.3c-0.3-0.8-0.7-1.6-1-2.4
						c-0.2-0.4-0.9-0.4-0.9,0.1c0.2,1.2,0.6,2.2,1.3,3.2c0.3,0.3,0.9,0,0.7-0.4c-0.3-0.8-0.7-1.6-1-2.4c-0.3,0.1-0.5,0.2-0.8,0.3
						c0.3,0.7,0.7,1.4,1.2,2.1c0.3,0.4,1,0.2,0.8-0.3c-0.2-0.6-0.4-1.2-0.5-1.9c-0.3,0.1-0.5,0.2-0.8,0.3c0.3,0.5,0.5,0.9,0.6,1.4
						c0.3-0.1,0.6-0.2,0.8-0.2c-0.2-0.6-0.5-1.1-0.9-1.7c-0.2-0.3-0.9-0.3-0.8,0.2c0.1,0.9,0.4,1.6,1,2.3c0.4,0.4,1-0.2,0.6-0.6
						c-0.4-0.5-0.8-0.8-1.3-1.2c-0.4-0.3-0.8,0.2-0.6,0.6c0.4,0.7,0.9,1.2,1.5,1.6c0.1-0.2,0.3-0.5,0.4-0.8c-0.5-0.3-1-0.5-1.4-0.8
						c-0.4-0.2-0.8,0.2-0.6,0.6c0.3,0.5,0.7,0.9,1.2,1.2c0.3,0.2,0.7-0.1,0.7-0.5c-0.1-0.5-0.4-0.8-0.9-0.9
						c-0.4-0.1-0.7,0.3-0.5,0.7c0.2,0.4,0.4,0.6,0.8,0.7c0.5,0.2,0.8-0.6,0.2-0.8c-0.1-0.1-0.2-0.2-0.3-0.3
						c-0.2,0.2-0.3,0.4-0.5,0.7c0.1,0.1,0.2,0.2,0.3,0.2c0.2-0.2,0.4-0.3,0.7-0.5c-0.4-0.2-0.6-0.5-0.8-0.9
						c-0.2,0.2-0.4,0.4-0.6,0.6c0.5,0.3,1,0.5,1.4,0.8c0.5,0.3,0.9-0.5,0.4-0.8c-0.5-0.3-0.9-0.8-1.2-1.3c-0.2,0.2-0.4,0.4-0.6,0.6
						c0.4,0.3,0.8,0.6,1.1,1c0.2-0.2,0.4-0.4,0.6-0.6c-0.4-0.5-0.7-1-0.7-1.7c-0.3,0.1-0.5,0.1-0.8,0.2c0.3,0.5,0.6,0.9,0.8,1.4
						c0.2,0.5,1,0.3,0.8-0.2c-0.2-0.6-0.4-1.1-0.7-1.6c-0.3-0.5-0.9-0.1-0.8,0.3c0.1,0.7,0.3,1.3,0.5,1.9c0.3-0.1,0.5-0.2,0.8-0.3
						c-0.5-0.7-0.8-1.3-1.2-2.1c-0.2-0.5-1-0.1-0.8,0.3c0.3,0.8,0.7,1.6,1,2.4c0.2-0.1,0.5-0.3,0.7-0.4c-0.6-0.8-1-1.6-1.1-2.6
						c-0.3,0-0.6,0.1-0.9,0.1c0.3,0.8,0.7,1.6,1,2.4c0.3-0.1,0.5-0.2,0.8-0.3c-0.6-0.8-1-1.6-1.4-2.6c-0.3,0.1-0.6,0.2-0.8,0.2
						c0.3,0.7,0.5,1.4,0.8,2.1c0.2-0.1,0.5-0.3,0.7-0.4c-0.7-0.7-1.1-1.5-1.3-2.5c-0.3,0.1-0.5,0.2-0.8,0.3c0.4,0.7,0.8,1.4,1.1,2.2
						c0.2-0.2,0.5-0.4,0.7-0.5c-0.7-0.7-1.2-1.5-1.8-2.2c-0.2,0.2-0.5,0.4-0.7,0.5c0.6,0.7,1,1.4,1.3,2.2c0.2-0.1,0.5-0.3,0.7-0.4
						c-0.8-0.7-1.5-1.4-2.1-2.3c-0.3-0.5-1-0.1-0.8,0.4c0.7,1.4,1.6,2.5,2.7,3.5c0.2-0.2,0.4-0.4,0.6-0.6c-1.8-1.4-3.5-2.8-5.2-4.3
						c-0.1,0.2-0.3,0.5-0.4,0.7c0.7,0.2,1.1-0.7,0.5-1.1c-0.4-0.3-0.8,0.3-0.5,0.7c0.1,0.2,0.3,0.3,0.4,0.5c0.3,0.3,0.9,0,0.7-0.4
						c-0.1-0.4-0.3-0.7-0.4-1.1c-0.3,0.1-0.5,0.2-0.8,0.3c0.4,0.5,0.6,1,0.9,1.6c0.2-0.1,0.5-0.3,0.8-0.4c-0.2-0.2-0.3-0.4-0.5-0.7
						c-0.2,0.2-0.5,0.4-0.7,0.5c0.8,0.8,1.7,1.5,2.6,2.2c0.5,0.4,1-0.2,0.6-0.6c-0.4-0.5-0.8-1.1-1.2-1.6c-0.3-0.4-1,0.1-0.7,0.5
						c0.6,0.8,1.3,1.5,2.1,2.1c0.1-0.2,0.3-0.5,0.4-0.8c-0.8-0.5-1.4-1.1-2-1.8c-0.2,0.2-0.4,0.4-0.6,0.6c0.4,0.4,0.9,0.8,1.3,1.3
						c0.2-0.2,0.4-0.4,0.6-0.6c-0.7-0.6-1.4-1.2-2-1.9c-0.2,0.2-0.4,0.4-0.6,0.6c0.3,0.3,0.4,0.5,0.5,0.9c0.2-0.2,0.4-0.3,0.7-0.5
						c-0.5-0.3-0.7-0.8-0.7-1.3c-0.2,0.1-0.4,0.2-0.7,0.4c0.5,0.4,1,0.8,1.4,1.4c0.2-0.2,0.5-0.4,0.7-0.5c-0.7-0.6-1-1.4-1.2-2.2
						c-0.2,0.1-0.5,0.3-0.7,0.4c0.7,0.8,1.3,1.6,2,2.4c0.4,0.4,1-0.2,0.6-0.6c-0.6-0.8-1.1-1.6-1.5-2.5c-0.2,0.2-0.5,0.4-0.7,0.5
						c0.7,0.8,1.3,1.5,2,2.3c0.4,0.4,1-0.2,0.6-0.6c-0.5-0.7-0.9-1.5-1-2.4c-0.2,0.1-0.5,0.2-0.8,0.3c0.7,0.8,1.3,1.8,1.7,2.7
						c0.2-0.1,0.5-0.3,0.8-0.4c-0.6-1-1-2.1-1.4-3.2c-0.3,0.1-0.5,0.2-0.8,0.3c0.7,1.3,1.3,2.5,2,3.8c0.2,0.5,0.9,0.1,0.8-0.3
						c-0.3-1.4-0.6-2.8-0.1-4.3c-0.3,0-0.6,0-0.8,0c0.8,2.1,1.2,4.2,1.4,6.4c0.3,0,0.6-0.1,0.9-0.1c-0.4-2-0.6-4-0.7-6.1
						c-0.3,0-0.6,0-0.9,0c0.1,1.8,0.1,3.6,0.1,5.4c0.3,0,0.6-0.1,0.9-0.1c-0.5-1.5-0.8-3.1-0.8-4.7c-0.3,0.1-0.5,0.1-0.8,0.2
						c0.5,1.1,0.7,2.2,0.5,3.4c0.3,0,0.6,0,0.8,0c-0.3-1.7-0.3-3.3-0.2-5c-0.3,0-0.6,0-0.9,0c0.2,1.7,0.2,3.3,0.2,5
						c0.3,0,0.6-0.1,0.9-0.1c-0.3-1.9-0.3-3.7,0-5.6c-0.3,0-0.6-0.1-0.9-0.1c-0.1,1.8-0.2,3.5-0.3,5.3c0,0.6,0.8,0.6,0.9,0
						c0.2-2.4,0.7-4.8,1.4-7c-0.3-0.1-0.6-0.2-0.8-0.2c-0.7,2.2-1.3,4.4-1.7,6.7C45,41.3,45.8,41.5,46,41c0.8-2.1,1.3-4.3,1.4-6.5
						c0-0.5-0.7-0.6-0.9-0.1c-0.7,2.1-1.3,4.2-1.8,6.4c0.3,0.1,0.6,0.2,0.8,0.2c0.5-2,0.9-4,1.2-6c0.1-0.5-0.7-0.8-0.8-0.2
						c-0.4,1.7-0.9,3.4-1.6,5.1c0.3,0.1,0.6,0.2,0.8,0.2c0.4-1.7,1-3.3,1.7-4.9c0.2-0.5-0.6-0.8-0.8-0.3c-0.9,1.6-1.8,3.2-2.9,4.6
						c0.3,0.1,0.5,0.2,0.8,0.3c0.6-1.5,1.4-3,2.2-4.4c0.3-0.5-0.5-0.9-0.8-0.4c-0.8,1.2-1.6,2.4-2.6,3.5c0.2,0.2,0.5,0.4,0.7,0.5
						c0.8-1.2,1.6-2.3,2.6-3.3c-0.2-0.2-0.4-0.4-0.6-0.6c-1,1.1-2,2.1-3.1,3.1c0.2,0.2,0.5,0.4,0.7,0.5c0.7-1.4,1.8-2.6,3.2-3.3
						c-0.2-0.2-0.4-0.5-0.5-0.7c-1.1,1.1-2.1,2.3-3.2,3.4c0.2,0.2,0.4,0.4,0.6,0.6c1.4-1.7,3-3.3,4.6-4.8c-0.2-0.2-0.4-0.4-0.6-0.6
						c-1,1.3-2.1,2.6-3.1,3.8c0.2,0.2,0.5,0.4,0.7,0.5c1.1-1.7,2.4-3.3,3.9-4.7c-0.2-0.2-0.5-0.4-0.7-0.5c-0.8,1-1.6,2.1-2.4,3.1
						c-0.3,0.4,0.4,0.9,0.7,0.5c1-1.3,2-2.5,3.2-3.7c-0.2-0.2-0.5-0.4-0.7-0.5c-0.9,1.3-1.8,2.6-2.6,3.9c0.2,0.1,0.5,0.3,0.8,0.4
						c1.3-2.1,2.9-4,4.9-5.5c0.4-0.3,0.2-1-0.3-0.8c-1.9,0.8-3.7,1.8-5.3,3.1c-0.4,0.3,0.1,0.9,0.5,0.7c0.7-0.4,1.3-0.8,1.9-1.3
						c0.4-0.4-0.2-1-0.6-0.6c-1.1,1-2.2,1.9-3.3,2.8c-0.4,0.3,0.1,0.9,0.5,0.7c1-0.5,1.8-1.2,2.6-2.1c0.3-0.4-0.1-1-0.5-0.7
						c-1.5,1.2-2.9,2.4-4.2,3.8c0.2,0.2,0.4,0.4,0.6,0.6c0.8-0.8,1.5-1.7,2.3-2.5c0.4-0.4-0.2-1-0.6-0.6c-1.5,1.3-2.8,2.9-3.8,4.6
						c-0.3,0.4,0.3,0.8,0.7,0.5c0.8-0.7,1.5-1.5,2.1-2.4c0.2-0.4-0.4-0.9-0.7-0.5c-1,1.2-2,2.4-3,3.7c-0.2,0.2-0.2,0.6,0.1,0.7
						c0.8,0.3,1.1-0.5,0.8-1.1c-0.2,0.2-0.5,0.4-0.7,0.5c0.1,0.1,0.2,0.2,0.4,0.3C41.4,40.4,42,39.7,41.6,39.4L41.6,39.4z"/>
				</g>
			</g>
		</g>
		<g>
			<g>
				<g>
					<path class="st0" d="M46.7,33.6c-0.2,0.9-0.5,1.7-1,2.5c0.2,0.1,0.5,0.3,0.8,0.4c0.5-0.9,1-1.7,1.5-2.6
						c-0.3-0.1-0.5-0.2-0.8-0.3c-0.2,0.8-0.4,1.5-0.8,2.3c0.3,0.1,0.5,0.2,0.8,0.3c0.2-0.7,0.6-1.4,1-2c-0.3-0.1-0.5-0.2-0.8-0.3
						c-0.1,0.6-0.3,1.1-0.6,1.7c0.3,0.1,0.5,0.1,0.8,0.2c0,0,0,0-0.1,0.1c0.5-0.2,0.3-1.1-0.2-0.8c-0.4,0.2-0.5,0.4-0.6,0.8
						c0,0.4,0.6,0.6,0.8,0.2c0.3-0.6,0.5-1.2,0.7-1.9c0.1-0.5-0.5-0.8-0.8-0.3c-0.5,0.7-0.8,1.4-1.1,2.2c-0.2,0.5,0.6,0.8,0.8,0.3
						c0.4-0.8,0.7-1.6,0.9-2.5c0.1-0.5-0.5-0.8-0.8-0.3c-0.5,0.9-1,1.7-1.5,2.6c-0.3,0.5,0.5,0.9,0.8,0.4c0.5-0.8,0.8-1.7,1.1-2.7
						C47.7,33.3,46.8,33,46.7,33.6L46.7,33.6z"/>
				</g>
			</g>
		</g>
		<g>
			<g>
				<g>
					<path class="st0" d="M46.3,42.2c0.5,1.2,1.1,2.4,1.8,3.4c0.3,0.5,1,0.1,0.8-0.4c-0.3-0.6-0.7-1.2-1.2-1.7
						c-0.3-0.3-0.9,0-0.7,0.4c0.3,0.9,0.8,1.6,1.6,2.2c0.4,0.3,0.8-0.3,0.5-0.7c-0.4-0.4-0.8-0.7-1.3-1c-0.5-0.3-0.8,0.3-0.5,0.7
						c0.3,0.4,0.7,0.7,1.1,1c0.5,0.3,0.9-0.4,0.4-0.8c-0.2-0.2-0.4-0.3-0.6-0.5c-0.4-0.3-0.9,0.4-0.5,0.7c0.4,0.3,0.8,0.7,1.2,1
						c0.4,0.4,1-0.2,0.6-0.6c-0.2-0.2-0.4-0.4-0.6-0.7c-0.4-0.4-1,0.1-0.7,0.5c0.3,0.5,0.6,0.8,1,1.1c0.4,0.3,0.9-0.3,0.5-0.7
						c-0.7-0.7-1.4-1.2-2.3-1.6c-0.5-0.2-1,0.5-0.4,0.8c1.1,0.6,2.1,1.2,3.2,1.9c0.5,0.3,0.9-0.4,0.4-0.8c-1-0.7-2.1-1.4-3.2-1.9
						c-0.1,0.2-0.3,0.5-0.4,0.8c0.8,0.4,1.5,0.8,2.1,1.4c0.2-0.2,0.4-0.5,0.5-0.7c-0.3-0.2-0.5-0.5-0.7-0.8
						c-0.2,0.2-0.5,0.4-0.7,0.5c0.2,0.2,0.4,0.4,0.6,0.7c0.2-0.2,0.4-0.4,0.6-0.6c-0.4-0.3-0.8-0.7-1.2-1c-0.2,0.2-0.4,0.5-0.5,0.7
						c0.2,0.2,0.4,0.3,0.6,0.5c0.1-0.2,0.3-0.5,0.4-0.8c-0.4-0.3-0.7-0.5-1-0.9c-0.2,0.2-0.4,0.5-0.5,0.7c0.4,0.2,0.8,0.5,1.1,0.9
						c0.2-0.2,0.4-0.5,0.5-0.7c-0.6-0.4-1-1-1.2-1.7c-0.2,0.1-0.5,0.3-0.7,0.4c0.4,0.5,0.8,1,1.1,1.5c0.2-0.1,0.5-0.3,0.8-0.4
						c-0.7-1-1.2-2.1-1.7-3.2C46.9,41.5,46.1,41.7,46.3,42.2L46.3,42.2z"/>
				</g>
			</g>
		</g>
		<g>
			<g>
				<g>
					<path class="st0" d="M48.9,46.7c0.4,0.7,1,1.1,1.7,1.1c0.2,0,0.4-0.2,0.4-0.4c0-0.3-0.2-0.4-0.4-0.4c-0.4-0.1-0.8-0.3-1-0.7
						C49.4,45.7,48.6,46.2,48.9,46.7L48.9,46.7z"/>
				</g>
			</g>
		</g>
		<g>
			<g>
				<g>
					<path class="st0" d="M44.6,37.4c1-1.1,1.9-2.3,2.9-3.4c0.4-0.4-0.2-1-0.6-0.6c-1.2,1.2-2.3,2.6-3.1,4.1
						c-0.3,0.5,0.5,0.9,0.8,0.4c0.8-1.4,1.8-2.7,3-3.9c-0.2-0.2-0.4-0.4-0.6-0.6c-1,1.1-1.9,2.3-2.9,3.4
						C43.6,37.2,44.2,37.8,44.6,37.4L44.6,37.4z"/>
				</g>
			</g>
		</g>
		<g>
			<g>
				<g>
					<path class="st0" d="M93,40.5c-0.3,0.4-0.5,0.8-0.7,1.3c-0.2,0.5,0.6,0.8,0.8,0.3c0.2-0.5,0.5-0.9,0.7-1.4
						c-0.2-0.1-0.5-0.3-0.8-0.4c-0.2,0.4-0.4,0.8-0.6,1.2c-0.2,0.5,0.5,1,0.8,0.4c0.1-0.3,0.3-0.6,0.4-0.9
						C93.9,40.7,93.4,40.3,93,40.5c-0.3,0.3-0.5,0.6-0.7,1c0.3,0.1,0.5,0.2,0.8,0.3c0.2-0.8,0.4-1.5,0.4-2.3c0-0.5-0.8-0.6-0.9-0.1
						c-0.1,0.6-0.2,1.2-0.3,1.7c0.3,0,0.6,0.1,0.9,0.1c0.1-0.8,0.2-1.5,0.3-2.3c-0.3,0-0.6-0.1-0.9-0.1c-0.1,1-0.2,2.1-0.3,3.1
						c-0.1,0.6,0.8,0.6,0.9,0c0.1-1,0.2-2.1,0.3-3.1c0.1-0.5-0.8-0.6-0.9-0.1c-0.2,0.8-0.3,1.7-0.3,2.5c0,0.5,0.8,0.6,0.9,0.1
						c0.1-0.6,0.2-1.2,0.3-1.7c-0.3,0-0.6-0.1-0.9-0.1c0,0.7-0.2,1.4-0.4,2.1c-0.2,0.5,0.6,0.8,0.8,0.3c0.2-0.3,0.4-0.5,0.6-0.7
						c-0.2-0.2-0.5-0.4-0.7-0.5c-0.1,0.3-0.3,0.6-0.4,0.9c0.2,0.1,0.5,0.3,0.8,0.4c0.2-0.4,0.4-0.8,0.6-1.2c0.2-0.5-0.5-1-0.8-0.4
						c-0.2,0.5-0.5,0.9-0.7,1.4c0.3,0.1,0.5,0.2,0.8,0.3c0.1-0.3,0.2-0.6,0.5-0.9C94,40.7,93.4,40.1,93,40.5L93,40.5z"/>
				</g>
			</g>
		</g>
		<g>
			<g>
				<g>
					<path class="st0" d="M93.3,40.4c0.2-0.9,0.2-1.8-0.1-2.7c-0.2-0.6-0.9-0.3-0.8,0.2c0.1,0.5,0.2,1.1,0.2,1.6
						c0.1,0.5,0.9,0.4,0.9-0.1c0-1.2-0.2-2.4-0.7-3.6c-0.2,0.1-0.5,0.3-0.8,0.4c1.3,1.7,2.6,3.5,3.8,5.2c0.2-0.2,0.4-0.4,0.6-0.6
						c-1-0.5-1.8-1.1-2.5-2c-0.2-0.2-0.7-0.1-0.7,0.2c-0.1,0.7-0.1,1.4,0,2c0.1,0.5,0.9,0.4,0.9-0.1c0-0.4,0-0.8,0-1.2
						c0-0.6-0.8-0.5-0.9,0c-0.1,0.6-0.1,1.2-0.2,1.9c0,0.3,0.4,0.5,0.7,0.4c0,0,0.1,0,0.1-0.1c0.1-0.1,0.2-0.2,0.2-0.4
						c0-0.3-0.1-0.4-0.3-0.6c-0.1-0.1-0.3-0.1-0.4,0c-0.6,0.3-1,1.3-1.3,1.8c0.3,0.1,0.5,0.2,0.8,0.3c0.2-0.8,0.6-1.6,1-2.4
						c0.2-0.5-0.3-0.9-0.7-0.5C92,41.1,91.4,42,91,43c-0.2,0.5,0.5,0.7,0.8,0.3c0.5-0.9,1.1-1.7,1.6-2.6c0.3-0.4-0.4-0.9-0.7-0.5
						c-0.7,0.9-1.3,1.9-1.8,2.9c-0.2,0.5,0.5,0.9,0.8,0.4c0.9-1.4,1.5-3,1.9-4.6c0.1-0.5-0.7-0.8-0.8-0.2c-0.3,1.2-0.6,2.3-1.1,3.4
						c0.3,0,0.6,0.1,0.9,0.1c0.1-0.9,0.4-1.7,0.8-2.4c-0.3-0.1-0.5-0.1-0.8-0.2c-0.1,1.3-0.6,2.4-1.3,3.5c-0.3,0.4,0.4,0.9,0.7,0.5
						c0.3-0.4,0.7-0.8,1-1.2c-0.2-0.2-0.5-0.4-0.7-0.5c-0.5,0.7-1,1.4-1.6,2.1c0.2,0.1,0.5,0.3,0.8,0.4c0.1-0.2,0.2-0.4,0.4-0.5
						c-0.2-0.2-0.4-0.4-0.6-0.6c-0.8,0.9-1.6,1.8-2.5,2.6c0.2,0.2,0.4,0.4,0.6,0.6c1.5-1.3,3-2.6,4.5-3.9c-0.2-0.2-0.5-0.4-0.7-0.5
						c-0.3,0.4-0.7,0.8-1.1,1.1c0.2,0.2,0.4,0.5,0.5,0.7c0.8-0.7,1.6-1.5,2.3-2.3c-0.2-0.2-0.4-0.4-0.6-0.6
						c-0.5,0.6-1.1,1.1-1.7,1.5c0.2,0.2,0.4,0.3,0.7,0.5c0.2-0.7,0.7-1.3,1.2-1.8c-0.2-0.1-0.5-0.1-0.7-0.2c0.1,0.4,0.4,0.6,0.9,0.5
						c-0.2-0.2-0.4-0.4-0.5-0.5c-0.1,0.4-0.3,0.7-0.4,1c-0.2,0.5,0.7,0.8,0.8,0.2c0.1-0.4,0.3-0.7,0.4-1c0.1-0.3-0.2-0.6-0.5-0.5
						c0.1,0.1,0.1,0.1,0.2,0.1c-0.1-0.3-0.5-0.4-0.7-0.2c-0.7,0.6-1.1,1.3-1.4,2.1c-0.1,0.4,0.3,0.7,0.7,0.5c0.7-0.5,1.3-1,1.9-1.6
						c0.4-0.4-0.2-1-0.6-0.6c-0.7,0.8-1.5,1.6-2.3,2.3c-0.4,0.3,0.1,1,0.5,0.7c0.6-0.4,1-0.8,1.4-1.4c0.3-0.4-0.3-0.8-0.7-0.5
						c-1.5,1.3-3,2.6-4.5,3.9c-0.4,0.4,0.2,1,0.6,0.6c0.9-0.8,1.7-1.6,2.5-2.6c0.4-0.4-0.2-1-0.6-0.6c-0.3,0.2-0.4,0.4-0.6,0.7
						c-0.3,0.5,0.4,0.9,0.8,0.4c0.5-0.7,1-1.4,1.6-2.1c0.3-0.4-0.4-0.9-0.7-0.5c-0.3,0.4-0.7,0.8-1,1.2c0.2,0.2,0.5,0.4,0.7,0.5
						c0.8-1.2,1.3-2.5,1.5-3.9c0.1-0.5-0.6-0.6-0.8-0.2c-0.5,0.9-0.8,1.8-0.9,2.9c-0.1,0.5,0.7,0.5,0.9,0.1c0.4-1.1,0.8-2.3,1.1-3.4
						c-0.3-0.1-0.6-0.2-0.8-0.2c-0.4,1.6-1,3-1.8,4.4c0.2,0.1,0.5,0.3,0.8,0.4c0.5-1,1-1.9,1.7-2.8c-0.2-0.2-0.5-0.4-0.7-0.5
						c-0.5,0.9-1.1,1.7-1.6,2.6c0.3,0.1,0.5,0.2,0.8,0.3c0.4-0.9,0.9-1.7,1.6-2.3c-0.2-0.2-0.5-0.4-0.7-0.5
						c-0.4,0.8-0.8,1.7-1.1,2.6c-0.1,0.5,0.6,0.8,0.8,0.3c0.2-0.4,0.6-1.3,1-1.5c-0.1,0-0.3,0-0.4,0c0,0,0.1,0.1,0.1,0.1
						c-0.1-0.1-0.1-0.2-0.2-0.4c0,0,0,0.1,0,0.1c0.1-0.1,0.1-0.2,0.2-0.4c0,0-0.1,0-0.1,0.1c0.2,0.1,0.4,0.2,0.7,0.4
						c0.1-0.6,0.1-1.2,0.2-1.9c-0.3,0-0.6,0-0.9,0c0,0.4,0,0.8,0,1.2c0.3,0,0.6-0.1,0.9-0.1c-0.1-0.5-0.1-1,0-1.6
						c-0.2,0.1-0.5,0.1-0.7,0.2c0.7,0.9,1.6,1.6,2.7,2.1c0.4,0.2,0.9-0.2,0.6-0.6c-1.3-1.7-2.6-3.5-3.8-5.2c-0.3-0.5-1-0.1-0.8,0.4
						c0.4,1,0.6,2,0.6,3.1c0.3,0,0.6-0.1,0.9-0.1c-0.1-0.5-0.2-1.1-0.2-1.6c-0.3,0.1-0.6,0.2-0.8,0.2c0.2,0.7,0.3,1.4,0.1,2.2
						C92.3,40.7,93.1,40.9,93.3,40.4L93.3,40.4z"/>
				</g>
			</g>
		</g>
		<g>
			<g>
				<g>
					<path class="st0" d="M94.6,39c0,0,0-0.1,0-0.1c0-0.1,0-0.3-0.1-0.4c-0.2-0.2-0.4-0.2-0.7-0.2c-0.2,0-0.3,0.2-0.3,0.3
						c-0.1,0.3,0.1,0.6,0,0.9c0.3,0,0.5-0.1,0.8-0.1c-0.3-0.5-0.6-1-0.9-1.4c-0.2-0.4-1-0.1-0.8,0.3c0.1,0.4,0.2,0.7,0.3,1.1
						c0.1,0.5,0.9,0.4,0.9-0.1c0-0.4,0-0.7-0.1-1.1c0-0.5-0.7-0.6-0.9-0.1c-0.2,0.7-0.3,1.3-0.5,2c0.3,0,0.5-0.1,0.8-0.1
						C93,39.7,93,39.5,93,39.2c-0.3,0-0.6,0-0.9,0c0,0.4,0,0.7,0,1.1c0,0.6,0.8,0.6,0.9,0c0-0.2,0-0.4,0-0.6c-0.3,0-0.6,0-0.9,0
						c0.1,0.9,0.2,1.8,0.3,2.6c0.1,0.6,1,0.6,0.9,0c-0.1-0.9-0.2-1.8-0.3-2.6c-0.1-0.5-0.8-0.6-0.9,0c0,0.2,0,0.4,0,0.6
						c0.3,0,0.6,0,0.9,0c0-0.4,0-0.7,0-1.1c0-0.6-0.8-0.5-0.9,0c0,0.4,0.1,0.8,0.3,1.1c0.2,0.3,0.7,0.3,0.8-0.1
						c0.2-0.7,0.3-1.3,0.5-2c-0.3,0-0.6-0.1-0.9-0.1c0,0.4,0,0.7,0.1,1.1c0.3,0,0.6-0.1,0.9-0.1c-0.1-0.4-0.2-0.7-0.3-1.1
						c-0.3,0.1-0.5,0.2-0.8,0.3c0.3,0.5,0.6,1,0.9,1.4c0.2,0.3,0.7,0.3,0.8-0.1c0.1-0.3-0.1-0.6,0-0.9c-0.1,0.1-0.2,0.2-0.3,0.3
						c0.1,0,0.1,0,0.1,0c-0.1,0-0.3-0.1-0.4-0.1c0,0,0.1,0.1,0.1,0.1c0-0.1-0.1-0.3-0.1-0.4c0,0,0,0.1,0,0.1
						C93.6,39.4,94.4,39.6,94.6,39L94.6,39z"/>
				</g>
			</g>
		</g>
		<g>
			<g>
				<g>
					<path class="st0" d="M91.1,45.1c1.4-1,2.9-1.8,4.6-2.4c-0.1-0.3-0.2-0.5-0.3-0.8c-1.4,0.6-2.7,1.2-4.1,1.9
						c-0.5,0.2-0.1,1,0.4,0.8c1.4-0.6,2.8-1.2,4.3-1.6c0.5-0.2,0.3-1-0.2-0.8c-0.7,0.1-1.4,0.3-2.1,0.4c0.1,0.3,0.2,0.5,0.3,0.8
						c0.5-0.4,1-0.8,1.5-1.3c0.3-0.4,0-0.8-0.4-0.7c-0.2,0-0.3,0-0.5,0c0.1,0.2,0.2,0.4,0.4,0.7c0.1-0.1,0.2-0.2,0.3-0.4
						c-0.2-0.1-0.4-0.2-0.7-0.4c0,0.2,0.1,0.5,0.1,0.8c0,0.3,0.3,0.5,0.6,0.4c0.4-0.1,0.6-0.2,0.9-0.4c-0.2-0.2-0.4-0.3-0.7-0.5
						c-0.1,0.3-0.1,0.6-0.1,0.9c0,0.2,0.3,0.5,0.6,0.4c0.5-0.2,1-0.9,0.3-1.2c-0.1-0.1-0.3-0.1-0.4,0c0,0-0.1,0-0.1,0.1
						c-0.3,0.2-0.3,0.8,0.2,0.8c0.4,0,0.8,0,1.2,0c0.3,0,0.5-0.4,0.4-0.7c-0.3-0.6-1.1-0.7-1.5-0.2c-0.2,0.2-0.2,0.5,0.1,0.7
						c0.5,0.3,0.8,0.3,1.4,0.2c0.5-0.1,0.4-0.8-0.1-0.9c-0.4,0-0.8,0-1.2,0.1c-0.3,0.1-0.5,0.5-0.2,0.7c0.4,0.3,0.8,0.4,1.2,0.3
						c-0.1-0.3-0.2-0.6-0.2-0.8c-0.3,0.1-0.7,0.3-1,0.4c0.1,0.3,0.2,0.5,0.3,0.8c0.8-0.5,1.7-0.6,2.6-0.5c0-0.3-0.1-0.6-0.1-0.9
						c-0.7,0.1-1.5,0.2-2.2,0.1c-0.6,0-0.6,0.8,0,0.9c0.8,0.1,1.6,0,2.5-0.2c0.5-0.1,0.3-0.8-0.1-0.9c-1.1-0.1-2.1,0.1-3.1,0.6
						c-0.4,0.2-0.1,1,0.3,0.8c0.3-0.1,0.7-0.3,1-0.4c0.5-0.2,0.3-1-0.2-0.8c-0.1,0-0.3,0-0.4-0.1c-0.1,0.2-0.1,0.5-0.2,0.7
						c0.3-0.1,0.6-0.1,0.9-0.1c0-0.3-0.1-0.6-0.1-0.9c-0.2,0-0.5-0.1-0.7-0.1c0,0.2,0.1,0.5,0.1,0.7c0.1,0,0.1,0,0.1,0
						c0.1-0.2,0.2-0.4,0.4-0.7c-0.4,0-0.8,0-1.2,0c0.1,0.3,0.1,0.5,0.2,0.8c0,0,0.1,0,0.1-0.1c-0.1,0-0.3,0-0.4,0c0,0,0-0.1-0.1-0.1
						c0-0.1,0.1-0.3,0.1-0.4c0,0-0.1,0.1-0.1,0.1c0.2,0.1,0.4,0.3,0.6,0.4c0-0.2,0-0.4,0.1-0.6c0.1-0.4-0.3-0.7-0.7-0.5
						c-0.2,0.2-0.4,0.3-0.7,0.4c0.2,0.1,0.4,0.3,0.6,0.4c0-0.2-0.1-0.5-0.1-0.8c0-0.3-0.4-0.6-0.7-0.4c-0.3,0.2-0.5,0.4-0.6,0.7
						c-0.2,0.3,0.1,0.6,0.4,0.7c0.3,0,0.4,0,0.7,0c-0.1-0.2-0.3-0.5-0.4-0.7c-0.4,0.5-0.8,0.9-1.3,1.2c-0.4,0.3-0.2,0.9,0.3,0.8
						c0.7-0.1,1.4-0.3,2.1-0.4c-0.1-0.3-0.2-0.6-0.2-0.8c-1.5,0.5-3,1.1-4.5,1.7c0.1,0.2,0.3,0.5,0.4,0.8c1.4-0.6,2.7-1.2,4.1-1.9
						c0.5-0.2,0.1-1-0.3-0.8c-1.7,0.6-3.3,1.4-4.8,2.5C90.2,44.6,90.6,45.4,91.1,45.1L91.1,45.1z"/>
				</g>
			</g>
		</g>
		<g>
			<g>
				<g>
					<path class="st0" d="M97.8,42.5c0.3-0.3,0.9-0.4,1.3-0.1c0.4,0.4,1.1-0.3,0.6-0.6c-0.7-0.6-1.8-0.6-2.5,0.1
						C96.8,42.3,97.4,42.9,97.8,42.5L97.8,42.5z"/>
				</g>
			</g>
		</g>
		<g>
			<g>
				<g>
					<path class="st0" d="M95.8,41.8c0.8,0.3,1.6,0.4,2.4,0.4c0-0.3-0.1-0.6-0.1-0.9c-0.5,0.1-1,0-1.4-0.3c-0.1,0.2-0.3,0.5-0.4,0.7
						c0.6,0.2,1.3,0.3,1.9,0.5c0-0.3,0.1-0.6,0.1-0.9c-0.2,0-0.4,0-0.5,0c-0.6,0-0.6,0.9,0,0.9c0.2,0,0.4,0,0.5,0
						c0.5,0,0.6-0.7,0.1-0.9c-0.6-0.2-1.3-0.3-1.9-0.5c-0.4-0.1-0.8,0.4-0.4,0.7c0.6,0.6,1.4,0.8,2.2,0.6c0.5-0.1,0.4-0.9-0.1-0.9
						c-0.8,0-1.5-0.1-2.1-0.4C95.6,40.7,95.3,41.6,95.8,41.8L95.8,41.8z"/>
				</g>
			</g>
		</g>
		<g>
			<g>
				<g>
					<path class="st0" d="M92.3,36c1.6,2.7,3.9,4.9,6.8,6.2c0.5,0.2,1-0.5,0.4-0.8c-2.7-1.2-5-3.3-6.5-5.9
						C92.8,35.1,92.1,35.5,92.3,36L92.3,36z"/>
				</g>
			</g>
		</g>
		<g>
			<g>
				<g>
					<path class="st0" d="M94,37.7c-0.3-0.7-0.6-1.5-0.8-2.2c-0.3,0.1-0.6,0.2-0.8,0.2c0.1,0.2,0.1,0.3,0.2,0.5
						c0.3-0.1,0.5-0.2,0.8-0.3c-0.3-0.6-0.7-1.2-1.1-1.7c-0.4-0.4-1,0.2-0.6,0.6c0.4,0.5,0.7,1,1,1.5c0.2,0.4,1,0.1,0.8-0.3
						c-0.1-0.2-0.1-0.3-0.2-0.5c-0.2-0.5-1.1-0.3-0.8,0.2c0.3,0.7,0.6,1.5,0.8,2.2C93.3,38.5,94.2,38.2,94,37.7L94,37.7z"/>
				</g>
			</g>
		</g>
		<g>
			<g>
				<g>
					<path class="st0" d="M65.5,28.8C65.5,28.8,65.5,28.8,65.5,28.8C65.5,28.8,65.5,28.9,65.5,28.8C65.5,28.8,65.4,28.9,65.5,28.8
						C65.5,28.8,65.4,28.9,65.5,28.8C65.5,28.8,65.4,28.9,65.5,28.8C65.4,28.9,65.5,28.9,65.5,28.8c-0.1,0.1,0,0.1-0.1,0.1
						C65.3,28.9,65.4,28.9,65.5,28.8c-0.2-0.1-0.4-0.2-0.5-0.4c0,0.1,0,0,0-0.1c0,0,0,0,0,0.1c0,0,0.1-0.1,0,0c0,0,0.1-0.1,0,0
						c0,0,0.1,0,0,0c0,0-0.1,0,0,0c0.1,0-0.1,0,0,0c0.1,0,0,0,0,0c-0.2,0-0.5,0.2-0.4,0.4c0,0.2,0.2,0.4,0.4,0.4
						c0.4,0,0.8-0.4,0.8-0.8c0-0.2-0.2-0.4-0.4-0.4c-0.4,0-0.8,0.4-0.8,0.8c0,0.2,0.2,0.5,0.4,0.4C65.3,29.2,65.5,29.1,65.5,28.8
						L65.5,28.8z"/>
				</g>
			</g>
		</g>
		<g>
			<g>
				<g>
					<path class="st0" d="M72.7,28.2c-0.1-0.2-0.3-0.4-0.5-0.4c-0.3,0-0.5,0.2-0.5,0.5c0,0.2,0.2,0.5,0.4,0.5c0.2,0,0.4,0,0.5-0.1
						c-0.1,0.1-0.1,0.1-0.1,0.1c0,0,0.1-0.1,0.1-0.1c0.1-0.1,0.1-0.1,0.1-0.2c0.1-0.2,0.1-0.4-0.1-0.6c-0.2-0.2-0.5-0.2-0.7-0.1
						c-0.2,0.1-0.2,0.4-0.2,0.6c0.1,0.2,0.3,0.4,0.5,0.4c0.2,0,0.5-0.2,0.4-0.4c0-0.3-0.2-0.4-0.4-0.4c0.2,0,0.3,0.1,0.4,0.2
						c0,0.1,0,0.2,0,0.2c0,0,0,0.1-0.1,0.1c-0.2,0.1-0.3,0.2-0.4,0.1c-0.1-0.1-0.2-0.1-0.2-0.2c0,0,0-0.1,0-0.1
						c0.1-0.1,0.1-0.1,0.2-0.2c0,0,0,0-0.1,0c-0.1,0.1,0,0.1,0.3-0.1c0,0,0.1,0,0.1,0c0.2,0.2,0.2,0.4-0.1,0.7
						c-0.2,0-0.4-0.1-0.4-0.2c0.1,0.2,0.3,0.4,0.5,0.3C72.6,28.7,72.8,28.5,72.7,28.2L72.7,28.2z"/>
				</g>
			</g>
		</g>
		<g>
			<g>
				<g>
					<path class="st0" d="M58.5,50.2C58.4,50.3,58.6,50.2,58.5,50.2C58.5,50.2,58.5,50.2,58.5,50.2C58.5,50.2,58.5,50.2,58.5,50.2
						C58.4,50.2,58.5,50.3,58.5,50.2c-0.2-0.1-0.1,0-0.1-0.1c0,0-0.1,0,0,0c0,0,0,0-0.1-0.1c0,0,0,0,0,0c0,0.1,0,0.1,0,0
						c0,0,0,0,0,0c0-0.1,0-0.1,0,0c0,0,0,0,0,0c0,0,0,0,0,0c0,0,0,0,0,0c-0.1,0-0.1,0,0,0c0.1,0-0.1,0,0,0
						C58.4,50.2,58.4,50.2,58.5,50.2C58.5,50.2,58.5,50.2,58.5,50.2C58.5,50.2,58.5,50.2,58.5,50.2C58.5,50.2,58.5,50.2,58.5,50.2
						C58.5,50.2,58.5,50.2,58.5,50.2C58.5,50.2,58.5,50.2,58.5,50.2c0,0,0,0.1,0,0.2c0,0.1,0,0.2,0,0.3c0,0.6,0.9,0.6,0.9,0
						c0-0.3,0.1-0.6-0.1-0.9c-0.1-0.2-0.3-0.4-0.5-0.4c-0.4-0.2-1-0.1-1.2,0.4c-0.6,1,1.1,2,1.7,1C59.5,50.2,58.8,49.8,58.5,50.2
						L58.5,50.2z"/>
				</g>
			</g>
		</g>
		<g>
			<g>
				<g>
					<path class="st0" d="M80.8,49.4C80.8,49.5,80.8,49.5,80.8,49.4C80.8,49.5,80.8,49.4,80.8,49.4C80.9,49.5,80.9,49.4,80.8,49.4
						C80.9,49.5,80.8,49.6,80.8,49.4c-0.2,0.1-0.4,0.1-0.6,0.1c0,0.1,0,0.2,0,0.2c0.2,0.1,0.5,0.2,0.8,0.3c0-0.2,0-0.3-0.1-0.5
						c0-0.2-0.2-0.4-0.4-0.4c-0.2,0-0.5,0.2-0.4,0.4c0,0.2,0,0.3,0.1,0.5s0.1,0.3,0.3,0.4c0.2,0.1,0.4,0,0.5-0.1
						c0.4-0.4,0.4-1,0-1.5c-0.2-0.2-0.6-0.1-0.7,0.1c-0.2,0.4-0.1,0.9,0.3,1.2c0.2,0.1,0.5,0,0.6-0.2C81.1,49.8,81,49.6,80.8,49.4
						L80.8,49.4z"/>
				</g>
			</g>
		</g>
		<g>
			<g>
				<g>
					<path class="st0" d="M84.8,25.4c-0.3-0.1-0.6,0.1-0.7,0.4c-0.1,0.3,0.1,0.7,0.4,0.7c0-0.3,0.1-0.6,0.1-0.9
						c0.2,0,0.3,0.1,0.3,0.2c0,0.1,0,0.1,0,0.2c0,0.1-0.1,0.2-0.2,0.2c-0.1,0.1-0.2,0.1-0.4,0c-0.1-0.2-0.1-0.2-0.1-0.1
						c0-0.1,0-0.3,0.2-0.4c-0.2,0.1-0.3,0.4-0.2,0.6c0.1,0.2,0.4,0.3,0.6,0.2c0.2-0.1,0.3-0.4,0.2-0.6c-0.1-0.3-0.4-0.5-0.7-0.4
						c-0.3,0.1-0.4,0.3-0.4,0.6c0,0.3,0.2,0.5,0.5,0.5c0.2,0,0.4-0.2,0.4-0.4c0-0.2-0.1-0.4-0.3-0.5c0,0,0,0,0,0c0,0,0.1,0,0.1,0
						c0.1,0.1,0.1,0.1,0.1,0.2c0-0.1,0,0.1,0,0.1c0,0,0,0.1,0,0.1c0-0.1,0,0.1,0,0.1c0,0,0-0.1,0,0c-0.1,0.1-0.1,0.1-0.2,0.1
						c0,0-0.1,0-0.1,0c-0.1,0-0.1,0-0.1,0c0.2,0.1,0.5-0.1,0.5-0.3C85.2,25.7,85.1,25.5,84.8,25.4L84.8,25.4z"/>
				</g>
			</g>
		</g>
		<g>
			<g>
				<g>
					<path class="st0" d="M88.9,49.3C88.9,49.3,88.9,49.3,88.9,49.3C89,49.3,89,49.3,88.9,49.3C89,49.3,89,49.3,88.9,49.3
						C88.9,49.3,88.9,49.3,88.9,49.3C89,49.3,89,49.3,88.9,49.3C89,49.3,88.9,49.3,88.9,49.3C89,49.3,89,49.3,88.9,49.3
						C89,49.3,89,49.3,88.9,49.3C89,49.3,89,49.3,88.9,49.3C89,49.3,89,49.3,88.9,49.3C88.9,49.3,88.9,49.3,88.9,49.3
						C88.9,49.3,88.9,49.3,88.9,49.3c-0.2,0-0.4,0-0.5,0c0.1,0,0,0,0,0c0,0,0,0,0,0c0,0,0,0.1,0,0c0,0,0-0.1,0-0.1
						c0,0.1,0-0.1,0-0.1c-0.2,0.2-0.2,0.5,0,0.6c0.3,0.3,0.7,0.2,1,0c0.3-0.2,0.3-0.6,0.1-0.9c-0.5-0.7-1.6,0.1-1.2,0.8
						c0.1,0.2,0.4,0.3,0.6,0.2c0.2-0.1,0.3-0.4,0.2-0.6c0,0.1,0,0.2,0,0.2c0-0.1,0,0.1,0,0c-0.1,0-0.1,0,0,0c-0.1,0-0.1,0,0,0
						c-0.1,0-0.2,0-0.3-0.1c-0.1-0.1-0.1-0.1-0.1-0.2c0-0.1,0-0.1,0,0c0,0,0-0.1,0,0c0,0,0,0,0,0c0,0,0,0,0,0c0.1,0,0.1,0,0.2,0.1
						c0,0.2,0,0.4,0,0.6c0.3-0.3,0.3-0.8,0-1.1c-0.2-0.1-0.4-0.2-0.5-0.1c-0.6,0.4-0.5,1.4,0.2,1.6c0.2,0.1,0.5-0.1,0.5-0.3
						C89.3,49.6,89.2,49.3,88.9,49.3L88.9,49.3z"/>
				</g>
			</g>
		</g>
		<g>
			<g>
				<g>
					<path class="st0" d="M65.4,28.1c-0.3-0.4-0.5-1-0.4-1.5c0.1-0.6,0.7-1.1,1.3-1c0.5,0.1,1,0.6,0.8,1.2c-0.1,0.2-0.3,0.4-0.5,0.4
						c-0.2,0-1-0.2-0.6-0.4c-0.1,0-0.2,0-0.3,0c0.1,0.1,0.3,0.2,0.4,0.3c0.2,0.2,0.5-0.1,0.3-0.3c-0.1-0.1-0.3-0.2-0.4-0.3
						c-0.1-0.1-0.2-0.1-0.3,0c-0.7,0.5,0.1,1.3,0.8,1.2c0.8-0.1,1.3-0.9,1-1.6c-0.4-0.9-1.5-1.1-2.2-0.5c-0.9,0.7-0.8,2-0.2,2.9
						C65.2,28.6,65.6,28.4,65.4,28.1L65.4,28.1z"/>
				</g>
			</g>
		</g>
		<g>
			<g>
				<g>
					<path class="st0" d="M72.5,28.6c0.5-0.5,1-1.2,0.7-2c-0.2-0.6-0.9-0.9-1.4-0.6c-0.5,0.2-0.7,1-0.2,1.3c0.5,0.3,1-0.3,0.6-0.7
						c-0.2-0.2-0.5,0.1-0.3,0.3c-0.2-0.1-0.1-0.4,0.1-0.5c0.1-0.1,0.2-0.1,0.3-0.1c0.3,0,0.5,0.3,0.6,0.6c0.1,0.5-0.2,1-0.6,1.4
						C72,28.5,72.3,28.8,72.5,28.6L72.5,28.6z"/>
				</g>
			</g>
		</g>
		<g>
			<g>
				<g>
					<path class="st0" d="M84.9,25.7c-0.4-0.7-0.8-1.8-0.1-2.5c0.5-0.5,1.5-0.5,1.8,0.2c0-0.1,0-0.1,0-0.2c-0.1,0.2-0.2,0.4-0.4,0.6
						C86.2,23.9,86,24,85.8,24c-0.5-0.1-0.6-0.2-0.2-0.3c0,0.3,0.4,0.4,0.4,0.1c0.1-1-1.5-0.8-1.1,0.2c0.2,0.5,0.7,0.6,1.2,0.4
						c0.4-0.2,1-0.8,0.9-1.2c-0.1-0.4-0.6-0.7-1-0.7c-0.5-0.1-1,0-1.3,0.3c-1,0.7-0.8,2.3-0.2,3.2C84.7,26.2,85.1,25.9,84.9,25.7
						L84.9,25.7z"/>
				</g>
			</g>
		</g>
		<g>
			<g>
				<g>
					<path class="st0" d="M58.6,51.2c0.9-0.4,0.5,1.9,0.4,2.2c-0.2,0.4-0.4,0.7-0.9,0.8c-0.2,0-0.7,0-0.7-0.2
						c0.1-0.5,0.2-0.7,0.2-0.4c0,0.1,0,0.2-0.1,0.3C57.4,54,57.8,54.3,58,54c0.2-0.3,0.5-0.7,0.1-1c-0.2-0.2-0.6-0.2-0.9,0
						c-0.7,0.6,0.2,1.5,1,1.5c1.1-0.1,1.5-1.2,1.6-2.2c0-0.7-0.2-2.2-1.3-1.7C58.2,50.9,58.4,51.3,58.6,51.2L58.6,51.2z"/>
				</g>
			</g>
		</g>
		<g>
			<g>
				<g>
					<path class="st0" d="M79.9,50.3c-0.7,0.3-1.1,1.1-1.1,1.8c0.1,0.7,0.6,1.4,1.3,1.3c0.6-0.1,1.1-0.7,0.7-1.3
						c-0.3-0.4-1-0.4-1.2,0.1c-0.1,0.1,0,0.3,0.1,0.3c0.4,0.1,0.8,0,1-0.4c0.1-0.2-0.2-0.5-0.4-0.2c-0.1,0.2-0.3,0.3-0.5,0.2
						c0,0.1,0.1,0.2,0.1,0.3c0.1-0.3,0.3-0.2,0.4,0.1c0.1,0.2,0.1,0.3-0.1,0.3c-0.1,0.1-0.2,0.2-0.3,0.1c-0.4,0-0.7-0.4-0.7-0.8
						c-0.1-0.6,0.3-1.2,0.8-1.5C80.4,50.5,80.1,50.1,79.9,50.3L79.9,50.3z"/>
				</g>
			</g>
		</g>
		<g>
			<g>
				<g>
					<path class="st0" d="M88.1,49.7c-0.6,0.4-1.2,1-1.2,1.8c0,0.5,0.2,1.1,0.7,1.3c1.1,0.4,2.2-1.3,1.2-2c-0.1,0-0.2-0.1-0.2,0
						c-0.3,0.2-0.5,0.5-0.7,0.9c-0.1,0.3,0.3,0.4,0.4,0.1c0.1-0.2,0.2-0.4,0.5-0.6c-0.1,0-0.1,0-0.2,0c0.8,0.5-0.8,2.1-1.2,0.7
						c-0.2-0.8,0.6-1.4,1.1-1.8C88.7,49.8,88.4,49.5,88.1,49.7L88.1,49.7z"/>
				</g>
			</g>
		</g>
		<g>
			<g>
				<g>
					<path class="st0" d="M111.6,45.1c0.2-0.2,0.2-0.5,0.1-0.7c-0.1-0.2-0.4-0.3-0.7-0.3c-0.2,0.1-0.4,0.3-0.4,0.6
						c0,0.3,0.2,0.5,0.4,0.5c0.2,0.1,0.5-0.1,0.5-0.3c0.1-0.2-0.1-0.5-0.3-0.5c0.1,0,0.2,0.1,0.2,0.2c0,0,0,0.1,0,0c0,0,0,0.1,0,0.1
						c0-0.1,0,0.1,0,0.1c0,0,0,0.1,0,0c0-0.1,0,0-0.1,0.1c-0.1,0.1-0.3,0.1-0.4-0.1c0,0,0,0,0,0c0,0,0-0.1,0-0.1
						c0-0.1,0-0.2,0.1-0.3c-0.2,0.2-0.2,0.5,0,0.6C111.1,45.2,111.4,45.3,111.6,45.1L111.6,45.1z"/>
				</g>
			</g>
		</g>
		<g>
			<g>
				<g>
					<path class="st0" d="M29.3,44.9c0.1,0.1,0.1,0.2,0,0.2c0,0.1,0,0.1-0.1,0.1c0,0,0,0,0,0c-0.1,0.1-0.1,0.1-0.1,0
						c0,0-0.1,0-0.1,0c-0.1,0-0.1,0-0.2,0c-0.1,0-0.2-0.1-0.2-0.2c-0.1-0.1-0.1-0.2,0-0.3c0,0,0-0.1,0.1-0.1c0,0,0,0,0,0
						c0,0,0,0,0,0c0,0,0.1,0,0.1,0c0,0,0.1,0,0.1,0c0.1,0.1,0.2,0.1,0.1,0.1c-0.2-0.2-0.5-0.2-0.6,0c-0.2,0.2-0.2,0.4,0,0.6
						c0.2,0.2,0.5,0.2,0.8,0c0.2-0.2,0.3-0.5,0.1-0.8c-0.2-0.2-0.5-0.3-0.7-0.1c-0.2,0.2-0.4,0.5-0.2,0.8c0.1,0.2,0.4,0.3,0.6,0.2
						C29.4,45.4,29.5,45.1,29.3,44.9L29.3,44.9z"/>
				</g>
			</g>
		</g>
	</g>
</g>
<g id="Layer_3_2_">
</g>
</svg>
