<?xml version="1.0" encoding="utf-8"?>
<!-- Generator: Adobe Illustrator 24.0.1, SVG Export Plug-In . SVG Version: 6.00 Build 0)  -->
<svg version="1.1" id="Layer_1" xmlns="http://www.w3.org/2000/svg" xmlns:xlink="http://www.w3.org/1999/xlink" x="0px" y="0px"
	 viewBox="0 0 141.7 141.7" style="enable-background:new 0 0 141.7 141.7;" xml:space="preserve">
<style type="text/css">
	.st0{fill:#070707;}
	.st1{fill:#FFFFFF;}
</style>
<g id="Layer_1_1_">
</g>
<g id="Layer_1_2_">
</g>
<g id="Layer_1_3_">
</g>
<g id="Layer_1_4_">
</g>
<g id="Layer_1_5_">
</g>
<g id="Layer_3">
</g>
<g id="Layer_3_1_">
</g>
<g>
	<g>
		<path class="st0" d="M83.4,88.4c-0.2,1.7-0.1,3.6-1.2,5c-0.2,0.3,0.3,0.6,0.5,0.3c1.1-1.6,1-3.5,1.3-5.3C84,88,83.4,88,83.4,88.4
			L83.4,88.4z"/>
	</g>
</g>
<g>
	<g>
		<path class="st0" d="M25,114c-1.6-0.5-3.8-0.3-4.2,1.6c-0.6,2.8,4.2,2.3,5.7,2.6c0.2,0,0.3-0.2,0.1-0.3c-1.6-0.3-3.3,0-4.8-0.9
			c-1.7-1-0.2-2.7,1-3c0.7-0.2,1.5-0.1,2.2,0.2C25.1,114.3,25.2,114,25,114L25,114z"/>
	</g>
</g>
<g>
	<g>
		<g>
			<path class="st0" d="M76.1,121.5c0.5,1.5,0.2,3.6-1.7,3.7c-1.9,0.2-2.7-2.2-3.1-3.6c-0.5-1.7-0.8-3.9,0.9-5
				c2.1-1.4,2.3,2.5,1.6,3.6c-0.1,0.2,0.2,0.3,0.3,0.1c0.7-1.2,0.8-4.1-1.1-4.2c-0.9-0.1-1.7,0.8-2,1.4c-0.5,1.1-0.3,2.5,0,3.7
				c0.4,1.8,1.3,4.4,3.6,4.3c2.1,0,2.4-2.6,1.9-4.1C76.3,121.2,76,121.3,76.1,121.5L76.1,121.5z"/>
		</g>
	</g>
	<g>
		<g>
			<path class="st0" d="M72.5,116.3c0.8-0.5,1.6-0.9,2.5-0.3c0.7,0.5,0.9,1.8,1,2.6c0.1,1-0.2,2,0.1,3c0.1,0.2,0.3,0.1,0.3-0.1
				c-0.3-0.9-0.1-1.9-0.1-2.9c0-0.9-0.3-1.8-0.8-2.5c-0.8-1.1-2.2-0.6-3.1,0C72.2,116.2,72.4,116.4,72.5,116.3L72.5,116.3z"/>
		</g>
	</g>
</g>
<g>
	<g>
		<path class="st0" d="M45.9,99c-1.4-0.9-2.8-3.5-4.7-2.2c-1.9,1.3-0.2,4.2,0.7,5.6c0.9,1.4,2.6,4.3,4.6,3c2-1.2-1.5-4.1-2.2-4.8
			c-0.1-0.1-0.4,0-0.2,0.2c0.7,0.8,4.5,4,1.6,4.7c-1.6,0.4-3-2.3-3.7-3.4c-0.9-1.4-2.3-4.1-0.2-5.2c1.4-0.7,2.9,1.8,3.9,2.4
			C45.9,99.3,46,99.1,45.9,99L45.9,99z"/>
	</g>
</g>
<g>
	<g>
		<path class="st0" d="M47.3,104.4c1.8-2,0.3-4.1-1.5-5.5c-0.1-0.1-0.3,0.1-0.2,0.2c1.6,1.3,3.2,3.2,1.4,5.1
			C47,104.3,47.2,104.5,47.3,104.4L47.3,104.4z"/>
	</g>
</g>
<g>
	<g>
		<path class="st0" d="M37.7,61.6c-1.6-0.9-3-2-3.4-3.8c-0.3-1.4,0.3-2.8,1.3-3.8c1.2-1.2,2.9-1.6,4.6-1.7c1.1,0,2.1,0.3,3.1,0.5
			c0.8,0.2,2.8,1,2.9,2.1c0,0.4,0.6,0.4,0.6,0c-0.1-2.1-3.9-3-5.4-3.2c-2.1-0.3-4.1,0.1-5.8,1.4c-1.4,1-2.1,2.7-1.9,4.4
			c0.3,2.1,2,3.5,3.7,4.4C37.7,62.2,38,61.8,37.7,61.6L37.7,61.6z"/>
	</g>
</g>
<g>
	<path class="st0" d="M42.4,57.6c0.3-0.8-0.3-1.8-1.3-2c-1-0.3-2,0.2-2.2,1c-0.3,0.8,0.3,1.8,1.3,2C41.1,59,42.1,58.5,42.4,57.6z"/>
</g>
<g>
	<g>
		<path class="st0" d="M51.7,53.1c0.3-2.1,1.2-4.5,3-5.7c1.1-0.7,2.6-0.5,3.7,0.1c1.4,0.9,1.5,2.8,0.9,4.1c-0.1,0.3,0.4,0.5,0.5,0.1
			c1.1-2.7-0.8-5.9-3.9-5.4c-3,0.5-4.4,3.9-4.8,6.5C51.1,53.3,51.7,53.5,51.7,53.1L51.7,53.1z"/>
		<path class="st0" d="M51.5,53.4C51.5,53.4,51.5,53.4,51.5,53.4c-0.2,0-0.4-0.2-0.4-0.4c0.4-2.8,1.9-6.1,4.8-6.6
			c1.4-0.2,2.6,0.3,3.4,1.3c0.9,1.2,1.1,2.8,0.6,4.2c0,0.1-0.1,0.2-0.2,0.2c-0.1,0-0.2,0-0.3,0c-0.1-0.1-0.2-0.2-0.2-0.4
			c0.6-1.4,0.4-3.2-0.9-4.1c-1.2-0.7-2.6-0.8-3.6-0.1c-0.7,0.5-2.5,1.9-3,5.6C51.8,53.3,51.6,53.4,51.5,53.4z M56.5,46.4
			c-0.2,0-0.4,0-0.6,0c-2.9,0.4-4.4,3.8-4.7,6.5c0,0.2,0.1,0.3,0.3,0.3c0,0,0.2,0,0.2-0.1v0c0.5-3.8,2.3-5.3,3.1-5.7
			c1-0.7,2.5-0.6,3.7,0.1c1.4,0.9,1.5,2.8,0.9,4.2c0,0.1,0,0.1,0,0.1c0,0,0.1,0.1,0.1,0.1c0.1,0,0.3,0,0.3-0.1
			c0.6-1.4,0.4-3-0.5-4.1C58.6,46.9,57.6,46.4,56.5,46.4z"/>
	</g>
</g>
<g>
	<path class="st0" d="M64.1,84.1c-6.2,0-11.2-4.9-11.2-10.9c0-6,5-10.9,11.2-10.9c6.2,0,11.2,4.9,11.2,10.9
		C75.3,79.2,70.3,84.1,64.1,84.1z M64.1,63.1c-5.8,0-10.5,4.6-10.5,10.2c0,5.6,4.7,10.2,10.5,10.2c5.8,0,10.5-4.6,10.5-10.2
		C74.6,67.6,69.9,63.1,64.1,63.1z"/>
</g>
<g>
	<path class="st0" d="M71.2,71.2c-2,0-3.6,1.5-3.6,3.4c0,1.9,1.6,3.4,3.6,3.4c2,0,3.6-1.5,3.6-3.4C74.7,72.8,73.1,71.2,71.2,71.2z
		 M72.6,76.9c-0.5,0-1-0.4-1-1c0-0.5,0.5-1,1-1c0.5,0,1,0.4,1,1C73.6,76.4,73.1,76.9,72.6,76.9z"/>
</g>
<g>
	<g>
		<path class="st0" d="M78.6,76.5c0.1,0,0.2,0,0.4,0c0-0.1,0-0.2-0.1-0.3c-1.9,0.6-4.6,2.2-4.6,4.4c-0.1,2.5,3.1,2.8,4.8,2.6
			c1.3-0.1,2.5-0.5,3.8-0.8c1-0.2,2.4-0.1,3.4-0.6c2.6-1.3-0.5-4.3-1.8-5.2c-0.1-0.1-0.3,0.1-0.1,0.2c0.9,0.6,1.7,1.4,2.2,2.3
			c0.5,0.7,0.5,1.8-0.3,2.3c-0.4,0.3-1.1,0.3-1.6,0.4c-1.6,0.2-3.2,0.7-4.8,0.9c-1.9,0.4-5.1,0.4-5.4-2.2c-0.2-2.1,2.8-3.7,4.4-4.1
			c0.2,0,0.1-0.3-0.1-0.3c-0.1,0-0.2,0-0.4,0C78.3,76.3,78.4,76.6,78.6,76.5L78.6,76.5z"/>
	</g>
</g>
<g>
	<path class="st0" d="M87,75.4c0-1.3-2-2.4-4.5-2.4C80,73,78,74.1,78,75.4s2,2.4,4.5,2.4C85,77.8,87,76.7,87,75.4z"/>
</g>
<g>
	<g>
		<path class="st0" d="M83,82.4c0,1.8,0.9,5.8-1.4,6.7c-1.7,0.7-2.7-1.2-2.8-2.5c-0.1-1.1,0-2.3,0.4-3.4c0-0.2-0.2-0.2-0.3-0.1
			c-0.7,2.2-0.9,6.5,2.4,6.3c2.9-0.1,2-5.3,2-7C83.2,82.2,82.9,82.2,83,82.4L83,82.4z"/>
	</g>
</g>
<g>
	<g>
		<path class="st0" d="M83,88.2c3.1,0.7,1.9-4.4,1.9-6c0-0.2-0.3-0.2-0.3,0c0,1.4,1.2,6.3-1.5,5.7C82.9,87.9,82.8,88.1,83,88.2
			L83,88.2z"/>
	</g>
</g>
<g>
	<path class="st0" d="M90.4,70c-2,0-3.6,1.5-3.6,3.4c0,1.9,1.6,3.4,3.6,3.4c2,0,3.6-1.5,3.6-3.4C93.9,71.5,92.3,70,90.4,70z
		 M91.8,75.6c-0.5,0-1-0.4-1-1s0.5-1,1-1c0.5,0,1,0.4,1,1C92.8,75.2,92.3,75.6,91.8,75.6z"/>
</g>
<g>
	<g>
		<g>
			<path class="st0" d="M83.5,89c-0.6,3.5-2,6.8-4.2,9.6c-0.2,0.3,0.2,0.7,0.4,0.4c2.3-2.9,3.8-6.3,4.4-9.9
				C84.1,88.8,83.5,88.6,83.5,89L83.5,89z"/>
		</g>
	</g>
</g>
<g>
	<g>
		<g>
			<path class="st0" d="M85.1,74c-0.3-7.6-4.6-14.3-11.5-17.6c-3.4-1.6-7.1-2.9-10.7-3.8c-3.9-0.9-7.9-1-11.6,0.6
				c-0.4,0.1,0,0.7,0.3,0.5c3.8-1.6,8-1.3,12-0.3c3.3,0.9,6.7,2.1,9.7,3.5C80,60.1,84.2,66.6,84.5,74C84.5,74.4,85.1,74.4,85.1,74
				L85.1,74z"/>
		</g>
	</g>
</g>
<g>
	<g>
		<g>
			<path class="st0" d="M51.5,52.9C46,54.8,41.1,58,37,62.2c-4.4,4.6-7.2,10-9,16c-0.9,3.2-1.7,6.4-2.5,9.6c-0.8,3.4-1.6,6.8-2,10.3
				c-0.8,6.8,0,13.7,2.8,19.9c1.1,2.4,2.5,4.7,4.5,6.5c2.1,1.9,4.8,3,7.5,3.8c6.9,2,14.1,3.1,21.2,3.1c6.7,0,13.5-1.1,19.6-3.7
				c5.3-2.3,9.8-6.1,10.9-12c1.2-6.4-1.8-12.4-7.4-15.7c-6.4-3.7-14.1-3.2-21.2-2.6c-0.4,0-0.4,0.6,0,0.6c6.2-0.5,12.8-1,18.7,1.4
				c5.5,2.3,9.5,7.1,9.6,13.2c0.2,13.9-17,17.6-27.8,18.1c-6.7,0.3-13.4-0.6-20-2.1c-2.9-0.7-6-1.4-8.7-3c-2.3-1.4-4.1-3.6-5.5-6
				c-3.1-5.5-4.2-12.1-3.9-18.4c0.3-6.5,2.1-12.9,3.7-19.3c1.7-6.5,4.1-12.8,8.6-17.9c4.1-4.8,9.5-8.5,15.5-10.6
				C52,53.4,51.9,52.8,51.5,52.9L51.5,52.9z"/>
		</g>
	</g>
</g>
<g>
	<g>
		<g>
			<path class="st0" d="M90.6,122.3c-1,1.3-2.9,2.1-4.1,0.6c-0.1-0.1-0.2-0.2-0.2-0.3c0,0.1-0.1,0.1-0.2,0.2c0,0.1,0.1,0.2,0.2,0.3
				c1.2,1.8,3.5,0.6,4.5-0.6C90.9,122.3,90.7,122.1,90.6,122.3z"/>
		</g>
		<g>
			<path class="st0" d="M93.4,116.7c-0.4-0.8-1.5-1-2.3-0.9c-0.4,0-0.9,0.2-1.2,0.4c0,0.1-0.1,0.3-0.2,0.4c0,0,0,0,0,0
				c0.9-0.5,1.8-0.8,2.8-0.4c2.4,1-0.9,3.2-2.1,3.3c-0.2,0-0.1,0.3,0,0.3C91.8,119.8,94.3,118.3,93.4,116.7z"/>
		</g>
	</g>
	<g>
		<g>
			<path class="st0" d="M93,116.4c0.9,0.4,1.6,0.8,1.6,1.9c0,0.9-1,1.7-1.6,2.2c-0.8,0.6-1.8,0.9-2.4,1.7c-0.1,0.1,0.1,0.3,0.2,0.2
				c0.6-0.8,1.6-1.1,2.4-1.7c0.7-0.5,1.3-1.2,1.6-2c0.5-1.3-0.7-2.2-1.7-2.6C92.9,116.1,92.8,116.4,93,116.4L93,116.4z"/>
		</g>
	</g>
</g>
<g>
	<g>
		<path class="st0" d="M83.1,63.3c-0.7,0-1.3,0.1-2,0.2c0.1,0.1,0.1,0.2,0.2,0.3c0.6-0.1,1.2-0.1,1.8-0.1c5.9,0,10.7,4.6,10.7,10.4
			c0,5.1-3.8,9.3-8.8,10.2v0.3c5.2-0.9,9.2-5.2,9.2-10.5C94.2,68.1,89.2,63.3,83.1,63.3z"/>
		<path class="st0" d="M84.7,84.8V84l0.2,0c5-0.9,8.6-5,8.6-10c0-5.6-4.7-10.1-10.5-10.1c-0.6,0-1.2,0-1.7,0.1l-0.2,0l-0.1-0.2
			c0-0.1-0.1-0.2-0.1-0.2l-0.3-0.3l0.5-0.1c0.8-0.1,1.4-0.2,2-0.2c3.1,0,5.9,1.2,8.1,3.3c2,2.1,3.2,4.8,3.2,7.6
			c0,5.3-3.9,9.9-9.4,10.8L84.7,84.8z"/>
	</g>
</g>
<g>
	<g>
		<path class="st0" d="M89.6,93.7c-0.3-2.3-4.4-0.3-5.3,0c-0.2,0.1-0.1,0.3,0.1,0.3c1-0.4,5.5-2.5,4.9,0.4c-0.3,1.6-3.4,1.8-4.7,2
			c-0.9,0.1-2.2,0.3-3.2,0c0,0,0,0.1-0.1,0.1c0,0,0,0.1-0.1,0.1c1.2,0.3,2.7,0.1,3.7,0C86.7,96.4,89.9,96,89.6,93.7z"/>
	</g>
</g>
<g>
	<g>
		<path class="st0" d="M89,92.6c-1.1-2.5-3.6-1.9-5.6-0.9l0,0c0,0.1,0,0.1,0,0.2c0,0,0.1,0.1,0.2,0c1.8-1,4.2-1.6,5.2,0.7
			C88.8,92.9,89.1,92.7,89,92.6z"/>
	</g>
</g>
<g>
	<g>
		<g>
			<path class="st0" d="M59.8,90.7c3.4,1.1,7,1,10.4-0.1c0.4-0.1,0.2-0.7-0.2-0.6c-3.3,1.1-6.8,1.2-10.1,0.1
				C59.6,90.1,59.4,90.6,59.8,90.7L59.8,90.7z"/>
		</g>
	</g>
</g>
<g>
	<g>
		<g>
			<path class="st0" d="M48.9,78.3c0.8,2.5,1.8,4.9,3.4,7.1c0.2,0.3,0.7,0,0.5-0.3c-1.6-2.1-2.6-4.4-3.3-6.9
				C49.3,77.8,48.7,77.9,48.9,78.3L48.9,78.3z"/>
		</g>
	</g>
</g>
<g>
	<g>
		<g>
			<path class="st0" d="M48.7,66.3c-0.8,2.2-1,4.6-0.8,6.9c0,0.4,0.6,0.4,0.6,0c-0.2-2.3,0-4.6,0.8-6.7C49.4,66.2,48.8,66,48.7,66.3
				L48.7,66.3z"/>
		</g>
	</g>
</g>
<g>
	<g>
		<g>
			<path class="st0" d="M80.9,62c-4.5-2.1-9.3-3.2-14.2-3.3c-4.8,0-10.3,0.7-14.4,3.3c-0.3,0.2,0,0.7,0.3,0.5
				c4.1-2.5,9.4-3.3,14.1-3.2c4.8,0,9.6,1.1,13.9,3.2C80.9,62.7,81.3,62.2,80.9,62L80.9,62z"/>
		</g>
	</g>
</g>
<g>
	<g>
		<g>
			<path class="st0" d="M84.8,85.7c0.4,0.5,1.1,0.6,1.7,0.2c0.7-0.5,0.8-1.4,0.9-2.2c0-0.4-0.6-0.4-0.6,0c0,0.5-0.1,1.1-0.4,1.5
				c-0.2,0.3-0.8,0.5-1.1,0.1C85,85.1,84.5,85.4,84.8,85.7L84.8,85.7z"/>
		</g>
	</g>
</g>
<g>
	<g>
		<g>
			<path class="st0" d="M80.4,62.3c1.2-0.6,3.2-0.8,3.6,0.9c0.1,0.4,0.7,0.2,0.6-0.2c-0.5-2.1-2.9-2-4.5-1.3
				C79.8,62,80.1,62.5,80.4,62.3L80.4,62.3z"/>
		</g>
	</g>
</g>
<g>
	<g>
		<g>
			<path class="st0" d="M69.8,90.5c2.7-1.7,3.4-4.2,3.9-7.1c0.6-3.5,2.5-6.3,6.2-7c0.4-0.1,0.2-0.6-0.2-0.6
				c-2.6,0.5-4.9,2.3-5.9,4.8c-0.6,1.6-0.7,3.3-1.1,4.9c-0.5,1.9-1.5,3.5-3.2,4.5C69.2,90.2,69.5,90.7,69.8,90.5L69.8,90.5z"/>
		</g>
	</g>
</g>
<g>
	<path class="st0" d="M58.9,97l-4.7-2.7l-4.9,2.3l1.1-5.3l-3.7-4l5.4-0.6l2.6-4.8l2.2,5l5.3,1l-4,3.6L58.9,97z M54.2,93.8l4.1,2.4
		l-0.6-4.7l3.5-3.2l-4.6-0.9l-1.9-4.3l-2.3,4.1l-4.7,0.5l3.2,3.4l-1,4.6L54.2,93.8z"/>
</g>
<g>
	<path class="st0" d="M46.3,81.2l-0.8-3.5L42,76.4l3.1-1.9l0.2-3.6l2.8,2.3l3.5-0.9l-1.4,3.4l2,3l-3.6-0.3L46.3,81.2z M43.1,76.3
		l2.7,1l0.7,2.9l1.8-2.3l2.9,0.2l-1.6-2.4l1.1-2.7L48,73.7l-2.2-1.9l-0.1,2.9L43.1,76.3z"/>
</g>
<g>
	<path class="st0" d="M52.1,68.7l-2.5-2.2l-3.3,0.8l1.4-3L46,61.3l3.3,0.3l2.2-2.5l0.7,3.3l3.1,1.3l-2.9,1.7L52.1,68.7z M49.8,65.9
		l1.9,1.8l0.2-2.6l2.3-1.3l-2.4-1l-0.5-2.6l-1.7,2l-2.6-0.3l1.4,2.2l-1.1,2.4L49.8,65.9z"/>
</g>
<g>
	<path class="st0" d="M79.1,73.4L78.9,71l-2.1-1.2l2.2-0.9l0.5-2.4l1.6,1.8l2.4-0.2l-1.3,2l0.9,2.2l-2.3-0.6L79.1,73.4z M77.9,69.9
		l1.4,0.9l0.1,1.7l1.3-1.1l1.7,0.4l-0.7-1.6l0.9-1.4L81,68.8l-1.1-1.3l-0.4,1.7L77.9,69.9z"/>
</g>
<g>
	<g>
		<g>
			<path class="st0" d="M69.5,91.7c0,0,0.1,0,0.1,0c0.3,0,0.6-0.1,0.8-0.4c0.2-0.2,0.4-0.5,0.4-0.8c0-0.3-0.1-0.6-0.4-0.8
				c-0.2-0.2-0.5-0.4-0.8-0.4c0,0-0.1,0-0.1,0c-0.3,0-0.6,0.1-0.8,0.4s-0.4,0.5-0.4,0.8c0,0.3,0.1,0.6,0.4,0.8
				C68.9,91.6,69.2,91.7,69.5,91.7L69.5,91.7z"/>
		</g>
	</g>
</g>
<g>
	<g>
		<g>
			<path class="st0" d="M72.2,89.1c0,0,0.1-0.1,0.1-0.1c0.2-0.2,0.4-0.5,0.4-0.8s-0.1-0.6-0.4-0.8c-0.2-0.2-0.5-0.4-0.8-0.4
				c-0.3,0-0.6,0.1-0.8,0.4c0,0-0.1,0.1-0.1,0.1c-0.2,0.2-0.4,0.5-0.4,0.8s0.1,0.6,0.4,0.8c0.2,0.2,0.5,0.4,0.8,0.4
				C71.7,89.5,72,89.4,72.2,89.1L72.2,89.1z"/>
		</g>
	</g>
</g>
<g>
	<g>
		<g>
			<path class="st0" d="M73.4,86.1c0,0,0.1-0.1,0.1-0.1c0.2-0.2,0.4-0.5,0.4-0.8s-0.1-0.6-0.4-0.8C73.3,84.1,73,84,72.7,84
				c-0.3,0-0.6,0.1-0.8,0.4c0,0-0.1,0.1-0.1,0.1c-0.2,0.2-0.4,0.5-0.4,0.8c0,0.3,0.1,0.6,0.4,0.8c0.2,0.2,0.5,0.4,0.8,0.4
				C72.9,86.5,73.2,86.4,73.4,86.1L73.4,86.1z"/>
		</g>
	</g>
</g>
<g>
	<g>
		<g>
			<path class="st0" d="M73.5,83.5c1.5,0,1.5-2.4,0-2.4C71.9,81.1,71.9,83.5,73.5,83.5L73.5,83.5z"/>
		</g>
	</g>
</g>
<g>
	<g>
		<g>
			<path class="st0" d="M73.3,79.7c0,0,0,0.1,0,0.1c0,0.3,0.1,0.6,0.4,0.8c0.2,0.2,0.5,0.4,0.8,0.4c0.3,0,0.6-0.1,0.8-0.4
				s0.4-0.5,0.4-0.8c0,0,0-0.1,0-0.1c0-0.3-0.1-0.6-0.4-0.8c-0.2-0.2-0.5-0.4-0.8-0.4c-0.3,0-0.6,0.1-0.8,0.4
				C73.5,79.1,73.3,79.4,73.3,79.7L73.3,79.7z"/>
		</g>
	</g>
</g>
<g>
	<g>
		<g>
			<path class="st0" d="M76.2,78.8c1.5,0,1.5-2.4,0-2.4C74.7,76.4,74.7,78.8,76.2,78.8L76.2,78.8z"/>
		</g>
	</g>
</g>
<g>
	<g>
		<g>
			<path class="st0" d="M78.1,77.6c0,0,0.1,0,0.1,0c0.3,0,0.6-0.1,0.8-0.4c0.2-0.2,0.4-0.5,0.4-0.8c0-0.3-0.1-0.6-0.4-0.8
				c-0.2-0.2-0.5-0.4-0.8-0.4c0,0-0.1,0-0.1,0c-0.3,0-0.6,0.1-0.8,0.4c-0.2,0.2-0.4,0.5-0.4,0.8c0,0.3,0.1,0.6,0.4,0.8
				C77.5,77.4,77.8,77.6,78.1,77.6L78.1,77.6z"/>
		</g>
	</g>
</g>
<g>
	<g>
		<g>
			<path class="st0" d="M65.2,92.1c0,0,0.1,0.1,0.1,0.1c0.2,0.2,0.5,0.4,0.8,0.4c0.3,0,0.6-0.1,0.8-0.4c0.2-0.2,0.4-0.5,0.4-0.8
				c0-0.3-0.1-0.6-0.4-0.8c0,0-0.1-0.1-0.1-0.1c-0.2-0.2-0.5-0.4-0.8-0.4c-0.3,0-0.6,0.1-0.8,0.4c-0.2,0.2-0.4,0.5-0.4,0.8
				C64.9,91.6,65,91.9,65.2,92.1L65.2,92.1z"/>
		</g>
	</g>
</g>
<g>
	<g>
		<g>
			<path class="st0" d="M62.9,92.4c1.5,0,1.5-2.4,0-2.4C61.4,90,61.4,92.4,62.9,92.4L62.9,92.4z"/>
		</g>
	</g>
</g>
<g>
	<g>
		<g>
			<path class="st0" d="M60.1,92c1.5,0,1.5-2.4,0-2.4C58.5,89.7,58.5,92,60.1,92L60.1,92z"/>
		</g>
	</g>
</g>
<g>
	<g>
		<g>
			<path class="st0" d="M51.9,86.2c1.5,0,1.5-2.4,0-2.4C50.4,83.8,50.4,86.2,51.9,86.2L51.9,86.2z"/>
		</g>
	</g>
</g>
<g>
	<g>
		<g>
			<path class="st0" d="M50,83.5c0,0,0.1,0,0.1,0c0.3,0,0.6-0.1,0.8-0.4c0.2-0.2,0.4-0.5,0.4-0.8c0-0.3-0.1-0.6-0.4-0.8
				s-0.5-0.4-0.8-0.4c0,0-0.1,0-0.1,0c-0.3,0-0.6,0.1-0.8,0.4s-0.4,0.5-0.4,0.8c0,0.3,0.1,0.6,0.4,0.8C49.3,83.3,49.6,83.5,50,83.5
				L50,83.5z"/>
		</g>
	</g>
</g>
<g>
	<g>
		<g>
			<path class="st0" d="M49.2,80.6c1.5,0,1.5-2.4,0-2.4C47.7,78.2,47.7,80.6,49.2,80.6L49.2,80.6z"/>
		</g>
	</g>
</g>
<g>
	<g>
		<g>
			<path class="st0" d="M47.7,73.1c1.5,0,1.5-2.4,0-2.4C46.2,70.7,46.2,73.1,47.7,73.1L47.7,73.1z"/>
		</g>
	</g>
</g>
<g>
	<g>
		<g>
			<path class="st0" d="M46.9,69.2c0,0,0.1,0.1,0.1,0.1c0.2,0.2,0.5,0.4,0.8,0.4c0.3,0,0.6-0.1,0.8-0.4c0.2-0.2,0.4-0.5,0.4-0.8
				c0-0.3-0.1-0.6-0.4-0.8c0,0-0.1-0.1-0.1-0.1c-0.2-0.2-0.5-0.4-0.8-0.4c-0.3,0-0.6,0.1-0.8,0.4c-0.2,0.2-0.4,0.5-0.4,0.8
				C46.5,68.7,46.6,69,46.9,69.2L46.9,69.2z"/>
		</g>
	</g>
</g>
<g>
	<g>
		<g>
			<path class="st0" d="M53.4,62.6c1.5,0,1.5-2.4,0-2.4C51.9,60.3,51.9,62.6,53.4,62.6L53.4,62.6z"/>
		</g>
	</g>
</g>
<g>
	<g>
		<g>
			<path class="st0" d="M56,61.6c1.5,0,1.5-2.4,0-2.4C54.5,59.2,54.5,61.6,56,61.6L56,61.6z"/>
		</g>
	</g>
</g>
<g>
	<g>
		<g>
			<path class="st0" d="M57.7,59.5c0,0,0,0.1,0,0.1c0,0.3,0.1,0.6,0.4,0.8c0.2,0.2,0.5,0.4,0.8,0.4c0.3,0,0.6-0.1,0.8-0.4
				c0.2-0.2,0.4-0.5,0.4-0.8c0,0,0-0.1,0-0.1c0-0.3-0.1-0.6-0.4-0.8c-0.2-0.2-0.5-0.4-0.8-0.4c-0.3,0-0.6,0.1-0.8,0.4
				C57.8,58.9,57.7,59.2,57.7,59.5L57.7,59.5z"/>
		</g>
	</g>
</g>
<g>
	<g>
		<g>
			<path class="st0" d="M60.9,59.7c0,0,0.1,0.1,0.1,0.1c0.2,0.2,0.5,0.4,0.8,0.4c0.3,0,0.6-0.1,0.8-0.4c0.2-0.2,0.4-0.5,0.4-0.8
				c0-0.3-0.1-0.6-0.4-0.8c0,0-0.1-0.1-0.1-0.1c-0.2-0.2-0.5-0.4-0.8-0.4c-0.3,0-0.6,0.1-0.8,0.4c-0.2,0.2-0.4,0.5-0.4,0.8
				C60.5,59.2,60.7,59.5,60.9,59.7L60.9,59.7z"/>
		</g>
	</g>
</g>
<g>
	<g>
		<g>
			<path class="st0" d="M63.6,59.7c0,0,0.1,0.1,0.1,0.1c0.2,0.2,0.5,0.4,0.8,0.4c0.3,0,0.6-0.1,0.8-0.4c0.2-0.2,0.4-0.5,0.4-0.8
				c0-0.3-0.1-0.6-0.4-0.8c0,0-0.1-0.1-0.1-0.1c-0.2-0.2-0.5-0.4-0.8-0.4s-0.6,0.1-0.8,0.4c-0.2,0.2-0.4,0.5-0.4,0.8
				C63.3,59.2,63.4,59.5,63.6,59.7L63.6,59.7z"/>
		</g>
	</g>
</g>
<g>
	<g>
		<g>
			<path class="st0" d="M67.3,60.4c1.5,0,1.5-2.4,0-2.4S65.8,60.4,67.3,60.4L67.3,60.4z"/>
		</g>
	</g>
</g>
<g>
	<g>
		<g>
			<path class="st0" d="M70.2,58.2c-0.7,0-1.2,0.6-1.2,1.3c0,0.7,0.6,1.3,1.2,1.3c0.3,0,0.6-0.1,0.8-0.4c0.2-0.2,0.4-0.5,0.4-0.8
				c0-0.3-0.1-0.6-0.4-0.8c-0.2-0.2-0.5-0.4-0.8-0.4h0c0.1,0,0.2,0,0.3,0c0,0,0,0,0,0c0.2,0.1,0.4,0.2,0.5,0.3l0,0
				c0.1,0.1,0.1,0.2,0.2,0.2c0,0,0,0,0,0c0,0.1,0.1,0.2,0.1,0.3v0c0,0.1,0,0.2,0,0.3v0c0,0.1,0,0.2,0,0.3c0,0,0,0,0,0
				c-0.1,0.2-0.2,0.4-0.3,0.5c0,0,0,0,0,0c-0.1,0.1-0.2,0.1-0.2,0.2c0,0,0,0,0,0c-0.2,0-0.4,0.1-0.6,0.2h0c0.3,0,0.6-0.1,0.8-0.4
				c0.2-0.2,0.4-0.5,0.4-0.8c0-0.3-0.1-0.6-0.4-0.8C70.8,58.3,70.5,58.2,70.2,58.2L70.2,58.2z"/>
		</g>
	</g>
</g>
<g>
	<g>
		<g>
			<path class="st0" d="M72.6,60.8c0,0,0.1,0,0.1,0c0.3,0,0.6-0.1,0.8-0.4c0.2-0.2,0.4-0.5,0.4-0.8c0-0.3-0.1-0.6-0.4-0.8
				c-0.2-0.2-0.5-0.4-0.8-0.4c0,0-0.1,0-0.1,0c-0.3,0-0.6,0.1-0.8,0.4s-0.4,0.5-0.4,0.8c0,0.3,0.1,0.6,0.4,0.8
				C72,60.7,72.2,60.8,72.6,60.8L72.6,60.8z"/>
		</g>
	</g>
</g>
<g>
	<g>
		<g>
			<path class="st0" d="M75.4,61.3c0,0,0.1,0,0.1,0c0.3,0,0.6-0.1,0.8-0.4c0.2-0.2,0.4-0.5,0.4-0.8c0-0.3-0.1-0.6-0.4-0.8
				s-0.5-0.4-0.8-0.4c0,0-0.1,0-0.1,0c-0.3,0-0.6,0.1-0.8,0.4c-0.2,0.2-0.4,0.5-0.4,0.8c0,0.3,0.1,0.6,0.4,0.8
				C74.8,61.2,75.1,61.3,75.4,61.3L75.4,61.3z"/>
		</g>
	</g>
</g>
<g>
	<g>
		<g>
			<path class="st0" d="M78.3,62.5c1.5,0,1.5-2.4,0-2.4C76.8,60.1,76.8,62.5,78.3,62.5L78.3,62.5z"/>
		</g>
	</g>
</g>
<g>
	<g>
		<g>
			<path class="st0" d="M79.7,61.6c0,0,0,0.1,0,0.1c0,0.3,0.1,0.6,0.4,0.8c0.2,0.2,0.5,0.4,0.8,0.4c0.3,0,0.6-0.1,0.8-0.4
				c0.2-0.2,0.4-0.5,0.4-0.8c0,0,0-0.1,0-0.1c0-0.3-0.1-0.6-0.4-0.8c-0.2-0.2-0.5-0.4-0.8-0.4c-0.3,0-0.6,0.1-0.8,0.4
				C79.8,61,79.7,61.3,79.7,61.6L79.7,61.6z"/>
		</g>
	</g>
</g>
<g>
	<g>
		<g>
			<path class="st0" d="M83.1,63.4c1.5,0,1.5-2.4,0-2.4C81.6,61,81.6,63.4,83.1,63.4L83.1,63.4z"/>
		</g>
	</g>
</g>
<g>
	<g>
		<g>
			<path class="st0" d="M86.3,87.1C86.3,87.1,86.4,87.1,86.3,87.1c1.6,0,1.6-2.4,0.1-2.4c0,0-0.1,0-0.1,0
				C84.8,84.7,84.8,87.1,86.3,87.1C86.3,87.1,86.4,87.1,86.3,87.1c1.6,0,1.6-2.4,0.1-2.4c0,0-0.1,0-0.1,0
				C84.8,84.7,84.8,87.1,86.3,87.1L86.3,87.1z"/>
		</g>
	</g>
</g>
<g>
	<g>
		<g>
			<path class="st0" d="M54,91.1c1.5,0,1.5-2.4,0-2.4C52.5,88.8,52.5,91.1,54,91.1L54,91.1z"/>
		</g>
	</g>
</g>
<g>
	<g>
		<g>
			<path class="st0" d="M46.1,76.8C46.1,76.8,46.2,76.9,46.1,76.8c1.2,1.2,2.8-0.5,1.8-1.6c0,0-0.1-0.1-0.1-0.1
				C46.7,74,45,75.7,46.1,76.8C46.1,76.8,46.2,76.9,46.1,76.8c1.2,1.2,2.8-0.5,1.8-1.6c0,0-0.1-0.1-0.1-0.1
				C46.7,74,45,75.7,46.1,76.8L46.1,76.8z"/>
		</g>
	</g>
</g>
<g>
	<g>
		<g>
			<path class="st0" d="M50.1,65.1c1.5,0,1.5-2.4,0-2.4C48.6,62.7,48.6,65.1,50.1,65.1L50.1,65.1z"/>
		</g>
	</g>
</g>
<g>
	<g>
		<g>
			<path class="st0" d="M80.4,71.3c0,0,0.1,0,0.1,0c0.3,0,0.6-0.1,0.8-0.4c0.2-0.2,0.4-0.5,0.4-0.8c0-0.3-0.1-0.6-0.4-0.8
				c-0.2-0.2-0.5-0.4-0.8-0.4c0,0-0.1,0-0.1,0c-0.3,0-0.6,0.1-0.8,0.4c-0.2,0.2-0.4,0.5-0.4,0.8c0,0.3,0.1,0.6,0.4,0.8
				C79.8,71.1,80.1,71.3,80.4,71.3L80.4,71.3z"/>
		</g>
	</g>
</g>
<g>
	<g>
		<g>
			<path class="st0" d="M53.6,87c0.3-0.7,0.6-1.4,0.9-2.1c-0.1,0-0.2,0-0.3,0c0.2,0.6,0.4,1.3,0.6,1.9c0,0.2,0.3,0.1,0.3-0.1
				c-0.2-0.6-0.4-1.3-0.6-1.9c0-0.1-0.2-0.1-0.3,0c-0.3,0.7-0.6,1.4-0.9,2.1C53.2,87.1,53.5,87.2,53.6,87L53.6,87z"/>
		</g>
	</g>
</g>
<g>
	<g>
		<g>
			<path class="st0" d="M56.9,88.6c0.7,0,1.4,0,2,0.1c0-0.1,0-0.2-0.1-0.2c-0.4,0.4-0.9,0.7-1.3,1.1c-0.1,0.1,0.1,0.3,0.2,0.2
				c0.4-0.4,0.9-0.7,1.3-1.1c0.1-0.1,0-0.2-0.1-0.2c-0.7-0.1-1.4-0.2-2.1-0.2C56.7,88.3,56.7,88.7,56.9,88.6L56.9,88.6z"/>
		</g>
	</g>
</g>
<g>
	<g>
		<g>
			<path class="st0" d="M55.6,93.6c0.4,0.3,0.8,0.5,1.2,0.6c0.1,0,0.2-0.1,0.2-0.2c-0.1-0.7-0.3-1.4-0.4-2c0-0.2-0.3-0.1-0.3,0.1
				c0.1,0.7,0.3,1.4,0.4,2c0.1-0.1,0.1-0.1,0.2-0.2c-0.4-0.1-0.8-0.2-1.1-0.5C55.7,93.3,55.5,93.5,55.6,93.6L55.6,93.6z"/>
		</g>
	</g>
</g>
<g>
	<g>
		<g>
			<path class="st0" d="M51.6,92.6c-0.3,0.4-0.5,0.8-0.6,1.3c0,0.1,0,0.2,0.1,0.2c0.5,0,0.9-0.1,1.4-0.4c0.2-0.1,0-0.4-0.1-0.3
				c-0.4,0.2-0.8,0.3-1.2,0.3c0,0.1,0.1,0.1,0.1,0.2c0.1-0.4,0.2-0.8,0.5-1.2C52,92.6,51.8,92.4,51.6,92.6L51.6,92.6z"/>
		</g>
	</g>
</g>
<g>
	<g>
		<g>
			<path class="st0" d="M51,89.8c-0.4-0.5-0.8-0.9-1.3-1.4c0,0.1-0.1,0.2-0.1,0.2c0.7,0.2,1.5,0.2,2.2,0c0.2-0.1,0.1-0.4-0.1-0.3
				c-0.7,0.2-1.4,0.3-2,0c-0.1,0-0.3,0.1-0.1,0.2c0.5,0.4,0.9,0.8,1.2,1.3C50.9,90.2,51.2,90,51,89.8L51,89.8z"/>
		</g>
	</g>
</g>
<g>
	<g>
		<g>
			<path class="st0" d="M46.4,74c0-0.4-0.1-0.8-0.1-1.1c-0.1,0-0.1,0.1-0.2,0.1c0.3,0.2,0.5,0.5,0.5,0.9c0,0.2,0.3,0.2,0.3,0
				c0-0.5-0.3-0.9-0.7-1.1c-0.1,0-0.2,0-0.2,0.1c0,0.4,0.1,0.8,0.1,1.1C46.2,74.2,46.4,74.2,46.4,74L46.4,74z"/>
		</g>
	</g>
</g>
<g>
	<g>
		<g>
			<path class="st0" d="M48.3,74.4c0.4-0.1,0.8-0.3,1.1-0.5c-0.1-0.1-0.1-0.1-0.2-0.2c-0.1,0.3-0.3,0.5-0.6,0.5
				c-0.2,0-0.1,0.4,0.1,0.3c0.4-0.1,0.6-0.4,0.8-0.8c0-0.1-0.1-0.2-0.2-0.2c-0.4,0.1-0.8,0.3-1.1,0.5C48.1,74.2,48.2,74.5,48.3,74.4
				L48.3,74.4z"/>
		</g>
	</g>
</g>
<g>
	<g>
		<g>
			<path class="st0" d="M49.3,76.6c0.1,0.3,0.4,0.6,0.7,0.7c0-0.1,0-0.2,0.1-0.3c-0.5-0.2-0.9-0.2-1.4-0.1c-0.2,0-0.1,0.3,0.1,0.3
				c0.4-0.1,0.8,0,1.2,0.1c0.2,0.1,0.3-0.2,0.1-0.3c-0.2-0.1-0.4-0.3-0.5-0.5C49.6,76.3,49.3,76.4,49.3,76.6L49.3,76.6z"/>
		</g>
	</g>
</g>
<g>
	<g>
		<g>
			<path class="st0" d="M46.6,77.8c0,0.3,0,0.7,0,1c0,0.1,0.2,0.2,0.3,0.1c0.2-0.3,0.5-0.6,0.7-0.8c0.1-0.1-0.1-0.3-0.2-0.2
				c-0.3,0.3-0.6,0.5-0.8,0.9c0.1,0,0.2,0,0.3,0.1c0-0.3,0-0.7,0-1C46.9,77.6,46.6,77.6,46.6,77.8L46.6,77.8z"/>
		</g>
	</g>
</g>
<g>
	<g>
		<g>
			<path class="st0" d="M44.9,75.5c-0.2,0.2-0.4,0.3-0.6,0.3c-0.1,0-0.2,0.2-0.1,0.3c0.3,0.1,0.6,0.3,0.9,0.5
				c0.2,0.1,0.3-0.2,0.1-0.3c-0.3-0.1-0.6-0.3-0.9-0.5c0,0.1,0,0.2-0.1,0.3c0.3,0,0.6-0.1,0.8-0.4C45.2,75.6,45,75.4,44.9,75.5
				L44.9,75.5z"/>
		</g>
	</g>
</g>
<g>
	<g>
		<g>
			<path class="st0" d="M48.2,65.1c0,0.2-0.1,0.4-0.2,0.5c-0.1,0.1,0,0.3,0.1,0.2c0.3-0.1,0.6-0.2,0.9-0.3c0.2,0,0.1-0.3-0.1-0.3
				c-0.3,0.1-0.6,0.2-0.9,0.3c0,0.1,0.1,0.2,0.1,0.2c0.2-0.2,0.3-0.4,0.3-0.7C48.5,64.9,48.2,64.9,48.2,65.1L48.2,65.1z"/>
		</g>
	</g>
</g>
<g>
	<g>
		<g>
			<path class="st0" d="M50.3,65.8c0.2,0.2,0.3,0.5,0.5,0.7c0.1,0.1,0.3,0.1,0.3-0.1c0-0.4,0-0.9,0-1.3c0-0.2-0.3-0.2-0.3,0
				c0,0.4,0,0.9,0,1.3c0.1,0,0.2,0,0.3-0.1c-0.2-0.2-0.3-0.5-0.5-0.7C50.4,65.4,50.2,65.6,50.3,65.8L50.3,65.8z"/>
		</g>
	</g>
</g>
<g>
	<g>
		<g>
			<path class="st0" d="M51.9,63.7c0.3,0.1,0.7,0.1,1,0.2c0-0.1,0-0.2-0.1-0.2c-0.1,0.1-0.5,0.4-0.7,0.2c-0.1-0.2-0.3,0-0.3,0.1
				c0.2,0.5,0.9,0.1,1.1-0.1c0.1-0.1,0-0.2-0.1-0.2c-0.3-0.1-0.7-0.1-1-0.2C51.8,63.4,51.7,63.6,51.9,63.7L51.9,63.7z"/>
		</g>
	</g>
</g>
<g>
	<g>
		<g>
			<path class="st0" d="M50.4,62.2c0.2-0.2,0.4-0.4,0.6-0.6c-0.1,0-0.2,0-0.2,0c0.1,0.2,0,0.5-0.2,0.5c-0.2,0.1,0,0.4,0.1,0.3
				c0.3-0.2,0.5-0.6,0.3-0.9c0-0.1-0.2-0.1-0.2,0c-0.2,0.2-0.4,0.4-0.6,0.6C50,62.1,50.2,62.3,50.4,62.2L50.4,62.2z"/>
		</g>
	</g>
</g>
<g>
	<g>
		<g>
			<path class="st0" d="M48.4,63.4c-0.1-0.2-0.1-0.5-0.2-0.7c0,0.1-0.1,0.1-0.1,0.2c0.3,0,0.6,0,0.9,0.1c0.2,0.1,0.3-0.2,0.1-0.3
				c-0.3-0.1-0.6-0.2-0.9-0.2c-0.1,0-0.2,0.1-0.1,0.2c0.1,0.2,0.1,0.5,0.2,0.7C48.2,63.6,48.4,63.5,48.4,63.4L48.4,63.4z"/>
		</g>
	</g>
</g>
<g>
	<g>
		<g>
			<path class="st0" d="M52.4,84.6c0.1-0.5,0.2-1,0.4-1.4c0.2-0.3,0.5-0.6,0.8-0.7c0.2-0.1,0.6,0,0.8-0.1c0.7-0.4,0.7-1.7,1.5-1.7
				c0.2,0,0.2-0.3,0-0.3c-0.4,0-0.6,0.2-0.8,0.5c-0.2,0.2-0.2,0.5-0.4,0.8C54.5,82,54,82,53.5,82.2c-0.9,0.3-1.2,1.4-1.4,2.3
				C52.1,84.7,52.4,84.7,52.4,84.6L52.4,84.6z"/>
		</g>
	</g>
</g>
<g>
	<g>
		<g>
			<path class="st0" d="M50.3,82.5c0.3-0.5,0.6-0.9,1.2-1.1c0.4-0.1,0.7,0,1-0.2c0.8-0.4,1.1-1.8,2.2-1.6c0.2,0,0.3-0.3,0.1-0.3
				c-1.2-0.2-1.5,1-2.3,1.5c-0.5,0.3-1,0.2-1.5,0.5c-0.4,0.2-0.6,0.6-0.9,1C49.9,82.5,50.2,82.7,50.3,82.5L50.3,82.5z"/>
		</g>
	</g>
</g>
<g>
	<g>
		<g>
			<path class="st0" d="M50,79.5c0.1-0.4,0.7-0.3,1-0.3c0.2,0,0.3,0.1,0.5,0.1c0.2,0,0.5,0.1,0.7,0c0.5-0.2,0.9-1.6,1.6-1.2
				c0.2,0.1,0.3-0.2,0.1-0.3c-0.3-0.1-0.6-0.1-0.9,0.1c-0.1,0.1-0.2,0.2-0.3,0.3c-0.3,0.4-0.3,0.6-0.9,0.7c-0.5,0.1-0.7,0-1.1-0.1
				c-0.1,0-0.3,0-0.5,0c-0.3,0.1-0.5,0.2-0.6,0.5C49.6,79.6,49.9,79.6,50,79.5L50,79.5z"/>
		</g>
	</g>
</g>
<g>
	<g>
		<g>
			<path class="st0" d="M50.3,76c0.1-0.5,0.6-0.7,1-0.6c0.3,0,0.5,0.3,0.9,0.3c0.4,0,0.7-0.2,0.9-0.5c0.1-0.2-0.2-0.3-0.3-0.1
				c-0.4,0.8-1.3,0-1.9,0.1c-0.4,0.1-0.7,0.4-0.9,0.8C50,76.1,50.3,76.2,50.3,76L50.3,76z"/>
		</g>
	</g>
</g>
<g>
	<g>
		<g>
			<path class="st0" d="M48.6,72.2c0.4-0.4,1-0.5,1.6-0.4c0.3,0.1,0.5,0.3,0.8,0.4c0.4,0.1,1.4-0.1,1.6,0.1c0.1,0.2,0.4,0,0.3-0.1
				c-0.1-0.2-0.3-0.3-0.6-0.4c-0.3,0-0.2,0.1-0.5,0.1c-0.8,0-0.7-0.1-1.2-0.3c-0.7-0.3-1.5-0.1-2.1,0.4
				C48.2,72.1,48.4,72.3,48.6,72.2L48.6,72.2z"/>
		</g>
	</g>
</g>
<g>
	<g>
		<g>
			<path class="st0" d="M48.6,68.5c0.8-0.1,1.3,0.7,1.9,1c0.8,0.4,2-0.3,2.3,0.8c0,0.2,0.3,0.1,0.3-0.1c-0.1-0.4-0.3-0.7-0.7-0.9
				c-0.4-0.2-0.8,0-1.2,0c-1,0-1.5-1.3-2.6-1.2C48.4,68.3,48.4,68.6,48.6,68.5L48.6,68.5z"/>
		</g>
	</g>
</g>
<g>
	<g>
		<g>
			<path class="st0" d="M52,65.7c0.4,0.3,0.4,0.8,0.9,1c0.2,0.1,0.5,0.1,0.7,0.1c0.2,0,1.4-0.2,1.1,0.5c-0.1,0.2,0.2,0.3,0.3,0.1
				c0.2-0.5-0.2-0.9-0.7-1c-0.5-0.1-1,0.3-1.4-0.1c-0.3-0.3-0.3-0.6-0.6-0.9C52,65.4,51.8,65.6,52,65.7L52,65.7z"/>
		</g>
	</g>
</g>
<g>
	<g>
		<g>
			<path class="st0" d="M53.7,61.6c0.9,0.3,1.7,1,2.1,1.9c0.3,0.6,0.3,1.3,0.7,1.8c0.1,0.1,0.3-0.1,0.2-0.2c-0.4-0.5-0.4-1-0.5-1.5
				c-0.1-0.4-0.3-0.7-0.5-1c-0.5-0.6-1.1-1-1.8-1.3C53.6,61.3,53.5,61.5,53.7,61.6L53.7,61.6z"/>
		</g>
	</g>
</g>
<g>
	<g>
		<g>
			<path class="st0" d="M56.5,61.1C56.5,61.1,56.6,61.1,56.5,61.1c0.1-0.1,0.1-0.2,0-0.2c-0.1-0.1-0.1-0.1-0.2-0.1
				c-0.1,0-0.1,0-0.1,0.1c-0.1,0.3,0.1,0.9,0.4,1.1c0.2,0.2,0.4,0.3,0.6,0.5c0.5,0.3,0.7,0.8,0.7,1.3c0,0.2,0.3,0.2,0.3,0
				c0-0.5-0.2-1.1-0.6-1.4c-0.2-0.2-0.5-0.3-0.7-0.5c0,0-0.5-1-0.5-0.9C56.2,61,56.4,61.2,56.5,61.1L56.5,61.1z"/>
		</g>
	</g>
</g>
<g>
	<g>
		<g>
			<path class="st0" d="M58.8,59.9c-0.1,0.4,0.1,0.7,0.3,1c0.5,0.6,0.8,1.3,0.5,2.2c0,0.2,0.2,0.3,0.3,0.1c0.1-0.5,0.2-0.9,0-1.4
				c-0.2-0.5-1.1-1.3-0.9-1.8C59.2,59.8,58.9,59.7,58.8,59.9L58.8,59.9z"/>
		</g>
	</g>
</g>
<g>
	<g>
		<g>
			<path class="st0" d="M62.3,59.2c-0.1,0.6-0.6,1-0.5,1.6c0.1,0.5,1,1.3,0.5,1.8c-0.1,0.1,0.1,0.4,0.2,0.2c0.3-0.4,0.3-0.8,0-1.3
				c-0.1-0.2-0.2-0.3-0.3-0.5c-0.2-0.4-0.1-0.7,0.1-1.1c0.1-0.3,0.2-0.5,0.3-0.8C62.7,59,62.4,59,62.3,59.2L62.3,59.2z"/>
		</g>
	</g>
</g>
<g>
	<g>
		<g>
			<path class="st0" d="M64.6,59.1c0.1,1,0.5,2.3,0,3.3c-0.1,0.2,0.2,0.3,0.3,0.1c0.6-1.1,0.1-2.4,0-3.5
				C64.9,58.8,64.6,58.9,64.6,59.1L64.6,59.1z"/>
		</g>
	</g>
</g>
<g>
	<g>
		<g>
			<path class="st0" d="M57.2,87.3c-0.2-0.7-0.4-1.5-0.2-2.2c0.2-0.7,0.8-0.9,1.4-1.2c0.2-0.1,0.4-0.2,0.5-0.4
				c0.1-0.1,0.2-0.8,0.2-0.8c0.2,0,0.2-0.3,0-0.3c-0.3,0-0.3,0.1-0.4,0.4c-0.2,0.4-0.2,0.7-0.7,0.9c-0.2,0.1-0.5,0.2-0.7,0.3
				c-1,0.8-0.8,2.3-0.5,3.3C57,87.6,57.2,87.5,57.2,87.3L57.2,87.3z"/>
		</g>
	</g>
</g>
<g>
	<g>
		<g>
			<path class="st0" d="M60.2,87.6c0.3-0.6,0.2-1.2,0.1-1.8c-0.1-1.1,0.5-1.8,1.3-2.4c0.1-0.1-0.1-0.3-0.2-0.2
				c-0.5,0.5-1.1,0.9-1.3,1.6c-0.3,0.9,0.3,1.9-0.2,2.7C59.8,87.6,60.1,87.8,60.2,87.6L60.2,87.6z"/>
		</g>
	</g>
</g>
<g>
	<g>
		<g>
			<path class="st0" d="M63.1,90.6c0.2-1,0.6-2.1,0.5-3.2c-0.1-1.3-1.3-2.2-1.1-3.5c0-0.2-0.3-0.3-0.3-0.1c-0.1,0.9,0.1,1.4,0.5,2.2
				c0.9,1.5,0.4,2.9,0.1,4.5C62.8,90.7,63.1,90.8,63.1,90.6L63.1,90.6z"/>
		</g>
	</g>
</g>
<g>
	<g>
		<g>
			<path class="st0" d="M66,90.9c-0.4-0.8-0.3-1.6-0.1-2.4c0.1-0.4,0.2-0.7,0.2-1.1c-0.1-1.2-0.8-2.4-1.1-3.5
				c-0.1-0.2-0.4-0.1-0.3,0.1c0.6,1.6,1.3,2.9,0.9,4.6c-0.2,0.9-0.3,1.6,0.2,2.5C65.8,91.2,66.1,91.1,66,90.9L66,90.9z"/>
		</g>
	</g>
</g>
<g>
	<g>
		<g>
			<path class="st0" d="M66.9,83.4c0.3,1.3,0.5,2.8,0.9,4.1c0.4,1.1,1.4,1.7,1.4,3c0,0.2,0.3,0.2,0.3,0c0-1.1-0.5-1.6-1.1-2.4
				c-0.9-1.2-0.9-3.2-1.3-4.7C67.1,83.1,66.8,83.2,66.9,83.4L66.9,83.4z"/>
		</g>
	</g>
</g>
<g>
	<g>
		<g>
			<path class="st0" d="M71.4,87.6c-2.1-0.4-1.4-3.6-2.8-4.9c-0.1-0.1-0.4,0.1-0.2,0.2c1.5,1.3,0.7,4.5,3,4.9
				C71.5,87.9,71.6,87.7,71.4,87.6L71.4,87.6z"/>
		</g>
	</g>
</g>
<g>
	<g>
		<g>
			<path class="st0" d="M70.1,82.6c0.6,0.3,0.7,0.9,1,1.4c0.1,0.2,0.2,0.4,0.4,0.5c0.2,0.1,1.1,0.4,0.9,0.7
				c-0.1,0.2,0.2,0.3,0.3,0.1c0.1-0.2,0.1-0.4-0.1-0.6c-0.3-0.3-0.8-0.3-1.1-0.7c-0.4-0.6-0.5-1.4-1.2-1.7
				C70,82.3,69.9,82.5,70.1,82.6L70.1,82.6z"/>
		</g>
	</g>
</g>
<g>
	<g>
		<g>
			<path class="st0" d="M72.1,81.3c0-0.2-0.2-0.4-0.4-0.4c-0.2,0-0.2,0.2-0.1,0.3c0.5,0.4,0.9,0.7,1.4,1.1c0.1,0.1,0.3-0.1,0.1-0.3
				c-0.5-0.4-0.9-0.7-1.4-1.1c0,0.1,0,0.2-0.1,0.3c0,0,0.1,0.1,0.1,0.1C71.8,81.6,72.1,81.5,72.1,81.3L72.1,81.3z"/>
		</g>
	</g>
</g>
<g>
	<g>
		<g>
			<path class="st0" d="M67.1,59.6c0.3,0.4,0.5,0.8,0.3,1.3c-0.1,0.4-0.4,0.6-0.6,0.9c-0.2,0.3-0.3,0.7-0.1,1c0.1,0.2,0.4,0,0.3-0.1
				c-0.3-0.5,0.3-0.9,0.5-1.3c0.1-0.2,0.2-0.4,0.2-0.6c0.1-0.5-0.1-1-0.5-1.4C67.1,59.3,66.9,59.5,67.1,59.6L67.1,59.6z"/>
		</g>
	</g>
</g>
<g>
	<g>
		<g>
			<path class="st0" d="M70.8,59.3c-1.2,1,0,3.6-1.5,4.1c-0.2,0.1-0.1,0.4,0.1,0.3c1.8-0.6,0.4-3.1,1.6-4.2
				C71.2,59.4,71,59.1,70.8,59.3L70.8,59.3z"/>
		</g>
	</g>
</g>
<g>
	<g>
		<g>
			<path class="st0" d="M72.7,60c-0.3,1-0.3,1.9,0,3c0.2,0.8,0.2,1.5,0,2.3c-0.2,0.5-0.3,0.9-0.3,1.5c0,0.2,0.3,0.2,0.3,0
				c0-1,0.6-1.9,0.5-2.9c0-0.5-0.2-0.9-0.4-1.4c-0.2-0.8-0.2-1.6,0.1-2.4C73.1,59.9,72.8,59.8,72.7,60L72.7,60z"/>
		</g>
	</g>
</g>
<g>
	<g>
		<g>
			<path class="st0" d="M75.6,60.1c-1.2,1-0.9,2.5-0.6,3.9c0.2,0.7,0.4,1.5,0.3,2.2c-0.1,0.6-0.4,1.1-0.7,1.7
				c-0.3,0.6-0.5,1.1-0.4,1.8c0,0.2,0.3,0.1,0.3-0.1c-0.2-1,0.6-1.7,1-2.6c0.2-0.5,0.3-1,0.2-1.6c-0.1-1.6-1.4-3.7,0.2-5
				C75.9,60.2,75.7,60,75.6,60.1L75.6,60.1z"/>
		</g>
	</g>
</g>
<g>
	<g>
		<g>
			<path class="st0" d="M78.8,61.1c-1.2,0.8-1,2-0.9,3.3c0.1,1.2-0.2,2.3-0.9,3.2c-0.5,0.7-1.1,1.2-1.4,2c-0.6,1.5,0.7,2.9,0.5,4.4
				c-0.2,1.1-1.3,2.4-0.1,3.4c0.1,0.1,0.4-0.1,0.2-0.2c-1.1-1,0.4-2.7,0.3-3.9c-0.2-1.7-1.2-2.8,0-4.4c0.7-0.9,1.4-1.7,1.7-2.9
				c0.4-1.5-0.6-3.7,0.9-4.7C79.1,61.2,79,61,78.8,61.1L78.8,61.1z"/>
		</g>
	</g>
</g>
<g>
	<g>
		<g>
			<path class="st0" d="M80.6,61.7c-0.4,0.7-0.8,1.4-0.9,2.1c-0.1,0.9,0.8,2.3,0.1,3.1c-0.1,0.1,0.1,0.4,0.2,0.2
				c0.3-0.4,0.4-0.9,0.3-1.4c-0.1-0.5-0.4-1-0.4-1.6c0-0.8,0.5-1.6,0.9-2.3C80.9,61.7,80.7,61.5,80.6,61.7L80.6,61.7z"/>
		</g>
	</g>
</g>
<g>
	<g>
		<g>
			<path class="st0" d="M78.3,75.7c-0.6-1-0.8-2.2-0.2-3.3c0.3-0.6,0.7-1.1,0.7-1.8c0-0.2-0.3-0.2-0.3,0c-0.1,1-0.9,1.8-1,2.9
				c-0.1,0.9,0.1,1.7,0.6,2.4C78.1,76.1,78.4,75.9,78.3,75.7L78.3,75.7z"/>
		</g>
	</g>
</g>
<g>
	<g>
		<g>
			<path class="st0" d="M81.4,63.2c-0.3,0.1-0.5,0.2-0.5,0.6c-0.1,0.7,0.6,1.1,0.5,1.9c-0.1,1-0.9,1.9,0,2.8
				c0.1,0.1,0.4-0.1,0.2-0.2c-0.9-0.8,0.1-1.9,0.1-2.8c0-0.4-0.7-1.8-0.2-2C81.7,63.4,81.6,63.1,81.4,63.2L81.4,63.2z"/>
		</g>
	</g>
</g>
<g>
	<g>
		<g>
			<path class="st0" d="M81,71.7c-0.2,0.5,0,1,0.4,1.4c0.1,0.1,0.4-0.1,0.2-0.2c-0.3-0.3-0.4-0.7-0.3-1C81.4,71.6,81.1,71.5,81,71.7
				L81,71.7z"/>
		</g>
	</g>
</g>
<g>
	<g>
		<g>
			<path class="st0" d="M84,73.7c0.2-0.5,0.3-1,0.3-1.5c-0.1-0.8-1.2-2.2-0.3-2.8c0.2-0.1,0-0.4-0.1-0.3c-0.4,0.3-0.5,0.6-0.5,1.1
				c0,0.3,0.2,0.6,0.3,0.9c0.4,0.9,0.5,1.5,0.1,2.4C83.6,73.7,83.9,73.9,84,73.7L84,73.7z"/>
		</g>
	</g>
</g>
<g>
	<g>
		<g>
			<path class="st0" d="M86,85.6c0.2-0.6,0.2-1.2,0-1.8c-0.1-0.2-0.4-0.1-0.3,0.1c0.2,0.5,0.2,1,0,1.6C85.7,85.7,85.9,85.8,86,85.6
				L86,85.6z"/>
		</g>
	</g>
</g>
<g>
	<g>
		<g>
			<path class="st0" d="M45,74.6c-5,1.1-10.2-0.7-13.5-4.5c-0.1-0.1-0.3,0.1-0.2,0.2C34.6,74.3,40,76,45,74.9
				C45.2,74.9,45.1,74.6,45,74.6L45,74.6z"/>
		</g>
	</g>
</g>
<g>
	<g>
		<g>
			<path class="st0" d="M31.5,70.1c0.3-1,0.5-2.3,0-3.3c-0.2-0.4-0.7-0.9-1.1-0.5c-0.7,0.6-0.3,4.2,1,3.9c0.1,0,0.1-0.2,0-0.3
				c-1.3-0.7-3.9,3.5-3.3,4.6c0.4,0.6,1.1,0,1.4-0.3c1-1,1.6-2.4,1.8-3.8c0-0.2-0.3-0.2-0.3,0c-0.1,0.9-0.4,1.7-0.8,2.4
				c-0.2,0.3-1.6,2.5-1.7,0.9c0-0.7,1.8-4.1,2.8-3.6c0-0.1,0-0.2,0-0.3c-0.6,0.1-0.8-1.7-0.8-1.8c0-0.5-0.3-0.9,0.4-0.8
				c0.7,0.1,0.6,0.6,0.6,1.2c0,0.5-0.1,1-0.3,1.5C31.2,70.2,31.5,70.3,31.5,70.1L31.5,70.1z"/>
		</g>
	</g>
</g>
<g>
	<g>
		<g>
			<path class="st0" d="M31.3,69.5c-1.6,0.1-3.2,0-4.8-0.3c-0.2,0-0.3,0.3-0.1,0.3c1.6,0.3,3.2,0.4,4.9,0.3
				C31.4,69.7,31.5,69.5,31.3,69.5L31.3,69.5z"/>
		</g>
	</g>
</g>
<g>
	<g>
		<g>
			<path class="st0" d="M30.5,70c-1.4,0.4-2.8,1.1-3.8,2.1c-0.1,0.1,0.1,0.3,0.2,0.2c1.1-1,2.3-1.7,3.7-2
				C30.8,70.2,30.7,69.9,30.5,70L30.5,70z"/>
		</g>
	</g>
</g>
<g>
	<g>
		<g>
			<path class="st0" d="M31.5,69.9c1.4,1.8,3.4,3.1,5.7,3.7c1.2,0.3,2.4,0.5,3.6,0.5c1.4,0,2.8-0.4,4.1-0.2c0.2,0,0.2-0.3,0-0.3
				c-1.1-0.1-2.2,0.2-3.3,0.2c-1.3,0-2.7-0.1-4-0.4c-2.3-0.6-4.4-1.9-6-3.8C31.5,69.5,31.3,69.7,31.5,69.9L31.5,69.9z"/>
		</g>
	</g>
</g>
<g>
	<g>
		<g>
			<path class="st1" d="M47.2,76.5c0.8,0,0.8-1.2,0-1.2C46.5,75.4,46.5,76.5,47.2,76.5L47.2,76.5z"/>
		</g>
	</g>
</g>
<g>
	<g>
		<g>
			<path class="st1" d="M50.3,64.3c0.8,0,0.8-1.2,0-1.2C49.5,63.1,49.5,64.3,50.3,64.3L50.3,64.3z"/>
		</g>
	</g>
</g>
<g>
	<g>
		<g>
			<path class="st1" d="M53.9,90.7c0.8,0,0.8-1.2,0-1.2C53.1,89.5,53.1,90.7,53.9,90.7L53.9,90.7z"/>
		</g>
	</g>
</g>
<g>
	<g>
		<g>
			<path class="st1" d="M60.1,91.5c0.8,0,0.8-1.2,0-1.2C59.3,90.3,59.3,91.5,60.1,91.5L60.1,91.5z"/>
		</g>
	</g>
</g>
<g>
	<g>
		<g>
			<path class="st1" d="M62.9,91.9c0.8,0,0.8-1.2,0-1.2C62.1,90.7,62.1,91.9,62.9,91.9L62.9,91.9z"/>
		</g>
	</g>
</g>
<g>
	<g>
		<g>
			<path class="st1" d="M65.5,91.3c0,0,0,0.1,0,0.1c0,0.3,0.3,0.6,0.6,0.6c0.3,0,0.6-0.3,0.6-0.6c0,0,0-0.1,0-0.1
				c0-0.3-0.3-0.6-0.6-0.6C65.8,90.7,65.5,91,65.5,91.3L65.5,91.3z"/>
		</g>
	</g>
</g>
<g>
	<g>
		<g>
			<path class="st1" d="M69.5,91.1c0.8,0,0.8-1.2,0-1.2C68.8,90,68.8,91.1,69.5,91.1L69.5,91.1z"/>
		</g>
	</g>
</g>
<g>
	<g>
		<g>
			<path class="st1" d="M71.4,89c0.8,0,0.8-1.2,0-1.2C70.6,87.9,70.6,89,71.4,89L71.4,89z"/>
		</g>
	</g>
</g>
<g>
	<g>
		<g>
			<path class="st1" d="M72.6,85.7c0,0,0.1,0,0.1,0c0.3,0,0.6-0.3,0.6-0.6s-0.3-0.6-0.6-0.6c0,0-0.1,0-0.1,0c-0.3,0-0.6,0.3-0.6,0.6
				C72,85.5,72.2,85.7,72.6,85.7L72.6,85.7z"/>
		</g>
	</g>
</g>
<g>
	<g>
		<g>
			<path class="st1" d="M73.6,82.7c0.8,0,0.8-1.2,0-1.2S72.9,82.7,73.6,82.7L73.6,82.7z"/>
		</g>
	</g>
</g>
<g>
	<g>
		<g>
			<path class="st1" d="M73.9,79.6c0,0,0,0.1,0,0.1c0,0.3,0.3,0.6,0.6,0.6c0.3,0,0.6-0.3,0.6-0.6c0,0,0-0.1,0-0.1
				c0-0.3-0.3-0.6-0.6-0.6C74.2,79,73.9,79.2,73.9,79.6L73.9,79.6z"/>
		</g>
	</g>
</g>
<g>
	<g>
		<g>
			<path class="st1" d="M75.7,77.4c0,0,0,0.1,0,0.1c0,0.3,0.3,0.6,0.6,0.6s0.6-0.3,0.6-0.6c0,0,0-0.1,0-0.1c0-0.3-0.3-0.6-0.6-0.6
				C76,76.9,75.7,77.1,75.7,77.4L75.7,77.4z"/>
		</g>
	</g>
</g>
<g>
	<g>
		<g>
			<path class="st1" d="M86.7,86.3c0,0,0.1-0.1,0.1-0.1c0.2-0.2,0.2-0.6,0-0.8c-0.2-0.2-0.6-0.2-0.8,0c0,0-0.1,0.1-0.1,0.1
				c-0.2,0.2-0.2,0.6,0,0.8C86.1,86.5,86.5,86.5,86.7,86.3L86.7,86.3z"/>
		</g>
	</g>
</g>
<g>
	<g>
		<g>
			<path class="st1" d="M52.5,85C52.5,85,52.5,85,52.5,85c0,0.1,0,0.2-0.1,0.3c0,0,0,0.1-0.1,0.1c-0.1,0-0.2,0.1-0.3,0.1
				c0.2-0.1,0-0.1-0.5-0.1c0-0.1-0.1-0.2-0.1-0.3c0,0,0-0.1,0-0.1c0,0.3,0.3,0.6,0.6,0.6c0.3,0,0.6-0.3,0.6-0.6
				c0-0.4-0.3-0.6-0.7-0.6s-0.6,0.3-0.7,0.6c0,0.3,0.3,0.6,0.6,0.6C52.3,85.6,52.5,85.3,52.5,85L52.5,85z"/>
		</g>
	</g>
</g>
<g>
	<g>
		<g>
			<path class="st1" d="M50.4,82.8c0,0,0.1-0.1,0.1-0.1c0.2-0.2,0.2-0.6,0-0.8c-0.2-0.2-0.6-0.2-0.8,0c0,0-0.1,0.1-0.1,0.1
				c-0.2,0.2-0.2,0.6,0,0.8C49.8,83.1,50.1,83.1,50.4,82.8L50.4,82.8z"/>
		</g>
	</g>
</g>
<g>
	<g>
		<g>
			<path class="st1" d="M49.5,80c0.8,0,0.8-1.2,0-1.2C48.7,78.8,48.7,80,49.5,80L49.5,80z"/>
		</g>
	</g>
</g>
<g>
	<g>
		<g>
			<path class="st1" d="M47.7,72.5c0.8,0,0.8-1.2,0-1.2S46.9,72.5,47.7,72.5L47.7,72.5z"/>
		</g>
	</g>
</g>
<g>
	<g>
		<g>
			<path class="st1" d="M47.7,69c0.8,0,0.8-1.2,0-1.2S46.9,69,47.7,69L47.7,69z"/>
		</g>
	</g>
</g>
<g>
	<g>
		<g>
			<path class="st1" d="M53.1,62.1c0.8,0,0.8-1.2,0-1.2C52.4,60.9,52.4,62.1,53.1,62.1L53.1,62.1z"/>
		</g>
	</g>
</g>
<g>
	<g>
		<g>
			<path class="st1" d="M55.8,61c0.8,0,0.8-1.2,0-1.2C55.1,59.8,55.1,61,55.8,61L55.8,61z"/>
		</g>
	</g>
</g>
<g>
	<g>
		<g>
			<path class="st1" d="M59,59.9c0.8,0,0.8-1.2,0-1.2S58.2,59.9,59,59.9L59,59.9z"/>
		</g>
	</g>
</g>
<g>
	<g>
		<g>
			<path class="st1" d="M61.9,59.6c0.8,0,0.8-1.2,0-1.2C61.1,58.5,61.1,59.6,61.9,59.6L61.9,59.6z"/>
		</g>
	</g>
</g>
<g>
	<g>
		<g>
			<path class="st1" d="M63.8,58.9c0,0,0,0.1,0,0.1c0,0.3,0.3,0.6,0.6,0.6c0.3,0,0.6-0.3,0.6-0.6c0,0,0-0.1,0-0.1
				c0-0.3-0.3-0.6-0.6-0.6C64.1,58.3,63.8,58.6,63.8,58.9L63.8,58.9z"/>
		</g>
	</g>
</g>
<g>
	<g>
		<g>
			<path class="st1" d="M67.3,59.8c0.8,0,0.8-1.2,0-1.2S66.5,59.8,67.3,59.8L67.3,59.8z"/>
		</g>
	</g>
</g>
<g>
	<g>
		<g>
			<path class="st1" d="M69.4,59.5c0,0,0,0.1,0,0.1c0,0.3,0.3,0.6,0.6,0.6c0.3,0,0.6-0.3,0.6-0.6c0,0,0-0.1,0-0.1
				c0-0.3-0.3-0.6-0.6-0.6C69.7,58.9,69.4,59.2,69.4,59.5L69.4,59.5z"/>
		</g>
	</g>
</g>
<g>
	<g>
		<g>
			<path class="st1" d="M72.6,60.3c0.8,0,0.8-1.2,0-1.2C71.8,59.1,71.8,60.3,72.6,60.3L72.6,60.3z"/>
		</g>
	</g>
</g>
<g>
	<g>
		<g>
			<path class="st1" d="M75.7,60.6c0.8,0,0.8-1.2,0-1.2S75,60.6,75.7,60.6L75.7,60.6z"/>
		</g>
	</g>
</g>
<g>
	<g>
		<g>
			<path class="st1" d="M77.9,61.9c0,0,0.1,0.1,0.1,0.1c0.2,0.2,0.6,0.2,0.8,0c0.2-0.2,0.2-0.6,0-0.8c0,0-0.1-0.1-0.1-0.1
				c-0.2-0.2-0.6-0.2-0.8,0C77.6,61.3,77.6,61.7,77.9,61.9L77.9,61.9z"/>
		</g>
	</g>
</g>
<g>
	<g>
		<g>
			<path class="st1" d="M81.2,62.2c0.8,0,0.8-1.2,0-1.2S80.4,62.2,81.2,62.2L81.2,62.2z"/>
		</g>
	</g>
</g>
<g>
	<g>
		<g>
			<path class="st1" d="M83.1,63c0.8,0,0.8-1.2,0-1.2C82.3,61.8,82.3,63,83.1,63L83.1,63z"/>
		</g>
	</g>
</g>
<g>
	<g>
		<g>
			<path class="st1" d="M80,70.5c0,0,0.1,0.1,0.1,0.1c0.2,0.2,0.6,0.2,0.8,0c0.2-0.2,0.2-0.6,0-0.8c0,0-0.1-0.1-0.1-0.1
				c-0.2-0.2-0.6-0.2-0.8,0C79.8,69.9,79.8,70.2,80,70.5L80,70.5z"/>
		</g>
	</g>
</g>
<g>
	<g>
		<g>
			<path class="st0" d="M89.1,93.2c-0.1-1.8,0.9-3.6,1-5.5c0.1-1.8-0.1-3.6-0.4-5.3c0-0.2-0.3-0.1-0.3,0.1c0.3,1.9,0.5,3.8,0.4,5.7
				c-0.2,1.7-1.2,3.3-1,5C88.8,93.4,89.1,93.4,89.1,93.2L89.1,93.2z"/>
		</g>
	</g>
</g>
<g>
	<g>
		<g>
			<path class="st0" d="M89,64.9c-1-2.1-1.4-4.5-1-6.9c0.4-2,1.3-3.8,2.3-5.6c0.9-1.6,1.8-3.2,2.4-4.9c0.7-2,0.9-4,0.9-6.1
				c0-1,0.1-2.4-0.4-3.4c-0.2-0.4-0.9-1.2-1.4-1c-1.5,0.6,1.9,3.2,1.7,1.5c0-0.8-1.8-1.5-2.3-0.8c-0.7,0.9,1.8,1.4,2.2,1.4
				c0.1,0,0.2-0.2,0.1-0.3c-0.3-0.3-2-1.7-2.4-0.7c-0.5,1,1.8,1.1,2.3,1c0.1,0,0.1-0.2,0-0.3c-0.5-0.3-1.1-0.6-1.7-0.8
				c-0.1,0-0.2,0.1-0.2,0.2c0.4,0.8,1.2,1.1,2,0.8c0.1,0,0.1-0.1,0.1-0.2c-0.5-0.7-1.1-1.1-2-1.3c-0.1,0-0.2,0.1-0.2,0.2
				c0.5,0.8,1.2,1.1,2,0.9c0.1,0,0.1-0.1,0.1-0.2c-0.1-0.3-0.3-0.6-0.5-0.8c-0.2-0.1-1-0.4-1-0.5c0.1-0.2-0.2-0.3-0.3-0.1
				c-0.1,0.2-0.2,0.3,0,0.5c0,0,0.1,0,0.2,0.1c0.1,0,0.2,0.1,0.3,0.1c0.1,0.8-0.2,0.8-0.6,0c0,0.1-0.1,0.1-0.2,0.2
				c0.4,0.1,1.2,0.3,1.4,0.7c0,0.1,0,0.3,0,0.4c-0.5,0-0.9-0.3-1.2-0.8c0,0.1-0.1,0.1-0.2,0.2c0.6,0.2,1.1,0.5,1.6,0.8
				c0-0.1,0-0.2,0-0.3c-0.2,0-0.5,0-0.7,0.1c-0.5-0.5-0.5-0.7-0.2-0.5c0.3,0.1,0.8,0.5,0.9,0.7c0-0.1,0.1-0.2,0.1-0.3
				c-0.3,0-0.6,0-0.9-0.1c-0.3-0.1-0.2-0.1,0.1,0c-0.2-0.1-0.3-0.3-0.5-0.4c0-0.3,0-0.6,0-0.8c0.4,0,0.9,0.9,0.9,1.1
				c0.3,1,0.2,2.2,0.2,3.3c0,3.2-1,6.2-2.5,9c-1.2,2.3-2.6,4.5-3.1,7c-0.4,2.4,0,4.9,1,7.1C88.9,65.2,89.1,65.1,89,64.9L89,64.9z"/>
		</g>
	</g>
</g>
<g>
	<g>
		<g>
			<path class="st0" d="M88,96.2c-0.4,1.8-1.3,4.9,0.2,6.4c0.3,0.4,1,0.7,1.5,0.5c0.5-0.3,0.1-0.9,0-0.5c0.1-0.2-0.2-0.3-0.3-0.1
				c-0.2,0.5,0.3,1.3,0.8,0.9c0.5-0.4-0.1-1.1-0.6-1c-0.1,0-0.1,0.2-0.1,0.2c-0.8,0.3-1.3,0-1.5-0.6c-0.1-0.2-0.1-0.4-0.2-0.6
				c-0.1-0.6-0.1-1.2,0-1.7c0.1-1.1,0.2-2.2,0.5-3.3C88.3,96.1,88,96,88,96.2L88,96.2z"/>
		</g>
	</g>
</g>
<g>
	<g>
		<g>
			<path class="st0" d="M88.9,93.2c-1.7,0.1-2.6,1.9-1.6,3.3c0.1,0.2,0.4,0,0.3-0.1c-0.8-1.2-0.1-2.7,1.3-2.8
				C89.1,93.5,89.1,93.2,88.9,93.2L88.9,93.2z"/>
		</g>
	</g>
</g>
<g>
	<g>
		<g>
			<path class="st0" d="M87.4,92.8c-0.5,0.7-1.1,1.6-0.9,2.5c0.2,0.7,0.8,1.3,1.6,1.2c0.2,0,0.2-0.3,0-0.3c-0.8,0.1-1.4-0.6-1.4-1.3
				c0-0.7,0.4-1.3,0.9-1.8C87.7,92.8,87.5,92.6,87.4,92.8L87.4,92.8z"/>
		</g>
	</g>
</g>
<g>
	<g>
		<g>
			<path class="st0" d="M87.8,92.8c-1.1-0.2-2.2,0.7-2.1,1.8c0.1,1.1,1.4,1.7,2.4,1.4c0.2-0.1,0.1-0.4-0.1-0.3
				c-0.8,0.3-1.7-0.1-1.9-0.9c-0.3-1,0.7-1.9,1.7-1.8C87.9,93.1,88,92.8,87.8,92.8L87.8,92.8z"/>
		</g>
	</g>
</g>
<g>
	<path class="st0" d="M100.5,51.1l-7.7-13.3l-15.4-1.3l10.4-11.3l-3.5-14.9l14,6.3l13.2-7.9l-1.6,15.2l11.7,10L106.4,37L100.5,51.1z
		 M78.9,36l14.3,1.2l7.1,12.3l5.5-13.1l14-2.9l-10.9-9.3l1.5-14.1l-12.3,7.4l-13.1-5.8l3.3,13.8L78.9,36z"/>
</g>
<g>
	<g>
		<g>
			<path class="st0" d="M91.6,39.5c0.2,0.9,0.4,1.8,0.5,2.8c0.2-0.1,0.5-0.3,0.7-0.4c-0.4-0.3-0.8-0.5-1.3-0.6c-0.2,0-0.5,0-0.7,0
				c-0.8,0-0.7-0.2-1-0.7c-0.4-0.8-1-1.5-1.9-1c-0.5,0.2-0.1,1,0.5,0.8c0.9-0.4,1.9-0.7,2.8-0.9c0.6-0.1,0.3-1-0.2-0.9
				C90,38.7,89,39,88,39.4c0.1,0.3,0.3,0.5,0.5,0.8c0.3-0.2,1,1.5,1.4,1.7c0.8,0.5,1.6-0.2,2.4,0.5c0.3,0.3,0.8,0,0.7-0.4
				c-0.2-0.9-0.4-1.8-0.5-2.8C92.3,38.7,91.5,38.9,91.6,39.5L91.6,39.5z"/>
		</g>
	</g>
</g>
<g>
	<g>
		<g>
			<path class="st0" d="M83.4,32.3c-0.8,0.8-1.6,1.5-2.4,2.3c-0.1,0.1,0,0.2,0.1,0.3c1.2,0,2.3,0.1,3.5,0.2c0.2,0,0.2-0.3,0-0.3
				c-1.2,0-2.3-0.1-3.5-0.2c0,0.1,0.1,0.2,0.1,0.3c0.8-0.8,1.6-1.5,2.4-2.3C83.8,32.4,83.6,32.2,83.4,32.3L83.4,32.3z"/>
		</g>
	</g>
</g>
<g>
	<g>
		<g>
			<path class="st0" d="M89.8,15c-0.9-0.6-1.9-1.2-2.8-1.8c-0.1-0.1-0.3,0-0.2,0.2c0.4,1.5,0.9,2.9,1.6,4.2c0.1,0.2,0.3,0,0.3-0.1
				c-0.6-1.4-1.1-2.8-1.5-4.2c-0.1,0-0.1,0.1-0.2,0.2c0.9,0.6,1.9,1.2,2.8,1.8C89.8,15.4,89.9,15.2,89.8,15L89.8,15z"/>
		</g>
	</g>
</g>
<g>
	<g>
		<g>
			<path class="st0" d="M108.8,15.4c0.2-1.2,0.4-2.3,0.5-3.5c0-0.1-0.1-0.3-0.2-0.2c-1,0.8-1.9,1.6-2.7,2.5
				c-0.1,0.1,0.1,0.4,0.2,0.2c0.8-0.9,1.7-1.7,2.6-2.4c-0.1,0-0.1-0.1-0.2-0.2c-0.2,1.2-0.4,2.3-0.5,3.5
				C108.5,15.5,108.8,15.5,108.8,15.4L108.8,15.4z"/>
		</g>
	</g>
</g>
<g>
	<g>
		<g>
			<path class="st1" d="M92.3,38.2c0,0-0.1,0-0.2,0c-0.4,0-0.4,0.6,0,0.6c0,0,0.1,0,0.2,0C92.7,38.8,92.7,38.2,92.3,38.2L92.3,38.2z
				"/>
		</g>
	</g>
</g>
<g>
	<g>
		<g>
			<path class="st0" d="M98.3,43.5c0.5,1.1,1,2.3,1.6,3.3c0,0.1,0.2,0.1,0.3,0c0.5-1.1,0.8-2.2,1-3.4c0-0.2-0.3-0.3-0.3-0.1
				c-0.2,1.1-0.5,2.2-1,3.3c0.1,0,0.2,0,0.3,0c-0.6-1.1-1.1-2.2-1.5-3.3C98.6,43.2,98.3,43.3,98.3,43.5L98.3,43.5z"/>
		</g>
	</g>
</g>
<g>
	<g>
		<g>
			<path class="st0" d="M114.3,30.4c0.9,0.9,1.8,1.7,2.9,2.3c0-0.1,0-0.2,0-0.3c-1.6,0.3-3.2,0.5-4.8,0.8c-0.2,0-0.1,0.3,0.1,0.3
				c1.6-0.3,3.2-0.5,4.8-0.8c0.1,0,0.1-0.2,0-0.3c-1.1-0.6-2-1.4-2.8-2.3C114.4,30,114.1,30.2,114.3,30.4L114.3,30.4z"/>
		</g>
	</g>
</g>
</svg>
