<?xml version="1.0" encoding="utf-8"?>
<!-- Generator: Adobe Illustrator 24.0.1, SVG Export Plug-In . SVG Version: 6.00 Build 0)  -->
<svg version="1.1" id="Layer_1" xmlns="http://www.w3.org/2000/svg" xmlns:xlink="http://www.w3.org/1999/xlink" x="0px" y="0px"
	 viewBox="0 0 141.7 141.7" style="enable-background:new 0 0 141.7 141.7;" xml:space="preserve">
<style type="text/css">
	.st0{fill:#070707;}
</style>
<g>
	<g>
		<g>
			<path class="st0" d="M102.9,70.2c-0.3,2.2-0.2,4.6-1.5,6.5c-0.3,0.4,0.4,0.8,0.6,0.4c1.4-2,1.3-4.6,1.6-6.9
				C103.6,69.7,102.9,69.7,102.9,70.2L102.9,70.2z"/>
		</g>
	</g>
	<g>
		<g>
			<path class="st0" d="M27.4,103.2c-2-0.7-4.9-0.4-5.4,2.1c-0.8,3.7,5.5,3,7.4,3.4c0.2,0.1,0.4-0.3,0.1-0.4
				c-2.1-0.4-4.2,0.1-6.2-1.1c-2.2-1.3-0.3-3.5,1.3-3.9c0.9-0.2,1.9-0.1,2.8,0.2C27.5,103.7,27.7,103.3,27.4,103.2L27.4,103.2z"/>
		</g>
	</g>
	<g>
		<g>
			<g>
				<path class="st0" d="M93.4,112.9c0.7,2,0.3,4.6-2.2,4.9c-2.4,0.3-3.5-2.8-4-4.6c-0.7-2.2-1.1-5.1,1.1-6.5
					c2.8-1.9,2.9,3.2,2.1,4.6c-0.1,0.2,0.2,0.4,0.3,0.1c0.9-1.5,1.1-5.3-1.4-5.5c-1.1-0.1-2.2,1-2.6,1.9c-0.7,1.4-0.4,3.3,0,4.7
					c0.5,2.3,1.7,5.6,4.6,5.6c2.7,0,3.2-3.3,2.5-5.3C93.7,112.6,93.4,112.7,93.4,112.9L93.4,112.9z"/>
			</g>
		</g>
		<g>
			<g>
				<path class="st0" d="M88.8,106.3c1-0.7,2-1.2,3.2-0.4c0.9,0.6,1.1,2.3,1.3,3.3c0.1,1.3-0.3,2.6,0.2,3.8c0.1,0.2,0.4,0.1,0.4-0.1
					c-0.4-1.2-0.1-2.5-0.2-3.7c-0.1-1.1-0.4-2.3-1.1-3.2c-1-1.5-2.9-0.7-4,0C88.4,106.1,88.6,106.4,88.8,106.3L88.8,106.3z"/>
			</g>
		</g>
	</g>
	<g>
		<g>
			<path class="st0" d="M47.7,84.5c1.4-1.6,5-2.9,3.6-5.6c-1.4-2.7-5.3-1-7.2-0.1c-2,0.9-5.9,2.5-4.7,5.4c1.2,2.8,5.6-1.2,6.6-1.9
				c0.2-0.1,0-0.4-0.2-0.3c-1.1,0.8-5.9,5-6.3,1.2c-0.2-2.1,3.5-3.5,5.1-4.2c2-0.9,5.7-2.3,6.7,0.6c0.7,1.9-2.8,3.4-3.8,4.6
				C47.3,84.5,47.6,84.7,47.7,84.5L47.7,84.5z"/>
		</g>
	</g>
	<g>
		<g>
			<path class="st0" d="M40.6,85.4c2.3,2.7,5.1,1.1,7.2-0.9c0.2-0.2-0.1-0.4-0.3-0.3c-1.9,1.8-4.6,3.5-6.8,0.9
				C40.7,85,40.4,85.2,40.6,85.4L40.6,85.4z"/>
		</g>
	</g>
	<g>
		<g>
			<path class="st0" d="M43.8,35.6c-2-1.1-3.9-2.6-4.4-4.9c-0.4-1.8,0.4-3.7,1.7-5c1.5-1.5,3.8-2.1,5.9-2.1c1.4,0,2.7,0.3,4,0.7
				c1.1,0.3,3.7,1.3,3.7,2.7c0,0.5,0.8,0.5,0.7,0c-0.1-2.7-5-3.8-7-4.1c-2.7-0.3-5.3,0.2-7.5,1.9c-1.7,1.3-2.7,3.5-2.4,5.7
				c0.4,2.7,2.6,4.6,4.8,5.7C43.8,36.4,44.2,35.8,43.8,35.6L43.8,35.6z"/>
		</g>
	</g>
	<g>
		<path class="st0" d="M49.9,30.5c0.3-1.1-0.4-2.3-1.7-2.6s-2.5,0.2-2.9,1.3s0.4,2.3,1.7,2.6C48.3,32.2,49.5,31.6,49.9,30.5z"/>
	</g>
	<g>
		<g>
			<path class="st0" d="M61.9,24.6c0.4-2.7,1.5-5.8,3.9-7.4c1.4-0.9,3.3-0.7,4.7,0.2c1.8,1.1,1.9,3.6,1.2,5.3
				c-0.2,0.4,0.5,0.6,0.7,0.2c1.4-3.5-1-7.6-5.1-7c-3.8,0.6-5.7,5-6.2,8.4C61.2,24.9,61.9,25.1,61.9,24.6L61.9,24.6z"/>
		</g>
	</g>
	<g>
		<path class="st0" d="M78,64.4c-7.9,0-14.2-6.2-14.2-13.8S70.1,36.8,78,36.8S92.2,43,92.2,50.6S85.8,64.4,78,64.4z M78,37.3
			c-7.6,0-13.8,6-13.8,13.4S70.3,64,78,64s13.8-6,13.8-13.4S85.6,37.3,78,37.3z"/>
	</g>
	<g>
		<path class="st0" d="M87,48c-2.5,0-4.6,2-4.6,4.4c0,2.5,2,4.4,4.6,4.4c2.5,0,4.6-2,4.6-4.4C91.6,50,89.6,48,87,48z M88.9,55.3
			c-0.7,0-1.3-0.6-1.3-1.3c0-0.7,0.6-1.3,1.3-1.3c0.7,0,1.3,0.6,1.3,1.3C90.2,54.8,89.6,55.3,88.9,55.3z"/>
	</g>
	<g>
		<g>
			<path class="st0" d="M96.7,54.9c0.1,0,0.3,0,0.4-0.1c0-0.1-0.1-0.2-0.1-0.4c-2.5,0.8-5.9,2.8-6,5.7c-0.1,3.2,4,3.6,6.3,3.4
				c1.6-0.2,3.3-0.6,4.9-1c1.3-0.3,3.1-0.1,4.4-0.8c3.3-1.7-0.7-5.5-2.3-6.7c-0.2-0.1-0.4,0.2-0.2,0.3c1.1,0.8,2.1,1.8,2.9,2.9
				c0.6,1,0.7,2.3-0.4,3c-0.6,0.4-1.4,0.4-2,0.5c-2.1,0.2-4.2,0.8-6.2,1.2c-2.5,0.5-6.6,0.6-6.9-2.9c-0.3-2.7,3.6-4.7,5.7-5.3
				c0.2-0.1,0.1-0.4-0.1-0.4c-0.1,0-0.3,0-0.4,0.1C96.3,54.6,96.5,54.9,96.7,54.9L96.7,54.9z"/>
		</g>
	</g>
	<g>
		<path class="st0" d="M107.6,53.4c0-1.7-2.6-3.1-5.8-3.1s-5.8,1.4-5.8,3.1c0,1.7,2.6,3.1,5.8,3.1C105,56.5,107.6,55.2,107.6,53.4z"
			/>
	</g>
	<g>
		<g>
			<path class="st0" d="M102.3,62.4c0,2.3,1.1,7.5-1.8,8.7c-2.2,0.9-3.4-1.5-3.7-3.3c-0.2-1.4,0-3,0.4-4.4c0.1-0.2-0.3-0.3-0.4-0.1
				c-0.8,2.8-1.1,8.4,3.1,8.2c3.7-0.2,2.6-6.9,2.5-9.1C102.7,62.2,102.3,62.2,102.3,62.4L102.3,62.4z"/>
		</g>
	</g>
	<g>
		<g>
			<path class="st0" d="M102.4,69.9c4,0.9,2.5-5.6,2.5-7.7c0-0.2-0.4-0.2-0.4,0c0,1.9,1.5,8.2-2,7.4
				C102.2,69.5,102.1,69.9,102.4,69.9L102.4,69.9z"/>
		</g>
	</g>
	<g>
		<path class="st0" d="M111.9,46.4c-2.5,0-4.6,2-4.6,4.4c0,2.5,2,4.4,4.6,4.4c2.5,0,4.6-2,4.6-4.4C116.5,48.4,114.4,46.4,111.9,46.4
			z M113.8,53.7c-0.7,0-1.3-0.6-1.3-1.3c0-0.7,0.6-1.3,1.3-1.3c0.7,0,1.3,0.6,1.3,1.3S114.5,53.7,113.8,53.7z"/>
	</g>
	<g>
		<g>
			<g>
				<path class="st0" d="M103,71c-0.7,4.6-2.6,8.8-5.5,12.5c-0.3,0.4,0.2,0.9,0.5,0.5c3-3.7,4.9-8.1,5.7-12.8
					C103.8,70.7,103.1,70.5,103,71L103,71z"/>
			</g>
		</g>
	</g>
	<g>
		<g>
			<g>
				<path class="st0" d="M105,51.6c-0.3-7.5-3.7-15-9.7-19.7c-2.7-2.1-5.9-3.6-9.1-4.8c-3.8-1.5-7.7-2.9-11.7-3.6
					c-4.4-0.8-8.9-0.6-13,1.1c-0.4,0.2-0.1,0.8,0.4,0.6c4.9-2.1,10.2-1.7,15.2-0.5c4.4,1.1,8.8,2.7,12.9,4.6
					c8.6,4.2,14,12.5,14.4,22.1C104.3,52,105.1,52,105,51.6L105,51.6z"/>
			</g>
		</g>
	</g>
	<g>
		<g>
			<g>
				<path class="st0" d="M61.7,24.4c-7.2,2.5-13.6,6.7-18.8,12.2c-5.7,5.9-9.2,13-11.5,20.8C30.1,61.7,29,66,28,70.4
					c-1.1,4.4-2,8.8-2.5,13.3c-0.9,8.4,0.2,17.1,3.7,24.8c1.4,3.2,3.4,6.3,6.1,8.6c2.9,2.5,6.5,3.9,10.2,4.9
					c8.8,2.4,17.9,3.8,27.1,3.7c8.5-0.1,17.1-1.5,25-4.8c6.7-2.9,12.5-7.8,14-15.2c1.6-8.2-2.2-16.2-9.4-20.4
					c-8.3-4.9-18.4-4.2-27.6-3.4c-0.5,0-0.5,0.8,0,0.7c8.3-0.7,17.1-1.4,24.8,2.1c6.9,3.1,11.7,9.4,11.7,17.1
					c0.1,17.5-21.4,22.4-35.2,23.1c-8.7,0.5-17.3-0.6-25.8-2.5c-3.9-0.9-8-1.8-11.5-3.8c-3.1-1.8-5.6-4.6-7.3-7.7
					c-4-7-5.6-15.4-5.3-23.4c0.3-8.5,2.7-16.8,4.7-25c2.2-8.7,5.2-16.9,11.1-23.7c5.4-6.2,12.3-11,20.1-13.7
					C62.3,24.9,62.1,24.2,61.7,24.4L61.7,24.4z"/>
			</g>
		</g>
	</g>
	<g>
		<g>
			<g>
				<path class="st0" d="M112.2,114c-1.3,1.6-3.7,2.7-5.3,0.8c-0.1-0.1-0.2-0.3-0.3-0.4c-0.1,0.1-0.1,0.2-0.2,0.3
					c0.1,0.1,0.1,0.3,0.2,0.4c1.5,2.3,4.5,0.8,5.8-0.8C112.6,114,112.3,113.8,112.2,114z"/>
			</g>
			<g>
				<path class="st0" d="M115.8,106.8c-0.5-1-2-1.3-3-1.2c-0.6,0.1-1.1,0.3-1.6,0.6c0,0.2-0.1,0.4-0.2,0.5c0,0,0,0,0,0.1
					c1.1-0.7,2.4-1,3.7-0.5c3.1,1.3-1.1,4.2-2.7,4.3c-0.2,0-0.2,0.4,0.1,0.4C113.7,110.8,117,108.9,115.8,106.8z"/>
			</g>
		</g>
		<g>
			<g>
				<path class="st0" d="M115.2,106.4c1.1,0.5,2.1,1.1,2.1,2.5c0,1.1-1.3,2.2-2.1,2.9c-1,0.8-2.3,1.2-3.1,2.3
					c-0.1,0.2,0.1,0.4,0.3,0.2c0.8-1,2-1.5,3.1-2.2c0.9-0.7,1.7-1.6,2.1-2.6c0.7-1.6-0.9-2.8-2.2-3.4
					C115.2,106,115,106.3,115.2,106.4L115.2,106.4z"/>
			</g>
		</g>
	</g>
	<g>
		<g>
			<path class="st0" d="M102.6,37.8c-0.9,0-1.7,0.1-2.5,0.2c0.1,0.1,0.2,0.3,0.3,0.4c0.7-0.1,1.5-0.2,2.3-0.2
				c7.6,0,13.8,6,13.8,13.4c0,6.6-4.9,12.1-11.4,13.2v0.4c6.7-1.1,11.8-6.8,11.8-13.6C116.8,43.9,110.4,37.8,102.6,37.8z"/>
		</g>
	</g>
	<g>
		<g>
			<path class="st0" d="M110.9,77c-0.4-3-5.6-0.4-6.9,0.1c-0.2,0.1-0.1,0.4,0.1,0.4c1.3-0.5,7-3.2,6.4,0.5c-0.4,2.1-4.4,2.4-6,2.6
				c-1.2,0.2-2.8,0.4-4.1,0c0,0.1-0.1,0.1-0.1,0.2c0,0.1-0.1,0.1-0.1,0.2c1.5,0.4,3.5,0.1,4.7-0.1C107.1,80.5,111.3,80.1,110.9,77z"
				/>
		</g>
	</g>
	<g>
		<g>
			<path class="st0" d="M110.1,75.6c-1.4-3.2-4.6-2.5-7.2-1.1l0,0c0,0.1,0,0.2,0,0.3c0.1,0.1,0.1,0.1,0.2,0.1c2.4-1.3,5.4-2.1,6.7,1
				C109.9,76,110.2,75.8,110.1,75.6z"/>
		</g>
	</g>
</g>
</svg>
