<?xml version="1.0" encoding="utf-8"?>
<!-- Generator: Adobe Illustrator 24.0.1, SVG Export Plug-In . SVG Version: 6.00 Build 0)  -->
<svg version="1.1" id="Layer_1" xmlns="http://www.w3.org/2000/svg" xmlns:xlink="http://www.w3.org/1999/xlink" x="0px" y="0px"
	 viewBox="0 0 141.7 141.7" style="enable-background:new 0 0 141.7 141.7;" xml:space="preserve">
<style type="text/css">
	.st0{fill:#070707;}
</style>
<g id="Layer_1_1_">
</g>
<g id="Layer_1_2_">
</g>
<g id="Layer_1_3_">
</g>
<g id="Layer_1_4_">
</g>
<g id="Layer_1_5_">
</g>
<g id="Layer_3">
</g>
<g id="Layer_3_1_">
</g>
<g>
	<g>
		<g>
			<path class="st0" d="M51.4,34.3c-0.6-2.7-1.7-5.4-1.4-8.2c0.4-3.3,3.3-5.2,6.3-6.1c2.5-0.8,5.1-0.9,7.6-1.3c3-0.4,6-0.7,9-0.9
				c6.3-0.4,12.6-0.4,18.9-0.3c6.2,0.1,12.4,0.2,18.6,0.7c1.4,0.1,2.7,0.3,4.1,0.4c1.5,0.1,3.1,0.1,4.6,0.7c1.4,0.6,3,1.6,3.8,3
				c0.8,1.4,1.1,3.3,1.6,4.8c1.6,5.9,2.5,12,3,18.1c0.4,6,0.4,12.1,0.2,18.1c0,1.5-0.2,2.9-0.1,4.4c0,0.4,0.2,0.9,0.1,1.4
				c-0.3,1.1-1.2,1.8-2.2,2.3c-1.1,0.6-2.3,0.8-3.5,1.1c-1.3,0.3-2.5,0.9-3.7,1.2c-3.2,1-6.8,1.4-10.1,1.8
				c-3.5,0.4-6.9,0.7-10.4,0.7c-7.1,0-14.2-0.5-21.2,0c-0.2,0-0.2,0.4,0,0.4c7.1-0.5,14.2,0,21.2,0c6.3,0,12.9-0.7,19.1-2.1
				c1.5-0.4,2.8-0.9,4.3-1.4c1.3-0.4,2.6-0.6,3.9-1.1c0.9-0.4,1.9-0.9,2.6-1.6c0.7-0.7,0.6-1.5,0.5-2.4c-0.1-3.2,0.2-6.4,0.2-9.6
				c0-3.4,0-6.8-0.2-10.1c-0.3-6.5-1.1-13-2.7-19.3c-0.4-1.6-0.9-3.2-1.4-4.8c-0.4-1.2-0.7-2.2-1.5-3.1c-1.9-2-4.2-2.5-6.8-2.7
				c-6.7-0.6-13.5-0.7-20.2-1c-6.9-0.3-13.9-0.3-20.9,0.1c-3.7,0.2-7.4,0.7-11.1,1.1C60.4,18.7,57.6,19,55,20
				c-2.5,1-4.7,2.8-5.2,5.5c-0.6,2.9,0.7,5.9,1.3,8.8C51.1,34.6,51.5,34.5,51.4,34.3L51.4,34.3z"/>
		</g>
	</g>
</g>
<g>
	<g>
		<g>
			<path class="st0" d="M75.1,79c11-0.1,22-0.4,32.9-1c5.4-0.3,10.9-0.4,16.3-1.1c4.1-0.5,2.7-4.4,3.4-7.3c0.1-0.2-0.3-0.3-0.4-0.1
				c-0.4,1.6,0,3.4-0.4,5c-0.7,2.7-4.7,2.3-6.9,2.4c-5,0.4-10,0.7-15,0.9c-10,0.5-20,0.8-30,0.9C74.8,78.6,74.8,79,75.1,79L75.1,79z
				"/>
		</g>
	</g>
</g>
<g>
	<g>
		<g>
			<path class="st0" d="M47.8,34.1c-0.7-3.9-1-7.8-1-11.7c0-0.2-0.4-0.2-0.4,0c0,4,0.4,7.9,1.1,11.8C47.5,34.4,47.9,34.3,47.8,34.1
				L47.8,34.1z"/>
		</g>
	</g>
</g>
<g>
	<g>
		<g>
			<path class="st0" d="M52,17.5c20.5-2.5,41.2-4.2,61.9-4.9c0.2,0,0.2-0.4,0-0.4C93.1,13,72.5,14.6,52,17.2
				C51.7,17.2,51.7,17.5,52,17.5L52,17.5z"/>
		</g>
	</g>
</g>
<g>
	<g>
		<g>
			<path class="st0" d="M127.8,19.6c1.4,16.4,2.8,32.8,4.2,49.3c0,0.2,0.4,0.2,0.4,0c-1.4-16.4-2.8-32.8-4.2-49.3
				C128.2,19.4,127.8,19.4,127.8,19.6L127.8,19.6z"/>
		</g>
	</g>
</g>
<g>
	<g>
		<g>
			<path class="st0" d="M73.7,81.9c9.9-0.4,19.7-0.8,29.5-1.2c5-0.2,10-0.4,15.1-0.6c2.5-0.1,4.9-0.1,7.4-0.3
				c1.1-0.1,2.4-0.3,3.1-1.1c0.6-0.7,0.5-1.7-0.2-2.3c-0.9-0.7-2.3-0.6-3.2,0c-0.2,0.1,0,0.4,0.2,0.3c1-0.6,3.5-0.7,3,1.2
				c-0.4,1.3-1.8,1.4-3,1.5c-2.3,0.2-4.7,0.2-7.1,0.3c-5,0.2-10,0.4-15.1,0.6c-9.9,0.4-19.9,0.8-29.8,1.2
				C73.5,81.5,73.5,81.9,73.7,81.9L73.7,81.9z"/>
		</g>
	</g>
</g>
<g>
	<g>
		<g>
			<path class="st0" d="M128.7,77.2c0.1,0.5,0.2,1,0.3,1.6c0.1,0.8,0.4,1.1-0.4,1.4c-1.1,0.4-2.7,0.2-3.8,0.2
				c-2.3,0.1-4.7,0.3-7,0.4c-4.9,0.3-9.8,0.5-14.7,0.7C93.3,81.8,83.5,82,73.7,82c-0.2,0-0.2,0.4,0,0.4c18.6,0,37.2-0.6,55.8-1.9
				c0.1,0,0.2-0.1,0.2-0.2c-0.2-1-0.4-2.1-0.6-3.1C129.1,76.9,128.7,77,128.7,77.2L128.7,77.2z"/>
		</g>
	</g>
</g>
<g>
	<g>
		<g>
			<path class="st0" d="M48.2,27.7c-0.1-0.3,0.1-0.6,0.4-0.5c0,0-0.1,0-0.1-0.1c0.2,0.3,0.2,0.7-0.1,0.9c0.1,0,0.2,0.1,0.3,0.1
				c-0.1-0.3-0.2-0.6-0.3-0.8c-0.1-0.2-0.4-0.1-0.4,0.1c0.1,0.3,0.2,0.6,0.3,0.8c0,0.1,0.2,0.2,0.3,0.1c0.4-0.3,0.7-1.1,0.2-1.5
				c-0.2-0.2-0.6,0-0.7,0.1c-0.2,0.2-0.3,0.5-0.2,0.8C47.9,28,48.3,27.9,48.2,27.7L48.2,27.7z"/>
		</g>
	</g>
</g>
<g>
	<g>
		<g>
			<path class="st0" d="M48.5,19.6c-0.3,0.2-0.3-0.2-0.3-0.4c0-0.1,0.1-0.2,0.2-0.3c0.1-0.1,0.3-0.2,0.5-0.3
				c0.4-0.1,0.8,0.1,0.9,0.5c0.1,0.4-0.1,0.8-0.4,0.9c-0.4,0.1-0.9-0.4-0.7-0.8c0.1-0.2-0.3-0.3-0.4-0.1c-0.2,0.7,0.6,1.4,1.3,1.2
				c0.7-0.2,0.8-1.1,0.5-1.6c-0.4-0.7-1.3-0.6-1.8-0.2c-0.3,0.3-0.5,0.7-0.3,1.1c0.1,0.3,0.5,0.4,0.8,0.2
				C48.9,19.8,48.7,19.5,48.5,19.6L48.5,19.6z"/>
		</g>
	</g>
</g>
<g>
	<g>
		<g>
			<path class="st0" d="M123.2,14.9c0.3-0.5,0.7-0.9,1.2-1c0.6-0.1,1.2,0.2,1.3,0.8c0.1,0.7-0.5,1-1.1,1c-0.2,0-0.5,0-0.7-0.1
				c-0.1,0-1-0.3-0.7-0.6c0.2-0.2-0.1-0.4-0.3-0.3c-0.6,0.6,0.4,1.2,1,1.3c0.7,0.1,1.8,0.1,2.1-0.8c0.3-0.7-0.3-1.5-1-1.7
				c-0.9-0.3-1.8,0.4-2.2,1.2C122.8,14.9,123.1,15.1,123.2,14.9L123.2,14.9z"/>
		</g>
	</g>
</g>
<g>
	<g>
		<g>
			<path class="st0" d="M117.3,14.7c-0.1-0.2,0.1-0.7,0.4-0.5c0.3,0.1,0,0.4-0.1,0.3C117.4,14.3,117.2,14.5,117.3,14.7
				c0.2,0.2,0.6,0.1,0.7,0c0.2-0.2,0.2-0.5-0.1-0.7c-0.2-0.2-0.6-0.2-0.8,0c-0.3,0.2-0.4,0.6-0.3,0.9C117,15.1,117.4,15,117.3,14.7
				L117.3,14.7z"/>
		</g>
	</g>
</g>
<g>
	<g>
		<g>
			<path class="st0" d="M125.1,21.5c-0.1-0.3,0.3-0.7,0.5-0.5c0.2,0.2,0,0.7-0.3,0.7c0.1,0.1,0.1,0.1,0.1,0.2c0-0.3,0-0.5,0-0.8
				c0-0.2-0.4-0.2-0.4,0c0,0.3,0,0.5,0,0.8c0,0.1,0.1,0.2,0.1,0.2c0.7,0.1,1.2-0.9,0.6-1.3c-0.6-0.5-1.5,0.4-1.1,1
				C124.9,21.9,125.3,21.7,125.1,21.5L125.1,21.5z"/>
		</g>
	</g>
</g>
<g>
	<g>
		<g>
			<path class="st0" d="M129.6,75.1c-0.1-0.6,0.4-1.3,1-1.3c0.5,0,0.9,0.4,0.9,0.9c0.1,1.2-1.6,1.2-1.8,0.1c0-0.2-0.4-0.1-0.4,0.1
				c0.1,0.7,0.8,1.1,1.5,1c0.7-0.1,1.1-0.7,1-1.4c-0.1-0.7-0.7-1.2-1.4-1.2c-0.8,0.1-1.4,0.9-1.2,1.8
				C129.3,75.5,129.7,75.4,129.6,75.1L129.6,75.1z"/>
		</g>
	</g>
</g>
<g>
	<g>
		<g>
			<path class="st0" d="M129.7,69.1c0-0.2,0.4-0.3,0.6-0.1c0.2,0.2-0.3,0.5-0.5,0.4c-0.2-0.1-0.4,0.1-0.3,0.3
				c0.5,0.4,1.4-0.1,1.1-0.7c-0.3-0.5-1.2-0.4-1.3,0.1C129.3,69.2,129.6,69.4,129.7,69.1L129.7,69.1z"/>
		</g>
	</g>
</g>
<g>
	<g>
		<g>
			<path class="st0" d="M127.4,81.1c-1.2,13.9-1.8,27.8-1.8,41.7c0,0.2,0.4,0.2,0.4,0c0-13.9,0.7-27.8,1.8-41.7
				C127.8,80.9,127.4,80.9,127.4,81.1L127.4,81.1z"/>
		</g>
	</g>
</g>
<g>
	<g>
		<g>
			<path class="st0" d="M124.9,81.7c-0.7,13.6-1.5,27.3-2.2,40.9c0,0.2,0.4,0.2,0.4,0c0.7-13.6,1.5-27.3,2.2-40.9
				C125.3,81.5,125,81.5,124.9,81.7L124.9,81.7z"/>
		</g>
	</g>
</g>
<g>
	<g>
		<g>
			<path class="st0" d="M122.3,128.1c0.7-0.3,1.5-0.5,2.3-0.6c0.4,0,0.8-0.1,1.2,0c0.1,0,0.3,0,0.4,0c0.7-0.1,1,0.2,0.9,1
				c0.3,1.1,0.2,1-0.7,1.2c-0.3,0.1-0.6,0.1-0.9,0.2c-0.4,0.1-0.8,0.1-1.2,0.1c-0.2,0-0.4,0-0.7-0.1c-0.8-0.1-1.2-0.7-0.9-1.6
				c0.2,0,0.2-0.4,0-0.4c-1.2-0.1-0.3,1.7,0.1,2c1.1,0.8,3.3,0.3,4.5-0.2c1-0.4,1.4-1.5,0.4-2.2c-1.4-1.1-4.1-0.4-5.5,0.2
				C122,127.8,122,128.2,122.3,128.1L122.3,128.1z"/>
		</g>
	</g>
</g>
<g>
	<g>
		<g>
			<path class="st0" d="M122,128.4c0-1.9,0.2-3.7,0.6-5.5c0.1-0.2-0.3-0.3-0.4-0.1c-0.4,1.8-0.6,3.7-0.6,5.6
				C121.7,128.6,122,128.6,122,128.4L122,128.4z"/>
		</g>
	</g>
</g>
<g>
	<g>
		<g>
			<path class="st0" d="M127.5,128.1c-0.5-1.9-1.1-3.7-1.8-5.5c-0.1-0.2-0.4-0.1-0.4,0.1c0.7,1.8,1.3,3.6,1.8,5.5
				C127.2,128.4,127.6,128.3,127.5,128.1L127.5,128.1z"/>
		</g>
	</g>
</g>
<g>
	<g>
		<g>
			<path class="st0" d="M123.4,123.1c-0.2-0.2-0.5-0.4-0.7-0.6c-0.2-0.1-0.4,0.1-0.3,0.3c0.8,0.9,2.3,0.7,2.8-0.3
				c0.1-0.2-0.2-0.4-0.3-0.2c-0.4,0.8-1.7,1-2.3,0.3c-0.1,0.1-0.2,0.2-0.3,0.3c0.2,0.2,0.5,0.4,0.7,0.6
				C123.4,123.5,123.6,123.3,123.4,123.1L123.4,123.1z"/>
		</g>
	</g>
</g>
<g>
	<g>
		<g>
			<path class="st0" d="M122.6,122.9c0.1-1,0.2-2,0.1-3c-0.1-0.9-1.2-3.8,0.2-4.1c0.2-0.1,0.1-0.4-0.1-0.4c-0.8,0.2-1.1,0.8-1.1,1.7
				c0,0.6,0.3,1.2,0.4,1.8c0.3,1.3,0.3,2.6,0.1,3.9C122.2,123,122.6,123.1,122.6,122.9L122.6,122.9z"/>
		</g>
	</g>
</g>
<g>
	<g>
		<g>
			<path class="st0" d="M89.1,118.8c10.5-0.6,21-1.3,31.5-1.9c0.2,0,0.2-0.4,0-0.4c-10.5,0.6-21,1.3-31.5,1.9
				C88.9,118.4,88.9,118.8,89.1,118.8L89.1,118.8z"/>
		</g>
	</g>
</g>
<g>
	<g>
		<g>
			<path class="st0" d="M126.3,116.9c1.4-0.1,2.8-0.3,4.2-0.5c0.2,0,0.2-0.4,0-0.4c-1.4,0.1-2.8,0.3-4.2,0.5
				C126.1,116.6,126.1,117,126.3,116.9L126.3,116.9z"/>
		</g>
	</g>
</g>
<g>
	<g>
		<g>
			<path class="st0" d="M108.8,78.1c-1.5-0.3-3.1-0.3-4.5,0.4c-0.7,0.4-0.8,1.2,0,1.5c0.7,0.3,1.7,0.1,2.4,0.1
				c0.7,0,1.5,0.1,2.1-0.1c0.7-0.3,0.9-1.3,0.1-1.7c-0.2-0.1-0.4,0.2-0.2,0.3c0.1,0.8-0.1,1.1-0.6,1.1c-0.2,0-0.4,0-0.6,0
				c-0.4,0-0.7,0-1.1,0c-0.3,0-0.6,0-0.9,0c-0.2,0-0.4,0-0.6,0c-0.4,0.1-0.7,0-0.7-0.5c-0.2-0.6,0.1-0.6,0.7-0.7
				c0.3-0.1,0.7-0.2,1-0.2c0.9-0.1,1.8-0.1,2.6,0.1C108.9,78.6,109,78.2,108.8,78.1L108.8,78.1z"/>
		</g>
	</g>
</g>
<g>
	<g>
		<g>
			<path class="st0" d="M111,79.4c0-0.5,0.8-0.6,1.2-0.6c0.2,0,0.4,0.1,0.4,0.3c0,0.1-0.2,0.3-0.3,0.3c-0.4,0.1-0.8-0.2-1-0.4
				C111.1,78.9,110.9,79.2,111,79.4c0.5,0.3,1.1,0.7,1.6,0.3c0.3-0.2,0.5-0.7,0.2-1c-0.3-0.3-1-0.2-1.4-0.1
				c-0.4,0.1-0.8,0.4-0.8,0.9C110.6,79.6,111,79.6,111,79.4L111,79.4z"/>
		</g>
	</g>
</g>
<g>
	<g>
		<g>
			<path class="st0" d="M70.2,28.5c-0.1,2.8,0,5.5,0.2,8.3c0,0.2,0.4,0.2,0.4,0c-0.2-2.8-0.3-5.5-0.2-8.3
				C70.5,28.3,70.2,28.3,70.2,28.5L70.2,28.5z"/>
		</g>
	</g>
</g>
<g>
	<g>
		<g>
			<path class="st0" d="M71.8,27.9c0.1,2.6,0.2,5.3,0.4,7.9c0,0.2,0.4,0.2,0.4,0c-0.1-2.6-0.2-5.3-0.4-7.9
				C72.1,27.7,71.8,27.7,71.8,27.9L71.8,27.9z"/>
		</g>
	</g>
</g>
<g>
	<g>
		<g>
			<path class="st0" d="M74.3,26.7c-0.2,3-0.1,5.9,0.1,8.9c0,0.2,0.4,0.2,0.4,0c-0.3-3-0.4-5.9-0.1-8.9
				C74.7,26.5,74.3,26.5,74.3,26.7L74.3,26.7z"/>
		</g>
	</g>
</g>
<g>
	<g>
		<g>
			<path class="st0" d="M76.7,26.5c-0.1,3.1,0,6.2,0.4,9.3c0,0.2,0.4,0.2,0.4,0c-0.4-3.1-0.5-6.2-0.4-9.3
				C77.1,26.3,76.7,26.3,76.7,26.5L76.7,26.5z"/>
		</g>
	</g>
</g>
<g>
	<g>
		<g>
			<path class="st0" d="M83.4,26.7c0.2,2.5,0.4,5,0.5,7.5c0,0.2,0.4,0.2,0.4,0c-0.2-2.5-0.4-5-0.5-7.5
				C83.8,26.5,83.4,26.5,83.4,26.7L83.4,26.7z"/>
		</g>
	</g>
</g>
<g>
	<g>
		<g>
			<path class="st0" d="M86,28.1c-0.2,1.8-0.2,3.7,0,5.5c0,0.2,0.4,0.2,0.4,0c-0.2-1.8-0.2-3.7,0-5.5C86.4,27.9,86,27.9,86,28.1
				L86,28.1z"/>
		</g>
	</g>
</g>
<g>
	<g>
		<g>
			<path class="st0" d="M88,27c-0.1,2.1,0.1,4.3,0.4,6.4c0,0.2,0.4,0.1,0.4-0.1c-0.4-2.1-0.5-4.2-0.4-6.3C88.3,26.7,88,26.7,88,27
				L88,27z"/>
		</g>
	</g>
</g>
<g>
	<g>
		<g>
			<path class="st0" d="M91,27c0,2,0.1,4.1,0.1,6.1c0,0.2,0.4,0.2,0.4,0c0-2-0.1-4.1-0.1-6.1C91.4,26.7,91,26.7,91,27L91,27z"/>
		</g>
	</g>
</g>
<g>
	<g>
		<g>
			<path class="st0" d="M100,27.7c0,2.1,0,4.2,0,6.3c0,0.2,0.4,0.2,0.4,0c0-2.1,0-4.2,0-6.3C100.4,27.5,100,27.5,100,27.7L100,27.7z
				"/>
		</g>
	</g>
</g>
<g>
	<g>
		<g>
			<path class="st0" d="M102.6,26.7c-0.2,2.2-0.4,4.5-0.4,6.7c0,0.2,0.4,0.2,0.4,0c0-2.3,0.1-4.5,0.4-6.7
				C103,26.5,102.6,26.5,102.6,26.7L102.6,26.7z"/>
		</g>
	</g>
</g>
<g>
	<g>
		<g>
			<path class="st0" d="M104.2,27c0,2,0,4.1,0,6.1c0,0.2,0.4,0.2,0.4,0c0-2,0-4.1,0-6.1C104.5,26.7,104.2,26.7,104.2,27L104.2,27z"
				/>
		</g>
	</g>
</g>
<g>
	<g>
		<g>
			<path class="st0" d="M107.1,26.7c-0.3,2.4-0.5,4.7-0.8,7.1c0,0.2,0.4,0.2,0.4,0c0.3-2.4,0.5-4.7,0.8-7.1
				C107.5,26.5,107.1,26.5,107.1,26.7L107.1,26.7z"/>
		</g>
	</g>
</g>
<g>
	<g>
		<g>
			<path class="st0" d="M78.5,41.2c0.1,2.1,0.3,4.2,0.4,6.3c0,0.2,0.4,0.2,0.4,0c-0.1-2.1-0.3-4.2-0.4-6.3
				C78.8,41,78.5,40.9,78.5,41.2L78.5,41.2z"/>
		</g>
	</g>
</g>
<g>
	<g>
		<g>
			<path class="st0" d="M81,41.3c-0.4,2-0.4,4-0.2,6c0,0.2,0.4,0.2,0.4,0c-0.3-2-0.2-3.9,0.2-5.9C81.4,41.2,81.1,41.1,81,41.3
				L81,41.3z"/>
		</g>
	</g>
</g>
<g>
	<g>
		<g>
			<path class="st0" d="M83,41.8c0,2.1,0,4.2,0,6.3c0,0.2,0.4,0.2,0.4,0c0-2.1,0-4.2,0-6.3C83.4,41.5,83,41.5,83,41.8L83,41.8z"/>
		</g>
	</g>
</g>
<g>
	<g>
		<g>
			<path class="st0" d="M85,41.2c0,2.3,0.2,4.5,0.6,6.8c0,0.2,0.4,0.1,0.4-0.1c-0.4-2.2-0.6-4.4-0.6-6.7C85.3,40.9,85,40.9,85,41.2
				L85,41.2z"/>
		</g>
	</g>
</g>
<g>
	<g>
		<g>
			<path class="st0" d="M92.8,40.6c0,2,0,4.1,0,6.1c0,0.2,0.4,0.2,0.4,0c0-2,0-4.1,0-6.1C93.2,40.3,92.8,40.3,92.8,40.6L92.8,40.6z"
				/>
		</g>
	</g>
</g>
<g>
	<g>
		<g>
			<path class="st0" d="M94.8,41.4c0,1.9,0,3.8,0.1,5.7c0,0.2,0.4,0.2,0.4,0c-0.1-1.9-0.1-3.8-0.1-5.7
				C95.2,41.1,94.8,41.1,94.8,41.4L94.8,41.4z"/>
		</g>
	</g>
</g>
<g>
	<g>
		<g>
			<path class="st0" d="M97.5,41.2c-0.3,2.1-0.3,4.2-0.2,6.3c0,0.2,0.4,0.2,0.4,0c-0.1-2.1-0.1-4.2,0.2-6.3
				C97.8,41,97.5,41,97.5,41.2L97.5,41.2z"/>
		</g>
	</g>
</g>
<g>
	<g>
		<g>
			<path class="st0" d="M99.4,40.4c0.2,2.3,0.2,4.6,0,6.9c0,0.2,0.4,0.2,0.4,0c0.2-2.3,0.2-4.6,0-6.9C99.8,40.2,99.4,40.2,99.4,40.4
				L99.4,40.4z"/>
		</g>
	</g>
</g>
<g>
	<g>
		<g>
			<path class="st0" d="M86.2,54.6c0.1,2.3,0.2,4.6,0.5,6.9c0,0.2,0.4,0.2,0.4,0c-0.2-2.3-0.4-4.6-0.5-6.9
				C86.6,54.4,86.2,54.4,86.2,54.6L86.2,54.6z"/>
		</g>
	</g>
</g>
<g>
	<g>
		<g>
			<path class="st0" d="M88.8,54.2c0,2.3,0.1,4.6,0.1,6.9c0,0.2,0.4,0.2,0.4,0c0-2.3-0.1-4.6-0.1-6.9C89.1,54,88.8,54,88.8,54.2
				L88.8,54.2z"/>
		</g>
	</g>
</g>
<g>
	<g>
		<g>
			<path class="st0" d="M90.7,54.4c0.1,2.3,0.3,4.5,0.4,6.7c0,0.2,0.4,0.2,0.4,0c-0.1-2.3-0.3-4.5-0.4-6.7
				C91.1,54.2,90.7,54.2,90.7,54.4L90.7,54.4z"/>
		</g>
	</g>
</g>
<g>
	<g>
		<g>
			<path class="st0" d="M93.4,54.4c0.1,2.4,0.2,4.9,0.3,7.3c0,0.2,0.4,0.2,0.4,0c-0.1-2.4-0.2-4.9-0.3-7.3
				C93.7,54.2,93.4,54.2,93.4,54.4L93.4,54.4z"/>
		</g>
	</g>
</g>
<g>
	<g>
		<g>
			<path class="st0" d="M69.1,36.6c4-3.6,8.3-6.9,12.8-9.9c0.2-0.1,0-0.4-0.2-0.3c-4.6,3-8.8,6.3-12.9,9.9
				C68.7,36.5,68.9,36.8,69.1,36.6L69.1,36.6z"/>
		</g>
	</g>
</g>
<g>
	<g>
		<g>
			<path class="st0" d="M81.9,34.8c3.6-2.4,7.2-4.7,10.9-7.1c0.2-0.1,0-0.4-0.2-0.3c-3.6,2.4-7.2,4.7-10.9,7.1
				C81.5,34.6,81.7,35,81.9,34.8L81.9,34.8z"/>
		</g>
	</g>
</g>
<g>
	<g>
		<g>
			<path class="st0" d="M98.4,33.7c3.3-2.5,6.9-4.4,10.7-5.8c0.2-0.1,0.1-0.4-0.1-0.4c-3.9,1.4-7.5,3.3-10.8,5.8
				C98.1,33.5,98.3,33.9,98.4,33.7L98.4,33.7z"/>
		</g>
	</g>
</g>
<g>
	<g>
		<g>
			<path class="st0" d="M77.8,48c2.5-2,5.1-3.7,7.9-5.1c0.2-0.1,0-0.4-0.2-0.3c-2.8,1.4-5.5,3.1-8,5.1C77.3,47.9,77.6,48.2,77.8,48
				L77.8,48z"/>
		</g>
	</g>
</g>
<g>
	<g>
		<g>
			<path class="st0" d="M91.3,47.5c4.2-2.9,8.7-5.4,13.4-7.5c0.2-0.1,0-0.4-0.2-0.3c-4.7,2.1-9.1,4.7-13.4,7.5
				C90.9,47.3,91.1,47.7,91.3,47.5L91.3,47.5z"/>
		</g>
	</g>
</g>
<g>
	<g>
		<g>
			<path class="st0" d="M78.7,77.1c-0.3-0.2-0.7-0.1-0.9,0.1c-0.2,0.3-0.1,0.7,0.2,0.9c0.3,0.2,0.7,0.1,1-0.2
				c0.1-0.1,0.2-0.4,0.1-0.5c0-0.3-0.4-0.3-0.6-0.4c-0.2-0.1-0.4,0.2-0.2,0.3c0.1,0.1,0.3,0.1,0.4,0.2c0,0-0.1-0.1-0.1-0.1
				c0.1,0.4-0.4,0.7-0.6,0.4c-0.2-0.3,0.1-0.6,0.4-0.4C78.7,77.6,78.8,77.2,78.7,77.1L78.7,77.1z"/>
		</g>
	</g>
</g>
<g>
	<g>
		<g>
			<path class="st0" d="M85.5,76.6c-0.4,0.1-2.6,0.2-2,1.2c0.3,0.4,1.4,0.6,1.8,0.7c0.8,0.1,1.6,0.1,2.4,0c0.6-0.1,2.2-0.4,1.6-1.4
				c-0.2-0.3-0.6-0.4-0.9-0.4c-1.1-0.2-2.3-0.1-3.4-0.1c-0.2,0-0.2,0.4,0,0.4c0.8,0,1.6,0,2.5,0c0.2,0,0.4,0,0.7,0
				c0.1,0.3,0.1,0.6,0.2,0.9c-0.1,0.2-1.3,0.2-1.5,0.2c-0.7,0-1.6,0-2.3-0.3c-0.2,0-0.4-0.1-0.6-0.3c-0.3-0.2-0.2-0.3,0.2-0.3
				c0.3-0.2,0.9-0.2,1.2-0.3C85.8,76.9,85.8,76.5,85.5,76.6L85.5,76.6z"/>
		</g>
	</g>
</g>
<g>
	<g>
		<g>
			<path class="st0" d="M81.8,79.7c-0.5-0.1-0.8,0.4-0.7,0.9c0.1,0.6,0.7,0.7,1.2,0.6c0.5-0.1,0.9-0.6,0.7-1.2
				c-0.2-0.5-0.9-0.6-1.3-0.2c-0.1,0.2,0.1,0.4,0.3,0.3c0.2-0.3,0.7-0.2,0.7,0.2c0,0.3-0.3,0.5-0.6,0.5c-0.2,0-0.6,0-0.7-0.3
				c-0.1-0.2,0.1-0.5,0.4-0.5C82,80.1,82,79.7,81.8,79.7L81.8,79.7z"/>
		</g>
	</g>
</g>
<g>
	<g>
		<g>
			<path class="st0" d="M124.3,77.8c-0.4-0.1-1.3,0.2-0.9,0.8c0.4,0.6,1.5,0.1,1.9-0.2c0.1-0.1,0.1-0.2,0.1-0.3
				C125.1,77.7,124.6,77.6,124.3,77.8c-0.3,0.1-0.1,0.5,0.1,0.4c0.2-0.1,0.5-0.1,0.7,0.1c0-0.1,0-0.2,0.1-0.3
				c-0.3,0.2-0.7,0.4-1.1,0.4c-0.2,0-0.5-0.1-0.2-0.3c0.1-0.1,0.3-0.1,0.5,0C124.5,78.2,124.5,77.8,124.3,77.8L124.3,77.8z"/>
		</g>
	</g>
</g>
<g>
	<g>
		<g>
			<path class="st0" d="M58.9,36.1c-3.9-1.6-8.1-2.1-12.3-1.9c-2.1,0.1-4.2,0.7-6.4,0.7c-2.1,0.1-4.2,0.3-6.3,0.7
				c-1.1,0.2-2.1,0.5-3.2,0.8c-0.9,0.2-1.8,0.3-2.6,0.7c-1.5,0.7-3.1,1.9-4.4,2.9c-1.3,1.1-2.3,2.4-3.5,3.6
				c-1.3,1.3-2.1,3.2-2.8,4.9c-3.1,7.3-3.2,15.4-2.6,23.3c0.3,4.2,0.8,8.4,0.9,12.6c0,4.9-0.3,9.8-0.7,14.6
				c-0.4,4.5-0.5,8.9,0.8,13.3c1.2,3.9,3.3,7.5,6.1,10.5c0.3,0.4,0.9-0.2,0.5-0.5c-5.4-5.7-7.6-13.2-6.9-20.9
				c0.4-4.5,0.8-9,0.9-13.4c0.1-4.1-0.2-8.2-0.5-12.3c-0.7-7.6-1.2-15.3,0.8-22.8c0.5-1.9,1.2-3.7,2-5.5c0.4-0.9,0.9-1.9,1.5-2.7
				c0.4-0.6,1-0.8,1.4-1.4c1.1-1.6,2.5-2.8,4.1-3.9c0.8-0.5,1.5-1.1,2.4-1.6c0.9-0.5,1.9-0.6,2.9-0.9c2.4-0.7,4.8-1.2,7.4-1.4
				c1-0.1,2,0,2.9-0.1c1.3-0.1,2.5-0.4,3.8-0.6c4.7-0.5,9.4-0.1,13.7,1.7C59.2,37,59.4,36.3,58.9,36.1L58.9,36.1z"/>
		</g>
	</g>
</g>
<g>
	<g>
		<g>
			<path class="st0" d="M27.7,126.7c6.2,3.8,14.3,3,21.2,2.1c1.8-0.2,3.6-0.5,5.3-0.9c2.2-0.4,4.3-1.2,6.4-1.8
				c1.1-0.3,2.2-0.5,3.4-0.4c0.9,0.1,1.8,0.2,2.7,0.1c1.2-0.2,2.9-1.2,2.7-2.6c-0.3-1.6-2.3-1.6-3.5-1.2c-1.9,0.6-3.5,1.8-4.7,3.3
				c-0.3,0.4,0.3,0.7,0.6,0.4c0.4-0.4,0.7-0.7,1.1-1.1c0.4-0.3-0.2-0.9-0.5-0.5c-0.4,0.4-0.7,0.7-1.1,1.1c0.2,0.1,0.4,0.3,0.6,0.4
				c0.8-1,1.8-1.9,2.9-2.5c0.5-0.3,1-0.5,1.6-0.6c0.9-0.2,3.2-0.1,1.9,1.7c-1.3,1.7-4.5,0.4-6.3,0.7c-2.2,0.4-4.3,1.4-6.5,1.9
				c-1.7,0.4-3.4,0.6-5.1,0.9c-7.1,1.1-15.8,2.2-22.3-1.8C27.6,125.8,27.3,126.4,27.7,126.7L27.7,126.7z"/>
		</g>
	</g>
</g>
<g>
	<g>
		<g>
			<path class="st0" d="M16.1,52.2c-4.4-0.4-7.1-5-4.4-8.8c1.1-1.5,2.9-2.6,4.8-2.9c1.8-0.3,4.2-0.2,5.4,1.2
				c0.3,0.4,0.8-0.2,0.5-0.5c-1.4-1.6-3.9-1.8-5.9-1.5c-2.3,0.3-4.4,1.7-5.6,3.6c-2.7,4.3,0.5,9.1,5.2,9.6
				C16.6,53,16.6,52.2,16.1,52.2L16.1,52.2z"/>
		</g>
	</g>
</g>
<g>
	<g>
		<g>
			<path class="st0" d="M73.5,73.7c0.7-0.3,1.6,0,2.4-0.1c0.9-0.2,1.7-0.6,2.4-1.2c1.2-1,2-2.6,1.8-4.2c-0.1-1.1-0.8-1.9-2-2
				c-2-0.1-3.5,1.5-4.7,2.8c-0.1,0.2,0.1,0.4,0.3,0.3c1-1.1,2.1-2.3,3.6-2.6c2.5-0.6,2.8,2.4,1.9,4c-0.7,1.3-2.2,2.3-3.8,2.5
				c-0.7,0.1-1.5-0.2-2.1,0.1C73.1,73.5,73.3,73.9,73.5,73.7L73.5,73.7z"/>
		</g>
	</g>
</g>
<g>
	<g>
		<g>
			<path class="st0" d="M77.1,69.5c1.4-0.5,2.5-1.7,1.8-3.2c-0.1-0.2-0.4,0-0.3,0.2c0.6,1.2-0.5,2.2-1.6,2.6
				C76.8,69.3,76.9,69.6,77.1,69.5L77.1,69.5z"/>
		</g>
	</g>
</g>
<g>
	<path class="st0" d="M74.3,49.7c0-1.2-0.9-2.3-2-2.3c-1.1,0-2,1-2,2.3c0,1.2,0.9,2.3,2,2.3C73.4,52,74.3,51,74.3,49.7z"/>
</g>
<g>
	<g>
		<g>
			<path class="st0" d="M70.9,50.1c2.8,9.1,1.5,18.7,1.9,28c0.4,9.7,1.6,19.4,0.7,29.2c-0.3,2.8-0.8,5.7-2,8.3c-1,2.2-2.6,4-3.7,6.1
				c-0.2,0.4,0.4,0.8,0.7,0.4c1-1.9,2.4-3.6,3.4-5.5c1-2,1.6-4.2,2-6.3c0.8-4.8,0.9-9.7,0.7-14.5c-0.1-5.1-0.6-10.2-0.9-15.3
				c-0.2-4.9-0.1-9.8-0.1-14.7c0-5.3-0.3-10.7-1.9-15.8C71.5,49.4,70.7,49.6,70.9,50.1L70.9,50.1z"/>
		</g>
	</g>
</g>
<g>
	<g>
		<g>
			<path class="st0" d="M62.1,125.3c0.1,0,0.1,0,0.1,0c0.2,0,0.2-0.4,0-0.4h0c-0.1,0-0.1,0-0.1,0.1c0,0-0.1,0,0,0
				c0.1,0.1,0.1,0.1,0.2,0.2c0-0.1,0-0.1,0.1-0.1C62.3,125.2,62.2,125.2,62.1,125.3c0,0,0.1,0.1,0.1,0.1c0.2,0.2,0.4-0.1,0.3-0.3
				c-0.1-0.1-0.1-0.1-0.1-0.1c-0.1-0.1-0.3-0.1-0.3,0.1c0,0.1,0,0.1-0.1,0.1c-0.1,0.1,0.1,0.3,0.2,0.2c0.1,0,0.2-0.1,0.2-0.2
				c-0.1,0-0.1,0.1-0.1,0.1h0c0.2,0,0.2-0.4,0-0.4c-0.1,0-0.1,0-0.1,0C61.9,124.9,61.9,125.3,62.1,125.3L62.1,125.3z"/>
		</g>
	</g>
</g>
<g>
	<g>
		<g>
			<path class="st0" d="M27.8,126.4c-0.2-1.5-2.3-2.2-3.5-2.8c-0.8-0.5-2.7-1.8-3.4-0.3c-0.5,1.2,1.3,2.3,2,2.8
				c1.4,1,3.1,1.7,4.8,1.1c0.4-0.1,0.3-0.9-0.2-0.7c-1.2,0.4-2.3,0.1-3.3-0.4c-0.4-0.3-0.9-0.6-1.3-0.9c-0.1-0.1-0.9-0.7-0.9-0.8
				c0.1-0.3,0.3-0.6,0.4-0.9c0.4,0.2,0.7,0.4,1.1,0.6c0.4,0.2,0.9,0.5,1.3,0.7c0.7,0.4,2.1,0.9,2.3,1.9
				C27.2,127.1,27.9,126.9,27.8,126.4L27.8,126.4z"/>
		</g>
	</g>
</g>
<g>
	<g>
		<g>
			<path class="st0" d="M27.5,106.9c-1.2,0.2-5.1,1.4-4.2,3.4c0.3,0.7,1.1,0.8,1.8,0.8c1.6,0.1,3.3-0.3,4.9-0.4c0.5,0,0.5-0.8,0-0.7
				c-1.6,0.1-3.3,0.6-4.9,0.4c-0.7-0.1-1.3-0.1-0.9-1.2c0.1-0.4,0.7-0.6,1-0.8c0.8-0.4,1.6-0.7,2.5-0.8
				C28.2,107.5,28,106.8,27.5,106.9L27.5,106.9z"/>
		</g>
	</g>
</g>
<g>
	<g>
		<g>
			<path class="st0" d="M29.8,43.5c3.3-2.4,8.7-4.2,11.7-0.5c2.8,3.4,2.3,9.3-2.3,10.9c-0.4,0.1-0.3,0.9,0.2,0.7
				c4.8-1.7,5.7-7.7,3-11.6c-3.1-4.5-9.3-2.9-13.1-0.1C29.1,43.1,29.4,43.7,29.8,43.5L29.8,43.5z"/>
		</g>
	</g>
</g>
<g>
	<path class="st0" d="M61.4,55.4c-5.4,0-9.7-4.4-9.7-9.7S56,36,61.4,36s9.7,4.4,9.7,9.7S66.7,55.4,61.4,55.4z M61.4,36.4
		c-5.1,0-9.3,4.2-9.3,9.3s4.2,9.3,9.3,9.3s9.3-4.2,9.3-9.3S66.5,36.4,61.4,36.4z"/>
</g>
<g>
	<path class="st0" d="M67,40.6c-1.2,0.4-1.6,2-1,3.7c0.6,1.6,2,2.6,3.1,2.2s1.6-2,1-3.7C69.6,41.2,68.2,40.2,67,40.6z M69.6,45.1
		c-0.3,0.1-0.7-0.1-0.9-0.6c-0.2-0.4,0-0.9,0.3-1c0.3-0.1,0.7,0.1,0.9,0.6C70,44.5,69.9,45,69.6,45.1z"/>
</g>
<g>
	<g>
		<g>
			<path class="st0" d="M75.2,55.9c0.2,1,0.1,2.1,0.1,3.1c0,0.6,0,1.2-0.2,1.7c-0.2,0.8-1.2,1.2-1.7,0.4c-0.7-1.2-0.6-3.2-0.3-4.5
				c0-0.2-0.3-0.3-0.4-0.1c-0.2,1.3-0.7,5,1.2,5.5c2.4,0.5,1.7-5.2,1.5-6.3C75.5,55.5,75.2,55.6,75.2,55.9L75.2,55.9z"/>
		</g>
	</g>
</g>
<g>
	<g>
		<g>
			<path class="st0" d="M72.5,56.3c1.3,0.1,3.9-0.2,4.2-1.9c0.3-1.6-2.1-3.3-3.1-4.1c-0.2-0.1-0.4,0.1-0.3,0.3
				c0.9,0.8,2,1.7,2.7,2.7c0.7,1.1-0.2,2-1.2,2.4c-0.8,0.3-1.6,0.3-2.3,0.3C72.3,55.9,72.3,56.3,72.5,56.3L72.5,56.3z"/>
		</g>
	</g>
</g>
<g>
	<g>
		<g>
			<path class="st0" d="M79,66.3c0.1-0.9,0-2-0.5-2.8c-0.2-0.4-0.7-0.8-1.2-0.6c-0.6,0.3-0.8,1.2-0.9,1.8c-0.2,0.7-0.1,1.4,0.3,1.9
				c0.1,0.2,0.4-0.1,0.3-0.3c-0.4-0.5-0.4-1-0.2-1.6c0.1-0.4,0.2-1,0.5-1.2c0.3-0.1,0.5-0.1,0.8-0.1c0.1,0.1,0.3,0.4,0.3,0.5
				c0.1,0.2,0.1,0.5,0.2,0.7c0.1,0.5,0.1,1.1,0.1,1.6C78.6,66.5,79,66.5,79,66.3L79,66.3z"/>
		</g>
	</g>
</g>
<g>
	<g>
		<g>
			<path class="st0" d="M77.3,63.5c0,1,0.1,1.9,0.4,2.8c0.1,0.2,0.4,0.1,0.4-0.1c-0.3-0.9-0.4-1.8-0.4-2.7
				C77.7,63.2,77.3,63.2,77.3,63.5L77.3,63.5z"/>
		</g>
	</g>
</g>
<g>
	<g>
		<g>
			<path class="st0" d="M73.1,47.6c-0.6-0.3-1.3-0.3-2-0.1c-0.4,0.1-0.6,0.6-0.5,0.9c0.1,0.4,0.5,0.6,0.9,0.5c0.4-0.1,0.8,0,1.2,0.1
				s0.8-0.2,0.9-0.5C73.7,48,73.5,47.7,73.1,47.6L73.1,47.6z"/>
		</g>
	</g>
</g>
</svg>
