<?xml version="1.0" encoding="utf-8"?>
<!-- Generator: Adobe Illustrator 24.0.1, SVG Export Plug-In . SVG Version: 6.00 Build 0)  -->
<svg version="1.1" id="Layer_1" xmlns="http://www.w3.org/2000/svg" xmlns:xlink="http://www.w3.org/1999/xlink" x="0px" y="0px"
	 viewBox="0 0 141.7 141.7" style="enable-background:new 0 0 141.7 141.7;" xml:space="preserve">
<style type="text/css">
	.st0{fill:#070707;}
</style>
<g id="Layer_1_1_">
</g>
<g id="Layer_1_2_">
</g>
<g id="Layer_1_3_">
</g>
<g id="Layer_1_4_">
</g>
<g id="Layer_1_5_">
</g>
<g id="Layer_3">
</g>
<g id="Layer_3_1_">
</g>
<g id="Layer_1_6_">
</g>
<g id="Layer_1_7_">
</g>
<g id="Layer_2_1_">
	<g>
		<g>
			<g>
				<g>
					<path class="st0" d="M84.5,78.5c-1.2,1.5-2.6,3.2-2.9,5.2c-0.2,1.2,0.1,2.9,1.3,3.4c1.1,0.5,2.5,0,3.6-0.3c1.8-0.5,3.2-0.5,5,0
						c1.2,0.4,2.7,0.9,4,0.5c1.3-0.5,2-2,1.9-3.3c-0.3-2.9-4-4.4-6.3-5.2c-0.2-0.1-0.3,0.3-0.1,0.3c2.2,0.8,5.4,2.1,6,4.7
						c0.4,1.9-1,3.6-2.9,3.3c-1.3-0.1-2.4-0.7-3.7-0.9c-2-0.4-3.7,0.5-5.6,0.7C83,87.2,82,86.1,82,84.2c0.1-2.1,1.5-3.9,2.8-5.4
						C84.9,78.5,84.7,78.3,84.5,78.5L84.5,78.5z"/>
				</g>
			</g>
		</g>
		<g>
			<g>
				<g>
					<path class="st0" d="M92.2,87.2c0.6,1.6,1,3.8,0.3,5.5c-0.5,1.3-2.1,2.1-3.3,1.2c-0.6-0.4-0.7-1.1-1.1-1.7
						c-0.1-0.2-0.4,0-0.3,0.2c0.4,0.7,0.6,1.6,1.4,2c0.8,0.4,1.9,0.2,2.7-0.3c2.1-1.4,1.5-5.1,0.7-7.1
						C92.5,86.9,92.2,86.9,92.2,87.2L92.2,87.2z"/>
				</g>
			</g>
		</g>
		<g>
			<path class="st0" d="M92.8,78.4c0-1.6-2.3-2.9-5.2-2.9c-2.8,0-5.2,1.3-5.2,2.9c0,1.6,2.3,2.9,5.2,2.9
				C90.4,81.3,92.8,80,92.8,78.4z"/>
		</g>
		<g>
			<g>
				<g>
					<path class="st0" d="M87.9,86.3c0.1,1.2,0.1,2.5,0.1,3.8c0,0.9,0,1.9-0.3,2.7c-0.2,0.8-0.2,0.9-1,1.1c-0.8,0.2-0.8,0.3-1.1-0.3
						c-0.9-1.7-0.5-4.4-0.2-6.2c0-0.2-0.3-0.3-0.3-0.1c-0.3,1.5-0.4,3.2-0.2,4.8c0.1,0.9,0.3,2.2,1.2,2.6c2.9,1.4,2.3-7.1,2.2-8.3
						C88.3,86.1,87.9,86.1,87.9,86.3L87.9,86.3z"/>
				</g>
			</g>
		</g>
		<g>
			<g>
				<g>
					<path class="st0" d="M26.2,40.4c0-2.1,1.1-4.1,2.8-5.3c0.4-0.3,0-0.9-0.4-0.6c-2,1.3-3.1,3.5-3.2,5.9
						C25.4,40.9,26.2,40.9,26.2,40.4L26.2,40.4z"/>
				</g>
			</g>
		</g>
		<g>
			<g>
				<g>
					<path class="st0" d="M32.9,43.5c-0.6-0.2-0.7-0.6-0.3-1c0.1-0.1,0.1-0.2,0.2-0.3c0.2-0.4,0.5-0.8,0.7-1.1
						c0.2-0.3,0.4-0.7,0.6-1c0.1-0.2,0.2-0.3,0.3-0.5c0.2-0.4,0.5-0.5,1-0.4c-0.2,0.4,0.4,0.8,0.6,0.4c0.3-0.7-0.2-1.4-0.9-1.3
						c-1.1,0.1-1.8,1.9-2.3,2.7c-0.5,0.8-1.7,2.1-0.9,3.1c0.4,0.5,1.3,0.5,1.7-0.1C33.7,43.5,33.1,43.1,32.9,43.5L32.9,43.5z"/>
				</g>
			</g>
		</g>
		<g>
			<g>
				<g>
					<path class="st0" d="M25.8,41.1c2.1,0.8,4.2,1.8,6.1,3.1c0.4,0.3,0.7-0.4,0.4-0.6c-1.9-1.3-4-2.3-6.2-3.1
						C25.6,40.2,25.4,40.9,25.8,41.1L25.8,41.1z"/>
				</g>
			</g>
		</g>
		<g>
			<g>
				<g>
					<path class="st0" d="M28.9,35.1c2.3,0.6,4.5,2.3,6.5,3.5c0.4,0.2,0.8-0.4,0.4-0.6c-2.1-1.2-4.3-2.9-6.6-3.6
						C28.6,34.2,28.4,34.9,28.9,35.1L28.9,35.1z"/>
				</g>
			</g>
		</g>
		<g>
			<g>
				<g>
					<path class="st0" d="M33.1,43.8c9.7,5.8,19.7,11.2,29.9,16c0.4,0.2,0.8-0.4,0.4-0.6c-10.2-4.8-20.2-10.2-29.9-16
						C33.1,42.9,32.7,43.5,33.1,43.8L33.1,43.8z"/>
				</g>
			</g>
		</g>
		<g>
			<g>
				<g>
					<path class="st0" d="M35.7,39.8c9,5.4,18.1,10.6,27.4,15.5c0.4,0.2,0.8-0.4,0.4-0.6c-9.3-4.9-18.4-10-27.4-15.5
						C35.7,39,35.3,39.6,35.7,39.8L35.7,39.8z"/>
				</g>
			</g>
		</g>
		<g>
			<g>
				<g>
					<path class="st0" d="M33.2,42.8c-0.3-0.1-0.6-0.3-0.9-0.6c-0.1-0.1-0.4-0.1-0.5,0c-0.1,0.1-0.1,0.3,0,0.5
						c0.3,0.4,0.7,0.6,1.2,0.7C33.5,43.6,33.7,42.9,33.2,42.8L33.2,42.8z"/>
				</g>
			</g>
		</g>
		<g>
			<g>
				<g>
					<path class="st0" d="M64,59.7c-0.5-0.5-0.3-1.2-0.2-1.8c0.1-0.3,0.1-0.6,0.3-0.9c0.1-0.2,0.3-0.4,0.5-0.5
						c0.7-0.2,0.9,0,0.7,0.5c-0.3,0.3,0.2,0.8,0.5,0.5c0.4-0.4,0.4-1.1,0-1.5c-0.5-0.5-1.2-0.4-1.7-0.1c-0.7,0.5-0.9,1.4-1,2.2
						c-0.1,0.7-0.1,1.5,0.5,2.1C63.9,60.5,64.4,60,64,59.7L64,59.7z"/>
				</g>
			</g>
		</g>
		<g>
			<g>
				<g>
					<path class="st0" d="M63.7,59.7c-0.7,0.2-1.2,0.9-1.1,1.6c0,0.8,0.7,1.3,1.5,1.3s1.4-0.5,1.5-1.3c0.1-0.7-0.4-1.5-1.2-1.6
						c-0.5-0.1-0.6,0.6-0.2,0.7c0.9,0.2,0.9,1.5-0.1,1.5c-0.9,0-1-1.3-0.1-1.5C64.3,60.2,64.1,59.5,63.7,59.7L63.7,59.7z"/>
				</g>
			</g>
		</g>
		<g>
			<g>
				<g>
					<path class="st0" d="M64.8,60.3c0.3-1,0.7-3.9,2.3-3c0.9,0.5,0.8,1.7,0.4,2.6c-0.2,0.4-0.5,0.7-0.7,1.1
						c-0.1,0.1-1.1,1.1-1.1,0.5c0-0.5-0.7-0.5-0.7,0c0,1.3,1.3,1,2,0.4c1-1,2-2.5,1.5-4c-0.4-1-1.4-1.7-2.4-1.3
						c-1.3,0.5-1.6,2.4-1.9,3.6C64,60.6,64.7,60.7,64.8,60.3L64.8,60.3z"/>
				</g>
			</g>
		</g>
		<g>
			<g>
				<g>
					<path class="st0" d="M67.4,61.5c2.3,1.4,4.6,2.8,6.9,4.3c1.3,0.8,2.3,1.3,3.2-0.3c1-1.7-0.5-2.3-1.9-3.1
						c-2.3-1.4-4.7-2.9-7.1-4.3c-0.4-0.2-0.7,0.4-0.4,0.6c1.5,0.9,3,1.8,4.5,2.7c0.9,0.5,4.8,2.2,4.3,3.5c-0.2,0.5-1,0.8-1.5,0.7
						c-0.3,0-0.9-0.5-1.1-0.7c-0.7-0.4-1.4-0.9-2.1-1.3c-1.5-0.9-3.1-1.9-4.6-2.8C67.3,60.6,67,61.2,67.4,61.5L67.4,61.5z"/>
				</g>
			</g>
		</g>
		<g>
			<g>
				<g>
					<path class="st0" d="M76.7,66.6c0.6,0.4,1.2,0.9,1.8,1.3c0.4,0.3,0.8,0.7,1.3,0.8c1,0.1,1.6-1.6,1.9-2.3c0.1-0.2,0-0.4-0.1-0.5
						c-1.1-0.9-2.4-1.5-3.9-1.8c-0.5-0.1-0.6,0.6-0.2,0.7c1.3,0.3,2.6,0.9,3.7,1.8c0-0.2-0.1-0.3-0.1-0.5c-0.2,0.4-0.3,0.9-0.6,1.2
						c-0.5,0.5-0.9,0.6-1.4,0.2c-0.7-0.5-1.4-1-2.1-1.5C76.6,65.7,76.3,66.3,76.7,66.6L76.7,66.6z"/>
				</g>
			</g>
		</g>
		<g>
			<g>
				<g>
					<path class="st0" d="M48.4,52.3c-0.6,0.9-1.2,1.8-2,2.5c-0.6,0.5-1.4,0.9-1.8,1.6c-0.4,0.7-0.3,1.7,0.5,2.1
						c0.8,0.4,2.4,0.2,2.9-0.7c0.4-0.7-0.1-1.7-0.9-1.7c0.1,0.2,0.2,0.4,0.3,0.5c0.7-1.2,1.6-2.2,2.7-3.1c0.3-0.3-0.1-0.8-0.5-0.5
						c-1.1,0.9-2,2-2.8,3.2c-0.1,0.2,0.1,0.5,0.3,0.5C47,57.6,46.7,58,46.2,58c-0.1,0-0.2,0-0.3,0c-0.7-0.1-1-0.5-0.7-1.1
						c0.3-0.6,1.1-0.9,1.5-1.3c0.9-0.8,1.6-1.8,2.3-2.8C49.3,52.3,48.7,51.9,48.4,52.3L48.4,52.3z"/>
				</g>
			</g>
		</g>
		<g>
			<g>
				<g>
					<path class="st0" d="M44.6,58.2c-0.7-0.1-1.2-0.2-1.7,0.4c-0.8,0.9-1.2,2.5-1.7,3.6c-1.2,2.5-2.3,5-3.5,7.5
						c-2.5,5.3-5,10.6-7.4,15.9c-5,10.7-9.6,21.4-14.4,32.2c-0.2,0.4,0.4,0.8,0.6,0.4C20.9,108,25.4,97.8,30,87.7
						c2.3-4.9,4.6-9.8,6.8-14.6c1.2-2.5,2.3-5,3.5-7.5c0.5-1.2,1.1-2.3,1.7-3.5c0.3-0.7,0.6-1.4,0.9-2c0.5-0.8,0.7-1.2,1.6-1.1
						C45,58.9,45,58.2,44.6,58.2L44.6,58.2z"/>
				</g>
			</g>
		</g>
		<g>
			<g>
				<g>
					<path class="st0" d="M17.1,118.1c4.8-9.8,9.2-19.8,13.9-29.7c4.9-10,9.8-19.9,14.7-29.9c0.2-0.4-0.4-0.8-0.6-0.4
						C40.2,68.1,35.2,78,30.4,88c-4.8,9.8-9.1,19.9-13.9,29.7C16.2,118.1,16.9,118.5,17.1,118.1L17.1,118.1z"/>
				</g>
			</g>
		</g>
		<g>
			<g>
				<g>
					<path class="st0" d="M45.1,58.6c0.5,5.1,1.8,10,3,15c1.2,5,2.3,10,3.6,15c2.4,10.2,4.8,20.4,7.2,30.5c0.1,0.5,0.8,0.3,0.7-0.2
						c-3.7-20.4-7.7-40.7-12.1-61c-0.1-0.5-0.8-0.3-0.7,0.2c4.3,20.3,8.4,40.6,12.1,61c0.2-0.1,0.5-0.1,0.7-0.2
						c-2.3-10-4.7-20-7.1-30c-1.2-5-2.3-10-3.6-15c-1.2-5.1-2.5-10.2-3.1-15.3C45.8,58.1,45.1,58.1,45.1,58.6L45.1,58.6z"/>
				</g>
			</g>
		</g>
		<g>
			<g>
				<g>
					<path class="st0" d="M47.5,60c8.6,19.8,17.7,39.3,27.4,58.5c0.2,0.3,0.8,0.1,0.7-0.3c-4.4-10.7-8.8-21.3-13.1-31.9
						c-2.1-5.2-4.3-10.5-6.5-15.7c-2-4.8-4.3-9.3-7.5-13.5c-0.3-0.4-0.9,0-0.6,0.4c3.3,4.3,5.6,9,7.7,14.1
						c2.1,5.2,4.2,10.3,6.4,15.5c4.3,10.5,8.6,20.9,12.9,31.4c0.2-0.1,0.4-0.2,0.7-0.3C65.8,99,56.7,79.4,48.1,59.7
						C47.9,59.3,47.3,59.6,47.5,60L47.5,60z"/>
				</g>
			</g>
		</g>
		<g>
			<g>
				<g>
					<path class="st0" d="M48.9,57.4c0.4-1.3,1.2-2.3,2.3-3c0.4-0.2,0-0.9-0.4-0.6c-1.3,0.7-2.2,2-2.6,3.4
						C48.1,57.6,48.7,57.8,48.9,57.4L48.9,57.4z"/>
				</g>
			</g>
		</g>
		<g>
			<g>
				<g>
					<path class="st0" d="M33.7,43.4c0.2-1.3,0.6-3.5,2.4-3.2c0.5,0.1,0.7-0.6,0.2-0.7c-2.2-0.3-3,1.9-3.2,3.7
						C32.9,43.7,33.6,43.9,33.7,43.4L33.7,43.4z"/>
				</g>
			</g>
		</g>
		<g>
			<g>
				<g>
					<path class="st0" d="M110.6,120.8c4.3-0.3,8.8-2.1,11.2-5.9c3-4.8,1.8-11.1-0.1-16c-2.4-6.2-5.6-11.9-7.9-18.1
						c-1.8-4.8-3-10.3-6.6-14.1c-2.1-2.2-5-3.8-8-4.2c-1.5-0.2-3-0.2-4.4,0.2C93,63,91.7,64,90.3,64.7c-0.4,0.2-0.1,0.8,0.4,0.6
						c1.2-0.6,2.3-1.5,3.6-1.9c1.6-0.5,3.3-0.5,5-0.2c2.7,0.5,5.2,1.8,7.1,3.8c3.4,3.5,4.6,8.5,6.2,12.9c1.9,5.2,4.2,10.3,6.6,15.3
						s4.6,10.8,3.1,16.5c-1.4,5.3-6.6,8-11.8,8.4C110.1,120.1,110.1,120.8,110.6,120.8L110.6,120.8z"/>
				</g>
			</g>
		</g>
		<g>
			<g>
				<g>
					<path class="st0" d="M85.7,94.4c-0.9,4.2-1.3,8.5-0.9,12.9c0.3,3.1,0.8,6.2,2.6,8.8c4.1,5.7,11.8,5.4,18,5.2
						c0.5,0,0.5-0.7,0-0.7c-6,0.3-13.7,0.6-17.6-5.1c-1.7-2.5-2.2-5.7-2.4-8.7c-0.3-4.1,0.1-8.2,1-12.1
						C86.5,94.1,85.8,93.9,85.7,94.4L85.7,94.4z"/>
				</g>
			</g>
		</g>
		<g>
			<path class="st0" d="M89.8,79.1c-2.6,0-4.8-3.2-4.8-7.1s2.1-7.1,4.8-7.1c2.6,0,4.8,3.2,4.8,7.1S92.4,79.1,89.8,79.1z M89.8,65.3
				c-2.4,0-4.3,3-4.3,6.7c0,3.7,1.9,6.7,4.3,6.7c2.4,0,4.3-3,4.3-6.7C94.1,68.3,92.2,65.3,89.8,65.3z"/>
		</g>
		<g>
			<g>
				<path class="st0" d="M83.7,76.7c0-0.1,0.1-0.1,0.1-0.2c-1.3-1.1-2.2-3.1-2.2-5.4c0-3.5,1.9-6.3,4.3-6.3c0.8,0,1.5,0.3,2.1,0.8
					c0.1-0.1,0.3-0.1,0.4-0.2c-0.7-0.7-1.6-1-2.5-1c-2.6,0-4.8,3-4.8,6.7c0,2.5,1,4.7,2.4,5.8C83.7,76.9,83.7,76.8,83.7,76.7z"/>
			</g>
		</g>
		<g>
			<path class="st0" d="M82.8,70.2c0.6,0.6,1.6,0.6,2.2,0c0.6-0.6,0.6-1.6,0-2.2c-0.6-0.6-1.6-0.6-2.2,0
				C82.2,68.6,82.2,69.6,82.8,70.2z M84.3,67.9c0.2,0.2,0.2,0.5,0,0.6c-0.2,0.2-0.5,0.2-0.6,0s-0.2-0.5,0-0.6
				C83.8,67.7,84,67.7,84.3,67.9z"/>
		</g>
		<g>
			<path class="st0" d="M86.2,70.5c0.6,0.6,1.6,0.6,2.2,0c0.6-0.6,0.6-1.6,0-2.2c-0.6-0.6-1.6-0.6-2.2,0
				C85.5,68.8,85.5,69.8,86.2,70.5z M87.5,68.2c0.2,0.2,0.2,0.5,0,0.6c-0.2,0.2-0.5,0.2-0.6,0c-0.2-0.2-0.2-0.5,0-0.6
				C87.1,68,87.4,68,87.5,68.2z"/>
		</g>
		<g>
			<g>
				<g>
					<path class="st0" d="M105.1,64.7c2.3-1.3,6-2.3,7.8,0.3c1.7,2.5,1,6.4-2.1,7.3c-0.5,0.1-0.3,0.8,0.2,0.7c3.5-0.9,4.5-5.1,2.7-8
						c-1.9-3.2-6.2-2.5-9-0.8C104.3,64.3,104.7,64.9,105.1,64.7L105.1,64.7z"/>
				</g>
			</g>
		</g>
		<g>
			<path class="st0" d="M110.8,67.4c-0.1-0.8-0.7-1.4-1.5-1.3c-0.8,0.1-1.4,0.7-1.3,1.5c0.1,0.8,0.7,1.4,1.5,1.3
				C110.2,68.9,110.8,68.2,110.8,67.4z"/>
		</g>
		<g>
			<g>
				<g>
					<path class="st0" d="M94.4,62.5c-0.6-0.2-0.9-1.1-1-1.6c-0.1-0.4-0.2-0.7,0-1.1c-0.1-1.1,0.5-1.3,1.9-0.6
						c-0.1-0.3-0.2-0.5-0.3-0.8c-0.1-0.4-0.2-0.8-0.2-1.3c0-0.6,0.1-1.1,0.3-1.7c0.1-0.2-0.3-0.3-0.3-0.1c-0.5,1.5-0.4,3,0.5,4.4
						c0.1,0.1,0.3,0.1,0.3,0c0.6-1.3-1-2.2-2-1.3c-1.1,1.1-0.6,3.9,0.9,4.4C94.5,63,94.6,62.6,94.4,62.5L94.4,62.5z"/>
				</g>
			</g>
		</g>
		<g>
			<g>
				<g>
					<path class="st0" d="M97.6,62.5c0.1-0.5,0.1-1,0.2-1.5c0-0.2-0.3-0.3-0.3-0.1c-0.1,0.5-0.1,1-0.2,1.5
						C97.2,62.7,97.6,62.8,97.6,62.5L97.6,62.5z"/>
				</g>
			</g>
		</g>
		<g>
			<g>
				<g>
					<path class="st0" d="M85.4,96.4c-1.3-0.2-2.8,0.4-3.8,1.3c-0.7,0.7-1.1,1.7-0.1,2.2c0.2,0.1,0.4-0.2,0.2-0.3
						c-1.1-0.6,0.1-1.7,0.7-2.1c0.8-0.6,1.9-1,2.9-0.8C85.5,96.8,85.6,96.4,85.4,96.4L85.4,96.4z"/>
				</g>
			</g>
		</g>
		<g>
			<g>
				<g>
					<path class="st0" d="M82.6,98.8c-0.4,0.2-0.9,0.6-0.9,1.1c0,0.5,0.5,0.8,0.9,0.9c1.1,0.2,2.4-1.1,3-1.9
						c0.1-0.2-0.2-0.4-0.3-0.2c-0.5,0.6-1.1,1.2-1.8,1.5c-0.4,0.2-1.1,0.4-1.4-0.1c-0.2-0.4,0.4-0.8,0.7-1
						C82.9,99,82.8,98.7,82.6,98.8L82.6,98.8z"/>
				</g>
			</g>
		</g>
		<g>
			<g>
				<g>
					<path class="st0" d="M100.7,96c-0.5,0-1,0.4-1.5,0.6c-1.1,0.4-2.5,0.3-3.5-0.3c-1.2-0.7-2-2.5-0.3-3.2c1.2-0.5,2.6,0,3.8,0.4
						c0.2,0.1,0.3-0.3,0.1-0.3c-1.3-0.5-2.9-1-4.3-0.3c-0.9,0.4-1.1,1.3-0.7,2.1c0.4,1.1,1.5,1.9,2.7,2c0.7,0.1,1.3,0.1,2-0.1
						c0.6-0.1,1.2-0.7,1.8-0.7C100.9,96.3,100.9,96,100.7,96L100.7,96z"/>
				</g>
			</g>
		</g>
		<g>
			<g>
				<g>
					<path class="st0" d="M96.7,94.4c-0.8,0.1-2-0.1-1.9-1.1c0-0.2-0.3-0.2-0.3,0c-0.1,1.3,1.3,1.6,2.4,1.5
						C97,94.8,96.9,94.4,96.7,94.4L96.7,94.4z"/>
				</g>
			</g>
		</g>
		<g>
			<g>
				<g>
					<path class="st0" d="M122,114.4c0.9-1.6,3.8-0.2,4.5-2.1c0.2-0.5-0.1-1.1-0.5-1.5c-0.8-0.7-1.8-0.4-2.7-0.1
						c-0.2,0.1-0.1,0.4,0.1,0.3c0.6-0.2,1.2-0.4,1.8-0.2c0.7,0.2,1.1,0.9,0.9,1.5c-0.3,0.7-1.6,0.7-2.2,0.8
						c-0.9,0.1-1.7,0.3-2.2,1.1C121.6,114.5,121.9,114.6,122,114.4L122,114.4z"/>
				</g>
			</g>
		</g>
		<g>
			<g>
				<g>
					<path class="st0" d="M86.7,115.7c-0.7,0.7-1.5,1.6-2.5,1.6c-1.2,0-2.1-1.1-1.6-2.3c0.5-1.2,1.9-2.1,2.9-2.7
						c0.2-0.1,0-0.4-0.2-0.3c-1.3,0.9-3.8,2.4-3.2,4.4c0.3,0.8,1.1,1.3,1.9,1.3c1.2,0.1,2.1-1,2.9-1.7
						C87.2,115.9,86.9,115.6,86.7,115.7L86.7,115.7z"/>
				</g>
			</g>
		</g>
		<g>
			<g>
				<g>
					<path class="st0" d="M83.4,117.1c-0.4-1,0.3-1.9,1.1-2.4c0.2-0.1,0-0.4-0.2-0.3c-0.9,0.6-1.7,1.7-1.2,2.8
						C83.1,117.4,83.5,117.3,83.4,117.1L83.4,117.1z"/>
				</g>
			</g>
		</g>
		<g>
			<g>
				<g>
					<path class="st0" d="M108.1,123c-0.9-0.5-1.4-1.4-2.1-2.1c-0.5-0.5-0.9-0.9-0.1-1.6c0.5-0.5,1.2-0.8,1.8-0.8
						c1.3,0,2.2,1.1,2.6,2.1c0.2,0.5,0.5,1.5,0.1,2C109.8,123.5,108.9,123.4,108.1,123c-0.2-0.1-0.4,0.2-0.2,0.3
						c1.2,0.6,2.7,0.5,3-1c0.3-1.5-0.9-3.3-2.3-3.9c-0.7-0.3-1.4-0.2-2.1,0.1c-0.6,0.3-1.6,0.9-1.7,1.6c0,0.5,0.5,0.8,0.9,1.1
						c0.7,0.7,1.3,1.6,2.2,2.1C108.1,123.5,108.3,123.2,108.1,123z"/>
				</g>
			</g>
		</g>
		<g>
			<g>
				<g>
					<path class="st0" d="M108.6,120.9c0.6,0.7,1.1,1.5,1.1,2.4c0,0.2,0.4,0.2,0.3,0c0-1-0.6-1.9-1.3-2.6
						C108.7,120.5,108.4,120.8,108.6,120.9L108.6,120.9z"/>
				</g>
			</g>
		</g>
		<g>
			<g>
				<g>
					<path class="st0" d="M13.6,118.5c-0.5,0.3-0.6,0.5-0.7,0.9c0,0.1,0.1,0.2,0.2,0.2c2.5,0.3,5,0.1,7.4-0.5
						c0.2-0.1,0.1-0.4-0.1-0.3c-1.3,0.3-2.5,0.5-3.9,0.6c-0.5,0-1.1,0-1.6,0c-0.2,0-2.3-0.1-1.1-0.7C14,118.7,13.8,118.3,13.6,118.5
						L13.6,118.5z"/>
				</g>
			</g>
		</g>
		<g>
			<g>
				<g>
					<path class="st0" d="M56.3,119.7c-0.5,0.3-0.7,0.5-0.9,1.1c0,0.1,0.1,0.2,0.2,0.2c2.2,0.1,4.4-0.1,6.6-0.4c0.2,0,0.2-0.4,0-0.3
						c-1.1,0.1-2.2,0.3-3.3,0.3c-0.5,0-1,0.1-1.5,0.1c-0.2,0-2.3,0.1-0.9-0.6C56.7,120,56.6,119.7,56.3,119.7L56.3,119.7z"/>
				</g>
			</g>
		</g>
		<g>
			<g>
				<g>
					<path class="st0" d="M72,119.6c-0.9-0.2-1.2,1-0.5,1.5c0.6,0.4,1.4,0.2,2,0.1c1.3-0.1,2.5-0.4,3.8-0.8c0.2-0.1,0.1-0.4-0.1-0.3
						c-0.8,0.2-1.6,0.4-2.4,0.6c-0.5,0.1-1,0.2-1.5,0.2c-0.1,0-0.3,0-0.5,0.1c-0.5,0.1-0.9-0.2-0.9-1C72.1,120,72.2,119.7,72,119.6
						L72,119.6z"/>
				</g>
			</g>
		</g>
		<g>
			<g>
				<g>
					<path class="st0" d="M31.9,84.7c-0.8,0.1-1.7-0.1-2.4-0.6c-0.3-0.3-0.8-0.6-0.7-1.1c0-0.3,0.4-0.7,0.7-0.7
						c0.2,0.1,0.3,0.2,0.5,0.3c0.2,0.2,0.1,0.3-0.2,0.5c-0.1-0.2-0.4,0-0.3,0.2c0.3,0.5,1,0.2,1-0.3c0-0.7-0.9-1.3-1.5-1
						c-0.7,0.4-0.7,1.3-0.2,1.9c0.7,0.9,2,1.2,3.1,1.1C32.1,85,32.1,84.7,31.9,84.7L31.9,84.7z"/>
				</g>
			</g>
		</g>
		<g>
			<g>
				<g>
					<path class="st0" d="M52.6,84.9c-0.5,0.4-1.1,0.7-1.8,0.7c-0.3,0-0.6,0.1-0.9,0c-0.4-0.1-1.5-0.5-0.4-0.9
						c-0.2,0.1-0.1,0.4,0.1,0.3c0.5-0.2,0.7-0.9,0.3-1.2c-0.5-0.4-1.3,0.1-1.3,0.7c-0.1,0.9,0.8,1.4,1.6,1.5c1,0.1,2-0.2,2.8-0.9
						C53.1,85,52.8,84.7,52.6,84.9L52.6,84.9z"/>
				</g>
			</g>
		</g>
		<g>
			<g>
				<g>
					<path class="st0" d="M58.6,84.7c1.1,0.5,2.1,0.2,3-0.5c0.8-0.6,1.9-1.8,1.6-2.9c-0.2-0.7-1.2-1.1-1.5-0.3
						c-0.3,0.6,0.6,1.1,1,0.6c0.1-0.2-0.1-0.4-0.3-0.3c0.1,0,0.3,0.1,0.5,0.1c0,0.2,0,0.4,0,0.6c-0.1,0.3-0.2,0.5-0.4,0.7
						c-0.2,0.4-0.5,0.7-0.9,1c-0.8,0.7-1.8,1-2.8,0.6C58.6,84.3,58.4,84.6,58.6,84.7L58.6,84.7z"/>
				</g>
			</g>
		</g>
		<g>
			<g>
				<g>
					<path class="st0" d="M16.3,117.7c-0.6-0.2-1.1,0-1.6,0.3c-0.1,0.1,0,0.3,0.1,0.3c1,0.3,2,0.2,2.9-0.2c0.1,0,0.1-0.1,0.1-0.2
						c-0.1-0.4-0.4-0.7-0.8-0.5c-0.2,0.1-0.1,0.4,0.1,0.3c0.1,0.1,0.2,0.1,0.3,0.2c0.1-0.1,0.1-0.1,0.1-0.2
						c-0.9,0.3-1.8,0.4-2.8,0.2c0,0.1,0.1,0.2,0.1,0.3c0.4-0.3,0.8-0.4,1.3-0.3C16.4,118.1,16.5,117.7,16.3,117.7L16.3,117.7z"/>
				</g>
			</g>
		</g>
		<g>
			<g>
				<g>
					<path class="st0" d="M59.1,119.2c-0.2,0.1-0.4,0.2-0.6,0.1s-0.3,0.3-0.1,0.3c0.7,0.3,1.5,0.2,2.1-0.2c0.1-0.1,0.1-0.2,0-0.3
						c-0.3-0.3-0.7-0.3-1.1-0.2c-0.2,0.1-0.1,0.4,0.1,0.3c0.3-0.1,0.6,0,0.9,0.2c0-0.1,0-0.2,0-0.3c-0.6,0.3-1.2,0.4-1.9,0.1
						c0,0.1-0.1,0.2-0.1,0.3c0.3,0.1,0.7,0,1-0.2C59.5,119.3,59.2,119,59.1,119.2L59.1,119.2z"/>
				</g>
			</g>
		</g>
		<g>
			<g>
				<g>
					<path class="st0" d="M75.2,118.5c-0.4-0.2-0.8-0.1-1.1,0.3c-0.1,0.1,0,0.3,0.1,0.3c0.9,0,1.7-0.1,2.6-0.5
						c0.1-0.1,0.2-0.2,0.1-0.3c-0.5-0.4-1-0.5-1.6-0.4c-0.2,0-0.1,0.4,0.1,0.3c0.5-0.1,0.9,0,1.2,0.3c0-0.1,0.1-0.2,0.1-0.3
						c-0.8,0.3-1.6,0.5-2.5,0.5c0,0.1,0.1,0.2,0.1,0.3c0.2-0.3,0.5-0.3,0.7-0.2C75.3,118.9,75.4,118.5,75.2,118.5L75.2,118.5z"/>
				</g>
			</g>
		</g>
		<g>
			<g>
				<g>
					<path class="st0" d="M27.4,41c-0.5-2.3,0.8-4.7,3-5.4c0.2-0.1,0.1-0.4-0.1-0.3c-2.4,0.8-3.9,3.3-3.3,5.9
						C27.1,41.3,27.5,41.2,27.4,41L27.4,41z"/>
				</g>
			</g>
		</g>
		<g>
			<g>
				<g>
					<path class="st0" d="M79,67.5c0.4-0.7,0.8-1.3,1.4-1.9c0.2-0.2-0.1-0.4-0.3-0.3c-0.6,0.6-1.1,1.3-1.4,2
						C78.6,67.5,78.9,67.7,79,67.5L79,67.5z"/>
				</g>
			</g>
		</g>
		<g>
			<g>
				<g>
					<path class="st0" d="M75.3,65.7c0.7-0.7,1.2-1.5,1.5-2.3c0.1-0.2-0.3-0.3-0.3-0.1c-0.3,0.8-0.8,1.6-1.4,2.2
						C74.9,65.6,75.1,65.8,75.3,65.7L75.3,65.7z"/>
				</g>
			</g>
		</g>
		<g>
			<g>
				<g>
					<path class="st0" d="M65.5,61.5c1.1-1.3,1.9-2.8,2.3-4.4c0.1-0.2-0.3-0.3-0.3-0.1c-0.5,1.6-1.2,3-2.2,4.3
						C65.1,61.4,65.3,61.7,65.5,61.5L65.5,61.5z"/>
				</g>
			</g>
		</g>
		<g>
			<g>
				<g>
					<path class="st0" d="M28.2,40.4c-0.1-0.1-0.1-0.3,0-0.4c0.1-0.1,0.3-0.1,0.4,0c0.1,0.1,0,0.2-0.1,0.3
						C28.4,40.4,28.2,40.4,28.2,40.4c-0.1-0.1-0.3-0.1-0.3,0c-0.1,0.1,0,0.2,0.1,0.3c0.5,0.4,1.3-0.3,0.9-0.8
						c-0.2-0.2-0.6-0.3-0.8-0.1c-0.3,0.2-0.3,0.6-0.1,0.9C28,40.7,28.3,40.5,28.2,40.4L28.2,40.4z"/>
				</g>
			</g>
		</g>
		<g>
			<g>
				<g>
					<path class="st0" d="M30.5,37.2c-0.3-0.1-0.3-0.6,0.1-0.7c0.2,0,0.4,0.3,0.3,0.5c-0.1,0.2-0.4,0.2-0.5,0
						c-0.1-0.2-0.4,0.1-0.3,0.3c0.3,0.3,0.8,0.3,1.1,0c0.3-0.3,0.1-0.9-0.4-1.1c-0.8-0.3-1.1,1.1-0.3,1.3
						C30.6,37.6,30.7,37.2,30.5,37.2L30.5,37.2z"/>
				</g>
			</g>
		</g>
		<g>
			<g>
				<g>
					<path class="st0" d="M63.6,58.2c0.2,0.3,0.6,0.5,1,0.5c0.2,0,0.2-0.3,0-0.3c-0.3,0-0.5-0.1-0.7-0.3
						C63.7,57.8,63.4,58,63.6,58.2L63.6,58.2z"/>
				</g>
			</g>
		</g>
		<g>
			<g>
				<g>
					<path class="st0" d="M64,57.2c0.3-0.1,0.7,0.2,0.8,0.5c0.1,0.2,0.4,0.1,0.3-0.1c-0.1-0.5-0.7-0.9-1.2-0.8
						C63.6,56.9,63.7,57.2,64,57.2L64,57.2z"/>
				</g>
			</g>
		</g>
		<g>
			<g>
				<g>
					<path class="st0" d="M63.5,59.3c-1.8,0.3-2.5,2.5-1.1,3.8c1.4,1.2,3.3,0.2,3.6-1.5c0-0.2-0.3-0.2-0.3,0c-0.2,1.5-2.1,2.2-3.1,1
						c-1-1.1-0.2-2.7,1.2-2.9C63.8,59.7,63.7,59.3,63.5,59.3L63.5,59.3z"/>
				</g>
			</g>
		</g>
		<g>
			<g>
				<g>
					<path class="st0" d="M63.3,55.5c0.5-0.1,1,0.1,1.4,0.6c0.3,0.3,0.8-0.1,0.5-0.5c-0.5-0.5-1.2-0.8-1.9-0.8
						C62.8,54.8,62.8,55.6,63.3,55.5L63.3,55.5z"/>
				</g>
			</g>
		</g>
		<g>
			<g>
				<g>
					<path class="st0" d="M63.4,55.7c0.4-0.6-0.5-1.1-0.9-0.5c-0.7,0.9-0.9,2.4-1,3.5c-0.1,0.5,0.7,0.5,0.7,0
						c0.1-0.5,0.1-1.1,0.3-1.6c0.1-0.2,0.1-0.5,0.2-0.7c0-0.1,0.1-0.1,0.1-0.2c0.3-0.2,0.3-0.4,0-0.5c0-0.1,0-0.2,0-0.4
						c0,0,0,0.1-0.1,0.1C62.5,55.8,63.1,56.1,63.4,55.7L63.4,55.7z"/>
				</g>
			</g>
		</g>
		<g>
			<g>
				<g>
					<path class="st0" d="M68.4,61.9c1-0.4,1.7-1.3,1.7-2.4c0-0.5-0.7-0.5-0.7,0c0,0.7-0.5,1.5-1.2,1.7C67.8,61.4,68,62.1,68.4,61.9
						L68.4,61.9z"/>
				</g>
			</g>
		</g>
		<g>
			<g>
				<g>
					<path class="st0" d="M28.4,84.3C28.4,84.4,28.4,84.4,28.4,84.3c0,0,0.1-0.1,0.2-0.1h0c0.1,0,0.2,0,0.3,0c0,0,0.1,0.1,0.1,0.1
						c0.1,0,0.2-0.2,0.2-0.3c0.1-0.2,0.3-0.3,0.4-0.5c0.3-0.3,0.6-0.6,0.9-0.9c0.3-0.3-0.2-0.8-0.5-0.5c-0.3,0.3-0.7,0.6-0.9,0.9
						c-0.3,0.3-0.6,0.6-0.8,1c-0.2,0.5,0.5,1.2,0.8,0.6C29.3,84.3,28.6,83.9,28.4,84.3L28.4,84.3z"/>
				</g>
			</g>
		</g>
		<g>
			<g>
				<g>
					<path class="st0" d="M48.9,83.7c0.3,0.9,0.5,1.8,0.7,2.7c0.1,0.5,0.8,0.3,0.7-0.2c-0.1-0.9-0.4-1.9-0.7-2.7
						C49.5,83.1,48.8,83.3,48.9,83.7L48.9,83.7z"/>
				</g>
			</g>
		</g>
		<g>
			<g>
				<g>
					<path class="st0" d="M60.9,81.4c0.7,0.6,1.4,1.1,2.2,1.5c0.4,0.2,0.8-0.4,0.4-0.6c-0.7-0.3-1.4-0.8-2-1.4
						C61.1,80.6,60.6,81.1,60.9,81.4L60.9,81.4z"/>
				</g>
			</g>
		</g>
		<g>
			<g>
				<g>
					<path class="st0" d="M32.5,118.7c0.6-0.4,1.3-0.4,1.9,0c0-0.1,0-0.2-0.1-0.3c-0.5,0.8-1.7,1-2.5,0.3c0,0.1-0.1,0.2-0.1,0.3
						c0.4-0.1,0.8-0.2,1.2-0.3c0.2-0.1,0.1-0.4-0.1-0.3c-0.4,0.1-0.8,0.2-1.2,0.3c-0.1,0-0.2,0.2-0.1,0.3c0.9,0.8,2.4,0.7,3-0.4
						c0.1-0.1,0-0.2-0.1-0.3c-0.7-0.5-1.5-0.5-2.2,0C32.1,118.5,32.3,118.8,32.5,118.7L32.5,118.7z"/>
				</g>
			</g>
		</g>
		<g>
			<g>
				<g>
					<path class="st0" d="M44.8,120.5c0.3-0.1,0.7-0.1,0.9,0.1c0-0.1,0-0.2,0-0.3c-0.3,0.3-0.7,0.3-0.9-0.1c-0.1-0.2-0.4,0-0.3,0.2
						c0.3,0.5,1.1,0.6,1.5,0.2c0.1-0.1,0.1-0.2,0-0.3c-0.4-0.2-0.8-0.3-1.2-0.2C44.5,120.2,44.6,120.6,44.8,120.5L44.8,120.5z"/>
				</g>
			</g>
		</g>
		<g>
			<g>
				<g>
					<path class="st0" d="M36.7,119.1c3.6,0.1,7.3-0.1,10.9-0.5c0.2,0,0.3-0.2,0.1-0.3c-3.2-1.9-8.7-2.8-11.4,0.4
						c-0.1,0.2,0.1,0.4,0.3,0.3c2.6-3.1,7.9-2.2,11-0.3c0-0.1,0.1-0.2,0.1-0.3c-3.6,0.4-7.3,0.5-10.9,0.5
						C36.4,118.7,36.4,119.1,36.7,119.1L36.7,119.1z"/>
				</g>
			</g>
		</g>
		<g>
			<g>
				<g>
					<path class="st0" d="M26.2,119c2-0.1,4-0.1,6-0.2c0.2,0,0.2-0.4,0-0.3c-2,0.1-4,0.1-6,0.2C26,118.7,26,119,26.2,119L26.2,119z"
						/>
				</g>
			</g>
		</g>
		<g>
			<g>
				<g>
					<path class="st0" d="M47.5,118.8c1.3-0.1,2.5-0.1,3.8-0.2c0.2,0,0.2-0.4,0-0.3c-1.3,0.1-2.5,0.1-3.8,0.2
						C47.3,118.5,47.3,118.9,47.5,118.8L47.5,118.8z"/>
				</g>
			</g>
		</g>
		<g>
			<g>
				<g>
					<path class="st0" d="M62,127.5c0.3-0.2,0.6-0.3,0.9-0.4c0.2,0,0.8,0.1,0.7,0.3c-0.1,0.4-1.7,0.1-1.9,0
						c-0.2-0.1-0.3,0.3-0.1,0.3c0.4,0.1,2.8,0.5,2.5-0.5c-0.1-0.4-0.7-0.5-1-0.6c-0.5-0.1-1,0.1-1.3,0.5
						C61.5,127.4,61.8,127.7,62,127.5L62,127.5z"/>
				</g>
			</g>
		</g>
		<g>
			<g>
				<g>
					<path class="st0" d="M61.1,127.6c-0.8-0.3-0.9-0.5-0.3-0.8c0.3-0.2,0.7-0.4,1.1-0.5c0.5-0.2,1.1-0.3,1.6-0.5
						c1.3-0.3,2.7-0.4,4-0.3c0.5,0,2.8,0.4,2.4,1.5c-0.2,0.5-2.1,0.5-2.6,0.5c-1.3,0-2.5-0.1-3.8-0.2c-0.2,0-0.2,0.3,0,0.3
						c2.3,0.2,4.9,0.7,7-0.5c0.1-0.1,0.1-0.2,0.1-0.3c-1.1-1.9-3.4-1.7-5.3-1.5c-2.1,0.2-4,0.7-5.6,2.1c-0.1,0.1-0.1,0.2,0,0.3
						c0.5,0.4,1,0.5,1.7,0.4C61.5,127.9,61.4,127.5,61.1,127.6L61.1,127.6z"/>
				</g>
			</g>
		</g>
		<g>
			<g>
				<g>
					<path class="st0" d="M70.2,127.2c1.2-0.2,2.3,0.5,3.5,0.6c1,0.1,1.8-0.5,2.8-0.4c1,0.1,2,0.5,3.1,0.5c1.1,0,2.1-0.2,3.1-0.5
						c0.2-0.1,0.1-0.4-0.1-0.3c-1.5,0.4-3,0.6-4.6,0.3c-0.8-0.1-1.6-0.5-2.4-0.4c-0.5,0.1-1,0.4-1.5,0.5c-0.7,0-1.3-0.2-1.9-0.4
						c-0.7-0.2-1.3-0.3-2.1-0.2C69.9,126.8,70,127.2,70.2,127.2L70.2,127.2z"/>
				</g>
			</g>
		</g>
		<g>
			<g>
				<g>
					<path class="st0" d="M59.3,127.6c-4.6,0.2-9.1,0.7-13.6,1.5c-0.2,0.1-0.1,0.4,0.1,0.3c4.4-0.9,9-1.3,13.5-1.5
						C59.6,127.9,59.6,127.6,59.3,127.6L59.3,127.6z"/>
				</g>
			</g>
		</g>
		<g>
			<g>
				<g>
					<path class="st0" d="M98.5,128.1c8.9-0.1,17.8-0.4,26.7-0.9c0.2,0,0.2-0.4,0-0.3c-8.9,0.4-17.8,0.7-26.7,0.9
						C98.3,127.8,98.3,128.1,98.5,128.1L98.5,128.1z"/>
				</g>
			</g>
		</g>
		<g>
			<g>
				<g>
					<path class="st0" d="M116.6,126.1c1.9,0.1,3.8,0.1,5.6,0.2c0.2,0,0.2-0.3,0-0.3c-1.9-0.1-3.8-0.1-5.6-0.2
						C116.3,125.7,116.3,126.1,116.6,126.1L116.6,126.1z"/>
				</g>
			</g>
		</g>
		<g>
			<g>
				<g>
					<path class="st0" d="M119.3,117.7c2.8-0.2,5.6-0.4,8.3-0.5c0.2,0,0.2-0.4,0-0.3c-2.8,0.2-5.6,0.4-8.3,0.5
						C119.1,117.4,119.1,117.7,119.3,117.7L119.3,117.7z"/>
				</g>
			</g>
		</g>
		<g>
			<path class="st0" d="M77.5,49.1C71.2,49.1,66,44,66,37.6s5.2-11.5,11.5-11.5c6.3,0,11.5,5.2,11.5,11.5S83.9,49.1,77.5,49.1z
				 M77.5,26.3c-6.2,0-11.3,5.1-11.3,11.3s5.1,11.3,11.3,11.3c6.2,0,11.3-5.1,11.3-11.3S83.7,26.3,77.5,26.3z"/>
		</g>
		<g>
			<path class="st0" d="M50.7,28.6c-4,0-7.3-3.3-7.3-7.3s3.3-7.3,7.3-7.3s7.3,3.3,7.3,7.3S54.7,28.6,50.7,28.6z M50.7,14.2
				c-3.9,0-7.1,3.2-7.1,7.1s3.2,7.1,7.1,7.1s7.1-3.2,7.1-7.1S54.6,14.2,50.7,14.2z"/>
		</g>
		<g>
			<path class="st0" d="M108.7,41.5c-2.3,0-4.1-1.8-4.1-4.1c0-2.3,1.8-4.1,4.1-4.1c2.3,0,4.1,1.8,4.1,4.1
				C112.8,39.6,111,41.5,108.7,41.5z M108.7,33.4c-2.2,0-3.9,1.8-3.9,3.9c0,2.2,1.8,3.9,3.9,3.9s3.9-1.8,3.9-3.9
				C112.6,35.2,110.9,33.4,108.7,33.4z"/>
		</g>
		<g>
			<path class="st0" d="M93.4,25.4c-1.2,0-2.1-0.9-2.1-2.1c0-1.2,0.9-2.1,2.1-2.1s2.1,0.9,2.1,2.1C95.6,24.4,94.6,25.4,93.4,25.4z
				 M93.4,21.4c-1,0-1.9,0.9-1.9,1.9c0,1,0.9,1.9,1.9,1.9s1.9-0.9,1.9-1.9C95.3,22.2,94.5,21.4,93.4,21.4z"/>
		</g>
		<g>
			<path class="st0" d="M24.2,60.1c-1.2,0-2.1-0.9-2.1-2.1s0.9-2.1,2.1-2.1c1.2,0,2.1,0.9,2.1,2.1S25.4,60.1,24.2,60.1z M24.2,56.1
				c-1,0-1.9,0.9-1.9,1.9s0.9,1.9,1.9,1.9s1.9-0.9,1.9-1.9S25.3,56.1,24.2,56.1z"/>
		</g>
		<g>
			<g>
				<g>
					<path class="st0" d="M43.9,23.8c1.1-0.6,2.7,1.8,3.8,0.5c0.3-0.3,0.1-0.3,0.2-0.7c0.4-1.2,0.7-1.4,1.9-1.8
						c0.6-0.2,1.2-0.3,1.7-0.8c0.4-0.3,0.6-0.7,0.6-1.3c0-0.8-0.7-1.5-0.7-2.2c0-0.9,3-2.1,1.7-3.1c-0.2-0.1-0.4,0.1-0.3,0.3
						c0.7,0.5-1.3,1.4-1.6,1.7c-0.2,0.3-0.3,0.6-0.2,0.9c0.1,0.7,0.5,1.2,0.7,1.8c0.5,1.7-1.3,2-2.4,2.4c-1.1,0.4-1.2,0.9-1.6,1.8
						c-0.7,1.7-2.5-0.7-3.8,0C43.6,23.6,43.7,23.9,43.9,23.8L43.9,23.8z"/>
				</g>
			</g>
		</g>
		<g>
			<g>
				<g>
					<path class="st0" d="M48.6,27.8c0.4-1.1,1.8-0.9,2.1,0.2c0.1,0.2,0.4,0.1,0.3-0.1c-0.3-1.5-2.3-1.5-2.7-0.2
						C48.2,27.9,48.5,28,48.6,27.8L48.6,27.8z"/>
				</g>
			</g>
		</g>
		<g>
			<g>
				<g>
					<path class="st0" d="M56.2,17.1c-0.9,0.4-1.5,1.1-1.6,2.1c-0.1,0.7,0.3,1.3,0.1,2c-0.1,0.9-0.4,1-1,1.6
						c-0.4,0.4-0.8,0.8-1.3,1.1c-0.1,0.1-0.1,0.1,0,0.2c0.5,0.8,0.7,1.6,0.7,2.6c0,0.1,0.1,0.1,0.1,0.2c0.2,0.1,0.4,0.1,0.6,0.2
						c0.2,0.1,0.3-0.3,0.1-0.3c-0.6-0.2-0.7-1.4-0.9-2c-0.1-0.8-0.2-0.9,0.5-1.4c0.4-0.4,0.9-0.7,1.3-1.1c0.3-0.3,0.7-0.7,0.6-1.2
						c0-0.3-0.3-0.5-0.3-0.8c-0.4-1.2-0.1-2.4,1.2-2.9C56.5,17.4,56.4,17,56.2,17.1L56.2,17.1z"/>
				</g>
			</g>
		</g>
		<g>
			<g>
				<g>
					<path class="st0" d="M50.8,28.3c0.3,0,0.7,0,1,0c0.2,0,0.2-0.3,0-0.3c-0.3,0-0.7,0-1,0C50.6,27.9,50.6,28.3,50.8,28.3
						L50.8,28.3z"/>
				</g>
			</g>
		</g>
		<g>
			<g>
				<g>
					<path class="st0" d="M68.7,44.6c-0.1,0.5,0.7,0.8,1.1,0.5c0.2-0.2,0.3-0.5,0.3-0.8c0-0.2,0-0.4-0.1-0.6c0-0.2-0.1-0.4,0-0.5
						c0.1-0.2,0.3-0.5,0.6-0.3c0.2,0.1,0.4-0.1,0.3-0.3c-0.4-0.3-0.9-0.1-1.1,0.3c-0.1,0.3-0.1,0.6-0.1,0.9c0,0.2,0.1,0.5,0,0.7
						c0,0.2-0.1,0.3-0.2,0.4c-0.1,0.1-0.5,0.2-0.4-0.2C69.1,44.3,68.7,44.3,68.7,44.6L68.7,44.6z"/>
				</g>
			</g>
		</g>
		<g>
			<g>
				<g>
					<path class="st0" d="M72.3,41.4c0.5,0.3,0.8,0.2,1.2-0.1c0.1-0.1,0.1-0.1,0.1-0.3c-0.1-0.4-0.2-0.8-0.3-1.1
						c-0.1,0-0.2,0.1-0.3,0.1c1.1,0.8,2-0.6,1.6-1.6c-0.2-0.5-0.6-0.9-0.9-1.3c-0.5-0.6-1.7-1.6-1.9-2.3c-0.1-0.1-0.2-0.3-0.3-0.4
						c0.3-1,0.7-1.3,1-0.8c0.3,0.1,0.7,0.7,0.9,0.9c0.6,0.6,1.3,1.3,1.9,1.9c0.2,0.2,0.4-0.1,0.3-0.3c-1.1-1.1-2.2-2.5-3.4-3.4
						c-0.5-0.3-0.9-0.4-1.3,0.2c-0.4,0.7,0.2,1.5,0.6,2.1c0.4,0.6,0.8,1.1,1.3,1.7c0.2,0.3,0.5,0.5,0.7,0.7c0.2,0.2,0.4,0.4,0.5,0.7
						c0.6,0.5,0.3,1.1-0.7,1.7c-0.1-0.1-0.3,0-0.3,0.1c0,0.2,0.4,1.6-0.5,1.2C72.3,41,72.1,41.3,72.3,41.4L72.3,41.4z"/>
				</g>
			</g>
		</g>
		<g>
			<g>
				<g>
					<path class="st0" d="M77.7,34.7c0.4,0.4,0.8,0.2,1.4,0c0.7-0.2,1.3-0.4,2-0.6c0.3-0.1,0.8-0.1,1.1-0.4c0.4-0.5,0-1.1-0.2-1.6
						c-0.5-1.4-1.1-2.9-1.6-4.3c-0.1,0.1-0.2,0.1-0.3,0.2c1.2,0.6,2.1,1.3,2.7,2.5c0.1,0.2,0.4,0,0.3-0.2c-0.7-1.2-1.6-2-2.9-2.6
						c-0.1-0.1-0.3,0-0.3,0.2c0.5,1.4,1.4,3,1.7,4.6c0.1,0.5,0.3,0.8-0.2,1.2c-0.2,0.2-0.7,0.2-1,0.3c-0.5,0.1-2.1,0.9-2.5,0.5
						C77.8,34.3,77.5,34.5,77.7,34.7L77.7,34.7z"/>
				</g>
			</g>
		</g>
		<g>
			<g>
				<g>
					<path class="st0" d="M72.9,46.4c0.7,0,1.7,0,2.1-0.8c0.1-0.3,0.1-0.5,0.1-0.8c0-0.9,1-1.3,1.7-1.8c0.2-0.1,0-0.4-0.2-0.3
						c-0.5,0.4-1.6,0.8-1.9,1.5c-0.1,0.3,0,0.4,0,0.7c0.1,1.1-1,1.1-1.8,1.1C72.7,46,72.7,46.4,72.9,46.4L72.9,46.4z"/>
				</g>
			</g>
		</g>
		<g>
			<g>
				<g>
					<path class="st0" d="M79.2,40.5c-0.3-0.4-0.7-0.8-0.9-1.3c-0.1-0.1-0.2-0.3-0.3-0.4c0.6-0.7,1.1-0.8,1.7-0.5
						c0.7,0.2,1.2,0.7,1.9,0.8c0.6,0.1,1.4-0.1,1.7-0.7c0.2-0.5,0-1.3,0.6-1.7c0.4-0.2,1.1-0.1,1.6-0.3c1.1-0.6,1.9-1.7,2.6-2.7
						c0.1-0.2-0.2-0.4-0.3-0.2c-0.6,0.9-1.2,1.8-2.1,2.4c-0.6,0.4-1.1,0.4-1.7,0.5c-0.3,0-0.4-0.1-0.7,0.1c-0.3,0.2-0.2,0.3-0.3,0.6
						c-0.1,0.1,0.1,0.3,0,0.4c-0.3,1.7-1.2,1.4-2.3,0.9c-0.7-0.3-2.1-1.3-2.9-0.4c-0.8,0.8,0.7,2,1.1,2.7
						C79.1,40.9,79.4,40.7,79.2,40.5L79.2,40.5z"/>
				</g>
			</g>
		</g>
		<g>
			<g>
				<g>
					<path class="st0" d="M75.3,48.8c0.4-0.7,1.6-0.5,2.3-1c0.7-0.5,1.2-1.2,2-1.6c1.7-0.9,3.2-1.2,4.5-2.7c1.1-1.3,2.1-2.8,3.1-4.3
						c1-1.3,1.8-2.7,1.7-4.3c0-0.2-0.4-0.2-0.3,0c0,2.1-1.3,3.6-2.5,5.2c-1.1,1.5-2,3.2-3.5,4.3c-1.3,1-3.1,1.1-4.3,2.2
						c-0.5,0.5-0.7,0.9-1.4,1.1c-0.3,0.1-0.7,0.1-1,0.2c-0.4,0.1-0.6,0.3-0.8,0.6C74.9,48.8,75.2,49,75.3,48.8L75.3,48.8z"/>
				</g>
			</g>
		</g>
		<g>
			<g>
				<g>
					<path class="st0" d="M66.4,36.4c1.2-1.7,2.5-3.5,4-5c0.7-0.7,1.3-0.7,2.1-0.5c0.3,0.1,0.5,0.2,0.9,0.2c0.3,0,0.6-0.1,0.8-0.3
						c0.2-0.2,0.4-0.5,0.5-0.8c0.1-0.3,0.1-0.6,0.3-0.9c0.3-0.7,0.5-0.5,1.1-1.1c0.5-0.4,0.9-1,1.6-1.3c0.5-0.2,0.9-0.1,1.3-0.4
						c0.2-0.1,0-0.5-0.2-0.3c-0.6,0.4-1.2,0.2-1.8,0.5c-0.6,0.3-0.8,0.9-1.3,1.3c-0.3,0.2-0.5,0.2-0.8,0.6c-0.5,0.7-0.2,1.3-1.1,1.8
						c-0.9,0.5-0.8,0.1-1.7,0c-0.3,0-0.4-0.1-0.7,0c-0.5,0.1-0.9,0.5-1.3,0.9c-1.4,1.5-2.7,3.2-3.9,4.9C66,36.4,66.3,36.6,66.4,36.4
						L66.4,36.4z"/>
				</g>
			</g>
		</g>
		<g>
			<g>
				<g>
					<path class="st0" d="M77.8,49.1c2.4-1.4,5.1-2.6,7.1-4.4c2.1-1.8,3.1-4.7,4.3-7.1c0.1-0.2-0.2-0.4-0.3-0.2
						c-1.2,2.4-2.2,5.2-4.2,7c-2,1.8-4.7,3-7,4.4C77.4,48.9,77.6,49.2,77.8,49.1L77.8,49.1z"/>
				</g>
			</g>
		</g>
		<g>
			<g>
				<g>
					<path class="st0" d="M78.4,42.6c0.2-0.3,0.4-0.5,0.6-0.7c-0.1,0-0.2,0-0.3,0c0.1,0.1,0.3,0.3,0.5,0.4c0-0.1,0-0.1-0.1-0.2
						c-0.1,0.3-0.4,0.4-0.6,0.3c-0.2-0.1-0.3,0.3-0.1,0.3c0.4,0.1,0.9-0.1,1.1-0.5c0-0.1,0-0.1-0.1-0.2c-0.1-0.1-0.3-0.3-0.5-0.4
						c-0.1-0.1-0.2-0.1-0.3,0c-0.2,0.3-0.4,0.5-0.6,0.7C78,42.5,78.2,42.7,78.4,42.6L78.4,42.6z"/>
				</g>
			</g>
		</g>
		<g>
			<g>
				<g>
					<path class="st0" d="M84,31.7c0.1-0.3,0.2-0.6,0.5-0.7c0.1,0,0.3,0,0.3,0.1c0,0.1,0,0.3-0.1,0.2c-0.2,0-0.3,0.3-0.1,0.3
						c0.6,0.1,0.8-0.7,0.3-1c-0.3-0.1-0.6-0.1-0.8,0.1c-0.3,0.2-0.4,0.5-0.5,0.8C83.6,31.8,83.9,31.9,84,31.7L84,31.7z"/>
				</g>
			</g>
		</g>
		<g>
			<g>
				<g>
					<path class="st0" d="M68.3,40.8c0-0.1,0.1-0.3,0.2-0.4c0.1-0.1,0.1-0.1,0.2-0.1c0,0,0.1,0,0.1,0c0,0,0,0,0,0
						c0.1,0.2,0,0.4-0.2,0.4s-0.2,0.4,0,0.3c0.5,0,0.8-0.6,0.5-1c-0.1-0.1-0.2-0.2-0.3-0.2c-0.1,0-0.3,0.1-0.4,0.2
						c-0.2,0.2-0.4,0.4-0.4,0.7C67.9,41,68.3,41,68.3,40.8L68.3,40.8z"/>
				</g>
			</g>
		</g>
		<g>
			<g>
				<g>
					<path class="st0" d="M107.3,39.3c-1.7-2,0.2-5.2,2.8-4.3c1.3,0.4,2,2,1.1,3.1c-0.5,0.6-1.5,0.9-2.1,0.3
						c-0.2-0.2-0.4-0.5-0.4-0.9c-0.1-0.2,0-0.4,0.1-0.5c0.1-0.6,0.5-0.6,1.2,0.1c-0.1,0.2,0.3,0.3,0.3,0.1c0.2-0.7-0.3-1.3-1-1.1
						c-0.8,0.2-1.1,1-0.9,1.7c0.5,1.9,3.1,1.5,3.6-0.3c0.5-2.1-1.8-3.5-3.6-2.9c-2.1,0.7-2.7,3.3-1.3,4.9
						C107.2,39.7,107.4,39.5,107.3,39.3L107.3,39.3z"/>
				</g>
			</g>
		</g>
		<g>
			<g>
				<g>
					<path class="st0" d="M93.1,21.4c-0.2,1.1-0.3,2.1-0.3,3.1c0,0.2,0.3,0.2,0.3,0c0-1,0.1-2.1,0.3-3.1
						C93.5,21.3,93.2,21.2,93.1,21.4L93.1,21.4z"/>
				</g>
			</g>
		</g>
		<g>
			<g>
				<g>
					<path class="st0" d="M94.2,21.6c-0.2,1-0.3,2.1-0.5,3.1c0,0.2,0.3,0.3,0.3,0.1c0.2-1,0.3-2.1,0.5-3.1
						C94.6,21.5,94.2,21.4,94.2,21.6L94.2,21.6z"/>
				</g>
			</g>
		</g>
		<g>
			<g>
				<g>
					<path class="st0" d="M22.2,57.8c1,0.3,1.9,0.7,2.6,1.4c0.2,0.1,0.4-0.1,0.3-0.3c-0.8-0.7-1.8-1.2-2.8-1.5
						C22.1,57.4,22,57.8,22.2,57.8L22.2,57.8z"/>
				</g>
			</g>
		</g>
		<g>
			<g>
				<g>
					<path class="st0" d="M23.1,57c1,0.4,1.9,0.9,2.8,1.5c0.2,0.1,0.4-0.2,0.2-0.3c-0.9-0.7-1.9-1.2-2.9-1.5
						C22.9,56.6,22.9,56.9,23.1,57L23.1,57z"/>
				</g>
			</g>
		</g>
	</g>
</g>
</svg>
