<?xml version="1.0" encoding="utf-8"?>
<!-- Generator: Adobe Illustrator 24.0.1, SVG Export Plug-In . SVG Version: 6.00 Build 0)  -->
<svg version="1.1" id="Layer_1" xmlns="http://www.w3.org/2000/svg" xmlns:xlink="http://www.w3.org/1999/xlink" x="0px" y="0px"
	 viewBox="0 0 141.7 141.7" style="enable-background:new 0 0 141.7 141.7;" xml:space="preserve">
<style type="text/css">
	.st0{fill:#070707;}
</style>
<g id="Layer_1_1_">
</g>
<g id="Layer_1_2_">
</g>
<g id="Layer_1_3_">
</g>
<g id="Layer_1_4_">
</g>
<g id="Layer_1_5_">
</g>
<g id="Layer_3">
</g>
<g id="Layer_3_1_">
</g>
<g id="Layer_1_6_">
</g>
<g id="Layer_1_7_">
</g>
<g id="Layer_1_8_">
</g>
<g id="Layer_2_1_">
	<g>
		<g>
			<g>
				<g>
					<path class="st0" d="M45.8,99.8c-0.1,2-0.3,4-0.5,6.1c-0.1,0.4,0.6,0.4,0.6,0c0.2-2,0.4-4,0.5-6.1
						C46.5,99.4,45.8,99.4,45.8,99.8L45.8,99.8z"/>
				</g>
			</g>
		</g>
		<g>
			<g>
				<g>
					<path class="st0" d="M51.5,51.7c-8,8.5-6.2,20.9-5.7,31.5c0,0.4,0.7,0.4,0.6,0c-0.5-10.4-2.3-22.8,5.5-31.1
						C52.2,51.9,51.7,51.4,51.5,51.7L51.5,51.7z"/>
				</g>
			</g>
		</g>
		<g>
			<g>
				<g>
					<path class="st0" d="M93.7,54.6c-1.1-1.9-2.5-3.5-4.2-4.9c-0.3-0.3-0.8,0.2-0.5,0.5c1.6,1.3,3,2.9,4.1,4.7
						C93.3,55.2,93.9,54.9,93.7,54.6L93.7,54.6z"/>
				</g>
			</g>
		</g>
		<g>
			<g>
				<g>
					<path class="st0" d="M46.5,61.1c-4-0.3-6.3-4.6-3.8-7.9c1-1.3,2.4-2.2,4-2.5c1.6-0.3,3.8-0.2,5,1.1c0.3,0.3,0.7-0.2,0.5-0.5
						c-1.3-1.5-3.6-1.6-5.4-1.3c-2,0.3-3.8,1.5-4.9,3.2c-2.4,3.8,0.4,8.2,4.6,8.5C46.9,61.8,46.9,61.2,46.5,61.1L46.5,61.1z"/>
				</g>
			</g>
		</g>
		<g>
			<g>
				<g>
					<path class="st0" d="M90,50.6c2.8-1.4,7.2-2.2,9.1,0.8c2,3.1,0.8,7.9-3.1,8.5c-0.4,0.1-0.2,0.7,0.2,0.6
						c4.2-0.8,5.6-5.8,3.6-9.2c-2.1-3.6-7-3-10.2-1.4C89.3,50.2,89.6,50.7,90,50.6L90,50.6z"/>
				</g>
			</g>
		</g>
		<g>
			<g>
				<g>
					<path class="st0" d="M67.9,65.8c0.1,0,0.2,0,0.2,0c0-0.1,0-0.2-0.1-0.3c-1,0.4-1.8,0.8-2.6,1.6c-0.6,0.6-1.3,1.5-1.1,2.4
						c0.2,1,1.4,1.6,2.3,1.7c1.9,0.3,3.6-0.8,5.4-0.8c1.9,0,5.5,2.1,5.8-1.2c0.3-2.3-2.7-3.6-4.4-4.2c-0.2-0.1-0.3,0.2-0.1,0.3
						c1.6,0.6,4.4,1.8,4.1,3.9c-0.3,3-3.8,0.9-5.5,0.9c-1,0-1.9,0.3-2.8,0.6c-1.3,0.4-3.6,0.7-4.4-0.8c-1-1.9,2-3.6,3.3-4.1
						c0.2-0.1,0.2-0.3-0.1-0.3c-0.1,0-0.2,0-0.3,0.1C67.6,65.5,67.7,65.8,67.9,65.8L67.9,65.8z"/>
				</g>
			</g>
		</g>
		<g>
			<g>
				<g>
					<path class="st0" d="M74.3,70.9c0.4,1.1,0.6,2.4,0.3,3.6c-0.2,0.9-1.1,1.5-2,1.3c-0.7-0.2-0.8-0.8-1.1-1.3
						c-0.1-0.2-0.4,0-0.3,0.2c0.3,0.6,0.5,1.2,1.1,1.5c0.6,0.2,1.3,0.1,1.8-0.3c1.4-1,1-3.6,0.5-4.9C74.6,70.6,74.2,70.7,74.3,70.9
						L74.3,70.9z"/>
				</g>
			</g>
		</g>
		<g>
			<g>
				<g>
					<path class="st0" d="M52,124.2c2.3-1.2,3.6,1.8,5.2,2.9c0-0.1,0-0.2,0-0.3c-1.3,0.2-2.3,1-3.3,1.8c-1.1,0.8-2.5,2.2-4,1.7
						c-1-0.3-1.8-1.4-1.6-2.4c0.2-0.7,0.7-1.3,1.2-1.8c1-0.9,2.1-1.6,3.2-2.2c0.2-0.1,0-0.4-0.2-0.3c-1.9,1-6.4,3.6-4,6.1
						c2.8,3.1,6-2.2,8.8-2.6c0.2,0,0.1-0.2,0-0.3c-1.8-1.2-3-4.2-5.5-2.9C51.6,124,51.8,124.3,52,124.2L52,124.2z"/>
				</g>
			</g>
		</g>
		<g>
			<g>
				<g>
					<path class="st0" d="M49.3,129.8c-0.4-1.4,0.6-2.4,1.8-3c0.2-0.1,0-0.4-0.2-0.3c-1.3,0.7-2.3,1.9-1.9,3.4
						C49,130.1,49.3,130,49.3,129.8L49.3,129.8z"/>
				</g>
			</g>
		</g>
		<g>
			<g>
				<g>
					<path class="st0" d="M91.9,129.7c-1.3-0.8-2.1-2.1-3.2-3.1c-2-1.9,1.7-3.7,3.3-3.3c1.6,0.4,2.7,1.9,3.2,3.4
						c0.3,1,0.4,2.1-0.4,2.8C94,130.4,92.9,130.2,91.9,129.7c-0.2-0.1-0.4,0.2-0.2,0.3c1.6,0.8,3.8,0.6,4.1-1.5
						c0.3-2-1.2-4.4-3.1-5.2c-1-0.4-2-0.4-2.9,0.1c-0.8,0.4-2.1,1.2-2.3,2.1c-0.2,0.8,0.8,1.2,1.3,1.7c1,1,1.8,2.1,3,2.8
						C91.9,130.1,92.1,129.8,91.9,129.7z"/>
				</g>
			</g>
		</g>
		<g>
			<g>
				<g>
					<path class="st0" d="M92.6,126.6c0.9,0.9,1.6,2.1,1.6,3.4c0,0.2,0.3,0.2,0.3,0c-0.1-1.4-0.8-2.7-1.7-3.7
						C92.7,126.2,92.5,126.5,92.6,126.6L92.6,126.6z"/>
				</g>
			</g>
		</g>
		<g>
			<path class="st0" d="M81.1,65.7c-4.5,0-8.2-3.7-8.2-8.2s3.7-8.2,8.2-8.2s8.2,3.7,8.2,8.2S85.7,65.7,81.1,65.7z M81.1,49.7
				c-4.3,0-7.8,3.5-7.8,7.8s3.5,7.8,7.8,7.8s7.8-3.5,7.8-7.8S85.4,49.7,81.1,49.7z"/>
		</g>
		<g>
			<path class="st0" d="M61,66.5c-4.5,0-8.2-3.7-8.2-8.2s3.7-8.2,8.2-8.2s8.2,3.7,8.2,8.2S65.5,66.5,61,66.5z M61,50.5
				c-4.3,0-7.8,3.5-7.8,7.8s3.5,7.8,7.8,7.8s7.8-3.5,7.8-7.8S65.3,50.5,61,50.5z"/>
		</g>
		<g>
			<path class="st0" d="M96.4,54.3c0-0.9-0.7-1.7-1.7-1.7c-0.9,0-1.7,0.7-1.7,1.7c0,0.9,0.7,1.7,1.7,1.7S96.4,55.2,96.4,54.3z"/>
		</g>
		<g>
			<circle class="st0" cx="47.3" cy="55.8" r="1.7"/>
		</g>
		<g>
			<path class="st0" d="M74.7,64.9c0-1.1-1.6-2-3.6-2s-3.6,0.9-3.6,2c0,1.1,1.6,2,3.6,2S74.7,66,74.7,64.9z"/>
		</g>
		<g>
			<path class="st0" d="M83.7,57.2c-0.2-1.4-1.4-2.5-2.9-2.3c-1.4,0.2-2.5,1.4-2.3,2.9s1.4,2.5,2.9,2.3S83.9,58.7,83.7,57.2z
				 M79.6,58.7c-0.1-0.4,0.3-0.8,0.6-0.8c0.4-0.1,0.8,0.3,0.8,0.6c0.1,0.4-0.3,0.8-0.6,0.8C80,59.4,79.7,59.2,79.6,58.7z"/>
		</g>
		<g>
			<path class="st0" d="M63.5,58.9c0.4-1.4-0.5-2.8-1.9-3.2c-1.4-0.4-2.8,0.5-3.2,1.9c-0.4,1.4,0.5,2.8,1.9,3.2
				C61.7,61.1,63.2,60.3,63.5,58.9z M59.2,58.8c0.1-0.4,0.5-0.6,0.9-0.5c0.4,0.1,0.6,0.5,0.5,0.9s-0.5,0.6-0.9,0.5
				C59.3,59.6,59,59.2,59.2,58.8z"/>
		</g>
		<g>
			<g>
				<g>
					<path class="st0" d="M71.3,70.4c0.2,1,0.1,2.2,0.1,3.2c-0.1,0.6-0.2,1.3-0.5,1.8c-0.5,0.7-1.5,0.7-2.1,0.1
						c-1-1-0.7-3.2-0.3-4.4c0.1-0.2-0.3-0.3-0.3-0.1c-0.4,1.5-0.8,4.6,1.2,5.2c2.9,0.8,2.7-4.3,2.4-5.9
						C71.6,70.1,71.3,70.2,71.3,70.4L71.3,70.4z"/>
				</g>
			</g>
		</g>
		<g>
			<g>
				<g>
					<path class="st0" d="M41.1,85.1c-0.5-0.7-0.7-1.7,0.2-2.2c0.2-0.1,0-0.4-0.2-0.3c-1.1,0.6-1,1.7-0.3,2.6
						C40.9,85.4,41.2,85.2,41.1,85.1L41.1,85.1z"/>
				</g>
			</g>
		</g>
		<g>
			<g>
				<g>
					<path class="st0" d="M45.9,87.3c-1.4,0.1-2.5-0.4-3.7-1.1c-0.2-0.1-0.3,0.2-0.2,0.3c1.1,0.8,2.4,1.3,3.8,1.2
						C46.2,87.6,46.2,87.3,45.9,87.3L45.9,87.3z"/>
				</g>
			</g>
		</g>
		<g>
			<g>
				<g>
					<path class="st0" d="M42.6,83.8c-0.8-0.4-1.7-1.6-0.3-2c1.1-0.3,2.2,0.7,3,1.4c0.2,0.2,0.4-0.1,0.2-0.2
						c-0.9-0.9-2.6-2.3-3.9-1.2c-0.9,0.7,0.1,1.9,0.8,2.3C42.7,84.1,42.8,83.9,42.6,83.8L42.6,83.8z"/>
				</g>
			</g>
		</g>
		<g>
			<g>
				<g>
					<path class="st0" d="M92.7,54c2.5,3.8,3.4,7.9,3.7,12.3c0.3,4.7,0.5,9.4,0.6,14.1c0.1,4.7,0.2,9.3,0.4,14
						c0.2,4.5,0.8,9.2,0.2,13.7c-0.1,0.4,0.6,0.6,0.6,0.2c0.7-4.6,0-9.3-0.2-13.9c-0.2-4.8-0.3-9.7-0.4-14.5
						c-0.2-4.9-0.3-9.8-0.7-14.6c-0.3-4.2-1.3-8.1-3.7-11.6C93,53.3,92.5,53.7,92.7,54L92.7,54z"/>
				</g>
			</g>
		</g>
		<g>
			<g>
				<g>
					<path class="st0" d="M87.5,126.2c0.1,0,0.1,0,0.1,0c0.2,0,0.2-0.3,0-0.3h0c-0.1,0-0.1,0-0.1,0.1c0,0-0.1,0,0,0
						c0.1,0.1,0.1,0.1,0.2,0.2c0-0.1,0-0.1,0.1-0.2C87.6,126.1,87.5,126.1,87.5,126.2c0,0,0.1,0,0.1,0.1c0.2,0.2,0.4-0.1,0.2-0.2
						c-0.1-0.1-0.1-0.1-0.2-0.2c-0.1-0.1-0.2-0.1-0.3,0.1c0,0.1,0,0.1-0.1,0.2c-0.1,0.1,0.1,0.2,0.2,0.2c0.1,0,0.2-0.1,0.2-0.2
						c-0.1,0-0.1,0.1-0.1,0.1h0c0.2,0,0.2-0.3,0-0.3c-0.1,0-0.1,0-0.1,0C87.3,125.9,87.3,126.2,87.5,126.2L87.5,126.2z"/>
				</g>
			</g>
		</g>
		<g>
			<g>
				<g>
					<path class="st0" d="M42.7,87c-0.4,2.8-1.5,5.4-1.4,8.3c0,0.6-0.1,1.5,0.5,1.9c0.5,0.3,1.1,0.2,1.5-0.1c1.7-1.1,2-3.7,2.3-5.5
						c0.5-2.8,0.8-5.6,0.2-8.4c-0.1-0.2-0.4-0.1-0.3,0.1c0.5,2.3,0.4,4.7,0,7c-0.3,1.8-0.5,3.8-1.4,5.3c-0.5,0.9-1.8,2.3-2.5,0.5
						c-0.3-0.8,0-2.3,0.1-3.1c0.3-2,0.9-3.9,1.2-5.9C43.1,86.9,42.8,86.8,42.7,87L42.7,87z"/>
				</g>
			</g>
		</g>
		<g>
			<g>
				<g>
					<path class="st0" d="M43.1,87.4c-0.1,1.3-0.3,2.7-0.4,4c-0.1,1-0.5,2.3-0.1,3.2c0.4,0.8,1.6,1.1,2,0.1c0.1-0.2-0.2-0.3-0.3-0.1
						c-1.1-0.1-1.6-0.5-1.5-1.2c0-0.3,0.1-0.6,0.1-0.8c0.1-0.5,0.1-1.1,0.2-1.6c0.1-1.2,0.2-2.3,0.4-3.5
						C43.5,87.2,43.2,87.2,43.1,87.4L43.1,87.4z"/>
				</g>
			</g>
		</g>
		<g>
			<g>
				<g>
					<path class="st0" d="M101.9,87.9c1.3-2.4,2.9-4.5,4.4-6.8c0.1-0.1,0-0.1,0-0.2c-1.2-1.4-2.7-2.4-4.4-3.2
						c-0.8-0.4-1.7-0.6-2.5-0.9c-0.8-0.3-1.4-0.8-2.3-0.7c-0.2,0-0.2,0.3,0,0.3c0.8,0,1.2,0.4,1.8,0.6c0.6,0.2,1.2,0.4,1.8,0.6
						c1.5,0.5,2.9,1.2,4.1,2.2c0.6,0.5,1.2,0.8,0.8,1.7c-0.3,0.7-0.9,1.3-1.3,2c-0.9,1.4-1.8,2.8-2.6,4.2
						C101.5,87.9,101.8,88.1,101.9,87.9L101.9,87.9z"/>
				</g>
			</g>
		</g>
		<g>
			<g>
				<g>
					<path class="st0" d="M98.2,95.8c0.5-1.2,1-2.4,1.5-3.6c0.1-0.2-0.2-0.4-0.3-0.2c-0.5,1.2-1.1,2.4-1.5,3.6
						C97.8,95.9,98.1,96,98.2,95.8L98.2,95.8z"/>
				</g>
			</g>
		</g>
		<g>
			<g>
				<g>
					<path class="st0" d="M99.4,83.2c0-0.2,0.2-0.4,0.4-0.4c-0.1-0.1-0.1-0.1-0.2-0.2c0,0.3,0.2,0.5,0.4,0.6c0.3,0.2,1.1,0,1.2,0.4
						c0.1,0.2,0.4,0.1,0.3-0.1c-0.1-0.3-0.3-0.4-0.5-0.5c-0.3-0.1-1.1,0-1.1-0.5c0-0.1-0.1-0.2-0.2-0.2c-0.4,0.1-0.6,0.3-0.7,0.7
						C99,83.3,99.4,83.4,99.4,83.2L99.4,83.2z"/>
				</g>
			</g>
		</g>
		<g>
			<g>
				<g>
					<path class="st0" d="M98.7,85.3c0.4,0.3,0.7,0.6,1.1,0.9c0.2,0.1,0.4-0.1,0.2-0.2c-0.4-0.3-0.7-0.6-1.1-0.9
						C98.8,85,98.6,85.2,98.7,85.3L98.7,85.3z"/>
				</g>
			</g>
		</g>
		<g>
			<g>
				<g>
					<path class="st0" d="M99,87.8c0.4,0,0.7,0.2,1,0.5c0.1,0.2,0.4,0,0.3-0.2c-0.3-0.4-0.7-0.6-1.3-0.6
						C98.8,87.5,98.8,87.8,99,87.8L99,87.8z"/>
				</g>
			</g>
		</g>
		<g>
			<g>
				<g>
					<path class="st0" d="M100.1,86c0.1-0.3,0.4-0.6,0.8-0.6c-0.1-0.1-0.1-0.1-0.2-0.1c0.1,0.5-0.4,1-0.9,0.9
						c-0.2,0-0.3,0.3-0.1,0.3c0.7,0.1,1.4-0.6,1.3-1.3c0-0.1-0.1-0.1-0.2-0.1c-0.5,0.1-0.9,0.4-1.1,0.8C99.7,86.1,100,86.2,100.1,86
						L100.1,86z"/>
				</g>
			</g>
		</g>
		<g>
			<g>
				<g>
					<path class="st0" d="M42.1,97.5c1.7,2.7,5.6-1.8,6.7-3c0.1-0.2-0.1-0.4-0.2-0.2c-1,1.1-4.7,5.4-6.2,3.1
						C42.3,97.1,42,97.3,42.1,97.5L42.1,97.5z"/>
				</g>
			</g>
		</g>
		<g>
			<g>
				<g>
					<path class="st0" d="M43.7,98.6c1.9,0.4,3.6,2.6,5.6,1.4c0.2-0.1,0-0.4-0.2-0.3c-1.8,1.1-3.6-1.1-5.3-1.4
						C43.6,98.2,43.5,98.6,43.7,98.6L43.7,98.6z"/>
				</g>
			</g>
		</g>
		<g>
			<g>
				<g>
					<path class="st0" d="M45.8,83.5c0.7,0.4,1.5,0.6,2.3,0.8c1,0.2,1.9,0.2,2.7,0.9c1.9,1.5,1.9,4.2,1.9,6.4c0,0.2,0.3,0.2,0.3,0
						c0.1-2.1,0.1-4.4-1.3-6.1c-1.5-1.8-3.8-1.3-5.7-2.3C45.8,83.1,45.6,83.4,45.8,83.5L45.8,83.5z"/>
				</g>
			</g>
		</g>
		<g>
			<g>
				<g>
					<path class="st0" d="M51.8,86.2c6.2,3.9,13.5,5.5,20.8,5.3c0.2,0,0.2-0.3,0-0.3c-7.2,0.2-14.4-1.4-20.6-5.3
						C51.8,85.8,51.7,86,51.8,86.2L51.8,86.2z"/>
				</g>
			</g>
		</g>
		<g>
			<g>
				<g>
					<path class="st0" d="M96.4,79.8C90.3,85,82,86.3,75.2,90.2c-3.5,2.1-6.8,4.5-9.9,7.2c-3.1,2.7-6,5.6-9.2,8.2
						c-1.8,1.5-3.9,2.9-6.1,3.6c-1,0.3-2.2,0.6-3.2,0.4c-0.8-0.1-1.5-0.5-1.9-1.3c-0.3-0.8,0-1.9,0.9-2.1c0.2-0.1,0.1-0.4-0.1-0.3
						c-1.1,0.3-1.5,1.5-1.2,2.5c0.5,1.4,2.1,1.6,3.4,1.5c4.2-0.4,7.8-3.5,10.8-6.2c3.8-3.4,7.5-6.9,11.6-9.9c4-3,8.4-5.3,13.1-7.1
						c4.7-1.8,9.5-3.5,13.3-6.8C96.8,79.9,96.6,79.6,96.4,79.8L96.4,79.8z"/>
				</g>
			</g>
		</g>
		<g>
			<g>
				<g>
					<path class="st0" d="M96.9,79.3c-0.4,0.3-0.7,0.6-1.1,0.9c-0.2,0.1,0.1,0.4,0.2,0.2c0.4-0.3,0.7-0.6,1.1-0.9
						C97.3,79.4,97,79.2,96.9,79.3L96.9,79.3z"/>
				</g>
			</g>
		</g>
		<g>
			<g>
				<g>
					<path class="st0" d="M96.9,80.6c-2.5,2.6-5.6,4.4-8.7,6.2c-3.1,1.8-6.1,3.6-8.9,5.7c-5.6,4.2-10.6,9.1-14.9,14.6
						c-0.1,0.2,0.1,0.4,0.2,0.2c4.4-5.7,9.7-10.8,15.5-15.1c2.8-2,5.7-3.8,8.8-5.5c2.9-1.7,5.8-3.4,8.2-5.9
						C97.2,80.6,97,80.4,96.9,80.6L96.9,80.6z"/>
				</g>
			</g>
		</g>
		<g>
			<g>
				<g>
					<path class="st0" d="M97.2,81.4c-3.8,5.1-7.6,10-11.6,14.9c-0.1,0.2,0.1,0.4,0.2,0.2c4-4.9,7.9-9.9,11.7-15
						C97.7,81.4,97.4,81.2,97.2,81.4L97.2,81.4z"/>
				</g>
			</g>
		</g>
		<g>
			<g>
				<g>
					<path class="st0" d="M97.1,82.7c-0.8,1.8-1.7,3.5-2.7,5.2c-0.1,0.2,0.2,0.3,0.3,0.2c1-1.7,1.9-3.4,2.7-5.2
						C97.5,82.7,97.2,82.5,97.1,82.7L97.1,82.7z"/>
				</g>
			</g>
		</g>
		<g>
			<g>
				<g>
					<path class="st0" d="M44.5,106.8c-0.7,2.4-1.3,4.9-1.7,7.4c-0.3,1.5-0.6,3.3,0.8,4.3c1.5,1,3.7,0.8,5.4,0.6
						c2.4-0.4,4.7-1.4,6.9-2.3c0.2-0.1,0-0.4-0.2-0.3c-1.8,0.8-3.7,1.6-5.6,2.1c-1.8,0.4-4.3,0.8-6-0.1c-2.1-1.1-1-4.1-0.6-5.9
						c0.4-1.9,0.8-3.7,1.4-5.6C44.9,106.7,44.6,106.6,44.5,106.8L44.5,106.8z"/>
				</g>
			</g>
		</g>
		<g>
			<g>
				<g>
					<path class="st0" d="M46.7,119.5c0.7,1,0.7,2.1,0.1,3.1c-0.1,0.1,0,0.2,0.1,0.2c0.7,0.5,1.5,0.5,2.4,0.2c1.6-0.4,3.1-1,4.7-1.5
						c3.2-1.1,6.4-2.1,9.6-3.2c0.2-0.1,0.1-0.4-0.1-0.3c-3.8,1.3-7.5,2.6-11.3,3.8c-0.9,0.3-1.8,0.6-2.7,0.8
						c-0.4,0.1-0.9,0.3-1.3,0.3c-1.2,0-0.9-0.2-0.7-0.8c0.3-1.1,0.3-1.9-0.4-2.8C46.9,119.2,46.6,119.3,46.7,119.5L46.7,119.5z"/>
				</g>
			</g>
		</g>
		<g>
			<g>
				<g>
					<path class="st0" d="M49.3,123c-0.5,1.2-0.9,2.3-1.1,3.6c0,0.2,0.3,0.3,0.3,0.1c0.2-1.2,0.6-2.4,1.1-3.5
						C49.7,122.9,49.4,122.7,49.3,123L49.3,123z"/>
				</g>
			</g>
		</g>
		<g>
			<g>
				<g>
					<path class="st0" d="M56.7,127.5c0.2,0,0.2-0.3,0-0.3S56.5,127.5,56.7,127.5L56.7,127.5z"/>
				</g>
			</g>
		</g>
		<g>
			<g>
				<g>
					<path class="st0" d="M56.7,127.3c0-0.1,0-0.1,0-0.2c0-0.2-0.3-0.2-0.3,0c0,0.1,0,0.1,0,0.2C56.4,127.5,56.7,127.5,56.7,127.3
						L56.7,127.3z"/>
				</g>
			</g>
		</g>
		<g>
			<g>
				<g>
					<path class="st0" d="M56.9,127c-0.2,1.6,0.8,3,2.3,3.7c1.9,0.9,4.2,0.3,6.2-0.2c1.4-0.4,2.8-0.8,4.2-0.7c1.4,0.1,2.6,0.7,4,1.2
						c2.3,0.7,4.6,0.5,6.9,0c1.9-0.4,3.9-0.7,5-2.4c1.2-1.8,1.8-3.9,4.1-4.6c1.9-0.6,4.2-0.3,5.7,1.1c0.6,0.6,1.4,2.2,2.3,1.1
						c0.6-0.8,0.5-2.3,0.6-3.2c0.2-1.6,0.3-3.1,0.3-4.7c0.1-3.1-0.1-6.3-0.5-9.4c0-0.2-0.4-0.2-0.3,0c0.6,4.8,0.7,9.6,0.2,14.3
						c-0.1,0.6,0,1.6-0.3,2.1c-0.1,0.2-1.1,0.5-1.3,0.4c-0.4-0.2-0.1-0.2-0.2-0.3c-0.5-0.4-0.9-0.9-1.5-1.3
						c-1.1-0.6-2.5-0.9-3.8-0.7c-1.2,0.1-2.3,0.6-3.2,1.4c-1.3,1.2-1.6,3-2.8,4.3c-0.9,0.9-2.2,1.1-3.4,1.4
						c-1.3,0.3-2.5,0.6-3.9,0.6c-1.2,0.1-2.4,0-3.6-0.4c-1-0.3-2-0.8-3.1-1.1c-2.3-0.5-4.4,0.3-6.6,0.8c-1.5,0.4-3.3,0.6-4.8-0.1
						c-1.3-0.6-2.3-1.9-2.1-3.4C57.3,126.8,57,126.8,56.9,127L56.9,127z"/>
				</g>
			</g>
		</g>
		<g>
			<g>
				<g>
					<path class="st0" d="M49.5,99c-0.8,2-1.6,4-2.3,5.9c-0.1,0.2,0.2,0.3,0.3,0.1c0.8-2,1.6-4,2.3-5.9C49.9,98.9,49.6,98.8,49.5,99
						L49.5,99z"/>
				</g>
			</g>
		</g>
		<g>
			<g>
				<g>
					<path class="st0" d="M49.8,99.4c-0.5,1.9-1,3.7-1.4,5.6c-0.1,0.2,0.3,0.3,0.3,0.1c0.5-1.9,1-3.7,1.4-5.6
						C50.1,99.3,49.8,99.2,49.8,99.4L49.8,99.4z"/>
				</g>
			</g>
		</g>
		<g>
			<g>
				<g>
					<path class="st0" d="M50.4,99.4c-0.1,0.7-0.1,1.5-0.2,2.2c0,0.2,0.3,0.2,0.3,0c0.1-0.7,0.1-1.5,0.2-2.2
						C50.8,99.2,50.4,99.2,50.4,99.4L50.4,99.4z"/>
				</g>
			</g>
		</g>
		<g>
			<g>
				<g>
					<path class="st0" d="M63.6,118.1c1.7-1.5,4-1.6,6.2-1.9c1.8-0.3,3.5-0.7,5-1.8c1.5-1.1,2.6-2.6,3.9-4c1.5-1.6,3.2-2.8,5.1-3.9
						c3.4-2.1,6.4-4.2,8.3-7.9c2.2-4.3,3.8-9,5.6-13.5c0.1-0.2-0.2-0.3-0.3-0.1c-1,2.3-1.9,4.7-2.9,7.1c-0.9,2.3-1.8,4.6-2.9,6.8
						c-2.1,4-5.7,5.9-9.4,8.3c-1.6,1.1-3,2.2-4.3,3.7c-1.3,1.4-2.5,3-4.3,4c-3.2,1.8-7.3,0.6-10.2,3.1
						C63.2,118,63.5,118.3,63.6,118.1L63.6,118.1z"/>
				</g>
			</g>
		</g>
		<g>
			<g>
				<g>
					<path class="st0" d="M86.9,104.7c-0.4,4.2-0.7,8.3-0.7,12.5c0,0.2,0.3,0.2,0.3,0c0.1-4.2,0.3-8.4,0.7-12.5
						C87.3,104.5,86.9,104.5,86.9,104.7L86.9,104.7z"/>
				</g>
			</g>
		</g>
		<g>
			<g>
				<g>
					<path class="st0" d="M81.2,107.8c-0.6,4.9-1.2,9.7-1.6,14.6c0,0.2,0.3,0.2,0.3,0c0.5-4.9,1-9.8,1.6-14.6
						C81.6,107.7,81.3,107.7,81.2,107.8L81.2,107.8z"/>
				</g>
			</g>
		</g>
		<g>
			<g>
				<g>
					<path class="st0" d="M83.9,106.5c-0.1,1.3-0.1,2.6-0.1,3.9c0,0.2,0.3,0.2,0.3,0c0.1-1.3,0.1-2.6,0.1-3.9
						C84.2,106.3,83.9,106.3,83.9,106.5L83.9,106.5z"/>
				</g>
			</g>
		</g>
		<g>
			<g>
				<g>
					<path class="st0" d="M63.4,118.2c-0.2,2.1-0.5,4.1-1.2,6.1c-0.1,0.2,0.3,0.3,0.3,0.1c0.6-2,1-4.1,1.2-6.2
						C63.7,118,63.4,118,63.4,118.2L63.4,118.2z"/>
				</g>
			</g>
		</g>
		<g>
			<g>
				<g>
					<path class="st0" d="M64.6,117.4c-0.1,1.2-0.3,2.5-0.4,3.7c0,0.2,0.3,0.2,0.3,0c0.1-1.2,0.3-2.5,0.4-3.7
						C65,117.2,64.6,117.2,64.6,117.4L64.6,117.4z"/>
				</g>
			</g>
		</g>
		<g>
			<g>
				<g>
					<path class="st0" d="M66.4,116.8c0.2,2.8,0.3,5.5,0.4,8.2c0,0.2,0.3,0.2,0.3,0c-0.2-2.8-0.3-5.5-0.4-8.2
						C66.7,116.6,66.4,116.6,66.4,116.8L66.4,116.8z"/>
				</g>
			</g>
		</g>
		<g>
			<g>
				<g>
					<path class="st0" d="M72.8,115.5c-0.1,1.6-0.2,3.1-0.3,4.7c0,0.2,0.3,0.2,0.3,0c0.1-1.6,0.2-3.1,0.3-4.7
						C73.1,115.3,72.8,115.3,72.8,115.5L72.8,115.5z"/>
				</g>
			</g>
		</g>
		<g>
			<g>
				<g>
					<path class="st0" d="M73.8,115.1c-0.1,1.2-0.1,2.4,0,3.6c0,0.2,0.3,0.2,0.3,0c-0.1-1.2-0.1-2.4,0-3.6
						C74.1,114.9,73.8,114.9,73.8,115.1L73.8,115.1z"/>
				</g>
			</g>
		</g>
		<g>
			<g>
				<g>
					<path class="st0" d="M98.1,105.8c0,3.6,0.2,7.3,0.8,10.9c0.1,0.9,0.3,1.8,0.5,2.7c0.2,0.8,0.6,1.8,0.5,2.6
						c-0.1,0.8-0.9,1.3-1.5,1.8c-0.1,0.1-0.2,0.1-0.3,0.2c-0.3,0.3-0.4,0.5-0.4,0.9c0,0.2,0.3,0.2,0.3,0c-0.1-0.8,1.5-1,1.9-1.6
						c0.2-0.3,0.3-0.6,0.3-1c0.1-1.4-0.5-3.1-0.8-4.5c-0.7-4-1-8-1-12C98.4,105.6,98.1,105.6,98.1,105.8L98.1,105.8z"/>
				</g>
			</g>
		</g>
		<g>
			<g>
				<g>
					<path class="st0" d="M52.3,51.7c1.9-0.4,3.6-1.2,5.3-2.2c1.7-1,3.2-1.8,5.3-1.8c2.4,0,5.2,0.5,6.7-1.9c0.1-0.2-0.2-0.3-0.3-0.2
						c-1.7,2.6-5.2,1.4-7.7,1.8c-1.4,0.2-2.7,0.9-3.9,1.6c-1.7,1-3.4,1.9-5.4,2.3C52,51.5,52,51.8,52.3,51.7L52.3,51.7z"/>
				</g>
			</g>
		</g>
		<g>
			<g>
				<g>
					<path class="st0" d="M70.7,45.9c2.6,1.9,5.8,1.5,8.8,1.9c1.8,0.3,3.3,1.2,5,1.9c1.7,0.7,3.4,0.9,5.2,0.7c0.2,0,0.2-0.3,0-0.3
						c-2.1,0.2-3.9-0.2-5.8-1c-1.4-0.6-2.7-1.3-4.1-1.5c-3-0.5-6.3,0-8.9-1.9C70.7,45.5,70.5,45.8,70.7,45.9L70.7,45.9z"/>
				</g>
			</g>
		</g>
		<g>
			<g>
				<g>
					<path class="st0" d="M51.8,52.2c3.9-5.7,10.3-9.4,17.3-9.7c3.8-0.2,7.5,0.6,10.8,2.3c3.4,1.6,6.6,3.6,9.9,5.4
						c0.2,0.1,0.3-0.2,0.2-0.3c-3.7-2-7.3-4.4-11.2-6c-3.3-1.4-7-2-10.7-1.7c-6.7,0.6-12.9,4.2-16.7,9.8
						C51.4,52.2,51.7,52.4,51.8,52.2L51.8,52.2z"/>
				</g>
			</g>
		</g>
		<g>
			<g>
				<g>
					<path class="st0" d="M50.7,50.4c3.2-8,10.5-15.3,19.8-14.1c2.2,0.3,4.3,1,6.4,1.7c2.1,0.7,4.2,1.5,6.1,2.5
						c3.7,2,6.9,5.2,7.5,9.5c0,0.2,0.3,0.1,0.3-0.1c-1.1-7.2-8.3-10.5-14.5-12.5c-3.4-1.1-6.8-2-10.4-1.4c-3.5,0.6-6.6,2.3-9.2,4.6
						c-2.9,2.6-4.9,6-6.4,9.6C50.3,50.5,50.6,50.6,50.7,50.4L50.7,50.4z"/>
				</g>
			</g>
		</g>
		<g>
			<g>
				<g>
					<path class="st0" d="M50.3,50.3c1.8-7,6.8-13,13.5-15.8c4.2-1.7,8.4-1.6,12.6-0.1c3.3,1.1,6.6,2.9,9.2,5.3
						c2.9,2.6,5,5.8,5.9,9.7c0.1,0.2,0.4,0.1,0.3-0.1c-1.5-7.1-7.5-12.1-13.9-14.6c-4-1.6-8.2-2.3-12.5-1c-3.6,1.1-6.9,3.2-9.5,5.9
						c-2.9,3-4.9,6.7-5.9,10.7C49.9,50.4,50.2,50.5,50.3,50.3L50.3,50.3z"/>
				</g>
			</g>
		</g>
		<g>
			<g>
				<g>
					<path class="st0" d="M68.8,33c1.5-6.6,3-13.2,4.4-19.8c-0.1,0-0.2,0-0.3-0.1c-0.7,6.5-1.4,13.1-2,19.6c0,0.2,0.3,0.2,0.3,0
						c0.7-6.5,1.4-13.1,2-19.6c0-0.2-0.3-0.2-0.3-0.1c-1.5,6.6-3,13.2-4.4,19.8C68.5,33.1,68.8,33.2,68.8,33L68.8,33z"/>
				</g>
			</g>
		</g>
		<g>
			<g>
				<g>
					<path class="st0" d="M72.8,13.1c0,3.4,0,6.8,0,10.1c0,3.3-0.2,6.6,0.1,9.9c0,0.2,0.3,0.2,0.3,0c-0.2-3.3-0.1-6.6-0.1-9.9
						c0-3.4,0-6.8,0-10.1C73.1,12.9,72.8,12.9,72.8,13.1L72.8,13.1z"/>
				</g>
			</g>
		</g>
		<g>
			<g>
				<g>
					<path class="st0" d="M77.8,34.6c4.3-6.3,8.5-12.6,12.6-19c-0.1-0.1-0.2-0.1-0.3-0.1c-2.4,7.4-4.8,14.7-7.2,22.1
						c-0.1,0.2,0.3,0.3,0.3,0.1c2.4-7.4,4.8-14.7,7.2-22.1c0.1-0.2-0.2-0.3-0.3-0.1c-4.1,6.4-8.3,12.7-12.6,19
						C77.4,34.6,77.7,34.8,77.8,34.6L77.8,34.6z"/>
				</g>
			</g>
		</g>
		<g>
			<g>
				<g>
					<path class="st0" d="M90.1,15.7c-3.2,6.6-6.3,13.2-9.3,19.9c-0.1,0.2,0.2,0.4,0.3,0.2c3.1-6.6,6.2-13.3,9.3-19.9
						C90.5,15.6,90.2,15.5,90.1,15.7L90.1,15.7z"/>
				</g>
			</g>
		</g>
		<g>
			<g>
				<g>
					<path class="st0" d="M87.6,41.4c5.5-3.9,10.8-8,15.9-12.4c-0.1-0.1-0.2-0.1-0.3-0.2c-1.6,3.1-4,5.5-6.3,8
						c-2.4,2.6-4.7,5.3-6.8,8.1c-0.1,0.2,0.2,0.3,0.3,0.2c2.3-3,4.7-5.9,7.3-8.7c2.2-2.3,4.3-4.7,5.8-7.5c0.1-0.2-0.1-0.3-0.3-0.2
						c-5.1,4.4-10.3,8.4-15.8,12.3C87.2,41.2,87.4,41.5,87.6,41.4L87.6,41.4z"/>
				</g>
			</g>
		</g>
		<g>
			<g>
				<g>
					<path class="st0" d="M89,43.2c4.8-4.5,9.4-9,14-13.8c0.2-0.2-0.1-0.4-0.2-0.2c-4.5,4.7-9.2,9.3-14,13.8
						C88.7,43.1,88.9,43.3,89,43.2L89,43.2z"/>
				</g>
			</g>
		</g>
		<g>
			<g>
				<g>
					<path class="st0" d="M56.8,38c-2.8-6.1-5.6-12.2-8.4-18.3c-0.1,0.1-0.2,0.1-0.3,0.2c4,5.2,8.1,10.5,12.1,15.7
						c0.1,0.2,0.4,0,0.3-0.2c-4-5.2-8.1-10.5-12.1-15.7c-0.1-0.2-0.4,0-0.3,0.2c2.8,6.1,5.6,12.2,8.3,18.3
						C56.6,38.4,56.9,38.3,56.8,38L56.8,38z"/>
				</g>
			</g>
		</g>
		<g>
			<g>
				<g>
					<path class="st0" d="M48.4,20.4c2,3,3.9,6,5.6,9.1c0.9,1.5,1.8,3.1,2.6,4.7c0.5,1,1,2.1,2,2.6c0.2,0.1,0.4-0.2,0.2-0.3
						c-1.3-0.6-2-2.5-2.6-3.7c-0.8-1.4-1.6-2.8-2.4-4.2c-1.6-2.8-3.4-5.6-5.2-8.3C48.6,20.1,48.3,20.2,48.4,20.4L48.4,20.4z"/>
				</g>
			</g>
		</g>
		<g>
			<g>
				<g>
					<path class="st0" d="M50.5,48.2c-4.8-4.5-9.6-9-14.4-13.5c-0.1,0.1-0.1,0.2-0.2,0.3c5.8,2.6,11.4,5.7,16.6,9.4
						c0.2,0.1,0.3-0.2,0.2-0.3c-5.2-3.7-10.8-6.8-16.6-9.4c-0.2-0.1-0.3,0.1-0.2,0.3c4.8,4.5,9.6,9,14.4,13.5
						C50.4,48.6,50.7,48.3,50.5,48.2L50.5,48.2z"/>
				</g>
			</g>
		</g>
		<g>
			<g>
				<g>
					<path class="st0" d="M36.3,35.2c3,1.9,5.8,3.9,8.5,6.2c2.1,1.7,4,3.8,6.6,4.7c0.2,0.1,0.3-0.2,0.1-0.3c-2.9-1-5.2-3.6-7.5-5.5
						c-2.4-1.9-4.8-3.7-7.4-5.3C36.2,34.8,36.1,35,36.3,35.2L36.3,35.2z"/>
				</g>
			</g>
		</g>
		<g>
			<g>
				<g>
					<path class="st0" d="M51.1,50.5c1.9-3.3,3.9-6.6,6.8-9.2c3.1-2.8,7.1-4.1,11.3-3.9c4.2,0.2,8.5,1.5,12.3,3.2
						c3.9,1.8,7.5,4.8,8.3,9.2c0.1,0.2,0.4,0.1,0.3-0.1c-0.8-4.2-4-7.1-7.7-9c-3.9-2-8.4-3.4-12.8-3.7c-4.1-0.2-8.2,0.8-11.4,3.5
						c-3.2,2.6-5.3,6.3-7.4,9.8C50.7,50.6,51,50.7,51.1,50.5L51.1,50.5z"/>
				</g>
			</g>
		</g>
		<g>
			<g>
				<g>
					<path class="st0" d="M68.6,45c-1.4,1-2.9,1.3-4.6,1.3c-1.4,0-2.9-0.1-4.2,0.4c-2.6,0.9-4.6,3-7,4.3c-0.2,0.1,0,0.4,0.2,0.3
						c2.7-1.3,4.8-3.9,7.8-4.5c1.5-0.3,3.1-0.1,4.7-0.2c1.2-0.1,2.3-0.6,3.3-1.2C68.9,45.2,68.8,44.9,68.6,45L68.6,45z"/>
				</g>
			</g>
		</g>
		<g>
			<g>
				<g>
					<path class="st0" d="M71,45.6c3.7,1.5,8,0.1,11.5,2.2c2.3,1.4,4.5,3.3,7.3,2.1c0.2-0.1,0-0.4-0.2-0.3c-3.3,1.4-5.6-1.7-8.4-2.9
						c-3.2-1.3-6.9-0.2-10.1-1.5C70.9,45.3,70.8,45.6,71,45.6L71,45.6z"/>
				</g>
			</g>
		</g>
		<g>
			<g>
				<g>
					<path class="st0" d="M98.1,98.9c-0.2,1.2,1.3,1.4,2,0.6c0.6-0.7,0.7-1.9,0.8-2.7c0.2-1.5,0.3-3,0.2-4.5c0-0.2-0.3-0.2-0.3,0
						c0.1,1.2,0.1,2.3,0,3.5c-0.1,0.6-0.2,1.3-0.3,1.9c-0.1,0.3-0.1,0.5-0.2,0.8c-0.1,0.9-0.7,1-1.8,0.5
						C98.4,98.8,98.1,98.7,98.1,98.9L98.1,98.9z"/>
				</g>
			</g>
		</g>
		<g>
			<g>
				<g>
					<path class="st0" d="M99.7,92.3c-0.3,1.4-0.5,2.7-0.8,4.1c-0.1,0.2,0.3,0.3,0.3,0.1c0.3-1.4,0.5-2.7,0.8-4.1
						C100,92.2,99.7,92.1,99.7,92.3L99.7,92.3z"/>
				</g>
			</g>
		</g>
		<g>
			<g>
				<g>
					<path class="st0" d="M53.4,88.4c0.3,4,0.3,8-0.1,12c0,0.2,0.3,0.2,0.3,0c0.4-4,0.4-8,0.1-12C53.7,88.2,53.4,88.2,53.4,88.4
						L53.4,88.4z"/>
				</g>
			</g>
		</g>
		<g>
			<g>
				<g>
					<path class="st0" d="M55.4,91.8c0.3,1.2,0.3,2.3,0,3.5c-0.1,0.2,0.3,0.3,0.3,0.1c0.3-1.2,0.3-2.4,0-3.7
						C55.7,91.5,55.3,91.6,55.4,91.8L55.4,91.8z"/>
				</g>
			</g>
		</g>
		<g>
			<g>
				<g>
					<path class="st0" d="M57.3,92.5c0,0.1,0,0.3,0,0.4c0,0.2,0.3,0.2,0.3,0c0-0.1,0-0.3,0-0.4C57.6,92.3,57.3,92.3,57.3,92.5
						L57.3,92.5z"/>
				</g>
			</g>
		</g>
		<g>
			<g>
				<g>
					<path class="st0" d="M46,83c3.5-0.7,6.6,1.3,9.6,2.7c2.7,1.2,5.5,2.1,8.3,2.6c5.8,1.1,11.7,0.7,17.3-1c0.2-0.1,0.1-0.4-0.1-0.3
						c-6.1,1.9-12.7,2.1-18.9,0.6c-3.1-0.7-5.9-1.9-8.7-3.3c-2.4-1.2-4.9-2.3-7.6-1.7C45.8,82.7,45.8,83,46,83L46,83z"/>
				</g>
			</g>
		</g>
		<g>
			<g>
				<g>
					<path class="st0" d="M70.8,93.1c-2.1,0.2-4.2,0.5-6.4,0.7c-0.2,0-0.2,0.3,0,0.3c2.1-0.2,4.2-0.5,6.4-0.7
						C71,93.4,71,93.1,70.8,93.1L70.8,93.1z"/>
				</g>
			</g>
		</g>
		<g>
			<g>
				<g>
					<path class="st0" d="M57.1,127.5c0-1.4,0.2-2.7,0.3-4.1c0-0.2-0.3-0.3-0.3-0.1c-0.2,1.4-0.3,2.8-0.4,4.1
						C56.8,127.7,57.1,127.7,57.1,127.5L57.1,127.5z"/>
				</g>
			</g>
		</g>
		<g>
			<g>
				<g>
					<path class="st0" d="M87.3,126.2c-0.1,0-0.3,0-0.4,0c-0.2,0-0.2,0.3,0,0.3c0.1,0,0.3,0,0.4,0C87.5,126.6,87.5,126.2,87.3,126.2
						L87.3,126.2z"/>
				</g>
			</g>
		</g>
		<g>
			<g>
				<g>
					<path class="st0" d="M86.6,124c1.7-1.4,3.7-2.1,5.9-1.9c0.2,0,0.2-0.3,0-0.3c-2.3-0.2-4.4,0.6-6.2,2
						C86.2,123.9,86.4,124.2,86.6,124L86.6,124z"/>
				</g>
			</g>
		</g>
		<g>
			<g>
				<g>
					<path class="st0" d="M52.3,123.3c1-0.2,2,0.1,2.7,0.8c0.2,0.2,0.4-0.1,0.2-0.2c-0.8-0.8-1.9-1.1-3-0.9
						C52,123,52.1,123.3,52.3,123.3L52.3,123.3z"/>
				</g>
			</g>
		</g>
		<g>
			<g>
				<g>
					<path class="st0" d="M53.3,122.5c0.4,0.1,0.7,0.2,1.1,0.2c0.2,0.1,0.3-0.3,0.1-0.3c-0.4-0.1-0.7-0.2-1.1-0.2
						C53.2,122.2,53.1,122.5,53.3,122.5L53.3,122.5z"/>
				</g>
			</g>
		</g>
		<g>
			<g>
				<g>
					<path class="st0" d="M88.2,122c0.3-0.1,0.6-0.1,0.9-0.2c0.2-0.1,0.1-0.4-0.1-0.3c-0.3,0.1-0.6,0.1-0.9,0.2
						C87.9,121.8,88,122.1,88.2,122L88.2,122z"/>
				</g>
			</g>
		</g>
		<g>
			<g>
				<g>
					<path class="st0" d="M44,88c-0.1,1.3-0.1,2.6-0.2,3.9c0,0.2,0.3,0.2,0.3,0c0.1-1.3,0.1-2.6,0.2-3.9C44.4,87.8,44,87.8,44,88
						L44,88z"/>
				</g>
			</g>
		</g>
		<g>
			<g>
				<g>
					<path class="st0" d="M51.5,49.5c0.3,0.4,0.6,0.7,1,0.8c0.2,0.1,0.3-0.2,0.1-0.3c-0.4-0.1-0.6-0.4-0.8-0.7
						C51.7,49.2,51.4,49.3,51.5,49.5L51.5,49.5z"/>
				</g>
			</g>
		</g>
		<g>
			<g>
				<g>
					<path class="st0" d="M52.5,48c0.3,0.5,0.8,1,1.3,1.2c0.2,0.1,0.4-0.2,0.2-0.3c-0.5-0.2-0.9-0.6-1.2-1.1
						C52.7,47.7,52.4,47.8,52.5,48L52.5,48z"/>
				</g>
			</g>
		</g>
		<g>
			<g>
				<g>
					<path class="st0" d="M54,45.6c0.3,0.9,0.9,1.6,1.8,2c0.2,0.1,0.3-0.2,0.1-0.3c-0.8-0.3-1.4-1-1.6-1.8
						C54.2,45.3,53.9,45.4,54,45.6L54,45.6z"/>
				</g>
			</g>
		</g>
		<g>
			<g>
				<g>
					<path class="st0" d="M56.8,42.2c0.7,1,1.5,1.9,2.2,2.8c0.1,0.2,0.4-0.1,0.2-0.2c-0.7-1-1.5-1.9-2.2-2.8
						C56.9,41.9,56.7,42.1,56.8,42.2L56.8,42.2z"/>
				</g>
			</g>
		</g>
		<g>
			<g>
				<g>
					<path class="st0" d="M62.5,38.2c0.5,1.6,1,3.1,1.5,4.7c0.1,0.2,0.4,0.1,0.3-0.1c-0.5-1.6-1-3.1-1.5-4.7
						C62.7,37.9,62.4,38,62.5,38.2L62.5,38.2z"/>
				</g>
			</g>
		</g>
		<g>
			<g>
				<g>
					<path class="st0" d="M73.9,38c-0.3,1.5-0.6,3-0.7,4.5c0,0.2,0.3,0.2,0.3,0c0.1-1.5,0.3-3,0.6-4.4C74.2,37.9,73.9,37.8,73.9,38
						L73.9,38z"/>
				</g>
			</g>
		</g>
		<g>
			<g>
				<g>
					<path class="st0" d="M80,44.5c0.7-1.2,1.4-2.4,2-3.6c0.1-0.2-0.2-0.3-0.3-0.2c-0.7,1.2-1.4,2.4-2,3.6
						C79.6,44.5,79.9,44.7,80,44.5L80,44.5z"/>
				</g>
			</g>
		</g>
		<g>
			<g>
				<g>
					<path class="st0" d="M82.3,45.7c0.7-1.2,1.4-2.3,2.2-3.5c0.1-0.2-0.2-0.3-0.3-0.2c-0.7,1.2-1.4,2.3-2.2,3.5
						C81.9,45.7,82.2,45.9,82.3,45.7L82.3,45.7z"/>
				</g>
			</g>
		</g>
		<g>
			<g>
				<g>
					<path class="st0" d="M84.4,46.7c0.6-1,1.2-2,1.8-3c0.1-0.2-0.2-0.3-0.3-0.2c-0.6,1-1.2,2-1.8,3C84.1,46.7,84.3,46.9,84.4,46.7
						L84.4,46.7z"/>
				</g>
			</g>
		</g>
		<g>
			<g>
				<g>
					<path class="st0" d="M85.8,47.6c0.5-0.9,1.1-1.8,1.6-2.7c0.1-0.2-0.2-0.3-0.3-0.2c-0.5,0.9-1.1,1.8-1.6,2.7
						C85.4,47.6,85.7,47.8,85.8,47.6L85.8,47.6z"/>
				</g>
			</g>
		</g>
		<g>
			<g>
				<g>
					<path class="st0" d="M87,48.4c0.4-0.8,0.9-1.6,1.3-2.4c0.1-0.2-0.2-0.3-0.3-0.2c-0.4,0.8-0.9,1.6-1.3,2.4
						C86.6,48.4,86.9,48.6,87,48.4L87,48.4z"/>
				</g>
			</g>
		</g>
		<g>
			<g>
				<g>
					<path class="st0" d="M87.9,49c0.5-0.6,0.9-1.2,1.2-2c0.1-0.2-0.2-0.3-0.3-0.1c-0.3,0.7-0.6,1.3-1.1,1.8
						C87.6,48.9,87.8,49.2,87.9,49L87.9,49z"/>
				</g>
			</g>
		</g>
		<g>
			<g>
				<g>
					<path class="st0" d="M89.1,49.3c0.1-0.3,0.3-0.5,0.4-0.7c0.1-0.2-0.2-0.3-0.3-0.2c-0.1,0.3-0.3,0.5-0.4,0.7
						C88.7,49.3,89,49.5,89.1,49.3L89.1,49.3z"/>
				</g>
			</g>
		</g>
		<g>
			<g>
				<g>
					<path class="st0" d="M99.7,92.2c-0.5-0.3-0.9-0.6-1.1-1.2c-0.3-1,0.9-2.3,1.7-1.1c0.1-0.1,0.2-0.1,0.3-0.2
						c-0.6-0.9,0.1-2.2,1.3-1.8c0.2,0.1,0.3-0.3,0.1-0.3c-1.5-0.5-2.4,1.1-1.6,2.3c0.1,0.2,0.4,0,0.3-0.2c-0.5-0.8-1.6-0.8-2.1,0
						c-0.7,1.1,0.2,2.2,1.1,2.7C99.7,92.6,99.9,92.3,99.7,92.2L99.7,92.2z"/>
				</g>
			</g>
		</g>
		<g>
			<g>
				<g>
					<path class="st0" d="M99.6,92.7c1.4-0.1,2.6-1.3,3.2-2.5c0.4-1,0.3-2.2-0.9-2.5c-0.2-0.1-0.3,0.3-0.1,0.3
						c1.4,0.4,0.8,2,0.2,2.8c-0.6,0.8-1.4,1.5-2.4,1.6C99.4,92.4,99.4,92.7,99.6,92.7L99.6,92.7z"/>
				</g>
			</g>
		</g>
		<g>
			<g>
				<g>
					<path class="st0" d="M40.6,82.9c-0.3-0.7-0.5-1.4-0.6-2.1c-0.2-1-0.4-2.4,0.8-2.8c1-0.3,2.7-0.3,2.7,1c0.1,0.8-0.3,1.8-0.4,2.5
						c0,0.2,0.3,0.3,0.3,0.1c0.1-0.8,0.2-1.6,0.3-2.4c0.1-0.4,0.1-0.8-0.1-1.1c-0.5-0.7-1.9-0.7-2.5-0.5c-0.7,0.1-1.5,0.3-1.7,1.1
						c-0.3,1.3,0.3,3.1,0.7,4.3C40.3,83.2,40.6,83.1,40.6,82.9L40.6,82.9z"/>
				</g>
			</g>
		</g>
		<g>
			<g>
				<g>
					<path class="st0" d="M44.2,77c-0.1,0.6-0.4,1.1-0.8,1.5c-0.1,0.2,0.2,0.3,0.3,0.2c0.4-0.5,0.7-1,0.8-1.6
						C44.6,76.9,44.3,76.8,44.2,77L44.2,77z"/>
				</g>
			</g>
		</g>
		<g>
			<g>
				<g>
					<path class="st0" d="M39,79.4c-0.9-0.9-1.9-2.5-0.1-3c0.6-0.2,1.4-0.2,2-0.3c0.9-0.2,1.8-0.5,2.7-0.3c0.2,0.1,0.3-0.3,0.1-0.3
						c-1.2-0.3-2.3,0.2-3.4,0.3C39.5,76,38.6,76,38,76.5c-1,0.9,0.2,2.4,0.8,3.1C39,79.8,39.2,79.6,39,79.4L39,79.4z"/>
				</g>
			</g>
		</g>
		<g>
			<g>
				<g>
					<path class="st0" d="M35.4,78.2c-0.8-2,1.9-3.2,3.4-3.7c0.8-0.3,1.8-0.4,2.7-0.3c0.7,0.1,4.3,1.1,3,2.5
						c-0.2,0.2,0.1,0.4,0.2,0.2c0.8-0.8,0.2-1.6-0.6-2.1c-1.3-0.9-3.1-1.1-4.6-0.8c-1.8,0.4-5.4,1.9-4.4,4.3
						C35.2,78.5,35.5,78.4,35.4,78.2L35.4,78.2z"/>
				</g>
			</g>
		</g>
		<g>
			<g>
				<g>
					<path class="st0" d="M37.7,78.1c-0.5,0.3-1,0.6-1.6,0.5c-0.2,0-0.2,0.3,0,0.3c0.7,0.1,1.2-0.2,1.8-0.5
						C38.1,78.3,37.9,78,37.7,78.1L37.7,78.1z"/>
				</g>
			</g>
		</g>
		<g>
			<g>
				<g>
					<path class="st0" d="M34.8,77.5c-0.6-0.6-1.5-1.8-1.3-2.8c0.2-0.8,1-1.1,1.6-0.6c0.5,0.3,0.7,0.8,1,1.2c0.1,0.2,0.4,0,0.3-0.2
						c-0.5-0.9-1.8-2.4-2.9-1.3c-1.1,1.1,0.4,3,1.1,3.8C34.7,77.9,34.9,77.7,34.8,77.5L34.8,77.5z"/>
				</g>
			</g>
		</g>
		<g>
			<g>
				<g>
					<path class="st0" d="M34.8,73.6c0-0.8,0.9-1.2,1.6-1.1c0.8,0.1,1.4,0.8,1.6,1.6c0.1,0.2,0.4,0.1,0.3-0.1
						c-0.3-1-1.1-1.9-2.2-1.9c-0.8,0-1.7,0.6-1.7,1.5C34.5,73.8,34.8,73.8,34.8,73.6L34.8,73.6z"/>
				</g>
			</g>
		</g>
		<g>
			<g>
				<g>
					<path class="st0" d="M37.3,72.7c0.1-0.9,1.2-1.5,2-1.1c0.8,0.4,1,1.4,0.8,2.1c-0.1,0.2,0.3,0.3,0.3,0.1c0.3-1-0.2-2.3-1.3-2.6
						c-1-0.3-2,0.5-2.1,1.5C37,72.9,37.3,72.9,37.3,72.7L37.3,72.7z"/>
				</g>
			</g>
		</g>
		<g>
			<g>
				<g>
					<path class="st0" d="M39.7,71.7c0.5-0.7,1.6-0.5,1.9,0.3c0.2,0.6,0.1,1.3-0.1,1.9c-0.1,0.2,0.3,0.3,0.3,0.1
						c0.2-0.8,0.4-2-0.3-2.6c-0.6-0.6-1.6-0.5-2.1,0.2C39.3,71.7,39.6,71.9,39.7,71.7L39.7,71.7z"/>
				</g>
			</g>
		</g>
		<g>
			<g>
				<g>
					<path class="st0" d="M41.9,71.8c1.2,0,1.8,1.5,0.8,2.3c-0.2,0.1,0.1,0.4,0.2,0.2c1.1-1,0.4-2.8-1.1-2.8
						C41.7,71.4,41.7,71.8,41.9,71.8L41.9,71.8z"/>
				</g>
			</g>
		</g>
		<g>
			<g>
				<g>
					<path class="st0" d="M43.3,72.2c1,0.5,1.4,1.7,0.9,2.7c-0.1,0.2,0.2,0.3,0.3,0.2c0.6-1.1,0.2-2.6-1-3.1
						C43.3,71.9,43.2,72.2,43.3,72.2L43.3,72.2z"/>
				</g>
			</g>
		</g>
		<g>
			<g>
				<g>
					<path class="st0" d="M36.5,78.9c0.2,0.6,0.5,1.1,1,1.5c0.2,0.2,0.4,0.4,0.6,0.5c0.2,0.2,0.7,0.3,0.9,0.4c0.4,0.4,0,1.4,0.4,1.9
						c0.3,0.4,0.6,0.5,1,0.4c0.2,0,0.1-0.3-0.1-0.3c-1,0.2-0.7-1.7-0.8-2.2c0-0.1-0.1-0.1-0.1-0.1c-1.2-0.4-2.1-1.2-2.5-2.3
						C36.8,78.6,36.4,78.7,36.5,78.9L36.5,78.9z"/>
				</g>
			</g>
		</g>
		<g>
			<g>
				<g>
					<path class="st0" d="M38.7,81c0.2-0.9,0.5-1.7,1.1-2.4c0.1-0.2-0.1-0.4-0.2-0.2c-0.6,0.7-1,1.6-1.2,2.5
						C38.4,81.1,38.7,81.2,38.7,81L38.7,81z"/>
				</g>
			</g>
		</g>
		<g>
			<g>
				<g>
					<path class="st0" d="M36.1,64c-1.9,0.6-1.3,3.7,0.8,3.3c0.9-0.2,1.6-1,1.5-1.9c-0.2-1.1-1.2-1.8-2.3-1.6
						c-0.2,0-0.1,0.3,0.1,0.3c0.9-0.2,1.9,0.5,1.9,1.5c0,0.7-0.6,1.3-1.3,1.4c-1.6,0.3-2.1-2.1-0.6-2.6C36.4,64.2,36.3,63.9,36.1,64
						L36.1,64z"/>
				</g>
			</g>
		</g>
		<g>
			<g>
				<g>
					<path class="st0" d="M37.7,64.3c0.7-1.1,2.5-1,3,0.2c0.6,1.6-1.2,2.8-2.6,2c-0.2-0.1-0.3,0.2-0.2,0.3c1.6,1,3.7-0.4,3.1-2.3
						c-0.5-1.6-2.7-1.7-3.6-0.4C37.3,64.3,37.6,64.4,37.7,64.3L37.7,64.3z"/>
				</g>
			</g>
		</g>
		<g>
			<g>
				<g>
					<path class="st0" d="M37.1,67.3c0.2,0.4,0.4,0.7,0.5,1.1c0.1,0.1,0.3,0.1,0.3,0c0.1-0.3,0.3-0.6,0.5-0.8
						c0.2-0.1-0.1-0.4-0.2-0.2c-0.3,0.3-0.5,0.6-0.6,1c0.1,0,0.2,0,0.3,0c-0.2-0.4-0.4-0.7-0.5-1.1C37.3,66.9,37.1,67.1,37.1,67.3
						L37.1,67.3z"/>
				</g>
			</g>
		</g>
		<g>
			<g>
				<g>
					<path class="st0" d="M35.1,65.7c-1.3,0.9-2.1,2.4-2.1,4c0,1.3,0.7,3.2,2.3,3c0.2,0,0.2-0.3,0-0.3c-1.8,0.2-2.1-2.3-1.9-3.5
						c0.2-1.2,0.8-2.2,1.9-2.9C35.4,65.9,35.2,65.6,35.1,65.7L35.1,65.7z"/>
				</g>
			</g>
		</g>
		<g>
			<g>
				<g>
					<path class="st0" d="M42.7,71.7c1.6-1.6,0.9-6.3-1.8-6.3c-0.2,0-0.2,0.3,0,0.3c2.4,0.1,2.8,4.5,1.5,5.8
						C42.3,71.6,42.5,71.9,42.7,71.7L42.7,71.7z"/>
				</g>
			</g>
		</g>
		<g>
			<g>
				<g>
					<path class="st0" d="M36.3,63.9c-0.9-1-0.6-2.7,0.6-3.3c-0.1-0.1-0.2-0.2-0.2-0.2c-0.4,0.8-0.8,2.4,0.6,2.5
						c0.1,0,0.2-0.1,0.2-0.2c0-0.4-0.1-1.3,0.7-1.2c0-0.1-0.1-0.1-0.1-0.2c-0.1,0.4-0.2,0.8-0.1,1.3c0,0.1,0.1,0.2,0.2,0.2
						c0.5-0.2,0.8-0.1,1.3,0.1c0.2,0.1,0.3-0.3,0.1-0.3c-0.2-0.1-0.6-0.3-0.8-0.3c-0.2,0-0.4,0.1-0.6,0.2c0.1,0.1,0.1,0.1,0.2,0.2
						c0-0.4,0-0.8,0.1-1.2c0-0.1,0-0.2-0.1-0.2c-0.9-0.2-1.1,0.8-1.1,1.5c0.1-0.1,0.1-0.1,0.2-0.2c-1.1-0.1-0.6-1.5-0.3-2.1
						c0.1-0.2-0.1-0.3-0.2-0.2c-1.4,0.7-1.7,2.7-0.7,3.8C36.2,64.3,36.4,64.1,36.3,63.9L36.3,63.9z"/>
				</g>
			</g>
		</g>
		<g>
			<g>
				<g>
					<path class="st0" d="M33.8,68.6c0.5,1,0.6,2,0.3,3.1c-0.1,0.2,0.2,0.3,0.3,0.1c0.4-1.1,0.3-2.3-0.3-3.3
						C34,68.2,33.7,68.4,33.8,68.6L33.8,68.6z"/>
				</g>
			</g>
		</g>
		<g>
			<g>
				<g>
					<path class="st0" d="M41.3,67.9c-0.6,1-0.2,2.5,0.9,3c0.2,0.1,0.4-0.2,0.2-0.3c-1-0.4-1.3-1.6-0.8-2.5
						C41.7,67.9,41.4,67.8,41.3,67.9L41.3,67.9z"/>
				</g>
			</g>
		</g>
		<g>
			<g>
				<g>
					<path class="st0" d="M39.6,62.9c0.2-0.2,0.3-0.4,0.3-0.7c-0.1,0-0.2,0.1-0.3,0.1c0.2,0.3,0.3,0.7,0.2,1
						c-0.1,0.2,0.3,0.3,0.3,0.1c0.1-0.5,0-1-0.3-1.4c-0.1-0.1-0.3,0-0.3,0.1c0,0.2-0.1,0.4-0.2,0.5C39.2,62.8,39.5,63,39.6,62.9
						L39.6,62.9z"/>
				</g>
			</g>
		</g>
		<g>
			<g>
				<g>
					<path class="st0" d="M38.4,68.3c0.1-0.4,0.4-0.7,0.7-0.8c0.2-0.1,0.1-0.4-0.1-0.3c-0.5,0.1-0.9,0.5-1,1
						C38.1,68.4,38.4,68.5,38.4,68.3L38.4,68.3z"/>
				</g>
			</g>
		</g>
		<g>
			<g>
				<g>
					<path class="st0" d="M34.2,71.6c0,0-0.1-0.8-0.1-0.9c0-0.3,0-0.7,0-1c0-0.2-0.3-0.2-0.3,0c0,0.5,0,1,0,1.5c0,0.3,0,0.6,0.3,0.7
						C34.3,72,34.4,71.7,34.2,71.6L34.2,71.6z"/>
				</g>
			</g>
		</g>
		<g>
			<g>
				<g>
					<path class="st0" d="M42.6,70.8c-0.3-0.5-0.4-1-0.5-1.5c0-0.2-0.3-0.2-0.3,0c0.1,0.6,0.2,1.2,0.5,1.7
						C42.4,71.1,42.7,71,42.6,70.8L42.6,70.8z"/>
				</g>
			</g>
		</g>
		<g>
			<g>
				<g>
					<path class="st0" d="M42.6,70.5c0-0.2,0.1-0.3,0.1-0.5c-0.1,0-0.2,0.1-0.3,0.1c0.1,0.1,0.2,0.2,0.3,0.3c0.1,0.1,0.2,0,0.2-0.1
						c0.1-0.3,0.1-0.7,0-1c-0.1-0.2-0.4-0.1-0.3,0.1c0.1,0.3,0.1,0.6,0,0.8c0.1,0,0.2-0.1,0.2-0.1c-0.1-0.1-0.2-0.1-0.3-0.2
						c-0.1-0.1-0.2,0-0.3,0.1c-0.1,0.2-0.1,0.3-0.1,0.5C42.3,70.6,42.6,70.7,42.6,70.5L42.6,70.5z"/>
				</g>
			</g>
		</g>
		<g>
			<g>
				<g>
					<path class="st0" d="M33.8,71.2c-0.2,0-0.3-0.1-0.3-0.3c0-0.1-0.1-0.2-0.2-0.2c-0.1,0-0.2,0.1-0.2,0.2c0,0.3,0.3,0.6,0.6,0.6
						C34,71.6,34,71.3,33.8,71.2L33.8,71.2z"/>
				</g>
			</g>
		</g>
		<g>
			<g>
				<g>
					<path class="st0" d="M36.4,65.7c-0.2-0.1-0.2-0.3,0-0.3S36.7,65.6,36.4,65.7c-0.2,0-0.2,0.3,0,0.3c0.3,0,0.5-0.2,0.5-0.5
						c0-0.3-0.2-0.4-0.4-0.5c-0.2,0-0.5,0.1-0.5,0.3c-0.1,0.2,0.1,0.5,0.3,0.6S36.6,65.7,36.4,65.7L36.4,65.7z"/>
				</g>
			</g>
		</g>
		<g>
			<g>
				<g>
					<path class="st0" d="M39.2,65.2c-0.1,0-0.1-0.2,0-0.2C39.3,65.1,39.3,65.2,39.2,65.2c-0.2,0.1-0.1,0.4,0.1,0.3
						c0.4-0.1,0.4-0.8-0.1-0.8c-0.5,0-0.5,0.6-0.1,0.8C39.3,65.6,39.4,65.3,39.2,65.2L39.2,65.2z"/>
				</g>
			</g>
		</g>
		<g>
			<g>
				<g>
					<path class="st0" d="M41.8,71.8C41.8,71.7,41.8,71.7,41.8,71.8c0.3-0.2,0.1-0.4-0.1-0.3c0,0-0.1,0-0.1,0.1
						C41.4,71.6,41.6,71.9,41.8,71.8L41.8,71.8z"/>
				</g>
			</g>
		</g>
		<g>
			<g>
				<g>
					<path class="st0" d="M43.3,72.2c0.2,0,0.2-0.3,0-0.3C43.1,71.9,43.1,72.2,43.3,72.2L43.3,72.2z"/>
				</g>
			</g>
		</g>
		<g>
			<g>
				<g>
					<path class="st0" d="M38.2,74.4c0.2,0,0.2-0.3,0-0.3C38,74,38,74.4,38.2,74.4L38.2,74.4z"/>
				</g>
			</g>
		</g>
		<g>
			<g>
				<g>
					<path class="st0" d="M35.2,73.7c0.1-0.7,1.2-1.1,1.8-0.6c0.4,0.3,0.6,1,0.7,1.4c0.1,0.2,0.4,0.1,0.3-0.1
						c-0.2-0.8-0.6-1.7-1.5-1.8c-0.8-0.1-1.5,0.3-1.6,1.1C34.8,73.9,35.1,73.9,35.2,73.7L35.2,73.7z"/>
				</g>
			</g>
		</g>
		<g>
			<g>
				<g>
					<path class="st0" d="M40,71.9c0.3-0.1,0.6-0.3,0.9-0.1c0.2,0.1,0.3,0.4,0.3,0.7c0.1,0.4-0.1,0.9-0.2,1.4c0,0.2,0.3,0.2,0.3,0
						c0.1-0.7,0.4-1.4-0.1-2.1c-0.4-0.5-1-0.4-1.5-0.2C39.7,71.7,39.8,72,40,71.9L40,71.9z"/>
				</g>
			</g>
		</g>
		<g>
			<g>
				<g>
					<path class="st0" d="M39.5,81.5c0-0.2,0.1-0.4,0.3-0.6c0.2-0.1,0-0.4-0.2-0.3c-0.3,0.2-0.4,0.5-0.4,0.8
						C39.2,81.7,39.5,81.7,39.5,81.5L39.5,81.5z"/>
				</g>
			</g>
		</g>
		<g>
			<g>
				<g>
					<path class="st0" d="M39.6,83.2c0.1-0.4,0.3-0.7,0.6-1c0.2-0.1-0.1-0.4-0.2-0.2c-0.3,0.3-0.6,0.7-0.7,1.1
						C39.2,83.3,39.5,83.4,39.6,83.2L39.6,83.2z"/>
				</g>
			</g>
		</g>
		<g>
			<g>
				<g>
					<path class="st0" d="M37.5,80.1c0.2-0.5,0.5-0.9,1-1.1c0.2-0.1,0-0.4-0.2-0.3c-0.5,0.3-0.9,0.8-1.1,1.3
						C37.2,80.2,37.5,80.3,37.5,80.1L37.5,80.1z"/>
				</g>
			</g>
		</g>
		<g>
			<g>
				<g>
					<path class="st0" d="M41.5,82.8c-0.3-0.6-0.5-1.3-0.5-2c-0.1-0.5,0.1-2.3,1-1.9c0.7,0.3,0.8,2.1,0.8,2.7c0,0.2,0.3,0.2,0.3,0
						c0-0.8-0.2-3.1-1.3-3.1c-0.7,0-1.1,0.9-1.1,1.4c-0.1,1,0.2,2,0.5,2.9C41.2,83,41.5,82.9,41.5,82.8L41.5,82.8z"/>
				</g>
			</g>
		</g>
		<g>
			<g>
				<g>
					<path class="st0" d="M39.2,77.4c0.5-0.5,3.7-0.9,3.7,0.2c0,0.2,0.3,0.2,0.3,0c-0.1-1.5-3.6-1.2-4.2-0.4
						C38.8,77.3,39.1,77.5,39.2,77.4L39.2,77.4z"/>
				</g>
			</g>
		</g>
		<g>
			<g>
				<g>
					<path class="st0" d="M40.7,85.5c0,0.4-0.1,3.7,0.8,3.5c0.4-0.1,0.4-1.3,0.5-1.7c0.2-1.1,0.3-2.2,0.2-3.3c0-0.2-0.3-0.2-0.3,0
						c0,1.3-0.1,2.6-0.4,3.9c0,0.1-0.2,0.7-0.2,0.7c-0.1-0.1-0.1-0.8-0.2-1c-0.1-0.7-0.1-1.4-0.2-2.1C41.1,85.3,40.7,85.3,40.7,85.5
						L40.7,85.5z"/>
				</g>
			</g>
		</g>
		<g>
			<g>
				<g>
					<path class="st0" d="M41.1,85.6c0-0.3,0.1-0.6,0.3-0.9c0.1-0.2,0.4-0.8,0.7-0.7c0.2,0.1,0.3-0.2,0.2-0.3
						c-0.4-0.3-0.7,0.1-0.9,0.4c-0.3,0.4-0.6,0.9-0.6,1.4C40.7,85.8,41,85.8,41.1,85.6L41.1,85.6z"/>
				</g>
			</g>
		</g>
		<g>
			<g>
				<g>
					<path class="st0" d="M45.4,83.4c0.1,0,0.1,0.1,0.1,0.1c0.2,0.1,0.4-0.1,0.2-0.2c-0.1,0-0.1-0.1-0.1-0.1
						C45.5,83,45.2,83.3,45.4,83.4L45.4,83.4z"/>
				</g>
			</g>
		</g>
		<g>
			<g>
				<g>
					<path class="st0" d="M45.5,83.3C45.5,83.3,45.5,83.3,45.5,83.3c0.2,0,0.2-0.3,0-0.3h0C45.2,83,45.2,83.3,45.5,83.3L45.5,83.3z"
						/>
				</g>
			</g>
		</g>
		<g>
			<g>
				<g>
					<path class="st0" d="M43.8,75.9c0.1,0,0.3,0.4,0.3,0.5c0.1,0.2,0.2,0.4,0.2,0.6c0.1,0.2,0.4,0.1,0.3-0.1
						c-0.1-0.3-0.2-0.6-0.3-0.8c-0.1-0.2-0.3-0.4-0.5-0.5C43.6,75.6,43.6,75.9,43.8,75.9L43.8,75.9z"/>
				</g>
			</g>
		</g>
		<g>
			<g>
				<g>
					<path class="st0" d="M35.2,78.4c0.2,0.3,0.4,0.5,0.7,0.6c0.2,0.1,0.3-0.2,0.1-0.3c-0.2-0.1-0.4-0.2-0.5-0.4
						C35.3,78,35.1,78.2,35.2,78.4L35.2,78.4z"/>
				</g>
			</g>
		</g>
		<g>
			<g>
				<g>
					<path class="st0" d="M38.9,77.3c-0.1,0.2,0,0.4,0.2,0.6c0.2,0.2,0.5,0.3,0.7,0.4c0.2,0.1,0.4-0.1,0.2-0.2
						c-0.2-0.1-0.3-0.2-0.5-0.3c-0.2-0.1-0.3-0.2-0.3-0.4C39.2,77.2,38.9,77.2,38.9,77.3L38.9,77.3z"/>
				</g>
			</g>
		</g>
		<g>
			<g>
				<g>
					<path class="st0" d="M43.1,78c0.2,0,0.2-0.3,0-0.3C42.9,77.6,42.9,78,43.1,78L43.1,78z"/>
				</g>
			</g>
		</g>
		<g>
			<g>
				<g>
					<path class="st0" d="M34.7,77.9c0.1,0.1,0.2,0.2,0.3,0.2c0.2,0.1,0.4-0.2,0.2-0.3c-0.1,0-0.1-0.1-0.2-0.1
						C34.9,77.5,34.6,77.7,34.7,77.9L34.7,77.9z"/>
				</g>
			</g>
		</g>
		<g>
			<g>
				<g>
					<path class="st0" d="M40.3,83.2C40.4,83.2,40.4,83.2,40.3,83.2c0.2,0.3,0.4,0.1,0.3-0.1c0,0,0-0.1-0.1-0.1
						C40.5,82.8,40.2,83,40.3,83.2L40.3,83.2z"/>
				</g>
			</g>
		</g>
		<g>
			<g>
				<g>
					<path class="st0" d="M50,99.4c0.2-1.2,0.6-2.2,1.2-3.2c-0.1,0-0.2-0.1-0.3-0.1c0,0.7,0.1,1.4,0.1,2.1c0,0.1,0.2,0.2,0.3,0.1
						c0.2-0.2,0.3-0.3,0.5-0.5c0.2-0.1-0.1-0.4-0.2-0.2c-0.2,0.2-0.3,0.3-0.5,0.5c0.1,0,0.2,0.1,0.3,0.1c0-0.7-0.1-1.4-0.1-2.1
						c0-0.2-0.2-0.2-0.3-0.1c-0.6,1-1,2.1-1.2,3.3C49.7,99.5,50,99.6,50,99.4L50,99.4z"/>
				</g>
			</g>
		</g>
		<g>
			<g>
				<g>
					<path class="st0" d="M45.8,76.1c2.5,2.7,5.9,4.2,9.2,5.7c4,1.7,8.1,3.5,12.1,5.2c1.7,0.7,3.4,1.1,5.3,0.8
						c1.9-0.3,3.7-0.8,5.5-1.4c3.4-1.2,6.6-2.8,9.7-4.8c3.5-2.3,6.6-5.1,9.3-8.3c0.1-0.2-0.1-0.4-0.2-0.2
						c-5.8,6.9-13.8,12-22.6,14.1c-1.4,0.3-2.8,0.5-4.2,0.3c-1.3-0.2-2.5-0.8-3.7-1.3c-2.5-1.1-5-2.2-7.6-3.2
						c-4.3-1.9-9.1-3.5-12.4-7C45.8,75.7,45.6,76,45.8,76.1L45.8,76.1z"/>
				</g>
			</g>
		</g>
		<g>
			<g>
				<g>
					<path class="st0" d="M58.2,126.5c0.1,1.4,0.3,3.1,1.8,3.8c1.8,0.9,3.9-0.2,5.8-0.2c0.2,0,0.2-0.3,0-0.3
						c-1.4-0.1-2.8,0.5-4.1,0.5c-2.3-0.1-2.9-1.9-3-3.8C58.5,126.3,58.2,126.2,58.2,126.5L58.2,126.5z"/>
				</g>
			</g>
		</g>
		<g>
			<g>
				<g>
					<path class="st0" d="M72.8,129.9c2.4,0.8,5.1,1.2,7.5,0.5c2.2-0.7,3.7-2.4,5-4.2c0.1-0.2-0.2-0.3-0.3-0.2
						c-1.4,1.9-2.9,3.6-5.3,4.2c-2.3,0.5-4.8,0.2-7-0.6C72.7,129.5,72.6,129.9,72.8,129.9L72.8,129.9z"/>
				</g>
			</g>
		</g>
		<g>
			<g>
				<g>
					<path class="st0" d="M94.7,123.4c0.2,0.6,0.7,1.2,1.5,1.2c0.6,0,1.2-0.6,1-1.2c-0.1-0.2-0.4-0.1-0.3,0.1c0.1,0.6-0.5,1-1,0.8
						c-0.4-0.1-0.7-0.5-0.8-0.9C95,123.1,94.6,123.2,94.7,123.4L94.7,123.4z"/>
				</g>
			</g>
		</g>
		<g>
			<g>
				<g>
					<path class="st0" d="M99.2,79.9c0.2-0.1,0.5-0.1,0.7-0.2c-0.1-0.1-0.1-0.1-0.2-0.2c0.1,2,3,1,3.9,2.1c0.1,0.2,0.4-0.1,0.2-0.2
						c-0.4-0.5-0.9-0.6-1.5-0.7c-0.8-0.1-2.2,0-2.3-1.2c0-0.1-0.1-0.2-0.2-0.2c-0.2,0.1-0.5,0.1-0.7,0.2
						C98.9,79.6,99,79.9,99.2,79.9L99.2,79.9z"/>
				</g>
			</g>
		</g>
		<g>
			<g>
				<g>
					<path class="st0" d="M63.5,38c0.4,1.6,0.9,3.2,1.5,4.7c0.1,0.2,0.4,0.1,0.3-0.1c-0.6-1.5-1.1-3.1-1.5-4.7
						C63.7,37.8,63.4,37.8,63.5,38L63.5,38z"/>
				</g>
			</g>
		</g>
		<g>
			<g>
				<g>
					<path class="st0" d="M74.5,42.6c0.3-1.4,0.7-2.9,1-4.4c0.1-0.2-0.3-0.3-0.3-0.1c-0.3,1.4-0.7,2.9-1,4.4
						C74.1,42.7,74.5,42.8,74.5,42.6L74.5,42.6z"/>
				</g>
			</g>
		</g>
		<g>
			<g>
				<g>
					<path class="st0" d="M58.4,45.4c-0.6-0.9-1.2-1.8-2-2.6c-0.1-0.2-0.4,0.1-0.2,0.2c0.7,0.8,1.3,1.7,1.9,2.6
						C58.2,45.7,58.5,45.5,58.4,45.4L58.4,45.4z"/>
				</g>
			</g>
		</g>
		<g>
			<g>
				<g>
					<path class="st0" d="M55,47.7c-0.4-0.4-0.9-0.8-1.3-1.2c-0.2-0.1-0.4,0.1-0.2,0.2c0.4,0.4,0.9,0.8,1.3,1.2
						C55,48.1,55.2,47.9,55,47.7L55,47.7z"/>
				</g>
			</g>
		</g>
		<g>
			<g>
				<g>
					<path class="st0" d="M80.9,45c0.6-1.2,1.1-2.3,1.7-3.5c0.1-0.2-0.2-0.4-0.3-0.2c-0.6,1.2-1.1,2.3-1.7,3.5
						C80.6,45,80.8,45.2,80.9,45L80.9,45z"/>
				</g>
			</g>
		</g>
		<g>
			<g>
				<g>
					<path class="st0" d="M35.9,34.5c-0.6,0.4-1.3-0.4-0.7-0.9C35.7,33.1,36.4,33.9,35.9,34.5c-0.1,0.1,0.1,0.3,0.3,0.2
						c0.3-0.3,0.3-0.9,0.1-1.2C35.9,33,35.4,33,35,33.3c-0.4,0.3-0.5,0.8-0.2,1.2c0.3,0.4,0.8,0.5,1.2,0.2
						C36.2,34.7,36,34.4,35.9,34.5L35.9,34.5z"/>
				</g>
			</g>
		</g>
		<g>
			<g>
				<g>
					<path class="st0" d="M48.2,19.8c-0.3,0-0.6-0.2-0.7-0.5c-0.1-0.3,0.2-0.5,0.4-0.6c0.6-0.2,0.9,0.6,0.5,1
						c-0.2,0.1,0.1,0.4,0.2,0.2c0.7-0.6,0.1-1.9-0.8-1.5c-0.4,0.1-0.7,0.5-0.6,0.9c0.1,0.5,0.5,0.8,1,0.8
						C48.4,20.1,48.4,19.8,48.2,19.8L48.2,19.8z"/>
				</g>
			</g>
		</g>
		<g>
			<g>
				<g>
					<path class="st0" d="M73,13c-0.6-0.2-0.5-1.2,0.2-1.1c0.8,0.1,0.6,1.3-0.1,1.4c-0.2,0-0.2,0.4,0,0.3c0.5-0.1,1-0.5,1-1
						c0.1-0.5-0.4-1-0.8-1c-0.5-0.1-0.9,0.2-1,0.7c-0.1,0.4,0.2,0.9,0.6,1.1C73.1,13.4,73.2,13.1,73,13L73,13z"/>
				</g>
			</g>
		</g>
		<g>
			<g>
				<g>
					<path class="st0" d="M90.3,15.4c-0.5-0.2-0.4-1,0.2-0.9c0.2,0,0.5,0.2,0.4,0.4c0,0.3-0.2,0.5-0.5,0.5c-0.2,0-0.2,0.3,0,0.3
						c0.4,0,0.8-0.4,0.8-0.8c0-0.4-0.3-0.7-0.7-0.8c-0.4-0.1-0.8,0.2-0.8,0.6c-0.1,0.4,0.2,0.8,0.5,1C90.4,15.8,90.5,15.5,90.3,15.4
						L90.3,15.4z"/>
				</g>
			</g>
		</g>
		<g>
			<g>
				<g>
					<path class="st0" d="M103.3,28.9c-0.1-0.3,0.1-0.6,0.4-0.7c0.3-0.1,0.5,0.1,0.6,0.4c0.2,0.6-0.6,0.8-0.9,0.4
						c-0.1-0.2-0.4,0-0.3,0.2c0.5,0.8,1.8,0.2,1.5-0.7c-0.2-0.4-0.6-0.7-1-0.5c-0.4,0.1-0.7,0.6-0.6,1.1
						C103,29.2,103.3,29.1,103.3,28.9L103.3,28.9z"/>
				</g>
			</g>
		</g>
		<g>
			<g>
				<g>
					<path class="st0" d="M96.9,72.6c-1.2,1.3-2.5,2.9-2.3,4.8c0.2,1.3,1.1,2.3,2.3,2.4c0.2,0,0.2-0.3,0-0.3c-1.6-0.2-2.3-2-2-3.4
						c0.3-1.3,1.2-2.3,2.1-3.3C97.3,72.7,97.1,72.5,96.9,72.6L96.9,72.6z"/>
				</g>
			</g>
		</g>
		<g>
			<g>
				<g>
					<path class="st0" d="M96.8,74.5c-0.8,0.5-1.2,1.4-1.1,2.3c0.1,0.6,0.7,1.8,1.4,1.2c0.2-0.1-0.1-0.4-0.2-0.2
						c-0.4,0.3-0.8-0.5-0.8-0.7c-0.1-0.3-0.1-0.6,0-0.9c0.1-0.6,0.4-1.1,0.9-1.4C97.1,74.6,97,74.4,96.8,74.5L96.8,74.5z"/>
				</g>
			</g>
		</g>
		<g>
			<g>
				<g>
					<path class="st0" d="M97.2,76.1c-0.5-0.1-1,0.3-0.9,0.8c0.1,0.2,0.2,0.4,0.4,0.5c0.1,0.1,0.2,0.1,0.4,0
						c0.2-0.1,0.3-0.3,0.4-0.4c0.2-0.1-0.1-0.4-0.2-0.2c-0.1,0.1-0.2,0.2-0.4,0.3c0,0,0.1,0,0.1-0.1c-0.2,0-0.4-0.2-0.4-0.5
						c0.1-0.2,0.3-0.3,0.5-0.3C97.3,76.4,97.4,76.1,97.2,76.1L97.2,76.1z"/>
				</g>
			</g>
		</g>
		<g>
			<g>
				<g>
					<path class="st0" d="M94.4,76.5c-1,1.3-2.2,2.4-3.6,3.2c-0.2,0.1,0,0.4,0.2,0.3c1.5-0.8,2.7-2,3.8-3.3
						C94.8,76.5,94.5,76.4,94.4,76.5L94.4,76.5z"/>
				</g>
			</g>
		</g>
		<g>
			<g>
				<g>
					<path class="st0" d="M94.5,78.1c-0.7,0.8-1.6,1.4-2.5,1.9c-0.2,0.1,0,0.4,0.2,0.3c1-0.5,1.9-1.2,2.6-2
						C94.9,78.2,94.7,78,94.5,78.1L94.5,78.1z"/>
				</g>
			</g>
		</g>
		<g>
			<g>
				<g>
					<path class="st0" d="M94.9,79c-0.3,0.4-0.6,0.7-0.9,1.1c-0.1,0.2,0.1,0.4,0.2,0.2c0.3-0.4,0.6-0.7,0.9-1.1
						C95.3,79.1,95,78.9,94.9,79L94.9,79z"/>
				</g>
			</g>
		</g>
		<g>
			<g>
				<g>
					<path class="st0" d="M97.8,108.9c0.2-0.6,0.3-1.2,0.4-1.9c0.1-0.2-0.3-0.3-0.3-0.1c-0.2,0.6-0.3,1.2-0.4,1.9
						C97.4,109,97.7,109.1,97.8,108.9L97.8,108.9z"/>
				</g>
			</g>
		</g>
		<g>
			<g>
				<g>
					<path class="st0" d="M47.9,84.8c0.4,1.7,0.6,3.5,0.7,5.3c0,0.2,0.3,0.2,0.3,0c-0.1-1.8-0.3-3.6-0.7-5.3
						C48.1,84.5,47.8,84.6,47.9,84.8L47.9,84.8z"/>
				</g>
			</g>
		</g>
		<g>
			<g>
				<g>
					<path class="st0" d="M101.6,91.7c0.2,1.9,0.2,3.8-0.1,5.6c-0.1,0.8-0.3,1.6-0.6,2.4c-0.1,0.4-0.3,0.9-0.4,1.3
						c-0.1,0.2-0.2,0.5-0.3,0.7c-0.3,0.7-0.8,0.8-1.8,0.5c-0.1-0.2-0.4-0.1-0.3,0.1c0.2,0.5,0.7,0.8,1.2,0.7
						c0.9-0.2,1.2-1.2,1.5-1.9c1.1-3,1.5-6.2,1.2-9.4C101.9,91.5,101.6,91.5,101.6,91.7L101.6,91.7z"/>
				</g>
			</g>
		</g>
		<g>
			<g>
				<g>
					<path class="st0" d="M58.9,36.9C58.9,36.9,58.9,36.9,58.9,36.9c0.3,0,0.3-0.3,0.1-0.3c0,0,0,0-0.1,0
						C58.7,36.6,58.7,36.9,58.9,36.9L58.9,36.9z"/>
				</g>
			</g>
		</g>
		<g>
			<g>
				<g>
					<path class="st0" d="M56.6,38.3c0.1,0.1,0.1,0.3,0.2,0.4c0.1,0.2,0.4,0.1,0.3-0.1c-0.1-0.1-0.1-0.3-0.2-0.4
						C56.8,38,56.5,38,56.6,38.3L56.6,38.3z"/>
				</g>
			</g>
		</g>
		<g>
			<g>
				<g>
					<path class="st0" d="M60.4,35.7c0.1,0,0.1,0,0.1,0.1c0.1,0.2,0.4-0.1,0.2-0.2c-0.1-0.1-0.2-0.2-0.4-0.2
						C60.2,35.4,60.2,35.7,60.4,35.7L60.4,35.7z"/>
				</g>
			</g>
		</g>
		<g>
			<g>
				<g>
					<path class="st0" d="M71.1,32.7C71,32.8,71,32.9,71,33c0.1,0.2,0.4,0.1,0.3-0.1c0-0.1,0-0.1,0-0.1
						C71.4,32.6,71.2,32.5,71.1,32.7L71.1,32.7z"/>
				</g>
			</g>
		</g>
		<g>
			<g>
				<g>
					<path class="st0" d="M80.8,35.5c-0.1,0.1-0.1,0.3-0.1,0.4c-0.1,0.2,0.2,0.3,0.3,0.1c0.1-0.1,0.1-0.3,0.1-0.4
						C81.2,35.4,80.9,35.3,80.8,35.5L80.8,35.5z"/>
				</g>
			</g>
		</g>
		<g>
			<g>
				<g>
					<path class="st0" d="M52.6,50.4c0,0,0.1,0,0.1,0.1c0.2,0.1,0.3-0.2,0.2-0.3c0,0-0.1,0-0.1-0.1C52.6,50,52.4,50.3,52.6,50.4
						L52.6,50.4z"/>
				</g>
			</g>
		</g>
		<g>
			<g>
				<g>
					<path class="st0" d="M69.6,45.8c0.2-0.4,0.3-0.8,0.5-1.2c0.1-0.2-0.2-0.3-0.3-0.1c-0.2,0.4-0.3,0.8-0.5,1.2
						C69.1,45.9,69.5,46,69.6,45.8L69.6,45.8z"/>
				</g>
			</g>
		</g>
		<g>
			<g>
				<g>
					<path class="st0" d="M68.8,45.3c0.4-0.3,0.7-0.5,1.1-0.7c0.2-0.1,0-0.4-0.2-0.3c-0.4,0.2-0.7,0.4-1.1,0.7
						C68.5,45.1,68.6,45.4,68.8,45.3L68.8,45.3z"/>
				</g>
			</g>
		</g>
		<g>
			<g>
				<g>
					<path class="st0" d="M69.7,44.5c0.3,0.5,0.6,0.9,1,1.3c0.1,0.2,0.4-0.1,0.2-0.2c-0.3-0.4-0.6-0.8-0.9-1.3
						C69.8,44.2,69.6,44.4,69.7,44.5L69.7,44.5z"/>
				</g>
			</g>
		</g>
		<g>
			<g>
				<g>
					<path class="st0" d="M69.6,44.6c0.4,0.6,1,0.9,1.7,1.1c0.2,0.1,0.3-0.3,0.1-0.3c-0.6-0.1-1.1-0.4-1.5-0.9
						C69.8,44.3,69.5,44.5,69.6,44.6L69.6,44.6z"/>
				</g>
			</g>
		</g>
		<g>
			<g>
				<g>
					<path class="st0" d="M52.5,51.6c0.1,0,0.2-0.1,0.3-0.1c0.2-0.1,0.1-0.4-0.1-0.3c-0.1,0-0.2,0.1-0.3,0.1
						C52.2,51.3,52.3,51.6,52.5,51.6L52.5,51.6z"/>
				</g>
			</g>
		</g>
		<g>
			<g>
				<g>
					<path class="st0" d="M51.5,52.5c0.3-0.3,0.6-0.6,0.8-0.8c0.2-0.2-0.1-0.4-0.2-0.2c-0.3,0.3-0.6,0.6-0.8,0.8
						C51.2,52.4,51.4,52.6,51.5,52.5L51.5,52.5z"/>
				</g>
			</g>
		</g>
		<g>
			<g>
				<g>
					<path class="st0" d="M89.6,48.5c0-0.1,0.1-0.1,0.1-0.2c0.1-0.2-0.2-0.3-0.3-0.2c0,0.1-0.1,0.1-0.1,0.2
						C89.2,48.5,89.5,48.7,89.6,48.5L89.6,48.5z"/>
				</g>
			</g>
		</g>
		<g>
			<g>
				<g>
					<path class="st0" d="M89.5,48.6c0.1-0.1,0.1-0.2,0.2-0.3c0.1-0.2-0.2-0.4-0.3-0.2c-0.1,0.1-0.1,0.2-0.2,0.3
						C89.1,48.6,89.4,48.8,89.5,48.6L89.5,48.6z"/>
				</g>
			</g>
		</g>
	</g>
</g>
</svg>
