<?xml version="1.0" encoding="utf-8"?>
<!-- Generator: Adobe Illustrator 24.0.1, SVG Export Plug-In . SVG Version: 6.00 Build 0)  -->
<svg version="1.1" id="Layer_1" xmlns="http://www.w3.org/2000/svg" xmlns:xlink="http://www.w3.org/1999/xlink" x="0px" y="0px"
	 viewBox="0 0 141.7 141.7" style="enable-background:new 0 0 141.7 141.7;" xml:space="preserve">
<style type="text/css">
	.st0{fill:#070707;}
</style>
<g id="Layer_1_1_">
</g>
<g id="Layer_1_2_">
</g>
<g id="Layer_1_3_">
</g>
<g id="Layer_1_4_">
</g>
<g id="Layer_1_5_">
</g>
<g id="Layer_3">
</g>
<g id="Layer_3_1_">
</g>
<g id="Layer_1_6_">
</g>
<g id="Layer_1_7_">
</g>
<g id="Layer_1_8_">
</g>
<g id="Layer_1_9_">
</g>
<g id="Layer_2_1_">
	<g>
		<g>
			<g>
				<path class="st0" d="M46.9,99.2c-0.1,2-0.3,4-0.5,5.9c-0.1,0.4,0.6,0.4,0.6,0c0.2-2,0.4-4,0.5-5.9
					C47.5,98.8,46.9,98.8,46.9,99.2L46.9,99.2z"/>
			</g>
		</g>
	</g>
	<g>
		<g>
			<g>
				<path class="st0" d="M52.4,52.2c-7.8,8.3-6.1,20.5-5.5,30.8c0,0.4,0.7,0.4,0.6,0c-0.5-10.2-2.3-22.3,5.4-30.4
					C53.1,52.4,52.7,51.9,52.4,52.2L52.4,52.2z"/>
			</g>
		</g>
	</g>
	<g>
		<g>
			<g>
				<path class="st0" d="M93.7,55c-1.1-1.8-2.5-3.4-4.1-4.8c-0.3-0.3-0.8,0.2-0.5,0.5c1.6,1.3,3,2.9,4,4.6
					C93.4,55.7,93.9,55.4,93.7,55L93.7,55z"/>
			</g>
		</g>
	</g>
	<g>
		<g>
			<g>
				<path class="st0" d="M47.6,61.4c-3.9-0.3-6.2-4.5-3.7-7.8c1-1.3,2.4-2.1,3.9-2.4c1.6-0.3,3.8-0.2,4.9,1.1
					c0.3,0.3,0.7-0.2,0.5-0.5c-1.2-1.5-3.5-1.6-5.3-1.3c-1.9,0.3-3.7,1.5-4.8,3.1c-2.4,3.7,0.4,8,4.5,8.3C48,62.1,48,61.5,47.6,61.4
					L47.6,61.4z"/>
			</g>
		</g>
	</g>
	<g>
		<g>
			<g>
				<path class="st0" d="M90.2,51.1c2.7-1.4,7-2.1,8.9,0.8c1.9,3,0.8,7.7-3,8.4c-0.4,0.1-0.2,0.7,0.2,0.6c4.1-0.8,5.4-5.7,3.6-9
					c-2-3.6-6.8-2.9-10-1.3C89.5,50.7,89.8,51.3,90.2,51.1L90.2,51.1z"/>
			</g>
		</g>
	</g>
	<g>
		<g>
			<g>
				<path class="st0" d="M68.5,66c0.1,0,0.2,0,0.2,0c0-0.1,0-0.2-0.1-0.3c-1,0.4-1.8,0.8-2.6,1.6c-0.6,0.6-1.2,1.5-1,2.4
					c0.2,1,1.4,1.5,2.3,1.7c1.8,0.3,3.5-0.8,5.3-0.8c1.8,0,5.3,2.1,5.7-1.1c0.3-2.3-2.6-3.5-4.3-4.1c-0.2-0.1-0.3,0.2-0.1,0.3
					c1.6,0.6,4.3,1.7,4.1,3.8c-0.3,2.9-3.7,0.9-5.4,0.9c-1,0-1.9,0.3-2.8,0.6c-1.3,0.4-3.5,0.7-4.3-0.8c-1-1.8,1.9-3.5,3.2-4
					c0.2-0.1,0.2-0.3-0.1-0.3c-0.1,0-0.2,0-0.3,0.1C68.2,65.7,68.3,66,68.5,66L68.5,66z"/>
			</g>
		</g>
	</g>
	<g>
		<g>
			<g>
				<path class="st0" d="M74.8,71c0.4,1.1,0.6,2.3,0.3,3.5c-0.2,0.9-1,1.5-1.9,1.2c-0.7-0.2-0.8-0.8-1.1-1.3c-0.1-0.2-0.4,0-0.3,0.2
					c0.3,0.6,0.5,1.2,1.1,1.5c0.6,0.2,1.3,0.1,1.7-0.3c1.4-1,1-3.5,0.5-4.8C75,70.7,74.7,70.8,74.8,71L74.8,71z"/>
			</g>
		</g>
	</g>
	<g>
		<g>
			<g>
				<path class="st0" d="M52.9,123.1c2.3-1.1,3.5,1.8,5.1,2.8c0-0.1,0-0.2,0-0.3c-1.2,0.2-2.2,1-3.2,1.7c-1.1,0.8-2.5,2.1-4,1.7
					c-1-0.3-1.8-1.3-1.6-2.4c0.2-0.7,0.7-1.3,1.2-1.8c0.9-0.9,2-1.5,3.2-2.1c0.2-0.1,0-0.4-0.2-0.3c-1.8,0.9-6.2,3.5-4,6
					c2.7,3,5.9-2.1,8.6-2.5c0.2,0,0.1-0.2,0-0.3c-1.7-1.2-2.9-4.1-5.4-2.8C52.6,122.9,52.7,123.2,52.9,123.1L52.9,123.1z"/>
			</g>
		</g>
	</g>
	<g>
		<g>
			<g>
				<path class="st0" d="M50.3,128.6c-0.4-1.3,0.6-2.4,1.7-3c0.2-0.1,0-0.4-0.2-0.3c-1.2,0.7-2.3,1.9-1.9,3.3
					C50,128.9,50.3,128.8,50.3,128.6L50.3,128.6z"/>
			</g>
		</g>
	</g>
	<g>
		<g>
			<g>
				<path class="st0" d="M92,128.6c-1.3-0.8-2-2-3.1-3c-2-1.8,1.7-3.6,3.3-3.2c1.5,0.4,2.6,1.9,3.1,3.3c0.3,0.9,0.4,2.1-0.4,2.8
					C94.1,129.2,92.9,129,92,128.6c-0.2-0.1-0.4,0.2-0.2,0.3c1.6,0.8,3.7,0.6,4-1.5c0.3-2-1.2-4.3-3-5.1c-1-0.4-1.9-0.4-2.9,0.1
					c-0.8,0.4-2,1.2-2.2,2c-0.2,0.8,0.8,1.2,1.3,1.7c1,1,1.7,2.1,2.9,2.8C92,128.9,92.1,128.7,92,128.6z"/>
			</g>
		</g>
	</g>
	<g>
		<g>
			<g>
				<path class="st0" d="M92.7,125.5c0.9,0.9,1.6,2.1,1.6,3.4c0,0.2,0.3,0.2,0.3,0c-0.1-1.4-0.8-2.6-1.7-3.6
					C92.8,125.1,92.6,125.4,92.7,125.5L92.7,125.5z"/>
			</g>
		</g>
	</g>
	<g>
		<path class="st0" d="M81.5,65.9c-4.4,0-8-3.6-8-8s3.6-8,8-8s8,3.6,8,8S85.9,65.9,81.5,65.9z M81.5,50.2c-4.2,0-7.6,3.4-7.6,7.6
			s3.4,7.6,7.6,7.6s7.6-3.4,7.6-7.6S85.7,50.2,81.5,50.2z"/>
	</g>
	<g>
		<path class="st0" d="M61.8,66.7c-4.4,0-8-3.6-8-8s3.6-8,8-8s8,3.6,8,8S66.2,66.7,61.8,66.7z M61.8,51.1c-4.2,0-7.6,3.4-7.6,7.6
			s3.4,7.6,7.6,7.6s7.6-3.4,7.6-7.6S66,51.1,61.8,51.1z"/>
	</g>
	<g>
		<path class="st0" d="M96.4,54.8c0-0.9-0.7-1.7-1.7-1.7c-0.9,0-1.7,0.7-1.7,1.7c0,0.9,0.7,1.7,1.7,1.7S96.4,55.7,96.4,54.8z"/>
	</g>
	<g>
		<circle class="st0" cx="48.3" cy="56.3" r="1.7"/>
	</g>
	<g>
		<path class="st0" d="M75.2,65.1c0-1.1-1.6-1.9-3.5-1.9s-3.5,0.9-3.5,1.9c0,1.1,1.6,1.9,3.5,1.9S75.2,66.2,75.2,65.1z"/>
	</g>
	<g>
		<path class="st0" d="M84,57.6c-0.2-1.4-1.4-2.4-2.8-2.3c-1.4,0.2-2.4,1.4-2.3,2.8c0.2,1.4,1.4,2.4,2.8,2.3
			C83.2,60.3,84.2,59,84,57.6z M80,59.1c-0.1-0.4,0.3-0.8,0.6-0.8c0.4-0.1,0.8,0.3,0.8,0.6c0.1,0.4-0.3,0.8-0.6,0.8
			C80.4,59.8,80,59.5,80,59.1z"/>
	</g>
	<g>
		<path class="st0" d="M64.2,59.3c0.4-1.4-0.5-2.8-1.8-3.1c-1.4-0.4-2.8,0.5-3.1,1.8c-0.4,1.4,0.5,2.8,1.8,3.1
			C62.5,61.4,63.9,60.6,64.2,59.3z M59.9,59.2c0.1-0.4,0.5-0.6,0.9-0.5c0.4,0.1,0.6,0.5,0.5,0.9s-0.5,0.6-0.9,0.5
			C60.1,59.9,59.8,59.6,59.9,59.2z"/>
	</g>
	<g>
		<g>
			<g>
				<path class="st0" d="M71.8,70.5c0.2,1,0.1,2.1,0.1,3.1c-0.1,0.6-0.2,1.3-0.5,1.7c-0.5,0.7-1.5,0.7-2.1,0.1c-1-1-0.7-3.1-0.3-4.3
					c0.1-0.2-0.3-0.3-0.3-0.1c-0.4,1.5-0.8,4.5,1.2,5.1c2.9,0.8,2.6-4.2,2.4-5.7C72.1,70.2,71.8,70.3,71.8,70.5L71.8,70.5z"/>
			</g>
		</g>
	</g>
	<g>
		<g>
			<g>
				<path class="st0" d="M42.2,84.9c-0.5-0.7-0.7-1.6,0.2-2.1c0.2-0.1,0-0.4-0.2-0.3C41.2,83,41.3,84.2,42,85
					C42.1,85.2,42.4,85,42.2,84.9L42.2,84.9z"/>
			</g>
		</g>
	</g>
	<g>
		<g>
			<g>
				<path class="st0" d="M47,87.1c-1.3,0.1-2.5-0.4-3.6-1.1c-0.2-0.1-0.3,0.2-0.2,0.3c1.1,0.8,2.4,1.3,3.7,1.2
					C47.2,87.4,47.2,87,47,87.1L47,87.1z"/>
			</g>
		</g>
	</g>
	<g>
		<g>
			<g>
				<path class="st0" d="M43.8,83.6c-0.8-0.4-1.6-1.6-0.3-1.9c1.1-0.3,2.2,0.7,2.9,1.4c0.2,0.2,0.4-0.1,0.2-0.2
					c-0.9-0.9-2.5-2.2-3.8-1.2c-0.9,0.7,0.1,1.9,0.8,2.2C43.8,84,44,83.7,43.8,83.6L43.8,83.6z"/>
			</g>
		</g>
	</g>
	<g>
		<g>
			<g>
				<path class="st0" d="M92.8,54.4c2.5,3.7,3.3,7.7,3.7,12.1c0.3,4.6,0.5,9.2,0.6,13.8c0.1,4.6,0.2,9.1,0.4,13.7
					c0.2,4.4,0.8,9,0.2,13.4c-0.1,0.4,0.6,0.6,0.6,0.2c0.7-4.5,0-9.1-0.2-13.6c-0.2-4.7-0.3-9.5-0.4-14.2c-0.2-4.8-0.3-9.6-0.7-14.3
					c-0.3-4.1-1.3-7.9-3.7-11.4C93.1,53.8,92.5,54.1,92.8,54.4L92.8,54.4z"/>
			</g>
		</g>
	</g>
	<g>
		<g>
			<g>
				<path class="st0" d="M87.6,125.1c0.1,0,0.1,0,0.1,0c0.2,0,0.2-0.3,0-0.3h0c-0.1,0-0.1,0-0.1,0.1c0,0-0.1,0,0,0
					c0.1,0.1,0.1,0.1,0.2,0.2c0-0.1,0-0.1,0.1-0.2C87.8,125,87.7,125,87.6,125.1c0,0,0.1,0,0.1,0.1c0.2,0.2,0.4-0.1,0.2-0.2
					c-0.1-0.1-0.1-0.1-0.2-0.2c-0.1-0.1-0.2-0.1-0.3,0.1c0,0.1,0,0.1-0.1,0.2c-0.1,0.1,0.1,0.2,0.2,0.2c0.1,0,0.2-0.1,0.2-0.2
					c-0.1,0-0.1,0.1-0.1,0.1h0c0.2,0,0.2-0.3,0-0.3c-0.1,0-0.1,0-0.1,0C87.4,124.8,87.4,125.1,87.6,125.1L87.6,125.1z"/>
			</g>
		</g>
	</g>
	<g>
		<g>
			<g>
				<path class="st0" d="M43.9,86.8c-0.4,2.7-1.4,5.3-1.4,8.1c0,0.6-0.1,1.5,0.5,1.9c0.5,0.3,1.1,0.2,1.5-0.1c1.7-1,1.9-3.7,2.2-5.4
					c0.5-2.7,0.8-5.5,0.2-8.2c-0.1-0.2-0.4-0.1-0.3,0.1c0.5,2.3,0.4,4.6,0,6.9c-0.3,1.7-0.5,3.7-1.3,5.2c-0.5,0.9-1.7,2.2-2.4,0.5
					c-0.3-0.8,0-2.3,0.1-3c0.3-1.9,0.9-3.8,1.2-5.8C44.2,86.7,43.9,86.6,43.9,86.8L43.9,86.8z"/>
			</g>
		</g>
	</g>
	<g>
		<g>
			<g>
				<path class="st0" d="M44.3,87.2c-0.1,1.3-0.3,2.6-0.4,3.9c-0.1,0.9-0.5,2.2-0.1,3.2c0.4,0.8,1.6,1.1,1.9,0.1
					c0.1-0.2-0.2-0.3-0.3-0.1c-1.1-0.1-1.6-0.5-1.5-1.2c0-0.3,0.1-0.6,0.1-0.8c0.1-0.5,0.1-1.1,0.2-1.6c0.1-1.2,0.2-2.3,0.4-3.5
					C44.6,87,44.3,87,44.3,87.2L44.3,87.2z"/>
			</g>
		</g>
	</g>
	<g>
		<g>
			<g>
				<path class="st0" d="M101.8,87.6c1.3-2.3,2.8-4.4,4.3-6.6c0.1-0.1,0-0.1,0-0.2c-1.2-1.4-2.6-2.4-4.3-3.1
					c-0.8-0.4-1.6-0.6-2.5-0.9c-0.8-0.3-1.3-0.8-2.2-0.7c-0.2,0-0.2,0.3,0,0.3c0.8,0,1.1,0.4,1.8,0.6c0.6,0.2,1.2,0.4,1.7,0.6
					c1.4,0.5,2.9,1.2,4.1,2.2c0.6,0.5,1.1,0.8,0.8,1.6c-0.3,0.7-0.9,1.3-1.3,1.9c-0.9,1.3-1.8,2.7-2.6,4.1
					C101.4,87.7,101.7,87.8,101.8,87.6L101.8,87.6z"/>
			</g>
		</g>
	</g>
	<g>
		<g>
			<g>
				<path class="st0" d="M98.1,95.3c0.5-1.2,0.9-2.3,1.4-3.5c0.1-0.2-0.2-0.4-0.3-0.2c-0.5,1.2-1,2.3-1.5,3.6
					C97.8,95.4,98.1,95.5,98.1,95.3L98.1,95.3z"/>
			</g>
		</g>
	</g>
	<g>
		<g>
			<g>
				<path class="st0" d="M99.3,83c0-0.2,0.2-0.4,0.4-0.4c-0.1-0.1-0.1-0.1-0.2-0.2c0,0.3,0.2,0.5,0.4,0.6c0.3,0.2,1.1,0,1.2,0.4
					c0.1,0.2,0.4,0.1,0.3-0.1c-0.1-0.3-0.3-0.4-0.5-0.5c-0.3-0.1-1.1,0-1.1-0.5c0-0.1-0.1-0.2-0.2-0.2c-0.4,0.1-0.6,0.3-0.7,0.7
					C99,83.1,99.3,83.2,99.3,83L99.3,83z"/>
			</g>
		</g>
	</g>
	<g>
		<g>
			<g>
				<path class="st0" d="M98.7,85.1c0.4,0.3,0.7,0.6,1.1,0.9c0.2,0.1,0.4-0.1,0.2-0.2c-0.4-0.3-0.7-0.6-1.1-0.9
					C98.8,84.8,98.5,85,98.7,85.1L98.7,85.1z"/>
			</g>
		</g>
	</g>
	<g>
		<g>
			<g>
				<path class="st0" d="M99,87.5c0.4,0,0.7,0.2,1,0.5c0.1,0.2,0.4,0,0.3-0.2c-0.3-0.4-0.7-0.6-1.2-0.6C98.8,87.2,98.8,87.5,99,87.5
					L99,87.5z"/>
			</g>
		</g>
	</g>
	<g>
		<g>
			<g>
				<path class="st0" d="M100,85.7c0.1-0.3,0.4-0.6,0.8-0.6c-0.1-0.1-0.1-0.1-0.2-0.1c0.1,0.5-0.4,1-0.9,0.9c-0.2,0-0.3,0.3-0.1,0.3
					c0.7,0.1,1.4-0.6,1.3-1.3c0-0.1-0.1-0.1-0.2-0.1c-0.5,0.1-0.9,0.4-1.1,0.8C99.7,85.9,100,85.9,100,85.7L100,85.7z"/>
			</g>
		</g>
	</g>
	<g>
		<g>
			<g>
				<path class="st0" d="M43.2,97c1.7,2.6,5.5-1.8,6.6-2.9c0.1-0.2-0.1-0.4-0.2-0.2c-1,1.1-4.6,5.3-6,3C43.4,96.7,43.1,96.9,43.2,97
					L43.2,97z"/>
			</g>
		</g>
	</g>
	<g>
		<g>
			<g>
				<path class="st0" d="M44.8,98.1c1.8,0.4,3.5,2.5,5.4,1.4c0.2-0.1,0-0.4-0.2-0.3c-1.8,1-3.5-1.1-5.2-1.4
					C44.7,97.7,44.7,98.1,44.8,98.1L44.8,98.1z"/>
			</g>
		</g>
	</g>
	<g>
		<g>
			<g>
				<path class="st0" d="M46.8,83.3c0.7,0.4,1.4,0.6,2.2,0.8c1,0.2,1.8,0.2,2.6,0.9c1.9,1.5,1.9,4.1,1.8,6.3c0,0.2,0.3,0.2,0.3,0
					c0.1-2,0.1-4.3-1.3-5.9C51.1,83.5,48.8,84,47,83C46.8,82.9,46.7,83.2,46.8,83.3L46.8,83.3z"/>
			</g>
		</g>
	</g>
	<g>
		<g>
			<g>
				<path class="st0" d="M52.8,85.9c6.1,3.8,13.2,5.4,20.3,5.2c0.2,0,0.2-0.3,0-0.3C66,91.1,59,89.4,52.9,85.7
					C52.8,85.5,52.6,85.8,52.8,85.9L52.8,85.9z"/>
			</g>
		</g>
	</g>
	<g>
		<g>
			<g>
				<path class="st0" d="M96.4,79.7c-5.9,5.1-14.1,6.4-20.8,10.2c-3.5,2-6.7,4.4-9.7,7c-3.1,2.6-5.9,5.5-9,8c-1.8,1.5-3.8,2.8-6,3.5
					c-1,0.3-2.1,0.6-3.2,0.4c-0.8-0.1-1.5-0.5-1.8-1.3c-0.3-0.8,0-1.9,0.9-2.1c0.2-0.1,0.1-0.4-0.1-0.3c-1.1,0.3-1.5,1.5-1.1,2.5
					c0.5,1.3,2.1,1.6,3.3,1.5c4.1-0.4,7.6-3.4,10.5-6c3.7-3.4,7.3-6.8,11.4-9.7c4-2.9,8.2-5.1,12.8-6.9c4.6-1.8,9.2-3.4,13-6.6
					C96.8,79.8,96.6,79.5,96.4,79.7L96.4,79.7z"/>
			</g>
		</g>
	</g>
	<g>
		<g>
			<g>
				<path class="st0" d="M96.9,79.2c-0.4,0.3-0.7,0.6-1.1,0.9c-0.2,0.1,0.1,0.4,0.2,0.2c0.4-0.3,0.7-0.6,1.1-0.9
					C97.2,79.3,97,79.1,96.9,79.2L96.9,79.2z"/>
			</g>
		</g>
	</g>
	<g>
		<g>
			<g>
				<path class="st0" d="M96.8,80.4c-2.4,2.6-5.4,4.3-8.5,6c-3,1.7-5.9,3.5-8.7,5.6c-5.5,4.1-10.4,8.9-14.6,14.3
					c-0.1,0.2,0.1,0.4,0.2,0.2c4.3-5.6,9.5-10.6,15.2-14.7c2.7-2,5.6-3.7,8.6-5.4c2.9-1.6,5.7-3.3,8-5.8
					C97.2,80.5,97,80.3,96.8,80.4L96.8,80.4z"/>
			</g>
		</g>
	</g>
	<g>
		<g>
			<g>
				<path class="st0" d="M97.2,81.3c-3.7,5-7.5,9.8-11.4,14.6c-0.1,0.2,0.1,0.4,0.2,0.2c3.9-4.8,7.7-9.7,11.4-14.7
					C97.6,81.3,97.3,81.1,97.2,81.3L97.2,81.3z"/>
			</g>
		</g>
	</g>
	<g>
		<g>
			<g>
				<path class="st0" d="M97.1,82.6c-0.8,1.7-1.7,3.4-2.7,5.1c-0.1,0.2,0.2,0.3,0.3,0.2c1-1.6,1.9-3.3,2.7-5.1
					C97.5,82.5,97.2,82.4,97.1,82.6L97.1,82.6z"/>
			</g>
		</g>
	</g>
	<g>
		<g>
			<g>
				<path class="st0" d="M45.6,106.2c-0.7,2.4-1.3,4.8-1.7,7.3c-0.3,1.5-0.6,3.2,0.8,4.2c1.5,1,3.6,0.8,5.3,0.6
					c2.3-0.4,4.6-1.3,6.7-2.3c0.2-0.1,0-0.4-0.2-0.3c-1.8,0.8-3.6,1.6-5.5,2c-1.8,0.4-4.2,0.8-5.9-0.1c-2-1.1-1-4-0.6-5.8
					c0.4-1.8,0.8-3.7,1.3-5.4C46,106.1,45.7,106,45.6,106.2L45.6,106.2z"/>
			</g>
		</g>
	</g>
	<g>
		<g>
			<g>
				<path class="st0" d="M47.8,118.6c0.7,0.9,0.7,2,0.1,3c-0.1,0.1,0,0.2,0.1,0.2c0.7,0.5,1.5,0.5,2.3,0.2c1.5-0.4,3-1,4.6-1.5
					c3.2-1,6.3-2.1,9.4-3.2c0.2-0.1,0.1-0.4-0.1-0.3c-3.7,1.3-7.4,2.5-11,3.7c-0.9,0.3-1.7,0.6-2.6,0.8c-0.4,0.1-0.9,0.3-1.3,0.3
					c-1.2,0-0.9-0.2-0.7-0.8c0.3-1,0.3-1.9-0.4-2.7C47.9,118.2,47.7,118.4,47.8,118.6L47.8,118.6z"/>
			</g>
		</g>
	</g>
	<g>
		<g>
			<g>
				<path class="st0" d="M50.3,121.9c-0.5,1.1-0.9,2.3-1.1,3.5c0,0.2,0.3,0.3,0.3,0.1c0.2-1.2,0.6-2.3,1.1-3.5
					C50.7,121.9,50.4,121.7,50.3,121.9L50.3,121.9z"/>
			</g>
		</g>
	</g>
	<g>
		<g>
			<g>
				<path class="st0" d="M57.6,126.4c0.2,0,0.2-0.3,0-0.3S57.4,126.4,57.6,126.4L57.6,126.4z"/>
			</g>
		</g>
	</g>
	<g>
		<g>
			<g>
				<path class="st0" d="M57.5,126.2c0-0.1,0-0.1,0-0.2c0-0.2-0.3-0.2-0.3,0c0,0.1,0,0.1,0,0.2C57.2,126.4,57.5,126.4,57.5,126.2
					L57.5,126.2z"/>
			</g>
		</g>
	</g>
	<g>
		<g>
			<g>
				<path class="st0" d="M57.8,125.9c-0.2,1.6,0.8,3,2.2,3.6c1.9,0.9,4.1,0.3,6-0.2c1.3-0.4,2.7-0.8,4.1-0.7
					c1.4,0.1,2.6,0.7,3.9,1.1c2.2,0.7,4.5,0.5,6.8,0c1.9-0.4,3.8-0.7,4.9-2.3c1.2-1.8,1.7-3.8,4-4.5c1.8-0.6,4.1-0.3,5.5,1.1
					c0.6,0.6,1.4,2.2,2.2,1c0.6-0.8,0.5-2.2,0.6-3.1c0.2-1.5,0.3-3.1,0.3-4.6c0.1-3.1-0.1-6.1-0.5-9.2c0-0.2-0.4-0.2-0.3,0
					c0.6,4.7,0.7,9.4,0.2,14c-0.1,0.6,0,1.6-0.3,2c-0.1,0.2-1,0.5-1.3,0.4c-0.4-0.2-0.1-0.2-0.2-0.3c-0.5-0.4-0.9-0.9-1.5-1.3
					c-1.1-0.6-2.4-0.9-3.7-0.7c-1.2,0.1-2.3,0.6-3.2,1.4c-1.2,1.2-1.6,3-2.7,4.2c-0.9,0.9-2.2,1.1-3.3,1.3c-1.2,0.3-2.5,0.6-3.8,0.6
					c-1.2,0.1-2.4,0-3.5-0.4c-1-0.3-2-0.8-3-1c-2.2-0.5-4.3,0.3-6.5,0.8c-1.5,0.4-3.2,0.6-4.7-0.1c-1.3-0.6-2.2-1.9-2-3.4
					C58.1,125.7,57.8,125.7,57.8,125.9L57.8,125.9z"/>
			</g>
		</g>
	</g>
	<g>
		<g>
			<g>
				<path class="st0" d="M50.5,98.5c-0.8,1.9-1.5,3.9-2.3,5.8c-0.1,0.2,0.2,0.3,0.3,0.1c0.8-1.9,1.5-3.9,2.3-5.8
					C50.9,98.4,50.6,98.3,50.5,98.5L50.5,98.5z"/>
			</g>
		</g>
	</g>
	<g>
		<g>
			<g>
				<path class="st0" d="M50.7,98.9c-0.5,1.8-0.9,3.7-1.4,5.5c-0.1,0.2,0.3,0.3,0.3,0.1c0.5-1.8,0.9-3.7,1.4-5.5
					C51.1,98.8,50.8,98.7,50.7,98.9L50.7,98.9z"/>
			</g>
		</g>
	</g>
	<g>
		<g>
			<g>
				<path class="st0" d="M51.4,98.9c-0.1,0.7-0.1,1.5-0.2,2.2c0,0.2,0.3,0.2,0.3,0c0.1-0.7,0.1-1.5,0.2-2.2
					C51.7,98.7,51.4,98.7,51.4,98.9L51.4,98.9z"/>
			</g>
		</g>
	</g>
	<g>
		<g>
			<g>
				<path class="st0" d="M64.3,117.2c1.7-1.4,3.9-1.5,6-1.8c1.8-0.3,3.4-0.7,4.9-1.8c1.5-1.1,2.6-2.6,3.8-3.9c1.5-1.5,3.2-2.7,5-3.8
					c3.4-2.1,6.3-4.1,8.1-7.8c2.1-4.2,3.7-8.8,5.5-13.2c0.1-0.2-0.2-0.3-0.3-0.1c-0.9,2.3-1.9,4.6-2.8,6.9c-0.9,2.2-1.7,4.5-2.9,6.6
					c-2.1,3.9-5.6,5.8-9.2,8.1c-1.6,1-2.9,2.2-4.2,3.6c-1.3,1.4-2.5,2.9-4.2,3.9c-3.1,1.8-7.2,0.6-10,3
					C63.9,117.1,64.2,117.3,64.3,117.2L64.3,117.2z"/>
			</g>
		</g>
	</g>
	<g>
		<g>
			<g>
				<path class="st0" d="M87.1,104c-0.4,4.1-0.7,8.2-0.7,12.3c0,0.2,0.3,0.2,0.3,0c0.1-4.1,0.3-8.2,0.7-12.3
					C87.4,103.8,87.1,103.8,87.1,104L87.1,104z"/>
			</g>
		</g>
	</g>
	<g>
		<g>
			<g>
				<path class="st0" d="M81.5,107.1c-0.6,4.8-1.1,9.5-1.6,14.3c0,0.2,0.3,0.2,0.3,0c0.5-4.8,1-9.6,1.6-14.3
					C81.9,107,81.6,107,81.5,107.1L81.5,107.1z"/>
			</g>
		</g>
	</g>
	<g>
		<g>
			<g>
				<path class="st0" d="M84.1,105.9c-0.1,1.3-0.1,2.6-0.1,3.9c0,0.2,0.3,0.2,0.3,0c0.1-1.3,0.1-2.6,0.1-3.9
					C84.4,105.7,84.1,105.7,84.1,105.9L84.1,105.9z"/>
			</g>
		</g>
	</g>
	<g>
		<g>
			<g>
				<path class="st0" d="M64,117.2c-0.2,2-0.5,4-1.1,6c-0.1,0.2,0.3,0.3,0.3,0.1c0.6-2,1-4,1.1-6.1C64.4,117,64,117,64,117.2
					L64,117.2z"/>
			</g>
		</g>
	</g>
	<g>
		<g>
			<g>
				<path class="st0" d="M65.3,116.5c-0.1,1.2-0.3,2.4-0.4,3.7c0,0.2,0.3,0.2,0.3,0c0.1-1.2,0.3-2.4,0.4-3.7
					C65.6,116.3,65.3,116.3,65.3,116.5L65.3,116.5z"/>
			</g>
		</g>
	</g>
	<g>
		<g>
			<g>
				<path class="st0" d="M67,115.9c0.2,2.7,0.3,5.4,0.4,8.1c0,0.2,0.3,0.2,0.3,0c-0.2-2.7-0.3-5.4-0.4-8.1
					C67.3,115.7,67,115.7,67,115.9L67,115.9z"/>
			</g>
		</g>
	</g>
	<g>
		<g>
			<g>
				<path class="st0" d="M73.2,114.7c-0.1,1.5-0.2,3-0.3,4.6c0,0.2,0.3,0.2,0.3,0c0.1-1.5,0.2-3,0.3-4.6
					C73.6,114.5,73.3,114.5,73.2,114.7L73.2,114.7z"/>
			</g>
		</g>
	</g>
	<g>
		<g>
			<g>
				<path class="st0" d="M74.3,114.3c-0.1,1.2-0.1,2.3,0,3.5c0,0.2,0.3,0.2,0.3,0c-0.1-1.2-0.1-2.3,0-3.5
					C74.6,114.1,74.3,114.1,74.3,114.3L74.3,114.3z"/>
			</g>
		</g>
	</g>
	<g>
		<g>
			<g>
				<path class="st0" d="M98,105.1c0,3.6,0.2,7.1,0.8,10.6c0.1,0.9,0.3,1.7,0.5,2.6c0.2,0.8,0.6,1.8,0.5,2.6
					c-0.1,0.8-0.9,1.3-1.5,1.7c-0.1,0.1-0.2,0.1-0.3,0.2c-0.3,0.3-0.4,0.5-0.4,0.9c0,0.2,0.3,0.2,0.3,0c-0.1-0.8,1.4-1,1.8-1.5
					c0.2-0.3,0.3-0.6,0.3-1c0.1-1.4-0.5-3-0.8-4.4c-0.7-3.9-1-7.8-1-11.7C98.4,104.9,98,104.9,98,105.1L98,105.1z"/>
			</g>
		</g>
	</g>
	<g>
		<g>
			<g>
				<path class="st0" d="M53.2,52.2c1.9-0.4,3.6-1.2,5.2-2.2c1.7-1,3.2-1.7,5.1-1.7c2.3,0,5.1,0.5,6.5-1.8c0.1-0.2-0.2-0.3-0.3-0.2
					c-1.6,2.6-5.1,1.4-7.6,1.7c-1.4,0.2-2.6,0.9-3.8,1.6c-1.7,1-3.4,1.9-5.3,2.3C52.9,52,53,52.3,53.2,52.2L53.2,52.2z"/>
			</g>
		</g>
	</g>
	<g>
		<g>
			<g>
				<path class="st0" d="M71.2,46.5c2.5,1.9,5.6,1.5,8.6,1.9c1.8,0.3,3.3,1.2,4.9,1.8c1.6,0.7,3.3,0.9,5,0.7c0.2,0,0.2-0.3,0-0.3
					c-2,0.2-3.8-0.2-5.7-1c-1.3-0.6-2.6-1.3-4.1-1.5c-3-0.5-6.1,0-8.7-1.9C71.2,46.1,71.1,46.4,71.2,46.5L71.2,46.5z"/>
			</g>
		</g>
	</g>
	<g>
		<g>
			<g>
				<path class="st0" d="M52.7,52.7c3.8-5.6,10.1-9.2,16.9-9.5c3.7-0.2,7.3,0.6,10.6,2.2c3.3,1.6,6.5,3.5,9.7,5.3
					c0.2,0.1,0.3-0.2,0.2-0.3c-3.6-2-7.2-4.3-10.9-5.9c-3.3-1.4-6.9-2-10.4-1.7c-6.6,0.6-12.6,4.2-16.3,9.6
					C52.4,52.7,52.6,52.9,52.7,52.7L52.7,52.7z"/>
			</g>
		</g>
	</g>
	<g>
		<g>
			<g>
				<path class="st0" d="M51.6,50.9C54.7,43,62,35.9,71,37.1c2.1,0.3,4.2,1,6.2,1.7c2.1,0.7,4.1,1.4,6,2.5c3.6,2,6.7,5.1,7.3,9.3
					c0,0.2,0.3,0.1,0.3-0.1c-1-7.1-8.2-10.2-14.2-12.2c-3.3-1.1-6.6-2-10.2-1.4c-3.4,0.6-6.5,2.2-9,4.5c-2.8,2.6-4.8,5.9-6.2,9.4
					C51.3,51,51.6,51.1,51.6,50.9L51.6,50.9z"/>
			</g>
		</g>
	</g>
	<g>
		<g>
			<g>
				<path class="st0" d="M51.2,50.8C53,44,57.9,38,64.4,35.4c4.1-1.7,8.2-1.5,12.3-0.1c3.3,1.1,6.4,2.8,9,5.1
					c2.8,2.5,4.9,5.7,5.7,9.5c0.1,0.2,0.4,0.1,0.3-0.1c-1.5-6.9-7.3-11.8-13.6-14.3c-4-1.6-8.1-2.2-12.2-1c-3.5,1.1-6.7,3.2-9.3,5.8
					c-2.8,2.9-4.8,6.5-5.8,10.4C50.9,50.9,51.2,51,51.2,50.8L51.2,50.8z"/>
			</g>
		</g>
	</g>
	<g>
		<g>
			<g>
				<path class="st0" d="M69.4,33.9c1.4-6.5,2.9-12.9,4.3-19.4c-0.1,0-0.2,0-0.3-0.1c-0.7,6.4-1.3,12.8-2,19.2c0,0.2,0.3,0.2,0.3,0
					c0.7-6.4,1.3-12.8,2-19.2c0-0.2-0.3-0.2-0.3-0.1c-1.4,6.5-2.9,12.9-4.3,19.4C69.1,34,69.4,34.1,69.4,33.9L69.4,33.9z"/>
			</g>
		</g>
	</g>
	<g>
		<g>
			<g>
				<path class="st0" d="M73.3,14.4c0,3.3,0,6.6,0,9.9c0,3.2-0.2,6.5,0.1,9.7c0,0.2,0.3,0.2,0.3,0c-0.2-3.2-0.1-6.5-0.1-9.7
					c0-3.3,0-6.6,0-9.9C73.6,14.2,73.3,14.2,73.3,14.4L73.3,14.4z"/>
			</g>
		</g>
	</g>
	<g>
		<g>
			<g>
				<path class="st0" d="M78.2,35.5c4.2-6.1,8.3-12.3,12.3-18.6c-0.1-0.1-0.2-0.1-0.3-0.1c-2.3,7.2-4.7,14.4-7.1,21.6
					c-0.1,0.2,0.3,0.3,0.3,0.1c2.3-7.2,4.7-14.4,7.1-21.6c0.1-0.2-0.2-0.3-0.3-0.1c-4,6.3-8.2,12.4-12.3,18.6
					C77.8,35.5,78.1,35.7,78.2,35.5L78.2,35.5z"/>
			</g>
		</g>
	</g>
	<g>
		<g>
			<g>
				<path class="st0" d="M90.2,16.9c-3.1,6.5-6.1,12.9-9.1,19.4c-0.1,0.2,0.2,0.4,0.3,0.2c3-6.5,6-13,9.1-19.4
					C90.6,16.9,90.3,16.7,90.2,16.9L90.2,16.9z"/>
			</g>
		</g>
	</g>
	<g>
		<g>
			<g>
				<path class="st0" d="M87.7,42.1c5.4-3.8,10.5-7.8,15.5-12.1c-0.1-0.1-0.2-0.1-0.3-0.2c-1.6,3-3.9,5.4-6.2,7.9
					c-2.3,2.5-4.6,5.2-6.6,7.9c-0.1,0.2,0.2,0.3,0.3,0.2c2.2-2.9,4.6-5.7,7.2-8.5c2.1-2.3,4.2-4.6,5.7-7.3c0.1-0.2-0.1-0.3-0.3-0.2
					c-5,4.3-10.1,8.3-15.4,12C87.4,42,87.6,42.2,87.7,42.1L87.7,42.1z"/>
			</g>
		</g>
	</g>
	<g>
		<g>
			<g>
				<path class="st0" d="M89.2,43.9c4.7-4.4,9.2-8.8,13.7-13.5c0.2-0.2-0.1-0.4-0.2-0.2c-4.4,4.6-9,9.1-13.7,13.5
					C88.8,43.8,89,44,89.2,43.9L89.2,43.9z"/>
			</g>
		</g>
	</g>
	<g>
		<g>
			<g>
				<path class="st0" d="M57.6,38.8c-2.7-6-5.5-12-8.2-17.9c-0.1,0.1-0.2,0.1-0.3,0.2c3.9,5.1,7.9,10.2,11.8,15.3
					c0.1,0.2,0.4,0,0.3-0.2c-3.9-5.1-7.9-10.2-11.8-15.3c-0.1-0.2-0.4,0-0.3,0.2c2.7,6,5.4,12,8.2,17.9C57.4,39.2,57.7,39,57.6,38.8
					L57.6,38.8z"/>
			</g>
		</g>
	</g>
	<g>
		<g>
			<g>
				<path class="st0" d="M49.5,21.6c1.9,2.9,3.8,5.9,5.5,8.9c0.9,1.5,1.7,3,2.5,4.6c0.5,1,0.9,2,2,2.5c0.2,0.1,0.4-0.2,0.2-0.3
					c-1.3-0.6-1.9-2.5-2.5-3.7c-0.8-1.4-1.5-2.8-2.3-4.1c-1.6-2.7-3.3-5.4-5-8.1C49.6,21.3,49.3,21.4,49.5,21.6L49.5,21.6z"/>
			</g>
		</g>
	</g>
	<g>
		<g>
			<g>
				<path class="st0" d="M51.5,48.8c-4.7-4.4-9.4-8.8-14.1-13.2c-0.1,0.1-0.1,0.2-0.2,0.3c5.7,2.5,11.1,5.6,16.2,9.2
					c0.2,0.1,0.3-0.2,0.2-0.3c-5.1-3.6-10.5-6.7-16.2-9.2c-0.2-0.1-0.3,0.1-0.2,0.3c4.7,4.4,9.4,8.8,14.1,13.2
					C51.4,49.1,51.6,48.9,51.5,48.8L51.5,48.8z"/>
			</g>
		</g>
	</g>
	<g>
		<g>
			<g>
				<path class="st0" d="M37.5,36c2.9,1.8,5.7,3.8,8.3,6c2,1.7,3.9,3.7,6.4,4.6c0.2,0.1,0.3-0.2,0.1-0.3c-2.9-1-5-3.5-7.4-5.4
					c-2.3-1.9-4.7-3.6-7.3-5.2C37.5,35.6,37.4,35.9,37.5,36L37.5,36z"/>
			</g>
		</g>
	</g>
	<g>
		<g>
			<g>
				<path class="st0" d="M52.1,51.1c1.9-3.2,3.8-6.5,6.6-9c3.1-2.8,7-4,11.1-3.8c4.1,0.2,8.3,1.4,12,3.2c3.8,1.8,7.3,4.7,8.2,9
					c0.1,0.2,0.4,0.1,0.3-0.1c-0.8-4.1-4-7-7.5-8.8c-3.8-2-8.2-3.3-12.5-3.6c-4.1-0.2-8,0.8-11.2,3.4c-3.1,2.6-5.2,6.1-7.3,9.6
					C51.7,51.1,52,51.2,52.1,51.1L52.1,51.1z"/>
			</g>
		</g>
	</g>
	<g>
		<g>
			<g>
				<path class="st0" d="M69.2,45.7c-1.4,0.9-2.8,1.2-4.5,1.2c-1.4,0-2.8-0.1-4.1,0.4c-2.5,0.9-4.5,3-6.9,4.2
					c-0.2,0.1,0,0.4,0.2,0.3c2.6-1.3,4.7-3.8,7.6-4.4c1.5-0.3,3.1-0.1,4.6-0.2c1.2-0.1,2.2-0.6,3.3-1.2
					C69.5,45.9,69.3,45.6,69.2,45.7L69.2,45.7z"/>
			</g>
		</g>
	</g>
	<g>
		<g>
			<g>
				<path class="st0" d="M71.5,46.3c3.6,1.5,7.8,0.1,11.2,2.2c2.3,1.4,4.4,3.3,7.2,2c0.2-0.1,0-0.4-0.2-0.3
					c-3.3,1.4-5.5-1.7-8.2-2.8c-3.2-1.3-6.8-0.2-9.9-1.5C71.4,45.9,71.4,46.2,71.5,46.3L71.5,46.3z"/>
			</g>
		</g>
	</g>
	<g>
		<g>
			<g>
				<path class="st0" d="M98,98.4c-0.2,1.2,1.3,1.4,1.9,0.6c0.6-0.7,0.7-1.8,0.8-2.7c0.2-1.5,0.3-2.9,0.2-4.4c0-0.2-0.3-0.2-0.3,0
					c0.1,1.1,0.1,2.3,0,3.4c-0.1,0.6-0.2,1.3-0.3,1.9c-0.1,0.3-0.1,0.5-0.2,0.8c-0.1,0.9-0.7,1-1.7,0.5C98.4,98.3,98.1,98.2,98,98.4
					L98,98.4z"/>
			</g>
		</g>
	</g>
	<g>
		<g>
			<g>
				<path class="st0" d="M99.6,91.9c-0.3,1.3-0.5,2.7-0.8,4c-0.1,0.2,0.3,0.3,0.3,0.1c0.3-1.3,0.5-2.7,0.8-4
					C100,91.8,99.7,91.7,99.6,91.9L99.6,91.9z"/>
			</g>
		</g>
	</g>
	<g>
		<g>
			<g>
				<path class="st0" d="M54.3,88.1c0.3,3.9,0.3,7.8-0.1,11.7c0,0.2,0.3,0.2,0.3,0C55,95.9,55,92,54.6,88.1
					C54.6,87.9,54.3,87.9,54.3,88.1L54.3,88.1z"/>
			</g>
		</g>
	</g>
	<g>
		<g>
			<g>
				<path class="st0" d="M56.3,91.4c0.3,1.1,0.3,2.3,0,3.4c-0.1,0.2,0.3,0.3,0.3,0.1c0.3-1.2,0.3-2.4,0-3.6
					C56.5,91.1,56.2,91.2,56.3,91.4L56.3,91.4z"/>
			</g>
		</g>
	</g>
	<g>
		<g>
			<g>
				<path class="st0" d="M58.2,92.1c0,0.1,0,0.3,0,0.4c0,0.2,0.3,0.2,0.3,0c0-0.1,0-0.3,0-0.4C58.5,91.9,58.2,91.9,58.2,92.1
					L58.2,92.1z"/>
			</g>
		</g>
	</g>
	<g>
		<g>
			<g>
				<path class="st0" d="M47.1,82.8c3.4-0.7,6.4,1.3,9.4,2.6c2.6,1.2,5.3,2,8.1,2.6c5.6,1.1,11.5,0.7,16.9-0.9
					c0.2-0.1,0.1-0.4-0.1-0.3c-6,1.8-12.4,2-18.5,0.6c-3-0.7-5.8-1.9-8.5-3.2c-2.3-1.2-4.8-2.2-7.5-1.6
					C46.8,82.5,46.9,82.9,47.1,82.8L47.1,82.8z"/>
			</g>
		</g>
	</g>
	<g>
		<g>
			<g>
				<path class="st0" d="M71.3,92.7c-2.1,0.2-4.2,0.5-6.2,0.7c-0.2,0-0.2,0.3,0,0.3c2.1-0.2,4.2-0.5,6.2-0.7
					C71.5,93,71.5,92.7,71.3,92.7L71.3,92.7z"/>
			</g>
		</g>
	</g>
	<g>
		<g>
			<g>
				<path class="st0" d="M58,126.4c0-1.3,0.2-2.7,0.3-4c0-0.2-0.3-0.3-0.3-0.1c-0.2,1.4-0.3,2.7-0.4,4.1
					C57.6,126.6,58,126.6,58,126.4L58,126.4z"/>
			</g>
		</g>
	</g>
	<g>
		<g>
			<g>
				<path class="st0" d="M87.4,125.1c-0.1,0-0.3,0-0.4,0c-0.2,0-0.2,0.3,0,0.3c0.1,0,0.3,0,0.4,0C87.6,125.5,87.6,125.1,87.4,125.1
					L87.4,125.1z"/>
			</g>
		</g>
	</g>
	<g>
		<g>
			<g>
				<path class="st0" d="M86.8,123c1.6-1.4,3.7-2,5.8-1.9c0.2,0,0.2-0.3,0-0.3c-2.2-0.2-4.3,0.6-6,2C86.4,122.9,86.6,123.1,86.8,123
					L86.8,123z"/>
			</g>
		</g>
	</g>
	<g>
		<g>
			<g>
				<path class="st0" d="M53.2,122.3c1-0.2,1.9,0.1,2.6,0.8c0.2,0.2,0.4-0.1,0.2-0.2c-0.8-0.8-1.8-1.1-2.9-0.9
					C52.9,122,53,122.3,53.2,122.3L53.2,122.3z"/>
			</g>
		</g>
	</g>
	<g>
		<g>
			<g>
				<path class="st0" d="M54.2,121.5c0.4,0.1,0.7,0.2,1.1,0.2c0.2,0.1,0.3-0.3,0.1-0.3c-0.4-0.1-0.7-0.2-1.1-0.2
					C54.1,121.2,54,121.5,54.2,121.5L54.2,121.5z"/>
			</g>
		</g>
	</g>
	<g>
		<g>
			<g>
				<path class="st0" d="M88.4,121c0.3-0.1,0.6-0.1,0.9-0.2c0.2-0.1,0.1-0.4-0.1-0.3c-0.3,0.1-0.6,0.1-0.9,0.2
					C88.1,120.8,88.2,121.1,88.4,121L88.4,121z"/>
			</g>
		</g>
	</g>
	<g>
		<g>
			<g>
				<path class="st0" d="M45.1,87.7c-0.1,1.3-0.1,2.6-0.2,3.9c0,0.2,0.3,0.2,0.3,0c0.1-1.3,0.1-2.6,0.2-3.9
					C45.5,87.5,45.1,87.5,45.1,87.7L45.1,87.7z"/>
			</g>
		</g>
	</g>
	<g>
		<g>
			<g>
				<path class="st0" d="M52.5,50.1c0.3,0.4,0.6,0.7,1,0.8c0.2,0.1,0.3-0.2,0.1-0.3c-0.4-0.1-0.6-0.4-0.8-0.7
					C52.7,49.8,52.4,49.9,52.5,50.1L52.5,50.1z"/>
			</g>
		</g>
	</g>
	<g>
		<g>
			<g>
				<path class="st0" d="M53.4,48.6c0.3,0.5,0.8,0.9,1.3,1.2c0.2,0.1,0.4-0.2,0.2-0.3c-0.5-0.2-0.9-0.6-1.2-1.1
					C53.6,48.3,53.3,48.4,53.4,48.6L53.4,48.6z"/>
			</g>
		</g>
	</g>
	<g>
		<g>
			<g>
				<path class="st0" d="M54.8,46.2c0.3,0.9,0.9,1.6,1.8,1.9c0.2,0.1,0.3-0.2,0.1-0.3c-0.8-0.3-1.3-0.9-1.6-1.7
					C55.1,45.9,54.8,46,54.8,46.2L54.8,46.2z"/>
			</g>
		</g>
	</g>
	<g>
		<g>
			<g>
				<path class="st0" d="M57.6,42.9c0.7,0.9,1.4,1.8,2.2,2.8c0.1,0.2,0.4-0.1,0.2-0.2c-0.7-0.9-1.4-1.8-2.2-2.8
					C57.7,42.6,57.5,42.8,57.6,42.9L57.6,42.9z"/>
			</g>
		</g>
	</g>
	<g>
		<g>
			<g>
				<path class="st0" d="M63.2,39c0.5,1.5,1,3.1,1.5,4.6c0.1,0.2,0.4,0.1,0.3-0.1c-0.5-1.5-1-3.1-1.5-4.6
					C63.4,38.7,63.1,38.8,63.2,39L63.2,39z"/>
			</g>
		</g>
	</g>
	<g>
		<g>
			<g>
				<path class="st0" d="M74.3,38.8c-0.3,1.5-0.6,2.9-0.7,4.4c0,0.2,0.3,0.2,0.3,0c0.1-1.5,0.3-2.9,0.6-4.3
					C74.7,38.7,74.4,38.6,74.3,38.8L74.3,38.8z"/>
			</g>
		</g>
	</g>
	<g>
		<g>
			<g>
				<path class="st0" d="M80.3,45.1c0.7-1.2,1.3-2.3,2-3.5c0.1-0.2-0.2-0.3-0.3-0.2c-0.7,1.2-1.3,2.3-2,3.5
					C79.9,45.2,80.2,45.3,80.3,45.1L80.3,45.1z"/>
			</g>
		</g>
	</g>
	<g>
		<g>
			<g>
				<path class="st0" d="M82.5,46.4c0.7-1.1,1.4-2.3,2.1-3.4c0.1-0.2-0.2-0.3-0.3-0.2c-0.7,1.1-1.4,2.3-2.1,3.4
					C82.2,46.4,82.4,46.5,82.5,46.4L82.5,46.4z"/>
			</g>
		</g>
	</g>
	<g>
		<g>
			<g>
				<path class="st0" d="M84.7,47.4c0.6-1,1.2-2,1.8-2.9c0.1-0.2-0.2-0.3-0.3-0.2c-0.6,1-1.2,2-1.8,2.9
					C84.3,47.4,84.6,47.5,84.7,47.4L84.7,47.4z"/>
			</g>
		</g>
	</g>
	<g>
		<g>
			<g>
				<path class="st0" d="M86,48.2c0.5-0.9,1-1.7,1.5-2.6c0.1-0.2-0.2-0.3-0.3-0.2c-0.5,0.9-1,1.7-1.5,2.6
					C85.6,48.2,85.9,48.4,86,48.2L86,48.2z"/>
			</g>
		</g>
	</g>
	<g>
		<g>
			<g>
				<path class="st0" d="M87.2,49c0.4-0.8,0.9-1.6,1.3-2.4c0.1-0.2-0.2-0.3-0.3-0.2c-0.4,0.8-0.9,1.6-1.3,2.4
					C86.8,49,87.1,49.1,87.2,49L87.2,49z"/>
			</g>
		</g>
	</g>
	<g>
		<g>
			<g>
				<path class="st0" d="M88.1,49.6c0.5-0.6,0.9-1.2,1.2-1.9c0.1-0.2-0.2-0.3-0.3-0.1c-0.3,0.7-0.6,1.2-1.1,1.8
					C87.8,49.5,88,49.7,88.1,49.6L88.1,49.6z"/>
			</g>
		</g>
	</g>
	<g>
		<g>
			<g>
				<path class="st0" d="M89.2,49.9c0.1-0.3,0.3-0.5,0.4-0.7c0.1-0.2-0.2-0.3-0.3-0.2c-0.1,0.3-0.3,0.5-0.4,0.7
					C88.8,49.9,89.1,50.1,89.2,49.9L89.2,49.9z"/>
			</g>
		</g>
	</g>
	<g>
		<g>
			<g>
				<path class="st0" d="M99.6,91.8c-0.5-0.3-0.9-0.6-1.1-1.1c-0.3-0.9,0.9-2.2,1.7-1.1c0.1-0.1,0.2-0.1,0.3-0.2
					c-0.6-0.9,0.1-2.2,1.2-1.8c0.2,0.1,0.3-0.3,0.1-0.3c-1.4-0.5-2.3,1.1-1.6,2.2c0.1,0.2,0.4,0,0.3-0.2c-0.5-0.8-1.6-0.8-2.1,0
					c-0.7,1,0.2,2.1,1.1,2.6C99.6,92.2,99.8,91.9,99.6,91.8L99.6,91.8z"/>
			</g>
		</g>
	</g>
	<g>
		<g>
			<g>
				<path class="st0" d="M99.5,92.3c1.4-0.1,2.5-1.3,3.1-2.5c0.4-0.9,0.3-2.1-0.9-2.4c-0.2-0.1-0.3,0.3-0.1,0.3
					c1.4,0.4,0.8,2,0.2,2.7c-0.6,0.8-1.3,1.5-2.3,1.6C99.3,92,99.3,92.3,99.5,92.3L99.5,92.3z"/>
			</g>
		</g>
	</g>
	<g>
		<g>
			<g>
				<path class="st0" d="M41.7,82.8c-0.3-0.7-0.5-1.4-0.6-2.1c-0.2-1-0.4-2.3,0.8-2.7c1-0.3,2.6-0.3,2.7,1c0.1,0.8-0.3,1.7-0.4,2.5
					c0,0.2,0.3,0.3,0.3,0.1c0.1-0.8,0.2-1.6,0.3-2.4c0.1-0.4,0.1-0.8-0.1-1.1c-0.5-0.7-1.8-0.7-2.5-0.5c-0.7,0.1-1.5,0.3-1.7,1.1
					c-0.3,1.3,0.3,3,0.7,4.2C41.5,83,41.8,82.9,41.7,82.8L41.7,82.8z"/>
			</g>
		</g>
	</g>
	<g>
		<g>
			<g>
				<path class="st0" d="M45.3,76.9c-0.1,0.6-0.4,1-0.8,1.5c-0.1,0.2,0.2,0.3,0.3,0.2c0.4-0.5,0.7-1,0.8-1.6
					C45.7,76.8,45.4,76.7,45.3,76.9L45.3,76.9z"/>
			</g>
		</g>
	</g>
	<g>
		<g>
			<g>
				<path class="st0" d="M40.3,79.3c-0.9-0.9-1.9-2.4-0.1-2.9c0.6-0.2,1.3-0.2,2-0.3c0.9-0.2,1.7-0.5,2.6-0.3
					c0.2,0.1,0.3-0.3,0.1-0.3c-1.1-0.3-2.2,0.2-3.4,0.3c-0.7,0.1-1.7,0.1-2.3,0.6c-1,0.9,0.2,2.3,0.8,3
					C40.2,79.7,40.4,79.5,40.3,79.3L40.3,79.3z"/>
			</g>
		</g>
	</g>
	<g>
		<g>
			<g>
				<path class="st0" d="M36.7,78.1c-0.8-1.9,1.9-3.2,3.3-3.6c0.8-0.3,1.7-0.4,2.6-0.3c0.7,0.1,4.2,1,2.9,2.4
					c-0.2,0.2,0.1,0.4,0.2,0.2c0.8-0.8,0.2-1.6-0.6-2.1c-1.3-0.9-3-1.1-4.5-0.8c-1.8,0.4-5.3,1.9-4.3,4.2
					C36.5,78.4,36.8,78.3,36.7,78.1L36.7,78.1z"/>
			</g>
		</g>
	</g>
	<g>
		<g>
			<g>
				<path class="st0" d="M39,78.1c-0.5,0.3-1,0.6-1.6,0.5c-0.2,0-0.2,0.3,0,0.3c0.7,0.1,1.2-0.2,1.8-0.5C39.3,78.3,39.1,78,39,78.1
					L39,78.1z"/>
			</g>
		</g>
	</g>
	<g>
		<g>
			<g>
				<path class="st0" d="M36.1,77.5c-0.6-0.6-1.5-1.8-1.3-2.7c0.2-0.8,0.9-1,1.6-0.6c0.5,0.3,0.7,0.8,1,1.2c0.1,0.2,0.4,0,0.3-0.2
					c-0.5-0.9-1.8-2.3-2.8-1.3c-1,1,0.4,3,1.1,3.8C36,77.9,36.3,77.7,36.1,77.5L36.1,77.5z"/>
			</g>
		</g>
	</g>
	<g>
		<g>
			<g>
				<path class="st0" d="M36.1,73.6c0-0.8,0.9-1.2,1.6-1.1c0.8,0.1,1.4,0.8,1.6,1.6c0.1,0.2,0.4,0.1,0.3-0.1c-0.3-1-1.1-1.8-2.1-1.8
					c-0.8,0-1.6,0.6-1.6,1.4C35.8,73.8,36.1,73.8,36.1,73.6L36.1,73.6z"/>
			</g>
		</g>
	</g>
	<g>
		<g>
			<g>
				<path class="st0" d="M38.5,72.7c0.1-0.9,1.1-1.5,1.9-1.1c0.8,0.4,1,1.3,0.8,2.1c-0.1,0.2,0.3,0.3,0.3,0.1c0.3-1-0.2-2.3-1.2-2.6
					c-1-0.3-2,0.5-2.1,1.4C38.2,72.9,38.5,72.9,38.5,72.7L38.5,72.7z"/>
			</g>
		</g>
	</g>
	<g>
		<g>
			<g>
				<path class="st0" d="M40.9,71.8c0.5-0.7,1.6-0.5,1.8,0.3c0.2,0.6,0.1,1.2-0.1,1.8c-0.1,0.2,0.3,0.3,0.3,0.1
					c0.2-0.8,0.4-1.9-0.3-2.6c-0.6-0.6-1.6-0.5-2.1,0.2C40.5,71.8,40.8,72,40.9,71.8L40.9,71.8z"/>
			</g>
		</g>
	</g>
	<g>
		<g>
			<g>
				<path class="st0" d="M43.1,71.8c1.2,0,1.7,1.4,0.8,2.2c-0.2,0.1,0.1,0.4,0.2,0.2c1.1-1,0.4-2.7-1-2.7
					C42.9,71.5,42.9,71.8,43.1,71.8L43.1,71.8z"/>
			</g>
		</g>
	</g>
	<g>
		<g>
			<g>
				<path class="st0" d="M44.5,72.3c1,0.5,1.3,1.7,0.9,2.6c-0.1,0.2,0.2,0.3,0.3,0.2c0.6-1.1,0.2-2.5-1-3
					C44.4,72,44.3,72.2,44.5,72.3L44.5,72.3z"/>
			</g>
		</g>
	</g>
	<g>
		<g>
			<g>
				<path class="st0" d="M37.8,78.8c0.2,0.6,0.5,1.1,0.9,1.5c0.2,0.2,0.4,0.4,0.6,0.5c0.2,0.2,0.7,0.3,0.9,0.4
					c0.4,0.4,0,1.3,0.4,1.9c0.3,0.4,0.6,0.5,1,0.4c0.2,0,0.1-0.3-0.1-0.3c-1,0.2-0.7-1.6-0.8-2.1c0-0.1-0.1-0.1-0.1-0.1
					c-1.2-0.4-2-1.2-2.5-2.3C38,78.5,37.7,78.6,37.8,78.8L37.8,78.8z"/>
			</g>
		</g>
	</g>
	<g>
		<g>
			<g>
				<path class="st0" d="M40,80.9c0.2-0.9,0.5-1.7,1.1-2.3c0.1-0.2-0.1-0.4-0.2-0.2c-0.6,0.7-1,1.6-1.1,2.5
					C39.6,81,39.9,81.1,40,80.9L40,80.9z"/>
			</g>
		</g>
	</g>
	<g>
		<g>
			<g>
				<path class="st0" d="M37.4,64.2c-1.8,0.6-1.3,3.6,0.8,3.2c0.9-0.2,1.6-0.9,1.5-1.9c-0.2-1-1.2-1.7-2.2-1.5
					c-0.2,0-0.1,0.3,0.1,0.3c0.9-0.2,1.8,0.5,1.8,1.4c0,0.7-0.6,1.3-1.2,1.4c-1.6,0.3-2-2.1-0.6-2.6C37.7,64.4,37.6,64.1,37.4,64.2
					L37.4,64.2z"/>
			</g>
		</g>
	</g>
	<g>
		<g>
			<g>
				<path class="st0" d="M38.9,64.5c0.7-1.1,2.4-1,2.9,0.2c0.6,1.6-1.2,2.7-2.5,1.9c-0.2-0.1-0.3,0.2-0.2,0.3c1.5,1,3.6-0.4,3-2.2
					c-0.5-1.6-2.7-1.6-3.5-0.4C38.5,64.5,38.8,64.6,38.9,64.5L38.9,64.5z"/>
			</g>
		</g>
	</g>
	<g>
		<g>
			<g>
				<path class="st0" d="M38.4,67.5c0.2,0.4,0.4,0.7,0.5,1.1c0.1,0.1,0.3,0.1,0.3,0c0.1-0.3,0.3-0.6,0.5-0.8
					c0.2-0.1-0.1-0.4-0.2-0.2c-0.3,0.3-0.5,0.6-0.6,0.9c0.1,0,0.2,0,0.3,0c-0.2-0.4-0.4-0.7-0.5-1.1C38.6,67.1,38.3,67.3,38.4,67.5
					L38.4,67.5z"/>
			</g>
		</g>
	</g>
	<g>
		<g>
			<g>
				<path class="st0" d="M36.4,65.9c-1.3,0.9-2.1,2.3-2,3.9c0,1.3,0.7,3.1,2.2,2.9c0.2,0,0.2-0.3,0-0.3c-1.7,0.2-2-2.2-1.8-3.4
					s0.8-2.2,1.8-2.9C36.7,66.1,36.5,65.8,36.4,65.9L36.4,65.9z"/>
			</g>
		</g>
	</g>
	<g>
		<g>
			<g>
				<path class="st0" d="M43.8,71.8c1.5-1.5,0.9-6.1-1.7-6.2c-0.2,0-0.2,0.3,0,0.3c2.3,0.1,2.8,4.4,1.5,5.6
					C43.5,71.7,43.7,71.9,43.8,71.8L43.8,71.8z"/>
			</g>
		</g>
	</g>
	<g>
		<g>
			<g>
				<path class="st0" d="M37.6,64.1c-0.9-1-0.6-2.6,0.6-3.2c-0.1-0.1-0.2-0.2-0.2-0.2c-0.4,0.8-0.8,2.3,0.6,2.5
					c0.1,0,0.2-0.1,0.2-0.2c0-0.4-0.1-1.3,0.7-1.1c0-0.1-0.1-0.1-0.1-0.2c-0.1,0.4-0.2,0.8-0.1,1.2c0,0.1,0.1,0.2,0.2,0.2
					c0.5-0.2,0.8-0.1,1.3,0.1c0.2,0.1,0.3-0.3,0.1-0.3c-0.2-0.1-0.6-0.3-0.8-0.3c-0.2,0-0.4,0.1-0.6,0.2c0.1,0.1,0.1,0.1,0.2,0.2
					c0-0.4,0-0.8,0.1-1.2c0-0.1,0-0.2-0.1-0.2c-0.9-0.2-1.1,0.8-1.1,1.4c0.1-0.1,0.1-0.1,0.2-0.2c-1.1-0.1-0.6-1.5-0.3-2
					c0.1-0.2-0.1-0.3-0.2-0.2c-1.4,0.7-1.7,2.6-0.7,3.7C37.5,64.5,37.7,64.3,37.6,64.1L37.6,64.1z"/>
			</g>
		</g>
	</g>
	<g>
		<g>
			<g>
				<path class="st0" d="M35.1,68.7c0.5,0.9,0.6,2,0.3,3c-0.1,0.2,0.2,0.3,0.3,0.1c0.4-1.1,0.3-2.3-0.3-3.3
					C35.3,68.4,35,68.6,35.1,68.7L35.1,68.7z"/>
			</g>
		</g>
	</g>
	<g>
		<g>
			<g>
				<path class="st0" d="M42.5,68.1c-0.6,1-0.2,2.4,0.9,2.9c0.2,0.1,0.4-0.2,0.2-0.3c-0.9-0.4-1.3-1.6-0.8-2.5
					C42.9,68.1,42.6,67.9,42.5,68.1L42.5,68.1z"/>
			</g>
		</g>
	</g>
	<g>
		<g>
			<g>
				<path class="st0" d="M40.8,63.2c0.2-0.2,0.3-0.4,0.3-0.7c-0.1,0-0.2,0.1-0.3,0.1c0.2,0.3,0.3,0.7,0.2,1
					c-0.1,0.2,0.3,0.3,0.3,0.1c0.1-0.5,0-0.9-0.3-1.3c-0.1-0.1-0.3,0-0.3,0.1c0,0.2-0.1,0.4-0.2,0.5C40.5,63.1,40.7,63.3,40.8,63.2
					L40.8,63.2z"/>
			</g>
		</g>
	</g>
	<g>
		<g>
			<g>
				<path class="st0" d="M39.6,68.5c0.1-0.4,0.4-0.7,0.7-0.8c0.2-0.1,0.1-0.4-0.1-0.3c-0.5,0.1-0.9,0.5-1,1
					C39.3,68.6,39.6,68.7,39.6,68.5L39.6,68.5z"/>
			</g>
		</g>
	</g>
	<g>
		<g>
			<g>
				<path class="st0" d="M35.5,71.7c0,0-0.1-0.8-0.1-0.9c0-0.3,0-0.7,0-1c0-0.2-0.3-0.2-0.3,0c0,0.5,0,1,0,1.5c0,0.3,0,0.6,0.3,0.7
					C35.6,72.1,35.7,71.8,35.5,71.7L35.5,71.7z"/>
			</g>
		</g>
	</g>
	<g>
		<g>
			<g>
				<path class="st0" d="M43.7,70.9c-0.3-0.5-0.4-1-0.5-1.5c0-0.2-0.3-0.2-0.3,0c0.1,0.6,0.2,1.1,0.5,1.7
					C43.6,71.2,43.8,71,43.7,70.9L43.7,70.9z"/>
			</g>
		</g>
	</g>
	<g>
		<g>
			<g>
				<path class="st0" d="M43.8,70.6c0-0.2,0.1-0.3,0.1-0.5c-0.1,0-0.2,0.1-0.3,0.1c0.1,0.1,0.2,0.2,0.3,0.3c0.1,0.1,0.2,0,0.2-0.1
					c0.1-0.3,0.1-0.7,0-1c-0.1-0.2-0.4-0.1-0.3,0.1c0.1,0.3,0.1,0.6,0,0.8c0.1,0,0.2-0.1,0.2-0.1C44,70.1,43.9,70,43.9,70
					c-0.1-0.1-0.2,0-0.3,0.1c-0.1,0.2-0.1,0.3-0.1,0.5C43.4,70.7,43.7,70.8,43.8,70.6L43.8,70.6z"/>
			</g>
		</g>
	</g>
	<g>
		<g>
			<g>
				<path class="st0" d="M35.2,71.3c-0.2,0-0.3-0.1-0.3-0.3c0-0.1-0.1-0.2-0.2-0.2c-0.1,0-0.2,0.1-0.2,0.2c0,0.3,0.3,0.6,0.6,0.6
					C35.3,71.7,35.4,71.3,35.2,71.3L35.2,71.3z"/>
			</g>
		</g>
	</g>
	<g>
		<g>
			<g>
				<path class="st0" d="M37.7,65.9c-0.2-0.1-0.2-0.3,0-0.3C37.9,65.5,37.9,65.8,37.7,65.9c-0.2,0-0.2,0.3,0,0.3
					c0.3,0,0.5-0.2,0.5-0.5c0-0.3-0.2-0.4-0.4-0.5c-0.2,0-0.5,0.1-0.5,0.3c-0.1,0.2,0.1,0.5,0.3,0.6C37.7,66.2,37.9,65.9,37.7,65.9
					L37.7,65.9z"/>
			</g>
		</g>
	</g>
	<g>
		<g>
			<g>
				<path class="st0" d="M40.4,65.5c-0.1,0-0.1-0.2,0-0.2C40.5,65.3,40.5,65.4,40.4,65.5c-0.2,0.1-0.1,0.4,0.1,0.3
					c0.4-0.1,0.4-0.8-0.1-0.8s-0.5,0.6-0.1,0.8C40.5,65.8,40.6,65.5,40.4,65.5L40.4,65.5z"/>
			</g>
		</g>
	</g>
	<g>
		<g>
			<g>
				<path class="st0" d="M42.9,71.8C43,71.8,43,71.8,42.9,71.8c0.3-0.2,0.1-0.4-0.1-0.3c0,0-0.1,0-0.1,0.1
					C42.6,71.7,42.8,71.9,42.9,71.8L42.9,71.8z"/>
			</g>
		</g>
	</g>
	<g>
		<g>
			<g>
				<path class="st0" d="M44.4,72.3c0.2,0,0.2-0.3,0-0.3C44.2,72,44.2,72.3,44.4,72.3L44.4,72.3z"/>
			</g>
		</g>
	</g>
	<g>
		<g>
			<g>
				<path class="st0" d="M39.5,74.4c0.2,0,0.2-0.3,0-0.3S39.2,74.4,39.5,74.4L39.5,74.4z"/>
			</g>
		</g>
	</g>
	<g>
		<g>
			<g>
				<path class="st0" d="M36.5,73.8c0.1-0.7,1.2-1,1.7-0.6c0.4,0.3,0.6,0.9,0.7,1.4c0.1,0.2,0.4,0.1,0.3-0.1
					c-0.2-0.8-0.6-1.7-1.5-1.8c-0.8-0.1-1.5,0.3-1.6,1.1C36.1,74,36.4,74,36.5,73.8L36.5,73.8z"/>
			</g>
		</g>
	</g>
	<g>
		<g>
			<g>
				<path class="st0" d="M41.2,72c0.3-0.1,0.6-0.3,0.9-0.1c0.2,0.1,0.3,0.4,0.3,0.7c0.1,0.4-0.1,0.9-0.2,1.3c0,0.2,0.3,0.2,0.3,0
					c0.1-0.7,0.4-1.4-0.1-2c-0.4-0.5-0.9-0.4-1.4-0.2C40.9,71.8,41,72.1,41.2,72L41.2,72z"/>
			</g>
		</g>
	</g>
	<g>
		<g>
			<g>
				<path class="st0" d="M40.7,81.3c0-0.2,0.1-0.4,0.3-0.6c0.2-0.1,0-0.4-0.2-0.3c-0.3,0.2-0.4,0.5-0.4,0.8
					C40.4,81.5,40.7,81.5,40.7,81.3L40.7,81.3z"/>
			</g>
		</g>
	</g>
	<g>
		<g>
			<g>
				<path class="st0" d="M40.8,83c0.1-0.4,0.3-0.7,0.6-1c0.2-0.1-0.1-0.4-0.2-0.2c-0.3,0.3-0.6,0.7-0.7,1.1
					C40.4,83.1,40.7,83.2,40.8,83L40.8,83z"/>
			</g>
		</g>
	</g>
	<g>
		<g>
			<g>
				<path class="st0" d="M38.8,80c0.2-0.5,0.5-0.9,0.9-1.1c0.2-0.1,0-0.4-0.2-0.3c-0.5,0.3-0.9,0.8-1.1,1.3
					C38.4,80.1,38.7,80.2,38.8,80L38.8,80z"/>
			</g>
		</g>
	</g>
	<g>
		<g>
			<g>
				<path class="st0" d="M42.6,82.6c-0.3-0.6-0.5-1.3-0.5-2c-0.1-0.5,0.1-2.2,1-1.9c0.7,0.3,0.8,2,0.8,2.6c0,0.2,0.3,0.2,0.3,0
					c0-0.8-0.2-3-1.3-3c-0.7,0-1,0.9-1.1,1.4c-0.1,1,0.2,2,0.5,2.9C42.4,82.8,42.7,82.8,42.6,82.6L42.6,82.6z"/>
			</g>
		</g>
	</g>
	<g>
		<g>
			<g>
				<path class="st0" d="M40.4,77.3c0.5-0.5,3.6-0.9,3.6,0.2c0,0.2,0.3,0.2,0.3,0c-0.1-1.4-3.5-1.1-4.2-0.4
					C40.1,77.3,40.3,77.5,40.4,77.3L40.4,77.3z"/>
			</g>
		</g>
	</g>
	<g>
		<g>
			<g>
				<path class="st0" d="M41.9,85.3c0,0.4-0.1,3.6,0.8,3.4c0.4-0.1,0.4-1.3,0.5-1.7c0.2-1.1,0.3-2.1,0.2-3.2c0-0.2-0.3-0.2-0.3,0
					c0,1.3-0.1,2.6-0.4,3.9c0,0.1-0.2,0.7-0.2,0.7c-0.1-0.1-0.1-0.8-0.2-1c-0.1-0.7-0.1-1.4-0.2-2.1C42.2,85.1,41.9,85.1,41.9,85.3
					L41.9,85.3z"/>
			</g>
		</g>
	</g>
	<g>
		<g>
			<g>
				<path class="st0" d="M42.2,85.4c0-0.3,0.1-0.6,0.3-0.9c0.1-0.2,0.4-0.8,0.7-0.7c0.2,0.1,0.3-0.2,0.2-0.3
					c-0.4-0.3-0.7,0.1-0.9,0.4c-0.3,0.4-0.6,0.9-0.6,1.4C41.9,85.6,42.2,85.6,42.2,85.4L42.2,85.4z"/>
			</g>
		</g>
	</g>
	<g>
		<g>
			<g>
				<path class="st0" d="M46.5,83.2c0.1,0,0.1,0.1,0.1,0.1c0.2,0.1,0.4-0.1,0.2-0.2c-0.1,0-0.1-0.1-0.1-0.1
					C46.6,82.9,46.3,83.1,46.5,83.2L46.5,83.2z"/>
			</g>
		</g>
	</g>
	<g>
		<g>
			<g>
				<path class="st0" d="M46.5,83.2C46.5,83.2,46.6,83.2,46.5,83.2c0.2,0,0.2-0.3,0-0.3h0C46.3,82.9,46.3,83.2,46.5,83.2L46.5,83.2z
					"/>
			</g>
		</g>
	</g>
	<g>
		<g>
			<g>
				<path class="st0" d="M44.9,75.9c0.1,0,0.3,0.4,0.3,0.5c0.1,0.2,0.2,0.4,0.2,0.6c0.1,0.2,0.4,0.1,0.3-0.1
					c-0.1-0.3-0.2-0.6-0.3-0.8c-0.1-0.2-0.3-0.4-0.5-0.5C44.7,75.6,44.7,75.9,44.9,75.9L44.9,75.9z"/>
			</g>
		</g>
	</g>
	<g>
		<g>
			<g>
				<path class="st0" d="M36.5,78.3c0.2,0.3,0.4,0.5,0.7,0.6c0.2,0.1,0.3-0.2,0.1-0.3c-0.2-0.1-0.4-0.2-0.5-0.4
					C36.6,78,36.4,78.1,36.5,78.3L36.5,78.3z"/>
			</g>
		</g>
	</g>
	<g>
		<g>
			<g>
				<path class="st0" d="M40.1,77.3c-0.1,0.2,0,0.4,0.2,0.6c0.2,0.2,0.5,0.3,0.7,0.4c0.2,0.1,0.4-0.1,0.2-0.2
					c-0.2-0.1-0.3-0.2-0.5-0.3c-0.2-0.1-0.3-0.2-0.3-0.4C40.5,77.2,40.2,77.1,40.1,77.3L40.1,77.3z"/>
			</g>
		</g>
	</g>
	<g>
		<g>
			<g>
				<path class="st0" d="M44.2,77.9c0.2,0,0.2-0.3,0-0.3C44,77.6,44,77.9,44.2,77.9L44.2,77.9z"/>
			</g>
		</g>
	</g>
	<g>
		<g>
			<g>
				<path class="st0" d="M36,77.8c0.1,0.1,0.2,0.2,0.3,0.2c0.2,0.1,0.4-0.2,0.2-0.3c-0.1,0-0.1-0.1-0.2-0.1
					C36.2,77.5,35.9,77.6,36,77.8L36,77.8z"/>
			</g>
		</g>
	</g>
	<g>
		<g>
			<g>
				<path class="st0" d="M41.5,83C41.5,83,41.5,83,41.5,83c0.2,0.3,0.4,0.1,0.3-0.1c0,0,0-0.1-0.1-0.1C41.7,82.7,41.4,82.8,41.5,83
					L41.5,83z"/>
			</g>
		</g>
	</g>
	<g>
		<g>
			<g>
				<path class="st0" d="M51,98.9c0.2-1.1,0.6-2.2,1.2-3.2c-0.1,0-0.2-0.1-0.3-0.1c0,0.7,0.1,1.3,0.1,2c0,0.1,0.2,0.2,0.3,0.1
					c0.2-0.2,0.3-0.3,0.5-0.5c0.2-0.1-0.1-0.4-0.2-0.2c-0.2,0.2-0.3,0.3-0.5,0.5c0.1,0,0.2,0.1,0.3,0.1c0-0.7-0.1-1.3-0.1-2
					c0-0.2-0.2-0.2-0.3-0.1c-0.6,1-1,2.1-1.2,3.2C50.7,99,51,99.1,51,98.9L51,98.9z"/>
			</g>
		</g>
	</g>
	<g>
		<g>
			<g>
				<path class="st0" d="M46.8,76.1c2.5,2.6,5.7,4.2,9,5.6c4,1.7,7.9,3.5,11.8,5.1c1.7,0.7,3.3,1,5.1,0.8c1.8-0.3,3.6-0.8,5.3-1.4
					c3.3-1.2,6.5-2.7,9.5-4.7c3.4-2.2,6.5-5,9.1-8.1c0.1-0.2-0.1-0.4-0.2-0.2C90.8,79.8,83,84.9,74.3,86.9c-1.4,0.3-2.7,0.5-4.1,0.3
					c-1.3-0.2-2.5-0.8-3.7-1.3c-2.5-1.1-4.9-2.1-7.4-3.2c-4.2-1.8-8.9-3.4-12.1-6.9C46.9,75.7,46.7,75.9,46.8,76.1L46.8,76.1z"/>
			</g>
		</g>
	</g>
	<g>
		<g>
			<g>
				<path class="st0" d="M59,125.4c0.1,1.4,0.3,3,1.7,3.8c1.8,0.9,3.8-0.2,5.6-0.2c0.2,0,0.2-0.3,0-0.3c-1.4-0.1-2.7,0.5-4.1,0.5
					c-2.3-0.1-2.8-1.8-3-3.8C59.3,125.2,59,125.2,59,125.4L59,125.4z"/>
			</g>
		</g>
	</g>
	<g>
		<g>
			<g>
				<path class="st0" d="M73.3,128.8c2.3,0.8,5,1.2,7.4,0.5c2.2-0.7,3.6-2.4,4.9-4.2c0.1-0.2-0.2-0.3-0.3-0.2
					c-1.4,1.8-2.8,3.6-5.1,4.1c-2.2,0.5-4.7,0.2-6.8-0.6C73.2,128.4,73.1,128.7,73.3,128.8L73.3,128.8z"/>
			</g>
		</g>
	</g>
	<g>
		<g>
			<g>
				<path class="st0" d="M94.7,122.4c0.2,0.6,0.7,1.2,1.4,1.2c0.6,0,1.1-0.6,1-1.2c-0.1-0.2-0.4-0.1-0.3,0.1c0.1,0.6-0.5,0.9-1,0.8
					c-0.4-0.1-0.7-0.5-0.8-0.9C95,122.1,94.7,122.2,94.7,122.4L94.7,122.4z"/>
			</g>
		</g>
	</g>
	<g>
		<g>
			<g>
				<path class="st0" d="M99.2,79.8c0.2-0.1,0.5-0.1,0.7-0.2c-0.1-0.1-0.1-0.1-0.2-0.2c0.1,1.9,2.9,1,3.8,2c0.1,0.2,0.4-0.1,0.2-0.2
					c-0.4-0.5-0.9-0.6-1.5-0.7c-0.8-0.1-2.2,0-2.2-1.1c0-0.1-0.1-0.2-0.2-0.2c-0.2,0.1-0.5,0.1-0.7,0.2C98.9,79.5,99,79.8,99.2,79.8
					L99.2,79.8z"/>
			</g>
		</g>
	</g>
	<g>
		<g>
			<g>
				<path class="st0" d="M64.2,38.8c0.4,1.6,0.9,3.1,1.4,4.6c0.1,0.2,0.4,0.1,0.3-0.1c-0.6-1.5-1.1-3-1.4-4.6
					C64.4,38.6,64.1,38.6,64.2,38.8L64.2,38.8z"/>
			</g>
		</g>
	</g>
	<g>
		<g>
			<g>
				<path class="st0" d="M75,43.2c0.3-1.4,0.7-2.8,1-4.3c0.1-0.2-0.3-0.3-0.3-0.1c-0.3,1.4-0.7,2.8-1,4.3
					C74.6,43.4,74.9,43.5,75,43.2L75,43.2z"/>
			</g>
		</g>
	</g>
	<g>
		<g>
			<g>
				<path class="st0" d="M59.2,46c-0.6-0.9-1.2-1.8-1.9-2.6c-0.1-0.2-0.4,0.1-0.2,0.2c0.7,0.8,1.3,1.6,1.9,2.5
					C59,46.3,59.3,46.2,59.2,46L59.2,46z"/>
			</g>
		</g>
	</g>
	<g>
		<g>
			<g>
				<path class="st0" d="M55.9,48.3c-0.4-0.4-0.9-0.8-1.3-1.2c-0.2-0.1-0.4,0.1-0.2,0.2c0.4,0.4,0.9,0.8,1.3,1.2
					C55.8,48.7,56.1,48.4,55.9,48.3L55.9,48.3z"/>
			</g>
		</g>
	</g>
	<g>
		<g>
			<g>
				<path class="st0" d="M81.3,45.6c0.6-1.2,1.1-2.3,1.7-3.5c0.1-0.2-0.2-0.4-0.3-0.2c-0.6,1.2-1.1,2.3-1.7,3.5
					C80.9,45.7,81.2,45.8,81.3,45.6L81.3,45.6z"/>
			</g>
		</g>
	</g>
	<g>
		<g>
			<g>
				<path class="st0" d="M37.2,35.4c-0.6,0.4-1.2-0.4-0.7-0.9C37,34,37.7,34.8,37.2,35.4c-0.1,0.1,0.1,0.3,0.3,0.2
					c0.3-0.3,0.3-0.9,0.1-1.2c-0.3-0.4-0.8-0.4-1.2-0.1c-0.4,0.3-0.5,0.8-0.2,1.2c0.3,0.4,0.8,0.5,1.2,0.2
					C37.5,35.5,37.3,35.3,37.2,35.4L37.2,35.4z"/>
			</g>
		</g>
	</g>
	<g>
		<g>
			<g>
				<path class="st0" d="M49.2,21c-0.3,0-0.6-0.2-0.7-0.5c-0.1-0.3,0.2-0.5,0.4-0.6c0.6-0.2,0.9,0.6,0.5,1c-0.2,0.1,0.1,0.4,0.2,0.2
					c0.7-0.6,0.1-1.8-0.8-1.5c-0.4,0.1-0.7,0.5-0.6,0.9c0.1,0.5,0.5,0.8,1,0.8C49.4,21.3,49.4,20.9,49.2,21L49.2,21z"/>
			</g>
		</g>
	</g>
	<g>
		<g>
			<g>
				<path class="st0" d="M73.5,14.3c-0.6-0.2-0.5-1.2,0.2-1.1c0.8,0.1,0.6,1.3-0.1,1.3c-0.2,0-0.2,0.4,0,0.3c0.5-0.1,0.9-0.5,1-1
					c0.1-0.5-0.4-0.9-0.8-1c-0.5-0.1-0.9,0.2-1,0.7c-0.1,0.4,0.2,0.9,0.6,1C73.6,14.7,73.7,14.4,73.5,14.3L73.5,14.3z"/>
			</g>
		</g>
	</g>
	<g>
		<g>
			<g>
				<path class="st0" d="M90.4,16.7c-0.5-0.2-0.4-1,0.2-0.9c0.2,0,0.5,0.2,0.4,0.4c0,0.3-0.2,0.5-0.5,0.5c-0.2,0-0.2,0.3,0,0.3
					c0.4,0,0.8-0.4,0.8-0.8c0-0.4-0.3-0.7-0.7-0.8c-0.4-0.1-0.8,0.2-0.8,0.6c-0.1,0.4,0.2,0.8,0.5,0.9
					C90.5,17.1,90.6,16.8,90.4,16.7L90.4,16.7z"/>
			</g>
		</g>
	</g>
	<g>
		<g>
			<g>
				<path class="st0" d="M103.1,29.8c-0.1-0.3,0.1-0.6,0.4-0.7c0.3-0.1,0.5,0.1,0.6,0.4c0.2,0.6-0.6,0.8-0.9,0.4
					c-0.1-0.2-0.4,0-0.3,0.2c0.5,0.8,1.8,0.2,1.5-0.7c-0.2-0.4-0.6-0.7-1-0.5c-0.4,0.1-0.7,0.6-0.6,1
					C102.9,30.1,103.2,30,103.1,29.8L103.1,29.8z"/>
			</g>
		</g>
	</g>
	<g>
		<g>
			<g>
				<path class="st0" d="M96.9,72.7c-1.1,1.3-2.5,2.8-2.2,4.7c0.2,1.2,1,2.2,2.3,2.4c0.2,0,0.2-0.3,0-0.3c-1.6-0.2-2.2-1.9-1.9-3.3
					c0.3-1.3,1.2-2.2,2-3.2C97.3,72.8,97,72.5,96.9,72.7L96.9,72.7z"/>
			</g>
		</g>
	</g>
	<g>
		<g>
			<g>
				<path class="st0" d="M96.8,74.5c-0.8,0.5-1.2,1.4-1.1,2.3c0.1,0.6,0.7,1.8,1.4,1.2c0.2-0.1-0.1-0.4-0.2-0.2
					c-0.4,0.3-0.8-0.5-0.8-0.7c-0.1-0.3-0.1-0.6,0-0.9c0.1-0.6,0.4-1,0.9-1.3C97.1,74.7,96.9,74.4,96.8,74.5L96.8,74.5z"/>
			</g>
		</g>
	</g>
	<g>
		<g>
			<g>
				<path class="st0" d="M97.2,76.1c-0.5-0.1-1,0.3-0.9,0.8c0.1,0.2,0.2,0.4,0.4,0.5c0.1,0.1,0.2,0.1,0.4,0c0.2-0.1,0.3-0.3,0.4-0.4
					c0.2-0.1-0.1-0.4-0.2-0.2c-0.1,0.1-0.2,0.2-0.4,0.3c0,0,0.1,0,0.1-0.1c-0.2,0-0.4-0.2-0.4-0.5c0.1-0.2,0.3-0.3,0.5-0.3
					C97.3,76.4,97.4,76.1,97.2,76.1L97.2,76.1z"/>
			</g>
		</g>
	</g>
	<g>
		<g>
			<g>
				<path class="st0" d="M94.4,76.5c-1,1.3-2.2,2.3-3.6,3.1c-0.2,0.1,0,0.4,0.2,0.3c1.4-0.8,2.7-1.9,3.7-3.2
					C94.8,76.5,94.5,76.4,94.4,76.5L94.4,76.5z"/>
			</g>
		</g>
	</g>
	<g>
		<g>
			<g>
				<path class="st0" d="M94.6,78.1c-0.7,0.8-1.6,1.4-2.5,1.9c-0.2,0.1,0,0.4,0.2,0.3c1-0.5,1.8-1.2,2.6-1.9
					C94.9,78.2,94.7,77.9,94.6,78.1L94.6,78.1z"/>
			</g>
		</g>
	</g>
	<g>
		<g>
			<g>
				<path class="st0" d="M94.9,79c-0.3,0.4-0.6,0.7-0.9,1.1c-0.1,0.2,0.1,0.4,0.2,0.2c0.3-0.4,0.6-0.7,0.9-1.1
					C95.3,79,95,78.8,94.9,79L94.9,79z"/>
			</g>
		</g>
	</g>
	<g>
		<g>
			<g>
				<path class="st0" d="M97.7,108.2c0.2-0.6,0.3-1.2,0.4-1.8c0.1-0.2-0.3-0.3-0.3-0.1c-0.2,0.6-0.3,1.2-0.4,1.8
					C97.4,108.3,97.7,108.4,97.7,108.2L97.7,108.2z"/>
			</g>
		</g>
	</g>
	<g>
		<g>
			<g>
				<path class="st0" d="M48.9,84.6c0.4,1.7,0.6,3.4,0.7,5.1c0,0.2,0.3,0.2,0.3,0c-0.1-1.8-0.3-3.5-0.7-5.2
					C49.2,84.3,48.9,84.4,48.9,84.6L48.9,84.6z"/>
			</g>
		</g>
	</g>
	<g>
		<g>
			<g>
				<path class="st0" d="M101.4,91.3c0.2,1.8,0.2,3.7-0.1,5.5c-0.1,0.8-0.3,1.6-0.6,2.4c-0.1,0.4-0.3,0.9-0.4,1.3
					c-0.1,0.2-0.2,0.5-0.3,0.7c-0.3,0.7-0.8,0.8-1.8,0.5c-0.1-0.2-0.4-0.1-0.3,0.1c0.2,0.5,0.7,0.8,1.2,0.7c0.9-0.2,1.2-1.2,1.5-1.9
					c1.1-2.9,1.5-6.1,1.1-9.2C101.8,91.1,101.4,91.1,101.4,91.3L101.4,91.3z"/>
			</g>
		</g>
	</g>
	<g>
		<g>
			<g>
				<path class="st0" d="M59.7,37.7C59.7,37.7,59.7,37.7,59.7,37.7c0.3,0,0.3-0.3,0.1-0.3c0,0,0,0-0.1,0
					C59.5,37.4,59.5,37.7,59.7,37.7L59.7,37.7z"/>
			</g>
		</g>
	</g>
	<g>
		<g>
			<g>
				<path class="st0" d="M57.4,39c0.1,0.1,0.1,0.3,0.2,0.4c0.1,0.2,0.4,0.1,0.3-0.1c-0.1-0.1-0.1-0.3-0.2-0.4
					C57.6,38.8,57.3,38.8,57.4,39L57.4,39z"/>
			</g>
		</g>
	</g>
	<g>
		<g>
			<g>
				<path class="st0" d="M61.2,36.5c0.1,0,0.1,0,0.1,0.1c0.1,0.2,0.4-0.1,0.2-0.2c-0.1-0.1-0.2-0.2-0.4-0.2
					C61,36.2,61,36.6,61.2,36.5L61.2,36.5z"/>
			</g>
		</g>
	</g>
	<g>
		<g>
			<g>
				<path class="st0" d="M71.6,33.6c-0.1,0.1-0.1,0.2-0.1,0.4c0.1,0.2,0.4,0.1,0.3-0.1c0-0.1,0-0.1,0-0.1
					C72,33.5,71.7,33.4,71.6,33.6L71.6,33.6z"/>
			</g>
		</g>
	</g>
	<g>
		<g>
			<g>
				<path class="st0" d="M81.1,36.4c-0.1,0.1-0.1,0.3-0.1,0.4c-0.1,0.2,0.2,0.3,0.3,0.1c0.1-0.1,0.1-0.3,0.1-0.4
					C81.5,36.3,81.2,36.2,81.1,36.4L81.1,36.4z"/>
			</g>
		</g>
	</g>
	<g>
		<g>
			<g>
				<path class="st0" d="M53.5,50.9c0,0,0.1,0,0.1,0.1c0.2,0.1,0.3-0.2,0.2-0.3c0,0-0.1,0-0.1-0.1C53.5,50.6,53.3,50.8,53.5,50.9
					L53.5,50.9z"/>
			</g>
		</g>
	</g>
	<g>
		<g>
			<g>
				<path class="st0" d="M70.1,46.4c0.2-0.4,0.3-0.8,0.5-1.1c0.1-0.2-0.2-0.3-0.3-0.1c-0.2,0.4-0.3,0.8-0.5,1.1
					C69.7,46.6,70,46.7,70.1,46.4L70.1,46.4z"/>
			</g>
		</g>
	</g>
	<g>
		<g>
			<g>
				<path class="st0" d="M69.4,45.9c0.4-0.3,0.7-0.5,1.1-0.7c0.2-0.1,0-0.4-0.2-0.3c-0.4,0.2-0.7,0.4-1.1,0.7
					C69.1,45.7,69.2,46,69.4,45.9L69.4,45.9z"/>
			</g>
		</g>
	</g>
	<g>
		<g>
			<g>
				<path class="st0" d="M70.2,45.2c0.3,0.5,0.6,0.9,0.9,1.3c0.1,0.2,0.4-0.1,0.2-0.2c-0.3-0.4-0.6-0.8-0.9-1.2
					C70.4,44.8,70.1,45,70.2,45.2L70.2,45.2z"/>
			</g>
		</g>
	</g>
	<g>
		<g>
			<g>
				<path class="st0" d="M70.2,45.3c0.4,0.6,1,0.9,1.7,1.1c0.2,0.1,0.3-0.3,0.1-0.3c-0.6-0.1-1.1-0.4-1.5-0.9
					C70.3,44.9,70.1,45.1,70.2,45.3L70.2,45.3z"/>
			</g>
		</g>
	</g>
	<g>
		<g>
			<g>
				<path class="st0" d="M53.4,52.1c0.1,0,0.2-0.1,0.3-0.1c0.2-0.1,0.1-0.4-0.1-0.3c-0.1,0-0.2,0.1-0.3,0.1
					C53.2,51.8,53.3,52.1,53.4,52.1L53.4,52.1z"/>
			</g>
		</g>
	</g>
	<g>
		<g>
			<g>
				<path class="st0" d="M52.5,53c0.3-0.3,0.6-0.6,0.8-0.8c0.2-0.2-0.1-0.4-0.2-0.2c-0.3,0.3-0.6,0.6-0.8,0.8
					C52.1,52.9,52.4,53.1,52.5,53L52.5,53z"/>
			</g>
		</g>
	</g>
	<g>
		<g>
			<g>
				<path class="st0" d="M89.7,49c0-0.1,0.1-0.1,0.1-0.2c0.1-0.2-0.2-0.3-0.3-0.2c0,0.1-0.1,0.1-0.1,0.2
					C89.4,49.1,89.7,49.2,89.7,49L89.7,49z"/>
			</g>
		</g>
	</g>
	<g>
		<g>
			<g>
				<path class="st0" d="M89.6,49.1c0.1-0.1,0.1-0.2,0.2-0.3c0.1-0.2-0.2-0.4-0.3-0.2c-0.1,0.1-0.1,0.2-0.2,0.3
					C89.3,49.2,89.5,49.3,89.6,49.1L89.6,49.1z"/>
			</g>
		</g>
	</g>
	<g>
		<g>
			<g>
				<path class="st0" d="M43.7,114.2c-1.1,0.2-2.2,0.5-3.3,0.7c-0.1,0-0.1,0.1-0.1,0.2c-0.1,4.1-0.2,8.1-0.2,12.2
					c0,0.2,0.3,0.2,0.3,0c0.1-2.5,0.1-5,0.2-7.6c0-1.2-0.2-2.5,0.1-3.7c0.2-0.9,0.4-0.9,1.3-1.1c0.6-0.1,1.2-0.3,1.9-0.4
					C44,114.4,43.9,114.1,43.7,114.2L43.7,114.2z"/>
			</g>
		</g>
	</g>
	<g>
		<g>
			<g>
				<path class="st0" d="M39.9,122.9c-2,0.1-3.9,0.1-5.8-0.2c-0.1,0-0.2,0.1-0.2,0.2c0.3,1.6,0.4,3.1,0.3,4.7c0,0.2,0.3,0.2,0.3,0
					c0.1-0.9,0.1-1.7,0-2.6c0-0.5-0.4-1.6,0-1.9c0.2-0.1,1.1,0.1,1.4,0.1c0.5,0,0.9,0.1,1.4,0.1c0.9,0,1.8,0,2.7-0.1
					C40.1,123.2,40.1,122.9,39.9,122.9L39.9,122.9z"/>
			</g>
		</g>
	</g>
	<g>
		<g>
			<g>
				<path class="st0" d="M33.9,126c-2.3-0.2-4.5-0.3-6.8-0.5c-0.1,0-0.2,0.1-0.2,0.2c0.2,0.7,0.3,1.3,0.3,1.9c0,0.2,0.3,0.2,0.3,0
					c0-0.4-0.2-1.1-0.1-1.4c0.2-0.6,1.3-0.3,1.9-0.2c1.5,0.1,3.1,0.2,4.6,0.3C34.1,126.3,34.1,126,33.9,126L33.9,126z"/>
			</g>
		</g>
	</g>
	<g>
		<g>
			<g>
				<path class="st0" d="M30.1,116.2c0.3,3.3,0.3,6.5,0,9.8c0,0.2,0.3,0.2,0.3,0c0.2-3.3,0.2-6.5,0-9.8
					C30.4,116,30.1,116,30.1,116.2L30.1,116.2z"/>
			</g>
		</g>
	</g>
	<g>
		<g>
			<g>
				<path class="st0" d="M30.7,116c1-0.3,2-0.4,3-0.4c0.5,0,0.9,0,1.3,0.1c1.1,0.1,1.4,0.4,1.4,1.4c0,2-0.1,3.9-0.3,5.9
					c0,0.2,0.3,0.2,0.3,0c0.1-1.4,0.2-2.8,0.3-4.2c0-0.8,0.4-2.4-0.2-3c-0.4-0.5-1.6-0.4-2.2-0.4c-1.3-0.1-2.5,0.1-3.8,0.4
					C30.4,115.7,30.5,116,30.7,116L30.7,116z"/>
			</g>
		</g>
	</g>
	<g>
		<g>
			<g>
				<path class="st0" d="M99,114.4c1.6-0.1,3.3-0.2,4.9-0.3c0.8-0.1,1.6-0.2,2.4-0.1c0.6,0,1.2,0,1.3,0.7c0.1,0.4,0,0.9,0,1.3
					c-0.1,3.3-0.1,6.5-0.2,9.8c0,0.2,0.3,0.2,0.3,0c0.1-2,0.1-4.1,0.1-6.1c0-1.1,0.1-2.1,0.1-3.2c0-0.7,0.2-1.5,0-2.1
					c-0.4-1.1-1.7-0.6-2.6-0.6c-2.1,0.1-4.2,0.2-6.4,0.4C98.8,114.1,98.8,114.4,99,114.4L99,114.4z"/>
			</g>
		</g>
	</g>
	<g>
		<g>
			<g>
				<path class="st0" d="M107.8,122.9c0.7-0.2,1.4-0.4,2.2-0.5c0.6-0.1,2-0.5,2.6-0.3c0.8,0.3,0.6,1.5,0.6,2.1c0,0.8,0,1.6,0,2.4
					c0,0.2,0.3,0.2,0.3,0c0-1.1,0-2.1,0-3.2c0-0.5,0.2-1.2-0.4-1.6c-0.6-0.4-1.7,0-2.3,0c-1,0.1-2,0.3-3,0.6
					C107.5,122.7,107.6,123,107.8,122.9L107.8,122.9z"/>
			</g>
		</g>
	</g>
	<g>
		<g>
			<g>
				<path class="st0" d="M110.2,119.1c0.2,0.9,0.3,1.9,0.3,2.8c0,0.2,0.3,0.2,0.3,0c0-1-0.2-1.9-0.3-2.9
					C110.4,118.8,110.1,118.9,110.2,119.1L110.2,119.1z"/>
			</g>
		</g>
	</g>
	<g>
		<g>
			<g>
				<path class="st0" d="M110.4,119.3c1.3-0.1,2.7-0.2,4-0.3c0.7-0.1,1.3-0.1,2-0.1c0.3,0,0.7-0.1,1-0.1c0.4-0.2,0.7,0,0.9,0.4
					c0.7,0.9,0.1,2.8,0,3.9c-0.2,1.3-0.3,2.7-0.4,4c0,0.2,0.3,0.2,0.3,0c0.2-1.7,0.4-3.3,0.5-5c0.1-0.8,0.8-2.9,0-3.5
					c-0.6-0.5-2.3-0.1-3,0c-1.7,0.1-3.5,0.2-5.2,0.3C110.2,119,110.2,119.3,110.4,119.3L110.4,119.3z"/>
			</g>
		</g>
	</g>
	<g>
		<g>
			<g>
				<path class="st0" d="M101.2,117.1c-0.5-0.2-0.2-1.1,0.4-0.8c0.7,0.3,0.2,1.2-0.4,1c-0.2-0.1-0.3,0.3-0.1,0.3
					c0.4,0.1,0.9-0.1,1.1-0.5c0.2-0.4-0.1-0.9-0.5-1.1c-0.4-0.2-0.8,0-1,0.4c-0.2,0.4,0,0.8,0.4,1
					C101.2,117.4,101.4,117.2,101.2,117.1L101.2,117.1z"/>
			</g>
		</g>
	</g>
	<g>
		<g>
			<g>
				<path class="st0" d="M104.2,117.1c-0.4-0.4,0.2-1.1,0.7-0.8c0.6,0.4,0.1,1.1-0.5,0.9c-0.2-0.1-0.3,0.2-0.1,0.3
					c0.4,0.2,0.9-0.1,1.1-0.4c0.2-0.4,0-0.8-0.3-1c-0.8-0.5-1.6,0.6-1,1.3C104.1,117.5,104.3,117.3,104.2,117.1L104.2,117.1z"/>
			</g>
		</g>
	</g>
	<g>
		<g>
			<g>
				<path class="st0" d="M101.3,121.3c-0.2-0.6,0.6-1.1,1-0.5c0.4,0.6-0.4,1.1-0.9,0.7c-0.2-0.1-0.4,0.1-0.2,0.2
					c0.8,0.6,1.9-0.2,1.4-1.1c-0.2-0.4-0.7-0.6-1.1-0.4c-0.4,0.2-0.7,0.7-0.5,1.1C101.1,121.6,101.4,121.5,101.3,121.3L101.3,121.3z
					"/>
			</g>
		</g>
	</g>
	<g>
		<g>
			<g>
				<path class="st0" d="M104.1,121.5c-0.1-0.5,0.7-0.8,1-0.5c0.4,0.4-0.3,1.1-0.7,0.9c-0.2-0.1-0.3,0.2-0.2,0.3
					c0.8,0.4,1.7-0.7,1.1-1.4c-0.6-0.6-1.7,0-1.6,0.8C103.9,121.8,104.2,121.7,104.1,121.5L104.1,121.5z"/>
			</g>
		</g>
	</g>
	<g>
		<g>
			<g>
				<path class="st0" d="M112.3,121c-0.4-0.3,0.2-0.9,0.6-0.8c0.5,0.2,0.5,0.8,0.4,1.2c-0.1,0.2,0.2,0.3,0.3,0.1
					c0.3-0.6-0.1-1.7-0.9-1.7c-0.7,0.1-1.1,1-0.5,1.4C112.3,121.4,112.5,121.1,112.3,121L112.3,121z"/>
			</g>
		</g>
	</g>
	<g>
		<g>
			<g>
				<path class="st0" d="M116.2,122.2c-0.8-0.3-1-1.6,0-1.7c0.4-0.1,0.8,0.2,0.9,0.6c0.1,0.4-0.1,0.8-0.2,1.2
					c-0.1,0.2,0.3,0.3,0.3,0.1c0.2-0.6,0.4-1.3,0-1.8c-0.3-0.4-0.8-0.6-1.3-0.4c-1.2,0.4-0.9,1.9,0.2,2.3
					C116.3,122.5,116.4,122.2,116.2,122.2L116.2,122.2z"/>
			</g>
		</g>
	</g>
	<g>
		<g>
			<g>
				<path class="st0" d="M115.2,126c-0.3-0.1-0.4-0.4-0.4-0.7c0.1-0.4,0.4-0.6,0.7-0.6c0.9,0,1.1,1,0.8,1.6
					c-0.1,0.2,0.2,0.3,0.3,0.2c0.5-0.9-0.1-2.3-1.2-2c-1,0.2-1.1,1.5-0.2,1.9C115.3,126.3,115.4,126,115.2,126L115.2,126z"/>
			</g>
		</g>
	</g>
	<g>
		<g>
			<g>
				<path class="st0" d="M31.7,119.8c-0.3-0.9-0.3-1.8,0-2.6c-0.1,0-0.2,0-0.3,0c0.4,0.8,0.5,1.6,0.3,2.4c-0.1,0.2,0.3,0.3,0.3,0.1
					c0.2-0.9,0.1-1.8-0.4-2.6c-0.1-0.1-0.3-0.1-0.3,0c-0.3,0.9-0.3,1.9,0,2.8C31.4,120.1,31.7,120,31.7,119.8L31.7,119.8z"/>
			</g>
		</g>
	</g>
	<g>
		<g>
			<g>
				<path class="st0" d="M34.3,119.3c-0.4-0.8-0.3-1.6,0.2-2.3c-0.1,0-0.2,0-0.3,0c0.3,0.9,0.2,1.7-0.1,2.6
					c-0.1,0.2,0.2,0.3,0.3,0.1c0.3-0.9,0.4-1.8,0.1-2.7c-0.1-0.1-0.2-0.2-0.3,0c-0.5,0.8-0.6,1.7-0.2,2.6
					C34.1,119.7,34.4,119.5,34.3,119.3L34.3,119.3z"/>
			</g>
		</g>
	</g>
	<g>
		<g>
			<g>
				<path class="st0" d="M31.9,124.7c-0.4-0.9-0.3-1.8,0.1-2.6c-0.1,0-0.2,0-0.3,0c0.5,0.7,0.6,1.5,0.2,2.3
					c-0.1,0.2,0.2,0.4,0.3,0.2c0.4-0.9,0.3-1.8-0.2-2.6c-0.1-0.1-0.2-0.1-0.3,0c-0.4,0.9-0.5,1.9-0.1,2.9
					C31.7,124.9,32,124.9,31.9,124.7L31.9,124.7z"/>
			</g>
		</g>
	</g>
	<g>
		<g>
			<g>
				<path class="st0" d="M31.1,112.1c-0.1,0.9,0,1.8,0.3,2.7c0.1,0.2,0.4,0.1,0.3-0.1c-0.3-0.9-0.3-1.7-0.2-2.6
					C31.4,111.9,31.1,111.9,31.1,112.1L31.1,112.1z"/>
			</g>
		</g>
	</g>
	<g>
		<g>
			<g>
				<path class="st0" d="M29.9,114.1c0.6-0.2,1.2-0.4,1.8-0.6c0.2-0.1,0.1-0.4-0.1-0.3c-0.6,0.2-1.2,0.4-1.8,0.6
					C29.6,113.9,29.7,114.2,29.9,114.1L29.9,114.1z"/>
			</g>
		</g>
	</g>
	<g>
		<g>
			<g>
				<path class="st0" d="M30.5,114.5c0.6-0.2,1.1-0.4,1.6-0.6c0.2-0.1,0.1-0.4-0.1-0.3c-0.6,0.2-1.1,0.4-1.6,0.6
					C30.2,114.3,30.3,114.6,30.5,114.5L30.5,114.5z"/>
			</g>
		</g>
	</g>
	<g>
		<g>
			<g>
				<path class="st0" d="M103,110.3c-0.6,0.2-1.1,0.6-1.5,1c-0.3,0.3-0.8,0.9-0.5,1.3c0.3,0.4,0.9,0.3,1.3,0.2
					c0.6-0.2,1.1-0.6,1.4-1.1c0.1-0.1,0-0.2-0.1-0.2c-0.6-0.3-1.2-0.2-1.6,0.3c-0.1,0.2,0.1,0.4,0.2,0.2c0.3-0.4,0.8-0.5,1.2-0.3
					c0-0.1,0-0.2-0.1-0.2c-0.2,0.4-0.5,0.6-0.9,0.8c-0.3,0.2-1.4,0.5-1.2-0.3c0.1-0.3,0.5-0.7,0.7-0.9c0.3-0.3,0.7-0.5,1.1-0.6
					C103.3,110.5,103.2,110.2,103,110.3L103,110.3z"/>
			</g>
		</g>
	</g>
	<g>
		<g>
			<g>
				<path class="st0" d="M102.8,112c-0.4,0.5-0.5,1.2-0.3,1.8c0.1,0.2,0.4,0.1,0.3-0.1c-0.2-0.5-0.1-1.1,0.2-1.5
					C103.1,112.1,102.9,111.8,102.8,112L102.8,112z"/>
			</g>
		</g>
	</g>
	<g>
		<g>
			<g>
				<path class="st0" d="M110.4,118.5c1.9-0.5,3.8-0.8,5.7-0.8c0.2,0,0.2-0.3,0-0.3c-2,0-3.9,0.2-5.8,0.8
					C110.2,118.3,110.2,118.6,110.4,118.5L110.4,118.5z"/>
			</g>
		</g>
	</g>
	<g>
		<g>
			<g>
				<path class="st0" d="M110.5,117.2c0.1,0.6,0.2,1.1,0.3,1.6c0.1,0.2,0.4,0.1,0.3-0.1c-0.1-0.6-0.2-1.1-0.3-1.6
					C110.8,117,110.5,117,110.5,117.2L110.5,117.2z"/>
			</g>
		</g>
	</g>
	<g>
		<g>
			<g>
				<path class="st0" d="M112.3,117.2c-0.1,0.5-0.1,0.9,0.2,1.4c0.1,0.2,0.4,0,0.3-0.2c-0.2-0.4-0.2-0.7-0.1-1.1
					C112.7,117.1,112.4,117,112.3,117.2L112.3,117.2z"/>
			</g>
		</g>
	</g>
	<g>
		<g>
			<g>
				<path class="st0" d="M113.7,117.2c0,0.5,0,1,0,1.4c0,0.2,0.3,0.2,0.3,0c0-0.5,0-1,0-1.4C114,117,113.7,117,113.7,117.2
					L113.7,117.2z"/>
			</g>
		</g>
	</g>
	<g>
		<g>
			<g>
				<path class="st0" d="M115.1,117.4c-0.1,0.4-0.3,0.8-0.4,1.2c-0.1,0.2,0.3,0.3,0.3,0.1c0.1-0.4,0.3-0.8,0.4-1.2
					C115.5,117.2,115.2,117.2,115.1,117.4L115.1,117.4z"/>
			</g>
		</g>
	</g>
	<g>
		<g>
			<g>
				<path class="st0" d="M116.2,117c0,0.5,0,1,0,1.4c0,0.2,0.3,0.2,0.3,0c0-0.5,0-1,0-1.4C116.5,116.8,116.2,116.8,116.2,117
					L116.2,117z"/>
			</g>
		</g>
	</g>
	<g>
		<g>
			<g>
				<path class="st0" d="M24.6,123.1c-0.1,1.7-0.2,3.4-0.2,5.1c0,0.2,0.3,0.2,0.3,0c0.1-1.7,0.2-3.4,0.2-5.1
					C24.9,122.9,24.6,122.9,24.6,123.1L24.6,123.1z"/>
			</g>
		</g>
	</g>
	<g>
		<g>
			<g>
				<path class="st0" d="M23.5,126.2c-1.3,0.1-1-2.8,0.1-1.8c0.1,0.1,0.4-0.1,0.3-0.2c-0.7-1,0.5-2,1.4-1.5c0.9,0.5,1.2,2,0.2,2.5
					c-0.1,0.1-0.1,0.2-0.1,0.2c0.2,0.5,0.6,1-0.1,1.2c-0.2,0.1,0,0.4,0.2,0.3c0.3-0.1,0.4-0.2,0.6-0.4c0.1-0.1,0.1-0.1,0-0.2
					c-0.1-0.2-0.4-0.6-0.3-0.8c0-0.2,0.3-0.3,0.4-0.4c0.2-0.2,0.3-0.5,0.3-0.8c0.1-0.8-0.4-1.6-1.1-1.9c-1.2-0.6-2.6,0.9-1.8,2
					c0.1-0.1,0.2-0.1,0.3-0.2c-0.5-0.5-1.3-0.2-1.5,0.4c-0.3,0.7,0.4,2,1.2,1.9C23.7,126.5,23.7,126.2,23.5,126.2L23.5,126.2z"/>
			</g>
		</g>
	</g>
	<g>
		<g>
			<g>
				<path class="st0" d="M109.5,126.9c-0.3-0.2-0.4-0.6-0.2-0.9c0.3-0.3,0.8-0.3,1.1-0.1c0.3,0.1,0.5,0.3,0.7,0.5
					c0.1,0.1,1,1,0.4,1.1c-0.2,0.1-0.1,0.4,0.1,0.3c0.5-0.1,0.5-0.7,0.3-1.1c-0.4-0.5-1-1.1-1.7-1.2c-0.5-0.1-1.1,0.1-1.3,0.6
					c-0.2,0.4,0,1,0.4,1.1C109.6,127.2,109.7,127,109.5,126.9L109.5,126.9z"/>
			</g>
		</g>
	</g>
	<g>
		<g>
			<g>
				<path class="st0" d="M119.3,127.4c-0.2-0.5-0.2-1-0.2-1.6c0-0.2,0.1-0.4,0.1-0.6c0.2-0.7,0.3-0.8,0.4-0.2c0,0.1,0.1,0.2,0.2,0.2
					c0.3,0,2.1-0.2,1.7,0.5c-0.1,0.1,0,0.2,0.1,0.2c0.7,0.1,0.9,0.6,0.7,1.5c-0.2,0.1-0.1,0.4,0.1,0.3c0.5-0.2,1.1-0.2,1.6,0.1
					c0.7,0.4,0.7,1.3-0.4,1.4c-0.6,0-1.4-0.2-2-0.3c-0.2,0-0.3,0.3-0.1,0.3c0.7,0.1,3.4,1.1,3.4-0.3c0.1-1.4-1.7-1.7-2.7-1.4
					c0,0.1,0.1,0.2,0.1,0.3c0.5-0.2,0.7-0.6,0.6-1c-0.1-0.6-0.8-0.7-1.1-1.1c-0.1-0.2-0.1-0.4-0.3-0.6c-0.2-0.2-0.5-0.3-0.8-0.3
					c-0.2,0-0.4,0.1-0.5,0.1c-1.1-0.1,0.1,0.2-0.4-0.2c-0.2-0.2-0.2-0.3-0.4-0.5c-0.1-0.1-0.2,0-0.2,0.1c-0.6,1-0.8,2.1-0.5,3.3
					C119.1,127.7,119.4,127.6,119.3,127.4L119.3,127.4z"/>
			</g>
		</g>
	</g>
	<g>
		<g>
			<g>
				<path class="st0" d="M100.5,125.3c-0.5-0.5-0.4-0.8,0.3-1c0.4-0.5,0.7-0.4,0.9,0.1c0.1,0.1,0.2,0.1,0.3,0
					c0.5-0.5,0.9-0.2,1.2,0.7c0,0.1,0.1,0.2,0.2,0.2c0.6-0.2,1.1-0.1,1.5,0.5c0.1,0.2,0.4,0,0.3-0.2c-0.5-0.6-1.1-0.9-1.9-0.6
					c0.1,0.1,0.1,0.1,0.2,0.2c0.2-1.1-0.9-1.7-1.8-1c0.1,0,0.2,0,0.3,0c-0.8-1.6-3,0-1.7,1.2C100.4,125.7,100.6,125.5,100.5,125.3
					L100.5,125.3z"/>
			</g>
		</g>
	</g>
	<g>
		<g>
			<g>
				<path class="st0" d="M97.7,126.6c0.6,0.2,1.3,0.2,1.9,0.1c0.2,0,0.1-0.3-0.1-0.3c-0.6,0.1-1.2,0.1-1.8-0.1
					C97.6,126.2,97.5,126.5,97.7,126.6L97.7,126.6z"/>
			</g>
		</g>
	</g>
	<g>
		<g>
			<g>
				<path class="st0" d="M104.9,127.5c0.8,0,1.5,0,2.2,0c0.2,0,0.2-0.3,0-0.3c-0.8,0-1.5,0-2.2,0
					C104.7,127.2,104.7,127.5,104.9,127.5L104.9,127.5z"/>
			</g>
		</g>
	</g>
	<g>
		<g>
			<g>
				<path class="st0" d="M38.6,128.7c1.4-0.4,2.8-0.5,4.3-0.3c0.2,0,0.2-0.3,0-0.3c-1.5-0.1-2.9,0-4.3,0.4
					C38.3,128.5,38.4,128.8,38.6,128.7L38.6,128.7z"/>
			</g>
		</g>
	</g>
	<g>
		<g>
			<g>
				<path class="st0" d="M42.7,127.2c-1.1-0.5-1-1.1,0.4-1.6c0.1,0.1,0.3,0.1,0.3,0c0.1-1,0.8-1.1,2.1-0.5c0.1,0.1,0.1,0.2,0.2,0.2
					c0.1,0,0.4,0.2,0.5,0.3c0.1,0,0.2,0,0.3,0c0.5,0.2,0.7,0.5,0.6,0.9c0.1,0.4,0,1-0.1,1.4c0,0.2,0.3,0.2,0.3,0
					c0-0.6,0.3-1.8,0-2.3c-0.2-0.2-0.3-0.2-0.5-0.3c-0.4-0.2-0.7-0.3-1.1-0.6c-1-0.8-2.3-0.6-2.5,0.8c0.1,0,0.2,0,0.3,0
					c-0.5-0.7-1.3-0.5-1.6,0.3c-0.3,0.8,0.1,1.8,1,1.8C42.9,127.6,42.9,127.2,42.7,127.2L42.7,127.2z"/>
			</g>
		</g>
	</g>
	<g>
		<g>
			<g>
				<path class="st0" d="M31,129c0.7-0.7,1.9-0.2,1.8,0.8c0,0.2,0.3,0.2,0.3,0c0.1-1.3-1.5-1.9-2.4-1.1
					C30.7,128.9,30.9,129.2,31,129L31,129z"/>
			</g>
		</g>
	</g>
	<g>
		<g>
			<g>
				<path class="st0" d="M26.2,130.2c1.4,0.1,2.7,0,4.1-0.2c0.2,0,0.1-0.3-0.1-0.3c-1.3,0.2-2.7,0.3-4,0.2
					C26,129.9,26,130.2,26.2,130.2L26.2,130.2z"/>
			</g>
		</g>
	</g>
	<g>
		<g>
			<g>
				<path class="st0" d="M34.4,130.2c0.3-0.1,0.7-0.1,1-0.2c0.2-0.1,0.1-0.4-0.1-0.3c-0.3,0.1-0.7,0.1-1,0.2
					C34.1,130,34.2,130.3,34.4,130.2L34.4,130.2z"/>
			</g>
		</g>
	</g>
	<g>
		<g>
			<g>
				<path class="st0" d="M17.8,129.2c1.6,0.1,3.3,0,4.9-0.2c0.2,0,0.2-0.3,0-0.3c-1.6,0.2-3.3,0.3-4.9,0.2
					C17.6,128.9,17.6,129.2,17.8,129.2L17.8,129.2z"/>
			</g>
		</g>
	</g>
	<g>
		<g>
			<g>
				<path class="st0" d="M122.4,125.6c0.8,0.2,1.5,0.3,2.3,0.2c0.2,0,0.2-0.4,0-0.3c-0.8,0.1-1.5,0.1-2.2-0.2
					C122.3,125.2,122.2,125.5,122.4,125.6L122.4,125.6z"/>
			</g>
		</g>
	</g>
</g>
</svg>
