<?xml version="1.0" encoding="utf-8"?>
<!-- Generator: Adobe Illustrator 24.0.1, SVG Export Plug-In . SVG Version: 6.00 Build 0)  -->
<svg version="1.1" id="Layer_1" xmlns="http://www.w3.org/2000/svg" xmlns:xlink="http://www.w3.org/1999/xlink" x="0px" y="0px"
	 viewBox="0 0 141.7 141.7" style="enable-background:new 0 0 141.7 141.7;" xml:space="preserve">
<style type="text/css">
	.st0{fill:#070707;}
</style>
<g id="Layer_1_1_">
</g>
<g id="Layer_1_2_">
</g>
<g id="Layer_1_3_">
</g>
<g id="Layer_1_4_">
</g>
<g id="Layer_1_5_">
</g>
<g id="Layer_3">
</g>
<g id="Layer_3_1_">
</g>
<g id="Layer_1_6_">
</g>
<g id="Layer_1_7_">
</g>
<g id="Layer_1_8_">
</g>
<g id="Layer_1_9_">
</g>
<g id="Layer_1_10_">
</g>
<g id="Layer_2_1_">
	<g>
		<g>
			<g>
				<g>
					<path class="st0" d="M47.2,100c-0.1,2-0.3,3.9-0.5,5.9c-0.1,0.4,0.6,0.4,0.6,0c0.2-2,0.4-3.9,0.5-5.9
						C47.8,99.6,47.2,99.6,47.2,100L47.2,100z"/>
				</g>
			</g>
		</g>
		<g>
			<g>
				<g>
					<path class="st0" d="M52.7,53.1c-7.8,8.3-6.1,20.4-5.5,30.7c0,0.4,0.7,0.4,0.6,0c-0.5-10.1-2.3-22.2,5.3-30.3
						C53.4,53.3,53,52.8,52.7,53.1L52.7,53.1z"/>
				</g>
			</g>
		</g>
		<g>
			<g>
				<g>
					<path class="st0" d="M93.9,55.9c-1.1-1.8-2.5-3.4-4.1-4.7c-0.3-0.3-0.8,0.2-0.5,0.5c1.6,1.3,3,2.9,4,4.6
						C93.5,56.6,94.1,56.3,93.9,55.9L93.9,55.9z"/>
				</g>
			</g>
		</g>
		<g>
			<g>
				<g>
					<path class="st0" d="M47.9,62.3c-3.9-0.3-6.2-4.5-3.7-7.7c1-1.3,2.4-2.1,3.9-2.4c1.6-0.3,3.7-0.2,4.8,1.1
						c0.3,0.3,0.7-0.2,0.5-0.5c-1.2-1.5-3.5-1.6-5.3-1.3c-1.9,0.3-3.7,1.5-4.7,3.1c-2.4,3.7,0.4,8,4.5,8.3
						C48.3,63,48.3,62.4,47.9,62.3L47.9,62.3z"/>
				</g>
			</g>
		</g>
		<g>
			<g>
				<g>
					<path class="st0" d="M90.3,52c2.7-1.4,7-2.1,8.9,0.8c1.9,3,0.8,7.7-3,8.3c-0.4,0.1-0.2,0.7,0.2,0.6c4.1-0.8,5.4-5.7,3.5-9
						c-2-3.5-6.8-2.9-9.9-1.3C89.6,51.6,89.9,52.2,90.3,52L90.3,52z"/>
				</g>
			</g>
		</g>
		<g>
			<g>
				<g>
					<path class="st0" d="M68.7,66.9c0.1,0,0.2,0,0.2,0c0-0.1,0-0.2-0.1-0.3c-1,0.4-1.8,0.8-2.6,1.6c-0.6,0.6-1.2,1.5-1,2.4
						c0.2,1,1.4,1.5,2.3,1.7c1.8,0.3,3.5-0.8,5.3-0.8c1.8,0,5.3,2.1,5.7-1.1c0.3-2.3-2.6-3.5-4.3-4.1c-0.2-0.1-0.3,0.2-0.1,0.3
						c1.6,0.6,4.3,1.7,4,3.8c-0.3,2.9-3.7,0.9-5.4,0.9c-1,0-1.9,0.3-2.8,0.6c-1.3,0.4-3.5,0.7-4.3-0.8c-1-1.8,1.9-3.5,3.2-4
						c0.2-0.1,0.2-0.3-0.1-0.3c-0.1,0-0.2,0-0.3,0.1C68.5,66.6,68.5,66.9,68.7,66.9L68.7,66.9z"/>
				</g>
			</g>
		</g>
		<g>
			<g>
				<g>
					<path class="st0" d="M75,71.8c0.4,1.1,0.6,2.3,0.3,3.5c-0.2,0.9-1,1.5-1.9,1.2c-0.7-0.2-0.8-0.8-1.1-1.3
						c-0.1-0.2-0.4,0-0.3,0.2c0.3,0.6,0.5,1.2,1.1,1.5c0.6,0.2,1.3,0.1,1.7-0.3c1.4-1,1-3.5,0.5-4.8C75.2,71.6,74.9,71.7,75,71.8
						L75,71.8z"/>
				</g>
			</g>
		</g>
		<g>
			<g>
				<g>
					<path class="st0" d="M53.2,123.8c2.3-1.1,3.5,1.8,5.1,2.8c0-0.1,0-0.2,0-0.3c-1.2,0.2-2.2,1-3.2,1.7c-1.1,0.8-2.5,2.1-3.9,1.7
						c-1-0.3-1.8-1.3-1.6-2.4c0.2-0.7,0.7-1.3,1.2-1.8c0.9-0.9,2-1.5,3.2-2.1c0.2-0.1,0-0.4-0.2-0.3c-1.8,0.9-6.2,3.5-3.9,6
						c2.7,3,5.9-2.1,8.6-2.5c0.2,0,0.1-0.2,0-0.3c-1.7-1.2-2.9-4.1-5.4-2.8C52.8,123.6,53,123.9,53.2,123.8L53.2,123.8z"/>
				</g>
			</g>
		</g>
		<g>
			<g>
				<g>
					<path class="st0" d="M50.5,129.3c-0.4-1.3,0.6-2.4,1.7-3c0.2-0.1,0-0.4-0.2-0.3c-1.2,0.7-2.3,1.9-1.9,3.3
						C50.3,129.6,50.6,129.5,50.5,129.3L50.5,129.3z"/>
				</g>
			</g>
		</g>
		<g>
			<g>
				<g>
					<path class="st0" d="M92.1,129.2c-1.3-0.8-2-2-3.1-3c-2-1.8,1.7-3.6,3.3-3.2c1.5,0.4,2.6,1.9,3.1,3.3c0.3,0.9,0.4,2.1-0.4,2.8
						C94.2,129.9,93.1,129.7,92.1,129.2c-0.2-0.1-0.4,0.2-0.2,0.3c1.6,0.8,3.7,0.6,4-1.5c0.3-2-1.2-4.3-3-5.1
						c-1-0.4-1.9-0.4-2.9,0.1c-0.8,0.4-2,1.2-2.2,2c-0.2,0.8,0.8,1.2,1.3,1.7c1,1,1.7,2.1,2.9,2.8C92.1,129.6,92.3,129.3,92.1,129.2
						z"/>
				</g>
			</g>
		</g>
		<g>
			<g>
				<g>
					<path class="st0" d="M92.8,126.2c0.9,0.9,1.6,2.1,1.6,3.3c0,0.2,0.3,0.2,0.3,0c-0.1-1.4-0.8-2.6-1.7-3.6
						C92.9,125.8,92.7,126,92.8,126.2L92.8,126.2z"/>
				</g>
			</g>
		</g>
		<g>
			<path class="st0" d="M81.6,66.7c-4.4,0-8-3.6-8-8s3.6-8,8-8c4.4,0,8,3.6,8,8S86,66.7,81.6,66.7z M81.6,51.2
				c-4.2,0-7.6,3.4-7.6,7.6s3.4,7.6,7.6,7.6s7.6-3.4,7.6-7.6S85.8,51.2,81.6,51.2z"/>
		</g>
		<g>
			<path class="st0" d="M62,67.6c-4.4,0-8-3.6-8-8s3.6-8,8-8s8,3.6,8,8S66.4,67.6,62,67.6z M62,52c-4.2,0-7.6,3.4-7.6,7.6
				s3.4,7.6,7.6,7.6s7.6-3.4,7.6-7.6S66.2,52,62,52z"/>
		</g>
		<g>
			<path class="st0" d="M96.6,55.7c0-0.9-0.7-1.7-1.7-1.7c-0.9,0-1.7,0.7-1.7,1.7c0,0.9,0.7,1.7,1.7,1.7
				C95.8,57.3,96.6,56.6,96.6,55.7z"/>
		</g>
		<g>
			<circle class="st0" cx="48.6" cy="57.1" r="1.7"/>
		</g>
		<g>
			<path class="st0" d="M75.4,65.9c0-1.1-1.6-1.9-3.5-1.9c-1.9,0-3.5,0.9-3.5,1.9c0,1.1,1.6,1.9,3.5,1.9
				C73.8,67.9,75.4,67,75.4,65.9z"/>
		</g>
		<g>
			<path class="st0" d="M84.2,58.5c-0.2-1.4-1.4-2.4-2.8-2.3c-1.4,0.2-2.4,1.4-2.3,2.8c0.2,1.4,1.4,2.4,2.8,2.3
				C83.3,61.2,84.3,59.9,84.2,58.5z M80.1,60c-0.1-0.4,0.3-0.8,0.6-0.8c0.4-0.1,0.8,0.3,0.8,0.6c0.1,0.4-0.3,0.8-0.6,0.8
				C80.5,60.7,80.2,60.4,80.1,60z"/>
		</g>
		<g>
			<path class="st0" d="M64.5,60.1c0.4-1.4-0.5-2.8-1.8-3.1s-2.8,0.5-3.1,1.8s0.5,2.8,1.8,3.1C62.7,62.3,64.1,61.5,64.5,60.1z
				 M60.2,60c0.1-0.4,0.5-0.6,0.9-0.5c0.4,0.1,0.6,0.5,0.5,0.9c-0.1,0.4-0.5,0.6-0.9,0.5C60.3,60.8,60.1,60.4,60.2,60z"/>
		</g>
		<g>
			<g>
				<g>
					<path class="st0" d="M72,71.3c0.2,1,0.1,2.1,0.1,3.1c-0.1,0.6-0.2,1.3-0.5,1.7c-0.5,0.7-1.5,0.7-2.1,0.1c-1-1-0.7-3.1-0.3-4.3
						c0.1-0.2-0.3-0.3-0.3-0.1c-0.4,1.5-0.8,4.5,1.2,5c2.9,0.8,2.6-4.2,2.4-5.7C72.3,71,72,71.1,72,71.3L72,71.3z"/>
				</g>
			</g>
		</g>
		<g>
			<g>
				<g>
					<path class="st0" d="M42.6,85.7c-0.5-0.7-0.7-1.6,0.2-2.1c0.2-0.1,0-0.4-0.2-0.3c-1.1,0.6-0.9,1.7-0.3,2.5
						C42.4,86,42.7,85.8,42.6,85.7L42.6,85.7z"/>
				</g>
			</g>
		</g>
		<g>
			<g>
				<g>
					<path class="st0" d="M47.3,87.8c-1.3,0.1-2.5-0.4-3.6-1.1c-0.2-0.1-0.3,0.2-0.2,0.3c1.1,0.8,2.4,1.3,3.7,1.2
						C47.5,88.1,47.5,87.8,47.3,87.8L47.3,87.8z"/>
				</g>
			</g>
		</g>
		<g>
			<g>
				<g>
					<path class="st0" d="M44.1,84.4c-0.8-0.4-1.6-1.6-0.3-1.9c1.1-0.3,2.2,0.7,2.9,1.4c0.2,0.2,0.4-0.1,0.2-0.2
						c-0.9-0.9-2.5-2.2-3.8-1.2c-0.9,0.7,0.1,1.9,0.8,2.2C44.1,84.7,44.3,84.5,44.1,84.4L44.1,84.4z"/>
				</g>
			</g>
		</g>
		<g>
			<g>
				<g>
					<path class="st0" d="M92.9,55.3c2.5,3.7,3.3,7.7,3.6,12c0.3,4.6,0.5,9.2,0.6,13.7c0.1,4.5,0.2,9.1,0.4,13.6
						c0.2,4.4,0.8,9,0.2,13.4c-0.1,0.4,0.6,0.6,0.6,0.2c0.7-4.4,0-9.1-0.2-13.5c-0.2-4.7-0.3-9.4-0.4-14.1
						c-0.2-4.7-0.3-9.5-0.7-14.2c-0.3-4.1-1.3-7.9-3.6-11.4C93.2,54.7,92.7,55,92.9,55.3L92.9,55.3z"/>
				</g>
			</g>
		</g>
		<g>
			<g>
				<g>
					<path class="st0" d="M87.8,125.8c0.1,0,0.1,0,0.1,0c0.2,0,0.2-0.3,0-0.3h0c-0.1,0-0.1,0-0.1,0.1c0,0-0.1,0,0,0
						c0.1,0.1,0.1,0.1,0.2,0.2c0-0.1,0-0.1,0.1-0.2C87.9,125.6,87.8,125.7,87.8,125.8c0,0,0.1,0,0.1,0.1c0.2,0.2,0.4-0.1,0.2-0.2
						c-0.1-0.1-0.1-0.1-0.2-0.2c-0.1-0.1-0.2-0.1-0.3,0.1c0,0.1,0,0.1-0.1,0.2c-0.1,0.1,0.1,0.2,0.2,0.2c0.1,0,0.2-0.1,0.2-0.2
						c-0.1,0-0.1,0.1-0.1,0.1h0c0.2,0,0.2-0.3,0-0.3c-0.1,0-0.1,0-0.1,0C87.6,125.5,87.6,125.8,87.8,125.8L87.8,125.8z"/>
				</g>
			</g>
		</g>
		<g>
			<g>
				<g>
					<path class="st0" d="M44.2,87.6c-0.4,2.7-1.4,5.3-1.4,8.1c0,0.6-0.1,1.5,0.5,1.9c0.5,0.3,1.1,0.2,1.5-0.1
						c1.7-1,1.9-3.6,2.2-5.4c0.5-2.7,0.8-5.5,0.2-8.2c-0.1-0.2-0.4-0.1-0.3,0.1c0.5,2.3,0.4,4.6,0,6.9c-0.3,1.7-0.5,3.7-1.3,5.2
						c-0.5,0.9-1.7,2.2-2.4,0.5c-0.3-0.8,0-2.3,0.1-3c0.3-1.9,0.9-3.8,1.2-5.8C44.5,87.5,44.2,87.4,44.2,87.6L44.2,87.6z"/>
				</g>
			</g>
		</g>
		<g>
			<g>
				<g>
					<path class="st0" d="M44.6,88c-0.1,1.3-0.3,2.6-0.4,3.9c-0.1,0.9-0.5,2.2-0.1,3.1c0.4,0.8,1.6,1.1,1.9,0.1
						c0.1-0.2-0.2-0.3-0.3-0.1c-1.1-0.1-1.6-0.5-1.5-1.2c0-0.3,0.1-0.6,0.1-0.8c0.1-0.5,0.1-1.1,0.2-1.6c0.1-1.2,0.2-2.3,0.4-3.4
						C44.9,87.8,44.6,87.8,44.6,88L44.6,88z"/>
				</g>
			</g>
		</g>
		<g>
			<g>
				<g>
					<path class="st0" d="M101.9,88.4c1.3-2.3,2.8-4.4,4.3-6.6c0.1-0.1,0-0.1,0-0.2c-1.2-1.4-2.6-2.4-4.3-3.1
						c-0.8-0.4-1.6-0.6-2.5-0.9c-0.8-0.3-1.3-0.8-2.2-0.7c-0.2,0-0.2,0.3,0,0.3c0.8,0,1.1,0.4,1.8,0.6c0.6,0.2,1.2,0.4,1.7,0.6
						c1.4,0.5,2.9,1.2,4,2.2c0.6,0.5,1.1,0.8,0.8,1.6c-0.3,0.7-0.9,1.3-1.3,1.9c-0.9,1.3-1.8,2.7-2.6,4.1
						C101.5,88.4,101.8,88.6,101.9,88.4L101.9,88.4z"/>
				</g>
			</g>
		</g>
		<g>
			<g>
				<g>
					<path class="st0" d="M98.3,96.1c0.5-1.2,0.9-2.3,1.4-3.5c0.1-0.2-0.2-0.4-0.3-0.2c-0.5,1.2-1,2.3-1.5,3.5
						C97.9,96.2,98.2,96.3,98.3,96.1L98.3,96.1z"/>
				</g>
			</g>
		</g>
		<g>
			<g>
				<g>
					<path class="st0" d="M99.4,83.8c0-0.2,0.2-0.4,0.4-0.4c-0.1-0.1-0.1-0.1-0.2-0.2c0,0.3,0.2,0.5,0.4,0.6c0.3,0.2,1.1,0,1.2,0.4
						c0.1,0.2,0.4,0.1,0.3-0.1c-0.1-0.3-0.3-0.4-0.5-0.5c-0.3-0.1-1.1,0-1.1-0.5c0-0.1-0.1-0.2-0.2-0.2c-0.4,0.1-0.6,0.3-0.7,0.7
						C99.1,83.9,99.4,84,99.4,83.8L99.4,83.8z"/>
				</g>
			</g>
		</g>
		<g>
			<g>
				<g>
					<path class="st0" d="M98.8,85.9c0.4,0.3,0.7,0.6,1.1,0.9c0.2,0.1,0.4-0.1,0.2-0.2c-0.4-0.3-0.7-0.6-1.1-0.9
						C98.9,85.6,98.6,85.8,98.8,85.9L98.8,85.9z"/>
				</g>
			</g>
		</g>
		<g>
			<g>
				<g>
					<path class="st0" d="M99.1,88.3c0.4,0,0.7,0.2,1,0.5c0.1,0.2,0.4,0,0.3-0.2c-0.3-0.4-0.7-0.6-1.2-0.6
						C98.9,88,98.9,88.3,99.1,88.3L99.1,88.3z"/>
				</g>
			</g>
		</g>
		<g>
			<g>
				<g>
					<path class="st0" d="M100.2,86.5c0.1-0.3,0.4-0.6,0.8-0.6c-0.1-0.1-0.1-0.1-0.2-0.1c0.1,0.5-0.4,1-0.9,0.9
						c-0.2,0-0.3,0.3-0.1,0.3c0.7,0.1,1.4-0.6,1.3-1.3c0-0.1-0.1-0.1-0.2-0.1c-0.5,0.1-0.9,0.4-1.1,0.8
						C99.8,86.7,100.1,86.7,100.2,86.5L100.2,86.5z"/>
				</g>
			</g>
		</g>
		<g>
			<g>
				<g>
					<path class="st0" d="M43.5,97.8c1.7,2.6,5.5-1.8,6.5-2.9c0.1-0.2-0.1-0.4-0.2-0.2c-1,1.1-4.6,5.2-6,3
						C43.7,97.4,43.4,97.6,43.5,97.8L43.5,97.8z"/>
				</g>
			</g>
		</g>
		<g>
			<g>
				<g>
					<path class="st0" d="M45.1,98.8c1.8,0.4,3.5,2.5,5.4,1.4c0.2-0.1,0-0.4-0.2-0.3c-1.8,1-3.5-1.1-5.2-1.4
						C45,98.5,45,98.8,45.1,98.8L45.1,98.8z"/>
				</g>
			</g>
		</g>
		<g>
			<g>
				<g>
					<path class="st0" d="M47.1,84.1c0.7,0.4,1.4,0.6,2.2,0.8c1,0.2,1.8,0.2,2.6,0.9c1.9,1.5,1.9,4.1,1.8,6.3c0,0.2,0.3,0.2,0.3,0
						c0.1-2,0.1-4.2-1.3-5.9c-1.4-1.7-3.7-1.3-5.5-2.3C47.1,83.7,47,84,47.1,84.1L47.1,84.1z"/>
				</g>
			</g>
		</g>
		<g>
			<g>
				<g>
					<path class="st0" d="M53.1,86.7c6.1,3.8,13.2,5.4,20.3,5.2c0.2,0,0.2-0.3,0-0.3c-7.1,0.2-14.1-1.4-20.1-5.1
						C53.1,86.3,52.9,86.6,53.1,86.7L53.1,86.7z"/>
				</g>
			</g>
		</g>
		<g>
			<g>
				<g>
					<path class="st0" d="M96.5,80.5c-5.9,5.1-14,6.3-20.7,10.2c-3.4,2-6.6,4.4-9.7,7c-3.1,2.6-5.9,5.5-9,8c-1.8,1.5-3.8,2.8-6,3.5
						c-1,0.3-2.1,0.6-3.2,0.4c-0.8-0.1-1.5-0.5-1.8-1.3c-0.3-0.8,0-1.9,0.9-2.1c0.2-0.1,0.1-0.4-0.1-0.3c-1.1,0.3-1.5,1.5-1.1,2.5
						c0.5,1.3,2.1,1.6,3.3,1.5c4.1-0.4,7.6-3.4,10.5-6c3.7-3.3,7.3-6.7,11.3-9.7c3.9-2.9,8.2-5.1,12.7-6.9c4.5-1.8,9.2-3.4,13-6.6
						C96.9,80.6,96.7,80.4,96.5,80.5L96.5,80.5z"/>
				</g>
			</g>
		</g>
		<g>
			<g>
				<g>
					<path class="st0" d="M97,80c-0.4,0.3-0.7,0.6-1.1,0.9c-0.2,0.1,0.1,0.4,0.2,0.2c0.4-0.3,0.7-0.6,1.1-0.9
						C97.4,80.1,97.1,79.9,97,80L97,80z"/>
				</g>
			</g>
		</g>
		<g>
			<g>
				<g>
					<path class="st0" d="M97,81.3c-2.4,2.6-5.4,4.3-8.5,6c-3,1.7-5.9,3.5-8.7,5.6c-5.5,4.1-10.3,8.9-14.5,14.2
						c-0.1,0.2,0.1,0.4,0.2,0.2c4.3-5.6,9.4-10.5,15.1-14.7c2.7-2,5.6-3.7,8.5-5.4c2.9-1.6,5.7-3.3,8-5.8
						C97.3,81.3,97.1,81.1,97,81.3L97,81.3z"/>
				</g>
			</g>
		</g>
		<g>
			<g>
				<g>
					<path class="st0" d="M97.3,82.1C93.7,87,89.9,91.9,86,96.6c-0.1,0.2,0.1,0.4,0.2,0.2c3.9-4.8,7.7-9.6,11.4-14.6
						C97.7,82.1,97.5,81.9,97.3,82.1L97.3,82.1z"/>
				</g>
			</g>
		</g>
		<g>
			<g>
				<g>
					<path class="st0" d="M97.2,83.4c-0.8,1.7-1.7,3.4-2.7,5c-0.1,0.2,0.2,0.3,0.3,0.2c1-1.6,1.9-3.3,2.7-5
						C97.6,83.3,97.3,83.2,97.2,83.4L97.2,83.4z"/>
				</g>
			</g>
		</g>
		<g>
			<g>
				<g>
					<path class="st0" d="M45.9,106.9c-0.7,2.4-1.3,4.8-1.7,7.3c-0.3,1.5-0.6,3.2,0.8,4.2c1.5,1,3.6,0.8,5.2,0.6
						c2.3-0.4,4.5-1.3,6.7-2.3c0.2-0.1,0-0.4-0.2-0.3c-1.8,0.8-3.6,1.6-5.5,2c-1.8,0.4-4.2,0.8-5.9-0.1c-2-1.1-1-4-0.6-5.8
						c0.4-1.8,0.8-3.6,1.3-5.4C46.3,106.8,46,106.7,45.9,106.9L45.9,106.9z"/>
				</g>
			</g>
		</g>
		<g>
			<g>
				<g>
					<path class="st0" d="M48.1,119.2c0.7,0.9,0.7,2,0.1,3c-0.1,0.1,0,0.2,0.1,0.2c0.7,0.5,1.5,0.5,2.3,0.2c1.5-0.4,3-1,4.5-1.5
						c3.1-1,6.3-2.1,9.4-3.2c0.2-0.1,0.1-0.4-0.1-0.3c-3.7,1.3-7.3,2.5-11,3.7c-0.9,0.3-1.7,0.6-2.6,0.8c-0.4,0.1-0.9,0.3-1.3,0.3
						c-1.2,0-0.9-0.2-0.7-0.8c0.3-1,0.3-1.9-0.4-2.7C48.2,118.9,48,119.1,48.1,119.2L48.1,119.2z"/>
				</g>
			</g>
		</g>
		<g>
			<g>
				<g>
					<path class="st0" d="M50.6,122.6c-0.5,1.1-0.9,2.3-1.1,3.5c0,0.2,0.3,0.3,0.3,0.1c0.2-1.2,0.6-2.3,1.1-3.4
						C51,122.6,50.7,122.4,50.6,122.6L50.6,122.6z"/>
				</g>
			</g>
		</g>
		<g>
			<g>
				<g>
					<path class="st0" d="M57.8,127c0.2,0,0.2-0.3,0-0.3S57.6,127,57.8,127L57.8,127z"/>
				</g>
			</g>
		</g>
		<g>
			<g>
				<g>
					<path class="st0" d="M57.8,126.9c0-0.1,0-0.1,0-0.2c0-0.2-0.3-0.2-0.3,0c0,0.1,0,0.1,0,0.2C57.5,127.1,57.8,127.1,57.8,126.9
						L57.8,126.9z"/>
				</g>
			</g>
		</g>
		<g>
			<g>
				<g>
					<path class="st0" d="M58,126.6c-0.2,1.6,0.8,3,2.2,3.6c1.9,0.9,4.1,0.3,6-0.2c1.3-0.4,2.7-0.8,4.1-0.7c1.4,0.1,2.6,0.7,3.9,1.1
						c2.2,0.7,4.5,0.5,6.7,0c1.9-0.4,3.8-0.7,4.9-2.3c1.2-1.8,1.7-3.8,4-4.5c1.8-0.6,4.1-0.3,5.5,1.1c0.6,0.6,1.4,2.2,2.2,1
						c0.6-0.8,0.5-2.2,0.6-3.1c0.2-1.5,0.3-3.1,0.3-4.6c0.1-3.1-0.1-6.1-0.5-9.2c0-0.2-0.4-0.2-0.3,0c0.6,4.6,0.7,9.3,0.2,14
						c-0.1,0.6,0,1.6-0.3,2c-0.1,0.2-1,0.5-1.3,0.4c-0.4-0.2-0.1-0.2-0.2-0.3c-0.5-0.4-0.9-0.9-1.5-1.3c-1.1-0.6-2.4-0.9-3.7-0.7
						c-1.2,0.1-2.3,0.6-3.1,1.4c-1.2,1.2-1.6,3-2.7,4.2c-0.9,0.9-2.2,1.1-3.3,1.3c-1.2,0.3-2.5,0.6-3.8,0.6c-1.2,0.1-2.4,0-3.5-0.4
						c-1-0.3-2-0.8-3-1c-2.2-0.5-4.3,0.3-6.4,0.8c-1.5,0.4-3.2,0.6-4.7-0.1c-1.3-0.6-2.2-1.9-2-3.3C58.4,126.4,58.1,126.4,58,126.6
						L58,126.6z"/>
				</g>
			</g>
		</g>
		<g>
			<g>
				<g>
					<path class="st0" d="M50.8,99.3c-0.8,1.9-1.5,3.9-2.3,5.8c-0.1,0.2,0.2,0.3,0.3,0.1c0.8-1.9,1.5-3.9,2.3-5.8
						C51.2,99.2,50.9,99.1,50.8,99.3L50.8,99.3z"/>
				</g>
			</g>
		</g>
		<g>
			<g>
				<g>
					<path class="st0" d="M51,99.6c-0.5,1.8-0.9,3.6-1.4,5.5c-0.1,0.2,0.3,0.3,0.3,0.1c0.5-1.8,0.9-3.6,1.4-5.5
						C51.4,99.5,51.1,99.4,51,99.6L51,99.6z"/>
				</g>
			</g>
		</g>
		<g>
			<g>
				<g>
					<path class="st0" d="M51.7,99.7c-0.1,0.7-0.1,1.5-0.2,2.2c0,0.2,0.3,0.2,0.3,0c0.1-0.7,0.1-1.5,0.2-2.2
						C52,99.5,51.7,99.5,51.7,99.7L51.7,99.7z"/>
				</g>
			</g>
		</g>
		<g>
			<g>
				<g>
					<path class="st0" d="M64.6,117.9c1.7-1.4,3.9-1.5,6-1.8c1.8-0.3,3.4-0.7,4.8-1.8c1.5-1.1,2.6-2.6,3.8-3.9
						c1.5-1.5,3.2-2.7,5-3.8c3.3-2.1,6.3-4.1,8.1-7.7c2.1-4.2,3.7-8.8,5.5-13.2c0.1-0.2-0.2-0.3-0.3-0.1c-0.9,2.3-1.9,4.6-2.8,6.9
						c-0.9,2.2-1.7,4.5-2.9,6.6c-2.1,3.9-5.6,5.8-9.1,8.1c-1.6,1-2.9,2.2-4.2,3.6c-1.3,1.4-2.5,2.9-4.2,3.9c-3.1,1.8-7.2,0.6-10,3
						C64.2,117.8,64.4,118,64.6,117.9L64.6,117.9z"/>
				</g>
			</g>
		</g>
		<g>
			<g>
				<g>
					<path class="st0" d="M87.3,104.8c-0.4,4.1-0.7,8.1-0.7,12.2c0,0.2,0.3,0.2,0.3,0c0.1-4.1,0.3-8.2,0.7-12.2
						C87.6,104.6,87.3,104.6,87.3,104.8L87.3,104.8z"/>
				</g>
			</g>
		</g>
		<g>
			<g>
				<g>
					<path class="st0" d="M81.7,107.9c-0.6,4.7-1.1,9.5-1.6,14.2c0,0.2,0.3,0.2,0.3,0c0.5-4.7,1-9.5,1.6-14.2
						C82.1,107.7,81.7,107.7,81.7,107.9L81.7,107.9z"/>
				</g>
			</g>
		</g>
		<g>
			<g>
				<g>
					<path class="st0" d="M84.3,106.6c-0.1,1.3-0.1,2.6-0.1,3.8c0,0.2,0.3,0.2,0.3,0c0.1-1.3,0.1-2.6,0.1-3.8
						C84.6,106.4,84.3,106.4,84.3,106.6L84.3,106.6z"/>
				</g>
			</g>
		</g>
		<g>
			<g>
				<g>
					<path class="st0" d="M64.3,117.9c-0.2,2-0.5,4-1.1,6c-0.1,0.2,0.3,0.3,0.3,0.1c0.6-2,1-4,1.1-6.1
						C64.6,117.7,64.3,117.7,64.3,117.9L64.3,117.9z"/>
				</g>
			</g>
		</g>
		<g>
			<g>
				<g>
					<path class="st0" d="M65.5,117.2c-0.1,1.2-0.3,2.4-0.4,3.6c0,0.2,0.3,0.2,0.3,0c0.1-1.2,0.3-2.4,0.4-3.6
						C65.9,117,65.5,117,65.5,117.2L65.5,117.2z"/>
				</g>
			</g>
		</g>
		<g>
			<g>
				<g>
					<path class="st0" d="M67.3,116.6c0.2,2.7,0.3,5.3,0.4,8c0,0.2,0.3,0.2,0.3,0c-0.2-2.7-0.3-5.3-0.4-8
						C67.6,116.4,67.3,116.4,67.3,116.6L67.3,116.6z"/>
				</g>
			</g>
		</g>
		<g>
			<g>
				<g>
					<path class="st0" d="M73.5,115.4c-0.1,1.5-0.2,3-0.3,4.6c0,0.2,0.3,0.2,0.3,0c0.1-1.5,0.2-3,0.3-4.6
						C73.8,115.2,73.5,115.2,73.5,115.4L73.5,115.4z"/>
				</g>
			</g>
		</g>
		<g>
			<g>
				<g>
					<path class="st0" d="M74.5,115c-0.1,1.2-0.1,2.3,0,3.5c0,0.2,0.3,0.2,0.3,0c-0.1-1.2-0.1-2.3,0-3.5
						C74.8,114.8,74.5,114.8,74.5,115L74.5,115z"/>
				</g>
			</g>
		</g>
		<g>
			<g>
				<g>
					<path class="st0" d="M98.2,105.9c0,3.5,0.2,7.1,0.8,10.6c0.1,0.9,0.3,1.7,0.5,2.6c0.2,0.8,0.6,1.8,0.5,2.6
						c-0.1,0.8-0.9,1.3-1.5,1.7c-0.1,0.1-0.2,0.1-0.3,0.2c-0.3,0.3-0.4,0.5-0.4,0.9c0,0.2,0.3,0.2,0.3,0c-0.1-0.8,1.4-1,1.8-1.5
						c0.2-0.3,0.3-0.6,0.3-1c0.1-1.4-0.5-3-0.8-4.4c-0.7-3.9-1-7.8-1-11.7C98.5,105.7,98.2,105.7,98.2,105.9L98.2,105.9z"/>
				</g>
			</g>
		</g>
		<g>
			<g>
				<g>
					<path class="st0" d="M53.5,53.1c1.9-0.4,3.5-1.2,5.2-2.2c1.7-1,3.2-1.7,5.1-1.7c2.3,0,5,0.5,6.5-1.8c0.1-0.2-0.2-0.3-0.3-0.2
						c-1.6,2.6-5,1.4-7.5,1.7c-1.4,0.2-2.6,0.9-3.8,1.6c-1.7,1-3.3,1.9-5.3,2.3C53.2,52.9,53.3,53.2,53.5,53.1L53.5,53.1z"/>
				</g>
			</g>
		</g>
		<g>
			<g>
				<g>
					<path class="st0" d="M71.4,47.4c2.5,1.9,5.6,1.5,8.6,1.9c1.8,0.3,3.3,1.2,4.9,1.8c1.6,0.7,3.3,0.9,5,0.7c0.2,0,0.2-0.3,0-0.3
						c-2,0.2-3.8-0.2-5.7-1c-1.3-0.6-2.6-1.3-4-1.5c-3-0.5-6.1,0-8.6-1.9C71.4,47,71.3,47.3,71.4,47.4L71.4,47.4z"/>
				</g>
			</g>
		</g>
		<g>
			<g>
				<g>
					<path class="st0" d="M53,53.6c3.8-5.6,10.1-9.2,16.9-9.5c3.7-0.2,7.3,0.6,10.5,2.2c3.3,1.6,6.5,3.5,9.7,5.3
						c0.2,0.1,0.3-0.2,0.2-0.3c-3.6-2-7.1-4.2-10.9-5.9c-3.3-1.4-6.9-2-10.4-1.7c-6.6,0.6-12.5,4.1-16.3,9.6
						C52.6,53.6,52.9,53.8,53,53.6L53,53.6z"/>
				</g>
			</g>
		</g>
		<g>
			<g>
				<g>
					<path class="st0" d="M51.9,51.8C55,44,62.2,36.9,71.2,38.1c2.1,0.3,4.2,1,6.2,1.7c2.1,0.7,4.1,1.4,6,2.5c3.6,2,6.7,5.1,7.3,9.3
						c0,0.2,0.3,0.1,0.3-0.1c-1-7.1-8.1-10.2-14.1-12.2c-3.3-1.1-6.6-2-10.1-1.4c-3.4,0.6-6.5,2.2-9,4.5c-2.8,2.6-4.8,5.9-6.2,9.3
						C51.6,51.9,51.9,52,51.9,51.8L51.9,51.8z"/>
				</g>
			</g>
		</g>
		<g>
			<g>
				<g>
					<path class="st0" d="M51.5,51.7c1.7-6.8,6.6-12.7,13.1-15.4c4.1-1.7,8.2-1.5,12.3-0.1c3.3,1.1,6.4,2.8,9,5.1
						c2.8,2.5,4.9,5.7,5.7,9.4c0.1,0.2,0.4,0.1,0.3-0.1c-1.5-6.9-7.3-11.8-13.6-14.3c-3.9-1.6-8-2.2-12.2-1
						c-3.5,1.1-6.7,3.1-9.2,5.8c-2.8,2.9-4.8,6.5-5.8,10.4C51.2,51.8,51.5,51.9,51.5,51.7L51.5,51.7z"/>
				</g>
			</g>
		</g>
		<g>
			<g>
				<g>
					<path class="st0" d="M69.6,34.9c1.4-6.4,2.9-12.9,4.3-19.3c-0.1,0-0.2,0-0.3-0.1c-0.7,6.4-1.3,12.8-2,19.1c0,0.2,0.3,0.2,0.3,0
						c0.7-6.4,1.3-12.8,2-19.1c0-0.2-0.3-0.2-0.3-0.1c-1.4,6.4-2.9,12.9-4.3,19.3C69.3,35,69.6,35.1,69.6,34.9L69.6,34.9z"/>
				</g>
			</g>
		</g>
		<g>
			<g>
				<g>
					<path class="st0" d="M73.5,15.5c0,3.3,0,6.6,0,9.9c0,3.2-0.2,6.4,0.1,9.6c0,0.2,0.3,0.2,0.3,0c-0.2-3.2-0.1-6.4-0.1-9.6
						c0-3.3,0-6.6,0-9.9C73.8,15.3,73.5,15.3,73.5,15.5L73.5,15.5z"/>
				</g>
			</g>
		</g>
		<g>
			<g>
				<g>
					<path class="st0" d="M78.4,36.5c4.2-6.1,8.3-12.3,12.3-18.5c-0.1-0.1-0.2-0.1-0.3-0.1c-2.3,7.2-4.7,14.4-7,21.5
						c-0.1,0.2,0.3,0.3,0.3,0.1c2.3-7.2,4.7-14.4,7-21.5c0.1-0.2-0.2-0.3-0.3-0.1c-4,6.2-8.1,12.4-12.3,18.5
						C78,36.5,78.3,36.6,78.4,36.5L78.4,36.5z"/>
				</g>
			</g>
		</g>
		<g>
			<g>
				<g>
					<path class="st0" d="M90.4,18c-3.1,6.4-6.1,12.9-9.1,19.4c-0.1,0.2,0.2,0.4,0.3,0.2c3-6.5,6-12.9,9.1-19.4
						C90.7,17.9,90.5,17.8,90.4,18L90.4,18z"/>
				</g>
			</g>
		</g>
		<g>
			<g>
				<g>
					<path class="st0" d="M87.9,43.1c5.3-3.8,10.5-7.8,15.5-12.1c-0.1-0.1-0.2-0.1-0.3-0.2c-1.6,3-3.9,5.4-6.2,7.8
						c-2.3,2.5-4.5,5.1-6.6,7.9c-0.1,0.2,0.2,0.3,0.3,0.2c2.2-2.9,4.6-5.7,7.1-8.4c2.1-2.3,4.2-4.5,5.7-7.3c0.1-0.2-0.1-0.3-0.3-0.2
						c-4.9,4.2-10.1,8.2-15.4,12C87.6,42.9,87.7,43.2,87.9,43.1L87.9,43.1z"/>
				</g>
			</g>
		</g>
		<g>
			<g>
				<g>
					<path class="st0" d="M89.3,44.8c4.7-4.3,9.2-8.8,13.6-13.4c0.2-0.2-0.1-0.4-0.2-0.2c-4.4,4.6-8.9,9.1-13.6,13.4
						C89,44.7,89.2,44.9,89.3,44.8L89.3,44.8z"/>
				</g>
			</g>
		</g>
		<g>
			<g>
				<g>
					<path class="st0" d="M57.9,39.8c-2.7-6-5.5-11.9-8.2-17.9c-0.1,0.1-0.2,0.1-0.3,0.2c3.9,5.1,7.9,10.2,11.8,15.3
						c0.1,0.2,0.4,0,0.3-0.2c-3.9-5.1-7.9-10.2-11.8-15.3c-0.1-0.2-0.4,0-0.3,0.2c2.7,6,5.4,11.9,8.1,17.9
						C57.7,40.1,58,40,57.9,39.8L57.9,39.8z"/>
				</g>
			</g>
		</g>
		<g>
			<g>
				<g>
					<path class="st0" d="M49.7,22.6c1.9,2.9,3.8,5.9,5.5,8.9c0.9,1.5,1.7,3,2.5,4.6c0.5,1,0.9,2,2,2.5c0.2,0.1,0.4-0.2,0.2-0.3
						c-1.3-0.6-1.9-2.5-2.5-3.6c-0.8-1.4-1.5-2.8-2.3-4.1c-1.6-2.7-3.3-5.4-5-8.1C49.9,22.3,49.6,22.4,49.7,22.6L49.7,22.6z"/>
				</g>
			</g>
		</g>
		<g>
			<g>
				<g>
					<path class="st0" d="M51.8,49.7c-4.7-4.4-9.4-8.7-14-13.2c-0.1,0.1-0.1,0.2-0.2,0.3c5.7,2.5,11.1,5.6,16.2,9.2
						c0.2,0.1,0.3-0.2,0.2-0.3c-5.1-3.6-10.5-6.7-16.2-9.2c-0.2-0.1-0.3,0.1-0.2,0.3c4.6,4.4,9.3,8.8,14,13.2
						C51.7,50.1,51.9,49.8,51.8,49.7L51.8,49.7z"/>
				</g>
			</g>
		</g>
		<g>
			<g>
				<g>
					<path class="st0" d="M37.9,37c2.9,1.8,5.7,3.8,8.3,6c2,1.7,3.9,3.7,6.4,4.6c0.2,0.1,0.3-0.2,0.1-0.3c-2.9-1-5-3.5-7.3-5.4
						C43,40,40.6,38.3,38,36.7C37.8,36.6,37.7,36.8,37.9,37L37.9,37z"/>
				</g>
			</g>
		</g>
		<g>
			<g>
				<g>
					<path class="st0" d="M52.3,52c1.9-3.2,3.8-6.5,6.6-9c3.1-2.8,7-4,11.1-3.8c4.1,0.2,8.3,1.4,12,3.2c3.8,1.8,7.3,4.7,8.1,9
						c0.1,0.2,0.4,0.1,0.3-0.1c-0.8-4.1-3.9-7-7.5-8.8c-3.8-2-8.2-3.3-12.5-3.6c-4-0.2-8,0.8-11.1,3.4c-3.1,2.6-5.2,6.1-7.2,9.5
						C52,52,52.2,52.1,52.3,52L52.3,52z"/>
				</g>
			</g>
		</g>
		<g>
			<g>
				<g>
					<path class="st0" d="M69.4,46.6c-1.4,0.9-2.8,1.2-4.5,1.2c-1.4,0-2.8-0.1-4.1,0.4c-2.5,0.9-4.4,3-6.8,4.2
						c-0.2,0.1,0,0.4,0.2,0.3c2.6-1.3,4.7-3.8,7.6-4.4c1.5-0.3,3.1-0.1,4.6-0.2c1.2-0.1,2.2-0.6,3.2-1.2
						C69.7,46.8,69.6,46.5,69.4,46.6L69.4,46.6z"/>
				</g>
			</g>
		</g>
		<g>
			<g>
				<g>
					<path class="st0" d="M71.7,47.2c3.6,1.5,7.8,0.1,11.2,2.2c2.3,1.4,4.4,3.3,7.2,2c0.2-0.1,0-0.4-0.2-0.3
						c-3.2,1.4-5.5-1.7-8.2-2.8c-3.1-1.3-6.7-0.2-9.9-1.5C71.6,46.8,71.6,47.1,71.7,47.2L71.7,47.2z"/>
				</g>
			</g>
		</g>
		<g>
			<g>
				<g>
					<path class="st0" d="M98.2,99.1c-0.2,1.2,1.3,1.4,1.9,0.6c0.6-0.7,0.7-1.8,0.8-2.7c0.2-1.5,0.3-2.9,0.2-4.4
						c0-0.2-0.3-0.2-0.3,0c0.1,1.1,0.1,2.3,0,3.4c-0.1,0.6-0.2,1.3-0.3,1.9c-0.1,0.3-0.1,0.5-0.2,0.8c-0.1,0.9-0.7,1-1.7,0.5
						C98.5,99,98.2,98.9,98.2,99.1L98.2,99.1z"/>
				</g>
			</g>
		</g>
		<g>
			<g>
				<g>
					<path class="st0" d="M99.7,92.7c-0.3,1.3-0.5,2.7-0.8,4c-0.1,0.2,0.3,0.3,0.3,0.1c0.3-1.3,0.5-2.7,0.8-4
						C100.1,92.6,99.8,92.5,99.7,92.7L99.7,92.7z"/>
				</g>
			</g>
		</g>
		<g>
			<g>
				<g>
					<path class="st0" d="M54.6,88.9c0.3,3.9,0.3,7.8-0.1,11.7c0,0.2,0.3,0.2,0.3,0c0.4-3.9,0.4-7.8,0.1-11.7
						C54.9,88.7,54.6,88.7,54.6,88.9L54.6,88.9z"/>
				</g>
			</g>
		</g>
		<g>
			<g>
				<g>
					<path class="st0" d="M56.5,92.2c0.3,1.1,0.3,2.3,0,3.4c-0.1,0.2,0.3,0.3,0.3,0.1c0.3-1.2,0.3-2.4,0-3.6
						C56.8,91.9,56.5,92,56.5,92.2L56.5,92.2z"/>
				</g>
			</g>
		</g>
		<g>
			<g>
				<g>
					<path class="st0" d="M58.4,92.9c0,0.1,0,0.3,0,0.4c0,0.2,0.3,0.2,0.3,0c0-0.1,0-0.3,0-0.4C58.7,92.7,58.4,92.7,58.4,92.9
						L58.4,92.9z"/>
				</g>
			</g>
		</g>
		<g>
			<g>
				<g>
					<path class="st0" d="M47.4,83.6c3.4-0.7,6.4,1.3,9.3,2.6c2.6,1.2,5.3,2,8.1,2.6c5.6,1.1,11.4,0.7,16.9-0.9
						c0.2-0.1,0.1-0.4-0.1-0.3c-6,1.8-12.4,2-18.4,0.6c-3-0.7-5.8-1.9-8.5-3.2c-2.3-1.2-4.8-2.2-7.4-1.6
						C47.1,83.3,47.2,83.7,47.4,83.6L47.4,83.6z"/>
				</g>
			</g>
		</g>
		<g>
			<g>
				<g>
					<path class="st0" d="M71.5,93.5c-2.1,0.2-4.1,0.5-6.2,0.7c-0.2,0-0.2,0.3,0,0.3c2.1-0.2,4.1-0.5,6.2-0.7
						C71.7,93.8,71.7,93.4,71.5,93.5L71.5,93.5z"/>
				</g>
			</g>
		</g>
		<g>
			<g>
				<g>
					<path class="st0" d="M58.2,127c0-1.3,0.2-2.7,0.3-4c0-0.2-0.3-0.3-0.3-0.1c-0.2,1.4-0.3,2.7-0.4,4
						C57.9,127.2,58.2,127.2,58.2,127L58.2,127z"/>
				</g>
			</g>
		</g>
		<g>
			<g>
				<g>
					<path class="st0" d="M87.6,125.8c-0.1,0-0.3,0-0.4,0c-0.2,0-0.2,0.3,0,0.3c0.1,0,0.3,0,0.4,0C87.8,126.1,87.8,125.8,87.6,125.8
						L87.6,125.8z"/>
				</g>
			</g>
		</g>
		<g>
			<g>
				<g>
					<path class="st0" d="M86.9,123.7c1.6-1.4,3.6-2,5.8-1.9c0.2,0,0.2-0.3,0-0.3c-2.2-0.2-4.3,0.6-6,2
						C86.6,123.6,86.8,123.8,86.9,123.7L86.9,123.7z"/>
				</g>
			</g>
		</g>
		<g>
			<g>
				<g>
					<path class="st0" d="M53.5,122.9c1-0.2,1.9,0.1,2.6,0.8c0.2,0.2,0.4-0.1,0.2-0.2c-0.8-0.8-1.8-1.1-2.9-0.9
						C53.2,122.7,53.3,123,53.5,122.9L53.5,122.9z"/>
				</g>
			</g>
		</g>
		<g>
			<g>
				<g>
					<path class="st0" d="M54.5,122.2c0.4,0.1,0.7,0.2,1.1,0.2c0.2,0.1,0.3-0.3,0.1-0.3c-0.4-0.1-0.7-0.2-1.1-0.2
						C54.4,121.9,54.3,122.2,54.5,122.2L54.5,122.2z"/>
				</g>
			</g>
		</g>
		<g>
			<g>
				<g>
					<path class="st0" d="M88.6,121.7c0.3-0.1,0.6-0.1,0.9-0.2c0.2-0.1,0.1-0.4-0.1-0.3c-0.3,0.1-0.6,0.1-0.9,0.2
						C88.3,121.5,88.4,121.8,88.6,121.7L88.6,121.7z"/>
				</g>
			</g>
		</g>
		<g>
			<g>
				<g>
					<path class="st0" d="M45.5,88.5c-0.1,1.3-0.1,2.6-0.2,3.8c0,0.2,0.3,0.2,0.3,0c0.1-1.3,0.1-2.6,0.2-3.8
						C45.8,88.3,45.5,88.3,45.5,88.5L45.5,88.5z"/>
				</g>
			</g>
		</g>
		<g>
			<g>
				<g>
					<path class="st0" d="M52.8,51c0.3,0.4,0.6,0.7,1,0.8c0.2,0.1,0.3-0.2,0.1-0.3c-0.4-0.1-0.6-0.4-0.8-0.7
						C52.9,50.7,52.7,50.8,52.8,51L52.8,51z"/>
				</g>
			</g>
		</g>
		<g>
			<g>
				<g>
					<path class="st0" d="M53.7,49.5c0.3,0.5,0.8,0.9,1.3,1.2c0.2,0.1,0.4-0.2,0.2-0.3c-0.5-0.2-0.9-0.6-1.2-1.1
						C53.9,49.2,53.6,49.3,53.7,49.5L53.7,49.5z"/>
				</g>
			</g>
		</g>
		<g>
			<g>
				<g>
					<path class="st0" d="M55.1,47.1c0.3,0.9,0.9,1.6,1.8,1.9c0.2,0.1,0.3-0.2,0.1-0.3c-0.8-0.3-1.3-0.9-1.6-1.7
						C55.4,46.8,55.1,46.9,55.1,47.1L55.1,47.1z"/>
				</g>
			</g>
		</g>
		<g>
			<g>
				<g>
					<path class="st0" d="M57.9,43.9c0.7,0.9,1.4,1.8,2.2,2.8c0.1,0.2,0.4-0.1,0.2-0.2c-0.7-0.9-1.4-1.8-2.2-2.8
						C58,43.5,57.8,43.7,57.9,43.9L57.9,43.9z"/>
				</g>
			</g>
		</g>
		<g>
			<g>
				<g>
					<path class="st0" d="M63.4,40c0.5,1.5,1,3.1,1.5,4.6c0.1,0.2,0.4,0.1,0.3-0.1c-0.5-1.5-1-3.1-1.5-4.6
						C63.7,39.7,63.4,39.8,63.4,40L63.4,40z"/>
				</g>
			</g>
		</g>
		<g>
			<g>
				<g>
					<path class="st0" d="M74.5,39.7c-0.3,1.5-0.6,2.9-0.7,4.4c0,0.2,0.3,0.2,0.3,0c0.1-1.5,0.3-2.9,0.6-4.3
						C74.9,39.6,74.6,39.5,74.5,39.7L74.5,39.7z"/>
				</g>
			</g>
		</g>
		<g>
			<g>
				<g>
					<path class="st0" d="M80.5,46.1c0.7-1.2,1.3-2.3,2-3.5c0.1-0.2-0.2-0.3-0.3-0.2c-0.7,1.2-1.3,2.3-2,3.5
						C80.1,46.1,80.4,46.2,80.5,46.1L80.5,46.1z"/>
				</g>
			</g>
		</g>
		<g>
			<g>
				<g>
					<path class="st0" d="M82.7,47.3c0.7-1.1,1.4-2.3,2.1-3.4c0.1-0.2-0.2-0.3-0.3-0.2c-0.7,1.1-1.4,2.3-2.1,3.4
						C82.3,47.3,82.6,47.4,82.7,47.3L82.7,47.3z"/>
				</g>
			</g>
		</g>
		<g>
			<g>
				<g>
					<path class="st0" d="M84.9,48.3c0.6-1,1.2-2,1.8-2.9c0.1-0.2-0.2-0.3-0.3-0.2c-0.6,1-1.2,2-1.8,2.9
						C84.5,48.3,84.8,48.5,84.9,48.3L84.9,48.3z"/>
				</g>
			</g>
		</g>
		<g>
			<g>
				<g>
					<path class="st0" d="M86.2,49.1c0.5-0.9,1-1.7,1.5-2.6c0.1-0.2-0.2-0.3-0.3-0.2c-0.5,0.9-1,1.7-1.5,2.6
						C85.8,49.1,86.1,49.3,86.2,49.1L86.2,49.1z"/>
				</g>
			</g>
		</g>
		<g>
			<g>
				<g>
					<path class="st0" d="M87.4,49.9c0.4-0.8,0.9-1.6,1.3-2.4c0.1-0.2-0.2-0.3-0.3-0.2c-0.4,0.8-0.9,1.6-1.3,2.4
						C87,49.9,87.3,50.1,87.4,49.9L87.4,49.9z"/>
				</g>
			</g>
		</g>
		<g>
			<g>
				<g>
					<path class="st0" d="M88.3,50.5c0.5-0.6,0.9-1.2,1.2-1.9c0.1-0.2-0.2-0.3-0.3-0.1c-0.3,0.7-0.6,1.2-1.1,1.8
						C87.9,50.4,88.1,50.6,88.3,50.5L88.3,50.5z"/>
				</g>
			</g>
		</g>
		<g>
			<g>
				<g>
					<path class="st0" d="M89.4,50.8c0.1-0.3,0.3-0.5,0.4-0.7c0.1-0.2-0.2-0.3-0.3-0.2c-0.1,0.3-0.3,0.5-0.4,0.7
						C89,50.8,89.3,51,89.4,50.8L89.4,50.8z"/>
				</g>
			</g>
		</g>
		<g>
			<g>
				<g>
					<path class="st0" d="M99.7,92.6c-0.5-0.3-0.9-0.6-1.1-1.1c-0.3-0.9,0.9-2.2,1.7-1.1c0.1-0.1,0.2-0.1,0.3-0.2
						c-0.6-0.9,0.1-2.2,1.2-1.8c0.2,0.1,0.3-0.3,0.1-0.3c-1.4-0.5-2.3,1.1-1.6,2.2c0.1,0.2,0.4,0,0.3-0.2c-0.5-0.8-1.6-0.8-2.1,0
						c-0.7,1,0.2,2.1,1.1,2.6C99.8,93,99.9,92.7,99.7,92.6L99.7,92.6z"/>
				</g>
			</g>
		</g>
		<g>
			<g>
				<g>
					<path class="st0" d="M99.7,93.1c1.4-0.1,2.5-1.3,3.1-2.5c0.4-0.9,0.3-2.1-0.9-2.4c-0.2-0.1-0.3,0.3-0.1,0.3
						c1.4,0.4,0.8,2,0.2,2.7c-0.6,0.8-1.3,1.5-2.3,1.6C99.5,92.8,99.5,93.1,99.7,93.1L99.7,93.1z"/>
				</g>
			</g>
		</g>
		<g>
			<g>
				<g>
					<path class="st0" d="M42.1,83.6c-0.3-0.7-0.5-1.4-0.6-2.1c-0.2-1-0.4-2.3,0.8-2.7c1-0.3,2.6-0.3,2.7,1c0.1,0.8-0.3,1.7-0.4,2.5
						c0,0.2,0.3,0.3,0.3,0.1c0.1-0.8,0.2-1.6,0.3-2.4c0.1-0.4,0.1-0.8-0.1-1.1c-0.5-0.7-1.8-0.7-2.5-0.5c-0.7,0.1-1.5,0.3-1.7,1.1
						c-0.3,1.3,0.3,3,0.7,4.2C41.8,83.8,42.1,83.7,42.1,83.6L42.1,83.6z"/>
				</g>
			</g>
		</g>
		<g>
			<g>
				<g>
					<path class="st0" d="M45.7,77.8c-0.1,0.6-0.4,1-0.8,1.5c-0.1,0.2,0.2,0.3,0.3,0.2c0.4-0.5,0.7-1,0.8-1.6
						C46,77.6,45.7,77.6,45.7,77.8L45.7,77.8z"/>
				</g>
			</g>
		</g>
		<g>
			<g>
				<g>
					<path class="st0" d="M40.6,80.1c-0.9-0.9-1.9-2.4-0.1-2.9c0.6-0.2,1.3-0.2,2-0.3c0.9-0.2,1.7-0.5,2.6-0.3
						c0.2,0.1,0.3-0.3,0.1-0.3c-1.1-0.3-2.2,0.2-3.3,0.3c-0.7,0.1-1.7,0.1-2.3,0.6c-1,0.9,0.2,2.3,0.8,3
						C40.5,80.5,40.7,80.3,40.6,80.1L40.6,80.1z"/>
				</g>
			</g>
		</g>
		<g>
			<g>
				<g>
					<path class="st0" d="M37.1,78.9c-0.8-1.9,1.9-3.2,3.3-3.6c0.8-0.3,1.7-0.4,2.6-0.3c0.7,0.1,4.2,1,2.9,2.4
						c-0.2,0.2,0.1,0.4,0.2,0.2c0.8-0.8,0.2-1.6-0.6-2.1c-1.3-0.9-3-1.1-4.4-0.8c-1.8,0.4-5.2,1.9-4.3,4.2
						C36.8,79.2,37.1,79.1,37.1,78.9L37.1,78.9z"/>
				</g>
			</g>
		</g>
		<g>
			<g>
				<g>
					<path class="st0" d="M39.3,78.9c-0.5,0.3-1,0.6-1.6,0.5c-0.2,0-0.2,0.3,0,0.3c0.7,0.1,1.2-0.2,1.8-0.5
						C39.6,79.1,39.5,78.8,39.3,78.9L39.3,78.9z"/>
				</g>
			</g>
		</g>
		<g>
			<g>
				<g>
					<path class="st0" d="M36.5,78.3c-0.6-0.6-1.5-1.8-1.3-2.7c0.2-0.8,0.9-1,1.6-0.6c0.5,0.3,0.7,0.8,1,1.2c0.1,0.2,0.4,0,0.3-0.2
						c-0.5-0.9-1.8-2.3-2.8-1.3c-1,1,0.4,3,1.1,3.7C36.4,78.7,36.6,78.5,36.5,78.3L36.5,78.3z"/>
				</g>
			</g>
		</g>
		<g>
			<g>
				<g>
					<path class="st0" d="M36.4,74.4c0-0.8,0.9-1.2,1.6-1.1c0.8,0.1,1.4,0.8,1.6,1.6c0.1,0.2,0.4,0.1,0.3-0.1
						c-0.3-1-1.1-1.8-2.1-1.8c-0.8,0-1.6,0.6-1.6,1.4C36.1,74.6,36.4,74.6,36.4,74.4L36.4,74.4z"/>
				</g>
			</g>
		</g>
		<g>
			<g>
				<g>
					<path class="st0" d="M38.9,73.5c0.1-0.9,1.1-1.5,1.9-1.1c0.8,0.4,1,1.3,0.8,2.1c-0.1,0.2,0.3,0.3,0.3,0.1
						c0.3-1-0.2-2.3-1.2-2.6c-1-0.3-2,0.5-2.1,1.4C38.5,73.7,38.8,73.7,38.9,73.5L38.9,73.5z"/>
				</g>
			</g>
		</g>
		<g>
			<g>
				<g>
					<path class="st0" d="M41.2,72.6c0.5-0.7,1.6-0.5,1.8,0.3c0.2,0.6,0.1,1.2-0.1,1.8c-0.1,0.2,0.3,0.3,0.3,0.1
						c0.2-0.8,0.4-1.9-0.3-2.6c-0.6-0.6-1.6-0.5-2.1,0.2C40.9,72.6,41.1,72.8,41.2,72.6L41.2,72.6z"/>
				</g>
			</g>
		</g>
		<g>
			<g>
				<g>
					<path class="st0" d="M43.4,72.7c1.2,0,1.7,1.4,0.8,2.2c-0.2,0.1,0.1,0.4,0.2,0.2c1.1-1,0.4-2.7-1-2.7
						C43.2,72.4,43.2,72.7,43.4,72.7L43.4,72.7z"/>
				</g>
			</g>
		</g>
		<g>
			<g>
				<g>
					<path class="st0" d="M44.8,73.1c1,0.5,1.3,1.7,0.9,2.6c-0.1,0.2,0.2,0.3,0.3,0.2c0.6-1.1,0.2-2.5-1-3
						C44.7,72.8,44.6,73.1,44.8,73.1L44.8,73.1z"/>
				</g>
			</g>
		</g>
		<g>
			<g>
				<g>
					<path class="st0" d="M38.1,79.6c0.2,0.6,0.5,1.1,0.9,1.5c0.2,0.2,0.4,0.4,0.6,0.5c0.2,0.2,0.7,0.3,0.9,0.4
						c0.4,0.4,0,1.3,0.4,1.9c0.3,0.4,0.6,0.5,1,0.4c0.2,0,0.1-0.3-0.1-0.3c-1,0.2-0.7-1.6-0.8-2.1c0-0.1-0.1-0.1-0.1-0.1
						c-1.2-0.4-2-1.2-2.5-2.3C38.3,79.3,38,79.4,38.1,79.6L38.1,79.6z"/>
				</g>
			</g>
		</g>
		<g>
			<g>
				<g>
					<path class="st0" d="M40.3,81.7c0.2-0.9,0.5-1.7,1.1-2.3c0.1-0.2-0.1-0.4-0.2-0.2c-0.6,0.7-1,1.6-1.1,2.5
						C39.9,81.8,40.2,81.9,40.3,81.7L40.3,81.7z"/>
				</g>
			</g>
		</g>
		<g>
			<g>
				<g>
					<path class="st0" d="M37.7,65.1c-1.8,0.6-1.3,3.6,0.8,3.2c0.9-0.2,1.6-0.9,1.5-1.9c-0.2-1-1.2-1.7-2.2-1.5
						c-0.2,0-0.1,0.3,0.1,0.3c0.9-0.2,1.8,0.5,1.8,1.4c0,0.7-0.6,1.3-1.2,1.4c-1.6,0.3-2-2.1-0.6-2.6C38,65.3,37.9,65,37.7,65.1
						L37.7,65.1z"/>
				</g>
			</g>
		</g>
		<g>
			<g>
				<g>
					<path class="st0" d="M39.2,65.4c0.7-1.1,2.4-1,2.9,0.2c0.6,1.6-1.2,2.7-2.5,1.9c-0.2-0.1-0.3,0.2-0.2,0.3c1.5,1,3.6-0.4,3-2.2
						C42,64,39.8,63.9,39,65.2C38.9,65.4,39.1,65.5,39.2,65.4L39.2,65.4z"/>
				</g>
			</g>
		</g>
		<g>
			<g>
				<g>
					<path class="st0" d="M38.7,68.3c0.2,0.4,0.4,0.7,0.5,1.1c0.1,0.1,0.3,0.1,0.3,0c0.1-0.3,0.3-0.6,0.5-0.8
						c0.2-0.1-0.1-0.4-0.2-0.2c-0.3,0.3-0.5,0.6-0.6,0.9c0.1,0,0.2,0,0.3,0c-0.2-0.4-0.4-0.7-0.5-1.1C38.9,68,38.6,68.1,38.7,68.3
						L38.7,68.3z"/>
				</g>
			</g>
		</g>
		<g>
			<g>
				<g>
					<path class="st0" d="M36.7,66.8c-1.3,0.9-2.1,2.3-2,3.9c0,1.3,0.7,3.1,2.2,2.9c0.2,0,0.2-0.3,0-0.3c-1.7,0.2-2-2.2-1.8-3.4
						c0.2-1.2,0.8-2.2,1.8-2.9C37,66.9,36.9,66.6,36.7,66.8L36.7,66.8z"/>
				</g>
			</g>
		</g>
		<g>
			<g>
				<g>
					<path class="st0" d="M44.1,72.6c1.5-1.5,0.9-6.1-1.7-6.2c-0.2,0-0.2,0.3,0,0.3c2.3,0.1,2.8,4.3,1.5,5.6
						C43.8,72.5,44,72.8,44.1,72.6L44.1,72.6z"/>
				</g>
			</g>
		</g>
		<g>
			<g>
				<g>
					<path class="st0" d="M37.9,65c-0.9-1-0.6-2.6,0.6-3.2c-0.1-0.1-0.2-0.2-0.2-0.2c-0.4,0.8-0.8,2.3,0.6,2.5
						c0.1,0,0.2-0.1,0.2-0.2c0-0.4-0.1-1.3,0.7-1.1c0-0.1-0.1-0.1-0.1-0.2c-0.1,0.4-0.2,0.8-0.1,1.2c0,0.1,0.1,0.2,0.2,0.2
						c0.5-0.2,0.8-0.1,1.3,0.1c0.2,0.1,0.3-0.3,0.1-0.3c-0.2-0.1-0.6-0.3-0.8-0.3c-0.2,0-0.4,0.1-0.6,0.2c0.1,0.1,0.1,0.1,0.2,0.2
						c0-0.4,0-0.8,0.1-1.2c0-0.1,0-0.2-0.1-0.2c-0.9-0.2-1.1,0.8-1.1,1.4c0.1-0.1,0.1-0.1,0.2-0.2c-1.1-0.1-0.6-1.5-0.3-2
						c0.1-0.2-0.1-0.3-0.2-0.2c-1.4,0.7-1.7,2.6-0.7,3.7C37.8,65.4,38,65.2,37.9,65L37.9,65z"/>
				</g>
			</g>
		</g>
		<g>
			<g>
				<g>
					<path class="st0" d="M35.5,69.6c0.5,0.9,0.6,2,0.3,3c-0.1,0.2,0.2,0.3,0.3,0.1c0.4-1.1,0.3-2.3-0.3-3.3
						C35.7,69.2,35.4,69.4,35.5,69.6L35.5,69.6z"/>
				</g>
			</g>
		</g>
		<g>
			<g>
				<g>
					<path class="st0" d="M42.8,68.9c-0.6,1-0.2,2.4,0.9,2.9c0.2,0.1,0.4-0.2,0.2-0.3c-0.9-0.4-1.3-1.6-0.8-2.5
						C43.2,68.9,42.9,68.8,42.8,68.9L42.8,68.9z"/>
				</g>
			</g>
		</g>
		<g>
			<g>
				<g>
					<path class="st0" d="M41.2,64c0.2-0.2,0.3-0.4,0.3-0.7c-0.1,0-0.2,0.1-0.3,0.1c0.2,0.3,0.3,0.7,0.2,1c-0.1,0.2,0.3,0.3,0.3,0.1
						c0.1-0.5,0-0.9-0.3-1.3c-0.1-0.1-0.3,0-0.3,0.1c0,0.2-0.1,0.4-0.2,0.5C40.8,63.9,41,64.2,41.2,64L41.2,64z"/>
				</g>
			</g>
		</g>
		<g>
			<g>
				<g>
					<path class="st0" d="M40,69.3c0.1-0.4,0.4-0.7,0.7-0.8c0.2-0.1,0.1-0.4-0.1-0.3c-0.5,0.1-0.9,0.5-1,1
						C39.6,69.4,39.9,69.5,40,69.3L40,69.3z"/>
				</g>
			</g>
		</g>
		<g>
			<g>
				<g>
					<path class="st0" d="M35.8,72.5c0,0-0.1-0.8-0.1-0.9c0-0.3,0-0.7,0-1c0-0.2-0.3-0.2-0.3,0c0,0.5,0,1,0,1.5c0,0.3,0,0.6,0.3,0.7
						C36,72.9,36,72.6,35.8,72.5L35.8,72.5z"/>
				</g>
			</g>
		</g>
		<g>
			<g>
				<g>
					<path class="st0" d="M44,71.7c-0.3-0.5-0.4-1-0.5-1.5c0-0.2-0.3-0.2-0.3,0c0.1,0.6,0.2,1.1,0.5,1.7C43.9,72,44.1,71.9,44,71.7
						L44,71.7z"/>
				</g>
			</g>
		</g>
		<g>
			<g>
				<g>
					<path class="st0" d="M44.1,71.4c0-0.2,0.1-0.3,0.1-0.5c-0.1,0-0.2,0.1-0.3,0.1c0.1,0.1,0.2,0.2,0.3,0.3c0.1,0.1,0.2,0,0.2-0.1
						c0.1-0.3,0.1-0.7,0-1c-0.1-0.2-0.4-0.1-0.3,0.1c0.1,0.3,0.1,0.6,0,0.8c0.1,0,0.2-0.1,0.2-0.1c-0.1-0.1-0.2-0.1-0.3-0.2
						c-0.1-0.1-0.2,0-0.3,0.1c-0.1,0.2-0.1,0.3-0.1,0.5C43.7,71.6,44,71.6,44.1,71.4L44.1,71.4z"/>
				</g>
			</g>
		</g>
		<g>
			<g>
				<g>
					<path class="st0" d="M35.5,72.2c-0.2,0-0.3-0.1-0.3-0.3c0-0.1-0.1-0.2-0.2-0.2c-0.1,0-0.2,0.1-0.2,0.2c0,0.3,0.3,0.6,0.6,0.6
						C35.6,72.5,35.7,72.2,35.5,72.2L35.5,72.2z"/>
				</g>
			</g>
		</g>
		<g>
			<g>
				<g>
					<path class="st0" d="M38,66.7c-0.2-0.1-0.2-0.3,0-0.3S38.3,66.7,38,66.7c-0.2,0-0.2,0.3,0,0.3c0.3,0,0.5-0.2,0.5-0.5
						s-0.2-0.4-0.4-0.5c-0.2,0-0.5,0.1-0.5,0.3c-0.1,0.2,0.1,0.5,0.3,0.6C38.1,67.1,38.2,66.8,38,66.7L38,66.7z"/>
				</g>
			</g>
		</g>
		<g>
			<g>
				<g>
					<path class="st0" d="M40.7,66.3c-0.1,0-0.1-0.2,0-0.2C40.8,66.2,40.8,66.3,40.7,66.3c-0.2,0.1-0.1,0.4,0.1,0.3
						c0.4-0.1,0.4-0.8-0.1-0.8s-0.5,0.6-0.1,0.8C40.8,66.7,40.9,66.4,40.7,66.3L40.7,66.3z"/>
				</g>
			</g>
		</g>
		<g>
			<g>
				<g>
					<path class="st0" d="M43.2,72.7C43.3,72.6,43.3,72.6,43.2,72.7c0.3-0.2,0.1-0.4-0.1-0.3c0,0-0.1,0-0.1,0.1
						C42.9,72.5,43.1,72.8,43.2,72.7L43.2,72.7z"/>
				</g>
			</g>
		</g>
		<g>
			<g>
				<g>
					<path class="st0" d="M44.7,73.1c0.2,0,0.2-0.3,0-0.3C44.5,72.8,44.5,73.1,44.7,73.1L44.7,73.1z"/>
				</g>
			</g>
		</g>
		<g>
			<g>
				<g>
					<path class="st0" d="M39.8,75.2c0.2,0,0.2-0.3,0-0.3S39.6,75.2,39.8,75.2L39.8,75.2z"/>
				</g>
			</g>
		</g>
		<g>
			<g>
				<g>
					<path class="st0" d="M36.8,74.6c0.1-0.7,1.2-1,1.7-0.6c0.4,0.3,0.6,0.9,0.7,1.4c0.1,0.2,0.4,0.1,0.3-0.1
						c-0.2-0.8-0.6-1.7-1.5-1.8c-0.8-0.1-1.5,0.3-1.6,1.1C36.5,74.8,36.8,74.8,36.8,74.6L36.8,74.6z"/>
				</g>
			</g>
		</g>
		<g>
			<g>
				<g>
					<path class="st0" d="M41.5,72.8c0.3-0.1,0.6-0.3,0.9-0.1c0.2,0.1,0.3,0.4,0.3,0.7c0.1,0.4-0.1,0.9-0.2,1.3c0,0.2,0.3,0.2,0.3,0
						c0.1-0.7,0.4-1.4-0.1-2c-0.4-0.5-0.9-0.4-1.4-0.2C41.2,72.6,41.4,72.9,41.5,72.8L41.5,72.8z"/>
				</g>
			</g>
		</g>
		<g>
			<g>
				<g>
					<path class="st0" d="M41,82.1c0-0.2,0.1-0.4,0.3-0.6s0-0.4-0.2-0.3c-0.3,0.2-0.4,0.5-0.4,0.8C40.7,82.3,41.1,82.3,41,82.1
						L41,82.1z"/>
				</g>
			</g>
		</g>
		<g>
			<g>
				<g>
					<path class="st0" d="M41.1,83.8c0.1-0.4,0.3-0.7,0.6-1c0.2-0.1-0.1-0.4-0.2-0.2c-0.3,0.3-0.6,0.7-0.7,1.1
						C40.8,83.9,41.1,84,41.1,83.8L41.1,83.8z"/>
				</g>
			</g>
		</g>
		<g>
			<g>
				<g>
					<path class="st0" d="M39.1,80.8c0.2-0.5,0.5-0.9,0.9-1.1c0.2-0.1,0-0.4-0.2-0.3c-0.5,0.3-0.9,0.8-1.1,1.3
						C38.7,80.9,39,81,39.1,80.8L39.1,80.8z"/>
				</g>
			</g>
		</g>
		<g>
			<g>
				<g>
					<path class="st0" d="M42.9,83.4c-0.3-0.6-0.5-1.3-0.5-2c-0.1-0.5,0.1-2.2,1-1.9c0.7,0.3,0.8,2,0.8,2.6c0,0.2,0.3,0.2,0.3,0
						c0-0.8-0.2-3-1.3-3c-0.7,0-1,0.9-1.1,1.4c-0.1,1,0.2,2,0.5,2.9C42.7,83.6,43,83.6,42.9,83.4L42.9,83.4z"/>
				</g>
			</g>
		</g>
		<g>
			<g>
				<g>
					<path class="st0" d="M40.8,78.2c0.5-0.5,3.6-0.9,3.6,0.2c0,0.2,0.3,0.2,0.3,0c-0.1-1.4-3.5-1.1-4.1-0.4
						C40.4,78.1,40.6,78.3,40.8,78.2L40.8,78.2z"/>
				</g>
			</g>
		</g>
		<g>
			<g>
				<g>
					<path class="st0" d="M42.2,86.1c0,0.4-0.1,3.6,0.8,3.4c0.4-0.1,0.4-1.3,0.5-1.7c0.2-1.1,0.3-2.1,0.2-3.2c0-0.2-0.3-0.2-0.3,0
						c0,1.3-0.1,2.6-0.4,3.8c0,0.1-0.2,0.7-0.2,0.7c-0.1-0.1-0.1-0.8-0.2-1c-0.1-0.7-0.1-1.4-0.2-2.1C42.5,85.9,42.2,85.9,42.2,86.1
						L42.2,86.1z"/>
				</g>
			</g>
		</g>
		<g>
			<g>
				<g>
					<path class="st0" d="M42.5,86.2c0-0.3,0.1-0.6,0.3-0.9c0.1-0.2,0.4-0.8,0.7-0.7c0.2,0.1,0.3-0.2,0.2-0.3
						c-0.4-0.3-0.7,0.1-0.9,0.4c-0.3,0.4-0.6,0.9-0.6,1.4C42.2,86.4,42.5,86.4,42.5,86.2L42.5,86.2z"/>
				</g>
			</g>
		</g>
		<g>
			<g>
				<g>
					<path class="st0" d="M46.8,84c0.1,0,0.1,0.1,0.1,0.1c0.2,0.1,0.4-0.1,0.2-0.2c-0.1,0-0.1-0.1-0.1-0.1
						C46.9,83.7,46.6,83.9,46.8,84L46.8,84z"/>
				</g>
			</g>
		</g>
		<g>
			<g>
				<g>
					<path class="st0" d="M46.8,84C46.8,84,46.9,84,46.8,84c0.2,0,0.2-0.3,0-0.3h0C46.6,83.7,46.6,84,46.8,84L46.8,84z"/>
				</g>
			</g>
		</g>
		<g>
			<g>
				<g>
					<path class="st0" d="M45.2,76.7c0.1,0,0.3,0.4,0.3,0.5c0.1,0.2,0.2,0.4,0.2,0.6c0.1,0.2,0.4,0.1,0.3-0.1
						c-0.1-0.3-0.2-0.6-0.3-0.8c-0.1-0.2-0.3-0.4-0.5-0.5C45,76.4,45,76.7,45.2,76.7L45.2,76.7z"/>
				</g>
			</g>
		</g>
		<g>
			<g>
				<g>
					<path class="st0" d="M36.8,79.1c0.2,0.3,0.4,0.5,0.7,0.6c0.2,0.1,0.3-0.2,0.1-0.3c-0.2-0.1-0.4-0.2-0.5-0.4
						C37,78.8,36.7,78.9,36.8,79.1L36.8,79.1z"/>
				</g>
			</g>
		</g>
		<g>
			<g>
				<g>
					<path class="st0" d="M40.4,78.1c-0.1,0.2,0,0.4,0.2,0.6c0.2,0.2,0.5,0.3,0.7,0.4c0.2,0.1,0.4-0.1,0.2-0.2
						c-0.2-0.1-0.3-0.2-0.5-0.3c-0.2-0.1-0.3-0.2-0.3-0.4C40.8,78,40.5,77.9,40.4,78.1L40.4,78.1z"/>
				</g>
			</g>
		</g>
		<g>
			<g>
				<g>
					<path class="st0" d="M44.5,78.7c0.2,0,0.2-0.3,0-0.3C44.3,78.4,44.3,78.7,44.5,78.7L44.5,78.7z"/>
				</g>
			</g>
		</g>
		<g>
			<g>
				<g>
					<path class="st0" d="M36.3,78.6c0.1,0.1,0.2,0.2,0.3,0.2c0.2,0.1,0.4-0.2,0.2-0.3c-0.1,0-0.1-0.1-0.2-0.1
						C36.5,78.3,36.2,78.4,36.3,78.6L36.3,78.6z"/>
				</g>
			</g>
		</g>
		<g>
			<g>
				<g>
					<path class="st0" d="M41.8,83.8C41.9,83.8,41.9,83.8,41.8,83.8c0.2,0.3,0.4,0.1,0.3-0.1c0,0,0-0.1-0.1-0.1
						C42,83.5,41.7,83.6,41.8,83.8L41.8,83.8z"/>
				</g>
			</g>
		</g>
		<g>
			<g>
				<g>
					<path class="st0" d="M51.3,99.6c0.2-1.1,0.6-2.2,1.2-3.1c-0.1,0-0.2-0.1-0.3-0.1c0,0.7,0.1,1.3,0.1,2c0,0.1,0.2,0.2,0.3,0.1
						c0.2-0.2,0.3-0.3,0.5-0.5c0.2-0.1-0.1-0.4-0.2-0.2c-0.2,0.2-0.3,0.3-0.5,0.5c0.1,0,0.2,0.1,0.3,0.1c0-0.7-0.1-1.3-0.1-2
						c0-0.2-0.2-0.2-0.3-0.1c-0.6,1-1,2.1-1.2,3.2C51,99.7,51.3,99.8,51.3,99.6L51.3,99.6z"/>
				</g>
			</g>
		</g>
		<g>
			<g>
				<g>
					<path class="st0" d="M47.1,76.9c2.5,2.6,5.7,4.1,9,5.6c3.9,1.7,7.9,3.4,11.8,5c1.7,0.7,3.3,1,5.1,0.8c1.8-0.3,3.6-0.8,5.3-1.4
						c3.3-1.2,6.5-2.7,9.4-4.7c3.4-2.2,6.4-4.9,9-8.1c0.1-0.2-0.1-0.4-0.2-0.2c-5.7,6.7-13.5,11.7-22.1,13.8
						c-1.4,0.3-2.7,0.5-4.1,0.3c-1.3-0.2-2.5-0.8-3.6-1.3c-2.5-1.1-4.9-2.1-7.4-3.2c-4.2-1.8-8.8-3.4-12.1-6.8
						C47.2,76.5,47,76.8,47.1,76.9L47.1,76.9z"/>
				</g>
			</g>
		</g>
		<g>
			<g>
				<g>
					<path class="st0" d="M59.2,126c0.1,1.4,0.3,3,1.7,3.7c1.8,0.9,3.8-0.2,5.6-0.2c0.2,0,0.2-0.3,0-0.3c-1.4-0.1-2.7,0.5-4,0.5
						c-2.3-0.1-2.8-1.8-3-3.7C59.5,125.8,59.2,125.8,59.2,126L59.2,126z"/>
				</g>
			</g>
		</g>
		<g>
			<g>
				<g>
					<path class="st0" d="M73.5,129.4c2.3,0.8,5,1.2,7.4,0.5c2.2-0.7,3.6-2.4,4.9-4.1c0.1-0.2-0.2-0.3-0.3-0.2
						c-1.4,1.8-2.8,3.5-5.1,4.1c-2.2,0.5-4.6,0.2-6.8-0.6C73.4,129,73.4,129.3,73.5,129.4L73.5,129.4z"/>
				</g>
			</g>
		</g>
		<g>
			<g>
				<g>
					<path class="st0" d="M94.9,123c0.2,0.6,0.7,1.2,1.4,1.2c0.6,0,1.1-0.6,1-1.2c-0.1-0.2-0.4-0.1-0.3,0.1c0.1,0.6-0.5,0.9-1,0.8
						c-0.4-0.1-0.7-0.5-0.8-0.9C95.1,122.7,94.8,122.8,94.9,123L94.9,123z"/>
				</g>
			</g>
		</g>
		<g>
			<g>
				<g>
					<path class="st0" d="M99.3,80.6c0.2-0.1,0.5-0.1,0.7-0.2c-0.1-0.1-0.1-0.1-0.2-0.2c0.1,1.9,2.9,1,3.8,2
						c0.1,0.2,0.4-0.1,0.2-0.2c-0.4-0.5-0.9-0.6-1.5-0.7c-0.8-0.1-2.2,0-2.2-1.1c0-0.1-0.1-0.2-0.2-0.2c-0.2,0.1-0.5,0.1-0.7,0.2
						C99,80.3,99.1,80.6,99.3,80.6L99.3,80.6z"/>
				</g>
			</g>
		</g>
		<g>
			<g>
				<g>
					<path class="st0" d="M64.4,39.8c0.4,1.6,0.9,3.1,1.4,4.6c0.1,0.2,0.4,0.1,0.3-0.1c-0.6-1.5-1.1-3-1.4-4.6
						C64.7,39.5,64.4,39.6,64.4,39.8L64.4,39.8z"/>
				</g>
			</g>
		</g>
		<g>
			<g>
				<g>
					<path class="st0" d="M75.2,44.2c0.3-1.4,0.7-2.8,1-4.2c0.1-0.2-0.3-0.3-0.3-0.1c-0.3,1.4-0.7,2.8-1,4.2
						C74.8,44.3,75.1,44.4,75.2,44.2L75.2,44.2z"/>
				</g>
			</g>
		</g>
		<g>
			<g>
				<g>
					<path class="st0" d="M59.4,46.9c-0.6-0.9-1.2-1.8-1.9-2.6c-0.1-0.2-0.4,0.1-0.2,0.2c0.7,0.8,1.3,1.6,1.9,2.5
						C59.2,47.3,59.5,47.1,59.4,46.9L59.4,46.9z"/>
				</g>
			</g>
		</g>
		<g>
			<g>
				<g>
					<path class="st0" d="M56.2,49.2c-0.4-0.4-0.9-0.8-1.3-1.2c-0.2-0.1-0.4,0.1-0.2,0.2c0.4,0.4,0.9,0.8,1.3,1.2
						C56.1,49.6,56.3,49.4,56.2,49.2L56.2,49.2z"/>
				</g>
			</g>
		</g>
		<g>
			<g>
				<g>
					<path class="st0" d="M81.4,46.6c0.6-1.2,1.1-2.3,1.7-3.4c0.1-0.2-0.2-0.4-0.3-0.2c-0.6,1.2-1.1,2.3-1.7,3.4
						C81.1,46.6,81.3,46.7,81.4,46.6L81.4,46.6z"/>
				</g>
			</g>
		</g>
		<g>
			<g>
				<g>
					<path class="st0" d="M37.5,36.3c-0.6,0.4-1.2-0.4-0.7-0.9C37.4,35,38,35.8,37.5,36.3c-0.1,0.1,0.1,0.3,0.3,0.2
						c0.3-0.3,0.3-0.9,0.1-1.2c-0.3-0.4-0.8-0.4-1.2-0.1c-0.4,0.3-0.5,0.8-0.2,1.2c0.3,0.4,0.8,0.5,1.2,0.2
						C37.8,36.5,37.6,36.2,37.5,36.3L37.5,36.3z"/>
				</g>
			</g>
		</g>
		<g>
			<g>
				<g>
					<path class="st0" d="M49.5,22c-0.3,0-0.6-0.2-0.7-0.5c-0.1-0.3,0.2-0.5,0.4-0.6c0.6-0.2,0.9,0.6,0.5,1
						c-0.2,0.1,0.1,0.4,0.2,0.2c0.7-0.6,0.1-1.8-0.8-1.5c-0.4,0.1-0.7,0.5-0.6,0.9c0.1,0.5,0.5,0.8,1,0.8C49.7,22.3,49.7,22,49.5,22
						L49.5,22z"/>
				</g>
			</g>
		</g>
		<g>
			<g>
				<g>
					<path class="st0" d="M73.7,15.4c-0.6-0.2-0.5-1.2,0.2-1.1c0.8,0.1,0.6,1.3-0.1,1.3c-0.2,0-0.2,0.4,0,0.3c0.5-0.1,0.9-0.5,1-1
						c0.1-0.5-0.4-0.9-0.8-1c-0.5-0.1-0.9,0.2-1,0.7c-0.1,0.4,0.2,0.9,0.6,1C73.8,15.8,73.9,15.4,73.7,15.4L73.7,15.4z"/>
				</g>
			</g>
		</g>
		<g>
			<g>
				<g>
					<path class="st0" d="M90.6,17.7c-0.5-0.2-0.4-1,0.2-0.9c0.2,0,0.5,0.2,0.4,0.4c0,0.3-0.2,0.5-0.5,0.5c-0.2,0-0.2,0.3,0,0.3
						c0.4,0,0.8-0.4,0.8-0.8c0-0.4-0.3-0.7-0.7-0.8c-0.4-0.1-0.8,0.2-0.8,0.6c-0.1,0.4,0.2,0.8,0.5,0.9
						C90.7,18.1,90.8,17.8,90.6,17.7L90.6,17.7z"/>
				</g>
			</g>
		</g>
		<g>
			<g>
				<g>
					<path class="st0" d="M103.2,30.8c-0.1-0.3,0.1-0.6,0.4-0.7c0.3-0.1,0.5,0.1,0.6,0.4c0.2,0.6-0.6,0.8-0.9,0.4
						c-0.1-0.2-0.4,0-0.3,0.2c0.5,0.8,1.8,0.2,1.5-0.7c-0.2-0.4-0.6-0.7-1-0.5c-0.4,0.1-0.7,0.6-0.6,1C103,31.1,103.3,31,103.2,30.8
						L103.2,30.8z"/>
				</g>
			</g>
		</g>
		<g>
			<g>
				<g>
					<path class="st0" d="M97,73.5c-1.1,1.3-2.5,2.8-2.2,4.7c0.2,1.2,1,2.2,2.3,2.4c0.2,0,0.2-0.3,0-0.3c-1.6-0.2-2.2-1.9-1.9-3.3
						c0.3-1.3,1.2-2.2,2-3.2C97.4,73.6,97.2,73.4,97,73.5L97,73.5z"/>
				</g>
			</g>
		</g>
		<g>
			<g>
				<g>
					<path class="st0" d="M96.9,75.3c-0.8,0.5-1.2,1.4-1.1,2.3c0.1,0.6,0.7,1.8,1.4,1.2c0.2-0.1-0.1-0.4-0.2-0.2
						c-0.4,0.3-0.8-0.5-0.8-0.7c-0.1-0.3-0.1-0.6,0-0.9c0.1-0.6,0.4-1,0.9-1.3C97.2,75.5,97.1,75.2,96.9,75.3L96.9,75.3z"/>
				</g>
			</g>
		</g>
		<g>
			<g>
				<g>
					<path class="st0" d="M97.3,76.9c-0.5-0.1-1,0.3-0.9,0.8c0.1,0.2,0.2,0.4,0.4,0.5c0.1,0.1,0.2,0.1,0.4,0
						c0.2-0.1,0.3-0.3,0.4-0.4c0.2-0.1-0.1-0.4-0.2-0.2c-0.1,0.1-0.2,0.2-0.4,0.3c0,0,0.1,0,0.1-0.1c-0.2,0-0.4-0.2-0.4-0.5
						c0.1-0.2,0.3-0.3,0.5-0.3C97.4,77.2,97.5,76.9,97.3,76.9L97.3,76.9z"/>
				</g>
			</g>
		</g>
		<g>
			<g>
				<g>
					<path class="st0" d="M94.5,77.3c-1,1.3-2.2,2.3-3.5,3.1c-0.2,0.1,0,0.4,0.2,0.3c1.4-0.8,2.7-1.9,3.7-3.2
						C94.9,77.3,94.7,77.2,94.5,77.3L94.5,77.3z"/>
				</g>
			</g>
		</g>
		<g>
			<g>
				<g>
					<path class="st0" d="M94.7,78.9c-0.7,0.8-1.6,1.4-2.5,1.9c-0.2,0.1,0,0.4,0.2,0.3c1-0.5,1.8-1.2,2.6-1.9
						C95.1,79,94.9,78.7,94.7,78.9L94.7,78.9z"/>
				</g>
			</g>
		</g>
		<g>
			<g>
				<g>
					<path class="st0" d="M95.1,79.8c-0.3,0.4-0.6,0.7-0.9,1.1c-0.1,0.2,0.1,0.4,0.2,0.2c0.3-0.4,0.6-0.7,0.9-1.1
						C95.4,79.8,95.2,79.6,95.1,79.8L95.1,79.8z"/>
				</g>
			</g>
		</g>
		<g>
			<g>
				<g>
					<path class="st0" d="M97.8,108.9c0.2-0.6,0.3-1.2,0.4-1.8c0.1-0.2-0.3-0.3-0.3-0.1c-0.2,0.6-0.3,1.2-0.4,1.8
						C97.5,109,97.8,109.1,97.8,108.9L97.8,108.9z"/>
				</g>
			</g>
		</g>
		<g>
			<g>
				<g>
					<path class="st0" d="M49.2,85.4c0.4,1.7,0.6,3.4,0.7,5.1c0,0.2,0.3,0.2,0.3,0c-0.1-1.8-0.3-3.5-0.7-5.2
						C49.4,85.1,49.1,85.2,49.2,85.4L49.2,85.4z"/>
				</g>
			</g>
		</g>
		<g>
			<g>
				<g>
					<path class="st0" d="M101.6,92.1c0.2,1.8,0.2,3.7-0.1,5.5c-0.1,0.8-0.3,1.6-0.6,2.4c-0.1,0.4-0.3,0.9-0.4,1.3
						c-0.1,0.2-0.2,0.5-0.3,0.7c-0.3,0.7-0.8,0.8-1.8,0.5c-0.1-0.2-0.4-0.1-0.3,0.1c0.2,0.5,0.7,0.8,1.2,0.7
						c0.9-0.2,1.2-1.2,1.5-1.9c1.1-2.9,1.5-6.1,1.1-9.2C101.9,91.9,101.6,91.9,101.6,92.1L101.6,92.1z"/>
				</g>
			</g>
		</g>
		<g>
			<g>
				<g>
					<path class="st0" d="M59.9,38.7C60,38.7,60,38.7,59.9,38.7c0.3,0,0.3-0.3,0.1-0.3c0,0,0,0-0.1,0C59.7,38.4,59.7,38.7,59.9,38.7
						L59.9,38.7z"/>
				</g>
			</g>
		</g>
		<g>
			<g>
				<g>
					<path class="st0" d="M57.7,40c0.1,0.1,0.1,0.3,0.2,0.4c0.1,0.2,0.4,0.1,0.3-0.1c-0.1-0.1-0.1-0.3-0.2-0.4
						C57.9,39.7,57.6,39.8,57.7,40L57.7,40z"/>
				</g>
			</g>
		</g>
		<g>
			<g>
				<g>
					<path class="st0" d="M61.5,37.5c0.1,0,0.1,0,0.1,0.1c0.1,0.2,0.4-0.1,0.2-0.2c-0.1-0.1-0.2-0.2-0.4-0.2
						C61.2,37.2,61.2,37.5,61.5,37.5L61.5,37.5z"/>
				</g>
			</g>
		</g>
		<g>
			<g>
				<g>
					<path class="st0" d="M71.8,34.5c-0.1,0.1-0.1,0.2-0.1,0.4c0.1,0.2,0.4,0.1,0.3-0.1c0-0.1,0-0.1,0-0.1
						C72.2,34.5,71.9,34.4,71.8,34.5L71.8,34.5z"/>
				</g>
			</g>
		</g>
		<g>
			<g>
				<g>
					<path class="st0" d="M81.3,37.3c-0.1,0.1-0.1,0.3-0.1,0.4c-0.1,0.2,0.2,0.3,0.3,0.1c0.1-0.1,0.1-0.3,0.1-0.4
						C81.7,37.2,81.4,37.1,81.3,37.3L81.3,37.3z"/>
				</g>
			</g>
		</g>
		<g>
			<g>
				<g>
					<path class="st0" d="M53.8,51.8c0,0,0.1,0,0.1,0.1c0.2,0.1,0.3-0.2,0.2-0.3c0,0-0.1,0-0.1-0.1C53.8,51.5,53.6,51.7,53.8,51.8
						L53.8,51.8z"/>
				</g>
			</g>
		</g>
		<g>
			<g>
				<g>
					<path class="st0" d="M70.3,47.4c0.2-0.4,0.3-0.8,0.5-1.1c0.1-0.2-0.2-0.3-0.3-0.1c-0.2,0.4-0.3,0.8-0.5,1.1
						C69.9,47.5,70.3,47.6,70.3,47.4L70.3,47.4z"/>
				</g>
			</g>
		</g>
		<g>
			<g>
				<g>
					<path class="st0" d="M69.6,46.8c0.4-0.3,0.7-0.5,1.1-0.7c0.2-0.1,0-0.4-0.2-0.3c-0.4,0.2-0.7,0.4-1.1,0.7
						C69.3,46.7,69.4,46.9,69.6,46.8L69.6,46.8z"/>
				</g>
			</g>
		</g>
		<g>
			<g>
				<g>
					<path class="st0" d="M70.5,46.1c0.3,0.5,0.6,0.9,0.9,1.3c0.1,0.2,0.4-0.1,0.2-0.2c-0.3-0.4-0.6-0.8-0.9-1.2
						C70.6,45.8,70.4,45.9,70.5,46.1L70.5,46.1z"/>
				</g>
			</g>
		</g>
		<g>
			<g>
				<g>
					<path class="st0" d="M70.4,46.2c0.4,0.6,1,0.9,1.7,1.1c0.2,0.1,0.3-0.3,0.1-0.3c-0.6-0.1-1.1-0.4-1.5-0.9
						C70.6,45.9,70.3,46,70.4,46.2L70.4,46.2z"/>
				</g>
			</g>
		</g>
		<g>
			<g>
				<g>
					<path class="st0" d="M53.7,53c0.1,0,0.2-0.1,0.3-0.1c0.2-0.1,0.1-0.4-0.1-0.3c-0.1,0-0.2,0.1-0.3,0.1
						C53.4,52.7,53.5,53,53.7,53L53.7,53z"/>
				</g>
			</g>
		</g>
		<g>
			<g>
				<g>
					<path class="st0" d="M52.8,53.9c0.3-0.3,0.6-0.6,0.8-0.8c0.2-0.2-0.1-0.4-0.2-0.2c-0.3,0.3-0.6,0.6-0.8,0.8
						C52.4,53.8,52.6,54,52.8,53.9L52.8,53.9z"/>
				</g>
			</g>
		</g>
		<g>
			<g>
				<g>
					<path class="st0" d="M89.9,50c0-0.1,0.1-0.1,0.1-0.2c0.1-0.2-0.2-0.3-0.3-0.2c0,0.1-0.1,0.1-0.1,0.2C89.5,50,89.8,50.1,89.9,50
						L89.9,50z"/>
				</g>
			</g>
		</g>
		<g>
			<g>
				<g>
					<path class="st0" d="M89.8,50.1c0.1-0.1,0.1-0.2,0.2-0.3c0.1-0.2-0.2-0.4-0.3-0.2c-0.1,0.1-0.1,0.2-0.2,0.3
						C89.4,50.1,89.7,50.2,89.8,50.1L89.8,50.1z"/>
				</g>
			</g>
		</g>
		<g>
			<g>
				<g>
					<path class="st0" d="M44,114.9c-1.1,0.2-2.2,0.5-3.2,0.7c-0.1,0-0.1,0.1-0.1,0.2c-0.1,4-0.2,8.1-0.2,12.2c0,0.2,0.3,0.2,0.3,0
						c0.1-2.5,0.1-5,0.2-7.5c0-1.2-0.2-2.5,0.1-3.6c0.2-0.9,0.4-0.9,1.3-1.1c0.6-0.1,1.2-0.3,1.9-0.4
						C44.3,115.1,44.2,114.8,44,114.9L44,114.9z"/>
				</g>
			</g>
		</g>
		<g>
			<g>
				<g>
					<path class="st0" d="M40.2,123.6c-2,0.1-3.9,0.1-5.8-0.2c-0.1,0-0.2,0.1-0.2,0.2c0.3,1.6,0.4,3.1,0.3,4.6c0,0.2,0.3,0.2,0.3,0
						c0.1-0.9,0.1-1.7,0-2.6c0-0.5-0.4-1.6,0-1.9c0.2-0.1,1.1,0.1,1.4,0.1c0.5,0,0.9,0.1,1.4,0.1c0.9,0,1.8,0,2.7-0.1
						C40.4,123.9,40.4,123.6,40.2,123.6L40.2,123.6z"/>
				</g>
			</g>
		</g>
		<g>
			<g>
				<g>
					<path class="st0" d="M34.2,126.6c-2.3-0.2-4.5-0.3-6.8-0.5c-0.1,0-0.2,0.1-0.2,0.2c0.2,0.7,0.3,1.3,0.3,1.9
						c0,0.2,0.3,0.2,0.3,0c0-0.4-0.2-1.1-0.1-1.4c0.2-0.6,1.3-0.3,1.9-0.2c1.5,0.1,3.1,0.2,4.6,0.3
						C34.4,126.9,34.4,126.6,34.2,126.6L34.2,126.6z"/>
				</g>
			</g>
		</g>
		<g>
			<g>
				<g>
					<path class="st0" d="M30.4,116.9c0.3,3.2,0.3,6.5,0,9.7c0,0.2,0.3,0.2,0.3,0c0.2-3.2,0.2-6.5,0-9.7
						C30.7,116.7,30.4,116.7,30.4,116.9L30.4,116.9z"/>
				</g>
			</g>
		</g>
		<g>
			<g>
				<g>
					<path class="st0" d="M31.1,116.6c1-0.3,2-0.4,3-0.4c0.5,0,0.9,0,1.3,0.1c1.1,0.1,1.4,0.4,1.4,1.4c0,2-0.1,3.9-0.3,5.9
						c0,0.2,0.3,0.2,0.3,0c0.1-1.4,0.2-2.8,0.3-4.2c0-0.8,0.4-2.4-0.2-3c-0.4-0.5-1.6-0.4-2.2-0.4c-1.3-0.1-2.5,0.1-3.8,0.4
						C30.8,116.4,30.9,116.7,31.1,116.6L31.1,116.6z"/>
				</g>
			</g>
		</g>
		<g>
			<g>
				<g>
					<path class="st0" d="M99.1,115.1c1.6-0.1,3.2-0.2,4.9-0.3c0.8-0.1,1.6-0.2,2.4-0.1c0.6,0,1.2,0,1.3,0.7c0.1,0.4,0,0.9,0,1.3
						c-0.1,3.2-0.1,6.5-0.2,9.7c0,0.2,0.3,0.2,0.3,0c0.1-2,0.1-4.1,0.1-6.1c0-1.1,0.1-2.1,0.1-3.2c0-0.7,0.2-1.5,0-2.1
						c-0.4-1.1-1.7-0.6-2.6-0.6c-2.1,0.1-4.2,0.2-6.3,0.4C98.9,114.8,98.9,115.1,99.1,115.1L99.1,115.1z"/>
				</g>
			</g>
		</g>
		<g>
			<g>
				<g>
					<path class="st0" d="M107.9,123.6c0.7-0.2,1.4-0.4,2.2-0.5c0.6-0.1,2-0.5,2.6-0.3c0.8,0.3,0.6,1.5,0.6,2.1c0,0.8,0,1.6,0,2.4
						c0,0.2,0.3,0.2,0.3,0c0-1.1,0-2.1,0-3.2c0-0.5,0.2-1.2-0.4-1.6c-0.6-0.4-1.7,0-2.3,0c-1,0.1-2,0.3-3,0.6
						C107.6,123.4,107.7,123.7,107.9,123.6L107.9,123.6z"/>
				</g>
			</g>
		</g>
		<g>
			<g>
				<g>
					<path class="st0" d="M110.3,119.7c0.2,0.9,0.3,1.9,0.3,2.8c0,0.2,0.3,0.2,0.3,0c0-1-0.2-1.9-0.3-2.9
						C110.5,119.5,110.2,119.6,110.3,119.7L110.3,119.7z"/>
				</g>
			</g>
		</g>
		<g>
			<g>
				<g>
					<path class="st0" d="M110.5,120c1.3-0.1,2.7-0.2,4-0.3c0.7-0.1,1.3-0.1,2-0.1c0.3,0,0.7-0.1,1-0.1c0.4-0.2,0.7,0,0.9,0.4
						c0.7,0.9,0.1,2.8,0,3.9c-0.2,1.3-0.3,2.7-0.4,4c0,0.2,0.3,0.2,0.3,0c0.2-1.7,0.4-3.3,0.5-5c0.1-0.8,0.8-2.9,0-3.5
						c-0.6-0.5-2.3-0.1-3,0c-1.7,0.1-3.5,0.2-5.2,0.3C110.3,119.7,110.3,120,110.5,120L110.5,120z"/>
				</g>
			</g>
		</g>
		<g>
			<g>
				<g>
					<path class="st0" d="M101.3,117.8c-0.5-0.2-0.2-1.1,0.4-0.8c0.7,0.3,0.2,1.2-0.4,1c-0.2-0.1-0.3,0.3-0.1,0.3
						c0.4,0.1,0.9-0.1,1.1-0.5c0.2-0.4-0.1-0.9-0.5-1.1c-0.4-0.2-0.8,0-1,0.4c-0.2,0.4,0,0.8,0.4,1
						C101.3,118.1,101.5,117.9,101.3,117.8L101.3,117.8z"/>
				</g>
			</g>
		</g>
		<g>
			<g>
				<g>
					<path class="st0" d="M104.3,117.8c-0.4-0.4,0.2-1.1,0.7-0.8c0.6,0.4,0.1,1.1-0.5,0.9c-0.2-0.1-0.3,0.2-0.1,0.3
						c0.4,0.2,0.9-0.1,1.1-0.4c0.2-0.4,0-0.8-0.3-1c-0.8-0.5-1.6,0.6-1,1.3C104.2,118.2,104.4,118,104.3,117.8L104.3,117.8z"/>
				</g>
			</g>
		</g>
		<g>
			<g>
				<g>
					<path class="st0" d="M101.4,121.9c-0.2-0.6,0.6-1.1,1-0.5c0.4,0.6-0.4,1.1-0.9,0.7c-0.2-0.1-0.4,0.1-0.2,0.2
						c0.8,0.6,1.9-0.2,1.4-1.1c-0.2-0.4-0.7-0.6-1.1-0.4c-0.4,0.2-0.7,0.7-0.5,1.1C101.2,122.2,101.5,122.1,101.4,121.9L101.4,121.9
						z"/>
				</g>
			</g>
		</g>
		<g>
			<g>
				<g>
					<path class="st0" d="M104.2,122.1c-0.1-0.5,0.7-0.8,1-0.5c0.4,0.4-0.3,1.1-0.7,0.9c-0.2-0.1-0.3,0.2-0.2,0.3
						c0.8,0.4,1.7-0.7,1.1-1.4c-0.6-0.6-1.7,0-1.6,0.8C104,122.4,104.3,122.3,104.2,122.1L104.2,122.1z"/>
				</g>
			</g>
		</g>
		<g>
			<g>
				<g>
					<path class="st0" d="M112.4,121.6c-0.4-0.3,0.2-0.9,0.6-0.8c0.5,0.2,0.5,0.8,0.4,1.2c-0.1,0.2,0.2,0.3,0.3,0.1
						c0.3-0.6-0.1-1.7-0.9-1.7c-0.7,0.1-1.1,1-0.5,1.4C112.4,122,112.6,121.8,112.4,121.6L112.4,121.6z"/>
				</g>
			</g>
		</g>
		<g>
			<g>
				<g>
					<path class="st0" d="M116.3,122.8c-0.8-0.3-1-1.6,0-1.7c0.4-0.1,0.8,0.2,0.9,0.6c0.1,0.4-0.1,0.8-0.2,1.2
						c-0.1,0.2,0.3,0.3,0.3,0.1c0.2-0.6,0.4-1.3,0-1.8c-0.3-0.4-0.8-0.6-1.3-0.4c-1.2,0.4-0.9,1.9,0.2,2.3
						C116.4,123.2,116.5,122.9,116.3,122.8L116.3,122.8z"/>
				</g>
			</g>
		</g>
		<g>
			<g>
				<g>
					<path class="st0" d="M115.3,126.6c-0.3-0.1-0.4-0.4-0.4-0.7c0.1-0.4,0.4-0.6,0.7-0.6c0.9,0,1.1,1,0.8,1.6
						c-0.1,0.2,0.2,0.3,0.3,0.2c0.5-0.9-0.1-2.3-1.2-2c-1,0.2-1.1,1.5-0.2,1.9C115.4,127,115.5,126.7,115.3,126.6L115.3,126.6z"/>
				</g>
			</g>
		</g>
		<g>
			<g>
				<g>
					<path class="st0" d="M32,120.5c-0.3-0.9-0.3-1.8,0-2.6c-0.1,0-0.2,0-0.3,0c0.4,0.8,0.5,1.6,0.3,2.4c-0.1,0.2,0.3,0.3,0.3,0.1
						c0.2-0.9,0.1-1.8-0.4-2.6c-0.1-0.1-0.3-0.1-0.3,0c-0.3,0.9-0.3,1.9,0,2.8C31.8,120.7,32.1,120.7,32,120.5L32,120.5z"/>
				</g>
			</g>
		</g>
		<g>
			<g>
				<g>
					<path class="st0" d="M34.7,120c-0.4-0.8-0.3-1.6,0.2-2.3c-0.1,0-0.2,0-0.3,0c0.3,0.9,0.2,1.7-0.1,2.6c-0.1,0.2,0.2,0.3,0.3,0.1
						c0.3-0.9,0.4-1.8,0.1-2.7c-0.1-0.1-0.2-0.2-0.3,0c-0.5,0.8-0.6,1.7-0.2,2.6C34.5,120.4,34.8,120.2,34.7,120L34.7,120z"/>
				</g>
			</g>
		</g>
		<g>
			<g>
				<g>
					<path class="st0" d="M32.3,125.3c-0.4-0.9-0.3-1.8,0.1-2.6c-0.1,0-0.2,0-0.3,0c0.5,0.7,0.6,1.5,0.2,2.3
						c-0.1,0.2,0.2,0.4,0.3,0.2c0.4-0.9,0.3-1.8-0.2-2.6c-0.1-0.1-0.2-0.1-0.3,0c-0.4,0.9-0.5,1.9-0.1,2.9
						C32,125.6,32.3,125.5,32.3,125.3L32.3,125.3z"/>
				</g>
			</g>
		</g>
		<g>
			<g>
				<g>
					<path class="st0" d="M31.4,112.8c-0.1,0.9,0,1.8,0.3,2.7c0.1,0.2,0.4,0.1,0.3-0.1c-0.3-0.9-0.3-1.7-0.2-2.6
						C31.8,112.6,31.5,112.6,31.4,112.8L31.4,112.8z"/>
				</g>
			</g>
		</g>
		<g>
			<g>
				<g>
					<path class="st0" d="M30.2,114.8c0.6-0.2,1.2-0.4,1.8-0.6c0.2-0.1,0.1-0.4-0.1-0.3c-0.6,0.2-1.2,0.4-1.8,0.6
						C30,114.6,30.1,114.9,30.2,114.8L30.2,114.8z"/>
				</g>
			</g>
		</g>
		<g>
			<g>
				<g>
					<path class="st0" d="M30.9,115.2c0.6-0.2,1.1-0.4,1.6-0.6c0.2-0.1,0.1-0.4-0.1-0.3c-0.6,0.2-1.1,0.4-1.6,0.6
						C30.6,115,30.7,115.3,30.9,115.2L30.9,115.2z"/>
				</g>
			</g>
		</g>
		<g>
			<g>
				<g>
					<path class="st0" d="M103.1,111c-0.6,0.2-1.1,0.6-1.5,1c-0.3,0.3-0.8,0.9-0.5,1.3c0.3,0.4,0.9,0.3,1.3,0.2
						c0.6-0.2,1.1-0.6,1.4-1.1c0.1-0.1,0-0.2-0.1-0.2c-0.6-0.3-1.2-0.2-1.6,0.3c-0.1,0.2,0.1,0.4,0.2,0.2c0.3-0.4,0.8-0.5,1.2-0.3
						c0-0.1,0-0.2-0.1-0.2c-0.2,0.4-0.5,0.6-0.9,0.8c-0.3,0.2-1.4,0.5-1.2-0.3c0.1-0.3,0.5-0.7,0.7-0.9c0.3-0.3,0.7-0.5,1.1-0.6
						C103.4,111.2,103.3,110.9,103.1,111L103.1,111z"/>
				</g>
			</g>
		</g>
		<g>
			<g>
				<g>
					<path class="st0" d="M102.9,112.7c-0.4,0.5-0.5,1.2-0.3,1.8c0.1,0.2,0.4,0.1,0.3-0.1c-0.2-0.5-0.1-1.1,0.2-1.5
						C103.2,112.8,103,112.6,102.9,112.7L102.9,112.7z"/>
				</g>
			</g>
		</g>
		<g>
			<g>
				<g>
					<path class="st0" d="M110.5,119.2c1.9-0.5,3.7-0.8,5.7-0.8c0.2,0,0.2-0.3,0-0.3c-2,0-3.9,0.2-5.8,0.8
						C110.3,119,110.3,119.3,110.5,119.2L110.5,119.2z"/>
				</g>
			</g>
		</g>
		<g>
			<g>
				<g>
					<path class="st0" d="M110.6,117.9c0.1,0.6,0.2,1.1,0.3,1.6c0.1,0.2,0.4,0.1,0.3-0.1c-0.1-0.6-0.2-1.1-0.3-1.6
						C110.9,117.6,110.6,117.7,110.6,117.9L110.6,117.9z"/>
				</g>
			</g>
		</g>
		<g>
			<g>
				<g>
					<path class="st0" d="M112.4,117.9c-0.1,0.5-0.1,0.9,0.2,1.4c0.1,0.2,0.4,0,0.3-0.2c-0.2-0.4-0.2-0.7-0.1-1.1
						C112.8,117.7,112.5,117.6,112.4,117.9L112.4,117.9z"/>
				</g>
			</g>
		</g>
		<g>
			<g>
				<g>
					<path class="st0" d="M113.8,117.9c0,0.5,0,1,0,1.4c0,0.2,0.3,0.2,0.3,0c0-0.5,0-1,0-1.4C114.1,117.7,113.8,117.7,113.8,117.9
						L113.8,117.9z"/>
				</g>
			</g>
		</g>
		<g>
			<g>
				<g>
					<path class="st0" d="M115.2,118.1c-0.1,0.4-0.3,0.8-0.4,1.2c-0.1,0.2,0.3,0.3,0.3,0.1c0.1-0.4,0.3-0.8,0.4-1.2
						C115.6,117.9,115.2,117.9,115.2,118.1L115.2,118.1z"/>
				</g>
			</g>
		</g>
		<g>
			<g>
				<g>
					<path class="st0" d="M116.3,117.7c0,0.5,0,1,0,1.4c0,0.2,0.3,0.2,0.3,0c0-0.5,0-1,0-1.4C116.6,117.5,116.3,117.5,116.3,117.7
						L116.3,117.7z"/>
				</g>
			</g>
		</g>
		<g>
			<g>
				<g>
					<path class="st0" d="M25,123.8c-0.1,1.7-0.2,3.4-0.2,5.1c0,0.2,0.3,0.2,0.3,0c0.1-1.7,0.2-3.4,0.2-5.1
						C25.3,123.6,25,123.6,25,123.8L25,123.8z"/>
				</g>
			</g>
		</g>
		<g>
			<g>
				<g>
					<path class="st0" d="M23.9,126.9c-1.3,0.1-1-2.8,0.1-1.8c0.1,0.1,0.4-0.1,0.3-0.2c-0.7-1,0.5-2,1.4-1.5c0.9,0.5,1.2,2,0.2,2.5
						c-0.1,0.1-0.1,0.2-0.1,0.2c0.2,0.5,0.6,1-0.1,1.2c-0.2,0.1,0,0.4,0.2,0.3c0.3-0.1,0.4-0.2,0.6-0.4c0.1-0.1,0.1-0.1,0-0.2
						c-0.1-0.2-0.4-0.6-0.3-0.8c0-0.2,0.3-0.3,0.4-0.4c0.2-0.2,0.3-0.5,0.3-0.8c0.1-0.8-0.4-1.6-1.1-1.9c-1.2-0.6-2.6,0.9-1.8,2
						c0.1-0.1,0.2-0.1,0.3-0.2c-0.5-0.5-1.3-0.2-1.5,0.4c-0.3,0.7,0.4,2,1.2,1.9C24.1,127.2,24.1,126.9,23.9,126.9L23.9,126.9z"/>
				</g>
			</g>
		</g>
		<g>
			<g>
				<g>
					<path class="st0" d="M109.6,127.5c-0.3-0.2-0.4-0.6-0.2-0.9c0.3-0.3,0.8-0.3,1.1-0.1c0.3,0.1,0.5,0.3,0.7,0.5
						c0.1,0.1,1,1,0.4,1.1c-0.2,0.1-0.1,0.4,0.1,0.3c0.5-0.1,0.5-0.7,0.3-1.1c-0.4-0.5-1-1.1-1.7-1.2c-0.5-0.1-1.1,0.1-1.3,0.6
						c-0.2,0.4,0,1,0.4,1.1C109.6,127.9,109.8,127.6,109.6,127.5L109.6,127.5z"/>
				</g>
			</g>
		</g>
		<g>
			<g>
				<g>
					<path class="st0" d="M119.4,128c-0.2-0.5-0.2-1-0.2-1.6c0-0.2,0.1-0.4,0.1-0.6c0.2-0.7,0.3-0.8,0.4-0.2c0,0.1,0.1,0.2,0.2,0.2
						c0.3,0,2.1-0.2,1.7,0.5c-0.1,0.1,0,0.2,0.1,0.2c0.7,0.1,0.9,0.6,0.7,1.5c-0.2,0.1-0.1,0.4,0.1,0.3c0.5-0.2,1.1-0.2,1.6,0.1
						c0.7,0.4,0.7,1.3-0.4,1.4c-0.6,0-1.4-0.2-2-0.3c-0.2,0-0.3,0.3-0.1,0.3c0.7,0.1,3.3,1.1,3.4-0.3c0.1-1.4-1.7-1.7-2.7-1.4
						c0,0.1,0.1,0.2,0.1,0.3c0.5-0.2,0.7-0.6,0.6-1c-0.1-0.6-0.8-0.7-1.1-1.1c-0.1-0.2-0.1-0.4-0.3-0.6c-0.2-0.2-0.5-0.3-0.8-0.3
						c-0.2,0-0.4,0.1-0.5,0.1c-1.1-0.1,0.1,0.2-0.4-0.2c-0.2-0.2-0.2-0.3-0.4-0.5c-0.1-0.1-0.2,0-0.2,0.1c-0.6,1-0.8,2.1-0.5,3.2
						C119.1,128.3,119.4,128.2,119.4,128L119.4,128z"/>
				</g>
			</g>
		</g>
		<g>
			<g>
				<g>
					<path class="st0" d="M100.6,126c-0.5-0.5-0.4-0.8,0.3-1c0.4-0.5,0.7-0.4,0.9,0.1c0.1,0.1,0.2,0.1,0.3,0
						c0.5-0.5,0.9-0.2,1.2,0.7c0,0.1,0.1,0.2,0.2,0.2c0.6-0.2,1.1-0.1,1.5,0.5c0.1,0.2,0.4,0,0.3-0.2c-0.5-0.6-1.1-0.9-1.9-0.6
						c0.1,0.1,0.1,0.1,0.2,0.2c0.2-1.1-0.9-1.7-1.8-1c0.1,0,0.2,0,0.3,0c-0.8-1.6-3,0-1.7,1.2C100.5,126.4,100.7,126.1,100.6,126
						L100.6,126z"/>
				</g>
			</g>
		</g>
		<g>
			<g>
				<g>
					<path class="st0" d="M97.8,127.3c0.6,0.2,1.3,0.2,1.9,0.1c0.2,0,0.1-0.3-0.1-0.3c-0.6,0.1-1.2,0.1-1.8-0.1
						C97.7,126.9,97.6,127.2,97.8,127.3L97.8,127.3z"/>
				</g>
			</g>
		</g>
		<g>
			<g>
				<g>
					<path class="st0" d="M105,128.2c0.8,0,1.5,0,2.2,0c0.2,0,0.2-0.3,0-0.3c-0.8,0-1.5,0-2.2,0C104.8,127.8,104.8,128.2,105,128.2
						L105,128.2z"/>
				</g>
			</g>
		</g>
		<g>
			<g>
				<g>
					<path class="st0" d="M39,129.4c1.4-0.4,2.8-0.5,4.2-0.3c0.2,0,0.2-0.3,0-0.3c-1.5-0.1-2.9,0-4.3,0.4
						C38.7,129.1,38.8,129.4,39,129.4L39,129.4z"/>
				</g>
			</g>
		</g>
		<g>
			<g>
				<g>
					<path class="st0" d="M43,127.9c-1.1-0.5-1-1.1,0.4-1.6c0.1,0.1,0.3,0.1,0.3,0c0.1-1,0.8-1.1,2.1-0.5c0.1,0.1,0.1,0.2,0.2,0.2
						c0.1,0,0.4,0.2,0.5,0.3c0.1,0,0.2,0,0.3,0c0.5,0.2,0.7,0.5,0.6,0.9c0.1,0.4,0,1-0.1,1.4c0,0.2,0.3,0.2,0.3,0
						c0-0.6,0.3-1.8,0-2.3c-0.2-0.2-0.3-0.2-0.5-0.3c-0.4-0.2-0.7-0.3-1.1-0.6c-1-0.8-2.3-0.6-2.5,0.8c0.1,0,0.2,0,0.3,0
						c-0.5-0.7-1.3-0.5-1.6,0.3c-0.3,0.8,0.1,1.8,1,1.8C43.2,128.2,43.2,127.9,43,127.9L43,127.9z"/>
				</g>
			</g>
		</g>
		<g>
			<g>
				<g>
					<path class="st0" d="M31.4,129.7c0.7-0.7,1.9-0.2,1.8,0.8c0,0.2,0.3,0.2,0.3,0c0.1-1.3-1.5-1.9-2.4-1.1
						C31,129.6,31.2,129.8,31.4,129.7L31.4,129.7z"/>
				</g>
			</g>
		</g>
		<g>
			<g>
				<g>
					<path class="st0" d="M26.5,130.9c1.4,0.1,2.7,0,4.1-0.2c0.2,0,0.1-0.3-0.1-0.3c-1.3,0.2-2.7,0.3-4,0.2
						C26.3,130.5,26.3,130.8,26.5,130.9L26.5,130.9z"/>
				</g>
			</g>
		</g>
		<g>
			<g>
				<g>
					<path class="st0" d="M34.7,130.9c0.3-0.1,0.7-0.1,1-0.2c0.2-0.1,0.1-0.4-0.1-0.3c-0.3,0.1-0.7,0.1-1,0.2
						C34.4,130.6,34.5,130.9,34.7,130.9L34.7,130.9z"/>
				</g>
			</g>
		</g>
		<g>
			<g>
				<g>
					<path class="st0" d="M18.2,129.8c1.6,0.1,3.3,0,4.9-0.2c0.2,0,0.2-0.3,0-0.3c-1.6,0.2-3.2,0.3-4.9,0.2
						C18,129.5,18,129.8,18.2,129.8L18.2,129.8z"/>
				</g>
			</g>
		</g>
		<g>
			<g>
				<g>
					<path class="st0" d="M122.5,126.2c0.8,0.2,1.5,0.3,2.3,0.2c0.2,0,0.2-0.4,0-0.3c-0.8,0.1-1.5,0.1-2.2-0.2
						C122.3,125.9,122.3,126.2,122.5,126.2L122.5,126.2z"/>
				</g>
			</g>
		</g>
		<g>
			<path class="st0" d="M35.2,30.4c-4.4,0-8.1-3.6-8.1-8.1c0-4.4,3.6-8.1,8.1-8.1c4.4,0,8.1,3.6,8.1,8.1
				C43.3,26.8,39.7,30.4,35.2,30.4z M35.2,14.5c-4.3,0-7.9,3.5-7.9,7.9c0,4.3,3.5,7.9,7.9,7.9c4.3,0,7.9-3.5,7.9-7.9
				C43.1,18,39.6,14.5,35.2,14.5z"/>
		</g>
		<g>
			<path class="st0" d="M114,72.7c-3.5,0-6.4-2.9-6.4-6.4c0-3.5,2.9-6.4,6.4-6.4c3.5,0,6.4,2.9,6.4,6.4
				C120.4,69.8,117.5,72.7,114,72.7z M114,60.1c-3.4,0-6.2,2.8-6.2,6.2c0,3.4,2.8,6.2,6.2,6.2c3.4,0,6.2-2.8,6.2-6.2
				C120.2,62.8,117.4,60.1,114,60.1z"/>
		</g>
		<g>
			<path class="st0" d="M107.2,23.2c-2,0-3.6-1.6-3.6-3.6s1.6-3.6,3.6-3.6s3.6,1.6,3.6,3.6S109.2,23.2,107.2,23.2z M107.2,16.1
				c-1.9,0-3.4,1.5-3.4,3.4c0,1.9,1.5,3.4,3.4,3.4c1.9,0,3.4-1.5,3.4-3.4C110.7,17.7,109.1,16.1,107.2,16.1z"/>
		</g>
		<g>
			<path class="st0" d="M83.4,18.5c-1.5,0-2.6-1.2-2.6-2.6s1.2-2.6,2.6-2.6c1.5,0,2.6,1.2,2.6,2.6S84.8,18.5,83.4,18.5z M83.4,13.4
				c-1.3,0-2.4,1.1-2.4,2.4c0,1.3,1.1,2.4,2.4,2.4s2.4-1.1,2.4-2.4C85.8,14.5,84.7,13.4,83.4,13.4z"/>
		</g>
		<g>
			<g>
				<g>
					<path class="st0" d="M108,68.5c1-0.5,2.4,1.6,3.3,0.5c0.2-0.3,0.1-0.3,0.2-0.6c0.4-1.1,0.6-1.2,1.6-1.6
						c0.5-0.2,1.1-0.3,1.5-0.7c0.3-0.3,0.5-0.7,0.5-1.1c0-0.7-0.6-1.3-0.7-2c0-0.8,2.6-1.8,1.5-2.7c-0.2-0.1-0.4,0.1-0.2,0.2
						c0.6,0.5-1.2,1.2-1.4,1.5c-0.2,0.3-0.2,0.5-0.2,0.8c0.1,0.6,0.5,1.1,0.6,1.6c0.4,1.5-1.1,1.7-2.1,2.1c-1,0.4-1.1,0.8-1.4,1.6
						c-0.6,1.5-2.2-0.6-3.3,0C107.7,68.3,107.9,68.5,108,68.5L108,68.5z"/>
				</g>
			</g>
		</g>
		<g>
			<g>
				<g>
					<path class="st0" d="M112.1,72c0.3-0.9,1.6-0.8,1.8,0.2c0.1,0.2,0.4,0.1,0.3-0.1c-0.3-1.3-2-1.4-2.4-0.2
						C111.7,72.1,112,72.1,112.1,72L112.1,72z"/>
				</g>
			</g>
		</g>
		<g>
			<g>
				<g>
					<path class="st0" d="M118.8,62.6c-0.8,0.3-1.4,1-1.4,1.9c-0.1,0.7,0.2,1.1,0.1,1.8c-0.1,0.8-0.4,0.9-0.9,1.4
						c-0.4,0.3-0.7,0.7-1.1,1c-0.1,0.1-0.1,0.1,0,0.2c0.4,0.7,0.6,1.4,0.7,2.3c0,0.1,0.1,0.1,0.1,0.2c0.2,0.1,0.4,0.1,0.5,0.2
						c0.2,0.1,0.3-0.2,0.1-0.3c-0.6-0.2-0.7-1.2-0.8-1.7c-0.1-0.7-0.2-0.8,0.4-1.3c0.4-0.3,0.8-0.7,1.1-1c0.3-0.3,0.6-0.6,0.6-1
						c0-0.3-0.2-0.5-0.3-0.7c-0.4-1-0.1-2.1,1-2.5C119,62.8,118.9,62.5,118.8,62.6L118.8,62.6z"/>
				</g>
			</g>
		</g>
		<g>
			<g>
				<g>
					<path class="st0" d="M114,72.4c0.3,0,0.6,0,0.9,0c0.2,0,0.2-0.3,0-0.3c-0.3,0-0.6,0-0.9,0C113.8,72.1,113.8,72.4,114,72.4
						L114,72.4z"/>
				</g>
			</g>
		</g>
		<g>
			<g>
				<g>
					<path class="st0" d="M29,27.2c-0.1,0.4,0.5,0.6,0.8,0.4c0.2-0.2,0.2-0.4,0.2-0.6c0-0.2,0-0.3-0.1-0.5c0-0.1,0-0.3,0-0.4
						c0.1-0.1,0.2-0.4,0.4-0.2c0.2,0.1,0.4-0.1,0.2-0.2c-0.3-0.3-0.7-0.1-0.9,0.2c-0.1,0.2-0.1,0.5-0.1,0.7c0,0.2,0.1,0.3,0,0.5
						c0,0.1,0,0.2-0.1,0.2c-0.1,0.1-0.3,0.1-0.3-0.1C29.4,27,29,27,29,27.2L29,27.2z"/>
				</g>
			</g>
		</g>
		<g>
			<g>
				<g>
					<path class="st0" d="M31.6,25c0.4,0.2,0.6,0.2,0.9-0.1c0.1-0.1,0.1-0.1,0.1-0.2c-0.4-0.8,0-0.3,0.5-0.7
						c0.4-0.3,0.4-0.7,0.2-1.2c-0.4-1-1.6-1.5-2-2.5c-0.1-0.1-0.2-0.2-0.2-0.4c0.2-0.2,0.4-0.4,0.6-0.6c0.1,0,0.5,0.5,0.6,0.6
						c0.5,0.5,1,1,1.5,1.5c0.2,0.2,0.4-0.1,0.2-0.2c-0.7-0.7-1.5-1.9-2.4-2.4c-0.3-0.2-0.6-0.3-0.9,0.1c-0.3,0.5,0.1,1,0.3,1.4
						c0.3,0.4,0.6,0.8,0.9,1.2c0.2,0.3,0.5,0.5,0.7,0.7c0.1,0.1,0.2,0.2,0.3,0.4c0.4,0.4,0.2,0.8-0.5,1.1c-0.1-0.1-0.2,0-0.2,0.1
						c0,0.2,0.3,1-0.3,0.8C31.6,24.6,31.4,24.9,31.6,25L31.6,25z"/>
				</g>
			</g>
		</g>
		<g>
			<g>
				<g>
					<path class="st0" d="M35.3,20.3c0.3,0.3,0.6,0.1,1,0c0.6-0.2,1.7-0.3,2.1-0.7c0.3-0.4,0.1-0.8-0.1-1.2c-0.4-1-0.8-2-1.1-3
						c-0.1,0.1-0.2,0.1-0.2,0.2c0.8,0.4,1.4,0.9,1.9,1.7c0.1,0.2,0.4,0,0.3-0.2c-0.5-0.8-1.2-1.4-2-1.8c-0.1-0.1-0.3,0-0.2,0.2
						c0.4,1,1,2.1,1.2,3.2c0.1,0.3,0.2,0.5-0.2,0.8c-0.2,0.1-0.5,0.2-0.7,0.2c-0.3,0.1-1.4,0.6-1.7,0.4
						C35.4,19.9,35.2,20.2,35.3,20.3L35.3,20.3z"/>
				</g>
			</g>
		</g>
		<g>
			<g>
				<g>
					<path class="st0" d="M32,28.5c0.5,0,1.2,0,1.5-0.6c0.1-0.2,0.1-0.4,0.1-0.6c0-0.6,0.7-0.9,1.2-1.2c0.2-0.1,0-0.4-0.2-0.3
						c-0.4,0.3-1.1,0.6-1.3,1.1c-0.1,0.2,0,0.3,0,0.5c0,0.7-0.7,0.8-1.2,0.8C31.8,28.1,31.8,28.4,32,28.5L32,28.5z"/>
				</g>
			</g>
		</g>
		<g>
			<g>
				<g>
					<path class="st0" d="M36.4,24.3c-0.2-0.3-0.7-0.7-0.7-1c-0.3-0.2-0.2-0.4,0.3-0.4c0.4-0.3,0.7-0.3,1,0.1c0.3,0.2,0.7,0.4,1,0.5
						c0.4,0.1,1-0.1,1.2-0.5c0.2-0.4,0-0.6,0.3-0.9c0.3-0.4,0.8-0.3,1.3-0.5c0.8-0.4,1.4-1.2,1.9-1.9c0.1-0.2-0.2-0.3-0.3-0.2
						c-0.5,0.7-1.1,1.6-2,1.9c-0.3,0.1-0.9-0.1-1.2,0.2c-0.1,0.1-0.1,0.3-0.2,0.3c0,0.1,0,0.2,0,0.3c0.1,0.3-0.2,0.4-0.7,0.4
						c-0.9,0.5-0.6,0.4-1.3,0.1c-0.4-0.2-1.2-0.4-1.5,0c-0.5,0.6,0.5,1.4,0.8,1.9C36.3,24.6,36.6,24.5,36.4,24.3L36.4,24.3z"/>
				</g>
			</g>
		</g>
		<g>
			<g>
				<g>
					<path class="st0" d="M33.7,30.1c0.3-0.5,1.1-0.4,1.5-0.7c0.7-0.4,1.1-1,1.9-1.3c1-0.4,1.9-0.8,2.7-1.6c0.8-0.9,1.5-2,2.2-2.9
						c0.7-1,1.3-1.9,1.3-3.2c0-0.2-0.3-0.2-0.3,0c0,1.5-1,2.6-1.8,3.8c-0.8,1.1-1.5,2.4-2.8,3.1c-0.9,0.5-1.8,0.6-2.5,1.2
						c-0.4,0.3-0.7,0.6-1.2,0.8c-0.2,0.1-0.5,0.1-0.7,0.2c-0.2,0.1-0.3,0.2-0.4,0.4C33.3,30.1,33.6,30.3,33.7,30.1L33.7,30.1z"/>
				</g>
			</g>
		</g>
		<g>
			<g>
				<g>
					<path class="st0" d="M27.5,21.5c0.8-1.1,1.7-2.7,2.8-3.5c1.2-0.9,1.3,0.2,2.3-0.2c0.2-0.1,0.3-0.2,0.4-0.3
						c0.2-0.2,0.2-0.4,0.3-0.6c0.1-0.2,0.1-0.5,0.2-0.7c0.2-0.2,0.5-0.3,0.7-0.5c0.4-0.3,0.6-0.7,1.1-0.9c0.3-0.1,0.6-0.1,0.9-0.3
						c0.2-0.1,0-0.4-0.2-0.3c-0.5,0.3-1,0.1-1.4,0.4c-0.1,0.1-0.2,0.2-0.3,0.2c-0.2,0.2-0.5,0.5-0.8,0.7c-0.6,0.5-0.7,1.8-1.7,1.8
						c-0.5,0-0.7-0.3-1.2-0.2c-0.3,0.1-0.6,0.4-0.8,0.6c-1,1-1.9,2.3-2.8,3.4C27.1,21.5,27.4,21.6,27.5,21.5L27.5,21.5z"/>
				</g>
			</g>
		</g>
		<g>
			<g>
				<g>
					<path class="st0" d="M35.4,30.3c1.7-1,3.6-1.8,5-3.1c1.4-1.3,2.1-3.3,3-4.9c0.1-0.2-0.2-0.4-0.3-0.2c-0.8,1.7-1.5,3.6-2.9,4.9
						c-1.4,1.3-3.3,2.1-4.9,3.1C35.1,30.1,35.2,30.4,35.4,30.3L35.4,30.3z"/>
				</g>
			</g>
		</g>
		<g>
			<g>
				<g>
					<path class="st0" d="M35.8,25.8c0.1-0.2,0.3-0.4,0.4-0.5c-0.1,0-0.2,0-0.2,0c0.1,0.1,0.2,0.2,0.3,0.3c0-0.1,0-0.1-0.1-0.2
						c-0.1,0.2-0.2,0.3-0.4,0.2C35.7,25.5,35.6,25.8,35.8,25.8c0.3,0.2,0.7,0,0.8-0.3c0-0.1,0-0.1-0.1-0.2c-0.1-0.1-0.2-0.2-0.3-0.3
						c-0.1-0.1-0.2-0.1-0.2,0c-0.1,0.2-0.3,0.4-0.4,0.5C35.5,25.7,35.7,25.9,35.8,25.8L35.8,25.8z"/>
				</g>
			</g>
		</g>
		<g>
			<g>
				<g>
					<path class="st0" d="M39.8,18.2c0.1-0.2,0.2-0.4,0.4-0.5c0.1,0,0.2,0,0.2,0.1c0,0,0,0.1,0,0.1c-0.2,0-0.3,0.3-0.1,0.3
						c0.4,0.1,0.6-0.5,0.2-0.7c-0.2-0.1-0.4-0.1-0.6,0.1c-0.2,0.2-0.3,0.4-0.4,0.6C39.4,18.3,39.7,18.4,39.8,18.2L39.8,18.2z"/>
				</g>
			</g>
		</g>
		<g>
			<g>
				<g>
					<path class="st0" d="M28.8,24.5c0-0.1,0.1-0.2,0.1-0.3c0,0,0.1-0.1,0.1-0.1c0,0,0.1,0,0,0c-0.1,0,0,0,0,0c0,0.1,0,0.3-0.1,0.3
						c-0.2,0-0.2,0.3,0,0.3c0.4,0,0.6-0.5,0.4-0.8c-0.1-0.1-0.1-0.2-0.2-0.1c-0.1,0-0.2,0.1-0.3,0.1c-0.2,0.1-0.3,0.3-0.3,0.6
						C28.5,24.7,28.8,24.7,28.8,24.5L28.8,24.5z"/>
				</g>
			</g>
		</g>
		<g>
			<g>
				<g>
					<path class="st0" d="M106,21.2c-1.5-1.8,0.2-4.5,2.4-3.7c1.1,0.4,1.8,1.8,1,2.7c-0.4,0.6-1.3,0.8-1.9,0.3
						c-0.2-0.2-0.4-0.5-0.4-0.8c-0.1-0.2,0-0.3,0.1-0.5c0.1-0.6,0.5-0.5,1,0.1c-0.1,0.2,0.2,0.3,0.3,0.1c0.2-0.6-0.3-1.2-0.9-1
						c-0.7,0.2-1,0.9-0.8,1.5c0.5,1.7,2.7,1.3,3.1-0.2c0.5-1.8-1.6-3.1-3.2-2.6c-1.9,0.6-2.3,2.9-1.1,4.3
						C105.9,21.6,106.1,21.4,106,21.2L106,21.2z"/>
				</g>
			</g>
		</g>
		<g>
			<g>
				<g>
					<path class="st0" d="M83.1,13.5c-0.2,1.3-0.3,2.6-0.3,4c0,0.2,0.3,0.2,0.3,0c0-1.3,0.1-2.6,0.3-3.9
						C83.4,13.4,83.1,13.3,83.1,13.5L83.1,13.5z"/>
				</g>
			</g>
		</g>
		<g>
			<g>
				<g>
					<path class="st0" d="M84.4,13.8c-0.2,1.3-0.4,2.6-0.6,3.9c0,0.2,0.3,0.3,0.3,0.1c0.2-1.3,0.4-2.6,0.6-3.9
						C84.7,13.7,84.4,13.6,84.4,13.8L84.4,13.8z"/>
				</g>
			</g>
		</g>
		<g>
			<path class="st0" d="M23.1,58.3c-2.5,0-4.6-2.1-4.6-4.6c0-2.5,2.1-4.6,4.6-4.6c2.5,0,4.6,2.1,4.6,4.6
				C27.7,56.3,25.6,58.3,23.1,58.3z M23.1,49.4c-2.4,0-4.4,2-4.4,4.4c0,2.4,2,4.4,4.4,4.4c2.4,0,4.4-2,4.4-4.4
				C27.5,51.3,25.5,49.4,23.1,49.4z"/>
		</g>
		<g>
			<g>
				<g>
					<path class="st0" d="M20.5,50c0.6,0.7-0.5,1.6,0.2,2.4c0.3,0.4,0.2,0,0.3,0.1c0.6-0.1,1.1,0.1,1.3,0.6c0.2,0.2,0.3,0.4,0.4,0.6
						c0.2,0.3,0.5,0.7,0.8,0.8c0.4,0.1,0.6,0,1-0.1c0.3-0.1,0.4-0.4,0.7-0.5c0.6-0.3,0.9,0.3,1.3,0.5c0.4,0.2,0.8,0.5,1.1-0.1
						c0.1-0.2-0.2-0.3-0.3-0.2c-0.2,0.4-1-0.6-1.2-0.7c-0.2-0.1-0.4-0.1-0.6-0.1c-0.3,0.1-0.5,0.3-0.7,0.4c-0.5,0.4-0.4,0.4-1.1,0.1
						c-0.8-0.3-0.6-0.3-1-0.9c-0.2-0.3-0.4-0.5-0.7-0.6c-0.2-0.1-0.5,0-0.6-0.1c-1-0.6,0-1.6-0.6-2.3C20.6,49.7,20.4,49.9,20.5,50
						L20.5,50z"/>
				</g>
			</g>
		</g>
		<g>
			<g>
				<g>
					<path class="st0" d="M18.8,53.5c0.7,0.1,0.8,0.9,0.2,1.2c-0.2,0.1,0,0.4,0.2,0.3c0.9-0.4,0.6-1.7-0.3-1.8
						C18.6,53.1,18.6,53.4,18.8,53.5L18.8,53.5z"/>
				</g>
			</g>
		</g>
		<g>
			<g>
				<g>
					<path class="st0" d="M26.4,56.4c-0.4-0.5-0.9-0.8-1.6-0.7c-0.3,0.1-0.5,0.3-0.8,0.4c-1,0.3-1.7-0.5-2.4-1c-0.1-0.1-0.2,0-0.2,0
						C21,55.6,20.6,55.8,20,56c-0.1,0-0.1,0.1-0.1,0.2c0,0.1,0,0.3-0.1,0.4c0,0.2,0.3,0.2,0.3,0c0.1-0.3,1-0.8,1.2-0.9
						c0.7-0.2,1.2,0.7,1.8,0.9c1.1,0.5,1.9-1.3,3,0.1C26.3,56.8,26.5,56.6,26.4,56.4L26.4,56.4z"/>
				</g>
			</g>
		</g>
		<g>
			<g>
				<g>
					<path class="st0" d="M18.8,54.9c0.1,0.2,0.1,0.4,0.2,0.6c0.1,0.2,0.4,0.1,0.3-0.1c-0.1-0.2-0.1-0.4-0.2-0.6
						C19,54.6,18.7,54.7,18.8,54.9L18.8,54.9z"/>
				</g>
			</g>
		</g>
		<g>
			<path class="st0" d="M63.9,32.3c-1.1,0-2.1-0.9-2.1-2.1s0.9-2.1,2.1-2.1c1.1,0,2.1,0.9,2.1,2.1S65,32.3,63.9,32.3z M63.9,28.4
				c-1,0-1.9,0.8-1.9,1.9s0.8,1.9,1.9,1.9s1.9-0.8,1.9-1.9S64.9,28.4,63.9,28.4z"/>
		</g>
		<g>
			<g>
				<g>
					<path class="st0" d="M63.2,31.2c-0.8-0.9,0.1-2.4,1.3-2c0.6,0.2,0.9,0.9,0.5,1.4c-0.2,0.3-0.7,0.4-0.9,0.2
						c-0.1-0.1-0.2-0.3-0.2-0.4c0-0.1,0-0.2,0.1-0.2c0.1-0.3,0.2-0.3,0.5,0c-0.1,0.2,0.2,0.3,0.3,0.1c0.1-0.4-0.2-0.7-0.6-0.7
						c-0.4,0.1-0.6,0.6-0.5,1c0.3,1,1.6,0.8,1.9-0.1c0.3-1.1-0.9-1.8-1.9-1.5c-1.1,0.3-1.4,1.7-0.7,2.5
						C63.1,31.5,63.4,31.3,63.2,31.2L63.2,31.2z"/>
				</g>
			</g>
		</g>
		<g>
			<path class="st0" d="M38.1,49.8l-0.8-1.3l-1.5-0.1l0.9-1.1l-0.4-1.4l1.4,0.6l1.2-0.8l-0.1,1.5l1.2,0.9l-1.5,0.4L38.1,49.8z
				 M36.2,48.3l1.2,0l0.7,1l0.4-1.1l1.2-0.3l-1-0.8l0.1-1.2l-1,0.7l-1.1-0.5l0.3,1.2L36.2,48.3z"/>
		</g>
		<g>
			<path class="st0" d="M62.2,17.8l-1.1-1.7L59.1,16l1.3-1.6l-0.6-2l1.9,0.8l1.7-1.2l-0.1,2.1l1.6,1.3l-2,0.5L62.2,17.8z M59.5,15.8
				l1.8,0.1l1,1.5l0.6-1.7l1.7-0.4l-1.4-1.1l0.1-1.8l-1.5,1l-1.7-0.7l0.5,1.7L59.5,15.8z"/>
		</g>
		<g>
			<path class="st0" d="M112.3,47.7l-1.3-2.1l-2.5-0.1l1.6-1.9l-0.7-2.4l2.3,0.9l2.1-1.4l-0.2,2.5l2,1.5l-2.4,0.6L112.3,47.7z
				 M108.8,45.3l2.2,0.1l1.2,1.9l0.8-2.1l2.1-0.6l-1.7-1.4l0.1-2.2l-1.9,1.3l-2.1-0.8l0.6,2.1L108.8,45.3z"/>
		</g>
		<g>
			<path class="st0" d="M28.2,93.4l-0.7-1l-1.2-0.1l0.8-0.9l-0.3-1.2l1.1,0.5l1-0.7l-0.1,1.2l1,0.8l-1.2,0.3L28.2,93.4z M26.7,92.2
				l0.9,0l0.5,0.8l0.3-0.9l0.9-0.2l-0.7-0.6l0.1-0.9L28,90.9l-0.9-0.3l0.3,0.9L26.7,92.2z"/>
		</g>
		<g>
			<path class="st0" d="M113,91.2l-0.7-1l-1.2-0.1l0.8-0.9l-0.3-1.2l1.1,0.4l1-0.7l-0.1,1.2l1,0.8l-1.2,0.3L113,91.2z M111.5,89.9
				l1,0l0.5,0.8l0.3-0.9l0.9-0.2l-0.7-0.6l0.1-0.9l-0.8,0.5l-0.9-0.3l0.3,0.9L111.5,89.9z"/>
		</g>
		<g>
			<path class="st0" d="M22.2,63l-0.5-0.7l-0.9,0l0.6-0.7l-0.2-0.9L22,61l0.7-0.5l-0.1,0.9l0.7,0.5l-0.9,0.2L22.2,63z M21.2,62.1
				l0.6,0l0.3,0.5l0.2-0.6l0.6-0.2l-0.5-0.4l0-0.6L22,61.2L21.4,61l0.2,0.6L21.2,62.1z"/>
		</g>
		<g>
			<path class="st0" d="M92.4,34.6l-0.5-0.8l-0.9,0l0.6-0.7l-0.3-0.9l0.8,0.3l0.8-0.5L92.9,33l0.7,0.6l-0.9,0.2L92.4,34.6z
				 M91.4,33.6l0.6,0l0.3,0.5l0.2-0.6l0.6-0.1L92.7,33l0-0.6l-0.5,0.4l-0.6-0.2l0.2,0.6L91.4,33.6z"/>
		</g>
		<g>
			<path class="st0" d="M120.4,33l-0.7-1l-1.2-0.1l0.8-0.9l-0.3-1.2l1.2,0.5l1-0.7l-0.1,1.2l1,0.8l-1.2,0.3L120.4,33z M118.9,31.8
				l0.9,0l0.5,0.8l0.3-0.9l0.9-0.2l-0.7-0.6l0-0.9l-0.8,0.5l-0.9-0.4l0.3,0.9L118.9,31.8z"/>
		</g>
	</g>
</g>
</svg>
