<?xml version="1.0" encoding="utf-8"?>
<!-- Generator: Adobe Illustrator 24.0.1, SVG Export Plug-In . SVG Version: 6.00 Build 0)  -->
<svg version="1.1" id="Layer_1" xmlns="http://www.w3.org/2000/svg" xmlns:xlink="http://www.w3.org/1999/xlink" x="0px" y="0px"
	 viewBox="0 0 141.7 141.7" style="enable-background:new 0 0 141.7 141.7;" xml:space="preserve">
<style type="text/css">
	.st0{fill:#070707;}
</style>
<g id="Layer_1_1_">
</g>
<g id="Layer_1_2_">
</g>
<g id="Layer_1_3_">
</g>
<g id="Layer_1_4_">
</g>
<g id="Layer_1_5_">
</g>
<g id="Layer_3">
</g>
<g id="Layer_3_1_">
</g>
<g id="Layer_1_6_">
</g>
<g id="Layer_1_7_">
</g>
<g id="Layer_1_8_">
</g>
<g id="Layer_1_9_">
</g>
<g id="Layer_1_10_">
</g>
<g id="Layer_1_11_">
</g>
<g id="Layer_2_1_">
	<g>
		<g>
			<g>
				<path class="st0" d="M46.8,100.9c-0.1,2-0.3,4-0.5,6c-0.1,0.4,0.6,0.4,0.6,0c0.2-2,0.4-4,0.5-6
					C47.5,100.5,46.8,100.5,46.8,100.9L46.8,100.9z"/>
			</g>
		</g>
	</g>
	<g>
		<g>
			<g>
				<path class="st0" d="M52.4,53.2c-7.9,8.4-6.2,20.8-5.6,31.3c0,0.4,0.7,0.4,0.6,0c-0.5-10.3-2.3-22.6,5.4-30.8
					C53.2,53.4,52.7,52.9,52.4,53.2L52.4,53.2z"/>
			</g>
		</g>
	</g>
	<g>
		<g>
			<g>
				<path class="st0" d="M94.4,56c-1.1-1.8-2.5-3.5-4.2-4.8c-0.3-0.3-0.8,0.2-0.5,0.5c1.6,1.3,3,2.9,4.1,4.7
					C94,56.7,94.6,56.4,94.4,56L94.4,56z"/>
			</g>
		</g>
	</g>
	<g>
		<g>
			<g>
				<path class="st0" d="M47.5,62.6c-4-0.3-6.3-4.6-3.8-7.9c1-1.3,2.4-2.2,4-2.5c1.6-0.3,3.8-0.2,4.9,1.1c0.3,0.3,0.7-0.2,0.5-0.5
					c-1.3-1.5-3.6-1.6-5.4-1.3c-1.9,0.3-3.8,1.5-4.8,3.2c-2.4,3.8,0.4,8.1,4.6,8.5C47.9,63.3,47.9,62.6,47.5,62.6L47.5,62.6z"/>
			</g>
		</g>
	</g>
	<g>
		<g>
			<g>
				<path class="st0" d="M90.7,52.1c2.7-1.4,7.1-2.1,9.1,0.8c2,3,0.8,7.8-3,8.5c-0.4,0.1-0.2,0.7,0.2,0.6c4.2-0.8,5.5-5.8,3.6-9.2
					c-2-3.6-6.9-3-10.1-1.4C90.1,51.7,90.4,52.2,90.7,52.1L90.7,52.1z"/>
			</g>
		</g>
	</g>
	<g>
		<g>
			<g>
				<path class="st0" d="M68.8,67.2c0.1,0,0.2,0,0.2,0c0-0.1,0-0.2-0.1-0.3c-1,0.4-1.8,0.8-2.6,1.6c-0.6,0.6-1.3,1.5-1,2.4
					c0.2,1,1.4,1.6,2.3,1.7c1.8,0.3,3.6-0.8,5.4-0.8c1.8,0,5.4,2.1,5.8-1.2c0.3-2.3-2.6-3.6-4.4-4.2c-0.2-0.1-0.3,0.2-0.1,0.3
					c1.6,0.6,4.4,1.7,4.1,3.8c-0.3,3-3.8,0.9-5.5,0.9c-1,0-1.9,0.3-2.8,0.6c-1.3,0.4-3.6,0.7-4.4-0.8c-1-1.8,2-3.5,3.3-4
					c0.2-0.1,0.2-0.3-0.1-0.3c-0.1,0-0.2,0-0.3,0.1C68.5,66.9,68.6,67.2,68.8,67.2L68.8,67.2z"/>
			</g>
		</g>
	</g>
	<g>
		<g>
			<g>
				<path class="st0" d="M75.1,72.3c0.4,1.1,0.6,2.4,0.3,3.5c-0.2,0.9-1,1.5-2,1.3c-0.7-0.2-0.8-0.8-1.1-1.3c-0.1-0.2-0.4,0-0.3,0.2
					c0.3,0.6,0.5,1.2,1.1,1.5c0.6,0.2,1.3,0.1,1.8-0.3c1.4-1,1-3.5,0.5-4.9C75.4,72,75.1,72.1,75.1,72.3L75.1,72.3z"/>
			</g>
		</g>
	</g>
	<g>
		<g>
			<g>
				<path class="st0" d="M52.9,125.2c2.3-1.2,3.6,1.8,5.2,2.9c0-0.1,0-0.2,0-0.3c-1.3,0.2-2.3,1-3.3,1.8c-1.1,0.8-2.5,2.1-4,1.7
					c-1-0.3-1.8-1.4-1.6-2.4c0.2-0.7,0.7-1.3,1.2-1.8c0.9-0.9,2.1-1.6,3.2-2.1c0.2-0.1,0-0.4-0.2-0.3c-1.8,0.9-6.3,3.6-4,6.1
					c2.8,3,6-2.1,8.7-2.6c0.2,0,0.1-0.2,0-0.3c-1.8-1.2-2.9-4.2-5.5-2.9C52.6,125,52.8,125.2,52.9,125.2L52.9,125.2z"/>
			</g>
		</g>
	</g>
	<g>
		<g>
			<g>
				<path class="st0" d="M50.3,130.7c-0.4-1.4,0.6-2.4,1.8-3c0.2-0.1,0-0.4-0.2-0.3c-1.3,0.7-2.3,1.9-1.9,3.4
					C50,131,50.3,131,50.3,130.7L50.3,130.7z"/>
			</g>
		</g>
	</g>
	<g>
		<g>
			<g>
				<path class="st0" d="M92.6,130.7c-1.3-0.8-2-2-3.1-3c-2-1.9,1.7-3.7,3.3-3.3c1.6,0.4,2.7,1.9,3.2,3.4c0.3,0.9,0.4,2.1-0.4,2.8
					C94.7,131.3,93.6,131.2,92.6,130.7c-0.2-0.1-0.4,0.2-0.2,0.3c1.6,0.8,3.8,0.6,4-1.5c0.3-2-1.2-4.4-3-5.2c-1-0.4-2-0.4-2.9,0.1
					c-0.8,0.4-2,1.2-2.3,2.1c-0.2,0.8,0.8,1.2,1.3,1.7c1,1,1.7,2.1,2.9,2.8C92.6,131.1,92.8,130.8,92.6,130.7z"/>
			</g>
		</g>
	</g>
	<g>
		<g>
			<g>
				<path class="st0" d="M93.3,127.6c0.9,0.9,1.6,2.1,1.6,3.4c0,0.2,0.3,0.2,0.3,0c-0.1-1.4-0.8-2.6-1.7-3.6
					C93.4,127.2,93.2,127.4,93.3,127.6L93.3,127.6z"/>
			</g>
		</g>
	</g>
	<g>
		<path class="st0" d="M81.9,67.1c-4.5,0-8.1-3.6-8.1-8.1s3.6-8.1,8.1-8.1s8.1,3.6,8.1,8.1S86.4,67.1,81.9,67.1z M81.9,51.2
			c-4.3,0-7.7,3.5-7.7,7.7s3.5,7.7,7.7,7.7s7.7-3.5,7.7-7.7S86.2,51.2,81.9,51.2z"/>
	</g>
	<g>
		<path class="st0" d="M61.9,67.9c-4.5,0-8.1-3.6-8.1-8.1s3.6-8.1,8.1-8.1s8.1,3.6,8.1,8.1S66.4,67.9,61.9,67.9z M61.9,52
			c-4.3,0-7.7,3.5-7.7,7.7s3.5,7.7,7.7,7.7s7.7-3.5,7.7-7.7S66.2,52,61.9,52z"/>
	</g>
	<g>
		<path class="st0" d="M97.1,55.8c0-0.9-0.7-1.7-1.7-1.7c-0.9,0-1.7,0.7-1.7,1.7c0,0.9,0.7,1.7,1.7,1.7
			C96.4,57.5,97.1,56.7,97.1,55.8z"/>
	</g>
	<g>
		<circle class="st0" cx="48.3" cy="57.3" r="1.7"/>
	</g>
	<g>
		<path class="st0" d="M75.5,66.2c0-1.1-1.6-2-3.6-2s-3.6,0.9-3.6,2c0,1.1,1.6,2,3.6,2S75.5,67.3,75.5,66.2z"/>
	</g>
	<g>
		<path class="st0" d="M80.3,57.8c1.2,0.8,2.8,0.5,3.6-0.7c0.8-1.2,0.5-2.8-0.7-3.6c-1.2-0.8-2.8-0.5-3.6,0.7
			C78.8,55.4,79.1,57,80.3,57.8z M81.8,53.7c0.3,0.2,0.4,0.7,0.2,1s-0.7,0.4-1,0.2c-0.3-0.2-0.4-0.7-0.2-1
			C81,53.5,81.4,53.4,81.8,53.7z"/>
	</g>
	<g>
		<path class="st0" d="M59.2,57.5c0.6,1.3,2.2,1.8,3.5,1.2c1.3-0.6,1.8-2.2,1.2-3.5s-2.2-1.8-3.5-1.2C59.1,54.7,58.5,56.2,59.2,57.5
			z M62.5,54.7c0.2,0.4,0,0.8-0.3,1c-0.4,0.2-0.8,0-1-0.3c-0.2-0.4,0-0.8,0.3-1C61.9,54.2,62.3,54.3,62.5,54.7z"/>
	</g>
	<g>
		<g>
			<g>
				<path class="st0" d="M72.2,71.7c0.2,1,0.1,2.2,0.1,3.1c-0.1,0.6-0.2,1.3-0.5,1.8c-0.5,0.7-1.5,0.7-2.1,0.1c-1-1-0.7-3.1-0.3-4.4
					c0.1-0.2-0.3-0.3-0.3-0.1c-0.4,1.5-0.8,4.6,1.2,5.1c2.9,0.8,2.7-4.3,2.4-5.8C72.4,71.4,72.1,71.5,72.2,71.7L72.2,71.7z"/>
			</g>
		</g>
	</g>
	<g>
		<g>
			<g>
				<path class="st0" d="M42.1,86.3c-0.5-0.7-0.7-1.7,0.2-2.1c0.2-0.1,0-0.4-0.2-0.3c-1.1,0.6-0.9,1.7-0.3,2.6
					C42,86.6,42.3,86.5,42.1,86.3L42.1,86.3z"/>
			</g>
		</g>
	</g>
	<g>
		<g>
			<g>
				<path class="st0" d="M47,88.5c-1.4,0.1-2.5-0.4-3.6-1.1c-0.2-0.1-0.3,0.2-0.2,0.3c1.1,0.8,2.4,1.3,3.8,1.2
					C47.2,88.9,47.2,88.5,47,88.5L47,88.5z"/>
			</g>
		</g>
	</g>
	<g>
		<g>
			<g>
				<path class="st0" d="M43.7,85c-0.8-0.4-1.7-1.6-0.3-2c1.1-0.3,2.2,0.7,2.9,1.4c0.2,0.2,0.4-0.1,0.2-0.2
					c-0.9-0.9-2.6-2.3-3.8-1.2c-0.9,0.7,0.1,1.9,0.8,2.3C43.7,85.4,43.9,85.1,43.7,85L43.7,85z"/>
			</g>
		</g>
	</g>
	<g>
		<g>
			<g>
				<path class="st0" d="M93.4,55.5c2.5,3.8,3.4,7.8,3.7,12.3c0.3,4.7,0.5,9.3,0.6,14c0.1,4.6,0.2,9.3,0.4,13.9
					c0.2,4.5,0.8,9.2,0.2,13.6c-0.1,0.4,0.6,0.6,0.6,0.2c0.7-4.5,0-9.3-0.2-13.8c-0.2-4.8-0.3-9.6-0.4-14.4
					c-0.2-4.8-0.3-9.7-0.7-14.5c-0.3-4.2-1.3-8-3.7-11.6C93.7,54.8,93.1,55.1,93.4,55.5L93.4,55.5z"/>
			</g>
		</g>
	</g>
	<g>
		<g>
			<g>
				<path class="st0" d="M88.2,127.2c0.1,0,0.1,0,0.1,0c0.2,0,0.2-0.3,0-0.3h0c-0.1,0-0.1,0-0.1,0.1c0,0-0.1,0,0,0
					c0.1,0.1,0.1,0.1,0.2,0.2c0-0.1,0-0.1,0.1-0.2C88.3,127,88.2,127.1,88.2,127.2c0,0,0.1,0,0.1,0.1c0.2,0.2,0.4-0.1,0.2-0.2
					c-0.1-0.1-0.1-0.1-0.2-0.2c-0.1-0.1-0.2-0.1-0.3,0.1c0,0.1,0,0.1-0.1,0.2c-0.1,0.1,0.1,0.2,0.2,0.2c0.1,0,0.2-0.1,0.2-0.2
					c-0.1,0-0.1,0.1-0.1,0.1h0c0.2,0,0.2-0.3,0-0.3c-0.1,0-0.1,0-0.1,0C88,126.9,88,127.2,88.2,127.2L88.2,127.2z"/>
			</g>
		</g>
	</g>
	<g>
		<g>
			<g>
				<path class="st0" d="M43.8,88.3c-0.4,2.7-1.5,5.4-1.4,8.2c0,0.6-0.1,1.5,0.5,1.9c0.5,0.3,1.1,0.2,1.5-0.1c1.7-1,1.9-3.7,2.3-5.5
					c0.5-2.8,0.8-5.5,0.2-8.3c-0.1-0.2-0.4-0.1-0.3,0.1c0.5,2.3,0.4,4.7,0,7c-0.3,1.7-0.5,3.8-1.4,5.3c-0.5,0.9-1.8,2.3-2.5,0.5
					c-0.3-0.8,0-2.3,0.1-3.1c0.3-2,0.9-3.9,1.2-5.9C44.1,88.2,43.8,88.1,43.8,88.3L43.8,88.3z"/>
			</g>
		</g>
	</g>
	<g>
		<g>
			<g>
				<path class="st0" d="M44.2,88.7c-0.1,1.3-0.3,2.7-0.4,4c-0.1,0.9-0.5,2.3-0.1,3.2c0.4,0.8,1.6,1.1,2,0.1
					c0.1-0.2-0.2-0.3-0.3-0.1c-1.1-0.1-1.6-0.5-1.5-1.2c0-0.3,0.1-0.6,0.1-0.8c0.1-0.5,0.1-1.1,0.2-1.6c0.1-1.2,0.2-2.3,0.4-3.5
					C44.5,88.5,44.2,88.5,44.2,88.7L44.2,88.7z"/>
			</g>
		</g>
	</g>
	<g>
		<g>
			<g>
				<path class="st0" d="M102.5,89.1c1.3-2.4,2.9-4.5,4.3-6.7c0.1-0.1,0-0.1,0-0.2c-1.2-1.4-2.7-2.4-4.4-3.1
					c-0.8-0.4-1.7-0.6-2.5-0.9c-0.8-0.3-1.4-0.8-2.3-0.7c-0.2,0-0.2,0.3,0,0.3c0.8,0,1.2,0.4,1.8,0.6c0.6,0.2,1.2,0.4,1.8,0.6
					c1.5,0.5,2.9,1.2,4.1,2.2c0.6,0.5,1.2,0.8,0.8,1.7c-0.3,0.7-0.9,1.3-1.3,2c-0.9,1.4-1.8,2.7-2.6,4.2
					C102.1,89.2,102.4,89.3,102.5,89.1L102.5,89.1z"/>
			</g>
		</g>
	</g>
	<g>
		<g>
			<g>
				<path class="st0" d="M98.9,96.9c0.5-1.2,0.9-2.4,1.5-3.5c0.1-0.2-0.2-0.4-0.3-0.2c-0.5,1.2-1,2.4-1.5,3.6
					C98.5,97.1,98.8,97.1,98.9,96.9L98.9,96.9z"/>
			</g>
		</g>
	</g>
	<g>
		<g>
			<g>
				<path class="st0" d="M100,84.5c0-0.2,0.2-0.4,0.4-0.4c-0.1-0.1-0.1-0.1-0.2-0.2c0,0.3,0.2,0.5,0.4,0.6c0.3,0.2,1.1,0,1.2,0.4
					c0.1,0.2,0.4,0.1,0.3-0.1c-0.1-0.3-0.3-0.4-0.5-0.5c-0.3-0.1-1.1,0-1.1-0.5c0-0.1-0.1-0.2-0.2-0.2c-0.4,0.1-0.6,0.3-0.7,0.7
					C99.7,84.6,100,84.7,100,84.5L100,84.5z"/>
			</g>
		</g>
	</g>
	<g>
		<g>
			<g>
				<path class="st0" d="M99.4,86.6c0.4,0.3,0.7,0.6,1.1,0.9c0.2,0.1,0.4-0.1,0.2-0.2c-0.4-0.3-0.7-0.6-1.1-0.9
					C99.5,86.2,99.2,86.4,99.4,86.6L99.4,86.6z"/>
			</g>
		</g>
	</g>
	<g>
		<g>
			<g>
				<path class="st0" d="M99.7,89c0.4,0,0.7,0.2,1,0.5c0.1,0.2,0.4,0,0.3-0.2c-0.3-0.4-0.7-0.6-1.3-0.6C99.5,88.7,99.5,89,99.7,89
					L99.7,89z"/>
			</g>
		</g>
	</g>
	<g>
		<g>
			<g>
				<path class="st0" d="M100.8,87.2c0.1-0.3,0.4-0.6,0.8-0.6c-0.1-0.1-0.1-0.1-0.2-0.1c0.1,0.5-0.4,1-0.9,0.9
					c-0.2,0-0.3,0.3-0.1,0.3c0.7,0.1,1.4-0.6,1.3-1.3c0-0.1-0.1-0.1-0.2-0.1c-0.5,0.1-0.9,0.4-1.1,0.8
					C100.4,87.3,100.7,87.4,100.8,87.2L100.8,87.2z"/>
			</g>
		</g>
	</g>
	<g>
		<g>
			<g>
				<path class="st0" d="M43.1,98.7c1.7,2.7,5.5-1.8,6.6-3c0.1-0.2-0.1-0.4-0.2-0.2c-1,1.1-4.7,5.3-6.1,3.1
					C43.3,98.3,43,98.5,43.1,98.7L43.1,98.7z"/>
			</g>
		</g>
	</g>
	<g>
		<g>
			<g>
				<path class="st0" d="M44.8,99.8c1.8,0.4,3.6,2.6,5.5,1.4c0.2-0.1,0-0.4-0.2-0.3c-1.8,1-3.5-1.1-5.3-1.4
					C44.7,99.4,44.6,99.7,44.8,99.8L44.8,99.8z"/>
			</g>
		</g>
	</g>
	<g>
		<g>
			<g>
				<path class="st0" d="M46.8,84.7c0.7,0.4,1.5,0.6,2.3,0.8c1,0.2,1.9,0.2,2.7,0.9c1.9,1.5,1.9,4.1,1.8,6.4c0,0.2,0.3,0.2,0.3,0
					c0.1-2.1,0.1-4.3-1.3-6c-1.5-1.8-3.7-1.3-5.6-2.3C46.8,84.4,46.6,84.7,46.8,84.7L46.8,84.7z"/>
			</g>
		</g>
	</g>
	<g>
		<g>
			<g>
				<path class="st0" d="M52.8,87.4c6.2,3.9,13.4,5.5,20.6,5.3c0.2,0,0.2-0.3,0-0.3C66.3,92.6,59.1,91,53,87.2
					C52.8,87,52.7,87.3,52.8,87.4L52.8,87.4z"/>
			</g>
		</g>
	</g>
	<g>
		<g>
			<g>
				<path class="st0" d="M97.1,81.1c-6,5.2-14.3,6.4-21.1,10.4c-3.5,2-6.8,4.5-9.8,7.1c-3.1,2.6-6,5.5-9.2,8.1
					c-1.8,1.5-3.8,2.8-6.1,3.6c-1,0.3-2.1,0.6-3.2,0.4c-0.8-0.1-1.5-0.5-1.8-1.3c-0.3-0.8,0-1.9,0.9-2.1c0.2-0.1,0.1-0.4-0.1-0.3
					c-1.1,0.3-1.5,1.5-1.2,2.5c0.5,1.4,2.1,1.6,3.4,1.5c4.2-0.4,7.7-3.5,10.7-6.1c3.8-3.4,7.4-6.9,11.5-9.8c4-3,8.3-5.2,13-7
					s9.4-3.5,13.2-6.7C97.4,81.2,97.2,80.9,97.1,81.1L97.1,81.1z"/>
			</g>
		</g>
	</g>
	<g>
		<g>
			<g>
				<path class="st0" d="M97.5,80.6c-0.4,0.3-0.7,0.6-1.1,0.9c-0.2,0.1,0.1,0.4,0.2,0.2c0.4-0.3,0.7-0.6,1.1-0.9
					C97.9,80.7,97.7,80.5,97.5,80.6L97.5,80.6z"/>
			</g>
		</g>
	</g>
	<g>
		<g>
			<g>
				<path class="st0" d="M97.5,81.8c-2.5,2.6-5.5,4.4-8.6,6.1c-3.1,1.7-6,3.6-8.8,5.7c-5.6,4.1-10.5,9-14.8,14.5
					c-0.1,0.2,0.1,0.4,0.2,0.2c4.4-5.7,9.6-10.7,15.4-15c2.8-2,5.7-3.8,8.7-5.5c2.9-1.7,5.8-3.4,8.1-5.9
					C97.9,81.9,97.7,81.7,97.5,81.8L97.5,81.8z"/>
			</g>
		</g>
	</g>
	<g>
		<g>
			<g>
				<path class="st0" d="M97.9,82.7c-3.7,5-7.6,10-11.5,14.8c-0.1,0.2,0.1,0.4,0.2,0.2c4-4.9,7.9-9.8,11.6-14.9
					C98.3,82.7,98,82.5,97.9,82.7L97.9,82.7z"/>
			</g>
		</g>
	</g>
	<g>
		<g>
			<g>
				<path class="st0" d="M97.8,84c-0.8,1.8-1.7,3.5-2.7,5.1c-0.1,0.2,0.2,0.3,0.3,0.2c1-1.7,1.9-3.4,2.7-5.1
					C98.2,84,97.9,83.8,97.8,84L97.8,84z"/>
			</g>
		</g>
	</g>
	<g>
		<g>
			<g>
				<path class="st0" d="M45.5,107.9c-0.7,2.4-1.3,4.9-1.7,7.4c-0.3,1.5-0.6,3.2,0.8,4.2c1.5,1,3.7,0.8,5.3,0.6
					c2.4-0.4,4.6-1.4,6.8-2.3c0.2-0.1,0-0.4-0.2-0.3c-1.8,0.8-3.7,1.6-5.6,2c-1.8,0.4-4.2,0.8-6-0.1c-2.1-1.1-1-4.1-0.6-5.9
					c0.4-1.9,0.8-3.7,1.4-5.5C45.9,107.8,45.6,107.8,45.5,107.9L45.5,107.9z"/>
			</g>
		</g>
	</g>
	<g>
		<g>
			<g>
				<path class="st0" d="M47.8,120.5c0.7,0.9,0.7,2.1,0.1,3.1c-0.1,0.1,0,0.2,0.1,0.2c0.7,0.5,1.5,0.5,2.4,0.2
					c1.6-0.4,3.1-1,4.6-1.5c3.2-1,6.4-2.1,9.5-3.2c0.2-0.1,0.1-0.4-0.1-0.3c-3.7,1.3-7.5,2.6-11.2,3.8c-0.9,0.3-1.8,0.6-2.6,0.8
					c-0.4,0.1-0.9,0.3-1.3,0.3c-1.2,0-0.9-0.2-0.7-0.8c0.3-1,0.3-1.9-0.4-2.8C47.9,120.2,47.6,120.3,47.8,120.5L47.8,120.5z"/>
			</g>
		</g>
	</g>
	<g>
		<g>
			<g>
				<path class="st0" d="M50.3,123.9c-0.5,1.2-0.9,2.3-1.1,3.6c0,0.2,0.3,0.3,0.3,0.1c0.2-1.2,0.6-2.4,1.1-3.5
					C50.7,123.9,50.4,123.7,50.3,123.9L50.3,123.9z"/>
			</g>
		</g>
	</g>
	<g>
		<g>
			<g>
				<path class="st0" d="M57.7,128.4c0.2,0,0.2-0.3,0-0.3C57.5,128.1,57.5,128.4,57.7,128.4L57.7,128.4z"/>
			</g>
		</g>
	</g>
	<g>
		<g>
			<g>
				<path class="st0" d="M57.7,128.3c0-0.1,0-0.1,0-0.2c0-0.2-0.3-0.2-0.3,0c0,0.1,0,0.1,0,0.2C57.3,128.5,57.7,128.5,57.7,128.3
					L57.7,128.3z"/>
			</g>
		</g>
	</g>
	<g>
		<g>
			<g>
				<path class="st0" d="M57.9,128c-0.2,1.6,0.8,3,2.3,3.7c1.9,0.9,4.2,0.3,6.1-0.2c1.4-0.4,2.7-0.8,4.1-0.7
					c1.4,0.1,2.6,0.7,3.9,1.2c2.3,0.7,4.6,0.5,6.9,0c1.9-0.4,3.8-0.7,5-2.4c1.2-1.8,1.8-3.8,4-4.6c1.9-0.6,4.2-0.3,5.6,1.1
					c0.6,0.6,1.4,2.2,2.3,1c0.6-0.8,0.5-2.3,0.6-3.1c0.2-1.6,0.3-3.1,0.3-4.7c0.1-3.1-0.1-6.2-0.5-9.3c0-0.2-0.4-0.2-0.3,0
					c0.6,4.7,0.7,9.5,0.2,14.2c-0.1,0.6,0,1.6-0.3,2.1c-0.1,0.2-1,0.5-1.3,0.4c-0.4-0.2-0.1-0.2-0.2-0.3c-0.5-0.4-0.9-0.9-1.5-1.3
					c-1.1-0.6-2.5-0.9-3.7-0.7c-1.2,0.1-2.3,0.6-3.2,1.4c-1.3,1.2-1.6,3-2.8,4.2c-0.9,0.9-2.2,1.1-3.4,1.4c-1.3,0.3-2.5,0.6-3.8,0.6
					c-1.2,0.1-2.4,0-3.6-0.4c-1-0.3-2-0.8-3.1-1c-2.3-0.5-4.4,0.3-6.5,0.8c-1.5,0.4-3.3,0.6-4.8-0.1c-1.3-0.6-2.3-1.9-2.1-3.4
					C58.2,127.8,57.9,127.8,57.9,128L57.9,128z"/>
			</g>
		</g>
	</g>
	<g>
		<g>
			<g>
				<path class="st0" d="M50.5,100.2c-0.8,2-1.6,3.9-2.3,5.9c-0.1,0.2,0.2,0.3,0.3,0.1c0.8-2,1.6-3.9,2.3-5.9
					C50.9,100.1,50.6,100,50.5,100.2L50.5,100.2z"/>
			</g>
		</g>
	</g>
	<g>
		<g>
			<g>
				<path class="st0" d="M50.7,100.6c-0.5,1.8-0.9,3.7-1.4,5.5c-0.1,0.2,0.3,0.3,0.3,0.1c0.5-1.8,0.9-3.7,1.4-5.5
					C51.1,100.4,50.8,100.4,50.7,100.6L50.7,100.6z"/>
			</g>
		</g>
	</g>
	<g>
		<g>
			<g>
				<path class="st0" d="M51.4,100.6c-0.1,0.7-0.1,1.5-0.2,2.2c0,0.2,0.3,0.2,0.3,0c0.1-0.7,0.1-1.5,0.2-2.2
					C51.7,100.4,51.4,100.4,51.4,100.6L51.4,100.6z"/>
			</g>
		</g>
	</g>
	<g>
		<g>
			<g>
				<path class="st0" d="M64.5,119.2c1.7-1.5,4-1.6,6.1-1.9c1.8-0.3,3.5-0.7,4.9-1.8c1.5-1.1,2.6-2.6,3.9-3.9
					c1.5-1.6,3.2-2.7,5.1-3.9c3.4-2.1,6.4-4.2,8.3-7.9c2.2-4.3,3.8-9,5.6-13.4c0.1-0.2-0.2-0.3-0.3-0.1c-0.9,2.3-1.9,4.7-2.8,7
					c-0.9,2.3-1.8,4.6-2.9,6.7c-2.1,4-5.7,5.9-9.3,8.2c-1.6,1-3,2.2-4.3,3.6c-1.3,1.4-2.5,3-4.2,4c-3.2,1.8-7.3,0.6-10.2,3.1
					C64.1,119.1,64.4,119.3,64.5,119.2L64.5,119.2z"/>
			</g>
		</g>
	</g>
	<g>
		<g>
			<g>
				<path class="st0" d="M87.7,105.8c-0.4,4.1-0.7,8.3-0.7,12.5c0,0.2,0.3,0.2,0.3,0c0.1-4.2,0.3-8.3,0.7-12.5
					C88,105.6,87.7,105.6,87.7,105.8L87.7,105.8z"/>
			</g>
		</g>
	</g>
	<g>
		<g>
			<g>
				<path class="st0" d="M82,108.9c-0.6,4.8-1.2,9.7-1.6,14.5c0,0.2,0.3,0.2,0.3,0c0.5-4.8,1-9.7,1.6-14.5
					C82.4,108.8,82,108.8,82,108.9L82,108.9z"/>
			</g>
		</g>
	</g>
	<g>
		<g>
			<g>
				<path class="st0" d="M84.6,107.7c-0.1,1.3-0.1,2.6-0.1,3.9c0,0.2,0.3,0.2,0.3,0c0.1-1.3,0.1-2.6,0.1-3.9
					C84.9,107.4,84.6,107.4,84.6,107.7L84.6,107.7z"/>
			</g>
		</g>
	</g>
	<g>
		<g>
			<g>
				<path class="st0" d="M64.2,119.2c-0.2,2.1-0.5,4.1-1.2,6.1c-0.1,0.2,0.3,0.3,0.3,0.1c0.6-2,1-4.1,1.2-6.2
					C64.6,119,64.2,119,64.2,119.2L64.2,119.2z"/>
			</g>
		</g>
	</g>
	<g>
		<g>
			<g>
				<path class="st0" d="M65.5,118.4c-0.1,1.2-0.3,2.5-0.4,3.7c0,0.2,0.3,0.2,0.3,0c0.1-1.2,0.3-2.5,0.4-3.7
					C65.9,118.2,65.5,118.2,65.5,118.4L65.5,118.4z"/>
			</g>
		</g>
	</g>
	<g>
		<g>
			<g>
				<path class="st0" d="M67.3,117.9c0.2,2.7,0.3,5.4,0.4,8.2c0,0.2,0.3,0.2,0.3,0c-0.2-2.7-0.3-5.4-0.4-8.2
					C67.6,117.7,67.3,117.7,67.3,117.9L67.3,117.9z"/>
			</g>
		</g>
	</g>
	<g>
		<g>
			<g>
				<path class="st0" d="M73.6,116.6c-0.1,1.6-0.2,3.1-0.3,4.7c0,0.2,0.3,0.2,0.3,0c0.1-1.6,0.2-3.1,0.3-4.7
					C73.9,116.4,73.6,116.4,73.6,116.6L73.6,116.6z"/>
			</g>
		</g>
	</g>
	<g>
		<g>
			<g>
				<path class="st0" d="M74.6,116.2c-0.1,1.2-0.1,2.4,0,3.5c0,0.2,0.3,0.2,0.3,0c-0.1-1.2-0.1-2.4,0-3.5
					C75,116,74.6,116,74.6,116.2L74.6,116.2z"/>
			</g>
		</g>
	</g>
	<g>
		<g>
			<g>
				<path class="st0" d="M98.7,106.9c0,3.6,0.2,7.2,0.8,10.8c0.1,0.9,0.3,1.8,0.5,2.7c0.2,0.8,0.6,1.8,0.5,2.6
					c-0.1,0.8-0.9,1.3-1.5,1.7c-0.1,0.1-0.2,0.1-0.3,0.2c-0.3,0.3-0.4,0.5-0.4,0.9c0,0.2,0.3,0.2,0.3,0c-0.1-0.8,1.5-1,1.9-1.6
					c0.2-0.3,0.3-0.6,0.3-1c0.1-1.4-0.5-3.1-0.8-4.5c-0.7-3.9-1-7.9-1-11.9C99.1,106.7,98.7,106.7,98.7,106.9L98.7,106.9z"/>
			</g>
		</g>
	</g>
	<g>
		<g>
			<g>
				<path class="st0" d="M53.2,53.2c1.9-0.4,3.6-1.2,5.3-2.2c1.7-1,3.2-1.8,5.2-1.7c2.4,0,5.1,0.5,6.6-1.8c0.1-0.2-0.2-0.3-0.3-0.2
					c-1.7,2.6-5.1,1.4-7.7,1.7c-1.4,0.2-2.7,0.9-3.9,1.6c-1.7,1-3.4,1.9-5.4,2.3C52.9,52.9,53,53.3,53.2,53.2L53.2,53.2z"/>
			</g>
		</g>
	</g>
	<g>
		<g>
			<g>
				<path class="st0" d="M71.5,47.4c2.6,1.9,5.7,1.5,8.7,1.9c1.8,0.3,3.3,1.2,5,1.9c1.7,0.7,3.4,0.9,5.1,0.7c0.2,0,0.2-0.3,0-0.3
					c-2,0.2-3.9-0.2-5.8-1c-1.4-0.6-2.6-1.3-4.1-1.5c-3-0.5-6.2,0-8.8-1.9C71.5,47,71.4,47.3,71.5,47.4L71.5,47.4z"/>
			</g>
		</g>
	</g>
	<g>
		<g>
			<g>
				<path class="st0" d="M52.8,53.7c3.9-5.7,10.3-9.3,17.2-9.6c3.7-0.2,7.4,0.6,10.7,2.3c3.4,1.6,6.6,3.6,9.9,5.4
					c0.2,0.1,0.3-0.2,0.2-0.3c-3.7-2-7.3-4.3-11.1-6c-3.3-1.4-7-2-10.6-1.7c-6.7,0.6-12.8,4.2-16.5,9.7
					C52.4,53.7,52.7,53.9,52.8,53.7L52.8,53.7z"/>
			</g>
		</g>
	</g>
	<g>
		<g>
			<g>
				<path class="st0" d="M51.7,51.8c3.1-8,10.5-15.2,19.7-14c2.2,0.3,4.2,1,6.3,1.7c2.1,0.7,4.2,1.5,6.1,2.5c3.7,2,6.8,5.2,7.4,9.4
					c0,0.2,0.3,0.1,0.3-0.1c-1-7.2-8.3-10.4-14.4-12.4c-3.4-1.1-6.7-2-10.3-1.4c-3.4,0.6-6.6,2.3-9.1,4.6c-2.9,2.6-4.9,6-6.3,9.5
					C51.3,52,51.6,52.1,51.7,51.8L51.7,51.8z"/>
			</g>
		</g>
	</g>
	<g>
		<g>
			<g>
				<path class="st0" d="M51.3,51.7C53,44.8,58,38.8,64.6,36.1c4.1-1.7,8.3-1.6,12.5-0.1c3.3,1.1,6.5,2.9,9.2,5.2
					c2.9,2.6,5,5.8,5.8,9.6c0.1,0.2,0.4,0.1,0.3-0.1c-1.5-7-7.4-12-13.8-14.5c-4-1.6-8.2-2.3-12.4-1c-3.6,1.1-6.8,3.2-9.4,5.9
					c-2.8,3-4.9,6.6-5.9,10.6C50.9,51.9,51.2,52,51.3,51.7L51.3,51.7z"/>
			</g>
		</g>
	</g>
	<g>
		<g>
			<g>
				<path class="st0" d="M69.7,34.6c1.5-6.5,2.9-13.1,4.4-19.6c-0.1,0-0.2,0-0.3-0.1c-0.7,6.5-1.4,13-2,19.5c0,0.2,0.3,0.2,0.3,0
					c0.7-6.5,1.4-13,2-19.5c0-0.2-0.3-0.2-0.3-0.1c-1.5,6.5-2.9,13.1-4.4,19.6C69.3,34.7,69.7,34.8,69.7,34.6L69.7,34.6z"/>
			</g>
		</g>
	</g>
	<g>
		<g>
			<g>
				<path class="st0" d="M73.7,14.9c0,3.4,0,6.7,0,10.1c0,3.3-0.2,6.5,0.1,9.8c0,0.2,0.3,0.2,0.3,0c-0.2-3.3-0.1-6.5-0.1-9.8
					c0-3.4,0-6.7,0-10.1C74,14.7,73.7,14.7,73.7,14.9L73.7,14.9z"/>
			</g>
		</g>
	</g>
	<g>
		<g>
			<g>
				<path class="st0" d="M78.6,36.2C82.9,30,87,23.7,91.1,17.4c-0.1-0.1-0.2-0.1-0.3-0.1c-2.4,7.3-4.8,14.6-7.2,21.9
					c-0.1,0.2,0.3,0.3,0.3,0.1c2.4-7.3,4.8-14.6,7.2-21.9c0.1-0.2-0.2-0.3-0.3-0.1c-4.1,6.3-8.3,12.6-12.5,18.9
					C78.2,36.2,78.5,36.4,78.6,36.2L78.6,36.2z"/>
			</g>
		</g>
	</g>
	<g>
		<g>
			<g>
				<path class="st0" d="M90.8,17.4c-3.1,6.5-6.2,13.1-9.3,19.7c-0.1,0.2,0.2,0.4,0.3,0.2c3-6.6,6.1-13.2,9.3-19.7
					C91.2,17.4,90.9,17.2,90.8,17.4L90.8,17.4z"/>
			</g>
		</g>
	</g>
	<g>
		<g>
			<g>
				<path class="st0" d="M88.3,42.9C93.7,39.1,99,35,104,30.7c-0.1-0.1-0.2-0.1-0.3-0.2c-1.6,3-4,5.5-6.3,8c-2.4,2.6-4.6,5.2-6.7,8
					c-0.1,0.2,0.2,0.3,0.3,0.2c2.3-3,4.7-5.8,7.3-8.6c2.1-2.3,4.3-4.6,5.8-7.4c0.1-0.2-0.1-0.3-0.3-0.2c-5,4.3-10.3,8.4-15.7,12.2
					C88,42.8,88.1,43.1,88.3,42.9L88.3,42.9z"/>
			</g>
		</g>
	</g>
	<g>
		<g>
			<g>
				<path class="st0" d="M89.7,44.7c4.8-4.4,9.4-9,13.9-13.7c0.2-0.2-0.1-0.4-0.2-0.2c-4.5,4.7-9.1,9.3-13.9,13.7
					C89.4,44.6,89.6,44.9,89.7,44.7L89.7,44.7z"/>
			</g>
		</g>
	</g>
	<g>
		<g>
			<g>
				<path class="st0" d="M57.8,39.6c-2.8-6.1-5.5-12.1-8.3-18.2c-0.1,0.1-0.2,0.1-0.3,0.2c4,5.2,8,10.4,12,15.5
					c0.1,0.2,0.4,0,0.3-0.2c-4-5.2-8-10.4-12-15.5c-0.1-0.2-0.4,0-0.3,0.2c2.8,6.1,5.5,12.1,8.3,18.2C57.5,40,57.8,39.8,57.8,39.6
					L57.8,39.6z"/>
			</g>
		</g>
	</g>
	<g>
		<g>
			<g>
				<path class="st0" d="M49.4,22.1c1.9,3,3.8,6,5.6,9.1c0.9,1.5,1.8,3.1,2.6,4.7c0.5,1,0.9,2.1,2,2.6c0.2,0.1,0.4-0.2,0.2-0.3
					c-1.3-0.6-1.9-2.5-2.6-3.7c-0.8-1.4-1.6-2.8-2.4-4.2c-1.6-2.8-3.4-5.5-5.1-8.2C49.6,21.8,49.3,22,49.4,22.1L49.4,22.1z"/>
			</g>
		</g>
	</g>
	<g>
		<g>
			<g>
				<path class="st0" d="M51.5,49.7c-4.8-4.5-9.5-8.9-14.3-13.4c-0.1,0.1-0.1,0.2-0.2,0.3c5.8,2.6,11.3,5.7,16.5,9.3
					c0.2,0.1,0.3-0.2,0.2-0.3c-5.2-3.7-10.7-6.8-16.5-9.3c-0.2-0.1-0.3,0.1-0.2,0.3c4.7,4.5,9.5,9,14.3,13.4
					C51.4,50.1,51.6,49.9,51.5,49.7L51.5,49.7z"/>
			</g>
		</g>
	</g>
	<g>
		<g>
			<g>
				<path class="st0" d="M37.3,36.8c2.9,1.9,5.8,3.9,8.4,6.1c2,1.7,3.9,3.8,6.5,4.7c0.2,0.1,0.3-0.2,0.1-0.3c-2.9-1-5.1-3.6-7.5-5.5
					c-2.4-1.9-4.8-3.7-7.4-5.3C37.3,36.4,37.2,36.6,37.3,36.8L37.3,36.8z"/>
			</g>
		</g>
	</g>
	<g>
		<g>
			<g>
				<path class="st0" d="M52.1,52c1.9-3.2,3.9-6.6,6.7-9.2c3.1-2.8,7.1-4.1,11.3-3.9c4.2,0.2,8.4,1.5,12.2,3.2
					c3.9,1.8,7.4,4.8,8.3,9.2c0.1,0.2,0.4,0.1,0.3-0.1c-0.8-4.1-4-7.1-7.6-9c-3.9-2-8.3-3.4-12.7-3.6c-4.1-0.2-8.1,0.8-11.3,3.5
					c-3.1,2.6-5.3,6.2-7.4,9.7C51.7,52.1,52,52.2,52.1,52L52.1,52z"/>
			</g>
		</g>
	</g>
	<g>
		<g>
			<g>
				<path class="st0" d="M69.4,46.6c-1.4,0.9-2.9,1.3-4.6,1.3c-1.4,0-2.8-0.1-4.2,0.4c-2.6,0.9-4.5,3-7,4.2c-0.2,0.1,0,0.4,0.2,0.3
					c2.6-1.3,4.8-3.8,7.7-4.5c1.5-0.3,3.1-0.1,4.7-0.2c1.2-0.1,2.3-0.6,3.3-1.2C69.8,46.8,69.6,46.5,69.4,46.6L69.4,46.6z"/>
			</g>
		</g>
	</g>
	<g>
		<g>
			<g>
				<path class="st0" d="M71.8,47.2c3.7,1.5,7.9,0.1,11.4,2.2c2.3,1.4,4.5,3.3,7.3,2.1c0.2-0.1,0-0.4-0.2-0.3
					c-3.3,1.4-5.6-1.7-8.3-2.8c-3.2-1.3-6.9-0.2-10.1-1.5C71.7,46.8,71.7,47.1,71.8,47.2L71.8,47.2z"/>
			</g>
		</g>
	</g>
	<g>
		<g>
			<g>
				<path class="st0" d="M98.7,100.1c-0.2,1.2,1.3,1.4,1.9,0.6c0.6-0.7,0.7-1.8,0.8-2.7c0.2-1.5,0.3-3,0.2-4.5c0-0.2-0.3-0.2-0.3,0
					c0.1,1.2,0.1,2.3,0,3.5c-0.1,0.6-0.2,1.3-0.3,1.9c-0.1,0.3-0.1,0.5-0.2,0.8c-0.1,0.9-0.7,1-1.8,0.5
					C99.1,100,98.8,99.9,98.7,100.1L98.7,100.1z"/>
			</g>
		</g>
	</g>
	<g>
		<g>
			<g>
				<path class="st0" d="M100.3,93.5c-0.3,1.4-0.5,2.7-0.8,4.1c-0.1,0.2,0.3,0.3,0.3,0.1c0.3-1.4,0.5-2.7,0.8-4.1
					C100.7,93.4,100.4,93.3,100.3,93.5L100.3,93.5z"/>
			</g>
		</g>
	</g>
	<g>
		<g>
			<g>
				<path class="st0" d="M54.4,89.6c0.3,4,0.3,7.9-0.1,11.9c0,0.2,0.3,0.2,0.3,0c0.4-4,0.4-7.9,0.1-11.9
					C54.7,89.4,54.4,89.4,54.4,89.6L54.4,89.6z"/>
			</g>
		</g>
	</g>
	<g>
		<g>
			<g>
				<path class="st0" d="M56.3,93c0.3,1.2,0.3,2.3,0,3.5c-0.1,0.2,0.3,0.3,0.3,0.1c0.3-1.2,0.3-2.4,0-3.7
					C56.6,92.7,56.3,92.8,56.3,93L56.3,93z"/>
			</g>
		</g>
	</g>
	<g>
		<g>
			<g>
				<path class="st0" d="M58.3,93.7c0,0.1,0,0.3,0,0.4c0,0.2,0.3,0.2,0.3,0c0-0.1,0-0.3,0-0.4C58.6,93.5,58.3,93.5,58.3,93.7
					L58.3,93.7z"/>
			</g>
		</g>
	</g>
	<g>
		<g>
			<g>
				<path class="st0" d="M47.1,84.3c3.5-0.7,6.5,1.3,9.5,2.7c2.6,1.2,5.4,2.1,8.3,2.6c5.7,1.1,11.6,0.7,17.2-0.9
					c0.2-0.1,0.1-0.4-0.1-0.3c-6.1,1.8-12.6,2-18.8,0.6c-3-0.7-5.9-1.9-8.6-3.3c-2.4-1.2-4.9-2.3-7.6-1.7
					C46.8,84,46.9,84.3,47.1,84.3L47.1,84.3z"/>
			</g>
		</g>
	</g>
	<g>
		<g>
			<g>
				<path class="st0" d="M71.6,94.3c-2.1,0.2-4.2,0.5-6.3,0.7c-0.2,0-0.2,0.3,0,0.3c2.1-0.2,4.2-0.5,6.3-0.7
					C71.8,94.6,71.8,94.3,71.6,94.3L71.6,94.3z"/>
			</g>
		</g>
	</g>
	<g>
		<g>
			<g>
				<path class="st0" d="M58.1,128.5c0-1.4,0.2-2.7,0.3-4c0-0.2-0.3-0.3-0.3-0.1c-0.2,1.4-0.3,2.7-0.4,4.1
					C57.8,128.7,58.1,128.7,58.1,128.5L58.1,128.5z"/>
			</g>
		</g>
	</g>
	<g>
		<g>
			<g>
				<path class="st0" d="M88,127.2c-0.1,0-0.3,0-0.4,0c-0.2,0-0.2,0.3,0,0.3c0.1,0,0.3,0,0.4,0C88.2,127.5,88.2,127.2,88,127.2
					L88,127.2z"/>
			</g>
		</g>
	</g>
	<g>
		<g>
			<g>
				<path class="st0" d="M87.3,125c1.7-1.4,3.7-2.1,5.9-1.9c0.2,0,0.2-0.3,0-0.3c-2.3-0.2-4.4,0.6-6.1,2
					C86.9,124.9,87.2,125.1,87.3,125L87.3,125z"/>
			</g>
		</g>
	</g>
	<g>
		<g>
			<g>
				<path class="st0" d="M53.2,124.3c1-0.2,1.9,0.1,2.6,0.8c0.2,0.2,0.4-0.1,0.2-0.2c-0.8-0.8-1.9-1.1-2.9-0.9
					C52.9,124,53,124.3,53.2,124.3L53.2,124.3z"/>
			</g>
		</g>
	</g>
	<g>
		<g>
			<g>
				<path class="st0" d="M54.3,123.5c0.4,0.1,0.7,0.2,1.1,0.2c0.2,0.1,0.3-0.3,0.1-0.3c-0.4-0.1-0.7-0.2-1.1-0.2
					C54.2,123.2,54.1,123.5,54.3,123.5L54.3,123.5z"/>
			</g>
		</g>
	</g>
	<g>
		<g>
			<g>
				<path class="st0" d="M89,123c0.3-0.1,0.6-0.1,0.9-0.2c0.2-0.1,0.1-0.4-0.1-0.3c-0.3,0.1-0.6,0.1-0.9,0.2
					C88.7,122.8,88.7,123.1,89,123L89,123z"/>
			</g>
		</g>
	</g>
	<g>
		<g>
			<g>
				<path class="st0" d="M45.1,89.2c-0.1,1.3-0.1,2.6-0.2,3.9c0,0.2,0.3,0.2,0.3,0c0.1-1.3,0.1-2.6,0.2-3.9
					C45.4,89,45.1,89,45.1,89.2L45.1,89.2z"/>
			</g>
		</g>
	</g>
	<g>
		<g>
			<g>
				<path class="st0" d="M52.5,51c0.3,0.4,0.6,0.7,1,0.8c0.2,0.1,0.3-0.2,0.1-0.3c-0.4-0.1-0.6-0.4-0.8-0.7
					C52.7,50.7,52.4,50.9,52.5,51L52.5,51z"/>
			</g>
		</g>
	</g>
	<g>
		<g>
			<g>
				<path class="st0" d="M53.5,49.5c0.3,0.5,0.8,0.9,1.3,1.2c0.2,0.1,0.4-0.2,0.2-0.3c-0.5-0.2-0.9-0.6-1.2-1.1
					C53.6,49.2,53.4,49.3,53.5,49.5L53.5,49.5z"/>
			</g>
		</g>
	</g>
	<g>
		<g>
			<g>
				<path class="st0" d="M54.9,47.1c0.3,0.9,0.9,1.6,1.8,1.9c0.2,0.1,0.3-0.2,0.1-0.3c-0.8-0.3-1.4-0.9-1.6-1.7
					C55.2,46.8,54.9,46.9,54.9,47.1L54.9,47.1z"/>
			</g>
		</g>
	</g>
	<g>
		<g>
			<g>
				<path class="st0" d="M57.8,43.8c0.7,0.9,1.5,1.9,2.2,2.8c0.1,0.2,0.4-0.1,0.2-0.2c-0.7-0.9-1.5-1.9-2.2-2.8
					C57.8,43.4,57.6,43.6,57.8,43.8L57.8,43.8z"/>
			</g>
		</g>
	</g>
	<g>
		<g>
			<g>
				<path class="st0" d="M63.4,39.8c0.5,1.6,1,3.1,1.5,4.7c0.1,0.2,0.4,0.1,0.3-0.1c-0.5-1.6-1-3.1-1.5-4.7
					C63.6,39.5,63.3,39.6,63.4,39.8L63.4,39.8z"/>
			</g>
		</g>
	</g>
	<g>
		<g>
			<g>
				<path class="st0" d="M74.7,39.6c-0.3,1.5-0.6,3-0.7,4.5c0,0.2,0.3,0.2,0.3,0c0.1-1.5,0.3-2.9,0.6-4.4
					C75,39.4,74.7,39.4,74.7,39.6L74.7,39.6z"/>
			</g>
		</g>
	</g>
	<g>
		<g>
			<g>
				<path class="st0" d="M80.7,46c0.7-1.2,1.4-2.4,2-3.6c0.1-0.2-0.2-0.3-0.3-0.2c-0.7,1.2-1.4,2.4-2,3.6C80.4,46,80.6,46.2,80.7,46
					L80.7,46z"/>
			</g>
		</g>
	</g>
	<g>
		<g>
			<g>
				<path class="st0" d="M83,47.3c0.7-1.2,1.4-2.3,2.1-3.5c0.1-0.2-0.2-0.3-0.3-0.2c-0.7,1.2-1.4,2.3-2.1,3.5
					C82.6,47.3,82.9,47.4,83,47.3L83,47.3z"/>
			</g>
		</g>
	</g>
	<g>
		<g>
			<g>
				<path class="st0" d="M85.2,48.3c0.6-1,1.2-2,1.8-3c0.1-0.2-0.2-0.3-0.3-0.2c-0.6,1-1.2,2-1.8,3C84.8,48.3,85.1,48.4,85.2,48.3
					L85.2,48.3z"/>
			</g>
		</g>
	</g>
	<g>
		<g>
			<g>
				<path class="st0" d="M86.6,49.1c0.5-0.9,1-1.8,1.6-2.7c0.1-0.2-0.2-0.3-0.3-0.2c-0.5,0.9-1,1.8-1.6,2.7
					C86.2,49.1,86.4,49.3,86.6,49.1L86.6,49.1z"/>
			</g>
		</g>
	</g>
	<g>
		<g>
			<g>
				<path class="st0" d="M87.8,49.9c0.4-0.8,0.9-1.6,1.3-2.4c0.1-0.2-0.2-0.3-0.3-0.2c-0.4,0.8-0.9,1.6-1.3,2.4
					C87.4,49.9,87.7,50.1,87.8,49.9L87.8,49.9z"/>
			</g>
		</g>
	</g>
	<g>
		<g>
			<g>
				<path class="st0" d="M88.7,50.5c0.5-0.6,0.9-1.2,1.2-1.9c0.1-0.2-0.2-0.3-0.3-0.1c-0.3,0.7-0.6,1.3-1.1,1.8
					C88.3,50.4,88.5,50.7,88.7,50.5L88.7,50.5z"/>
			</g>
		</g>
	</g>
	<g>
		<g>
			<g>
				<path class="st0" d="M89.8,50.8c0.1-0.3,0.3-0.5,0.4-0.7c0.1-0.2-0.2-0.3-0.3-0.2c-0.1,0.3-0.3,0.5-0.4,0.7
					C89.4,50.9,89.7,51,89.8,50.8L89.8,50.8z"/>
			</g>
		</g>
	</g>
	<g>
		<g>
			<g>
				<path class="st0" d="M100.3,93.4c-0.5-0.3-0.9-0.6-1.1-1.2c-0.3-0.9,0.9-2.3,1.7-1.1c0.1-0.1,0.2-0.1,0.3-0.2
					c-0.6-0.9,0.1-2.2,1.3-1.8c0.2,0.1,0.3-0.3,0.1-0.3c-1.5-0.5-2.4,1.1-1.6,2.3c0.1,0.2,0.4,0,0.3-0.2c-0.5-0.8-1.6-0.8-2.1,0
					c-0.7,1,0.2,2.2,1.1,2.7C100.4,93.8,100.5,93.5,100.3,93.4L100.3,93.4z"/>
			</g>
		</g>
	</g>
	<g>
		<g>
			<g>
				<path class="st0" d="M100.3,93.9c1.4-0.1,2.6-1.3,3.1-2.5c0.4-0.9,0.3-2.2-0.9-2.5c-0.2-0.1-0.3,0.3-0.1,0.3
					c1.4,0.4,0.8,2,0.2,2.8c-0.6,0.8-1.4,1.5-2.4,1.6C100.1,93.6,100.1,93.9,100.3,93.9L100.3,93.9z"/>
			</g>
		</g>
	</g>
	<g>
		<g>
			<g>
				<path class="st0" d="M41.6,84.2c-0.3-0.7-0.5-1.4-0.6-2.1c-0.2-1-0.4-2.4,0.8-2.7c1-0.3,2.6-0.3,2.7,1c0.1,0.8-0.3,1.8-0.4,2.5
					c0,0.2,0.3,0.3,0.3,0.1c0.1-0.8,0.2-1.6,0.3-2.4c0.1-0.4,0.1-0.8-0.1-1.1c-0.5-0.7-1.8-0.7-2.5-0.5c-0.7,0.1-1.5,0.3-1.7,1.1
					c-0.3,1.3,0.3,3,0.7,4.2C41.4,84.5,41.7,84.4,41.6,84.2L41.6,84.2z"/>
			</g>
		</g>
	</g>
	<g>
		<g>
			<g>
				<path class="st0" d="M45.3,78.3c-0.1,0.6-0.4,1-0.8,1.5c-0.1,0.2,0.2,0.3,0.3,0.2c0.4-0.5,0.7-1,0.8-1.6
					C45.6,78.2,45.3,78.1,45.3,78.3L45.3,78.3z"/>
			</g>
		</g>
	</g>
	<g>
		<g>
			<g>
				<path class="st0" d="M40.1,80.7c-0.9-0.9-1.9-2.5-0.1-3c0.6-0.2,1.4-0.2,2-0.3c0.9-0.2,1.7-0.5,2.6-0.3c0.2,0.1,0.3-0.3,0.1-0.3
					c-1.2-0.3-2.3,0.2-3.4,0.3c-0.7,0.1-1.7,0.1-2.3,0.6c-1,0.9,0.2,2.4,0.8,3.1C40,81.1,40.3,80.9,40.1,80.7L40.1,80.7z"/>
			</g>
		</g>
	</g>
	<g>
		<g>
			<g>
				<path class="st0" d="M36.5,79.5c-0.8-1.9,1.9-3.2,3.4-3.7c0.8-0.3,1.7-0.4,2.6-0.3c0.7,0.1,4.3,1,3,2.5
					c-0.2,0.2,0.1,0.4,0.2,0.2c0.8-0.8,0.2-1.6-0.6-2.1c-1.3-0.9-3-1.1-4.5-0.8c-1.8,0.4-5.3,1.9-4.4,4.3
					C36.3,79.8,36.6,79.7,36.5,79.5L36.5,79.5z"/>
			</g>
		</g>
	</g>
	<g>
		<g>
			<g>
				<path class="st0" d="M38.8,79.4c-0.5,0.3-1,0.6-1.6,0.5c-0.2,0-0.2,0.3,0,0.3c0.7,0.1,1.2-0.2,1.8-0.5
					C39.1,79.6,39,79.3,38.8,79.4L38.8,79.4z"/>
			</g>
		</g>
	</g>
	<g>
		<g>
			<g>
				<path class="st0" d="M35.9,78.9c-0.6-0.6-1.5-1.8-1.3-2.8c0.2-0.8,0.9-1,1.6-0.6c0.5,0.3,0.7,0.8,1,1.2c0.1,0.2,0.4,0,0.3-0.2
					c-0.5-0.9-1.8-2.4-2.9-1.3c-1,1,0.4,3,1.1,3.8C35.8,79.2,36,79,35.9,78.9L35.9,78.9z"/>
			</g>
		</g>
	</g>
	<g>
		<g>
			<g>
				<path class="st0" d="M35.9,74.9c0-0.8,0.9-1.2,1.6-1.1c0.8,0.1,1.4,0.8,1.6,1.6c0.1,0.2,0.4,0.1,0.3-0.1c-0.3-1-1.1-1.8-2.1-1.8
					c-0.8,0-1.7,0.6-1.7,1.5C35.6,75.1,35.9,75.1,35.9,74.9L35.9,74.9z"/>
			</g>
		</g>
	</g>
	<g>
		<g>
			<g>
				<path class="st0" d="M38.4,74c0.1-0.9,1.2-1.5,1.9-1.1c0.8,0.4,1,1.4,0.8,2.1c-0.1,0.2,0.3,0.3,0.3,0.1c0.3-1-0.2-2.3-1.3-2.6
					c-1-0.3-2,0.5-2.1,1.5C38,74.2,38.3,74.2,38.4,74L38.4,74z"/>
			</g>
		</g>
	</g>
	<g>
		<g>
			<g>
				<path class="st0" d="M40.8,73.1c0.5-0.7,1.6-0.5,1.9,0.3c0.2,0.6,0.1,1.3-0.1,1.8c-0.1,0.2,0.3,0.3,0.3,0.1
					c0.2-0.8,0.4-1.9-0.3-2.6c-0.6-0.6-1.6-0.5-2.1,0.2C40.4,73.1,40.6,73.2,40.8,73.1L40.8,73.1z"/>
			</g>
		</g>
	</g>
	<g>
		<g>
			<g>
				<path class="st0" d="M43,73.1c1.2,0,1.7,1.5,0.8,2.3c-0.2,0.1,0.1,0.4,0.2,0.2c1.1-1,0.4-2.8-1-2.8C42.8,72.8,42.8,73.1,43,73.1
					L43,73.1z"/>
			</g>
		</g>
	</g>
	<g>
		<g>
			<g>
				<path class="st0" d="M44.4,73.6c1,0.5,1.4,1.7,0.9,2.7c-0.1,0.2,0.2,0.3,0.3,0.2c0.6-1.1,0.2-2.6-1-3.1
					C44.4,73.2,44.2,73.5,44.4,73.6L44.4,73.6z"/>
			</g>
		</g>
	</g>
	<g>
		<g>
			<g>
				<path class="st0" d="M37.6,80.2c0.2,0.6,0.5,1.1,0.9,1.5c0.2,0.2,0.4,0.4,0.6,0.5c0.2,0.2,0.7,0.3,0.9,0.4
					c0.4,0.4,0,1.4,0.4,1.9c0.3,0.4,0.6,0.5,1,0.4c0.2,0,0.1-0.3-0.1-0.3c-1,0.2-0.7-1.7-0.8-2.1c0-0.1-0.1-0.1-0.1-0.1
					c-1.2-0.4-2-1.2-2.5-2.3C37.8,79.9,37.5,80,37.6,80.2L37.6,80.2z"/>
			</g>
		</g>
	</g>
	<g>
		<g>
			<g>
				<path class="st0" d="M39.8,82.3c0.2-0.9,0.5-1.7,1.1-2.4c0.1-0.2-0.1-0.4-0.2-0.2c-0.6,0.7-1,1.6-1.2,2.5
					C39.4,82.4,39.7,82.5,39.8,82.3L39.8,82.3z"/>
			</g>
		</g>
	</g>
	<g>
		<g>
			<g>
				<path class="st0" d="M37.2,65.4C35.3,66,35.9,69,38,68.6c0.9-0.2,1.6-0.9,1.5-1.9c-0.2-1-1.2-1.7-2.3-1.6
					c-0.2,0-0.1,0.3,0.1,0.3c0.9-0.2,1.8,0.5,1.9,1.5c0,0.7-0.6,1.3-1.3,1.4c-1.6,0.3-2-2.1-0.6-2.6C37.5,65.6,37.4,65.3,37.2,65.4
					L37.2,65.4z"/>
			</g>
		</g>
	</g>
	<g>
		<g>
			<g>
				<path class="st0" d="M38.8,65.7c0.7-1.1,2.5-1,3,0.2c0.6,1.6-1.2,2.8-2.6,1.9C39,67.7,38.8,68,39,68.1c1.6,1,3.7-0.4,3-2.3
					c-0.5-1.6-2.7-1.7-3.6-0.4C38.4,65.7,38.6,65.8,38.8,65.7L38.8,65.7z"/>
			</g>
		</g>
	</g>
	<g>
		<g>
			<g>
				<path class="st0" d="M38.2,68.7c0.2,0.4,0.4,0.7,0.5,1.1c0.1,0.1,0.3,0.1,0.3,0c0.1-0.3,0.3-0.6,0.5-0.8
					c0.2-0.1-0.1-0.4-0.2-0.2c-0.3,0.3-0.5,0.6-0.6,0.9c0.1,0,0.2,0,0.3,0c-0.2-0.4-0.4-0.7-0.5-1.1C38.4,68.3,38.1,68.5,38.2,68.7
					L38.2,68.7z"/>
			</g>
		</g>
	</g>
	<g>
		<g>
			<g>
				<path class="st0" d="M36.2,67.1c-1.3,0.9-2.1,2.4-2.1,4c0,1.3,0.7,3.1,2.3,3c0.2,0,0.2-0.3,0-0.3c-1.8,0.2-2.1-2.3-1.9-3.5
					s0.8-2.2,1.8-2.9C36.5,67.2,36.3,67,36.2,67.1L36.2,67.1z"/>
			</g>
		</g>
	</g>
	<g>
		<g>
			<g>
				<path class="st0" d="M43.7,73.1c1.6-1.6,0.9-6.2-1.7-6.3c-0.2,0-0.2,0.3,0,0.3c2.4,0.1,2.8,4.4,1.5,5.7
					C43.4,73,43.6,73.2,43.7,73.1L43.7,73.1z"/>
			</g>
		</g>
	</g>
	<g>
		<g>
			<g>
				<path class="st0" d="M37.4,65.3c-0.9-1-0.6-2.7,0.6-3.2c-0.1-0.1-0.2-0.2-0.2-0.2c-0.4,0.8-0.8,2.4,0.6,2.5
					c0.1,0,0.2-0.1,0.2-0.2c0-0.4-0.1-1.3,0.7-1.2c0-0.1-0.1-0.1-0.1-0.2c-0.1,0.4-0.2,0.8-0.1,1.3c0,0.1,0.1,0.2,0.2,0.2
					c0.5-0.2,0.8-0.1,1.3,0.1c0.2,0.1,0.3-0.3,0.1-0.3c-0.2-0.1-0.6-0.3-0.8-0.3c-0.2,0-0.4,0.1-0.6,0.2c0.1,0.1,0.1,0.1,0.2,0.2
					c0-0.4,0-0.8,0.1-1.2c0-0.1,0-0.2-0.1-0.2c-0.9-0.2-1.1,0.8-1.1,1.5c0.1-0.1,0.1-0.1,0.2-0.2c-1.1-0.1-0.6-1.5-0.3-2
					c0.1-0.2-0.1-0.3-0.2-0.2c-1.4,0.7-1.7,2.6-0.7,3.8C37.3,65.7,37.5,65.5,37.4,65.3L37.4,65.3z"/>
			</g>
		</g>
	</g>
	<g>
		<g>
			<g>
				<path class="st0" d="M34.9,70c0.5,0.9,0.6,2,0.3,3.1c-0.1,0.2,0.2,0.3,0.3,0.1c0.4-1.1,0.3-2.3-0.3-3.3
					C35.1,69.6,34.8,69.8,34.9,70L34.9,70z"/>
			</g>
		</g>
	</g>
	<g>
		<g>
			<g>
				<path class="st0" d="M42.4,69.3c-0.6,1-0.2,2.5,0.9,3c0.2,0.1,0.4-0.2,0.2-0.3c-0.9-0.4-1.3-1.6-0.8-2.5
					C42.8,69.3,42.5,69.1,42.4,69.3L42.4,69.3z"/>
			</g>
		</g>
	</g>
	<g>
		<g>
			<g>
				<path class="st0" d="M40.7,64.3c0.2-0.2,0.3-0.4,0.3-0.7c-0.1,0-0.2,0.1-0.3,0.1c0.2,0.3,0.3,0.7,0.2,1
					c-0.1,0.2,0.3,0.3,0.3,0.1c0.1-0.5,0-0.9-0.3-1.4c-0.1-0.1-0.3,0-0.3,0.1c0,0.2-0.1,0.4-0.2,0.5C40.3,64.2,40.5,64.5,40.7,64.3
					L40.7,64.3z"/>
			</g>
		</g>
	</g>
	<g>
		<g>
			<g>
				<path class="st0" d="M39.5,69.7c0.1-0.4,0.4-0.7,0.7-0.8c0.2-0.1,0.1-0.4-0.1-0.3c-0.5,0.1-0.9,0.5-1,1
					C39.1,69.8,39.4,69.9,39.5,69.7L39.5,69.7z"/>
			</g>
		</g>
	</g>
	<g>
		<g>
			<g>
				<path class="st0" d="M35.3,73c0,0-0.1-0.8-0.1-0.9c0-0.3,0-0.7,0-1c0-0.2-0.3-0.2-0.3,0c0,0.5,0,1,0,1.5c0,0.3,0,0.6,0.3,0.7
					C35.4,73.4,35.5,73.1,35.3,73L35.3,73z"/>
			</g>
		</g>
	</g>
	<g>
		<g>
			<g>
				<path class="st0" d="M43.6,72.1c-0.3-0.5-0.4-1-0.5-1.5c0-0.2-0.3-0.2-0.3,0c0.1,0.6,0.2,1.2,0.5,1.7
					C43.5,72.5,43.7,72.3,43.6,72.1L43.6,72.1z"/>
			</g>
		</g>
	</g>
	<g>
		<g>
			<g>
				<path class="st0" d="M43.7,71.8c0-0.2,0.1-0.3,0.1-0.5c-0.1,0-0.2,0.1-0.3,0.1c0.1,0.1,0.2,0.2,0.3,0.3c0.1,0.1,0.2,0,0.2-0.1
					c0.1-0.3,0.1-0.7,0-1c-0.1-0.2-0.4-0.1-0.3,0.1c0.1,0.3,0.1,0.6,0,0.8c0.1,0,0.2-0.1,0.2-0.1c-0.1-0.1-0.2-0.1-0.3-0.2
					c-0.1-0.1-0.2,0-0.3,0.1c-0.1,0.2-0.1,0.3-0.1,0.5C43.3,72,43.6,72.1,43.7,71.8L43.7,71.8z"/>
			</g>
		</g>
	</g>
	<g>
		<g>
			<g>
				<path class="st0" d="M34.9,72.6c-0.2,0-0.3-0.1-0.3-0.3c0-0.1-0.1-0.2-0.2-0.2c-0.1,0-0.2,0.1-0.2,0.2c0,0.3,0.3,0.6,0.6,0.6
					C35.1,72.9,35.1,72.6,34.9,72.6L34.9,72.6z"/>
			</g>
		</g>
	</g>
	<g>
		<g>
			<g>
				<path class="st0" d="M37.5,67c-0.2-0.1-0.2-0.3,0-0.3S37.8,67,37.5,67c-0.2,0-0.2,0.3,0,0.3c0.3,0,0.5-0.2,0.5-0.5
					c0-0.3-0.2-0.4-0.4-0.5c-0.2,0-0.5,0.1-0.5,0.3c-0.1,0.2,0.1,0.5,0.3,0.6C37.5,67.4,37.7,67.1,37.5,67L37.5,67z"/>
			</g>
		</g>
	</g>
	<g>
		<g>
			<g>
				<path class="st0" d="M40.3,66.6c-0.1,0-0.1-0.2,0-0.2C40.4,66.5,40.3,66.6,40.3,66.6c-0.2,0.1-0.1,0.4,0.1,0.3
					c0.4-0.1,0.4-0.8-0.1-0.8c-0.5,0-0.5,0.6-0.1,0.8C40.4,67,40.5,66.7,40.3,66.6L40.3,66.6z"/>
			</g>
		</g>
	</g>
	<g>
		<g>
			<g>
				<path class="st0" d="M42.8,73.1C42.8,73.1,42.9,73.1,42.8,73.1c0.3-0.2,0.1-0.4-0.1-0.3c0,0-0.1,0-0.1,0.1
					C42.5,72.9,42.6,73.2,42.8,73.1L42.8,73.1z"/>
			</g>
		</g>
	</g>
	<g>
		<g>
			<g>
				<path class="st0" d="M44.3,73.6c0.2,0,0.2-0.3,0-0.3C44.1,73.3,44.1,73.6,44.3,73.6L44.3,73.6z"/>
			</g>
		</g>
	</g>
	<g>
		<g>
			<g>
				<path class="st0" d="M39.3,75.7c0.2,0,0.2-0.3,0-0.3S39.1,75.7,39.3,75.7L39.3,75.7z"/>
			</g>
		</g>
	</g>
	<g>
		<g>
			<g>
				<path class="st0" d="M36.2,75.1c0.1-0.7,1.2-1,1.7-0.6c0.4,0.3,0.6,0.9,0.7,1.4c0.1,0.2,0.4,0.1,0.3-0.1
					c-0.2-0.8-0.6-1.7-1.5-1.8c-0.8-0.1-1.5,0.3-1.6,1.1C35.9,75.3,36.2,75.3,36.2,75.1L36.2,75.1z"/>
			</g>
		</g>
	</g>
	<g>
		<g>
			<g>
				<path class="st0" d="M41.1,73.3c0.3-0.1,0.6-0.3,0.9-0.1c0.2,0.1,0.3,0.4,0.3,0.7c0.1,0.4-0.1,0.9-0.2,1.4c0,0.2,0.3,0.2,0.3,0
					c0.1-0.7,0.4-1.4-0.1-2c-0.4-0.5-0.9-0.4-1.5-0.2C40.7,73.1,40.9,73.4,41.1,73.3L41.1,73.3z"/>
			</g>
		</g>
	</g>
	<g>
		<g>
			<g>
				<path class="st0" d="M40.6,82.7c0-0.2,0.1-0.4,0.3-0.6c0.2-0.1,0-0.4-0.2-0.3c-0.3,0.2-0.4,0.5-0.4,0.8
					C40.3,82.9,40.6,82.9,40.6,82.7L40.6,82.7z"/>
			</g>
		</g>
	</g>
	<g>
		<g>
			<g>
				<path class="st0" d="M40.6,84.4c0.1-0.4,0.3-0.7,0.6-1c0.2-0.1-0.1-0.4-0.2-0.2c-0.3,0.3-0.6,0.7-0.7,1.1
					C40.3,84.5,40.6,84.6,40.6,84.4L40.6,84.4z"/>
			</g>
		</g>
	</g>
	<g>
		<g>
			<g>
				<path class="st0" d="M38.6,81.4c0.2-0.5,0.5-0.9,0.9-1.1c0.2-0.1,0-0.4-0.2-0.3c-0.5,0.3-0.9,0.8-1.1,1.3
					C38.2,81.5,38.5,81.6,38.6,81.4L38.6,81.4z"/>
			</g>
		</g>
	</g>
	<g>
		<g>
			<g>
				<path class="st0" d="M42.5,84c-0.3-0.6-0.5-1.3-0.5-2c-0.1-0.5,0.1-2.3,1-1.9c0.7,0.3,0.8,2.1,0.8,2.7c0,0.2,0.3,0.2,0.3,0
					c0-0.8-0.2-3.1-1.3-3c-0.7,0-1,0.9-1.1,1.4c-0.1,1,0.2,2,0.5,2.9C42.3,84.3,42.6,84.2,42.5,84L42.5,84z"/>
			</g>
		</g>
	</g>
	<g>
		<g>
			<g>
				<path class="st0" d="M40.3,78.7c0.5-0.5,3.6-0.9,3.7,0.2c0,0.2,0.3,0.2,0.3,0c-0.1-1.5-3.5-1.2-4.2-0.4
					C39.9,78.6,40.1,78.9,40.3,78.7L40.3,78.7z"/>
			</g>
		</g>
	</g>
	<g>
		<g>
			<g>
				<path class="st0" d="M41.8,86.8c0,0.4-0.1,3.7,0.8,3.5c0.4-0.1,0.4-1.3,0.5-1.7c0.2-1.1,0.3-2.2,0.2-3.3c0-0.2-0.3-0.2-0.3,0
					c0,1.3-0.1,2.6-0.4,3.9c0,0.1-0.2,0.7-0.2,0.7c-0.1-0.1-0.1-0.8-0.2-1c-0.1-0.7-0.1-1.4-0.2-2.1C42.1,86.6,41.8,86.6,41.8,86.8
					L41.8,86.8z"/>
			</g>
		</g>
	</g>
	<g>
		<g>
			<g>
				<path class="st0" d="M42.1,86.8c0-0.3,0.1-0.6,0.3-0.9c0.1-0.2,0.4-0.8,0.7-0.7c0.2,0.1,0.3-0.2,0.2-0.3
					c-0.4-0.3-0.7,0.1-0.9,0.4c-0.3,0.4-0.6,0.9-0.6,1.4C41.8,87,42.1,87,42.1,86.8L42.1,86.8z"/>
			</g>
		</g>
	</g>
	<g>
		<g>
			<g>
				<path class="st0" d="M46.4,84.7c0.1,0,0.1,0.1,0.1,0.1c0.2,0.1,0.4-0.1,0.2-0.2c-0.1,0-0.1-0.1-0.1-0.1
					C46.5,84.3,46.3,84.5,46.4,84.7L46.4,84.7z"/>
			</g>
		</g>
	</g>
	<g>
		<g>
			<g>
				<path class="st0" d="M46.5,84.6C46.5,84.6,46.5,84.6,46.5,84.6c0.2,0,0.2-0.3,0-0.3h0C46.3,84.3,46.3,84.6,46.5,84.6L46.5,84.6z
					"/>
			</g>
		</g>
	</g>
	<g>
		<g>
			<g>
				<path class="st0" d="M44.8,77.2c0.1,0,0.3,0.4,0.3,0.5c0.1,0.2,0.2,0.4,0.2,0.6c0.1,0.2,0.4,0.1,0.3-0.1
					c-0.1-0.3-0.2-0.6-0.3-0.8c-0.1-0.2-0.3-0.4-0.5-0.5C44.6,76.9,44.6,77.2,44.8,77.2L44.8,77.2z"/>
			</g>
		</g>
	</g>
	<g>
		<g>
			<g>
				<path class="st0" d="M36.3,79.7c0.2,0.3,0.4,0.5,0.7,0.6c0.2,0.1,0.3-0.2,0.1-0.3c-0.2-0.1-0.4-0.2-0.5-0.4
					C36.4,79.3,36.1,79.5,36.3,79.7L36.3,79.7z"/>
			</g>
		</g>
	</g>
	<g>
		<g>
			<g>
				<path class="st0" d="M40,78.7c-0.1,0.2,0,0.4,0.2,0.6c0.2,0.2,0.5,0.3,0.7,0.4c0.2,0.1,0.4-0.1,0.2-0.2
					c-0.2-0.1-0.3-0.2-0.5-0.3c-0.2-0.1-0.3-0.2-0.3-0.4C40.3,78.5,40,78.5,40,78.7L40,78.7z"/>
			</g>
		</g>
	</g>
	<g>
		<g>
			<g>
				<path class="st0" d="M44.1,79.3c0.2,0,0.2-0.3,0-0.3C43.9,78.9,43.9,79.3,44.1,79.3L44.1,79.3z"/>
			</g>
		</g>
	</g>
	<g>
		<g>
			<g>
				<path class="st0" d="M35.8,79.2c0.1,0.1,0.2,0.2,0.3,0.2c0.2,0.1,0.4-0.2,0.2-0.3c-0.1,0-0.1-0.1-0.2-0.1
					C36,78.8,35.7,79,35.8,79.2L35.8,79.2z"/>
			</g>
		</g>
	</g>
	<g>
		<g>
			<g>
				<path class="st0" d="M41.4,84.4C41.4,84.5,41.4,84.5,41.4,84.4c0.2,0.3,0.4,0.1,0.3-0.1c0,0,0-0.1-0.1-0.1
					C41.6,84.1,41.3,84.3,41.4,84.4L41.4,84.4z"/>
			</g>
		</g>
	</g>
	<g>
		<g>
			<g>
				<path class="st0" d="M51,100.6c0.2-1.2,0.6-2.2,1.2-3.2c-0.1,0-0.2-0.1-0.3-0.1c0,0.7,0.1,1.4,0.1,2c0,0.1,0.2,0.2,0.3,0.1
					c0.2-0.2,0.3-0.3,0.5-0.5c0.2-0.1-0.1-0.4-0.2-0.2c-0.2,0.2-0.3,0.3-0.5,0.5c0.1,0,0.2,0.1,0.3,0.1c0-0.7-0.1-1.4-0.1-2
					c0-0.2-0.2-0.2-0.3-0.1c-0.6,1-1,2.1-1.2,3.3C50.7,100.7,51,100.8,51,100.6L51,100.6z"/>
			</g>
		</g>
	</g>
	<g>
		<g>
			<g>
				<path class="st0" d="M46.8,77.4c2.5,2.7,5.8,4.2,9.2,5.7c4,1.7,8,3.5,12,5.1c1.7,0.7,3.4,1,5.2,0.8c1.8-0.3,3.7-0.8,5.4-1.4
					c3.4-1.2,6.6-2.8,9.6-4.8c3.5-2.3,6.5-5,9.2-8.2c0.1-0.2-0.1-0.4-0.2-0.2c-5.8,6.8-13.7,11.9-22.5,14c-1.4,0.3-2.8,0.5-4.2,0.3
					c-1.3-0.2-2.5-0.8-3.7-1.3c-2.5-1.1-5-2.1-7.5-3.2c-4.3-1.8-9-3.5-12.3-7C46.9,77,46.6,77.3,46.8,77.4L46.8,77.4z"/>
			</g>
		</g>
	</g>
	<g>
		<g>
			<g>
				<path class="st0" d="M59.1,127.4c0.1,1.4,0.3,3.1,1.7,3.8c1.8,0.9,3.9-0.2,5.7-0.2c0.2,0,0.2-0.3,0-0.3
					c-1.4-0.1-2.7,0.5-4.1,0.5c-2.3-0.1-2.9-1.8-3-3.8C59.4,127.2,59.1,127.2,59.1,127.4L59.1,127.4z"/>
			</g>
		</g>
	</g>
	<g>
		<g>
			<g>
				<path class="st0" d="M73.7,130.9c2.4,0.8,5.1,1.2,7.5,0.5c2.2-0.7,3.7-2.4,5-4.2c0.1-0.2-0.2-0.3-0.3-0.2
					c-1.4,1.9-2.9,3.6-5.2,4.2c-2.3,0.5-4.7,0.2-6.9-0.6C73.6,130.5,73.5,130.8,73.7,130.9L73.7,130.9z"/>
			</g>
		</g>
	</g>
	<g>
		<g>
			<g>
				<path class="st0" d="M95.4,124.4c0.2,0.6,0.7,1.2,1.5,1.2c0.6,0,1.2-0.6,1-1.2c-0.1-0.2-0.4-0.1-0.3,0.1c0.1,0.6-0.5,0.9-1,0.8
					c-0.4-0.1-0.7-0.5-0.8-0.9C95.6,124.1,95.3,124.2,95.4,124.4L95.4,124.4z"/>
			</g>
		</g>
	</g>
	<g>
		<g>
			<g>
				<path class="st0" d="M99.9,81.2c0.2-0.1,0.5-0.1,0.7-0.2c-0.1-0.1-0.1-0.1-0.2-0.2c0.1,2,3,1,3.9,2.1c0.1,0.2,0.4-0.1,0.2-0.2
					c-0.4-0.5-0.9-0.6-1.5-0.7c-0.8-0.1-2.2,0-2.3-1.2c0-0.1-0.1-0.2-0.2-0.2c-0.2,0.1-0.5,0.1-0.7,0.2
					C99.6,80.9,99.7,81.2,99.9,81.2L99.9,81.2z"/>
			</g>
		</g>
	</g>
	<g>
		<g>
			<g>
				<path class="st0" d="M64.4,39.6c0.4,1.6,0.9,3.2,1.5,4.7c0.1,0.2,0.4,0.1,0.3-0.1c-0.6-1.5-1.1-3.1-1.5-4.7
					C64.6,39.3,64.3,39.4,64.4,39.6L64.4,39.6z"/>
			</g>
		</g>
	</g>
	<g>
		<g>
			<g>
				<path class="st0" d="M75.3,44.1c0.3-1.4,0.7-2.9,1-4.3c0.1-0.2-0.3-0.3-0.3-0.1c-0.3,1.4-0.7,2.9-1,4.3
					C75,44.2,75.3,44.3,75.3,44.1L75.3,44.1z"/>
			</g>
		</g>
	</g>
	<g>
		<g>
			<g>
				<path class="st0" d="M59.3,46.9c-0.6-0.9-1.2-1.8-1.9-2.6c-0.1-0.2-0.4,0.1-0.2,0.2c0.7,0.8,1.3,1.7,1.9,2.6
					C59.1,47.2,59.4,47.1,59.3,46.9L59.3,46.9z"/>
			</g>
		</g>
	</g>
	<g>
		<g>
			<g>
				<path class="st0" d="M56,49.2c-0.4-0.4-0.9-0.8-1.3-1.2c-0.2-0.1-0.4,0.1-0.2,0.2c0.4,0.4,0.9,0.8,1.3,1.2
					C55.9,49.6,56.1,49.4,56,49.2L56,49.2z"/>
			</g>
		</g>
	</g>
	<g>
		<g>
			<g>
				<path class="st0" d="M81.7,46.5c0.6-1.2,1.1-2.3,1.7-3.5c0.1-0.2-0.2-0.4-0.3-0.2c-0.6,1.2-1.1,2.3-1.7,3.5
					C81.4,46.6,81.6,46.7,81.7,46.5L81.7,46.5z"/>
			</g>
		</g>
	</g>
	<g>
		<g>
			<g>
				<path class="st0" d="M37,36.1c-0.6,0.4-1.3-0.4-0.7-0.9C36.8,34.7,37.5,35.6,37,36.1c-0.1,0.1,0.1,0.3,0.3,0.2
					c0.3-0.3,0.3-0.9,0.1-1.2c-0.3-0.4-0.8-0.4-1.2-0.1c-0.4,0.3-0.5,0.8-0.2,1.2c0.3,0.4,0.8,0.5,1.2,0.2
					C37.3,36.3,37.1,36,37,36.1L37,36.1z"/>
			</g>
		</g>
	</g>
	<g>
		<g>
			<g>
				<path class="st0" d="M49.2,21.5c-0.3,0-0.6-0.2-0.7-0.5c-0.1-0.3,0.2-0.5,0.4-0.6c0.6-0.2,0.9,0.6,0.5,1
					c-0.2,0.1,0.1,0.4,0.2,0.2c0.7-0.6,0.1-1.8-0.8-1.5c-0.4,0.1-0.7,0.5-0.6,0.9c0.1,0.5,0.5,0.8,1,0.8
					C49.4,21.8,49.4,21.5,49.2,21.5L49.2,21.5z"/>
			</g>
		</g>
	</g>
	<g>
		<g>
			<g>
				<path class="st0" d="M73.8,14.8c-0.6-0.2-0.5-1.2,0.2-1.1c0.8,0.1,0.6,1.3-0.1,1.4c-0.2,0-0.2,0.4,0,0.3c0.5-0.1,0.9-0.5,1-1
					c0.1-0.5-0.4-0.9-0.8-1c-0.5-0.1-0.9,0.2-1,0.7c-0.1,0.4,0.2,0.9,0.6,1C73.9,15.1,74,14.8,73.8,14.8L73.8,14.8z"/>
			</g>
		</g>
	</g>
	<g>
		<g>
			<g>
				<path class="st0" d="M91,17.2c-0.5-0.2-0.4-1,0.2-0.9c0.2,0,0.5,0.2,0.4,0.4c0,0.3-0.2,0.5-0.5,0.5c-0.2,0-0.2,0.3,0,0.3
					c0.4,0,0.8-0.4,0.8-0.8c0-0.4-0.3-0.7-0.7-0.8c-0.4-0.1-0.8,0.2-0.8,0.6c-0.1,0.4,0.2,0.8,0.5,0.9C91.1,17.5,91.2,17.2,91,17.2
					L91,17.2z"/>
			</g>
		</g>
	</g>
	<g>
		<g>
			<g>
				<path class="st0" d="M103.9,30.5c-0.1-0.3,0.1-0.6,0.4-0.7c0.3-0.1,0.5,0.1,0.6,0.4c0.2,0.6-0.6,0.8-0.9,0.4
					c-0.1-0.2-0.4,0-0.3,0.2c0.5,0.8,1.8,0.2,1.5-0.7c-0.2-0.4-0.6-0.7-1-0.5c-0.4,0.1-0.7,0.6-0.6,1
					C103.6,30.8,103.9,30.7,103.9,30.5L103.9,30.5z"/>
			</g>
		</g>
	</g>
	<g>
		<g>
			<g>
				<path class="st0" d="M97.6,74c-1.2,1.3-2.5,2.9-2.3,4.8c0.2,1.3,1,2.3,2.3,2.4c0.2,0,0.2-0.3,0-0.3c-1.6-0.2-2.3-1.9-1.9-3.4
					c0.3-1.3,1.2-2.3,2.1-3.2C98,74,97.7,73.8,97.6,74L97.6,74z"/>
			</g>
		</g>
	</g>
	<g>
		<g>
			<g>
				<path class="st0" d="M97.4,75.8c-0.8,0.5-1.2,1.4-1.1,2.3c0.1,0.6,0.7,1.8,1.4,1.2c0.2-0.1-0.1-0.4-0.2-0.2
					c-0.4,0.3-0.8-0.5-0.8-0.7c-0.1-0.3-0.1-0.6,0-0.9c0.1-0.6,0.4-1,0.9-1.4C97.8,76,97.6,75.7,97.4,75.8L97.4,75.8z"/>
			</g>
		</g>
	</g>
	<g>
		<g>
			<g>
				<path class="st0" d="M97.9,77.4c-0.5-0.1-1,0.3-0.9,0.8c0.1,0.2,0.2,0.4,0.4,0.5c0.1,0.1,0.2,0.1,0.4,0c0.2-0.1,0.3-0.3,0.4-0.4
					c0.2-0.1-0.1-0.4-0.2-0.2c-0.1,0.1-0.2,0.2-0.4,0.3c0,0,0.1,0,0.1-0.1c-0.2,0-0.4-0.2-0.4-0.5c0.1-0.2,0.3-0.3,0.5-0.3
					C98,77.8,98.1,77.4,97.9,77.4L97.9,77.4z"/>
			</g>
		</g>
	</g>
	<g>
		<g>
			<g>
				<path class="st0" d="M95,77.9c-1,1.3-2.2,2.4-3.6,3.1c-0.2,0.1,0,0.4,0.2,0.3c1.5-0.8,2.7-1.9,3.7-3.3
					C95.5,77.9,95.2,77.7,95,77.9L95,77.9z"/>
			</g>
		</g>
	</g>
	<g>
		<g>
			<g>
				<path class="st0" d="M95.2,79.4c-0.7,0.8-1.6,1.4-2.5,1.9c-0.2,0.1,0,0.4,0.2,0.3c1-0.5,1.8-1.2,2.6-2
					C95.6,79.5,95.4,79.3,95.2,79.4L95.2,79.4z"/>
			</g>
		</g>
	</g>
	<g>
		<g>
			<g>
				<path class="st0" d="M95.6,80.3c-0.3,0.4-0.6,0.7-0.9,1.1c-0.1,0.2,0.1,0.4,0.2,0.2c0.3-0.4,0.6-0.7,0.9-1.1
					C95.9,80.4,95.7,80.2,95.6,80.3L95.6,80.3z"/>
			</g>
		</g>
	</g>
	<g>
		<g>
			<g>
				<path class="st0" d="M98.4,110c0.2-0.6,0.3-1.2,0.4-1.8c0.1-0.2-0.3-0.3-0.3-0.1c-0.2,0.6-0.3,1.2-0.4,1.8
					C98.1,110.1,98.4,110.2,98.4,110L98.4,110z"/>
			</g>
		</g>
	</g>
	<g>
		<g>
			<g>
				<path class="st0" d="M48.9,86.1c0.4,1.7,0.6,3.5,0.7,5.2c0,0.2,0.3,0.2,0.3,0c-0.1-1.8-0.3-3.6-0.7-5.3
					C49.1,85.8,48.8,85.9,48.9,86.1L48.9,86.1z"/>
			</g>
		</g>
	</g>
	<g>
		<g>
			<g>
				<path class="st0" d="M102.2,92.9c0.2,1.9,0.2,3.7-0.1,5.6c-0.1,0.8-0.3,1.6-0.6,2.4c-0.1,0.4-0.3,0.9-0.4,1.3
					c-0.1,0.2-0.2,0.5-0.3,0.7c-0.3,0.7-0.8,0.8-1.8,0.5c-0.1-0.2-0.4-0.1-0.3,0.1c0.2,0.5,0.7,0.8,1.2,0.7c0.9-0.2,1.2-1.2,1.5-1.9
					c1.1-3,1.5-6.2,1.2-9.4C102.5,92.7,102.2,92.7,102.2,92.9L102.2,92.9z"/>
			</g>
		</g>
	</g>
	<g>
		<g>
			<g>
				<path class="st0" d="M59.8,38.5C59.8,38.5,59.8,38.5,59.8,38.5c0.3,0,0.3-0.3,0.1-0.3c0,0,0,0-0.1,0
					C59.6,38.2,59.6,38.5,59.8,38.5L59.8,38.5z"/>
			</g>
		</g>
	</g>
	<g>
		<g>
			<g>
				<path class="st0" d="M57.5,39.8c0.1,0.1,0.1,0.3,0.2,0.4c0.1,0.2,0.4,0.1,0.3-0.1c-0.1-0.1-0.1-0.3-0.2-0.4
					C57.7,39.5,57.4,39.6,57.5,39.8L57.5,39.8z"/>
			</g>
		</g>
	</g>
	<g>
		<g>
			<g>
				<path class="st0" d="M61.4,37.3c0.1,0,0.1,0,0.1,0.1c0.1,0.2,0.4-0.1,0.2-0.2C61.6,37,61.5,37,61.4,37
					C61.2,37,61.2,37.3,61.4,37.3L61.4,37.3z"/>
			</g>
		</g>
	</g>
	<g>
		<g>
			<g>
				<path class="st0" d="M71.9,34.3c-0.1,0.1-0.1,0.2-0.1,0.4c0.1,0.2,0.4,0.1,0.3-0.1c0-0.1,0-0.1,0-0.1
					C72.3,34.3,72,34.1,71.9,34.3L71.9,34.3z"/>
			</g>
		</g>
	</g>
	<g>
		<g>
			<g>
				<path class="st0" d="M81.6,37.1c-0.1,0.1-0.1,0.3-0.1,0.4c-0.1,0.2,0.2,0.3,0.3,0.1c0.1-0.1,0.1-0.3,0.1-0.4
					C81.9,37,81.6,36.9,81.6,37.1L81.6,37.1z"/>
			</g>
		</g>
	</g>
	<g>
		<g>
			<g>
				<path class="st0" d="M53.6,51.9c0,0,0.1,0,0.1,0.1c0.2,0.1,0.3-0.2,0.2-0.3c0,0-0.1,0-0.1-0.1C53.6,51.5,53.4,51.8,53.6,51.9
					L53.6,51.9z"/>
			</g>
		</g>
	</g>
	<g>
		<g>
			<g>
				<path class="st0" d="M70.4,47.3c0.2-0.4,0.3-0.8,0.5-1.2c0.1-0.2-0.2-0.3-0.3-0.1c-0.2,0.4-0.3,0.8-0.5,1.2
					C70,47.4,70.3,47.6,70.4,47.3L70.4,47.3z"/>
			</g>
		</g>
	</g>
	<g>
		<g>
			<g>
				<path class="st0" d="M69.7,46.8c0.4-0.3,0.7-0.5,1.1-0.7c0.2-0.1,0-0.4-0.2-0.3c-0.4,0.2-0.7,0.4-1.1,0.7
					C69.3,46.6,69.5,46.9,69.7,46.8L69.7,46.8z"/>
			</g>
		</g>
	</g>
	<g>
		<g>
			<g>
				<path class="st0" d="M70.5,46.1c0.3,0.5,0.6,0.9,0.9,1.3c0.1,0.2,0.4-0.1,0.2-0.2c-0.3-0.4-0.6-0.8-0.9-1.3
					C70.7,45.7,70.4,45.9,70.5,46.1L70.5,46.1z"/>
			</g>
		</g>
	</g>
	<g>
		<g>
			<g>
				<path class="st0" d="M70.5,46.1c0.4,0.6,1,0.9,1.7,1.1c0.2,0.1,0.3-0.3,0.1-0.3c-0.6-0.1-1.1-0.4-1.5-0.9
					C70.6,45.8,70.4,46,70.5,46.1L70.5,46.1z"/>
			</g>
		</g>
	</g>
	<g>
		<g>
			<g>
				<path class="st0" d="M53.5,53.1c0.1,0,0.2-0.1,0.3-0.1c0.2-0.1,0.1-0.4-0.1-0.3c-0.1,0-0.2,0.1-0.3,0.1
					C53.2,52.8,53.3,53.1,53.5,53.1L53.5,53.1z"/>
			</g>
		</g>
	</g>
	<g>
		<g>
			<g>
				<path class="st0" d="M52.5,53.9c0.3-0.3,0.6-0.6,0.8-0.8c0.2-0.2-0.1-0.4-0.2-0.2c-0.3,0.3-0.6,0.6-0.8,0.8
					C52.2,53.9,52.4,54.1,52.5,53.9L52.5,53.9z"/>
			</g>
		</g>
	</g>
	<g>
		<g>
			<g>
				<path class="st0" d="M90.3,50c0-0.1,0.1-0.1,0.1-0.2c0.1-0.2-0.2-0.3-0.3-0.2c0,0.1-0.1,0.1-0.1,0.2C90,50,90.2,50.2,90.3,50
					L90.3,50z"/>
			</g>
		</g>
	</g>
	<g>
		<g>
			<g>
				<path class="st0" d="M90.2,50.1c0.1-0.1,0.1-0.2,0.2-0.3c0.1-0.2-0.2-0.4-0.3-0.2c-0.1,0.1-0.1,0.2-0.2,0.3
					C89.8,50.1,90.1,50.3,90.2,50.1L90.2,50.1z"/>
			</g>
		</g>
	</g>
	<g>
		<g>
			<g>
				<path class="st0" d="M43.6,116.1c-1.1,0.2-2.2,0.5-3.3,0.7c-0.1,0-0.1,0.1-0.1,0.2c-0.1,4.1-0.2,8.3-0.2,12.4
					c0,0.2,0.3,0.2,0.3,0c0.1-2.6,0.1-5.1,0.2-7.7c0-1.2-0.2-2.6,0.1-3.7c0.2-0.9,0.4-0.9,1.3-1.1c0.6-0.1,1.3-0.3,1.9-0.4
					C43.9,116.3,43.8,116,43.6,116.1L43.6,116.1z"/>
			</g>
		</g>
	</g>
	<g>
		<g>
			<g>
				<path class="st0" d="M39.7,124.9c-2,0.1-4,0.1-5.9-0.2c-0.1,0-0.2,0.1-0.2,0.2c0.3,1.6,0.4,3.1,0.3,4.7c0,0.2,0.3,0.2,0.3,0
					c0.1-0.9,0.1-1.7,0-2.6c0-0.5-0.4-1.7,0-1.9c0.2-0.1,1.2,0.1,1.4,0.1c0.5,0,0.9,0.1,1.4,0.1c0.9,0,1.8,0,2.7-0.1
					C40,125.2,40,124.9,39.7,124.9L39.7,124.9z"/>
			</g>
		</g>
	</g>
	<g>
		<g>
			<g>
				<path class="st0" d="M33.7,128c-2.3-0.2-4.6-0.3-6.9-0.5c-0.1,0-0.2,0.1-0.2,0.2c0.2,0.7,0.3,1.3,0.3,2c0,0.2,0.3,0.2,0.3,0
					c0-0.4-0.2-1.1-0.1-1.5c0.2-0.6,1.3-0.3,1.9-0.2c1.6,0.1,3.1,0.2,4.7,0.3C33.9,128.4,33.9,128,33.7,128L33.7,128z"/>
			</g>
		</g>
	</g>
	<g>
		<g>
			<g>
				<path class="st0" d="M29.7,118.1c0.3,3.3,0.3,6.6,0,9.9c0,0.2,0.3,0.2,0.3,0c0.2-3.3,0.2-6.6,0-9.9
					C30.1,117.9,29.7,117.9,29.7,118.1L29.7,118.1z"/>
			</g>
		</g>
	</g>
	<g>
		<g>
			<g>
				<path class="st0" d="M30.4,117.9c1-0.3,2-0.4,3.1-0.4c0.5,0,0.9,0,1.4,0.1c1.1,0.1,1.4,0.4,1.4,1.5c0,2-0.1,4-0.3,6
					c0,0.2,0.3,0.2,0.3,0c0.1-1.4,0.2-2.9,0.3-4.3c0-0.8,0.4-2.4-0.2-3.1c-0.4-0.5-1.7-0.4-2.2-0.4c-1.3-0.1-2.6,0.1-3.8,0.4
					C30.1,117.6,30.2,117.9,30.4,117.9L30.4,117.9z"/>
			</g>
		</g>
	</g>
	<g>
		<g>
			<g>
				<path class="st0" d="M99.7,116.3c1.7-0.1,3.3-0.2,5-0.3c0.8-0.1,1.7-0.2,2.5-0.1c0.6,0,1.2,0,1.3,0.7c0.1,0.4,0,0.9,0,1.3
					c-0.1,3.3-0.1,6.6-0.2,9.9c0,0.2,0.3,0.2,0.3,0c0.1-2.1,0.1-4.1,0.1-6.2c0-1.1,0.1-2.1,0.1-3.2c0-0.7,0.2-1.5,0-2.1
					c-0.4-1.1-1.7-0.6-2.6-0.6c-2.1,0.1-4.3,0.2-6.4,0.4C99.5,116,99.5,116.3,99.7,116.3L99.7,116.3z"/>
			</g>
		</g>
	</g>
	<g>
		<g>
			<g>
				<path class="st0" d="M108.7,125c0.7-0.2,1.5-0.4,2.2-0.5c0.6-0.1,2-0.5,2.6-0.3c0.8,0.3,0.6,1.5,0.6,2.2c0,0.8,0,1.6,0,2.5
					c0,0.2,0.3,0.2,0.3,0c0-1.1,0-2.2,0-3.3c0-0.5,0.2-1.3-0.4-1.6c-0.6-0.4-1.7,0-2.4,0c-1,0.1-2,0.3-3,0.6
					C108.4,124.7,108.5,125,108.7,125L108.7,125z"/>
			</g>
		</g>
	</g>
	<g>
		<g>
			<g>
				<path class="st0" d="M111.1,121c0.2,0.9,0.3,1.9,0.3,2.9c0,0.2,0.3,0.2,0.3,0c0-1-0.2-2-0.3-3C111.3,120.7,111,120.9,111.1,121
					L111.1,121z"/>
			</g>
		</g>
	</g>
	<g>
		<g>
			<g>
				<path class="st0" d="M111.3,121.3c1.4-0.1,2.7-0.2,4.1-0.3c0.7-0.1,1.4-0.1,2-0.1c0.3,0,0.7-0.1,1-0.1c0.4-0.2,0.7,0,0.9,0.4
					c0.7,0.9,0.1,2.9,0,4c-0.2,1.4-0.3,2.7-0.4,4.1c0,0.2,0.3,0.2,0.3,0c0.2-1.7,0.4-3.4,0.5-5.1c0.1-0.8,0.8-3,0-3.6
					c-0.6-0.5-2.3-0.1-3,0c-1.8,0.1-3.6,0.2-5.3,0.3C111.1,121,111.1,121.3,111.3,121.3L111.3,121.3z"/>
			</g>
		</g>
	</g>
	<g>
		<g>
			<g>
				<path class="st0" d="M101.9,119c-0.5-0.2-0.2-1.1,0.4-0.8c0.7,0.3,0.2,1.2-0.4,1c-0.2-0.1-0.3,0.3-0.1,0.3
					c0.4,0.1,0.9-0.1,1.1-0.5c0.2-0.4-0.1-0.9-0.5-1.1c-0.4-0.2-0.8,0-1,0.4c-0.2,0.4,0,0.8,0.4,1C102,119.4,102.1,119.1,101.9,119
					L101.9,119z"/>
			</g>
		</g>
	</g>
	<g>
		<g>
			<g>
				<path class="st0" d="M105,119.1c-0.4-0.4,0.2-1.1,0.7-0.8c0.6,0.4,0.1,1.1-0.5,0.9c-0.2-0.1-0.3,0.2-0.1,0.3
					c0.4,0.2,0.9-0.1,1.1-0.4s0-0.8-0.3-1c-0.8-0.5-1.6,0.6-1,1.3C104.9,119.4,105.1,119.2,105,119.1L105,119.1z"/>
			</g>
		</g>
	</g>
	<g>
		<g>
			<g>
				<path class="st0" d="M102,123.3c-0.2-0.6,0.6-1.1,1-0.5c0.4,0.6-0.4,1.2-0.9,0.7c-0.2-0.1-0.4,0.1-0.2,0.2
					c0.8,0.6,1.9-0.2,1.4-1.1c-0.2-0.4-0.7-0.6-1.1-0.4c-0.4,0.2-0.7,0.7-0.5,1.2C101.8,123.6,102.1,123.5,102,123.3L102,123.3z"/>
			</g>
		</g>
	</g>
	<g>
		<g>
			<g>
				<path class="st0" d="M104.9,123.5c-0.1-0.5,0.7-0.8,1-0.5c0.4,0.4-0.3,1.2-0.7,0.9c-0.2-0.1-0.3,0.2-0.2,0.3
					c0.8,0.4,1.8-0.7,1.2-1.4c-0.6-0.6-1.7,0-1.6,0.8C104.7,123.8,105,123.7,104.9,123.5L104.9,123.5z"/>
			</g>
		</g>
	</g>
	<g>
		<g>
			<g>
				<path class="st0" d="M113.3,123c-0.4-0.3,0.2-0.9,0.6-0.8c0.5,0.2,0.5,0.8,0.4,1.3c-0.1,0.2,0.2,0.3,0.3,0.1
					c0.3-0.6-0.1-1.8-0.9-1.7c-0.7,0.1-1.1,1-0.5,1.4C113.3,123.4,113.4,123.1,113.3,123L113.3,123z"/>
			</g>
		</g>
	</g>
	<g>
		<g>
			<g>
				<path class="st0" d="M117.2,124.2c-0.8-0.3-1-1.6,0-1.8c0.4-0.1,0.8,0.2,0.9,0.6c0.1,0.4-0.1,0.8-0.2,1.3
					c-0.1,0.2,0.3,0.3,0.3,0.1c0.2-0.6,0.4-1.3,0-1.8c-0.3-0.4-0.8-0.6-1.3-0.4c-1.2,0.4-0.9,2,0.2,2.4
					C117.3,124.6,117.4,124.2,117.2,124.2L117.2,124.2z"/>
			</g>
		</g>
	</g>
	<g>
		<g>
			<g>
				<path class="st0" d="M116.2,128c-0.3-0.1-0.4-0.4-0.4-0.7c0.1-0.4,0.4-0.6,0.7-0.6c0.9,0,1.2,1,0.8,1.6
					c-0.1,0.2,0.2,0.3,0.3,0.2c0.5-0.9-0.1-2.3-1.3-2.1c-1,0.2-1.1,1.6-0.2,1.9C116.3,128.4,116.4,128.1,116.2,128L116.2,128z"/>
			</g>
		</g>
	</g>
	<g>
		<g>
			<g>
				<path class="st0" d="M31.4,121.8c-0.3-0.9-0.3-1.8,0-2.7c-0.1,0-0.2,0-0.3,0c0.4,0.8,0.5,1.6,0.3,2.5c-0.1,0.2,0.3,0.3,0.3,0.1
					c0.2-0.9,0.1-1.9-0.4-2.7c-0.1-0.1-0.3-0.1-0.3,0c-0.3,0.9-0.3,1.9,0,2.9C31.2,122.1,31.5,122,31.4,121.8L31.4,121.8z"/>
			</g>
		</g>
	</g>
	<g>
		<g>
			<g>
				<path class="st0" d="M34.1,121.3c-0.4-0.8-0.3-1.6,0.2-2.3c-0.1,0-0.2,0-0.3,0c0.3,0.9,0.2,1.8-0.1,2.6
					c-0.1,0.2,0.2,0.3,0.3,0.1c0.3-0.9,0.4-1.9,0.1-2.8c-0.1-0.1-0.2-0.2-0.3,0c-0.5,0.8-0.6,1.8-0.2,2.6
					C33.9,121.7,34.2,121.5,34.1,121.3L34.1,121.3z"/>
			</g>
		</g>
	</g>
	<g>
		<g>
			<g>
				<path class="st0" d="M31.6,126.7c-0.4-0.9-0.3-1.8,0.1-2.7c-0.1,0-0.2,0-0.3,0c0.5,0.7,0.6,1.5,0.2,2.3
					c-0.1,0.2,0.2,0.4,0.3,0.2c0.4-0.9,0.3-1.8-0.2-2.6c-0.1-0.1-0.2-0.1-0.3,0c-0.4,0.9-0.5,2-0.1,2.9
					C31.4,127,31.7,126.9,31.6,126.7L31.6,126.7z"/>
			</g>
		</g>
	</g>
	<g>
		<g>
			<g>
				<path class="st0" d="M30.8,114c-0.1,0.9,0,1.8,0.3,2.7c0.1,0.2,0.4,0.1,0.3-0.1c-0.3-0.9-0.3-1.7-0.2-2.7
					C31.1,113.8,30.8,113.8,30.8,114L30.8,114z"/>
			</g>
		</g>
	</g>
	<g>
		<g>
			<g>
				<path class="st0" d="M29.6,116c0.6-0.2,1.3-0.4,1.9-0.6c0.2-0.1,0.1-0.4-0.1-0.3c-0.6,0.2-1.3,0.4-1.9,0.6
					C29.3,115.8,29.4,116.1,29.6,116L29.6,116z"/>
			</g>
		</g>
	</g>
	<g>
		<g>
			<g>
				<path class="st0" d="M30.2,116.5c0.6-0.2,1.1-0.4,1.7-0.6c0.2-0.1,0.1-0.4-0.1-0.3c-0.6,0.2-1.1,0.4-1.7,0.6
					C29.9,116.2,30,116.5,30.2,116.5L30.2,116.5z"/>
			</g>
		</g>
	</g>
	<g>
		<g>
			<g>
				<path class="st0" d="M103.8,112.1c-0.6,0.2-1.1,0.6-1.6,1c-0.3,0.3-0.8,0.9-0.5,1.4c0.3,0.4,0.9,0.3,1.3,0.2
					c0.6-0.2,1.1-0.6,1.4-1.1c0.1-0.1,0-0.2-0.1-0.2c-0.6-0.3-1.2-0.2-1.6,0.3c-0.1,0.2,0.1,0.4,0.2,0.2c0.3-0.4,0.8-0.5,1.3-0.3
					c0-0.1,0-0.2-0.1-0.2c-0.2,0.4-0.5,0.6-0.9,0.8c-0.3,0.2-1.4,0.5-1.2-0.3c0.1-0.3,0.5-0.7,0.7-0.9c0.3-0.3,0.7-0.5,1.1-0.6
					C104.1,112.4,104,112.1,103.8,112.1L103.8,112.1z"/>
			</g>
		</g>
	</g>
	<g>
		<g>
			<g>
				<path class="st0" d="M103.6,113.9c-0.4,0.5-0.5,1.2-0.3,1.8c0.1,0.2,0.4,0.1,0.3-0.1c-0.2-0.5-0.1-1.1,0.2-1.5
					C103.9,113.9,103.7,113.7,103.6,113.9L103.6,113.9z"/>
			</g>
		</g>
	</g>
	<g>
		<g>
			<g>
				<path class="st0" d="M111.3,120.5c1.9-0.5,3.8-0.8,5.8-0.8c0.2,0,0.2-0.3,0-0.3c-2,0-3.9,0.2-5.9,0.8
					C111.1,120.2,111.1,120.5,111.3,120.5L111.3,120.5z"/>
			</g>
		</g>
	</g>
	<g>
		<g>
			<g>
				<path class="st0" d="M111.4,119.2c0.1,0.6,0.2,1.1,0.3,1.7c0.1,0.2,0.4,0.1,0.3-0.1c-0.1-0.6-0.2-1.1-0.3-1.7
					C111.7,118.9,111.4,119,111.4,119.2L111.4,119.2z"/>
			</g>
		</g>
	</g>
	<g>
		<g>
			<g>
				<path class="st0" d="M113.3,119.1c-0.1,0.5-0.1,0.9,0.2,1.4c0.1,0.2,0.4,0,0.3-0.2c-0.2-0.4-0.2-0.7-0.1-1.1
					C113.6,119,113.3,118.9,113.3,119.1L113.3,119.1z"/>
			</g>
		</g>
	</g>
	<g>
		<g>
			<g>
				<path class="st0" d="M114.7,119.2c0,0.5,0,1,0,1.5c0,0.2,0.3,0.2,0.3,0c0-0.5,0-1,0-1.5C115,119,114.7,119,114.7,119.2
					L114.7,119.2z"/>
			</g>
		</g>
	</g>
	<g>
		<g>
			<g>
				<path class="st0" d="M116.1,119.3c-0.1,0.4-0.3,0.8-0.4,1.3c-0.1,0.2,0.3,0.3,0.3,0.1c0.1-0.4,0.3-0.8,0.4-1.3
					C116.4,119.2,116.1,119.1,116.1,119.3L116.1,119.3z"/>
			</g>
		</g>
	</g>
	<g>
		<g>
			<g>
				<path class="st0" d="M117.2,119c0,0.5,0,1,0,1.5c0,0.2,0.3,0.2,0.3,0c0-0.5,0-1,0-1.5C117.5,118.7,117.2,118.7,117.2,119
					L117.2,119z"/>
			</g>
		</g>
	</g>
	<g>
		<g>
			<g>
				<path class="st0" d="M24.2,125.1c-0.1,1.7-0.2,3.5-0.2,5.2c0,0.2,0.3,0.2,0.3,0c0.1-1.7,0.2-3.5,0.2-5.2
					C24.6,124.9,24.2,124.9,24.2,125.1L24.2,125.1z"/>
			</g>
		</g>
	</g>
	<g>
		<g>
			<g>
				<path class="st0" d="M23.1,128.3c-1.3,0.1-1-2.8,0.1-1.8c0.1,0.1,0.4-0.1,0.3-0.2c-0.7-1,0.5-2,1.4-1.5c0.9,0.5,1.2,2,0.2,2.5
					c-0.1,0.1-0.1,0.2-0.1,0.2c0.2,0.5,0.6,1-0.1,1.2c-0.2,0.1,0,0.4,0.2,0.3c0.3-0.1,0.4-0.2,0.6-0.4c0.1-0.1,0.1-0.1,0-0.2
					c-0.1-0.2-0.4-0.6-0.3-0.8c0-0.2,0.3-0.3,0.4-0.4c0.2-0.2,0.3-0.5,0.3-0.8c0.1-0.8-0.4-1.6-1.1-1.9c-1.2-0.6-2.7,0.9-1.8,2
					c0.1-0.1,0.2-0.1,0.3-0.2c-0.5-0.5-1.3-0.2-1.5,0.4c-0.3,0.7,0.4,2,1.3,2C23.3,128.6,23.3,128.3,23.1,128.3L23.1,128.3z"/>
			</g>
		</g>
	</g>
	<g>
		<g>
			<g>
				<path class="st0" d="M110.4,129c-0.3-0.2-0.4-0.6-0.2-0.9c0.3-0.3,0.8-0.3,1.1-0.1c0.3,0.1,0.5,0.3,0.7,0.5c0.1,0.1,1,1,0.4,1.1
					c-0.2,0.1-0.1,0.4,0.1,0.3c0.5-0.1,0.5-0.7,0.3-1.1c-0.4-0.5-1-1.1-1.7-1.3c-0.5-0.1-1.1,0.1-1.3,0.6c-0.2,0.4,0,1,0.4,1.2
					C110.4,129.3,110.6,129.1,110.4,129L110.4,129z"/>
			</g>
		</g>
	</g>
	<g>
		<g>
			<g>
				<path class="st0" d="M120.3,129.5c-0.2-0.5-0.2-1-0.2-1.6c0-0.2,0.1-0.4,0.1-0.6c0.2-0.7,0.3-0.8,0.4-0.2c0,0.1,0.1,0.2,0.2,0.2
					c0.3,0,2.1-0.2,1.8,0.5c-0.1,0.1,0,0.2,0.1,0.2c0.7,0.1,0.9,0.6,0.7,1.5c-0.2,0.1-0.1,0.4,0.1,0.3c0.5-0.2,1.2-0.2,1.7,0.1
					c0.7,0.4,0.7,1.3-0.4,1.4c-0.6,0-1.4-0.2-2-0.3c-0.2,0-0.3,0.3-0.1,0.3c0.7,0.1,3.4,1.1,3.5-0.3c0.1-1.4-1.8-1.7-2.8-1.5
					c0,0.1,0.1,0.2,0.1,0.3c0.5-0.2,0.7-0.6,0.6-1c-0.1-0.6-0.8-0.7-1.1-1.1c-0.1-0.2-0.1-0.4-0.3-0.6c-0.2-0.2-0.5-0.3-0.8-0.3
					c-0.2,0-0.4,0.1-0.5,0.1c-1.2-0.1,0.1,0.2-0.4-0.2c-0.2-0.2-0.2-0.3-0.4-0.5c-0.1-0.1-0.2,0-0.2,0.1c-0.6,1-0.8,2.1-0.5,3.3
					C120.1,129.8,120.4,129.7,120.3,129.5L120.3,129.5z"/>
			</g>
		</g>
	</g>
	<g>
		<g>
			<g>
				<path class="st0" d="M101.2,127.4c-0.5-0.5-0.4-0.8,0.3-1c0.4-0.5,0.7-0.4,0.9,0.1c0.1,0.1,0.2,0.1,0.3,0
					c0.5-0.5,0.9-0.2,1.3,0.7c0,0.1,0.1,0.2,0.2,0.2c0.6-0.2,1.2-0.1,1.6,0.5c0.1,0.2,0.4,0,0.3-0.2c-0.5-0.6-1.2-0.9-1.9-0.6
					c0.1,0.1,0.1,0.1,0.2,0.2c0.2-1.1-0.9-1.8-1.8-1c0.1,0,0.2,0,0.3,0c-0.8-1.6-3,0-1.7,1.3C101.1,127.8,101.4,127.6,101.2,127.4
					L101.2,127.4z"/>
			</g>
		</g>
	</g>
	<g>
		<g>
			<g>
				<path class="st0" d="M98.4,128.7c0.6,0.2,1.3,0.2,2,0.1c0.2,0,0.1-0.3-0.1-0.3c-0.6,0.1-1.2,0.1-1.8-0.1
					C98.3,128.3,98.2,128.6,98.4,128.7L98.4,128.7z"/>
			</g>
		</g>
	</g>
	<g>
		<g>
			<g>
				<path class="st0" d="M105.7,129.6c0.8,0,1.5,0,2.3,0c0.2,0,0.2-0.3,0-0.3c-0.8,0-1.5,0-2.3,0
					C105.5,129.3,105.5,129.6,105.7,129.6L105.7,129.6z"/>
			</g>
		</g>
	</g>
	<g>
		<g>
			<g>
				<path class="st0" d="M38.5,130.9c1.4-0.4,2.9-0.5,4.3-0.3c0.2,0,0.2-0.3,0-0.3c-1.5-0.1-2.9,0-4.4,0.4
					C38.2,130.6,38.3,130.9,38.5,130.9L38.5,130.9z"/>
			</g>
		</g>
	</g>
	<g>
		<g>
			<g>
				<path class="st0" d="M42.6,129.3c-1.1-0.5-1-1.1,0.4-1.7c0.1,0.1,0.3,0.1,0.3,0c0.1-1,0.8-1.2,2.1-0.5c0.1,0.1,0.1,0.2,0.2,0.2
					c0.1,0,0.4,0.2,0.5,0.3c0.1,0,0.2,0,0.3,0c0.5,0.2,0.7,0.5,0.6,0.9c0.1,0.4,0,1-0.1,1.4c0,0.2,0.3,0.2,0.3,0
					c0-0.6,0.3-1.8,0-2.3c-0.2-0.2-0.3-0.2-0.5-0.3c-0.4-0.2-0.7-0.3-1.1-0.6c-1-0.8-2.3-0.6-2.6,0.8c0.1,0,0.2,0,0.3,0
					c-0.5-0.7-1.4-0.5-1.6,0.3c-0.3,0.8,0.1,1.9,1,1.9C42.8,129.7,42.8,129.3,42.6,129.3L42.6,129.3z"/>
			</g>
		</g>
	</g>
	<g>
		<g>
			<g>
				<path class="st0" d="M30.7,131.2c0.7-0.7,1.9-0.2,1.9,0.8c0,0.2,0.3,0.2,0.3,0c0.1-1.3-1.5-2-2.4-1.1
					C30.4,131.1,30.6,131.3,30.7,131.2L30.7,131.2z"/>
			</g>
		</g>
	</g>
	<g>
		<g>
			<g>
				<path class="st0" d="M25.8,132.4c1.4,0.1,2.8,0,4.2-0.2c0.2,0,0.1-0.3-0.1-0.3c-1.4,0.2-2.7,0.3-4.1,0.2
					C25.6,132,25.6,132.3,25.8,132.4L25.8,132.4z"/>
			</g>
		</g>
	</g>
	<g>
		<g>
			<g>
				<path class="st0" d="M34.1,132.4c0.3-0.1,0.7-0.1,1-0.2c0.2-0.1,0.1-0.4-0.1-0.3c-0.3,0.1-0.7,0.1-1,0.2
					C33.8,132.1,33.9,132.4,34.1,132.4L34.1,132.4z"/>
			</g>
		</g>
	</g>
	<g>
		<g>
			<g>
				<path class="st0" d="M17.3,131.3c1.7,0.1,3.3,0,5-0.2c0.2,0,0.2-0.3,0-0.3c-1.7,0.2-3.3,0.3-5,0.2
					C17.1,131,17.1,131.3,17.3,131.3L17.3,131.3z"/>
			</g>
		</g>
	</g>
	<g>
		<g>
			<g>
				<path class="st0" d="M123.5,127.6c0.8,0.2,1.5,0.3,2.3,0.2c0.2,0,0.2-0.4,0-0.3c-0.8,0.1-1.5,0.1-2.3-0.2
					C123.4,127.3,123.3,127.6,123.5,127.6L123.5,127.6z"/>
			</g>
		</g>
	</g>
	<g>
		<path class="st0" d="M34.7,30.1c-4.5,0-8.2-3.7-8.2-8.2c0-4.5,3.7-8.2,8.2-8.2c4.5,0,8.2,3.7,8.2,8.2
			C42.9,26.4,39.2,30.1,34.7,30.1z M34.7,13.8c-4.4,0-8,3.6-8,8c0,4.4,3.6,8,8,8c4.4,0,8-3.6,8-8C42.7,17.4,39.1,13.8,34.7,13.8z"/>
	</g>
	<g>
		<path class="st0" d="M114.8,73.1c-3.6,0-6.5-2.9-6.5-6.5c0-3.6,2.9-6.5,6.5-6.5s6.5,2.9,6.5,6.5C121.4,70.2,118.4,73.1,114.8,73.1
			z M114.8,60.3c-3.5,0-6.3,2.8-6.3,6.3c0,3.5,2.8,6.3,6.3,6.3c3.5,0,6.3-2.8,6.3-6.3C121.2,63.1,118.3,60.3,114.8,60.3z"/>
	</g>
	<g>
		<path class="st0" d="M108,22.7c-2,0-3.7-1.6-3.7-3.7s1.6-3.7,3.7-3.7c2,0,3.7,1.6,3.7,3.7S110,22.7,108,22.7z M108,15.5
			c-1.9,0-3.5,1.6-3.5,3.5s1.6,3.5,3.5,3.5c1.9,0,3.5-1.6,3.5-3.5S109.9,15.5,108,15.5z"/>
	</g>
	<g>
		<path class="st0" d="M83.7,18c-1.5,0-2.7-1.2-2.7-2.7s1.2-2.7,2.7-2.7c1.5,0,2.7,1.2,2.7,2.7S85.2,18,83.7,18z M83.7,12.8
			c-1.4,0-2.5,1.1-2.5,2.5s1.1,2.5,2.5,2.5s2.5-1.1,2.5-2.5S85.1,12.8,83.7,12.8z"/>
	</g>
	<g>
		<g>
			<g>
				<path class="st0" d="M108.8,68.8c1-0.5,2.5,1.6,3.4,0.5c0.2-0.3,0.1-0.3,0.2-0.6c0.4-1.1,0.6-1.2,1.7-1.6
					c0.5-0.2,1.1-0.3,1.5-0.7c0.3-0.3,0.5-0.7,0.5-1.1c0-0.7-0.6-1.3-0.7-2c0-0.8,2.7-1.9,1.5-2.8c-0.2-0.1-0.4,0.1-0.2,0.2
					c0.6,0.5-1.2,1.3-1.4,1.6c-0.2,0.3-0.2,0.5-0.2,0.8c0.1,0.6,0.5,1.1,0.6,1.6c0.4,1.5-1.2,1.8-2.1,2.1s-1.1,0.8-1.4,1.6
					c-0.6,1.5-2.3-0.6-3.4,0C108.4,68.7,108.6,68.9,108.8,68.8L108.8,68.8z"/>
			</g>
		</g>
	</g>
	<g>
		<g>
			<g>
				<path class="st0" d="M112.9,72.4c0.3-0.9,1.6-0.8,1.8,0.2c0.1,0.2,0.4,0.1,0.3-0.1c-0.3-1.3-2-1.4-2.5-0.2
					C112.6,72.5,112.9,72.6,112.9,72.4L112.9,72.4z"/>
			</g>
		</g>
	</g>
	<g>
		<g>
			<g>
				<path class="st0" d="M119.7,62.9c-0.8,0.3-1.4,1-1.5,1.9c-0.1,0.7,0.2,1.1,0.1,1.8c-0.1,0.8-0.4,0.9-0.9,1.4
					c-0.4,0.3-0.7,0.7-1.1,1c-0.1,0.1-0.1,0.1,0,0.2c0.4,0.7,0.6,1.5,0.7,2.3c0,0.1,0.1,0.1,0.1,0.2c0.2,0.1,0.4,0.1,0.5,0.2
					c0.2,0.1,0.3-0.2,0.1-0.3c-0.6-0.2-0.7-1.2-0.8-1.8c-0.1-0.7-0.2-0.8,0.4-1.3c0.4-0.3,0.8-0.7,1.1-1c0.3-0.3,0.6-0.6,0.6-1
					c0-0.3-0.2-0.5-0.3-0.7c-0.4-1-0.1-2.1,1-2.6C120,63.1,119.9,62.8,119.7,62.9L119.7,62.9z"/>
			</g>
		</g>
	</g>
	<g>
		<g>
			<g>
				<path class="st0" d="M114.9,72.8c0.3,0,0.6,0,0.9,0c0.2,0,0.2-0.3,0-0.3c-0.3,0-0.6,0-0.9,0C114.7,72.5,114.7,72.8,114.9,72.8
					L114.9,72.8z"/>
			</g>
		</g>
	</g>
	<g>
		<g>
			<g>
				<path class="st0" d="M28.3,26.8c-0.1,0.4,0.5,0.6,0.8,0.4c0.2-0.2,0.2-0.4,0.2-0.6c0-0.2,0-0.3-0.1-0.5c0-0.1,0-0.3,0-0.4
					c0.1-0.1,0.2-0.4,0.4-0.2c0.2,0.1,0.4-0.1,0.2-0.2c-0.3-0.3-0.7-0.1-0.9,0.2C29,25.6,29,25.9,29,26.1c0,0.2,0.1,0.3,0,0.5
					c0,0.1,0,0.2-0.1,0.2c-0.1,0.1-0.3,0.1-0.3-0.1C28.7,26.6,28.4,26.6,28.3,26.8L28.3,26.8z"/>
			</g>
		</g>
	</g>
	<g>
		<g>
			<g>
				<path class="st0" d="M30.9,24.5c0.4,0.2,0.6,0.2,0.9-0.1c0.1-0.1,0.1-0.1,0.1-0.2c-0.4-0.8,0-0.3,0.5-0.7
					c0.4-0.3,0.4-0.7,0.2-1.2c-0.4-1-1.6-1.5-2-2.5c-0.1-0.1-0.2-0.2-0.2-0.4c0.2-0.2,0.4-0.4,0.6-0.6c0.1,0,0.5,0.5,0.6,0.6
					c0.5,0.5,1,1,1.5,1.5c0.2,0.2,0.4-0.1,0.2-0.2c-0.7-0.7-1.6-1.9-2.5-2.4c-0.3-0.2-0.6-0.3-0.9,0.1c-0.3,0.5,0.1,1,0.3,1.4
					c0.3,0.4,0.6,0.8,0.9,1.2c0.2,0.3,0.5,0.5,0.7,0.7c0.1,0.1,0.2,0.2,0.3,0.4c0.4,0.4,0.2,0.8-0.5,1.2c-0.1-0.1-0.2,0-0.2,0.1
					c0,0.2,0.3,1-0.3,0.8C30.9,24.2,30.8,24.4,30.9,24.5L30.9,24.5z"/>
			</g>
		</g>
	</g>
	<g>
		<g>
			<g>
				<path class="st0" d="M34.8,19.8c0.3,0.3,0.6,0.1,1,0c0.6-0.2,1.8-0.3,2.2-0.7c0.3-0.4,0.1-0.8-0.1-1.2c-0.4-1-0.8-2-1.2-3
					c-0.1,0.1-0.2,0.1-0.2,0.2c0.8,0.4,1.5,0.9,1.9,1.7c0.1,0.2,0.4,0,0.3-0.2c-0.5-0.8-1.2-1.4-2-1.9c-0.1-0.1-0.3,0-0.2,0.2
					c0.4,1,1,2.1,1.2,3.2c0.1,0.3,0.2,0.5-0.2,0.8c-0.2,0.1-0.5,0.2-0.7,0.2c-0.3,0.1-1.5,0.6-1.8,0.4
					C34.8,19.4,34.6,19.6,34.8,19.8L34.8,19.8z"/>
			</g>
		</g>
	</g>
	<g>
		<g>
			<g>
				<path class="st0" d="M31.4,28.1c0.5,0,1.2,0,1.5-0.6c0.1-0.2,0.1-0.4,0.1-0.6c0-0.6,0.7-0.9,1.2-1.2c0.2-0.1,0-0.4-0.2-0.3
					c-0.4,0.3-1.2,0.6-1.3,1.1c-0.1,0.2,0,0.3,0,0.5c0,0.7-0.7,0.8-1.2,0.8C31.2,27.8,31.2,28.1,31.4,28.1L31.4,28.1z"/>
			</g>
		</g>
	</g>
	<g>
		<g>
			<g>
				<path class="st0" d="M35.9,23.9c-0.2-0.3-0.7-0.7-0.7-1c-0.3-0.2-0.2-0.4,0.3-0.4c0.4-0.3,0.7-0.3,1,0.1c0.3,0.2,0.7,0.4,1,0.5
					c0.4,0.1,1-0.1,1.2-0.5c0.2-0.4,0-0.6,0.3-0.9c0.3-0.4,0.8-0.3,1.3-0.5c0.8-0.4,1.4-1.2,1.9-2c0.1-0.2-0.2-0.3-0.3-0.2
					c-0.5,0.7-1.2,1.7-2.1,1.9c-0.3,0.1-0.9-0.1-1.2,0.2c-0.1,0.1-0.1,0.3-0.2,0.3c0,0.1,0,0.2,0,0.3c0.1,0.3-0.2,0.4-0.7,0.4
					c-0.9,0.5-0.6,0.4-1.4,0.1c-0.4-0.2-1.2-0.4-1.6,0c-0.5,0.6,0.5,1.4,0.8,1.9C35.7,24.2,36,24,35.9,23.9L35.9,23.9z"/>
			</g>
		</g>
	</g>
	<g>
		<g>
			<g>
				<path class="st0" d="M33.1,29.8c0.3-0.5,1.1-0.4,1.5-0.7c0.7-0.4,1.1-1,1.9-1.3c1-0.4,1.9-0.8,2.7-1.7c0.8-0.9,1.5-2,2.2-3
					c0.7-1,1.4-1.9,1.3-3.2c0-0.2-0.3-0.2-0.3,0c0,1.5-1,2.7-1.9,3.8c-0.8,1.2-1.6,2.5-2.9,3.2c-0.9,0.5-1.8,0.6-2.6,1.3
					c-0.4,0.3-0.7,0.6-1.2,0.8c-0.2,0.1-0.5,0.1-0.7,0.2c-0.2,0.1-0.3,0.2-0.4,0.4C32.7,29.8,33,29.9,33.1,29.8L33.1,29.8z"/>
			</g>
		</g>
	</g>
	<g>
		<g>
			<g>
				<path class="st0" d="M26.8,21c0.8-1.1,1.8-2.7,2.9-3.6c1.3-0.9,1.4,0.2,2.4-0.2c0.2-0.1,0.3-0.2,0.4-0.3
					c0.2-0.2,0.2-0.4,0.3-0.6c0.1-0.2,0.1-0.5,0.2-0.7c0.2-0.2,0.5-0.3,0.7-0.5c0.4-0.3,0.6-0.7,1.1-0.9c0.3-0.1,0.6-0.1,0.9-0.3
					c0.2-0.1,0-0.4-0.2-0.3c-0.5,0.3-1,0.1-1.4,0.4c-0.1,0.1-0.2,0.2-0.3,0.2c-0.2,0.2-0.5,0.5-0.8,0.7c-0.6,0.5-0.7,1.8-1.7,1.8
					c-0.5,0-0.7-0.3-1.2-0.2c-0.3,0.1-0.6,0.4-0.8,0.6c-1,1-1.9,2.3-2.8,3.5C26.4,21,26.7,21.1,26.8,21L26.8,21z"/>
			</g>
		</g>
	</g>
	<g>
		<g>
			<g>
				<path class="st0" d="M34.8,30c1.7-1,3.6-1.8,5.1-3.2c1.5-1.3,2.2-3.3,3-5c0.1-0.2-0.2-0.4-0.3-0.2c-0.8,1.7-1.6,3.7-3,5
					c-1.4,1.3-3.4,2.1-5,3.1C34.5,29.8,34.6,30.1,34.8,30L34.8,30z"/>
			</g>
		</g>
	</g>
	<g>
		<g>
			<g>
				<path class="st0" d="M35.3,25.4c0.1-0.2,0.3-0.4,0.4-0.5c-0.1,0-0.2,0-0.2,0c0.1,0.1,0.2,0.2,0.3,0.3c0-0.1,0-0.1-0.1-0.2
					c-0.1,0.2-0.2,0.3-0.4,0.2C35.1,25,35.1,25.4,35.3,25.4c0.3,0.2,0.7,0,0.8-0.3c0-0.1,0-0.1-0.1-0.2c-0.1-0.1-0.2-0.2-0.3-0.3
					c-0.1-0.1-0.2-0.1-0.2,0c-0.1,0.2-0.3,0.4-0.4,0.5C34.9,25.3,35.2,25.5,35.3,25.4L35.3,25.4z"/>
			</g>
		</g>
	</g>
	<g>
		<g>
			<g>
				<path class="st0" d="M39.3,17.6c0.1-0.2,0.2-0.4,0.4-0.5c0.1,0,0.2,0,0.2,0.1c0,0,0,0.1,0,0.1c-0.2,0-0.3,0.3-0.1,0.3
					c0.4,0.1,0.6-0.5,0.2-0.7c-0.2-0.1-0.4-0.1-0.6,0.1c-0.2,0.2-0.3,0.4-0.4,0.6C38.9,17.7,39.2,17.8,39.3,17.6L39.3,17.6z"/>
			</g>
		</g>
	</g>
	<g>
		<g>
			<g>
				<path class="st0" d="M28.1,24.1c0-0.1,0.1-0.2,0.1-0.3c0,0,0.1-0.1,0.1-0.1c0,0,0.1,0,0,0s0,0,0,0c0,0.1,0,0.3-0.1,0.3
					c-0.2,0-0.2,0.3,0,0.3c0.4,0,0.6-0.5,0.4-0.8c-0.1-0.1-0.1-0.2-0.2-0.1c-0.1,0-0.2,0.1-0.3,0.1c-0.2,0.1-0.3,0.3-0.3,0.6
					C27.8,24.3,28.1,24.3,28.1,24.1L28.1,24.1z"/>
			</g>
		</g>
	</g>
	<g>
		<g>
			<g>
				<path class="st0" d="M106.7,20.7c-1.6-1.8,0.2-4.6,2.5-3.8c1.1,0.4,1.8,1.8,1,2.8c-0.4,0.6-1.3,0.8-1.9,0.3
					c-0.2-0.2-0.4-0.5-0.4-0.8c-0.1-0.2,0-0.3,0.1-0.5c0.1-0.6,0.5-0.5,1,0.1c-0.1,0.2,0.2,0.3,0.3,0.1c0.2-0.6-0.3-1.2-0.9-1
					c-0.7,0.2-1,0.9-0.8,1.6c0.5,1.7,2.8,1.3,3.2-0.2c0.5-1.8-1.6-3.1-3.2-2.6c-1.9,0.6-2.4,2.9-1.1,4.4
					C106.6,21.1,106.9,20.9,106.7,20.7L106.7,20.7z"/>
			</g>
		</g>
	</g>
	<g>
		<g>
			<g>
				<path class="st0" d="M83.4,12.9c-0.2,1.4-0.3,2.7-0.3,4.1c0,0.2,0.3,0.2,0.3,0c0-1.3,0.1-2.7,0.3-4
					C83.7,12.8,83.4,12.7,83.4,12.9L83.4,12.9z"/>
			</g>
		</g>
	</g>
	<g>
		<g>
			<g>
				<path class="st0" d="M84.7,13.2c-0.2,1.3-0.4,2.7-0.6,4c0,0.2,0.3,0.3,0.3,0.1c0.2-1.3,0.4-2.7,0.6-4C85,13,84.7,12.9,84.7,13.2
					L84.7,13.2z"/>
			</g>
		</g>
	</g>
	<g>
		<path class="st0" d="M22.3,58.5c-2.6,0-4.7-2.1-4.7-4.7c0-2.6,2.1-4.7,4.7-4.7c2.6,0,4.7,2.1,4.7,4.7C27,56.4,24.9,58.5,22.3,58.5
			z M22.3,49.4c-2.5,0-4.5,2-4.5,4.5c0,2.5,2,4.5,4.5,4.5c2.5,0,4.5-2,4.5-4.5C26.8,51.4,24.8,49.4,22.3,49.4z"/>
	</g>
	<g>
		<g>
			<g>
				<path class="st0" d="M19.7,50.1c0.6,0.7-0.5,1.7,0.2,2.4c0.3,0.4,0.2,0,0.3,0.1c0.6-0.1,1.1,0.1,1.4,0.6
					c0.2,0.2,0.3,0.4,0.4,0.6c0.2,0.3,0.5,0.7,0.8,0.8c0.4,0.1,0.6,0,1-0.1c0.3-0.1,0.4-0.4,0.7-0.5c0.6-0.3,0.9,0.3,1.4,0.5
					c0.4,0.2,0.8,0.5,1.1-0.1c0.1-0.2-0.2-0.3-0.3-0.2c-0.2,0.4-1-0.6-1.2-0.7c-0.2-0.1-0.4-0.1-0.6-0.1c-0.3,0.1-0.5,0.3-0.7,0.4
					c-0.5,0.4-0.4,0.4-1.2,0.1c-0.8-0.3-0.6-0.3-1-0.9c-0.2-0.3-0.4-0.5-0.7-0.6c-0.2-0.1-0.5,0-0.6-0.1c-1-0.6,0-1.6-0.6-2.4
					C19.8,49.7,19.6,49.9,19.7,50.1L19.7,50.1z"/>
			</g>
		</g>
	</g>
	<g>
		<g>
			<g>
				<path class="st0" d="M17.9,53.5c0.7,0.1,0.8,0.9,0.2,1.2c-0.2,0.1,0,0.4,0.2,0.3c0.9-0.4,0.6-1.7-0.3-1.8
					C17.7,53.2,17.7,53.5,17.9,53.5L17.9,53.5z"/>
			</g>
		</g>
	</g>
	<g>
		<g>
			<g>
				<path class="st0" d="M25.7,56.6c-0.4-0.5-0.9-0.8-1.6-0.7c-0.3,0.1-0.5,0.3-0.8,0.4c-1,0.3-1.7-0.5-2.5-1c-0.1-0.1-0.2,0-0.2,0
					c-0.5,0.4-0.8,0.6-1.5,0.8c-0.1,0-0.1,0.1-0.1,0.2c0,0.1,0,0.3-0.1,0.4c0,0.2,0.3,0.2,0.3,0c0.1-0.3,1-0.8,1.3-0.9
					c0.7-0.2,1.3,0.7,1.8,0.9c1.2,0.5,1.9-1.4,3,0.1C25.6,57,25.8,56.8,25.7,56.6L25.7,56.6z"/>
			</g>
		</g>
	</g>
	<g>
		<g>
			<g>
				<path class="st0" d="M17.9,55c0.1,0.2,0.1,0.4,0.2,0.6c0.1,0.2,0.4,0.1,0.3-0.1c-0.1-0.2-0.1-0.4-0.2-0.6
					C18.2,54.7,17.9,54.8,17.9,55L17.9,55z"/>
			</g>
		</g>
	</g>
	<g>
		<path class="st0" d="M63.8,32c-1.2,0-2.1-0.9-2.1-2.1c0-1.2,0.9-2.1,2.1-2.1s2.1,0.9,2.1,2.1C65.9,31.1,65,32,63.8,32z M63.8,28.1
			c-1,0-1.9,0.9-1.9,1.9s0.9,1.9,1.9,1.9s1.9-0.9,1.9-1.9S64.9,28.1,63.8,28.1z"/>
	</g>
	<g>
		<g>
			<g>
				<path class="st0" d="M63.2,30.9c-0.8-0.9,0.1-2.5,1.3-2c0.6,0.2,0.9,0.9,0.5,1.5c-0.2,0.3-0.7,0.4-0.9,0.2
					c-0.1-0.1-0.2-0.3-0.2-0.4c0-0.1,0-0.2,0.1-0.2c0.1-0.3,0.2-0.3,0.5,0c-0.1,0.2,0.2,0.3,0.3,0.1c0.1-0.4-0.2-0.7-0.6-0.7
					c-0.4,0.1-0.6,0.6-0.5,1c0.3,1,1.7,0.8,1.9-0.1c0.3-1.1-0.9-1.8-1.9-1.6c-1.1,0.3-1.4,1.7-0.7,2.6C63.1,31.2,63.3,31,63.2,30.9
					L63.2,30.9z"/>
			</g>
		</g>
	</g>
	<g>
		<path class="st0" d="M37.6,49.9l-0.8-1.3l-1.5-0.1l1-1.2l-0.4-1.5l1.4,0.6l1.2-0.8l-0.1,1.5l1.2,1l-1.5,0.4L37.6,49.9z M35.6,48.3
			l1.2,0l0.7,1.1l0.4-1.2l1.2-0.3l-1-0.8l0.1-1.2l-1,0.7l-1.2-0.5l0.3,1.2L35.6,48.3z"/>
	</g>
	<g>
		<path class="st0" d="M62.1,17.2L61,15.5l-2.1-0.1l1.3-1.6l-0.6-2l1.9,0.8l1.7-1.2l-0.1,2.1l1.6,1.3l-2,0.5L62.1,17.2z M59.3,15.2
			l1.8,0.1l1,1.5l0.6-1.7l1.8-0.5l-1.4-1.1l0.1-1.8l-1.5,1L60,12.1l0.5,1.7L59.3,15.2z"/>
	</g>
	<g>
		<path class="st0" d="M113.1,47.6l-1.4-2.1l-2.5-0.1l1.6-2l-0.7-2.5l2.4,0.9l2.1-1.4l-0.2,2.5l2,1.6l-2.5,0.7L113.1,47.6z
			 M109.6,45.2l2.3,0.1l1.2,1.9l0.8-2.1l2.2-0.6l-1.8-1.4l0.1-2.3l-1.9,1.3l-2.1-0.8l0.6,2.2L109.6,45.2z"/>
	</g>
	<g>
		<path class="st0" d="M27.5,94.3l-0.7-1l-1.2-0.1l0.8-1L26.1,91l1.2,0.5l1-0.7L28.2,92l1,0.8L28,93.1L27.5,94.3z M26,93l1,0
			l0.5,0.8l0.3-0.9l0.9-0.2L28,92.1l0.1-1l-0.8,0.5l-0.9-0.4l0.3,0.9L26,93z"/>
	</g>
	<g>
		<path class="st0" d="M113.9,91.9l-0.7-1l-1.3-0.1l0.8-1l-0.3-1.2l1.2,0.4l1-0.7l-0.1,1.2l1,0.8l-1.2,0.3L113.9,91.9z M112.3,90.7
			l1,0l0.5,0.8l0.3-0.9l0.9-0.2l-0.8-0.6l0.1-1l-0.8,0.5l-0.9-0.3l0.3,0.9L112.3,90.7z"/>
	</g>
	<g>
		<path class="st0" d="M21.4,63.3l-0.5-0.8l-0.9,0l0.6-0.7l-0.2-0.9l0.8,0.3l0.8-0.5l-0.1,0.9l0.7,0.5l-0.9,0.2L21.4,63.3z
			 M20.4,62.3l0.6,0l0.3,0.5l0.2-0.6l0.6-0.2l-0.5-0.4l0-0.6l-0.5,0.4l-0.6-0.2l0.2,0.6L20.4,62.3z"/>
	</g>
	<g>
		<path class="st0" d="M92.9,34.3l-0.5-0.8l-0.9,0l0.6-0.7l-0.3-0.9l0.9,0.3l0.8-0.5l-0.1,0.9l0.7,0.6l-0.9,0.2L92.9,34.3z
			 M91.9,33.3l0.6,0l0.3,0.5l0.2-0.6l0.6-0.1l-0.5-0.4l0-0.6l-0.5,0.4l-0.6-0.2l0.2,0.6L91.9,33.3z"/>
	</g>
	<g>
		<path class="st0" d="M121.4,32.8l-0.7-1l-1.2-0.1l0.8-1l-0.3-1.2l1.2,0.5l1-0.7l-0.1,1.2l1,0.8l-1.2,0.3L121.4,32.8z M119.9,31.5
			l1,0l0.5,0.8l0.3-0.9l0.9-0.2l-0.8-0.6l0-1l-0.8,0.5l-0.9-0.4l0.3,0.9L119.9,31.5z"/>
	</g>
</g>
</svg>
