<?xml version="1.0" encoding="utf-8"?>
<!-- Generator: Adobe Illustrator 24.0.1, SVG Export Plug-In . SVG Version: 6.00 Build 0)  -->
<svg version="1.1" id="Layer_1" xmlns="http://www.w3.org/2000/svg" xmlns:xlink="http://www.w3.org/1999/xlink" x="0px" y="0px"
	 viewBox="0 0 141.7 141.7" style="enable-background:new 0 0 141.7 141.7;" xml:space="preserve">
<style type="text/css">
	.st0{fill:#070707;}
</style>
<g id="Layer_1_1_">
</g>
<g id="Layer_1_2_">
</g>
<g id="Layer_1_3_">
</g>
<g id="Layer_1_4_">
</g>
<g id="Layer_1_5_">
</g>
<g id="Layer_3">
</g>
<g id="Layer_3_1_">
</g>
<g id="Layer_1_6_">
</g>
<g id="Layer_1_7_">
</g>
<g id="Layer_1_8_">
</g>
<g id="Layer_1_9_">
</g>
<g id="Layer_1_10_">
</g>
<g id="Layer_1_11_">
</g>
<g id="Layer_1_12_">
</g>
<g id="Layer_1_13_">
</g>
<g id="Layer_1_14_">
</g>
<g id="Layer_2_1_">
	<g>
		<g>
			<g>
				<g>
					<path class="st0" d="M57.3,48c-4.2,0.5-8.6,1.5-11.9,4.3c-3.5,3-5.4,7.6-6,12.1c-0.8,5.5,0.1,11.1,0.2,16.6
						c0.1,5.8-0.3,11.6-0.1,17.4c0.2,4.9,1.3,9.9,5,13.4c0.3,0.3,0.8-0.2,0.5-0.5c-3.4-3.2-4.5-7.6-4.8-12.1c-0.3-5.1,0-10.3,0-15.4
						c0.1-9.6-2.8-20.9,3.7-29.1c3.2-4.1,8.4-5.4,13.3-6C57.7,48.6,57.7,47.9,57.3,48L57.3,48z"/>
				</g>
			</g>
		</g>
		<g>
			<g>
				<g>
					<path class="st0" d="M68.9,48.2c-1.2-0.2-2.4-0.3-3.6-0.4c-0.4,0-0.4,0.6,0,0.7c1.1,0.1,2.3,0.2,3.4,0.4
						C69.1,48.9,69.3,48.3,68.9,48.2L68.9,48.2z"/>
				</g>
			</g>
		</g>
		<g>
			<g>
				<g>
					<path class="st0" d="M48.7,114.4c3.6,2.2,8.2,2.2,12.3,1.9c2.1-0.2,4.1-0.5,6.2-0.8c2.2-0.4,4.5-0.6,6.5-1.8
						c0.4-0.2,0-0.8-0.3-0.6c-1.9,1.2-4.2,1.3-6.3,1.7c-2,0.3-4,0.7-6,0.8c-4,0.3-8.4,0.4-12-1.8C48.7,113.6,48.3,114.1,48.7,114.4
						L48.7,114.4z"/>
				</g>
			</g>
		</g>
		<g>
			<g>
				<g>
					<path class="st0" d="M53.6,49.3c0.4,0,0.4-0.7,0-0.7C53.2,48.6,53.2,49.3,53.6,49.3L53.6,49.3z"/>
				</g>
			</g>
		</g>
		<g>
			<g>
				<g>
					<path class="st0" d="M40.4,60.6c-3.2-0.3-5-3.7-3-6.4c1.4-1.9,5.3-3.1,7.1-1.1c0.3,0.3,0.7-0.2,0.5-0.5
						c-2.2-2.5-6.9-0.9-8.4,1.6c-2,3.1,0.4,6.6,3.8,7C40.8,61.3,40.8,60.7,40.4,60.6L40.4,60.6z"/>
				</g>
			</g>
		</g>
		<g>
			<g>
				<g>
					<path class="st0" d="M57.7,64.5c0.1-0.3,0.1-0.4-0.2-0.3c-0.1,0-0.1,0-0.2,0.1c-0.2,0-0.2,0.1-0.4,0.2
						c-0.4,0.2-0.9,0.6-1.2,0.9c-0.5,0.5-1.1,1.2-1,2c0.2,0.9,1.2,1.4,2,1.5c1.5,0.2,2.8-0.7,4.3-0.7c1.5,0,4.4,1.7,4.8-0.9
						c0.3-1.9-2.1-3-3.6-3.5c-0.2-0.1-0.3,0.2-0.1,0.3c1.3,0.5,3.7,1.5,3.3,3.2c-0.4,2.2-3.1,0.5-4.4,0.5c-1.7,0-4,1.6-5.4,0.2
						c-1.5-1.5,1-3.2,2.2-3.6c0.1-0.1,0.2-0.2,0.1-0.3c-0.1-0.1-0.2-0.1-0.4,0C57.4,64.2,57.5,64.6,57.7,64.5L57.7,64.5z"/>
				</g>
			</g>
		</g>
		<g>
			<g>
				<g>
					<path class="st0" d="M62.9,68.6c0.3,0.9,0.5,1.9,0.3,2.8c-0.2,0.7-0.8,1.2-1.6,1c-0.5-0.1-0.7-0.6-0.9-1.1
						c-0.1-0.2-0.4,0-0.3,0.2c0.2,0.5,0.4,1,0.9,1.2c0.5,0.2,1.1,0.1,1.5-0.2c1.2-0.8,0.8-2.9,0.4-4C63.1,68.3,62.8,68.4,62.9,68.6
						L62.9,68.6z"/>
				</g>
			</g>
		</g>
		<g>
			<g>
				<g>
					<path class="st0" d="M44.8,111.7c1.9-0.9,2.9,1.4,4.2,2.4c0-0.1,0-0.2,0-0.3c-2,0.3-3.7,3.3-5.8,2.8c-2-0.4-1.5-2.4-0.5-3.4
						c0.8-0.7,1.7-1.3,2.6-1.8c0.2-0.1,0-0.4-0.2-0.3c-1.5,0.8-5.1,2.8-3.4,4.9c2.2,2.7,5-1.6,7.2-2c0.2,0,0.1-0.2,0-0.3
						c-1.5-1-2.4-3.4-4.5-2.4C44.5,111.5,44.7,111.8,44.8,111.7L44.8,111.7z"/>
				</g>
			</g>
		</g>
		<g>
			<g>
				<g>
					<path class="st0" d="M42.7,116.3c-0.3-1.1,0.5-2,1.4-2.4c0.2-0.1,0-0.4-0.2-0.3c-1,0.5-1.9,1.5-1.6,2.8
						C42.4,116.6,42.7,116.4,42.7,116.3L42.7,116.3z"/>
				</g>
			</g>
		</g>
		<g>
			<g>
				<g>
					<path class="st0" d="M77.1,116.2c-1-0.6-1.6-1.5-2.4-2.4c-0.5-0.5-1-1-0.2-1.9c0.5-0.5,1.4-0.9,2.1-0.9c1.4,0,2.5,1.3,3,2.5
						c0.3,0.6,0.5,1.7,0.1,2.3C79.1,116.7,78,116.6,77.1,116.2c-0.2-0.1-0.4,0.2-0.2,0.3c1.3,0.6,3,0.5,3.3-1.2
						c0.3-1.7-1-3.8-2.6-4.4c-0.8-0.3-1.6-0.3-2.4,0.1c-0.6,0.3-1.9,1-1.9,1.8c0,0.6,0.6,0.9,1,1.2c0.8,0.8,1.5,1.8,2.5,2.4
						C77.1,116.6,77.3,116.3,77.1,116.2z"/>
				</g>
			</g>
		</g>
		<g>
			<g>
				<g>
					<path class="st0" d="M85.3,66.8c-1.6-0.2-2.7,0.9-3.7,2c-0.1,0.2,0.1,0.4,0.2,0.2c0.9-1,2-2.1,3.4-1.9
						C85.4,67.2,85.5,66.9,85.3,66.8L85.3,66.8z"/>
				</g>
			</g>
		</g>
		<g>
			<g>
				<g>
					<path class="st0" d="M81.5,72.2c1.6,0.2,3.1-0.2,4.1-1.5c0.1-0.2-0.1-0.4-0.2-0.2c-1,1.2-2.3,1.6-3.8,1.4
						C81.4,71.8,81.3,72.2,81.5,72.2L81.5,72.2z"/>
				</g>
			</g>
		</g>
		<g>
			<g>
				<g>
					<path class="st0" d="M84.2,69.4c1-0.3,1.8-1.2,1.3-2.3c-0.1-0.2-0.4,0-0.3,0.2c0.4,0.9-0.4,1.5-1.2,1.8
						C83.9,69.2,84.1,69.5,84.2,69.4L84.2,69.4z"/>
				</g>
			</g>
		</g>
		<g>
			<path class="st0" d="M97.4,51.8c-7.6,0-13.8-6.2-13.8-13.9S89.8,24,97.4,24c7.6,0,13.8,6.2,13.8,13.9S105,51.8,97.4,51.8z
				 M97.4,24.7c-7.2,0-13,5.9-13,13.1S90.2,51,97.4,51c7.2,0,13-5.9,13-13.1S104.6,24.7,97.4,24.7z"/>
		</g>
		<g>
			<path class="st0" d="M52.2,65.1c-3.7,0-6.7-3-6.7-6.7s3-6.7,6.7-6.7c3.7,0,6.7,3,6.7,6.7S55.8,65.1,52.2,65.1z M52.2,52.2
				c-3.5,0-6.3,2.8-6.3,6.3s2.8,6.3,6.3,6.3c3.5,0,6.3-2.8,6.3-6.3S55.6,52.2,52.2,52.2z"/>
		</g>
		<g>
			<circle class="st0" cx="41" cy="56.4" r="1.4"/>
		</g>
		<g>
			<path class="st0" d="M63.2,63.7c0-0.9-1.3-1.6-2.9-1.6s-2.9,0.7-2.9,1.6c0,0.9,1.3,1.6,2.9,1.6C61.9,65.3,63.2,64.6,63.2,63.7z"
				/>
		</g>
		<g>
			<path class="st0" d="M95.7,35.8c0,2.4,2,4.4,4.4,4.4c2.4,0,4.4-2,4.4-4.4c0-2.4-2-4.4-4.4-4.4C97.6,31.4,95.7,33.4,95.7,35.8z
				 M102.9,34c0,0.7-0.5,1.3-1.3,1.3c-0.7,0-1.3-0.5-1.3-1.3c0-0.7,0.5-1.3,1.3-1.3C102.3,32.8,102.9,33.3,102.9,34z"/>
		</g>
		<g>
			<path class="st0" d="M52.9,56.9c0,1.2,0.9,2.1,2.1,2.1c1.2,0,2.1-0.9,2.1-2.1c0-1.2-0.9-2.1-2.1-2.1
				C53.8,54.8,52.9,55.7,52.9,56.9z M56.3,56.1c0,0.3-0.3,0.6-0.6,0.6c-0.3,0-0.6-0.3-0.6-0.6s0.3-0.6,0.6-0.6
				C56.1,55.5,56.3,55.7,56.3,56.1z"/>
		</g>
		<g>
			<g>
				<g>
					<path class="st0" d="M60.4,68.2c0.3,1.2,0.3,2.9-0.3,3.9c-0.6,1-1.8,0.4-2.1-0.5c-0.3-0.9-0.1-1.9,0.1-2.7
						c0.1-0.2-0.3-0.3-0.3-0.1c-0.3,1-0.4,2.2,0,3.2c0.3,0.7,1.3,1.2,2,0.9c1.4-0.7,1.3-3.5,1-4.8C60.7,67.9,60.4,68,60.4,68.2
						L60.4,68.2z"/>
				</g>
			</g>
		</g>
		<g>
			<g>
				<g>
					<path class="st0" d="M49.2,92.3c0.8,1.3,2.4,2,3.9,2.1c1.1,0.1,2.1-0.3,1.8-1.5c-0.1-0.2-0.4-0.1-0.3,0.1
						c0.3,1.4-1.6,1.2-2.4,1c-1.1-0.3-2.1-0.9-2.7-1.8C49.4,92,49.1,92.1,49.2,92.3L49.2,92.3z"/>
				</g>
			</g>
		</g>
		<g>
			<g>
				<g>
					<path class="st0" d="M53.3,92.8c0.5,0.2,1.2,0.4,1.6,0s0.3-1,0-1.4c-0.7-1-2.6-1.2-3.7-1.1c-0.2,0-0.2,0.3,0,0.3
						c0.8-0.1,1.6,0,2.4,0.3c0.4,0.2,0.9,0.4,1.1,0.8c0.4,1-0.7,1-1.3,0.7C53.2,92.4,53.1,92.7,53.3,92.8L53.3,92.8z"/>
				</g>
			</g>
		</g>
		<g>
			<g>
				<g>
					<path class="st0" d="M80.2,60.5c1.2,4.9,0.9,10,0.9,15c0,0.4,0.7,0.4,0.7,0c0-5.1,0.3-10.2-0.9-15.2
						C80.7,60,80.1,60.1,80.2,60.5L80.2,60.5z"/>
				</g>
			</g>
		</g>
		<g>
			<g>
				<g>
					<path class="st0" d="M73.5,113.4c0,0,0.1,0,0.1,0c0.2,0,0.2-0.3,0-0.3h0c-0.1,0-0.1,0-0.1,0.1c0,0,0,0,0,0
						c0.1,0.1,0.1,0.1,0.2,0.2c0,0,0-0.1,0-0.1C73.6,113.3,73.5,113.3,73.5,113.4C73.5,113.4,73.5,113.4,73.5,113.4
						c0.2,0.2,0.4,0,0.3-0.2c0,0-0.1-0.1-0.1-0.1c-0.1-0.1-0.2-0.1-0.3,0.1c0,0,0,0.1,0,0.1c-0.1,0.1,0.1,0.2,0.2,0.2
						c0.1,0,0.1-0.1,0.2-0.2c-0.1,0-0.1,0.1-0.1,0.1h0c0.2,0,0.2-0.3,0-0.3c0,0-0.1,0-0.1,0C73.3,113,73.3,113.4,73.5,113.4
						L73.5,113.4z"/>
				</g>
			</g>
		</g>
		<g>
			<g>
				<g>
					<path class="st0" d="M45.5,58.9c3.3,4.6,10.1,4.6,13.3-0.1c0.1-0.2-0.2-0.3-0.3-0.2c-3.1,4.4-9.6,4.5-12.8,0.1
						C45.6,58.6,45.4,58.7,45.5,58.9L45.5,58.9z"/>
				</g>
			</g>
		</g>
		<g>
			<g>
				<g>
					<path class="st0" d="M87.1,28.8c-3,2.4-5.9,4.9-8.5,7.8c-0.3,0.3,0.2,0.8,0.5,0.5c2.6-2.8,5.5-5.4,8.5-7.8
						C87.9,29,87.4,28.5,87.1,28.8L87.1,28.8z"/>
				</g>
			</g>
		</g>
		<g>
			<g>
				<g>
					<path class="st0" d="M78.3,37.1c-0.5,2.6-1.2,5.3-0.8,8c0.3,2.2,1.1,4.3,2.4,6.1c2.7,3.6,7.2,5.4,11.7,4.8
						c0.4-0.1,0.4-0.7,0-0.7c-4.4,0.5-8.8-1.2-11.3-4.9c-1.2-1.8-2-3.9-2.1-6c-0.2-2.4,0.5-4.8,0.9-7.2C79,36.9,78.4,36.7,78.3,37.1
						L78.3,37.1z"/>
				</g>
			</g>
		</g>
		<g>
			<g>
				<g>
					<path class="st0" d="M91.7,56.2c4.7-1.5,9-3.8,13-6.6c0.3-0.2,0-0.8-0.3-0.6c-3.9,2.8-8.2,5-12.8,6.6
						C91.1,55.7,91.3,56.3,91.7,56.2L91.7,56.2z"/>
				</g>
			</g>
		</g>
		<g>
			<g>
				<g>
					<path class="st0" d="M77.4,41c-4,3.2-7.7,6.7-11.2,10.4c-0.3,0.3,0.2,0.8,0.5,0.5c3.5-3.7,7.3-7.1,11.2-10.4
						C78.2,41.2,77.7,40.8,77.4,41L77.4,41z"/>
				</g>
			</g>
		</g>
		<g>
			<g>
				<g>
					<path class="st0" d="M86.4,55.6c-2.8,1.8-5.6,3.6-8.4,5.3c-1.3,0.8-2.7,1.7-4,2.5c-0.7,0.4-1.4,0.8-2.2,1.2
						c-0.3,0.2-0.6,0.3-0.9,0.5c-0.2,0.1-0.4,0.2-0.7,0.3c-0.3,0.1-0.5,0.3-0.6,0.7c0.4-0.2,0.1-0.8-0.3-0.6c-0.1,0-0.1,0-0.1,0.1
						c-0.1,0.1-0.2,0.2-0.2,0.4c0,0.1,0,0.1,0,0.2c0,0.1,0.1,0.2,0.2,0.2c1,0.2,2.4-0.9,3.2-1.4c1.6-0.9,3.2-1.8,4.7-2.8
						c3.2-2,6.3-4,9.5-6C87,55.9,86.7,55.3,86.4,55.6L86.4,55.6z"/>
				</g>
			</g>
		</g>
		<g>
			<g>
				<g>
					<path class="st0" d="M66.7,51.6c-1-0.7-2,0.1-2.2,1.1c-0.3,1.2-0.2,3.6,0.8,4.6c0.8,0.8,1.6-0.4,1.8-1.1
						c0.5-1.6-0.1-3.3-0.6-4.9c-0.1-0.4-0.8-0.2-0.6,0.2c0.5,1.3,1.3,3.3,0.5,4.7c-0.4,0.8-0.8,0.7-1-0.1c-0.1-0.4-0.2-0.8-0.3-1.2
						c-0.1-0.5-0.3-3.8,1.3-2.7C66.7,52.4,67.1,51.8,66.7,51.6L66.7,51.6z"/>
				</g>
			</g>
		</g>
		<g>
			<g>
				<g>
					<path class="st0" d="M67.4,51.6c0.2-0.3,0.7,1.1,0.7,1.2c0.1,0.5,0.2,1,0.3,1.5c0.1,0.9-0.2,3.1-1.6,2.1
						c-0.3-0.2-0.7,0.3-0.3,0.6c0.6,0.4,1.4,0.3,2-0.2c0.8-0.7,0.8-1.7,0.7-2.6c-0.1-0.9-0.3-2.3-0.9-3.1c-0.4-0.5-1-0.5-1.4,0.1
						C66.6,51.6,67.2,52,67.4,51.6L67.4,51.6z"/>
				</g>
			</g>
		</g>
		<g>
			<g>
				<g>
					<path class="st0" d="M64.4,53.8c-1.4,1-2.7,2.3-3.1,4.1c-0.4,1.8,0.3,3.9,1.2,5.4c1.7,2.9,5.5,3.8,8.3,2.1
						c0.4-0.2,0-0.8-0.3-0.6c-2.5,1.6-5.9,0.8-7.4-1.8c-0.8-1.4-1.5-3.3-1.2-4.9c0.4-1.5,1.5-2.7,2.8-3.7
						C65.1,54.2,64.8,53.6,64.4,53.8L64.4,53.8z"/>
				</g>
			</g>
		</g>
		<g>
			<path class="st0" d="M97.6,50.8c-7.2,0-13.1-5.9-13.1-13.1c0-7.2,5.9-13.1,13.1-13.1c7.2,0,13.1,5.9,13.1,13.1
				C110.7,44.9,104.9,50.8,97.6,50.8z M97.6,25.4c-6.8,0-12.3,5.5-12.3,12.3c0,6.8,5.5,12.3,12.3,12.3s12.3-5.5,12.3-12.3
				C109.9,30.9,104.4,25.4,97.6,25.4z"/>
		</g>
		<g>
			<g>
				<path class="st0" d="M98,46.1c-6.4,0-11.7-4.5-13-10.6c-0.1,0.3-0.2,0.5-0.2,0.8c1.5,5.9,6.9,10.2,13.2,10.2
					c5.6,0,10.5-3.4,12.5-8.3v-1.1C108.8,42.3,103.9,46.1,98,46.1z"/>
			</g>
		</g>
		<g>
			<g>
				<g>
					<path class="st0" d="M62.2,56.1c-0.4,0-0.5-0.7-0.2-0.9c-0.2,0-0.3,0-0.5,0c0.3,0.3,0.4,0.6,0.5,0.9c0.1,0.4,0.8,0.2,0.6-0.2
						c-0.1-0.5-0.4-0.9-0.7-1.2c-0.1-0.1-0.3-0.1-0.5,0c-0.8,0.6-0.3,1.9,0.7,2C62.6,56.8,62.6,56.2,62.2,56.1L62.2,56.1z"/>
				</g>
			</g>
		</g>
		<g>
			<g>
				<g>
					<path class="st0" d="M62.7,55.3c-0.4-1.4-0.8-2.8-1.2-4.3c-0.2-0.6-0.4-1.3-0.5-1.9c-0.1-0.4-0.2-0.8-0.3-1.2
						c-0.1-0.2-0.1-0.3-0.1-0.5c-0.1-0.5-0.2-0.3-0.1,0.7c-0.2,0.4,0.3,0.7,0.6,0.3c0.3-0.5,0.7-1.4,0.1-1.8c-0.4-0.3-1-0.2-1.2,0.3
						c-0.1,0.3,0.1,0.8,0.2,1.1c0.2,0.8,0.4,1.6,0.7,2.4c0.5,1.7,0.9,3.3,1.4,5C62.2,55.8,62.8,55.7,62.7,55.3L62.7,55.3z"/>
				</g>
			</g>
		</g>
		<g>
			<g>
				<g>
					<path class="st0" d="M61,46.6c-0.1-0.5-0.2-0.9-0.3-1.4c-0.1-0.3-0.4-1-0.1-1.3c0.2-0.2,1.1-0.2,1.4-0.2c0.5-0.1,1-0.1,1.5-0.1
						c0.4,0,0.4-0.7,0-0.7c-0.7,0-1.4,0-2,0.1c-0.4,0.1-1.1,0.1-1.4,0.4c-0.3,0.3-0.2,0.7-0.1,1c0.2,0.8,0.3,1.5,0.5,2.3
						C60.4,47.2,61.1,47.1,61,46.6L61,46.6z"/>
				</g>
			</g>
		</g>
		<g>
			<g>
				<g>
					<path class="st0" d="M63.7,43.6c0.6,2.5,1.2,5,1.8,7.5c0.1,0.4,0.7,0.2,0.6-0.2c-0.6-2.5-1.2-5-1.8-7.5
						C64.2,43,63.6,43.2,63.7,43.6L63.7,43.6z"/>
				</g>
			</g>
		</g>
		<g>
			<g>
				<g>
					<path class="st0" d="M64.9,46.1c0.3,0.3,0.4,0.9,0,1.2c-0.3,0.2,0,0.8,0.3,0.6c0.7-0.5,0.8-1.6,0.1-2.2
						C65,45.4,64.6,45.9,64.9,46.1L64.9,46.1z"/>
				</g>
			</g>
		</g>
		<g>
			<g>
				<g>
					<path class="st0" d="M59.2,47C59.2,47.1,59.2,47.1,59.2,47C59.2,47.1,59.1,47.1,59.2,47c-0.1,0-0.1,0-0.2,0c-0.1,0-0.2,0-0.3,0
						c-0.2,0.1-0.3,0.2-0.4,0.4c0,0.2,0,0.4,0.1,0.5c0.2,0.2,0.4,0.2,0.6,0c0.3-0.3-0.2-0.8-0.5-0.5c0.1-0.1,0.2-0.1,0.4,0.1
						c0,0,0,0,0,0c0-0.1,0,0.1,0,0c0,0.1,0,0.1,0,0c0,0,0,0.1-0.1,0.1c-0.1,0.1-0.1,0.1-0.1,0.1c0,0,0,0,0,0c0.2,0,0.4,0,0.6-0.1
						c0.2-0.1,0.2-0.3,0.1-0.4C59.6,47,59.4,46.9,59.2,47L59.2,47z"/>
				</g>
			</g>
		</g>
		<g>
			<g>
				<g>
					<path class="st0" d="M58.2,47.4c0-0.4-0.1-0.7-0.4-1c-0.1-0.1-0.4-0.1-0.5,0c-0.8,1-0.4,2.5,0.8,2.9c0.1,0.1,0.3,0,0.4-0.2
						c0.2-0.5,0.3-0.9,0.3-1.5c0-0.4-0.7-0.4-0.7,0c0,0.4-0.1,0.8-0.2,1.2c0.1-0.1,0.2-0.1,0.4-0.2c-0.7-0.3-1-1.2-0.5-1.8
						c-0.2,0-0.3,0-0.5,0c0.2,0.2,0.2,0.4,0.2,0.6C57.6,47.8,58.2,47.8,58.2,47.4L58.2,47.4z"/>
				</g>
			</g>
		</g>
		<g>
			<g>
				<g>
					<path class="st0" d="M61,55.5c-0.3,0.1-0.7,0.3-1,0.4c-0.2,0.1-0.3,0.2-0.2,0.4c0.1,0.2,0.2,0.3,0.4,0.2c0.3-0.1,0.7-0.3,1-0.4
						c0.2-0.1,0.3-0.2,0.2-0.4C61.4,55.6,61.2,55.5,61,55.5L61,55.5z"/>
				</g>
			</g>
		</g>
		<g>
			<g>
				<g>
					<path class="st0" d="M60.2,55.7c-0.1-0.3-0.3-0.6-0.6-0.8c-0.2-0.1-0.3,0-0.4,0.1c-0.4,0.6-1,2.6,0.2,2.8
						c0.4,0.1,0.8-0.2,1-0.6c0.3-0.6-0.1-1.2,0.1-1.8c0.1-0.4-0.5-0.6-0.6-0.2c-0.1,0.3-0.1,0.5-0.1,0.8c0,0.3,0.2,0.8-0.1,1
						c-0.4,0.4-0.4-0.5-0.3-0.7c0.1-0.4,0.2-0.7,0.4-1c-0.2,0-0.3,0.1-0.4,0.1c0.2,0.1,0.2,0.2,0.3,0.4
						C59.6,56.3,60.2,56.2,60.2,55.7L60.2,55.7z"/>
				</g>
			</g>
		</g>
		<g>
			<g>
				<g>
					<path class="st0" d="M62,52.6c1.4,0.1,2.8-0.4,3.8-1.3c0.3-0.3-0.1-0.7-0.5-0.5c-1,0.8-2.1,1.2-3.4,1.1
						C61.5,51.9,61.5,52.6,62,52.6L62,52.6z"/>
				</g>
			</g>
		</g>
		<g>
			<g>
				<g>
					<path class="st0" d="M62.4,54.2c0.8,0,1.6-0.3,2.3-0.8c0.3-0.2,0-0.8-0.3-0.6c-0.6,0.4-1.2,0.7-2,0.7
						C62,53.5,62,54.2,62.4,54.2L62.4,54.2z"/>
				</g>
			</g>
		</g>
		<g>
			<g>
				<g>
					<path class="st0" d="M68.3,56.7c0.4,4.5,1.3,9,2.6,13.4c0.5,1.9,1,3.9,2.2,5.4c1.2,1.5,2.8,2.5,4.4,3.4
						c0.4,0.2,0.7-0.3,0.3-0.6c-1.6-1-3.4-2-4.5-3.7c-1.1-1.6-1.6-3.8-2.1-5.7c-1.1-4-1.9-8.2-2.2-12.3
						C68.9,56.3,68.3,56.3,68.3,56.7L68.3,56.7z"/>
				</g>
			</g>
		</g>
		<g>
			<g>
				<g>
					<path class="st0" d="M67.2,57.2c0.4,2.4,0.9,4.8,1.4,7.1c0.4,2,0.6,4.3,1.3,6.2c0.6,1.6,1.9,2.7,3.1,3.8
						c1.4,1.2,4.3,2.6,4.5,4.6c0.1,0.4,0.7,0.4,0.7,0c-0.2-1.4-1.1-2.2-2.2-3c-1.8-1.4-4-2.8-5.1-4.8c-1.1-2-1.3-4.7-1.7-6.9
						c-0.4-2.4-0.9-4.8-1.4-7.1C67.7,56.6,67.1,56.8,67.2,57.2L67.2,57.2z"/>
				</g>
			</g>
		</g>
		<g>
			<g>
				<g>
					<path class="st0" d="M84.5,57.1c0.7,5.7,2.7,13.1-1.4,18c-0.3,0.3,0.2,0.8,0.5,0.5c4.3-5,2.4-12.5,1.6-18.5
						C85.1,56.7,84.5,56.7,84.5,57.1L84.5,57.1z"/>
				</g>
			</g>
		</g>
		<g>
			<g>
				<g>
					<path class="st0" d="M86.1,56.5c0.4,4.1,0.9,8.1,1.3,12.2c0.4,3.5,1.2,8.6-2.8,10.4c-0.4,0.2-0.1,0.7,0.3,0.6
						c3.5-1.5,3.7-5.6,3.4-8.9c-0.5-4.7-1-9.5-1.5-14.2C86.7,56.1,86.1,56.1,86.1,56.5L86.1,56.5z"/>
				</g>
			</g>
		</g>
		<g>
			<g>
				<g>
					<path class="st0" d="M71.8,64.7c-0.5,1,0.3,2.2,1.5,2c1.5-0.3,1.7-2,1.6-3.2c0-0.4-0.7-0.4-0.7,0c0,0.8,0.1,1.7-0.5,2.2
						c-0.2,0.2-0.6,0.4-1,0.3c-0.4-0.1-0.6-0.7-0.4-1C72.5,64.6,72,64.3,71.8,64.7L71.8,64.7z"/>
				</g>
			</g>
		</g>
		<g>
			<g>
				<g>
					<path class="st0" d="M63.9,64.1c6.2-3.3,11.9-7.2,17.3-11.7c0.3-0.3-0.1-0.7-0.5-0.5c-5.3,4.4-11,8.3-17.1,11.6
						C63.2,63.7,63.5,64.3,63.9,64.1L63.9,64.1z"/>
				</g>
			</g>
		</g>
		<g>
			<g>
				<g>
					<path class="st0" d="M79.9,50.2c2.5-1,4.8-2.5,6.6-4.4c0.3-0.3-0.2-0.8-0.5-0.5c-1.8,1.9-3.9,3.3-6.4,4.3
						C79.3,49.7,79.5,50.3,79.9,50.2L79.9,50.2z"/>
				</g>
			</g>
		</g>
		<g>
			<g>
				<g>
					<path class="st0" d="M75.1,78.5c1.3,2,3.5,3.2,5.8,3.2c1.3,0,4.9-0.6,4.1-2.6c-0.2-0.4-0.7-0.1-0.6,0.3
						c0.7,1.6-4.1,1.6-4.8,1.4c-1.6-0.4-3.1-1.3-4-2.7C75.4,77.9,74.8,78.2,75.1,78.5L75.1,78.5z"/>
				</g>
			</g>
		</g>
		<g>
			<g>
				<g>
					<path class="st0" d="M76.6,76.9c2.7-0.9,7.7-1.2,7.8,2.9c0,0.4,0.7,0.4,0.7,0c-0.1-1.6-1.1-3-2.6-3.7c-1.9-0.9-4.1-0.4-6.1,0.2
						C76,76.4,76.2,77.1,76.6,76.9L76.6,76.9z"/>
				</g>
			</g>
		</g>
		<g>
			<g>
				<g>
					<path class="st0" d="M75.6,78.1c0-0.2,0-0.4,0-0.6c0-0.2-0.2-0.3-0.3-0.3c-0.2,0-0.3,0.2-0.3,0.3c0,0.2,0,0.4,0,0.6
						c0,0.2,0.2,0.3,0.3,0.3C75.5,78.4,75.6,78.3,75.6,78.1L75.6,78.1z"/>
				</g>
			</g>
		</g>
		<g>
			<g>
				<g>
					<path class="st0" d="M74.9,77.5c-0.3,1.8-0.9,3.6,0.7,4.8c1.5,1.1,3.5,1.7,5.3,1.8c1.4,0.1,3.4-0.1,4.4-1.4
						c0.7-1,0.5-2.3-0.4-2.9c-0.4-0.2-0.7,0.3-0.3,0.6c1.9,1.2-0.5,2.7-1.6,3c-1.2,0.2-2.4,0.2-3.6-0.1c-1-0.2-2.2-0.6-3.1-1.3
						c-1.6-1.2-1-2.7-0.8-4.3C75.6,77.3,75,77.1,74.9,77.5L74.9,77.5z"/>
				</g>
			</g>
		</g>
		<g>
			<g>
				<g>
					<path class="st0" d="M75.3,78.2c-2.9-0.3-4.4,2.9-5.6,5c-2,3.7-3.9,7.4-5.8,11.2c-3.6,7.3-7,14.8-10.1,22.4
						c-0.1,0.2,0.2,0.3,0.3,0.1c2.9-7.1,6-14.1,9.4-20.9c1.6-3.3,3.3-6.6,5.1-9.9c0.8-1.5,1.6-3.1,2.5-4.5c0.9-1.5,2.2-3.1,4.2-2.9
						C75.5,78.5,75.5,78.2,75.3,78.2L75.3,78.2z"/>
				</g>
			</g>
		</g>
		<g>
			<g>
				<g>
					<path class="st0" d="M79,115.9c-0.4-5.3-0.7-10.7-1.1-16c-0.2-2.7-0.4-5.5-0.5-8.3c-0.1-1.9-0.4-6.2,2.7-5.5
						c2.7,0.6,3.2,4,3,6.3c-0.1,2.7-0.6,5.4-1,8c-0.4,2.5-0.8,5-1.2,7.5c-0.2,1.3-0.5,2.7-0.7,4c-0.1,0.7-0.2,1.3-0.4,2
						c0,0.2-0.5,2.1-0.5,2.1c-0.1-0.2-0.4,0.1-0.2,0.2c0,0,0.1,0.1,0.1,0.1c0.1,0.1,0.1,0.1,0.2,0c0.6-0.3,0.5-1.1,0.6-1.6
						c0.2-1.2,0.5-2.5,0.7-3.7c0.4-2.5,0.9-5,1.3-7.5c0.4-2.4,0.7-4.9,1-7.3c0.3-2,0.6-4.1,0.3-6.1c-0.2-1.5-0.9-3.2-2.3-3.9
						c-1.1-0.6-2.4-0.5-3.2,0.4c-0.9,1-0.9,2.6-0.8,3.9c0.1,2.6,0.3,5.3,0.5,7.9c0.4,5.9,0.8,11.7,1.2,17.5
						C78.7,116.1,79,116.1,79,115.9L79,115.9z"/>
				</g>
			</g>
		</g>
		<g>
			<g>
				<g>
					<path class="st0" d="M54.7,117.6c4.9-7.4,9.6-14.8,14.3-22.3c1.2-1.9,2.3-3.8,3.5-5.6c0.9-1.4,2.3-3.1,2.5-4.8
						c0.3-2.2-2-4-4.1-3.5c-0.2,0.1-0.1,0.4,0.1,0.3c2-0.5,4.2,1.4,3.6,3.5c-0.4,1.6-1.7,3.2-2.5,4.5c-1.9,3.1-3.8,6.2-5.8,9.3
						c-3.9,6.2-7.8,12.3-11.8,18.4C54.3,117.6,54.6,117.8,54.7,117.6L54.7,117.6z"/>
				</g>
			</g>
		</g>
		<g>
			<g>
				<g>
					<path class="st0" d="M87.3,83.9c-0.2-0.7-0.4-1.4-0.4-2.1c0-1.5,1.3-2.6,2.7-1.4c1.3,1.1,1.9,3.1,2.6,4.6
						c1.8,3.7,3.6,7.3,5.4,11c3.5,7.3,7.1,14.5,10.6,21.8c0.1,0.2,0.4,0,0.3-0.2c-4.4-9-8.8-18-13.1-27c-1.1-2.3-2.2-4.5-3.3-6.8
						c-0.7-1.4-1.3-3.4-2.8-4.2c-0.8-0.4-1.8-0.2-2.4,0.6c-0.7,1-0.3,2.6,0,3.7C87.1,84.2,87.4,84.1,87.3,83.9L87.3,83.9z"/>
				</g>
			</g>
		</g>
		<g>
			<g>
				<g>
					<path class="st0" d="M87.3,84.2c5.5,12,12.7,23.3,21.2,33.4c0.1,0.2,0.4-0.1,0.2-0.2C100.2,107.2,93.1,96,87.6,84
						C87.4,83.8,87.2,84,87.3,84.2L87.3,84.2z"/>
				</g>
			</g>
		</g>
		<g>
			<g>
				<g>
					<path class="st0" d="M53.9,116.5c-0.9-0.5-1.9,0.1-2,1.1c0,0.1,0.1,0.3,0.2,0.3c1.9,0.4,3.8,0.3,5.6-0.1
						c0.3-0.1,0.3-0.4,0.1-0.6c-0.8-0.5-1.5-0.7-2.4-0.6c-0.4,0-0.4,0.7,0,0.7c0.8-0.1,1.4,0.1,2.1,0.5c0-0.2,0.1-0.4,0.1-0.6
						c-1.8,0.4-3.5,0.4-5.3,0.1c0.1,0.1,0.2,0.2,0.2,0.3c0.3-0.2,0.7-0.4,1-0.5C53.9,117.3,54.2,116.7,53.9,116.5L53.9,116.5z"/>
				</g>
			</g>
		</g>
		<g>
			<g>
				<g>
					<path class="st0" d="M79.4,116.2c-0.9-0.4-2.8-0.5-3.3,0.7c-0.6,1.2,1.6,1.2,2.2,1.2c1.1,0,2.2-0.1,3.3-0.4
						c0.4-0.1,1.1-0.3,1.3-0.8c0.6-1.5-2.3-1.2-2.9-1.2c-0.4,0-0.4,0.7,0,0.7c0.3,0,0.7-0.1,1,0c0.3-0.1,0.6,0,0.7,0.3
						c0.3,0.2,0.3,0.3,0,0.3c-0.4,0.4-1.9,0.4-2.4,0.4c-0.6,0-1.3,0.1-1.8,0c-0.9-0.2-0.4-0.5,0.2-0.7c0.5-0.2,1-0.1,1.5,0.1
						C79.4,116.9,79.8,116.3,79.4,116.2L79.4,116.2z"/>
				</g>
			</g>
		</g>
		<g>
			<g>
				<g>
					<path class="st0" d="M107.8,116.9c-0.8-0.4-1.6-0.3-2.2,0.3c-0.1,0.2-0.1,0.4,0.1,0.5c1.9,1,4.1,1,5.9-0.2
						c0.2-0.1,0.2-0.4,0-0.6c-1.1-0.6-2.2-0.8-3.5-0.5c-0.4,0.1-0.2,0.7,0.2,0.6c1.1-0.2,2-0.1,3,0.5c0-0.2,0-0.4,0-0.6
						c-1.6,1-3.6,1.1-5.3,0.2c0,0.2,0.1,0.3,0.1,0.5c0.4-0.5,0.9-0.5,1.5-0.2C107.9,117.7,108.2,117.2,107.8,116.9L107.8,116.9z"/>
				</g>
			</g>
		</g>
		<g>
			<g>
				<g>
					<path class="st0" d="M71,87c-0.4-0.6-0.8-1.4-0.6-2.2c0.3-1,1.5-1.5,2.2-0.7c0.5,0.6,0.7,1.5,0.5,2.2
						C72.8,87.1,71.7,87.6,71,87c-0.2-0.2-0.7,0.2-0.4,0.5c0.8,0.7,2.1,0.6,2.7-0.3c0.8-1,0.7-2.5-0.1-3.4c-0.8-1-2.1-1-2.9-0.1
						c-1,1-0.6,2.6,0.1,3.6C70.6,87.6,71.2,87.3,71,87L71,87z"/>
				</g>
			</g>
		</g>
		<g>
			<g>
				<g>
					<path class="st0" d="M88.6,83.8c-0.5-0.4-0.5-1.1-0.2-1.6c0.4-0.4,1.2-0.5,1.6-0.1c0.5,0.4,0.7,1.1,0.5,1.7
						c-0.2,0.8-1.3,1.4-1.8,0.5c-0.2-0.4-0.8,0-0.6,0.3c0.6,1,2,0.9,2.6,0.1s0.6-2.2-0.3-3c-0.8-0.7-2.1-0.6-2.7,0.2
						c-0.6,0.8-0.4,1.9,0.4,2.5C88.6,84.7,89,84.1,88.6,83.8L88.6,83.8z"/>
				</g>
			</g>
		</g>
		<g>
			<g>
				<g>
					<path class="st0" d="M81.9,77.5c0.3-0.1,0.7-0.1,1-0.2c0.4-0.1,0.2-0.7-0.2-0.6c-0.3,0.1-0.7,0.1-1,0.2
						C81.4,77,81.5,77.6,81.9,77.5L81.9,77.5z"/>
				</g>
			</g>
		</g>
		<g>
			<g>
				<g>
					<path class="st0" d="M82.9,75.8c0.3,0.8,0.5,1.6,0.8,2.4c0.1,0.1,0.2,0.2,0.3,0.2c1.6,0.1,3-1.6,2.2-3.1
						c-0.7-1.4-2.7-1.3-3.2,0.1c-0.2,0.4,0.5,0.6,0.6,0.2c0.4-1.1,1.9-0.7,2.1,0.3C86,77,85,77.8,84,77.8c0.1,0.1,0.2,0.2,0.3,0.2
						c-0.3-0.8-0.5-1.6-0.8-2.4C83.4,75.2,82.7,75.4,82.9,75.8L82.9,75.8z"/>
				</g>
			</g>
		</g>
		<g>
			<g>
				<g>
					<path class="st0" d="M60.7,47c1.4,1.1,3.4,0.8,4.3-0.7c0.2-0.4-0.3-0.7-0.6-0.3c-0.7,1.1-2.3,1.4-3.3,0.6
						C60.8,46.3,60.3,46.7,60.7,47L60.7,47z"/>
				</g>
			</g>
		</g>
		<g>
			<g>
				<g>
					<path class="st0" d="M54.4,117.3c5.6-9.9,11.2-19.8,16.8-29.7c0.1-0.2-0.2-0.3-0.3-0.2c-5.6,9.9-11.2,19.8-16.8,29.7
						C54,117.3,54.3,117.4,54.4,117.3L54.4,117.3z"/>
				</g>
			</g>
		</g>
		<g>
			<g>
				<g>
					<path class="st0" d="M79.8,116.1c-0.8-4.7,0.1-9.6,0.6-14.3c0.2-2.3,0.5-4.7,0.7-7c0.2-2,0.6-3.9-0.1-5.9
						c-0.1-0.2-0.4-0.1-0.3,0.1c0.8,2.1,0.2,4.6,0,6.8c-0.2,2.3-0.5,4.7-0.7,7c-0.5,4.4-1.2,8.9-0.4,13.4
						C79.5,116.4,79.8,116.3,79.8,116.1L79.8,116.1z"/>
				</g>
			</g>
		</g>
		<g>
			<g>
				<g>
					<path class="st0" d="M90.4,84.9c5.2,10.9,10.9,21.5,16.9,31.9c0.1,0.2,0.4,0,0.3-0.2c-6.1-10.4-11.7-21.1-16.9-31.9
						C90.6,84.6,90.3,84.7,90.4,84.9L90.4,84.9z"/>
				</g>
			</g>
		</g>
		<g>
			<g>
				<g>
					<path class="st0" d="M81,35.2c-1.2,1.9-1.8,4.1-1.8,6.4c0,1.2,0.1,4.4,1.8,4.5c1.8,0.1,1.8-3.3,1.8-4.4c0.1-1.4,0.1-2.8,0-4.2
						c-0.1-0.8,0-1.9-0.8-2.4c-0.1-0.1-0.3-0.1-0.4,0.1c-0.1,0-0.1,0.1-0.1,0.1c-0.3,0.3,0.1,0.7,0.5,0.5c-0.3,0.2,0.2,2.5,0.3,3
						c0,0.7,0,1.5,0,2.2c-0.1,0.9-0.2,1.8-0.3,2.6c-0.1,0.3-0.1,0.9-0.2,1.1c0,0.3-0.3,0.3-0.7,0c-0.5,0.1-0.8-0.1-0.8-0.5
						c-0.5-1.2-0.4-3.1-0.2-4.4c0.2-1.5,0.8-2.9,1.6-4.2C81.8,35.2,81.2,34.9,81,35.2L81,35.2z"/>
				</g>
			</g>
		</g>
		<g>
			<g>
				<g>
					<path class="st0" d="M75.2,46.1c-2,1-3.7,2.5-4.9,4.3c-0.4,0.5-1,1.3-0.7,1.9c0.2,0.5,0.8,0.5,1.3,0.5c1.8-0.2,3.7-1.8,4.8-3.1
						c0.7-0.9,2.2-3.2,0.2-3.6c-0.4-0.1-0.6,0.5-0.2,0.6c1.4,0.3-0.5,2.5-0.7,2.8c-0.4,0.5-0.9,0.9-1.4,1.3
						c-0.5,0.4-3.2,2.1-3.2,0.8c0-0.4,1-1.4,1.2-1.6c0.4-0.4,0.7-0.8,1.2-1.2c0.9-0.8,1.9-1.5,3-2.1C75.9,46.5,75.5,45.9,75.2,46.1
						L75.2,46.1z"/>
				</g>
			</g>
		</g>
		<g>
			<g>
				<g>
					<path class="st0" d="M75.3,86.1c-0.1-0.1-0.2-0.1-0.2-0.2c-0.1,0.2-0.3,0.3-0.4,0.5c0.7,0.5,1.4,0.8,2.2,0.9
						c0.4,0.1,0.6-0.6,0.2-0.6c-0.8-0.1-1.4-0.4-2.1-0.8c-0.3-0.2-0.7,0.3-0.4,0.5c0.1,0.1,0.2,0.1,0.2,0.2
						C75.2,86.8,75.6,86.4,75.3,86.1L75.3,86.1z"/>
				</g>
			</g>
		</g>
		<g>
			<g>
				<g>
					<path class="st0" d="M82.8,88.3c2-0.3,3.8-1,5.4-2.1c0.3-0.2,0-0.8-0.3-0.6c-1.6,1.1-3.3,1.8-5.3,2
						C82.2,87.7,82.4,88.4,82.8,88.3L82.8,88.3z"/>
				</g>
			</g>
		</g>
		<g>
			<g>
				<g>
					<path class="st0" d="M86.4,79.2c0.8-0.3,1.6-0.1,2.2,0.5c0.3,0.3,0.7-0.2,0.5-0.5c-0.7-0.8-1.8-1.1-2.8-0.7
						C85.8,78.8,86,79.4,86.4,79.2L86.4,79.2z"/>
				</g>
			</g>
		</g>
		<g>
			<g>
				<g>
					<path class="st0" d="M74.4,84c3.4,3.5,8.5,2.2,12.6,0.7c0.4-0.2,0.2-0.8-0.2-0.6c-3.8,1.4-8.7,2.8-11.9-0.5
						C74.6,83.2,74.1,83.7,74.4,84L74.4,84z"/>
				</g>
			</g>
		</g>
		<g>
			<g>
				<g>
					<path class="st0" d="M73.3,81.5c-0.7-0.3-1-1-0.9-1.7c0.1-0.4-0.5-0.6-0.6-0.2c-0.2,1,0.3,2,1.2,2.5
						C73.4,82.2,73.7,81.7,73.3,81.5L73.3,81.5z"/>
				</g>
			</g>
		</g>
		<g>
			<g>
				<g>
					<path class="st0" d="M89.5,83.8c-0.4-0.2-0.3-1,0.2-0.9c0.6,0.1,0.5,0.9,0,0.9c-0.4,0-0.4,0.7,0,0.7c0.6,0,1.1-0.5,1.1-1.1
						c0.1-0.6-0.4-1-0.9-1.2c-0.5-0.1-1.1,0.2-1.3,0.7c-0.2,0.5,0.1,1.1,0.5,1.4C89.5,84.6,89.9,84,89.5,83.8L89.5,83.8z"/>
				</g>
			</g>
		</g>
		<g>
			<g>
				<g>
					<path class="st0" d="M80.8,89.9c-0.9,0.7-2.5,0.4-2.5-0.9c0-0.5,0.3-0.9,0.8-1c0.5-0.1,1,0.1,1.2,0.6c0.2,0.4,0.8,0.2,0.6-0.2
						c-0.6-1.6-3-1.3-3.2,0.4c-0.1,0.8,0.3,1.6,1.1,2c0.9,0.4,1.8,0.2,2.5-0.4C81.6,90.1,81.1,89.7,80.8,89.9L80.8,89.9z"/>
				</g>
			</g>
		</g>
		<g>
			<g>
				<g>
					<path class="st0" d="M94.2,28.1c-3.4-0.7-8.5,8.3-5.2,9.1c1,0.2,2.1-0.7,2.8-1.3c1.1-0.9,1.9-2.1,2.6-3.4
						c0.5-0.9,1.4-2.2,1.3-3.4c-0.1-0.8-0.7-1.3-1.5-1.3c-0.2,0-0.2,0.3,0,0.3c1,0.5,1.4,1.2,1.1,1.9c-0.1,0.3-0.2,0.6-0.4,0.9
						c-0.1,0.3-0.3,0.6-0.4,0.9c-0.3,0.6-0.7,1.3-1.1,1.9c-0.8,1.2-2.6,3.4-4.2,2.9c-0.7-0.2-0.8-0.5-0.8-1.2c0-0.4,0.1-0.7,0.2-1
						c0.2-0.8,0.6-1.6,1-2.4c0.8-1.5,2.6-4,4.5-3.6C94.3,28.5,94.4,28.1,94.2,28.1L94.2,28.1z"/>
				</g>
			</g>
		</g>
		<g>
			<g>
				<g>
					<path class="st0" d="M96.5,26.9c-0.5,0.3-0.6,0.9-0.4,1.4c0.2,0.5,0.8,0.7,1.4,0.5c0.5-0.2,0.8-0.8,0.6-1.4
						c-0.2-0.5-0.9-0.9-1.4-0.7c-0.2,0.1-0.1,0.4,0.1,0.3c0.4-0.2,0.9,0.1,1,0.4c0.2,0.4-0.1,0.8-0.5,0.9c-0.9,0.3-1.4-0.9-0.6-1.4
						C96.9,27,96.7,26.7,96.5,26.9L96.5,26.9z"/>
				</g>
			</g>
		</g>
		<g>
			<g>
				<g>
					<path class="st0" d="M63.1,55.7c-1.3,1.9-1.3,4.3-0.1,6.2c1.2,2,3.5,3.2,5.7,3.5c0.2,0,0.3-0.3,0.1-0.3c-2-0.3-4-1.2-5.2-2.9
						c-1.4-1.9-1.5-4.4-0.2-6.4C63.5,55.7,63.2,55.5,63.1,55.7L63.1,55.7z"/>
				</g>
			</g>
		</g>
		<g>
			<g>
				<g>
					<path class="st0" d="M78.3,78.6c-0.2-0.2-0.3-0.3-0.4-0.5c0,0.1,0,0.3,0.1,0.4c0.7-1.5,2.6-1.4,3.8-0.5
						c0.9,0.6,0.1,1.4-0.7,1.7c-0.9,0.4-2.3,0.4-2.5-0.9c-0.1-0.4-0.7-0.4-0.7,0c0.1,1,1,1.8,2.1,1.8c0.9,0,3-0.8,3-1.9
						c0-1-1.8-1.8-2.6-2c-1.2-0.2-2.5,0.3-3,1.5c-0.1,0.1-0.1,0.3,0.1,0.4c0.2,0.2,0.3,0.3,0.4,0.5C78.1,79.4,78.6,79,78.3,78.6
						L78.3,78.6z"/>
				</g>
			</g>
		</g>
		<g>
			<g>
				<g>
					<path class="st0" d="M78.2,79.4c1.7,0.3,3.3-0.2,4.6-1.3c0.3-0.3-0.1-0.7-0.5-0.5c-1.1,0.9-2.5,1.3-3.9,1.1
						C77.9,78.7,77.8,79.3,78.2,79.4L78.2,79.4z"/>
				</g>
			</g>
		</g>
		<g>
			<g>
				<g>
					<path class="st0" d="M79.7,115.3c1-4.9,2-9.8,3-14.6c0.8-4.1,2.5-8.8,1.3-12.9c-0.1-0.2-0.4-0.1-0.3,0.1
						c0.7,2.4,0.3,4.8-0.1,7.3c-0.4,2.2-0.9,4.3-1.3,6.5c-0.9,4.5-1.9,9.1-2.8,13.6C79.3,115.5,79.7,115.5,79.7,115.3L79.7,115.3z"
						/>
				</g>
			</g>
		</g>
		<g>
			<g>
				<g>
					<path class="st0" d="M55.5,116.8c6.7-9.9,13.2-19.9,19.6-30.1c0.1-0.2-0.2-0.3-0.3-0.2c-6.4,10.1-12.9,20.1-19.6,30.1
						C55.1,116.8,55.4,117,55.5,116.8L55.5,116.8z"/>
				</g>
			</g>
		</g>
		<g>
			<g>
				<g>
					<path class="st0" d="M60.3,43.9c0.7-0.6,2.7-2.1,3.2-0.4c0.1,0.4,0.8,0.2,0.6-0.2c-0.3-0.8-1-1.2-1.8-1.2c-1,0-1.9,0.7-2.6,1.3
						C59.5,43.7,60,44.1,60.3,43.9L60.3,43.9z"/>
				</g>
			</g>
		</g>
		<g>
			<g>
				<g>
					<path class="st0" d="M81.4,109.2c0.4,0.2,0.7,0.1,1.2,0.1c1.3-0.1,2.4,0.1,3.6,0.5c1.1,0.4,0.7,0.3,1.8,0
						c1.1-0.4,2.2-0.3,3.3,0.1c0.2,0.1,0.3-0.2,0.1-0.3c-0.7-0.3-1.4-0.4-2.2-0.4c-0.7,0.1-1.4,0.4-2.1,0.4c-0.9,0-1.8-0.5-2.7-0.7
						c-0.7-0.1-2.2,0.2-2.8-0.1C81.4,108.8,81.2,109.1,81.4,109.2L81.4,109.2z"/>
				</g>
			</g>
		</g>
		<g>
			<g>
				<g>
					<path class="st0" d="M93.9,109.4c2.1-0.3,4.1-0.5,6.2-0.4c0.2,0,0.2-0.3,0-0.3c-2.1-0.1-4.2,0.1-6.3,0.5
						C93.6,109.2,93.7,109.5,93.9,109.4L93.9,109.4z"/>
				</g>
			</g>
		</g>
		<g>
			<g>
				<g>
					<path class="st0" d="M104.5,108.2c1.9-0.7,3.9-0.1,5.8-0.1c1.9,0,3.7-0.3,5.4-0.8c0.2-0.1,0.1-0.4-0.1-0.3
						c-2.1,0.6-4.2,0.9-6.3,0.8c-1.7-0.1-3.3-0.4-5,0.1C104.2,108,104.3,108.3,104.5,108.2L104.5,108.2z"/>
				</g>
			</g>
		</g>
		<g>
			<g>
				<g>
					<path class="st0" d="M21.6,114.3c3.6-0.7,7.2-1,10.9-1.2c0.2,0,0.2-0.3,0-0.3c-3.7,0.1-7.3,0.5-11,1.2
						C21.3,114,21.4,114.4,21.6,114.3L21.6,114.3z"/>
				</g>
			</g>
		</g>
		<g>
			<g>
				<g>
					<path class="st0" d="M36.6,113.4c2,0.2,4-0.2,5.9-0.9c0.2-0.1,0.1-0.4-0.1-0.3c-1.9,0.8-3.8,1.1-5.8,0.9
						C36.4,113,36.4,113.4,36.6,113.4L36.6,113.4z"/>
				</g>
			</g>
		</g>
		<g>
			<g>
				<g>
					<path class="st0" d="M30.3,121.1c0.3-0.1,0.7-0.2,1-0.2c0.1,0,0.2,0,0.3,0c0.2-0.1,0.2,0,0.2,0.2c0.1,0.2-0.1,0.3-0.3,0.4
						c-0.3,0.2-1,0.4-1.2-0.1c-0.1-0.2-0.4-0.1-0.3,0.1c0.2,0.8,1.4,0.5,1.9,0.1c0.3-0.2,0.4-0.7,0.1-0.9c-0.2-0.1-0.6-0.1-0.8-0.1
						c-0.3,0-0.7,0.1-1,0.2C30,120.8,30.1,121.1,30.3,121.1L30.3,121.1z"/>
				</g>
			</g>
		</g>
		<g>
			<g>
				<g>
					<path class="st0" d="M63.4,121.9c1-0.3,2.1-0.6,3.1-0.8c1.1-0.2,2.9-0.5,3.9,0.1c0.8,0.4,1.5,1.4,0.3,1.8
						c-0.5,0.2-1,0.2-1.4,0.3c-1.3,0.3-2.6,0.4-3.9,0.6c-1.1,0.1-2.1,0.2-3.2,0.2c-0.6,0-1.2,0-1.7,0c-0.3,0-1.2,0.1-1.5-0.1
						c-1.8-1,0.4-1.4,0.8-1.5c0.7-0.2,1.4-0.3,2.1-0.3c1.1-0.1,2.3-0.1,3.4,0.1c0.2,0,0.2-0.3,0-0.3c-1.9-0.2-3.7-0.1-5.6,0.3
						c-0.5,0.1-2.3,0.4-2,1.4c0.2,0.9,1.7,0.8,2.3,0.8c2.1,0.1,4.1,0,6.2-0.3c0.9-0.1,7.2-0.5,5.8-2.5c-0.6-0.9-2.3-1-3.2-1
						c-1.8-0.1-3.7,0.5-5.4,1C63.1,121.6,63.2,121.9,63.4,121.9L63.4,121.9z"/>
				</g>
			</g>
		</g>
		<g>
			<g>
				<g>
					<path class="st0" d="M52.7,123.8c-0.6-0.2-1.7-0.2-2.1,0.4c-0.5,0.7,0.9,0.8,1.2,0.9c0.5,0.1,1.5,0.2,1.6-0.6
						c0.1-0.5-0.5-0.8-0.9-0.5c-0.2,0.1,0.1,0.4,0.2,0.2c0,0.2,0,0.4,0,0.6c-0.1,0-0.2,0-0.3,0c-0.2,0-0.4-0.1-0.6-0.1
						c-0.2,0-0.7-0.1-0.8-0.2c0-0.1,0.1-0.2,0.1-0.4c0.1,0,0.2-0.1,0.3-0.1c0.1,0,0.2-0.1,0.3-0.1c0.4-0.1,0.7,0,1,0.1
						C52.8,124.2,52.9,123.9,52.7,123.8L52.7,123.8z"/>
				</g>
			</g>
		</g>
		<g>
			<g>
				<g>
					<path class="st0" d="M69,127.3c-0.3,0.2-0.7,0.4-1,0.6c-0.1,0.1-0.1,0.2,0,0.3c0.7,0.7,1.9,0.5,2.4-0.3c0.1-0.1,0-0.2-0.1-0.2
						c-0.3-0.2-0.7-0.3-1.1-0.2c-0.2,0.1-0.1,0.4,0.1,0.3c0.3-0.1,0.6,0,0.8,0.1c0-0.1,0-0.2-0.1-0.2c-0.4,0.6-1.4,0.7-1.9,0.2
						c0,0.1,0,0.2,0,0.3c0.3-0.2,0.7-0.4,1-0.6C69.3,127.5,69.2,127.2,69,127.3L69,127.3z"/>
				</g>
			</g>
		</g>
		<g>
			<g>
				<g>
					<path class="st0" d="M84.9,128.8c-0.3,0.1-0.7,0.1-1,0.2c-0.1,0-0.2,0.2-0.1,0.3c0.5,0.6,1.5,0.4,1.9-0.3c0-0.1,0-0.2-0.1-0.2
						c-0.2-0.1-0.3-0.1-0.5-0.2c-0.2-0.1-0.4,0.2-0.2,0.3c0.2,0.1,0.3,0.1,0.5,0.2c0-0.1,0-0.2-0.1-0.2c-0.2,0.5-1,0.6-1.3,0.2
						c0,0.1-0.1,0.2-0.1,0.3c0.3-0.1,0.7-0.1,1-0.2C85.3,129,85.1,128.7,84.9,128.8L84.9,128.8z"/>
				</g>
			</g>
		</g>
		<g>
			<g>
				<g>
					<path class="st0" d="M96.1,116.8c-1-0.3-2.1,0-2.8,0.8c-0.5,0.7-0.6,1.4,0.4,1.6c0.8,0.2,1.6,0.1,2.4-0.1
						c0.5-0.1,1.3-0.1,1.6-0.5c0.8-0.9-1.5-1.6-1.9-1.8c-0.2-0.1-0.4,0.2-0.2,0.3c0.4,0.2,2.2,0.7,1.5,1.5c-0.2,0.2-0.8,0.2-1,0.2
						c-0.4,0.1-0.8,0.1-1.2,0.1c-0.2,0-0.7,0.1-0.9,0c-1.1-0.5-0.3-1.2,0.1-1.5c0.6-0.4,1.3-0.5,2-0.3
						C96.2,117.2,96.3,116.9,96.1,116.8L96.1,116.8z"/>
				</g>
			</g>
		</g>
		<g>
			<g>
				<g>
					<path class="st0" d="M93.2,118.7c-3.2,0.2-6.3,1.1-9.2,2.5c-0.2,0.1,0,0.4,0.2,0.3c2.8-1.4,5.9-2.2,9-2.5
						C93.4,119.1,93.4,118.7,93.2,118.7L93.2,118.7z"/>
				</g>
			</g>
		</g>
		<g>
			<g>
				<g>
					<path class="st0" d="M97.6,118.6c0.5,0.1,1.1,0.2,1.6,0.3c0.2,0.1,0.3-0.3,0.1-0.3c-0.5-0.1-1.1-0.2-1.6-0.3
						C97.5,118.2,97.4,118.5,97.6,118.6L97.6,118.6z"/>
				</g>
			</g>
		</g>
		<g>
			<g>
				<g>
					<path class="st0" d="M57.9,124.2c-0.5,0.1-1.1,0.3-1.6,0.4c-0.2,0.1-0.1,0.4,0.1,0.3c0.5-0.1,1.1-0.3,1.6-0.4
						C58.1,124.5,58.1,124.2,57.9,124.2L57.9,124.2z"/>
				</g>
			</g>
		</g>
		<g>
			<g>
				<g>
					<path class="st0" d="M72.3,124.7c3.2,0.3,6.4,0.8,9.5,1.5c0.2,0.1,0.3-0.3,0.1-0.3c-3.2-0.8-6.4-1.3-9.6-1.5
						C72.1,124.4,72.1,124.7,72.3,124.7L72.3,124.7z"/>
				</g>
			</g>
		</g>
		<g>
			<g>
				<g>
					<path class="st0" d="M111.1,117.9c1.4-0.1,2.8-0.1,4.3-0.2c0.2,0,0.2-0.3,0-0.3c-1.4,0.1-2.8,0.1-4.3,0.2
						C110.9,117.6,110.9,117.9,111.1,117.9L111.1,117.9z"/>
				</g>
			</g>
		</g>
		<g>
			<g>
				<g>
					<path class="st0" d="M72.7,118c1.4,0.3,2.8,0.2,4.2-0.3c0.2-0.1,0.1-0.4-0.1-0.3c-1.3,0.4-2.6,0.5-4,0.3
						C72.5,117.6,72.5,117.9,72.7,118L72.7,118z"/>
				</g>
			</g>
		</g>
		<g>
			<g>
				<g>
					<path class="st0" d="M82.5,117.2c0.1,0.2,0.5,0.2,0.7,0.1c0.6,0,1.2-0.1,1.8-0.3c0.2-0.1,0.1-0.4-0.1-0.3
						c-0.4,0.1-0.9,0.2-1.3,0.2c-0.1,0-0.7,0.1-0.7,0.1C82.7,116.9,82.4,117,82.5,117.2L82.5,117.2z"/>
				</g>
			</g>
		</g>
		<g>
			<g>
				<g>
					<path class="st0" d="M49,118.5c1.3-0.1,2.6-0.3,3.8-0.4c0.2,0,0.2-0.3,0-0.3c-1.3,0.1-2.6,0.3-3.8,0.4
						C48.8,118.2,48.8,118.5,49,118.5L49,118.5z"/>
				</g>
			</g>
		</g>
		<g>
			<g>
				<g>
					<path class="st0" d="M119.1,111.4c-0.7-0.3-1.5-0.2-2.1,0.4c-0.1,0.1-0.1,0.2,0,0.2c0.7,0.7,1.9,0.7,2.6,0
						c0.1-0.1,0.1-0.1,0-0.2c-0.1-0.3-0.4-0.4-0.7-0.3c-0.2,0-0.1,0.4,0.1,0.3c0.1,0.1,0.2,0.1,0.3,0.2c0-0.1,0-0.1,0-0.2
						c-0.6,0.6-1.5,0.6-2.1,0c0,0.1,0,0.2,0,0.2c0.4-0.5,1.1-0.6,1.7-0.3C119.2,111.8,119.3,111.5,119.1,111.4L119.1,111.4z"/>
				</g>
			</g>
		</g>
		<g>
			<path class="st0" d="M44.5,42.4c-2.5,0-4.6-2-4.6-4.6c0-2.5,2-4.6,4.6-4.6c2.5,0,4.6,2,4.6,4.6C49.1,40.3,47,42.4,44.5,42.4z
				 M44.5,33.6c-2.3,0-4.2,1.9-4.2,4.2c0,2.3,1.9,4.2,4.2,4.2c2.3,0,4.2-1.9,4.2-4.2C48.7,35.5,46.8,33.6,44.5,33.6z M44.5,40.1
				c-1,0-1.5-0.8-1.5-1.5s0.5-1.5,1.5-1.5c1,0,1.5,0.8,1.5,1.5c0,0.4-0.1,0.8-0.4,1C45.3,39.9,45,40.1,44.5,40.1z M44.5,37.5
				c-0.7,0-1.1,0.6-1.1,1.1s0.3,1.1,1.1,1.1s1.1-0.6,1.1-1.1S45.3,37.5,44.5,37.5z"/>
		</g>
		<g>
			<path class="st0" d="M111.1,71.1c-4.9,0-8.9-4-8.9-8.9c0-4.9,4-8.9,8.9-8.9c4.9,0,8.9,4,8.9,8.9C120,67.1,116,71.1,111.1,71.1z
				 M111.1,53.8c-4.7,0-8.5,3.8-8.5,8.5s3.8,8.5,8.5,8.5c4.7,0,8.5-3.8,8.5-8.5S115.8,53.8,111.1,53.8z M110.7,65.8
				c-1,0-1.5-0.8-1.5-1.5c0-0.4,0.1-0.8,0.4-1c0.3-0.3,0.6-0.5,1.1-0.5c1,0,1.5,0.8,1.5,1.5c0,0.4-0.1,0.8-0.4,1
				C111.5,65.7,111.1,65.8,110.7,65.8z M110.7,63.2c-0.7,0-1.1,0.6-1.1,1.1s0.3,1.1,1.1,1.1c0.7,0,1.1-0.6,1.1-1.1
				S111.4,63.2,110.7,63.2z M113.9,63.6c-1,0-1.5-0.8-1.5-1.5c0-0.4,0.1-0.8,0.4-1c0.3-0.3,0.6-0.5,1.1-0.5c1,0,1.5,0.8,1.5,1.5
				S114.9,63.6,113.9,63.6z M113.9,61c-0.7,0-1.1,0.6-1.1,1.1s0.3,1.1,1.1,1.1c0.7,0,1.1-0.6,1.1-1.1S114.7,61,113.9,61z
				 M109.5,60.8c-0.5,0-0.9-0.2-1.2-0.5c-0.3-0.3-0.5-0.7-0.5-1.1c0-0.4,0.2-0.9,0.5-1.1c0.4-0.3,0.7-0.4,1.2-0.5
				c0.4,0,0.8,0.1,1.1,0.4c0.3,0.2,0.4,0.6,0.4,1l0,0.2c0,0.3-0.2,0.8-0.5,1.1C110.3,60.6,109.9,60.8,109.5,60.8z M109.6,58
				C109.5,58,109.5,58,109.6,58c-0.4,0-0.7,0.1-1,0.4c-0.2,0.2-0.3,0.5-0.3,0.8c0,0.3,0.1,0.6,0.4,0.9c0.2,0.2,0.5,0.3,0.9,0.4
				c0.2,0,0.6-0.1,0.8-0.3c0.2-0.2,0.4-0.5,0.3-0.8l0-0.2c0-0.3-0.1-0.6-0.3-0.8C110.1,58.1,109.8,58,109.6,58z"/>
		</g>
		<g>
			<path class="st0" d="M67.3,33.7c-6.1,0-11.1-5-11.1-11.1c0-6.1,5-11.1,11.1-11.1c6.1,0,11.1,5,11.1,11.1
				C78.5,28.7,73.5,33.7,67.3,33.7z M67.3,11.8c-5.9,0-10.8,4.8-10.8,10.8c0,5.9,4.8,10.8,10.8,10.8s10.8-4.8,10.8-10.8
				C78.1,16.6,73.2,11.8,67.3,11.8z M60.7,24.3c-0.3,0-0.7-0.2-1-0.5c-0.3-0.3-0.4-0.7-0.4-1c0-0.5,0.2-0.9,0.5-1.2
				c0.3-0.3,0.7-0.5,1.1-0.5c0.4,0,0.9,0.2,1.1,0.5c0.3,0.4,0.4,0.7,0.5,1.2c0,0.4-0.2,0.7-0.4,1.1c-0.2,0.3-0.6,0.4-1,0.5
				L60.7,24.3C60.7,24.3,60.7,24.3,60.7,24.3z M60.9,21.5c-0.3,0-0.6,0.1-0.9,0.4c-0.2,0.2-0.3,0.5-0.4,0.9c0,0.2,0.1,0.6,0.3,0.8
				c0.2,0.2,0.5,0.4,0.8,0.3l0.2,0c0.3,0,0.6-0.1,0.8-0.3c0.2-0.2,0.3-0.4,0.3-0.8c0-0.4-0.1-0.6-0.4-0.9
				C61.5,21.6,61.2,21.5,60.9,21.5z M72.3,19.2c-0.4,0-0.8-0.2-1.1-0.4c-0.3-0.2-0.4-0.6-0.4-1c0-0.4,0.2-0.8,0.5-1.1
				c0,0,0.1-0.1,0.1-0.1c0,0,0,0,0,0c0,0,0-0.1,0.1-0.1c0.2-0.3,0.6-0.4,1-0.4c0.4,0,0.8,0.2,1.1,0.5c0.3,0.3,0.4,0.7,0.4,1
				c0,0.4-0.1,0.6-0.2,0.9c-0.1,0.2-0.3,0.4-0.6,0.6C72.9,19.1,72.6,19.2,72.3,19.2z M72.6,16.3C72.6,16.3,72.6,16.3,72.6,16.3
				c-0.4,0-0.7,0.1-0.8,0.3c0,0,0,0,0,0c0,0,0,0.1-0.1,0.1l-0.1,0c0,0-0.1,0.1-0.1,0.1c-0.2,0.2-0.4,0.5-0.3,0.8
				c0,0.4,0.1,0.6,0.3,0.8c0.2,0.2,0.5,0.3,0.8,0.3c0.2,0,0.5-0.1,0.7-0.2c0.2-0.1,0.3-0.3,0.5-0.5l0,0c0.1-0.2,0.2-0.4,0.2-0.7
				c0-0.3-0.1-0.6-0.3-0.8C73.1,16.5,72.8,16.3,72.6,16.3z"/>
		</g>
		<g>
			<g>
				<g>
					<path class="st0" d="M45.3,40.3c0.5,1,1.4,0,1.5-0.7c-0.1,0-0.1,0.1-0.2,0.1c0.4,0.1,0.7,0.3,1.1,0.4c0.2,0.1,0.3-0.2,0.1-0.3
						c-0.4-0.1-0.7-0.3-1.1-0.4c-0.1,0-0.2,0-0.2,0.1c-0.1,0.4-0.6,1.4-0.9,0.7C45.5,40,45.2,40.1,45.3,40.3L45.3,40.3z"/>
				</g>
			</g>
		</g>
		<g>
			<g>
				<g>
					<path class="st0" d="M41.3,40.8c0.8,0.5,1.6-0.4,2.1-1c0.1-0.2-0.2-0.3-0.3-0.2c-0.3,0.5-1,1.3-1.6,0.9
						C41.3,40.4,41.1,40.7,41.3,40.8L41.3,40.8z"/>
				</g>
			</g>
		</g>
		<g>
			<g>
				<g>
					<path class="st0" d="M46,37.4c0.7-0.2,1.5-0.4,2.2-0.7c0.2-0.1,0.1-0.4-0.1-0.3c-0.7,0.2-1.5,0.4-2.2,0.7
						C45.8,37.2,45.8,37.5,46,37.4L46,37.4z"/>
				</g>
			</g>
		</g>
		<g>
			<g>
				<g>
					<path class="st0" d="M40.4,38.8c1.2,0.2,1.9-0.8,2.7-1.4c0.2-0.1,0-0.4-0.2-0.3c-0.7,0.5-1.5,1.6-2.5,1.4
						C40.3,38.4,40.2,38.8,40.4,38.8L40.4,38.8z"/>
				</g>
			</g>
		</g>
		<g>
			<g>
				<g>
					<path class="st0" d="M40.6,37.4c0.7-0.3,1.4-0.7,2.1-1.1c0.3-0.2,1.1-0.5,1.2-0.9c0.1-0.9-2.2-0.5-2.7-0.4
						c-0.2,0.1-0.1,0.4,0.1,0.3c0.5-0.1,1-0.2,1.5-0.2c0.2,0,0.7-0.1,0.6,0.3c0,0.1-0.5,0.3-0.6,0.3c-0.8,0.5-1.6,0.9-2.4,1.3
						C40.3,37.3,40.4,37.5,40.6,37.4L40.6,37.4z"/>
				</g>
			</g>
		</g>
		<g>
			<g>
				<g>
					<path class="st0" d="M62.3,24.2c0.8,2.4,2,5.1,4.6,6c0.9,0.3,2.4,0.6,2.9-0.5c0.5-1.1-0.2-1.9-0.9-2.6
						c-0.9-0.8-2.6-1.9-2.8-3.1c-0.1-0.5,0.3-1.1,0.8-1.4c0.7-0.3,1.3-0.1,1.9,0.2c0.5,0.2,1.1,0.5,1.7,0.3c0.9-0.3,0.7-1.3,0.4-2
						c-0.5-1.1-1.6-1.8-2.7-2.2c-0.7-0.3-1.5-0.6-2.2-0.6c-0.8,0-1.2,0-1.9-0.6c-0.2-0.2-0.5-0.4-0.7-0.6c-0.6-0.4-1-0.5-1.3-1.3
						c-0.3-0.7,0-0.8,0-1.4c0-0.6-0.3-0.8-0.8-1.1c-0.2-0.1-0.3,0.2-0.2,0.3c1.2,0.8-0.1,1.7,0.4,2.6c0.3,0.5,1.1,0.8,1.6,1.2
						c0.6,0.4,1,1.2,1.7,1.4c0.4,0.1,0.8-0.1,1.2-0.1c0.5,0,1,0.2,1.5,0.3c0.9,0.3,1.8,0.7,2.4,1.4c0.3,0.3,0.9,0.9,0.9,1.5
						c0,1.3-0.9,1-1.5,0.8c-1.2-0.4-2.2-1-3.2,0.3c-1.3,1.8,2,3.7,2.9,4.7c1.2,1.2,0.4,2.8-1.4,2.5c-0.9-0.2-1.8-0.7-2.4-1.3
						c-1.3-1.2-2-3-2.6-4.6C62.6,23.9,62.3,24,62.3,24.2L62.3,24.2z"/>
				</g>
			</g>
		</g>
		<g>
			<g>
				<g>
					<path class="st0" d="M57.2,26.5c0.7,0.5,1.8,0.6,2.5,0c0.6-0.5,0.5-1.4,0.3-2.1c-0.1-0.2-0.4-0.1-0.3,0.1
						c0.1,0.6,0.3,1.3-0.2,1.8c-0.6,0.5-1.5,0.3-2.1-0.1C57.2,26.2,57,26.4,57.2,26.5L57.2,26.5z"/>
				</g>
			</g>
		</g>
		<g>
			<g>
				<g>
					<path class="st0" d="M73.8,19c1.3,1.4,0.7,3.1,1.6,4.6c0.5,0.8,1.3,1.3,2.2,0.8c0.2-0.1,0-0.4-0.2-0.3
						c-1.6,1.1-2.1-1.8-2.2-2.7c-0.2-1-0.4-1.8-1.1-2.6C73.9,18.6,73.7,18.9,73.8,19L73.8,19z"/>
				</g>
			</g>
		</g>
		<g>
			<g>
				<g>
					<path class="st0" d="M69.2,12c-1.2,0.3-3.4,1.4-2.9,3c0.4,1.6,2.9,1.9,4.2,2.3c0.2,0.1,0.3-0.3,0.1-0.3
						c-1.2-0.4-2.7-0.5-3.6-1.5c-1.5-1.5,1.1-2.9,2.3-3.2C69.5,12.2,69.4,11.9,69.2,12L69.2,12z"/>
				</g>
			</g>
		</g>
		<g>
			<g>
				<g>
					<path class="st0" d="M71.5,32.3c-0.2-1.9,0.4-4.1,2.7-3.9c0.4,0,0.9,0.2,1.3,0c0.2-0.1,1-0.8,1.1-0.7c0.1,0.2,0.4,0,0.3-0.2
						c-0.2-0.3-0.5-0.3-0.8-0.2c-0.1,0-0.1,0.2-0.2,0.2C75.3,27.9,75,28,74.3,28c-0.3,0-0.7-0.1-1,0.1c-1.9,0.5-2.3,2.6-2.1,4.2
						C71.2,32.5,71.5,32.5,71.5,32.3L71.5,32.3z"/>
				</g>
			</g>
		</g>
		<g>
			<g>
				<g>
					<path class="st0" d="M115,63.6c-0.5,1.2-1.4,2.3-2.6,2.8c-1.1,0.5-2.7,0.5-3.5-0.6c-1.5-2.2,1.3-5,3.5-4.5
						c0.2,0.1,0.3-0.3,0.1-0.3c-2.6-0.6-5.5,2.5-3.9,5c0.7,1.1,2.2,1.3,3.3,0.9c1.6-0.4,2.8-1.7,3.4-3.2
						C115.4,63.5,115.1,63.5,115,63.6L115,63.6z"/>
				</g>
			</g>
		</g>
		<g>
			<g>
				<g>
					<path class="st0" d="M111.2,58.6c1.6-0.2,3.2,0.4,3.8,2c0.1,0.2,0.4,0.1,0.3-0.1c-0.7-1.7-2.4-2.4-4.1-2.2
						C111,58.3,111,58.6,111.2,58.6L111.2,58.6z"/>
				</g>
			</g>
		</g>
		<g>
			<g>
				<g>
					<path class="st0" d="M104.2,67.1c-1.3-3.7,0.3-8.1,3.8-10c3.7-2,9.2-1,9.5,3.9c0.2,3.9-2.7,8.2-7,7.6c-4.3-0.5-5.1-5.1-2.6-8.1
						c0.1-0.2-0.1-0.4-0.2-0.2c-1.7,2-2.4,5.2-0.4,7.2c2.5,2.5,6.6,1.6,8.6-0.9c1.9-2.3,2.7-6.2,0.8-8.8c-2.1-2.8-6.3-2.6-9.1-1
						c-3.5,2-5.1,6.5-3.8,10.3C103.9,67.4,104.2,67.3,104.2,67.1L104.2,67.1z"/>
				</g>
			</g>
		</g>
		<g>
			<g>
				<g>
					<path class="st0" d="M80.3,88.7c0,0.2-0.9,0.4-1,0.4c-0.4,0-0.7-0.1-0.9-0.4c-0.3-0.3-0.7,0.2-0.5,0.5c0.4,0.5,1.1,0.6,1.7,0.5
						c0.5-0.1,1.4-0.4,1.4-1.1C81,88.3,80.3,88.3,80.3,88.7L80.3,88.7z"/>
				</g>
			</g>
		</g>
		<g>
			<g>
				<g>
					<path class="st0" d="M69.9,85.5c0.6,1.5,2.5,1.9,3.5,0.7c0.3-0.3-0.2-0.8-0.5-0.5c-0.7,0.9-2,0.7-2.5-0.4
						C70.4,84.9,69.8,85.1,69.9,85.5L69.9,85.5z"/>
				</g>
			</g>
		</g>
		<g>
			<g>
				<g>
					<path class="st0" d="M82.7,78.3c0.3-0.1,0.7-0.1,1,0.1c0.4,0.2,0.7-0.3,0.3-0.6c-0.4-0.3-1-0.3-1.5-0.1
						C82.2,77.8,82.4,78.4,82.7,78.3L82.7,78.3z"/>
				</g>
			</g>
		</g>
		<g>
			<g>
				<g>
					<path class="st0" d="M85,79.7c0.5-0.2,1-0.3,1.5-0.5c0.4-0.1,0.2-0.8-0.2-0.6c-0.5,0.2-1,0.3-1.5,0.5
						C84.5,79.2,84.6,79.8,85,79.7L85,79.7z"/>
				</g>
			</g>
		</g>
	</g>
</g>
</svg>
