<?xml version="1.0" encoding="utf-8"?>
<!-- Generator: Adobe Illustrator 24.0.1, SVG Export Plug-In . SVG Version: 6.00 Build 0)  -->
<svg version="1.1" id="Layer_1" xmlns="http://www.w3.org/2000/svg" xmlns:xlink="http://www.w3.org/1999/xlink" x="0px" y="0px"
	 viewBox="0 0 141.7 141.7" style="enable-background:new 0 0 141.7 141.7;" xml:space="preserve">
<style type="text/css">
	.st0{fill:#070707;}
</style>
<g id="Layer_1_1_">
</g>
<g id="Layer_1_2_">
</g>
<g id="Layer_1_3_">
</g>
<g id="Layer_1_4_">
</g>
<g id="Layer_1_5_">
</g>
<g id="Layer_3">
</g>
<g id="Layer_3_1_">
</g>
<g id="Layer_1_6_">
</g>
<g id="Layer_1_7_">
</g>
<g id="Layer_1_8_">
</g>
<g id="Layer_1_9_">
</g>
<g id="Layer_1_10_">
</g>
<g id="Layer_1_11_">
</g>
<g id="Layer_1_12_">
</g>
<g id="Layer_1_13_">
</g>
<g id="Layer_1_14_">
</g>
<g id="Layer_1_15_">
</g>
<g id="Layer_2_1_">
	<g>
		<g>
			<g>
				<g>
					<path class="st0" d="M51.2,42.8c-5.3,0.7-10.8,1.9-14.9,5.3c-4.4,3.7-6.7,9.5-7.5,15.1c-0.9,6.9,0.2,13.8,0.3,20.7
						c0.2,7.3-0.4,14.6-0.1,21.8c0.3,6.1,1.6,12.4,6.2,16.7c0.4,0.4,0.9-0.2,0.6-0.6c-4.2-4-5.6-9.5-6-15.1c-0.4-6.4,0-12.9,0-19.3
						c0.1-12-3.6-26.1,4.6-36.4c4.1-5.1,10.5-6.7,16.7-7.5C51.7,43.6,51.7,42.8,51.2,42.8L51.2,42.8z"/>
				</g>
			</g>
		</g>
		<g>
			<g>
				<g>
					<path class="st0" d="M65.7,43.1c-1.5-0.2-3-0.4-4.4-0.5c-0.5,0-0.5,0.8,0,0.8c1.4,0.1,2.8,0.3,4.3,0.5
						C66,44,66.2,43.2,65.7,43.1L65.7,43.1z"/>
				</g>
			</g>
		</g>
		<g>
			<g>
				<g>
					<path class="st0" d="M40.5,125.9c4.5,2.7,10.3,2.8,15.4,2.3c2.6-0.2,5.2-0.6,7.7-1c2.7-0.5,5.7-0.7,8.1-2.2
						c0.5-0.3,0-1-0.4-0.7c-2.3,1.4-5.3,1.7-7.9,2.1c-2.5,0.4-5,0.8-7.5,1c-5,0.4-10.6,0.5-15-2.2C40.4,124.9,40,125.6,40.5,125.9
						L40.5,125.9z"/>
				</g>
			</g>
		</g>
		<g>
			<g>
				<g>
					<path class="st0" d="M46.6,44.5c0.5,0,0.5-0.8,0-0.8C46,43.6,46,44.5,46.6,44.5L46.6,44.5z"/>
				</g>
			</g>
		</g>
		<g>
			<g>
				<g>
					<path class="st0" d="M30.1,58.7c-4-0.4-6.3-4.6-3.7-7.9c1.8-2.3,6.7-3.9,8.9-1.3c0.4,0.4,0.9-0.2,0.6-0.6
						c-2.8-3.1-8.6-1.1-10.6,2c-2.5,3.9,0.5,8.3,4.8,8.7C30.6,59.6,30.6,58.8,30.1,58.7L30.1,58.7z"/>
				</g>
			</g>
		</g>
		<g>
			<g>
				<g>
					<path class="st0" d="M51.7,63.5c0.1-0.4,0.1-0.5-0.2-0.3c-0.1,0-0.1,0-0.2,0.1c-0.2,0-0.3,0.1-0.5,0.2
						c-0.5,0.3-1.1,0.8-1.5,1.2c-0.6,0.6-1.3,1.5-1.2,2.5c0.2,1.1,1.5,1.8,2.5,1.9c1.8,0.3,3.5-0.9,5.3-0.9c1.9,0,5.5,2.2,6-1.1
						c0.4-2.4-2.7-3.7-4.5-4.4c-0.3-0.1-0.4,0.3-0.1,0.4c1.6,0.6,4.6,1.9,4.2,4.1c-0.5,2.7-3.9,0.7-5.6,0.7c-2.1,0-5,2-6.8,0.2
						c-1.9-1.8,1.2-4,2.8-4.5c0.2-0.1,0.2-0.2,0.1-0.3c-0.1-0.1-0.3-0.1-0.5,0C51.4,63.2,51.5,63.6,51.7,63.5L51.7,63.5z"/>
				</g>
			</g>
		</g>
		<g>
			<g>
				<g>
					<path class="st0" d="M58.2,68.7c0.4,1.1,0.6,2.4,0.3,3.6c-0.2,0.9-1,1.5-2,1.2c-0.7-0.2-0.8-0.8-1.1-1.3
						c-0.1-0.2-0.5,0-0.4,0.2c0.3,0.6,0.5,1.3,1.1,1.5c0.6,0.2,1.3,0.1,1.8-0.3c1.5-1,1-3.6,0.5-5C58.5,68.3,58.1,68.4,58.2,68.7
						L58.2,68.7z"/>
				</g>
			</g>
		</g>
		<g>
			<g>
				<g>
					<path class="st0" d="M35.6,122.6c2.4-1.1,3.6,1.8,5.2,2.9c0-0.1,0-0.3,0-0.4c-2.5,0.4-4.6,4.1-7.2,3.6c-2.5-0.5-1.9-3-0.6-4.3
						c0.9-0.9,2.1-1.6,3.3-2.2c0.2-0.1,0-0.5-0.2-0.4c-1.9,0.9-6.3,3.5-4.2,6.1c2.7,3.4,6.3-2,9-2.5c0.2,0,0.2-0.3,0-0.4
						c-1.8-1.3-3-4.2-5.7-2.9C35.2,122.4,35.4,122.7,35.6,122.6L35.6,122.6z"/>
				</g>
			</g>
		</g>
		<g>
			<g>
				<g>
					<path class="st0" d="M32.9,128.3c-0.4-1.4,0.7-2.5,1.8-3c0.2-0.1,0-0.5-0.2-0.4c-1.3,0.7-2.4,1.9-2,3.5
						C32.6,128.6,33,128.5,32.9,128.3L32.9,128.3z"/>
				</g>
			</g>
		</g>
		<g>
			<g>
				<g>
					<path class="st0" d="M76,128.2c-1.2-0.8-2-1.9-3-2.9c-0.7-0.7-1.2-1.3-0.2-2.3c0.7-0.7,1.7-1.2,2.6-1.2c1.8,0,3.2,1.6,3.8,3.1
						c0.3,0.8,0.7,2.1,0.1,2.9C78.5,128.8,77.1,128.7,76,128.2c-0.2-0.1-0.5,0.2-0.2,0.4c1.6,0.8,3.8,0.7,4.2-1.4
						c0.4-2.1-1.3-4.7-3.2-5.5c-1-0.4-2-0.3-2.9,0.1c-0.8,0.4-2.3,1.3-2.4,2.3c0,0.7,0.8,1.1,1.2,1.5c1,1,1.8,2.2,3.1,3
						C76,128.6,76.2,128.3,76,128.2z"/>
				</g>
			</g>
		</g>
		<g>
			<g>
				<g>
					<path class="st0" d="M86.2,66.4c-2-0.3-3.4,1.1-4.6,2.5c-0.2,0.2,0.1,0.5,0.3,0.3c1.1-1.2,2.5-2.6,4.3-2.4
						C86.4,66.9,86.5,66.5,86.2,66.4L86.2,66.4z"/>
				</g>
			</g>
		</g>
		<g>
			<g>
				<g>
					<path class="st0" d="M81.5,73.1c2,0.3,3.9-0.3,5.1-1.8c0.2-0.2-0.1-0.5-0.3-0.3c-1.2,1.5-2.9,2-4.7,1.7
						C81.4,72.7,81.3,73.1,81.5,73.1L81.5,73.1z"/>
				</g>
			</g>
		</g>
		<g>
			<g>
				<g>
					<path class="st0" d="M84.9,69.7c1.2-0.4,2.3-1.5,1.7-2.9c-0.1-0.2-0.5,0-0.4,0.2c0.5,1.1-0.5,1.9-1.4,2.3
						C84.5,69.4,84.7,69.8,84.9,69.7L84.9,69.7z"/>
				</g>
			</g>
		</g>
		<g>
			<path class="st0" d="M101.3,47.6c-9.5,0-17.3-7.8-17.3-17.4s7.8-17.4,17.3-17.4s17.3,7.8,17.3,17.4S110.9,47.6,101.3,47.6z
				 M101.3,13.8c-9,0-16.3,7.4-16.3,16.4s7.3,16.4,16.3,16.4c9,0,16.3-7.4,16.3-16.4S110.3,13.8,101.3,13.8z"/>
		</g>
		<g>
			<path class="st0" d="M44.8,64.3c-4.6,0-8.3-3.7-8.3-8.3s3.7-8.3,8.3-8.3s8.3,3.7,8.3,8.3S49.4,64.3,44.8,64.3z M44.8,48.1
				c-4.3,0-7.8,3.5-7.8,7.8s3.5,7.8,7.8,7.8s7.8-3.5,7.8-7.8S49.1,48.1,44.8,48.1z"/>
		</g>
		<g>
			<circle class="st0" cx="30.8" cy="53.4" r="1.7"/>
		</g>
		<g>
			<path class="st0" d="M58.6,62.6c0-1.1-1.6-2-3.6-2s-3.6,0.9-3.6,2c0,1.1,1.6,2,3.6,2C57,64.5,58.6,63.7,58.6,62.6z"/>
		</g>
		<g>
			<path class="st0" d="M99.2,27.6c0,3,2.5,5.5,5.5,5.5s5.5-2.5,5.5-5.5s-2.5-5.5-5.5-5.5C101.6,22.1,99.2,24.6,99.2,27.6z
				 M108.2,25.4c0,0.9-0.7,1.6-1.6,1.6c-0.9,0-1.6-0.7-1.6-1.6c0-0.9,0.7-1.6,1.6-1.6C107.5,23.9,108.2,24.5,108.2,25.4z"/>
		</g>
		<g>
			<path class="st0" d="M45.7,54c0,1.5,1.2,2.6,2.6,2.6S51,55.5,51,54s-1.2-2.6-2.6-2.6C46.9,51.4,45.7,52.6,45.7,54z M50,53
				c0,0.4-0.3,0.8-0.8,0.8c-0.4,0-0.8-0.3-0.8-0.8c0-0.4,0.3-0.8,0.8-0.8C49.7,52.2,50,52.5,50,53z"/>
		</g>
		<g>
			<g>
				<g>
					<path class="st0" d="M55.1,68.1c0.3,1.4,0.4,3.6-0.4,4.9c-0.8,1.2-2.3,0.6-2.6-0.6c-0.4-1.1-0.2-2.4,0.1-3.4
						c0.1-0.3-0.3-0.4-0.4-0.1c-0.3,1.2-0.6,2.8,0,4c0.4,0.9,1.6,1.5,2.5,1.1c1.8-0.9,1.6-4.4,1.2-6C55.5,67.8,55.1,67.9,55.1,68.1
						L55.1,68.1z"/>
				</g>
			</g>
		</g>
		<g>
			<g>
				<g>
					<path class="st0" d="M41.1,98.3c1,1.6,3,2.6,4.8,2.7c1.3,0.1,2.6-0.4,2.3-1.9c-0.1-0.3-0.5-0.2-0.4,0.1c0.4,1.8-2,1.5-3,1.2
						c-1.3-0.4-2.6-1.1-3.4-2.3C41.3,97.9,41,98.1,41.1,98.3L41.1,98.3z"/>
				</g>
			</g>
		</g>
		<g>
			<g>
				<g>
					<path class="st0" d="M46.1,98.9c0.6,0.3,1.4,0.5,2,0c0.5-0.4,0.4-1.2,0-1.7c-0.9-1.3-3.2-1.5-4.6-1.4c-0.3,0-0.3,0.4,0,0.4
						c1-0.1,2.1,0,3,0.4c0.6,0.2,1.1,0.5,1.4,1c0.6,1.2-0.8,1.2-1.6,0.9C46.1,98.5,45.9,98.9,46.1,98.9L46.1,98.9z"/>
				</g>
			</g>
		</g>
		<g>
			<g>
				<g>
					<path class="st0" d="M79.8,58.6c1.5,6.2,1.2,12.5,1.1,18.8c0,0.5,0.8,0.5,0.8,0c0-6.4,0.3-12.8-1.2-19
						C80.4,57.8,79.7,58,79.8,58.6L79.8,58.6z"/>
				</g>
			</g>
		</g>
		<g>
			<g>
				<g>
					<path class="st0" d="M71.5,124.7c0,0,0.1,0,0.1,0c0.3,0,0.3-0.4,0-0.4h0c-0.1,0-0.1,0-0.2,0.1c0,0,0,0,0,0
						c0.1,0.1,0.2,0.2,0.3,0.3c0,0,0-0.1,0-0.1C71.6,124.6,71.5,124.6,71.5,124.7C71.5,124.7,71.5,124.7,71.5,124.7
						c0.3,0.3,0.6,0,0.4-0.2c0,0-0.1-0.1-0.1-0.1c-0.1-0.1-0.3-0.1-0.3,0.1c0,0,0,0.1,0,0.1c-0.1,0.2,0.1,0.3,0.3,0.3
						c0.1,0,0.2-0.1,0.2-0.2c-0.1,0-0.1,0.1-0.2,0.1h0c0.3,0,0.3-0.4,0-0.4c0,0-0.1,0-0.1,0C71.2,124.3,71.2,124.7,71.5,124.7
						L71.5,124.7z"/>
				</g>
			</g>
		</g>
		<g>
			<g>
				<g>
					<path class="st0" d="M36.4,56.5c4.2,5.8,12.6,5.7,16.7-0.1c0.2-0.2-0.2-0.4-0.4-0.2c-3.9,5.6-12,5.6-16,0.1
						C36.6,56.1,36.3,56.3,36.4,56.5L36.4,56.5z"/>
				</g>
			</g>
		</g>
		<g>
			<g>
				<g>
					<path class="st0" d="M88.5,18.8c-3.8,2.9-7.4,6.2-10.7,9.7c-0.4,0.4,0.2,0.9,0.6,0.6c3.3-3.5,6.9-6.7,10.7-9.7
						C89.5,19.1,88.9,18.5,88.5,18.8L88.5,18.8z"/>
				</g>
			</g>
		</g>
		<g>
			<g>
				<g>
					<path class="st0" d="M77.5,29.3c-0.6,3.3-1.4,6.6-1,10c0.3,2.7,1.4,5.4,3,7.6c3.4,4.5,9,6.8,14.6,6c0.5-0.1,0.5-0.9,0-0.8
						c-5.5,0.7-11-1.5-14.2-6.1c-1.5-2.2-2.5-4.9-2.7-7.6c-0.2-3,0.6-6,1.1-9C78.4,29,77.6,28.8,77.5,29.3L77.5,29.3z"/>
				</g>
			</g>
		</g>
		<g>
			<g>
				<g>
					<path class="st0" d="M94.2,53.2c5.8-1.9,11.3-4.7,16.2-8.3c0.4-0.3,0-1-0.4-0.7c-4.9,3.5-10.3,6.3-16,8.2
						C93.5,52.5,93.7,53.3,94.2,53.2L94.2,53.2z"/>
				</g>
			</g>
		</g>
		<g>
			<g>
				<g>
					<path class="st0" d="M76.3,34.2c-5,4-9.6,8.3-14.1,13c-0.4,0.4,0.2,0.9,0.6,0.6c4.4-4.6,9.1-8.9,14.1-13
						C77.3,34.4,76.8,33.8,76.3,34.2L76.3,34.2z"/>
				</g>
			</g>
		</g>
		<g>
			<g>
				<g>
					<path class="st0" d="M87.5,52.3c-3.5,2.2-7,4.4-10.5,6.7c-1.7,1-3.3,2.1-5,3.1c-0.9,0.5-1.8,1-2.7,1.5
						c-0.4,0.2-0.7,0.4-1.1,0.6c-0.3,0.1-0.6,0.3-0.8,0.4c-0.4,0.1-0.7,0.4-0.8,0.9c0.5-0.2,0.1-0.9-0.4-0.7c-0.1,0-0.1,0-0.2,0.1
						c-0.2,0.1-0.2,0.3-0.2,0.5c0,0.1,0,0.1,0,0.2c0,0.1,0.2,0.3,0.3,0.3c1.3,0.2,3-1.2,4.1-1.8c2-1.1,4-2.3,5.9-3.5
						c4-2.5,7.9-5,11.8-7.5C88.4,52.8,88,52.1,87.5,52.3L87.5,52.3z"/>
				</g>
			</g>
		</g>
		<g>
			<g>
				<g>
					<path class="st0" d="M63,47.4c-1.2-0.9-2.5,0.1-2.8,1.4c-0.4,1.5-0.2,4.5,1,5.8c1,1,2-0.5,2.3-1.4c0.7-2-0.1-4.2-0.8-6.1
						c-0.2-0.5-1-0.3-0.8,0.2c0.6,1.6,1.6,4.2,0.7,5.8c-0.5,0.9-0.9,0.8-1.3-0.1c-0.2-0.5-0.3-0.9-0.4-1.4c-0.1-0.6-0.3-4.7,1.6-3.4
						C63,48.4,63.4,47.7,63,47.4L63,47.4z"/>
				</g>
			</g>
		</g>
		<g>
			<g>
				<g>
					<path class="st0" d="M63.8,47.4c0.2-0.4,0.8,1.3,0.9,1.5c0.2,0.6,0.3,1.2,0.4,1.9c0.2,1.1-0.3,3.9-2.1,2.7
						c-0.4-0.3-0.9,0.4-0.4,0.7c0.8,0.5,1.8,0.4,2.5-0.2c0.9-0.8,1-2.1,0.8-3.2c-0.1-1.1-0.3-2.9-1.1-3.8c-0.5-0.6-1.3-0.6-1.7,0.1
						C62.9,47.4,63.5,47.8,63.8,47.4L63.8,47.4z"/>
				</g>
			</g>
		</g>
		<g>
			<g>
				<g>
					<path class="st0" d="M60.1,50.2c-1.8,1.2-3.4,2.9-3.9,5.1c-0.6,2.3,0.4,4.8,1.5,6.8c2.1,3.6,6.9,4.8,10.4,2.6
						c0.5-0.3,0-1-0.4-0.7c-3.2,2-7.4,1-9.3-2.3c-1-1.7-1.9-4.2-1.4-6.2c0.5-1.9,1.9-3.4,3.5-4.6C61,50.6,60.6,49.9,60.1,50.2
						L60.1,50.2z"/>
				</g>
			</g>
		</g>
		<g>
			<path class="st0" d="M101.7,46.4c-9,0-16.4-7.4-16.4-16.4c0-9.1,7.3-16.4,16.4-16.4S118,21,118,30
				C118,39.1,110.7,46.4,101.7,46.4z M101.7,14.6c-8.5,0-15.4,6.9-15.4,15.4c0,8.5,6.9,15.4,15.4,15.4S117,38.5,117,30
				C117,21.5,110.1,14.6,101.7,14.6z"/>
		</g>
		<g>
			<g>
				<path class="st0" d="M102.2,40.5c-8,0-14.7-5.7-16.2-13.2c-0.1,0.3-0.2,0.7-0.3,1c1.9,7.3,8.6,12.8,16.5,12.8
					c7,0,13.1-4.3,15.7-10.4v-1.4C115.6,35.8,109.5,40.5,102.2,40.5z"/>
			</g>
		</g>
		<g>
			<g>
				<g>
					<path class="st0" d="M57.3,53c-0.5,0-0.6-0.9-0.3-1.1c-0.2,0-0.4,0-0.6,0c0.3,0.3,0.6,0.7,0.7,1.2c0.2,0.5,0.9,0.3,0.8-0.2
						c-0.2-0.6-0.5-1.1-0.9-1.5c-0.2-0.2-0.4-0.1-0.6,0c-1,0.8-0.3,2.4,0.8,2.5C57.8,53.9,57.8,53.1,57.3,53L57.3,53z"/>
				</g>
			</g>
		</g>
		<g>
			<g>
				<g>
					<path class="st0" d="M58,52c-0.5-1.8-1-3.6-1.5-5.4c-0.2-0.8-0.5-1.6-0.7-2.4c-0.1-0.5-0.3-1-0.4-1.5c-0.1-0.2-0.1-0.4-0.2-0.6
						c-0.2-0.7-0.2-0.4-0.2,0.9c-0.3,0.5,0.4,0.9,0.7,0.4c0.4-0.7,0.9-1.7,0.1-2.3c-0.6-0.4-1.3-0.2-1.5,0.4c-0.2,0.4,0.2,1,0.3,1.4
						c0.3,1,0.6,2,0.9,3c0.6,2.1,1.2,4.2,1.8,6.2C57.3,52.7,58.1,52.5,58,52L58,52z"/>
				</g>
			</g>
		</g>
		<g>
			<g>
				<g>
					<path class="st0" d="M55.8,41.2c-0.1-0.6-0.3-1.1-0.4-1.7c-0.1-0.4-0.5-1.3-0.2-1.6c0.3-0.3,1.4-0.2,1.7-0.3
						c0.6-0.1,1.2-0.1,1.9-0.1c0.5,0,0.5-0.8,0-0.8c-0.9,0-1.7,0-2.5,0.2c-0.5,0.1-1.3,0.1-1.8,0.5c-0.4,0.4-0.3,0.9-0.2,1.3
						c0.2,0.9,0.4,1.9,0.6,2.8C55.1,41.9,55.9,41.7,55.8,41.2L55.8,41.2z"/>
				</g>
			</g>
		</g>
		<g>
			<g>
				<g>
					<path class="st0" d="M59.2,37.4c0.7,3.1,1.5,6.2,2.2,9.3c0.1,0.5,0.9,0.3,0.8-0.2c-0.7-3.1-1.5-6.2-2.2-9.3
						C59.8,36.7,59,36.9,59.2,37.4L59.2,37.4z"/>
				</g>
			</g>
		</g>
		<g>
			<g>
				<g>
					<path class="st0" d="M60.7,40.5c0.4,0.3,0.5,1.1,0,1.4c-0.4,0.3,0,1,0.4,0.7c0.9-0.6,1-2,0.1-2.7
						C60.9,39.6,60.3,40.2,60.7,40.5L60.7,40.5z"/>
				</g>
			</g>
		</g>
		<g>
			<g>
				<g>
					<path class="st0" d="M53.6,41.7C53.6,41.7,53.5,41.7,53.6,41.7C53.5,41.7,53.5,41.7,53.6,41.7c-0.1,0-0.2,0-0.2,0
						c-0.1,0-0.3,0-0.4,0c-0.2,0.1-0.4,0.2-0.5,0.5c0,0.2,0,0.5,0.2,0.6c0.2,0.2,0.5,0.2,0.7,0c0.4-0.4-0.2-0.9-0.6-0.6
						c0.1-0.1,0.3-0.1,0.5,0.1c0,0,0,0,0,0c0-0.1,0,0.1,0,0c0,0.1,0,0.1,0,0c0,0,0,0.1-0.1,0.1c-0.1,0.1-0.2,0.1-0.1,0.1
						c0,0,0,0,0,0c0.3,0,0.5,0,0.8-0.1c0.2-0.1,0.3-0.4,0.1-0.6C54.1,41.7,53.8,41.6,53.6,41.7L53.6,41.7z"/>
				</g>
			</g>
		</g>
		<g>
			<g>
				<g>
					<path class="st0" d="M52.4,42.1c0-0.5-0.2-0.9-0.5-1.3c-0.1-0.2-0.5-0.2-0.6,0c-1,1.2-0.5,3.1,1,3.6c0.2,0.1,0.4,0,0.5-0.2
						c0.3-0.6,0.4-1.2,0.4-1.8c0-0.5-0.9-0.5-0.8,0c0,0.5-0.1,1-0.3,1.4c0.2-0.1,0.3-0.1,0.5-0.2c-0.9-0.3-1.2-1.5-0.6-2.3
						c-0.2,0-0.4,0-0.6,0c0.2,0.2,0.2,0.5,0.2,0.8C51.5,42.6,52.4,42.6,52.4,42.1L52.4,42.1z"/>
				</g>
			</g>
		</g>
		<g>
			<g>
				<g>
					<path class="st0" d="M55.9,52.3c-0.4,0.2-0.9,0.4-1.3,0.5c-0.2,0.1-0.4,0.3-0.3,0.5c0.1,0.2,0.3,0.4,0.5,0.3
						c0.4-0.2,0.9-0.4,1.3-0.5c0.2-0.1,0.4-0.3,0.3-0.5C56.3,52.4,56.1,52.2,55.9,52.3L55.9,52.3z"/>
				</g>
			</g>
		</g>
		<g>
			<g>
				<g>
					<path class="st0" d="M54.8,52.6c-0.1-0.4-0.3-0.8-0.7-1c-0.2-0.1-0.4,0-0.6,0.1c-0.5,0.8-1.3,3.3,0.2,3.6
						c0.6,0.1,1-0.3,1.2-0.8c0.4-0.8-0.1-1.5,0.1-2.3c0.2-0.5-0.6-0.7-0.8-0.2c-0.1,0.4-0.1,0.7-0.1,1c0,0.4,0.2,0.9-0.1,1.2
						c-0.5,0.5-0.5-0.7-0.4-0.9c0.1-0.5,0.2-0.9,0.5-1.3c-0.2,0-0.4,0.1-0.6,0.1c0.2,0.1,0.3,0.3,0.4,0.5
						C54.1,53.3,54.9,53.1,54.8,52.6L54.8,52.6z"/>
				</g>
			</g>
		</g>
		<g>
			<g>
				<g>
					<path class="st0" d="M57,48.6c1.8,0.1,3.5-0.5,4.8-1.7c0.4-0.3-0.2-0.9-0.6-0.6c-1.2,1-2.7,1.5-4.3,1.4
						C56.5,47.8,56.5,48.6,57,48.6L57,48.6z"/>
				</g>
			</g>
		</g>
		<g>
			<g>
				<g>
					<path class="st0" d="M57.6,50.6c1,0,2-0.4,2.9-1c0.4-0.3,0-1-0.4-0.7c-0.7,0.5-1.5,0.8-2.5,0.9C57,49.8,57,50.6,57.6,50.6
						L57.6,50.6z"/>
				</g>
			</g>
		</g>
		<g>
			<g>
				<g>
					<path class="st0" d="M64.9,53.8c0.6,5.7,1.6,11.3,3.2,16.8c0.7,2.3,1.3,4.8,2.8,6.7c1.5,1.8,3.5,3.1,5.5,4.3
						c0.5,0.3,0.9-0.4,0.4-0.7c-2.1-1.2-4.3-2.6-5.6-4.6c-1.4-2-2-4.7-2.6-7.1c-1.4-5-2.3-10.2-2.8-15.4
						C65.7,53.3,64.9,53.3,64.9,53.8L64.9,53.8z"/>
				</g>
			</g>
		</g>
		<g>
			<g>
				<g>
					<path class="st0" d="M63.5,54.4c0.6,3,1.1,6,1.7,8.9c0.5,2.6,0.7,5.4,1.7,7.8c0.8,2,2.4,3.4,3.9,4.8c1.7,1.5,5.3,3.2,5.6,5.7
						c0.1,0.5,0.9,0.5,0.8,0c-0.2-1.7-1.4-2.8-2.7-3.8c-2.2-1.7-5-3.5-6.4-6c-1.4-2.5-1.6-5.9-2.1-8.7c-0.6-3-1.1-6-1.7-8.9
						C64.2,53.6,63.4,53.9,63.5,54.4L63.5,54.4z"/>
				</g>
			</g>
		</g>
		<g>
			<g>
				<g>
					<path class="st0" d="M85.3,54.3c0.9,7.1,3.3,16.4-1.8,22.5c-0.3,0.4,0.2,1,0.6,0.6c5.4-6.3,2.9-15.7,2.1-23.1
						C86,53.8,85.2,53.8,85.3,54.3L85.3,54.3z"/>
				</g>
			</g>
		</g>
		<g>
			<g>
				<g>
					<path class="st0" d="M87.2,53.5c0.6,5.1,1.1,10.2,1.7,15.2c0.5,4.4,1.5,10.8-3.5,13c-0.5,0.2-0.1,0.9,0.4,0.7
						c4.4-1.9,4.6-7,4.2-11.1c-0.6-5.9-1.3-11.8-1.9-17.8C88,53,87.2,53,87.2,53.5L87.2,53.5z"/>
				</g>
			</g>
		</g>
		<g>
			<g>
				<g>
					<path class="st0" d="M69.3,63.7c-0.6,1.3,0.4,2.8,1.8,2.5c1.9-0.4,2.1-2.5,2.1-4c0-0.5-0.8-0.5-0.8,0c0,0.9,0.1,2.1-0.7,2.8
						c-0.3,0.3-0.8,0.5-1.2,0.4c-0.5-0.2-0.7-0.8-0.5-1.3C70.3,63.7,69.6,63.3,69.3,63.7L69.3,63.7z"/>
				</g>
			</g>
		</g>
		<g>
			<g>
				<g>
					<path class="st0" d="M59.4,63c7.7-4.1,14.9-9,21.6-14.6c0.4-0.3-0.2-0.9-0.6-0.6C73.8,53.4,66.6,58.2,59,62.3
						C58.5,62.6,59,63.3,59.4,63L59.4,63z"/>
				</g>
			</g>
		</g>
		<g>
			<g>
				<g>
					<path class="st0" d="M79.4,45.6c3.2-1.3,6-3.1,8.3-5.6c0.4-0.4-0.2-0.9-0.6-0.6c-2.3,2.4-4.9,4.2-7.9,5.4
						C78.7,45,78.9,45.8,79.4,45.6L79.4,45.6z"/>
				</g>
			</g>
		</g>
		<g>
			<g>
				<g>
					<path class="st0" d="M73.4,81.1c1.6,2.5,4.3,4,7.3,4c1.6,0,6.2-0.7,5.1-3.2c-0.2-0.5-0.9-0.1-0.7,0.4c0.9,2.1-5.1,2-6,1.8
						c-2.1-0.5-3.8-1.7-5-3.4C73.8,80.2,73.1,80.6,73.4,81.1L73.4,81.1z"/>
				</g>
			</g>
		</g>
		<g>
			<g>
				<g>
					<path class="st0" d="M75.3,79.1c3.4-1.2,9.6-1.5,9.8,3.6c0,0.5,0.9,0.5,0.8,0c-0.1-2.1-1.4-3.8-3.2-4.6
						c-2.4-1.1-5.2-0.6-7.6,0.3C74.6,78.4,74.9,79.2,75.3,79.1L75.3,79.1z"/>
				</g>
			</g>
		</g>
		<g>
			<g>
				<g>
					<path class="st0" d="M74.1,80.5c0-0.3,0-0.5,0-0.8c0-0.2-0.2-0.4-0.4-0.4c-0.2,0-0.4,0.2-0.4,0.4c0,0.3,0,0.5,0,0.8
						c0,0.2,0.2,0.4,0.4,0.4C73.9,80.9,74.1,80.7,74.1,80.5L74.1,80.5z"/>
				</g>
			</g>
		</g>
		<g>
			<g>
				<g>
					<path class="st0" d="M73.2,79.9c-0.3,2.2-1.2,4.5,0.9,6c1.9,1.4,4.3,2.2,6.7,2.3c1.8,0.1,4.3-0.1,5.5-1.7
						c0.9-1.2,0.7-2.9-0.6-3.7c-0.5-0.3-0.9,0.4-0.4,0.7c2.3,1.5-0.6,3.4-2.1,3.7s-3,0.2-4.4-0.1c-1.3-0.3-2.7-0.8-3.8-1.6
						c-2-1.5-1.2-3.4-0.9-5.4C74.1,79.6,73.3,79.3,73.2,79.9L73.2,79.9z"/>
				</g>
			</g>
		</g>
		<g>
			<g>
				<g>
					<path class="st0" d="M73.7,80.7c-3.6-0.4-5.5,3.7-7,6.3c-2.5,4.6-4.9,9.3-7.3,14c-4.5,9.2-8.7,18.5-12.6,28
						c-0.1,0.2,0.3,0.4,0.4,0.1c3.6-8.9,7.5-17.6,11.7-26.2c2-4.2,4.2-8.3,6.3-12.4c1-1.9,2-3.9,3.1-5.7c1.1-1.9,2.8-3.9,5.3-3.7
						C73.9,81.1,73.9,80.7,73.7,80.7L73.7,80.7z"/>
				</g>
			</g>
		</g>
		<g>
			<g>
				<g>
					<path class="st0" d="M78.4,127.9c-0.5-6.7-0.9-13.3-1.3-20c-0.2-3.4-0.5-6.9-0.7-10.3c-0.2-2.4-0.5-7.8,3.4-6.9
						c3.4,0.7,4,5,3.8,7.8c-0.2,3.3-0.8,6.7-1.2,10c-0.5,3.1-0.9,6.2-1.5,9.4c-0.3,1.7-0.6,3.3-0.9,5c-0.2,0.8-0.3,1.7-0.5,2.5
						c0,0.3-0.7,2.6-0.6,2.6c-0.2-0.2-0.5,0.1-0.3,0.3c0,0,0.1,0.1,0.1,0.1c0.1,0.1,0.2,0.1,0.3,0c0.7-0.4,0.7-1.3,0.8-2.1
						c0.3-1.5,0.6-3.1,0.9-4.7c0.6-3.1,1.1-6.2,1.6-9.4c0.5-3,0.9-6.1,1.3-9.1c0.3-2.5,0.8-5.1,0.4-7.7c-0.3-1.9-1.1-4-2.9-4.9
						c-1.3-0.8-3-0.7-4.1,0.5c-1.1,1.3-1.1,3.2-1,4.9c0.2,3.3,0.4,6.6,0.7,9.9c0.5,7.3,1,14.6,1.5,21.9
						C78,128.1,78.4,128.1,78.4,127.9L78.4,127.9z"/>
				</g>
			</g>
		</g>
		<g>
			<g>
				<g>
					<path class="st0" d="M47.9,130c6.1-9.2,12.1-18.5,17.9-27.9c1.4-2.4,2.9-4.7,4.3-7.1c1.1-1.8,2.9-3.9,3.2-6
						c0.4-2.8-2.6-5-5.2-4.3c-0.3,0.1-0.1,0.5,0.1,0.4c2.5-0.7,5.2,1.7,4.5,4.3c-0.5,2-2.1,4-3.2,5.7c-2.4,3.9-4.8,7.8-7.2,11.7
						c-4.8,7.8-9.8,15.4-14.8,23.1C47.4,130,47.8,130.2,47.9,130L47.9,130z"/>
				</g>
			</g>
		</g>
		<g>
			<g>
				<g>
					<path class="st0" d="M88.8,87.8c-0.3-0.9-0.5-1.8-0.5-2.6c0-1.9,1.6-3.3,3.4-1.7c1.6,1.4,2.4,3.9,3.3,5.8
						c2.2,4.6,4.5,9.2,6.7,13.8c4.4,9.1,8.9,18.2,13.3,27.3c0.1,0.2,0.5,0,0.4-0.2c-5.5-11.2-11-22.5-16.4-33.7
						c-1.4-2.8-2.7-5.7-4.2-8.5c-0.9-1.8-1.7-4.3-3.6-5.2c-1-0.5-2.3-0.3-2.9,0.8c-0.8,1.3-0.4,3.2,0,4.6
						C88.4,88.2,88.8,88.1,88.8,87.8L88.8,87.8z"/>
				</g>
			</g>
		</g>
		<g>
			<g>
				<g>
					<path class="st0" d="M88.7,88.1c6.9,15,15.8,29.1,26.5,41.8c0.2,0.2,0.5-0.1,0.3-0.3c-10.6-12.7-19.5-26.7-26.4-41.7
						C88.9,87.7,88.6,87.9,88.7,88.1L88.7,88.1z"/>
				</g>
			</g>
		</g>
		<g>
			<g>
				<g>
					<path class="st0" d="M46.9,128.6c-1.1-0.6-2.4,0.1-2.5,1.4c0,0.2,0.1,0.4,0.3,0.4c2.4,0.5,4.7,0.4,7.1-0.1
						c0.4-0.1,0.4-0.6,0.1-0.8c-0.9-0.6-1.9-0.8-3-0.7c-0.5,0-0.5,0.9,0,0.8c0.9-0.1,1.8,0.1,2.6,0.6c0-0.3,0.1-0.5,0.1-0.8
						c-2.2,0.5-4.4,0.6-6.6,0.1c0.1,0.1,0.2,0.3,0.3,0.4c0.4-0.2,0.9-0.5,1.3-0.7C47,129.5,47.4,128.8,46.9,128.6L46.9,128.6z"/>
				</g>
			</g>
		</g>
		<g>
			<g>
				<g>
					<path class="st0" d="M78.8,128.2c-1.2-0.5-3.5-0.7-4.2,0.8c-0.7,1.5,2,1.5,2.7,1.5c1.4,0,2.8-0.1,4.1-0.5
						c0.6-0.2,1.4-0.4,1.7-1c0.8-1.9-2.9-1.5-3.6-1.5c-0.5,0-0.5,0.9,0,0.8c0.4,0,0.9-0.1,1.2,0c0.4-0.1,0.7,0,0.9,0.4
						c0.4,0.3,0.3,0.4,0,0.4c-0.5,0.5-2.4,0.5-3,0.5c-0.7,0-1.6,0.1-2.3,0c-1.2-0.3-0.5-0.7,0.3-0.9c0.7-0.2,1.2-0.2,1.9,0.2
						C78.9,129.1,79.3,128.3,78.8,128.2L78.8,128.2z"/>
				</g>
			</g>
		</g>
		<g>
			<g>
				<g>
					<path class="st0" d="M114.4,129.1c-1-0.5-2-0.4-2.8,0.4c-0.2,0.2-0.2,0.5,0.1,0.7c2.4,1.3,5.1,1.2,7.4-0.2
						c0.3-0.2,0.3-0.6,0-0.7c-1.4-0.8-2.8-1-4.4-0.7c-0.5,0.1-0.3,0.9,0.2,0.8c1.3-0.3,2.6-0.1,3.8,0.6c0-0.2,0-0.5,0-0.7
						c-2.1,1.3-4.5,1.3-6.6,0.2c0,0.2,0.1,0.4,0.1,0.7c0.5-0.6,1.1-0.7,1.8-0.3C114.5,130.1,114.8,129.4,114.4,129.1L114.4,129.1z"
						/>
				</g>
			</g>
		</g>
		<g>
			<g>
				<g>
					<path class="st0" d="M68.3,91.6c-0.6-0.8-1-1.8-0.7-2.7c0.4-1.2,1.8-1.8,2.8-0.9c0.7,0.7,0.9,1.9,0.6,2.8
						C70.6,91.9,69.3,92.4,68.3,91.6c-0.3-0.3-0.9,0.3-0.5,0.6c1,0.9,2.6,0.7,3.4-0.3c1-1.2,0.8-3.1-0.1-4.3c-1-1.2-2.6-1.2-3.7-0.1
						c-1.2,1.3-0.8,3.2,0.2,4.5C67.9,92.5,68.6,92,68.3,91.6L68.3,91.6z"/>
				</g>
			</g>
		</g>
		<g>
			<g>
				<g>
					<path class="st0" d="M90.4,87.7c-0.6-0.5-0.7-1.4-0.2-2s1.5-0.6,2.1-0.2c0.7,0.5,0.9,1.4,0.7,2.1c-0.3,0.9-1.6,1.7-2.3,0.6
						c-0.3-0.5-1,0-0.7,0.4c0.8,1.3,2.5,1.1,3.3,0.1c0.9-1.1,0.7-2.8-0.3-3.7c-0.9-0.8-2.6-0.8-3.4,0.3c-0.8,1-0.5,2.4,0.5,3.1
						C90.4,88.7,90.8,88,90.4,87.7L90.4,87.7z"/>
				</g>
			</g>
		</g>
		<g>
			<g>
				<g>
					<path class="st0" d="M82,79.9c0.4-0.1,0.9-0.2,1.3-0.3c0.5-0.1,0.3-0.9-0.2-0.8c-0.4,0.1-0.9,0.2-1.3,0.3
						C81.3,79.2,81.5,79.9,82,79.9L82,79.9z"/>
				</g>
			</g>
		</g>
		<g>
			<g>
				<g>
					<path class="st0" d="M83.2,77.7c0.3,1,0.7,2,1,3c0.1,0.2,0.2,0.3,0.4,0.3c2,0.1,3.7-2,2.7-3.9c-0.9-1.7-3.4-1.6-4.1,0.2
						c-0.2,0.5,0.6,0.7,0.8,0.2c0.5-1.4,2.4-0.9,2.7,0.3c0.3,1.3-0.9,2.4-2.1,2.4c0.1,0.1,0.3,0.2,0.4,0.3c-0.3-1-0.7-2-1-3
						C83.8,76.9,83,77.2,83.2,77.7L83.2,77.7z"/>
				</g>
			</g>
		</g>
		<g>
			<g>
				<g>
					<path class="st0" d="M55.4,41.6c1.7,1.3,4.3,0.9,5.4-0.9c0.3-0.5-0.4-0.9-0.7-0.4C59.2,41.7,57.2,42,56,41
						C55.6,40.7,55,41.3,55.4,41.6L55.4,41.6z"/>
				</g>
			</g>
		</g>
		<g>
			<g>
				<g>
					<path class="st0" d="M47.6,129.5c7-12.4,14-24.8,21-37.1c0.1-0.2-0.2-0.4-0.4-0.2c-7,12.4-14,24.8-21,37.1
						C47.1,129.6,47.4,129.8,47.6,129.5L47.6,129.5z"/>
				</g>
			</g>
		</g>
		<g>
			<g>
				<g>
					<path class="st0" d="M79.4,128.1c-1-5.9,0.1-12,0.7-17.9c0.3-2.9,0.6-5.8,0.9-8.7c0.3-2.5,0.7-4.9-0.1-7.3
						c-0.1-0.3-0.5-0.1-0.4,0.1c1,2.7,0.3,5.8,0,8.5c-0.3,2.9-0.6,5.8-0.9,8.7c-0.6,5.5-1.5,11.2-0.6,16.7
						C79,128.5,79.4,128.4,79.4,128.1L79.4,128.1z"/>
				</g>
			</g>
		</g>
		<g>
			<g>
				<g>
					<path class="st0" d="M92.6,89c6.5,13.6,13.6,26.9,21.2,40c0.1,0.2,0.5,0,0.4-0.2c-7.6-13-14.7-26.4-21.2-40
						C92.9,88.6,92.5,88.8,92.6,89L92.6,89z"/>
				</g>
			</g>
		</g>
		<g>
			<g>
				<g>
					<path class="st0" d="M80.8,26.9c-1.5,2.4-2.3,5.1-2.3,7.9c0,1.5,0.1,5.5,2.2,5.7c2.2,0.2,2.2-4.2,2.3-5.6
						c0.2-1.8,0.1-3.5,0-5.3c-0.1-1,0-2.4-0.9-3c-0.2-0.1-0.4-0.1-0.5,0.1c-0.1,0-0.1,0.1-0.2,0.1c-0.4,0.3,0.2,0.9,0.6,0.6
						c-0.3,0.3,0.3,3.1,0.3,3.8c0,0.9,0,1.9,0,2.8c-0.1,1.1-0.2,2.2-0.4,3.3c-0.1,0.4-0.1,1.1-0.3,1.4c0,0.4-0.3,0.4-0.9,0
						c-0.6,0.1-0.9-0.1-0.9-0.7c-0.7-1.5-0.5-3.9-0.3-5.5c0.3-1.9,1-3.7,2-5.3C81.8,26.9,81.1,26.5,80.8,26.9L80.8,26.9z"/>
				</g>
			</g>
		</g>
		<g>
			<g>
				<g>
					<path class="st0" d="M73.5,40.5c-2.5,1.3-4.6,3.1-6.2,5.3c-0.5,0.6-1.3,1.6-0.9,2.4c0.3,0.6,1,0.7,1.6,0.6
						c2.3-0.3,4.6-2.2,6-3.9c0.9-1.1,2.7-4,0.2-4.5c-0.5-0.1-0.7,0.7-0.2,0.8c1.8,0.3-0.6,3.2-0.9,3.5c-0.6,0.6-1.1,1.1-1.8,1.6
						c-0.6,0.5-4,2.6-4,1c0-0.5,1.2-1.7,1.4-2c0.5-0.5,0.9-1,1.4-1.5c1.1-1,2.4-1.9,3.7-2.6C74.4,41,74,40.3,73.5,40.5L73.5,40.5z"
						/>
				</g>
			</g>
		</g>
		<g>
			<g>
				<g>
					<path class="st0" d="M73.7,90.5c-0.1-0.1-0.2-0.2-0.3-0.2c-0.2,0.2-0.3,0.4-0.5,0.7c0.8,0.6,1.8,1,2.8,1.1
						c0.5,0.1,0.8-0.7,0.2-0.8c-0.9-0.1-1.8-0.5-2.6-1c-0.4-0.3-0.9,0.4-0.5,0.7c0.1,0.1,0.2,0.2,0.3,0.2
						C73.5,91.4,74.1,90.9,73.7,90.5L73.7,90.5z"/>
				</g>
			</g>
		</g>
		<g>
			<g>
				<g>
					<path class="st0" d="M83.1,93.3c2.5-0.3,4.7-1.2,6.8-2.6c0.4-0.3,0-1-0.4-0.7c-2,1.3-4.2,2.2-6.6,2.5
						C82.3,92.6,82.5,93.4,83.1,93.3L83.1,93.3z"/>
				</g>
			</g>
		</g>
		<g>
			<g>
				<g>
					<path class="st0" d="M87.6,82c1-0.4,2-0.1,2.7,0.7c0.4,0.4,0.9-0.2,0.6-0.6c-0.9-1-2.3-1.3-3.6-0.9
						C86.9,81.4,87.1,82.1,87.6,82L87.6,82z"/>
				</g>
			</g>
		</g>
		<g>
			<g>
				<g>
					<path class="st0" d="M72.6,87.9c4.3,4.4,10.7,2.8,15.7,0.9c0.5-0.2,0.3-1-0.2-0.8c-4.8,1.8-10.9,3.5-14.9-0.7
						C72.9,86.9,72.3,87.5,72.6,87.9L72.6,87.9z"/>
				</g>
			</g>
		</g>
		<g>
			<g>
				<g>
					<path class="st0" d="M71.3,84.8c-0.8-0.4-1.3-1.2-1.1-2.2c0.1-0.5-0.7-0.7-0.8-0.2c-0.2,1.2,0.4,2.5,1.5,3.1
						C71.3,85.7,71.7,85,71.3,84.8L71.3,84.8z"/>
				</g>
			</g>
		</g>
		<g>
			<g>
				<g>
					<path class="st0" d="M91.4,87.7c-0.6-0.3-0.4-1.2,0.3-1.1c0.8,0.1,0.7,1.1,0,1.2c-0.5,0-0.5,0.9,0,0.8c0.8,0,1.3-0.6,1.4-1.4
						c0.1-0.7-0.5-1.3-1.2-1.4c-0.7-0.1-1.4,0.2-1.6,0.9c-0.2,0.7,0.1,1.4,0.7,1.7C91.5,88.6,91.9,87.9,91.4,87.7L91.4,87.7z"/>
				</g>
			</g>
		</g>
		<g>
			<g>
				<g>
					<path class="st0" d="M80.6,95.3c-1.1,0.9-3.1,0.5-3.1-1.1c0-0.6,0.3-1.2,0.9-1.3c0.6-0.1,1.3,0.1,1.5,0.7
						c0.2,0.5,1,0.3,0.8-0.2c-0.8-2-3.8-1.6-4,0.5c-0.1,1,0.4,2.1,1.3,2.5c1.1,0.5,2.3,0.3,3.2-0.5C81.6,95.6,81,95,80.6,95.3
						L80.6,95.3z"/>
				</g>
			</g>
		</g>
		<g>
			<g>
				<g>
					<path class="st0" d="M97.4,18c-4.2-0.9-10.6,10.4-6.5,11.4c1.2,0.3,2.7-0.9,3.5-1.6c1.4-1.1,2.4-2.7,3.3-4.2
						c0.7-1.1,1.8-2.8,1.6-4.2c-0.2-1-0.9-1.7-1.9-1.6c-0.3,0-0.3,0.4,0,0.4c1.3,0.7,1.7,1.4,1.4,2.3c-0.1,0.4-0.3,0.8-0.5,1.1
						c-0.2,0.4-0.4,0.7-0.6,1.1c-0.4,0.8-0.9,1.6-1.4,2.3c-1,1.5-3.3,4.3-5.3,3.7c-0.9-0.3-1-0.6-1-1.5c0-0.5,0.1-0.9,0.3-1.3
						c0.3-1,0.8-2.1,1.3-3c1-1.8,3.2-5,5.7-4.5C97.5,18.4,97.6,18,97.4,18L97.4,18z"/>
				</g>
			</g>
		</g>
		<g>
			<g>
				<g>
					<path class="st0" d="M100.3,16.4c-0.6,0.4-0.8,1.1-0.5,1.8c0.3,0.7,1,0.9,1.7,0.7c0.7-0.3,1-1,0.8-1.7
						c-0.3-0.7-1.1-1.1-1.8-0.8c-0.2,0.1-0.1,0.5,0.1,0.4c0.5-0.2,1.1,0.1,1.3,0.6c0.2,0.5-0.1,1-0.6,1.2c-1.1,0.4-1.7-1.1-0.8-1.7
						C100.7,16.6,100.5,16.3,100.3,16.4L100.3,16.4z"/>
				</g>
			</g>
		</g>
		<g>
			<g>
				<g>
					<path class="st0" d="M58.4,52.5c-1.6,2.3-1.6,5.4-0.1,7.8c1.5,2.6,4.3,4,7.2,4.3c0.3,0,0.4-0.4,0.1-0.4c-2.6-0.4-5-1.5-6.5-3.6
						c-1.7-2.4-1.9-5.5-0.3-7.9C58.9,52.5,58.6,52.3,58.4,52.5L58.4,52.5z"/>
				</g>
			</g>
		</g>
		<g>
			<g>
				<g>
					<path class="st0" d="M77.5,81.2c-0.2-0.2-0.4-0.4-0.6-0.6c0,0.2,0,0.3,0.1,0.5c0.9-1.9,3.2-1.7,4.7-0.7
						c1.2,0.8,0.1,1.8-0.8,2.2c-1.1,0.5-2.9,0.5-3.1-1.1c-0.1-0.5-0.9-0.5-0.8,0c0.2,1.3,1.3,2.2,2.6,2.2c1.2,0,3.7-1,3.8-2.4
						c0-1.3-2.3-2.3-3.3-2.5c-1.5-0.3-3.1,0.4-3.8,1.8c-0.1,0.2-0.1,0.4,0.1,0.5c0.2,0.2,0.4,0.4,0.6,0.6
						C77.3,82.2,77.8,81.6,77.5,81.2L77.5,81.2z"/>
				</g>
			</g>
		</g>
		<g>
			<g>
				<g>
					<path class="st0" d="M77.3,82.2c2.1,0.3,4.1-0.2,5.7-1.6c0.4-0.3-0.2-0.9-0.6-0.6c-1.4,1.2-3.1,1.7-4.9,1.4
						C77,81.3,76.8,82.1,77.3,82.2L77.3,82.2z"/>
				</g>
			</g>
		</g>
		<g>
			<g>
				<g>
					<path class="st0" d="M79.2,127.1c1.2-6.1,2.5-12.2,3.8-18.3c1-5.1,3.1-11,1.6-16.2c-0.1-0.3-0.5-0.1-0.4,0.1
						c0.9,3,0.4,6-0.2,9.1c-0.6,2.7-1.1,5.4-1.7,8.1c-1.2,5.7-2.4,11.3-3.5,17C78.8,127.3,79.2,127.4,79.2,127.1L79.2,127.1z"/>
				</g>
			</g>
		</g>
		<g>
			<g>
				<g>
					<path class="st0" d="M48.9,129c8.3-12.4,16.5-25,24.5-37.6c0.1-0.2-0.2-0.4-0.4-0.2c-8,12.7-16.2,25.2-24.5,37.6
						C48.4,129,48.8,129.2,48.9,129L48.9,129z"/>
				</g>
			</g>
		</g>
		<g>
			<g>
				<g>
					<path class="st0" d="M55,37.7c0.9-0.8,3.4-2.6,4.1-0.5c0.2,0.5,0.9,0.3,0.8-0.2c-0.3-1-1.2-1.5-2.2-1.5c-1.3,0-2.3,0.9-3.2,1.7
						C54,37.5,54.6,38,55,37.7L55,37.7z"/>
				</g>
			</g>
		</g>
		<g>
			<g>
				<g>
					<path class="st0" d="M70.4,130.4c1.8,0.3,3.5,0.2,5.2-0.4c0.3-0.1,0.1-0.5-0.1-0.4c-1.6,0.6-3.3,0.7-5,0.4
						C70.3,130,70.2,130.4,70.4,130.4L70.4,130.4z"/>
				</g>
			</g>
		</g>
		<g>
			<g>
				<g>
					<path class="st0" d="M82.8,129.5c0.2,0.3,0.6,0.2,0.9,0.2c0.7,0,1.5-0.2,2.2-0.3c0.3-0.1,0.2-0.5-0.1-0.4
						c-0.6,0.1-1.1,0.2-1.7,0.3c-0.1,0-0.9,0.1-0.9,0.1C83,129,82.6,129.3,82.8,129.5L82.8,129.5z"/>
				</g>
			</g>
		</g>
		<g>
			<g>
				<g>
					<path class="st0" d="M40.8,131.1c1.6-0.2,3.2-0.4,4.8-0.5c0.3,0,0.3-0.4,0-0.4c-1.6,0.2-3.2,0.4-4.8,0.5
						C40.5,130.7,40.5,131.1,40.8,131.1L40.8,131.1z"/>
				</g>
			</g>
		</g>
		<g>
			<g>
				<g>
					<path class="st0" d="M80,93.8c0,0.3-1.1,0.6-1.3,0.6c-0.5,0-0.9-0.1-1.1-0.5c-0.4-0.4-0.9,0.2-0.6,0.6c0.6,0.6,1.4,0.8,2.2,0.6
						c0.6-0.1,1.8-0.6,1.7-1.3C80.8,93.3,80,93.3,80,93.8L80,93.8z"/>
				</g>
			</g>
		</g>
		<g>
			<g>
				<g>
					<path class="st0" d="M67,89.8c0.7,1.9,3.1,2.4,4.4,0.8c0.3-0.4-0.2-1-0.6-0.6c-0.9,1.1-2.6,0.9-3.1-0.5
						C67.6,89.1,66.8,89.3,67,89.8L67,89.8z"/>
				</g>
			</g>
		</g>
		<g>
			<g>
				<g>
					<path class="st0" d="M83,80.8c0.4-0.2,0.8-0.2,1.2,0.1c0.5,0.3,0.9-0.4,0.4-0.7c-0.6-0.3-1.2-0.4-1.8-0.2
						C82.3,80.2,82.5,81,83,80.8L83,80.8z"/>
				</g>
			</g>
		</g>
		<g>
			<g>
				<g>
					<path class="st0" d="M85.9,82.5c0.6-0.2,1.3-0.4,1.9-0.6c0.5-0.2,0.3-0.9-0.2-0.8c-0.6,0.2-1.3,0.4-1.9,0.6
						C85.2,81.9,85.4,82.7,85.9,82.5L85.9,82.5z"/>
				</g>
			</g>
		</g>
	</g>
</g>
</svg>
