<?xml version="1.0" encoding="utf-8"?>
<!-- Generator: Adobe Illustrator 24.0.1, SVG Export Plug-In . SVG Version: 6.00 Build 0)  -->
<svg version="1.1" id="Layer_1" xmlns="http://www.w3.org/2000/svg" xmlns:xlink="http://www.w3.org/1999/xlink" x="0px" y="0px"
	 viewBox="0 0 141.7 141.7" style="enable-background:new 0 0 141.7 141.7;" xml:space="preserve">
<style type="text/css">
	.st0{fill:#231F20;}
</style>
<g id="Layer_1_1_">
</g>
<g id="Layer_1_2_">
</g>
<g id="Layer_1_3_">
</g>
<g id="Layer_1_4_">
</g>
<g id="Layer_1_5_">
</g>
<g id="Layer_3">
</g>
<g id="Layer_3_1_">
</g>
<g id="Layer_1_6_">
</g>
<g id="Layer_1_7_">
</g>
<g id="Layer_1_8_">
</g>
<g id="Layer_1_9_">
</g>
<g id="Layer_1_10_">
</g>
<g id="Layer_1_11_">
</g>
<g id="Layer_1_12_">
</g>
<g id="Layer_1_13_">
</g>
<g id="Layer_1_14_">
</g>
<g id="Layer_1_15_">
</g>
<g id="Layer_1_16_">
</g>
<g id="Layer_1_17_">
</g>
<g id="Layer_1_18_">
</g>
<g id="Layer_2_1_">
	<g>
		<g>
			<g>
				<path class="st0" d="M34.5,92.2c-12.6,0-22.8-10.2-22.8-22.8s10.2-22.8,22.8-22.8s22.8,10.2,22.8,22.8S47.1,92.2,34.5,92.2z
					 M34.5,46.8C22.1,46.8,12,56.9,12,69.4s10.1,22.5,22.5,22.5S57,81.8,57,69.4S46.9,46.8,34.5,46.8z"/>
			</g>
		</g>
		<g>
			<g>
				<path class="st0" d="M72.4,52.1c-4.8,0-9.2,1.9-12.5,5c0.1,0,0.2,0.1,0.3,0.1c3.2-3,7.5-4.8,12.2-4.8c9.8,0,17.9,8,17.9,17.9
					s-8,17.9-17.9,17.9c-4.8,0-9.2-1.9-12.4-5.1c-0.1,0-0.2,0-0.3,0c3.3,3.2,7.8,5.3,12.8,5.3c10,0,18.1-8.1,18.1-18.1
					S82.4,52.1,72.4,52.1z"/>
			</g>
		</g>
		<g>
			<g>
				<path class="st0" d="M59.3,57c-1.9,0-3.7,0.4-5.3,1.1c0.1,0.1,0.1,0.1,0.2,0.2c1.6-0.7,3.3-1.1,5.2-1.1
					c7.1,0,12.9,5.8,12.9,12.9s-5.8,12.9-12.9,12.9c-2.1,0-4-0.5-5.7-1.3c0,0.1-0.1,0.1-0.1,0.1c0,0-0.1,0-0.1,0.1
					c1.8,0.9,3.8,1.4,5.9,1.4c7.3,0,13.2-5.9,13.2-13.2C72.5,63,66.6,57,59.3,57z"/>
			</g>
		</g>
		<g>
			<g>
				<path class="st0" d="M87.6,56.9c-0.9,0-1.9,0.1-2.7,0.3c0.1,0.1,0.1,0.2,0.2,0.2c0.8-0.2,1.7-0.3,2.6-0.3
					c7.2,0,13.1,5.9,13.1,13.1s-5.9,13.1-13.1,13.1c-0.9,0-1.8-0.1-2.6-0.3c0,0-0.1,0.1-0.1,0.1c0,0,0,0,0,0.1
					c0,0.1-0.1,0.1-0.1,0.1c0.9,0.2,1.9,0.3,2.8,0.3c7.4,0,13.3-6,13.3-13.3C100.9,62.9,95,56.9,87.6,56.9z"/>
			</g>
		</g>
		<g>
			<g>
				<path class="st0" d="M99.6,62.1c-0.6,0-1.2,0.1-1.8,0.2c0.1,0.1,0.2,0.1,0.2,0.2c0.5-0.1,1.1-0.2,1.6-0.2c4.4,0,7.9,3.6,7.9,7.9
					c0,4.4-3.6,7.9-7.9,7.9c-0.5,0-1-0.1-1.5-0.2c-0.1,0.1-0.1,0.2-0.2,0.2c0.5,0.1,1.1,0.2,1.7,0.2c4.5,0,8.2-3.7,8.2-8.2
					C107.8,65.7,104.1,62.1,99.6,62.1z"/>
			</g>
		</g>
		<g>
			<g>
				<path class="st0" d="M108.7,63.9c-1.2,0-2.4,0.4-3.3,1.1c0.1,0.1,0.2,0.1,0.2,0.2c0.9-0.6,1.9-1,3.1-1c2.9,0,5.2,2.3,5.2,5.2
					c0,2.9-2.3,5.2-5.2,5.2c-0.8,0-1.5-0.2-2.2-0.5c-0.1,0.1-0.1,0.2-0.2,0.2c0.7,0.3,1.5,0.5,2.3,0.5c3,0,5.5-2.4,5.5-5.5
					C114.1,66.3,111.7,63.9,108.7,63.9z"/>
			</g>
		</g>
		<g>
			<g>
				<path class="st0" d="M117.2,62.1c-2.3,0-4.3,1.2-5.5,3c0.1,0,0.2,0.1,0.3,0.1c1.1-1.7,3-2.9,5.2-2.9c3.4,0,6.1,2.8,6.1,6.1
					c0,3.4-2.8,6.1-6.1,6.1c-1.7,0-3.2-0.7-4.4-1.8c0,0.1-0.1,0.1-0.1,0.2c0,0-0.1,0-0.1,0.1c1.2,1.2,2.8,1.9,4.5,1.9
					c3.5,0,6.4-2.9,6.4-6.4C123.6,64.9,120.7,62.1,117.2,62.1z"/>
			</g>
		</g>
		<g>
			<g>
				<path class="st0" d="M122.3,64.1c-0.3,0-0.5,0-0.7,0.1c0.1,0.1,0.2,0.1,0.3,0.2c0.2,0,0.3,0,0.5,0c2.3,0,4.2,1.9,4.2,4.2
					c0,2.3-1.9,4.2-4.2,4.2c-0.2,0-0.3,0-0.4,0c-0.1,0.1-0.1,0.2-0.2,0.2c0.2,0,0.4,0.1,0.6,0.1c2.4,0,4.4-2,4.4-4.4
					C126.7,66,124.7,64.1,122.3,64.1z"/>
			</g>
		</g>
		<g>
			<g>
				<path class="st0" d="M126.6,66.4c-0.1,0-0.3,0-0.4,0.1c0.1,0.1,0.1,0.2,0.1,0.2c0.1,0,0.2,0,0.3,0c1,0,1.8,0.8,1.8,1.8
					s-0.8,1.8-1.8,1.8c-0.2,0-0.3,0-0.4-0.1c0,0.1,0,0.1-0.1,0.1c0,0.1-0.1,0.1-0.1,0.1c0.2,0.1,0.4,0.1,0.5,0.1
					c1.1,0,2.1-0.9,2.1-2.1S127.7,66.4,126.6,66.4z"/>
			</g>
		</g>
		<g>
			<g>
				<path class="st0" d="M129,66.8c-0.4,0-0.8,0.2-1.1,0.4c0.1,0.1,0.1,0.1,0.2,0.2c0.3-0.2,0.6-0.4,0.9-0.4c0.8,0,1.4,0.6,1.4,1.4
					s-0.6,1.4-1.4,1.4c-0.3,0-0.6-0.1-0.9-0.3c-0.1,0.1-0.1,0.2-0.2,0.2c0.3,0.2,0.6,0.4,1,0.4c0.9,0,1.6-0.7,1.6-1.6
					S129.9,66.8,129,66.8z"/>
			</g>
		</g>
		<g>
			<path class="st0" d="M78.4,45.9c-1.9,0-3.5-1.6-3.5-3.5s1.6-3.5,3.5-3.5c1.9,0,3.5,1.6,3.5,3.5S80.4,45.9,78.4,45.9z M78.4,39.2
				c-1.8,0-3.2,1.4-3.2,3.2s1.4,3.2,3.2,3.2s3.2-1.4,3.2-3.2S80.2,39.2,78.4,39.2z M77.6,44.7c-0.9,0-1.4-0.7-1.4-1.4
				c0-0.7,0.5-1.4,1.4-1.4c0.9,0,1.4,0.7,1.4,1.4c0,0.4-0.1,0.7-0.3,1C78.4,44.5,78,44.7,77.6,44.7z M77.6,42.1
				c-0.8,0-1.1,0.6-1.1,1.2c0,0.6,0.3,1.2,1.1,1.2c0.8,0,1.1-0.6,1.1-1.2C78.7,42.7,78.4,42.1,77.6,42.1z"/>
		</g>
		<g>
			<path class="st0" d="M92.7,97.9c-1.3,0-2.3-1-2.3-2.3c0-1.3,1-2.3,2.3-2.3s2.3,1,2.3,2.3C95,96.9,93.9,97.9,92.7,97.9z
				 M92.7,93.6c-1.1,0-2,0.9-2,2c0,1.1,0.9,2,2,2c1.1,0,2-0.9,2-2C94.7,94.5,93.8,93.6,92.7,93.6z"/>
		</g>
		<g>
			<path class="st0" d="M116.6,81.2c-0.7,0-1.2-0.5-1.2-1.2s0.5-1.2,1.2-1.2c0.7,0,1.2,0.5,1.2,1.2S117.2,81.2,116.6,81.2z
				 M116.6,79.1c-0.5,0-0.9,0.4-0.9,0.9c0,0.5,0.4,0.9,0.9,0.9c0.5,0,0.9-0.4,0.9-0.9C117.5,79.5,117.1,79.1,116.6,79.1z"/>
		</g>
		<g>
			<path class="st0" d="M112.4,57.2c-0.5,0-0.9-0.4-0.9-0.9s0.4-0.9,0.9-0.9c0.5,0,0.9,0.4,0.9,0.9S112.9,57.2,112.4,57.2z
				 M112.4,55.7c-0.3,0-0.6,0.3-0.6,0.6s0.3,0.6,0.6,0.6s0.6-0.3,0.6-0.6S112.8,55.7,112.4,55.7z"/>
		</g>
		<g>
			<g>
				<g>
					<path class="st0" d="M28.2,91.1c2-3.4-1.2-7.6,1.1-10.8c0.7-1,1.8-1.9,3-1.8c2.1,0,1.7,2.2,1.6,3.6c-0.1,1.1-0.1,2.5,1.1,3
						c0.7,0.2,1.5,0,2.1-0.1c1.1-0.2,2.3-0.4,3.3-0.8c1.4-0.6,2.8-1.5,3.4-3c0.7-1.5,0.3-3-0.4-4.4c-1.1-2.3-3-5.6,0.2-7.2
						c1.3-0.6,2.8-0.6,4.2-0.7c0.7-0.1,1.5-0.1,2.1-0.5c0.7-0.6,1-1.7,1.6-2.4c1.2-1.3,3.2-1.8,4.5-0.4c0.2,0.2,0.4-0.1,0.2-0.2
						c-1.1-1.1-2.6-1.2-3.9-0.5c-0.7,0.4-1.3,1-1.7,1.6c-0.2,0.3-0.4,0.8-0.6,1.1c-0.8,1-1.9,0.9-3,1c-1.7,0.1-3.7,0.2-4.9,1.5
						c-1.2,1.3-0.8,3.2-0.2,4.7c0.5,1.2,1.3,2.2,1.6,3.5c0.4,1.6-0.1,3-1.2,4.2c-0.9,0.9-2.2,1.5-3.4,1.8c-1.2,0.3-3.4,1-4.5,0.2
						c-1-0.7-0.4-2.6-0.3-3.5c0.1-0.7,0-1.5-0.5-2.1c-0.9-1.1-2.6-0.7-3.6,0c-4.4,3-0.2,8.4-2.4,12.2C27.8,91.1,28.1,91.3,28.2,91.1
						L28.2,91.1z"/>
				</g>
			</g>
		</g>
		<g>
			<g>
				<g>
					<path class="st0" d="M56.5,65.5c0,0.1,0,0.1,0,0.2c0,0.2,0.3,0.2,0.3,0c0-0.1,0-0.1,0-0.2C56.8,65.3,56.5,65.3,56.5,65.5
						L56.5,65.5z"/>
				</g>
			</g>
		</g>
		<g>
			<g>
				<g>
					<path class="st0" d="M39.3,61.3c-0.3-1.8-0.8-3.4-1.4-5.1c-0.3-0.8-0.7-1.8-0.6-2.7c0.2-1.7,1.2-2,2.7-2.1
						c2.1-0.1,2.4-1.5,2-3.4c-0.1-0.2-0.4-0.1-0.3,0.1c0.2,0.7,0.4,1.6,0,2.3c-0.5,0.9-1.6,0.6-2.5,0.7c-1,0.1-1.6,0.5-2,1.5
						c-0.4,1.2-0.1,2.4,0.4,3.5c0.6,1.7,1.2,3.4,1.5,5.3C39,61.6,39.3,61.5,39.3,61.3L39.3,61.3z"/>
				</g>
			</g>
		</g>
		<g>
			<g>
				<g>
					<path class="st0" d="M17.5,84c1.4-1.6,3-3.4,4-5.3c0.9-1.9,0.3-3.5,0.4-5.5c0.1-1.6,0.9-4.4,2.4-5.4c1.7-1.1,3.1,0.9,4,2.1
						c1.2,1.5,3.2,3.8,5.1,1.7c1.3-1.4,0.6-3.4,0-4.9c-0.3-0.9-0.7-1.8-0.5-2.8c0.5-2.1,2.9-1.4,4.2-0.8c0.2,0.1,0.4-0.2,0.2-0.3
						c-1.2-0.5-2.8-1.1-4-0.2c-1.2,1-0.7,2.6-0.3,3.8c0.4,1.3,1.1,2.6,0.7,4c-0.6,1.8-2.5,2.1-3.8,0.9c-1-1-1.6-2.3-2.7-3.3
						c-0.8-0.7-1.7-1.1-2.7-0.6c-1.2,0.6-1.8,2-2.2,3.2c-0.3,0.9-0.6,1.7-0.6,2.6c-0.1,1.1,0.3,2.2,0.2,3.4
						c-0.1,2.8-2.8,5.3-4.5,7.2C17.1,83.9,17.3,84.2,17.5,84L17.5,84z"/>
				</g>
			</g>
		</g>
		<g>
			<g>
				<g>
					<path class="st0" d="M43.2,61.4c-0.7-1-1.2-2.2-0.9-3.5c0.3-1.4,1.4-2.1,2.6-2.7c1-0.5,1.9-0.6,2.9,0c0.5,0.3,0.9,0.6,1.3,0.9
						c1,0.7,1.3,1.5,1.1,2.7c-0.1,0.6-0.3,1.1-0.5,1.6c-1.1,2.5-3.3,4.9-5.9,6.1c-1,0.4-3.7,1.2-3.7-0.6c0.1-1.6,1.6-1.9,2.9-2.1
						c0.2,0,0.1-0.3-0.1-0.3c-1,0.2-2,0.3-2.6,1.1c-0.5,0.6-0.9,1.8-0.2,2.4c0.6,0.6,1.7,0.5,2.5,0.3c1.5-0.3,2.8-1.2,3.9-2.2
						c1.9-1.7,4.6-4.8,4.1-7.7c-0.2-1.2-1.6-1.8-2.5-2.4c-1.2-0.8-2.2-0.7-3.4-0.1c-2.8,1.3-3.7,4.1-1.8,6.7
						C43.1,61.7,43.3,61.5,43.2,61.4L43.2,61.4z"/>
				</g>
			</g>
		</g>
		<g>
			<g>
				<g>
					<path class="st0" d="M37.8,79.6c-0.2-0.4,0.3-0.9,0.7-0.5c0.4,0.4-0.1,0.9-0.5,0.7c-0.2-0.1-0.4,0.2-0.2,0.3
						c0.7,0.4,1.5-0.6,0.9-1.2c-0.6-0.6-1.5,0.2-1.2,0.9C37.6,79.9,37.9,79.7,37.8,79.6L37.8,79.6z"/>
				</g>
			</g>
		</g>
		<g>
			<g>
				<g>
					<path class="st0" d="M38.6,77.1c-0.5-0.4-0.6-1.1-0.4-1.6c0.2-0.4,0.7-1.4,1.2-1.2c0.2,0.1,0.4,0.6,0.6,0.8
						c0.2,0.3,0.3,0.6,0.3,0.9C40.3,76.8,39.5,77.8,38.6,77.1c-0.1-0.1-0.3,0.2-0.1,0.3c0.7,0.5,1.7,0.1,2-0.7
						c0.4-1.1-0.4-2.2-1.1-2.9c-0.1-0.1-0.1-0.1-0.2,0c-1.1,0.8-2.2,2.4-0.9,3.6C38.5,77.5,38.8,77.3,38.6,77.1L38.6,77.1z"/>
				</g>
			</g>
		</g>
		<g>
			<g>
				<g>
					<path class="st0" d="M20.7,84c-0.2,0-0.2-0.2-0.1-0.3c0.1-0.1,0.3-0.1,0.4,0.1c0.1,0.1,0.2,0.3,0,0.4c-0.1,0-0.3-0.1-0.2-0.1
						c0.1-0.2-0.2-0.3-0.3-0.2c-0.2,0.3,0.2,0.7,0.5,0.6c0.4-0.1,0.4-0.6,0.2-0.9c-0.2-0.3-0.8-0.4-1,0c-0.2,0.3,0.1,0.8,0.5,0.7
						C21,84.3,20.9,84,20.7,84L20.7,84z"/>
				</g>
			</g>
		</g>
		<g>
			<g>
				<g>
					<path class="st0" d="M20.4,81.7c0.5,1,1.5-0.2,1.9-0.6c0.4-0.4,1.5-1.6,0.7-2.2c-0.9-0.6-1.6,0.7-2.1,1.3
						c-0.2,0.3-0.9,0.9-0.9,1.3c0,0.3,0.3,0.4,0.5,0.3c0.2-0.1,0.1-0.4-0.1-0.3c0.1-0.2,0.2-0.4,0.3-0.5c0.1-0.1,0.1-0.2,0.2-0.3
						c0.1-0.2,0.3-0.3,0.4-0.5c0.2-0.3,0.6-1,1-1c0.4,0.2,0.6,0.5,0.4,0.7c-0.1,0.1-0.1,0.2-0.2,0.3c-0.1,0.2-0.2,0.3-0.3,0.5
						c-0.2,0.2-1.3,1.7-1.6,1C20.5,81.4,20.2,81.5,20.4,81.7L20.4,81.7z"/>
				</g>
			</g>
		</g>
		<g>
			<g>
				<g>
					<path class="st0" d="M34.3,71c-0.3,0.2-0.5,0.6-0.5,0.9c0,0.1,0.1,0.2,0.2,0.2c0.6,0,1.1-0.5,1.3-1.1c0.1-0.2,0.1-0.5-0.2-0.6
						c-0.3-0.1-0.5,0.2-0.6,0.4s0.2,0.3,0.3,0.2c0-0.1,0.1-0.2,0.2-0.2c0.1-0.1,0.1,0.1,0,0.2c-0.1,0.1-0.2,0.2-0.2,0.3
						c-0.2,0.2-0.4,0.4-0.7,0.4c0.1,0.1,0.1,0.1,0.2,0.2c0.1-0.3,0.2-0.6,0.4-0.8C34.7,71.1,34.4,70.9,34.3,71L34.3,71z"/>
				</g>
			</g>
		</g>
		<g>
			<g>
				<g>
					<path class="st0" d="M66.1,76.7c-1.6,0.2-2.7,0.2-4.2-0.4C61.1,76,60.6,76,59.8,76c-1.1,0.1-1.4-0.7-2.2-1.3
						c-0.4-0.3-0.6-0.3-1.1-0.2c-0.2,0.1-0.1,0.4,0.1,0.3c0.9-0.4,1.3,1,1.9,1.3c0.6,0.3,1.4,0,2.1,0.1c0.9,0.1,1.7,0.7,2.6,0.8
						c1,0.2,1.9,0,2.9-0.1C66.4,77,66.3,76.7,66.1,76.7L66.1,76.7z"/>
				</g>
			</g>
		</g>
		<g>
			<g>
				<g>
					<path class="st0" d="M54.9,79.1c0.9,1.3,2.7,2,4.3,1.8c2.5-0.4,3.8-3.4,6.7-2.4c0.2,0.1,0.3-0.3,0.1-0.3
						c-1.8-0.6-3.2,0.3-4.7,1.3c-0.9,0.6-1.7,1.2-2.9,1.2c-1.2-0.1-2.5-0.6-3.2-1.6C55.1,78.8,54.8,78.9,54.9,79.1L54.9,79.1z"/>
				</g>
			</g>
		</g>
		<g>
			<g>
				<g>
					<path class="st0" d="M70.8,75.9c-1.2-1.3-3-1.3-4.7-1.4c-1.3-0.1-2.6-0.3-3.9-0.4c-0.4-0.1-0.9-0.1-1.3-0.2
						c-0.7-0.6-0.9-1.2-0.6-2c0.2-0.9,0.3-1.5,1.2-2c0.4-0.4,0.9-0.4,1.4,0c0.3,0.1,0.5,0.2,0.7,0.4c0.4,0.2,0.8,0.4,1.2,0.5
						c0.7,0.3,1.4,0.4,2.2,0.2c0.7-0.2,1.3-0.5,1.8-1.1c0.5-0.6,1.5-3.8,2.9-2.3c0.1,0.2,0.4-0.1,0.2-0.2c-1.6-1.8-2.8,1.8-3.6,2.5
						c-1.7,1.5-3.5,0.4-5.2-0.3c-0.7-0.3-1.5-0.7-2.1-0.1c-0.9,1-1.8,4-0.1,4.6c1.3,0.4,3,0.3,4.3,0.5c1.8,0.2,4.1,0,5.4,1.4
						C70.7,76.3,70.9,76,70.8,75.9L70.8,75.9z"/>
				</g>
			</g>
		</g>
		<g>
			<g>
				<g>
					<path class="st0" d="M67,65.3c1.8-1.8-0.5-3.2-2.2-3.7c-1.5-0.4-3-0.8-4.5-1.4c-1.7-0.7-3.6-0.8-5.4-1.3
						c-0.2-0.1-0.3,0.3-0.1,0.3c1.2,0.3,2.4,0.4,3.6,0.7c1.1,0.2,2,0.7,3,1.1c1.4,0.5,7.9,1.4,5.3,4C66.6,65.2,66.9,65.4,67,65.3
						L67,65.3z"/>
				</g>
			</g>
		</g>
		<g>
			<g>
				<g>
					<path class="st0" d="M57.2,68.6c1,0.5,1.4,0.2,2.4-0.4c1.7-1,3.3-1.4,5.1-0.7c0.2,0.1,0.3-0.2,0.1-0.3c-1-0.4-2-0.5-3.1-0.3
						c-1.3,0.3-3,2-4.3,1.4C57.1,68.2,57,68.5,57.2,68.6L57.2,68.6z"/>
				</g>
			</g>
		</g>
		<g>
			<g>
				<g>
					<path class="st0" d="M71.7,67.7c0,0.1,0,0.2,0,0.3c0,0.2,0.3,0.2,0.3,0c0-0.1,0-0.2,0-0.3C72,67.5,71.7,67.5,71.7,67.7
						L71.7,67.7z"/>
				</g>
			</g>
		</g>
		<g>
			<g>
				<g>
					<path class="st0" d="M65.5,81.8c1.4,3.4,4.5,5.8,8.2,6.3c0.2,0,0.2-0.3,0-0.3c-3.5-0.4-6.5-2.7-7.9-6
						C65.8,81.6,65.4,81.7,65.5,81.8L65.5,81.8z"/>
				</g>
			</g>
		</g>
		<g>
			<g>
				<g>
					<path class="st0" d="M68.7,79.6c1.3,1.9,3,3.2,5.1,4c0.2,0.1,0.3-0.2,0.1-0.3c-2-0.7-3.7-2.1-4.9-3.9
						C68.9,79.3,68.6,79.4,68.7,79.6L68.7,79.6z"/>
				</g>
			</g>
		</g>
		<g>
			<g>
				<g>
					<path class="st0" d="M75.2,84.5c0.2,0.7,0.8,1,1.4,1.2c1.1,0.4,2.3,0.6,3.5,0.7c0.2,0,0.2-0.3,0-0.3c-1.2-0.1-4.1-0.3-4.6-1.8
						C75.5,84.2,75.2,84.3,75.2,84.5L75.2,84.5z"/>
				</g>
			</g>
		</g>
		<g>
			<g>
				<g>
					<path class="st0" d="M70.6,76.4c3.7,4.2,8.9,7.8,14.7,6.3c0.2-0.1,0.1-0.4-0.1-0.3c-5.7,1.5-10.8-2.1-14.4-6.2
						C70.7,76.1,70.5,76.3,70.6,76.4L70.6,76.4z"/>
				</g>
			</g>
		</g>
		<g>
			<g>
				<g>
					<path class="st0" d="M72,73.1c2.1,1.7,4.5,2.9,7.1,3.7c0.2,0.1,0.3-0.3,0.1-0.3c-2.5-0.8-4.8-2-6.9-3.6
						C72.1,72.7,71.9,73,72,73.1L72,73.1z"/>
				</g>
			</g>
		</g>
		<g>
			<g>
				<g>
					<path class="st0" d="M82.5,77.6c1.8,0.8,3.7,1,5.7,0.7c0.2,0,0.1-0.3-0.1-0.3c-1.9,0.3-3.8,0.1-5.5-0.7
						C82.4,77.2,82.3,77.6,82.5,77.6L82.5,77.6z"/>
				</g>
			</g>
		</g>
		<g>
			<g>
				<g>
					<path class="st0" d="M72.6,67.7c1.4,0.8,3,1.6,4.6,1.9c0.9,0.1,1.7,0,2.6-0.2c1.3-0.3,1.8,0.5,2.8,1.1c1.1,0.7,1.9,0.1,2.8-0.5
						c1.4-0.8,3.3,0.4,4.4-0.9c0.1-0.2-0.1-0.4-0.2-0.2c-1,1.2-2.9,0.1-4.2,0.8c-0.8,0.4-1.5,1.1-2.5,0.7c-0.5-0.2-0.9-0.9-1.4-1.1
						c-1.1-0.6-2.3,0.1-3.4,0.1c-1.9,0-3.7-1-5.4-1.9C72.5,67.3,72.4,67.6,72.6,67.7L72.6,67.7z"/>
				</g>
			</g>
		</g>
		<g>
			<g>
				<g>
					<path class="st0" d="M90,69.1C90,69.1,90,69.1,90,69.1C90,69,90.1,69,90.1,69c0.1,0,0.1,0,0.2-0.1c0.1-0.1,0.2-0.2,0.2-0.3
						c0-0.3-0.4-0.4-0.5-0.1c-0.1,0.2,0.3,0.3,0.3,0.1c-0.1,0-0.2,0-0.1,0.1c0-0.1,0-0.1,0-0.1c0,0-0.1,0-0.1,0
						c-0.1,0-0.2,0-0.2,0.1c-0.2,0.1-0.2,0.2-0.2,0.4C89.7,69.4,90,69.3,90,69.1L90,69.1z"/>
				</g>
			</g>
		</g>
		<g>
			<g>
				<g>
					<path class="st0" d="M70.9,64.2c0.3,0.5,0.8,0.4,1.3,0.4c1.2-0.1,2.3-0.1,3.5-0.2c0.2,0,0.2-0.3,0-0.3c-0.8,0-1.5,0.1-2.3,0.1
						c-0.5,0-2,0.3-2.2-0.2C71.1,63.8,70.8,64,70.9,64.2L70.9,64.2z"/>
				</g>
			</g>
		</g>
		<g>
			<g>
				<g>
					<path class="st0" d="M78.8,64.1c1.4,0.2,2.7,0.1,4-0.1c0.2,0,0.1-0.3-0.1-0.3c-1.3,0.2-2.6,0.3-4,0.1
						C78.6,63.7,78.6,64.1,78.8,64.1L78.8,64.1z"/>
				</g>
			</g>
		</g>
		<g>
			<g>
				<g>
					<path class="st0" d="M86.3,63.5c0.9-0.1,1.8-0.4,2.5-0.9c0.2-0.1,0-0.4-0.2-0.3c-0.7,0.5-1.5,0.7-2.3,0.9
						C86.1,63.2,86.1,63.5,86.3,63.5L86.3,63.5z"/>
				</g>
			</g>
		</g>
		<g>
			<g>
				<g>
					<path class="st0" d="M62.9,55.3c6.4,4.2,14.7,4.9,21.8,2c0.2-0.1,0.1-0.4-0.1-0.3c-7,2.9-15.2,2.2-21.6-1.9
						C62.9,54.9,62.7,55.2,62.9,55.3L62.9,55.3z"/>
				</g>
			</g>
		</g>
		<g>
			<g>
				<g>
					<path class="st0" d="M68.6,52.7c-0.1,0.5,0.1,0.9,0.6,1.1c0.3,0.2,0.6,0.2,1,0.2c0.9,0.1,1.7,0.2,2.6,0.4
						c0.8,0.2,1.8,0.7,2.6,0.6c0.4-0.1,0.7-0.4,1.1-0.6c0.8-0.5,1.6-0.6,2.6-0.6c0.2,0,0.2-0.3,0-0.3c-0.7,0-1.4,0-2.1,0.3
						c-0.9,0.3-1.4,1-2.5,0.8c-0.9-0.2-1.7-0.5-2.6-0.6c-0.8-0.1-3.1,0-2.9-1.2C68.9,52.5,68.6,52.5,68.6,52.7L68.6,52.7z"/>
				</g>
			</g>
		</g>
		<g>
			<g>
				<g>
					<path class="st0" d="M92.9,80.7c-2-0.7-4.6,0.1-4.9,2.5c0,0.2,0.3,0.3,0.3,0.1c0.3-2.2,2.7-2.9,4.5-2.3
						C93,81.1,93.1,80.8,92.9,80.7L92.9,80.7z"/>
				</g>
			</g>
		</g>
		<g>
			<g>
				<g>
					<path class="st0" d="M94.3,68.6c1.1,0,2.2,0,3.3,0.3c1.8,0.5,2.6,2.3,1.2,3.8c-0.8,0.9-2,1.3-2.8,2.1c-1,0.9-1.1,2.1-1.2,3.3
						c0,0.2,0.3,0.2,0.3,0c0.1-1.5,0.4-2.6,1.6-3.5c0.6-0.4,1.2-0.7,1.7-1.2c0.9-0.7,1.6-1.6,1.4-2.8c-0.4-2.4-3.7-2.3-5.5-2.3
						C94.1,68.3,94.1,68.6,94.3,68.6L94.3,68.6z"/>
				</g>
			</g>
		</g>
		<g>
			<g>
				<g>
					<path class="st0" d="M91.9,61c1.1-0.5,4-1.3,4.7,0.2c1,2.2-2.9,3.4-4,4.6c-0.2,0.2,0.1,0.4,0.2,0.2c1-1,2.4-1.5,3.4-2.5
						c0.6-0.7,1.1-1.8,0.5-2.7c-1-1.5-3.8-0.7-5.1-0.2C91.5,60.8,91.7,61,91.9,61L91.9,61z"/>
				</g>
			</g>
		</g>
		<g>
			<g>
				<g>
					<path class="st0" d="M87.5,60c0.7-1,1.7-1.6,2.9-1.7c0.5-0.1,1.1,0,1.6,0.1c0.2,0.1,0.4,0.1,0.4,0.3c0,0.2-0.9,0.7-1.1,0.8
						c-0.2,0.1,0,0.4,0.2,0.3c0.5-0.4,1-0.7,1.4-1.1c0.1-0.1,0.1-0.2,0-0.3c-2-1-4.4-0.4-5.7,1.4C87.1,60,87.4,60.2,87.5,60L87.5,60
						z"/>
				</g>
			</g>
		</g>
		<g>
			<g>
				<g>
					<path class="st0" d="M99.4,62.5c0.5-0.1,1.4,1.3,1.6,1.6c0.4,0.5,0.7,1.1,0.9,1.6c0.6,1.3,1,2.7,1.1,4.1
						c0.2,2.8-0.8,5.5-2.5,7.7c-0.1,0.2,0.1,0.4,0.2,0.2c1.9-2.5,2.9-5.6,2.5-8.8c-0.2-1.7-0.8-3.3-1.7-4.7
						c-0.4-0.6-1.3-2.3-2.2-2.1C99.1,62.3,99.2,62.6,99.4,62.5L99.4,62.5z"/>
				</g>
			</g>
		</g>
		<g>
			<g>
				<g>
					<path class="st0" d="M102.4,63c3.2,3.6,3.8,9,1.9,13.3c-0.1,0.2,0.2,0.4,0.3,0.2c2.1-4.5,1.4-10-1.9-13.7
						C102.5,62.6,102.3,62.8,102.4,63L102.4,63z"/>
				</g>
			</g>
		</g>
		<g>
			<g>
				<g>
					<path class="st0" d="M90.3,78.8c0.6,0.3,1.2,0.2,1.8-0.2c0.6-0.5,0.8-1.4,1-2.2c0-0.2-0.3-0.3-0.3-0.1
						c-0.1,0.6-0.2,1.2-0.5,1.6c-0.4,0.5-1.1,0.9-1.7,0.6C90.2,78.5,90.1,78.7,90.3,78.8L90.3,78.8z"/>
				</g>
			</g>
		</g>
		<g>
			<g>
				<g>
					<path class="st0" d="M95.2,70.2c0.4-0.1,0.9,0.1,1,0.5c0.1,0.4-0.1,0.9-0.5,1c-0.2,0.1-0.1,0.4,0.1,0.3
						c0.5-0.2,0.9-0.8,0.7-1.4c-0.2-0.6-0.8-0.9-1.4-0.7C94.9,69.9,95,70.2,95.2,70.2L95.2,70.2z"/>
				</g>
			</g>
		</g>
		<g>
			<g>
				<g>
					<path class="st0" d="M92.6,62.6c0.2-0.2,0.3-0.4,0.6-0.5c0.1-0.1,0.3-0.2,0.4-0.1c0.3,0.1,0.2,0.3,0.1,0.4
						c-0.2,0.5-0.7,0.9-1.1,1.1c-0.2,0.1,0,0.4,0.2,0.3c0.4-0.3,0.7-0.6,1-1c0.2-0.2,0.4-0.6,0.3-0.9c-0.4-0.7-1.5,0.2-1.8,0.5
						C92.2,62.6,92.5,62.7,92.6,62.6L92.6,62.6z"/>
				</g>
			</g>
		</g>
		<g>
			<g>
				<g>
					<path class="st0" d="M96.6,65.2c-0.7-0.2-1.4,0.1-1.9,0.6c-0.1,0.1-0.1,0.2,0,0.2c0.4,0.4,0.9,0.6,1.5,0.5c0.2,0,0.2-0.3,0-0.3
						c-0.5,0-0.9-0.1-1.3-0.4c0,0.1,0,0.2,0,0.2c0.4-0.5,1-0.7,1.5-0.6C96.7,65.5,96.8,65.2,96.6,65.2L96.6,65.2z"/>
				</g>
			</g>
		</g>
		<g>
			<g>
				<g>
					<path class="st0" d="M97.4,74.8c-0.6,0.5-1.1,1.1-1.5,1.8c-0.1,0.2,0.2,0.4,0.3,0.2c0.3-0.7,0.7-1.2,1.3-1.6
						C97.7,75,97.6,74.7,97.4,74.8L97.4,74.8z"/>
				</g>
			</g>
		</g>
		<g>
			<g>
				<g>
					<path class="st0" d="M76.5,72.6c-0.1-0.3,0.1-0.6,0.4-0.6c-0.1-0.1-0.1-0.1-0.2-0.1c0.1,0.3-0.2,0.7-0.5,0.6
						c-0.2-0.1-0.3,0.3-0.1,0.3c0.5,0.2,1.1-0.4,1-1c0-0.1-0.1-0.1-0.2-0.1c-0.5-0.1-0.9,0.5-0.7,1C76.3,72.9,76.6,72.8,76.5,72.6
						L76.5,72.6z"/>
				</g>
			</g>
		</g>
		<g>
			<g>
				<g>
					<path class="st0" d="M82.8,80.7c0-0.2,0.4-0.3,0.5-0.1C83.4,80.8,82.9,81,82.8,80.7c-0.1-0.1-0.4,0.1-0.3,0.2
						c0.3,0.5,1.3,0.1,1-0.5c-0.1-0.3-0.4-0.3-0.7-0.3c-0.3,0.1-0.5,0.3-0.4,0.6C82.5,81,82.8,80.9,82.8,80.7L82.8,80.7z"/>
				</g>
			</g>
		</g>
		<g>
			<g>
				<g>
					<path class="st0" d="M71.8,85c0.1-0.2,0.6-0.2,0.6,0.1c0,0.3-0.5,0.3-0.6,0.1c-0.1-0.2-0.4-0.1-0.3,0.1
						c0.2,0.5,1.2,0.4,1.2-0.2c0-0.6-1-0.7-1.2-0.2C71.4,85.1,71.7,85.2,71.8,85L71.8,85z"/>
				</g>
			</g>
		</g>
		<g>
			<g>
				<g>
					<path class="st0" d="M64.3,84.4c0-0.2,0.2-0.3,0.4-0.3c0.2,0.1,0.2,0.3,0.2,0.4c0,0,0.1-0.1,0.1-0.1c-0.2,0.1-0.3,0-0.4-0.1
						c-0.2-0.2-0.4,0.1-0.2,0.2c0.2,0.2,0.5,0.3,0.7,0.2c0.2-0.1,0.2-0.5,0.1-0.7c-0.3-0.5-1-0.3-1.1,0.2
						C64,84.5,64.3,84.6,64.3,84.4L64.3,84.4z"/>
				</g>
			</g>
		</g>
		<g>
			<g>
				<g>
					<path class="st0" d="M71.2,61c0-0.2,0.1-0.3,0.1-0.5c-0.1,0.1-0.1,0.1-0.2,0.1c0.2,0,0.5,0,0.5,0.2c0,0.1,0,0.1,0,0.2
						c-0.1,0-0.1,0-0.1-0.1C71.6,60.8,71.2,60.8,71.2,61c0,0.4,0.7,0.5,0.8,0.1c0.1-0.2,0-0.4-0.2-0.6c-0.2-0.2-0.5-0.2-0.7-0.2
						c-0.1,0-0.2,0.1-0.2,0.1c0,0.2-0.1,0.3-0.1,0.5C70.9,61.1,71.2,61.2,71.2,61L71.2,61z"/>
				</g>
			</g>
		</g>
		<g>
			<g>
				<g>
					<path class="st0" d="M79,56c0-0.2,0.4-0.3,0.5-0.1c0.1,0.2-0.3,0.4-0.4,0.2c-0.1-0.2-0.4,0-0.3,0.2c0.3,0.5,1.2,0.1,1-0.5
						c-0.2-0.5-1.1-0.3-1.1,0.2C78.7,56.2,79,56.2,79,56L79,56z"/>
				</g>
			</g>
		</g>
		<g>
			<g>
				<g>
					<path class="st0" d="M108.4,65.7c0-0.3,0.3-0.5,0.6-0.5c0.3,0,0.6,0.2,0.7,0.5c0.3,0.4,0.5,1.1,0.1,1.4
						c-0.4,0.3-0.9,0.2-1.2-0.1c-0.4-0.4-0.4-0.9-0.3-1.4c0.1-0.2-0.3-0.3-0.3-0.1c-0.2,0.7,0,1.6,0.7,2c0.5,0.3,1.4,0.1,1.6-0.4
						c0.3-0.7-0.2-1.7-0.8-2c-0.6-0.3-1.3,0-1.4,0.7C108,65.9,108.4,65.9,108.4,65.7L108.4,65.7z"/>
				</g>
			</g>
		</g>
		<g>
			<g>
				<g>
					<path class="st0" d="M109,73.1c-0.1-0.6-0.1-1.2,0.1-1.9c0.1-0.5,0.6-2.4,1.5-1.3c0.4,0.4,0.2,1.4,0.1,1.8
						c-0.1,0.4-0.3,0.7-0.4,1c-0.2,0.3-1,1.4-1.4,0.6c-0.1-0.2-0.4,0-0.3,0.2c0.4,0.9,1.4,0.3,1.8-0.3c0.6-0.8,1.1-2.2,0.7-3.2
						c-0.3-0.7-1-1-1.5-0.4c-0.9,0.8-0.9,2.5-0.8,3.5C108.7,73.3,109,73.3,109,73.1L109,73.1z"/>
				</g>
			</g>
		</g>
		<g>
			<g>
				<g>
					<path class="st0" d="M111.2,68.3c0-0.2,0-0.3,0-0.4c-0.1,0.1-0.1,0.1-0.1,0.2c0.2-0.1,0.4-0.1,0.5-0.1c-0.1,0-0.1,0-0.2-0.1
						c0.2,0.2,0.4,0.5,0.2,0.7c-0.1,0.1-0.2,0.2-0.3,0.1C111.2,68.6,111.1,68.5,111.2,68.3c0.2-0.1-0.1-0.3-0.2-0.2
						c-0.2,0.2-0.2,0.5,0.1,0.7c0.2,0.2,0.6,0.2,0.8-0.1c0.2-0.2,0.3-0.6,0.1-0.9c-0.1-0.1-0.2-0.3-0.3-0.4c-0.1,0-0.2,0-0.3,0.1
						c-0.1,0-0.2,0.1-0.4,0.1c-0.1,0-0.1,0.1-0.1,0.2c0,0.2,0,0.3,0,0.4C110.8,68.5,111.1,68.5,111.2,68.3L111.2,68.3z"/>
				</g>
			</g>
		</g>
		<g>
			<g>
				<g>
					<path class="st0" d="M112.3,70.8c0-0.1,0.2-0.1,0.3,0c0,0.1,0,0.2-0.1,0.3c0,0,0,0-0.1,0.1c0,0,0,0,0,0c0,0,0,0,0,0
						c0-0.1-0.1-0.1-0.1-0.1c-0.1-0.2-0.4-0.1-0.3,0.1c0.1,0.2,0.3,0.5,0.6,0.3c0.2-0.1,0.4-0.4,0.3-0.6c0-0.2-0.2-0.4-0.4-0.4
						s-0.4,0.1-0.5,0.3C111.9,71,112.2,71,112.3,70.8L112.3,70.8z"/>
				</g>
			</g>
		</g>
		<g>
			<g>
				<g>
					<path class="st0" d="M118.5,67.9c0.4-0.2,0.9-0.4,1.3-0.5c0.4-0.1,1.4-0.2,1.8,0.2c0.2,0.2,0.2,0.7,0.1,0.9
						c-0.1,0.2-0.2,0.3-0.4,0.4c-0.2,0.2-0.5,0.5-0.7,0.7c-0.1,0.1-0.1,0.2,0,0.3c0.7,0.4,0.3,1.4,1,1.8c0.4,0.2,0.7,0.1,0.8-0.3
						c0.1-0.2-0.3-0.3-0.3-0.1c-0.2,0.6-0.7-0.3-0.8-0.4c-0.1-0.2-0.1-0.4-0.1-0.6c-0.1-0.3-0.2-0.4-0.5-0.6c0,0.1,0,0.2,0,0.3
						c0.5-0.5,1.8-1.4,1.2-2.3c-0.8-1.2-2.8-0.5-3.7-0.1C118.2,67.7,118.3,68,118.5,67.9L118.5,67.9z"/>
				</g>
			</g>
		</g>
		<g>
			<g>
				<g>
					<path class="st0" d="M113.1,66.1c0.9-0.9,2.1-2.2,3.6-1.9c0.7,0.1,2.5,1.3,1.3,2c-0.2,0.1,0,0.4,0.2,0.3
						c1.3-0.7,0.1-1.9-0.8-2.3c-1.7-0.9-3.3,0.6-4.5,1.8C112.8,66,113,66.2,113.1,66.1L113.1,66.1z"/>
				</g>
			</g>
		</g>
		<g>
			<g>
				<g>
					<path class="st0" d="M117.9,72.4c-0.2,0.4-1,1.1-0.5,1.5c0.8,0.6,1.8-0.8,2.6-0.3c0.2,0.1,0.3-0.2,0.2-0.3
						c-0.7-0.5-1.2,0.1-1.9,0.3c-0.2,0.1-0.4,0.1-0.6,0c-0.2-0.1-0.1-0.1-0.1-0.2c0-0.1,0.1-0.1,0.1-0.2c0.1-0.2,0.3-0.5,0.4-0.7
						C118.3,72.4,118,72.2,117.9,72.4L117.9,72.4z"/>
				</g>
			</g>
		</g>
		<g>
			<g>
				<g>
					<path class="st0" d="M114.4,70.7c0.1,0.5,0.4,1,0.9,1.1c0.6,0.2,1.2-0.1,1.6-0.5c0.2-0.1-0.1-0.4-0.2-0.2
						c-0.4,0.3-0.9,0.6-1.3,0.4c-0.4-0.2-0.6-0.5-0.6-0.9C114.7,70.4,114.4,70.5,114.4,70.7L114.4,70.7z"/>
				</g>
			</g>
		</g>
		<g>
			<g>
				<g>
					<path class="st0" d="M114.7,70.6c0.1-0.4-0.2-0.9-0.5-1.1c-0.2-0.1-0.3,0.2-0.2,0.3c0.3,0.2,0.4,0.5,0.4,0.8
						C114.4,70.8,114.7,70.8,114.7,70.6L114.7,70.6z"/>
				</g>
			</g>
		</g>
		<g>
			<g>
				<g>
					<path class="st0" d="M123.5,67.2c0.9-0.1,1.7-0.3,2.5-0.6c0.2-0.1,0.1-0.4-0.1-0.3c-0.8,0.3-1.6,0.5-2.5,0.6
						C123.2,66.9,123.3,67.2,123.5,67.2L123.5,67.2z"/>
				</g>
			</g>
		</g>
		<g>
			<g>
				<g>
					<path class="st0" d="M123.6,69.5c1.1-0.1,2-0.4,2.9-1c0.2-0.1,0-0.4-0.2-0.3c-0.8,0.6-1.8,0.9-2.8,1
						C123.4,69.2,123.4,69.5,123.6,69.5L123.6,69.5z"/>
				</g>
			</g>
		</g>
		<g>
			<g>
				<g>
					<path class="st0" d="M123.1,71.3c1,0,2-0.1,3-0.5c0.2-0.1,0.1-0.4-0.1-0.3c-1,0.3-1.9,0.5-2.9,0.5
						C122.9,70.9,122.9,71.3,123.1,71.3L123.1,71.3z"/>
				</g>
			</g>
		</g>
		<g>
			<g>
				<g>
					<path class="st0" d="M127,67c0.6,1,0.5,2.2-0.2,3.2c-0.1,0.2,0.1,0.4,0.2,0.2c0.8-1,0.9-2.4,0.3-3.6
						C127.2,66.6,126.9,66.8,127,67L127,67z"/>
				</g>
			</g>
		</g>
		<g>
			<g>
				<g>
					<path class="st0" d="M129,68.5c0-0.5,0.8-0.7,1-0.3c0.1,0.2,0.1,0.4-0.1,0.6c-0.1,0.1-0.3,0.2-0.4,0.1c-0.1-0.1-0.1-0.2,0-0.3
						c0.2-0.1,0.1-0.4-0.1-0.3c-0.4,0.1-0.4,0.7-0.1,0.9c0.5,0.2,0.9-0.3,1-0.7s-0.3-0.9-0.7-0.9c-0.5-0.1-1,0.4-1,0.9
						C128.6,68.7,129,68.7,129,68.5L129,68.5z"/>
				</g>
			</g>
		</g>
		<g>
			<g>
				<g>
					<path class="st0" d="M75.4,41.2c0.4,0.2,0.7,0.4,1,0.8c0.1,0.2,0.4,0,0.3-0.2c-0.3-0.4-0.7-0.7-1.2-1
						C75.2,40.8,75.2,41.1,75.4,41.2L75.4,41.2z"/>
				</g>
			</g>
		</g>
		<g>
			<g>
				<g>
					<path class="st0" d="M77.9,39.1c-0.4,0.7-0.4,1.6,0.3,2.2c0.5,0.4,0.7,0.3,1.1,0.9c0.1,0.2,0.1,0.3,0.2,0.5
						c0.4,0.5,1.3,0.9,1.9,1.2c0.2,0.1,0.3-0.2,0.2-0.3c-0.4-0.3-1.1-0.5-1.4-0.9c-0.4-0.3-0.4-0.8-0.7-1.1
						c-0.2-0.2-0.5-0.3-0.7-0.5c-0.7-0.5-0.9-1.2-0.5-2C78.3,39.1,78,38.9,77.9,39.1L77.9,39.1z"/>
				</g>
			</g>
		</g>
		<g>
			<g>
				<g>
					<path class="st0" d="M90.9,94.8c0.4,0.3,0.8,0.5,1.2,0.7c0.3,0.2,0.5,0.3,0.7,0.5c0.2,0.3,0.2,0.6,0.2,0.9c0,0.3,0,0.5,0.3,0.7
						c0.2,0.1,0.4,0.1,0.5-0.1c0.1-0.2-0.2-0.3-0.3-0.2c-0.2-0.1-0.3-0.3-0.2-0.5c0-0.1,0-0.1,0-0.2c0-0.1,0-0.2,0-0.3
						c-0.1-0.3-0.2-0.5-0.4-0.7c-0.5-0.5-1.3-0.7-1.8-1.2C90.9,94.5,90.7,94.7,90.9,94.8L90.9,94.8z"/>
				</g>
			</g>
		</g>
		<g>
			<g>
				<g>
					<path class="st0" d="M92.6,94.6c0.1-0.1,0.3-0.2,0.5-0.1c0.2,0.1,0.4,0.3,0.2,0.4c0.1,0,0.1,0,0.1,0c-0.3-0.1-0.5-0.2-0.8-0.3
						c-0.2-0.1-0.3,0.2-0.1,0.3c0.2,0.1,0.4,0.2,0.6,0.2c0.2,0.1,0.3,0.1,0.4,0c0.2-0.2,0.2-0.4,0.1-0.6c-0.3-0.4-0.9-0.5-1.2-0.1
						C92.2,94.5,92.4,94.8,92.6,94.6L92.6,94.6z"/>
				</g>
			</g>
		</g>
		<g>
			<g>
				<g>
					<path class="st0" d="M14.5,79.5c0.2-2.7,0.5-4.9,2.2-7c1-1.2,2.3-2.4,2.7-4c0.3-1.2,0.1-2.7-1.2-3.2c-0.5-0.2-0.9-0.1-1.3,0.2
						c-0.4,0.2-0.6,0.6-1,0.8c-0.6,0.4-0.9,0.5-1.5,0c-0.6-0.5-0.6-0.8-0.5-1.5c0.1-0.2-0.3-0.3-0.3-0.1c-0.2,1,0,2.4,1.3,2.4
						c0.7,0,1.1-0.5,1.6-0.9c2-1.5,3.1,0.8,2.5,2.6c-0.6,1.8-2.3,3-3.3,4.6c-1.3,1.9-1.4,4-1.5,6.2C14.1,79.7,14.5,79.7,14.5,79.5
						L14.5,79.5z"/>
				</g>
			</g>
		</g>
		<g>
			<path class="st0" d="M60.7,44.5l-0.4-1.2l-1.2-0.3l1-0.8l-0.1-1.3l1,0.7l1.2-0.4l-0.4,1.2l0.8,1l-1.3,0L60.7,44.5z M59.4,42.9
				l1,0.3l0.3,1l0.6-0.9l1.1,0l-0.7-0.8l0.3-1l-1,0.4l-0.9-0.6l0,1.1L59.4,42.9z"/>
		</g>
		<g>
			<path class="st0" d="M105.6,52.1l-0.5-0.5l-0.6,0.1l0.3-0.6l-0.3-0.6l0.6,0.1l0.5-0.5l0.1,0.6l0.6,0.3l-0.6,0.3L105.6,52.1z
				 M105.2,51.5l0.3,0.3l0.1-0.4l0.4-0.2l-0.4-0.2l0-0.4l-0.3,0.3l-0.4-0.1l0.2,0.4l-0.2,0.4L105.2,51.5z"/>
		</g>
		<g>
			<path class="st0" d="M75.6,98.5L75.1,98l-0.6,0.1l0.3-0.6L74.5,97l0.6,0.1l0.5-0.5l0.1,0.6l0.6,0.3l-0.6,0.3L75.6,98.5z
				 M75.2,97.9l0.3,0.3l0.1-0.4l0.4-0.2l-0.4-0.2l-0.1-0.4l-0.3,0.3l-0.4-0.1l0.2,0.4L74.7,98L75.2,97.9z"/>
		</g>
		<g>
			<path class="st0" d="M48.7,97.7l-0.5-0.5l-0.6,0.1l0.3-0.6l-0.3-0.6l0.6,0.1l0.5-0.5l0.1,0.6l0.6,0.3l-0.6,0.3L48.7,97.7z
				 M48.3,97.1l0.3,0.3l0.1-0.4l0.4-0.2l-0.4-0.2l-0.1-0.4l-0.3,0.3l-0.4-0.1l0.2,0.4l-0.2,0.4L48.3,97.1z"/>
		</g>
		<g>
			<g>
				<g>
					<path class="st0" d="M91.1,66.3c-0.5,1.1,0.1,2.4,1.2,2.7c0.2,0.1,0.3-0.3,0.1-0.3c-0.9-0.3-1.4-1.4-1-2.3
						C91.4,66.3,91.2,66.1,91.1,66.3L91.1,66.3z"/>
				</g>
			</g>
		</g>
		<g>
			<g>
				<g>
					<path class="st0" d="M90.6,59.6c-0.5-0.1-1,0.5-0.8,1c0.2,0.5,0.7,0.6,1.1,0.4c0.2-0.1,0-0.4-0.2-0.3c-0.2,0.1-0.6,0-0.7-0.2
						c-0.1-0.3,0.2-0.6,0.5-0.6C90.9,60,90.9,59.7,90.6,59.6L90.6,59.6z"/>
				</g>
			</g>
		</g>
		<g>
			<g>
				<g>
					<path class="st0" d="M94,80.6c0.7,0.1,1.3-0.5,1.2-1.2c0-0.2-0.4-0.2-0.3,0c0.1,0.5-0.4,0.9-0.8,0.9
						C93.9,80.3,93.8,80.6,94,80.6L94,80.6z"/>
				</g>
			</g>
		</g>
		<g>
			<g>
				<g>
					<path class="st0" d="M92.7,74.5c0-0.8,0.2-2.4,1.4-2.1c0.2,0.1,0.3-0.3,0.1-0.3c-0.5-0.2-1,0.1-1.4,0.5
						c-0.4,0.5-0.4,1.3-0.4,1.9C92.3,74.7,92.7,74.7,92.7,74.5L92.7,74.5z"/>
				</g>
			</g>
		</g>
		<g>
			<g>
				<g>
					<path class="st0" d="M18,49.1c-0.6-0.6,4.5-3.4,5-3.7c1.8-0.9,3.7-1.5,5.6-2c3.9-1,8-1,12-0.2c0.2,0.1,0.3-0.3,0.1-0.3
						c-4.6-0.9-9.4-0.7-13.9,0.7c-1.2,0.4-10.4,4.3-9,5.8C17.9,49.4,18.1,49.2,18,49.1L18,49.1z"/>
				</g>
			</g>
		</g>
		<g>
			<g>
				<g>
					<path class="st0" d="M23.4,41.8c2.6-0.9,5.2-1.5,7.8-1.9c0.2,0,0.1-0.3-0.1-0.3c-2.7,0.4-5.3,1-7.8,1.9
						C23.1,41.5,23.2,41.8,23.4,41.8L23.4,41.8z"/>
				</g>
			</g>
		</g>
		<g>
			<g>
				<g>
					<path class="st0" d="M64.8,92.1c6.2,1.4,12.6,0.3,18-3.1c0.2-0.1,0-0.4-0.2-0.3C77.4,92,71,93.1,64.9,91.7
						C64.7,91.7,64.6,92,64.8,92.1L64.8,92.1z"/>
				</g>
			</g>
		</g>
		<g>
			<g>
				<g>
					<path class="st0" d="M77.6,94.3c1.5-0.3,3-0.9,4.2-1.8c0.2-0.1,0-0.4-0.2-0.3c-1.3,0.9-2.6,1.5-4.1,1.7
						C77.4,94,77.4,94.3,77.6,94.3L77.6,94.3z"/>
				</g>
			</g>
		</g>
		<g>
			<g>
				<g>
					<path class="st0" d="M93.5,56c1.4,0.6,2.6,1.5,3.6,2.6c0.1,0.2,0.4-0.1,0.2-0.2c-1-1.1-2.2-2-3.6-2.7
						C93.5,55.7,93.3,55.9,93.5,56L93.5,56z"/>
				</g>
			</g>
		</g>
		<g>
			<g>
				<g>
					<path class="st0" d="M95.1,54.8c0.5,0.3,0.9,0.6,1.4,0.9c0.2,0.1,0.3-0.2,0.2-0.3c-0.5-0.3-0.9-0.6-1.4-0.9
						C95.1,54.4,94.9,54.6,95.1,54.8L95.1,54.8z"/>
				</g>
			</g>
		</g>
		<g>
			<g>
				<g>
					<path class="st0" d="M105.2,79.3c0.7-0.8,1.4-1.5,2.2-2.3c0.1-0.2-0.1-0.4-0.2-0.2c-0.7,0.8-1.4,1.5-2.2,2.3
						C104.8,79.2,105.1,79.4,105.2,79.3L105.2,79.3z"/>
				</g>
			</g>
		</g>
		<g>
			<g>
				<g>
					<path class="st0" d="M107.2,79c0.3-0.4,0.6-0.7,0.9-1.1c0.1-0.2-0.1-0.4-0.2-0.2c-0.3,0.4-0.6,0.7-0.9,1.1
						C106.9,78.9,107.1,79.1,107.2,79L107.2,79z"/>
				</g>
			</g>
		</g>
		<g>
			<g>
				<g>
					<path class="st0" d="M120.2,60.8c0.2,0.2,0.3,0.4,0.5,0.6c0.1,0.2,0.4-0.1,0.2-0.2c-0.2-0.2-0.3-0.4-0.5-0.6
						C120.3,60.4,120,60.7,120.2,60.8L120.2,60.8z"/>
				</g>
			</g>
		</g>
		<g>
			<g>
				<g>
					<path class="st0" d="M121.5,60.4C121.5,60.3,121.6,60.4,121.5,60.4c0.2,0.3,0.5,0.2,0.4,0c-0.1-0.2-0.3-0.3-0.6-0.2
						C121.2,60.2,121.3,60.4,121.5,60.4L121.5,60.4z"/>
				</g>
			</g>
		</g>
	</g>
</g>
</svg>
