<?xml version="1.0" encoding="utf-8"?>
<!-- Generator: Adobe Illustrator 24.0.1, SVG Export Plug-In . SVG Version: 6.00 Build 0)  -->
<svg version="1.1" id="Layer_1" xmlns="http://www.w3.org/2000/svg" xmlns:xlink="http://www.w3.org/1999/xlink" x="0px" y="0px"
	 viewBox="0 0 141.7 141.7" style="enable-background:new 0 0 141.7 141.7;" xml:space="preserve">
<style type="text/css">
	.st0{fill:#070707;}
	.st1{enable-background:new    ;}
</style>
<g id="Layer_1_1_">
</g>
<g id="Layer_2_1_">
	<g>
		<g>
			<g>
				<path class="st0" d="M42.6,81.9c-0.1,6.8-1.4,13.6-0.8,20.4c0.5,6,3,11.4,7.1,15.8c0.2,0.3,0.7-0.1,0.4-0.4
					c-4.3-4.6-6.7-10.3-7-16.6c-0.3-6.4,0.8-12.8,0.9-19.2C43.2,81.5,42.6,81.5,42.6,81.9L42.6,81.9z"/>
			</g>
		</g>
	</g>
	<g>
		<g>
			<g>
				<path class="st0" d="M96.5,39.2c-2.5-4.7-7-7.9-12.1-9.5c-6.5-2-13.4-1-20.1-0.3c-3,0.3-6,0.7-8.7,1.9c-2.7,1.2-5.1,2.9-7.1,5.1
					c-3.9,4.3-5.8,9.9-6.5,15.6c-0.8,8-0.1,16.1,0.4,24c0,0.4,0.6,0.4,0.6,0c-0.4-6.5-1-13.1-0.7-19.6c0.2-6,1.2-12,4.6-17.1
					c1.6-2.4,3.8-4.6,6.3-6.1c2.8-1.8,5.9-2.6,9.1-3c6.1-0.8,12.6-1.7,18.8-0.7c6.1,1.1,11.9,4.4,14.9,10
					C96.2,39.8,96.7,39.5,96.5,39.2L96.5,39.2z"/>
			</g>
		</g>
	</g>
	<g>
		<g>
			<g>
				<path class="st0" d="M54.7,121.8c5,3.1,11.3,3.1,17,2.6c2.9-0.2,5.8-0.7,8.7-1.2c3.1-0.5,6.5-0.8,9.2-2.5c0.3-0.2,0-0.7-0.3-0.5
					c-2.6,1.7-6.1,1.9-9.1,2.4c-2.8,0.5-5.7,0.9-8.5,1.2c-5.5,0.5-11.8,0.5-16.7-2.5C54.7,121.1,54.5,121.6,54.7,121.8L54.7,121.8z"
					/>
			</g>
		</g>
	</g>
	<g>
		<g>
			<g>
				<path class="st0" d="M61.5,30.3c0.4,0,0.4-0.6,0-0.6C61.2,29.8,61.2,30.3,61.5,30.3L61.5,30.3z"/>
			</g>
		</g>
	</g>
	<g>
		<g>
			<g>
				<path class="st0" d="M43.1,46.7c-2.1-0.2-4.1-1.2-5.1-3.1c-1-2-0.6-4.3,0.7-6c1.2-1.5,2.9-2.6,4.8-2.9c1.8-0.3,4.3-0.2,5.6,1.3
					c0.2,0.3,0.6-0.1,0.4-0.4c-1.4-1.6-3.9-1.8-5.8-1.5c-2.3,0.3-4.4,1.6-5.7,3.5c-1.2,1.9-1.4,4.2-0.4,6.2c1.1,2.1,3.3,3.2,5.5,3.4
					C43.4,47.3,43.4,46.7,43.1,46.7L43.1,46.7z"/>
			</g>
		</g>
	</g>
	<g>
		<g>
			<g>
				<path class="st0" d="M92.4,34.5c3.2-1.6,8.3-2.5,10.5,1c2.2,3.5,0.9,9-3.6,9.8c-0.4,0.1-0.2,0.6,0.2,0.5
					c4.8-0.8,6.2-6.6,4.1-10.4c-2.3-4.1-7.9-3.3-11.4-1.5C91.8,34.2,92.1,34.6,92.4,34.5L92.4,34.5z"/>
			</g>
		</g>
	</g>
	<g>
		<g>
			<g>
				<path class="st0" d="M67.3,51.8c0.1,0,0.2,0,0.3,0c0-0.1-0.1-0.2-0.1-0.2c-0.2,0.2-0.6,0.1-0.8,0.2c-0.5,0.2-0.9,0.6-1.3,0.9
					c-0.7,0.6-1.5,1.4-1.9,2.3c-0.8,2.1,1.8,3.3,3.6,3.2c1.5-0.1,2.8-0.8,4.3-0.9c1.4-0.2,2.7,0.4,4,0.7c1.8,0.4,3.6-0.6,3.3-2.7
					c-0.3-2.2-3.1-3.4-5-4.1c-0.2-0.1-0.2,0.2-0.1,0.3c1.9,0.7,5.4,2.2,4.7,4.8c-0.5,1.9-2.3,1.6-3.8,1.2c-1-0.3-2-0.6-3.1-0.5
					c-1.3,0.1-2.5,0.7-3.8,0.9c-1.4,0.2-4.3-0.2-4.1-2.2c0.2-1.2,1.4-2.3,2.3-2.9c0.3-0.2,0.6-0.4,1-0.6c0.2-0.1,0.5-0.1,0.7-0.2
					c0.1-0.1,0-0.2-0.1-0.2c-0.1,0-0.2,0-0.3,0C67.1,51.6,67.2,51.9,67.3,51.8L67.3,51.8z"/>
			</g>
		</g>
	</g>
	<g>
		<g>
			<g>
				<path class="st0" d="M74.7,57.7c0.5,1.3,0.8,3,0.3,4.3c-0.4,1-1.7,1.7-2.6,1c-0.5-0.3-0.6-0.8-0.8-1.3c-0.1-0.2-0.3,0-0.2,0.1
					c0.3,0.6,0.5,1.3,1.1,1.6c0.7,0.3,1.5,0.2,2.1-0.2c1.6-1.1,1.2-4,0.5-5.6C74.9,57.4,74.6,57.5,74.7,57.7L74.7,57.7z"/>
			</g>
		</g>
	</g>
	<g>
		<g>
			<g>
				<path class="st0" d="M49.2,118.2c2.7-1.4,4.1,2.1,6,3.3c0-0.1,0-0.2,0-0.2c-1.5,0.2-2.8,1.3-4,2.2c-1.3,1-3.2,2.5-4.9,1.6
					c-4.2-2.4,1.5-6,3.7-7.1c0.2-0.1,0-0.3-0.1-0.2c-2.1,1.1-7.2,4-4.6,6.9c3.2,3.4,6.8-2.5,9.9-3c0.1,0,0.1-0.2,0-0.2
					c-2-1.4-3.4-4.8-6.3-3.3C48.9,118,49.1,118.3,49.2,118.2L49.2,118.2z"/>
			</g>
		</g>
	</g>
	<g>
		<g>
			<g>
				<path class="st0" d="M46.1,124.6c-0.5-1.6,0.7-2.8,2-3.5c0.2-0.1,0-0.3-0.1-0.2c-1.4,0.7-2.6,2.1-2.2,3.8
					C45.9,124.9,46.2,124.8,46.1,124.6L46.1,124.6z"/>
			</g>
		</g>
	</g>
	<g>
		<g>
			<g>
				<path class="st0" d="M94.6,124.6c-1.6-0.9-2.4-2.5-3.8-3.6c-0.5-0.5-1.2-0.7-0.5-1.9c0.3-0.4,0.9-0.8,1.3-1.1
					c1-0.7,2.2-1,3.4-0.7c1.8,0.6,3.1,2.5,3.5,4.3c0.2,1,0.2,2.1-0.6,2.9C97,125.4,95.6,125.1,94.6,124.6c-0.2-0.1-0.3,0.2-0.1,0.2
					c1.8,0.9,4.2,0.7,4.5-1.7c0.3-2.3-1.4-5-3.5-5.9c-1.1-0.5-2.3-0.4-3.3,0.2c-0.8,0.4-2.5,1.4-2.6,2.5c-0.1,0.9,1.2,1.4,1.7,2
					c1,1.1,1.9,2.2,3.1,3C94.6,124.9,94.7,124.6,94.6,124.6z"/>
			</g>
		</g>
	</g>
	<g>
		<g>
			<g>
				<path class="st0" d="M95.5,120.9c1,1.1,1.8,2.4,1.9,3.9c0,0.2,0.3,0.2,0.3,0c0-1.6-0.9-3-2-4.1
					C95.6,120.6,95.4,120.8,95.5,120.9L95.5,120.9z"/>
			</g>
		</g>
	</g>
	<g>
		<g>
			<g>
				<path class="st0" d="M101.1,76.4c0.7,0.3,1.6,0,2.4,0.1c1.6,0.3,3.1,1.2,3.8,2.7c0.8,1.7,0.1,3.7-2.1,3.3
					c-1.6-0.3-2.7-1.4-3.8-2.4c-0.1-0.1-0.3,0.1-0.2,0.2c1.2,1.2,2.5,2.4,4.3,2.6c1.3,0.1,2.2-0.6,2.3-1.8c0.2-1.5-0.7-2.9-1.9-3.7
					c-0.8-0.5-1.7-0.9-2.7-1.1c-0.6-0.1-1.5,0.2-2.1-0.1C101.1,76.1,101,76.3,101.1,76.4L101.1,76.4z"/>
			</g>
		</g>
	</g>
	<g>
		<g>
			<g>
				<path class="st0" d="M104.9,80.3c1,0.3,2.3,1.2,1.7,2.4c-0.1,0.2,0.2,0.3,0.2,0.1c0.7-1.4-0.6-2.4-1.8-2.8
					C104.8,79.9,104.7,80.2,104.9,80.3L104.9,80.3z"/>
			</g>
		</g>
	</g>
	<g>
		<path class="st0" d="M82.4,51.7c-5.1,0-9.2-4.1-9.2-9.2c0-5.1,4.1-9.2,9.2-9.2s9.2,4.1,9.2,9.2C91.6,47.5,87.5,51.7,82.4,51.7z
			 M82.4,33.5c-4.9,0-8.9,4-8.9,8.9c0,4.9,4,8.9,8.9,8.9s8.9-4,8.9-8.9C91.3,37.5,87.3,33.5,82.4,33.5z"/>
	</g>
	<g>
		<path class="st0" d="M59.5,52.6c-5.1,0-9.2-4.1-9.2-9.2s4.1-9.2,9.2-9.2c5.1,0,9.2,4.1,9.2,9.2S64.6,52.6,59.5,52.6z M59.5,34.5
			c-4.9,0-8.9,4-8.9,8.9s4,8.9,8.9,8.9c4.9,0,8.9-4,8.9-8.9S64.4,34.5,59.5,34.5z"/>
	</g>
	<g>
		<path class="st0" d="M99.8,38.8c0-1.1-0.9-1.9-1.9-1.9c-1.1,0-1.9,0.9-1.9,1.9c0,1.1,0.9,1.9,1.9,1.9
			C98.9,40.7,99.8,39.9,99.8,38.8z"/>
	</g>
	<g>
		<circle class="st0" cx="43.9" cy="40.5" r="1.9"/>
	</g>
	<g>
		<path class="st0" d="M75.1,50.8c0-1.2-1.8-2.3-4.1-2.3s-4.1,1-4.1,2.3c0,1.2,1.8,2.3,4.1,2.3C73.3,53,75.1,52.1,75.1,50.8z"/>
	</g>
	<g>
		<path class="st0" d="M79.4,42.6c0,1.6,1.3,3,3,3c1.6,0,3-1.3,3-3c0-1.6-1.3-3-3-3C80.7,39.6,79.4,41,79.4,42.6z M84.3,41.4
			c0,0.5-0.4,0.8-0.8,0.8c-0.5,0-0.8-0.4-0.8-0.8c0-0.5,0.4-0.8,0.8-0.8C83.9,40.6,84.3,40.9,84.3,41.4z"/>
	</g>
	<g>
		<path class="st0" d="M56.4,43.3c0,1.6,1.3,3,3,3c1.6,0,3-1.3,3-3c0-1.6-1.3-3-3-3C57.7,40.4,56.4,41.7,56.4,43.3z M61.2,42.1
			c0,0.5-0.4,0.8-0.8,0.8c-0.5,0-0.8-0.4-0.8-0.8c0-0.5,0.4-0.8,0.8-0.8C60.8,41.3,61.2,41.7,61.2,42.1z"/>
	</g>
	<g>
		<g>
			<g>
				<path class="st0" d="M71.3,57.1c0.2,1.2,0.2,2.7,0,3.8c-0.1,0.7-0.2,1.5-0.8,2.1c-0.6,0.6-1.6,0.5-2.3,0
					c-1.2-1.1-0.9-3.7-0.5-5.1c0-0.2-0.2-0.2-0.3-0.1c-0.5,1.6-0.9,5.2,1.3,5.8c1.1,0.3,2-0.3,2.4-1.3c0.4-0.9,0.4-1.8,0.4-2.8
					c0-0.9,0.1-1.8-0.1-2.6C71.5,56.8,71.2,56.9,71.3,57.1L71.3,57.1z"/>
			</g>
		</g>
	</g>
	<g>
		<g>
			<g>
				<path class="st0" d="M43,82.1c-2-0.4-4.2,0.6-5.7,2c-1,1-1.6,2.4-0.1,3.3c0.2,0.1,0.3-0.2,0.1-0.2c-1.8-1,0-2.8,1.1-3.5
					c1.3-0.9,2.9-1.5,4.6-1.2C43.1,82.4,43.2,82.2,43,82.1L43,82.1z"/>
			</g>
		</g>
	</g>
	<g>
		<g>
			<g>
				<path class="st0" d="M38.7,85.9c-0.6,0.3-1.4,0.8-1.4,1.6c0,0.7,0.7,1.1,1.3,1.2c1.7,0.3,3.7-1.6,4.6-2.9
					c0.1-0.1-0.1-0.3-0.2-0.1c-0.7,1-1.8,1.9-2.9,2.5c-0.7,0.3-1.9,0.6-2.4-0.2c-0.4-0.8,0.6-1.4,1.2-1.7
					C39,86.1,38.9,85.8,38.7,85.9L38.7,85.9z"/>
			</g>
		</g>
	</g>
	<g>
		<g>
			<g>
				<path class="st0" d="M100.5,76.1c0.3,7.2,0.9,14.5,0.8,21.8c0,3.5-0.3,6.9-1.3,10.3c-1,3.3-3.1,5.8-4.7,8.8
					c-0.2,0.3,0.3,0.6,0.5,0.3c1.6-2.9,3.6-5.4,4.7-8.5c1-3.2,1.4-6.6,1.5-10c0.2-7.5-0.4-15.1-0.8-22.6
					C101.1,75.7,100.5,75.7,100.5,76.1L100.5,76.1z"/>
			</g>
		</g>
	</g>
	<g>
		<g>
			<g>
				<path class="st0" d="M95.6,38.4c5.9,9.3,4.6,20.8,4.7,31.3c0,0.4,0.6,0.4,0.6,0c-0.2-10.6,1.2-22.1-4.8-31.5
					C95.9,37.8,95.4,38.1,95.6,38.4L95.6,38.4z"/>
			</g>
		</g>
	</g>
	<g>
		<g>
			<g>
				<path class="st0" d="M89.5,120.5c0,0,0.1,0,0.1,0c0.2,0,0.2-0.3,0-0.3h0c0,0-0.1,0-0.1,0.1l0,0c0,0,0,0,0,0
					c0.1,0.1,0.1,0.1,0.2,0.2c0,0,0-0.1,0-0.2C89.7,120.4,89.6,120.4,89.5,120.5c0,0,0.1,0,0.1,0.1c0.1,0.1,0.3-0.1,0.2-0.2
					c0,0-0.1-0.1-0.2-0.2c-0.1-0.1-0.2,0-0.2,0.1C89.5,120.3,89.5,120.4,89.5,120.5c-0.1,0.1,0,0.2,0.1,0.1c0.1,0,0.2-0.1,0.2-0.2
					c0,0-0.1,0-0.1,0.1h0c0.2,0,0.2-0.3,0-0.3c0,0-0.1,0-0.1,0C89.4,120.2,89.4,120.5,89.5,120.5L89.5,120.5z"/>
			</g>
		</g>
	</g>
	<g>
		<path class="st0" d="M35.5,77.6c-1.6,0-3.2-1-4.5-2.8c-1.5-2-2.4-4.7-2.8-7.7c-0.7-6.2,1.5-11.7,5.1-12.1l0,0
			c3.6-0.4,7.1,4.3,7.8,10.5c0.4,3,0,5.9-0.9,8.2c-1,2.3-2.5,3.7-4.2,3.9C35.8,77.6,35.7,77.6,35.5,77.6z M33.3,55.4
			c-3.3,0.4-5.4,5.6-4.7,11.6c0.4,2.9,1.3,5.6,2.7,7.5c1.4,1.9,3,2.8,4.6,2.6c1.6-0.2,2.9-1.5,3.8-3.6c0.9-2.2,1.2-5,0.9-8
			C39.9,59.5,36.6,55,33.3,55.4L33.3,55.4z"/>
	</g>
	<g>
		<path class="st0" d="M35.4,75.8c-1.3,0-2.5-0.9-3.6-2.5c-1.1-1.7-1.9-4-2.2-6.5c-0.3-2.5-0.1-4.9,0.6-6.8c0.7-2,1.8-3.2,3.2-3.3
			c1.4-0.2,2.7,0.7,3.9,2.5c1.1,1.7,1.9,4,2.2,6.5c0.3,2.5,0.1,4.9-0.6,6.8c-0.7,2-1.8,3.2-3.2,3.3C35.6,75.8,35.5,75.8,35.4,75.8z
			 M33.8,57.3c-0.1,0-0.2,0-0.2,0l0,0c-1.1,0.1-2,1.2-2.6,2.9c-0.6,1.8-0.8,4.1-0.5,6.5s1,4.6,2.1,6.2c1,1.5,2.2,2.3,3.3,2.2
			c1.1-0.1,2-1.2,2.6-2.9c0.6-1.8,0.8-4.1,0.5-6.5c-0.3-2.4-1-4.6-2.1-6.2C35.8,58.1,34.8,57.3,33.8,57.3z"/>
	</g>
	<g>
		<g>
			<g>
				<path class="st0" d="M35.7,77.9c0.6,4.3,1.3,8.6,1.9,12.8c0.1,0.7,1.2,0.4,1.1-0.3c-0.6-4.3-1.3-8.6-1.9-12.8
					C36.7,76.8,35.6,77.1,35.7,77.9L35.7,77.9z"/>
			</g>
		</g>
	</g>
	<g>
		<g>
			<g>
				<path class="st0" d="M67.6,28.1c-1.2,0.4-1.9-1.7-2.1-2.6c-0.2-1-0.3-2.1,0-3.1c0.5-1.8,1.9-3.1,3.8-3.2c0.9,0,1.8,0.2,2.4,0.9
					c0.3,0.4,0.9,1.3,0.3,1.7c-0.7,0.5-1.4-0.3-1.7-0.8c-1.3-2,0.5-4.5,2.8-4c0.2,0,0.5,0,0.6-0.2c0.7-1.3,1.9-2.1,3.3-2.2
					c0.7-0.1,0.7-1.2,0-1.1c-1.8,0.2-3.4,1.1-4.3,2.8c0.2-0.1,0.4-0.2,0.6-0.2c-2.4-0.5-4.9,1.2-4.7,3.8c0.1,1.2,0.7,2.3,1.6,3
					c1,0.7,2.2,0.6,2.8-0.6c1.2-2.3-1.9-4.1-3.8-4.1c-2.6,0.1-4.6,2-5,4.5c-0.3,2,0.5,7.5,3.6,6.6C68.6,29,68.3,27.9,67.6,28.1
					L67.6,28.1z"/>
			</g>
		</g>
	</g>
	<g>
		<g>
			<g>
				<path class="st0" d="M68.8,28.7c-0.6-0.8-0.6-2,0.4-2.6c0.4-0.2,0.9-0.3,1.4-0.2c0.5,0.1,1.4,0.8,0.8,1.5c0.3,0.1,0.6,0.3,1,0.4
					c-0.3-2.1,1.9-2.8,3.5-3.2c0.7-0.2,0.4-1.3-0.3-1.1c-2.1,0.6-4.7,1.7-4.4,4.3c0.1,0.5,0.6,0.8,1,0.4c1.6-1.7-0.7-3.7-2.5-3.4
					c-2.3,0.3-3,3-1.6,4.7C68.5,30,69.3,29.2,68.8,28.7L68.8,28.7z"/>
			</g>
		</g>
	</g>
	<g>
		<g>
			<g>
				<path class="st0" d="M53.3,34.5c0,0.3,0.1,0.5,0.3,0.7c0.2,0.2,0.4,0.3,0.6,0.4c0.3,0.1,0.6-0.1,0.7-0.4
					c0.1-0.3-0.1-0.6-0.4-0.7c0,0-0.1,0,0,0c0.1,0,0,0,0,0c-0.1,0,0,0,0,0c0,0,0,0-0.1,0c0,0,0.1,0.1,0,0c0,0,0-0.1,0-0.1
					c0,0,0,0.1,0,0c0,0,0-0.1,0,0c0-0.2,0-0.3-0.2-0.4c-0.1-0.1-0.2-0.2-0.4-0.2C53.6,33.9,53.3,34.2,53.3,34.5L53.3,34.5z"/>
			</g>
		</g>
	</g>
	<g>
		<g>
			<g>
				<path class="st0" d="M56.6,33.6C56.6,33.6,56.7,33.6,56.6,33.6C56.6,33.6,56.6,33.6,56.6,33.6C56.6,33.6,56.6,33.6,56.6,33.6
					C56.7,33.6,56.7,33.6,56.6,33.6C56.6,33.6,56.6,33.6,56.6,33.6C56.6,33.6,56.7,33.5,56.6,33.6c-0.1,0.4,0.1,0.7,0.4,0.8
					c0.3,0.1,0.6-0.1,0.7-0.4c0.1-0.3,0-0.7-0.1-0.9c-0.2-0.2-0.5-0.4-0.8-0.2C56.6,32.9,56.4,33.3,56.6,33.6L56.6,33.6z"/>
			</g>
		</g>
	</g>
	<g>
		<g>
			<g>
				<path class="st0" d="M59.6,32.8c0,0.2,0,0.5,0,0.7c0,0.3,0.3,0.6,0.6,0.6c0.3,0,0.6-0.2,0.6-0.6c0-0.2,0-0.5,0-0.7
					c0-0.3-0.3-0.6-0.6-0.6C59.9,32.2,59.6,32.5,59.6,32.8L59.6,32.8z"/>
			</g>
		</g>
	</g>
	<g>
		<g>
			<g>
				<path class="st0" d="M80,32c-0.1,0.3,0,0.7,0.1,0.9c0.2,0.2,0.5,0.4,0.8,0.2c0.2-0.2,0.4-0.5,0.2-0.8c0,0,0-0.1,0-0.1
					c0,0.1,0,0.1,0,0c0,0,0,0,0,0c0,0,0,0,0,0.1c0,0,0,0,0-0.1c0-0.1,0,0.1,0,0c0.1-0.3-0.1-0.6-0.4-0.7C80.4,31.6,80.1,31.7,80,32
					L80,32z"/>
			</g>
		</g>
	</g>
	<g>
		<g>
			<g>
				<path class="st0" d="M82.5,32c0,0.2-0.1,0.4-0.1,0.6c0,0.3,0.1,0.6,0.4,0.7c0.3,0.1,0.6-0.1,0.7-0.4c0-0.2,0.1-0.4,0.1-0.6
					c0-0.3-0.1-0.6-0.4-0.7C82.9,31.6,82.5,31.7,82.5,32L82.5,32z"/>
			</g>
		</g>
	</g>
	<g>
		<g>
			<g>
				<path class="st0" d="M85.7,32.7c-0.1,0.1-0.1,0.3-0.2,0.4c-0.1,0.3-0.1,0.6,0.2,0.8c0.3,0.1,0.6,0.1,0.8-0.2
					c0.1-0.1,0.1-0.3,0.2-0.4c0.1-0.3,0.1-0.6-0.2-0.8C86.2,32.4,85.9,32.4,85.7,32.7L85.7,32.7z"/>
			</g>
		</g>
	</g>
	<g>
		<g>
			<g>
				<path class="st0" d="M38.2,91.5c0.7,0,0.7-1.1,0-1.1C37.5,90.3,37.5,91.5,38.2,91.5L38.2,91.5z"/>
			</g>
		</g>
	</g>
	<g>
		<g>
			<g>
				<path class="st0" d="M37.1,91.3C37.2,91.3,37.2,91.4,37.1,91.3c0.3,0.3,0.7,0.3,0.9,0.1c0.2-0.2,0.2-0.6,0-0.8
					c0,0-0.1-0.1-0.1-0.1c-0.2-0.2-0.6-0.2-0.8,0C36.9,90.7,36.9,91.1,37.1,91.3L37.1,91.3z"/>
			</g>
		</g>
	</g>
	<g>
		<g>
			<g>
				<path class="st0" d="M38.3,91.9c0.7,0,0.7-1.1,0-1.1S37.6,91.9,38.3,91.9L38.3,91.9z"/>
			</g>
		</g>
	</g>
	<g>
		<g>
			<g>
				<path class="st0" d="M39,91.2c0.7,0,0.7-1.1,0-1.1C38.3,90.1,38.3,91.2,39,91.2L39,91.2z"/>
			</g>
		</g>
	</g>
	<g>
		<g>
			<g>
				<path class="st0" d="M37.4,90.5c0.7,0,0.7-1.1,0-1.1S36.7,90.5,37.4,90.5L37.4,90.5z"/>
			</g>
		</g>
	</g>
	<g>
		<g>
			<g>
				<path class="st0" d="M38.2,90.2C38.3,90.2,38.3,90.3,38.2,90.2c0.3,0.3,0.7,0.3,0.9,0.1s0.2-0.6,0-0.8c0,0-0.1-0.1-0.1-0.1
					c-0.2-0.2-0.6-0.2-0.8,0C38,89.6,38,90,38.2,90.2L38.2,90.2z"/>
			</g>
		</g>
	</g>
	<g>
		<g>
			<g>
				<path class="st0" d="M29.2,68.8c0.7,0,0.7-1.1,0-1.1C28.5,67.7,28.5,68.8,29.2,68.8L29.2,68.8z"/>
			</g>
		</g>
	</g>
	<g>
		<g>
			<g>
				<path class="st0" d="M28.8,66c0.7,0,0.7-1.1,0-1.1C28.1,64.8,28.1,66,28.8,66L28.8,66z"/>
			</g>
		</g>
	</g>
	<g>
		<g>
			<g>
				<path class="st0" d="M29.1,62.6c0.7,0,0.7-1.1,0-1.1S28.4,62.6,29.1,62.6L29.1,62.6z"/>
			</g>
		</g>
	</g>
	<g>
		<g>
			<g>
				<path class="st0" d="M30.1,59.4c0.7,0,0.7-1.1,0-1.1C29.4,58.3,29.4,59.4,30.1,59.4L30.1,59.4z"/>
			</g>
		</g>
	</g>
	<g>
		<g>
			<g>
				<path class="st0" d="M31.4,56.1C31.4,56.1,31.4,56.1,31.4,56.1c-0.6,0.6,0.2,1.4,0.7,0.9c0,0,0,0,0.1-0.1
					C32.7,56.3,31.9,55.6,31.4,56.1C31.4,56.1,31.4,56.1,31.4,56.1c-0.6,0.6,0.2,1.4,0.7,0.9c0,0,0,0,0.1-0.1
					C32.7,56.3,31.9,55.6,31.4,56.1L31.4,56.1z"/>
			</g>
		</g>
	</g>
	<g>
		<g>
			<g>
				<path class="st0" d="M34.2,56.5C34.2,56.5,34.3,56.5,34.2,56.5c0.3,0.3,0.7,0.3,0.9,0.1c0.2-0.2,0.2-0.6,0-0.8
					c0,0-0.1-0.1-0.1-0.1c-0.2-0.2-0.6-0.2-0.8,0C34,55.9,34,56.3,34.2,56.5L34.2,56.5z"/>
			</g>
		</g>
	</g>
	<g>
		<g>
			<g>
				<path class="st0" d="M37.3,58.6c0.7,0,0.7-1.1,0-1.1C36.6,57.5,36.6,58.6,37.3,58.6L37.3,58.6z"/>
			</g>
		</g>
	</g>
	<g>
		<g>
			<g>
				<path class="st0" d="M38.8,61.6c0.7,0,0.7-1.1,0-1.1S38.1,61.6,38.8,61.6L38.8,61.6z"/>
			</g>
		</g>
	</g>
	<g>
		<g>
			<g>
				<path class="st0" d="M40,63.4C40,63.4,39.9,63.4,40,63.4c-0.2,0-0.4,0-0.5,0c-0.1,0.1-0.2,0.2-0.2,0.3c-0.1,0.3,0.1,0.7,0.4,0.7
					c0,0,0.1,0,0.1,0c0.2,0,0.3,0,0.4-0.1c0.1-0.1,0.2-0.2,0.2-0.3C40.5,63.9,40.3,63.5,40,63.4L40,63.4z"/>
			</g>
		</g>
	</g>
	<g>
		<g>
			<g>
				<path class="st0" d="M40.1,67.7C40.1,67.7,40.1,67.7,40.1,67.7c0.4,0,0.7-0.2,0.7-0.6c0-0.3-0.2-0.6-0.6-0.6c0,0-0.1,0-0.1,0
					c-0.3,0-0.6,0.2-0.6,0.6C39.5,67.4,39.7,67.7,40.1,67.7L40.1,67.7z"/>
			</g>
		</g>
	</g>
	<g>
		<g>
			<g>
				<path class="st0" d="M39.9,71.3C40,71.3,40,71.3,39.9,71.3c0.4,0,0.7-0.2,0.7-0.6c0-0.3-0.2-0.6-0.6-0.6c0,0-0.1,0-0.1,0
					c-0.3,0-0.6,0.2-0.6,0.6C39.4,71,39.6,71.3,39.9,71.3L39.9,71.3z"/>
			</g>
		</g>
	</g>
	<g>
		<g>
			<g>
				<path class="st0" d="M38.6,73.6C38.6,73.7,38.6,73.7,38.6,73.6c0,0.4,0.2,0.7,0.6,0.7c0.3,0,0.6-0.2,0.6-0.6c0,0,0-0.1,0-0.1
					c0-0.3-0.2-0.6-0.6-0.6C38.8,73.1,38.6,73.3,38.6,73.6L38.6,73.6z"/>
			</g>
		</g>
	</g>
	<g>
		<g>
			<g>
				<path class="st0" d="M37.6,76.4c0.7,0,0.7-1.1,0-1.1S36.9,76.4,37.6,76.4L37.6,76.4z"/>
			</g>
		</g>
	</g>
	<g>
		<g>
			<g>
				<path class="st0" d="M34.7,77C34.7,77,34.8,77,34.7,77c0.4,0,0.7-0.2,0.7-0.6c0-0.3-0.2-0.6-0.6-0.6c0,0-0.1,0-0.1,0
					c-0.3,0-0.6,0.2-0.6,0.6C34.2,76.8,34.4,77,34.7,77L34.7,77z"/>
			</g>
		</g>
	</g>
	<g>
		<g>
			<g>
				<path class="st0" d="M32.1,74.4C32.1,74.4,32.1,74.5,32.1,74.4c-0.3,0.3-0.3,0.7-0.1,0.9c0.2,0.2,0.6,0.2,0.8,0
					c0,0,0.1-0.1,0.1-0.1c0.2-0.2,0.2-0.6,0-0.8C32.7,74.2,32.3,74.2,32.1,74.4L32.1,74.4z"/>
			</g>
		</g>
	</g>
	<g>
		<g>
			<g>
				<path class="st0" d="M30.4,72.5C30.4,72.5,30.5,72.5,30.4,72.5c0.4,0,0.7-0.2,0.7-0.6c0-0.3-0.2-0.6-0.6-0.6c0,0-0.1,0-0.1,0
					c-0.3,0-0.6,0.2-0.6,0.6C29.8,72.2,30.1,72.5,30.4,72.5L30.4,72.5z"/>
			</g>
		</g>
	</g>
	<g>
		<g>
			<g>
				<path class="st0" d="M32.2,60.8c0.5,2.1,1,4.3,1.5,6.4c0,0.2,0.3,0.1,0.3-0.1c-0.5-2.1-1-4.3-1.5-6.4
					C32.4,60.6,32.1,60.6,32.2,60.8L32.2,60.8z"/>
			</g>
		</g>
	</g>
	<g>
		<g>
			<g>
				<path class="st0" d="M33.4,60.6c0.3,1.4,0.6,2.8,0.9,4.2c0,0.2,0.3,0.1,0.3-0.1c-0.3-1.4-0.6-2.8-0.9-4.2
					C33.6,60.4,33.3,60.4,33.4,60.6L33.4,60.6z"/>
			</g>
		</g>
	</g>
	<g>
		<g>
			<g>
				<path d="M41.5,78.5c-1,0-1.8-0.7-1.8-1.7c0-0.9,0.8-1.7,1.8-1.7c1,0,1.8,0.7,1.8,1.7C43.2,77.8,42.4,78.5,41.5,78.5z M41.5,75.6
					c-0.7,0-1.3,0.5-1.3,1.2c0,0.7,0.6,1.2,1.3,1.2c0.7,0,1.3-0.5,1.3-1.2C42.8,76.2,42.2,75.6,41.5,75.6z"/>
			</g>
			<g class="st1">
				<path d="M41.2,77.5v-1.3h0.2v1.2H42v0.2H41.2z"/>
			</g>
		</g>
		<g>
			<g>
				<path d="M43.1,81.9c-1.1,0-2.1-0.9-2.1-2.1s0.9-2.1,2.1-2.1c1.1,0,2.1,0.9,2.1,2.1S44.2,81.9,43.1,81.9z M43.1,78.2
					c-0.9,0-1.6,0.7-1.6,1.6s0.7,1.6,1.6,1.6c0.9,0,1.6-0.7,1.6-1.6S44,78.2,43.1,78.2z"/>
			</g>
			<g class="st1">
				<path d="M42.4,79.7c0-0.3,0.1-0.5,0.2-0.7c0.1-0.2,0.3-0.2,0.6-0.2c0.2,0,0.3,0,0.4,0.1c0.1,0.1,0.2,0.2,0.3,0.3
					c0.1,0.1,0.1,0.3,0.1,0.4c0,0.2,0,0.3-0.1,0.5c-0.1,0.1-0.2,0.2-0.3,0.3c-0.1,0.1-0.3,0.1-0.4,0.1c-0.2,0-0.3,0-0.4-0.1
					c-0.1-0.1-0.2-0.2-0.3-0.3S42.4,79.9,42.4,79.7z M42.7,79.7c0,0.2,0.1,0.4,0.2,0.5c0.1,0.1,0.2,0.2,0.4,0.2
					c0.2,0,0.3-0.1,0.4-0.2c0.1-0.1,0.2-0.3,0.2-0.5c0-0.1,0-0.3-0.1-0.4s-0.1-0.2-0.2-0.2c-0.1-0.1-0.2-0.1-0.3-0.1
					c-0.2,0-0.3,0.1-0.4,0.2C42.7,79.3,42.7,79.5,42.7,79.7z"/>
			</g>
		</g>
		<g>
			<g>
				<path d="M45.2,85.7c-1.3,0-2.3-1.1-2.3-2.3s1.1-2.3,2.3-2.3c1.3,0,2.3,1.1,2.3,2.3S46.5,85.7,45.2,85.7z M45.2,81.4
					c-1,0-1.9,0.9-1.9,1.9s0.9,1.9,1.9,1.9c1,0,1.9-0.9,1.9-1.9S46.2,81.4,45.2,81.4z"/>
			</g>
			<g class="st1">
				<path d="M45.2,84.4l-0.7-1.9h0.3l0.5,1.4c0,0.1,0.1,0.2,0.1,0.3c0-0.1,0.1-0.2,0.1-0.3l0.5-1.4h0.3l-0.8,1.9H45.2z"/>
			</g>
		</g>
		<g>
			<g>
				<path d="M49.1,88.4c-1.4,0-2.5-1.1-2.5-2.5c0-1.4,1.1-2.5,2.5-2.5c1.4,0,2.5,1.1,2.5,2.5C51.5,87.3,50.4,88.4,49.1,88.4z
					 M49.1,84c-1.1,0-2,0.9-2,2s0.9,2,2,2s2-0.9,2-2S50.2,84,49.1,84z"/>
			</g>
			<g class="st1">
				<path d="M48.6,87v-2h1.5v0.2h-1.2v0.6H50V86h-1.1v0.7h1.2V87H48.6z"/>
			</g>
		</g>
		<g>
			<g>
				<path d="M58,93.4c-1.6,0-2.9-1.3-2.9-2.8c0-1.6,1.3-2.8,2.9-2.8c1.6,0,2.9,1.3,2.9,2.8C60.9,92.1,59.6,93.4,58,93.4z M58,88.2
					c-1.3,0-2.4,1.1-2.4,2.4c0,1.3,1.1,2.4,2.4,2.4s2.4-1.1,2.4-2.4C60.5,89.3,59.4,88.2,58,88.2z"/>
			</g>
			<g class="st1">
				<path d="M57.5,92v-2.3h0.9c0.2,0,0.3,0,0.4,0c0.1,0,0.2,0.1,0.3,0.1c0.1,0.1,0.1,0.1,0.2,0.2c0,0.1,0.1,0.2,0.1,0.3
					c0,0.2-0.1,0.4-0.2,0.5C59,90.9,58.8,91,58.5,91h-0.6V92H57.5z M57.8,90.7h0.6c0.2,0,0.3,0,0.4-0.1c0.1-0.1,0.1-0.2,0.1-0.3
					c0-0.1,0-0.2-0.1-0.2c-0.1-0.1-0.1-0.1-0.2-0.1c-0.1,0-0.2,0-0.3,0h-0.6V90.7z"/>
			</g>
		</g>
		<g>
			<g>
				<path d="M64.1,94.9c-2,0-3.7-1.7-3.7-3.7c0-2,1.7-3.7,3.7-3.7s3.7,1.7,3.7,3.7C67.8,93.3,66.1,94.9,64.1,94.9z M64.1,88
					c-1.8,0-3.2,1.4-3.2,3.2c0,1.8,1.4,3.2,3.2,3.2c1.8,0,3.2-1.4,3.2-3.2C67.3,89.4,65.9,88,64.1,88z"/>
			</g>
			<g class="st1">
				<path d="M63.3,92.9v-2.8h2v0.3h-1.6v0.8h1.5v0.3h-1.5v0.9h1.7v0.3H63.3z"/>
			</g>
		</g>
		<g>
			<g>
				<path d="M72,96.3c-2.6,0-4.8-2.1-4.8-4.8s2.1-4.8,4.8-4.8c2.6,0,4.8,2.1,4.8,4.8S74.6,96.3,72,96.3z M72,87.2
					c-2.4,0-4.3,1.9-4.3,4.3s1.9,4.3,4.3,4.3c2.4,0,4.3-1.9,4.3-4.3S74.4,87.2,72,87.2z"/>
			</g>
			<g class="st1">
				<path d="M70.1,93.4l1.4-3.6H72l1.5,3.6H73l-0.4-1.1H71l-0.4,1.1H70.1z M71.1,91.9h1.2l-0.4-1c-0.1-0.3-0.2-0.6-0.3-0.8
					c0,0.2-0.1,0.5-0.2,0.7L71.1,91.9z"/>
			</g>
		</g>
		<g>
			<g>
				<path d="M80,95c-1.9,0-3.5-1.5-3.5-3.5c0-1.9,1.5-3.5,3.5-3.5c1.9,0,3.5,1.5,3.5,3.5C83.4,93.5,81.9,95,80,95z M80,88.6
					c-1.7,0-3,1.3-3,3s1.3,3,3,3c1.7,0,3-1.3,3-3S81.6,88.6,80,88.6z"/>
			</g>
			<g class="st1">
				<path d="M80.8,92.1l0.3,0.1c-0.1,0.3-0.2,0.5-0.4,0.6c-0.2,0.1-0.4,0.2-0.7,0.2c-0.3,0-0.5-0.1-0.7-0.2
					c-0.2-0.1-0.3-0.3-0.4-0.5c-0.1-0.2-0.1-0.4-0.1-0.7c0-0.3,0.1-0.5,0.2-0.7c0.1-0.2,0.2-0.4,0.4-0.5c0.2-0.1,0.4-0.2,0.6-0.2
					c0.3,0,0.5,0.1,0.6,0.2s0.3,0.3,0.4,0.6l-0.3,0.1c-0.1-0.2-0.1-0.3-0.3-0.4c-0.1-0.1-0.3-0.1-0.4-0.1c-0.2,0-0.4,0-0.5,0.1
					c-0.1,0.1-0.2,0.2-0.3,0.4c-0.1,0.2-0.1,0.3-0.1,0.5c0,0.2,0,0.4,0.1,0.6c0.1,0.2,0.2,0.3,0.3,0.4c0.1,0.1,0.3,0.1,0.4,0.1
					c0.2,0,0.4-0.1,0.5-0.2C80.7,92.5,80.8,92.3,80.8,92.1z"/>
			</g>
		</g>
		<g>
			<g>
				<path d="M85.6,93c-1.7,0-3-1.4-3-3c0-1.7,1.4-3,3-3c1.7,0,3,1.4,3,3C88.6,91.7,87.3,93,85.6,93z M85.6,87.4
					c-1.4,0-2.6,1.2-2.6,2.6c0,1.4,1.2,2.6,2.6,2.6c1.4,0,2.6-1.2,2.6-2.6C88.2,88.6,87,87.4,85.6,87.4z"/>
			</g>
			<g class="st1">
				<path d="M84.9,91.3V89h1.6v0.3h-1.3V90h1.2v0.3h-1.2V91h1.4v0.3H84.9z"/>
			</g>
		</g>
		<g>
			<g>
				<path d="M93.6,87.3c-1.4,0-2.6-1.2-2.6-2.6s1.2-2.6,2.6-2.6s2.6,1.2,2.6,2.6S95.1,87.3,93.6,87.3z M93.6,82.6
					c-1.2,0-2.2,1-2.2,2.2c0,1.2,1,2.2,2.2,2.2c1.2,0,2.2-1,2.2-2.2C95.8,83.5,94.8,82.6,93.6,82.6z"/>
			</g>
			<g class="st1">
				<path d="M92.9,85.3l0.2,0c0,0.1,0,0.2,0.1,0.2c0,0.1,0.1,0.1,0.2,0.1c0.1,0,0.2,0.1,0.3,0.1c0.1,0,0.2,0,0.3,0
					c0.1,0,0.1-0.1,0.2-0.1c0-0.1,0.1-0.1,0.1-0.2c0-0.1,0-0.1-0.1-0.2c0,0-0.1-0.1-0.2-0.1c-0.1,0-0.2-0.1-0.3-0.1
					c-0.2,0-0.3-0.1-0.4-0.1c-0.1,0-0.2-0.1-0.2-0.2c0-0.1-0.1-0.2-0.1-0.2c0-0.1,0-0.2,0.1-0.3c0.1-0.1,0.1-0.1,0.2-0.2
					c0.1,0,0.2-0.1,0.4-0.1c0.1,0,0.3,0,0.4,0.1c0.1,0,0.2,0.1,0.3,0.2c0.1,0.1,0.1,0.2,0.1,0.3l-0.2,0c0-0.1-0.1-0.2-0.1-0.3
					c-0.1-0.1-0.2-0.1-0.3-0.1c-0.2,0-0.3,0-0.3,0.1c-0.1,0.1-0.1,0.1-0.1,0.2c0,0.1,0,0.1,0.1,0.2c0,0,0.2,0.1,0.4,0.1
					c0.2,0,0.3,0.1,0.4,0.1c0.1,0.1,0.2,0.1,0.2,0.2c0.1,0.1,0.1,0.2,0.1,0.3c0,0.1,0,0.2-0.1,0.3c-0.1,0.1-0.1,0.2-0.3,0.2
					c-0.1,0.1-0.2,0.1-0.4,0.1c-0.2,0-0.3,0-0.4-0.1c-0.1-0.1-0.2-0.1-0.3-0.2C92.9,85.5,92.9,85.4,92.9,85.3z"/>
			</g>
		</g>
		<g>
			<g>
				<path d="M96,83.2c-1.2,0-2.2-1-2.2-2.2s1-2.2,2.2-2.2c1.2,0,2.2,1,2.2,2.2S97.2,83.2,96,83.2z M96,79.3c-1,0-1.7,0.8-1.7,1.7
					s0.8,1.7,1.7,1.7s1.7-0.8,1.7-1.7S97,79.3,96,79.3z"/>
			</g>
			<g class="st1">
				<path d="M95.6,81.9v-1.6h0.6c0.1,0,0.2,0,0.2,0c0.1,0,0.1,0,0.2,0.1c0.1,0,0.1,0.1,0.1,0.2c0,0.1,0,0.1,0,0.2
					c0,0.1,0,0.2-0.1,0.3c-0.1,0.1-0.2,0.1-0.5,0.1h-0.4v0.6H95.6z M95.8,81.1h0.4c0.1,0,0.2,0,0.3-0.1c0.1-0.1,0.1-0.1,0.1-0.2
					c0-0.1,0-0.1,0-0.2c0,0-0.1-0.1-0.1-0.1c0,0-0.1,0-0.2,0h-0.4V81.1z"/>
			</g>
		</g>
		<g>
			<g>
				<path d="M97.9,79.7c-1.2,0-2.3-1-2.3-2.3c0-1.2,1-2.3,2.3-2.3c1.2,0,2.3,1,2.3,2.3C100.1,78.7,99.1,79.7,97.9,79.7z M97.9,75.6
					c-1,0-1.8,0.8-1.8,1.8s0.8,1.8,1.8,1.8s1.8-0.8,1.8-1.8S98.8,75.6,97.9,75.6z"/>
			</g>
			<g class="st1">
				<path d="M97.1,78.2l0.6-1.6H98l0.7,1.6h-0.2l-0.2-0.5h-0.7l-0.2,0.5H97.1z M97.6,77.6h0.5L98,77.1c-0.1-0.1-0.1-0.2-0.1-0.3
					c0,0.1,0,0.2-0.1,0.3L97.6,77.6z"/>
			</g>
		</g>
		<g>
			<g>
				<path d="M99.9,76c-1.1,0-2-0.9-2-2c0-1.1,0.9-2,2-2c1.1,0,2,0.9,2,2C101.9,75.1,101,76,99.9,76z M99.9,72.5
					c-0.8,0-1.5,0.7-1.5,1.5c0,0.8,0.7,1.5,1.5,1.5c0.8,0,1.5-0.7,1.5-1.5C101.4,73.2,100.7,72.5,99.9,72.5z"/>
			</g>
			<g class="st1">
				<path d="M100.4,74.3l0.2,0c0,0.2-0.1,0.3-0.2,0.3c-0.1,0.1-0.2,0.1-0.4,0.1c-0.2,0-0.3,0-0.4-0.1c-0.1-0.1-0.2-0.2-0.2-0.3
					c0-0.1-0.1-0.2-0.1-0.4c0-0.1,0-0.3,0.1-0.4c0.1-0.1,0.1-0.2,0.2-0.2c0.1-0.1,0.2-0.1,0.3-0.1c0.1,0,0.3,0,0.4,0.1
					c0.1,0.1,0.2,0.2,0.2,0.3l-0.2,0c0-0.1-0.1-0.2-0.1-0.2c-0.1,0-0.1-0.1-0.2-0.1c-0.1,0-0.2,0-0.3,0.1c-0.1,0.1-0.1,0.1-0.2,0.2
					c0,0.1,0,0.2,0,0.3c0,0.1,0,0.2,0.1,0.3c0,0.1,0.1,0.2,0.2,0.2c0.1,0,0.2,0.1,0.2,0.1c0.1,0,0.2,0,0.3-0.1
					C100.3,74.5,100.4,74.5,100.4,74.3z"/>
			</g>
		</g>
		<g>
			<g>
				<path d="M101.6,73.3c-1,0-1.8-0.8-1.8-1.8c0-1,0.8-1.8,1.8-1.8c1,0,1.8,0.8,1.8,1.8C103.4,72.5,102.6,73.3,101.6,73.3z
					 M101.6,70.2c-0.7,0-1.3,0.6-1.3,1.3s0.6,1.3,1.3,1.3c0.7,0,1.3-0.6,1.3-1.3S102.4,70.2,101.6,70.2z"/>
			</g>
			<g class="st1">
				<path d="M101.3,72.2V71h0.9v0.1h-0.7v0.4h0.7v0.1h-0.7v0.4h0.8v0.1H101.3z"/>
			</g>
		</g>
		<g>
			<path d="M53.3,90.8c-1.4,0-2.5-1.1-2.5-2.5c0-1.4,1.1-2.5,2.5-2.5c1.4,0,2.5,1.1,2.5,2.5C55.8,89.7,54.7,90.8,53.3,90.8z
				 M53.3,86.3c-1.1,0-2,0.9-2,2s0.9,2,2,2c1.1,0,2-0.9,2-2S54.4,86.3,53.3,86.3z"/>
		</g>
		<g>
			<path d="M90.2,90.4c-1.4,0-2.5-1.1-2.5-2.5c0-1.4,1.1-2.5,2.5-2.5c1.4,0,2.5,1.1,2.5,2.5C92.6,89.3,91.5,90.4,90.2,90.4z
				 M90.2,86c-1.1,0-2,0.9-2,2s0.9,2,2,2s2-0.9,2-2S91.3,86,90.2,86z"/>
		</g>
	</g>
	<g>
		<g>
			<g>
				<path class="st0" d="M100.9,69.5c0-1.3,0.1-2.7,0.4-4c0.2-0.7,0.4-1.3,0.6-1.9c0.1-0.3,0.2-0.7,0.4-1c0.4-0.5,1.3-0.7,1.6,0
					c0.4,1,0,2.5-0.4,3.5c-0.5,1.1-1.2,2.1-2.1,2.8c0.1,0.1,0.1,0.1,0.2,0.2c1.4-1.5,4.1-2.6,5.8-0.9c1.9,1.8-1.4,2.7-2.5,2.6
					c-1.2,0-2.3-0.5-3.3-1.2c0,0.1-0.1,0.2-0.1,0.2c1.5,0,2.9,0.7,3.6,2c0.7,1.2,0.2,2.5,0.7,3.7c0.8,1.9,2.7,0.8,3.7-0.3
					c0.1-0.1-0.1-0.3-0.2-0.2c-0.2,0.2-0.3,0.4-0.5,0.5c-0.7,0.6-1,0.8-1.9,0.4c-0.8-0.3-0.9-0.4-1-1.2c-0.1-0.4-0.1-0.7-0.1-1.1
					c0-0.8-0.2-1.6-0.6-2.3c-0.8-1.3-2.3-2.1-3.8-2c-0.1,0-0.2,0.2-0.1,0.2c1.3,1,2.8,1.4,4.4,1.2c1-0.2,2.6-0.7,2.4-2
					c-0.2-1.2-1.7-1.9-2.8-1.9c-1.6-0.1-3,0.7-4.1,1.8c-0.1,0.1,0.1,0.3,0.2,0.2c1.2-1,2.1-2.3,2.5-3.9c0.2-0.9,0.6-3-0.3-3.5
					c-2.4-1.4-3.2,6.6-3.2,7.8C100.6,69.6,100.9,69.6,100.9,69.5L100.9,69.5z"/>
			</g>
		</g>
	</g>
	<g>
		<g>
			<g>
				<path class="st0" d="M102.8,69.3c1.5-0.2,3,0.7,3.4,2.1c0.2,0.6,0.1,1.4,0.7,1.8c1.2,0.9,2.4-0.6,3-1.4c0.1-0.2-0.2-0.3-0.2-0.1
					c-0.3,0.5-0.7,1.1-1.2,1.4c-1.1,0.6-1.6-0.5-1.9-1.4c-0.1-0.5-0.3-1-0.7-1.4c-0.8-0.9-2-1.3-3.2-1.2
					C102.5,69,102.6,69.3,102.8,69.3L102.8,69.3z"/>
			</g>
		</g>
	</g>
	<g>
		<g>
			<g>
				<path class="st0" d="M101.2,69.6c-0.2-0.4-0.1-0.9,0.3-1.2c0.4-0.2,1-0.1,1.1,0.4c0.2,0.5-0.5,1.1-0.9,0.7
					c-0.2-0.3-0.1-0.8,0.2-0.9c-0.1,0-0.1-0.1-0.2-0.1c0.1,0.3,0.1,0.5,0.2,0.8c0,0.2,0.3,0.1,0.3-0.1c-0.1-0.3-0.1-0.5-0.2-0.8
					c0-0.1-0.1-0.1-0.2-0.1c-0.5,0.1-0.7,0.9-0.4,1.3c0.5,0.6,1.3,0.1,1.4-0.5c0.2-0.7-0.6-1.2-1.2-1.1c-0.7,0.1-1,1-0.8,1.7
					C100.9,69.9,101.2,69.8,101.2,69.6L101.2,69.6z"/>
			</g>
		</g>
	</g>
</g>
</svg>
