<?xml version="1.0" encoding="utf-8"?>
<!-- Generator: Adobe Illustrator 24.0.1, SVG Export Plug-In . SVG Version: 6.00 Build 0)  -->
<svg version="1.1" id="Layer_1" xmlns="http://www.w3.org/2000/svg" xmlns:xlink="http://www.w3.org/1999/xlink" x="0px" y="0px"
	 viewBox="0 0 141.7 141.7" style="enable-background:new 0 0 141.7 141.7;" xml:space="preserve">
<style type="text/css">
	.st0{fill:#231F20;}
</style>
<g id="Layer_1_1_">
</g>
<g id="Layer_1_2_">
</g>
<g id="Layer_1_3_">
</g>
<g id="Layer_1_4_">
</g>
<g id="Layer_1_5_">
</g>
<g id="Layer_3">
</g>
<g id="Layer_3_1_">
</g>
<g id="Layer_1_6_">
</g>
<g id="Layer_1_7_">
</g>
<g id="Layer_1_8_">
</g>
<g id="Layer_1_9_">
</g>
<g id="Layer_1_10_">
</g>
<g id="Layer_1_11_">
</g>
<g id="Layer_1_12_">
</g>
<g id="Layer_1_13_">
</g>
<g id="Layer_1_14_">
</g>
<g id="Layer_1_15_">
</g>
<g id="Layer_1_16_">
</g>
<g id="Layer_1_17_">
</g>
<g id="Layer_1_18_">
</g>
<g id="Layer_1_19_">
</g>
<g id="Layer_2_1_">
	<g>
		<g>
			<g>
				<path class="st0" d="M65.7,120c-11.1,10.8-28.9,10.5-39.7-0.6s-10.5-28.9,0.6-39.7s28.9-10.5,39.7,0.6S76.8,109.2,65.7,120z
					 M26.9,79.9c-11,10.6-11.3,28.2-0.6,39.2s28.2,11.3,39.2,0.6c11-10.6,11.3-28.2,0.6-39.2C55.4,69.6,37.8,69.3,26.9,79.9z"/>
			</g>
		</g>
		<g>
			<g>
				<path class="st0" d="M64.9,52.2c-4.3,4.2-6.5,9.6-6.7,15.1c0.1-0.1,0.2-0.1,0.3-0.1c0.3-5.4,2.5-10.7,6.7-14.7
					c8.7-8.4,22.6-8.2,31,0.5c8.4,8.7,8.2,22.6-0.5,31c-4.2,4.1-9.8,6.2-15.3,6.2c-0.1,0.1-0.2,0.2-0.3,0.3c5.7,0.1,11.4-2,15.8-6.2
					c8.8-8.6,9.1-22.7,0.5-31.5C87.8,43.8,73.7,43.6,64.9,52.2z"/>
			</g>
		</g>
		<g>
			<g>
				<path class="st0" d="M57.6,67.7c-1.7,1.6-2.9,3.5-3.7,5.5c0.1,0,0.2,0,0.3,0c0.8-2,2-3.8,3.6-5.4c6.3-6.1,16.4-5.9,22.5,0.3
					c6.1,6.3,5.9,16.4-0.3,22.5c-1.8,1.8-4,3-6.2,3.7c0,0.1,0,0.2,0,0.2c0,0,0,0.1,0,0.1c2.3-0.7,4.6-2,6.4-3.8
					c6.4-6.2,6.6-16.5,0.4-22.9C74.2,61.6,64,61.5,57.6,67.7z"/>
			</g>
		</g>
		<g>
			<g>
				<path class="st0" d="M82.3,43.4c-0.8,0.8-1.6,1.7-2.2,2.6c0.1,0,0.3,0,0.3,0c0.6-0.9,1.3-1.6,2-2.4c6.4-6.2,16.6-6,22.8,0.4
					s6,16.6-0.4,22.8c-0.8,0.8-1.6,1.4-2.5,2c0,0,0,0.1,0,0.1s0,0,0,0.1c0,0.1,0,0.1,0,0.2c1-0.6,1.9-1.3,2.8-2.2
					c6.5-6.3,6.7-16.7,0.4-23.2C99.3,37.3,88.9,37.1,82.3,43.4z"/>
			</g>
		</g>
		<g>
			<g>
				<path class="st0" d="M97.4,37.7c-0.6,0.5-1,1.1-1.5,1.8c0.1,0,0.3,0,0.4,0c0.4-0.5,0.8-1,1.3-1.5c3.9-3.7,10-3.6,13.7,0.2
					s3.6,10-0.2,13.7c-0.4,0.4-1,0.8-1.5,1.2c0,0.1,0,0.2,0,0.3c0.6-0.3,1.1-0.8,1.6-1.3c4-3.9,4.1-10.2,0.2-14.2
					C107.7,34,101.4,33.9,97.4,37.7z"/>
			</g>
		</g>
		<g>
			<g>
				<path class="st0" d="M106.9,31.6c-1.1,1-1.7,2.4-2,3.8c0.1,0,0.2-0.1,0.3-0.1c0.2-1.3,0.8-2.5,1.8-3.5c2.5-2.5,6.6-2.4,9.1,0.2
					c2.5,2.5,2.4,6.6-0.2,9.1c-0.7,0.7-1.5,1.1-2.3,1.4c0,0.1,0.1,0.2,0.1,0.3c0.9-0.3,1.8-0.8,2.5-1.5c2.7-2.6,2.7-6.9,0.2-9.5
					C113.9,29,109.6,29,106.9,31.6z"/>
			</g>
		</g>
		<g>
			<g>
				<path class="st0" d="M112.9,22.7c-2,2-2.8,4.8-2.2,7.4c0.1-0.1,0.2-0.1,0.3-0.2c-0.5-2.4,0.2-5.1,2.1-7c3-2.9,7.8-2.8,10.7,0.2
					s2.8,7.8-0.2,10.7c-1.5,1.5-3.5,2.2-5.4,2.1c0,0.1,0,0.2,0,0.2c0,0,0,0.1,0,0.1c2,0,4.1-0.7,5.6-2.2c3.1-3,3.2-8,0.2-11.1
					C121,19.7,116,19.7,112.9,22.7z"/>
			</g>
		</g>
		<g>
			<g>
				<path class="st0" d="M119.1,20c-0.2,0.2-0.4,0.4-0.6,0.7c0.1,0,0.3,0,0.4,0c0.1-0.2,0.3-0.3,0.4-0.4c2-2,5.3-1.9,7.3,0.1
					c2,2,1.9,5.3-0.1,7.3c-0.1,0.1-0.3,0.3-0.4,0.3c0,0.1,0,0.3,0,0.4c0.2-0.2,0.4-0.3,0.6-0.5c2.2-2.1,2.2-5.5,0.1-7.7
					C124.7,18,121.3,18,119.1,20z"/>
			</g>
		</g>
		<g>
			<g>
				<path class="st0" d="M124.9,18.4c-0.1,0.1-0.2,0.3-0.3,0.4c0.1,0,0.2,0.1,0.3,0.1c0.1-0.1,0.1-0.2,0.2-0.3
					c0.9-0.9,2.3-0.8,3.2,0.1c0.9,0.9,0.8,2.3-0.1,3.2c-0.1,0.1-0.3,0.2-0.4,0.3c0,0.1,0,0.1,0.1,0.2c0,0.1,0,0.1,0,0.2
					c0.2-0.1,0.4-0.3,0.5-0.4c1-1,1-2.6,0.1-3.6C127.5,17.5,125.9,17.5,124.9,18.4z"/>
			</g>
		</g>
		<g>
			<g>
				<path class="st0" d="M127.4,16.8c-0.4,0.4-0.6,0.9-0.6,1.3c0.1,0,0.2,0,0.3,0c0-0.4,0.2-0.8,0.5-1.1c0.7-0.7,1.8-0.6,2.4,0
					c0.7,0.7,0.6,1.8,0,2.4c-0.3,0.3-0.7,0.4-1,0.5c0,0.1,0,0.2,0,0.3c0.4,0,0.9-0.2,1.2-0.6c0.8-0.8,0.8-2.1,0-2.9
					C129.5,16,128.2,16,127.4,16.8z"/>
			</g>
		</g>
		<g>
			<path class="st0" d="M61.9,42.7c-1.1,0-2.2-0.4-3.1-1.3c-1.6-1.7-1.6-4.4,0.1-6.1l0,0c0.8-0.8,1.9-1.2,3.1-1.2
				c1.1,0,2.2,0.5,3,1.3c1.6,1.7,1.6,4.4-0.1,6.1C64,42.3,62.9,42.7,61.9,42.7z M59.1,35.6c-1.6,1.5-1.6,4-0.1,5.6
				c1.5,1.6,4,1.6,5.6,0.1c0.8-0.7,1.2-1.7,1.2-2.8c0-1.1-0.4-2.1-1.1-2.8C64,34.9,63,34.5,62,34.5C60.9,34.5,59.9,34.8,59.1,35.6
				L59.1,35.6z M62,41.7c0,0-0.1,0-0.1,0c-0.4,0-0.8-0.2-1.1-0.6c-0.6-0.6-0.8-1.7,0-2.4c0.8-0.8,1.9-0.5,2.4,0.1
				c0.6,0.6,0.8,1.7,0,2.4C62.8,41.5,62.4,41.7,62,41.7z M61.8,38.5c-0.3,0-0.6,0.1-0.9,0.4c-0.7,0.7-0.5,1.5,0,2
				c0.3,0.3,0.6,0.4,0.9,0.5c0.4,0,0.7-0.1,1-0.4c0.7-0.7,0.5-1.5,0-2C62.6,38.7,62.2,38.5,61.8,38.5z"/>
		</g>
		<g>
			<path class="st0" d="M120,76.1c-1.6,0-2.8-1.3-2.8-2.8c0-1.6,1.3-2.8,2.8-2.8c1.6,0,2.8,1.3,2.8,2.8
				C122.8,74.8,121.6,76.1,120,76.1z M120,70.8c-1.4,0-2.5,1.1-2.5,2.5c0,1.4,1.1,2.5,2.5,2.5s2.5-1.1,2.5-2.5
				C122.5,71.9,121.4,70.8,120,70.8z"/>
		</g>
		<g>
			<path class="st0" d="M127.7,40.5c-0.8,0-1.5-0.7-1.5-1.5c0-0.8,0.7-1.5,1.5-1.5c0.8,0,1.5,0.7,1.5,1.5
				C129.2,39.8,128.5,40.5,127.7,40.5z M127.7,37.9c-0.6,0-1.1,0.5-1.1,1.1s0.5,1.1,1.1,1.1c0.6,0,1.1-0.5,1.1-1.1
				S128.3,37.9,127.7,37.9z"/>
		</g>
		<g>
			<path class="st0" d="M103.8,22.7c-0.6,0-1.1-0.5-1.1-1.1c0-0.6,0.5-1.1,1.1-1.1c0.6,0,1.1,0.5,1.1,1.1
				C104.9,22.2,104.4,22.7,103.8,22.7z M103.8,20.8c-0.4,0-0.8,0.3-0.8,0.8c0,0.4,0.3,0.8,0.8,0.8c0.4,0,0.8-0.3,0.8-0.8
				C104.6,21.2,104.2,20.8,103.8,20.8z"/>
		</g>
		<g>
			<g>
				<g>
					<path class="st0" d="M59.2,124.4c-0.9-4-5.4-5.2-7.5-8.4c-0.9-1.4-1.1-3.1-0.7-4.7c0.3-1.1,1-2,2.3-2.2c1.3-0.2,2,0.7,2.8,1.7
						c0.9,1.2,2.2,3,3.9,2.2c0.8-0.3,1.3-1.2,1.8-1.9c0.8-1,1.5-2,2.1-3.1c0.9-1.7,1.4-3.7,0.8-5.6c-0.5-1.9-2-3.1-3.7-3.8
						c-2.4-1-6.3-1.5-6.7-4.7c-0.3-2.1,1.1-3.8,2.4-5.2c0.8-0.8,1.8-1.7,2.2-2.8c0.4-1.2-0.4-2.5-0.4-3.7c-0.1-2.2,1.2-4.6,3.6-4.5
						c0.3,0,0.3-0.4,0-0.4c-2,0-3.5,1.4-3.9,3.3c-0.2,1-0.1,2,0.1,3c0.3,1.2,0.3,2.3-0.4,3.3c-0.6,0.7-1.2,1.3-1.8,2
						c-1.5,1.6-2.9,3.8-2,6.1c0.7,1.7,2.6,2.6,4.3,3.2c1.3,0.5,2.8,0.8,4,1.6c1.7,1.1,2.3,3,2.2,5c-0.1,1.6-0.9,3.1-1.8,4.5
						c-1.1,1.6-2.9,4.6-5.1,2.9c-1.4-1.1-2.2-3.9-4.5-3.5c-2,0.3-2.8,2.7-2.8,4.4c0.1,5.6,7.3,6.5,8.4,11.5
						C58.9,124.7,59.2,124.6,59.2,124.4L59.2,124.4z"/>
				</g>
			</g>
		</g>
		<g>
			<g>
				<g>
					<path class="st0" d="M62.2,77.6c0,0,0.1,0.1,0.1,0.1c0.2,0.2,0.4-0.1,0.3-0.3c0,0-0.1-0.1-0.1-0.1
						C62.3,77.2,62.1,77.4,62.2,77.6L62.2,77.6z"/>
				</g>
			</g>
		</g>
		<g>
			<g>
				<g>
					<path class="st0" d="M43.5,88.6c-1.8-1.3-3.7-2.4-5.7-3.4C35.9,84.3,33,82.3,35,80c0.7-0.9,2-1.6,1.7-2.9
						c-0.2-1.1-1.3-1.9-2.2-2.4c-0.2-0.1-0.4,0.2-0.2,0.3c1.3,0.8,2.7,2.2,1.4,3.7c-0.4,0.5-0.9,0.8-1.3,1.3c-0.7,0.9-0.6,2.1-0.1,3
						c0.7,1.2,2,1.9,3.3,2.5c2,1,3.9,2,5.7,3.4C43.5,89.1,43.7,88.7,43.5,88.6L43.5,88.6z"/>
				</g>
			</g>
		</g>
		<g>
			<g>
				<g>
					<path class="st0" d="M43.6,127.3c-0.2-2.7-0.2-5.8-1.1-8.4c-0.8-2.2-2.6-3.1-4.1-4.7c-1.5-1.6-3.8-5.7-2.3-7.8
						c1.2-1.7,4.1-0.9,5.7-0.6c1.3,0.2,2.8,0.4,4-0.5c1.2-0.9,1.4-2.5,0.8-3.8c-0.8-1.7-2.6-2.4-4.2-3.2c-1.2-0.6-2.7-1.4-2.8-2.9
						c-0.1-1.9,1.9-2.8,3.4-3.3c0.2-0.1,0.1-0.5-0.1-0.4c-2.2,0.9-5.2,3.1-2.7,5.5c1.1,1.1,2.7,1.6,4.1,2.3c1,0.6,2,1.4,2.3,2.6
						c0.4,1.6-0.7,3.1-2.3,3.3c-2.4,0.3-5.5-1.6-7.7,0c-2.4,1.6-0.5,5.5,0.6,7.4c1.2,2.1,3.7,3.1,4.8,5.2c1.4,2.7,1.3,6.2,1.5,9.2
						C43.3,127.6,43.6,127.6,43.6,127.3L43.6,127.3z"/>
				</g>
			</g>
		</g>
		<g>
			<g>
				<g>
					<path class="st0" d="M47,85.3c-3.5-0.5-5.1-3.4-3.9-6.7c0.3-0.8,0.6-1.7,1.3-2.2c0.7-0.5,1.6-0.6,2.5-0.7c1-0.2,1.9-0.5,2.9,0
						c0.8,0.5,1.2,1.3,1.6,2c1.5,2.9,1.7,6.5,1.1,9.6c-0.3,1.6-0.9,3.2-2.1,4.3c-1.4,1.3-3.2-0.4-2.8-2.1c0.2-0.8,0.8-1.5,1.3-2.1
						c0.2-0.2-0.2-0.4-0.3-0.2c-0.9,1.2-1.7,2.3-1.2,3.9c0.3,1,1,1.9,2.2,1.5c3-1,3.6-5.9,3.6-8.5c0-2.1-0.3-4.1-1.1-6
						c-0.5-1.1-1.1-2.5-2.3-3.1c-0.6-0.3-1.3-0.2-1.9-0.1c-1,0.2-2,0.2-2.9,0.6c-1.3,0.5-1.9,1.8-2.2,3c-1.1,3.4,0.6,6.4,4.3,7
						C47.1,85.7,47.3,85.3,47,85.3L47,85.3z"/>
				</g>
			</g>
		</g>
		<g>
			<g>
				<g>
					<path class="st0" d="M57.8,106c-0.5-0.2-0.4-1,0.2-1c0.6,0,0.7,0.9,0.1,1c-0.3,0.1-0.1,0.4,0.1,0.4c0.4-0.1,0.7-0.6,0.7-1
						c0-0.5-0.4-0.8-0.9-0.8s-0.9,0.3-0.9,0.8c0,0.4,0.2,0.9,0.7,1C57.9,106.5,58,106.1,57.8,106L57.8,106z"/>
				</g>
			</g>
		</g>
		<g>
			<g>
				<g>
					<path class="st0" d="M56.4,103.2c-1.9,0.2-2.2-2-1.9-3.4c-0.1,0.1-0.1,0.1-0.2,0.2c1,0.1,2,0.2,2.7,0.9
						C57.7,101.6,57.7,103,56.4,103.2c-0.2,0-0.1,0.4,0.2,0.3c1.1-0.2,1.6-1.4,1.1-2.3c-0.6-1.3-2.2-1.6-3.5-1.7
						c-0.1,0-0.2,0.1-0.2,0.2c-0.3,1.6,0.2,4.1,2.3,3.9C56.7,103.6,56.7,103.2,56.4,103.2L56.4,103.2z"/>
				</g>
			</g>
		</g>
		<g>
			<g>
				<g>
					<path class="st0" d="M46.6,124.6c-0.1,0.1-0.3,0-0.3-0.1c0-0.3,0.3-0.4,0.5-0.4c0.1,0,0.4,0.2,0.3,0.3c-0.1,0.1-0.3,0.1-0.3,0
						c-0.1-0.3-0.4-0.1-0.4,0.1c0.1,0.4,0.7,0.4,1,0.2c0.3-0.4-0.1-1-0.5-1c-0.5-0.1-1.1,0.4-0.9,1c0.1,0.4,0.8,0.5,1,0.2
						C47,124.6,46.7,124.3,46.6,124.6L46.6,124.6z"/>
				</g>
			</g>
		</g>
		<g>
			<g>
				<g>
					<path class="st0" d="M44.2,122.9c1.4,0.4,1.2-1.7,1.1-2.4c-0.1-0.7-0.1-2.6-1.3-2.3c-1.2,0.3-0.7,2.3-0.6,3.2
						c0,0.3-0.1,1.4,0.3,1.6c0.3,0.2,0.5,0.1,0.6-0.2c0.1-0.2-0.2-0.4-0.3-0.2c0.1-0.1-0.2-0.9-0.2-1.1c0-0.2,0-0.5-0.1-0.7
						c0-0.4-0.3-1.2-0.1-1.6c0-0.3,0.2-0.4,0.5-0.2c0.3-0.2,0.5-0.1,0.5,0.2c0.2,0.3,0.2,0.8,0.2,1.1c0,0.3,0.3,2.4-0.6,2.2
						C44.1,122.4,44,122.8,44.2,122.9L44.2,122.9z"/>
				</g>
			</g>
		</g>
		<g>
			<g>
				<g>
					<path class="st0" d="M47.4,101.4c0,0.4,0.1,0.9,0.3,1.3c0.1,0.1,0.2,0.1,0.3,0c0.3-0.3,0.4-0.6,0.4-1c0-0.3,0-0.9-0.2-1.2
						c-0.1-0.2-0.4-0.4-0.6-0.2c-0.3,0.2-0.3,0.6-0.2,0.8c0.1,0.3,0.4,0.2,0.4-0.1c0-0.1,0-0.2,0-0.2c0.1-0.1,0.2,0,0.2,0.1
						c0.1,0.1,0.1,0.4,0.1,0.5c0,0.4,0,0.7-0.3,1c0.1,0,0.2,0,0.3,0c-0.2-0.3-0.3-0.7-0.3-1C47.8,101.2,47.4,101.2,47.4,101.4
						L47.4,101.4z"/>
				</g>
			</g>
		</g>
		<g>
			<g>
				<g>
					<path class="st0" d="M80.3,79.3c-1.2,1.6-2.2,2.4-4.1,3.2c-0.9,0.4-1.3,0.8-2,1.4c-0.6,0.6-1.1,1-2,1c-0.3,0-0.7-0.2-1-0.1
						c-0.6,0-0.9,0.2-1.1,0.8c-0.1,0.2,0.3,0.4,0.3,0.2c0.5-1.1,1.9-0.2,2.8-0.4c0.8-0.2,1.1-1,1.7-1.5c1-1,2.5-1.1,3.6-2
						c0.8-0.6,1.5-1.5,2.1-2.3C80.8,79.3,80.5,79.1,80.3,79.3L80.3,79.3z"/>
				</g>
			</g>
		</g>
		<g>
			<g>
				<g>
					<path class="st0" d="M72.5,91c2.1,0.4,4.6-0.7,5.6-2.6c1.4-2.5,0.4-5.9,3.5-7.4c0.2-0.1,0-0.4-0.2-0.3
						c-1.9,0.9-2.5,2.7-2.9,4.6c-0.3,1.3-0.3,2.7-1.3,3.7c-1.1,1.2-2.9,2-4.6,1.6C72.4,90.5,72.3,90.9,72.5,91L72.5,91z"/>
				</g>
			</g>
		</g>
		<g>
			<g>
				<g>
					<path class="st0" d="M83.8,74.5c-2.2-0.2-3.8,1.5-5.4,2.8c-1.2,1-2.4,2.2-3.8,3C73.4,81,72,81.4,71.1,80
						c-0.6-1-1.6-2.6-0.3-3.6c0.9-0.7,2.4-0.8,3.5-1.2c0.7-0.3,1.4-0.8,1.9-1.5c0.4-0.6,0.7-1.4,0.8-2.2c0.1-1.1-1.8-5.1,0.6-4.9
						c0.3,0,0.3-0.4,0-0.4c-0.8,0-1.4,0.5-1.6,1.3c-0.5,1.6,1,3.2,0.5,4.9c-0.7,2.3-2.9,2.7-4.8,3.4c-0.9,0.3-1.8,0.7-1.8,1.7
						c0,1.6,1.8,5.1,3.8,4.1c1.5-0.7,2.9-2.2,4.2-3.3c1.7-1.3,3.7-3.5,6-3.4C84,75,84,74.6,83.8,74.5L83.8,74.5z"/>
				</g>
			</g>
		</g>
		<g>
			<g>
				<g>
					<path class="st0" d="M71.4,68.4c0.1-3-2.9-2.5-4.8-1.6c-1,0.5-1.8,1.1-2.7,1.6c-1,0.6-2.1,0.9-3.2,1.4
						c-1.9,0.8-3.5,2.2-5.4,3.3c-0.2,0.1,0,0.5,0.2,0.3c1.3-0.7,2.4-1.6,3.7-2.4c1.3-0.8,2.8-1.2,4.2-1.9c1.6-0.8,7.7-5.2,7.5-0.7
						C71,68.7,71.4,68.7,71.4,68.4L71.4,68.4z"/>
				</g>
			</g>
		</g>
		<g>
			<g>
				<g>
					<path class="st0" d="M65.5,79.7c1.5-0.6,1.4-1.3,1.9-2.8c0.6-2.1,1.7-3.7,3.8-4.6c0.2-0.1,0.1-0.5-0.1-0.4
						c-1.3,0.5-2.3,1.3-3.1,2.5c-0.9,1.4-1,4.2-2.6,4.9C65.2,79.4,65.3,79.8,65.5,79.7L65.5,79.7z"/>
				</g>
			</g>
		</g>
		<g>
			<g>
				<g>
					<path class="st0" d="M77.5,66.5c0.1,0.1,0.2,0.2,0.3,0.3c0.2,0.2,0.4-0.1,0.3-0.3c-0.1-0.1-0.2-0.2-0.3-0.3
						C77.6,66.1,77.4,66.3,77.5,66.5L77.5,66.5z"/>
				</g>
			</g>
		</g>
		<g>
			<g>
				<g>
					<path class="st0" d="M84.2,84.3c4.2,1.8,8.9,1.3,12.5-1.5c0.2-0.2,0-0.5-0.2-0.3c-3.5,2.7-8.1,3.2-12.1,1.5
						C84.2,83.9,84,84.2,84.2,84.3L84.2,84.3z"/>
				</g>
			</g>
		</g>
		<g>
			<g>
				<g>
					<path class="st0" d="M85.1,79.6c2.7,0.6,5.4,0.3,8-0.8c0.2-0.1,0-0.4-0.2-0.3c-2.5,1-5.1,1.3-7.7,0.8
						C85,79.2,84.9,79.5,85.1,79.6L85.1,79.6z"/>
				</g>
			</g>
		</g>
		<g>
			<g>
				<g>
					<path class="st0" d="M95.1,78.3c0.9,0.5,1.8,0.1,2.7-0.3c1.2-0.6,2.3-1.3,3.4-2.2c0.2-0.2-0.1-0.4-0.3-0.3
						c-1.1,1-3.9,3.2-5.5,2.4C95,77.9,94.8,78.3,95.1,78.3L95.1,78.3z"/>
				</g>
			</g>
		</g>
		<g>
			<g>
				<g>
					<path class="st0" d="M84.1,75.2c6.8,0.5,14.5-0.7,18.3-7.1c0.1-0.2-0.2-0.4-0.3-0.2c-3.7,6.3-11.3,7.4-18,6.9
						C83.8,74.8,83.8,75.2,84.1,75.2L84.1,75.2z"/>
				</g>
			</g>
		</g>
		<g>
			<g>
				<g>
					<path class="st0" d="M82.5,71c3.3-0.3,6.4-1.2,9.4-2.8c0.2-0.1,0-0.4-0.2-0.3c-2.9,1.5-6,2.4-9.2,2.7
						C82.2,70.6,82.2,71.1,82.5,71L82.5,71z"/>
				</g>
			</g>
		</g>
		<g>
			<g>
				<g>
					<path class="st0" d="M95.6,66.1c2.3-0.9,4.2-2.3,5.6-4.3c0.2-0.2-0.2-0.4-0.3-0.2c-1.4,1.9-3.2,3.3-5.4,4.1
						C95.3,65.8,95.3,66.1,95.6,66.1L95.6,66.1z"/>
				</g>
			</g>
		</g>
		<g>
			<g>
				<g>
					<path class="st0" d="M78.4,65.8c2-0.5,4-1.1,5.6-2.2c0.6-0.4,1.2-1,1.7-1.6c0.4-0.5,0.6-1,1.1-1.5c0.8-0.7,1.6-0.6,2.5-0.7
						c1.7-0.2,2-1.2,2.4-2.7c0.4-1.5,1.5-1.9,2.5-3c0.5-0.5,0.7-1.1,0.7-1.8c0-0.3-0.4-0.3-0.4,0c0.1,1.7-1.5,2.1-2.4,3.1
						c-0.4,0.4-0.6,0.9-0.7,1.4c-0.4,1.5-0.6,2.5-2.5,2.7c-0.6,0.1-1.3,0-1.9,0.3c-0.4,0.3-0.7,0.7-1,1.1c-0.6,0.9-1.2,1.7-2.2,2.4
						c-1.6,1.2-3.6,1.7-5.5,2.2C78,65.5,78.1,65.9,78.4,65.8L78.4,65.8z"/>
				</g>
			</g>
		</g>
		<g>
			<g>
				<g>
					<path class="st0" d="M94.9,52.1C94.9,52.1,94.9,52.1,94.9,52.1c0-0.1,0-0.1,0.1-0.1c0-0.1,0.1-0.2,0.1-0.2
						c0.1-0.2,0.1-0.4-0.1-0.5c-0.3-0.2-0.7,0.1-0.5,0.4c0.1,0.2,0.5,0,0.3-0.2c-0.1,0.2-0.1,0.2-0.1,0.2c0,0,0,0-0.1,0l-0.1,0.1
						c-0.1,0.1-0.1,0.2-0.1,0.3c-0.1,0.2,0,0.4,0.2,0.5C94.9,52.6,95.1,52.3,94.9,52.1L94.9,52.1z"/>
				</g>
			</g>
		</g>
		<g>
			<g>
				<g>
					<path class="st0" d="M73.9,64.1c0.8,0.2,1.3-0.6,1.8-1.1c0.9-1,1.8-1.9,2.7-2.9c0.2-0.2-0.1-0.5-0.3-0.3
						c-0.6,0.7-1.2,1.3-1.9,2c-0.4,0.5-1.5,2-2.2,1.8C73.7,63.6,73.6,64,73.9,64.1L73.9,64.1z"/>
				</g>
			</g>
		</g>
		<g>
			<g>
				<g>
					<path class="st0" d="M80.8,57.3c1.4-1,2.5-2.2,3.5-3.6c0.2-0.2-0.2-0.4-0.3-0.2c-1,1.3-2.1,2.5-3.4,3.5
						C80.4,57.1,80.6,57.4,80.8,57.3L80.8,57.3z"/>
				</g>
			</g>
		</g>
		<g>
			<g>
				<g>
					<path class="st0" d="M86.9,50.3c0.7-0.9,1.2-1.8,1.5-2.9c0.1-0.3-0.3-0.3-0.4-0.1c-0.2,1-0.7,2-1.4,2.8
						C86.4,50.2,86.7,50.5,86.9,50.3L86.9,50.3z"/>
				</g>
			</g>
		</g>
		<g>
			<g>
				<g>
					<path class="st0" d="M59.2,63.1c9.3-1.8,17.2-8.3,20.9-16.9c0.1-0.2-0.3-0.4-0.3-0.2c-3.7,8.6-11.5,15-20.7,16.8
						C58.8,62.8,58.9,63.1,59.2,63.1L59.2,63.1z"/>
				</g>
			</g>
		</g>
		<g>
			<g>
				<g>
					<path class="st0" d="M62,56c0.4,0.5,0.9,0.6,1.4,0.5c1.3-0.3,2.5-1.8,3.6-2.5c0.9-0.5,2.2-0.9,2.9-1.7c0.3-0.3,0.3-0.6,0.3-1
						c0.3-1.4,0.8-2.2,1.8-3.3c0.2-0.2-0.1-0.5-0.3-0.3c-0.6,0.6-1.2,1.2-1.6,2c-0.5,1.1-0.7,2.2-1.7,2.9c-0.9,0.6-1.9,1-2.8,1.6
						c-0.8,0.5-2.5,2.5-3.5,1.3C62.1,55.5,61.9,55.8,62,56L62,56z"/>
				</g>
			</g>
		</g>
		<g>
			<g>
				<g>
					<path class="st0" d="M107.5,59.9c-2.4,1.2-3.9,4-2.2,6.4c0.2,0.2,0.5,0,0.3-0.2c-1.6-2.2-0.1-4.8,2.1-5.9
						C107.9,60.1,107.7,59.8,107.5,59.9L107.5,59.9z"/>
				</g>
			</g>
		</g>
		<g>
			<g>
				<g>
					<path class="st0" d="M98.3,48c1-1,2-2,3.3-2.7c1.1-0.5,2.3-0.7,3.3,0.2c1,0.9,0.9,2.2,0.7,3.4c-0.2,1.2-0.7,2.5-0.5,3.7
						c0.2,1.3,1,2.3,1.8,3.2c0.2,0.2,0.4-0.1,0.3-0.3c-1.2-1.4-1.9-2.5-1.6-4.4c0.1-0.9,0.4-1.8,0.5-2.7c0.2-1.4,0-2.8-1.2-3.6
						c-2.4-1.7-5.2,1.1-6.8,2.7C97.9,47.9,98.1,48.2,98.3,48L98.3,48z"/>
				</g>
			</g>
		</g>
		<g>
			<g>
				<g>
					<path class="st0" d="M89.6,43.3c0.6-1.4,2.4-4.5,4.2-3.9c2.9,0.9,0.6,5.5,0.5,7.5c0,0.3,0.4,0.3,0.4,0c0-2,2.4-7-0.9-7.9
						c-2.1-0.6-4,2.6-4.7,4.1C89.2,43.4,89.6,43.6,89.6,43.3L89.6,43.3z"/>
				</g>
			</g>
		</g>
		<g>
			<g>
				<g>
					<path class="st0" d="M85,46.2c-0.4-2.5,1.1-4.9,3.5-5.6c-0.1-0.1-0.2-0.1-0.3-0.2c-0.1,0.7-0.2,1.4-0.3,2.1
						c0,0.3,0.3,0.3,0.4,0.1c0.1-0.7,0.2-1.5,0.3-2.2c0-0.1-0.1-0.2-0.3-0.2c-2.6,0.8-4.3,3.4-3.8,6.1C84.6,46.5,85,46.4,85,46.2
						L85,46.2z"/>
				</g>
			</g>
		</g>
		<g>
			<g>
				<g>
					<path class="st0" d="M97.6,38.3c0.4-0.6,2.6,0,3.1,0.1c0.8,0.2,1.5,0.4,2.2,0.7c1.6,0.7,3.2,1.6,4.4,2.9
						c2.4,2.3,3.8,5.4,4.2,8.7c0,0.3,0.4,0.3,0.4,0c-0.4-3.9-2.2-7.4-5.3-9.9c-1.6-1.2-3.4-2.2-5.3-2.7c-0.9-0.3-3.4-1-4.1-0.1
						C97.1,38.3,97.5,38.5,97.6,38.3L97.6,38.3z"/>
				</g>
			</g>
		</g>
		<g>
			<g>
				<g>
					<path class="st0" d="M100.7,36.1c5.9,0.4,11.1,4.7,13.1,10.2c0.1,0.3,0.5,0.1,0.4-0.1c-2-5.7-7.3-10-13.4-10.5
						C100.4,35.7,100.4,36.1,100.7,36.1L100.7,36.1z"/>
				</g>
			</g>
		</g>
		<g>
			<g>
				<g>
					<path class="st0" d="M103.5,60.5c0.8-0.2,1.2-0.9,1.3-1.6c0.1-1-0.5-2-1-2.8c-0.1-0.2-0.5,0-0.3,0.2c0.7,1,1.9,3.4-0.1,3.9
						C103.1,60.2,103.2,60.5,103.5,60.5L103.5,60.5z"/>
				</g>
			</g>
		</g>
		<g>
			<g>
				<g>
					<path class="st0" d="M100.4,48.6c0.3-0.4,0.8-0.7,1.3-0.4c0.4,0.2,0.6,0.8,0.4,1.3c-0.1,0.2,0.2,0.4,0.3,0.2
						c0.3-0.6,0.1-1.5-0.6-1.8c-0.6-0.3-1.5,0-1.8,0.6C100,48.6,100.3,48.8,100.4,48.6L100.4,48.6z"/>
				</g>
			</g>
		</g>
		<g>
			<g>
				<g>
					<path class="st0" d="M91.6,44.2c-0.1-0.3,0-0.7,0.1-1c0-0.1,0.1-0.3,0.2-0.3c0-0.1,0.1-0.1,0.3,0c0.2,0,0.3,0.1,0.3,0.3
						c0.3,0.5,0.1,1.4,0,2c-0.1,0.3,0.3,0.3,0.4,0.1c0.1-0.7,0.4-2.5-0.5-2.8c-1-0.3-1.1,1.4-1,2C91.3,44.5,91.7,44.4,91.6,44.2
						L91.6,44.2z"/>
				</g>
			</g>
		</g>
		<g>
			<g>
				<g>
					<path class="st0" d="M97.4,43c-0.7,0.5-1.2,1.3-1.1,2.2c0,0.1,0.1,0.2,0.2,0.2c0.7,0,1.3-0.3,1.8-0.8c0.2-0.2-0.1-0.5-0.3-0.3
						c-0.4,0.4-0.9,0.7-1.5,0.7c0.1,0.1,0.1,0.1,0.2,0.2c-0.1-0.7,0.3-1.4,0.9-1.8C97.8,43.2,97.6,42.9,97.4,43L97.4,43z"/>
				</g>
			</g>
		</g>
		<g>
			<g>
				<g>
					<path class="st0" d="M106.4,50.8c-0.2,1-0.1,1.9,0.2,2.8c0.1,0.3,0.5,0.1,0.4-0.1c-0.3-0.9-0.4-1.7-0.2-2.6
						C106.8,50.7,106.4,50.6,106.4,50.8L106.4,50.8z"/>
				</g>
			</g>
		</g>
		<g>
			<g>
				<g>
					<path class="st0" d="M86,66.7c-0.3-0.2-0.4-0.6-0.1-0.9c-0.1,0-0.2,0-0.3,0c0.4,0.2,0.3,0.8,0,1c-0.2,0.1,0,0.4,0.2,0.3
						c0.6-0.3,0.6-1.3,0-1.6c-0.1,0-0.2,0-0.3,0c-0.5,0.4-0.3,1.2,0.2,1.5C86.1,67.2,86.3,66.8,86,66.7L86,66.7z"/>
				</g>
			</g>
		</g>
		<g>
			<g>
				<g>
					<path class="st0" d="M98.5,68.5c-0.3-0.2,0.1-0.7,0.3-0.5C99.1,68.1,98.8,68.6,98.5,68.5c-0.2-0.1-0.3,0.3,0,0.4
						c0.7,0.2,1.2-0.9,0.6-1.3c-0.7-0.4-1.4,0.7-0.8,1.2C98.4,69,98.7,68.7,98.5,68.5L98.5,68.5z"/>
				</g>
			</g>
		</g>
		<g>
			<g>
				<g>
					<path class="st0" d="M92.5,81.8c-0.1-0.3,0.3-0.7,0.6-0.4c0.3,0.2-0.1,0.7-0.4,0.6c-0.2-0.1-0.4,0.3-0.2,0.3
						c0.3,0.2,0.7,0,0.9-0.3c0.2-0.3,0.3-0.7,0-0.9c-0.5-0.5-1.5,0.1-1.3,0.8C92.2,82.1,92.6,82,92.5,81.8L92.5,81.8z"/>
				</g>
			</g>
		</g>
		<g>
			<g>
				<g>
					<path class="st0" d="M85.3,87.6c-0.1-0.2-0.1-0.4,0.1-0.5c0.2-0.1,0.4,0,0.5,0.2c0-0.1,0-0.1,0-0.2c-0.1,0.2-0.3,0.3-0.5,0.3
						c-0.3,0-0.3,0.4,0,0.4c0.3,0,0.7-0.2,0.8-0.5c0.1-0.3-0.3-0.6-0.5-0.6c-0.7-0.2-1.2,0.6-0.8,1.1C85.1,88,85.4,87.8,85.3,87.6
						L85.3,87.6z"/>
				</g>
			</g>
		</g>
		<g>
			<g>
				<g>
					<path class="st0" d="M71.4,61c-0.1-0.2-0.2-0.3-0.3-0.5c0,0.1,0,0.2,0,0.3c0.2-0.2,0.3-0.4,0.6-0.3c0.1,0,0.2,0.1,0.2,0.1
						c0,0.1-0.1,0.1-0.1,0.1C71.6,60.5,71.3,60.8,71.4,61c0.3,0.3,1-0.2,0.7-0.6c-0.1-0.2-0.4-0.3-0.6-0.3c-0.3,0-0.6,0.2-0.8,0.4
						c-0.1,0.1-0.1,0.2,0,0.3c0.1,0.2,0.2,0.3,0.3,0.5C71.2,61.5,71.6,61.3,71.4,61L71.4,61z"/>
				</g>
			</g>
		</g>
		<g>
			<g>
				<g>
					<path class="st0" d="M74.1,49.9c-0.2-0.2,0.1-0.7,0.4-0.5c0.2,0.2,0,0.6-0.2,0.6c-0.3,0-0.3,0.3-0.1,0.4
						c0.7,0.1,1.1-0.9,0.5-1.3c-0.6-0.4-1.4,0.6-0.9,1.1C74,50.4,74.2,50.1,74.1,49.9L74.1,49.9z"/>
				</g>
			</g>
		</g>
		<g>
			<g>
				<g>
					<path class="st0" d="M108.2,33.3c-0.3-0.3-0.1-0.7,0.1-1c0.3-0.3,0.7-0.3,1.1-0.2c0.5,0.1,1.3,0.4,1.2,1.1c0,0.6-0.6,1.1-1.2,1
						c-0.6,0-1.1-0.5-1.4-1c-0.1-0.2-0.5,0-0.3,0.2c0.5,0.8,1.4,1.4,2.4,1.1c0.7-0.3,1.3-1.1,0.9-1.8c-0.3-0.8-1.6-1.2-2.5-1
						c-0.8,0.3-1.1,1.2-0.6,1.8C108.1,33.8,108.4,33.5,108.2,33.3L108.2,33.3z"/>
				</g>
			</g>
		</g>
		<g>
			<g>
				<g>
					<path class="st0" d="M115.2,39.4c-0.6-0.5-1-1-1.5-1.6c-0.3-0.4-1.6-2.8,0.2-2.6c0.7,0.1,1.4,1,1.6,1.6c0.2,0.3,0.3,0.7,0.4,1
						c0.1,0.3,0.1,0.5,0.1,0.8c0.1,0.5-0.2,0.9-0.8,1.1c-0.2-0.1-0.4,0.3-0.2,0.3c1.1,0.4,1.5-0.7,1.4-1.6c-0.1-1.3-0.8-2.8-1.9-3.5
						c-0.8-0.5-1.9-0.3-1.9,0.8c0,1.4,1.3,2.9,2.3,3.8C115.1,39.9,115.3,39.6,115.2,39.4L115.2,39.4z"/>
				</g>
			</g>
		</g>
		<g>
			<g>
				<g>
					<path class="st0" d="M112.9,33.3c-0.1-0.1-0.2-0.3-0.3-0.4c0,0.1,0,0.2,0,0.3c0.1-0.2,0.3-0.4,0.4-0.6c-0.1,0-0.1,0.1-0.2,0.1
						c0.3,0,0.8,0.1,0.8,0.5c0,0.2,0,0.3-0.2,0.3c-0.1,0-0.3,0-0.3-0.2c0-0.3-0.4-0.3-0.4,0c0,0.3,0.3,0.6,0.7,0.6
						c0.4,0,0.6-0.4,0.6-0.8c0-0.4-0.3-0.7-0.7-0.8c-0.2-0.1-0.4-0.1-0.6,0c-0.1,0.1-0.2,0.2-0.2,0.3c-0.1,0.1-0.2,0.3-0.2,0.4
						c-0.1,0.1,0,0.2,0,0.3c0.1,0.1,0.2,0.3,0.3,0.4C112.8,33.8,113.1,33.5,112.9,33.3L112.9,33.3z"/>
				</g>
			</g>
		</g>
		<g>
			<g>
				<g>
					<path class="st0" d="M116.1,34.6c-0.1-0.1,0.1-0.3,0.2-0.2c0.2,0.1,0.2,0.3,0.1,0.5c0,0,0.1-0.1,0.1-0.1
						c-0.1,0.1-0.2,0.1-0.3,0c-0.2-0.1-0.4,0.2-0.2,0.3c0.3,0.2,0.7,0.1,0.8-0.2c0.1-0.3,0-0.6-0.2-0.8c-0.2-0.2-0.5-0.2-0.7,0
						c-0.2,0.2-0.3,0.4-0.2,0.7C115.9,35,116.2,34.8,116.1,34.6L116.1,34.6z"/>
				</g>
			</g>
		</g>
		<g>
			<g>
				<g>
					<path class="st0" d="M119.1,26.7c0.4-1,1.7-3.6,3.1-2.6c0.7,0.5,0.4,1.6,0.4,2.3c0,0.1,0.1,0.2,0.3,0.2c1-0.2,1.5,1.1,2.5,0.7
						c0.5-0.2,0.6-0.5,0.3-1c-0.1-0.2-0.4,0-0.3,0.2c-0.4,0.4-0.8,0.5-1.2,0.2c-0.1-0.1-0.2-0.1-0.2-0.2c-0.2-0.1-0.3-0.2-0.5-0.3
						c-0.5-0.2-0.4,0.2-0.4-0.5c0-0.7,0.1-1.6-0.4-2.1c-1.6-1.4-3.4,1.9-3.8,2.9C118.7,26.8,119,26.9,119.1,26.7L119.1,26.7z"/>
				</g>
			</g>
		</g>
		<g>
			<g>
				<g>
					<path class="st0" d="M112.8,29.7c0-1.6,0-4,1.6-4.8c0.8-0.4,3.2-0.9,2.7,0.7c-0.1,0.3,0.3,0.3,0.4,0.1c0.6-1.7-1.5-1.7-2.6-1.4
						c-2.3,0.7-2.4,3.4-2.5,5.4C112.4,29.9,112.8,29.9,112.8,29.7L112.8,29.7z"/>
				</g>
			</g>
		</g>
		<g>
			<g>
				<g>
					<path class="st0" d="M122.4,31.1c0.1,0.5,0.1,2.1,1,1.7c0.4-0.2,0.7-0.6,0.8-1c0.2-0.5,0.3-1.4,1-1.5c0.3,0,0.3-0.4,0-0.4
						c-0.9,0.1-1,0.9-1.3,1.6c-0.1,0.2-0.2,0.4-0.4,0.6c-0.2,0.1-0.3,0.3-0.5,0.1c0-0.1-0.1-0.2-0.1-0.3c-0.1-0.4-0.2-0.8-0.2-1.1
						C122.7,30.8,122.3,30.9,122.4,31.1L122.4,31.1z"/>
				</g>
			</g>
		</g>
		<g>
			<g>
				<g>
					<path class="st0" d="M117.9,32.7c0.5,0.4,1.2,0.5,1.8,0.3c0.7-0.3,0.9-1.1,1-1.8c0-0.3-0.4-0.3-0.4,0c0,0.6-0.2,1.2-0.8,1.5
						c-0.5,0.2-1,0-1.4-0.3C117.9,32.2,117.7,32.5,117.9,32.7L117.9,32.7z"/>
				</g>
			</g>
		</g>
		<g>
			<g>
				<g>
					<path class="st0" d="M118.1,32.3c-0.3-0.4-0.9-0.7-1.4-0.5c-0.3,0.1-0.2,0.4,0.1,0.4c0.4-0.1,0.8,0.1,1,0.4
						C117.9,32.8,118.3,32.6,118.1,32.3L118.1,32.3z"/>
				</g>
			</g>
		</g>
		<g>
			<g>
				<g>
					<path class="st0" d="M122.8,21.9c0.7-0.9,1.2-1.7,1.7-2.7c0.1-0.2-0.2-0.4-0.3-0.2c-0.5,0.9-1,1.8-1.7,2.6
						C122.4,21.8,122.7,22,122.8,21.9L122.8,21.9z"/>
				</g>
			</g>
		</g>
		<g>
			<g>
				<g>
					<path class="st0" d="M124.9,23.7c0.9-1,1.5-2.1,1.7-3.4c0.1-0.3-0.3-0.3-0.4-0.1c-0.3,1.2-0.8,2.3-1.6,3.2
						C124.5,23.6,124.7,23.9,124.9,23.7L124.9,23.7z"/>
				</g>
			</g>
		</g>
		<g>
			<g>
				<g>
					<path class="st0" d="M126,25.7c0.9-0.9,1.7-1.9,2.2-3c0.1-0.2-0.2-0.4-0.3-0.2c-0.5,1.1-1.3,2.1-2.2,2.9
						C125.6,25.6,125.9,25.8,126,25.7L126,25.7z"/>
				</g>
			</g>
		</g>
		<g>
			<g>
				<g>
					<path class="st0" d="M125.8,18.6c1.4,0.4,2.4,1.6,2.5,3c0,0.3,0.4,0.3,0.4,0c-0.1-1.6-1.2-2.9-2.8-3.4
						C125.7,18.1,125.6,18.5,125.8,18.6L125.8,18.6z"/>
				</g>
			</g>
		</g>
		<g>
			<g>
				<g>
					<path class="st0" d="M128.8,18.2c-0.4-0.4,0-1.2,0.6-1.1c0.3,0.1,0.5,0.3,0.6,0.5c0,0.1,0,0.3-0.1,0.4c-0.1,0.1-0.5,0-0.3-0.2
						s-0.2-0.4-0.3-0.2c-0.3,0.5,0.3,1,0.8,0.8c0.5-0.3,0.5-1.1,0.1-1.5c-0.4-0.4-1.1-0.4-1.5,0c-0.4,0.4-0.4,1.1,0,1.5
						C128.7,18.7,129,18.4,128.8,18.2L128.8,18.2z"/>
				</g>
			</g>
		</g>
		<g>
			<g>
				<g>
					<path class="st0" d="M58.1,40c0.5-0.2,1-0.3,1.6-0.2c0.3,0.1,0.3-0.3,0.1-0.4c-0.6-0.1-1.2-0.1-1.8,0.2
						C57.7,39.7,57.8,40.1,58.1,40L58.1,40z"/>
				</g>
			</g>
		</g>
		<g>
			<g>
				<g>
					<path class="st0" d="M58.6,36c0.3,1.2,1.2,1.7,2.4,1.6c0.7,0,1.4,0.2,2.1,0.2c0.9,0,1.8-0.3,2.7-0.5c0.3-0.1,0.2-0.4-0.1-0.4
						c-0.6,0.2-1.4,0.5-2,0.5c-0.5,0-1-0.3-1.6-0.3c-0.2,0-0.3,0-0.5,0c-0.3,0.1-0.7,0.2-1,0.3c-0.9-0.1-1.4-0.6-1.6-1.4
						C58.9,35.6,58.5,35.7,58.6,36L58.6,36z"/>
				</g>
			</g>
		</g>
		<g>
			<g>
				<g>
					<path class="st0" d="M117.7,74.1c0.7,0,1.2-0.3,1.9-0.4c0.3-0.1,0.8-0.1,1.1,0c0.6,0.2,0.5,0.6,0.9,0.9c0.4,0.3,1,0.2,1-0.3
						c0-0.3-0.4-0.3-0.4,0c0,0.3-0.8-0.6-0.9-0.7c-0.2-0.2-0.5-0.3-0.7-0.3c-1-0.2-1.8,0.4-2.8,0.5
						C117.4,73.7,117.4,74.1,117.7,74.1L117.7,74.1z"/>
				</g>
			</g>
		</g>
		<g>
			<g>
				<g>
					<path class="st0" d="M119,72.5c0-0.2,0.1-0.4,0.3-0.5c0.2-0.1,0.6-0.1,0.5,0.2c0,0,0.1-0.1,0.1-0.1
						C119.6,72.1,119.3,72.3,119,72.5c-0.3,0-0.2,0.4,0,0.3c0.2-0.1,0.5-0.2,0.7-0.3c0.2-0.1,0.4-0.1,0.4-0.3
						c0.1-0.3-0.1-0.6-0.4-0.7c-0.6-0.1-1.2,0.3-1.2,1C118.6,72.7,119,72.7,119,72.5L119,72.5z"/>
				</g>
			</g>
		</g>
		<g>
			<g>
				<g>
					<path class="st0" d="M37.1,125.9c-2-2.3-3.6-4.4-4-7.5c-0.2-2,0-4-0.8-5.9c-0.6-1.4-1.8-2.7-3.5-2.5c-0.9,0.1-1.3,0.3-1.6,1.1
						c-0.2,0.4-0.1,0.9-0.2,1.3c0.1,1.1-0.5,1.8-1.8,2.1c-0.6-0.2-1.1-0.6-1.4-1.2c-0.1-0.2-0.5,0-0.3,0.2c0.7,1.1,2.2,2.1,3.3,0.9
						c0.6-0.7,0.4-1.6,0.6-2.4c0.3-1.2,1.2-1.8,2.4-1.5c0.4,0.1,0.8,0.4,1.1,0.7c0.6,0.6,1,1.4,1.2,2.2c0.6,2.2,0.3,4.5,0.8,6.7
						c0.6,2.4,2.2,4.2,3.8,6.1C37,126.3,37.3,126.1,37.1,125.9L37.1,125.9z"/>
				</g>
			</g>
		</g>
		<g>
			<path class="st0" d="M45.3,55.4l0.2-1.5l-1.1-1.1l1.5-0.3l0.7-1.4l0.7,1.4l1.5,0.2l-1.1,1.1l0.3,1.5l-1.4-0.7L45.3,55.4z
				 M44.7,52.9l1,0.9l-0.2,1.3l1.1-0.6l1.2,0.6l-0.3-1.3l0.9-1l-1.3-0.1l-0.6-1.2L46,52.7L44.7,52.9z"/>
		</g>
		<g>
			<path class="st0" d="M93,24.3l-0.2-0.7L92,23.3l0.7-0.4v-0.8l0.6,0.5l0.8-0.2l-0.3,0.7l0.5,0.6l-0.8,0L93,24.3z M92.4,23.3
				l0.5,0.2L93,24l0.3-0.4l0.5,0l-0.3-0.4l0.2-0.5l-0.5,0.2l-0.4-0.3V23L92.4,23.3z"/>
		</g>
		<g>
			<path class="st0" d="M106.1,91l-0.2-0.7l-0.7-0.3l0.6-0.4v-0.8l0.6,0.5l0.7-0.3l-0.3,0.8l0.4,0.6h-0.8L106.1,91z M105.5,90
				l0.5,0.2l0.1,0.5l0.3-0.4h0.6l-0.3-0.4l0.2-0.5l-0.5,0.2l-0.4-0.4v0.6L105.5,90z"/>
		</g>
		<g>
			<path class="st0" d="M81.7,113.4l-0.2-0.8l-0.7-0.3l0.6-0.4l0-0.8l0.6,0.5l0.8-0.3l-0.3,0.8l0.4,0.7l-0.8,0L81.7,113.4z
				 M81,112.3l0.5,0.2l0.2,0.5l0.3-0.4l0.6,0l-0.3-0.5l0.2-0.5l-0.5,0.2l-0.4-0.3l0,0.5L81,112.3z"/>
		</g>
		<g>
			<g>
				<g>
					<path class="st0" d="M93.5,48.8c0.5,1.4,2.1,2,3.4,1.3c0.2-0.1,0-0.4-0.2-0.3c-1,0.5-2.4,0-2.9-1.1
						C93.8,48.4,93.4,48.5,93.5,48.8L93.5,48.8z"/>
				</g>
			</g>
		</g>
		<g>
			<g>
				<g>
					<path class="st0" d="M87.5,43.2c-0.5,0.4-0.5,1.2,0,1.6c0.5,0.4,1.3,0.1,1.5-0.5c0.1-0.3-0.3-0.3-0.4-0.1
						c-0.1,0.3-0.5,0.5-0.9,0.3c-0.3-0.2-0.3-0.7,0-0.9C87.8,43.4,87.7,43,87.5,43.2L87.5,43.2z"/>
				</g>
			</g>
		</g>
		<g>
			<g>
				<g>
					<path class="st0" d="M108.4,58.9c0.7-0.5,0.8-1.6,0.1-2.1c-0.2-0.2-0.5,0.1-0.3,0.3c0.4,0.3,0.5,1.1,0,1.5
						C108,58.7,108.1,59,108.4,58.9L108.4,58.9z"/>
				</g>
			</g>
		</g>
		<g>
			<g>
				<g>
					<path class="st0" d="M101.9,54.6c-0.7-0.7-1.9-2.3-0.5-3c0.2-0.1,0-0.4-0.2-0.3c-0.6,0.3-0.9,1-0.8,1.6c0.1,0.8,0.7,1.4,1.2,2
						C101.8,55.1,102.1,54.8,101.9,54.6L101.9,54.6z"/>
				</g>
			</g>
		</g>
		<g>
			<g>
				<g>
					<path class="st0" d="M14.2,96c-1.1,0,1.1-7.1,1.3-7.7c0.8-2.2,1.9-4.4,3.2-6.4c2.7-4.2,6.2-7.8,10.4-10.5
						c0.2-0.1,0-0.5-0.2-0.3C24,74.2,20,78.5,17.3,83.5c-0.8,1.4-5.6,12.8-3,12.9C14.4,96.4,14.4,96,14.2,96L14.2,96z"/>
				</g>
			</g>
		</g>
		<g>
			<g>
				<g>
					<path class="st0" d="M12.7,85c1.5-2.9,3.3-5.7,5.3-8.3c0.2-0.2-0.1-0.5-0.3-0.3c-2.1,2.6-3.8,5.4-5.4,8.4
						C12.2,85,12.6,85.2,12.7,85L12.7,85z"/>
				</g>
			</g>
		</g>
		<g>
			<g>
				<g>
					<path class="st0" d="M92.3,93.9c6.6-4.1,11.4-10.6,13.2-18.1c0.1-0.3-0.3-0.3-0.4-0.1c-1.8,7.4-6.5,13.9-13.1,17.9
						C91.9,93.7,92.1,94.1,92.3,93.9L92.3,93.9z"/>
				</g>
			</g>
		</g>
		<g>
			<g>
				<g>
					<path class="st0" d="M105.6,84.9c1.1-1.6,1.9-3.3,2.2-5.2c0-0.3-0.3-0.3-0.4-0.1c-0.3,1.9-1.1,3.5-2.2,5.1
						C105,84.9,105.4,85.1,105.6,84.9L105.6,84.9z"/>
				</g>
			</g>
		</g>
		<g>
			<g>
				<g>
					<path class="st0" d="M86.9,37.5c1.7-0.6,3.5-0.9,5.4-0.7c0.3,0,0.3-0.4,0-0.4c-1.9-0.1-3.7,0.1-5.5,0.8
						C86.5,37.3,86.6,37.6,86.9,37.5L86.9,37.5z"/>
				</g>
			</g>
		</g>
		<g>
			<g>
				<g>
					<path class="st0" d="M87.1,35.1c0.7-0.1,1.4-0.3,2-0.4c0.3,0,0.2-0.4-0.1-0.4c-0.7,0.1-1.4,0.3-2,0.4
						C86.8,34.8,86.9,35.1,87.1,35.1L87.1,35.1z"/>
				</g>
			</g>
		</g>
		<g>
			<g>
				<g>
					<path class="st0" d="M117.1,48.1c0-1.3-0.1-2.6-0.1-3.9c0-0.3-0.4-0.3-0.4,0c0,1.3,0.1,2.6,0.1,3.9
						C116.7,48.3,117.1,48.3,117.1,48.1L117.1,48.1z"/>
				</g>
			</g>
		</g>
		<g>
			<g>
				<g>
					<path class="st0" d="M118.6,46.1c0-0.6-0.1-1.2-0.1-1.7c0-0.3-0.4-0.3-0.4,0c0,0.6,0.1,1.2,0.1,1.7
						C118.2,46.3,118.6,46.3,118.6,46.1L118.6,46.1z"/>
				</g>
			</g>
		</g>
		<g>
			<g>
				<g>
					<path class="st0" d="M114.5,19c0.3,0,0.6,0.1,1,0.1c0.3,0,0.3-0.3,0-0.4c-0.3,0-0.6-0.1-1-0.1C114.3,18.6,114.3,19,114.5,19
						L114.5,19z"/>
				</g>
			</g>
		</g>
		<g>
			<g>
				<g>
					<path class="st0" d="M115.3,17.5c0,0,0.1-0.1,0.1,0c0.2,0.1,0.4-0.2,0.2-0.3c-0.3-0.1-0.6,0-0.7,0.3
						C114.8,17.6,115.2,17.7,115.3,17.5L115.3,17.5z"/>
				</g>
			</g>
		</g>
	</g>
</g>
</svg>
