<?xml version="1.0" encoding="utf-8"?>
<!-- Generator: Adobe Illustrator 24.0.1, SVG Export Plug-In . SVG Version: 6.00 Build 0)  -->
<svg version="1.1" id="Layer_1" xmlns="http://www.w3.org/2000/svg" xmlns:xlink="http://www.w3.org/1999/xlink" x="0px" y="0px"
	 viewBox="0 0 141.7 141.7" style="enable-background:new 0 0 141.7 141.7;" xml:space="preserve">
<style type="text/css">
	.st0{fill:#070707;}
</style>
<g id="Layer_1_1_">
</g>
<g id="Layer_1_2_">
</g>
<g id="Layer_1_3_">
</g>
<g id="Layer_1_4_">
</g>
<g id="Layer_1_5_">
</g>
<g id="Layer_3">
</g>
<g id="Layer_3_1_">
</g>
<g id="Layer_1_6_">
</g>
<g id="Layer_1_7_">
</g>
<g id="Layer_1_8_">
</g>
<g id="Layer_1_9_">
</g>
<g id="Layer_1_10_">
</g>
<g id="Layer_1_11_">
</g>
<g id="Layer_1_12_">
</g>
<g id="Layer_1_13_">
</g>
<g id="Layer_1_14_">
</g>
<g id="Layer_1_15_">
</g>
<g id="Layer_1_16_">
</g>
<g id="Layer_1_17_">
</g>
<g id="Layer_1_18_">
</g>
<g id="Layer_1_19_">
</g>
<g id="Layer_1_20_">
</g>
<g>
	<g>
		<g>
			<path class="st0" d="M64.5,87.6c2,0.2,4.8,2.2,6.1-0.2c1.3-2.5-2.1-4.6-3.8-5.5c-1.7-1-5.1-3.1-6.5-0.7c-1.5,2.4,3.8,3.6,4.9,3.9
				c0.2,0.1,0.4-0.2,0.1-0.3c-1.2-0.4-6.9-1.8-4.3-4.1c1.5-1.3,4.5,0.8,5.8,1.6c1.8,1,4.7,3.1,3.1,5.4c-1.1,1.5-4-0.3-5.5-0.4
				C64.3,87.3,64.3,87.6,64.5,87.6L64.5,87.6z"/>
		</g>
	</g>
	<g>
		<g>
			<path class="st0" d="M60.1,82.7c-0.9,3.1,1.9,4.4,4.6,5c0.2,0,0.3-0.3,0.1-0.3c-2.4-0.5-5.1-1.6-4.3-4.6
				C60.5,82.5,60.1,82.5,60.1,82.7L60.1,82.7z"/>
		</g>
	</g>
	<g>
		<g>
			<path class="st0" d="M31.1,39.4c-2.7-0.9-5.2-2.4-6.3-5.1c-0.9-2.1-0.2-4.5,1.1-6.3c1.6-2.1,4.2-3.3,6.7-3.7
				c1.6-0.3,3.3-0.1,4.9,0.1c1.3,0.2,4.7,0.8,5,2.5c0.1,0.6,1,0.4,0.9-0.1c-0.7-3.2-6.7-3.6-9.2-3.5c-3.3,0.1-6.4,1.3-8.7,3.7
				c-1.8,2-2.6,4.8-1.8,7.3c1,3.1,4,4.9,6.9,5.9C31.4,40.4,31.7,39.6,31.1,39.4L31.1,39.4z"/>
		</g>
	</g>
	<g>
		<path class="st0" d="M37.5,32.1c0.2-1.4-0.9-2.6-2.5-2.8c-1.6-0.2-3,0.7-3.2,2.1c-0.2,1.4,0.9,2.6,2.5,2.8
			C35.8,34.4,37.3,33.5,37.5,32.1z"/>
	</g>
	<g>
		<path class="st0" d="M74.9,67.6c-3.6,0-7-1.1-10-3.1c-3.7-2.6-6.2-6.5-6.9-10.9c-0.7-4.4,0.4-8.9,3.1-12.6
			c2.7-3.7,6.7-6.1,11.3-6.8c9.4-1.5,18.3,4.6,19.8,13.8c1.5,9.1-5,17.8-14.4,19.4C76.9,67.5,75.9,67.6,74.9,67.6z M72.5,34.7
			c-4.4,0.7-8.3,3.1-11,6.6c-2.6,3.5-3.7,7.9-3,12.1c0.7,4.3,3.1,8,6.7,10.6c3.6,2.5,8.1,3.5,12.5,2.8c9.1-1.5,15.4-9.9,14-18.8
			C90.3,39.2,81.7,33.2,72.5,34.7L72.5,34.7z"/>
	</g>
	<g>
		<path class="st0" d="M77.2,41.6c-1.4,2.7-0.4,6.1,2.2,7.4c2.6,1.4,5.9,0.3,7.4-2.5c1.4-2.7,0.4-6.1-2.2-7.4
			C81.9,37.7,78.6,38.8,77.2,41.6z M86.1,43.7c-0.4,0.8-1.4,1.1-2.1,0.7c-0.7-0.4-1-1.4-0.6-2.1c0.4-0.8,1.4-1.1,2.1-0.7
			C86.2,42,86.5,42.9,86.1,43.7z"/>
	</g>
	<g>
		<g>
			<path class="st0" d="M98.5,52.3c0.2,0,0.4-0.1,0.5-0.2c-0.1-0.1-0.1-0.3-0.2-0.4c-2.8,1.4-6.5,4.5-6.1,8c0.5,3.9,5.5,3.6,8.2,2.8
				c2-0.5,3.8-1.4,5.7-2.2c1.6-0.6,3.7-0.7,5.1-1.8c3.7-2.7-1.9-6.5-4.1-7.6c-0.2-0.1-0.4,0.3-0.1,0.4c1.5,0.8,2.9,1.7,4.1,3
				c0.9,1,1.2,2.7,0.2,3.7c-0.6,0.6-1.6,0.7-2.3,1c-2.5,0.6-4.8,1.8-7.3,2.7c-2.9,1-7.8,2-8.9-2.1c-0.8-3.2,3.4-6.4,5.8-7.5
				c0.2-0.1,0.1-0.5-0.2-0.4c-0.2,0-0.4,0.1-0.5,0.2C98,51.9,98.2,52.3,98.5,52.3L98.5,52.3z"/>
		</g>
	</g>
	<g>
		<path class="st0" d="M111.3,48.4c-0.4-2.1-3.7-3.2-7.6-2.6c-3.8,0.6-6.7,2.8-6.4,4.9c0.4,2.1,3.7,3.2,7.6,2.6
			C108.7,52.6,111.6,50.4,111.3,48.4z"/>
	</g>
	<g>
		<g>
			<path class="st0" d="M106.7,60.2c0.5,2.8,2.8,8.8-0.4,10.7c-2.5,1.5-4.4-1.1-5.1-3.2c-0.5-1.7-0.6-3.6-0.3-5.3
				c0-0.3-0.4-0.3-0.4,0c-0.5,3.5,0.3,10.3,5.4,9.2c4.4-1,1.7-8.8,1.3-11.5C107.1,59.9,106.7,59.9,106.7,60.2L106.7,60.2z"/>
		</g>
	</g>
	<g>
		<g>
			<path class="st0" d="M108.3,69.2c5,0.2,1.8-7.3,1.5-9.8c0-0.3-0.5-0.2-0.4,0.1c0.4,2.2,3.4,9.5-1,9.3
				C108,68.8,108,69.2,108.3,69.2L108.3,69.2z"/>
		</g>
	</g>
	<g>
		<path class="st0" d="M107.8,38.3c-1.1,2.8,0.2,6.1,3,7.2c2.8,1.1,5.9-0.3,7.1-3.2c1.1-2.8-0.2-6.1-3-7.2
			C112.2,34,109,35.4,107.8,38.3z M116.9,39.5c-0.3,0.8-1.2,1.2-2,0.9c-0.8-0.3-1.2-1.2-0.8-2c0.3-0.8,1.2-1.2,2-0.9
			C116.8,37.8,117.2,38.7,116.9,39.5z"/>
	</g>
	<g>
		<g>
			<g>
				<path class="st0" d="M107.9,46.6c-1.8-9-7.4-17.3-15.5-21.7c-4-2.2-8.5-3.3-13-4.2c-4.6-0.9-9.2-1.7-13.9-1.8
					c-5.3-0.1-10.6,1-15.2,3.9c-0.5,0.3,0,1.1,0.5,0.8c5.1-3.2,11.1-4.1,17-3.7c5.6,0.4,11.4,1.4,16.8,2.9
					c5.6,1.6,10.7,4.3,14.7,8.6s6.6,9.7,7.8,15.4C107.1,47.4,108,47.1,107.9,46.6L107.9,46.6z"/>
			</g>
		</g>
	</g>
	<g>
		<g>
			<g>
				<path class="st0" d="M108.6,69c-1.1,3.1-3.2,5.5-5.1,8.1c-2.1,2.8-3.9,5.7-5.8,8.6c-3.8,5.9-7.4,12.1-10.4,18.4
					c-1.5,3-2.8,6-3.9,9.2c-0.6,1.6-1.2,3.3-2.4,4.7c-1.3,1.4-3.1,2.1-4.8,2.7c-6.8,2.4-14.2,2.3-21.2,0.7
					c-12.2-2.7-22-11.6-27.1-22.8C22,86,22.1,71.5,25.1,58.2c1.6-7.2,4-14.9,8.6-20.9c4.5-5.8,10.7-10.5,17.2-14
					c0.5-0.3,0.1-1-0.5-0.8c-5.9,3.2-11.5,7.3-15.9,12.4c-4.4,5.1-7,11.3-8.9,17.8c-4,13.5-5.1,28.6-0.3,42
					c4.1,11.7,12.9,22,24.7,26.2c6.4,2.3,13.8,3.1,20.5,2.1c3.2-0.5,6.7-1.4,9.5-3.1c2.5-1.6,3.4-4.3,4.4-6.9
					c3.2-8.1,7.3-15.9,11.9-23.3c2.3-3.8,4.7-7.6,7.3-11.2c2.1-3,4.6-5.7,5.8-9.2C109.7,68.7,108.8,68.5,108.6,69L108.6,69z"/>
			</g>
		</g>
	</g>
	<g>
		<g>
			<path class="st0" d="M102.2,30.5c-1,0.2-2,0.4-3,0.7c0.1,0.1,0.3,0.2,0.4,0.4c0.9-0.3,1.8-0.5,2.7-0.7
				c9.1-1.5,17.8,4.5,19.2,13.4c1.3,7.9-3.6,15.5-11.1,18.1l0.1,0.5c7.9-2.6,12.9-10.5,11.6-18.7C120.5,35.2,111.6,29,102.2,30.5z"
				/>
		</g>
	</g>
	<g>
		<g>
			<path class="st0" d="M105.8,86.1c-0.5-2.6-5.2-0.1-6.3,0.4c-0.2,0.1-0.1,0.4,0.1,0.3c1.2-0.5,6.4-3.1,5.9,0.1
				c-0.2,1.8-3.9,2.2-5.4,2.6c-1.1,0.2-2.6,0.4-3.8,0.2c0,0.1,0,0.1-0.1,0.2c0,0-0.1,0.1-0.1,0.1c1.4,0.3,3.2,0,4.3-0.3
				C102.5,89.4,106.3,88.8,105.8,86.1z"/>
		</g>
	</g>
	<g>
		<g>
			<path class="st0" d="M105.2,85.1c-1.4-2.7-4.4-1.9-6.7-0.6l0,0c0,0.1,0,0.1,0,0.2c0,0,0.1,0.1,0.2,0c2.1-1.2,4.9-2.1,6.3,0.5
				C105,85.4,105.3,85.3,105.2,85.1z"/>
		</g>
	</g>
	<g>
		<g>
			<g>
				<path class="st0" d="M55.2,20.6c-2.8-4.4,5.2-6.9,8.2-7.3c3.8-0.4,9.5,1.6,8.8,6.4c-0.1,0.6,0.8,0.6,0.9,0
					c0.7-5.5-5.8-7.9-10.2-7.3c-3.5,0.5-11.7,3.6-8.5,8.5C54.7,21.5,55.5,21.1,55.2,20.6L55.2,20.6z"/>
			</g>
		</g>
	</g>
	<g>
		<g>
			<g>
				<path class="st0" d="M58,122.7c-0.8,0.7-2,2.6-0.5,3.3c0.7,0.3,1.4-0.2,2-0.6c0.7-0.6,1.4-1.2,1.9-2c0.2-0.2-0.2-0.5-0.4-0.2
					c-0.6,0.8-1.3,1.5-2.1,2.1c-0.4,0.2-0.4,0.2-0.9,0.1c-0.5,0.1-0.7-0.1-0.7-0.6c0-0.1,0-0.2,0-0.4c0.1-0.6,0.6-1,1-1.4
					C58.5,122.8,58.2,122.5,58,122.7L58,122.7z"/>
			</g>
		</g>
	</g>
	<g>
		<g>
			<g>
				<path class="st0" d="M79.1,120.7c1.2-0.3,2.4-0.6,3.6-1.2c0.7-0.3,2-0.8,2.4-1.6c0.2-0.5,0-1-0.5-1.2c-0.9-0.5-2.3,0.4-3.1,0.6
					c-0.3,0.1-0.1,0.5,0.1,0.4c0.5-0.2,1.3-0.6,1.8-0.6c0.5-0.2,0.7,0.1,0.8,1c-0.1,0.1-0.2,0.1-0.4,0.2c-0.2,0.2-0.6,0.4-0.9,0.5
					c-1.3,0.7-2.6,1.1-4,1.4C78.7,120.3,78.8,120.7,79.1,120.7L79.1,120.7z"/>
			</g>
		</g>
	</g>
	<g>
		<g>
			<g>
				<path class="st0" d="M97.5,112.1c-0.3,3.6-3.4,6-6,7.9c-2.4,1.7-5,3.2-7.6,4.5c-5.6,2.6-11.6,4.3-17.5,6
					c-0.3,0.1-0.1,0.5,0.1,0.4c6.5-1.9,13.1-3.8,19.2-6.9c2.8-1.5,5.5-3.1,8-5.2c2.2-1.8,4.1-3.9,4.4-6.8
					C98,111.8,97.5,111.8,97.5,112.1L97.5,112.1z"/>
			</g>
		</g>
	</g>
	<g>
		<g>
			<g>
				<path class="st0" d="M97.5,119.8c-1.2,2.3-3.7,3.7-5.8,5.1c-2,1.4-4.1,2.6-6.3,3.8c-0.2,0.1,0,0.5,0.2,0.4
					c2.5-1.4,5-2.9,7.4-4.6c1.8-1.2,3.8-2.5,4.9-4.5C98,119.7,97.7,119.5,97.5,119.8L97.5,119.8z"/>
			</g>
		</g>
	</g>
	<g>
		<g>
			<g>
				<path class="st0" d="M57.8,125.7c0.2-0.5,0.5-1,0.7-1.4c0.1-0.2-0.2-0.5-0.4-0.2c-0.2,0.5-0.5,1-0.7,1.4
					C57.3,125.7,57.7,126,57.8,125.7L57.8,125.7z"/>
			</g>
		</g>
	</g>
	<g>
		<g>
			<g>
				<path class="st0" d="M82.8,118.2c0.5-0.4,1.1-0.5,1.8-0.5c0.3,0,0.3-0.4,0-0.4c-0.7,0-1.4,0.1-2,0.5
					C82.4,118,82.6,118.4,82.8,118.2L82.8,118.2z"/>
			</g>
		</g>
	</g>
</g>
</svg>
