<?xml version="1.0" encoding="utf-8"?>
<!-- Generator: Adobe Illustrator 24.0.1, SVG Export Plug-In . SVG Version: 6.00 Build 0)  -->
<svg version="1.1" id="Layer_1" xmlns="http://www.w3.org/2000/svg" xmlns:xlink="http://www.w3.org/1999/xlink" x="0px" y="0px"
	 viewBox="0 0 141.7 141.7" style="enable-background:new 0 0 141.7 141.7;" xml:space="preserve">
<style type="text/css">
	.st0{fill:#070707;}
	.st1{enable-background:new    ;}
</style>
<g id="Layer_1_1_">
</g>
<g id="Layer_1_2_">
</g>
<g id="Layer_1_3_">
</g>
<g id="Layer_1_4_">
</g>
<g id="Layer_1_5_">
</g>
<g id="Layer_3">
</g>
<g id="Layer_3_1_">
</g>
<g id="Layer_1_6_">
</g>
<g id="Layer_1_7_">
</g>
<g id="Layer_1_8_">
</g>
<g id="Layer_1_9_">
</g>
<g id="Layer_1_10_">
</g>
<g id="Layer_1_11_">
</g>
<g id="Layer_1_12_">
</g>
<g id="Layer_1_13_">
</g>
<g id="Layer_1_14_">
</g>
<g id="Layer_1_15_">
</g>
<g id="Layer_1_16_">
</g>
<g id="Layer_1_17_">
</g>
<g id="Layer_1_18_">
</g>
<g id="Layer_1_19_">
</g>
<g id="Layer_1_20_">
</g>
<g>
	<g>
		<path class="st0" d="M48.8,72.1c0.1,0,0.2-0.1,0.3-0.1c0-0.1-0.1-0.2-0.1-0.2c-1.7,0.9-4,2.7-3.7,4.9c0.3,2.4,3.4,2.2,5,1.7
			c1.2-0.3,2.3-0.9,3.4-1.3c0.9-0.4,2.3-0.5,3.1-1.1c2.2-1.7-1.1-3.9-2.5-4.7c-0.2-0.1-0.3,0.2-0.1,0.3c0.9,0.5,1.8,1,2.5,1.8
			c0.6,0.6,0.8,1.6,0.1,2.3c-0.3,0.3-1,0.5-1.4,0.6c-1.5,0.4-2.9,1.1-4.4,1.6c-1.8,0.6-4.8,1.2-5.4-1.3c-0.5-1.9,2.1-3.9,3.5-4.6
			c0.2-0.1,0.1-0.3-0.1-0.2c-0.1,0-0.2,0.1-0.3,0.1C48.6,71.9,48.7,72.2,48.8,72.1L48.8,72.1z"/>
	</g>
</g>
<g>
	<path class="st0" d="M56.6,69.7c-0.2-1.3-2.3-2-4.6-1.6c-2.3,0.4-4.1,1.7-3.9,3c0.2,1.3,2.3,2,4.6,1.6C55.1,72.3,56.8,71,56.6,69.7
		z"/>
</g>
<g>
	<g>
		<path class="st0" d="M53.8,77c0.3,1.7,1.7,5.4-0.2,6.5c-1.5,0.9-2.7-0.7-3.1-1.9c-0.3-1-0.3-2.2-0.2-3.2c0-0.2-0.2-0.2-0.3,0
			c-0.3,2.1,0.2,6.3,3.2,5.6c2.7-0.6,1.1-5.4,0.8-7C54.1,76.7,53.8,76.8,53.8,77L53.8,77z"/>
	</g>
</g>
<g>
	<g>
		<path class="st0" d="M54.8,82.4c3.1,0.2,1.1-4.4,0.9-6c0-0.2-0.3-0.1-0.3,0.1c0.2,1.4,2.1,5.8-0.6,5.6
			C54.6,82.2,54.6,82.4,54.8,82.4L54.8,82.4z"/>
	</g>
</g>
<g>
	<path class="st0" d="M45.6,66.5c-5.1,0-9.5-3.6-10.3-8.6c-0.4-2.7,0.2-5.4,1.9-7.7c1.7-2.2,4.1-3.7,6.9-4.2l0,0
		c2.8-0.5,5.6,0.2,7.9,1.8c2.3,1.6,3.8,4,4.2,6.7c0.4,2.7-0.2,5.4-1.9,7.7c-1.7,2.2-4.1,3.7-6.9,4.2C46.8,66.4,46.2,66.5,45.6,66.5z
		 M44.1,46.4c-2.7,0.4-5.1,1.9-6.7,4c-1.6,2.2-2.2,4.8-1.8,7.4c0.9,5.4,6.1,9,11.7,8.1c2.7-0.4,5.1-1.9,6.7-4
		c1.6-2.2,2.2-4.8,1.8-7.4c-0.4-2.6-1.9-4.9-4.1-6.4C49.5,46.6,46.8,46,44.1,46.4L44.1,46.4z"/>
</g>
<g>
	<path class="st0" d="M46.9,50.6c-0.9,1.7-0.3,3.7,1.4,4.5c1.6,0.8,3.6,0.2,4.5-1.5c0.9-1.7,0.3-3.7-1.4-4.5
		C49.8,48.2,47.8,48.9,46.9,50.6z M52.4,51.9c-0.2,0.5-0.8,0.6-1.3,0.4c-0.5-0.2-0.6-0.8-0.4-1.3s0.8-0.6,1.3-0.4
		C52.4,50.8,52.6,51.4,52.4,51.9z"/>
</g>
<g>
	<path class="st0" d="M46.3,64.8c-2,0-3.9-0.6-5.6-1.7c-2.1-1.4-3.5-3.6-3.9-6.1c-0.4-2.5,0.2-4.9,1.7-7c1.5-2,3.8-3.4,6.3-3.8
		c5.3-0.9,10.3,2.6,11.1,7.7c0.4,2.5-0.2,4.9-1.7,7c-1.5,2-3.8,3.4-6.3,3.8C47.4,64.7,46.9,64.8,46.3,64.8z M46.6,46.5
		c-0.5,0-1,0-1.6,0.1c-2.5,0.4-4.6,1.7-6.1,3.7c-1.5,2-2.1,4.3-1.7,6.7c0.4,2.4,1.7,4.4,3.7,5.8c2,1.4,4.5,1.9,6.9,1.5
		c2.5-0.4,4.6-1.7,6.1-3.7c1.5-2,2.1-4.3,1.7-6.7C54.9,49.6,51,46.5,46.6,46.5z"/>
</g>
<g>
	<g>
		<g>
			<path class="st0" d="M36.4,59c0.1,1.5,0.7,2.8,1.8,3.8c0.7,0.6,1.5,0.6,1.1-0.5c-0.3-0.8-0.7-1.6-1.1-2.4
				c-0.3-0.4-0.7-1.5-1.2-1.7c-1.1-0.4-0.4,1.7-0.2,2.1c0.1,0.2,0.4,0,0.3-0.2c-0.1-0.2-0.8-1.7,0.1-1.2c0.3,0.1,0.5,0.8,0.7,1.1
				c0.4,0.6,1,1.6,1.1,2.3c0.2,0.2,0.2,0.4-0.1,0.6c-0.2-0.1-0.4-0.3-0.6-0.5c-0.3-0.2-0.5-0.5-0.7-0.8c-0.5-0.8-0.8-1.6-0.8-2.5
				C36.7,58.7,36.4,58.7,36.4,59L36.4,59z"/>
		</g>
	</g>
</g>
<g>
	<g>
		<g>
			<path class="st0" d="M40.1,63.6c0.3-0.3,0.8,0.1,0.5,0.4c-0.1,0.2-0.3,0.2-0.5,0C40,63.9,40,63.7,40.1,63.6
				c0.1-0.2-0.1-0.4-0.2-0.2c-0.2,0.3-0.2,0.6,0,0.9c0.3,0.3,0.7,0.3,0.9,0c0.3-0.3,0.3-0.7-0.1-0.9c-0.3-0.2-0.7-0.2-0.9,0.1
				C39.7,63.5,39.9,63.8,40.1,63.6L40.1,63.6z"/>
		</g>
	</g>
</g>
<g>
	<g>
		<path class="st0" d="M68.1,55.5c-0.9-5.6-6.3-9.3-12.1-8.4c-1.3,0.2-2.5,0.6-3.6,1.3c0.1,0.1,0.1,0.1,0.2,0.2c0,0,0.1,0,0.1,0.1
			c1-0.6,2.2-1,3.4-1.2c5.6-0.9,10.8,2.7,11.7,8.1c0.4,2.6-0.2,5.2-1.8,7.4c-1.6,2.2-4,3.6-6.7,4c-3,0.5-6-0.3-8.2-2.2
			c-0.1,0.1-0.2,0.1-0.3,0.2c1.9,1.6,4.3,2.5,6.8,2.5c0.6,0,1.2-0.1,1.8-0.2c2.8-0.4,5.2-1.9,6.9-4.2C67.8,60.9,68.5,58.2,68.1,55.5
			z"/>
	</g>
</g>
<g>
	<g>
		<path class="st0" d="M58.9,51.5c-0.9,1.7-0.3,3.7,1.4,4.5c1.6,0.8,3.6,0.2,4.5-1.5c0.9-1.7,0.3-3.7-1.4-4.5
			C61.8,49.2,59.7,49.9,58.9,51.5z M64.3,52.8c-0.2,0.5-0.8,0.6-1.3,0.4c-0.5-0.2-0.6-0.8-0.4-1.3c0.2-0.5,0.8-0.6,1.3-0.4
			C64.4,51.8,64.5,52.4,64.3,52.8z"/>
	</g>
</g>
<g>
	<g>
		<path class="st0" d="M68,54.8c-0.4-2.5-1.8-4.6-3.9-6.1c-2.1-1.4-4.6-2-7.2-1.6c-1.4,0.2-2.8,0.8-3.9,1.6c0.1,0.1,0.2,0.1,0.2,0.2
			c0,0,0,0,0,0c1.1-0.7,2.4-1.2,3.7-1.5c2.5-0.4,4.9,0.1,6.9,1.5c2,1.4,3.3,3.5,3.7,5.8s-0.2,4.8-1.7,6.7c-1.5,1.9-3.6,3.3-6.1,3.7
			c-2.5,0.4-5-0.2-7-1.6c-0.1,0.1-0.2,0.1-0.3,0.2c1.7,1.2,3.7,1.9,5.8,1.9c0.5,0,1.1-0.1,1.6-0.1c2.5-0.4,4.8-1.8,6.3-3.8
			C67.7,59.8,68.4,57.3,68,54.8z"/>
	</g>
</g>
<g>
	<g>
		<g>
			<path class="st0" d="M52,64.6c0.3-0.3,0.9,0.1,0.5,0.5c-0.1,0.2-0.4,0.2-0.5,0C51.9,64.9,51.9,64.7,52,64.6
				c0.1-0.1-0.1-0.3-0.2-0.2c-0.2,0.3-0.2,0.6,0,0.9c0.2,0.3,0.7,0.3,0.9,0c0.2-0.3,0.2-0.7-0.1-0.9c-0.3-0.2-0.6-0.2-0.9,0.1
				C51.7,64.5,51.9,64.7,52,64.6L52,64.6z"/>
		</g>
	</g>
</g>
<g>
	<g>
		<g>
			<path class="st0" d="M50.6,71.3c-2,0.9-3.8,2.9-4.1,5.1c-0.3,2.6,2.9,2,4.5,1.7c0.2-0.1,0.1-0.4-0.1-0.3
				c-0.8,0.2-1.9,0.4-2.8,0.3c-2-0.4-1.2-2.4-0.7-3.5c0.7-1.4,1.9-2.4,3.3-3C51,71.6,50.8,71.3,50.6,71.3L50.6,71.3z"/>
		</g>
	</g>
</g>
<g>
	<g>
		<g>
			<path class="st0" d="M49.5,78.7C49.5,78.7,49.5,78.7,49.5,78.7c0.1-0.1,0.2-0.1,0.2-0.2c0-0.2,0-0.2-0.2-0.3
				c-0.1-0.1-0.2,0-0.2,0.1c-0.4,0.5,0.1,2,0,2.6c0,0.9-0.3,1.9,0.2,2.8c0.9,1.5,2.8,0.8,4,0.2c0.2-0.1,0-0.4-0.2-0.3
				c-0.7,0.3-1.4,0.7-2.2,0.6c-1.2-0.1-1.6-1.2-1.6-2.3c0-0.3-0.1-3.6-0.2-3.6C49.2,78.4,49.3,78.7,49.5,78.7L49.5,78.7z"/>
		</g>
	</g>
</g>
<g>
	<g>
		<g>
			<path class="st0" d="M63.4,111.5c3-1.5,5.6-4,6.8-7.2c1.4-3.8-0.2-7.8-1.7-11.3c-0.9-2.1-1.7-4.2-2.1-6.4
				c-0.4-2.5-0.6-5.1-0.7-7.6c-0.3-4.8-0.4-9.6-0.5-14.5c0-0.4-0.6-0.4-0.6,0c0,4.4,0.1,8.8,0.4,13.2c0.3,4.2,0.3,8.8,1.8,12.7
				c1.4,3.7,3.9,7.8,3.3,11.9c-0.6,3.8-3.6,6.9-6.9,8.6C62.7,111.1,63,111.7,63.4,111.5L63.4,111.5z"/>
		</g>
	</g>
</g>
<g>
	<g>
		<g>
			<path class="st0" d="M46.9,114.5c2.7,0,5.5-0.2,8.2-0.5c0.4-0.1,0.2-0.7-0.2-0.6c-2.7,0.4-5.3,0.5-8,0.5
				C46.5,113.8,46.5,114.5,46.9,114.5L46.9,114.5z"/>
		</g>
	</g>
</g>
<g>
	<g>
		<g>
			<path class="st0" d="M25.5,81.4c-2.1,7.2-5.5,14.7-3.8,22.3c0.4,1.7,0.9,3.2,2.1,4.4c1,1.1,2.3,2,3.6,2.7c2.8,1.4,6,2,9,2.7
				c0.4,0.1,0.6-0.5,0.2-0.6c-2.9-0.6-5.9-1.1-8.5-2.4c-1.4-0.6-2.7-1.5-3.7-2.6c-1.4-1.4-1.9-3.3-2.2-5.2c-1.2-7.2,2.1-14.3,4-21.1
				C26.3,81.1,25.7,81,25.5,81.4L25.5,81.4z"/>
		</g>
	</g>
</g>
<g>
	<g>
		<g>
			<path class="st0" d="M36.4,50.6c-4.1,0.1-5.9,4.5-6.9,7.8c-1.6,6-1.5,12.3-2.8,18.3c-0.1,0.4,0.5,0.6,0.6,0.2
				c1.1-5.3,1.2-10.7,2.3-16c0.7-3.6,2.2-9.6,6.8-9.7C36.8,51.3,36.8,50.6,36.4,50.6L36.4,50.6z"/>
		</g>
	</g>
</g>
<g>
	<g>
		<g>
			<path class="st0" d="M49.2,46.4c-0.6-3.3,3.3-4.5,5.9-4.5c1.4,0,2.9,0.4,3.8,1.6c0.8,1.2,0.6,2.7,0.5,4c-0.1,0.4,0.6,0.4,0.6,0
				c0.2-1.6,0.3-3.4-0.9-4.8c-1.1-1.2-2.9-1.6-4.4-1.5c-3,0.1-6.7,1.8-6.1,5.4C48.7,46.9,49.3,46.8,49.2,46.4L49.2,46.4z"/>
		</g>
	</g>
</g>
<g>
	<g>
		<g>
			<path class="st0" d="M32,51.9c-1.7-0.6-2.4-3.3-1.9-4.9c0.5-1.7,2.5-2.7,3.9-3.2c1.4-0.5,2.9-0.9,4.4-0.9c0.9,0,1.7,0.1,2.3,0.8
				c0.8,0.8,0.7,1.9,0.7,2.9c0,0.4,0.6,0.4,0.6,0c0.1-2-0.4-3.8-2.5-4.2c-2.2-0.4-4.7,0.3-6.6,1.2c-1.8,0.8-3.6,2.1-3.7,4.2
				c-0.1,1.8,0.7,4.1,2.5,4.8C32.3,52.6,32.4,52,32,51.9L32,51.9z"/>
		</g>
	</g>
</g>
<g>
	<g>
		<path class="st0" d="M68,81.8c-0.7,1-2.7,1.8-1.7,3.3c0.9,1.4,3,0.3,4.1-0.3c1.1-0.6,3.2-1.7,2.4-3.2c-0.8-1.5-3,0.9-3.6,1.4
			c-0.1,0.1,0,0.3,0.1,0.2c0.6-0.5,3.1-3.1,3.5-1c0.2,1.2-1.8,2.1-2.6,2.6c-1.1,0.6-3.1,1.5-3.8,0c-0.5-1,1.4-2,1.9-2.8
			C68.2,81.8,68,81.6,68,81.8L68,81.8z"/>
	</g>
</g>
<g>
	<g>
		<path class="st0" d="M70.6,80.5c0-0.1,0.1-0.1,0.1-0.2c-1-0.1-2,0.7-2.7,1.5c-0.1,0.1,0.1,0.2,0.2,0.1
			C68.8,81.1,69.6,80.4,70.6,80.5z"/>
	</g>
</g>
<g>
	<g>
		<g>
			<path class="st0" d="M84.5,48.6c-1.6,5.6-3.9,10.9-5.9,16.4c-2.1,5.5-4.1,11-6.3,16.5c-0.1,0.2,0.2,0.3,0.3,0.1
				c2.1-5.5,4.2-11,6.3-16.5c2.1-5.4,4.3-10.8,5.9-16.4C84.9,48.5,84.5,48.4,84.5,48.6L84.5,48.6z"/>
		</g>
	</g>
</g>
<g>
	<g>
		<g>
			<path class="st0" d="M69.3,83.4c5-11.7,10.4-23.3,15.1-35.2c0.1-0.2-0.2-0.3-0.3-0.1C79.4,60,74,71.5,69,83.2
				C68.9,83.4,69.2,83.6,69.3,83.4L69.3,83.4z"/>
		</g>
	</g>
</g>
<g>
	<g>
		<g>
			<path class="st0" d="M69,85.1c-0.4,0.6-1.2,1.9-1,2.7c0.1,0.5,0.8,0.5,1.2,0.5c0.8,0,1.2-0.4,1.6-1.1c0.5-1.1,0.8-2.3,1-3.4
				c0.1-0.2-0.3-0.3-0.3-0.1c-0.2,0.6-0.3,1.3-0.5,1.9c-0.2,0.6-0.3,1.5-0.8,1.9c-0.3,0.3-0.6,0.5-1.1,0.4c-0.2,0.1-0.4,0-0.5-0.2
				c-0.3-0.1-0.3-0.3-0.2-0.5c0-0.6,0.6-1.4,0.9-1.9C69.4,85.1,69.1,84.9,69,85.1L69,85.1z"/>
		</g>
	</g>
</g>
<g>
	<g>
		<g>
			<path class="st0" d="M52.8,80.3c-0.5,0.3-1,0.7-1.2,1.2c-0.2,0.5,0,0.9,0.5,1c1.3,0.1,1.8-1.5,1-2.3c-0.2-0.2-0.4,0.1-0.2,0.2
				c0.6,0.6,0.3,1.8-0.6,1.7c-0.6,0-0.3-0.7-0.1-1c0.2-0.3,0.5-0.5,0.8-0.7C53.1,80.5,53,80.2,52.8,80.3L52.8,80.3z"/>
		</g>
	</g>
</g>
<g>
	<g>
		<g>
			<path class="st0" d="M68,85.5c-0.4,0.5-1,1.1-0.8,1.8c0.1,0.5,0.6,1,1.2,0.9c0.2-0.1,0.1-0.4-0.1-0.3c-0.6,0.1-0.9-0.6-0.7-1.1
				c0.1-0.4,0.4-0.7,0.7-1C68.4,85.6,68.2,85.4,68,85.5L68,85.5z"/>
		</g>
	</g>
</g>
<g>
	<g>
		<g>
			<path class="st0" d="M84,48.1c-0.1,0.2-0.2,0.5-0.3,0.7c-0.1,0.2,0.2,0.3,0.3,0.1c0.1-0.2,0.2-0.5,0.3-0.7
				C84.4,48,84.1,47.9,84,48.1L84,48.1z"/>
		</g>
	</g>
</g>
<g>
	<g>
		<g>
			<path class="st0" d="M70.4,82c5.2-11.1,9.8-22.5,14.3-34c0.1-0.2-0.2-0.3-0.3-0.1c-4.5,11.4-9.1,22.8-14.2,33.9
				C70,82,70.3,82.2,70.4,82L70.4,82z"/>
		</g>
	</g>
</g>
<g>
	<g>
		<g>
			<path class="st0" d="M69.1,85.4c0.7,0.3,1.5,0.3,2.2-0.1c0.2-0.1,0-0.4-0.2-0.3c-0.6,0.3-1.2,0.3-1.8,0.1
				C69.1,85.1,68.9,85.4,69.1,85.4L69.1,85.4z"/>
		</g>
	</g>
</g>
<g>
	<g>
		<g>
			<path class="st0" d="M70.5,79.7c0.6,0.7,1.5,0.9,2.3,0.5c0.2-0.1,0-0.4-0.2-0.3c-0.7,0.3-1.5,0.2-1.9-0.4
				C70.6,79.3,70.4,79.5,70.5,79.7L70.5,79.7z"/>
		</g>
	</g>
</g>
<g>
	<g>
		<g>
			<path class="st0" d="M96.4,34.5c2.2-0.2,4.4-0.4,6.5-0.4c0.2,0,0.2-0.3,0-0.3c-2.2,0-4.4,0.2-6.5,0.4
				C96.2,34.2,96.2,34.5,96.4,34.5L96.4,34.5z"/>
		</g>
	</g>
</g>
<g>
	<g>
		<g>
			<path class="st0" d="M96.5,36.1c2.3,0,4.7-0.1,7-0.1c0.2,0,0.2-0.3,0-0.3c-2.3,0-4.7,0.1-7,0.1C96.3,35.8,96.3,36.1,96.5,36.1
				L96.5,36.1z"/>
		</g>
	</g>
</g>
<g>
	<g>
		<g>
			<path class="st0" d="M76.4,32c-0.4-2.8-4-1.2-5.1,0.1c-1.8,2.1-2.4,5.8-1.2,8.3c1.5,3,4.1-0.6,4.9-2.2c0.6-1.3,2.4-6.3-0.2-6.7
				c-0.2,0-0.3,0.3-0.1,0.3c2,0.3,0.7,4.6,0.2,5.7c-0.4,0.8-0.8,1.6-1.4,2.3c-0.3,0.3-0.8,0.9-1.1,1.1c-1.6,0.8-2.1-0.7-2.4-1.6
				c-0.5-1.9-0.3-4,0.6-5.7c0.4-0.9,1.1-1.7,1.9-2.2c1-0.6,3.2-1.1,3.5,0.7C76.1,32.3,76.4,32.2,76.4,32L76.4,32z"/>
		</g>
	</g>
</g>
<g>
	<g>
		<g>
			<path class="st0" d="M77.9,34.6c0.8-1.3,1.5-2.7,2-4.2c-0.1,0-0.2-0.1-0.3-0.1c-0.7,3.4-1.3,6.8-1.6,10.3c0,0.2,0.3,0.2,0.3,0
				c0.3-3.4,0.9-6.8,1.6-10.2c0.1-0.2-0.2-0.3-0.3-0.1c-0.5,1.4-1.2,2.8-2,4.1C77.5,34.6,77.7,34.7,77.9,34.6L77.9,34.6z"/>
		</g>
	</g>
</g>
<g>
	<g>
		<g>
			<path class="st0" d="M82.8,34.5c-0.2,1-0.3,2-0.4,3c0,0.2,0.3,0.3,0.3,0.1c0.2-1,0.3-2,0.4-3C83.1,34.4,82.8,34.3,82.8,34.5
				L82.8,34.5z"/>
		</g>
	</g>
</g>
<g>
	<g>
		<g>
			<path class="st0" d="M81.1,36.8c0.8-0.2,1.6-0.4,2.4-0.5c0.2,0,0.1-0.3-0.1-0.3c-0.8,0.1-1.6,0.3-2.4,0.5
				C80.8,36.5,80.9,36.8,81.1,36.8L81.1,36.8z"/>
		</g>
	</g>
</g>
<g>
	<g>
		<g>
			<path class="st0" d="M88.3,30.9c-1.9-0.1-2.7,3.1-3,4.5C85,36.7,84.9,38,85,39.2c0,0.5,0,1.8,0.6,2.1c1.4,0.6,2.5-2.6,2.8-3.5
				c0.5-1.5,1.3-4.5-0.1-5.8c-0.2-0.1-0.4,0.1-0.2,0.2c1.1,1,0.6,3.2,0.4,4.5c-0.2,0.8-0.5,1.6-0.9,2.4c-0.1,0.3-0.3,0.5-0.4,0.8
				c-0.4,0.7-0.4,1.1-1.2,0.5c-0.6-0.5-0.6-0.4-0.6-1.1c0-0.4,0-0.7,0-1.1c0-0.8,0.1-1.6,0.3-2.3c0.3-1.2,1-4.6,2.7-4.5
				C88.5,31.3,88.5,31,88.3,30.9L88.3,30.9z"/>
		</g>
	</g>
</g>
<g>
	<g>
		<g>
			<path class="st0" d="M93.4,33.9c0-0.3,0.3-1,0.3-0.3c0,0.4-0.2,1-0.3,1.4c-0.2,0.6-0.4,1.3-0.6,1.9c-0.3,0.8-0.6,1.5-0.9,2.2
				c-0.3,0.6-0.3,0.7,0.2,1.2c0.9,0.8,2.4,0.3,2.3-1c0-0.2-0.4-0.2-0.3,0c-1,0.9-1.7,1-2.2,0.3c-0.1-0.1-0.2-0.1-0.3-0.2
				c-0.1-0.1-0.2-0.1-0.3-0.1c-0.2,0-0.5,0.1-0.6,0.2c-0.4,0.5,0.3,0.9,0.7,0.8c0.8-0.2,1.2-1.8,1.4-2.4c0.6-1.6,1.3-3.4,1.1-5.1
				c0-0.1-0.1-0.2-0.2-0.1c-0.5,0.3-0.6,0.6-0.6,1.2C93.1,34.1,93.4,34.1,93.4,33.9L93.4,33.9z"/>
		</g>
	</g>
</g>
<g>
	<g>
		<g>
			<path class="st0" d="M32.3,52.6c0.1-0.1,0.1-0.1,0.2-0.2c0.3-0.3-0.2-0.8-0.5-0.5C32,52,31.9,52,31.8,52.1
				C31.5,52.4,32,52.8,32.3,52.6L32.3,52.6z"/>
		</g>
	</g>
</g>
<g>
	<g>
		<g>
			<path class="st0" d="M60.6,118.8c-1.8-1.1-2.8-2.9-4.3-4.2c-0.6-0.5-1.4-0.8-0.6-2.1c0.3-0.5,1-0.9,1.5-1.2
				c1.2-0.8,2.5-1.2,3.9-0.8c2.1,0.7,3.6,2.9,4.1,5c0.3,1.1,0.2,2.5-0.7,3.3C63.5,119.8,61.8,119.4,60.6,118.8
				c-0.2-0.1-0.4,0.2-0.2,0.3c2.1,1,4.9,0.8,5.2-1.9c0.4-2.6-1.6-5.8-4-6.8c-1.3-0.5-2.6-0.4-3.8,0.2c-1,0.5-2.8,1.6-2.9,2.8
				c-0.1,1,1.4,1.7,2,2.3c1.1,1.2,2.1,2.6,3.6,3.4C60.6,119.2,60.8,119,60.6,118.8z"/>
		</g>
	</g>
</g>
<g>
	<g>
		<g>
			<path class="st0" d="M61.7,114.7c1.2,1.2,2.1,2.8,2.2,4.5c0,0.2,0.3,0.2,0.3,0c-0.1-1.8-1-3.5-2.3-4.7
				C61.7,114.3,61.5,114.5,61.7,114.7L61.7,114.7z"/>
		</g>
	</g>
</g>
<g>
	<g>
		<g>
			<path class="st0" d="M42.3,120.8c-1.5-1.6-1.9-3.8-3.1-5.6c-0.1-0.2-0.3-0.3-0.4-0.5c0.1-0.8,0.4-1.3,1-1.6
				c0.5-0.3,1.3-0.5,1.9-0.7c1.5-0.4,3-0.1,4.2,1c1.4,1.4,2.1,3.6,1.9,5.5c-0.1,1-0.4,2.2-1.4,2.8C45,122.6,43.3,121.7,42.3,120.8
				c-0.2-0.1-0.4,0.1-0.2,0.2c1.7,1.6,4.6,2.1,5.6-0.5c0.9-2.3,0.1-5.4-1.5-7.1c-1-1-2.3-1.5-3.7-1.4c-1.1,0.1-3.1,0.6-3.8,1.6
				c-0.8,1,0.4,1.9,0.9,2.8c0.8,1.6,1.4,3.3,2.6,4.6C42.2,121.2,42.4,120.9,42.3,120.8z"/>
		</g>
	</g>
</g>
<g>
	<g>
		<g>
			<path class="st0" d="M44.5,117.1c0.8,1.5,1.2,3.3,0.8,4.9c-0.1,0.2,0.3,0.3,0.3,0.1c0.5-1.8,0-3.6-0.8-5.2
				C44.7,116.8,44.4,116.9,44.5,117.1L44.5,117.1z"/>
		</g>
	</g>
</g>
<g>
	<g>
		<g>
			<path class="st0" d="M36.2,60.8c-1,4.9-2.6,9.7-4.1,14.4c-1.3,4.3-2.1,8.6-2.2,13c-0.2,8.7,2.1,17.3,6.6,24.7
				c0.1,0.2,0.4,0,0.3-0.2c-4.6-7.5-6.9-16.2-6.6-24.9c0.1-4.5,1-8.9,2.3-13.2c1.4-4.5,2.9-9.1,3.8-13.7
				C36.5,60.7,36.2,60.6,36.2,60.8L36.2,60.8z"/>
		</g>
	</g>
</g>
<g>
	<g>
		<g>
			<path class="st0" d="M63.6,65.7c-0.7,7.7,0.1,15.4,1,23.1c0.5,3.8,1,7.6,1.5,11.4c0.4,3.7,0.5,8.1-2.9,10.5
				c-0.2,0.1,0,0.4,0.2,0.3c2.5-1.8,3.3-4.8,3.2-7.8c-0.1-4.1-0.9-8.3-1.4-12.4c-1.1-8.3-2-16.7-1.3-25.1
				C63.9,65.5,63.6,65.5,63.6,65.7L63.6,65.7z"/>
		</g>
	</g>
</g>
<g>
	<g>
		<g>
			<path class="st0" d="M21.3,98.9c-0.6-0.5-1.2-1.1-1.6-1.7c-0.1-0.1-0.2-0.2-0.2-0.4c-0.1-0.4,0-0.6,0.5-0.6
				c0.4,0,0.9,0.4,1.1,0.7c0.1,0.2,0.4-0.1,0.2-0.2c-0.4-0.5-2-1.4-2.2-0.3c-0.1,0.4,0.2,0.8,0.4,1.1c0.5,0.6,1,1.1,1.6,1.6
				C21.2,99.3,21.4,99.1,21.3,98.9L21.3,98.9z"/>
		</g>
	</g>
</g>
<g>
	<g>
		<path class="st0" d="M24.9,81.1c1.4,0.2,3.5,1.6,4.5-0.2c0.9-1.8-1.5-3.3-2.8-4c-1.3-0.7-3.7-2.3-4.8-0.5
			c-1.1,1.7,2.8,2.6,3.6,2.9c0.2,0.1,0.3-0.2,0.1-0.2c-0.9-0.3-5-1.3-3.1-3c1.1-0.9,3.3,0.6,4.3,1.2c1.3,0.7,3.5,2.3,2.2,3.9
			c-0.8,1.1-2.9-0.2-4-0.3C24.8,80.8,24.7,81,24.9,81.1L24.9,81.1z"/>
	</g>
</g>
<g>
	<g>
		<path class="st0" d="M21.6,77.4c-0.6,2.3,1.4,3.2,3.3,3.6c0.2,0,0.2-0.2,0.1-0.2c-1.8-0.4-3.7-1.2-3.1-3.4
			C21.9,77.3,21.7,77.3,21.6,77.4L21.6,77.4z"/>
	</g>
</g>
<g>
	<path class="st0" d="M23.3,104.5c-0.7,0-1.3-0.7-1.3-1.6s0.6-1.6,1.3-1.6c0.7,0,1.3,0.7,1.3,1.6S24,104.5,23.3,104.5z M23.3,101.5
		c-0.6,0-1.1,0.6-1.1,1.4c0,0.8,0.5,1.4,1.1,1.4s1.1-0.6,1.1-1.4C24.4,102.1,23.9,101.5,23.3,101.5z"/>
</g>
<g>
	<path class="st0" d="M27,108.3c-0.7,0-1.3-0.7-1.3-1.6c0-0.9,0.6-1.6,1.3-1.6c0.7,0,1.3,0.7,1.3,1.6
		C28.3,107.6,27.7,108.3,27,108.3z M27,105.3c-0.6,0-1.1,0.6-1.1,1.4c0,0.8,0.5,1.4,1.1,1.4s1.1-0.6,1.1-1.4
		C28.1,105.9,27.6,105.3,27,105.3z"/>
</g>
<g>
	<path class="st0" d="M32.3,110.5c-0.7,0-1.3-0.7-1.3-1.6s0.6-1.6,1.3-1.6c0.7,0,1.3,0.7,1.3,1.6S33,110.5,32.3,110.5z M32.3,107.5
		c-0.6,0-1.1,0.6-1.1,1.4s0.5,1.4,1.1,1.4c0.6,0,1.1-0.6,1.1-1.4S32.9,107.5,32.3,107.5z"/>
</g>
<g>
	<g>
		<g>
			<path class="st0" d="M21.4,99.6c0.1,0.8,0.4,1.6,0.9,2.2c0.1,0.2,0.4-0.1,0.2-0.2c-0.5-0.6-0.7-1.2-0.8-2
				C21.7,99.4,21.4,99.4,21.4,99.6L21.4,99.6z"/>
		</g>
	</g>
</g>
<g>
	<g>
		<g>
			<path class="st0" d="M23.8,104.1c0.1,1,0.9,1.9,1.9,2.1c0.2,0.1,0.3-0.3,0.1-0.3c-0.9-0.2-1.5-0.9-1.6-1.8
				C24,103.9,23.7,103.9,23.8,104.1L23.8,104.1z"/>
		</g>
	</g>
</g>
<g>
	<g>
		<g>
			<path class="st0" d="M27.8,107.5c1.1,0.6,2.2,1.1,3.3,1.7c0.2,0.1,0.3-0.2,0.2-0.3c-1.1-0.6-2.2-1.1-3.3-1.7
				C27.8,107.2,27.6,107.5,27.8,107.5L27.8,107.5z"/>
		</g>
	</g>
</g>
<g>
	<g>
		<g>
			<path class="st0" d="M32.8,109.6c0.6,0.3,1.3,0.5,2,0.5c0.2,0,0.2-0.3,0-0.3c-0.6,0-1.2-0.2-1.8-0.5
				C32.8,109.2,32.7,109.5,32.8,109.6L32.8,109.6z"/>
		</g>
	</g>
</g>
<g>
	<g>
		<g>
			<path class="st0" d="M66.4,106.3c1.4-0.6,2.5-1.5,3.5-2.7c0.1-0.2-0.1-0.4-0.2-0.2c-0.9,1.1-2.1,2-3.4,2.6
				C66.1,106.1,66.3,106.4,66.4,106.3L66.4,106.3z"/>
		</g>
	</g>
</g>
<g>
	<g>
		<g>
			<path class="st0" d="M27.7,107.3c-0.5,0.1-1.1-0.2-1.2-0.8c-0.1-0.6,0.4-1.1,0.9-1.1c0.2,0,0.2-0.3,0-0.3
				c-0.7,0.1-1.4,0.7-1.3,1.5c0.1,0.8,0.9,1.2,1.6,1.1C28,107.6,27.9,107.3,27.7,107.3L27.7,107.3z"/>
		</g>
	</g>
</g>
<g>
	<g>
		<g>
			<path class="st0" d="M23.6,104c-0.9-0.6-1.1-1.7-0.6-2.7c0.1-0.2-0.2-0.4-0.3-0.2c-0.5,1.1-0.2,2.4,0.8,3.1
				C23.6,104.4,23.8,104.1,23.6,104L23.6,104z"/>
		</g>
	</g>
</g>
<g>
	<g>
		<g>
			<path class="st0" d="M32.9,109.5c-0.9,0.2-1.7-0.7-1.2-1.6c0.1-0.2-0.2-0.3-0.3-0.2c-0.6,1.1,0.4,2.4,1.6,2.1
				C33.2,109.8,33.1,109.5,32.9,109.5L32.9,109.5z"/>
		</g>
	</g>
</g>
<g>
	<g>
		<g>
			<path class="st0" d="M22.6,101.5c1-3.2,1.2-6.5,0.4-9.8c-0.1-0.2-0.4-0.1-0.3,0.1c0.7,3.2,0.6,6.5-0.4,9.6
				C22.2,101.6,22.6,101.7,22.6,101.5L22.6,101.5z"/>
		</g>
	</g>
</g>
<g>
	<g>
		<g>
			<path class="st0" d="M27.2,105.3c2.1-5.1,0.2-10.5,0.2-15.8c0-1.4,0.1-2.9,0.5-4.3c0.4-1.4,1.2-2.6,1.5-4
				c0.5-2.1-0.3-4.3-1.9-5.7c-0.2-0.1-0.4,0.1-0.2,0.2c1.1,1,1.8,2.3,2,3.7c0.1,1.6-0.6,2.9-1.2,4.3c-0.9,2.1-1.1,4.3-1,6.6
				c0.2,5,1.8,10.1-0.2,14.9C26.8,105.4,27.2,105.5,27.2,105.3L27.2,105.3z"/>
		</g>
	</g>
</g>
<g>
	<g>
		<g>
			<path class="st0" d="M30.2,88c0.3,3.5,2.2,6.5,5,8.6c3.3,2.5,7.5,3.3,11.5,3.3c3.9,0.1,8.3-0.2,11.7-2.2
				c3.7-2.1,5.5-6.4,6.2-10.4c0-0.2-0.3-0.3-0.3-0.1c-0.7,3.9-2.5,8.1-6.1,10.2c-3.2,1.9-7.4,2.2-11.1,2.2c-3.9,0-7.9-0.6-11.2-2.9
				c-3-2-5.2-5.1-5.5-8.8C30.5,87.8,30.2,87.8,30.2,88L30.2,88z"/>
		</g>
	</g>
</g>
<g>
	<g>
		<g>
			<path class="st0" d="M35.6,57.2c0.2-0.6,0.6-1,1.2-1.1c0.2-0.1,0.1-0.4-0.1-0.3c-0.7,0.2-1.3,0.7-1.5,1.4
				C35.2,57.3,35.5,57.4,35.6,57.2L35.6,57.2z"/>
		</g>
	</g>
</g>
<g>
	<g>
		<g>
			<path class="st0" d="M36,52.4c0.4-0.5,1-0.6,1.6-0.4c0.2,0.1,0.3-0.2,0.1-0.3c-0.7-0.2-1.4,0-1.9,0.5
				C35.6,52.4,35.9,52.6,36,52.4L36,52.4z"/>
		</g>
	</g>
</g>
<g>
	<g>
		<g>
			<path class="st0" d="M39,48.9c0.3-0.2,0.7,0,0.8,0.4c0,0.2,0.4,0.1,0.3-0.1c-0.1-0.5-0.8-0.9-1.3-0.5C38.6,48.7,38.8,49,39,48.9
				L39,48.9z"/>
		</g>
	</g>
</g>
<g>
	<g>
		<g>
			<path class="st0" d="M43.6,66.1c0.6-0.3,0.9-0.9,1-1.5c0-0.2-0.3-0.2-0.3,0c0,0.5-0.3,1-0.8,1.2C43.2,65.9,43.4,66.2,43.6,66.1
				L43.6,66.1z"/>
		</g>
	</g>
</g>
<g>
	<g>
		<g>
			<path class="st0" d="M48.5,65.8c0-0.5,0-0.9,0-1.4c0-0.2-0.3-0.2-0.3,0c0,0.5,0,0.9,0,1.4C48.2,66,48.5,66,48.5,65.8L48.5,65.8z"
				/>
		</g>
	</g>
</g>
<g>
	<g>
		<g>
			<path class="st0" d="M56.3,67.3c0.5-0.4,0.9-0.9,1-1.6c0-0.2-0.3-0.3-0.3-0.1c-0.1,0.5-0.4,1-0.9,1.4
				C55.9,67.1,56.1,67.4,56.3,67.3L56.3,67.3z"/>
		</g>
	</g>
</g>
<g>
	<g>
		<g>
			<path class="st0" d="M61.5,66.6c0.1-0.5,0.2-0.9,0.2-1.4c0-0.2-0.3-0.3-0.3-0.1c-0.1,0.5-0.2,0.9-0.2,1.4
				C61.1,66.7,61.5,66.8,61.5,66.6L61.5,66.6z"/>
		</g>
	</g>
</g>
<g>
	<g>
		<g>
			<path class="st0" d="M64.8,64.5c0.3-0.5,0.4-1.1,0-1.6c-0.1-0.2-0.4,0-0.3,0.2c0.3,0.4,0.2,0.9,0,1.2
				C64.3,64.5,64.6,64.7,64.8,64.5L64.8,64.5z"/>
		</g>
	</g>
</g>
<g>
	<g>
		<g>
			<path class="st0" d="M34.5,64.2c0.6,0.1,1.2,0.2,1.7,0.3c0.2,0,0.3-0.3,0.1-0.3c-0.6-0.1-1.2-0.2-1.7-0.3
				C34.3,63.8,34.3,64.1,34.5,64.2L34.5,64.2z"/>
		</g>
	</g>
</g>
<g>
	<g>
		<g>
			<path class="st0" d="M35,65.6c0.2-0.1,0.3-0.2,0.5-0.1c0.2,0.1,0.3-0.3,0.1-0.3c-0.3-0.1-0.6,0-0.9,0.2
				C34.6,65.5,34.8,65.7,35,65.6L35,65.6z"/>
		</g>
	</g>
</g>
<g>
	<g>
		<g>
			<path class="st0" d="M40,98.2c0,0.6-0.2,1.2-0.4,1.8c-0.1,0.2,0.2,0.4,0.3,0.2c0.3-0.6,0.4-1.3,0.5-2C40.3,98,40,98,40,98.2
				L40,98.2z"/>
		</g>
	</g>
</g>
<g>
	<g>
		<g>
			<path class="st0" d="M41.2,98.7C41,99,41,99.3,41.3,99.6c0.1,0.2,0.4-0.1,0.2-0.2c-0.1-0.2-0.1-0.4-0.1-0.5
				C41.5,98.6,41.2,98.5,41.2,98.7L41.2,98.7z"/>
		</g>
	</g>
</g>
<g>
	<g>
		<g>
			<path class="st0" d="M65.1,102.7c0.6-0.1,1.2-0.2,1.8-0.6c0.2-0.1,0-0.4-0.2-0.3c-0.5,0.3-1,0.5-1.6,0.5
				C64.9,102.4,64.9,102.7,65.1,102.7L65.1,102.7z"/>
		</g>
	</g>
</g>
<g>
	<g>
		<g>
			<path class="st0" d="M65.7,103.9c0.4-0.2,0.8-0.4,1.2-0.7c0.2-0.1,0-0.4-0.2-0.3c-0.4,0.2-0.8,0.4-1.2,0.7
				C65.4,103.7,65.6,104,65.7,103.9L65.7,103.9z"/>
		</g>
	</g>
</g>
<g>
	<path class="st0" d="M47,63.3c-4.2,0-7.9-2.9-8.6-7.1c-0.4-2.2,0.2-4.5,1.6-6.4c1.4-1.9,3.4-3.1,5.8-3.5c4.8-0.8,9.3,2.3,10.1,7
		c0.8,4.6-2.5,9-7.4,9.8C48,63.2,47.5,63.3,47,63.3z M45.7,46.6l0,0.2c-2.2,0.4-4.2,1.5-5.5,3.3c-1.3,1.8-1.9,3.9-1.5,6.1
		c0.7,4.4,5.1,7.4,9.7,6.6c4.6-0.8,7.8-5,7-9.4c-0.7-4.4-5.1-7.4-9.7-6.6L45.7,46.6z"/>
</g>
<g>
	<g>
		<g>
			<path class="st0" d="M38.3,113.7c-2.4,1.1-2.8,4.1-0.8,5.7c0.6,0.5,1.4,0.9,2.1,1.3c0.7,0.4,1.3,1,2,1.4c1,0.6,2.2,0.8,3.2,0.1
				c0.2-0.1,0-0.4-0.2-0.3c-2,1.2-4.2-1.1-5.8-2c-1-0.6-2.1-1.3-2.3-2.5c-0.3-1.5,0.5-2.8,1.9-3.4C38.6,113.9,38.5,113.7,38.3,113.7
				L38.3,113.7z"/>
		</g>
	</g>
</g>
<g>
	<g>
		<g>
			<path class="st0" d="M54.8,113.5c-1.2,1.7-2.1,4.1,0.3,5c1.5,0.5,3.1,1.1,4.7,1.5c1.1,0.2,2.2,0.2,3.2-0.4c0.2-0.1,0-0.4-0.2-0.3
				c-1.8,1.2-4,0.1-5.8-0.5c-0.4-0.2-0.9-0.3-1.4-0.4c-0.7-0.2-1-0.3-1.4-1.1c-0.6-1.2,0.2-2.5,0.9-3.6
				C55.2,113.5,54.9,113.4,54.8,113.5L54.8,113.5z"/>
		</g>
	</g>
</g>
<g>
	<g>
		<g>
			<path class="st0" d="M36.4,113.5c0.1,0.5,0.3,1,0.4,1.6c0.1,0.2,0.4,0.1,0.3-0.1c-0.1-0.5-0.3-1-0.4-1.6
				C36.7,113.2,36.4,113.3,36.4,113.5L36.4,113.5z"/>
		</g>
	</g>
</g>
<g>
	<g>
		<g>
			<path class="st0" d="M52.7,114.3c0.4,0.4,0.8,0.7,1.2,1.1c0.2,0.1,0.4-0.1,0.2-0.2c-0.4-0.4-0.8-0.7-1.2-1.1
				C52.8,113.9,52.5,114.1,52.7,114.3L52.7,114.3z"/>
		</g>
	</g>
</g>
<g>
	<g>
		<g>
			<path class="st0" d="M36.8,113.3c0.7-2.1,4.3-1.5,5.9-1.1c0.2,0.1,0.3-0.3,0.1-0.3c-1.8-0.4-5.5-1-6.3,1.3
				C36.5,113.4,36.8,113.5,36.8,113.3L36.8,113.3z"/>
		</g>
	</g>
</g>
<g>
	<g>
		<g>
			<path class="st0" d="M52.3,114.2c1-2.5,3.7-3.2,6.1-3.7c0.2-0.1,0.1-0.4-0.1-0.3c-2.5,0.5-5.3,1.3-6.4,3.9
				C51.9,114.3,52.2,114.4,52.3,114.2L52.3,114.2z"/>
		</g>
	</g>
</g>
<g>
	<g>
		<g>
			<path class="st0" d="M22,76.4c0-1.6,1.7-1.8,2.8-1.2c0.8,0.5,1.4,1.4,1.9,2.2c0.1,0.2,0.4,0,0.3-0.2c-0.8-1.2-1.7-2.5-3.2-2.7
				c-1.1-0.1-2.1,0.7-2.1,1.8C21.6,76.6,22,76.6,22,76.4L22,76.4z"/>
		</g>
	</g>
</g>
<g>
	<g>
		<g>
			<path class="st0" d="M66.2,84.2c0.4-1.8,2.2-5,4.4-4.3c0.2,0.1,0.3-0.3,0.1-0.3c-2.5-0.8-4.4,2.6-4.9,4.5
				C65.8,84.3,66.2,84.4,66.2,84.2L66.2,84.2z"/>
		</g>
	</g>
</g>
<g>
	<g>
		<g>
			<path class="st0" d="M84.9,18.5c-19.1,0-35.1,11.9-39.3,27.9c0.2-0.1,0.4-0.1,0.6-0.1C50.4,30.6,66.2,19,84.9,19
				c22,0,39.9,16,39.9,35.7s-17.9,35.7-39.9,35.7c-5.2,0-10.1-0.9-14.6-2.5c-0.1,0.1-0.2,0.3-0.4,0.4c4.7,1.7,9.7,2.6,15,2.6
				c22.3,0,40.4-16.2,40.4-36.1C125.3,34.7,107.2,18.5,84.9,18.5z"/>
		</g>
		<g>
			<path class="st0" d="M66.2,86.7c0.3,0.2,0.7,0.3,1,0.5c0-0.2,0.1-0.3,0.2-0.4c-0.4-0.2-0.9-0.4-1.3-0.6
				C66.1,86.3,66.1,86.5,66.2,86.7z"/>
		</g>
	</g>
	<g>
		<g>
			<path class="st0" d="M85.1,18.7c-18.2,0-33.7,11.6-38.7,27.5c0.1,0,0.2,0,0.2,0c0.1,0,0.2,0,0.3,0.1c5-15.7,20.2-27.1,38.2-27.1
				c22,0,39.9,17.1,39.9,38.1s-17.9,38.1-39.9,38.1c-6.3,0-12.3-1.4-17.6-3.9c0.1,0.2,0.2,0.4,0.2,0.6c5.3,2.4,11.2,3.8,17.4,3.8
				c22.3,0,40.4-17.3,40.4-38.6C125.5,36,107.4,18.7,85.1,18.7z"/>
		</g>
	</g>
	<g>
		<g>
			<path class="st0" d="M84.9,18.7c-18.1,0-33.4,11.6-38.5,27.5c0.1,0,0.2,0,0.3,0c0.1,0,0.2,0,0.2,0.1c5.1-15.7,20.2-27.1,38-27.1
				c22,0,39.9,17.4,39.9,38.8s-17.9,38.8-39.9,38.8c-6,0-11.7-1.3-16.8-3.6c0.1,0.2,0.2,0.4,0.3,0.6c5.1,2.2,10.7,3.5,16.6,3.5
				c22.3,0,40.4-17.6,40.4-39.3S107.2,18.7,84.9,18.7z"/>
		</g>
	</g>
</g>
<g>
	<g>
		<g>
			<path class="st0" d="M80.1,91.5c-0.8-0.3-3.2-0.9-3.7,0.3c-0.4,1,1.4,1.2,1.9,1.3c0.9,0.2,1.9,0.4,2.8,0.5c0.3,0,0.6,0,0.8-0.2
				c0.6-1-1.6-1.6-2.1-1.7c-0.2,0-0.3,0.3-0.1,0.3c0.4,0.1,0.8,0.2,1.2,0.4c0.2,0.1,0.3,0.2,0.5,0.4c-0.1,0.2-0.2,0.4-0.3,0.6
				c-0.4,0.2-2.1-0.3-2.5-0.4c-0.5-0.1-2.4-0.4-1.2-1.3c0.6-0.4,2,0,2.6,0.3C80.2,91.9,80.3,91.5,80.1,91.5L80.1,91.5z"/>
		</g>
	</g>
</g>
<g>
	<g>
		<g>
			<path class="st0" d="M76.3,92.5c-1.5,1.2,2,1.7,2.5,1.8c0.9,0.2,3.4,0.6,2.9-1.1c-0.1-0.2-0.4-0.1-0.3,0.1c-0.3,0.3-0.7,0.7-1,1
				c-0.3,0-0.6-0.1-0.9-0.1c-0.3-0.1-0.7-0.1-1-0.2c-0.2,0-2.8-0.5-1.9-1.2C76.7,92.6,76.5,92.4,76.3,92.5L76.3,92.5z"/>
		</g>
	</g>
</g>
<g>
	<g>
		<g>
			<path class="st0" d="M85.3,92.5c-0.5-0.3-1.1-0.6-1.6-0.3c-0.3,0.2-0.6,0.6-0.5,1c0.2,0.5,0.7,0.5,1.1,0.5c1.1,0.1,2.3,0,3.4-0.1
				c0.2,0,0.2-0.3,0.1-0.3c-0.9-0.3-1.8-0.6-2.8-0.8c-0.2,0-0.3,0.3-0.1,0.3c0.9,0.2,1.9,0.4,2.8,0.8c0-0.1,0-0.2,0.1-0.3
				c-0.8,0.1-1.5,0.1-2.3,0.1c-0.3,0-0.7,0-1,0c-0.5,0.1-0.6-0.2,0-0.9c0.3,0.1,0.5,0.2,0.7,0.3C85.3,92.9,85.4,92.6,85.3,92.5
				L85.3,92.5z"/>
		</g>
	</g>
</g>
<g>
	<g>
		<g>
			<path class="st0" d="M83.8,93.6c-0.7,1,3,0.8,3.3,0.7c1.2-0.2,0.2-1.2-0.1-0.7c-0.1,0.2,0.2,0.3,0.3,0.2
				c-0.3,0.4-1.2,0.3-1.6,0.3c-0.2,0-1.8,0-1.6-0.3C84.1,93.6,83.9,93.5,83.8,93.6L83.8,93.6z"/>
		</g>
	</g>
</g>
<g>
	<g>
		<g>
			<path class="st0" d="M90.7,92.3c-0.6-0.2-1.6-0.2-2,0.4c-0.3,0.4-0.1,1,0.4,1.2c0.8,0.4,2-0.1,2.8-0.3c1.7-0.4,3.3-0.9,4.8-1.6
				c0.1-0.1,0.2-0.2,0.1-0.3c-2.1-1.8-4.7-0.5-6.8,0.8c-0.2,0.1,0,0.4,0.2,0.3c1-0.6,2-1.3,3.2-1.5c0.5-0.1,1.1-0.2,1.7-0.1
				c0.3,0.1,0.6,0.2,1,0.3c0.2,0.2,0.2,0.4-0.1,0.4c-0.3,0.3-1.2,0.5-1.6,0.6c-0.5,0.2-0.9,0.3-1.4,0.4c-0.5,0.1-0.9,0.2-1.4,0.3
				c-0.3,0.1-0.6,0.1-1,0.2c-0.8,0.3-0.8,0,0.1-0.9C90.8,92.6,90.9,92.3,90.7,92.3L90.7,92.3z"/>
		</g>
	</g>
</g>
<g>
	<g>
		<g>
			<path class="st0" d="M91.3,93.4c1.7-0.4,3.3-1.1,4.7-2.2c0.2-0.1-0.1-0.4-0.2-0.2c-1.4,1.1-2.9,1.7-4.5,2.1
				C91.1,93.1,91.1,93.4,91.3,93.4L91.3,93.4z"/>
		</g>
	</g>
</g>
<g>
	<g>
		<g>
			<path class="st0" d="M46.9,114c-1.4-1.9-2.4-4.1-2.8-6.4c-0.2-1.2-0.3-2.4-0.3-3.6c0-0.3,0.4-4.3,1.1-4c0.2,0.1,0.3-0.2,0.1-0.3
				c-1.6-0.6-1.5,5.4-1.5,6.1c0.2,3,1.3,5.9,3.1,8.3C46.7,114.3,47,114.2,46.9,114L46.9,114z"/>
		</g>
	</g>
</g>
<g>
	<g>
		<g>
			<path class="st0" d="M52.3,114c0.4-2.7,2-5,2.3-7.7c0.2-2.4-0.5-4.8-1.8-6.8c-0.1-0.2-0.4,0-0.3,0.2c1.5,2.2,2.1,4.8,1.7,7.5
				c-0.4,2.4-1.7,4.4-2.2,6.8C51.9,114.1,52.2,114.2,52.3,114L52.3,114z"/>
		</g>
	</g>
</g>
<g>
	<g>
		<g>
			<path class="st0" d="M23.5,104.6c-0.3,1.4-0.1,2.7,0.6,3.9c0.1,0.2,0.4,0,0.3-0.2c-0.6-1.1-0.8-2.4-0.6-3.7
				C23.9,104.5,23.6,104.4,23.5,104.6L23.5,104.6z"/>
		</g>
	</g>
</g>
<g>
	<g>
		<g>
			<path class="st0" d="M25.5,105.9c-0.4,1.6,0.1,3.2,1.4,4.2c0.2,0.1,0.4-0.1,0.2-0.2c-1.2-1-1.7-2.4-1.3-3.9
				C25.9,105.8,25.5,105.7,25.5,105.9L25.5,105.9z"/>
		</g>
	</g>
</g>
<g>
	<g>
		<g>
			<path class="st0" d="M27.2,110.4c0.3-0.9,0.6-1.8,0.9-2.8c0.1-0.2-0.3-0.3-0.3-0.1c-0.3,0.9-0.6,1.8-0.9,2.8
				C26.8,110.5,27.1,110.6,27.2,110.4L27.2,110.4z"/>
		</g>
	</g>
</g>
<g>
	<g>
		<g>
			<path class="st0" d="M30.9,109.1c-0.1,0.8-0.1,1.7,0.2,2.4c0.1,0.4,0.4,0.8,0.8,0.8c1.4,0.1,1.6-1.5,1.5-2.5c0-0.2-0.3-0.2-0.3,0
				c0.1,0.7,0,2.5-1.2,2.2c-0.5-0.2-0.6-1-0.6-1.5c-0.1-0.5-0.1-1,0-1.4C31.3,108.9,31,108.9,30.9,109.1L30.9,109.1z"/>
		</g>
	</g>
</g>
<g>
	<g>
		<g>
			<path class="st0" d="M68,105.9c0-0.2,0.1-0.4,0.1-0.6c0-0.2-0.3-0.3-0.3-0.1c-0.1,0.4-0.3,0.9-0.4,1.4c-0.1,0.3-0.3,0.7-0.3,1
				c0,0.3,0.4,0.5,0.6,0.2c0.1-0.2-0.2-0.3-0.3-0.2c0-0.1,0-0.3,0.1-0.4c0-0.1,0-0.1,0.1-0.2c0.1-0.2,0.1-0.4,0.2-0.6
				c0.1-0.4,0.2-0.7,0.3-1.1c-0.1,0-0.2-0.1-0.3-0.1c0,0.2-0.1,0.4-0.1,0.6C67.7,106,68,106.1,68,105.9L68,105.9z"/>
		</g>
	</g>
</g>
<g>
	<g>
		<g>
			<path class="st0" d="M74,89.4c-1.2,1-2.3,2.2-3.2,3.4c-0.1,0.2,0.1,0.4,0.2,0.2c1-1.2,2-2.3,3.2-3.4C74.3,89.4,74.1,89.2,74,89.4
				L74,89.4z"/>
		</g>
	</g>
</g>
<g>
	<g>
		<g>
			<path class="st0" d="M99.7,87.9c1.5,1,2.9,2.1,4.2,3.4c0.2,0.2,0.4-0.1,0.2-0.2c-1.3-1.3-2.7-2.4-4.3-3.5
				C99.7,87.5,99.6,87.7,99.7,87.9L99.7,87.9z"/>
		</g>
	</g>
</g>
<g>
	<g>
		<g>
			<path class="st0" d="M108.2,83.8c1.3,0.6,2.5,1.4,3.8,2.1c0.2,0.1,0.3-0.2,0.2-0.3c-1.2-0.8-2.5-1.5-3.8-2.1
				C108.2,83.4,108,83.7,108.2,83.8L108.2,83.8z"/>
		</g>
	</g>
</g>
<g>
	<g>
		<g>
			<path class="st0" d="M114.6,79.4c0.2-0.3,0-0.5-0.3-0.5c-0.2,0-0.2,0.2-0.1,0.3c0.8,0.4,1.6,0.9,2.4,1.3c0.2,0.1,0.3-0.2,0.2-0.3
				c-0.8-0.4-1.6-0.9-2.4-1.3c0,0.1-0.1,0.2-0.1,0.3c0,0,0,0,0,0.1C114.2,79.4,114.5,79.6,114.6,79.4L114.6,79.4z"/>
		</g>
	</g>
</g>
<g>
	<g>
		<g>
			<path class="st0" d="M118.2,75c0.5,0.3,1,0.6,1.5,0.9c0.2,0.1,0.3-0.2,0.2-0.3c-0.5-0.3-1-0.6-1.5-0.9
				C118.2,74.6,118.1,74.9,118.2,75L118.2,75z"/>
		</g>
	</g>
</g>
<g>
	<g>
		<g>
			<path class="st0" d="M119.9,72.2L119.9,72.2c0,0,0.1-0.1,0.1-0.1c-0.1,0.1,0.4,0.2,0.4,0.2c0.1,0,0.2,0.1,0.4,0.1
				c0.2,0.1,0.5,0.1,0.7,0.2c0.2,0.1,0.3-0.3,0.1-0.3c-0.3-0.1-0.7-0.1-1-0.2c-0.2-0.1-0.5-0.2-0.7,0c-0.3,0.2,0,0.6,0.3,0.4
				c0.1,0,0.1-0.1,0.1-0.1v0C120.2,72,119.9,72,119.9,72.2L119.9,72.2z"/>
		</g>
	</g>
</g>
<g>
	<g>
		<g>
			<path class="st0" d="M121.7,69.2c-0.1,0.1,0.3,0.1,0.3,0.1c0.1,0,0.2,0,0.3,0.1c0.2,0.1,0.4,0.2,0.5,0.3s0.4-0.1,0.2-0.2
				c-0.2-0.2-0.4-0.3-0.7-0.4c-0.2-0.1-0.5-0.1-0.7,0c-0.4,0.2,0.1,0.7,0.3,0.4C122.1,69.2,121.8,69,121.7,69.2L121.7,69.2z"/>
		</g>
	</g>
</g>
<g>
	<g>
		<g>
			<path class="st0" d="M123,67c0.3-0.1,0.5-0.1,0.7,0c0.2,0.1,0.3-0.2,0.2-0.3c-0.3-0.2-0.7-0.2-1-0.1
				C122.7,66.8,122.8,67.1,123,67L123,67z"/>
		</g>
	</g>
</g>
<g>
	<g>
		<g>
			<path class="st0" d="M124,64.3c0.1,0,0.2,0,0.3,0c0.2,0,0.2-0.3,0-0.3c-0.1,0-0.2,0-0.3,0C123.8,63.9,123.8,64.3,124,64.3
				L124,64.3z"/>
		</g>
	</g>
</g>
<g>
	<g>
		<g>
			<path class="st0" d="M52.6,99.8c7.3-9.1,8.9-22.1,4.1-32.7c-0.1-0.2-0.4,0-0.3,0.2c4.8,10.5,3.2,23.3-4,32.3
				C52.2,99.7,52.4,99.9,52.6,99.8L52.6,99.8z"/>
		</g>
	</g>
</g>
<g>
	<g>
		<g>
			<path class="st0" d="M44.8,99.4c-4.2-10.5-6.5-22.6-1.1-33.1c0.1-0.2-0.2-0.3-0.3-0.2c-5.4,10.6-3.1,22.8,1.1,33.4
				C44.5,99.7,44.9,99.6,44.8,99.4L44.8,99.4z"/>
		</g>
	</g>
</g>
<g>
	<g>
		<g>
			<path class="st0" d="M40.8,95.7c0.5,0.1,1-0.2,1.1-0.6c0.1-0.4-0.2-0.9-0.6-1c-0.4-0.1-0.9,0.1-1,0.4c-0.2,0.4,0,0.9,0.3,1.1
				c0.2,0.1,0.3-0.2,0.2-0.3c-0.5-0.3-0.2-1.1,0.4-1c0.2,0.1,0.5,0.3,0.4,0.5c0,0.3-0.4,0.6-0.7,0.5C40.7,95.4,40.6,95.7,40.8,95.7
				L40.8,95.7z"/>
		</g>
	</g>
</g>
<g>
	<g>
		<g>
			<path class="st0" d="M38.7,88.7c-0.2-0.3-0.1-0.7,0.2-0.9c0.3-0.3,0.8-0.1,1,0.2C40.3,88.7,39.2,89.3,38.7,88.7
				c-0.1-0.1-0.4,0.1-0.2,0.3c0.3,0.4,1,0.4,1.4,0.2c0.5-0.3,0.5-0.9,0.2-1.4c-0.3-0.4-0.9-0.6-1.3-0.3c-0.4,0.3-0.6,0.9-0.3,1.4
				C38.6,89,38.9,88.9,38.7,88.7L38.7,88.7z"/>
		</g>
	</g>
</g>
<g>
	<g>
		<g>
			<path class="st0" d="M38.2,82.9c-0.2-0.2-0.3-0.4-0.3-0.6c0-0.2,0.2-0.5,0.4-0.6c0.3-0.1,0.6,0.3,0.7,0.5
				c0.1,0.3-0.2,0.7-0.5,0.6c-0.2-0.1-0.3,0.2-0.1,0.3c0.4,0.2,0.9-0.2,1-0.6c0.1-0.5-0.3-0.9-0.8-1.1c-0.2-0.1-0.4-0.1-0.6,0.1
				c-0.2,0.1-0.3,0.3-0.3,0.5c-0.1,0.4-0.1,0.9,0.3,1.2C38.1,83.3,38.4,83.1,38.2,82.9L38.2,82.9z"/>
		</g>
	</g>
</g>
<g>
	<g>
		<g>
			<path class="st0" d="M38.2,77.1c-0.2-0.2-0.2-0.5-0.1-0.8c0.1-0.1,0.2-0.2,0.3-0.3c0.2-0.1,0.3,0,0.4,0.1
				c0.2,0.2,0.5,0.7,0.1,0.9c-0.2,0.1-0.5,0.1-0.5-0.2c0-0.2-0.3-0.1-0.3,0.1c0.1,0.4,0.6,0.5,0.9,0.4c0.5-0.2,0.5-0.8,0.2-1.2
				c-0.1-0.2-0.4-0.5-0.6-0.5c-0.2,0-0.5,0.2-0.6,0.3c-0.3,0.4-0.4,0.9-0.1,1.3C38,77.5,38.3,77.3,38.2,77.1L38.2,77.1z"/>
		</g>
	</g>
</g>
<g>
	<g>
		<g>
			<path class="st0" d="M39.1,70.3c-0.2-0.3-0.1-0.6,0.2-0.8c0.3-0.3,0.7-0.1,0.9,0.2C40.6,70.3,39.7,70.9,39.1,70.3
				c-0.1-0.1-0.3,0.2-0.2,0.3c0.3,0.4,0.9,0.4,1.3,0.1c0.4-0.3,0.5-0.9,0.2-1.3c-0.3-0.4-0.9-0.6-1.3-0.3c-0.4,0.3-0.5,0.9-0.3,1.3
				C39,70.7,39.2,70.5,39.1,70.3L39.1,70.3z"/>
		</g>
	</g>
</g>
<g>
	<g>
		<g>
			<path class="st0" d="M57.4,95.1c-0.3-0.3,0.1-0.8,0.4-0.5c0.4,0.3-0.1,0.8-0.5,0.5c-0.2-0.1-0.3,0.2-0.2,0.3
				c0.3,0.2,0.7,0.1,0.9-0.1c0.3-0.3,0.2-0.7-0.1-1c-0.3-0.2-0.7-0.2-0.9,0.1c-0.2,0.3-0.2,0.7,0.1,0.9
				C57.3,95.5,57.6,95.2,57.4,95.1L57.4,95.1z"/>
		</g>
	</g>
</g>
<g>
	<g>
		<g>
			<path class="st0" d="M58.6,90.3c-0.2-0.2,0.3-0.6,0.4-0.4C59.2,90.1,58.9,90.5,58.6,90.3c-0.1-0.1-0.3,0.2-0.1,0.3
				c0.5,0.4,1.2-0.5,0.8-1c-0.2-0.2-0.6-0.1-0.8,0.1c-0.2,0.2-0.3,0.5-0.1,0.8C58.5,90.7,58.7,90.4,58.6,90.3L58.6,90.3z"/>
		</g>
	</g>
</g>
<g>
	<g>
		<g>
			<path class="st0" d="M59.9,83.2c0-0.2,0.1-0.3,0.2-0.4c-0.1,0-0.1,0-0.1,0c0.2,0.1,0.5,0.5,0.3,0.7c-0.1,0.1-0.3,0.1-0.3-0.1
				c0-0.2-0.3-0.3-0.3-0.1c-0.1,0.3,0.2,0.5,0.4,0.5c0.3,0,0.5-0.2,0.6-0.4c0.1-0.3-0.2-0.7-0.5-0.9c-0.2-0.1-0.3,0.1-0.4,0.2
				c-0.1,0.1-0.2,0.3-0.2,0.5C59.6,83.4,60,83.4,59.9,83.2L59.9,83.2z"/>
		</g>
	</g>
</g>
<g>
	<g>
		<g>
			<path class="st0" d="M60.2,76.5c-0.1,0-0.2-0.2-0.1-0.3c0.1-0.1,0.2-0.2,0.3-0.1c0.4,0.1,0.3,0.5,0.1,0.8c0.1,0,0.1,0,0.2-0.1
				c-0.2-0.1-0.3-0.1-0.5-0.1c-0.2-0.1-0.3,0.3-0.1,0.3c0.2,0.1,0.3,0.1,0.5,0.1c0.1,0,0.1,0,0.2-0.1c0.2-0.2,0.3-0.5,0.2-0.9
				c-0.1-0.3-0.4-0.5-0.6-0.5c-0.6,0-0.8,0.9-0.2,1.1C60.3,76.9,60.4,76.6,60.2,76.5L60.2,76.5z"/>
		</g>
	</g>
</g>
<g>
	<g>
		<g>
			<path class="st0" d="M58.9,70.8c-0.1-0.2-0.1-0.4,0-0.5c0.2-0.2,0.4-0.1,0.5,0c0.2,0.2,0.2,0.4,0,0.5
				C59.2,70.9,59,70.9,58.9,70.8c-0.2-0.1-0.4,0.1-0.2,0.2c0.3,0.3,0.7,0.3,1,0c0.3-0.3,0.3-0.7,0-1c-0.3-0.3-0.7-0.3-1,0
				c-0.3,0.3-0.3,0.7,0,1C58.8,71.2,59,71,58.9,70.8L58.9,70.8z"/>
		</g>
	</g>
</g>
<g>
	<g>
		<g>
			<path class="st0" d="M40.5,66.4c-0.3,0.7-0.5,1.4-0.8,2.1c-0.1,0.2,0.2,0.3,0.3,0.1c0.3-0.7,0.5-1.4,0.8-2.1
				C40.9,66.3,40.6,66.2,40.5,66.4L40.5,66.4z"/>
		</g>
	</g>
</g>
<g>
	<g>
		<g>
			<path class="st0" d="M39.2,71.7c-0.2,0.9-0.4,1.8-0.6,2.8c-0.1,0.2,0.3,0.3,0.3,0.1c0.2-0.9,0.4-1.8,0.6-2.8
				C39.6,71.6,39.2,71.5,39.2,71.7L39.2,71.7z"/>
		</g>
	</g>
</g>
<g>
	<g>
		<g>
			<path class="st0" d="M38.1,78.3c-0.2,0.8-0.2,1.5-0.2,2.3c0,0.2,0.3,0.2,0.3,0c-0.1-0.8,0-1.5,0.2-2.2
				C38.5,78.2,38.2,78.1,38.1,78.3L38.1,78.3z"/>
		</g>
	</g>
</g>
<g>
	<g>
		<g>
			<path class="st0" d="M38.1,84.5c0.1,0.8,0.2,1.5,0.4,2.3c0,0.2,0.3,0.1,0.3-0.1c0-0.1,0-0.1,0-0.2c0-0.2-0.3-0.2-0.3,0
				c0,0.1,0,0.1,0,0.2c0.1,0,0.2,0,0.3-0.1c-0.1-0.8-0.2-1.5-0.4-2.3C38.4,84.2,38.1,84.3,38.1,84.5L38.1,84.5z"/>
		</g>
	</g>
</g>
<g>
	<g>
		<g>
			<path class="st0" d="M39.3,89.8c0.2,1.2,0.4,2.5,0.8,3.7c0.1,0.2,0.4,0.1,0.3-0.1c-0.3-1.2-0.6-2.4-0.7-3.6
				C39.6,89.6,39.3,89.6,39.3,89.8L39.3,89.8z"/>
		</g>
	</g>
</g>
<g>
	<g>
		<g>
			<path class="st0" d="M41.4,96.4c0.1,0.6,0.4,1.2,0.7,1.8c0.1,0.2,0.4,0,0.3-0.2c-0.3-0.5-0.5-1.1-0.6-1.7
				C41.7,96.1,41.4,96.2,41.4,96.4L41.4,96.4z"/>
		</g>
	</g>
</g>
<g>
	<g>
		<g>
			<path class="st0" d="M58.1,68.2c0.1,0.3,0.1,0.7,0.2,1c0,0.2,0.4,0.1,0.3-0.1c-0.1-0.3-0.1-0.7-0.2-1C58.3,67.9,58,68,58.1,68.2
				L58.1,68.2z"/>
		</g>
	</g>
</g>
<g>
	<g>
		<g>
			<path class="st0" d="M59.2,71.8c0.2,1,0.4,2,0.6,3c0.1,0.2,0.4,0.1,0.3-0.1c-0.2-1-0.4-2-0.6-3C59.5,71.6,59.2,71.6,59.2,71.8
				L59.2,71.8z"/>
		</g>
	</g>
</g>
<g>
	<g>
		<g>
			<path class="st0" d="M60.2,77.7c-0.1,1.5-0.2,3-0.3,4.5c0,0.2,0.3,0.2,0.3,0c0.1-1.5,0.2-3,0.3-4.5
				C60.6,77.5,60.3,77.5,60.2,77.7L60.2,77.7z"/>
		</g>
	</g>
</g>
<g>
	<g>
		<g>
			<path class="st0" d="M59.7,85.6c-0.3,1.2-0.5,2.4-0.8,3.6c-0.1,0.2,0.3,0.3,0.3,0.1c0.3-1.2,0.5-2.4,0.8-3.6
				C60.1,85.5,59.7,85.4,59.7,85.6L59.7,85.6z"/>
		</g>
	</g>
</g>
<g>
	<g>
		<g>
			<path class="st0" d="M57.7,91.9c0.1,0.6,0,1.1-0.3,1.6c-0.1,0.2,0.2,0.3,0.3,0.2c0.3-0.6,0.5-1.2,0.4-1.9
				C58,91.6,57.7,91.7,57.7,91.9L57.7,91.9z"/>
		</g>
	</g>
</g>
<g>
	<g>
		<g>
			<path class="st0" d="M56.5,96.9c0,0.3-0.1,0.6-0.3,0.9c0.1,0.1,0.2,0.1,0.3,0.2c0.1-0.2,0.2-0.3,0.3-0.5c0.1-0.2-0.2-0.3-0.3-0.2
				c-0.1,0.2-0.2,0.3-0.3,0.5c-0.1,0.2,0.2,0.3,0.3,0.2c0.2-0.3,0.3-0.7,0.3-1.1C56.9,96.7,56.5,96.7,56.5,96.9L56.5,96.9z"/>
		</g>
	</g>
</g>
<g>
	<g>
		<g>
			<path class="st0" d="M36,111.6c2.4-1.5,5.3-1.9,8.1-1.2c0.2,0.1,0.2-0.1,0.2-0.2c-1.1-2.5-5.5-1.2-7.4-0.8
				c-0.4,0.1-1.1,0.4-1.5,0.3c0.1-0.4,0.1-0.9,0.2-1.3c0.3-0.2,0.6-0.3,0.9-0.4c0.9-0.3,1.8-0.2,2.7-0.1c1.1,0.1,3.2,0.9,4.2,0
				c0.4-0.4,0.4-0.8,0-1.2c-0.2-0.2-0.6-0.2-0.9-0.3c-1.1-0.2-2.2-0.2-3.3-0.1c-0.6,0-1.3,0.1-1.9,0.2c-0.5,0.1-0.9,0.2-1.4,0.3
				c-0.4,0.1-1.1,0.4-1.5,0.3c-1.5-0.5,0.3-1.5,0.6-1.6c0.4-0.2,0.9-0.4,1.4-0.4c1.1-0.2,2.3-0.1,3.4,0.1c0.9,0.1,2.7,0.9,3.5,0.4
				c0.8-0.5,0.3-1.3-0.2-1.8c-0.9-0.7-2.3-0.6-3.4-0.6c-0.8,0.1-1.6,0.2-2.4,0.4c-0.9,0.2-1.9,0.7-2.9,0.7c-0.2,0.1-0.3,0.1-0.5,0.2
				c-0.7-0.8-0.8-1.4-0.1-1.6c0.4-0.3,1-0.5,1.5-0.6c0.8-0.2,1.6-0.2,2.4-0.2c1,0.1,1.9,0.2,2.9,0.5c0.7,0.2,1.6,0.5,2.3,0.2
				c0.5-0.2,1-0.8,0.8-1.4c-0.3-0.9-1.9-0.8-2.6-0.8c-2.1,0-4.2,0.3-6.2-0.2c-1-0.2-2.1-0.6-2.9-1.4c-0.3-0.3-0.6-0.6-0.8-0.9
				c-0.7-1.8,1-1.6,1.9-1.3c1.9,0.6,3.5,1.9,5.4,2.5c1.8,0.6,3.6,0.8,5.4,0.5c0.2-0.1,0.1-0.4-0.1-0.3c-2.2,0.4-4.4-0.1-6.5-1
				c-1.6-0.7-3.2-1.9-5-2.3c-0.7-0.1-1.6-0.1-1.8,0.8c-0.1,1,0.9,1.9,1.5,2.4c2.8,2.1,6.3,1.2,9.5,1.4c0.2,0,0.3,0,0.5,0
				c1.3-0.1,1.1,0.4-0.5,1.5c-0.3,0-0.9-0.2-1.3-0.3c-0.6-0.1-1.1-0.2-1.7-0.3c-1.5-0.2-3.1-0.1-4.5,0.5c-0.7,0.3-1.8,1-1.6,1.9
				c0.3,1.1,1.7,0.4,2.4,0.2c1.9-0.5,4-1.1,6-1c0.4,0,1.9,0.2,2.1,0.7c-0.2,0.4-0.4,0.8-0.5,1.1c-0.4-0.1-0.8-0.1-1.2-0.2
				c-1-0.2-1.9-0.4-2.9-0.4c-1.4-0.1-2.8,0.1-3.9,0.8c-0.5,0.3-1.5,1-1,1.7c0.5,0.7,1.9,0.1,2.5,0c1.1-0.2,2.2-0.4,3.2-0.5
				c0.5,0,0.9,0,1.4,0c0.4,0,1.8-0.1,2.1,0.2c-0.1,0.3-0.2,0.7-0.3,1c-0.3,0-0.6,0-0.9,0c-0.6-0.1-1.2-0.2-1.8-0.2
				c-0.9-0.1-1.8-0.2-2.6-0.1c-0.8,0.1-2.5,0.6-2.4,1.7c0.2,2.1,8.1-2.2,9.5,1c0.1-0.1,0.1-0.2,0.2-0.2c-2.9-0.8-5.8-0.3-8.3,1.2
				C35.7,111.4,35.8,111.7,36,111.6L36,111.6z"/>
		</g>
	</g>
</g>
<g>
	<g>
		<g>
			<path class="st0" d="M53,111.8c0-0.3,0.6-0.9,0.8-1c0.3-0.2,0.7-0.3,1-0.4c0.5-0.2,1-0.4,1.6-0.6c1.1-0.4,2.2-0.6,3.4-0.5
				c1.4,0.1,3.2,1.5,4.5,0.6c0.7-0.5,0.8-1.3,0.2-1.9c-1-1-3-1-4.3-1c-0.8,0.1-1.6,0.2-2.4,0.4c-0.7,0.2-2.1,1.1-2.8,0.8
				c-0.1-0.1-0.2-0.2-0.2-0.3c-0.3-0.2-0.3-0.3-0.1-0.4c0.1-0.1,0.4-0.2,0.5-0.3c0.4-0.2,0.9-0.4,1.4-0.6c1-0.3,2-0.5,3.1-0.5
				c1.8-0.1,3.4,0.4,5.1,0.6c0.6,0.1,1.7,0,1.5-1c-0.2-1-2-1.2-2.8-1.3c-1.8-0.2-3.6,0.1-5.4,0.4c-0.5,0.1-1.1,0.2-1.6,0.3
				c-0.6,0.1-0.6,0.3-0.9-0.4c-0.3-0.7,0-0.6,0.6-0.9c1.1-0.4,2.4-0.6,3.6-0.5c1.8,0.1,3.6,1,5.4,0.6c0.6-0.1,1.5-0.6,1.1-1.4
				c-0.2-0.3-0.5-0.4-0.8-0.4c-0.9-0.2-1.9-0.2-2.8-0.2c-1.9-0.1-3.9-0.1-5.8,0.3c-0.4,0.1-0.9,0.2-1.3,0.4c0,0-0.5,0.2-0.5,0.2
				c0-0.2,0-0.4,0.1-0.6c-0.2-0.4-0.1-0.6,0.3-0.6c0.8-0.5,2.6-0.4,3.6-0.3c2.1,0,4.3,0.3,6.4-0.3c0.5-0.2,1.6-0.7,1-1.4
				c-0.5-0.5-1.8-0.3-2.3-0.3c-1,0-2.1,0.1-3.1,0.3c-2.4,0.4-5.2,1.7-7.6,0.8c0,0.1,0,0.2,0,0.3c2.2-1.4,4.9-1.5,7.5-1.8
				c1.3-0.2,2.6-0.3,3.9-0.5c0.5-0.1,1.2-0.1,1.4-0.6c0.5-1-1.2-1.7-1.9-1.8c-1.9-0.2-3.5,1.2-5.3,1.5c0.1,0.1,0.1,0.2,0.2,0.3
				c1.1-1.2,2.3-2.1,3.8-2.8c0.7-0.3,2-0.5,2.5-1.2c0.3-0.4,0.2-0.9-0.2-1.3c-0.8-0.7-1.8-0.1-2.5,0.4c-0.2,0.1,0,0.4,0.2,0.3
				c0.2-0.1,0.3-0.3,0.5-0.4c0.5-0.4,1-0.1,1.3,1c-0.2,0.2-0.7,0.3-1,0.4c-0.6,0.2-1.1,0.4-1.7,0.7c-1.2,0.6-2.2,1.5-3.1,2.5
				c-0.1,0.1,0,0.3,0.2,0.3c1.5-0.3,2.7-1.2,4.1-1.5c0.5-0.1,1.1-0.1,1.6,0.1c0.6,0.2,1.4,1,0.4,1.5c-0.6,0.3-1.9,0.3-2.6,0.4
				c-3.1,0.4-6.7,0.4-9.5,2.1c-0.1,0.1-0.1,0.3,0,0.3c2.5,0.9,5.3-0.5,7.8-0.8c0.8-0.1,1.5-0.2,2.3-0.2c0.8,0,1.8-0.3,2.2,0.4
				c0.5,0.8-0.2,0.6-0.9,0.8c-0.4,0.1-0.9,0.1-1.3,0.2c-0.8,0.1-1.5,0.1-2.3,0.1c-1.4,0-2.7-0.1-4.1,0.1c-0.9,0.1-2.1,0.2-2.7,0.9
				c-0.2,0.3-0.3,0.6-0.1,1c0.4,0.6,1.4,0.1,1.9,0c1.5-0.4,3-0.6,4.5-0.6c0.7,0,1.4,0,2.1,0.1c0.2,0,2.5,0,2.6,0.2
				c-0.1,0.2-0.1,0.4-0.2,0.6c0.1,0.6-0.1,0.8-0.6,0.7c-0.2,0.1-1.3-0.2-1.3-0.1c-0.7-0.1-1.3-0.3-2-0.4c-1.2-0.2-2.4-0.2-3.5,0.1
				c-0.5,0.1-4.1,1-2.7,2.2c0.5,0.4,1.5,0.2,2,0.1c1.6-0.3,3.2-0.7,4.8-0.8c0.9,0,1.8,0,2.7,0.2c0.7,0.2,1.1,0.1,1.2,0.9
				c0.1,0.9-0.5,0.6-1.2,0.4c-1.3-0.3-2.5-0.5-3.8-0.5c-2.4-0.1-4.8,0.6-6.8,2.1c-0.1,0.1-0.1,0.2,0,0.2c1.1,1,2.5,0.3,3.8-0.2
				c1.2-0.4,2.5-0.7,3.8-0.6c0.7,0.1,1.5,0.2,2.1,0.4c1.1,0.2,1.1,0.9-0.1,2.1c-0.4,0-0.7-0.1-1-0.2c-1-0.3-1.8-0.7-2.9-0.7
				c-1,0-2.1,0.2-3,0.5c-1.1,0.3-3.6,0.9-3.6,2.3C52.6,112,53,112,53,111.8L53,111.8z"/>
		</g>
	</g>
</g>
<g>
	<g>
		<g>
			<path class="st0" d="M22.8,103.1c-0.1-0.2-0.1-0.4,0.1-0.6c0.2-0.2,0.5-0.1,0.6,0.1c0.1,0.2,0.1,0.6-0.3,0.6
				c-0.3,0-0.2-0.4,0-0.3c0.2,0.1,0.3-0.2,0.1-0.3c-0.4-0.2-0.8,0.5-0.5,0.8c0.4,0.4,1,0,1-0.5c0.1-0.5-0.5-1-1-0.8
				c-0.4,0.2-0.6,0.8-0.4,1.2C22.6,103.4,22.9,103.3,22.8,103.1L22.8,103.1z"/>
		</g>
	</g>
</g>
<g>
	<g>
		<g>
			<path class="st0" d="M26.8,106.6c0.1-0.4,0.4-0.6,0.8-0.6c-0.1,0-0.1-0.1-0.1-0.1c0.1,0.1,0.3,0.4,0.2,0.5c0,0.1-0.1,0.1-0.1,0.1
				c0,0-0.1,0-0.1-0.1c0.1-0.2-0.2-0.4-0.3-0.2c-0.1,0.3,0.1,0.5,0.4,0.5c0.4,0,0.5-0.3,0.5-0.6c0-0.2-0.1-0.4-0.3-0.5
				c-0.1-0.1-0.4-0.1-0.5,0c-0.4,0.1-0.6,0.4-0.7,0.8C26.5,106.7,26.8,106.8,26.8,106.6L26.8,106.6z"/>
		</g>
	</g>
</g>
<g>
	<g>
		<g>
			<path class="st0" d="M32.1,108.6c0-0.2,0.3-0.3,0.4-0.2c0.2,0.2-0.2,0.5-0.3,0.4c0,0.1,0,0.2,0.1,0.2c0.1-0.2,0.2-0.3,0.3-0.4
				c0.1-0.2-0.2-0.3-0.3-0.2c-0.1,0.2-0.2,0.3-0.3,0.4c-0.1,0.1,0,0.2,0.1,0.2c0.5,0.3,1.1-0.4,0.8-0.9c-0.2-0.2-0.4-0.2-0.7-0.1
				s-0.4,0.3-0.3,0.6C31.8,108.9,32.1,108.8,32.1,108.6L32.1,108.6z"/>
		</g>
	</g>
</g>
<g>
	<g>
		<g>
			<path class="st0" d="M37.4,118.9c-0.1-1.4,0.3-2.7,1.3-3.7c0.1-0.2-0.1-0.4-0.2-0.2c-1,1.1-1.5,2.5-1.4,3.9
				C37.1,119.1,37.4,119.1,37.4,118.9L37.4,118.9z"/>
		</g>
	</g>
</g>
<g>
	<g>
		<g>
			<path class="st0" d="M38.8,120c-0.2-1,0.1-2,0.8-2.8c0.1-0.2-0.1-0.4-0.2-0.2c-0.8,0.9-1.1,1.9-0.9,3.1
				C38.5,120.3,38.9,120.3,38.8,120L38.8,120z"/>
		</g>
	</g>
</g>
<g>
	<g>
		<g>
			<path class="st0" d="M40.3,120.9c-0.4-0.5-0.1-1.3,0.5-1.4c0.2-0.1,0.1-0.4-0.1-0.3c-0.8,0.2-1.1,1.3-0.6,1.9
				C40.2,121.2,40.5,121,40.3,120.9L40.3,120.9z"/>
		</g>
	</g>
</g>
<g>
	<g>
		<g>
			<path class="st0" d="M56.1,118.5c-0.4-1.1-0.4-2.3,0.1-3.4c0.1-0.2-0.2-0.4-0.3-0.2c-0.6,1.1-0.6,2.4-0.2,3.6
				C55.8,118.7,56.1,118.6,56.1,118.5L56.1,118.5z"/>
		</g>
	</g>
</g>
<g>
	<g>
		<g>
			<path class="st0" d="M58.4,119.4c-0.5-0.6-0.4-1.6,0.1-2.2c0.1-0.2-0.1-0.4-0.2-0.2c-0.7,0.7-0.7,1.8-0.1,2.6
				C58.3,119.8,58.5,119.6,58.4,119.4L58.4,119.4z"/>
		</g>
	</g>
</g>
<g>
	<g>
		<g>
			<path class="st0" d="M32.7,52.2c-1.5-2.7-2.3-7.1,1.3-8.5c0.2-0.1,0.1-0.4-0.1-0.3c-3.8,1.5-3.1,6.1-1.5,9
				C32.5,52.5,32.8,52.4,32.7,52.2L32.7,52.2z"/>
		</g>
	</g>
</g>
<g>
	<g>
		<g>
			<path class="st0" d="M51.8,47.5C51,45.8,50.1,43,52.4,42c0.2-0.1,0.1-0.4-0.1-0.3c-2.5,1-1.7,4-0.8,5.9
				C51.6,47.8,51.9,47.7,51.8,47.5L51.8,47.5z"/>
		</g>
	</g>
</g>
<g>
	<g>
		<g>
			<path class="st0" d="M34.1,51.5c-0.6-0.9-1.2-1.9-1.2-3c0-1.3,0.9-2.5,2.3-2.5c0.2,0,0.2-0.3,0-0.3c-1.1,0-2.1,0.8-2.5,1.8
				c-0.5,1.5,0.2,3,1,4.2C33.9,51.8,34.2,51.7,34.1,51.5L34.1,51.5z"/>
		</g>
	</g>
</g>
<g>
	<g>
		<g>
			<path class="st0" d="M36.7,46.3c0.7,0.2,1.3,0.8,1.4,1.5c0,0.2,0.4,0.1,0.3-0.1c-0.2-0.8-0.8-1.5-1.6-1.7
				C36.6,45.9,36.5,46.2,36.7,46.3L36.7,46.3z"/>
		</g>
	</g>
</g>
<g>
	<g>
		<g>
			<path class="st0" d="M53.6,47.4c-1-1.7,0-3.7,1.9-4c0.2,0,0.1-0.3-0.1-0.3c-2.2,0.3-3.2,2.7-2.1,4.5
				C53.4,47.8,53.7,47.6,53.6,47.4L53.6,47.4z"/>
		</g>
	</g>
</g>
<g>
	<g>
		<g>
			<path class="st0" d="M54.6,47.3c-0.1-0.7-0.1-1.5,0.5-2.1c0.6-0.5,1.5-0.5,1.9,0.2c0.4,0.7-0.2,1.3-0.9,1.4
				c-0.5,0.1-1-0.2-0.8-0.8c0.1-0.3,0.4-0.4,0.6-0.3c0.3,0.1,0.2,0.6,0,0.3c-0.1-0.2-0.4,0-0.3,0.2c0.4,0.6,1.4-0.1,0.8-0.6
				c-0.7-0.6-1.8,0.2-1.4,1.1c0.4,0.9,1.9,0.5,2.3-0.3c0.5-0.9-0.4-1.9-1.3-1.9c-1.5,0.1-2,1.6-1.7,2.8
				C54.3,47.6,54.6,47.5,54.6,47.3L54.6,47.3z"/>
		</g>
	</g>
</g>
<g>
	<g>
		<g>
			<path class="st0" d="M35,50.8c-0.5-1-1-2.8,0.4-3.4c0.7-0.3,1.5,0,1.7,0.8c0.1,0.4-0.1,0.7-0.4,0.9c-0.2,0.1-0.4,0.2-0.6,0.1
				c-0.6-0.2-0.6-0.4-0.1-0.6c-0.2,0.1-0.1,0.4,0.1,0.3c1.1-0.3-0.1-1.8-0.8-0.8c-0.7,1.1,1.3,1.8,1.9,0.9c0.8-1.1-0.5-2.4-1.7-2.1
				c-1.8,0.5-1.4,2.8-0.8,4C34.8,51.1,35.1,51,35,50.8L35,50.8z"/>
		</g>
	</g>
</g>
<g>
	<g>
		<g>
			<path class="st0" d="M34,91.7c-0.9-2.2-1.3-4.6-1.2-7c0-1.2,0.2-2.4,0.4-3.5c0.2-0.7,0.8-4,2.1-2.8c0.3,0.3,0.3,1.5,0.3,1.8
				c0.1,0.6,0.1,1.2,0.1,1.8c0,1.1,0,2.2-0.1,3.3c-0.1,1.1-0.1,2.3-0.2,3.4c0,0.6-0.1,1.3-0.1,1.9c0,0.4,0,0.7-0.1,1
				c-0.9,0.4-1.4,0.3-1.4-0.3c-0.1-0.2-0.4-0.1-0.3,0.1c0.2,0.7,0.7,1.6,1.5,1.2c0.8-0.4,0.6-1.7,0.7-2.4c0.2-3.7,0.8-7.8-0.1-11.5
				c-0.2-0.6-0.4-1.6-1.3-1.2c-1.1,0.5-1.4,2.9-1.6,3.9c-0.7,3.4-0.4,7,0.9,10.2C33.8,92,34.1,91.9,34,91.7L34,91.7z"/>
		</g>
	</g>
</g>
<g>
	<g>
		<g>
			<path class="st0" d="M34.9,94.1c-0.2,0.4-0.3,1,0.3,1.2c0.3,0.1,0.8,0,1-0.2c0.3-0.3,0.2-0.8-0.1-1c-0.3-0.3-0.8-0.4-1.2-0.2
				c-0.2,0.1,0,0.4,0.2,0.3c0.3-0.1,0.6-0.1,0.8,0.1c0.2,0.2,0.3,0.4,0.1,0.6c-0.1,0.1-0.4,0.2-0.6,0.2c-0.4-0.1-0.2-0.6-0.1-0.9
				C35.3,94,35,93.9,34.9,94.1L34.9,94.1z"/>
		</g>
	</g>
</g>
<g>
	<g>
		<g>
			<path class="st0" d="M66.4,23.5c0.4,9.8,0.5,19.6,0.5,29.4c0,0.2,0.3,0.2,0.3,0c0-9.8-0.1-19.6-0.5-29.4
				C66.7,23.3,66.4,23.3,66.4,23.5L66.4,23.5z"/>
		</g>
	</g>
</g>
<g>
	<g>
		<g>
			<path class="st0" d="M107,25.6c-0.9,19.6-0.8,39.1,0.1,58.7c0,0.2,0.3,0.2,0.3,0c-0.9-19.6-1-39.1-0.1-58.7
				C107.4,25.4,107.1,25.4,107,25.6L107,25.6z"/>
		</g>
	</g>
</g>
<g>
	<g>
		<g>
			<path class="st0" d="M64.1,28.7c0-0.2,0.2-0.4,0.4-0.4c0.2,0,0.3,0.2,0.3,0.4C64.9,29.1,64.2,29.1,64.1,28.7
				c-0.1-0.2-0.4-0.1-0.3,0.1c0.1,0.4,0.4,0.6,0.8,0.5c0.4,0,0.6-0.4,0.6-0.7c0-0.4-0.3-0.7-0.7-0.6c-0.4,0-0.7,0.4-0.7,0.8
				C63.8,28.9,64.2,28.9,64.1,28.7L64.1,28.7z"/>
		</g>
	</g>
</g>
<g>
	<g>
		<g>
			<path class="st0" d="M64.5,37.8c-0.3-0.4,0.2-1,0.6-0.7c0.5,0.3,0.1,1.1-0.5,0.9c-0.2-0.1-0.3,0.2-0.1,0.3c0.4,0.1,0.8-0.1,1-0.4
				c0.2-0.4,0.1-0.8-0.3-1c-0.3-0.2-0.8-0.2-1,0.1S64,37.7,64.2,38C64.3,38.2,64.6,38,64.5,37.8L64.5,37.8z"/>
		</g>
	</g>
</g>
<g>
	<g>
		<g>
			<path class="st0" d="M64.9,48.2c0-0.3,0.6-0.3,0.6,0c0.1,0.3-0.5,0.4-0.6,0.2c-0.1-0.2-0.4-0.1-0.3,0.1c0.3,0.6,1.4,0.4,1.3-0.3
				c-0.1-0.7-1.2-0.6-1.3,0.1C64.5,48.5,64.9,48.5,64.9,48.2L64.9,48.2z"/>
		</g>
	</g>
</g>
<g>
	<g>
		<g>
			<path class="st0" d="M109.1,31.8c-0.1-0.5,0.6-0.7,0.7-0.2C109.9,32.1,109.3,32.2,109.1,31.8c-0.1-0.1-0.4,0.1-0.3,0.2
				c0.2,0.3,0.5,0.4,0.9,0.3c0.3-0.1,0.5-0.5,0.4-0.8s-0.4-0.6-0.7-0.5c-0.4,0.1-0.7,0.4-0.6,0.8C108.8,32,109.1,32,109.1,31.8
				L109.1,31.8z"/>
		</g>
	</g>
</g>
<g>
	<g>
		<g>
			<path class="st0" d="M108.7,45.1c-0.1-0.4,0.5-0.8,0.8-0.5c0.3,0.3-0.1,0.9-0.5,0.8c-0.2-0.1-0.3,0.2-0.1,0.3
				c0.7,0.2,1.4-0.8,0.9-1.4c-0.5-0.5-1.6,0.1-1.4,0.8C108.4,45.4,108.7,45.3,108.7,45.1L108.7,45.1z"/>
		</g>
	</g>
</g>
<g>
	<g>
		<g>
			<path class="st0" d="M108.9,61.4c-0.1-0.2,0-0.5,0.2-0.6c-0.1,0-0.1,0-0.2,0c0.3,0.1,0.7,0.6,0.4,0.9c-0.1,0.1-0.5,0.2-0.5-0.1
				c0-0.2-0.3-0.2-0.3,0c0,0.3,0.3,0.5,0.6,0.5c0.4,0,0.6-0.3,0.6-0.7c0-0.2-0.1-0.4-0.2-0.6c-0.1-0.1-0.3-0.4-0.5-0.4
				c-0.2,0-0.4,0.2-0.4,0.4c-0.1,0.2-0.1,0.4-0.1,0.6C108.7,61.6,109,61.6,108.9,61.4L108.9,61.4z"/>
		</g>
	</g>
</g>
<g>
	<g>
		<g>
			<path class="st0" d="M109.2,75.3c-0.1-0.2,0.2-0.3,0.4-0.2c0.2,0.2,0,0.6-0.2,0.7c0.1,0,0.1,0,0.1,0c-0.3-0.1-0.5-0.3-0.6-0.5
				c-0.1-0.2-0.4-0.1-0.3,0.1c0.1,0.2,0.2,0.4,0.3,0.5c0.1,0.1,0.3,0.3,0.5,0.3c0.2,0,0.3-0.2,0.4-0.4c0.1-0.2,0.1-0.4,0.1-0.5
				c-0.1-0.3-0.4-0.5-0.7-0.4c-0.3,0.1-0.5,0.4-0.3,0.7C109,75.6,109.3,75.4,109.2,75.3L109.2,75.3z"/>
		</g>
	</g>
</g>
<g>
	<g>
		<g>
			<path class="st0" d="M77.3,41.3c0.5-0.4,1.2-0.6,1.8-0.3c0.2,0.1,0.3-0.2,0.1-0.3c-0.8-0.3-1.5-0.1-2.1,0.4
				C76.9,41.2,77.1,41.5,77.3,41.3L77.3,41.3z"/>
		</g>
	</g>
</g>
<g>
	<g>
		<g>
			<path class="st0" d="M19.4,96.3c-0.4-1.3,1.8-1,2.5-1.1c0.2,0,0.1-0.3-0.1-0.3c-0.7,0.1-1.5-0.1-2.2,0.3
				c-0.4,0.3-0.6,0.7-0.5,1.2C19.1,96.6,19.4,96.5,19.4,96.3L19.4,96.3z"/>
		</g>
	</g>
</g>
<g>
	<g>
		<g>
			<path class="st0" d="M26.5,77.4c1.4,1.2,1,3.3-0.8,3.8c-0.2,0.1-0.1,0.3,0.1,0.3c1.2,0,2.7-0.2,3.1-1.6c0.3-1.2-0.8-2.1-1.7-2.7
				c-0.2-0.1-0.3,0.2-0.2,0.3c0.7,0.5,1.8,1.3,1.5,2.3c-0.3,1.2-1.8,1.3-2.8,1.3c0,0.1,0,0.2,0.1,0.3c2-0.5,2.6-3,0.9-4.3
				C26.5,77,26.3,77.3,26.5,77.4L26.5,77.4z"/>
		</g>
	</g>
</g>
<g>
	<g>
		<g>
			<path class="st0" d="M66.8,82.7c-0.4,0.7-0.7,1.6-0.2,2.3c0.4,0.6,1.2,0.8,1.8,0.4c0.1-0.1,0.1-0.2,0-0.3c-1.2-1.1-1.1-3,0.1-4.1
				c0.2-0.1-0.1-0.4-0.2-0.2c-1.4,1.1-1.4,3.3-0.1,4.5c0-0.1,0-0.2,0-0.3c-0.6,0.3-1.4-0.1-1.6-0.7c-0.2-0.6,0.1-1.1,0.4-1.6
				C67.2,82.7,67,82.5,66.8,82.7L66.8,82.7z"/>
		</g>
	</g>
</g>
<g>
	<g>
		<g>
			<path class="st0" d="M45.9,113.2c2.1,0.2,4.2,0.1,6.3-0.3c0.2,0,0.1-0.3-0.1-0.3c-2.1,0.4-4.1,0.5-6.2,0.3
				C45.7,112.9,45.7,113.2,45.9,113.2L45.9,113.2z"/>
		</g>
	</g>
</g>
<g>
	<g>
		<g>
			<path class="st0" d="M43.3,120.8c0-0.3,0.4-0.5,0.6-0.4c0.2,0,0.3,0.2,0.2,0.3c-0.2,0.2-0.6,0.1-0.6-0.2c0-0.2-0.3-0.2-0.3,0
				c0.1,0.4,0.4,0.8,0.9,0.6c0.3-0.1,0.7-0.5,0.4-0.9c-0.5-0.5-1.4-0.1-1.4,0.6C43,121,43.3,121,43.3,120.8L43.3,120.8z"/>
		</g>
	</g>
</g>
<g>
	<g>
		<g>
			<path class="st0" d="M46.3,120.3c-0.1-0.2,0.2-0.5,0.4-0.3C46.7,120.2,46.4,120.5,46.3,120.3c-0.2-0.2-0.4,0-0.3,0.2
				c0.4,0.5,1.3-0.2,0.9-0.7c-0.4-0.5-1.3,0.2-0.9,0.7C46.1,120.7,46.4,120.5,46.3,120.3L46.3,120.3z"/>
		</g>
	</g>
</g>
<g>
	<g>
		<g>
			<path class="st0" d="M61.6,118.6c0.1-0.2,0.2-0.4,0.4-0.5c0.2-0.1,0.6,0,0.5,0.3c0.1-0.1,0.1-0.1,0.2-0.1c-0.4,0-0.8,0.1-1.2,0.1
				C61.3,118.3,61.3,118.6,61.6,118.6c0.3,0,0.7-0.1,1.1-0.1c0.1,0,0.1-0.1,0.2-0.1c0.1-0.4-0.2-0.7-0.6-0.8c-0.5,0-0.8,0.4-1,0.8
				C61.2,118.6,61.5,118.8,61.6,118.6L61.6,118.6z"/>
		</g>
	</g>
</g>
<g>
	<g>
		<g>
			<path class="st0" d="M64.1,117.8c-0.1-0.2,0.1-0.7,0.4-0.6c0.2,0,0.4,0.4,0.2,0.5c0.1,0,0.1,0,0.2,0c-0.2-0.1-0.3-0.2-0.5-0.3
				c-0.2-0.1-0.3,0.2-0.2,0.3c0.2,0.1,0.3,0.2,0.5,0.3c0.1,0,0.1,0,0.2,0c0.4-0.3,0.2-1-0.2-1.1c-0.6-0.2-1,0.5-0.8,1
				C63.9,118.1,64.2,118,64.1,117.8L64.1,117.8z"/>
		</g>
	</g>
</g>
<g>
	<g>
		<g>
			<path class="st0" d="M23.5,76.5c-0.2-0.2-0.5-0.2-0.8-0.1c-0.1,0.1-0.2,0.2-0.2,0.3c0,0.1,0.1,0.3,0.2,0.3
				c0.4,0.4,1.2,0.2,1.4-0.4c0-0.1,0-0.1-0.1-0.2c-0.2-0.1-0.3-0.3-0.5-0.4c-0.2-0.1-0.3,0.2-0.2,0.3c0.2,0.1,0.3,0.3,0.5,0.4
				c0-0.1-0.1-0.1-0.1-0.2c-0.2,0.4-0.8,0.4-1,0.1c0,0.1,0,0.1,0,0.2c0.1-0.2,0.4-0.3,0.5-0.1C23.5,76.9,23.7,76.7,23.5,76.5
				L23.5,76.5z"/>
		</g>
	</g>
</g>
<g>
	<g>
		<g>
			<path class="st0" d="M71.6,82.2c-0.3-0.1-0.6,0.1-0.8,0.3c-0.1,0.1-0.2,0.3-0.1,0.4s0.3,0.2,0.4,0.2c0.3,0,0.6-0.1,0.7-0.4
				c0.1-0.3,0-0.6-0.3-0.8c-0.2-0.1-0.3,0.2-0.2,0.3c0.2,0.1,0.2,0.4,0.1,0.5c-0.1,0.2-0.4,0.2-0.5,0c0,0.1,0.1,0.1,0.1,0.1
				c0-0.3,0.3-0.5,0.5-0.4C71.7,82.6,71.8,82.3,71.6,82.2L71.6,82.2z"/>
		</g>
	</g>
</g>
<g>
	<g>
		<g>
			<path class="st0" d="M101.4,105.6c6.2-0.2,12.3-0.2,18.5-0.3c0.2,0,0.2-0.3,0-0.3c-6.2,0.1-12.3,0.2-18.5,0.3
				C101.2,105.3,101.2,105.6,101.4,105.6L101.4,105.6z"/>
		</g>
	</g>
</g>
<g>
	<g>
		<g>
			<path class="st0" d="M68.9,106.8c1.5-0.1,2.9-0.1,4.3-0.2c0.2,0,0.2-0.3,0-0.3c-1.5,0.1-2.9,0.1-4.3,0.2
				C68.7,106.5,68.7,106.8,68.9,106.8L68.9,106.8z"/>
		</g>
	</g>
</g>
<g>
	<g>
		<g>
			<path class="st0" d="M15.1,108c2.7-0.2,5.4-0.3,8.1-0.2c0.2,0,0.2-0.3,0-0.3c-2.7-0.1-5.4,0-8.1,0.2
				C14.9,107.7,14.9,108,15.1,108L15.1,108z"/>
		</g>
	</g>
</g>
<g>
	<g>
		<g>
			<path class="st0" d="M83.2,97.2c0.1,1.7,0.3,3.4,0.6,5.1c0,0.2,0.4,0.1,0.3-0.1c-0.3-1.7-0.5-3.3-0.6-5
				C83.5,97,83.2,97,83.2,97.2L83.2,97.2z"/>
		</g>
	</g>
</g>
<g>
	<g>
		<g>
			<path class="st0" d="M87.3,97.4c-0.4,1.7-0.7,3.4-1,5c0,0.2,0.3,0.3,0.3,0.1c0.3-1.7,0.6-3.4,1-5C87.6,97.3,87.3,97.2,87.3,97.4
				L87.3,97.4z"/>
		</g>
	</g>
</g>
<g>
	<g>
		<g>
			<path class="st0" d="M73.7,106.5c-0.5-2,7.5-3.1,8.8-3.3c6.1-1,12.5-0.2,18.2,2.1c0.2,0.1,0.3-0.2,0.1-0.3
				c-6.1-2.4-12.7-3.1-19.2-2c-2,0.4-4.1,0.8-6,1.5c-0.8,0.3-2.6,0.9-2.3,2.1C73.5,106.8,73.8,106.7,73.7,106.5L73.7,106.5z"/>
		</g>
	</g>
</g>
<g>
	<g>
		<g>
			<path class="st0" d="M73.8,106.5c0.8-2.2,3.6-2.8,5.2-4.1c1.5-1.2,2.5-2.8,2.8-4.8c0-0.2-0.3-0.2-0.3,0c-0.3,2.7-2.3,4.5-4.5,5.7
				c-1.4,0.8-2.9,1.5-3.4,3C73.4,106.6,73.7,106.6,73.8,106.5L73.8,106.5z"/>
		</g>
	</g>
</g>
<g>
	<g>
		<g>
			<path class="st0" d="M100.8,104.6c-1.7-1.6-3.9-2.3-6.1-3.2c-1.8-0.8-4.7-2.2-3.9-4.6c0.1-0.2-0.2-0.3-0.3-0.1
				c-0.7,1.9,0.8,3.3,2.3,4.2c2.5,1.5,5.6,1.9,7.7,4C100.7,105,101,104.8,100.8,104.6L100.8,104.6z"/>
		</g>
	</g>
</g>
<g>
	<g>
		<g>
			<path class="st0" d="M83.7,98.4c0.1-0.1,0.2-0.1,0.4-0.1c0.1,0,0.2,0,0.3,0c0.2,0,0.4,0,0.6,0c0.4,0,0.8,0,1.1,0.1
				c0.2,0,0.2-0.3,0-0.3c-0.5,0-1-0.1-1.5-0.1c-0.3,0-0.7-0.1-0.9,0c-0.3,0.1-0.4,0.6,0,0.7C83.8,98.8,83.9,98.5,83.7,98.4
				L83.7,98.4z"/>
		</g>
	</g>
</g>
<g>
	<g>
		<g>
			<path class="st0" d="M83.6,100c1-0.1,1.9-0.1,2.9-0.2c0.2,0,0.2-0.3,0-0.3c-1,0.1-1.9,0.1-2.9,0.2C83.5,99.7,83.4,100,83.6,100
				L83.6,100z"/>
		</g>
	</g>
</g>
<g>
	<g>
		<g>
			<path class="st0" d="M83.7,101.3c0.9-0.1,1.8-0.2,2.7-0.1c0.2,0,0.2-0.3,0-0.3c-0.9-0.1-1.9-0.1-2.8,0.1
				C83.4,101,83.5,101.3,83.7,101.3L83.7,101.3z"/>
		</g>
	</g>
</g>
<g>
	<g>
		<g>
			<path class="st0" d="M83.7,102.6c0.7-0.1,1.4-0.1,2.1-0.2c0.2,0,0.2-0.3,0-0.3c-0.7,0.1-1.4,0.1-2.1,0.2
				C83.5,102.3,83.4,102.6,83.7,102.6L83.7,102.6z"/>
		</g>
	</g>
</g>
<g>
	<g>
		<g>
			<path class="st0" d="M86.2,98.6c0.1-0.1,0.2-0.2,0.3-0.1c0.1,0.1,0,0.3-0.2,0.3c0.1,0,0.1,0,0.1,0c-0.1-0.1-0.4-0.3-0.2-0.5
				c0.1-0.1,0.3-0.1,0.3,0.1c-0.1,0.2,0.3,0.3,0.3,0.1c0.1-0.3-0.2-0.5-0.4-0.5c-0.3,0-0.5,0.3-0.5,0.6c0.1,0.3,0.4,0.7,0.7,0.5
				c0.3-0.1,0.4-0.5,0.2-0.8c-0.2-0.3-0.7-0.2-0.8,0.1C85.9,98.6,86.1,98.7,86.2,98.6L86.2,98.6z"/>
		</g>
	</g>
</g>
<g>
	<g>
		<g>
			<path class="st0" d="M87.9,101.4c0-0.3,0.4-0.4,0.6-0.2c0.2,0.2,0,0.6-0.3,0.6c0,0,0.1,0.1,0.1,0.1
				C88.2,101.7,88.1,101.5,87.9,101.4c-0.1-0.2-0.3-0.1-0.2,0.1c0.1,0.1,0.2,0.2,0.2,0.3c0.1,0.1,0.1,0.2,0.2,0.2
				c0.1,0.1,0.3,0,0.4-0.1c0.3-0.2,0.4-0.5,0.3-0.8c-0.2-0.7-1.2-0.4-1.3,0.2C87.6,101.6,87.9,101.6,87.9,101.4L87.9,101.4z"/>
		</g>
	</g>
</g>
<g>
	<g>
		<g>
			<path class="st0" d="M81.8,101.9c0.1-0.4,0.8-0.5,0.8-0.1c0,0.2-0.1,0.4-0.3,0.4c-0.2,0-0.4-0.2-0.3-0.4c0.1-0.2-0.2-0.3-0.3-0.1
				c-0.1,0.4,0.2,0.8,0.6,0.8s0.7-0.3,0.7-0.6s-0.3-0.7-0.6-0.7c-0.4,0-0.8,0.3-0.8,0.7C81.4,102.1,81.8,102.1,81.8,101.9
				L81.8,101.9z"/>
		</g>
	</g>
</g>
<g>
	<g>
		<g>
			<path class="st0" d="M73.7,107.1c4.6,2.8,10.8,2.9,16,2.8c3.5-0.1,11.3,0.3,11.5-4.8c0-0.2-0.3-0.2-0.3,0
				c-0.1,3.1-3.4,3.9-5.8,4.2c-2.4,0.3-4.9,0.4-7.3,0.4c-4.6-0.1-9.8-0.3-13.8-2.7C73.7,106.7,73.5,107,73.7,107.1L73.7,107.1z"/>
		</g>
	</g>
</g>
<g>
	<g>
		<g>
			<path class="st0" d="M92.2,105.1c-4.5-1-9.1-0.9-13.4,0.5c-0.1,0-0.2,0.2-0.1,0.2c0.9,1.3,2.9,1.2,4.3,1.4c2.3,0.3,4.7,0.4,7,0.4
				c1.1,0,2.5,0.2,3.5-0.1c0.2-0.1,0.4,0,0.6-0.3c0.6-1-2.7-1.7-3.1-1.8c-0.2-0.1-0.3,0.2-0.1,0.3c0.6,0.2,1.5,0.3,1.9,0.7
				c1.6,1.1-0.2,0.8-0.9,0.8c-1.2,0-2.4,0-3.5,0c-2.5-0.1-5.1-0.2-7.7-0.6c-0.3-0.1-1.7-0.2-1.5-0.9c0.1-0.2,1.6-0.4,1.8-0.5
				c1.2-0.3,2.4-0.4,3.6-0.5c2.5-0.2,4.9,0.1,7.4,0.6C92.3,105.5,92.4,105.2,92.2,105.1L92.2,105.1z"/>
		</g>
	</g>
</g>
<g>
	<g>
		<g>
			<path class="st0" d="M86.6,105.9c-0.4-0.1-0.8,0-1.2,0.3c-0.1,0.1-0.1,0.3,0.1,0.3c1,0.2,2.1,0.3,3.1,0.2c0.2,0,0.2-0.2,0.1-0.3
				c-0.9-0.4-1.7-0.6-2.7-0.5c-0.2,0-0.2,0.3,0,0.3c0.9-0.1,1.7,0.1,2.5,0.4c0-0.1,0.1-0.2,0.1-0.3c-1,0.1-2,0-3-0.2
				c0,0.1,0.1,0.2,0.1,0.3c0.3-0.2,0.5-0.3,0.9-0.2C86.8,106.3,86.8,106,86.6,105.9L86.6,105.9z"/>
		</g>
	</g>
</g>
<g class="st1">
	<path d="M75,41.1v-0.3h0.3v0.3H75z"/>
</g>
<g class="st1">
	<path d="M89.2,41.1v-0.3h0.3v0.3H89.2z"/>
</g>
</svg>
