<?xml version="1.0" encoding="utf-8"?>
<!-- Generator: Adobe Illustrator 24.0.1, SVG Export Plug-In . SVG Version: 6.00 Build 0)  -->
<svg version="1.1" id="Layer_1" xmlns="http://www.w3.org/2000/svg" xmlns:xlink="http://www.w3.org/1999/xlink" x="0px" y="0px"
	 viewBox="0 0 141.7 141.7" style="enable-background:new 0 0 141.7 141.7;" xml:space="preserve">
<style type="text/css">
	.st0{fill:#070707;}
	.st1{fill:#231F20;}
	.st2{enable-background:new    ;}
</style>
<g id="Layer_1_1_">
</g>
<g>
	<g>
		<path class="st0" d="M39.4,74.1c0.2,3.5,0.3,7.1,0.4,10.6c0.1,6.3,0.1,12.7-0.1,19c0,0.4,0.6,0.4,0.6,0c0.4-9.8,0.1-19.6-0.3-29.4
			C39.8,74.2,39.6,74.2,39.4,74.1z"/>
	</g>
	<g>
		<path class="st0" d="M47.9,41.6c-3.4,3.1-5.9,7-7.2,11.4c-1.4,4.4-1.6,9.1-1.5,13.7c0,1.6,0.1,3.2,0.1,4.8c0.1,0,0.2,0,0.3,0
			c0.1,0,0.2,0,0.3,0c0-1.1-0.1-2.2-0.1-3.3c-0.2-4.7,0-9.4,1.2-14c1.2-4.7,3.8-8.9,7.4-12.2C48.6,41.8,48.1,41.4,47.9,41.6z"/>
	</g>
</g>
<g>
	<g>
		<path class="st0" d="M74.2,36.1c-5.5-0.4-11,0.4-16.5,1.2c-0.4,0-0.2,0.6,0.2,0.6c5.4-0.7,10.9-1.6,16.3-1.2
			C74.6,36.7,74.6,36.1,74.2,36.1L74.2,36.1z"/>
	</g>
</g>
<g>
	<g>
		<path class="st0" d="M91.2,46.1c-1.3-2.5-3.3-4.4-5.5-6c-0.3-0.2-0.6,0.3-0.3,0.5c2.2,1.5,4,3.5,5.3,5.8
			C90.9,46.8,91.4,46.5,91.2,46.1L91.2,46.1z"/>
	</g>
</g>
<g>
	<g>
		<path class="st0" d="M51.7,124.1c4.7,2.9,10.7,2.9,16.1,2.5c2.7-0.2,5.5-0.7,8.2-1.1c2.9-0.5,6.1-0.7,8.6-2.3
			c0.3-0.2,0-0.7-0.3-0.5c-2.5,1.5-5.6,1.8-8.5,2.3c-2.7,0.5-5.4,0.9-8.1,1.1c-5.2,0.5-11.2,0.5-15.8-2.4
			C51.7,123.4,51.4,123.9,51.7,124.1L51.7,124.1z"/>
	</g>
</g>
<g>
	<g>
		<path class="st0" d="M58.1,37.9c0.4,0,0.4-0.6,0-0.6C57.8,37.3,57.8,37.9,58.1,37.9L58.1,37.9z"/>
	</g>
</g>
<g>
	<g>
		<path class="st0" d="M40.6,53.4c-3.5-0.8-5.8-3.8-4.4-7.4c0.6-1.6,1.9-2.7,3.4-3.4c1.9-0.9,5.3-1.1,6.8,0.4
			c0.3,0.3,0.7-0.1,0.4-0.4c-1.6-1.7-4.7-1.5-6.8-0.8c-1.8,0.6-3.4,1.9-4.2,3.6c-0.7,1.5-0.9,3.4-0.2,4.9c0.9,2,2.8,3.1,4.8,3.6
			C40.8,54.1,41,53.5,40.6,53.4L40.6,53.4z"/>
	</g>
</g>
<g>
	<g>
		<path class="st0" d="M87.3,41.8c3-1.5,7.6-2.3,9.8,0.9c2.2,3.3,0.9,8.6-3.3,9.3c-0.4,0.1-0.2,0.7,0.2,0.6c4.5-0.8,5.7-6,4-9.6
			c-2-4.1-7.6-3.4-10.9-1.6C86.7,41.4,87,41.9,87.3,41.8L87.3,41.8z"/>
	</g>
</g>
<g>
	<g>
		<path class="st0" d="M63.6,58.1c0.1,0,0.2,0,0.3,0c0-0.1,0-0.2-0.1-0.3c-0.3,0.2-0.7,0.1-1,0.3c-0.6,0.3-1.1,0.8-1.6,1.2
			c-0.7,0.6-1.6,1.7-1.3,2.7c0.3,1.1,1.6,1.8,2.7,1.9c1.9,0.1,3.6-0.8,5.4-0.9c2.2-0.1,5.7,2.4,6.4-1.1c0.5-2.5-2.9-3.9-4.7-4.6
			c-0.2-0.1-0.3,0.2-0.1,0.3c1.9,0.7,4.9,2,4.4,4.5c-0.6,2.8-4.3,0.7-6,0.7c-2.5-0.1-5.9,2.5-7.7-0.4c-0.7-1.1,0.8-2.6,1.5-3.2
			c0.3-0.3,0.9-0.9,1.4-0.9c0.2,0,0.5-0.1,0.7-0.2c0.1-0.1,0.1-0.3-0.1-0.3c-0.1,0-0.2,0-0.3,0C63.4,57.9,63.4,58.1,63.6,58.1
			L63.6,58.1z"/>
	</g>
</g>
<g>
	<g>
		<path class="st0" d="M70.5,63.6c0.4,0.9,0.5,2,0.4,3c0,0.7-0.1,1.3-0.6,1.9c-0.8,0.9-2.9,0.3-2.7-1.1c0-0.2-0.3-0.3-0.3-0.1
			c-0.3,1.8,2,2.3,3.2,1.3c1.2-1,0.7-3.9,0.2-5.1C70.8,63.3,70.5,63.4,70.5,63.6L70.5,63.6z"/>
	</g>
</g>
<g>
	<g>
		<path class="st0" d="M46.4,120.8c2.5-1.3,3.9,1.9,5.6,3.1c0-0.1,0-0.2,0-0.3c-1.4,0.2-2.5,1.1-3.6,2c-1.3,0.9-2.9,2.3-4.5,1.6
			c-2.1-0.9-1.6-3-0.3-4.3c1-1,2.3-1.8,3.6-2.5c0.2-0.1,0-0.3-0.1-0.3c-1.8,0.9-6.8,3.8-4.5,6.4c3.1,3.5,6.4-2.2,9.5-2.7
			c0.1,0,0.1-0.2,0-0.3c-1.9-1.3-3.2-4.5-5.9-3.1C46.1,120.6,46.2,120.8,46.4,120.8L46.4,120.8z"/>
	</g>
</g>
<g>
	<g>
		<path class="st0" d="M43.5,126.8c-0.4-1.5,0.7-2.7,1.9-3.3c0.2-0.1,0-0.4-0.1-0.3c-1.3,0.7-2.5,2-2,3.6
			C43.2,127.1,43.5,127,43.5,126.8L43.5,126.8z"/>
	</g>
</g>
<g>
	<g>
		<path class="st0" d="M88.8,120c1.8,0.1,3,1.3,3.8,2.9c0.6,1.2,1,3.1-0.1,4.1c-0.6,0.6-1.6,0.5-2.4,0.3c-1.4-0.3-2.3-1.4-3.2-2.4
			c-0.3-0.3-2.3-2-2.1-2.4C85.5,121.1,87.4,120,88.8,120c0.2,0,0.2-0.3,0-0.3c-1.6,0-2.8,1.1-3.9,2.1c-1,1-0.1,1.3,0.7,2
			c1.7,1.5,3.8,4.9,6.6,3.6c1.6-0.7,1.4-2.8,0.9-4.2c-0.7-1.9-2.3-3.5-4.3-3.6C88.6,119.7,88.6,120,88.8,120z"/>
	</g>
</g>
<g>
	<g>
		<path class="st0" d="M90.2,123.6c1,1,1.7,2.3,1.8,3.7c0,0.2,0.3,0.2,0.3,0c0-1.5-0.8-2.8-1.9-3.9C90.2,123.2,90,123.4,90.2,123.6
			L90.2,123.6z"/>
	</g>
</g>
<g>
	<g>
		<path class="st0" d="M95.7,80.7c1.4-0.1,2.9,0.3,4.1,1.1c1.2,0.8,2.2,2.7,1.4,4.1c-1.1,1.9-4.6-0.5-5.4-1.5
			c-0.1-0.1-0.3,0.1-0.2,0.2c1.1,1.3,4.7,3.5,6,1.3c0.7-1.2-0.1-2.9-0.9-3.9c-1.2-1.3-3.2-1.8-4.9-1.7
			C95.5,80.4,95.5,80.7,95.7,80.7L95.7,80.7z"/>
	</g>
</g>
<g>
	<g>
		<path class="st0" d="M98.8,84.3c1,0.3,2.1,1.1,1.6,2.2c-0.1,0.2,0.2,0.3,0.3,0.1c0.7-1.3-0.6-2.3-1.7-2.7
			C98.7,84,98.6,84.3,98.8,84.3L98.8,84.3z"/>
	</g>
</g>
<g>
	<path class="st0" d="M77.8,58c-4.8,0-8.7-3.9-8.7-8.7s3.9-8.7,8.7-8.7c4.8,0,8.7,3.9,8.7,8.7S82.7,58,77.8,58z M77.8,40.9
		c-4.6,0-8.4,3.8-8.4,8.4s3.8,8.4,8.4,8.4s8.4-3.8,8.4-8.4S82.5,40.9,77.8,40.9z"/>
</g>
<g>
	<path class="st0" d="M56.2,58.9c-4.8,0-8.8-3.9-8.8-8.7s3.9-8.7,8.8-8.7s8.8,3.9,8.8,8.7S61.1,58.9,56.2,58.9z M56.2,41.7
		c-4.6,0-8.4,3.8-8.4,8.4s3.8,8.4,8.4,8.4s8.4-3.8,8.4-8.4S60.9,41.7,56.2,41.7z"/>
</g>
<g>
	<circle class="st0" cx="92.4" cy="45.8" r="1.8"/>
</g>
<g>
	<circle class="st0" cx="41.7" cy="47.5" r="1.8"/>
</g>
<g>
	<path class="st0" d="M70.9,57.1c0-1.2-1.7-2.1-3.8-2.1c-2.1,0-3.8,0.9-3.8,2.1c0,1.2,1.7,2.1,3.8,2.1
		C69.2,59.3,70.9,58.3,70.9,57.1z"/>
</g>
<g>
	<path class="st0" d="M75,48.9c0,1.5,1.3,2.8,2.8,2.8c1.5,0,2.8-1.3,2.8-2.8s-1.3-2.8-2.8-2.8C76.2,46.1,75,47.4,75,48.9z
		 M79.6,47.8c0,0.4-0.4,0.8-0.8,0.8c-0.4,0-0.8-0.4-0.8-0.8s0.4-0.8,0.8-0.8C79.2,47,79.6,47.4,79.6,47.8z"/>
</g>
<g>
	<path class="st0" d="M52.9,50.3c0,1.5,1.3,2.8,2.8,2.8s2.8-1.3,2.8-2.8c0-1.5-1.3-2.8-2.8-2.8C54.2,47.5,52.9,48.8,52.9,50.3z
		 M57.5,49.2c0,0.4-0.4,0.8-0.8,0.8s-0.8-0.4-0.8-0.8s0.4-0.8,0.8-0.8C57.2,48.4,57.5,48.8,57.5,49.2z"/>
</g>
<g>
	<g>
		<path class="st0" d="M67.3,63.1c0,1.7,0.5,3.8-0.5,5.3c-0.4,0.6-1.1,0.6-1.7,0.5c-0.7-0.2-1.1-0.9-1.3-1.6
			c-0.3-1.1-0.1-2.5,0.2-3.6c0-0.2-0.2-0.3-0.3-0.1c-0.6,1.9-0.7,6.1,2.4,5.5c2.2-0.4,1.4-4.7,1.4-6.2
			C67.6,62.9,67.3,62.9,67.3,63.1L67.3,63.1z"/>
	</g>
</g>
<g>
	<g>
		<path class="st0" d="M40.4,81.3c-2-0.3-4,0.6-5.4,1.9c-1,0.9-1.5,2.3-0.1,3.1c0.2,0.1,0.3-0.2,0.1-0.3c-1.8-1,0-2.6,1-3.3
			c1.2-0.9,2.8-1.4,4.3-1.2C40.6,81.7,40.6,81.4,40.4,81.3L40.4,81.3z"/>
	</g>
</g>
<g>
	<g>
		<path class="st0" d="M36.4,84.9c-0.6,0.3-1.3,0.8-1.3,1.5c0,0.6,0.6,1.1,1.2,1.1c0.7,0.1,1.5-0.4,2.1-0.7c0.7-0.4,1.3-0.9,1.8-1.5
			c0.1-0.1-0.1-0.4-0.2-0.2c-0.7,0.8-1.6,1.4-2.6,1.9c-0.7,0.3-1.3,0.4-1.9-0.1c-0.7-0.6,0.5-1.5,1-1.7
			C36.7,85.1,36.6,84.8,36.4,84.9L36.4,84.9z"/>
	</g>
</g>
<g>
	<g>
		<path class="st0" d="M94.8,66.3c0.2-0.1,0.4-0.2,0.6-0.3c0-7.3-0.4-14.7-4.6-20.9c-0.2-0.3-0.7,0-0.5,0.3
			C94.5,51.6,94.8,59,94.8,66.3z"/>
	</g>
	<g>
		<path class="st0" d="M95.3,71.3c-0.2,0.1-0.3,0.1-0.5,0.1h-0.1c0,0,0,0.1,0,0.1c0,10.9,1.6,21.8,0.8,32.8c0,0.4,0.6,0.4,0.6,0
			C96.9,93.3,95.3,82.3,95.3,71.3z"/>
	</g>
</g>
<g>
	<g>
		<path class="st0" d="M65.3,30c-1.2,0-2.4-0.5-3.4-1.4c-1.9-1.9-1.9-4.9,0-6.8c0.9-0.9,2.1-1.4,3.4-1.4c0,0,0,0,0,0
			c1.3,0,2.5,0.5,3.4,1.4c1.9,1.9,1.9,4.9,0,6.8l0,0C67.7,29.5,66.5,30,65.3,30z M65.3,20.8c-1.2,0-2.3,0.5-3.1,1.3
			c-1.7,1.7-1.7,4.5,0,6.3c1.7,1.7,4.5,1.7,6.3,0c1.7-1.7,1.7-4.5,0-6.3C67.6,21.3,66.5,20.8,65.3,20.8
			C65.3,20.8,65.3,20.8,65.3,20.8z"/>
	</g>
	<g>
		<g>
			<path class="st0" d="M60.2,26c0.1,0,0.1,0.1,0.2,0.1c0-0.1,0.1-0.2,0.1-0.2c-0.4-0.1-0.7-0.4-1.1-0.5c-0.6-0.1-1.3-0.2-1.9-0.2
				c-0.9,0-2.2,0.1-2.8,1c-0.6,1-0.2,2.3,0.4,3.2c1.1,1.3,2.7,1.9,4.1,2.9c1.9,1.3,2.4,5.5,5.4,4.5c2.8-1,1.3-5.1,0.4-6.9
				c-0.1-0.2-0.3,0-0.3,0.1c0.9,2,2.4,6.6-1.3,6.7c-1.2,0-1.8-1.5-2.3-2.3c-0.4-0.8-0.9-1.6-1.7-2.2c-0.9-0.7-2-1.2-3-1.9
				c-1.2-0.7-2.6-2.7-1.5-4.1c0.7-0.8,2-0.7,2.9-0.7c0.5,0,1,0.1,1.5,0.2c0.3,0.1,0.6,0.4,0.9,0.5c0.1,0,0.3-0.1,0.1-0.2
				c-0.1-0.1-0.2-0.1-0.3-0.2C60.2,25.7,60.1,25.9,60.2,26L60.2,26z"/>
		</g>
	</g>
	<g>
		<g>
			<path class="st0" d="M65.6,30.4c0-0.1,0.1-0.2,0.2-0.2c-0.1,0-0.2-0.1-0.2-0.1c-0.2,0.4-0.5,0.6-0.6,1.1
				c-0.2,0.6-0.3,1.2-0.4,1.8c-0.1,1,0,2.2,0.7,2.9c0.8,0.8,2.3,0.3,3.2-0.2c1.5-0.8,2.2-2.6,3.2-3.8c1.5-1.8,5.8-1.9,5-5
				c-0.7-2.9-5-1.7-6.8-1c-0.2,0.1-0.1,0.4,0.1,0.3c2-0.7,6.4-1.8,6.6,1.6c0.1,1.3-1.6,1.9-2.6,2.3c-1,0.4-1.8,0.9-2.5,1.7
				c-0.9,1-1.4,2.1-2.3,3.1c-0.9,1-3,1.9-4,0.5c-0.6-0.9-0.4-2.3-0.2-3.2c0.1-0.8,0.6-1.2,0.8-1.9c0.1-0.1-0.1-0.2-0.2-0.1
				c-0.1,0.1-0.1,0.1-0.2,0.2C65.3,30.3,65.5,30.5,65.6,30.4L65.6,30.4z"/>
		</g>
	</g>
	<g>
		<g>
			<path class="st0" d="M70,24.4c-0.1,0-0.1-0.1-0.2-0.1c0,0.1-0.1,0.2-0.1,0.2c0.4,0.1,0.7,0.4,1.1,0.5c0.6,0.1,1.3,0.2,1.9,0.2
				c0.9,0,2.2-0.1,2.8-1c0.6-1,0.2-2.3-0.4-3.2c-1.1-1.3-2.7-1.9-4.1-2.9c-1.9-1.3-2.4-5.5-5.4-4.5c-2.8,1-1.3,5.1-0.4,6.9
				c0.1,0.2,0.3,0,0.3-0.1c-0.9-2-2.4-6.6,1.3-6.7c1.2,0,1.8,1.5,2.3,2.3c0.4,0.8,0.9,1.6,1.7,2.2c0.9,0.7,2,1.2,3,1.9
				c1.2,0.7,2.6,2.7,1.5,4.1c-0.7,0.8-2,0.7-2.9,0.7c-0.5,0-1-0.1-1.5-0.2c-0.3-0.1-0.6-0.4-0.9-0.5c-0.1,0-0.3,0.1-0.1,0.2
				c0.1,0.1,0.2,0.1,0.3,0.2C70,24.7,70.1,24.5,70,24.4L70,24.4z"/>
		</g>
	</g>
	<g>
		<g>
			<path class="st0" d="M64.5,20.4c0,0.1-0.1,0.1-0.1,0.2c0.1,0,0.2,0.1,0.2,0.1c0.1-0.4,0.4-0.7,0.5-1.1c0.1-0.6,0.2-1.3,0.2-1.9
				c0-0.9-0.1-2.2-1-2.8c-1-0.6-2.3-0.2-3.2,0.4c-1.3,1.1-1.9,2.7-2.9,4.1c-1.3,1.9-5.5,2.4-4.5,5.4c1,2.8,5.1,1.3,6.9,0.4
				c0.2-0.1,0-0.3-0.1-0.3c-2,0.9-6.6,2.4-6.7-1.3c0-1.2,1.5-1.8,2.3-2.3c0.8-0.4,1.6-0.9,2.2-1.7c0.7-0.9,1.2-2,1.9-3
				c0.7-1.2,2.7-2.6,4.1-1.5c0.8,0.7,0.7,2,0.7,2.9c0,0.5-0.1,1-0.2,1.5c-0.1,0.3-0.4,0.6-0.5,0.9c0,0.1,0.1,0.3,0.2,0.1
				c0.1-0.1,0.1-0.2,0.2-0.3C64.9,20.4,64.6,20.3,64.5,20.4L64.5,20.4z"/>
		</g>
	</g>
	<g>
		<path class="st0" d="M66.9,28.3C66.9,28.3,66.9,28.3,66.9,28.3c-0.8,0-1.6-0.3-2.1-0.9c-0.6-0.6-0.9-1.3-0.9-2.1
			c0-0.8,0.3-1.6,0.9-2.2c1.2-1.2,3.1-1.2,4.3,0c0.6,0.6,0.9,1.4,0.9,2.2c0,0.8-0.3,1.6-0.9,2.1C68.5,27.9,67.7,28.3,66.9,28.3z
			 M66.9,22.5c-0.7,0-1.4,0.3-1.9,0.8c-0.5,0.5-0.8,1.2-0.8,1.9c0,0.7,0.3,1.4,0.8,1.9c0.5,0.5,1.2,0.8,1.9,0.8c0,0,0,0,0,0
			c0.7,0,1.4-0.3,1.9-0.8l0,0c0.5-0.5,0.8-1.2,0.8-1.9c0-0.7-0.3-1.4-0.8-1.9C68.3,22.8,67.6,22.5,66.9,22.5z"/>
	</g>
	<g>
		<circle class="st0" cx="68" cy="25.2" r="1.8"/>
	</g>
	<g>
		<g>
			<path class="st0" d="M61.9,28.6c-0.5,0.5-1.1,0.9-1.5,1.5c-0.1,0.1,0.1,0.3,0.3,0.1c0.4-0.6,1-1,1.5-1.5
				C62.2,28.7,62,28.5,61.9,28.6L61.9,28.6z"/>
		</g>
	</g>
	<g>
		<g>
			<path class="st0" d="M62.1,21.6c-0.6-0.6-1.4-0.7-2.1-0.8c-0.2,0-0.3,0.2-0.1,0.3c0.7,0.1,1.5,0.2,2,0.8
				C62.1,21.9,62.3,21.7,62.1,21.6L62.1,21.6z"/>
		</g>
	</g>
	<g>
		<g>
			<path class="st0" d="M68.6,21.6c0.1-0.4,0.3-0.8,0.5-1.2c0.1-0.2-0.2-0.3-0.3-0.1c-0.2,0.4-0.4,0.8-0.5,1.3
				C68.3,21.7,68.6,21.7,68.6,21.6L68.6,21.6z"/>
		</g>
	</g>
	<g>
		<g>
			<path class="st0" d="M68.8,22c0.4-0.3,0.8-0.4,1.2-0.7c0.2-0.1,0-0.3-0.1-0.3c-0.4,0.2-0.8,0.4-1.2,0.7
				C68.5,21.9,68.7,22.1,68.8,22L68.8,22z"/>
		</g>
	</g>
	<g>
		<g>
			<path class="st0" d="M68.8,28.6c0.5,0.2,0.9,0.6,1.2,1c0.1,0.1,0.3-0.1,0.2-0.2c-0.4-0.4-0.8-0.9-1.3-1.1
				C68.7,28.2,68.7,28.5,68.8,28.6L68.8,28.6z"/>
		</g>
	</g>
	<g>
		<g>
			<path class="st0" d="M68.1,29.1c0.1,0.4,0.1,0.8,0.2,1.2c0,0.2,0.3,0.1,0.3-0.1c0-0.4-0.1-0.8-0.2-1.2
				C68.4,28.8,68.1,28.9,68.1,29.1L68.1,29.1z"/>
		</g>
	</g>
	<g>
		<g>
			<path class="st0" d="M62.4,29.2c-0.2,0.2-0.3,0.5-0.4,0.7c-0.1,0.2,0.2,0.3,0.3,0.1c0.1-0.2,0.3-0.5,0.4-0.7
				C62.8,29.2,62.5,29,62.4,29.2L62.4,29.2z"/>
		</g>
	</g>
	<g>
		<g>
			<path class="st0" d="M62.6,21.1c0-0.3-0.2-0.5-0.3-0.7c-0.1-0.1-0.4,0-0.3,0.1c0.1,0.2,0.3,0.4,0.3,0.7
				C62.4,21.4,62.7,21.3,62.6,21.1L62.6,21.1z"/>
		</g>
	</g>
</g>
<g>
	<g>
		<path class="st0" d="M49.6,37c-1.5,0-3-0.9-3.7-2.4c-0.4-0.9-0.4-2-0.1-2.9c0.4-0.9,1.1-1.6,2.1-2c2-0.8,4.3,0.2,5.1,2.1
			c0.4,0.9,0.4,2,0.1,2.9c-0.4,0.9-1.1,1.6-2.1,2C50.6,37,50.1,37,49.6,37z M49.4,29.9c-0.4,0-0.9,0.1-1.3,0.2
			c-0.9,0.3-1.5,1-1.9,1.8c-0.3,0.8-0.3,1.7,0.1,2.6c0.8,1.8,2.9,2.6,4.7,1.9l0,0c0.9-0.3,1.5-1,1.9-1.8c0.3-0.8,0.3-1.7-0.1-2.6
			C52.1,30.7,50.8,29.9,49.4,29.9z"/>
	</g>
	<g>
		<g>
			<path class="st0" d="M45.4,32.3c0,0,0.1,0.1,0.1,0.2c0.1,0,0.2-0.1,0.2-0.1c-1-1-2.9-2.4-4.5-1.7c-0.8,0.4-0.8,1.6-0.7,2.4
				c0.2,1.4,1.7,2.5,2.4,3.6c1,1.6,0.1,4.8,2.9,4.7c2.2-0.1,2.2-3.3,2.1-4.8c0-0.2-0.3-0.2-0.3,0c0.1,1.6,0.1,4.4-2.1,4.5
				c-2.1,0.1-1.6-3-2.2-4.2c-0.4-0.7-1-1.4-1.5-2c-0.7-0.9-1.8-2.9-0.5-3.8c1.3-0.9,3.3,0.8,4.1,1.6c0.1,0.1,0.3,0,0.2-0.1
				c0-0.1-0.1-0.1-0.1-0.2C45.6,32,45.3,32.2,45.4,32.3L45.4,32.3z"/>
		</g>
	</g>
	<g>
		<g>
			<path class="st0" d="M48.3,37.1c0-0.1,0-0.2,0-0.3c-0.1,0.1-0.2,0.1-0.3,0.2c-0.2,0.1-0.3,0.2-0.4,0.4c-0.3,0.4-0.6,0.8-0.8,1.2
				c-0.4,0.7-0.6,1.6-0.2,2.3c0.4,0.7,1.7,0.9,2.4,0.8c1.6-0.3,2.8-1.6,4.4-2c1.3-0.4,4.8,0.4,4.4-2.1c-0.3-2.1-3.1-2.5-4.9-2.6
				c-0.2,0-0.2,0.3,0,0.3c1.5,0.1,4,0.3,4.6,2.1c0.7,2.4-2.9,1.7-4.2,2c-2.1,0.5-3.7,2.8-6,1.7c-1.8-0.9,0.5-3.5,1.3-4.2
				c0.1-0.1,0.1-0.2,0-0.3c-0.1-0.1-0.2,0-0.4,0.1C47.9,36.9,48.1,37.2,48.3,37.1L48.3,37.1z"/>
		</g>
	</g>
	<g>
		<g>
			<path class="st0" d="M53.3,34.1c0,0-0.1-0.1-0.1-0.2c-0.1,0-0.2,0.1-0.2,0.1c1,1,2.9,2.4,4.5,1.7c0.8-0.4,0.8-1.6,0.7-2.4
				c-0.2-1.4-1.7-2.5-2.4-3.6c-1-1.6-0.1-4.8-2.9-4.7c-2.2,0.1-2.2,3.3-2.1,4.8c0,0.2,0.3,0.2,0.3,0c-0.1-1.6-0.1-4.4,2.1-4.5
				c2.1-0.1,1.6,3,2.2,4.2c0.4,0.7,1,1.4,1.5,2c0.7,0.9,1.8,2.9,0.5,3.8c-1.3,0.9-3.3-0.8-4.1-1.6c-0.1-0.1-0.3,0-0.2,0.1
				c0,0.1,0.1,0.1,0.1,0.2C53.2,34.5,53.4,34.3,53.3,34.1L53.3,34.1z"/>
		</g>
	</g>
	<g>
		<g>
			<path class="st0" d="M50.3,29.6c0.1,0,0.1,0.1,0.2,0.2c0.1-0.1,0.2-0.1,0.3-0.2c0.1-0.1,0.2-0.3,0.3-0.4c0.3-0.4,0.5-0.8,0.7-1.2
				c0.3-0.8,0.5-1.7,0-2.4c-0.5-0.6-1.7-0.7-2.4-0.6c-1.4,0.3-2.4,1.5-3.7,2.2c-1.5,0.8-5-0.1-4.7,2.6c0.2,2.1,3.5,2.2,5.1,2.2
				c0.2,0,0.2-0.3,0-0.3c-1.6,0-4.5,0-4.8-2.2c-0.2-2,3.2-1.4,4.3-2c0.8-0.4,1.5-1,2.3-1.5c1-0.7,2.8-1.3,3.7-0.1
				c0.9,1.2-0.7,3.2-1.5,3.9c-0.1,0,0,0.2,0,0.2c0.1,0.1,0.2,0,0.3-0.1C50.6,29.8,50.5,29.5,50.3,29.6L50.3,29.6z"/>
		</g>
	</g>
	<g>
		<path class="st0" d="M50.8,36.2c-1,0-2-0.6-2.4-1.5c-0.3-0.6-0.3-1.3-0.1-1.8c0.2-0.6,0.7-1.1,1.3-1.3c1.3-0.5,2.7,0.1,3.3,1.3
			c0.3,0.6,0.3,1.3,0.1,1.8c-0.2,0.6-0.7,1.1-1.3,1.3l0,0C51.4,36.2,51.1,36.2,50.8,36.2z M50.6,31.8c-0.3,0-0.5,0-0.8,0.1
			c-0.5,0.2-0.9,0.6-1.1,1.1c-0.2,0.5-0.2,1,0.1,1.6c0.5,1,1.8,1.6,2.8,1.2c0.5-0.2,0.9-0.6,1.1-1.1c0.2-0.5,0.2-1-0.1-1.6
			C52.3,32.2,51.5,31.8,50.6,31.8z"/>
	</g>
	<g>
		<ellipse transform="matrix(0.3801 -0.925 0.925 0.3801 0.3672 68.786)" class="st0" cx="51.5" cy="34.1" rx="1.4" ry="1.5"/>
	</g>
	<g>
		<g>
			<path class="st0" d="M46,34.6c-0.6,0.2-1.1,0.3-1.6,0.6c-0.2,0.1,0,0.4,0.1,0.3c0.5-0.3,1-0.4,1.5-0.6
				C46.2,34.8,46.1,34.6,46,34.6L46,34.6z"/>
		</g>
	</g>
	<g>
		<g>
			<path class="st0" d="M48.2,29.7c-0.2-0.6-0.8-0.9-1.3-1.3c-0.2-0.1-0.3,0.1-0.1,0.3c0.5,0.3,1,0.6,1.3,1.2
				C48.1,30,48.3,29.9,48.2,29.7L48.2,29.7z"/>
		</g>
	</g>
	<g>
		<g>
			<path class="st0" d="M53.1,31.7c0.2-0.3,0.4-0.5,0.7-0.7c0.1-0.1,0-0.4-0.1-0.3c-0.3,0.2-0.6,0.5-0.8,0.8
				C52.7,31.7,53,31.9,53.1,31.7L53.1,31.7z"/>
		</g>
	</g>
	<g>
		<g>
			<path class="st0" d="M53.1,32.1c0.3-0.1,0.7-0.1,1-0.1c0.2,0,0.2-0.3,0-0.3c-0.4,0-0.7,0-1.1,0.1C52.9,31.9,52.9,32.2,53.1,32.1
				L53.1,32.1z"/>
		</g>
	</g>
	<g>
		<g>
			<path class="st0" d="M51.2,36.8c0.3,0.3,0.5,0.7,0.6,1.1c0.1,0.2,0.4,0.1,0.3-0.1c-0.2-0.4-0.3-0.9-0.7-1.2
				C51.2,36.5,51,36.7,51.2,36.8L51.2,36.8z"/>
		</g>
	</g>
	<g>
		<g>
			<path class="st0" d="M50.5,36.9c0,0.3-0.1,0.6-0.2,0.9c0,0.2,0.2,0.3,0.3,0.1c0.1-0.3,0.2-0.6,0.2-0.9
				C50.8,36.8,50.5,36.7,50.5,36.9L50.5,36.9z"/>
		</g>
	</g>
	<g>
		<g>
			<path class="st0" d="M46.2,35.2c-0.2,0.1-0.4,0.2-0.6,0.4c-0.1,0.1,0.1,0.3,0.2,0.2c0.1-0.1,0.3-0.2,0.5-0.3
				C46.5,35.3,46.3,35.1,46.2,35.2L46.2,35.2z"/>
		</g>
	</g>
	<g>
		<g>
			<path class="st0" d="M48.7,29.6c0-0.2,0-0.5,0-0.7c0-0.2-0.3-0.1-0.3,0.1c0,0.2,0.1,0.3,0,0.5C48.4,29.7,48.7,29.7,48.7,29.6
				L48.7,29.6z"/>
		</g>
	</g>
</g>
<g>
	<g>
		<path class="st0" d="M82.3,36.2c-0.6,0-1.2-0.1-1.8-0.4c-0.9-0.5-1.6-1.2-1.9-2.2c-0.3-1-0.2-2,0.4-2.9c1.1-1.8,3.5-2.5,5.3-1.6
			c0.9,0.5,1.6,1.2,1.8,2.2c0.3,1,0.2,2-0.4,2.9C85.1,35.5,83.7,36.2,82.3,36.2z M82.5,29.1c-1.3,0-2.5,0.7-3.2,1.8
			c-0.5,0.8-0.6,1.7-0.3,2.6c0.3,0.9,0.8,1.6,1.7,2c1.7,0.9,3.9,0.2,4.8-1.4l0,0c0.5-0.8,0.6-1.7,0.3-2.6c-0.3-0.9-0.8-1.6-1.7-2
			C83.7,29.2,83.1,29.1,82.5,29.1z"/>
	</g>
	<g>
		<g>
			<path class="st0" d="M78.7,34.3c0.1,0,0.1,0,0.2,0.1c0-0.1,0-0.2,0.1-0.3c-1.3-0.1-3.8-0.1-4.5,1.4c-1,2.4,2.8,3.1,4.2,3.4
				s2.2,1.3,3.3,2.1c0.7,0.6,1.4,0.7,2.2,0.3c2.4-1.2,0.2-4.2-0.9-5.4c-0.1-0.1-0.3,0.1-0.2,0.2c0.6,0.6,1.1,1.3,1.5,2.1
				c0.7,1.3,0.2,3.4-1.6,3.1c-0.8-0.1-1.4-1-1.9-1.5c-0.5-0.5-1.1-0.8-1.7-1c-0.8-0.3-1.7-0.4-2.5-0.6c-1.1-0.3-3-1.6-1.9-2.9
				c0.9-1.1,2.7-1.1,4-0.9c0.1,0,0.2-0.2,0.1-0.3C79,34,78.9,34,78.8,34C78.6,33.9,78.5,34.2,78.7,34.3L78.7,34.3z"/>
		</g>
	</g>
	<g>
		<g>
			<path class="st0" d="M83.9,36.2c-0.1-0.1-0.1-0.1-0.2-0.2c0,0.1-0.1,0.3-0.2,0.4c-0.1,0.1,0,0.4,0,0.5c0,0.5,0,1,0.1,1.4
				c0.1,0.7,0.5,1.6,1.1,1.9c2.4,0.9,3.4-2.4,4-4c0.5-1.4,1.7-2,2.7-3c0.6-0.5,0.8-1.3,0.4-2c-1.3-2.2-4.2-0.5-5.7,0.6
				c-0.2,0.1,0,0.4,0.1,0.3c1.3-0.9,5.3-3.1,5.5,0c0.1,0.9-1.2,1.6-1.7,2.1c-0.6,0.5-1,1-1.3,1.6c-0.8,1.5-1.2,4.9-3.7,4.4
				c-1.5-0.3-1.3-3-1-4.1c0-0.1-0.1-0.2-0.2-0.2c-0.1,0-0.1,0.2-0.2,0.3C83.5,36.2,83.8,36.4,83.9,36.2L83.9,36.2z"/>
		</g>
	</g>
	<g>
		<g>
			<path class="st0" d="M86,30.7c-0.1,0-0.1,0-0.2-0.1c0,0.1,0,0.2-0.1,0.3c1.3,0.1,3.8,0.1,4.5-1.4c1-2.4-2.8-3.1-4.2-3.4
				s-2.2-1.3-3.3-2.1c-0.7-0.6-1.4-0.7-2.2-0.3c-2.4,1.2-0.2,4.2,0.9,5.4c0.1,0.1,0.3-0.1,0.2-0.2c-0.6-0.6-1.1-1.3-1.5-2.1
				c-0.7-1.3-0.2-3.4,1.6-3.1c0.8,0.1,1.4,1,1.9,1.5c0.5,0.5,1.1,0.8,1.7,1c0.8,0.3,1.7,0.4,2.5,0.6c1.1,0.3,3,1.6,1.9,2.9
				c-0.9,1.1-2.7,1.1-4,0.9c-0.1,0-0.2,0.2-0.1,0.3c0.1,0,0.2,0.1,0.3,0.1C86.1,31.1,86.1,30.8,86,30.7L86,30.7z"/>
		</g>
	</g>
	<g>
		<g>
			<path class="st0" d="M80.8,29.1c0.1,0,0.1,0.1,0.2,0.2c0-0.1,0.1-0.2,0.1-0.4c0-0.2,0-0.1,0-0.4c0-0.5-0.1-1-0.2-1.5
				c-0.2-0.7-0.6-1.7-1.3-1.9c-2.5-0.9-3.3,2.8-3.8,4.4c-0.4,1.4-1.6,2.1-2.4,3.1c-0.6,0.7-0.5,1.5,0,2.2c1.4,1.9,4.3-0.3,5.5-1.3
				c0.1-0.1-0.1-0.3-0.2-0.2c-0.7,0.6-1.3,1-2.1,1.4c-1.2,0.6-3.1,0.8-3.4-1c-0.1-0.8,1-1.6,1.5-2.1c0.5-0.4,0.9-0.9,1.2-1.5
				c0.7-1.8,0.7-4.2,2.9-4.8c1.9-0.6,2.1,2.9,1.9,4c0,0.1,0.1,0.2,0.2,0.2c0.1,0,0.1-0.2,0.2-0.3C81.1,29,80.8,28.9,80.8,29.1
				L80.8,29.1z"/>
		</g>
	</g>
	<g>
		<path class="st0" d="M83.7,34.5c-0.4,0-0.8-0.1-1.2-0.3c-0.6-0.3-1-0.8-1.2-1.4c-0.2-0.6-0.1-1.3,0.2-1.9c0.7-1.2,2.2-1.6,3.4-1
			c0.6,0.3,1,0.8,1.2,1.4c0.2,0.6,0.1,1.3-0.2,1.9C85.5,34,84.6,34.5,83.7,34.5z M83.8,30c-0.8,0-1.5,0.4-1.9,1.1
			c-0.3,0.5-0.4,1-0.2,1.6c0.2,0.5,0.5,0.9,1,1.2c1,0.5,2.3,0.2,2.9-0.9l0,0c0.3-0.5,0.4-1,0.2-1.6c-0.2-0.5-0.5-0.9-1-1.2
			C84.5,30.1,84.1,30,83.8,30z"/>
	</g>
	<g>
		<path class="st0" d="M86,31.4c-0.2-0.7-1-1.2-1.8-0.9c-0.8,0.2-1.2,1-1,1.8c0.2,0.7,1,1.2,1.8,0.9C85.7,32.9,86.2,32.2,86,31.4z"
			/>
	</g>
	<g>
		<g>
			<path class="st0" d="M80.5,35.7c-0.3,0.5-0.7,1-0.9,1.5c-0.1,0.2,0.2,0.3,0.3,0.1c0.2-0.5,0.5-1,0.8-1.4
				C80.9,35.7,80.6,35.6,80.5,35.7L80.5,35.7z"/>
		</g>
	</g>
	<g>
		<g>
			<path class="st0" d="M79.2,30.5c-0.6-0.3-1.2-0.2-1.9-0.1c-0.2,0-0.2,0.3,0,0.3c0.6,0,1.2-0.2,1.7,0.1
				C79.3,30.8,79.4,30.6,79.2,30.5L79.2,30.5z"/>
		</g>
	</g>
	<g>
		<g>
			<path class="st0" d="M84.3,29c0-0.3,0-0.7,0.1-1c0-0.2-0.2-0.3-0.3-0.1C84,28.3,83.9,28.6,84,29C84,29.2,84.3,29.2,84.3,29
				L84.3,29z"/>
		</g>
	</g>
	<g>
		<g>
			<path class="st0" d="M84.6,29.3c0.2-0.3,0.5-0.5,0.8-0.7c0.1-0.1-0.1-0.3-0.2-0.2c-0.3,0.2-0.6,0.5-0.8,0.7
				C84.2,29.2,84.4,29.4,84.6,29.3L84.6,29.3z"/>
		</g>
	</g>
	<g>
		<g>
			<path class="st0" d="M86,34.2c0.4,0,0.8,0.2,1.2,0.4c0.2,0.1,0.3-0.2,0.1-0.3c-0.4-0.2-0.8-0.5-1.3-0.5
				C85.8,33.9,85.8,34.2,86,34.2L86,34.2z"/>
		</g>
	</g>
	<g>
		<g>
			<path class="st0" d="M85.5,34.6c0.2,0.3,0.3,0.6,0.4,0.8c0.1,0.2,0.3,0,0.3-0.1c-0.1-0.3-0.2-0.6-0.4-0.8
				C85.7,34.3,85.4,34.5,85.5,34.6L85.5,34.6z"/>
		</g>
	</g>
	<g>
		<g>
			<path class="st0" d="M81,36c-0.1,0.2-0.1,0.4-0.2,0.6c0,0.2,0.2,0.3,0.3,0.1c0-0.2,0.1-0.4,0.2-0.6C81.4,35.9,81.1,35.9,81,36
				L81,36z"/>
		</g>
	</g>
	<g>
		<g>
			<path class="st0" d="M79.5,30c-0.1-0.2-0.3-0.4-0.5-0.5c-0.2-0.1-0.3,0.1-0.1,0.3c0.1,0.1,0.3,0.2,0.4,0.4
				C79.4,30.3,79.6,30.2,79.5,30L79.5,30z"/>
		</g>
	</g>
</g>
<g>
	<g>
		<path class="st0" d="M43.3,36.8c-1.7-0.7-3.6-0.6-5.3-0.2c-2,0.5-3.3,2.3-4.6,3.8c-0.1,0.1,0,0.3,0.1,0.3c1.9-0.1,3.8,0,5.7-0.3
			c1.8-0.3,3.2-1.2,4.7-2.4c0.1-0.1-0.1-0.3-0.2-0.2c-1.6,1.3-3.2,2.1-5.3,2.4c-1.6,0.2-3.3,0.1-4.9,0.2c0,0.1,0.1,0.2,0.1,0.3
			c1.3-1.4,2.4-2.9,4.2-3.6c1.6-0.6,3.8-0.6,5.4,0.1C43.3,37.2,43.5,36.9,43.3,36.8L43.3,36.8z"/>
	</g>
</g>
<g>
	<g>
		<path class="st0" d="M89.4,35.3c1.6-0.6,3.4-0.5,5,0c1.9,0.5,3,1.9,4.6,3c0-0.1,0-0.2,0-0.3c-3.4,1.1-7.5,1.3-10.3-1.3
			c-0.1-0.1-0.4,0.1-0.2,0.2c2.9,2.7,7,2.5,10.6,1.4c0.1,0,0.1-0.2,0-0.3c-0.8-0.6-1.5-1.4-2.4-2c-0.7-0.5-1.5-0.8-2.3-1.1
			c-1.6-0.5-3.6-0.5-5.2,0C89.1,35.1,89.2,35.4,89.4,35.3L89.4,35.3z"/>
	</g>
</g>
<g>
	<g>
		<path class="st0" d="M88.8,36.4c1.9,0.5,3.9,0.7,5.9,1c0.2,0,0.2-0.3,0-0.3c-2-0.2-3.9-0.5-5.8-1C88.8,36,88.7,36.3,88.8,36.4
			L88.8,36.4z"/>
	</g>
</g>
<g>
	<g>
		<path class="st0" d="M43.4,37.3c-1.6-0.1-3.2,0.2-4.7,0.7c-0.2,0.1-0.1,0.4,0.1,0.3c1.5-0.5,3-0.8,4.6-0.7
			C43.6,37.6,43.6,37.3,43.4,37.3L43.4,37.3z"/>
	</g>
</g>
<g>
	<g>
		<path class="st0" d="M48.9,25.1c-1.9-0.4-3.3-1.6-4.5-3.1c-0.5-0.6-0.9-1.3-1.2-2c-0.2-0.4-0.3-0.8-0.5-1.2
			c-0.2-0.6,0.4-0.4,0.8-0.4c3.9,0.1,8,1.8,10,5.3c0.1,0.2,0.4,0,0.3-0.1c-2.2-4.1-7-5.5-11.3-5.5c-0.1,0-0.2,0.1-0.1,0.2
			c0.8,3.2,3.2,6.4,6.5,7.1C49,25.4,49.1,25.1,48.9,25.1L48.9,25.1z"/>
	</g>
</g>
<g>
	<g>
		<path class="st0" d="M47.2,21.7c1,0.4,2,0.8,2.9,1.3c1.1,0.6,1.9,1.5,2.8,2.2c0.1,0.1,0.4-0.1,0.2-0.2c-0.7-0.6-1.4-1.3-2.2-1.8
			c-1.1-0.8-2.4-1.3-3.6-1.8C47.2,21.3,47.1,21.6,47.2,21.7L47.2,21.7z"/>
	</g>
</g>
<g>
	<g>
		<path class="st0" d="M75.9,22.9c0-1.9,1.6-3.3,2.9-4.5c0.9-0.8,1.9-1.7,2.9-2.5c0.5-0.4,1.2-0.8,1.8-0.9c1.4-0.1,0.8,2.2,0.6,2.8
			c-0.5,2.1-1.2,3.9-2.7,5.5c-0.1,0.1,0.1,0.4,0.2,0.2c1.8-1.8,2.5-4,3-6.5c0.2-1.2,0-2.7-1.5-2.3c-1.5,0.3-2.7,1.8-3.8,2.8
			c-1.5,1.4-3.7,3-3.7,5.3C75.6,23.1,75.9,23.1,75.9,22.9L75.9,22.9z"/>
	</g>
</g>
<g>
	<g>
		<path class="st0" d="M76.3,25.9c1-2.8,3.1-4.9,5.4-6.6c0.1-0.1,0-0.4-0.1-0.3c-2.4,1.8-4.5,3.9-5.5,6.8
			C75.9,26,76.2,26.1,76.3,25.9L76.3,25.9z"/>
	</g>
</g>
<g>
	<g>
		<path class="st0" d="M45.9,26.8c-0.9-1.2-2.3-1.8-3.6-2.5c-1.3-0.7-2.7-1.1-4.2-1.4c-2.5-0.5-5.7,0-6.9,2.5
			c-0.8,1.7,0.5,4.5,2.6,3.8c0.7-0.2,1.5-1,1.3-1.8c-0.2-0.8-1.2-0.7-1.9-0.6c-0.2,0-0.1,0.3,0.1,0.3c0.1,0,0.3,0,0.4,0
			c0.7-0.1,0.9,0.4,0.7,1.4c-0.5,0.7-1.4,0.7-2.1,0.3c-1.1-0.6-1.3-1.9-1-3c0.5-2,3.1-2.7,4.9-2.7c1.8,0,3.6,0.5,5.3,1.2
			c1.5,0.7,3.2,1.5,4.2,2.7C45.8,27.2,46,27,45.9,26.8L45.9,26.8z"/>
	</g>
</g>
<g>
	<g>
		<path class="st0" d="M85.7,25.9c1.9-2,3.8-3.8,6.4-4.8c2-0.8,4.4-1.5,6.6-1.1c1.3,0.3,2.3,1.3,2.7,2.6c0.4,1.6-0.9,3.2-2.2,4
			c-1.4,0.8-3.8,1.2-5.2,0.1c-0.9-0.7-0.4-2,0.2-2.7c0.3-0.4,0.8-0.6,1.3-0.7c0.2,0,0.4,0,0.5-0.1c0.7,0.8,0.7,1.3,0,1.6
			c-0.2,0.1,0,0.4,0.1,0.3c1-0.7,1.5-2-0.1-2.2c-1.5-0.2-2.9,1.5-2.8,2.9c0.1,1.7,2.5,2,3.7,1.8c2-0.3,3.7-1.2,4.5-3.1
			c0.6-1.4,0.1-3.1-1.1-4c-1.3-1-2.9-1-4.5-0.8c-1.8,0.2-3.5,0.9-5.1,1.7c-2.2,1-3.8,2.7-5.4,4.4C85.4,25.9,85.6,26.1,85.7,25.9
			L85.7,25.9z"/>
	</g>
</g>
<g>
	<g>
		<path class="st0" d="M57.6,20.3c0.3-1.9-0.9-4.4-2.7-5.1c-1.8-0.7-3.2,0.7-3.3,2.4c0,0.8,0.2,1.5,1,1.8c0.7,0.3,1.8-0.4,2-1.1
			c0.3-1.2-1.5-1.6-1.6-0.5c0,0.2,0.3,0.2,0.3,0c0.1-0.3,0.3-0.5,0.7-0.3c0.5,0.6,0.4,1.1-0.2,1.4c-1.2,0.8-1.8-0.6-1.7-1.5
			c0-1.2,0.9-2,2-2c2.2,0,3.6,3,3.3,4.9C57.3,20.4,57.5,20.5,57.6,20.3L57.6,20.3z"/>
	</g>
</g>
<g>
	<g>
		<path class="st0" d="M71.7,18.6c-0.3-1.9,0-4.1,2.2-4.7c1.2-0.3,2,0.7,2,1.8c0,0.4-0.3,0.9-0.6,1.2c-0.4,0.4-1.7,0.2-1.1-0.6
			c0.2-0.3,0.5-0.1,0.4,0.2c-0.1,0.2,0.2,0.3,0.3,0.1c0.4-1-1.1-0.8-1.1,0.1c0,0.5,0.6,1,1.1,0.8c0.7-0.2,1.2-0.9,1.3-1.6
			c0.3-1.6-1.5-2.7-2.8-2.1c-2,0.8-2.2,3-1.9,4.9C71.5,18.8,71.8,18.8,71.7,18.6L71.7,18.6z"/>
	</g>
</g>
<g>
	<g>
		<path class="st0" d="M39.9,103.7c2.3,3.2,6.3,4.5,9.9,5.4c5.1,1.2,10.4,1.3,15.5,1.2c10.4-0.2,20.7-2.2,30.5-5.7
			c0.2-0.1,0.1-0.4-0.1-0.3c-9.4,3.3-19.1,5.3-29,5.7c-5,0.2-10.1,0.1-15-0.7c-4.1-0.7-9-2-11.6-5.6
			C40.1,103.3,39.8,103.5,39.9,103.7L39.9,103.7z"/>
	</g>
</g>
<g>
	<g>
		<path class="st0" d="M47.1,108.1c-1.1,1.4-1.8,3-2.6,4.5c-0.1,0.2,0.2,0.3,0.3,0.1c0.8-1.5,1.5-3.1,2.5-4.5
			C47.5,108.2,47.3,108,47.1,108.1L47.1,108.1z"/>
	</g>
</g>
<g>
	<g>
		<path class="st0" d="M53.8,109.9c-0.2,0.8-0.5,1.5-0.7,2.3c-0.1,0.2,0.2,0.3,0.3,0.1c0.3-0.8,0.5-1.5,0.7-2.3
			C54.2,109.7,53.9,109.7,53.8,109.9L53.8,109.9z"/>
	</g>
</g>
<g>
	<g>
		<path class="st0" d="M64.9,110.2c0.7,1.7,0.9,3.6,1,5.4c0,0.2,0.3,0.2,0.3,0c0-1.9-0.3-3.8-1-5.5C65.1,110,64.8,110,64.9,110.2
			L64.9,110.2z"/>
	</g>
</g>
<g>
	<g>
		<path class="st0" d="M66.9,110.1c0.5,0.8,0.7,1.8,1.1,2.7c0.1,0.2,0.4,0.1,0.3-0.1c-0.4-0.9-0.6-1.9-1.1-2.7
			C67.1,109.8,66.8,110,66.9,110.1L66.9,110.1z"/>
	</g>
</g>
<g>
	<g>
		<path class="st0" d="M81.9,108.4c2.2,0.8,3,3.8,3.8,5.7c0.1,0.2,0.4,0.1,0.3-0.1c-0.9-2.1-1.6-5.1-4-6
			C81.8,108.1,81.7,108.4,81.9,108.4L81.9,108.4z"/>
	</g>
</g>
<g>
	<g>
		<path class="st0" d="M84.7,107.8c0.7,0.8,1.3,1.7,2,2.6c0.1,0.1,0.3-0.1,0.2-0.2c-0.7-0.8-1.2-1.8-2-2.6
			C84.8,107.5,84.5,107.7,84.7,107.8L84.7,107.8z"/>
	</g>
</g>
<g>
	<g>
		<path class="st0" d="M46,107.9c-0.2,0.5-0.6,0.9-0.8,1.3c-0.1,0.2,0.2,0.3,0.3,0.1c0.2-0.5,0.6-0.9,0.8-1.3
			C46.4,107.9,46.1,107.7,46,107.9L46,107.9z"/>
	</g>
</g>
<g>
	<g>
		<path class="st0" d="M40.1,97c2.2,0.7,4.3,1.8,6.6,2.5c2.3,0.7,4.7,1,7,1.1c5.2,0.3,10.4,0,15.5-0.1c4.9-0.2,9.4-1.1,14.1-2.5
			c4.4-1.3,9-2.2,12.7-5c0.1-0.1,0-0.4-0.1-0.3c-3.7,2.8-8.3,3.7-12.7,5c-2.3,0.7-4.6,1.3-6.9,1.8c-2.5,0.5-5,0.6-7.6,0.7
			c-4.9,0.2-9.8,0.3-14.6,0.1c-2.5-0.1-5-0.4-7.3-1.1c-2.2-0.7-4.3-1.7-6.6-2.5C40,96.7,40,97,40.1,97L40.1,97z"/>
	</g>
</g>
<g>
	<g>
		<path class="st0" d="M40.3,101c0.2,0.4,0.7,0.7,1.1,0.9c0.8,0.6,1.5,1.1,2.4,1.6c1.7,1,3.5,1.6,5.4,2c4,0.9,8,0.7,12.1,0.6
			c0.2,0,0.2-0.3,0-0.3c-3.8,0.1-7.5,0.2-11.2-0.5c-1.9-0.3-3.7-0.9-5.4-1.7c-0.8-0.4-1.6-0.9-2.3-1.4c-0.5-0.4-1.4-0.8-1.7-1.4
			C40.4,100.7,40.2,100.8,40.3,101L40.3,101z"/>
	</g>
</g>
<g>
	<g>
		<path class="st0" d="M40.4,99.2c3.1,1.1,6.1,2.5,9.3,3.5c0.2,0,0.3-0.2,0.1-0.3c-3.2-1-6.1-2.4-9.3-3.5
			C40.3,98.8,40.2,99.1,40.4,99.2L40.4,99.2z"/>
	</g>
</g>
<g>
	<g>
		<path class="st0" d="M95.7,96.3c-0.6,0.6-1.1,1.1-1.9,1.4c-0.7,0.3-1.4,0.4-2.1,0.7c-1.5,0.5-2.9,1-4.4,1.5c-3,1-6,2-8.9,3
			c-0.2,0.1-0.1,0.4,0.1,0.3c3.3-1.1,6.5-2.2,9.8-3.3c1.6-0.5,3.2-1.1,4.8-1.6c1.3-0.4,1.9-0.8,2.8-1.8
			C96.1,96.4,95.9,96.1,95.7,96.3L95.7,96.3z"/>
	</g>
</g>
<g>
	<g>
		<path class="st0" d="M95.8,100c-1.3,0.8-2.8,1.5-4.3,2.2c-0.2,0.1,0,0.3,0.1,0.3c1.4-0.7,2.9-1.3,4.3-2.2
			C96.1,100.2,96,99.9,95.8,100L95.8,100z"/>
	</g>
</g>
<g>
	<g>
		<g>
			<path class="st0" d="M52.9,41.9c-0.3-0.3-0.6-0.6-0.7-1.1c-0.1-0.4-0.7-0.2-0.6,0.2c0.1,0.5,0.4,1,0.8,1.3
				C52.8,42.6,53.2,42.2,52.9,41.9L52.9,41.9z"/>
		</g>
	</g>
</g>
<g>
	<g>
		<g>
			<path class="st0" d="M54.3,41.3c-0.2-0.3-0.4-0.6-0.4-0.9c-0.1-0.4-0.7-0.2-0.6,0.2c0.1,0.5,0.3,0.9,0.6,1.2
				C54.1,42,54.5,41.6,54.3,41.3L54.3,41.3z"/>
		</g>
	</g>
</g>
<g>
	<g>
		<g>
			<path class="st0" d="M56.3,41.3c-0.3-0.4-0.5-0.9-0.5-1.4c0-0.4-0.6-0.4-0.6,0c0,0.6,0.2,1.2,0.6,1.7
				C56,41.9,56.5,41.7,56.3,41.3L56.3,41.3z"/>
		</g>
	</g>
</g>
<g>
	<g>
		<g>
			<path class="st0" d="M78.2,40.9c0.4,0,0.4-0.6,0-0.6C77.8,40.3,77.8,40.9,78.2,40.9L78.2,40.9z"/>
		</g>
	</g>
</g>
<g>
	<g>
		<g>
			<path class="st0" d="M78.4,40.8c0.4-0.4,0.7-0.8,1.1-1.2c0.2-0.3-0.2-0.7-0.4-0.4c-0.4,0.4-0.7,0.8-1.1,1.2
				C77.8,40.7,78.2,41.1,78.4,40.8L78.4,40.8z"/>
		</g>
	</g>
</g>
<g>
	<g>
		<g>
			<path class="st0" d="M80.5,40.6c0.2-0.4,0.5-0.7,0.7-1.1c0.2-0.3-0.3-0.6-0.5-0.3c-0.2,0.4-0.5,0.7-0.7,1.1
				C79.7,40.6,80.2,40.9,80.5,40.6L80.5,40.6z"/>
		</g>
	</g>
</g>
<g>
	<g>
		<g>
			<path class="st0" d="M81.9,41.7c0.5-0.1,1-0.5,1.1-1c0.1-0.4-0.5-0.5-0.6-0.2c-0.1,0.3-0.3,0.6-0.7,0.6c-0.2,0-0.2,0.2-0.2,0.4
				C81.5,41.7,81.7,41.7,81.9,41.7L81.9,41.7z"/>
		</g>
	</g>
</g>
<g>
	<g>
		<g>
			<path class="st0" d="M50.9,42.4C50.9,42.4,50.9,42.4,50.9,42.4c0,0,0.1,0,0.1,0c0,0,0,0,0,0c0,0,0.1,0,0.1,0.1
				c0.1,0.1,0.1,0.3,0,0.3c0,0-0.1,0-0.1,0c0,0-0.1,0-0.1,0c0.1,0.1,0.3,0,0.4-0.1c0.1-0.1,0-0.3-0.1-0.4c-0.2-0.2-0.5,0-0.5,0.3
				c0,0.1,0,0.2,0.1,0.3c0.1,0.1,0.3,0.1,0.4,0c0.1-0.1,0.2-0.3,0.1-0.4C51.2,42.4,51.1,42.4,50.9,42.4L50.9,42.4z"/>
		</g>
	</g>
</g>
<g>
	<g>
		<g>
			<path class="st0" d="M50,43.9c0.4,0,0.4-0.6,0-0.6S49.6,43.9,50,43.9L50,43.9z"/>
		</g>
	</g>
</g>
<g>
	<g>
		<g>
			<path class="st0" d="M83.2,42.5c0,0,0.1,0,0.2,0c0.4,0,0.4-0.6,0-0.6c0,0-0.1,0-0.2,0C82.8,41.9,82.8,42.5,83.2,42.5L83.2,42.5z"
				/>
		</g>
	</g>
</g>
<g>
	<g>
		<g>
			<path class="st0" d="M84.4,43.5c0,0,0.1-0.1,0.2-0.2c0.3-0.3-0.1-0.7-0.4-0.4c0,0-0.1,0.1-0.2,0.2C83.7,43.3,84.2,43.7,84.4,43.5
				L84.4,43.5z"/>
		</g>
	</g>
</g>
<g>
	<g>
		<g>
			<g>
				<path class="st1" d="M39.9,74.2c-0.9,0-1.7-0.7-1.7-1.6c0-0.9,0.8-1.6,1.7-1.6c0.9,0,1.7,0.7,1.7,1.6
					C41.6,73.5,40.9,74.2,39.9,74.2z M39.9,71.5c-0.7,0-1.2,0.5-1.2,1.1c0,0.6,0.5,1.1,1.2,1.1s1.2-0.5,1.2-1.1
					C41.1,72,40.6,71.5,39.9,71.5z"/>
			</g>
			<g class="st2">
				<path class="st1" d="M39.7,73.2V72h0.2V73h0.6v0.1H39.7z"/>
			</g>
		</g>
		<g>
			<g>
				<path class="st1" d="M41.4,77.3c-1.1,0-2-0.9-2-2s0.9-2,2-2c1.1,0,2,0.9,2,2S42.5,77.3,41.4,77.3z M41.4,73.9
					c-0.8,0-1.5,0.7-1.5,1.5c0,0.8,0.7,1.5,1.5,1.5s1.5-0.7,1.5-1.5C42.9,74.5,42.3,73.9,41.4,73.9z"/>
			</g>
			<g class="st2">
				<path class="st1" d="M40.8,75.3c0-0.3,0.1-0.5,0.2-0.6c0.1-0.1,0.3-0.2,0.5-0.2c0.1,0,0.3,0,0.4,0.1c0.1,0.1,0.2,0.2,0.3,0.3
					c0.1,0.1,0.1,0.3,0.1,0.4c0,0.2,0,0.3-0.1,0.4c-0.1,0.1-0.2,0.2-0.3,0.3c-0.1,0.1-0.2,0.1-0.4,0.1c-0.1,0-0.3,0-0.4-0.1
					c-0.1-0.1-0.2-0.2-0.3-0.3C40.8,75.6,40.8,75.4,40.8,75.3z M41,75.3c0,0.2,0.1,0.3,0.2,0.4c0.1,0.1,0.2,0.2,0.4,0.2
					c0.2,0,0.3-0.1,0.4-0.2c0.1-0.1,0.2-0.3,0.2-0.5c0-0.1,0-0.2-0.1-0.3c0-0.1-0.1-0.2-0.2-0.2c-0.1-0.1-0.2-0.1-0.3-0.1
					c-0.1,0-0.3,0-0.4,0.1C41.1,74.9,41,75.1,41,75.3z"/>
			</g>
		</g>
		<g>
			<g>
				<path class="st1" d="M43.4,80.9c-1.2,0-2.2-1-2.2-2.2c0-1.2,1-2.2,2.2-2.2s2.2,1,2.2,2.2C45.6,79.9,44.6,80.9,43.4,80.9z
					 M43.4,76.9c-1,0-1.7,0.8-1.7,1.7s0.8,1.7,1.7,1.7s1.7-0.8,1.7-1.7S44.3,76.9,43.4,76.9z"/>
			</g>
			<g class="st2">
				<path class="st1" d="M43.4,79.6l-0.7-1.8h0.3l0.5,1.3c0,0.1,0.1,0.2,0.1,0.3c0-0.1,0.1-0.2,0.1-0.3l0.5-1.3h0.2l-0.7,1.8H43.4z"
					/>
			</g>
		</g>
		<g>
			<g>
				<path class="st1" d="M47,83.4c-1.3,0-2.3-1-2.3-2.3c0-1.3,1-2.3,2.3-2.3s2.3,1,2.3,2.3C49.3,82.4,48.3,83.4,47,83.4z M47,79.3
					c-1,0-1.8,0.8-1.8,1.8c0,1,0.8,1.8,1.8,1.8c1,0,1.8-0.8,1.8-1.8C48.8,80.1,48,79.3,47,79.3z"/>
			</g>
			<g class="st2">
				<path class="st1" d="M46.6,82v-1.9h1.3v0.2h-1.1v0.6h1v0.2h-1v0.6H48V82H46.6z"/>
			</g>
		</g>
		<g>
			<g>
				<path class="st1" d="M55.3,88c-1.5,0-2.7-1.2-2.7-2.7c0-1.5,1.2-2.7,2.7-2.7c1.5,0,2.7,1.2,2.7,2.7C58,86.8,56.8,88,55.3,88z
					 M55.3,83.2c-1.2,0-2.2,1-2.2,2.2c0,1.2,1,2.2,2.2,2.2c1.2,0,2.2-1,2.2-2.2C57.5,84.2,56.6,83.2,55.3,83.2z"/>
			</g>
			<g class="st2">
				<path class="st1" d="M54.9,86.7v-2.2h0.8c0.1,0,0.3,0,0.3,0c0.1,0,0.2,0.1,0.3,0.1c0.1,0,0.1,0.1,0.2,0.2c0,0.1,0.1,0.2,0.1,0.3
					c0,0.2-0.1,0.3-0.2,0.5c-0.1,0.1-0.3,0.2-0.6,0.2h-0.6v0.9H54.9z M55.1,85.5h0.6c0.2,0,0.3,0,0.4-0.1c0.1-0.1,0.1-0.2,0.1-0.3
					c0-0.1,0-0.2-0.1-0.2c0-0.1-0.1-0.1-0.2-0.1c0,0-0.1,0-0.3,0h-0.6V85.5z"/>
			</g>
		</g>
		<g>
			<g>
				<path class="st1" d="M60.9,89.4c-1.9,0-3.4-1.5-3.4-3.4s1.5-3.4,3.4-3.4c1.9,0,3.4,1.5,3.4,3.4S62.8,89.4,60.9,89.4z M60.9,83
					c-1.6,0-3,1.3-3,3s1.3,3,3,3s3-1.3,3-3S62.6,83,60.9,83z"/>
			</g>
			<g class="st2">
				<path class="st1" d="M60.2,87.5v-2.6h1.9v0.3h-1.5V86H62v0.3h-1.4v0.9h1.6v0.3H60.2z"/>
			</g>
		</g>
		<g>
			<g>
				<path class="st1" d="M68.3,90.7c-2.5,0-4.5-2-4.5-4.5c0-2.5,2-4.5,4.5-4.5c2.5,0,4.5,2,4.5,4.5C72.8,88.7,70.8,90.7,68.3,90.7z
					 M68.3,82.3c-2.2,0-4,1.8-4,4s1.8,4,4,4c2.2,0,4-1.8,4-4S70.5,82.3,68.3,82.3z"/>
			</g>
			<g class="st2">
				<path class="st1" d="M66.5,88l1.3-3.4h0.5l1.4,3.4h-0.5l-0.4-1h-1.4L67,88H66.5z M67.5,86.6h1.1l-0.4-0.9
					c-0.1-0.3-0.2-0.5-0.2-0.7c0,0.2-0.1,0.4-0.2,0.6L67.5,86.6z"/>
			</g>
		</g>
		<g>
			<g>
				<path class="st1" d="M75.7,89.5c-1.8,0-3.2-1.4-3.2-3.2c0-1.8,1.4-3.2,3.2-3.2c1.8,0,3.2,1.4,3.2,3.2
					C78.9,88.1,77.5,89.5,75.7,89.5z M75.7,83.5c-1.5,0-2.7,1.2-2.7,2.7s1.2,2.7,2.7,2.7s2.7-1.2,2.7-2.7S77.2,83.5,75.7,83.5z"/>
			</g>
			<g class="st2">
				<path class="st1" d="M76.5,86.8l0.3,0.1c-0.1,0.3-0.2,0.5-0.4,0.6c-0.2,0.1-0.4,0.2-0.6,0.2c-0.3,0-0.5-0.1-0.6-0.2
					c-0.2-0.1-0.3-0.3-0.4-0.5s-0.1-0.4-0.1-0.6c0-0.2,0-0.5,0.1-0.7c0.1-0.2,0.2-0.3,0.4-0.4c0.2-0.1,0.4-0.1,0.6-0.1
					c0.2,0,0.4,0.1,0.6,0.2c0.2,0.1,0.3,0.3,0.3,0.5l-0.3,0.1c-0.1-0.2-0.1-0.3-0.2-0.4c-0.1-0.1-0.2-0.1-0.4-0.1
					c-0.2,0-0.3,0-0.5,0.1c-0.1,0.1-0.2,0.2-0.3,0.4c0,0.1-0.1,0.3-0.1,0.5c0,0.2,0,0.4,0.1,0.5c0.1,0.2,0.2,0.3,0.3,0.3
					c0.1,0.1,0.3,0.1,0.4,0.1c0.2,0,0.3-0.1,0.4-0.2C76.4,87.1,76.5,87,76.5,86.8z"/>
			</g>
		</g>
		<g>
			<g>
				<path class="st1" d="M80.9,87.7c-1.6,0-2.8-1.3-2.8-2.8s1.3-2.8,2.8-2.8s2.8,1.3,2.8,2.8S82.5,87.7,80.9,87.7z M80.9,82.5
					c-1.3,0-2.4,1.1-2.4,2.4c0,1.3,1.1,2.4,2.4,2.4c1.3,0,2.4-1.1,2.4-2.4C83.3,83.5,82.2,82.5,80.9,82.5z"/>
			</g>
			<g class="st2">
				<path class="st1" d="M80.3,86v-2.1h1.5v0.2h-1.2v0.6h1.2v0.2h-1.2v0.7h1.3V86H80.3z"/>
			</g>
		</g>
		<g>
			<g>
				<path class="st1" d="M88.3,82.4c-1.4,0-2.5-1.1-2.5-2.5s1.1-2.5,2.5-2.5s2.5,1.1,2.5,2.5S89.7,82.4,88.3,82.4z M88.3,78
					c-1.1,0-2,0.9-2,2s0.9,2,2,2s2-0.9,2-2S89.4,78,88.3,78z"/>
			</g>
			<g class="st2">
				<path class="st1" d="M87.7,80.5l0.2,0c0,0.1,0,0.2,0.1,0.2c0,0.1,0.1,0.1,0.2,0.1c0.1,0,0.2,0.1,0.3,0.1c0.1,0,0.2,0,0.2,0
					c0.1,0,0.1-0.1,0.2-0.1c0,0,0.1-0.1,0.1-0.2c0-0.1,0-0.1,0-0.1c0,0-0.1-0.1-0.2-0.1c0,0-0.2,0-0.3-0.1c-0.2,0-0.3-0.1-0.3-0.1
					c-0.1,0-0.1-0.1-0.2-0.2s-0.1-0.1-0.1-0.2c0-0.1,0-0.2,0.1-0.3c0.1-0.1,0.1-0.1,0.2-0.2c0.1,0,0.2-0.1,0.3-0.1
					c0.1,0,0.2,0,0.3,0.1c0.1,0,0.2,0.1,0.2,0.2c0.1,0.1,0.1,0.2,0.1,0.3l-0.2,0c0-0.1-0.1-0.2-0.1-0.3c-0.1-0.1-0.2-0.1-0.3-0.1
					c-0.1,0-0.2,0-0.3,0.1C88,79.6,88,79.6,88,79.7c0,0.1,0,0.1,0.1,0.2c0,0,0.2,0.1,0.4,0.1c0.2,0,0.3,0.1,0.4,0.1
					c0.1,0,0.2,0.1,0.2,0.2c0,0.1,0.1,0.2,0.1,0.3c0,0.1,0,0.2-0.1,0.3c-0.1,0.1-0.1,0.1-0.2,0.2c-0.1,0-0.2,0.1-0.3,0.1
					c-0.2,0-0.3,0-0.4-0.1c-0.1,0-0.2-0.1-0.3-0.2C87.7,80.7,87.7,80.6,87.7,80.5z"/>
			</g>
		</g>
		<g>
			<g>
				<path class="st1" d="M90.6,78.6c-1.1,0-2.1-0.9-2.1-2.1c0-1.1,0.9-2.1,2.1-2.1c1.1,0,2.1,0.9,2.1,2.1
					C92.7,77.6,91.7,78.6,90.6,78.6z M90.6,74.9c-0.9,0-1.6,0.7-1.6,1.6c0,0.9,0.7,1.6,1.6,1.6c0.9,0,1.6-0.7,1.6-1.6
					C92.2,75.6,91.5,74.9,90.6,74.9z"/>
			</g>
			<g class="st2">
				<path class="st1" d="M90.2,77.4v-1.5h0.5c0.1,0,0.2,0,0.2,0c0.1,0,0.1,0,0.2,0.1c0,0,0.1,0.1,0.1,0.1c0,0.1,0,0.1,0,0.2
					c0,0.1,0,0.2-0.1,0.3c-0.1,0.1-0.2,0.1-0.4,0.1h-0.4v0.6H90.2z M90.4,76.6h0.4c0.1,0,0.2,0,0.3-0.1c0.1,0,0.1-0.1,0.1-0.2
					c0-0.1,0-0.1,0-0.2c0,0-0.1-0.1-0.1-0.1c0,0-0.1,0-0.2,0h-0.4V76.6z"/>
			</g>
		</g>
		<g>
			<g>
				<path class="st1" d="M92.3,75.3c-1.2,0-2.1-1-2.1-2.1s1-2.1,2.1-2.1c1.2,0,2.1,1,2.1,2.1S93.5,75.3,92.3,75.3z M92.3,71.6
					c-0.9,0-1.6,0.7-1.6,1.6c0,0.9,0.7,1.6,1.6,1.6c0.9,0,1.6-0.7,1.6-1.6C94,72.3,93.2,71.6,92.3,71.6z"/>
			</g>
			<g class="st2">
				<path class="st1" d="M91.6,73.9l0.6-1.5h0.2l0.6,1.5h-0.2l-0.2-0.5H92l-0.2,0.5H91.6z M92.1,73.3h0.5l-0.2-0.4
					c0-0.1-0.1-0.2-0.1-0.3c0,0.1,0,0.2-0.1,0.3L92.1,73.3z"/>
			</g>
		</g>
		<g>
			<g>
				<path class="st1" d="M94.2,71.9c-1,0-1.9-0.8-1.9-1.9s0.8-1.9,1.9-1.9c1,0,1.9,0.8,1.9,1.9S95.2,71.9,94.2,71.9z M94.2,68.6
					c-0.8,0-1.4,0.6-1.4,1.4s0.6,1.4,1.4,1.4c0.8,0,1.4-0.6,1.4-1.4S95,68.6,94.2,68.6z"/>
			</g>
			<g class="st2">
				<path class="st1" d="M94.7,70.3l0.2,0c0,0.1-0.1,0.2-0.2,0.3c-0.1,0.1-0.2,0.1-0.3,0.1c-0.1,0-0.3,0-0.3-0.1
					c-0.1-0.1-0.2-0.1-0.2-0.2c0-0.1-0.1-0.2-0.1-0.3c0-0.1,0-0.3,0.1-0.4c0.1-0.1,0.1-0.2,0.2-0.2c0.1-0.1,0.2-0.1,0.3-0.1
					c0.1,0,0.2,0,0.3,0.1c0.1,0.1,0.2,0.2,0.2,0.3l-0.2,0c0-0.1-0.1-0.2-0.1-0.2c-0.1,0-0.1-0.1-0.2-0.1c-0.1,0-0.2,0-0.3,0.1
					c-0.1,0-0.1,0.1-0.1,0.2c0,0.1,0,0.2,0,0.2c0,0.1,0,0.2,0,0.3c0,0.1,0.1,0.1,0.2,0.2c0.1,0,0.1,0.1,0.2,0.1c0.1,0,0.2,0,0.2-0.1
					C94.6,70.5,94.6,70.4,94.7,70.3z"/>
			</g>
		</g>
		<g>
			<g>
				<path class="st1" d="M95.8,69.4c-0.9,0-1.7-0.8-1.7-1.7c0-0.9,0.8-1.7,1.7-1.7s1.7,0.8,1.7,1.7C97.5,68.6,96.7,69.4,95.8,69.4z
					 M95.8,66.5c-0.7,0-1.2,0.5-1.2,1.2c0,0.7,0.5,1.2,1.2,1.2s1.2-0.5,1.2-1.2C97,67,96.5,66.5,95.8,66.5z"/>
			</g>
			<g class="st2">
				<path class="st1" d="M95.5,68.3v-1.1h0.8v0.1h-0.7v0.4h0.6v0.1h-0.6v0.4h0.7v0.1H95.5z"/>
			</g>
		</g>
		<g>
			<path class="st1" d="M50.9,85.6c-1.3,0-2.3-1-2.3-2.3c0-1.3,1-2.3,2.3-2.3c1.3,0,2.3,1,2.3,2.3C53.2,84.6,52.2,85.6,50.9,85.6z
				 M50.9,81.5c-1,0-1.8,0.8-1.8,1.8c0,1,0.8,1.8,1.8,1.8c1,0,1.8-0.8,1.8-1.8C52.8,82.3,51.9,81.5,50.9,81.5z"/>
		</g>
		<g>
			<path class="st1" d="M85.1,85.3c-1.3,0-2.3-1-2.3-2.3s1-2.3,2.3-2.3c1.3,0,2.3,1,2.3,2.3S86.4,85.3,85.1,85.3z M85.1,81.1
				c-1,0-1.8,0.8-1.8,1.8s0.8,1.8,1.8,1.8c1,0,1.8-0.8,1.8-1.8S86.1,81.1,85.1,81.1z"/>
		</g>
	</g>
	<g>
		<g>
			<g>
				<path class="st0" d="M95.1,65.8c0-1.3,0.1-2.5,0.4-3.7c0.1-0.4,0.2-0.8,0.4-1.2c0.1-0.4,0.3-0.8,0.5-1.1c0.2-0.7,0.7-0.7,1.6,0
					c0.3,0.7-0.1,2-0.4,2.7c-0.4,1.1-1.1,2-2,2.7c0.1,0.1,0.1,0.1,0.2,0.2c1.2-1.2,3.6-2.4,5.1-1c0.7,0.4,0.7,1.1,0.2,2
					c-0.3,0.1-0.6,0.3-0.9,0.4c-0.4,0.1-0.9,0.2-1.3,0.2c-1.1,0-2.2-0.4-3.1-1.1c0,0.1-0.1,0.2-0.1,0.3c1.4,0,2.7,0.7,3.3,1.9
					c0.7,1.1,0.2,2.5,0.7,3.6c0.8,1.7,2.5,0.6,3.4-0.4c0.1-0.1-0.1-0.4-0.2-0.2c-0.7,0.7-2.1,2.2-3,0.1c-0.3-0.6-0.1-1.4-0.2-2
					s-0.3-1.2-0.7-1.7c-0.8-1.1-2-1.6-3.3-1.6c-0.1,0-0.2,0.2-0.1,0.3c1.2,0.9,2.6,1.3,4,1.1c1-0.1,2.6-0.6,2.3-2
					c-0.2-1.1-1.6-1.7-2.6-1.7c-1.4,0-2.8,0.7-3.8,1.7c-0.1,0.1,0.1,0.3,0.2,0.2c1.2-1,2.1-2.3,2.4-3.9c0.1-0.8,0.5-2.7-0.5-3.1
					c-0.9-0.4-1.5,0.8-1.8,1.5c-0.8,1.9-1.1,3.8-1.1,5.8C94.8,65.9,95.1,65.9,95.1,65.8L95.1,65.8z"/>
			</g>
		</g>
	</g>
	<g>
		<g>
			<g>
				<path class="st0" d="M96.9,65.6c1.3-0.2,2.7,0.6,3.2,1.9c0.2,0.6,0.1,1.3,0.7,1.7c1.1,0.8,2.2-0.5,2.8-1.4
					c0.1-0.2-0.1-0.3-0.3-0.1c-0.3,0.4-0.6,1.1-1.1,1.3c-1.7,0.7-1.5-0.6-1.7-1.2c-0.1-0.5-0.3-1-0.7-1.3c-0.7-0.8-1.8-1.2-2.9-1.1
					C96.7,65.3,96.7,65.6,96.9,65.6L96.9,65.6z"/>
			</g>
		</g>
	</g>
</g>
<g>
	<g>
		<g>
			<path class="st0" d="M40.2,81.8c1.8,0.1,3.3,1.1,4.3,2.6c0.5,0.7,0.7,1.5,0.8,2.4c0,0.5,0,1,0.3,1.4c0.5,0.7,1.5,0.6,2.2,0.3
				c0.7-0.3,1.3-0.7,2-0.8c1.2-0.1,1.9,1.2,2.3,2c1,2,1.9,3.9,4.4,3c1.4-0.5,2.9-1.6,4.2-0.3c1,1,1.3,2.2,2.6,2.9
				c2.1,1.1,4,0.2,5.5-1.4c1.1-1.1,2.3-1.8,3.9-0.9c0.9,0.6,1.6,1.4,2.6,1.8c1.8,0.7,3-0.7,3.9-2.1c0.6-0.9,1.2-2.1,2.2-2.6
				c1.4-0.7,2.8,0.2,4.2,0.1c1-0.1,1.6-0.7,2.1-1.6c0.5-1,0.7-2.7,1.7-3.3c0.9-0.5,2.2,0.3,2.8-0.7c0.4-0.7,0.4-1.4,0.8-2.1
				c0.6-0.9,1.5-1.6,2.5-2c0.2-0.1,0.1-0.4-0.1-0.3c-1,0.4-1.9,1-2.5,1.9c-0.3,0.5-0.6,1-0.8,1.5c0,0.2-0.1,0.5-0.1,0.6
				c-0.5,1-1,0.6-1.8,0.7c-1.9,0-2.1,2.2-2.8,3.6c-1.4,2.9-4.5,0.1-6.6,1.6c-1.6,1.2-2,4-4,4.5c-2.3,0.6-3.6-2.6-5.9-2.4
				c-1,0.1-1.8,0.9-2.5,1.6c-1.3,1.3-2.7,2-4.5,1.4c-1.5-0.5-2-1.7-2.9-2.8c-0.7-0.8-1.6-1.1-2.6-0.9c-1.3,0.3-2.5,1.4-3.8,1
				c-1.6-0.4-1.9-2.4-2.7-3.6c-0.6-1-1.4-1.8-2.7-1.6c-0.5,0.1-1,0.4-1.4,0.6c-1,0.5-1.9,0.8-2.4-0.9c-0.1-0.3,0-0.7-0.1-1.1
				c-0.5-2.5-2.7-4.4-5.3-4.6C40,81.5,40,81.8,40.2,81.8L40.2,81.8z"/>
		</g>
	</g>
</g>
<g>
	<g>
		<g>
			<path class="st0" d="M39.8,103.5c-0.3,2.5-2.1,4.2-4.1,5.6c-1.5,1-3.5,1.9-4.7,3.4c-0.7,0.8-0.8,1.9,0.3,2.3
				c1.6,0.5,3.5-0.3,5.1-0.4c1.3-0.1,2.3,0.3,3.2,1.3c0.6,0.6,1.2,1.3,2,1.7c1.4,0.7,3.1,0.5,4.5,0c2-0.7,5.4-3.4,7.4-1.5
				c1.2,1.2,1.8,3,2.9,4.3c1,1.2,2.3,1.9,3.9,1.9c0.9,0,1.8-0.4,2.7-0.7c0.3-0.1,0.7-0.3,1-0.5c0.2-0.1,0.4-0.2,0.6-0.3
				c0.8-0.4,1-0.6,1.9-0.3c0.9,0.2,1.5,1,2.4,1.4c0.6,0.3,1.3,0.6,2,0.7c1.4,0.2,2.8-0.1,3.9-1c0.7-0.6,1.3-1.3,1.9-1.9
				c0.9-0.8,2-1.4,3.2-1.7c2.2-0.6,4.1,0,6.2,0.5c1.4,0.4,2.8,0.4,4-0.7c0.7-0.7,1.2-1.6,2.3-1.9c1.2-0.3,2.6,0.1,3.7,0.6
				c1.5,0.7,3.2,1.6,5,1.3c0.7-0.1,1.3-0.6,1.8-1.1c0.9-1,1.4-2,2.7-2.5c2.2-0.7,7.9-0.5,7.2-4.4c0-0.1-0.1-0.1-0.1-0.1
				c-2.9,0.1-5.7-0.2-8.5-1c-1.4-0.4-2.8-0.9-4.1-1.5c-0.9-0.4-4-1.5-3.8-2.8c0-0.2-0.3-0.3-0.3-0.1c-0.3,1.5,2.1,2.3,3.2,2.8
				c1.9,0.9,3.9,1.6,6,2.1c1,0.2,2,0.4,2.9,0.5c1.2,0.2,2.6,0,3.8,0.2c0.4,0,0.6-0.2,0.7,0.4c0.1,0.2-0.2,0.8-0.3,1
				c-0.3,0.5-0.8,0.9-1.3,1.2c-1,0.6-2.2,0.7-3.3,0.9c-1.6,0.2-3.2,0.5-4.2,1.9c-0.7,0.9-1.2,1.9-2.4,2.1c-1.3,0.3-2.7-0.3-3.9-0.9
				c-1.5-0.7-3.2-1.5-4.8-1.1c-0.7,0.2-1.3,0.7-1.7,1.2c-1.1,1.3-2,1.9-3.8,1.6c-1.9-0.3-3.6-1.1-5.6-0.9c-1.8,0.2-3.5,1-4.8,2.2
				c-0.8,0.7-1.4,1.6-2.3,2.2c-1.1,0.6-2.4,0.7-3.6,0.4c-1.1-0.3-2-0.8-2.8-1.6c-0.4-0.4-0.8-0.7-1.5-0.7c-1,0.1-2,0.8-2.8,1.2
				c-1.4,0.7-3,1.2-4.6,0.6c-2-0.7-3-2.9-4-4.6c-1-1.6-2.1-2.3-4-1.8c-2.3,0.7-4.2,2.3-6.6,2.4c-1.7,0.1-2.8-0.6-3.9-1.8
				c-0.7-0.7-1.3-1.3-2.3-1.5c-0.8-0.2-1.7-0.1-2.6,0c-0.7,0.1-1.4,0.3-2.2,0.3c-0.2,0-0.5,0-0.7,0c-0.8,0-1,0-1.3-0.8
				c-0.3-0.8-0.3-0.7,0.3-1.3c0.3-0.3,0.7-0.6,1.1-0.9c0.5-0.4,1-0.7,1.6-1c1-0.6,2-1.3,2.9-2c1.6-1.3,2.8-2.9,3.1-5
				C40.2,103.3,39.9,103.3,39.8,103.5L39.8,103.5z"/>
		</g>
	</g>
</g>
<g>
	<g>
		<g>
			<path class="st0" d="M41.2,83.6c1.5,0.4,2.6,1.9,2.3,3.5c0,0.2,0.3,0.3,0.3,0.1c0.3-1.7-0.8-3.4-2.6-3.9
				C41.1,83.3,41,83.5,41.2,83.6L41.2,83.6z"/>
		</g>
	</g>
</g>
<g>
	<g>
		<g>
			<path class="st0" d="M48.1,89.6c0.7-0.4,1.5,0,2,0.6c0.4,0.6,0.6,1.3,0.7,1.9c0,0.2,0.3,0.1,0.3-0.1c-0.2-0.9-0.4-1.9-1.1-2.5
				c-0.6-0.5-1.3-0.6-2-0.2C47.7,89.5,47.9,89.7,48.1,89.6L48.1,89.6z"/>
		</g>
	</g>
</g>
<g>
	<g>
		<g>
			<path class="st0" d="M57.3,94c1-0.6,2.5,0,2.8,1.1c0,0.2,0.3,0.1,0.3-0.1c-0.3-1.3-2-2-3.2-1.3C57,93.8,57.2,94.1,57.3,94
				L57.3,94z"/>
		</g>
	</g>
</g>
<g>
	<g>
		<g>
			<path class="st0" d="M69.3,95.7c0.8-0.8,2.2-0.7,3,0.2c0.1,0.1,0.4,0,0.3-0.1c-0.8-1.1-2.5-1.2-3.4-0.2
				C69,95.6,69.2,95.8,69.3,95.7L69.3,95.7z"/>
		</g>
	</g>
</g>
<g>
	<g>
		<g>
			<path class="st0" d="M80.5,94.1c0.5-1.6,2.5-2.5,4-1.7c0.2,0.1,0.3-0.2,0.1-0.3c-1.7-0.9-3.9,0-4.4,1.9
				C80.2,94.2,80.5,94.3,80.5,94.1L80.5,94.1z"/>
		</g>
	</g>
</g>
<g>
	<g>
		<g>
			<path class="st0" d="M89.1,88.9c-0.1-1.5,1.6-1.8,2.7-1.9c0.2,0,0.2-0.3,0-0.3c-1.3,0.1-3.2,0.5-3.1,2.2
				C88.8,89.1,89.1,89.1,89.1,88.9L89.1,88.9z"/>
		</g>
	</g>
</g>
<g>
	<g>
		<g>
			<path class="st0" d="M93.5,84.8c0.1-0.9,0.5-1.6,1.2-2.1c0.1-0.1,0-0.4-0.1-0.3c-0.8,0.6-1.3,1.4-1.3,2.4
				C93.2,85,93.5,85,93.5,84.8L93.5,84.8z"/>
		</g>
	</g>
</g>
<g>
	<g>
		<g>
			<path class="st0" d="M34,111.7c-0.7,0-1.3,0.6-1.2,1.3c0,0.1,0.1,0.2,0.2,0.1c1.1-0.2,2.1-0.6,3-1.2c0.2-0.1,0-0.4-0.1-0.3
				c-0.9,0.6-1.9,1-2.9,1.2c0.1,0,0.1,0.1,0.2,0.1c-0.1-0.6,0.3-1,0.9-1.1C34.2,112,34.2,111.6,34,111.7L34,111.7z"/>
		</g>
	</g>
</g>
<g>
	<g>
		<g>
			<path class="st0" d="M41.3,114.2c0.3,0.9,1.2,1.4,2.2,1.3c1.4,0,2.4-1.1,3.3-2c0.1-0.1-0.1-0.4-0.2-0.2c-0.7,0.7-1.3,1.4-2.2,1.7
				c-1,0.4-2.3,0.2-2.7-0.9C41.5,113.9,41.2,114,41.3,114.2L41.3,114.2z"/>
		</g>
	</g>
</g>
<g>
	<g>
		<g>
			<path class="st0" d="M56.7,116.2c-0.3,1.2,0.3,2.5,1.5,2.8c1.6,0.5,3-1,3.9-2c0.1-0.1-0.1-0.4-0.2-0.2c-0.7,0.8-1.5,1.7-2.6,2
				c-1.5,0.3-2.7-1.1-2.4-2.5C57,116.1,56.7,116,56.7,116.2L56.7,116.2z"/>
		</g>
	</g>
</g>
<g>
	<g>
		<g>
			<path class="st0" d="M69.2,118.8c0.3,0.8,1.2,1.3,2.1,1.2c1.2-0.1,2-1.1,2.6-2c0.1-0.2-0.1-0.3-0.3-0.1c-0.5,0.7-1,1.3-1.8,1.7
				c-0.9,0.4-2,0.2-2.4-0.8C69.4,118.6,69.1,118.7,69.2,118.8L69.2,118.8z"/>
		</g>
	</g>
</g>
<g>
	<g>
		<g>
			<path class="st0" d="M84.9,116.5c1.6,1,3.7,0.5,4.8-1.1c0.1-0.2-0.1-0.3-0.3-0.1c-1,1.4-2.9,1.8-4.4,1
				C84.9,116.1,84.7,116.4,84.9,116.5L84.9,116.5z"/>
		</g>
	</g>
</g>
<g>
	<g>
		<g>
			<path class="st0" d="M96.7,113.4c0.2,1.1,1.2,1.7,2.2,1.7c1.3,0,2.3-1,3.1-2c0.1-0.1-0.1-0.3-0.3-0.1c-0.6,0.8-1.4,1.6-2.4,1.8
				c-1,0.2-2.1-0.4-2.3-1.4C97,113.2,96.7,113.3,96.7,113.4L96.7,113.4z"/>
		</g>
	</g>
</g>
<g>
	<g>
		<g>
			<path class="st0" d="M106.7,111.8c1,0.4,2.1,0.2,2.8-0.6c0.1-0.1-0.1-0.4-0.2-0.2c-0.6,0.7-1.6,0.9-2.4,0.6
				C106.7,111.5,106.5,111.7,106.7,111.8L106.7,111.8z"/>
		</g>
	</g>
</g>
<g>
	<g>
		<g>
			<path class="st0" d="M42.3,113.2c0,0.6,0.8,1,1.3,0.7c0.2-0.1,0-0.4-0.1-0.3c-0.3,0.2-0.8,0-0.8-0.4
				C42.6,113,42.3,113,42.3,113.2L42.3,113.2z"/>
		</g>
	</g>
</g>
<g>
	<g>
		<g>
			<path class="st0" d="M57.8,116.4c-0.3,0.7,0.7,1.3,1.2,0.8c0.1-0.1-0.1-0.3-0.2-0.2c-0.3,0.3-0.8-0.1-0.7-0.5
				C58.1,116.4,57.9,116.2,57.8,116.4L57.8,116.4z"/>
		</g>
	</g>
</g>
<g>
	<g>
		<g>
			<path class="st0" d="M69.9,117.9c0.2,0.2,0.4,0.4,0.5,0.6c0,0,0.1,0,0.1,0c0.4-0.1,0.7-0.3,0.9-0.6c0.1-0.1-0.1-0.4-0.2-0.2
				c-0.2,0.3-0.5,0.4-0.8,0.5c0,0,0.1,0,0.1,0c-0.2-0.2-0.4-0.4-0.5-0.6C69.9,117.6,69.7,117.8,69.9,117.9L69.9,117.9z"/>
		</g>
	</g>
</g>
<g>
	<g>
		<g>
			<path class="st0" d="M86,115.9c0.8,0.1,1.7-0.1,2.2-0.8c0.1-0.1-0.1-0.4-0.2-0.2c-0.5,0.6-1.2,0.8-2,0.7
				C85.8,115.5,85.8,115.8,86,115.9L86,115.9z"/>
		</g>
	</g>
</g>
<g>
	<g>
		<g>
			<path class="st0" d="M97.8,113.1c0.3,0.9,1.5,1,2,0.3c0.1-0.1-0.1-0.3-0.3-0.1c-0.4,0.5-1.3,0.3-1.5-0.2
				C98,112.8,97.7,112.9,97.8,113.1L97.8,113.1z"/>
		</g>
	</g>
</g>
<g>
	<g>
		<g>
			<path class="st0" d="M107,111.3c0.5,0,0.9-0.2,1.2-0.6c0.1-0.1-0.1-0.3-0.3-0.1c-0.2,0.3-0.6,0.5-0.9,0.5
				C106.8,111,106.8,111.3,107,111.3L107,111.3z"/>
		</g>
	</g>
</g>
<g>
	<g>
		<g>
			<path class="st0" d="M39.9,115.8c0.4,2.7,2,5,4.5,6.2c0.3,0.2,0.7-0.3,0.3-0.5c-2.3-1.2-3.9-3.3-4.2-5.9
				C40.4,115.2,39.8,115.4,39.9,115.8L39.9,115.8z"/>
		</g>
	</g>
</g>
<g>
	<g>
		<g>
			<path class="st0" d="M92.2,121.7c2.2-1.1,3.7-3.3,3.8-5.8c0-0.4-0.6-0.4-0.6,0c-0.1,2.3-1.5,4.3-3.5,5.3
				C91.5,121.3,91.8,121.9,92.2,121.7L92.2,121.7z"/>
		</g>
	</g>
</g>
</svg>
