<?xml version="1.0" encoding="utf-8"?>
<!-- Generator: Adobe Illustrator 24.0.1, SVG Export Plug-In . SVG Version: 6.00 Build 0)  -->
<svg version="1.1" id="Layer_1" xmlns="http://www.w3.org/2000/svg" xmlns:xlink="http://www.w3.org/1999/xlink" x="0px" y="0px"
	 viewBox="0 0 141.7 141.7" style="enable-background:new 0 0 141.7 141.7;" xml:space="preserve">
<style type="text/css">
	.st0{fill:#070707;}
</style>
<g id="Layer_1_1_">
</g>
<g id="Layer_1_2_">
</g>
<g id="Layer_1_3_">
</g>
<g id="Layer_1_4_">
</g>
<g id="Layer_1_5_">
</g>
<g id="Layer_3">
</g>
<g id="Layer_3_1_">
</g>
<g id="Layer_1_6_">
</g>
<g id="Layer_1_7_">
</g>
<g id="Layer_1_8_">
</g>
<g id="Layer_1_9_">
</g>
<g id="Layer_1_10_">
</g>
<g id="Layer_1_11_">
</g>
<g id="Layer_1_12_">
</g>
<g id="Layer_1_13_">
</g>
<g id="Layer_1_14_">
</g>
<g id="Layer_1_15_">
</g>
<g id="Layer_1_16_">
</g>
<g id="Layer_1_17_">
</g>
<g id="Layer_1_18_">
</g>
<g id="Layer_1_19_">
</g>
<g id="Layer_1_20_">
</g>
<g>
	<g>
		<g>
			<path class="st0" d="M48,74.7c0.1,0,0.2-0.1,0.3-0.1c0-0.1-0.1-0.2-0.1-0.2c-1.8,0.9-4.2,2.9-3.9,5.1c0.3,2.5,3.5,2.3,5.2,1.8
				c1.2-0.4,2.4-0.9,3.6-1.4c1-0.4,2.4-0.5,3.2-1.1c2.3-1.7-1.2-4.1-2.6-4.9c-0.2-0.1-0.3,0.2-0.1,0.3c1,0.5,1.8,1.1,2.6,1.9
				c0.6,0.7,0.8,1.7,0.1,2.4c-0.4,0.4-1,0.5-1.5,0.6c-1.6,0.4-3.1,1.2-4.6,1.7c-1.8,0.7-5,1.2-5.7-1.3c-0.5-2,2.2-4,3.7-4.8
				c0.2-0.1,0.1-0.3-0.1-0.2c-0.1,0-0.2,0.1-0.3,0.1C47.7,74.5,47.8,74.8,48,74.7L48,74.7z"/>
		</g>
	</g>
	<g>
		<path class="st0" d="M56.1,72.3c-0.2-1.3-2.4-2.1-4.8-1.7s-4.3,1.8-4,3.1s2.4,2.1,4.8,1.7C54.5,75,56.3,73.6,56.1,72.3z"/>
	</g>
	<g>
		<g>
			<path class="st0" d="M53.2,79.8c0.3,1.8,1.8,5.6-0.2,6.8c-1.6,1-2.8-0.7-3.2-2c-0.3-1.1-0.4-2.3-0.2-3.4c0-0.2-0.2-0.2-0.3,0
				c-0.3,2.2,0.2,6.5,3.4,5.9c2.8-0.6,1.1-5.6,0.8-7.3C53.5,79.6,53.2,79.6,53.2,79.8L53.2,79.8z"/>
		</g>
	</g>
	<g>
		<g>
			<path class="st0" d="M54.2,85.5c3.2,0.2,1.2-4.6,0.9-6.2c0-0.2-0.3-0.1-0.3,0.1c0.2,1.4,2.2,6-0.6,5.9
				C54.1,85.2,54,85.5,54.2,85.5L54.2,85.5z"/>
		</g>
	</g>
	<g>
		<path class="st0" d="M44.6,68.9c-5.3,0-10-3.7-10.8-9c-0.5-2.8,0.2-5.7,2-8c1.7-2.3,4.3-3.9,7.2-4.4l0,0c2.9-0.5,5.8,0.2,8.2,1.8
			c2.4,1.7,4,4.1,4.4,7c0.5,2.8-0.2,5.7-2,8c-1.7,2.3-4.3,3.9-7.2,4.4C45.8,68.8,45.2,68.9,44.6,68.9z M43.1,47.9
			c-2.8,0.5-5.3,2-7,4.2c-1.7,2.3-2.3,5-1.9,7.7c0.9,5.6,6.4,9.4,12.2,8.5c2.8-0.5,5.3-2,7-4.2c1.7-2.3,2.3-5,1.9-7.7
			c-0.4-2.7-2-5.1-4.3-6.7C48.7,48.1,45.9,47.4,43.1,47.9L43.1,47.9z"/>
	</g>
	<g>
		<path class="st0" d="M46,52.2c-0.9,1.7-0.3,3.9,1.4,4.8c1.7,0.9,3.8,0.2,4.7-1.5c0.9-1.7,0.3-3.9-1.4-4.8S46.9,50.5,46,52.2z
			 M51.7,53.6c-0.2,0.5-0.8,0.7-1.3,0.4c-0.5-0.2-0.7-0.8-0.4-1.3c0.2-0.5,0.8-0.7,1.3-0.4C51.7,52.5,51.9,53.1,51.7,53.6z"/>
	</g>
	<g>
		<path class="st0" d="M45.4,67.1c-2.1,0-4.1-0.6-5.8-1.8c-2.2-1.5-3.6-3.8-4.1-6.3c-0.4-2.6,0.2-5.2,1.8-7.3c1.6-2.1,3.9-3.5,6.6-4
			c5.5-0.9,10.7,2.7,11.6,8c0.4,2.6-0.2,5.2-1.8,7.3c-1.6,2.1-3.9,3.5-6.6,4C46.5,67,45.9,67.1,45.4,67.1z M45.6,47.9
			c-0.5,0-1.1,0-1.6,0.1c-2.6,0.4-4.8,1.8-6.4,3.8c-1.5,2-2.1,4.5-1.7,7c0.4,2.5,1.8,4.6,3.9,6.1c2.1,1.4,4.7,2,7.2,1.6
			c2.6-0.4,4.8-1.8,6.4-3.8c1.5-2,2.1-4.5,1.7-7C54.4,51.2,50.3,47.9,45.6,47.9z"/>
	</g>
	<g>
		<g>
			<g>
				<path class="st0" d="M35,61c0.1,1.5,0.7,3,1.9,3.9c0.7,0.6,1.5,0.6,1.1-0.5c-0.3-0.9-0.7-1.7-1.1-2.5c-0.3-0.5-0.7-1.6-1.2-1.8
					c-1.1-0.4-0.4,1.8-0.2,2.1c0.1,0.2,0.4,0,0.3-0.2c-0.1-0.2-0.8-1.8,0.1-1.3c0.3,0.1,0.6,0.9,0.7,1.1c0.4,0.7,1.1,1.6,1.1,2.4
					c0.2,0.2,0.2,0.5-0.1,0.7c-0.2-0.1-0.5-0.3-0.7-0.5c-0.3-0.2-0.5-0.5-0.7-0.8c-0.5-0.8-0.8-1.7-0.8-2.7C35.3,60.8,35,60.8,35,61
					L35,61z"/>
			</g>
		</g>
	</g>
	<g>
		<g>
			<g>
				<path class="st0" d="M38.8,65.9c0.3-0.3,0.8,0.1,0.5,0.5c-0.1,0.2-0.4,0.2-0.5,0C38.8,66.2,38.7,66,38.8,65.9
					c0.1-0.2-0.1-0.4-0.2-0.2c-0.2,0.3-0.2,0.7,0,1c0.3,0.3,0.7,0.3,1,0c0.3-0.3,0.3-0.7-0.1-1c-0.3-0.2-0.7-0.2-1,0.1
					C38.5,65.8,38.7,66,38.8,65.9L38.8,65.9z"/>
			</g>
		</g>
	</g>
	<g>
		<g>
			<path class="st0" d="M68.1,57.3c-1-5.8-6.6-9.8-12.6-8.8c-1.3,0.2-2.6,0.7-3.7,1.3c0.1,0.1,0.1,0.1,0.2,0.2c0,0,0.1,0,0.1,0.1
				c1.1-0.6,2.3-1,3.5-1.2c5.8-1,11.3,2.9,12.2,8.5c0.4,2.7-0.2,5.5-1.9,7.7c-1.7,2.3-4.2,3.7-7,4.2c-3.1,0.5-6.2-0.3-8.6-2.3
				c-0.1,0.1-0.2,0.1-0.3,0.2c2,1.7,4.5,2.6,7.1,2.6c0.6,0,1.2-0.1,1.8-0.2c2.9-0.5,5.5-2,7.2-4.3C67.8,63,68.6,60.2,68.1,57.3z"/>
		</g>
	</g>
	<g>
		<g>
			<path class="st0" d="M58.5,53.2c-0.9,1.7-0.3,3.9,1.4,4.8c1.7,0.9,3.8,0.2,4.7-1.5c0.9-1.7,0.3-3.9-1.4-4.8
				C61.5,50.8,59.4,51.5,58.5,53.2z M64.2,54.6c-0.2,0.5-0.8,0.7-1.3,0.4c-0.5-0.2-0.7-0.8-0.4-1.3c0.2-0.5,0.8-0.7,1.3-0.4
				C64.2,53.5,64.4,54.1,64.2,54.6z"/>
		</g>
	</g>
	<g>
		<g>
			<path class="st0" d="M68,56.7c-0.4-2.6-1.8-4.8-4-6.3c-2.2-1.5-4.8-2.1-7.5-1.7c-1.5,0.2-2.9,0.8-4.1,1.6
				c0.1,0.1,0.2,0.1,0.2,0.2c0,0,0,0,0,0c1.2-0.8,2.5-1.3,3.9-1.5c2.6-0.4,5.2,0.1,7.3,1.6c2.1,1.5,3.5,3.6,3.9,6.1
				c0.4,2.5-0.2,5-1.7,7c-1.5,2-3.8,3.4-6.4,3.8c-2.6,0.4-5.3-0.2-7.4-1.7C52,66,51.9,66,51.8,66.1c1.7,1.3,3.9,2,6.1,2
				c0.6,0,1.1-0.1,1.7-0.1c2.7-0.4,5-1.8,6.6-4C67.8,61.8,68.4,59.3,68,56.7z"/>
		</g>
	</g>
	<g>
		<g>
			<g>
				<path class="st0" d="M51.3,66.9c0.3-0.3,0.9,0.1,0.6,0.5c-0.1,0.2-0.4,0.2-0.5,0C51.2,67.2,51.2,67,51.3,66.9
					c0.1-0.1-0.1-0.4-0.2-0.2c-0.2,0.3-0.2,0.7,0,0.9c0.2,0.3,0.7,0.3,1,0c0.2-0.3,0.2-0.7-0.1-0.9c-0.3-0.2-0.7-0.2-0.9,0.1
					C51,66.8,51.2,67,51.3,66.9L51.3,66.9z"/>
			</g>
		</g>
	</g>
	<g>
		<g>
			<g>
				<path class="st0" d="M49.9,73.9c-2.1,1-4,3-4.3,5.4c-0.3,2.7,3,2.1,4.7,1.7c0.2-0.1,0.1-0.4-0.1-0.3c-0.9,0.2-2,0.5-2.9,0.3
					c-2.1-0.4-1.3-2.5-0.7-3.6c0.8-1.4,2-2.5,3.5-3.2C50.2,74.2,50.1,73.9,49.9,73.9L49.9,73.9z"/>
			</g>
		</g>
	</g>
	<g>
		<g>
			<g>
				<path class="st0" d="M48.6,81.6C48.7,81.6,48.7,81.6,48.6,81.6c0.1-0.1,0.2-0.1,0.2-0.2c0-0.2,0-0.2-0.2-0.3
					c-0.1-0.1-0.2,0-0.2,0.1c-0.4,0.5,0.1,2.1,0,2.7c0,0.9-0.3,2,0.2,2.9c0.9,1.5,2.9,0.8,4.2,0.2c0.2-0.1,0-0.4-0.2-0.3
					c-0.7,0.3-1.5,0.7-2.3,0.7c-1.3-0.1-1.7-1.2-1.6-2.4c0-0.3-0.1-3.8-0.2-3.7C48.3,81.3,48.5,81.6,48.6,81.6L48.6,81.6z"/>
			</g>
		</g>
	</g>
	<g>
		<g>
			<g>
				<path class="st0" d="M63.2,115.9c3.1-1.6,5.9-4.2,7.1-7.5c1.5-4-0.2-8.1-1.7-11.8c-1-2.2-1.8-4.3-2.2-6.7
					c-0.5-2.6-0.6-5.3-0.8-8c-0.3-5-0.5-10.1-0.5-15.1c0-0.4-0.7-0.4-0.7,0c0,4.6,0.1,9.2,0.4,13.8c0.3,4.4,0.3,9.2,1.9,13.3
					c1.5,3.9,4.1,8.1,3.4,12.5c-0.6,4-3.8,7.2-7.3,9C62.5,115.5,62.8,116.1,63.2,115.9L63.2,115.9z"/>
			</g>
		</g>
	</g>
	<g>
		<g>
			<g>
				<path class="st0" d="M46,119c2.9,0,5.7-0.2,8.5-0.6c0.4-0.1,0.2-0.7-0.2-0.7c-2.8,0.4-5.6,0.5-8.4,0.5
					C45.5,118.4,45.5,119,46,119L46,119z"/>
			</g>
		</g>
	</g>
	<g>
		<g>
			<g>
				<path class="st0" d="M23.6,84.4c-2.1,7.5-5.8,15.4-4,23.4c0.4,1.8,0.9,3.3,2.1,4.6c1.1,1.2,2.4,2.1,3.8,2.8
					c3,1.5,6.2,2.1,9.5,2.8c0.4,0.1,0.6-0.6,0.2-0.7c-3-0.6-6.1-1.2-8.9-2.5c-1.4-0.7-2.8-1.6-3.9-2.7c-1.4-1.5-2-3.4-2.3-5.4
					c-1.3-7.6,2.1-15,4.2-22.1C24.4,84.2,23.8,84,23.6,84.4L23.6,84.4z"/>
			</g>
		</g>
	</g>
	<g>
		<g>
			<g>
				<path class="st0" d="M35,52.3c-4.3,0.1-6.2,4.7-7.2,8.2c-1.7,6.3-1.6,12.8-3,19.2c-0.1,0.4,0.6,0.6,0.7,0.2
					c1.2-5.5,1.3-11.2,2.4-16.7c0.7-3.7,2.3-10.1,7.1-10.2C35.4,52.9,35.4,52.3,35,52.3L35,52.3z"/>
			</g>
		</g>
	</g>
	<g>
		<g>
			<g>
				<path class="st0" d="M48.4,47.8c-0.6-3.5,3.5-4.8,6.1-4.8c1.4,0,3.1,0.4,3.9,1.7c0.9,1.2,0.7,2.8,0.5,4.2
					c-0.1,0.4,0.6,0.4,0.7,0c0.2-1.7,0.4-3.6-0.9-5c-1.2-1.3-3-1.6-4.6-1.5c-3.1,0.1-7,1.8-6.4,5.6C47.9,48.4,48.5,48.2,48.4,47.8
					L48.4,47.8z"/>
			</g>
		</g>
	</g>
	<g>
		<g>
			<g>
				<path class="st0" d="M30.4,53.6c-1.7-0.7-2.5-3.5-2-5.1c0.5-1.7,2.6-2.8,4.1-3.4c1.4-0.6,3-0.9,4.6-0.9c0.9,0,1.8,0.1,2.4,0.8
					c0.8,0.8,0.8,2,0.7,3c0,0.4,0.7,0.4,0.7,0c0.1-2.1-0.4-4-2.7-4.4c-2.3-0.4-4.9,0.3-6.9,1.2c-1.8,0.9-3.7,2.2-3.8,4.4
					c-0.1,1.9,0.8,4.2,2.6,5C30.7,54.4,30.8,53.7,30.4,53.6L30.4,53.6z"/>
			</g>
		</g>
	</g>
	<g>
		<g>
			<path class="st0" d="M68,84.8c-0.7,1-2.8,1.9-1.8,3.5c0.9,1.5,3.2,0.3,4.2-0.3c1.1-0.7,3.3-1.8,2.5-3.4c-0.8-1.6-3.2,1-3.7,1.5
				c-0.1,0.1,0,0.3,0.1,0.2c0.6-0.5,3.2-3.2,3.6-1c0.2,1.2-1.9,2.2-2.7,2.7c-1.1,0.7-3.2,1.6-4,0c-0.5-1.1,1.4-2.1,2-2.9
				C68.2,84.9,68.1,84.7,68,84.8L68,84.8z"/>
		</g>
	</g>
	<g>
		<g>
			<path class="st0" d="M70.7,83.5c0-0.1,0.1-0.1,0.1-0.2c-1-0.1-2.1,0.7-2.9,1.6C67.9,85,68,85.1,68.1,85
				C68.8,84.2,69.7,83.4,70.7,83.5z"/>
		</g>
	</g>
	<g>
		<g>
			<g>
				<path class="st0" d="M85.3,50.2c-1.7,5.8-4.1,11.4-6.2,17.1c-2.2,5.8-4.3,11.5-6.5,17.3c-0.1,0.2,0.2,0.3,0.3,0.1
					c2.2-5.7,4.4-11.5,6.5-17.3c2.1-5.7,4.5-11.3,6.2-17.1C85.7,50,85.3,49.9,85.3,50.2L85.3,50.2z"/>
			</g>
		</g>
	</g>
	<g>
		<g>
			<g>
				<path class="st0" d="M69.4,86.5c5.2-12.3,10.9-24.3,15.8-36.8c0.1-0.2-0.2-0.3-0.3-0.1C80,62.1,74.3,74.1,69.1,86.4
					C69,86.6,69.3,86.7,69.4,86.5L69.4,86.5z"/>
			</g>
		</g>
	</g>
	<g>
		<g>
			<g>
				<path class="st0" d="M69.1,88.3c-0.4,0.7-1.3,2-1.1,2.8c0.1,0.5,0.8,0.5,1.3,0.5c0.8,0,1.3-0.4,1.6-1.1c0.5-1.1,0.8-2.4,1.1-3.6
					c0.1-0.2-0.3-0.3-0.3-0.1c-0.2,0.7-0.3,1.3-0.5,2c-0.2,0.7-0.4,1.5-0.9,2c-0.3,0.3-0.7,0.5-1.1,0.4c-0.2,0.1-0.4,0-0.5-0.2
					c-0.3-0.1-0.3-0.3-0.2-0.5c0-0.7,0.6-1.4,0.9-2C69.5,88.3,69.2,88.2,69.1,88.3L69.1,88.3z"/>
			</g>
		</g>
	</g>
	<g>
		<g>
			<g>
				<path class="st0" d="M52.1,83.3c-0.5,0.3-1,0.7-1.2,1.3c-0.2,0.5,0,1,0.5,1.1c1.3,0.1,1.9-1.5,1-2.4c-0.2-0.2-0.4,0.1-0.2,0.2
					c0.6,0.6,0.3,1.8-0.7,1.8c-0.7,0-0.3-0.7-0.1-1s0.5-0.5,0.9-0.7C52.5,83.5,52.3,83.2,52.1,83.3L52.1,83.3z"/>
			</g>
		</g>
	</g>
	<g>
		<g>
			<g>
				<path class="st0" d="M68.1,88.8c-0.4,0.5-1,1.2-0.8,1.9c0.1,0.6,0.6,1,1.2,0.9c0.2-0.1,0.1-0.4-0.1-0.3
					c-0.7,0.1-0.9-0.7-0.8-1.1c0.1-0.4,0.4-0.8,0.7-1.1C68.5,88.8,68.2,88.6,68.1,88.8L68.1,88.8z"/>
			</g>
		</g>
	</g>
	<g>
		<g>
			<g>
				<path class="st0" d="M84.8,49.7c-0.1,0.2-0.2,0.5-0.3,0.7c-0.1,0.2,0.2,0.3,0.3,0.1c0.1-0.2,0.2-0.5,0.3-0.7
					C85.2,49.6,84.9,49.5,84.8,49.7L84.8,49.7z"/>
			</g>
		</g>
	</g>
	<g>
		<g>
			<g>
				<path class="st0" d="M70.5,85.1c5.4-11.6,10.2-23.6,14.9-35.5c0.1-0.2-0.2-0.3-0.3-0.1c-4.7,11.9-9.5,23.8-14.9,35.4
					C70.1,85.1,70.4,85.3,70.5,85.1L70.5,85.1z"/>
			</g>
		</g>
	</g>
	<g>
		<g>
			<g>
				<path class="st0" d="M69.2,88.7c0.7,0.3,1.5,0.3,2.3-0.1c0.2-0.1,0-0.4-0.2-0.3c-0.6,0.3-1.3,0.4-1.9,0.1
					C69.2,88.3,69,88.6,69.2,88.7L69.2,88.7z"/>
			</g>
		</g>
	</g>
	<g>
		<g>
			<g>
				<path class="st0" d="M70.7,82.6c0.6,0.7,1.6,0.9,2.4,0.5c0.2-0.1,0-0.4-0.2-0.3c-0.7,0.4-1.5,0.2-2-0.4
					C70.8,82.2,70.5,82.5,70.7,82.6L70.7,82.6z"/>
			</g>
		</g>
	</g>
	<g>
		<g>
			<g>
				<path class="st0" d="M97.7,35.4c2.3-0.2,4.6-0.4,6.8-0.4c0.2,0,0.2-0.4,0-0.3c-2.3,0-4.6,0.2-6.8,0.4
					C97.5,35.1,97.5,35.4,97.7,35.4L97.7,35.4z"/>
			</g>
		</g>
	</g>
	<g>
		<g>
			<g>
				<path class="st0" d="M97.9,37.1c2.4,0,4.9-0.1,7.3-0.1c0.2,0,0.2-0.4,0-0.3c-2.4,0-4.9,0.1-7.3,0.1
					C97.6,36.8,97.6,37.1,97.9,37.1L97.9,37.1z"/>
			</g>
		</g>
	</g>
	<g>
		<g>
			<g>
				<path class="st0" d="M76.8,32.8c-0.4-2.9-4.2-1.2-5.4,0.1c-1.9,2.2-2.5,6-1.2,8.7c1.5,3.1,4.3-0.6,5.1-2.3
					c0.7-1.4,2.5-6.6-0.2-7c-0.2,0-0.3,0.3-0.1,0.3c2.1,0.3,0.7,4.8,0.2,5.9c-0.4,0.9-0.9,1.7-1.5,2.4c-0.3,0.4-0.8,1-1.2,1.1
					c-1.7,0.8-2.2-0.7-2.5-1.7c-0.5-2-0.3-4.2,0.6-6c0.5-0.9,1.1-1.8,2-2.3c1.1-0.7,3.4-1.2,3.7,0.8C76.5,33.1,76.8,33,76.8,32.8
					L76.8,32.8z"/>
			</g>
		</g>
	</g>
	<g>
		<g>
			<g>
				<path class="st0" d="M78.3,35.5c0.8-1.4,1.5-2.8,2.1-4.3c-0.1,0-0.2-0.1-0.3-0.1c-0.8,3.6-1.3,7.1-1.7,10.7c0,0.2,0.3,0.2,0.3,0
					c0.4-3.6,0.9-7.1,1.7-10.6c0.1-0.2-0.2-0.3-0.3-0.1c-0.5,1.5-1.2,2.9-2.1,4.3C77.9,35.5,78.2,35.7,78.3,35.5L78.3,35.5z"/>
			</g>
		</g>
	</g>
	<g>
		<g>
			<g>
				<path class="st0" d="M75.6,42.4c0-0.1,0.1-0.3,0.1-0.4c-0.1,0-0.2,0-0.2,0c0.2,0.1,0.4,0.1,0.5,0c-0.1,0-0.1-0.1-0.2-0.1
					c0.2,1.2,0,2.4-0.4,3.5c-0.1,0.2,0.2,0.3,0.3,0.1c0.5-1.2,0.6-2.4,0.4-3.7c0-0.1-0.1-0.1-0.2-0.1c-0.3,0.1-0.7,0.2-0.7,0.5
					c-0.1,0.2,0,0.5,0.3,0.6c0.2,0.1,0.4-0.1,0.5-0.2c0.2-0.3,0-0.6-0.3-0.8c-0.1-0.1-0.2-0.1-0.2,0c-0.2,0.2-0.2,0.4-0.2,0.7
					C75.3,42.6,75.6,42.6,75.6,42.4L75.6,42.4z"/>
			</g>
		</g>
	</g>
	<g>
		<g>
			<g>
				<path class="st0" d="M83.5,35.4c-0.2,1-0.3,2.1-0.5,3.1c0,0.2,0.3,0.3,0.3,0.1c0.2-1,0.3-2.1,0.5-3.1
					C83.8,35.3,83.5,35.2,83.5,35.4L83.5,35.4z"/>
			</g>
		</g>
	</g>
	<g>
		<g>
			<g>
				<path class="st0" d="M81.8,37.8c0.8-0.2,1.7-0.4,2.5-0.6c0.2,0,0.1-0.4-0.1-0.3c-0.8,0.1-1.7,0.3-2.5,0.6
					C81.5,37.5,81.5,37.8,81.8,37.8L81.8,37.8z"/>
			</g>
		</g>
	</g>
	<g>
		<g>
			<g>
				<path class="st0" d="M89.2,31.7c-2-0.1-2.8,3.3-3.1,4.8c-0.3,1.3-0.4,2.6-0.3,3.9c0,0.6,0,1.9,0.7,2.2c1.4,0.6,2.6-2.7,2.9-3.7
					c0.5-1.6,1.3-4.7-0.1-6.1c-0.2-0.1-0.4,0.1-0.2,0.2c1.1,1,0.7,3.4,0.4,4.7c-0.2,0.8-0.5,1.7-0.9,2.5c-0.1,0.3-0.3,0.5-0.4,0.8
					c-0.5,0.7-0.4,1.2-1.3,0.5c-0.7-0.5-0.6-0.5-0.7-1.1c0-0.4,0-0.8,0-1.1c0-0.8,0.1-1.6,0.3-2.4c0.3-1.3,1.1-4.8,2.9-4.7
					C89.4,32.1,89.4,31.7,89.2,31.7L89.2,31.7z"/>
			</g>
		</g>
	</g>
	<g>
		<g>
			<g>
				<path class="st0" d="M90.2,41.8C90.2,41.8,90.2,41.8,90.2,41.8c-0.1-0.1-0.1-0.1-0.2-0.1c0.1,0.1-0.1,1.1-0.1,1.2
					c-0.1,0.4-0.2,0.7-0.4,1c-0.1,0.2,0.2,0.4,0.3,0.2c0.3-0.6,0.5-1.4,0.5-2.1c0-0.2-0.3-0.6-0.5-0.3c-0.2,0.2,0.1,0.5,0.4,0.4
					c0.3-0.1,0.3-0.5,0-0.7c-0.1,0-0.1,0-0.2,0c-0.2,0.2-0.2,0.5,0.1,0.6C90.2,42.2,90.4,41.9,90.2,41.8L90.2,41.8z"/>
			</g>
		</g>
	</g>
	<g>
		<g>
			<g>
				<path class="st0" d="M94.6,34.8c0-0.4,0.3-1.1,0.3-0.3c0,0.5-0.2,1-0.3,1.5c-0.2,0.7-0.4,1.4-0.6,2c-0.3,0.8-0.6,1.6-1,2.3
					c-0.3,0.6-0.4,0.8,0.2,1.2c1,0.8,2.6,0.3,2.4-1.1c0-0.2-0.4-0.2-0.3,0c-1,1-1.8,1-2.3,0.3c-0.1-0.1-0.2-0.1-0.3-0.2
					c-0.1-0.1-0.2-0.1-0.4-0.1c-0.2,0-0.5,0.1-0.7,0.2c-0.4,0.5,0.3,1,0.8,0.8c0.9-0.2,1.2-1.9,1.5-2.6c0.7-1.7,1.4-3.6,1.2-5.4
					c0-0.1-0.1-0.2-0.2-0.1c-0.5,0.3-0.7,0.7-0.7,1.3C94.3,35,94.6,35,94.6,34.8L94.6,34.8z"/>
			</g>
		</g>
	</g>
	<g>
		<g>
			<g>
				<path class="st0" d="M30.7,54.3c0.1-0.1,0.1-0.1,0.2-0.2c0.3-0.3-0.2-0.8-0.5-0.5c-0.1,0.1-0.1,0.1-0.2,0.2
					C29.9,54.1,30.4,54.6,30.7,54.3L30.7,54.3z"/>
			</g>
		</g>
	</g>
	<g>
		<g>
			<g>
				<path class="st0" d="M60.3,123.6c-1.9-1.1-2.9-3-4.5-4.4c-0.7-0.5-1.5-0.8-0.6-2.2c0.3-0.5,1.1-1,1.6-1.3
					c1.2-0.8,2.7-1.2,4.1-0.8c2.2,0.7,3.8,3,4.3,5.2c0.3,1.2,0.2,2.6-0.8,3.5C63.3,124.6,61.5,124.2,60.3,123.6
					c-0.2-0.1-0.4,0.2-0.2,0.3c2.1,1.1,5.1,0.8,5.5-2c0.4-2.7-1.7-6.1-4.2-7.1c-1.3-0.6-2.7-0.5-4,0.2c-1,0.5-3,1.7-3.1,3
					c-0.1,1.1,1.4,1.7,2.1,2.4c1.2,1.3,2.2,2.7,3.7,3.6C60.3,124,60.5,123.7,60.3,123.6z"/>
			</g>
		</g>
	</g>
	<g>
		<g>
			<g>
				<path class="st0" d="M61.4,119.3c1.2,1.3,2.2,2.9,2.3,4.7c0,0.2,0.4,0.2,0.3,0c-0.1-1.9-1.1-3.6-2.4-4.9
					C61.5,118.9,61.2,119.1,61.4,119.3L61.4,119.3z"/>
			</g>
		</g>
	</g>
	<g>
		<g>
			<g>
				<path class="st0" d="M41.2,125.6c-1.5-1.7-2-4-3.3-5.8c-0.1-0.2-0.3-0.4-0.4-0.5c0.1-0.8,0.4-1.4,1.1-1.7c0.5-0.3,1.3-0.6,2-0.7
					c1.6-0.4,3.2-0.1,4.3,1.1c1.5,1.4,2.1,3.7,2,5.7c-0.1,1.1-0.4,2.3-1.4,2.9C44,127.5,42.2,126.6,41.2,125.6
					c-0.2-0.1-0.4,0.1-0.2,0.2c1.8,1.7,4.8,2.2,5.9-0.5c1-2.4,0.1-5.7-1.6-7.5c-1-1.1-2.4-1.6-3.9-1.5c-1.2,0.1-3.2,0.7-4,1.7
					c-0.8,1.1,0.4,2,0.9,3c0.9,1.7,1.4,3.4,2.7,4.8C41.1,126,41.3,125.8,41.2,125.6z"/>
			</g>
		</g>
	</g>
	<g>
		<g>
			<g>
				<path class="st0" d="M43.5,121.8c0.8,1.6,1.3,3.4,0.8,5.2c-0.1,0.2,0.3,0.3,0.3,0.1c0.5-1.8,0-3.8-0.8-5.4
					C43.7,121.4,43.4,121.6,43.5,121.8L43.5,121.8z"/>
			</g>
		</g>
	</g>
	<g>
		<g>
			<g>
				<path class="st0" d="M34.8,62.9C33.8,68,32,73,30.5,78c-1.3,4.5-2.1,9-2.3,13.6c-0.2,9,2.2,18.1,6.9,25.8c0.1,0.2,0.4,0,0.3-0.2
					c-4.8-7.8-7.2-16.9-6.9-26.1c0.1-4.8,1.1-9.3,2.4-13.8c1.4-4.8,3-9.5,4-14.4C35.1,62.8,34.8,62.7,34.8,62.9L34.8,62.9z"/>
			</g>
		</g>
	</g>
	<g>
		<g>
			<g>
				<path class="st0" d="M63.4,68c-0.7,8.1,0.1,16.1,1.1,24.2c0.5,4,1.1,7.9,1.5,11.9c0.4,3.9,0.5,8.4-3,11c-0.2,0.1,0,0.4,0.2,0.3
					c2.6-1.9,3.4-5,3.4-8.1c-0.1-4.3-0.9-8.7-1.5-13C63.9,85.5,63,76.8,63.7,68C63.7,67.8,63.4,67.8,63.4,68L63.4,68z"/>
			</g>
		</g>
	</g>
	<g>
		<g>
			<g>
				<path class="st0" d="M19.2,102.8c-0.6-0.5-1.2-1.1-1.7-1.8c-0.1-0.1-0.2-0.2-0.2-0.4c-0.1-0.4,0-0.7,0.5-0.7
					c0.4,0,1,0.4,1.2,0.7c0.1,0.2,0.4-0.1,0.2-0.2c-0.4-0.5-2.1-1.5-2.3-0.3c-0.1,0.4,0.2,0.9,0.4,1.2c0.5,0.6,1.1,1.2,1.7,1.7
					C19.1,103.2,19.4,102.9,19.2,102.8L19.2,102.8z"/>
			</g>
		</g>
	</g>
	<g>
		<g>
			<path class="st0" d="M22.9,84.1c1.5,0.2,3.7,1.7,4.7-0.2c1-1.9-1.6-3.5-2.9-4.2c-1.3-0.8-3.9-2.4-5-0.5c-1.1,1.8,2.9,2.7,3.8,3
				c0.2,0.1,0.3-0.2,0.1-0.2c-0.9-0.3-5.3-1.4-3.3-3.1c1.1-1,3.4,0.6,4.5,1.2c1.4,0.8,3.6,2.4,2.3,4.1c-0.8,1.2-3.1-0.2-4.2-0.3
				C22.8,83.8,22.8,84.1,22.9,84.1L22.9,84.1z"/>
		</g>
	</g>
	<g>
		<g>
			<path class="st0" d="M19.5,80.3c-0.7,2.4,1.5,3.4,3.5,3.8c0.2,0,0.2-0.2,0.1-0.2c-1.8-0.4-3.9-1.2-3.3-3.5
				C19.8,80.2,19.6,80.2,19.5,80.3L19.5,80.3z"/>
		</g>
	</g>
	<g>
		<path class="st0" d="M21.3,108.6c-0.7,0-1.4-0.8-1.4-1.7s0.6-1.7,1.4-1.7c0.7,0,1.4,0.8,1.4,1.7S22,108.6,21.3,108.6z M21.3,105.5
			c-0.6,0-1.1,0.7-1.1,1.5s0.5,1.5,1.1,1.5c0.6,0,1.1-0.7,1.1-1.5S21.9,105.5,21.3,105.5z"/>
	</g>
	<g>
		<path class="st0" d="M25.2,112.6c-0.7,0-1.4-0.8-1.4-1.7s0.6-1.7,1.4-1.7c0.7,0,1.4,0.8,1.4,1.7S25.9,112.6,25.2,112.6z
			 M25.2,109.4c-0.6,0-1.1,0.7-1.1,1.5s0.5,1.5,1.1,1.5c0.6,0,1.1-0.7,1.1-1.5S25.8,109.4,25.2,109.4z"/>
	</g>
	<g>
		<path class="st0" d="M30.7,114.9c-0.7,0-1.4-0.8-1.4-1.7s0.6-1.7,1.4-1.7c0.7,0,1.4,0.8,1.4,1.7S31.4,114.9,30.7,114.9z
			 M30.7,111.8c-0.6,0-1.1,0.7-1.1,1.5s0.5,1.5,1.1,1.5c0.6,0,1.1-0.7,1.1-1.5S31.3,111.8,30.7,111.8z"/>
	</g>
	<g>
		<g>
			<g>
				<path class="st0" d="M19.3,103.5c0.1,0.9,0.4,1.6,0.9,2.3c0.1,0.2,0.4-0.1,0.2-0.2c-0.5-0.6-0.8-1.3-0.8-2.1
					C19.6,103.3,19.3,103.3,19.3,103.5L19.3,103.5z"/>
			</g>
		</g>
	</g>
	<g>
		<g>
			<g>
				<path class="st0" d="M21.8,108.2c0.1,1.1,0.9,2,2,2.2c0.2,0.1,0.3-0.3,0.1-0.3c-0.9-0.2-1.6-0.9-1.7-1.8
					C22.1,108,21.7,108,21.8,108.2L21.8,108.2z"/>
			</g>
		</g>
	</g>
	<g>
		<g>
			<g>
				<path class="st0" d="M26,111.8c1.1,0.6,2.3,1.2,3.5,1.8c0.2,0.1,0.4-0.2,0.2-0.3c-1.1-0.6-2.3-1.2-3.5-1.8
					C26,111.4,25.8,111.7,26,111.8L26,111.8z"/>
			</g>
		</g>
	</g>
	<g>
		<g>
			<g>
				<path class="st0" d="M31.3,113.9c0.7,0.4,1.3,0.5,2.1,0.6c0.2,0,0.2-0.3,0-0.3c-0.7,0-1.3-0.2-1.9-0.5
					C31.3,113.5,31.1,113.8,31.3,113.9L31.3,113.9z"/>
			</g>
		</g>
	</g>
	<g>
		<g>
			<g>
				<path class="st0" d="M66.4,110.5c1.4-0.6,2.6-1.6,3.6-2.8c0.1-0.2-0.1-0.4-0.2-0.2c-1,1.2-2.2,2.1-3.6,2.7
					C66,110.3,66.2,110.6,66.4,110.5L66.4,110.5z"/>
			</g>
		</g>
	</g>
	<g>
		<g>
			<g>
				<path class="st0" d="M25.9,111.5c-0.6,0.1-1.2-0.2-1.3-0.8c-0.1-0.6,0.4-1.1,1-1.2c0.2,0,0.2-0.4,0-0.3
					c-0.8,0.1-1.4,0.8-1.3,1.6s1,1.3,1.7,1.1C26.2,111.8,26.1,111.5,25.9,111.5L25.9,111.5z"/>
			</g>
		</g>
	</g>
	<g>
		<g>
			<g>
				<path class="st0" d="M21.6,108.1c-0.9-0.6-1.2-1.8-0.7-2.8c0.1-0.2-0.2-0.4-0.3-0.2c-0.6,1.1-0.2,2.5,0.8,3.3
					C21.6,108.5,21.8,108.2,21.6,108.1L21.6,108.1z"/>
			</g>
		</g>
	</g>
	<g>
		<g>
			<g>
				<path class="st0" d="M31.4,113.9c-1,0.2-1.8-0.8-1.3-1.6c0.1-0.2-0.2-0.4-0.3-0.2c-0.6,1.2,0.4,2.5,1.7,2.1
					C31.7,114.2,31.6,113.8,31.4,113.9L31.4,113.9z"/>
			</g>
		</g>
	</g>
	<g>
		<g>
			<g>
				<path class="st0" d="M20.6,105.5c1.1-3.3,1.2-6.8,0.5-10.2c-0.1-0.2-0.4-0.1-0.3,0.1c0.8,3.4,0.6,6.8-0.5,10
					C20.2,105.6,20.5,105.7,20.6,105.5L20.6,105.5z"/>
			</g>
		</g>
	</g>
	<g>
		<g>
			<g>
				<path class="st0" d="M25.4,109.4c2.2-5.3,0.2-11,0.2-16.5c0-1.5,0.1-3,0.5-4.5c0.4-1.4,1.2-2.7,1.6-4.2c0.5-2.2-0.3-4.5-2-5.9
					c-0.2-0.1-0.4,0.1-0.2,0.2c1.2,1,1.9,2.4,2.1,3.9c0.1,1.6-0.6,3-1.2,4.5c-0.9,2.2-1.1,4.5-1,6.9c0.2,5.2,1.9,10.6-0.2,15.6
					C25,109.5,25.3,109.6,25.4,109.4L25.4,109.4z"/>
			</g>
		</g>
	</g>
	<g>
		<g>
			<g>
				<path class="st0" d="M28.5,91.3c0.3,3.7,2.3,6.8,5.2,9c3.5,2.6,7.8,3.4,12.1,3.5c4,0.1,8.7-0.2,12.3-2.3
					c3.8-2.2,5.7-6.7,6.5-10.8c0-0.2-0.3-0.3-0.3-0.1c-0.8,4.1-2.6,8.5-6.4,10.6c-3.4,2-7.8,2.3-11.6,2.3c-4,0-8.3-0.7-11.7-3
					c-3.1-2.1-5.5-5.4-5.7-9.2C28.8,91.1,28.5,91.1,28.5,91.3L28.5,91.3z"/>
			</g>
		</g>
	</g>
	<g>
		<g>
			<g>
				<path class="st0" d="M34.1,59.2c0.2-0.6,0.7-1.1,1.3-1.2c0.2-0.1,0.1-0.4-0.1-0.3c-0.7,0.2-1.3,0.7-1.5,1.4
					C33.7,59.3,34,59.4,34.1,59.2L34.1,59.2z"/>
			</g>
		</g>
	</g>
	<g>
		<g>
			<g>
				<path class="st0" d="M34.6,54.2c0.4-0.5,1-0.7,1.6-0.5c0.2,0.1,0.3-0.2,0.1-0.3c-0.7-0.2-1.5,0-2,0.5
					C34.2,54.1,34.4,54.3,34.6,54.2L34.6,54.2z"/>
			</g>
		</g>
	</g>
	<g>
		<g>
			<g>
				<path class="st0" d="M37.7,50.4c0.3-0.2,0.8,0,0.8,0.4c0,0.2,0.4,0.1,0.3-0.1c-0.1-0.6-0.8-0.9-1.3-0.6
					C37.3,50.3,37.5,50.6,37.7,50.4L37.7,50.4z"/>
			</g>
		</g>
	</g>
	<g>
		<g>
			<g>
				<path class="st0" d="M42.5,68.5c0.6-0.3,1-0.9,1-1.6c0-0.2-0.3-0.2-0.3,0c0,0.5-0.4,1-0.8,1.3C42.1,68.3,42.3,68.6,42.5,68.5
					L42.5,68.5z"/>
			</g>
		</g>
	</g>
	<g>
		<g>
			<g>
				<path class="st0" d="M47.7,68.2c0-0.5,0-1,0-1.4c0-0.2-0.3-0.2-0.3,0c0,0.5,0,1,0,1.4C47.3,68.4,47.7,68.4,47.7,68.2L47.7,68.2z
					"/>
			</g>
		</g>
	</g>
	<g>
		<g>
			<g>
				<path class="st0" d="M55.8,69.7c0.5-0.4,0.9-1,1-1.7c0-0.2-0.3-0.3-0.3-0.1c-0.1,0.6-0.4,1.1-0.9,1.4
					C55.4,69.5,55.6,69.8,55.8,69.7L55.8,69.7z"/>
			</g>
		</g>
	</g>
	<g>
		<g>
			<g>
				<path class="st0" d="M61.2,68.9c0.1-0.5,0.2-1,0.2-1.4c0-0.2-0.3-0.3-0.3-0.1c-0.1,0.5-0.2,1-0.2,1.4
					C60.9,69.1,61.2,69.2,61.2,68.9L61.2,68.9z"/>
			</g>
		</g>
	</g>
	<g>
		<g>
			<g>
				<path class="st0" d="M64.6,66.8c0.4-0.5,0.4-1.1,0-1.6c-0.1-0.2-0.4,0-0.3,0.2c0.3,0.4,0.2,0.9,0,1.3
					C64.2,66.8,64.5,67,64.6,66.8L64.6,66.8z"/>
			</g>
		</g>
	</g>
	<g>
		<g>
			<g>
				<path class="st0" d="M33,66.4c0.6,0.1,1.2,0.2,1.8,0.3c0.2,0,0.3-0.3,0.1-0.3c-0.6-0.1-1.2-0.2-1.8-0.3
					C32.8,66,32.7,66.4,33,66.4L33,66.4z"/>
			</g>
		</g>
	</g>
	<g>
		<g>
			<g>
				<path class="st0" d="M33.5,67.9c0.2-0.1,0.4-0.2,0.6-0.1c0.2,0.1,0.3-0.3,0.1-0.3c-0.3-0.1-0.7,0-0.9,0.2
					C33.1,67.8,33.3,68.1,33.5,67.9L33.5,67.9z"/>
			</g>
		</g>
	</g>
	<g>
		<g>
			<g>
				<path class="st0" d="M38.7,102c0,0.7-0.2,1.3-0.4,1.9c-0.1,0.2,0.2,0.4,0.3,0.2c0.3-0.7,0.5-1.4,0.5-2.1
					C39.1,101.8,38.7,101.8,38.7,102L38.7,102z"/>
			</g>
		</g>
	</g>
	<g>
		<g>
			<g>
				<path class="st0" d="M40,102.5c-0.2,0.3-0.1,0.7,0.1,1c0.1,0.2,0.4-0.1,0.2-0.2s-0.1-0.4-0.1-0.5
					C40.4,102.5,40.1,102.3,40,102.5L40,102.5z"/>
			</g>
		</g>
	</g>
	<g>
		<g>
			<g>
				<path class="st0" d="M65,106.7c0.7-0.1,1.3-0.2,1.9-0.6c0.2-0.1,0-0.4-0.2-0.3c-0.5,0.3-1.1,0.5-1.7,0.6
					C64.8,106.4,64.8,106.8,65,106.7L65,106.7z"/>
			</g>
		</g>
	</g>
	<g>
		<g>
			<g>
				<path class="st0" d="M65.7,107.9c0.4-0.2,0.8-0.5,1.3-0.7c0.2-0.1,0-0.4-0.2-0.3c-0.4,0.2-0.8,0.5-1.3,0.7
					C65.3,107.7,65.5,108,65.7,107.9L65.7,107.9z"/>
			</g>
		</g>
	</g>
	<g>
		<path class="st0" d="M46,65.5c-4.4,0-8.3-3.1-9-7.4c-0.4-2.3,0.2-4.7,1.7-6.6c1.5-1.9,3.6-3.2,6-3.6c5-0.8,9.8,2.4,10.6,7.3
			c0.8,4.8-2.7,9.4-7.7,10.3C47.1,65.5,46.6,65.5,46,65.5z M44.8,48l0,0.2c-2.3,0.4-4.4,1.6-5.8,3.5c-1.4,1.9-2,4.1-1.6,6.3
			c0.8,4.6,5.3,7.7,10.1,7c4.8-0.8,8.1-5.2,7.4-9.8c-0.8-4.6-5.3-7.7-10.1-7L44.8,48z"/>
	</g>
	<g>
		<g>
			<g>
				<path class="st0" d="M37,118.3c-2.5,1.1-2.9,4.3-0.8,6c0.7,0.5,1.4,0.9,2.2,1.3c0.7,0.5,1.4,1,2.1,1.4c1.1,0.6,2.3,0.8,3.4,0.1
					c0.2-0.1,0-0.4-0.2-0.3c-2.1,1.2-4.3-1.1-6.1-2.1c-1.1-0.6-2.1-1.4-2.4-2.7c-0.3-1.5,0.6-2.9,2-3.6
					C37.3,118.5,37.1,118.2,37,118.3L37,118.3z"/>
			</g>
		</g>
	</g>
	<g>
		<g>
			<g>
				<path class="st0" d="M54.2,118c-1.2,1.7-2.2,4.3,0.3,5.2c1.6,0.6,3.2,1.2,4.9,1.5c1.2,0.2,2.3,0.2,3.3-0.4
					c0.2-0.1,0-0.4-0.2-0.3c-1.8,1.2-4.2,0.1-6.1-0.5c-0.5-0.2-1-0.3-1.4-0.5c-0.8-0.2-1.1-0.4-1.5-1.1c-0.6-1.3,0.2-2.7,0.9-3.7
					C54.6,118,54.3,117.9,54.2,118L54.2,118z"/>
			</g>
		</g>
	</g>
	<g>
		<g>
			<g>
				<path class="st0" d="M35,118c0.1,0.5,0.3,1.1,0.4,1.6c0.1,0.2,0.4,0.1,0.3-0.1c-0.1-0.5-0.3-1.1-0.4-1.6
					C35.3,117.7,35,117.8,35,118L35,118z"/>
			</g>
		</g>
	</g>
	<g>
		<g>
			<g>
				<path class="st0" d="M52,118.9c0.4,0.4,0.8,0.7,1.2,1.1c0.2,0.1,0.4-0.1,0.2-0.2c-0.4-0.4-0.8-0.7-1.2-1.1
					C52.1,118.4,51.9,118.7,52,118.9L52,118.9z"/>
			</g>
		</g>
	</g>
	<g>
		<g>
			<g>
				<path class="st0" d="M35.5,117.8c0.7-2.2,4.5-1.5,6.1-1.2c0.2,0.1,0.3-0.3,0.1-0.3c-1.8-0.4-5.8-1.1-6.5,1.4
					C35.1,117.9,35.4,118,35.5,117.8L35.5,117.8z"/>
			</g>
		</g>
	</g>
	<g>
		<g>
			<g>
				<path class="st0" d="M51.6,118.7c1.1-2.6,3.9-3.3,6.4-3.9c0.2-0.1,0.1-0.4-0.1-0.3c-2.7,0.6-5.5,1.4-6.7,4.1
					C51.2,118.8,51.5,118.9,51.6,118.7L51.6,118.7z"/>
			</g>
		</g>
	</g>
	<g>
		<g>
			<g>
				<path class="st0" d="M19.9,79.2c0-1.6,1.8-1.9,3-1.2c0.9,0.5,1.4,1.4,2,2.3c0.1,0.2,0.4,0,0.3-0.2c-0.8-1.2-1.7-2.7-3.3-2.8
					c-1.2-0.1-2.2,0.7-2.2,1.9C19.6,79.4,19.9,79.4,19.9,79.2L19.9,79.2z"/>
			</g>
		</g>
	</g>
	<g>
		<g>
			<g>
				<path class="st0" d="M66.2,87.4c0.5-1.8,2.3-5.2,4.6-4.5c0.2,0.1,0.3-0.3,0.1-0.3c-2.6-0.8-4.6,2.7-5.1,4.7
					C65.8,87.5,66.1,87.6,66.2,87.4L66.2,87.4z"/>
			</g>
		</g>
	</g>
	<g>
		<g>
			<g>
				<path class="st0" d="M45.9,118.6c-1.5-2-2.5-4.2-2.9-6.7c-0.2-1.2-0.3-2.5-0.3-3.7c0-0.3,0.4-4.5,1.1-4.2
					c0.2,0.1,0.3-0.2,0.1-0.3c-1.6-0.7-1.6,5.6-1.5,6.4c0.2,3.2,1.4,6.2,3.2,8.7C45.8,118.9,46.1,118.7,45.9,118.6L45.9,118.6z"/>
			</g>
		</g>
	</g>
	<g>
		<g>
			<g>
				<path class="st0" d="M51.6,118.6c0.5-2.8,2.1-5.2,2.4-8c0.2-2.5-0.5-5.1-1.9-7.1c-0.1-0.2-0.4,0-0.3,0.2
					c1.5,2.3,2.2,5.1,1.8,7.8c-0.4,2.5-1.8,4.6-2.3,7.1C51.2,118.7,51.5,118.8,51.6,118.6L51.6,118.6z"/>
			</g>
		</g>
	</g>
	<g>
		<g>
			<g>
				<path class="st0" d="M21.6,108.7c-0.3,1.4-0.1,2.8,0.6,4.1c0.1,0.2,0.4,0,0.3-0.2c-0.7-1.2-0.8-2.5-0.6-3.8
					C21.9,108.6,21.6,108.5,21.6,108.7L21.6,108.7z"/>
			</g>
		</g>
	</g>
	<g>
		<g>
			<g>
				<path class="st0" d="M23.6,110.1c-0.4,1.6,0.1,3.3,1.4,4.4c0.2,0.1,0.4-0.1,0.2-0.2c-1.2-1-1.7-2.6-1.4-4.1
					C24,110,23.6,109.9,23.6,110.1L23.6,110.1z"/>
			</g>
		</g>
	</g>
	<g>
		<g>
			<g>
				<path class="st0" d="M25.4,114.7c0.3-1,0.6-1.9,1-2.9c0.1-0.2-0.3-0.3-0.3-0.1c-0.3,1-0.6,1.9-1,2.9
					C25,114.9,25.3,114.9,25.4,114.7L25.4,114.7z"/>
			</g>
		</g>
	</g>
	<g>
		<g>
			<g>
				<path class="st0" d="M29.3,113.4c-0.1,0.8-0.1,1.7,0.2,2.6c0.1,0.4,0.4,0.8,0.9,0.8c1.5,0.1,1.6-1.6,1.5-2.6
					c0-0.2-0.4-0.2-0.3,0c0.1,0.8,0,2.7-1.3,2.3c-0.5-0.2-0.6-1-0.6-1.5c-0.1-0.5-0.1-1,0-1.5C29.6,113.2,29.3,113.2,29.3,113.4
					L29.3,113.4z"/>
			</g>
		</g>
	</g>
	<g>
		<g>
			<g>
				<path class="st0" d="M68.1,110c0-0.2,0.1-0.4,0.1-0.7c0-0.2-0.3-0.3-0.3-0.1c-0.1,0.5-0.3,1-0.4,1.4c-0.1,0.3-0.3,0.7-0.3,1
					c0,0.4,0.5,0.5,0.7,0.2c0.1-0.2-0.2-0.4-0.3-0.2c0-0.1,0-0.3,0.1-0.4c0-0.1,0-0.1,0.1-0.2c0.1-0.2,0.1-0.4,0.2-0.6
					c0.1-0.4,0.2-0.8,0.4-1.1c-0.1,0-0.2-0.1-0.3-0.1c0,0.2-0.1,0.4-0.1,0.7C67.7,110.2,68,110.2,68.1,110L68.1,110z"/>
			</g>
		</g>
	</g>
	<g>
		<g>
			<g>
				<path class="st0" d="M51.9,103.6c7.6-9.5,9.3-23.1,4.2-34.2c-0.1-0.2-0.4,0-0.3,0.2c5,10.9,3.3,24.4-4.2,33.8
					C51.5,103.6,51.8,103.8,51.9,103.6L51.9,103.6z"/>
			</g>
		</g>
	</g>
	<g>
		<g>
			<g>
				<path class="st0" d="M43.8,103.3c-4.4-11-6.8-23.6-1.2-34.6c0.1-0.2-0.2-0.4-0.3-0.2c-5.6,11.1-3.2,23.8,1.2,34.9
					C43.5,103.6,43.8,103.5,43.8,103.3L43.8,103.3z"/>
			</g>
		</g>
	</g>
	<g>
		<g>
			<g>
				<path class="st0" d="M39.6,99.4c0.5,0.1,1-0.2,1.1-0.7c0.1-0.5-0.2-0.9-0.6-1s-0.9,0.1-1.1,0.5c-0.2,0.4,0,0.9,0.4,1.2
					c0.2,0.1,0.4-0.2,0.2-0.3c-0.5-0.3-0.2-1.2,0.4-1c0.2,0.1,0.5,0.3,0.5,0.5c0,0.4-0.4,0.6-0.7,0.5C39.5,99.1,39.4,99.4,39.6,99.4
					L39.6,99.4z"/>
			</g>
		</g>
	</g>
	<g>
		<g>
			<g>
				<path class="st0" d="M37.4,92.1c-0.2-0.3-0.1-0.7,0.2-1c0.3-0.3,0.8-0.1,1,0.2C39.1,92.1,38,92.7,37.4,92.1
					c-0.1-0.1-0.4,0.1-0.2,0.3c0.4,0.4,1,0.5,1.4,0.2c0.5-0.3,0.5-1,0.2-1.4c-0.3-0.5-0.9-0.7-1.4-0.3c-0.5,0.3-0.6,1-0.3,1.5
					C37.3,92.4,37.6,92.3,37.4,92.1L37.4,92.1z"/>
			</g>
		</g>
	</g>
	<g>
		<g>
			<g>
				<path class="st0" d="M36.9,86.1c-0.2-0.2-0.3-0.4-0.3-0.7c0-0.2,0.2-0.5,0.4-0.6c0.3-0.1,0.7,0.3,0.8,0.5
					c0.1,0.3-0.2,0.7-0.6,0.6c-0.2-0.1-0.3,0.2-0.1,0.3c0.4,0.2,0.9-0.2,1-0.6c0.1-0.5-0.3-1-0.8-1.1c-0.2-0.1-0.4-0.1-0.6,0.1
					c-0.2,0.1-0.3,0.3-0.4,0.5c-0.1,0.4-0.1,0.9,0.3,1.2C36.8,86.4,37.1,86.2,36.9,86.1L36.9,86.1z"/>
			</g>
		</g>
	</g>
	<g>
		<g>
			<g>
				<path class="st0" d="M36.9,80c-0.2-0.2-0.2-0.6-0.1-0.8c0.1-0.1,0.2-0.2,0.3-0.3c0.2-0.1,0.3,0,0.4,0.1c0.2,0.2,0.5,0.7,0.1,1
					c-0.2,0.1-0.5,0.1-0.6-0.2c0-0.2-0.4-0.1-0.3,0.1c0.1,0.5,0.6,0.6,1,0.4c0.5-0.2,0.5-0.8,0.2-1.3c-0.1-0.2-0.4-0.5-0.7-0.5
					c-0.2,0-0.5,0.2-0.6,0.4c-0.3,0.4-0.4,1-0.1,1.4C36.7,80.4,37,80.2,36.9,80L36.9,80z"/>
			</g>
		</g>
	</g>
	<g>
		<g>
			<g>
				<path class="st0" d="M37.9,72.9c-0.2-0.3-0.1-0.7,0.2-0.9c0.3-0.3,0.7-0.1,0.9,0.2C39.4,72.9,38.4,73.5,37.9,72.9
					c-0.1-0.1-0.4,0.2-0.2,0.3c0.4,0.4,1,0.4,1.4,0.1c0.4-0.3,0.5-0.9,0.2-1.3c-0.3-0.4-0.9-0.6-1.3-0.3c-0.4,0.3-0.6,0.9-0.3,1.4
					C37.7,73.2,38,73.1,37.9,72.9L37.9,72.9z"/>
			</g>
		</g>
	</g>
	<g>
		<g>
			<g>
				<path class="st0" d="M56.9,98.8c-0.4-0.3,0.1-0.9,0.4-0.5c0.4,0.4-0.1,0.8-0.5,0.6c-0.2-0.1-0.4,0.2-0.2,0.3
					c0.3,0.2,0.7,0.1,1-0.1c0.3-0.3,0.2-0.8-0.1-1c-0.3-0.2-0.7-0.2-1,0.1c-0.2,0.3-0.2,0.7,0.1,0.9C56.9,99.2,57.1,98.9,56.9,98.8
					L56.9,98.8z"/>
			</g>
		</g>
	</g>
	<g>
		<g>
			<g>
				<path class="st0" d="M58.2,93.8c-0.2-0.2,0.3-0.6,0.5-0.4S58.5,94,58.2,93.8c-0.1-0.1-0.3,0.2-0.1,0.4c0.6,0.4,1.3-0.5,0.8-1
					c-0.2-0.2-0.6-0.1-0.8,0.1c-0.2,0.2-0.3,0.6-0.1,0.8C58.1,94.2,58.3,93.9,58.2,93.8L58.2,93.8z"/>
			</g>
		</g>
	</g>
	<g>
		<g>
			<g>
				<path class="st0" d="M59.6,86.4c0-0.2,0.1-0.3,0.2-0.4c-0.1,0-0.1,0-0.1,0c0.2,0.1,0.5,0.5,0.3,0.7c-0.1,0.1-0.4,0.1-0.3-0.1
					c0-0.2-0.3-0.3-0.3-0.1c-0.1,0.3,0.2,0.5,0.4,0.5c0.3,0,0.6-0.2,0.6-0.5c0.1-0.4-0.2-0.8-0.5-0.9c-0.2-0.1-0.4,0.1-0.5,0.2
					c-0.1,0.1-0.2,0.3-0.2,0.5C59.3,86.6,59.6,86.6,59.6,86.4L59.6,86.4z"/>
			</g>
		</g>
	</g>
	<g>
		<g>
			<g>
				<path class="st0" d="M59.9,79.3c-0.1,0-0.2-0.2-0.1-0.3c0.1-0.1,0.2-0.2,0.3-0.1c0.4,0.1,0.3,0.6,0.1,0.8c0.1,0,0.1,0,0.2-0.1
					c-0.2-0.1-0.3-0.1-0.5-0.1c-0.2-0.1-0.3,0.3-0.1,0.3c0.2,0.1,0.3,0.1,0.5,0.1c0.1,0,0.1,0,0.2-0.1c0.2-0.2,0.4-0.6,0.2-0.9
					c-0.1-0.3-0.4-0.5-0.7-0.5c-0.6,0-0.8,0.9-0.2,1.1C60,79.7,60.1,79.4,59.9,79.3L59.9,79.3z"/>
			</g>
		</g>
	</g>
	<g>
		<g>
			<g>
				<path class="st0" d="M58.5,73.4c-0.1-0.2-0.1-0.4,0-0.6c0.2-0.2,0.4-0.1,0.6,0c0.2,0.2,0.2,0.4,0,0.6
					C58.9,73.5,58.6,73.5,58.5,73.4s-0.4,0.1-0.2,0.2c0.3,0.3,0.7,0.3,1,0c0.3-0.3,0.3-0.8,0-1.1c-0.3-0.3-0.8-0.3-1,0
					c-0.3,0.3-0.3,0.8,0,1.1C58.4,73.8,58.6,73.5,58.5,73.4L58.5,73.4z"/>
			</g>
		</g>
	</g>
	<g>
		<g>
			<g>
				<path class="st0" d="M39.3,68.7c-0.3,0.7-0.6,1.5-0.9,2.2c-0.1,0.2,0.2,0.3,0.3,0.1c0.3-0.7,0.6-1.5,0.9-2.2
					C39.7,68.6,39.4,68.5,39.3,68.7L39.3,68.7z"/>
			</g>
		</g>
	</g>
	<g>
		<g>
			<g>
				<path class="st0" d="M37.9,74.4c-0.2,1-0.4,1.9-0.7,2.9c-0.1,0.2,0.3,0.3,0.3,0.1c0.2-1,0.4-1.9,0.7-2.9
					C38.3,74.2,38,74.1,37.9,74.4L37.9,74.4z"/>
			</g>
		</g>
	</g>
	<g>
		<g>
			<g>
				<path class="st0" d="M36.8,81.2c-0.2,0.8-0.2,1.6-0.2,2.4c0,0.2,0.4,0.2,0.3,0c-0.1-0.8,0-1.5,0.2-2.3
					C37.2,81.1,36.9,81,36.8,81.2L36.8,81.2z"/>
			</g>
		</g>
	</g>
	<g>
		<g>
			<g>
				<path class="st0" d="M36.8,87.7c0.1,0.8,0.2,1.6,0.4,2.4c0,0.2,0.4,0.1,0.3-0.1c0-0.1,0-0.1,0-0.2c0-0.2-0.4-0.2-0.3,0
					c0,0.1,0,0.1,0,0.2c0.1,0,0.2,0,0.3-0.1c-0.1-0.8-0.2-1.6-0.4-2.4C37.1,87.4,36.8,87.5,36.8,87.7L36.8,87.7z"/>
			</g>
		</g>
	</g>
	<g>
		<g>
			<g>
				<path class="st0" d="M38,93.2c0.2,1.3,0.4,2.6,0.8,3.8c0.1,0.2,0.4,0.1,0.3-0.1c-0.4-1.2-0.6-2.5-0.8-3.7C38.3,93,38,93,38,93.2
					L38,93.2z"/>
			</g>
		</g>
	</g>
	<g>
		<g>
			<g>
				<path class="st0" d="M40.3,100.2c0.1,0.7,0.4,1.3,0.7,1.8c0.1,0.2,0.4,0,0.3-0.2c-0.3-0.5-0.6-1.1-0.7-1.8
					C40.5,99.8,40.2,99.9,40.3,100.2L40.3,100.2z"/>
			</g>
		</g>
	</g>
	<g>
		<g>
			<g>
				<path class="st0" d="M57.6,70.7c0.1,0.4,0.1,0.7,0.2,1.1c0,0.2,0.4,0.1,0.3-0.1c-0.1-0.4-0.1-0.7-0.2-1.1
					C57.9,70.3,57.6,70.4,57.6,70.7L57.6,70.7z"/>
			</g>
		</g>
	</g>
	<g>
		<g>
			<g>
				<path class="st0" d="M58.9,74.5c0.2,1,0.4,2.1,0.7,3.1c0.1,0.2,0.4,0.1,0.3-0.1c-0.2-1-0.4-2.1-0.7-3.1
					C59.2,74.2,58.8,74.2,58.9,74.5L58.9,74.5z"/>
			</g>
		</g>
	</g>
	<g>
		<g>
			<g>
				<path class="st0" d="M59.9,80.5c-0.1,1.6-0.2,3.2-0.4,4.7c0,0.2,0.3,0.2,0.3,0c0.1-1.6,0.2-3.2,0.4-4.7
					C60.3,80.3,59.9,80.3,59.9,80.5L59.9,80.5z"/>
			</g>
		</g>
	</g>
	<g>
		<g>
			<g>
				<path class="st0" d="M59.3,88.9c-0.3,1.2-0.5,2.5-0.8,3.8c-0.1,0.2,0.3,0.3,0.3,0.1c0.3-1.2,0.5-2.5,0.8-3.8
					C59.7,88.7,59.4,88.6,59.3,88.9L59.3,88.9z"/>
			</g>
		</g>
	</g>
	<g>
		<g>
			<g>
				<path class="st0" d="M57.3,95.4c0.1,0.6,0,1.2-0.4,1.7c-0.1,0.2,0.2,0.4,0.3,0.2c0.4-0.6,0.5-1.2,0.4-2
					C57.6,95.1,57.3,95.2,57.3,95.4L57.3,95.4z"/>
			</g>
		</g>
	</g>
	<g>
		<g>
			<g>
				<path class="st0" d="M56,100.7c0,0.4-0.1,0.7-0.3,1c0.1,0.1,0.2,0.1,0.3,0.2c0.1-0.2,0.2-0.3,0.3-0.5c0.1-0.2-0.2-0.4-0.3-0.2
					c-0.1,0.2-0.2,0.3-0.3,0.5c-0.1,0.2,0.2,0.4,0.3,0.2c0.2-0.3,0.4-0.7,0.4-1.1C56.4,100.4,56,100.4,56,100.7L56,100.7z"/>
			</g>
		</g>
	</g>
	<g>
		<g>
			<g>
				<path class="st0" d="M34.6,116c2.6-1.6,5.5-2,8.4-1.2c0.2,0.1,0.2-0.1,0.2-0.2c-1.1-2.6-5.7-1.2-7.7-0.8
					c-0.4,0.1-1.2,0.4-1.5,0.3c0.1-0.5,0.1-0.9,0.2-1.4c0.3-0.2,0.6-0.3,0.9-0.4c0.9-0.3,1.9-0.2,2.8-0.1c1.1,0.1,3.4,0.9,4.4,0
					c0.4-0.4,0.4-0.9,0-1.2c-0.2-0.2-0.6-0.2-0.9-0.3c-1.1-0.2-2.3-0.2-3.5-0.1c-0.7,0-1.4,0.1-2,0.2c-0.5,0.1-1,0.2-1.5,0.3
					c-0.4,0.1-1.2,0.5-1.6,0.4c-1.6-0.5,0.3-1.5,0.6-1.7c0.5-0.2,1-0.4,1.5-0.5c1.2-0.2,2.4-0.1,3.5,0.1c0.9,0.1,2.8,1,3.7,0.4
					c0.8-0.5,0.4-1.4-0.2-1.8c-1-0.7-2.4-0.7-3.6-0.6c-0.8,0.1-1.7,0.2-2.5,0.4c-0.9,0.2-2,0.7-3,0.8c-0.2,0.1-0.3,0.1-0.5,0.2
					c-0.8-0.8-0.8-1.4-0.1-1.7c0.4-0.3,1.1-0.5,1.5-0.6c0.8-0.2,1.7-0.2,2.6-0.2c1,0.1,2,0.2,3,0.5c0.7,0.2,1.7,0.5,2.4,0.2
					c0.5-0.2,1-0.9,0.8-1.5c-0.3-1-2-0.8-2.7-0.8c-2.2,0-4.4,0.3-6.5-0.2c-1.1-0.2-2.2-0.7-3-1.4c-0.3-0.3-0.7-0.6-0.8-1
					c-0.7-1.9,1.1-1.6,2-1.3c2,0.7,3.7,2,5.6,2.6c1.8,0.7,3.7,0.9,5.7,0.5c0.2-0.1,0.1-0.4-0.1-0.3c-2.3,0.5-4.6-0.1-6.8-1
					c-1.7-0.8-3.3-2-5.2-2.4c-0.8-0.1-1.7-0.1-1.8,0.8c-0.1,1,0.9,2,1.6,2.6c2.9,2.2,6.6,1.3,9.9,1.4c0.2,0,0.3,0,0.5,0
					c1.4-0.1,1.2,0.5-0.5,1.6c-0.4,0-1-0.2-1.3-0.3c-0.6-0.1-1.2-0.2-1.8-0.3c-1.6-0.2-3.3-0.1-4.8,0.6c-0.7,0.3-1.9,1-1.6,2
					c0.3,1.2,1.8,0.4,2.6,0.2c2-0.6,4.2-1.1,6.2-1c0.5,0,2,0.2,2.2,0.7c-0.2,0.4-0.4,0.8-0.6,1.2c-0.4-0.1-0.9-0.1-1.3-0.2
					c-1-0.2-2-0.4-3-0.5c-1.4-0.1-2.9,0.1-4.1,0.8c-0.5,0.3-1.5,1-1,1.8c0.5,0.8,2,0.1,2.6,0c1.1-0.2,2.3-0.4,3.4-0.5
					c0.5,0,1,0,1.5,0c0.4,0,1.9-0.1,2.2,0.2c-0.1,0.4-0.2,0.7-0.3,1.1c-0.3,0-0.7,0-1,0c-0.7-0.1-1.3-0.2-1.9-0.2
					c-0.9-0.1-1.8-0.2-2.7-0.1c-0.8,0.1-2.7,0.7-2.6,1.8c0.2,2.2,8.5-2.3,9.9,1c0.1-0.1,0.1-0.2,0.2-0.2c-3-0.8-6.1-0.4-8.7,1.2
					C34.2,115.8,34.4,116.1,34.6,116L34.6,116z"/>
			</g>
		</g>
	</g>
	<g>
		<g>
			<g>
				<path class="st0" d="M52.3,116.2c0-0.3,0.6-0.9,0.8-1c0.3-0.2,0.7-0.3,1-0.5c0.5-0.2,1.1-0.4,1.7-0.6c1.1-0.4,2.3-0.6,3.6-0.5
					c1.4,0.1,3.3,1.6,4.8,0.7c0.7-0.5,0.8-1.4,0.2-2c-1-1-3.2-1.1-4.5-1c-0.9,0.1-1.7,0.2-2.5,0.5c-0.7,0.2-2.2,1.1-3,0.8
					c-0.1-0.1-0.2-0.2-0.2-0.4c-0.3-0.2-0.4-0.4-0.1-0.5c0.1-0.1,0.4-0.2,0.5-0.3c0.5-0.2,1-0.5,1.4-0.6c1-0.4,2.1-0.5,3.2-0.6
					c1.8-0.1,3.5,0.4,5.3,0.7c0.7,0.1,1.8,0,1.6-1c-0.2-1.1-2.1-1.3-2.9-1.4c-1.9-0.2-3.8,0.1-5.6,0.4c-0.6,0.1-1.1,0.2-1.7,0.3
					c-0.7,0.1-0.7,0.3-0.9-0.4c-0.3-0.8,0-0.7,0.7-0.9c1.2-0.4,2.5-0.6,3.7-0.6c1.8,0.1,3.8,1,5.6,0.6c0.6-0.1,1.6-0.7,1.2-1.5
					c-0.2-0.4-0.5-0.4-0.8-0.4c-1-0.2-2-0.2-2.9-0.2c-2-0.1-4.1-0.1-6.1,0.3c-0.5,0.1-0.9,0.2-1.4,0.4c0,0-0.5,0.2-0.6,0.2
					c0-0.2,0-0.4,0.1-0.6c-0.2-0.4-0.1-0.6,0.3-0.7c0.8-0.5,2.7-0.4,3.7-0.4c2.2,0,4.5,0.3,6.7-0.4c0.5-0.2,1.7-0.8,1.1-1.5
					c-0.5-0.5-1.8-0.3-2.4-0.3c-1.1,0-2.2,0.1-3.3,0.3c-2.6,0.4-5.4,1.8-8,0.9c0,0.1,0,0.2,0,0.3c2.3-1.4,5.2-1.5,7.8-1.9
					c1.4-0.2,2.7-0.4,4.1-0.6c0.5-0.1,1.2-0.1,1.5-0.6c0.5-1.1-1.2-1.8-2-1.8c-2-0.2-3.6,1.2-5.5,1.6c0.1,0.1,0.1,0.2,0.2,0.3
					c1.1-1.2,2.4-2.2,4-2.9c0.8-0.3,2.1-0.5,2.6-1.2c0.3-0.5,0.2-1-0.2-1.3c-0.8-0.8-1.9-0.1-2.6,0.5c-0.2,0.1,0,0.4,0.2,0.3
					s0.3-0.3,0.5-0.4c0.5-0.4,1-0.1,1.4,1.1c-0.2,0.2-0.8,0.3-1.1,0.4c-0.6,0.2-1.2,0.4-1.8,0.7c-1.2,0.7-2.3,1.5-3.3,2.6
					c-0.1,0.1,0,0.3,0.2,0.3c1.5-0.3,2.8-1.3,4.3-1.5c0.5-0.1,1.2-0.1,1.7,0.1c0.6,0.2,1.4,1,0.5,1.5c-0.7,0.4-2,0.3-2.7,0.4
					c-3.3,0.5-7,0.5-9.9,2.2c-0.1,0.1-0.1,0.3,0,0.3c2.6,1,5.5-0.5,8.2-0.9c0.8-0.1,1.6-0.2,2.4-0.2c0.8,0,1.8-0.3,2.3,0.5
					c0.5,0.8-0.2,0.7-0.9,0.8c-0.4,0.1-0.9,0.1-1.4,0.2c-0.8,0.1-1.6,0.1-2.4,0.1c-1.4,0-2.9-0.1-4.3,0.1c-0.9,0.1-2.2,0.2-2.8,0.9
					c-0.2,0.3-0.4,0.7-0.1,1c0.4,0.6,1.4,0.1,2,0c1.5-0.5,3.1-0.7,4.7-0.7c0.7,0,1.5,0,2.2,0.1c0.2,0,2.6,0,2.7,0.2
					c-0.1,0.2-0.1,0.5-0.2,0.7c0.1,0.6-0.1,0.8-0.6,0.7c-0.2,0.1-1.4-0.2-1.3-0.1c-0.7-0.1-1.4-0.3-2.1-0.4
					c-1.2-0.2-2.5-0.2-3.7,0.1c-0.6,0.1-4.2,1-2.8,2.3c0.5,0.5,1.5,0.2,2.1,0.1c1.7-0.3,3.3-0.7,5-0.8c0.9,0,1.9,0,2.8,0.2
					c0.8,0.2,1.1,0.1,1.2,1c0.1,1-0.5,0.6-1.2,0.5c-1.3-0.3-2.6-0.5-4-0.6c-2.6-0.1-5,0.6-7.1,2.2c-0.1,0.1-0.1,0.2,0,0.2
					c1.2,1,2.6,0.3,3.9-0.2c1.3-0.5,2.6-0.7,4-0.6c0.7,0.1,1.5,0.2,2.2,0.4c1.2,0.2,1.1,1-0.1,2.2c-0.4,0-0.8-0.1-1.1-0.2
					c-1-0.4-1.9-0.7-3-0.7c-1.1,0-2.1,0.2-3.2,0.6c-1.1,0.4-3.7,0.9-3.7,2.4C52,116.4,52.3,116.4,52.3,116.2L52.3,116.2z"/>
			</g>
		</g>
	</g>
	<g>
		<g>
			<g>
				<path class="st0" d="M20.7,107.1c-0.1-0.2-0.1-0.4,0.1-0.6c0.2-0.2,0.5-0.1,0.7,0.1s0.1,0.6-0.3,0.6c-0.3,0-0.2-0.4,0-0.4
					c0.2,0.1,0.3-0.2,0.1-0.3c-0.5-0.2-0.8,0.5-0.5,0.8c0.4,0.4,1,0,1.1-0.5c0.1-0.5-0.5-1-1.1-0.8c-0.5,0.2-0.7,0.8-0.4,1.2
					C20.6,107.5,20.8,107.3,20.7,107.1L20.7,107.1z"/>
			</g>
		</g>
	</g>
	<g>
		<g>
			<g>
				<path class="st0" d="M25,110.8c0.1-0.4,0.4-0.7,0.8-0.7c-0.1,0-0.1-0.1-0.1-0.1c0.1,0.1,0.3,0.4,0.2,0.6c0,0.1-0.1,0.1-0.1,0.1
					c0,0-0.1,0-0.1-0.1c0.1-0.2-0.2-0.4-0.3-0.2c-0.1,0.3,0.1,0.5,0.4,0.5c0.4,0,0.6-0.3,0.5-0.7c0-0.2-0.1-0.4-0.3-0.5
					c-0.1-0.1-0.4-0.1-0.5,0c-0.4,0.1-0.7,0.5-0.7,0.8C24.6,110.9,25,111.1,25,110.8L25,110.8z"/>
			</g>
		</g>
	</g>
	<g>
		<g>
			<g>
				<path class="st0" d="M30.5,112.9c0-0.2,0.3-0.4,0.5-0.2c0.2,0.2-0.2,0.5-0.4,0.4c0,0.1,0,0.2,0.1,0.2c0.1-0.2,0.2-0.3,0.3-0.5
					c0.1-0.2-0.2-0.4-0.3-0.2c-0.1,0.2-0.2,0.3-0.3,0.5c-0.1,0.1,0,0.2,0.1,0.2c0.5,0.3,1.2-0.4,0.8-0.9c-0.2-0.2-0.5-0.2-0.7-0.1
					s-0.4,0.4-0.4,0.6C30.2,113.2,30.5,113.2,30.5,112.9L30.5,112.9z"/>
			</g>
		</g>
	</g>
	<g>
		<g>
			<g>
				<path class="st0" d="M36.1,123.6c-0.1-1.5,0.4-2.8,1.4-3.9c0.1-0.2-0.1-0.4-0.2-0.2c-1.1,1.1-1.5,2.6-1.4,4.1
					C35.7,123.9,36.1,123.9,36.1,123.6L36.1,123.6z"/>
			</g>
		</g>
	</g>
	<g>
		<g>
			<g>
				<path class="st0" d="M37.5,124.9c-0.2-1.1,0.1-2.1,0.8-2.9c0.1-0.2-0.1-0.4-0.2-0.2c-0.8,0.9-1.1,2-0.9,3.2
					C37.2,125.2,37.6,125.1,37.5,124.9L37.5,124.9z"/>
			</g>
		</g>
	</g>
	<g>
		<g>
			<g>
				<path class="st0" d="M39.1,125.7c-0.4-0.5-0.1-1.3,0.5-1.5c0.2-0.1,0.1-0.4-0.1-0.3c-0.9,0.2-1.2,1.4-0.6,2
					C39,126.1,39.2,125.9,39.1,125.7L39.1,125.7z"/>
			</g>
		</g>
	</g>
	<g>
		<g>
			<g>
				<path class="st0" d="M55.5,123.2c-0.5-1.2-0.4-2.4,0.1-3.5c0.1-0.2-0.2-0.4-0.3-0.2c-0.6,1.2-0.7,2.5-0.2,3.7
					C55.3,123.5,55.6,123.4,55.5,123.2L55.5,123.2z"/>
			</g>
		</g>
	</g>
	<g>
		<g>
			<g>
				<path class="st0" d="M58,124.2c-0.5-0.7-0.5-1.6,0.1-2.3c0.1-0.2-0.1-0.4-0.2-0.2c-0.7,0.8-0.7,1.9-0.1,2.7
					C57.9,124.6,58.1,124.4,58,124.2L58,124.2z"/>
			</g>
		</g>
	</g>
	<g>
		<g>
			<g>
				<path class="st0" d="M31.1,53.9c-1.5-2.8-2.4-7.4,1.4-8.9c0.2-0.1,0.1-0.4-0.1-0.3c-4,1.6-3.3,6.4-1.6,9.4
					C31,54.3,31.2,54.1,31.1,53.9L31.1,53.9z"/>
			</g>
		</g>
	</g>
	<g>
		<g>
			<g>
				<path class="st0" d="M51.1,49c-0.8-1.7-1.8-4.7,0.6-5.7c0.2-0.1,0.1-0.4-0.1-0.3c-2.6,1.1-1.7,4.2-0.8,6.2
					C50.9,49.4,51.2,49.2,51.1,49L51.1,49z"/>
			</g>
		</g>
	</g>
	<g>
		<g>
			<g>
				<path class="st0" d="M32.6,53.2c-0.6-0.9-1.2-2-1.2-3.2c0-1.4,1-2.6,2.4-2.6c0.2,0,0.2-0.3,0-0.3c-1.2,0-2.2,0.8-2.6,1.9
					c-0.5,1.5,0.2,3.1,1.1,4.4C32.4,53.5,32.7,53.4,32.6,53.2L32.6,53.2z"/>
			</g>
		</g>
	</g>
	<g>
		<g>
			<g>
				<path class="st0" d="M35.3,47.7c0.8,0.2,1.3,0.8,1.5,1.5c0,0.2,0.4,0.1,0.3-0.1c-0.2-0.9-0.8-1.6-1.7-1.8
					C35.2,47.4,35.1,47.7,35.3,47.7L35.3,47.7z"/>
			</g>
		</g>
	</g>
	<g>
		<g>
			<g>
				<path class="st0" d="M52.9,49c-1.1-1.8,0-3.9,2-4.2c0.2,0,0.1-0.4-0.1-0.3c-2.3,0.4-3.4,2.8-2.2,4.7C52.7,49.3,53,49.1,52.9,49
					L52.9,49z"/>
			</g>
		</g>
	</g>
	<g>
		<g>
			<g>
				<path class="st0" d="M54,48.8c-0.1-0.7-0.1-1.6,0.5-2.1c0.6-0.5,1.6-0.6,2,0.2c0.4,0.8-0.2,1.4-1,1.5c-0.5,0.1-1.1-0.2-0.9-0.8
					c0.1-0.3,0.4-0.4,0.7-0.4c0.4,0.1,0.2,0.6,0,0.3c-0.1-0.2-0.4,0-0.3,0.2c0.4,0.6,1.5-0.1,0.8-0.6c-0.8-0.6-1.8,0.2-1.4,1.1
					c0.4,1,2,0.5,2.4-0.3c0.5-1-0.4-2-1.4-2c-1.5,0.1-2.1,1.7-1.8,3C53.7,49.1,54,49,54,48.8L54,48.8z"/>
			</g>
		</g>
	</g>
	<g>
		<g>
			<g>
				<path class="st0" d="M33.5,52.4c-0.6-1.1-1-2.9,0.4-3.6c0.7-0.3,1.6,0,1.7,0.8c0.1,0.4-0.1,0.8-0.4,1c-0.2,0.1-0.4,0.2-0.7,0.1
					c-0.6-0.2-0.6-0.4-0.1-0.6c-0.2,0.1-0.1,0.4,0.1,0.3c1.1-0.3-0.1-1.9-0.8-0.8c-0.7,1.2,1.3,1.8,2,0.9c0.9-1.2-0.6-2.5-1.8-2.2
					c-1.9,0.5-1.5,2.9-0.8,4.2C33.3,52.8,33.6,52.6,33.5,52.4L33.5,52.4z"/>
			</g>
		</g>
	</g>
	<g>
		<g>
			<g>
				<path class="st0" d="M32.5,95.2c-0.9-2.3-1.4-4.8-1.3-7.3c0-1.2,0.2-2.5,0.5-3.7c0.2-0.8,0.8-4.2,2.2-2.9
					c0.3,0.3,0.3,1.5,0.4,1.9c0.1,0.7,0.1,1.3,0.1,1.9c0,1.1,0,2.3-0.1,3.5c-0.1,1.2-0.1,2.4-0.2,3.6c0,0.7-0.1,1.4-0.1,2
					c0,0.4,0,0.7-0.1,1.1c-1,0.4-1.4,0.3-1.5-0.4c-0.1-0.2-0.4-0.1-0.3,0.1c0.2,0.7,0.7,1.7,1.6,1.2c0.8-0.4,0.7-1.8,0.7-2.6
					c0.2-3.9,0.8-8.2-0.1-12c-0.2-0.7-0.4-1.7-1.4-1.2c-1.1,0.6-1.5,3.1-1.7,4.1c-0.7,3.6-0.4,7.3,0.9,10.7
					C32.3,95.5,32.6,95.4,32.5,95.2L32.5,95.2z"/>
			</g>
		</g>
	</g>
	<g>
		<g>
			<g>
				<path class="st0" d="M33.4,97.7c-0.2,0.4-0.3,1.1,0.3,1.3c0.4,0.1,0.8,0,1-0.2c0.3-0.3,0.2-0.8-0.1-1.1
					c-0.3-0.3-0.8-0.4-1.2-0.2c-0.2,0.1,0,0.4,0.2,0.3c0.3-0.1,0.6-0.1,0.8,0.1c0.2,0.2,0.3,0.5,0.1,0.7c-0.1,0.1-0.4,0.2-0.6,0.2
					c-0.4-0.1-0.2-0.6-0.1-0.9C33.8,97.6,33.5,97.6,33.4,97.7L33.4,97.7z"/>
			</g>
		</g>
	</g>
	<g>
		<g>
			<g>
				<path class="st0" d="M77.7,42.6c0.5-0.5,1.2-0.6,1.9-0.4c0.2,0.1,0.3-0.2,0.1-0.3c-0.8-0.3-1.6-0.1-2.2,0.5
					C77.3,42.5,77.6,42.7,77.7,42.6L77.7,42.6z"/>
			</g>
		</g>
	</g>
	<g>
		<g>
			<g>
				<path class="st0" d="M17.2,100.1c-0.4-1.3,1.9-1,2.6-1.1c0.2,0,0.1-0.4-0.1-0.3c-0.8,0.1-1.6-0.1-2.3,0.3
					c-0.4,0.3-0.7,0.7-0.5,1.2C16.9,100.4,17.3,100.3,17.2,100.1L17.2,100.1z"/>
			</g>
		</g>
	</g>
	<g>
		<g>
			<g>
				<path class="st0" d="M24.6,80.3c1.5,1.2,1,3.5-0.8,3.9c-0.2,0.1-0.1,0.3,0.1,0.3c1.2,0,2.9-0.2,3.2-1.6c0.4-1.2-0.8-2.2-1.8-2.8
					c-0.2-0.1-0.4,0.2-0.2,0.3c0.8,0.5,1.9,1.3,1.6,2.4c-0.3,1.2-1.8,1.4-2.9,1.4c0,0.1,0,0.2,0.1,0.3c2.1-0.5,2.7-3.1,1-4.5
					C24.7,79.9,24.4,80.1,24.6,80.3L24.6,80.3z"/>
			</g>
		</g>
	</g>
	<g>
		<g>
			<g>
				<path class="st0" d="M66.8,85.8c-0.4,0.7-0.7,1.7-0.2,2.4c0.4,0.6,1.2,0.8,1.9,0.5c0.1-0.1,0.1-0.2,0-0.3
					c-1.2-1.1-1.2-3.2,0.1-4.2c0.2-0.1-0.1-0.4-0.2-0.2c-1.4,1.2-1.5,3.5-0.1,4.7c0-0.1,0-0.2,0-0.3c-0.7,0.4-1.4-0.1-1.6-0.8
					c-0.2-0.6,0.1-1.2,0.4-1.7C67.2,85.8,67,85.6,66.8,85.8L66.8,85.8z"/>
			</g>
		</g>
	</g>
	<g>
		<g>
			<g>
				<path class="st0" d="M44.9,117.7c2.2,0.2,4.4,0.1,6.5-0.4c0.2,0,0.1-0.4-0.1-0.3c-2.1,0.4-4.3,0.5-6.5,0.3
					C44.7,117.4,44.7,117.7,44.9,117.7L44.9,117.7z"/>
			</g>
		</g>
	</g>
	<g>
		<g>
			<g>
				<path class="st0" d="M42.2,125.6c0-0.3,0.4-0.5,0.7-0.5c0.2,0,0.3,0.2,0.2,0.4c-0.2,0.2-0.6,0.1-0.7-0.2c0-0.2-0.4-0.2-0.3,0
					c0.1,0.4,0.4,0.8,0.9,0.7c0.4-0.1,0.8-0.6,0.4-0.9c-0.5-0.5-1.5-0.1-1.5,0.6C41.9,125.9,42.2,125.9,42.2,125.6L42.2,125.6z"/>
			</g>
		</g>
	</g>
	<g>
		<g>
			<g>
				<path class="st0" d="M45.3,125.2c-0.1-0.2,0.2-0.5,0.4-0.3C45.8,125,45.4,125.3,45.3,125.2c-0.2-0.2-0.4,0-0.3,0.2
					c0.4,0.5,1.3-0.2,0.9-0.7c-0.4-0.5-1.3,0.2-1,0.7C45.1,125.5,45.4,125.3,45.3,125.2L45.3,125.2z"/>
			</g>
		</g>
	</g>
	<g>
		<g>
			<g>
				<path class="st0" d="M61.3,123.3c0.1-0.2,0.2-0.5,0.5-0.6c0.2-0.1,0.6,0,0.5,0.3c0.1-0.1,0.1-0.1,0.2-0.1
					c-0.4,0-0.8,0.1-1.2,0.1C61,123,61,123.4,61.3,123.3c0.3,0,0.7-0.1,1.1-0.1c0.1,0,0.1-0.1,0.2-0.1c0.1-0.4-0.2-0.8-0.6-0.8
					c-0.5,0-0.8,0.4-1,0.8C60.9,123.4,61.2,123.5,61.3,123.3L61.3,123.3z"/>
			</g>
		</g>
	</g>
	<g>
		<g>
			<g>
				<path class="st0" d="M64,122.5c-0.1-0.2,0.1-0.7,0.4-0.7c0.2,0,0.4,0.4,0.2,0.5c0.1,0,0.1,0,0.2,0c-0.2-0.1-0.3-0.2-0.5-0.3
					c-0.2-0.1-0.4,0.2-0.2,0.3c0.2,0.1,0.3,0.2,0.5,0.3c0.1,0,0.1,0,0.2,0c0.4-0.3,0.2-1-0.2-1.1c-0.6-0.2-1,0.5-0.8,1.1
					C63.7,122.8,64,122.7,64,122.5L64,122.5z"/>
			</g>
		</g>
	</g>
	<g>
		<g>
			<g>
				<path class="st0" d="M21.6,79.4c-0.2-0.2-0.6-0.2-0.8-0.1c-0.1,0.1-0.2,0.2-0.2,0.4s0.1,0.3,0.2,0.4c0.5,0.4,1.2,0.2,1.4-0.4
					c0-0.1,0-0.1-0.1-0.2c-0.2-0.1-0.4-0.3-0.5-0.4c-0.2-0.1-0.4,0.2-0.2,0.3c0.2,0.1,0.4,0.3,0.5,0.4c0-0.1-0.1-0.1-0.1-0.2
					c-0.2,0.4-0.8,0.4-1,0.1c0,0.1,0,0.1,0,0.2c0.1-0.2,0.4-0.3,0.5-0.1C21.5,79.7,21.7,79.5,21.6,79.4L21.6,79.4z"/>
			</g>
		</g>
	</g>
	<g>
		<g>
			<g>
				<path class="st0" d="M71.8,85.3c-0.3-0.1-0.7,0.1-0.9,0.4c-0.1,0.1-0.2,0.3-0.1,0.5c0.1,0.1,0.3,0.2,0.4,0.2
					c0.3,0,0.7-0.1,0.8-0.5s0-0.7-0.3-0.9c-0.2-0.1-0.4,0.2-0.2,0.3c0.2,0.1,0.2,0.4,0.1,0.6s-0.4,0.2-0.6,0c0,0.1,0.1,0.1,0.1,0.1
					c0-0.3,0.3-0.5,0.5-0.4C71.9,85.7,72,85.4,71.8,85.3L71.8,85.3z"/>
			</g>
		</g>
	</g>
	<g>
		<g>
			<g>
				<path class="st0" d="M69,111c1.5-0.1,3-0.1,4.5-0.2c0.2,0,0.2-0.4,0-0.3c-1.5,0.1-3,0.1-4.5,0.2C68.8,110.7,68.8,111.1,69,111
					L69,111z"/>
			</g>
		</g>
	</g>
	<g>
		<g>
			<g>
				<path class="st0" d="M12.7,112.3c2.8-0.2,5.7-0.3,8.5-0.2c0.2,0,0.2-0.3,0-0.3c-2.8-0.1-5.7,0-8.5,0.2
					C12.5,111.9,12.5,112.3,12.7,112.3L12.7,112.3z"/>
			</g>
		</g>
	</g>
	<g>
		<g>
			<g>
				<path class="st0" d="M55.4,42.4c-0.1-2.7-0.3-5.5-0.7-8.2c-0.4-2.8-1.8-6.3-0.4-8.9c1.2-2.1,3.8-2.9,6-3.4
					c3-0.7,6.1-1.2,9.2-1.5c11.5-1.2,23.2-0.8,34.7-0.3c2.9,0.1,5.8,0.3,8.7,0.6c3.2,0.3,6.2,0.8,7.5,4.1c2,5.2,2.9,11,3.4,16.5
					c0.6,5.7,0.7,11.4,0.7,17c0,1.4,0,2.7,0,4.1c0,1.4,0.2,3-0.1,4.4c-0.4,1.6-2.3,2-3.7,2.4c-1.4,0.5-2.9,0.9-4.4,1.3
					c-6.2,1.7-12.6,2.6-19,2.7c-6.6,0.2-13.2-0.8-19.8,0c-0.2,0-0.2,0.4,0,0.3c6.4-0.7,12.8,0.2,19.3,0.1c6.1-0.1,12.2-0.9,18.1-2.4
					c2.7-0.7,5.5-1.3,8-2.4c2.3-1,1.8-3.5,1.9-5.7c0.1-6.2,0.1-12.4-0.4-18.6c-0.4-6.1-1.3-12.1-3.1-18c-0.7-2.2-1.4-4.3-3.6-5.3
					c-2.3-1-5.1-1-7.5-1.2c-6.5-0.5-13-0.6-19.6-0.7c-6.4-0.1-12.8-0.1-19.2,0.5c-3.4,0.3-6.7,0.8-10.1,1.4c-2.3,0.5-5,1-6.7,2.8
					c-1.9,2-1.5,4.8-1,7.3c0.7,3.7,1.2,7.4,1.2,11.1C55,42.6,55.4,42.6,55.4,42.4L55.4,42.4z"/>
			</g>
		</g>
	</g>
	<g>
		<g>
			<g>
				<path class="st0" d="M65.2,73.7c1.4,0.4,2.7,0.5,4.1,0.4c1.7-0.2,3.2-0.9,4.9-0.5c0.2,0.1,0.3-0.3,0.1-0.3
					c-1.2-0.3-2.4-0.1-3.6,0.2c-1.8,0.4-3.6,0.4-5.4-0.1C65.1,73.3,65,73.6,65.2,73.7L65.2,73.7z"/>
			</g>
		</g>
	</g>
	<g>
		<g>
			<g>
				<path class="st0" d="M64.9,76.1c3-0.1,5.9-0.3,8.9-0.7c0.2,0,0.1-0.4-0.1-0.3c-2.9,0.4-5.9,0.7-8.8,0.7
					C64.6,75.7,64.6,76.1,64.9,76.1L64.9,76.1z"/>
			</g>
		</g>
	</g>
	<g>
		<g>
			<g>
				<path class="st0" d="M76.4,75.9c10.1-0.1,20.1-0.4,30.1-1c4.9-0.3,10-0.4,14.9-1c3.8-0.5,2.4-4,3.1-6.7c0.1-0.2-0.3-0.3-0.3-0.1
					c-0.4,1.5,0,3.1-0.4,4.5c-0.6,2.5-4.3,2.1-6.3,2.2c-4.6,0.4-9.1,0.6-13.7,0.9c-9.1,0.5-18.3,0.7-27.4,0.8
					C76.2,75.6,76.2,75.9,76.4,75.9L76.4,75.9z"/>
			</g>
		</g>
	</g>
	<g>
		<g>
			<g>
				<path class="st0" d="M53.3,41.9c-1.8-5.8-2.8-11.8-2.8-17.8c0-0.2-0.4-0.2-0.3,0c0,6.1,1,12.1,2.8,18
					C53,42.2,53.4,42.2,53.3,41.9L53.3,41.9z"/>
			</g>
		</g>
	</g>
	<g>
		<g>
			<g>
				<path class="st0" d="M55.3,19.6c18.8-2.3,37.7-3.8,56.6-4.5c0.2,0,0.2-0.4,0-0.3C93,15.5,74.1,17,55.3,19.3
					C55.1,19.3,55.1,19.6,55.3,19.6L55.3,19.6z"/>
			</g>
		</g>
	</g>
	<g>
		<g>
			<g>
				<path class="st0" d="M124.7,21.5c1.3,15,2.6,30,3.9,45.1c0,0.2,0.4,0.2,0.3,0c-1.3-15-2.6-30-3.9-45.1
					C125,21.3,124.7,21.3,124.7,21.5L124.7,21.5z"/>
			</g>
		</g>
	</g>
	<g>
		<g>
			<g>
				<path class="st0" d="M75.2,78.5c9-0.4,18-0.7,27-1.1c4.6-0.2,9.2-0.4,13.8-0.6c2.3-0.1,4.5-0.1,6.8-0.3c1-0.1,2.2-0.2,2.9-1
					c0.5-0.6,0.5-1.5-0.2-2.1c-0.8-0.7-2.1-0.5-2.9,0c-0.2,0.1,0,0.4,0.2,0.3c1-0.6,3.2-0.6,2.7,1.1c-0.3,1.2-1.6,1.3-2.7,1.4
					c-2.1,0.2-4.3,0.2-6.5,0.3c-4.6,0.2-9.2,0.4-13.8,0.6c-9.1,0.4-18.2,0.8-27.3,1.1C75,78.2,75,78.5,75.2,78.5L75.2,78.5z"/>
			</g>
		</g>
	</g>
	<g>
		<g>
			<g>
				<path class="st0" d="M125.5,74.3c0.1,0.5,0.2,1,0.3,1.4c0.1,0.7,0.4,1-0.4,1.3c-1,0.3-2.5,0.2-3.5,0.2c-2.1,0.1-4.3,0.3-6.4,0.4
					c-4.5,0.2-9,0.4-13.4,0.6c-9,0.3-17.9,0.5-26.9,0.5c-0.2,0-0.2,0.3,0,0.3c17,0,34.1-0.6,51.1-1.7c0.1,0,0.2-0.1,0.2-0.2
					c-0.2-1-0.4-1.9-0.5-2.9C125.8,73.9,125.5,74.1,125.5,74.3L125.5,74.3z"/>
			</g>
		</g>
	</g>
	<g>
		<g>
			<g>
				<path class="st0" d="M73,78c-2.7,0.2-5.3,0.4-8,0.6c-0.2,0-0.2,0.4,0,0.3c2.7-0.2,5.3-0.4,8-0.6C73.2,78.3,73.2,78,73,78L73,78z
					"/>
			</g>
		</g>
	</g>
	<g>
		<g>
			<g>
				<path class="st0" d="M65.5,78.8c2.5-0.5,5-0.8,7.6-0.8c0.2,0,0.2-0.4,0-0.3c-2.6,0-5.1,0.3-7.6,0.8
					C65.1,78.5,65.2,78.8,65.5,78.8L65.5,78.8z"/>
			</g>
		</g>
	</g>
	<g>
		<g>
			<g>
				<path class="st0" d="M53.1,38.2c0-0.4,0.1-0.7,0.4-0.9c-0.1,0-0.1,0-0.1,0c0.3,0.1,0.5,0.5,0.3,0.8c-0.2,0.2-0.7-0.1-0.6-0.4
					c0.1-0.2-0.2-0.4-0.3-0.2c-0.2,0.4,0.1,0.8,0.4,0.9c0.4,0.2,0.8-0.1,0.9-0.5c0.1-0.4-0.2-0.8-0.6-1c-0.2-0.1-0.5,0.2-0.6,0.4
					c-0.2,0.2-0.2,0.5-0.2,0.8C52.7,38.4,53.1,38.4,53.1,38.2L53.1,38.2z"/>
			</g>
		</g>
	</g>
	<g>
		<g>
			<g>
				<path class="st0" d="M51.8,28.9c-0.1-0.2,0.1-0.5,0.4-0.5c0,0-0.1,0-0.1-0.1c0.2,0.2,0.2,0.7-0.1,0.8c0.1,0,0.2,0.1,0.2,0.1
					c-0.1-0.2-0.2-0.5-0.2-0.8c-0.1-0.2-0.4-0.1-0.3,0.1c0.1,0.2,0.2,0.5,0.2,0.8c0,0.1,0.2,0.2,0.2,0.1c0.4-0.3,0.6-1,0.2-1.4
					c-0.2-0.2-0.5,0-0.7,0.1c-0.2,0.2-0.3,0.5-0.2,0.7C51.6,29.2,51.9,29.1,51.8,28.9L51.8,28.9z"/>
			</g>
		</g>
	</g>
	<g>
		<g>
			<g>
				<path class="st0" d="M52.1,21.5c-0.3,0.2-0.3-0.2-0.2-0.4c0-0.1,0.1-0.2,0.2-0.3c0.1-0.1,0.3-0.2,0.4-0.2
					c0.4-0.1,0.7,0.1,0.8,0.5c0.1,0.3-0.1,0.8-0.4,0.8c-0.4,0.1-0.8-0.3-0.7-0.7c0.1-0.2-0.3-0.3-0.3-0.1c-0.2,0.7,0.5,1.3,1.2,1.1
					c0.6-0.2,0.8-1,0.5-1.5c-0.4-0.6-1.2-0.6-1.7-0.2c-0.3,0.2-0.5,0.7-0.3,1c0.1,0.3,0.5,0.4,0.7,0.2
					C52.4,21.7,52.3,21.4,52.1,21.5L52.1,21.5z"/>
			</g>
		</g>
	</g>
	<g>
		<g>
			<g>
				<path class="st0" d="M120.5,17.2c0.2-0.4,0.6-0.8,1.1-0.9c0.5-0.1,1.1,0.2,1.2,0.8c0.1,0.6-0.5,0.9-1,0.9c-0.2,0-0.4,0-0.6-0.1
					c-0.1,0-0.9-0.3-0.6-0.6c0.2-0.2-0.1-0.4-0.2-0.2c-0.5,0.6,0.4,1.1,0.9,1.2c0.7,0.1,1.6,0.1,1.9-0.7c0.2-0.7-0.3-1.4-0.9-1.6
					c-0.8-0.2-1.7,0.4-2,1.1C120.1,17.3,120.4,17.4,120.5,17.2L120.5,17.2z"/>
			</g>
		</g>
	</g>
	<g>
		<g>
			<g>
				<path class="st0" d="M115.1,17.1c-0.1-0.2,0.1-0.6,0.4-0.5c0.3,0.1,0,0.4-0.1,0.2C115.2,16.7,115,16.9,115.1,17.1
					c0.2,0.2,0.5,0.1,0.7,0c0.2-0.2,0.2-0.5-0.1-0.7c-0.2-0.2-0.5-0.2-0.7,0c-0.2,0.2-0.3,0.5-0.2,0.8
					C114.8,17.4,115.1,17.3,115.1,17.1L115.1,17.1z"/>
			</g>
		</g>
	</g>
	<g>
		<g>
			<g>
				<path class="st0" d="M122.3,23.3c-0.1-0.2,0.2-0.7,0.5-0.5c0.2,0.2,0,0.6-0.3,0.6c0.1,0.1,0.1,0.1,0.1,0.2c0-0.2,0-0.5,0-0.7
					c0-0.2-0.4-0.2-0.3,0c0,0.2,0,0.5,0,0.7c0,0.1,0.1,0.2,0.1,0.2c0.6,0.1,1.1-0.8,0.6-1.2c-0.5-0.4-1.3,0.3-1,0.9
					C122.1,23.6,122.4,23.4,122.3,23.3L122.3,23.3z"/>
			</g>
		</g>
	</g>
	<g>
		<g>
			<g>
				<path class="st0" d="M126.4,72.4c-0.1-0.5,0.4-1.2,0.9-1.2c0.5,0,0.8,0.4,0.8,0.8c0.1,1.1-1.5,1.1-1.6,0.1
					c0-0.2-0.4-0.1-0.3,0.1c0.1,0.6,0.8,1,1.4,1c0.6-0.1,1-0.7,0.9-1.3c-0.1-0.6-0.7-1.1-1.3-1.1c-0.8,0.1-1.2,0.9-1.1,1.6
					C126.1,72.7,126.4,72.6,126.4,72.4L126.4,72.4z"/>
			</g>
		</g>
	</g>
	<g>
		<g>
			<g>
				<path class="st0" d="M126.4,66.9c0-0.2,0.4-0.3,0.5-0.1c0.2,0.2-0.2,0.5-0.4,0.3c-0.2-0.1-0.4,0.1-0.2,0.2
					c0.4,0.4,1.3-0.1,1-0.7c-0.2-0.5-1.1-0.4-1.2,0.1C126.1,67,126.4,67.1,126.4,66.9L126.4,66.9z"/>
			</g>
		</g>
	</g>
	<g>
		<g>
			<g>
				<path class="st0" d="M124.3,77.9c-1.1,12.7-1.7,25.4-1.7,38.2c0,0.2,0.3,0.2,0.3,0c0-12.7,0.6-25.5,1.7-38.2
					C124.7,77.6,124.4,77.6,124.3,77.9L124.3,77.9z"/>
			</g>
		</g>
	</g>
	<g>
		<g>
			<g>
				<path class="st0" d="M122.1,78.4c-0.7,12.5-1.4,25-2,37.5c0,0.2,0.3,0.2,0.3,0c0.7-12.5,1.4-25,2-37.5
					C122.4,78.2,122.1,78.2,122.1,78.4L122.1,78.4z"/>
			</g>
		</g>
	</g>
	<g>
		<g>
			<g>
				<path class="st0" d="M119.6,120.8c0.7-0.3,1.4-0.5,2.1-0.6c0.4,0,0.7-0.1,1.1,0c0.1,0,0.2,0,0.4,0c0.6-0.1,0.9,0.2,0.8,0.9
					c0.2,1,0.2,0.9-0.7,1.1c-0.3,0.1-0.6,0.1-0.8,0.2c-0.4,0.1-0.7,0.1-1.1,0.1c-0.2,0-0.4,0-0.6-0.1c-0.8-0.1-1.1-0.6-0.9-1.5
					c0.2,0,0.2-0.3,0-0.3c-1.1-0.1-0.3,1.5,0.1,1.8c1,0.7,3,0.3,4.1-0.2c0.9-0.4,1.2-1.4,0.4-2c-1.2-1-3.7-0.4-5.1,0.2
					C119.4,120.6,119.4,120.9,119.6,120.8L119.6,120.8z"/>
			</g>
		</g>
	</g>
	<g>
		<g>
			<g>
				<path class="st0" d="M119.4,121.1c0-1.7,0.2-3.4,0.6-5c0.1-0.2-0.3-0.3-0.3-0.1c-0.4,1.7-0.6,3.4-0.6,5.1
					C119.1,121.3,119.4,121.3,119.4,121.1L119.4,121.1z"/>
			</g>
		</g>
	</g>
	<g>
		<g>
			<g>
				<path class="st0" d="M124.4,120.9c-0.4-1.7-1-3.4-1.6-5.1c-0.1-0.2-0.4-0.1-0.3,0.1c0.7,1.7,1.2,3.3,1.6,5.1
					C124.2,121.2,124.5,121.1,124.4,120.9L124.4,120.9z"/>
			</g>
		</g>
	</g>
	<g>
		<g>
			<g>
				<path class="st0" d="M120.7,116.3c-0.2-0.2-0.4-0.4-0.6-0.5c-0.2-0.1-0.4,0.1-0.2,0.2c0.7,0.8,2.1,0.7,2.6-0.3
					c0.1-0.2-0.2-0.4-0.3-0.2c-0.4,0.8-1.5,0.9-2.1,0.2c-0.1,0.1-0.2,0.2-0.2,0.2c0.2,0.2,0.4,0.4,0.6,0.5
					C120.6,116.7,120.9,116.4,120.7,116.3L120.7,116.3z"/>
			</g>
		</g>
	</g>
	<g>
		<g>
			<g>
				<path class="st0" d="M119.9,116.1c0.1-0.9,0.2-1.8,0.1-2.7c-0.1-0.8-1.1-3.5,0.2-3.7c0.2-0.1,0.1-0.4-0.1-0.3
					c-0.8,0.2-1,0.8-1,1.5c0,0.5,0.3,1.1,0.4,1.7c0.2,1.2,0.3,2.4,0.1,3.6C119.6,116.2,119.9,116.3,119.9,116.1L119.9,116.1z"/>
			</g>
		</g>
	</g>
	<g>
		<g>
			<g>
				<path class="st0" d="M89.3,112.3c9.6-0.6,19.2-1.2,28.8-1.7c0.2,0,0.2-0.4,0-0.3c-9.6,0.6-19.2,1.2-28.8,1.7
					C89.1,112,89.1,112.3,89.3,112.3L89.3,112.3z"/>
			</g>
		</g>
	</g>
	<g>
		<g>
			<g>
				<path class="st0" d="M123.3,110.6c1.3-0.1,2.5-0.3,3.8-0.4c0.2,0,0.2-0.4,0-0.3c-1.3,0.1-2.5,0.3-3.8,0.4
					C123.1,110.3,123.1,110.7,123.3,110.6L123.3,110.6z"/>
			</g>
		</g>
	</g>
	<g>
		<g>
			<g>
				<path class="st0" d="M107.3,75.1c-1.3-0.3-2.9-0.3-4.1,0.4c-0.7,0.4-0.7,1.1,0,1.4c0.7,0.3,1.5,0.1,2.2,0.1c0.6,0,1.4,0.1,2-0.1
					c0.6-0.3,0.8-1.2,0.1-1.5c-0.2-0.1-0.4,0.2-0.2,0.3c0.1,0.7-0.1,1-0.5,1c-0.2,0-0.4,0-0.5,0c-0.3,0-0.7,0-1,0
					c-0.3,0-0.6,0-0.8,0c-0.2,0-0.3,0-0.5,0c-0.4,0.1-0.6,0-0.6-0.4c-0.2-0.6,0.1-0.5,0.6-0.7c0.3-0.1,0.6-0.2,0.9-0.2
					c0.8-0.1,1.6-0.1,2.4,0.1C107.4,75.5,107.5,75.2,107.3,75.1L107.3,75.1z"/>
			</g>
		</g>
	</g>
	<g>
		<g>
			<g>
				<path class="st0" d="M109.3,76.3c0-0.5,0.8-0.5,1.1-0.5c0.2,0,0.4,0.1,0.3,0.3c0,0.1-0.2,0.3-0.3,0.3c-0.3,0.1-0.7-0.2-1-0.4
					C109.4,75.8,109.2,76.1,109.3,76.3c0.5,0.2,1,0.6,1.5,0.3c0.3-0.2,0.5-0.7,0.2-1c-0.3-0.3-0.9-0.2-1.3-0.1
					c-0.4,0.1-0.7,0.4-0.7,0.8C109,76.5,109.3,76.5,109.3,76.3L109.3,76.3z"/>
			</g>
		</g>
	</g>
</g>
</svg>
