<?xml version="1.0" encoding="utf-8"?>
<!-- Generator: Adobe Illustrator 24.0.1, SVG Export Plug-In . SVG Version: 6.00 Build 0)  -->
<svg version="1.1" id="Layer_1" xmlns="http://www.w3.org/2000/svg" xmlns:xlink="http://www.w3.org/1999/xlink" x="0px" y="0px"
	 viewBox="0 0 141.7 141.7" style="enable-background:new 0 0 141.7 141.7;" xml:space="preserve">
<style type="text/css">
	.st0{fill:#231F20;}
	.st1{fill:#070707;}
</style>
<g id="Layer_1_1_">
</g>
<g id="Layer_1_2_">
</g>
<g id="Layer_1_3_">
</g>
<g id="Layer_1_4_">
</g>
<g id="Layer_1_5_">
</g>
<g id="Layer_3">
</g>
<g id="Layer_3_1_">
</g>
<g id="Layer_1_6_">
</g>
<g id="Layer_1_7_">
</g>
<g id="Layer_1_8_">
</g>
<g id="Layer_1_9_">
</g>
<g id="Layer_1_10_">
</g>
<g id="Layer_1_11_">
</g>
<g id="Layer_1_12_">
</g>
<g id="Layer_1_13_">
</g>
<g id="Layer_1_14_">
</g>
<g id="Layer_1_15_">
</g>
<g id="Layer_1_16_">
</g>
<g id="Layer_1_17_">
</g>
<g id="Layer_1_18_">
</g>
<g id="Layer_1_19_">
</g>
<g id="Layer_1_20_">
</g>
<g>
	<g>
		<g>
			<g>
				<g>
					<path class="st0" d="M66.2,75.6c-3.7-10.2-7.6-21-5-31.9c0-0.2-0.2-0.3-0.3-0.1c-2.6,11,1.3,21.9,5,32.1
						C66,75.8,66.3,75.8,66.2,75.6L66.2,75.6z"/>
				</g>
			</g>
		</g>
		<g>
			<g>
				<g>
					<path class="st0" d="M61.4,38.1c0.5-3.7,1.4-7.4,2.7-10.9c1.3-3.3,3-6.2,4.7-9.2c0.6-1.1,1.3-2.4,2.4-3c1.6-0.9,2.6,1.3,3,2.5
						c1.1,2.8,2.1,5.7,2.9,8.6c0.6,2.1,1.1,4.2,1.5,6.3c0.3,1.7,0.2,3.6,1,5.2c0,0.1,0.2,0.1,0.3,0c0-0.2,0-0.1,0-0.3
						c0-0.1-0.1-0.1-0.1-0.1c0,0-0.1,0-0.1,0c-0.2,0-0.2,0.3,0,0.3c0,0,0,0.1,0,0.1c0.1,0,0.2,0,0.3,0c-0.5-1-0.5-2-0.6-3.1
						c-0.1-1-0.3-1.9-0.5-2.9c-0.4-2.1-1-4.2-1.6-6.3c-0.5-1.7-1.2-3.4-1.7-5.1c-0.4-1.3-0.8-2.6-1.4-3.8c-0.4-0.7-1-1.6-1.9-1.7
						c-1-0.1-1.7,0.7-2.3,1.4c-0.7,1-1.3,2.1-1.9,3.1c-1.1,1.8-2.1,3.6-2.9,5.5c-1.9,4.3-3.2,8.9-3.9,13.5
						C61.1,38.2,61.4,38.2,61.4,38.1L61.4,38.1z"/>
				</g>
			</g>
		</g>
		<g>
			<g>
				<g>
					<path class="st0" d="M80.7,43.4c1.1,5.6,1.1,11.4,0.1,17c-0.9,5.2-3.3,10-3.9,15.2c0,0.2,0.3,0.2,0.3,0
						c0.3-2.8,1.3-5.5,2.1-8.2c0.9-2.7,1.6-5.4,2-8.2c0.8-5.3,0.6-10.6-0.3-15.8C80.9,43.1,80.6,43.2,80.7,43.4L80.7,43.4z"/>
				</g>
			</g>
		</g>
		<g>
			<g>
				<g>
					<path class="st0" d="M66.2,75.7c1.3-0.1,2.6-0.1,3.9-0.2c0.2,0,0.2-0.3,0-0.3c-1.3,0.1-2.6,0.1-3.9,0.2
						C66,75.4,66,75.7,66.2,75.7L66.2,75.7z"/>
				</g>
			</g>
		</g>
		<g>
			<g>
				<g>
					<path class="st0" d="M73.1,75.8c0.7-0.1,1.3-0.1,2-0.2c0.1,0,2,0,2,0c0-0.2-0.3-0.1-0.3,0.1c0,0,0,0,0,0c0,0.1,0.1,0.1,0.1,0.1
						c0.1,0,0.2,0,0.2-0.1c0,0,0-0.1,0-0.2c-0.3-0.4-1.2-0.2-1.6-0.2c-0.8,0-1.7,0.1-2.5,0.2C72.8,75.5,72.9,75.8,73.1,75.8
						L73.1,75.8z"/>
				</g>
			</g>
		</g>
		<g>
			<g>
				<g>
					<path class="st0" d="M59.9,51.3c-0.9,2.4-2.1,4.8-2.7,7.2c-0.3,1.1-0.1,2.1,0,3.1c0.2,1.3,0.3,2.7,0.5,4
						c0.7,5.2,1.4,10.3,2.3,15.5c0,0.2,0.3,0.1,0.3-0.1c-0.9-5.1-1.6-10.2-2.3-15.4c-0.3-2.3-1.1-5-0.5-7.3c0.6-2.4,1.7-4.7,2.6-7
						C60.3,51.1,60,51.1,59.9,51.3L59.9,51.3z"/>
				</g>
			</g>
		</g>
		<g>
			<g>
				<g>
					<path class="st0" d="M60.3,81.3c1.6,0.2,3.2,0.2,4.8,0c0.1,0,0.2-0.1,0.1-0.2c-0.2-1.1-0.5-2.3-0.7-3.4c-0.3-1.5-0.7-3.7,0.4-5
						c0.1-0.1-0.1-0.4-0.2-0.2c-1.2,1.5-0.7,3.8-0.4,5.5c0.1,0.6,0.2,1.2,0.4,1.8c0.1,0.6,0.4,1-0.3,1.2c-1.2,0.4-2.9,0.1-4-0.1
						C60.1,80.9,60.1,81.2,60.3,81.3L60.3,81.3z"/>
				</g>
			</g>
		</g>
		<g>
			<g>
				<g>
					<path class="st0" d="M77.8,72.5c2.5,2.4,0.2,6.1-0.2,8.9c0,0,0,0.1,0.1,0.1c1.5,0.2,2.9,0.2,4.4,0c0.1,0,0.1-0.1,0.1-0.1
						c0.8-7.3,1.9-14.5,3.3-21.8c0-0.2-0.3-0.3-0.3-0.1c-1.2,6.2-2.2,12.5-3,18.7c-0.1,0.7,0,1.7-0.3,2.4c-0.3,1-1.4,0.8-2.3,0.8
						c-0.3,0-0.9,0-1.1,0c-0.6-0.3-0.6-0.9-0.4-1.4c0.2-0.7,0.4-1.4,0.6-2.1c0.5-1.9,0.7-4.1-0.8-5.6C77.9,72.2,77.6,72.4,77.8,72.5
						L77.8,72.5z"/>
				</g>
			</g>
		</g>
		<g>
			<g>
				<g>
					<path class="st0" d="M85.4,59.8c0-1.4-0.9-2.8-1.4-4c-0.8-1.7-1.5-3.4-2.3-5.1c-0.1-0.2-0.3,0-0.3,0.1c0.6,1.4,1.3,2.8,1.9,4.2
						c0.7,1.5,1.7,3.2,1.8,4.8C85.1,60,85.4,60,85.4,59.8L85.4,59.8z"/>
				</g>
			</g>
		</g>
		<g>
			<g>
				<g>
					<path class="st1" d="M67.9,45.4c0.1,0,0.1,0,0.2,0c0-0.1,0-0.2,0-0.3c-1.3,0.5-3.6,1.8-3.3,3.5c0.1,1,1.3,1.5,2.1,1.7
						c1.6,0.3,3.1-0.7,4.6-0.8c1.7,0,5.1,2,5.4-1.1c0.2-2.1-2.4-3.2-3.9-3.8c-0.2-0.1-0.3,0.2-0.1,0.3c1.4,0.5,4.1,1.7,3.7,3.6
						C76,51,73,49.1,71.5,49.2c-0.9,0-1.7,0.3-2.5,0.5c-1.2,0.3-3.4,0.5-3.9-1c-0.5-1.6,1.9-2.9,3-3.4c0.1-0.1,0.1-0.3,0-0.3
						c-0.1,0-0.2,0-0.3,0C67.6,45.1,67.7,45.4,67.9,45.4L67.9,45.4z"/>
				</g>
			</g>
		</g>
		<g>
			<path class="st1" d="M75.5,44.4c-2,0-3.6-1.6-3.6-3.6s1.6-3.6,3.6-3.6c2,0,3.6,1.6,3.6,3.6S77.5,44.4,75.5,44.4z M75.5,37.5
				c-1.8,0-3.3,1.5-3.3,3.3c0,1.8,1.5,3.3,3.3,3.3s3.3-1.5,3.3-3.3C78.8,39,77.3,37.5,75.5,37.5z"/>
		</g>
		<g>
			<path class="st1" d="M66.2,44.4c-2,0-3.6-1.6-3.6-3.6s1.6-3.6,3.6-3.6c2,0,3.6,1.6,3.6,3.6S68.2,44.4,66.2,44.4z M66.2,37.5
				c-1.8,0-3.3,1.5-3.3,3.3c0,1.8,1.5,3.3,3.3,3.3c1.8,0,3.3-1.5,3.3-3.3C69.5,39,68,37.5,66.2,37.5z"/>
		</g>
		<g>
			<path class="st1" d="M74,44.6c0-1-1.4-1.8-3.2-1.8s-3.2,0.8-3.2,1.8c0,1,1.4,1.8,3.2,1.8C72.5,46.3,74,45.5,74,44.6z"/>
		</g>
		<g>
			<path class="st1" d="M64.6,42.4c0.9,0.9,2.4,0.9,3.3,0c0.9-0.9,0.9-2.4,0-3.3c-0.9-0.9-2.4-0.9-3.3,0
				C63.7,40.1,63.7,41.5,64.6,42.4z M66.6,39.1c0.2,0.2,0.2,0.7,0,0.9c-0.2,0.2-0.7,0.2-0.9,0c-0.3-0.3-0.2-0.7,0-0.9
				C65.9,38.8,66.4,38.8,66.6,39.1z"/>
		</g>
		<g>
			<path class="st1" d="M78.1,44.4H63.6c-1.7,0-3.1-1.4-3.1-3.1v-1.1c0-1.7,1.4-3.1,3.1-3.1H78c1.7,0,3.1,1.4,3.2,3.1v1.1
				C81.2,43,79.8,44.4,78.1,44.4z M63.6,37.5c-1.5,0-2.8,1.2-2.8,2.8v1.1c0,1.5,1.2,2.8,2.8,2.8h14.4c1.5,0,2.8-1.2,2.8-2.8v-1.1
				c0-1.5-1.3-2.8-2.8-2.8H63.6z"/>
		</g>
		<g>
			<g>
				<g>
					<path class="st1" d="M70.9,49.5c-0.2,8.4,0.8,16.8,0.8,25.2c0,2.1-0.1,4.1-0.2,6.2c0,0.3,0,0.6-0.1,1c0,0.5,0.1,0.7-0.4,0.6
						c-0.6-0.2-0.4-1-0.5-1.6c-0.1-1.1-0.1-2.3-0.2-3.4c-0.2-4.3-0.5-8.6-0.6-12.9c-0.2-4.9-0.2-9.7-0.1-14.6c0-0.2-0.3-0.2-0.3,0
						c-0.2,9.8,0.2,19.6,0.8,29.4c0,0.7-0.3,3.6,0.8,3.8c1.1,0.2,0.9-2.5,0.9-3c0.3-4.8,0.2-9.7-0.1-14.5
						c-0.3-5.4-0.6-10.8-0.5-16.2C71.2,49.3,70.9,49.3,70.9,49.5L70.9,49.5z"/>
				</g>
			</g>
		</g>
		<g>
			<g>
				<g>
					<path class="st1" d="M71.8,82.8c-0.1-0.3-0.1-0.6-0.2-0.9c-0.1,0-0.2,0-0.3,0.1c0.1,0.3,0.2,0.7,0.4,1.1c0,0.1,0.1,0.1,0.2,0.1
						c1.8-0.9,1.3-3.7,1.3-5.3c0-3.1,0-6.3-0.1-9.4c0-6.3-0.1-12.6-0.1-18.9c0-0.2-0.3-0.2-0.3,0c0,5.8,0.1,11.6,0.1,17.4
						c0,2.8,0,5.7,0.1,8.5c0,1.4,0,2.9,0,4.4c0,0.6,0,1.2-0.1,1.8c-0.1,0.2-0.3,0.9-0.5,1c-0.5,0.2-0.5-0.3-0.6-0.7
						c-0.1-0.2-0.3-0.1-0.3,0.1c0.1,0.3,0.1,0.6,0.2,0.9C71.6,83.1,71.9,83,71.8,82.8L71.8,82.8z"/>
				</g>
			</g>
		</g>
		<g>
			<g>
				<g>
					<path class="st1" d="M61.2,81.2c-0.7-5-1.5-9.9-2.2-14.8c-0.4-2.4-1-4.9-1-7.3c0-2.4,1.7-3.9,2.2-6c0-0.2-0.2-0.3-0.3-0.1
						c-0.5,2-2.1,3.4-2.2,5.5c-0.2,2.3,0.5,4.8,0.9,7c0.8,5.3,1.6,10.5,2.4,15.8C61,81.4,61.3,81.4,61.2,81.2L61.2,81.2z"/>
				</g>
			</g>
		</g>
		<g>
			<g>
				<g>
					<path class="st1" d="M81.4,81.4c0.5-5.4,1.2-10.7,2.1-16.1c0.4-2.2,1.1-4.6,0.8-6.8c-0.2-2.4-1.6-4.8-2.5-7
						c-0.1-0.2-0.4-0.1-0.3,0.1c0.9,2.3,2.4,4.9,2.5,7.4c0.1,2.5-0.7,5.2-1.1,7.7c-0.8,4.9-1.4,9.8-1.8,14.7
						C81.1,81.6,81.4,81.6,81.4,81.4L81.4,81.4z"/>
				</g>
			</g>
		</g>
		<g>
			<path class="st1" d="M73.8,42.4c0.9,0.9,2.4,0.9,3.3,0c0.9-0.9,0.9-2.4,0-3.3s-2.4-0.9-3.3,0C72.9,40.1,72.9,41.5,73.8,42.4z
				 M75.9,39.1c0.2,0.2,0.2,0.7,0,0.9c-0.2,0.2-0.7,0.2-0.9,0c-0.3-0.3-0.2-0.7,0-0.9C75.2,38.8,75.6,38.8,75.9,39.1z"/>
		</g>
		<g>
			<g>
				<g>
					<path class="st1" d="M65.8,76.3c-0.2,1.9,0.8,3.7,1,5.6c0.2,1.8,0,4.1-1,5.7c-0.5,0.8-1.2,1.5-2.2,1.7
						c-1.6,0.3-2.9-0.8-2.8-2.5c0.1-1.3,1.2-2.9,2.7-2.1c0.5,0.3,0.9,0.9,1.1,1.5c0.1,0.6,0,1.1-0.3,1.6c-0.7,0.5-1.2,0.3-1.7-0.4
						c0-0.2-0.3-0.1-0.3,0.1c0.2,0.8,1.2,1.2,2,0.7c0.9-0.5,0.8-1.8,0.4-2.6c-0.5-1-1.6-1.6-2.7-1.1c-1.2,0.5-1.6,2.1-1.4,3.3
						c0.5,2.7,4,2.2,5.3,0.4c1-1.4,1.3-3.2,1.3-4.8c0-1-0.1-2-0.3-3c-0.3-1.3-0.9-2.5-0.7-3.9C66.2,76.1,65.9,76.1,65.8,76.3
						L65.8,76.3z"/>
				</g>
			</g>
		</g>
		<g>
			<g>
				<g>
					<path class="st1" d="M65.8,76.5c1.1,2.4,2.1,4.9,2.3,7.6c0.2,2.7-0.8,5-2.1,7.4c-1,1.7-2,3.5-1.8,5.6c0.1,0.9,0.3,1.8,0.8,2.6
						c0.5,0.9,3.2,3.5,1,4.2c-0.2,0-0.1,0.4,0.1,0.3c1.9-0.6,0.6-2.7-0.1-3.7c-1.1-1.5-1.6-3.3-1.3-5.1c0.3-1.4,1.1-2.7,1.8-4
						c1.3-2.3,2.1-4.5,1.9-7.2c-0.2-2.7-1.2-5.3-2.3-7.8C66,76.1,65.7,76.3,65.8,76.5L65.8,76.5z"/>
				</g>
			</g>
		</g>
		<g>
			<g>
				<g>
					<path class="st1" d="M80.2,87.1c-1.5,0.8-2.2-1.7-0.6-2.2c0.7-0.2,1.5,0,2,0.5c0.8,0.8,0.8,2.2,0.3,3.1c-1.2,2.5-4.7,1.6-6-0.3
						c-1.6-2.4-0.5-5.1,0.6-7.4c0.7-1.4,1.2-3,0.3-4.5c-0.1-0.1-0.3-0.1-0.3,0.1c-0.2,1.7-1.1,3.1-1.8,4.7c-0.5,1.3-0.9,2.7-1,4.1
						c-0.2,2.8,0.5,5.4,1.6,7.9c0.6,1.5,1.3,3.1,1.3,4.8c0,1.6-0.8,3.2-0.7,4.9c0.1,1.7,1.3,3.5,3.2,3.2c0.2,0,0.1-0.3-0.1-0.3
						c-1.9,0.3-2.8-1.8-2.8-3.4c0-1.3,0.5-2.6,0.7-4c0.2-2.5-1.1-4.6-1.9-6.8c-1-2.6-1.3-5.4-0.7-8.1c0.6-2.4,2.2-4.5,2.5-7
						c-0.1,0-0.2,0-0.3,0.1c1.3,2.4-0.8,4.6-1.5,6.8c-0.4,1.5-0.4,3.3,0.3,4.7c1.2,2.2,4.7,3.5,6.4,1.2c1.3-1.7,0.5-5.1-2.1-4.7
						c-2.5,0.4-1.3,3.9,0.6,2.8C80.5,87.3,80.3,87,80.2,87.1L80.2,87.1z"/>
				</g>
			</g>
		</g>
		<g>
			<g>
				<g>
					<path class="st1" d="M65.7,104.6c1.8,0.2,3.3-1.2,3.3-3c-0.1,0-0.2,0-0.3,0.1c1,2.1,0,4.1-0.7,6.2c-0.4,1.3-0.6,2.7-0.3,4.1
						c0.7,3,2.9,5.4,3.6,8.4c0,0.2,0.3,0.1,0.3,0c0-5.3,0.6-10.6,1.8-15.8c-0.1,0-0.2,0-0.3-0.1c-0.2,1.6,0.7,3.4,2.4,3.8
						c1.7,0.4,3.4-0.7,3.9-2.3c0.1-0.2-0.2-0.3-0.3-0.1c-0.5,1.4-2,2.5-3.5,2.1c-1.5-0.4-2.4-2-2.2-3.4c0-0.2-0.2-0.3-0.3-0.1
						c-1.3,5.2-1.9,10.5-1.8,15.9c0.1,0,0.2,0,0.3,0c-0.7-3.1-3.1-5.6-3.6-8.8c-0.6-3.4,2.6-6.6,1-10c-0.1-0.1-0.3-0.1-0.3,0.1
						c0,1.6-1.4,2.8-2.9,2.6C65.5,104.2,65.5,104.5,65.7,104.6L65.7,104.6z"/>
				</g>
			</g>
		</g>
		<g>
			<g>
				<g>
					<path class="st1" d="M66.1,103.8c-0.4,0-0.8,0.1-1.3,0.1c-0.2,0-0.2,0.2,0,0.3c0.3,0.1,0.7,0.2,1,0.3c0.2,0,0.3-0.2,0.1-0.3
						c-0.3-0.1-0.7-0.2-1-0.3c0,0.1,0,0.2,0,0.3c0.4,0,0.8-0.1,1.3-0.1C66.2,104.1,66.2,103.8,66.1,103.8L66.1,103.8z"/>
				</g>
			</g>
		</g>
		<g>
			<g>
				<g>
					<path class="st1" d="M66.6,37.1c0.5-3.7,1.1-7.3,1.8-10.9c0.3-1.7,0.6-3.5,1-5.2c0.2-1,0.4-1.9,0.6-2.8
						c0.2-0.8,0.2-1.8,0.6-2.5c0.2-0.9,1-0.9,2.3-0.1c0,0.1,0,0.2,0,0.3c0.2,0.4,0.2,1.3,0.2,1.9c0.1,0.9,0.2,1.7,0.3,2.6
						c0.2,1.8,0.4,3.7,0.5,5.5c0.3,3.7,0.5,7.4,0.6,11.1c0,0.2,0.3,0.2,0.3,0c-0.1-4.5-0.3-9-0.8-13.4c-0.2-2.2-0.5-4.5-0.8-6.7
						c-0.1-1-0.1-2.6-1.5-2.5c-1.4,0-1.7,1.5-1.9,2.6c-0.5,2.2-0.9,4.4-1.3,6.6c-0.9,4.5-1.6,9-2.3,13.5
						C66.2,37.3,66.5,37.3,66.6,37.1L66.6,37.1z"/>
				</g>
			</g>
		</g>
		<g>
			<g>
				<g>
					<path class="st1" d="M70,82.4c1.2,2-0.8,3.9-1.1,5.9c-0.2,1.6,0.4,3.2,0.8,4.8c1.1,3.9,1.4,8,1.2,12c0,0.2,0.2,0.2,0.3,0
						c1.2-3.7,2.4-7.5,1.9-11.5c-0.2-2-0.9-4-0.9-6.1c0-2.1,0.4-4.1,1.1-6c0.1-0.2-0.2-0.3-0.3-0.1c-1.4,3.5-1.2,6.9-0.5,10.5
						c0.9,4.5-0.2,8.7-1.6,12.9c0.1,0,0.2,0,0.3,0c0.3-4.1-0.1-8.1-1.2-12.1c-0.3-1.1-0.7-2.2-0.8-3.3c-0.1-1.4,0.3-2.4,0.8-3.7
						c0.5-1.3,0.9-2.5,0.2-3.8C70.2,82.1,69.9,82.2,70,82.4L70,82.4z"/>
				</g>
			</g>
		</g>
		<g>
			<g>
				<g>
					<path class="st1" d="M60.8,40.9c0.2,0,0.2-0.3,0-0.3C60.6,40.6,60.6,40.9,60.8,40.9L60.8,40.9z"/>
				</g>
			</g>
		</g>
		<g>
			<g>
				<g>
					<path class="st1" d="M60.6,41c0.6,0.4,1.2,0.6,1.9,0.6c0.2,0,0.2-0.3,0-0.3c-0.6,0-1.2-0.2-1.7-0.6
						C60.6,40.7,60.5,40.9,60.6,41L60.6,41z"/>
				</g>
			</g>
		</g>
		<g>
			<g>
				<g>
					<path class="st1" d="M69.6,41.9c0.8,0,1.6,0,2.4,0c0.2,0,0.2-0.3,0-0.3c-0.8,0-1.6,0-2.4,0C69.4,41.6,69.4,41.9,69.6,41.9
						L69.6,41.9z"/>
				</g>
			</g>
		</g>
		<g>
			<g>
				<g>
					<path class="st1" d="M78.8,42c1.1,0,2-0.8,2.1-1.9c0-0.2-0.3-0.2-0.3,0c-0.1,0.9-0.9,1.6-1.8,1.6C78.6,41.7,78.6,42,78.8,42
						L78.8,42z"/>
				</g>
			</g>
		</g>
		<g>
			<g>
				<g>
					<path class="st1" d="M69.2,52.8c-0.1,0.5,0.1,1,0.6,1.1c0.4,0.2,1,0,1.2-0.5c0.1-0.2-0.2-0.3-0.3-0.1c-0.4,0.6-1.3,0.3-1.2-0.4
						C69.5,52.7,69.2,52.6,69.2,52.8L69.2,52.8z"/>
				</g>
			</g>
		</g>
		<g>
			<g>
				<g>
					<path class="st1" d="M70.8,53.4c0.7,0.6,1.9,0.2,2-0.7c0-0.2-0.3-0.3-0.3-0.1c-0.1,0.7-1,1-1.5,0.5
						C70.9,53.1,70.7,53.3,70.8,53.4L70.8,53.4z"/>
				</g>
			</g>
		</g>
		<g>
			<g>
				<g>
					<path class="st1" d="M64.4,81c-2.1-6.7-3.2-13.7-3.3-20.8c0-0.2-0.3-0.2-0.3,0c0.1,7.1,1.2,14.1,3.4,20.9
						C64.2,81.2,64.5,81.2,64.4,81L64.4,81z"/>
				</g>
			</g>
		</g>
		<g>
			<g>
				<g>
					<path class="st1" d="M78.7,81.6c2.4-6.7,3.2-13.9,2.3-21c0-0.2-0.3-0.2-0.3,0c0.9,7.1,0.1,14.2-2.3,20.9
						C78.4,81.7,78.7,81.8,78.7,81.6L78.7,81.6z"/>
				</g>
			</g>
		</g>
		<g>
			<g>
				<g>
					<path class="st1" d="M68,19c0.8-0.9,1.7-1.8,2.9-2.2c1.4-0.4,3,0.1,3.5,1.5c0,0.2,0.4,0.1,0.3-0.1c-0.4-1.2-1.5-1.9-2.8-1.9
						c-1.7,0-3,1.3-4.1,2.4C67.6,18.9,67.8,19.1,68,19L68,19z"/>
				</g>
			</g>
		</g>
		<g>
			<path class="st1" d="M67.6,74.5c-0.6,0-1-0.5-1-1c0-0.6,0.5-1,1-1c0.6,0,1,0.5,1,1C68.6,74,68.2,74.5,67.6,74.5z M67.6,72.8
				c-0.4,0-0.7,0.3-0.7,0.7s0.3,0.7,0.7,0.7s0.7-0.3,0.7-0.7S68,72.8,67.6,72.8z"/>
		</g>
		<g>
			<path class="st1" d="M75,74.5c-0.6,0-1-0.5-1-1c0-0.6,0.5-1,1-1c0.6,0,1,0.5,1,1C76,74,75.5,74.5,75,74.5z M75,72.8
				c-0.4,0-0.7,0.3-0.7,0.7s0.3,0.7,0.7,0.7s0.7-0.3,0.7-0.7S75.3,72.8,75,72.8z"/>
		</g>
		<g>
			<path class="st1" d="M76.8,36c-0.6,0-1-0.5-1-1c0-0.6,0.5-1,1-1s1,0.5,1,1C77.8,35.6,77.3,36,76.8,36z M76.8,34.3
				c-0.4,0-0.7,0.3-0.7,0.7s0.3,0.7,0.7,0.7s0.7-0.3,0.7-0.7S77.1,34.3,76.8,34.3z"/>
		</g>
		<g>
			<path class="st1" d="M64.3,36c-0.6,0-1-0.5-1-1c0-0.6,0.5-1,1-1c0.6,0,1,0.5,1,1C65.3,35.6,64.8,36,64.3,36z M64.3,34.3
				c-0.4,0-0.7,0.3-0.7,0.7s0.3,0.7,0.7,0.7s0.7-0.3,0.7-0.7S64.6,34.3,64.3,34.3z"/>
		</g>
		<g>
			<path class="st1" d="M76.5,32.2c-0.6,0-1-0.5-1-1c0-0.6,0.5-1,1-1s1,0.5,1,1C77.6,31.8,77.1,32.2,76.5,32.2z M76.5,30.5
				c-0.4,0-0.7,0.3-0.7,0.7s0.3,0.7,0.7,0.7s0.7-0.3,0.7-0.7S76.9,30.5,76.5,30.5z"/>
		</g>
		<g>
			<path class="st1" d="M65.2,32.2c-0.6,0-1-0.5-1-1c0-0.6,0.5-1,1-1s1,0.5,1,1C66.2,31.8,65.7,32.2,65.2,32.2z M65.2,30.5
				c-0.4,0-0.7,0.3-0.7,0.7s0.3,0.7,0.7,0.7s0.7-0.3,0.7-0.7S65.5,30.5,65.2,30.5z"/>
		</g>
		<g>
			<path class="st1" d="M75.9,29c-0.4,0-0.7-0.3-0.7-0.7c0-0.4,0.3-0.7,0.7-0.7c0.4,0,0.7,0.3,0.7,0.7C76.6,28.7,76.3,29,75.9,29z
				 M75.9,28c-0.2,0-0.4,0.2-0.4,0.4c0,0.2,0.2,0.4,0.4,0.4c0.2,0,0.4-0.2,0.4-0.4C76.3,28.1,76.1,28,75.9,28z"/>
		</g>
		<g>
			<path class="st1" d="M65.7,28.9c-0.4,0-0.7-0.3-0.7-0.7c0-0.4,0.3-0.7,0.7-0.7c0.4,0,0.7,0.3,0.7,0.7
				C66.4,28.5,66.1,28.9,65.7,28.9z M65.7,27.8c-0.2,0-0.4,0.2-0.4,0.4c0,0.2,0.2,0.4,0.4,0.4c0.2,0,0.4-0.2,0.4-0.4
				C66.1,27.9,65.9,27.8,65.7,27.8z"/>
		</g>
		<g>
			<path class="st1" d="M75.4,71.3c-0.4,0-0.7-0.3-0.7-0.7c0-0.4,0.3-0.7,0.7-0.7c0.4,0,0.7,0.3,0.7,0.7
				C76.1,71,75.8,71.3,75.4,71.3z M75.4,70.2c-0.2,0-0.4,0.2-0.4,0.4c0,0.2,0.2,0.4,0.4,0.4c0.2,0,0.4-0.2,0.4-0.4
				C75.7,70.4,75.6,70.2,75.4,70.2z"/>
		</g>
		<g>
			<path class="st1" d="M67.1,71.8c-0.4,0-0.7-0.3-0.7-0.7c0-0.4,0.3-0.7,0.7-0.7c0.4,0,0.7,0.3,0.7,0.7
				C67.8,71.5,67.5,71.8,67.1,71.8z M67.1,70.7c-0.2,0-0.4,0.2-0.4,0.4c0,0.2,0.2,0.4,0.4,0.4c0.2,0,0.4-0.2,0.4-0.4
				C67.4,70.9,67.3,70.7,67.1,70.7z"/>
		</g>
		<g>
			<path class="st1" d="M82.7,59.6c-0.6,0-1-0.5-1-1s0.5-1,1-1s1,0.5,1,1S83.3,59.6,82.7,59.6z M82.7,57.9c-0.4,0-0.7,0.3-0.7,0.7
				s0.3,0.7,0.7,0.7s0.7-0.3,0.7-0.7S83.1,57.9,82.7,57.9z"/>
		</g>
		<g>
			<path class="st1" d="M59.5,59.6c-0.6,0-1-0.5-1-1s0.5-1,1-1c0.6,0,1,0.5,1,1S60,59.6,59.5,59.6z M59.5,57.9
				c-0.4,0-0.7,0.3-0.7,0.7s0.3,0.7,0.7,0.7s0.7-0.3,0.7-0.7S59.8,57.9,59.5,57.9z"/>
		</g>
	</g>
	<g>
		<g>
			<g>
				<path class="st1" d="M70.6,124.8c-0.8-5.3-3.8-10.2-8.4-13.1c-4-2.6-10-4-14.6-2.2c-2,0.8-3.5,2.5-3.5,4.8c0,2.2,1.3,4.2,3,5.5
					c1.7,1.3,4.1,1.8,6,0.7c1.6-0.9,2.5-2.9,1.7-4.7c-0.7-1.7-2.9-2.3-4.4-1.2c-0.5,0.4-1.1,1.2-0.9,1.9c0.2,0.5,0.8,0.7,1.1,0.2
					c0.1-0.1-0.1-0.3-0.3-0.1c-0.1-0.1-0.2-0.2-0.2-0.3c-0.3-0.2-0.3-0.4-0.1-0.6c0.1-0.2,0.3-0.5,0.4-0.6c0.4-0.4,0.9-0.6,1.4-0.6
					c1.2-0.2,2.2,0.5,2.7,1.5c1,2.2-0.7,4.3-2.8,4.8c-4,0.9-8.3-3.8-7.2-7.7c1.1-3.9,6.3-4.2,9.5-3.8c3.9,0.4,7.7,2.1,10.5,4.8
					c3.1,2.9,5,6.7,5.6,10.9C70.3,125.1,70.6,125,70.6,124.8L70.6,124.8z"/>
			</g>
		</g>
	</g>
	<g>
		<g>
			<g>
				<path class="st1" d="M72.4,125.3c-0.2-3.9,2.9-7.1,5.9-9.1c2.8-1.9,6.4-3.1,9.7-2.9c2.2,0.1,3.9,1.1,5,3
					c0.9,1.6,1.7,4.1,0.3,5.6c-1.1,1.2-3,1.5-4.5,1.6c-1,0-2,0-2.8-0.5c-1.9-1.1-0.9-2.4,0.5-3.2c0.2-0.1,0-0.4-0.1-0.3
					c-0.9,0.5-2.1,1.3-1.7,2.5c0.4,1.3,2.3,1.7,3.5,1.8c2.6,0.1,6.4-0.8,6.3-4c-0.1-3.2-2.4-6.3-5.6-6.7c-3.5-0.4-7.3,0.9-10.3,2.7
					c-3.2,2-6.7,5.5-6.4,9.6C72.1,125.5,72.4,125.5,72.4,125.3L72.4,125.3z"/>
			</g>
		</g>
	</g>
	<g>
		<g>
			<g>
				<path class="st1" d="M44.2,117.4c-0.8,3.2-3,6-6.2,7c-3.6,1.1-7-0.7-8.9-3.8c-1.7-2.8-1.9-7.3,2-8.3c1.6-0.4,3.3,0.1,4.3,1.5
					c0.5,0.7,0.8,1.5,0.8,2.3c0,0.3-0.1,3-1.1,2.4c-0.2-0.1-0.3,0.1-0.1,0.3c0.9,0.6,1.4-0.9,1.5-1.5c0.2-1.2-0.1-2.6-0.8-3.6
					c-1.5-2.1-4.5-2.3-6.4-0.8c-2.6,2-1.8,5.8-0.2,8.2c1.8,2.8,4.8,4.4,8.1,3.9c3.8-0.7,6.4-3.8,7.4-7.4
					C44.5,117.2,44.2,117.2,44.2,117.4L44.2,117.4z"/>
			</g>
		</g>
	</g>
	<g>
		<g>
			<g>
				<path class="st1" d="M94.5,117.8c2.5,2.2,5.3,4.5,8.8,4.2c1.8-0.2,3.6-0.8,5.3-1.5c1.4-0.7,3-1.5,4-2.8c1.7-2.3,0.7-5.8-1.5-7.5
					c-2-1.6-5.3-0.8-5.9,1.9c-0.6,2.8,2.4,5,4.9,3.4c0.2-0.1,0-0.4-0.1-0.3c-1.5,1-3.7,0.4-4.3-1.3c-0.7-1.9,0.5-3.8,2.5-4.2
					c4-0.7,6.3,5.3,4,8.1c-1.9,2.3-5.7,3.6-8.6,4c-3.5,0.4-6.3-1.9-8.8-4C94.6,117.4,94.4,117.6,94.5,117.8L94.5,117.8z"/>
			</g>
		</g>
	</g>
	<g>
		<g>
			<g>
				<path class="st1" d="M31.5,111.9c-0.8-2.9,1.9-6,3.9-7.8c2-1.8,4.6-3,7.2-3.5c2.9-0.6,6.1-0.3,8.6,1.3c2.6,1.6,4.1,4.3,5.5,6.9
					c0.1,0.2,0.4,0,0.3-0.1c-1.5-2.7-3.1-5.6-5.9-7.2c-2.6-1.5-5.9-1.7-8.8-1c-2.9,0.6-5.6,2.1-7.7,4.2c-1.9,1.8-4.1,4.7-3.3,7.5
					C31.3,112.2,31.6,112.1,31.5,111.9L31.5,111.9z"/>
			</g>
		</g>
	</g>
	<g>
		<g>
			<g>
				<path class="st1" d="M83.7,113.1c-0.3-5.1,5.4-8.6,9.6-9.8c5.4-1.5,12.9-0.2,15.3,5.5c0.1,0.2,0.4,0.1,0.3-0.1
					c-2.4-5.8-9.7-7.3-15.2-5.9c-4.5,1.2-10.6,4.8-10.2,10.2C83.4,113.3,83.7,113.3,83.7,113.1L83.7,113.1z"/>
			</g>
		</g>
	</g>
	<g>
		<g>
			<g>
				<path class="st1" d="M53.9,103.9c2.1-2.6,4.8-4.6,8-5.6c0.2-0.1,0.1-0.4-0.1-0.3c-3.2,1.1-6,3-8.1,5.7
					C53.5,103.8,53.8,104,53.9,103.9L53.9,103.9z"/>
			</g>
		</g>
	</g>
	<g>
		<g>
			<g>
				<path class="st1" d="M77.7,99c3.9,0.7,7.2,2.8,9.7,5.9c0.1,0.1,0.3-0.1,0.2-0.2c-2.5-3.1-5.9-5.2-9.8-6
					C77.6,98.7,77.5,99,77.7,99L77.7,99z"/>
			</g>
		</g>
	</g>
	<g>
		<g>
			<g>
				<path class="st1" d="M36.7,107.8c3-3.5,7.9-2.9,11.9-2.1c0.2,0,0.3-0.3,0.1-0.3c-4.1-0.8-9.2-1.4-12.2,2.2
					C36.3,107.7,36.5,107.9,36.7,107.8L36.7,107.8z"/>
			</g>
		</g>
	</g>
	<g>
		<g>
			<g>
				<path class="st1" d="M91.3,109.4c2.9-1.8,6.7-1.7,9.5,0.3c0.2,0.1,0.3-0.1,0.1-0.3c-2.9-2.1-6.8-2.2-9.8-0.3
					C91,109.2,91.1,109.5,91.3,109.4L91.3,109.4z"/>
			</g>
		</g>
	</g>
	<g>
		<g>
			<g>
				<path class="st1" d="M68.9,125.9c-3.3-3.4-8.1-3.7-12.5-2.8c-0.2,0-0.1,0.3,0.1,0.3c4.3-0.9,9.1-0.7,12.2,2.7
					C68.8,126.2,69,126,68.9,125.9L68.9,125.9z"/>
			</g>
		</g>
	</g>
	<g>
		<g>
			<g>
				<path class="st1" d="M74.5,125.9c1.5-2.9,4.9-2.9,7.7-2.8c0.2,0,0.2-0.3,0-0.3c-2.9-0.1-6.5,0-8,3
					C74.1,126,74.4,126.1,74.5,125.9L74.5,125.9z"/>
			</g>
		</g>
	</g>
	<g>
		<g>
			<g>
				<path class="st1" d="M97.1,124.5c7.2,3.4,14.9,0,20.3-5.1c0.1-0.1-0.1-0.3-0.2-0.2c-5.3,4.9-12.9,8.3-19.9,5
					C97.1,124.1,96.9,124.4,97.1,124.5L97.1,124.5z"/>
			</g>
		</g>
	</g>
	<g>
		<g>
			<g>
				<path class="st1" d="M23.6,123.1c2.1,4.3,6.7,6.9,11.4,7c5,0.1,9.7-2.6,12.3-6.8c0.1-0.2-0.2-0.3-0.3-0.1
					c-2.6,4.1-7.2,6.8-12,6.7c-4.6-0.1-9.1-2.7-11.1-6.9C23.8,122.8,23.6,123,23.6,123.1L23.6,123.1z"/>
			</g>
		</g>
	</g>
	<g>
		<g>
			<g>
				<path class="st1" d="M101.4,129.1c2.7,0.9,5.6,0.9,8.4,0.2c0.2,0,0.1-0.3-0.1-0.3c-2.7,0.8-5.5,0.7-8.2-0.2
					C101.3,128.8,101.2,129,101.4,129.1L101.4,129.1z"/>
			</g>
		</g>
	</g>
	<g>
		<g>
			<g>
				<path class="st1" d="M33.4,128c1.4,0.4,2.8,0.3,4-0.3c0.2-0.1,0-0.3-0.1-0.3c-1.2,0.6-2.5,0.7-3.8,0.3
					C33.3,127.6,33.2,127.9,33.4,128L33.4,128z"/>
			</g>
		</g>
	</g>
	<g>
		<g>
			<g>
				<path class="st1" d="M32.9,115.3c0.6,0.5,0.8,1.4,0.4,2c-0.1,0.2,0.2,0.3,0.3,0.1c0.5-0.8,0.3-1.9-0.5-2.5
					C32.9,114.9,32.8,115.2,32.9,115.3L32.9,115.3z"/>
			</g>
		</g>
	</g>
	<g>
		<g>
			<g>
				<path class="st1" d="M52.1,117c-0.3-0.2-0.2-0.7,0.1-0.8c0.4-0.2,0.8,0.4,0.8,0.8c0,0.2,0.3,0.3,0.3,0.1
					c0.1-0.6-0.5-1.4-1.2-1.1c-0.5,0.2-0.6,1.1-0.1,1.4C52.1,117.4,52.2,117.1,52.1,117L52.1,117z"/>
			</g>
		</g>
	</g>
	<g>
		<g>
			<g>
				<path class="st1" d="M108.2,113.8c-0.7-0.3-0.9-1.2-0.5-1.7c0.1-0.2-0.1-0.3-0.3-0.1c-0.5,0.7-0.2,1.8,0.6,2.2
					C108.2,114.1,108.3,113.9,108.2,113.8L108.2,113.8z"/>
			</g>
		</g>
	</g>
	<g>
		<g>
			<g>
				<path class="st1" d="M87.9,120.7c-0.5-0.6-1.6-0.3-1.6,0.5c0,1.3,1.5,1.3,2.4,1.1c0.2,0,0.1-0.3-0.1-0.3
					c-0.6,0.1-1.5,0.2-1.9-0.4c-0.4-0.7,0.5-1.2,1-0.7C87.8,121.1,88,120.9,87.9,120.7L87.9,120.7z"/>
			</g>
		</g>
	</g>
</g>
</svg>
