<?xml version="1.0" encoding="utf-8"?>
<!-- Generator: Adobe Illustrator 24.0.1, SVG Export Plug-In . SVG Version: 6.00 Build 0)  -->
<svg version="1.1" id="Layer_1" xmlns="http://www.w3.org/2000/svg" xmlns:xlink="http://www.w3.org/1999/xlink" x="0px" y="0px"
	 viewBox="0 0 141.7 141.7" style="enable-background:new 0 0 141.7 141.7;" xml:space="preserve">
<style type="text/css">
	.st0{fill:#231F20;}
	.st1{fill:#070707;}
</style>
<g id="Layer_1_1_">
</g>
<g id="Layer_1_2_">
</g>
<g id="Layer_1_3_">
</g>
<g id="Layer_1_4_">
</g>
<g id="Layer_1_5_">
</g>
<g id="Layer_3">
</g>
<g id="Layer_3_1_">
</g>
<g id="Layer_1_6_">
</g>
<g id="Layer_1_7_">
</g>
<g id="Layer_1_8_">
</g>
<g id="Layer_1_9_">
</g>
<g id="Layer_1_10_">
</g>
<g id="Layer_1_11_">
</g>
<g id="Layer_1_12_">
</g>
<g id="Layer_1_13_">
</g>
<g id="Layer_1_14_">
</g>
<g id="Layer_1_15_">
</g>
<g id="Layer_1_16_">
</g>
<g id="Layer_1_17_">
</g>
<g id="Layer_1_18_">
</g>
<g id="Layer_1_19_">
</g>
<g id="Layer_1_20_">
</g>
<g>
	<g>
		<g>
			<g>
				<path class="st0" d="M54.9,126.7c1.3-29.6-5.9-60.1,3.2-89c2.1-6.6,5-12.9,8.9-18.5c1-1.5,2.5-3.7,4.5-2.1c1.3,1.1,2,3,2.7,4.6
					C75.7,25.1,77,28.5,78,32c4.2,13.8,5.4,28.2,5.8,42.6c0.5,17.6,0.3,35.3-0.1,52.9c0.2,0,0.5,0,0.7,0c0-0.3,0-0.7,0-1
					c0-0.4-0.7-0.4-0.7,0c0,0.3,0,0.7,0,1c0,0.4,0.7,0.4,0.7,0c0.3-16.7,0.5-33.4,0.1-50c-0.3-14.9-1.4-29.9-5.5-44.3
					c-1-3.5-2.2-7-3.7-10.5c-0.9-2.2-1.9-5.8-4.4-6.8c-2.7-1-4.6,3-5.8,4.8c-1.9,2.9-3.5,6-4.9,9.1c-5.6,12.7-7.4,26.8-7.6,40.6
					c-0.3,18.8,2.3,37.5,1.4,56.3C54.2,127.2,54.9,127.2,54.9,126.7L54.9,126.7z"/>
			</g>
		</g>
	</g>
	<g>
		<g>
			<g>
				<path class="st0" d="M35.9,128.2c11.3-0.9,22.6-0.7,33.9-0.5c11.3,0.2,22.6,0.6,33.9,1.1c0.4,0,0.4-0.7,0-0.7
					c-11.3-0.5-22.6-1-33.9-1.1c-11.3-0.2-22.6-0.4-33.9,0.5C35.5,127.6,35.5,128.2,35.9,128.2L35.9,128.2z"/>
			</g>
		</g>
	</g>
	<g>
		<g>
			<g>
				<path class="st0" d="M36.1,127.8c-1.2-1.2,0.5-3.5,1-4.6c0.7-1.4,1.5-2.9,2.3-4.3c1.5-2.8,3-5.5,4.6-8.3
					c3.2-5.5,6.5-10.8,10-16.1c0.2-0.4-0.4-0.7-0.6-0.4c-4,6-7.8,12.1-11.3,18.3c-1.7,3.1-3.4,6.1-5,9.2c-0.8,1.6-3.2,4.8-1.5,6.6
					C35.9,128.6,36.4,128.1,36.1,127.8L36.1,127.8z"/>
			</g>
		</g>
	</g>
	<g>
		<g>
			<g>
				<path class="st0" d="M84.1,92.2c3.6,6.2,7.2,12.3,10.7,18.5c1.7,2.9,3.5,5.9,5.1,8.9c0.8,1.4,1.6,2.9,2.3,4.5
					c0.4,0.8,0.7,1.6,1,2.5c0.1,0.2,0.5,0.9,0.4,1.2c-0.1,0.4-0.3,0.4-0.7,0.6c-0.4,0.2-0.1,0.8,0.4,0.6c0.3-0.2,0.7-0.3,1-0.5
					c0.1-0.1,0.2-0.2,0.2-0.4c-2.1-6.3-5.8-11.9-9.1-17.6c-3.6-6.2-7.2-12.3-10.7-18.5C84.4,91.5,83.9,91.8,84.1,92.2L84.1,92.2z"/>
			</g>
		</g>
	</g>
	<g>
		<g>
			<g>
				<path class="st0" d="M67.8,127.3c0.1-9.5,0.2-19,0.4-28.5c0-1.2,0-2.3,0.1-3.5c0-1-0.1-2.2,0.2-3.1c0.8-1.9,2.2-0.1,2.5,1
					c0.3,1.1,0.3,2.5,0.3,3.6c0.1,4.6-0.3,9.2-0.5,13.8c-0.2,5.4-0.5,10.9-0.7,16.3c0,0.4,0.7,0.4,0.7,0c0.2-5.6,0.5-11.2,0.7-16.8
					c0.1-2.8,0.2-5.6,0.4-8.4c0.1-2.6,0.2-5.3-0.1-7.9c-0.2-1.1-0.6-2.7-1.9-3.1c-1.3-0.4-2.1,0.8-2.3,1.9c-0.4,2.3-0.1,4.9-0.2,7.3
					c0,2.8-0.1,5.6-0.1,8.4c-0.1,6.3-0.2,12.6-0.2,19C67.1,127.8,67.8,127.8,67.8,127.3L67.8,127.3z"/>
			</g>
		</g>
	</g>
	<g>
		<g>
			<g>
				<path class="st0" d="M69,91.4c0.1,11.9,0,23.8-0.2,35.7c0,0.2,0.3,0.2,0.3,0c0.2-11.9,0.3-23.8,0.2-35.7
					C69.4,91.2,69,91.2,69,91.4L69,91.4z"/>
			</g>
		</g>
	</g>
	<g>
		<g>
			<g>
				<path class="st0" d="M57.1,41.2c7.8-0.4,15.6-0.6,23.4-0.6c0.2,0,0.2-0.4,0-0.3c-7.8,0-15.6,0.2-23.4,0.6
					C56.9,40.9,56.9,41.2,57.1,41.2L57.1,41.2z"/>
			</g>
		</g>
	</g>
	<g>
		<g>
			<g>
				<path class="st0" d="M53.7,59.5c9.8-0.2,19.5-0.5,29.3-0.7c0.2,0,0.2-0.4,0-0.3c-9.8,0.2-19.5,0.5-29.3,0.7
					C53.5,59.2,53.5,59.5,53.7,59.5L53.7,59.5z"/>
			</g>
		</g>
	</g>
	<g>
		<g>
			<g>
				<path class="st0" d="M53.1,76.9c10.2-0.1,20.4-0.6,30.6-1.5c0.2,0,0.2-0.4,0-0.3c-10.2,0.9-20.4,1.4-30.6,1.5
					C52.9,76.6,52.9,76.9,53.1,76.9L53.1,76.9z"/>
			</g>
		</g>
	</g>
	<g>
		<g>
			<g>
				<path class="st0" d="M42.4,113.8c0.1-0.2,0.1-0.4,0.2-0.5c-0.1-0.1-0.2-0.1-0.3-0.2c-0.3,2.3-0.6,4.6-0.7,6.9
					c0,0.6-0.2,7.2,0,7.2c0.2,0,0.2-0.4,0-0.3c0,0-0.1,0-0.1,0c-0.1,0-0.2,0.1-0.2,0.2c0,0.1,0,0.1,0,0.1s0,0.1,0.1,0.1
					c0,0,0.1,0,0.1,0.1c0.1,0.1,0.2,0,0.2,0c0.5-0.5,0.2-1.4,0.2-2.1c0-1.2,0-2.5,0-3.7c0.1-2.8,0.4-5.6,0.8-8.3
					c0-0.2-0.1-0.3-0.3-0.2c-0.3,0.3-0.4,0.5-0.3,0.9C42.1,114.1,42.4,114,42.4,113.8L42.4,113.8z"/>
			</g>
		</g>
	</g>
	<g>
		<g>
			<g>
				<path class="st0" d="M48.2,102.9c-0.3,7.9-0.6,15.9-1,23.8c0,0.2,0.3,0.2,0.3,0c0.3-7.9,0.6-15.9,1-23.8
					C48.5,102.7,48.2,102.7,48.2,102.9L48.2,102.9z"/>
			</g>
		</g>
	</g>
	<g>
		<g>
			<g>
				<path class="st0" d="M90.9,104.1c-0.4,8-0.7,16-0.9,23.9c0.1,0,0.2,0,0.3,0c0-0.4,0-0.7,0-1.1c0-0.2-0.4-0.2-0.3,0
					c0,0.4,0,0.7,0,1.1c0,0.2,0.3,0.2,0.3,0c0.2-8,0.5-16,0.9-23.9C91.2,103.8,90.9,103.8,90.9,104.1L90.9,104.1z"/>
			</g>
		</g>
	</g>
	<g>
		<g>
			<g>
				<path class="st0" d="M97.2,114.8c0,2.6,0,5.3-0.1,7.9c-0.1,1.2-0.1,2.5-0.2,3.7c0,0.4-0.4,1.5,0,1.7c0.1,0.1,0.2,0,0.2,0
					c0,0,0,0,0.1-0.1c0.1-0.2-0.1-0.4-0.2-0.2c0.5-0.6,0.4-2.2,0.4-3c0.1-1.1,0.1-2.3,0.2-3.4c0.1-2.2,0.1-4.4,0.1-6.6
					C97.5,114.6,97.2,114.6,97.2,114.8L97.2,114.8z"/>
			</g>
		</g>
	</g>
	<g>
		<g>
			<g>
				<path class="st0" d="M54.8,123.7c4.1,0.2,8.2,0.2,12.3-0.2c0.2,0,0.2-0.4,0-0.3c-4.1,0.4-8.2,0.5-12.3,0.2
					C54.6,123.3,54.6,123.7,54.8,123.7L54.8,123.7z"/>
			</g>
		</g>
	</g>
	<g>
		<g>
			<g>
				<path class="st0" d="M71.1,123.7c4.3,0.1,8.6,0.1,12.9,0.1c0.2,0,0.2-0.3,0-0.3c-4.3-0.1-8.6-0.1-12.9-0.1
					C70.9,123.4,70.9,123.7,71.1,123.7L71.1,123.7z"/>
			</g>
		</g>
	</g>
	<g>
		<path class="st0" d="M38.7,126.4l-0.4-1.1l-1.1-0.3l0.9-0.7l-0.1-1.2l1,0.7l1.1-0.4l-0.3,1.1l0.7,0.9l-1.2,0.1L38.7,126.4z
			 M37.4,125l0.9,0.2l0.3,0.9l0.5-0.8l1,0l-0.6-0.7l0.2-0.9l-0.9,0.4l-0.8-0.5l0.1,1L37.4,125z"/>
	</g>
	<g>
		<path class="st0" d="M99.8,126.9l-0.4-1.1l-1.1-0.3l0.9-0.7l-0.1-1.2l1,0.7l1.1-0.4l-0.3,1.1l0.7,0.9l-1.2,0.1L99.8,126.9z
			 M98.6,125.4l0.9,0.2l0.3,0.9l0.5-0.8l1,0l-0.6-0.7l0.2-0.9l-0.9,0.4l-0.8-0.5l0.1,1L98.6,125.4z"/>
	</g>
	<g>
		<path class="st0" d="M68.6,53.4c-2.4,0-4.3-1.9-4.3-4.3c0-2.4,1.9-4.3,4.3-4.3c2.4,0,4.3,1.9,4.3,4.3C72.9,51.5,71,53.4,68.6,53.4
			z M68.6,45.4c-2.1,0-3.7,1.7-3.7,3.7s1.7,3.7,3.7,3.7s3.7-1.7,3.7-3.7S70.7,45.4,68.6,45.4z"/>
	</g>
	<g>
		<path class="st0" d="M68.6,69.7c-1.5,0-2.7-1.2-2.7-2.7c0-1.5,1.2-2.7,2.7-2.7c1.5,0,2.7,1.2,2.7,2.7
			C71.3,68.5,70.1,69.7,68.6,69.7z M68.6,64.9c-1.2,0-2.1,1-2.1,2.1c0,1.2,1,2.1,2.1,2.1s2.1-1,2.1-2.1
			C70.8,65.9,69.8,64.9,68.6,64.9z"/>
	</g>
	<g>
		<path class="st0" d="M70,85.9C68.9,85.9,68,85,68,84c0-1.1,0.9-1.9,1.9-1.9s1.9,0.9,1.9,1.9C71.9,85,71,85.9,70,85.9z M70,82.6
			c-0.8,0-1.4,0.6-1.4,1.4c0,0.8,0.6,1.4,1.4,1.4c0.8,0,1.4-0.6,1.4-1.4C71.3,83.2,70.7,82.6,70,82.6z"/>
	</g>
	<g>
		<path class="st0" d="M57.1,69.9c-0.6,0-1.1-1.1-1.1-2.5c0-1.4,0.5-2.5,1.1-2.5s1.1,1.1,1.1,2.5C58.2,68.9,57.7,69.9,57.1,69.9z
			 M57.1,65.1c-0.4,0-0.8,0.9-0.8,2.3c0,1.3,0.4,2.3,0.8,2.3s0.8-0.9,0.8-2.3C57.9,66.1,57.5,65.1,57.1,65.1z"/>
	</g>
	<g>
		<path class="st0" d="M57.9,54.6C57.9,54.6,57.9,54.6,57.9,54.6c-0.4,0-0.6-0.6-0.7-1.6c-0.1-0.9,0-2.1,0.1-3.4
			c0.2-1.3,0.4-2.4,0.7-3.3c0.3-1,0.7-1.4,1-1.4h0c0.8,0.1,0.7,3,0.5,5c-0.2,1.3-0.4,2.4-0.7,3.3C58.5,54.2,58.2,54.6,57.9,54.6z
			 M59,45.2c-0.1,0-0.4,0.2-0.7,1.2c-0.3,0.9-0.5,2-0.7,3.3c-0.2,1.2-0.2,2.4-0.1,3.3c0.1,1,0.3,1.3,0.4,1.3c0.1,0,0.4-0.2,0.7-1.2
			c0.3-0.9,0.5-2,0.7-3.3C59.7,47.1,59.4,45.3,59,45.2L59,45.2C59,45.2,59,45.2,59,45.2z"/>
	</g>
	<g>
		<path class="st0" d="M56.9,86.1c-0.6,0-1.1-0.8-1.1-1.8c0-1,0.5-1.8,1.1-1.8c0.6,0,1.1,0.8,1.1,1.8C58.1,85.3,57.6,86.1,56.9,86.1
			z M56.9,82.8c-0.5,0-0.8,0.7-0.8,1.6c0,0.8,0.4,1.6,0.8,1.6c0.5,0,0.8-0.7,0.8-1.6C57.8,83.5,57.4,82.8,56.9,82.8z"/>
	</g>
	<g>
		<path class="st0" d="M68.6,54.7c-3.1,0-5.6-2.5-5.6-5.6s2.5-5.6,5.6-5.6s5.6,2.5,5.6,5.6S71.8,54.7,68.6,54.7z M68.6,44
			c-2.8,0-5.1,2.3-5.1,5.1c0,2.8,2.3,5.1,5.1,5.1s5.1-2.3,5.1-5.1C73.7,46.3,71.5,44,68.6,44z"/>
	</g>
	<g>
		<path class="st0" d="M68.6,71.4c-2.4,0-4.3-1.9-4.3-4.3c0-2.4,1.9-4.3,4.3-4.3c2.4,0,4.3,1.9,4.3,4.3C72.9,69.4,71,71.4,68.6,71.4
			z M68.6,63.3c-2.1,0-3.8,1.7-3.8,3.8c0,2.1,1.7,3.8,3.8,3.8c2.1,0,3.8-1.7,3.8-3.8C72.4,65,70.7,63.3,68.6,63.3z"/>
	</g>
	<g>
		<path class="st0" d="M69.8,86.9c-1.6,0-2.9-1.3-2.9-2.9c0-1.6,1.3-2.9,2.9-2.9c1.6,0,2.9,1.3,2.9,2.9
			C72.7,85.6,71.4,86.9,69.8,86.9z M69.8,81.6c-1.3,0-2.3,1.1-2.3,2.3c0,1.3,1.1,2.3,2.3,2.3c1.3,0,2.3-1.1,2.3-2.3
			C72.2,82.7,71.1,81.6,69.8,81.6z"/>
	</g>
	<g>
		<path class="st1" d="M66.4,51.2c1.2,1.2,3.2,1.2,4.4,0c1.2-1.2,1.2-3.2,0-4.4c-1.2-1.2-3.2-1.2-4.4,0C65.2,48,65.2,50,66.4,51.2z
			 M69.1,46.7c0.4,0.4,0.4,0.9,0,1.3s-0.9,0.4-1.3,0s-0.4-0.9,0-1.3S68.7,46.4,69.1,46.7z"/>
	</g>
	<g>
		<path class="st1" d="M67.6,68.1c0.6,0.6,1.6,0.6,2.2,0c0.6-0.6,0.6-1.6,0-2.2s-1.6-0.6-2.2,0C67,66.5,67,67.5,67.6,68.1z
			 M68.9,65.9c0.2,0.2,0.2,0.5,0,0.6c-0.2,0.2-0.5,0.2-0.6,0c-0.2-0.2-0.2-0.5,0-0.6C68.5,65.7,68.8,65.7,68.9,65.9z"/>
	</g>
	<g>
		<path class="st1" d="M69.2,84.7c0.4,0.4,1,0.4,1.3,0s0.4-1,0-1.3c-0.4-0.4-1-0.4-1.3,0C68.8,83.8,68.8,84.3,69.2,84.7z M70,83.4
			c0.1,0.1,0.1,0.3,0,0.4c-0.1,0.1-0.3,0.1-0.4,0c-0.1-0.1-0.1-0.3,0-0.4C69.7,83.3,69.9,83.3,70,83.4z"/>
	</g>
	<g>
		<g>
			<g>
				<path class="st1" d="M66.9,19.9c0.1-0.4-0.1-0.4-0.4-0.1c-0.1,0-0.1,0-0.2,0.1c-0.2,0.1-0.3,0.3-0.4,0.4c-0.4,0.5-0.8,1-1.2,1.6
					c-0.6,1-1.1,2.3-0.8,3.5c0.3,1,1.2,2,2.3,2.1c1.7,0.2,2.9-1.4,4.6-1.2c1,0.1,1.9,1.1,3,1c1.1-0.1,1.4-1.3,1.6-2.2
					c0.4-2.7-1.5-4.8-3.7-6.1c-0.2-0.1-0.4,0.2-0.2,0.3c1.9,1.1,3.7,2.9,3.5,5.2c0,0.8-0.3,2.2-1.2,2.5c-0.5,0.1-1.1-0.2-1.6-0.4
					c-0.6-0.3-1.1-0.6-1.8-0.6c-0.8-0.1-1.6,0.3-2.3,0.6c-1.6,0.7-3.5,0.8-4.1-1.3c-0.5-2,1.2-4.5,2.9-5.4c0.1-0.1,0.1-0.2,0.1-0.2
					c0,0,0,0,0,0c0-0.1-0.1-0.1-0.2-0.1c-0.1,0-0.1,0-0.2,0.1C66.6,19.6,66.7,19.9,66.9,19.9L66.9,19.9z"/>
			</g>
		</g>
	</g>
	<g>
		<g>
			<g>
				<path class="st1" d="M74.1,26.9c0.6,1.6,1,3.7,0.3,5.2c-0.5,1.2-2,2-3.2,1.2c-0.5-0.4-0.7-1-1-1.6c-0.1-0.2-0.4,0-0.3,0.2
					c0.4,0.7,0.6,1.6,1.3,1.9c0.8,0.4,1.8,0.2,2.5-0.3c2-1.4,1.4-4.9,0.7-6.7C74.4,26.6,74,26.7,74.1,26.9L74.1,26.9z"/>
			</g>
		</g>
	</g>
	<g>
		<path class="st1" d="M74.6,18.4c0-2-2.2-3.7-4.9-3.7s-4.9,1.7-4.9,3.7s2.2,3.7,4.9,3.7C72.4,22.2,74.6,20.5,74.6,18.4z"/>
	</g>
	<g>
		<g>
			<g>
				<path class="st1" d="M70,26.2c0.3,1.4,0.2,3.2,0,4.6c-0.1,0.8-0.3,1.9-0.9,2.5c-0.7,0.7-2,0.7-2.7,0c-1.5-1.4-1.1-4.5-0.5-6.2
					c0.1-0.2-0.3-0.3-0.3-0.1c-0.6,2-1.1,6.3,1.6,7c1.3,0.4,2.4-0.3,2.9-1.5c0.4-1,0.5-2.2,0.5-3.3c0-1,0.1-2.1-0.1-3.1
					C70.3,25.9,69.9,26,70,26.2L70,26.2z"/>
			</g>
		</g>
	</g>
	<g>
		<g>
			<g>
				<path class="st1" d="M84.3,76.2c0.8,0.4,2,0,2.9,0.2c1.9,0.4,3.8,1.4,4.6,3.2c0.9,2.1,0.1,4.5-2.5,4c-1.9-0.3-3.3-1.6-4.6-2.9
					c-0.2-0.2-0.4,0.1-0.2,0.2c1.5,1.4,3.1,2.9,5.2,3.1c1.5,0.1,2.6-0.7,2.8-2.2c0.2-1.8-0.8-3.5-2.2-4.5c-0.9-0.7-2.1-1.1-3.2-1.3
					c-0.8-0.1-1.9,0.2-2.6-0.1C84.3,75.8,84.1,76.1,84.3,76.2L84.3,76.2z"/>
			</g>
		</g>
	</g>
	<g>
		<g>
			<g>
				<path class="st1" d="M88.8,80.8c1.3,0.4,2.8,1.4,2,2.9c-0.1,0.2,0.2,0.4,0.3,0.2c0.9-1.7-0.7-2.9-2.2-3.4
					C88.7,80.4,88.6,80.8,88.8,80.8L88.8,80.8z"/>
			</g>
		</g>
	</g>
	<g>
		<g>
			<g>
				<path class="st1" d="M53.5,77.5c-2.5-0.4-5.1,0.7-6.9,2.4c-1.3,1.2-2,2.9-0.2,4c0.2,0.1,0.4-0.2,0.2-0.3c-2.2-1.2,0-3.4,1.3-4.3
					c1.6-1.1,3.5-1.8,5.5-1.5C53.6,77.8,53.7,77.5,53.5,77.5L53.5,77.5z"/>
			</g>
		</g>
	</g>
	<g>
		<g>
			<g>
				<path class="st1" d="M48.3,82c-0.7,0.4-1.7,1-1.7,1.9c0,0.8,0.8,1.3,1.6,1.4c2.1,0.4,4.4-2,5.5-3.5c0.1-0.2-0.2-0.4-0.3-0.2
					c-0.9,1.2-2.2,2.3-3.5,3c-0.8,0.4-2.3,0.7-2.9-0.3c-0.5-0.9,0.8-1.7,1.4-2C48.7,82.2,48.5,81.9,48.3,82L48.3,82z"/>
			</g>
		</g>
	</g>
</g>
</svg>
