<?xml version="1.0" encoding="utf-8"?>
<!-- Generator: Adobe Illustrator 24.0.1, SVG Export Plug-In . SVG Version: 6.00 Build 0)  -->
<svg version="1.1" id="Layer_1" xmlns="http://www.w3.org/2000/svg" xmlns:xlink="http://www.w3.org/1999/xlink" x="0px" y="0px"
	 viewBox="0 0 141.7 141.7" style="enable-background:new 0 0 141.7 141.7;" xml:space="preserve">
<style type="text/css">
	.st0{fill:#231F20;}
	.st1{fill:#070707;}
</style>
<g id="Layer_1_1_">
</g>
<g id="Layer_1_2_">
</g>
<g id="Layer_1_3_">
</g>
<g id="Layer_1_4_">
</g>
<g id="Layer_1_5_">
</g>
<g id="Layer_3">
</g>
<g id="Layer_3_1_">
</g>
<g id="Layer_1_6_">
</g>
<g id="Layer_1_7_">
</g>
<g id="Layer_1_8_">
</g>
<g id="Layer_1_9_">
</g>
<g id="Layer_1_10_">
</g>
<g id="Layer_1_11_">
</g>
<g id="Layer_1_12_">
</g>
<g id="Layer_1_13_">
</g>
<g id="Layer_1_14_">
</g>
<g id="Layer_1_15_">
</g>
<g id="Layer_1_16_">
</g>
<g id="Layer_1_17_">
</g>
<g id="Layer_1_18_">
</g>
<g id="Layer_1_19_">
</g>
<g id="Layer_1_20_">
</g>
<g>
	<g>
		<g>
			<g>
				<g>
					<path class="st0" d="M49,86.8C65.3,67.1,76.3,42.6,97.3,27c4.8-3.6,10-6.6,15.6-8.6c1.2-0.4,2.9-1.3,4.2-1.2
						c2.6,0.1,1.8,3.4,1.4,4.9c-0.7,3-1.5,6-2.6,8.9c-4.2,12.2-11.2,23.3-18.6,33.8c-9.2,12.9-18.9,25.4-28.7,37.8
						c0.2,0.1,0.4,0.3,0.6,0.4c0.2-0.2,0.4-0.5,0.5-0.7c0.3-0.4-0.4-0.7-0.7-0.4c-0.2,0.2-0.4,0.5-0.5,0.7c-0.2,0.3,0.3,0.8,0.6,0.4
						c9.2-11.6,18.3-23.4,26.9-35.4C104,56.8,111.3,45.5,116,33c1.2-3.1,2.2-6.3,3-9.6c0.4-1.8,1.5-4.9-0.1-6.5
						c-0.7-0.7-1.7-0.7-2.6-0.5c-1.6,0.3-3.2,1-4.8,1.6c-2.7,1-5.3,2.3-7.8,3.7C93,27.9,84.2,37,76.7,46.8
						c-9.9,12.8-17.9,27-28.3,39.5C48.1,86.6,48.7,87.2,49,86.8L49,86.8z"/>
				</g>
			</g>
		</g>
		<g>
			<g>
				<g>
					<path class="st0" d="M34.8,77.7c8.3,5.3,16.2,11.5,23.9,17.6c7.8,6.2,15.6,12.5,23.2,18.9c0.4,0.3,0.9-0.2,0.5-0.5
						c-7.8-6.5-15.7-13-23.7-19.3c-7.7-6.1-15.4-12.1-23.7-17.4C34.8,76.8,34.4,77.5,34.8,77.7L34.8,77.7z"/>
				</g>
			</g>
		</g>
		<g>
			<g>
				<g>
					<path class="st0" d="M35.2,77.5c-0.1-1.5,2.3-2.3,3.4-2.8c1.3-0.6,2.6-1.2,3.8-1.8c2.4-1.1,4.8-2.2,7.2-3.2
						c5.2-2.2,10.5-4.2,15.8-6.1c0.4-0.1,0.3-0.9-0.2-0.7c-5.9,2.1-11.8,4.3-17.5,6.8c-2.9,1.2-5.7,2.5-8.5,3.9
						c-1.5,0.7-4.9,1.7-4.7,3.9C34.5,77.9,35.2,77.9,35.2,77.5L35.2,77.5z"/>
				</g>
			</g>
		</g>
		<g>
			<g>
				<g>
					<path class="st0" d="M87.7,78c-0.7,6.1-1.5,12.1-2.2,18.2c-0.7,5.9-1.1,11.9-3,17.6c0.1-0.1,0.3-0.2,0.4-0.3
						c-0.3-0.1-0.6-0.1-1-0.2c-0.5-0.1-0.7,0.6-0.2,0.7c0.3,0.1,0.6,0.1,1,0.2c0.2,0,0.4-0.1,0.4-0.3c1.8-5.5,2.2-11.5,2.9-17.2
						c0.8-6.2,1.5-12.5,2.3-18.7C88.5,77.5,87.8,77.5,87.7,78L87.7,78z"/>
				</g>
			</g>
		</g>
		<g>
			<g>
				<g>
					<path class="st0" d="M57.7,94c3.3-4.2,6.5-8.4,9.8-12.6c1.6-2,3.1-4,4.7-6.1c0.9-1.1,1.7-2.2,2.6-3.3c0.4-0.5,0.7-1,1.1-1.4
						c0.5-0.7,2.3-1.5,2.3,0c0,1-0.8,2.1-1.4,2.9c-0.8,1.2-1.7,2.3-2.6,3.4c-1.6,1.9-3.2,3.8-4.8,5.8c-3.3,4-6.7,8.1-10,12.1
						c-0.3,0.4,0.2,0.9,0.5,0.5c3.1-3.8,6.3-7.6,9.5-11.5c2.9-3.5,6.2-7,8.6-10.9c0.6-0.9,1.2-2.3,0.7-3.4c-0.4-1-1.5-1.1-2.4-0.6
						c-0.7,0.4-1.2,1.1-1.7,1.8c-0.8,1-1.6,2-2.4,3c-1.6,2-3.1,4-4.7,6.1c-3.5,4.5-7,9-10.5,13.6C56.9,93.9,57.4,94.4,57.7,94
						L57.7,94z"/>
				</g>
			</g>
		</g>
		<g>
			<g>
				<g>
					<path class="st0" d="M77.6,69.4c-6.3,8.4-12.6,16.7-19.1,25c-0.1,0.2,0.1,0.4,0.3,0.3c6.5-8.3,12.9-16.6,19.2-25
						C78.1,69.4,77.7,69.2,77.6,69.4L77.6,69.4z"/>
				</g>
			</g>
		</g>
		<g>
			<g>
				<g>
					<path class="st0" d="M96,27.8c5.7,3.9,11.3,7.9,16.8,12c0.2,0.1,0.4-0.2,0.2-0.3c-5.5-4.1-11.1-8.1-16.8-12
						C96,27.4,95.8,27.7,96,27.8L96,27.8z"/>
				</g>
			</g>
		</g>
		<g>
			<g>
				<g>
					<path class="st0" d="M83.9,38.9c7,5.1,14,10.1,20.9,15.1c0.2,0.1,0.4-0.2,0.2-0.3C98,48.6,91,43.6,84,38.5
						C83.8,38.4,83.6,38.7,83.9,38.9L83.9,38.9z"/>
				</g>
			</g>
		</g>
		<g>
			<g>
				<g>
					<path class="st0" d="M74.2,50.8c7.2,5.4,14.6,10.5,22.3,15.2c0.2,0.1,0.4-0.2,0.2-0.3c-7.6-4.8-15.1-9.9-22.3-15.2
						C74.2,50.3,74,50.7,74.2,50.8L74.2,50.8z"/>
				</g>
			</g>
		</g>
		<g>
			<g>
				<g>
					<path class="st0" d="M47,71c0.1-0.1,0.3-0.2,0.4-0.3c-0.1-0.1-0.1-0.2-0.2-0.3c-0.7,0.7-8.4,9.2-8,9.5c0.2,0.1,0.4-0.2,0.2-0.3
						c0,0,0,0-0.1,0c-0.1-0.1-0.2,0-0.2,0c0,0-0.1,0.1-0.1,0.1c0,0.1-0.1,0.1-0.1,0.2c0,0,0,0.1,0,0.1c0,0.1,0.1,0.1,0.2,0.1
						c0.5-0.1,0.8-0.7,1-1.1c0.7-1,1.5-2.1,2.3-3.1c1.5-1.8,3.1-3.6,4.8-5.2c0.1-0.1,0-0.3-0.2-0.3c-0.4,0.1-0.4,0.1-0.6,0.4
						C46.6,71,46.9,71.2,47,71L47,71z"/>
				</g>
			</g>
		</g>
		<g>
			<g>
				<g>
					<path class="st0" d="M56.8,66.4c-4.4,5.4-8.9,10.8-13.3,16.2c-0.1,0.2,0.1,0.4,0.3,0.3c4.5-5.4,8.9-10.8,13.3-16.2
						C57.3,66.4,57,66.2,56.8,66.4L56.8,66.4z"/>
				</g>
			</g>
		</g>
		<g>
			<g>
				<g>
					<path class="st0" d="M86.2,89.9c-4.5,5.4-9,10.8-13.3,16.4c0.1,0.1,0.2,0.1,0.3,0.2c0.2-0.3,0.4-0.5,0.6-0.8
						c0.1-0.2-0.2-0.4-0.3-0.2c-0.2,0.3-0.4,0.5-0.6,0.8c-0.1,0.2,0.1,0.4,0.3,0.2c4.4-5.5,8.8-11,13.3-16.4
						C86.6,89.9,86.4,89.7,86.2,89.9L86.2,89.9z"/>
				</g>
			</g>
		</g>
		<g>
			<g>
				<g>
					<path class="st0" d="M84.9,100.8c-1.5,2-3,3.9-4.6,5.8c-0.7,0.8-1.5,1.7-2.2,2.5c-0.2,0.2-0.7,0.5-0.6,0.9
						c0,0.1,0.1,0.1,0.2,0.1c0,0,0,0,0.1,0c0.2,0,0.1-0.4-0.1-0.4c0.9-0.1,1.6-1.4,2.1-2c0.7-0.8,1.3-1.5,2-2.3
						c1.2-1.4,2.3-2.9,3.4-4.4C85.4,100.8,85,100.6,84.9,100.8L84.9,100.8z"/>
				</g>
			</g>
		</g>
		<g>
			<g>
				<g>
					<path class="st0" d="M50.5,84.5c2.8,2.4,5.7,4.5,8.8,6.4c0.2,0.1,0.4-0.2,0.2-0.3c-3.1-1.9-6-4-8.7-6.4
						C50.5,84.1,50.3,84.4,50.5,84.5L50.5,84.5z"/>
				</g>
			</g>
		</g>
		<g>
			<g>
				<g>
					<path class="st0" d="M61.8,93.2c3,2.3,6,4.6,9,6.9c0.2,0.1,0.4-0.1,0.3-0.3c-3-2.3-6-4.6-9-6.9C61.9,92.8,61.7,93,61.8,93.2
						L61.8,93.2z"/>
				</g>
			</g>
		</g>
		<g>
			<path class="st0" d="M39.5,78.1l-0.9-0.6l-1,0.4l0.3-1L37.3,76l1,0l0.6-0.9l0.4,1l1,0.3L39.5,77L39.5,78.1z M38.7,77.3l0.7,0.5
				L39.3,77l0.7-0.5l-0.8-0.2l-0.3-0.8l-0.4,0.7l-0.8,0l0.5,0.6l-0.2,0.8L38.7,77.3z"/>
		</g>
		<g>
			<path class="st0" d="M82.2,111l-0.9-0.6l-1,0.4l0.3-1l-0.7-0.8l1.1,0l0.6-0.9l0.4,1l1,0.3l-0.8,0.6L82.2,111z M81.4,110.2
				l0.7,0.5l-0.1-0.8l0.7-0.5l-0.8-0.2l-0.3-0.8l-0.4,0.7l-0.8,0l0.5,0.7l-0.2,0.8L81.4,110.2z"/>
		</g>
		<g>
			<path class="st0" d="M99.9,43.3c-2.1,0-3.8-1.7-3.8-3.8c0-2.1,1.7-3.8,3.8-3.8c2.1,0,3.8,1.7,3.8,3.8
				C103.7,41.6,102,43.3,99.9,43.3z M99.9,36.3c-1.8,0-3.2,1.5-3.2,3.2c0,1.8,1.5,3.2,3.2,3.2c1.8,0,3.2-1.5,3.2-3.2
				C103.1,37.7,101.7,36.3,99.9,36.3z"/>
		</g>
		<g>
			<path class="st0" d="M90.3,54.5c-1.3,0-2.4-1.1-2.4-2.4s1.1-2.4,2.4-2.4c1.3,0,2.4,1.1,2.4,2.4S91.7,54.5,90.3,54.5z M90.3,50.3
				c-1,0-1.8,0.8-1.8,1.8c0,1,0.8,1.8,1.8,1.8c1,0,1.8-0.8,1.8-1.8C92.1,51.1,91.3,50.3,90.3,50.3z"/>
		</g>
		<g>
			<path class="st0" d="M82.2,66.4c-1,0-1.7-0.8-1.7-1.7s0.8-1.7,1.7-1.7s1.7,0.8,1.7,1.7S83.2,66.4,82.2,66.4z M82.2,63.6
				c-0.6,0-1.1,0.5-1.1,1.1c0,0.6,0.5,1.1,1.1,1.1c0.6,0,1.1-0.5,1.1-1.1C83.4,64.1,82.9,63.6,82.2,63.6z"/>
		</g>
		<g>
			<path class="st0" d="M81,48.1c-0.1,0-0.3,0-0.3-0.1c-0.2-0.2-0.3-0.5-0.2-1c0.1-0.4,0.4-0.9,0.7-1.4c0.8-1,1.7-1.5,2.2-1.2l0,0
				c0.2,0.2,0.3,0.5,0.2,1c-0.1,0.4-0.4,0.9-0.7,1.4c-0.4,0.5-0.8,0.8-1.1,1.1C81.5,48,81.2,48.1,81,48.1z M83.1,44.6
				c-0.4,0-1,0.4-1.6,1.2c-0.3,0.4-0.6,0.9-0.7,1.3c-0.1,0.3-0.1,0.6,0.1,0.7c0.1,0.1,0.4,0,0.7-0.1c0.4-0.2,0.7-0.6,1.1-1
				c0.3-0.4,0.6-0.9,0.7-1.3c0.1-0.3,0.1-0.6-0.1-0.7l0,0C83.2,44.6,83.1,44.6,83.1,44.6z"/>
		</g>
		<g>
			<path class="st0" d="M89.6,37.7c-0.1,0-0.2,0-0.3-0.1c-0.2-0.2-0.1-0.7,0.4-1.5c0.4-0.7,1.1-1.5,1.9-2.3c0.8-0.8,1.6-1.5,2.3-1.9
				c0.8-0.5,1.2-0.7,1.5-0.4c0.2,0.2,0.1,0.7-0.4,1.5c-0.4,0.7-1.1,1.5-1.9,2.3C92.2,36.2,90.4,37.7,89.6,37.7z M95.1,31.7
				c-0.1,0-0.4,0.1-1,0.5c-0.7,0.4-1.4,1.1-2.2,1.9c-0.8,0.8-1.4,1.6-1.9,2.3c-0.5,0.8-0.5,1.1-0.4,1.1c0.2,0.2,1.5-0.5,3.3-2.4
				c0.8-0.8,1.4-1.6,1.9-2.3C95.2,32,95.2,31.7,95.1,31.7L95.1,31.7C95.2,31.7,95.1,31.7,95.1,31.7z"/>
		</g>
		<g>
			<path class="st0" d="M72.4,59.4c-0.2,0-0.3,0-0.4-0.1c-0.5-0.3-0.4-1.2,0.2-1.9c0.3-0.3,0.6-0.6,0.9-0.7c0.3-0.1,0.7-0.1,0.9,0
				c0.2,0.2,0.3,0.5,0.3,0.9c0,0.3-0.2,0.7-0.5,1.1C73.3,59.1,72.8,59.4,72.4,59.4z M73.5,56.8c-0.1,0-0.2,0-0.3,0.1
				c-0.3,0.1-0.6,0.3-0.8,0.6c-0.4,0.6-0.5,1.3-0.2,1.5c0.3,0.2,0.9-0.1,1.4-0.6c0.2-0.3,0.4-0.6,0.4-0.9c0-0.3,0-0.5-0.2-0.6l0,0
				C73.7,56.8,73.6,56.8,73.5,56.8z"/>
		</g>
		<g>
			<path class="st0" d="M99.9,44.5c-2.8,0-5-2.3-5-5c0-2.8,2.3-5,5-5c2.8,0,5,2.3,5,5C104.9,42.3,102.6,44.5,99.9,44.5z M99.9,35.1
				c-2.4,0-4.4,2-4.4,4.4c0,2.4,2,4.4,4.4,4.4c2.4,0,4.4-2,4.4-4.4C104.3,37.1,102.3,35.1,99.9,35.1z"/>
		</g>
		<g>
			<path class="st0" d="M90.3,55.9c-2.1,0-3.9-1.7-3.9-3.9s1.7-3.9,3.9-3.9c2.1,0,3.9,1.7,3.9,3.9S92.4,55.9,90.3,55.9z M90.3,48.8
				c-1.8,0-3.3,1.5-3.3,3.3s1.5,3.3,3.3,3.3s3.3-1.5,3.3-3.3S92.1,48.8,90.3,48.8z"/>
		</g>
		<g>
			<path class="st0" d="M82.2,67.2c-1.4,0-2.6-1.2-2.6-2.6c0-1.4,1.2-2.6,2.6-2.6c1.4,0,2.6,1.2,2.6,2.6
				C84.8,66,83.6,67.2,82.2,67.2z M82.2,62.6c-1.1,0-2,0.9-2,2s0.9,2,2,2c1.1,0,2-0.9,2-2S83.3,62.6,82.2,62.6z"/>
		</g>
		<g>
			<path class="st1" d="M97.2,39.8c0.2,1.5,1.6,2.6,3.1,2.3c1.5-0.2,2.6-1.6,2.3-3.1c-0.2-1.5-1.6-2.6-3.1-2.3
				C98,36.9,97,38.3,97.2,39.8z M101.4,38.1c0.1,0.4-0.2,0.8-0.7,0.9c-0.4,0.1-0.8-0.2-0.9-0.7c-0.1-0.4,0.2-0.8,0.7-0.9
				C101,37.3,101.4,37.6,101.4,38.1z"/>
		</g>
		<g>
			<path class="st1" d="M89,52.3c0.1,0.7,0.8,1.3,1.5,1.2c0.7-0.1,1.3-0.8,1.2-1.5s-0.8-1.3-1.5-1.2C89.4,50.8,88.9,51.5,89,52.3z
				 M91.2,51.4c0,0.2-0.1,0.4-0.3,0.4c-0.2,0-0.4-0.1-0.4-0.3c0-0.2,0.1-0.4,0.3-0.4C90.9,51.1,91.1,51.2,91.2,51.4z"/>
		</g>
		<g>
			<path class="st1" d="M81.3,64.8c0.1,0.4,0.5,0.8,0.9,0.7c0.4-0.1,0.8-0.5,0.7-0.9c-0.1-0.4-0.5-0.8-0.9-0.7
				C81.5,63.9,81.2,64.3,81.3,64.8z M82.6,64.3c0,0.1-0.1,0.2-0.2,0.3c-0.1,0-0.2-0.1-0.3-0.2c0-0.1,0.1-0.2,0.2-0.3
				C82.5,64,82.5,64.1,82.6,64.3z"/>
		</g>
		<g>
			<g>
				<g>
					<path class="st1" d="M114.2,18.1c0.1,0,0.1,0.1,0.2,0.1c0-0.1,0-0.2,0-0.4c-0.3,0.1-0.7-0.1-1.1-0.1c-0.6,0.1-1.2,0.3-1.8,0.5
						c-0.9,0.4-1.8,1-2.3,1.9c-0.4,0.8-0.3,1.9,0.2,2.6c0.8,1.1,2.4,0.8,3.5,1.4c1.5,0.8,1.6,4,3.9,2.6c2.4-1.5,2.3-4.5,1.3-6.8
						c-0.1-0.2-0.4-0.1-0.4,0.1c0.9,2.1,1.1,5-1.2,6.4c-1.8,1.2-2.1-1.8-3.4-2.5c-0.7-0.4-1.5-0.4-2.2-0.7c-1.6-0.5-2.3-2.1-1.2-3.4
						c0.7-0.8,1.8-1.3,2.8-1.6c0.7-0.2,1.2,0,1.8-0.1c0.2,0,0.1-0.3,0-0.4c-0.1,0-0.1-0.1-0.2-0.1C114.1,17.6,114,18,114.2,18.1
						L114.2,18.1z"/>
				</g>
			</g>
		</g>
		<g>
			<g>
				<g>
					<path class="st1" d="M115.5,26.8c-0.4,1.3-1.1,2.6-2.1,3.4c-0.8,0.7-1.9,1-2.8,0.3c-0.9-0.7-0.5-1.5-0.4-2.4
						c0.1-0.2-0.3-0.3-0.4-0.1c-0.1,0.7-0.4,1.6,0,2.3c0.4,0.7,1.4,1.1,2.2,1c2-0.2,3.3-2.8,3.7-4.4
						C115.9,26.7,115.6,26.6,115.5,26.8L115.5,26.8z"/>
				</g>
			</g>
		</g>
		<g>
			<path class="st1" d="M120.4,21.1c1.1-1.5,0.4-3.8-1.5-5.2s-4.3-1.5-5.4,0s-0.4,3.8,1.5,5.2C116.9,22.6,119.3,22.6,120.4,21.1z"/>
		</g>
		<g>
			<g>
				<g>
					<path class="st1" d="M113,24.1c-0.5,1-1.4,2-2.1,2.9c-0.4,0.5-0.8,0.9-1.3,1.2c-0.9,0.6-2.1,0.5-2.7-0.5
						c-1-1.8,1.4-4.1,2.7-5.1c0.2-0.1,0-0.5-0.2-0.3c-1.5,1.1-4.2,3.9-2.6,5.9c2.2,2.9,5.7-2.2,6.6-3.9
						C113.4,24,113.1,23.8,113,24.1L113,24.1z"/>
				</g>
			</g>
		</g>
		<g>
			<g>
				<g>
					<path class="st1" d="M96.5,66.9c0.3,0.5,0.9,0.7,1.3,1.1c1.3,1,2.3,2.9,2.2,4.5c-0.1,1-0.5,2.3-1.5,2.8c-1.3,0.7-2.4-0.4-3-1.4
						c-0.7-1.1-0.9-2.4-1.1-3.7c0-0.2-0.4-0.1-0.4,0.1c0.3,1.8,0.7,4.1,2.4,5.2c1,0.7,2.1,0.5,2.9-0.4c1.1-1.2,1.2-3,0.7-4.5
						c-0.3-0.8-0.7-1.6-1.3-2.3c-0.5-0.6-1.5-1-1.9-1.7C96.7,66.5,96.3,66.7,96.5,66.9L96.5,66.9z"/>
				</g>
			</g>
		</g>
		<g>
			<g>
				<g>
					<path class="st1" d="M97.1,72.5c0.7,0.9,1.2,2.5-0.1,3.1c-0.2,0.1,0,0.4,0.2,0.3c1.5-0.7,1.1-2.5,0.3-3.6
						C97.3,72.1,97,72.3,97.1,72.5L97.1,72.5z"/>
				</g>
			</g>
		</g>
		<g>
			<g>
				<g>
					<path class="st1" d="M74.2,51.3c-1.5-1.6-4.1-2.3-6.2-2c-1.6,0.2-2.9,1.1-2.2,2.8c0.1,0.2,0.4,0,0.3-0.2
						c-0.3-0.7,0.1-1.6,0.7-1.9c0.2-0.1,0.5-0.2,0.7-0.2c0.7-0.1,1.3-0.1,2-0.1c1.6,0.1,3.2,0.7,4.4,1.9
						C74.1,51.7,74.3,51.5,74.2,51.3L74.2,51.3z"/>
				</g>
			</g>
		</g>
		<g>
			<g>
				<g>
					<path class="st1" d="M68.1,51.8c-0.7-0.1-1.8-0.2-2.3,0.5c-0.4,0.6,0,1.5,0.5,2c1.4,1.2,4,0.9,5.6,0.4c0.2-0.1,0.1-0.4-0.1-0.4
						c-1.1,0.3-2.3,0.4-3.4,0.3c-0.6-0.1-1.3-0.1-1.8-0.5c-0.2-0.2-0.4-0.4-0.6-0.7c0.1-0.4,0.1-0.8,0.2-1.2
						c0.3-0.4,1.3-0.2,1.6-0.1C68.3,52.2,68.3,51.8,68.1,51.8L68.1,51.8z"/>
				</g>
			</g>
		</g>
	</g>
	<g>
		<g>
			<g>
				<path class="st1" d="M46,90.2c-10,12.5-19.5,25.3-28.6,38.6c-0.1,0.2,0.2,0.4,0.3,0.2c9-13.2,18.5-26,28.5-38.5
					C46.4,90.2,46.1,90,46,90.2L46,90.2z"/>
			</g>
		</g>
	</g>
	<g>
		<g>
			<g>
				<path class="st1" d="M52.2,100.9c-2.7,3.7-5.5,7.3-8.4,10.9c-0.1,0.2,0.1,0.4,0.3,0.3c2.9-3.6,5.7-7.2,8.4-10.9
					C52.6,100.9,52.3,100.7,52.2,100.9L52.2,100.9z"/>
			</g>
		</g>
	</g>
	<g>
		<g>
			<g>
				<path class="st1" d="M56.5,105.5c-1.2,1.6-2.3,3.3-3.5,4.9c-0.1,0.2,0.2,0.4,0.3,0.2c1.2-1.6,2.3-3.3,3.5-4.9
					C57,105.5,56.7,105.3,56.5,105.5L56.5,105.5z"/>
			</g>
		</g>
	</g>
	<g>
		<g>
			<g>
				<path class="st1" d="M60,109.6c-0.5,0.7-1,1.5-1.4,2.3c-0.1,0.2,0.2,0.4,0.3,0.2c0.5-0.7,1-1.5,1.4-2.3
					C60.4,109.5,60.1,109.3,60,109.6L60,109.6z"/>
			</g>
		</g>
	</g>
	<g>
		<g>
			<g>
				<path class="st1" d="M49.3,94.9c-4.7,6.1-9.4,12.2-14.2,18.3c-0.1,0.2,0.1,0.4,0.3,0.3c4.7-6.1,9.4-12.2,14.2-18.3
					C49.7,95,49.5,94.7,49.3,94.9L49.3,94.9z"/>
			</g>
		</g>
	</g>
</g>
</svg>
