<?xml version="1.0" encoding="utf-8"?>
<!-- Generator: Adobe Illustrator 24.0.1, SVG Export Plug-In . SVG Version: 6.00 Build 0)  -->
<svg version="1.1" id="Layer_1" xmlns="http://www.w3.org/2000/svg" xmlns:xlink="http://www.w3.org/1999/xlink" x="0px" y="0px"
	 viewBox="0 0 141.7 141.7" style="enable-background:new 0 0 141.7 141.7;" xml:space="preserve">
<style type="text/css">
	.st0{fill:#231F20;}
	.st1{fill:#070707;}
</style>
<g id="Layer_1_1_">
</g>
<g id="Layer_1_2_">
</g>
<g id="Layer_1_3_">
</g>
<g id="Layer_1_4_">
</g>
<g id="Layer_1_5_">
</g>
<g id="Layer_3">
</g>
<g id="Layer_3_1_">
</g>
<g id="Layer_1_6_">
</g>
<g id="Layer_1_7_">
</g>
<g id="Layer_1_8_">
</g>
<g id="Layer_1_9_">
</g>
<g id="Layer_1_10_">
</g>
<g id="Layer_1_11_">
</g>
<g id="Layer_1_12_">
</g>
<g id="Layer_1_13_">
</g>
<g id="Layer_1_14_">
</g>
<g id="Layer_1_15_">
</g>
<g id="Layer_1_16_">
</g>
<g id="Layer_1_17_">
</g>
<g id="Layer_1_18_">
</g>
<g id="Layer_1_19_">
</g>
<g id="Layer_1_20_">
</g>
<g>
	<g>
		<g>
			<g>
				<g>
					<g>
						<path class="st0" d="M47.7,87.5c16.9-20.4,28.3-45.7,50-61.9c4.9-3.7,10.4-6.8,16.2-8.9c1.3-0.5,3-1.4,4.4-1.3
							c2.7,0.1,1.8,3.5,1.5,5.1c-0.7,3.1-1.6,6.2-2.6,9.2c-4.4,12.6-11.6,24.1-19.2,35C88.4,78.1,78.3,91,68.2,103.8
							c0.2,0.2,0.4,0.3,0.6,0.5c0.2-0.2,0.4-0.5,0.6-0.7c0.3-0.4-0.4-0.8-0.7-0.4c-0.2,0.2-0.4,0.5-0.6,0.7
							c-0.2,0.3,0.3,0.8,0.6,0.5c9.5-12.1,18.9-24.2,27.9-36.6c8.1-11.1,15.6-22.8,20.5-35.8c1.2-3.2,2.2-6.5,3.1-9.9
							c0.5-1.9,1.6-5.1-0.1-6.7c-0.7-0.7-1.7-0.7-2.6-0.6c-1.7,0.3-3.3,1-4.9,1.6c-2.8,1.1-5.4,2.4-8,3.8
							c-11.2,6.4-20.3,15.8-28,25.9C66.2,59.4,57.8,74.1,47.1,87C46.9,87.4,47.4,87.9,47.7,87.5L47.7,87.5z"/>
					</g>
				</g>
			</g>
			<g>
				<g>
					<g>
						<path class="st0" d="M33.1,78.1c8.6,5.5,16.7,11.9,24.8,18.3c8.1,6.4,16.1,12.9,24,19.6c0.4,0.3,0.9-0.2,0.6-0.6
							c-8.1-6.8-16.2-13.4-24.5-19.9c-8-6.3-16-12.5-24.5-18C33,77.2,32.7,77.9,33.1,78.1L33.1,78.1z"/>
					</g>
				</g>
			</g>
			<g>
				<g>
					<g>
						<path class="st0" d="M33.5,77.9c-0.2-1.6,2.4-2.3,3.5-2.9c1.3-0.6,2.6-1.3,4-1.9c2.5-1.1,5-2.2,7.5-3.3
							c5.4-2.3,10.8-4.4,16.3-6.3c0.5-0.2,0.3-0.9-0.2-0.7c-6.1,2.1-12.2,4.5-18.1,7c-3,1.3-5.9,2.6-8.8,4c-1.6,0.7-5.1,1.7-4.9,4
							C32.8,78.4,33.5,78.4,33.5,77.9L33.5,77.9z"/>
					</g>
				</g>
			</g>
			<g>
				<g>
					<g>
						<path class="st0" d="M87.8,78.4c-0.8,6.3-1.5,12.5-2.3,18.8c-0.7,6.1-1.1,12.4-3.1,18.2c0.2-0.1,0.3-0.2,0.5-0.3
							c-0.3-0.1-0.6-0.1-1-0.2c-0.5-0.1-0.7,0.6-0.2,0.7c0.3,0.1,0.6,0.1,1,0.2c0.2,0,0.4-0.1,0.5-0.3c1.9-5.7,2.3-11.9,3-17.8
							c0.8-6.5,1.6-12.9,2.4-19.4C88.6,78,87.9,78,87.8,78.4L87.8,78.4z"/>
					</g>
				</g>
			</g>
			<g>
				<g>
					<g>
						<path class="st0" d="M56.7,95c3.4-4.4,6.8-8.7,10.2-13.1c1.6-2.1,3.3-4.2,4.9-6.3c0.9-1.1,1.8-2.2,2.6-3.4
							c0.4-0.5,0.7-1,1.1-1.4c0.6-0.7,2.4-1.5,2.4,0c0,1-0.9,2.2-1.4,3c-0.8,1.2-1.8,2.4-2.7,3.5c-1.6,2-3.3,4-4.9,6
							c-3.4,4.2-6.9,8.4-10.4,12.5c-0.3,0.4,0.2,0.9,0.6,0.6c3.3-4,6.5-7.9,9.8-11.9c3-3.7,6.4-7.3,8.9-11.3c0.6-1,1.3-2.3,0.8-3.5
							c-0.5-1-1.6-1.1-2.5-0.6c-0.7,0.4-1.2,1.2-1.7,1.8c-0.8,1-1.6,2.1-2.5,3.1c-1.6,2.1-3.3,4.2-4.9,6.3c-3.6,4.7-7.3,9.3-10.9,14
							C55.9,94.9,56.5,95.4,56.7,95L56.7,95z"/>
					</g>
				</g>
			</g>
			<g>
				<g>
					<g>
						<path class="st0" d="M77.4,69.5c-6.5,8.7-13.1,17.3-19.8,25.8c-0.2,0.2,0.1,0.5,0.3,0.3c6.7-8.5,13.3-17.2,19.8-25.9
							C77.8,69.5,77.5,69.3,77.4,69.5L77.4,69.5z"/>
					</g>
				</g>
			</g>
			<g>
				<g>
					<g>
						<path class="st0" d="M96.4,26.5c5.9,4,11.7,8.2,17.4,12.4c0.2,0.2,0.4-0.2,0.2-0.3c-5.7-4.3-11.5-8.4-17.4-12.4
							C96.4,26,96.1,26.4,96.4,26.5L96.4,26.5z"/>
					</g>
				</g>
			</g>
			<g>
				<g>
					<g>
						<path class="st0" d="M83.8,37.9c7.2,5.2,14.4,10.4,21.7,15.6c0.2,0.2,0.4-0.2,0.2-0.3C98.5,48,91.2,42.8,84,37.6
							C83.8,37.5,83.6,37.8,83.8,37.9L83.8,37.9z"/>
					</g>
				</g>
			</g>
			<g>
				<g>
					<g>
						<path class="st0" d="M73.8,50.3c7.5,5.6,15.2,10.8,23.1,15.8c0.2,0.1,0.4-0.2,0.2-0.3C89.2,60.8,81.5,55.5,74,50
							C73.8,49.8,73.6,50.2,73.8,50.3L73.8,50.3z"/>
					</g>
				</g>
			</g>
			<g>
				<g>
					<g>
						<path class="st0" d="M45.7,71.2c0.2-0.1,0.3-0.2,0.4-0.3c-0.1-0.1-0.1-0.2-0.2-0.3c-0.7,0.7-8.7,9.5-8.2,9.9
							c0.2,0.2,0.4-0.2,0.2-0.3c0,0,0,0-0.1,0c-0.1-0.1-0.2,0-0.2,0c0,0-0.1,0.1-0.1,0.1c0,0.1-0.1,0.1-0.1,0.2c0,0,0,0.1,0,0.1
							c0,0.1,0.1,0.2,0.2,0.1c0.5-0.1,0.8-0.8,1.1-1.2c0.8-1.1,1.6-2.2,2.4-3.2c1.5-1.9,3.2-3.7,4.9-5.4c0.2-0.2,0-0.3-0.2-0.3
							c-0.5,0.1-0.4,0.1-0.6,0.5C45.2,71.2,45.6,71.4,45.7,71.2L45.7,71.2z"/>
					</g>
				</g>
			</g>
			<g>
				<g>
					<g>
						<path class="st0" d="M55.9,66.4c-4.6,5.6-9.2,11.2-13.8,16.8c-0.2,0.2,0.1,0.5,0.3,0.3c4.6-5.6,9.2-11.2,13.8-16.8
							C56.3,66.5,56.1,66.2,55.9,66.4L55.9,66.4z"/>
					</g>
				</g>
			</g>
			<g>
				<g>
					<g>
						<path class="st0" d="M86.3,90.7c-4.7,5.6-9.3,11.2-13.8,16.9c0.1,0.1,0.2,0.2,0.3,0.2c0.2-0.3,0.4-0.5,0.6-0.8
							c0.2-0.2-0.2-0.4-0.3-0.2c-0.2,0.3-0.4,0.5-0.6,0.8c-0.1,0.2,0.2,0.4,0.3,0.2c4.5-5.7,9.1-11.3,13.8-16.9
							C86.7,90.8,86.4,90.5,86.3,90.7L86.3,90.7z"/>
					</g>
				</g>
			</g>
			<g>
				<g>
					<g>
						<path class="st0" d="M84.9,102.1c-1.5,2.1-3.1,4.1-4.8,6c-0.7,0.9-1.5,1.7-2.2,2.6c-0.2,0.2-0.7,0.5-0.6,0.9
							c0,0.1,0.1,0.2,0.2,0.1c0,0,0,0,0.1,0c0.2,0,0.2-0.4-0.1-0.4c0.9-0.2,1.6-1.4,2.2-2.1c0.7-0.8,1.4-1.6,2-2.4
							c1.2-1.5,2.4-3,3.5-4.5C85.4,102.1,85.1,101.9,84.9,102.1L84.9,102.1z"/>
					</g>
				</g>
			</g>
			<g>
				<g>
					<g>
						<path class="st0" d="M49.3,85.2c2.9,2.5,5.9,4.7,9.1,6.6c0.2,0.1,0.4-0.2,0.2-0.3c-3.2-1.9-6.2-4.1-9-6.6
							C49.4,84.8,49.1,85,49.3,85.2L49.3,85.2z"/>
					</g>
				</g>
			</g>
			<g>
				<g>
					<g>
						<path class="st0" d="M61.1,94.2c3.1,2.4,6.2,4.8,9.3,7.2c0.2,0.2,0.5-0.1,0.3-0.3c-3.1-2.4-6.2-4.8-9.3-7.2
							C61.1,93.7,60.9,94,61.1,94.2L61.1,94.2z"/>
					</g>
				</g>
			</g>
			<g>
				<path class="st0" d="M37.9,78.5l-0.9-0.6l-1,0.4l0.3-1l-0.7-0.9l1.1,0l0.6-0.9l0.3,1l1.1,0.3l-0.9,0.7L37.9,78.5z M37.1,77.7
					l0.7,0.5l0-0.9l0.7-0.5l-0.8-0.2l-0.3-0.8l-0.5,0.7l-0.8,0l0.5,0.7L36.3,78L37.1,77.7z"/>
			</g>
			<g>
				<path class="st0" d="M82.2,112.5l-0.9-0.6l-1,0.4l0.3-1l-0.7-0.9H81l0.6-0.9l0.4,1l1,0.3l-0.9,0.7L82.2,112.5z M81.3,111.7
					l0.7,0.5l-0.1-0.9l0.7-0.5l-0.8-0.2l-0.3-0.8l-0.5,0.7h-0.9l0.5,0.7l-0.2,0.8L81.3,111.7z"/>
			</g>
			<g>
				<path class="st0" d="M100.4,42.6c-2.2,0-4-1.8-4-4c0-2.2,1.8-4,4-4c2.2,0,4,1.8,4,4C104.4,40.8,102.6,42.6,100.4,42.6z
					 M100.4,35.3c-1.8,0-3.4,1.5-3.4,3.4s1.5,3.4,3.4,3.4c1.8,0,3.4-1.5,3.4-3.4S102.2,35.3,100.4,35.3z"/>
			</g>
			<g>
				<path class="st0" d="M90.6,54.1c-1.4,0-2.5-1.1-2.5-2.5c0-1.4,1.1-2.5,2.5-2.5c1.4,0,2.5,1.1,2.5,2.5C93,53,91.9,54.1,90.6,54.1
					z M90.6,49.8c-1,0-1.9,0.8-1.9,1.9s0.8,1.9,1.9,1.9c1,0,1.9-0.8,1.9-1.9S91.6,49.8,90.6,49.8z"/>
			</g>
			<g>
				<path class="st0" d="M82.2,66.4c-1,0-1.8-0.8-1.8-1.8s0.8-1.8,1.8-1.8s1.8,0.8,1.8,1.8S83.1,66.4,82.2,66.4z M82.2,63.5
					c-0.6,0-1.2,0.5-1.2,1.2c0,0.6,0.5,1.2,1.2,1.2c0.6,0,1.2-0.5,1.2-1.2C83.3,64,82.8,63.5,82.2,63.5z"/>
			</g>
			<g>
				<path class="st0" d="M80.9,47.5c-0.1,0-0.3,0-0.4-0.1c-0.2-0.2-0.3-0.6-0.2-1.1c0.1-0.4,0.4-1,0.7-1.4c0.4-0.5,0.8-0.9,1.2-1.1
					c0.4-0.3,0.8-0.3,1.1-0.1l0,0c0.5,0.4,0.2,1.4-0.6,2.5c-0.4,0.5-0.8,0.9-1.2,1.1C81.3,47.4,81.1,47.5,80.9,47.5z M83,43.9
					c-0.1,0-0.3,0.1-0.5,0.2c-0.4,0.2-0.8,0.6-1.1,1c-0.3,0.4-0.6,0.9-0.7,1.3c-0.1,0.4-0.1,0.6,0.1,0.7c0.1,0.1,0.4,0,0.7-0.1
					c0.4-0.2,0.8-0.6,1.1-1c0.7-1,0.9-1.9,0.6-2.1C83.1,43.9,83.1,43.9,83,43.9z"/>
			</g>
			<g>
				<path class="st0" d="M89.8,36.8c-0.1,0-0.2,0-0.3-0.1c-0.2-0.2-0.1-0.7,0.4-1.5c0.5-0.7,1.1-1.6,2-2.4c0.8-0.8,1.6-1.5,2.3-2
					c0.8-0.5,1.3-0.7,1.5-0.4l0,0c0.2,0.2,0.1,0.7-0.4,1.5c-0.5,0.7-1.1,1.6-2,2.4c-0.8,0.8-1.6,1.5-2.3,2
					C90.5,36.6,90.1,36.8,89.8,36.8z M95.5,30.5c-0.1,0-0.5,0.1-1.1,0.5c-0.7,0.5-1.5,1.2-2.3,2c-0.8,0.8-1.5,1.6-1.9,2.3
					c-0.5,0.8-0.5,1.1-0.5,1.1c0,0,0.3,0.1,1.1-0.5c0.7-0.5,1.5-1.2,2.3-2c0.8-0.8,1.5-1.6,1.9-2.3C95.6,30.9,95.6,30.6,95.5,30.5
					L95.5,30.5C95.5,30.5,95.5,30.5,95.5,30.5z"/>
			</g>
			<g>
				<path class="st0" d="M71.9,59.2c-0.2,0-0.3,0-0.5-0.1c-0.5-0.4-0.4-1.2,0.2-2c0.6-0.8,1.4-1.1,1.9-0.7l0,0
					c0.5,0.4,0.4,1.2-0.2,2c-0.3,0.3-0.6,0.6-0.9,0.8C72.2,59.2,72.1,59.2,71.9,59.2z M73.1,56.5c-0.3,0-0.8,0.3-1.2,0.7
					c-0.5,0.6-0.6,1.3-0.2,1.5c0.1,0.1,0.4,0.1,0.6,0c0.3-0.1,0.6-0.4,0.8-0.7c0.5-0.6,0.6-1.3,0.2-1.5l0,0
					C73.3,56.6,73.2,56.5,73.1,56.5z"/>
			</g>
			<g>
				<path class="st0" d="M100.4,43.8c-2.9,0-5.2-2.3-5.2-5.2s2.3-5.2,5.2-5.2c2.9,0,5.2,2.3,5.2,5.2S103.3,43.8,100.4,43.8z
					 M100.4,34c-2.5,0-4.6,2.1-4.6,4.6s2.1,4.6,4.6,4.6s4.6-2.1,4.6-4.6S102.9,34,100.4,34z"/>
			</g>
			<g>
				<path class="st0" d="M90.5,55.6c-2.2,0-4-1.8-4-4c0-2.2,1.8-4,4-4c2.2,0,4,1.8,4,4C94.5,53.8,92.7,55.6,90.5,55.6z M90.5,48.2
					c-1.9,0-3.4,1.5-3.4,3.4c0,1.9,1.5,3.4,3.4,3.4c1.9,0,3.4-1.5,3.4-3.4C93.9,49.7,92.4,48.2,90.5,48.2z"/>
			</g>
			<g>
				<path class="st0" d="M82.1,67.3c-1.5,0-2.7-1.2-2.7-2.7c0-1.5,1.2-2.7,2.7-2.7s2.7,1.2,2.7,2.7C84.8,66.1,83.6,67.3,82.1,67.3z
					 M82.1,62.5c-1.2,0-2.1,0.9-2.1,2.1s0.9,2.1,2.1,2.1s2.1-0.9,2.1-2.1S83.2,62.5,82.1,62.5z"/>
			</g>
			<g>
				<path class="st1" d="M97.6,38.9c0.2,1.5,1.6,2.6,3.2,2.4c1.5-0.2,2.6-1.6,2.4-3.2c-0.2-1.5-1.7-2.6-3.2-2.4
					C98.5,35.9,97.4,37.3,97.6,38.9z M102,37.1c0.1,0.4-0.2,0.8-0.7,0.9c-0.4,0.1-0.8-0.2-0.9-0.7c-0.1-0.4,0.2-0.8,0.7-0.9
					C101.6,36.4,102,36.7,102,37.1z"/>
			</g>
			<g>
				<path class="st1" d="M89.2,51.8c0.1,0.8,0.8,1.3,1.6,1.2c0.8-0.1,1.3-0.8,1.2-1.6c-0.1-0.8-0.8-1.3-1.6-1.2
					C89.6,50.3,89,51,89.2,51.8z M91.4,50.9c0,0.2-0.1,0.4-0.3,0.5c-0.2,0-0.4-0.1-0.5-0.3c0-0.2,0.1-0.4,0.3-0.5
					C91.1,50.6,91.4,50.7,91.4,50.9z"/>
			</g>
			<g>
				<path class="st1" d="M81.2,64.7c0.1,0.5,0.5,0.8,1,0.7c0.5-0.1,0.8-0.5,0.7-1c-0.1-0.5-0.5-0.8-1-0.7
					C81.5,63.8,81.1,64.3,81.2,64.7z M82.5,64.2c0,0.1-0.1,0.2-0.2,0.3c-0.1,0-0.2-0.1-0.3-0.2c0-0.1,0.1-0.2,0.2-0.3
					C82.4,64,82.5,64.1,82.5,64.2z"/>
			</g>
			<g>
				<g>
					<g>
						<path class="st1" d="M115.2,16.4c0.1,0,0.1,0.1,0.2,0.1c0-0.1,0-0.2,0-0.4c-0.3,0.1-0.7-0.1-1.1-0.1c-0.6,0.1-1.3,0.3-1.8,0.6
							c-0.9,0.4-1.9,1-2.3,1.9c-0.4,0.8-0.3,2,0.2,2.7c0.9,1.1,2.5,0.8,3.6,1.4c1.5,0.8,1.7,4.1,4,2.6c2.5-1.5,2.3-4.6,1.4-7
							c-0.1-0.2-0.5-0.1-0.4,0.1c0.9,2.2,1.1,5.1-1.2,6.6c-1.9,1.2-2.2-1.8-3.5-2.6c-0.7-0.4-1.5-0.5-2.2-0.7
							c-1.6-0.5-2.4-2.2-1.3-3.6c0.7-0.9,1.8-1.4,2.9-1.6c0.7-0.2,1.3,0,1.9-0.1c0.2,0,0.2-0.3,0-0.4c-0.1,0-0.1-0.1-0.2-0.1
							C115.1,16,115,16.3,115.2,16.4L115.2,16.4z"/>
					</g>
				</g>
			</g>
			<g>
				<g>
					<g>
						<path class="st1" d="M116.6,25.5c-0.4,1.4-1.1,2.6-2.2,3.6c-0.8,0.7-1.9,1-2.9,0.3c-0.9-0.7-0.6-1.6-0.4-2.5
							c0.1-0.2-0.3-0.3-0.4-0.1c-0.2,0.8-0.5,1.6,0,2.3c0.5,0.7,1.4,1.1,2.3,1c2-0.2,3.4-2.9,3.9-4.6
							C117,25.4,116.6,25.3,116.6,25.5L116.6,25.5z"/>
					</g>
				</g>
			</g>
			<g>
				<path class="st1" d="M121.6,19.6c1.1-1.5,0.5-3.9-1.5-5.4c-2-1.5-4.5-1.5-5.6,0c-1.1,1.5-0.5,3.9,1.5,5.4
					C118,21.1,120.5,21.1,121.6,19.6z"/>
			</g>
			<g>
				<g>
					<g>
						<path class="st1" d="M114,22.6c-0.5,1-1.4,2.1-2.2,3c-0.4,0.5-0.8,1-1.4,1.3c-0.9,0.6-2.2,0.6-2.8-0.5c-1-1.9,1.4-4.3,2.8-5.3
							c0.2-0.2,0-0.5-0.2-0.3c-1.6,1.2-4.3,4-2.7,6.1c2.3,3,5.9-2.2,6.8-4C114.4,22.6,114.1,22.4,114,22.6L114,22.6z"/>
					</g>
				</g>
			</g>
			<g>
				<g>
					<g>
						<path class="st1" d="M96.9,66.9c0.3,0.5,0.9,0.8,1.4,1.1c1.4,1.1,2.4,3,2.3,4.7c-0.1,1-0.6,2.3-1.5,2.9
							c-1.4,0.8-2.5-0.4-3.1-1.4c-0.7-1.2-0.9-2.5-1.1-3.8c0-0.2-0.4-0.2-0.4,0.1c0.3,1.9,0.7,4.2,2.5,5.4c1,0.7,2.2,0.5,3-0.4
							c1.2-1.3,1.3-3.1,0.8-4.7c-0.3-0.9-0.8-1.7-1.4-2.3c-0.6-0.6-1.6-1-2-1.7C97.1,66.5,96.8,66.7,96.9,66.9L96.9,66.9z"/>
					</g>
				</g>
			</g>
			<g>
				<g>
					<g>
						<path class="st1" d="M97.6,72.7c0.7,1,1.2,2.6-0.2,3.2c-0.2,0.1,0,0.4,0.2,0.3c1.5-0.7,1.1-2.6,0.3-3.7
							C97.7,72.3,97.4,72.5,97.6,72.7L97.6,72.7z"/>
					</g>
				</g>
			</g>
			<g>
				<g>
					<g>
						<path class="st1" d="M73.8,50.8c-1.6-1.7-4.2-2.3-6.5-2c-1.6,0.2-3,1.1-2.2,2.9c0.1,0.2,0.4,0,0.3-0.2
							c-0.3-0.8,0.1-1.6,0.8-1.9c0.2-0.1,0.5-0.2,0.7-0.2c0.7-0.2,1.4-0.2,2.1-0.1c1.7,0.1,3.4,0.7,4.5,1.9
							C73.7,51.2,74,51,73.8,50.8L73.8,50.8z"/>
					</g>
				</g>
			</g>
			<g>
				<g>
					<g>
						<path class="st1" d="M67.5,51.3c-0.7-0.2-1.9-0.2-2.4,0.5c-0.5,0.6,0,1.5,0.6,2c1.4,1.2,4.2,0.9,5.8,0.4
							c0.2-0.1,0.1-0.4-0.1-0.4c-1.1,0.3-2.3,0.4-3.5,0.3c-0.6-0.1-1.3-0.2-1.8-0.5c-0.2-0.2-0.4-0.4-0.6-0.7
							c0.1-0.4,0.2-0.8,0.2-1.2c0.3-0.4,1.3-0.2,1.7-0.1C67.7,51.7,67.8,51.3,67.5,51.3L67.5,51.3z"/>
					</g>
				</g>
			</g>
		</g>
		<g>
			<g>
				<g>
					<path class="st1" d="M44.7,91c-10.4,12.9-20.2,26.2-29.5,39.9c-0.2,0.2,0.2,0.4,0.3,0.2c9.3-13.6,19.2-26.9,29.5-39.8
						C45.1,91.1,44.8,90.8,44.7,91L44.7,91z"/>
				</g>
			</g>
		</g>
		<g>
			<g>
				<g>
					<path class="st1" d="M51.1,102.1c-2.8,3.8-5.7,7.6-8.7,11.3c-0.2,0.2,0.1,0.5,0.3,0.3c3-3.7,5.9-7.5,8.7-11.3
						C51.5,102.1,51.2,101.9,51.1,102.1L51.1,102.1z"/>
				</g>
			</g>
		</g>
		<g>
			<g>
				<g>
					<path class="st1" d="M55.6,106.9c-1.2,1.7-2.4,3.4-3.6,5.1c-0.2,0.2,0.2,0.4,0.3,0.2c1.2-1.7,2.4-3.4,3.6-5.1
						C56,106.8,55.7,106.6,55.6,106.9L55.6,106.9z"/>
				</g>
			</g>
		</g>
		<g>
			<g>
				<g>
					<path class="st1" d="M59.1,111.1c-0.5,0.8-1,1.6-1.5,2.3c-0.1,0.2,0.2,0.4,0.3,0.2c0.5-0.8,1-1.6,1.5-2.3
						C59.6,111.1,59.3,110.9,59.1,111.1L59.1,111.1z"/>
				</g>
			</g>
		</g>
		<g>
			<g>
				<g>
					<path class="st1" d="M48.1,95.9c-4.9,6.3-9.8,12.6-14.7,19c-0.2,0.2,0.1,0.5,0.3,0.3c4.9-6.3,9.8-12.6,14.7-19
						C48.5,96,48.3,95.7,48.1,95.9L48.1,95.9z"/>
				</g>
			</g>
		</g>
	</g>
	<g>
		<g>
			<path d="M44.8,53.2c-8,0-14.4-6.5-14.4-14.4s6.5-14.4,14.4-14.4s14.4,6.5,14.4,14.4S52.8,53.2,44.8,53.2z M44.8,24.7
				c-7.8,0-14.1,6.3-14.1,14.1S37,52.9,44.8,52.9S59,46.6,59,38.8S52.6,24.7,44.8,24.7z"/>
		</g>
		<g>
			<g>
				<g>
					<path class="st1" d="M30.7,40.6c0.6-0.8,0.7-0.2,1.4,0c0.9,0.3,0.8-0.7,1.5-0.9c0.6-0.2,1,1.6,1.4,0.3c0.2-0.6-0.3-1.1,0.3-1.6
						c1.5-1.3,0.6,1.6,0.6,2.2c0,0.8,0.4,1.8,0.8,0.8c0.2-0.4-0.2-0.8,0.4-1.1c0.2-0.1,0.7,0,0.8-0.1c4.8-4.6-0.1-0.2,0.1-0.5
						c0.2-0.3-0.1-0.5,0.6-0.6c0,0,0-0.2,0-0.2c-0.6-1.4,0.7-1.3,1.4-1.7c0,0,0.5-0.6,0.5-0.6s0-0.1,0-0.2c0.2,0.3-0.4,1-0.6,1.3
						c-0.3,0.5-0.5,0.9-0.6,1.5c-0.1,0.5-0.4,1.2-0.4,1.7c0,0.5,0.3,0.8,0.5,1.3c0.1,0.2-0.1,0.5,0.1,0.7c0.5,0.6,1-0.1,1.1-0.6
						c0-0.2-0.1-0.2,0-0.4c0.2-0.6,0-0.3,0.5-0.6c0.2,0,0.3,0.1,0.5,0.2c0.1-0.2,0.1-0.5,0.2-0.8c0-0.1,0-0.2,0-0.2
						c-0.1,0.4-0.1,0.6-0.3,0.7c-0.2,0.1-0.5-0.3-0.7-0.1c-0.1,0.1-0.1,0.2-0.2,0.2c-0.1,0.1,0,0.4,0,0.5c0,0.4,0.1,1.3-0.7,1
						c-0.3-0.1-0.2-0.5-0.3-0.8c-0.1-0.2-0.2-0.4-0.2-0.7c-0.2-0.6,0.1-0.9,0.2-1.5c0.1-0.4-0.1-0.8,0.1-1.2
						c0.3-0.9,1.1-1.4,0.9-2.5c0,0.1,0,0.2,0,0.2c0.1,0.8-1.5,0.7-1.9,1.3c-0.1,0.2-0.1,0.4-0.2,0.6c-0.2,0.5,0.2,0.7-0.6,0.8
						c0,0,0,0.2,0,0.2c0,0.2,0.1,0.5,0.1,0.7c-0.2-0.1-0.3-0.1-0.5,0c-0.2,0.2-0.4,0.1-0.6,0.5c-0.1,0.1-0.1,0.2-0.1,0.4
						c-0.1,0.2,0.1,0.8-0.2,0.9c-1.1,0.6,0-3.1-0.2-3.4c-0.5-0.9-1.4,0.2-1.4,0.8c0,0.2,0,0.3,0,0.4c0,0.6-0.1,1-0.7,0.6
						c-0.2-0.2,0-0.5-0.4-0.6c-0.4-0.1-0.5,0.2-0.7,0.4c-0.7,0.6-0.5,0.6-1.3,0.3c-0.6-0.2-0.7-0.4-1.2,0.2
						C30.7,40.5,30.8,40.6,30.7,40.6L30.7,40.6z"/>
				</g>
			</g>
		</g>
		<g>
			<g>
				<g>
					<path class="st1" d="M41.8,41.4c0.1-0.5,0.2-1.9,0.8-1.4c0.3,0.2,0.1,1,0.5,1.2c0.6,0.3,0.8-0.8,1.4-1c1-0.4,1,0.8,1.1,1.5
						c0.1,0.5,0.1,1.7,0.8,1.5c0.6-0.2,0.6-1.3,1.3-1.4s0.5,0.8,1.1,0.5c0.2-0.1,0.2-0.4,0.4-0.5c0.4-0.2,0.6,0.2,0.9,0.4
						c0.1,0.1,0.2,0.3,0.3,0.4c0.1-0.1,0.1-0.2,0.2-0.2c0.4,0,0.5-0.1,0.9,0.2c0.7,0.6,0.6,1.2,1.6,1.4c0.9,0.2,1.4,0.1,1.5-0.7
						c0,0,0-0.1,0-0.1c0-0.4-0.5-1.1,0.1-1.3c0.3-0.1,0.6,0.1,0.8,0.2s0.3,0.6,0.6,0.5c0.2-0.1,0.1-0.5,0.2-0.7
						c0.5-0.6,0.4-0.2,1,0.1c0,0,0-0.2,0-0.2c-0.6-0.2-0.6-0.7-1-0.1c-0.5,0.6,0,0.9-0.7,0.3c-0.5-0.4-1-0.6-1.3,0.1
						c-0.1,0.1,0,0.4,0,0.6c0,0.2,0.4,0.8,0.1,1.1c-0.2,0.2-0.9,0.1-1.1,0.1c-1.1-0.2-1-0.9-1.8-1.5c-0.3-0.2-0.5-0.2-0.8-0.2
						c-0.2,0-0.3,0.1-0.3,0.3c-0.1-0.2-0.2-0.3-0.3-0.4c-0.2-0.2-0.4-0.4-0.7-0.4c-0.6,0-0.3,0.4-0.6,0.5c-0.6,0.3-0.3-0.3-1-0.4
						c-0.8-0.1-0.7,1-1.3,1.3c-0.9,0.4-0.9-0.9-1-1.4c-0.1-0.7-0.1-1.7-1-1.5c-0.5,0.1-1,1.3-1.4,1.1c-0.5-0.2-0.2-1-0.6-1.3
						c-0.6-0.5-0.8,0.9-0.8,1.4C41.8,41.2,41.8,41.3,41.8,41.4L41.8,41.4z"/>
				</g>
			</g>
		</g>
		<g>
			<g>
				<g>
					<path class="st1" d="M57.4,42.1c0.3,0,0.4-0.4,0.6-0.6c0.1-0.1,0.2-0.2,0.3-0.2s0.2,0.1,0.2,0.2c0,0,0-0.1,0-0.1
						c0,0,0,0.1,0,0.1c0,0,0,0.1,0,0.1c0.1-0.2,0-0.4-0.2-0.4C57.8,41.1,57.8,41.9,57.4,42.1C57.4,42,57.4,42.1,57.4,42.1L57.4,42.1
						z"/>
				</g>
			</g>
		</g>
		<g>
			<g>
				<g>
					<path class="st1" d="M58.4,42.1c-1,0-1.4,0.9-2.3,1.2c-0.5,0.2-0.9,0.2-1.3,0.6c-0.4,0.4-0.5,0.7-1.1,0.8
						c-1.2,0.2-2.2-0.9-3.2-1.2c-1.2-0.4-2.3-0.3-3.3,0.2c-0.6,0.3-2.5,0.8-3,0c-0.2-0.2,0.1-0.6,0-0.8c-0.1-0.1,0.1-0.2-0.2-0.3
						c-0.4-0.2-0.6,0.4-0.8,0.6c-0.6,0.4-1-0.2-1.5,0.1c-0.4,0.2-0.3,0.7-0.9,0.9c-0.5,0.1-0.9-0.2-1.2-0.4
						c-0.4-0.2-0.9-0.4-1.3-0.6c-0.6-0.3-0.3-0.3-0.3-1c0-0.4-0.1-0.8-0.6-0.6c-0.8,0.2-0.9,1.9-1.8,0.9c-0.3-0.4-0.3-0.9-0.8-1.1
						c-0.7-0.4-0.8,0-1.3,0.3c0,0,0,0.2,0,0.2c-0.4,0.2-0.3-0.2-0.6-0.4c-1.1-0.7-0.3,0.5-0.7,0.8c-0.4,0.4-0.7-0.7-1,0.4
						c0,0.2,0.1,0.4,0.1,0.5c0-0.1,0-0.2,0-0.2c-0.2-0.9,0.6-0.3,1.1-0.5c0,0,0-0.2,0-0.2c-0.8-1.7,0.9,0,1.2,0c0,0,0-0.2,0-0.2
						c-0.2-0.7,1-0.5,1.2-0.4c0.4,0.2,0.5,0.6,0.7,1c0.6,1,0.9,0.2,1.5-0.4c0.2-0.2,0.7-0.7,1-0.2c0.1,0.2-0.2,0.6-0.2,0.7
						c0,0.1,0,0.1,0,0.2c0,0.3,0,0.3,0.2,0.6c0.2,0.2,0.8,0.2,1.1,0.4c0.4,0.2,0.7,0.6,1.1,0.7c1,0.2,1-0.8,1.8-0.9
						c0.2,0.1,0.5,0.2,0.8,0.2c0.2-0.1,0.3-0.2,0.5-0.4c0.2-0.1,0.4-0.6,0.7-0.4c0.4,0.2-0.1,0.6,0.1,0.8c1,1.8,3.2-0.2,4.4-0.2
						c1.2-0.1,2.2,0.3,3.2,0.8c0.7,0.4,1.5,0.9,2.4,0.6c0.6-0.2,0.6-0.7,1.1-1c0.3-0.2,0.8-0.1,1.2-0.3c0.8-0.3,1.2-1.2,2.1-1.1
						C58.4,42.4,58.4,42.1,58.4,42.1L58.4,42.1z"/>
				</g>
			</g>
		</g>
		<g>
			<g>
				<g>
					<path class="st1" d="M35.5,48.8c1.6-2,3.8,0.6,5.5,1c0.5,0.1,1,0,1.5,0.2c0.5,0.2,0.7,0.6,1.1,0.9c1,0.6,1.1-0.6,2.1-0.3
						c0.7,0.3,1.1,1,1.9,0.5c0.3-0.2,0.5-0.6,0.9-0.6c0.6-0.1,0.9,0.4,1.5,0.1c0.5-0.2,0.8-0.8,1.2-1c0.3-0.2,0.8-0.2,1-0.4
						c0.2-0.2,0.3-0.4,0.3-0.6c0-0.1,0-0.2,0-0.3c-0.2-0.6-2.1-0.2-0.5-1c0.5-0.2,1-0.6,0.8-1.2c-0.3-0.8-1-0.6-1.4-0.1
						c-0.3,0.4-0.2,0.7-0.8,0.8c-0.5,0.1-0.8-0.2-1.3,0c-0.3,0.2-0.4,0.6-0.8,0.6c-0.5,0-0.8-0.6-1.1-0.8c-1-0.6-1.3-0.1-1.7,0.6
						c-0.3,0.5-0.9,0.8-1.4,0.5c-0.5-0.3-0.3-0.9-0.7-1.1c-0.4-0.3-0.8,0.1-1.2,0.3c-0.1,0-0.3,0.5-0.3,0.5c0,0-0.1-1.1-0.1-1.2
						c-0.1-1-0.2-0.4-0.9-0.7c-0.2-0.1-0.3-0.2-0.5-0.2c-0.1-0.1-0.2-0.2-0.2-0.3C40.1,45,39.9,45,39.7,45c-1.5,0-2.4-1.6-3.9-1l0,0
						c0,1.3-1.2,1.6-2.1,0.9c-0.4-0.3-1.6-1.3-1.6-0.1c0,0.1,0,0.2,0,0.2c0-1.6,1.9,0.4,2.3,0.5c1.2,0.2,1.2-1.4,2.1-1.5
						c1.1-0.2,2,1.1,3,1.2c0.1,0,0.8-0.2,0.9-0.2c0.1,0,0.2,0.3,0.4,0.4c0.2,0.1,0.4,0.2,0.6,0.2c0.5,0.2,0.3-0.2,0.6,0.2
						c0.1,0.1,0,1.6,0.2,1.7c-0.1,0,0.6-0.8,0.9-0.8c1-0.1,0.6,1.2,1.6,1.4c1.1,0.1,0.9-1.3,1.7-1.5c1-0.3,1.4,1.2,2.3,1.1
						c0.3-0.1,0.5-0.5,0.8-0.6c0.5-0.2,0.7,0.2,1.2,0.1c0.7-0.1,1-1.9,1.9-1.1c1.3,1.1-1.4,1-1.3,1.9c0.1,0.5,0.4,0.2,0.8,0.3
						c1.4,0.3-0.3,0.9-0.8,1.2c-0.4,0.2-0.7,0.6-1.1,0.9c-0.6,0.4-0.7,0.2-1.3,0.1c-1-0.1-1.3,0.9-2.3,0.6c-0.4-0.2-0.6-0.5-1-0.6
						c-0.5-0.1-0.5,0.2-0.9,0.4c-0.6,0.3-0.8,0.1-1.3-0.3c-0.5-0.4-0.7-0.6-1.4-0.6c-1.4-0.2-2.1-0.8-3.3-1.4
						c-1-0.6-2.2-0.7-3.1,0.3C35.5,48.7,35.5,48.8,35.5,48.8L35.5,48.8z"/>
				</g>
			</g>
		</g>
		<g>
			<g>
				<g>
					<path class="st1" d="M57.5,44.6c0-0.5-2.7,0-2.8,0.9c0,0.4,0.3,0.6,0.5,0.9c0-0.1,0-0.2,0-0.2c-0.1,0.7-1.2,1-1.3,1.7
						c-0.1,1,1.3-0.2,1.4,0.7c0-0.1,0-0.2,0-0.2c-0.1-0.9-1.3,0.3-1.4-0.6c0,0.1,0,0.2,0,0.2c0.3-0.6,1.2-1,1.3-1.6
						c0-0.4-0.3-0.5-0.5-0.8c0,0.1,0,0.2,0,0.2c0.1-0.8,2.8-1.3,2.8-0.9C57.5,44.7,57.5,44.6,57.5,44.6L57.5,44.6z"/>
				</g>
			</g>
		</g>
		<g>
			<g>
				<g>
					<path class="st1" d="M30.7,37.8c1.1,0.3,1.3-1.1,2.3-1.3c0.6-0.1,1,0.1,1.6-0.1c0.4-0.1,0.7-0.2,1.1-0.3c1-0.2,2.8-0.4,3.1-1.5
						c0-0.1-0.1-0.3-0.1-0.4c0-1.2,0.5-2.2,1.8-2.5c0.3-0.1,0.6-0.1,0.9,0c0-0.2,0-0.5,0.2-0.7c0.2-0.3,0.5-0.6,0.9-0.6
						c0.7-0.1,0.8,0.4,1.4,0.7c0.7,0.3,0.4,0.1,0.8-0.3c0.7-0.8,1-0.9,1.6,0.1c0.6,1,0.6-0.2,1.4-0.1c0.9,0.1,1,1.8,2,1.9
						c1,0.1,1.3-1.3,2.3-0.2c0.6,0.6,0.5,1.9,1.6,1.7c0.4-0.1,0.3-0.2,0.8-0.1c0.3,0.1,0.4,0.5,0.7,0.6c0.8,0.2,0.6-0.9,1.2-1
						c0.3,0,0.6,0.5,0.9,0.5c0.5,0.1,0.8-0.3,1,0.2c0-0.1,0-0.2,0-0.2c-0.3-0.6-0.6-0.2-1-0.2c-0.3-0.1-0.5-0.5-0.8-0.5
						c-0.8-0.2-0.5,1-1.3,1c-0.4,0-0.5-0.5-0.8-0.6c-0.4-0.1-0.4,0-0.7,0c-0.6,0-0.6,0.3-1-0.4c-0.2-0.3-0.3-0.8-0.5-1.1
						c-0.4-0.5-0.9-0.7-1.4-0.4c-0.3,0.2-0.4,0.5-0.8,0.6c-1.2,0.2-1.2-1.6-2.1-1.9c-0.8-0.3-0.8,0.9-1.4,0.2
						c-0.3-0.3,0-0.9-0.7-0.9c-0.6-0.1-0.6,0.4-0.9,0.7c-0.4,0.5-0.1,0.7-0.8,0.3c-0.5-0.2-0.6-0.6-1.2-0.6c-0.5,0-0.9,0.2-1.1,0.6
						c-0.1,0.2-0.2,0.5-0.2,0.7c-0.2-0.1-0.4-0.1-0.7,0c-1.3,0.2-2,1.2-2,2.4c0,0.2,0.1,0.5,0.1,0.7c-0.2,0.8-2.1,1.2-2.8,1.3
						c-1,0.1-1.8,0.4-2.7,0.4c-1.1,0-1.4,1.6-2.5,1.2C30.7,37.6,30.7,37.8,30.7,37.8L30.7,37.8z"/>
				</g>
			</g>
		</g>
		<g>
			<g>
				<g>
					<path class="st1" d="M58.4,35.3c-1-1.2-1.6,0-2.6,0.2c-0.7,0.1-1,0-1.7,0.5c-0.6,0.4-1.1,0.8-1.8,1c-1,0.2-3.2-0.2-3.1,1.4
						c0,0.7,0.8,1.5,1.5,1.4c0.5,0,0.8-0.6,1.3-0.1c0.4,0.4,0.3,1,0.9,1.3c0.7,0.3,0.9-0.2,1.4-0.4c0.6-0.2,0.7,0.2,1.1,0.6
						c0.6,0.4,0.8,0.2,1.3-0.1c0.8-0.5,1.3-0.5,2.1,0c0,0,0-0.2,0-0.2c-0.6-0.4-1.1-0.6-1.8-0.3c-0.4,0.2-0.7,0.7-1.2,0.6
						c-0.9-0.2-0.6-1.2-1.8-0.6c-1.1,0.6-1.3,0.1-1.8-0.8c-0.6-1-1.3,0.2-2.2-0.4c-1.2-0.7-0.7-1.8,0.5-1.9c1.1-0.2,2.1-0.1,3.1-0.7
						c0.5-0.3,0.9-0.8,1.5-1c0.4-0.1,0.7,0.1,1.1,0c0.9-0.4,1.4-1.2,2.3-0.1C58.3,35.5,58.4,35.4,58.4,35.3L58.4,35.3z"/>
				</g>
			</g>
		</g>
		<g>
			<g>
				<g>
					<path class="st1" d="M32.7,32.3c1.1,0,1.8-0.8,2.6-1.4c0.5-0.3,0.9-0.5,1.5-0.5s1.1,0.3,1.6-0.1c0.9-0.6,0.9-1.7,2.1-2.2
						c1.2-0.5,2.3-0.6,3.4-1.3c1.1-0.8,2.3-0.8,3.4,0.1c0.9,0.7,1.4,1.8,2.6,2.1c0.6,0.1,1,0,1.7,0.3c0.6,0.3,1.2,0.4,1.9,0.6
						c0.6,0.1,1.1,0.3,1.6,0.6c0.3,0.2,0.5,0.3,0.8,0.4c0.4,0.2,0.6-0.8,0.6,0.3c0,0,0-0.2,0-0.2c0-0.5-0.1-0.3-0.3-0.4
						c-0.1-0.1-0.6,0-0.9-0.1c-0.2-0.1-0.4-0.3-0.7-0.5c-0.6-0.3-1.3-0.3-1.9-0.5c-0.7-0.2-1.2-0.6-1.9-0.7
						c-0.6-0.1-1.1,0.1-1.7-0.3c-0.5-0.3-0.9-0.8-1.3-1.2c-1-1-2.2-1.7-3.5-1c-0.5,0.2-0.9,0.7-1.4,0.9c-0.6,0.3-1.2,0.3-1.8,0.5
						c-0.6,0.2-1.2,0.3-1.6,0.7c-0.4,0.4-0.6,0.9-0.9,1.4c-0.8,1-2,0.2-3.1,0.8c-1,0.6-1.7,1.6-3,1.6C32.7,32.1,32.7,32.3,32.7,32.3
						L32.7,32.3z"/>
				</g>
			</g>
		</g>
	</g>
	<g>
		<path class="st1" d="M109.6,112.2c-1.4,0-2.5-1.1-2.5-2.5c0-1.4,1.1-2.5,2.5-2.5s2.5,1.1,2.5,2.5
			C112,111.1,110.9,112.2,109.6,112.2z M109.6,107.6c-1.2,0-2.2,1-2.2,2.2c0,1.2,1,2.2,2.2,2.2c1.2,0,2.2-1,2.2-2.2
			C111.7,108.5,110.7,107.6,109.6,107.6z"/>
	</g>
	<g>
		<path class="st1" d="M113.1,62.8c-1,0-1.8-0.8-1.8-1.8s0.8-1.8,1.8-1.8s1.8,0.8,1.8,1.8S114,62.8,113.1,62.8z M113.1,59.5
			c-0.8,0-1.5,0.7-1.5,1.5c0,0.8,0.7,1.5,1.5,1.5c0.8,0,1.5-0.7,1.5-1.5C114.5,60.2,113.9,59.5,113.1,59.5z"/>
	</g>
	<g>
		<path class="st1" d="M81.2,20.3c-1,0-1.8-0.8-1.8-1.8s0.8-1.8,1.8-1.8s1.8,0.8,1.8,1.8S82.2,20.3,81.2,20.3z M81.2,17
			c-0.8,0-1.5,0.7-1.5,1.5c0,0.8,0.7,1.5,1.5,1.5s1.5-0.7,1.5-1.5C82.7,17.7,82,17,81.2,17z"/>
	</g>
	<g>
		<path class="st1" d="M44.8,131.1c-1,0-1.8-0.8-1.8-1.8s0.8-1.8,1.8-1.8c1,0,1.8,0.8,1.8,1.8S45.8,131.1,44.8,131.1z M44.8,127.9
			c-0.8,0-1.5,0.7-1.5,1.5s0.7,1.5,1.5,1.5c0.8,0,1.5-0.7,1.5-1.5S45.6,127.9,44.8,127.9z"/>
	</g>
	<g>
		<path class="st1" d="M21.8,98.1c-2.3,0-4.1-1.8-4.1-4.1s1.8-4.1,4.1-4.1c2.3,0,4.1,1.8,4.1,4.1S24.1,98.1,21.8,98.1z M21.8,90.2
			c-2.1,0-3.8,1.7-3.8,3.8c0,2.1,1.7,3.8,3.8,3.8s3.8-1.7,3.8-3.8C25.7,91.9,24,90.2,21.8,90.2z"/>
	</g>
	<g>
		<path class="st1" d="M122.2,84.5c-2.3,0-4.1-1.8-4.1-4.1c0-2.3,1.8-4.1,4.1-4.1c2.3,0,4.1,1.8,4.1,4.1
			C126.3,82.7,124.5,84.5,122.2,84.5z M122.2,76.6c-2.1,0-3.8,1.7-3.8,3.8c0,2.1,1.7,3.8,3.8,3.8c2.1,0,3.8-1.7,3.8-3.8
			C126,78.3,124.3,76.6,122.2,76.6z"/>
	</g>
	<g>
		<path class="st1" d="M29.4,67.2l-2.6-1.4l-2.6,1.4l0.5-2.9l-2.1-2.1l2.9-0.4l1.3-2.7l1.3,2.7l2.9,0.4l-2.1,2.1L29.4,67.2z
			 M23.2,62.4l1.8,1.8l-0.4,2.5l2.2-1.2l2.2,1.2l-0.4-2.5l1.8-1.8L27.9,62l-1.1-2.3L25.7,62L23.2,62.4z"/>
	</g>
	<g>
		<path class="st1" d="M63.1,20.9L61.3,20l-1.8,0.9l0.3-2l-1.5-1.4l2-0.3l0.9-1.8l0.9,1.8l2,0.3l-1.5,1.4L63.1,20.9z M59.1,17.7
			l1.1,1.1l-0.3,1.6l1.4-0.7l1.4,0.7l-0.3-1.6l1.1-1.1L62,17.5l-0.7-1.4l-0.7,1.4L59.1,17.7z"/>
	</g>
	<g>
		<path class="st1" d="M105.9,92.8l-1.8-0.9l-1.8,0.9l0.3-2l-1.5-1.4l2-0.3l0.9-1.8l0.9,1.8l2,0.3l-1.5,1.4L105.9,92.8z M101.8,89.6
			l1.1,1.1l-0.3,1.5l1.4-0.7l1.4,0.7l-0.3-1.5l1.1-1.1l-1.6-0.2L104,88l-0.7,1.4L101.8,89.6z"/>
	</g>
</g>
</svg>
