<?xml version="1.0" encoding="utf-8"?>
<!-- Generator: Adobe Illustrator 24.0.1, SVG Export Plug-In . SVG Version: 6.00 Build 0)  -->
<svg version="1.1" id="Layer_1" xmlns="http://www.w3.org/2000/svg" xmlns:xlink="http://www.w3.org/1999/xlink" x="0px" y="0px"
	 viewBox="0 0 141.7 141.7" style="enable-background:new 0 0 141.7 141.7;" xml:space="preserve">
<style type="text/css">
	.st0{fill:#070707;}
	.st1{fill:#231F20;}
	.st2{enable-background:new    ;}
</style>
<g id="Layer_1_1_">
</g>
<g>
	<g>
		<path class="st0" d="M49.4,41.8c-3.5,3.2-6,7.2-7.4,11.7c-1.4,4.5-1.7,9.3-1.6,14c0.1,6.1,0.5,12.2,0.7,18.3
			c0.1,6.5,0.1,13-0.1,19.4c0,0.4,0.6,0.4,0.6,0c0.5-12.1,0-24.1-0.5-36.2c-0.2-4.8,0-9.7,1.2-14.3c1.3-4.8,3.9-9.1,7.5-12.5
			C50.1,42,49.7,41.5,49.4,41.8L49.4,41.8z"/>
	</g>
</g>
<g>
	<g>
		<path class="st0" d="M76.4,36.1c-5.6-0.4-11.3,0.4-16.8,1.2c-0.4,0-0.2,0.6,0.2,0.6c5.5-0.8,11.1-1.6,16.7-1.2
			C76.8,36.8,76.8,36.2,76.4,36.1L76.4,36.1z"/>
	</g>
</g>
<g>
	<g>
		<path class="st0" d="M93.7,46.4c-1.4-2.5-3.3-4.5-5.7-6.2c-0.3-0.2-0.6,0.3-0.3,0.5c2.2,1.6,4.1,3.5,5.4,6
			C93.4,47,93.9,46.7,93.7,46.4L93.7,46.4z"/>
	</g>
</g>
<g>
	<g>
		<path class="st0" d="M53.4,126.1c4.8,3,11,3,16.5,2.5c2.8-0.2,5.6-0.7,8.4-1.1c3-0.5,6.2-0.7,8.8-2.4c0.3-0.2,0-0.7-0.3-0.5
			c-2.5,1.6-5.8,1.8-8.6,2.3c-2.7,0.5-5.5,0.9-8.3,1.1c-5.3,0.5-11.4,0.5-16.1-2.4C53.3,125.4,53.1,125.9,53.4,126.1L53.4,126.1z"/>
	</g>
</g>
<g>
	<g>
		<path class="st0" d="M59.9,37.9c0.4,0,0.4-0.6,0-0.6C59.5,37.3,59.5,37.9,59.9,37.9L59.9,37.9z"/>
	</g>
</g>
<g>
	<g>
		<path class="st0" d="M42,53.8c-3.6-0.9-5.9-3.9-4.5-7.5c0.6-1.6,1.9-2.8,3.5-3.5c1.9-0.9,5.4-1.2,7,0.4c0.3,0.3,0.7-0.1,0.4-0.4
			c-1.7-1.7-4.8-1.5-6.9-0.9c-1.9,0.6-3.4,2-4.3,3.7c-0.8,1.5-0.9,3.4-0.2,5c0.9,2.1,2.8,3.2,5,3.7C42.2,54.5,42.4,53.9,42,53.8
			L42,53.8z"/>
	</g>
</g>
<g>
	<g>
		<path class="st0" d="M89.8,41.9c3.1-1.6,7.8-2.3,10,0.9c2.3,3.3,0.9,8.7-3.4,9.5c-0.4,0.1-0.2,0.7,0.2,0.6
			c4.6-0.8,5.9-6.1,4.1-9.8c-2-4.2-7.7-3.4-11.2-1.7C89.1,41.6,89.4,42.1,89.8,41.9L89.8,41.9z"/>
	</g>
</g>
<g>
	<g>
		<path class="st0" d="M65.5,58.6c0.1,0,0.2,0,0.3,0c0-0.1,0-0.2-0.1-0.3c-0.3,0.2-0.7,0.1-1,0.3c-0.6,0.3-1.1,0.8-1.6,1.2
			c-0.7,0.6-1.6,1.8-1.4,2.8c0.3,1.1,1.6,1.9,2.8,1.9c1.9,0.1,3.7-0.9,5.6-1c2.2-0.1,5.8,2.4,6.5-1.2c0.5-2.5-3-4-4.8-4.7
			c-0.2-0.1-0.3,0.2-0.1,0.3c1.9,0.7,5,2.1,4.5,4.6c-0.6,2.8-4.4,0.7-6.2,0.7c-2.5-0.1-6,2.5-7.9-0.4c-0.8-1.2,0.8-2.6,1.6-3.3
			c0.3-0.3,1-0.9,1.4-0.9c0.2,0,0.5-0.1,0.7-0.2c0.1-0.1,0.1-0.3-0.1-0.3c-0.1,0-0.2,0-0.3,0C65.2,58.4,65.3,58.7,65.5,58.6
			L65.5,58.6z"/>
	</g>
</g>
<g>
	<g>
		<path class="st0" d="M72.6,64.2c0.4,1,0.5,2,0.4,3.1c0,0.7-0.1,1.4-0.6,1.9c-0.8,0.9-3,0.3-2.7-1.1c0-0.2-0.3-0.3-0.3-0.1
			c-0.3,1.8,2.1,2.4,3.3,1.4c1.3-1.1,0.8-4,0.2-5.2C72.8,64,72.5,64.1,72.6,64.2L72.6,64.2z"/>
	</g>
</g>
<g>
	<g>
		<path class="st0" d="M47.9,122.7c2.6-1.3,4,2,5.7,3.2c0-0.1,0-0.2,0-0.3c-1.4,0.2-2.6,1.2-3.7,2c-1.3,1-2.9,2.4-4.6,1.7
			c-2.2-0.9-1.6-3.1-0.3-4.4c1-1.1,2.4-1.8,3.7-2.5c0.2-0.1,0-0.3-0.1-0.3c-1.8,0.9-6.9,3.9-4.6,6.5c3.2,3.6,6.5-2.2,9.7-2.7
			c0.1,0,0.1-0.2,0-0.3c-1.9-1.3-3.3-4.6-6.1-3.2C47.6,122.5,47.7,122.7,47.9,122.7L47.9,122.7z"/>
	</g>
</g>
<g>
	<g>
		<path class="st0" d="M44.9,128.9c-0.4-1.5,0.7-2.7,1.9-3.4c0.2-0.1,0-0.4-0.1-0.3c-1.4,0.7-2.6,2.1-2.1,3.7
			C44.7,129.1,45,129.1,44.9,128.9L44.9,128.9z"/>
	</g>
</g>
<g>
	<g>
		<path class="st0" d="M91.3,121.9c1.8,0.1,3.1,1.4,3.9,2.9c0.6,1.2,1,3.1-0.1,4.2c-0.6,0.6-1.7,0.5-2.4,0.3
			c-1.4-0.3-2.4-1.5-3.3-2.5c-0.3-0.3-2.4-2.1-2.2-2.5C87.9,123,89.8,121.9,91.3,121.9c0.2,0,0.2-0.3,0-0.3c-1.6,0-2.9,1.1-4,2.2
			c-1.1,1.1-0.1,1.4,0.7,2.1c1.7,1.5,3.9,5,6.7,3.7c1.7-0.8,1.5-2.9,1-4.3c-0.7-1.9-2.3-3.5-4.4-3.7
			C91.1,121.5,91.1,121.9,91.3,121.9z"/>
	</g>
</g>
<g>
	<g>
		<path class="st0" d="M92.7,125.5c1,1,1.7,2.3,1.8,3.8c0,0.2,0.3,0.2,0.3,0c0-1.5-0.9-2.9-1.9-4C92.7,125.2,92.5,125.4,92.7,125.5
			L92.7,125.5z"/>
	</g>
</g>
<g>
	<g>
		<path class="st0" d="M98.3,81.7c1.5-0.1,2.9,0.3,4.2,1.1c1.3,0.8,2.2,2.8,1.5,4.2c-1.1,2-4.7-0.5-5.5-1.5
			c-0.1-0.1-0.3,0.1-0.2,0.2c1.1,1.4,4.8,3.6,6.1,1.3c0.7-1.3-0.1-3-1-3.9c-1.2-1.3-3.3-1.8-5-1.7C98.1,81.4,98.1,81.7,98.3,81.7
			L98.3,81.7z"/>
	</g>
</g>
<g>
	<g>
		<path class="st0" d="M101.5,85.4c1,0.3,2.2,1.1,1.6,2.3c-0.1,0.2,0.2,0.3,0.3,0.1c0.7-1.4-0.6-2.4-1.8-2.8
			C101.4,85.1,101.3,85.4,101.5,85.4L101.5,85.4z"/>
	</g>
</g>
<g>
	<path class="st0" d="M80,58.5c-4.9,0-8.9-4-8.9-8.9s4-8.9,8.9-8.9c4.9,0,8.9,4,8.9,8.9S85,58.5,80,58.5z M80,41
		c-4.7,0-8.6,3.8-8.6,8.6s3.8,8.6,8.6,8.6c4.7,0,8.6-3.8,8.6-8.6S84.8,41,80,41z"/>
</g>
<g>
	<path class="st0" d="M58,59.4c-4.9,0-9-4-9-8.9s4-8.9,9-8.9s9,4,9,8.9S62.9,59.4,58,59.4z M58,41.9c-4.7,0-8.6,3.8-8.6,8.6
		S53.2,59,58,59s8.6-3.8,8.6-8.6S62.7,41.9,58,41.9z"/>
</g>
<g>
	<circle class="st0" cx="95" cy="46.1" r="1.8"/>
</g>
<g>
	<circle class="st0" cx="43.1" cy="47.7" r="1.8"/>
</g>
<g>
	<path class="st0" d="M73,57.6c0-1.2-1.7-2.2-3.9-2.2c-2.2,0-3.9,1-3.9,2.2c0,1.2,1.7,2.2,3.9,2.2C71.2,59.8,73,58.8,73,57.6z"/>
</g>
<g>
	<path class="st0" d="M77.1,49.2c0,1.6,1.3,2.9,2.9,2.9s2.9-1.3,2.9-2.9c0-1.6-1.3-2.9-2.9-2.9C78.4,46.4,77.1,47.7,77.1,49.2z
		 M81.8,48.1c0,0.4-0.4,0.8-0.8,0.8c-0.4,0-0.8-0.4-0.8-0.8c0-0.4,0.4-0.8,0.8-0.8C81.5,47.3,81.8,47.6,81.8,48.1z"/>
</g>
<g>
	<path class="st0" d="M54.6,50.7c0,1.6,1.3,2.9,2.9,2.9c1.6,0,2.9-1.3,2.9-2.9c0-1.6-1.3-2.9-2.9-2.9C55.9,47.8,54.6,49.1,54.6,50.7
		z M59.3,49.5c0,0.4-0.4,0.8-0.8,0.8s-0.8-0.4-0.8-0.8s0.4-0.8,0.8-0.8C58.9,48.7,59.3,49.1,59.3,49.5z"/>
</g>
<g>
	<g>
		<path class="st0" d="M69.3,63.7c0,1.7,0.5,3.9-0.5,5.5c-0.4,0.6-1.1,0.6-1.7,0.5c-0.8-0.2-1.1-0.9-1.3-1.6
			c-0.3-1.2-0.1-2.5,0.2-3.6c0-0.2-0.2-0.3-0.3-0.1c-0.6,1.9-0.7,6.3,2.4,5.7c2.2-0.4,1.5-4.8,1.5-6.3
			C69.6,63.5,69.3,63.5,69.3,63.7L69.3,63.7z"/>
	</g>
</g>
<g>
	<g>
		<path class="st0" d="M41.8,82.4c-2-0.3-4.1,0.6-5.5,1.9c-1,1-1.6,2.4-0.1,3.2c0.2,0.1,0.3-0.2,0.1-0.3c-1.8-1,0-2.7,1-3.4
			c1.3-0.9,2.8-1.5,4.4-1.2C41.9,82.7,42,82.4,41.8,82.4L41.8,82.4z"/>
	</g>
</g>
<g>
	<g>
		<path class="st0" d="M37.7,86c-0.6,0.3-1.4,0.8-1.4,1.5c0,0.6,0.6,1.1,1.2,1.2c0.8,0.1,1.6-0.4,2.2-0.8c0.7-0.4,1.4-0.9,1.9-1.5
			c0.1-0.1-0.1-0.4-0.2-0.2c-0.7,0.8-1.7,1.5-2.6,1.9c-0.7,0.3-1.3,0.4-1.9-0.1c-0.8-0.6,0.5-1.5,1-1.7C38,86.2,37.9,85.9,37.7,86
			L37.7,86z"/>
	</g>
</g>
<g>
	<g>
		<path class="st0" d="M92.7,45.7c5.3,7.8,4.6,17.6,4.6,26.7c0,11.2,1.6,22.3,0.8,33.5c0,0.4,0.6,0.4,0.6,0
			c0.8-11.4-0.9-22.7-0.8-34c0-9,0.7-18.7-4.6-26.5C93,45.1,92.5,45.4,92.7,45.7L92.7,45.7z"/>
	</g>
</g>
<g>
	<g>
		<path class="st0" d="M67.2,29.9c-1.3,0-2.5-0.5-3.5-1.4c-1.9-1.9-1.9-5,0-6.9c0.9-0.9,2.2-1.4,3.5-1.4c0,0,0,0,0,0
			c1.3,0,2.5,0.5,3.4,1.4c1.9,1.9,1.9,5,0,6.9l0,0C69.7,29.4,68.4,29.9,67.2,29.9z M67.2,20.5c-1.2,0-2.3,0.5-3.2,1.3
			c-1.8,1.8-1.8,4.6,0,6.4c1.8,1.7,4.6,1.7,6.4,0c1.7-1.7,1.7-4.6,0-6.4C69.5,21,68.4,20.5,67.2,20.5C67.2,20.5,67.2,20.5,67.2,20.5
			z"/>
	</g>
	<g>
		<g>
			<path class="st0" d="M62.1,25.8c0.1,0,0.1,0.1,0.2,0.1c0-0.1,0.1-0.2,0.1-0.2c-0.4-0.1-0.7-0.4-1.2-0.5C60.6,25.1,60,25,59.3,25
				c-0.9,0-2.3,0.1-2.9,1c-0.6,1-0.2,2.4,0.4,3.3c1.1,1.4,2.8,2,4.2,2.9c2,1.4,2.4,5.7,5.5,4.6c2.9-1,1.3-5.2,0.4-7.1
				c-0.1-0.2-0.3,0-0.3,0.1c0.9,2,2.4,6.7-1.3,6.8c-1.2,0-1.8-1.5-2.3-2.4c-0.4-0.8-1-1.6-1.7-2.2c-1-0.7-2.1-1.2-3.1-1.9
				c-1.2-0.8-2.7-2.8-1.6-4.2c0.7-0.8,2.1-0.8,3-0.7c0.5,0,1.1,0.1,1.6,0.2c0.3,0.1,0.6,0.4,0.9,0.5c0.1,0,0.3-0.1,0.1-0.2
				c-0.1-0.1-0.2-0.1-0.3-0.2C62,25.4,61.9,25.7,62.1,25.8L62.1,25.8z"/>
		</g>
	</g>
	<g>
		<g>
			<path class="st0" d="M67.5,30.3c0-0.1,0.1-0.2,0.2-0.2c-0.1,0-0.2-0.1-0.2-0.1c-0.2,0.4-0.5,0.6-0.6,1.1
				c-0.2,0.6-0.3,1.2-0.4,1.8c-0.1,1,0,2.3,0.8,3c0.9,0.8,2.4,0.3,3.3-0.2c1.5-0.8,2.2-2.7,3.3-3.9c1.6-1.9,5.9-1.9,5.1-5.1
				c-0.7-2.9-5.1-1.7-7-1c-0.2,0.1-0.1,0.4,0.1,0.3c2.1-0.8,6.6-1.9,6.7,1.6c0.1,1.4-1.6,1.9-2.6,2.3c-1,0.4-1.8,0.9-2.5,1.7
				c-0.9,1-1.5,2.2-2.3,3.2c-0.9,1-3.1,1.9-4.1,0.5c-0.6-0.9-0.4-2.3-0.2-3.3c0.1-0.8,0.6-1.3,0.8-2c0.1-0.1-0.1-0.2-0.2-0.1
				c-0.1,0.1-0.1,0.1-0.2,0.2C67.2,30.2,67.4,30.4,67.5,30.3L67.5,30.3z"/>
		</g>
	</g>
	<g>
		<g>
			<path class="st0" d="M72,24.1c-0.1,0-0.1-0.1-0.2-0.1c0,0.1-0.1,0.2-0.1,0.2c0.4,0.1,0.7,0.4,1.2,0.5c0.6,0.1,1.3,0.2,1.9,0.2
				c0.9,0,2.3-0.1,2.9-1c0.6-1,0.2-2.4-0.4-3.3c-1.1-1.4-2.8-2-4.2-2.9c-2-1.4-2.4-5.7-5.5-4.6c-2.9,1-1.3,5.2-0.4,7.1
				c0.1,0.2,0.3,0,0.3-0.1c-0.9-2-2.4-6.7,1.3-6.8c1.2,0,1.8,1.5,2.3,2.4c0.4,0.8,1,1.6,1.7,2.2c1,0.7,2.1,1.2,3.1,1.9
				c1.2,0.8,2.7,2.8,1.6,4.2c-0.7,0.8-2.1,0.8-3,0.7c-0.5,0-1.1-0.1-1.6-0.2c-0.3-0.1-0.6-0.4-0.9-0.5c-0.1,0-0.3,0.1-0.1,0.2
				c0.1,0.1,0.2,0.1,0.3,0.2C72,24.5,72.2,24.2,72,24.1L72,24.1z"/>
		</g>
	</g>
	<g>
		<g>
			<path class="st0" d="M66.4,20.1c0,0.1-0.1,0.1-0.1,0.2c0.1,0,0.2,0.1,0.2,0.1c0.1-0.4,0.4-0.7,0.5-1.2c0.1-0.6,0.2-1.3,0.2-1.9
				c0-0.9-0.1-2.3-1-2.9c-1-0.6-2.4-0.2-3.3,0.4c-1.4,1.1-2,2.8-2.9,4.2c-1.4,2-5.7,2.4-4.6,5.5c1,2.9,5.2,1.3,7.1,0.4
				c0.2-0.1,0-0.3-0.1-0.3c-2,0.9-6.7,2.4-6.8-1.3c0-1.2,1.5-1.8,2.4-2.3c0.8-0.4,1.6-1,2.2-1.7c0.7-1,1.2-2.1,1.9-3.1
				c0.8-1.2,2.8-2.7,4.2-1.6c0.8,0.7,0.8,2.1,0.7,3c0,0.5-0.1,1.1-0.2,1.6c-0.1,0.3-0.4,0.6-0.5,0.9c0,0.1,0.1,0.3,0.2,0.1
				c0.1-0.1,0.1-0.2,0.2-0.3C66.8,20.1,66.5,19.9,66.4,20.1L66.4,20.1z"/>
		</g>
	</g>
	<g>
		<path class="st0" d="M68.9,28.1C68.9,28.1,68.9,28.1,68.9,28.1c-0.8,0-1.6-0.3-2.2-0.9c-0.6-0.6-0.9-1.3-0.9-2.2
			c0-0.8,0.3-1.6,0.9-2.2c1.2-1.2,3.2-1.2,4.4,0c0.6,0.6,0.9,1.4,0.9,2.2c0,0.8-0.3,1.6-0.9,2.2C70.5,27.8,69.7,28.1,68.9,28.1z
			 M68.9,22.2c-0.7,0-1.4,0.3-1.9,0.8c-0.5,0.5-0.8,1.2-0.8,2c0,0.7,0.3,1.4,0.8,1.9c0.5,0.5,1.2,0.8,1.9,0.8c0,0,0,0,0,0
			c0.7,0,1.4-0.3,1.9-0.8l0,0c0.5-0.5,0.8-1.2,0.8-1.9c0-0.7-0.3-1.4-0.8-2C70.3,22.5,69.6,22.2,68.9,22.2z"/>
	</g>
	<g>
		<circle class="st0" cx="69.9" cy="25" r="1.8"/>
	</g>
	<g>
		<g>
			<path class="st0" d="M63.7,28.5c-0.5,0.5-1.1,1-1.6,1.6c-0.1,0.1,0.1,0.3,0.3,0.1c0.4-0.6,1-1,1.5-1.5
				C64.1,28.6,63.9,28.3,63.7,28.5L63.7,28.5z"/>
		</g>
	</g>
	<g>
		<g>
			<path class="st0" d="M64,21.3c-0.6-0.6-1.4-0.7-2.2-0.9c-0.2,0-0.3,0.2-0.1,0.3c0.7,0.1,1.5,0.2,2,0.8
				C63.9,21.6,64.2,21.4,64,21.3L64,21.3z"/>
		</g>
	</g>
	<g>
		<g>
			<path class="st0" d="M70.6,21.3c0.1-0.4,0.3-0.8,0.5-1.2c0.1-0.2-0.2-0.3-0.3-0.1c-0.2,0.4-0.4,0.8-0.5,1.3
				C70.3,21.4,70.6,21.4,70.6,21.3L70.6,21.3z"/>
		</g>
	</g>
	<g>
		<g>
			<path class="st0" d="M70.9,21.7c0.4-0.3,0.8-0.4,1.2-0.7c0.2-0.1,0-0.3-0.1-0.3c-0.4,0.2-0.8,0.4-1.2,0.7
				C70.5,21.6,70.7,21.9,70.9,21.7L70.9,21.7z"/>
		</g>
	</g>
	<g>
		<g>
			<path class="st0" d="M70.8,28.5c0.5,0.2,0.9,0.6,1.3,1c0.1,0.1,0.3-0.1,0.2-0.2c-0.4-0.4-0.8-0.9-1.4-1.1
				C70.7,28.1,70.7,28.4,70.8,28.5L70.8,28.5z"/>
		</g>
	</g>
	<g>
		<g>
			<path class="st0" d="M70.1,28.9c0.1,0.4,0.1,0.8,0.2,1.2c0,0.2,0.3,0.1,0.3-0.1c0-0.4-0.1-0.8-0.2-1.2
				C70.4,28.7,70.1,28.7,70.1,28.9L70.1,28.9z"/>
		</g>
	</g>
	<g>
		<g>
			<path class="st0" d="M64.3,29c-0.2,0.2-0.3,0.5-0.4,0.7c-0.1,0.2,0.2,0.3,0.3,0.1c0.1-0.2,0.3-0.5,0.4-0.7
				C64.7,29,64.4,28.9,64.3,29L64.3,29z"/>
		</g>
	</g>
	<g>
		<g>
			<path class="st0" d="M64.5,20.8c0-0.3-0.2-0.5-0.3-0.8c-0.1-0.1-0.4,0-0.3,0.1c0.1,0.2,0.3,0.4,0.3,0.7
				C64.2,21.1,64.5,21,64.5,20.8L64.5,20.8z"/>
		</g>
	</g>
</g>
<g>
	<g>
		<path class="st0" d="M51.2,37.1c-1.6,0-3.1-0.9-3.8-2.4c-0.4-1-0.4-2-0.1-2.9c0.4-0.9,1.1-1.7,2.1-2c2-0.8,4.4,0.2,5.2,2.1
			c0.4,1,0.4,2,0.1,2.9c-0.4,0.9-1.1,1.7-2.1,2C52.2,37,51.7,37.1,51.2,37.1z M50.9,29.8c-0.4,0-0.9,0.1-1.3,0.3
			c-0.9,0.3-1.6,1-1.9,1.8c-0.3,0.8-0.3,1.8,0.1,2.7c0.8,1.8,2.9,2.7,4.8,1.9l0,0c0.9-0.3,1.6-1,1.9-1.8c0.3-0.8,0.3-1.8-0.1-2.7
			C53.7,30.6,52.4,29.8,50.9,29.8z"/>
	</g>
	<g>
		<g>
			<path class="st0" d="M46.9,32.2c0,0,0.1,0.1,0.1,0.2c0.1,0,0.2-0.1,0.2-0.1c-1.1-1.1-3-2.5-4.6-1.7C41.9,31,41.9,32.2,42,33
				c0.2,1.4,1.7,2.5,2.5,3.7c1,1.6,0.1,5,3,4.8c2.2-0.1,2.3-3.3,2.2-4.9c0-0.2-0.3-0.2-0.3,0c0.1,1.7,0.1,4.5-2.1,4.6
				c-2.2,0.1-1.6-3.1-2.3-4.3c-0.4-0.8-1-1.4-1.5-2.1c-0.8-0.9-1.9-3-0.5-3.9c1.3-0.9,3.4,0.8,4.2,1.7c0.1,0.1,0.3,0,0.2-0.1
				c0-0.1-0.1-0.1-0.1-0.2C47.1,32,46.8,32.1,46.9,32.2L46.9,32.2z"/>
		</g>
	</g>
	<g>
		<g>
			<path class="st0" d="M49.8,37.1c0-0.1,0-0.2,0-0.3c-0.1,0.1-0.2,0.1-0.3,0.2c-0.2,0.1-0.3,0.2-0.4,0.4c-0.3,0.4-0.6,0.8-0.8,1.2
				c-0.4,0.7-0.6,1.6-0.2,2.4c0.4,0.7,1.7,0.9,2.4,0.8c1.7-0.3,2.9-1.6,4.5-2.1c1.4-0.4,4.9,0.4,4.5-2.2c-0.3-2.2-3.2-2.5-5-2.6
				c-0.2,0-0.2,0.3,0,0.3c1.6,0.1,4.1,0.3,4.7,2.1c0.7,2.4-3,1.7-4.3,2c-2.1,0.5-3.7,2.9-6.2,1.7c-1.8-0.9,0.5-3.6,1.4-4.3
				c0.1-0.1,0.1-0.2,0-0.3c-0.1-0.1-0.2,0-0.4,0.1C49.5,36.9,49.6,37.2,49.8,37.1L49.8,37.1z"/>
		</g>
	</g>
	<g>
		<g>
			<path class="st0" d="M55,34.1c0,0-0.1-0.1-0.1-0.2c-0.1,0-0.2,0.1-0.2,0.1c1.1,1.1,3,2.5,4.6,1.7c0.8-0.4,0.8-1.7,0.7-2.4
				c-0.2-1.4-1.7-2.5-2.5-3.7c-1-1.6-0.1-5-3-4.8c-2.2,0.1-2.3,3.3-2.2,4.9c0,0.2,0.3,0.2,0.3,0c-0.1-1.7-0.1-4.5,2.1-4.6
				c2.2-0.1,1.6,3.1,2.3,4.3c0.4,0.8,1,1.4,1.5,2.1c0.8,0.9,1.9,3,0.5,3.9c-1.3,0.9-3.4-0.8-4.2-1.7c-0.1-0.1-0.3,0-0.2,0.1
				c0,0.1,0.1,0.1,0.1,0.2C54.8,34.4,55.1,34.3,55,34.1L55,34.1z"/>
		</g>
	</g>
	<g>
		<g>
			<path class="st0" d="M51.9,29.5c0.1,0,0.1,0.1,0.2,0.2c0.1-0.1,0.2-0.1,0.3-0.2c0.1-0.1,0.2-0.3,0.3-0.4c0.3-0.4,0.5-0.8,0.7-1.3
				c0.3-0.8,0.5-1.7,0-2.5c-0.5-0.6-1.7-0.8-2.4-0.6c-1.5,0.3-2.5,1.5-3.8,2.2c-1.6,0.8-5.1-0.1-4.8,2.7c0.2,2.2,3.5,2.3,5.2,2.3
				c0.2,0,0.2-0.3,0-0.3c-1.7,0-4.6,0-4.9-2.2c-0.2-2.1,3.2-1.5,4.4-2c0.9-0.4,1.6-1,2.3-1.6c1-0.7,2.9-1.4,3.8-0.1
				c0.9,1.2-0.7,3.2-1.5,3.9c-0.1,0,0,0.2,0,0.2c0.1,0.1,0.2,0,0.3-0.1C52.2,29.6,52.1,29.4,51.9,29.5L51.9,29.5z"/>
		</g>
	</g>
	<g>
		<path class="st0" d="M52.5,36.2c-1,0-2-0.6-2.5-1.5c-0.3-0.6-0.3-1.3-0.1-1.9c0.2-0.6,0.7-1.1,1.4-1.3c1.3-0.5,2.8,0.1,3.4,1.4
			c0.3,0.6,0.3,1.3,0.1,1.9c-0.2,0.6-0.7,1.1-1.4,1.3l0,0C53.1,36.2,52.8,36.2,52.5,36.2z M52.3,31.7c-0.3,0-0.5,0-0.8,0.2
			c-0.5,0.2-1,0.6-1.2,1.1c-0.2,0.5-0.2,1.1,0.1,1.6c0.5,1.1,1.8,1.6,2.9,1.2c0.5-0.2,1-0.6,1.2-1.1c0.2-0.5,0.2-1.1-0.1-1.6
			C54,32.2,53.1,31.7,52.3,31.7z"/>
	</g>
	<g>
		<ellipse transform="matrix(0.3801 -0.925 0.925 0.3801 1.3975 70.276)" class="st0" cx="53.1" cy="34.1" rx="1.4" ry="1.5"/>
	</g>
	<g>
		<g>
			<path class="st0" d="M47.5,34.6c-0.6,0.2-1.1,0.3-1.7,0.6c-0.2,0.1,0,0.4,0.1,0.3c0.5-0.3,1-0.4,1.6-0.6
				C47.7,34.8,47.7,34.5,47.5,34.6L47.5,34.6z"/>
		</g>
	</g>
	<g>
		<g>
			<path class="st0" d="M49.8,29.6c-0.2-0.6-0.9-0.9-1.4-1.3c-0.2-0.1-0.3,0.1-0.1,0.3c0.5,0.3,1,0.6,1.3,1.2
				C49.6,29.9,49.8,29.7,49.8,29.6L49.8,29.6z"/>
		</g>
	</g>
	<g>
		<g>
			<path class="st0" d="M54.7,31.6c0.2-0.3,0.4-0.5,0.7-0.7c0.1-0.1,0-0.4-0.1-0.3c-0.3,0.2-0.6,0.5-0.8,0.8
				C54.4,31.6,54.7,31.8,54.7,31.6L54.7,31.6z"/>
		</g>
	</g>
	<g>
		<g>
			<path class="st0" d="M54.8,32.1c0.3-0.1,0.7-0.1,1.1-0.1c0.2,0,0.2-0.3,0-0.3c-0.4,0-0.8,0-1.1,0.1
				C54.5,31.8,54.6,32.1,54.8,32.1L54.8,32.1z"/>
		</g>
	</g>
	<g>
		<g>
			<path class="st0" d="M52.8,36.9c0.3,0.3,0.5,0.7,0.6,1.1c0.1,0.2,0.4,0.1,0.3-0.1c-0.2-0.4-0.3-0.9-0.7-1.2
				C52.8,36.5,52.6,36.7,52.8,36.9L52.8,36.9z"/>
		</g>
	</g>
	<g>
		<g>
			<path class="st0" d="M52.1,37c0,0.3-0.1,0.6-0.2,0.9c0,0.2,0.2,0.3,0.3,0.1c0.1-0.3,0.2-0.6,0.2-0.9C52.4,36.8,52.1,36.8,52.1,37
				L52.1,37z"/>
		</g>
	</g>
	<g>
		<g>
			<path class="st0" d="M47.7,35.2c-0.2,0.1-0.4,0.2-0.6,0.4c-0.1,0.1,0.1,0.3,0.2,0.2c0.1-0.1,0.3-0.2,0.5-0.3
				C48,35.4,47.9,35.1,47.7,35.2L47.7,35.2z"/>
		</g>
	</g>
	<g>
		<g>
			<path class="st0" d="M50.3,29.4c0-0.2,0-0.5,0-0.7c0-0.2-0.3-0.1-0.3,0.1c0,0.2,0.1,0.3,0,0.5C50,29.5,50.3,29.6,50.3,29.4
				L50.3,29.4z"/>
		</g>
	</g>
</g>
<g>
	<g>
		<path class="st0" d="M84.6,36.2c-0.6,0-1.3-0.1-1.8-0.4c-0.9-0.5-1.6-1.3-1.9-2.2c-0.3-1-0.2-2,0.4-2.9c1.1-1.9,3.5-2.6,5.4-1.6
			c0.9,0.5,1.6,1.3,1.9,2.2c0.3,1,0.2,2-0.4,2.9C87.5,35.5,86.1,36.2,84.6,36.2z M84.9,29c-1.3,0-2.6,0.7-3.3,1.9
			c-0.5,0.8-0.6,1.7-0.3,2.6c0.3,0.9,0.9,1.6,1.7,2c1.7,0.9,4,0.2,5-1.5l0,0c0.5-0.8,0.6-1.7,0.3-2.6c-0.3-0.9-0.9-1.6-1.7-2
			C86,29.1,85.4,29,84.9,29z"/>
	</g>
	<g>
		<g>
			<path class="st0" d="M80.9,34.2c0.1,0,0.1,0,0.2,0.1c0-0.1,0-0.2,0.1-0.3c-1.3-0.1-3.9-0.1-4.6,1.5c-1,2.4,2.8,3.2,4.3,3.5
				c1.5,0.3,2.3,1.3,3.4,2.2c0.7,0.6,1.5,0.7,2.3,0.3c2.5-1.2,0.2-4.3-0.9-5.6c-0.1-0.1-0.3,0.1-0.2,0.2c0.6,0.6,1.1,1.3,1.5,2.1
				c0.7,1.3,0.2,3.5-1.7,3.2c-0.8-0.1-1.4-1-2-1.5c-0.5-0.5-1.1-0.8-1.7-1c-0.8-0.3-1.7-0.4-2.5-0.6c-1.1-0.3-3.1-1.7-2-3
				c0.9-1.1,2.8-1.1,4.1-1c0.1,0,0.2-0.2,0.1-0.3c-0.1,0-0.2-0.1-0.3-0.1C80.8,33.9,80.7,34.2,80.9,34.2L80.9,34.2z"/>
		</g>
	</g>
	<g>
		<g>
			<path class="st0" d="M86.2,36.2c-0.1-0.1-0.1-0.1-0.2-0.2c0,0.1-0.1,0.3-0.2,0.4c-0.1,0.1,0,0.4,0,0.5c0,0.5,0,1,0.1,1.5
				c0.1,0.7,0.5,1.6,1.2,1.9c2.4,0.9,3.5-2.5,4.1-4c0.5-1.4,1.7-2.1,2.7-3.1c0.6-0.5,0.9-1.4,0.4-2.1c-1.4-2.3-4.3-0.5-5.9,0.6
				c-0.2,0.1,0,0.4,0.1,0.3c1.3-0.9,5.4-3.2,5.6,0c0.1,0.9-1.2,1.6-1.8,2.1c-0.6,0.5-1,1-1.4,1.7c-0.8,1.5-1.3,5-3.8,4.5
				c-1.5-0.3-1.3-3.1-1-4.2c0-0.1-0.1-0.2-0.2-0.2c-0.1,0-0.1,0.2-0.2,0.3C85.9,36.2,86.1,36.4,86.2,36.2L86.2,36.2z"/>
		</g>
	</g>
	<g>
		<g>
			<path class="st0" d="M88.4,30.6c-0.1,0-0.1,0-0.2-0.1c0,0.1,0,0.2-0.1,0.3c1.3,0.1,3.9,0.1,4.6-1.5c1-2.4-2.8-3.2-4.3-3.5
				c-1.5-0.3-2.3-1.3-3.4-2.2c-0.7-0.6-1.5-0.7-2.3-0.3c-2.5,1.2-0.2,4.3,0.9,5.6c0.1,0.1,0.3-0.1,0.2-0.2c-0.6-0.6-1.1-1.3-1.5-2.1
				c-0.7-1.3-0.2-3.5,1.7-3.2c0.8,0.1,1.4,1,2,1.5c0.5,0.5,1.1,0.8,1.7,1c0.8,0.3,1.7,0.4,2.5,0.6c1.1,0.3,3.1,1.7,2,3
				c-0.9,1.1-2.8,1.1-4.1,1c-0.1,0-0.2,0.2-0.1,0.3c0.1,0,0.2,0.1,0.3,0.1C88.5,31,88.5,30.7,88.4,30.6L88.4,30.6z"/>
		</g>
	</g>
	<g>
		<g>
			<path class="st0" d="M83.1,28.9c0.1,0,0.1,0.1,0.2,0.2c0-0.1,0.1-0.2,0.1-0.4c0-0.2,0-0.1,0-0.4c0-0.5-0.1-1-0.2-1.5
				c-0.2-0.7-0.6-1.7-1.3-1.9c-2.6-0.9-3.4,2.9-3.9,4.5c-0.4,1.4-1.6,2.1-2.5,3.2c-0.6,0.7-0.5,1.5,0,2.3c1.4,2,4.4-0.3,5.7-1.3
				c0.1-0.1-0.1-0.3-0.2-0.2c-0.7,0.6-1.4,1.1-2.1,1.5c-1.2,0.6-3.2,0.8-3.4-1c-0.1-0.8,1-1.6,1.5-2.1c0.5-0.4,0.9-1,1.2-1.6
				c0.8-1.8,0.7-4.3,3-5c1.9-0.6,2.1,3,1.9,4c0,0.1,0.1,0.2,0.2,0.2c0.1,0,0.1-0.2,0.2-0.3C83.4,28.8,83.1,28.7,83.1,28.9L83.1,28.9
				z"/>
		</g>
	</g>
	<g>
		<path class="st0" d="M86,34.4c-0.4,0-0.8-0.1-1.2-0.3c-0.6-0.3-1-0.8-1.2-1.4c-0.2-0.6-0.1-1.3,0.2-1.9c0.7-1.2,2.3-1.7,3.5-1
			c0.6,0.3,1,0.8,1.2,1.4c0.2,0.6,0.1,1.3-0.2,1.9C87.8,34,86.9,34.4,86,34.4z M86.1,29.9c-0.8,0-1.6,0.4-2,1.1
			c-0.3,0.5-0.4,1.1-0.2,1.6c0.2,0.5,0.5,0.9,1,1.2c1.1,0.6,2.4,0.2,3-0.9l0,0c0.3-0.5,0.4-1.1,0.2-1.6c-0.2-0.5-0.5-0.9-1-1.2
			C86.8,30,86.5,29.9,86.1,29.9z"/>
	</g>
	<g>
		<path class="st0" d="M88.3,31.3c-0.2-0.8-1.1-1.2-1.8-0.9c-0.8,0.2-1.3,1-1,1.8c0.2,0.8,1.1,1.2,1.8,0.9
			C88.1,32.9,88.6,32.1,88.3,31.3z"/>
	</g>
	<g>
		<g>
			<path class="st0" d="M82.8,35.7c-0.3,0.5-0.7,1-0.9,1.5c-0.1,0.2,0.2,0.3,0.3,0.1c0.2-0.5,0.5-1,0.8-1.5
				C83.2,35.7,82.9,35.6,82.8,35.7L82.8,35.7z"/>
		</g>
	</g>
	<g>
		<g>
			<path class="st0" d="M81.5,30.4c-0.6-0.3-1.3-0.2-1.9-0.1c-0.2,0-0.2,0.3,0,0.3c0.6,0,1.2-0.2,1.7,0.1
				C81.5,30.7,81.6,30.4,81.5,30.4L81.5,30.4z"/>
		</g>
	</g>
	<g>
		<g>
			<path class="st0" d="M86.6,28.8c0-0.3,0-0.7,0.1-1c0-0.2-0.2-0.3-0.3-0.1c-0.1,0.3-0.2,0.7-0.1,1.1C86.3,29,86.6,29,86.6,28.8
				L86.6,28.8z"/>
		</g>
	</g>
	<g>
		<g>
			<path class="st0" d="M86.9,29.2c0.2-0.3,0.5-0.5,0.8-0.8c0.1-0.1-0.1-0.3-0.2-0.2c-0.3,0.2-0.6,0.5-0.8,0.8
				C86.6,29.1,86.8,29.3,86.9,29.2L86.9,29.2z"/>
		</g>
	</g>
	<g>
		<g>
			<path class="st0" d="M88.4,34.1c0.4,0,0.8,0.2,1.2,0.4c0.2,0.1,0.3-0.2,0.1-0.3c-0.4-0.2-0.8-0.5-1.3-0.5
				C88.2,33.8,88.2,34.1,88.4,34.1L88.4,34.1z"/>
		</g>
	</g>
	<g>
		<g>
			<path class="st0" d="M87.9,34.6c0.2,0.3,0.3,0.6,0.4,0.9c0.1,0.2,0.3,0,0.3-0.1c-0.1-0.3-0.2-0.6-0.4-0.9
				C88.1,34.3,87.8,34.5,87.9,34.6L87.9,34.6z"/>
		</g>
	</g>
	<g>
		<g>
			<path class="st0" d="M83.3,36c-0.1,0.2-0.1,0.4-0.2,0.6c0,0.2,0.2,0.3,0.3,0.1c0-0.2,0.1-0.4,0.2-0.6
				C83.7,35.9,83.4,35.9,83.3,36L83.3,36z"/>
		</g>
	</g>
	<g>
		<g>
			<path class="st0" d="M81.7,29.9c-0.1-0.2-0.3-0.4-0.5-0.5c-0.2-0.1-0.3,0.1-0.1,0.3c0.1,0.1,0.3,0.2,0.4,0.4
				C81.6,30.2,81.8,30.1,81.7,29.9L81.7,29.9z"/>
		</g>
	</g>
</g>
<g>
	<g>
		<path class="st0" d="M44.7,36.9c-1.7-0.8-3.7-0.6-5.4-0.2c-2.1,0.5-3.4,2.3-4.7,3.9c-0.1,0.1,0,0.3,0.1,0.3c1.9-0.1,3.9,0,5.8-0.3
			c1.9-0.3,3.3-1.2,4.8-2.4c0.1-0.1-0.1-0.3-0.2-0.2c-1.7,1.4-3.2,2.2-5.4,2.4c-1.7,0.2-3.3,0.1-5,0.2c0,0.1,0.1,0.2,0.1,0.3
			c1.3-1.5,2.4-3,4.3-3.7c1.6-0.6,3.9-0.6,5.5,0.1C44.8,37.2,44.9,36.9,44.7,36.9L44.7,36.9z"/>
	</g>
</g>
<g>
	<g>
		<path class="st0" d="M91.9,35.3c1.7-0.6,3.5-0.5,5.1,0c1.9,0.5,3.1,2,4.7,3.1c0-0.1,0-0.2,0-0.3c-3.5,1.1-7.6,1.3-10.5-1.4
			c-0.1-0.1-0.4,0.1-0.2,0.2c3,2.7,7.2,2.6,10.8,1.4c0.1,0,0.1-0.2,0-0.3c-0.9-0.6-1.5-1.4-2.4-2c-0.7-0.5-1.5-0.8-2.3-1.1
			c-1.7-0.5-3.6-0.5-5.3,0C91.6,35.1,91.7,35.4,91.9,35.3L91.9,35.3z"/>
	</g>
</g>
<g>
	<g>
		<path class="st0" d="M91.3,36.4c2,0.5,4,0.8,6,1c0.2,0,0.2-0.3,0-0.3c-2-0.2-4-0.5-5.9-1C91.2,36.1,91.1,36.4,91.3,36.4L91.3,36.4
			z"/>
	</g>
</g>
<g>
	<g>
		<path class="st0" d="M44.9,37.3c-1.7-0.1-3.2,0.2-4.8,0.7c-0.2,0.1-0.1,0.4,0.1,0.3c1.5-0.5,3.1-0.8,4.7-0.7
			C45.1,37.7,45.1,37.4,44.9,37.3L44.9,37.3z"/>
	</g>
</g>
<g>
	<g>
		<path class="st0" d="M50.5,24.9c-1.9-0.4-3.4-1.6-4.6-3.1c-0.5-0.6-0.9-1.4-1.3-2.1c-0.2-0.4-0.3-0.8-0.5-1.2
			C44,17.8,44.6,18,45,18c3.9,0.1,8.2,1.8,10.2,5.4c0.1,0.2,0.4,0,0.3-0.1c-2.3-4.2-7.1-5.7-11.6-5.6c-0.1,0-0.2,0.1-0.1,0.2
			c0.9,3.2,3.2,6.6,6.7,7.2C50.6,25.2,50.7,24.9,50.5,24.9L50.5,24.9z"/>
	</g>
</g>
<g>
	<g>
		<path class="st0" d="M48.8,21.4c1,0.4,2,0.8,2.9,1.4c1.1,0.6,1.9,1.5,2.9,2.2c0.1,0.1,0.4-0.1,0.2-0.2c-0.8-0.6-1.5-1.3-2.2-1.8
			c-1.1-0.8-2.4-1.3-3.6-1.8C48.7,21,48.6,21.3,48.8,21.4L48.8,21.4z"/>
	</g>
</g>
<g>
	<g>
		<path class="st0" d="M78.1,22.6c0-2,1.6-3.4,3-4.6c1-0.9,1.9-1.8,2.9-2.6c0.5-0.4,1.2-0.8,1.9-0.9c1.4-0.1,0.8,2.2,0.6,2.9
			c-0.5,2.2-1.2,4-2.8,5.6c-0.1,0.1,0.1,0.4,0.2,0.2c1.8-1.8,2.6-4.1,3.1-6.6c0.2-1.2,0-2.7-1.6-2.4c-1.5,0.3-2.8,1.8-3.9,2.8
			c-1.6,1.5-3.8,3.1-3.7,5.5C77.8,22.8,78.1,22.8,78.1,22.6L78.1,22.6z"/>
	</g>
</g>
<g>
	<g>
		<path class="st0" d="M78.5,25.7c1-2.9,3.1-5,5.5-6.8c0.1-0.1,0-0.4-0.1-0.3c-2.4,1.8-4.6,4-5.6,6.9C78.1,25.8,78.4,25.9,78.5,25.7
			L78.5,25.7z"/>
	</g>
</g>
<g>
	<g>
		<path class="st0" d="M47.4,26.7c-0.9-1.2-2.3-1.9-3.7-2.6c-1.4-0.7-2.8-1.2-4.3-1.5c-2.5-0.5-5.8,0-7.1,2.5
			c-0.8,1.7,0.5,4.6,2.7,3.9c0.7-0.2,1.5-1,1.3-1.8c-0.2-0.9-1.2-0.7-1.9-0.6c-0.2,0-0.1,0.3,0.1,0.3c0.1,0,0.3,0,0.4,0
			c0.7-0.1,0.9,0.4,0.8,1.4c-0.5,0.7-1.4,0.7-2.1,0.3c-1.1-0.6-1.3-2-1-3c0.5-2.1,3.2-2.7,5-2.8c1.8,0,3.7,0.5,5.4,1.3
			c1.5,0.7,3.2,1.5,4.3,2.8C47.3,27,47.5,26.8,47.4,26.7L47.4,26.7z"/>
	</g>
</g>
<g>
	<g>
		<path class="st0" d="M88.1,25.7c2-2.1,3.9-3.8,6.6-5c2.1-0.9,4.5-1.6,6.7-1.1c1.4,0.3,2.4,1.3,2.7,2.7c0.4,1.7-0.9,3.3-2.3,4.1
			c-1.5,0.9-3.9,1.2-5.3,0.1c-0.9-0.7-0.4-2,0.2-2.7c0.3-0.4,0.8-0.6,1.3-0.8c0.2,0,0.4,0,0.5-0.1c0.8,0.8,0.7,1.4,0,1.7
			c-0.2,0.1,0,0.4,0.1,0.3c1.1-0.7,1.6-2.1-0.1-2.3c-1.5-0.2-2.9,1.6-2.9,3c0.1,1.8,2.5,2.1,3.8,1.9c2-0.3,3.7-1.3,4.6-3.2
			c0.6-1.4,0.1-3.2-1.1-4.1c-1.3-1-3-1-4.6-0.8c-1.8,0.2-3.6,0.9-5.2,1.7c-2.2,1.1-3.8,2.7-5.5,4.5C87.8,25.7,88,25.9,88.1,25.7
			L88.1,25.7z"/>
	</g>
</g>
<g>
	<g>
		<path class="st0" d="M59.4,20c0.3-2-0.9-4.5-2.8-5.2c-1.8-0.8-3.3,0.7-3.4,2.5c0,0.8,0.2,1.5,1,1.8c0.7,0.3,1.8-0.4,2-1.1
			c0.3-1.2-1.6-1.7-1.7-0.5c0,0.2,0.3,0.2,0.3,0c0.1-0.3,0.3-0.5,0.7-0.3c0.5,0.6,0.4,1.1-0.2,1.5c-1.2,0.8-1.8-0.6-1.8-1.6
			c0-1.2,0.9-2.1,2.1-2.1c2.2,0,3.7,3.1,3.4,5C59,20.1,59.3,20.2,59.4,20L59.4,20z"/>
	</g>
</g>
<g>
	<g>
		<path class="st0" d="M73.8,18.2c-0.3-1.9,0-4.2,2.2-4.8c1.2-0.3,2,0.7,2.1,1.8c0,0.4-0.3,0.9-0.6,1.2c-0.4,0.4-1.7,0.2-1.1-0.6
			c0.2-0.3,0.5-0.1,0.4,0.2c-0.1,0.2,0.2,0.3,0.3,0.1c0.4-1-1.1-0.8-1.1,0.1c0,0.5,0.6,1,1.1,0.8c0.7-0.2,1.2-0.9,1.3-1.6
			c0.3-1.6-1.5-2.8-2.9-2.2c-2,0.9-2.3,3.1-2,5C73.5,18.5,73.8,18.4,73.8,18.2L73.8,18.2z"/>
	</g>
</g>
<g>
	<g>
		<path class="st0" d="M64.7,111.6c-3.8,0-7.6-0.2-11.3-0.9c-4.2-0.7-9.2-2.1-11.8-5.7c-0.1-0.1-0.4,0-0.3,0.1
			c2.3,3.3,6.4,4.6,10.1,5.5c4.3,1,8.9,1.3,13.3,1.2C64.7,111.8,64.7,111.7,64.7,111.6z"/>
	</g>
	<g>
		<path class="st0" d="M81.6,110.5c-0.1-0.1-0.1-0.2-0.2-0.3c-1.2,0.2-2.4,0.4-3.6,0.6c0,0.1,0,0.2,0,0.2c0,0,0,0,0,0.1
			C79,110.9,80.3,110.7,81.6,110.5z"/>
	</g>
	<g>
		<path class="st0" d="M98.4,105.8c-3.3,1.2-6.7,2.2-10.1,3c0,0.1,0,0.2,0,0.3c3.4-0.8,6.9-1.9,10.2-3.1
			C98.6,106,98.6,105.7,98.4,105.8z"/>
	</g>
</g>
<g>
	<g>
		<path class="st0" d="M48.7,109.8c-1.1,1.4-1.8,3-2.6,4.6c-0.1,0.2,0.2,0.3,0.3,0.1c0.8-1.6,1.5-3.2,2.6-4.6
			C49,109.8,48.8,109.6,48.7,109.8L48.7,109.8z"/>
	</g>
</g>
<g>
	<g>
		<path class="st0" d="M55.5,111.5c-0.2,0.8-0.5,1.6-0.7,2.4c-0.1,0.2,0.2,0.3,0.3,0.1c0.3-0.8,0.5-1.6,0.7-2.4
			C55.9,111.4,55.6,111.3,55.5,111.5L55.5,111.5z"/>
	</g>
</g>
<g>
	<g>
		<path class="st0" d="M47.5,109.5c-0.2,0.5-0.6,0.9-0.9,1.4c-0.1,0.2,0.2,0.3,0.3,0.1c0.2-0.5,0.6-0.9,0.9-1.4
			C47.9,109.5,47.6,109.3,47.5,109.5L47.5,109.5z"/>
	</g>
</g>
<g>
	<g>
		<path class="st0" d="M55.5,102.1c0.1-0.1,0.2-0.2,0.3-0.3c-2.5-0.1-5-0.4-7.5-1.1c-2.3-0.7-4.4-1.8-6.7-2.5
			c-0.2-0.1-0.3,0.2-0.1,0.3c2.3,0.7,4.4,1.8,6.7,2.5c2.3,0.7,4.8,1,7.1,1.1C55.4,102.1,55.4,102.1,55.5,102.1z"/>
	</g>
	<g>
		<path class="st0" d="M86.2,99c-0.2,0-0.4,0.1-0.6,0.2c-2.3,0.7-4.7,1.3-7.1,1.8c-2.6,0.5-5.1,0.6-7.8,0.7
			c-3.1,0.1-6.1,0.2-9.2,0.2c0.1,0,0.1,0.1,0.2,0.1c0.1,0,0.1,0.1,0.2,0.2c3.1,0,6.2-0.1,9.2-0.2c5-0.2,9.7-1.1,14.4-2.5
			c0.2-0.1,0.5-0.1,0.7-0.2C86.3,99.1,86.3,99.1,86.2,99z"/>
	</g>
	<g>
		<path class="st0" d="M98.5,94c-1.7,1.3-3.7,2.2-5.7,2.9c0,0.1,0,0.2,0,0.3c2.1-0.7,4.1-1.7,5.9-3C98.9,94.2,98.7,93.9,98.5,94z"/>
	</g>
</g>
<g>
	<g>
		<path class="st0" d="M53.5,107.2c-0.6-0.1-1.3-0.2-1.9-0.3c-1.9-0.3-3.8-0.9-5.5-1.8c-0.8-0.4-1.6-0.9-2.4-1.5
			c-0.5-0.4-1.4-0.8-1.8-1.4c-0.1-0.2-0.4,0-0.3,0.1c0.2,0.4,0.7,0.7,1.1,1c0.8,0.6,1.6,1.2,2.4,1.7c1.7,1,3.6,1.6,5.5,2
			c1,0.2,2,0.4,3,0.5C53.6,107.5,53.6,107.4,53.5,107.2z"/>
	</g>
</g>
<g>
	<g>
		<path class="st0" d="M41.7,100.6c3.2,1.2,6.2,2.6,9.5,3.6c0.2,0,0.3-0.2,0.1-0.3c-3.2-1-6.3-2.4-9.5-3.6
			C41.6,100.2,41.6,100.5,41.7,100.6L41.7,100.6z"/>
	</g>
</g>
<g>
	<g>
		<path class="st0" d="M98.3,97.6c-0.6,0.6-1.1,1.1-1.9,1.4c-0.7,0.3-1.5,0.4-2.2,0.7c-1.5,0.5-3,1-4.5,1.5
			c-0.7,0.2-1.5,0.5-2.2,0.7c0.2,0,0.3,0.1,0.5,0.2c0.9-0.3,1.8-0.6,2.7-0.9c1.6-0.5,3.3-1.2,4.9-1.7c1.3-0.4,2-0.9,2.9-1.8
			C98.7,97.7,98.5,97.5,98.3,97.6z"/>
	</g>
</g>
<g>
	<g>
		<path class="st0" d="M98.4,101.4c-1.4,0.9-2.9,1.5-4.4,2.2c-0.2,0.1,0,0.3,0.1,0.3c1.5-0.7,3-1.4,4.4-2.2
			C98.8,101.6,98.6,101.3,98.4,101.4L98.4,101.4z"/>
	</g>
</g>
<g>
	<g>
		<g>
			<path class="st0" d="M54.6,42.1c-0.3-0.3-0.6-0.6-0.7-1.1c-0.1-0.4-0.7-0.2-0.6,0.2c0.1,0.5,0.4,1,0.8,1.4
				C54.4,42.8,54.9,42.3,54.6,42.1L54.6,42.1z"/>
		</g>
	</g>
</g>
<g>
	<g>
		<g>
			<path class="st0" d="M56,41.4c-0.2-0.3-0.4-0.6-0.4-1c-0.1-0.4-0.7-0.2-0.6,0.2c0.1,0.5,0.3,0.9,0.6,1.2
				C55.8,42.1,56.2,41.7,56,41.4L56,41.4z"/>
		</g>
	</g>
</g>
<g>
	<g>
		<g>
			<path class="st0" d="M58,41.5c-0.3-0.4-0.5-0.9-0.5-1.5c0-0.4-0.6-0.4-0.6,0c0,0.6,0.2,1.3,0.6,1.8C57.7,42.1,58.2,41.8,58,41.5
				L58,41.5z"/>
		</g>
	</g>
</g>
<g>
	<g>
		<g>
			<path class="st0" d="M80.4,41c0.4,0,0.4-0.6,0-0.6C80,40.4,80,41,80.4,41L80.4,41z"/>
		</g>
	</g>
</g>
<g>
	<g>
		<g>
			<path class="st0" d="M80.7,40.9c0.4-0.4,0.7-0.8,1.1-1.3c0.2-0.3-0.2-0.7-0.4-0.4c-0.4,0.4-0.7,0.8-1.1,1.3
				C80,40.8,80.4,41.2,80.7,40.9L80.7,40.9z"/>
		</g>
	</g>
</g>
<g>
	<g>
		<g>
			<path class="st0" d="M82.7,40.7c0.2-0.4,0.5-0.7,0.7-1.1c0.2-0.3-0.3-0.6-0.5-0.3c-0.2,0.4-0.5,0.7-0.7,1.1
				C82,40.7,82.5,41,82.7,40.7L82.7,40.7z"/>
		</g>
	</g>
</g>
<g>
	<g>
		<g>
			<path class="st0" d="M84.2,41.8c0.5-0.1,1-0.5,1.1-1c0.1-0.4-0.5-0.5-0.6-0.2c-0.1,0.3-0.3,0.6-0.7,0.6c-0.2,0-0.2,0.2-0.2,0.4
				C83.8,41.8,84,41.9,84.2,41.8L84.2,41.8z"/>
		</g>
	</g>
</g>
<g>
	<g>
		<g>
			<path class="st0" d="M52.5,42.6C52.5,42.6,52.5,42.6,52.5,42.6c0,0,0.1,0,0.1,0c0,0,0,0,0,0c0,0,0.1,0,0.1,0.1
				c0.1,0.1,0.1,0.3,0,0.3c0,0-0.1,0-0.1,0c0,0-0.1,0-0.1,0c0.1,0.1,0.3,0,0.4-0.1c0.1-0.1,0-0.3-0.1-0.4c-0.2-0.2-0.5,0-0.5,0.3
				c0,0.1,0,0.2,0.1,0.3c0.1,0.1,0.3,0.1,0.4,0c0.1-0.1,0.2-0.3,0.1-0.4C52.9,42.5,52.7,42.5,52.5,42.6L52.5,42.6z"/>
		</g>
	</g>
</g>
<g>
	<g>
		<g>
			<path class="st0" d="M51.6,44.1c0.4,0,0.4-0.6,0-0.6C51.2,43.5,51.2,44.1,51.6,44.1L51.6,44.1z"/>
		</g>
	</g>
</g>
<g>
	<g>
		<g>
			<path class="st0" d="M85.5,42.7c0,0,0.1,0,0.2,0c0.4,0,0.4-0.6,0-0.6c0,0-0.1,0-0.2,0C85.1,42.1,85.1,42.7,85.5,42.7L85.5,42.7z"
				/>
		</g>
	</g>
</g>
<g>
	<g>
		<g>
			<path class="st0" d="M86.8,43.7c0,0,0.1-0.1,0.2-0.2c0.3-0.3-0.1-0.7-0.4-0.4c0,0-0.1,0.1-0.2,0.2C86.1,43.5,86.5,43.9,86.8,43.7
				L86.8,43.7z"/>
		</g>
	</g>
</g>
<g>
	<g>
		<g>
			<path class="st0" d="M41.2,105c-0.3,2.5-2.2,4.3-4.2,5.7c-1.6,1.1-3.6,1.9-4.8,3.4c-0.7,0.8-0.8,1.9,0.3,2.3
				c1.6,0.5,3.6-0.3,5.2-0.4c1.3-0.1,2.4,0.3,3.3,1.3c0.6,0.6,1.2,1.4,2,1.8c1.4,0.7,3.1,0.5,4.6,0c2.1-0.7,5.5-3.5,7.6-1.6
				c1.3,1.2,1.8,3.1,3,4.4c1,1.2,2.3,2,3.9,1.9c0.9,0,1.8-0.4,2.7-0.7c0.3-0.1,0.7-0.3,1-0.5c0.2-0.1,0.4-0.2,0.6-0.3
				c0.8-0.4,1-0.6,1.9-0.3c1,0.2,1.5,1,2.4,1.5c0.6,0.3,1.3,0.6,2,0.7c1.4,0.2,2.8-0.1,3.9-1c0.7-0.6,1.3-1.4,2-2
				c0.9-0.8,2-1.4,3.3-1.8c2.3-0.6,4.2,0,6.4,0.5c1.5,0.4,2.9,0.4,4-0.8c0.7-0.7,1.2-1.7,2.3-2c1.3-0.3,2.7,0.1,3.8,0.6
				c1.6,0.7,3.3,1.7,5.1,1.3c0.7-0.1,1.4-0.6,1.8-1.1c0.9-1.1,1.4-2.1,2.8-2.5c2.2-0.8,8.1-0.5,7.3-4.5c0-0.1-0.1-0.1-0.1-0.1
				c-2.9,0.1-5.8-0.2-8.7-1c-1.4-0.4-2.8-0.9-4.2-1.5c-0.9-0.4-4.1-1.6-3.9-2.9c0-0.2-0.3-0.3-0.3-0.1c-0.3,1.5,2.2,2.3,3.2,2.9
				c1.9,1,4,1.7,6.1,2.2c1,0.2,2,0.4,3,0.5c1.3,0.2,2.6,0,3.9,0.2c0.4,0,0.6-0.2,0.8,0.4c0.1,0.2-0.2,0.8-0.3,1
				c-0.3,0.5-0.8,0.9-1.3,1.2c-1,0.6-2.2,0.7-3.4,0.9c-1.7,0.2-3.2,0.5-4.3,1.9c-0.7,0.9-1.3,1.9-2.5,2.2c-1.3,0.3-2.8-0.3-4-0.9
				c-1.5-0.7-3.2-1.5-4.9-1.1c-0.7,0.2-1.3,0.7-1.7,1.2c-1.1,1.3-2.1,1.9-3.9,1.6c-2-0.3-3.7-1.2-5.7-0.9c-1.8,0.2-3.5,1-4.9,2.2
				c-0.8,0.7-1.4,1.7-2.4,2.2c-1.1,0.6-2.4,0.7-3.6,0.4c-1.1-0.3-2-0.9-2.9-1.6c-0.4-0.4-0.8-0.8-1.5-0.7c-1,0.1-2,0.8-2.9,1.2
				c-1.5,0.7-3.1,1.2-4.7,0.6c-2-0.8-3-3-4.1-4.7c-1-1.6-2.1-2.4-4-1.8c-2.3,0.7-4.3,2.3-6.8,2.5c-1.7,0.1-2.9-0.6-4-1.8
				c-0.7-0.7-1.4-1.3-2.3-1.6c-0.9-0.2-1.7-0.1-2.6,0c-0.7,0.1-1.5,0.3-2.2,0.3c-0.2,0-0.5,0-0.7,0c-0.8,0-1,0-1.3-0.8
				c-0.3-0.8-0.3-0.8,0.3-1.4c0.3-0.3,0.7-0.6,1.1-0.9c0.5-0.4,1.1-0.7,1.6-1.1c1-0.6,2.1-1.3,3-2c1.6-1.3,2.9-3,3.1-5.1
				C41.5,104.8,41.2,104.8,41.2,105L41.2,105z"/>
		</g>
	</g>
</g>
<g>
	<g>
		<g>
			<path class="st0" d="M35.2,113.4c-0.7,0-1.3,0.6-1.2,1.4c0,0.1,0.1,0.2,0.2,0.1c1.1-0.2,2.1-0.6,3.1-1.3c0.2-0.1,0-0.4-0.1-0.3
				c-0.9,0.6-1.9,1-3,1.2c0.1,0,0.1,0.1,0.2,0.1c-0.1-0.6,0.3-1.1,0.9-1.1C35.4,113.7,35.4,113.3,35.2,113.4L35.2,113.4z"/>
		</g>
	</g>
</g>
<g>
	<g>
		<g>
			<path class="st0" d="M42.7,115.9c0.3,0.9,1.2,1.4,2.2,1.4c1.4,0,2.5-1.1,3.4-2.1c0.1-0.1-0.1-0.4-0.2-0.2
				c-0.7,0.7-1.4,1.4-2.3,1.8c-1,0.4-2.4,0.2-2.8-1C43,115.7,42.6,115.7,42.7,115.9L42.7,115.9z"/>
		</g>
	</g>
</g>
<g>
	<g>
		<g>
			<path class="st0" d="M58.4,118c-0.3,1.2,0.3,2.5,1.6,2.9c1.6,0.5,3-1,4-2.1c0.1-0.1-0.1-0.4-0.2-0.2c-0.7,0.8-1.5,1.8-2.6,2
				c-1.5,0.3-2.8-1.1-2.4-2.5C58.8,117.9,58.5,117.8,58.4,118L58.4,118z"/>
		</g>
	</g>
</g>
<g>
	<g>
		<g>
			<path class="st0" d="M71.2,120.7c0.3,0.9,1.2,1.3,2.1,1.2c1.2-0.1,2-1.1,2.7-2c0.1-0.2-0.1-0.3-0.3-0.1c-0.5,0.7-1,1.4-1.8,1.7
				c-0.9,0.4-2,0.2-2.4-0.8C71.5,120.5,71.2,120.5,71.2,120.7L71.2,120.7z"/>
		</g>
	</g>
</g>
<g>
	<g>
		<g>
			<path class="st0" d="M87.2,118.3c1.7,1,3.8,0.5,4.9-1.1c0.1-0.2-0.1-0.3-0.3-0.1c-1,1.5-3,1.9-4.5,1
				C87.2,117.9,87.1,118.2,87.2,118.3L87.2,118.3z"/>
		</g>
	</g>
</g>
<g>
	<g>
		<g>
			<path class="st0" d="M99.3,115.2c0.2,1.1,1.2,1.8,2.3,1.8c1.4,0,2.4-1.1,3.1-2.1c0.1-0.1-0.1-0.3-0.3-0.1
				c-0.6,0.8-1.4,1.7-2.5,1.9c-1.1,0.2-2.2-0.4-2.4-1.5C99.6,114.9,99.3,115,99.3,115.2L99.3,115.2z"/>
		</g>
	</g>
</g>
<g>
	<g>
		<g>
			<path class="st0" d="M109.6,113.5c1,0.4,2.1,0.2,2.9-0.6c0.1-0.1-0.1-0.4-0.2-0.2c-0.6,0.7-1.6,1-2.5,0.6
				C109.5,113.2,109.4,113.4,109.6,113.5L109.6,113.5z"/>
		</g>
	</g>
</g>
<g>
	<g>
		<g>
			<path class="st0" d="M43.7,115c0,0.6,0.8,1,1.3,0.7c0.2-0.1,0-0.4-0.1-0.3c-0.3,0.2-0.8,0-0.9-0.4C44,114.8,43.7,114.8,43.7,115
				L43.7,115z"/>
		</g>
	</g>
</g>
<g>
	<g>
		<g>
			<path class="st0" d="M59.6,118.2c-0.3,0.7,0.7,1.4,1.2,0.8c0.1-0.1-0.1-0.3-0.2-0.2c-0.3,0.3-0.9-0.1-0.7-0.5
				C59.9,118.2,59.6,118,59.6,118.2L59.6,118.2z"/>
		</g>
	</g>
</g>
<g>
	<g>
		<g>
			<path class="st0" d="M71.9,119.7c0.2,0.2,0.4,0.4,0.5,0.6c0,0,0.1,0,0.1,0c0.4-0.1,0.7-0.3,1-0.6c0.1-0.1-0.1-0.4-0.2-0.2
				c-0.2,0.3-0.5,0.4-0.8,0.5c0,0,0.1,0,0.1,0c-0.2-0.2-0.4-0.4-0.5-0.6C72,119.4,71.7,119.6,71.9,119.7L71.9,119.7z"/>
		</g>
	</g>
</g>
<g>
	<g>
		<g>
			<path class="st0" d="M88.3,117.6c0.9,0.1,1.7-0.1,2.3-0.8c0.1-0.1-0.1-0.4-0.2-0.2c-0.5,0.6-1.2,0.9-2,0.7
				C88.2,117.3,88.2,117.6,88.3,117.6L88.3,117.6z"/>
		</g>
	</g>
</g>
<g>
	<g>
		<g>
			<path class="st0" d="M100.4,114.8c0.3,0.9,1.6,1.1,2.1,0.3c0.1-0.1-0.1-0.3-0.3-0.1c-0.4,0.5-1.3,0.3-1.5-0.2
				C100.6,114.6,100.3,114.7,100.4,114.8L100.4,114.8z"/>
		</g>
	</g>
</g>
<g>
	<g>
		<g>
			<path class="st0" d="M109.8,113c0.5,0,0.9-0.2,1.2-0.6c0.1-0.1-0.1-0.3-0.3-0.1c-0.2,0.3-0.6,0.5-0.9,0.5
				C109.6,112.6,109.6,113,109.8,113L109.8,113z"/>
		</g>
	</g>
</g>
<g>
	<g>
		<g>
			<path class="st0" d="M41.2,117.6c0.4,2.8,2.1,5.1,4.6,6.4c0.3,0.2,0.7-0.3,0.3-0.5c-2.4-1.2-4-3.4-4.3-6
				C41.8,117,41.2,117.2,41.2,117.6L41.2,117.6z"/>
		</g>
	</g>
</g>
<g>
	<g>
		<g>
			<path class="st0" d="M94.7,123.6c2.3-1.1,3.7-3.4,3.9-5.9c0-0.4-0.6-0.4-0.6,0c-0.1,2.3-1.5,4.4-3.6,5.4
				C94,123.2,94.4,123.8,94.7,123.6L94.7,123.6z"/>
		</g>
	</g>
</g>
<g>
	<g>
		<g>
			<path class="st1" d="M55.6,78.9c-1.9,0-3.5-1.6-3.5-3.5s1.6-3.5,3.5-3.5c1.9,0,3.5,1.6,3.5,3.5S57.6,78.9,55.6,78.9z M55.6,72.3
				c-1.7,0-3,1.3-3,3c0,1.7,1.3,3,3,3c1.7,0,3-1.3,3-3C58.6,73.7,57.3,72.3,55.6,72.3z"/>
		</g>
		<g class="st2">
			<path class="st1" d="M55,76.7v-2.9h0.4v2.6h1.4v0.3H55z"/>
		</g>
	</g>
	<g>
		<g>
			<path class="st1" d="M64.4,81c-2.4,0-4.3-1.9-4.3-4.3s1.9-4.3,4.3-4.3c2.4,0,4.3,1.9,4.3,4.3S66.8,81,64.4,81z M64.4,72.9
				c-2.1,0-3.8,1.7-3.8,3.8s1.7,3.8,3.8,3.8c2.1,0,3.8-1.7,3.8-3.8S66.5,72.9,64.4,72.9z"/>
		</g>
		<g class="st2">
			<path class="st1" d="M62.9,76.6c0-0.6,0.2-1.1,0.5-1.4c0.3-0.3,0.7-0.5,1.3-0.5c0.3,0,0.6,0.1,0.9,0.2c0.3,0.2,0.5,0.4,0.6,0.7
				c0.1,0.3,0.2,0.6,0.2,1c0,0.4-0.1,0.7-0.2,1c-0.1,0.3-0.4,0.5-0.6,0.7c-0.3,0.2-0.6,0.2-0.9,0.2c-0.3,0-0.7-0.1-0.9-0.2
				c-0.3-0.2-0.5-0.4-0.6-0.7C63,77.2,62.9,76.9,62.9,76.6z M63.4,76.6c0,0.4,0.1,0.8,0.4,1c0.2,0.3,0.5,0.4,0.9,0.4
				c0.4,0,0.7-0.1,0.9-0.4c0.2-0.3,0.4-0.6,0.4-1.1c0-0.3-0.1-0.6-0.2-0.8c-0.1-0.2-0.2-0.4-0.4-0.5c-0.2-0.1-0.4-0.2-0.7-0.2
				c-0.3,0-0.6,0.1-0.9,0.4C63.5,75.6,63.4,76,63.4,76.6z"/>
		</g>
	</g>
	<g>
		<g>
			<path class="st1" d="M73.9,80.1c-2.3,0-4.2-1.9-4.2-4.2s1.9-4.2,4.2-4.2c2.3,0,4.2,1.9,4.2,4.2S76.2,80.1,73.9,80.1z M73.9,72.1
				c-2.1,0-3.7,1.7-3.7,3.7c0,2.1,1.7,3.7,3.7,3.7c2.1,0,3.7-1.7,3.7-3.7C77.6,73.8,76,72.1,73.9,72.1z"/>
		</g>
		<g class="st2">
			<path class="st1" d="M73.9,77.8l-1.4-3.6H73l0.9,2.6c0.1,0.2,0.1,0.4,0.2,0.6c0.1-0.2,0.1-0.4,0.2-0.6l1-2.6h0.5l-1.4,3.6H73.9z"
				/>
		</g>
	</g>
	<g>
		<g>
			<path class="st1" d="M82.2,76.6c-2,0-3.6-1.6-3.6-3.6c0-2,1.6-3.6,3.6-3.6c2,0,3.6,1.6,3.6,3.6C85.8,75,84.2,76.6,82.2,76.6z
				 M82.2,69.8c-1.7,0-3.2,1.4-3.2,3.2s1.4,3.2,3.2,3.2c1.7,0,3.2-1.4,3.2-3.2S83.9,69.8,82.2,69.8z"/>
		</g>
		<g class="st2">
			<path class="st1" d="M81.5,74.4v-3h2.2v0.4h-1.8v0.9h1.7V73h-1.7v1h1.9v0.4H81.5z"/>
		</g>
	</g>
	<g>
		<g>
			<g>
				<path class="st1" d="M85.8,72.1c4.1-1.3,8.1-2.8,11.6-5.4c0.3-0.2,0-0.8-0.3-0.5c-3.4,2.6-7.4,4.1-11.4,5.4
					C85.3,71.6,85.4,72.2,85.8,72.1L85.8,72.1z"/>
			</g>
		</g>
	</g>
	<g>
		<g>
			<g>
				<path class="st1" d="M77.8,74.1c0.3,0,0.6-0.1,0.8-0.2c0.4-0.1,0.2-0.7-0.2-0.6c-0.3,0-0.6,0.1-0.8,0.2c-0.2,0-0.2,0.2-0.2,0.4
					C77.4,74.1,77.6,74.2,77.8,74.1L77.8,74.1z"/>
			</g>
		</g>
	</g>
	<g>
		<g>
			<g>
				<path class="st1" d="M68.3,75.3c0.5,0,1-0.1,1.5-0.1c0.4,0,0.4-0.6,0-0.6c-0.5,0-1,0.1-1.5,0.1C67.9,74.7,67.9,75.4,68.3,75.3
					L68.3,75.3z"/>
			</g>
		</g>
	</g>
	<g>
		<g>
			<g>
				<path class="st1" d="M58.9,75.6c0.4,0,0.9,0,1.4,0c0.4,0,0.4-0.6,0-0.6c-0.4,0-0.9,0-1.4,0C58.5,75,58.5,75.6,58.9,75.6
					L58.9,75.6z"/>
			</g>
		</g>
	</g>
	<g>
		<g>
			<g>
				<path class="st1" d="M41.2,73.4c3.6,0.8,7.3,1.4,11,1.8c0.4,0,0.4-0.6,0-0.6c-3.6-0.4-7.3-1-10.9-1.8
					C40.9,72.7,40.8,73.3,41.2,73.4L41.2,73.4z"/>
			</g>
		</g>
	</g>
	<g>
		<g>
			<g>
				<path class="st0" d="M53.1,75.5C53.2,75.5,53.2,75.4,53.1,75.5c0.3-0.3,0.3-0.7,0.1-1c-0.2-0.2-0.6-0.2-0.9,0
					c0,0-0.1,0.1-0.1,0.1c-0.2,0.2-0.2,0.6,0,0.9C52.5,75.7,52.9,75.7,53.1,75.5L53.1,75.5z"/>
			</g>
		</g>
	</g>
	<g>
		<g>
			<g>
				<path class="st0" d="M59,75.8C59,75.8,59.1,75.8,59,75.8c0.3-0.3,0.3-0.7,0.1-1c-0.2-0.2-0.6-0.2-0.9,0c0,0-0.1,0.1-0.1,0.1
					c-0.2,0.2-0.2,0.6,0,0.9C58.4,76.1,58.8,76.1,59,75.8L59,75.8z"/>
			</g>
		</g>
	</g>
	<g>
		<g>
			<g>
				<path class="st0" d="M60.4,74.8C60.4,74.8,60.3,74.9,60.4,74.8c-0.3,0.3-0.3,0.7-0.1,1c0.2,0.2,0.6,0.2,0.9,0
					c0,0,0.1-0.1,0.1-0.1c0.2-0.2,0.2-0.6,0-0.9C61,74.6,60.6,74.5,60.4,74.8L60.4,74.8z"/>
			</g>
		</g>
	</g>
	<g>
		<g>
			<g>
				<path class="st0" d="M68,75.8c0.8,0,0.8-1.2,0-1.2C67.2,74.6,67.2,75.8,68,75.8L68,75.8z"/>
			</g>
		</g>
	</g>
	<g>
		<g>
			<g>
				<path class="st0" d="M69.4,74.8C69.4,74.9,69.4,74.9,69.4,74.8c0,0.4,0.3,0.7,0.6,0.7c0.3,0,0.6-0.3,0.6-0.6c0,0,0-0.1,0-0.1
					c0-0.3-0.3-0.6-0.6-0.6S69.4,74.5,69.4,74.8L69.4,74.8z"/>
			</g>
		</g>
	</g>
	<g>
		<g>
			<g>
				<path class="st0" d="M77.4,74.6c0.8,0,0.8-1.2,0-1.2C76.5,73.3,76.5,74.6,77.4,74.6L77.4,74.6z"/>
			</g>
		</g>
	</g>
	<g>
		<g>
			<g>
				<path class="st0" d="M79,74.3c0.8,0,0.8-1.2,0-1.2C78.2,73,78.2,74.3,79,74.3L79,74.3z"/>
			</g>
		</g>
	</g>
	<g>
		<g>
			<g>
				<path class="st0" d="M85,72.5c0.8,0,0.8-1.2,0-1.2C84.2,71.3,84.2,72.5,85,72.5L85,72.5z"/>
			</g>
		</g>
	</g>
</g>
<g>
	<g>
		<g>
			<path class="st1" d="M49.8,86.8c-2.5,0-4.6-2.1-4.6-4.6c0-2.5,2.1-4.6,4.6-4.6s4.6,2.1,4.6,4.6C54.4,84.8,52.3,86.8,49.8,86.8z
				 M49.8,78.1c-2.3,0-4.1,1.8-4.1,4.1s1.8,4.1,4.1,4.1s4.1-1.8,4.1-4.1S52,78.1,49.8,78.1z"/>
		</g>
		<g class="st2">
			<path class="st1" d="M48.9,84.6v-3.9h1.5c0.3,0,0.5,0,0.6,0c0.2,0,0.4,0.1,0.5,0.2c0.1,0.1,0.2,0.2,0.3,0.4
				c0.1,0.2,0.1,0.3,0.1,0.5c0,0.3-0.1,0.6-0.3,0.8C51.4,82.9,51,83,50.4,83h-1v1.6H48.9z M49.4,82.5h1c0.3,0,0.6-0.1,0.7-0.2
				c0.1-0.1,0.2-0.3,0.2-0.5c0-0.2,0-0.3-0.1-0.4c-0.1-0.1-0.2-0.2-0.3-0.2c-0.1,0-0.2,0-0.5,0h-1V82.5z"/>
		</g>
	</g>
	<g>
		<g>
			<path class="st1" d="M59.4,91.5c-2.9,0-5.3-2.4-5.3-5.3c0-2.9,2.4-5.3,5.3-5.3s5.3,2.4,5.3,5.3C64.8,89.1,62.4,91.5,59.4,91.5z
				 M59.4,81.3c-2.7,0-4.9,2.2-4.9,4.9c0,2.7,2.2,4.9,4.9,4.9c2.7,0,4.9-2.2,4.9-4.9C64.3,83.5,62.1,81.3,59.4,81.3z"/>
		</g>
		<g class="st2">
			<path class="st1" d="M58.3,88.6v-4.1h2.9V85h-2.4v1.2h2.3v0.5h-2.3v1.4h2.5v0.5H58.3z"/>
		</g>
	</g>
	<g>
		<g>
			<path class="st1" d="M70.8,99c-3.9,0-7-3.1-7-7c0-3.8,3.1-7,7-7c3.9,0,7,3.1,7,7C77.8,95.9,74.7,99,70.8,99z M70.8,85.6
				c-3.6,0-6.5,2.9-6.5,6.5s2.9,6.5,6.5,6.5c3.6,0,6.5-2.9,6.5-6.5S74.4,85.6,70.8,85.6z"/>
		</g>
		<g class="st2">
			<path class="st1" d="M68,94.8l2.1-5.4h0.8l2.2,5.4h-0.8l-0.6-1.6h-2.3l-0.6,1.6H68z M69.6,92.6h1.8l-0.6-1.5
				c-0.2-0.5-0.3-0.8-0.4-1.1c-0.1,0.3-0.2,0.7-0.3,1L69.6,92.6z"/>
		</g>
	</g>
	<g>
		<g>
			<path class="st1" d="M81.8,89.7c-2.9,0-5.2-2.3-5.2-5.2c0-2.9,2.3-5.2,5.2-5.2c2.9,0,5.2,2.3,5.2,5.2
				C87,87.4,84.7,89.7,81.8,89.7z M81.8,79.9c-2.6,0-4.7,2.1-4.7,4.7s2.1,4.7,4.7,4.7c2.6,0,4.7-2.1,4.7-4.7S84.4,79.9,81.8,79.9z"
				/>
		</g>
		<g class="st2">
			<path class="st1" d="M83.2,85.3l0.5,0.1c-0.1,0.4-0.3,0.8-0.6,1c-0.3,0.2-0.6,0.3-1,0.3c-0.4,0-0.8-0.1-1-0.3
				c-0.3-0.2-0.5-0.4-0.6-0.8c-0.1-0.3-0.2-0.7-0.2-1.1c0-0.4,0.1-0.8,0.2-1.1c0.2-0.3,0.4-0.5,0.7-0.7c0.3-0.2,0.6-0.2,1-0.2
				c0.4,0,0.7,0.1,1,0.3c0.3,0.2,0.5,0.5,0.6,0.8L83.1,84c-0.1-0.3-0.2-0.5-0.4-0.6c-0.2-0.1-0.4-0.2-0.7-0.2
				c-0.3,0-0.6,0.1-0.8,0.2c-0.2,0.1-0.3,0.3-0.4,0.6c-0.1,0.2-0.1,0.5-0.1,0.8c0,0.3,0,0.6,0.1,0.9c0.1,0.2,0.2,0.4,0.5,0.6
				c0.2,0.1,0.4,0.2,0.7,0.2c0.3,0,0.5-0.1,0.7-0.3C82.9,85.9,83.1,85.7,83.2,85.3z"/>
		</g>
	</g>
	<g>
		<g>
			<path class="st1" d="M89.1,82.3c-2.4,0-4.4-2-4.4-4.4s2-4.4,4.4-4.4c2.4,0,4.4,2,4.4,4.4S91.5,82.3,89.1,82.3z M89.1,74
				c-2.1,0-3.9,1.7-3.9,3.9c0,2.1,1.7,3.9,3.9,3.9c2.1,0,3.9-1.7,3.9-3.9C93,75.8,91.3,74,89.1,74z"/>
		</g>
		<g class="st2">
			<path class="st1" d="M88.1,79.8v-3.3h2.4v0.4h-1.9v1h1.8v0.4h-1.8v1.1h2v0.4H88.1z"/>
		</g>
	</g>
	<g>
		<g>
			<g>
				<path class="st1" d="M93.2,76.2c1.5-0.8,3-1.5,4.7-1.9c0.4-0.1,0.2-0.7-0.2-0.6c-1.7,0.4-3.3,1.1-4.8,1.9
					C92.5,75.8,92.8,76.4,93.2,76.2L93.2,76.2z"/>
			</g>
		</g>
	</g>
	<g>
		<g>
			<g>
				<path class="st1" d="M85.7,81.4c0.2-0.2,0.4-0.3,0.6-0.5c0.1-0.1,0.1-0.3,0-0.4c-0.1-0.1-0.3-0.1-0.4,0
					c-0.2,0.2-0.4,0.3-0.6,0.5c-0.1,0.1-0.1,0.3,0,0.4C85.4,81.5,85.6,81.5,85.7,81.4L85.7,81.4z"/>
			</g>
		</g>
	</g>
	<g>
		<g>
			<g>
				<path class="st1" d="M76.2,87.6c0.4-0.1,0.8-0.3,1.2-0.5c0.4-0.1,0-0.7-0.3-0.5c-0.3,0.1-0.7,0.3-1.1,0.4
					C75.7,87.2,75.8,87.8,76.2,87.6L76.2,87.6z"/>
			</g>
		</g>
	</g>
	<g>
		<g>
			<g>
				<path class="st1" d="M64.1,89.1c0.4,0,0.8,0.1,1.3,0.1c0.4,0,0.4-0.6,0-0.6c-0.4,0-0.8-0.1-1.3-0.1c-0.2,0-0.3,0.1-0.3,0.3
					C63.7,89,63.9,89.1,64.1,89.1L64.1,89.1z"/>
			</g>
		</g>
	</g>
	<g>
		<g>
			<g>
				<path class="st1" d="M41.7,78.8c1.4-0.2,2.9,0.6,4.1,1.1c0.4,0.2,0.7-0.4,0.3-0.5c-1.4-0.6-3-1.5-4.6-1.2
					C41.2,78.3,41.3,78.9,41.7,78.8L41.7,78.8z"/>
			</g>
		</g>
	</g>
	<g>
		<g>
			<g>
				<path class="st0" d="M86.4,81.2c0.8,0,0.8-1.2,0-1.2S85.6,81.2,86.4,81.2L86.4,81.2z"/>
			</g>
		</g>
	</g>
	<g>
		<g>
			<g>
				<path class="st0" d="M92.2,75.5C92.2,75.6,92.1,75.6,92.2,75.5c-0.3,0.3-0.3,0.7-0.1,1c0.2,0.2,0.6,0.2,0.9,0
					c0,0,0.1-0.1,0.1-0.1c0.2-0.2,0.2-0.6,0-0.9C92.8,75.3,92.4,75.3,92.2,75.5L92.2,75.5z"/>
			</g>
		</g>
	</g>
	<g>
		<g>
			<g>
				<path class="st0" d="M84.7,81.8C84.7,81.8,84.8,81.9,84.7,81.8c0.3,0.3,0.7,0.3,1,0.1c0.2-0.2,0.2-0.6,0-0.9
					c0,0-0.1-0.1-0.1-0.1c-0.2-0.2-0.6-0.2-0.9,0S84.5,81.6,84.7,81.8L84.7,81.8z"/>
			</g>
		</g>
	</g>
	<g>
		<g>
			<g>
				<path class="st0" d="M75.8,88.3c0.8,0,0.8-1.2,0-1.2S75,88.3,75.8,88.3L75.8,88.3z"/>
			</g>
		</g>
	</g>
	<g>
		<g>
			<g>
				<path class="st0" d="M77.4,87.5c0.8,0,0.8-1.2,0-1.2C76.6,86.2,76.6,87.5,77.4,87.5L77.4,87.5z"/>
			</g>
		</g>
	</g>
	<g>
		<g>
			<g>
				<path class="st0" d="M64.8,88.7C64.8,88.8,64.8,88.8,64.8,88.7c0,0.4,0.3,0.7,0.6,0.7s0.6-0.3,0.6-0.6c0,0,0-0.1,0-0.1
					c0-0.3-0.3-0.6-0.6-0.6C65,88.1,64.8,88.4,64.8,88.7L64.8,88.7z"/>
			</g>
		</g>
	</g>
	<g>
		<g>
			<g>
				<path class="st0" d="M62.9,88.8c0.1,0.2,0.2,0.3,0.4,0.5c0.2,0.1,0.4,0.1,0.6,0.1c0.3-0.1,0.5-0.4,0.4-0.8
					c-0.1-0.3-0.4-0.5-0.8-0.4c0.2,0,0.4,0.1,0.6,0.3c0-0.1-0.1-0.3-0.3-0.4C63.7,88,63.5,88,63.3,88C63,88.1,62.8,88.5,62.9,88.8
					L62.9,88.8z"/>
			</g>
		</g>
	</g>
	<g>
		<g>
			<g>
				<path class="st0" d="M53.4,84.1C53.4,84.1,53.4,84.2,53.4,84.1c0,0.4,0.3,0.7,0.6,0.7c0.3,0,0.6-0.3,0.6-0.6c0,0,0-0.1,0-0.1
					c0-0.3-0.3-0.6-0.6-0.6C53.7,83.5,53.4,83.8,53.4,84.1L53.4,84.1z"/>
			</g>
		</g>
	</g>
	<g>
		<g>
			<g>
				<path class="st0" d="M45.5,79.6C45.5,79.6,45.5,79.7,45.5,79.6c0,0.4,0.3,0.7,0.6,0.7s0.6-0.3,0.6-0.6c0,0,0-0.1,0-0.1
					c0-0.3-0.3-0.6-0.6-0.6C45.8,79,45.5,79.2,45.5,79.6L45.5,79.6z"/>
			</g>
		</g>
	</g>
</g>
<g>
	<g>
		<g>
			<path class="st1" d="M51.4,101.7c-2.3,0-4.2-1.9-4.2-4.2c0-2.3,1.9-4.2,4.2-4.2c2.3,0,4.2,1.9,4.2,4.2
				C55.6,99.8,53.7,101.7,51.4,101.7z M51.4,93.8c-2.1,0-3.7,1.7-3.7,3.7s1.7,3.7,3.7,3.7c2.1,0,3.7-1.7,3.7-3.7
				S53.4,93.8,51.4,93.8z"/>
		</g>
		<g class="st2">
			<path class="st1" d="M50.2,98.4l0.4,0c0,0.2,0.1,0.3,0.1,0.4c0.1,0.1,0.2,0.2,0.3,0.2c0.1,0.1,0.3,0.1,0.5,0.1
				c0.2,0,0.3,0,0.4-0.1c0.1,0,0.2-0.1,0.3-0.2c0.1-0.1,0.1-0.2,0.1-0.3c0-0.1,0-0.2-0.1-0.3c-0.1-0.1-0.2-0.1-0.3-0.2
				c-0.1,0-0.3-0.1-0.6-0.2c-0.3-0.1-0.5-0.1-0.6-0.2c-0.2-0.1-0.3-0.2-0.3-0.3s-0.1-0.2-0.1-0.4c0-0.2,0-0.3,0.1-0.4
				c0.1-0.1,0.2-0.2,0.4-0.3c0.2-0.1,0.4-0.1,0.6-0.1c0.2,0,0.4,0,0.6,0.1c0.2,0.1,0.3,0.2,0.4,0.3c0.1,0.1,0.1,0.3,0.2,0.5l-0.4,0
				c0-0.2-0.1-0.4-0.2-0.5c-0.1-0.1-0.3-0.2-0.6-0.2c-0.3,0-0.4,0-0.6,0.1c-0.1,0.1-0.2,0.2-0.2,0.3c0,0.1,0,0.2,0.1,0.3
				c0.1,0.1,0.3,0.1,0.6,0.2c0.3,0.1,0.6,0.1,0.7,0.2c0.2,0.1,0.3,0.2,0.4,0.3c0.1,0.1,0.1,0.3,0.1,0.5c0,0.2,0,0.3-0.1,0.5
				c-0.1,0.1-0.2,0.3-0.4,0.3c-0.2,0.1-0.4,0.1-0.6,0.1c-0.3,0-0.5,0-0.7-0.1c-0.2-0.1-0.3-0.2-0.5-0.4
				C50.2,98.8,50.2,98.6,50.2,98.4z"/>
		</g>
	</g>
	<g>
		<g>
			<path class="st1" d="M58.5,111.1c-3,0-5.4-2.4-5.4-5.4c0-3,2.4-5.4,5.4-5.4c3,0,5.4,2.4,5.4,5.4
				C63.9,108.7,61.4,111.1,58.5,111.1z M58.5,100.8c-2.7,0-4.9,2.2-4.9,4.9s2.2,4.9,4.9,4.9c2.7,0,4.9-2.2,4.9-4.9
				S61.2,100.8,58.5,100.8z"/>
		</g>
		<g class="st2">
			<path class="st1" d="M57.4,108.2v-4.1h1.5c0.3,0,0.5,0,0.6,0c0.2,0,0.4,0.1,0.5,0.2c0.1,0.1,0.2,0.2,0.3,0.4
				c0.1,0.2,0.1,0.4,0.1,0.6c0,0.3-0.1,0.6-0.3,0.9c-0.2,0.2-0.6,0.4-1.2,0.4h-1.1v1.7H57.4z M57.9,106H59c0.4,0,0.6-0.1,0.7-0.2
				c0.1-0.1,0.2-0.3,0.2-0.6c0-0.2,0-0.3-0.1-0.4c-0.1-0.1-0.2-0.2-0.3-0.2c-0.1,0-0.3,0-0.5,0h-1.1V106z"/>
		</g>
	</g>
	<g>
		<g>
			<path class="st1" d="M71,116.4c-3.8,0-7-3.1-7-7c0-3.8,3.1-7,7-7c3.8,0,7,3.1,7,7C78,113.3,74.9,116.4,71,116.4z M71,103
				c-3.6,0-6.5,2.9-6.5,6.5c0,3.6,2.9,6.5,6.5,6.5c3.6,0,6.5-2.9,6.5-6.5C77.5,105.9,74.6,103,71,103z"/>
		</g>
		<g class="st2">
			<path class="st1" d="M68.6,112l2.1-5.4h0.8l2.2,5.4h-0.8l-0.6-1.6h-2.2l-0.6,1.6H68.6z M70.1,109.8h1.8l-0.6-1.5
				c-0.2-0.5-0.3-0.8-0.4-1.1c-0.1,0.3-0.2,0.7-0.3,1L70.1,109.8z"/>
		</g>
	</g>
	<g>
		<g>
			<path class="st1" d="M84,111.1c-3,0-5.4-2.4-5.4-5.4c0-3,2.4-5.4,5.4-5.4c3,0,5.4,2.4,5.4,5.4C89.4,108.7,87,111.1,84,111.1z
				 M84,100.8c-2.7,0-4.9,2.2-4.9,4.9s2.2,4.9,4.9,4.9s4.9-2.2,4.9-4.9S86.7,100.8,84,100.8z"/>
		</g>
		<g class="st2">
			<path class="st1" d="M85.5,106.7l0.5,0.1c-0.1,0.4-0.3,0.8-0.6,1s-0.7,0.4-1.1,0.4c-0.4,0-0.8-0.1-1.1-0.3s-0.5-0.4-0.6-0.8
				c-0.1-0.3-0.2-0.7-0.2-1.1c0-0.4,0.1-0.8,0.2-1.1c0.2-0.3,0.4-0.6,0.7-0.7c0.3-0.2,0.6-0.2,1-0.2c0.4,0,0.8,0.1,1,0.3
				c0.3,0.2,0.5,0.5,0.6,0.9l-0.5,0.1c-0.1-0.3-0.2-0.5-0.4-0.7c-0.2-0.1-0.4-0.2-0.7-0.2c-0.3,0-0.6,0.1-0.8,0.2
				c-0.2,0.2-0.4,0.4-0.4,0.6c-0.1,0.3-0.1,0.5-0.1,0.8c0,0.3,0.1,0.7,0.2,0.9c0.1,0.3,0.3,0.5,0.5,0.6s0.4,0.2,0.7,0.2
				c0.3,0,0.6-0.1,0.8-0.3C85.3,107.3,85.4,107,85.5,106.7z"/>
		</g>
	</g>
	<g>
		<g>
			<path class="st1" d="M88.7,100c-2.3,0-4.2-1.9-4.2-4.2c0-2.3,1.9-4.2,4.2-4.2c2.3,0,4.2,1.9,4.2,4.2C93,98.1,91.1,100,88.7,100z
				 M88.7,92c-2.1,0-3.7,1.7-3.7,3.7s1.7,3.7,3.7,3.7s3.7-1.7,3.7-3.7S90.8,92,88.7,92z"/>
		</g>
		<g class="st2">
			<path class="st1" d="M87.8,97.5v-3.2h2.3v0.4h-1.9v1H90V96h-1.8v1.1h1.9v0.4H87.8z"/>
		</g>
	</g>
	<g>
		<g>
			<g>
				<path class="st1" d="M89.7,91.7c1-3.1,1.9-6.2,3.4-9.1c0.6-1.2,1.4-2.4,2.2-3.4c0.7-1,1.5-2.2,2.6-2.7c0.4-0.2,0-0.7-0.3-0.5
					c-1,0.4-1.6,1.4-2.3,2.2c-0.9,1.2-1.8,2.4-2.5,3.8c-1.6,3.1-2.6,6.4-3.6,9.7C89,92,89.6,92.1,89.7,91.7L89.7,91.7z"/>
			</g>
		</g>
	</g>
	<g>
		<g>
			<g>
				<path class="st1" d="M85.9,100.8c0.3-0.4,0.5-0.9,0.8-1.4c0.2-0.3-0.3-0.7-0.5-0.3c-0.2,0.5-0.5,0.9-0.8,1.4
					C85.1,100.8,85.7,101.1,85.9,100.8L85.9,100.8z"/>
			</g>
		</g>
	</g>
	<g>
		<g>
			<g>
				<path class="st1" d="M78,109.4c0.5-0.3,1-0.7,1.5-1.1c0.3-0.2-0.1-0.7-0.4-0.4c-0.4,0.3-0.9,0.7-1.4,1
					C77.3,109.1,77.6,109.6,78,109.4L78,109.4z"/>
			</g>
		</g>
	</g>
	<g>
		<g>
			<g>
				<path class="st1" d="M62.1,109.8c0.6,0.4,1.3,0.8,2,1.1c0.3,0.2,0.7-0.4,0.3-0.5c-0.7-0.3-1.3-0.7-2-1.1
					C62.1,109,61.8,109.5,62.1,109.8L62.1,109.8z"/>
			</g>
		</g>
	</g>
	<g>
		<g>
			<g>
				<path class="st1" d="M54.2,100.5c0.2,0.4,0.5,0.9,0.7,1.3c0.2,0.3,0.7,0,0.5-0.3c-0.2-0.4-0.5-0.8-0.7-1.3
					C54.5,99.8,54,100.1,54.2,100.5L54.2,100.5z"/>
			</g>
		</g>
	</g>
	<g>
		<g>
			<g>
				<path class="st1" d="M40.9,82.9c4.3,2.3,7.2,6.4,9.5,10.6c0.2,0.3,0.7,0,0.5-0.3c-2.4-4.3-5.3-8.4-9.7-10.8
					C40.9,82.2,40.6,82.7,40.9,82.9L40.9,82.9z"/>
			</g>
		</g>
	</g>
	<g>
		<g>
			<g>
				<path class="st0" d="M50.7,94.3c0.8,0,0.8-1.2,0-1.2C49.9,93,49.9,94.3,50.7,94.3L50.7,94.3z"/>
			</g>
		</g>
	</g>
	<g>
		<g>
			<g>
				<path class="st0" d="M53.6,100C53.6,100.1,53.6,100.1,53.6,100c0,0.4,0.3,0.7,0.6,0.7s0.6-0.3,0.6-0.6c0,0,0-0.1,0-0.1
					c0-0.3-0.3-0.6-0.6-0.6C53.9,99.4,53.6,99.7,53.6,100L53.6,100z"/>
			</g>
		</g>
	</g>
	<g>
		<g>
			<g>
				<path class="st0" d="M55.3,102.4c0.8,0,0.8-1.2,0-1.2C54.5,101.2,54.5,102.4,55.3,102.4L55.3,102.4z"/>
			</g>
		</g>
	</g>
	<g>
		<g>
			<g>
				<path class="st0" d="M62,110c0.8,0,0.8-1.2,0-1.2C61.2,108.8,61.2,110,62,110L62,110z"/>
			</g>
		</g>
	</g>
	<g>
		<g>
			<g>
				<path class="st0" d="M64.4,111.3c0.8,0,0.8-1.2,0-1.2C63.6,110,63.6,111.3,64.4,111.3L64.4,111.3z"/>
			</g>
		</g>
	</g>
	<g>
		<g>
			<g>
				<path class="st0" d="M77.6,109.8c0.8,0,0.8-1.2,0-1.2S76.8,109.8,77.6,109.8L77.6,109.8z"/>
			</g>
		</g>
	</g>
	<g>
		<g>
			<g>
				<path class="st0" d="M78.8,108C78.8,108,78.8,108.1,78.8,108c0,0.4,0.3,0.7,0.6,0.7s0.6-0.3,0.6-0.6c0,0,0-0.1,0-0.1
					c0-0.3-0.3-0.6-0.6-0.6S78.8,107.6,78.8,108L78.8,108z"/>
			</g>
		</g>
	</g>
	<g>
		<g>
			<g>
				<path class="st0" d="M85.5,101.5c0.8,0,0.8-1.2,0-1.2C84.7,100.3,84.7,101.5,85.5,101.5L85.5,101.5z"/>
			</g>
		</g>
	</g>
	<g>
		<g>
			<g>
				<path class="st0" d="M86.5,99.6c0.8,0,0.8-1.2,0-1.2C85.7,98.4,85.7,99.6,86.5,99.6L86.5,99.6z"/>
			</g>
		</g>
	</g>
	<g>
		<g>
			<g>
				<path class="st0" d="M89.3,92.6c0.8,0,0.8-1.2,0-1.2S88.5,92.6,89.3,92.6L89.3,92.6z"/>
			</g>
		</g>
	</g>
</g>
<g>
	<g>
		<g>
			<path class="st0" d="M49.2,41.4c-2.9,2.9-5,6.5-5.9,10.4c-0.4,1.7-0.8,3.8,0,5.5c0.6,1.2,1.8,2,3.1,1.7c0.1,0,0.1-0.2,0.1-0.2
				c-2.7-2.8-7.2,0.7-8.7,3.2c-0.8,1.3-1.5,3.4-0.4,4.7c0.8,0.9,2.3,1.1,3.1,0.1c0.1-0.1,0-0.2-0.1-0.2c-3-0.9-5.8,1-7.9,3
				c-0.7,0.7-2.1,1.8-1.9,3c0.1,0.7,0.8,1.2,1.5,1c0-0.1-0.1-0.1-0.2-0.2c-1,1.8-1.5,3.7-1.4,5.8c0,0.2,0.3,0.2,0.3,0
				c-0.1-2,0.3-3.9,1.3-5.6c0.1-0.1,0-0.2-0.2-0.2c-1.1-0.5-1.3-1.2-0.8-1.9c0.1-0.2,0.3-0.4,0.5-0.6c0.3-0.3,0.6-0.7,1-1
				c0.7-0.7,1.4-1.3,2.2-1.8c0.8-0.5,1.7-1,2.6-1.2c0.5-0.1,1.1-0.2,1.6-0.1c0.4,0,1.6,0.1,0.2,0.5c-1.4,0.4-2.3-1.1-2.3-2.3
				c0-1.1,0.6-2.3,1.2-3.2c1.1-1.5,2.7-2.8,4.5-3.3c0.4-0.1,0.9-0.2,1.3-0.2c0.2,0,2,0.3,1.8,0.6c-0.1,0.3-1.3-0.3-1.5-0.4
				c-0.5-0.4-0.9-0.9-1.2-1.6c-0.6-1.8-0.1-4.1,0.4-5.9c1-3.5,2.9-6.7,5.5-9.3C49.6,41.4,49.4,41.2,49.2,41.4L49.2,41.4z"/>
		</g>
	</g>
</g>
<g>
	<g>
		<g>
			<path class="st0" d="M87.8,40.4c4.7,1.4,9,5.5,9.7,10.5c0.2,1.4,0,2.9-0.8,4.1c-0.3,0.4-1.1,1.6-1.7,1.2c-0.9-0.5,0.9-2,1.4-2.2
				c1.6-0.5,3.1,0.7,3.9,1.9c0.8,1.3,0.9,2.9,1.1,4.3c0,0.1,0.1,0.1,0.1,0.1c4.6,0.2,5.6,5.3,6.2,8.9c0,0.1,0.2,0.1,0.2,0.1
				c1.2-1.3,1.8,1,2,1.6c0.2,0.5,0.3,1,0.4,1.6c0.2,1,0.4,2,0.6,3c0,0.2,0.3,0.1,0.3-0.1c-0.3-1.8-0.5-4.1-1.5-5.7
				c-0.2-0.4-0.6-0.8-1.1-0.9c-0.1,0-0.3,0-0.4,0c-0.8,0,0,0.2-0.3,0c-0.1-0.1-0.1-1-0.2-1.3c-0.1-0.6-0.2-1.1-0.4-1.7
				c-0.2-0.8-0.5-1.7-0.9-2.4c-0.7-1.2-1.7-2.3-3-2.9c-0.4-0.2-1.3-0.2-1.6-0.4c-0.5-0.4-0.4-1.7-0.6-2.3c-0.3-1.4-1-2.8-2.2-3.6
				c-1.9-1.3-5.3-0.2-4.6,2.5c0,0.1,0.1,0.1,0.2,0.1c4-1.5,3.5-6.4,2-9.5c-1.8-3.5-5-6.2-8.8-7.3C87.7,40.1,87.6,40.4,87.8,40.4
				L87.8,40.4z"/>
		</g>
	</g>
</g>
<g>
	<g>
		<g>
			<path class="st0" d="M38.6,53.3c1,0.7-0.5,3.3-0.9,3.9c-0.5,0.8-2.5,3.4-3.7,2.6c-0.4-0.3,0-0.6-0.4-0.1
				c-0.2,0.2-0.2,0.7-0.3,0.9c-0.2,0.5-0.5,1-0.9,1.4c-0.8,1-1.9,1.6-3.1,1.9c0,0.1,0.1,0.1,0.2,0.2c0.1,0.3,0.3,0.7,0.4,1
				c-0.1,0.2-0.2,0.3-0.3,0.5c-0.2,0.4-0.5,0.8-0.8,1.1c-0.5,0.6-1.1,1.1-1.7,1.6c-0.1,0.1,0,0.4,0.1,0.3c0.8-0.6,1.5-1.2,2.1-2
				c0.4-0.6,1.2-1.4,1.2-2.2c0-0.7-0.8-1.2-1.2-0.5c-0.1,0.1,0,0.2,0.2,0.2c2.3-0.6,4.2-2.4,4.7-4.8c0.1-0.5,0.1-1.5-0.6-1.6
				c-0.6-0.1-0.8,0.7-0.7,1.1c0.1,0.7,0.9,1.2,1.6,1.3c1.2,0.1,2.2-0.9,2.9-1.7c0.8-0.9,3.1-4.4,1.6-5.4
				C38.6,52.9,38.4,53.2,38.6,53.3L38.6,53.3z"/>
		</g>
	</g>
</g>
<g>
	<g>
		<g>
			<path class="st0" d="M36.8,51.3c0.1,0,0.2,0.1,0.4,0.1c0-0.1,0.1-0.2,0.1-0.2c-1.9-0.8-4.2-0.2-5.5,1.5c-0.4,0.6-0.9,1.6-0.3,2.2
				c0.3,0.5,0.9,0.5,1.4,0.2c0.1-0.1,0.1-0.2,0-0.3c-1.4-0.3-3.2,0-4.1,1.2c-0.3,0.4-0.1,0.6-0.2,1c-0.2,0.7-0.8,1.3-1.1,2
				c-0.1,0.2,0.2,0.3,0.3,0.1c0.2-0.8,0.6-1.4,1.2-1.9c0,0,0-0.1,0-0.2c-0.7-0.7,1.4-1.7,1.8-1.8c0.7-0.2,1.3-0.2,2,0
				c0-0.1,0-0.2,0-0.3c-1-0.8-1.2-1.6-0.5-2.3c0.1-0.2,0.3-0.3,0.5-0.5c0.4-0.4,1-0.6,1.5-0.8c1-0.3,2-0.2,3,0.2
				c0.1,0,0.3-0.2,0.1-0.2c-0.2-0.2-0.2-0.2-0.6-0.2C36.6,51,36.6,51.3,36.8,51.3L36.8,51.3z"/>
		</g>
	</g>
</g>
<g>
	<g>
		<g>
			<path class="st0" d="M99.9,50.9c2.4-1.1,4.6,1.5,3.1,3.7c0.1,0,0.2,0,0.3,0.1c0.6-0.4,1.1-0.4,1.4,0.1c0.2,0.2,0.4,0.4,0.5,0.7
				c0.3,0.5,0.4,0.9,0.6,1.5c0,0.1,0.1,0.1,0.2,0.1c2.3-0.3,2.9,2.3,3.2,4c0,0.1,0.1,0.1,0.2,0.1c1.4-1,2.1,1.1,2.2,2.1
				c0,0.2,0.3,0.1,0.3-0.1c-0.1-0.7-0.2-1.4-0.7-2c-0.4-0.5-0.9-0.4-1.4-0.6c-0.5-0.1-0.1,0.3-0.4-0.2c-0.2-0.4-0.2-1-0.3-1.5
				c-0.2-0.7-0.6-1.3-1.1-1.7c-0.3-0.2-0.6-0.4-0.9-0.5c-0.1,0-0.6,0-0.7-0.1c-0.4-0.2-0.7-1.4-1.1-1.9c-0.5-0.6-2.2-1.7-2.1-0.1
				c0,0.1,0.2,0.2,0.3,0.1c1.7-2.4-0.9-5.3-3.5-4.1C99.6,50.8,99.7,51,99.9,50.9L99.9,50.9z"/>
		</g>
	</g>
</g>
<g>
	<g>
		<g>
			<path class="st0" d="M101.8,46.8c0.2-0.6,0.3,0.3,0.3,0.4c0,0.2,0.1,0.4,0.2,0.6c0.2,0.3,0.4,0.6,0.8,0.8
				c0.7,0.2,1.5-0.1,1.6-0.9c0-0.1-0.1-0.3-0.2-0.2c-0.6,0.4-0.7,1.1-0.2,1.7c0.2,0.3,0.5,0.4,0.8,0.5c0.6,0.3,1,0.5,1.4,1.1
				c0.1,0.2,0.2,0.4,0.4,0.5c0.9,0.9,2.2,1.2,3.1,2.2c0.7,0.7,1,1.7,2.1,1.8c0.2,0,0.2-0.3,0-0.3c-1.1-0.1-1.5-1.3-2.2-1.9
				c-0.5-0.5-1.1-0.8-1.7-1.1c-0.4-0.2-0.7-0.4-1-0.7c-0.4-0.3-0.5-0.8-0.9-1.2c-0.1-0.1-0.2-0.2-0.3-0.2c-0.1,0-0.3-0.1-0.4-0.2
				c-0.8-0.1-1.1-0.7-1-1.8c-0.1,0-0.1-0.1-0.2-0.2c-1.1,0.8-1.8,0.7-2-0.3c-0.1-0.3-0.1-0.6,0-0.9c0-0.1-0.1-0.1-0.1-0.1
				c-0.4,0-0.6,0.1-0.7,0.5C101.4,46.9,101.7,47,101.8,46.8L101.8,46.8z"/>
		</g>
	</g>
</g>
</svg>
