<?xml version="1.0" encoding="utf-8"?>
<!-- Generator: Adobe Illustrator 24.0.1, SVG Export Plug-In . SVG Version: 6.00 Build 0)  -->
<svg version="1.1" id="Layer_1" xmlns="http://www.w3.org/2000/svg" xmlns:xlink="http://www.w3.org/1999/xlink" x="0px" y="0px"
	 viewBox="0 0 141.7 141.7" style="enable-background:new 0 0 141.7 141.7;" xml:space="preserve">
<style type="text/css">
	.st0{fill:#070707;}
</style>
<g id="Layer_1_1_">
</g>
<g id="Layer_1_2_">
</g>
<g id="Layer_1_3_">
</g>
<g id="Layer_1_4_">
</g>
<g id="Layer_1_5_">
</g>
<g id="Layer_3">
</g>
<g id="Layer_3_1_">
</g>
<g id="Layer_1_6_">
</g>
<g id="Layer_1_7_">
</g>
<g id="Layer_1_8_">
</g>
<g id="Layer_1_9_">
</g>
<g id="Layer_1_10_">
</g>
<g id="Layer_1_11_">
</g>
<g id="Layer_1_12_">
</g>
<g id="Layer_1_13_">
</g>
<g id="Layer_1_14_">
</g>
<g id="Layer_1_15_">
</g>
<g id="Layer_1_16_">
</g>
<g id="Layer_1_17_">
</g>
<g id="Layer_1_18_">
</g>
<g id="Layer_1_19_">
</g>
<g id="Layer_1_20_">
</g>
<g>
	<g>
		<g>
			<g>
				<path class="st0" d="M41.6,114.7c1.3,2.3,2.8,4.4,4.6,6.3c0.3,0.3,0.7-0.2,0.5-0.5c-1.8-1.9-3.3-3.9-4.5-6.1
					C41.9,114.1,41.4,114.4,41.6,114.7L41.6,114.7z"/>
			</g>
		</g>
	</g>
	<g>
		<g>
			<g>
				<path class="st0" d="M38.4,46.6c-1,8.4-0.3,16.8,0.4,25.1c0,0.4,0.7,0.4,0.6,0c-0.7-8.4-1.4-16.8-0.4-25.1
					C39.1,46.2,38.5,46.2,38.4,46.6L38.4,46.6z"/>
			</g>
		</g>
	</g>
	<g>
		<g>
			<g>
				<path class="st0" d="M52.8,125.2c5.6,3.5,12.7,3.5,19.1,2.9c3.3-0.3,6.5-0.8,9.8-1.3c3.5-0.6,7.3-0.9,10.3-2.8
					c0.4-0.2,0-0.8-0.3-0.6c-2.9,1.9-6.8,2.1-10.2,2.7c-3.2,0.6-6.4,1-9.6,1.3c-6.2,0.5-13.3,0.6-18.8-2.8
					C52.7,124.4,52.4,125,52.8,125.2L52.8,125.2z"/>
			</g>
		</g>
	</g>
	<g>
		<g>
			<g>
				<path class="st0" d="M60.4,22.3c0.4,0,0.4-0.6,0-0.6C60,21.7,60,22.3,60.4,22.3L60.4,22.3z"/>
			</g>
		</g>
	</g>
	<g>
		<g>
			<g>
				<path class="st0" d="M33.5,36.1c-1.3-5,3.4-9,8.1-9.1c0.4,0,0.4-0.6,0-0.6c-5.1,0.1-10.1,4.5-8.7,9.9
					C33,36.7,33.6,36.5,33.5,36.1L33.5,36.1z"/>
			</g>
		</g>
	</g>
	<g>
		<g>
			<g>
				<path class="st0" d="M98.1,25.8c3.2-0.8,7-0.7,8.9,2.3c1.9,3,1.5,7.1-1,9.5c-0.3,0.3,0.2,0.7,0.5,0.5c2.7-2.6,3.1-7.1,1.1-10.3
					c-2.1-3.3-6.2-3.5-9.6-2.6C97.5,25.3,97.7,25.9,98.1,25.8L98.1,25.8z"/>
			</g>
		</g>
	</g>
	<g>
		<g>
			<g>
				<path class="st0" d="M66.9,46.5c0.1,0,0.2,0,0.3-0.1c0-0.1-0.1-0.2-0.1-0.3c-0.2,0.2-0.7,0.1-0.9,0.2c-0.5,0.2-1,0.6-1.4,1
					c-0.8,0.7-1.7,1.5-2.1,2.6c-0.9,2.4,2,3.7,4,3.6c1.7-0.1,3.2-0.9,4.9-1.1c1.6-0.2,3,0.4,4.5,0.8c2,0.5,4-0.6,3.7-3
					c-0.3-2.5-3.5-3.9-5.6-4.6c-0.2-0.1-0.3,0.2-0.1,0.3c2.1,0.8,6.1,2.5,5.3,5.4c-0.6,2.1-2.6,1.8-4.2,1.3
					c-1.1-0.3-2.2-0.7-3.5-0.5c-1.5,0.2-2.8,0.8-4.3,1c-1.6,0.3-4.9-0.3-4.6-2.5c0.2-1.4,1.6-2.5,2.6-3.3c0.4-0.3,0.7-0.5,1.1-0.6
					c0.2-0.1,0.6-0.1,0.7-0.3c0.1-0.1,0-0.3-0.1-0.3c-0.1,0-0.2,0-0.4,0.1C66.6,46.2,66.7,46.6,66.9,46.5L66.9,46.5z"/>
			</g>
		</g>
	</g>
	<g>
		<g>
			<g>
				<path class="st0" d="M75.2,53.1c0.6,1.4,0.9,3.4,0.3,4.9c-0.5,1.1-1.9,1.9-3,1.1c-0.5-0.4-0.7-0.9-0.9-1.5
					c-0.1-0.2-0.4,0-0.3,0.2c0.3,0.6,0.6,1.4,1.2,1.8c0.7,0.4,1.7,0.2,2.4-0.3c1.9-1.3,1.3-4.5,0.6-6.3
					C75.4,52.8,75.1,52.9,75.2,53.1L75.2,53.1z"/>
			</g>
		</g>
	</g>
	<g>
		<g>
			<g>
				<path class="st0" d="M46.5,121.1c3-1.5,4.6,2.3,6.7,3.7c0-0.1,0-0.2,0-0.3c-1.7,0.3-3.1,1.4-4.4,2.4c-1.5,1.1-3.6,2.8-5.5,1.8
					c-4.7-2.7,1.7-6.8,4.2-8c0.2-0.1,0-0.4-0.2-0.3c-2.4,1.2-8.1,4.5-5.2,7.8c3.6,3.9,7.6-2.8,11.2-3.4c0.2,0,0.1-0.2,0-0.3
					c-2.2-1.5-3.8-5.4-7-3.7C46.2,120.9,46.3,121.2,46.5,121.1L46.5,121.1z"/>
			</g>
		</g>
	</g>
	<g>
		<g>
			<g>
				<path class="st0" d="M43.1,128.4c-0.5-1.8,0.8-3.2,2.3-3.9c0.2-0.1,0-0.4-0.2-0.3c-1.6,0.8-3,2.4-2.4,4.3
					C42.8,128.7,43.1,128.6,43.1,128.4L43.1,128.4z"/>
			</g>
		</g>
	</g>
	<g>
		<g>
			<g>
				<path class="st0" d="M97.5,128.3c-1.8-1-2.7-2.8-4.2-4.1c-0.6-0.5-1.4-0.7-0.6-2.1c0.3-0.5,1-0.9,1.5-1.2
					c1.2-0.8,2.5-1.2,3.9-0.7c2.1,0.7,3.5,2.8,4,4.9c0.3,1.1,0.2,2.4-0.7,3.2C100.3,129.2,98.7,128.9,97.5,128.3
					c-0.2-0.1-0.4,0.2-0.2,0.3c2,1,4.7,0.8,5.1-1.9c0.4-2.6-1.6-5.7-3.9-6.7c-1.2-0.5-2.6-0.4-3.8,0.2c-0.9,0.5-2.8,1.6-2.9,2.8
					c-0.1,1,1.3,1.6,1.9,2.3c1.1,1.2,2.1,2.5,3.5,3.4C97.6,128.7,97.7,128.4,97.5,128.3z"/>
			</g>
		</g>
	</g>
	<g>
		<g>
			<g>
				<path class="st0" d="M98.6,124.2c1.1,1.2,2.1,2.7,2.1,4.4c0,0.2,0.3,0.2,0.3,0c-0.1-1.8-1-3.4-2.2-4.6
					C98.7,123.9,98.4,124.1,98.6,124.2L98.6,124.2z"/>
			</g>
		</g>
	</g>
	<g>
		<g>
			<g>
				<path class="st0" d="M104.7,73.4c0.8,0.4,1.8,0,2.7,0.2c1.8,0.4,3.5,1.3,4.3,3c0.9,1.9,0.1,4.1-2.3,3.7c-1.8-0.3-3-1.5-4.3-2.7
					c-0.2-0.2-0.4,0.1-0.2,0.2c1.4,1.3,2.8,2.7,4.9,2.9c1.4,0.1,2.5-0.6,2.6-2.1c0.2-1.7-0.7-3.2-2.1-4.2c-0.9-0.6-2-1.1-3-1.2
					c-0.7-0.1-1.7,0.2-2.4-0.1C104.7,73,104.5,73.3,104.7,73.4L104.7,73.4z"/>
			</g>
		</g>
	</g>
	<g>
		<g>
			<g>
				<path class="st0" d="M108.9,77.7c1.2,0.4,2.6,1.3,1.9,2.7c-0.1,0.2,0.2,0.3,0.3,0.2c0.8-1.6-0.7-2.7-2.1-3.2
					C108.7,77.4,108.7,77.7,108.9,77.7L108.9,77.7z"/>
			</g>
		</g>
	</g>
	<g>
		<path class="st0" d="M83.9,46.3c-5.7,0-10.4-4.7-10.4-10.4s4.7-10.4,10.4-10.4s10.4,4.7,10.4,10.4S89.6,46.3,83.9,46.3z
			 M83.9,25.9c-5.5,0-10,4.5-10,10s4.5,10,10,10s10-4.5,10-10S89.4,25.9,83.9,25.9z"/>
	</g>
	<g>
		<path class="st0" d="M58.1,47.4c-5.7,0-10.4-4.7-10.4-10.4c0-5.7,4.7-10.4,10.4-10.4c5.7,0,10.4,4.7,10.4,10.4
			C68.5,42.7,63.9,47.4,58.1,47.4z M58.1,27c-5.5,0-10,4.5-10,10c0,5.5,4.5,10,10,10c5.5,0,10-4.5,10-10C68.1,31.5,63.6,27,58.1,27z
			"/>
	</g>
	<g>
		<path class="st0" d="M75.6,45.4c0-1.4-2.1-2.5-4.6-2.5c-2.5,0-4.6,1.1-4.6,2.5s2.1,2.5,4.6,2.5C73.6,47.9,75.6,46.8,75.6,45.4z"/>
	</g>
	<g>
		<path class="st0" d="M80.5,36c0,1.9,1.5,3.3,3.3,3.3c1.9,0,3.3-1.5,3.3-3.3c0-1.9-1.5-3.3-3.3-3.3S80.5,34.1,80.5,36z M86,34.6
			c0,0.5-0.4,0.9-0.9,0.9c-0.5,0-0.9-0.4-0.9-0.9c0-0.5,0.4-0.9,0.9-0.9C85.6,33.7,86,34.1,86,34.6z"/>
	</g>
	<g>
		<path class="st0" d="M55.8,38.9c1.3,1.3,3.4,1.3,4.7,0s1.3-3.4,0-4.7s-3.4-1.3-4.7,0C54.4,35.5,54.4,37.6,55.8,38.9z M58.7,34.1
			c0.4,0.4,0.4,1,0,1.3s-1,0.4-1.3,0s-0.4-1,0-1.3C57.7,33.7,58.3,33.7,58.7,34.1z"/>
	</g>
	<g>
		<g>
			<g>
				<path class="st0" d="M71.3,52.4c0.3,1.3,0.2,3,0,4.3c-0.1,0.8-0.3,1.7-0.9,2.3c-0.7,0.7-1.9,0.6-2.5,0c-1.4-1.3-1-4.1-0.5-5.7
					c0.1-0.2-0.3-0.3-0.3-0.1c-0.6,1.9-1,5.8,1.5,6.6c1.2,0.4,2.2-0.3,2.7-1.4c0.4-1,0.4-2.1,0.4-3.1c0-1,0.1-2-0.1-2.9
					C71.6,52.1,71.3,52.2,71.3,52.4L71.3,52.4z"/>
			</g>
		</g>
	</g>
	<g>
		<g>
			<g>
				<path class="st0" d="M37.5,74.2c-1.9,0.3-4,1.3-5.2,2.8c-0.9,1.1-1,2.4,0.3,3.1c0.2,0.1,0.3-0.2,0.2-0.3c-1.9-1-0.2-2.9,0.9-3.8
					c1.1-0.9,2.5-1.4,3.9-1.7C37.8,74.5,37.7,74.2,37.5,74.2L37.5,74.2z"/>
			</g>
		</g>
	</g>
	<g>
		<g>
			<g>
				<path class="st0" d="M34.4,78.5c-0.7,0.3-1.5,0.9-1.6,1.8c0,0.8,0.8,1.2,1.4,1.3c2,0.3,4.1-1.8,5.2-3.3c0.1-0.2-0.2-0.3-0.3-0.2
					c-0.8,1.1-2,2.2-3.3,2.8c-0.7,0.4-2.2,0.7-2.7-0.3c-0.5-0.9,0.7-1.6,1.3-1.9C34.8,78.7,34.6,78.4,34.4,78.5L34.4,78.5z"/>
			</g>
		</g>
	</g>
	<g>
		<g>
			<g>
				<path class="st0" d="M98.7,119c-0.1,0.2-0.3,0.5-0.4,0.7c-0.1,0.2-0.1,0.4,0.1,0.4c0.2,0.1,0.4,0.1,0.4-0.1
					c0.1-0.2,0.2-0.5,0.4-0.7C99.5,119,98.9,118.6,98.7,119L98.7,119z"/>
			</g>
		</g>
	</g>
	<g>
		<g>
			<g>
				<path class="st0" d="M103.6,46.6c0.6,7.7,0.3,15.5,0.4,23.3c0,0.4,0.6,0.4,0.6,0c-0.1-7.7,0.2-15.5-0.4-23.3
					C104.2,46.1,103.6,46.1,103.6,46.6L103.6,46.6z"/>
			</g>
		</g>
	</g>
	<g>
		<g>
			<g>
				<path class="st0" d="M91.9,123.7c0.1,0,0.1,0,0.2,0c0.2,0,0.2-0.3,0-0.3h0c-0.1,0-0.1,0-0.1,0.1l0,0c0,0,0,0,0,0
					c0.1,0.1,0.1,0.1,0.2,0.2c0-0.1,0.1-0.1,0.1-0.2C92.1,123.6,92,123.6,91.9,123.7c0,0,0.1,0.1,0.2,0.1c0.2,0.2,0.4-0.1,0.2-0.2
					c-0.1-0.1-0.1-0.1-0.2-0.2c-0.1-0.1-0.2-0.1-0.3,0.1c0,0.1-0.1,0.1-0.1,0.2c-0.1,0.1,0.1,0.2,0.2,0.2c0.1,0,0.2-0.1,0.2-0.2
					c-0.1,0-0.1,0.1-0.1,0.1h0c0.2,0,0.2-0.3,0-0.3c-0.1,0-0.1,0-0.2,0C91.7,123.4,91.7,123.7,91.9,123.7L91.9,123.7z"/>
			</g>
		</g>
	</g>
	<g>
		<g>
			<g>
				<path class="st0" d="M39.5,40.9c0.3-1.5-3.2,1.1-3.5,1.3c-0.9,0.7-2,1.6-2.6,2.6c-0.4,0.6-0.3,0.9,0.2,1.3
					c1.7,1.3,4.4,1.1,5.9-0.3C41,44.5,41,42.2,39.5,40.9c-0.2-0.2-0.4-0.1-0.3,0.1c0.6,1.9,1.3,4,3,5.2c0.8,0.6,2.1,1.2,3,1.3
					c0.7,0.1,0.8-0.3,1-0.9c1.3-3.9-2.5-7.5-6.3-6.3c-0.2,0.1-0.1,0.4,0.1,0.3c3.4-1.1,7,1.9,6,5.5c-0.2,0.7-0.2,1-1.2,0.9
					c-0.4-0.1-0.8-0.3-1.2-0.5c-0.9-0.4-1.6-0.9-2.2-1.6C40.3,43.9,39.9,42.4,39.5,40.9c-0.1,0-0.2,0.1-0.3,0.1
					c1.4,1.1,1.5,3.2,0.3,4.5c-1.2,1.2-3,1.5-4.5,0.9c-0.2-0.1-1-0.3-1.1-0.5c-0.2-0.4,0.1-1.1,0.4-1.4c0.4-0.5,0.9-0.9,1.3-1.3
					c0.5-0.5,1.1-0.9,1.7-1.3c0.1-0.1,2.1-1.1,2-1C39.1,41.1,39.4,41.1,39.5,40.9L39.5,40.9z"/>
			</g>
		</g>
	</g>
	<g>
		<g>
			<g>
				<path class="st0" d="M39.1,40.6c-1.5,0.5-3.1,0.4-4.5-0.4c-0.8-0.4-3.6-3-1.7-3.5c1.1-0.3,3,0,4.1,0.2c1.7,0.3,3.7,1.4,3,3.4
					c-0.1,0.2,0.3,0.3,0.3,0.1c0.5-1.6-0.6-3-2.1-3.5c-1-0.4-2.2-0.5-3.3-0.5c-0.7,0-1.3-0.1-2,0c-0.2,0-0.7-0.1-0.9,0.1
					c-0.9,0.7,1,2.8,1.5,3.3c1.6,1.4,3.7,1.7,5.7,1.1C39.4,40.8,39.3,40.5,39.1,40.6L39.1,40.6z"/>
			</g>
		</g>
	</g>
	<g>
		<g>
			<g>
				<path class="st0" d="M40.1,39.1c-0.7-1.3-1.1-2.7-1-4.2c0-0.6,0.5-3.9,1.3-3.8c0.5,0.1,1.1,1.3,1.3,1.8c0.4,0.8,0.8,1.7,0.8,2.7
					c0.1,1.5-0.6,3.1-1.9,3.9c-0.2,0.1,0,0.4,0.2,0.3c3.6-2.2,1.8-6.7-0.3-9.2c-0.1-0.1-0.2-0.1-0.3,0c-1.8,2.6-1.9,5.9-0.4,8.7
					C40,39.4,40.2,39.3,40.1,39.1L40.1,39.1z"/>
			</g>
		</g>
	</g>
	<g>
		<g>
			<g>
				<path class="st0" d="M40.6,40c0.7-1,1.5-2,2.5-2.8c0.7-0.6,3.3-2.2,4-1.1c0.5,0.7-0.7,2.5-1.1,3c-0.8,0.9-1.9,1.5-3.1,1.6
					c-0.2,0-0.2,0.3,0,0.3c2.7-0.2,4.7-2.6,4.6-5.3c0-0.1-0.1-0.2-0.1-0.2c-3.2-0.5-5.3,2-7,4.3C40.2,40.1,40.5,40.2,40.6,40
					L40.6,40z"/>
			</g>
		</g>
	</g>
	<g>
		<g>
			<g>
				<path class="st0" d="M42.2,33.2c-0.7-1.5-0.9-3.2-0.6-4.9c0.2-0.7,0.4-1.4,0.7-2c0.1-0.3,0.4-0.7,0.6-0.9c0.5-0.5,0.7-0.1,1,0.4
					c2,3,0.7,6.7-1.8,8.8c-0.2,0.1,0.1,0.4,0.2,0.2c3.1-2.6,4.1-7.2,1-10.2c-0.1-0.1-0.2-0.1-0.2,0c-2.1,2.5-2.5,5.9-1.2,8.8
					C42,33.5,42.2,33.3,42.2,33.2L42.2,33.2z"/>
			</g>
		</g>
	</g>
	<g>
		<g>
			<g>
				<path class="st0" d="M43,34.2c0.7-1.1,1.5-1.9,2.7-2.5c0.4-0.2,0.9-0.4,1.4-0.6c0.3-0.1,1.7-0.5,1.8-0.3c0.3,0.4-0.6,2-0.9,2.4
					c-0.6,1-1.3,1.8-2.4,2.3c-0.2,0.1,0,0.4,0.2,0.3c2.1-0.9,3-3.1,3.7-5.1c0-0.1-0.1-0.2-0.2-0.2c-2.7-0.1-5.1,1.3-6.5,3.5
					C42.6,34.2,42.9,34.4,43,34.2L43,34.2z"/>
			</g>
		</g>
	</g>
	<g>
		<g>
			<g>
				<path class="st0" d="M46.5,28.6c-1.2-1-1.7-2.5-1.7-4.1c0-0.8,0.2-1.7,0.5-2.5c0.3-0.9,0.5-2,1.5-1.6c1.9,0.6,3.4,1.8,3.2,3.9
					c-0.1,1.4-2.2,5.4-4.2,3.7c-0.2-0.1-0.4,0.1-0.2,0.2c2,1.7,4.3-1.6,4.7-3.3c0.7-3-1.6-4.5-4.2-5.1c-0.1,0-0.2,0-0.2,0.1
					c-1.4,2.8-2.3,6.5,0.4,8.9C46.4,29,46.6,28.7,46.5,28.6L46.5,28.6z"/>
			</g>
		</g>
	</g>
	<g>
		<g>
			<g>
				<path class="st0" d="M47,28.4c-1.5,0.4-1.2,2.3,0.3,2.5c1.3,0.2,2.9-0.5,4-1c1.5-0.6,2.9-1.4,4.2-2.3c0.1-0.1,0.1-0.2,0-0.3
					c-1.9-1.3-4.2-2.6-6.4-1c-0.2,0.1,0,0.4,0.2,0.3c1.5-1.1,3.1-0.8,4.6,0.1c0.3,0.2,1.2,0.5,1.1,0.9c0,0.2-1.3,0.8-1.5,0.9
					c-1.1,0.6-2.3,1.2-3.6,1.5c-0.6,0.2-1.1,0.3-1.7,0.4c-0.4,0.1-0.9,0.1-1.3,0c-0.9-0.7-0.9-1.3,0.1-1.8
					C47.3,28.6,47.2,28.3,47,28.4L47,28.4z"/>
			</g>
		</g>
	</g>
	<g>
		<g>
			<g>
				<path class="st0" d="M50.6,22.8c-0.5-1.8-0.9-3.7,0.2-5.4c0.4-0.6,0.9-1.1,1.4-1.5c0.9-0.8,1.4-0.2,1.8,0.7
					c1,2.5,0.2,5.5-1.8,7.3c-0.2,0.1,0.1,0.4,0.2,0.2c1.2-1.1,2-2.6,2.3-4.2c0.2-1.3,0.1-3.8-1.1-4.7c-0.9-0.7-2.3,1.2-2.8,1.8
					c-1.3,1.8-1,3.9-0.5,6C50.4,23,50.7,23,50.6,22.8L50.6,22.8z"/>
			</g>
		</g>
	</g>
	<g>
		<g>
			<g>
				<path class="st0" d="M66.7,21.2c-1.3,0-2.6-2.7-2.5-3.8c0-0.8,0.5-1.5,0.9-2.2c0.2-0.3,0.3-0.5,0.5-0.8c0.1-0.5,0.4-0.6,0.8-0.3
					c1.2,0.2,2.2,1.8,2.5,2.9c0.4,1.5-0.2,3.2-1.7,3.7c-0.2,0.1-0.1,0.4,0.1,0.3c1.5-0.6,2.3-2.1,2-3.7c-0.1-0.8-0.5-1.6-1-2.3
					c-0.4-0.5-1.3-1.7-2.1-1.7c-0.7,0.1-0.9,0.9-1.2,1.4c-0.5,0.9-1.1,1.7-1,2.7c0.1,1.2,1.4,3.9,2.8,3.9
					C66.9,21.5,66.9,21.2,66.7,21.2L66.7,21.2z"/>
			</g>
		</g>
	</g>
	<g>
		<g>
			<g>
				<path class="st0" d="M66.3,21.3c-1,0.6-1.8,1.6-2,2.8c-0.2,1.9,2,3.1,1.5,5c0,0.1,0.1,0.2,0.2,0.2c0.9,0.1,1.5-0.8,2.1-1.4
					c0.8-0.9,1.5-1.9,1.7-3.1c0.3-1.9-0.8-3.8-2.8-3.8c-0.2,0-0.2,0.3,0,0.3c2.5,0,3,2.9,2.1,4.7c-0.4,0.7-0.9,1.4-1.4,2
					c-0.2,0.2-0.4,0.5-0.6,0.6c-0.3,0.1-0.5,0.2-0.7,0.3c0-0.1,0-0.2,0-0.3c-0.2-0.2-0.1-0.8-0.2-1.1c-0.3-0.6-0.7-1-1-1.6
					c-0.9-1.7-0.1-3.4,1.4-4.3C66.6,21.4,66.5,21.2,66.3,21.3L66.3,21.3z"/>
			</g>
		</g>
	</g>
	<g>
		<g>
			<g>
				<path class="st0" d="M69.6,17.9c0.3-0.4,0.5-0.9,0.8-1.3c0.3-0.2,0.7-0.3,1-0.3c0.4-0.1,0.8-0.1,1.2,0c0.6,0.1,1.2,0.2,1.9,0.1
					c0.3,0,1.1-0.3,1.3-0.1s0.1,1.6,0.1,1.9c-0.1,1.8-1.1,2.9-2.9,3.4c-1.4,0.4-3.1,0.7-4.3-0.3c-0.2-0.1-0.3,0.2-0.2,0.3
					c1.6,1.2,4.2,0.8,5.8-0.1c2-1.1,2-3.5,1.7-5.5c0-0.1-0.1-0.2-0.2-0.2c-1.9,0.8-6.2-1-6.6,2.2C69.2,18.1,69.6,18.1,69.6,17.9
					L69.6,17.9z"/>
			</g>
		</g>
	</g>
	<g>
		<g>
			<g>
				<path class="st0" d="M73.9,16.2c0.4-0.9,1.6-2.6,2.7-2.6c0.9,0.1,1.9,2.4,2.1,3.1c0.5,1.5,0.4,3.5-1.2,4.3
					c-1.2,0.7-2.3,0-3.5-0.1c-0.2,0-0.2,0.3,0,0.3c1.1,0.1,2.2,0.7,3.3,0.2c0.8-0.3,1.4-1,1.7-1.8c0.9-2.3-0.7-4.6-2-6.4
					c-0.1-0.1-0.1-0.1-0.2-0.1c-1.5,0.4-2.6,1.4-3.3,2.8C73.6,16.2,73.9,16.4,73.9,16.2L73.9,16.2z"/>
			</g>
		</g>
	</g>
	<g>
		<g>
			<g>
				<path class="st0" d="M73.1,21.8c-2.4,1.2,0.8,3.7,1.4,4.9c0,0.1,0.2,0.1,0.2,0.1c1.2-0.8,3-1.9,3.6-3.3c0.4-0.8,0.1-1.8-0.8-2.1
					c-0.2-0.1-0.3,0.2-0.1,0.3c1.9,0.6,0.1,2.5-0.5,3c-0.3,0.2-0.5,0.4-0.7,0.6c-0.2,0.2-0.9,0.9-1.2,0.9c-0.4,0-0.8-0.7-1-1
					c-0.7-0.8-2.1-2.4-0.6-3.2C73.5,21.9,73.3,21.7,73.1,21.8L73.1,21.8z"/>
			</g>
		</g>
	</g>
	<g>
		<g>
			<g>
				<path class="st0" d="M64.7,19.9c-1.6-1.3-3.3-2.7-5.3-3.2c-0.6-0.2-2.5-0.5-2.5,0.6c0,0.7,1.1,1.8,1.6,2.3
					c0.6,0.7,1.4,1.4,2.3,1.8c1.3,0.6,3.1,0.7,4-0.6c0.1-0.2-0.2-0.3-0.3-0.2c-1,1.5-3.1,0.9-4.3,0.1c-0.6-0.4-1-0.8-1.5-1.3
					c-0.3-0.4-1.2-1.2-1.3-1.8c-0.1-0.9,1.5-0.7,2.1-0.6c0.6,0.2,1.2,0.4,1.8,0.7c1.1,0.6,2.2,1.5,3.2,2.3
					C64.7,20.3,64.9,20.1,64.7,19.9L64.7,19.9z"/>
			</g>
		</g>
	</g>
	<g>
		<g>
			<g>
				<path class="st0" d="M62.2,21.6c-1.3,0.4-2.6,0.9-3.5,2.1c-0.8,1.2-0.5,2.4,0,3.7c0,0.1,0.1,0.1,0.2,0.1c3.1-0.5,5.7-2.9,6.3-6
					c0.1-0.2-0.3-0.3-0.3-0.1c-0.5,2.3-2,4.2-4.1,5.2c-0.3,0.2-1.2,0.6-1.6,0.5c-0.5-0.2-0.7-1.3-0.7-1.7c0-2.1,2.1-2.9,3.8-3.5
					C62.5,21.9,62.4,21.6,62.2,21.6L62.2,21.6z"/>
			</g>
		</g>
	</g>
	<g>
		<g>
			<g>
				<path class="st0" d="M55.7,22.6c-0.7-0.8-1.1-1.8-1.2-2.9c0-0.2-0.3-0.2-0.3,0c0.1,1.2,0.5,2.2,1.3,3.1
					C55.7,22.9,55.9,22.7,55.7,22.6L55.7,22.6z"/>
			</g>
		</g>
	</g>
	<g>
		<g>
			<g>
				<path class="st0" d="M54.5,17.1c0.2-0.6,0.4-1.1,0.7-1.7c0.4-0.7,0.7-1.2,1.5-0.8c1,0.5,1.8,1.3,2.4,2.2c0.1,0.2,0.4,0,0.3-0.2
					c-0.8-1.3-1.9-2.2-3.3-2.7c-0.1,0-0.1,0-0.2,0.1c-0.8,0.9-1.4,1.8-1.7,2.9C54.1,17.2,54.4,17.2,54.5,17.1L54.5,17.1z"/>
			</g>
		</g>
	</g>
	<g>
		<g>
			<g>
				<path class="st0" d="M59.2,20.9c0.2,0.5,0.1,1.1-0.4,1.4c-0.2,0.1,0.1,0.4,0.2,0.2c0.5-0.4,0.7-1.1,0.5-1.7
					C59.5,20.6,59.2,20.7,59.2,20.9L59.2,20.9z"/>
			</g>
		</g>
	</g>
	<g>
		<g>
			<g>
				<path class="st0" d="M56.7,22.7c-1.2-0.1-2,1.2-2.3,2.3c-0.3,1.4,0.7,2.4,1.7,3.3c0.1,0.1,0.2,0.1,0.2,0c1-0.8,1.8-1.8,2.2-3
					c0.3-0.8,0.7-1.9,0-2.6c-0.2-0.2-0.4,0.1-0.2,0.2c0.7,0.7,0,2.3-0.4,3c-0.2,0.4-1,1.9-1.6,1.9c-0.7,0.1-1.6-1.4-1.7-1.9
					c-0.2-1.2,0.6-3,2-3C56.9,23,56.9,22.7,56.7,22.7L56.7,22.7z"/>
			</g>
		</g>
	</g>
	<g>
		<g>
			<g>
				<path class="st0" d="M78.8,20.2c0.5-1.4,1.5-2.4,2.8-3.1c0.6-0.3,1.4-0.7,2.1-0.8c0.3-0.1,0.9-0.2,1.2,0.1
					c0.2,0.2,0.3,0.9,0.4,1.2c0.1,0.3,0.2,0.6,0.2,1c0,0.6-0.7,1.5-1.2,1.7c-0.5,0.2-1.1,0.3-1.7,0.3c-1.5,0.2-3,0.2-4.4-0.7
					c-0.2-0.1-0.3,0.2-0.2,0.3c1.7,1.1,3.7,0.9,5.6,0.5c1.8-0.4,2.5-1.1,2-3c-0.2-0.5-0.2-1.6-0.8-1.9c-0.5-0.3-2,0.3-2.5,0.5
					c-1.8,0.7-3.3,1.9-4,3.7C78.4,20.3,78.7,20.4,78.8,20.2L78.8,20.2z"/>
			</g>
		</g>
	</g>
	<g>
		<g>
			<g>
				<path class="st0" d="M79.1,20.6c-1.2,0.5-1.2,1.8-0.5,2.7c0.6,0.7,1.4,1,2.2,1.4c0.5,0.3,0.9,0.6,1.4,1c0.2,0.2,0.3,0.4,0.5,0.4
					c1.2,0.2,1.9-2.4,1.9-3.2c0-1.3-1.1-2.5-2.5-2.4c-0.2,0-0.2,0.3,0,0.3c1.5-0.2,2.4,1.3,2.1,2.7c-0.2,1-1,2.5-2.2,1.4
					c-0.5-0.4-1-0.7-1.5-0.9c-1-0.5-3.4-2.4-1.2-3.3C79.4,20.9,79.3,20.6,79.1,20.6L79.1,20.6z"/>
			</g>
		</g>
	</g>
	<g>
		<g>
			<g>
				<path class="st0" d="M84.7,21.3c0.5-2.3,3.2-1.5,4.5-0.5c0.8,0.6,3,2.2,1.6,3.4c-0.9,0.7-2.6,0.6-3.6,0.3
					c-1.5-0.5-2.6-1.8-2.5-3.4c0-0.2-0.3-0.2-0.3,0c0,1.8,1.2,3.3,3,3.7c1.2,0.3,4.1,0.3,4.5-1.3c0.2-0.7-0.4-1.1-0.8-1.5
					c-0.9-0.8-1.7-1.8-2.9-2.3c-1.4-0.6-3.2-0.2-3.6,1.5C84.3,21.4,84.6,21.5,84.7,21.3L84.7,21.3z"/>
			</g>
		</g>
	</g>
	<g>
		<g>
			<g>
				<path class="st0" d="M85.8,18.5c0.3-1.2,1.8-1.5,2.9-1.3c0.3,0.1,0.4,0,0.5,0.4c0.1,0.3,0,0.7,0,0.9c-0.1,0.5-0.4,1-0.8,1.4
					c-0.2,0.2,0.1,0.4,0.2,0.2c0.8-0.8,1.1-1.9,0.7-3c0-0.1-0.1-0.1-0.2-0.1c-1.4-0.2-3.3-0.2-3.7,1.4
					C85.4,18.6,85.7,18.7,85.8,18.5L85.8,18.5z"/>
			</g>
		</g>
	</g>
	<g>
		<g>
			<g>
				<path class="st0" d="M88.4,24.9c-0.4,1.4,0.3,2.7,1.3,3.7c0.8,0.8,1.4,1.5,2.5,0.6c2.1-1.7,1.2-4.9-1.3-5.6
					c-0.2-0.1-0.3,0.3-0.1,0.3c2.1,0.6,3.1,3.1,1.4,4.8c-0.9,0.9-1.7,0.2-2.4-0.5c-0.9-0.9-1.4-2-1.1-3.3
					C88.8,24.7,88.4,24.7,88.4,24.9L88.4,24.9z"/>
			</g>
		</g>
	</g>
	<g>
		<g>
			<g>
				<path class="st0" d="M89.5,20.9c0.8-0.9,1.9-1.5,3.1-1.5c0.9,0,3.1,0.4,3.6,1.4c0.3,0.7-0.4,2.2-0.9,2.7
					c-0.9,1.3-2.5,1.4-3.8,0.5c-0.2-0.1-0.3,0.2-0.2,0.3c1,0.7,2.4,0.9,3.4,0.2c1.2-0.8,1.6-2.4,1.9-3.7c0-0.1,0-0.2-0.1-0.2
					c-2.4-1.5-5.2-2.2-7.3,0.2C89.2,20.8,89.4,21.1,89.5,20.9L89.5,20.9z"/>
			</g>
		</g>
	</g>
	<g>
		<g>
			<g>
				<path class="st0" d="M92.5,28.1c-0.3,1.6,0.4,2.9,1.5,4c0.7,0.8,1.1,1.5,1.9,0.5c1.8-2.5,0.3-5.9-2.6-6.6
					c-0.2-0.1-0.3,0.3-0.1,0.3c2.3,0.6,3.7,2.8,2.9,5.2c-0.2,0.4-0.5,1.4-1.1,1.3c-0.2,0-0.7-0.7-0.8-0.8c-0.9-1.1-1.7-2.3-1.4-3.7
					C92.8,27.9,92.5,27.9,92.5,28.1L92.5,28.1z"/>
			</g>
		</g>
	</g>
	<g>
		<g>
			<g>
				<path class="st0" d="M94.4,24.4c1.7-1.1,2.9,1.1,4,2c0.3,0.3,0.8,0.4,0.7,1c-0.1,0.4-0.4,0.8-0.8,1c-0.7,0.5-1.5,0.5-2.3,0.1
					c-0.2-0.1-0.3,0.2-0.2,0.3c0.7,0.5,1.6,0.5,2.4,0.1c0.5-0.3,1.4-1.2,1.1-1.9c-0.2-0.4-0.6-0.5-0.9-0.7c-0.6-0.5-1.1-1.1-1.7-1.7
					c-0.8-0.6-1.8-0.9-2.7-0.3C94.1,24.2,94.2,24.5,94.4,24.4L94.4,24.4z"/>
			</g>
		</g>
	</g>
	<g>
		<g>
			<g>
				<path class="st0" d="M96.1,30c-0.5,2.6,1.8,4.2,3.8,5.3c0.1,0,0.2,0,0.2,0c2.1-2.5,0.9-6.1-2.3-6.7c-0.2,0-0.3,0.3-0.1,0.3
					c2.2,0.4,4.2,3.1,2.8,5.3c-0.4,0.6-0.6,0.7-1.2,0.5c-0.5-0.2-1-0.6-1.4-0.9c-1-0.9-1.8-2.1-1.5-3.6C96.4,29.9,96.1,29.8,96.1,30
					L96.1,30z"/>
			</g>
		</g>
	</g>
	<g>
		<g>
			<g>
				<path class="st0" d="M97.3,33.7c-0.9,2.1-0.4,4.5,1.2,6.2c0.1,0.1,0.2,0.1,0.2,0c1.1-1,2.7-2,3.1-3.6c0.3-1.1-0.2-2.1-1.2-2.6
					c-0.2-0.1-0.4,0.2-0.2,0.3c1.7,0.7,1.1,2.6,0.2,3.7c-0.3,0.4-1.7,1.9-2.2,1.7c-0.3-0.1-0.6-0.8-0.8-1.1
					c-0.3-0.6-0.5-1.2-0.6-1.9c-0.1-0.9,0.1-1.8,0.4-2.6C97.7,33.6,97.4,33.5,97.3,33.7L97.3,33.7z"/>
			</g>
		</g>
	</g>
	<g>
		<g>
			<g>
				<path class="st0" d="M100.6,30.7c1.1-1,2.4-0.1,2.9,1c0.3,0.7,0.4,1.4,0.7,2.1c0.3,0.7,0.8,1.2,1.6,1.2c0-0.1-0.1-0.2-0.1-0.3
					c-1,1.1-2.4,1.5-3.9,1.3c-0.2,0-0.3,0.3-0.1,0.3c1.6,0.2,3-0.3,4.2-1.4c0.1-0.1,0-0.3-0.1-0.3c-1.7,0.1-1.7-3.3-2.9-4.2
					c-0.8-0.6-1.9-0.7-2.6,0.1C100.2,30.6,100.5,30.9,100.6,30.7L100.6,30.7z"/>
			</g>
		</g>
	</g>
	<g>
		<g>
			<g>
				<path class="st0" d="M100.7,38.1c-0.4,1.5-0.1,3,1,4.1c0.8,0.7,2.3,1.4,3.2,0.6c0.8-0.8,0.7-2.3,0.3-3.3
					c-0.7-1.5-2.4-2.3-3.9-2.8c-0.2-0.1-0.3,0.2-0.1,0.3c1.9,0.7,4.3,2,4,4.3c-0.2,2-2.3,1.5-3.4,0.5s-1.2-2.4-0.8-3.7
					C101,38,100.7,37.9,100.7,38.1L100.7,38.1z"/>
			</g>
		</g>
	</g>
	<g>
		<g>
			<g>
				<path class="st0" d="M103.7,36.2c1.3,0.3,1.9,1.2,2.4,2.4c0.3,0.6,0.5,1.1,1.2,1.2c0-0.1,0-0.2,0-0.3c-0.7,0.5-1.4,0.6-2.2,0.5
					c-0.2-0.1-0.3,0.3-0.1,0.3c0.9,0.2,1.7,0,2.5-0.5c0.1-0.1,0.1-0.3,0-0.3c-1-0.2-1.1-1.7-1.6-2.4c-0.5-0.7-1.2-1.1-2-1.3
					C103.6,35.9,103.6,36.2,103.7,36.2L103.7,36.2z"/>
			</g>
		</g>
	</g>
	<g>
		<g>
			<g>
				<path class="st0" d="M101.6,42.3c-1.7,1.7-0.4,3.9,0.7,5.4c0.1,0.1,0.2,0.1,0.3,0c1.2-1,4.1-3.6,2.4-5.4
					c-0.1-0.2-0.4,0.1-0.2,0.2c0.8,0.9,0.2,2.1-0.4,2.8c-0.4,0.5-1.1,1.5-1.7,1.8c-0.6,0.2-1.2-1.3-1.4-1.8c-0.3-1-0.3-2.1,0.5-2.9
					C102,42.4,101.8,42.2,101.6,42.3L101.6,42.3z"/>
			</g>
		</g>
	</g>
	<g>
		<g>
			<g>
				<path class="st0" d="M105.2,40.6c1.4-0.2,2.3,1.9,3,2.8c0.2,0.3,0.7,0.8,0.5,1.1c-0.1,0.2-0.9,0.3-1.1,0.4
					c-0.7,0.2-1.5,0.1-2.2-0.1c-0.2-0.1-0.3,0.3-0.1,0.3c0.7,0.2,4.3,0.4,3.7-1c-0.2-0.5-0.7-1-1-1.5c-0.3-0.5-0.6-0.9-0.9-1.3
					c-0.5-0.6-1.1-1.2-2-1.1C105,40.3,105,40.6,105.2,40.6L105.2,40.6z"/>
			</g>
		</g>
	</g>
	<g>
		<g>
			<g>
				<path class="st0" d="M99.1,39.3c-1.3,1.7,0.6,3.9-0.5,5.7c-0.1,0.1,0.1,0.3,0.2,0.2c1.1-0.7,2-1.6,2.7-2.7
					c0.1-0.2-0.2-0.3-0.3-0.2c-0.7,1.1-1.5,1.9-2.6,2.6c0.1,0.1,0.2,0.2,0.2,0.2c1.1-1.8-0.8-4,0.5-5.7
					C99.5,39.3,99.2,39.1,99.1,39.3L99.1,39.3z"/>
			</g>
		</g>
	</g>
	<g>
		<g>
			<g>
				<path class="st0" d="M50.3,25.5c0.7-1.8,1.3-3.6,1.6-5.5c0-0.2-0.3-0.3-0.3-0.1c-0.3,1.9-0.8,3.7-1.6,5.5
					C49.9,25.7,50.2,25.8,50.3,25.5L50.3,25.5z"/>
			</g>
		</g>
	</g>
	<g>
		<g>
			<g>
				<path class="st0" d="M46.3,28.7c0.7-2,1-4.1,0.7-6.2c0-0.2-0.4-0.2-0.3,0c0.3,2.1,0.1,4.1-0.7,6.1
					C45.9,28.8,46.2,28.9,46.3,28.7L46.3,28.7z"/>
			</g>
		</g>
	</g>
	<g>
		<g>
			<g>
				<path class="st0" d="M39.3,41.5C39.3,41.5,39.3,41.5,39.3,41.5c0.2,0,0.3-0.1,0.3-0.2c0.1-0.2,0.1-0.3,0-0.4
					c-0.1-0.1-0.2-0.2-0.4-0.2c-0.2,0.1-0.3,0.2-0.5,0.4c-0.3,0.4-0.6,0.7-0.9,1.1c-0.6,0.7-1.1,1.4-1.7,2.2
					c-0.3,0.3,0.2,0.8,0.5,0.5c0.5-0.6,1-1.2,1.4-1.9c0.2-0.3,0.5-0.6,0.7-0.9c0.1-0.2,0.5-0.7,0.6-0.8c-0.1-0.1-0.2-0.1-0.4-0.2
					c0,0,0,0,0,0.1c0-0.1,0-0.2,0-0.3c0,0,0,0,0,0.1c0.1-0.1,0.2-0.1,0.3-0.2c0,0,0,0-0.1,0C38.8,40.9,38.8,41.5,39.3,41.5
					L39.3,41.5z"/>
			</g>
		</g>
	</g>
	<g>
		<g>
			<g>
				<path class="st0" d="M38.3,41.2c-0.1,0.8-0.3,1.5-0.4,2.3c-0.1,0.4,0.6,0.6,0.6,0.2c0.1-0.8,0.3-1.5,0.4-2.3
					C39,41,38.4,40.8,38.3,41.2L38.3,41.2z"/>
			</g>
		</g>
	</g>
	<g>
		<g>
			<g>
				<path class="st0" d="M39.6,40.8c0.8,0.8,1.5,1.7,2.1,2.7c0.2,0.4,0.7,0.1,0.6-0.3c-0.6-1.1-1.3-2-2.2-2.9
					C39.7,40.1,39.3,40.5,39.6,40.8L39.6,40.8z"/>
			</g>
		</g>
	</g>
	<g>
		<g>
			<g>
				<path class="st0" d="M40.3,41.2c0.8,0.3,1.5,0.6,2.2,1c0.4,0.2,0.7-0.3,0.3-0.6c-0.7-0.5-1.5-0.8-2.4-1.1
					C40,40.5,39.9,41.1,40.3,41.2L40.3,41.2z"/>
			</g>
		</g>
	</g>
	<g>
		<g>
			<g>
				<path class="st0" d="M40.3,40c1.1-0.5,2.1-1.1,3.2-1.6c0.4-0.2,0.1-0.7-0.3-0.6c-1.1,0.5-2.1,1.1-3.2,1.6
					C39.6,39.6,40,40.2,40.3,40L40.3,40z"/>
			</g>
		</g>
	</g>
	<g>
		<g>
			<g>
				<path class="st0" d="M39.7,40.2c-0.7-0.7-1.7-1.2-2.7-1.4c-0.4-0.1-0.6,0.5-0.2,0.6c0.9,0.2,1.7,0.6,2.4,1.2
					C39.6,40.9,40,40.4,39.7,40.2L39.7,40.2z"/>
			</g>
		</g>
	</g>
	<g>
		<g>
			<g>
				<path class="st0" d="M40.4,39.3c0.6-1.7,0.9-3.4,0.9-5.2c0-0.4-0.6-0.4-0.6,0c-0.1,1.7-0.4,3.4-0.9,5
					C39.7,39.5,40.3,39.6,40.4,39.3L40.4,39.3z"/>
			</g>
		</g>
	</g>
	<g>
		<g>
			<g>
				<path class="st0" d="M43.2,36.4c0.8-1,1.7-2,2.5-3c0.3-0.3-0.2-0.8-0.5-0.5c-0.8,1-1.7,2-2.5,3C42.5,36.3,42.9,36.7,43.2,36.4
					L43.2,36.4z"/>
			</g>
		</g>
	</g>
	<g>
		<g>
			<g>
				<path class="st0" d="M42.2,34c0.1-0.9,0.3-1.8,0.4-2.6c0.1-0.4-0.6-0.6-0.6-0.2c-0.1,0.9-0.3,1.8-0.4,2.6
					C41.5,34.2,42.1,34.4,42.2,34L42.2,34z"/>
			</g>
		</g>
	</g>
	<g>
		<g>
			<g>
				<path class="st0" d="M46.6,30.1c1.3-0.2,2.5-0.8,3.5-1.8c0.3-0.3-0.2-0.7-0.5-0.5c-0.9,0.9-2,1.4-3.2,1.6
					C46,29.5,46.2,30.1,46.6,30.1L46.6,30.1z"/>
			</g>
		</g>
	</g>
	<g>
		<g>
			<g>
				<path class="st0" d="M45.9,28.4c0.7-0.8,1.1-1.7,1.1-2.7c0-0.4-0.6-0.4-0.6,0c0,0.9-0.3,1.7-0.9,2.3
					C45.2,28.2,45.6,28.7,45.9,28.4L45.9,28.4z"/>
			</g>
		</g>
	</g>
	<g>
		<g>
			<g>
				<path class="st0" d="M50.1,26c1.2-0.9,2.7-1.3,4.2-1.1c0.4,0.1,0.6-0.6,0.2-0.6c-1.7-0.3-3.3,0.1-4.7,1.2
					C49.5,25.7,49.8,26.3,50.1,26L50.1,26z"/>
			</g>
		</g>
	</g>
	<g>
		<g>
			<g>
				<path class="st0" d="M56.6,23c-0.3,0.6-0.6,1.3-0.9,1.9c-0.2,0.4,0.4,0.7,0.6,0.3c0.3-0.6,0.6-1.3,0.9-1.9
					C57.3,23,56.7,22.7,56.6,23L56.6,23z"/>
			</g>
		</g>
	</g>
	<g>
		<g>
			<g>
				<path class="st0" d="M57.5,22.1c-0.5-0.7-0.9-1.4-1.2-2.2c-0.1-0.4-0.7-0.2-0.6,0.2c0.3,0.9,0.7,1.7,1.3,2.4
					C57.2,22.8,57.7,22.5,57.5,22.1L57.5,22.1z"/>
			</g>
		</g>
	</g>
	<g>
		<g>
			<g>
				<path class="st0" d="M57.7,22.5c0-0.7,0.1-1.4,0.4-2c0.2-0.4-0.5-0.5-0.6-0.2c-0.3,0.7-0.4,1.4-0.4,2.2
					C57.1,22.9,57.7,22.9,57.7,22.5L57.7,22.5z"/>
			</g>
		</g>
	</g>
	<g>
		<g>
			<g>
				<path class="st0" d="M64.7,20.7c-0.8,0.8-1.5,1.6-2.2,2.5c-0.2,0.3,0.3,0.7,0.6,0.3c0.6-0.9,1.3-1.7,2.1-2.4
					C65.5,20.8,65,20.4,64.7,20.7L64.7,20.7z"/>
			</g>
		</g>
	</g>
	<g>
		<g>
			<g>
				<path class="st0" d="M64.5,20.1c-1.1,0.3-2.2,0.1-3-0.7c-0.3-0.3-0.8,0.2-0.5,0.5c1,0.9,2.4,1.2,3.7,0.8
					C65.1,20.6,64.9,20,64.5,20.1L64.5,20.1z"/>
			</g>
		</g>
	</g>
	<g>
		<g>
			<g>
				<path class="st0" d="M66.7,21.4c0.1-1.2,0.1-2.5,0.2-3.7c0-0.4-0.6-0.4-0.6,0c-0.1,1.2-0.1,2.5-0.2,3.7
					C66,21.8,66.7,21.8,66.7,21.4L66.7,21.4z"/>
			</g>
		</g>
	</g>
	<g>
		<g>
			<g>
				<path class="st0" d="M67.3,21.1c-1.1,1.3-1.3,3.1-0.7,4.6c0.2,0.4,0.7,0.1,0.6-0.3c-0.6-1.3-0.4-2.8,0.6-3.9
					C68,21.3,67.5,20.8,67.3,21.1L67.3,21.1z"/>
			</g>
		</g>
	</g>
	<g>
		<g>
			<g>
				<path class="st0" d="M67.7,20.9c1-0.8,2.3-0.7,3.5-1.2c1-0.4,1.8-1.1,2.3-2c0.2-0.3-0.3-0.7-0.6-0.3c-0.7,1.1-1.8,1.8-3,2.1
					c-0.9,0.2-1.8,0.4-2.5,0.9C67,20.6,67.3,21.2,67.7,20.9L67.7,20.9z"/>
			</g>
		</g>
	</g>
	<g>
		<g>
			<g>
				<path class="st0" d="M68.5,20.6c1.2,0,2.3-0.1,3.5-0.1c0.4,0,0.4-0.6,0-0.6c-1.2,0-2.3,0.1-3.5,0.1C68.1,20,68.1,20.6,68.5,20.6
					L68.5,20.6z"/>
			</g>
		</g>
	</g>
	<g>
		<g>
			<g>
				<path class="st0" d="M75.5,21.4c1.1-0.8,1.8-2,1.9-3.3c0-0.4-0.6-0.4-0.6,0c-0.1,1.1-0.6,2.1-1.5,2.8
					C74.9,21.1,75.2,21.7,75.5,21.4L75.5,21.4z"/>
			</g>
		</g>
	</g>
	<g>
		<g>
			<g>
				<path class="st0" d="M75.6,21.5c-0.5,0.4-0.9,0.9-1.2,1.5c-0.2,0.4,0.4,0.7,0.6,0.3c0.3-0.5,0.7-1,1.1-1.4
					C76.4,21.7,75.9,21.3,75.6,21.5L75.6,21.5z"/>
			</g>
		</g>
	</g>
	<g>
		<g>
			<g>
				<path class="st0" d="M78.9,21.4c1.5,0.2,2.9,1.1,3.7,2.4c0.2,0.4,0.8,0,0.6-0.3c-0.9-1.5-2.3-2.5-4-2.7
					C78.7,20.8,78.5,21.4,78.9,21.4L78.9,21.4z"/>
			</g>
		</g>
	</g>
	<g>
		<g>
			<g>
				<path class="st0" d="M79.2,20.5c1.4-0.6,2.7-1.5,3.9-2.5c0.3-0.3-0.2-0.7-0.5-0.5c-1.1,1-2.4,1.8-3.8,2.4
					C78.5,20.1,78.8,20.6,79.2,20.5L79.2,20.5z"/>
			</g>
		</g>
	</g>
	<g>
		<g>
			<g>
				<path class="st0" d="M84.4,21.6c1.1,0.3,2.1,0.5,3.3,0.6c0.4,0,0.4-0.6,0-0.6c-1-0.1-2.1-0.2-3.1-0.5
					C84.2,20.8,84,21.4,84.4,21.6L84.4,21.6z"/>
			</g>
		</g>
	</g>
	<g>
		<g>
			<g>
				<path class="st0" d="M86.2,19.6c0.4-0.3,0.8-0.6,1.2-0.9c0.3-0.2,0-0.8-0.3-0.6c-0.4,0.3-0.8,0.6-1.2,0.9
					C85.6,19.3,85.9,19.8,86.2,19.6L86.2,19.6z"/>
			</g>
		</g>
	</g>
	<g>
		<g>
			<g>
				<path class="st0" d="M90,21c0.6,0.2,1.2,0.4,1.8,0.5c0.4,0.1,0.6-0.5,0.2-0.6c-0.6-0.2-1.2-0.4-1.8-0.5
					C89.8,20.3,89.6,20.9,90,21L90,21z"/>
			</g>
		</g>
	</g>
	<g>
		<g>
			<g>
				<path class="st0" d="M90.5,24.3c-0.2,0.8-0.1,1.5,0.2,2.3c0.2,0.4,0.8,0.2,0.6-0.2c-0.3-0.6-0.3-1.3-0.2-1.9
					C91.2,24.1,90.6,23.9,90.5,24.3L90.5,24.3z"/>
			</g>
		</g>
	</g>
	<g>
		<g>
			<g>
				<path class="st0" d="M93.4,25.6c0.8,0.2,1.5,0.4,2.3,0.5c0.4,0.1,0.6-0.5,0.2-0.6c-0.8-0.2-1.5-0.4-2.3-0.5
					C93.1,24.9,92.9,25.5,93.4,25.6L93.4,25.6z"/>
			</g>
		</g>
	</g>
	<g>
		<g>
			<g>
				<path class="st0" d="M93.5,27c0,0.7,0.2,1.3,0.6,1.9c0.2,0.4,0.8,0,0.6-0.3c-0.3-0.5-0.5-1-0.5-1.6C94.1,26.6,93.5,26.6,93.5,27
					L93.5,27z"/>
			</g>
		</g>
	</g>
	<g>
		<g>
			<g>
				<path class="st0" d="M96.7,29.9c0.3,0.4,0.6,0.8,0.9,1.2c0.2,0.3,0.8,0,0.6-0.3c-0.3-0.4-0.6-0.8-0.9-1.2
					C97,29.2,96.4,29.5,96.7,29.9L96.7,29.9z"/>
			</g>
		</g>
	</g>
	<g>
		<g>
			<g>
				<path class="st0" d="M101.2,33.7c0.5,0,1,0,1.5,0.2c0.4,0.1,0.6-0.5,0.2-0.6c-0.5-0.2-1.1-0.2-1.7-0.2
					C100.8,33.1,100.8,33.7,101.2,33.7L101.2,33.7z"/>
			</g>
		</g>
	</g>
	<g>
		<g>
			<g>
				<path class="st0" d="M98.7,35.8c-0.1,0.4-0.2,0.8-0.4,1.2c-0.1,0.4,0.5,0.6,0.6,0.2c0.1-0.4,0.2-0.8,0.4-1.2
					C99.5,35.5,98.9,35.4,98.7,35.8L98.7,35.8z"/>
			</g>
		</g>
	</g>
	<g>
		<g>
			<g>
				<path class="st0" d="M101.2,38.3c0,1,0.4,1.9,1.2,2.5c0.3,0.3,0.8-0.2,0.5-0.5c-0.6-0.5-1-1.2-1-2.1
					C101.8,37.9,101.2,37.9,101.2,38.3L101.2,38.3z"/>
			</g>
		</g>
	</g>
	<g>
		<g>
			<g>
				<path class="st0" d="M104.9,42.5c0.3,0.5,0.7,0.8,1.2,1c0.2,0.1,0.4-0.1,0.4-0.2c0.1-0.2-0.1-0.3-0.2-0.4
					c-0.4-0.2-0.7-0.4-0.9-0.7C105.3,41.9,104.7,42.2,104.9,42.5L104.9,42.5z"/>
			</g>
		</g>
	</g>
	<g>
		<g>
			<g>
				<path class="st0" d="M102.8,43.5c-0.1,0.4-0.1,0.8-0.2,1.2c0,0.2,0.1,0.3,0.2,0.4c0.2,0.1,0.4-0.1,0.4-0.2
					c0.1-0.4,0.1-0.8,0.2-1.2c0-0.2-0.1-0.3-0.2-0.4C103.1,43.2,102.8,43.3,102.8,43.5L102.8,43.5z"/>
			</g>
		</g>
	</g>
	<g>
		<g>
			<g>
				<path class="st0" d="M99.8,38.8c-0.1,0.9-0.1,1.8-0.2,2.6c0,0.4,0.6,0.4,0.6,0c0.1-0.9,0.1-1.8,0.2-2.6
					C100.5,38.4,99.8,38.4,99.8,38.8L99.8,38.8z"/>
			</g>
		</g>
	</g>
	<g>
		<g>
			<g>
				<path class="st0" d="M39.2,72.2c3,1.7,5.9,2.8,9.5,2.2c0.4-0.1,0.2-0.7-0.2-0.6c-3.3,0.6-6.1-0.5-9-2.1
					C39.2,71.5,38.8,72,39.2,72.2L39.2,72.2z"/>
			</g>
		</g>
	</g>
	<g>
		<g>
			<g>
				<path class="st0" d="M55.1,75c8.1,2.4,16.7,3.1,25,2c4.1-0.5,8.2-1.5,12.1-2.9c1.8-0.7,3.6-1.4,5.4-2.2c2.3-1,4.5-2,7.1-1.7
					c0.4,0.1,0.4-0.6,0-0.6c-4.1-0.5-8.1,2.2-11.8,3.6c-3.9,1.4-7.9,2.4-12,3c-8.6,1.2-17.4,0.6-25.7-1.8
					C54.9,74.3,54.7,74.9,55.1,75L55.1,75z"/>
			</g>
		</g>
	</g>
	<g>
		<g>
			<g>
				<path class="st0" d="M47.7,76.5c-1.2,0.6-1.8,1.7-2.3,2.9c-0.6,1.7-1,3.5-1.4,5.3c-0.9,3.8-1.4,7.7-1.9,11.6
					c-0.8,8-0.8,16.1-0.7,24.1c0.2-0.1,0.4-0.1,0.6-0.2c-0.9-1.1-2.3-1.4-3.7-1.2c-0.8,0.1-1.6,0.4-2.4,0.7c-0.5,0.2-1,0.4-1.5,0.4
					c-1.2,0-0.7-1-0.6-1.8c1.1-4.7,2.4-9.4,3.3-14.2c0.8-4.7,0.6-9.4,1.2-14.1c0.5-4.2,1.8-8.5,1-12.7c-0.3-1.4-0.9-4.1-2.7-4.4
					c-1.1-0.2-2.1,0.9-1.6,1.9c0.2,0.4,0.7,0.1,0.6-0.3c0.9-0.9,1.6-0.9,2-0.1c0.1,0.2,0.2,0.4,0.3,0.6c0.3,0.6,0.5,1.3,0.7,2
					c0.3,1.2,0.4,2.5,0.3,3.8c-0.1,2.5-0.6,5-1,7.5c-0.8,5.1-0.5,10.3-1.4,15.4c-0.9,5.2-2.7,10.2-3.6,15.4
					c-0.2,1.2,0.3,1.8,1.5,1.6c2.1-0.3,5.2-2.4,6.9-0.2c0.2,0.2,0.6,0.2,0.6-0.2c0-7.4-0.1-14.8,0.6-22.2c0.3-3.8,0.8-7.5,1.5-11.2
					c0.4-1.8,0.8-3.6,1.3-5.3c0.5-1.7,0.9-3.8,2.6-4.6C48.4,76.9,48.1,76.3,47.7,76.5L47.7,76.5z"/>
			</g>
		</g>
	</g>
	<g>
		<g>
			<g>
				<path class="st0" d="M34,82c1.1,5.6,0.9,11.5-0.5,17c-1.3,5-3.7,9.7-4.2,14.9c0,0.3,0.4,0.4,0.5,0.2c1.2-1.1,3.2,0.7,4.5-0.7
					c0.3-0.3-0.2-0.8-0.5-0.5c-1,1.2-3.2-0.5-4.5,0.7c0.2,0.1,0.4,0.2,0.5,0.2c0.5-5.6,3.3-10.7,4.5-16.1c1.2-5.3,1.2-10.7,0.2-16
					C34.6,81.5,34,81.6,34,82L34,82z"/>
			</g>
		</g>
	</g>
	<g>
		<g>
			<g>
				<path class="st0" d="M35.2,74.5c0.7-1.5,2.4-2.3,4.1-2c0.4,0.1,0.6-0.5,0.2-0.6c-1.9-0.4-3.9,0.5-4.8,2.2
					C34.5,74.6,35,74.9,35.2,74.5L35.2,74.5z"/>
			</g>
		</g>
	</g>
	<g>
		<g>
			<g>
				<path class="st0" d="M56.1,77.9c10.4,4.5,22,3.5,32.9,1.1c0.4-0.1,0.2-0.7-0.2-0.6c-10.6,2.3-22.1,3.4-32.4-1.1
					C56,77.2,55.7,77.8,56.1,77.9L56.1,77.9z"/>
			</g>
		</g>
	</g>
	<g>
		<g>
			<g>
				<path class="st0" d="M105.6,70.3c1.6,0.3,2.8,1.4,2.9,3c0,0.2,0.3,0.2,0.3,0c-0.2-1.7-1.5-3.1-3.2-3.4
					C105.4,69.9,105.4,70.2,105.6,70.3L105.6,70.3z"/>
			</g>
		</g>
	</g>
	<g>
		<g>
			<g>
				<path class="st0" d="M108.7,80.6c0.5,7.1,0.5,14.2-0.2,21.2c-0.3,3.6-0.8,7.1-1.3,10.6c-0.4,2.4-0.7,5.1,0.9,7.1
					c0.1-0.2,0.2-0.3,0.4-0.5c-2.3-0.7-4.5-0.6-6.9-0.4c-0.5,0-1,0.1-1.4-0.1c-1-0.3-0.8-0.9-0.6-1.7c0.4-1.2,0.7-2.5,1.1-3.7
					c1.3-4.5,2.4-9.1,2.9-13.8c0.5-4.9-0.1-9.5-0.5-14.4c-0.2-2.3-0.4-4.8,0.2-7.1c0.3-1.2,0.8-2.3,1.6-3.2c0.9-0.9,2.5-1.7,3.6-0.6
					c0.3,0.3,0.7-0.2,0.5-0.5c-2.4-2.3-5.3,1.2-6,3.4c-1.4,4.1-0.4,8.6,0.1,12.8c1,9.8-1.7,19.2-4.4,28.4c0,0.1,0,0.2,0.1,0.3
					c1,0.9,2.2,0.9,3.5,0.7c2.1-0.2,4.1-0.1,6.1,0.4c0.3,0.1,0.5-0.2,0.4-0.5c-1.9-2.5-0.9-5.9-0.5-8.7c0.5-3.2,0.9-6.4,1.1-9.7
					c0.5-6.7,0.6-13.5,0.1-20.2C109.3,80.2,108.6,80.2,108.7,80.6L108.7,80.6z"/>
			</g>
		</g>
	</g>
	<g>
		<g>
			<g>
				<path class="st0" d="M108.9,73.4c-2.2-2.3-5.5,0-6.9,2c-2.1,2.9-2.4,6.8-2.7,10.3c-0.7,9.2,0.1,18.7-2.7,27.7
					c-0.4,1.2-0.8,2.4-1.3,3.6c-0.2,0.6-1.1,2-1,2.7c0.1,0.5,0.6,0.6,1,0.6c1.3-0.1,2.6-0.4,3.9-0.6c0.4-0.1,0.2-0.7-0.2-0.6
					c-0.6,0.1-1.3,0.2-1.9,0.3c-0.7,0.1-1.9,0.6-2-0.6c0-0.3,0.5-1.1,0.6-1.4c0.3-0.6,0.5-1.2,0.7-1.8c0.8-2.2,1.4-4.4,1.8-6.7
					c0.8-4.5,1-9.1,1.1-13.6c0.1-4.6,0.1-9.4,0.9-13.9c0.4-1.9,0.9-3.8,2-5.4c1.2-1.7,4.1-4,6-2C108.7,74.1,109.1,73.7,108.9,73.4
					L108.9,73.4z"/>
			</g>
		</g>
	</g>
	<g>
		<g>
			<g>
				<path class="st0" d="M54.8,78.6c3.4,2.5,5.9,5.8,9.1,8.4c2.9,2.4,6.2,4.5,9.9,5.5c3.7,1,7.7,1.1,11.3-0.4c3.3-1.3,6-3.8,8.4-6.4
					c3.1-3.6,5.7-7.6,9.1-10.8c0.3-0.3-0.2-0.7-0.5-0.5c-5.4,5.2-8.8,12.6-15.6,16.4c-7.5,4.1-16.1,0.8-22.1-4.2
					c-3.2-2.7-5.9-6-9.2-8.5C54.8,77.8,54.5,78.4,54.8,78.6L54.8,78.6z"/>
			</g>
		</g>
	</g>
	<g>
		<g>
			<g>
				<path class="st0" d="M55.1,78.6c2.5,1.4,5,2.9,7.5,4.2c2.3,1.2,4.7,2.5,7.2,3.3c5,1.7,9.9,0.2,14.5-1.9c0.4-0.2,0.1-0.7-0.3-0.6
					c-4.8,2.3-9.7,3.5-14.9,1.6c-4.8-1.8-9.3-4.5-13.7-7.1C55,77.8,54.7,78.4,55.1,78.6L55.1,78.6z"/>
			</g>
		</g>
	</g>
	<g>
		<g>
			<g>
				<path class="st0" d="M56.6,80.1c3,1.7,6.3,3.4,9.6,4.3c3.4,0.9,6.9,0.2,10.2-0.7c0.4-0.1,0.2-0.7-0.2-0.6
					c-3.4,0.9-6.9,1.6-10.3,0.6c-3.1-0.9-6.2-2.5-9-4.1C56.6,79.3,56.3,79.8,56.6,80.1L56.6,80.1z"/>
			</g>
		</g>
	</g>
	<g>
		<g>
			<g>
				<path class="st0" d="M105.1,77.8c-0.6-0.6-1-1.3-1.3-2.1c-0.1-0.2-0.4-0.1-0.3,0.1c0.3,0.8,0.8,1.6,1.4,2.2
					C105,78.2,105.2,78,105.1,77.8L105.1,77.8z"/>
			</g>
		</g>
	</g>
	<g>
		<g>
			<g>
				<path class="st0" d="M104.6,78c-1,5.1,1.5,9.9,1,15c0,0.2,0.3,0.2,0.3,0c0.5-5-2-9.9-1-14.9C105,77.9,104.7,77.8,104.6,78
					L104.6,78z"/>
			</g>
		</g>
	</g>
	<g>
		<g>
			<g>
				<path class="st0" d="M106,79.3c0.1,2.7,0.2,5.4,0.5,8.1c0,0.2,0.3,0.2,0.3,0c-0.2-2.7-0.4-5.4-0.5-8.1
					C106.3,79.1,106,79.1,106,79.3L106,79.3z"/>
			</g>
		</g>
	</g>
	<g>
		<g>
			<g>
				<path class="st0" d="M36,81.1c-0.7,0.7-0.3,1.9-0.1,2.7c0.3,1.9,0.6,3.8,0.9,5.7c0,0.2,0.3,0.1,0.3-0.1
					c-0.2-1.2-0.4-2.5-0.6-3.7c-0.2-0.9-1-3.6-0.3-4.4C36.4,81.1,36.2,80.9,36,81.1L36,81.1z"/>
			</g>
		</g>
	</g>
	<g>
		<g>
			<g>
				<path class="st0" d="M36.9,80.7c-0.1,1.1,0,2.1,0.1,3.2c0,0.2,0.3,0.2,0.3,0c-0.1-1-0.2-2.1-0.1-3.2
					C37.2,80.5,36.9,80.5,36.9,80.7L36.9,80.7z"/>
			</g>
		</g>
	</g>
	<g>
		<g>
			<g>
				<path class="st0" d="M35.3,74.5c-0.2,0.1-0.3,0.1-0.4,0.2c0,0.1,0.1,0.2,0.1,0.3c0.2-0.3,0.5-0.4,0.9-0.4c0-0.1,0-0.2-0.1-0.3
					c-0.4,0.2-0.8,0.2-1.2,0.2c0,0.1,0,0.2,0.1,0.3c0.7-0.2,1.3-0.4,2-0.6c-0.1-0.1-0.1-0.2-0.1-0.3c-0.2,0.1-0.3,0.2-0.5,0.3
					c-0.2,0.1-0.1,0.3,0.1,0.3c0.4,0,0.6,0,0.9-0.2c0.2-0.1,0-0.4-0.2-0.3c-0.3,0.1-0.6,0.3-0.9,0.4c0.1,0.1,0.1,0.2,0.2,0.3
					c0.4-0.3,0.7-0.5,1.2-0.5c0-0.1,0-0.2,0-0.3c-1,0.1-1.8,0.4-2.6,0.9c0.1,0.1,0.2,0.1,0.2,0.1c0-0.1,0.1-0.1,0.1-0.1
					c-0.1-0.1-0.1-0.2-0.2-0.3c-0.2,0.2-0.4,0.4-0.5,0.5c-0.2,0.2,0.1,0.4,0.2,0.2c0.2-0.2,0.3-0.3,0.5-0.4c0.1-0.1-0.1-0.4-0.2-0.3
					c-0.2,0.2-0.4,0.3-0.6,0.4c0.1,0.1,0.1,0.2,0.2,0.3c0.1-0.1,0.2-0.2,0.3-0.3c-0.1-0.1-0.2-0.1-0.3-0.2c-0.1,0.2-0.2,0.4-0.5,0.6
					c-0.1,0.1-0.1,0.4,0.1,0.3c0.4-0.1,0.8-0.2,1.2-0.4c0.2-0.1,0.1-0.4-0.1-0.3c-0.4,0.1-0.8,0.2-1.2,0.4c0.1,0.1,0.1,0.2,0.1,0.3
					c0.3-0.2,0.4-0.4,0.6-0.7c0.1-0.2-0.1-0.3-0.3-0.2c-0.1,0.1-0.2,0.2-0.3,0.3c-0.1,0.1,0.1,0.4,0.2,0.3c0.2-0.2,0.4-0.3,0.6-0.4
					c-0.1-0.1-0.1-0.2-0.2-0.3c-0.2,0.2-0.3,0.3-0.5,0.4c0.1,0.1,0.2,0.2,0.2,0.2c0.2-0.2,0.4-0.4,0.5-0.5c0.1-0.1,0-0.3-0.2-0.3
					c-0.2,0.1-0.3,0.2-0.3,0.4c0,0.1,0.1,0.2,0.2,0.1c0.8-0.5,1.6-0.7,2.5-0.9c0.2,0,0.2-0.3,0-0.3c-0.5,0.1-1,0.3-1.4,0.6
					c-0.2,0.1,0.1,0.3,0.2,0.3c0.3-0.1,0.6-0.3,0.9-0.4c-0.1-0.1-0.1-0.2-0.2-0.3c-0.3,0.2-0.5,0.2-0.8,0.2c0,0.1,0.1,0.2,0.1,0.3
					c0.2-0.1,0.3-0.2,0.5-0.3c0.2-0.1,0.1-0.4-0.1-0.3c-0.7,0.2-1.3,0.4-2,0.6c-0.2,0.1-0.2,0.3,0.1,0.3c0.5,0,0.9-0.1,1.3-0.3
					c0.2-0.1,0.2-0.3-0.1-0.3c-0.5,0-0.8,0.2-1.1,0.5c-0.1,0.1,0,0.3,0.1,0.3c0.3,0,0.5-0.1,0.7-0.4C35.7,74.4,35.4,74.3,35.3,74.5
					L35.3,74.5z"/>
			</g>
		</g>
	</g>
	<g>
		<g>
			<g>
				<path class="st0" d="M35.8,74.7c0.2-0.1,0.3-0.1,0.4-0.2c-0.1-0.1-0.1-0.2-0.2-0.3c-0.3,0.3-0.7,0.4-1,0.6
					c0,0.1,0.1,0.2,0.1,0.3c0.5-0.2,1-0.4,1.6-0.7c0.2-0.1,0.1-0.4-0.1-0.3c-0.3,0.1-0.6,0.2-0.9,0.3c-0.2,0.1-0.1,0.4,0.1,0.3
					c0.5-0.1,1-0.2,1.5-0.3c0.2,0,0.2-0.3,0-0.3c-0.3,0-0.5,0-0.7-0.2c0,0.1-0.1,0.2-0.1,0.3c0.3,0,0.5,0,0.8,0.1
					c0-0.1-0.1-0.2-0.1-0.3c-0.1,0-0.2,0.1-0.3,0.1c0,0.1,0.1,0.1,0.1,0.2c0.1-0.1,0.1-0.2,0.1-0.3c0.1-0.2-0.2-0.3-0.3-0.1
					c-0.1,0.1-0.1,0.2-0.1,0.3c0,0.1,0,0.2,0.1,0.2c0.2,0.1,0.4,0,0.6-0.2c0.1-0.1,0-0.3-0.1-0.3c-0.3,0-0.5,0-0.8-0.1
					c-0.2,0-0.2,0.2-0.1,0.3c0.3,0.2,0.5,0.2,0.8,0.2c0-0.1,0-0.2,0-0.3c-0.5,0.1-1,0.2-1.6,0.3c0,0.1,0.1,0.2,0.1,0.3
					c0.3-0.1,0.6-0.2,0.9-0.3c0-0.1-0.1-0.2-0.1-0.3c-0.5,0.2-1,0.4-1.6,0.7c-0.2,0.1-0.1,0.4,0.1,0.3c0.4-0.2,0.8-0.4,1.2-0.7
					c0.1-0.1,0-0.3-0.2-0.3c-0.2,0.1-0.3,0.1-0.4,0.2C35.5,74.4,35.6,74.7,35.8,74.7L35.8,74.7z"/>
			</g>
		</g>
	</g>
	<g>
		<g>
			<g>
				<path class="st0" d="M109.1,74.5c0.2,0,0.2-0.3,0-0.3C108.9,74.2,108.9,74.5,109.1,74.5L109.1,74.5z"/>
			</g>
		</g>
	</g>
	<g>
		<g>
			<g>
				<path class="st0" d="M109.2,74.2c-0.8-0.7-1.7-0.9-2.7-0.5c-0.2,0.1-0.2,0.3,0.1,0.3c0.9-0.1,1.7,0,2.5,0.3
					c0-0.1,0.1-0.2,0.1-0.3c-0.4-0.1-0.7-0.1-1.1-0.2c0,0.1,0,0.2-0.1,0.3c0.8,0.1,1.4,0.3,2.1,0.7c0.1-0.1,0.1-0.2,0.2-0.3
					c-1.9-1.1-4.3-0.9-6,0.5c-0.2,0.1,0.1,0.4,0.2,0.3c1-0.6,2-1.1,3.1-1.4c0.2-0.1,0.2-0.3-0.1-0.3c-1.5,0.1-2.7,0.7-3.8,1.7
					c0.1,0.1,0.2,0.1,0.3,0.2c0.6-1.2,1.7-2.1,3.1-2.4c0.2,0,0.1-0.3-0.1-0.3c-1.9,0.2-2.9,1.7-3.7,3.3c-0.1,0.2,0.2,0.3,0.3,0.2
					c0.5-0.7,0.9-1.3,1.4-2c-0.1-0.1-0.2-0.1-0.3-0.2c-0.4,0.7-0.9,1.3-1.3,2c-0.1,0.2,0.2,0.3,0.3,0.2c0.6-0.8,1-1.5,1.4-2.4
					c0.1-0.2-0.1-0.3-0.3-0.2c-0.8,0.9-1.4,2-1.9,3.2c-0.1,0.2,0.2,0.3,0.3,0.1c0.5-0.8,0.9-1.7,1.4-2.5c0.1-0.2-0.2-0.3-0.3-0.2
					c-0.2,0.3-0.4,0.5-0.6,0.8c0.1,0.1,0.2,0.1,0.3,0.2c0.5-0.8,1.2-1.4,2.1-1.6c0.2-0.1,0.1-0.4-0.1-0.3c-1,0.3-1.8,0.8-2.3,1.8
					c-0.1,0.2,0.2,0.3,0.3,0.2c0.2-0.3,0.4-0.5,0.6-0.8c-0.1-0.1-0.2-0.1-0.3-0.2c-0.5,0.8-0.9,1.7-1.4,2.5c0.1,0.1,0.2,0.1,0.3,0.1
					c0.4-1.1,1-2.1,1.8-3c-0.1-0.1-0.2-0.1-0.3-0.2c-0.4,0.9-0.8,1.7-1.4,2.4c0.1,0.1,0.2,0.1,0.3,0.2c0.4-0.7,0.9-1.3,1.3-2
					c0.1-0.2-0.2-0.3-0.3-0.2c-0.5,0.7-0.9,1.3-1.4,2c0.1,0.1,0.2,0.1,0.3,0.2c0.7-1.4,1.6-3,3.4-3.1c0-0.1,0-0.2-0.1-0.3
					c-1.5,0.3-2.6,1.2-3.3,2.5c-0.1,0.2,0.1,0.3,0.3,0.2c1-0.9,2.2-1.4,3.6-1.5c0-0.1,0-0.2-0.1-0.3c-1.1,0.3-2.2,0.8-3.2,1.4
					c0.1,0.1,0.1,0.2,0.2,0.3c1.6-1.3,3.8-1.5,5.6-0.4c0.2,0.1,0.3-0.2,0.2-0.3c-0.7-0.4-1.4-0.6-2.2-0.7c-0.2,0-0.2,0.3-0.1,0.3
					c0.4,0.1,0.7,0.1,1.1,0.2c0.2,0,0.3-0.2,0.1-0.3c-0.9-0.4-1.7-0.5-2.6-0.3c0,0.1,0,0.2,0.1,0.3c0.9-0.3,1.7-0.2,2.4,0.4
					C109.1,74.6,109.4,74.4,109.2,74.2L109.2,74.2z"/>
			</g>
		</g>
	</g>
	<g>
		<g>
			<g>
				<path class="st0" d="M48.9,74.1c0.8-1.4,2.6-1.6,3.9-0.8c1.3,0.7,1.9,2.2,1.9,3.6c0,1-0.2,1.4-1.2,1.5c-0.7,0.1-1.5,0-2.2-0.1
					c-1.7-0.3-3.7-1.2-2.6-3.2c0.8-1.5,2.8-1.7,3.9-0.5c0.8,0.9,0.9,2.4-0.6,2.5c-0.7,0.1-1.4,0-2.1-0.2c-0.4-0.1-0.7-0.2-1.1-0.4
					c-0.4-1.1-0.1-1.8,0.8-2c0.6-0.2,1.7,0,2.1,0.6c1.1,1.4-1.1,1.1-1.7,1c-0.6-0.1-1.2-0.4-1.7-0.8c-0.3-0.2-0.7,0.3-0.3,0.6
					c0.8,0.6,1.7,0.9,2.7,1c0.6,0,1.8,0,2-0.7c0.6-1.4-1.9-2.4-2.9-2.3c-1.3,0.1-2.9,1.7-1.7,3c1,1,4,1.4,5.2,0.6
					c1.4-1,0-3.3-1.2-3.9c-1.5-0.8-3.2-0.2-4,1.3c-0.9,1.6-0.3,3.3,1.4,3.8c1.2,0.4,2.5,0.5,3.7,0.5c0.7,0,1.4,0,1.8-0.6
					c1-1.7-0.1-4.5-1.6-5.5c-1.7-1.2-4-0.9-5.1,0.8C48.1,74.1,48.7,74.4,48.9,74.1L48.9,74.1z"/>
			</g>
		</g>
	</g>
	<g>
		<g>
			<g>
				<path class="st0" d="M54.6,75c0.1,0,0.1,0,0.2,0c0.4,0,0.4-0.6,0-0.6c-0.1,0-0.1,0-0.2,0C54.2,74.4,54.2,75,54.6,75L54.6,75z"/>
			</g>
		</g>
	</g>
	<g>
		<g>
			<g>
				<path class="st0" d="M47.9,74.9C46.3,75,44.6,75,43,75.1c-0.4,0-0.4,0.7,0,0.6c1.7-0.1,3.3-0.1,4.9-0.2
					C48.3,75.5,48.3,74.9,47.9,74.9L47.9,74.9z"/>
			</g>
		</g>
	</g>
	<g>
		<g>
			<g>
				<path class="st0" d="M47.3,75.8c-0.5,0.1-0.9,0.2-1.4,0.4c-0.4,0.1-0.2,0.7,0.2,0.6c0.5-0.1,0.9-0.2,1.4-0.4
					C47.9,76.3,47.7,75.7,47.3,75.8L47.3,75.8z"/>
			</g>
		</g>
	</g>
	<g>
		<g>
			<g>
				<path class="st0" d="M54.8,76.4c1.5,0.5,3.1,0.8,4.7,0.8c0.4,0,0.4-0.6,0-0.6c-1.5-0.1-3-0.4-4.5-0.8
					C54.6,75.7,54.4,76.3,54.8,76.4L54.8,76.4z"/>
			</g>
		</g>
	</g>
	<g>
		<g>
			<g>
				<path class="st0" d="M36.3,120.1c0.3-5.4,1-10.7,2.1-15.9c0.1-0.4-0.5-0.6-0.6-0.2c-1.1,5.3-1.8,10.7-2.1,16.1
					C35.6,120.5,36.3,120.5,36.3,120.1L36.3,120.1z"/>
			</g>
		</g>
	</g>
	<g>
		<g>
			<g>
				<path class="st0" d="M38.8,119.5c0-2.9,0.2-5.7,0.7-8.5c0.1-0.4-0.5-0.6-0.6-0.2c-0.5,2.9-0.8,5.8-0.8,8.7
					C38.2,120,38.8,120,38.8,119.5L38.8,119.5z"/>
			</g>
		</g>
	</g>
	<g>
		<g>
			<g>
				<path class="st0" d="M98,119.9c0.3-3.6,0.8-7.1,1.4-10.6c0.1-0.4-0.5-0.6-0.6-0.2c-0.6,3.6-1.1,7.2-1.4,10.8
					C97.3,120.3,98,120.3,98,119.9L98,119.9z"/>
			</g>
		</g>
	</g>
	<g>
		<g>
			<g>
				<path class="st0" d="M47.9,76.6c0.2,2.5,1,5.6,4.2,5.3c2.9-0.3,3.4-3.6,3.5-6c0-0.2-0.3-0.2-0.3,0c-0.1,2.1-0.3,4.9-2.7,5.6
					c-3.2,0.8-4.1-2.5-4.3-4.9C48.2,76.4,47.9,76.4,47.9,76.6L47.9,76.6z"/>
			</g>
		</g>
	</g>
	<g>
		<g>
			<g>
				<path class="st0" d="M48,77.2c-2.7,6.5-4.3,13.3-5,20.3c-0.7,7.4-0.8,14.9-1.1,22.4c0,0.2,0.3,0.2,0.3,0
					c0.3-7.3,0.5-14.6,1.1-21.9c0.6-7.1,2.3-14.1,5-20.7C48.3,77.1,48,77,48,77.2L48,77.2z"/>
			</g>
		</g>
	</g>
	<g>
		<g>
			<g>
				<path class="st0" d="M103.8,74.1c-2.9,1.8-4,5.2-4.7,8.4c-0.9,4.2-1.1,8.5-1.4,12.7c-0.3,4.6-0.7,9.1-1.6,13.6
					c-0.4,2.2-0.9,4.4-1.4,6.6c-0.4,1.5-1,3.3-0.3,4.8c0.1,0.2,0.4,0,0.3-0.2c-0.6-1.2-0.1-2.6,0.2-3.9c0.2-0.9,0.4-1.9,0.6-2.8
					c0.4-2,0.9-3.9,1.2-5.9c0.7-3.8,1.1-7.5,1.3-11.3c0.3-4.1,0.4-8.2,1.2-12.2c0.6-3.5,1.7-7.5,4.9-9.6
					C104.2,74.3,104,74,103.8,74.1L103.8,74.1z"/>
			</g>
		</g>
	</g>
	<g>
		<g>
			<g>
				<path class="st0" d="M54.6,78.6c4.7,6.6,11.1,12.8,18.6,16.2c3.7,1.7,7.5,2,11.3,0.3c3.8-1.7,6.7-4.6,9.3-7.8
					c3.3-4.2,6.5-8.5,9.7-12.8c0.1-0.2-0.2-0.3-0.3-0.2c-2.7,3.5-5.3,7.1-8,10.6c-2.5,3.4-5.3,6.8-8.9,8.9c-3.7,2.2-7.8,2.6-11.9,1
					c-3.8-1.5-7.3-4-10.5-6.7c-3.4-2.9-6.4-6.2-9-9.8C54.7,78.2,54.5,78.4,54.6,78.6L54.6,78.6z"/>
			</g>
		</g>
	</g>
	<g>
		<g>
			<g>
				<path class="st0" d="M50.9,81.9c-0.4,10.3-0.8,20.6-1.2,31c0,0.2,0.2,0.2,0.3,0.1c0.5-0.9,1.7-0.4,2.3,0.1
					c0.5,0.4,0.8,1.1,1.2,1.6c0.5,0.6,0.9,1.1,1.7,1.3c0.1,0.1,0.2-0.1,0.2-0.2c-1.2-7.8-1.7-15.8-1.3-23.7c0-0.2-0.3-0.2-0.3,0
					c-0.3,6.4-0.1,12.7,0.6,19.1c0.1,0.6,0.2,1.2,0.2,1.8c0,0.2,0.5,2.3,0.4,2.5c-0.6,0.5-1.8-1.9-2.2-2.3c-0.8-0.9-2.4-1.5-3.1-0.3
					c0.1,0,0.2,0.1,0.3,0.1c0.4-10.3,0.8-20.6,1.2-31C51.2,81.7,50.9,81.7,50.9,81.9L50.9,81.9z"/>
			</g>
		</g>
	</g>
	<g>
		<g>
			<g>
				<path class="st0" d="M53.6,81.4c0.3,5.8,0.7,11.6,1,17.4c0.3,5.3,0.2,10.9,1.8,16c0.1-0.1,0.2-0.1,0.3-0.2
					c-0.6-0.6-1.2-1.2-1.8-1.8c-0.2-0.2-0.4,0.1-0.2,0.2c0.6,0.6,1.2,1.2,1.8,1.8c0.1,0.1,0.3,0,0.3-0.2c-1.7-5.2-1.5-11-1.9-16.5
					c-0.3-5.6-0.7-11.3-1-16.9C53.9,81.2,53.6,81.2,53.6,81.4L53.6,81.4z"/>
			</g>
		</g>
	</g>
	<g>
		<g>
			<g>
				<path class="st0" d="M49.4,81.4c-0.7,9.2-1.6,18.4-2.8,27.6c0,0.2,0.2,0.2,0.3,0.1c0.8-0.7,2.1-0.4,2.6,0.5
					c0.1,0.2,0.4,0,0.3-0.2c-0.6-1.1-2.1-1.4-3.1-0.6c0.1,0,0.2,0.1,0.3,0.1c1.2-9.2,2.1-18.4,2.8-27.6
					C49.8,81.2,49.4,81.2,49.4,81.4L49.4,81.4z"/>
			</g>
		</g>
	</g>
	<g>
		<g>
			<g>
				<path class="st0" d="M105,73.8c0.2,0,0.4,0,0.7,0c0.2,0,0.2-0.3,0-0.3c-2,0.1-3.3,2.7-3.8,4.3c-0.8,2.4-0.9,5-0.6,7.5
					c0,0.2,0.3,0.2,0.3,0c-0.2-2-0.2-4,0.2-5.9c0.4-1.8,1.6-5.5,3.9-5.6c0-0.1,0-0.2,0-0.3c-0.2,0-0.4,0-0.7,0
					C104.8,73.5,104.8,73.8,105,73.8L105,73.8z"/>
			</g>
		</g>
	</g>
	<g>
		<g>
			<g>
				<path class="st0" d="M37,73.1c1.6-1.2,3.1,3.4,3.3,4.3c0.4,1.8,0.3,3.7,0.1,5.6c0,0.2,0.3,0.2,0.3,0c0.2-2.5,0.3-5.2-0.8-7.6
					c-0.4-0.9-1.9-3.6-3.2-2.6C36.7,72.9,36.8,73.2,37,73.1L37,73.1z"/>
			</g>
		</g>
	</g>
	<g>
		<g>
			<g>
				<path class="st0" d="M37.4,72.6c1.4-1,2.6,0.5,3.1,1.8c0.3,0.9,0.5,1.9,1,2.7c0.1,0.2,0.4,0,0.3-0.2c-0.7-1.3-0.7-3-1.8-4.1
					c-0.7-0.8-1.9-1.1-2.7-0.5C37.1,72.4,37.3,72.7,37.4,72.6L37.4,72.6z"/>
			</g>
		</g>
	</g>
	<g>
		<g>
			<g>
				<path class="st0" d="M108.8,73.7c-1.3-2.4-4.1-3.1-6.4-1.7c-0.2,0.1,0,0.4,0.2,0.3c2.1-1.4,4.8-0.7,6,1.5
					C108.6,74,108.9,73.9,108.8,73.7L108.8,73.7z"/>
			</g>
		</g>
	</g>
	<g>
		<g>
			<g>
				<path class="st0" d="M108.4,74.2c0.4-1.1,0.1-2.3-0.7-3.1c-1-1-2.4-1.3-3.8-1.4c-0.2,0-0.2,0.3,0,0.3c1.2,0.1,2.5,0.3,3.4,1.1
					c0.8,0.8,1.2,2,0.8,3C108,74.3,108.3,74.4,108.4,74.2L108.4,74.2z"/>
			</g>
		</g>
	</g>
</g>
</svg>
