<?xml version="1.0" encoding="utf-8"?>
<!-- Generator: Adobe Illustrator 24.0.1, SVG Export Plug-In . SVG Version: 6.00 Build 0)  -->
<svg version="1.1" id="Layer_1" xmlns="http://www.w3.org/2000/svg" xmlns:xlink="http://www.w3.org/1999/xlink" x="0px" y="0px"
	 viewBox="0 0 141.7 141.7" style="enable-background:new 0 0 141.7 141.7;" xml:space="preserve">
<style type="text/css">
	.st0{fill:#070707;}
	.st1{fill:none;}
</style>
<g id="Layer_1_1_">
</g>
<g id="Layer_1_2_">
</g>
<g id="Layer_1_3_">
</g>
<g id="Layer_1_4_">
</g>
<g id="Layer_1_5_">
</g>
<g id="Layer_3">
</g>
<g id="Layer_3_1_">
</g>
<g id="Layer_1_6_">
</g>
<g id="Layer_1_7_">
</g>
<g id="Layer_1_8_">
</g>
<g id="Layer_1_9_">
</g>
<g id="Layer_1_10_">
</g>
<g id="Layer_1_11_">
</g>
<g id="Layer_1_12_">
</g>
<g id="Layer_1_13_">
</g>
<g id="Layer_1_14_">
</g>
<g id="Layer_1_15_">
</g>
<g id="Layer_1_16_">
</g>
<g id="Layer_1_17_">
</g>
<g id="Layer_1_18_">
</g>
<g id="Layer_1_19_">
</g>
<g id="Layer_1_20_">
</g>
<g id="Layer_2_1_">
</g>
<g id="Layer_3_2_">
	<g>
		<path class="st0" d="M22.3,94.4c2,10,7.4,19.2,15.6,25.3c0.4,0.3,0.7-0.3,0.4-0.6c-8.1-6-13.4-15-15.3-24.9
			C22.9,93.7,22.2,93.9,22.3,94.4L22.3,94.4z"/>
	</g>
	<g>
		<path class="st0" d="M85.1,42.3c-4.2-7.6-13.2-10.8-21.6-10.4c-2.9,0.1-5.8,0.5-8.7,0.8c-2.7,0.3-5.5,0.5-8.1,1.4
			c-4.5,1.5-8.2,4.6-10.7,8.6c-1.6,2.6-2.6,5.4-3.6,8.2c-1.1,3.2-2.2,6.4-3.6,9.6c-0.2,0.4,0.5,0.6,0.7,0.2c1.1-2.5,2-5,2.9-7.6
			c0.9-2.5,1.6-5.1,2.8-7.5c2-4.3,5.3-7.9,9.7-10c2.6-1.2,5.3-1.7,8.1-2c2.8-0.3,5.5-0.6,8.3-0.8c4.1-0.4,8.2-0.1,12.1,1.1
			c4.6,1.5,8.7,4.5,11.1,8.8C84.8,43,85.4,42.7,85.1,42.3L85.1,42.3z"/>
	</g>
	<g>
		<path class="st0" d="M44.3,123c4.9,3,11.2,3,16.7,2.5c2.9-0.3,5.7-0.7,8.5-1.2c3-0.5,6.2-0.8,8.8-2.4c0.4-0.3,0-0.9-0.4-0.6
			c-2.5,1.6-5.8,1.8-8.7,2.3c-2.8,0.5-5.5,0.9-8.4,1.1c-5.4,0.5-11.5,0.5-16.4-2.4C44.3,122.1,43.9,122.8,44.3,123L44.3,123z"/>
	</g>
	<g>
		<path class="st0" d="M51,33.8c0.5,0,0.5-0.7,0-0.7C50.5,33.1,50.5,33.8,51,33.8L51,33.8z"/>
	</g>
	<g>
		<path class="st0" d="M32.9,49.6c-4.4-0.4-7-5.1-4.2-8.8c1.1-1.4,2.7-2.4,4.5-2.8c1.8-0.3,4.2-0.3,5.5,1.2c0.3,0.3,0.8-0.2,0.5-0.5
			c-1.4-1.6-4-1.8-6-1.4C31,37.7,29,39,27.8,40.9c-2.7,4.2,0.4,9,5.1,9.4C33.4,50.3,33.4,49.6,32.9,49.6L32.9,49.6z"/>
	</g>
	<g>
		<path class="st0" d="M81.1,37.8c3-1.6,7.9-2.4,10.1,0.9c2.2,3.4,0.9,8.7-3.4,9.5C87.4,48.4,87.6,49,88,49c4.7-0.9,6.2-6.4,4-10.2
			c-2.3-4-7.7-3.3-11.3-1.5C80.4,37.4,80.7,38,81.1,37.8L81.1,37.8z"/>
	</g>
	<g>
		<path class="st0" d="M56.6,54.7c0.1,0,0.2,0,0.3,0c0-0.1,0-0.2-0.1-0.3c-1.1,0.5-2,0.9-2.9,1.8c-0.7,0.7-1.4,1.7-1.2,2.7
			c0.3,1.1,1.6,1.7,2.6,1.9c2,0.4,4-1,6-0.9c2,0,6.1,2.4,6.5-1.3c0.3-2.6-3-4-4.9-4.7c-0.2-0.1-0.3,0.3-0.1,0.3
			c1.8,0.7,4.9,2,4.6,4.3c-0.4,3.3-4.2,1-6.1,1c-1.1,0-2.1,0.3-3.1,0.6c-1.5,0.4-4,0.8-4.9-0.9c-1.1-2,2.2-3.9,3.6-4.5
			c0.2-0.1,0.2-0.3-0.1-0.3c-0.1,0-0.2,0-0.3,0.1C56.3,54.4,56.4,54.8,56.6,54.7L56.6,54.7z"/>
	</g>
	<g>
		<path class="st0" d="M63.7,60.4c0.5,1.2,0.7,2.6,0.3,3.9c-0.3,1-1.2,1.7-2.2,1.4c-0.7-0.2-0.9-0.9-1.2-1.5c-0.1-0.2-0.4,0-0.3,0.2
			c0.3,0.6,0.5,1.4,1.2,1.6c0.6,0.3,1.4,0.1,2-0.3c1.6-1.1,1.1-4,0.5-5.5C64,60.1,63.7,60.2,63.7,60.4L63.7,60.4z"/>
	</g>
	<g>
		<path class="st0" d="M39,119.4c2.6-1.3,4,2,5.8,3.2c0-0.1,0-0.2,0-0.3c-1.4,0.2-2.6,1.1-3.7,2c-1.2,0.9-2.8,2.4-4.5,1.9
			c-1.1-0.3-2-1.5-1.8-2.7c0.2-0.8,0.8-1.5,1.4-2c1.1-1,2.3-1.7,3.6-2.4c0.2-0.1,0-0.4-0.2-0.3c-2,1.1-7,4-4.5,6.8
			c3.1,3.4,6.7-2.4,9.7-2.9c0.2,0,0.1-0.3,0-0.3c-2-1.4-3.3-4.7-6.1-3.2C38.6,119.2,38.8,119.5,39,119.4L39,119.4z"/>
	</g>
	<g>
		<path class="st0" d="M36,125.7c-0.4-1.5,0.7-2.7,2-3.4c0.2-0.1,0-0.4-0.2-0.3c-1.4,0.7-2.6,2.1-2.1,3.8
			C35.7,126,36,125.9,36,125.7L36,125.7z"/>
	</g>
	<g>
		<path class="st0" d="M83.2,125.6c-1.4-0.9-2.3-2.3-3.5-3.4c-2.3-2.1,1.9-4.1,3.7-3.6c1.7,0.4,3,2.1,3.5,3.8
			c0.3,1.1,0.5,2.3-0.4,3.2C85.6,126.3,84.3,126.1,83.2,125.6c-0.2-0.1-0.4,0.2-0.2,0.3c1.8,0.9,4.2,0.7,4.5-1.7
			c0.3-2.2-1.4-4.9-3.4-5.8c-1.1-0.5-2.2-0.4-3.3,0.1c-0.9,0.4-2.3,1.3-2.5,2.3c-0.2,0.9,0.9,1.3,1.4,1.9c1.1,1.1,1.9,2.3,3.3,3.2
			C83.2,126,83.4,125.7,83.2,125.6z"/>
	</g>
	<g>
		<path class="st0" d="M84,122.1c1,1,1.8,2.3,1.8,3.8c0,0.2,0.4,0.2,0.3,0c-0.1-1.6-0.9-3-1.9-4C84.1,121.7,83.9,122,84,122.1
			L84,122.1z"/>
	</g>
	<g>
		<path class="st0" d="M81.7,81.4c0.6-0.2,1.3,0,1.9-0.1c0.9-0.1,1.9-0.4,2.7-0.9c1.2-0.7,2.1-2,2-3.5c-0.1-1.1-0.9-1.7-2-1.7
			c-1.8,0-3.3,1.2-4.6,2.4c-0.2,0.1,0.1,0.4,0.3,0.3c1-0.9,2.1-1.8,3.4-2.1c0.8-0.2,1.8-0.2,2.3,0.6c0.4,0.7,0.2,1.7-0.1,2.3
			c-0.7,1.2-2,1.9-3.3,2.2c-0.9,0.2-1.9-0.1-2.7,0.2C81.4,81.1,81.5,81.5,81.7,81.4L81.7,81.4z"/>
	</g>
	<g>
		<path class="st0" d="M85.3,77.9c1.1-0.3,2.6-1.3,1.8-2.6c-0.1-0.2-0.4,0-0.3,0.2c0.6,1.1-0.7,1.8-1.6,2.1C85,77.6,85,78,85.3,77.9
			L85.3,77.9z"/>
	</g>
	<g>
		<path class="st0" d="M71.3,54.6c-5,0-9.1-4.1-9.1-9.1s4.1-9.1,9.1-9.1s9.1,4.1,9.1,9.1S76.3,54.6,71.3,54.6z M71.3,36.9
			c-4.8,0-8.7,3.9-8.7,8.7c0,4.8,3.9,8.7,8.7,8.7c4.8,0,8.7-3.9,8.7-8.7C80,40.8,76.1,36.9,71.3,36.9z"/>
	</g>
	<g>
		<path class="st0" d="M49,55.5c-5,0-9.1-4.1-9.1-9.1s4.1-9.1,9.1-9.1s9.1,4.1,9.1,9.1C58.1,51.4,54,55.5,49,55.5z M49,37.8
			c-4.8,0-8.7,3.9-8.7,8.7c0,4.8,3.9,8.7,8.7,8.7c4.8,0,8.7-3.9,8.7-8.7C57.6,41.7,53.8,37.8,49,37.8z"/>
	</g>
	<g>
		<path class="st0" d="M88.2,42c0-1-0.9-1.9-1.9-1.9S84.5,41,84.5,42s0.8,1.9,1.9,1.9C87.4,43.9,88.2,43,88.2,42z"/>
	</g>
	<g>
		<circle class="st0" cx="33.8" cy="43.7" r="1.9"/>
	</g>
	<g>
		<path class="st0" d="M64.2,53.7c0-1.2-1.8-2.2-4-2.2s-4,1-4,2.2c0,1.2,1.8,2.2,4,2.2C62.4,55.9,64.2,54.9,64.2,53.7z"/>
	</g>
	<g>
		<path class="st0" d="M71.1,48.8c1.6,0.1,3-1.2,3-2.8s-1.2-3-2.8-3c-1.6-0.1-3,1.2-3,2.8C68.3,47.4,69.5,48.7,71.1,48.8z M70.1,44
			c0.5,0,0.8,0.4,0.8,0.9c0,0.5-0.4,0.8-0.9,0.8c-0.5,0-0.8-0.4-0.8-0.9C69.3,44.4,69.7,44,70.1,44z"/>
	</g>
	<g>
		<path class="st0" d="M48.9,49.6c1.6,0.1,3-1.2,3-2.8c0.1-1.6-1.2-3-2.8-3c-1.6-0.1-3,1.2-3,2.8C46,48.2,47.3,49.6,48.9,49.6z
			 M47.9,44.8c0.5,0,0.8,0.4,0.8,0.9c0,0.5-0.4,0.8-0.9,0.8c-0.5,0-0.8-0.4-0.8-0.9C47.1,45.2,47.5,44.8,47.9,44.8z"/>
	</g>
	<g>
		<path class="st0" d="M60.4,59.8c0.2,1.1,0.1,2.4,0.1,3.5c-0.1,0.7-0.2,1.4-0.6,2c-0.6,0.7-1.7,0.8-2.4,0.1
			c-1.1-1.1-0.8-3.5-0.4-4.9c0.1-0.2-0.3-0.3-0.3-0.1c-0.5,1.6-0.9,5.1,1.3,5.7c3.2,0.9,3-4.8,2.7-6.5
			C60.7,59.5,60.4,59.6,60.4,59.8L60.4,59.8z"/>
	</g>
	<g>
		<path class="st0" d="M52.2,82.9c2.1,0.9,4.7,0.3,6.6-0.9c1.4-0.9,2.3-2.3,0.9-3.6c-0.2-0.1-0.4,0.1-0.3,0.3
			c0.7,0.6,0.7,1.6,0.1,2.2c-0.2,0.3-0.5,0.5-0.8,0.7c-0.6,0.4-1.3,0.7-2,0.9c-1.5,0.5-3,0.6-4.5,0C52.1,82.4,52,82.8,52.2,82.9
			L52.2,82.9z"/>
	</g>
	<g>
		<path class="st0" d="M57.6,79.7c0.7-0.2,1.8-0.6,1.9-1.5c0.1-0.8-0.7-1.4-1.3-1.6c-1.8-0.5-4.1,1-5.4,2.2
			c-0.2,0.1,0.1,0.4,0.3,0.3c0.9-0.8,2.1-1.5,3.2-1.9c0.6-0.2,1.2-0.3,1.8-0.2c0.3,0.1,0.6,0.3,0.9,0.5c0,0.4,0,0.8,0,1.2
			c-0.2,0.4-1,0.6-1.4,0.7C57.3,79.5,57.4,79.8,57.6,79.7L57.6,79.7z"/>
	</g>
	<g>
		<path class="st0" d="M85.7,104c0.8,4.9,0.7,9.9-1.8,14.3c-0.2,0.4,0.4,0.7,0.6,0.4c2.7-4.5,2.8-9.8,1.9-14.8
			C86.3,103.3,85.6,103.5,85.7,104L85.7,104z"/>
	</g>
	<g>
		<path class="st0" d="M84.1,41.6c4.4,6.4,4.9,13.9,2.5,21.1c-2.3,7-6,13.4-5.5,21.1c0,0.5,0.7,0.5,0.7,0c-0.5-8.3,4-15.1,6.1-22.8
			c1.9-6.8,0.9-13.9-3.1-19.8C84.4,40.9,83.8,41.3,84.1,41.6L84.1,41.6z"/>
	</g>
	<g>
		<path class="st0" d="M78.3,121.7c0.1,0,0.1,0,0.1,0c0.2,0,0.2-0.3,0-0.3h0c-0.1,0-0.1,0-0.1,0.1c0,0-0.1,0,0,0
			c0.1,0.1,0.1,0.1,0.2,0.2c0-0.1,0-0.1,0.1-0.2C78.5,121.5,78.4,121.6,78.3,121.7c0,0,0.1,0,0.1,0.1c0.2,0.2,0.4-0.1,0.3-0.3
			c-0.1-0.1-0.1-0.1-0.2-0.2c-0.1-0.1-0.3-0.1-0.3,0.1c0,0.1,0,0.1-0.1,0.2c-0.1,0.1,0.1,0.3,0.2,0.2c0.1,0,0.2-0.1,0.2-0.2
			c-0.1,0-0.1,0.1-0.1,0.1h0c0.2,0,0.2-0.3,0-0.3c-0.1,0-0.1,0-0.1,0C78,121.3,78,121.7,78.3,121.7L78.3,121.7z"/>
	</g>
	<g>
		<path class="st0" d="M59.3,79c0.9,1.3,2.6,1.8,4,2.4c1.8,0.8,3.6,1.5,5.5,2.1c3.6,1.2,7.4,1.9,11.2,1.3c2.8-0.5,5.8-1.8,7.5-4.1
			c1.1-1.6,1.9-4.5-0.4-5.4c-0.4-0.2-0.6,0.5-0.2,0.7c1.5,0.6,1,2.6,0.4,3.7c-0.6,1.1-1.6,2.1-2.7,2.8c-2.3,1.5-5.1,2-7.8,1.9
			c-2.9-0.1-5.8-0.8-8.6-1.7c-1.5-0.5-2.9-1.1-4.4-1.7c-1.3-0.5-3.2-1.1-4-2.3C59.7,78.2,59.1,78.6,59.3,79L59.3,79z"/>
	</g>
	<g>
		<path class="st0" d="M57.8,82.4c1.8,7.8,1.8,15.9,0,23.8c-0.1,0.3,0.2,0.5,0.4,0.4c11-4,23.6-5.8,34.5-0.6
			c2.4,1.2,4.7,2.6,6.7,4.4c1.8,1.6,3.2,3.6,5,5.2c1.5,1.3,3.4,2.3,5.4,2.1c2.4-0.3,4.3-1.9,5.8-3.7c1.8-2.3,3.3-4.9,5.4-7
			c2.2-2.2,5-3.8,8.2-4c0.4,0,0.5-0.6,0.1-0.7c-4-1.3-8.1-2.5-11.9-4.4c-3.8-1.9-7-4.5-9.8-7.7c-2.6-3-4.9-6.2-8.2-8.5
			c-3.7-2.6-8-4.2-12.1-6.1c-0.4-0.2-0.8,0.4-0.4,0.6c4.3,2,9.1,3.6,12.8,6.6c3.2,2.5,5.5,5.9,8.3,9c5.6,6.2,13.3,8.8,21.1,11.3
			c0-0.2,0.1-0.5,0.1-0.7c-4.7,0.2-8.4,3.4-11.1,6.9c-1.8,2.4-3.3,5.3-6,6.9c-2.9,1.7-5.7,0.6-7.9-1.6c-1.8-1.7-3.2-3.7-5.1-5.3
			c-1.9-1.6-4-3-6.3-4c-4.6-2.2-9.7-3.2-14.9-3.3c-6.9-0.1-13.6,1.5-20,3.9c0.1,0.1,0.3,0.3,0.4,0.4c1.8-8,1.8-16.2,0-24.2
			C58.3,81.8,57.7,82,57.8,82.4L57.8,82.4z"/>
	</g>
	<g>
		<path class="st0" d="M56.6,76.9c0.2,0,0.2-0.3,0-0.3S56.4,76.9,56.6,76.9L56.6,76.9z"/>
	</g>
	<g>
		<path class="st0" d="M29.5,58.7c1.6,7.6,9.7,11.5,16.5,13.5c8.8,2.6,18.2,2.8,27.1,0.6c4.5-1.1,9.2-2.7,12.5-6.1
			c0.2-0.2-0.1-0.4-0.3-0.3c-3.6,3.9-9.3,5.4-14.3,6.5c-5.4,1.1-11,1.3-16.5,0.7c-5.3-0.7-10.8-2.1-15.6-4.6c-4.2-2.2-8-5.6-9-10.4
			C29.8,58.4,29.5,58.5,29.5,58.7L29.5,58.7z"/>
	</g>
	<g>
		<path class="st0" d="M32.2,52.1c0.2,0,0.2-0.3,0-0.3C32,51.8,32,52.1,32.2,52.1L32.2,52.1z"/>
	</g>
	<g>
		<path class="st0" d="M25.7,38c9.6-0.8,19.2-1.5,28.8-1.6c9.4-0.1,18.9,1,28.3,0.1c5.2-0.5,10.4-1.4,15.5-2.3
			c0.2,0,0.1-0.4-0.1-0.3c-4.8,0.9-9.5,1.7-14.4,2.2c-4.6,0.5-9.2,0.5-13.8,0.3c-9.5-0.3-18.8-0.4-28.3,0.1
			c-5.4,0.3-10.7,0.7-16.1,1.2C25.5,37.7,25.5,38,25.7,38L25.7,38z"/>
	</g>
	<g>
		<path class="st0" d="M45.2,23.7C48.3,19,54,17.1,59.3,16c5.9-1.2,13.6-0.9,16.7,5.3c0.1,0.2,0.4,0,0.3-0.2c-2.9-6-10.2-6.7-16-5.7
			c-5.7,1-12,3-15.3,8.1C44.8,23.7,45.1,23.9,45.2,23.7L45.2,23.7z"/>
	</g>
	<g>
		<path class="st0" d="M55.7,82.7c-2.6,4-3.2,9-1.4,13.3c0.1-0.1,0.2-0.3,0.3-0.5c-9.6,0.4-19.3,0.8-28.7-1c-2.3-0.5-4.6-1-6.9-1.8
			c-1-0.3-2.9-0.7-3.6-1.4c-1.3-1.1-0.4-2.5,0.1-3.9c1.8-4.6,3.8-9.2,6.1-13.6c2.5-4.8,5.3-9.5,8.4-13.9c0.3-0.4-0.4-0.7-0.6-0.4
			c-5.9,8.6-10.8,17.9-14.5,27.7c-0.6,1.5-1.8,3.5,0,4.6c2,1.2,4.6,1.8,6.9,2.4c4.9,1.3,9.9,1.9,14.9,2.2c6,0.3,12,0.1,18-0.2
			c0.2,0,0.4-0.2,0.3-0.5c-1.7-4.2-1.2-9,1.3-12.8C56.5,82.7,55.9,82.3,55.7,82.7L55.7,82.7z"/>
	</g>
	<g>
		<path class="st0" d="M25.3,103.1c18.1,8.5,39.6,8.5,57.7,0.1c0.2-0.1,0-0.4-0.2-0.3c-18,8.4-39.4,8.4-57.4-0.1
			C25.2,102.7,25.1,103.1,25.3,103.1L25.3,103.1z"/>
	</g>
	<g>
		<path class="st0" d="M84.4,68.4c-2.7,4.5-7.1,7.7-12.3,8.8c-0.1,0-0.2,0.2-0.1,0.3c1.1,1.2,1.5,2.7,1.5,4.3c0,0.7-0.5,1.9-0.1,2.5
			c0.1,0.1,0.2,0.1,0.3,0c0,0,0.1-0.1,0.1-0.1c0.1-0.1,0.1-0.2,0-0.3c0,0-0.1-0.1-0.1-0.1c-0.1-0.2-0.4,0.1-0.3,0.3
			c0.1,0.1,0.3-1.5,0.3-1.5c0-0.6,0.1-1.1,0-1.7c-0.1-0.7-0.2-1.4-0.5-2.1c-0.1-0.2-0.8-1.3-0.8-1.4c0.1-0.2,0.6-0.3,0.9-0.3
			c0.8-0.2,1.6-0.5,2.4-0.9c3.7-1.6,6.8-4.4,8.8-7.8C84.8,68.4,84.5,68.2,84.4,68.4L84.4,68.4z"/>
	</g>
	<g>
		<path class="st0" d="M29.3,59.5c0.8,6.4,6,11,11.7,13.3C44.9,74.3,49,75,53,75.6c2,0.3,4,0.6,6.1,0.9c0.4,0.1,2.8,0.2,3,0.5
			c0.1,0.3-1.6,2.1-1.8,2.4c-0.1,0.2,0.1,0.4,0.3,0.3c0.7-0.9,1.5-1.8,2.2-2.7c0.1-0.1,0.1-0.3-0.1-0.3c-6.8-1-14-1.5-20.5-3.8
			c-5.9-2.1-11.6-6.7-12.4-13.3C29.6,59.3,29.3,59.3,29.3,59.5L29.3,59.5z"/>
	</g>
	<g>
		<path class="st0" d="M66.8,74c-1.3,0.1-2.1,1.3-1.6,2.5c0.6,1.3,2.1,1.6,3.4,1.1c1.1-0.4,2.2-1.6,1.5-2.8c-0.9-1.4-2.9-1.5-4.3-1
			c-0.2,0.1-0.1,0.4,0.1,0.3c0.9-0.3,1.8-0.4,2.7-0.1c0.7,0.3,1.6,0.8,1.4,1.7c-0.1,0.5-0.6,0.9-1,1.2c-0.8,0.5-1.7,0.7-2.6,0.2
			c-1.3-0.7-1.3-2.8,0.4-2.9C67,74.4,67,74,66.8,74L66.8,74z"/>
	</g>
	<g>
		<path class="st0" d="M66.8,77.9c-0.7,1.2-1.5,2.3-2.2,3.5c-0.1,0.2,0.2,0.4,0.3,0.2c0.7-1.2,1.5-2.3,2.2-3.5
			C67.2,77.9,66.9,77.7,66.8,77.9L66.8,77.9z"/>
	</g>
	<g>
		<path class="st0" d="M68.4,77.8c0.7,2,1.3,3.9,2,5.9c0.1,0.2,0.4,0.1,0.3-0.1c-0.7-2-1.3-3.9-2-5.9C68.6,77.5,68.3,77.6,68.4,77.8
			L68.4,77.8z"/>
	</g>
	<g>
		<path class="st0" d="M67.2,103.9c0.1,1.3,0.1,2.6,0.2,4c0,0.2,0.4,0.2,0.3,0c-0.1-1.3-0.1-2.6-0.2-4
			C67.5,103.7,67.2,103.7,67.2,103.9L67.2,103.9z"/>
	</g>
	<g>
		<path class="st0" d="M44.5,123.1c4.6-4.2,10.4-7,16.6-8.1c5.3-0.9,16.1-1.3,16.7,6.3c0,0.2,0.4,0.2,0.3,0
			c-0.6-7.2-10-7.4-15.3-6.9c-6.9,0.8-13.5,3.8-18.6,8.4C44.1,123,44.4,123.2,44.5,123.1L44.5,123.1z"/>
	</g>
	<g>
		<path class="st0" d="M59.8,59.1c0.6-0.1,1-0.7,0.7-1.3c-0.4-1-2.1-0.9-2.9-0.8c-2.1,0.3-4,1.4-6.2,1.4c-2.2,0-4.3-0.6-6.1-1.8
			c-0.2-0.1-0.4,0.1-0.2,0.3c4,4.1,10.1,4.1,15,1.7c0.2-0.1,0-0.4-0.2-0.3c-4.8,2.3-10.6,2.3-14.6-1.7c-0.1,0.1-0.1,0.2-0.2,0.3
			c2,1.2,4.2,1.9,6.6,1.8c1.1,0,2.2-0.3,3.3-0.6c0.7-0.2,1.3-0.5,2-0.6c0.5-0.1,1-0.2,1.4-0.2c0.3,0,0.5,0,0.8,0.1
			c0.8,0,0.9,0.5,0.5,1.4C59.5,58.8,59.6,59.2,59.8,59.1L59.8,59.1z"/>
	</g>
	<g>
		<path class="st0" d="M59.7,58.7c-1.5,0.9-3.2,1.1-4.9,0.6c-0.2-0.1-0.3,0.3-0.1,0.3c1.8,0.5,3.6,0.3,5.1-0.7
			C60.1,58.9,59.9,58.5,59.7,58.7L59.7,58.7z"/>
	</g>
	<g>
		<path class="st0" d="M61.4,58.6c0.2-1,0.7-1.4,1.4-1.2c0.5,0.1,1.1,0.1,1.6,0.2c0.7,0.1,1.4,0.2,2.2,0.3c1.2,0.2,2.4,0.3,3.6,0.3
			c2-0.1,3.8-0.6,5.3-1.9c-0.1-0.1-0.2-0.1-0.3-0.2c-1.6,2.1-4,3.4-6.7,3.5c-1.3,0-2.4-0.3-3.6-0.6c-0.5-0.1-1-0.2-1.4-0.2
			c-0.3,0-0.6,0-0.9,0.1c-0.7,0.2-1.1-0.2-1.3-1.1c0.2-0.1,0-0.4-0.2-0.3c-0.7,0.4-0.5,1.3,0.1,1.7c0.7,0.4,1.6,0,2.3,0.1
			c1.3,0,2.4,0.6,3.6,0.7c3.3,0.5,6.5-1,8.5-3.6c0.1-0.2-0.1-0.3-0.3-0.2c-3.3,2.7-7.5,1.6-11.3,1.1c-0.8-0.1-2.4-0.5-3,0.4
			c-0.3,0.5-0.2,1,0.3,1.3C61.4,59,61.6,58.7,61.4,58.6L61.4,58.6z"/>
	</g>
	<g>
		<path class="st0" d="M46.1,57.8c3.3,1.6,7,2,10.7,1.2c0.2-0.1,0.1-0.4-0.1-0.3c-1.3,0.1-2.6,0.2-4,0.3c0,0.1,0,0.2,0.1,0.3
			c1.9-0.3,3.8-0.7,5.7-1.1c0.2,0,0.1-0.4-0.1-0.3c-1.4,0.2-2.8,0.4-4.3,0.6c0,0.1,0.1,0.2,0.1,0.3c1.4-0.3,2.7-0.7,4.1-1
			c0.2-0.1,0.1-0.4-0.1-0.3c-1.3,0.1-2.5,0.3-3.8,0.7c-0.2,0.1-0.1,0.4,0.1,0.3c1.1-0.3,2.2-0.5,3.3-0.7c0.2,0,0.1-0.4-0.1-0.3
			c-0.7,0.1-1.5,0.2-2.2,0.4c-0.2,0.1-0.1,0.4,0.1,0.3c0.9-0.2,1.8-0.3,2.7-0.5c0.2-0.1,0.1-0.4-0.1-0.3c-0.6,0.1-1.2,0.2-1.8,0.3
			c0,0.1,0,0.2,0.1,0.3c0.7-0.2,1.4-0.3,2.2-0.4c0-0.1,0-0.2-0.1-0.3c-0.4,0.2-0.9,0.3-1.4,0.4c0,0.1,0,0.2,0.1,0.3
			c0.5-0.3,1.1-0.3,1.6,0c0-0.1,0-0.2,0-0.3c-0.4,0.3-0.8,0.4-1.3,0.3c0,0.1,0,0.2,0.1,0.3c0.5-0.2,1.1-0.3,1.6-0.3
			c0-0.1,0-0.2-0.1-0.3c-0.4,0.2-0.9,0.2-1.4,0.1c0,0.1,0,0.2,0,0.3c0.5-0.3,1-0.3,1.5-0.2c0-0.1,0-0.2,0-0.3
			c-0.3,0-0.6,0.1-0.8,0.1c0,0.1,0.1,0.2,0.1,0.3c0.3-0.1,0.5-0.1,0.8-0.2c0-0.1-0.1-0.2-0.1-0.3c-0.2,0.1-0.3,0.2-0.5,0.3
			C58.7,57.7,58.8,58,59,58c0.2,0,0.4,0,0.6-0.1c0-0.1-0.1-0.2-0.1-0.3c-0.2,0.1-0.4,0.2-0.6,0.3c0.1,0.1,0.1,0.2,0.2,0.3
			c-0.1,0-0.2,0-0.3,0c0,0.1,0.1,0.2,0.1,0.3c0.2-0.1,0.4-0.1,0.6-0.2c0-0.1-0.1-0.2-0.1-0.3c-0.7,0.4-1.4,0.6-2.2,0.7
			c0,0.1,0.1,0.2,0.1,0.3c0.5-0.2,1.1-0.4,1.6-0.7c0.2-0.1,0.1-0.4-0.1-0.3c-0.9,0.2-1.7,0.4-2.6,0.5c0.1,0.1,0.1,0.2,0.1,0.3
			c0.7-0.3,1.3-0.5,2-0.7c0.2-0.1,0.1-0.4-0.1-0.3c-1,0.3-2,0.5-2.9,0.8c0,0.1,0.1,0.2,0.1,0.3c1.2-0.3,2.4-0.7,3.5-1
			c0-0.1-0.1-0.2-0.1-0.3c-1,0.3-2,0.6-3,0.7c0,0.1,0.1,0.2,0.1,0.3c0.9-0.2,1.7-0.4,2.6-0.5c0-0.1-0.1-0.2-0.1-0.3
			c-0.6,0.2-1.3,0.5-1.9,0.7c-0.2,0.1-0.1,0.4,0.1,0.3c0.8-0.1,1.6-0.3,2.4-0.4c0-0.1-0.1-0.2-0.1-0.3c-0.8,0.3-1.5,0.6-2.4,0.8
			c0,0.1,0.1,0.2,0.1,0.3c0.8-0.3,1.6-0.4,2.4-0.5c0-0.1-0.1-0.2-0.1-0.3c-0.9,0.3-1.7,0.5-2.6,0.7c0,0.1,0.1,0.2,0.1,0.3
			c0.8-0.2,1.6-0.4,2.4-0.5c0-0.1-0.1-0.2-0.1-0.3c-0.2,0-0.4,0.1-0.6,0.1c0,0.1,0,0.2,0.1,0.3c0.5-0.1,0.9-0.2,1.3-0.3
			c0-0.1-0.1-0.2-0.1-0.3c-0.2,0.1-0.5,0.2-0.7,0.3c0.1,0.1,0.1,0.2,0.2,0.3c0.2-0.1,0.3-0.3,0.5-0.4c0.2-0.1,0.1-0.4-0.1-0.3
			c-1.4,0.6-2.9,0.9-4.4,1.1c0,0.1,0,0.2,0.1,0.3c0.7-0.1,1.3-0.2,2-0.3c0-0.1-0.1-0.2-0.1-0.3c-1.1,0.2-2.2,0.3-3.3,0.5
			c0,0.1,0,0.2,0.1,0.3c1-0.2,2-0.3,3-0.3c0-0.1,0-0.2-0.1-0.3c-0.9,0.1-1.7,0.2-2.6,0.3c0,0.1,0,0.2,0.1,0.3c0.7-0.1,1.3-0.2,2-0.2
			c0-0.1,0-0.2-0.1-0.3c-0.6,0.1-1.2,0.3-1.9,0.3c0,0.1,0.1,0.2,0.1,0.3c0.4-0.1,0.9-0.1,1.3-0.2c0-0.1-0.1-0.2-0.1-0.3
			c-0.4,0.1-0.8,0.2-1.2,0.2c0,0.1,0,0.2,0.1,0.3c0.2,0,0.5-0.1,0.7-0.1c0-0.1,0-0.2-0.1-0.3c-0.8,0.2-1.4,0.2-2.1,0
			c0,0.1,0,0.2-0.1,0.3c0.9-0.1,1.7-0.3,2.5-0.7c0.2-0.1,0.1-0.3-0.1-0.3c-1-0.1-1.9,0.1-2.9,0.2c0.1,0.1,0.1,0.2,0.1,0.3
			c0.7-0.3,1.5-0.6,2.3-0.7c0.2-0.1,0.1-0.4-0.1-0.3c-0.7,0.1-1.4,0.2-2,0.3c0,0.1,0.1,0.2,0.1,0.3c0.7-0.2,1.4-0.4,2.1-0.5
			c0-0.1-0.1-0.2-0.1-0.3c-0.7,0.2-1.4,0.3-2.1,0.4c0,0.1,0,0.2,0.1,0.3c0.4-0.1,0.8-0.2,1.2-0.2c0-0.1,0-0.2-0.1-0.3
			c-0.9,0.3-1.7,0.3-2.6,0.2c0,0.1,0,0.2,0,0.3c0.6-0.1,1.1-0.1,1.6,0.1c0-0.1,0-0.2,0.1-0.3c-0.9,0.1-1.7,0.1-2.6,0
			c0,0.1,0,0.2,0,0.3c0.8,0,1.6,0.1,2.4,0.3c0-0.1,0-0.2,0.1-0.3c-0.7-0.1-1.4-0.2-2.1-0.3c0,0.1-0.1,0.2-0.1,0.3
			c0.9,0.1,1.7,0.3,2.6,0.5c0-0.1,0-0.2,0.1-0.3c-0.7,0-1.3,0-1.9-0.1c-0.2,0-0.3,0.3-0.1,0.3c0.5,0.2,1.1,0.3,1.6,0.5
			c0-0.1,0-0.2,0.1-0.3c-0.7-0.1-1.3-0.2-2-0.3c0,0.1,0,0.2,0,0.3c0.7,0.1,1.2,0.2,1.8,0.4c0-0.1,0-0.2,0.1-0.3
			c-0.7-0.1-1.3-0.2-2-0.3c-0.2-0.1-0.3,0.3-0.1,0.3c0.4,0.1,0.7,0.2,1.1,0.3c0.2,0,0.3-0.3,0.1-0.3c-0.4-0.1-0.7-0.3-1.1-0.5
			c-0.2-0.1-0.4,0.2-0.2,0.3c0.4,0.2,0.7,0.3,1.1,0.5c0-0.1,0.1-0.2,0.1-0.3c-0.4-0.1-0.7-0.1-1.1-0.3c0,0.1-0.1,0.2-0.1,0.3
			c0.7,0.2,1.4,0.3,2.1,0.3c0.2,0,0.2-0.3,0.1-0.3c-0.6-0.2-1.3-0.3-1.9-0.4c-0.2,0-0.2,0.3,0,0.3c0.7,0.1,1.3,0.2,2,0.3
			c0.2,0,0.2-0.3,0.1-0.3c-0.5-0.2-1.1-0.3-1.6-0.5c0,0.1-0.1,0.2-0.1,0.3c0.7,0.1,1.3,0.1,2,0.1c0.2,0,0.3-0.3,0.1-0.3
			c-0.9-0.2-1.7-0.4-2.6-0.5c-0.2,0-0.3,0.3-0.1,0.3c0.7,0.2,1.4,0.3,2.2,0.3c0.2,0,0.3-0.3,0.1-0.3c-0.8-0.2-1.6-0.3-2.5-0.3
			c-0.2,0-0.2,0.3,0,0.3c0.9,0.1,1.7,0.1,2.6,0c0.2,0,0.3-0.3,0.1-0.3c-0.6-0.1-1.1-0.1-1.8-0.1c-0.2,0-0.2,0.3,0,0.3
			c1,0.1,1.8,0.1,2.7-0.2c0.2-0.1,0.2-0.4-0.1-0.3c-0.5,0-0.8,0.1-1.3,0.2c-0.2,0.1-0.2,0.4,0.1,0.3c0.7-0.1,1.4-0.2,2.2-0.4
			c0.2-0.1,0.1-0.4-0.1-0.3c-0.7,0.1-1.4,0.3-2.1,0.5c-0.2,0.1-0.1,0.4,0.1,0.3c0.7-0.1,1.4-0.2,2-0.3c0-0.1-0.1-0.2-0.1-0.3
			c-0.8,0.2-1.6,0.5-2.4,0.8c-0.2,0.1-0.1,0.4,0.1,0.3c0.9-0.2,1.8-0.3,2.8-0.2c0-0.1-0.1-0.2-0.1-0.3c-0.8,0.4-1.4,0.5-2.3,0.6
			c-0.2,0-0.3,0.3-0.1,0.3c0.8,0.3,1.5,0.3,2.3,0c0.2-0.1,0.2-0.4-0.1-0.3c-0.5,0-0.3,0-0.8,0.1c-0.2,0.1-0.1,0.4,0.1,0.3
			c0.5,0,0.9-0.1,1.3-0.2c0.2-0.1,0.1-0.4-0.1-0.3c-0.4,0.1-0.9,0.1-1.3,0.2c-0.2,0-0.1,0.4,0.1,0.3c0.6-0.1,1.3-0.2,1.9-0.3
			c0.2-0.1,0.1-0.3-0.1-0.3c-0.7,0-1.4,0.1-2,0.2c-0.2,0-0.1,0.4,0.1,0.3c0.9-0.1,1.8-0.2,2.7-0.3c0.2,0,0.1-0.3-0.1-0.3
			c-1.1,0-2,0.1-3.1,0.3c-0.2,0-0.1,0.4,0.1,0.3c1.1-0.1,2.3-0.3,3.4-0.5c0.2,0,0.1-0.4-0.1-0.3c-0.7,0.1-1.3,0.2-2,0.3
			c-0.2,0-0.1,0.4,0.1,0.3c1.6-0.1,3.1-0.5,4.5-1.1c-0.1-0.1-0.1-0.2-0.1-0.3c-0.4,0.2-0.3,0.1-0.6,0.5c-0.1,0.1,0,0.4,0.2,0.3
			c0.2-0.1,0.5-0.2,0.7-0.3c0.2-0.1,0.1-0.4-0.1-0.3c-0.5,0.1-0.9,0.2-1.3,0.3c-0.2,0.1-0.1,0.4,0.1,0.3c0.4,0,0.3,0,0.7-0.1
			c0.2-0.1,0.1-0.4-0.1-0.3c-0.8,0.1-1.6,0.3-2.4,0.5c-0.2,0.1-0.1,0.4,0.1,0.3c0.9-0.2,1.8-0.4,2.6-0.7c0.2-0.1,0.1-0.4-0.1-0.3
			c-0.8,0.1-1.6,0.3-2.4,0.5c-0.2,0.1-0.1,0.4,0.1,0.3c0.8-0.2,1.6-0.5,2.4-0.8c0.2-0.1,0.1-0.4-0.1-0.3c-0.8,0.1-1.6,0.3-2.4,0.4
			c0,0.1,0.1,0.2,0.1,0.3c0.6-0.2,1.3-0.5,1.9-0.7c0.2-0.1,0.1-0.4-0.1-0.3c-0.9,0.1-1.8,0.3-2.6,0.5c-0.2,0.1-0.1,0.4,0.1,0.3
			c1-0.2,2-0.4,3-0.7c0.2-0.1,0.1-0.4-0.1-0.3c-1.2,0.3-2.4,0.7-3.5,1c-0.2,0.1-0.1,0.4,0.1,0.3c1-0.3,2-0.5,2.9-0.8
			c0-0.1-0.1-0.2-0.1-0.3c-0.7,0.2-1.4,0.5-2.1,0.8c-0.2,0.1-0.1,0.4,0.1,0.3c0.9-0.1,1.7-0.3,2.6-0.5c0-0.1-0.1-0.2-0.1-0.3
			c-0.5,0.2-1.1,0.4-1.6,0.7c-0.2,0.1-0.1,0.4,0.1,0.3c0.9-0.1,1.6-0.4,2.3-0.8c0.1-0.1,0.1-0.3-0.1-0.3c-0.4,0.1-0.4,0-0.7,0.2
			c-0.2,0.1-0.1,0.3,0.1,0.3c0.5,0,0.7-0.1,1.1-0.5c0.1-0.1,0.1-0.2,0-0.3c-0.1,0-0.1-0.1-0.2-0.1c-0.1,0-0.1,0-0.2,0
			c-0.1,0-0.1,0.1-0.2,0.1c-0.1,0.1-0.1,0.1-0.1,0.2c0.1,0.9,1.3,0.2,0.7-0.4c-0.5-0.6-1.3,0.5-0.3,0.7c0.1,0,0.1,0,0.2-0.1
			c0.5-0.8-0.6-0.9-1.1-0.3c-0.1,0.1,0.1,0.3,0.2,0.3c0.5-0.1,0.4-0.1,0.8-0.5c0.1-0.1,0-0.3-0.1-0.3c-0.4,0-0.3,0-0.7,0.1
			c0,0.1,0.1,0.2,0.1,0.3c0.4-0.1,0.3-0.1,0.6-0.4c0.1-0.1,0-0.3-0.1-0.3c-0.5-0.1-0.7,0-1.1,0.3c-0.1,0.1,0,0.3,0.1,0.3
			c0.6,0,0.4,0.1,0.9-0.1c0.2-0.1,0.2-0.3,0-0.3c-0.6-0.1-1.1-0.1-1.7,0.2c-0.1,0.1-0.2,0.3,0,0.3c0.6,0.1,1,0.1,1.6-0.1
			c0.2-0.1,0.2-0.3-0.1-0.3c-0.6,0-1.1,0.1-1.7,0.3c-0.2,0.1-0.1,0.3,0.1,0.3c0.6,0.1,1,0,1.4-0.4c0.1-0.1,0.1-0.3,0-0.3
			c-0.7-0.2-1.2-0.2-1.8,0c-0.2,0.1-0.2,0.4,0.1,0.3c0.5-0.1,1-0.2,1.5-0.4c0.2-0.1,0.2-0.4-0.1-0.3c-0.8,0.1-1.5,0.2-2.3,0.4
			c-0.2,0.1-0.2,0.4,0.1,0.3c0.7-0.1,1.3-0.2,1.9-0.3c0-0.1-0.1-0.2-0.1-0.3c-0.9,0.2-1.8,0.3-2.7,0.5c0,0.1,0.1,0.2,0.1,0.3
			c0.7-0.1,1.5-0.3,2.2-0.4c0-0.1-0.1-0.2-0.1-0.3c-1.1,0.2-2.2,0.4-3.3,0.7c0,0.1,0.1,0.2,0.1,0.3c1.2-0.3,2.4-0.5,3.6-0.6
			c0-0.1,0-0.2-0.1-0.3c-1.4,0.3-2.7,0.7-4.1,1c-0.2,0.1-0.1,0.4,0.1,0.3c1.4-0.2,2.8-0.4,4.3-0.6c0-0.1-0.1-0.2-0.1-0.3
			c-1.9,0.3-3.8,0.7-5.7,1.1c-0.2,0-0.1,0.3,0.1,0.3c1.3,0,2.6-0.1,4-0.3c0-0.1,0-0.2-0.1-0.3c-3.5,0.9-7.1,0.5-10.4-1.1
			C46.1,57.4,45.9,57.7,46.1,57.8L46.1,57.8z"/>
	</g>
	<g>
		<path class="st0" d="M49.2,58.8c-0.3-0.2-0.6-0.3-0.9-0.3c-0.2-0.1-0.3,0.3-0.1,0.3c0.7,0.2,1.4,0.3,2.1,0.5
			c0-0.1,0.1-0.2,0.1-0.3c-0.7-0.1-1.4-0.3-2.1-0.5c0,0.1,0,0.2-0.1,0.3c0.7,0,1.3,0.1,2,0.2c0.2,0,0.2-0.3,0.1-0.3
			c-0.7-0.2-1.4-0.4-2.1-0.6c0,0.1-0.1,0.2-0.1,0.3c0.7,0.1,1.4,0.3,2,0.4c0-0.1,0-0.2,0.1-0.3c-0.8,0.1-1.6-0.1-2.3-0.3
			c0,0.1-0.1,0.2-0.1,0.3c0.7,0.1,1.4,0.4,2,0.6c0-0.1,0.1-0.2,0.1-0.3c-0.8-0.1-1.6-0.3-2.4-0.5c-0.2-0.1-0.3,0.2-0.1,0.3
			c0.6,0.3,1.3,0.6,1.9,0.9c0.2,0.1,0.3-0.3,0.1-0.3c-0.5-0.2-1-0.4-1.6-0.6c-0.2-0.1-0.3,0.2-0.1,0.3c0.7,0.3,1.4,0.6,2.2,0.7
			c0.2,0,0.3-0.2,0.1-0.3c-0.4-0.2-0.7-0.3-1.1-0.3c-0.2,0-0.3,0.3-0.1,0.3c0.6,0.2,1.1,0.3,1.7,0.4c0.2,0,0.3-0.2,0.1-0.3
			C50.2,59.1,49.7,59,49.2,58.8c-0.2,0-0.3,0.3-0.1,0.4c0.6,0.2,1.2,0.3,1.9,0.4c0.2,0,0.2-0.3,0.1-0.3c-0.4-0.1-0.8-0.3-1.2-0.4
			c0,0.1-0.1,0.2-0.1,0.3c1,0.2,1.9,0.4,2.9,0.5c0.2,0,0.3-0.3,0.1-0.3c-0.5-0.3-1.1-0.4-1.6-0.4c-0.2,0-0.3,0.3-0.1,0.3
			c0.7,0.2,1.4,0.3,2.1,0.3c0.2,0,0.2-0.3,0-0.3c-0.5-0.1-1-0.1-1.5-0.1c-0.2,0-0.3,0.3-0.1,0.3c0.4,0.2,0.8,0.3,1.3,0.3
			c0-0.1,0-0.2,0-0.3c-0.3,0-0.5,0-0.8,0c-0.2,0-0.3,0.3-0.1,0.3c0.3,0.2,0.5,0.2,0.9,0.3c0.2,0,0.2-0.3,0.1-0.3
			c-0.1-0.1-0.3-0.1-0.4-0.1c0,0.1,0,0.2-0.1,0.3c0.2,0,0.5,0,0.7,0c0.2,0,0.2-0.4,0-0.3c-0.2,0-0.5,0-0.7,0c-0.2,0-0.2,0.3-0.1,0.3
			c0.1,0.1,0.3,0.1,0.4,0.1c0-0.1,0-0.2,0.1-0.3c-0.3-0.1-0.5-0.1-0.7-0.2c0,0.1-0.1,0.2-0.1,0.3c0.3,0,0.5,0,0.8,0
			c0.2,0,0.2-0.3,0-0.3c-0.4-0.1-0.7-0.2-1.1-0.3c0,0.1-0.1,0.2-0.1,0.3c0.5,0,1,0,1.5,0.1c0-0.1,0-0.2,0-0.3
			c-0.7-0.1-1.3-0.1-2-0.3c0,0.1,0,0.2-0.1,0.3c0.5,0,1,0.1,1.5,0.3c0-0.1,0.1-0.2,0.1-0.3c-1-0.1-1.9-0.3-2.8-0.5
			c-0.2-0.1-0.3,0.3-0.1,0.3c0.4,0.1,0.8,0.2,1.2,0.4c0-0.1,0-0.2,0.1-0.3c-0.6,0-1.2-0.1-1.8-0.4c0,0.1-0.1,0.2-0.1,0.3
			c0.5,0.1,0.9,0.2,1.4,0.4c0.1-0.1,0.1-0.2,0.1-0.3c-0.6-0.1-1.2-0.2-1.7-0.4c0,0.1-0.1,0.2-0.1,0.3c0.4,0,0.7,0.1,1,0.3
			c0.1-0.1,0.1-0.2,0.1-0.3c-0.7-0.2-1.4-0.4-2.1-0.7c-0.1,0.1-0.1,0.2-0.1,0.3c0.5,0.1,1,0.3,1.5,0.5c0.1-0.1,0.1-0.2,0.1-0.3
			c-0.6-0.2-1.3-0.5-1.8-0.8c-0.1,0.1-0.1,0.2-0.1,0.3c0.8,0.2,1.6,0.4,2.4,0.5c0.2,0,0.3-0.3,0.1-0.3c-0.7-0.3-1.3-0.5-2-0.6
			c-0.2-0.1-0.3,0.3-0.1,0.3c0.8,0.2,1.6,0.4,2.4,0.3c0.2,0,0.3-0.3,0.1-0.3c-0.7-0.1-1.4-0.3-2-0.4c-0.2-0.1-0.3,0.3-0.1,0.3
			c0.7,0.2,1.4,0.4,2.1,0.6c0-0.1,0-0.2,0.1-0.3c-0.7-0.1-1.3-0.1-2-0.2c-0.2,0-0.2,0.3-0.1,0.3c0.7,0.2,1.4,0.4,2.1,0.5
			c0.2,0.1,0.3-0.3,0.1-0.3c-0.7-0.2-1.4-0.3-2.1-0.5c0,0.1-0.1,0.2-0.1,0.3c0.3,0,0.6,0.1,0.8,0.3C49.2,59.2,49.4,58.9,49.2,58.8
			L49.2,58.8z"/>
	</g>
	<g>
		<path class="st0" d="M59.6,57.6C59.5,57.7,59.5,57.7,59.6,57.6C59.5,57.7,59.5,57.7,59.6,57.6c0-0.1,0-0.1,0.1-0.1c0,0,0,0,0,0
			c0.1,0,0.1,0,0.2,0.1c0,0,0,0,0,0.1c0,0.1,0,0.1-0.1,0.2l0,0c-0.1,0-0.1,0-0.2,0.1v0c0,0.2,0.4,0.2,0.3,0c0-0.2-0.3-0.4-0.5-0.3
			c-0.1,0-0.1,0.1-0.1,0.2c0.1,0.1,0.2,0.2,0.3,0.1c0.1-0.1,0.1-0.3,0-0.4c-0.2-0.2-0.7-0.1-0.5,0.3C59.3,57.9,59.6,57.8,59.6,57.6
			L59.6,57.6z"/>
	</g>
	<g>
		<path class="st0" d="M52,59.8c-0.3-0.1-0.7-0.2-1-0.3c-0.2-0.1-0.3,0.2-0.1,0.3c1.5,0.8,3.5,0.6,5.1,0.3c1.4-0.2,3.1-0.5,4.2-1.4
			c0.2-0.1-0.1-0.4-0.3-0.3c-1.1,0.9-3.1,1.2-4.5,1.3C54,60,52.2,60.2,51,59.5c-0.1,0.1-0.1,0.2-0.1,0.3c0.3,0.1,0.7,0.2,1,0.3
			C52.1,60.2,52.2,59.8,52,59.8L52,59.8z"/>
	</g>
	<g>
		<path class="st0" d="M55.8,60c1,0.1,5.4-0.2,4.4-2.1c-0.1-0.2-0.4,0-0.3,0.2c0.7,1.4-3.5,1.6-4.1,1.6C55.6,59.7,55.6,60,55.8,60
			L55.8,60z"/>
	</g>
	<g>
		<path class="st0" d="M61.2,58.4c-0.7-1.3,1.5-1.8,2.1-1.8c0.6,0,1.2,0.1,1.7,0.2c0.9,0.2,1.7,0.7,2.6,1c1.4,0.5,2.8,0.8,4.3,0.3
			c0.2-0.1,0.1-0.4-0.1-0.3c-3,1.1-5.5-1.6-8.5-1.5c-1.2,0.1-3.2,0.8-2.4,2.3C61,58.8,61.4,58.6,61.2,58.4L61.2,58.4z"/>
	</g>
	<g>
		<path class="st0" d="M59.7,58.8c1.5-0.9-0.2-2.2-1.2-2.4c-1-0.2-2-0.1-3,0.3c-1.7,0.7-3,2.3-5,2c-0.2,0-0.3,0.3-0.1,0.3
			c1.3,0.2,2.3-0.3,3.4-1.1c0.8-0.5,1.5-1,2.4-1.2c0.5-0.1,1-0.2,1.5-0.1c0.4,0,3.4,0.9,1.8,1.9C59.4,58.6,59.5,58.9,59.7,58.8
			L59.7,58.8z"/>
	</g>
	<g>
		<path class="st0" d="M52.9,58.5c0.7-0.4,1.4-0.7,2.2-1c0.2-0.1,0.1-0.4-0.1-0.3c-0.6,0.2-1.1,0.4-1.7,0.5c0,0.1,0.1,0.2,0.1,0.3
			c1.1-0.3,2.1-0.7,3.1-1.1c0.2-0.1,0.1-0.4-0.1-0.3c-0.8,0.3-1.6,0.6-2.3,0.9c-0.2,0.1-0.1,0.4,0.1,0.3c0.8-0.3,1.5-0.5,2.3-0.8
			c0-0.1-0.1-0.2-0.1-0.3c-0.5,0.2-1.1,0.4-1.6,0.5c0.1,0.1,0.1,0.2,0.1,0.3c0.5-0.2,1-0.5,1.5-0.7c0.2-0.1,0.1-0.4-0.1-0.3
			c-0.6,0.1-1.1,0.3-1.7,0.5c0.1,0.1,0.1,0.2,0.1,0.3c0.5-0.3,1.1-0.4,1.6-0.6c0-0.1-0.1-0.2-0.1-0.3c-0.4,0.1-0.8,0.3-1.2,0.5
			c-0.2,0.1-0.1,0.4,0.1,0.3c0.6-0.2,1.2-0.3,1.8-0.4c-0.1-0.1-0.1-0.2-0.1-0.3c-0.5,0.3-1.1,0.5-1.6,0.7c-0.2,0.1-0.1,0.4,0.1,0.3
			c0.6-0.2,1.2-0.4,1.8-0.6c0.2-0.1,0.1-0.4-0.1-0.3c-0.5,0.1-1,0.3-1.4,0.4c0,0.1,0.1,0.2,0.1,0.3c0.7-0.2,1.4-0.4,2.2-0.4
			c0-0.1,0-0.2-0.1-0.3c-0.5,0.2-0.9,0.3-1.6,0.3c0,0.1,0,0.2,0.1,0.3c0.7-0.2,1.4-0.3,2.1-0.2c0-0.1,0-0.2-0.1-0.3
			c-0.4,0-0.7,0-1.1,0c0,0.1,0,0.2,0,0.3c0.3,0,0.7,0,1.1,0c0-0.1,0-0.2,0-0.3c-0.5,0.1-0.9,0.1-1.3-0.1c0,0.1,0,0.2,0,0.3
			c0.6-0.2,1.1-0.1,1.6,0.3c0-0.1,0.1-0.2,0.1-0.3c-0.3-0.1-0.7-0.2-1.1-0.3c0,0.1-0.1,0.2-0.1,0.3c0.5,0,0.9,0.1,1.3,0.4
			c0.1-0.1,0.1-0.2,0.2-0.3c-0.1-0.1-0.2-0.1-0.3-0.1c0,0.1-0.1,0.2-0.1,0.3c0.1,0,0.3,0,0.4,0c0.1,0,0.3-0.2,0.1-0.3
			c-0.1-0.1-0.1-0.1-0.2-0.1c-0.1-0.1-0.4,0-0.3,0.2c0.2,0.3,0.2,0.3,0.5,0.6c0.1,0.2,0.4-0.1,0.3-0.3s-0.3-0.3-0.4-0.5
			c-0.1,0.1-0.2,0.1-0.3,0.2c0.1,0.1,0.1,0.1,0.2,0.1c0-0.1,0.1-0.2,0.1-0.3c-0.1,0-0.3,0-0.4,0c-0.2,0-0.3,0.3-0.1,0.3
			c0.1,0.1,0.2,0.1,0.3,0.1c0.2,0.1,0.4-0.2,0.2-0.3c-0.5-0.3-0.9-0.5-1.4-0.5c-0.2,0-0.2,0.3-0.1,0.3c0.4,0.3,0.7,0.4,1.3,0.4
			c0.2,0,0.2-0.2,0.1-0.3c-0.6-0.4-1.2-0.5-1.9-0.3c-0.2,0.1-0.2,0.3,0,0.3c0.5,0.2,0.9,0.2,1.5,0.1c0.2,0,0.2-0.3,0-0.3
			c-0.5-0.1-0.8-0.1-1.3,0c-0.1,0-0.2,0.3,0,0.3c0.5,0.2,0.8,0.3,1.3,0.1c0.2-0.1,0.1-0.3-0.1-0.3c-0.8-0.1-1.4,0-2.2,0.2
			c-0.2,0.1-0.2,0.3,0.1,0.3c0.6,0,1.1-0.1,1.7-0.3c0.2-0.1,0.2-0.4-0.1-0.3c-0.8,0.1-1.5,0.2-2.3,0.4c-0.2,0.1-0.1,0.4,0.1,0.3
			c0.5-0.1,1-0.2,1.4-0.4c0-0.1-0.1-0.2-0.1-0.3c-0.6,0.2-1.2,0.4-1.8,0.6c0,0.1,0.1,0.2,0.1,0.3c0.6-0.2,1.1-0.5,1.7-0.7
			c0.2-0.1,0.1-0.3-0.1-0.3c-0.6,0.1-1.2,0.2-1.8,0.4c0,0.1,0.1,0.2,0.1,0.3c0.4-0.1,0.8-0.3,1.2-0.5c0.2-0.1,0.1-0.4-0.1-0.3
			c-0.6,0.2-1.2,0.4-1.7,0.6c-0.2,0.1-0.1,0.4,0.1,0.3c0.6-0.1,1.1-0.3,1.7-0.5c-0.1-0.1-0.1-0.2-0.1-0.3c-0.5,0.2-1,0.5-1.5,0.7
			c-0.2,0.1-0.1,0.4,0.1,0.3c0.5-0.2,1.1-0.4,1.6-0.5c0.2-0.1,0.1-0.4-0.1-0.3c-0.8,0.3-1.5,0.5-2.3,0.8c0.1,0.1,0.1,0.2,0.1,0.3
			c0.7-0.3,1.5-0.6,2.2-0.9c0-0.1-0.1-0.2-0.1-0.3c-1,0.4-2.1,0.7-3.1,1.1c-0.2,0.1-0.1,0.4,0.1,0.3c0.6-0.2,1.1-0.4,1.7-0.5
			c0-0.1-0.1-0.2-0.1-0.3c-0.8,0.3-1.5,0.6-2.3,1C52.6,58.3,52.7,58.7,52.9,58.5L52.9,58.5z"/>
	</g>
	<g>
		<path class="st0" d="M56.4,59.5c0.2,0,0.5-0.1,0.7-0.1c0-0.1,0-0.2-0.1-0.3c-0.2,0.1-0.3,0.1-0.5,0.1c0,0.1,0,0.2,0.1,0.3
			c0.2-0.1,0.3-0.1,0.5-0.1c0.2,0,0.2-0.4,0-0.3c-0.1,0-0.3,0.1-0.4,0.1c-0.2,0.1,0,0.4,0.2,0.3c0.1,0,0.1-0.1,0.2-0.1
			c0-0.1,0-0.2,0-0.3c-0.2,0-0.4,0.1-0.6,0.1c-0.2,0.1-0.2,0.4,0.1,0.3c0.2,0,0.4-0.1,0.6-0.1c0.2-0.1,0.2-0.4-0.1-0.3
			c-0.2,0-0.5,0.1-0.7,0.1c-0.1,0-0.2,0.1-0.2,0.2C56.3,59.4,56.4,59.5,56.4,59.5L56.4,59.5z"/>
	</g>
	<g>
		<path class="st0" d="M61,57.9c-1.2,1.9,3.5,1.9,4.2,2.1c1.3,0.3,2.6,0.7,4,0.4c1.4-0.2,2.6-1,3.7-1.8c0.2-0.1,0-0.4-0.2-0.3
			c-1.8,1.3-3.6,2.1-5.9,1.7c-0.8-0.1-1.6-0.4-2.4-0.5c-0.6-0.1-3.7-0.2-3-1.4C61.5,57.8,61.2,57.7,61,57.9L61,57.9z"/>
	</g>
	<g>
		<path class="st0" d="M46.4,57.4c-0.1-0.2-0.2-0.3-0.4-0.4c-0.3-0.2-0.5-0.4-0.8-0.6c-0.1-0.1-0.2-0.2-0.3-0.3
			c-0.1-0.3,0-0.5,0.3-0.6c0.2-0.1,0.4-0.1,0.5,0c0.4,0.1,0.1,0.3-0.1,0.5c0.1-0.2-0.2-0.4-0.3-0.2c-0.4,0.5,0.7,0.6,1,0.4
			c0.6-0.5-0.2-1.1-0.7-1.1c-0.5-0.1-1.2,0.2-1.2,0.8c0,0.3,0.3,0.6,0.5,0.8c0.1,0.1,0.3,0.3,0.5,0.4c0.2,0.1,0.5,0.3,0.6,0.5
			C46.1,57.8,46.4,57.7,46.4,57.4L46.4,57.4z"/>
	</g>
	<g>
		<path class="st0" d="M74.3,57.3c0.5-0.4,1.4-0.8,1.6-1.5c0.2-0.6-0.3-1-0.9-1c-0.4,0-1.4,0.3-1.3,0.8c0.1,0.7,1.1,0.3,1.5,0.2
			c0.2-0.1,0-0.4-0.2-0.3c-0.2,0.1-0.4,0.2-0.7,0.2c-0.3,0-0.2-0.3,0-0.4c0.3-0.2,1.1-0.3,1.2,0.1c0.2,0.6-1.1,1.3-1.5,1.5
			C73.9,57.1,74.1,57.5,74.3,57.3L74.3,57.3z"/>
	</g>
	<g>
		<path class="st0" d="M61.5,57.4c-1.5,0.8-0.1,2.3,1,2.6c1.3,0.4,2.9,0.6,4.3,0.6c1.3,0,2.3-0.4,3.4-1.1c0.2-0.1,0.1-0.4-0.1-0.3
			c-2.4,0.9-4.9,0.7-7.3,0.3c-0.2,0-0.3,0.3-0.1,0.3c1.3,0.4,2.5,0.5,3.9,0.5c0.2,0,0.2-0.3,0-0.3c-0.8-0.1-1.6-0.1-2.5-0.3
			c-0.6-0.1-1.8-0.1-2.1-0.8c-0.1-0.2-0.4,0-0.3,0.2c0.6,1.2,3.7,1.1,4.8,1.2c0-0.1,0-0.2,0-0.3c-1.3,0-2.5-0.1-3.8-0.5
			c0,0.1-0.1,0.2-0.1,0.3c2.5,0.4,5.1,0.6,7.5-0.3c-0.1-0.1-0.1-0.2-0.1-0.3c-1.4,0.9-2.6,1.1-4.1,1c-0.9-0.1-1.7-0.2-2.5-0.3
			c-0.3-0.1-0.6-0.1-0.9-0.2c-0.9-0.2-1.1-0.8-0.7-1.9C61.9,57.6,61.7,57.3,61.5,57.4L61.5,57.4z"/>
	</g>
	<g>
		<path class="st0" d="M60,57.9c1.1,2-2.7,2.4-3.8,2.4c-1.4,0.1-2.7-0.1-4-0.4c0,0.1-0.1,0.2-0.1,0.3c2,0.3,4,0.2,5.9-0.2
			c0.2-0.1,0.1-0.4-0.1-0.3c-1.5,0.2-3,0.3-4.4,0.2c-0.2,0-0.2,0.3-0.1,0.3c2.2,0.7,4.5,0.3,6.4-0.9c-0.1-0.1-0.1-0.2-0.2-0.3
			c-0.9,0.7-1.8,0.9-2.9,0.9c-0.2,0-0.2,0.3,0,0.3c1.1,0,1.9-0.2,2.8-0.7c0.2-0.1,0-0.4-0.2-0.3c-2.8,1.3-6.9,1.9-9.6,0
			c-0.2-0.1-0.4,0.2-0.2,0.3c2.8,2,7,1.4,9.9,0c-0.1-0.1-0.1-0.2-0.2-0.3c-0.9,0.5-1.7,0.7-2.6,0.7c0,0.1,0,0.2,0,0.3
			c1.1,0,2.1-0.2,3.1-0.9c0.2-0.1,0-0.4-0.2-0.3c-1.8,1.2-4,1.5-6.1,0.9c0,0.1,0,0.2-0.1,0.3c1.5,0.1,3,0,4.4-0.2
			c0-0.1,0-0.2-0.1-0.3c-1.9,0.4-3.8,0.5-5.7,0.2c-0.2,0-0.3,0.3-0.1,0.3c2.2,0.6,4.6,0.7,6.8,0c1.1-0.4,2.1-1.3,1.4-2.5
			C60.2,57.5,59.9,57.7,60,57.9L60,57.9z"/>
	</g>
	<g>
		<path class="st0" d="M48.6,59.1c0.3,0.1,0.6,0.3,0.9,0.4c0-0.1,0-0.2,0-0.3c-0.1,0-0.2,0.1-0.3,0.1c-0.2,0.1-0.2,0.3,0,0.3
			c1.9,0.7,3.8,1.3,5.9,0.9c0.2-0.1,0.1-0.4-0.1-0.3c-2,0.4-3.8-0.3-5.7-0.9c0,0.1,0,0.2,0,0.3c0.1,0,0.2-0.1,0.3-0.1
			c0.1,0,0.2-0.3,0-0.3c-0.3-0.1-0.6-0.3-0.9-0.4C48.6,58.7,48.4,59,48.6,59.1L48.6,59.1z"/>
	</g>
	<g>
		<path class="st0" d="M52.9,60.7c1.8,0.8,4.2,0.6,5.8-0.7c0.2-0.1-0.1-0.4-0.3-0.3c-1.3,1.1-3.7,1.3-5.3,0.6
			C52.9,60.3,52.7,60.6,52.9,60.7L52.9,60.7z"/>
	</g>
	<g>
		<path class="st0" d="M60.7,58.3c0.7,2,3.3,2.3,5.2,2.5c2.3,0.3,4.4-0.4,6.1-2c0.2-0.1-0.1-0.4-0.3-0.3c-1.3,1.2-3,1.9-4.8,1.9
			c-1.8,0-5.1-0.3-5.9-2.3C60.9,57.9,60.6,58.1,60.7,58.3L60.7,58.3z"/>
	</g>
	<g>
		<path class="st0" d="M60.9,57.8c-0.4,0.4-0.4,0.9,0,1.3c0.5,0.5,1.1,0.7,1.8,0.7c0.2,0,0.2-0.3,0-0.3c-0.6-0.1-1.1-0.4-1.5-0.8
			c-0.2-0.2-0.4-0.4-0.3-0.7c0.1-0.3,0.5-0.4,0.7-0.5c0.2-0.1,0.1-0.4-0.1-0.3c-0.5,0.1-1.4,0.7-1,1.3c0.2,0.3,0.6,0.6,0.9,0.9
			c0.4,0.3,0.8,0.4,1.2,0.5c0-0.1,0-0.2,0-0.3c-0.6,0-2.3-0.6-1.5-1.4C61.3,57.9,61.1,57.7,60.9,57.8L60.9,57.8z"/>
	</g>
	<g>
		<path class="st0" d="M75.5,55.4c0.4,0.4-0.5,1.1-0.8,1.3c-0.2,0.1,0,0.4,0.2,0.3c0.5-0.3,1.4-1.2,0.9-1.8
			C75.6,54.9,75.3,55.2,75.5,55.4L75.5,55.4z"/>
	</g>
	<g>
		<path class="st0" d="M75.7,55.6C75.7,55.6,75.7,55.6,75.7,55.6C75.7,55.6,75.6,55.5,75.7,55.6c0,0.1-0.5,0.7-0.6,0.8
			c-0.2,0.3-0.5,0.5-0.8,0.6c-0.2,0.1,0,0.4,0.2,0.3c0.5-0.3,0.9-0.7,1.2-1.1c0.2-0.2,0.6-0.8,0.1-1C75.5,55.1,75.4,55.5,75.7,55.6
			L75.7,55.6z"/>
	</g>
	<g>
		<path class="st0" d="M45.3,55.2c-0.5,0.2-0.6,0.7-0.5,1.1c0.2,0.6,0.8,1.1,1.3,1.4c0.2,0.1,0.4-0.1,0.3-0.3
			c-0.3-0.2-0.5-0.4-0.7-0.7c-0.3-0.3-1-1.1-0.3-1.3C45.6,55.5,45.5,55.1,45.3,55.2L45.3,55.2z"/>
	</g>
	<g>
		<path class="st0" d="M44.4,56c0,0.7,0.5,1.1,0.9,1.5c0.7,0.5,1.5,0.5,2.1,1c0.2,0.1,0.4-0.2,0.2-0.3c-0.4-0.3-0.9-0.4-1.4-0.6
			c-0.6-0.3-1.5-0.9-1.5-1.6C44.8,55.7,44.5,55.7,44.4,56L44.4,56z"/>
	</g>
	<g>
		<path class="st0" d="M44.6,56.2c0.6,2,3,2.8,4.8,3.4c0.2,0.1,0.3-0.3,0.1-0.3c-1.6-0.5-4-1.2-4.5-3.1
			C44.8,55.8,44.5,55.9,44.6,56.2L44.6,56.2z"/>
	</g>
	<g>
		<path class="st0" d="M54.7,61c2.2,0.8,5.6,0.5,5.8-2.5c0-0.2-0.3-0.2-0.3-0.1c-0.5,1.9-2.6,2.1-4.2,2.1c-0.2,0-0.2,0.3-0.1,0.3
			c1.2,0.4,2.3,0.1,3.2-0.6c0.2-0.1-0.1-0.4-0.2-0.3c-0.7,0.4-1.4,0.6-2.2,0.7c-0.2,0-0.2,0.4,0,0.3c1.1,0,2.1-0.1,2.8-1
			c0.1-0.2-0.1-0.4-0.3-0.3c-0.5,0.4-1,0.6-1.6,0.5c-0.2,0-0.2,0.3,0,0.3c0.7,0.1,1.3-0.1,1.8-0.6c-0.1-0.1-0.2-0.2-0.3-0.3
			c-0.6,0.8-1.6,0.9-2.5,0.9c0,0.1,0,0.2,0,0.3c0.9-0.1,1.6-0.3,2.4-0.8c-0.1-0.1-0.1-0.2-0.2-0.3c-0.9,0.7-1.8,0.8-2.9,0.5
			c0,0.1,0,0.2-0.1,0.3c1.8-0.1,4-0.3,4.6-2.4c-0.1,0-0.2,0-0.3-0.1c-0.2,2.7-3.4,2.8-5.3,2.1C54.5,60.6,54.5,60.9,54.7,61L54.7,61z
			"/>
	</g>
	<g>
		<g>
			<path class="st1" d="M63.8,58.8c-0.3,0-0.7,0.1-1.1,0.1c0.2,0,0.3,0.1,0.5,0.1c0.5,0,1.1,0.1,1.6,0.1c-0.1,0-0.3-0.1-0.4-0.1
				C64.3,58.9,64.1,58.9,63.8,58.8C63.9,58.9,63.8,58.8,63.8,58.8z"/>
		</g>
		<g>
			<path class="st1" d="M62.3,57.3c0,0,0.1-0.1,0.1-0.1c0.2,0,0.5,0.1,0.7,0.1c0.4,0,0.7,0.1,1.1,0.1c-0.1,0-0.3-0.1-0.5-0.2
				c-0.2,0-0.4-0.1-0.5-0.1c-0.1,0-0.1-0.1-0.1-0.1c0,0,0,0-0.1,0c-0.3,0.1-0.5,0.2-0.9,0.2c0,0,0,0,0,0.1
				C62.2,57.3,62.3,57.3,62.3,57.3z"/>
		</g>
		<g>
			<path class="st1" d="M66,57.8C66,57.8,66.1,57.8,66,57.8c0.1,0,0.1,0,0.2,0c-0.1,0-0.1-0.1-0.2-0.1c0,0,0,0-0.1,0
				c-0.1,0-0.1,0-0.2-0.1c-0.1,0-0.2,0-0.3,0c-0.2,0-0.4,0-0.7,0c0.1,0,0.2,0,0.3,0.1C65.4,57.7,65.7,57.8,66,57.8z"/>
		</g>
		<g>
			<path class="st1" d="M62.4,59.9c0,0,0.1,0.1,0.1,0.1c0.1,0.1,0.2,0.1,0.3,0.1c0.3,0.1,0.5,0.1,0.8,0.2l0,0c0-0.1,0.1-0.1,0.2-0.1
				c0.4,0.1,0.7,0.1,1.1,0.2l0,0c0,0,0.1,0,0.1,0c0.1,0,0.3,0,0.4,0c-1.1-0.1-2.1-0.3-3.1-0.7C62.3,59.8,62.4,59.8,62.4,59.9z"/>
		</g>
		<g>
			<path class="st1" d="M65.5,59.3C65.5,59.3,65.5,59.4,65.5,59.3c0.2,0.1,0.4,0.1,0.6,0.1C65.9,59.5,65.7,59.4,65.5,59.3
				C65.5,59.4,65.5,59.4,65.5,59.3z"/>
		</g>
		<g>
			<path class="st1" d="M70,59.5c0.1,0,0.2,0,0.3-0.1C70.2,59.5,70.1,59.5,70,59.5C70,59.5,70,59.5,70,59.5z"/>
		</g>
		<g>
			<path class="st1" d="M66.7,60c-0.5-0.1-1-0.2-1.5-0.3c0,0-0.1,0-0.1,0c-0.8-0.1-1.5-0.2-2.3-0.3c-0.1,0-0.1,0-0.1-0.1
				c-0.1,0-0.2,0-0.3-0.1c-0.1,0-0.1-0.2-0.1-0.3c-0.2,0-0.4,0-0.5,0.1c-0.2,0-0.3-0.2-0.2-0.3c0,0,0-0.1,0-0.1v0l0,0
				c-0.1,0-0.1,0-0.1-0.1c-0.1,0-0.1,0.1-0.2,0.1c-0.1,0-0.1,0-0.2-0.1c-0.1,0-0.1,0-0.1-0.1c0,0.3,0,0.5,0.2,0.7
				c-0.1-0.2,0.1-0.3,0.3-0.2c1.5,0.7,3.4,1.2,5.2,1.1C66.6,60,66.6,60,66.7,60z"/>
		</g>
		<g>
			<path class="st1" d="M67.8,59.7C67.9,59.7,67.9,59.7,67.8,59.7c0,0-0.1,0-0.2,0C67.8,59.7,67.8,59.7,67.8,59.7z"/>
		</g>
		<g>
			<path class="st1" d="M66.4,60.5c0,0,0.1,0.1,0.1,0.1c0.4-0.1,0.8-0.2,1.2-0.3c-0.4,0.1-0.7,0.1-1.1,0.1
				C66.5,60.4,66.5,60.5,66.4,60.5z"/>
		</g>
		<g>
			<path class="st0" d="M74.5,56.9c-0.7,0.3-1.4,0.6-2,0.8c-0.2,0.1-0.4,0.1-0.6,0.2c0,0-0.1,0-0.1,0c-0.4,0.1-0.8,0.1-1.3,0.2
				c-0.3,0-0.6,0.1-0.8,0.1c-0.1,0-0.2,0-0.3,0c-0.7-0.1-1.4-0.3-2.1-0.3c0.1-0.1,0.1-0.2,0-0.3c-0.1-0.1-0.2-0.1-0.3-0.1
				c0,0-0.1-0.1-0.1-0.1c-0.5-0.2-0.9-0.3-1.4-0.4c0,0-0.1,0-0.1,0l0,0c-0.7-0.6-1.8-0.4-2.7-0.2c-0.5,0.1-1.3,0.2-1.1,0.8
				c0,0-0.1,0-0.1,0.1c0-0.1-0.2-0.2-0.3-0.1C61,57.5,61,57.5,61,57.6c-0.1,0-0.1,0-0.1,0.1c-1.2,1.6,1,2.9,2.3,3.3
				c2,0.5,4.1,0.1,5.9-0.9c0.4-0.1,0.8-0.1,1.2-0.2c0.2-0.1,0.1-0.4-0.1-0.3c0.1,0,0.2,0,0.3,0s0.1-0.1,0.1-0.1h0
				c0.7-0.2,1.3-0.4,2-0.8c0.1,0,0.1-0.1,0.1-0.1c0.4-0.2,0.8-0.5,1.2-0.8c0.1-0.1,0.1-0.1,0.1-0.2c0.2-0.1,0.4-0.2,0.6-0.3
				C74.9,57,74.7,56.8,74.5,56.9z M65.5,57.6c0.1,0,0.2,0,0.3,0c0.1,0,0.1,0.1,0.2,0.1c0,0,0,0,0.1,0c0.1,0,0.1,0.1,0.2,0.1
				c0,0-0.1,0-0.1,0s-0.1,0-0.1,0c-0.3-0.1-0.6-0.1-0.9-0.2c-0.1,0-0.2,0-0.3-0.1C65,57.6,65.2,57.6,65.5,57.6z M66.1,59.5
				c-0.2,0-0.4-0.1-0.6-0.1l0,0l0,0C65.7,59.4,65.9,59.5,66.1,59.5z M64.9,59.1c-0.5,0-1.1-0.1-1.6-0.1c-0.2,0-0.3-0.1-0.5-0.1
				c0.3,0,0.7-0.1,1.1-0.1c0,0,0,0,0.1,0c0.2,0.1,0.4,0.1,0.6,0.1C64.6,59,64.7,59.1,64.9,59.1z M63,57.1
				C63.1,57.1,63.1,57.1,63,57.1c0.1,0.1,0.1,0.1,0.2,0.1c0.2,0.1,0.4,0.1,0.5,0.1c0.1,0.1,0.3,0.1,0.5,0.2
				c-0.3-0.1-0.7-0.1-1.1-0.1c-0.2,0-0.5-0.1-0.7-0.1c-0.1,0-0.1,0-0.1,0.1c-0.1,0-0.1,0-0.1,0c0,0,0,0,0-0.1
				C62.5,57.2,62.8,57.2,63,57.1z M65,60.4C64.9,60.4,64.9,60.4,65,60.4L65,60.4c-0.5,0-0.8-0.1-1.2-0.1c-0.1,0-0.2,0-0.2,0.1l0,0
				c-0.3-0.1-0.5-0.2-0.8-0.2c-0.1,0-0.2-0.1-0.3-0.1c0-0.1,0-0.1-0.1-0.1c-0.1-0.1-0.1-0.1-0.2-0.1c1,0.4,2,0.6,3.1,0.7
				C65.2,60.4,65.1,60.4,65,60.4z M61.4,59c-0.2-0.1-0.3,0.1-0.3,0.2C61,59,60.9,58.7,61,58.5c0,0,0.1,0.1,0.1,0.1
				c0,0.1,0.1,0.1,0.2,0.1c0.1,0,0.2-0.1,0.2-0.1c0,0.1,0.1,0.1,0.1,0.1l0,0v0c0,0,0,0.1,0,0.1c-0.1,0.1,0,0.3,0.2,0.3
				c0.2,0,0.4-0.1,0.5-0.1c-0.1,0.1-0.1,0.2,0.1,0.3c0.1,0,0.2,0,0.3,0.1c0,0,0.1,0.1,0.1,0.1c0.8,0.1,1.5,0.2,2.3,0.3
				c0,0,0,0,0.1,0c0.5,0.1,1,0.2,1.5,0.3c0,0-0.1,0-0.1,0.1C64.8,60.2,62.9,59.7,61.4,59z M66.5,60.6c0-0.1,0-0.1-0.1-0.1
				c0.1,0,0.1-0.1,0.2-0.1c0.4,0,0.7-0.1,1.1-0.1C67.3,60.4,66.9,60.6,66.5,60.6z M67.8,59.7c-0.1,0-0.1,0-0.1,0c0.1,0,0.2,0,0.3,0
				C67.9,59.7,67.9,59.7,67.8,59.7z M70,59.5C70,59.5,70,59.5,70,59.5c0.1,0,0.2,0,0.3-0.1C70.2,59.5,70.1,59.5,70,59.5z"/>
		</g>
	</g>
	<g>
		<path class="st0" d="M44.8,26.6c4.8-1.3,9.7-2,14.7-2.3c2.3-0.2,4.7-0.3,7-0.4c1.2-0.1,2.4-0.1,3.7-0.1c1,0,2.9-0.3,3.6,0.4
			c0.7,0.6,1.7-0.4,1-1c-1.4-1.3-4.4-0.9-6.2-0.8c-2.8,0.1-5.5,0.3-8.3,0.4c-5.3,0.4-10.7,1-15.8,2.4C43.5,25.5,43.9,26.8,44.8,26.6
			L44.8,26.6z"/>
	</g>
	<g>
		<g>
			<path class="st1" d="M50.6,33.2c0,0-0.1,0-0.1,0c0,0.1,0,0.3-0.1,0.4c0.1,0,0.1,0,0.2,0C50.6,33.5,50.6,33.4,50.6,33.2z"/>
		</g>
		<g>
			<path class="st1" d="M38.8,35.5c0.1,0,0.3,0,0.5,0c0,0,0,0,0,0C39.1,35.5,38.9,35.5,38.8,35.5z"/>
		</g>
		<g>
			<path class="st1" d="M50.3,24c3.7-0.4,7.4-0.7,11.1-0.9c0.1,0,0.1-0.1,0.2-0.1c0.1,0,0.3-0.1,0.4-0.1c0,0,0.1-0.1,0.1-0.1
				c0-0.1,0.1-0.1,0.1-0.1c-3.3,0.3-6.7,0.7-9.9,1.1C51.6,23.9,51,23.9,50.3,24z"/>
		</g>
		<g>
			<path class="st1" d="M74,22.3c0.1,0,0.3,0,0.3,0.1l0,0c0.1,0,0.2-0.1,0.3-0.1c0.1,0,0.3,0,0.5,0c-0.4,0-0.8,0-1.3-0.1
				C73.8,22.3,73.9,22.3,74,22.3z"/>
		</g>
		<g>
			<path class="st0" d="M89.5,24.3c-5.8-1.8-12-2.5-18.1-2.4c-6.3,0-12.6,0.7-18.9,1.5S39.8,25,33.8,26.9c-0.9,0.3-1.9,0.7-2.9,1.1
				c-1,0.4-1.9,1-2.7,1.7c-2.6,2-4.3,4.7-3,8.2c0.1,0.2,0.3,0.1,0.3,0c0.3,0.1,0.6,0,0.8-0.2c0.3,0,0.6-0.1,0.9-0.1
				c0.3,0,0.5,0,0.8-0.1l0,0c8.5-0.5,17.1-1,25.6-1.5c7.2,0.5,14.5,0.7,21.7,0.6c5.6-0.1,11.8,0.3,17.3-1.6c0.9-0.1,1.7-0.2,2.5-0.3
				c0.9-0.1,2.4-0.2,3.3-0.8c0.2,0,0.4-0.1,0.5-0.1c0.1,0,0.1-0.1,0.1-0.2C99.4,28.3,93.8,25.7,89.5,24.3z M38.8,35.5
				c0.1,0,0.3,0,0.4-0.1c0,0,0,0,0,0C39.1,35.5,38.9,35.5,38.8,35.5z M50.4,33.7c0.1-0.1,0.1-0.3,0.1-0.4c0,0,0.1,0,0.1,0
				c0,0.1,0,0.3,0,0.4C50.6,33.7,50.5,33.7,50.4,33.7z M62.1,22.8C62,22.9,62,22.9,62.1,22.8C61.9,23,61.7,23,61.6,23
				c-0.1,0-0.1,0.1-0.2,0.1c-3.7,0.2-7.4,0.5-11.1,0.9c0.6-0.1,1.3-0.2,1.9-0.2c3.3-0.4,6.6-0.8,9.9-1.1
				C62.1,22.8,62.1,22.8,62.1,22.8z M74.6,22.3c-0.1,0-0.2,0-0.3,0.1l0,0c-0.1-0.1-0.2-0.1-0.3-0.1c-0.1,0-0.1,0-0.2,0
				c0.4,0,0.8,0,1.3,0.1C74.9,22.3,74.7,22.3,74.6,22.3z"/>
		</g>
	</g>
	<g>
		<path class="st0" d="M73.6,23.9c0.4,0,0.9-0.1,1.3-0.1c0.9-0.1,0.9-1.4,0-1.4c-0.5,0-0.9-0.1-1.3-0.2c0,0.5,0,0.9,0,1.4
			c0.5-0.1,0.9-0.2,1.4-0.2c0-0.5,0-0.9,0-1.4c-0.3,0-0.5,0-0.8,0c-0.1,0.5-0.1,0.9-0.2,1.4c0.3,0,0.5,0,0.8,0.1
			c-0.1-0.3-0.3-0.7-0.4-1.1c0,0,0,0,0,0c-0.8,0.5-0.1,1.7,0.7,1.2c0.2-0.1,0.4-0.3,0.5-0.5c0.3-0.4,0-0.9-0.4-1.1
			c-0.4-0.1-0.8-0.2-1.2-0.2c-0.3,0-0.7,0.3-0.7,0.6c0,0.3,0.2,0.7,0.5,0.8c0.4,0.1,0.8,0.1,1.2,0.1c0.4-0.1,0.7-0.3,0.7-0.7
			c0-0.4-0.3-0.7-0.7-0.7c-0.6,0-1.2,0.1-1.8,0.3c-0.7,0.2-0.7,1.2,0,1.4c0.6,0.1,1.1,0.2,1.7,0.2c0-0.5,0-0.9,0-1.4
			c-0.4,0-0.9,0.1-1.3,0.1c-0.4,0-0.7,0.3-0.7,0.7C72.9,23.6,73.2,24,73.6,23.9L73.6,23.9z"/>
	</g>
	<g>
		<path class="st0" d="M53.3,35.2c0.3-0.1,0.5-0.1,0.7,0c-0.2-0.4-0.3-0.8-0.5-1.2c-0.1,0.1-0.3,0.2-0.4,0.3
			c-0.3,0.1-0.5,0.4-0.5,0.7c0,0.3,0.2,0.6,0.5,0.7c0.3,0.1,0.6,0.1,0.9,0.1c-0.1-0.4-0.1-0.9-0.2-1.3c-0.1,0.1-0.1,0.1-0.3,0.1
			c0,0.5,0,0.9,0,1.4c0.1,0,0.2,0,0.3,0c-0.1-0.4-0.1-0.9-0.2-1.3c-0.1,0-0.1,0-0.2,0c0,0.5,0,0.9,0,1.4c0.2,0,0.3,0,0.5,0
			c-0.1-0.5-0.2-0.9-0.4-1.3c0.1,0,0.1,0,0.2,0c0,0.5,0,0.9,0,1.4c0.4-0.1,0.8-0.2,1.2-0.4c0.9-0.3,0.5-1.6-0.4-1.4
			c-0.4,0.1-0.8,0.2-1.2,0.4c-0.7,0.2-0.7,1.2,0,1.4c0.3,0.1,0.6,0.1,0.9-0.1c0.6-0.3,0.3-1.3-0.4-1.3c-0.2,0-0.3,0-0.5,0
			c-0.9,0-0.9,1.4,0,1.4c0.3,0,0.6-0.1,0.9-0.2c0.6-0.3,0.4-1.1-0.2-1.3c-0.2-0.1-0.5-0.1-0.7-0.1c-0.4,0-0.7,0.3-0.7,0.7
			c0,0.4,0.3,0.7,0.7,0.7c0.3,0,0.7-0.1,1-0.3c0.5-0.3,0.5-1.2-0.2-1.3c-0.3-0.1-0.6-0.1-0.9-0.1c0,0.5,0,0.9,0,1.4
			c0.4-0.1,0.8-0.3,1.1-0.7c0.5-0.5,0.1-1.1-0.5-1.2c-0.4-0.1-0.7,0-1.1,0.1C52,34,52.3,35.4,53.3,35.2L53.3,35.2z"/>
	</g>
	<g>
		<path class="st0" d="M45,23.7c5.2-0.9,10.4-1.9,15.7-2.3c5.1-0.5,10.3-0.3,15.4,0c0.2,0,0.2-0.3,0-0.3c-5.3-0.3-10.7-0.5-16,0.1
			C55,21.6,50,22.5,44.9,23.4C44.7,23.4,44.8,23.8,45,23.7L45,23.7z"/>
	</g>
	<g>
		<path class="st0" d="M45.2,23.7c0,0,0.1,0,0.1,0c0.1,0,0.1-0.1,0.1-0.2c0,0,0-0.1,0-0.1c0-0.1-0.1-0.2-0.2-0.2c0,0-0.1,0-0.1,0
			c-0.1,0-0.1,0.1-0.2,0.1c0,0,0,0.1-0.1,0.1C44.9,23.7,45.2,23.8,45.2,23.7c0.2-0.2,0.3-0.4,0.4-0.5c-0.1-0.1-0.2-0.2-0.3-0.3
			c-0.1,0.1-0.2,0.2-0.3,0.3c-0.2,0.2,0.1,0.4,0.3,0.3c0.6-0.6,1.3-1.1,1.9-1.7c-0.1-0.1-0.2-0.2-0.3-0.3c-0.4,0.4-0.9,0.8-1.3,1.2
			c-0.1,0.1,0.1,0.4,0.2,0.3c0.5-0.3,0.9-0.5,1.3-0.8c0.2-0.1,0-0.4-0.2-0.3c-0.5,0.3-1,0.6-1.5,0.9c-0.2,0.1-0.1,0.4,0.1,0.3
			c0.6-0.1,1.1-0.3,1.6-0.5c-0.1-0.1-0.1-0.2-0.1-0.3c-0.5,0.3-1.1,0.5-1.6,0.7c-0.2,0.1-0.1,0.4,0.1,0.3c0.5-0.1,1-0.3,1.5-0.4
			c0-0.1-0.1-0.2-0.1-0.3c-0.4,0.1-0.9,0.3-1.3,0.4c-0.2,0.1-0.1,0.4,0.1,0.3c0.5-0.1,0.9-0.2,1.4-0.3c0.2-0.1,0.1-0.4-0.1-0.3
			c-0.5,0-0.9,0.1-1.3,0.1c0,0.1,0,0.2,0.1,0.3c1.5-0.3,3.1-0.6,4.6-0.9c0.2,0,0.1-0.4-0.1-0.3c-1.3,0.2-2.5,0.5-3.8,0.7
			c0,0.1,0.1,0.2,0.1,0.3c1.4-0.3,2.8-0.5,4.2-0.6c0-0.1,0-0.2-0.1-0.3c-1.3,0.4-2.7,0.7-4.1,0.8c-0.2,0-0.2,0.4,0,0.3
			c0.9,0,1.7-0.1,2.6-0.2c0.2,0,0.1-0.4-0.1-0.3c-0.9,0.1-1.8,0.3-2.7,0.4c0,0.1,0.1,0.2,0.1,0.3c1.6-0.4,3.3-0.8,4.9-1.2
			c0.2-0.1,0.1-0.4-0.1-0.3c-1.3,0.1-2.7,0.3-4,0.5c0,0.1,0,0.2,0.1,0.3c1.2-0.4,2.4-0.7,3.6-1c0.2-0.1,0.1-0.4-0.1-0.3
			c-1.1,0.3-2.3,0.6-3.4,0.8c0,0.1,0.1,0.2,0.1,0.3c1.2-0.4,2.5-0.7,3.7-1.1c0.2-0.1,0.1-0.4-0.1-0.3c-1.3,0.3-2.5,0.7-3.8,1.3
			c-0.2,0.1-0.1,0.4,0.1,0.3c1.2-0.5,2.4-0.9,3.6-1.4c0.2-0.1,0.1-0.4-0.1-0.3c-1.4,0.4-2.7,0.8-4,1.3c-0.2,0.1-0.1,0.4,0.1,0.3
			c1.1-0.4,2.2-0.9,3.3-1.4c0.2-0.1,0.1-0.4-0.1-0.3c-1.1,0.3-2,0.6-3,1.1c-0.2,0.1-0.1,0.4,0.1,0.3c1-0.4,2-0.8,3.1-1.2
			c0.2-0.1,0.1-0.4-0.1-0.3c-1,0.2-1.8,0.5-2.7,1c-0.2,0.1,0,0.4,0.2,0.3c0.9-0.4,1.7-0.8,2.6-1.2c0.2-0.1,0.1-0.4-0.1-0.3
			c-1.2,0.3-2.2,0.8-3.1,1.5c-0.2,0.1,0,0.4,0.2,0.3c0.8-0.3,1.5-0.7,2.2-1.2c0.2-0.1,0.1-0.4-0.1-0.3c-0.9,0.3-1.6,0.6-2.4,1.1
			c-0.2,0.1-0.1,0.4,0.1,0.3c0.8-0.3,1.6-0.7,2.3-1.2c0.2-0.1,0.1-0.4-0.1-0.3c-0.7,0.1-1.3,0.3-1.9,0.6c0.1,0.1,0.1,0.2,0.2,0.3
			c0.6-0.3,1.2-0.7,1.7-1c0.2-0.1,0-0.4-0.2-0.3c-0.9,0.4-1.6,0.9-2.4,1.5c-0.2,0.1,0,0.4,0.2,0.3c0.7-0.4,1.3-0.7,2-1.1
			c-0.1-0.1-0.1-0.2-0.2-0.3c-0.6,0.3-1.3,0.7-1.9,1.1c-0.2,0.1,0,0.4,0.2,0.3c0.9-0.4,1.6-0.9,2.4-1.4c0.1-0.1,0.1-0.4-0.1-0.3
			c-0.9,0.3-1.6,0.7-2.3,1.4c-0.2,0.1,0,0.3,0.2,0.3c0.5-0.2,0.9-0.5,1.4-0.8c0.1-0.1,0.1-0.4-0.1-0.3c-0.8,0.3-1.4,0.7-2,1.3
			c-0.1,0.1,0,0.4,0.2,0.3c0.5-0.2,0.9-0.4,1.3-0.6c-0.1-0.1-0.1-0.2-0.2-0.3c-0.3,0.2-0.7,0.4-1,0.5c-0.2,0.1-0.1,0.4,0.1,0.3
			c0.3-0.1,0.6-0.2,0.9-0.3c0.2-0.1,0.1-0.4-0.1-0.3c-0.3,0-0.7,0.1-0.9,0.3c0.1,0.1,0.1,0.2,0.2,0.3c0.2-0.2,0.5-0.4,0.7-0.6
			c0.1-0.1,0-0.3-0.2-0.3c-0.3,0.1-0.6,0.2-0.9,0.3c0.1,0.1,0.1,0.2,0.1,0.3c0.9-0.5,1.8-1.1,2.6-1.8c0.2-0.1-0.1-0.3-0.2-0.3
			c-1,0.4-1.8,1-2.6,1.7c-0.1,0.1,0,0.4,0.2,0.3c0.8-0.5,1.4-1,2-1.6c0.1-0.1,0-0.4-0.2-0.3c-0.7,0.4-1.3,0.8-1.8,1.3
			c-0.1,0.1,0.1,0.4,0.2,0.3c0.7-0.4,1.2-0.8,1.8-1.3c0.1-0.1-0.1-0.4-0.2-0.3c-0.5,0.3-0.9,0.6-1.3,0.9c-0.2,0.1,0,0.4,0.2,0.3
			c1.3-0.7,2.6-1.4,3.8-2.2c0.2-0.1,0-0.4-0.2-0.3c-0.6,0.3-1.3,0.5-1.9,0.8c0.1,0.1,0.1,0.2,0.2,0.3c1-0.4,1.9-0.9,2.9-1.3
			c-0.1-0.1-0.1-0.2-0.2-0.3c-1.4,0.7-2.7,1.3-4.1,2c-0.2,0.1-0.1,0.4,0.1,0.3c1.5-0.6,2.9-1.3,4.3-2c0.2-0.1,0-0.4-0.2-0.3
			c-1.1,0.5-2.2,1.1-3.3,1.6c0.1,0.1,0.1,0.2,0.2,0.3c1-0.6,2-1.2,3-1.8c0.2-0.1,0-0.4-0.2-0.3c-0.9,0.5-1.8,0.9-2.7,1.4
			c-0.2,0.1-0.1,0.4,0.1,0.3c1-0.4,2-0.9,2.9-1.4c0.2-0.1,0-0.4-0.2-0.3c-1.2,0.5-2.3,1.1-3.4,1.6c-0.2,0.1-0.1,0.4,0.1,0.3
			c1.4-0.4,2.7-0.9,3.9-1.6c0.2-0.1,0.1-0.4-0.1-0.3c-1.2,0.4-2.2,0.9-3.2,1.7c-0.1,0.1-0.1,0.4,0.1,0.3c0.6-0.2,1.2-0.4,1.7-0.6
			c-0.1-0.1-0.1-0.2-0.1-0.3c-0.9,0.4-1.8,0.9-2.6,1.3c-0.2,0.1-0.1,0.4,0.1,0.3c1.4-0.5,2.8-1.1,4.1-1.6c0.2-0.1,0.1-0.4-0.1-0.3
			C52,19,50.7,19.5,49.4,20c-0.2,0.1-0.1,0.4,0.1,0.3c1.7-0.4,3.4-0.9,5.1-1.3c0-0.1-0.1-0.2-0.1-0.3c-1.8,0.5-3.5,0.9-5.3,1.5
			c-0.2,0.1-0.1,0.4,0.1,0.3c2.3-0.5,4.7-1,7-1.3c0-0.1-0.1-0.2-0.1-0.3c-2.3,0.6-4.7,1.1-7,1.7c-0.2,0.1-0.1,0.4,0.1,0.3
			c2.4-0.5,4.9-1,7.4-1.5c0-0.1-0.1-0.2-0.1-0.3c-2,0.4-4,0.8-5.9,1.3c0,0.1,0.1,0.2,0.1,0.3c1.5-0.6,3.1-0.9,4.7-1.1
			c0-0.1,0-0.2-0.1-0.3c-1.9,0.6-3.8,1.1-5.7,1.6c-0.2,0.1-0.1,0.4,0.1,0.3c1.4-0.3,2.9-0.6,4.4-0.9c0-0.1-0.1-0.2-0.1-0.3
			c-1.1,0.2-2.1,0.5-3.2,0.7c0,0.1,0.1,0.2,0.1,0.3c0.8-0.3,1.5-0.6,2.3-1.1c0.1-0.1,0.1-0.3-0.1-0.3c-1.1,0.1-2.1,0.3-3.1,0.7
			c0,0.1,0.1,0.2,0.1,0.3c0.8-0.3,1.6-0.5,2.4-0.8c0.2-0.1,0.2-0.3-0.1-0.3c-0.8,0-1.5,0.2-2.2,0.6c-0.2,0.1-0.1,0.4,0.1,0.3
			c0.8-0.2,1.5-0.5,2.2-0.8c0.2-0.1,0.1-0.4-0.1-0.3c-1.3,0.3-2.4,0.8-3.5,1.4C48.9,20.8,49,21,49.2,21c1.7-0.3,3.4-0.6,5.1-0.9
			c0-0.1-0.1-0.2-0.1-0.3c-1.3,0.3-2.7,0.6-4,0.9c0,0.1,0.1,0.2,0.1,0.3c1.6-0.5,3.1-0.8,4.7-0.9c0-0.1,0-0.2-0.1-0.3
			c-1.7,0.6-3.5,1-5.3,1.2c0,0.1,0,0.2,0.1,0.3c1.8-0.5,3.7-0.8,5.6-1.1c0-0.1-0.1-0.2-0.1-0.3c-1.7,0.5-3.4,1-5.2,1.4
			c-0.2,0.1-0.1,0.4,0.1,0.3c2-0.4,4-0.8,6-1.2c0.2-0.1,0.1-0.4-0.1-0.3c-1.8,0.3-3.7,0.6-5.5,1c-0.2,0.1-0.1,0.4,0.1,0.3
			c1.8-0.4,3.7-0.7,5.5-0.9c0-0.1,0-0.2-0.1-0.3c-2,0.4-4,0.8-6.1,1.3C49.9,21.7,50,22,50.2,22c1.8-0.3,3.7-0.7,5.6-1.1
			c0-0.1-0.1-0.2-0.1-0.3c-1.9,0.5-3.9,0.9-5.9,1.2c0,0.1,0.1,0.2,0.1,0.3c1.8-0.4,3.6-0.7,5.5-1c0-0.1-0.1-0.2-0.1-0.3
			c-1.7,0.3-3.4,0.6-5.1,0.9C50,21.7,50.2,22,50.4,22c1.4-0.2,2.8-0.4,4.2-0.6c0-0.1-0.1-0.2-0.1-0.3c-1.3,0.2-2.6,0.5-3.9,0.7
			c0,0.1,0.1,0.2,0.1,0.3c1.6-0.4,3.2-0.7,4.7-0.9c0.2,0,0.1-0.4-0.1-0.3c-1.2,0.2-2.4,0.4-3.6,0.8c-0.2,0.1-0.1,0.4,0.1,0.3
			c1.3-0.2,2.6-0.5,4-0.7c0-0.1-0.1-0.2-0.1-0.3c-1.4,0.3-2.8,0.5-4.3,0.8c0,0.1,0.1,0.2,0.1,0.3c1.3-0.3,2.6-0.6,4-0.8
			c0-0.1-0.1-0.2-0.1-0.3c-1.4,0.3-2.8,0.6-4.2,0.9c-0.2,0.1-0.1,0.4,0.1,0.3c1.4-0.2,2.9-0.5,4.3-0.8c0.2-0.1,0.1-0.4-0.1-0.3
			c-1.1,0.2-2.1,0.4-3.1,0.6c0,0.1,0.1,0.2,0.1,0.3c1.3-0.3,2.5-0.5,3.7-0.7c0-0.1-0.1-0.2-0.1-0.3c-1,0.2-2,0.4-3,0.6
			C52.9,21.7,53,22,53.2,22c1.3-0.2,2.5-0.4,3.8-0.7c0.2,0,0.1-0.4-0.1-0.3c-1,0.1-1.9,0.2-2.9,0.4c-0.2,0.1-0.1,0.4,0.1,0.3
			c1.5-0.3,3.1-0.6,4.7-0.9c0-0.1-0.1-0.2-0.1-0.3c-1.5,0.3-3,0.5-4.5,0.8c-0.2,0-0.1,0.4,0.1,0.3c2.1-0.1,4.3-0.3,6.4-0.5
			c0-0.1,0-0.2-0.1-0.3c-1.3,0.3-2.7,0.5-4.1,0.5c0,0.1,0,0.2,0.1,0.3c1.3-0.2,2.6-0.4,4-0.6c0.2,0,0.1-0.4-0.1-0.3
			c-2.5,0.2-5.1,0.5-7.6,0.9c0,0.1,0.1,0.2,0.1,0.3c2.3-0.5,4.6-0.8,7-1.1c0.2,0,0.2-0.4,0-0.3c-2.1,0.2-4.1,0.5-6.2,0.7
			c-0.2,0-0.2,0.4,0,0.3c1.4-0.1,2.8-0.3,4.2-0.4c0-0.1,0-0.2-0.1-0.3c-1.3,0.3-2.5,0.5-3.8,0.6c-0.2,0-0.2,0.4,0,0.3
			c1.1-0.1,2.3-0.2,3.4-0.3c0-0.1,0-0.2,0-0.3c-1,0.1-2,0.3-3,0.4c0,0.1,0,0.2,0.1,0.3c0.9-0.2,1.7-0.3,2.5-0.3c0-0.1,0-0.2-0.1-0.3
			c-0.8,0.2-1.5,0.3-2.3,0.4c0,0.1,0,0.2,0.1,0.3c0.7-0.1,1.4-0.2,2.2-0.2c0-0.1,0-0.2,0-0.3c-1.2,0.1-2.4,0.2-3.6,0.3
			c0,0.1,0,0.2,0.1,0.3c4-0.8,8-1.3,12-1.6c0.2,0,0.2-0.4,0-0.3c-3,0.2-6.1,0.4-9.1,0.5c0,0.1,0,0.2,0,0.3c2.4-0.2,4.8-0.4,7.2-0.6
			c0-0.1,0-0.2,0-0.3c-2.5,0.3-5,0.4-7.5,0.3c0,0.1,0,0.2,0.1,0.3c2-0.3,4-0.4,6-0.4c0-0.1,0-0.2,0-0.3c-2.1,0.2-4.3,0.4-6.4,0.5
			c0,0.1,0,0.2,0.1,0.3c1.5-0.3,3.1-0.4,4.6-0.5c0-0.1,0-0.2,0-0.3c-1.3,0.1-2.5,0.3-3.7,0.5c-0.2,0-0.2,0.4,0,0.3
			c0.7-0.1,1.5-0.1,2.2-0.2c0.2,0,0.2-0.4,0-0.3c-1.2,0.1-2.3,0.2-3.5,0.4c-0.2,0-0.1,0.4,0.1,0.3c1-0.1,2-0.1,3-0.2
			c0-0.1,0-0.2-0.1-0.3c-0.9,0.1-1.9,0.3-2.8,0.5c-0.2,0-0.1,0.4,0.1,0.3c0.6-0.1,1.2-0.1,1.7-0.2c0.2,0,0.2-0.4,0-0.3
			c-0.5,0-1.1,0-1.6,0.1c0,0.1,0,0.2,0.1,0.3c1.4-0.4,2.7-0.8,4.1-1.3c0.2-0.1,0.1-0.4-0.1-0.3c-1.9,0.3-3.8,0.6-5.7,1
			c-0.2,0.1-0.1,0.4,0.1,0.3c2.2-0.3,4.3-0.7,6.5-0.9c0-0.1,0-0.2-0.1-0.3c-2,0.4-4.1,0.8-6.2,1.1c0,0.1,0.1,0.2,0.1,0.3
			c1.6-0.4,3.3-0.7,4.9-1.1c0.2-0.1,0.1-0.4-0.1-0.3c-1.6,0.2-3.2,0.3-4.8,0.5c0,0.1,0,0.2,0.1,0.3c1.5-0.3,3-0.6,4.5-0.9
			c0.2-0.1,0.1-0.4-0.1-0.3c-1.6,0.2-3.2,0.5-4.7,0.7c0,0.1,0.1,0.2,0.1,0.3c1.5-0.3,3-0.6,4.5-0.8c0.2,0,0.1-0.4-0.1-0.3
			c-1.5,0.1-3,0.4-4.4,0.6c0,0.1,0.1,0.2,0.1,0.3c1.6-0.3,3.2-0.6,4.9-0.9c0.2,0,0.1-0.4-0.1-0.3c-1.5,0.1-3.1,0.3-4.6,0.6
			c0,0.1,0.1,0.2,0.1,0.3c1.4-0.3,2.8-0.5,4.2-0.8c0.2,0,0.1-0.4-0.1-0.3c-1.5,0.2-3.1,0.3-4.6,0.5c0,0.1,0,0.2,0.1,0.3
			c1.4-0.3,2.8-0.6,4.3-0.9c0.2,0,0.1-0.4-0.1-0.3c-1.8,0.2-3.5,0.5-5.2,1c-0.2,0.1-0.1,0.4,0.1,0.3c1.6-0.3,3.3-0.6,4.9-1
			c0.2-0.1,0.1-0.4-0.1-0.3c-1.8,0.2-3.6,0.5-5.3,0.9c-0.2,0.1-0.1,0.4,0.1,0.3c1.7-0.3,3.4-0.8,5.1-1.3c0.2-0.1,0.2-0.4-0.1-0.3
			c-1.4,0.1-2.7,0.3-4.1,0.6c-0.2,0-0.1,0.4,0.1,0.3c0.9-0.2,1.8-0.3,2.7-0.5c0.2,0,0.1-0.4-0.1-0.3c-1.2,0.1-2.4,0.3-3.5,0.4
			c-0.2,0-0.2,0.4,0,0.3c1.2-0.1,2.4-0.3,3.5-0.4c0-0.1,0-0.2-0.1-0.3c-0.9,0.2-1.8,0.3-2.7,0.5c0,0.1,0.1,0.2,0.1,0.3
			c1.3-0.3,2.6-0.4,4-0.5c0-0.1,0-0.2-0.1-0.3c-1.7,0.5-3.4,0.9-5.1,1.3c0,0.1,0.1,0.2,0.1,0.3c1.7-0.4,3.5-0.7,5.3-0.9
			c0-0.1,0-0.2-0.1-0.3c-1.6,0.4-3.2,0.7-4.9,1c0,0.1,0.1,0.2,0.1,0.3c1.7-0.4,3.4-0.7,5.1-1c0-0.1,0-0.2-0.1-0.3
			c-1.4,0.3-2.8,0.6-4.3,0.9c-0.2,0-0.1,0.4,0.1,0.3c1.5-0.2,3.1-0.3,4.6-0.5c0-0.1,0-0.2-0.1-0.3c-1.4,0.3-2.8,0.5-4.2,0.8
			c-0.2,0-0.1,0.4,0.1,0.3c1.5-0.2,3-0.4,4.5-0.5c0-0.1,0-0.2-0.1-0.3c-1.6,0.3-3.2,0.6-4.9,0.9c-0.2,0-0.1,0.4,0.1,0.3
			c1.4-0.3,2.9-0.5,4.3-0.6c0-0.1,0-0.2-0.1-0.3c-1.5,0.3-3,0.6-4.5,0.8c-0.2,0-0.1,0.4,0.1,0.3c1.6-0.2,3.2-0.5,4.7-0.7
			c0-0.1-0.1-0.2-0.1-0.3c-1.5,0.3-3,0.6-4.5,0.9c-0.2,0-0.1,0.4,0.1,0.3c1.6-0.2,3.2-0.3,4.8-0.5c0-0.1,0-0.2-0.1-0.3
			c-1.6,0.4-3.3,0.7-4.9,1.1c-0.2,0.1-0.1,0.4,0.1,0.3c2-0.4,4.1-0.7,6.2-1.1c0.2,0,0.1-0.4-0.1-0.3c-2.2,0.2-4.4,0.5-6.6,0.9
			c0,0.1,0.1,0.2,0.1,0.3c1.9-0.4,3.8-0.7,5.7-1c0-0.1-0.1-0.2-0.1-0.3c-1.4,0.4-2.7,0.8-4.1,1.3c-0.2,0.1-0.2,0.4,0.1,0.3
			c0.5,0,1.1,0,1.6-0.1c0-0.1,0-0.2,0-0.3c-0.6,0.1-1.2,0.1-1.7,0.2c0,0.1,0,0.2,0.1,0.3c0.9-0.1,1.9-0.3,2.8-0.5
			c0.2,0,0.1-0.4-0.1-0.3c-1,0.1-2,0.1-3,0.2c0,0.1,0,0.2,0.1,0.3c1.1-0.2,2.2-0.3,3.4-0.4c0-0.1,0-0.2,0-0.3
			c-0.7,0.1-1.5,0.1-2.2,0.2c0,0.1,0,0.2,0,0.3c1.3-0.1,2.5-0.3,3.7-0.5c0.2,0,0.2-0.4,0-0.3c-1.6,0.1-3.2,0.3-4.7,0.5
			c-0.2,0-0.1,0.4,0.1,0.3c2.1-0.1,4.3-0.3,6.4-0.5c0.2,0,0.2-0.3,0-0.3c-2,0-4.1,0.1-6.1,0.4c-0.2,0-0.1,0.3,0.1,0.3
			c2.5,0.1,5-0.1,7.5-0.3c0.2,0,0.2-0.4,0-0.3c-2.4,0.2-4.8,0.4-7.2,0.6c-0.2,0-0.2,0.4,0,0.3c3-0.2,6.1-0.4,9.1-0.5
			c0-0.1,0-0.2,0-0.3C61,20.6,57,21.2,53,21.9c-0.2,0-0.1,0.4,0.1,0.3c1.2-0.1,2.4-0.2,3.6-0.3c0.2,0,0.2-0.4,0-0.3
			c-0.8,0-1.5,0.1-2.3,0.2c-0.2,0-0.1,0.4,0.1,0.3c0.8-0.1,1.6-0.2,2.4-0.4c0.2-0.1,0.2-0.4-0.1-0.3c-0.9,0.1-1.8,0.2-2.6,0.3
			c-0.2,0-0.1,0.4,0.1,0.3c1-0.1,2-0.3,3-0.4c0.2,0,0.2-0.4,0-0.3c-1.1,0.1-2.3,0.2-3.4,0.3c0,0.1,0,0.2,0,0.3
			c1.3-0.2,2.6-0.4,3.9-0.6c0.2,0,0.1-0.4-0.1-0.3c-1.4,0.1-2.8,0.3-4.2,0.4c0,0.1,0,0.2,0,0.3c2.1-0.2,4.1-0.5,6.2-0.7
			c0-0.1,0-0.2,0-0.3c-2.4,0.3-4.7,0.7-7,1.1c-0.2,0.1-0.1,0.4,0.1,0.3c2.5-0.4,5-0.7,7.4-0.9c0-0.1,0-0.2-0.1-0.3
			c-1.3,0.2-2.6,0.4-4,0.6C56,21.7,56,22,56.2,22c1.4,0,2.8-0.2,4.2-0.5c0.2-0.1,0.1-0.4-0.1-0.3c-2.1,0.1-4.3,0.3-6.4,0.5
			c0,0.1,0,0.2,0.1,0.3c1.5-0.3,3-0.5,4.5-0.8c0.2,0,0.1-0.4-0.1-0.3c-1.6,0.2-3.1,0.5-4.7,0.9c0,0.1,0.1,0.2,0.1,0.3
			c0.9-0.2,1.8-0.4,2.8-0.4c0-0.1,0-0.2-0.1-0.3c-1.3,0.2-2.5,0.4-3.8,0.7c0,0.1,0.1,0.2,0.1,0.3c1-0.2,2-0.4,3-0.6
			c0.2-0.1,0.1-0.4-0.1-0.3c-1.3,0.2-2.5,0.4-3.7,0.7c-0.2,0.1-0.1,0.4,0.1,0.3c1.1-0.2,2.1-0.4,3.1-0.6c0-0.1-0.1-0.2-0.1-0.3
			c-1.4,0.3-2.8,0.6-4.3,0.8c0,0.1,0.1,0.2,0.1,0.3c1.4-0.3,2.8-0.6,4.2-0.9c0.2-0.1,0.1-0.4-0.1-0.3c-1.3,0.2-2.6,0.5-4,0.8
			c-0.2,0.1-0.1,0.4,0.1,0.3c1.4-0.3,2.8-0.5,4.3-0.8c0.2-0.1,0.1-0.4-0.1-0.3c-1.3,0.2-2.6,0.5-4,0.7c0,0.1,0.1,0.2,0.1,0.3
			c1.2-0.3,2.3-0.6,3.5-0.7c0-0.1,0-0.2-0.1-0.3c-1.6,0.2-3.2,0.5-4.7,0.9c-0.2,0.1-0.1,0.4,0.1,0.3c1.3-0.3,2.6-0.5,3.9-0.7
			c0.2,0,0.1-0.4-0.1-0.3c-1.4,0.2-2.8,0.4-4.2,0.6c0,0.1,0.1,0.2,0.1,0.3c1.7-0.3,3.4-0.7,5.1-0.9c0.2,0,0.1-0.4-0.1-0.3
			c-1.8,0.3-3.6,0.6-5.5,1c-0.2,0.1-0.1,0.4,0.1,0.3c2-0.3,3.9-0.7,5.9-1.2c0.2-0.1,0.1-0.4-0.1-0.3c-1.8,0.3-3.7,0.7-5.6,1.1
			c0,0.1,0.1,0.2,0.1,0.3c2-0.5,4-0.9,6.1-1.3c0.2,0,0.1-0.4-0.1-0.3c-1.9,0.2-3.8,0.5-5.6,0.9c0,0.1,0.1,0.2,0.1,0.3
			c1.8-0.4,3.6-0.7,5.5-1c0-0.1-0.1-0.2-0.1-0.3c-2,0.4-4,0.8-6,1.2c0,0.1,0.1,0.2,0.1,0.3c1.7-0.5,3.4-1,5.2-1.4
			c0.2-0.1,0.1-0.4-0.1-0.3c-1.9,0.3-3.8,0.6-5.6,1.1c-0.2,0.1-0.1,0.4,0.1,0.3c1.8-0.2,3.6-0.6,5.4-1.2c0.2-0.1,0.2-0.4-0.1-0.3
			c-1.6,0.1-3.2,0.4-4.8,0.9c-0.2,0.1-0.1,0.4,0.1,0.3c1.3-0.3,2.7-0.6,4-0.9c0.2-0.1,0.1-0.4-0.1-0.3c-1.7,0.3-3.4,0.6-5.1,0.9
			c0.1,0.1,0.1,0.2,0.1,0.3c1.1-0.6,2.2-1.1,3.4-1.4c0-0.1-0.1-0.2-0.1-0.3c-0.7,0.3-1.5,0.6-2.2,0.8c0.1,0.1,0.1,0.2,0.1,0.3
			c0.7-0.4,1.3-0.5,2.1-0.5c0-0.1,0-0.2-0.1-0.3c-0.8,0.3-1.6,0.5-2.4,0.8c-0.2,0.1-0.1,0.4,0.1,0.3c1-0.3,2-0.5,3-0.6
			c0-0.1-0.1-0.2-0.1-0.3c-0.7,0.4-1.4,0.8-2.2,1.1c-0.2,0.1-0.1,0.4,0.1,0.3c1.1-0.2,2.1-0.5,3.2-0.7c0.2-0.1,0.1-0.4-0.1-0.3
			c-1.4,0.3-2.9,0.6-4.4,0.9c0,0.1,0.1,0.2,0.1,0.3c1.9-0.5,3.8-1,5.7-1.6c0.2-0.1,0.2-0.4-0.1-0.3c-1.7,0.1-3.2,0.5-4.8,1.1
			c-0.2,0.1-0.1,0.4,0.1,0.3c2-0.4,4-0.8,5.9-1.3c0.2-0.1,0.1-0.4-0.1-0.3c-2.4,0.5-4.9,0.9-7.4,1.5c0,0.1,0.1,0.2,0.1,0.3
			c2.3-0.6,4.7-1.1,7-1.7c0.2-0.1,0.1-0.4-0.1-0.3c-2.4,0.3-4.7,0.8-7,1.3c0,0.1,0.1,0.2,0.1,0.3c1.8-0.5,3.5-1,5.3-1.5
			c0.2-0.1,0.1-0.4-0.1-0.3c-1.7,0.4-3.4,0.9-5.1,1.3c0.1,0.1,0.1,0.2,0.1,0.3c1.2-0.5,2.4-1,3.7-1.4c0-0.1-0.1-0.2-0.1-0.3
			c-1.4,0.5-2.8,1.1-4.1,1.6c0.1,0.1,0.1,0.2,0.1,0.3c0.9-0.4,1.8-0.9,2.6-1.3c0.2-0.1,0.1-0.4-0.1-0.3c-0.6,0.2-1.2,0.4-1.7,0.6
			c0.1,0.1,0.1,0.2,0.1,0.3c1-0.7,2-1.3,3.1-1.6c-0.1-0.1-0.1-0.2-0.1-0.3c-1.3,0.6-2.5,1.1-3.8,1.5c0.1,0.1,0.1,0.2,0.1,0.3
			c1.1-0.6,2.2-1.1,3.4-1.6c-0.1-0.1-0.1-0.2-0.2-0.3c-0.9,0.5-1.8,1-2.8,1.4c0.1,0.1,0.1,0.2,0.1,0.3c0.9-0.5,1.8-0.9,2.7-1.4
			c-0.1-0.1-0.1-0.2-0.2-0.3c-1,0.6-2,1.2-3,1.8c-0.2,0.1,0,0.4,0.2,0.3c1.1-0.5,2.2-1.1,3.3-1.6c-0.1-0.1-0.1-0.2-0.2-0.3
			c-1.4,0.8-2.8,1.4-4.2,2c0.1,0.1,0.1,0.2,0.1,0.3c1.4-0.7,2.7-1.3,4.1-2c0.2-0.1,0-0.4-0.2-0.3c-1,0.4-1.9,0.9-2.9,1.3
			c-0.2,0.1,0,0.4,0.2,0.3c0.6-0.3,1.3-0.5,1.9-0.8c-0.1-0.1-0.1-0.2-0.2-0.3c-1.3,0.8-2.5,1.5-3.8,2.2c0.1,0.1,0.1,0.2,0.2,0.3
			c0.5-0.3,0.9-0.6,1.3-0.9c-0.1-0.1-0.1-0.2-0.2-0.3c-0.5,0.5-1.1,0.9-1.7,1.3c0.1,0.1,0.1,0.2,0.2,0.3c0.6-0.5,1.1-0.9,1.8-1.3
			c-0.1-0.1-0.1-0.2-0.2-0.3c-0.6,0.6-1.3,1.1-2,1.5c0.1,0.1,0.1,0.2,0.2,0.3c0.8-0.7,1.6-1.3,2.5-1.7c-0.1-0.1-0.1-0.2-0.2-0.3
			c-0.8,0.7-1.6,1.3-2.5,1.8c-0.2,0.1-0.1,0.4,0.1,0.3c0.3-0.1,0.6-0.2,0.9-0.3c-0.1-0.1-0.1-0.2-0.2-0.3c-0.2,0.2-0.5,0.4-0.7,0.6
			c-0.1,0.1,0,0.4,0.2,0.3c0.3-0.2,0.6-0.3,0.9-0.3c0-0.1-0.1-0.2-0.1-0.3c-0.3,0.1-0.6,0.2-0.9,0.3c0.1,0.1,0.1,0.2,0.1,0.3
			c0.3-0.2,0.7-0.4,1-0.5c0.2-0.1,0-0.4-0.2-0.3c-0.5,0.2-0.9,0.4-1.3,0.6c0.1,0.1,0.1,0.2,0.2,0.3c0.6-0.6,1.1-0.9,1.8-1.2
			c-0.1-0.1-0.1-0.2-0.1-0.3c-0.5,0.3-0.9,0.6-1.4,0.8c0.1,0.1,0.1,0.2,0.2,0.3c0.7-0.6,1.3-1,2.1-1.3c-0.1-0.1-0.1-0.2-0.1-0.3
			c-0.8,0.5-1.6,1-2.4,1.4c0.1,0.1,0.1,0.2,0.2,0.3c0.6-0.3,1.3-0.7,1.9-1.1c0.2-0.1,0-0.4-0.2-0.3c-0.7,0.4-1.3,0.7-2,1.1
			c0.1,0.1,0.1,0.2,0.2,0.3c0.8-0.6,1.6-1.1,2.4-1.5c-0.1-0.1-0.1-0.2-0.2-0.3c-0.6,0.3-1.2,0.7-1.7,1c-0.2,0.1,0,0.4,0.2,0.3
			c0.6-0.3,1.1-0.5,1.8-0.6c-0.1-0.1-0.1-0.2-0.1-0.3c-0.7,0.5-1.4,0.8-2.2,1.1c0.1,0.1,0.1,0.2,0.1,0.3c0.7-0.5,1.4-0.8,2.3-1.1
			c-0.1-0.1-0.1-0.2-0.1-0.3c-0.7,0.4-1.4,0.8-2.2,1.2c0.1,0.1,0.1,0.2,0.2,0.3c0.9-0.7,1.9-1.2,3-1.5c-0.1-0.1-0.1-0.2-0.1-0.3
			c-0.9,0.4-1.7,0.8-2.6,1.2c0.1,0.1,0.1,0.2,0.2,0.3c0.8-0.5,1.6-0.8,2.6-1c0-0.1-0.1-0.2-0.1-0.3c-1,0.4-2,0.8-3.1,1.2
			c0.1,0.1,0.1,0.2,0.1,0.3c1-0.4,1.9-0.8,3-1c-0.1-0.1-0.1-0.2-0.1-0.3c-1.1,0.5-2.1,0.9-3.2,1.3c0,0.1,0.1,0.2,0.1,0.3
			c1.3-0.5,2.6-1,4-1.3c0-0.1-0.1-0.2-0.1-0.3c-1.2,0.5-2.4,0.9-3.6,1.4c0.1,0.1,0.1,0.2,0.1,0.3c1.2-0.5,2.4-0.9,3.7-1.2
			c0-0.1-0.1-0.2-0.1-0.3c-1.2,0.4-2.5,0.7-3.7,1.1c-0.2,0.1-0.1,0.4,0.1,0.3c1.1-0.3,2.3-0.6,3.4-0.8c0-0.1-0.1-0.2-0.1-0.3
			c-1.2,0.3-2.4,0.7-3.6,1c-0.2,0.1-0.2,0.4,0.1,0.3c1.3-0.1,2.7-0.3,4-0.5c0-0.1,0-0.2-0.1-0.3c-1.6,0.4-3.3,0.8-4.9,1.2
			c-0.2,0.1-0.1,0.4,0.1,0.3c0.9-0.1,1.8-0.3,2.7-0.4c0-0.1-0.1-0.2-0.1-0.3c-0.9,0.1-1.6,0.2-2.5,0.2c0,0.1,0,0.2,0,0.3
			c1.4-0.1,2.8-0.4,4.2-0.8c0.2-0.1,0.2-0.4-0.1-0.3c-1.4,0.1-2.9,0.3-4.3,0.6c-0.2,0.1-0.1,0.4,0.1,0.3c1.3-0.2,2.5-0.5,3.8-0.7
			c0-0.1-0.1-0.2-0.1-0.3c-1.5,0.3-3.1,0.6-4.6,0.9c-0.2,0-0.1,0.4,0.1,0.3c0.5,0,0.9-0.1,1.3-0.1c0-0.1,0-0.2-0.1-0.3
			c-0.5,0.1-0.9,0.2-1.4,0.3c0,0.1,0.1,0.2,0.1,0.3c0.4-0.1,0.9-0.3,1.3-0.4c0.2-0.1,0.1-0.4-0.1-0.3c-0.5,0.1-1,0.3-1.5,0.4
			c0.1,0.1,0.1,0.2,0.1,0.3c0.5-0.3,1.1-0.5,1.6-0.7c0.2-0.1,0.1-0.4-0.1-0.3c-0.5,0.2-1.1,0.3-1.6,0.5c0.1,0.1,0.1,0.2,0.1,0.3
			c0.5-0.3,1-0.6,1.5-0.9c-0.1-0.1-0.1-0.2-0.2-0.3c-0.5,0.3-0.9,0.5-1.3,0.8c0.1,0.1,0.1,0.2,0.2,0.3c0.4-0.4,0.9-0.8,1.3-1.2
			c0.2-0.1-0.1-0.4-0.3-0.3c-0.6,0.6-1.3,1.1-1.9,1.7C45,23.5,45.1,23.6,45.2,23.7c0-0.2,0.1-0.3,0.2-0.4c0.2-0.2-0.1-0.4-0.3-0.3
			c-0.3,0.3-0.2,0.2-0.4,0.5c0.1,0.1,0.2,0.1,0.3,0.1c-0.1-0.1-0.1-0.1-0.2-0.2C44.9,23.4,45,23.8,45.2,23.7L45.2,23.7z"/>
	</g>
	<g>
		<path class="st0" d="M75.2,20.9c0.2,0,0.4,0.1,0.6,0.1c0.2,0.1,0.3-0.3,0.1-0.3c-0.3-0.1-0.6-0.2-0.9-0.3
			c-0.2-0.1-0.3,0.3-0.1,0.3c0.3,0.1,0.5,0.1,0.7,0.2c0-0.1,0-0.2,0.1-0.3c-0.4,0-0.8,0-1.2-0.1c0,0.1-0.1,0.2-0.1,0.3
			C74.7,20.9,74.9,21,75.2,20.9c0,0,0-0.1,0-0.3c-0.6-0.1-1.1-0.2-1.7-0.3c0,0.1,0,0.2-0.1,0.3c0.4,0,0.7,0.1,1.1,0.1
			c0-0.1,0-0.2,0-0.3c-1.7-0.2-3.3-0.4-5-0.5c-0.2,0-0.2,0.3,0,0.3c1.3,0.2,2.6,0.3,4,0.5c0-0.1,0-0.2,0-0.3
			c-0.6-0.1-1.3-0.1-1.9-0.1c-0.2,0-0.2,0.3,0,0.3c0.9,0.1,1.9,0.2,2.8,0.3c0-0.1,0-0.2,0-0.3c-0.5,0-1-0.1-1.5-0.1
			c0,0.1,0,0.2,0,0.3c0.5,0,1,0.1,1.5,0.2c0-0.1,0-0.2,0.1-0.3c-0.9-0.1-1.7-0.2-2.6-0.3c0,0.1,0,0.2-0.1,0.3
			c0.7,0.1,1.4,0.2,2.1,0.3c0-0.1,0-0.2,0-0.3c-1.3-0.1-2.7-0.2-4-0.3c-0.2,0-0.2,0.3,0,0.3c0.9,0.1,1.8,0.2,2.7,0.3
			c0-0.1,0-0.2,0-0.3c-1.9-0.1-3.8-0.1-5.7-0.2c0,0.1,0,0.2,0,0.3c1.2-0.1,2.4,0,3.7,0.1c0-0.1,0-0.2,0-0.3
			c-2.2-0.1-4.3-0.2-6.5-0.3c0,0.1,0,0.2,0,0.3c1.3,0,2.6,0,4,0c0.2,0,0.2-0.3,0-0.3c-1.9-0.1-3.8-0.1-5.7-0.1c-0.2,0-0.2,0.3,0,0.3
			c1.3,0.1,2.6,0.1,3.9,0.2c0-0.1,0-0.2,0-0.3c-1.8,0-3.5,0-5.3,0c-0.2,0-0.2,0.3,0,0.3c1.4,0,2.8,0,4.1,0c0-0.1,0-0.2,0-0.3
			c-1.5,0-3,0.1-4.5,0.2c-0.2,0-0.2,0.3,0,0.3c1.1,0,2.3,0,3.4-0.1c0.2,0,0.2-0.4,0-0.3c-1.2,0.1-2.4,0.1-3.6,0.2
			c-0.2,0-0.2,0.3,0,0.3c1.2,0,2.4,0,3.6-0.1c0.2,0,0.2-0.3,0-0.3c-1.2-0.1-2.4-0.1-3.6,0c0,0.1,0,0.2,0,0.3
			c1.6-0.1,3.2-0.3,4.8-0.3c0.2,0,0.2-0.3,0-0.3c-1.8,0-3.7-0.1-5.5-0.1c0,0.1,0,0.2,0,0.3c3.8-0.2,7.5-0.2,11.3,0.1
			c0-0.1,0-0.2,0-0.3c-3.4,0-6.7-0.2-10-0.4c0,0.1,0,0.2,0,0.3c3.1-0.4,6.2-0.2,9.2,0.1c0-0.1,0-0.2,0-0.3c-3-0.3-6.1-0.4-9.1-0.3
			c-0.2,0-0.2,0.4,0,0.3c2.9-0.1,5.8,0,8.7,0.1c0.2,0,0.2-0.3,0-0.3c-3.2-0.3-6.5-0.3-9.7-0.1c-0.2,0-0.2,0.3,0,0.3
			c2.6,0,5.1,0.1,7.7,0.1c0.2,0,0.2-0.3,0-0.3c-2.5,0-5,0-7.6,0.2c-0.2,0-0.2,0.3,0,0.3c2,0,4.1,0,6.1-0.1c0.2,0,0.2-0.3,0-0.3
			c-1.7-0.1-3.4-0.1-5.1,0c0,0.1,0,0.2,0,0.3c1.8-0.1,3.6-0.2,5.4-0.3c0.2,0,0.2-0.3,0-0.3c-2.2-0.2-4.5-0.1-6.7,0.1
			c-0.2,0-0.2,0.4,0,0.3c2.2,0,4.4-0.1,6.6-0.1c0.2,0,0.2-0.3,0-0.3c-2.6-0.2-5.1-0.2-7.7,0.1c-0.2,0-0.2,0.4,0,0.3
			c2.2,0,4.5-0.1,6.7-0.3c0.2,0,0.2-0.3,0-0.3c-2.3-0.1-4.7,0-7,0.2c-0.2,0-0.2,0.3,0,0.3c0.9,0.1,1.8,0.1,2.7,0.2
			c0.2,0,0.2-0.3,0-0.3c-0.9-0.1-1.8-0.1-2.7-0.2c0,0.1,0,0.2,0,0.3c2.3-0.2,4.7-0.3,7-0.2c0-0.1,0-0.2,0-0.3
			c-2.2,0.2-4.5,0.3-6.7,0.3c0,0.1,0,0.2,0,0.3c2.6-0.3,5.1-0.3,7.7-0.1c0-0.1,0-0.2,0-0.3c-2.2,0-4.4,0.1-6.6,0.1
			c0,0.1,0,0.2,0,0.3c2.2-0.2,4.5-0.2,6.7-0.1c0-0.1,0-0.2,0-0.3c-1.8,0.1-3.6,0.2-5.4,0.3c-0.2,0-0.2,0.4,0,0.3
			c1.7-0.1,3.4-0.1,5.1,0c0-0.1,0-0.2,0-0.3c-2,0.1-4.1,0.1-6.1,0.1c0,0.1,0,0.2,0,0.3c2.5-0.2,5-0.3,7.6-0.2c0-0.1,0-0.2,0-0.3
			c-2.6,0-5.1-0.1-7.7-0.1c0,0.1,0,0.2,0,0.3c3.2-0.2,6.5-0.2,9.7,0.1c0-0.1,0-0.2,0-0.3c-2.9-0.1-5.8-0.1-8.7-0.1
			c0,0.1,0,0.2,0,0.3c3-0.1,6.1,0,9.1,0.3c0.2,0,0.2-0.3,0-0.3c-3.1-0.3-6.2-0.5-9.2-0.1c-0.2,0-0.2,0.3,0,0.3
			c3.3,0.3,6.7,0.4,10,0.4c0.2,0,0.2-0.3,0-0.3c-3.8-0.2-7.5-0.3-11.3-0.1c-0.2,0-0.2,0.3,0,0.3c1.8,0,3.7,0.1,5.5,0.1
			c0-0.1,0-0.2,0-0.3c-1.6,0.1-3.2,0.1-4.8,0.3c-0.2,0-0.2,0.4,0,0.3c1.2-0.1,2.4-0.1,3.6,0c0-0.1,0-0.2,0-0.3
			c-1.2,0.1-2.4,0.1-3.6,0.1c0,0.1,0,0.2,0,0.3c1.2-0.1,2.4-0.1,3.6-0.2c0-0.1,0-0.2,0-0.3c-1.1,0.1-2.3,0.1-3.4,0.1
			c0,0.1,0,0.2,0,0.3c1.5-0.1,3-0.2,4.5-0.2c0.2,0,0.2-0.3,0-0.3c-1.4,0-2.8,0-4.1,0c0,0.1,0,0.2,0,0.3c1.8,0,3.5,0,5.3,0
			c0.2,0,0.2-0.3,0-0.3c-1.3-0.1-2.6-0.1-3.9-0.2c0,0.1,0,0.2,0,0.3c1.9,0,3.8,0,5.7,0.1c0-0.1,0-0.2,0-0.3c-1.3,0-2.6,0-4,0
			c-0.2,0-0.2,0.3,0,0.3c2.2,0.1,4.3,0.2,6.5,0.3c0.2,0,0.2-0.3,0-0.3c-1.2-0.2-2.4-0.2-3.7-0.1c-0.2,0-0.2,0.3,0,0.3
			c1.9,0.1,3.8,0.1,5.7,0.2c0.2,0,0.2-0.3,0-0.3c-0.9-0.1-1.8-0.2-2.7-0.3c0,0.1,0,0.2,0,0.3c1.3,0.1,2.7,0.2,4,0.3
			c0.2,0,0.2-0.3,0-0.3c-0.7-0.1-1.4-0.2-2.1-0.3c-0.2,0-0.3,0.3-0.1,0.3c0.9,0.2,1.8,0.3,2.7,0.3c0.2,0,0.3-0.3,0.1-0.3
			c-0.5-0.1-1.1-0.2-1.6-0.2c-0.2,0-0.2,0.3,0,0.3c0.5,0,1,0.1,1.5,0.1c0.2,0,0.2-0.3,0-0.3c-0.9-0.1-1.9-0.2-2.8-0.3
			c0,0.1,0,0.2,0,0.3c0.6,0.1,1.3,0.1,1.9,0.1c0.2,0,0.2-0.3,0-0.3c-1.3-0.2-2.6-0.3-4-0.5c0,0.1,0,0.2,0,0.3c1.7,0.2,3.3,0.4,5,0.5
			c0.2,0,0.2-0.3,0-0.3c-0.4,0-0.7-0.1-1.1-0.1c-0.2,0-0.3,0.3-0.1,0.3C74,20.8,74.6,20.9,75.2,20.9c0.1,0.1,0.2-0.2,0-0.3
			c-0.3-0.1-0.5-0.1-0.7-0.1c-0.2-0.1-0.3,0.3-0.1,0.3c0.5,0.1,0.9,0.1,1.3,0.1c0.2,0,0.3-0.3,0.1-0.3c-0.3-0.1-0.5-0.1-0.7-0.2
			c0,0.1-0.1,0.2-0.1,0.3c0.3,0.1,0.6,0.2,0.9,0.3c0-0.1,0.1-0.2,0.1-0.3c-0.2,0-0.4-0.1-0.6-0.1C75.1,20.6,75,20.9,75.2,20.9
			L75.2,20.9z"/>
	</g>
	<g>
		<path class="st0" d="M51.4,22.2c0.7-0.1,1.5-0.3,2.2-0.4c0.2,0,0.1-0.4-0.1-0.3c-1.2,0.1-2.4,0.3-3.6,0.5
			c-0.2,0.1-0.1,0.4,0.1,0.3c1.1-0.2,2.3-0.4,3.4-0.4c0-0.1,0-0.2,0-0.3c-1.1,0.1-2.1,0.3-3.2,0.4c-0.2,0-0.2,0.4,0,0.3
			c1.1-0.1,2.1-0.2,3.2-0.3c0.2,0,0.2-0.4,0-0.3c-0.9,0.1-1.8,0.2-2.7,0.4c-0.2,0.1-0.1,0.4,0.1,0.3c0.9-0.1,1.8-0.2,2.8-0.4
			c0.2-0.1,0.1-0.4-0.1-0.3c-1,0.1-2,0.2-3,0.3c-0.2,0-0.1,0.4,0.1,0.3c0.8-0.1,1.6-0.2,2.3-0.4c0.2-0.1,0.2-0.4-0.1-0.3
			c-1.2,0.1-2.4,0.2-3.6,0.3c0,0.1,0.1,0.2,0.1,0.3c0.3-0.3,1.6-1.4,1.1-2c-0.5-0.5-2.3,0.3-2.8,0.5c0.1,0.1,0.1,0.2,0.1,0.3
			c0.7-0.4,1.3-0.7,1.9-1.1c-0.1-0.1-0.1-0.2-0.2-0.3c-0.6,0.3-1.2,0.7-1.8,1.1c-0.2,0.1,0,0.4,0.2,0.3c0.6-0.3,1.1-0.7,1.7-1
			c0.2-0.1,0-0.4-0.2-0.3c-0.4,0.2-0.8,0.3-1.2,0.5c0.1,0.1,0.1,0.2,0.2,0.3c0.4-0.3,0.7-0.5,1.1-0.8c0.2-0.1,0-0.4-0.2-0.3
			c-0.5,0.3-0.9,0.6-1.3,0.9c-0.2,0.1,0,0.4,0.2,0.3c0.6-0.3,1.2-0.7,1.7-1.1c-0.1-0.1-0.1-0.2-0.2-0.3c-0.5,0.3-0.9,0.7-1.4,1.1
			c-0.2,0.1,0,0.4,0.2,0.3c2.4-1.2,4.9-2.1,7.6-2.7c0-0.1-0.1-0.2-0.1-0.3c-2,0.7-4,1.4-6,2.2c-0.2,0.1-0.1,0.4,0.1,0.3
			c2.7-0.5,5.4-1.1,8.1-1.8c0.2-0.1,0.2-0.4-0.1-0.3c-2.1,0.2-4.2,0.5-6.3,1c0,0.1,0.1,0.2,0.1,0.3c2.7-0.6,5.4-1,8.1-1.1
			c0-0.1,0-0.2-0.1-0.3c-2.4,0.7-4.9,1.1-7.4,1.5c0,0.1,0.1,0.2,0.1,0.3c1.9-0.7,3.8-1.2,5.7-1.7c0.2-0.1,0.1-0.4-0.1-0.3
			c-2,0.3-4,0.7-5.9,1.3c-0.2,0.1-0.1,0.4,0.1,0.3c2.2-0.4,4.3-0.8,6.5-1.1c0.2,0,0.1-0.4-0.1-0.3C57,18,54.9,18.4,52.9,19
			c-0.2,0.1-0.1,0.4,0.1,0.3c2.3-0.6,4.6-1.2,6.9-1.8c0.2-0.1,0.1-0.4-0.1-0.3c-1.9,0.3-3.8,0.7-5.7,1.1c-0.2,0.1-0.1,0.4,0.1,0.3
			c2-0.4,4-0.8,5.9-1.1c0.2,0,0.1-0.4-0.1-0.3c-2,0.1-3.9,0.5-5.8,1.1c-0.2,0.1-0.1,0.4,0.1,0.3c1.7-0.4,3.4-0.9,5.1-1.4
			c0.2-0.1,0.1-0.4-0.1-0.3c-2,0.3-3.9,0.9-5.7,1.6c-0.2,0.1-0.1,0.4,0.1,0.3c1.6-0.3,3.2-0.7,4.8-1.2c0.2-0.1,0.2-0.4-0.1-0.3
			c-1.5,0.2-3,0.5-4.5,1c-0.2,0.1-0.1,0.4,0.1,0.3c1.4-0.5,2.8-0.9,4.1-1.3c0.2-0.1,0.2-0.4-0.1-0.3c-1.6,0.2-3.2,0.6-4.8,1.2
			c-0.2,0.1-0.1,0.4,0.1,0.3c1.6-0.4,3.2-0.8,4.8-1.1c0.2-0.1,0.1-0.4-0.1-0.3c-1.8,0.3-3.4,0.9-5.1,1.6c-0.2,0.1-0.1,0.4,0.1,0.3
			c1.7-0.3,3.2-0.8,4.6-1.7c0.1-0.1,0.1-0.3-0.1-0.3c-1.6,0.1-3.1,0.6-4.5,1.5c-0.2,0.1-0.1,0.4,0.1,0.3c1-0.2,1.8-0.5,2.7-0.9
			c0.2-0.1,0.1-0.4-0.1-0.3c-1.1,0.2-2.1,0.5-3.1,1c-0.2,0.1-0.1,0.4,0.1,0.3c0.8-0.2,1.5-0.4,2.2-0.6c0.2-0.1,0.1-0.4-0.1-0.3
			c-0.7,0.2-1.3,0.4-1.9,0.6c-0.2,0.1-0.1,0.4,0.1,0.3c0.6-0.1,1.1-0.3,1.7-0.5c0-0.1-0.1-0.2-0.1-0.3c-0.6,0.2-1.3,0.4-1.9,0.6
			c0.1,0.1,0.1,0.2,0.1,0.3c0.9-0.5,1.8-0.8,2.7-1.1c0.2-0.1,0.1-0.4-0.1-0.3c-1,0.2-2,0.5-3,0.9c-0.2,0.1-0.1,0.4,0.1,0.3
			c0.9-0.3,1.7-0.5,2.6-0.8c0.2-0.1,0.2-0.3-0.1-0.3c-1,0-1.9,0.2-2.8,0.7c-0.2,0.1-0.1,0.3,0.1,0.3c1-0.2,1.9-0.4,2.8-0.8
			c0.2-0.1,0.2-0.4-0.1-0.3c-0.9,0.1-1.8,0.3-2.6,0.7c-0.2,0.1-0.1,0.3,0.1,0.3c0.8-0.1,1.5-0.3,2.2-0.7c0.1-0.1,0.1-0.3-0.1-0.3
			c-0.8,0.1-1.6,0.3-2.4,0.7c-0.2,0.1-0.1,0.4,0.1,0.3c0.9-0.2,1.7-0.5,2.5-0.9c0.2-0.1,0.1-0.3-0.1-0.3c-0.8,0.1-1.6,0.3-2.4,0.7
			c-0.2,0.1-0.1,0.4,0.1,0.3c0.6-0.2,1.2-0.3,1.8-0.5c0.2-0.1,0.2-0.4-0.1-0.3c-0.7,0.1-1.4,0.3-2.1,0.6c-0.2,0.1-0.1,0.4,0.1,0.3
			c0.1-0.1,0.3-0.1,0.5-0.1c0.2-0.1,0.1-0.4-0.1-0.3c-0.4,0.1-0.7,0.2-1.1,0.4c-0.2,0.1-0.1,0.4,0.1,0.3c0.4-0.1,0.7-0.2,1.1-0.3
			c-0.1-0.1-0.1-0.2-0.2-0.3c-0.3,0.1-0.6,0.3-0.9,0.5c-0.2,0.1-0.1,0.4,0.1,0.3c0.7-0.2,1.4-0.3,2.2-0.5c0-0.1-0.1-0.2-0.1-0.3
			c-0.7,0.2-1.4,0.5-2.1,0.9c-0.2,0.1-0.1,0.4,0.1,0.3c0.4-0.1,0.9-0.3,1.3-0.4c0.2-0.1,0.1-0.4-0.1-0.3c-0.6,0.1-0.4,0.1-0.9,0.3
			c-0.2,0.1-0.1,0.4,0.1,0.3c0.5-0.1,1-0.2,1.4-0.3c0-0.1-0.1-0.2-0.1-0.3c-0.2,0.1-0.4,0.1-0.5,0.2c0,0.1,0.1,0.2,0.1,0.3
			c1.9-0.7,3.8-1.3,5.7-1.8c0.2-0.1,0.1-0.4-0.1-0.3c-1.3,0.1-2.5,0.2-3.7,0.5c-0.2,0-0.1,0.4,0.1,0.3c1.5-0.2,3-0.4,4.4-0.8
			c0.2-0.1,0.1-0.4-0.1-0.3c-1.7,0.2-3.3,0.4-5,0.8c-0.2,0.1-0.1,0.4,0.1,0.3c1.7-0.3,3.4-0.6,5.1-1.1c0.2-0.1,0.2-0.4-0.1-0.3
			c-1.8,0.1-3.6,0.4-5.4,1c-0.2,0.1-0.1,0.4,0.1,0.3c1.8-0.3,3.6-0.6,5.3-1.1c0.2-0.1,0.1-0.4-0.1-0.3c-1.6,0.1-3.2,0.4-4.8,0.9
			c-0.2,0.1-0.2,0.4,0.1,0.3c2.4-0.3,4.7-0.6,7.1-0.9c0.2,0,0.2-0.4,0-0.3c-1.8,0.2-3.6,0.3-5.4,0.5c-0.2,0-0.2,0.4,0,0.3
			c2.3-0.1,4.6-0.3,7-0.4c0.2,0,0.2-0.4,0-0.3c-1.7,0.1-3.4,0.1-5.1,0.2c0,0.1,0,0.2,0,0.3c1.9-0.2,3.8-0.3,5.7-0.5
			c0.2,0,0.2-0.3,0-0.3c-1.8-0.1-3.7-0.1-5.5,0c-0.2,0-0.2,0.4,0,0.3c2.1-0.1,4.1-0.1,6.2,0c0-0.1,0-0.2,0-0.3c-2-0.1-4-0.1-6,0
			c-0.2,0-0.2,0.3,0,0.3c1.8,0,3.6,0,5.5-0.1c0.2,0,0.2-0.4,0-0.3c-1.2,0-2.3,0.1-3.5,0.1c-0.2,0-0.2,0.4,0,0.3
			c1.4,0,2.8-0.1,4.2-0.1c0.2,0,0.2-0.3,0-0.3c-1.1,0-2.2,0-3.3,0c0,0.1,0,0.2,0,0.3c1.1-0.1,2.2-0.1,3.4-0.1c0-0.1,0-0.2,0-0.3
			c-1.4,0-2.8-0.1-4.2-0.1c-0.2,0-0.2,0.3,0,0.3c1.4,0.1,2.8,0.1,4.2,0.2c0-0.1,0-0.2,0-0.3c-2-0.1-4,0-6.1,0.2
			c-0.2,0-0.2,0.3,0,0.3c1.1,0.1,2.2,0.1,3.3,0c0.2,0,0.2-0.4,0-0.3c-1.8,0.1-3.6,0.4-5.4,0.7c-0.2,0-0.1,0.3,0.1,0.3
			c1.9,0.1,3.8,0,5.7-0.1c0.2,0,0.2-0.4,0-0.3c-2,0-4.1,0.2-6.1,0.6c-0.2,0-0.1,0.4,0.1,0.3c2.2-0.3,4.5-0.5,6.7-0.5
			c0-0.1,0-0.2,0-0.3c-2.6,0.3-5.3,0.5-8,0.7c0,0.1,0,0.2,0.1,0.3c2.8-0.6,5.6-0.8,8.5-0.7c0-0.1,0-0.2,0-0.3
			c-2.1,0.2-4.2,0.4-6.3,0.6c0,0.1,0,0.2,0.1,0.3c2.3-0.4,4.6-0.7,6.9-0.9c0.2,0,0.2-0.4,0-0.3c-2.2,0.1-4.3,0.3-6.5,0.7
			c-0.2,0-0.1,0.4,0.1,0.3c1.9-0.1,3.8-0.3,5.8-0.5c0.2,0,0.2-0.4,0-0.3c-1.9,0-3.8,0.3-5.7,0.7c-0.2,0-0.1,0.3,0.1,0.3
			c1.7,0,3.3-0.1,5-0.3c0.2,0,0.2-0.4,0-0.3c-2,0.2-3.9,0.5-5.9,1c-0.2,0.1-0.1,0.4,0.1,0.3c2-0.1,4-0.3,6.1-0.6
			c0.2,0,0.2-0.4,0-0.3c-2,0.1-3.9,0.3-5.9,0.8c-0.2,0.1-0.1,0.4,0.1,0.3c1.9-0.3,3.8-0.6,5.7-0.9c0.2,0,0.1-0.4-0.1-0.3
			C62,17.2,60,17.5,58,18c-0.2,0.1-0.1,0.4,0.1,0.3c1.7-0.2,3.4-0.3,5-0.5c0-0.1,0-0.2,0-0.3c-1.9,0.2-3.7,0.6-5.6,1
			c-0.2,0.1-0.1,0.4,0.1,0.3c1.8-0.2,3.6-0.4,5.4-0.6c0-0.1,0-0.2-0.1-0.3c-1.8,0.3-3.6,0.6-5.4,0.9c-0.2,0-0.1,0.4,0.1,0.3
			c1.9-0.2,3.8-0.4,5.7-0.7c0.2,0,0.2-0.4,0-0.3c-1.7,0.2-3.4,0.4-5,0.7c-0.2,0-0.1,0.4,0.1,0.3c1.6-0.2,3.1-0.3,4.7-0.5
			c0.2,0,0.2-0.4,0-0.3c-1.6,0.1-3.3,0.4-4.9,0.7c-0.2,0-0.1,0.4,0.1,0.3c1.7-0.1,3.4-0.3,5.1-0.4c0-0.1,0-0.2,0-0.3
			c-1.8,0.2-3.6,0.5-5.3,0.8c-0.2,0-0.1,0.4,0.1,0.3c1.8-0.2,3.5-0.4,5.3-0.6c0.2,0,0.2-0.4,0-0.3c-1.7,0.1-3.4,0.3-5.1,0.6
			c-0.2,0-0.1,0.4,0.1,0.3c2-0.2,4.1-0.5,6.1-0.7c0.2,0,0.2-0.4,0-0.3c-1.4,0.1-2.9,0.2-4.3,0.4c-0.2,0-0.2,0.4,0,0.3
			c1.8-0.1,3.6-0.2,5.4-0.3c0.2,0,0.2-0.4,0-0.3c-1.8,0-3.6,0.1-5.5,0.3c-0.2,0-0.2,0.4,0,0.3c2.1-0.1,4.1-0.1,6.2-0.1
			c0-0.1,0-0.2,0-0.3c-1.5,0-3,0.1-4.5,0.1c0,0.1,0,0.2,0,0.3c1.5-0.1,3-0.1,4.5,0c0-0.1,0-0.2,0-0.3c-1.1,0.1-2.2,0.1-3.3,0.2
			c-0.2,0-0.2,0.3,0,0.3c1.6,0.1,3.2,0.2,4.9,0.3c0-0.1,0-0.2,0-0.3c-0.8,0-1.6,0-2.5,0.1c-0.2,0-0.3,0.3-0.1,0.3
			c0.9,0.1,1.8,0.2,2.8,0.3c0-0.1,0-0.2,0-0.3c-0.7,0.1-1.3,0.1-2,0.2c-0.2,0-0.2,0.3,0,0.3c0.7,0.1,1.3,0.1,2,0.1
			c0-0.1,0-0.2,0-0.3c-0.7,0.1-1.3,0.1-2,0.2c-0.2,0-0.2,0.4,0,0.3c0.5,0,1.1,0,1.6,0c0-0.1,0-0.2,0-0.3c-0.4,0.1-0.8,0.1-1.1,0.1
			c-0.2,0-0.2,0.3,0,0.3c0.3,0,0.5,0,0.7,0c0.2,0,0.3-0.3,0.1-0.3c-0.4-0.1-0.3-0.1-0.8-0.1c-0.2,0-0.2,0.4,0,0.3
			c0.2,0,0.5,0.1,0.7,0.1c0-0.1,0-0.2,0.1-0.3c-0.3,0-0.5,0-0.7,0c0,0.1,0,0.2,0,0.3c0.4-0.1,0.8-0.1,1.1-0.1c0.2,0,0.2-0.4,0-0.3
			c-0.5,0-1.1,0-1.6,0c0,0.1,0,0.2,0,0.3c0.7-0.1,1.3-0.1,2-0.2c0.2,0,0.2-0.4,0-0.3c-0.7,0-1.3,0-2-0.1c0,0.1,0,0.2,0,0.3
			c0.7-0.1,1.3-0.1,2-0.2c0.2,0,0.2-0.3,0-0.3c-0.9,0-1.8-0.1-2.7-0.3c0,0.1,0,0.2-0.1,0.3c0.8,0,1.6,0,2.5-0.1c0.2,0,0.2-0.3,0-0.3
			c-1.6-0.1-3.2-0.2-4.9-0.3c0,0.1,0,0.2,0,0.3c1.1-0.1,2.2-0.1,3.3-0.2c0.2,0,0.2-0.3,0-0.3c-1.5,0-3,0-4.5,0c-0.2,0-0.2,0.4,0,0.3
			c1.5,0,3-0.1,4.5-0.1c0.2,0,0.2-0.3,0-0.3c-2.1,0-4.1,0-6.2,0.1c0,0.1,0,0.2,0,0.3c1.8-0.2,3.6-0.3,5.5-0.3c0-0.1,0-0.2,0-0.3
			c-1.8,0.1-3.6,0.2-5.4,0.3c0,0.1,0,0.2,0,0.3c1.4-0.2,2.9-0.3,4.3-0.4c0-0.1,0-0.2,0-0.3c-2,0.2-4.1,0.5-6.1,0.7
			c0,0.1,0,0.2,0.1,0.3c1.6-0.3,3.3-0.5,5-0.6c0-0.1,0-0.2,0-0.3c-1.8,0.2-3.5,0.4-5.3,0.6c0,0.1,0,0.2,0.1,0.3
			c1.7-0.3,3.5-0.6,5.2-0.8c0.2,0,0.2-0.4,0-0.3c-1.7,0.1-3.4,0.3-5.1,0.4c0,0.1,0,0.2,0.1,0.3c1.6-0.3,3.2-0.6,4.8-0.7
			c0-0.1,0-0.2,0-0.3c-1.6,0.2-3.1,0.3-4.7,0.5c0,0.1,0,0.2,0.1,0.3c1.6-0.3,3.3-0.5,4.9-0.7c0-0.1,0-0.2,0-0.3
			c-1.9,0.2-3.8,0.4-5.7,0.7c0,0.1,0,0.2,0.1,0.3c1.8-0.3,3.6-0.6,5.4-0.9c0.2,0,0.1-0.4-0.1-0.3c-1.8,0.2-3.6,0.4-5.4,0.6
			c0,0.1,0,0.2,0.1,0.3c1.8-0.5,3.6-0.8,5.5-1c0.2,0,0.2-0.4,0-0.3c-1.7,0.2-3.4,0.3-5,0.5c0,0.1,0,0.2,0.1,0.3c2-0.5,4-0.8,6-0.9
			c0-0.1,0-0.2-0.1-0.3c-1.9,0.3-3.8,0.6-5.7,0.9c0,0.1,0.1,0.2,0.1,0.3c1.9-0.4,3.8-0.7,5.7-0.7c0-0.1,0-0.2,0-0.3
			c-2,0.2-4,0.4-6.1,0.6c0,0.1,0,0.2,0.1,0.3c1.9-0.5,3.8-0.8,5.8-0.9c0-0.1,0-0.2,0-0.3c-1.6,0.2-3.3,0.3-5,0.3
			c0,0.1,0,0.2,0.1,0.3c1.9-0.4,3.8-0.6,5.7-0.7c0-0.1,0-0.2,0-0.3c-1.9,0.1-3.8,0.3-5.8,0.5c0,0.1,0,0.2,0.1,0.3
			c2.1-0.5,4.2-0.7,6.4-0.7c0-0.1,0-0.2,0-0.3c-2.3,0.2-4.7,0.5-7,0.9c-0.2,0-0.1,0.4,0.1,0.3c2.1-0.2,4.2-0.4,6.3-0.6
			c0.2,0,0.2-0.3,0-0.3c-2.9-0.1-5.7,0.2-8.6,0.8c-0.2,0-0.1,0.4,0.1,0.3c2.7-0.2,5.3-0.4,8-0.7c0.2,0,0.2-0.4,0-0.3
			c-2.2,0.1-4.5,0.3-6.7,0.5c0,0.1,0,0.2,0.1,0.3c2-0.4,4-0.5,6-0.5c0-0.1,0-0.2,0-0.3c-1.9,0.2-3.8,0.2-5.7,0.1
			c0,0.1,0,0.2,0.1,0.3c1.8-0.4,3.5-0.6,5.3-0.7c0-0.1,0-0.2,0-0.3c-1.1,0.1-2.2,0.1-3.3,0c0,0.1,0,0.2,0,0.3c2-0.2,4-0.3,6.1-0.2
			c0.2,0,0.2-0.3,0-0.3c-1.4-0.1-2.8-0.1-4.2-0.2c0,0.1,0,0.2,0,0.3c1.4,0,2.8,0.1,4.2,0.1c0.2,0,0.2-0.3,0-0.3
			c-1.1-0.1-2.2-0.1-3.4,0.1c-0.2,0-0.2,0.3,0,0.3c1.1,0,2.2,0,3.3,0c0-0.1,0-0.2,0-0.3c-1.4,0-2.8,0.1-4.2,0.1c0,0.1,0,0.2,0,0.3
			c1.2,0,2.3-0.1,3.5-0.1c0-0.1,0-0.2,0-0.3C63.6,16,61.8,16,59.9,16c0,0.1,0,0.2,0,0.3c2-0.1,4-0.1,6,0c0.2,0,0.2-0.3,0-0.3
			c-2.1-0.1-4.1-0.1-6.2,0c0,0.1,0,0.2,0,0.3c1.8-0.1,3.7-0.1,5.5,0c0-0.1,0-0.2,0-0.3c-1.9,0.2-3.8,0.3-5.7,0.5
			c-0.2,0-0.2,0.4,0,0.3c1.7-0.1,3.4-0.1,5.1-0.2c0-0.1,0-0.2,0-0.3c-2.3,0.1-4.6,0.3-7,0.4c0,0.1,0,0.2,0,0.3
			c1.8-0.2,3.6-0.3,5.4-0.5c0-0.1,0-0.2,0-0.3c-2.4,0.3-4.7,0.6-7.1,0.9c0,0.1,0,0.2,0.1,0.3c1.6-0.5,3.1-0.8,4.7-0.9
			c0-0.1,0-0.2-0.1-0.3c-1.8,0.4-3.5,0.8-5.3,1.1c0,0.1,0.1,0.2,0.1,0.3c1.7-0.6,3.5-0.9,5.3-1c0-0.1,0-0.2-0.1-0.3
			c-1.7,0.5-3.4,0.9-5.1,1.1c0,0.1,0.1,0.2,0.1,0.3c1.6-0.4,3.2-0.7,4.9-0.8c0-0.1,0-0.2-0.1-0.3c-1.4,0.3-2.9,0.6-4.3,0.7
			c0,0.1,0,0.2,0.1,0.3c1.2-0.2,2.4-0.4,3.6-0.5c0-0.1,0-0.2-0.1-0.3c-1.9,0.5-3.8,1.1-5.7,1.8c-0.2,0.1-0.1,0.4,0.1,0.3
			c0.2-0.1,0.4-0.1,0.5-0.2c0.2-0.1,0.1-0.4-0.1-0.3c-0.5,0.1-1,0.2-1.4,0.3c0.1,0.1,0.1,0.2,0.1,0.3c0.3-0.1,0.5-0.2,0.8-0.3
			c0-0.1-0.1-0.2-0.1-0.3c-0.4,0.1-0.9,0.3-1.3,0.4c0.1,0.1,0.1,0.2,0.1,0.3c0.7-0.3,1.3-0.6,2-0.8c0.2-0.1,0.1-0.4-0.1-0.3
			c-0.7,0.2-1.4,0.3-2.2,0.5c0.1,0.1,0.1,0.2,0.1,0.3c0.3-0.1,0.6-0.3,0.9-0.5c0.2-0.1,0-0.4-0.2-0.3c-0.3,0.2-0.6,0.3-1,0.3
			c0.1,0.1,0.1,0.2,0.1,0.3c0.3-0.2,0.6-0.3,1-0.3c0-0.1-0.1-0.2-0.1-0.3c-0.1,0.1-0.3,0.1-0.5,0.1c0.1,0.1,0.1,0.2,0.1,0.3
			c0.7-0.3,1.2-0.5,1.9-0.5c0-0.1,0-0.2-0.1-0.3c-0.6,0.2-1.2,0.3-1.8,0.5c0.1,0.1,0.1,0.2,0.1,0.3c0.7-0.3,1.4-0.5,2.3-0.7
			c-0.1-0.1-0.1-0.2-0.1-0.3c-0.8,0.4-1.5,0.7-2.4,0.9c0.1,0.1,0.1,0.2,0.1,0.3c0.7-0.3,1.3-0.5,2.2-0.6c0-0.1-0.1-0.2-0.1-0.3
			c-0.7,0.3-1.3,0.5-2.1,0.6c0.1,0.1,0.1,0.2,0.1,0.3c0.8-0.4,1.6-0.6,2.4-0.7c0-0.1,0-0.2-0.1-0.3c-0.9,0.4-1.8,0.7-2.8,0.8
			c0.1,0.1,0.1,0.2,0.1,0.3c0.9-0.5,1.6-0.6,2.6-0.7c0-0.1,0-0.2-0.1-0.3c-0.9,0.3-1.7,0.5-2.6,0.8c0,0.1,0.1,0.2,0.1,0.3
			c1-0.4,1.9-0.7,3-0.9c0-0.1-0.1-0.2-0.1-0.3c-0.9,0.3-1.8,0.7-2.8,1.2c-0.2,0.1-0.1,0.4,0.1,0.3c0.6-0.2,1.3-0.4,1.9-0.6
			c0.2-0.1,0.1-0.4-0.1-0.3c-0.6,0.1-1.1,0.3-1.7,0.5c0,0.1,0.1,0.2,0.1,0.3c0.6-0.3,1.3-0.5,1.9-0.6c0-0.1-0.1-0.2-0.1-0.3
			c-0.7,0.2-1.5,0.4-2.2,0.6c0.1,0.1,0.1,0.2,0.1,0.3c1-0.5,1.9-0.8,3-1c-0.1-0.1-0.1-0.2-0.1-0.3c-0.9,0.4-1.7,0.7-2.6,0.9
			c0.1,0.1,0.1,0.2,0.1,0.3c1.3-0.8,2.8-1.3,4.3-1.4c0-0.1-0.1-0.2-0.1-0.3c-1.4,0.8-2.9,1.4-4.5,1.6c0.1,0.1,0.1,0.2,0.1,0.3
			c1.6-0.7,3.2-1.3,5-1.6c0-0.1-0.1-0.2-0.1-0.3c-1.6,0.4-3.2,0.8-4.8,1.1c0,0.1,0.1,0.2,0.1,0.3c1.5-0.5,3.1-0.9,4.7-1.1
			c0-0.1,0-0.2-0.1-0.3c-1.4,0.5-2.8,0.9-4.1,1.3c0,0.1,0.1,0.2,0.1,0.3c1.4-0.5,2.9-0.8,4.3-1c0-0.1,0-0.2-0.1-0.3
			c-1.6,0.5-3.2,0.9-4.8,1.2c0,0.1,0.1,0.2,0.1,0.3c1.9-0.7,3.8-1.3,5.7-1.6c0-0.1-0.1-0.2-0.1-0.3c-1.7,0.5-3.4,1-5.1,1.4
			c0,0.1,0.1,0.2,0.1,0.3c1.8-0.6,3.8-1,5.7-1.1c0-0.1,0-0.2-0.1-0.3c-2,0.4-4,0.8-5.9,1.1c0,0.1,0.1,0.2,0.1,0.3
			c1.9-0.4,3.8-0.8,5.7-1.1c0-0.1-0.1-0.2-0.1-0.3c-2.3,0.7-4.6,1.3-6.9,1.8c0,0.1,0.1,0.2,0.1,0.3c2-0.5,4.1-1,6.2-1.3
			c0-0.1-0.1-0.2-0.1-0.3c-2.2,0.4-4.3,0.8-6.5,1.1c0,0.1,0.1,0.2,0.1,0.3c1.9-0.5,3.9-1,5.9-1.3c0-0.1-0.1-0.2-0.1-0.3
			c-1.9,0.5-3.8,1.1-5.7,1.7c-0.2,0.1-0.1,0.4,0.1,0.3c2.5-0.4,4.9-0.9,7.4-1.5c0.2-0.1,0.2-0.4-0.1-0.3c-2.8,0.2-5.5,0.5-8.2,1.1
			c-0.2,0.1-0.1,0.4,0.1,0.3c2-0.4,4.1-0.7,6.2-1c0-0.1,0-0.2-0.1-0.3c-2.7,0.8-5.4,1.4-8.1,1.8c0,0.1,0.1,0.2,0.1,0.3
			c2-0.8,4-1.5,6-2.2c0.2-0.1,0.1-0.4-0.1-0.3c-2.7,0.6-5.2,1.5-7.7,2.8c0.1,0.1,0.1,0.2,0.2,0.3c0.5-0.3,0.9-0.7,1.4-1.1
			c0.2-0.1,0-0.4-0.2-0.3c-0.6,0.3-1.2,0.7-1.7,1.1c0.1,0.1,0.1,0.2,0.2,0.3c0.5-0.3,0.9-0.6,1.3-0.9c-0.1-0.1-0.1-0.2-0.2-0.3
			c-0.4,0.3-0.7,0.5-1.1,0.8c-0.2,0.1,0,0.4,0.2,0.3c0.4-0.2,0.8-0.3,1.2-0.5c-0.1-0.1-0.1-0.2-0.2-0.3c-0.6,0.3-1.1,0.7-1.7,1
			c0.1,0.1,0.1,0.2,0.2,0.3c0.6-0.3,1.2-0.7,1.8-1.1c0.2-0.1,0-0.4-0.2-0.3c-0.7,0.4-1.3,0.7-1.9,1.1c-0.2,0.1-0.1,0.4,0.1,0.3
			c0.5-0.1,1.1-0.4,1.6-0.4c1.4-0.1,0.3,0.8-0.2,1.4c-0.1,0.1,0,0.3,0.1,0.3c1.2-0.1,2.4-0.2,3.6-0.3c0-0.1,0-0.2-0.1-0.3
			c-0.7,0.2-1.5,0.3-2.2,0.4c0,0.1,0,0.2,0.1,0.3c0.9-0.1,1.9-0.3,2.8-0.3c0-0.1,0-0.2-0.1-0.3c-0.9,0.2-1.8,0.3-2.7,0.4
			c0,0.1,0,0.2,0.1,0.3c0.9-0.2,1.7-0.3,2.6-0.4c0-0.1,0-0.2,0-0.3c-1.1,0.1-2.1,0.2-3.2,0.3c0,0.1,0,0.2,0,0.3
			c1.1-0.1,2.1-0.3,3.2-0.4c0.2,0,0.2-0.4,0-0.3c-1.2,0.1-2.4,0.2-3.5,0.4c0,0.1,0.1,0.2,0.1,0.3c1.2-0.3,2.3-0.4,3.5-0.5
			c0-0.1,0-0.2-0.1-0.3c-0.7,0.1-1.5,0.3-2.2,0.4C51,21.9,51.2,22.2,51.4,22.2L51.4,22.2z"/>
	</g>
	<g>
		<path class="st0" d="M60,17c0.4-0.1,0.7-0.2,1.1-0.3c0.1-0.1,0.2-0.3,0-0.3c-0.4-0.1-0.7,0-1,0.1c-0.2,0.1-0.1,0.3,0.1,0.3
			c0.3,0,0.6,0,0.9-0.1c0.2-0.1,0.2-0.3-0.1-0.3c-0.4,0-0.8,0-1.3,0.1c-0.2,0-0.3,0.3-0.1,0.3c0.2,0.1,0.4,0.1,0.5,0.2
			c0.2,0.1,0.3-0.3,0.1-0.3c-0.2-0.1-0.4-0.1-0.5-0.2c0,0.1,0,0.2-0.1,0.3c0.4,0,0.8-0.1,1.3-0.1c0-0.1,0-0.2-0.1-0.3
			c-0.3,0.1-0.5,0.1-0.8,0.1c0,0.1,0.1,0.2,0.1,0.3c0.2-0.1,0.5-0.1,0.8-0.1c0-0.1,0-0.2,0-0.3c-0.4,0.1-0.7,0.2-1.1,0.3
			C59.7,16.7,59.8,17.1,60,17L60,17z"/>
	</g>
	<g>
		<path class="st0" d="M54.1,18.6c-0.5,0-0.9,0.1-1.3,0.4c-0.1,0.1-0.1,0.3,0.1,0.3c0.3,0,0.6-0.1,0.9-0.2c0.2-0.1,0.1-0.4-0.1-0.3
			c-0.4,0.1-0.7,0.2-1.1,0.4c-0.2,0.1-0.1,0.3,0.1,0.3c0.3,0,0.5-0.1,0.7-0.2c0.2-0.1,0-0.4-0.2-0.3c-0.1,0.1-0.2,0.1-0.3,0.1
			c-0.2,0.1,0,0.4,0.2,0.3c0.1-0.1,0.2-0.1,0.3-0.1c-0.1-0.1-0.1-0.2-0.2-0.3c-0.2,0.1-0.4,0.2-0.6,0.2c0.1,0.1,0.1,0.2,0.1,0.3
			c0.3-0.2,0.7-0.3,1-0.4c0-0.1-0.1-0.2-0.1-0.3c-0.3,0.1-0.5,0.1-0.8,0.1c0,0.1,0.1,0.2,0.1,0.3c0.4-0.2,0.7-0.3,1.1-0.3
			C54.3,19,54.3,18.6,54.1,18.6L54.1,18.6z"/>
	</g>
	<g>
		<path class="st0" d="M63.4,17.9c0.6-0.2,1.2-0.2,1.8-0.1c0-0.2,0-0.5,0-0.7c-1,0.2-1.9,0.3-2.9,0.3c0,0.2,0,0.5,0,0.7
			c1.6-0.1,3.1-0.1,4.7,0c0-0.2,0-0.5,0-0.7c-1.6,0.1-3.2,0.1-4.8,0.1c0,0.2,0,0.5,0,0.7c1.9-0.1,3.8-0.1,5.7,0c0-0.2,0-0.5,0-0.7
			c-1.9,0.2-3.8,0.3-5.8,0.4c-0.5,0-0.5,0.7,0,0.7c2.1,0,4.1,0,6.2,0.1c0-0.2,0-0.5,0-0.7c-1.9,0.1-3.8,0.1-5.7,0.1
			c0,0.2,0,0.5,0,0.7c1.9-0.2,3.8-0.2,5.7-0.1c0-0.2,0-0.5,0-0.7c-1.8,0.1-3.7,0.2-5.6,0.3c-0.5,0-0.5,0.7,0,0.7
			c1.5,0,3-0.2,4.5-0.5c0.3-0.1,0.3-0.6,0-0.7c-1.8-0.3-3.7-0.5-5.6-0.6c0,0.2,0,0.5,0,0.7c1.5-0.1,3-0.1,4.5,0.1c0-0.2,0-0.5,0-0.7
			c-1.2,0-2.4,0-3.6,0.1c-0.5,0-0.5,0.7,0,0.7c0.9,0,1.7,0,2.6,0c0-0.2,0-0.5,0-0.7c-0.5,0-1-0.1-1.5-0.2c0,0.2,0,0.5,0,0.7
			c1.6-0.3,3.1-0.4,4.7-0.4c0.5,0,0.5-0.7,0-0.7c-1.3-0.1-2.5-0.2-3.8-0.4c0,0.2-0.1,0.5-0.1,0.7c1.6,0.1,3.2,0.3,4.7,0.6
			c0.1-0.2,0.1-0.5,0.2-0.7c-2-0.3-4-0.5-6-0.8c0,0.2-0.1,0.5-0.1,0.7c1.8-0.1,3.6,0.1,5.3,0.4c0-0.2,0.1-0.5,0.1-0.7
			c-1.9,0-3.8-0.2-5.6-0.4c0,0.2,0,0.5,0,0.7c1.6,0,3.3,0,5,0.2c0.4,0,0.5-0.6,0.1-0.7c-1.3-0.2-2.6-0.4-3.9-0.6
			c0,0.2-0.1,0.5-0.1,0.7c1.4-0.1,2.8,0,4.3,0.2c0-0.2,0.1-0.5,0.1-0.7c-1.3-0.1-2.6-0.3-3.9-0.5c0,0.2-0.1,0.5-0.1,0.7
			c1.4,0.2,2.7,0.4,4.1,0.7c0-0.2,0.1-0.5,0.1-0.7c-1.2-0.1-2.4-0.3-3.6-0.7c0,0.2-0.1,0.5-0.1,0.7c1,0,2,0.1,3,0.2
			c0.4,0.1,0.5-0.6,0.1-0.7c-0.9-0.2-1.9-0.3-2.8-0.5c0,0.2-0.1,0.5-0.1,0.7c0.5,0,1.1,0.1,1.6,0.1c0-0.2,0.1-0.5,0.1-0.7
			c-0.6,0-1.1-0.1-1.6-0.3c0,0.2-0.1,0.5-0.1,0.7c2.6,0.1,4.9,1,7.1,2.4c0.1-0.2,0.2-0.4,0.4-0.6c-0.7-0.4-1.4-0.7-2.1-1.1
			c-0.1,0.2-0.2,0.4-0.3,0.7c0.7,0.2,1.3,0.5,1.9,0.9c0.4,0.2,0.7-0.4,0.4-0.6c-0.9-0.6-1.8-1-2.8-1.2c-0.5-0.1-0.6,0.5-0.2,0.7
			c1.5,0.5,2.7,1.3,3.7,2.4c0.3,0.3,0.8-0.1,0.6-0.4c-0.3-0.4-0.6-0.8-0.9-1.1c-0.1,0.2-0.3,0.4-0.4,0.6c1,0.7,1.9,1.6,2.7,2.6
			c0.1-0.2,0.2-0.4,0.3-0.6c-1.6-0.4-3.3-0.8-4.9-1.2c0,0.2-0.1,0.5-0.1,0.7c0.9,0.1,1.7,0.3,2.6,0.7c0.1-0.2,0.2-0.4,0.3-0.7
			c-0.9-0.2-1.7-0.4-2.6-0.7c-0.4-0.1-0.6,0.5-0.2,0.7c0.9,0.3,1.7,0.5,2.6,0.7c0.4,0.1,0.7-0.5,0.3-0.7c-1-0.4-1.9-0.7-3-0.8
			c-0.4-0.1-0.5,0.6-0.1,0.7c1.6,0.4,3.3,0.8,4.9,1.2c0.4,0.1,0.6-0.3,0.3-0.6c-0.9-1-1.8-1.9-2.9-2.7c-0.3-0.3-0.7,0.3-0.4,0.6
			c0.3,0.3,0.6,0.6,0.8,1c0.2-0.1,0.4-0.3,0.6-0.4c-1.1-1.3-2.4-2.1-4-2.6c-0.1,0.2-0.1,0.5-0.2,0.7c0.9,0.3,1.8,0.6,2.6,1.2
			c0.1-0.2,0.2-0.4,0.4-0.6c-0.7-0.4-1.3-0.7-2.1-0.9c-0.4-0.1-0.6,0.5-0.3,0.7c0.7,0.4,1.4,0.7,2.1,1.1c0.4,0.2,0.7-0.4,0.4-0.6
			c-2.3-1.5-4.8-2.3-7.5-2.5c-0.4,0-0.5,0.6-0.1,0.7c0.6,0.2,1.2,0.3,1.8,0.3c0.4,0,0.5-0.7,0.1-0.7c-0.6-0.1-1.2-0.1-1.8-0.2
			c-0.4,0-0.5,0.6-0.1,0.7c0.9,0.2,1.9,0.3,2.8,0.5c0-0.2,0.1-0.5,0.1-0.7c-1-0.1-2-0.2-3-0.2c-0.4,0-0.5,0.6-0.1,0.7
			c1.3,0.3,2.5,0.5,3.8,0.7c0.4,0,0.5-0.6,0.1-0.7c-1.4-0.3-2.8-0.6-4.3-0.7c-0.4-0.1-0.5,0.6-0.1,0.7c1.4,0.2,2.7,0.4,4.1,0.5
			c0.4,0,0.5-0.7,0.1-0.7c-1.5-0.2-3-0.3-4.5-0.2c-0.4,0-0.5,0.6-0.1,0.7c1.3,0.2,2.6,0.4,3.9,0.6c0-0.2,0.1-0.5,0.1-0.7
			c-1.6-0.2-3.3-0.2-5-0.2c-0.5,0-0.5,0.7,0,0.7c1.8,0.2,3.7,0.4,5.6,0.4c0.4,0,0.5-0.6,0.1-0.7c-1.8-0.3-3.7-0.5-5.5-0.4
			c-0.4,0-0.5,0.7-0.1,0.7c2,0.3,4,0.5,6,0.8c0.4,0.1,0.7-0.6,0.2-0.7c-1.6-0.3-3.3-0.5-4.9-0.6c-0.4,0-0.5,0.6-0.1,0.7
			c1.3,0.2,2.6,0.4,3.9,0.5c0-0.2,0-0.5,0-0.7c-1.6,0-3.3,0.1-4.9,0.4c-0.4,0.1-0.3,0.6,0,0.7c0.6,0.2,1.1,0.3,1.6,0.3
			c0.5,0,0.5-0.7,0-0.7c-0.9,0-1.7,0-2.6,0c0,0.2,0,0.5,0,0.7c1.2,0,2.4,0,3.6-0.1c0.5,0,0.5-0.7,0-0.7c-1.5-0.2-3-0.2-4.5-0.1
			c-0.5,0-0.5,0.7,0,0.7c1.8,0.1,3.6,0.2,5.4,0.5c0-0.2,0-0.5,0-0.7c-1.4,0.3-2.9,0.4-4.4,0.4c0,0.2,0,0.5,0,0.7
			c1.8-0.1,3.7-0.2,5.6-0.3c0.5,0,0.5-0.7,0-0.7c-1.9-0.1-3.8-0.1-5.7,0.1c-0.5,0-0.5,0.7,0,0.7c1.9-0.1,3.8-0.1,5.7-0.1
			c0.5,0,0.5-0.7,0-0.7c-2.1,0-4.1,0-6.2-0.1c0,0.2,0,0.5,0,0.7c1.9-0.1,3.9-0.2,5.8-0.4c0.5-0.1,0.5-0.7,0-0.7
			c-1.9-0.1-3.8-0.1-5.7,0c-0.5,0-0.5,0.7,0,0.7c1.6-0.1,3.2-0.1,4.8-0.1c0.5,0,0.5-0.7,0-0.7c-1.6-0.1-3.1-0.1-4.7,0
			c-0.5,0-0.5,0.7,0,0.7c1.1-0.1,2.1-0.2,3.1-0.3c0.3-0.1,0.3-0.6,0-0.7c-0.8-0.1-1.4-0.1-2.2,0.1C62.8,17.4,63,18,63.4,17.9
			L63.4,17.9z"/>
	</g>
	<g>
		<path class="st0" d="M66.4,19.2c-0.1-0.1-0.3-0.2-0.4-0.2c-0.1,0.2-0.1,0.5-0.2,0.7c1.9-0.1,3.7,0.1,5.5,0.6
			c0-0.2,0.1-0.5,0.1-0.7c-1.7,0.1-3.4,0-5-0.5c0,0.2-0.1,0.5-0.1,0.7c1.6-0.1,3.2,0.1,4.8,0.4c0-0.2,0.1-0.5,0.1-0.7
			c-1.4,0-2.8-0.2-4.2-0.4c0,0.2-0.1,0.5-0.1,0.7c1.9,0,3.7,0.2,5.6,0.5c0-0.2,0.1-0.5,0.1-0.7c-1.7-0.1-3.4-0.2-5.1-0.3
			c-0.5,0-0.5,0.7,0,0.7c1.5,0.1,3,0.3,4.5,0.7c0-0.2,0-0.5,0-0.7c-0.6,0.1-1.1,0.1-1.7,0c0,0.2,0,0.5,0,0.7
			c1.1-0.2,2.1-0.1,3.2-0.1c0.4,0,0.5-0.6,0.1-0.7c-1.7-0.4-3.3-0.8-5-1.1c0,0.2-0.1,0.5-0.1,0.7c1.5,0.1,2.9,0.2,4.4,0.5
			c0.1-0.2,0.1-0.5,0.2-0.7c-1.8-0.3-3.7-0.5-5.5-0.8c0,0.2-0.1,0.5-0.1,0.7c1.4,0,2.8,0.1,4.2,0.1c0.5,0,0.5-0.7,0-0.7
			c-1.4-0.1-2.7-0.2-4.1-0.3c0,0.2,0,0.5,0,0.7c1.2,0,2.4,0,3.6-0.1c0.5,0,0.5-0.7,0-0.7c-1.1-0.1-2.2-0.2-3.2-0.4
			c0,0.2,0,0.5,0,0.7c1.1,0.1,2,0,3.1-0.1c0.4-0.1,0.5-0.6,0.1-0.7c-0.9-0.2-1.8-0.4-2.8-0.7c0,0.2-0.1,0.5-0.1,0.7
			c1,0.1,2,0.2,3,0.3c0.5,0.1,0.5-0.7,0-0.7c-0.8-0.1-1.5-0.3-2.2-0.5c-0.1,0.2-0.1,0.5-0.2,0.7c1.5,0.3,2.8,0.9,3.8,2
			c0.1-0.2,0.2-0.4,0.3-0.6c-0.9-0.3-1.7-0.8-2.4-1.5c-0.1,0.2-0.2,0.4-0.3,0.6c1.4,0.5,2.6,1.3,3.7,2.3c0.1-0.2,0.2-0.4,0.3-0.6
			c-0.4-0.1-0.8-0.3-1.2-0.4c-0.1,0.2-0.1,0.5-0.2,0.7c0.7,0.1,1.2,0.3,1.7,0.8c0.3,0.3,0.8-0.2,0.5-0.5c-0.6-0.6-1.2-0.9-2-1
			c-0.5-0.1-0.6,0.5-0.2,0.7c0.4,0.1,0.8,0.3,1.2,0.4c0.3,0.1,0.6-0.4,0.3-0.6c-1.1-1.1-2.4-1.9-4-2.5c-0.3-0.1-0.6,0.4-0.3,0.6
			c0.8,0.7,1.7,1.3,2.7,1.6c0.3,0.1,0.6-0.3,0.3-0.6c-1.1-1.2-2.5-1.9-4.1-2.2c-0.5-0.1-0.6,0.5-0.2,0.7c0.8,0.3,1.6,0.5,2.4,0.5
			c0-0.2,0-0.5,0-0.7c-1-0.1-2-0.2-3-0.3c-0.4,0-0.5,0.6-0.1,0.7c0.9,0.2,1.8,0.4,2.8,0.7c0-0.2,0.1-0.5,0.1-0.7
			c-1,0.1-2,0.2-3.1,0.1c-0.5,0-0.5,0.7,0,0.7c1.1,0.1,2.2,0.2,3.2,0.4c0-0.2,0-0.5,0-0.7C70,18,68.8,18,67.6,18
			c-0.5,0-0.5,0.7,0,0.7c1.4,0.1,2.7,0.2,4.1,0.3c0-0.2,0-0.5,0-0.7c-1.4,0-2.8-0.1-4.2-0.1c-0.4,0-0.5,0.6-0.1,0.7
			c1.8,0.3,3.7,0.5,5.5,0.8c0.5,0.1,0.7-0.6,0.2-0.7c-1.5-0.3-3-0.4-4.6-0.5c-0.4,0-0.5,0.6-0.1,0.7c1.7,0.4,3.3,0.8,5,1.1
			c0-0.2,0.1-0.5,0.1-0.7c-1.1-0.1-2.2-0.1-3.4,0.1c-0.3,0.1-0.3,0.6,0,0.7c0.7,0.1,1.4,0.1,2.1,0c0.3-0.1,0.3-0.6,0-0.7
			c-1.6-0.3-3.1-0.5-4.7-0.7c0,0.2,0,0.5,0,0.7c1.7,0.1,3.4,0.2,5.1,0.3c0.4,0,0.5-0.6,0.1-0.7c-1.9-0.3-3.8-0.5-5.8-0.6
			c-0.4,0-0.5,0.6-0.1,0.7c1.5,0.2,2.9,0.4,4.4,0.4c0.4,0,0.5-0.6,0.1-0.7c-1.7-0.3-3.3-0.5-5-0.4c-0.4,0-0.5,0.6-0.1,0.7
			c1.7,0.5,3.4,0.6,5.2,0.5c0.4,0,0.5-0.6,0.1-0.7c-1.9-0.5-3.8-0.8-5.7-0.7c-0.3,0-0.5,0.5-0.2,0.7c0.1,0.1,0.3,0.2,0.4,0.2
			C66.5,20,66.8,19.4,66.4,19.2L66.4,19.2z"/>
	</g>
	<g>
		<path class="st0" d="M69.7,17c-0.1-0.1-0.1-0.2-0.2-0.3c-0.1,0.2-0.1,0.3-0.2,0.5c0.4-0.1,0.7,0,1.1,0.2c0.1-0.2,0.2-0.4,0.4-0.6
			c-0.3-0.1-0.5-0.3-0.8-0.4c0,0.2-0.1,0.4-0.1,0.7c0.2-0.1,0.4-0.1,0.6,0c0.1-0.2,0.1-0.5,0.2-0.7c-0.3-0.1-0.5-0.1-0.7-0.3
			c-0.1,0.2-0.2,0.4-0.4,0.6c1.2,0.5,2.2,1.3,3,2.2c0.3,0.3,0.8-0.1,0.5-0.5c-0.9-1-1.9-1.8-3.2-2.3c-0.4-0.2-0.7,0.3-0.4,0.6
			c0.3,0.2,0.5,0.3,0.9,0.4c0.5,0.1,0.6-0.5,0.2-0.7c-0.3-0.1-0.6-0.1-0.9,0C69.5,16.4,69.3,16.9,69.7,17c0.2,0.2,0.5,0.3,0.7,0.5
			c0.4,0.2,0.7-0.4,0.4-0.6c-0.5-0.3-1.1-0.4-1.6-0.3c-0.2,0-0.3,0.3-0.2,0.5c0.1,0.1,0.1,0.2,0.2,0.3C69.3,17.7,69.9,17.3,69.7,17
			L69.7,17z"/>
	</g>
	<g>
		<path class="st0" d="M53.3,78.1c-2-1.7-3.2,3.1-3.4,4.2c-0.2,1.1,0,2.5,1,3.1c1.4,0.9,2.6-0.5,3.1-1.7c0.1-0.2-0.3-0.3-0.3-0.1
			c-0.5,1.1-1.8,2.8-3.1,1c-0.3-0.4-0.4-1.1-0.4-1.5c0-0.5,0.1-1.1,0.3-1.6c0.2-0.8,1.3-4.3,2.6-3.2C53.3,78.5,53.5,78.2,53.3,78.1
			L53.3,78.1z"/>
	</g>
	<g>
		<path class="st0" d="M49.1,79.2c-1.2,2.2-2.5,5.2-1.6,7.7c0.6,1.7,2.4,2.8,4.1,1.9c0.2-0.1,0-0.4-0.2-0.3c-2.7,1.4-4-2.1-3.7-4.1
			c0.2-1.8,0.9-3.5,1.8-5C49.5,79.2,49.2,79,49.1,79.2L49.1,79.2z"/>
	</g>
	<g>
		<path class="st0" d="M29,105c1.6,2.8,3.3,5.5,5.1,8.1c1.4,2.1,3,4.2,5.1,5.7c0.2,0.1,0.4-0.2,0.2-0.3c-2.4-1.6-4-4.1-5.6-6.5
			c-1.6-2.4-3.1-4.8-4.5-7.2C29.2,104.7,28.9,104.8,29,105L29,105z"/>
	</g>
	<g>
		<path class="st0" d="M34.3,106.7c2.9,5.5,6.7,10.6,11.1,15c0.2,0.2,0.4-0.1,0.3-0.3c-4.4-4.4-8.1-9.4-11-15
			C34.5,106.4,34.2,106.5,34.3,106.7L34.3,106.7z"/>
	</g>
	<g>
		<path class="st0" d="M40.2,108.2c0.8,2.3,1.7,4.5,2.7,6.7c0.5,1.1,1.1,2.2,1.6,3.4c0.5,0.9,0.9,2.1,1.6,2.8c0.1,0.1,0.2,0.1,0.3,0
			c0,0,0.1-0.1,0.1-0.1c0.1-0.1,0.1-0.1,0-0.2c0,0,0-0.1-0.1-0.1c-0.1-0.2-0.4,0-0.3,0.2c-2.1-4.1-4.1-8.4-5.6-12.7
			C40.5,107.9,40.1,107.9,40.2,108.2L40.2,108.2z"/>
	</g>
	<g>
		<path class="st0" d="M45,109c1.1,3.6,2.1,7.1,3.2,10.7c0.1,0.2,0.4,0.1,0.3-0.1c-1.1-3.6-2.1-7.1-3.2-10.7
			C45.3,108.7,45,108.8,45,109L45,109z"/>
	</g>
	<g>
		<path class="st0" d="M47.9,109.6c0.6,3.1,1.3,6.2,1.9,9.3c0.1,0.2,0.4,0.1,0.3-0.1c-0.6-3.1-1.3-6.2-1.9-9.3
			C48.2,109.3,47.9,109.3,47.9,109.6L47.9,109.6z"/>
	</g>
	<g>
		<path class="st0" d="M50.4,109.5c0.1,2.8,0.4,5.6,1.1,8.3c0.1,0.2,0.4,0.1,0.3-0.1c-0.6-2.7-1-5.5-1.1-8.2
			C50.7,109.3,50.4,109.3,50.4,109.5L50.4,109.5z"/>
	</g>
	<g>
		<path class="st0" d="M81.7,103.6c-0.7,5.3-1.5,10.5-2.4,15.8c0,0.2,0.3,0.3,0.3,0.1c0.9-5.3,1.8-10.5,2.4-15.9
			C82.1,103.4,81.7,103.4,81.7,103.6L81.7,103.6z"/>
	</g>
	<g>
		<path class="st0" d="M84,103.3c0.3,5-0.3,9.9-1.6,14.7c-0.1,0.2,0.3,0.3,0.3,0.1c1.4-4.8,2-9.8,1.7-14.8C84.3,103,84,103,84,103.3
			L84,103.3z"/>
	</g>
	<g>
		<path class="st0" d="M75.9,105.9c0.5,3.8,0.5,7.5,0,11.3c0,0.2,0.3,0.3,0.3,0.1c0.5-3.8,0.5-7.6,0.1-11.4
			C76.2,105.6,75.8,105.6,75.9,105.9L75.9,105.9z"/>
	</g>
	<g>
		<path class="st0" d="M72.2,106.9c0.2,2.7,0,5.4-0.6,8c-0.1,0.2,0.3,0.3,0.3,0.1c0.6-2.7,0.8-5.4,0.6-8.1
			C72.6,106.7,72.2,106.7,72.2,106.9L72.2,106.9z"/>
	</g>
	<g>
		<path class="st0" d="M74,106.6c0.5,2.9,0.4,5.7-0.3,8.6c-0.1,0.2,0.3,0.3,0.3,0.1c0.6-2.9,0.7-5.9,0.3-8.8
			C74.3,106.2,73.9,106.3,74,106.6L74,106.6z"/>
	</g>
	<g>
		<path class="st0" d="M62.1,109.7c0-0.3,0-0.6,0-0.9c-0.1,0-0.2,0-0.3,0c0.1,1.9,0.2,3.9,0.3,5.8c0,0.2,0.4,0.2,0.3,0
			c-0.1-1.9-0.2-3.9-0.3-5.8c0-0.2-0.3-0.2-0.3,0c0,0.3,0,0.6,0,0.9C61.7,109.9,62.1,109.9,62.1,109.7L62.1,109.7z"/>
	</g>
	<g>
		<path class="st0" d="M99.5,104.5c-2.5-2.9-4.9-6-7-9.2c-1-1.6-2-3.1-2.9-4.7c-0.5-0.8-1.4-2-1.3-3c0-0.7,0-0.5,0.5-0.3
			c0.4,0.1,0.8,0.5,1.2,0.7c5.7,3.7,9.8,9.4,15.1,13.6c0.2,0.1,0.4-0.1,0.3-0.3C99.5,96.6,95,90.1,88.2,86.5c-0.1-0.1-0.3,0-0.3,0.1
			c-0.2,1.6,0.8,3,1.5,4.3c0.9,1.7,2,3.4,3,5c2,3.1,4.3,6.1,6.7,8.9C99.4,104.9,99.6,104.6,99.5,104.5L99.5,104.5z"/>
	</g>
	<g>
		<path class="st0" d="M99.4,92.7c2.2,2.2,4.6,4.2,7.2,6.1c0.2,0.1,0.4-0.2,0.2-0.3c-2.5-1.8-4.9-3.8-7.1-6
			C99.4,92.3,99.2,92.5,99.4,92.7L99.4,92.7z"/>
	</g>
	<g>
		<path class="st0" d="M14.5,89.5c1.7,2.2,4.4,2.9,7,3.4c3.4,0.8,6.8,1.3,10.3,1.7c7.2,0.8,14.6,0.9,21.8,0.1c0.2,0,0.2-0.4,0-0.3
			c-6.7,0.7-13.4,0.7-20.2,0.1c-3.4-0.3-6.8-0.9-10.2-1.6c-3-0.6-6.4-1.2-8.4-3.7C14.7,89,14.4,89.3,14.5,89.5L14.5,89.5z"/>
	</g>
	<g>
		<path class="st0" d="M51,89c-7.8,2.2-16,0.7-23.8-0.9c-0.2-0.1-0.3,0.3-0.1,0.3c7.9,1.6,16.1,3.2,24,0.9
			C51.3,89.3,51.2,88.9,51,89L51,89z"/>
	</g>
	<g>
		<path class="st0" d="M66.6,74.5c0.6-0.1,1.4,0.2,1.6,0.8c0.2,0.5-0.2,1.3-0.8,1.4c-0.7,0.1-1.4-0.9-0.6-1.3
			c0.2-0.1,0.5-0.1,0.7-0.1c0.6,0.2-0.1,0.5-0.3,0.2c-0.1-0.2-0.4-0.1-0.3,0.1c0.3,0.9,1.8,0.2,1-0.4c-0.7-0.7-2,0.1-1.7,1.1
			c0.4,1.2,2,1,2.3-0.1c0.4-1.3-0.9-2.1-2-1.9C66.3,74.3,66.4,74.6,66.6,74.5L66.6,74.5z"/>
	</g>
	<g>
		<path class="st0" d="M67,82.3c-0.3-1.7,0.2-3.3,1.2-4.6c-0.1,0-0.2,0-0.3,0c0.4,1.8,0.4,3.5,0,5.3c-0.1,0.2,0.3,0.3,0.3,0.1
			c0.4-1.8,0.4-3.6,0-5.5c0-0.2-0.2-0.1-0.3,0c-1.1,1.4-1.5,3.1-1.2,4.9C66.7,82.7,67,82.6,67,82.3L67,82.3z"/>
	</g>
	<g>
		<path class="st0" d="M40.3,45.8c0,0,1.4-1.2,1.7-1.4c0.7-0.4,1.4-0.8,2.2-1.1c1.5-0.6,3.1-0.9,4.7-0.8c3.3,0.1,6.4,1.4,8.6,3.8
			c0.2,0.2,0.4-0.1,0.3-0.3c-2.9-3-7.1-4.4-11.2-3.8c-2.1,0.4-4.1,1.3-5.9,2.6c-0.3,0.2-1.4,1.2-0.4,1.3
			C40.5,46.2,40.5,45.8,40.3,45.8L40.3,45.8z"/>
	</g>
	<g>
		<path class="st0" d="M62.5,45.9c1.4-3.2,6.1-4,9.1-3.7c3.3,0.3,6.2,2,8.3,4.6c0.1,0.2,0.4-0.1,0.3-0.3c-2.2-2.8-5.5-4.5-9-4.7
			c-3-0.2-7.6,0.8-9,3.9C62.1,45.9,62.4,46.1,62.5,45.9L62.5,45.9z"/>
	</g>
	<g>
		<path class="st0" d="M40.9,50.2c4,3.1,11.1,5.1,15.3,1.2c0.2-0.2-0.1-0.4-0.3-0.3C51.9,55,45,52.9,41.1,49.9
			C40.9,49.8,40.8,50.1,40.9,50.2L40.9,50.2z"/>
	</g>
	<g>
		<path class="st0" d="M64.2,51c4.9,2.4,11.3,3.3,15.3-1.3c0.1-0.2-0.1-0.4-0.3-0.3c-3.9,4.4-10.1,3.6-14.8,1.2
			C64.2,50.6,64,50.9,64.2,51L64.2,51z"/>
	</g>
	<g>
		<g>
			<path class="st0" d="M28.4,110.3C28.4,110.3,28.4,110.3,28.4,110.3c0.1,0.1,0.1,0.2,0.3,0.2c0.2,0,0.2-0.1,0.3-0.2
				c0-0.1,0-0.2-0.1-0.2c-0.4-0.3-1-0.1-1.5,0c-0.9,0-1.8-0.1-2.5-0.7c-0.5-0.5-0.9-1.3-0.7-2c0.3-1.1,1.6-1,2.5-0.9
				c0.2,0,0.2-0.3,0-0.3c-0.9-0.1-1.9-0.2-2.5,0.6c-0.5,0.5-0.5,1.3-0.2,2c0.3,0.7,0.8,1.2,1.5,1.5c0.5,0.2,0.9,0.3,1.4,0.3
				c0.3,0,0.5,0,0.8,0c0.2,0,0.3,0,0.5-0.1c0.2,0,0.3,0,0.4-0.2c0.1,0,0.1,0.1,0.2,0.1c0,0,0-0.1,0-0.1
				C28.7,110,28.3,110,28.4,110.3L28.4,110.3z"/>
		</g>
	</g>
	<g>
		<g>
			<path class="st0" d="M38.2,36.2c0.6-0.1,1.2-0.1,1.8-0.2c0.9-0.1,0.9-1.5,0-1.4c-0.7,0.1-1.5,0.1-2.2,0.2
				c-0.4,0.1-0.6,0.5-0.5,0.9C37.5,36.1,37.9,36.3,38.2,36.2L38.2,36.2z"/>
		</g>
	</g>
	<g>
		<g>
			<path class="st0" d="M47.8,20.9c-0.1,0-0.1,0-0.2,0c-0.4,0-0.7,0.3-0.7,0.7c0,0.4,0.3,0.7,0.7,0.7c0.1,0,0.1,0,0.2,0
				c0.4,0,0.7-0.3,0.7-0.7C48.5,21.2,48.2,20.9,47.8,20.9L47.8,20.9z"/>
		</g>
	</g>
	<g>
		<g>
			<path class="st0" d="M53.3,34.6c-0.3,0-0.7,0.1-0.9,0.5c-0.1,0.3-0.1,0.8,0.3,1c0.1-0.4,0.1-0.9,0.2-1.3c-0.1,0,0.2,0,0,0
				c-0.1,0,0,0,0.1,0c0,0-0.1,0-0.1,0c-0.3-0.1-0.8,0.1-0.9,0.5c-0.1,0.4,0.1,0.7,0.5,0.9c0.3,0.1,0.5,0.1,0.8,0
				c0.3-0.1,0.5-0.3,0.5-0.6c0-0.3-0.1-0.6-0.3-0.7h0c0.1,0.1,0.2,0.2,0.3,0.3c0,0.1,0,0.3,0.1,0.4c-0.1,0.1-0.1,0.2-0.2,0.3
				C53.3,36,53,35.9,53.2,36c0.4,0,0.7-0.3,0.7-0.7C53.9,34.9,53.7,34.6,53.3,34.6L53.3,34.6z"/>
		</g>
	</g>
	<g>
		<g>
			<path class="st0" d="M64,16.9c0.4-0.2,0.8-0.2,1.2,0c0.3,0.2,0.8,0.1,1-0.3c0.2-0.3,0.1-0.8-0.3-1c-0.7-0.3-1.6-0.4-2.3-0.1
				c-0.4,0.1-0.6,0.5-0.5,0.9C63.2,16.8,63.6,17,64,16.9L64,16.9z"/>
		</g>
	</g>
	<g>
		<g>
			<path class="st0" d="M63.8,20.8c0.3-0.1,0.7-0.1,1-0.1c-0.1-0.5-0.2-0.9-0.4-1.3c-0.2,0.1-0.3,0.2-0.5,0.3
				c-0.2,0.1-0.3,0.5-0.2,0.7c0.4,1,1.9,0.6,2.7,0.5c0.4-0.1,0.6-0.5,0.5-0.9c-0.1-0.4-0.5-0.5-0.9-0.5c-0.4,0.1-1,0.2-1.4,0.1
				c0.2,0.2,0.3,0.3,0.5,0.5c0,0,0-0.1,0-0.1c-0.1,0.2-0.1,0.5-0.2,0.7c0.1,0,0.1,0,0.2-0.1c0.7-0.3,0.3-1.3-0.4-1.3
				c-0.5,0-0.9,0.1-1.4,0.2C62.5,19.7,62.9,21,63.8,20.8L63.8,20.8z"/>
		</g>
	</g>
	<g>
		<g>
			<path class="st0" d="M55.4,59.6c-0.3,0.1-0.5,0.5-0.5,0.9c0,0.3,0.2,0.5,0.4,0.7c0.3,0.1,0.5,0,0.8-0.1c0,0,0,0,0.1,0
				c0.3-0.2,0.3-0.8,0-1c-0.3-0.3-0.7-0.3-1,0c0,0,0,0-0.1,0c0.4,0.2,0.8,0.3,1.2,0.5c0,0.1-0.1,0.2-0.1,0.3
				c-0.1,0.1-0.1,0.1-0.1,0.1c0.3-0.2,0.5-0.7,0.3-1C56.1,59.5,55.7,59.4,55.4,59.6L55.4,59.6z"/>
		</g>
	</g>
	<g>
		<g>
			<g>
				<path class="st0" d="M61.6,59.5L61.6,59.5c0.3,0.2,0.7,0.1,0.9-0.1l0,0c0.2-0.2,0.3-0.6,0.1-0.9c0,0-0.1-0.1-0.1-0.1
					c-0.3,0.3-0.5,0.7-0.8,1.1c0.1,0,0.1,0.1,0.2,0.1c0.3,0.2,0.7,0.1,1-0.3c0-0.1,0.1-0.1,0.1-0.2c-0.1,0.1-0.3,0.2-0.4,0.3
					c0.5-0.2,1.4,0.1,2,0.3c0.7,0.1,1.4,0.3,2.1,0.4c0.7,0.1,1.3-1,0.5-1.3c-0.7-0.3-1.5-0.7-2.2-1c-0.2,0.4-0.4,0.9-0.5,1.3
					c0.6,0.1,1.3,0.3,1.9,0.5c0.9,0.2,1.3-1.1,0.4-1.4c-0.8-0.3-1.6-0.5-2.5-0.8c-0.1,0.5-0.3,0.9-0.4,1.4c0.7,0.2,1.4,0.4,2.1,0.6
					c0.1-0.5,0.3-0.9,0.4-1.4c-0.7-0.1-1.4-0.3-2.1-0.4c-0.9-0.2-1.3,1.1-0.4,1.4c0.8,0.2,1.6,0.4,2.3,0.6c0.9,0.2,1.3-1.2,0.4-1.4
					c-0.8-0.2-1.6-0.4-2.3-0.6c-0.1,0.5-0.3,0.9-0.4,1.4c0.7,0.1,1.4,0.3,2.1,0.4c0.9,0.2,1.3-1.1,0.4-1.4c-0.7-0.2-1.4-0.4-2.1-0.6
					c-0.9-0.2-1.3,1.1-0.4,1.4c0.8,0.3,1.6,0.5,2.5,0.8c0.1-0.5,0.3-0.9,0.4-1.4c-0.6-0.1-1.3-0.3-1.9-0.5c-0.7-0.2-1.3,1-0.5,1.3
					c0.7,0.3,1.5,0.7,2.2,1c0.2-0.4,0.4-0.9,0.5-1.3c-1.2-0.2-2.4-0.5-3.6-0.7c-0.7-0.1-1.3-0.1-1.8,0.5c0.3-0.1,0.7-0.2,1-0.3
					c-0.2-0.1-0.3-0.2-0.5-0.2c-0.5-0.1-1.2,0.5-0.8,1.1c0,0,0.1,0.1,0.1,0.1c0-0.3,0.1-0.6,0.1-0.9l0,0c0.3,0,0.6-0.1,0.9-0.1l0,0
					C61.6,57.7,60.9,58.9,61.6,59.5L61.6,59.5z"/>
			</g>
		</g>
	</g>
</g>
</svg>
