<?xml version="1.0" encoding="utf-8"?>
<!-- Generator: Adobe Illustrator 24.0.1, SVG Export Plug-In . SVG Version: 6.00 Build 0)  -->
<svg version="1.1" id="Layer_1" xmlns="http://www.w3.org/2000/svg" xmlns:xlink="http://www.w3.org/1999/xlink" x="0px" y="0px"
	 viewBox="0 0 141.7 141.7" style="enable-background:new 0 0 141.7 141.7;" xml:space="preserve">
<style type="text/css">
	.st0{fill:#070707;}
</style>
<g id="Layer_1_1_">
</g>
<g id="Layer_1_2_">
</g>
<g id="Layer_1_3_">
</g>
<g id="Layer_1_4_">
</g>
<g id="Layer_1_5_">
</g>
<g id="Layer_3">
</g>
<g id="Layer_3_1_">
</g>
<g id="Layer_1_6_">
</g>
<g id="Layer_1_7_">
</g>
<g id="Layer_1_8_">
</g>
<g id="Layer_1_9_">
</g>
<g id="Layer_1_10_">
</g>
<g id="Layer_1_11_">
</g>
<g id="Layer_1_12_">
</g>
<g id="Layer_1_13_">
</g>
<g id="Layer_1_14_">
</g>
<g id="Layer_1_15_">
</g>
<g id="Layer_1_16_">
</g>
<g id="Layer_1_17_">
</g>
<g id="Layer_1_18_">
</g>
<g id="Layer_1_19_">
</g>
<g id="Layer_1_20_">
</g>
<g id="Layer_2_1_">
</g>
<g id="Layer_4">
	<g>
		<g>
			<g>
				<path class="st0" d="M95.3,29.9c-4.2-7.5-13-11.3-21.3-11.3c-2.9,0-5.9,0.4-8.7,0.7c-2.8,0.3-5.7,0.4-8.4,0.9
					c-4.7,0.9-9,3.4-12.3,6.9c-5.6,6.2-7.1,14.7-7.2,22.8c-0.2,9.8,1.3,19.5,0.9,29.2c-0.3,6.5-1.5,13.2-0.4,19.6
					c0.9,5.4,3.5,10.2,7.2,14.1c0.4,0.4,1-0.2,0.6-0.6c-3.4-3.6-5.8-7.9-6.8-12.7c-1.1-5.3-0.4-10.8,0-16.1c0.4-5.5,0.5-11,0.1-16.5
					c-0.2-3.9-0.6-7.8-0.8-11.7c-0.3-7.9,0-16.5,4-23.5c2.1-3.8,5.4-7,9.3-9c5.2-2.5,11.4-2.5,17-3.1c5-0.5,9.8-0.5,14.6,1.3
					c4.8,1.7,9,4.8,11.4,9.3C94.8,30.8,95.5,30.4,95.3,29.9L95.3,29.9z"/>
			</g>
		</g>
	</g>
	<g>
		<g>
			<g>
				<path class="st0" d="M51.2,116.9c5.3,3.2,12,3.2,17.9,2.8c3-0.3,6.1-0.7,9.1-1.2c3.3-0.6,6.9-0.8,9.7-2.6c0.5-0.3,0-1-0.4-0.8
					c-2.7,1.7-6.2,2-9.3,2.5c-3,0.5-6,1-9.1,1.2c-5.8,0.5-12.4,0.5-17.5-2.6C51.1,115.9,50.7,116.6,51.2,116.9L51.2,116.9z"/>
			</g>
		</g>
	</g>
	<g>
		<g>
			<g>
				<path class="st0" d="M58.4,20.8c0.6,0,0.6-0.9,0-0.9C57.8,20,57.8,20.8,58.4,20.8L58.4,20.8z"/>
			</g>
		</g>
	</g>
	<g>
		<g>
			<g>
				<path class="st0" d="M30.4,26.6c-4.9-0.4-7.5-5.7-4.3-9.6c2.2-2.6,7.9-4.4,10.5-1.4c0.4,0.4,1-0.2,0.6-0.6
					c-1.5-1.7-4.1-1.9-6.2-1.6c-2.4,0.3-4.8,1.8-6.1,3.8c-3,4.6,0.4,9.8,5.5,10.3C31,27.6,31,26.7,30.4,26.6L30.4,26.6z"/>
			</g>
		</g>
	</g>
	<g>
		<g>
			<g>
				<path class="st0" d="M96.4,15.5c3.2-1.7,8.5-2.6,10.8,1c2.4,3.6,1,9.3-3.6,10.2c-0.6,0.1-0.3,0.9,0.2,0.8c5-1,6.7-6.9,4.4-11.1
					c-2.4-4.4-8.4-3.6-12.2-1.7C95.4,15.1,95.9,15.8,96.4,15.5L96.4,15.5z"/>
			</g>
		</g>
	</g>
	<g>
		<g>
			<g>
				<path class="st0" d="M64.4,46.5c0.1-0.4,0.1-0.5-0.2-0.3c-0.1,0-0.2,0.1-0.3,0.1c-0.3,0.1-0.5,0.3-0.8,0.4
					c-0.6,0.4-1.1,0.8-1.6,1.3c-0.7,0.8-1.5,1.9-1.3,3c0.3,1.2,1.8,1.9,2.9,2.1c2.2,0.3,4.3-1.1,6.5-1c2.2,0.1,6.4,2.5,6.8-1.5
					c0.2-2.8-3.2-4.2-5.3-5c-0.3-0.1-0.4,0.3-0.1,0.4c1.9,0.7,5.5,2.2,4.9,4.9c-0.7,3.1-4.4,0.9-6.3,0.8c-2.7-0.1-6.3,2.5-8.6,0
					c-2-2.1,2-4.6,3.6-5.2c0.2-0.1,0.2-0.2,0.1-0.3c-0.1-0.1-0.3,0-0.5,0C64,46.1,64.1,46.6,64.4,46.5L64.4,46.5z"/>
			</g>
		</g>
	</g>
	<g>
		<g>
			<g>
				<path class="st0" d="M72.1,52.6c0.5,1.3,0.7,2.9,0.4,4.2c-0.3,1-1.2,1.8-2.3,1.5c-0.8-0.2-1-0.9-1.3-1.6c-0.1-0.2-0.5,0-0.4,0.2
					c0.3,0.7,0.6,1.5,1.3,1.8c0.7,0.3,1.5,0.1,2.1-0.3c1.7-1.2,1.2-4.3,0.6-5.9C72.4,52.2,72,52.3,72.1,52.6L72.1,52.6z"/>
			</g>
		</g>
	</g>
	<g>
		<g>
			<g>
				<path class="st0" d="M45.4,122.2c2.8-1.4,4.3,2.1,6.2,3.5c0-0.1,0-0.3,0-0.4c-3,0.5-5.5,4.9-8.6,4.2c-1.2-0.3-2.3-1.7-2-2.9
					c0.2-0.9,0.9-1.6,1.5-2.2c1.1-1,2.4-1.8,3.8-2.5c0.2-0.1,0-0.5-0.2-0.4c-2.2,1.1-7.5,4.2-4.9,7.3c3.3,3.8,7.3-2.5,10.6-3
					c0.2,0,0.2-0.3,0-0.4c-2.1-1.5-3.5-5-6.6-3.5C45,122,45.2,122.3,45.4,122.2L45.4,122.2z"/>
			</g>
		</g>
	</g>
	<g>
		<g>
			<g>
				<path class="st0" d="M42.2,128.9c-0.4-1.6,0.8-2.9,2.1-3.6c0.2-0.1,0-0.5-0.2-0.4c-1.5,0.8-2.8,2.3-2.3,4.1
					C41.9,129.3,42.3,129.2,42.2,128.9L42.2,128.9z"/>
			</g>
		</g>
	</g>
	<g>
		<g>
			<g>
				<path class="st0" d="M95.5,130.6c-1.5-0.9-2.4-2.3-3.6-3.5c-0.8-0.7-1.3-1.6-0.5-2.6c0.6-0.8,2-1.4,2.9-1.5
					c2.3-0.3,4.1,1.5,5,3.6c0.4,1,0.8,2.5,0.1,3.4C98.4,131.4,96.8,131.3,95.5,130.6c-0.2-0.1-0.5,0.2-0.2,0.4
					c1.9,0.9,4.4,0.8,4.9-1.7c0.4-2.5-1.5-5.6-3.8-6.5c-1.2-0.5-2.5-0.3-3.6,0.3c-0.9,0.4-2.3,1.3-2.5,2.4c-0.2,1,0.8,1.3,1.4,1.9
					c1.2,1.2,2.2,2.6,3.6,3.5C95.5,131.1,95.7,130.8,95.5,130.6z"/>
			</g>
		</g>
	</g>
	<g>
		<g>
			<g>
				<path class="st0" d="M96.4,126.9c1.1,1.1,1.9,2.5,2,4.1c0,0.3,0.4,0.3,0.4,0c-0.1-1.7-0.9-3.2-2.1-4.4
					C96.5,126.4,96.2,126.7,96.4,126.9L96.4,126.9z"/>
			</g>
		</g>
	</g>
	<g>
		<g>
			<g>
				<path class="st0" d="M114.1,59.5c0.8,0.3,1.8,0,2.7,0.2c1.5,0.3,3,1.2,3.8,2.7c0.9,1.8,0.1,3.9-2.1,3.4
					c-1.6-0.3-2.8-1.4-3.9-2.5c-0.2-0.2-0.5,0.1-0.3,0.3c1.3,1.3,2.8,2.6,4.8,2.7c1.3,0,2.2-0.7,2.3-2c0.2-1.6-0.7-3.1-2-4
					c-0.8-0.6-1.8-1-2.8-1.1c-0.7-0.1-1.6,0.2-2.3-0.1C114,59,113.9,59.4,114.1,59.5L114.1,59.5z"/>
			</g>
		</g>
	</g>
	<g>
		<g>
			<g>
				<path class="st0" d="M118,63.5c1,0.3,2.3,1.2,1.7,2.4c-0.1,0.2,0.2,0.4,0.4,0.2c0.8-1.5-0.6-2.7-2-3.1
					C117.8,63,117.7,63.4,118,63.5L118,63.5z"/>
			</g>
		</g>
	</g>
	<g>
		<path class="st0" d="M73.9,43.8c-5.4,0-9.8-4.4-9.8-9.8c0-5.4,4.4-9.8,9.8-9.8c5.4,0,9.8,4.4,9.8,9.8
			C83.7,39.4,79.3,43.8,73.9,43.8z M73.9,24.7c-5.1,0-9.3,4.2-9.3,9.3s4.2,9.3,9.3,9.3c5.1,0,9.3-4.2,9.3-9.3S79,24.7,73.9,24.7z"/>
	</g>
	<g>
		<path class="st0" d="M51.4,44.5c-5.4,0-9.8-4.4-9.8-9.8c0-5.4,4.4-9.8,9.8-9.8c5.4,0,9.8,4.4,9.8,9.8
			C61.2,40.1,56.8,44.5,51.4,44.5z M51.4,25.4c-5.1,0-9.3,4.2-9.3,9.3s4.2,9.3,9.3,9.3s9.3-4.2,9.3-9.3S56.6,25.4,51.4,25.4z"/>
	</g>
	<g>
		<path class="st0" d="M104,20c0-1.1-0.9-2-2-2c-1.1,0-2,0.9-2,2c0,1.1,0.9,2,2,2C103.1,22,104,21.1,104,20z"/>
	</g>
	<g>
		<circle class="st0" cx="31.3" cy="20.3" r="2"/>
	</g>
	<g>
		<path class="st0" d="M72.5,45.4c0-1.3-1.9-2.4-4.3-2.4c-2.4,0-4.3,1.1-4.3,2.4c0,1.3,1.9,2.4,4.3,2.4
			C70.6,47.7,72.5,46.7,72.5,45.4z"/>
	</g>
	<g>
		<path class="st0" d="M70.7,28.7c-1.7,0-3.1,1.4-3.1,3.1S69,35,70.7,35c1.7,0,3.1-1.4,3.1-3.1C73.8,30.1,72.4,28.7,70.7,28.7z
			 M72,33.8c-0.5,0-0.9-0.4-0.9-0.9c0-0.5,0.4-0.9,0.9-0.9c0.5,0,0.9,0.4,0.9,0.9C72.9,33.4,72.4,33.8,72,33.8z"/>
	</g>
	<g>
		<path class="st0" d="M48,29.8c-1.7,0-3.1,1.4-3.1,3.1s1.4,3.1,3.1,3.1c1.7,0,3.1-1.4,3.1-3.1C51.1,31.2,49.7,29.8,48,29.8z
			 M49.2,34.9c-0.5,0-0.9-0.4-0.9-0.9c0-0.5,0.4-0.9,0.9-0.9c0.5,0,0.9,0.4,0.9,0.9C50.1,34.5,49.7,34.9,49.2,34.9z"/>
	</g>
	<g>
		<g>
			<g>
				<path class="st0" d="M68.4,52c0.2,1.2,0.1,2.6,0,3.8c-0.1,0.7-0.2,1.5-0.6,2.1c-0.6,0.8-1.8,0.9-2.5,0.1
					c-1.2-1.2-0.8-3.8-0.4-5.2c0.1-0.3-0.3-0.4-0.4-0.1c-0.5,1.8-1,5.5,1.4,6.2c3.5,1,3.3-5.1,2.9-7C68.8,51.6,68.4,51.7,68.4,52
					L68.4,52z"/>
			</g>
		</g>
	</g>
	<g>
		<g>
			<g>
				<path class="st0" d="M26.2,44c-1.4-0.7-2.3-1.9-3-3.3c-0.5-1-1.6-4.1,0.7-3.7c0.3,0,0.4-0.4,0.1-0.4c-1.6-0.2-2.1,0.9-1.9,2.4
					c0.4,2.2,1.9,4.4,3.9,5.4C26.2,44.5,26.4,44.2,26.2,44L26.2,44z"/>
			</g>
		</g>
	</g>
	<g>
		<g>
			<g>
				<path class="st0" d="M24.8,38.6c-0.3-0.5-0.9-1.8,0.1-1.9c0.8-0.1,1.4,0.7,1.8,1.3c0.7,1.1,1,2.4,1.1,3.6c0,0.3,0.4,0.3,0.4,0
					c-0.1-1.7-0.7-4.3-2.4-5.1c-0.6-0.3-1.4-0.4-1.9,0.2c-0.4,0.7,0,1.6,0.3,2.1C24.6,39.1,25,38.9,24.8,38.6L24.8,38.6z"/>
			</g>
		</g>
	</g>
	<g>
		<g>
			<g>
				<path class="st0" d="M94,29.2c5.7,8.4,5,19.1,5,28.8c-0.1,11.9,1.5,23.8,1,35.7c-0.2,3.4-0.6,6.8-1.8,10c-1,2.9-3.1,5.2-4.5,7.8
					c-0.3,0.5,0.5,0.9,0.8,0.4c1.2-2.3,2.9-4.3,4-6.6c1.1-2.4,1.7-5.2,2-7.8c0.8-6.3,0.4-12.8,0.1-19.1c-0.3-6.3-0.8-12.6-0.8-19
					c0-5.1,0.2-10.2-0.2-15.3c-0.5-5.4-1.7-10.9-4.8-15.5C94.4,28.3,93.7,28.8,94,29.2L94,29.2z"/>
			</g>
		</g>
	</g>
	<g>
		<g>
			<g>
				<path class="st0" d="M87.8,115.4c0,0,0.1,0,0.1,0c0.3,0,0.3-0.4,0-0.4h0c-0.1,0-0.1,0-0.2,0.1c0,0,0,0,0,0
					c0.1,0.1,0.2,0.2,0.3,0.3c0-0.1,0-0.1,0.1-0.2c-0.1,0-0.2,0.1-0.3,0.1c0.1,0.1,0.1,0.1,0.2,0.2c0.2,0.2,0.5-0.1,0.3-0.3
					c-0.1-0.1-0.1-0.1-0.2-0.2c-0.1-0.1-0.3-0.1-0.3,0.1c0,0.1,0,0.1-0.1,0.2c-0.1,0.2,0.1,0.3,0.3,0.3c0.1,0,0.2-0.1,0.2-0.2
					c-0.1,0-0.1,0.1-0.2,0.1h0c0.3,0,0.3-0.4,0-0.4c0,0-0.1,0-0.1,0C87.5,115,87.5,115.4,87.8,115.4L87.8,115.4z"/>
			</g>
		</g>
	</g>
	<g>
		<g>
			<path class="st0" d="M66.6,28.4c0.1-0.1,0.1-0.2,0.2-0.3c0-0.1,0.1-0.2,0.1-0.2c-2.2-3.6-6.1-6.1-10.6-6.1
				c-3.8,0-7.1,1.7-9.4,4.3l0,0c0.2-0.1,0.5-0.1,0.7,0c2.2-2.3,5.2-3.7,8.6-3.7C60.7,22.4,64.6,24.8,66.6,28.4z"/>
		</g>
		<g>
			<path class="st0" d="M66.5,40.1c-2.1,3.5-5.9,5.9-10.2,5.9c-2.5,0-4.9-0.8-6.8-2.1c-0.3,0-0.7-0.1-1-0.3c-0.1,0-0.2,0-0.3-0.1
				c2.2,1.9,5,3,8.1,3c4.5,0,8.5-2.4,10.6-6.1C66.7,40.4,66.6,40.3,66.5,40.1z"/>
		</g>
	</g>
	<g>
		<g>
			<path class="st0" d="M80.3,21.1c-3.5,0-6.7,1.5-9,3.9c0.2-0.1,0.5-0.2,0.7-0.2c0.1,0,0.2-0.1,0.3-0.1c2.1-1.9,4.9-3,7.9-3
				c6.5,0,11.8,5.3,11.8,11.8c0,6.5-5.3,11.8-11.8,11.8c-2.4,0-4.7-0.8-6.5-2c-0.1,0-0.2,0-0.3,0c-0.1,0-0.2,0-0.3,0
				c-0.1,0-0.2,0-0.3,0c2.1,1.6,4.7,2.5,7.5,2.5c6.8,0,12.4-5.5,12.4-12.4C92.6,26.6,87.1,21.1,80.3,21.1z"/>
		</g>
	</g>
	<g>
		<path class="st0" d="M72.7,41.6c-4.7,0-8.5-3.8-8.5-8.5s3.8-8.5,8.5-8.5c4.7,0,8.5,3.8,8.5,8.5S77.4,41.6,72.7,41.6z M72.7,25.1
			c-4.4,0-8,3.6-8,8s3.6,8,8,8c4.4,0,8-3.6,8-8S77.1,25.1,72.7,25.1z"/>
	</g>
	<g>
		<path class="st0" d="M50.4,42.2c-4.7,0-8.5-3.8-8.5-8.5c0-4.7,3.8-8.5,8.5-8.5c4.7,0,8.5,3.8,8.5,8.5C58.9,38.4,55,42.2,50.4,42.2
			z M50.4,25.7c-4.4,0-8,3.6-8,8s3.6,8,8,8s8-3.6,8-8S54.8,25.7,50.4,25.7z"/>
	</g>
	<g>
		<g>
			<g>
				<path class="st0" d="M53.2,25.1c1.2-1.6,3-2.6,5-2.8c0.3,0,0.3-0.4,0-0.4c-2.2,0.2-4,1.3-5.3,3C52.6,25.2,53,25.4,53.2,25.1
					L53.2,25.1z"/>
			</g>
		</g>
	</g>
	<g>
		<g>
			<g>
				<path class="st0" d="M60.5,32.1c1.5,0,2.9-0.4,4.1-1.3c0.2-0.2,0-0.6-0.2-0.4c-1.1,0.9-2.5,1.3-3.9,1.3
					C60.3,31.7,60.3,32.1,60.5,32.1L60.5,32.1z"/>
			</g>
		</g>
	</g>
	<g>
		<g>
			<g>
				<path class="st0" d="M58.2,41.4c0.8,1.7,2.4,2.9,4.3,3.1c0.3,0,0.4-0.4,0.1-0.4c-1.8-0.2-3.3-1.3-4.1-2.9
					C58.5,41,58.1,41.2,58.2,41.4L58.2,41.4z"/>
			</g>
		</g>
	</g>
	<g>
		<g>
			<g>
				<path class="st0" d="M79.9,26.5c1.8-2,4.3-3.1,7-2.9c0.3,0,0.3-0.4,0-0.4c-2.8-0.1-5.4,0.9-7.3,3C79.4,26.4,79.7,26.7,79.9,26.5
					L79.9,26.5z"/>
			</g>
		</g>
	</g>
	<g>
		<g>
			<g>
				<path class="st0" d="M83.3,34.5c3.2,1.5,6.9,0.7,9.2-1.9c0.2-0.2-0.1-0.5-0.3-0.3c-2.2,2.5-5.6,3.2-8.6,1.9
					C83.2,34,83,34.4,83.3,34.5L83.3,34.5z"/>
			</g>
		</g>
	</g>
	<g>
		<g>
			<g>
				<path class="st0" d="M80.5,41.1c-0.1,0-0.2,0.1-0.3,0.1c0,0.1,0,0.2,0.1,0.2c1.8,2,4.4,2.8,7,2.1c0.3-0.1,0.1-0.5-0.1-0.4
					c-1.2,0.3-2.4,0.3-3.5,0c-0.4-0.1-3.1-1.2-2.9-1.9c0-0.1,0-0.2-0.1-0.2c0,0-0.1-0.1-0.1-0.1c-0.1-0.1-0.3,0-0.3,0.1
					c0,0,0,0.1,0,0.1c0,0.1,0,0.2,0.1,0.2c0,0,0.1,0.1,0.1,0.1C80.5,41.6,80.7,41.3,80.5,41.1L80.5,41.1z"/>
			</g>
		</g>
	</g>
	<g>
		<g>
			<g>
				<path class="st0" d="M44.6,39.6c-0.2,0.4-0.4,0.8-0.6,1.2c-0.1,0.2,0.2,0.4,0.4,0.2c0.2-0.4,0.4-0.8,0.6-1.2
					C45,39.6,44.7,39.4,44.6,39.6L44.6,39.6z"/>
			</g>
		</g>
	</g>
	<g>
		<g>
			<g>
				<path class="st0" d="M47.2,41.5c-0.1,0.4-0.2,0.9-0.3,1.4c-0.1,0.3,0.3,0.4,0.4,0.1c0.1-0.4,0.2-0.9,0.3-1.4
					C47.7,41.4,47.3,41.3,47.2,41.5L47.2,41.5z"/>
			</g>
		</g>
	</g>
	<g>
		<g>
			<g>
				<path class="st0" d="M51.7,41.8c0.2,0.7,0.3,1.4,0.5,2.1c0.1,0.3,0.5,0.1,0.4-0.1c-0.2-0.7-0.3-1.4-0.5-2.1
					C52,41.4,51.6,41.5,51.7,41.8L51.7,41.8z"/>
			</g>
		</g>
	</g>
	<g>
		<g>
			<g>
				<path class="st0" d="M55.6,40.5c0.5,0.4,1,0.8,1.3,1.4c0.1,0.2,0.5,0,0.4-0.2c-0.4-0.6-0.9-1.1-1.5-1.5
					C55.6,40,55.4,40.4,55.6,40.5L55.6,40.5z"/>
			</g>
		</g>
	</g>
	<g>
		<g>
			<g>
				<path class="st0" d="M58.7,34.6c0.5-0.4,1.2-0.4,1.7,0c0.2,0.2,0.5-0.1,0.3-0.3c-0.7-0.6-1.7-0.6-2.3,0
					C58.2,34.5,58.5,34.8,58.7,34.6L58.7,34.6z"/>
			</g>
		</g>
	</g>
	<g>
		<g>
			<g>
				<path class="st0" d="M57.6,29.8c0.5-0.3,1.1-0.5,1.7-0.4c0.3,0,0.4-0.4,0.1-0.4c-0.7-0.1-1.4,0-2,0.4
					C57.2,29.6,57.4,30,57.6,29.8L57.6,29.8z"/>
			</g>
		</g>
	</g>
	<g>
		<g>
			<g>
				<path class="st0" d="M55,27c0.3,0.1,0.6,0,0.8-0.1c0.2-0.2,0-0.6-0.2-0.4c-0.1,0.1-0.3,0.1-0.5,0.1C54.8,26.5,54.7,26.9,55,27
					L55,27z"/>
			</g>
		</g>
	</g>
	<g>
		<g>
			<g>
				<path class="st0" d="M68.1,40.6c0,0.3-0.1,0.6-0.1,0.8c0,0.3,0.4,0.3,0.4,0c0-0.3,0.1-0.6,0.1-0.8
					C68.5,40.3,68.1,40.3,68.1,40.6L68.1,40.6z"/>
			</g>
		</g>
	</g>
	<g>
		<g>
			<g>
				<path class="st0" d="M71.6,41.4c-0.7,0.5-0.7,1.5,0,2c0.2,0.2,0.4-0.2,0.2-0.4c-0.4-0.3-0.4-1,0-1.2
					C72,41.6,71.8,41.2,71.6,41.4L71.6,41.4z"/>
			</g>
		</g>
	</g>
	<g>
		<g>
			<g>
				<path class="st0" d="M76.5,40.8c0.3,0,0.3-0.4,0-0.4C76.3,40.3,76.3,40.8,76.5,40.8L76.5,40.8z"/>
			</g>
		</g>
	</g>
	<g>
		<g>
			<g>
				<path class="st0" d="M76.3,40.6c0,0.8,0.3,1.4,0.9,2c0.2,0.2,0.5-0.1,0.3-0.3c-0.5-0.4-0.8-1-0.8-1.7
					C76.7,40.3,76.3,40.3,76.3,40.6L76.3,40.6z"/>
			</g>
		</g>
	</g>
	<g>
		<g>
			<g>
				<path class="st0" d="M81.2,32.7c0.1,0.1,0.2,0.1,0.3,0.1c0.1,0,0.2,0,0.3,0c0.1,0,0.3,0,0.4,0c0.3,0.1,0.7,0.2,0.9,0.5
					c0.2,0.2,0.5-0.1,0.3-0.3c-0.6-0.6-1.4-0.8-2.2-0.6c-0.2,0.1-0.5,0.2-0.4,0.5c0.1,0.2,0.3,0.3,0.5,0.2
					C81.7,32.9,81.5,32.5,81.2,32.7L81.2,32.7z"/>
			</g>
		</g>
	</g>
	<g>
		<g>
			<g>
				<path class="st0" d="M80.4,29.6c0.3-0.4,0.9-0.4,1.2,0c0.2,0.2,0.5-0.1,0.3-0.3c-0.5-0.6-1.4-0.6-1.9,0.1
					C79.9,29.6,80.3,29.8,80.4,29.6L80.4,29.6z"/>
			</g>
		</g>
	</g>
	<g>
		<g>
			<g>
				<path class="st0" d="M78.8,27.4c0.1-0.2,0.2-0.5,0.5-0.6c0.2-0.1,0.5-0.1,0.6,0.1c0.1,0.3,0.5,0.1,0.4-0.1
					c-0.1-0.4-0.5-0.6-0.9-0.5c-0.4,0.1-0.7,0.5-0.9,0.9C78.3,27.4,78.7,27.6,78.8,27.4L78.8,27.4z"/>
			</g>
		</g>
	</g>
	<g>
		<g>
			<g>
				<path class="st0" d="M77.3,26c0-0.1,0-0.4,0.1-0.5c0,0,0.1,0,0.1-0.1c0.1,0,0.1,0,0.1-0.1c0,0,0-0.1,0,0l0,0
					c0-0.1,0.1,0,0.2,0.1c-0.1-0.3-0.5-0.1-0.4,0.1c0.1,0.5,0.9,0,0.6-0.4c-0.2-0.2-0.5-0.2-0.7-0.1c-0.1,0.1-0.2,0.2-0.3,0.3
					c0,0.2-0.1,0.3-0.1,0.5C76.8,26.2,77.3,26.3,77.3,26L77.3,26z"/>
			</g>
		</g>
	</g>
	<g>
		<g>
			<g>
				<path class="st0" d="M72,45.8c1.6,0.1,3.3,0.3,4.5,1.5c1.4,1.4,1.5,4.4-1,4.6c-0.3,0-0.3,0.4,0,0.4c2-0.2,3-2.2,2.2-4
					c-1-2.3-3.6-2.8-5.8-3C71.7,45.4,71.7,45.8,72,45.8L72,45.8z"/>
			</g>
		</g>
	</g>
	<g>
		<g>
			<g>
				<path class="st0" d="M73.4,52.8c0.9,1.9,1,5.4-2,5.4c-0.3,0-0.3,0.4,0,0.4c1.2,0,2.3-0.8,2.8-1.9c0.6-1.3,0.1-2.8-0.4-4.1
					C73.7,52.3,73.3,52.6,73.4,52.8L73.4,52.8z"/>
			</g>
		</g>
	</g>
	<g>
		<g>
			<g>
				<path class="st0" d="M24.6,43.3C24,44.1,23.2,45,23.8,46c0.5,1,1.4,0.7,2.1,0.2c2.7-1.9,5.3-4.7,5.9-8.1c0-0.1-0.1-0.3-0.2-0.3
					c-1.6,0-2.9,0.7-3.9,1.9c-0.2,0.2,0.1,0.5,0.3,0.3c0.3-0.4,2.7-2.5,3.3-1.5c0.3,0.6-1,2.5-1.4,3.1c-0.7,1-1.5,1.8-2.3,2.6
					c-0.3,0.3-0.7,0.6-1,0.9c-0.2,0.2-0.4,0.3-0.6,0.5c-1.8-0.4-2.1-1.1-1.1-1.9C25.1,43.4,24.8,43.1,24.6,43.3L24.6,43.3z"/>
			</g>
		</g>
	</g>
	<g>
		<g>
			<g>
				<path class="st0" d="M115.8,59.6c0.3-0.9,0.6-2.3-0.8-2.5c-1.7-0.3-2.5,2.4-2.9,3.5c-0.4,1.2-1.2,3.7,0.1,4.7
					c1.2,0.9,2.1-0.3,2.6-1.3c0.1-0.2-0.2-0.5-0.4-0.2c-0.1,0.2-0.2,0.5-0.3,0.7c-1.8,0-2.5-0.7-2-2c0.1-0.6,0.2-1.2,0.4-1.8
					c0.2-0.7,0.5-1.4,0.9-2.1c0.4-1,1.1-1.1,2.2-0.2c0,0.4-0.1,0.8-0.3,1.1C115.3,59.8,115.7,59.9,115.8,59.6L115.8,59.6z"/>
			</g>
		</g>
	</g>
	<g>
		<g>
			<g>
				<path class="st0" d="M51.4,126c0.8-0.3,1.5-0.6,2.4-0.8c0.1,0,0.2-0.1,0.1-0.3c-0.3-1.7-0.7-3.5-1.5-5.1c-0.6-1.1-1.6-2.9-3-3.2
					c-2.6-0.6-3.6,3.7-3.2,5.4c0.1,0.3,0.5,0.2,0.4-0.1c-0.3-1.5,0-3.1,1.1-4.1c1.7-1.7,3.4,0.7,4.1,2.1c0.6,1.1,0.9,2.2,1.2,3.4
					c0.1,0.5,0.4,1.1,0.1,1.5c-0.3,0.4-1.4,0.6-1.9,0.8C51.1,125.7,51.2,126.1,51.4,126L51.4,126z"/>
			</g>
		</g>
	</g>
	<g>
		<g>
			<g>
				<path class="st0" d="M90.6,126.2c-0.6-0.3-1.2-0.5-1.8-0.9c-0.8-0.6-0.9-0.7-0.9-1.5c0-1.3,0.9-3.1,1.5-4.1
					c2.7-4.4,6.6,0.2,6.9,3.5c0,0.3,0.4,0.3,0.4,0c-0.2-2.5-1.8-5.7-4.7-5.8c-3.3,0-4.4,5-4.8,7.5c0,0.1,0,0.2,0.1,0.2
					c1,0.5,1.9,1,2.9,1.5C90.7,126.7,90.9,126.4,90.6,126.2L90.6,126.2z"/>
			</g>
		</g>
	</g>
	<g>
		<g>
			<g>
				<path class="st0" d="M54.1,125.1c0.3-1,0.7-1.9,1-2.9c0.2-0.7,0.7-2.9,1.4-3.1c0.3-0.1,0.2-0.5-0.1-0.4c-0.8,0.2-1,1.1-1.2,1.8
					c-0.5,1.5-1,3-1.5,4.4C53.6,125.3,54,125.4,54.1,125.1L54.1,125.1z"/>
			</g>
		</g>
	</g>
	<g>
		<g>
			<g>
				<path class="st0" d="M87.4,125.3c-0.1-3.1-1-5.9-2.9-8.3c-0.2-0.2-0.6,0-0.4,0.2c1.8,2.4,2.7,5.1,2.8,8.1
					C87,125.5,87.4,125.5,87.4,125.3L87.4,125.3z"/>
			</g>
		</g>
	</g>
	<g>
		<g>
			<g>
				<path class="st0" d="M46.3,121.9c0,0,0.2-1.3,0.2-1.5c0-0.5,0-1,0-1.5c0-0.9,0-1.8,0-2.6c-0.1-1.3-0.3-2.5-0.9-3.7
					c-0.1-0.2-0.5,0-0.4,0.2c1,1.9,0.9,4,0.9,6.1c0,0.8-0.4,2.6,0.2,3.2c0.1,0.1,0.2,0.1,0.3,0c0,0,0-0.1,0.1-0.1
					c0.1-0.1,0.1-0.2,0-0.3c0,0,0,0-0.1-0.1C46.4,121.4,46.1,121.7,46.3,121.9L46.3,121.9z"/>
			</g>
		</g>
	</g>
	<g>
		<g>
			<g>
				<path class="st0" d="M96.3,120.8c-1.9-2.8-2.5-6.1-1.8-9.5c0.1-0.3-0.3-0.4-0.4-0.1c-0.8,3.4-0.1,6.9,1.9,9.8
					C96.1,121.3,96.4,121,96.3,120.8L96.3,120.8z"/>
			</g>
		</g>
	</g>
	<g>
		<g>
			<g>
				<path class="st0" d="M24.1,46.1c0.6,0.9,0.9,1.8,0.9,2.8c0,0.1,0.1,0.3,0.3,0.2c3.5-1.3,6.4-3.8,8.2-7c0.4-0.9,1.6-2.7,1.1-3.7
					c-0.6-1.2-2.1,0.2-3-0.2c-0.2-0.1-0.4,0.2-0.2,0.4c0.3,0.2,0.4,0.2,0.8,0.2c0.3,0,0.6-0.2,0.9-0.2c0.3-0.1,0.5,0,0.7,0.4
					c0.5,0.2,0.6,0.6,0.3,1c-0.1,1.6-1.8,3.7-2.9,4.9c-1.2,1.3-2.5,2.4-4.1,3.2c-1.1,0.6-1.3,0.9-1.7-0.1c-0.2-0.7-0.4-1.3-0.9-1.9
					C24.3,45.7,23.9,45.9,24.1,46.1L24.1,46.1z"/>
			</g>
		</g>
	</g>
	<g>
		<g>
			<g>
				<path class="st0" d="M113.4,64.9c-0.9-0.3-1.6-0.3-2.5-0.2c-0.7,0.1-0.6,0.4-0.7-0.4c-0.1-0.7,0.1-1.6,0.2-2.3
					c0.6-2.9,2.1-5.4,4.3-7.3c-0.1,0-0.2-0.1-0.4-0.1c0,1.3,0.4,2.3,1.2,3.2c0.2,0.2,0.5-0.1,0.3-0.3c-0.8-0.9-1.1-1.8-1.1-2.9
					c0-0.2-0.2-0.3-0.4-0.1c-3.2,2.7-4.9,6.7-4.6,10.9c0,0.2,0.2,0.3,0.3,0.2c1.1-0.6,2-0.6,3.2-0.2C113.5,65.5,113.6,65,113.4,64.9
					L113.4,64.9z"/>
			</g>
		</g>
	</g>
	<g>
		<g>
			<g>
				<path class="st0" d="M25.2,49.2c3,1.2,6.6,0.6,8.7-1.9c2.1-2.5,2.1-6.2,0.3-8.9c-0.1-0.2-0.5,0-0.4,0.2c1.6,2.4,1.7,5.6,0,8
					c-1.9,2.7-5.5,3.4-8.4,2.2C25.2,48.7,25,49.1,25.2,49.2L25.2,49.2z"/>
			</g>
		</g>
	</g>
	<g>
		<g>
			<g>
				<path class="st0" d="M114.9,54.1c-2.8-2.3-6.6,2.2-7.6,4.5c-1.1,2.6-0.9,7.5,3.1,6.9c0.3,0,0.2-0.4-0.1-0.4
					c-2.2,0.3-3.3-1.7-3.3-3.5c0-1.3,0.5-2.6,1.1-3.7c1-1.7,4.2-5.4,6.5-3.5C114.7,54.6,115.1,54.3,114.9,54.1L114.9,54.1z"/>
			</g>
		</g>
	</g>
	<g>
		<g>
			<g>
				<path class="st0" d="M32.9,48.2c2.2,1,0,5.9-0.7,7.4c-0.9,2-2.1,3.9-3.6,5.6c-1.4,1.6-3.1,3-5,4.1c-0.2,0.1-0.4,0.3-0.7,0.4
					c-0.7,0.6-1.2,0.4-1.6-0.5c-0.9-0.5-1-1.1-0.1-1.7c0.2-0.2,0.4-0.4,0.6-0.5c1.1-0.9,2.4-1.8,3.9-2c4.2-0.6,4.4,4.2,4,7.2
					c-0.2,1.2-0.5,2.7-1.4,3.6c-0.4,0.7-0.8,0.7-1.2,0.1c-0.7-0.2-0.8-0.7-0.3-1.3c0.3-0.6,0.6-1.1,1-1.5c1.2-1.2,3.6-2.6,5-0.6
					c0.4,0.6,0.6,1.7,0.6,2.4c0,0.4,0,1.9-0.3,2c-1,0.3-0.1-1.8,0-1.9c0.2-0.2,0.4-0.5,0.6-0.7c0.5-0.7,1.2-0.8,1.9-0.2
					c1.3,0,1.5,0.3,0.7,1c-0.1-0.3-0.1-0.7,0-1.1c0.2-1,0.8-1.7,1.8-2c0.3-0.1,0.1-0.5-0.1-0.4c-1.9,0.6-2.7,2.7-1.7,4.4
					c0.1,0.1,0.2,0.1,0.3,0.1c1.6-1,0.3-3.2-1.3-3c-2.2,0.2-3.8,3.1-2.5,5c0.1,0.1,0.3,0.1,0.4,0c0.9-1.9,1.4-5.1-0.5-6.5
					c-1.7-1.3-4.2,0.3-5.3,1.7c-0.6,0.8-2.4,3.9-0.2,3.8c2.4-0.1,3-3.5,3.3-5.3c0.3-2.2,0.4-5.6-2-6.8c-2.4-1.1-4.9,0.3-6.7,1.8
					c-1,0.8-2.7,3.4-0.3,3.8c1,0.2,2.1-0.5,2.9-1c1.3-0.8,2.6-1.8,3.7-2.9c2.3-2.2,4.1-4.9,5.2-7.8c0.6-1.6,2.5-5.9,0.1-7
					C32.9,47.8,32.6,48.1,32.9,48.2L32.9,48.2z"/>
			</g>
		</g>
	</g>
	<g>
		<g>
			<g>
				<path class="st0" d="M108.3,56.9c-0.1-1-1-1.7-2.1-1.6c-1.2,0.1-2,1.2-2.5,2.2c-0.5,1-1.1,2.8-0.6,3.9c0.3,0.8,0.9,1,1.4,0.3
					c1-1.2-0.2-4.3-2-3c-1.7,1.3-2,5.1,0.6,5.3c0.2,0,0.3-0.2,0.1-0.4c-0.6-0.5-1.3-0.6-1.9-0.1c-0.3,0.2-0.4,0.6-0.6,0.9
					c-0.2,0.5-0.5,3.5-1,3c-0.2-0.2-0.5,0.1-0.3,0.3c0.3,0.3,0.7,0.3,1.1-0.1c0.6-0.6,0.5-5.6,2.3-3.8c0-0.1,0.1-0.2,0.1-0.4
					c-1.4-0.1-1.9-3.1-0.8-4c1.8-0.3,2.4,0.2,1.9,1.5c-0.8-0.3-1-0.8-0.8-1.4c0-0.8,0.4-1.7,0.7-2.3c0.2-0.3,0.4-0.7,0.7-0.9
					c0.8-1,1.8-0.9,3,0.4C107.9,57.3,108.3,57.2,108.3,56.9L108.3,56.9z"/>
			</g>
		</g>
	</g>
	<g>
		<g>
			<g>
				<path class="st0" d="M38.5,67.7c0.5,0.2,1.1,0.6,1.7,0.5c0.4-0.1,0.8-0.3,0.8-0.8c0-0.4-0.2-0.8-0.6-0.9c-0.4,0-0.6,0.8-0.7,1.1
					c-0.1,0.4-0.1,0.9,0.2,1.2c0.3,0.3,0.7,0,0.9-0.4c0.2-0.6,0.2-1.9-0.7-1.9c-0.1,0-0.1,0-0.2,0.1c-0.3,0.6-0.3,1.2,0,1.7
					c0,0.1,0.2,0.1,0.2,0.1c0.6-0.2,0.7-1.2,0.1-1.5c-0.1-0.1-0.2,0-0.3,0c-0.3,0.3-0.3,0.8-0.1,1.1c0.1,0.1,0.2,0.1,0.3,0
					c0.3-0.2,0.3-0.5,0.2-0.8c0-0.1-0.2-0.2-0.3-0.1c-0.2,0.2-0.2,0.6,0,0.8c0.2,0.2,0.5-0.1,0.3-0.3c0-0.1,0-0.2,0-0.2
					c-0.1,0-0.2-0.1-0.3-0.1c0.1,0.2,0,0.3-0.1,0.4c0.1,0,0.2,0,0.3,0c-0.1-0.2-0.1-0.4,0.1-0.5c-0.1,0-0.2,0-0.3,0
					c0.2,0.1,0.3,0.6,0,0.7c0.1,0,0.2,0.1,0.2,0.1c-0.2-0.4-0.2-0.9,0-1.3c-0.1,0-0.1,0.1-0.2,0.1c0.5,0,0.4,0.9,0.4,1.2
					c-0.1,0.2-0.2,0.3-0.3,0c-0.1-0.1,0-0.4,0-0.5c0.1-0.3,0.2-0.7,0.4-0.9c-0.1,0-0.1,0.1-0.2,0.1c0.2,0,0.3,0.3,0.3,0.5
					c-0.1,0.2-0.4,0.3-0.6,0.3c-0.4,0-0.9-0.2-1.2-0.4C38.5,67.2,38.3,67.6,38.5,67.7L38.5,67.7z"/>
			</g>
		</g>
	</g>
	<g>
		<g>
			<g>
				<path class="st0" d="M100,67.8c-1.2-0.9-2.9,0-2.8,1.5c0,0.2,0.2,0.3,0.4,0.1c0.6-0.5,0.8-1.4,0.3-2.1c-0.1-0.1-0.2-0.1-0.3,0
					c-0.4,0.4-0.6,0.9-0.5,1.4c0,0.2,0.2,0.2,0.3,0.1c0.3-0.2,0.3-0.6,0.2-0.9c0-0.1-0.2-0.2-0.3-0.1c-0.5,0.3-0.6,1-0.2,1.5
					c0.1,0.1,0.2,0.1,0.3,0c0.3-0.3,0.3-0.8,0.2-1.2c0-0.1-0.2-0.2-0.3-0.1c-0.3,0.2-0.4,0.7-0.2,1c0.1,0.2,0.5,0,0.4-0.2
					c0-0.1,0-0.3,0.1-0.4c-0.1,0-0.2-0.1-0.3-0.1c0.1,0.2,0.1,0.5-0.1,0.8c0.1,0,0.2,0,0.3,0c-0.2-0.3-0.1-0.6,0.1-0.8
					c-0.1,0-0.2-0.1-0.3-0.1c0.1,0.2,0,0.3-0.1,0.5c0.1,0,0.2,0.1,0.3,0.1c-0.1-0.4,0.1-0.7,0.4-1c-0.1,0-0.2,0-0.3,0
					c0.4,0.5,0.3,1.2-0.2,1.6c0.1,0,0.2,0.1,0.4,0.1c0-1.2,1.2-1.8,2.2-1.2C100,68.4,100.3,68,100,67.8L100,67.8z"/>
			</g>
		</g>
	</g>
	<g>
		<g>
			<g>
				<path class="st0" d="M27.2,43c1.2-0.8,2-2,2.1-3.4c0-0.3-0.4-0.3-0.4,0c-0.1,1.3-0.8,2.4-1.9,3.1C26.8,42.8,27,43.1,27.2,43
					L27.2,43z"/>
			</g>
		</g>
	</g>
	<g>
		<g>
			<g>
				<path class="st0" d="M114.4,58.6c-0.7,0.7-1.1,1.7-1,2.7c0,0.3,0.4,0.3,0.4,0c-0.1-0.9,0.2-1.7,0.9-2.3
					C114.9,58.7,114.6,58.4,114.4,58.6L114.4,58.6z"/>
			</g>
		</g>
	</g>
	<g>
		<g>
			<g>
				<path class="st0" d="M30.5,27.2c0.3,0,0.3-0.4,0-0.4C30.3,26.8,30.3,27.2,30.5,27.2L30.5,27.2z"/>
			</g>
		</g>
	</g>
	<g>
		<g>
			<g>
				<path class="st0" d="M28,27.2c0.1,0.9-0.5,2,0.3,2.7c0.6,0.4,1.3,0.2,1.8-0.1c1.3-0.8,2.4-2.5,3.4-3.7c1-1.2,1.9-2.5,2.7-3.8
					c0.9-1.4,1.6-2.8,2.3-4.3c0.5-1.1,1.4-2.6,1.4-3.8c-0.1-2.3-2.7-1-3.6-0.2c-0.2,0.2,0.1,0.5,0.3,0.3c0.1-0.1,0.2-0.2,0.4-0.3
					c0.8,0.3,1.6,0.6,2.4,0.9c0.1,0.2-0.4,1.1-0.5,1.3c-0.3,0.9-0.7,1.7-1.2,2.6c-0.8,1.5-1.6,3.1-2.6,4.5c-1,1.5-2.1,3-3.3,4.3
					c-0.4,0.4-1,1.4-1.5,1.6c-2.2,1-1.7-1.3-1.9-2.1C28.4,26.8,28,26.9,28,27.2L28,27.2z"/>
			</g>
		</g>
	</g>
	<g>
		<g>
			<g>
				<path class="st0" d="M30,28c0.8-0.7,1.5-1.6,2-2.5c0.1-0.2-0.2-0.4-0.4-0.2c-0.5,0.9-1.1,1.8-1.9,2.5C29.4,27.9,29.7,28.2,30,28
					L30,28z"/>
			</g>
		</g>
	</g>
	<g>
		<g>
			<g>
				<path class="st0" d="M37.2,14.5c-0.3,1.1-0.7,2.2-1.3,3.2c-0.1,0.2,0.2,0.4,0.4,0.2c0.6-1,1.1-2.1,1.4-3.3
					C37.7,14.4,37.3,14.3,37.2,14.5L37.2,14.5z"/>
			</g>
		</g>
	</g>
	<g>
		<g>
			<g>
				<path class="st0" d="M97.7,14.2c-0.9-0.8-1.8-1.2-3-1.3c-0.1,0-0.2,0.1-0.2,0.2c-0.5,2.6,0.8,5.3,1.9,7.6
					c1.3,2.6,2.9,5.1,4.9,7.2c0.9,1,2.7,2.4,4.1,1.2c0.9-0.8,0.6-2.2-0.6-2.5c-0.3-0.1-0.4,0.3-0.1,0.4c0.2,1.9-0.4,2.5-1.7,1.8
					c-0.4-0.2-0.8-0.6-1.1-0.9c-0.5-0.5-1-1.1-1.4-1.7c-1-1.3-1.9-2.6-2.7-4c-0.8-1.4-1.5-2.9-2.1-4.4c-0.3-0.8-0.6-1.5-0.7-2.3
					c-0.4-0.9-0.2-1.6,0.8-2.1c0.7,0.2,1.2,0.6,1.7,1C97.6,14.6,97.9,14.3,97.7,14.2L97.7,14.2z"/>
			</g>
		</g>
	</g>
	<g>
		<g>
			<g>
				<path class="st0" d="M102.5,25.7c-0.2,1,0.6,2,1.6,2.1c0.3,0,0.3-0.4,0-0.4c-0.8,0-1.3-0.8-1.2-1.5
					C102.9,25.6,102.5,25.5,102.5,25.7L102.5,25.7z"/>
			</g>
		</g>
	</g>
	<g>
		<g>
			<g>
				<path class="st0" d="M95.8,14c-0.1,1.2,0.5,2.4,1.5,3c0.2,0.1,0.4-0.2,0.2-0.4c-0.9-0.6-1.4-1.5-1.3-2.6
					C96.2,13.8,95.8,13.8,95.8,14L95.8,14z"/>
			</g>
		</g>
	</g>
	<g>
		<g>
			<g>
				<path class="st0" d="M35.6,23.1c1.4,1.3,2.9,2.5,4.5,3.6c1.1,0.7,2.7,1.8,4,1.3c0.3-0.1,0.1-0.5-0.1-0.4
					c-1.4,0.5-3.5-1.1-4.6-1.9c-1.3-0.9-2.4-1.8-3.5-2.9C35.7,22.6,35.5,22.9,35.6,23.1L35.6,23.1z"/>
			</g>
		</g>
	</g>
	<g>
		<g>
			<g>
				<path class="st0" d="M91.3,25.6c2.4-0.3,4.6-1.3,6.4-2.9c0.2-0.2-0.1-0.5-0.3-0.3c-1.7,1.5-3.8,2.5-6.1,2.8
					C91.1,25.2,91.1,25.6,91.3,25.6L91.3,25.6z"/>
			</g>
		</g>
	</g>
	<g>
		<g>
			<g>
				<path class="st0" d="M34.6,23.7c2.7,2.4,5.4,5,6.2,8.6c0.1,0.3,0.5,0.2,0.4-0.1c-0.8-3.7-3.6-6.3-6.4-8.8
					C34.6,23.2,34.4,23.5,34.6,23.7L34.6,23.7z"/>
			</g>
		</g>
	</g>
	<g>
		<g>
			<g>
				<path class="st0" d="M94.8,28.8c-0.2,0-0.4,0-0.7,0c0.1,0.1,0.1,0.1,0.2,0.2c0.2-2.3,1.8-4.2,4-4.9c0.3-0.1,0.1-0.5-0.1-0.4
					c-2.4,0.8-4,2.8-4.3,5.3c0,0.1,0.1,0.2,0.2,0.2c0.2,0,0.4,0,0.7,0C95.1,29.2,95.1,28.8,94.8,28.8L94.8,28.8z"/>
			</g>
		</g>
	</g>
	<g>
		<g>
			<g>
				<path class="st0" d="M34.3,46.6c1.8,6.3-2.1,11.9-6.9,15.6c-0.2,0.2,0.1,0.5,0.3,0.3c4.9-3.9,8.7-9.6,7-16.1
					C34.6,46.3,34.2,46.4,34.3,46.6L34.3,46.6z"/>
			</g>
		</g>
	</g>
	<g>
		<g>
			<g>
				<path class="st0" d="M27.3,62.1c-1,1-2.4,2-3.8,2.3c-1,0.2-1.3-1-0.7-1.7c0.3-0.3,0.7-0.6,1-0.8c0.7-0.4,1.4-0.7,2.1-0.8
					c0.3-0.1,0.2-0.5-0.1-0.4c-1.2,0.2-2.5,0.8-3.3,1.8c-0.5,0.6-0.9,1.4-0.4,2.1c1.3,1.6,4.6-1.2,5.5-2.1
					C27.9,62.2,27.5,61.9,27.3,62.1L27.3,62.1z"/>
			</g>
		</g>
	</g>
	<g>
		<g>
			<g>
				<path class="st0" d="M29.9,67.4c-0.2,0.7-0.4,1.3-0.7,1.9c-0.2,0.4-0.8,1.8-1.2,1.8c-0.9,0-0.2-1.6,0-1.9c0.3-0.6,0.8-1,1.3-1.3
					c0.2-0.1,0-0.5-0.2-0.4c-0.8,0.4-1.4,1.1-1.7,1.9c-0.2,0.5-0.6,1.6,0,2c1.5,1,2.7-3.1,2.9-3.9C30.3,67.3,29.9,67.1,29.9,67.4
					L29.9,67.4z"/>
			</g>
		</g>
	</g>
	<g>
		<g>
			<g>
				<path class="st0" d="M33.3,70.2c0.1,0.9,0.3,1.7,0.3,2.6c0,1.1-0.8,2.4-2,1.5c-1-0.8-0.7-2.1,0-3c0.6-0.7,1.3-1.1,2.1-1.5
					c0.2-0.1,0-0.5-0.2-0.4c-1.1,0.7-2.4,1.4-2.8,2.7c-0.3,1,0,2.2,1,2.7c0.8,0.4,1.7,0,2.1-0.8c0.6-1.2,0.2-2.8,0-4
					C33.7,69.8,33.3,69.9,33.3,70.2L33.3,70.2z"/>
			</g>
		</g>
	</g>
	<g>
		<g>
			<g>
				<path class="st0" d="M103.9,58.8c0.7,0.4,1.3,1,1.6,1.8c0.2,0.8-0.1,1.9-1,2.1c-2.2,0.5-1.1-2.5-1.1-3.5c0-0.3-0.4-0.3-0.4,0
					c0,1-0.7,2.2-0.1,3.2c0.4,0.7,1.3,0.9,2,0.7c0.9-0.3,1.3-1.4,1.2-2.3c-0.2-1.1-1-1.8-1.8-2.3C103.8,58.3,103.6,58.7,103.9,58.8
					L103.9,58.8z"/>
			</g>
		</g>
	</g>
	<g>
		<g>
			<g>
				<path class="st0" d="M102.8,64.1c0.2,0.1,0.7,0.3,0.7,0.6c0.1,0,0.1,0.1,0,0.1c0,0-0.1,0.1-0.1,0.1c-0.1,0-0.2,0-0.3,0
					c-0.6-0.1-0.8-0.8-0.9-1.2c-0.1-0.3-0.5-0.1-0.4,0.1c0.2,0.8,0.8,1.8,1.8,1.5c0.3-0.1,0.7-0.4,0.5-0.7c-0.2-0.4-0.6-0.8-1-0.9
					C102.7,63.6,102.6,64,102.8,64.1L102.8,64.1z"/>
			</g>
		</g>
	</g>
	<g>
		<g>
			<g>
				<path class="st0" d="M103.5,58.6c0.4-1.3,1.2-2.7,2.2-3.6c1.7-1.5,2.5,0.3,2.7,1.8c0,0.3,0.4,0.2,0.4-0.1
					c-0.2-1.2-0.8-3-2.3-2.7c-1.8,0.4-2.9,3-3.4,4.5C103,58.8,103.4,58.9,103.5,58.6L103.5,58.6z"/>
			</g>
		</g>
	</g>
	<g>
		<g>
			<g>
				<path class="st0" d="M40.1,29.9c1.3-0.1,2.1-1.5,1.5-2.7c-0.1-0.2-0.5,0-0.4,0.2c0.4,0.9-0.2,2-1.2,2
					C39.8,29.5,39.8,29.9,40.1,29.9L40.1,29.9z"/>
			</g>
		</g>
	</g>
	<g>
		<g>
			<g>
				<path class="st0" d="M38.8,27.9c0.9,0,1.4-1.2,0.7-1.9c-0.2-0.2-0.5,0.1-0.3,0.3c0.4,0.3,0.1,1.1-0.4,1.1
					C38.6,27.5,38.6,27.9,38.8,27.9L38.8,27.9z"/>
			</g>
		</g>
	</g>
	<g>
		<g>
			<g>
				<path class="st0" d="M93,25c0.2,0.7,0.7,1.2,1.3,1.5c0.2,0.1,0.4-0.2,0.2-0.4c-0.5-0.3-0.9-0.8-1.1-1.3
					C93.3,24.6,92.9,24.7,93,25L93,25z"/>
			</g>
		</g>
	</g>
	<g>
		<g>
			<g>
				<path class="st0" d="M94.8,24c-0.4,0.5-0.2,1.4,0.5,1.5c0.3,0,0.4-0.4,0.1-0.4c-0.3,0-0.6-0.5-0.3-0.8
					C95.3,24.1,95,23.8,94.8,24L94.8,24z"/>
			</g>
		</g>
	</g>
	<g>
		<g>
			<g>
				<path class="st0" d="M94.2,26.6c0.1,0.1,0.1,0.1,0.2,0.2c0.2,0.2,0.4-0.2,0.2-0.4c-0.1-0.1-0.1-0.1-0.2-0.2
					C94.2,26.1,94,26.4,94.2,26.6L94.2,26.6z"/>
			</g>
		</g>
	</g>
	<g>
		<g>
			<g>
				<path class="st0" d="M51.2,116.1c0-2-0.1-3.9-0.6-5.9c-0.2-1-0.6-2.5-1.9-2.7c-2.6-0.4-3.1,3.9-2.7,5.6c0.1,0.3,0.5,0.2,0.4-0.1
					c-0.2-1-0.3-2,0.1-3c0.4-1.5,1.5-1.7,3.4-0.4c0.1,0.4,0.2,0.8,0.3,1.2c0.4,1.8,0.5,3.6,0.5,5.4
					C50.7,116.4,51.2,116.4,51.2,116.1L51.2,116.1z"/>
			</g>
		</g>
	</g>
	<g>
		<g>
			<g>
				<path class="st0" d="M88.3,115.3c-0.1-0.9-0.1-1.7,0-2.6c0.1-1,0.1-2.6,1.1-3.2c1.9-1.2,3.5,1.3,4.3,2.7
					c0.1,0.2,0.4,0.1,0.4-0.2c0-0.1-0.1-0.3-0.1-0.4c-0.1-0.3-0.5-0.1-0.4,0.1c0,0.1,0.1,0.3,0.1,0.4c0.1-0.1,0.3-0.1,0.4-0.2
					c-0.9-1.6-2.4-3.8-4.6-3c-2.1,0.8-1.7,4.6-1.5,6.3C87.9,115.6,88.4,115.6,88.3,115.3L88.3,115.3z"/>
			</g>
		</g>
	</g>
	<g>
		<g>
			<g>
				<path class="st0" d="M47.4,111.3c-0.2-0.2-0.1-0.5,0.1-0.7c0.1-0.1,0.2-0.2,0.3-0.2c0.1,0,0.2,0.2,0.2,0.3
					c0.1,0.3,0.1,0.8-0.2,0.8C47.7,111.6,47.3,111.5,47.4,111.3c0-0.3-0.4-0.4-0.5-0.1c-0.1,0.5,0.4,0.9,0.9,0.9
					c0.7,0,0.9-0.7,0.8-1.3c-0.1-0.2-0.2-0.7-0.4-0.7c-0.2-0.1-0.5,0-0.7,0.1c-0.4,0.3-0.7,0.9-0.3,1.3
					C47.2,111.7,47.6,111.5,47.4,111.3L47.4,111.3z"/>
			</g>
		</g>
	</g>
	<g>
		<g>
			<g>
				<path class="st0" d="M90,111.6c-0.1-0.3,0.1-0.7,0.5-0.8c0.3-0.1,0.6,0.2,0.7,0.5C91.3,112,90.2,112.1,90,111.6
					c-0.1-0.3-0.5-0.1-0.4,0.1c0.2,0.5,0.8,0.7,1.3,0.6c0.5-0.1,0.8-0.7,0.6-1.2c-0.1-0.5-0.7-0.9-1.2-0.7c-0.6,0.2-0.9,0.8-0.7,1.3
					C89.7,112,90.1,111.9,90,111.6L90,111.6z"/>
			</g>
		</g>
	</g>
	<g>
		<g>
			<g>
				<path class="st0" d="M48.8,122.7c-0.8-1.7,0.1-3.9,1.9-4.5c0.2-0.1,0.1-0.5-0.1-0.4c-2.1,0.8-3.1,3.2-2.1,5.2
					C48.5,123.2,48.9,122.9,48.8,122.7L48.8,122.7z"/>
			</g>
		</g>
	</g>
	<g>
		<g>
			<g>
				<path class="st0" d="M91.3,118.2c2,0.6,3.3,2.7,2.8,4.7c-0.1,0.3,0.3,0.4,0.4,0.1c0.6-2.3-0.8-4.6-3.1-5.2
					C91.1,117.8,91,118.2,91.3,118.2L91.3,118.2z"/>
			</g>
		</g>
	</g>
	<g>
		<g>
			<g>
				<path class="st0" d="M49.9,121c0-0.2,0.7-0.2,0.4,0.2c-0.1,0.1-0.2,0.2-0.3,0.2c0,0-0.1,0-0.1,0c0,0,0.1,0,0,0c0,0,0-0.1,0-0.1
					c0-0.2,0-0.4,0.2-0.4c0.3-0.1,0.1-0.5-0.1-0.4c-0.4,0.1-0.7,0.7-0.4,1.1c0.1,0.2,0.3,0.3,0.5,0.3c0.3-0.1,0.5-0.2,0.7-0.4
					c0.2-0.4,0.1-0.9-0.4-1c-0.4-0.1-0.9,0.1-0.8,0.6C49.4,121.3,49.9,121.3,49.9,121L49.9,121z"/>
			</g>
		</g>
	</g>
	<g>
		<g>
			<g>
				<path class="st0" d="M91.6,120.9c-0.4-0.2-0.2-0.8,0.3-0.7c0.6,0.2,0.3,0.9-0.2,1c-0.3,0.1-0.2,0.5,0.1,0.4
					c0.4-0.1,0.9-0.5,0.9-1c0-0.4-0.3-0.8-0.7-0.9c-0.9-0.2-1.3,1.1-0.5,1.5C91.6,121.4,91.9,121,91.6,120.9L91.6,120.9z"/>
			</g>
		</g>
	</g>
	<g>
		<g>
			<g>
				<path class="st0" d="M42.9,130c4.1,1.3,7.8-2.4,10.8-4.6c0.2-0.2,0-0.6-0.2-0.4c-2.9,2.1-6.6,5.9-10.5,4.6
					C42.8,129.5,42.7,129.9,42.9,130L42.9,130z"/>
			</g>
		</g>
	</g>
	<g>
		<g>
			<g>
				<path class="st0" d="M87.3,125.1c-0.6,1.1,0.2,2,1.2,2.5c2.1,1.1,4.3,2.1,6.5,3.1c0.2,0.1,0.5-0.2,0.2-0.4
					c-1.3-0.6-2.5-1.2-3.8-1.8c-0.9-0.4-4.5-1.6-3.7-3.2C87.8,125.1,87.4,124.9,87.3,125.1L87.3,125.1z"/>
			</g>
		</g>
	</g>
	<g>
		<g>
			<g>
				<path class="st0" d="M38.8,70.3c0.3,0,0.3-0.4,0-0.4C38.6,69.9,38.6,70.3,38.8,70.3L38.8,70.3z"/>
			</g>
		</g>
	</g>
	<g>
		<g>
			<g>
				<path class="st0" d="M38.9,70.1c4.5,4.1,10.5,5.2,16.3,5.9c6.5,0.7,13.1,0.7,19.6,0.3c5.7-0.3,11.6-1,17-3.1
					c1.3-0.5,2.5-1,3.7-1.6c0.9-0.4,2.9-1.1,3.3-2c0.3-0.6-0.1-1.4-0.7-0.8c-0.2,0.2,0.1,0.5,0.3,0.3c-3.4,3.3-9.1,4.7-13.7,5.6
					c-4.8,0.9-9.8,1.2-14.7,1.3C65,76,59.8,76,54.6,75.4c-5.5-0.6-11.2-1.8-15.4-5.6C39,69.6,38.7,69.9,38.9,70.1L38.9,70.1z"/>
			</g>
		</g>
	</g>
	<g>
		<g>
			<g>
				<path class="st0" d="M37.6,98.8c11.2,2.1,22.7,2.9,34.1,2.2c5.5-0.3,11.1-1,16.5-2c2.7-0.5,5.3-1,7.9-1.7
					c1.7-0.5,3.3-1.2,4.2-2.9c0.1-0.1,0-0.3-0.1-0.3c-2.5-0.8-5.2-0.8-7.8-0.7c-3.2,0.1-6.3,0.3-9.5,0.6c-6.3,0.4-12.6,1-18.9,1.6
					C57.6,96,51.3,96.5,45,97.1c-1.5,0.1-3,0.3-4.4,0.4c-0.8,0.1-2.4,0-3,0.5c-0.4,0.3-0.6,1,0.1,1c0.3,0,0.3-0.4,0-0.4
					c0.1-0.1,0.2-0.2,0.4-0.3c0.3-0.1,0.6-0.1,1-0.1c0.7-0.1,1.4-0.2,2.2-0.3c0.9-0.1,1.7-0.2,2.5-0.3c2.1-0.2,4.2-0.4,6.3-0.6
					c4.2-0.4,8.4-0.7,12.5-1.1c8.3-0.7,16.7-1.5,25-2c1.9-0.1,3.8-0.2,5.6-0.3c0.9,0,1.8,0,2.8,0c0.4,0,0.8,0,1.2,0.1
					c0.1,0,2.1,0.1,2.3,0.4c1.3,1.8-8.7,3.7-9.8,4c-8,1.6-16.1,2.4-24.2,2.5c-9.3,0.1-18.6-0.7-27.8-2.4
					C37.4,98.3,37.3,98.7,37.6,98.8L37.6,98.8z"/>
			</g>
		</g>
	</g>
	<g>
		<g>
			<g>
				<path class="st0" d="M59.4,80.3c-0.1,3.6-0.2,7.2-0.3,10.8c-0.1,2.4,0.2,2.3,2.7,2.1c6.8-0.5,13.6-2.3,20.4-1.3
					c0.2,0,0.3-0.1,0.3-0.3c-0.6-3.1-1.3-6.2-1.9-9.2c-0.2-0.9-0.2-2.9-0.8-3.6c-0.4-0.4-1.4-0.1-1.9-0.1c-6.4,0.1-12.7,0.5-19,1.1
					c-0.3,0-0.3,0.4,0,0.4c5.8-0.6,11.6-0.9,17.4-1.1c0.7,0,1.8-0.3,2.4-0.1c1,0.3,1.1,1.3,1.3,2.2c0.3,1.3,0.6,2.7,0.8,4
					c0.3,1.4,0.6,2.9,0.9,4.3c0.4,1.9,0.6,2-1.2,1.8c-5.4-0.5-10.7,0.6-16,1.2c-1.2,0.1-3,0.6-4.2,0.3c-1.2-0.3-0.7-2.7-0.6-3.8
					c0.1-2.9,0.2-5.9,0.2-8.8C59.8,80,59.4,80,59.4,80.3L59.4,80.3z"/>
			</g>
		</g>
	</g>
	<g>
		<g>
			<g>
				<path class="st0" d="M62.1,86.4c-0.2-0.5,0.2-1.1,0.7-1.2c0.5-0.1,0.9,0.3,0.9,0.8c0.2,1.1-1.4,1.4-1.9,0.4
					c-0.1-0.2-0.5-0.1-0.4,0.1c0.3,0.7,1,1,1.7,0.9c0.7-0.1,1.1-0.8,1-1.5c-0.1-0.7-0.8-1.3-1.5-1.1c-0.8,0.2-1.3,1-1,1.8
					C61.8,86.7,62.2,86.6,62.1,86.4L62.1,86.4z"/>
			</g>
		</g>
	</g>
	<g>
		<g>
			<g>
				<path class="st0" d="M57.5,79.6c0-0.2,0.2-0.4,0.5-0.4c0.2,0,0.4,0.2,0.4,0.4c0.1,0.5-0.7,0.6-0.9,0.2c-0.1-0.2-0.5,0-0.4,0.2
					c0.2,0.4,0.7,0.6,1.1,0.4c0.4-0.1,0.7-0.6,0.6-1c-0.1-0.4-0.4-0.8-0.9-0.7c-0.4,0-0.8,0.4-0.9,0.9C57.1,80,57.5,79.9,57.5,79.6
					L57.5,79.6z"/>
			</g>
		</g>
	</g>
	<g>
		<g>
			<g>
				<path class="st0" d="M57.3,93.2c0,0,0-0.1,0-0.1c0-0.1,0.1-0.1,0.2-0.1c0.2,0,0.3,0.3,0.3,0.4c0,0.2,0,0.4-0.2,0.4
					c-0.1,0-0.3,0-0.3-0.2c0-0.3-0.4-0.4-0.4-0.1c-0.1,0.4,0.3,0.8,0.7,0.7c0.5-0.1,0.7-0.6,0.6-1c-0.1-0.4-0.6-0.9-1.1-0.7
					c-0.4,0.2-0.5,0.8-0.1,1C57.3,93.7,57.5,93.3,57.3,93.2L57.3,93.2z"/>
			</g>
		</g>
	</g>
	<g>
		<g>
			<g>
				<path class="st0" d="M81.1,78.3c0.1-0.4,0.8-0.5,0.8,0c0,0.5-0.7,0.6-0.8,0.1c-0.1-0.3-0.5-0.1-0.4,0.1c0.1,0.4,0.5,0.7,0.9,0.6
					c0.4,0,0.7-0.4,0.7-0.9c0-0.4-0.3-0.8-0.8-0.8c-0.4,0-0.8,0.3-0.9,0.7C80.7,78.4,81.1,78.6,81.1,78.3L81.1,78.3z"/>
			</g>
		</g>
	</g>
	<g>
		<g>
			<g>
				<path class="st0" d="M83.6,92c-0.1-0.2,0.1-0.5,0.3-0.6c0.2-0.1,0.4,0.1,0.5,0.3c0.1,0.2,0,0.4-0.3,0.4c-0.2,0-0.4-0.1-0.4-0.3
					c0-0.3-0.4-0.3-0.4,0c0,0.4,0.5,0.8,0.9,0.7c0.5,0,0.8-0.5,0.6-1c-0.1-0.4-0.6-0.8-1.1-0.6c-0.4,0.2-0.7,0.8-0.5,1.2
					C83.4,92.4,83.7,92.2,83.6,92L83.6,92z"/>
			</g>
		</g>
	</g>
	<g>
		<g>
			<g>
				<path class="st0" d="M57.8,81.3c-0.1,3.8-0.3,7.6-0.4,11.3c0,0.3,0.4,0.3,0.4,0c0.1-3.8,0.3-7.6,0.4-11.3
					C58.3,81,57.8,81,57.8,81.3L57.8,81.3z"/>
			</g>
		</g>
	</g>
	<g>
		<g>
			<g>
				<path class="st0" d="M61.9,78.5c5.1-0.6,10.3-0.8,15.4-0.6c0.3,0,0.3-0.4,0-0.4c-5.1-0.2-10.3,0-15.4,0.6
					C61.7,78.1,61.7,78.5,61.9,78.5L61.9,78.5z"/>
			</g>
		</g>
	</g>
	<g>
		<g>
			<g>
				<path class="st0" d="M62.6,94.7c5.4-0.4,10.7-0.9,16-1.6c0.3,0,0.3-0.4,0-0.4c-5.3,0.7-10.7,1.2-16,1.6
					C62.3,94.2,62.3,94.7,62.6,94.7L62.6,94.7z"/>
			</g>
		</g>
	</g>
	<g>
		<g>
			<g>
				<path class="st0" d="M81,80.5c0.7,2.9,1.4,5.7,2.1,8.5c0.1,0.3,0.5,0.1,0.4-0.1c-0.7-2.9-1.4-5.7-2.1-8.5
					C81.4,80.1,81,80.3,81,80.5L81,80.5z"/>
			</g>
		</g>
	</g>
	<g>
		<g>
			<g>
				<path class="st0" d="M62.8,86.2c0.2,0,0.3-0.3,0.4-0.4c-0.1,0-0.2,0-0.3,0c0.1,0.1,0.2,0.3,0.1,0.4c0,0,0.1-0.1,0.1-0.1
					C63,86.2,63,86,63,85.9c0-0.3-0.4-0.3-0.4,0c0,0.2,0.1,0.4,0.3,0.5c0.1,0.1,0.4,0.2,0.6,0c0.2-0.3,0-0.8-0.3-1
					c-0.1,0-0.2,0-0.3,0c-0.1,0.1-0.1,0.2-0.2,0.3c-0.1,0.1-0.1,0.1-0.1,0.2c0,0.2,0.1,0.3,0.3,0.4c0.4,0,0.4-0.7,0-0.6
					C62.5,85.7,62.5,86.2,62.8,86.2L62.8,86.2z"/>
			</g>
		</g>
	</g>
	<g>
		<g>
			<g>
				<path class="st0" d="M42.3,76.2c-0.4,5.2-1.3,10.7-1,15.9c0.1,1.3,0.2,3.7,1.5,4.5c1.2,0.8,2.7-0.6,3.5-1.4
					c3.2-3.1,2.6-7.1,1.7-11.2c-0.7-3-1.4-8.8-5.5-8.7c-0.3,0-0.3,0.4,0,0.4c4-0.1,4.7,6.4,5.3,9.3c0.8,3.8,1,7.4-2.2,10.2
					c-0.3,0.2-0.8,0.8-1.2,0.9c-0.6-0.1-1.2-0.2-1.9-0.3c-0.1-0.3-0.2-0.6-0.3-0.8c-0.3-0.9-0.4-2-0.5-2.9c-0.1-1.6,0-3.3,0.1-4.9
					c0.3-3.6,0.6-7.3,0.9-11C42.7,75.9,42.3,75.9,42.3,76.2L42.3,76.2z"/>
			</g>
		</g>
	</g>
	<g>
		<g>
			<g>
				<path class="st0" d="M47,77c0,2,0.6,3.7,1.9,5.2c0.1,0.1,0.3,0,0.3-0.1c0.7-2.1,0.1-4.4-1.5-5.9c-0.1-0.1-0.3-0.1-0.3,0
					c-0.2,0.4-0.3,0.7-0.2,1.2c0,0.3,0.4,0.2,0.4-0.1c0-0.3,0.1-0.6,0.1-0.9c-0.1,0-0.2,0-0.3,0c1.5,1.4,2,3.5,1.4,5.5
					c0.1,0,0.2-0.1,0.3-0.1c-1.2-1.4-1.8-3.1-1.7-4.9C47.4,76.8,47,76.8,47,77L47,77z"/>
			</g>
		</g>
	</g>
	<g>
		<g>
			<g>
				<path class="st0" d="M38.3,99.4c4.6,2.4,9.9,2.9,15,3.3c6,0.4,12.1,0.3,18.1,0c6-0.4,12-0.9,18-1.6c4.3-0.5,9-1.6,10.9-5.9
					c0.1-0.2-0.2-0.5-0.4-0.2c-2.4,5.3-8.8,5.5-13.8,6c-5.4,0.5-10.7,1-16.1,1.3c-5.4,0.3-10.7,0.3-16.1,0
					c-5.3-0.3-10.7-0.9-15.5-3.3C38.3,98.9,38,99.3,38.3,99.4L38.3,99.4z"/>
			</g>
		</g>
	</g>
	<g>
		<g>
			<g>
				<path class="st0" d="M38.9,69c9,5.3,19.5,6.1,29.6,5.4c5.2-0.4,10.4-1,15.6-1.8c5-0.8,9.9-2,14.6-4c0.2-0.1,0-0.5-0.2-0.4
					c-4.5,2-9.3,3.2-14.2,4C79.1,73,73.8,73.6,68.6,74c-10.1,0.7-20.6-0.1-29.4-5.4C38.9,68.5,38.7,68.8,38.9,69L38.9,69z"/>
			</g>
		</g>
	</g>
	<g>
		<g>
			<g>
				<path class="st0" d="M56.2,46.6c0.2,9.1,0.5,18.2,1,27.4c0,0.3,0.4,0.3,0.4,0c-0.5-9.1-0.8-18.2-1-27.4
					C56.6,46.4,56.2,46.4,56.2,46.6L56.2,46.6z"/>
			</g>
		</g>
	</g>
	<g>
		<g>
			<g>
				<path class="st0" d="M81.3,45.6c0.4,8.9,0.8,17.8,1,26.7c0,0.3,0.4,0.3,0.4,0c-0.2-8.9-0.5-17.8-1-26.7
					C81.7,45.4,81.3,45.4,81.3,45.6L81.3,45.6z"/>
			</g>
		</g>
	</g>
	<g>
		<g>
			<g>
				<path class="st0" d="M58.9,103c-0.5,5.4-1.1,12.5,3.1,16.7c0.1,0.1,0.3,0,0.3-0.1c0.1-0.2,0.2-0.4,0.2-0.6
					c0.1-0.2-0.3-0.4-0.4-0.1c-0.2,0.6-2-2.9-2.2-3.3c-0.4-1.3-0.7-2.7-0.8-4.1c-0.2-2.9-0.1-5.7,0.1-8.6
					C59.4,102.7,58.9,102.7,58.9,103L58.9,103z"/>
			</g>
		</g>
	</g>
	<g>
		<g>
			<g>
				<path class="st0" d="M78.4,118.3c1.3,1.1,3.3-3.8,3.6-4.5c1.4-3.8,1.2-7.9,0.9-11.8c0-0.3-0.4-0.3-0.4,0
					c0.2,2.9,0.4,5.8-0.1,8.7c-0.2,1.2-0.5,2.4-1,3.5c-0.2,0.4-2.1,4.4-2.7,3.9C78.5,117.8,78.2,118.1,78.4,118.3L78.4,118.3z"/>
			</g>
		</g>
	</g>
	<g>
		<g>
			<g>
				<path class="st0" d="M54.4,72c0.1-0.5,0.9-0.6,0.9,0c0,0.1,0,0.2-0.1,0.3c-0.1,0.1-0.1,0.2-0.2,0.1c-0.3-0.1-0.6-0.5-0.6-0.8
					c0-0.3-0.5-0.2-0.4,0.1c0.1,0.5,0.5,1,1,1.1c0.4,0.1,0.7-0.6,0.7-0.9c0-0.4-0.3-0.8-0.8-0.8c-0.4,0-0.9,0.3-1,0.8
					C54,72.2,54.4,72.3,54.4,72L54.4,72z"/>
			</g>
		</g>
	</g>
	<g>
		<g>
			<g>
				<path class="st0" d="M84.3,70.6c0-0.6,1-0.7,1,0c0,0.3-0.1,0.5-0.4,0.5C84.6,71,84.3,70.8,84.3,70.6c0-0.3-0.4-0.3-0.4,0
					c0,0.5,0.5,0.9,1,0.9c0.5,0,0.9-0.4,0.9-1c0-0.5-0.4-0.9-0.9-0.9c-0.5,0-1,0.4-1,1C83.8,70.8,84.3,70.8,84.3,70.6L84.3,70.6z"/>
			</g>
		</g>
	</g>
	<g>
		<g>
			<g>
				<path class="st0" d="M40,65.6c0.3-0.4,1-0.2,1.3,0.1c0.2,0.3,0.3,0.7,0.4,1.1c0,0.7,0,1.3,0.1,2c0.1,0.3,0.5,0.2,0.4-0.1
					c-0.2-1.1,0.2-2.5-0.7-3.4c-0.6-0.5-1.4-0.5-1.8,0.1C39.5,65.6,39.9,65.8,40,65.6L40,65.6z"/>
			</g>
		</g>
	</g>
	<g>
		<g>
			<g>
				<path class="st0" d="M96,68.9c0-0.5-0.1-1.1,0.2-1.6c0.2-0.4,0.9-0.7,1.2-0.3c0.2,0.2,0.5-0.1,0.3-0.3c-0.4-0.4-1.1-0.4-1.6,0
					c-0.6,0.5-0.6,1.4-0.6,2.1C95.6,69.2,96,69.2,96,68.9L96,68.9z"/>
			</g>
		</g>
	</g>
	<g>
		<g>
			<g>
				<path class="st0" d="M40.7,63.8c-0.4-8.4-1.7-17.4,0.3-25.7c0.1-0.3-0.3-0.4-0.4-0.1c-2,8.4-0.8,17.3-0.3,25.8
					C40.2,64.1,40.7,64.1,40.7,63.8L40.7,63.8z"/>
			</g>
		</g>
	</g>
	<g>
		<g>
			<g>
				<path class="st0" d="M93.5,31.9c2.8,4.6,2.8,10.2,3,15.5c0.2,5.9,0.5,11.7,0.8,17.5c0,0.3,0.4,0.3,0.4,0
					c-0.3-6.3-0.6-12.6-0.8-18.9c-0.2-4.9-0.4-10-3-14.3C93.7,31.4,93.3,31.7,93.5,31.9L93.5,31.9z"/>
			</g>
		</g>
	</g>
	<g>
		<g>
			<g>
				<path class="st0" d="M30.5,23.2c-2.7-0.1-4.3-3-2.7-5.2c1.6-2.2,4.9-1.6,5.8,0.9c0.1,0.2,0.5,0.1,0.4-0.1
					c-1.1-2.8-4.8-3.5-6.6-1s0.1,5.8,3,6C30.8,23.6,30.8,23.2,30.5,23.2L30.5,23.2z"/>
			</g>
		</g>
	</g>
	<g>
		<g>
			<g>
				<path class="st0" d="M99.5,17.9c0.6-0.3,1-0.7,1.6-1c1.5-1,2.9-0.1,3.6,1.4c0.9,2,0,4.3-2.1,5c-0.3,0.1-0.1,0.5,0.1,0.4
					c2.4-0.8,3.4-3.3,2.4-5.6c-0.4-1-1.3-2.1-2.4-2.2c-1.3-0.1-2.3,1-3.4,1.6C99.1,17.6,99.3,18,99.5,17.9L99.5,17.9z"/>
			</g>
		</g>
	</g>
	<g>
		<g>
			<g>
				<path class="st0" d="M29.3,46.8c1,1,2.4,1,3.7,1c0.3,0,0.3-0.4,0-0.4c-1.2,0-2.5,0-3.4-0.9C29.4,46.3,29.1,46.6,29.3,46.8
					L29.3,46.8z"/>
			</g>
		</g>
	</g>
	<g>
		<g>
			<g>
				<path class="st0" d="M32.6,42.6c1.2,0.8,1.8,2.2,1.4,3.5c-0.1,0.3,0.3,0.4,0.4,0.1c0.4-1.5-0.2-3.2-1.6-4
					C32.6,42.1,32.4,42.5,32.6,42.6L32.6,42.6z"/>
			</g>
		</g>
	</g>
	<g>
		<g>
			<g>
				<path class="st0" d="M108.9,57c1-0.8,2.4-0.8,3.4,0.1c0.2,0.2,0.5-0.1,0.3-0.3c-1.1-1.1-2.8-1.1-4-0.1
					C108.4,56.8,108.7,57.1,108.9,57L108.9,57z"/>
			</g>
		</g>
	</g>
	<g>
		<g>
			<g>
				<path class="st0" d="M108.2,57.2c-0.6,1.1-0.9,2.5-0.4,3.8c0.4,0.9,1.2,1.6,2.2,1.3c0.3-0.1,0.1-0.5-0.1-0.4
					c-1.1,0.3-1.8-0.9-1.9-1.8c-0.1-0.9,0.1-1.8,0.6-2.6C108.7,57.2,108.3,57,108.2,57.2L108.2,57.2z"/>
			</g>
		</g>
	</g>
	<g>
		<g>
			<g>
				<path class="st0" d="M56.9,23.4c2.8,0.4,5.3,2,6.7,4.5c0.1,0.2,0.5,0,0.4-0.2c-1.5-2.6-4.1-4.3-7-4.7
					C56.6,23,56.6,23.4,56.9,23.4L56.9,23.4z"/>
			</g>
		</g>
	</g>
	<g>
		<g>
			<g>
				<path class="st0" d="M86,24.7c2.4,1.8,3.8,4.4,4.1,7.4c0,0.3,0.4,0.3,0.4,0c-0.2-3.1-1.8-5.9-4.3-7.7C86,24.2,85.8,24.5,86,24.7
					L86,24.7z"/>
			</g>
		</g>
	</g>
	<g>
		<g>
			<g>
				<path class="st0" d="M86.6,42.3c1.9-2.2,3.3-4.6,4.4-7.3c0.1-0.2-0.3-0.4-0.4-0.1c-1.1,2.6-2.5,5-4.3,7.1
					C86.1,42.2,86.4,42.5,86.6,42.3L86.6,42.3z"/>
			</g>
		</g>
	</g>
	<g>
		<g>
			<g>
				<path class="st0" d="M62.1,43.5c1.1-0.8,1.9-1.9,2.3-3.3c0.1-0.3-0.3-0.4-0.4-0.1c-0.3,1.2-1,2.3-2.1,3
					C61.7,43.3,61.9,43.6,62.1,43.5L62.1,43.5z"/>
			</g>
		</g>
	</g>
	<g>
		<g>
			<g>
				<path class="st0" d="M83.4,27.2c0.1,1.4,0.7,3.3,1.9,4.1c1.1,0.8,1.6-0.6,1.5-1.5c-0.1-1.2-0.8-3-2-3.6
					c-0.3-0.2-0.7-0.1-0.9,0.1c-0.5,0.5-0.2,1.2,0,1.8c0.1,0.2,0.5,0,0.4-0.2c0-1.2,0.3-1.5,0.7-1c0.1,0.1,0.1,0.1,0.2,0.2
					c0.2,0.3,0.5,0.6,0.7,0.9c0.3,0.7,0.6,1.4,0.6,2.2c0,0.7-0.8,0.8-1.2,0.3c-0.3-0.2-0.5-0.7-0.7-1c-0.4-0.7-0.6-1.5-0.7-2.3
					C83.8,26.9,83.4,26.9,83.4,27.2L83.4,27.2z"/>
			</g>
		</g>
	</g>
	<g>
		<g>
			<g>
				<path class="st0" d="M59.9,28c0.1,0.9,0.6,1.7,1.3,2.2c0.7,0.4,1.4-0.1,1.3-0.9c-0.1-0.7-0.7-1.8-1.5-2c-0.6-0.2-1.3,0.3-1.2,1
					c0,0.3,0.4,0.2,0.4-0.1c-0.1-0.4,0.6-0.6,0.8-0.4c0.2,0.1,0.3,0.3,0.4,0.4c0.2,0.3,0.5,0.8,0.6,1.1c0.1,0.9-0.9,0.3-1.2,0
					c-0.3-0.4-0.5-0.8-0.6-1.3C60.3,27.7,59.9,27.7,59.9,28L59.9,28z"/>
			</g>
		</g>
	</g>
	<g>
		<g>
			<g>
				<path class="st0" d="M25,47.8c2-0.6,3.6-1.9,4.5-3.7c0.1-0.2-0.2-0.4-0.4-0.2c-0.9,1.7-2.4,2.9-4.3,3.5
					C24.6,47.5,24.7,47.9,25,47.8L25,47.8z"/>
			</g>
		</g>
	</g>
	<g>
		<g>
			<g>
				<path class="st0" d="M32.5,38.7c-0.1,0.8-0.4,1.5-0.9,2.1c-0.2,0.2,0.1,0.5,0.3,0.3c0.6-0.7,1-1.5,1-2.4
					C33,38.5,32.5,38.5,32.5,38.7L32.5,38.7z"/>
			</g>
		</g>
	</g>
	<g>
		<g>
			<g>
				<path class="st0" d="M111.1,64.9c0.1-1.5-0.1-3.3,0.7-4.6c0.1-0.2-0.2-0.4-0.4-0.2c-0.9,1.4-0.7,3.2-0.8,4.8
					C110.6,65.2,111.1,65.2,111.1,64.9L111.1,64.9z"/>
			</g>
		</g>
	</g>
	<g>
		<g>
			<g>
				<path class="st0" d="M114.5,55.8c-0.8,0.4-1.4,1.1-1.7,2c-0.1,0.3,0.3,0.4,0.4,0.1c0.2-0.8,0.7-1.4,1.4-1.7
					C115,56,114.7,55.6,114.5,55.8L114.5,55.8z"/>
			</g>
		</g>
	</g>
	<g>
		<g>
			<g>
				<path class="st0" d="M62.4,118.3c5.3,0.1,10.5-0.4,15.6-1.6c0.3-0.1,0.2-0.5-0.1-0.4c-5.1,1.2-10.3,1.8-15.5,1.6
					C62.1,117.9,62.1,118.3,62.4,118.3L62.4,118.3z"/>
			</g>
		</g>
	</g>
	<g>
		<g>
			<g>
				<path class="st0" d="M65.7,55.5c-0.6,0.3-0.9,0.9-0.8,1.6c0.1,0.4,0.8,1.2,1.3,0.9c0.3-0.2,0.5-0.7,0.7-1c0.1-0.3,0.2-0.7,0-0.9
					c-0.2-0.5-0.9-0.9-1.3-0.5c-0.2,0.2,0,0.6,0.2,0.4c0.4-0.3,0.8,0.2,0.8,0.6c0,0.4-0.3,0.8-0.6,1.1c0.1,0,0.1,0,0.2-0.1
					c-0.9-0.1-1.1-1.3-0.2-1.7C66.2,55.8,66,55.4,65.7,55.5L65.7,55.5z"/>
			</g>
		</g>
	</g>
	<g>
		<g>
			<g>
				<path class="st0" d="M70.7,56.3c-0.8-0.1-1.2,0.9-0.6,1.3c0.1,0,0.1,0,0.2,0c0.2-0.1,0.5-0.2,0.8-0.4c0.1,0,0.1-0.2,0.1-0.2
					c-0.1-0.3-0.3-0.6-0.6-0.9c-0.2-0.2-0.5,0.1-0.3,0.3c0.2,0.2,0.4,0.4,0.5,0.7c0-0.1,0.1-0.2,0.1-0.2c-0.2,0.1-0.5,0.2-0.8,0.4
					c0.1,0,0.1,0,0.2,0c-0.2-0.1,0-0.6,0.2-0.6C70.9,56.8,71,56.4,70.7,56.3L70.7,56.3z"/>
			</g>
		</g>
	</g>
</g>
</svg>
