<?xml version="1.0" encoding="utf-8"?>
<!-- Generator: Adobe Illustrator 24.0.1, SVG Export Plug-In . SVG Version: 6.00 Build 0)  -->
<svg version="1.1" id="Layer_1" xmlns="http://www.w3.org/2000/svg" xmlns:xlink="http://www.w3.org/1999/xlink" x="0px" y="0px"
	 viewBox="0 0 141.7 141.7" style="enable-background:new 0 0 141.7 141.7;" xml:space="preserve">
<style type="text/css">
	.st0{fill:#070707;}
</style>
<g id="Layer_1_1_">
</g>
<g id="Layer_1_2_">
</g>
<g id="Layer_1_3_">
</g>
<g id="Layer_1_4_">
</g>
<g id="Layer_1_5_">
</g>
<g id="Layer_3">
</g>
<g id="Layer_3_1_">
</g>
<g id="Layer_1_6_">
</g>
<g id="Layer_1_7_">
</g>
<g id="Layer_1_8_">
</g>
<g id="Layer_1_9_">
</g>
<g id="Layer_1_10_">
</g>
<g id="Layer_1_11_">
</g>
<g id="Layer_1_12_">
</g>
<g id="Layer_1_13_">
</g>
<g id="Layer_1_14_">
</g>
<g id="Layer_1_15_">
</g>
<g id="Layer_1_16_">
</g>
<g id="Layer_1_17_">
</g>
<g id="Layer_1_18_">
</g>
<g id="Layer_1_19_">
</g>
<g id="Layer_1_20_">
</g>
<g id="Layer_2_1_">
</g>
<g id="Layer_4">
	<g>
		<g>
			<g>
				<path class="st0" d="M87.6,26.2c-3-5.4-9.3-8.1-15.4-8.2c-3.9,0-8.1,0.5-11.9,1.1c-3.4,0.6-6.7,2.2-9.1,4.7
					c-4.2,4.4-5.4,10.5-5.5,16.3c-0.2,7,0.9,13.9,0.7,20.9c-0.2,4.8-1.1,9.6-0.4,14.4c0.6,4.1,2.5,7.7,5.3,10.7
					c0.4,0.4,1-0.2,0.6-0.6c-2.4-2.6-4.1-5.7-4.9-9.2c-0.8-4-0.2-8.2,0.1-12.3c0.4-6.5-0.2-12.9-0.5-19.4c-0.2-5.7,0-11.9,2.9-17
					c1.6-2.8,4-5,6.9-6.4c3.6-1.7,7.8-1.7,11.7-2.1c7.1-0.7,15,0.7,18.8,7.5C87.2,27.1,87.9,26.7,87.6,26.2L87.6,26.2z"/>
			</g>
		</g>
	</g>
	<g>
		<g>
			<g>
				<path class="st0" d="M55.7,89c3.8,2.3,8.6,2.4,13,2c2.2-0.2,4.3-0.5,6.4-0.9c2.4-0.4,5.1-0.6,7.2-1.9c0.5-0.3,0-1-0.5-0.8
					c-2,1.2-4.5,1.4-6.8,1.8c-2.1,0.3-4.2,0.7-6.4,0.9c-4.2,0.3-8.8,0.3-12.5-1.9C55.7,87.9,55.3,88.7,55.7,89L55.7,89z"/>
			</g>
		</g>
	</g>
	<g>
		<g>
			<g>
				<path class="st0" d="M61,19.8c0.6,0,0.6-0.9,0-0.9C60.4,18.9,60.4,19.8,61,19.8L61,19.8z"/>
			</g>
		</g>
	</g>
	<g>
		<g>
			<g>
				<path class="st0" d="M40.8,23.8c-3.2-0.3-5.2-3.6-3.2-6.4c1.5-2.1,5.6-3.5,7.6-1.3c0.4,0.4,1-0.2,0.6-0.6
					c-2.5-2.7-7.6-1-9.2,1.9c-1.9,3.4,0.6,7,4.2,7.3C41.4,24.7,41.4,23.8,40.8,23.8L40.8,23.8z"/>
			</g>
		</g>
	</g>
	<g>
		<g>
			<g>
				<path class="st0" d="M88.4,16c2.3-1.1,6-1.8,7.7,0.7c1.7,2.6,0.7,6.4-2.6,7.1c-0.6,0.1-0.3,0.9,0.2,0.8c3.6-0.8,4.9-4.9,3.3-8
					c-1.7-3.4-6.2-2.9-9.1-1.4C87.4,15.5,87.9,16.3,88.4,16L88.4,16z"/>
			</g>
		</g>
	</g>
	<g>
		<g>
			<g>
				<path class="st0" d="M65.4,38.2c0.1,0,0.1,0,0.2,0c-0.1-0.1-0.1-0.3-0.2-0.4c-0.7,0.5-1.5,0.7-2.2,1.4c-0.5,0.5-1.1,1.3-1,2.1
					c0.4,3.1,5.1,1,6.7,1c1.6,0,4.7,1.8,5.2-1c0.3-2.1-2.3-3.2-3.8-3.8c-0.3-0.1-0.4,0.3-0.1,0.4c0.7,0.2,1.3,0.5,1.9,0.9
					c0.4,0.2,0.8,0.6,1.1,0.9c0.6,0.8,1.1,2.5-0.9,2.8c-1.3,0.1-2.5-0.8-3.8-0.6c-0.6,0.1-1.2,0.3-1.8,0.4c-0.6,0.2-1.3,0.3-1.9,0.3
					c-0.5,0-0.9-0.1-1.4-0.4c-0.2-0.6-0.3-1.1-0.5-1.7c0.2-1.2,2-1.7,2.8-2.2c0.2-0.1,0.1-0.5-0.2-0.4c-0.1,0-0.1,0-0.2,0
					C64.9,37.9,65.1,38.3,65.4,38.2L65.4,38.2z"/>
			</g>
		</g>
	</g>
	<g>
		<g>
			<g>
				<path class="st0" d="M70.7,42.6c0.3,0.9,0.5,2,0.3,3c-0.2,0.7-0.9,1.2-1.6,1c-0.6-0.1-0.7-0.7-0.9-1.1c-0.1-0.2-0.5,0-0.4,0.2
					c0.2,0.5,0.4,1.1,1,1.3c0.5,0.2,1.1,0,1.6-0.2c1.3-0.9,0.9-3.1,0.4-4.3C71.1,42.2,70.6,42.3,70.7,42.6L70.7,42.6z"/>
			</g>
		</g>
	</g>
	<g>
		<g>
			<g>
				<path class="st0" d="M51.7,92.7c2-0.9,3.1,1.6,4.4,2.5c0-0.1,0-0.3,0-0.4c-2.1,0.3-3.9,3.5-6.1,3c-2.1-0.4-1.6-2.5-0.5-3.6
					c0.8-0.8,1.8-1.4,2.8-1.8c0.2-0.1,0-0.5-0.2-0.4c-1.6,0.8-5.4,3-3.6,5.3c2.4,2.9,5.3-1.7,7.7-2.1c0.2,0,0.2-0.3,0-0.4
					c-1.6-1.1-2.6-3.6-4.8-2.5C51.2,92.5,51.5,92.8,51.7,92.7L51.7,92.7z"/>
			</g>
		</g>
	</g>
	<g>
		<g>
			<g>
				<path class="st0" d="M49.4,97.5c-0.3-1.1,0.6-2,1.5-2.5c0.2-0.1,0-0.5-0.2-0.4c-1.1,0.6-2.1,1.7-1.7,3
					C49.1,97.9,49.5,97.8,49.4,97.5L49.4,97.5z"/>
			</g>
		</g>
	</g>
	<g>
		<g>
			<g>
				<path class="st0" d="M87.7,98.7c-1-0.7-1.7-1.6-2.6-2.5c-0.6-0.6-1-1.1-0.2-1.9c0.6-0.5,1.4-1,2.2-1c1.5,0,2.6,1.3,3.2,2.6
					c0.3,0.7,0.6,1.8,0.1,2.4C89.8,99.3,88.6,99.1,87.7,98.7c-0.2-0.1-0.5,0.2-0.2,0.4c1.4,0.7,3.2,0.6,3.6-1.3
					c0.3-1.8-1.1-4-2.8-4.7c-0.8-0.3-1.7-0.3-2.5,0.1c-0.7,0.3-2,1.1-2.1,2c0,0.6,0.7,0.9,1.1,1.3c0.9,0.9,1.6,1.9,2.6,2.5
					C87.7,99.2,88,98.8,87.7,98.7z"/>
			</g>
		</g>
	</g>
	<g>
		<g>
			<g>
				<path class="st0" d="M88.3,96.1c0.8,0.8,1.4,1.8,1.4,2.9c0,0.3,0.5,0.3,0.4,0c0-1.2-0.7-2.3-1.5-3.2
					C88.4,95.6,88.1,95.9,88.3,96.1L88.3,96.1z"/>
			</g>
		</g>
	</g>
	<g>
		<g>
			<g>
				<path class="st0" d="M101.1,47.6c0.6,0.2,1.3,0,1.9,0.1c1.1,0.2,2.2,0.9,2.6,1.9c0.6,1.2,0.1,2.7-1.5,2.4c-1.1-0.2-2-1-2.8-1.8
					c-0.2-0.2-0.5,0.1-0.3,0.3c1,0.9,2.1,1.9,3.5,2c1,0,1.6-0.5,1.7-1.5c0.1-1.1-0.5-2.2-1.4-2.9c-0.6-0.4-1.3-0.7-2.1-0.8
					c-0.5-0.1-1.1,0.1-1.6-0.1C100.9,47.1,100.8,47.5,101.1,47.6L101.1,47.6z"/>
			</g>
		</g>
	</g>
	<g>
		<g>
			<g>
				<path class="st0" d="M103.9,50.5c0.7,0.2,1.6,0.8,1.2,1.7c-0.1,0.2,0.2,0.5,0.4,0.2c0.6-1.1-0.5-2-1.5-2.3
					C103.7,50,103.6,50.4,103.9,50.5L103.9,50.5z"/>
			</g>
		</g>
	</g>
	<g>
		<path class="st0" d="M72.1,36.3c-3.9,0-7.1-3.2-7.1-7.1c0-3.9,3.2-7.1,7.1-7.1c3.9,0,7.1,3.2,7.1,7.1
			C79.3,33.1,76.1,36.3,72.1,36.3z M72.1,22.5c-3.6,0-6.6,3-6.6,6.6c0,3.6,3,6.6,6.6,6.6c3.6,0,6.6-3,6.6-6.6
			C78.7,25.5,75.8,22.5,72.1,22.5z"/>
	</g>
	<g>
		<path class="st0" d="M56,36.8c-3.9,0-7.1-3.2-7.1-7.1c0-3.9,3.2-7.1,7.1-7.1c3.9,0,7.1,3.2,7.1,7.1C63.1,33.6,59.9,36.8,56,36.8z
			 M56,23.1c-3.6,0-6.6,3-6.6,6.6c0,3.6,3,6.6,6.6,6.6c3.6,0,6.6-3,6.6-6.6C62.6,26.1,59.6,23.1,56,23.1z"/>
	</g>
	<g>
		<circle class="st0" cx="92.4" cy="19.1" r="1.5"/>
	</g>
	<g>
		<circle class="st0" cx="41.5" cy="19.3" r="1.5"/>
	</g>
	<g>
		<path class="st0" d="M71.2,37.4c0-0.9-1.4-1.7-3.1-1.7c-1.7,0-3.1,0.8-3.1,1.7c0,0.9,1.4,1.7,3.1,1.7
			C69.8,39.1,71.2,38.3,71.2,37.4z"/>
	</g>
	<g>
		<path class="st0" d="M69.8,25.4c-1.3,0-2.2,1-2.2,2.2c0,1.3,1,2.2,2.2,2.2c1.3,0,2.2-1,2.2-2.2S71.1,25.4,69.8,25.4z M70.7,29
			c-0.3,0-0.6-0.3-0.6-0.6c0-0.3,0.3-0.6,0.6-0.6s0.6,0.3,0.6,0.6C71.4,28.8,71.1,29,70.7,29z"/>
	</g>
	<g>
		<path class="st0" d="M53.5,26.2c-1.3,0-2.2,1-2.2,2.2c0,1.3,1,2.2,2.2,2.2c1.3,0,2.2-1,2.2-2.2C55.7,27.2,54.7,26.2,53.5,26.2z
			 M54.4,29.8c-0.3,0-0.6-0.3-0.6-0.6s0.3-0.6,0.6-0.6s0.6,0.3,0.6,0.6C55,29.5,54.7,29.8,54.4,29.8z"/>
	</g>
	<g>
		<g>
			<g>
				<path class="st0" d="M68.2,42.1c0.1,0.8,0.1,1.9,0,2.7c0,0.5-0.1,1.1-0.5,1.5c-0.4,0.5-1.2,0.6-1.7,0.1
					c-0.8-0.9-0.6-2.7-0.3-3.7c0.1-0.3-0.3-0.4-0.4-0.1c-0.4,1.3-0.7,4,1.1,4.5c2.6,0.8,2.4-3.7,2.2-5.1
					C68.5,41.7,68.1,41.9,68.2,42.1L68.2,42.1z"/>
			</g>
		</g>
	</g>
	<g>
		<g>
			<g>
				<path class="st0" d="M37.8,36.4c-1-0.5-1.7-1.4-2.2-2.3c-0.3-0.7-1.1-2.8,0.5-2.6c0.3,0,0.4-0.4,0.1-0.4
					c-1.2-0.2-1.6,0.7-1.4,1.8c0.3,1.6,1.4,3.2,2.8,3.9C37.9,36.8,38.1,36.5,37.8,36.4L37.8,36.4z"/>
			</g>
		</g>
	</g>
	<g>
		<g>
			<g>
				<path class="st0" d="M36.9,32.5c-0.2-0.4-0.6-1.2,0.1-1.3c0.5-0.1,1,0.5,1.3,0.9c0.5,0.8,0.7,1.7,0.8,2.6c0,0.3,0.5,0.3,0.4,0
					c-0.1-1.2-0.6-3.1-1.7-3.7c-0.4-0.2-1.1-0.3-1.4,0.1c-0.3,0.5,0,1.2,0.2,1.6C36.6,32.9,37,32.7,36.9,32.5L36.9,32.5z"/>
			</g>
		</g>
	</g>
	<g>
		<g>
			<g>
				<path class="st0" d="M86.5,25.8c2.7,4,3.4,8.8,3.5,13.5c0.2,4.7,0,9.4,0.1,14.1c0.2,5.6,0.7,11.1,0.6,16.7c0,2.7-0.2,5.4-0.9,8
					c-0.7,2.6-2.3,4.5-3.6,6.8c-0.3,0.5,0.5,0.9,0.8,0.5c1.2-2.2,2.8-4,3.5-6.4c0.7-2.4,1-4.9,1.1-7.5c0.2-6-0.3-12.1-0.6-18
					c-0.4-9.1,1.6-20.1-3.8-28.1C86.9,24.9,86.2,25.4,86.5,25.8L86.5,25.8z"/>
			</g>
		</g>
	</g>
	<g>
		<g>
			<g>
				<path class="st0" d="M82.1,87.9c0,0,0.1,0,0.1,0c0.3,0,0.3-0.4,0-0.4c0,0,0,0,0,0c-0.1,0-0.1,0-0.2,0.1c0,0,0,0,0,0
					c0.1,0.1,0.2,0.2,0.3,0.2c0,0,0-0.1,0-0.1c-0.1,0-0.2,0.1-0.3,0.1C82.1,87.8,82.1,87.9,82.1,87.9c0.2,0.2,0.5-0.1,0.3-0.3
					c0,0-0.1-0.1-0.1-0.1c-0.1-0.1-0.3-0.1-0.3,0.1c0,0,0,0.1,0,0.1c-0.1,0.2,0.2,0.3,0.3,0.2c0.1,0,0.1-0.1,0.2-0.2
					c-0.1,0-0.1,0.1-0.2,0.1c0,0,0,0,0,0c0.3,0,0.3-0.4,0-0.4c0,0-0.1,0-0.1,0C81.9,87.4,81.9,87.9,82.1,87.9L82.1,87.9z"/>
			</g>
		</g>
	</g>
	<g>
		<g>
			<path class="st0" d="M66.9,25.1c0-0.1,0.1-0.1,0.1-0.2c0-0.1,0.1-0.1,0.1-0.2c-1.6-2.6-4.4-4.4-7.7-4.4c-2.7,0-5.1,1.2-6.7,3.1
				l0,0c0.2-0.1,0.3-0.1,0.5,0c1.6-1.6,3.8-2.7,6.2-2.7C62.6,20.8,65.4,22.6,66.9,25.1z"/>
		</g>
		<g>
			<path class="st0" d="M66.8,33.6c-1.5,2.5-4.2,4.2-7.3,4.2c-1.8,0-3.5-0.6-4.9-1.5c-0.2,0-0.5-0.1-0.7-0.2c-0.1,0-0.1,0-0.2,0
				c1.6,1.4,3.6,2.2,5.8,2.2c3.2,0,6.1-1.7,7.6-4.4C67,33.8,66.9,33.7,66.8,33.6z"/>
		</g>
	</g>
	<g>
		<g>
			<path class="st0" d="M76.7,19.9c-2.5,0-4.8,1.1-6.4,2.8c0.2-0.1,0.3-0.1,0.5-0.2c0.1,0,0.2,0,0.2-0.1c1.5-1.4,3.5-2.2,5.7-2.2
				c4.7,0,8.5,3.8,8.5,8.5s-3.8,8.5-8.5,8.5c-1.7,0-3.4-0.5-4.7-1.4c-0.1,0-0.1,0-0.2,0c-0.1,0-0.2,0-0.2,0s-0.1,0-0.2,0
				c1.5,1.1,3.3,1.8,5.4,1.8c4.9,0,8.9-4,8.9-8.9C85.6,23.9,81.7,19.9,76.7,19.9z"/>
		</g>
	</g>
	<g>
		<path class="st0" d="M71.3,34.7c-3.4,0-6.2-2.8-6.2-6.2s2.8-6.2,6.2-6.2s6.2,2.8,6.2,6.2S74.7,34.7,71.3,34.7z M71.3,22.9
			c-3.1,0-5.7,2.5-5.7,5.7s2.5,5.7,5.7,5.7s5.7-2.5,5.7-5.7S74.4,22.9,71.3,22.9z"/>
	</g>
	<g>
		<path class="st0" d="M55.2,35.1c-3.4,0-6.2-2.8-6.2-6.2c0-3.4,2.8-6.2,6.2-6.2s6.2,2.8,6.2,6.2C61.4,32.3,58.6,35.1,55.2,35.1z
			 M55.2,23.3c-3.1,0-5.7,2.5-5.7,5.7s2.5,5.7,5.7,5.7s5.7-2.5,5.7-5.7S58.3,23.3,55.2,23.3z"/>
	</g>
	<g>
		<g>
			<g>
				<path class="st0" d="M57.3,22.8c0.8-1.1,2.1-1.8,3.5-2c0.3,0,0.3-0.5,0-0.4c-1.6,0.2-2.9,0.9-3.9,2.2
					C56.7,22.8,57.1,23.1,57.3,22.8L57.3,22.8z"/>
			</g>
		</g>
	</g>
	<g>
		<g>
			<g>
				<path class="st0" d="M62.5,27.9c1.1,0,2.1-0.3,3-1c0.2-0.2,0-0.6-0.2-0.4c-0.8,0.6-1.7,0.9-2.8,0.9
					C62.3,27.4,62.3,27.9,62.5,27.9L62.5,27.9z"/>
			</g>
		</g>
	</g>
	<g>
		<g>
			<g>
				<path class="st0" d="M60.8,34.6c0.6,1.2,1.8,2.1,3.1,2.3c0.3,0,0.4-0.4,0.1-0.4c-1.3-0.2-2.3-0.9-2.9-2.1
					C61,34.1,60.7,34.3,60.8,34.6L60.8,34.6z"/>
			</g>
		</g>
	</g>
	<g>
		<g>
			<g>
				<path class="st0" d="M76.5,23.8c1.3-1.4,3.1-2.2,5-2.1c0.3,0,0.3-0.4,0-0.4c-2.1-0.1-3.9,0.7-5.3,2.2C76,23.7,76.3,24,76.5,23.8
					L76.5,23.8z"/>
			</g>
		</g>
	</g>
	<g>
		<g>
			<g>
				<path class="st0" d="M78.9,29.6c2.3,1.1,5,0.5,6.7-1.4c0.2-0.2-0.1-0.5-0.3-0.3c-1.5,1.8-4,2.3-6.2,1.3
					C78.8,29.1,78.6,29.5,78.9,29.6L78.9,29.6z"/>
			</g>
		</g>
	</g>
	<g>
		<g>
			<g>
				<path class="st0" d="M76.9,34.2c0,0,0,0.1,0,0.1c-0.1,0-0.2,0.1-0.3,0.1c0,0,0-0.1,0-0.1c0,0.1,0,0.2,0.1,0.2
					c1.3,1.4,3.2,2,5,1.5c0.3-0.1,0.1-0.5-0.1-0.4c-0.8,0.2-1.7,0.2-2.5,0c-0.2-0.1-2.2-0.9-2-1.3C77.1,34.3,77.1,34.2,76.9,34.2
					c0-0.1,0-0.1,0-0.1c-0.1-0.1-0.3,0-0.3,0.1c0,0,0,0.1,0,0.1c0,0.1,0,0.2,0.1,0.2c0,0,0.1,0,0.1,0.1
					C76.9,34.8,77.2,34.4,76.9,34.2L76.9,34.2z"/>
			</g>
		</g>
	</g>
	<g>
		<g>
			<g>
				<path class="st0" d="M50.9,33.2c-0.1,0.3-0.3,0.6-0.5,0.9c-0.1,0.2,0.2,0.5,0.4,0.2c0.1-0.3,0.3-0.6,0.5-0.9
					C51.5,33.2,51.1,32.9,50.9,33.2L50.9,33.2z"/>
			</g>
		</g>
	</g>
	<g>
		<g>
			<g>
				<path class="st0" d="M52.9,34.6c-0.1,0.3-0.1,0.7-0.2,1c-0.1,0.3,0.3,0.4,0.4,0.1c0.1-0.3,0.1-0.7,0.2-1
					C53.4,34.4,53,34.3,52.9,34.6L52.9,34.6z"/>
			</g>
		</g>
	</g>
	<g>
		<g>
			<g>
				<path class="st0" d="M56.1,34.8c0.1,0.5,0.2,1,0.4,1.5c0.1,0.3,0.5,0.1,0.4-0.1c-0.1-0.5-0.2-1-0.4-1.5
					C56.4,34.4,56,34.5,56.1,34.8L56.1,34.8z"/>
			</g>
		</g>
	</g>
	<g>
		<g>
			<g>
				<path class="st0" d="M58.9,33.9c0.4,0.2,0.7,0.6,0.9,1c0.1,0.2,0.5,0,0.4-0.2c-0.3-0.5-0.6-0.8-1.1-1.1
					C58.9,33.4,58.7,33.7,58.9,33.9L58.9,33.9z"/>
			</g>
		</g>
	</g>
	<g>
		<g>
			<g>
				<path class="st0" d="M61.2,29.7c0.3-0.3,0.8-0.3,1.1,0c0.2,0.2,0.5-0.1,0.3-0.3c-0.5-0.5-1.3-0.5-1.8,0
					C60.7,29.6,61,29.9,61.2,29.7L61.2,29.7z"/>
			</g>
		</g>
	</g>
	<g>
		<g>
			<g>
				<path class="st0" d="M60.4,26.2c0.3-0.2,0.7-0.3,1.1-0.3c0.3,0,0.4-0.4,0.1-0.4c-0.5-0.1-1,0-1.5,0.3C60,26,60.2,26.4,60.4,26.2
					L60.4,26.2z"/>
			</g>
		</g>
	</g>
	<g>
		<g>
			<g>
				<path class="st0" d="M58.5,24.2c0.2,0.1,0.5,0,0.6-0.1c0.2-0.2,0-0.6-0.2-0.4c-0.1,0.1-0.2,0.1-0.3,0.1
					C58.4,23.7,58.2,24.1,58.5,24.2L58.5,24.2z"/>
			</g>
		</g>
	</g>
	<g>
		<g>
			<g>
				<path class="st0" d="M67.9,33.9c0,0.2,0,0.4-0.1,0.6c0,0.3,0.4,0.3,0.4,0c0-0.2,0-0.4,0.1-0.6C68.3,33.6,67.9,33.6,67.9,33.9
					L67.9,33.9z"/>
			</g>
		</g>
	</g>
	<g>
		<g>
			<g>
				<path class="st0" d="M70.4,34.4c-0.5,0.4-0.5,1.1,0,1.5c0.2,0.2,0.5-0.2,0.2-0.4c-0.2-0.2-0.2-0.6,0-0.8
					C70.9,34.7,70.6,34.3,70.4,34.4L70.4,34.4z"/>
			</g>
		</g>
	</g>
	<g>
		<g>
			<g>
				<path class="st0" d="M74,34.1c0.3,0,0.3-0.4,0-0.4C73.7,33.7,73.7,34.1,74,34.1L74,34.1z"/>
			</g>
		</g>
	</g>
	<g>
		<g>
			<g>
				<path class="st0" d="M73.8,33.9c0,0.6,0.2,1.1,0.7,1.5c0.2,0.2,0.5-0.1,0.3-0.3c-0.3-0.3-0.5-0.7-0.5-1.1
					C74.2,33.6,73.8,33.6,73.8,33.9L73.8,33.9z"/>
			</g>
		</g>
	</g>
	<g>
		<g>
			<g>
				<path class="st0" d="M77.4,28.2C77.4,28.2,77.3,28.2,77.4,28.2c0,0,0.1,0,0.1,0c0,0,0,0,0.1,0c0,0.1,0,0.1,0,0.2
					c0.1-0.1,0.5-0.1,0.7,0c0.2,0.1,0.5,0.2,0.6,0.3c0.2,0.2,0.5-0.1,0.3-0.3c-0.4-0.4-1-0.6-1.6-0.5c-0.2,0.1-0.4,0.2-0.3,0.4
					c0,0.2,0.3,0.3,0.5,0.2C77.8,28.4,77.6,28,77.4,28.2L77.4,28.2z"/>
			</g>
		</g>
	</g>
	<g>
		<g>
			<g>
				<path class="st0" d="M76.9,26c0.2-0.3,0.6-0.2,0.8,0c0.2,0.2,0.5-0.1,0.3-0.3c-0.4-0.5-1.1-0.4-1.5,0.1
					C76.4,26,76.7,26.3,76.9,26L76.9,26z"/>
			</g>
		</g>
	</g>
	<g>
		<g>
			<g>
				<path class="st0" d="M75.7,24.4c0.1-0.1,0.2-0.3,0.3-0.4c0.1-0.1,0.3-0.1,0.3,0c0.1,0.3,0.5,0.1,0.4-0.1
					c-0.1-0.3-0.4-0.5-0.7-0.4c-0.3,0.1-0.6,0.4-0.7,0.7C75.2,24.4,75.6,24.7,75.7,24.4L75.7,24.4z"/>
			</g>
		</g>
	</g>
	<g>
		<g>
			<g>
				<path class="st0" d="M74.7,23.5c0-0.1,0-0.2,0.1-0.3l0.1,0c0-0.1,0-0.1-0.1-0.2c0-0.1,0.1-0.1,0.3,0.1c-0.1-0.3-0.5-0.1-0.4,0.1
					c0.1,0.5,0.8,0.1,0.6-0.3c-0.1-0.2-0.4-0.2-0.6-0.1c-0.1,0-0.2,0.1-0.2,0.2c-0.1,0.1-0.1,0.3-0.1,0.5
					C74.2,23.6,74.6,23.7,74.7,23.5L74.7,23.5z"/>
			</g>
		</g>
	</g>
	<g>
		<g>
			<g>
				<path class="st0" d="M70.7,37.8c1.1,0.1,2.4,0.2,3.2,1c1,0.9,1.1,3.1-0.7,3.2c-0.3,0-0.3,0.5,0,0.4c1.5-0.1,2.2-1.6,1.7-3
					c-0.7-1.7-2.6-2.1-4.2-2.2C70.5,37.3,70.5,37.7,70.7,37.8L70.7,37.8z"/>
			</g>
		</g>
	</g>
	<g>
		<g>
			<g>
				<path class="st0" d="M71.8,42.8c0.6,1.3,0.7,3.8-1.4,3.8c-0.3,0-0.3,0.4,0,0.4c0.9,0,1.7-0.6,2.1-1.4c0.4-1,0.1-2.1-0.3-3
					C72,42.3,71.6,42.5,71.8,42.8L71.8,42.8z"/>
			</g>
		</g>
	</g>
	<g>
		<g>
			<g>
				<path class="st0" d="M36.6,35.9c-0.5,0.6-1,1.3-0.6,2c0.4,0.7,1,0.5,1.6,0.1c2-1.4,3.9-3.4,4.3-5.8c0-0.1-0.1-0.3-0.2-0.3
					c-1.1,0-2.1,0.5-2.8,1.4c-0.2,0.2,0.1,0.5,0.3,0.3c0.7-0.8,1.5-1.2,2.5-1.3c-0.1-0.1-0.1-0.2-0.2-0.3c-0.2,1.4-0.9,2.5-1.8,3.5
					c-0.4,0.4-0.8,0.8-1.2,1.1c-0.2,0.1-0.3,0.4-0.6,0.5c-0.2,0.4-0.5,0.3-0.8-0.1c-0.7-0.2-0.7-0.5-0.2-0.9
					C37.1,35.9,36.8,35.6,36.6,35.9L36.6,35.9z"/>
			</g>
		</g>
	</g>
	<g>
		<g>
			<g>
				<path class="st0" d="M102.4,47.6c0.2-0.7,0.4-1.8-0.6-1.9c-1.3-0.2-1.9,1.7-2.2,2.6c-0.3,0.9-0.9,2.7,0.1,3.5
					c0.9,0.7,1.6-0.2,2-1c0.1-0.2-0.2-0.5-0.4-0.2c-0.1,0.2-0.2,0.3-0.2,0.5c-1.2,0-1.7-0.5-1.3-1.4c0.1-0.4,0.2-0.8,0.3-1.3
					c0.2-0.5,0.4-1,0.7-1.5c0.2-0.7,0.7-0.8,1.5-0.2c0,0.3-0.1,0.5-0.2,0.8C101.9,47.8,102.3,47.9,102.4,47.6L102.4,47.6z"/>
			</g>
		</g>
	</g>
	<g>
		<g>
			<g>
				<path class="st0" d="M56,95.5c0.6-0.2,1.1-0.4,1.7-0.5c0.1,0,0.2-0.1,0.1-0.3c-0.2-1.3-0.5-2.5-1.1-3.7
					c-0.4-0.8-1.2-2.1-2.2-2.4c-1.9-0.5-2.7,2.7-2.4,4c0.1,0.3,0.5,0.2,0.4-0.1c-0.2-1,0-2.2,0.8-2.9c1.2-1.2,2.4,0.5,2.9,1.5
					c0.4,0.8,0.6,1.6,0.8,2.4c0.1,0.3,0.3,0.8,0.1,1c-0.2,0.3-1,0.4-1.4,0.5C55.6,95.1,55.7,95.6,56,95.5L56,95.5z"/>
			</g>
		</g>
	</g>
	<g>
		<g>
			<g>
				<path class="st0" d="M84.2,95.5c-0.4-0.2-0.9-0.4-1.3-0.6c-0.6-0.3-0.6-0.3-0.6-1c0.1-0.8,0.5-1.9,0.9-2.6
					c1.8-3.4,4.8-0.6,5,2.1c0,0.3,0.5,0.3,0.4,0c-0.1-1.9-1.4-4.5-3.7-4.2c-2.2,0.2-3,3.7-3.2,5.4c0,0.1,0,0.2,0.1,0.2
					c0.7,0.3,1.4,0.7,2.1,1.1C84.3,96,84.5,95.7,84.2,95.5L84.2,95.5z"/>
			</g>
		</g>
	</g>
	<g>
		<g>
			<g>
				<path class="st0" d="M57.9,94.8c0.2-0.7,0.5-1.4,0.7-2.1c0.1-0.5,0.5-2.1,1-2.2c0.3-0.1,0.2-0.5-0.1-0.4
					c-0.6,0.1-0.7,0.8-0.9,1.4c-0.4,1.1-0.7,2.1-1.1,3.2C57.4,94.9,57.9,95,57.9,94.8L57.9,94.8z"/>
			</g>
		</g>
	</g>
	<g>
		<g>
			<g>
				<path class="st0" d="M81.9,94.9c-0.1-2.2-0.8-4.2-2.1-6c-0.2-0.2-0.6,0-0.4,0.2c1.3,1.7,2,3.7,2,5.8
					C81.5,95.1,81.9,95.1,81.9,94.9L81.9,94.9z"/>
			</g>
		</g>
	</g>
	<g>
		<g>
			<g>
				<path class="st0" d="M52.3,92.5c0.1,0.1,0.3-2.2,0.3-2.3c0-0.6,0-1.3,0-1.9c0-0.9-0.2-1.8-0.7-2.6c-0.1-0.2-0.5,0-0.4,0.2
					c0.7,1.4,0.6,3,0.6,4.6c0,0.6-0.3,1.7,0.2,2.2c0.1,0.1,0.2,0.1,0.3,0c0,0,0,0,0.1-0.1c0.1-0.1,0.1-0.2,0-0.3l0,0
					C52.4,92,52,92.3,52.3,92.5L52.3,92.5z"/>
			</g>
		</g>
	</g>
	<g>
		<g>
			<g>
				<path class="st0" d="M88.3,91.6c-1.4-2-1.8-4.4-1.3-6.8c0.1-0.3-0.3-0.4-0.4-0.1c-0.5,2.5-0.1,5,1.4,7.1
					C88.1,92.1,88.4,91.9,88.3,91.6L88.3,91.6z"/>
			</g>
		</g>
	</g>
	<g>
		<g>
			<g>
				<path class="st0" d="M36.2,38c0.4,0.6,0.6,1.2,0.7,2c0,0.1,0.1,0.3,0.3,0.2c2.6-1,4.7-2.8,6-5.3c0.3-0.6,1.1-2,0.6-2.7
					c-0.6-0.7-1.5,0.2-2.1-0.1c-0.2-0.1-0.5,0.2-0.2,0.4c0.6,0.3,1-0.2,1.5-0.1c1.4,0.5-1,3.7-1.5,4.2c-0.8,1-1.9,1.8-3.1,2.5
					c-0.2,0.1-0.6,0.4-0.9,0.3c-0.6-0.1,0,0.2-0.3-0.2c-0.3-0.4-0.4-1-0.6-1.5C36.4,37.5,36.1,37.7,36.2,38L36.2,38z"/>
			</g>
		</g>
	</g>
	<g>
		<g>
			<g>
				<path class="st0" d="M100.6,51.4c-0.9-0.3-1.7-0.2-2.6,0.2c0.1,0.1,0.2,0.1,0.3,0.2c-0.2-3,1-5.7,3.2-7.6
					c-0.1,0-0.2-0.1-0.4-0.1c0,0.9,0.3,1.6,0.9,2.4c0.2,0.2,0.5-0.1,0.3-0.3c-0.6-0.6-0.8-1.3-0.8-2.1c0-0.2-0.2-0.3-0.4-0.1
					c-2.3,2-3.6,4.9-3.4,7.9c0,0.2,0.2,0.3,0.3,0.2c0.7-0.4,1.5-0.5,2.2-0.1C100.7,51.9,100.8,51.5,100.6,51.4L100.6,51.4z"/>
			</g>
		</g>
	</g>
	<g>
		<g>
			<g>
				<path class="st0" d="M37.1,40.2c4.9,2.1,9.4-3.4,6.5-7.9c-0.1-0.2-0.5,0-0.4,0.2c2.7,4.1-1.5,9.1-6,7.2
					C37,39.7,36.9,40.1,37.1,40.2L37.1,40.2z"/>
			</g>
		</g>
	</g>
	<g>
		<g>
			<g>
				<path class="st0" d="M101.6,43.6c-2.1-1.6-4.8,1.6-5.5,3.3c-0.8,2-0.7,5.4,2.3,5c0.3,0,0.3-0.5,0-0.4c-3.1,0.4-2.5-3.5-1.6-5
					c0.7-1.3,2.9-3.8,4.6-2.5C101.6,44.1,101.9,43.7,101.6,43.6L101.6,43.6z"/>
			</g>
		</g>
	</g>
	<g>
		<g>
			<g>
				<path class="st0" d="M42.6,39.5c2.1,1-1.1,6.5-2,7.8c-0.8,1.1-1.7,2.1-2.7,3c-0.5,0.4-1,0.8-1.6,1.2c-0.3,0.2-0.6,0.3-0.9,0.5
					c-1.6-0.3-2-0.7-1.2-1.3c0.6-1.5,3.6-2.5,5-1.7c1.6,1,1.4,4.1,0.9,5.7c-0.1,0.5-0.3,0.9-0.5,1.3c-0.5,0-1,0-1.5,0.1
					c-0.6-0.6,2.1-2.4,2.5-2.5c1.5,0.1,2.2,0.7,2.2,1.7c0.1,0.5,0.1,1.1-0.1,1.6c-0.2-0.8,0.1-1.4,0.9-1.8c1.2,0.3,2.1-0.1,2.7-1.3
					c0.3-0.1,0.1-0.5-0.1-0.4c-1.4,0.5-2,1.9-1.3,3.2c0,0.1,0.2,0.1,0.3,0.1c1-0.7,0.5-2.3-0.8-2.3c-1.8,0-2.9,2.3-2.1,3.7
					c0.1,0.1,0.3,0.1,0.4,0c0.6-1.4,1-3.7-0.3-4.8c-1.3-1-3.2,0.2-4,1.3c-0.5,0.6-1.5,2.4-0.3,2.8c1.7,0.5,2.5-2.4,2.6-3.4
					c0.2-1.6,0.5-4.1-1.1-5.2c-1.6-1.1-3.6-0.2-4.9,0.9c-0.7,0.6-2.3,2.3-0.8,3c1.4,0.7,3.4-1.3,4.4-2.1c2-1.7,3.6-3.8,4.5-6.3
					c0.5-1.3,1.8-4.3,0.1-5.2C42.6,39,42.3,39.4,42.6,39.5L42.6,39.5z"/>
			</g>
		</g>
	</g>
	<g>
		<g>
			<g>
				<path class="st0" d="M96.9,45.7c-0.4-2.1-2.7-0.9-3.3,0.3c-0.4,0.7-1,2.3-0.5,3.1c0.3,0.4,0.6,0.6,1,0.3
					c0.9-0.7,0.2-3.1-1.2-2.5c-1.6,0.7-1.7,3.8,0.2,4.1c0.2,0,0.4-0.2,0.2-0.3c-0.4-0.4-0.9-0.5-1.4-0.1c-0.4,0.3-1,2.9-1.1,2.8
					c-0.2-0.2-0.5,0.2-0.2,0.4c0.3,0.2,0.5,0.2,0.8,0c0.3-0.2,0.3-0.5,0.3-0.8c0.1-0.3,0-3.1,1.3-2c0.1-0.1,0.1-0.2,0.2-0.3
					c-1.5-1.7-1.5-2.3-0.1-1.9c1.1,0.4,1.2,0,0.4-1.1c0-0.2,0.1-0.3,0.1-0.6c0.3-1.4,1.3-1.7,2.9-1.1C96.6,46,97,45.9,96.9,45.7
					L96.9,45.7z"/>
			</g>
		</g>
	</g>
	<g>
		<g>
			<g>
				<path class="st0" d="M46.6,53.5c0.4,0.2,0.8,0.4,1.3,0.3c0.3-0.1,0.6-0.3,0.6-0.6c0-0.3-0.2-0.7-0.5-0.7c-0.3,0-0.5,0.6-0.6,0.9
					c-0.1,0.3-0.1,0.7,0.2,0.9c0.3,0.2,0.6,0,0.7-0.3c0.2-0.5,0.1-1.5-0.6-1.4c-0.1,0-0.1,0-0.2,0.1c-0.2,0.4-0.2,0.9,0,1.3
					c0,0.1,0.2,0.1,0.2,0.1c0.5-0.2,0.6-0.9,0.1-1.2c-0.1-0.1-0.2,0-0.3,0c-0.3,0.2-0.3,0.6,0,0.9c0.1,0.1,0.2,0.1,0.3,0
					c0.2-0.2,0.3-0.4,0.2-0.7c0-0.1-0.2-0.2-0.3-0.1c-0.2,0.2-0.2,0.5,0,0.7c0.2,0.2,0.5-0.1,0.3-0.3c0,0,0-0.1,0-0.1
					c-0.1,0-0.2-0.1-0.3-0.1c0,0.1,0,0.2-0.1,0.2c0.1,0,0.2,0,0.3,0c-0.1-0.1,0-0.2,0-0.3c-0.1,0-0.2,0-0.3,0c0.1,0.1,0.1,0.3,0,0.4
					c0.1,0,0.2,0.1,0.2,0.1c-0.1-0.3-0.1-0.6,0-0.8c-0.1,0-0.1,0.1-0.2,0.1c0.3,0,0.2,0.6,0.2,0.8c-0.1,0.3-0.1-0.2-0.1-0.3
					c0-0.2,0.1-0.5,0.2-0.7c-0.1,0-0.1,0.1-0.2,0.1c0.1,0,0.2,0.2,0.1,0.3c-0.1,0.1-0.2,0.2-0.3,0.2c-0.3,0-0.6-0.2-0.8-0.3
					C46.6,53,46.4,53.4,46.6,53.5L46.6,53.5z"/>
			</g>
		</g>
	</g>
	<g>
		<g>
			<g>
				<path class="st0" d="M91,53.5c-0.9-0.7-2.2,0-2.1,1.1c0,0.2,0.2,0.3,0.4,0.1c0.5-0.4,0.6-1.1,0.2-1.6c-0.1-0.1-0.2-0.1-0.3,0
					c-0.3,0.3-0.5,0.7-0.3,1.1c0,0.2,0.2,0.2,0.3,0.1c0.2-0.2,0.3-0.5,0.2-0.7c0-0.1-0.2-0.2-0.3-0.1c-0.4,0.3-0.5,0.8-0.2,1.1
					c0.1,0.1,0.2,0.1,0.3,0c0.2-0.3,0.3-0.6,0.1-0.9c0-0.1-0.2-0.2-0.3-0.1c-0.3,0.2-0.4,0.5-0.2,0.8c0.1,0.2,0.5,0,0.4-0.2
					c0-0.1,0-0.1,0-0.2c-0.1,0-0.2-0.1-0.3-0.1c0.1,0.2,0.1,0.3,0,0.5c0.1,0,0.2,0,0.3,0c-0.1-0.1-0.1-0.4,0.1-0.5
					c-0.1,0-0.2-0.1-0.3-0.1c0,0.1,0,0.2-0.1,0.3c0.1,0,0.2,0.1,0.3,0.1c0-0.3,0-0.5,0.2-0.7c-0.1,0-0.2,0-0.3,0
					c0.2,0.3,0.2,0.8-0.1,1.1c0.1,0,0.2,0.1,0.4,0.1c0-0.8,0.8-1.2,1.5-0.8C91,54,91.2,53.6,91,53.5L91,53.5z"/>
			</g>
		</g>
	</g>
	<g>
		<g>
			<g>
				<path class="st0" d="M38.6,35.7c0.9-0.6,1.5-1.5,1.5-2.5c0-0.3-0.4-0.3-0.4,0c-0.1,0.9-0.6,1.7-1.3,2.2
					C38.1,35.5,38.3,35.9,38.6,35.7L38.6,35.7z"/>
			</g>
		</g>
	</g>
	<g>
		<g>
			<g>
				<path class="st0" d="M101.3,46.8c-0.5,0.5-0.8,1.2-0.7,2c0,0.3,0.5,0.3,0.4,0c0-0.6,0.2-1.2,0.6-1.6
					C101.8,46.9,101.5,46.6,101.3,46.8L101.3,46.8z"/>
			</g>
		</g>
	</g>
	<g>
		<g>
			<g>
				<path class="st0" d="M40.9,24.3c0.3,0,0.3-0.4,0-0.4C40.7,23.9,40.7,24.3,40.9,24.3L40.9,24.3z"/>
			</g>
		</g>
	</g>
	<g>
		<g>
			<g>
				<path class="st0" d="M39,24.2c0.1,0.9-0.3,2.6,1.3,2.1c1.1-0.3,2.1-2,2.8-2.9c0.7-0.9,1.4-1.9,2-2.9c0.7-1.1,1.3-2.3,1.8-3.6
					c0.3-0.6,1-1.7,0.8-2.5c-0.4-1.4-2-0.5-2.7,0.1c-0.2,0.2,0.1,0.5,0.3,0.3c1.6-0.3,2.2,0,1.7,0.9c-0.1,0.2-0.1,0.3-0.2,0.5
					c-0.3,0.7-0.6,1.4-0.9,2c-0.5,1-1.1,2-1.7,3c-0.7,1.1-1.5,2.2-2.4,3.1c-0.6,0.6-0.6,0.9-1.5,0.7c-1-0.2-0.6-0.2-0.7-1
					C39.4,24,39,24,39,24.2L39,24.2z"/>
			</g>
		</g>
	</g>
	<g>
		<g>
			<g>
				<path class="st0" d="M40.6,24.9c0.6-0.5,1.1-1.1,1.4-1.8c0.1-0.2-0.2-0.5-0.4-0.2c-0.3,0.7-0.8,1.3-1.4,1.8
					C40,24.8,40.3,25.1,40.6,24.9L40.6,24.9z"/>
			</g>
		</g>
	</g>
	<g>
		<g>
			<g>
				<path class="st0" d="M45.6,15.2c-0.2,0.8-0.5,1.6-1,2.3c-0.1,0.2,0.2,0.5,0.4,0.2c0.5-0.7,0.8-1.5,1-2.4
					C46.1,15,45.7,14.9,45.6,15.2L45.6,15.2z"/>
			</g>
		</g>
	</g>
	<g>
		<g>
			<g>
				<path class="st0" d="M89.3,14.9c-0.7-0.6-1.3-0.9-2.2-1c-0.1,0-0.2,0.1-0.2,0.2c-0.3,1.9,0.6,3.8,1.4,5.5c0.9,2,2.2,3.9,3.7,5.4
					c0.7,0.7,2.2,1.6,3,0.5c0.5-0.7,0.1-1.5-0.6-1.7c-0.3-0.1-0.4,0.3-0.1,0.4c-0.8,1-1.5,1.1-2,0.5c-0.1-0.1-0.3-0.3-0.4-0.4
					c-0.4-0.5-0.8-1-1.2-1.5c-0.6-0.8-1.1-1.6-1.5-2.4c-0.5-0.9-0.9-1.8-1.3-2.8c-0.1-0.4-0.4-0.9-0.5-1.3c-0.1-1,0.5-2,1.6-1
					C89.2,15.4,89.5,15,89.3,14.9L89.3,14.9z"/>
			</g>
		</g>
	</g>
	<g>
		<g>
			<g>
				<path class="st0" d="M92.7,23.2c-0.1,0.8,0.4,1.5,1.2,1.6c0.3,0,0.3-0.4,0-0.4c-0.5,0-0.9-0.5-0.8-1
					C93.1,23.1,92.7,22.9,92.7,23.2L92.7,23.2z"/>
			</g>
		</g>
	</g>
	<g>
		<g>
			<g>
				<path class="st0" d="M87.8,14.8c-0.1,0.9,0.3,1.8,1.1,2.2c0.2,0.1,0.5-0.2,0.2-0.4c-0.7-0.4-1-1.1-0.9-1.8
					C88.3,14.5,87.8,14.5,87.8,14.8L87.8,14.8z"/>
			</g>
		</g>
	</g>
	<g>
		<g>
			<g>
				<path class="st0" d="M44.6,21.4c1,1,2.1,1.8,3.3,2.6c0.8,0.5,2,1.3,2.9,1c0.3-0.1,0.1-0.5-0.1-0.4c-1,0.3-2.5-0.8-3.3-1.4
					c-0.9-0.6-1.7-1.3-2.5-2.1C44.7,20.9,44.4,21.2,44.6,21.4L44.6,21.4z"/>
			</g>
		</g>
	</g>
	<g>
		<g>
			<g>
				<path class="st0" d="M84.7,23.2c1.8-0.2,3.3-0.9,4.7-2.1c0.2-0.2-0.1-0.5-0.3-0.3c-1.2,1.1-2.7,1.8-4.4,2
					C84.4,22.8,84.4,23.2,84.7,23.2L84.7,23.2z"/>
			</g>
		</g>
	</g>
	<g>
		<g>
			<g>
				<path class="st0" d="M43.8,21.8c1.9,1.7,3.9,3.6,4.5,6.2c0.1,0.3,0.5,0.2,0.4-0.1c-0.6-2.7-2.6-4.6-4.6-6.4
					C43.9,21.3,43.6,21.6,43.8,21.8L43.8,21.8z"/>
			</g>
		</g>
	</g>
	<g>
		<g>
			<g>
				<path class="st0" d="M87.2,25.4c-0.1,0-0.3,0-0.5,0c0.1,0.1,0.1,0.1,0.2,0.2c0.2-1.6,1.3-3,2.8-3.4c0.3-0.1,0.1-0.5-0.1-0.4
					c-1.7,0.6-3,2.1-3.1,3.9c0,0.1,0.1,0.2,0.2,0.2c0.1,0,0.3,0,0.5,0C87.4,25.8,87.4,25.4,87.2,25.4L87.2,25.4z"/>
			</g>
		</g>
	</g>
	<g>
		<g>
			<g>
				<path class="st0" d="M43.6,38.3c1.2,4.6-1.5,8.5-4.9,11.2c-0.2,0.2,0.1,0.5,0.3,0.3c3.6-2.8,6.3-6.9,5-11.6
					C43.9,37.9,43.5,38,43.6,38.3L43.6,38.3z"/>
			</g>
		</g>
	</g>
	<g>
		<g>
			<g>
				<path class="st0" d="M38.6,49.3c-0.7,0.7-1.7,1.4-2.7,1.7c-0.6,0.1-0.8-0.7-0.5-1.1c0.2-0.2,0.5-0.4,0.7-0.6
					c0.5-0.3,1-0.5,1.5-0.6c0.3-0.1,0.2-0.5-0.1-0.4c-0.9,0.2-1.8,0.6-2.4,1.3c-0.3,0.4-0.7,1.1-0.3,1.6c1,1.2,3.4-0.9,4.1-1.5
					C39.1,49.5,38.8,49.1,38.6,49.3L38.6,49.3z"/>
			</g>
		</g>
	</g>
	<g>
		<g>
			<g>
				<path class="st0" d="M40.4,53.2c-0.1,0.5-0.3,0.9-0.5,1.4c-0.1,0.2-0.5,1.3-0.8,1.3c-0.6,0,0-1.1,0.1-1.3
					c0.2-0.4,0.6-0.7,0.9-0.9c0.2-0.1,0-0.5-0.2-0.4c-0.6,0.3-1,0.8-1.3,1.4c-0.2,0.4-0.4,1.2,0,1.5c1.1,0.7,2-2.2,2.2-2.9
					C40.9,53.1,40.5,53,40.4,53.2L40.4,53.2z"/>
			</g>
		</g>
	</g>
	<g>
		<g>
			<g>
				<path class="st0" d="M42.9,55.3c0.1,0.6,0.6,4.1-1.1,2.9c-0.7-0.5-0.4-1.5,0-2c0.4-0.5,1-0.8,1.5-1.1c0.2-0.1,0-0.5-0.2-0.4
					c-0.8,0.5-1.7,1-2.1,2c-0.3,0.8,0,1.7,0.8,2c0.6,0.3,1.3,0,1.6-0.6c0.4-0.9,0.1-2.1,0-3C43.2,54.9,42.8,55,42.9,55.3L42.9,55.3z
					"/>
			</g>
		</g>
	</g>
	<g>
		<g>
			<g>
				<path class="st0" d="M93.7,47.1c0.5,0.3,0.9,0.7,1.1,1.3c0.1,0.6-0.1,1.3-0.7,1.5c-1.5,0.3-0.7-1.8-0.7-2.5c0-0.3-0.4-0.3-0.4,0
					c0,0.8-0.5,1.6-0.1,2.4c0.3,0.6,1,0.7,1.6,0.5c0.7-0.3,1-1,0.9-1.7c-0.1-0.8-0.7-1.4-1.4-1.7C93.7,46.6,93.5,47,93.7,47.1
					L93.7,47.1z"/>
			</g>
		</g>
	</g>
	<g>
		<g>
			<g>
				<path class="st0" d="M92.9,50.9c0.2,0.1,0.4,0.2,0.5,0.5c0-0.1,0-0.1,0-0.2c-0.1,0.2-0.4,0.2-0.6,0c-0.2-0.2-0.3-0.5-0.4-0.7
					c-0.1-0.3-0.5-0.1-0.4,0.1c0.2,0.6,0.6,1.4,1.3,1.1c0.3-0.1,0.5-0.3,0.4-0.6c-0.1-0.3-0.4-0.6-0.8-0.7
					C92.8,50.4,92.7,50.8,92.9,50.9L92.9,50.9z"/>
			</g>
		</g>
	</g>
	<g>
		<g>
			<g>
				<path class="st0" d="M93.5,46.9c0.3-0.9,0.8-1.9,1.5-2.6c1.1-1.1,1.7,0.3,1.8,1.3c0,0.3,0.5,0.2,0.4-0.1c-0.1-0.9-0.6-2.2-1.7-2
					c-1.3,0.3-2.1,2.2-2.5,3.3C93,47.1,93.4,47.2,93.5,46.9L93.5,46.9z"/>
			</g>
		</g>
	</g>
	<g>
		<g>
			<g>
				<path class="st0" d="M47.8,26.3c1-0.1,1.6-1.1,1.1-2c-0.1-0.2-0.5,0-0.4,0.2c0.3,0.6-0.2,1.3-0.8,1.4
					C47.5,25.9,47.5,26.3,47.8,26.3L47.8,26.3z"/>
			</g>
		</g>
	</g>
	<g>
		<g>
			<g>
				<path class="st0" d="M46.9,24.9c0.7,0,1.1-1,0.6-1.5c-0.2-0.2-0.5,0.1-0.3,0.3c0.2,0.2,0.1,0.7-0.2,0.7
					C46.6,24.4,46.6,24.9,46.9,24.9L46.9,24.9z"/>
			</g>
		</g>
	</g>
	<g>
		<g>
			<g>
				<path class="st0" d="M85.8,22.7c0.2,0.5,0.5,0.9,0.9,1.1c0.2,0.1,0.5-0.2,0.2-0.4c-0.3-0.2-0.6-0.5-0.7-0.9
					C86.1,22.4,85.7,22.5,85.8,22.7L85.8,22.7z"/>
			</g>
		</g>
	</g>
	<g>
		<g>
			<g>
				<path class="st0" d="M87.2,21.9c-0.3,0.4-0.1,1.1,0.4,1.2c0.1,0,0.2,0,0.3-0.1c0-0.1,0-0.2-0.1-0.3c-0.2,0-0.3-0.3-0.2-0.5
					C87.6,22,87.3,21.7,87.2,21.9L87.2,21.9z"/>
			</g>
		</g>
	</g>
	<g>
		<g>
			<g>
				<path class="st0" d="M86.7,23.9c0.1,0,0.1,0.1,0.2,0.1c0.2,0.2,0.5-0.2,0.2-0.4c-0.1,0-0.1-0.1-0.2-0.1
					C86.7,23.4,86.5,23.8,86.7,23.9L86.7,23.9z"/>
			</g>
		</g>
	</g>
	<g>
		<g>
			<g>
				<path class="st0" d="M55.8,88.3c0-1.4-0.1-2.8-0.4-4.2c-0.2-0.8-0.5-1.8-1.4-2c-2-0.3-2.3,2.9-2,4.1c0.1,0.3,0.5,0.2,0.4-0.1
					c-0.2-0.7-0.2-1.4,0.1-2.1c0.3-1.1,1.1-1.2,2.4-0.3c0.1,0.3,0.1,0.6,0.2,0.8c0.3,1.3,0.3,2.6,0.3,3.9
					C55.4,88.6,55.8,88.6,55.8,88.3L55.8,88.3z"/>
			</g>
		</g>
	</g>
	<g>
		<g>
			<g>
				<path class="st0" d="M82.6,87.7c-0.1-0.6-0.1-1.2,0-1.8c0.1-0.7,0.1-1.8,0.8-2.3c1.4-0.9,2.5,0.9,3,1.9c0.1,0.2,0.5,0.1,0.4-0.2
					c0-0.1,0-0.2-0.1-0.3c-0.1-0.3-0.5-0.1-0.4,0.1c0,0.1,0,0.2,0.1,0.3c0.1-0.1,0.3-0.1,0.4-0.2c-0.7-1.2-1.8-2.8-3.4-2.2
					c-1.5,0.6-1.3,3.3-1.2,4.6C82.2,88,82.6,88,82.6,87.7L82.6,87.7z"/>
			</g>
		</g>
	</g>
	<g>
		<g>
			<g>
				<path class="st0" d="M53.1,84.8c-0.1-0.1-0.1-0.3,0.1-0.4c0.1-0.1,0.1-0.1,0.2-0.1c0,0,0-0.1,0,0c0,0.1,0,0.1,0.1,0.2
					c0,0.2,0.1,0.5-0.1,0.5C53.3,85,53.1,85,53.1,84.8c0-0.2-0.4-0.3-0.5,0c-0.1,0.4,0.3,0.7,0.7,0.7c0.5,0,0.7-0.6,0.6-1
					c0-0.2-0.1-0.5-0.3-0.6c-0.2-0.1-0.4,0-0.6,0.1c-0.3,0.2-0.5,0.7-0.3,1C52.9,85.2,53.3,85,53.1,84.8L53.1,84.8z"/>
			</g>
		</g>
	</g>
	<g>
		<g>
			<g>
				<path class="st0" d="M83.8,85c-0.1-0.2,0.1-0.5,0.3-0.5c0.2,0,0.3,0.1,0.4,0.3C84.5,85.3,83.9,85.3,83.8,85
					c-0.1-0.3-0.5-0.1-0.4,0.1c0.2,0.4,0.6,0.5,1,0.4c0.4-0.1,0.6-0.6,0.5-1c-0.1-0.4-0.5-0.7-0.9-0.6c-0.4,0.1-0.7,0.6-0.6,1
					C83.4,85.4,83.8,85.3,83.8,85L83.8,85z"/>
			</g>
		</g>
	</g>
	<g>
		<g>
			<g>
				<path class="st0" d="M54.1,93c-0.6-1.2,0-2.7,1.3-3.2c0.2-0.1,0.1-0.5-0.1-0.4c-1.5,0.6-2.3,2.4-1.6,3.8
					C53.9,93.5,54.2,93.2,54.1,93L54.1,93z"/>
			</g>
		</g>
	</g>
	<g>
		<g>
			<g>
				<path class="st0" d="M84.6,89.9c1.4,0.4,2.3,1.9,2,3.3c-0.1,0.3,0.3,0.4,0.4,0.1c0.4-1.7-0.6-3.4-2.3-3.8
					C84.5,89.4,84.4,89.8,84.6,89.9L84.6,89.9z"/>
			</g>
		</g>
	</g>
	<g>
		<g>
			<g>
				<path class="st0" d="M54.9,91.8C54.9,91.8,54.9,91.8,54.9,91.8C54.9,91.8,54.9,91.8,54.9,91.8c0,0,0.1,0,0.1,0
					c0.1,0,0.1,0.1,0.1,0.2c0,0.1-0.1,0.1-0.2,0.1c-0.1,0.1,0,0,0,0c0,0,0,0,0-0.1C54.9,92,54.9,91.9,54.9,91.8c0.3,0,0.2-0.4,0-0.3
					c-0.3,0.1-0.5,0.5-0.4,0.8c0.1,0.2,0.2,0.3,0.5,0.3c0.2,0,0.4-0.2,0.5-0.3c0.2-0.3,0.1-0.8-0.3-0.8c-0.3-0.1-0.7,0.1-0.7,0.5
					C54.5,92.1,54.9,92.1,54.9,91.8L54.9,91.8z"/>
			</g>
		</g>
	</g>
	<g>
		<g>
			<g>
				<path class="st0" d="M84.9,91.7c-0.2-0.1-0.1-0.5,0.1-0.3c0.4,0.1,0.1,0.6-0.1,0.6c-0.3,0.1-0.2,0.5,0.1,0.4
					c0.3-0.1,0.7-0.4,0.7-0.7c0-0.3-0.2-0.7-0.6-0.7s-0.6,0.1-0.7,0.4c-0.1,0.3,0,0.6,0.3,0.8C85,92.2,85.2,91.8,84.9,91.7
					L84.9,91.7z"/>
			</g>
		</g>
	</g>
	<g>
		<g>
			<g>
				<path class="st0" d="M49.8,98.3c3,0.9,5.6-1.7,7.8-3.3c0.2-0.2,0-0.6-0.2-0.4c-2.1,1.5-4.7,4.2-7.5,3.3
					C49.7,97.8,49.5,98.2,49.8,98.3L49.8,98.3z"/>
			</g>
		</g>
	</g>
	<g>
		<g>
			<g>
				<path class="st0" d="M81.7,94.7c-0.4,0.9,0.1,1.5,0.9,1.9c1.5,0.8,3.1,1.5,4.7,2.2c0.2,0.1,0.5-0.2,0.2-0.4
					c-0.9-0.4-1.8-0.9-2.8-1.3c-0.6-0.3-3.2-1.1-2.6-2.3C82.2,94.7,81.9,94.5,81.7,94.7L81.7,94.7z"/>
			</g>
		</g>
	</g>
	<g>
		<g>
			<g>
				<path class="st0" d="M46.9,55.4c0.3,0,0.3-0.4,0-0.4C46.6,55,46.6,55.4,46.9,55.4L46.9,55.4z"/>
			</g>
		</g>
	</g>
	<g>
		<g>
			<g>
				<path class="st0" d="M46.9,55.2c2.9,2.6,6.5,3.6,10.3,4c4.4,0.6,8.8,0.6,13.2,0.5c3.8-0.1,7.6-0.4,11.3-1.3
					c1.8-0.4,3.5-1,5.2-1.8c1-0.5,3-1.1,3.4-2.2c0-0.1,0-0.2-0.1-0.2c-0.1-0.1-0.1-0.1-0.2-0.2C90,54,89.9,54,89.8,54
					c-0.1,0-0.1,0.1-0.2,0.1c-0.2,0.1,0,0.5,0.2,0.4c-1.7,0.8-3.2,1.9-5,2.6c-1.5,0.6-3.1,1-4.7,1.3c-3.5,0.7-7.1,0.9-10.7,0.9
					c-3.8,0.1-7.5,0-11.2-0.4c-4-0.5-8-1.3-11.1-4C47,54.7,46.7,55,46.9,55.2L46.9,55.2z"/>
			</g>
		</g>
	</g>
	<g>
		<g>
			<g>
				<path class="st0" d="M46,75.9c8.1,1.5,16.5,2.1,24.8,1.6c4-0.2,7.9-0.8,11.9-1.5c2.6-0.5,7-0.7,8.6-3.3c0.1-0.1,0-0.3-0.1-0.3
					c-3.7-1.1-8-0.5-11.8-0.2c-4.4,0.3-8.8,0.7-13.2,1.1c-4.2,0.4-8.5,0.8-12.7,1.1c-1,0.1-7.7,0.1-7.6,1.4c0,0.1,0.1,0.2,0.2,0.2
					c0.1,0,0.1,0,0.2,0.1c0.3,0.1,0.4-0.3,0.1-0.4c0.3,0.1,1.8-0.3,2.2-0.4c0.7-0.1,1.3-0.1,2-0.2c1.6-0.1,3.1-0.3,4.7-0.4
					c2.8-0.2,5.6-0.5,8.4-0.7c5.9-0.5,11.7-1.1,17.6-1.5c1.4-0.1,2.7-0.2,4.1-0.2c1.3,0,3.5-0.4,4.7,0.2c0.4,0.2,0.9-0.1,0.6,0.7
					c-0.1,0.3-0.9,0.6-1.1,0.7c-0.5,0.2-1,0.4-1.6,0.6c-1.4,0.3-2.8,0.6-4.1,0.9c-5.7,1.1-11.5,1.7-17.4,1.8
					c-6.7,0.1-13.4-0.5-20-1.7C45.8,75.4,45.7,75.8,46,75.9L46,75.9z"/>
			</g>
		</g>
	</g>
	<g>
		<g>
			<g>
				<path class="st0" d="M61.6,62.5c-0.1,2.6-0.1,5.2-0.2,7.7c0,1.4-0.2,1.7,1.3,1.6c5.2-0.2,10.2-1.7,15.4-1c0.2,0,0.3-0.1,0.3-0.3
					c-0.5-2.4-1-4.7-1.5-7.1c-0.2-1.2,0-2.2-1.3-2.3c-2.3-0.2-4.7,0.1-7,0.2c-2.4,0.1-4.9,0.3-7.3,0.6c-0.3,0-0.3,0.5,0,0.4
					c4-0.4,8-0.6,12-0.8c1.3,0,2.4-0.3,3,1c0.4,0.8,0.4,2,0.6,2.9c0.2,1.1,0.5,2.2,0.7,3.2c0.2,0.8,0.5,1.4-0.3,1.5s-2-0.1-2.9-0.1
					c-1,0-2,0.1-2.9,0.2c-2,0.2-3.9,0.5-5.8,0.7c-0.9,0.1-2,0.3-2.9,0.3c-0.9-0.1-0.7-0.2-0.8-0.9c-0.1-0.5,0-1.2,0-1.7
					c0.1-2.1,0.1-4.2,0.2-6.4C62.1,62.2,61.7,62.2,61.6,62.5L61.6,62.5z"/>
			</g>
		</g>
	</g>
	<g>
		<g>
			<g>
				<path class="st0" d="M63.7,66.9c-0.1-0.3,0.1-0.8,0.5-0.8c0.3-0.1,0.6,0.2,0.6,0.5c0.1,0.7-0.9,0.9-1.2,0.3
					c-0.1-0.2-0.5-0.1-0.4,0.1c0.2,0.5,0.7,0.8,1.3,0.7c0.6-0.1,0.9-0.6,0.8-1.2c-0.1-0.5-0.6-1-1.1-0.8c-0.6,0.1-1,0.8-0.8,1.4
					C63.4,67.2,63.8,67.1,63.7,66.9L63.7,66.9z"/>
			</g>
		</g>
	</g>
	<g>
		<g>
			<g>
				<path class="st0" d="M60.4,62.1c0-0.3,0.5-0.3,0.5,0C61,62.4,60.6,62.4,60.4,62.1c-0.1-0.2-0.5,0-0.3,0.3
					c0.1,0.3,0.5,0.5,0.8,0.3c0.3-0.1,0.5-0.4,0.5-0.8c-0.1-0.3-0.3-0.6-0.7-0.6c-0.4,0-0.7,0.3-0.7,0.7
					C60,62.3,60.4,62.3,60.4,62.1L60.4,62.1z"/>
			</g>
		</g>
	</g>
	<g>
		<g>
			<g>
				<path class="st0" d="M60.2,71.7C60.2,71.8,60.2,71.8,60.2,71.7c0,0,0,0,0.1,0c0.1,0,0.2,0.2,0.2,0.3c0,0.1,0,0.2-0.1,0.2
					c0,0-0.1,0-0.1,0c0-0.3-0.4-0.4-0.4-0.1c-0.1,0.3,0.2,0.6,0.6,0.6c0.4,0,0.6-0.5,0.5-0.8s-0.5-0.7-0.9-0.5
					c-0.3,0.1-0.4,0.6-0.1,0.8C60.2,72.3,60.4,71.9,60.2,71.7L60.2,71.7z"/>
			</g>
		</g>
	</g>
	<g>
		<g>
			<g>
				<path class="st0" d="M77.4,61.1c0-0.2,0.5-0.3,0.5,0C77.9,61.4,77.5,61.4,77.4,61.1c-0.1-0.2-0.5-0.1-0.4,0.1
					c0.1,0.3,0.4,0.5,0.7,0.5c0.3,0,0.6-0.3,0.6-0.7c0-0.3-0.2-0.6-0.6-0.7c-0.3,0-0.7,0.2-0.7,0.5C76.9,61.2,77.4,61.4,77.4,61.1
					L77.4,61.1z"/>
			</g>
		</g>
	</g>
	<g>
		<g>
			<g>
				<path class="st0" d="M79.2,70.9c-0.1-0.3,0.3-0.5,0.4-0.1C79.7,71,79.2,71,79.2,70.9c0-0.3-0.4-0.3-0.4-0.1
					c0,0.3,0.3,0.6,0.7,0.6c0.4,0,0.6-0.4,0.5-0.8c-0.1-0.3-0.5-0.6-0.8-0.5c-0.4,0.1-0.6,0.6-0.4,1c0,0.1,0.2,0.1,0.3,0.1
					C79.2,71.1,79.2,71,79.2,70.9L79.2,70.9z"/>
			</g>
		</g>
	</g>
	<g>
		<g>
			<g>
				<path class="st0" d="M60.5,63.2c-0.1,2.7-0.2,5.4-0.3,8.1c0,0.3,0.4,0.3,0.4,0c0.1-2.7,0.2-5.4,0.3-8.1
					C60.9,62.9,60.5,62.9,60.5,63.2L60.5,63.2z"/>
			</g>
		</g>
	</g>
	<g>
		<g>
			<g>
				<path class="st0" d="M63.5,61.3c3.7-0.4,7.4-0.6,11.1-0.4c0.3,0,0.3-0.4,0-0.4c-3.7-0.1-7.4,0-11.1,0.4
					C63.3,60.8,63.3,61.3,63.5,61.3L63.5,61.3z"/>
			</g>
		</g>
	</g>
	<g>
		<g>
			<g>
				<path class="st0" d="M64,72.9c3.9-0.3,7.7-0.7,11.5-1.1c0.3,0,0.3-0.5,0-0.4c-3.8,0.5-7.7,0.9-11.5,1.1
					C63.7,72.5,63.7,72.9,64,72.9L64,72.9z"/>
			</g>
		</g>
	</g>
	<g>
		<g>
			<g>
				<path class="st0" d="M77.2,62.7c0.5,2.1,1,4.1,1.5,6.1c0.1,0.3,0.5,0.1,0.4-0.1c-0.5-2.1-1-4.1-1.5-6.1
					C77.6,62.3,77.2,62.4,77.2,62.7L77.2,62.7z"/>
			</g>
		</g>
	</g>
	<g>
		<g>
			<g>
				<path class="st0" d="M64.1,66.8c0.1-0.1,0.1-0.1,0.2-0.2c0,0,0,0.1-0.1,0.1c0.1-0.1,0.1-0.2,0.2-0.3c-0.1,0-0.2,0-0.3,0
					c0.1,0,0.1,0.2,0.1,0.2c0.1,0,0.1-0.1,0.2-0.1c-0.1,0-0.1,0-0.1-0.1c0-0.3-0.4-0.3-0.4,0c0,0.2,0.1,0.3,0.2,0.4
					c0.1,0.1,0.4,0.1,0.5,0c0.2-0.3,0.1-0.7-0.2-0.9c-0.1,0-0.2,0-0.3,0c-0.1,0.1-0.3,0.3-0.3,0.5c0,0.1,0.1,0.3,0.3,0.3
					c0.4,0,0.3-0.6,0-0.6C63.9,66.3,63.9,66.8,64.1,66.8L64.1,66.8z"/>
			</g>
		</g>
	</g>
	<g>
		<g>
			<g>
				<path class="st0" d="M49.3,59.6c-0.3,4-1.2,8.4-0.6,12.4c0.1,0.8,0.3,2.1,1.1,2.5c0.9,0.4,1.8-0.5,2.4-1c2.4-2.2,2.1-5,1.4-7.9
					c-0.5-2.3-1-6.5-4.1-6.5c-0.3,0-0.3,0.4,0,0.4c2.9,0,3.4,5,3.9,7.1c0.4,2.3,0.6,5.9-2.1,7.1c-0.3,0.5-0.7,0.4-1.1-0.1
					c-0.6-0.1-0.9-0.4-0.9-1C49,71.9,49.1,71,49,70.4c0-1.1,0-2.3,0.1-3.4c0.2-2.5,0.4-5,0.6-7.5C49.7,59.3,49.3,59.3,49.3,59.6
					L49.3,59.6z"/>
			</g>
		</g>
	</g>
	<g>
		<g>
			<g>
				<path class="st0" d="M52.7,60.1c0,1.4,0.5,2.7,1.4,3.8c0.1,0.1,0.3,0,0.3-0.1c0.5-1.6,0.1-3.2-1.1-4.3c-0.1-0.1-0.3-0.1-0.3,0
					c-0.2,0.3-0.2,0.6-0.1,0.9c0,0.3,0.5,0.2,0.4-0.1c0-0.2,0.1-0.4,0.1-0.6c-0.1,0-0.2,0-0.3,0c1,1,1.4,2.5,1,3.9
					c0.1,0,0.2-0.1,0.3-0.1c-0.8-1-1.3-2.2-1.2-3.5C53.2,59.9,52.7,59.9,52.7,60.1L52.7,60.1z"/>
			</g>
		</g>
	</g>
	<g>
		<g>
			<g>
				<path class="st0" d="M46.5,76.3c3.3,1.7,7,2.1,10.7,2.4c4.4,0.3,8.9,0.2,13.3,0c4.4-0.3,8.8-0.6,13.2-1.2c3-0.4,6.2-1.3,7.6-4.2
					c0.1-0.2-0.2-0.5-0.4-0.2c-1.8,3.8-6.5,3.9-10.1,4.3c-3.9,0.4-7.7,0.7-11.6,0.9c-3.8,0.2-7.5,0.2-11.3,0
					c-3.8-0.2-7.7-0.6-11.2-2.4C46.4,75.8,46.2,76.2,46.5,76.3L46.5,76.3z"/>
			</g>
		</g>
	</g>
	<g>
		<g>
			<g>
				<path class="st0" d="M46.9,54.4c6.4,3.8,13.9,4.4,21.1,3.9c7.3-0.5,15.2-1.2,22-4.2c0.2-0.1,0-0.5-0.2-0.4
					c-6.7,3-14.5,3.7-21.8,4.1c-7.2,0.5-14.6-0.1-20.9-3.9C46.9,53.9,46.7,54.3,46.9,54.4L46.9,54.4z"/>
			</g>
		</g>
	</g>
	<g>
		<g>
			<g>
				<path class="st0" d="M59.3,38.3c0.1,6.6,0.3,13.1,0.7,19.7c0,0.3,0.5,0.3,0.4,0c-0.3-6.5-0.6-13.1-0.7-19.7
					C59.8,38,59.3,38,59.3,38.3L59.3,38.3z"/>
			</g>
		</g>
	</g>
	<g>
		<g>
			<g>
				<path class="st0" d="M77.4,37.5c0.3,6.4,0.6,12.8,0.7,19.3c0,0.3,0.5,0.3,0.4,0c-0.1-6.4-0.3-12.9-0.7-19.3
					C77.8,37.3,77.4,37.3,77.4,37.5L77.4,37.5z"/>
			</g>
		</g>
	</g>
	<g>
		<g>
			<g>
				<path class="st0" d="M61.3,78.8c-0.3,3.9-0.7,9,2.2,12.1c0.1,0.1,0.3,0,0.3-0.1c0.1-0.1,0.1-0.3,0.2-0.4
					c0.1-0.2-0.3-0.4-0.4-0.1c-0.1,0.3-1.4-2.3-1.5-2.5c-0.3-1-0.5-2.1-0.6-3.1c-0.1-2-0.1-3.9,0.1-5.9
					C61.8,78.5,61.3,78.5,61.3,78.8L61.3,78.8z"/>
			</g>
		</g>
	</g>
	<g>
		<g>
			<g>
				<path class="st0" d="M75.4,90c1.1,0.5,2.3-2.3,2.5-3c1.1-2.8,1-5.9,0.8-8.8c0-0.3-0.5-0.3-0.4,0c0.1,2,0.2,4-0.1,6
					c-0.1,0.6-1.5,6-2.6,5.5C75.4,89.5,75.1,89.8,75.4,90L75.4,90z"/>
			</g>
		</g>
	</g>
	<g>
		<g>
			<g>
				<path class="st0" d="M58.2,56.6c0-0.3,0.6-0.4,0.6,0c0,0.1,0,0.1-0.1,0.2c0,0,0,0-0.1,0.1c0,0,0,0,0,0c0,0,0,0,0,0
					c-0.2-0.1-0.3-0.2-0.4-0.5c0-0.3-0.5-0.2-0.4,0.1c0.1,0.4,0.4,0.8,0.8,0.8c0.4,0.1,0.6-0.4,0.6-0.7c0-0.3-0.3-0.7-0.7-0.7
					c-0.3,0-0.7,0.2-0.8,0.6C57.7,56.7,58.1,56.8,58.2,56.6L58.2,56.6z"/>
			</g>
		</g>
	</g>
	<g>
		<g>
			<g>
				<path class="st0" d="M79.7,55.5c0-0.4,0.6-0.5,0.6,0c0,0.1-0.1,0.3-0.2,0.3C79.9,55.8,79.7,55.7,79.7,55.5c0-0.3-0.5-0.3-0.4,0
					c0,0.4,0.4,0.7,0.8,0.7c0.4,0,0.7-0.3,0.7-0.8c0-0.4-0.3-0.7-0.7-0.7c-0.4,0-0.8,0.3-0.8,0.8C79.2,55.8,79.7,55.8,79.7,55.5
					L79.7,55.5z"/>
			</g>
		</g>
	</g>
	<g>
		<g>
			<g>
				<path class="st0" d="M47.8,52c0.2-0.3,0.6-0.1,0.8,0.1c0.2,0.2,0.2,0.5,0.2,0.8c0,0.5,0,0.9,0.1,1.4c0.1,0.3,0.5,0.2,0.4-0.1
					c-0.2-0.8,0.2-1.8-0.5-2.5c-0.4-0.4-1.1-0.4-1.4,0.1C47.3,52,47.7,52.2,47.8,52L47.8,52z"/>
			</g>
		</g>
	</g>
	<g>
		<g>
			<g>
				<path class="st0" d="M88.1,54.3c0-0.3-0.1-0.8,0.1-1.1c0.1-0.2,0.5-0.4,0.8-0.2c0.2,0.2,0.5-0.1,0.3-0.3c-0.3-0.3-0.9-0.3-1.2,0
					c-0.5,0.4-0.5,1-0.4,1.6C87.7,54.6,88.1,54.6,88.1,54.3L88.1,54.3z"/>
			</g>
		</g>
	</g>
	<g>
		<g>
			<g>
				<path class="st0" d="M48.3,50.7c-0.3-6.1-1.2-12.5,0.2-18.5c0.1-0.3-0.3-0.4-0.4-0.1c-1.4,6.1-0.6,12.5-0.2,18.6
					C47.9,51,48.3,51,48.3,50.7L48.3,50.7z"/>
			</g>
		</g>
	</g>
	<g>
		<g>
			<g>
				<path class="st0" d="M86.2,27.7c2.1,3.4,2,7.5,2.2,11.3c0.2,4.1,0.3,8.3,0.5,12.4c0,0.3,0.5,0.3,0.4,0
					c-0.2-4.6-0.4-9.2-0.6-13.8c-0.1-3.5-0.3-7.1-2.2-10.2C86.4,27.2,86,27.4,86.2,27.7L86.2,27.7z"/>
			</g>
		</g>
	</g>
	<g>
		<g>
			<g>
				<path class="st0" d="M40.9,21.3c-1.8-0.1-3-2.1-1.9-3.7c1.1-1.6,3.4-1.1,4.1,0.6c0.1,0.2,0.5,0.1,0.4-0.1
					c-0.8-2-3.5-2.6-4.8-0.8c-1.4,1.8,0,4.2,2.2,4.4C41.2,21.8,41.2,21.3,40.9,21.3L40.9,21.3z"/>
			</g>
		</g>
	</g>
	<g>
		<g>
			<g>
				<path class="st0" d="M90.6,17.6c0.4-0.2,0.8-0.5,1.1-0.7c1.1-0.7,2-0.1,2.5,1c0.6,1.4,0,3.1-1.5,3.6c-0.3,0.1-0.1,0.5,0.1,0.4
					c1.7-0.6,2.5-2.5,1.8-4.1c-0.3-0.7-1-1.5-1.8-1.6c-0.9-0.1-1.7,0.8-2.5,1.2C90.1,17.4,90.4,17.8,90.6,17.6L90.6,17.6z"/>
			</g>
		</g>
	</g>
	<g>
		<g>
			<g>
				<path class="st0" d="M40,38.4c0.7,0.7,1.7,0.8,2.7,0.8c0.3,0,0.3-0.5,0-0.4c-0.8,0-1.7,0-2.4-0.6C40.1,37.9,39.8,38.2,40,38.4
					L40,38.4z"/>
			</g>
		</g>
	</g>
	<g>
		<g>
			<g>
				<path class="st0" d="M42.4,35.5c0.8,0.5,1.3,1.5,1,2.5c-0.1,0.3,0.3,0.4,0.4,0.1c0.3-1.1-0.2-2.4-1.2-3
					C42.4,34.9,42.2,35.3,42.4,35.5L42.4,35.5z"/>
			</g>
		</g>
	</g>
	<g>
		<g>
			<g>
				<path class="st0" d="M97.4,45.8c0.7-0.6,1.7-0.5,2.3,0.1c0.2,0.2,0.5-0.1,0.3-0.3c-0.8-0.8-2.1-0.8-3-0.1
					C96.9,45.6,97.2,45.9,97.4,45.8L97.4,45.8z"/>
			</g>
		</g>
	</g>
	<g>
		<g>
			<g>
				<path class="st0" d="M96.8,45.8c-0.5,0.8-0.7,1.9-0.3,2.8c0.3,0.7,0.9,1.2,1.7,1c0.3-0.1,0.1-0.5-0.1-0.4
					c-0.8,0.2-1.2-0.7-1.3-1.3c-0.1-0.7,0.1-1.3,0.4-1.8C97.3,45.8,96.9,45.6,96.8,45.8L96.8,45.8z"/>
			</g>
		</g>
	</g>
	<g>
		<g>
			<g>
				<path class="st0" d="M59.9,21.7c2,0.3,3.7,1.4,4.7,3.2c0.1,0.2,0.5,0,0.4-0.2c-1.1-1.9-3-3.1-5.1-3.4
					C59.6,21.2,59.6,21.6,59.9,21.7L59.9,21.7z"/>
			</g>
		</g>
	</g>
	<g>
		<g>
			<g>
				<path class="st0" d="M80.8,22.5c1.7,1.3,2.7,3.1,2.9,5.2c0,0.3,0.5,0.3,0.4,0c-0.2-2.3-1.3-4.2-3.1-5.6
					C80.8,22,80.6,22.4,80.8,22.5L80.8,22.5z"/>
			</g>
		</g>
	</g>
	<g>
		<g>
			<g>
				<path class="st0" d="M81.3,35.2c1.3-1.6,2.4-3.4,3.2-5.3c0.1-0.2-0.3-0.4-0.4-0.1c-0.8,1.8-1.8,3.6-3.1,5.1
					C80.8,35.1,81.2,35.5,81.3,35.2L81.3,35.2z"/>
			</g>
		</g>
	</g>
	<g>
		<g>
			<g>
				<path class="st0" d="M63.7,36c0.8-0.6,1.4-1.4,1.7-2.4c0.1-0.3-0.3-0.4-0.4-0.1c-0.2,0.9-0.7,1.6-1.5,2.1
					C63.3,35.8,63.5,36.2,63.7,36L63.7,36z"/>
			</g>
		</g>
	</g>
	<g>
		<g>
			<g>
				<path class="st0" d="M78.9,24.3c0.1,1,0.5,2.3,1.4,3c0.9,0.7,1.3-0.5,1.2-1.1c-0.1-0.9-0.6-2.2-1.5-2.6
					c-0.3-0.1-0.6-0.1-0.8,0.1c-0.4,0.4-0.2,0.9,0,1.3c0.1,0.2,0.5,0,0.4-0.2c0-0.8,0.1-1,0.4-0.6c0,0.1,0.1,0.1,0.1,0.2
					c0.2,0.2,0.3,0.4,0.5,0.7c0.2,0.5,0.4,1,0.4,1.6c0,0.5-0.5,0.5-0.8,0.2c-0.2-0.2-0.3-0.5-0.5-0.7c-0.3-0.5-0.4-1.1-0.5-1.6
					C79.3,24,78.9,24,78.9,24.3L78.9,24.3z"/>
			</g>
		</g>
	</g>
	<g>
		<g>
			<g>
				<path class="st0" d="M62,24.9c0.1,0.6,0.4,1.3,1,1.6c0.5,0.3,1.1-0.1,1-0.7c-0.1-0.5-0.6-1.3-1.1-1.5c-0.5-0.1-1,0.3-0.9,0.8
					c0,0.3,0.5,0.2,0.4-0.1c0-0.3,0.3-0.3,0.5-0.2s0.2,0.2,0.3,0.3c0.1,0.2,0.4,0.5,0.4,0.8c0,0.6-0.6,0.1-0.7-0.1
					c-0.2-0.2-0.3-0.6-0.4-0.9C62.4,24.6,62,24.6,62,24.9L62,24.9z"/>
			</g>
		</g>
	</g>
	<g>
		<g>
			<g>
				<path class="st0" d="M36.9,39.1c1.4-0.4,2.6-1.4,3.3-2.7c0.1-0.2-0.2-0.5-0.4-0.2c-0.7,1.2-1.7,2.1-3,2.5
					C36.6,38.8,36.7,39.2,36.9,39.1L36.9,39.1z"/>
			</g>
		</g>
	</g>
	<g>
		<g>
			<g>
				<path class="st0" d="M42.3,32.6c0,0.6-0.2,1-0.6,1.4c-0.2,0.2,0.1,0.5,0.3,0.3c0.5-0.5,0.7-1.1,0.8-1.7
					C42.7,32.3,42.3,32.3,42.3,32.6L42.3,32.6z"/>
			</g>
		</g>
	</g>
	<g>
		<g>
			<g>
				<path class="st0" d="M99,51.5c0.1-1-0.1-2.3,0.5-3.3c0.1-0.2-0.2-0.5-0.4-0.2c-0.6,1-0.5,2.4-0.6,3.5C98.5,51.8,99,51.8,99,51.5
					L99,51.5z"/>
			</g>
		</g>
	</g>
	<g>
		<g>
			<g>
				<path class="st0" d="M101.3,44.8c-0.6,0.3-1,0.8-1.2,1.5c-0.1,0.3,0.3,0.4,0.4,0.1c0.1-0.6,0.5-1,1-1.2
					C101.8,45,101.6,44.7,101.3,44.8L101.3,44.8z"/>
			</g>
		</g>
	</g>
	<g>
		<g>
			<g>
				<path class="st0" d="M63.8,89.9c3.8,0.1,7.6-0.3,11.3-1.2c0.3-0.1,0.2-0.5-0.1-0.4c-3.7,0.9-7.4,1.3-11.2,1.1
					C63.5,89.5,63.5,89.9,63.8,89.9L63.8,89.9z"/>
			</g>
		</g>
	</g>
	<g>
		<g>
			<g>
				<path class="st0" d="M66.2,44.6c-0.5,0.2-0.7,0.7-0.6,1.2c0.1,0.3,0.7,0.9,1,0.6c0.2-0.1,0.4-0.5,0.5-0.7c0.1-0.2,0.1-0.5,0-0.7
					C67.1,44.6,66.6,44.3,66.2,44.6c-0.2,0.2,0,0.6,0.2,0.4c0.2-0.2,0.5,0.1,0.5,0.3c0,0.3-0.2,0.6-0.5,0.8c0.1,0,0.1,0,0.2-0.1
					C66,46,65.9,45.2,66.4,45C66.7,44.9,66.5,44.5,66.2,44.6L66.2,44.6z"/>
			</g>
		</g>
	</g>
	<g>
		<g>
			<g>
				<path class="st0" d="M69.9,45.2c-0.6-0.1-0.9,0.7-0.5,1.1c0.1,0,0.1,0,0.2,0c0.2-0.1,0.3-0.2,0.6-0.3c0.1,0,0.1-0.2,0.1-0.2
					c-0.1-0.2-0.2-0.5-0.5-0.7c-0.2-0.2-0.5,0.1-0.3,0.3c0.1,0.1,0.3,0.3,0.3,0.5c0-0.1,0.1-0.2,0.1-0.2c-0.2,0.1-0.3,0.2-0.6,0.3
					c0.1,0,0.1,0,0.2,0c-0.1-0.1,0-0.3,0.1-0.3C70,45.7,70.2,45.2,69.9,45.2L69.9,45.2z"/>
			</g>
		</g>
	</g>
	<g>
		<g>
			<path class="st0" d="M91.3,71.7c0,0.1-0.1,0.2-0.1,0.2c0,0,0,0.1,0,0.1C97.8,77.9,102,86.5,102,96c0,17.6-14.3,31.9-31.9,31.9
				S38.2,113.6,38.2,96c0-8.1,3.1-15.6,8.1-21.2c0,0,0,0,0,0c0-0.2,0-0.3,0-0.5C41.1,80,37.9,87.6,37.9,96
				c0,17.8,14.5,32.2,32.2,32.2s32.2-14.5,32.2-32.2C102.4,86.3,98.1,77.6,91.3,71.7z"/>
		</g>
	</g>
	<g>
		<g>
			<g>
				<path class="st0" d="M47.3,118.9c2.1-0.8,2.6-3.1,2.9-5.1c0.2-1.7,0.2-3.5,1.2-4.9c1.7-2.5,4.5-0.7,5.2,1.5
					c0.7,2.1-0.7,5.3,1.1,6.9c0.8,0.8,1.9,0.7,3,0.5c1.4-0.2,2.8-0.7,4,0.5c1.4,1.3,0.9,3.4-0.6,4.4c-0.1,0.1-0.1,0.2-0.1,0.3
					c1.1,2.6,4,0,5.1-1c2.1-1.9,4.4-0.3,6.8,0c1.2,0.1,2.5,0.1,3.6-0.5c0.5-0.3,0.8-0.6,1.1-1c1-1.3,1.7-1.9,3.3-2.5
					c1.2-0.5,2.5-0.7,3.8-0.9c0.9-0.1,2,0.1,2.9-0.1c1-0.2,1.4-0.8,1.8-1.6c0.6-1.3,0.9-2.3,2.3-3c1-0.5,2.1-0.6,3.2-0.8
					c0.3,0,0.3-0.5,0-0.4c-2.1,0.3-4.4,0.7-5.4,2.8c-0.3,0.5-0.3,1.2-0.7,1.7c-0.9,1.3-2.3,0.9-3.5,1c-1.6,0.1-3.2,0.4-4.8,1
					c-1.1,0.5-2,1-2.8,1.9c-0.6,0.7-1.1,1.5-2.1,1.8c-0.9,0.3-1.8,0.3-2.7,0.2c-2.5-0.3-4.8-2-7-0.1c-0.6,0.5-1,1.1-1.6,1.5
					c-0.2,0.1-3.1,1.5-2.7-0.2c0.1-0.2,0.7-0.7,0.8-0.9c0.2-0.4,0.3-0.8,0.4-1.2c0.3-2-1.4-3.5-3.2-3.6c-1.7,0-4,1.3-5.1-0.6
					c-0.7-1.3-0.2-3.1-0.2-4.6c-0.1-1.7-1-3.7-2.6-4.5c-1.9-0.8-3.5,0.5-4.2,2.2c-1.1,2.7,0.1,7.5-3.3,8.8
					C46.9,118.5,47,119,47.3,118.9L47.3,118.9z"/>
			</g>
		</g>
	</g>
	<g>
		<g>
			<g>
				<path class="st0" d="M99.8,106.6c-4.4,4.5-11.2,1.6-16.6,2.6c-1.6,0.3-3.2,1-4.9,1.1c-1.7,0.1-3.4-0.5-4.9-1.4
					c-2.3-1.3-5.9-3.8-5.4-6.9c0.8-4.3,6.3-1.3,8.7-0.3c2.4,0.9,4.9,1.5,7.5,1.2c2.5-0.3,5.5-1,7.6-2.2c1.4-0.8,2-2.1,1.8-3.7
					c-0.1-1.1-0.6-2.2-1.2-3.1c-0.4-0.6-1.3-1.5-1.3-2.3c0-0.6,0.6-2,1-2.3c0.3-0.2,0.6-0.2,0.9-0.3c1-0.3,1.9-0.5,2.7-1.1
					c1.3-1.1,2.2-3.7,4.2-2.8c0.2,0.1,0.4-0.3,0.1-0.4c-2.6-1-3.9,2.9-6,3.6c-1.6,0.6-3.8,0.8-3.6,3c0.1,1.3,1.1,2.3,1.7,3.3
					c1,1.9,1.6,4.5-0.7,5.8c-1.5,0.8-3.4,1.3-5,1.7c-2.2,0.6-4.4,0.8-6.7,0.3c-2.9-0.6-12.5-6.3-12.4,0.4c0,2.4,2.2,4.2,4,5.6
					c2.2,1.6,4.7,2.8,7.5,2.4c2.2-0.3,4.3-1.2,6.6-1.3c2.1-0.1,4.2,0.2,6.4,0.2c3,0,6-0.6,8.2-2.8C100.4,106.7,100,106.4,99.8,106.6
					L99.8,106.6z"/>
			</g>
		</g>
	</g>
	<g>
		<g>
			<g>
				<path class="st0" d="M100.7,88.2c-1.4,0.6-2,1.7-2.2,3.1c-0.4,2.8,1.1,5.3-1,7.8c-1.7,2-4.1,3.6-6.6,4.6c-2.3,1-4.9,1.1-6.9,2.5
					c-0.1,0.1-0.1,0.2,0,0.3c2.2,2.5,7.3,0.3,9.7-0.6c1.7-0.7,3.7-1.4,5.2-2.6c0.4-0.3,0.7-0.6,0.9-1c0.5-1.4-1.1-4,2-3.6
					c0.3,0,0.4-0.4,0.1-0.4c-1-0.1-2,0.2-2.4,1.2c-0.2,0.5-0.1,0.8-0.1,1.3c-0.1,2-0.2,2-1.5,2.8c-0.5,0.3-1.1,0.6-1.6,0.9
					c-2.2,1.1-4.6,1.9-7,2.4c-0.9,0.2-3.5,0.9-4.2,0c-0.7-0.9,2.1-1.4,2.7-1.6c3.8-1,7.4-2.8,10.1-5.7c1.1-1.1,1.6-2.4,1.5-4
					c0-2.3-1.2-5.9,1.6-7C101.1,88.5,101,88.1,100.7,88.2L100.7,88.2z"/>
			</g>
		</g>
	</g>
	<g>
		<g>
			<g>
				<path class="st0" d="M38.2,96.7c0.9,4.1,6.2,3.9,9.4,4.3c2,0.2,4.1,0.6,6-0.4c1.6-0.8,3.6-3.3,5.6-3c1.1,1.5,1.1,2.5,0.1,2.9
					c-0.2,0.1-0.5,0.2-0.7,0.3c-0.8,0.3-1.5,0.7-2.3,1c-1.2,0.5-2.4,0.9-3.6,1.3c-1.5,0.5-3,0.8-4.6,0.8c-1.1,0-2.3-0.1-3.5,0
					c-0.9,0.1-2.6,0.4-2.8,1.5c-0.1,0.4,0,0.7,0.3,1c0.2,0.3,0.6,0.4,0.9,0.7c0.8,0.3,0.7,1-0.3,2.2c-0.5,0-1-0.1-1.6-0.3
					c-0.3-0.1-0.4,0.3-0.1,0.4c1.1,0.3,3.5,0.7,3.5-1.2c0-0.6-0.3-0.9-0.7-1.2c-0.2-0.1-0.5-0.3-0.8-0.4c0-0.6-0.1-1.1-0.1-1.7
					c0.4-0.6,2.1-0.5,2.8-0.5c2.7,0,5.2-0.1,7.7-1c1.4-0.5,2.8-1,4.1-1.6c0.9-0.4,2-0.7,2.8-1.4c0.9-0.9,1-2.4-0.3-3
					c-1.6-0.7-3.4,0.6-4.7,1.5c-1,0.7-1.9,1.5-3.1,1.8c-1.5,0.5-3.2,0.1-4.7-0.1c-3.1-0.3-8.1-0.2-9-4
					C38.6,96.4,38.2,96.5,38.2,96.7L38.2,96.7z"/>
			</g>
		</g>
	</g>
	<g>
		<g>
			<g>
				<path class="st0" d="M38.5,89.3c0.3,3.8,8.3,1.4,6.3-1.3c-0.3-0.4-0.9-0.6-1.3-0.9c-0.2-0.1-1-0.6-1.1-0.9c-0.1-0.6,1-0.9,1.3-1
					c0.6-0.2,1.1-0.2,1.4-1c0.2-0.7,0-1.4-0.3-2c-0.3-0.5-0.8-0.8-1-1.3c-0.5-0.9-0.1-1.8,0.1-2.8c0-0.3-0.4-0.4-0.4-0.1
					c-0.2,1.5-1,1.8,0,3.2c0.2,0.2,0.5,0.5,0.6,0.7c0.7,0.6,0.7,1.1-0.1,1.8c0,0.8-0.3,1.1-0.8,1c-0.4,0.2-0.8,0-1.2,0.4
					c-0.5,0.7,0.1,1.2,0.6,1.6c0.9,0.8,2.9,1.9,1.3,3.2c-1,0.9-4.7,1.4-4.9-0.8C38.9,89,38.5,89,38.5,89.3L38.5,89.3z"/>
			</g>
		</g>
	</g>
	<g>
		<g>
			<g>
				<path class="st0" d="M39.2,103.8c1.2,0.2,2.3-0.1,3.3-0.8c0.1-0.1,0.1-0.2,0-0.3c-0.5-0.6-1.1-1-1.8-1.3
					c-0.3-0.1-0.6-0.2-0.9-0.3c-0.1,0-0.3-0.1-0.4-0.1c-0.1,0-0.1,0-0.2,0c-0.2-0.1-0.3,0-0.4,0.2c-0.1-0.1-0.1-0.1-0.2-0.2
					c0,0,0,0,0,0.1c0,0.3,0.4,0.3,0.4,0c0,0,0,0,0-0.1c0-0.1-0.1-0.2-0.2-0.2c-0.5-0.1-0.6,0.4-0.2,0.6c0.2,0.1,0.5,0.1,0.7,0.1
					c0.3,0.1,0.7,0.1,1,0.3c0.7,0.3,1.3,0.7,1.8,1.3c0-0.1,0-0.2,0-0.3c-0.8,0.7-1.8,0.9-2.9,0.7C39,103.3,38.9,103.7,39.2,103.8
					L39.2,103.8z"/>
			</g>
		</g>
	</g>
	<g>
		<g>
			<g>
				<path class="st0" d="M51.9,121.5c0.3-0.9,1.6-1.9,2.4-0.5c0.1,0.2,0.1,0.4,0.2,0.6c0.2,0.3,0.3,0.6,0.7,0.7
					c0.3,0.2,0.6,0.2,0.9,0.3c0.2,0,0.5,0,0.7,0.1c0.5,0,0.8,0.1,1.2,0.4c1,0.4,1,1.2,0,2.5c-0.3,0.1-0.1,0.5,0.1,0.4
					c0.9-0.2,1.4-1.1,1.2-2c-0.3-1.2-1.5-1.6-2.5-1.7c-0.9-0.1-1.5,0-2.1-1.2c-0.1-0.2-0.1-0.5-0.2-0.8c-0.2-0.4-0.4-0.7-0.9-0.8
					c-1.2-0.3-1.8,1-2.2,1.9C51.4,121.6,51.8,121.8,51.9,121.5L51.9,121.5z"/>
			</g>
		</g>
	</g>
	<g>
		<g>
			<g>
				<path class="st0" d="M68.7,128.4c0.3,0,0.3-0.4,0-0.4C68.5,128,68.5,128.4,68.7,128.4L68.7,128.4z"/>
			</g>
		</g>
	</g>
	<g>
		<g>
			<g>
				<path class="st0" d="M69.4,128.3c0.1-0.2,0.1-0.3,0.2-0.5c0.2-1.2,0.8-1.6,1.8-1.4c2,0,0.5,0.1,1.4,0.3c0.5,0.1,0.5,0.3,1,0.3
					c1.5,0,2.9-1.6,4.2-2c1.5-0.5,2.9-0.7,4.3-1.6c1.2-0.8,5.2-4,6-1.3c0.1,0.3,0.5,0.1,0.4-0.1c-0.4-1.2-1.7-1.5-2.8-1.2
					c-1.1,0.3-2,1-2.9,1.6c-1.4,0.9-2.6,1.6-4.2,2c-1.1,0.3-2.1,0.6-3.1,1.3c-1.1,0.8-1.5,1.1-3,0.4c-0.6-0.3-0.1-0.3-0.8-0.5
					c-1.7-0.5-2.5,1.4-2.9,2.6C68.9,128.4,69.3,128.5,69.4,128.3L69.4,128.3z"/>
			</g>
		</g>
	</g>
	<g>
		<g>
			<g>
				<path class="st0" d="M46.1,96.3c-0.3,0.4-1.5,0.4-1.3,1.2c0.1,0.6,1.2,0.8,1.7,0.6c0.5-0.1,1-0.7,0.8-1.3
					c-0.2-0.5-0.9-0.7-1.3-0.3c-0.2,0.2,0.1,0.5,0.3,0.3c0.3-0.3,0.7,0.2,0.5,0.5c-0.2,0.4-0.8,0.3-1.1,0.2
					c-0.2-0.1-0.6-0.1-0.3-0.5c0.1-0.1,0.3-0.2,0.5-0.2c0.2-0.1,0.5-0.2,0.6-0.4C46.5,96.4,46.2,96.1,46.1,96.3L46.1,96.3z"/>
			</g>
		</g>
	</g>
	<g>
		<g>
			<g>
				<path class="st0" d="M47.2,99.2c0.9,0.1,1.8,0,2.7-0.2c0.3-0.1,0.2-0.5-0.1-0.4c-0.9,0.2-1.7,0.2-2.6,0.2
					C47,98.7,47,99.1,47.2,99.2L47.2,99.2z"/>
			</g>
		</g>
	</g>
	<g>
		<g>
			<g>
				<path class="st0" d="M51.8,99c-0.7-0.2-1.4,0-1.8,0.4c-0.1,0.1-0.1,0.3,0,0.3c0.8,0.4,1.7,0.4,2.4-0.1c0.2-0.1,0.1-0.3,0-0.4
					c-0.3-0.1-0.6-0.2-0.9-0.3c-0.2-0.1-0.4,0.3-0.1,0.4c0.3,0.1,0.6,0.2,0.9,0.3c0-0.1,0-0.3,0-0.4c-0.6,0.4-1.3,0.4-2,0.1
					c0,0.1,0,0.2,0,0.3c0.4-0.4,0.9-0.5,1.4-0.3C51.9,99.5,52,99,51.8,99L51.8,99z"/>
			</g>
		</g>
	</g>
	<g>
		<g>
			<g>
				<path class="st0" d="M54,98.1c-0.3-0.1-0.8,0-1,0.3c-0.1,0.1,0,0.2,0,0.3c0.3,0.3,0.8,0.3,1.1,0c0.2-0.2-0.1-0.5-0.3-0.3
					c-0.1,0.1-0.3,0.1-0.5,0c0,0.1,0,0.2,0,0.3c0.1-0.2,0.3-0.2,0.5-0.1C54.2,98.7,54.3,98.2,54,98.1L54,98.1z"/>
			</g>
		</g>
	</g>
	<g>
		<g>
			<g>
				<path class="st0" d="M57.3,96c2.3-0.5,4.6-0.6,6.9-0.3c0.3,0,0.3-0.4,0-0.4c-2.4-0.2-4.7-0.1-7,0.3C56.9,95.7,57,96.1,57.3,96
					L57.3,96z"/>
			</g>
		</g>
	</g>
	<g>
		<g>
			<g>
				<path class="st0" d="M75.2,96.9c2.2-0.3,4.3-0.4,6.4-0.1c0.3,0,0.4-0.4,0.1-0.4c-2.2-0.3-4.5-0.3-6.7,0.1
					C74.8,96.6,74.9,97,75.2,96.9L75.2,96.9z"/>
			</g>
		</g>
	</g>
	<g>
		<g>
			<g>
				<path class="st0" d="M80.4,97.9c-0.3,0.1-0.5,0.2-0.7,0.4c-0.1,0.1-0.1,0.3,0.1,0.3c0.7,0.2,1.4,0.2,2.1,0
					c0.2-0.1,0.2-0.2,0.1-0.3c-0.3-0.3-0.8-0.4-1.2-0.2c-0.2,0.1,0,0.5,0.2,0.4c0.2-0.1,0.5-0.1,0.7,0.1c0-0.1,0.1-0.2,0.1-0.3
					c-0.6,0.2-1.3,0.2-1.9,0c0,0.1,0.1,0.2,0.1,0.3c0.1-0.2,0.3-0.2,0.5-0.3C80.7,98.3,80.6,97.9,80.4,97.9L80.4,97.9z"/>
			</g>
		</g>
	</g>
	<g>
		<g>
			<g>
				<path class="st0" d="M85,98.7c-0.5-0.1-1,0-1.4,0.3c-0.1,0.1-0.1,0.3,0,0.4c0.3,0.2,0.6,0.1,0.9-0.1c0.2-0.2-0.1-0.5-0.3-0.3
					c-0.1,0.1-0.2,0.1-0.3,0c0,0.1,0,0.2,0,0.4c0.3-0.2,0.7-0.3,1-0.2C85.1,99.2,85.3,98.8,85,98.7L85,98.7z"/>
			</g>
		</g>
	</g>
	<g>
		<g>
			<g>
				<path class="st0" d="M86.8,100.2c0.2-0.1,0.3-0.1,0.5-0.2s0.2-0.3,0-0.4c-0.7-0.2-1.8-0.2-1.9,0.7c-0.1,0.8,0.8,0.9,1.4,0.9
					c0.5-0.1,1.4-0.3,1.4-1c-0.1-0.5-0.7-1-1.1-0.5c-0.2,0.2,0.1,0.5,0.3,0.3c0.1-0.2,0.3,0.1,0.3,0.2c0,0.2-0.2,0.3-0.3,0.4
					c-0.2,0.1-0.6,0.2-0.8,0.2c-0.3,0-1.1-0.1-0.6-0.6c0.3-0.3,0.9-0.2,1.2-0.1c0-0.1,0-0.3,0-0.4c-0.2,0.1-0.3,0.1-0.5,0.2
					C86.5,99.9,86.6,100.3,86.8,100.2L86.8,100.2z"/>
			</g>
		</g>
	</g>
	<g>
		<g>
			<g>
				<path class="st0" d="M59.7,115.1c0.4,0.2,0.6-0.5,0.2-0.7c-0.5-0.1-1,0.5-1.3,0.8c-0.1,0.1,0,0.2,0.1,0.3c0.6,0.4,1.4,0.4,2,0
					c0.1,0,0.1-0.1,0.1-0.2c-0.2-0.5-0.6-0.7-1.1-0.6C59.4,114.8,59.5,115.2,59.7,115.1c0.3,0,0.5,0.1,0.6,0.3
					c0-0.1,0.1-0.2,0.1-0.2c-0.5,0.3-1,0.3-1.5,0c0,0.1,0,0.2,0.1,0.3c0.1-0.1,0.2-0.3,0.3-0.4c0.1,0,0.1-0.1,0.2-0.1
					c0,0,0.5-0.2,0.3-0.3C59.6,114.5,59.5,115,59.7,115.1L59.7,115.1z"/>
			</g>
		</g>
	</g>
	<g>
		<g>
			<g>
				<path class="st0" d="M62.3,115.9c0.2-0.5-0.3-0.8-0.7-0.5c-0.1,0.1-0.3,0.4-0.3,0.6c0,0.2,0.2,0.3,0.4,0.4
					c0.3,0.2,0.8,0.1,1.1-0.2c0.1-0.2,0.2-0.3,0-0.5c-0.1-0.2-0.4-0.2-0.6-0.2C61.9,115.7,62,116.1,62.3,115.9c0.1,0,0.1,0,0.2,0.1
					c0-0.1,0-0.1,0-0.2c-0.2,0.3-0.6,0.3-0.8,0c0,0.1,0,0.1,0,0.2c0-0.1,0.1-0.1,0.1-0.2c0-0.1,0.1-0.1,0.1-0.1
					C61.8,116,62.1,116.2,62.3,115.9L62.3,115.9z"/>
			</g>
		</g>
	</g>
	<g>
		<g>
			<g>
				<path class="st0" d="M61.1,111.7c-0.7,0-2.2,0.3-1.8,1.4c0.3,0.9,2.1,1.3,2.9,1.5c0.7,0.1,1.8,0.3,1.8-0.7
					c0-0.4-0.3-0.7-0.7-0.9c-0.7-0.5-1.5-0.8-2.2-1.2c-0.2-0.1-0.5,0.2-0.2,0.4c0.5,0.3,1.1,0.6,1.6,0.9c0.2,0.1,0.7,0.3,0.8,0.5
					c0.6,1-0.6,0.7-0.9,0.7c-0.6-0.1-1.2-0.3-1.8-0.6c-0.2-0.1-0.4-0.2-0.6-0.3c-0.4-0.2-0.3-0.6,0.2-1.1c0.3-0.1,0.5-0.1,0.8-0.1
					C61.4,112.1,61.4,111.6,61.1,111.7L61.1,111.7z"/>
			</g>
		</g>
	</g>
	<g>
		<g>
			<g>
				<path class="st0" d="M76,118.4c-0.6-0.1-1.1,0.2-1.4,0.7c0,0.1,0,0.2,0,0.3c0.4,0.5,1.1,0.4,1.5,0.1c0.2-0.1,0.4-0.5,0.3-0.7
					c-0.1-0.3-0.5-0.4-0.8-0.3c-0.3,0.1-0.1,0.5,0.1,0.4c0.2-0.1,0.3,0,0.2,0.2c-0.1,0.1-0.2,0.2-0.3,0.2c-0.2,0.1-0.5,0-0.7-0.2
					c0,0.1,0,0.2,0,0.3c0.2-0.3,0.5-0.6,0.9-0.5C76.1,118.9,76.3,118.4,76,118.4L76,118.4z"/>
			</g>
		</g>
	</g>
	<g>
		<g>
			<g>
				<path class="st0" d="M92.7,77c-0.4-0.5-1.2-0.2-1.5,0.3c-0.3,0.7,0.3,1.3,0.9,1.3c0.7,0.1,1.6-0.3,1.5-1.1
					c-0.1-0.6-0.9-0.9-1.3-0.4c-0.2,0.2,0.2,0.5,0.4,0.2c0.2-0.2,0.5,0,0.5,0.2c0,0.2-0.2,0.5-0.4,0.6c-0.2,0.1-0.6,0.2-0.9,0
					c-0.3-0.1-0.5-0.4-0.4-0.7c0.1-0.2,0.5-0.4,0.7-0.2C92.6,77.5,92.9,77.2,92.7,77L92.7,77z"/>
			</g>
		</g>
	</g>
	<g>
		<g>
			<g>
				<path class="st0" d="M45,85.3c-0.5,0.2-0.6,0.9-0.2,1.3c0.4,0.4,1,0.2,1.3-0.2c0-0.1,0-0.2,0-0.3c-0.3-0.2-0.6-0.3-0.9-0.2
					c-0.3,0-0.2,0.5,0.1,0.4c0.2,0,0.4,0,0.5,0.1c0-0.1,0-0.2,0-0.3c-0.1,0.2-0.4,0.3-0.6,0.1s-0.1-0.5,0.1-0.6
					C45.5,85.5,45.3,85.2,45,85.3L45,85.3z"/>
			</g>
		</g>
	</g>
</g>
</svg>
