<?xml version="1.0" encoding="utf-8"?>
<!-- Generator: Adobe Illustrator 24.0.1, SVG Export Plug-In . SVG Version: 6.00 Build 0)  -->
<svg version="1.1" id="Layer_1" xmlns="http://www.w3.org/2000/svg" xmlns:xlink="http://www.w3.org/1999/xlink" x="0px" y="0px"
	 viewBox="0 0 141.7 141.7" style="enable-background:new 0 0 141.7 141.7;" xml:space="preserve">
<style type="text/css">
	.st0{fill:#070707;}
</style>
<g id="Layer_1_1_">
</g>
<g id="Layer_1_2_">
</g>
<g id="Layer_1_3_">
</g>
<g id="Layer_1_4_">
</g>
<g id="Layer_1_5_">
</g>
<g id="Layer_3">
</g>
<g id="Layer_3_1_">
</g>
<g id="Layer_1_6_">
</g>
<g id="Layer_1_7_">
</g>
<g id="Layer_1_8_">
</g>
<g id="Layer_1_9_">
</g>
<g id="Layer_1_10_">
</g>
<g id="Layer_1_11_">
</g>
<g id="Layer_1_12_">
</g>
<g id="Layer_1_13_">
</g>
<g id="Layer_1_14_">
</g>
<g id="Layer_1_15_">
</g>
<g id="Layer_1_16_">
</g>
<g id="Layer_1_17_">
</g>
<g id="Layer_1_18_">
</g>
<g id="Layer_1_19_">
</g>
<g id="Layer_1_20_">
</g>
<g id="Layer_2_1_">
</g>
<g id="Layer_4">
	<g>
		<g>
			<g>
				<path class="st0" d="M88.9,34.8c-3.1-5.5-9.6-8.3-15.7-8.4c-4,0-8.3,0.5-12.2,1.1c-3.5,0.6-6.8,2.3-9.3,4.8
					c-4.3,4.5-5.5,10.7-5.7,16.7c-0.2,7.2,1,14.3,0.7,21.4c-0.2,4.9-1.1,9.9-0.4,14.8c0.6,4.2,2.6,7.8,5.4,10.9
					c0.4,0.4,1-0.2,0.6-0.6c-2.5-2.7-4.2-5.8-5-9.4c-0.9-4.1-0.2-8.4,0.1-12.6c0.4-6.7-0.2-13.2-0.5-19.9c-0.2-5.8,0-12.2,3-17.4
					c1.6-2.8,4.1-5.2,7-6.6c3.7-1.7,8-1.7,12-2.1c7.3-0.7,15.4,0.7,19.2,7.7C88.4,35.8,89.2,35.4,88.9,34.8L88.9,34.8z"/>
			</g>
		</g>
	</g>
	<g>
		<g>
			<g>
				<path class="st0" d="M56.3,99.1c3.9,2.4,8.8,2.4,13.3,2c2.2-0.2,4.4-0.5,6.6-0.9c2.5-0.4,5.2-0.6,7.4-2c0.5-0.3,0-1.1-0.5-0.8
					c-2.1,1.2-4.6,1.5-7,1.9c-2.2,0.4-4.3,0.7-6.6,0.9c-4.3,0.4-9,0.4-12.8-1.9C56.2,98.1,55.8,98.8,56.3,99.1L56.3,99.1z"/>
			</g>
		</g>
	</g>
	<g>
		<g>
			<g>
				<path class="st0" d="M61.6,28.3c0.6,0,0.6-0.9,0-0.9C61,27.4,61,28.3,61.6,28.3L61.6,28.3z"/>
			</g>
		</g>
	</g>
	<g>
		<g>
			<g>
				<path class="st0" d="M41,32.4c-3.2-0.3-5.3-3.7-3.3-6.6c1.5-2.2,5.7-3.6,7.8-1.4c0.4,0.4,1-0.2,0.6-0.6c-2.6-2.8-7.8-1-9.4,1.9
					c-2,3.5,0.6,7.1,4.3,7.5C41.6,33.3,41.6,32.4,41,32.4L41,32.4z"/>
			</g>
		</g>
	</g>
	<g>
		<g>
			<g>
				<path class="st0" d="M89.7,24.4c2.4-1.2,6.1-1.9,7.8,0.7c1.7,2.6,0.7,6.6-2.6,7.2c-0.6,0.1-0.3,1,0.2,0.9c3.7-0.8,5-5,3.4-8.2
					c-1.8-3.5-6.3-2.9-9.3-1.4C88.7,23.9,89.2,24.7,89.7,24.4L89.7,24.4z"/>
			</g>
		</g>
	</g>
	<g>
		<g>
			<g>
				<path class="st0" d="M66.1,47.2c0.1,0,0.1,0,0.2,0c-0.1-0.1-0.1-0.3-0.2-0.4c-0.7,0.5-1.6,0.7-2.2,1.4c-0.5,0.5-1.1,1.3-1,2.1
					c0.4,3.2,5.2,1,6.8,1c1.7,0,4.8,1.9,5.3-1c0.4-2.1-2.3-3.3-3.9-3.9c-0.3-0.1-0.4,0.3-0.1,0.4c0.7,0.2,1.4,0.5,2,0.9
					c0.4,0.2,0.9,0.6,1.1,1c0.6,0.8,1.1,2.6-0.9,2.8c-1.3,0.1-2.6-0.8-3.9-0.6c-0.6,0.1-1.2,0.3-1.9,0.4c-0.6,0.2-1.3,0.3-2,0.3
					c-0.5,0-1-0.1-1.4-0.4c-0.2-0.6-0.4-1.2-0.5-1.8c0.2-1.2,2-1.7,2.9-2.2c0.2-0.1,0.1-0.5-0.2-0.4c-0.1,0-0.1,0-0.2,0
					C65.7,46.8,65.8,47.3,66.1,47.2L66.1,47.2z"/>
			</g>
		</g>
	</g>
	<g>
		<g>
			<g>
				<path class="st0" d="M71.6,51.6c0.4,1,0.5,2.1,0.3,3.1c-0.2,0.7-0.9,1.2-1.6,1.1c-0.6-0.1-0.7-0.7-0.9-1.1
					c-0.1-0.2-0.5,0-0.4,0.2c0.2,0.5,0.4,1.1,1,1.4c0.5,0.2,1.2,0,1.6-0.2c1.3-0.9,0.9-3.2,0.4-4.4C71.9,51.3,71.5,51.4,71.6,51.6
					L71.6,51.6z"/>
			</g>
		</g>
	</g>
	<g>
		<g>
			<g>
				<path class="st0" d="M52.1,103c2-1,3.1,1.6,4.5,2.6c0-0.1,0-0.3,0-0.4c-2.1,0.4-4,3.6-6.2,3.1c-2.1-0.4-1.6-2.5-0.5-3.6
					c0.8-0.8,1.9-1.4,2.9-1.9c0.2-0.1,0-0.5-0.2-0.4c-1.7,0.9-5.5,3.1-3.7,5.4c2.4,3,5.5-1.7,7.9-2.2c0.2,0,0.2-0.3,0-0.4
					c-1.6-1.1-2.6-3.7-5-2.6C51.6,102.7,51.9,103.1,52.1,103L52.1,103z"/>
			</g>
		</g>
	</g>
	<g>
		<g>
			<g>
				<path class="st0" d="M49.8,107.8c-0.3-1.2,0.6-2.1,1.5-2.6c0.2-0.1,0-0.5-0.2-0.4c-1.1,0.6-2.1,1.7-1.7,3.1
					C49.5,108.2,49.9,108.1,49.8,107.8L49.8,107.8z"/>
			</g>
		</g>
	</g>
	<g>
		<g>
			<g>
				<path class="st0" d="M89,109.1c-1.1-0.7-1.7-1.7-2.6-2.5c-0.6-0.6-1.1-1.1-0.2-2c0.6-0.5,1.5-1,2.2-1c1.5,0,2.7,1.4,3.2,2.6
					c0.3,0.7,0.6,1.8,0.1,2.5C91.1,109.6,89.9,109.5,89,109.1c-0.2-0.1-0.5,0.2-0.2,0.4c1.4,0.7,3.3,0.6,3.7-1.3
					c0.4-1.9-1.1-4.1-2.8-4.8c-0.9-0.4-1.7-0.3-2.6,0.1c-0.7,0.3-2,1.1-2.1,2c0,0.6,0.7,1,1.1,1.4c0.9,0.9,1.6,1.9,2.7,2.6
					C89,109.6,89.2,109.2,89,109.1z"/>
			</g>
		</g>
	</g>
	<g>
		<g>
			<g>
				<path class="st0" d="M89.6,106.4c0.8,0.8,1.4,1.8,1.4,3c0,0.3,0.5,0.3,0.4,0c0-1.2-0.7-2.4-1.6-3.3
					C89.7,105.9,89.3,106.2,89.6,106.4L89.6,106.4z"/>
			</g>
		</g>
	</g>
	<g>
		<g>
			<g>
				<path class="st0" d="M102.7,56.8c0.6,0.2,1.4,0,2,0.1c1.1,0.2,2.2,0.9,2.7,1.9c0.6,1.2,0.1,2.7-1.5,2.5c-1.1-0.2-2-1-2.9-1.8
					c-0.2-0.2-0.5,0.1-0.3,0.3c1,1,2.1,2,3.6,2c1,0,1.7-0.5,1.8-1.5c0.1-1.2-0.5-2.3-1.5-3c-0.6-0.4-1.4-0.7-2.1-0.9
					c-0.5-0.1-1.2,0.1-1.7-0.1C102.5,56.2,102.4,56.7,102.7,56.8L102.7,56.8z"/>
			</g>
		</g>
	</g>
	<g>
		<g>
			<g>
				<path class="st0" d="M105.5,59.7c0.7,0.2,1.7,0.8,1.2,1.7c-0.1,0.2,0.2,0.5,0.4,0.2c0.6-1.1-0.5-2-1.5-2.4
					C105.3,59.2,105.2,59.7,105.5,59.7L105.5,59.7z"/>
			</g>
		</g>
	</g>
	<g>
		<path class="st0" d="M73,45.2c-4,0-7.3-3.3-7.3-7.3c0-4,3.3-7.3,7.3-7.3c4,0,7.3,3.3,7.3,7.3C80.3,41.9,77.1,45.2,73,45.2z
			 M73,31.1c-3.7,0-6.8,3-6.8,6.8c0,3.7,3,6.8,6.8,6.8c3.7,0,6.8-3,6.8-6.8C79.8,34.2,76.8,31.1,73,31.1z"/>
	</g>
	<g>
		<path class="st0" d="M56.5,45.7c-4,0-7.3-3.3-7.3-7.3c0-4,3.3-7.3,7.3-7.3c4,0,7.3,3.3,7.3,7.3C63.8,42.5,60.5,45.7,56.5,45.7z
			 M56.5,31.7c-3.7,0-6.8,3-6.8,6.8c0,3.7,3,6.8,6.8,6.8c3.7,0,6.8-3,6.8-6.8C63.3,34.7,60.2,31.7,56.5,31.7z"/>
	</g>
	<g>
		<circle class="st0" cx="93.8" cy="27.6" r="1.5"/>
	</g>
	<g>
		<circle class="st0" cx="41.7" cy="27.8" r="1.5"/>
	</g>
	<g>
		<path class="st0" d="M72,46.3c0-1-1.4-1.7-3.1-1.7c-1.7,0-3.1,0.8-3.1,1.7s1.4,1.7,3.1,1.7S72,47.3,72,46.3z"/>
	</g>
	<g>
		<path class="st0" d="M70.7,34c-1.3,0-2.3,1-2.3,2.3c0,1.3,1,2.3,2.3,2.3c1.3,0,2.3-1,2.3-2.3C73,35,72,34,70.7,34z M71.6,37.8
			c-0.4,0-0.6-0.3-0.6-0.6c0-0.4,0.3-0.6,0.6-0.6c0.4,0,0.6,0.3,0.6,0.6C72.3,37.5,72,37.8,71.6,37.8z"/>
	</g>
	<g>
		<path class="st0" d="M53.9,34.8c-1.3,0-2.3,1-2.3,2.3c0,1.3,1,2.3,2.3,2.3c1.3,0,2.3-1,2.3-2.3C56.2,35.9,55.2,34.8,53.9,34.8z
			 M54.9,38.6c-0.4,0-0.6-0.3-0.6-0.6s0.3-0.6,0.6-0.6c0.4,0,0.6,0.3,0.6,0.6C55.5,38.3,55.2,38.6,54.9,38.6z"/>
	</g>
	<g>
		<g>
			<g>
				<path class="st0" d="M69,51.2c0.1,0.9,0.1,1.9,0,2.8c0,0.5-0.1,1.1-0.5,1.5c-0.4,0.5-1.2,0.6-1.8,0.1c-0.9-0.9-0.6-2.7-0.3-3.8
					c0.1-0.3-0.4-0.4-0.4-0.1c-0.4,1.4-0.7,4.1,1.1,4.6c2.7,0.8,2.5-3.8,2.2-5.2C69.3,50.8,68.9,50.9,69,51.2L69,51.2z"/>
			</g>
		</g>
	</g>
	<g>
		<g>
			<g>
				<path class="st0" d="M37.9,45.3c-1-0.5-1.7-1.4-2.2-2.4c-0.3-0.7-1.2-2.9,0.5-2.6c0.3,0,0.4-0.4,0.1-0.4
					c-1.2-0.2-1.7,0.7-1.5,1.8c0.3,1.6,1.4,3.3,2.9,4C38,45.8,38.2,45.4,37.9,45.3L37.9,45.3z"/>
			</g>
		</g>
	</g>
	<g>
		<g>
			<g>
				<path class="st0" d="M36.9,41.3c-0.2-0.4-0.6-1.2,0.1-1.3c0.5-0.1,1,0.5,1.3,0.9c0.5,0.8,0.7,1.7,0.8,2.6c0,0.3,0.5,0.3,0.4,0
					c-0.1-1.2-0.6-3.2-1.8-3.8c-0.4-0.2-1.1-0.3-1.5,0.1c-0.3,0.5,0,1.2,0.2,1.6C36.7,41.8,37.1,41.6,36.9,41.3L36.9,41.3z"/>
			</g>
		</g>
	</g>
	<g>
		<g>
			<g>
				<path class="st0" d="M87.8,34.5c2.7,4.1,3.5,9,3.6,13.8c0.2,4.8,0,9.7,0.1,14.5c0.2,5.7,0.7,11.4,0.6,17.1c0,2.8-0.2,5.5-1,8.2
					c-0.7,2.6-2.4,4.6-3.6,7c-0.3,0.5,0.5,1,0.8,0.5c1.2-2.2,2.8-4.1,3.6-6.6s1.1-5.1,1.1-7.7c0.2-6.2-0.3-12.3-0.6-18.5
					C92,53.5,94.1,42.2,88.6,34C88.2,33.6,87.4,34,87.8,34.5L87.8,34.5z"/>
			</g>
		</g>
	</g>
	<g>
		<g>
			<g>
				<path class="st0" d="M83.3,98c0,0,0.1,0,0.1,0c0.3,0,0.3-0.4,0-0.4c0,0,0,0,0,0c-0.1,0-0.1,0-0.2,0.1c0,0,0,0,0,0
					c0.1,0.1,0.2,0.2,0.3,0.2c0,0,0-0.1,0-0.1c-0.1,0-0.2,0.1-0.4,0.1C83.2,97.9,83.2,98,83.3,98c0.2,0.2,0.5-0.1,0.3-0.3
					c0,0-0.1-0.1-0.1-0.1c-0.1-0.1-0.3-0.1-0.4,0.1c0,0,0,0.1,0,0.1c-0.1,0.2,0.2,0.3,0.3,0.2c0.1,0,0.1-0.1,0.2-0.2
					c-0.1,0-0.1,0.1-0.2,0.1c0,0,0,0,0,0c0.3,0,0.3-0.4,0-0.4c0,0-0.1,0-0.1,0C83,97.6,83,98,83.3,98L83.3,98z"/>
			</g>
		</g>
	</g>
	<g>
		<g>
			<path class="st0" d="M67.7,33.8c0-0.1,0.1-0.1,0.1-0.2c0-0.1,0.1-0.1,0.1-0.2c-1.6-2.7-4.5-4.5-7.8-4.5c-2.7,0-5.2,1.2-6.9,3.2
				l0,0c0.2-0.1,0.4-0.1,0.5,0c1.6-1.7,3.8-2.7,6.3-2.7C63.3,29.3,66.2,31.2,67.7,33.8z"/>
		</g>
		<g>
			<path class="st0" d="M67.6,42.4c-1.5,2.6-4.3,4.3-7.5,4.3c-1.9,0-3.6-0.6-5-1.6c-0.2,0-0.5-0.1-0.7-0.2c-0.1,0-0.1,0-0.2,0
				c1.6,1.4,3.7,2.2,6,2.2c3.3,0,6.2-1.8,7.8-4.5C67.8,42.6,67.7,42.5,67.6,42.4z"/>
		</g>
	</g>
	<g>
		<g>
			<path class="st0" d="M77.8,28.4c-2.6,0-5,1.1-6.6,2.9c0.2-0.1,0.4-0.1,0.5-0.2c0.1,0,0.2,0,0.2-0.1c1.5-1.4,3.6-2.2,5.8-2.2
				c4.8,0,8.7,3.9,8.7,8.7s-3.9,8.7-8.7,8.7c-1.8,0-3.5-0.5-4.8-1.5c-0.1,0-0.1,0-0.2,0c-0.1,0-0.2,0-0.2,0c-0.1,0-0.1,0-0.2,0
				c1.5,1.2,3.4,1.9,5.5,1.9c5,0,9.1-4.1,9.1-9.1C86.8,32.5,82.8,28.4,77.8,28.4z"/>
		</g>
	</g>
	<g>
		<path class="st0" d="M72.2,43.6c-3.5,0-6.3-2.8-6.3-6.3c0-3.5,2.8-6.3,6.3-6.3s6.3,2.8,6.3,6.3C78.5,40.7,75.7,43.6,72.2,43.6z
			 M72.2,31.5c-3.2,0-5.8,2.6-5.8,5.8c0,3.2,2.6,5.8,5.8,5.8s5.8-2.6,5.8-5.8C78,34.1,75.4,31.5,72.2,31.5z"/>
	</g>
	<g>
		<path class="st0" d="M55.7,44c-3.5,0-6.3-2.8-6.3-6.3c0-3.5,2.8-6.3,6.3-6.3s6.3,2.8,6.3,6.3C62.1,41.2,59.2,44,55.7,44z
			 M55.7,31.9c-3.2,0-5.8,2.6-5.8,5.8c0,3.2,2.6,5.8,5.8,5.8c3.2,0,5.8-2.6,5.8-5.8C61.5,34.5,58.9,31.9,55.7,31.9z"/>
	</g>
	<g>
		<g>
			<g>
				<path class="st0" d="M57.8,31.4c0.9-1.2,2.1-1.9,3.6-2c0.3,0,0.3-0.5,0-0.4c-1.6,0.2-3,1-4,2.2C57.3,31.4,57.6,31.7,57.8,31.4
					L57.8,31.4z"/>
			</g>
		</g>
	</g>
	<g>
		<g>
			<g>
				<path class="st0" d="M63.2,36.6c1.1,0,2.2-0.3,3.1-1c0.2-0.2,0-0.6-0.2-0.4c-0.9,0.6-1.8,0.9-2.9,0.9
					C62.9,36.1,62.9,36.6,63.2,36.6L63.2,36.6z"/>
			</g>
		</g>
	</g>
	<g>
		<g>
			<g>
				<path class="st0" d="M61.4,43.4c0.6,1.2,1.8,2.1,3.2,2.4c0.3,0,0.4-0.4,0.1-0.4c-1.3-0.2-2.4-1-3-2.1
					C61.7,42.9,61.3,43.2,61.4,43.4L61.4,43.4z"/>
			</g>
		</g>
	</g>
	<g>
		<g>
			<g>
				<path class="st0" d="M77.5,32.4c1.3-1.5,3.1-2.2,5.1-2.1c0.3,0,0.3-0.4,0-0.4c-2.1-0.1-4,0.7-5.4,2.2
					C77,32.3,77.3,32.6,77.5,32.4L77.5,32.4z"/>
			</g>
		</g>
	</g>
	<g>
		<g>
			<g>
				<path class="st0" d="M79.9,38.4c2.4,1.1,5.1,0.5,6.8-1.4c0.2-0.2-0.1-0.5-0.3-0.3c-1.6,1.8-4.1,2.4-6.3,1.4
					C79.9,37.9,79.7,38.2,79.9,38.4L79.9,38.4z"/>
			</g>
		</g>
	</g>
	<g>
		<g>
			<g>
				<path class="st0" d="M77.9,43.1c0,0,0,0.1,0,0.1c-0.1,0-0.2,0.1-0.3,0.1c0,0,0-0.1,0-0.1c0,0.1,0,0.2,0.1,0.2
					c1.3,1.5,3.3,2.1,5.2,1.5c0.3-0.1,0.1-0.5-0.1-0.4c-0.9,0.2-1.7,0.2-2.6,0c-0.2-0.1-2.2-0.9-2.1-1.3
					C78.1,43.2,78.1,43.1,77.9,43.1c0-0.1,0-0.1,0-0.1c-0.1-0.1-0.3,0-0.3,0.1c0,0,0,0.1,0,0.1c0,0.1,0,0.2,0.1,0.2
					c0,0,0.1,0,0.1,0.1C77.9,43.7,78.2,43.3,77.9,43.1L77.9,43.1z"/>
			</g>
		</g>
	</g>
	<g>
		<g>
			<g>
				<path class="st0" d="M51.3,42.1c-0.1,0.3-0.3,0.6-0.5,0.9c-0.1,0.2,0.2,0.5,0.4,0.2c0.1-0.3,0.3-0.6,0.5-0.9
					C51.9,42,51.5,41.8,51.3,42.1L51.3,42.1z"/>
			</g>
		</g>
	</g>
	<g>
		<g>
			<g>
				<path class="st0" d="M53.3,43.4c-0.1,0.4-0.1,0.7-0.2,1c-0.1,0.3,0.4,0.4,0.4,0.1c0.1-0.4,0.1-0.7,0.2-1
					C53.8,43.3,53.4,43.2,53.3,43.4L53.3,43.4z"/>
			</g>
		</g>
	</g>
	<g>
		<g>
			<g>
				<path class="st0" d="M56.6,43.7c0.1,0.5,0.2,1,0.4,1.5c0.1,0.3,0.5,0.1,0.4-0.1c-0.1-0.5-0.2-1-0.4-1.5
					C57,43.3,56.5,43.4,56.6,43.7L56.6,43.7z"/>
			</g>
		</g>
	</g>
	<g>
		<g>
			<g>
				<path class="st0" d="M59.5,42.8c0.4,0.2,0.7,0.6,0.9,1c0.1,0.2,0.5,0,0.4-0.2c-0.3-0.5-0.6-0.9-1.1-1.1
					C59.5,42.2,59.3,42.6,59.5,42.8L59.5,42.8z"/>
			</g>
		</g>
	</g>
	<g>
		<g>
			<g>
				<path class="st0" d="M61.9,38.4c0.3-0.3,0.9-0.3,1.2,0c0.2,0.2,0.5-0.1,0.3-0.3c-0.5-0.5-1.3-0.5-1.8,0
					C61.3,38.3,61.6,38.6,61.9,38.4L61.9,38.4z"/>
			</g>
		</g>
	</g>
	<g>
		<g>
			<g>
				<path class="st0" d="M61.1,34.9c0.4-0.2,0.7-0.4,1.2-0.3c0.3,0,0.4-0.4,0.1-0.4c-0.5-0.1-1.1,0-1.5,0.3
					C60.6,34.7,60.8,35.1,61.1,34.9L61.1,34.9z"/>
			</g>
		</g>
	</g>
	<g>
		<g>
			<g>
				<path class="st0" d="M59.1,32.8c0.2,0.1,0.5,0,0.6-0.1c0.2-0.2,0-0.6-0.2-0.4c-0.1,0.1-0.2,0.1-0.3,0.1
					C58.9,32.3,58.8,32.8,59.1,32.8L59.1,32.8z"/>
			</g>
		</g>
	</g>
	<g>
		<g>
			<g>
				<path class="st0" d="M68.7,42.8c0,0.2,0,0.4-0.1,0.6c0,0.3,0.4,0.3,0.4,0c0-0.2,0-0.4,0.1-0.6C69.2,42.5,68.7,42.5,68.7,42.8
					L68.7,42.8z"/>
			</g>
		</g>
	</g>
	<g>
		<g>
			<g>
				<path class="st0" d="M71.3,43.3c-0.5,0.4-0.5,1.2,0,1.6c0.2,0.2,0.5-0.2,0.2-0.4c-0.2-0.2-0.2-0.6,0-0.8
					C71.8,43.5,71.5,43.2,71.3,43.3L71.3,43.3z"/>
			</g>
		</g>
	</g>
	<g>
		<g>
			<g>
				<path class="st0" d="M75,43c0.3,0,0.3-0.4,0-0.4C74.7,42.5,74.7,43,75,43L75,43z"/>
			</g>
		</g>
	</g>
	<g>
		<g>
			<g>
				<path class="st0" d="M74.8,42.8c0,0.6,0.2,1.1,0.7,1.5c0.2,0.2,0.5-0.1,0.3-0.3c-0.4-0.3-0.5-0.7-0.5-1.2
					C75.2,42.5,74.8,42.5,74.8,42.8L74.8,42.8z"/>
			</g>
		</g>
	</g>
	<g>
		<g>
			<g>
				<path class="st0" d="M78.4,36.9C78.4,36.9,78.4,36.9,78.4,36.9c0,0,0.1,0,0.1,0c0,0,0,0,0.1,0c0,0.1,0,0.1,0,0.2
					c0.1-0.1,0.5-0.1,0.7,0c0.2,0.1,0.5,0.2,0.6,0.4c0.2,0.2,0.5-0.1,0.3-0.3c-0.4-0.4-1.1-0.6-1.6-0.5c-0.2,0.1-0.4,0.2-0.4,0.4
					c0,0.2,0.3,0.3,0.5,0.2C78.9,37.1,78.6,36.7,78.4,36.9L78.4,36.9z"/>
			</g>
		</g>
	</g>
	<g>
		<g>
			<g>
				<path class="st0" d="M77.9,34.7c0.2-0.3,0.6-0.2,0.8,0c0.2,0.2,0.5-0.1,0.3-0.3c-0.4-0.5-1.1-0.4-1.5,0.1
					C77.4,34.7,77.8,34.9,77.9,34.7L77.9,34.7z"/>
			</g>
		</g>
	</g>
	<g>
		<g>
			<g>
				<path class="st0" d="M76.7,33c0.1-0.1,0.2-0.3,0.3-0.4c0.1-0.1,0.3-0.1,0.3,0c0.1,0.3,0.5,0.1,0.4-0.1c-0.1-0.3-0.4-0.5-0.7-0.4
					c-0.4,0.1-0.6,0.4-0.7,0.7C76.2,33.1,76.6,33.3,76.7,33L76.7,33z"/>
			</g>
		</g>
	</g>
	<g>
		<g>
			<g>
				<path class="st0" d="M75.6,32.1c0-0.1,0-0.2,0.1-0.3l0.1,0c0-0.1,0-0.1-0.1-0.2c0-0.1,0.1-0.1,0.3,0.1c-0.1-0.3-0.5-0.1-0.4,0.1
					c0.1,0.5,0.8,0.1,0.6-0.3c-0.1-0.2-0.4-0.2-0.6-0.1c-0.1,0-0.2,0.1-0.2,0.2c-0.1,0.1-0.1,0.3-0.1,0.5
					C75.1,32.2,75.6,32.3,75.6,32.1L75.6,32.1z"/>
			</g>
		</g>
	</g>
	<g>
		<g>
			<g>
				<path class="st0" d="M71.6,46.7c1.1,0.1,2.4,0.2,3.3,1.1c1,1,1.1,3.1-0.7,3.3c-0.3,0-0.3,0.5,0,0.4c1.5-0.1,2.3-1.7,1.7-3
					c-0.7-1.7-2.7-2.1-4.3-2.2C71.3,46.2,71.3,46.7,71.6,46.7L71.6,46.7z"/>
			</g>
		</g>
	</g>
	<g>
		<g>
			<g>
				<path class="st0" d="M72.7,51.8c0.6,1.4,0.7,3.9-1.4,3.9c-0.3,0-0.3,0.4,0,0.4c1,0,1.7-0.6,2.1-1.5c0.4-1,0.1-2.1-0.3-3.1
					C72.9,51.3,72.5,51.6,72.7,51.8L72.7,51.8z"/>
			</g>
		</g>
	</g>
	<g>
		<g>
			<g>
				<path class="st0" d="M36.7,44.8c-0.5,0.6-1,1.3-0.6,2.1s1.1,0.5,1.6,0.1c2-1.4,4-3.5,4.4-6c0-0.1-0.1-0.3-0.2-0.3
					c-1.2,0-2.1,0.5-2.9,1.4c-0.2,0.2,0.1,0.5,0.3,0.3c0.7-0.8,1.5-1.2,2.6-1.3c-0.1-0.1-0.1-0.2-0.2-0.3c-0.2,1.4-1,2.5-1.9,3.6
					c-0.4,0.4-0.8,0.8-1.2,1.2c-0.2,0.1-0.4,0.4-0.6,0.5c-0.2,0.4-0.5,0.3-0.9-0.1c-0.7-0.2-0.7-0.5-0.2-0.9
					C37.2,44.8,36.8,44.5,36.7,44.8L36.7,44.8z"/>
			</g>
		</g>
	</g>
	<g>
		<g>
			<g>
				<path class="st0" d="M104,56.8c0.2-0.7,0.4-1.8-0.6-2c-1.3-0.2-1.9,1.8-2.2,2.7c-0.3,0.9-0.9,2.8,0.1,3.6c0.9,0.7,1.6-0.2,2-1
					c0.1-0.2-0.2-0.5-0.4-0.2c-0.1,0.2-0.2,0.4-0.2,0.5c-1.2,0-1.7-0.5-1.4-1.4c0.1-0.4,0.2-0.9,0.3-1.3c0.2-0.5,0.4-1,0.7-1.5
					c0.2-0.7,0.7-0.8,1.5-0.2c0,0.3-0.1,0.5-0.2,0.8C103.5,57,103.9,57.1,104,56.8L104,56.8z"/>
			</g>
		</g>
	</g>
	<g>
		<g>
			<g>
				<path class="st0" d="M56.5,105.8c0.6-0.2,1.1-0.4,1.7-0.5c0.1,0,0.2-0.1,0.1-0.3c-0.2-1.3-0.5-2.6-1.1-3.7
					c-0.4-0.9-1.2-2.2-2.2-2.4c-2-0.5-2.7,2.7-2.5,4.1c0.1,0.3,0.5,0.2,0.4-0.1c-0.2-1.1,0-2.2,0.8-3c1.2-1.2,2.5,0.5,3,1.5
					c0.4,0.8,0.6,1.6,0.9,2.5c0.1,0.3,0.3,0.8,0.1,1.1c-0.2,0.3-1.1,0.4-1.4,0.5C56.1,105.4,56.3,105.9,56.5,105.8L56.5,105.8z"/>
			</g>
		</g>
	</g>
	<g>
		<g>
			<g>
				<path class="st0" d="M85.4,105.8c-0.4-0.2-0.9-0.4-1.3-0.6c-0.6-0.4-0.6-0.4-0.6-1.1c0.1-0.9,0.5-1.9,0.9-2.6
					c1.8-3.5,4.9-0.6,5.1,2.2c0,0.3,0.5,0.3,0.4,0c-0.1-1.9-1.5-4.6-3.8-4.3c-2.2,0.2-3,3.7-3.3,5.5c0,0.1,0,0.2,0.1,0.2
					c0.7,0.4,1.4,0.7,2.1,1.1C85.5,106.3,85.7,106,85.4,105.8L85.4,105.8z"/>
			</g>
		</g>
	</g>
	<g>
		<g>
			<g>
				<path class="st0" d="M58.5,105.1c0.2-0.7,0.5-1.4,0.7-2.1c0.1-0.5,0.5-2.1,1-2.2c0.3-0.1,0.2-0.5-0.1-0.4
					c-0.6,0.1-0.7,0.9-0.9,1.4c-0.4,1.1-0.7,2.2-1.1,3.3C58,105.2,58.4,105.3,58.5,105.1L58.5,105.1z"/>
			</g>
		</g>
	</g>
	<g>
		<g>
			<g>
				<path class="st0" d="M83.1,105.1c-0.1-2.2-0.8-4.3-2.1-6.2c-0.2-0.2-0.6,0-0.4,0.2c1.3,1.7,2,3.7,2.1,5.9
					C82.6,105.4,83.1,105.4,83.1,105.1L83.1,105.1z"/>
			</g>
		</g>
	</g>
	<g>
		<g>
			<g>
				<path class="st0" d="M52.7,102.7c0.1,0.1,0.3-2.2,0.3-2.4c0-0.6,0-1.3,0-2c0-1-0.2-1.8-0.7-2.6c-0.1-0.2-0.5,0-0.4,0.2
					c0.7,1.4,0.6,3.1,0.6,4.7c0,0.6-0.3,1.7,0.2,2.2c0.1,0.1,0.2,0.1,0.3,0c0,0,0,0,0.1-0.1c0.1-0.1,0.1-0.2,0-0.3l0,0
					C52.8,102.2,52.5,102.5,52.7,102.7L52.7,102.7z"/>
			</g>
		</g>
	</g>
	<g>
		<g>
			<g>
				<path class="st0" d="M89.6,101.8c-1.4-2.1-1.9-4.5-1.3-6.9c0.1-0.3-0.4-0.4-0.4-0.1c-0.5,2.6-0.1,5.1,1.4,7.3
					C89.4,102.3,89.7,102.1,89.6,101.8L89.6,101.8z"/>
			</g>
		</g>
	</g>
	<g>
		<g>
			<g>
				<path class="st0" d="M36.3,46.9c0.4,0.6,0.6,1.2,0.7,2c0,0.1,0.1,0.3,0.3,0.2c2.6-1,4.8-2.9,6.1-5.4c0.3-0.6,1.2-2.1,0.6-2.7
					c-0.6-0.7-1.5,0.2-2.2-0.1c-0.2-0.1-0.5,0.2-0.2,0.4c0.6,0.3,1.1-0.2,1.6-0.1c1.5,0.5-1.1,3.8-1.5,4.3c-0.9,1-1.9,1.9-3.1,2.5
					c-0.2,0.1-0.6,0.4-0.9,0.4c-0.6-0.1,0,0.2-0.3-0.2c-0.3-0.4-0.4-1.1-0.6-1.5C36.5,46.4,36.1,46.7,36.3,46.9L36.3,46.9z"/>
			</g>
		</g>
	</g>
	<g>
		<g>
			<g>
				<path class="st0" d="M102.2,60.7c-1-0.3-1.7-0.2-2.6,0.2c0.1,0.1,0.2,0.1,0.3,0.2c-0.2-3,1-5.8,3.3-7.8c-0.1,0-0.2-0.1-0.4-0.1
					c0,1,0.3,1.7,0.9,2.4c0.2,0.2,0.5-0.1,0.3-0.3c-0.6-0.6-0.8-1.3-0.8-2.1c0-0.2-0.2-0.3-0.4-0.1c-2.4,2-3.6,5-3.5,8.1
					c0,0.2,0.2,0.3,0.3,0.2c0.7-0.4,1.5-0.5,2.3-0.1C102.3,61.2,102.4,60.8,102.2,60.7L102.2,60.7z"/>
			</g>
		</g>
	</g>
	<g>
		<g>
			<g>
				<path class="st0" d="M37.2,49.2c5,2.1,9.7-3.5,6.7-8.1c-0.1-0.2-0.5,0-0.4,0.2c2.8,4.2-1.5,9.3-6.2,7.4
					C37,48.7,36.9,49.1,37.2,49.2L37.2,49.2z"/>
			</g>
		</g>
	</g>
	<g>
		<g>
			<g>
				<path class="st0" d="M103.2,52.6c-2.1-1.6-4.9,1.6-5.7,3.4c-0.9,2-0.7,5.5,2.3,5.2c0.3,0,0.3-0.5,0-0.4
					c-3.2,0.4-2.5-3.6-1.6-5.2c0.7-1.3,3-3.8,4.7-2.5C103.2,53.2,103.5,52.8,103.2,52.6L103.2,52.6z"/>
			</g>
		</g>
	</g>
	<g>
		<g>
			<g>
				<path class="st0" d="M42.8,48.5c2.1,1.1-1.1,6.7-2,7.9c-0.8,1.1-1.7,2.1-2.8,3c-0.5,0.4-1.1,0.9-1.6,1.2
					c-0.3,0.2-0.6,0.4-0.9,0.5c-1.6-0.3-2-0.7-1.2-1.4c0.6-1.5,3.7-2.5,5.1-1.7c1.7,1,1.4,4.2,0.9,5.8c-0.1,0.5-0.3,0.9-0.5,1.3
					c-0.5,0-1,0-1.5,0.1c-0.6-0.6,2.1-2.5,2.6-2.6c1.5,0.1,2.2,0.7,2.2,1.8c0.1,0.5,0.1,1.1-0.1,1.6c-0.2-0.8,0.1-1.4,0.9-1.9
					c1.2,0.3,2.1-0.1,2.7-1.3c0.3-0.1,0.1-0.5-0.1-0.4c-1.4,0.5-2,2-1.3,3.3c0,0.1,0.2,0.1,0.3,0.1c1.1-0.7,0.5-2.4-0.8-2.4
					c-1.8,0-3,2.4-2.1,3.8c0.1,0.1,0.3,0.1,0.4,0c0.6-1.4,1.1-3.7-0.3-4.9c-1.3-1.1-3.3,0.2-4.1,1.3c-0.5,0.6-1.6,2.4-0.4,2.8
					c1.7,0.5,2.5-2.5,2.7-3.5c0.2-1.7,0.5-4.2-1.1-5.3c-1.6-1.1-3.7-0.2-5.1,0.9c-0.7,0.6-2.4,2.3-0.8,3.1c1.4,0.7,3.5-1.3,4.5-2.1
					c2-1.7,3.6-3.9,4.6-6.4c0.5-1.3,1.9-4.4,0.1-5.3C42.8,48,42.5,48.3,42.8,48.5L42.8,48.5z"/>
			</g>
		</g>
	</g>
	<g>
		<g>
			<g>
				<path class="st0" d="M98.4,54.8c-0.4-2.1-2.7-1-3.4,0.3c-0.4,0.7-1,2.3-0.5,3.2c0.3,0.4,0.6,0.6,1,0.3c0.9-0.7,0.2-3.1-1.2-2.6
					c-1.6,0.7-1.7,3.9,0.2,4.2c0.2,0,0.4-0.2,0.2-0.4c-0.4-0.4-1-0.5-1.5-0.1c-0.4,0.3-1,3-1.1,2.9c-0.2-0.2-0.5,0.2-0.2,0.4
					c0.3,0.2,0.5,0.2,0.8,0c0.3-0.2,0.3-0.5,0.4-0.8c0.1-0.3,0-3.2,1.3-2c0.1-0.1,0.1-0.2,0.2-0.4c-1.5-1.7-1.5-2.4-0.1-1.9
					c1.1,0.4,1.2,0,0.4-1.2c0-0.2,0.1-0.4,0.1-0.6c0.3-1.4,1.3-1.8,2.9-1.2C98.1,55.2,98.5,55.1,98.4,54.8L98.4,54.8z"/>
			</g>
		</g>
	</g>
	<g>
		<g>
			<g>
				<path class="st0" d="M47,62.8c0.4,0.2,0.8,0.4,1.3,0.4c0.3-0.1,0.6-0.3,0.6-0.6c0-0.3-0.2-0.7-0.5-0.7c-0.4,0-0.5,0.6-0.6,0.9
					c-0.1,0.3-0.1,0.7,0.2,0.9s0.6,0,0.7-0.3c0.2-0.5,0.1-1.5-0.6-1.5c-0.1,0-0.1,0-0.2,0.1c-0.2,0.4-0.2,0.9,0,1.3
					c0,0.1,0.2,0.1,0.2,0.1c0.5-0.2,0.6-0.9,0.1-1.2c-0.1-0.1-0.2,0-0.3,0c-0.3,0.2-0.3,0.6,0,0.9c0.1,0.1,0.2,0.1,0.3,0
					c0.2-0.2,0.3-0.4,0.2-0.7c0-0.1-0.2-0.2-0.4-0.1c-0.2,0.2-0.2,0.5,0,0.7c0.2,0.2,0.5-0.1,0.3-0.3c0,0,0-0.1,0-0.1
					c-0.1,0-0.2-0.1-0.4-0.1c0,0.1,0,0.2-0.1,0.2c0.1,0,0.2,0,0.3,0c-0.1-0.1,0-0.2,0-0.3c-0.1,0-0.2,0-0.3,0c0.1,0.1,0.1,0.4,0,0.4
					c0.1,0,0.2,0.1,0.2,0.1c-0.1-0.3-0.1-0.6,0-0.9c-0.1,0-0.1,0.1-0.2,0.1c0.3,0,0.2,0.6,0.2,0.8c-0.1,0.4-0.1-0.2-0.1-0.3
					c0-0.2,0.1-0.5,0.2-0.7c-0.1,0-0.1,0.1-0.2,0.1c0.1,0,0.2,0.2,0.1,0.3c-0.1,0.1-0.2,0.2-0.4,0.2c-0.3,0-0.6-0.2-0.9-0.3
					C46.9,62.3,46.7,62.7,47,62.8L47,62.8z"/>
			</g>
		</g>
	</g>
	<g>
		<g>
			<g>
				<path class="st0" d="M92.3,62.8c-1-0.7-2.2,0-2.2,1.2c0,0.2,0.2,0.3,0.4,0.1c0.5-0.4,0.6-1.1,0.2-1.6c-0.1-0.1-0.2-0.1-0.4,0
					c-0.3,0.3-0.5,0.7-0.4,1.1c0,0.2,0.2,0.2,0.4,0.1c0.2-0.2,0.3-0.5,0.2-0.7c0-0.1-0.2-0.2-0.3-0.1c-0.4,0.3-0.5,0.8-0.2,1.2
					c0.1,0.1,0.2,0.1,0.3,0c0.2-0.3,0.3-0.6,0.1-0.9c0-0.1-0.2-0.2-0.3-0.1c-0.3,0.2-0.4,0.5-0.2,0.8c0.1,0.2,0.5,0,0.4-0.2
					c0-0.1,0-0.1,0-0.2c-0.1,0-0.2-0.1-0.3-0.1c0.1,0.2,0.1,0.3,0,0.5c0.1,0,0.2,0,0.3,0c-0.1-0.1-0.1-0.4,0.1-0.5
					c-0.1,0-0.2-0.1-0.3-0.1c0,0.1,0,0.2-0.1,0.3c0.1,0,0.2,0.1,0.4,0.1c0-0.3,0-0.5,0.2-0.7c-0.1,0-0.2,0-0.4,0
					c0.2,0.4,0.2,0.8-0.1,1.1c0.1,0,0.2,0.1,0.4,0.1c0-0.8,0.8-1.2,1.5-0.8C92.3,63.3,92.5,62.9,92.3,62.8L92.3,62.8z"/>
			</g>
		</g>
	</g>
	<g>
		<g>
			<g>
				<path class="st0" d="M38.7,44.6c0.9-0.6,1.5-1.5,1.6-2.6c0-0.3-0.4-0.3-0.4,0c-0.1,0.9-0.6,1.7-1.4,2.2
					C38.2,44.4,38.4,44.8,38.7,44.6L38.7,44.6z"/>
			</g>
		</g>
	</g>
	<g>
		<g>
			<g>
				<path class="st0" d="M102.8,56c-0.5,0.5-0.8,1.2-0.7,2c0,0.3,0.5,0.3,0.4,0c0-0.6,0.2-1.2,0.6-1.7
					C103.4,56.1,103.1,55.8,102.8,56L102.8,56z"/>
			</g>
		</g>
	</g>
	<g>
		<g>
			<g>
				<path class="st0" d="M41.1,33c0.3,0,0.3-0.4,0-0.4C40.8,32.5,40.8,33,41.1,33L41.1,33z"/>
			</g>
		</g>
	</g>
	<g>
		<g>
			<g>
				<path class="st0" d="M39.1,32.9c0.1,1-0.4,2.6,1.4,2.2c1.1-0.3,2.2-2,2.9-2.9c0.7-0.9,1.4-1.9,2-2.9c0.7-1.2,1.4-2.4,1.9-3.6
					c0.3-0.6,1-1.8,0.8-2.6c-0.4-1.5-2.1-0.5-2.8,0.1c-0.2,0.2,0.1,0.5,0.3,0.3c1.7-0.3,2.2,0,1.7,0.9c-0.1,0.2-0.1,0.4-0.2,0.5
					c-0.3,0.7-0.6,1.4-1,2.1c-0.5,1-1.1,2.1-1.8,3c-0.7,1.1-1.6,2.2-2.5,3.2c-0.6,0.6-0.6,0.9-1.6,0.7c-1.1-0.2-0.6-0.2-0.7-1.1
					C39.6,32.6,39.1,32.6,39.1,32.9L39.1,32.9z"/>
			</g>
		</g>
	</g>
	<g>
		<g>
			<g>
				<path class="st0" d="M40.7,33.6c0.6-0.5,1.1-1.2,1.5-1.9c0.1-0.2-0.2-0.5-0.4-0.2c-0.4,0.7-0.8,1.3-1.4,1.8
					C40.2,33.4,40.5,33.8,40.7,33.6L40.7,33.6z"/>
			</g>
		</g>
	</g>
	<g>
		<g>
			<g>
				<path class="st0" d="M45.9,23.6c-0.2,0.8-0.5,1.6-1,2.4c-0.1,0.2,0.2,0.5,0.4,0.2c0.5-0.7,0.8-1.6,1-2.5
					C46.4,23.4,46,23.3,45.9,23.6L45.9,23.6z"/>
			</g>
		</g>
	</g>
	<g>
		<g>
			<g>
				<path class="st0" d="M90.6,23.3c-0.7-0.6-1.4-0.9-2.2-1c-0.1,0-0.2,0.1-0.2,0.2c-0.4,2,0.6,3.9,1.4,5.6c1,2,2.2,4,3.8,5.6
					c0.7,0.7,2.3,1.7,3.1,0.5c0.5-0.7,0.1-1.5-0.6-1.7c-0.3-0.1-0.4,0.4-0.1,0.4c-0.9,1-1.5,1.1-2,0.5c-0.1-0.1-0.3-0.3-0.4-0.4
					c-0.4-0.5-0.9-1-1.2-1.5c-0.6-0.8-1.1-1.6-1.6-2.5C90,28,89.6,27,89.2,26.1c-0.1-0.4-0.4-0.9-0.5-1.4c-0.1-1.1,0.5-2,1.6-1
					C90.5,23.8,90.8,23.5,90.6,23.3L90.6,23.3z"/>
			</g>
		</g>
	</g>
	<g>
		<g>
			<g>
				<path class="st0" d="M94,31.8c-0.1,0.8,0.4,1.6,1.2,1.6c0.3,0,0.3-0.4,0-0.4c-0.5,0-0.9-0.5-0.8-1C94.5,31.6,94.1,31.5,94,31.8
					L94,31.8z"/>
			</g>
		</g>
	</g>
	<g>
		<g>
			<g>
				<path class="st0" d="M89.1,23.2c-0.1,0.9,0.4,1.8,1.2,2.3c0.2,0.1,0.5-0.2,0.2-0.4c-0.7-0.4-1-1.1-1-1.9
					C89.6,22.9,89.1,22.9,89.1,23.2L89.1,23.2z"/>
			</g>
		</g>
	</g>
	<g>
		<g>
			<g>
				<path class="st0" d="M44.8,29.9c1,1,2.1,1.9,3.4,2.6c0.8,0.5,2,1.4,3,1c0.3-0.1,0.1-0.5-0.1-0.4c-1,0.4-2.5-0.9-3.4-1.4
					c-0.9-0.6-1.8-1.4-2.6-2.1C44.9,29.4,44.6,29.7,44.8,29.9L44.8,29.9z"/>
			</g>
		</g>
	</g>
	<g>
		<g>
			<g>
				<path class="st0" d="M85.9,31.8c1.8-0.2,3.4-0.9,4.8-2.2c0.2-0.2-0.1-0.5-0.3-0.3c-1.2,1.1-2.8,1.8-4.5,2
					C85.6,31.4,85.6,31.8,85.9,31.8L85.9,31.8z"/>
			</g>
		</g>
	</g>
	<g>
		<g>
			<g>
				<path class="st0" d="M44,30.4c2,1.7,4,3.6,4.6,6.3c0.1,0.3,0.5,0.2,0.4-0.1c-0.6-2.7-2.7-4.7-4.7-6.5
					C44.1,29.9,43.8,30.2,44,30.4L44,30.4z"/>
			</g>
		</g>
	</g>
	<g>
		<g>
			<g>
				<path class="st0" d="M88.4,34c-0.1,0-0.3,0-0.5,0c0.1,0.1,0.1,0.1,0.2,0.2c0.2-1.6,1.3-3,2.9-3.5c0.3-0.1,0.1-0.5-0.1-0.4
					c-1.8,0.6-3,2.1-3.2,4c0,0.1,0.1,0.2,0.2,0.2c0.1,0,0.3,0,0.5,0C88.7,34.5,88.7,34,88.4,34L88.4,34z"/>
			</g>
		</g>
	</g>
	<g>
		<g>
			<g>
				<path class="st0" d="M43.8,47.2c1.2,4.7-1.5,8.7-5,11.5c-0.2,0.2,0.1,0.5,0.3,0.3c3.6-2.9,6.4-7.1,5.1-11.9
					C44.1,46.8,43.7,47,43.8,47.2L43.8,47.2z"/>
			</g>
		</g>
	</g>
	<g>
		<g>
			<g>
				<path class="st0" d="M38.7,58.6c-0.7,0.7-1.7,1.5-2.7,1.7c-0.6,0.1-0.9-0.7-0.5-1.1c0.2-0.2,0.5-0.4,0.7-0.6
					c0.5-0.3,1-0.5,1.6-0.6c0.3-0.1,0.2-0.5-0.1-0.4c-0.9,0.2-1.9,0.6-2.5,1.3c-0.4,0.4-0.7,1.1-0.3,1.6c1,1.2,3.5-0.9,4.2-1.6
					C39.2,58.7,38.9,58.3,38.7,58.6L38.7,58.6z"/>
			</g>
		</g>
	</g>
	<g>
		<g>
			<g>
				<path class="st0" d="M40.5,62.5c-0.1,0.5-0.3,0.9-0.5,1.4c-0.1,0.2-0.5,1.3-0.9,1.3c-0.6,0,0-1.1,0.1-1.3c0.2-0.4,0.6-0.7,1-1
					c0.2-0.1,0-0.5-0.2-0.4c-0.6,0.4-1,0.9-1.3,1.5c-0.2,0.4-0.4,1.2,0,1.5c1.2,0.7,2-2.2,2.2-2.9C41,62.4,40.6,62.3,40.5,62.5
					L40.5,62.5z"/>
			</g>
		</g>
	</g>
	<g>
		<g>
			<g>
				<path class="st0" d="M43.1,64.6c0.1,0.6,0.6,4.2-1.2,3c-0.7-0.5-0.4-1.5,0-2.1c0.4-0.5,1-0.8,1.5-1.1c0.2-0.1,0-0.5-0.2-0.4
					c-0.9,0.5-1.8,1-2.1,2c-0.3,0.8,0,1.7,0.8,2.1c0.6,0.3,1.3,0,1.6-0.6c0.4-0.9,0.1-2.1,0-3C43.5,64.2,43,64.3,43.1,64.6
					L43.1,64.6z"/>
			</g>
		</g>
	</g>
	<g>
		<g>
			<g>
				<path class="st0" d="M95.1,56.3c0.5,0.3,1,0.7,1.1,1.3c0.1,0.6-0.1,1.4-0.7,1.5c-1.5,0.3-0.7-1.8-0.7-2.6c0-0.3-0.4-0.3-0.4,0
					c0,0.8-0.5,1.7-0.1,2.4c0.3,0.6,1,0.7,1.6,0.5c0.7-0.3,1-1,0.9-1.7c-0.1-0.8-0.7-1.4-1.4-1.8C95.1,55.7,94.9,56.1,95.1,56.3
					L95.1,56.3z"/>
			</g>
		</g>
	</g>
	<g>
		<g>
			<g>
				<path class="st0" d="M94.3,60.1c0.2,0.1,0.4,0.2,0.5,0.5c0-0.1,0-0.1,0-0.2c-0.1,0.2-0.4,0.2-0.6,0c-0.2-0.2-0.3-0.5-0.4-0.7
					c-0.1-0.3-0.5-0.1-0.4,0.1c0.2,0.6,0.6,1.4,1.4,1.2c0.3-0.1,0.5-0.3,0.4-0.6c-0.1-0.4-0.4-0.6-0.8-0.7
					C94.2,59.6,94,60.1,94.3,60.1L94.3,60.1z"/>
			</g>
		</g>
	</g>
	<g>
		<g>
			<g>
				<path class="st0" d="M94.9,56.1c0.3-0.9,0.9-2,1.6-2.6c1.2-1.1,1.7,0.3,1.9,1.3c0,0.3,0.5,0.2,0.4-0.1c-0.1-0.9-0.6-2.3-1.8-2
					c-1.3,0.3-2.1,2.2-2.5,3.4C94.4,56.2,94.8,56.4,94.9,56.1L94.9,56.1z"/>
			</g>
		</g>
	</g>
	<g>
		<g>
			<g>
				<path class="st0" d="M48.1,35c1-0.1,1.6-1.2,1.2-2.1c-0.1-0.2-0.5,0-0.4,0.2c0.3,0.6-0.2,1.4-0.8,1.4C47.8,34.5,47.8,35,48.1,35
					L48.1,35z"/>
			</g>
		</g>
	</g>
	<g>
		<g>
			<g>
				<path class="st0" d="M47.2,33.5c0.7,0,1.1-1,0.6-1.5c-0.2-0.2-0.5,0.1-0.3,0.3c0.2,0.2,0.1,0.7-0.2,0.7
					C46.9,33.1,46.9,33.5,47.2,33.5L47.2,33.5z"/>
			</g>
		</g>
	</g>
	<g>
		<g>
			<g>
				<path class="st0" d="M87.1,31.3c0.2,0.5,0.5,0.9,1,1.2c0.2,0.1,0.5-0.2,0.2-0.4c-0.4-0.2-0.6-0.5-0.7-0.9
					C87.4,30.9,86.9,31,87.1,31.3L87.1,31.3z"/>
			</g>
		</g>
	</g>
	<g>
		<g>
			<g>
				<path class="st0" d="M88.4,30.5c-0.4,0.4-0.1,1.1,0.4,1.2c0.1,0,0.2,0,0.3-0.1c0-0.1,0-0.2-0.1-0.3c-0.2,0-0.4-0.3-0.2-0.5
					C88.9,30.6,88.6,30.3,88.4,30.5L88.4,30.5z"/>
			</g>
		</g>
	</g>
	<g>
		<g>
			<g>
				<path class="st0" d="M88,32.5c0.1,0,0.1,0.1,0.2,0.1c0.2,0.2,0.5-0.2,0.2-0.4c-0.1,0-0.1-0.1-0.2-0.1C88,32,87.8,32.4,88,32.5
					L88,32.5z"/>
			</g>
		</g>
	</g>
	<g>
		<g>
			<g>
				<path class="st0" d="M56.4,98.4c0-1.5-0.1-2.9-0.4-4.3c-0.2-0.8-0.5-1.9-1.5-2.1c-2-0.4-2.4,2.9-2,4.2c0.1,0.3,0.5,0.2,0.4-0.1
					c-0.2-0.7-0.2-1.5,0.1-2.2c0.3-1.1,1.1-1.2,2.4-0.3c0.1,0.3,0.1,0.6,0.2,0.9c0.3,1.3,0.4,2.6,0.4,4
					C55.9,98.7,56.4,98.7,56.4,98.4L56.4,98.4z"/>
			</g>
		</g>
	</g>
	<g>
		<g>
			<g>
				<path class="st0" d="M83.7,97.8c-0.1-0.6-0.1-1.2,0-1.9c0.1-0.7,0.1-1.9,0.8-2.3c1.4-0.9,2.5,1,3.1,1.9c0.1,0.2,0.5,0.1,0.4-0.2
					c0-0.1,0-0.2-0.1-0.3c-0.1-0.3-0.5-0.1-0.4,0.1c0,0.1,0,0.2,0.1,0.3c0.1-0.1,0.3-0.1,0.4-0.2c-0.7-1.2-1.8-2.9-3.5-2.2
					c-1.6,0.6-1.3,3.4-1.2,4.7C83.3,98.1,83.8,98.1,83.7,97.8L83.7,97.8z"/>
			</g>
		</g>
	</g>
	<g>
		<g>
			<g>
				<path class="st0" d="M53.6,94.8c-0.1-0.1-0.1-0.3,0.1-0.4c0.1-0.1,0.1-0.1,0.2-0.1c0,0,0-0.1,0,0c0,0.1,0,0.1,0.1,0.2
					c0,0.2,0.1,0.5-0.1,0.5C53.8,95.1,53.5,95,53.6,94.8c0-0.2-0.4-0.3-0.5,0c-0.1,0.4,0.3,0.7,0.7,0.7c0.5,0,0.7-0.6,0.6-1
					c0-0.2-0.1-0.5-0.4-0.6c-0.2-0.1-0.4,0-0.6,0.1c-0.3,0.2-0.5,0.7-0.3,1.1C53.4,95.3,53.8,95.1,53.6,94.8L53.6,94.8z"/>
			</g>
		</g>
	</g>
	<g>
		<g>
			<g>
				<path class="st0" d="M85,95.1c-0.1-0.2,0.1-0.5,0.3-0.5c0.2,0,0.4,0.1,0.4,0.3C85.7,95.3,85.1,95.4,85,95.1
					c-0.1-0.3-0.5-0.1-0.4,0.1c0.2,0.4,0.6,0.5,1,0.4c0.4-0.1,0.6-0.6,0.5-1c-0.1-0.4-0.5-0.7-1-0.6c-0.4,0.1-0.7,0.6-0.6,1.1
					C84.6,95.5,85,95.3,85,95.1L85,95.1z"/>
			</g>
		</g>
	</g>
	<g>
		<g>
			<g>
				<path class="st0" d="M54.6,103.2c-0.6-1.2,0-2.8,1.3-3.2c0.2-0.1,0.1-0.5-0.1-0.4c-1.6,0.6-2.3,2.4-1.6,3.9
					C54.3,103.7,54.7,103.5,54.6,103.2L54.6,103.2z"/>
			</g>
		</g>
	</g>
	<g>
		<g>
			<g>
				<path class="st0" d="M85.8,100.1c1.5,0.4,2.4,1.9,2,3.4c-0.1,0.3,0.4,0.4,0.4,0.1c0.4-1.7-0.6-3.5-2.3-3.9
					C85.7,99.6,85.6,100,85.8,100.1L85.8,100.1z"/>
			</g>
		</g>
	</g>
	<g>
		<g>
			<g>
				<path class="st0" d="M55.4,102C55.4,102,55.4,102,55.4,102C55.4,102,55.4,102,55.4,102c0,0,0.1,0,0.1,0c0.1,0,0.1,0.1,0.1,0.2
					c0,0.1-0.1,0.1-0.2,0.1c-0.1,0.1,0,0,0,0c0,0,0,0,0-0.1C55.4,102.2,55.4,102.1,55.4,102c0.4,0,0.2-0.4,0-0.4
					c-0.4,0.1-0.5,0.5-0.4,0.9c0.1,0.2,0.2,0.3,0.5,0.3c0.2,0,0.4-0.2,0.5-0.4c0.2-0.3,0.1-0.8-0.3-0.9c-0.3-0.1-0.7,0.1-0.7,0.5
					C54.9,102.3,55.4,102.3,55.4,102L55.4,102z"/>
			</g>
		</g>
	</g>
	<g>
		<g>
			<g>
				<path class="st0" d="M86.1,101.9c-0.2-0.1-0.1-0.5,0.1-0.4c0.4,0.1,0.1,0.6-0.1,0.6c-0.3,0.1-0.2,0.5,0.1,0.4
					c0.4-0.1,0.7-0.4,0.7-0.7c0-0.4-0.2-0.7-0.6-0.7c-0.3-0.1-0.6,0.1-0.7,0.4c-0.1,0.3,0,0.6,0.3,0.8
					C86.2,102.4,86.4,102,86.1,101.9L86.1,101.9z"/>
			</g>
		</g>
	</g>
	<g>
		<g>
			<g>
				<path class="st0" d="M50.2,108.7c3.1,1,5.7-1.7,8-3.4c0.2-0.2,0-0.6-0.2-0.4c-2.1,1.6-4.8,4.3-7.7,3.4
					C50.1,108.2,49.9,108.6,50.2,108.7L50.2,108.7z"/>
			</g>
		</g>
	</g>
	<g>
		<g>
			<g>
				<path class="st0" d="M82.8,105c-0.4,0.9,0.1,1.5,0.9,2c1.5,0.9,3.2,1.5,4.8,2.3c0.2,0.1,0.5-0.2,0.2-0.4
					c-0.9-0.4-1.9-0.9-2.8-1.3c-0.6-0.3-3.3-1.1-2.7-2.3C83.4,105,83,104.8,82.8,105L82.8,105z"/>
			</g>
		</g>
	</g>
	<g>
		<g>
			<g>
				<path class="st0" d="M47.2,64.8c0.3,0,0.3-0.4,0-0.4C47,64.3,46.9,64.8,47.2,64.8L47.2,64.8z"/>
			</g>
		</g>
	</g>
	<g>
		<g>
			<g>
				<path class="st0" d="M47.2,64.5c2.9,2.6,6.7,3.6,10.6,4.1c4.5,0.6,9,0.6,13.5,0.5c3.9-0.1,7.8-0.4,11.6-1.3
					c1.8-0.4,3.6-1,5.3-1.8c1-0.5,3.1-1.1,3.5-2.3c0-0.1,0-0.2-0.1-0.2c-0.1-0.1-0.1-0.1-0.2-0.2c-0.1-0.1-0.2-0.1-0.3,0
					c-0.1,0-0.1,0.1-0.2,0.1c-0.2,0.1,0,0.5,0.2,0.4c-1.7,0.9-3.2,2-5.1,2.6c-1.6,0.6-3.2,1-4.8,1.3c-3.6,0.7-7.3,0.9-10.9,1
					c-3.8,0.1-7.7,0-11.5-0.4c-4.1-0.5-8.2-1.4-11.3-4.1C47.3,64,47,64.4,47.2,64.5L47.2,64.5z"/>
			</g>
		</g>
	</g>
	<g>
		<g>
			<g>
				<path class="st0" d="M46.2,85.7c8.3,1.6,16.9,2.1,25.3,1.6c4.1-0.2,8.1-0.8,12.2-1.5c2.7-0.5,7.2-0.7,8.8-3.4
					c0.1-0.1,0-0.3-0.1-0.3c-3.8-1.2-8.2-0.5-12.1-0.2c-4.5,0.3-9.1,0.7-13.5,1.1c-4.3,0.4-8.7,0.8-13,1.1c-1,0.1-7.9,0.1-7.8,1.5
					c0,0.1,0.1,0.2,0.2,0.2c0.1,0,0.1,0,0.2,0.1c0.3,0.1,0.4-0.3,0.1-0.4c0.4,0.1,1.8-0.4,2.2-0.4c0.7-0.1,1.4-0.1,2-0.2
					c1.6-0.1,3.2-0.3,4.8-0.4c2.9-0.2,5.7-0.5,8.6-0.7c6-0.5,12-1.1,18-1.5c1.4-0.1,2.8-0.2,4.2-0.2c1.3,0,3.6-0.4,4.8,0.2
					c0.4,0.2,0.9-0.1,0.6,0.7c-0.1,0.3-0.9,0.6-1.1,0.7c-0.5,0.2-1.1,0.4-1.6,0.6c-1.4,0.4-2.8,0.6-4.2,0.9
					c-5.8,1.1-11.8,1.8-17.8,1.9c-6.9,0.1-13.8-0.5-20.5-1.8C46.1,85.2,46,85.6,46.2,85.7L46.2,85.7z"/>
			</g>
		</g>
	</g>
	<g>
		<g>
			<g>
				<path class="st0" d="M62.3,72c-0.1,2.6-0.1,5.3-0.2,7.9c0,1.4-0.2,1.7,1.3,1.7c5.3-0.2,10.5-1.7,15.8-1c0.2,0,0.3-0.1,0.3-0.3
					c-0.5-2.4-1-4.8-1.5-7.3c-0.2-1.2,0-2.3-1.3-2.4c-2.4-0.2-4.8,0.1-7.2,0.2c-2.5,0.1-5,0.3-7.5,0.6c-0.3,0-0.3,0.5,0,0.4
					c4.1-0.4,8.2-0.6,12.3-0.8c1.3,0,2.4-0.3,3,1c0.4,0.8,0.4,2.1,0.6,3c0.2,1.1,0.5,2.2,0.7,3.3c0.2,0.9,0.5,1.4-0.4,1.6
					c-0.9,0.1-2.1-0.1-3-0.1c-1,0-2,0.1-3,0.2c-2,0.2-4,0.5-6,0.7c-1,0.1-2,0.4-3,0.3c-0.9-0.1-0.7-0.2-0.9-0.9
					c-0.1-0.5,0-1.2,0-1.7c0.1-2.2,0.1-4.3,0.2-6.6C62.7,71.7,62.3,71.7,62.3,72L62.3,72z"/>
			</g>
		</g>
	</g>
	<g>
		<g>
			<g>
				<path class="st0" d="M64.4,76.5c-0.1-0.4,0.1-0.8,0.5-0.9c0.3-0.1,0.6,0.2,0.6,0.5c0.1,0.7-1,0.9-1.2,0.3
					c-0.1-0.2-0.5-0.1-0.4,0.1c0.2,0.5,0.7,0.8,1.3,0.7c0.6-0.1,0.9-0.6,0.8-1.2c-0.1-0.5-0.6-1-1.2-0.9c-0.6,0.1-1,0.8-0.8,1.4
					C64.1,76.8,64.5,76.7,64.4,76.5L64.4,76.5z"/>
			</g>
		</g>
	</g>
	<g>
		<g>
			<g>
				<path class="st0" d="M61.1,71.6c0-0.3,0.5-0.4,0.5,0C61.6,71.9,61.2,71.9,61.1,71.6c-0.1-0.2-0.5,0-0.4,0.3
					c0.1,0.3,0.5,0.5,0.9,0.4c0.4-0.1,0.5-0.4,0.5-0.8c-0.1-0.4-0.4-0.6-0.7-0.6c-0.4,0-0.7,0.4-0.7,0.7
					C60.6,71.9,61,71.9,61.1,71.6L61.1,71.6z"/>
			</g>
		</g>
	</g>
	<g>
		<g>
			<g>
				<path class="st0" d="M60.8,81.5C60.9,81.5,60.8,81.5,60.8,81.5c0,0,0,0,0.1,0c0.1,0,0.2,0.2,0.2,0.3c0,0.1,0,0.2-0.1,0.2
					c0,0-0.1,0-0.1,0c0-0.3-0.4-0.4-0.4-0.1c-0.1,0.4,0.2,0.6,0.6,0.6c0.4,0,0.6-0.5,0.5-0.9s-0.5-0.7-0.9-0.5
					c-0.3,0.1-0.4,0.6-0.1,0.8C60.8,82,61,81.7,60.8,81.5L60.8,81.5z"/>
			</g>
		</g>
	</g>
	<g>
		<g>
			<g>
				<path class="st0" d="M78.4,70.6c0-0.2,0.5-0.3,0.5,0C78.9,70.9,78.5,70.9,78.4,70.6c-0.1-0.2-0.5-0.1-0.4,0.1
					c0.1,0.3,0.4,0.5,0.7,0.5c0.4,0,0.6-0.3,0.6-0.7c0-0.4-0.2-0.6-0.6-0.7s-0.7,0.2-0.7,0.5C78,70.7,78.4,70.9,78.4,70.6L78.4,70.6
					z"/>
			</g>
		</g>
	</g>
	<g>
		<g>
			<g>
				<path class="st0" d="M80.2,80.6c-0.1-0.3,0.4-0.5,0.4-0.1C80.7,80.7,80.3,80.7,80.2,80.6c0-0.4-0.4-0.4-0.4-0.1
					c0,0.4,0.4,0.6,0.7,0.6c0.4,0,0.6-0.4,0.5-0.8c-0.1-0.4-0.5-0.6-0.9-0.5c-0.4,0.1-0.6,0.6-0.4,1c0,0.1,0.2,0.1,0.3,0.1
					C80.3,80.8,80.3,80.7,80.2,80.6L80.2,80.6z"/>
			</g>
		</g>
	</g>
	<g>
		<g>
			<g>
				<path class="st0" d="M61.1,72.7c-0.1,2.8-0.2,5.6-0.3,8.3c0,0.3,0.4,0.3,0.4,0c0.1-2.8,0.2-5.6,0.3-8.3
					C61.6,72.5,61.1,72.5,61.1,72.7L61.1,72.7z"/>
			</g>
		</g>
	</g>
	<g>
		<g>
			<g>
				<path class="st0" d="M64.2,70.8c3.8-0.4,7.6-0.6,11.3-0.4c0.3,0,0.3-0.4,0-0.4c-3.8-0.1-7.6,0-11.3,0.4
					C64,70.3,64,70.8,64.2,70.8L64.2,70.8z"/>
			</g>
		</g>
	</g>
	<g>
		<g>
			<g>
				<path class="st0" d="M64.7,82.7c4-0.3,7.9-0.7,11.8-1.2c0.3,0,0.3-0.5,0-0.4c-3.9,0.5-7.9,0.9-11.8,1.2
					C64.4,82.2,64.4,82.7,64.7,82.7L64.7,82.7z"/>
			</g>
		</g>
	</g>
	<g>
		<g>
			<g>
				<path class="st0" d="M78.3,72.2c0.5,2.1,1,4.2,1.6,6.3c0.1,0.3,0.5,0.1,0.4-0.1c-0.5-2.1-1-4.2-1.6-6.3
					C78.6,71.8,78.2,71.9,78.3,72.2L78.3,72.2z"/>
			</g>
		</g>
	</g>
	<g>
		<g>
			<g>
				<path class="st0" d="M64.8,76.4c0.1-0.1,0.1-0.1,0.2-0.2c0,0,0,0.1-0.1,0.1c0.1-0.1,0.1-0.2,0.2-0.3c-0.1,0-0.2,0-0.3,0
					c0.1,0,0.1,0.2,0.1,0.2c0.1,0,0.1-0.1,0.2-0.1c-0.1,0-0.1,0-0.1-0.1c0-0.3-0.4-0.3-0.4,0c0,0.2,0.1,0.3,0.2,0.4
					c0.1,0.1,0.4,0.1,0.5,0c0.2-0.3,0.1-0.7-0.2-0.9c-0.1,0-0.2,0-0.3,0c-0.1,0.1-0.3,0.3-0.3,0.5c0,0.1,0.1,0.3,0.3,0.3
					c0.4,0,0.4-0.6,0-0.6C64.6,76,64.6,76.4,64.8,76.4L64.8,76.4z"/>
			</g>
		</g>
	</g>
	<g>
		<g>
			<g>
				<path class="st0" d="M49.7,69c-0.3,4.1-1.2,8.6-0.6,12.7c0.1,0.8,0.3,2.1,1.1,2.5c0.9,0.4,1.9-0.5,2.4-1.1
					c2.4-2.2,2.1-5.2,1.5-8.1c-0.5-2.3-1-6.7-4.2-6.7c-0.3,0-0.3,0.4,0,0.4c3,0,3.5,5.1,4,7.3c0.4,2.4,0.6,6.1-2.1,7.2
					c-0.4,0.5-0.7,0.4-1.2-0.1c-0.6-0.1-0.9-0.4-0.9-1c-0.2-0.6-0.2-1.5-0.2-2.1c0-1.2,0-2.3,0.1-3.5c0.2-2.6,0.4-5.1,0.6-7.6
					C50.1,68.7,49.7,68.7,49.7,69L49.7,69z"/>
			</g>
		</g>
	</g>
	<g>
		<g>
			<g>
				<path class="st0" d="M53.2,69.6c0,1.5,0.5,2.8,1.4,3.9c0.1,0.1,0.3,0,0.4-0.1c0.5-1.6,0.1-3.3-1.1-4.4c-0.1-0.1-0.3-0.1-0.4,0
					c-0.2,0.4-0.2,0.6-0.1,1c0,0.3,0.5,0.2,0.4-0.1c0-0.2,0.1-0.4,0.1-0.6c-0.1,0-0.2,0-0.4,0c1.1,1.1,1.5,2.6,1,4
					c0.1,0,0.2-0.1,0.4-0.1c-0.9-1-1.3-2.2-1.2-3.6C53.6,69.3,53.2,69.3,53.2,69.6L53.2,69.6z"/>
			</g>
		</g>
	</g>
	<g>
		<g>
			<g>
				<path class="st0" d="M46.8,86.1c3.4,1.7,7.2,2.1,10.9,2.4c4.5,0.3,9.1,0.2,13.7,0c4.5-0.3,9.1-0.6,13.5-1.2
					c3.1-0.4,6.3-1.3,7.7-4.3c0.1-0.2-0.2-0.5-0.4-0.2c-1.9,3.9-6.6,4-10.4,4.4c-4,0.4-7.9,0.7-11.9,1c-3.8,0.2-7.7,0.2-11.5,0
					c-3.9-0.2-7.9-0.6-11.4-2.4C46.7,85.6,46.5,86,46.8,86.1L46.8,86.1z"/>
			</g>
		</g>
	</g>
	<g>
		<g>
			<g>
				<path class="st0" d="M47.2,63.7c6.6,3.8,14.2,4.5,21.6,4c7.5-0.5,15.6-1.2,22.5-4.3c0.2-0.1,0-0.5-0.2-0.4
					c-6.9,3.1-14.9,3.8-22.3,4.2c-7.3,0.5-14.9-0.1-21.4-4C47.2,63.2,47,63.6,47.2,63.7L47.2,63.7z"/>
			</g>
		</g>
	</g>
	<g>
		<g>
			<g>
				<path class="st0" d="M59.9,47.2c0.1,6.7,0.4,13.4,0.7,20.2c0,0.3,0.5,0.3,0.4,0c-0.4-6.7-0.6-13.4-0.7-20.2
					C60.4,46.9,59.9,46.9,59.9,47.2L59.9,47.2z"/>
			</g>
		</g>
	</g>
	<g>
		<g>
			<g>
				<path class="st0" d="M78.4,46.5c0.3,6.6,0.6,13.1,0.7,19.7c0,0.3,0.5,0.3,0.4,0c-0.1-6.6-0.4-13.2-0.7-19.7
					C78.9,46.2,78.4,46.2,78.4,46.5L78.4,46.5z"/>
			</g>
		</g>
	</g>
	<g>
		<g>
			<g>
				<path class="st0" d="M61.9,88.7c-0.4,4-0.7,9.2,2.3,12.4c0.1,0.1,0.3,0,0.4-0.1c0.1-0.1,0.1-0.3,0.2-0.4
					c0.1-0.2-0.3-0.4-0.4-0.1c-0.1,0.3-1.4-2.4-1.5-2.5c-0.4-1-0.5-2.1-0.6-3.2c-0.1-2-0.1-4,0.1-6C62.4,88.4,62,88.4,61.9,88.7
					L61.9,88.7z"/>
			</g>
		</g>
	</g>
	<g>
		<g>
			<g>
				<path class="st0" d="M76.4,100.1c1.2,0.5,2.3-2.4,2.6-3.1c1.1-2.9,1-6,0.8-9.1c0-0.3-0.5-0.3-0.4,0c0.1,2.1,0.2,4.1-0.1,6.1
					c-0.1,0.6-1.6,6.1-2.7,5.6C76.4,99.6,76.1,100,76.4,100.1L76.4,100.1z"/>
			</g>
		</g>
	</g>
	<g>
		<g>
			<g>
				<path class="st0" d="M58.8,65.9c0-0.3,0.6-0.4,0.6,0c0,0.1,0,0.1-0.1,0.2c0,0,0,0-0.1,0.1c0,0,0,0,0,0c0,0,0,0,0,0
					c-0.2-0.1-0.4-0.2-0.4-0.5c0-0.3-0.5-0.2-0.4,0.1c0.1,0.4,0.4,0.8,0.8,0.9c0.4,0.1,0.6-0.4,0.6-0.7c0-0.4-0.3-0.7-0.7-0.7
					c-0.4,0-0.7,0.2-0.8,0.6C58.3,66.1,58.7,66.2,58.8,65.9L58.8,65.9z"/>
			</g>
		</g>
	</g>
	<g>
		<g>
			<g>
				<path class="st0" d="M80.7,64.8c0-0.4,0.6-0.5,0.6,0c0,0.1-0.1,0.3-0.2,0.3C81,65.2,80.8,65,80.7,64.8c0-0.3-0.5-0.3-0.4,0
					c0,0.4,0.4,0.7,0.8,0.7c0.4,0,0.7-0.4,0.7-0.8c0-0.4-0.3-0.7-0.7-0.7c-0.4,0-0.8,0.4-0.8,0.8C80.3,65.1,80.7,65.1,80.7,64.8
					L80.7,64.8z"/>
			</g>
		</g>
	</g>
	<g>
		<g>
			<g>
				<path class="st0" d="M48.1,61.2c0.2-0.3,0.6-0.1,0.8,0.1c0.2,0.2,0.2,0.5,0.2,0.8c0,0.5,0,1,0.1,1.5c0.1,0.3,0.5,0.2,0.4-0.1
					c-0.2-0.8,0.2-1.9-0.5-2.5c-0.4-0.4-1.1-0.4-1.5,0.1C47.6,61.2,48,61.4,48.1,61.2L48.1,61.2z"/>
			</g>
		</g>
	</g>
	<g>
		<g>
			<g>
				<path class="st0" d="M89.4,63.7c0-0.4-0.1-0.8,0.1-1.1c0.1-0.2,0.5-0.4,0.8-0.2c0.2,0.2,0.5-0.1,0.3-0.3c-0.4-0.4-0.9-0.3-1.2,0
					c-0.5,0.4-0.5,1.1-0.4,1.6C89,63.9,89.4,63.9,89.4,63.7L89.4,63.7z"/>
			</g>
		</g>
	</g>
	<g>
		<g>
			<g>
				<path class="st0" d="M48.6,59.9c-0.3-6.2-1.2-12.8,0.2-18.9c0.1-0.3-0.4-0.4-0.4-0.1c-1.5,6.2-0.6,12.8-0.2,19
					C48.2,60.2,48.6,60.2,48.6,59.9L48.6,59.9z"/>
			</g>
		</g>
	</g>
	<g>
		<g>
			<g>
				<path class="st0" d="M87.4,36.4c2.1,3.5,2.1,7.6,2.2,11.6c0.2,4.2,0.4,8.4,0.5,12.7c0,0.3,0.5,0.3,0.4,0
					c-0.2-4.7-0.4-9.4-0.6-14.1c-0.1-3.6-0.4-7.2-2.2-10.4C87.7,35.9,87.3,36.1,87.4,36.4L87.4,36.4z"/>
			</g>
		</g>
	</g>
	<g>
		<g>
			<g>
				<path class="st0" d="M41.1,29.9c-1.9-0.1-3.1-2.2-1.9-3.8c1.1-1.6,3.5-1.1,4.2,0.6c0.1,0.2,0.5,0.1,0.4-0.1
					c-0.8-2.1-3.6-2.7-5-0.8c-1.4,1.9,0,4.3,2.3,4.5C41.4,30.3,41.4,29.9,41.1,29.9L41.1,29.9z"/>
			</g>
		</g>
	</g>
	<g>
		<g>
			<g>
				<path class="st0" d="M92,26.1c0.4-0.2,0.8-0.5,1.2-0.7c1.1-0.7,2.1-0.1,2.6,1c0.6,1.5,0,3.1-1.5,3.6c-0.3,0.1-0.1,0.5,0.1,0.4
					c1.8-0.6,2.6-2.5,1.8-4.2c-0.3-0.7-1-1.5-1.9-1.6c-1-0.1-1.7,0.8-2.5,1.2C91.5,25.8,91.7,26.2,92,26.1L92,26.1z"/>
			</g>
		</g>
	</g>
	<g>
		<g>
			<g>
				<path class="st0" d="M40.1,47.4c0.7,0.7,1.8,0.8,2.8,0.8c0.3,0,0.3-0.5,0-0.4c-0.9,0-1.8,0-2.5-0.6
					C40.3,46.9,39.9,47.2,40.1,47.4L40.1,47.4z"/>
			</g>
		</g>
	</g>
	<g>
		<g>
			<g>
				<path class="st0" d="M42.6,44.3c0.9,0.5,1.3,1.6,1,2.6c-0.1,0.3,0.4,0.4,0.4,0.1c0.3-1.2-0.2-2.4-1.2-3.1
					C42.6,43.8,42.4,44.2,42.6,44.3L42.6,44.3z"/>
			</g>
		</g>
	</g>
	<g>
		<g>
			<g>
				<path class="st0" d="M98.9,54.9c0.7-0.6,1.7-0.5,2.4,0.1c0.2,0.2,0.5-0.1,0.3-0.3c-0.8-0.8-2.1-0.8-3-0.1
					C98.4,54.7,98.7,55.1,98.9,54.9L98.9,54.9z"/>
			</g>
		</g>
	</g>
	<g>
		<g>
			<g>
				<path class="st0" d="M98.2,55c-0.5,0.8-0.7,1.9-0.3,2.8c0.3,0.7,0.9,1.2,1.7,1c0.3-0.1,0.1-0.5-0.1-0.4
					c-0.8,0.2-1.2-0.7-1.3-1.3c-0.1-0.7,0.1-1.3,0.4-1.9C98.8,55,98.4,54.7,98.2,55L98.2,55z"/>
			</g>
		</g>
	</g>
	<g>
		<g>
			<g>
				<path class="st0" d="M60.5,30.2c2.1,0.3,3.8,1.5,4.8,3.3c0.1,0.2,0.5,0,0.4-0.2c-1.1-2-3-3.2-5.2-3.5
					C60.2,29.7,60.2,30.2,60.5,30.2L60.5,30.2z"/>
			</g>
		</g>
	</g>
	<g>
		<g>
			<g>
				<path class="st0" d="M81.9,31.1c1.7,1.3,2.8,3.2,3,5.3c0,0.3,0.5,0.3,0.4,0c-0.2-2.3-1.3-4.3-3.2-5.7
					C81.9,30.6,81.7,31,81.9,31.1L81.9,31.1z"/>
			</g>
		</g>
	</g>
	<g>
		<g>
			<g>
				<path class="st0" d="M82.5,44.1c1.4-1.6,2.5-3.5,3.3-5.4c0.1-0.2-0.3-0.4-0.4-0.1c-0.8,1.9-1.9,3.6-3.2,5.2
					C82,44,82.3,44.3,82.5,44.1L82.5,44.1z"/>
			</g>
		</g>
	</g>
	<g>
		<g>
			<g>
				<path class="st0" d="M64.4,44.9c0.9-0.6,1.4-1.4,1.7-2.5c0.1-0.3-0.4-0.4-0.4-0.1c-0.2,0.9-0.7,1.6-1.5,2.2
					C64,44.7,64.2,45.1,64.4,44.9L64.4,44.9z"/>
			</g>
		</g>
	</g>
	<g>
		<g>
			<g>
				<path class="st0" d="M80,32.9c0.1,1.1,0.5,2.4,1.4,3.1c0.9,0.7,1.3-0.5,1.2-1.2c-0.1-0.9-0.6-2.2-1.5-2.7
					c-0.3-0.1-0.6-0.1-0.8,0.1c-0.4,0.4-0.2,0.9,0,1.4c0.1,0.2,0.5,0,0.4-0.2c0-0.8,0.1-1,0.4-0.6c0,0.1,0.1,0.1,0.1,0.2
					c0.2,0.2,0.4,0.4,0.5,0.7c0.2,0.5,0.4,1,0.4,1.6c0,0.5-0.5,0.5-0.8,0.2c-0.2-0.2-0.4-0.5-0.5-0.7c-0.3-0.5-0.4-1.1-0.5-1.7
					C80.4,32.6,79.9,32.6,80,32.9L80,32.9z"/>
			</g>
		</g>
	</g>
	<g>
		<g>
			<g>
				<path class="st0" d="M62.7,33.5c0.1,0.6,0.4,1.3,1,1.6c0.5,0.4,1.1-0.1,1-0.7c-0.1-0.5-0.6-1.4-1.1-1.5c-0.5-0.1-1,0.3-1,0.8
					c0,0.3,0.5,0.2,0.4-0.1c0-0.3,0.4-0.3,0.5-0.2c0.1,0.1,0.2,0.2,0.3,0.3c0.1,0.2,0.4,0.5,0.4,0.8c0,0.6-0.6,0.1-0.7-0.1
					c-0.2-0.2-0.4-0.6-0.4-0.9C63.1,33.2,62.6,33.2,62.7,33.5L62.7,33.5z"/>
			</g>
		</g>
	</g>
	<g>
		<g>
			<g>
				<path class="st0" d="M37,48.1c1.5-0.4,2.7-1.4,3.4-2.7c0.1-0.2-0.2-0.5-0.4-0.2c-0.7,1.2-1.7,2.1-3.1,2.5
					C36.6,47.8,36.7,48.2,37,48.1L37,48.1z"/>
			</g>
		</g>
	</g>
	<g>
		<g>
			<g>
				<path class="st0" d="M42.5,41.4c0,0.6-0.2,1.1-0.6,1.5c-0.2,0.2,0.1,0.5,0.3,0.3c0.5-0.5,0.7-1.1,0.8-1.8
					C42.9,41.1,42.5,41.1,42.5,41.4L42.5,41.4z"/>
			</g>
		</g>
	</g>
	<g>
		<g>
			<g>
				<path class="st0" d="M100.5,60.7c0.1-1.1-0.1-2.4,0.5-3.4c0.1-0.2-0.2-0.5-0.4-0.2c-0.6,1-0.5,2.4-0.6,3.6
					C100,61,100.5,61,100.5,60.7L100.5,60.7z"/>
			</g>
		</g>
	</g>
	<g>
		<g>
			<g>
				<path class="st0" d="M102.9,53.9c-0.6,0.3-1.1,0.9-1.2,1.5c-0.1,0.3,0.4,0.4,0.4,0.1c0.1-0.6,0.5-1,1-1.2
					C103.4,54.1,103.2,53.8,102.9,53.9L102.9,53.9z"/>
			</g>
		</g>
	</g>
	<g>
		<g>
			<g>
				<path class="st0" d="M64.5,100.1c3.9,0.1,7.7-0.3,11.5-1.2c0.3-0.1,0.2-0.5-0.1-0.4c-3.7,0.9-7.6,1.3-11.4,1.2
					C64.2,99.6,64.2,100.1,64.5,100.1L64.5,100.1z"/>
			</g>
		</g>
	</g>
	<g>
		<g>
			<g>
				<path class="st0" d="M67,53.7c-0.5,0.2-0.7,0.7-0.6,1.2c0.1,0.3,0.7,1,1.1,0.6c0.2-0.1,0.4-0.5,0.5-0.7c0.1-0.2,0.1-0.5,0-0.7
					C67.8,53.7,67.3,53.4,67,53.7c-0.2,0.2,0,0.6,0.2,0.4c0.2-0.2,0.5,0.1,0.5,0.4c0,0.3-0.2,0.6-0.5,0.8c0.1,0,0.1,0,0.2-0.1
					c-0.6-0.1-0.7-0.9-0.2-1.1C67.5,54,67.3,53.6,67,53.7L67,53.7z"/>
			</g>
		</g>
	</g>
	<g>
		<g>
			<g>
				<path class="st0" d="M70.7,54.3c-0.6-0.1-1,0.7-0.5,1.1c0.1,0,0.1,0,0.2,0c0.2-0.1,0.4-0.2,0.6-0.3c0.1,0,0.1-0.2,0.1-0.2
					c-0.1-0.2-0.2-0.5-0.5-0.7c-0.2-0.2-0.5,0.1-0.3,0.3c0.1,0.1,0.3,0.3,0.4,0.5c0-0.1,0.1-0.2,0.1-0.2c-0.2,0.1-0.4,0.2-0.6,0.3
					c0.1,0,0.1,0,0.2,0c-0.1-0.1,0-0.3,0.1-0.3C70.9,54.8,71,54.4,70.7,54.3L70.7,54.3z"/>
			</g>
		</g>
	</g>
	<g>
		<g>
			<g>
				<path class="st0" d="M102.3,98.3c-1.4,0.6-2,1.8-2.2,3.2c-0.4,2.9,1.1,5.5-1,7.9c-1.8,2.1-4.2,3.7-6.8,4.7c-2.3,1-5,1.2-7.1,2.6
					c-0.1,0.1-0.1,0.2,0,0.4c2.2,2.5,7.4,0.3,9.9-0.6c1.8-0.7,3.7-1.5,5.3-2.6c0.4-0.3,0.7-0.6,0.9-1.1c0.5-1.4-1.1-4.1,2-3.7
					c0.3,0,0.4-0.4,0.1-0.4c-1-0.1-2,0.2-2.5,1.2c-0.2,0.5-0.1,0.8-0.1,1.3c-0.1,2.1-0.2,2.1-1.6,2.9c-0.5,0.3-1.1,0.6-1.7,0.9
					c-2.2,1.1-4.7,2-7.1,2.5c-1,0.2-3.6,0.9-4.3,0c-0.7-0.9,2.1-1.4,2.7-1.6c3.9-1,7.6-2.9,10.4-5.9c1.1-1.2,1.6-2.5,1.6-4.1
					c0-2.3-1.2-6,1.6-7.2C102.7,98.7,102.6,98.2,102.3,98.3L102.3,98.3z"/>
			</g>
		</g>
	</g>
	<g>
		<g>
			<g>
				<path class="st0" d="M38.3,107.1c0.9,4.2,6.3,4,9.6,4.4c2.1,0.2,4.2,0.6,6.1-0.4c1.6-0.9,3.7-3.4,5.7-3.1c1.1,1.5,1.2,2.5,0.1,3
					c-0.2,0.1-0.5,0.2-0.7,0.3c-0.8,0.4-1.6,0.7-2.4,1c-1.2,0.5-2.4,1-3.7,1.3c-1.5,0.5-3.1,0.8-4.7,0.8c-1.2,0-2.4-0.1-3.6,0
					c-0.9,0.1-2.6,0.4-2.9,1.6c-0.1,0.4,0,0.7,0.3,1c0.2,0.4,0.6,0.4,1,0.7c0.8,0.3,0.7,1.1-0.3,2.3c-0.5,0-1.1-0.1-1.6-0.3
					c-0.3-0.1-0.4,0.4-0.1,0.4c1.1,0.3,3.6,0.7,3.6-1.2c0-0.6-0.3-0.9-0.7-1.2c-0.2-0.1-0.5-0.3-0.8-0.4c0-0.6-0.1-1.2-0.1-1.8
					c0.4-0.6,2.1-0.5,2.8-0.5c2.7,0,5.3-0.1,7.9-1c1.5-0.5,2.9-1,4.2-1.6c1-0.4,2.1-0.7,2.9-1.5c1-0.9,1.1-2.4-0.3-3
					c-1.6-0.7-3.5,0.6-4.8,1.5c-1,0.7-2,1.5-3.2,1.9c-1.6,0.5-3.3,0.1-4.8-0.1c-3.1-0.4-8.3-0.2-9.2-4.1
					C38.7,106.7,38.3,106.8,38.3,107.1L38.3,107.1z"/>
			</g>
		</g>
	</g>
	<g>
		<g>
			<g>
				<path class="st0" d="M39.3,114.3c1.2,0.2,2.4-0.1,3.4-0.9c0.1-0.1,0.1-0.2,0-0.3c-0.5-0.6-1.1-1-1.9-1.3c-0.3-0.1-0.6-0.2-1-0.3
					c-0.1,0-0.3-0.1-0.4-0.1c-0.1,0-0.1,0-0.2,0c-0.2-0.1-0.4,0-0.4,0.2c-0.1-0.1-0.1-0.1-0.2-0.2c0,0,0,0,0,0.1
					c0,0.3,0.4,0.3,0.4,0c0,0,0,0,0-0.1c0-0.1-0.1-0.2-0.2-0.2c-0.5-0.1-0.6,0.4-0.2,0.6c0.2,0.1,0.5,0.1,0.7,0.1
					c0.4,0.1,0.7,0.1,1.1,0.3c0.7,0.3,1.3,0.7,1.9,1.3c0-0.1,0-0.2,0-0.3c-0.8,0.7-1.9,1-2.9,0.7C39.1,113.8,39,114.2,39.3,114.3
					L39.3,114.3z"/>
			</g>
		</g>
	</g>
	<g>
		<g>
			<g>
				<path class="st0" d="M46.3,106.6c-0.4,0.4-1.5,0.4-1.3,1.2c0.1,0.6,1.2,0.8,1.7,0.6c0.5-0.1,1-0.7,0.8-1.3
					c-0.2-0.5-0.9-0.7-1.3-0.3c-0.2,0.2,0.1,0.5,0.3,0.3c0.3-0.4,0.7,0.2,0.5,0.5c-0.2,0.4-0.8,0.4-1.1,0.2
					c-0.2-0.1-0.6-0.1-0.4-0.5c0.1-0.1,0.3-0.2,0.5-0.2c0.2-0.1,0.5-0.2,0.6-0.4C46.8,106.7,46.5,106.4,46.3,106.6L46.3,106.6z"/>
			</g>
		</g>
	</g>
	<g>
		<g>
			<g>
				<path class="st0" d="M47.6,109.5c0.9,0.1,1.9,0,2.8-0.2c0.3-0.1,0.2-0.5-0.1-0.4c-0.9,0.2-1.8,0.2-2.7,0.2
					C47.3,109.1,47.3,109.5,47.6,109.5L47.6,109.5z"/>
			</g>
		</g>
	</g>
	<g>
		<g>
			<g>
				<path class="st0" d="M52.2,109.4c-0.7-0.2-1.4,0-1.9,0.4c-0.1,0.1-0.1,0.3,0,0.4c0.8,0.4,1.7,0.4,2.5-0.1c0.2-0.1,0.1-0.3,0-0.4
					c-0.3-0.1-0.6-0.2-0.9-0.4c-0.2-0.1-0.4,0.3-0.1,0.4c0.3,0.1,0.6,0.2,0.9,0.4c0-0.1,0-0.3,0-0.4c-0.6,0.4-1.4,0.4-2,0.1
					c0,0.1,0,0.2,0,0.4c0.4-0.4,0.9-0.5,1.5-0.3C52.4,109.9,52.5,109.4,52.2,109.4L52.2,109.4z"/>
			</g>
		</g>
	</g>
	<g>
		<g>
			<g>
				<path class="st0" d="M54.5,108.5c-0.4-0.1-0.8,0-1,0.3c-0.1,0.1,0,0.2,0,0.3c0.3,0.3,0.9,0.3,1.1,0c0.2-0.2-0.1-0.5-0.3-0.3
					c-0.1,0.1-0.4,0.1-0.5,0c0,0.1,0,0.2,0,0.3c0.1-0.2,0.3-0.2,0.5-0.1C54.7,109,54.8,108.6,54.5,108.5L54.5,108.5z"/>
			</g>
		</g>
	</g>
	<g>
		<g>
			<g>
				<path class="st0" d="M57.9,106.3c2.4-0.5,4.7-0.6,7.1-0.4c0.3,0,0.3-0.4,0-0.4c-2.4-0.2-4.8-0.1-7.2,0.4
					C57.5,106,57.6,106.4,57.9,106.3L57.9,106.3z"/>
			</g>
		</g>
	</g>
	<g>
		<g>
			<g>
				<path class="st0" d="M76.1,107.3c2.2-0.4,4.4-0.4,6.6-0.1c0.3,0,0.4-0.4,0.1-0.4c-2.3-0.3-4.6-0.3-6.8,0.1
					C75.8,106.9,75.9,107.3,76.1,107.3L76.1,107.3z"/>
			</g>
		</g>
	</g>
	<g>
		<g>
			<g>
				<path class="st0" d="M81.5,108.2c-0.3,0.1-0.5,0.2-0.7,0.4c-0.1,0.1-0.1,0.3,0.1,0.4c0.7,0.2,1.5,0.2,2.1,0
					c0.2-0.1,0.2-0.2,0.1-0.4c-0.3-0.4-0.8-0.4-1.2-0.2c-0.2,0.1,0,0.5,0.2,0.4c0.2-0.1,0.5-0.1,0.7,0.1c0-0.1,0.1-0.2,0.1-0.4
					c-0.6,0.2-1.3,0.2-1.9,0c0,0.1,0.1,0.2,0.1,0.4c0.1-0.2,0.3-0.2,0.5-0.3C81.9,108.6,81.7,108.2,81.5,108.2L81.5,108.2z"/>
			</g>
		</g>
	</g>
	<g>
		<g>
			<g>
				<path class="st0" d="M86.2,109.1c-0.5-0.1-1,0-1.4,0.3c-0.1,0.1-0.1,0.3,0,0.4c0.3,0.2,0.6,0.1,0.9-0.1c0.2-0.2-0.1-0.5-0.3-0.3
					c-0.1,0.1-0.2,0.1-0.4,0c0,0.1,0,0.2,0,0.4c0.3-0.2,0.7-0.3,1.1-0.2C86.3,109.6,86.5,109.2,86.2,109.1L86.2,109.1z"/>
			</g>
		</g>
	</g>
	<g>
		<g>
			<g>
				<path class="st0" d="M88.1,110.6c0.2-0.1,0.3-0.1,0.5-0.2c0.2-0.1,0.2-0.4,0-0.4c-0.7-0.2-1.8-0.2-2,0.7c-0.1,0.8,0.8,1,1.4,0.9
					c0.5-0.1,1.5-0.3,1.4-1.1c-0.1-0.5-0.7-1-1.1-0.5c-0.2,0.2,0.1,0.5,0.3,0.3c0.1-0.2,0.4,0.1,0.4,0.2c0,0.2-0.2,0.3-0.3,0.4
					c-0.2,0.1-0.6,0.2-0.9,0.2c-0.4,0-1.1-0.1-0.6-0.6c0.3-0.3,0.9-0.2,1.2-0.1c0-0.1,0-0.3,0-0.4c-0.2,0.1-0.3,0.1-0.5,0.2
					C87.7,110.3,87.8,110.7,88.1,110.6L88.1,110.6z"/>
			</g>
		</g>
	</g>
	<g>
		<g>
			<g>
				<path class="st0" d="M54.5,116.6c-0.4-0.5-1.2-0.2-1.5,0.4c-0.3,0.7,0.4,1.3,1,1.4c0.7,0.1,1.6-0.4,1.5-1.2
					c-0.1-0.6-0.9-0.9-1.3-0.4c-0.2,0.2,0.2,0.5,0.4,0.2c0.2-0.2,0.5,0,0.5,0.2c0,0.2-0.2,0.5-0.4,0.6c-0.2,0.1-0.6,0.2-0.9,0
					c-0.3-0.1-0.5-0.4-0.4-0.7c0.1-0.2,0.5-0.4,0.7-0.2C54.3,117.1,54.7,116.8,54.5,116.6L54.5,116.6z"/>
			</g>
		</g>
	</g>
	<g>
		<g>
			<g>
				<path class="st0" d="M48.5,91.5c-13.2,1.2-26.2,4.4-38.2,10c-0.2,0.1,0,0.5,0.2,0.4c11.9-5.6,24.9-8.7,38-9.9
					C48.8,91.9,48.8,91.5,48.5,91.5L48.5,91.5z"/>
			</g>
		</g>
	</g>
	<g>
		<g>
			<g>
				<path class="st0" d="M91.9,88.3c13.9,2.7,27.4,6.6,40.7,11.4c0.3,0.1,0.4-0.3,0.1-0.4c-13.3-4.8-26.9-8.7-40.7-11.4
					C91.8,87.8,91.7,88.2,91.9,88.3L91.9,88.3z"/>
			</g>
		</g>
	</g>
	<g>
		<g>
			<g>
				<path class="st0" d="M35.4,39.6c-0.8-1.1-0.8-1.9,0-2.4c0.2-0.2,0.5-0.4,0.9-0.5c1.4-0.2,1.1,0.6,1.6,1.2
					c0.2,0.2,0.5,0.4,0.8,0.4c0.5,0.1,1-0.1,1.6-0.1c0.1,0,0.2,0,0.3,0c0.9,1.4,0.6,2.1-0.8,2c-0.5,0-1,0-1.5,0
					c-0.3,0-0.3,0.5,0,0.4c1.1,0,4.2,0.1,3.7-2c-0.4-1.8-3-0.2-4-1.4c-0.4-0.5-0.4-1-1.2-1.1c-0.7-0.1-1.5,0.2-2,0.7
					c-1,0.9-1.1,2.5,0.4,3C35.5,40.1,35.7,39.7,35.4,39.6L35.4,39.6z"/>
			</g>
		</g>
	</g>
	<g>
		<g>
			<g>
				<path class="st0" d="M34.8,41c-1.4-0.6-2.7-1.6-2.6-3.2c0.1-2,2.2-3.2,4-2.4c1.5,0.7,1.9,2.6,3.6,2.8c0.3,0,0.3-0.4,0-0.4
					c-1.6-0.1-2.1-2.2-3.5-2.8c-1.1-0.5-2.5-0.4-3.5,0.4c-0.9,0.7-1.3,2-1.1,3.1c0.2,1.5,1.5,2.4,2.8,3C34.9,41.5,35.1,41.1,34.8,41
					L34.8,41z"/>
			</g>
		</g>
	</g>
</g>
</svg>
