<?xml version="1.0" encoding="utf-8"?>
<!-- Generator: Adobe Illustrator 24.0.1, SVG Export Plug-In . SVG Version: 6.00 Build 0)  -->
<svg version="1.1" id="Layer_1" xmlns="http://www.w3.org/2000/svg" xmlns:xlink="http://www.w3.org/1999/xlink" x="0px" y="0px"
	 viewBox="0 0 141.7 141.7" style="enable-background:new 0 0 141.7 141.7;" xml:space="preserve">
<style type="text/css">
	.st0{fill:#070707;}
</style>
<g id="Layer_1_1_">
</g>
<g id="Layer_1_2_">
</g>
<g id="Layer_1_3_">
</g>
<g id="Layer_1_4_">
</g>
<g id="Layer_1_5_">
</g>
<g id="Layer_3">
</g>
<g id="Layer_3_1_">
</g>
<g id="Layer_1_6_">
</g>
<g id="Layer_1_7_">
</g>
<g id="Layer_1_8_">
</g>
<g id="Layer_1_9_">
</g>
<g id="Layer_1_10_">
</g>
<g id="Layer_1_11_">
</g>
<g id="Layer_1_12_">
</g>
<g id="Layer_1_13_">
</g>
<g id="Layer_1_14_">
</g>
<g id="Layer_1_15_">
</g>
<g id="Layer_1_16_">
</g>
<g id="Layer_1_17_">
</g>
<g id="Layer_1_18_">
</g>
<g id="Layer_1_19_">
</g>
<g id="Layer_1_20_">
</g>
<g id="Layer_2_1_">
</g>
<g id="Layer_4">
	<g>
		<g>
			<g>
				<path class="st0" d="M83.4,38.6c-1.3-2.4-3.6-4.1-6.2-4.9c-3.4-1.1-7.1-0.4-10.5-0.1c-3.1,0.3-6,1.4-8.1,3.7
					c-2.1,2.3-3,5.1-3.4,8.1c-0.6,4.1-0.2,8.3,0.3,12.5c0,0.4,0.6,0.4,0.6,0c-0.8-7.2-2-17.3,5-21.9c1.7-1.1,4-1.5,6-1.7
					c2.1-0.2,4.3-0.4,6.4-0.4c3.7,0.1,7.4,1.9,9.3,5.2C83.1,39.2,83.6,38.9,83.4,38.6L83.4,38.6z"/>
			</g>
		</g>
	</g>
	<g>
		<g>
			<g>
				<path class="st0" d="M65.5,34.3c0.4,0,0.4-0.6,0-0.6S65.1,34.3,65.5,34.3L65.5,34.3z"/>
			</g>
		</g>
	</g>
	<g>
		<g>
			<g>
				<path class="st0" d="M52,37c-2.1-0.2-3.5-2.4-2.2-4.3c1-1.4,3.8-2.3,5.1-0.9c0.3,0.3,0.7-0.1,0.4-0.4c-1.7-1.8-5.1-0.7-6.2,1.3
					c-1.3,2.3,0.4,4.7,2.9,4.9C52.3,37.6,52.3,37,52,37L52,37z"/>
			</g>
		</g>
	</g>
	<g>
		<g>
			<g>
				<path class="st0" d="M83.9,31.7c1.5-0.8,4-1.2,5.2,0.5c1.1,1.7,0.4,4.3-1.7,4.8c-0.4,0.1-0.2,0.6,0.2,0.6
					c2.4-0.5,3.3-3.3,2.2-5.4c-1.2-2.3-4.1-1.9-6.1-0.9C83.3,31.4,83.6,31.9,83.9,31.7L83.9,31.7z"/>
			</g>
		</g>
	</g>
	<g>
		<g>
			<g>
				<path class="st0" d="M68.4,46.7c0,0,0.1,0,0.1,0c0-0.1-0.1-0.2-0.1-0.3c-0.5,0.3-1,0.5-1.5,0.9c-0.4,0.4-0.7,0.8-0.7,1.4
					c0.3,2.1,3.4,0.7,4.5,0.7c1.1,0,3.2,1.2,3.5-0.7c0.2-1.4-1.5-2.2-2.6-2.6c-0.2-0.1-0.3,0.2-0.1,0.3c0.4,0.2,0.9,0.4,1.3,0.6
					c0.3,0.2,0.6,0.4,0.7,0.6c0.4,0.5,0.7,1.7-0.6,1.9c-0.9,0.1-1.7-0.5-2.6-0.4c-0.4,0-0.8,0.2-1.2,0.3c-0.4,0.1-0.8,0.2-1.3,0.2
					c-0.3,0-0.6-0.1-0.9-0.3c-0.1-0.4-0.2-0.8-0.3-1.2c0.1-0.8,1.3-1.1,1.9-1.5c0.1-0.1,0-0.3-0.1-0.3c0,0-0.1,0-0.1,0
					C68.2,46.5,68.2,46.7,68.4,46.7L68.4,46.7z"/>
			</g>
		</g>
	</g>
	<g>
		<g>
			<g>
				<path class="st0" d="M72.1,49.6c0.2,0.6,0.4,1.4,0.2,2c-0.1,0.5-0.6,0.8-1.1,0.7c-0.4-0.1-0.4-0.4-0.6-0.7
					c-0.1-0.2-0.3,0-0.3,0.1c0.2,0.4,0.3,0.7,0.7,0.9c0.4,0.1,0.8,0,1.1-0.2c0.8-0.6,0.6-2.1,0.3-2.9C72.3,49.4,72,49.5,72.1,49.6
					L72.1,49.6z"/>
			</g>
		</g>
	</g>
	<g>
		<g>
			<g>
				<path class="st0" d="M90.9,71.1c0,0.3,0.2,0.6,0.2,0.9c0.2,0.7,0,1.7-0.5,2.2c-0.6,0.7-1.9,0.9-2-0.4c-0.1-0.7,0.3-1.5,0.6-2.1
					c0.1-0.2-0.2-0.3-0.3-0.1c-0.4,0.8-0.9,1.8-0.6,2.7c0.2,0.6,0.7,0.8,1.4,0.7c0.8-0.2,1.3-0.8,1.6-1.6c0.1-0.4,0.2-1,0.1-1.5
					c0-0.3-0.3-0.6-0.3-1C91.2,70.9,90.9,70.9,90.9,71.1L90.9,71.1z"/>
			</g>
		</g>
	</g>
	<g>
		<g>
			<g>
				<path class="st0" d="M89.5,73.4c0,0.5-0.2,1.2-0.8,1.1c-0.2,0-0.3,0.2-0.1,0.3c0.8,0.2,1.2-0.7,1.2-1.4
					C89.8,73.3,89.5,73.3,89.5,73.4L89.5,73.4z"/>
			</g>
		</g>
	</g>
	<g>
		<path class="st0" d="M65.5,46.6c-2.6,0-4.8-2.1-4.8-4.8c0-2.6,2.1-4.8,4.8-4.8c2.6,0,4.8,2.1,4.8,4.8
			C70.3,44.5,68.2,46.6,65.5,46.6z M65.5,37.4c-2.4,0-4.4,2-4.4,4.4c0,2.4,2,4.4,4.4,4.4c2.4,0,4.4-2,4.4-4.4
			C70,39.4,68,37.4,65.5,37.4z"/>
	</g>
	<g>
		<path class="st0" d="M76.1,45.9c-2.6,0-4.8-2.1-4.8-4.8c0-2.6,2.1-4.8,4.8-4.8c2.6,0,4.8,2.1,4.8,4.8
			C80.9,43.7,78.7,45.9,76.1,45.9z M76.1,36.6c-2.4,0-4.4,2-4.4,4.4c0,2.4,2,4.4,4.4,4.4c2.4,0,4.4-2,4.4-4.4
			C80.5,38.6,78.5,36.6,76.1,36.6z"/>
	</g>
	<g>
		<circle class="st0" cx="86.6" cy="33.8" r="1"/>
	</g>
	<g>
		<circle class="st0" cx="52.4" cy="34" r="1"/>
	</g>
	<g>
		<path class="st0" d="M72.4,46.1c0-0.6-0.9-1.1-2.1-1.1c-1.1,0-2.1,0.5-2.1,1.1s0.9,1.1,2.1,1.1C71.4,47.3,72.4,46.8,72.4,46.1z"/>
	</g>
	<g>
		<path class="st0" d="M67.1,42.9c-0.7-0.5-1.6-0.4-2.1,0.2c-0.5,0.7-0.4,1.6,0.2,2.1c0.7,0.5,1.6,0.4,2.1-0.2S67.7,43.4,67.1,42.9z
			 M66,45.2c-0.2-0.1-0.2-0.4-0.1-0.6s0.4-0.2,0.6-0.1c0.2,0.1,0.2,0.4,0.1,0.6C66.4,45.3,66.2,45.3,66,45.2z"/>
	</g>
	<g>
		<path class="st0" d="M77.7,42.5c-0.6-0.6-1.5-0.6-2.1,0c-0.6,0.6-0.6,1.5,0,2.1c0.6,0.6,1.5,0.6,2.1,0
			C78.2,44,78.3,43.1,77.7,42.5z M76.3,44.6c-0.2-0.2-0.2-0.4,0-0.6c0.2-0.2,0.4-0.2,0.6,0c0.2,0.2,0.2,0.4,0,0.6
			C76.8,44.8,76.5,44.8,76.3,44.6z"/>
	</g>
	<g>
		<g>
			<g>
				<path class="st0" d="M70.3,49.3c0.1,0.6,0.1,1.3,0,1.8c0,0.3-0.1,0.7-0.3,1c-0.3,0.4-0.8,0.4-1.2,0.1c-0.6-0.6-0.4-1.8-0.2-2.5
					c0-0.2-0.2-0.3-0.3-0.1c-0.3,0.9-0.4,2.7,0.7,3c1.8,0.5,1.6-2.5,1.5-3.4C70.6,49.1,70.3,49.1,70.3,49.3L70.3,49.3z"/>
			</g>
		</g>
	</g>
	<g>
		<g>
			<g>
				<path class="st0" d="M60,82.3c0.1,1.1,0.8,2.3,1.8,3c0.7,0.5,1.4,0.5,1.5-0.4c0-0.2-0.3-0.3-0.3-0.1c-0.2,1-1.1,0.4-1.5-0.1
					c-0.6-0.6-1.1-1.5-1.2-2.3C60.3,82.1,60,82.1,60,82.3L60,82.3z"/>
			</g>
		</g>
	</g>
	<g>
		<g>
			<g>
				<path class="st0" d="M62.3,84.2c0.2,0.3,0.5,0.7,0.9,0.6c0.4-0.1,0.5-0.5,0.5-0.8c0-1-1.1-1.9-1.9-2.3c-0.2-0.1-0.3,0.2-0.1,0.3
					c0.6,0.3,1.2,0.8,1.5,1.3c0.2,0.3,0.4,0.7,0.2,1c-0.2,0.5-0.7,0-0.8-0.3C62.5,83.9,62.2,84,62.3,84.2L62.3,84.2z"/>
			</g>
		</g>
	</g>
	<g>
		<g>
			<g>
				<path class="st0" d="M82.7,38.4c1.8,2.7,2.3,5.9,2.4,9.1c0.1,3.3,0,6.5,0.1,9.7c0,0.4,0.6,0.4,0.6,0c-0.2-3.5,0-7-0.1-10.5
					c-0.1-3-0.7-6.1-2.4-8.6C83,37.7,82.5,38,82.7,38.4L82.7,38.4z"/>
			</g>
		</g>
	</g>
	<g>
		<g>
			<g>
				<path class="st0" d="M77.2,60.3C77.2,60.3,77.3,60.3,77.2,60.3c0.3,0,0.3-0.3,0.1-0.3c0,0,0,0,0,0c0,0-0.1,0-0.1,0.1
					c0,0,0,0,0,0c0.1,0,0.1,0.1,0.2,0.2c0,0,0,0,0-0.1C77.3,60.2,77.2,60.2,77.2,60.3C77.2,60.3,77.2,60.3,77.2,60.3
					c0.1,0.1,0.4-0.1,0.2-0.2c0,0,0,0-0.1-0.1c-0.1-0.1-0.2,0-0.2,0.1c0,0,0,0,0,0.1C77,60.3,77.2,60.4,77.2,60.3
					c0.1,0,0.2,0,0.2-0.1C77.4,60.3,77.3,60.3,77.2,60.3C77.3,60.3,77.3,60.3,77.2,60.3c0.3,0,0.3-0.3,0.1-0.3c0,0,0,0-0.1,0
					C77,60,77,60.3,77.2,60.3L77.2,60.3z"/>
			</g>
		</g>
	</g>
	<g>
		<path class="st0" d="M66.1,46.4c-2.3,0-4.2-1.9-4.2-4.2c0-2.3,1.9-4.2,4.2-4.2c2.3,0,4.2,1.9,4.2,4.2
			C70.3,44.5,68.4,46.4,66.1,46.4z M66.1,38.4c-2.1,0-3.8,1.7-3.8,3.8S64,46,66.1,46c2.1,0,3.8-1.7,3.8-3.8S68.2,38.4,66.1,38.4z"/>
	</g>
	<g>
		<path class="st0" d="M76.6,45.7c-2.3,0-4.2-1.9-4.2-4.2c0-2.3,1.9-4.2,4.2-4.2s4.2,1.9,4.2,4.2C80.8,43.9,78.9,45.7,76.6,45.7z
			 M76.6,37.8c-2.1,0-3.8,1.7-3.8,3.8c0,2.1,1.7,3.8,3.8,3.8s3.8-1.7,3.8-3.8C80.4,39.5,78.7,37.8,76.6,37.8z"/>
	</g>
	<g>
		<g>
			<g>
				<path class="st0" d="M72.1,46.4c0.7,0,1.6,0.2,2.2,0.7c0.7,0.6,0.7,2.1-0.4,2.2c-0.2,0-0.2,0.3,0,0.3c1-0.1,1.5-1.1,1.1-2
					c-0.5-1.1-1.8-1.4-2.8-1.5C71.9,46.1,71.9,46.4,72.1,46.4L72.1,46.4z"/>
			</g>
		</g>
	</g>
	<g>
		<g>
			<g>
				<path class="st0" d="M72.7,49.8c0.4,0.9,0.5,2.6-0.9,2.6c-0.2,0-0.2,0.3,0,0.3c0.6,0,1.1-0.4,1.4-1c0.3-0.7,0.1-1.4-0.2-2
					C72.9,49.4,72.7,49.6,72.7,49.8L72.7,49.8z"/>
			</g>
		</g>
	</g>
	<g>
		<g>
			<g>
				<path class="st0" d="M60.3,83c-0.1,0-0.2,0.1-0.3,0.1c-0.2-0.3-0.4-0.6-0.6-0.8c0-0.1,0.5-0.3,0.6-0.4c0.5-0.3,1-0.6,1.5-0.8
					c0.4-0.2,1.2-0.5,1.7-0.4c1,0.2-0.2,1.2-0.7,1.3c-0.2,0.1-0.1,0.4,0.1,0.3c0.8-0.3,1.3-0.9,1.5-1.7c0-0.1,0-0.2-0.1-0.2
					c-0.8-0.1-1.6,0-2.4,0.3c-0.8,0.3-1.9,0.8-2.5,1.4c-0.3,0.3-0.4,0.6-0.1,0.9c0.3,0.6,1,0.4,1.5,0.2C60.5,83.2,60.4,82.9,60.3,83
					L60.3,83z"/>
			</g>
		</g>
	</g>
	<g>
		<g>
			<g>
				<path class="st0" d="M91.1,71.9c0.5,0,1.2-0.1,1.1-0.7c-0.1-0.8-1.5-0.9-2.1-0.9c-0.7,0-1.9,0-2.2,0.7c-0.2,0.7,0.5,1,1,1.1
					c0.2,0,0.3-0.3,0.1-0.3c-0.1,0-0.3,0-0.4-0.1c-0.2-0.7-0.1-1.1,0.4-1.1c0.3-0.1,0.7-0.1,1.1-0.1c0.3,0,0.8,0,1.1,0.1
					c0.4,0,0.5,0.3,0.4,0.9c-0.2,0-0.4,0-0.5,0C90.9,71.6,90.9,71.9,91.1,71.9L91.1,71.9z"/>
			</g>
		</g>
	</g>
	<g>
		<g>
			<g>
				<path class="st0" d="M59.2,82.8c-0.2-0.3-0.5-0.5-0.7-0.7c-0.3-0.4-0.6,0.1-0.1-0.7c0.5-0.7,1.4-1.2,2.1-1.6
					c0.5-0.3,2.1-0.9,2.8-0.7c1.1,0.5,0.2,0.9,0.2,1.5c0,0.2,0.3,0.2,0.3,0c0-0.5,0.7-1,0.4-1.5c-0.3-0.5-1.3-0.3-1.7-0.3
					c-2,0.2-3.7,1.4-4.9,2.9c0,0.1,0,0.2,0,0.2c0.5,0.2,0.8,0.5,1.1,1C59,83.1,59.3,83,59.2,82.8L59.2,82.8z"/>
			</g>
		</g>
	</g>
	<g>
		<g>
			<g>
				<path class="st0" d="M88.3,71.5c0-0.4-0.1-0.7-0.2-1.1C88,70.1,87.9,70.2,88,70c0-0.1,0.9-0.2,1-0.2c1.5-0.2,3,0.2,4.2,1
					c0-0.1,0-0.2,0-0.3c-0.6,0.2-1,0.5-1.4,1c-0.1,0.2,0.1,0.3,0.3,0.1c0.3-0.5,0.7-0.8,1.2-0.9c0.1,0,0.1-0.2,0-0.3
					c-1.7-1.1-3.8-1.4-5.8-0.7c-0.1,0-0.1,0.2-0.1,0.2c0.4,0.4,0.6,0.9,0.5,1.4C88,71.7,88.3,71.7,88.3,71.5L88.3,71.5z"/>
			</g>
		</g>
	</g>
	<g>
		<g>
			<g>
				<path class="st0" d="M58,81.8c-0.1-1.5,0.6-3,1.9-3.7c1.5-0.8,3.2,0,4.1,1.3c0.1,0.2,0.4,0,0.3-0.1c-0.9-1.3-2.6-2.1-4.1-1.5
					c-1.6,0.6-2.4,2.4-2.3,4.1C57.7,82,58,82,58,81.8L58,81.8z"/>
			</g>
		</g>
	</g>
	<g>
		<g>
			<g>
				<path class="st0" d="M93.6,70.7c0.7-1.7-2-2.8-3.3-3c-1.5-0.1-3.4,0.7-2.7,2.5c0.1,0.2,0.3,0,0.3-0.1c-0.9-2.1,2.1-2.2,3.1-1.9
					c0.9,0.2,2.9,1.2,2.4,2.5C93.2,70.8,93.5,70.9,93.6,70.7L93.6,70.7z"/>
			</g>
		</g>
	</g>
	<g>
		<g>
			<g>
				<path class="st0" d="M55.8,57c0.3,0.1,0.5,0.3,0.8,0.2c0.2,0,0.4-0.2,0.4-0.4c0-0.2-0.1-0.4-0.4-0.5c-0.2,0-0.4,0.4-0.4,0.6
					c0,0.2,0,0.5,0.1,0.6s0.4,0,0.5-0.2c0.1-0.3,0.1-1-0.4-1c0,0-0.1,0-0.1,0.1c-0.1,0.3-0.1,0.6,0,0.9c0,0,0.1,0.1,0.2,0.1
					c0.3-0.1,0.4-0.6,0.1-0.8c-0.1,0-0.1,0-0.2,0c-0.2,0.1-0.2,0.4,0,0.6c0,0.1,0.1,0,0.2,0c0.1-0.1,0.2-0.3,0.1-0.4
					c0-0.1-0.2-0.1-0.2-0.1c-0.1,0.1-0.1,0.4,0,0.5c0.1,0.1,0.4-0.1,0.2-0.2c0,0,0,0,0,0c-0.1,0-0.2,0-0.2-0.1c0,0.1,0,0.1,0,0.2
					c0.1,0,0.1,0,0.2,0c0-0.1,0-0.1,0-0.2c-0.1,0-0.1,0-0.2,0c0.1,0,0.1,0.2,0,0.3c0,0,0.1,0,0.2,0.1c-0.1-0.2-0.1-0.4,0-0.6
					c0,0-0.1,0-0.1,0.1c0.2,0,0.2,0.4,0.1,0.5c-0.1,0.2-0.1-0.1-0.1-0.2c0-0.2,0.1-0.3,0.2-0.4c0,0-0.1,0-0.1,0.1
					c0.1,0,0.1,0.1,0.1,0.2c0,0.1-0.2,0.1-0.2,0.1c-0.2,0-0.4-0.1-0.6-0.2C55.8,56.6,55.7,56.9,55.8,57L55.8,57z"/>
			</g>
		</g>
	</g>
	<g>
		<g>
			<g>
				<path class="st0" d="M85.7,57c-0.6-0.4-1.5,0-1.4,0.8c0,0.1,0.2,0.2,0.3,0.1c0.3-0.3,0.4-0.7,0.1-1.1c0-0.1-0.2-0.1-0.2,0
					c-0.2,0.2-0.3,0.4-0.2,0.7c0,0.1,0.2,0.1,0.2,0.1c0.1-0.1,0.2-0.3,0.1-0.5c0-0.1-0.1-0.1-0.2-0.1c-0.3,0.2-0.3,0.5-0.1,0.8
					c0,0,0.2,0,0.2,0c0.1-0.2,0.2-0.4,0.1-0.6c0-0.1-0.1-0.1-0.2-0.1c-0.2,0.1-0.3,0.4-0.1,0.5c0.1,0.2,0.4,0,0.3-0.1
					c0,0,0-0.1,0-0.1c-0.1,0-0.1,0-0.2-0.1c0,0.1,0,0.2,0,0.3c0.1,0,0.1,0,0.2,0c-0.1-0.1,0-0.3,0.1-0.3c-0.1,0-0.1,0-0.2-0.1
					c0,0.1,0,0.1,0,0.2c0.1,0,0.2,0,0.2,0.1c0-0.2,0-0.3,0.2-0.4c-0.1,0-0.2,0-0.2,0c0.2,0.2,0.1,0.5-0.1,0.7c0.1,0,0.2,0.1,0.3,0.1
					c0-0.5,0.5-0.8,1-0.5C85.7,57.3,85.8,57.1,85.7,57L85.7,57z"/>
			</g>
		</g>
	</g>
	<g>
		<g>
			<g>
				<path class="st0" d="M61.1,82.2c0.5-0.4,1.1-0.6,1.7-0.4c0.2,0,0.3-0.2,0.1-0.3c-0.7-0.2-1.4,0-1.9,0.4
					C60.7,82.1,61,82.3,61.1,82.2L61.1,82.2z"/>
			</g>
		</g>
	</g>
	<g>
		<g>
			<g>
				<path class="st0" d="M91.4,71.1C91,70.8,90.5,70.8,90,71c-0.2,0.1-0.1,0.4,0.1,0.3c0.4-0.1,0.8-0.1,1.2,0.1
					C91.4,71.4,91.6,71.2,91.4,71.1L91.4,71.1z"/>
			</g>
		</g>
	</g>
	<g>
		<g>
			<g>
				<path class="st0" d="M52,37.4c0.2,0,0.2-0.3,0-0.3C51.8,37.1,51.8,37.4,52,37.4L52,37.4z"/>
			</g>
		</g>
	</g>
	<g>
		<g>
			<g>
				<path class="st0" d="M50.7,37.3c0.1,0.6-0.2,1.7,0.9,1.4c0.7-0.2,1.4-1.3,1.9-1.9c0.5-0.6,0.9-1.3,1.3-1.9
					c0.5-0.8,0.9-1.6,1.2-2.4c0.2-0.4,0.7-1.2,0.5-1.7c-0.3-1-1.4-0.4-1.8,0c-0.1,0.1,0.1,0.3,0.2,0.2c1.1-0.2,1.5,0,1.1,0.6
					c0,0.1-0.1,0.2-0.1,0.4c-0.2,0.5-0.4,0.9-0.6,1.4c-0.4,0.7-0.7,1.4-1.2,2c-0.5,0.7-1,1.5-1.6,2.1c-0.4,0.4-0.4,0.6-1,0.5
					c-0.7-0.1-0.4-0.2-0.5-0.7C51,37.1,50.7,37.1,50.7,37.3L50.7,37.3z"/>
			</g>
		</g>
	</g>
	<g>
		<g>
			<g>
				<path class="st0" d="M51.7,37.7c0.4-0.4,0.7-0.8,1-1.2c0.1-0.2-0.2-0.3-0.3-0.1c-0.2,0.4-0.5,0.8-0.9,1.2
					C51.4,37.7,51.6,37.9,51.7,37.7L51.7,37.7z"/>
			</g>
		</g>
	</g>
	<g>
		<g>
			<g>
				<path class="st0" d="M55.2,31.2c-0.1,0.5-0.4,1.1-0.7,1.5c-0.1,0.2,0.2,0.3,0.3,0.1c0.3-0.5,0.5-1,0.7-1.6
					C55.5,31.1,55.2,31,55.2,31.2L55.2,31.2z"/>
			</g>
		</g>
	</g>
	<g>
		<g>
			<g>
				<path class="st0" d="M84.5,31c-0.4-0.4-0.9-0.6-1.5-0.7c0,0-0.1,0-0.1,0.1c-0.2,1.3,0.4,2.6,0.9,3.7c0.6,1.3,1.5,2.6,2.5,3.7
					c0.5,0.5,1.5,1.1,2,0.3c0.3-0.5,0-1-0.4-1.1c-0.2,0-0.3,0.2-0.1,0.3c-0.6,0.7-1,0.7-1.3,0.3c-0.1-0.1-0.2-0.2-0.3-0.3
					c-0.3-0.3-0.6-0.7-0.8-1c-0.4-0.5-0.7-1.1-1-1.6c-0.3-0.6-0.6-1.2-0.9-1.9c-0.1-0.3-0.3-0.6-0.3-0.9c0-0.7,0.4-1.3,1.1-0.7
					C84.5,31.3,84.7,31.1,84.5,31L84.5,31z"/>
			</g>
		</g>
	</g>
	<g>
		<g>
			<g>
				<path class="st0" d="M86.8,36.6c-0.1,0.5,0.3,1,0.8,1.1c0.2,0,0.2-0.3,0-0.3c-0.3,0-0.6-0.4-0.5-0.7
					C87.1,36.5,86.8,36.4,86.8,36.6L86.8,36.6z"/>
			</g>
		</g>
	</g>
	<g>
		<g>
			<g>
				<path class="st0" d="M83.6,30.9c-0.1,0.6,0.2,1.2,0.8,1.5c0.2,0.1,0.3-0.2,0.1-0.3c-0.4-0.3-0.7-0.7-0.6-1.2
					C83.9,30.8,83.6,30.8,83.6,30.9L83.6,30.9z"/>
			</g>
		</g>
	</g>
	<g>
		<g>
			<g>
				<path class="st0" d="M54.5,35.4c0.7,0.7,1.4,1.2,2.2,1.7c0.5,0.3,1.3,0.9,2,0.7c0.2-0.1,0.1-0.4-0.1-0.3
					c-0.7,0.2-1.7-0.6-2.2-0.9c-0.6-0.4-1.2-0.9-1.7-1.4C54.5,35,54.3,35.2,54.5,35.4L54.5,35.4z"/>
			</g>
		</g>
	</g>
	<g>
		<g>
			<g>
				<path class="st0" d="M81.5,36.6c1.2-0.1,2.2-0.6,3.1-1.4c0.1-0.1-0.1-0.3-0.2-0.2c-0.8,0.7-1.8,1.2-2.9,1.3
					C81.3,36.3,81.3,36.6,81.5,36.6L81.5,36.6z"/>
			</g>
		</g>
	</g>
	<g>
		<g>
			<g>
				<path class="st0" d="M53.9,35.7c1.3,1.1,2.6,2.4,3,4.1c0,0.2,0.3,0.1,0.3-0.1c-0.4-1.8-1.8-3.1-3.1-4.3
					C54,35.3,53.8,35.5,53.9,35.7L53.9,35.7z"/>
			</g>
		</g>
	</g>
	<g>
		<g>
			<g>
				<path class="st0" d="M83.1,38.1c-0.1,0-0.2,0-0.3,0c0,0,0.1,0.1,0.1,0.1c0.1-1.1,0.9-2,1.9-2.3c0.2,0,0.1-0.4-0.1-0.3
					c-1.2,0.4-2,1.4-2.1,2.6c0,0.1,0.1,0.1,0.1,0.1c0.1,0,0.2,0,0.3,0C83.3,38.4,83.3,38.1,83.1,38.1L83.1,38.1z"/>
			</g>
		</g>
	</g>
	<g>
		<g>
			<g>
				<path class="st0" d="M56.6,38.7c0.7,0,1.1-0.8,0.8-1.4c-0.1-0.2-0.3,0-0.3,0.1c0.2,0.4-0.1,0.9-0.5,0.9
					C56.4,38.4,56.4,38.7,56.6,38.7L56.6,38.7z"/>
			</g>
		</g>
	</g>
	<g>
		<g>
			<g>
				<path class="st0" d="M56,37.7c0.5,0,0.7-0.7,0.4-1c-0.1-0.1-0.4,0.1-0.2,0.2c0.2,0.1,0,0.5-0.2,0.5C55.8,37.4,55.8,37.7,56,37.7
					L56,37.7z"/>
			</g>
		</g>
	</g>
	<g>
		<g>
			<g>
				<path class="st0" d="M82.2,36.3c0.1,0.3,0.3,0.6,0.6,0.8c0.2,0.1,0.3-0.2,0.1-0.3c-0.2-0.1-0.4-0.4-0.5-0.6
					C82.4,36,82.1,36.1,82.2,36.3L82.2,36.3z"/>
			</g>
		</g>
	</g>
	<g>
		<g>
			<g>
				<path class="st0" d="M83.1,35.7c-0.2,0.3-0.1,0.7,0.3,0.8c0.1,0,0.2,0,0.2-0.1s0-0.2-0.1-0.2c-0.1,0-0.2-0.2-0.1-0.3
					C83.4,35.8,83.2,35.6,83.1,35.7L83.1,35.7z"/>
			</g>
		</g>
	</g>
	<g>
		<g>
			<g>
				<path class="st0" d="M82.8,37.1c0,0,0.1,0,0.1,0.1c0.2,0.1,0.3-0.1,0.1-0.3c0,0-0.1,0-0.1-0.1C82.8,36.7,82.7,36.9,82.8,37.1
					L82.8,37.1z"/>
			</g>
		</g>
	</g>
	<g>
		<g>
			<g>
				<path class="st0" d="M65.2,59.9c0-1-0.1-1.9-0.3-2.8c-0.1-0.5-0.3-1.2-1-1.4c-1.3-0.2-1.5,1.9-1.3,2.7c0,0.2,0.3,0.1,0.3-0.1
					c-0.1-0.5-0.1-1,0-1.4c0.2-0.7,0.7-0.8,1.6-0.2c0,0.2,0.1,0.4,0.1,0.6c0.2,0.9,0.2,1.7,0.2,2.6C64.9,60.1,65.2,60.1,65.2,59.9
					L65.2,59.9z"/>
			</g>
		</g>
	</g>
	<g>
		<g>
			<g>
				<path class="st0" d="M77.5,60.2c0-0.4,0-0.8,0-1.2c0-0.5,0.1-1.2,0.5-1.5c0.9-0.6,1.7,0.6,2,1.3c0.1,0.1,0.3,0,0.3-0.1
					c0-0.1,0-0.1,0-0.2c0-0.2-0.3-0.1-0.3,0.1c0,0.1,0,0.1,0,0.2c0.1,0,0.2-0.1,0.3-0.1c-0.4-0.8-1.2-1.9-2.3-1.5
					c-1,0.4-0.9,2.2-0.8,3.1C77.2,60.4,77.5,60.4,77.5,60.2L77.5,60.2z"/>
			</g>
		</g>
	</g>
	<g>
		<g>
			<g>
				<path class="st0" d="M63.4,57.5c-0.1-0.1,0-0.2,0-0.3c0,0,0.1-0.1,0.1-0.1c0,0,0,0,0,0c0,0,0,0.1,0,0.1c0,0.1,0,0.3-0.1,0.4
					C63.5,57.7,63.3,57.6,63.4,57.5c0-0.1-0.3-0.2-0.3,0C63,57.8,63.3,58,63.5,58c0.4,0,0.5-0.4,0.4-0.7c0-0.1-0.1-0.3-0.2-0.4
					c-0.1,0-0.3,0-0.4,0.1c-0.2,0.1-0.4,0.5-0.2,0.7C63.2,57.8,63.5,57.7,63.4,57.5L63.4,57.5z"/>
			</g>
		</g>
	</g>
	<g>
		<g>
			<g>
				<path class="st0" d="M78.3,58.4c0-0.1,0-0.3,0.2-0.4c0.1,0,0.2,0.1,0.3,0.2C78.8,58.5,78.4,58.6,78.3,58.4
					c-0.1-0.2-0.4-0.1-0.3,0.1c0.1,0.3,0.4,0.4,0.7,0.3c0.3-0.1,0.4-0.4,0.3-0.7c-0.1-0.3-0.4-0.5-0.6-0.4s-0.5,0.4-0.4,0.7
					C78.1,58.6,78.4,58.6,78.3,58.4L78.3,58.4z"/>
			</g>
		</g>
	</g>
	<g>
		<g>
			<g>
				<path class="st0" d="M56,58.3c0.2,0,0.2-0.3,0-0.3C55.8,58,55.8,58.3,56,58.3L56,58.3z"/>
			</g>
		</g>
	</g>
	<g>
		<g>
			<g>
				<path class="st0" d="M80.7,60c1.6-0.5,3.1-1.2,4.5-2.1c0.1,0,0.1-0.2,0-0.2c-0.1-0.1-0.1-0.2-0.2-0.2c-0.1-0.1-0.4,0.1-0.2,0.2
					c0.1,0.1,0.2,0.2,0.2,0.2c0-0.1,0-0.2,0-0.2c-1.4,0.9-2.8,1.6-4.4,2.1C80.4,59.8,80.5,60.1,80.7,60L80.7,60z"/>
			</g>
		</g>
	</g>
	<g>
		<g>
			<g>
				<path class="st0" d="M68.3,61.2c2.3,0.1,4.7,0.1,7.1-0.1c0.2,0,0.2-0.3,0-0.3C73,61,70.6,61,68.3,60.9
					C68.1,60.9,68.1,61.2,68.3,61.2L68.3,61.2z"/>
			</g>
		</g>
	</g>
	<g>
		<g>
			<g>
				<path class="st0" d="M56,58.1c1.9,1.7,4.2,2.3,6.6,2.7c0.2,0,0.3-0.3,0.1-0.3c-2.4-0.4-4.7-1-6.5-2.6C56.1,57.8,55.9,58,56,58.1
					L56,58.1z"/>
			</g>
		</g>
	</g>
	<g>
		<g>
			<g>
				<path class="st0" d="M80.7,58.7c1.5-0.4,2.9-0.8,4.3-1.3c0.2-0.1,0.1-0.4-0.1-0.3c-1.4,0.5-2.9,1-4.3,1.3
					C80.4,58.5,80.5,58.8,80.7,58.7L80.7,58.7z"/>
			</g>
		</g>
	</g>
	<g>
		<g>
			<g>
				<path class="st0" d="M65.4,60.3c3.9,0,7.8-0.2,11.6-0.8c0.2,0,0.1-0.3-0.1-0.3c-3.8,0.6-7.7,0.7-11.5,0.8
					C65.2,60,65.2,60.3,65.4,60.3L65.4,60.3z"/>
			</g>
		</g>
	</g>
	<g>
		<g>
			<g>
				<path class="st0" d="M56.1,57.6c2,1.2,4.2,1.9,6.5,2.3c0.2,0,0.3-0.3,0.1-0.3c-2.2-0.4-4.4-1.1-6.4-2.3
					C56,57.2,55.9,57.5,56.1,57.6L56.1,57.6z"/>
			</g>
		</g>
	</g>
	<g>
		<g>
			<g>
				<path class="st0" d="M64.4,46.7c0.1,4.4,0.2,8.8,0.5,13.3c0,0.2,0.3,0.2,0.3,0c-0.2-4.4-0.4-8.8-0.5-13.3
					C64.7,46.6,64.4,46.6,64.4,46.7L64.4,46.7z"/>
			</g>
		</g>
	</g>
	<g>
		<g>
			<g>
				<path class="st0" d="M76.6,46.2c0.2,4.3,0.4,8.6,0.5,13c0,0.2,0.3,0.2,0.3,0c-0.1-4.3-0.2-8.6-0.5-13
					C76.8,46.1,76.5,46.1,76.6,46.2L76.6,46.2z"/>
			</g>
		</g>
	</g>
	<g>
		<g>
			<g>
				<path class="st0" d="M56.6,55.9c0.1-0.2,0.4-0.1,0.5,0c0.1,0.1,0.2,0.3,0.2,0.5c0,0.3,0,0.6,0,1c0,0.2,0.3,0.1,0.3-0.1
					c-0.1-0.5,0.1-1.2-0.4-1.7c-0.3-0.3-0.7-0.3-1,0.1C56.3,55.9,56.5,56.1,56.6,55.9L56.6,55.9z"/>
			</g>
		</g>
	</g>
	<g>
		<g>
			<g>
				<path class="st0" d="M83.8,57.5c0-0.2,0-0.5,0.1-0.7c0.1-0.2,0.4-0.3,0.5-0.1c0.1,0.1,0.3-0.1,0.2-0.2c-0.2-0.2-0.6-0.2-0.8,0
					c-0.3,0.3-0.3,0.7-0.3,1.1C83.5,57.7,83.8,57.7,83.8,57.5L83.8,57.5z"/>
			</g>
		</g>
	</g>
	<g>
		<g>
			<g>
				<path class="st0" d="M56.9,55.1c-0.2-4.1-0.8-8.4,0.2-12.4c0-0.2-0.2-0.3-0.3-0.1c-1,4.1-0.4,8.4-0.2,12.5
					C56.7,55.3,57,55.3,56.9,55.1L56.9,55.1z"/>
			</g>
		</g>
	</g>
	<g>
		<g>
			<g>
				<path class="st0" d="M82.5,39.6c1.4,2.3,1.4,5,1.5,7.6c0.1,2.8,0.2,5.6,0.4,8.3c0,0.2,0.3,0.2,0.3,0c-0.1-3.1-0.3-6.2-0.4-9.3
					c-0.1-2.4-0.2-4.8-1.5-6.8C82.6,39.3,82.3,39.5,82.5,39.6L82.5,39.6z"/>
			</g>
		</g>
	</g>
	<g>
		<g>
			<g>
				<path class="st0" d="M52,35.3c-1.2-0.1-2-1.4-1.3-2.5s2.3-0.7,2.7,0.4c0.1,0.2,0.4,0.1,0.3-0.1c-0.5-1.4-2.4-1.8-3.3-0.5
					c-0.9,1.2,0,2.9,1.5,3C52.2,35.6,52.2,35.3,52,35.3L52,35.3z"/>
			</g>
		</g>
	</g>
	<g>
		<g>
			<g>
				<path class="st0" d="M85.5,32.8c0.3-0.1,0.5-0.3,0.8-0.5c0.7-0.4,1.4-0.1,1.7,0.7c0.4,1,0,2.1-1,2.4c-0.2,0-0.1,0.3,0.1,0.3
					c1.2-0.4,1.7-1.7,1.2-2.8c-0.2-0.5-0.7-1-1.2-1.1c-0.6-0.1-1.1,0.5-1.7,0.8C85.1,32.7,85.3,32.9,85.5,32.8L85.5,32.8z"/>
			</g>
		</g>
	</g>
	<g>
		<g>
			<g>
				<path class="st0" d="M59.8,80.1c-0.3-0.6,0-1.3,0.1-1.9c0-0.2-0.2-0.3-0.3-0.1c-0.2,0.7-0.4,1.4-0.1,2.1
					C59.5,80.4,59.8,80.3,59.8,80.1L59.8,80.1z"/>
			</g>
		</g>
	</g>
	<g>
		<g>
			<g>
				<path class="st0" d="M91.4,68.4c0.5,0.3,0.7,1,0.4,1.5c-0.1,0.2,0.2,0.3,0.3,0.1c0.4-0.7,0.1-1.5-0.5-1.9
					C91.3,68,91.2,68.3,91.4,68.4L91.4,68.4z"/>
			</g>
		</g>
	</g>
	<g>
		<g>
			<g>
				<path class="st0" d="M91.2,68c-0.6-0.1-1.3-0.1-1.8,0.3c-0.4,0.3-0.6,0.8-0.4,1.3c0.1,0.2,0.4,0,0.3-0.1
					c-0.3-0.4,0.2-0.9,0.5-1.1c0.4-0.2,0.8-0.2,1.3-0.1C91.3,68.3,91.4,68,91.2,68L91.2,68z"/>
			</g>
		</g>
	</g>
	<g>
		<g>
			<g>
				<path class="st0" d="M58.6,82.4c0.5-0.8,1.3-1.4,2.3-1.5c0.2,0,0.1-0.3-0.1-0.3c-1,0.2-1.9,0.8-2.4,1.6
					C58.2,82.4,58.5,82.5,58.6,82.4L58.6,82.4z"/>
			</g>
		</g>
	</g>
	<g>
		<g>
			<g>
				<path class="st0" d="M88,70.5c0.7-0.2,1.5-0.5,2.2-0.3c0.2,0,0.3-0.2,0.1-0.3c-0.8-0.2-1.6,0.1-2.4,0.3
					C87.7,70.2,87.8,70.5,88,70.5L88,70.5z"/>
			</g>
		</g>
	</g>
	<g>
		<g>
			<g>
				<path class="st0" d="M92.7,70.8c-0.3-0.3-0.7-0.5-1.2-0.5c-0.2,0-0.2,0.3,0,0.3c0.4,0,0.7,0.1,1,0.4
					C92.7,71.1,92.9,70.9,92.7,70.8L92.7,70.8z"/>
			</g>
		</g>
	</g>
	<g>
		<g>
			<g>
				<path class="st0" d="M69,51c-0.3,0.1-0.5,0.5-0.4,0.8c0.1,0.2,0.4,0.6,0.7,0.4c0.1-0.1,0.3-0.3,0.3-0.5c0.1-0.2,0.1-0.3,0-0.5
					C69.6,51,69.3,50.8,69,51c-0.2,0.1,0,0.4,0.1,0.3c0.2-0.1,0.3,0.1,0.3,0.2c0,0.2-0.2,0.4-0.3,0.5c0,0,0.1,0,0.1,0
					c-0.4,0-0.5-0.6-0.1-0.7C69.4,51.2,69.2,50.9,69,51L69,51z"/>
			</g>
		</g>
	</g>
	<g>
		<g>
			<g>
				<path class="st0" d="M71.5,51.4c-0.4-0.1-0.6,0.5-0.3,0.7c0,0,0.1,0,0.1,0c0.1-0.1,0.2-0.1,0.4-0.2c0,0,0.1-0.1,0.1-0.2
					C71.7,51.6,71.6,51.4,71.5,51.4c-0.2-0.2-0.4,0-0.2,0.1c0.1,0.1,0.2,0.2,0.2,0.3c0,0,0-0.1,0.1-0.2c-0.1,0.1-0.2,0.1-0.4,0.2
					c0,0,0.1,0,0.1,0c0,0,0-0.2,0.1-0.2C71.6,51.7,71.7,51.4,71.5,51.4L71.5,51.4z"/>
			</g>
		</g>
	</g>
	<g>
		<path class="st0" d="M38.5,51.2c-1.3,0-2.4-1.1-2.4-2.4c0-1.3,1.1-2.4,2.4-2.4s2.4,1.1,2.4,2.4C40.9,50.2,39.8,51.2,38.5,51.2z
			 M38.5,46.5c-1.3,0-2.3,1-2.3,2.3c0,1.3,1,2.3,2.3,2.3s2.3-1,2.3-2.3C40.8,47.6,39.8,46.5,38.5,46.5z"/>
	</g>
	<g>
		<path class="st0" d="M58.9,29.1c-1.1,0-2-0.9-2-2s0.9-2,2-2c1.1,0,2,0.9,2,2S60,29.1,58.9,29.1z M58.9,25.3c-1,0-1.9,0.8-1.9,1.9
			s0.8,1.9,1.9,1.9s1.9-0.8,1.9-1.9S60,25.3,58.9,25.3z"/>
	</g>
	<g>
		<path class="st0" d="M69.5,20.4c-0.5,0-0.8-0.4-0.8-0.8c0-0.5,0.4-0.8,0.8-0.8c0.5,0,0.8,0.4,0.8,0.8C70.3,20,69.9,20.4,69.5,20.4
			z M69.5,18.7c-0.4,0-0.8,0.4-0.8,0.8s0.4,0.8,0.8,0.8c0.4,0,0.8-0.4,0.8-0.8S69.9,18.7,69.5,18.7z"/>
	</g>
	<g>
		<path class="st0" d="M101.7,37.5c-2.3,0-4.2-1.9-4.2-4.2s1.9-4.2,4.2-4.2c2.3,0,4.2,1.9,4.2,4.2S104,37.5,101.7,37.5z M101.7,29.2
			c-2.3,0-4.1,1.8-4.1,4.1c0,2.3,1.8,4.1,4.1,4.1c2.3,0,4.1-1.8,4.1-4.1C105.8,31.1,104,29.2,101.7,29.2z"/>
	</g>
	<g>
		<path class="st0" d="M104.1,51.5c-0.5,0-0.9-0.4-0.9-0.9c0-0.5,0.4-0.9,0.9-0.9c0.5,0,0.9,0.4,0.9,0.9
			C105,51,104.6,51.5,104.1,51.5z M104.1,49.7c-0.5,0-0.9,0.4-0.9,0.9c0,0.5,0.4,0.9,0.9,0.9s0.9-0.4,0.9-0.9
			C104.9,50.1,104.5,49.7,104.1,49.7z"/>
	</g>
	<g>
		<path class="st0" d="M34.2,35l-0.4-0.8L33,34.1l0.6-0.6l-0.1-0.8l0.7,0.4l0.7-0.4l-0.1,0.8l0.6,0.6l-0.8,0.1L34.2,35z M33.1,34.1
			l0.7,0.1l0.4,0.7l0.3-0.7l0.7-0.1l-0.5-0.5l0.1-0.8l-0.6,0.4l-0.7-0.3l0.1,0.7L33.1,34.1z"/>
	</g>
	<g>
		<path class="st0" d="M45.5,22.8L45,20.6l-2.2-0.8l2-1.3l0-2.3l1.8,1.5l2.2-0.7L48,19.2l1.3,1.9L47,21L45.5,22.8z M42.9,19.8
			l2.1,0.7l0.6,2.2l1.4-1.8l0,0l2.2,0.1l-1.3-1.9l0.8-2.1l-2.2,0.6l0,0l-1.7-1.4l0,2.3l0,0L42.9,19.8z"/>
	</g>
	<g>
		<path class="st0" d="M92.7,44.9l-0.3-0.6l-0.6-0.1l0.5-0.4l-0.1-0.6l0.5,0.3l0.6-0.3l-0.2,0.6l0.4,0.5L93,44.4L92.7,44.9z
			 M92,44.2l0.5,0.1l0,0l0.2,0.5l0.3-0.5l0.5,0l-0.4-0.4l0,0l0.1-0.5l-0.5,0.2l-0.5-0.3l0.1,0.5L92,44.2z"/>
	</g>
	<g>
		<path class="st0" d="M86.6,24.8L86.6,24.8l-0.9-4.2l-4-1.6l3.6-2.2l0.3-4.3l3.2,2.8l4.1-1.1l0,0.1l-1.6,3.9l2.3,3.6l-4.3-0.4
			L86.6,24.8z M81.8,19l3.9,1.5l0.9,4.1l2.7-3.2l4.2,0.4l-2.2-3.5l0,0l1.6-3.8l-4,1l0,0l-3.2-2.7l-0.3,4.2l0,0L81.8,19z"/>
	</g>
	<g>
		<g>
			<g>
				<path class="st0" d="M84.7,115.6c0.4-0.3,0.6-0.5,0.8-1c0.2-0.4,0.2-0.8,0.4-1.1c0.1-0.2,0.3-0.3,0.4-0.6c0.5-1.1,0.1-2.9,0.1-4
					c-0.1-4.2-0.3-8.4-0.5-12.6c-0.5-8.4-1-16.8-0.8-25.2c0.1-4.6,0.3-9.2,0.8-13.8c0-0.2-0.3-0.2-0.3,0
					c-1.7,15.5-0.2,31.1,0.4,46.6c0.1,2.2,0.1,4.5,0.2,6.7c0,1,0.1,1.8-0.4,2.7c-0.4,0.7-0.6,1.6-1.3,2.1
					C84.5,115.4,84.6,115.7,84.7,115.6L84.7,115.6z"/>
			</g>
		</g>
	</g>
	<g>
		<g>
			<g>
				<path class="st0" d="M62.1,117c2.6,0.8,5.4,0.4,8.1,0.5c3,0.1,6-0.4,9-0.7c0.2,0,0.2-0.3,0-0.3c-2.8,0.3-5.7,0.7-8.6,0.7
					c-2.8,0-5.8,0.4-8.5-0.4C62,116.7,61.9,117,62.1,117L62.1,117z"/>
			</g>
		</g>
	</g>
	<g>
		<g>
			<g>
				<path class="st0" d="M55.4,57.6c1.6,8.9,1.8,18.1,1.4,27.1c-0.2,4.4-0.6,8.8-1.1,13.1c-0.4,3.6-1,7.1-1.4,10.7
					c-0.3,2.6-0.2,5.6,2.6,6.9c0.2,0.1,0.3-0.2,0.1-0.3c-3-1.3-2.7-4.8-2.3-7.5c0.5-3.5,1-7,1.4-10.5c0.9-8.5,1.4-17.1,1.1-25.6
					c-0.2-4.7-0.6-9.4-1.5-14C55.7,57.4,55.4,57.4,55.4,57.6L55.4,57.6z"/>
			</g>
		</g>
	</g>
	<g>
		<g>
			<g>
				<path class="st0" d="M65.7,102.2c-4.5,3.1-1.3,9.1,2.2,11.4c4,2.7,9.4,2.6,12.7-1.1c3-3.3,3.4-9.3-1.4-11.2
					c-1.1-0.4-2.3-0.7-3.4-0.9c-1-0.2-1.8-0.5-2.1-1.6c-0.3-0.9-0.2-2-0.3-3c-0.2-3.5-0.2-7-0.2-10.4c-0.1-8-0.2-15.9-0.2-23.9
					c0-0.2-0.3-0.2-0.3,0c0,6.1,0.1,12.2,0.2,18.3c0.1,5.9-0.1,11.9,0.5,17.8c0.1,0.8,0,2,0.7,2.6c0.7,0.6,1.8,0.6,2.6,0.8
					c2.8,0.6,5.3,1.7,5.9,4.8c1,5.2-4.1,9.9-9.1,9.6c-2.9-0.2-5.6-1.6-7.5-3.8c-2.1-2.5-3.2-6.8,0-9C66,102.3,65.8,102.1,65.7,102.2
					L65.7,102.2z"/>
			</g>
		</g>
	</g>
	<g>
		<g>
			<g>
				<path class="st0" d="M65.7,102.3c2.7-0.8,3.4-3.6,3.5-6.1c0.3-3.8,0.2-7.6,0.1-11.5c-0.2-7.8-0.6-15.8,0.9-23.5
					c0-0.2-0.3-0.3-0.3-0.1C68.7,68,68.9,75,69,82c0.1,3.5,0.2,7.1,0.1,10.6c-0.1,3.1,0.3,8.2-3.5,9.3
					C65.5,102,65.5,102.3,65.7,102.3L65.7,102.3z"/>
			</g>
		</g>
	</g>
	<g>
		<g>
			<g>
				<path class="st0" d="M65.1,99.5c4.5-0.3,9-0.6,13.5-0.8c0.2,0,0.2-0.3,0-0.3c-4.5,0.2-9,0.5-13.5,0.8
					C64.9,99.2,64.9,99.5,65.1,99.5L65.1,99.5z"/>
			</g>
		</g>
	</g>
	<g>
		<g>
			<g>
				<path class="st0" d="M66.8,98c2.1-0.1,4.2-0.3,6.3-0.8c0.2,0,0.1-0.3-0.1-0.3c-2.1,0.4-4.1,0.7-6.3,0.8
					C66.6,97.7,66.6,98,66.8,98L66.8,98z"/>
			</g>
		</g>
	</g>
	<g>
		<g>
			<g>
				<path class="st0" d="M67.4,96.6c2.5-0.3,5-0.5,7.5-0.8c0.2,0,0.2-0.3,0-0.3c-2.5,0.3-5,0.5-7.5,0.8
					C67.2,96.4,67.2,96.6,67.4,96.6L67.4,96.6z"/>
			</g>
		</g>
	</g>
	<g>
		<g>
			<g>
				<path class="st0" d="M67.2,95.5c2.3-0.3,4.6-0.5,6.9-0.7c0.2,0,0.2-0.3,0-0.3c-2.3,0.3-4.6,0.5-6.9,0.7
					C67,95.2,67,95.5,67.2,95.5L67.2,95.5z"/>
			</g>
		</g>
	</g>
	<g>
		<g>
			<g>
				<path class="st0" d="M66.9,94.2c3.2-0.4,6.3-0.7,9.5-1c0.2,0,0.2-0.3,0-0.3c-3.2,0.4-6.3,0.7-9.5,1C66.7,94,66.7,94.2,66.9,94.2
					L66.9,94.2z"/>
			</g>
		</g>
	</g>
	<g>
		<g>
			<g>
				<path class="st0" d="M65.1,92.9c4.8-0.5,9.6-0.8,14.4-0.9c0.2,0,0.2-0.3,0-0.3c-4.8,0.1-9.6,0.4-14.4,0.9
					C64.9,92.6,64.9,92.9,65.1,92.9L65.1,92.9z"/>
			</g>
		</g>
	</g>
	<g>
		<g>
			<g>
				<path class="st0" d="M67.2,91.4c2.3-0.2,4.5-0.5,6.8-0.9c0.2,0,0.1-0.3-0.1-0.3c-2.2,0.4-4.5,0.7-6.7,0.9
					C67,91.1,67,91.4,67.2,91.4L67.2,91.4z"/>
			</g>
		</g>
	</g>
	<g>
		<g>
			<g>
				<path class="st0" d="M68,89.5c2.4-0.4,4.8-0.7,7.2-0.8c0.2,0,0.2-0.3,0-0.3c-2.4,0.1-4.9,0.3-7.3,0.8
					C67.8,89.3,67.9,89.5,68,89.5L68,89.5z"/>
			</g>
		</g>
	</g>
	<g>
		<g>
			<g>
				<path class="st0" d="M67.7,87.7c1.9-0.2,3.9-0.3,5.8-0.5c0.2,0,0.2-0.3,0-0.3c-1.9,0.2-3.9,0.3-5.8,0.5
					C67.5,87.4,67.5,87.7,67.7,87.7L67.7,87.7z"/>
			</g>
		</g>
	</g>
	<g>
		<g>
			<g>
				<path class="st0" d="M67.6,86.4c1.9-0.4,3.8-0.5,5.8-0.6c0.2,0,0.2-0.3,0-0.3c-2,0-3.9,0.2-5.9,0.6
					C67.3,86.2,67.4,86.5,67.6,86.4L67.6,86.4z"/>
			</g>
		</g>
	</g>
	<g>
		<g>
			<g>
				<path class="st0" d="M66.2,84.6c3.5-0.2,7.1-0.5,10.6-0.7c0.2,0,0.2-0.3,0-0.3c-3.5,0.2-7.1,0.5-10.6,0.7
					C66,84.3,66,84.6,66.2,84.6L66.2,84.6z"/>
			</g>
		</g>
	</g>
	<g>
		<g>
			<g>
				<path class="st0" d="M67.5,83.2c2.2,0,4.5-0.3,6.6-0.8c0.2,0,0.1-0.3-0.1-0.3c-2.2,0.5-4.3,0.7-6.6,0.7
					C67.4,82.9,67.4,83.2,67.5,83.2L67.5,83.2z"/>
			</g>
		</g>
	</g>
	<g>
		<g>
			<g>
				<path class="st0" d="M67.8,81.7c2.4-0.3,4.9-0.6,7.3-1.1c0.2,0,0.1-0.3-0.1-0.3c-2.4,0.5-4.8,0.8-7.2,1.1
					C67.7,81.4,67.7,81.7,67.8,81.7L67.8,81.7z"/>
			</g>
		</g>
	</g>
	<g>
		<g>
			<g>
				<path class="st0" d="M67.6,79.9c2.2-0.4,4.4-0.6,6.6-0.6c0.2,0,0.2-0.3,0-0.3c-2.2,0.1-4.4,0.3-6.6,0.6
					C67.3,79.6,67.4,79.9,67.6,79.9L67.6,79.9z"/>
			</g>
		</g>
	</g>
	<g>
		<g>
			<g>
				<path class="st0" d="M67.4,78.3c1.8-0.2,3.6-0.4,5.4-0.6c0.2,0,0.2-0.3,0-0.3c-1.8,0.2-3.6,0.4-5.4,0.6
					C67.2,78,67.2,78.3,67.4,78.3L67.4,78.3z"/>
			</g>
		</g>
	</g>
	<g>
		<g>
			<g>
				<path class="st0" d="M65.9,76.9c4-0.3,7.9-0.7,11.9-1.2c0.2,0,0.1-0.3-0.1-0.3c-3.9,0.5-7.8,0.9-11.8,1.2
					C65.7,76.7,65.7,76.9,65.9,76.9L65.9,76.9z"/>
			</g>
		</g>
	</g>
	<g>
		<g>
			<g>
				<path class="st0" d="M66.8,75.2c2.9-0.4,5.7-0.6,8.6-0.7c0.2,0,0.2-0.3,0-0.3c-2.9,0.1-5.7,0.4-8.6,0.7
					C66.6,74.9,66.6,75.2,66.8,75.2L66.8,75.2z"/>
			</g>
		</g>
	</g>
	<g>
		<g>
			<g>
				<path class="st0" d="M67.1,73.8c2.5-0.4,4.9-0.9,7.4-1.5c0.2,0,0.1-0.3-0.1-0.3c-2.4,0.6-4.9,1-7.4,1.5
					C66.9,73.5,67,73.8,67.1,73.8L67.1,73.8z"/>
			</g>
		</g>
	</g>
	<g>
		<g>
			<g>
				<path class="st0" d="M67.7,72c1.8-0.3,3.6-0.5,5.4-0.8c0.2,0,0.1-0.3-0.1-0.3c-1.8,0.3-3.6,0.5-5.4,0.8
					C67.5,71.8,67.6,72.1,67.7,72L67.7,72z"/>
			</g>
		</g>
	</g>
	<g>
		<g>
			<g>
				<path class="st0" d="M67.4,70.5c2.2-0.4,4.5-0.7,6.7-0.9c0.2,0,0.2-0.3,0-0.3c-2.3,0.2-4.5,0.5-6.8,0.9
					C67.2,70.2,67.2,70.5,67.4,70.5L67.4,70.5z"/>
			</g>
		</g>
	</g>
	<g>
		<g>
			<g>
				<path class="st0" d="M65.2,69.1c3.9-0.5,7.9-0.9,11.8-1.2c0.2,0,0.2-0.3,0-0.3c-4,0.3-7.9,0.7-11.8,1.2
					C65.1,68.9,65.1,69.2,65.2,69.1L65.2,69.1z"/>
			</g>
		</g>
	</g>
	<g>
		<g>
			<g>
				<path class="st0" d="M67.2,67.6c2.6-0.3,5.3-0.7,8-1c0.2,0,0.2-0.3,0-0.3c-2.6,0.3-5.3,0.7-8,1C67,67.3,67,67.6,67.2,67.6
					L67.2,67.6z"/>
			</g>
		</g>
	</g>
	<g>
		<g>
			<g>
				<path class="st0" d="M67.7,65.6c2.5-0.2,5-0.4,7.5-0.6c0.2,0,0.2-0.3,0-0.3c-2.5,0.2-5,0.4-7.5,0.6
					C67.5,65.4,67.5,65.6,67.7,65.6L67.7,65.6z"/>
			</g>
		</g>
	</g>
	<g>
		<g>
			<g>
				<path class="st0" d="M68.4,64.4c1.8-0.3,3.7-0.4,5.5-0.3c0.2,0,0.2-0.3,0-0.3c-1.9,0-3.7,0.1-5.6,0.3
					C68.1,64.1,68.2,64.4,68.4,64.4L68.4,64.4z"/>
			</g>
		</g>
	</g>
	<g>
		<g>
			<g>
				<path class="st0" d="M67.4,62.8c2,0.2,4,0.2,6,0c0.2,0,0.2-0.3,0-0.3c-2,0.2-4,0.2-6,0C67.2,62.5,67.2,62.8,67.4,62.8L67.4,62.8
					z"/>
			</g>
		</g>
	</g>
	<g>
		<g>
			<g>
				<path class="st0" d="M61.7,99.7c0.3-0.3,0.6-0.7,0.8-1c-0.1,0-0.2-0.1-0.3-0.1c-0.3,0.7-0.4,1.5-0.3,2.2c0,0.2,0.3,0.2,0.3,0
					c-0.1-0.7,0-1.5,0.3-2.2c0-0.2-0.2-0.3-0.3-0.1c-0.2,0.4-0.5,0.7-0.8,1C61.4,99.6,61.6,99.8,61.7,99.7L61.7,99.7z"/>
			</g>
		</g>
	</g>
	<g>
		<g>
			<g>
				<path class="st0" d="M62,92.6c0-0.4,0.2-0.7,0.6-0.8c-0.1,0-0.1-0.1-0.2-0.1c0.2,0.8,0,1.7-0.6,2.3c-0.1,0.1,0,0.2,0,0.2
					c0.6,0.4,1.4,0.3,1.9-0.2c0.1-0.1-0.1-0.4-0.2-0.2c-0.4,0.5-1.1,0.5-1.6,0.2c0,0.1,0,0.2,0,0.2c0.7-0.7,1-1.6,0.7-2.6
					c0-0.1-0.1-0.1-0.2-0.1c-0.5,0.1-0.8,0.6-0.8,1.1C61.7,92.8,62,92.8,62,92.6L62,92.6z"/>
			</g>
		</g>
	</g>
	<g>
		<g>
			<g>
				<path class="st0" d="M61.6,68.2c-0.1,0.6-0.2,1.2-0.2,1.8c0,0.1,0.1,0.2,0.2,0.1c0.3-0.2,0.4-0.3,0.6-0.6c-0.1,0-0.2,0-0.2,0
					c0.4,0.3,0.7,0.7,0.6,1.3c0,0.3-0.1,0.5-0.3,0.7c-0.1,0.1-0.1,0.2-0.3,0.3c-0.1,0.1-0.3,0.2-0.5,0.1c0.1-0.2-0.1-0.3-0.3-0.1
					c-0.1,0.2-0.1,0.4,0.1,0.5c0.3,0.2,0.8-0.2,1-0.4c0.7-0.7,0.6-1.9-0.2-2.5c-0.1,0-0.2-0.1-0.2,0c-0.1,0.2-0.3,0.4-0.5,0.5
					c0.1,0,0.1,0.1,0.2,0.1c0-0.6,0.1-1.1,0.2-1.7C61.9,68.1,61.6,68,61.6,68.2L61.6,68.2z"/>
			</g>
		</g>
	</g>
	<g>
		<g>
			<g>
				<path class="st0" d="M62.1,68.5c0.8-0.3,1.5-0.7,2.2-1.3c0.1-0.1-0.1-0.3-0.2-0.2c-0.6,0.5-1.3,0.9-2.1,1.2
					C61.8,68.3,61.9,68.6,62.1,68.5L62.1,68.5z"/>
			</g>
		</g>
	</g>
	<g>
		<g>
			<g>
				<path class="st0" d="M81,97.4c-0.4,0.6-0.7,1.3-0.5,2.1c0.1,0.5,0.3,0.9,0.9,0.7c0.5-0.1,0.8-0.7,0.8-1.2
					c0.1-0.8-0.4-1.5-0.9-2.1c-0.1-0.1-0.4,0-0.3,0.1c0.5,0.7,1.2,1.7,0.7,2.5c-0.2,0.4-0.8,0.5-1,0c-0.1-0.2-0.1-0.5,0-0.7
					c0-0.5,0.2-0.9,0.5-1.3C81.4,97.3,81.1,97.2,81,97.4L81,97.4z"/>
			</g>
		</g>
	</g>
	<g>
		<g>
			<g>
				<path class="st0" d="M81.5,90.5c-0.5,0.3-0.9,0.8-1,1.5c-0.1,0.4,0,1.1,0.5,1.2c0.5,0.2,0.9-0.3,1.1-0.7c0.2-0.7,0.1-1.4-0.3-2
					c-0.1-0.2-0.4,0-0.3,0.1c0.2,0.4,0.3,0.7,0.3,1.1c0,0.2,0,0.4-0.1,0.6c-0.1,0.3-0.6,0.8-0.9,0.2c-0.3-0.7,0.3-1.5,0.8-1.9
					C81.8,90.7,81.7,90.4,81.5,90.5L81.5,90.5z"/>
			</g>
		</g>
	</g>
	<g>
		<g>
			<g>
				<path class="st0" d="M79.9,82.4c-0.4,0.5-1.6,2.6-0.3,2.8c0.4,0.1,0.9-0.2,1-0.6c0.3-0.6-0.1-1.3-0.4-1.8
					c-0.1-0.2-0.4,0-0.3,0.1c0.2,0.4,0.5,0.8,0.5,1.2c0,0.4-0.4,0.9-0.8,0.7c-0.8-0.3,0.2-1.9,0.5-2.2C80.2,82.5,80,82.3,79.9,82.4
					L79.9,82.4z"/>
			</g>
		</g>
	</g>
	<g>
		<g>
			<g>
				<path class="st0" d="M80.3,74.5c0-0.2-0.1-0.4-0.3-0.4c-0.3,0-0.5,0.4-0.6,0.6c-0.4,0.6-0.7,1.6-0.2,2.2c0.4,0.5,1.1,0.4,1.4,0
					C81.1,76.1,80.7,75.2,80.3,74.5c0-0.1-0.3,0-0.2,0.2c0.2,0.4,0.5,0.9,0.4,1.5c0,0.4-0.4,0.9-0.8,0.8c-0.6-0.1-0.5-0.9-0.4-1.3
					c0-0.2,0.1-0.4,0.2-0.6c0-0.1,0.1-0.2,0.2-0.3c0.1-0.2,0.2-0.3,0.4-0.3C80,74.6,80.2,74.6,80.3,74.5L80.3,74.5z"/>
			</g>
		</g>
	</g>
	<g>
		<g>
			<g>
				<path class="st0" d="M79.3,66.6c0.3-0.1,0.4-0.4,0.2-0.7c-0.1,0-0.1-0.1-0.2,0c-0.5,0.4-1,1-1,1.7c0,0.4,0.3,0.9,0.7,1.1
					c1.4,0.6,1.4-2.1,1.2-2.8c0-0.2-0.3-0.1-0.3,0.1c0.1,0.5,0.2,3.1-0.9,2.4c-1-0.6,0-1.7,0.5-2.2c-0.1,0-0.1,0-0.2,0
					c0,0,0,0.1,0,0.2C79,66.3,79.1,66.6,79.3,66.6L79.3,66.6z"/>
			</g>
		</g>
	</g>
	<g>
		<g>
			<g>
				<path class="st0" d="M73.2,104.7c0-0.3,0-0.6,0-0.8c-0.1-1.1-1.2-1.5-2-0.8c-1.5,1.2-2.4,2.8-2.8,4.6c-0.2,1,0.8,1.8,1.7,1.3
					c1.8-1,2.6-3,2.2-5c-0.2-0.7-1.1-1.1-1.7-0.7c-1.1,0.6-1.8,1.5-2.3,2.7c-0.4,1,0.9,1.8,1.7,1.3c1.5-0.9,2.2-2.5,1.9-4.3
					c-0.1-0.6-0.9-1-1.5-0.8c-1.4,0.4-2.5,1.2-3.2,2.4c-0.8,1.2,0.9,2.2,1.9,1.4c0.8-0.7,1.4-1.6,1.6-2.6c0.2-0.8-0.6-1.8-1.5-1.5
					c-0.7,0.3-1.3,0.7-1.9,1.2c0.6,0.6,1.1,1.1,1.7,1.7c0.8-1.1,2-2.9,0.5-3.9c-0.7-0.4-1.5,0-1.7,0.7c0,0,0,0,0,0.1
					c-0.3,0.9,0.9,1.9,1.7,1.3c0.8-0.5,1.4-1.4,0.9-2.4c-0.4-0.8-1.6-1.1-2.3-0.4c-0.6,0.6-0.5,1.8,0.3,2.2c1.1,0.6,1.8-0.5,2.3-1.3
					c-0.7-0.4-1.4-0.8-2-1.2c-0.8,1.2-1.9,2.1-3.2,2.7c-1.2,0.6-0.3,2.6,0.9,2.1c1.9-0.7,3.3-2,4.1-3.8c0.5-1.1-0.9-2.5-1.9-1.4
					c-0.7,0.8-1.4,1.7-1.9,2.7c-0.7,1.4,1.1,2.4,2,1.2c0.4-0.6,0.9-1.2,1.3-1.8c0.7-1-0.7-2.1-1.6-1.6c-1.8,1-3.6,2.1-4.7,3.9
					c-1.1,1.7-1.1,3.7-0.3,5.5c1.6,3.9,6.2,6.3,10.3,6.4c4,0.1,8.2-2.3,9.2-6.3c1.1-4.2-1.4-7.8-5.2-9.3c-4.3-1.7-9.3-0.6-12.7,2.4
					c-1.1,1,0.3,2.3,1.4,1.9c1.1-0.5,2.2-0.9,3.3-1.4c-0.5-0.6-0.9-1.2-1.4-1.9c-1.4,1.4-2.7,2.8-3.8,4.3c-0.7,0.9-0.1,2.3,1.1,2
					c1.8-0.5,3.3-1.7,4.2-3.3c0.6-1-0.6-2.2-1.6-1.6c-1.7,1-3.1,2.4-4,4.2c-0.4,0.8,0.3,2.1,1.3,1.7c2.6-1.1,4.7-2.9,6-5.4
					c0.5-1.1-0.6-2.2-1.6-1.6c-2.5,1.4-4.4,3.6-5.3,6.3c-0.3,0.8,0.6,1.7,1.5,1.5c2.7-0.8,5-2.7,6.4-5.2c0.5-1-0.6-2.3-1.6-1.6
					c-2.2,1.5-4,3.4-5.2,5.8c-0.4,0.8,0.3,2.1,1.3,1.7c3-1.2,5.5-3.3,7.1-6.1c0.6-1-0.6-2.2-1.6-1.6c-2.9,1.8-5,4.5-6.1,7.7
					c-0.3,0.8,0.6,1.8,1.5,1.5c3.1-1.1,5.6-3.4,6.9-6.4c0.4-0.8-0.2-2.1-1.3-1.7c-2.7,1-4.8,3.1-5.6,6c-0.3,0.9,0.6,1.6,1.5,1.5
					c3.7-0.8,6.7-3.4,8.1-6.9c0.4-1.1-0.9-1.7-1.7-1.3c-3.2,1.5-5.9,4.2-7.2,7.5c-0.4,0.9,0.3,2,1.3,1.7c3-0.9,5.6-3,6.9-5.8
					c0.4-0.8-0.3-2.1-1.3-1.7c-3.1,1.2-5.4,3.7-6.4,6.8c-0.2,0.7,0.4,1.6,1.1,1.5c3.4-0.4,6.3-2.5,7.7-5.6c0.4-0.8-0.3-2.1-1.3-1.7
					c-3.3,1.1-5.6,3.6-6.4,6.9c-0.2,0.9,0.6,1.7,1.5,1.5c3.2-0.9,6-3,7.6-5.9c0.5-0.8-0.3-2.1-1.3-1.7c-2.8,1-5,3.2-5.7,6.1
					c-0.2,0.8,0.6,1.7,1.5,1.5c2.7-0.8,4.7-2.8,5.8-5.4c0.3-0.8-0.7-1.7-1.5-1.5c-2.4,0.8-3.9,2.9-4.1,5.4c0,0.8,0.8,1.2,1.5,1.1
					c1.8-0.3,3.3-1.4,4.1-3.1c0.4-0.8-0.3-2.1-1.3-1.7c-1.8,0.7-2.8,2.4-2.4,4.3c0.1,0.6,0.9,1,1.5,0.8c2.3-0.8,3.8-2.9,3.7-5.4
					c0-0.9-1-1.5-1.8-1c-1.4,0.9-2.2,2.4-2.1,4.1c0.1,1,1.2,1.5,2,0.8c1.6-1.4,2.2-3.4,1.9-5.4c-0.1-0.6-0.9-1-1.5-0.8
					c-1.1,0.4-1.9,1.1-2.1,2.3c-0.1,0.9,0.5,1.7,1.5,1.5c2.1-0.5,3.1-3,2.1-4.9c-0.3-0.5-0.8-0.6-1.3-0.5c-1.8,0.3-2.6,1.9-2.4,3.6
					c0.1,0.7,0.9,0.9,1.5,0.8c1.9-0.4,2.7-3.1,1.1-4.3c-1.6-1.3-4,0.2-3.9,2.1c0,0.9,1,1.4,1.8,1c1.9-0.9,2.2-3.5,0.8-5
					c-0.3-0.3-0.8-0.4-1.1-0.3c-1.6,0.6-2.7,1.7-3.4,3.3c-0.5,1.2,1.2,1.8,2,1.1c1.2-1.1,1.9-2.6,1.7-4.2c-0.1-0.7-0.7-1.3-1.5-1.1
					c-1.6,0.4-2.7,1.5-3.3,3c-0.4,1,0.9,1.8,1.7,1.3c1.6-1,2.2-3.1,1.2-4.7c-0.3-0.6-1-0.7-1.6-0.4c-1.5,0.7-2.6,1.9-3.4,3.4
					c-0.6,1.2,0.8,2.3,1.9,1.4c1-0.8,1.4-1.9,1.5-3.2c0.1-0.8-0.8-1.3-1.5-1.1c-1.5,0.4-2.6,1.6-2.8,3.1c-0.1,0.9,0.8,1.9,1.7,1.3
					c1.3-0.8,1.8-2.2,1.5-3.6c-0.1-0.7-1.1-1.1-1.7-0.7c-1.5,1.1-2.7,2.6-3.4,4.4c-0.5,1.3-1.2,4.2,0.5,4.9c1.6,0.6,3-1.4,2.1-2.7
					c-1.1-1.5-3.3-0.8-3.9,0.8c-0.5,1.6,0.4,3.6,2.1,4c1.5,0.4,2.9-0.9,2.9-2.4c0-1.7-1.8-2.4-3.2-1.8c-1.5,0.7-2.3,2.6-1.7,4.1
					c0.7,1.7,2.8,2.5,4.4,1.7c1.7-0.9,2.2-3.2,1.2-4.8c-0.3-0.5-1.1-0.8-1.6-0.4c-1.9,1.3-1.6,4.2,0.7,4.9c2.5,0.7,4.1-1.7,3.7-4
					c-0.1-0.5-0.7-0.9-1.1-0.9c-1.3,0-2.5,0.6-3.2,1.7c-0.7,1.1-0.7,2.6,0.6,3.2c2.5,1.2,5.2-1.6,6-3.7c0.3-0.9-0.6-1.7-1.5-1.5
					c-2.1,0.6-3.5,2.4-3.5,4.5c0,0.5,0.4,1,0.9,1.1c2.2,0.7,4.6-1.2,4.4-3.5c0-0.5-0.3-1-0.9-1.1c-2.5-0.6-3.9,3.2-1.4,4.2
					c2.6,1,4.5-2.7,2.2-4.3c-1.1-0.7-2.2-0.5-3.2,0.3c-0.2,0.1-0.3,0.3-0.5,0.4c-0.3,0.2-0.3,0.2-0.1,0.1c0.3,0,0.3-0.1,0-0.4
					c0-0.2-0.1-0.4-0.2-0.6c-0.2-0.9-0.4-1.8-0.6-2.8c-0.2-1.4-0.1-3.1-1.1-4.2c-0.9-1-2.4-1.1-3.4-0.2c0.7,0.2,1.3,0.4,2,0.5
					c-0.5-1.6,0.6-3.5,0.8-5.1c0.3-1.8,0.3-3.6,0.1-5.4c-0.4,0.4-0.8,0.8-1.2,1.2c0.7,0,1.5,0,2.2,0c-0.4-0.4-0.8-0.8-1.2-1.2
					c-0.2,3.5,0.1,7.1,1,10.5c0.7-0.2,1.5-0.4,2.2-0.6c-0.7-2.3-1.3-4.6-1.7-7c-0.2-1.1-2-1.1-2.2,0c-0.5,2.3-0.8,4.7-0.9,7.1
					c-0.1,1.5,2.2,1.5,2.3,0c0.2-1.5,0.3-3,0.5-4.5c0.2-1.4-1.9-1.4-2.3-0.3c-0.5,1.3-0.8,2.6-0.8,4c0,1.3,1.5,1.5,2.2,0.6
					c0.5-0.7,0.8-1.5,0.8-2.4c0.1-1.3-2-1.6-2.3-0.3c-0.2,1.1-0.5,2.1-0.7,3.1c-0.3,1.5,1.9,2.1,2.2,0.6c0.2-1.1,0.5-2.1,0.7-3.1
					c-0.8-0.1-1.5-0.2-2.3-0.3c0,0.5-0.3,0.8-0.5,1.2c0.7,0.2,1.5,0.4,2.2,0.6c0-1.2,0.3-2.3,0.7-3.4c-0.8-0.1-1.5-0.2-2.3-0.3
					c-0.2,1.5-0.3,3-0.5,4.5c0.8,0,1.6,0,2.3,0c0.1-2.2,0.4-4.3,0.8-6.4c-0.7,0-1.5,0-2.2,0c0.4,2.4,0.9,4.7,1.7,7
					c0.4,1.4,2.6,0.8,2.2-0.6c-0.9-3.2-1.2-6.5-0.9-9.9c0-0.6-0.6-1.2-1.2-1.2c-0.7,0-1.5,0-2.2,0c-0.6,0-1.3,0.5-1.2,1.2
					c0.3,2,0.2,4.1-0.3,6c-0.4,1.7-1.1,3.3-0.5,5c0.3,0.9,1.3,1.1,2,0.5c-0.1,0.1,0.1,0.3,0.2,0.6c0.1,0.3,0.1,0.6,0.1,0.9
					c0.1,0.7,0.2,1.5,0.3,2.2c0.2,1.3,0.4,3.1,1.2,4.3c0.6,1,1.8,1.1,2.8,0.6c0.4-0.2,0.8-0.8,1.2-0.9c0.2-0.1,0.3,0,0.3,0
					c-0.2-0.1,0.5,0.5-0.1,0.3c-0.3-0.4-0.6-0.7-0.9-1.1c0.1,0.8-0.5,1.5-1.4,1.2c0.3,0.4,0.6,0.7,0.9,1.1c0-1.1,0.7-2,1.8-2.2
					c-0.5-0.5-1-1-1.5-1.5c-0.3,0.9-0.9,1.6-1.8,2c-0.2,0.1-0.4,0.1-0.6,0.2c0,0.5,0.1,0.5,0.3,0.1c0.4-0.2,0.6-0.5,1.2-0.5
					c-0.4-0.3-0.7-0.6-1.1-0.9c0.1,0.4-0.1,1.1-0.6,1.1c-0.3,0-0.8-0.3-0.4-0.6c-0.5-0.1-1.1-0.3-1.6-0.4c0.9,1.3-1.1,2.2-1.4,0.9
					c-0.1-0.3,0.1-0.5,0.2-0.7c0.1-0.1,0.2-0.2,0.3-0.3c0-0.4-0.1-0.5-0.1-0.3c0,0.2-0.1,0.1-0.1,0c-0.1-0.1-0.2-0.2-0.3-0.4
					c-0.2-0.5,0-1,0.6-1.4c0.1,0.3,0.2,0.6,0.4,0.8c-0.1-2.3,0.8-4.6,2.7-6c-0.6-0.2-1.1-0.5-1.7-0.7c0.1,0.4-0.1,0.8-0.4,1
					c0.6,0.4,1.1,0.9,1.7,1.3c0.1-0.7,0.4-1.3,1.2-1.5c-0.5-0.4-1-0.7-1.5-1.1c-0.1,0.7-0.4,1.1-0.9,1.5c0.6,0.5,1.2,0.9,1.9,1.4
					c0.6-1.2,1.4-2,2.5-2.6c-0.5-0.1-1.1-0.3-1.6-0.4c0.3,0.6,0.2,1.2-0.4,1.5c0.6,0.4,1.1,0.9,1.7,1.3c0.3-0.8,0.9-1.2,1.6-1.4
					c-0.5-0.4-1-0.7-1.5-1.1c0.1,1.1-0.2,1.9-1,2.6c0.7,0.4,1.3,0.7,2,1.1c0.3-0.8,1-1.3,1.7-1.6c-0.4-0.1-0.7-0.2-1.1-0.3
					c0.4,0.4,0.1,1.1-0.4,1.3c0.6,0.3,1.2,0.7,1.8,1c0-0.1,0.1-0.3,0.2-0.3c0,0-0.1,0.2-0.3,0.2c0.5,0.3,1,0.5,1.5,0.8
					c-0.1-0.5,0.4-0.7,0.8-0.7c-0.4-0.2-0.9-0.4-1.3-0.5c0.3,0.6-0.1,1.3-0.7,1.4c0.5,0.5,1,1,1.5,1.5c0.1-0.4,0.1-0.6,0.5-0.7
					c-0.5-0.3-1-0.5-1.5-0.8c0.2,1.2-0.4,2.3-1.3,3.1c0.7,0.3,1.3,0.6,2,0.8c-0.1-0.9,0.2-1.6,0.9-2c-0.6-0.3-1.2-0.7-1.8-1
					c0,1.4-0.7,2.6-2,3.1c0.5,0.3,1,0.5,1.5,0.8c-0.1-0.6,0.2-1.2,0.8-1.4c-0.4-0.6-0.9-1.1-1.3-1.7c-0.5,1.2-1.4,1.8-2.7,2
					c0.5,0.4,1,0.7,1.5,1.1c0.1-1.4,1-2.7,2.4-3.2c-0.5-0.5-1-1-1.5-1.5c-0.7,1.8-2.3,3.2-4.1,3.8c0.5,0.5,1,1,1.5,1.5
					c0.5-2.1,2-3.8,4.1-4.5c-0.4-0.6-0.9-1.1-1.3-1.7c-1.4,2.4-3.6,4.1-6.2,4.9c0.5,0.5,1,1,1.5,1.5c0.6-2.4,2.3-4.5,4.6-5.4
					c-0.4-0.6-0.9-1.1-1.3-1.7c-1,2.3-3.1,4.1-5.7,4.5c0.4,0.5,0.7,1,1.1,1.5c0.7-2.3,2.4-4.3,4.7-5.2c-0.4-0.6-0.9-1.1-1.3-1.7
					c-1.1,2.3-3.1,4-5.6,4.7c0.4,0.6,0.9,1.1,1.3,1.7c1.3-3,3.5-5.2,6.4-6.6c-0.6-0.4-1.1-0.9-1.7-1.3c-1.1,2.7-3.6,4.6-6.5,5.2
					c0.5,0.5,1,1,1.5,1.5c0.5-2,2-3.6,3.9-4.3c-0.4-0.6-0.9-1.1-1.3-1.7c-1,2.5-2.9,4.4-5.5,5.3c0.5,0.5,1,1,1.5,1.5
					c0.9-2.6,2.6-4.9,5-6.3c-0.5-0.5-1.1-1.1-1.6-1.6c-1.3,2.3-3.2,4.1-5.7,5c0.4,0.6,0.9,1.1,1.3,1.7c1-2,2.5-3.7,4.4-4.9
					c-0.5-0.5-1.1-1.1-1.6-1.6c-1.1,2-2.8,3.5-5,4.1c0.5,0.5,1,1,1.5,1.5c0.7-2.1,2.2-3.8,4.2-4.9c-0.5-0.5-1.1-1.1-1.6-1.6
					c-1,1.9-2.6,3.5-4.7,4.3c0.4,0.6,0.9,1.1,1.3,1.7c0.7-1.5,1.8-2.6,3.2-3.4c-0.5-0.5-1.1-1.1-1.6-1.6c-0.6,1.1-1.6,1.9-2.8,2.2
					c0.4,0.7,0.7,1.3,1.1,2c1.2-1.5,2.5-2.9,3.8-4.2c1-1-0.3-2.3-1.4-1.9c-1.1,0.5-2.2,0.9-3.3,1.4c0.5,0.6,0.9,1.2,1.4,1.9
					c2.2-1.9,5.4-2.8,8.3-2.3c2.9,0.5,5.9,2.2,6,5.5c0,3.2-2.6,5.5-5.6,6c-3.1,0.5-6.7-0.9-8.7-3.3c-1.1-1.4-1.8-3.2-0.9-4.9
					c0.8-1.5,2.5-2.4,4-3.2c-0.5-0.5-1.1-1.1-1.6-1.6c-0.4,0.6-0.9,1.2-1.3,1.8c0.7,0.4,1.4,0.8,2,1.2c0.4-0.8,0.9-1.5,1.5-2.2
					c-0.6-0.5-1.2-0.9-1.9-1.4c-0.6,1.3-1.5,2.2-2.7,2.8c0.3,0.7,0.6,1.4,0.9,2.1c1.7-0.8,3-2,4-3.6c0.8-1.3-1.2-2.4-2-1.2
					c-0.2,0.3-0.4,0.5-0.6,0.8c0.3-0.2,0.7-0.4,1-0.6c0,0-0.1,0-0.1,0c0.3,0.2,0.7,0.4,1,0.6c0,0.1,0,0.2,0.1,0.3
					c-0.1,0.3-0.2,0.6-0.4,0.8c0,0,0.1-0.1,0.1-0.1c-0.4,0.1-0.7,0.2-1.1,0.3c0.1,0,0.1,0,0.2,0c-0.2-0.2-0.5-0.4-0.7-0.5
					c0-0.2,0-0.4,0-0.6c0.6,0.4,1.1,0.9,1.7,1.3c0,0,0,0,0-0.1c-0.6,0.2-1.1,0.5-1.7,0.7c0,0,0.1,0.1,0.1,0.1
					c-0.2-0.2-0.4-0.5-0.5-0.7c0-0.2-0.1-0.2-0.2,0.2c-0.1,0.2-0.2,0.4-0.4,0.6c-0.9,1.1,0.6,2.8,1.7,1.7c0.3-0.3,0.5-0.5,0.8-0.7
					c-0.5-0.5-1-1-1.5-1.5c-0.2,0.7-0.4,1.1-1,1.6c0.6,0.5,1.2,0.9,1.9,1.4c0.4-0.7,1.1-1.1,1.9-1.3c-0.5-0.3-1-0.5-1.5-0.8
					c0.1,0.7-0.3,1.3-0.8,1.7c0.6,0.4,1.1,0.9,1.7,1.3c0.2-0.6,0.7-1,1.2-1.3c-0.6-0.2-1.1-0.5-1.7-0.7c0.2,1-0.2,1.9-1.1,2.3
					c0.6,0.4,1.1,0.9,1.7,1.3C71.2,106.8,71.9,105.6,73.2,104.7c-0.7-0.3-1.4-0.6-2-0.8c0,0.3,0,0.6,0,0.8
					C70.9,106.2,73.3,106.2,73.2,104.7L73.2,104.7z"/>
			</g>
		</g>
	</g>
	<g>
		<g>
			<g>
				<path class="st0" d="M70.7,92.8c0,2.7,0.4,5.4,1.8,7.8c0.6,1.1,1.5,2,2.5,2.7c1.1,0.9,2.4,1.5,3.4,2.6c1,1.1,2.6-0.5,1.7-1.7
					c-1.6-1.8-4-2.5-5.3-4.6c-1.3-2-1.6-4.5-1.7-6.9C73,91.3,70.6,91.2,70.7,92.8L70.7,92.8z"/>
			</g>
		</g>
	</g>
	<g>
		<g>
			<g>
				<path class="st0" d="M70.3,97.2c1,2.3,2.5,3.7,4.6,4.9c1.1,0.7,2,1.8,2.8,2.8c0.9,1.2,1.7,2.4,2.5,3.7c0.8,1.3,2.8,0.1,2-1.2
					c-1.3-2.2-2.8-4.4-4.6-6.2c-0.8-0.8-1.8-1.2-2.8-1.9c-1-0.7-1.8-1.6-2.2-2.7C72,95.2,69.7,95.8,70.3,97.2L70.3,97.2z"/>
			</g>
		</g>
	</g>
	<g>
		<g>
			<g>
				<path class="st0" d="M56.4,57.1c-2.9,0.7-7.7,3.1-7,6.8c0.2,1.3,1.3,2.4,2.7,2.2c1-0.1,2.3-1.2,1.5-2.3c-0.8-1.1-2.2,0-2.8,0.7
					s-2,3.1-0.8,3.9c1.1,0.7,3.3-0.3,4.1-1.1c0.4-0.4,0.7-1.5-0.2-1.5c-0.6,0-1.4,1-1.7,1.4c-0.5,0.6-1,1.4-1.2,2.2
					c-0.3,1.1,0,2.4,1.4,2.4c1.3,0,3.6-1.2,4.1-2.4c0.5-1-0.8-1.2-1.5-0.9c-1.4,0.6-2.4,2.1-2.6,3.6c-0.1,1,0.2,2.5,1.4,2.8
					c1.4,0.4,3.2-1.4,4.1-2.3c0.6-0.7,1.1-1.7-0.3-1.5c-1.7,0.2-3.4,1.6-4.4,3c-0.9,1.3-1.8,3.4-1.1,4.9c0.8,1.7,2.8,1.1,4,0.2
					c0.8-0.6,1.5-1.5,2.1-2.3c0.1-0.2,0.3-0.4,0.4-0.5c0.4-0.5,0.3-0.5,1-0.4c0.8,0.2,0.6,0.1,0.4,0.8c0,0.2-0.1,0.4-0.1,0.6
					c0,0.2,0.3,0.2,0.3,0c0-0.6,0.7-2.4-0.5-2.3c-0.7,0-1.2,0.9-1.6,1.3c-0.6,0.7-1.2,1.5-1.9,2.2c-1.1,1-3.4,2-4,0
					c-0.4-1.1,0-2.4,0.6-3.4c0.4-0.9,1.1-1.7,1.8-2.3c0.4-0.3,0.8-0.6,1.2-0.8c0.3-0.2,1.7-0.9,2-0.7c0.2,0.1,0,0.8,0,0.9
					c-0.1,0.2-0.3,0.4-0.5,0.5c-0.4,0.4-0.9,0.8-1.4,1.1c-0.7,0.4-1.6,1-2.3,0.6c-0.6-0.4-0.9-1.1-0.9-1.9c0-1.1,0.6-2.2,1.3-3
					c0.4-0.4,1.1-1,1.7-0.9c1.4,0.3-0.2,1.5-0.7,1.8c-0.5,0.4-1.1,0.7-1.6,0.9c-0.3,0.1-0.7,0.2-0.9,0.2c-0.4-0.1-1.1-1.1-1.2-1.5
					c0-1.1,1-2.4,1.7-3.2c0.1-0.1,0.6-0.6,0.8-0.7c0.9-0.1,0.4,0.6,0.2,0.8c-0.4,0.5-1.3,0.9-1.9,1c-0.7,0.2-2,0.5-2.2-0.6
					c-0.1-0.6,0.4-1.6,0.7-2.1c0.1-0.2,0.2-0.3,0.3-0.5c0.2-0.2,0.4-0.5,0.6-0.7c0.5-0.6,1.1-0.3,1.8,1c-0.4,0.6-1.6,0.6-2.2,0.3
					c-1.5-0.8-1.5-2.7-0.8-4.1c1.2-2.3,4-3.7,6.4-4.2C56.7,57.3,56.6,57,56.4,57.1L56.4,57.1z"/>
			</g>
		</g>
	</g>
	<g>
		<g>
			<g>
				<path class="st0" d="M84.2,57.4c1.1-0.1,2.2-0.3,3.4-0.4c0.8,0,1.8,0,2.2,0.8c0.6,1-0.1,2.2-1.1,2.5c-1.2,0.4-0.6-0.5-0.1-0.8
					c0.3-0.2,0.7-0.4,1.1-0.4c1.4-0.3,4.2,0.8,3.1,2.7c-0.3,0.4-1.1,1.1-1.6,1c-0.6,0.2-0.5,0,0.2-0.7c0.4-0.2,0.8-0.3,1.3-0.3
					c1,0,2.5,0.9,1.8,2.3c-0.4,0.7-1.1,0.9-1.8,1.1c-1.2,0.4-2.6,0.8-2.6,2.4c0,0.2,0.3,0.2,0.3,0c0-2,2.7-1.8,3.9-2.8
					c0.7-0.6,1-1.5,0.5-2.3c-0.8-1.4-4.3-1.6-4.2,0.4c0,0.1,0.1,0.2,0.2,0.1c0.9-0.1,2-0.5,2.5-1.4c0.4-0.9,0-1.9-0.7-2.4
					c-1.6-1.3-4-0.6-5,1c0,0.1,0,0.2,0.1,0.2c1.5,0.3,3.4-0.9,2.7-2.6c-0.8-2.2-4.4-1.1-6-0.9C84,57.1,84,57.4,84.2,57.4L84.2,57.4z
					"/>
			</g>
		</g>
	</g>
	<g>
		<g>
			<g>
				<path class="st0" d="M56.3,56.9c-2.7,0.5-6.6,1.6-8,4.3c-1.2,2.3,0.4,4.5,2.8,5c0.2,0,0.3-0.2,0.1-0.3c-1.2-0.3-2.5-1-2.9-2.2
					c-0.5-1.5,0.4-3,1.5-3.9c1.8-1.5,4.3-2.3,6.6-2.6C56.6,57.1,56.5,56.8,56.3,56.9L56.3,56.9z"/>
			</g>
		</g>
	</g>
	<g>
		<g>
			<g>
				<path class="st0" d="M50.2,65.4c-0.8,0.6-2.5,2.4-1.7,3.6c0.7,1.2,2.9-0.2,3.6-0.7c0.1-0.1,0-0.4-0.1-0.3
					c-0.6,0.4-3.3,2-3.3,0.3c0-1,1.1-2.2,1.8-2.7C50.6,65.5,50.3,65.3,50.2,65.4L50.2,65.4z"/>
			</g>
		</g>
	</g>
	<g>
		<g>
			<g>
				<path class="st0" d="M50.9,68.5c-0.6,0.9-1.8,2.8-0.7,3.7c1.1,0.9,2.4,0,3.3-0.7c0.1-0.1-0.1-0.3-0.2-0.2
					c-0.7,0.6-2.1,1.5-3,0.6c-0.8-0.9,0.2-2.5,0.8-3.2C51.3,68.5,51,68.3,50.9,68.5L50.9,68.5z"/>
			</g>
		</g>
	</g>
	<g>
		<g>
			<g>
				<path class="st0" d="M52.2,71.6c-0.8,1-1.4,2.8-0.2,3.7c1.3,1,2.8-0.3,3.6-1.2c0.1-0.1-0.1-0.4-0.2-0.2
					c-0.7,0.7-1.7,1.7-2.9,1.4c-1.5-0.5-1-2.6-0.2-3.5C52.6,71.7,52.4,71.5,52.2,71.6L52.2,71.6z"/>
			</g>
		</g>
	</g>
	<g>
		<g>
			<g>
				<path class="st0" d="M52.1,75c-0.8,1.1-1.3,2.3-1.4,3.6c0,0.9,0,2,0.9,2.5c2,1,4.5-1.6,5.4-3.2c0.1-0.2-0.2-0.3-0.3-0.1
					c-0.7,1.5-2.3,3.1-4.1,3.2c-3.1,0.1-1.2-4.6-0.3-5.7C52.4,75,52.2,74.9,52.1,75L52.1,75z"/>
			</g>
		</g>
	</g>
	<g>
		<g>
			<g>
				<path class="st0" d="M58.9,75.7c0.2-0.2,0.5-0.5,0.8-0.6c0.2-0.1,0.3-0.2,0.6-0.1c0.4,0,0.4,0.1,0.3,0.4
					c-0.1,0.6-0.5,1.3-0.8,1.8c-0.1,0.2,0.2,0.3,0.3,0.1c0.3-0.6,0.6-1.1,0.7-1.7c0.1-0.3,0.1-0.7,0-0.9c-0.5-0.7-1.7,0.4-2.1,0.8
					C58.6,75.6,58.8,75.8,58.9,75.7L58.9,75.7z"/>
			</g>
		</g>
	</g>
	<g>
		<g>
			<g>
				<path class="st0" d="M86.3,57.3c1.1-0.3,2.2-0.6,3.3-0.6c0.7,0,1,0.7,0.8,1.3c-0.2,0.6-0.6,1-1,1.4c-0.1,0.1,0.1,0.3,0.2,0.2
					c0.6-0.5,1.9-2.2,1-3c-0.4-0.3-1-0.2-1.4-0.2c-1,0.1-2,0.3-3,0.6C86,57.1,86.1,57.4,86.3,57.3L86.3,57.3z"/>
			</g>
		</g>
	</g>
	<g>
		<g>
			<g>
				<path class="st0" d="M89.9,59.3c0.9-0.4,2.2-1,3.1-0.2c1.1,1,0,2.3-0.7,3.1c-0.1,0.1,0.1,0.4,0.2,0.2c0.8-0.8,1.8-2.2,0.9-3.3
					c-0.9-1.1-2.5-0.5-3.6,0C89.6,59.1,89.8,59.4,89.9,59.3L89.9,59.3z"/>
			</g>
		</g>
	</g>
	<g>
		<g>
			<g>
				<path class="st0" d="M92.8,61.9c0.6-0.1,1.3,0,1.8,0.3c0.8,0.5,1.6,1.7,0.5,2.4c-0.4,0.3-1.1,0.4-1.6,0.5
					c-0.6,0.2-1.3,0.3-1.9,0.5c-0.2,0-0.1,0.3,0.1,0.3c1.1-0.3,2.2-0.4,3.3-0.9c0.6-0.3,1.1-0.7,1-1.4c-0.1-1.5-1.9-2.3-3.3-2.1
					C92.5,61.7,92.6,61.9,92.8,61.9L92.8,61.9z"/>
			</g>
		</g>
	</g>
	<g>
		<g>
			<g>
				<path class="st0" d="M62.6,58.6c-0.2,0.6-0.2,1.2,0,1.8c0.1,0.2,0.4,0.1,0.3-0.1c-0.2-0.5-0.2-1.1,0-1.6
					C63,58.5,62.7,58.5,62.6,58.6L62.6,58.6z"/>
			</g>
		</g>
	</g>
	<g>
		<g>
			<g>
				<path class="st0" d="M80.2,59.3c0.1,0.2,0.2,0.4,0.2,0.6c0.1,0.2,0.4,0.1,0.3-0.1c-0.1-0.2-0.2-0.4-0.2-0.6
					C80.4,59,80.2,59.1,80.2,59.3L80.2,59.3z"/>
			</g>
		</g>
	</g>
	<g>
		<g>
			<g>
				<path class="st0" d="M63.4,59.6c-0.3-0.3,0.2-0.7,0.4-0.4c0.3,0.4-0.2,0.7-0.5,0.5c-0.2-0.1-0.3,0.2-0.1,0.3
					c0.3,0.2,0.7,0.1,0.9-0.1c0.3-0.3,0.2-0.7,0-0.9c-0.2-0.2-0.6-0.2-0.8,0c-0.2,0.2-0.2,0.6,0,0.8C63.4,59.9,63.6,59.7,63.4,59.6
					L63.4,59.6z"/>
			</g>
		</g>
	</g>
	<g>
		<g>
			<g>
				<path class="st0" d="M63.5,61.7c-0.2-0.4,0.2-0.8,0.6-0.5c0.3,0.3-0.1,0.8-0.4,0.6c-0.2-0.1-0.3,0.2-0.1,0.3
					c0.7,0.4,1.4-0.5,0.8-1.1c-0.3-0.2-0.6-0.3-0.9,0c-0.2,0.2-0.3,0.6-0.1,0.9C63.3,62,63.6,61.9,63.5,61.7L63.5,61.7z"/>
			</g>
		</g>
	</g>
	<g>
		<g>
			<g>
				<path class="st0" d="M63.5,64c-0.4-0.4,0.2-1,0.6-0.6c0.4,0.4-0.1,1-0.6,0.8c-0.2-0.1-0.3,0.2-0.1,0.3c0.8,0.3,1.5-0.8,0.8-1.4
					c-0.7-0.5-1.5,0.4-1,1.1C63.5,64.4,63.7,64.2,63.5,64L63.5,64z"/>
			</g>
		</g>
	</g>
	<g>
		<g>
			<g>
				<path class="st0" d="M78.8,60c-0.1-0.1-0.1-0.3,0-0.4c0.1-0.2,0.3-0.1,0.4,0C79.5,60,79,60.3,78.8,60c-0.1-0.1-0.3,0.1-0.2,0.2
					c0.2,0.2,0.6,0.2,0.8,0.1c0.3-0.2,0.3-0.6,0.1-0.9c-0.2-0.3-0.6-0.3-0.8,0c-0.2,0.2-0.2,0.6,0,0.8C78.7,60.4,78.9,60.2,78.8,60
					L78.8,60z"/>
			</g>
		</g>
	</g>
	<g>
		<g>
			<g>
				<path class="st0" d="M78.9,61.8c-0.1-0.2,0-0.4,0.1-0.5c0.1-0.1,0.3-0.3,0.4-0.1C79.6,61.5,79.2,61.9,78.9,61.8
					c-0.2,0-0.3,0.3-0.1,0.3c0.6,0.1,1.1-0.7,0.7-1.2c-0.2-0.3-0.6,0-0.8,0.1c-0.2,0.2-0.3,0.6-0.1,0.9C78.8,62.1,79,61.9,78.9,61.8
					L78.9,61.8z"/>
			</g>
		</g>
	</g>
	<g>
		<g>
			<g>
				<path class="st0" d="M79,63.8c-0.1-0.2-0.2-0.4-0.1-0.6c0,0,0,0-0.1,0.1c0.1-0.1,0.3-0.1,0.4,0.1S79.2,63.7,79,63.8
					c-0.2,0-0.2,0.3,0,0.2c0.5-0.1,0.7-0.8,0.2-1.1c-0.2-0.1-0.5-0.1-0.7,0.1c-0.1,0.1,0,0.3,0,0.4c0,0.1,0.1,0.3,0.2,0.4
					C78.9,64.1,79.1,64,79,63.8L79,63.8z"/>
			</g>
		</g>
	</g>
	<g>
		<g>
			<g>
				<path class="st0" d="M57,59.3c0.6,5.2,1,10.5,1.1,15.8c0,0.2,0.3,0.2,0.3,0c-0.1-5.3-0.5-10.6-1.1-15.8
					C57.3,59.1,56.9,59.1,57,59.3L57,59.3z"/>
			</g>
		</g>
	</g>
	<g>
		<g>
			<g>
				<path class="st0" d="M58.1,83.9c-0.3,10-1.2,19.9-2.9,29.7c0,0.2,0.3,0.3,0.3,0.1c1.7-9.8,2.6-19.8,2.9-29.8
					C58.4,83.7,58.1,83.7,58.1,83.9L58.1,83.9z"/>
			</g>
		</g>
	</g>
	<g>
		<g>
			<g>
				<path class="st0" d="M84.6,59.5c-0.9,9-1.9,18-1.6,27c0.3,9.1,1.3,18.3,2,27.4c0,0.2,0.3,0.2,0.3,0c-0.7-9.1-1.7-18.3-2-27.4
					c-0.3-9,0.7-18,1.6-27C84.9,59.3,84.6,59.3,84.6,59.5L84.6,59.5z"/>
			</g>
		</g>
	</g>
	<g>
		<g>
			<g>
				<path class="st0" d="M61.5,104.9c-1.2,2,0.4,4.9,1.6,6.6c0.1,0.2,0.4,0,0.3-0.1c-1.1-1.6-2.8-4.4-1.6-6.3
					C61.9,104.9,61.6,104.8,61.5,104.9L61.5,104.9z"/>
			</g>
		</g>
	</g>
	<g>
		<g>
			<g>
				<path class="st0" d="M62.5,43.6c0.2,0,0.2-0.3,0-0.3C62.3,43.3,62.3,43.6,62.5,43.6L62.5,43.6z"/>
			</g>
		</g>
	</g>
	<g>
		<g>
			<g>
				<path class="st0" d="M62.6,43.6c1.3-3,5.2-2.7,7-0.4c0.1,0.1,0.3-0.1,0.2-0.2c-1.9-2.5-6.1-2.7-7.5,0.4
					C62.3,43.6,62.5,43.7,62.6,43.6L62.6,43.6z"/>
			</g>
		</g>
	</g>
	<g>
		<g>
			<g>
				<path class="st0" d="M72.7,42.6c1.1-1,2.5-1.5,4-1.4c0.7,0,1.5,0.2,2.1,0.6c0.5,0.3,0.9,0.6,1.5,0.8c0.2,0,0.3-0.2,0.1-0.3
					c-0.8-0.2-1.4-0.8-2.2-1.1C77.5,41,76.7,40.9,76,41c-1.3,0.1-2.5,0.6-3.5,1.5C72.4,42.6,72.6,42.8,72.7,42.6L72.7,42.6z"/>
			</g>
		</g>
	</g>
	<g>
		<g>
			<g>
				<path class="st0" d="M64.8,38.5c-0.8,0.8-0.9,2.1-0.1,3c0.1,0.1,0.3-0.1,0.2-0.2c-0.6-0.7-0.6-1.9,0.1-2.5
					C65.2,38.5,65,38.3,64.8,38.5L64.8,38.5z"/>
			</g>
		</g>
	</g>
	<g>
		<g>
			<g>
				<path class="st0" d="M66.8,38.4c0.7,0.8,1.1,1.8,0.9,2.9c0,0.2,0.3,0.3,0.3,0.1c0.2-1.2-0.1-2.3-1-3.2
					C66.9,38,66.7,38.3,66.8,38.4L66.8,38.4z"/>
			</g>
		</g>
	</g>
	<g>
		<g>
			<g>
				<path class="st0" d="M75.1,37.6c-1.2,0.8-1.6,2.5-0.8,3.7c0.1,0.2,0.4,0,0.3-0.1c-0.7-1.1-0.4-2.6,0.7-3.4
					C75.4,37.8,75.3,37.5,75.1,37.6L75.1,37.6z"/>
			</g>
		</g>
	</g>
	<g>
		<g>
			<g>
				<path class="st0" d="M77.1,37.9c1,0.8,1.3,2.2,0.7,3.4c-0.1,0.2,0.2,0.3,0.3,0.1c0.7-1.2,0.4-2.8-0.7-3.7
					C77.2,37.6,77,37.8,77.1,37.9L77.1,37.9z"/>
			</g>
		</g>
	</g>
	<g>
		<g>
			<g>
				<path class="st0" d="M56.8,118.5c1.3-0.6,2.1,1.1,3,1.7c0-0.1,0-0.2,0-0.3c-1.4,0.2-2.6,2.3-4.1,2c-1.4-0.3-1.1-1.7-0.3-2.4
					c0.5-0.5,1.2-0.9,1.9-1.2c0.2-0.1,0-0.3-0.1-0.3c-1.1,0.6-3.6,2-2.4,3.6c1.6,1.9,3.6-1.1,5.2-1.4c0.1,0,0.1-0.2,0-0.3
					c-1.1-0.7-1.7-2.4-3.3-1.7C56.5,118.3,56.6,118.6,56.8,118.5L56.8,118.5z"/>
			</g>
		</g>
	</g>
	<g>
		<g>
			<g>
				<path class="st0" d="M55.2,121.7c-0.2-0.8,0.4-1.4,1-1.7c0.2-0.1,0-0.4-0.1-0.3c-0.7,0.4-1.4,1.1-1.1,2
					C55,122,55.3,121.9,55.2,121.7L55.2,121.7z"/>
			</g>
		</g>
	</g>
	<g>
		<g>
			<g>
				<path class="st0" d="M85.2,123.3c-0.7-0.4-1.1-1.1-1.7-1.7c-0.4-0.4-0.7-0.7-0.1-1.3c0.4-0.4,1-0.7,1.5-0.7c1,0,1.8,0.9,2.1,1.7
					c0.2,0.4,0.4,1.2,0.1,1.6C86.6,123.6,85.8,123.6,85.2,123.3c-0.2-0.1-0.3,0.2-0.1,0.3c0.9,0.4,2.2,0.4,2.4-0.8
					c0.2-1.2-0.7-2.7-1.9-3.2c-0.6-0.2-1.1-0.2-1.7,0.1c-0.4,0.2-1.3,0.7-1.4,1.3c0,0.4,0.4,0.6,0.7,0.9c0.6,0.6,1.1,1.3,1.8,1.7
					C85.2,123.6,85.4,123.4,85.2,123.3z"/>
			</g>
		</g>
	</g>
	<g>
		<g>
			<g>
				<path class="st0" d="M85.6,121.5c0.5,0.5,0.9,1.2,0.9,1.9c0,0.2,0.3,0.2,0.3,0c0-0.8-0.5-1.6-1-2.2
					C85.6,121.2,85.5,121.4,85.6,121.5L85.6,121.5z"/>
			</g>
		</g>
	</g>
	<g>
		<g>
			<g>
				<path class="st0" d="M81.5,116C81.5,116,81.5,116,81.5,116c0.3,0,0.3-0.3,0.1-0.3c0,0,0,0,0,0c0,0-0.1,0-0.1,0.1c0,0,0,0,0,0
					c0.1,0,0.1,0.1,0.2,0.2c0,0,0,0,0-0.1C81.6,115.9,81.5,115.9,81.5,116C81.4,116,81.5,116,81.5,116c0.1,0.1,0.4-0.1,0.2-0.2
					c0,0,0,0-0.1-0.1c-0.1-0.1-0.2,0-0.2,0.1c0,0,0,0,0,0.1C81.3,116,81.5,116.1,81.5,116c0.1,0,0.2,0,0.2-0.1
					C81.6,116,81.6,116,81.5,116C81.5,116,81.5,116,81.5,116c0.3,0,0.3-0.3,0.1-0.3c0,0,0,0-0.1,0C81.3,115.7,81.3,116,81.5,116
					L81.5,116z"/>
			</g>
		</g>
	</g>
	<g>
		<g>
			<g>
				<path class="st0" d="M59.7,120.4c0.4-0.1,0.7-0.3,1.1-0.4c0.1,0,0.1-0.1,0.1-0.2c-0.2-0.8-0.4-1.7-0.7-2.5
					c-0.3-0.6-0.8-1.4-1.5-1.6c-1.3-0.3-1.8,1.8-1.6,2.7c0,0.2,0.3,0.1,0.3-0.1c-0.1-0.7,0-1.5,0.5-2c0.8-0.8,1.6,0.3,1.9,1
					c0.3,0.5,0.4,1.1,0.6,1.6c0,0.2,0.2,0.5,0.1,0.7c-0.1,0.2-0.7,0.3-0.9,0.4C59.4,120.1,59.5,120.4,59.7,120.4L59.7,120.4z"/>
			</g>
		</g>
	</g>
	<g>
		<g>
			<g>
				<path class="st0" d="M82.9,121.1c-0.3-0.1-0.6-0.3-0.8-0.4c-0.4-0.2-0.4-0.2-0.4-0.7c0-0.6,0.4-1.3,0.6-1.7
					c1.2-2.3,3.2-0.4,3.4,1.4c0,0.2,0.3,0.2,0.3,0c-0.1-1.3-1-3-2.5-2.8c-1.5,0.2-2,2.5-2.2,3.6c0,0.1,0,0.1,0.1,0.2
					c0.5,0.2,0.9,0.5,1.4,0.7C82.9,121.5,83,121.2,82.9,121.1L82.9,121.1z"/>
			</g>
		</g>
	</g>
	<g>
		<g>
			<g>
				<path class="st0" d="M61,119.9c0.2-0.5,0.3-0.9,0.5-1.4c0.1-0.3,0.3-1.4,0.7-1.5c0.2,0,0.1-0.3-0.1-0.3
					c-0.4,0.1-0.5,0.6-0.6,0.9c-0.3,0.7-0.5,1.4-0.7,2.2C60.6,120,60.9,120.1,61,119.9L61,119.9z"/>
			</g>
		</g>
	</g>
	<g>
		<g>
			<g>
				<path class="st0" d="M81.3,120.7c0-1.5-0.5-2.9-1.4-4.1c-0.1-0.1-0.4,0-0.3,0.1c0.9,1.1,1.3,2.5,1.4,3.9
					C81,120.9,81.3,120.9,81.3,120.7L81.3,120.7z"/>
			</g>
		</g>
	</g>
	<g>
		<g>
			<g>
				<path class="st0" d="M57.1,118.4c0.1,0.1,0.2-1.5,0.2-1.6c0-0.4,0-0.9,0-1.3c0-0.6-0.1-1.2-0.4-1.7c-0.1-0.2-0.4,0-0.3,0.1
					c0.5,0.9,0.4,2,0.4,3.1C57,117.4,56.8,118.1,57.1,118.4c0,0.1,0.2,0.1,0.2,0.1c0,0,0,0,0,0c0,0,0-0.1,0-0.2l0,0
					C57.2,118,57,118.2,57.1,118.4L57.1,118.4z"/>
			</g>
		</g>
	</g>
	<g>
		<g>
			<g>
				<path class="st0" d="M85.6,118.5c-0.9-1.4-1.2-3-0.9-4.5c0-0.2-0.2-0.3-0.3-0.1c-0.4,1.7,0,3.4,0.9,4.8
					C85.5,118.8,85.7,118.7,85.6,118.5L85.6,118.5z"/>
			</g>
		</g>
	</g>
	<g>
		<g>
			<g>
				<path class="st0" d="M59.5,115.5c0-1-0.1-1.9-0.3-2.8c-0.1-0.5-0.3-1.2-1-1.4c-1.3-0.2-1.5,1.9-1.3,2.7c0,0.2,0.3,0.1,0.3-0.1
					c-0.1-0.5-0.1-1,0-1.4c0.2-0.7,0.7-0.8,1.6-0.2c0,0.2,0.1,0.4,0.1,0.6c0.2,0.9,0.2,1.7,0.2,2.6
					C59.3,115.7,59.5,115.7,59.5,115.5L59.5,115.5z"/>
			</g>
		</g>
	</g>
	<g>
		<g>
			<g>
				<path class="st0" d="M81.8,115.9c0-0.4,0-0.8,0-1.2c0-0.5,0.1-1.2,0.5-1.5c0.9-0.6,1.7,0.6,2,1.3c0.1,0.1,0.3,0,0.3-0.1
					c0-0.1,0-0.1,0-0.2c0-0.2-0.3-0.1-0.3,0.1c0,0.1,0,0.1,0,0.2c0.1,0,0.2-0.1,0.3-0.1c-0.4-0.8-1.2-1.9-2.3-1.5
					c-1,0.4-0.9,2.2-0.8,3.1C81.5,116.1,81.8,116.1,81.8,115.9L81.8,115.9z"/>
			</g>
		</g>
	</g>
	<g>
		<g>
			<g>
				<path class="st0" d="M58.4,118.7c-0.4-0.8,0-1.8,0.9-2.1c0.2-0.1,0.1-0.4-0.1-0.3c-1,0.4-1.5,1.6-1.1,2.6
					C58.2,119,58.5,118.9,58.4,118.7L58.4,118.7z"/>
			</g>
		</g>
	</g>
	<g>
		<g>
			<g>
				<path class="st0" d="M83.1,117.3c1,0.3,1.5,1.3,1.3,2.2c0,0.2,0.2,0.3,0.3,0.1c0.3-1.1-0.4-2.3-1.5-2.6
					C83,117,83,117.3,83.1,117.3L83.1,117.3z"/>
			</g>
		</g>
	</g>
	<g>
		<g>
			<g>
				<path class="st0" d="M58.9,117.9C58.9,117.8,58.9,117.9,58.9,117.9C58.9,117.9,58.9,117.9,58.9,117.9
					C58.9,117.9,59,117.9,58.9,117.9c0.1,0,0.1,0,0.1,0.1c0,0-0.1,0.1-0.1,0.1c-0.1,0,0,0,0,0c0,0,0,0,0,0
					C58.9,118,58.9,117.9,58.9,117.9c0.2,0,0.1-0.3,0-0.2c-0.2,0.1-0.4,0.3-0.3,0.6c0,0.1,0.2,0.2,0.3,0.2c0.1,0,0.3-0.1,0.3-0.2
					c0.1-0.2,0-0.5-0.2-0.6c-0.2,0-0.4,0.1-0.4,0.3C58.6,118.1,58.9,118.1,58.9,117.9L58.9,117.9z"/>
			</g>
		</g>
	</g>
	<g>
		<g>
			<g>
				<path class="st0" d="M83.3,118.5c-0.1-0.1-0.1-0.3,0.1-0.2c0.3,0.1,0.1,0.4-0.1,0.4s-0.1,0.3,0.1,0.3c0.2,0,0.4-0.3,0.4-0.5
					c0-0.2-0.2-0.4-0.4-0.5c-0.2,0-0.4,0.1-0.5,0.3c-0.1,0.2,0,0.4,0.2,0.5C83.4,118.9,83.5,118.6,83.3,118.5L83.3,118.5z"/>
			</g>
		</g>
	</g>
	<g>
		<g>
			<g>
				<path class="st0" d="M55.5,122.3c2,0.6,3.8-1.1,5.3-2.2c0.1-0.1,0-0.4-0.1-0.3c-1.4,1-3.2,2.8-5,2.2
					C55.4,122,55.3,122.2,55.5,122.3L55.5,122.3z"/>
			</g>
		</g>
	</g>
	<g>
		<g>
			<g>
				<path class="st0" d="M81.2,120.6c-0.3,0.6,0.1,1,0.6,1.3c1,0.6,2.1,1,3.1,1.5c0.2,0.1,0.3-0.2,0.1-0.3c-0.6-0.3-1.2-0.6-1.9-0.9
					c-0.4-0.2-2.2-0.7-1.8-1.5C81.5,120.6,81.3,120.4,81.2,120.6L81.2,120.6z"/>
			</g>
		</g>
	</g>
	<g>
		<g>
			<g>
				<path class="st0" d="M53,120.9c-0.2,0.3-1,0.3-0.9,0.8c0.1,0.4,0.8,0.5,1.1,0.4c0.4-0.1,0.7-0.5,0.5-0.8
					c-0.1-0.3-0.6-0.4-0.8-0.2c-0.1,0.1,0.1,0.4,0.2,0.2c0.2-0.2,0.4,0.1,0.3,0.4c-0.2,0.3-0.5,0.2-0.7,0.1c-0.1,0-0.4-0.1-0.2-0.3
					c0.1-0.1,0.2-0.1,0.3-0.2c0.2,0,0.3-0.1,0.4-0.3C53.3,121,53.1,120.8,53,120.9L53,120.9z"/>
			</g>
		</g>
	</g>
	<g>
		<g>
			<g>
				<path class="st0" d="M53.8,122.8c0.6,0,1.2,0,1.8-0.1c0.2,0,0.1-0.3-0.1-0.3c-0.6,0.1-1.2,0.2-1.8,0.1
					C53.6,122.5,53.6,122.8,53.8,122.8L53.8,122.8z"/>
			</g>
		</g>
	</g>
	<g>
		<g>
			<g>
				<path class="st0" d="M56.8,122.7c-0.4-0.1-0.9,0-1.2,0.3c-0.1,0.1,0,0.2,0,0.2c0.5,0.3,1.1,0.3,1.6,0c0.1-0.1,0.1-0.2,0-0.3
					c-0.2-0.1-0.4-0.2-0.6-0.2c-0.2-0.1-0.3,0.2-0.1,0.3c0.2,0.1,0.4,0.2,0.6,0.2c0-0.1,0-0.2,0-0.3c-0.4,0.3-0.9,0.3-1.3,0
					c0,0.1,0,0.2,0,0.2c0.3-0.3,0.6-0.3,1-0.2C56.9,123.1,57,122.8,56.8,122.7L56.8,122.7z"/>
			</g>
		</g>
	</g>
	<g>
		<g>
			<g>
				<path class="st0" d="M58.4,122.2c-0.2-0.1-0.5,0-0.7,0.2c0,0,0,0.1,0,0.2c0.2,0.2,0.6,0.2,0.7,0c0.1-0.1-0.1-0.4-0.2-0.2
					c-0.1,0.1-0.2,0.1-0.3,0c0,0.1,0,0.1,0,0.2c0.1-0.1,0.2-0.1,0.3-0.1C58.4,122.5,58.5,122.2,58.4,122.2L58.4,122.2z"/>
			</g>
		</g>
	</g>
	<g>
		<g>
			<g>
				<path class="st0" d="M60.6,120.7c1.5-0.3,3.1-0.4,4.7-0.2c0.2,0,0.2-0.3,0-0.3c-1.6-0.2-3.2-0.1-4.7,0.2
					C60.3,120.5,60.4,120.8,60.6,120.7L60.6,120.7z"/>
			</g>
		</g>
	</g>
	<g>
		<g>
			<g>
				<path class="st0" d="M76.8,122.1c1.5-0.2,2.9-0.3,4.3,0c0.2,0,0.3-0.3,0.1-0.3c-1.5-0.2-3-0.2-4.5,0
					C76.5,121.8,76.6,122.1,76.8,122.1L76.8,122.1z"/>
			</g>
		</g>
	</g>
	<g>
		<g>
			<g>
				<path class="st0" d="M80.3,122.7c-0.2,0-0.4,0.1-0.5,0.3c-0.1,0.1,0,0.2,0.1,0.2c0.5,0.2,1,0.2,1.4,0c0.1,0,0.1-0.2,0.1-0.2
					c-0.2-0.2-0.5-0.3-0.8-0.1c-0.2,0.1,0,0.4,0.1,0.3s0.4,0,0.5,0.1c0-0.1,0-0.2,0.1-0.2c-0.4,0.1-0.8,0.1-1.3,0
					c0,0.1,0,0.2,0.1,0.2c0.1-0.1,0.2-0.2,0.4-0.2C80.5,123,80.4,122.7,80.3,122.7L80.3,122.7z"/>
			</g>
		</g>
	</g>
	<g>
		<g>
			<g>
				<path class="st0" d="M83.4,123.3c-0.3-0.1-0.7,0-0.9,0.2c-0.1,0.1-0.1,0.2,0,0.3c0.2,0.1,0.4,0.1,0.6-0.1
					c0.1-0.1-0.1-0.3-0.2-0.2c-0.1,0.1-0.1,0.1-0.2,0c0,0.1,0,0.2,0,0.3c0.2-0.1,0.5-0.2,0.7-0.2C83.5,123.6,83.6,123.3,83.4,123.3
					L83.4,123.3z"/>
			</g>
		</g>
	</g>
	<g>
		<g>
			<g>
				<path class="st0" d="M84.6,124.3c0.1,0,0.2-0.1,0.3-0.1c0.1,0,0.1-0.2,0-0.3c-0.5-0.1-1.2-0.2-1.3,0.5c-0.1,0.5,0.5,0.6,0.9,0.6
					c0.4,0,1-0.2,0.9-0.7c0-0.3-0.5-0.7-0.7-0.3c-0.1,0.1,0.1,0.4,0.2,0.2c0.1-0.1,0.2,0,0.2,0.1c0,0.1-0.1,0.2-0.2,0.3
					c-0.2,0.1-0.4,0.1-0.6,0.1c-0.2,0-0.7-0.1-0.4-0.4c0.2-0.2,0.6-0.1,0.8,0c0-0.1,0-0.2,0-0.3c-0.1,0-0.2,0.1-0.3,0.1
					C84.4,124.1,84.5,124.4,84.6,124.3L84.6,124.3z"/>
			</g>
		</g>
	</g>
	<g>
		<g>
			<g>
				<path class="st0" d="M57,114.2c-0.1-1-0.1-2,0.1-3c0-0.2,0.1-0.4,0.1-0.7c0.1-0.6,0.6-0.8,1.5-0.4c0.2,0.2,0.3,1,0.4,1.3
					c0,0.2,0.3,0.1,0.3-0.1c-0.2-0.7-0.7-3-2-1.9c-0.5,0.4-0.6,1.2-0.7,1.8c-0.2,1-0.2,1.9,0,2.9C56.7,114.4,57,114.4,57,114.2
					L57,114.2z"/>
			</g>
		</g>
	</g>
	<g>
		<g>
			<g>
				<path class="st0" d="M84.5,114.2c0-0.9-0.2-2.2-1.2-2.6c-0.7-0.3-1.5,0.3-1.4,1c0,0.2,0.3,0.1,0.3-0.1c-0.1-0.5,0.4-0.8,0.8-0.7
					c0.3,0.1,0.6,0.3,0.7,0.6c0.3,0.5,0.4,1.1,0.4,1.8C84.3,114.5,84.5,114.5,84.5,114.2L84.5,114.2z"/>
			</g>
		</g>
	</g>
	<g>
		<g>
			<g>
				<path class="st0" d="M60.4,115.9c-0.1-0.1,0-0.3,0.1-0.4c0.1-0.1,0.3-0.1,0.4,0.1c0,0.1,0,0.3-0.1,0.4c-0.1,0.1-0.4,0-0.5-0.1
					c-0.1-0.1-0.4,0-0.3,0.1c0.2,0.3,0.6,0.4,0.8,0.2c0.3-0.2,0.4-0.5,0.2-0.8c-0.1-0.1-0.2-0.3-0.3-0.3c-0.1,0-0.3,0-0.4,0.1
					c-0.3,0.2-0.4,0.6-0.2,0.8C60.3,116.2,60.5,116,60.4,115.9L60.4,115.9z"/>
			</g>
		</g>
	</g>
	<g>
		<g>
			<g>
				<path class="st0" d="M60.5,114.1c-0.1-0.1-0.1-0.4,0.1-0.4c0.2-0.1,0.4,0.2,0.4,0.4c0,0,0,0,0.1-0.1c-0.3,0.1-0.5,0.2-0.8,0.2
					c-0.2,0-0.2,0.3,0,0.3c0.2,0,0.4,0,0.5,0c0.1,0,0.4-0.1,0.5-0.2c0.2-0.2,0-0.6-0.2-0.7c-0.5-0.3-1.1,0.4-0.7,0.8
					C60.4,114.4,60.6,114.3,60.5,114.1L60.5,114.1z"/>
			</g>
		</g>
	</g>
	<g>
		<g>
			<g>
				<path class="st0" d="M60.3,112.1c0-0.3,0.1-0.5,0.4-0.6c0,0-0.1,0-0.2-0.1c0.1,0.2,0.3,0.6,0.1,0.8c-0.1,0.1-0.4,0.1-0.4,0
					c0-0.2-0.3-0.2-0.3,0c0,0.4,0.4,0.5,0.7,0.3c0.5-0.3,0.2-0.9,0-1.2c0-0.1-0.1-0.1-0.2-0.1c-0.4,0.1-0.7,0.5-0.6,0.9
					C60,112.3,60.3,112.3,60.3,112.1L60.3,112.1z"/>
			</g>
		</g>
	</g>
	<g>
		<g>
			<g>
				<path class="st0" d="M80.1,115.5c0-0.1,0-0.1,0.1-0.1c0,0-0.1,0-0.1,0c0.1,0.1,0.2,0.2,0.3,0.3c0-0.1,0-0.1,0-0.2
					c-0.1,0.2-0.3,0.4-0.4,0.6c0,0,0.1,0,0.1-0.1c-0.1,0-0.2-0.1-0.2-0.3c0-0.2-0.2-0.3-0.3-0.1c-0.1,0.3,0.1,0.5,0.3,0.6
					c0.1,0,0.2,0,0.3-0.1c0.1-0.2,0.3-0.4,0.4-0.5c0,0,0-0.1,0-0.2c-0.1-0.2-0.3-0.4-0.5-0.4c-0.2,0-0.3,0.2-0.3,0.4
					C79.9,115.6,80.2,115.6,80.1,115.5L80.1,115.5z"/>
			</g>
		</g>
	</g>
	<g>
		<g>
			<g>
				<path class="st0" d="M80.5,114.2c0-0.1,0.1-0.2,0.2-0.3c0.1,0,0.3,0,0.3,0.1c0,0.1-0.1,0.3-0.2,0.3
					C80.7,114.4,80.5,114.3,80.5,114.2c0.1-0.2-0.1-0.4-0.2-0.2c-0.1,0.3,0.1,0.6,0.4,0.6c0.3,0,0.5-0.3,0.5-0.6
					c0-0.7-1.1-0.5-1.1,0.1C80.3,114.4,80.6,114.4,80.5,114.2L80.5,114.2z"/>
			</g>
		</g>
	</g>
	<g>
		<g>
			<g>
				<path class="st0" d="M62.5,116c2.2,0.5,4.3,0.5,6.5,0.2c0.2,0,0.1-0.3-0.1-0.3c-2.1,0.3-4.2,0.3-6.4-0.2
					C62.3,115.7,62.3,116,62.5,116L62.5,116z"/>
			</g>
		</g>
	</g>
	<g>
		<g>
			<g>
				<path class="st0" d="M28.2,118c1.9-0.4,3.8-0.8,5.6-1.2c0.8-0.2,2.2-0.1,2.6-1.1c0.1-0.3,0-0.6,0-0.9c0.1-1.1,1.3-2,2.2-0.7
					c0.5,0.7,0,0.9,0.5,1.4c0.7,0.7,2,0.6,2.9,0.3c0.5-0.2,0.6-0.3,1.2-0.3c0.1,0,0.3,0.1,0.4,0c0.5-0.2,0.1-0.2,0.5-0.5
					c0.9-0.6,1.2-0.2,2.1,0c0.6,0.1,1.3,0.1,1.8-0.1c1-0.4,0.5-1.3,0.5-2.1c0-0.7,0.1-1.5,0.5-2.2c1-1.5,3.3-0.8,3.3,1
					c0,0.1,0.1,0.2,0.2,0.1c0.4-0.3,0.8-0.6,1.2-0.9c0.2-0.1,0-0.4-0.1-0.3c-0.1,0.1-0.9,0.7-1,0.7c0,0-0.2-0.7-0.2-0.7
					c-0.3-0.5-0.7-0.9-1.3-1.1c-1.1-0.4-2,0.2-2.5,1.2c-0.2,0.4-0.4,1-0.4,1.5c0,0.3,0,0.6,0,0.9c0,0.3,0.1,0.5,0.1,0.8
					c-0.3,0.6-0.7,0.9-1.4,0.8c-0.9,0-1.6-0.6-2.4-0.6c-0.6,0-0.4,0.3-0.7,0.5c-0.5,0.4-1.5,0.7-2.2,0.9c-0.5,0.1-1,0.1-1.5,0
					c-0.7-0.2-0.8-0.5-1-1.1c-0.4-0.9-1-1.7-2.1-1.3c-0.4,0.2-0.7,0.5-0.8,0.9c-0.1,0.3,0,0.7,0,1c-0.1,0.7-0.5,0.9-1.1,1.1
					c-1.1,0.4-2.4,0.5-3.5,0.7c-1.1,0.3-2.3,0.5-3.5,0.7C28,117.7,28,118,28.2,118L28.2,118z"/>
			</g>
		</g>
	</g>
	<g>
		<g>
			<g>
				<path class="st0" d="M86.4,110.1c1,0.5,2,0.7,3.1,0.4c0.5-0.1,0.9-0.4,1.4-0.7c0.6-0.4,0.7-0.7,1.3-0.1c0.7,0.9,0.1,0.1,0.3,0.8
					c0.2,1.1,0.5,0.8,1.5,1.2c0.5,0.2,0.8,0.8,1.4,0.9c0.5,0.1,1.1-0.1,1.6-0.3c1.8-0.6,3.5-0.2,5.3,0.4c0.6,0.2,1.2,0.5,1.5,1.1
					c0.1,0.3,0,0.6,0.2,0.8c0.1,0.2,0.3,0.3,0.5,0.4c0.3,0.1,0.6,0,0.9,0c0.2-0.1,0.4-0.2,0.6-0.3c1-0.4,1.5-0.3,2.3,0.1
					c1.4,0.6,2.6,1.1,4.1,1c0.2,0,0.2-0.3,0-0.3c-1.1,0-2.2-0.1-3.2-0.6c-0.6-0.3-1.1-0.6-1.7-0.7c-0.5-0.1-0.9-0.1-1.3,0.1
					c-0.2,0-0.5,0.3-0.6,0.3c-0.5-0.1-0.9-0.2-1.4-0.3c0-0.1,0-0.3-0.1-0.4c-0.4-0.9-0.9-1.2-1.8-1.5c-1.3-0.5-2.7-0.9-4.1-0.8
					c-0.6,0.1-1.1,0.3-1.7,0.5c-1.1,0.3-1.3-0.2-2.2-0.7c-0.8-0.4-1.4,0-1.5-1.4c0-0.3,0.1-0.5,0-0.8c-0.3-0.5-0.9-0.4-1.4-0.2
					c-0.7,0.3-1.2,0.9-2,1.1c-1,0.3-2,0.1-2.9-0.4C86.4,109.7,86.3,110,86.4,110.1L86.4,110.1z"/>
			</g>
		</g>
	</g>
	<g>
		<g>
			<g>
				<path class="st0" d="M37.8,122.2c0.3-0.1,0.6-0.2,0.9-0.2c0.1,0,0.3,0,0.4,0.1c0.2,0.1,0.3,0.4,0.1,0.6
					c-0.4,0.4-1.1,0.4-1.5,0.2c-0.2-0.1-0.3,0.2-0.1,0.3c0.4,0.2,0.9,0.1,1.4,0c0.3-0.1,0.7-0.4,0.7-0.7s-0.4-0.6-0.7-0.6
					c-0.5-0.1-1,0-1.4,0.2C37.5,122,37.7,122.3,37.8,122.2L37.8,122.2z"/>
			</g>
		</g>
	</g>
	<g>
		<g>
			<g>
				<path class="st0" d="M47.3,118.7c0.3-0.2,0.7-0.2,1.1,0c0,0,0-0.1-0.1-0.2c-0.1,0.3-0.3,0.4-0.6,0.4c-0.2,0-0.3,0.3-0.1,0.3
					c0.4,0.1,0.8-0.2,0.9-0.6c0,0,0-0.1-0.1-0.2c-0.4-0.2-0.9-0.2-1.3,0C47,118.5,47.2,118.7,47.3,118.7L47.3,118.7z"/>
			</g>
		</g>
	</g>
	<g>
		<g>
			<g>
				<path class="st0" d="M68.2,126.3c1.2-0.6,2.5-1,3.8-1c0.6,0,0.6,0,0.8,0.6c0.3,0.4,0.3,0.6-0.1,0.7c-0.2,0.1-0.4,0.2-0.7,0.3
					c-0.7,0.2-1.5,0.3-2.2,0.2c0,0.1,0,0.2,0.1,0.3c0.3-0.2,0.5-0.4,0.8-0.5c0.2-0.1,0-0.4-0.1-0.3c-0.3,0.2-0.5,0.4-0.8,0.5
					c-0.1,0.1-0.1,0.3,0.1,0.3c0.7,0,4.7-0.3,3.6-1.8c-0.4-0.6-1.5-0.5-2.1-0.5c-1.1,0.1-2.2,0.4-3.3,1
					C67.9,126.1,68,126.4,68.2,126.3L68.2,126.3z"/>
			</g>
		</g>
	</g>
	<g>
		<g>
			<g>
				<path class="st0" d="M94.5,118.4c0.5-0.3,1.1-0.2,1.7,0.1c0-0.1,0-0.1,0-0.2c-0.2,0.2-0.4,0.4-0.6,0.4c-0.2,0-0.1,0.3,0.1,0.3
					c0.4-0.1,0.6-0.3,0.8-0.5c0-0.1,0-0.2,0-0.2c-0.6-0.4-1.3-0.4-2-0.1C94.2,118.2,94.3,118.5,94.5,118.4L94.5,118.4z"/>
			</g>
		</g>
	</g>
	<g>
		<g>
			<g>
				<path class="st0" d="M105.1,121.9c0.2,0,0.5,0,0.7,0c0.1,0,0.3,0.1,0.2,0.2c0,0-0.1,0.1-0.1,0c0-0.2-0.3-0.1-0.3,0.1
					c0,0.4,0.6,0.3,0.7,0c0-0.2-0.1-0.4-0.3-0.5c-0.3-0.1-0.6,0-0.9-0.1C105,121.6,104.9,121.8,105.1,121.9L105.1,121.9z"/>
			</g>
		</g>
	</g>
	<g>
		<g>
			<g>
				<path class="st0" d="M33.3,128.8c2-0.5,4-0.9,6-1.1c0.9-0.1,1.8-0.1,2.6-0.1c0.2,0,1.1-0.1,1.3,0c0.4,0.3,0.1,0.9,0.1,1.4
					c0,0.1,0.1,0.2,0.2,0.2c2.2-0.3,4.4,0.4,6.6,0.3c1.9,0,3.6-0.9,5.5-1.3c1.1-0.3,2.1-0.2,3.2,0.2c0.6,0.2,1.3,0.6,1.9,0.5
					c0.6-0.1,0.7-0.3,1-0.7c0.7-1.2,1.4-2.8,3.2-2.4c0.2,0,0.3-0.2,0.1-0.3c-1.8-0.4-2.5,1-3.4,2.2c-1,1.5-2.3,0.5-3.5,0.2
					c-0.8-0.2-1.6-0.2-2.4,0c-2.3,0.5-4.2,1.5-6.6,1.3c-1.2-0.1-2.3-0.3-3.5-0.4c-0.3,0-1.5,0.2-1.7,0c-0.4-0.2-0.1-0.9,0-1.3
					c0-0.1,0-0.2-0.1-0.2c-3.6-0.1-7.1,0.3-10.5,1.2C33,128.6,33.1,128.9,33.3,128.8L33.3,128.8z"/>
			</g>
		</g>
	</g>
	<g>
		<g>
			<g>
				<path class="st0" d="M66.1,124.3c1.2-2,4-1.2,5.8-0.9c0.2,0,0.3-0.3,0.1-0.3c-2-0.3-4.9-1.1-6.2,1
					C65.8,124.3,66,124.5,66.1,124.3L66.1,124.3z"/>
			</g>
		</g>
	</g>
	<g>
		<g>
			<g>
				<path class="st0" d="M87.8,128.5c4.5-0.2,9-0.5,13.5-0.3c1.1,0,2.2,0.1,3.3,0.2c0.6,0,1.3,0.1,1.9-0.1c0.8-0.3,0.8-0.7,1.9-0.8
					c0.4,0,0.9,0.1,1.3,0.1c1.2,0.1,2.4,0.2,3.7,0.3c0.2,0,0.2-0.3,0-0.3c-1.2-0.1-2.4-0.2-3.7-0.3c-0.7,0-1.5-0.2-2.2,0
					c-0.7,0.2-0.9,0.7-1.7,0.8c-0.4,0.1-0.8,0-1.2,0c-1.1,0-2.2-0.1-3.3-0.2c-4.5-0.2-9,0.1-13.5,0.3
					C87.6,128.2,87.6,128.5,87.8,128.5L87.8,128.5z"/>
			</g>
		</g>
	</g>
	<g>
		<g>
			<g>
				<path class="st0" d="M73.8,113.4c2.4,0.3,4.6-0.9,5.9-2.8c0.6-0.9-0.4-1.9-1.3-1.7c-1.1,0.2-1.1,1.2-1.9,1.8
					c-0.9,0.7-2.4,0.7-3.4,1.2c-0.7,0.4-0.7,1.3-0.2,1.9c0.9,1.2,2.7,0.6,3.9,0.1c1.4-0.7,2.6-1.9,3.3-3.3c-0.7-0.3-1.4-0.6-2.1-0.9
					c-0.8,2.8-5.6,1.5-7.6,1.2c-1.1-0.1-1.4,1.3-0.8,2c1.7,2.1,4.8,1.3,6.9,0.3c2.2-1.1,4.9-3.4,4.3-6.2c-0.3-1.1-2.1-1.2-2.2,0
					c-0.2,1.7-0.7,3.1-2.4,3.9c-0.9,0.4-1.9,0.7-2.9,0.7c-0.2,0-0.4,0-0.6,0c-0.2,0-0.2,0-0.1-0.1c-0.1-0.3,0.3-1.2,0.4-1.4
					c0.2-0.3,0.5-0.8,1-0.7c0.3,0,0.5,0.1,0.5,0.4c-0.1,0.6-1.6,0.6-0.7-0.3c0.3-0.3,1.3-0.8,1.8-0.4c0.5,0.4-0.4,1.6-0.8,1.4
					c0.1,0.5,0.3,1.1,0.4,1.6c0.2-0.5,0.5-1,1-1.3c0.1-0.1,0.6-0.2,0.7-0.3s0.2-0.5-0.1-0.1c-0.6,0.8-0.1,2.5,1.1,2
					c1.7-0.7,3.1-1.9,3.9-3.6c-0.6,0.1-1.2,0.2-1.9,0.2c0,0,0,0-0.1,0c0.7,0.2,1.5,0.4,2.2,0.6c0-0.9,0-1.8,0-2.7
					c-0.8,0-1.6,0-2.3,0c0,0.7,0,1.5,0,2.2c0,1.3,2,1.6,2.3,0.3c0.2-0.7,0.3-1.3,0.5-2c-0.7,0.2-1.3,0.4-2,0.5
					c-0.1-0.2-0.1-0.1-0.1,0.2c0,0.2-0.1,0.4-0.1,0.5c-0.1,0.4-0.2,0.7-0.4,1c-0.4,0.7-0.8,1.4-1.4,1.9c-1.2,1.1-2.8,1.6-4.5,1.6
					c-0.7,0-1.8-0.1-2.2-0.8c-0.3-0.6,0-1.4,0.4-1.9c0.5-0.7,1.2-1.2,1.8-1.6c0.3-0.3,0.7-0.5,1-0.7c0.2-0.2,0.4-0.3,0.7-0.5
					c0.4-0.2,0.4-0.3,0-0.2c-0.2-0.2-0.5-0.4-0.7-0.5c0,0,0,0.1,0.1,0.1c0-0.4,0-0.8,0-1.2c-0.8,1.3-2,2.4-3.5,3
					c0.4,0.6,0.9,1.1,1.3,1.7c0.2-0.3,0.3-0.6,0.6-0.8c0,0,1-0.5,1-0.5c-0.1-0.1-0.2-0.3-0.3-0.4c-0.1,0.3-0.2,0.5-0.3,0.8
					c-0.2,0.4-0.4,0.8-0.6,1.2c-0.7,1.2,0.8,2.2,1.9,1.4c1.3-1,2.6-2,4-2.9c-0.5-0.1-0.9-0.1-1.4-0.2c-0.1-0.4-0.2-0.4-0.3,0
					c-0.1,0.2-0.2,0.4-0.3,0.6c-0.2,0.4-0.4,0.9-0.6,1.3c-0.5,1,0.5,2.2,1.6,1.6c0.9-0.6,1.6-1.3,2.2-2.2c0.7-1.1-0.9-2.3-1.9-1.4
					c-0.5,0.4-0.8,0.9-1.1,1.5c-0.6,1,0.6,2.2,1.6,1.6c1.7-1.1,2.4-3.5,0.8-5.1c-1.5-1.5-3.9-0.7-4.5,1.2c-0.3,0.8,0.6,1.7,1.5,1.5
					c1.3-0.4,2.3-1.4,2.6-2.7c0.2-0.7-0.3-1.6-1.1-1.5c-1.6,0.2-3,1-3.7,2.6c-0.4,0.9,0.3,2,1.3,1.7c0.6-0.2,1-0.5,1.3-1
					c0.6-1.4-1.4-2.6-2-1.2c0,0,0.1,0,0.1,0c0.4,0.6,0.9,1.1,1.3,1.7c0.3-0.7,0.8-1.3,1.7-1.4c-0.4-0.5-0.7-1-1.1-1.5
					c-0.1,0.6-0.4,0.9-1,1.1c0.5,0.5,1,1,1.5,1.5c0.2-0.7,1.5,0.4,0.3,1.1c0.5,0.5,1.1,1.1,1.6,1.6c0.2-0.4,0.5-0.7,0.8-1
					c-0.6-0.5-1.2-0.9-1.9-1.4c-0.4,0.6-0.8,1-1.4,1.3c0.5,0.5,1.1,1.1,1.6,1.6c0.6-1.2,2.2-3.5,0.8-4.7c-0.4-0.3-1-0.5-1.4-0.2
					c-1.5,1-3,2.1-4.5,3.3c0.6,0.5,1.2,0.9,1.9,1.4c0.7-1.3,2.2-4.3,0-5.1c-1.7-0.6-3.7,1-4.4,2.4c-0.4,0.8,0.3,2.1,1.3,1.7
					c1.6-0.7,3-1.6,4.1-3c0.5-0.7,1.2-1.4,0.8-2.3c-0.3-0.6-0.9-0.8-1.6-0.7c-0.9,0.2-1.7,1-2.4,1.5c-0.7,0.5-1.4,1-2.1,1.6
					c-1.2,1.1-2,2.8-1.6,4.5c0.9,3.7,6.3,3.2,8.9,1.8c1.5-0.8,2.8-2.2,3.5-3.7c0.6-1.3,1.3-3.3,0.1-4.5c-0.6-0.6-1.8-0.4-2,0.5
					c-0.2,0.7-0.3,1.3-0.5,2c0.8,0.1,1.5,0.2,2.3,0.3c0-0.7,0-1.5,0-2.2c0-1.5-2.3-1.5-2.3,0c0,0.9,0,1.8,0,2.7
					c0,1.1,1.6,1.6,2.2,0.6c0.6-1,0.4-2-0.3-2.9c-0.4-0.6-1.5-0.4-1.9,0.2c-0.5,1.1-1.3,2-2.5,2.5c0.4,0.7,0.7,1.3,1.1,2
					c1.1-1.3,1.2-3.5-0.8-3.9c-1.8-0.4-3.6,1.2-4.3,2.8c-0.3,0.6-0.1,1.2,0.4,1.6c2.8,2.1,6.5-3.7,3-5.5c-1.4-0.7-3.4-0.2-4.5,0.9
					c-1.1,1.1-1.4,3.2,0.1,4.2c3.1,2.1,6.7-3,3.1-4.8c-1.6-0.8-3.4,0.1-4.3,1.6c-0.8,1.3-1.3,3.9,0.4,4.8c1.8,0.9,4.7,0,6.3-0.9
					c2-1.1,2.8-3,3.1-5.2c-0.7,0-1.5,0-2.2,0c0.4,1.5-2.1,3-3.2,3.6c-1.1,0.6-3.1,1.2-4.1,0.1c-0.3,0.7-0.6,1.3-0.8,2
					c3.4,0.4,8.6,1.5,9.8-3c0.4-1.2-1.5-2.1-2.1-0.9c-0.4,0.8-0.8,1.5-1.5,1.9c-0.3,0.2-1.7,1.1-1.9,0.8c-0.1,0.6-0.2,1.2-0.2,1.9
					c1-0.5,2.2-0.6,3.3-1.1c0.4-0.2,0.7-0.5,1-0.8c0.2-0.2,0.3-0.4,0.4-0.6c0.2-0.3,0.3-0.3,0-0.2c-0.4-0.6-0.9-1.1-1.3-1.7
					c-0.9,1.3-2.3,1.8-3.9,1.7C72.3,110.9,72.4,113.2,73.8,113.4L73.8,113.4z"/>
			</g>
		</g>
	</g>
</g>
</svg>
