<?xml version="1.0" encoding="utf-8"?>
<!-- Generator: Adobe Illustrator 24.0.1, SVG Export Plug-In . SVG Version: 6.00 Build 0)  -->
<svg version="1.1" id="Layer_1" xmlns="http://www.w3.org/2000/svg" xmlns:xlink="http://www.w3.org/1999/xlink" x="0px" y="0px"
	 viewBox="0 0 141.7 141.7" style="enable-background:new 0 0 141.7 141.7;" xml:space="preserve">
<style type="text/css">
	.st0{fill:#070707;}
</style>
<g id="Layer_1_1_">
</g>
<g id="Layer_1_2_">
</g>
<g id="Layer_1_3_">
</g>
<g id="Layer_1_4_">
</g>
<g id="Layer_1_5_">
</g>
<g id="Layer_3">
</g>
<g id="Layer_3_1_">
</g>
<g id="Layer_1_6_">
</g>
<g id="Layer_1_7_">
</g>
<g id="Layer_1_8_">
</g>
<g id="Layer_1_9_">
</g>
<g id="Layer_1_10_">
</g>
<g id="Layer_1_11_">
</g>
<g id="Layer_1_12_">
</g>
<g id="Layer_1_13_">
</g>
<g id="Layer_1_14_">
</g>
<g id="Layer_1_15_">
</g>
<g id="Layer_1_16_">
</g>
<g id="Layer_1_17_">
</g>
<g id="Layer_1_18_">
</g>
<g id="Layer_1_19_">
</g>
<g id="Layer_1_20_">
</g>
<g id="Layer_2_1_">
</g>
<g id="Layer_4">
	<g>
		<g>
			<g>
				<path class="st0" d="M90.9,55.4c-2.1-3.7-5.5-6.3-9.5-7.6c-5.2-1.8-10.9-0.7-16.2-0.2c-4.8,0.4-9.2,2.1-12.5,5.7
					c-3.2,3.5-4.6,7.8-5.2,12.5c-0.9,6.4-0.3,12.9,0.5,19.3c0.1,0.6,1,0.6,0.9,0c-1.3-11.1-3.1-26.8,7.7-33.9
					c2.7-1.8,6.1-2.4,9.3-2.6c3.3-0.3,6.6-0.7,9.9-0.7c5.8,0.1,11.5,3,14.3,8.1C90.5,56.4,91.2,55.9,90.9,55.4L90.9,55.4z"/>
			</g>
		</g>
	</g>
	<g>
		<g>
			<g>
				<path class="st0" d="M63.2,48.8c0.6,0,0.6-0.9,0-0.9S62.6,48.8,63.2,48.8L63.2,48.8z"/>
			</g>
		</g>
	</g>
	<g>
		<g>
			<g>
				<path class="st0" d="M42.3,52.9c-3.3-0.3-5.4-3.7-3.4-6.7c1.5-2.2,5.8-3.6,7.9-1.4c0.4,0.4,1.1-0.2,0.7-0.7
					c-2.6-2.8-7.9-1-9.6,2c-2,3.5,0.7,7.2,4.4,7.6C42.9,53.9,42.9,53,42.3,52.9L42.3,52.9z"/>
			</g>
		</g>
	</g>
	<g>
		<g>
			<g>
				<path class="st0" d="M91.7,44.8c2.4-1.2,6.2-1.9,8,0.7c1.7,2.7,0.7,6.7-2.7,7.4c-0.6,0.1-0.3,1,0.3,0.9c3.7-0.8,5.1-5.1,3.4-8.3
					c-1.8-3.5-6.4-3-9.4-1.4C90.7,44.3,91.2,45.1,91.7,44.8L91.7,44.8z"/>
			</g>
		</g>
	</g>
	<g>
		<g>
			<g>
				<path class="st0" d="M67.8,68c0.1,0,0.1,0,0.2,0c-0.1-0.1-0.1-0.3-0.2-0.4c-0.8,0.5-1.6,0.7-2.3,1.4c-0.5,0.5-1.1,1.3-1,2.1
					c0.4,3.2,5.3,1,6.9,1c1.7,0,4.9,1.9,5.4-1c0.4-2.2-2.4-3.4-4-4c-0.3-0.1-0.4,0.3-0.1,0.4c0.7,0.3,1.4,0.5,2,0.9
					c0.4,0.3,0.9,0.6,1.2,1c0.6,0.8,1.2,2.6-0.9,2.9c-1.3,0.1-2.6-0.8-4-0.7c-0.7,0.1-1.2,0.3-1.9,0.4c-0.7,0.2-1.3,0.3-2,0.3
					c-0.5,0-1-0.1-1.4-0.4c-0.2-0.6-0.4-1.2-0.5-1.8c0.2-1.2,2.1-1.7,2.9-2.2c0.2-0.1,0.1-0.5-0.2-0.4c-0.1,0-0.1,0-0.2,0
					C67.3,67.6,67.5,68,67.8,68L67.8,68z"/>
			</g>
		</g>
	</g>
	<g>
		<g>
			<g>
				<path class="st0" d="M73.4,72.5c0.4,1,0.5,2.1,0.3,3.1c-0.2,0.7-0.9,1.3-1.7,1.1c-0.6-0.1-0.7-0.7-0.9-1.2
					c-0.1-0.3-0.5,0-0.4,0.2c0.3,0.5,0.4,1.1,1.1,1.4c0.5,0.2,1.2,0,1.7-0.3c1.3-0.9,0.9-3.2,0.4-4.5C73.7,72.1,73.3,72.2,73.4,72.5
					L73.4,72.5z"/>
			</g>
		</g>
	</g>
	<g>
		<g>
			<g>
				<path class="st0" d="M58.4,92.9c2-1,3.2,1.6,4.6,2.6c0-0.1,0-0.3,0-0.4c-2.2,0.4-4.1,3.6-6.3,3.2c-2.2-0.4-1.7-2.6-0.5-3.7
					c0.8-0.8,1.9-1.4,2.9-1.9c0.3-0.1,0-0.5-0.2-0.4c-1.7,0.9-5.6,3.2-3.7,5.5c2.5,3,5.5-1.8,8-2.2c0.2,0,0.2-0.3,0-0.4
					c-1.6-1.2-2.7-3.7-5-2.6C57.9,92.7,58.1,93.1,58.4,92.9L58.4,92.9z"/>
			</g>
		</g>
	</g>
	<g>
		<g>
			<g>
				<path class="st0" d="M56,97.9c-0.3-1.2,0.6-2.1,1.6-2.6c0.3-0.1,0-0.5-0.2-0.4c-1.2,0.6-2.1,1.7-1.7,3.2
					C55.7,98.3,56.1,98.2,56,97.9L56,97.9z"/>
			</g>
		</g>
	</g>
	<g>
		<g>
			<g>
				<path class="st0" d="M87.1,100.2c-1.1-0.7-1.8-1.7-2.7-2.6c-0.6-0.6-1.1-1.1-0.2-2c0.6-0.5,1.5-1.1,2.3-1.1
					c1.6,0,2.8,1.4,3.3,2.7c0.3,0.7,0.6,1.8,0.1,2.5C89.3,100.8,88.1,100.7,87.1,100.2c-0.3-0.1-0.5,0.3-0.2,0.4
					c1.4,0.7,3.4,0.6,3.7-1.3c0.4-1.9-1.1-4.2-2.9-4.9c-0.9-0.4-1.8-0.3-2.6,0.1c-0.7,0.3-2.1,1.2-2.1,2.1c0,0.7,0.7,1,1.1,1.4
					c0.9,0.9,1.6,2,2.8,2.6C87.2,100.8,87.4,100.4,87.1,100.2z"/>
			</g>
		</g>
	</g>
	<g>
		<g>
			<g>
				<path class="st0" d="M87.7,97.6c0.8,0.8,1.4,1.8,1.4,3c0,0.3,0.5,0.3,0.4,0c0-1.3-0.7-2.4-1.6-3.3C87.8,97,87.5,97.4,87.7,97.6
					L87.7,97.6z"/>
			</g>
		</g>
	</g>
	<g>
		<g>
			<g>
				<path class="st0" d="M104.9,77.7c0.6,0.3,1.4,0,2,0.1c1.1,0.3,2.2,0.9,2.8,2c0.6,1.3,0.1,2.8-1.5,2.5c-1.2-0.2-2.1-1.1-2.9-1.8
					c-0.2-0.2-0.5,0.1-0.3,0.3c1,1,2.1,2,3.6,2c1,0,1.7-0.5,1.8-1.6c0.1-1.2-0.5-2.3-1.5-3c-0.6-0.4-1.4-0.8-2.1-0.9
					c-0.5-0.1-1.2,0.1-1.7-0.1C104.8,77.2,104.7,77.6,104.9,77.7L104.9,77.7z"/>
			</g>
		</g>
	</g>
	<g>
		<g>
			<g>
				<path class="st0" d="M107.8,80.7c0.7,0.2,1.7,0.8,1.2,1.7c-0.1,0.3,0.3,0.5,0.4,0.2c0.6-1.2-0.5-2.1-1.5-2.4
					C107.7,80.2,107.6,80.6,107.8,80.7L107.8,80.7z"/>
			</g>
		</g>
	</g>
	<g>
		<path class="st0" d="M74.8,65.9c-4.1,0-7.4-3.3-7.4-7.4c0-4.1,3.3-7.4,7.4-7.4c4.1,0,7.4,3.3,7.4,7.4
			C82.3,62.6,78.9,65.9,74.8,65.9z M74.8,51.7c-3.8,0-6.9,3.1-6.9,6.9c0,3.8,3.1,6.9,6.9,6.9c3.8,0,6.9-3.1,6.9-6.9
			C81.7,54.8,78.6,51.7,74.8,51.7z"/>
	</g>
	<g>
		<path class="st0" d="M58,66.5c-4.1,0-7.4-3.3-7.4-7.4c0-4.1,3.3-7.4,7.4-7.4s7.4,3.3,7.4,7.4C65.4,63.2,62.1,66.5,58,66.5z
			 M58,52.2c-3.8,0-6.9,3.1-6.9,6.9c0,3.8,3.1,6.9,6.9,6.9s6.9-3.1,6.9-6.9C64.9,55.3,61.8,52.2,58,52.2z"/>
	</g>
	<g>
		<circle class="st0" cx="95.9" cy="48.1" r="1.5"/>
	</g>
	<g>
		<circle class="st0" cx="43" cy="48.3" r="1.5"/>
	</g>
	<g>
		<path class="st0" d="M73.8,67.1c0-1-1.4-1.8-3.2-1.8c-1.8,0-3.2,0.8-3.2,1.8s1.4,1.8,3.2,1.8C72.4,68.8,73.8,68,73.8,67.1z"/>
	</g>
	<g>
		<path class="st0" d="M70.7,55.8c0,1.3,1.1,2.3,2.3,2.3c1.3,0,2.3-1.1,2.3-2.3c0-1.3-1.1-2.3-2.3-2.3
			C71.8,53.4,70.7,54.5,70.7,55.8z M74.5,54.8c0,0.4-0.3,0.7-0.7,0.7c-0.4,0-0.7-0.3-0.7-0.7c0-0.4,0.3-0.7,0.7-0.7
			C74.2,54.2,74.5,54.5,74.5,54.8z"/>
	</g>
	<g>
		<path class="st0" d="M54.2,55.6c0,1.3,1.1,2.3,2.3,2.3c1.3,0,2.3-1.1,2.3-2.3c0-1.3-1.1-2.3-2.3-2.3
			C55.2,53.3,54.2,54.3,54.2,55.6z M58,54.7c0,0.4-0.3,0.7-0.7,0.7s-0.7-0.3-0.7-0.7S57,54,57.3,54C57.7,54,58,54.3,58,54.7z"/>
	</g>
	<g>
		<g>
			<g>
				<path class="st0" d="M70.7,72c0.1,0.9,0.1,2,0,2.8c0,0.5-0.1,1.1-0.5,1.6c-0.4,0.5-1.3,0.6-1.8,0.1c-0.9-0.9-0.6-2.8-0.3-3.8
					c0.1-0.3-0.4-0.4-0.4-0.1c-0.4,1.4-0.7,4.2,1.1,4.7c2.7,0.8,2.5-3.9,2.2-5.3C71.1,71.6,70.6,71.7,70.7,72L70.7,72z"/>
			</g>
		</g>
	</g>
	<g>
		<g>
			<g>
				<path class="st0" d="M39.2,66c-1-0.5-1.7-1.4-2.2-2.4c-0.3-0.7-1.2-2.9,0.5-2.7c0.3,0,0.4-0.4,0.1-0.4c-1.3-0.2-1.7,0.7-1.5,1.8
					c0.3,1.7,1.4,3.3,2.9,4.1C39.2,66.5,39.4,66.1,39.2,66L39.2,66z"/>
			</g>
		</g>
	</g>
	<g>
		<g>
			<g>
				<path class="st0" d="M38.2,62c-0.2-0.4-0.6-1.2,0.1-1.3c0.5-0.1,1.1,0.5,1.3,0.9c0.5,0.8,0.8,1.8,0.8,2.7c0,0.3,0.5,0.3,0.4,0
					C40.7,63,40.2,61,39,60.4c-0.4-0.2-1.2-0.3-1.5,0.1c-0.3,0.5,0,1.2,0.3,1.7C37.9,62.5,38.3,62.2,38.2,62L38.2,62z"/>
			</g>
		</g>
	</g>
	<g>
		<g>
			<g>
				<path class="st0" d="M89.8,55.1c2.8,4.2,3.5,9.1,3.7,14.1c0.1,5-0.1,10,0.1,15.1c0,0.6,0.9,0.6,0.9,0
					c-0.3-5.4,0.1-10.8-0.2-16.2c-0.2-4.7-1.1-9.4-3.8-13.3C90.2,54.1,89.4,54.6,89.8,55.1L89.8,55.1z"/>
			</g>
		</g>
	</g>
	<g>
		<g>
			<g>
				<path class="st0" d="M81.3,89c0,0,0.1,0,0.1,0c0.3,0,0.3-0.4,0-0.4c0,0,0,0,0,0c-0.1,0-0.1,0-0.2,0.1c0,0,0,0,0,0
					c0.1,0.1,0.2,0.2,0.3,0.3c0,0,0-0.1,0-0.1c-0.1,0-0.3,0.1-0.4,0.1C81.3,89,81.3,89,81.3,89c0.2,0.2,0.5-0.1,0.3-0.3
					c0,0-0.1-0.1-0.1-0.1c-0.1-0.1-0.3-0.1-0.4,0.1c0,0,0,0.1,0,0.1c-0.1,0.2,0.2,0.3,0.3,0.3c0.1,0,0.1-0.1,0.2-0.2
					c-0.1,0-0.1,0.1-0.2,0.1c0,0,0,0,0,0c0.3,0,0.3-0.4,0-0.4c0,0-0.1,0-0.1,0C81,88.6,81,89,81.3,89L81.3,89z"/>
			</g>
		</g>
	</g>
	<g>
		<g>
			<path class="st0" d="M69.3,54.4c0-0.1,0.1-0.1,0.1-0.2c0-0.1,0.1-0.1,0.1-0.2c-1.6-2.7-4.6-4.6-8-4.6c-2.8,0-5.3,1.3-7,3.2l0,0
				c0.2-0.1,0.4-0.1,0.5,0c1.6-1.7,3.9-2.8,6.4-2.8C65,49.8,67.9,51.7,69.3,54.4z"/>
		</g>
		<g>
			<path class="st0" d="M69.3,63.1c-1.5,2.6-4.4,4.4-7.6,4.4c-1.9,0-3.6-0.6-5.1-1.6c-0.3,0-0.5-0.1-0.7-0.2c-0.1,0-0.1,0-0.3,0
				c1.6,1.4,3.7,2.2,6,2.2c3.4,0,6.3-1.8,7.9-4.5C69.4,63.3,69.4,63.2,69.3,63.1z"/>
		</g>
	</g>
	<g>
		<g>
			<path class="st0" d="M79.6,48.9c-2.6,0-5,1.1-6.7,2.9c0.2-0.1,0.4-0.1,0.5-0.2c0.1,0,0.2,0,0.3-0.1c1.6-1.4,3.7-2.3,5.9-2.3
				c4.9,0,8.9,4,8.9,8.9s-4,8.9-8.9,8.9c-1.8,0-3.5-0.5-4.9-1.5c-0.1,0-0.1,0-0.2,0c-0.1,0-0.2,0-0.3,0c-0.1,0-0.1,0-0.2,0
				c1.6,1.2,3.5,1.9,5.6,1.9c5.1,0,9.2-4.2,9.2-9.2C88.9,53,84.7,48.9,79.6,48.9z"/>
		</g>
	</g>
	<g>
		<path class="st0" d="M74,64.3c-3.5,0-6.4-2.9-6.4-6.4s2.9-6.4,6.4-6.4c3.5,0,6.4,2.9,6.4,6.4S77.5,64.3,74,64.3z M74,52
			c-3.2,0-5.9,2.6-5.9,5.9c0,3.2,2.6,5.9,5.9,5.9c3.2,0,5.9-2.6,5.9-5.9C79.9,54.6,77.2,52,74,52z"/>
	</g>
	<g>
		<path class="st0" d="M57.2,64.7c-3.5,0-6.4-2.9-6.4-6.4s2.9-6.4,6.4-6.4c3.5,0,6.4,2.9,6.4,6.4S60.8,64.7,57.2,64.7z M57.2,52.4
			c-3.2,0-5.9,2.6-5.9,5.9c0,3.2,2.6,5.9,5.9,5.9c3.2,0,5.9-2.6,5.9-5.9C63.1,55.1,60.5,52.4,57.2,52.4z"/>
	</g>
	<g>
		<g>
			<g>
				<path class="st0" d="M59.4,52c0.9-1.2,2.2-1.9,3.7-2.1c0.3,0,0.3-0.5,0-0.4c-1.6,0.2-3,1-4.1,2.3C58.8,52,59.2,52.2,59.4,52
					L59.4,52z"/>
			</g>
		</g>
	</g>
	<g>
		<g>
			<g>
				<path class="st0" d="M64.8,57.2c1.1,0,2.2-0.3,3.1-1c0.2-0.2,0-0.6-0.2-0.4c-0.9,0.7-1.8,0.9-2.9,0.9
					C64.5,56.7,64.5,57.2,64.8,57.2L64.8,57.2z"/>
			</g>
		</g>
	</g>
	<g>
		<g>
			<g>
				<path class="st0" d="M63,64.2c0.6,1.3,1.8,2.2,3.3,2.4c0.3,0,0.4-0.4,0.1-0.4c-1.3-0.2-2.4-1-3-2.2C63.3,63.7,62.9,63.9,63,64.2
					L63,64.2z"/>
			</g>
		</g>
	</g>
	<g>
		<g>
			<g>
				<path class="st0" d="M79.3,53c1.3-1.5,3.2-2.3,5.2-2.2c0.3,0,0.3-0.4,0-0.4c-2.1-0.1-4.1,0.7-5.5,2.3
					C78.8,52.8,79.2,53.2,79.3,53L79.3,53z"/>
			</g>
		</g>
	</g>
	<g>
		<g>
			<g>
				<path class="st0" d="M81.8,59c2.4,1.1,5.2,0.5,7-1.4c0.2-0.2-0.1-0.5-0.3-0.3c-1.6,1.8-4.2,2.4-6.4,1.4
					C81.8,58.5,81.6,58.9,81.8,59L81.8,59z"/>
			</g>
		</g>
	</g>
	<g>
		<g>
			<g>
				<path class="st0" d="M79.8,63.8c0,0,0,0.1,0,0.1c-0.1,0-0.2,0.1-0.3,0.1c0,0,0-0.1,0-0.1c0,0.1,0,0.2,0.1,0.2
					c1.3,1.5,3.3,2.1,5.3,1.6c0.3-0.1,0.1-0.5-0.1-0.4c-0.9,0.3-1.7,0.3-2.6,0c-0.3-0.1-2.2-0.9-2.1-1.3C80,63.9,80,63.8,79.8,63.8
					c0-0.1,0-0.1,0-0.1c-0.1-0.1-0.3,0-0.3,0.1c0,0,0,0.1,0,0.1c0,0.1,0,0.2,0.1,0.3c0,0,0.1,0,0.1,0.1C79.8,64.4,80.1,64,79.8,63.8
					L79.8,63.8z"/>
			</g>
		</g>
	</g>
	<g>
		<g>
			<g>
				<path class="st0" d="M52.8,62.7c-0.1,0.3-0.3,0.6-0.5,0.9c-0.1,0.3,0.3,0.5,0.4,0.2c0.1-0.3,0.3-0.6,0.5-0.9
					C53.3,62.7,52.9,62.5,52.8,62.7L52.8,62.7z"/>
			</g>
		</g>
	</g>
	<g>
		<g>
			<g>
				<path class="st0" d="M54.8,64.2c-0.1,0.4-0.1,0.7-0.3,1.1c-0.1,0.3,0.4,0.4,0.4,0.1c0.1-0.4,0.1-0.7,0.3-1.1
					C55.3,64,54.9,63.9,54.8,64.2L54.8,64.2z"/>
			</g>
		</g>
	</g>
	<g>
		<g>
			<g>
				<path class="st0" d="M58.1,64.4c0.1,0.5,0.3,1,0.4,1.5c0.1,0.3,0.5,0.1,0.4-0.1c-0.1-0.5-0.3-1-0.4-1.5
					C58.5,64,58.1,64.2,58.1,64.4L58.1,64.4z"/>
			</g>
		</g>
	</g>
	<g>
		<g>
			<g>
				<path class="st0" d="M61.1,63.5c0.4,0.3,0.7,0.6,0.9,1c0.1,0.3,0.5,0,0.4-0.2c-0.3-0.5-0.7-0.9-1.1-1.2
					C61.1,62.9,60.9,63.3,61.1,63.5L61.1,63.5z"/>
			</g>
		</g>
	</g>
	<g>
		<g>
			<g>
				<path class="st0" d="M63.5,59.1c0.3-0.3,0.9-0.3,1.2,0c0.2,0.2,0.5-0.1,0.3-0.3c-0.5-0.5-1.3-0.5-1.8,0
					C62.9,58.9,63.3,59.3,63.5,59.1L63.5,59.1z"/>
			</g>
		</g>
	</g>
	<g>
		<g>
			<g>
				<path class="st0" d="M62.7,55.5c0.4-0.3,0.8-0.4,1.2-0.3c0.3,0,0.4-0.4,0.1-0.4c-0.5-0.1-1.1,0-1.5,0.3
					C62.2,55.2,62.4,55.6,62.7,55.5L62.7,55.5z"/>
			</g>
		</g>
	</g>
	<g>
		<g>
			<g>
				<path class="st0" d="M60.7,53.4c0.2,0.1,0.5,0,0.7-0.1c0.2-0.2,0-0.6-0.2-0.4c-0.1,0.1-0.2,0.1-0.3,0.1
					C60.5,52.8,60.4,53.3,60.7,53.4L60.7,53.4z"/>
			</g>
		</g>
	</g>
	<g>
		<g>
			<g>
				<path class="st0" d="M70.4,63.5c0,0.2,0,0.4-0.1,0.6c0,0.3,0.4,0.3,0.4,0c0-0.2,0-0.4,0.1-0.6C70.9,63.2,70.4,63.2,70.4,63.5
					L70.4,63.5z"/>
			</g>
		</g>
	</g>
	<g>
		<g>
			<g>
				<path class="st0" d="M73.1,64c-0.5,0.4-0.5,1.2,0,1.6c0.3,0.2,0.5-0.2,0.2-0.4c-0.3-0.2-0.3-0.7,0-0.8
					C73.5,64.3,73.3,63.9,73.1,64L73.1,64z"/>
			</g>
		</g>
	</g>
	<g>
		<g>
			<g>
				<path class="st0" d="M76.8,63.7c0.3,0,0.3-0.4,0-0.4C76.5,63.2,76.5,63.7,76.8,63.7L76.8,63.7z"/>
			</g>
		</g>
	</g>
	<g>
		<g>
			<g>
				<path class="st0" d="M76.6,63.5c0,0.6,0.3,1.1,0.7,1.5c0.2,0.2,0.5-0.1,0.3-0.3c-0.4-0.3-0.5-0.7-0.5-1.2
					C77,63.2,76.6,63.2,76.6,63.5L76.6,63.5z"/>
			</g>
		</g>
	</g>
	<g>
		<g>
			<g>
				<path class="st0" d="M80.3,57.5C80.3,57.5,80.2,57.5,80.3,57.5c0,0,0.1,0,0.1,0c0,0,0,0,0.1,0c0,0.1,0,0.1,0,0.2
					c0.1-0.1,0.5-0.1,0.7,0c0.3,0.1,0.5,0.2,0.7,0.4c0.2,0.2,0.5-0.1,0.3-0.3c-0.4-0.4-1.1-0.7-1.7-0.5c-0.2,0.1-0.4,0.2-0.4,0.4
					c0,0.2,0.3,0.3,0.5,0.2C80.7,57.7,80.5,57.3,80.3,57.5L80.3,57.5z"/>
			</g>
		</g>
	</g>
	<g>
		<g>
			<g>
				<path class="st0" d="M79.8,55.3c0.2-0.3,0.6-0.2,0.8,0c0.2,0.2,0.5-0.1,0.3-0.3c-0.4-0.5-1.2-0.4-1.5,0.1
					C79.2,55.3,79.6,55.5,79.8,55.3L79.8,55.3z"/>
			</g>
		</g>
	</g>
	<g>
		<g>
			<g>
				<path class="st0" d="M78.6,53.6c0.1-0.1,0.2-0.3,0.3-0.4c0.1-0.1,0.3-0.1,0.3,0c0.1,0.3,0.5,0.1,0.4-0.1
					c-0.1-0.3-0.4-0.5-0.7-0.4c-0.4,0.1-0.6,0.4-0.8,0.7C78,53.6,78.4,53.9,78.6,53.6L78.6,53.6z"/>
			</g>
		</g>
	</g>
	<g>
		<g>
			<g>
				<path class="st0" d="M77.5,52.6c0-0.1,0-0.3,0.1-0.3l0.1,0c0-0.1,0-0.1-0.1-0.2c0-0.1,0.1-0.1,0.3,0.1c-0.1-0.3-0.5-0.1-0.4,0.1
					c0.1,0.5,0.8,0.1,0.6-0.3c-0.1-0.2-0.4-0.2-0.6-0.1c-0.1,0-0.2,0.1-0.3,0.2c-0.1,0.1-0.1,0.3-0.1,0.5
					C77,52.8,77.4,52.9,77.5,52.6L77.5,52.6z"/>
			</g>
		</g>
	</g>
	<g>
		<g>
			<g>
				<path class="st0" d="M73.4,67.4c1.2,0.1,2.5,0.3,3.3,1.1c1,1,1.2,3.2-0.7,3.3c-0.3,0-0.3,0.5,0,0.4c1.5-0.1,2.3-1.7,1.7-3.1
					c-0.7-1.7-2.7-2.2-4.4-2.3C73.1,67,73.1,67.4,73.4,67.4L73.4,67.4z"/>
			</g>
		</g>
	</g>
	<g>
		<g>
			<g>
				<path class="st0" d="M74.4,72.7c0.6,1.4,0.7,3.9-1.4,3.9c-0.3,0-0.3,0.4,0,0.4c1,0,1.8-0.6,2.1-1.5c0.4-1.1,0.1-2.2-0.3-3.2
					C74.7,72.2,74.3,72.4,74.4,72.7L74.4,72.7z"/>
			</g>
		</g>
	</g>
	<g>
		<g>
			<g>
				<path class="st0" d="M37.9,65.5c-0.5,0.6-1.1,1.3-0.6,2.1c0.4,0.8,1.1,0.5,1.7,0.1c2-1.4,4-3.5,4.5-6c0-0.1-0.1-0.3-0.2-0.3
					c-1.2,0-2.2,0.5-2.9,1.4c-0.2,0.2,0.1,0.5,0.3,0.3c0.7-0.8,1.6-1.3,2.6-1.3c-0.1-0.1-0.1-0.2-0.2-0.3c-0.3,1.4-1,2.6-1.9,3.6
					c-0.4,0.4-0.8,0.8-1.2,1.2c-0.2,0.1-0.4,0.4-0.6,0.5c-0.3,0.4-0.5,0.3-0.9-0.1c-0.7-0.2-0.8-0.5-0.2-0.9
					C38.4,65.6,38,65.3,37.9,65.5L37.9,65.5z"/>
			</g>
		</g>
	</g>
	<g>
		<g>
			<g>
				<path class="st0" d="M106.3,77.8c0.3-0.7,0.4-1.8-0.6-2c-1.3-0.2-2,1.8-2.2,2.7c-0.3,0.9-0.9,2.8,0.1,3.6c0.9,0.7,1.7-0.3,2-1
					c0.1-0.3-0.3-0.5-0.4-0.2c-0.1,0.2-0.2,0.4-0.3,0.5c-1.3,0-1.7-0.5-1.4-1.4c0.1-0.4,0.2-0.9,0.3-1.3c0.2-0.5,0.4-1.1,0.7-1.5
					c0.3-0.7,0.8-0.8,1.5-0.2c0,0.3-0.1,0.5-0.2,0.8C105.7,77.9,106.2,78,106.3,77.8L106.3,77.8z"/>
			</g>
		</g>
	</g>
	<g>
		<g>
			<g>
				<path class="st0" d="M62.9,95.8c0.6-0.2,1.2-0.4,1.8-0.5c0.1,0,0.2-0.1,0.1-0.3c-0.3-1.3-0.5-2.6-1.1-3.8
					c-0.4-0.9-1.2-2.2-2.2-2.5c-2-0.5-2.8,2.8-2.5,4.1c0.1,0.3,0.5,0.2,0.4-0.1c-0.2-1.1,0-2.2,0.8-3c1.3-1.3,2.5,0.5,3,1.5
					c0.4,0.8,0.7,1.7,0.9,2.5c0.1,0.3,0.3,0.8,0.1,1.1s-1.1,0.4-1.4,0.5C62.5,95.4,62.6,95.9,62.9,95.8L62.9,95.8z"/>
			</g>
		</g>
	</g>
	<g>
		<g>
			<g>
				<path class="st0" d="M83.5,97c-0.4-0.2-0.9-0.4-1.3-0.7c-0.6-0.4-0.7-0.4-0.6-1.1c0.1-0.9,0.5-2,0.9-2.7c1.8-3.5,5-0.6,5.2,2.2
					c0,0.3,0.5,0.3,0.4,0c-0.1-2-1.5-4.6-3.9-4.4C82,90.6,81.2,94.2,81,96c0,0.1,0,0.2,0.1,0.3c0.7,0.4,1.4,0.7,2.2,1.1
					C83.5,97.5,83.8,97.1,83.5,97L83.5,97z"/>
			</g>
		</g>
	</g>
	<g>
		<g>
			<g>
				<path class="st0" d="M64.9,95.1c0.3-0.7,0.5-1.4,0.8-2.2c0.1-0.5,0.5-2.1,1.1-2.3c0.3-0.1,0.2-0.5-0.1-0.4
					c-0.7,0.1-0.8,0.9-0.9,1.4c-0.4,1.1-0.8,2.2-1.2,3.3C64.4,95.2,64.8,95.4,64.9,95.1L64.9,95.1z"/>
			</g>
		</g>
	</g>
	<g>
		<g>
			<g>
				<path class="st0" d="M81.1,96.3C81,94,80.3,91.9,79,90c-0.2-0.2-0.6,0-0.4,0.2c1.3,1.8,2,3.8,2.1,6
					C80.7,96.6,81.1,96.6,81.1,96.3L81.1,96.3z"/>
			</g>
		</g>
	</g>
	<g>
		<g>
			<g>
				<path class="st0" d="M59,92.7c0.1,0.1,0.3-2.2,0.3-2.4c0-0.7,0-1.3,0-2c0-1-0.2-1.8-0.7-2.7c-0.1-0.3-0.5,0-0.4,0.2
					c0.8,1.4,0.6,3.2,0.7,4.7c0,0.6-0.3,1.8,0.2,2.2c0.1,0.1,0.3,0.1,0.3,0c0,0,0,0,0.1-0.1c0.1-0.1,0.1-0.2,0-0.3l0,0
					C59.1,92.2,58.8,92.5,59,92.7L59,92.7z"/>
			</g>
		</g>
	</g>
	<g>
		<g>
			<g>
				<path class="st0" d="M87.7,92.9c-1.4-2.1-1.9-4.6-1.3-7c0.1-0.3-0.4-0.4-0.4-0.1c-0.5,2.6-0.1,5.2,1.4,7.4
					C87.5,93.4,87.9,93.2,87.7,92.9L87.7,92.9z"/>
			</g>
		</g>
	</g>
	<g>
		<g>
			<g>
				<path class="st0" d="M37.5,67.7c0.4,0.7,0.6,1.3,0.7,2.1c0,0.1,0.1,0.3,0.3,0.2c2.7-1,4.9-2.9,6.2-5.5c0.3-0.6,1.2-2.1,0.7-2.8
					c-0.6-0.8-1.5,0.3-2.2-0.1c-0.3-0.1-0.5,0.3-0.2,0.4c0.6,0.3,1.1-0.3,1.6-0.1c1.5,0.5-1.1,3.9-1.5,4.4c-0.9,1.1-2,1.9-3.2,2.6
					c-0.3,0.1-0.6,0.4-0.9,0.4c-0.7-0.1,0,0.2-0.3-0.3c-0.3-0.4-0.4-1.1-0.7-1.6C37.7,67.2,37.3,67.4,37.5,67.7L37.5,67.7z"/>
			</g>
		</g>
	</g>
	<g>
		<g>
			<g>
				<path class="st0" d="M104.4,81.7c-1-0.3-1.8-0.3-2.7,0.2c0.1,0.1,0.2,0.1,0.3,0.2c-0.2-3.1,1-5.9,3.4-7.9
					c-0.1,0-0.3-0.1-0.4-0.1c0,1,0.3,1.7,0.9,2.5c0.2,0.2,0.5-0.1,0.3-0.3c-0.6-0.6-0.8-1.3-0.8-2.2c0-0.2-0.3-0.3-0.4-0.1
					c-2.4,2.1-3.7,5.1-3.5,8.3c0,0.2,0.2,0.3,0.3,0.2c0.8-0.4,1.5-0.5,2.3-0.1C104.6,82.2,104.7,81.8,104.4,81.7L104.4,81.7z"/>
			</g>
		</g>
	</g>
	<g>
		<g>
			<g>
				<path class="st0" d="M38.4,70c5.1,2.1,9.8-3.5,6.8-8.2c-0.1-0.3-0.5,0-0.4,0.2c2.8,4.3-1.5,9.5-6.3,7.5
					C38.3,69.4,38.1,69.9,38.4,70L38.4,70z"/>
			</g>
		</g>
	</g>
	<g>
		<g>
			<g>
				<path class="st0" d="M105.5,73.5c-2.2-1.7-5,1.6-5.8,3.4c-0.9,2-0.7,5.6,2.4,5.3c0.3,0,0.3-0.5,0-0.4c-3.2,0.4-2.6-3.6-1.6-5.3
					c0.8-1.3,3-3.9,4.8-2.6C105.5,74.1,105.7,73.7,105.5,73.5L105.5,73.5z"/>
			</g>
		</g>
	</g>
	<g>
		<g>
			<g>
				<path class="st0" d="M44.1,69.3c2.2,1.1-1.1,6.8-2,8.1c-0.8,1.2-1.7,2.2-2.8,3.1c-0.5,0.4-1.1,0.9-1.7,1.2
					c-0.3,0.2-0.6,0.4-0.9,0.5c-1.6-0.3-2-0.7-1.2-1.4c0.6-1.5,3.8-2.6,5.2-1.7c1.7,1,1.4,4.3,0.9,5.9c-0.1,0.5-0.3,0.9-0.5,1.3
					c-0.5,0-1.1,0-1.6,0.1c-0.6-0.6,2.2-2.5,2.6-2.6c1.5,0.1,2.3,0.7,2.3,1.8c0.1,0.5,0.1,1.1-0.1,1.7c-0.3-0.8,0.1-1.4,0.9-1.9
					c1.3,0.3,2.2-0.1,2.8-1.3c0.3-0.1,0.1-0.5-0.1-0.4c-1.4,0.5-2.1,2-1.3,3.4c0,0.1,0.2,0.1,0.3,0.1c1.1-0.8,0.5-2.4-0.8-2.4
					c-1.8,0-3,2.4-2.1,3.8c0.1,0.1,0.3,0.1,0.4,0c0.7-1.4,1.1-3.8-0.3-5c-1.3-1.1-3.3,0.2-4.2,1.3c-0.5,0.6-1.6,2.5-0.4,2.9
					c1.7,0.5,2.6-2.5,2.8-3.5c0.3-1.7,0.5-4.3-1.1-5.4c-1.7-1.2-3.7-0.2-5.1,0.9c-0.8,0.6-2.4,2.4-0.8,3.1c1.4,0.7,3.6-1.3,4.5-2.1
					c2.1-1.7,3.7-4,4.7-6.5c0.5-1.3,1.9-4.5,0.1-5.4C44.1,68.8,43.8,69.2,44.1,69.3L44.1,69.3z"/>
			</g>
		</g>
	</g>
	<g>
		<g>
			<g>
				<path class="st0" d="M100.6,75.7c-0.4-2.2-2.8-1-3.5,0.3c-0.4,0.8-1,2.4-0.5,3.2c0.3,0.4,0.6,0.6,1.1,0.3
					c0.9-0.8,0.2-3.2-1.2-2.6c-1.7,0.7-1.7,3.9,0.2,4.3c0.2,0,0.4-0.2,0.2-0.4c-0.4-0.4-1-0.5-1.5-0.1c-0.4,0.3-1,3-1.1,2.9
					c-0.3-0.2-0.5,0.2-0.2,0.4c0.3,0.2,0.5,0.2,0.8,0c0.3-0.2,0.3-0.5,0.4-0.8c0.1-0.3,0-3.2,1.3-2.1c0.1-0.1,0.1-0.3,0.2-0.4
					c-1.5-1.8-1.6-2.4-0.1-2c1.1,0.4,1.2,0,0.4-1.2c0-0.2,0.1-0.4,0.1-0.6c0.3-1.4,1.3-1.8,3-1.2C100.3,76.1,100.7,76,100.6,75.7
					L100.6,75.7z"/>
			</g>
		</g>
	</g>
	<g>
		<g>
			<g>
				<path class="st0" d="M48.3,83.8c0.4,0.2,0.8,0.4,1.3,0.4c0.3-0.1,0.6-0.3,0.7-0.7c0-0.3-0.2-0.7-0.5-0.7c-0.4,0-0.5,0.6-0.6,0.9
					c-0.1,0.3-0.1,0.7,0.2,0.9s0.6,0,0.7-0.3c0.2-0.5,0.1-1.5-0.6-1.5c-0.1,0-0.1,0-0.2,0.1c-0.2,0.4-0.2,0.9,0,1.3
					c0,0.1,0.2,0.1,0.3,0.1c0.5-0.2,0.6-0.9,0.1-1.2c-0.1-0.1-0.2,0-0.3,0c-0.3,0.2-0.3,0.7,0,0.9c0.1,0.1,0.2,0.1,0.3,0
					c0.2-0.2,0.3-0.4,0.2-0.7c0-0.1-0.3-0.2-0.4-0.1c-0.2,0.2-0.2,0.5,0,0.7c0.2,0.2,0.5-0.1,0.3-0.3c0,0,0-0.1,0-0.1
					c-0.1,0-0.3-0.1-0.4-0.1c0,0.1,0,0.2-0.1,0.3c0.1,0,0.2,0,0.3,0c-0.1-0.1,0-0.2,0-0.3c-0.1,0-0.2,0-0.3,0c0.1,0.1,0.1,0.4,0,0.4
					c0.1,0,0.2,0.1,0.3,0.1c-0.1-0.3-0.1-0.6,0-0.9c-0.1,0-0.1,0.1-0.2,0.1c0.3,0,0.3,0.6,0.2,0.8c-0.1,0.4-0.1-0.2-0.1-0.3
					c0-0.3,0.1-0.5,0.3-0.7c-0.1,0-0.1,0.1-0.2,0.1c0.1,0,0.2,0.2,0.1,0.3c-0.1,0.1-0.3,0.2-0.4,0.2c-0.3,0-0.6-0.2-0.9-0.3
					C48.3,83.3,48,83.7,48.3,83.8L48.3,83.8z"/>
			</g>
		</g>
	</g>
	<g>
		<g>
			<g>
				<path class="st0" d="M94.4,83.8c-1-0.7-2.2,0-2.2,1.2c0,0.2,0.3,0.3,0.4,0.1c0.5-0.4,0.6-1.1,0.2-1.7c-0.1-0.1-0.3-0.1-0.4,0
					c-0.3,0.3-0.5,0.7-0.4,1.1c0,0.2,0.3,0.2,0.4,0.1c0.2-0.2,0.3-0.5,0.2-0.7c0-0.1-0.2-0.2-0.3-0.1c-0.4,0.3-0.5,0.8-0.2,1.2
					c0.1,0.1,0.3,0.1,0.3,0c0.2-0.3,0.3-0.6,0.1-0.9c0-0.1-0.2-0.2-0.3-0.1c-0.3,0.2-0.4,0.5-0.2,0.8c0.1,0.3,0.5,0,0.4-0.2
					c0-0.1,0-0.1,0-0.2c-0.1,0-0.2-0.1-0.3-0.1c0.1,0.2,0.1,0.3,0,0.5c0.1,0,0.2,0,0.3,0c-0.1-0.1-0.1-0.4,0.1-0.5
					c-0.1,0-0.2-0.1-0.3-0.1c0,0.1,0,0.2-0.1,0.3c0.1,0,0.3,0.1,0.4,0.1c0-0.3,0-0.5,0.3-0.7c-0.1,0-0.3,0-0.4,0
					c0.3,0.4,0.2,0.8-0.1,1.1c0.1,0,0.3,0.1,0.4,0.1c0-0.8,0.8-1.3,1.5-0.8C94.4,84.4,94.7,84,94.4,83.8L94.4,83.8z"/>
			</g>
		</g>
	</g>
	<g>
		<g>
			<g>
				<path class="st0" d="M39.9,65.3c0.9-0.6,1.5-1.5,1.6-2.6c0-0.3-0.4-0.3-0.4,0c-0.1,0.9-0.6,1.7-1.4,2.2
					C39.5,65.1,39.7,65.5,39.9,65.3L39.9,65.3z"/>
			</g>
		</g>
	</g>
	<g>
		<g>
			<g>
				<path class="st0" d="M105.1,76.9c-0.5,0.5-0.8,1.3-0.8,2c0,0.3,0.5,0.3,0.4,0c0-0.7,0.2-1.2,0.7-1.7
					C105.7,77,105.3,76.7,105.1,76.9L105.1,76.9z"/>
			</g>
		</g>
	</g>
	<g>
		<g>
			<g>
				<path class="st0" d="M42.4,53.5c0.3,0,0.3-0.4,0-0.4C42.1,53.1,42.1,53.5,42.4,53.5L42.4,53.5z"/>
			</g>
		</g>
	</g>
	<g>
		<g>
			<g>
				<path class="st0" d="M40.4,53.4c0.1,1-0.4,2.7,1.4,2.2c1.2-0.3,2.2-2.1,2.9-3c0.8-0.9,1.4-2,2.1-3c0.7-1.2,1.4-2.4,1.9-3.7
					c0.3-0.7,1-1.8,0.8-2.6c-0.4-1.5-2.1-0.5-2.8,0.1c-0.2,0.2,0.1,0.5,0.3,0.3c1.7-0.3,2.3,0,1.7,0.9c-0.1,0.2-0.1,0.4-0.2,0.5
					c-0.3,0.7-0.6,1.4-1,2.1c-0.5,1.1-1.1,2.1-1.8,3.1c-0.8,1.2-1.6,2.2-2.5,3.3c-0.6,0.7-0.6,0.9-1.6,0.8c-1.1-0.2-0.7-0.3-0.8-1.1
					C40.8,53.1,40.4,53.1,40.4,53.4L40.4,53.4z"/>
			</g>
		</g>
	</g>
	<g>
		<g>
			<g>
				<path class="st0" d="M42,54.1c0.6-0.5,1.1-1.2,1.5-1.9c0.1-0.3-0.3-0.5-0.4-0.2c-0.4,0.7-0.8,1.3-1.4,1.8
					C41.4,54,41.8,54.3,42,54.1L42,54.1z"/>
			</g>
		</g>
	</g>
	<g>
		<g>
			<g>
				<path class="st0" d="M47.3,44c-0.2,0.8-0.5,1.6-1,2.4c-0.1,0.3,0.3,0.5,0.4,0.2c0.5-0.8,0.8-1.6,1.1-2.5
					C47.8,43.8,47.4,43.7,47.3,44L47.3,44z"/>
			</g>
		</g>
	</g>
	<g>
		<g>
			<g>
				<path class="st0" d="M92.7,43.6c-0.7-0.6-1.4-0.9-2.3-1c-0.1,0-0.2,0.1-0.2,0.2c-0.4,2,0.6,3.9,1.4,5.7c1,2,2.3,4.1,3.9,5.7
					c0.7,0.7,2.3,1.7,3.2,0.5c0.5-0.7,0.1-1.5-0.7-1.7c-0.3-0.1-0.4,0.4-0.1,0.4c-0.9,1-1.6,1.2-2.1,0.5c-0.1-0.1-0.3-0.3-0.4-0.4
					c-0.4-0.5-0.9-1-1.3-1.6c-0.6-0.8-1.1-1.6-1.6-2.5c-0.5-0.9-0.9-1.9-1.3-2.9c-0.1-0.4-0.4-0.9-0.5-1.4C90.6,44,91.3,43,92.3,44
					C92.6,44.2,92.9,43.9,92.7,43.6L92.7,43.6z"/>
			</g>
		</g>
	</g>
	<g>
		<g>
			<g>
				<path class="st0" d="M96.2,52.3c-0.1,0.8,0.4,1.6,1.3,1.6c0.3,0,0.3-0.4,0-0.4c-0.5,0-0.9-0.5-0.8-1.1
					C96.7,52.2,96.2,52.1,96.2,52.3L96.2,52.3z"/>
			</g>
		</g>
	</g>
	<g>
		<g>
			<g>
				<path class="st0" d="M91.1,43.6c-0.1,0.9,0.4,1.8,1.2,2.3c0.3,0.1,0.5-0.3,0.2-0.4c-0.7-0.4-1.1-1.1-1-1.9
					C91.6,43.3,91.2,43.3,91.1,43.6L91.1,43.6z"/>
			</g>
		</g>
	</g>
	<g>
		<g>
			<g>
				<path class="st0" d="M46.2,50.4c1.1,1,2.2,1.9,3.4,2.7c0.8,0.5,2,1.4,3,1c0.3-0.1,0.1-0.5-0.1-0.4c-1,0.4-2.6-0.9-3.4-1.4
					c-0.9-0.7-1.8-1.4-2.6-2.2C46.3,49.9,45.9,50.2,46.2,50.4L46.2,50.4z"/>
			</g>
		</g>
	</g>
	<g>
		<g>
			<g>
				<path class="st0" d="M87.9,52.3c1.8-0.2,3.5-0.9,4.9-2.2c0.2-0.2-0.1-0.5-0.3-0.3c-1.3,1.2-2.8,1.8-4.5,2.1
					C87.6,51.9,87.6,52.3,87.9,52.3L87.9,52.3z"/>
			</g>
		</g>
	</g>
	<g>
		<g>
			<g>
				<path class="st0" d="M45.3,50.9c2,1.8,4.1,3.7,4.7,6.4c0.1,0.3,0.5,0.2,0.4-0.1c-0.6-2.8-2.7-4.8-4.8-6.6
					C45.4,50.4,45.1,50.7,45.3,50.9L45.3,50.9z"/>
			</g>
		</g>
	</g>
	<g>
		<g>
			<g>
				<path class="st0" d="M90.5,54.6c-0.1,0-0.3,0-0.5,0c0.1,0.1,0.1,0.1,0.2,0.2c0.2-1.7,1.3-3.1,2.9-3.6c0.3-0.1,0.1-0.5-0.1-0.4
					c-1.8,0.6-3.1,2.1-3.3,4c0,0.1,0.1,0.2,0.2,0.2c0.1,0,0.3,0,0.5,0C90.7,55.1,90.7,54.6,90.5,54.6L90.5,54.6z"/>
			</g>
		</g>
	</g>
	<g>
		<g>
			<g>
				<path class="st0" d="M45.1,68c1.3,4.7-1.6,8.8-5.1,11.7c-0.2,0.2,0.1,0.5,0.3,0.3c3.7-2.9,6.5-7.2,5.2-12.1
					C45.5,67.6,45,67.7,45.1,68L45.1,68z"/>
			</g>
		</g>
	</g>
	<g>
		<g>
			<g>
				<path class="st0" d="M39.9,79.5c-0.8,0.7-1.8,1.5-2.8,1.7c-0.7,0.1-0.9-0.7-0.5-1.2c0.2-0.3,0.5-0.4,0.7-0.6
					c0.5-0.3,1-0.5,1.6-0.6c0.3-0.1,0.2-0.5-0.1-0.4c-0.9,0.2-1.9,0.6-2.5,1.3c-0.4,0.4-0.7,1.1-0.3,1.6c1,1.2,3.5-0.9,4.2-1.6
					C40.5,79.6,40.1,79.3,39.9,79.5L39.9,79.5z"/>
			</g>
		</g>
	</g>
	<g>
		<g>
			<g>
				<path class="st0" d="M41.8,83.6c-0.1,0.5-0.3,0.9-0.5,1.4c-0.1,0.3-0.5,1.3-0.9,1.3c-0.6,0,0-1.1,0.1-1.3c0.3-0.4,0.6-0.7,1-1
					c0.3-0.1,0-0.5-0.2-0.4c-0.6,0.4-1.1,0.9-1.3,1.5c-0.2,0.4-0.4,1.3,0,1.6c1.2,0.8,2.1-2.3,2.3-3C42.3,83.4,41.9,83.3,41.8,83.6
					L41.8,83.6z"/>
			</g>
		</g>
	</g>
	<g>
		<g>
			<g>
				<path class="st0" d="M44.4,85.7c0.1,0.6,0.7,4.3-1.2,3c-0.7-0.5-0.4-1.5,0-2.1c0.4-0.5,1-0.8,1.6-1.1c0.3-0.1,0-0.5-0.2-0.4
					c-0.9,0.5-1.8,1.1-2.1,2.1c-0.3,0.8,0,1.7,0.8,2.1c0.7,0.3,1.3,0,1.7-0.6c0.4-0.9,0.1-2.1,0-3.1C44.8,85.3,44.3,85.4,44.4,85.7
					L44.4,85.7z"/>
			</g>
		</g>
	</g>
	<g>
		<g>
			<g>
				<path class="st0" d="M97.2,77.2c0.5,0.3,1,0.7,1.2,1.3c0.1,0.6-0.1,1.4-0.7,1.5c-1.6,0.3-0.8-1.8-0.8-2.6c0-0.3-0.4-0.3-0.4,0
					c0,0.8-0.5,1.7-0.1,2.5c0.3,0.6,1,0.8,1.6,0.5c0.7-0.3,1-1.1,0.9-1.8c-0.1-0.8-0.7-1.4-1.4-1.8C97.2,76.6,97,77,97.2,77.2
					L97.2,77.2z"/>
			</g>
		</g>
	</g>
	<g>
		<g>
			<g>
				<path class="st0" d="M96.5,81.1c0.3,0.1,0.4,0.2,0.5,0.5c0-0.1,0-0.1,0-0.2c-0.1,0.3-0.4,0.2-0.6,0c-0.2-0.2-0.3-0.5-0.4-0.8
					c-0.1-0.3-0.5-0.1-0.4,0.1c0.2,0.6,0.6,1.4,1.4,1.2c0.3-0.1,0.5-0.3,0.4-0.6c-0.1-0.4-0.4-0.6-0.8-0.7
					C96.3,80.6,96.2,81.1,96.5,81.1L96.5,81.1z"/>
			</g>
		</g>
	</g>
	<g>
		<g>
			<g>
				<path class="st0" d="M97.1,77c0.3-0.9,0.9-2,1.6-2.7c1.2-1.1,1.8,0.3,1.9,1.3c0,0.3,0.5,0.2,0.4-0.1c-0.1-0.9-0.6-2.3-1.8-2
					c-1.3,0.3-2.2,2.3-2.6,3.4C96.5,77.2,96.9,77.3,97.1,77L97.1,77z"/>
			</g>
		</g>
	</g>
	<g>
		<g>
			<g>
				<path class="st0" d="M49.5,55.5c1-0.1,1.6-1.2,1.2-2.1c-0.1-0.3-0.5,0-0.4,0.2c0.3,0.6-0.2,1.4-0.8,1.4
					C49.2,55.1,49.2,55.6,49.5,55.5L49.5,55.5z"/>
			</g>
		</g>
	</g>
	<g>
		<g>
			<g>
				<path class="st0" d="M48.6,54.1c0.7,0,1.1-1,0.6-1.5c-0.2-0.2-0.5,0.1-0.3,0.3c0.3,0.2,0.1,0.7-0.3,0.7
					C48.3,53.6,48.3,54.1,48.6,54.1L48.6,54.1z"/>
			</g>
		</g>
	</g>
	<g>
		<g>
			<g>
				<path class="st0" d="M89,51.8c0.2,0.5,0.5,0.9,1,1.2c0.3,0.1,0.5-0.3,0.2-0.4c-0.4-0.2-0.6-0.5-0.8-0.9
					C89.4,51.4,89,51.5,89,51.8L89,51.8z"/>
			</g>
		</g>
	</g>
	<g>
		<g>
			<g>
				<path class="st0" d="M90.5,51c-0.4,0.4-0.1,1.2,0.4,1.2c0.1,0,0.3,0,0.3-0.1c0-0.1,0-0.3-0.1-0.3c-0.2,0-0.4-0.3-0.2-0.5
					C91,51.1,90.6,50.8,90.5,51L90.5,51z"/>
			</g>
		</g>
	</g>
	<g>
		<g>
			<g>
				<path class="st0" d="M90,53.1c0.1,0,0.1,0.1,0.2,0.1c0.3,0.2,0.5-0.2,0.2-0.4c-0.1,0-0.1-0.1-0.2-0.1C90,52.5,89.8,52.9,90,53.1
					L90,53.1z"/>
			</g>
		</g>
	</g>
	<g>
		<g>
			<g>
				<path class="st0" d="M62.7,88.3c0-1.5-0.1-2.9-0.4-4.4c-0.2-0.8-0.5-1.9-1.5-2.1c-2-0.4-2.4,3-2.1,4.2c0.1,0.3,0.5,0.2,0.4-0.1
					c-0.2-0.8-0.2-1.5,0.1-2.2c0.3-1.1,1.1-1.2,2.5-0.3c0.1,0.3,0.1,0.6,0.2,0.9c0.3,1.3,0.4,2.7,0.4,4.1
					C62.3,88.6,62.7,88.6,62.7,88.3L62.7,88.3z"/>
			</g>
		</g>
	</g>
	<g>
		<g>
			<g>
				<path class="st0" d="M81.8,88.9c-0.1-0.7-0.1-1.3,0-1.9c0.1-0.7,0.1-1.9,0.8-2.4c1.4-0.9,2.6,1,3.1,2c0.1,0.2,0.5,0.1,0.4-0.2
					c0-0.1,0-0.2-0.1-0.3c-0.1-0.3-0.5-0.1-0.4,0.1c0,0.1,0,0.2,0.1,0.3c0.1-0.1,0.3-0.1,0.4-0.2c-0.7-1.2-1.8-2.9-3.5-2.2
					c-1.6,0.6-1.3,3.4-1.2,4.8C81.4,89.1,81.8,89.1,81.8,88.9L81.8,88.9z"/>
			</g>
		</g>
	</g>
	<g>
		<g>
			<g>
				<path class="st0" d="M59.9,84.7c-0.1-0.1-0.1-0.3,0.1-0.4c0.1-0.1,0.1-0.1,0.2-0.1c0,0,0-0.1,0,0c0,0.1,0,0.1,0.1,0.2
					c0,0.2,0.1,0.5-0.1,0.5C60.1,84.9,59.8,84.9,59.9,84.7c0-0.2-0.4-0.3-0.5,0c-0.1,0.4,0.3,0.8,0.7,0.7c0.5,0,0.7-0.6,0.6-1.1
					c0-0.2-0.1-0.5-0.4-0.6c-0.2-0.1-0.4,0-0.6,0.1c-0.3,0.2-0.5,0.7-0.3,1.1C59.7,85.2,60.1,84.9,59.9,84.7L59.9,84.7z"/>
			</g>
		</g>
	</g>
	<g>
		<g>
			<g>
				<path class="st0" d="M83,86c-0.1-0.2,0.1-0.5,0.3-0.5c0.2,0,0.4,0.1,0.4,0.3C83.8,86.3,83.1,86.4,83,86
					c-0.1-0.3-0.5-0.1-0.4,0.1c0.2,0.4,0.7,0.5,1.1,0.4c0.4-0.1,0.7-0.6,0.5-1c-0.1-0.4-0.5-0.7-1-0.6c-0.4,0.1-0.7,0.6-0.6,1.1
					C82.7,86.4,83.1,86.3,83,86L83,86z"/>
			</g>
		</g>
	</g>
	<g>
		<g>
			<g>
				<path class="st0" d="M60.9,93.2c-0.6-1.2,0-2.8,1.3-3.3c0.3-0.1,0.1-0.5-0.1-0.4c-1.6,0.6-2.4,2.5-1.6,4
					C60.7,93.7,61.1,93.5,60.9,93.2L60.9,93.2z"/>
			</g>
		</g>
	</g>
	<g>
		<g>
			<g>
				<path class="st0" d="M83.9,91.1c1.5,0.4,2.4,2,2,3.4c-0.1,0.3,0.4,0.4,0.4,0.1c0.4-1.7-0.7-3.5-2.4-4
					C83.8,90.6,83.6,91,83.9,91.1L83.9,91.1z"/>
			</g>
		</g>
	</g>
	<g>
		<g>
			<g>
				<path class="st0" d="M61.7,92C61.7,91.9,61.8,92,61.7,92C61.7,92,61.7,92,61.7,92c0,0,0.1,0,0.1,0c0.1,0,0.1,0.1,0.1,0.2
					c0,0.1-0.1,0.1-0.2,0.1c-0.1,0.1,0,0,0,0c0,0,0,0,0-0.1C61.7,92.2,61.7,92.1,61.7,92c0.4,0,0.2-0.4,0-0.4
					c-0.4,0.1-0.5,0.5-0.4,0.9c0.1,0.2,0.3,0.3,0.5,0.3c0.2,0,0.4-0.2,0.5-0.4c0.2-0.3,0.1-0.8-0.3-0.9c-0.3-0.1-0.7,0.1-0.7,0.5
					C61.3,92.3,61.8,92.3,61.7,92L61.7,92z"/>
			</g>
		</g>
	</g>
	<g>
		<g>
			<g>
				<path class="st0" d="M84.2,92.9c-0.2-0.1-0.1-0.5,0.1-0.4c0.4,0.1,0.1,0.6-0.1,0.7c-0.3,0.1-0.2,0.5,0.1,0.4
					c0.4-0.1,0.7-0.4,0.7-0.8c0-0.4-0.3-0.7-0.6-0.8c-0.3-0.1-0.7,0.1-0.8,0.4c-0.1,0.3,0,0.7,0.3,0.8
					C84.3,93.5,84.5,93.1,84.2,92.9L84.2,92.9z"/>
			</g>
		</g>
	</g>
	<g>
		<g>
			<g>
				<path class="st0" d="M56.5,98.8c3.1,1,5.8-1.8,8.2-3.5c0.2-0.2,0-0.6-0.2-0.4c-2.2,1.6-4.9,4.3-7.8,3.4
					C56.3,98.3,56.2,98.7,56.5,98.8L56.5,98.8z"/>
			</g>
		</g>
	</g>
	<g>
		<g>
			<g>
				<path class="st0" d="M80.9,96.1c-0.4,0.9,0.1,1.6,0.9,2c1.6,0.9,3.2,1.6,4.9,2.3c0.3,0.1,0.5-0.3,0.2-0.4
					c-0.9-0.4-1.9-0.9-2.9-1.3c-0.6-0.3-3.3-1.2-2.7-2.4C81.4,96.1,81,95.9,80.9,96.1L80.9,96.1z"/>
			</g>
		</g>
	</g>
	<g>
		<g>
			<g>
				<path class="st0" d="M48.6,85.8c0.3,0,0.3-0.4,0-0.4C48.3,85.4,48.3,85.8,48.6,85.8L48.6,85.8z"/>
			</g>
		</g>
	</g>
	<g>
		<g>
			<g>
				<path class="st0" d="M86.7,88.6c2.4-0.8,4.7-1.9,6.9-3.3c0.1-0.1,0.1-0.3,0-0.4c-0.1-0.1-0.2-0.3-0.4-0.4
					c-0.2-0.2-0.5,0.1-0.3,0.3c0.1,0.1,0.3,0.3,0.4,0.4c0-0.1,0-0.3,0-0.4c-2.1,1.4-4.4,2.5-6.8,3.3C86.3,88.2,86.4,88.6,86.7,88.6
					L86.7,88.6z"/>
			</g>
		</g>
	</g>
	<g>
		<g>
			<g>
				<path class="st0" d="M67.5,90.4c3.6,0.1,7.3,0.1,10.9-0.2c0.3,0,0.3-0.5,0-0.4c-3.6,0.3-7.2,0.3-10.9,0.2
					C67.2,89.9,67.2,90.4,67.5,90.4L67.5,90.4z"/>
			</g>
		</g>
	</g>
	<g>
		<g>
			<g>
				<path class="st0" d="M48.6,85.6c2.9,2.6,6.5,3.6,10.3,4.1c0.3,0,0.4-0.4,0.1-0.4c-3.7-0.5-7.2-1.5-10.1-4
					C48.7,85.1,48.4,85.4,48.6,85.6L48.6,85.6z"/>
			</g>
		</g>
	</g>
	<g>
		<g>
			<g>
				<path class="st0" d="M86.8,86.6c2.3-0.6,4.5-1.3,6.7-2.1c0.3-0.1,0.1-0.5-0.1-0.4c-2.2,0.8-4.4,1.5-6.7,2.1
					C86.4,86.2,86.5,86.6,86.8,86.6L86.8,86.6z"/>
			</g>
		</g>
	</g>
	<g>
		<g>
			<g>
				<path class="st0" d="M63.1,88.9c6,0,12-0.3,17.9-1.2c0.3,0,0.2-0.5-0.1-0.4C75,88.2,69,88.5,63.1,88.5
					C62.8,88.5,62.8,88.9,63.1,88.9L63.1,88.9z"/>
			</g>
		</g>
	</g>
	<g>
		<g>
			<g>
				<path class="st0" d="M48.6,84.8c3.1,1.8,6.4,3,10,3.6c0.3,0,0.4-0.4,0.1-0.4c-3.5-0.7-6.8-1.8-9.9-3.6
					C48.6,84.3,48.4,84.7,48.6,84.8L48.6,84.8z"/>
			</g>
		</g>
	</g>
	<g>
		<g>
			<g>
				<path class="st0" d="M61.5,68c0.1,6.8,0.4,13.7,0.7,20.5c0,0.3,0.5,0.3,0.4,0c-0.4-6.8-0.6-13.7-0.7-20.5
					C61.9,67.7,61.5,67.7,61.5,68L61.5,68z"/>
			</g>
		</g>
	</g>
	<g>
		<g>
			<g>
				<path class="st0" d="M80.3,67.3c0.3,6.7,0.6,13.3,0.7,20c0,0.3,0.5,0.3,0.4,0c-0.1-6.7-0.4-13.4-0.7-20
					C80.7,67,80.3,67,80.3,67.3L80.3,67.3z"/>
			</g>
		</g>
	</g>
	<g>
		<g>
			<g>
				<path class="st0" d="M49.3,92.7c0-0.3,0.6-0.4,0.6,0c0,0.1,0,0.1-0.1,0.2c0,0,0,0-0.1,0.1c0,0,0,0,0,0c0,0,0,0,0,0
					c-0.2-0.1-0.4-0.3-0.4-0.5c0-0.3-0.5-0.2-0.4,0.1c0.1,0.4,0.4,0.8,0.8,0.9c0.4,0.1,0.6-0.4,0.6-0.8c0-0.4-0.3-0.7-0.7-0.7
					c-0.4,0-0.7,0.3-0.8,0.6C48.9,92.9,49.3,93,49.3,92.7L49.3,92.7z"/>
			</g>
		</g>
	</g>
	<g>
		<g>
			<g>
				<path class="st0" d="M90.9,91.7c0-0.4,0.6-0.5,0.6,0c0,0.1-0.1,0.3-0.3,0.3C91.1,92,90.9,91.9,90.9,91.7c0-0.3-0.5-0.3-0.4,0
					c0,0.4,0.4,0.8,0.8,0.8c0.4,0,0.7-0.4,0.7-0.8c0-0.4-0.3-0.8-0.7-0.8c-0.4,0-0.8,0.4-0.8,0.8C90.4,92,90.9,92,90.9,91.7
					L90.9,91.7z"/>
			</g>
		</g>
	</g>
	<g>
		<g>
			<g>
				<path class="st0" d="M49.5,82.2c0.2-0.3,0.7-0.1,0.8,0.1c0.2,0.2,0.3,0.5,0.3,0.8c0,0.5,0,1,0.1,1.5c0.1,0.3,0.5,0.2,0.4-0.1
					c-0.2-0.8,0.2-1.9-0.5-2.6c-0.4-0.4-1.1-0.4-1.5,0.1C49,82.2,49.4,82.4,49.5,82.2L49.5,82.2z"/>
			</g>
		</g>
	</g>
	<g>
		<g>
			<g>
				<path class="st0" d="M91.5,84.7c0-0.4-0.1-0.8,0.1-1.2c0.1-0.3,0.5-0.4,0.8-0.2c0.2,0.2,0.5-0.1,0.3-0.3c-0.4-0.4-0.9-0.3-1.3,0
					C91,83.4,91,84.1,91,84.7C91,85,91.5,85,91.5,84.7L91.5,84.7z"/>
			</g>
		</g>
	</g>
	<g>
		<g>
			<g>
				<path class="st0" d="M50,80.9c-0.3-6.3-1.3-13,0.3-19.2c0.1-0.3-0.4-0.4-0.4-0.1c-1.5,6.3-0.6,13-0.3,19.3
					C49.6,81.2,50,81.2,50,80.9L50,80.9z"/>
			</g>
		</g>
	</g>
	<g>
		<g>
			<g>
				<path class="st0" d="M89.4,57c2.1,3.5,2.1,7.8,2.3,11.8c0.2,4.3,0.4,8.6,0.5,12.9c0,0.3,0.5,0.3,0.4,0
					c-0.2-4.8-0.4-9.5-0.6-14.3c-0.1-3.7-0.4-7.4-2.3-10.6C89.7,56.5,89.3,56.8,89.4,57L89.4,57z"/>
			</g>
		</g>
	</g>
	<g>
		<g>
			<g>
				<path class="st0" d="M42.4,50.4c-1.9-0.1-3.1-2.2-2-3.8c1.2-1.6,3.5-1.2,4.2,0.6c0.1,0.3,0.5,0.1,0.4-0.1
					c-0.8-2.1-3.7-2.7-5-0.8c-1.4,1.9,0,4.4,2.3,4.6C42.7,50.8,42.7,50.4,42.4,50.4L42.4,50.4z"/>
			</g>
		</g>
	</g>
	<g>
		<g>
			<g>
				<path class="st0" d="M94.1,46.5c0.4-0.2,0.8-0.5,1.2-0.8c1.1-0.7,2.1-0.1,2.6,1c0.7,1.5,0,3.2-1.6,3.7c-0.3,0.1-0.1,0.5,0.1,0.4
					c1.8-0.6,2.6-2.6,1.8-4.3c-0.3-0.8-1-1.6-1.9-1.7c-1-0.1-1.8,0.8-2.6,1.2C93.6,46.3,93.8,46.7,94.1,46.5L94.1,46.5z"/>
			</g>
		</g>
	</g>
	<g>
		<g>
			<g>
				<path class="st0" d="M41.4,68.2c0.8,0.7,1.8,0.8,2.8,0.8c0.3,0,0.3-0.5,0-0.4c-0.9,0-1.8,0-2.5-0.7C41.5,67.7,41.2,68,41.4,68.2
					L41.4,68.2z"/>
			</g>
		</g>
	</g>
	<g>
		<g>
			<g>
				<path class="st0" d="M43.9,65.1c0.9,0.5,1.3,1.6,1.1,2.6c-0.1,0.3,0.4,0.4,0.4,0.1c0.3-1.2-0.2-2.5-1.2-3.1
					C43.9,64.5,43.7,64.9,43.9,65.1L43.9,65.1z"/>
			</g>
		</g>
	</g>
	<g>
		<g>
			<g>
				<path class="st0" d="M101.1,75.8c0.7-0.6,1.8-0.5,2.4,0.1c0.2,0.2,0.5-0.1,0.3-0.3c-0.8-0.8-2.2-0.8-3.1-0.1
					C100.6,75.7,100.9,76,101.1,75.8L101.1,75.8z"/>
			</g>
		</g>
	</g>
	<g>
		<g>
			<g>
				<path class="st0" d="M100.5,75.9c-0.5,0.8-0.7,2-0.3,2.9c0.3,0.7,0.9,1.2,1.7,1c0.3-0.1,0.1-0.5-0.1-0.4
					c-0.8,0.2-1.3-0.7-1.3-1.3c-0.1-0.7,0.1-1.3,0.4-1.9C101,75.9,100.6,75.6,100.5,75.9L100.5,75.9z"/>
			</g>
		</g>
	</g>
	<g>
		<g>
			<g>
				<path class="st0" d="M62.1,50.7C64.2,51,66,52.2,67,54c0.1,0.3,0.5,0,0.4-0.2c-1.1-2-3.1-3.3-5.3-3.5
					C61.8,50.2,61.8,50.7,62.1,50.7L62.1,50.7z"/>
			</g>
		</g>
	</g>
	<g>
		<g>
			<g>
				<path class="st0" d="M83.9,51.7c1.8,1.3,2.8,3.3,3,5.4c0,0.3,0.5,0.3,0.4,0c-0.2-2.4-1.3-4.4-3.2-5.8
					C83.8,51.1,83.6,51.5,83.9,51.7L83.9,51.7z"/>
			</g>
		</g>
	</g>
	<g>
		<g>
			<g>
				<path class="st0" d="M84.4,64.8c1.4-1.7,2.5-3.5,3.3-5.5c0.1-0.3-0.3-0.4-0.4-0.1c-0.8,1.9-1.9,3.7-3.2,5.3
					C83.9,64.7,84.2,65.1,84.4,64.8L84.4,64.8z"/>
			</g>
		</g>
	</g>
	<g>
		<g>
			<g>
				<path class="st0" d="M66,65.7c0.9-0.6,1.4-1.4,1.7-2.5c0.1-0.3-0.4-0.4-0.4-0.1c-0.2,0.9-0.8,1.7-1.5,2.2
					C65.6,65.5,65.8,65.9,66,65.7L66,65.7z"/>
			</g>
		</g>
	</g>
	<g>
		<g>
			<g>
				<path class="st0" d="M81.9,53.5c0.1,1.1,0.5,2.4,1.4,3.2c0.9,0.7,1.3-0.5,1.2-1.2c-0.1-0.9-0.6-2.3-1.5-2.8
					c-0.3-0.1-0.6-0.1-0.8,0.1c-0.4,0.4-0.2,0.9,0,1.4c0.1,0.3,0.5,0,0.4-0.2c0-0.8,0.1-1,0.4-0.7c0,0.1,0.1,0.1,0.1,0.2
					c0.2,0.2,0.4,0.4,0.5,0.7c0.3,0.5,0.4,1.1,0.4,1.6c0,0.5-0.5,0.5-0.8,0.2c-0.2-0.2-0.4-0.5-0.5-0.8c-0.3-0.5-0.4-1.1-0.5-1.7
					C82.3,53.2,81.8,53.2,81.9,53.5L81.9,53.5z"/>
			</g>
		</g>
	</g>
	<g>
		<g>
			<g>
				<path class="st0" d="M64.3,54c0.1,0.7,0.4,1.3,1,1.7c0.5,0.4,1.2-0.1,1.1-0.7c-0.1-0.5-0.6-1.4-1.2-1.5c-0.5-0.1-1.1,0.3-1,0.8
					c0,0.3,0.5,0.2,0.4-0.1c0-0.3,0.4-0.3,0.5-0.2c0.1,0.1,0.3,0.2,0.3,0.3c0.1,0.2,0.4,0.5,0.4,0.8c0,0.6-0.6,0.1-0.8-0.1
					c-0.2-0.3-0.4-0.6-0.4-0.9C64.7,53.8,64.3,53.8,64.3,54L64.3,54z"/>
			</g>
		</g>
	</g>
	<g>
		<g>
			<g>
				<path class="st0" d="M38.2,68.9c1.5-0.4,2.7-1.4,3.4-2.8c0.1-0.3-0.3-0.5-0.4-0.2c-0.7,1.3-1.8,2.2-3.2,2.6
					C37.8,68.6,37.9,69,38.2,68.9L38.2,68.9z"/>
			</g>
		</g>
	</g>
	<g>
		<g>
			<g>
				<path class="st0" d="M43.8,62.1c0,0.6-0.3,1.1-0.7,1.5c-0.2,0.2,0.1,0.5,0.3,0.3c0.5-0.5,0.7-1.1,0.8-1.8
					C44.2,61.8,43.8,61.8,43.8,62.1L43.8,62.1z"/>
			</g>
		</g>
	</g>
	<g>
		<g>
			<g>
				<path class="st0" d="M102.7,81.7c0.1-1.1-0.1-2.4,0.5-3.4c0.1-0.3-0.3-0.5-0.4-0.2c-0.7,1.1-0.5,2.5-0.6,3.6
					C102.3,82,102.7,82,102.7,81.7L102.7,81.7z"/>
			</g>
		</g>
	</g>
	<g>
		<g>
			<g>
				<path class="st0" d="M105.2,74.8c-0.6,0.3-1.1,0.9-1.3,1.5c-0.1,0.3,0.4,0.4,0.4,0.1c0.1-0.6,0.5-1,1.1-1.3
					C105.7,75.1,105.5,74.7,105.2,74.8L105.2,74.8z"/>
			</g>
		</g>
	</g>
	<g>
		<g>
			<g>
				<path class="st0" d="M68.7,74.6c-0.5,0.2-0.7,0.8-0.6,1.2c0.1,0.3,0.7,1,1.1,0.7c0.2-0.1,0.4-0.5,0.5-0.7c0.1-0.3,0.1-0.5,0-0.8
					C69.6,74.6,69,74.3,68.7,74.6c-0.3,0.2,0,0.6,0.2,0.4c0.3-0.2,0.5,0.1,0.5,0.4c0,0.3-0.3,0.6-0.5,0.8c0.1,0,0.1,0,0.2-0.1
					c-0.7-0.1-0.8-0.9-0.2-1.2C69.2,74.8,68.9,74.5,68.7,74.6L68.7,74.6z"/>
			</g>
		</g>
	</g>
	<g>
		<g>
			<g>
				<path class="st0" d="M72.5,75.2c-0.6-0.1-1,0.8-0.5,1.1c0.1,0,0.1,0,0.2,0c0.2-0.1,0.4-0.2,0.6-0.3c0.1,0,0.1-0.2,0.1-0.3
					c-0.1-0.3-0.3-0.5-0.5-0.7s-0.5,0.1-0.3,0.3c0.1,0.1,0.3,0.3,0.4,0.5c0-0.1,0.1-0.2,0.1-0.3c-0.2,0.1-0.4,0.2-0.6,0.3
					c0.1,0,0.1,0,0.2,0c-0.1-0.1,0-0.3,0.1-0.3C72.6,75.7,72.7,75.3,72.5,75.2L72.5,75.2z"/>
			</g>
		</g>
	</g>
	<g>
		<g>
			<g>
				<path class="st0" d="M100.6,89.4c-1.4,0.6-2,1.8-2.2,3.3c-0.4,2.9,1.2,5.5-1.1,8.1c-1.8,2.1-4.3,3.7-6.9,4.8
					c-2.4,1-5.1,1.2-7.2,2.6c-0.1,0.1-0.1,0.3,0,0.4c2.2,2.6,7.6,0.3,10.1-0.7c1.8-0.7,3.8-1.5,5.4-2.7c0.4-0.3,0.8-0.6,0.9-1.1
					c0.5-1.4-1.1-4.2,2-3.8c0.3,0,0.4-0.4,0.1-0.4c-1.1-0.1-2.1,0.3-2.5,1.2c-0.2,0.5-0.1,0.8-0.1,1.3c-0.1,2.1-0.2,2.1-1.6,2.9
					c-0.5,0.3-1.1,0.6-1.7,0.9c-2.3,1.1-4.7,2-7.2,2.5c-1,0.2-3.6,0.9-4.4,0c-0.8-0.9,2.2-1.4,2.8-1.6c3.9-1.1,7.7-2.9,10.5-6
					c1.1-1.2,1.6-2.5,1.6-4.1c0-2.4-1.2-6.1,1.7-7.3C101,89.7,100.9,89.3,100.6,89.4L100.6,89.4z"/>
			</g>
		</g>
	</g>
	<g>
		<g>
			<g>
				<path class="st0" d="M44.4,97.1c0.9,4.2,6.4,4.1,9.8,4.5c2.1,0.3,4.2,0.6,6.2-0.4c1.7-0.9,3.8-3.4,5.8-3.1
					c1.2,1.6,1.2,2.6,0.1,3c-0.2,0.1-0.5,0.2-0.7,0.3c-0.8,0.4-1.6,0.7-2.4,1c-1.2,0.5-2.5,1-3.7,1.3c-1.6,0.5-3.1,0.8-4.7,0.8
					c-1.2,0-2.4-0.1-3.6,0c-0.9,0.1-2.7,0.4-2.9,1.6c-0.1,0.4,0,0.7,0.3,1c0.3,0.4,0.7,0.4,1,0.7c0.8,0.3,0.7,1.1-0.3,2.3
					c-0.5,0-1.1-0.1-1.6-0.3c-0.3-0.1-0.4,0.4-0.1,0.4c1.1,0.3,3.6,0.7,3.7-1.2c0-0.6-0.3-0.9-0.8-1.3c-0.3-0.1-0.5-0.3-0.8-0.4
					c0-0.6-0.1-1.2-0.1-1.8c0.4-0.7,2.2-0.5,2.9-0.5c2.8,0,5.4-0.1,8-1c1.5-0.5,2.9-1.1,4.3-1.7c1-0.4,2.1-0.8,2.9-1.5
					c1-0.9,1.1-2.5-0.3-3.1c-1.7-0.7-3.6,0.6-4.9,1.5c-1,0.7-2,1.6-3.2,1.9c-1.6,0.5-3.3,0.1-4.9-0.1c-3.2-0.4-8.5-0.2-9.3-4.2
					C44.7,96.7,44.3,96.8,44.4,97.1L44.4,97.1z"/>
			</g>
		</g>
	</g>
	<g>
		<g>
			<g>
				<path class="st0" d="M45.4,104.5c1.2,0.3,2.4-0.1,3.4-0.9c0.1-0.1,0.1-0.3,0-0.3c-0.5-0.6-1.2-1-1.9-1.3c-0.3-0.1-0.6-0.3-1-0.3
					c-0.1,0-0.3-0.1-0.4-0.1c-0.1,0-0.1,0-0.3,0c-0.2-0.1-0.4,0-0.4,0.2c-0.1-0.1-0.1-0.1-0.2-0.2c0,0,0,0,0,0.1
					c0,0.3,0.4,0.3,0.4,0c0,0,0,0,0-0.1c0-0.1-0.1-0.2-0.2-0.2c-0.5-0.1-0.6,0.4-0.2,0.7c0.2,0.1,0.5,0.1,0.7,0.1
					c0.4,0.1,0.7,0.1,1.1,0.3c0.7,0.3,1.3,0.7,1.9,1.3c0-0.1,0-0.2,0-0.3c-0.8,0.7-1.9,1-3,0.8C45.2,104,45.1,104.4,45.4,104.5
					L45.4,104.5z"/>
			</g>
		</g>
	</g>
	<g>
		<g>
			<g>
				<path class="st0" d="M52.5,96.7c-0.4,0.4-1.6,0.4-1.3,1.3c0.1,0.6,1.3,0.8,1.8,0.7c0.5-0.1,1-0.8,0.8-1.3
					c-0.2-0.5-0.9-0.7-1.3-0.3c-0.2,0.2,0.1,0.5,0.3,0.3c0.3-0.4,0.7,0.2,0.5,0.5c-0.3,0.4-0.8,0.4-1.2,0.2
					c-0.2-0.1-0.6-0.1-0.4-0.5c0.1-0.1,0.3-0.2,0.5-0.3c0.3-0.1,0.5-0.2,0.7-0.4C53,96.8,52.7,96.5,52.5,96.7L52.5,96.7z"/>
			</g>
		</g>
	</g>
	<g>
		<g>
			<g>
				<path class="st0" d="M53.8,99.6c0.9,0.1,1.9,0,2.8-0.2c0.3-0.1,0.2-0.5-0.1-0.4c-0.9,0.2-1.8,0.3-2.7,0.2
					C53.5,99.1,53.5,99.6,53.8,99.6L53.8,99.6z"/>
			</g>
		</g>
	</g>
	<g>
		<g>
			<g>
				<path class="st0" d="M58.5,99.4c-0.7-0.2-1.4,0-1.9,0.4c-0.1,0.1-0.1,0.3,0,0.4c0.8,0.4,1.7,0.4,2.5-0.1c0.2-0.1,0.1-0.3,0-0.4
					c-0.3-0.1-0.7-0.3-0.9-0.4c-0.3-0.1-0.4,0.3-0.1,0.4c0.3,0.1,0.7,0.3,0.9,0.4c0-0.1,0-0.3,0-0.4c-0.6,0.4-1.4,0.4-2,0.1
					c0,0.1,0,0.3,0,0.4c0.4-0.4,0.9-0.5,1.5-0.3C58.7,100,58.8,99.5,58.5,99.4L58.5,99.4z"/>
			</g>
		</g>
	</g>
	<g>
		<g>
			<g>
				<path class="st0" d="M60.9,98.6c-0.4-0.1-0.8,0-1,0.3c-0.1,0.1,0,0.2,0,0.3c0.3,0.3,0.9,0.3,1.2,0c0.2-0.2-0.1-0.5-0.3-0.3
					c-0.1,0.1-0.4,0.1-0.5,0c0,0.1,0,0.2,0,0.3c0.1-0.2,0.3-0.2,0.5-0.1C61,99.1,61.1,98.7,60.9,98.6L60.9,98.6z"/>
			</g>
		</g>
	</g>
	<g>
		<g>
			<g>
				<path class="st0" d="M64.3,96.4c2.4-0.5,4.8-0.6,7.2-0.4c0.3,0,0.3-0.4,0-0.4c-2.5-0.3-4.9-0.1-7.3,0.4
					C63.9,96,64,96.4,64.3,96.4L64.3,96.4z"/>
			</g>
		</g>
	</g>
	<g>
		<g>
			<g>
				<path class="st0" d="M74.1,98.4c2.2-0.4,4.5-0.4,6.7-0.1c0.3,0,0.4-0.4,0.1-0.4c-2.3-0.3-4.6-0.3-6.9,0.1
					C73.7,98,73.8,98.5,74.1,98.4L74.1,98.4z"/>
			</g>
		</g>
	</g>
	<g>
		<g>
			<g>
				<path class="st0" d="M79.5,99.4c-0.3,0.1-0.5,0.2-0.7,0.4c-0.1,0.1-0.1,0.3,0.1,0.4c0.7,0.3,1.5,0.3,2.2,0
					c0.2-0.1,0.2-0.3,0.1-0.4c-0.3-0.4-0.8-0.4-1.3-0.2c-0.3,0.1,0,0.5,0.2,0.4c0.3-0.1,0.5-0.1,0.7,0.1c0-0.1,0.1-0.3,0.1-0.4
					c-0.7,0.2-1.3,0.2-2,0c0,0.1,0.1,0.3,0.1,0.4c0.1-0.2,0.3-0.3,0.5-0.3C79.9,99.8,79.8,99.4,79.5,99.4L79.5,99.4z"/>
			</g>
		</g>
	</g>
	<g>
		<g>
			<g>
				<path class="st0" d="M84.3,100.3c-0.5-0.1-1,0-1.4,0.3c-0.1,0.1-0.1,0.3,0,0.4c0.3,0.2,0.7,0.1,0.9-0.1c0.2-0.2-0.1-0.5-0.3-0.3
					c-0.1,0.1-0.2,0.1-0.4,0c0,0.1,0,0.3,0,0.4c0.3-0.2,0.7-0.3,1.1-0.3C84.5,100.8,84.6,100.3,84.3,100.3L84.3,100.3z"/>
			</g>
		</g>
	</g>
	<g>
		<g>
			<g>
				<path class="st0" d="M86.2,101.8c0.2-0.1,0.3-0.1,0.5-0.2c0.2-0.1,0.2-0.4,0-0.4c-0.7-0.2-1.8-0.3-2,0.7c-0.1,0.8,0.8,1,1.4,0.9
					c0.5-0.1,1.5-0.3,1.4-1.1c-0.1-0.5-0.8-1-1.1-0.5c-0.2,0.2,0.1,0.5,0.3,0.3c0.1-0.2,0.4,0.1,0.4,0.2c0,0.2-0.2,0.3-0.3,0.4
					c-0.3,0.1-0.6,0.2-0.9,0.2c-0.4,0-1.1-0.1-0.6-0.7c0.3-0.3,0.9-0.2,1.3-0.1c0-0.1,0-0.3,0-0.4c-0.2,0.1-0.3,0.1-0.5,0.2
					C85.8,101.5,86,101.9,86.2,101.8L86.2,101.8z"/>
			</g>
		</g>
	</g>
	<g>
		<g>
			<g>
				<path class="st0" d="M60.8,106.8c-0.4-0.5-1.3-0.2-1.5,0.4c-0.3,0.7,0.4,1.3,1,1.4c0.7,0.1,1.6-0.4,1.6-1.2
					c-0.1-0.7-0.9-0.9-1.3-0.4c-0.2,0.3,0.2,0.5,0.4,0.2c0.2-0.2,0.5,0,0.5,0.2c0,0.2-0.2,0.5-0.4,0.6c-0.3,0.1-0.6,0.2-0.9,0
					c-0.3-0.1-0.5-0.4-0.4-0.7c0.1-0.3,0.5-0.4,0.8-0.2C60.7,107.3,61,107,60.8,106.8L60.8,106.8z"/>
			</g>
		</g>
	</g>
	<g>
		<g>
			<g>
				<path class="st0" d="M36.6,60.3c-0.8-1.1-0.8-1.9,0-2.4c0.3-0.3,0.5-0.4,0.9-0.5c1.4-0.2,1.1,0.6,1.7,1.2
					c0.2,0.3,0.5,0.4,0.8,0.4c0.5,0.1,1.1-0.1,1.6-0.1c0.1,0,0.2,0,0.3,0c0.9,1.4,0.6,2.1-0.8,2c-0.5,0-1,0-1.5,0
					c-0.3,0-0.3,0.5,0,0.4c1.1,0,4.3,0.1,3.8-2c-0.4-1.8-3.1-0.2-4-1.4c-0.4-0.5-0.4-1-1.2-1.1c-0.7-0.1-1.5,0.3-2,0.7
					c-1,0.9-1.1,2.6,0.4,3C36.7,60.8,36.8,60.3,36.6,60.3L36.6,60.3z"/>
			</g>
		</g>
	</g>
	<g>
		<g>
			<g>
				<path class="st0" d="M36,61.7c-1.4-0.6-2.7-1.6-2.6-3.3c0.1-2.1,2.2-3.3,4.1-2.5c1.5,0.7,1.9,2.6,3.7,2.8c0.3,0,0.3-0.4,0-0.4
					c-1.6-0.1-2.1-2.2-3.5-2.8c-1.1-0.5-2.5-0.4-3.5,0.4c-0.9,0.8-1.3,2-1.1,3.2c0.3,1.6,1.5,2.4,2.8,3C36,62.2,36.3,61.8,36,61.7
					L36,61.7z"/>
			</g>
		</g>
	</g>
	<g>
		<g>
			<g>
				<path class="st0" d="M47.5,81c-10.5,2.4-20.8,5.7-30.8,9.7c-0.3,0.1-0.1,0.5,0.1,0.4c10-4.1,20.3-7.4,30.8-9.7
					C47.9,81.4,47.7,80.9,47.5,81L47.5,81z"/>
			</g>
		</g>
	</g>
	<g>
		<g>
			<g>
				<path class="st0" d="M93.8,81.9c12.1,2.6,23.9,6,35.6,10c0.3,0.1,0.4-0.3,0.1-0.4c-11.7-4.1-23.5-7.4-35.6-10
					C93.6,81.4,93.5,81.8,93.8,81.9L93.8,81.9z"/>
			</g>
		</g>
	</g>
	<g>
		<path class="st0" d="M21.5,75c-2,0-3.7-1.7-3.7-3.7s1.7-3.7,3.7-3.7s3.7,1.7,3.7,3.7S23.5,75,21.5,75z M21.5,67.6
			c-2,0-3.6,1.6-3.6,3.6s1.6,3.6,3.6,3.6s3.6-1.6,3.6-3.6S23.5,67.6,21.5,67.6z"/>
	</g>
	<g>
		<path class="st0" d="M26.9,42.8c-1.7,0-3-1.4-3-3c0-1.7,1.4-3,3-3s3,1.4,3,3C29.9,41.5,28.6,42.8,26.9,42.8z M26.9,36.9
			c-1.6,0-2.9,1.3-2.9,2.9s1.3,2.9,2.9,2.9s2.9-1.3,2.9-2.9S28.5,36.9,26.9,36.9z"/>
	</g>
	<g>
		<path class="st0" d="M70.2,41.4c-0.7,0-1.3-0.6-1.3-1.3s0.6-1.3,1.3-1.3c0.7,0,1.3,0.6,1.3,1.3S70.9,41.4,70.2,41.4z M70.2,38.9
			c-0.7,0-1.2,0.5-1.2,1.2s0.5,1.2,1.2,1.2s1.2-0.5,1.2-1.2S70.9,38.9,70.2,38.9z"/>
	</g>
	<g>
		<path class="st0" d="M120.7,65.5c-3.6,0-6.5-2.9-6.5-6.5c0-3.6,2.9-6.5,6.5-6.5s6.5,2.9,6.5,6.5C127.2,62.6,124.3,65.5,120.7,65.5
			z M120.7,52.7c-3.5,0-6.4,2.9-6.4,6.4c0,3.5,2.9,6.4,6.4,6.4c3.5,0,6.4-2.9,6.4-6.4C127.1,55.5,124.2,52.7,120.7,52.7z"/>
	</g>
	<g>
		<path class="st0" d="M124.2,80.8c-0.8,0-1.4-0.6-1.4-1.4s0.6-1.4,1.4-1.4s1.4,0.6,1.4,1.4S125,80.8,124.2,80.8z M124.2,78
			c-0.7,0-1.3,0.6-1.3,1.3s0.6,1.3,1.3,1.3s1.3-0.6,1.3-1.3S125,78,124.2,78z"/>
	</g>
	<g>
		<path class="st0" d="M14.9,49.8l-0.6-1.1L13,48.5l0.9-0.9l-0.2-1.3l1.1,0.6l1.1-0.6l-0.2,1.3l1,0.9l-1.3,0.2L14.9,49.8z
			 M13.2,48.5l1.1,0.1l0.5,1l0.5-1l1.2-0.2l-0.9-0.8l0.2-1.1l-1,0.5l-1-0.5l0.2,1.1L13.2,48.5z"/>
	</g>
	<g>
		<path class="st0" d="M52.8,41.2l-1-3.5l-3.4-1.2l3-2l0.1-3.6l2.8,2.3l3.5-1l-1.3,3.4l2,3l-3.6-0.2L52.8,41.2z M48.6,36.4l3.3,1.2
			l0.9,3.4l2.1-2.8l3.5,0.2l-2-2.8l0,0l1.2-3.2l-3.3,1l0,0l-2.7-2.2l-0.1,3.5L48.6,36.4z"/>
	</g>
	<g>
		<path class="st0" d="M105.3,65.2l-0.4-0.9l-0.9-0.2l0.7-0.6l-0.1-1l0.8,0.5l0.9-0.4l-0.2,0.9l0.6,0.7l-1,0.1L105.3,65.2z
			 M104.2,64.1l0.8,0.2l0.3,0.8l0.4-0.7l0.8-0.1l-0.5-0.6l0.2-0.8l-0.8,0.3l-0.7-0.4l0.1,0.8L104.2,64.1z"/>
	</g>
	<g>
		<path class="st0" d="M107.1,48.5l-1.5-6.4l-6.1-2.4l5.7-3.4l0.4-6.6l5,4.3l6.4-1.6l0,0.1l-2.5,6l3.6,5.6l-6.6-0.6L107.1,48.5z
			 M99.7,39.7l6,2.4l1.4,6.3l4.1-5l6.5,0.6l-3.5-5.4l0,0l2.5-5.9l-6.2,1.6l0,0l-4.9-4.2l-0.4,6.5l0,0L99.7,39.7z"/>
	</g>
</g>
</svg>
