<?xml version="1.0" encoding="utf-8"?>
<!-- Generator: Adobe Illustrator 24.0.1, SVG Export Plug-In . SVG Version: 6.00 Build 0)  -->
<svg version="1.1" id="Layer_1" xmlns="http://www.w3.org/2000/svg" xmlns:xlink="http://www.w3.org/1999/xlink" x="0px" y="0px"
	 viewBox="0 0 141.7 141.7" style="enable-background:new 0 0 141.7 141.7;" xml:space="preserve">
<style type="text/css">
	.st0{fill:#010101;}
	.st1{fill:#070707;}
</style>
<g id="Layer_1_1_">
</g>
<g id="Layer_1_2_">
</g>
<g id="Layer_1_3_">
</g>
<g id="Layer_1_4_">
</g>
<g id="Layer_1_5_">
</g>
<g id="Layer_3">
</g>
<g id="Layer_3_1_">
</g>
<g id="Layer_1_6_">
</g>
<g id="Layer_1_7_">
</g>
<g id="Layer_1_8_">
</g>
<g id="Layer_1_9_">
</g>
<g id="Layer_1_10_">
</g>
<g id="Layer_1_11_">
</g>
<g id="Layer_1_12_">
</g>
<g id="Layer_1_13_">
</g>
<g id="Layer_1_14_">
</g>
<g id="Layer_1_15_">
</g>
<g id="Layer_1_16_">
</g>
<g id="Layer_1_17_">
</g>
<g id="Layer_1_18_">
</g>
<g id="Layer_1_19_">
</g>
<g id="Layer_1_20_">
</g>
<g id="Layer_2_1_">
</g>
<g id="Layer_1_21_">
</g>
<g>
	<g>
		<path class="st0" d="M12.6,74.8c-2.8,0-5-2.2-5-5c0-2.8,2.2-5,5-5s5,2.2,5,5C17.6,72.5,15.3,74.8,12.6,74.8z M12.6,65
			c-2.6,0-4.8,2.1-4.8,4.8c0,2.6,2.1,4.8,4.8,4.8s4.8-2.1,4.8-4.8C17.3,67.1,15.2,65,12.6,65z"/>
	</g>
	<g>
		<path class="st0" d="M29.4,74.8c-2.8,0-5-2.2-5-5c0-2.8,2.2-5,5-5c2.8,0,5,2.2,5,5C34.4,72.5,32.1,74.8,29.4,74.8z M29.4,65
			c-2.6,0-4.8,2.1-4.8,4.8c0,2.6,2.1,4.8,4.8,4.8s4.8-2.1,4.8-4.8C34.1,67.1,32,65,29.4,65z"/>
	</g>
	<g>
		<path class="st0" d="M46.2,74.8c-2.8,0-5-2.2-5-5c0-2.8,2.2-5,5-5c2.8,0,5,2.2,5,5C51.2,72.5,49,74.8,46.2,74.8z M46.2,65
			c-2.6,0-4.8,2.1-4.8,4.8c0,2.6,2.1,4.8,4.8,4.8s4.8-2.1,4.8-4.8C51,67.1,48.8,65,46.2,65z"/>
	</g>
	<g>
		<path class="st0" d="M62.8,74.8c-2.8,0-5-2.2-5-5c0-2.8,2.2-5,5-5c2.8,0,5,2.2,5,5C67.8,72.5,65.5,74.8,62.8,74.8z M62.8,65
			c-2.6,0-4.8,2.1-4.8,4.8c0,2.6,2.1,4.8,4.8,4.8s4.8-2.1,4.8-4.8C67.5,67.1,65.4,65,62.8,65z"/>
	</g>
	<g>
		<path class="st0" d="M79.6,74.8c-2.8,0-5-2.2-5-5c0-2.8,2.2-5,5-5s5,2.2,5,5C84.6,72.5,82.3,74.8,79.6,74.8z M79.6,65
			c-2.6,0-4.8,2.1-4.8,4.8c0,2.6,2.1,4.8,4.8,4.8c2.6,0,4.8-2.1,4.8-4.8C84.3,67.1,82.2,65,79.6,65z"/>
	</g>
	<g>
		<path class="st0" d="M96.4,73.1c-2.1,0-3.7-1.7-3.7-3.7c0-2.1,1.7-3.7,3.7-3.7c2.1,0,3.7,1.7,3.7,3.7
			C100.1,71.4,98.4,73.1,96.4,73.1z M96.4,65.9c-1.9,0-3.5,1.6-3.5,3.5s1.6,3.5,3.5,3.5c1.9,0,3.5-1.6,3.5-3.5S98.3,65.9,96.4,65.9z
			"/>
	</g>
	<g>
		<path class="st0" d="M113,73.1c-2.1,0-3.7-1.7-3.7-3.7c0-2.1,1.7-3.7,3.7-3.7s3.7,1.7,3.7,3.7C116.7,71.4,115.1,73.1,113,73.1z
			 M113,65.9c-1.9,0-3.5,1.6-3.5,3.5s1.6,3.5,3.5,3.5c1.9,0,3.5-1.6,3.5-3.5S114.9,65.9,113,65.9z"/>
	</g>
	<g>
		<path class="st0" d="M129.9,74.8c-2.8,0-5-2.2-5-5c0-2.8,2.2-5,5-5c2.8,0,5,2.2,5,5C134.9,72.5,132.6,74.8,129.9,74.8z M129.9,65
			c-2.6,0-4.8,2.1-4.8,4.8c0,2.6,2.1,4.8,4.8,4.8s4.8-2.1,4.8-4.8C134.6,67.1,132.5,65,129.9,65z"/>
	</g>
	<g>
		<path class="st0" d="M117.9,74.8c-0.6,0-1.3-0.4-2-0.7c-1.2-0.7-2.7-1.8-4-3.2c-2.6-2.5-4.7-5.6-3.9-6.5l0,0
			c0.9-0.9,4,1.2,6.6,3.7c1.4,1.4,2.6,2.8,3.3,4c0.5,0.9,1.1,2,0.6,2.5C118.3,74.7,118.1,74.8,117.9,74.8z M108.1,64.5
			c-0.6,0.6,0.8,3.2,3.9,6.2c1.4,1.3,2.8,2.5,4,3.2c1.1,0.7,2,0.9,2.3,0.6c0.3-0.3,0.1-1.1-0.6-2.2c-0.7-1.2-1.9-2.6-3.2-3.9
			C111.4,65.3,108.7,63.9,108.1,64.5L108.1,64.5z"/>
	</g>
	<g>
		<path class="st0" d="M91.8,74.8c-0.2,0-0.4-0.1-0.5-0.2l0,0c-0.9-0.8,1.2-4,3.7-6.6c1.3-1.4,2.7-2.6,3.9-3.3
			c0.9-0.6,2-1.1,2.5-0.6c0.5,0.5,0,1.7-0.5,2.6c-0.7,1.2-1.8,2.7-3.1,4.1C95.7,72.9,93.1,74.8,91.8,74.8z M91.5,74.5
			c0.6,0.6,3.2-0.9,6.1-3.9c1.3-1.4,2.4-2.8,3.1-4c0.6-1.1,0.8-2,0.5-2.3c-0.3-0.3-1.1,0-2.2,0.6c-1.2,0.7-2.6,1.9-3.9,3.3
			C92.2,71.2,90.9,73.9,91.5,74.5L91.5,74.5z"/>
	</g>
	<g>
		<g>
			<g>
				<path class="st1" d="M43.4,65.9c0.5,0.4-0.2,0.7-0.4,1c0,0,0,0.1,0,0.1c-0.1,0.2-0.1,0.7-0.1,0.9c0,0,0,0.2,0,0.2
					c0.7-0.4,0.1,0.2,0.2,0.5c0.1,0.2,0.2,0.1,0.4,0.2c0.3,0.3,0.1,0,0.3,0.3c0,0,0,0.1,0,0.1c0,0.2,0,0.6,0.2,0.8
					c0.2,0.4,0.7,0.5,1.1,0.8c0.4,0.2,0.9,1,1.1,0.2c0.1-0.3-0.1-1-0.2-1.1c-0.3-0.2-0.5,0.2-0.8,0.2c-0.5,0-0.5-0.7,0-0.9
					c0.7-0.3,0.9,1,1.2,0.1c0,0,0-0.1,0-0.1c0,0,0,0,0,0c0-0.1-0.1-0.2,0-0.3c0.2-0.2,0.4,0,0.6-0.1c0.5-0.3,0.1-0.3,0.1-0.7
					c0-0.3,0.4-0.8-0.2-1.1c-0.7-0.3-0.3,0.5-0.6,0.7c0,0,0,0.2,0,0.2c0,0-0.3,0.5-0.4-0.2l0,0c-0.5-0.1,0,0.1,0.2-0.3
					c0-0.1,0-0.3-0.1-0.4c-0.2-0.4-0.7-0.5-0.9-0.1c0,0.1,0.1,0.3,0,0.3c-0.2,0.3-0.1-0.1-0.3-0.2c-0.4-0.2-0.1,0-0.5,0.3
					c-0.4,0.5-1,0.2-0.7-0.4c0.2-0.4,0.7-0.8,1-1c0.2-0.1,1.5-0.6,0.9-1c0,0,0,0.2,0,0.2c0.2,0.1-0.8,0.6-0.9,0.6
					c-0.2,0.2-0.4,0.4-0.6,0.6c-0.2,0.2-0.5,0.5-0.6,0.9c0,0,0,0.1,0,0.1c0,0.3,0.1,0.4,0.5,0.4c0.5,0,0.3-0.6,0.6-0.7
					c0.3-0.1,0.1,0.1,0.3,0.2c0,0.1,0,0.2,0.1,0.3c0.1,0,0.2-0.1,0.1-0.2c0,0,0-0.1,0-0.1c0.1-0.1,0-0.3,0.3-0.4
					c0.1,0,0.7,0.3,0.7,0.4c0,0.4-0.4,0.1-0.4,0.4c0,0,0,0.2,0,0.2c0.4,0.1,0.3,0.6,0.7,0.2c0,0,0.1-0.4,0.1-0.4c0,0,0-0.1,0-0.1
					c0.1-0.2-0.1-0.2,0.2-0.3c0.1,0,0.4,0.1,0.4,0.2c0.2,0.3-0.1,0.4-0.3,0.6c0,0,0,0.2,0,0.2c0.9,0.5-0.4,0.3-0.5,0.8
					c0,0,0,0.1,0,0.1c-0.2,0.7,0.2,0.5-0.5,0.1c-0.5-0.3-0.9,0-1,0.5c0,0.1,0,0.3,0.1,0.5c0.4,0.5,0.8-0.3,1.2,0
					c0.2,0.2,0.3,1.2-0.2,1.1c-0.2-0.1-0.2-0.4-0.4-0.5c-0.2-0.1-0.4-0.1-0.6-0.2c-0.1-0.1-0.2-0.2-0.3-0.2
					c-0.4-0.2-0.4-0.2-0.5-0.6c0-0.2,0-0.6-0.1-0.8c-0.3-0.6-0.9,0-0.5-1c0,0,0-0.2,0-0.2c-0.5,0.3-0.4-0.1-0.2-0.5
					c0-0.2,0-0.2,0.1-0.4c0.2-0.2,0.5-0.2,0.5-0.6c0-0.2-0.1-0.4-0.3-0.5C43.5,65.8,43.4,65.9,43.4,65.9L43.4,65.9z"/>
			</g>
		</g>
	</g>
	<g>
		<g>
			<g>
				<path class="st1" d="M45.2,69.9C45.3,69.9,45.3,69.9,45.2,69.9C45.2,69.9,45.2,69.9,45.2,69.9L45.2,69.9z"/>
			</g>
		</g>
	</g>
	<g>
		<g>
			<g>
				<path class="st1" d="M47.1,74.4c0,0,0-0.1-0.1-0.1C47,74.3,47,74.4,47.1,74.4c0-0.2,0.3-0.5,0.2-0.8c0-0.2-0.3-0.3-0.4-0.4
					c-0.2-0.1-0.4-0.2-0.5-0.4c-0.2-0.4,0-0.4,0.3-0.5c0,0,0-0.2,0-0.2c0-0.4,0.1-0.9,0.6-0.7c0.1,0,0.2,0.2,0.4,0.2
					s0.1-0.2,0.2-0.3c0.2-0.1,0.1,0.1,0.2,0.2c0.1,0.1,0.1,0.1,0.2,0c0,0,0,0.1,0,0.2c0.2,0.1,0.1,0.2,0.4,0.1
					c0.1-0.1,0.3-0.6,0.4-0.2c0,0,0-0.1,0-0.2c0,0.1-0.1,0.3-0.1,0.5c0.2,0.5,0.7,0.1,1.1,0c0,0,0-0.1,0-0.2
					c-0.2,0.7-0.8,0.8-0.6,1.5c0,0,0-0.1,0-0.2c-0.1,0.4-0.3,0.1-0.6,0.1c-0.3,0-0.2,0-0.4,0.2c0,0.1-0.1,0.2-0.1,0.3
					c-0.1,0.1-0.2,0.1-0.3,0.1c-0.2,0.1-0.4,0.1-0.4,0.4c0,0.1,0,0.3,0.2,0.3c0,0,0-0.2,0-0.2c-0.1,0-0.1,0-0.2-0.2c0,0,0,0.1,0,0.2
					c0-0.3,0.3-0.2,0.5-0.4c0.2-0.1,0.1-0.2,0.3-0.4c0.2-0.2,0.1-0.2,0.5-0.2c0.3,0,0.4,0.2,0.5-0.2c0-0.1,0-0.4,0-0.5
					c0,0,0,0.1,0,0.2c0.2-0.3,0.5-0.6,0.6-1c0,0,0-0.2,0-0.2c-0.3,0-0.9,0.4-1.1,0c0,0,0,0.1,0,0.2c0-0.1,0.1-0.3,0.1-0.5
					c-0.1-0.4-0.4,0.3-0.6,0.2c-0.1,0-0.1-0.1-0.2-0.2c0-0.2,0-0.2-0.1-0.1c0,0-0.2-0.3-0.3-0.3c-0.2,0-0.1,0.2-0.2,0.2
					c-0.2,0.1-0.1,0-0.3,0c-0.3,0-0.7-0.2-0.9,0.3c-0.1,0.2,0.1,0.5,0.1,0.7c0,0,0-0.1,0-0.2c-0.3,0.1-0.4,0.1-0.4,0.4
					c-0.1,0.7,0.7,0.9,1.1,1.3c0,0,0-0.1,0-0.2c0,0.4-0.4,0.7-0.2,1.1C47.1,74.5,47.1,74.4,47.1,74.4L47.1,74.4z"/>
			</g>
		</g>
	</g>
	<g>
		<g>
			<g>
				<path class="st1" d="M48.8,65.9c0,0.4,0.2,0.4,0.4,0.7c0.3,0.3,0.4,0.5,0.6,0.9c0,0,0,0.1,0,0.1c0.1,0.2,0.3,0.3,0.4,0.6
					c0,0.1,0,0.4,0,0.4c0.1,0.7,0.5,1.1,0.5,1.8c0,0.3-0.1,0.5,0,0.8c0,0,0-0.1,0-0.2c-0.2-0.3,0.1-0.7,0-1.1c0-0.6-0.4-1.2-0.6-1.8
					c0,0,0-0.1,0-0.1c-0.1-0.2-0.2-0.3-0.3-0.5c0,0,0-0.1,0-0.1c-0.1-0.1,0-0.3-0.2-0.5c-0.2-0.4-0.9-0.6-0.9-1.2
					C48.8,65.8,48.8,65.8,48.8,65.9L48.8,65.9z"/>
			</g>
		</g>
	</g>
	<g>
		<g>
			<g>
				<path class="st1" d="M49.4,70.8c0,0,0,0.1,0,0.2c0,0.3,0.3,0,0.4,0c0.2-0.1,0.4,0.1,0.6-0.1c0.1-0.1,0.1-0.2,0.1-0.3
					c0-0.1,0-0.2-0.1-0.3c-0.2-0.1-0.5,0-0.6,0.2c0,0,0,0.1-0.1,0.1c0,0-0.1,0-0.1,0.1C49.4,70.7,49.4,70.7,49.4,70.8
					c0,0,0,0.1,0,0.2C49.4,71,49.5,70.8,49.4,70.8C49.4,70.7,49.4,70.7,49.4,70.8C49.4,70.7,49.4,70.8,49.4,70.8c0,0,0.1,0,0.2-0.1
					c0.1-0.1,0.1-0.2,0.3-0.3c0.2-0.1,0.5,0,0.5,0.2c0,0,0-0.1,0-0.2c0,0.3-0.3,0.2-0.5,0.2c-0.1,0-0.2,0.1-0.3,0.2
					C49.6,70.9,49.4,71,49.4,70.8c0,0,0,0.1,0,0.2l0,0C49.4,70.9,49.4,70.8,49.4,70.8L49.4,70.8z"/>
			</g>
		</g>
	</g>
	<g>
		<g>
			<g>
				<path class="st1" d="M47.8,70.7c-0.1-0.1-0.3-0.3-0.3-0.5c0,0,0,0.1,0,0.2c0.1-0.2,0.5-0.2,0.6,0c0.1,0.1,0.2,0.2,0.4,0.2
					c0.1,0,0.2,0.1,0.3,0.2c0,0,0-0.1,0-0.2c-0.1,0.2-0.3,0-0.5,0c-0.1,0-0.1,0-0.2,0.1C47.9,70.7,47.8,70.7,47.8,70.7
					c0,0-0.1,0.1,0,0.1c0.1,0,0.2,0.1,0.3,0.1c0.1,0,0.1-0.1,0.3-0.1c0.1,0,0.4,0.2,0.4,0c0,0,0-0.1,0-0.2c0-0.2-0.2-0.2-0.4-0.3
					c-0.2,0-0.3-0.3-0.5-0.3c-0.1,0-0.3,0-0.4,0.2c-0.1,0.2,0.1,0.5,0.3,0.6C47.8,70.8,47.8,70.7,47.8,70.7L47.8,70.7z"/>
			</g>
		</g>
	</g>
	<g>
		<g>
			<g>
				<path class="st1" d="M46.9,70.6c0.1,0,0.2,0,0.2-0.1c0-0.1,0-0.2,0-0.2C46.9,70.1,46.8,70.5,46.9,70.6c0,0,0-0.2,0-0.2
					c0,0,0,0,0-0.1c0,0,0,0.1,0,0.2c0-0.2,0.2-0.1,0.2,0c0,0,0-0.1,0-0.2c0,0.1-0.1,0.1-0.2,0.1C47,70.4,46.9,70.5,46.9,70.6
					L46.9,70.6z"/>
			</g>
		</g>
	</g>
	<g>
		<g>
			<g>
				<path class="st1" d="M47.1,68.8c-0.2,0-0.2,0.2-0.1,0.3c0,0,0-0.1,0-0.2c0,0.1-0.2,0.1-0.3,0.2c-0.1,0,0,0.1,0,0.2
					c0,0.1,0,0.1,0,0.2c0.1,0.1,0.3,0,0.4-0.1c0,0,0.1,0,0.2,0s0.1,0,0.2,0c0.1,0,0.1-0.1,0.1-0.2c0,0,0-0.1,0-0.2
					C47.4,68.8,47.2,68.8,47.1,68.8C47,68.8,47,69,47,69c0.2,0,0.4-0.1,0.5,0.1c0,0,0-0.1,0-0.2c0,0.1-0.1,0.1-0.2,0.1
					c-0.1,0-0.2,0-0.3,0c-0.1,0-0.4,0.2-0.4,0c0,0,0,0.1,0,0.2c0-0.2,0.3-0.1,0.4-0.3c0-0.1,0-0.2,0-0.2c0,0,0,0.1,0,0.2
					c0-0.1,0.1-0.1,0.1,0C47.1,69,47.1,68.8,47.1,68.8L47.1,68.8z"/>
			</g>
		</g>
	</g>
	<g>
		<g>
			<g>
				<path class="st1" d="M47.5,68.6c0,0-0.1,0-0.1,0.1c0,0,0,0.2,0,0.2c0,0,0.1,0,0.2,0c0,0,0-0.1,0-0.1
					C47.5,68.7,47.6,68.5,47.5,68.6c0,0,0,0.2,0,0.2c0,0,0.1,0,0.1,0C47.5,68.8,47.5,68.7,47.5,68.6c0,0.1-0.1,0.1-0.1,0.1
					c0,0,0,0.1,0,0.2c0,0,0.1-0.1,0.1-0.1C47.5,68.8,47.5,68.6,47.5,68.6L47.5,68.6z"/>
			</g>
		</g>
	</g>
	<g>
		<g>
			<g>
				<path class="st1" d="M48,68.6c-0.1,0-0.1,0-0.2,0.1c0,0,0,0.2,0,0.2c0.1,0,0.1,0,0.1-0.1C47.9,68.7,47.9,68.6,48,68.6
					c-0.1,0-0.1,0.1-0.1,0.2c0,0,0,0,0,0C47.9,68.7,47.9,68.7,48,68.6c0,0.1-0.1,0.1-0.2,0.1c0,0,0,0.1,0,0.2c0-0.1,0.1-0.1,0.2-0.1
					C47.9,68.8,48,68.6,48,68.6L48,68.6z"/>
			</g>
		</g>
	</g>
	<g>
		<g>
			<g>
				<path class="st1" d="M32.7,73.2c-0.6-0.6-1.3-1.1-2.1-1.6c-0.2-0.1-0.6-0.5-0.9-0.5c-0.4-0.1-0.3,0.1-0.7,0.2
					c-0.8,0.2-3.6-0.5-3.7,0.9c0,0,0,0.2,0,0.2c0,0,0,0,0,0c0,0,0-0.2,0-0.2c0,0,0,0,0,0c0,0,0,0.1,0,0.2c-0.2-0.5,1.4-0.8,1.7-0.9
					c0.7-0.1,1.4,0.1,2,0c0.3-0.1,0.3-0.2,0.7-0.2c0.3,0,0.7,0.4,0.9,0.5c0.7,0.5,1.5,1,2.1,1.6C32.7,73.3,32.8,73.2,32.7,73.2
					L32.7,73.2z"/>
			</g>
		</g>
	</g>
	<g>
		<g>
			<g>
				<path class="st1" d="M25.7,71.7c-0.1,0.1-0.2,0.1-0.3,0.2c0,0-0.1,0.1-0.1,0.1c0,0-0.1,0.1-0.1,0.1c0,0,0,0,0,0l0,0v0l0,0v0
					c0,0,0,0,0,0c0,0,0.1-0.1,0.1-0.2C25.5,71.9,25.6,71.8,25.7,71.7C25.7,71.7,25.7,71.7,25.7,71.7L25.7,71.7z"/>
			</g>
		</g>
	</g>
	<g>
		<g>
			<g>
				<path class="st1" d="M26,73.2c0.4-0.4,0.8-0.4,1.4-0.5c0.7-0.1,1.3-0.5,2-0.7c1.4-0.3,2,1.2,3.2,1.5c0,0,0-0.2,0-0.2
					c-1.2-0.3-1.8-1.7-3.2-1.5c-0.6,0.1-1.2,0.5-1.8,0.6c-0.6,0.1-1,0.1-1.5,0.5C26,73,26,73.2,26,73.2L26,73.2z"/>
			</g>
		</g>
	</g>
	<g>
		<g>
			<g>
				<path class="st1" d="M26.9,74c0.3-0.4,0.6-0.4,1.1-0.4c0.5,0,1,0,1.5,0c1,0,1.8,0.7,2.8,0.2c0,0,0-0.2,0-0.2
					c-1,0.5-1.8-0.3-2.8-0.2c-0.4,0-0.8,0.1-1.3,0.1c-0.5,0-0.9,0-1.3,0.4C26.9,73.8,26.9,73.9,26.9,74L26.9,74z"/>
			</g>
		</g>
	</g>
	<g>
		<g>
			<g>
				<path class="st1" d="M24.6,70.4c0.9-0.3,1.5-1.1,2.3-1.4c0.8-0.3,1.8-0.3,2.6,0c0.6,0.3,1.6,0.9,2.2,1.4
					c0.3,0.3,0.5,0.6,0.8,0.9c0.4,0.3,0.8,0.4,0.9,1.1c0,0,0-0.1,0-0.2c0-0.8-0.8-1-1.3-1.5c-0.6-0.6-1.5-1.2-2.2-1.7
					c-0.9-0.5-2-0.5-2.9-0.1c-0.9,0.3-1.5,1.1-2.3,1.4C24.6,70.2,24.7,70.4,24.6,70.4L24.6,70.4z"/>
			</g>
		</g>
	</g>
	<g>
		<g>
			<g>
				<path class="st1" d="M24.6,68.9c0.8-0.9,1.6-1.9,2.8-2.3c0.6-0.2,1.1-0.1,1.7,0c0.7,0.2,1.1,0,1.8,0c0.9,0,2.1,0.5,2.5,1.3
					c0.1,0.3,0.1,0.6,0.2,0.9c0.1,0.5,0.4,0.5,0.7,0.8c0,0,0-0.1,0-0.2c-0.1-0.1-0.3-0.2-0.4-0.3c-0.3-0.3-0.2-0.4-0.3-0.9
					c0-0.1,0-0.3-0.1-0.4c-0.4-0.9-1.7-1.5-2.6-1.5c-0.6,0-1,0.1-1.6,0c-0.6-0.1-1.1-0.3-1.7-0.1c-1.3,0.3-2.2,1.4-3,2.3
					C24.6,68.8,24.6,68.9,24.6,68.9L24.6,68.9z"/>
			</g>
		</g>
	</g>
	<g>
		<g>
			<g>
				<path class="st1" d="M24.7,69c0.8-0.7,1.5-1.6,2.5-2c1-0.4,1.8,0.2,2.7,0.2c1,0.1,1.8,0.2,2.5,0.9c0.6,0.5,0.9,2,1.8,1.8
					c0,0,0-0.2,0-0.2C33.3,70,33,68.5,32.4,68c-0.8-0.7-1.5-0.8-2.5-0.9c-1-0.1-1.7-0.6-2.7-0.2c-1,0.4-1.8,1.3-2.5,2
					C24.6,68.9,24.7,69,24.7,69L24.7,69z"/>
			</g>
		</g>
	</g>
	<g>
		<g>
			<g>
				<path class="st1" d="M58,70.4c0.3-0.3,0.2,0,0.4,0c0.3,0,0.1,0,0.4-0.2c0.2-0.1,0.1-0.1,0.3,0c0.1,0,0.1,0.4,0.3,0
					c0-0.1,0-0.4,0-0.5c0,0,0,0.1,0,0.2c0-0.2,0.3-0.6,0.5-0.3c0,0,0-0.1,0-0.2c0,0.3-0.2,0.7-0.1,1.1c0.1,0.7,0.3,0,0.2-0.2
					c0,0,0,0.1,0,0.2c0.1-0.3,0.3-0.2,0.4-0.4c0,0,0,0,0,0c0-0.1,0-0.2,0-0.3c0,0,0,0.1,0,0.2c0.1,0,0.2,0,0.3,0c0,0,0-0.2,0-0.2
					c0,0,0-0.1,0-0.1c0,0,0,0.1,0,0.2c0-0.5,0.2-0.3,0.5-0.5c0.1,0,0.2,0,0.2-0.1c0-0.2,0-0.2,0,0c0,0,0-0.1,0-0.2
					c-0.1,0.3-0.3,0.5-0.4,0.9c0,0.1,0,0.2,0,0.4c0,0,0-0.1,0-0.2c-0.2,0.4-0.2,0.5,0,0.9c0,0,0-0.1,0-0.2c0,0.2-0.1,0.7,0.3,0.5
					c0.2-0.1,0.1-0.5,0.1-0.7c0,0,0,0.1,0,0.2c0.3-0.3,0.3,0.2,0.4-0.3c0,0,0-0.1,0-0.2c-0.1,0.4-0.2,0-0.4,0.3c0,0,0,0,0,0
					c0,0,0,0.2,0,0.2c-0.2,0.6-0.4-0.2-0.5-0.4c0,0,0,0.1,0,0.2c0.1-0.4,0.1-0.4,0.1-0.8c0,0,0,0.1,0,0.2c0-0.3,0.3-0.6,0.4-0.9
					c0,0,0-0.1,0-0.1v0c0-0.4,0-0.1,0-0.1c0.1,0-0.4,0.3-0.3,0.2c-0.1,0-0.2,0-0.3,0.1c-0.1,0.1-0.1,0.2-0.1,0.3c0,0.1,0,0.2,0,0.3
					c0,0,0-0.1,0-0.2c-0.1,0-0.2,0-0.3,0c0,0,0,0.2,0,0.2c0,0,0,0.1,0,0.1c0,0,0-0.1,0-0.2c0,0.2-0.3,0.1-0.4,0.5c0,0.1,0,0.3,0,0.4
					c0,0,0-0.1,0-0.2c-0.2,0.2-0.2,0-0.3-0.2c0,0,0,0.1,0,0.2c0-0.1,0.4-1.2,0-1.2s-0.3,0.6-0.3,0.9c0,0,0-0.1,0-0.2
					c-0.2,0.4-0.2-0.1-0.3-0.1c-0.2,0-0.2,0-0.3,0.1c-0.3,0.2-0.1,0.2-0.4,0.2c-0.2,0-0.2-0.3-0.4,0C57.9,70.3,58,70.4,58,70.4
					L58,70.4z"/>
			</g>
		</g>
	</g>
	<g>
		<g>
			<g>
				<path class="st1" d="M61.8,70.7c0.2-1,0.2,0,0.6-0.1c0.2,0,0.2-0.5,0.6-0.3c0.2,0.1,0,0.9,0.2,1c0.2,0.1,0.2-0.1,0.3-0.2
					c0-0.2,0.2-0.2,0.3-0.2c0,0.1,0.1,0.2,0.2,0.2c0,0,0.2-0.2,0.3-0.2c0.1,0.1,0.2,0.1,0.2,0.3c0.1-0.1,0.2-0.1,0.4,0
					c0.3,0.2,0.7,0.8,1.1,0.3c0,0,0-0.1,0-0.1c0.1-0.2-0.1-0.4,0.2-0.4c0.1,0.1,0.2,0.1,0.2,0.3c0.1,0,0.1-0.1,0.1-0.2
					c0.2,0,0-0.2,0.3,0c0,0,0-0.2,0-0.2c-0.3-0.2-0.1,0-0.3,0c0,0.1,0,0.2-0.1,0.2c0-0.1-0.1-0.2-0.2-0.3c-0.2,0-0.2,0-0.3,0.1
					c0,0.1,0,0.2,0,0.3c-0.1,0.2,0.2,0.1-0.1,0.3c-0.4,0.3-0.6-0.3-0.8-0.4c0-0.1-0.1-0.2-0.3-0.2c-0.1,0.1-0.2,0.1-0.2,0
					c-0.1-0.1-0.2-0.1-0.3-0.1c-0.1,0-0.2,0.1-0.2,0.2c-0.3,0-0.1-0.3-0.4-0.2c-0.2,0-0.1,0.5-0.5,0.4c-0.2-0.1,0-0.8-0.2-1
					c-0.2-0.2-0.3,0.1-0.5,0.2c-0.1,0.1-0.1,0.2-0.2,0.1c0-0.1-0.1-0.2-0.1-0.3c0-0.1-0.1-0.2-0.2-0.2c-0.1,0.2-0.1,0.3-0.2,0.5
					C61.7,70.5,61.8,70.6,61.8,70.7L61.8,70.7z"/>
			</g>
		</g>
	</g>
	<g>
		<g>
			<g>
				<path class="st1" d="M67.1,70.9c0.1,0,0.1-0.1,0.2-0.2c0-0.1,0.2-0.1,0.2,0c0,0,0,0,0,0v0c0,0,0,0,0,0c0,0,0-0.1,0-0.1
					c-0.1-0.1-0.1,0-0.2,0.1C67.2,70.7,67.2,70.8,67.1,70.9C67,70.8,67.1,70.9,67.1,70.9L67.1,70.9z"/>
			</g>
		</g>
	</g>
	<g>
		<g>
			<g>
				<path class="st1" d="M67.4,70.8c-0.3,0-0.9,0.3-1.1,0.5c-0.6,0.3-0.5,0.4-1.2,0.2c-0.5-0.2-0.9-0.3-1.4-0.2
					c-0.1,0-1.3,0.5-1.2,0c0,0,0-0.2,0-0.2c-0.2-0.1-0.8,0.3-1,0.3c-0.4,0.1-0.3,0.1-0.7,0c-0.3-0.1-0.5-0.1-0.4-0.5
					c0,0,0-0.2,0-0.2c-0.3-0.1-0.3,0.3-0.5,0.3c-0.4,0-0.1-0.1-0.4-0.2c-0.2-0.1-0.2-0.2-0.5-0.2c-1-0.2,0,0.1-0.1,0.1v0.1
					c-0.1,0-0.2-0.3-0.4-0.3c0,0,0,0.2,0,0.2c0,0.1-0.4,0.2-0.3,0.6c0,0,0-0.1,0-0.2c0-0.2,0.3,0,0.4,0c0,0,0-0.2,0-0.2
					c0-0.3,0.3,0.1,0.4,0.1v-0.2c0-0.4,0.9,0.4,0.7,0.4c0.2,0,0.8-0.7,0.7-0.1c0,0,0,0.2,0,0.2c0.4,0.2,0.8,0.4,1.2,0.3l0.3-0.2
					c0,0,0.4-0.1,0.4-0.1c0.1,0,0.2-0.1,0.3-0.1c0.1,0,0,0,0,0.1c0,0,0,0.1,0,0.1c0.7,0.4,1.1-0.1,1.9,0c0.7,0.1,1,0.6,1.7,0.3
					c0.4-0.1,0.8-0.6,1.3-0.7C67.4,71,67.4,70.8,67.4,70.8L67.4,70.8z"/>
			</g>
		</g>
	</g>
	<g>
		<g>
			<g>
				<path class="st1" d="M59.6,73.2c0.8-0.8,2.2,0.7,3.1,0.7c0.1-0.1,0.2-0.2,0.3-0.2c0.1,0,0.1,0.1,0.2,0.1
					c0.1,0.1,0.2,0.2,0.4,0.1c0.1,0,0.1-0.1,0.2-0.1c0.4,0,0.7-0.1,1.1-0.4c0.1-0.1,0.6-0.2,0.5-0.5c-0.1-0.3-0.4-0.1-0.3-0.2
					c0-0.1,0.4-0.1,0.4-0.3c0,0,0-0.1,0-0.1c-0.1-0.6-0.4,0-0.6,0c-0.1,0.1-0.4,0.1-0.6,0.1c-0.3,0-0.2,0.1-0.5,0
					c-0.2-0.1-0.3-0.3-0.6-0.1c-0.2,0.1-0.1,0.4-0.4,0.4c-0.3,0-0.2-0.3-0.4-0.3c0-0.1,0-0.1-0.2-0.1c-0.1,0-0.2,0.1-0.3,0.2
					c-0.1,0.2-0.1,0.1-0.1-0.2c0.1-0.3,0-0.4-0.2-0.3c-0.2-0.2-0.5-0.1-0.8-0.1c-0.2-0.1-0.5-0.3-0.8-0.3c-0.5,0-0.3,0.3-0.6,0.4
					c-0.4,0.1-0.4-0.1-0.7-0.2c-0.2,0-0.3-0.2-0.4,0.1c0,0,0,0.1,0,0.2c0.1-0.5,0.6,0.1,0.8,0.1c0.4,0,0.2-0.3,0.4-0.4
					c0.2-0.1,0.4,0,0.7,0.1c0.2,0.1,0.4,0.2,0.7,0.3c0.1,0,0.7,0,0.8,0.1c0,0.1,0,0.2,0,0.3c0,0.3,0,0.4,0.1,0.2
					c0,0,0.3-0.2,0.4-0.1c0.1,0,0.1,0.3,0.2,0.4c0.3,0.1,0.2-0.1,0.4-0.1c0.3-0.1,0-0.4,0.5-0.3c0.2,0,0.2,0.3,0.4,0.3
					c0.1,0,0.9-0.2,1-0.2c0.1-0.1,0.1-0.3,0.3-0.3c0.7-0.3-0.3,0.7-0.1,0.4C65,72.7,65,72.7,65,72.9c0,0.2,0.3,0.2,0.3,0.2
					c0,0.2,0,0.1-0.3,0.3c-0.2,0.1-0.3,0.3-0.5,0.4c-0.2,0-0.2-0.1-0.4,0c-0.3,0-0.2,0.3-0.6,0.2c-0.2,0-0.3-0.2-0.5-0.2
					s-0.2,0.2-0.4,0.2c-0.2,0-0.3-0.3-0.5-0.4c-0.2-0.1-0.4,0-0.6-0.1c-0.6-0.2-1.1-0.9-1.7-0.3C59.6,73.1,59.6,73.2,59.6,73.2
					L59.6,73.2z"/>
			</g>
		</g>
	</g>
	<g>
		<g>
			<g>
				<path class="st1" d="M67.1,71.7c0-0.2-0.9,0-1,0.3c0,0,0,0.1,0,0.1c0,0.1,0.1,0.1,0.1,0.2c0,0,0-0.1,0-0.2
					c0,0.3-0.4,0.3-0.4,0.6c0,0.1,0,0.1,0,0.2c0.1,0.1,0.4-0.2,0.4,0.1c0,0,0-0.1,0-0.2c0-0.3-0.4,0.1-0.5-0.2c0,0,0,0.1,0,0.2
					c0.1-0.2,0.4-0.3,0.4-0.6c0,0,0-0.1,0-0.1c0-0.1-0.1-0.1-0.1-0.2c0,0,0,0.1,0,0.2c0-0.3,0.9-0.4,1-0.3
					C67.1,71.8,67.1,71.7,67.1,71.7L67.1,71.7z"/>
			</g>
		</g>
	</g>
	<g>
		<g>
			<g>
				<path class="st1" d="M58,69.5c0.4,0,0.3-0.3,0.6-0.4c0.2-0.1,0.7-0.1,1-0.1c0.4-0.1,0.8-0.1,1.1-0.4c0,0,0-0.1,0-0.1
					c0.4-0.7,0-0.5,0.5-1c0.3,0.1,0.4,0,0.4-0.3c0.1-0.2,0.2-0.2,0.4-0.2c0.3,0,0.3,0.3,0.6,0.2c0-0.1,0.1-0.2,0.2-0.3
					c0.1,0,0.2,0,0.3,0.1c0,0.1,0,0.2,0.1,0.3c0.1-0.1,0.2-0.1,0.3-0.2c0.3,0.1,0.3,0.6,0.7,0.7c0.3,0.1,0.4-0.3,0.7-0.2
					c0.3,0.1,0.2,0.5,0.4,0.6c0,0,0.8,0.1,0.7,0.2c0.3,0,0.3-0.2,0.6-0.2c0.1,0,0.5,0.1,0.5,0.2c0,0,0-0.1,0-0.2
					c0-0.1-0.4-0.2-0.5-0.2c-0.3,0-0.3,0.2-0.6,0.2c0.1,0-0.7-0.2-0.7-0.2c-0.3-0.2-0.1-0.6-0.5-0.7c-0.4-0.1-0.4,0.4-0.9,0
					c-0.2-0.1-0.2-0.4-0.4-0.5c-0.1,0.1-0.2,0.1-0.3,0.2c-0.1-0.1-0.1-0.2-0.1-0.3c-0.1-0.1-0.2-0.1-0.3-0.1
					c-0.1,0.1-0.2,0.2-0.2,0.4c-0.3,0-0.4-0.4-0.8-0.2c-0.2,0.1-0.2,0.2-0.2,0.4c-0.3,0-0.5,0-0.7,0.2c-0.3,0.3,0,0.5-0.2,0.8
					c-0.2,0.4-0.6,0.4-1.1,0.5c-0.3,0-0.7,0-1,0.1c-0.3,0.1-0.2,0.4-0.6,0.4C58,69.3,58,69.5,58,69.5L58,69.5z"/>
			</g>
		</g>
	</g>
	<g>
		<g>
			<g>
				<path class="st1" d="M67.4,68.5c-0.3-0.4-0.6,0-0.9,0.1c-0.3,0-0.3,0-0.6,0.2c-0.1,0.1-0.3,0.2-0.5,0.2c-0.4,0.1-1.2,0-1.1,0.5
					c0,0.2,0.1,0.4,0.3,0.5c0.2,0.1,0.3-0.1,0.5-0.1c0.2,0.1,0.1,0.3,0.3,0.4c0.2,0.2,0.3,0,0.5,0c0.3-0.1,0.2,0,0.5,0.2
					c0.2,0.1,0.3,0,0.5-0.1c0.3-0.1,0.4-0.1,0.6,0.1c0,0,0-0.2,0-0.2c-0.2-0.1-0.4-0.2-0.6-0.1c-0.1,0.1-0.2,0.2-0.4,0.2
					c-0.1,0-0.2-0.2-0.3-0.3c-0.2-0.1-0.3,0.1-0.5,0.1c-0.4,0-0.3-0.5-0.7-0.5c-0.2,0-0.2,0.1-0.4,0c-0.2-0.1-0.3-0.3-0.3-0.4
					c0,0,0,0.1,0,0.2c0.1-0.4,0.5-0.3,0.8-0.3c0.4,0,0.6-0.2,0.9-0.4c0.2-0.1,0.5-0.1,0.7-0.2c0.3-0.1,0.4-0.3,0.7,0
					C67.4,68.6,67.4,68.5,67.4,68.5L67.4,68.5z"/>
			</g>
		</g>
	</g>
	<g>
		<g>
			<g>
				<path class="st1" d="M58.6,67.6c0.4-0.1,0.6-0.4,1-0.5c0.3-0.1,0.6,0,0.9-0.1c0.3-0.2,0.4-0.6,0.8-0.8c0.4-0.2,1-0.5,1.4-0.6
					c0.5-0.1,0.7,0.1,1.1,0.4c0.4,0.3,0.5,0.4,1,0.5c0.4,0.1,1.8,0.5,1.9,0.7c0,0,0-0.1,0-0.2c-0.1-0.2-1.4-0.6-1.8-0.7
					c-0.5-0.1-0.7-0.1-1.1-0.5c-0.4-0.3-0.6-0.6-1.1-0.5c-0.4,0.1-0.8,0.4-1.2,0.5c-0.3,0.1-0.4,0.1-0.6,0.3
					c-0.1,0.1-0.1,0.3-0.2,0.4c-0.3,0.2-0.5,0-0.9,0.1c-0.4,0.1-0.7,0.5-1.2,0.6C58.6,67.4,58.6,67.6,58.6,67.6L58.6,67.6z"/>
			</g>
		</g>
	</g>
	<g>
		<g>
			<g>
				<path class="st1" d="M75.7,66.9c2.4-1.1,5.1-1.2,7.5-0.1c0,0,0-0.2,0-0.2c-2.5-1-5.1-1-7.5,0.1C75.7,66.7,75.8,66.9,75.7,66.9
					L75.7,66.9z"/>
			</g>
		</g>
	</g>
	<g>
		<g>
			<g>
				<path class="st1" d="M75.2,67.6c2.8-1.4,5.9-1.1,8.8,0c0,0,0-0.2,0-0.2c-2.9-1-5.9-1.4-8.8,0C75.1,67.4,75.2,67.6,75.2,67.6
					L75.2,67.6z"/>
			</g>
		</g>
	</g>
	<g>
		<g>
			<g>
				<path class="st1" d="M75,68.2c3-1,6.2-1,9.2,0c0,0,0-0.2,0-0.2c-3-1-6.2-1-9.2,0C75,68,75.1,68.1,75,68.2L75,68.2z"/>
			</g>
		</g>
	</g>
	<g>
		<g>
			<g>
				<path class="st1" d="M75.1,69L75.1,69L75.1,69z"/>
			</g>
		</g>
	</g>
	<g>
		<g>
			<g>
				<path class="st1" d="M74.8,69.2c3.1-1.2,6.3-1.3,9.4-0.4c0,0,0-0.2,0-0.2c-3.1-0.9-6.4-0.8-9.4,0.4
					C74.8,69.1,74.8,69.2,74.8,69.2L74.8,69.2z"/>
			</g>
		</g>
	</g>
	<g>
		<g>
			<g>
				<path class="st1" d="M74.7,70c3.3-0.6,6.5-0.7,9.8,0c0,0,0-0.2,0-0.2c-3.3-0.7-6.5-0.6-9.8,0C74.7,69.8,74.7,70,74.7,70L74.7,70
					z"/>
			</g>
		</g>
	</g>
	<g>
		<g>
			<g>
				<path class="st1" d="M74.9,71.2c3.2,0.1,6.3,0,9.5-0.1c0,0,0-0.2,0-0.2c-3.2,0.2-6.3,0.2-9.5,0.1C74.9,71,74.9,71.2,74.9,71.2
					L74.9,71.2z"/>
			</g>
		</g>
	</g>
	<g>
		<g>
			<g>
				<path class="st1" d="M75.2,72c2.9,0.3,5.8,0.4,8.7,0.1c0,0,0-0.2,0-0.2c-2.9,0.2-5.8,0.2-8.7-0.1C75.2,71.9,75.2,72,75.2,72
					L75.2,72z"/>
			</g>
		</g>
	</g>
	<g>
		<g>
			<g>
				<path class="st1" d="M75.6,72.7c1.2,0.4,2.5,0.5,3.8,0.5c1.3,0,2.9,0.2,4-0.4c0,0,0-0.2,0-0.2c-1.2,0.5-2.8,0.4-4,0.4
					c-1.3,0-2.6,0-3.8-0.5C75.6,72.5,75.5,72.7,75.6,72.7L75.6,72.7z"/>
			</g>
		</g>
	</g>
	<g>
		<g>
			<g>
				<path class="st1" d="M76.1,73.4c2.2,0.6,4.4,0.7,6.7,0.1c0,0,0-0.2,0-0.2c-2.2,0.6-4.5,0.5-6.7-0.1
					C76.1,73.2,76.1,73.4,76.1,73.4L76.1,73.4z"/>
			</g>
		</g>
	</g>
	<g>
		<g>
			<g>
				<path class="st1" d="M92.9,70.6c-0.6,0.8-1.4,1.9-1.3,3c0.3,2.3,4.5-1.3,5.2-2c0,0,0-0.2,0-0.2c-0.7,0.7-4.8,4.3-5.2,2
					c0,0.1,0,0.2,0,0.2c0.1-1,0.7-1.9,1.3-2.7C93,70.8,92.9,70.6,92.9,70.6L92.9,70.6z"/>
			</g>
		</g>
	</g>
	<g>
		<g>
			<g>
				<path class="st1" d="M96.8,66.5c0.5-0.5,1-0.9,1.6-1.2c0.5-0.2,1.3-0.6,1.9-0.5c1.3,0.4-0.7,3.4-1.1,4c0,0,0,0.2,0,0.2
					c0.7-1.1,1.6-2.4,1.5-3.7c-0.1-2-3.3,0.3-3.9,0.9C96.8,66.3,96.9,66.5,96.8,66.5L96.8,66.5z"/>
			</g>
		</g>
	</g>
	<g>
		<g>
			<g>
				<path class="st1" d="M92.9,70.5c0.9-0.3,3.4-0.6,3.6,0.8c0,0,0-0.1,0-0.2c0,0.8-0.6,1.2-1.3,1.6c0,0,0,0.2,0,0.2
					c0.7-0.4,1.4-0.9,1.3-1.7c-0.1-1.4-2.7-1.1-3.6-0.8C92.9,70.3,93,70.5,92.9,70.5L92.9,70.5z"/>
			</g>
		</g>
	</g>
	<g>
		<g>
			<g>
				<path class="st1" d="M92.9,68.7c0.6,0,7.5,0.1,6-1.9c0,0,0,0.1,0,0.2c0.7,0.9-1.7,1.4-2.1,1.4c-1.3,0.2-2.5,0-3.8,0.1
					C92.9,68.5,92.9,68.7,92.9,68.7L92.9,68.7z"/>
			</g>
		</g>
	</g>
	<g>
		<g>
			<g>
				<path class="st1" d="M96.5,71.7c-0.1,0.4-0.3,0.8-0.4,1.2c0,0,0,0.1,0,0.2c0.2-0.4,0.3-0.8,0.4-1.2
					C96.5,71.8,96.4,71.7,96.5,71.7L96.5,71.7z"/>
			</g>
		</g>
	</g>
	<g>
		<g>
			<g>
				<path class="st1" d="M114.7,66.2c-1.7-0.5-3.7,0.2-4,2.2c-0.1,0.7,0.1,1.4,0.6,1.9c1.9,1.9,5.7-0.7,4.6-3.1c0,0,0,0.1,0,0.2
					c1.1,2.3-2.9,4.5-4.6,2.8c-0.8-0.9-0.6-2.2,0.1-3.1c0.9-0.9,2.1-1,3.3-0.7C114.7,66.3,114.7,66.2,114.7,66.2L114.7,66.2z"/>
			</g>
		</g>
	</g>
	<g>
		<g>
			<g>
				<path class="st1" d="M115.3,66.6c-1.2-0.3-2.5,0-3.2,1.1c-0.3,0.4-0.4,1.1,0,1.5c1,1,2.8,0.1,3.1-1.1c0.2-0.5,0.1-1.1-0.1-1.6
					c0,0,0,0.1,0,0.2c1.2,2.2-3,3.8-3.3,1.7c0,0,0,0.1,0,0.2c0.1-1.6,2.1-2.2,3.5-1.8C115.2,66.8,115.3,66.6,115.3,66.6L115.3,66.6z
					"/>
			</g>
		</g>
	</g>
	<g>
		<g>
			<g>
				<path class="st1" d="M110.2,68.7c-0.7-0.8-1.5-1.6-1.6-2.8c0,0.1,0,0.2,0,0.2c0.1-1.4,2.2-0.8,3-0.3c0,0,0-0.2,0-0.2
					c-0.8-0.5-2.9-1.1-3,0.4c0,1.2,0.8,2.1,1.6,2.9C110.2,68.9,110.3,68.8,110.2,68.7L110.2,68.7z"/>
			</g>
		</g>
	</g>
	<g>
		<g>
			<g>
				<path class="st1" d="M116.5,70.5c0.8,0.5,1.1,1.8,1.1,2.7c0-0.1,0-0.1,0-0.2c-0.1,1.5-1.8,0.6-2.6,0.2c0,0,0,0.2,0,0.2
					c0.8,0.4,2.5,1.3,2.6-0.2c0-0.9-0.2-2.4-1.1-2.9C116.5,70.2,116.4,70.4,116.5,70.5L116.5,70.5z"/>
			</g>
		</g>
	</g>
	<g>
		<g>
			<g>
				<path class="st1" d="M134.7,69.8c-0.7-1.1-2.4-1.8-3.7-2.2c-1.2-0.3-2.6-0.3-3.7,0.2c-1.1,0.5-2.4,1.9-2,3.2
					c0.3,1.1,1.8,1.5,2.8,1.7c1.4,0.2,2.8,0,4.1-0.4c1.3-0.4,2.8-1.1,2.7-2.6c0,0,0,0.1,0,0.2c0.1,1.9-3.2,2.5-4.6,2.7
					c-1.4,0.1-5.3,0-4.9-2.3c0.3-1.8,2.6-2.7,4.2-2.7c1.7,0,4.3,1,5.2,2.4C134.6,69.9,134.7,69.8,134.7,69.8L134.7,69.8z"/>
			</g>
		</g>
	</g>
	<g>
		<g>
			<g>
				<path class="st1" d="M131.8,69c-1-0.4-2.1-0.6-3.2-0.5c-0.7,0.1-1.9,0.4-2,1.3c0,0.5,0.3,0.8,0.8,0.9c1,0.4,2.3,0.4,3.3,0.3
					c0.5-0.1,1.8-0.1,1.9-0.8c0.2-0.7-0.7-1.2-1.2-1.4c0,0,0,0.2,0,0.2c0.3,0.1,1.1,0.4,1.2,0.9c0.1,0.6-0.9,0.7-1.3,0.8
					c-1.3,0.2-2.7,0.3-4-0.1c-1.3-0.5-0.4-1.4,0.5-1.7c1.3-0.4,2.7-0.1,3.9,0.3C131.7,69.2,131.8,69,131.8,69L131.8,69z"/>
			</g>
		</g>
	</g>
	<g>
		<g>
			<g>
				<path class="st1" d="M130.5,69.4c-0.4-0.2-2.2-0.3-2.2,0.4c0,0.3,0.3,0.4,0.6,0.4c0.5,0.1,1.2,0.2,1.6-0.1c0,0,0-0.2,0-0.2
					c-0.2-0.2-1.1-0.4-1.4-0.1c0,0,0,0.1,0,0.2c0.2-0.3,1.1-0.1,1.4,0.1c0,0,0-0.1,0-0.2c-0.3,0.2-0.7,0.2-1.1,0.2
					c-0.3,0-0.9,0-1.1-0.4c0,0,0,0.1,0,0.2c0.1-0.7,1.8-0.6,2.2-0.4C130.5,69.6,130.5,69.4,130.5,69.4L130.5,69.4z"/>
			</g>
		</g>
	</g>
	<g>
		<g>
			<g>
				<path class="st1" d="M12.6,69.8c-0.5-0.3,1.1-0.1,0.3,0.5c-0.5,0.4-1.4-0.7-0.7-1.1c0.5-0.3,1.3,0.2,1.4,0.7
					c0.2,0.9-0.7,1.2-1.4,1c-1.3-0.3-1.5-1.6-0.5-2.4c1-0.8,2.9,0.8,2.9,1.9c0,1.6-2.1,1.9-3.3,1.4c-1.2-0.6-2.1-2.5-1.1-3.6
					c1-1.2,2.3-0.8,3.6-0.4c0.7,0.2,1.3,0.3,1.8,0.9c0.5,0.7,0.6,1.8,0.2,2.5c-1.3,2.2-5.8,2.6-7.1,0.2c-0.4-0.7-0.6-1.7-0.2-2.4
					c0.3-0.5,0.8-0.6,1.3-1c0.5-0.3,0.5-0.8,0.8-1.2c0.4-0.6,1.1-0.8,1.8-0.8c1.1,0.1,2.7,1,3.6,1.7c0.5,0.4,0.9,1.2,0.9,1.9
					c0,0.8-0.5,1.3-0.8,2c-0.7,1.3-1.8,1.8-3.2,2.1c-1.6,0.4-2.7,0-3.8-1.1c-1.2-1.2-2-2.6-1-4.3c0.4-0.7,0.9-1,1.6-1.4
					c0.6-0.4,0.8-1.1,1.4-1.5c1.3-0.9,3.1-0.2,4.3,0.6c1.6,1.1,2.5,2.9,1.8,4.8c0,0,0,0.1,0,0.2c0.3-1,0.3-2,0-2.9
					c-0.7-2-3.7-4-5.8-3c-0.4,0.2-0.7,0.5-1,0.9c-0.4,0.5-0.8,0.7-1.4,1.1c-0.8,0.6-1.4,1.7-1.4,2.7c0,1,0.4,1.7,1,2.4
					c0.7,0.8,1.6,1.7,2.7,1.8c1.2,0.1,2.9-0.4,3.8-1.1c0.9-0.6,1.9-2.3,1.9-3.4c-0.1-1.9-2.1-3-3.7-3.5c-1.1-0.4-2.2-0.2-2.7,0.9
					c-0.3,0.6-0.3,0.8-0.9,1.1c-0.5,0.2-0.9,0.5-1.2,1c-0.4,0.8-0.1,1.9,0.2,2.7c1.2,2.1,4.8,1.9,6.4,0.5c0.7-0.6,1.1-1.4,0.9-2.3
					c-0.2-1.3-0.9-1.8-2-2.1c-1.2-0.4-2.5-0.9-3.6,0.1c-0.7,0.6-0.8,1.4-0.6,2.2c0.4,1.3,1.2,2.1,2.5,2.2c1.1,0.1,2.2-0.5,2.2-1.7
					c0.1-1.1-0.8-1.8-1.7-2.3c-1-0.5-2,0.6-1.9,1.6c0,1.4,2.6,1.9,2.6,0.3c0-0.6-0.4-1.4-1.2-1.3c-0.4,0.1-0.5,0.4-0.6,0.7
					c-0.1,0.7,1.1,1.4,1.2,0.5C13.2,68.9,11.8,69.5,12.6,69.8C12.6,70,12.6,69.9,12.6,69.8L12.6,69.8z"/>
			</g>
		</g>
	</g>
</g>
</svg>
