<?xml version="1.0" encoding="utf-8"?>
<!-- Generator: Adobe Illustrator 24.0.1, SVG Export Plug-In . SVG Version: 6.00 Build 0)  -->
<svg version="1.1" id="Layer_1" xmlns="http://www.w3.org/2000/svg" xmlns:xlink="http://www.w3.org/1999/xlink" x="0px" y="0px"
	 viewBox="0 0 141.7 141.7" style="enable-background:new 0 0 141.7 141.7;" xml:space="preserve">
<style type="text/css">
	.st0{fill:#070707;}
</style>
<g id="Layer_1_1_">
</g>
<g id="Layer_1_2_">
</g>
<g id="Layer_1_3_">
</g>
<g id="Layer_1_4_">
</g>
<g id="Layer_1_5_">
</g>
<g id="Layer_3">
</g>
<g id="Layer_3_1_">
</g>
<g id="Layer_1_6_">
</g>
<g id="Layer_1_7_">
</g>
<g id="Layer_1_8_">
</g>
<g id="Layer_1_9_">
</g>
<g id="Layer_1_10_">
</g>
<g id="Layer_1_11_">
</g>
<g id="Layer_1_12_">
</g>
<g id="Layer_1_13_">
</g>
<g id="Layer_1_14_">
</g>
<g id="Layer_1_15_">
</g>
<g id="Layer_1_16_">
</g>
<g id="Layer_1_17_">
</g>
<g id="Layer_1_18_">
</g>
<g id="Layer_1_19_">
</g>
<g id="Layer_1_20_">
</g>
<g id="Layer_2_1_">
</g>
<g id="Layer_1_21_">
</g>
<g id="Layer_1_22_">
</g>
<g id="Layer_1_23_">
</g>
<g id="Layer_1_24_">
</g>
<g id="Layer_2_2_">
	<g>
		<g>
			<g>
				<g>
					<path d="M76.1,97.4v6.5h-30V85.7h29.6c0.1-0.1,0.2-0.3,0.2-0.4H45.5v19h31.2v-6.8C76.5,97.5,76.3,97.5,76.1,97.4z"/>
				</g>
			</g>
			<g>
				<g>
					<path d="M46.1,104.3H30.2v-19h15.9V104.3z M30.8,103.9h14.7V85.7H30.8V103.9z"/>
				</g>
			</g>
			<g>
				<g>
					<path d="M30.8,104.3H14.9v-19h15.9V104.3z M15.5,103.9h14.7V85.7H15.5V103.9z"/>
				</g>
			</g>
			<g>
				<g>
					<path d="M46.1,76.3h29.8c-0.1-0.1-0.2-0.3-0.2-0.4H45.5v9.7h30.2c0.1-0.1,0.2-0.3,0.2-0.4H46.1L46.1,76.3L46.1,76.3z"/>
				</g>
				<g>
					<path d="M76.7,77.1c-0.2-0.2-0.4-0.3-0.6-0.5v8.6l0,0c0.1-0.1,0.2-0.2,0.2-0.3c-0.1,0.1-0.1,0.1-0.1,0.2
						c0.2-0.2,0.3-0.4,0.5-0.5V77.1C76.7,77.1,76.7,77.1,76.7,77.1z"/>
				</g>
			</g>
			<g>
				<g>
					<path d="M75.7,76.1H46.1v-8.9h30v6.2c0.2-0.2,0.4-0.4,0.6-0.6v-5.9c-0.1,0-0.2-0.1-0.3-0.1H45.5v9.7H76c0,0,0,0-0.1-0.1
						C75.9,76.3,75.8,76.2,75.7,76.1z"/>
				</g>
			</g>
			<g>
				<g>
					<path d="M53.1,85.7h-7.6V76h7.6V85.7z M46.1,85.3h6.4v-8.9h-6.4V85.3z"/>
				</g>
			</g>
			<g>
				<g>
					<path d="M46.1,89.9H30.2v-4.6h15.9V89.9z M30.8,89.6h14.7v-3.9H30.8V89.6z"/>
				</g>
			</g>
			<g>
				<g>
					<g>
						<path d="M46.1,67.2c0.1-1,0.1-2.1,0.2-3.1c0-0.2-0.5-0.2-0.5,0c-0.1,1-0.1,2.1-0.2,3.1C45.5,67.4,46.1,67.4,46.1,67.2
							L46.1,67.2z"/>
					</g>
				</g>
			</g>
			<g>
				<g>
					<g>
						<path d="M15.6,85.3c-1.3-0.1-2.6-0.1-3.9-0.2c-0.3,0-0.3,0.3,0,0.3c1.3,0.1,2.6,0.1,3.9,0.2C15.9,85.6,15.9,85.3,15.6,85.3
							L15.6,85.3z"/>
					</g>
				</g>
			</g>
			<g>
				<g>
					<g>
						<path d="M15.6,103.8c-1.2,0-2.5,0-3.7,0.1c-0.3,0-0.3,0.3,0,0.3c1.2,0,2.5,0,3.7-0.1C15.9,104.1,15.9,103.8,15.6,103.8
							L15.6,103.8z"/>
					</g>
				</g>
			</g>
			<g>
				<g>
					<g>
						<path d="M71.2,100c-5.9,0.2-11.8,0.3-17.6,0.5c-0.6,0-0.6,0.6,0,0.6c5.9-0.2,11.8-0.3,17.6-0.5C71.8,100.7,71.8,100,71.2,100
							L71.2,100z"/>
					</g>
				</g>
			</g>
			<g>
				<g>
					<g>
						<path d="M57,99.4c-2.1,0.5-4.2,0.9-6.4,1.1c-0.5,0.1-0.5,0.5,0,0.6c2.3,0.3,4.6,0.5,6.9,0.8c0.6,0.1,0.9-0.5,0.3-0.6
							c-2.3-0.3-4.6-0.5-6.9-0.8c0,0.2,0,0.4,0,0.6c2.2-0.2,4.3-0.6,6.4-1.1C57.8,99.9,57.6,99.2,57,99.4L57,99.4z"/>
					</g>
				</g>
			</g>
			<g>
				<path d="M51.3,96c-1-0.9-1.6-1.8-1.5-2.6c0-0.8,0.6-1.5,1.7-1.9c0.8-0.3,1.7-0.5,2.7-0.4c1,0.1,1.9,0.4,2.6,0.9l-1,0.5
					c-0.5-0.3-1.1-0.5-1.8-0.6c-0.7-0.1-1.3,0-1.9,0.3c-0.8,0.3-1.1,0.8-1.1,1.4c0,0.6,0.4,1.3,1.3,2c0.8,0.7,1.7,1.2,2.6,1.4
					c0.9,0.2,1.8,0.2,2.5-0.2c0.7-0.3,1.1-0.7,1.1-1.2c0.1-0.5-0.2-1-0.9-1.6l-2.3,1l-0.8-0.7l3.4-1.4l3.4,3l-0.8,0.3l-0.9-0.5
					c0,0.4-0.1,0.8-0.4,1.1c-0.3,0.3-0.7,0.6-1.2,0.8C57.2,98,56,98,54.7,97.8C53.5,97.5,52.4,96.9,51.3,96z"/>
				<path d="M59.1,92.8c-1-0.9-1.5-1.8-1.5-2.6c0.1-0.8,0.7-1.5,1.8-2c1.1-0.5,2.4-0.6,3.7-0.3c1.3,0.3,2.5,0.9,3.5,1.8
					c1,0.9,1.5,1.8,1.4,2.6c-0.1,0.8-0.7,1.5-1.8,2c-1.1,0.5-2.4,0.6-3.7,0.4C61.2,94.3,60.1,93.7,59.1,92.8z M60.1,92.3
					c0.8,0.7,1.7,1.2,2.7,1.4c1,0.2,1.9,0.1,2.7-0.2c0.8-0.3,1.2-0.8,1.3-1.5c0-0.6-0.4-1.3-1.2-2c-0.8-0.7-1.7-1.2-2.7-1.4
					c-1-0.2-1.9-0.2-2.7,0.2c-0.8,0.4-1.2,0.9-1.3,1.5C58.9,90.9,59.3,91.6,60.1,92.3z"/>
			</g>
		</g>
		<g>
			<g>
				<path class="st0" d="M80.6,70.5c0.2,1.3,0.1,2.8,0.9,3.9c0.2,0.2-0.2,0.4-0.4,0.2c-0.9-1.2-0.8-2.7-1-4.1
					C80.1,70.2,80.5,70.2,80.6,70.5L80.6,70.5z"/>
			</g>
		</g>
		<g>
			<g>
				<path class="st0" d="M126.9,90.2c1.2-0.4,3-0.2,3.3,1.2c0.5,2.2-3.4,1.8-4.5,2c-0.1,0-0.2-0.2-0.1-0.2c1.3-0.3,2.6,0,3.8-0.6
					c1.3-0.8,0.2-2.1-0.8-2.3c-0.6-0.1-1.2-0.1-1.7,0.1C126.8,90.4,126.8,90.2,126.9,90.2L126.9,90.2z"/>
			</g>
		</g>
		<g>
			<g>
				<g>
					<path class="st0" d="M86.4,95.9c-0.4,1.2-0.2,2.7,1.3,2.9c1.5,0.2,2.2-1.7,2.5-2.8c0.4-1.3,0.6-3-0.7-3.9
						c-1.7-1.1-1.8,1.9-1.3,2.8c0.1,0.1-0.1,0.2-0.2,0.1c-0.5-0.9-0.6-3.1,0.9-3.2c0.7-0.1,1.3,0.6,1.6,1.1c0.4,0.8,0.2,1.9,0,2.8
						c-0.3,1.4-1.1,3.3-2.8,3.3c-1.7,0-1.9-2-1.5-3.2C86.2,95.7,86.4,95.8,86.4,95.9L86.4,95.9z"/>
				</g>
			</g>
			<g>
				<g>
					<path class="st0" d="M89.2,91.9c-0.6-0.4-1.2-0.7-2-0.2c-0.6,0.4-0.7,1.4-0.8,2c-0.1,0.8,0.2,1.5-0.1,2.3
						c-0.1,0.1-0.3,0.1-0.2-0.1c0.3-0.7,0.1-1.5,0.1-2.2c0.1-0.7,0.3-1.3,0.6-1.9c0.6-0.9,1.8-0.4,2.5,0
						C89.4,91.8,89.3,92,89.2,91.9L89.2,91.9z"/>
				</g>
			</g>
		</g>
		<g>
			<g>
				<path class="st0" d="M114.4,79c-0.9-1-3.1-1.7-2.2-3.3c0.8-1.6,3.3-0.6,4.5-0.1c1.2,0.5,3.6,1.5,2.9,3.2c-0.7,1.7-3.4-0.7-4-1.1
					c-0.1-0.1,0-0.3,0.1-0.2c0.7,0.5,3.6,3,3.9,0.7c0.1-1.2-2.2-2.1-3.1-2.5c-1.2-0.6-3.5-1.3-4.1,0.4c-0.4,1.1,1.7,2,2.3,2.7
					C114.7,79,114.5,79.1,114.4,79L114.4,79z"/>
			</g>
		</g>
		<g>
			<g>
				<path class="st0" d="M118.8,79.6c-1.4,1.6-3.2,0.6-4.5-0.5c-0.1-0.1,0.1-0.3,0.2-0.2c1.2,1.1,2.8,2.1,4.1,0.5
					C118.7,79.3,118.9,79.5,118.8,79.6L118.8,79.6z"/>
			</g>
		</g>
		<g>
			<g>
				<path class="st0" d="M116.9,50c1.2-0.6,2.4-1.6,2.7-2.9c0.3-1.1-0.3-2.2-1.1-3c-1-0.9-2.3-1.2-3.6-1.3c-0.9,0-1.7,0.2-2.5,0.4
					c-0.6,0.2-2.3,0.8-2.3,1.6c0,0.3-0.5,0.3-0.4,0c0.1-1.6,3.1-2.3,4.3-2.4c1.7-0.2,3.3,0.1,4.6,1.1c1.1,0.8,1.7,2.1,1.5,3.4
					c-0.2,1.6-1.6,2.7-3,3.4C116.8,50.5,116.6,50.1,116.9,50L116.9,50z"/>
			</g>
		</g>
		<g>
			<path class="st0" d="M113.1,47c-0.2-0.6,0.3-1.3,1-1.6c0.8-0.2,1.6,0.1,1.8,0.8s-0.3,1.3-1,1.6C114.1,47.9,113.3,47.6,113.1,47z"
				/>
		</g>
		<g>
			<g>
				<path class="st0" d="M105.7,43.5c-0.2-1.6-1-3.5-2.4-4.4c-0.9-0.5-2.1-0.4-2.9,0.1c-1.1,0.7-1.2,2.1-0.8,3.2
					c0.1,0.3-0.3,0.4-0.4,0.1c-0.9-2.1,0.6-4.5,3.1-4.2c2.4,0.3,3.5,3,3.8,5C106.2,43.6,105.7,43.8,105.7,43.5L105.7,43.5z"/>
			</g>
		</g>
		<g>
			<path class="st0" d="M95.9,67.1c-4.8,0-8.7-3.7-8.7-8.2s3.9-8.2,8.7-8.2c4.8,0,8.7,3.7,8.7,8.2C104.6,63.4,100.7,67.1,95.9,67.1z
				 M95.9,51c-4.7,0-8.5,3.6-8.5,7.9s3.8,7.9,8.5,7.9s8.5-3.6,8.5-7.9C104.3,54.5,100.6,51,95.9,51z"/>
		</g>
		<g>
			<path class="st0" d="M90.3,57.4c1.6,0,2.8,1.2,2.8,2.6c0,1.5-1.3,2.6-2.8,2.6c-1.6,0-2.8-1.2-2.8-2.6
				C87.5,58.6,88.7,57.4,90.3,57.4z M89.1,61.7c0.4,0,0.8-0.3,0.8-0.8s-0.4-0.8-0.8-0.8c-0.4,0-0.8,0.3-0.8,0.8
				C88.3,61.4,88.7,61.7,89.1,61.7z"/>
		</g>
		<g>
			<g>
				<path class="st0" d="M84.4,61.4c-0.1,0-0.2,0-0.3,0c0-0.1,0.1-0.1,0.1-0.2c1.5,0.4,3.6,1.6,3.7,3.4c0.1,1.9-2.5,2.2-3.8,2
					c-1-0.1-2-0.4-3-0.6c-0.8-0.2-1.9-0.1-2.7-0.5c-2.1-1,0.4-3.3,1.4-4c0.1-0.1,0.2,0.1,0.1,0.2c-0.7,0.5-1.3,1-1.8,1.7
					c-0.4,0.6-0.4,1.4,0.2,1.8c0.3,0.2,0.9,0.2,1.2,0.3c1.3,0.1,2.5,0.5,3.8,0.7c1.5,0.3,4,0.3,4.3-1.7c0.2-1.6-2.2-2.8-3.5-3.2
					c-0.1-0.1-0.1-0.2,0.1-0.2c0.1,0,0.2,0,0.3,0C84.6,61.3,84.5,61.5,84.4,61.4L84.4,61.4z"/>
			</g>
		</g>
		<g>
			<path class="st0" d="M77.7,60.6c0-1,1.6-1.8,3.6-1.8c2,0,3.6,0.8,3.6,1.8s-1.6,1.8-3.6,1.8C79.3,62.4,77.7,61.6,77.7,60.6z"/>
		</g>
		<g>
			<g>
				<path class="st0" d="M80.9,65.9c0,1.4-0.7,4.5,1.1,5.1c1.4,0.5,2.1-0.9,2.3-1.9c0.1-0.9,0-1.8-0.3-2.6c-0.1-0.1,0.2-0.2,0.2-0.1
					c0.5,1.7,0.7,5-1.9,4.9c-2.3-0.1-1.6-4.1-1.6-5.4C80.7,65.8,80.9,65.8,80.9,65.9L80.9,65.9z"/>
			</g>
		</g>
		<g>
			<g>
				<path class="st0" d="M80.9,70.4c-2.5,0.5-1.5-3.3-1.5-4.6c0-0.1,0.2-0.1,0.2,0c0,1.1-0.9,4.8,1.2,4.4C81,70.1,81,70.3,80.9,70.4
					L80.9,70.4z"/>
			</g>
		</g>
		<g>
			<path class="st0" d="M75,56.4c1.6,0,2.8,1.2,2.8,2.6c0,1.5-1.3,2.6-2.8,2.6c-1.6,0-2.8-1.2-2.8-2.6C72.2,57.6,73.4,56.4,75,56.4z
				 M73.9,60.7c0.4,0,0.8-0.3,0.8-0.8s-0.4-0.8-0.8-0.8c-0.4,0-0.8,0.3-0.8,0.8C73.1,60.4,73.4,60.7,73.9,60.7z"/>
		</g>
		<g>
			<g>
				<path class="st0" d="M79.7,70.8c0.8,2.9,1.8,5.6,3.7,8c0.3,0.4,0.9-0.2,0.5-0.5c-1.8-2.3-2.8-4.9-3.5-7.7
					C80.3,70.1,79.6,70.3,79.7,70.8L79.7,70.8z"/>
			</g>
		</g>
		<g>
			<g>
				<path class="st0" d="M79.8,59.5c0.3-6.2,4-11,9.6-13.3c5.1-2.1,10.9-4.1,16.3-2.1c0.5,0.2,0.6-0.6,0.2-0.7
					c-5.8-2.2-12.6,0-17.9,2.6c-5.4,2.6-8.6,7.6-9,13.6C79,60,79.8,60,79.8,59.5L79.8,59.5z"/>
			</g>
		</g>
		<g>
			<g>
				<path class="st0" d="M105.7,43.9c8.7,3,15.2,9.8,18,18.5c2.8,8.8,5.6,19,2.5,28c-1.7,4.9-4.5,8.4-9.6,9.9
					c-4.5,1.3-9.3,2.2-14,2.4c-4.8,0.3-9.6-0.1-14.2-1.3c-4.3-1.1-9.3-3-11.5-7.2C74,89,76.4,82.7,81.7,79.9
					c5-2.7,10.9-2.2,16.3-1.8c0.5,0,0.5-0.7,0-0.8c-8.5-0.6-21.8-0.4-23,10.8c-1.1,10.2,10.2,14.1,18.3,15.2
					c5.8,0.8,11.6,0.4,17.3-0.6c4.6-0.9,9.7-1.7,13-5.5c7.1-8.3,4.8-20,2.4-29.5c-1.4-5.6-3.1-11-6.8-15.4c-3.5-4.2-8.1-7.2-13.2-9
					C105.4,43,105.2,43.8,105.7,43.9L105.7,43.9z"/>
			</g>
		</g>
		<g>
			<g>
				<g>
					<path class="st0" d="M74.9,96.5c0.8,1,2.3,1.6,3.2,0.5c0.1-0.1,0.1-0.2,0.2-0.3c0.1,0.1,0.1,0.1,0.1,0.2
						c-0.1,0.1-0.1,0.2-0.1,0.2c-0.9,1.3-2.8,0.5-3.6-0.5C74.6,96.5,74.8,96.4,74.9,96.5z"/>
				</g>
				<g>
					<path class="st0" d="M72.6,92.2c0.3-0.6,1.2-0.8,1.8-0.7c0.3,0,0.7,0.2,1,0.3c0,0.1,0.1,0.2,0.1,0.3l0,0
						c-0.7-0.4-1.5-0.6-2.3-0.3c-1.9,0.8,0.7,2.5,1.7,2.5c0.1,0,0.1,0.2,0,0.2C73.9,94.6,71.9,93.5,72.6,92.2z"/>
				</g>
			</g>
			<g>
				<g>
					<path class="st0" d="M73,92c-0.7,0.3-1.3,0.6-1.3,1.5c0,0.7,0.8,1.3,1.3,1.7c0.6,0.5,1.4,0.7,1.9,1.3c0.1,0.1-0.1,0.2-0.2,0.1
						c-0.5-0.6-1.3-0.9-1.9-1.3c-0.5-0.4-1-0.9-1.3-1.6c-0.4-1,0.6-1.7,1.3-2C73,91.8,73.1,92,73,92L73,92z"/>
				</g>
			</g>
		</g>
		<g>
			<g>
				<path class="st0" d="M80.7,51.3c0.5,0,1,0.1,1.6,0.1c-0.1,0.1-0.1,0.2-0.2,0.2c-0.4-0.1-0.9-0.1-1.4-0.1c-4.7,0-8.5,3.6-8.5,7.9
					c0,3.9,3,7.2,7,7.8v0.3c-4.1-0.6-7.3-4-7.3-8.1C72,54.9,75.9,51.3,80.7,51.3z"/>
			</g>
		</g>
		<g>
			<g>
				<path class="st0" d="M75.6,74.6c0.2-1.8,3.5-0.2,4.2,0c0.1,0.1,0.1,0.3-0.1,0.2c-0.8-0.3-4.3-1.9-3.9,0.3
					c0.2,1.2,2.7,1.4,3.7,1.6c0.7,0.1,1.7,0.2,2.5,0c0,0,0,0.1,0.1,0.1c0,0,0.1,0.1,0.1,0.1c-0.9,0.2-2.2,0.1-2.9,0
					C78,76.7,75.4,76.4,75.6,74.6z"/>
			</g>
		</g>
		<g>
			<g>
				<path class="st0" d="M76.1,73.7c0.9-1.9,2.9-1.5,4.4-0.7l0,0c0,0.1,0,0.1,0,0.2c0,0-0.1,0.1-0.1,0c-1.5-0.7-3.3-1.2-4.1,0.6
					C76.3,74,76.1,73.9,76.1,73.7z"/>
			</g>
		</g>
		<g>
			<g>
				<path d="M76.6,77.1c0-0.3,0-0.5,0-0.8c-0.2,0-0.4,0.1-0.6,0.1c0.1,0.3,0.1,0.5,0.1,0.7c-0.1,0.4,0.6,0.4,0.6,0
					c0-0.3,0-0.6-0.1-0.9c-0.1-0.3-0.6-0.3-0.6,0.1c0,0.3,0,0.5,0,0.8C76,77.5,76.6,77.5,76.6,77.1L76.6,77.1z"/>
			</g>
		</g>
		<g>
			<g>
				<path d="M75.6,76.5c0.1,0,0.2,0,0.3,0c0.4,0,0.4-0.6,0-0.6c-0.1,0-0.2,0-0.3,0C75.2,75.9,75.2,76.5,75.6,76.5L75.6,76.5z"/>
			</g>
		</g>
		<g>
			<g>
				<path d="M76,72.7c0,0.2,0,0.3,0,0.5c0,0.4,0.6,0.4,0.6,0c0-0.2,0-0.3,0-0.5C76.6,72.3,76,72.3,76,72.7L76,72.7z"/>
			</g>
		</g>
	</g>
</g>
</svg>
