<?xml version="1.0" encoding="utf-8"?>
<!-- Generator: Adobe Illustrator 24.0.1, SVG Export Plug-In . SVG Version: 6.00 Build 0)  -->
<svg version="1.1" id="Layer_1" xmlns="http://www.w3.org/2000/svg" xmlns:xlink="http://www.w3.org/1999/xlink" x="0px" y="0px"
	 viewBox="0 0 141.7 141.7" style="enable-background:new 0 0 141.7 141.7;" xml:space="preserve">
<style type="text/css">
	.st0{fill:#070707;}
</style>
<g id="Layer_1_1_">
</g>
<g id="Layer_1_2_">
</g>
<g id="Layer_1_3_">
</g>
<g id="Layer_1_4_">
</g>
<g id="Layer_1_5_">
</g>
<g id="Layer_3">
</g>
<g id="Layer_3_1_">
</g>
<g id="Layer_1_6_">
</g>
<g id="Layer_1_7_">
</g>
<g id="Layer_1_8_">
</g>
<g id="Layer_1_9_">
</g>
<g id="Layer_1_10_">
</g>
<g id="Layer_1_11_">
</g>
<g id="Layer_1_12_">
</g>
<g id="Layer_1_13_">
</g>
<g id="Layer_1_14_">
</g>
<g id="Layer_1_15_">
</g>
<g id="Layer_1_16_">
</g>
<g id="Layer_1_17_">
</g>
<g id="Layer_1_18_">
</g>
<g id="Layer_1_19_">
</g>
<g id="Layer_1_20_">
</g>
<g id="Layer_2_1_">
</g>
<g id="Layer_1_21_">
</g>
<g id="Layer_1_22_">
</g>
<g id="Layer_1_23_">
</g>
<g id="Layer_1_24_">
</g>
<g id="Layer_1_25_">
</g>
<g id="Layer_2_2_">
	<g>
		<g>
			<g>
				<g>
					<path class="st0" d="M67.6,78.9c-0.8,0-1.6,0.4-2.5,0.2c-0.5-0.1-1-0.3-1.3-0.8c-0.6-0.9-0.1-1.7,0.6-2.1
						c1.1-0.5,2.2-0.1,3.2,0.6c0.1,0.1,0.2-0.1,0.1-0.2c-0.9-0.7-2.1-1.2-3.2-0.7c-0.6,0.3-1.5,1-1.3,1.9c0.3,1,1.1,1.4,2,1.6
						c0.5,0.1,0.9,0,1.4-0.1c0.3,0,0.6-0.1,0.9,0C67.6,79.1,67.6,79,67.6,78.9z"/>
				</g>
			</g>
		</g>
		<g>
			<g>
				<g>
					<path class="st0" d="M65.3,77.7c-0.6-0.3-1.4-0.5-1.7,0.3c0,0.1-0.3,0.1-0.2-0.1c0.3-1,1.3-0.9,2-0.5
						C65.5,77.6,65.4,77.8,65.3,77.7L65.3,77.7z"/>
				</g>
			</g>
		</g>
		<g>
			<g>
				<g>
					<path class="st0" d="M59.8,90.2c0-1.5,2.9-3,8-4.2c0-0.1,0-0.2,0-0.3c-5.2,1.2-8.3,2.8-8.3,4.5c0,1.3,1.5,2.4,4.4,3.4
						c0,0,0,0,0,0c0.1-0.1,0.2-0.2,0.3-0.4c0.1-0.1,0.1-0.2,0.2-0.3c-0.1,0.1-0.3,0.2-0.4,0.3C61.2,92.4,59.8,91.3,59.8,90.2z"/>
				</g>
			</g>
			<g>
				<g>
					<path class="st0" d="M112,85.5c0,0.1,0,0.2,0,0.3c0,0,0,0,0.1,0c5.6,1.2,8.9,2.8,8.9,4.4c0,1.1-1.4,2.1-4,3
						c-0.1-0.1-0.2-0.3-0.3-0.4c0.1,0.1,0.2,0.2,0.3,0.4c0.1,0.1,0.1,0.2,0.1,0.3c2.8-1,4.2-2.2,4.2-3.4
						C121.3,88.4,117.8,86.7,112,85.5z"/>
				</g>
			</g>
			<g>
				<g>
					<path class="st0" d="M112.3,94.6c-5.8,1.2-13.7,1.9-21.9,1.9c-8.4,0-16.2-0.7-22.1-2c0-0.1,0-0.2,0-0.4
						c-0.1,0.2-0.2,0.3-0.3,0.5c0,0-0.1,0.1-0.1,0.1l0.1,0c5.9,1.3,13.8,2,22.3,2c8.4,0,16.4-0.7,22.2-2
						C112.4,94.8,112.4,94.7,112.3,94.6z"/>
				</g>
			</g>
		</g>
		<g>
			<g>
				<g>
					<path class="st0" d="M108.8,63.7c-2.1-3.8-5.8-6.2-9.9-7.4c-2.6-0.7-5.2-0.8-7.8-0.6c-2.8,0.2-5.6,0.5-8.4,0.8
						c-4.3,0.5-8.3,2.7-11,6.1c-2.8,3.6-3.9,8.3-4.3,12.8C66.9,81.8,68,88.2,68,94.6c0,0.3,0.4,0.3,0.4,0c0-5.3-0.8-10.6-0.8-15.9
						c0-4.6,0.6-9.4,2.8-13.5c2.2-4,5.9-6.8,10.3-7.8c2.5-0.6,5.1-0.7,7.6-0.9c2.5-0.2,4.9-0.5,7.4-0.2c5,0.6,10.1,3.2,12.6,7.7
						C108.5,64.1,108.9,63.9,108.8,63.7L108.8,63.7z"/>
				</g>
			</g>
		</g>
		<g>
			<g>
				<g>
					<path class="st0" d="M82.3,57c0.3,0,0.3-0.4,0-0.4C82,56.6,82,57,82.3,57L82.3,57z"/>
				</g>
			</g>
		</g>
		<g>
			<g>
				<g>
					<path class="st0" d="M68.3,69.4c-1.5-0.1-3.1-0.9-3.8-2.4c-0.7-1.5-0.5-3.2,0.5-4.5c0.9-1.2,2.2-1.9,3.6-2.2
						c1.4-0.2,3.3-0.2,4.2,1c0.2,0.2,0.5-0.1,0.3-0.3c-1-1.2-2.9-1.3-4.4-1.1c-1.7,0.2-3.3,1.2-4.3,2.7c-0.9,1.4-1.1,3.2-0.3,4.7
						c0.8,1.6,2.5,2.5,4.2,2.6C68.6,69.8,68.6,69.4,68.3,69.4L68.3,69.4z"/>
				</g>
			</g>
		</g>
		<g>
			<g>
				<g>
					<path class="st0" d="M105.7,60.2c2.4-1.3,6.3-1.9,7.9,0.8c1.7,2.6,0.7,6.8-2.7,7.4c-0.3,0-0.1,0.5,0.1,0.4
						c3.6-0.6,4.7-5,3.1-7.8c-1.7-3.1-6-2.5-8.6-1.1C105.2,59.9,105.4,60.3,105.7,60.2L105.7,60.2z"/>
				</g>
			</g>
		</g>
		<g>
			<g>
				<g>
					<path class="st0" d="M86.7,73.3c0.1,0,0.1,0,0.2,0c0,0,0-0.1-0.1-0.2c-0.1,0.1-0.4,0.1-0.6,0.1c-0.3,0.1-0.7,0.4-1,0.7
						c-0.6,0.5-1.2,1-1.4,1.7c-0.6,1.6,1.4,2.5,2.7,2.4c1.1-0.1,2.2-0.6,3.3-0.7c1.1-0.1,2,0.3,3,0.5c1.3,0.3,2.7-0.4,2.5-2
						c-0.2-1.7-2.4-2.6-3.8-3.1c-0.1,0-0.2,0.1,0,0.2c1.4,0.5,4.1,1.7,3.6,3.6c-0.4,1.4-1.7,1.2-2.8,0.9c-0.8-0.2-1.5-0.4-2.3-0.4
						c-1,0.1-1.9,0.5-2.9,0.7c-1.1,0.2-3.3-0.2-3.1-1.7c0.1-0.9,1.1-1.7,1.8-2.2c0.2-0.2,0.5-0.3,0.8-0.4c0.1,0,0.4,0,0.5-0.2
						c0-0.1,0-0.2-0.1-0.2c-0.1,0-0.2,0-0.3,0C86.5,73.1,86.6,73.3,86.7,73.3L86.7,73.3z"/>
				</g>
			</g>
		</g>
		<g>
			<g>
				<g>
					<path class="st0" d="M92.2,77.7c0.4,1,0.6,2.3,0.2,3.3c-0.3,0.8-1.3,1.3-2,0.7c-0.3-0.2-0.4-0.6-0.6-1c0-0.1-0.2,0-0.2,0.1
						c0.2,0.4,0.4,1,0.8,1.2c0.5,0.2,1.2,0.1,1.6-0.2c1.3-0.8,0.9-3,0.4-4.2C92.4,77.5,92.2,77.6,92.2,77.7L92.2,77.7z"/>
				</g>
			</g>
		</g>
		<g>
			<g>
				<g>
					<path class="st0" d="M112.1,91.7c0.5,0.2,1.2,0,1.8,0.1c1.2,0.2,2.4,0.9,2.9,2c0.6,1.3,0,2.8-1.6,2.5c-1.2-0.2-2-1-2.9-1.8
						c-0.1-0.1-0.2,0-0.1,0.1c0.9,0.9,1.9,1.8,3.3,1.9c1,0.1,1.7-0.4,1.8-1.4c0.1-1.1-0.5-2.2-1.4-2.8c-0.6-0.4-1.3-0.7-2-0.8
						c-0.5-0.1-1.2,0.1-1.6,0C112.1,91.4,112,91.6,112.1,91.7L112.1,91.7z"/>
				</g>
			</g>
		</g>
		<g>
			<g>
				<g>
					<path class="st0" d="M114.6,94.5c0.8,0.2,1.7,0.9,1.3,1.8c-0.1,0.1,0.1,0.2,0.2,0.1c0.5-1.1-0.5-1.8-1.4-2.1
						C114.5,94.2,114.5,94.4,114.6,94.5L114.6,94.5z"/>
				</g>
			</g>
		</g>
		<g>
			<g>
				<path class="st0" d="M98.1,73.1c-3.9,0-7-3.1-7-7s3.1-7,7-7s7,3.1,7,7S101.9,73.1,98.1,73.1z M98.1,59.4c-3.7,0-6.7,3-6.7,6.7
					c0,3.7,3,6.7,6.7,6.7c3.7,0,6.7-3,6.7-6.7C104.8,62.4,101.8,59.4,98.1,59.4z"/>
			</g>
		</g>
		<g>
			<g>
				<path class="st0" d="M80.8,73.9c-3.9,0-7-3.1-7-7s3.1-7,7-7s7,3.1,7,7S84.6,73.9,80.8,73.9z M80.8,60.2c-3.7,0-6.7,3-6.7,6.7
					c0,3.7,3,6.7,6.7,6.7c3.7,0,6.7-3,6.7-6.7C87.5,63.2,84.5,60.2,80.8,60.2z"/>
			</g>
		</g>
		<g>
			<g>
				<path class="st0" d="M111.2,63.5c0-0.8-0.7-1.4-1.4-1.4c-0.8,0-1.4,0.7-1.4,1.4c0,0.8,0.6,1.4,1.4,1.4
					C110.5,64.9,111.2,64.2,111.2,63.5z"/>
			</g>
		</g>
		<g>
			<g>
				<circle class="st0" cx="69" cy="64.8" r="1.4"/>
			</g>
		</g>
		<g>
			<g>
				<path class="st0" d="M92.5,72.5c0-0.9-1.4-1.7-3.1-1.7c-1.7,0-3.1,0.8-3.1,1.7c0,0.9,1.4,1.7,3.1,1.7
					C91.2,74.2,92.5,73.4,92.5,72.5z"/>
			</g>
		</g>
		<g>
			<g>
				<path class="st0" d="M95.8,66.2c0,1.3,1,2.2,2.2,2.2s2.2-1,2.2-2.2c0-1.3-1-2.2-2.2-2.2C96.8,63.9,95.8,64.9,95.8,66.2z
					 M99.5,65.3c0,0.3-0.3,0.6-0.6,0.6s-0.6-0.3-0.6-0.6s0.3-0.6,0.6-0.6C99.2,64.7,99.5,64.9,99.5,65.3z"/>
			</g>
		</g>
		<g>
			<g>
				<path class="st0" d="M78.8,66.9c0,1.3,1,2.2,2.2,2.2c1.3,0,2.2-1,2.2-2.2c0-1.3-1-2.2-2.2-2.2C79.8,64.7,78.8,65.7,78.8,66.9z
					 M82.4,66c0,0.3-0.3,0.6-0.6,0.6s-0.6-0.3-0.6-0.6s0.3-0.6,0.6-0.6C82.1,65.3,82.4,65.6,82.4,66z"/>
			</g>
		</g>
		<g>
			<g>
				<g>
					<path class="st0" d="M89.6,77.2c0.2,0.9,0.1,2,0,2.9c0,0.5-0.2,1.2-0.6,1.5c-0.5,0.4-1.3,0.4-1.7,0c-0.9-0.9-0.7-2.8-0.3-3.9
						c0-0.1-0.2-0.2-0.2,0c-0.4,1.3-0.7,3.9,1,4.4c0.8,0.2,1.5-0.2,1.8-1c0.3-0.6,0.3-1.4,0.3-2.1c0-0.7,0-1.3-0.1-2
						C89.8,77,89.6,77.1,89.6,77.2L89.6,77.2z"/>
				</g>
			</g>
		</g>
		<g>
			<g>
				<g>
					<path class="st0" d="M68.1,91.9c-1.5-0.3-3.2,0.4-4.3,1.5c-0.1,0.1-0.1,0.2-0.2,0.2c0,0,0.1,0,0.1,0.1c0,0,0,0,0.1,0
						c0.3-0.3,0.6-0.5,0.8-0.7c1-0.7,2.2-1.2,3.4-0.9C68.2,92.1,68.3,91.9,68.1,91.9z"/>
				</g>
			</g>
		</g>
		<g>
			<g>
				<g>
					<path class="st0" d="M108.1,63.2c3.3,4.1,3.3,9.6,3.4,14.6c0.2,5.6,0.1,11.2,0.3,16.8c0,0.3,0.4,0.3,0.4,0
						c-0.3-5.9-0.1-11.9-0.4-17.8c-0.2-4.8-0.4-9.9-3.5-13.9C108.2,62.6,107.9,63,108.1,63.2L108.1,63.2z"/>
				</g>
			</g>
		</g>
		<g>
			<g>
				<g>
					<path class="st0" d="M121.5,90.3c-0.1-2.4-1.1-4.7-2.8-6.4c0,0-0.1,0.1-0.1,0.2c2.1,1.2,2.4,4,4.1,5.6c0.1,0,0.2,0,0.2-0.1
						c-0.1-1,0.2-1.9,0.8-2.6c-0.1,0-0.1,0-0.2,0c0,0.7,0,1.5,0,2.2c0,0.1,0.1,0.1,0.1,0.1c0.3-0.1,0.6-0.3,0.8-0.5
						c0,0-0.1-0.1-0.2-0.1c-0.1,0.3-0.2,0.6-0.3,0.9c0,0.1,0,0.2,0.1,0.1c0.5-0.2,1-0.5,1.5-0.8c0,0-0.1-0.1-0.1-0.1
						c-0.2,0.4-0.4,0.9-0.6,1.4c0,0,0,0.1,0.1,0.1c0.9,0.3,0.2,1.2,0,1.5c0,0.1,0,0.1,0.1,0.2c1.8,0.2,3.7,0.3,5.5,0.3
						c0.1,0,0.1-0.2,0-0.2c-0.9,0-1.8,0-2.7-0.1c-0.5,0-1-0.1-1.4-0.1c-0.3,0-1,0-1-0.3c0-0.4,0.4-0.6,0.1-1.1
						c-0.1-0.1-0.2-0.2-0.3-0.3c-0.1-0.3,0.2-0.9,0.4-1.3c0-0.1,0-0.2-0.1-0.1c-0.2,0.2-0.5,0.4-0.8,0.5c-0.6,0.2-0.3-0.1-0.2-0.5
						c0-0.1-0.1-0.2-0.2-0.1c-0.6,0.6-0.6,0.2-0.6-0.3c0-0.4,0-0.8,0-1.3c0-0.1-0.1-0.1-0.2,0c-0.6,0.8-0.9,1.7-0.8,2.8
						c0,0,0.1,0,0.2-0.1c-1.7-1.6-2-4.4-4.2-5.6c-0.1-0.1-0.2,0.1-0.1,0.2c1.7,1.7,2.6,3.9,2.7,6.3
						C121.3,90.5,121.5,90.5,121.5,90.3L121.5,90.3z"/>
				</g>
			</g>
		</g>
		<g>
			<g>
				<g>
					<path class="st0" d="M73.2,98.7c-2.2-0.7-4.4-0.4-6.4,0.7c-0.1,0-0.1,0.1,0,0.2c1,0.5,2,0.8,3.1,0.9c1,0.1,2.3,0.3,3.3,0.1
						c0.5-0.1,1.1-0.5,1.1-1.1c0-0.5-0.5-0.8-1-0.7c-0.1,0-0.1,0.2,0,0.2c0.6,0.8,0.5,1.3-0.1,1.3c-0.2,0.1-0.3,0.1-0.5,0.1
						c-0.2,0-0.5,0-0.8,0c-0.5,0-1,0-1.5-0.1c-0.6,0-1.2-0.1-1.7-0.3c-0.2,0-1.6-0.4-1.6-0.6c0-0.5,2.2-0.9,2.6-0.9
						c1.1-0.1,2.2,0,3.3,0.3C73.3,98.9,73.3,98.8,73.2,98.7L73.2,98.7z"/>
				</g>
			</g>
		</g>
		<g>
			<g>
				<g>
					<path class="st0" d="M74.6,101.5c-0.6-0.3-1.3-0.3-1.8,0.2c0,0,0,0.1,0,0.2c0.7,0.4,1.4,0.4,2.1,0.1c0,0,0.1-0.1,0-0.1
						c-0.1-0.3-0.3-0.4-0.6-0.5c-0.1,0-0.2,0.2,0,0.2c0.2,0.1,0.4,0.2,0.5,0.4c0,0,0-0.1,0-0.1c-0.6,0.3-1.3,0.3-1.9-0.1
						c0,0,0,0.1,0,0.2c0.4-0.4,1-0.4,1.5-0.1C74.6,101.8,74.7,101.6,74.6,101.5L74.6,101.5z"/>
				</g>
			</g>
		</g>
		<g>
			<g>
				<g>
					<path class="st0" d="M92.3,102.9c-0.5-0.6-1-1.3-1.5-1.9c0,0-0.1,0.1-0.1,0.1c0.6,0.5,1.2,1,1.7,1.4c0,0,0.1,0,0.1-0.1
						c0.1-0.4,0.3-0.8,0.4-1.2c-0.1,0-0.1,0-0.2,0c0.2,0.6,1,0.8,1.5,0.4c0,0-0.1,0-0.2-0.1c0,0.7,0.5,0.9,1.1,0.9
						c0.3,0,0.1-0.1,0.3,0c0,0,0.4,0.2,0.4,0.3c0.5,0.2,1.2,0.1,1.7,0.2c3.2,0.1,6.5,0,9.7-0.5c0.1,0,0.1-0.2,0-0.2
						c-1.9,0.3-3.9,0.4-5.8,0.5c-0.9,0-1.8,0-2.7,0c-0.8,0-2.7,0.2-3.2-0.6c0,0-0.1-0.1-0.1,0c-0.5,0.3-0.9,0.1-1.1-0.5
						c0-0.1-0.1-0.1-0.2-0.1c-0.4,0.3-0.8,0.2-1.1-0.3c0-0.1-0.2-0.1-0.2,0c-0.1,0.2-0.1,0.4-0.2,0.6c-0.2,0.4-0.1,0.4-0.5,0.1
						c-0.4-0.2-0.8-0.7-1.2-1c-0.1-0.1-0.2,0-0.1,0.1C91.2,101.7,91.7,102.4,92.3,102.9C92.2,103.1,92.4,103,92.3,102.9L92.3,102.9z
						"/>
				</g>
			</g>
		</g>
		<g>
			<g>
				<g>
					<path class="st0" d="M88.3,101.7c-0.2,0.6-0.5,1.2-0.9,1.8c0.1,0,0.1,0,0.2,0c-0.1-0.4-0.2-0.8-0.4-1.2c0,0-0.1-0.1-0.2,0
						c-0.3,0.3-0.4,0.7-0.3,1.1c0,0,0.1-0.1,0.2-0.1c-0.2-0.2-0.4-0.3-0.6-0.4c-0.1,0-0.1,0-0.1,0.1c-0.3,0.8-1.8,0.6-2.5,0.6
						c-1.1,0-2.1,0-3.2,0c-0.1,0-0.1,0.2,0,0.2c1.9,0.1,3.8,0,5.7-0.1c0,0,0.1,0,0.1-0.1c0-0.4,0.2-0.4,0.5,0c0.1,0.1,0.2,0,0.2-0.1
						c0.1-0.8,0.2-0.9,0.4-0.3c0,0.1,0.1,0.3,0.1,0.5c0,0.1,0.1,0.1,0.2,0c0.4-0.6,0.6-1.2,0.9-1.8
						C88.5,101.6,88.3,101.6,88.3,101.7L88.3,101.7z"/>
				</g>
			</g>
		</g>
		<g>
			<g>
				<g>
					<path class="st0" d="M89.3,103.6c0.1-1.1,0.1-2.2-0.1-3.3c0-0.1-0.2-0.1-0.2,0c0.2,1.1,0.2,2.2,0.1,3.2
						C89.1,103.7,89.3,103.7,89.3,103.6L89.3,103.6z"/>
				</g>
			</g>
		</g>
		<g>
			<g>
				<g>
					<path class="st0" d="M89.4,103.9c0.1-0.6,0.2-1.2,0.3-1.8c0-0.1-0.2-0.2-0.2,0c-0.1,0.6-0.2,1.2-0.3,1.8
						C89.2,104,89.4,104,89.4,103.9L89.4,103.9z"/>
				</g>
			</g>
		</g>
		<g>
			<g>
				<path class="st0" d="M63.6,93.5c0,0,1.8-2.1,4.4-1.7l-0.3-5.9l-2.4,0.8l-1.7,0.5l-1.8,0.8l-1.4,0.5l-0.7,0.8l-0.1,1.1v0.7
					l0.6,0.5l0.8,0.6L63.6,93.5z"/>
			</g>
		</g>
		<g>
			<g>
				<g>
					<path class="st0" d="M62.1,88.2L62.1,88.2c-0.2,0-0.5,0.2-0.4,0.4v0c0,0.3,0.3,0.5,0.6,0.4c0.2-0.1,0.3-0.3,0.6-0.4
						c0.4-0.2,0.1-0.9-0.3-0.8c-0.2,0-0.3,0.1-0.6,0.2c-0.4,0.2-0.1,0.9,0.3,0.8c0.1,0,0.2,0,0.3-0.1c-0.1-0.3-0.1-0.5-0.2-0.8
						c-0.1,0-0.1,0-0.2,0.1c0.1,0.3,0.2,0.5,0.3,0.8c1.1-0.7,2.4-1,3.6-1.3c-0.1-0.3-0.1-0.5-0.2-0.8c-0.7,0.2-1.3,0.5-1.9,0.9
						c-0.4,0.3,0,1.1,0.4,0.7c0.5-0.4,1.1-0.6,1.7-0.8c0.5-0.1,0.3-1-0.2-0.8c-1.3,0.3-2.6,0.7-3.9,1.4c-0.4,0.2-0.1,1,0.3,0.8
						c0.1,0,0.1,0,0.2-0.1c0.5-0.2,0.3-1-0.2-0.8c-0.1,0-0.2,0-0.3,0.1c0.1,0.3,0.2,0.5,0.3,0.8c0.1,0,0.2-0.1,0.3-0.1
						c-0.1-0.3-0.2-0.5-0.3-0.8c-0.2,0.1-0.4,0.3-0.6,0.4c0.2,0.1,0.4,0.2,0.6,0.4v0c-0.1,0.1-0.3,0.3-0.4,0.4h0
						C62.6,89.1,62.6,88.2,62.1,88.2L62.1,88.2z"/>
				</g>
			</g>
		</g>
		<g>
			<g>
				<g>
					<path class="st0" d="M62.4,89.2c0.3-0.1,0.5-0.2,0.8-0.3c0.4-0.2,0.1-0.9-0.3-0.8c-0.2,0.1-0.5,0.1-0.7,0.2
						c0.1,0.3,0.2,0.5,0.3,0.8c0.2-0.1,0.4-0.2,0.6-0.4c0.4-0.3,0.1-0.9-0.3-0.8c-0.1,0-0.3,0-0.4,0c0.1,0.3,0.1,0.5,0.2,0.8
						c0.2-0.2,0.5-0.3,0.7-0.4c0.5-0.2,0.3-1-0.2-0.8c-0.3,0.1-0.6,0.2-0.8,0.2c0.1,0.3,0.2,0.5,0.3,0.8c0.1-0.1,0.3-0.2,0.5-0.2
						c-0.1-0.3-0.1-0.5-0.2-0.8c-0.1,0.1-0.3,0.1-0.5,0.1c0.1,0.3,0.2,0.5,0.3,0.8c1-0.5,2.1-0.6,3.1-1c0.4-0.2,0.1-0.9-0.3-0.8
						C65,86.8,64.5,86.9,64,87c0.1,0.3,0.1,0.5,0.2,0.8c0.5-0.2,1.1-0.4,1.6-0.5c0.5-0.1,0.3-0.9-0.2-0.8c-0.5,0.1-1.1,0.3-1.6,0.5
						c-0.5,0.2-0.3,1,0.2,0.8c0.5-0.1,0.9-0.3,1.4-0.4c-0.1-0.3-0.2-0.5-0.3-0.8c-0.5,0.2-1.1,0.3-1.7,0.4c-0.5,0.1-1,0.3-1.4,0.6
						c-0.4,0.2-0.1,0.9,0.3,0.8c0.1,0,0.3-0.1,0.5-0.1c0.5-0.2,0.3-1-0.2-0.8c-0.2,0.1-0.5,0.2-0.7,0.3c-0.4,0.2-0.1,0.9,0.3,0.8
						c0.3-0.1,0.6-0.2,0.8-0.2c-0.1-0.3-0.1-0.5-0.2-0.8c-0.3,0.1-0.6,0.3-0.9,0.5c-0.3,0.2-0.2,0.9,0.2,0.8c0.2,0,0.4,0,0.6-0.1
						c-0.1-0.3-0.2-0.5-0.3-0.8c-0.2,0.1-0.4,0.2-0.6,0.4c-0.4,0.2-0.1,0.9,0.3,0.8c0.2-0.1,0.5-0.1,0.7-0.2
						c-0.1-0.3-0.2-0.5-0.3-0.8c-0.3,0.1-0.5,0.2-0.8,0.3C61.5,88.7,61.9,89.4,62.4,89.2L62.4,89.2z"/>
				</g>
			</g>
		</g>
		<g>
			<g>
				<g>
					<path class="st0" d="M64,92.6c0.2-0.1,0.4-0.2,0.7-0.3c-0.2-0.2-0.3-0.4-0.5-0.7c-0.2,0.2-0.3,0.4-0.5,0.6
						c-0.3,0.3,0,0.8,0.4,0.7c0.2,0,0.2-0.1,0.4-0.1c-0.2-0.2-0.3-0.4-0.5-0.7c-0.1,0.1-0.2,0.2-0.4,0.4c-0.3,0.4,0.2,0.8,0.6,0.6
						c0,0,0.1,0,0.1-0.1c-0.2-0.2-0.4-0.4-0.6-0.6c0,0-0.1,0.1-0.1,0.1c-0.4,0.3,0.1,1,0.5,0.7c0,0,0.1-0.1,0.2-0.1
						c-0.2-0.2-0.4-0.4-0.6-0.6c0,0,0,0,0.1-0.1c0.1,0.2,0.3,0.5,0.4,0.7c0.5-0.5,1.1-0.8,1.7-1.2c-0.1-0.2-0.3-0.5-0.4-0.7
						c-0.4,0.2-0.7,0.5-1.1,0.7c-0.5,0.3-0.1,1,0.4,0.7c0.5-0.2,1-0.5,1.5-0.8c0.5-0.3,0-1-0.4-0.7c-0.3,0.2-0.6,0.3-1,0.5
						c-0.5,0.3,0,1,0.4,0.7c0.6-0.2,1.1-0.5,1.7-0.7c-0.1-0.3-0.1-0.5-0.2-0.8c-0.3,0.1-0.7,0.3-1.1,0.4c-0.4,0.2-0.4,0.8,0.1,0.8
						c0.7,0,1.3-0.4,2-0.3c0-0.3,0-0.5,0-0.8c-0.1,0-0.1,0-0.2,0c-0.4,0.1-0.4,0.7,0,0.8c0.2,0.1,0.3,0,0.5,0c0.5-0.2,0.1-1-0.4-0.7
						c0,0,0.1,0,0.1,0c0,0.3,0,0.5,0,0.8c0.1,0,0.1,0,0.2,0c0.4-0.1,0.4-0.8,0-0.8c-0.8-0.1-1.4,0.3-2.2,0.3c0,0.3,0.1,0.6,0.1,0.8
						c0.3-0.1,0.7-0.3,1.1-0.4c0.5-0.2,0.3-1-0.2-0.8c-0.6,0.2-1.3,0.5-1.9,0.8c0.1,0.2,0.3,0.5,0.4,0.7c0.3-0.2,0.6-0.3,1-0.5
						c-0.1-0.2-0.3-0.5-0.4-0.7c-0.5,0.3-1,0.6-1.5,0.8c0.1,0.2,0.3,0.5,0.4,0.7c0.4-0.2,0.7-0.5,1.1-0.7c0.5-0.3,0-1-0.4-0.7
						c-0.7,0.4-1.3,0.8-1.9,1.3c-0.3,0.3,0,0.8,0.4,0.7c0.2,0,0.3-0.1,0.4-0.3c0.2-0.3-0.2-0.8-0.6-0.6c0,0-0.1,0.1-0.2,0.1
						c0.2,0.2,0.3,0.4,0.5,0.7c0.1-0.1,0.2-0.2,0.3-0.3c0.2-0.4-0.2-0.8-0.6-0.6c0,0-0.1,0-0.1,0.1c0.2,0.2,0.4,0.4,0.6,0.6
						c0.1-0.1,0.1-0.2,0.2-0.2c0.4-0.3-0.1-0.9-0.5-0.7c-0.1,0-0.1,0-0.2,0c0.1,0.2,0.3,0.5,0.4,0.7c0.2-0.2,0.3-0.4,0.5-0.6
						c0.4-0.3-0.1-0.9-0.5-0.7c-0.2,0.1-0.4,0.2-0.7,0.3C63,92.2,63.5,92.9,64,92.6L64,92.6z"/>
				</g>
			</g>
		</g>
		<g>
			<g>
				<g>
					<path class="st0" d="M67.8,91.3c0,0.1,0,0.2,0,0.3c0,0-0.1,0.1-0.1,0.1c0,0,0,0,0,0c0.1-0.1,0.2-0.1,0.2-0.2
						C67.9,91.4,67.9,91.3,67.8,91.3c-0.1-0.2-0.4-0.4-0.6-0.2c-0.1,0.1-0.2,0.2-0.2,0.3c0,0.1,0,0.3,0,0.4c0.1,0.1,0.1,0.2,0.2,0.2
						s0.2,0,0.3,0C67.8,91.8,67.9,91.5,67.8,91.3L67.8,91.3z"/>
				</g>
			</g>
		</g>
		<g>
			<g>
				<path class="st0" d="M116.8,93.6l1-0.3l1.3-0.6l0.9-0.7l0.7-0.7l0.5-0.5v-0.9l-0.5-1l-2.4-1.2l-2-0.8c0,0-2.5-0.7-2.6-0.7
					c-0.1,0-1.7-0.4-1.7-0.4l0.1,5.7C112.1,91.6,115.5,91.2,116.8,93.6z"/>
			</g>
		</g>
		<g>
			<g>
				<g>
					<path class="st0" d="M112.9,86.3c-0.1-0.1-0.2-0.2-0.3-0.3c0,0-0.1,0.1-0.1,0.2C112.6,86.3,112.8,86.3,112.9,86.3
						c0.1,0,0.1-0.1,0.1-0.1c-0.2,0-0.4-0.1-0.6-0.3c0,0.1,0,0.1-0.1,0.2c0.4,0.1,0.8,0.2,1.2,0.2c0-0.1,0-0.1,0-0.2
						c-0.3,0-0.6-0.1-0.9-0.2c-0.1,0-0.2,0.2,0,0.2c1.4,0.5,2.8,0.5,4.2,1.2c1.2,0.5,2.8,1.1,3.6,2.1c0,0,0.1-0.1,0.2-0.1
						c-1.1-0.9-2.4-1.6-3.8-2.1c0,0.1,0,0.1,0,0.2c0.7,0.1,1.3,0.3,1.9,0.6c0.1,0,0.2-0.1,0.1-0.2c-0.3-0.2-0.7-0.3-1.1-0.5
						c-0.1,0-0.2,0.1-0.1,0.2c0.4,0.3,0.7,0.6,1,0.9c0.1,0.1,0.2,0,0.1-0.1c-0.3-0.4-0.7-0.7-1.1-1c0,0.1-0.1,0.1-0.1,0.2
						c0.3,0.2,0.7,0.3,1.1,0.5c0-0.1,0.1-0.1,0.1-0.2c-0.6-0.3-1.3-0.5-2-0.6c-0.1,0-0.2,0.2,0,0.2c1.3,0.5,2.6,1.2,3.7,2.1
						c0.1,0.1,0.2,0,0.2-0.1c-0.8-1.1-2.3-1.6-3.4-2.1c-1.4-0.7-3-0.8-4.5-1.3c0,0.1,0,0.1,0,0.2c0.3,0.1,0.6,0.2,1,0.2
						c0.1,0,0.1-0.2,0-0.2c-0.4-0.1-0.8-0.2-1.2-0.2c-0.1,0-0.2,0.1-0.1,0.2c0.2,0.1,0.4,0.2,0.7,0.3c0.1,0,0.2-0.1,0.1-0.2
						c-0.3-0.1-0.2-0.1-0.5-0.2c-0.1,0-0.2,0.1-0.1,0.2C112.6,86.2,112.7,86.3,112.9,86.3C112.8,86.6,112.9,86.4,112.9,86.3
						L112.9,86.3z"/>
				</g>
			</g>
		</g>
		<g>
			<g>
				<g>
					<path class="st0" d="M121,90.6c0.1,0,0.2-0.1,0.3-0.1c0-0.1-0.1-0.1-0.1-0.2c0,0,0,0-0.1,0c-0.1,0.1,0,0.2,0.1,0.2
						c0,0,0,0,0.1,0c0.1-0.1,0-0.2-0.1-0.2c-0.1,0-0.2,0.1-0.3,0.1C120.8,90.4,120.9,90.6,121,90.6L121,90.6z"/>
				</g>
			</g>
		</g>
		<g>
			<polygon class="st0" points="63.9,93.6 68.4,94.6 68.1,91.9 64,92.6 63.1,93.2 			"/>
		</g>
		<g>
			<g>
				<path class="st0" d="M68.2,94.4c-3.2-0.8-6.4-1-9.6-0.6c-0.1,0-0.1,0.2,0,0.2c2,0.9,2.3,1.3,0.9,1.1c-0.6,0-1.1,0-1.7,0
					c-0.9,0-1.7,0-2.6,0.1c-1.7,0.1-3.4,0.3-5.1,0.6c-0.1,0-0.1,0.2,0,0.2c3.6-0.6,7.3-0.8,10.9-0.6c0.1,0,0.1-0.1,0.1-0.2
					c-0.3-0.4-0.6-0.8-1.1-1.1c-0.6-0.3-1.3-0.2-0.3-0.3c2.8-0.3,5.7,0,8.4,0.7C68.3,94.7,68.3,94.5,68.2,94.4L68.2,94.4z"/>
			</g>
		</g>
		<g>
			<g>
				<g>
					<path d="M43.1,89.9V63.8h21.1c0-0.2,0-0.4,0.1-0.5H42.5v27.1h20.1c0-0.2-0.1-0.3-0.1-0.5L43.1,89.9L43.1,89.9z"/>
				</g>
			</g>
			<g>
				<g>
					<path d="M43.1,90.4H28.8V63.3h14.2V90.4z M29.4,89.9h13.1V63.8H29.4V89.9z"/>
				</g>
			</g>
			<g>
				<g>
					<path d="M29.4,90.4H15.1V63.3h14.2V90.4z M15.7,89.9h13.1V63.8H15.7V89.9z"/>
				</g>
			</g>
			<g>
				<g>
					<path d="M43.1,50.5h26.8v9c0.1,0,0.2,0,0.3,0c0.1,0,0.2,0,0.3,0V50H42.5v13.8h21.6c0-0.2,0-0.4,0.1-0.5H43.1L43.1,50.5
						L43.1,50.5z"/>
				</g>
			</g>
			<g>
				<g>
					<path d="M70.4,50.7H42.5V36.9h27.9L70.4,50.7L70.4,50.7z M43.1,50.2h26.8V37.4H43.1V50.2z"/>
				</g>
			</g>
			<g>
				<g>
					<path d="M49.3,63.8h-6.8V50h6.8V63.8z M43.1,63.3h5.7V50.5h-5.7V63.3z"/>
				</g>
			</g>
			<g>
				<g>
					<path d="M43.1,69.9H28.8v-6.6h14.2V69.9z M29.4,69.4h13.1v-5.5H29.4V69.4z"/>
				</g>
			</g>
			<g>
				<g>
					<g>
						<path d="M43,37.5c0-1.5,0.1-3,0.1-4.5c0-0.3-0.4-0.3-0.5,0c0,1.5-0.1,3-0.1,4.5C42.5,37.8,43,37.8,43,37.5L43,37.5z"/>
					</g>
				</g>
			</g>
			<g>
				<g>
					<g>
						<path d="M70.3,37.5c0-1.1,0-2.1,0-3.2c0-0.3-0.5-0.3-0.5,0c0,1.1,0,2.1,0,3.2C69.8,37.8,70.3,37.8,70.3,37.5L70.3,37.5z"/>
					</g>
				</g>
			</g>
			<g>
				<g>
					<g>
						<path d="M15.8,63.3c-1.2-0.1-2.3-0.2-3.5-0.3c-0.3,0-0.3,0.4,0,0.4c1.2,0.1,2.3,0.2,3.5,0.3C16.1,63.7,16.1,63.3,15.8,63.3
							L15.8,63.3z"/>
					</g>
				</g>
			</g>
			<g>
				<g>
					<g>
						<path d="M15.8,89.8c-1.1,0-2.2,0-3.3,0c-0.3,0-0.3,0.4,0,0.4c1.1,0,2.2,0,3.3,0C16.1,90.2,16.1,89.8,15.8,89.8L15.8,89.8z"/>
					</g>
				</g>
			</g>
			<g>
				<g>
					<g>
						<path d="M65.5,84.4c-5.2,0.2-10.5,0.5-15.7,0.7c-0.6,0-0.6,0.9,0,0.9c5.2-0.2,10.5-0.5,15.7-0.7C66,85.2,66.1,84.4,65.5,84.4
							L65.5,84.4z"/>
					</g>
				</g>
			</g>
			<g>
				<g>
					<g>
						<path d="M52.8,83.4C50.9,84.2,49,84.7,47,85c-0.4,0.1-0.4,0.8,0,0.9c2.1,0.4,4.1,0.8,6.2,1.1c0.6,0.1,0.8-0.8,0.2-0.9
							c-2.1-0.4-4.1-0.8-6.2-1.1c0,0.3,0,0.6,0,0.9c2-0.3,3.9-0.8,5.7-1.5C53.5,84.1,53.3,83.2,52.8,83.4L52.8,83.4z"/>
					</g>
				</g>
			</g>
			<g>
				<path d="M47.7,78.7c-0.9-1.3-1.4-2.5-1.4-3.7c0-1.2,0.5-2.1,1.5-2.7c0.7-0.5,1.5-0.7,2.4-0.6c0.9,0.1,1.7,0.5,2.4,1.2l-0.9,0.7
					c-0.5-0.5-1-0.8-1.6-0.8c-0.6-0.1-1.2,0-1.7,0.3c-0.7,0.5-1,1.1-1,2c0,0.9,0.4,1.8,1.1,2.9c0.7,1,1.5,1.7,2.3,2
					c0.8,0.3,1.6,0.2,2.3-0.2c0.6-0.4,1-1,1-1.7c0-0.7-0.2-1.5-0.8-2.3l-2.1,1.4l-0.7-1l3-2l3,4.2l-0.7,0.4L55.3,78
					c0,0.5-0.1,1.1-0.3,1.5c-0.2,0.5-0.6,0.8-1,1.2c-1,0.7-2,0.8-3.2,0.4C49.7,80.8,48.6,79.9,47.7,78.7z"/>
				<path d="M54.6,74c-0.9-1.3-1.3-2.6-1.3-3.8c0.1-1.2,0.6-2.1,1.6-2.8c1-0.7,2.1-0.9,3.3-0.5c1.2,0.4,2.2,1.2,3.2,2.5
					c0.9,1.3,1.3,2.5,1.3,3.7c-0.1,1.2-0.6,2.1-1.6,2.8c-1,0.7-2.1,0.9-3.3,0.5C56.6,76.1,55.5,75.3,54.6,74z M55.6,73.4
					c0.7,1,1.5,1.6,2.4,2c0.9,0.3,1.7,0.2,2.4-0.3c0.7-0.5,1.1-1.2,1.1-2.1c0-0.9-0.3-1.9-1.1-2.9c-0.7-1-1.5-1.7-2.4-2
					c-0.9-0.3-1.7-0.2-2.4,0.3c-0.7,0.5-1.1,1.2-1.1,2.1C54.5,71.4,54.8,72.4,55.6,73.4z"/>
			</g>
		</g>
	</g>
</g>
</svg>
