<?xml version="1.0" encoding="utf-8"?>
<!-- Generator: Adobe Illustrator 24.0.1, SVG Export Plug-In . SVG Version: 6.00 Build 0)  -->
<svg version="1.1" id="Layer_1" xmlns="http://www.w3.org/2000/svg" xmlns:xlink="http://www.w3.org/1999/xlink" x="0px" y="0px"
	 viewBox="0 0 141.7 141.7" style="enable-background:new 0 0 141.7 141.7;" xml:space="preserve">
<style type="text/css">
	.st0{fill:#070707;}
</style>
<g id="Layer_1_1_">
</g>
<g id="Layer_1_2_">
</g>
<g id="Layer_1_3_">
</g>
<g id="Layer_1_4_">
</g>
<g id="Layer_1_5_">
</g>
<g id="Layer_3">
</g>
<g id="Layer_3_1_">
</g>
<g id="Layer_1_6_">
</g>
<g id="Layer_1_7_">
</g>
<g id="Layer_1_8_">
</g>
<g id="Layer_1_9_">
</g>
<g id="Layer_1_10_">
</g>
<g id="Layer_1_11_">
</g>
<g id="Layer_1_12_">
</g>
<g id="Layer_1_13_">
</g>
<g id="Layer_1_14_">
</g>
<g id="Layer_1_15_">
</g>
<g id="Layer_1_16_">
</g>
<g id="Layer_1_17_">
</g>
<g id="Layer_1_18_">
</g>
<g id="Layer_1_19_">
</g>
<g id="Layer_1_20_">
</g>
<g id="Layer_2_1_">
</g>
<g id="Layer_1_21_">
</g>
<g id="Layer_1_22_">
</g>
<g id="Layer_1_23_">
</g>
<g id="Layer_1_24_">
</g>
<g id="Layer_1_25_">
</g>
<g id="Layer_1_26_">
</g>
<g id="Layer_2_2_">
	<g>
		<g>
			<g>
				<g>
					<path d="M53.2,78.6c-1.5-1-3.1-1.1-4.7-0.5c-0.9,0.3-1.7,0.9-2.5,1.7c-1.5,1.5-2.2,3.2-2,5.3c0.1,2.1,1.3,4.2,3.6,6.5
						c2.2,2.3,4.3,3.4,6.3,3.3c2-0.1,3.6-0.8,4.9-2.1c1.3-1.3,2-2.7,2.1-4.2c0.1-1.6-0.3-3-1.3-4.4l-4.3,4.2l-3-3.1l7.7-7.6l9.8,9.9
						L67,90l-2.7-1.9c0.1,1.6,0,2.9-0.2,3.8c-0.4,1.6-1.3,3.2-2.8,4.6c-2.5,2.4-5.3,3.6-8.5,3.4c-3.3-0.1-6.4-1.6-9.3-4.6
						c-3-3-4.5-6.2-4.6-9.6c-0.1-3.4,1.2-6.5,3.9-9.1c2.4-2.3,4.8-3.6,7.4-3.8c2.6-0.2,4.9,0.5,6.8,2L53.2,78.6z"/>
				</g>
				<g>
					<g>
						<path d="M53.3,78.5c-2.8-1.6-5.9-0.7-7.9,1.7c-1.7,2.1-1.9,4.9-0.8,7.3c1.3,2.8,3.9,5.6,6.8,6.8c2.5,1,5.4,0.3,7.3-1.5
							c2.6-2.4,2.9-6,0.9-8.9c0,0-0.1,0-0.1,0c-1.1,1.1-2.1,2.1-3.2,3.2c-0.1,0.1-1,1-1,1c-0.4,0-1.2-1.2-1.5-1.5
							c-0.3-0.3-1.4-1.1-1.5-1.5c0-0.1,0,0.1,0.1-0.1c0.1-0.2,0.4-0.4,0.5-0.5c1.3-1.3,2.6-2.5,3.9-3.8c0.6-0.6,1.2-1.1,1.7-1.7
							c0.3-0.3,0.8-1.1,1.3-1.3c0.2-0.1,0-0.1,0.3,0.1c0.4,0.4,0.8,0.8,1.2,1.3c2.5,2.5,5,5.1,7.5,7.6c0.1,0.1,0.8,0.6,0.8,0.8
							c0,0.1-1.4,1.3-1.6,1.5c-0.2,0.2-0.6,0.8-0.9,0.9c0,0-0.4-0.2-0.6-0.4c-0.7-0.5-1.4-1-2.1-1.5c0,0-0.1,0-0.1,0
							c0.2,2.8-0.3,5.2-2.1,7.5c-1.6,2-3.9,3.5-6.4,4.1c-5.4,1.2-10.4-1.8-13.7-5.9c-3.2-4-4.3-9.5-1.6-14.1c2.6-4.5,8-8,13.3-6.4
							c0.4,0.1,3.2,1.1,3.1,1.6c0,0.3-1,1-1.2,1.1c-0.9,0.8-1.7,1.7-2.6,2.5C53.1,78.6,53.1,78.7,53.3,78.5c1.2-1.2,2.5-2.4,3.8-3.7
							c0,0,0-0.1,0-0.1c-3.9-3-8.9-2.6-12.7,0.3c-4,3-6.3,7.6-5.3,12.6c1,4.8,5,9.3,9.4,11.3c4.4,1.9,9.3,1,12.7-2.3
							c1.9-1.8,3.2-4,3.2-6.7c0-0.3,0-1.9-0.1-1.9c0.2,0,0.7,0.5,0.9,0.6c0.6,0.4,1.1,0.8,1.7,1.2c0,0,0,0,0.1,0
							c0.8-0.8,1.7-1.7,2.6-2.5c0,0,0-0.1,0-0.1c-3.3-3.3-6.5-6.6-9.8-9.9c0,0-0.1,0-0.1,0c-2.6,2.5-5.1,5.1-7.7,7.6
							c0,0,0,0.1,0,0.1c1,1,2,2.1,3,3.1c0,0,0.1,0,0.1,0c1.1-1.1,2.2-2.2,3.3-3.3c0.2-0.2,0.5-0.5,0.7-0.7c0.4-0.3,0.3-0.1,0.6,0.4
							c0.9,1.8,1.2,3.9,0.4,5.7c-1.6,3.5-6,5.3-9.4,3.5c-3-1.5-6.1-4.9-6.7-8.3c-0.8-4.9,4.5-9.7,9.1-7
							C53.3,78.7,53.3,78.6,53.3,78.5z"/>
					</g>
				</g>
			</g>
			<g>
				<g>
					<path d="M81.2,57.9c-2.4-2.5-4.9-4-7.4-4.6c-0.3,0.7-0.8,1.4-1.3,2c-0.3,0.4-0.8,0.7-1.3,0.6c-0.1,0-0.2,0-0.4,0
						c-0.7,0-1.2-0.6-1.2-1.2c0,0,0-0.1,0-0.1c0,0,0-0.1-0.1-0.1c-0.2,0.7-0.6,1.4-1.1,2c-0.4,0.4-1,0.4-1.5,0.2
						c-0.8-0.4-1.5-1.1-1.8-1.8c-0.8,0.5-1.6,1.2-2.4,1.9c-2.6,2.6-4,5.3-3.9,8.1c-0.2,3.6,1.4,7,4.7,10.4c3.3,3.3,6.7,4.9,10.3,4.9
						c2.8,0.1,5.5-1.2,8.2-3.8c2.6-2.6,4-5.3,3.9-8.1C86,64.6,84.5,61.2,81.2,57.9z M78.7,73.1c-1.5,1.5-3.3,2.1-5.3,1.9
						c-2-0.2-4-1.4-6.1-3.5c-2.1-2.1-3.2-4.1-3.4-6.2c-0.2-2,0.5-3.8,2-5.3c1.5-1.5,3.3-2.1,5.3-1.9c2,0.2,4,1.4,6.1,3.5
						c2.1,2.1,3.2,4.1,3.4,6.1C80.9,69.8,80.3,71.6,78.7,73.1z"/>
				</g>
				<g>
					<g>
						<path d="M76.8,54.4c-1-0.5-2-0.9-3-1.2c0,0,0,0.1,0,0.1c0.5,0.1,1.1,0.3,1.7,0.5C81,56.1,86,62.1,85.9,68.2
							c-0.1,5.3-5,10.7-10.2,11.7c-5.7,1.1-11-2.7-14.2-7.1c-3.1-4.2-3.7-9.7-0.4-14.1c1.1-1.5,2.5-2.9,4.1-3.8c0,0,0-0.1-0.1-0.2
							c-1,0.7-1.9,1.4-2.7,2.3c-1.8,1.9-3.3,4.2-3.6,6.8c-0.3,2.7,0.3,5.2,1.6,7.6c2.8,4.8,8,9,13.8,8.8C80,80,85.9,74,86,68.2
							C86.1,62.4,81.8,57.1,76.8,54.4z"/>
					</g>
					<g>
						<path d="M80.8,67.8c-0.8-6.4-10-13.4-15.3-7.4c-2.3,2.6-1.9,6.1-0.1,8.9c1.9,2.9,5.2,5.9,8.9,5.8C78.1,75,81.1,71.5,80.8,67.8
							c0-0.1-0.1-0.1-0.1,0c0.3,4.4-3.9,8.1-8.2,6.9c-2.1-0.6-3.9-2-5.4-3.6c-1.5-1.6-2.8-3.6-3-5.8c-0.4-4.4,4-8.1,8.2-6.9
							c3.9,1.1,7.9,5.3,8.4,9.4C80.7,67.9,80.8,67.9,80.8,67.8z"/>
					</g>
				</g>
			</g>
		</g>
		<g>
			<g>
				<g>
					<path d="M78.4,47.1c0,0,0,0.1,0,0.1c0,0.5,0,0.9-0.2,1.4h28.6v73.9H32.9V48.7h28.6c-0.6-0.3-1.2-0.8-1.4-1.5H31.4v76.9h76.9
						V47.1H78.4z"/>
				</g>
				<g>
					<g>
						<path d="M108.3,47.1H78.4c0,0,0,0.1,0,0.1h28.8c0.2,0,0.8-0.1,1,0c0,0,0,0,0,0c0,0,0,0,0,0.1c0.1,0.3,0,0.8,0,1.1V124H32.6
							c-0.3,0-0.8,0.1-1,0c0,0,0,0,0,0c0,0,0,0,0-0.1c-0.1-0.3,0-0.8,0-1.1V47.6c0-0.6-0.1-0.4,0.5-0.4h28c0,0,0-0.1,0-0.1H31.4
							c0,0,0,0,0,0V124c0,0,0,0,0,0h76.9h0h0c0,0,0,0,0,0v0L108.3,47.1C108.4,47.1,108.3,47.1,108.3,47.1z"/>
					</g>
					<g>
						<path d="M106.8,48.6H78.2c0,0,0,0.1,0,0.1h17.6c3.5,0,7,0.1,10.5,0c0.6,0,0.4-0.1,0.4,0.5v72.2c0,0.2,0.1,0.7,0,1c0,0,0,0,0,0
							c0,0,0,0-0.1,0c-0.8,0.2-2.1,0-3,0H33V49.8c0-0.2-0.1-0.8,0-1c0,0,0,0,0,0c0,0,0,0,0.1,0c0.3-0.1,0.7,0,1,0h27.5
							c-0.1,0-0.1-0.1-0.2-0.1H32.9c0,0,0,0,0,0v73.9v0v0c0,0,0,0,0,0h0h73.9c0,0,0,0,0,0L106.8,48.6
							C106.8,48.6,106.8,48.6,106.8,48.6z"/>
					</g>
				</g>
			</g>
		</g>
		<g>
			<g>
				<path d="M93.7,73c-12,12.3-23.3,25.4-33.7,39.1c-0.5,0.6,0.6,1.2,1.1,0.6c10.4-13.6,21.6-26.6,33.5-38.8
					C95.1,73.3,94.2,72.4,93.7,73L93.7,73z"/>
			</g>
		</g>
		<g>
			<g>
				<path d="M95,80.8c-3.5,4.1-6.9,8.2-10.4,12.3c-0.5,0.6,0.4,1.5,0.9,0.9c3.5-4.1,6.9-8.2,10.4-12.3C96.4,81.1,95.5,80.2,95,80.8
					L95,80.8z"/>
			</g>
		</g>
	</g>
	<g>
		<g>
			<g>
				<g>
					<path class="st0" d="M99.2,26.8c-2.6-4.7-6.8-8.1-11.7-10.2c-5.7-2.4-11.8-2.8-17.9-2.2c-3.3,0.3-6.7,0.7-10,1
						c-3,0.3-5.9,0.8-8.6,1.9c-4.8,2-8.8,5.5-11.7,9.9c-3.7,5.8-5,12.7-5.3,19.5c0,0.4,0.6,0.4,0.6,0c0.3-6,1.3-12,4.2-17.3
						c2.4-4.5,6.2-8.4,10.8-10.7c5.4-2.7,11.7-2.7,17.6-3.4s11.8-0.9,17.6,1c5.7,1.9,10.9,5.5,13.8,10.9
						C98.8,27.5,99.4,27.2,99.2,26.8L99.2,26.8z"/>
				</g>
			</g>
		</g>
		<g>
			<g>
				<g>
					<path class="st0" d="M49.6,125c5.9,3.7,13.5,3.7,20.2,3.1c3.5-0.3,6.9-0.8,10.3-1.4c3.6-0.6,7.7-0.9,10.9-2.9
						c0.3-0.2,0-0.7-0.3-0.5c-3.1,2-7.1,2.2-10.6,2.8c-3.4,0.6-6.8,1.1-10.3,1.4c-6.6,0.6-14.1,0.6-19.9-3
						C49.6,124.2,49.2,124.8,49.6,125L49.6,125z"/>
				</g>
			</g>
		</g>
		<g>
			<g>
				<g>
					<path class="st0" d="M57.6,16.3c0.4,0,0.4-0.6,0-0.6S57.2,16.3,57.6,16.3L57.6,16.3z"/>
				</g>
			</g>
		</g>
		<g>
			<g>
				<g>
					<path class="st0" d="M35.6,35.7c-2.5-0.2-4.9-1.5-6.1-3.8c-1.1-2.3-0.7-4.9,0.7-6.9c1.3-1.8,3.4-3.2,5.6-3.6
						c2.2-0.4,5.3-0.4,6.9,1.5c0.2,0.3,0.7-0.1,0.4-0.4c-1.6-2-4.8-2.1-7.2-1.7c-2.6,0.4-5.1,2-6.5,4.2c-1.4,2.2-1.7,5.1-0.4,7.4
						c1.3,2.4,3.9,3.8,6.5,4C36,36.4,36,35.8,35.6,35.7L35.6,35.7z"/>
				</g>
			</g>
		</g>
		<g>
			<g>
				<g>
					<path class="st0" d="M94.3,21.2c3.8-2,9.9-2.9,12.5,1.2c2.6,4.1,1.1,10.8-4.2,11.7c-0.4,0.1-0.2,0.7,0.2,0.6
						c5.6-0.9,7.4-7.8,4.8-12.3c-2.8-4.8-9.3-3.9-13.5-1.7C93.7,20.9,94,21.4,94.3,21.2L94.3,21.2z"/>
				</g>
			</g>
		</g>
		<g>
			<g>
				<g>
					<path class="st0" d="M64.5,41.9c0,0,0.1-0.1,0.1-0.1c0.1-0.2,0.1-0.2,0-0.1c0,0-0.2,0.1-0.3,0.1c-0.1,0-0.4,0-0.5,0.1
						c-0.5,0.2-1,0.6-1.4,1c-0.9,0.7-1.9,1.6-2.3,2.7c-1,2.6,2.3,4,4.4,3.8c1.7-0.2,3.3-0.9,5-1.1c1.6-0.2,3,0.4,4.6,0.8
						c1,0.2,2.1,0.4,2.9-0.3c0.9-0.7,1.3-1.9,1.1-3c-0.4-2.6-3.7-4-5.9-4.7c-0.2-0.1-0.3,0.2-0.1,0.3c2.2,0.8,6.2,2.5,5.7,5.5
						c-0.7,3.9-5.3,1-7.6,1c-1.5,0-2.9,0.6-4.3,0.9c-1.7,0.4-5,0.5-5.6-1.7c-0.4-1.4,1-2.8,1.9-3.6c0.5-0.4,1.2-1,1.8-1.3
						c0.3-0.1,0.6-0.1,0.9-0.2c0.1,0,0.1-0.1,0.1-0.2c-0.1-0.2-0.4,0-0.5,0C64.2,41.6,64.3,41.9,64.5,41.9L64.5,41.9z"/>
				</g>
			</g>
		</g>
		<g>
			<g>
				<g>
					<path class="st0" d="M73.2,48.8c0.6,1.5,0.9,3.5,0.4,5c-0.4,1.1-1.7,2-2.9,1.6c-0.8-0.3-1-1.2-1.4-1.9c-0.1-0.2-0.3,0-0.3,0.1
						c0.3,0.7,0.6,1.5,1.3,1.9c0.8,0.4,1.9,0.2,2.6-0.4c1.8-1.4,1.2-4.7,0.5-6.5C73.5,48.5,73.2,48.6,73.2,48.8L73.2,48.8z"/>
				</g>
			</g>
		</g>
		<g>
			<g>
				<g>
					<path class="st0" d="M49.1,123.8c0.3,0.3,0.6,0.5,1,0.8c0-0.1,0-0.2,0-0.3c-2.5,0.4-4.1,2.3-6.1,3.6c-1.2,0.8-2.7,1.5-4.1,0.9
						c-2.2-0.8-2.4-3.1-1.1-4.8c0.1-0.2-0.1-0.3-0.3-0.1c-0.8,1.1-1.3,2.5-0.5,3.8c0.7,1.1,1.9,1.7,3.2,1.6c3.5-0.3,5.4-4.2,8.9-4.7
						c0.1,0,0.1-0.2,0-0.3c-0.3-0.2-0.6-0.5-0.9-0.8C49.1,123.5,48.9,123.7,49.1,123.8L49.1,123.8z"/>
				</g>
			</g>
		</g>
		<g>
			<g>
				<g>
					<path class="st0" d="M39.3,128.4c-0.5-1.9,0.9-3.4,2.4-4.2c0.2-0.1,0-0.4-0.1-0.3c-1.7,0.9-3.1,2.5-2.6,4.5
						C39.1,128.6,39.4,128.6,39.3,128.4L39.3,128.4z"/>
				</g>
			</g>
		</g>
		<g>
			<g>
				<g>
					<path class="st0" d="M96,123c-1.6,0-3.2,0-4.7,0.1c-0.1,0-0.2,0.2-0.1,0.3c0.6,0.7,1.5,1.2,2.1,2c0.7,0.7,1.3,1.5,2,2.2
						c1,0.9,2.2,1.7,3.6,1.7c1.3,0.1,2.4-0.4,3-1.6c0.7-1.4,0.2-3.1-0.4-4.4c0,0-0.1-0.1-0.1-0.1C99.5,123.1,97.8,123.1,96,123
						c-0.2,0-0.2,0.3,0,0.3c1,0.1,2.1,0.1,3.2,0.1c1.1,0,2.1-0.2,2.5,1.1c0.6,2.1-0.2,4.5-2.8,4.3c-1.7-0.1-3.1-1.2-4.2-2.5
						c-0.5-0.5-1-1.1-1.5-1.7c-0.6-0.6-1.3-1.1-1.9-1.7c0,0.1-0.1,0.2-0.1,0.3c1.6,0,3.2,0,4.7-0.1C96.2,123.3,96.2,123,96,123z"/>
				</g>
			</g>
		</g>
		<g>
			<g>
				<g>
					<path class="st0" d="M98,124c1.2,1.3,2.2,2.9,2.2,4.7c0,0.2,0.3,0.2,0.3,0c-0.1-1.9-1-3.6-2.3-4.9C98,123.6,97.8,123.8,98,124
						L98,124z"/>
				</g>
			</g>
		</g>
		<g>
			<g>
				<g>
					<path class="st0" d="M107.5,70.5c2.2,0.6,4.6,2.2,4.6,4.8c0,2.7-2.8,2.6-4.5,1.7c-0.2-0.1-0.3,0.2-0.1,0.3
						c1.7,0.9,4.5,1.2,5-1.3c0.5-3-2.2-5.1-4.8-5.8C107.4,70.1,107.4,70.4,107.5,70.5L107.5,70.5z"/>
				</g>
			</g>
		</g>
		<g>
			<g>
				<g>
					<path class="st0" d="M108.8,74.8c1.2,0.4,2.7,1.4,2,2.9c-0.1,0.2,0.2,0.3,0.3,0.1c0.8-1.6-0.7-2.9-2.2-3.3
						C108.7,74.5,108.6,74.8,108.8,74.8L108.8,74.8z"/>
				</g>
			</g>
		</g>
		<g>
			<path class="st0" d="M82.4,41.6c-6,0-11-4.9-11-11s4.9-11,11-11s11,4.9,11,11S88.4,41.6,82.4,41.6z M82.4,20.1
				c-5.8,0-10.6,4.8-10.6,10.6s4.8,10.6,10.6,10.6c5.8,0,10.6-4.8,10.6-10.6S88.2,20.1,82.4,20.1z"/>
		</g>
		<g>
			<path class="st0" d="M55.3,42.8C55.3,42.8,55.3,42.8,55.3,42.8c-6.1,0-11-4.9-11-11s4.9-11,11-11c6,0,11,4.9,11,11
				c0,2.9-1.1,5.7-3.2,7.8C60.9,41.7,58.2,42.8,55.3,42.8z M55.2,21.2c-5.8,0-10.6,4.8-10.6,10.6s4.8,10.6,10.6,10.6c0,0,0,0,0,0
				c2.8,0,5.4-1.1,7.4-3.1c2-2,3.1-4.7,3.1-7.5C65.8,26,61.1,21.2,55.2,21.2z"/>
		</g>
		<g>
			<path class="st0" d="M103.1,26.4c0-1.3-1-2.3-2.3-2.3c-1.3,0-2.3,1-2.3,2.3c0,1.3,1,2.3,2.3,2.3C102,28.7,103.1,27.7,103.1,26.4z
				"/>
		</g>
		<g>
			<circle class="st0" cx="36.7" cy="28.4" r="2.3"/>
		</g>
		<g>
			<path class="st0" d="M73.7,40.6c0-1.5-2.2-2.7-4.8-2.7s-4.8,1.2-4.8,2.7c0,1.5,2.2,2.7,4.8,2.7C71.5,43.3,73.7,42.1,73.7,40.6z"
				/>
		</g>
		<g>
			<path class="st0" d="M76.7,27.8c-1.9,0-3.5,1.6-3.5,3.5c0,1.9,1.6,3.5,3.5,3.5c1.9,0,3.5-1.6,3.5-3.5
				C80.3,29.4,78.7,27.8,76.7,27.8z M78.2,33.6c-0.5,0-1-0.4-1-1s0.4-1,1-1s1,0.4,1,1C79.2,33.1,78.7,33.6,78.2,33.6z"/>
		</g>
		<g>
			<path class="st0" d="M49.4,28.6c-1.9,0-3.5,1.6-3.5,3.5c0,1.9,1.6,3.5,3.5,3.5c1.9,0,3.5-1.6,3.5-3.5
				C52.9,30.2,51.3,28.6,49.4,28.6z M50.8,34.4c-0.5,0-1-0.4-1-1s0.4-1,1-1c0.5,0,1,0.4,1,1S51.3,34.4,50.8,34.4z"/>
		</g>
		<g>
			<g>
				<g>
					<path class="st0" d="M69.2,48.1c0.1,0.8,0.1,1.5,0.1,2.3c0,0.9,0,1.8-0.1,2.7c-0.3,1.6-1.8,3.5-3.5,2c-1.5-1.3-1.1-4.4-0.6-6.1
						c0-0.2-0.2-0.3-0.3-0.1c-0.6,2-1.1,6.2,1.6,6.9c1.3,0.4,2.4-0.3,2.9-1.6c0.4-1,0.4-2,0.4-3.1c0-1.1,0.1-2.2-0.1-3.2
						C69.4,47.8,69.1,47.9,69.2,48.1L69.2,48.1z"/>
				</g>
			</g>
		</g>
		<g>
			<g>
				<g>
					<path class="st0" d="M31.7,71.6c-1.8,0.7-6.7,4.1-3.3,5.8c0.2,0.1,0.3-0.2,0.1-0.3c-3-1.5,1.7-4.6,3.3-5.3
						C31.9,71.8,31.9,71.5,31.7,71.6L31.7,71.6z"/>
				</g>
			</g>
		</g>
		<g>
			<g>
				<g>
					<path class="st0" d="M30.2,75.7c-0.9,0.4-2.3,1.6-1.4,2.7c0.7,0.9,2.1,0.6,3,0.3c0.2-0.1,0-0.3-0.1-0.3
						c-0.7,0.3-1.8,0.5-2.5-0.1c-0.9-0.9,0.4-1.9,1.2-2.3C30.5,75.8,30.4,75.6,30.2,75.7L30.2,75.7z"/>
				</g>
			</g>
		</g>
		<g>
			<g>
				<g>
					<path class="st0" d="M98.1,25.9c4,6.4,5.7,13.8,5.6,21.3c0,0.4,0.6,0.4,0.6,0c0.1-7.6-1.7-15.1-5.7-21.6
						C98.4,25.3,97.9,25.6,98.1,25.9L98.1,25.9z"/>
				</g>
			</g>
		</g>
	</g>
	<g>
		<g>
			<g>
				<path d="M66,57.8c0.9-0.1,1.7-0.3,2.5-0.8c0.7-0.4,0.1-1.5-0.6-1.1c-0.6,0.3-1.2,0.6-1.9,0.6C65.2,56.6,65.2,57.9,66,57.8
					L66,57.8z"/>
			</g>
		</g>
	</g>
	<g>
		<g>
			<g>
				<path d="M64.4,55.8c0.1,0.2,0.1,0.4,0.3,0.5c0.4,0.3,1.3,0,1-0.6c0-0.1-0.1-0.2-0.1-0.3c-0.4,0.1-0.7,0.3-1.1,0.5
					c0.4,0.8,1.1,1.2,2.1,1.2c0-0.4,0-0.8,0-1.2c-0.2,0-0.4-0.1-0.6-0.2c-0.2,0.3-0.4,0.7-0.6,1c1.4,0.4,2.9,0.2,4.1-0.7
					c-0.2,0-0.4,0-0.6,0c0.4,0.2,0.8,0.3,1.2,0.5c0.1-0.4,0.3-0.7,0.5-1.1c-0.3-0.2-0.5-0.3-0.8-0.5c-0.3,0.2-0.6,0.5-1,0.7
					c1.3,1,2.9,1.3,4.4,0.7c0.7-0.3,0.4-1.5-0.3-1.2c-1.1,0.4-2.3,0.3-3.2-0.4c-0.5-0.4-1.4,0.1-1,0.7c0.4,0.6,0.8,0.9,1.5,1.1
					c0.6,0.2,1.1-0.8,0.5-1.1c-0.4-0.2-0.8-0.3-1.2-0.5c-0.2-0.1-0.4-0.1-0.6,0c-1,0.7-2,0.9-3.1,0.6c-0.6-0.2-1.1,0.6-0.6,1
					c0.5,0.4,0.9,0.6,1.5,0.5c0.8,0,0.8-1.2,0-1.2c-0.5,0-0.8-0.2-1-0.6c-0.3-0.6-1.4-0.2-1.1,0.5c0,0.1,0.1,0.2,0.1,0.3
					c0.3-0.2,0.7-0.4,1-0.6h0C65.3,54.7,64.1,55.1,64.4,55.8L64.4,55.8z"/>
			</g>
		</g>
	</g>
	<g>
		<g>
			<g>
				<path d="M69,54.4c0,0.1-0.1,0.3-0.1,0.4c0.1,0,0.2,0,0.3,0c0-0.2,0-0.4,0.2-0.6c-0.1,0-0.1,0-0.2,0c0,0,0,0.2,0,0.3
					c0,0.1,0.1,0.1,0.2,0.1c0.1,0,0.2-0.2,0.1-0.3c0-0.1-0.1-0.1-0.2,0c0,0,0,0,0,0c0,0-0.1,0.1-0.1,0.1c0,0.3,0.1,0.5,0.3,0.7
					c0.1,0.1,0.3,0,0.2-0.2c-0.1-0.1-0.1-0.3-0.2-0.4c-0.1,0.1-0.1,0.1-0.2,0.2c0.2,0.1,0.4,0.3,0.5,0.5c0.1,0.2,0.4,0,0.3-0.1
					c-0.1-0.1-0.2-0.2-0.4-0.3c-0.1,0-0.2,0.1-0.2,0.2c0.2,0.3,0.5,0.6,0.8,0.8c0.2,0.1,0.3-0.1,0.1-0.3c-0.3-0.2-0.5-0.4-0.7-0.7
					c0,0.1-0.1,0.1-0.2,0.2c0.1,0,0.2,0.1,0.2,0.2c0.1,0,0.2-0.1,0.3-0.1c-0.2-0.2-0.4-0.4-0.6-0.6c-0.1-0.1-0.3,0.1-0.2,0.2
					c0.1,0.1,0.1,0.3,0.2,0.4c0.1-0.1,0.2-0.1,0.2-0.2c-0.1-0.1-0.2-0.3-0.2-0.5c0,0,0,0.1-0.1,0.1c0,0,0,0,0,0c-0.1,0-0.1,0-0.2,0
					c0,0,0-0.1,0.1-0.1c0,0,0.1,0,0.1,0c0,0,0-0.2,0-0.3c0-0.1-0.1-0.1-0.1-0.1c-0.1,0-0.2,0-0.2,0c-0.1,0.2-0.2,0.5-0.2,0.8
					c0,0.2,0.3,0.2,0.3,0c0-0.1,0.1-0.3,0.1-0.4C69.4,54.3,69.1,54.2,69,54.4L69,54.4z"/>
			</g>
		</g>
	</g>
	<g>
		<g>
			<g>
				<path d="M78.7,47.7c-0.2-0.1-0.4-0.1-0.6-0.1c-0.2,0-0.2,0.3,0,0.3c0.2,0,0.3,0,0.5,0c0.2,0,0.2-0.3,0-0.3c-0.3,0-0.6,0-0.8,0
					c0,0.1,0,0.2,0,0.3c0.1,0,0.3-0.1,0.4-0.1c0.1,0,0.1-0.3,0-0.3c-0.1,0-0.2,0-0.2,0c0,0.1,0,0.2,0.1,0.3c0.1,0,0.2-0.1,0.3,0
					c0-0.1-0.1-0.1-0.1-0.2v0c0,0,0,0,0.1-0.1c0,0,0.1,0.1,0.1,0.1c0,0,0,0,0.1,0c0,0,0.1,0,0.1,0c0.1,0,0.1,0,0.2,0
					c0.1-0.1,0.1-0.3-0.1-0.3c-0.2,0-0.4,0-0.6,0c-0.2,0-0.2,0.3,0,0.3c0.1,0,0.3,0,0.4,0c0-0.1,0-0.2,0-0.3c-0.1,0-0.3,0-0.4,0
					c0,0.1,0,0.2,0,0.3c0.1,0,0.2,0,0.3,0c0.2,0,0.1-0.2,0-0.3c-0.2-0.1-0.7,0-0.7,0.3c0,0.2,0.3,0.2,0.3,0c0-0.1,0.2,0,0.3,0
					c0-0.1,0-0.2,0-0.3c-0.1,0-0.2,0-0.3,0c-0.2,0-0.1,0.3,0,0.3c0.1,0,0.3,0,0.4,0c0.2,0,0.2-0.3,0-0.3c-0.1,0-0.3,0-0.4,0
					c0,0.1,0,0.2,0,0.3c0.2,0,0.4,0,0.6,0c0-0.1,0-0.2-0.1-0.3c0,0-0.1,0-0.2,0c0,0-0.1,0-0.2,0c-0.1,0-0.2,0.1-0.1,0.2
					c0,0.2,0.3,0.3,0.4,0c0-0.1,0-0.2-0.1-0.2c-0.2,0-0.4,0-0.5,0.1c-0.1,0.1-0.1,0.3,0.1,0.3c0.1,0,0.2,0,0.2,0c0-0.1,0-0.2,0-0.3
					c-0.1,0-0.3,0.1-0.4,0.1c-0.1,0.1-0.1,0.3,0,0.3c0.3,0,0.6,0,0.8,0c0-0.1,0-0.2,0-0.3c-0.2,0-0.3,0-0.5,0c0,0.1,0,0.2,0,0.3
					c0.2,0,0.4,0,0.6,0.1C78.9,48,78.9,47.7,78.7,47.7L78.7,47.7z"/>
			</g>
		</g>
	</g>
	<g>
		<g>
			<g>
				<path d="M78.2,47.2c-0.1,0-0.2,0-0.2-0.1c-0.1,0-0.3,0.1-0.1,0.2c0.1,0.1-0.2,0.3-0.2,0.4c0,0.1,0,0.1,0,0.2c0,0,0,0.1,0.1,0.1
					c0.1,0,0.1,0,0.2,0c0,0,0.1-0.1,0.1-0.1v0c0-0.2-0.2-0.2-0.3-0.1c0,0.1-0.1,0.1-0.2,0.2c-0.1,0.1,0,0.2,0.1,0.2
					c0.4,0.1,0.7,0.1,1.1,0c0.2,0,0.1-0.3,0-0.3c-0.3,0-0.7,0-1,0c0,0.1,0,0.2,0,0.3c0.3-0.1,0.6-0.1,0.9-0.2c0.1,0,0.1-0.3,0-0.3
					c-0.3,0-0.6,0-0.9,0c-0.2,0-0.1,0.3,0,0.3c0.3,0,0.6,0,0.9-0.1c0.2,0,0.2-0.3,0-0.3c-0.3,0-0.5,0-0.7,0.1c-0.1,0-0.1,0.2,0,0.3
					c0.2,0,0.4,0.1,0.7,0.1c0-0.1,0-0.2,0-0.3c-0.3,0.1-0.6,0.1-1,0.1c0,0.1,0,0.2,0,0.3c0.3,0,0.7,0,1,0c0-0.1,0-0.2,0-0.3
					c-0.3,0-0.6,0.1-0.9,0.1c0,0.1,0,0.2,0.1,0.3c0.3,0,0.5,0,0.8,0c0-0.1,0-0.2,0-0.3c-0.2,0-0.4,0-0.6,0.1c-0.2,0-0.1,0.3,0,0.3
					c0.2,0,0.4,0,0.7,0c0.2,0,0.2-0.3,0-0.3c-0.3,0-0.6,0-0.9,0.1c-0.2,0-0.1,0.3,0,0.3c0.3,0,0.6,0,1,0c0-0.1,0-0.2,0-0.3
					c-0.2,0-0.4,0-0.6,0s-0.2,0.3,0,0.3c0.1,0,0.2,0,0.3,0c0-0.1,0-0.2,0-0.3c-0.5,0.1-0.9,0.1-1.4,0c0,0.1,0,0.2,0,0.3
					c0.2-0.1,0.4-0.2,0.6-0.3c0.1,0,0.1-0.2,0-0.3c-0.1,0-0.2,0-0.3,0c-0.1,0.1-0.1,0.2,0,0.3c0.1,0,0.2,0,0.4,0
					c0.2-0.1,0-0.3-0.1-0.3c0,0-0.1,0-0.1,0c0,0.1,0,0.2,0,0.3c0,0,0,0,0.1,0c0-0.1,0-0.2,0-0.3c-0.2,0.1-0.4,0.2-0.6,0.3
					c-0.1,0-0.1,0.2,0,0.3c0.5,0.1,1,0.1,1.5,0c0.2,0,0.1-0.3,0-0.3c-0.1,0-0.2,0-0.3,0c0,0.1,0,0.2,0,0.3c0.2,0,0.4,0,0.6,0
					s0.2-0.3,0-0.3c-0.3,0-0.6,0-1,0c0,0.1,0,0.2,0,0.3c0.3-0.1,0.5-0.1,0.8,0c0-0.1,0-0.2,0-0.3c-0.2,0-0.4,0-0.7,0
					c0,0.1,0,0.2,0,0.3c0.2,0,0.4-0.1,0.6-0.1c0.2,0,0.2-0.3,0-0.3c-0.3,0-0.6,0-0.9,0c-0.2,0-0.1,0.3,0.1,0.3
					c0.3,0,0.6-0.1,0.9-0.1c0.2,0,0.1-0.3,0-0.3c-0.3,0-0.7,0-1,0c-0.2,0-0.2,0.3,0,0.3c0.4,0,0.7,0,1.1-0.1c0.1,0,0.1-0.3,0-0.3
					c-0.2,0-0.4-0.1-0.7-0.1c0,0.1,0,0.2,0,0.3c0.2-0.1,0.4-0.1,0.6-0.1c0-0.1,0-0.2,0-0.3c-0.3,0-0.6,0-0.9,0.1c0,0.1,0,0.2,0,0.3
					c0.2,0,0.5,0,0.7,0c0-0.1,0-0.2,0-0.3c-0.3,0.1-0.6,0.1-0.9,0.2c-0.2,0-0.1,0.3,0,0.3c0.3,0,0.7,0,1,0c0-0.1,0-0.2,0-0.3
					c-0.3,0.1-0.6,0.1-0.9,0c0,0.1,0,0.1,0.1,0.2c0-0.1,0.1-0.1,0.2-0.2c-0.1,0-0.2,0-0.3-0.1v0c0,0,0-0.1,0.1-0.1c0,0,0,0,0,0
					c0,0,0.1,0.1,0.1,0.1c0-0.1,0.3-0.3,0.3-0.4c0-0.1,0-0.3-0.1-0.4c0,0.1-0.1,0.2-0.1,0.2c0.1,0,0.2,0,0.2,0.1
					C78.3,47.6,78.4,47.3,78.2,47.2L78.2,47.2z"/>
			</g>
		</g>
	</g>
</g>
</svg>
