<?xml version="1.0" encoding="utf-8"?>
<!-- Generator: Adobe Illustrator 24.0.1, SVG Export Plug-In . SVG Version: 6.00 Build 0)  -->
<svg version="1.1" id="Layer_1" xmlns="http://www.w3.org/2000/svg" xmlns:xlink="http://www.w3.org/1999/xlink" x="0px" y="0px"
	 viewBox="0 0 141.7 141.7" style="enable-background:new 0 0 141.7 141.7;" xml:space="preserve">
<style type="text/css">
	.st0{fill:#070707;}
</style>
<g id="Layer_1_1_">
</g>
<g id="Layer_1_2_">
</g>
<g id="Layer_1_3_">
</g>
<g id="Layer_1_4_">
</g>
<g id="Layer_1_5_">
</g>
<g id="Layer_3">
</g>
<g id="Layer_3_1_">
</g>
<g id="Layer_1_6_">
</g>
<g id="Layer_1_7_">
</g>
<g id="Layer_1_8_">
</g>
<g id="Layer_1_9_">
</g>
<g id="Layer_1_10_">
</g>
<g id="Layer_1_11_">
</g>
<g id="Layer_1_12_">
</g>
<g id="Layer_1_13_">
</g>
<g id="Layer_1_14_">
</g>
<g id="Layer_1_15_">
</g>
<g id="Layer_1_16_">
</g>
<g id="Layer_1_17_">
</g>
<g id="Layer_1_18_">
</g>
<g id="Layer_1_19_">
</g>
<g id="Layer_1_20_">
</g>
<g id="Layer_2_1_">
</g>
<g id="Layer_1_21_">
</g>
<g id="Layer_1_22_">
</g>
<g id="Layer_1_23_">
</g>
<g id="Layer_1_24_">
</g>
<g id="Layer_1_25_">
</g>
<g id="Layer_1_26_">
</g>
<g id="Layer_2_2_">
	<g>
		<g>
			<g>
				<g>
					<g>
						<path d="M38.4,81c-1.6-1-3.2-1.2-4.9-0.6c-0.9,0.4-1.8,0.9-2.6,1.7c-1.5,1.5-2.2,3.3-2.1,5.5c0.2,2.1,1.4,4.4,3.7,6.7
							c2.3,2.3,4.5,3.5,6.5,3.4c2-0.1,3.7-0.8,5.1-2.1c1.3-1.3,2-2.8,2.2-4.4s-0.4-3.1-1.4-4.6L40.4,91l-3.1-3.2l7.9-7.8l10.1,10.2
							l-2.6,2.6l-2.7-2c0.1,1.7,0.1,3-0.2,3.9c-0.4,1.7-1.4,3.3-2.9,4.8c-2.5,2.5-5.5,3.7-8.8,3.5c-3.4-0.1-6.6-1.7-9.6-4.7
							c-3-3.1-4.6-6.4-4.8-9.9c-0.1-3.5,1.2-6.7,4-9.4c2.4-2.4,5-3.7,7.7-3.9c2.7-0.2,5,0.5,7,2.1L38.4,81z"/>
					</g>
					<g>
						<g>
							<path d="M38.4,81c-2.9-1.7-6-0.7-8.1,1.8c-1.8,2.2-2,5.1-0.8,7.6c1.3,2.9,4,5.8,7,7c2.5,1,5.5,0.3,7.5-1.5
								c2.7-2.5,2.9-6.1,0.9-9.2c0,0-0.1-0.1-0.1,0c-1.1,1.1-2.2,2.2-3.3,3.3c-0.2,0.2-1,1-1,1c-0.4-0.1-1.3-1.3-1.6-1.6
								c-0.3-0.3-1.5-1.2-1.5-1.5c0-0.1,0,0.2,0.1-0.1c0.1-0.2,0.4-0.4,0.6-0.6c1.3-1.3,2.7-2.6,4-3.9c0.6-0.6,1.2-1.2,1.8-1.8
								c0.3-0.3,0.9-1.1,1.3-1.3c0.2-0.1,0-0.2,0.3,0.1c0.5,0.4,0.9,0.9,1.3,1.3c2.6,2.6,5.1,5.2,7.7,7.8c0.1,0.1,0.8,0.6,0.8,0.8
								c0,0.1-1.4,1.3-1.7,1.6c-0.2,0.2-0.6,0.8-0.9,0.9c-0.1,0-0.4-0.2-0.6-0.4c-0.7-0.5-1.4-1-2.2-1.6c-0.1,0-0.1,0-0.1,0.1
								c0.2,2.9-0.3,5.4-2.2,7.7c-1.7,2-4,3.6-6.6,4.2c-5.6,1.2-10.7-1.9-14.1-6.1c-3.3-4.1-4.4-9.8-1.7-14.5
								c2.7-4.6,8.3-8.2,13.7-6.6c0.5,0.1,3.3,1.2,3.2,1.7c0,0.3-1,1-1.2,1.2c-0.9,0.9-1.8,1.7-2.7,2.6C38.2,81,38.3,81.1,38.4,81
								c1.3-1.2,2.6-2.5,3.9-3.8c0,0,0-0.1,0-0.1c-4-3.1-9.2-2.6-13.1,0.4c-4.1,3.1-6.5,7.9-5.4,13c1,5,5.1,9.6,9.7,11.6
								c4.5,2,9.6,1,13.1-2.4c1.9-1.9,3.3-4.2,3.3-6.9c0-0.3,0-1.9-0.1-1.9c0.2,0,0.7,0.5,0.9,0.6c0.6,0.4,1.2,0.8,1.8,1.3
								c0,0,0.1,0,0.1,0c0.9-0.9,1.8-1.7,2.6-2.6c0,0,0-0.1,0-0.1c-3.4-3.4-6.7-6.8-10.1-10.2c0,0-0.1,0-0.1,0
								c-2.6,2.6-5.3,5.2-7.9,7.8c0,0,0,0.1,0,0.1c1,1,2.1,2.1,3.1,3.2c0,0,0.1,0,0.1,0c1.1-1.1,2.3-2.2,3.4-3.4
								c0.2-0.2,0.5-0.6,0.7-0.7c0.4-0.3,0.3-0.1,0.6,0.5c1,1.9,1.3,4,0.4,5.9c-1.7,3.6-6.1,5.4-9.7,3.6c-3.1-1.6-6.3-5.1-6.9-8.6
								c-0.8-5.1,4.6-10,9.4-7.2C38.4,81.1,38.5,81,38.4,81z"/>
						</g>
					</g>
				</g>
				<g>
					<g>
						<path d="M72.1,70.3c0,2.9-1.3,5.7-4,8.4s-5.5,4-8.4,3.9c-3.7,0.1-7.3-1.6-10.6-5c-3.4-3.5-5-7.1-4.8-10.7c0-2.9,1.3-5.7,4-8.4
							c2.7-2.7,5.5-4,8.4-3.9c3.6-0.2,7.2,1.5,10.6,5C70.6,63.1,72.2,66.6,72.1,70.3z M66.7,69.9c-0.2-2.1-1.4-4.2-3.5-6.3
							c-2.1-2.1-4.2-3.3-6.3-3.6c-2.1-0.3-3.9,0.4-5.5,1.9s-2.3,3.4-2,5.5c0.2,2.1,1.4,4.2,3.5,6.3c2.1,2.2,4.2,3.3,6.3,3.6
							c2.1,0.2,3.9-0.4,5.5-2C66.3,73.8,67,72,66.7,69.9z"/>
					</g>
					<g>
						<g>
							<path d="M72,70.3c-0.1,5.5-5.2,11-10.5,12.1c-5.9,1.2-11.3-2.7-14.6-7.3c-3.2-4.4-3.8-10-0.5-14.5c3.5-4.7,9.1-7.4,14.8-5.1
								C67,57.8,72.1,64,72,70.3c0,0.1,0.1,0.1,0.1,0c0.1-6-4.4-11.5-9.4-14.3c-2.3-1.3-5-1.8-7.6-1.4c-2.9,0.4-5.4,2.2-7.4,4.2
								c-1.9,1.9-3.4,4.3-3.7,7c-0.3,2.7,0.3,5.4,1.6,7.8c2.9,5,8.2,9.3,14.2,9.1c6-0.2,12.1-6.3,12.2-12.4
								C72.1,70.3,72,70.3,72,70.3z"/>
						</g>
						<g>
							<path d="M66.8,69.9c-0.9-6.6-10.3-13.8-15.8-7.6c-2.4,2.7-2,6.3-0.1,9.1c2,3,5.4,6,9.2,6C64.1,77.3,67.1,73.7,66.8,69.9
								c0-0.1-0.1-0.1-0.1,0c0.4,4.6-4,8.3-8.5,7.1c-2.2-0.6-4-2.1-5.6-3.7c-1.5-1.6-2.9-3.7-3.1-5.9C49,62.8,53.5,59,58,60.2
								c4,1.1,8.1,5.5,8.7,9.7C66.7,70,66.8,70,66.8,69.9z"/>
						</g>
					</g>
				</g>
			</g>
			<g>
				<g>
					<g>
						<path d="M93.6,50.2v25.3c0.5-0.2,1-0.3,1.6-0.5V48.6h-2.6c0,0.1,0,0.3-0.1,0.4c0,0.1,0,0.2-0.1,0.2c0.1,0.3,0.1,0.6,0.3,0.9
							L93.6,50.2L93.6,50.2z"/>
					</g>
					<g>
						<path d="M93.7,81.1c0,0-0.1,0-0.1,0v45.2H17.5V50.2h66.1c-0.1-0.3-0.1-0.6,0.1-0.9c0.1-0.1,0.1-0.2,0.1-0.3
							c0-0.1,0.1-0.3,0.1-0.4h-68v79.3h79.3V80.4C94.7,80.8,94.3,81,93.7,81.1z"/>
					</g>
					<g>
						<g>
							<path d="M94,48.7c0.3,0,0.8-0.1,1,0c0,0,0,0,0,0c0,0,0,0.1,0,0.1c0.1,0.3,0,0.8,0,1.2v25c0.1,0,0.1,0,0.1-0.1V48.6
								c0,0,0-0.1-0.1-0.1h-2.6c0,0.1,0,0.1,0,0.1L94,48.7L94,48.7z"/>
						</g>
						<g>
							<path d="M95.1,80.5v47.3h-78c-0.3,0-0.8,0.1-1.1,0c0,0,0,0-0.1,0c0,0,0-0.1,0-0.1c-0.1-0.3,0-0.8,0-1.1V49.1
								c0-0.6-0.1-0.5,0.5-0.5h67.4c0-0.1,0-0.1,0.1-0.1H15.9c0,0-0.1,0-0.1,0.1v79.3c0,0,0,0.1,0.1,0.1h79.3h0h0c0,0,0,0,0,0v0
								V80.4C95.2,80.4,95.1,80.5,95.1,80.5z"/>
						</g>
						<g>
							<path d="M92.8,50.3c0.1,0,0.2,0,0.3,0c0.6,0,0.4-0.1,0.4,0.5v24.7c0.1,0,0.1,0,0.1-0.1V50.2c0,0,0-0.1-0.1-0.1h-0.9
								C92.7,50.2,92.8,50.2,92.8,50.3C92.8,50.2,92.8,50.2,92.8,50.3z"/>
						</g>
						<g>
							<path d="M93.5,81.2v44c0,0.3,0.1,0.8,0,1c0,0,0,0,0,0c0,0-0.1,0-0.1,0c-0.8,0.3-2.2,0-3.1,0H17.5V51.4c0-0.3-0.1-0.8,0-1
								c0,0,0,0,0-0.1c0,0,0.1,0,0.1,0c0.3-0.1,0.8,0,1,0h63.5c0.5,0,0.9,0,1.4,0c0-0.1,0-0.1,0-0.1H17.5c0,0-0.1,0-0.1,0.1v76.1v0
								v0c0,0,0,0,0,0h0h76.1c0,0,0.1,0,0.1-0.1V81.2C93.6,81.2,93.6,81.2,93.5,81.2z"/>
						</g>
					</g>
				</g>
			</g>
			<g>
				<g>
					<path d="M80.1,75.2c-12.4,12.7-24,26.2-34.7,40.3c-0.5,0.7,0.6,1.3,1.1,0.6c10.7-14,22.2-27.4,34.5-40
						C81.5,75.6,80.6,74.7,80.1,75.2L80.1,75.2z"/>
				</g>
			</g>
			<g>
				<g>
					<path d="M81.4,83.3c-3.6,4.2-7.1,8.4-10.7,12.7c-0.5,0.6,0.4,1.5,0.9,0.9c3.6-4.2,7.1-8.4,10.7-12.7
						C82.9,83.6,82,82.7,81.4,83.3L81.4,83.3z"/>
				</g>
			</g>
		</g>
		<g>
			<g>
				<g>
					<path class="st0" d="M116.5,27.2C112,19,102.2,15,93.1,15.1c-3.1,0.1-6.2,0.5-9.3,0.8c-3,0.3-6.2,0.4-9.2,1.1
						c-5,1.1-9.6,3.8-13,7.7c-5.8,6.7-7.3,15.8-7.4,24.4c-0.1,4.6,0.3,9.2,0.6,13.7c0.4,5.7,0.7,11.4,0.5,17.2
						c-0.3,7-1.6,14.1-0.5,21.1c0.9,5.9,3.7,11.3,7.8,15.6c0.3,0.3,0.7-0.2,0.5-0.5c-3.7-3.9-6.3-8.7-7.4-14
						c-1.2-5.9-0.3-11.9,0.1-17.8c0.4-5.9,0.5-11.9,0.1-17.8c-0.3-4.2-0.7-8.5-0.8-12.7c-0.3-8.5,0.1-17.6,4.5-25.1
						c2.4-4.1,6-7.5,10.2-9.5c2.8-1.3,5.7-1.9,8.8-2.2c3.1-0.3,6.2-0.6,9.4-1c5.5-0.5,10.8-0.5,16,1.5c5,1.9,9.5,5.2,12.1,10
						C116.2,27.9,116.7,27.6,116.5,27.2L116.5,27.2z"/>
				</g>
			</g>
		</g>
		<g>
			<g>
				<g>
					<path class="st0" d="M69.2,120.9c5.6,3.5,12.9,3.5,19.3,2.9c3.3-0.3,6.6-0.8,9.9-1.3c3.5-0.6,7.4-0.9,10.4-2.8
						c0.4-0.2,0-0.8-0.3-0.6c-3,1.9-6.9,2.2-10.3,2.7c-3.2,0.6-6.5,1-9.7,1.3c-6.3,0.5-13.4,0.6-18.9-2.9
						C69.2,120.2,68.8,120.7,69.2,120.9L69.2,120.9z"/>
				</g>
			</g>
		</g>
		<g>
			<g>
				<g>
					<path class="st0" d="M76.9,17.2c0.4,0,0.4-0.6,0-0.6S76.4,17.2,76.9,17.2L76.9,17.2z"/>
				</g>
			</g>
		</g>
		<g>
			<g>
				<g>
					<path class="st0" d="M55.9,35.8c-2.3-0.2-4.7-1.4-5.7-3.6c-1.1-2.3-0.7-4.8,0.7-6.8c1.3-1.7,3.3-2.9,5.4-3.3
						c2.1-0.4,4.9-0.3,6.3,1.5c0.3,0.3,0.7-0.1,0.5-0.5c-1.5-1.8-4.4-2-6.6-1.7c-2.6,0.4-5,1.8-6.4,4c-1.4,2.1-1.6,4.8-0.5,7.1
						c1.2,2.4,3.7,3.7,6.3,3.9C56.3,36.4,56.3,35.8,55.9,35.8L55.9,35.8z"/>
				</g>
			</g>
		</g>
		<g>
			<g>
				<g>
					<path class="st0" d="M111.9,21.9c3.6-1.9,9.4-2.8,11.9,1.2c2.5,3.9,1,10.2-4,11.1c-0.4,0.1-0.2,0.7,0.2,0.6
						c5.4-0.9,7.1-7.4,4.6-11.8c-2.6-4.6-8.9-3.8-13-1.7C111.2,21.6,111.5,22.1,111.9,21.9L111.9,21.9z"/>
				</g>
			</g>
		</g>
		<g>
			<g>
				<g>
					<path class="st0" d="M83.4,41.6c0.1,0,0.2,0,0.3-0.1c0-0.1-0.1-0.2-0.1-0.3c-0.2,0.2-0.7,0.1-0.9,0.2c-0.5,0.2-1,0.6-1.5,1
						c-0.8,0.7-1.7,1.5-2.2,2.6c-0.9,2.4,2,3.8,4,3.6c1.7-0.1,3.2-0.9,4.9-1.1c1.6-0.2,3,0.4,4.6,0.8c2,0.5,4.1-0.6,3.8-3
						c-0.3-2.5-3.6-3.9-5.6-4.7c-0.2-0.1-0.3,0.2-0.1,0.3c2.1,0.8,6.2,2.5,5.3,5.5c-0.6,2.2-2.6,1.8-4.3,1.3
						c-1.2-0.3-2.3-0.7-3.5-0.5c-1.5,0.2-2.9,0.8-4.4,1c-1.6,0.3-4.9-0.3-4.6-2.5c0.2-1.4,1.6-2.6,2.7-3.3c0.4-0.3,0.7-0.5,1.2-0.6
						c0.2-0.1,0.6-0.1,0.7-0.3c0.1-0.1,0-0.3-0.1-0.3c-0.1,0-0.2,0-0.4,0.1C83.1,41.4,83.2,41.7,83.4,41.6L83.4,41.6z"/>
				</g>
			</g>
		</g>
		<g>
			<g>
				<g>
					<path class="st0" d="M91.8,48.2c0.6,1.5,0.9,3.4,0.3,4.9c-0.5,1.1-1.9,1.9-3,1.1c-0.5-0.4-0.7-0.9-0.9-1.5
						c-0.1-0.2-0.4,0-0.3,0.2c0.3,0.6,0.6,1.5,1.2,1.8c0.7,0.4,1.7,0.2,2.4-0.3c1.9-1.3,1.3-4.6,0.6-6.3C92,48,91.7,48.1,91.8,48.2
						L91.8,48.2z"/>
				</g>
			</g>
		</g>
		<g>
			<g>
				<g>
					<path class="st0" d="M62.9,116.8c3-1.6,4.7,2.3,6.8,3.8c0-0.1,0-0.2,0-0.3c-1.7,0.3-3.1,1.4-4.5,2.5c-1.5,1.1-3.6,2.9-5.5,1.8
						c-4.7-2.7,1.7-6.8,4.2-8.1c0.2-0.1,0-0.4-0.2-0.3c-2.4,1.2-8.2,4.6-5.2,7.8c3.6,3.9,7.7-2.8,11.3-3.4c0.2,0,0.1-0.2,0-0.3
						c-2.3-1.5-3.8-5.4-7.1-3.8C62.5,116.7,62.7,116.9,62.9,116.8L62.9,116.8z"/>
				</g>
			</g>
		</g>
		<g>
			<g>
				<g>
					<path class="st0" d="M59.4,124.1c-0.5-1.8,0.8-3.2,2.3-4c0.2-0.1,0-0.4-0.2-0.3c-1.6,0.8-3,2.4-2.5,4.3
						C59.1,124.4,59.5,124.3,59.4,124.1L59.4,124.1z"/>
				</g>
			</g>
		</g>
		<g>
			<g>
				<g>
					<path class="st0" d="M114.3,124.1c-1.8-1-2.7-2.8-4.3-4.1c-0.6-0.5-1.4-0.7-0.6-2.1c0.3-0.5,1-0.9,1.5-1.2
						c1.2-0.8,2.5-1.2,3.9-0.7c2.1,0.7,3.6,2.9,4,4.9c0.3,1.1,0.2,2.4-0.7,3.3C117.1,125,115.5,124.7,114.3,124.1
						c-0.2-0.1-0.4,0.2-0.2,0.3c2,1,4.8,0.8,5.1-1.9c0.4-2.6-1.6-5.7-4-6.7c-1.3-0.5-2.6-0.4-3.8,0.2c-0.9,0.5-2.8,1.6-2.9,2.8
						c-0.1,1,1.4,1.6,1.9,2.3c1.1,1.2,2.1,2.5,3.5,3.4C114.3,124.5,114.5,124.2,114.3,124.1z"/>
				</g>
			</g>
		</g>
		<g>
			<g>
				<g>
					<path class="st0" d="M115.3,120c1.2,1.2,2.1,2.7,2.1,4.4c0,0.2,0.3,0.2,0.3,0c-0.1-1.8-1-3.4-2.2-4.7
						C115.4,119.6,115.2,119.8,115.3,120L115.3,120z"/>
				</g>
			</g>
		</g>
		<g>
			<g>
				<g>
					<path class="st0" d="M98.4,77.6c-0.6,0.3-0.9,1.1-1.3,1.6c-1.2,1.4-3.5,2.4-5.4,2c-0.9-0.2-1.9-0.7-2.4-1.6
						c-0.7-1.3,0.3-2.4,1.3-3.1c1.3-0.8,2.8-1,4.2-1.3c0.2,0,0.1-0.3-0.1-0.3c-1.9,0.3-3.9,0.6-5.2,2.1c-1,1.2-1,2.5,0.2,3.5
						c1.4,1.2,3.4,1.2,5,0.5c0.9-0.4,1.8-0.9,2.4-1.6c0.5-0.5,0.7-1.4,1.4-1.7C98.7,77.7,98.6,77.4,98.4,77.6L98.4,77.6z"/>
				</g>
			</g>
		</g>
		<g>
			<g>
				<g>
					<path class="st0" d="M92.4,78.2c-1,0.7-2.7,1.2-3.4-0.2c-0.1-0.2-0.4,0-0.3,0.2c0.7,1.6,2.6,1.1,3.8,0.3
						C92.8,78.3,92.6,78.1,92.4,78.2L92.4,78.2z"/>
				</g>
			</g>
		</g>
		<g>
			<path class="st0" d="M100.5,41.4C94.7,41.4,90,36.7,90,31s4.7-10.5,10.5-10.5S111,25.2,111,31S106.3,41.4,100.5,41.4z
				 M100.5,20.9c-5.6,0-10.1,4.5-10.1,10.1s4.5,10.1,10.1,10.1s10.1-4.5,10.1-10.1S106.1,20.9,100.5,20.9z"/>
		</g>
		<g>
			<path class="st0" d="M74.6,42.5c-5.8,0-10.5-4.7-10.5-10.5c0-5.8,4.7-10.5,10.5-10.5c5.8,0,10.5,4.7,10.5,10.5
				C85.1,37.8,80.4,42.5,74.6,42.5z M74.6,22c-5.6,0-10.1,4.5-10.1,10.1c0,5.6,4.5,10.1,10.1,10.1c5.6,0,10.1-4.5,10.1-10.1
				C84.7,26.5,80.1,22,74.6,22z"/>
		</g>
		<g>
			<path class="st0" d="M120.2,26.9c0-1.2-1-2.2-2.2-2.2c-1.2,0-2.2,1-2.2,2.2s1,2.2,2.2,2.2C119.2,29.1,120.2,28.1,120.2,26.9z"/>
		</g>
		<g>
			<circle class="st0" cx="56.9" cy="28.8" r="2.2"/>
		</g>
		<g>
			<path class="st0" d="M92.2,40.5c0-1.4-2.1-2.6-4.6-2.6c-2.5,0-4.6,1.2-4.6,2.6c0,1.4,2.1,2.6,4.6,2.6
				C90.1,43,92.2,41.9,92.2,40.5z"/>
		</g>
		<g>
			<path class="st0" d="M95.1,28.2c-1.9,0-3.4,1.5-3.4,3.4c0,1.9,1.5,3.4,3.4,3.4c1.9,0,3.4-1.5,3.4-3.4
				C98.5,29.7,97,28.2,95.1,28.2z M96.4,33.7c-0.5,0-0.9-0.4-0.9-0.9c0-0.5,0.4-0.9,0.9-0.9c0.5,0,0.9,0.4,0.9,0.9
				C97.4,33.3,97,33.7,96.4,33.7z"/>
		</g>
		<g>
			<path class="st0" d="M69,29c-1.9,0-3.4,1.5-3.4,3.4c0,1.9,1.5,3.4,3.4,3.4c1.9,0,3.4-1.5,3.4-3.4C72.4,30.5,70.8,29,69,29z
				 M70.3,34.5c-0.5,0-0.9-0.4-0.9-0.9c0-0.5,0.4-0.9,0.9-0.9c0.5,0,0.9,0.4,0.9,0.9C71.3,34.1,70.9,34.5,70.3,34.5z"/>
		</g>
		<g>
			<g>
				<g>
					<path class="st0" d="M87.9,47.5c0.3,1.3,0.2,3,0,4.4c-0.1,0.8-0.3,1.7-0.9,2.3c-0.7,0.7-1.9,0.6-2.6,0c-1.4-1.3-1-4.2-0.5-5.8
						c0.1-0.2-0.3-0.3-0.3-0.1c-0.6,1.9-1,5.9,1.5,6.6c1.2,0.4,2.2-0.3,2.7-1.4c0.4-1,0.4-2.1,0.4-3.1c0-1,0.1-2-0.1-2.9
						C88.1,47.3,87.8,47.3,87.9,47.5L87.9,47.5z"/>
				</g>
			</g>
		</g>
		<g>
			<g>
				<g>
					<path class="st0" d="M55.6,69.6c-2.3-0.4-4.8,0.7-6.5,2.3c-1.2,1.1-1.9,2.8-0.2,3.7c0.2,0.1,0.3-0.2,0.2-0.3
						c-2.1-1.2,0-3.2,1.2-4c1.5-1,3.3-1.7,5.2-1.4C55.7,69.9,55.8,69.6,55.6,69.6L55.6,69.6z"/>
				</g>
			</g>
		</g>
		<g>
			<g>
				<g>
					<path class="st0" d="M50.7,73.9c-0.7,0.3-1.6,0.9-1.6,1.8c0,0.8,0.8,1.2,1.5,1.3c2,0.3,4.1-1.8,5.2-3.3
						c0.1-0.2-0.2-0.3-0.3-0.2c-0.8,1.1-2,2.2-3.3,2.8c-0.7,0.4-2.2,0.7-2.7-0.3c-0.5-0.9,0.7-1.6,1.3-1.9
						C51.1,74,50.9,73.8,50.7,73.9L50.7,73.9z"/>
				</g>
			</g>
		</g>
		<g>
			<g>
				<g>
					<path class="st0" d="M115.4,26.4c6.2,9,5.4,20.8,5.4,31.2c-0.1,13,1.7,25.9,1,38.9c-0.2,3.5-0.7,7-1.9,10.3
						c-1.1,3.1-3.3,5.6-4.9,8.5c-0.2,0.4,0.4,0.7,0.6,0.3c1.4-2.5,3.3-4.7,4.4-7.3c1.2-2.7,1.7-5.7,2.1-8.6c0.8-6.6,0.4-13.4,0.1-20
						c-0.4-6.9-0.8-13.7-0.8-20.6c0-5.4,0.2-10.8-0.2-16.2c-0.5-5.9-1.8-11.9-5.2-16.8C115.8,25.7,115.2,26.1,115.4,26.4L115.4,26.4
						z"/>
				</g>
			</g>
		</g>
		<g>
			<g>
				<g>
					<path class="st0" d="M108.6,119.4c0.1,0,0.1,0,0.2,0c0.2,0,0.2-0.3,0-0.3h0c-0.1,0-0.1,0-0.1,0.1l0,0c0,0,0,0,0,0
						c0.1,0.1,0.1,0.1,0.2,0.2c0-0.1,0.1-0.1,0.1-0.2C108.8,119.3,108.7,119.3,108.6,119.4c0,0,0.1,0.1,0.2,0.1
						c0.2,0.2,0.4-0.1,0.2-0.2c-0.1-0.1-0.1-0.1-0.2-0.2c-0.1-0.1-0.2-0.1-0.3,0.1c0,0.1-0.1,0.1-0.1,0.2c-0.1,0.1,0.1,0.2,0.2,0.2
						c0.1,0,0.2-0.1,0.2-0.2c-0.1,0-0.1,0.1-0.1,0.1h0c0.2,0,0.2-0.3,0-0.3c-0.1,0-0.1,0-0.2,0C108.4,119.1,108.4,119.4,108.6,119.4
						L108.6,119.4z"/>
				</g>
			</g>
		</g>
		<g>
			<g>
				<g>
					<path d="M92.8,49c-0.1,0.1-0.1,0.1-0.2,0.2c0-0.1,0.1-0.2,0.1-0.3c-0.1,0-0.2-0.1-0.3-0.2c-0.1,0.1-0.2,0.1-0.3,0.2
						c0.1,0.2,0.2,0.4,0.2,0.6c0.1,0,0.2-0.1,0.3-0.1c-0.1-0.1-0.1-0.2-0.1-0.3c-0.1-0.2-0.3-0.1-0.3,0.1c0,0.3,0.1,0.6,0.2,0.8
						c0.1,0.1,0.2,0.1,0.3,0c0.1-0.1,0.1-0.2,0.1-0.3c0-0.2-0.2-0.2-0.3-0.1c-0.1,0.1-0.2,0.2-0.2,0.4c0,0.1,0.1,0.2,0.2,0.1
						c0.1-0.1,0.2-0.2,0.3-0.3c-0.1,0-0.2,0-0.3,0c0,0,0,0,0,0c-0.2,0-0.1,0.3,0.1,0.3c0.1,0,0.2,0,0.3,0c0-0.1,0-0.2-0.1-0.3
						c-0.1,0-0.2,0.1-0.3,0.1c-0.2,0.1-0.1,0.3,0.1,0.3c0.4-0.1,0.7-0.1,1-0.2c0.2,0,0.1-0.3-0.1-0.3c-0.4,0.1-0.7,0.1-1,0.2
						c0,0.1,0.1,0.2,0.1,0.3c0.1,0,0.2-0.1,0.3-0.1c0.2-0.1,0.1-0.3-0.1-0.3c-0.1,0-0.2,0-0.3,0c0,0.1,0,0.2,0.1,0.3
						c0.2,0,0.3-0.2,0.2-0.4c-0.1-0.2-0.3-0.2-0.3,0c0,0-0.1,0.1-0.1,0.1c0.1,0.1,0.2,0.1,0.2,0.1c0-0.1,0-0.1,0.1-0.2
						c-0.1,0-0.2-0.1-0.3-0.1c0,0,0,0,0,0.1c0.1,0,0.2,0,0.3,0c-0.1-0.2-0.2-0.4-0.2-0.6c-0.1,0-0.2,0.1-0.3,0.1
						c0.1,0.1,0.1,0.2,0.1,0.3c0.1,0.2,0.3,0.1,0.3-0.1c0-0.3-0.1-0.6-0.3-0.8c-0.1-0.2-0.4,0-0.3,0.2c0.1,0.2,0.3,0.3,0.5,0.3
						c0.2,0.1,0.3-0.2,0.1-0.3c-0.3-0.1-0.4,0.5,0.1,0.5C93,49.3,93,49,92.8,49L92.8,49z"/>
				</g>
			</g>
		</g>
		<g>
			<g>
				<g>
					<path d="M92.5,49c0.1,0,0.1-0.1,0.2-0.1c0.1-0.1,0.1-0.3,0-0.3c-0.1,0-0.2-0.1-0.3-0.1c-0.2-0.1-0.3,0.2-0.1,0.3
						c0.2,0.1,0.4,0.2,0.6,0.2c0.2,0,0.2-0.3,0-0.3c-0.2,0-0.3,0-0.5-0.1c-0.1,0.1-0.1,0.2-0.1,0.3C92.4,48.9,92.5,48.9,92.5,49
						c0.1-0.2,0.1-0.3,0.1-0.3c-0.1,0-0.1,0.1-0.2,0.1C92.1,48.8,92.3,49.1,92.5,49L92.5,49z"/>
				</g>
			</g>
		</g>
	</g>
</g>
</svg>
