<?xml version="1.0" encoding="utf-8"?>
<!-- Generator: Adobe Illustrator 24.0.1, SVG Export Plug-In . SVG Version: 6.00 Build 0)  -->
<svg version="1.1" id="Layer_1" xmlns="http://www.w3.org/2000/svg" xmlns:xlink="http://www.w3.org/1999/xlink" x="0px" y="0px"
	 viewBox="0 0 141.7 141.7" style="enable-background:new 0 0 141.7 141.7;" xml:space="preserve">
<style type="text/css">
	.st0{fill:#070707;}
</style>
<g id="Layer_1_1_">
</g>
<g>
	<g>
		<g>
			<g>
				<path d="M61.6,97.9c0,5.8,0,11.5,0,17.3c0,0.4,0.7,0.4,0.7,0c0-5.8,0-11.5,0-17.3C62.3,97.5,61.6,97.5,61.6,97.9L61.6,97.9z"/>
			</g>
			<g>
				<path d="M102.6,91.8c1.3,9.4,2.4,18.7,3.4,28.1c0.1,0.4,0.7,0.4,0.7,0c-1-9.4-2.2-18.9-3.4-28.3
					C103.2,91.2,102.5,91.3,102.6,91.8L102.6,91.8z"/>
			</g>
			<g>
				<path d="M110,93.2c1.4,9.1,2.8,18.3,4.2,27.5c0.1,0.4,0.7,0.2,0.6-0.2c-1.4-9.1-2.8-18.3-4.2-27.5
					C110.6,92.6,109.9,92.8,110,93.2L110,93.2z"/>
			</g>
			<g>
				<path d="M65.2,92.6c9.7-2.9,19.7-5.2,29.7-6.8c0.4-0.1,0.2-0.7-0.2-0.6c-10,1.6-20,3.8-29.7,6.8C64.6,92.1,64.8,92.7,65.2,92.6
					L65.2,92.6z"/>
			</g>
			<g>
				<path d="M104.6,85.5C104.6,85.5,104.6,85.5,104.6,85.5c0.1-0.1,0.2-0.2,0.2-0.3c0.1,0,0.1,0,0.2,0.1c0,0.1,0.1,0.2,0.1,0.2
					c0,0,0,0,0-0.1c0,0.1-0.1,0.2-0.1,0.2c-0.1,0-0.1,0.1,0,0.1c0.1,0.1,0.2,0.1,0.3,0.1c0.2,0.1,0.3,0.1,0.5,0.2
					c0.4,0.2,0.7,0.3,1.1,0.5c0.4,0.2,0.6-0.5,0.2-0.6c-0.5-0.2-0.9-0.4-1.4-0.6c-0.3-0.1-0.7-0.4-1-0.3c-0.5,0.2-0.3,0.9,0.3,0.8
					c0.1,0,0.3-0.2,0.2-0.3c0,0,0,0,0-0.1C105.2,85,104.6,85,104.6,85.5L104.6,85.5z"/>
			</g>
			<g>
				<path d="M104.9,85.9C105,85.9,105,85.9,104.9,85.9c0.2-0.1,0.2-0.2,0.2-0.3c0-0.2-0.1-0.3-0.2-0.4c-0.1-0.1-0.2-0.1-0.3,0
					c-0.3,0.2-0.3,0.4-0.5,0.7c-0.2,0.6-0.4,1.2-0.6,1.8c-0.4,1.3-0.8,2.5-1.2,3.7c0.2-0.1,0.4-0.1,0.6-0.2c-1-1.1-2.4-2-3.6-2.8
					c-1.4-1-2.9-2.1-4.3-3.1c-0.3-0.2-0.7,0.3-0.3,0.6c1.3,1,2.7,1.9,4,2.9c1.2,0.9,2.7,1.7,3.7,2.9c0.2,0.2,0.5,0.1,0.6-0.2
					c0.3-1,0.6-2,0.9-2.9c0.1-0.4,0.3-0.9,0.4-1.3c0.1-0.3,0.2-0.5,0.3-0.8c0.1-0.1,0.5-1.5,0-1.3C104.2,85.5,104.5,86.1,104.9,85.9
					L104.9,85.9z"/>
			</g>
			<g>
				<path d="M94.9,85.8c3.1-1.6,6.7-1.6,9.8-0.1c0.4,0.2,0.7-0.4,0.3-0.6c-3.3-1.6-7.2-1.6-10.5,0.1C94.2,85.4,94.6,85.9,94.9,85.8
					L94.9,85.8z"/>
			</g>
			<g>
				<path d="M101.5,84.5c0.4,2.2,0.6,4.5,0.9,6.7c0,0.4,0.7,0.4,0.7,0c-0.2-2.3-0.5-4.6-0.9-6.9C102,83.9,101.4,84,101.5,84.5
					L101.5,84.5z"/>
			</g>
			<g>
				<path d="M106.7,86.4c1,2.4,2.1,4.7,3.3,7c0.2,0.3,0.6,0.2,0.6-0.2c0.1-2.2-0.1-4.4-0.4-6.6c0-0.1-0.1-0.2-0.2-0.2
					c-1-0.2-1.9-0.5-2.9-0.7c-0.4-0.1-0.6,0.5-0.2,0.6c0.7,0.2,1.4,0.3,2.1,0.5c0.6,0.1,0.6,0.3,0.7,0.9c0.1,0.3,0.1,0.7,0.1,1
					c0.1,1.5,0.2,3,0.2,4.5c0.2-0.1,0.4-0.1,0.6-0.2c-1.2-2.2-2.3-4.5-3.3-6.8C107.2,85.9,106.6,86,106.7,86.4L106.7,86.4z"/>
			</g>
			<g>
				<path d="M61.8,115.5c0.8,1.5,1.5,3,2.2,4.5c0.1-0.2,0.2-0.3,0.4-0.5c-1.1-0.2-2.3-0.2-3.5-0.2c0.1,0.1,0.2,0.3,0.3,0.4
					c0.1-0.7,0.2-1.5,0.3-2.2c0.1-0.3,0.1-0.7,0.2-1c0-0.2,0.1-0.3,0.1-0.5c0.2-0.3,0.1-0.5-0.3-0.6c0.1-0.1,0.2-0.2,0.2-0.3
					c0,0-0.1,0-0.1,0c-0.4,0.1-0.2,0.7,0.2,0.6c0,0,0.1,0,0.1,0c0.2,0,0.2-0.2,0.2-0.3c0-0.2-0.1-0.3-0.2-0.5
					c-0.1-0.1-0.2-0.1-0.3,0c-0.5,0.4-0.5,1.1-0.6,1.7c-0.2,1-0.3,2-0.5,2.9c0,0.2,0.1,0.4,0.3,0.4c1.1-0.1,2.2,0,3.3,0.2
					c0.3,0.1,0.5-0.2,0.4-0.5c-0.7-1.5-1.4-3-2.2-4.5C62.2,114.8,61.6,115.1,61.8,115.5L61.8,115.5z"/>
			</g>
			<g>
				<path d="M61.8,98.7c1.2-2.2,2.4-4.4,3.6-6.6c0.1-0.3-0.1-0.5-0.4-0.5c-0.9,0.2-1.8,0.4-2.8,0.6c-0.5,0.1-1.1,0.2-1.3,0.8
					c-0.3,0.7-0.1,1.8-0.1,2.5c0,1,0.1,2.1,0.2,3.1c0,0.3,0.3,0.5,0.6,0.2c0.1-0.1,0.2-0.2,0.3-0.3c0.3-0.3-0.2-0.8-0.5-0.5
					c-0.1,0.1-0.2,0.2-0.3,0.3c0.2,0.1,0.4,0.2,0.6,0.2c-0.2-1.5-0.2-3-0.2-4.5c0-0.5-0.1-0.8,0.4-1.1c0.2-0.2,0.7-0.2,1-0.3
					c0.7-0.2,1.5-0.3,2.3-0.5c-0.1-0.2-0.2-0.3-0.4-0.5c-1.2,2.2-2.4,4.4-3.6,6.6C61.1,98.8,61.6,99.1,61.8,98.7L61.8,98.7z"/>
			</g>
			<g>
				<path d="M64.4,120.2c12.6,1.6,25.3,3.1,38,4.7c0.4,0.1,0.4-0.6,0-0.7c-12.6-1.6-25.3-3.1-38-4.7C64,119.5,64,120.1,64.4,120.2
					L64.4,120.2z"/>
			</g>
			<g>
				<path d="M106,120.4c0,0.6,0.1,1.2,0.1,1.8c0,0.3,0,0.7,0.1,1c0,0.2,0.1,0.7,0,0.9c0.1,0.2,0,0.2-0.2,0.2c-0.2,0-0.3,0-0.5,0
					c-0.3,0-0.6,0-0.9,0c-0.6,0-1.3,0-1.9,0c0.1,0.2,0.2,0.4,0.2,0.6c1.3-1.4,2.4-3,3.2-4.7c0.2-0.4-0.4-0.7-0.6-0.3
					c-0.8,1.7-1.8,3.2-3.1,4.6c-0.2,0.2-0.1,0.6,0.2,0.6c0.9,0,1.8,0,2.7,0c0.3,0,1,0.1,1.2-0.2c0.3-0.3,0.1-1.1,0.1-1.5
					c-0.1-0.9-0.1-1.9-0.1-2.8C106.6,120,105.9,120,106,120.4L106,120.4z"/>
			</g>
			<g>
				<path d="M106.7,124.9c2.7-1.2,5.4-2.4,8.1-3.4c0.4-0.2,0.2-0.8-0.2-0.6c-2.8,1.1-5.5,2.2-8.3,3.5
					C106,124.5,106.3,125,106.7,124.9L106.7,124.9z"/>
			</g>
			<g>
				<path d="M106.6,120.3C106.6,120.3,106.6,120.3,106.6,120.3c0.1-0.1,0.2-0.2,0.1-0.3c-0.1-0.3-0.6-0.5-0.8-0.2
					c-0.4,0.5,0.5,1.2,0.7,1.5c0.3,0.3,2.3,3.1,2.7,1.8c0.1-0.4-0.5-0.6-0.6-0.2c0.1-0.1,0.1-0.3-0.1-0.3c-0.1-0.1-0.2-0.2-0.3-0.3
					c-0.2-0.2-0.4-0.5-0.6-0.7c-0.2-0.2-0.4-0.5-0.6-0.7c-0.1-0.1-0.2-0.2-0.3-0.3c-0.2-0.2-0.4-0.4-0.7-0.3c0-0.1,0.1-0.2,0.1-0.3
					c0,0,0,0-0.1,0C105.8,120.1,106.3,120.5,106.6,120.3L106.6,120.3z"/>
			</g>
			<g>
				<path d="M112.7,122.2c0.6-1.4,1.1-2.9,1.6-4.4c0.1-0.4-0.5-0.6-0.6-0.2c-0.5,1.5-1,2.9-1.6,4.4
					C111.9,122.4,112.5,122.6,112.7,122.2L112.7,122.2z"/>
			</g>
			<g>
				<path d="M105.4,86.3c2.3,11.8,4.5,23.6,6.8,35.4c0.1,0.4,0.7,0.2,0.6-0.2c-2.3-11.8-4.5-23.6-6.8-35.4
					C106,85.7,105.4,85.9,105.4,86.3L105.4,86.3z"/>
			</g>
			<g>
				<path d="M66.9,97.5c-0.5,0.2-0.6,0.6-0.6,1.1c0.1,0.4,0.2,0.9,0.7,0.9c0.5-0.1,0.7-0.5,0.7-0.9c0-0.4-0.2-0.8-0.5-1.1
					c-0.3-0.3-0.8,0.2-0.5,0.5c0.2,0.2,0.4,0.5,0.2,0.7c0,0.1-0.1,0.1,0,0.1c0,0-0.1-0.2-0.1-0.2c0-0.1-0.1-0.4,0.1-0.5
					C67.5,98,67.3,97.3,66.9,97.5L66.9,97.5z"/>
			</g>
			<g>
				<path d="M71.9,96.9c-0.2,0.4-0.4,1-0.2,1.4c0.2,0.4,0.7,0.6,1,0.3c0.3-0.3,0.5-0.7,0.5-1.2c-0.1-0.5-0.5-0.9-1-0.7
					c-0.4,0.1-0.2,0.7,0.2,0.6c0.2-0.1,0.2,0.7-0.1,0.7c-0.1,0-0.1-0.1-0.1-0.2c0-0.2,0.1-0.4,0.2-0.6
					C72.7,96.8,72.2,96.5,71.9,96.9L71.9,96.9z"/>
			</g>
			<g>
				<path d="M84.9,95c-0.3,0.2-0.4,0.6-0.4,1c0.1,0.3,0.3,0.7,0.7,0.7c0.4,0,0.6-0.3,0.7-0.7c0.1-0.4-0.1-0.8-0.4-1.1
					s-0.8,0.2-0.5,0.5c0.1,0.1,0.2,0.2,0.2,0.4c0,0.1,0,0.1,0,0.2c0,0-0.1,0.1,0,0.1c0,0-0.1-0.2,0-0.2c0-0.1,0.1-0.2,0.2-0.3
					C85.7,95.2,85.3,94.7,84.9,95L84.9,95z"/>
			</g>
			<g>
				<path d="M92.5,93.7c-0.3,0.4-0.5,0.8-0.3,1.3c0.2,0.4,0.7,0.6,1.1,0.4c0.4-0.2,0.6-0.7,0.5-1.1c-0.1-0.4-0.5-0.8-0.9-0.7
					c-0.4,0.1-0.4,0.7,0,0.7c0.3,0,0.3,0.5,0.1,0.6c-0.1,0.1-0.2,0.1-0.2-0.1c-0.1-0.2,0.1-0.4,0.2-0.5
					C93.3,93.9,92.8,93.4,92.5,93.7L92.5,93.7z"/>
			</g>
			<g>
				<path d="M68.8,91c-0.1,1.8,0,3.7,0.1,5.5c0,0.4,0.7,0.4,0.7,0c-0.2-1.8-0.2-3.7-0.1-5.5C69.5,90.6,68.8,90.6,68.8,91L68.8,91z"
					/>
			</g>
			<g>
				<path d="M70.6,90.7c0,1.7,0,3.5-0.1,5.2c0,0.4,0.6,0.4,0.7,0c0.1-1.7,0.1-3.5,0.1-5.2C71.3,90.3,70.6,90.3,70.6,90.7L70.6,90.7z
					"/>
			</g>
			<g>
				<path d="M67,98c0.2-1.3,2-1,3-1.3c0.4-0.1,0.7-0.3,1.1-0.4c0.8-0.2,1.6,0.2,2,0.8c0.3,0.5,0.2,0.7-0.1,1.2
					c-0.1,0.2-0.3,0.5-0.5,0.6c-0.5,0.6-1.1,0.5-1.8,0.5c-0.4,0-0.8,0-1.2,0.1c-0.6,0.1-2.4,0.9-2.5-0.3c0-0.4-0.7-0.4-0.7,0
					c0.2,2.2,2.8,0.9,4.1,0.9c0.9,0,1.7,0.1,2.4-0.5c0.6-0.5,1.2-1.3,1.2-2c0.1-1.6-2.1-2.3-3.3-1.9c-0.5,0.2-0.9,0.4-1.4,0.5
					c-0.5,0.1-1,0.1-1.5,0.2c-0.7,0.2-1.3,0.7-1.4,1.4C66.3,98.2,66.9,98.4,67,98L67,98z"/>
			</g>
			<g>
				<path d="M68.6,100.2c-0.1,0.8-0.2,1.6-0.5,2.3c-0.2,0.6-0.7,1.1-0.9,1.7c-0.2,0.7,0.3,1.3,1,1.3c1-0.1,1.6-1.3,2-2.1
					c0.5-1.1,0.6-2.3,0.7-3.5c0-0.4-0.6-0.4-0.7,0c-0.1,0.8-0.2,1.7-0.4,2.5c-0.1,0.4-0.3,0.8-0.5,1.2c-0.1,0.2-0.2,0.3-0.3,0.5
					c-0.3,0.4-0.3,0.6-0.9,0.5c-0.5-0.1-0.3-0.2-0.1-0.6c0.1-0.2,0.2-0.3,0.3-0.5c0.2-0.3,0.3-0.6,0.4-0.9c0.3-0.8,0.4-1.6,0.5-2.4
					C69.3,99.7,68.7,99.7,68.6,100.2L68.6,100.2z"/>
			</g>
			<g>
				<path d="M68.7,104.2c0.4,0,0.4-0.7,0-0.7C68.3,103.5,68.3,104.2,68.7,104.2L68.7,104.2z"/>
			</g>
			<g>
				<path d="M69.2,102.8c0.4,0,0.4-0.7,0-0.7C68.8,102.2,68.8,102.8,69.2,102.8L69.2,102.8z"/>
			</g>
			<g>
				<path d="M69.6,101.2c0.4,0,0.4-0.7,0-0.7S69.2,101.2,69.6,101.2L69.6,101.2z"/>
			</g>
			<g>
				<path d="M70,95.8c0.4,0,0.4-0.7,0-0.7S69.6,95.8,70,95.8L70,95.8z"/>
			</g>
			<g>
				<path d="M69.9,94.7C70,94.7,70,94.7,69.9,94.7c0.3,0,0.4-0.2,0.4-0.3c0-0.2-0.1-0.3-0.3-0.3c0,0-0.1,0-0.1,0
					c-0.2,0-0.3,0.2-0.3,0.3C69.6,94.6,69.8,94.7,69.9,94.7L69.9,94.7z"/>
			</g>
			<g>
				<path d="M68.8,104.7c-0.2,5.2-0.2,10.4,0.1,15.6c0,0.4,0.7,0.4,0.7,0c-0.3-5.2-0.3-10.4-0.1-15.6
					C69.5,104.3,68.8,104.3,68.8,104.7L68.8,104.7z"/>
			</g>
			<g>
				<path d="M70.8,99.9c0.3,7-0.6,13.9,0.4,20.9c0.1,0.4,0.7,0.2,0.6-0.2c-0.9-6.9-0.1-13.8-0.3-20.7C71.5,99.5,70.8,99.5,70.8,99.9
					L70.8,99.9z"/>
			</g>
			<g>
				<path d="M84.6,96.5c0.5,0.7,1.3,2,2.2,2c0.6,0,1.1-0.4,1.7-0.6c0.9-0.3,1.7-0.2,2.6-0.1c1.1,0.2,1.9-0.1,2.8-0.9
					c0.6-0.5,2-1.7,2-2.6c-0.1-0.8-1.6-1.5-2.2-1.8c-1.1-0.5-2-0.3-3.2,0c-1.8,0.5-5.8,0.1-5.7,2.9c0,0.4,0.7,0.4,0.7,0
					c-0.1-2.2,3.5-1.9,4.9-2.2c1-0.2,1.9-0.6,2.9-0.2c0.5,0.2,0.9,0.4,1.3,0.7c0.5,0.4,0.8,0.6,0.4,1.2c-0.5,0.7-1.2,1.5-2,2
					c-1,0.6-2,0-3,0.1c-0.7,0-1.4,0.2-2.1,0.5c-0.5,0.2-0.9,0.4-1.4-0.1c-0.4-0.3-0.8-0.9-1.1-1.3C84.9,95.9,84.4,96.2,84.6,96.5
					L84.6,96.5z"/>
			</g>
			<g>
				<path d="M88.3,97.8c0.1,0.9,0.1,1.8,0,2.7c-0.1,0.8-0.3,1.7-0.3,2.5c0.1,1,1,1.1,1.8,0.7c0.6-0.3,1.2-0.7,1.6-1.2
					c0.3-0.4,0.3-0.9,0.3-1.4c0-0.9,0-1.8,0-2.6c0-0.5,0.1-0.9-0.3-1.2c-0.4-0.2-0.7,0.3-0.3,0.6c0.1,0.1,0,1.1,0,1.3
					c0,0.4,0,0.9,0,1.3c0,0.4,0.1,1-0.1,1.3c-0.1,0.4-1,1.2-1.4,1.3c-0.3,0.1-0.8-0.3-0.9-0.6c0-0.1,0.1-0.4,0.1-0.5
					c0.1-0.4,0.1-0.8,0.1-1.2c0.1-0.9,0.1-1.9,0-2.8C88.9,97.4,88.2,97.4,88.3,97.8L88.3,97.8z"/>
			</g>
			<g>
				<path d="M87.4,86.8c0,2.1,0.1,4.2,0.3,6.3c0.1,0.4,0.7,0.4,0.7,0c-0.2-2.1-0.3-4.2-0.3-6.3C88,86.3,87.4,86.3,87.4,86.8
					L87.4,86.8z"/>
			</g>
			<g>
				<path d="M89.9,86.4c0.1,2.1,0.3,4.2,0.4,6.3c0,0.4,0.7,0.4,0.7,0c-0.1-2.1-0.3-4.2-0.4-6.3C90.6,86,89.9,86,89.9,86.4L89.9,86.4
					z"/>
			</g>
			<g>
				<path d="M89.3,102.3C89.3,102.3,89.4,102.3,89.3,102.3c0.2,0.2,0.4,0.2,0.6,0.1s0.1-0.3,0-0.5c0,0-0.1-0.1-0.1-0.1
					c-0.1-0.1-0.3-0.1-0.5,0S89.2,102.1,89.3,102.3L89.3,102.3z"/>
			</g>
			<g>
				<path d="M89.7,100.5c0.4,0,0.4-0.7,0-0.7C89.2,99.8,89.2,100.5,89.7,100.5L89.7,100.5z"/>
			</g>
			<g>
				<path d="M89.8,98.5c0.4,0,0.4-0.7,0-0.7C89.3,97.8,89.3,98.5,89.8,98.5L89.8,98.5z"/>
			</g>
			<g>
				<path d="M88.8,92.3C88.8,92.3,88.8,92.3,88.8,92.3c0,0.3,0.2,0.4,0.3,0.4s0.3-0.1,0.3-0.3c0,0,0-0.1,0-0.1
					c0-0.2-0.2-0.3-0.3-0.3C89,91.9,88.8,92.1,88.8,92.3L88.8,92.3z"/>
			</g>
			<g>
				<path d="M89.1,91.1c0.4,0,0.4-0.7,0-0.7S88.6,91.1,89.1,91.1L89.1,91.1z"/>
			</g>
			<g>
				<path d="M88.6,103.5c0.3,6.4,0.8,12.9,1.6,19.3c0.1,0.4,0.7,0.4,0.7,0c-0.7-6.4-1.2-12.9-1.6-19.3
					C89.3,103.1,88.6,103.1,88.6,103.5L88.6,103.5z"/>
			</g>
			<g>
				<path d="M91.1,102.1c0.5,7.1,1.3,14.3,2.4,21.3c0.1,0.4,0.7,0.2,0.6-0.2c-1.1-7-1.9-14.1-2.4-21.1
					C91.7,101.7,91.1,101.6,91.1,102.1L91.1,102.1z"/>
			</g>
			<g>
				<path d="M80,90.1c-0.4,1.4-0.8,2.9-1,4.3c-0.1,0.7-0.2,1.3-0.3,2c-0.1,0.3-0.1,0.5,0.1,0.8c0.1,0.1,0.3,0.1,0.5,0l0,0
					c0.1-0.1,0.1-0.3,0-0.5l0,0c-0.3-0.3-0.8,0.2-0.5,0.5l0,0c0-0.2,0-0.3,0-0.5l0,0c0.2,0,0.3,0,0.5,0c0.2,0.2,0.1-0.4,0.2-0.6
					c0.1-0.3,0.1-0.6,0.1-0.9c0.1-0.6,0.2-1.1,0.3-1.7c0.2-1.1,0.5-2.2,0.9-3.3C80.8,89.8,80.2,89.7,80,90.1L80,90.1z"/>
			</g>
			<g>
				<path d="M84.7,90.2c-0.6,2.6-1.3,5.2-1.8,7.8c-0.1,0.4,0.6,0.6,0.6,0.2c0.5-2.6,1.1-5.2,1.8-7.8C85.5,89.9,84.8,89.8,84.7,90.2
					L84.7,90.2z"/>
			</g>
			<g>
				<path d="M80.2,90.4c1.4,0.1,2.9,0.2,4.3,0.3c0.4,0,0.4-0.6,0-0.7c-1.4-0.1-2.9-0.2-4.3-0.3C79.8,89.7,79.8,90.4,80.2,90.4
					L80.2,90.4z"/>
			</g>
			<g>
				<path d="M78.7,97.2c0.2,0.5,0.9,0.5,1.3,0.6c0.9,0.2,1.7,0.3,2.5,0.5c0.4,0.1,0.6-0.6,0.2-0.6c-0.6-0.1-1.1-0.2-1.7-0.3
					c-0.1,0-1.7-0.2-1.7-0.3C79.2,96.6,78.6,96.8,78.7,97.2L78.7,97.2z"/>
			</g>
			<g>
				<path d="M82.9,98.4c0.4,0,0.4-0.7,0-0.7S82.4,98.4,82.9,98.4L82.9,98.4z"/>
			</g>
			<g>
				<path d="M81.9,97.2c0.1-0.7,0.1-1.4,0.2-2.1c0-0.2,0.1-1.4,0.3-1.6c0.1-0.1,0.1,1,0.1,1.1c-0.1,0.3-0.1,0.6-0.1,0.9
					c-0.1,0.7-0.3,1.4-0.4,2.1c-0.1,0.4,0.6,0.6,0.6,0.2c0.3-1.3,0.5-2.5,0.7-3.8c0.1-0.6,0-1-0.7-1.1c-0.6-0.1-0.7,0.3-0.9,0.9
					c-0.2,1.1-0.4,2.3-0.5,3.4C81.2,97.6,81.9,97.6,81.9,97.2L81.9,97.2z"/>
			</g>
			<g>
				<path d="M80.4,96.9c0.1-0.5,0.2-1,0.3-1.5c0.1-0.2,0.1-0.5,0.2-0.7c0,0,0.1-0.6,0.1-0.6c-0.1,0.1,0,0.6,0,0.7
					c0,0.3-0.1,0.6-0.1,0.9c-0.1,0.6-0.3,1.1-0.4,1.6c-0.1,0.4,0.5,0.6,0.6,0.2c0.3-0.8,0.5-1.7,0.6-2.5c0.1-0.5,0.2-1.4-0.3-1.6
					c-0.5-0.2-0.7,0.2-0.9,0.6c-0.3,0.9-0.5,1.8-0.7,2.8C79.7,97.1,80.3,97.3,80.4,96.9L80.4,96.9z"/>
			</g>
			<g>
				<path d="M80.2,97.5c0.1-0.2,0.1-0.5,0.1-0.7c0-0.2-0.1-0.3-0.2-0.4c-0.2-0.1-0.4,0.1-0.4,0.2c-0.1,0.2-0.1,0.5-0.1,0.7
					c0,0.2,0.1,0.3,0.2,0.4C80,97.8,80.2,97.7,80.2,97.5L80.2,97.5z"/>
			</g>
			<g>
				<path d="M81.8,97.6c0-0.1,0-0.2,0-0.3c0-0.2-0.2-0.3-0.3-0.3s-0.3,0.1-0.3,0.3c0,0.1,0,0.2,0,0.3c0,0.2,0.2,0.3,0.3,0.3
					C81.7,97.9,81.8,97.7,81.8,97.6L81.8,97.6z"/>
			</g>
			<g>
				<path d="M81.6,97.4c0.2,0,0.4,0.1,0.6,0.1c0.2,0,0.3-0.1,0.4-0.2c0.1-0.2-0.1-0.4-0.2-0.4c-0.2,0-0.4-0.1-0.6-0.1
					c-0.2,0-0.3,0.1-0.4,0.2C81.3,97.1,81.4,97.4,81.6,97.4L81.6,97.4z"/>
			</g>
			<g>
				<path d="M80.2,97.1c0.3,0,0.6,0,0.8,0c0.4,0,0.4-0.7,0-0.7c-0.3,0-0.6,0-0.8,0C79.8,96.4,79.8,97.1,80.2,97.1L80.2,97.1z"/>
			</g>
			<g>
				<path d="M80.6,95.5c0.1-0.1,0.3-0.1,0.4-0.1c0.2,0,0.4-0.1,0.4-0.2c0-0.2-0.1-0.4-0.2-0.4c-0.2-0.1-0.5,0-0.7,0.1
					c-0.2,0.1-0.3,0.2-0.2,0.4C80.2,95.4,80.4,95.6,80.6,95.5L80.6,95.5z"/>
			</g>
			<g>
				<path d="M81.8,95.7c0.2,0,0.4,0.1,0.6,0.1c0.2,0,0.3-0.1,0.4-0.2c0.1-0.2-0.1-0.4-0.2-0.4c-0.2,0-0.4-0.1-0.6-0.1
					c-0.2,0-0.3,0.1-0.4,0.2C81.5,95.4,81.6,95.6,81.8,95.7L81.8,95.7z"/>
			</g>
			<g>
				<path d="M81.1,93.2c-0.2-0.2,0.3-0.5,0.4-0.6c0.2-0.2,0.4-0.4,0.5-0.7c-0.2,0-0.4-0.1-0.7-0.1c0,0.3,0.1,0.6,0.1,1
					c0.1,0.2,0.1,0.6-0.2,0.6c-0.4,0.1-0.2,0.7,0.2,0.6c0.4-0.1,0.6-0.4,0.7-0.8c0.1-0.5-0.2-1-0.1-1.5c0.1-0.4-0.6-0.5-0.7-0.1
					c-0.1,0.4-0.6,0.6-0.8,0.9c-0.2,0.3-0.2,0.7,0.1,1C81,94,81.4,93.5,81.1,93.2L81.1,93.2z"/>
			</g>
			<g>
				<path d="M82.5,92.7c-0.2-0.1,0.3-0.5,0.4-0.5c0.2-0.1,0.4-0.3,0.5-0.5c-0.2-0.1-0.4-0.2-0.6-0.3c-0.1,0.3,0,0.6,0.1,0.9
					c0,0.1,0.1,0.6-0.2,0.7c-0.4,0-0.4,0.7,0,0.7c0.4,0,0.6-0.2,0.8-0.6c0.2-0.5-0.1-0.9,0-1.4c0.1-0.4-0.4-0.6-0.6-0.3
					c-0.3,0.4-0.8,0.5-1,1c-0.1,0.4,0,0.7,0.3,1C82.5,93.6,82.9,93,82.5,92.7L82.5,92.7z"/>
			</g>
			<g>
				<path d="M79.3,95.5c0.4,0,0.8,0.1,1.2,0.1c0.4,0,0.4-0.6,0-0.7c-0.4,0-0.8-0.1-1.2-0.1C78.8,94.9,78.9,95.5,79.3,95.5L79.3,95.5
					z"/>
			</g>
			<g>
				<path d="M82.9,96c0.2,0,0.3,0.1,0.5,0.1c0.2,0.1,0.4-0.1,0.4-0.2c0.1-0.2-0.1-0.4-0.2-0.4c-0.2-0.1-0.5-0.1-0.7-0.1
					c-0.2,0-0.3,0.2-0.3,0.3C82.5,95.9,82.7,96,82.9,96L82.9,96z"/>
			</g>
			<g>
				<path d="M79.6,96.3c0.4,0,0.4-0.7,0-0.7S79.1,96.3,79.6,96.3L79.6,96.3z"/>
			</g>
			<g>
				<path d="M79.2,96.7C79.2,96.8,79.2,96.8,79.2,96.7c0,0.3,0.2,0.4,0.3,0.4c0.2,0,0.3-0.1,0.3-0.3c0,0,0-0.1,0-0.1
					c0-0.2-0.2-0.3-0.3-0.3C79.3,96.4,79.2,96.5,79.2,96.7L79.2,96.7z"/>
			</g>
			<g>
				<path d="M83,96.7c0.4,0,0.4-0.7,0-0.7S82.6,96.7,83,96.7L83,96.7z"/>
			</g>
			<g>
				<path d="M82.9,97.6c0.4,0,0.4-0.7,0-0.7C82.4,96.9,82.4,97.6,82.9,97.6L82.9,97.6z"/>
			</g>
			<g>
				<path d="M95.3,97.8c0.5,3.4,1.1,6.7,2.1,9.9c0.1,0.4,0.8,0.2,0.6-0.2c-0.9-3.3-1.6-6.6-2.1-9.9C95.9,97.2,95.3,97.4,95.3,97.8
					L95.3,97.8z"/>
			</g>
			<g>
				<path d="M95.8,97.9c1.1-0.3,2.2-0.7,3.3-1c0.1,0,0.9-0.3,1-0.3c0.1,0.1,0.1,0.6,0.1,0.7c0.1,0.6,0.3,1.3,0.4,1.9
					c0.5,2.4,1,4.7,1.4,7c0.1,0.4,0.7,0.2,0.6-0.2c-0.6-2.9-1.1-5.7-1.7-8.6c-0.2-0.7-0.1-1.6-1-1.5c-0.6,0.1-1.3,0.4-2,0.6
					c-0.7,0.2-1.5,0.5-2.3,0.7C95.2,97.4,95.4,98,95.8,97.9L95.8,97.9z"/>
			</g>
			<g>
				<path d="M97.8,107.8c1.5-0.4,3-0.8,4.5-1.3c0.4-0.1,0.2-0.8-0.2-0.6c-1.5,0.5-3,0.9-4.5,1.3C97.2,107.3,97.4,108,97.8,107.8
					L97.8,107.8z"/>
			</g>
			<g>
				<path d="M98.4,105.1c0.4-2.5,1-5.1-0.1-7.5c-0.2-0.4-0.7-0.1-0.6,0.3c0.5,2.5,1.5,4.6,2.6,6.8c0-0.2,0.1-0.3,0.1-0.5
					c0,0,0,0-0.1,0c0.2,0,0.3,0.1,0.5,0.1c0,0,0,0,0,0c-0.2-0.4-0.7-0.1-0.6,0.3c0,0,0,0,0,0c0.1,0.2,0.3,0.2,0.5,0.1c0,0,0,0,0.1,0
					c0.2-0.1,0.2-0.3,0.1-0.5c-1.1-2.2-2-4.3-2.6-6.7c-0.2,0.1-0.4,0.2-0.6,0.3c1,2.2,0.3,4.7,0,7C97.7,105.4,98.3,105.5,98.4,105.1
					L98.4,105.1z"/>
			</g>
			<g>
				<path d="M98.5,103.7c0.5-0.2,0.9-0.3,1.4-0.3c0.4,0,0.4-0.7,0-0.7c-0.6,0.1-1.1,0.2-1.6,0.3C97.9,103.2,98.1,103.9,98.5,103.7
					L98.5,103.7z"/>
			</g>
			<g>
				<path d="M98.6,104.9c0-0.9,1.2-1.1,1.6-0.3c0.2,0.4,0.8,0.2,0.6-0.2c-0.3-0.6-0.9-1.1-1.6-1c-0.7,0.1-1.3,0.8-1.3,1.5
					C97.9,105.3,98.6,105.3,98.6,104.9L98.6,104.9z"/>
			</g>
			<g>
				<path d="M99,103.1c0.1-0.7,0.1-1.4,0.2-2.1c-0.2,0-0.4,0.1-0.7,0.1c0.2,0.7,0.5,1.5,0.8,2.2c0.2,0.4,0.7,0.1,0.6-0.3
					c-0.3-0.7-0.5-1.4-0.8-2.1c-0.1-0.4-0.6-0.3-0.7,0.1c-0.1,0.7-0.1,1.4-0.2,2.1C98.3,103.5,98.9,103.5,99,103.1L99,103.1z"/>
			</g>
			<g>
				<path d="M97.9,105.7c0.4,0,0.7-0.1,1.1-0.3c0.4-0.2,0-0.8-0.3-0.6c-0.2,0.1-0.5,0.2-0.7,0.2c-0.2,0-0.3,0.1-0.3,0.3
					C97.5,105.6,97.7,105.7,97.9,105.7L97.9,105.7z"/>
			</g>
			<g>
				<path d="M100.4,105.3c0.2-0.1,0.5-0.2,0.7-0.2c0.2-0.1,0.3-0.2,0.2-0.4c-0.1-0.2-0.2-0.3-0.4-0.2c-0.2,0.1-0.5,0.2-0.7,0.2
					c-0.2,0.1-0.3,0.2-0.2,0.4C100,105.3,100.3,105.4,100.4,105.3L100.4,105.3z"/>
			</g>
			<g>
				<path d="M71.8,105.5c1.3,2.3,2.4,4.6,3.3,7.1c0.2,0.4,0.8,0.2,0.6-0.2c-0.9-2.5-2-4.9-3.3-7.2C72.1,104.8,71.6,105.1,71.8,105.5
					L71.8,105.5z"/>
			</g>
			<g>
				<path d="M75.5,112.9c3.5-1.4,6.9-2.9,10.3-4.7c0.4-0.2,0.1-0.8-0.3-0.6c-3.3,1.7-6.6,3.3-10.1,4.6
					C74.9,112.4,75.1,113,75.5,112.9L75.5,112.9z"/>
			</g>
			<g>
				<path d="M72.2,105.5c3.3-1.7,6.7-3.1,10.3-4.3c0.4-0.1,0.2-0.8-0.2-0.6c-3.6,1.1-7.1,2.6-10.5,4.3
					C71.5,105.2,71.9,105.8,72.2,105.5L72.2,105.5z"/>
			</g>
			<g>
				<path d="M82.2,101c0.9,2.3,1.7,4.9,3.3,6.9c0.3,0.3,0.7-0.1,0.5-0.5c-1.5-1.9-2.2-4.4-3.1-6.6C82.7,100.4,82,100.6,82.2,101
					L82.2,101z"/>
			</g>
			<g>
				<path d="M62.3,108.5c0.3,2.2,0.6,4.5,0.7,6.7c0,0.4,0.7,0.4,0.7,0c-0.1-2.3-0.3-4.6-0.7-6.9C62.9,107.9,62.3,108.1,62.3,108.5
					L62.3,108.5z"/>
			</g>
			<g>
				<path d="M66,107.3c0.5,2.6,1,5.3,1.6,7.9c0.1,0.4,0.7,0.2,0.6-0.2c-0.6-2.6-1.1-5.3-1.6-7.9C66.6,106.7,65.9,106.9,66,107.3
					L66,107.3z"/>
			</g>
			<g>
				<path d="M62.7,108.6c1.2-0.4,2.5-0.7,3.7-1.1c0.4-0.1,0.2-0.8-0.2-0.6c-1.2,0.4-2.5,0.7-3.7,1.1
					C62.1,108.1,62.2,108.7,62.7,108.6L62.7,108.6z"/>
			</g>
			<g>
				<path d="M63.4,115.6c1.4-0.3,2.8-0.4,4.2-0.3c0.4,0,0.4-0.6,0-0.7c-1.5-0.1-2.9,0-4.4,0.3C62.8,115.1,63,115.7,63.4,115.6
					L63.4,115.6z"/>
			</g>
			<g>
				<path d="M82.3,112c-0.1,1.5-0.4,3-0.9,4.4c-0.1,0.4,0.5,0.6,0.6,0.2c0.5-1.5,0.8-3,0.9-4.6C83,111.6,82.3,111.6,82.3,112
					L82.3,112z"/>
			</g>
			<g>
				<path d="M88.1,112.8c-0.5,1.6-0.8,3.2-1,4.9c-0.1,0.4,0.6,0.4,0.7,0c0.2-1.6,0.5-3.2,1-4.7C88.9,112.6,88.3,112.4,88.1,112.8
					L88.1,112.8z"/>
			</g>
			<g>
				<path d="M82.6,112.2c1.9,0.3,3.8,0.6,5.7,1c0.4,0.1,0.6-0.6,0.2-0.6c-1.9-0.3-3.8-0.6-5.7-1C82.3,111.4,82.1,112.1,82.6,112.2
					L82.6,112.2z"/>
			</g>
			<g>
				<path d="M81.5,117c1.9,0.3,3.9,0.7,5.8,1.1c0.4,0.1,0.6-0.6,0.2-0.6c-1.9-0.4-3.9-0.8-5.8-1.1C81.2,116.3,81,117,81.5,117
					L81.5,117z"/>
			</g>
			<g>
				<path d="M98.2,86.2c0-0.2,0.2-0.3,0.3-0.1c0,0.1,0,0.1,0,0.1c0,0-0.1,0-0.1,0c0,0-0.1,0-0.1,0c-0.1-0.1-0.3-0.2-0.5-0.1
					c-0.1,0.1-0.2,0.3-0.1,0.5c0.2,0.3,0.6,0.4,1,0.2c0.4-0.2,0.5-0.6,0.3-1c-0.2-0.4-0.6-0.6-1-0.5c-0.4,0.2-0.6,0.6-0.5,1
					C97.6,86.8,98.2,86.6,98.2,86.2L98.2,86.2z"/>
			</g>
			<g>
				<path d="M99.8,88c-0.1-0.1-0.2-0.2-0.2-0.3c0-0.1,0.1-0.2,0.2-0.1c0.1,0,0.1,0.2,0.1,0.3c0,0.1,0,0.1,0,0.2c0,0,0,0,0,0
					c-0.4-0.2-0.7,0.3-0.3,0.6c0.4,0.2,0.9,0,1-0.5c0.1-0.4-0.1-0.9-0.4-1.1c-0.4-0.2-0.9,0-1.1,0.4c-0.2,0.5,0,1,0.4,1.2
					C99.8,88.8,100.2,88.2,99.8,88L99.8,88z"/>
			</g>
			<g>
				<path d="M101.4,89.1c-0.1,0,0-0.2,0.1-0.2c0.2,0.1,0,0.3-0.2,0.3c-0.2,0-0.3,0.2-0.3,0.3s0.2,0.3,0.3,0.3
					c0.4,0.1,0.8-0.2,0.9-0.6c0.1-0.4-0.1-0.8-0.5-0.9c-0.3-0.1-0.7,0-0.9,0.3c-0.2,0.4-0.1,0.8,0.2,1c0.1,0.1,0.4,0,0.5-0.1
					C101.6,89.3,101.5,89.2,101.4,89.1L101.4,89.1z"/>
			</g>
			<g>
				<path d="M103,87.7C103,87.7,103,87.7,103,87.7C103,87.7,103.1,87.6,103,87.7C103,87.7,103,87.7,103,87.7
					C103,87.7,103,87.7,103,87.7C103.1,87.7,103.1,87.7,103,87.7C103.1,87.7,103.1,87.7,103,87.7C103.1,87.7,103.1,87.7,103,87.7
					L103,87.7c0.1-0.1,0.1-0.1,0.1-0.1c0,0,0,0,0,0C103.1,87.6,103.1,87.7,103,87.7C103.1,87.6,103.1,87.6,103,87.7
					C103.1,87.7,103.1,87.7,103,87.7C103.1,87.7,103.1,87.7,103,87.7C103.1,87.7,103.1,87.7,103,87.7
					C103.1,87.7,103.1,87.7,103,87.7C103.1,87.7,103.1,87.7,103,87.7C103.1,87.8,103.1,87.8,103,87.7C103,87.8,103,87.8,103,87.7
					C103,87.8,103,87.8,103,87.7L103,87.7C103.1,87.7,103.1,87.7,103,87.7C103.1,87.7,103,87.7,103,87.7
					C103.1,87.7,103.1,87.7,103,87.7C103.1,87.7,103,87.6,103,87.7c0-0.1,0,0,0-0.1c0,0,0,0,0,0C103,87.7,103,87.7,103,87.7
					c0.1-0.2,0-0.4-0.1-0.5c-0.1-0.1-0.4-0.1-0.5,0.1c-0.1,0.2-0.1,0.4,0,0.6c0.1,0.2,0.3,0.3,0.5,0.4c0.4,0.1,0.8-0.2,0.9-0.6
					c0.1-0.4-0.2-0.8-0.6-0.8c-0.4,0-0.8,0.3-0.8,0.8c0,0.2,0.1,0.3,0.3,0.3C102.9,88.1,103,87.9,103,87.7L103,87.7z"/>
			</g>
			<g>
				<path d="M103.6,86.5c0-0.1-0.3-0.6-0.1-0.6c0.1,0,0.1,0.1,0.1,0.2c-0.1,0.1-0.2,0.1-0.2,0.2c-0.4,0.1-0.2,0.7,0.2,0.6
					c0.3-0.1,0.6-0.3,0.7-0.7c0.1-0.4-0.1-0.8-0.5-0.9c-0.4-0.1-0.7,0.1-0.9,0.4c-0.2,0.4,0,0.7,0.2,1.1
					C103.3,87.2,103.8,86.9,103.6,86.5L103.6,86.5z"/>
			</g>
			<g>
				<path d="M108.7,87.7C108.7,87.7,108.7,87.7,108.7,87.7C108.7,87.7,108.7,87.6,108.7,87.7c0-0.1,0-0.2,0-0.1c0-0.1,0,0,0-0.1
					c0-0.1,0,0,0,0c0,0-0.1,0,0,0s0,0,0,0c0,0,0,0,0.1,0s0,0,0,0c0,0,0.1,0,0,0c0,0,0.1,0,0.1,0c0,0,0,0,0,0c0,0.1,0-0.1,0,0
					c0-0.1,0,0,0,0c0,0,0,0,0,0c0,0,0,0,0,0c-0.1,0,0,0-0.1,0c0,0,0,0,0,0c0,0,0,0,0,0c0,0,0,0,0.1,0c-0.2-0.1-0.4-0.1-0.5,0.1
					c-0.1,0.2-0.1,0.4,0.1,0.5c0.3,0.2,0.7,0.1,1-0.3c0.2-0.3,0.1-0.8-0.3-0.9c-0.3-0.2-0.7-0.1-1,0.2s-0.2,0.7,0.1,1
					c0.1,0.1,0.3,0.1,0.5,0C108.8,88,108.8,87.8,108.7,87.7L108.7,87.7z"/>
			</g>
			<g>
				<path d="M110.1,90.4c-0.1-0.1-0.2-0.2-0.2-0.3c0,0,0-0.1,0-0.1c0-0.1,0.1,0,0,0c-0.1-0.1,0,0.1,0,0.2l0,0.1l0.1,0
					c-0.1-0.1-0.4,0-0.5,0.1c-0.1,0.2,0,0.3,0.1,0.5c0.3,0.2,0.8,0,0.9-0.4c0.1-0.3-0.1-0.9-0.3-1c-0.3-0.2-0.8,0-0.9,0.3
					c-0.2,0.4,0.1,0.8,0.3,1.1c0.1,0.1,0.3,0.1,0.5,0C110.2,90.8,110.2,90.6,110.1,90.4L110.1,90.4z"/>
			</g>
			<g>
				<path d="M62.1,96.2c-0.1-0.1-0.2-0.1-0.2-0.2c0,0,0-0.1,0-0.1v0c0,0,0,0,0,0c0,0,0,0,0,0c0,0,0,0,0,0c0,0,0,0,0,0c0,0,0,0,0.1,0
					c-0.1,0,0.1,0,0,0c-0.1,0,0.1,0.1,0,0c0,0,0,0,0,0c0,0,0,0,0,0c0,0,0,0.1,0,0c0,0,0,0,0,0c0-0.1,0,0.1,0,0.1c0,0-0.1,0.1,0,0.1
					c0,0-0.1,0.1-0.1,0c0,0-0.1,0,0,0c-0.2,0-0.3,0.1-0.3,0.3c0,0.2,0.2,0.3,0.3,0.3c0.4-0.1,0.7-0.3,0.7-0.7
					c0.1-0.4-0.2-0.7-0.6-0.8c-0.3-0.1-0.7,0.1-0.8,0.5c-0.1,0.4,0.2,0.8,0.5,1C62.2,96.9,62.5,96.4,62.1,96.2L62.1,96.2z"/>
			</g>
			<g>
				<path d="M62.7,94.8C62.6,94.8,62.6,94.7,62.7,94.8C62.6,94.8,62.6,94.8,62.7,94.8C62.6,94.8,62.6,94.7,62.7,94.8
					C62.6,94.8,62.6,94.6,62.7,94.8c-0.1,0-0.1-0.2-0.1-0.1c0,0,0,0,0,0c0,0,0,0,0,0c0,0,0,0,0,0c0,0,0,0,0,0c-0.1,0,0,0,0,0
					c0,0,0.1,0,0.1,0c0,0,0,0,0,0c0,0,0,0,0.1,0c0,0,0,0,0,0c0,0,0,0,0,0c0,0,0,0,0,0c0,0,0,0,0,0c0,0,0,0,0,0c0-0.1,0,0.1,0,0
					C62.7,94.7,62.7,94.7,62.7,94.8C62.6,94.8,62.7,94.7,62.7,94.8C62.6,94.8,62.6,94.8,62.7,94.8c-0.2-0.1-0.5,0.1-0.5,0.2
					c-0.1,0.2,0.1,0.3,0.2,0.4c0.4,0.1,0.8-0.1,0.9-0.5c0.1-0.4-0.1-0.8-0.5-0.9c-0.4-0.1-0.8,0.1-0.9,0.5c-0.1,0.3,0.1,0.8,0.4,0.9
					c0.2,0.1,0.3,0.1,0.5-0.1C62.9,95.1,62.9,94.9,62.7,94.8L62.7,94.8z"/>
			</g>
			<g>
				<path d="M63.7,93.4c-0.1,0-0.2,0-0.2-0.1c0,0,0-0.1,0.1-0.1c0,0,0.1,0,0.1,0c0,0-0.1,0,0,0c-0.2-0.1-0.4-0.1-0.5,0.1
					c-0.1,0.1-0.1,0.4,0.1,0.5c0.4,0.2,0.9,0,1-0.4c0.1-0.5-0.2-0.9-0.7-0.9c-0.4,0-0.8,0.4-0.7,0.8c0,0.5,0.5,0.8,0.9,0.7
					c0.2,0,0.3-0.1,0.3-0.3C64,93.6,63.8,93.4,63.7,93.4L63.7,93.4z"/>
			</g>
			<g>
				<path d="M62.1,118.4C62.1,118.4,62.1,118.4,62.1,118.4L62.1,118.4C62.1,118.4,62.1,118.4,62.1,118.4L62.1,118.4
					C62.1,118.4,62.1,118.4,62.1,118.4L62.1,118.4C62.1,118.4,62.1,118.4,62.1,118.4C62.1,118.4,62.1,118.4,62.1,118.4
					C62.1,118.4,62.1,118.4,62.1,118.4C62.1,118.4,62.1,118.4,62.1,118.4C62.1,118.4,62.1,118.4,62.1,118.4
					C62.1,118.4,62.1,118.4,62.1,118.4C62.1,118.4,62.1,118.4,62.1,118.4C62.1,118.4,62.1,118.4,62.1,118.4
					C62.1,118.4,62.1,118.4,62.1,118.4C62.1,118.4,62.1,118.4,62.1,118.4L62.1,118.4L62.1,118.4C62.1,118.5,62.1,118.5,62.1,118.4
					C62.1,118.4,62.1,118.4,62.1,118.4C62.1,118.5,62.1,118.5,62.1,118.4C62.1,118.5,62.1,118.5,62.1,118.4c0,0-0.1,0.2,0,0.1
					c0,0,0,0,0,0c0,0,0,0,0,0c0,0,0,0,0,0c0,0,0,0,0,0c0,0,0,0,0,0c0,0,0.1,0,0,0s0,0,0,0c0,0,0,0,0.1,0.1c-0.1-0.2-0.3-0.2-0.5-0.1
					c-0.2,0.1-0.2,0.3-0.1,0.5c0.2,0.3,0.7,0.4,1,0.1c0.3-0.2,0.3-0.7,0.1-1c-0.2-0.3-0.7-0.3-1-0.1c-0.3,0.2-0.3,0.7,0,1
					c0.1,0.1,0.3,0.1,0.5,0C62.2,118.8,62.2,118.5,62.1,118.4L62.1,118.4z"/>
			</g>
			<g>
				<path d="M61.7,117c-0.1,0-0.1-0.1-0.1-0.1c-0.2-0.2-0.5-0.1-0.6,0.2c-0.1,0.7,0.8,0.9,1.1,0.3c0.1-0.3,0.1-0.6-0.1-0.9
					c-0.1-0.3-0.5-0.5-0.7-0.3c-0.1,0.1-0.2,0.3-0.1,0.5c0.1,0.1,0.3,0.2,0.5,0.1c0.3-0.2-0.2,0-0.2,0l0,0.1c0,0,0,0.2,0,0.2l0,0
					c0,0,0.1,0,0,0c0.1,0,0.1,0.1,0.1,0.2c-0.2,0.1-0.4,0.1-0.6,0.2c0.1,0,0.1,0.1,0.1,0.1C61.5,117.8,62,117.3,61.7,117L61.7,117z"
					/>
			</g>
			<g>
				<path d="M62.9,119.2c0.1,0,0.1,0.1,0.1,0.1c0,0,0,0.1-0.1,0.1c0,0,0,0,0,0H63c0.1,0,0.1,0.1,0.1,0.2c0,0.2,0.2,0.3,0.4,0.2
					c0.2-0.1,0.3-0.2,0.2-0.4c-0.1-0.4-0.5-0.8-1-0.7c-0.5,0.1-0.6,0.7-0.2,1c0.2,0.1,0.4,0,0.5-0.1C63.1,119.5,63,119.3,62.9,119.2
					L62.9,119.2z"/>
			</g>
			<g>
				<path d="M104.5,124.6C104.5,124.6,104.5,124.6,104.5,124.6C104.5,124.6,104.5,124.5,104.5,124.6
					C104.5,124.6,104.5,124.6,104.5,124.6C104.5,124.5,104.5,124.5,104.5,124.6C104.5,124.5,104.5,124.5,104.5,124.6
					C104.5,124.5,104.5,124.6,104.5,124.6C104.5,124.5,104.5,124.5,104.5,124.6C104.5,124.6,104.5,124.5,104.5,124.6
					c0,0.2,0.2,0.4,0.4,0.4c0.2,0,0.3-0.2,0.3-0.3c0-0.3-0.2-0.6-0.5-0.7c-0.3-0.1-0.6,0.1-0.7,0.3
					C103.7,124.6,104.3,124.9,104.5,124.6L104.5,124.6z"/>
			</g>
			<g>
				<path d="M105.1,123.8c0-0.1,0-0.2,0-0.3c0,0,0,0,0.1,0c0,0-0.1,0,0,0s0,0,0,0s0,0,0,0c0.1,0.1,0,0,0,0c0,0,0,0,0,0c0,0,0,0,0,0
					c0,0,0,0.1,0,0c0,0,0,0,0.1-0.1c0,0,0,0,0,0s0,0,0,0h0h0c0,0,0,0,0.1,0.1c-0.1-0.1-0.3-0.2-0.5-0.1c-0.1,0.1-0.2,0.3-0.1,0.5
					c0.2,0.3,0.5,0.4,0.9,0.2c0.3-0.2,0.3-0.6,0.2-0.9c-0.2-0.3-0.6-0.3-0.9-0.2c-0.3,0.2-0.4,0.6-0.4,0.9c0,0.2,0.1,0.3,0.3,0.3
					C104.9,124.1,105.1,123.9,105.1,123.8L105.1,123.8z"/>
			</g>
			<g>
				<path d="M105.9,122.1C105.8,122.1,105.9,122.1,105.9,122.1C105.9,122.1,105.9,122.1,105.9,122.1
					C105.9,122.1,105.9,122.1,105.9,122.1C105.9,122.1,105.9,122.1,105.9,122.1C105.9,122.1,105.9,122.1,105.9,122.1L105.9,122.1
					C105.9,122.1,105.9,122.1,105.9,122.1C105.9,122,105.9,122.1,105.9,122.1C105.9,122.1,105.9,122.1,105.9,122.1
					C105.9,122,105.8,122.2,105.9,122.1L105.9,122.1C105.9,122.1,105.9,122.1,105.9,122.1C105.8,122.1,105.9,122.1,105.9,122.1
					C105.8,122.1,105.9,122.1,105.9,122.1C105.9,122.1,105.7,122.1,105.9,122.1C105.8,122.1,105.8,122.1,105.9,122.1
					c-0.1,0.1-0.1,0-0.1,0c0,0.1,0-0.1,0,0c0-0.1,0,0,0,0c0-0.1,0,0,0,0c0-0.1,0-0.1,0,0c0,0,0,0,0,0s0,0,0,0c0,0,0,0,0,0
					c-0.2,0.1-0.2,0.3-0.1,0.5c0.1,0.2,0.3,0.2,0.5,0.1c0.3-0.1,0.4-0.5,0.3-0.7c-0.1-0.3-0.3-0.5-0.6-0.5c-0.3,0-0.6,0.3-0.6,0.6
					c0,0.3,0.2,0.6,0.5,0.7c0.2,0.1,0.4-0.1,0.4-0.2C106.1,122.3,106,122.1,105.9,122.1L105.9,122.1z"/>
			</g>
			<g>
				<path d="M107.3,122.7C107.2,122.7,107.3,122.8,107.3,122.7C107.3,122.8,107.3,122.8,107.3,122.7c0.1,0.1,0.1,0.1,0.1,0.1
					c0-0.1,0,0,0,0s0,0,0,0c0,0,0,0,0,0s0,0-0.1,0h0c0,0,0-0.1,0,0c0,0,0.1,0.1,0,0.1c0.1,0,0.1-0.1,0.2,0.1
					c-0.1-0.2-0.2-0.3-0.4-0.2c-0.2,0.1-0.3,0.2-0.2,0.4c0.1,0.4,0.6,0.5,0.9,0.2c0.3-0.3,0.3-0.7,0-1c-0.2-0.3-0.7-0.3-1,0
					c-0.2,0.3-0.1,0.7,0.2,0.8c0.2,0.1,0.3,0.1,0.5-0.1C107.5,123,107.4,122.8,107.3,122.7L107.3,122.7z"/>
			</g>
			<g>
				<path d="M113.8,120.3C113.8,120.3,113.8,120.3,113.8,120.3C113.8,120.3,113.8,120.3,113.8,120.3
					C113.8,120.3,113.8,120.4,113.8,120.3C113.8,120.4,113.8,120.4,113.8,120.3L113.8,120.3C113.8,120.4,113.8,120.4,113.8,120.3
					C113.8,120.4,113.8,120.4,113.8,120.3L113.8,120.3c0.1,0,0,0.1-0.1,0.1c0.1,0-0.1,0,0,0c-0.1,0-0.1,0,0,0c0,0-0.1,0,0,0
					c0.1,0,0,0,0,0C113.7,120.4,113.7,120.4,113.8,120.3C113.7,120.4,113.7,120.4,113.8,120.3C113.7,120.4,113.7,120.4,113.8,120.3
					C113.7,120.3,113.7,120.3,113.8,120.3C113.7,120.4,113.7,120.4,113.8,120.3C113.7,120.3,113.7,120.3,113.8,120.3
					C113.7,120.3,113.7,120.3,113.8,120.3C113.7,120.3,113.7,120.3,113.8,120.3C113.7,120.3,113.7,120.3,113.8,120.3
					C113.7,120.3,113.7,120.3,113.8,120.3C113.8,120.3,113.7,120.3,113.8,120.3C113.8,120.3,113.8,120.3,113.8,120.3
					S113.8,120.3,113.8,120.3c-0.1-0.1-0.3,0-0.4,0.1c-0.1,0.1-0.1,0.4,0.1,0.5s0.3,0.1,0.5,0.1c0.2-0.1,0.3-0.2,0.4-0.3
					c0.2-0.3,0.1-0.7-0.2-0.9c-0.3-0.2-0.7-0.1-0.8,0.2c-0.2,0.3-0.1,0.7,0.2,0.9c0.1,0.1,0.4,0,0.5-0.1
					C114,120.6,113.9,120.4,113.8,120.3L113.8,120.3z"/>
			</g>
			<g>
				<path d="M105.3,85.9c0,0.1,0,0.1,0,0.1c0,0,0,0.1,0,0.1c0,0,0-0.1,0-0.1c0,0.1,0-0.1,0.1-0.1c0,0,0.1-0.1,0.1-0.1l0,0
					c0.1,0,0.2,0,0.3,0c0,0,0.1,0.2,0.1,0.1c0,0,0-0.1,0,0c-0.1-0.2-0.2-0.3-0.4-0.2c-0.2,0.1-0.3,0.2-0.2,0.4
					c0.1,0.1,0.1,0.2,0.2,0.3c0.2,0.1,0.5-0.1,0.5-0.3c0-0.1,0-0.2-0.1-0.4c0-0.2-0.2-0.3-0.4-0.2C105.3,85.6,105.3,85.8,105.3,85.9
					L105.3,85.9z"/>
			</g>
			<g>
				<path d="M86.5,86.9c-0.2-0.4,0-1,0.5-1c0.5-0.1,0.9,0.6,0.6,1c-0.2,0.4,0.4,0.7,0.6,0.3c0.5-0.9-0.2-2.1-1.2-2
					c-1,0.1-1.5,1.3-1,2.1C86.1,87.7,86.7,87.3,86.5,86.9L86.5,86.9z"/>
			</g>
			<g>
				<path d="M76.8,86.8c-1.1,0.2-2.4,0.3-3.3,1.1c-0.6,0.6-1.1,2,0.1,1.9c0.4,0,0.4-0.7,0-0.7c-0.3,0,0.4-0.9,0.5-0.9
					c0.3-0.2,0.6-0.3,0.9-0.4c0.6-0.2,1.3-0.2,1.9-0.4C77.4,87.3,77.2,86.7,76.8,86.8L76.8,86.8z"/>
			</g>
			<g>
				<path d="M87.6,85.4c-1.6-0.3-3.1-0.2-4.7,0.1c-0.4,0.1-0.2,0.7,0.2,0.6c1.4-0.3,2.9-0.4,4.3-0.1C87.9,86.2,88,85.5,87.6,85.4
					L87.6,85.4z"/>
			</g>
		</g>
		<g>
			<path d="M41,114.6c-5.4-3.9-7-10.9-7-17.2c0-4.1,0.8-8.3,1.5-12.3c0.7-4.2,0.9-8.3,0.6-12.5c-0.2-2.4-0.6-4.8-0.6-7.2
				c-0.1-2.5,0.5-4.9,1.1-7.2c0.2-0.6-0.7-0.8-0.9-0.2c-0.6,2.1-1.1,4.3-1.2,6.4c-0.1,2.2,0.3,4.4,0.5,6.5c0.2,2.3,0.3,4.6,0.3,6.9
				c0,2.4-0.3,4.7-0.7,7c-1.2,7.3-2.6,15-0.2,22.2c1.1,3.4,3.1,6.4,6,8.5C41,115.8,41.4,115,41,114.6L41,114.6z"/>
		</g>
		<g>
			<path d="M67.3,123.1c-7.1-1.2-14.1-3.1-20.9-5.7c-0.5-0.2-0.8,0.6-0.2,0.9c6.7,2.6,13.7,4.5,20.9,5.7
				C67.6,124.1,67.9,123.2,67.3,123.1L67.3,123.1z"/>
		</g>
		<g>
			<path d="M84.4,122.3c-1.8,0.6-3.7,1-5.7,1c-0.6,0-0.6,0.9,0,0.9c2,0,4-0.3,5.9-1C85.2,123,85,122.2,84.4,122.3L84.4,122.3z"/>
		</g>
		<g>
			<path d="M87.1,45.5c3.7,6,1.8,13.3,1.6,19.9c-0.1,3.4,0.2,6.8,1.3,10.1c1,3.4,2.4,6.6,3.6,9.9c0.2,0.5,1.1,0.3,0.9-0.2
				c-1.3-3.4-2.6-6.8-3.7-10.2c-1.1-3.4-1.2-7-1.1-10.6c0.3-6.4,1.9-13.5-1.8-19.3C87.5,44.6,86.7,45,87.1,45.5L87.1,45.5z"/>
		</g>
		<g>
			<path d="M42.9,43c0.3-2,2.1-3.3,3.6-4.4c1.4-1.1,3-2,4.6-2.8c3.4-1.7,7.2-2.7,11-3c6.3-0.5,12.8,1,17.9,4.7
				c2.9,2.1,5.3,5,7.1,8.2c0.3,0.5,1,0.1,0.8-0.5C84.6,39.4,79.4,35,73,33c-7-2.1-14.8-1.4-21.5,1.6c-2.1,1-4.1,2.2-5.9,3.6
				c-1.5,1.2-3.2,2.6-3.6,4.6C42,43.4,42.8,43.6,42.9,43L42.9,43z"/>
		</g>
		<path class="st0" d="M46.5,44.8c-1.3,0.1-2.3,1.1-2.2,2.4c0.1,1.3,1.1,2.3,2.4,2.2C48,49.4,49,48.3,49,47
			C48.9,45.8,47.9,44.7,46.5,44.8z M47.6,48.6c-0.4,0-0.7-0.3-0.7-0.6c0-0.4,0.3-0.7,0.6-0.7c0.4,0,0.7,0.3,0.7,0.6
			C48.3,48.3,48,48.6,47.6,48.6z"/>
		<g>
			<path d="M42.6,41.8c-4.7-0.9-9.5,2.5-11,7c-0.7,2.1-0.6,4.4,0.6,6.3c1.1,1.7,2.9,2.9,5,3c0.3,0,0.3-0.4,0-0.5
				c-2.1-0.1-3.8-1.4-4.8-3.1c-1-1.8-1-4-0.3-5.9c1.5-4.1,6-7.2,10.4-6.4C42.8,42.3,42.9,41.9,42.6,41.8L42.6,41.8z"/>
		</g>
		<g>
			<path d="M41.3,59.8c-0.9-0.2-1.6,0.4-2.4,0.6c-1.6,0.4-1.7-1.9-1.2-2.8c0.3-0.5-0.5-1-0.8-0.5c-0.7,1.1-0.6,2.7,0.4,3.7
				c0.5,0.5,1,0.6,1.6,0.5c0.7-0.1,1.4-0.8,2.1-0.6C41.6,60.8,41.8,59.9,41.3,59.8L41.3,59.8z"/>
		</g>
		<path d="M37.2,57.2c0.1,0.5,0.6,0.7,1,0.8c0.5,0,0.9-0.1,1.3-0.3c0.7-0.3,1.5-0.6,2.2-0.8c0.7-0.3,1.4-0.5,2-1.1
			c0.5-0.5,0.8-1.4,0.4-2c-0.2-0.3-0.5-0.6-0.9-0.7c-1.4-0.8-3.2-0.8-4.5,0.1c-1.3,0.9-2,2.7-1.4,4.2"/>
		<g>
			<path d="M43.8,54c1.6,0.6,3.4,2.6,1.8,4.2c-1.3,1.4-3.5,1.1-5.2,1.5c-0.6,0.1-0.3,1,0.2,0.9c2.1-0.5,5.3-0.2,6.3-2.7
				c0.8-2.1-1.1-4-2.9-4.7C43.5,52.9,43.2,53.8,43.8,54L43.8,54z"/>
		</g>
		<g>
			<path d="M43.4,59.9c0.1,1.1,0.3,2.5-0.3,3.5c-0.2,0.3-0.5,0.9-1,0.5c-0.2-0.2-0.3-0.8-0.3-1c-0.2-0.8-0.3-1.6-0.2-2.5
				c0-0.6-0.9-0.6-0.9,0c-0.1,1,0.1,5.5,2.1,4.5c1.8-0.8,1.7-3.5,1.5-5.1C44.3,59.3,43.4,59.3,43.4,59.9L43.4,59.9z"/>
		</g>
		<g>
			<path d="M42.2,64.4c-1.8-0.1-2.6-1.9-2-3.4c0.2-0.5-0.6-0.7-0.9-0.2c-0.9,2.2,0.6,4.4,2.9,4.6C42.7,65.3,42.7,64.4,42.2,64.4
				L42.2,64.4z"/>
		</g>
		<g>
			<path class="st0" d="M81.9,77.4c-2.7,0.7-4.8,3.4-5.8,6c-0.7,1.8-0.6,4.2,1.9,4.2c0.3,0,0.3-0.5,0-0.5c-2.5,0-1.9-2.8-1.2-4.3
				c1-2.2,2.8-4.4,5.2-5C82.3,77.7,82.2,77.3,81.9,77.4L81.9,77.4z"/>
		</g>
		<g>
			<path class="st0" d="M79,84.7c-0.6,0.7-1.2,1.9-0.8,2.9c0.4,0.9,1.7,0.9,2.5,0.6c1.1-0.4,1.9-1.6,2.4-2.6
				c0.6-1.1,1.1-2.5,1.3-3.8c0.1-0.3-0.4-0.4-0.4-0.1c-0.3,1.8-1.1,3.9-2.4,5.3c-0.6,0.6-2,1.4-2.8,0.7c-0.7-0.7,0-2.1,0.5-2.6
				C79.5,84.7,79.2,84.4,79,84.7L79,84.7z"/>
		</g>
		<g>
			<path class="st0" d="M42.9,114.8c2.2-0.4,2.6,2.5,3.7,3.8c0.1-0.1,0.1-0.2,0.2-0.4c-1.3-0.2-2.5,0.3-3.7,0.8
				c-1.4,0.5-3.2,1.2-4.2-0.4c-1.5-2.6,3-3.6,4.7-3.9c0.3-0.1,0.2-0.5-0.1-0.4c-1.8,0.3-6.1,1.3-5.2,4c1.3,3.9,5.9,0,8.4,0.4
				c0.2,0,0.4-0.2,0.2-0.4c-1.3-1.5-1.5-4.4-4.1-4C42.5,114.4,42.6,114.8,42.9,114.8L42.9,114.8z"/>
		</g>
		<g>
			<path class="st0" d="M39.2,118.9c0-1.2,1.2-1.9,2.2-2.1c0.3-0.1,0.2-0.5-0.1-0.4c-1.3,0.2-2.6,1.1-2.6,2.5
				C38.7,119.1,39.2,119.1,39.2,118.9L39.2,118.9z"/>
		</g>
		<g>
			<path class="st0" d="M76.3,122c0.7,0.7,1.5,1.5,2.4,2c0-0.1,0-0.3,0.1-0.4c-2.9,0.6-4.5,3.4-7,4.8c-0.9,0.5-1.9,0.6-2.8,0.2
				c-1.1-0.5-1.9-1.5-1.8-2.7c0.2-2,2.3-3.6,3.8-4.6c0.2-0.2,0-0.6-0.2-0.4c-1.6,1.1-3.5,2.5-4,4.5c-0.4,1.7,0.9,3.3,2.5,3.8
				c1.7,0.5,3.3-0.7,4.5-1.7c1.6-1.3,3-3,5.1-3.4c0.2,0,0.2-0.3,0.1-0.4c-0.9-0.5-1.6-1.3-2.3-2C76.4,121.5,76.1,121.8,76.3,122
				L76.3,122z"/>
		</g>
		<g>
			<path class="st0" d="M68.6,128.3c-0.6-1.8,0.6-3.3,2-4.1c0.2-0.2,0-0.5-0.2-0.4c-1.6,1-2.9,2.7-2.2,4.7
				C68.2,128.7,68.6,128.5,68.6,128.3L68.6,128.3z"/>
		</g>
		<g>
			<path class="st0" d="M79.9,36.3c3.1-2.2,8.3-3.9,11.1-0.4c2.6,3.2,2.1,9-2.3,10.4c-0.3,0.1-0.2,0.5,0.1,0.4
				c4.5-1.4,5.3-7.2,2.8-10.7c-2.9-4.1-8.5-2.6-12-0.1C79.5,36.1,79.7,36.5,79.9,36.3L79.9,36.3z"/>
		</g>
		<path class="st0" d="M88.1,39.6c-0.2-1.1-1.2-1.8-2.2-1.7c-1.1,0.2-1.8,1.2-1.7,2.2c0.2,1.1,1.2,1.8,2.2,1.7S88.3,40.7,88.1,39.6z
			"/>
		<path class="st0" d="M33.6,47.6c-1.3,0.1-2.3,1.1-2.2,2.4c0.1,1.3,1.1,2.3,2.4,2.2c1.3-0.1,2.3-1.1,2.2-2.4
			C35.9,48.5,34.8,47.5,33.6,47.6z M34.6,51.3c-0.4,0-0.7-0.3-0.7-0.6c0-0.4,0.3-0.7,0.6-0.7c0.4,0,0.7,0.3,0.7,0.6
			C35.3,51,35,51.3,34.6,51.3z"/>
		<g>
			<path d="M41.8,52.9c-1.9-2.2-1.7-5.6-0.2-7.9c1.6-2.4,4.5-3.7,7.3-4.2c1.8-0.3,3.6-0.2,5.2,0.6c1.4,0.7,2.8,1.8,3.7,3.1
				c1.7,2.7,0.4,6.5-1.6,8.7c-2.4,2.7-6.1,3.6-9.5,2.6c-0.3-0.1-0.4,0.3-0.1,0.4c3.2,1,6.9,0.2,9.3-2.2c2.2-2.1,3.7-5.8,2.6-8.9
				c-0.6-1.5-1.8-2.6-3.1-3.5c-1.6-1.1-3.3-1.6-5.2-1.6c-3.2,0.1-6.6,1.4-8.7,4c-2.1,2.6-2.4,6.5-0.2,9.1
				C41.7,53.5,42,53.1,41.8,52.9L41.8,52.9z"/>
		</g>
		<g>
			<path class="st0" d="M33.3,76.5c-2.2,0.1-4.5,0.7-6.3,2.1c-1.3,1.1-2,2.8-0.5,4c0.2,0.2,0.5-0.1,0.3-0.3
				c-1.7-1.4-0.1-3.1,1.3-3.9c1.6-0.9,3.3-1.4,5.1-1.4C33.6,77,33.6,76.5,33.3,76.5L33.3,76.5z"/>
		</g>
		<g>
			<path class="st0" d="M29.1,81c-1.4,0.3-3.3,1.7-1.9,3.2c1.6,1.6,4.3,0.3,5.9-0.6c0.2-0.1,0-0.5-0.2-0.4c-1.3,0.7-3,1.6-4.5,1.1
				c-0.9-0.3-1.7-1.2-0.9-2.1c0.4-0.5,1.1-0.7,1.7-0.9C29.5,81.3,29.4,80.9,29.1,81L29.1,81z"/>
		</g>
		<g>
			<path class="st0" d="M34.9,72.2c-2.4,4.7-2.8,10.2-1.1,15.2c0.1,0.4,0.8,0.2,0.6-0.2c-1.6-4.8-1.3-10.2,1.1-14.7
				C35.7,72.2,35.1,71.8,34.9,72.2L34.9,72.2z"/>
		</g>
		<g>
			<path class="st0" d="M61.4,32.3c0.6-2.7,4-3.8,6.4-3.4c2.5,0.4,4.5,2.2,5.2,4.6c0.1,0.3,0.5,0.2,0.4-0.1c-0.8-2.6-3-4.6-5.7-5
				c-2.6-0.3-6.1,1-6.8,3.8C60.9,32.4,61.3,32.6,61.4,32.3L61.4,32.3z"/>
		</g>
		<g>
			<path class="st0" d="M104,60.3c2.6,0.4,3,3.5,3.3,5.6c0.5,3,1.2,5.9,2.6,8.6c1.6,3.1,4,5.5,6.1,8.2c2.1,2.7,4.7,6.6,3.6,10.1
				c-1.1,3.5-5.2,5.3-8.3,6.7c-0.3,0.1,0,0.5,0.2,0.4c2.9-1.3,6-2.8,7.8-5.5c1.9-2.9,0.7-6.5-0.9-9.2c-2-3.4-5.1-6-7.2-9.3
				c-1.9-3-2.9-6.5-3.4-10c-0.3-2.3-0.8-5.6-3.6-6C103.9,59.8,103.7,60.2,104,60.3L104,60.3z"/>
		</g>
		<g>
			<path class="st0" d="M89.4,64.9c1.1-2.9,3-5.4,5.5-7.3c0.2-0.2,0-0.6-0.2-0.4c-2.6,2-4.5,4.6-5.7,7.6
				C88.9,65.1,89.3,65.2,89.4,64.9L89.4,64.9z"/>
		</g>
		<g>
			<path class="st0" d="M81,78.1c0.5-4.9,2.4-10.7,7.7-12.2c0.4-0.1,0.2-0.7-0.2-0.6c-5.7,1.6-7.7,7.6-8.2,12.8
				C80.2,78.5,80.9,78.5,81,78.1L81,78.1z"/>
		</g>
		<g>
			<path class="st0" d="M82.1,77.6c0.6-4,3.1-7.6,6.7-9.5c0.4-0.2,0.1-0.8-0.3-0.6c-3.8,1.9-6.5,5.6-7.1,9.9
				C81.4,77.9,82.1,78,82.1,77.6L82.1,77.6z"/>
		</g>
		<g>
			<path class="st0" d="M83.9,82.4c0.3,1.1,0.6,2.2,1,3.3c0.2,0.4,0.8,0.2,0.6-0.2c-0.4-1.1-0.7-2.2-1-3.3
				C84.4,81.8,83.8,82,83.9,82.4L83.9,82.4z"/>
		</g>
		<g>
			<path class="st0" d="M110.9,94c3.5-2,6.4-4.9,7.4-8.9c0.1-0.3-0.3-0.4-0.4-0.1c-1,3.9-3.8,6.7-7.2,8.6
				C110.4,93.8,110.6,94.1,110.9,94L110.9,94z"/>
		</g>
		<g>
			<path class="st0" d="M89.3,68.2c1.2-3,3.2-5.6,5.8-7.5c0.2-0.2,0-0.6-0.2-0.4c-2.8,2-4.8,4.7-6,7.8
				C88.7,68.3,89.2,68.4,89.3,68.2L89.3,68.2z"/>
		</g>
		<g>
			<path class="st0" d="M94.2,55.6c-1.3,0.6-2.6,1.4-4.1,1.1c-0.3-0.1-0.4,0.4-0.1,0.4c1.6,0.3,3-0.6,4.5-1.2
				C94.6,55.9,94.4,55.5,94.2,55.6L94.2,55.6z"/>
		</g>
		<g>
			<path class="st0" d="M95.2,57.4c-0.4-2.8-0.9-5.6-1.2-8.4c-0.1,0.1-0.2,0.2-0.3,0.3c3.7-0.1,7.4-1.5,10.1-4.1
				c1.1-1.1,4.1-4.7,1.3-5.7c-1.8-0.6-4.2,0.6-5.8,1.3c-1.1,0.5-7.1,3.1-4,4.7c1.3,0.7,3.1,0.3,4.4-0.3c1.6-0.7,2.9-1.9,3.6-3.5
				c0.1-0.2-0.1-0.6-0.4-0.5c-1.6,0.5-3,1.2-4.3,2.3c-0.3,0.3,0.2,0.7,0.5,0.5c1.2-1,2.5-1.7,4-2.1c-0.1-0.2-0.2-0.3-0.4-0.5
				c-1.1,2.2-3.4,3.8-5.9,3.7c-0.3,0-0.6,0-0.9-0.1c-0.4-0.1-0.9-0.5-0.7-0.9c0.2-0.6,1.5-1.2,2.1-1.5c0.9-0.5,1.7-0.9,2.6-1.3
				c1.4-0.6,3-1.4,4.5-1.3c1,0.1,1.4,0.9,1.1,1.8c-0.4,1.2-1.5,2.3-2.5,3.2c-2.5,2.3-5.9,3.6-9.3,3.6c-0.2,0-0.3,0.2-0.3,0.3
				c0.4,2.9,0.8,5.7,1.3,8.6C94.6,58,95.3,57.8,95.2,57.4L95.2,57.4z"/>
		</g>
		<g>
			<path class="st0" d="M99.8,81.6c-1.7-7.9-3.2-15.9-4.5-23.9c-0.1-0.4-0.7-0.2-0.6,0.2c1.3,8,2.8,16,4.5,23.9
				C99.2,82.2,99.8,82,99.8,81.6L99.8,81.6z"/>
		</g>
		<g>
			<path class="st0" d="M105.6,41.3c-2.3,13.2-2.6,26.6-0.9,39.9c0.1,0.4,0.7,0.4,0.7,0c-1.7-13.2-1.4-26.6,0.9-39.7
				C106.3,41,105.7,40.8,105.6,41.3L105.6,41.3z"/>
		</g>
		<g>
			<path class="st0" d="M94.9,81.9c-0.7,1.8,3.5,1,4.3,0.8c1.9-0.4,3.8-1,5.6-1.9c1.5-0.7,3.4-1.7,4.1-3.3c0.2-0.4-0.4-0.7-0.6-0.3
				c-0.6,1.4-2.1,2.2-3.4,2.9c-1.4,0.7-2.9,1.2-4.4,1.6c-1,0.3-1.9,0.5-2.9,0.6c-0.3,0-2.3,0.3-2.1-0.2C95.7,81.6,95,81.5,94.9,81.9
				L94.9,81.9z"/>
		</g>
		<g>
			<path class="st0" d="M111.1,90.8c2.1-0.9,5-1.8,4.3-4.7c-1-3.5-4-5.7-6.4-8.2c-0.2-0.2-0.5,0.1-0.3,0.3c2.1,2.1,4.7,4,5.9,6.8
				c0.6,1.3,0.9,2.7-0.3,3.7c-0.9,0.8-2.1,1.1-3.2,1.6C110.7,90.4,110.8,90.9,111.1,90.8L111.1,90.8z"/>
		</g>
		<g>
			<path class="st0" d="M95.5,83.2c0.2,0.4,0.4,0.8,0.5,1.2c0.1,0.3,0.5,0.2,0.4-0.1c-0.2-0.5-0.4-0.9-0.6-1.3
				C95.7,82.7,95.4,82.9,95.5,83.2L95.5,83.2z"/>
		</g>
		<g>
			<path class="st0" d="M107.1,85.7c-1.1-1.4-1.8-3.1-2.1-4.8c-0.1-0.3-0.5-0.2-0.4,0.1c0.3,1.8,1.1,3.4,2.2,4.9
				C106.9,86.2,107.3,85.9,107.1,85.7L107.1,85.7z"/>
		</g>
		<g>
			<path class="st0" d="M98.9,82.1c0.1,0.7,0.3,1.4,0.4,2.1c0.1,0.3,0.5,0.2,0.4-0.1c-0.1-0.7-0.2-1.4-0.4-2.1
				C99.3,81.7,98.9,81.8,98.9,82.1L98.9,82.1z"/>
		</g>
		<g>
			<path class="st0" d="M94.3,44.6c0.3,1.3,0.7,2.6,1.2,3.8c0.2,0.4,0.8,0.2,0.6-0.2c-0.5-1.3-0.9-2.5-1.2-3.8
				C94.9,44,94.2,44.2,94.3,44.6L94.3,44.6z"/>
		</g>
		<g>
			<path class="st0" d="M102.5,42c-0.2,1.3-0.3,2.5-0.5,3.7c-0.1,0.4,0.6,0.6,0.6,0.2c0.2-1.3,0.3-2.5,0.5-3.7
				C103.2,41.7,102.5,41.5,102.5,42L102.5,42z"/>
		</g>
		<g>
			<path class="st0" d="M98.5,44.3c0,0.2,0.1,0.4,0.1,0.6c0,0.2,0.2,0.3,0.4,0.2c0.2-0.1,0.3-0.2,0.2-0.4c0-0.2-0.1-0.4-0.1-0.6
				c0-0.2-0.2-0.3-0.4-0.2C98.6,43.9,98.5,44.1,98.5,44.3L98.5,44.3z"/>
		</g>
		<g>
			<path class="st0" d="M96.9,82.8c-0.2,0.5-0.4,1-0.6,1.5c-0.1,0.3,0.3,0.5,0.4,0.2c0.2-0.5,0.4-1,0.6-1.5
				C97.4,82.8,97.1,82.5,96.9,82.8L96.9,82.8z"/>
		</g>
		<g>
			<path class="st0" d="M98.5,82.4c-0.3,0.5-0.5,1-0.8,1.5c-0.1,0.3,0.3,0.5,0.4,0.2c0.2-0.5,0.5-1,0.8-1.5
				C99.1,82.4,98.7,82.2,98.5,82.4L98.5,82.4z"/>
		</g>
		<g>
			<path class="st0" d="M100.1,82.3c-0.2,0.6-0.5,1.1-0.7,1.7c-0.1,0.3,0.3,0.4,0.4,0.1c0.2-0.6,0.5-1.1,0.7-1.7
				C100.6,82.2,100.2,82,100.1,82.3L100.1,82.3z"/>
		</g>
		<g>
			<path class="st0" d="M102.1,81.6c-0.3,0.9-0.6,1.7-0.9,2.5c-0.1,0.3,0.3,0.4,0.4,0.1c0.3-0.8,0.6-1.7,0.9-2.5
				C102.7,81.5,102.2,81.3,102.1,81.6L102.1,81.6z"/>
		</g>
		<g>
			<path class="st0" d="M104.5,80.5c-0.4,1.3-0.9,2.6-1.4,3.8c-0.1,0.3,0.3,0.4,0.4,0.1c0.5-1.3,1-2.5,1.4-3.8
				C105,80.4,104.6,80.3,104.5,80.5L104.5,80.5z"/>
		</g>
		<g>
			<path class="st0" d="M106.4,79.6c-0.3,1.9-0.7,3.7-1.3,5.6c-0.1,0.3,0.3,0.4,0.4,0.1c0.5-1.8,0.9-3.7,1.3-5.6
				C106.9,79.5,106.4,79.3,106.4,79.6L106.4,79.6z"/>
		</g>
		<g>
			<path class="st0" d="M108.4,78.2c-0.5,2.5-1.1,5-1.8,7.5c-0.1,0.3,0.3,0.4,0.4,0.1c0.7-2.5,1.3-4.9,1.8-7.5
				C108.9,78.1,108.5,78,108.4,78.2L108.4,78.2z"/>
		</g>
		<g>
			<path class="st0" d="M110.2,80.1c-0.6,2.1-1.2,4.2-1.8,6.2c-0.1,0.3,0.3,0.4,0.4,0.1c0.7-2.1,1.3-4.1,1.8-6.2
				C110.7,80,110.3,79.9,110.2,80.1L110.2,80.1z"/>
		</g>
		<g>
			<path class="st0" d="M111.6,81.7c-0.2,2.2-0.7,4.3-1.4,6.4c-0.1,0.3,0.3,0.4,0.4,0.1c0.7-2.1,1.2-4.3,1.4-6.6
				C112.1,81.4,111.7,81.4,111.6,81.7L111.6,81.7z"/>
		</g>
		<g>
			<path class="st0" d="M113.3,83.8c-0.5,2-1.1,3.9-1.6,5.9c-0.1,0.3,0.3,0.4,0.4,0.1c0.5-2,1.1-3.9,1.6-5.9
				C113.8,83.6,113.3,83.5,113.3,83.8L113.3,83.8z"/>
		</g>
		<g>
			<path class="st0" d="M114.4,84.8c-0.3,1.4-0.7,2.7-1.1,4.1c-0.1,0.3,0.3,0.4,0.4,0.1c0.3-1.4,0.7-2.7,1.1-4.1
				C114.9,84.6,114.4,84.5,114.4,84.8L114.4,84.8z"/>
		</g>
		<g>
			<path class="st0" d="M97.5,83.2c0.3,0.3,0.5,0.6,0.8,0.9c0.2,0.2,0.5-0.1,0.3-0.3c-0.3-0.3-0.5-0.6-0.8-0.9
				C97.6,82.7,97.3,83,97.5,83.2L97.5,83.2z"/>
		</g>
		<g>
			<path class="st0" d="M100,82.6c0.8,0.6,1.5,1.3,2.2,2c0.2,0.2,0.5-0.1,0.3-0.3c-0.7-0.7-1.5-1.4-2.3-2C100,82,99.8,82.4,100,82.6
				L100,82.6z"/>
		</g>
		<g>
			<path class="st0" d="M102.8,81.4c3.4,2.6,7,5.1,10.6,7.5c0.2,0.2,0.5-0.2,0.2-0.4c-3.6-2.4-7.1-4.9-10.6-7.5
				C102.8,80.8,102.6,81.2,102.8,81.4L102.8,81.4z"/>
		</g>
		<g>
			<path class="st0" d="M106.1,80.2c2.5,1.7,5.1,3.3,7.9,4.6c0.3,0.1,0.5-0.3,0.2-0.4c-2.7-1.3-5.3-2.9-7.9-4.6
				C106.1,79.7,105.9,80.1,106.1,80.2L106.1,80.2z"/>
		</g>
		<g>
			<path class="st0" d="M104.4,55.1c4.5,1.6,5.7,6.7,6.6,10.8c0.7,3.2,1.6,8.3,5.6,8.9c0-0.1-0.1-0.2-0.1-0.4
				c-1.3,1.2-2.8,2-4.5,2.6c-0.3,0.1-0.2,0.5,0.1,0.4c1.7-0.6,3.3-1.5,4.7-2.7c0.1-0.1,0.1-0.3-0.1-0.4c-2.2-0.3-3.4-2.3-4.1-4.2
				c-0.8-2.2-1.1-4.7-1.7-7c-0.9-3.5-2.6-7.2-6.3-8.5C104.3,54.6,104.2,55,104.4,55.1L104.4,55.1z"/>
		</g>
		<g>
			<path class="st0" d="M82.3,77.8c1,0.4,2.1,0.2,2.9-0.6c0.2-0.2-0.1-0.5-0.3-0.3c-0.5,0.4-1.6,1.4-1.4,2.2
				c0.2,0.7,1.2,0.1,1.6,0.6c0-0.1,0-0.2,0.1-0.3c-0.3,0.2-0.6,0.5-0.6,0.9c0,0.5,0.9,1.3,0.7,1.6c0.1,0,0.3,0,0.4,0
				c-0.4-0.6-1-0.9-1.8-0.7c-0.3,0.1-0.2,0.5,0.1,0.4c0.5-0.1,1,0.1,1.3,0.5c0.1,0.1,0.3,0.2,0.4,0c0.2-0.3,0.2-0.5,0.1-0.8
				c-0.2-0.4-1.3-1.1-0.3-1.6c0.1-0.1,0.1-0.2,0.1-0.3c-0.3-0.4-0.6-0.2-1-0.3c-0.3-0.1-0.2,0.1-0.3-0.2c-0.1-0.3,0-0.3,0.1-0.6
				c0.3-0.4,0.6-0.7,1-1.1c-0.1-0.1-0.2-0.2-0.3-0.3c-0.7,0.7-1.6,0.8-2.5,0.5C82.1,77.3,82,77.7,82.3,77.8L82.3,77.8z"/>
		</g>
		<g>
			<path class="st0" d="M33.8,102.9c-1,0.9-1.9,1.8-2.9,2.8c-0.2,0.2,0.1,0.5,0.3,0.3c0.9-1,1.9-1.9,2.9-2.8
				C34.4,103,34.1,102.7,33.8,102.9L33.8,102.9z"/>
		</g>
		<g>
			<path class="st0" d="M30.8,90.7c-2.4,2.3-4.7,4.6-7.1,6.9c-0.2,0.2,0.1,0.5,0.3,0.3c2.4-2.3,4.7-4.6,7.1-6.9
				C31.3,90.8,31,90.4,30.8,90.7L30.8,90.7z"/>
		</g>
		<g>
			<path class="st0" d="M26.1,96.8c-0.1-0.1-0.2-0.2-0.3-0.3c-0.1-0.1-0.1-0.1-0.2-0.2l0,0c0,0,0-0.1,0,0c0,0,0,0,0,0
				c0,0,0,0.1,0,0.1c0,0,0,0.1,0,0.1c0,0,0,0,0,0.1c0,0-0.1,0-0.1,0.1c-0.1,0-0.1,0-0.1,0c-0.1,0-0.1,0,0,0l0,0
				c0.1,0,0.1,0.1,0.1,0.1c0.1,0.1,0.2,0,0.3-0.1c0.1-0.1,0-0.2-0.1-0.3c-0.1-0.1-0.3-0.2-0.4-0.1c-0.2,0.1-0.1,0.3,0,0.4
				c0.1,0.2,0.3,0.3,0.5,0.5C26,97.4,26.3,97,26.1,96.8L26.1,96.8z"/>
		</g>
		<g>
			<path class="st0" d="M33.8,95.4c-1.1-1.4-2.2-2.9-3.1-4.4c-0.2-0.2-0.5,0-0.4,0.2c1,1.6,2,3,3.2,4.5C33.7,95.9,34,95.6,33.8,95.4
				L33.8,95.4z"/>
		</g>
		<g>
			<path class="st0" d="M33.8,92.2c-0.7-0.7-1.5-1.4-2.2-2.1c-0.2-0.2-0.5,0.1-0.3,0.3c0.8,0.7,1.5,1.3,2.2,2.1
				C33.7,92.7,34,92.4,33.8,92.2L33.8,92.2z"/>
		</g>
		<g>
			<path class="st0" d="M31,105.5c-2.8-2.1-5.3-4.8-7.2-7.7c-0.2-0.2-0.5,0-0.4,0.2c2,3,4.5,5.7,7.4,7.9C31,106,31.2,105.6,31,105.5
				L31,105.5z"/>
		</g>
		<g>
			<path class="st0" d="M29.3,94.9c-0.4-0.4-0.7-0.9-0.9-1.4c-0.1-0.3-0.5-0.2-0.4,0.1c0.2,0.6,0.5,1.1,1,1.6
				C29.2,95.5,29.5,95.1,29.3,94.9L29.3,94.9z"/>
		</g>
		<g>
			<path class="st0" d="M31.4,90.2c-0.2-0.1-0.4,0-0.5,0.1c-0.1,0.2-0.1,0.4,0.1,0.5c0.1,0.1,0.2,0,0.3-0.1c0.1-0.1,0-0.2-0.1-0.3
				c0.1,0,0.1,0.1,0.1,0.1c0,0,0,0,0,0c0,0,0,0,0,0l0,0c0,0,0,0,0,0c0,0,0,0-0.1,0c-0.1,0-0.1,0-0.1,0c0.1,0.1,0.2,0,0.3-0.1
				C31.6,90.4,31.5,90.2,31.4,90.2L31.4,90.2z"/>
		</g>
		<g>
			<path class="st0" d="M31.5,90.1c-0.9-1.6-1.5-3.4-1.7-5.2c0-0.3-0.5-0.3-0.5,0c0.2,1.9,0.8,3.7,1.7,5.4
				C31.2,90.6,31.6,90.4,31.5,90.1L31.5,90.1z"/>
		</g>
		<g>
			<path class="st0" d="M29.1,77.9c0.3-0.2,0.8,0.6,0.9,0.7c0.1,0.3,0.2,0.6,0.3,0.9c0.2,0.5,0.3,0.9,0.4,1.3c0.3,1,0.5,1.9,0.6,2.9
				c0.3,2.1,0.3,4.3-0.1,6.4c-0.1,0.3,0.4,0.4,0.4,0.1c0.4-2.7,0.4-5.4-0.2-8.1c-0.2-0.7-1.2-5.9-2.7-4.7
				C28.6,77.7,28.8,78.1,29.1,77.9L29.1,77.9z"/>
		</g>
		<g>
			<path class="st0" d="M28.5,78.4c2.1,3.5,3,7.5,2.7,11.5c0,0.3,0.4,0.3,0.5,0c0.3-4.1-0.6-8.2-2.7-11.8
				C28.7,77.9,28.3,78.1,28.5,78.4L28.5,78.4z"/>
		</g>
		<g>
			<path class="st0" d="M28.2,84.6c0.4,1.1,0.5,2.2,0.9,3.3c0.5,1,1.1,2,1.8,2.8c0.2,0.2,0.5-0.1,0.3-0.3c-0.8-0.9-1.5-1.9-1.9-3
				c-0.3-1-0.4-2-0.8-3C28.5,84.3,28.1,84.4,28.2,84.6L28.2,84.6z"/>
		</g>
		<g>
			<path class="st0" d="M23.7,98c-0.2-0.2,0.4-1.6,0.5-1.7c0.2-0.4,0.6-0.7,0.9-1.1c0.6-0.6,1.2-1.1,1.8-1.7
				c1.3-1.2,2.5-2.4,3.8-3.6c0.2-0.2-0.1-0.5-0.3-0.3c-1.7,1.6-3.4,3.3-5.2,4.9c-0.6,0.6-1.3,1.2-1.6,2c-0.2,0.5-0.5,1.3,0,1.7
				c0.1,0.1,0.2,0.1,0.3,0c0.2-0.1,0.2-0.1,0.2-0.3c0-0.1,0-0.2-0.1-0.2c0,0-0.1,0-0.1-0.1C23.7,97.5,23.4,97.8,23.7,98L23.7,98z"/>
		</g>
		<g>
			<path class="st0" d="M32.2,88.7c0.1-0.1,0.2-0.3,0.3-0.3c0.1,0.1,0.2,0.2,0.4,0.3c-0.1,0.1-0.1,0.2-0.2,0.3
				c-0.2,0.2-0.4,0.5-0.6,0.6c-0.4,0.4-0.9,0.8-1.3,1.2c-0.2,0.2,0,0.6,0.2,0.4c0.5-0.4,1-0.8,1.4-1.2c0.3-0.3,1-0.9,1-1.4
				c0-0.3-0.2-0.5-0.5-0.6c-0.5-0.1-0.8,0.2-1.1,0.5C31.7,88.6,32,88.9,32.2,88.7L32.2,88.7z"/>
		</g>
		<g>
			<path class="st0" d="M23.6,97.5c-0.7,0.7-1.7,1.3-1.2,2.4c0.6,1.3,1.9,2.4,2.9,3.4c1.1,1.3,2.3,2.7,3.6,3.9
				c1.1,1,1.9-0.6,2.6-1.4c0.2-0.2-0.1-0.5-0.3-0.3c-0.3,0.4-0.7,1-1.1,1.4c-0.7,0.5-1.3-0.4-1.7-0.9c-0.8-0.9-1.7-1.8-2.5-2.7
				c-0.7-0.8-1.5-1.6-2.2-2.4c-0.3-0.4-1-1.1-0.9-1.7c0.1-0.5,0.9-0.9,1.2-1.3C24.2,97.6,23.8,97.3,23.6,97.5L23.6,97.5z"/>
		</g>
		<g>
			<g>
				<path class="st0" d="M97.8,51.3c2.8-0.4,5.3-1.6,7.5-3.4c0.2-0.2-0.1-0.5-0.3-0.3c-2.1,1.8-4.6,2.9-7.3,3.3
					C97.4,50.9,97.6,51.4,97.8,51.3L97.8,51.3z"/>
			</g>
			<g>
				<path class="st0" d="M97.7,51.1c1.9,11,3.2,22.1,4.9,33.1c0.1,0.3,0.5,0.2,0.4-0.1c-1.7-11-3-22.1-4.9-33.1
					C98.1,50.7,97.7,50.8,97.7,51.1L97.7,51.1z"/>
			</g>
			<g>
				<path class="st0" d="M100.7,63c0-0.6,0.1-1.1,0.3-1.7c0.1-0.3-0.3-0.5-0.4-0.2c-0.3,0.6-0.4,1.2-0.4,1.9
					C100.2,63.3,100.7,63.3,100.7,63L100.7,63z"/>
			</g>
			<g>
				<path class="st0" d="M101.4,59.9c0.2-0.5,0.5-1.1,0.7-1.6c0.1-0.3-0.3-0.4-0.4-0.1c-0.2,0.5-0.5,1.1-0.7,1.6
					C100.9,60,101.3,60.1,101.4,59.9L101.4,59.9z"/>
			</g>
			<g>
				<path class="st0" d="M102.9,56.6c0.2-0.7,0.6-1.4,1.1-2.1c0.2-0.2-0.2-0.5-0.4-0.2c-0.5,0.7-0.9,1.4-1.1,2.2
					C102.4,56.8,102.9,56.9,102.9,56.6L102.9,56.6z"/>
			</g>
			<g>
				<path class="st0" d="M101.8,70.2c0-0.3,0.1-0.6,0.2-0.9c0-0.1,0.1-0.4,0.2-0.5c0.2-0.1,0.4,0.1,0.5,0.2c0.2,0.4,0.1,0.8,0.4,1.1
					c0.4,0.5,1.1,0.4,1.4-0.2c0.1-0.3-0.3-0.4-0.4-0.1c-0.1,0.1-0.2,0.1-0.3,0.2c-0.2,0-0.3-0.1-0.4-0.3c-0.1-0.1-0.1-0.2-0.1-0.3
					c-0.1-0.2-0.1-0.4-0.1-0.6c-0.1-0.3-0.2-0.5-0.5-0.6c-0.8-0.1-1,1.3-1.1,1.8C101.3,70.4,101.7,70.5,101.8,70.2L101.8,70.2z"/>
			</g>
			<g>
				<path class="st0" d="M102,63c0.5,0.3,0.9,0.8,1.1,1.3c0.1,0.3,0.5,0.1,0.4-0.1c-0.3-0.7-0.7-1.2-1.3-1.6
					C101.9,62.4,101.7,62.8,102,63L102,63z"/>
			</g>
			<g>
				<path class="st0" d="M102.4,65c0-0.8,0.3-1.6,0.9-2.1c0.2-0.2-0.1-0.5-0.3-0.3c-0.6,0.7-1,1.5-1,2.5
					C101.9,65.3,102.4,65.3,102.4,65L102.4,65z"/>
			</g>
			<g>
				<path class="st0" d="M102.5,65.4c0.1,0.2,0.1,0.3,0.2,0.5c0.1,0.3,0.5,0.2,0.4-0.1c-0.1-0.2-0.1-0.3-0.2-0.5
					C102.9,65,102.5,65.1,102.5,65.4L102.5,65.4z"/>
			</g>
			<g>
				<path class="st0" d="M103.1,67c0.1,0.1,0.1,0.2,0.2,0.3c0.1,0.1,0.2,0.1,0.3,0.1c0.1-0.1,0.1-0.2,0.1-0.3
					c-0.1-0.1-0.1-0.2-0.2-0.3c-0.1-0.1-0.2-0.1-0.3-0.1C103.1,66.8,103,66.9,103.1,67L103.1,67z"/>
			</g>
			<g>
				<path class="st0" d="M103,80.1c-0.1-0.5,0-0.9,0.1-1.3c0.1-0.3-0.3-0.4-0.4-0.1c-0.2,0.5-0.2,1-0.1,1.6
					C102.6,80.5,103,80.4,103,80.1L103,80.1z"/>
			</g>
			<g>
				<path class="st0" d="M103.5,77.3c0-0.3,0.1-0.5,0.3-0.7c0.2-0.2-0.1-0.5-0.3-0.3c-0.3,0.3-0.4,0.6-0.4,1
					C103.1,77.6,103.5,77.6,103.5,77.3L103.5,77.3z"/>
			</g>
		</g>
		<g>
			<path class="st0" d="M22.7,99.1c0.2-1.1,0.7-2.1,1.4-3c0.2-0.2-0.1-0.5-0.3-0.3c-0.7,0.9-1.3,2-1.5,3.2
				C22.2,99.3,22.6,99.4,22.7,99.1L22.7,99.1z"/>
		</g>
		<g>
			<path class="st0" d="M33,88.8c0.2,0.2,0.5,0.5,0.7,0.7c0.2,0.2,0.5-0.1,0.3-0.3c-0.2-0.2-0.5-0.5-0.7-0.7
				C33.2,88.2,32.8,88.5,33,88.8L33,88.8z"/>
		</g>
		<g>
			<path class="st0" d="M25.8,97.2c0.1,0.2,0.2,0.3,0.4,0.5c0.1,0.1,0.2,0.1,0.3,0c0.1-0.1,0.1-0.2,0-0.3c-0.1-0.2-0.2-0.3-0.4-0.5
				c-0.1-0.1-0.2-0.1-0.3,0C25.7,97,25.7,97.1,25.8,97.2L25.8,97.2z"/>
		</g>
		<g>
			<path class="st0" d="M30.9,102.6c0.1,0.1,0.2,0.2,0.3,0.3c0.2,0.2,0.5-0.1,0.3-0.3c-0.1-0.1-0.2-0.2-0.3-0.3
				C31,102.1,30.7,102.4,30.9,102.6L30.9,102.6z"/>
		</g>
		<g>
			<path class="st0" d="M31.5,96.5c0.2-0.1,0.3-0.2,0.5-0.3c0.2-0.2,0-0.5-0.2-0.4c-0.2,0.1-0.3,0.2-0.5,0.3
				C31,96.3,31.3,96.7,31.5,96.5L31.5,96.5z"/>
		</g>
		<g>
			<g>
				<path class="st0" d="M33.7,94.7c-0.5-0.3-1-0.6-1.5-0.8c-0.3-0.1-0.4,0.3-0.1,0.4c0.5,0.2,1,0.4,1.4,0.7
					C33.7,95.3,33.9,94.9,33.7,94.7L33.7,94.7z"/>
			</g>
			<g>
				<path class="st0" d="M31.7,94.1c-2.6,0-4.3,2.7-3.8,5.1c0.5,2.6,3.9,3.4,6,2.2c0.2-0.2,0-0.5-0.2-0.4c-1.8,1.1-4.9,0.5-5.3-1.9
					c-0.4-2.1,1-4.5,3.3-4.5C31.9,94.5,31.9,94.1,31.7,94.1L31.7,94.1z"/>
			</g>
			<g>
				<path class="st0" d="M28.2,97.8c1-2,3.1-2.8,5.2-2.1c0.3,0.1,0.4-0.3,0.1-0.4c-2.2-0.8-4.7,0.2-5.7,2.3
					C27.7,97.9,28.1,98.1,28.2,97.8L28.2,97.8z"/>
			</g>
			<g>
				<path class="st0" d="M32.1,95.1c-0.1-0.1-0.1-0.3,0-0.4c0.1-0.3-0.3-0.4-0.4-0.1c-0.1,0.2-0.1,0.4,0,0.6
					C31.8,95.4,32.2,95.3,32.1,95.1L32.1,95.1z"/>
			</g>
			<g>
				<path class="st0" d="M29.3,99.5c0.3,0.6,1.8,1.8,2.4,0.9c0.3-0.4-0.2-1-0.4-1.3C30.7,98.5,30.2,98,30,97c0-0.2-0.2-0.2-0.3-0.1
					c-1.1,0.6-0.7,2-0.2,2.9c0.2,0.2,0.5,0,0.4-0.2c-0.4-0.7-0.9-1.8,0-2.2c-0.1-0.1-0.2-0.1-0.3-0.1c0.1,0.8,0.6,1.4,1.1,2
					c0.2,0.2,0.3,0.3,0.4,0.5c0.1,0.1,0.1,0.2,0.2,0.3c0.1,0.3,0,0.4-0.2,0.3c-0.5,0.1-1.1-0.5-1.4-0.9
					C29.5,99.1,29.2,99.3,29.3,99.5L29.3,99.5z"/>
			</g>
			<g>
				<path class="st0" d="M31.2,98.1c0.2,0.5,0.8,0.5,1,0c0.2-0.6-0.3-1-0.7-1.2c-0.1,0-0.2-0.1-0.2,0C30.9,97.2,30.8,97.7,31.2,98.1
					c0.1,0.2,0.5-0.2,0.3-0.4c-0.1-0.1-0.1-0.3,0-0.4c-0.1,0-0.2,0-0.2,0c0.2,0.1,0.4,0.2,0.5,0.4c0,0.1,0.1,0.2,0,0.3
					c0,0-0.1,0-0.1,0C31.5,97.7,31.1,97.8,31.2,98.1L31.2,98.1z"/>
			</g>
			<g>
				<path class="st0" d="M33.6,96.9c-0.7-1-1.6-1.3-2.7-1.1c-1,0.2-2,0.6-2.4,1.6c-0.1,0.3,0.3,0.4,0.4,0.1c0.3-0.9,1.2-1.2,2-1.3
					c0.9-0.1,1.7,0.1,2.3,0.9C33.4,97.4,33.8,97.2,33.6,96.9L33.6,96.9z"/>
			</g>
			<g>
				<path class="st0" d="M28.5,97c-0.5,1.3-0.2,2.9,1.1,3.8c1.3,0.9,3,0.6,4-0.7c0.2-0.2-0.1-0.5-0.3-0.3c-0.8,1.1-2.3,1.4-3.4,0.6
					c-1.1-0.7-1.3-2.1-0.9-3.3C29.1,96.9,28.6,96.8,28.5,97L28.5,97z"/>
			</g>
		</g>
		<g>
			<path class="st0" d="M24.8,96.2c-0.5-0.3,0.2-1,0.5-1.1c0.3-0.2,0.6-0.3,1-0.4c-0.1-0.1-0.2-0.1-0.3-0.2c0,0.9-0.8,1.4-1.5,1.8
				c-0.2,0.1,0,0.5,0.2,0.4c0.9-0.5,1.8-1.1,1.7-2.2c0-0.2-0.1-0.2-0.3-0.2c-0.7,0.1-1.3,0.5-1.7,1c-0.3,0.4-0.4,1,0.1,1.4
				C24.9,96.8,25.1,96.4,24.8,96.2L24.8,96.2z"/>
		</g>
		<g>
			<path class="st0" d="M24.2,98.6c0.3-0.7,0.9-1.2,1.6-1.4c0.3-0.1,0.2-0.5-0.1-0.4c-0.8,0.3-1.5,0.9-1.9,1.6
				C23.7,98.6,24.1,98.9,24.2,98.6L24.2,98.6z"/>
		</g>
		<g>
			<path class="st0" d="M24.9,99.7c0.5-0.3,0.9-0.7,1.1-1.2c0.1-0.2-0.2-0.5-0.4-0.2c-0.2,0.4-0.6,0.8-1,1
				C24.4,99.5,24.6,99.9,24.9,99.7L24.9,99.7z"/>
		</g>
		<g>
			<path class="st0" d="M31.2,84.6c0.2,0.7,0.3,1.4,0.2,2.1c0,0.3,0.4,0.3,0.5,0c0.1-0.8,0-1.5-0.2-2.2
				C31.5,84.2,31.1,84.3,31.2,84.6L31.2,84.6z"/>
		</g>
		<g>
			<path class="st0" d="M31,103c0.4,0.5,0.9,1,1.3,1.4c0.2,0.2,0.5-0.1,0.3-0.3c-0.8-0.9-1.7-1.9-2.5-2.8c-0.2-0.2-0.5,0.1-0.3,0.3
				c0.8,0.9,1.7,1.9,2.5,2.8c0.1-0.1,0.2-0.2,0.3-0.3c-0.4-0.5-0.9-1-1.3-1.4C31.1,102.5,30.8,102.8,31,103L31,103z"/>
		</g>
		<g>
			<path class="st0" d="M26.1,97.5c0.6,0.9,1.3,1.8,2.1,2.5c0.2,0.2,0.5-0.1,0.3-0.3c-0.8-0.7-1.5-1.5-2-2.4
				C26.3,97,25.9,97.2,26.1,97.5L26.1,97.5z"/>
		</g>
		<g>
			<path class="st0" d="M25.9,98.4c0.2-0.1,0.3-0.2,0.5-0.3c0.1-0.1,0.1-0.2,0.1-0.3c-0.1-0.1-0.2-0.2-0.3-0.1
				c-0.2,0.1-0.3,0.2-0.5,0.3c-0.1,0.1-0.1,0.2-0.1,0.3C25.7,98.4,25.8,98.4,25.9,98.4L25.9,98.4z"/>
		</g>
		<g>
			<path class="st0" d="M25.1,97.6c0.1,0.2,0.2,0.5,0.3,0.7c0.1,0.3,0.5,0,0.4-0.2c-0.1-0.2-0.2-0.5-0.3-0.7
				C25.3,97.2,25,97.4,25.1,97.6L25.1,97.6z"/>
		</g>
		<g>
			<path class="st0" d="M31.5,103.2c0.6-0.5,1.1-0.9,1.7-1.3c0.2-0.2-0.1-0.5-0.3-0.3c-0.6,0.5-1.1,0.9-1.7,1.3
				C31,103.1,31.3,103.4,31.5,103.2L31.5,103.2z"/>
		</g>
		<g>
			<path class="st0" d="M95.4,82.2c1.2-0.1,2.3-0.4,3.4-0.8c0.3-0.1,0.2-0.5-0.1-0.4c-1.1,0.4-2.2,0.7-3.3,0.8
				C95.1,81.8,95.1,82.2,95.4,82.2L95.4,82.2z"/>
		</g>
		<g>
			<path class="st0" d="M105,79.2c1.1-0.5,2.3-1,3.4-1.6c0.2-0.1,0-0.5-0.2-0.4c-1.1,0.6-2.1,1.1-3.3,1.6
				C104.6,78.9,104.7,79.3,105,79.2L105,79.2z"/>
		</g>
		<g>
			<path class="st0" d="M111.6,99.2c1.8-1.1,3.6-2.4,5.1-3.9c1.4-1.3,2.8-2.8,3.3-4.7c0.1-0.3-0.4-0.4-0.4-0.1c-0.5,2-2,3.4-3.4,4.7
				c-1.5,1.4-3.1,2.6-4.8,3.6C111.2,98.9,111.4,99.3,111.6,99.2L111.6,99.2z"/>
		</g>
		<g>
			<path class="st0" d="M114.3,91.5c1.7-0.6,3.2,1,2.6,2.6c-0.1,0.3,0.3,0.4,0.4,0.1c0.7-2-1.2-3.9-3.2-3.2
				C114,91.1,114.1,91.6,114.3,91.5L114.3,91.5z"/>
		</g>
		<g>
			<path class="st0" d="M116.8,88.4c1.6,0.4,2.4,2.2,1.9,3.7c-0.1,0.3,0.3,0.4,0.4,0.1c0.6-1.7-0.4-3.7-2.2-4.2
				C116.6,87.9,116.5,88.4,116.8,88.4L116.8,88.4z"/>
		</g>
		<g>
			<path class="st0" d="M104.5,56.1c2.1,0.8,3.3,2.9,4,4.9c0.7,2,1.1,4.1,1.6,6.2c0.6,3,1.5,6.9,4.8,8.1c0.3,0.1,0.4-0.3,0.1-0.4
				c-3.9-1.4-4.2-6.9-5-10.2c-0.7-3.3-1.9-7.6-5.4-8.9C104.4,55.5,104.3,56,104.5,56.1L104.5,56.1z"/>
		</g>
		<g>
			<path class="st0" d="M115,75.6c0.3,0,0.3-0.5,0-0.5C114.7,75.2,114.7,75.6,115,75.6L115,75.6z"/>
		</g>
		<g>
			<path class="st0" d="M114.9,75.1c-1.1,0.5-2.3,1-3.3,1.7c-0.2,0.2,0,0.5,0.2,0.4c1-0.6,2.1-1.2,3.2-1.6
				C115.3,75.4,115.1,75,114.9,75.1L114.9,75.1z"/>
		</g>
		<g>
			<path class="st0" d="M89.5,62.6c0.9-2.4,2.7-4.4,5.1-5.5c0.3-0.1,0-0.5-0.2-0.4c-2.5,1.1-4.3,3.2-5.3,5.7
				C89,62.7,89.4,62.8,89.5,62.6L89.5,62.6z"/>
		</g>
		<g>
			<path class="st0" d="M95.4,82.3C95.4,82.3,95.4,82.3,95.4,82.3c0.1,0,0.1-0.1,0.2-0.1c0,0,0.1,0,0.1,0.1c0,0.1,0,0.2,0,0.3
				c0.2-0.2,1.5,0.1,1.7,0.1c0.2,0,0.3-0.3,0.1-0.4c-0.5-0.3-1-0.4-1.6-0.3c-0.3,0.1-0.2,0.4,0.1,0.4c0.8,0.1,1.6-0.1,2.3-0.4
				c0.3-0.1,0.2-0.5-0.1-0.4c-0.5,0.1-1,0.2-1.5,0.3c0.1,0.1,0.1,0.3,0.2,0.4c0.4-0.3,0.8-0.4,1.3-0.2c-0.1-0.1-0.1-0.2-0.1-0.3
				c-0.1,0.2-0.2,0.4-0.4,0.5c-0.2,0.2,0,0.5,0.2,0.4c0.5-0.2,0.8-0.6,1-1c-0.1-0.1-0.3-0.1-0.4-0.2c0,0.1-0.1,0.3-0.1,0.4
				c0.1,0,0.3,0.1,0.4,0.1c0.1,0,0.1,0,0.1-0.1c0-0.1,0-0.3-0.1-0.4c-0.3,0.2-0.3,0.6,0,0.8c0.1,0.1,0.2,0,0.3,0
				c0.2-0.2,0.4-0.5,0.2-0.8c-0.2-0.2-0.5-0.1-0.6,0.1c-0.1,0.1,0,0.2,0,0.3c0,0,0,0.1,0.1,0.1c0.1,0.1,0.3,0.1,0.3-0.1
				c0.2-0.3,0.1-0.6-0.1-0.8c-0.2-0.2-0.5,0.1-0.3,0.3c0.1,0.1,0.2,0.3,0.3,0.4c0.2,0.2,0.6,0,0.4-0.2c-0.1-0.1-0.2-0.3-0.3-0.4
				c-0.1,0.1-0.2,0.2-0.3,0.3c0,0.1,0,0.2,0,0.3c0.1,0,0.2,0,0.3-0.1c0,0,0-0.1-0.1-0.1c0,0.1,0,0.2,0,0.3c-0.1,0-0.2,0.1-0.3,0.1
				c0.1,0,0.2,0,0.3,0l0,0c0.2-0.1,0.1-0.3-0.1-0.4c-0.3-0.1-0.6,0-0.7,0.4c-0.1,0.3,0.4,0.4,0.4,0.1c0-0.1,0.1-0.3,0.1-0.4
				c0.1-0.2-0.3-0.4-0.4-0.2c-0.2,0.4-0.5,0.6-0.9,0.8c0.1,0.1,0.2,0.3,0.2,0.4c0.3-0.2,0.4-0.3,0.6-0.6c0.1-0.1,0-0.3-0.1-0.3
				c-0.6-0.2-1.1-0.1-1.6,0.3c-0.2,0.1-0.1,0.5,0.2,0.4c0.5-0.1,1-0.2,1.5-0.3c0-0.1-0.1-0.3-0.1-0.4c-0.7,0.3-1.4,0.4-2.2,0.3
				c0,0.1,0,0.3,0.1,0.4c0.5-0.1,0.9,0,1.3,0.2c0-0.1,0.1-0.3,0.1-0.4c-0.5,0-1-0.1-1.5-0.1c-0.2,0-0.3,0-0.5,0.1
				c-0.1,0.1-0.1,0.2,0,0.3c0.1,0.1,0.1,0.2,0.3,0.2c0.1,0,0.2-0.1,0.2-0.2c0,0,0,0,0-0.1C95.9,82.2,95.4,82,95.4,82.3L95.4,82.3z"
				/>
		</g>
		<g>
			<path class="st0" d="M97.7,82.4c0,0.2,0.1,0.4,0.2,0.5c0.2,0.1,0.4,0.1,0.5-0.1c-0.1-0.1-0.2-0.1-0.4-0.2
				c0.1-0.1,0.1-0.1,0.2-0.1c0,0,0.1,0.1,0.1,0.1l0.1,0c0.1,0,0.2-0.1,0.3-0.1c0.2-0.1,0.3-0.3,0.2-0.5c-0.1-0.2-0.3-0.2-0.5-0.1
				c-0.2,0.1-0.2,0.4,0,0.5c0.2,0.2,0.5-0.2,0.2-0.4c0,0,0,0,0,0c0,0,0.1,0.1,0.1,0.1c0,0.2-0.1,0.2-0.2,0.1l0,0c0,0,0,0,0,0
				c-0.1,0-0.2,0.1-0.2,0.1c-0.2,0.1-0.3,0.2-0.3,0.4c0,0.4,0.5,0.5,0.7,0.1c0.1-0.2-0.2-0.4-0.4-0.2c0,0,0,0,0,0c0,0,0,0,0,0
				c0,0,0,0,0,0.1c0-0.1,0-0.2-0.2-0.3C97.9,82.2,97.7,82.3,97.7,82.4L97.7,82.4z"/>
		</g>
		<g>
			<path class="st0" d="M105.4,79.1c-0.1,0.2-0.2,0.3-0.3,0.5c0.1,0.1,0.3,0.2,0.4,0.2c0.1-0.3,0.2-0.5,0.2-0.9
				c0-0.2-0.3-0.3-0.4-0.1c-0.1,0.2-0.2,0.4-0.2,0.6c0,0.2,0.2,0.3,0.4,0.2c0.6-0.5,1.4-1,2.1-1.3c-0.1-0.1-0.2-0.3-0.2-0.4
				c-0.4,0.2-0.8,0.5-1.2,0.7c0.1,0.1,0.2,0.2,0.3,0.3c0.1-0.2,0.3-0.3,0.5-0.3c-0.1-0.1-0.1-0.3-0.2-0.4c-0.3,0.2-0.6,0.4-0.9,0.6
				c-0.2,0.1-0.1,0.4,0.1,0.4c0.3,0,0.6-0.1,0.8-0.2c-0.1-0.1-0.2-0.2-0.3-0.3c-0.2,0.2-0.4,0.4-0.7,0.6c0.1,0.1,0.2,0.3,0.2,0.4
				c0.3-0.3,0.7-0.5,1-0.8c0.2-0.2,0-0.5-0.2-0.4c-0.4,0.2-0.8,0.5-1.2,0.7c0.1,0.1,0.2,0.3,0.2,0.4c0.8-0.6,1.7-1.1,2.5-1.7
				c-0.1-0.1-0.2-0.2-0.3-0.3c-0.1,0.1-0.3,0.3-0.4,0.4c-0.2,0.2,0.1,0.5,0.3,0.3c0.1-0.1,0.3-0.3,0.4-0.4c0.2-0.2-0.1-0.5-0.3-0.3
				c-0.8,0.6-1.7,1.1-2.5,1.7c-0.2,0.2,0,0.5,0.2,0.4c0.4-0.2,0.8-0.5,1.2-0.7c-0.1-0.1-0.2-0.3-0.2-0.4c-0.3,0.3-0.7,0.5-1,0.8
				c-0.2,0.2,0,0.5,0.2,0.4c0.3-0.2,0.5-0.3,0.8-0.6c0.1-0.2-0.1-0.5-0.3-0.3c-0.2,0.2-0.4,0.2-0.6,0.2c0,0.1,0.1,0.3,0.1,0.4
				c0.3-0.2,0.6-0.4,0.9-0.6c0.2-0.1,0.1-0.5-0.2-0.4c-0.3,0.1-0.6,0.3-0.8,0.6c-0.1,0.2,0.1,0.4,0.3,0.3c0.4-0.2,0.8-0.5,1.2-0.7
				c0.2-0.2,0-0.5-0.2-0.4c-0.8,0.3-1.6,0.8-2.2,1.4c0.1,0.1,0.2,0.1,0.4,0.2c0.1-0.1,0.1-0.3,0.1-0.4c-0.1,0-0.3-0.1-0.4-0.1
				c0,0.2,0,0.4-0.1,0.6c-0.1,0.3,0.2,0.5,0.4,0.2c0.1-0.2,0.2-0.3,0.3-0.5C105.9,79.1,105.5,78.9,105.4,79.1L105.4,79.1z"/>
		</g>
		<g>
			<path class="st0" d="M95.6,82.3c0.1,0.1,0.2,0.1,0.3,0.2c0.1,0.1,0.2,0,0.3-0.1c0.1-0.1,0-0.2-0.1-0.3C96,82,95.9,82,95.8,81.9
				c-0.1-0.1-0.2,0-0.3,0.1C95.4,82.1,95.5,82.2,95.6,82.3L95.6,82.3z"/>
		</g>
		<g>
			<path class="st0" d="M76.9,105.7c0.1,0.2,0.2,0.5,0.3,0.7c0.1,0.3,0.5,0,0.4-0.2c-0.1-0.2-0.2-0.5-0.3-0.7
				C77.1,105.2,76.8,105.4,76.9,105.7L76.9,105.7z"/>
		</g>
		<g>
			<path class="st0" d="M78,105.1c0.1,0.1,0.2,0.3,0.2,0.4c0.2,0.2,0.5,0,0.4-0.2c-0.1-0.1-0.2-0.3-0.2-0.4
				C78.2,104.6,77.8,104.9,78,105.1L78,105.1z"/>
		</g>
		<g>
			<path class="st0" d="M76.9,107.8c-0.1-0.1-0.2-0.1-0.4-0.2c-0.1,0.1-0.2,0.3-0.2,0.4c2.6,1.3,5.4-0.9,4.9-3.7
				c-0.1-0.3-0.5-0.2-0.4,0.1c0.5,2.4-2,4.3-4.2,3.2c-0.3-0.1-0.5,0.2-0.2,0.4c0.1,0.1,0.2,0.1,0.4,0.2
				C76.9,108.4,77.1,108,76.9,107.8L76.9,107.8z"/>
		</g>
		<g>
			<path class="st0" d="M83.7,117c0-0.6,0-1.1,0.2-1.7c0-0.2,0.1-0.4,0.2-0.6c0.2-0.4,0.5-0.2,0.9-0.2c0.2,0,0.8,0,0.9,0.1
				c0.2,0.2,0,0.5,0,0.6c-0.2,0.6-0.4,1.1-0.6,1.7c-0.1,0.3,0.3,0.4,0.4,0.1c0.2-0.5,0.3-1,0.5-1.4c0.1-0.3,0.3-0.7,0.2-1
				c-0.1-0.5-1-0.5-1.4-0.5c-0.6-0.1-1.1-0.2-1.4,0.5c-0.3,0.7-0.4,1.6-0.4,2.5C83.2,117.2,83.7,117.2,83.7,117L83.7,117z"/>
		</g>
		<g>
			<path class="st0" d="M85.7,116.3c0.4,0.2,0.9,0.3,1.4,0.1c0.3-0.1,0.2-0.5-0.1-0.4c-0.3,0.1-0.7,0.1-1-0.1
				C85.6,115.8,85.4,116.2,85.7,116.3L85.7,116.3z"/>
		</g>
		<g>
			<path class="st0" d="M82.4,114.7c0.3,0.1,0.6,0.1,0.8,0.2c0.3,0.1,0.4-0.4,0.1-0.4c-0.3-0.1-0.6-0.1-0.8-0.2
				C82.2,114.2,82.1,114.6,82.4,114.7L82.4,114.7z"/>
		</g>
		<g>
			<path class="st0" d="M85.5,113.9c0-0.1,0.1-0.2,0.1-0.3c-0.1,0-0.2,0-0.3,0c0.7,0.4,1.5,0.5,2.3,0.5c0.3,0,0.3-0.5,0-0.5
				c-0.7,0-1.4-0.1-2.1-0.5c-0.1-0.1-0.2,0-0.3,0c-0.2,0.2-0.3,0.4-0.2,0.7C85.2,114.3,85.6,114.2,85.5,113.9L85.5,113.9z"/>
		</g>
		<g>
			<path class="st0" d="M63.8,113.8c1.1-0.5,2.3-0.6,3.5-0.2c0.3,0.1,0.4-0.3,0.1-0.4c-1.3-0.4-2.6-0.3-3.9,0.3
				C63.3,113.5,63.5,113.9,63.8,113.8L63.8,113.8z"/>
		</g>
		<g>
			<path class="st0" d="M63.3,112.8c1-0.6,2.2-0.7,3.3-0.3c0.3,0.1,0.4-0.3,0.1-0.4c-1.3-0.4-2.5-0.2-3.7,0.4
				C62.8,112.6,63.1,113,63.3,112.8L63.3,112.8z"/>
		</g>
		<g>
			<path class="st0" d="M65,111.8c0.1-0.7,0.5-1.4,1.1-1.9c0.2-0.2,0-0.6-0.2-0.4c-0.7,0.5-1.2,1.3-1.3,2.1
				C64.6,112,65,112.1,65,111.8L65,111.8z"/>
		</g>
		<g>
			<path class="st0" d="M63.6,111.5c0.3-0.1,0.7-0.2,1-0.3c0.3-0.1,0.2-0.5-0.1-0.4c-0.3,0.1-0.7,0.2-1,0.3
				C63.2,111.1,63.3,111.6,63.6,111.5L63.6,111.5z"/>
		</g>
		<g>
			<path class="st0" d="M63.1,110c0.8-0.3,1.4-1,1.5-2c0-0.3-0.4-0.3-0.5,0c-0.1,0.7-0.5,1.3-1.1,1.5
				C62.7,109.7,62.8,110.1,63.1,110L63.1,110z"/>
		</g>
		<g>
			<path class="st0" d="M63.8,109.8c0,0.1,0,0.1,0,0.2c0,0.1,0.2,0.2,0.3,0.2c0.1,0,0.2-0.2,0.2-0.3c0-0.1,0-0.1,0-0.2
				c0-0.1-0.2-0.2-0.3-0.2C63.8,109.6,63.8,109.7,63.8,109.8L63.8,109.8z"/>
		</g>
		<g>
			<path class="st0" d="M64.2,109.3c0.1,0.1,0.2,0.1,0.3,0.2c0.1,0.1,0.2,0,0.3-0.1c0.1-0.1,0-0.2-0.1-0.3c-0.1-0.1-0.2-0.1-0.3-0.2
				c-0.1-0.1-0.2,0-0.3,0.1C64.1,109.1,64.1,109.2,64.2,109.3L64.2,109.3z"/>
		</g>
		<g>
			<path class="st0" d="M64.6,109.3c0.1-0.4,0.4-0.7,0.7-0.9c0.3-0.1,0-0.5-0.2-0.4c-0.5,0.2-0.8,0.6-0.9,1.1
				C64.1,109.5,64.5,109.6,64.6,109.3L64.6,109.3z"/>
		</g>
	</g>
	<g>
		<g>
			<path d="M63.6,14.1c-22.9,0-41.6,14.7-41.6,32.8s18.7,32.8,41.6,32.8c13.5,0,25.6-5.1,33.2-13c-0.1-0.2-0.1-0.5-0.1-0.7
				c-7.5,8-19.5,13.2-33.1,13.2c-22.6,0-41-14.5-41-32.3s18.4-32.3,41-32.3c19.7,0,36.2,11,40.1,25.6c0.2-0.1,0.3-0.1,0.5-0.2
				C100.3,25.2,83.6,14.1,63.6,14.1z"/>
		</g>
		<g>
			<path d="M62.8,16.2c-21.4,0-38.9,14.7-38.9,32.8s17.4,32.8,38.9,32.8c14.4,0,27-6.6,33.7-16.5c-0.1-0.1-0.1-0.2-0.1-0.3
				c0-0.1-0.1-0.2-0.1-0.3c-6.6,9.9-19.1,16.6-33.5,16.6c-21.1,0-38.3-14.5-38.3-32.3s17.2-32.3,38.3-32.3
				c17.9,0,32.9,10.3,37.2,24.3c0.2-0.1,0.3-0.1,0.5-0.1C96.2,26.8,80.9,16.2,62.8,16.2z"/>
		</g>
	</g>
</g>
</svg>
