<?xml version="1.0" encoding="utf-8"?>
<!-- Generator: Adobe Illustrator 24.0.1, SVG Export Plug-In . SVG Version: 6.00 Build 0)  -->
<svg version="1.1" id="Layer_1" xmlns="http://www.w3.org/2000/svg" xmlns:xlink="http://www.w3.org/1999/xlink" x="0px" y="0px"
	 viewBox="0 0 141.7 141.7" style="enable-background:new 0 0 141.7 141.7;" xml:space="preserve">
<style type="text/css">
	.st0{fill:#070707;}
	.st1{enable-background:new    ;}
</style>
<g id="Layer_1_1_">
</g>
<g id="Layer_1_2_">
</g>
<g id="Layer_1_3_">
</g>
<g id="Layer_1_4_">
</g>
<g id="Layer_1_5_">
</g>
<g id="Layer_3">
</g>
<g id="Layer_3_1_">
</g>
<g id="Layer_1_6_">
</g>
<g id="Layer_1_7_">
</g>
<g id="Layer_1_8_">
</g>
<g id="Layer_1_9_">
</g>
<g id="Layer_1_10_">
</g>
<g id="Layer_1_11_">
</g>
<g id="Layer_1_12_">
</g>
<g id="Layer_1_13_">
</g>
<g id="Layer_1_14_">
</g>
<g id="Layer_1_15_">
</g>
<g id="Layer_1_16_">
</g>
<g id="Layer_1_17_">
</g>
<g id="Layer_1_18_">
</g>
<g id="Layer_1_19_">
</g>
<g id="Layer_1_20_">
</g>
<g id="Layer_2_1_">
</g>
<g id="Layer_1_21_">
</g>
<g id="Layer_1_22_">
</g>
<g id="Layer_1_23_">
</g>
<g id="Layer_1_24_">
</g>
<g id="Layer_1_25_">
</g>
<g id="Layer_1_26_">
</g>
<g id="Layer_2_2_">
	<g>
		<g>
			<g>
				<g>
					<path class="st0" d="M100.3,38.8C96,31,86.7,27.2,78.2,27.3c-2.9,0-5.9,0.5-8.8,0.8c-2.9,0.3-5.8,0.4-8.7,1
						c-4.8,1-9.1,3.6-12.2,7.3c-5.5,6.3-6.9,14.9-7,23c0,4.3,0.2,8.6,0.6,12.9c0.4,5.4,0.7,10.8,0.4,16.2
						c-0.3,6.6-1.5,13.3-0.5,19.9c0.9,5.6,3.5,10.7,7.4,14.8c0.3,0.3,0.7-0.1,0.4-0.4c-3.5-3.7-6-8.2-7-13.2
						c-1.1-5.5-0.3-11.2,0-16.8c0.4-5.6,0.4-11.2,0.1-16.8c-0.3-4-0.6-8-0.7-12c-0.3-8,0.1-16.6,4.3-23.7c2.2-3.8,5.6-7.1,9.7-9
						c2.6-1.3,5.4-1.8,8.3-2.1c2.9-0.3,5.9-0.6,8.8-0.9c5.2-0.5,10.1-0.5,15.1,1.4c4.8,1.8,9,4.9,11.4,9.4
						C99.9,39.4,100.4,39.1,100.3,38.8L100.3,38.8z"/>
				</g>
			</g>
		</g>
		<g>
			<g>
				<g>
					<path class="st0" d="M55.6,127.1c5.3,3.3,12.1,3.3,18.2,2.8c3.1-0.3,6.2-0.7,9.3-1.3c3.3-0.6,7-0.8,9.8-2.6
						c0.3-0.2,0-0.7-0.3-0.5c-2.8,1.8-6.5,2-9.7,2.6c-3,0.5-6.1,1-9.1,1.2c-5.9,0.5-12.6,0.5-17.9-2.7
						C55.6,126.4,55.2,127,55.6,127.1L55.6,127.1z"/>
				</g>
			</g>
		</g>
		<g>
			<g>
				<g>
					<path class="st0" d="M62.8,29.3c0.4,0,0.4-0.6,0-0.6C62.4,28.7,62.4,29.3,62.8,29.3L62.8,29.3z"/>
				</g>
			</g>
		</g>
		<g>
			<g>
				<g>
					<path class="st0" d="M43,46.8c-2.2-0.2-4.4-1.3-5.4-3.4c-1-2.1-0.7-4.6,0.7-6.4c1.2-1.6,3.1-2.8,5.1-3.1c2-0.3,4.6-0.2,6,1.4
						c0.2,0.3,0.7-0.1,0.4-0.4c-1.4-1.7-4.2-1.9-6.2-1.6c-2.4,0.3-4.7,1.7-6.1,3.8c-1.3,2-1.5,4.5-0.5,6.7c1.1,2.2,3.5,3.5,5.9,3.6
						C43.4,47.4,43.4,46.8,43,46.8L43,46.8z"/>
				</g>
			</g>
		</g>
		<g>
			<g>
				<g>
					<path class="st0" d="M95.9,33.8c3.4-1.8,8.8-2.6,11.3,1.1c2.4,3.7,1,9.7-3.8,10.5c-0.4,0.1-0.2,0.7,0.2,0.6
						c5.1-0.8,6.7-7,4.3-11.1c-2.5-4.3-8.4-3.6-12.2-1.6C95.2,33.4,95.5,33.9,95.9,33.8L95.9,33.8z"/>
				</g>
			</g>
		</g>
		<g>
			<g>
				<g>
					<path class="st0" d="M69,52.3c0.1,0,0.2,0,0.3,0c0-0.1-0.1-0.2-0.1-0.3c-0.2,0.2-0.6,0.1-0.8,0.2c-0.5,0.2-1,0.6-1.4,0.9
						c-0.8,0.7-1.6,1.4-2,2.4c-0.9,2.3,1.9,3.6,3.8,3.4c1.6-0.1,3-0.8,4.6-1c1.5-0.2,2.9,0.4,4.3,0.7c1.9,0.4,3.8-0.6,3.6-2.9
						c-0.3-2.4-3.4-3.7-5.3-4.4c-0.2-0.1-0.3,0.2-0.1,0.3c2,0.7,5.8,2.4,5,5.1c-0.6,2-2.5,1.7-4,1.3c-1.1-0.3-2.1-0.6-3.3-0.5
						c-1.4,0.1-2.7,0.7-4.1,1c-1.5,0.3-4.6-0.2-4.3-2.4c0.2-1.3,1.5-2.4,2.5-3.1c0.4-0.3,0.7-0.5,1.1-0.6c0.2-0.1,0.6-0.1,0.7-0.2
						c0.1-0.1,0-0.3-0.1-0.3c-0.1,0-0.2,0-0.4,0C68.8,52.1,68.8,52.4,69,52.3L69,52.3z"/>
				</g>
			</g>
		</g>
		<g>
			<g>
				<g>
					<path class="st0" d="M76.9,58.6c0.5,1.4,0.9,3.2,0.3,4.6c-0.4,1.1-1.8,1.8-2.8,1c-0.5-0.4-0.6-0.9-0.9-1.4
						c-0.1-0.2-0.3,0-0.3,0.1c0.3,0.6,0.5,1.4,1.2,1.7c0.7,0.4,1.6,0.2,2.2-0.2c1.8-1.2,1.2-4.3,0.6-6
						C77.1,58.3,76.8,58.4,76.9,58.6L76.9,58.6z"/>
				</g>
			</g>
		</g>
		<g>
			<g>
				<g>
					<path class="st0" d="M49.6,123.3c2.9-1.5,4.4,2.2,6.4,3.6c0-0.1,0-0.2,0-0.3c-1.6,0.2-2.9,1.4-4.2,2.3
						c-1.4,1.1-3.4,2.7-5.2,1.7c-4.5-2.5,1.6-6.4,4-7.6c0.2-0.1,0-0.3-0.1-0.3c-2.2,1.1-7.7,4.3-4.9,7.4c3.4,3.7,7.3-2.7,10.6-3.2
						c0.1,0,0.1-0.2,0-0.3c-2.1-1.4-3.6-5.1-6.7-3.6C49.3,123.1,49.5,123.4,49.6,123.3L49.6,123.3z"/>
				</g>
			</g>
		</g>
		<g>
			<g>
				<g>
					<path class="st0" d="M46.4,130.2c-0.5-1.7,0.8-3,2.2-3.7c0.2-0.1,0-0.4-0.1-0.3c-1.5,0.8-2.8,2.3-2.3,4.1
						C46.1,130.5,46.4,130.4,46.4,130.2L46.4,130.2z"/>
				</g>
			</g>
		</g>
		<g>
			<g>
				<g>
					<path class="st0" d="M98.2,130.1c-1.7-1-2.6-2.7-4-3.9c-0.6-0.5-1.3-0.7-0.5-2c0.3-0.5,1-0.9,1.4-1.2c1.1-0.7,2.4-1.1,3.7-0.7
						c2,0.7,3.4,2.7,3.8,4.6c0.2,1,0.2,2.3-0.7,3.1C100.8,131,99.3,130.7,98.2,130.1c-0.2-0.1-0.3,0.2-0.1,0.3
						c1.9,1,4.5,0.7,4.9-1.8c0.3-2.4-1.5-5.4-3.7-6.3c-1.2-0.5-2.4-0.4-3.6,0.2c-0.9,0.4-2.6,1.5-2.7,2.6c-0.1,1,1.3,1.5,1.8,2.1
						c1.1,1.2,2,2.4,3.3,3.2C98.2,130.5,98.3,130.2,98.2,130.1z"/>
				</g>
			</g>
		</g>
		<g>
			<g>
				<g>
					<path class="st0" d="M99.1,126.3c1.1,1.1,2,2.6,2,4.2c0,0.2,0.3,0.2,0.3,0c0-1.7-0.9-3.2-2.1-4.4
						C99.2,125.9,99,126.1,99.1,126.3L99.1,126.3z"/>
				</g>
			</g>
		</g>
		<g>
			<g>
				<g>
					<path class="st0" d="M105.2,83.9c0.7,0.3,1.7,0,2.5,0.1c1.7,0.3,3.4,1.3,4.1,2.9c0.8,1.8,0.1,3.9-2.2,3.5
						c-1.7-0.3-2.9-1.4-4.1-2.6c-0.1-0.1-0.4,0.1-0.2,0.2c1.3,1.3,2.7,2.6,4.6,2.7c1.4,0.1,2.3-0.6,2.5-2c0.2-1.6-0.7-3.1-2-4
						c-0.8-0.6-1.9-1-2.9-1.2c-0.7-0.1-1.6,0.2-2.3-0.1C105.2,83.6,105,83.9,105.2,83.9L105.2,83.9z"/>
				</g>
			</g>
		</g>
		<g>
			<g>
				<g>
					<path class="st0" d="M109.2,88.1c1.1,0.3,2.4,1.3,1.8,2.6c-0.1,0.2,0.2,0.3,0.3,0.1c0.8-1.5-0.7-2.6-2-3
						C109.1,87.7,109,88,109.2,88.1L109.2,88.1z"/>
				</g>
			</g>
		</g>
		<g>
			<path class="st0" d="M85.1,52.2c-5.5,0-9.9-4.4-9.9-9.9c0-5.5,4.4-9.9,9.9-9.9c5.5,0,9.9,4.4,9.9,9.9
				C95,47.7,90.6,52.2,85.1,52.2z M85.1,32.7c-5.3,0-9.5,4.3-9.5,9.5c0,5.3,4.3,9.5,9.5,9.5c5.3,0,9.5-4.3,9.5-9.5
				C94.7,37,90.4,32.7,85.1,32.7z"/>
		</g>
		<g>
			<path class="st0" d="M60.7,53.2c-5.5,0-9.9-4.4-9.9-9.9c0-5.5,4.4-9.9,9.9-9.9c5.5,0,9.9,4.4,9.9,9.9
				C70.6,48.7,66.1,53.2,60.7,53.2z M60.7,33.7c-5.3,0-9.5,4.3-9.5,9.5c0,5.3,4.3,9.5,9.5,9.5c5.3,0,9.5-4.3,9.5-9.5
				C70.2,38,65.9,33.7,60.7,33.7z"/>
		</g>
		<g>
			<path class="st0" d="M103.7,38.4c0-1.1-0.9-2.1-2.1-2.1c-1.1,0-2.1,0.9-2.1,2.1c0,1.1,0.9,2.1,2.1,2.1S103.7,39.5,103.7,38.4z"/>
		</g>
		<g>
			<circle class="st0" cx="44" cy="40.2" r="2.1"/>
		</g>
		<g>
			<path class="st0" d="M77.3,51.2c0-1.3-2-2.4-4.3-2.4c-2.4,0-4.3,1.1-4.3,2.4c0,1.3,2,2.4,4.3,2.4C75.4,53.6,77.3,52.6,77.3,51.2z
				"/>
		</g>
		<g>
			<path class="st0" d="M81.9,42.5c0,1.8,1.4,3.2,3.2,3.2c1.8,0,3.2-1.4,3.2-3.2c0-1.8-1.4-3.2-3.2-3.2
				C83.4,39.3,81.9,40.7,81.9,42.5z M87.1,41.2c0,0.5-0.4,0.9-0.9,0.9c-0.5,0-0.9-0.4-0.9-0.9c0-0.5,0.4-0.9,0.9-0.9
				C86.7,40.3,87.1,40.7,87.1,41.2z"/>
		</g>
		<g>
			<path class="st0" d="M57.3,43.2c0,1.8,1.4,3.2,3.2,3.2c1.8,0,3.2-1.4,3.2-3.2c0-1.8-1.4-3.2-3.2-3.2C58.7,40,57.3,41.5,57.3,43.2
				z M62.5,41.9c0,0.5-0.4,0.9-0.9,0.9c-0.5,0-0.9-0.4-0.9-0.9c0-0.5,0.4-0.9,0.9-0.9C62.1,41,62.5,41.4,62.5,41.9z"/>
		</g>
		<g>
			<g>
				<g>
					<path class="st0" d="M73.2,57.9c0.2,1.3,0.2,2.9,0,4.1c-0.1,0.7-0.3,1.6-0.8,2.2c-0.7,0.6-1.8,0.6-2.4,0
						c-1.3-1.2-0.9-3.9-0.5-5.5c0-0.2-0.2-0.3-0.3-0.1c-0.5,1.8-1,5.6,1.4,6.2c1.2,0.3,2.1-0.3,2.6-1.4c0.4-0.9,0.4-2,0.4-2.9
						c0-0.9,0.1-1.9-0.1-2.8C73.5,57.7,73.2,57.7,73.2,57.9L73.2,57.9z"/>
				</g>
			</g>
		</g>
		<g>
			<g>
				<g>
					<path class="st0" d="M43,84.7c-2.2-0.4-4.5,0.6-6.1,2.1c-1.1,1.1-1.8,2.6-0.1,3.5c0.2,0.1,0.3-0.2,0.1-0.3c-2-1.1,0-3,1.2-3.8
						c1.4-1,3.1-1.6,4.9-1.3C43.1,85.1,43.2,84.8,43,84.7L43,84.7z"/>
				</g>
			</g>
		</g>
		<g>
			<g>
				<g>
					<path class="st0" d="M38.4,88.8c-0.7,0.3-1.5,0.9-1.5,1.7c0,0.7,0.7,1.2,1.4,1.3c1.9,0.3,3.9-1.7,4.9-3.1
						c0.1-0.1-0.1-0.3-0.3-0.1c-0.8,1.1-1.9,2.1-3.1,2.6c-0.7,0.3-2.1,0.6-2.5-0.3c-0.4-0.8,0.7-1.5,1.3-1.8
						C38.7,89,38.6,88.7,38.4,88.8L38.4,88.8z"/>
				</g>
			</g>
		</g>
		<g>
			<g>
				<g>
					<path class="st0" d="M99.2,38c5.8,8.5,5.1,19.6,5,29.5c-0.1,12.2,1.6,24.5,1,36.7c-0.2,3.3-0.7,6.6-1.8,9.8
						c-1,2.9-3.1,5.3-4.6,8c-0.2,0.3,0.3,0.7,0.5,0.3c1.3-2.4,3.1-4.4,4.2-6.9c1.1-2.5,1.6-5.4,2-8.1c0.8-6.2,0.4-12.7,0.1-18.9
						c-0.3-6.5-0.8-12.9-0.8-19.4c0-5.1,0.2-10.2-0.2-15.3c-0.5-5.6-1.7-11.2-4.9-15.9C99.5,37.3,99,37.6,99.2,38L99.2,38z"/>
				</g>
			</g>
		</g>
		<g>
			<g>
				<g>
					<path class="st0" d="M92.8,125.7c0,0,0.1,0,0.1,0c0.2,0,0.2-0.3,0-0.3h0c0,0-0.1,0-0.1,0.1l0,0c0,0,0,0,0,0
						c0.1,0.1,0.1,0.1,0.2,0.2c0,0,0-0.1,0-0.2C93,125.6,92.9,125.7,92.8,125.7c0,0,0.1,0,0.1,0.1c0.1,0.1,0.4-0.1,0.2-0.2
						c0,0-0.1-0.1-0.2-0.2c-0.1-0.1-0.2,0-0.2,0.1C92.7,125.6,92.7,125.7,92.8,125.7c-0.1,0.1,0,0.2,0.1,0.1c0.1,0,0.2-0.1,0.2-0.2
						c0,0-0.1,0-0.1,0.1h0c0.2,0,0.2-0.3,0-0.3c0,0-0.1,0-0.1,0C92.6,125.5,92.6,125.7,92.8,125.7L92.8,125.7z"/>
				</g>
			</g>
		</g>
		<g>
			<g>
				<path d="M51.9,86c-2.7,0-5-2.2-5-5s2.2-5,5-5s5,2.2,5,5S54.7,86,51.9,86z M51.9,76.5c-2.5,0-4.5,2-4.5,4.5c0,2.5,2,4.5,4.5,4.5
					c2.5,0,4.5-2,4.5-4.5C56.4,78.5,54.4,76.5,51.9,76.5z"/>
			</g>
			<g class="st1">
				<path d="M51,83.5v-4.2h1.6c0.3,0,0.5,0,0.6,0c0.2,0,0.4,0.1,0.5,0.2c0.1,0.1,0.3,0.2,0.3,0.4c0.1,0.2,0.1,0.4,0.1,0.6
					c0,0.4-0.1,0.7-0.3,0.9c-0.2,0.3-0.6,0.4-1.2,0.4h-1.1v1.7H51z M51.6,81.3h1.1c0.4,0,0.6-0.1,0.8-0.2c0.2-0.1,0.2-0.3,0.2-0.6
					c0-0.2,0-0.3-0.1-0.5c-0.1-0.1-0.2-0.2-0.4-0.3c-0.1,0-0.3,0-0.5,0h-1.1V81.3z"/>
			</g>
		</g>
		<g>
			<g>
				<path d="M62.5,91.1c-3.2,0-5.8-2.6-5.8-5.8c0-3.2,2.6-5.8,5.8-5.8c3.2,0,5.8,2.6,5.8,5.8C68.3,88.5,65.7,91.1,62.5,91.1z
					 M62.5,79.9c-2.9,0-5.3,2.4-5.3,5.3c0,2.9,2.4,5.3,5.3,5.3c2.9,0,5.3-2.4,5.3-5.3C67.8,82.3,65.4,79.9,62.5,79.9z"/>
			</g>
			<g class="st1">
				<path d="M61.2,87.9v-4.4h3.2V84h-2.6v1.4h2.5v0.5h-2.5v1.5h2.7v0.5H61.2z"/>
			</g>
		</g>
		<g>
			<g>
				<path d="M75.3,99.4c-4.2,0-7.6-3.4-7.6-7.6c0-4.2,3.4-7.6,7.6-7.6c4.2,0,7.6,3.4,7.6,7.6C82.9,96,79.5,99.4,75.3,99.4z
					 M75.3,84.7c-3.9,0-7.1,3.2-7.1,7.1s3.2,7.1,7.1,7.1s7.1-3.2,7.1-7.1S79.3,84.7,75.3,84.7z"/>
			</g>
			<g class="st1">
				<path d="M72.2,94.8l2.3-5.9h0.8l2.4,5.9h-0.9L76.2,93h-2.5l-0.6,1.8H72.2z M73.9,92.4h2l-0.6-1.6c-0.2-0.5-0.3-0.9-0.4-1.2
					c-0.1,0.4-0.2,0.8-0.3,1.1L73.9,92.4z"/>
			</g>
		</g>
		<g>
			<g>
				<path d="M86.9,89.2c-3.1,0-5.6-2.5-5.6-5.6c0-3.1,2.5-5.6,5.6-5.6c3.1,0,5.6,2.5,5.6,5.6C92.5,86.6,90,89.2,86.9,89.2z
					 M86.9,78.4c-2.8,0-5.1,2.3-5.1,5.1c0,2.8,2.3,5.1,5.1,5.1c2.8,0,5.1-2.3,5.1-5.1C92,80.7,89.7,78.4,86.9,78.4z"/>
			</g>
			<g class="st1">
				<path d="M88.3,84.4l0.6,0.1c-0.1,0.5-0.3,0.8-0.6,1.1c-0.3,0.2-0.7,0.4-1.1,0.4c-0.5,0-0.8-0.1-1.1-0.3
					c-0.3-0.2-0.5-0.5-0.7-0.8c-0.2-0.4-0.2-0.7-0.2-1.2c0-0.4,0.1-0.8,0.3-1.2c0.2-0.3,0.4-0.6,0.7-0.8c0.3-0.2,0.7-0.3,1-0.3
					c0.4,0,0.8,0.1,1.1,0.3c0.3,0.2,0.5,0.5,0.6,0.9l-0.6,0.1c-0.1-0.3-0.2-0.5-0.4-0.7c-0.2-0.1-0.4-0.2-0.7-0.2
					c-0.3,0-0.6,0.1-0.8,0.2c-0.2,0.2-0.4,0.4-0.5,0.6c-0.1,0.3-0.1,0.5-0.1,0.8c0,0.4,0.1,0.7,0.2,1c0.1,0.3,0.3,0.5,0.5,0.6
					c0.2,0.1,0.5,0.2,0.7,0.2c0.3,0,0.6-0.1,0.8-0.3C88.1,85,88.3,84.7,88.3,84.4z"/>
			</g>
		</g>
		<g>
			<g>
				<path d="M94.9,81c-2.6,0-4.7-2.1-4.7-4.7c0-2.6,2.1-4.7,4.7-4.7s4.7,2.1,4.7,4.7C99.6,78.9,97.5,81,94.9,81z M94.9,72
					c-2.3,0-4.3,1.9-4.3,4.3c0,2.3,1.9,4.3,4.3,4.3c2.3,0,4.3-1.9,4.3-4.3C99.1,73.9,97.2,72,94.9,72z"/>
			</g>
			<g class="st1">
				<path d="M93.8,78.3v-3.6h2.6v0.4h-2.1v1.1h2v0.4h-2v1.2h2.2v0.4H93.8z"/>
			</g>
		</g>
		<g>
			<g>
				<g>
					<path d="M99.2,74.3c1.6-0.9,3.3-1.6,5.1-2.1c0.4-0.1,0.2-0.7-0.2-0.6c-1.9,0.4-3.6,1.2-5.2,2.1C98.6,74,98.9,74.5,99.2,74.3
						L99.2,74.3z"/>
				</g>
			</g>
		</g>
		<g>
			<g>
				<g>
					<path d="M91.1,80.1c0.2-0.2,0.4-0.4,0.7-0.5c0.1-0.1,0.1-0.3,0-0.4c-0.1-0.1-0.3-0.1-0.4,0c-0.2,0.2-0.4,0.4-0.7,0.5
						c-0.1,0.1-0.1,0.3,0,0.4C90.8,80.2,91,80.2,91.1,80.1L91.1,80.1z"/>
				</g>
			</g>
		</g>
		<g>
			<g>
				<g>
					<path d="M80.7,86.9c0.4-0.2,0.9-0.3,1.3-0.5c0.4-0.1,0-0.7-0.3-0.5c-0.4,0.2-0.8,0.3-1.2,0.5C80.2,86.4,80.4,87,80.7,86.9
						L80.7,86.9z"/>
				</g>
			</g>
		</g>
		<g>
			<g>
				<g>
					<path d="M67.5,88.5c0.5,0,0.9,0.1,1.4,0.1c0.4,0,0.4-0.6,0-0.6c-0.5,0-0.9-0.1-1.4-0.1C67.1,87.9,67.1,88.5,67.5,88.5
						L67.5,88.5z"/>
				</g>
			</g>
		</g>
		<g>
			<g>
				<g>
					<path d="M43.1,77.2c1.6-0.3,3.1,0.6,4.5,1.3c0.4,0.2,0.7-0.4,0.3-0.5c-1.5-0.7-3.2-1.6-5-1.3C42.6,76.7,42.8,77.3,43.1,77.2
						L43.1,77.2z"/>
				</g>
			</g>
		</g>
		<g>
			<path class="st0" d="M35,79.9c-1.7,0-3.4-1.1-4.9-3c-1.6-2.1-2.6-5.1-3-8.3c-0.8-6.7,1.6-12.5,5.5-12.9l0,0
				c3.8-0.5,7.6,4.6,8.4,11.3s-1.6,12.5-5.5,12.9C35.3,79.9,35.1,79.9,35,79.9z M32.6,56.1c-3.5,0.4-5.8,6-5,12.4
				c0.4,3.1,1.4,6,2.9,8c1.5,2,3.2,3,4.9,2.8c3.5-0.4,5.8-6,5-12.4C39.7,60.5,36.2,55.7,32.6,56.1L32.6,56.1z"/>
		</g>
		<g>
			<path class="st0" d="M34.9,78c-2.8,0-5.5-4.1-6.2-9.6c-0.3-2.7-0.1-5.3,0.6-7.3c0.8-2.1,2-3.4,3.4-3.5c1.5-0.2,2.9,0.8,4.2,2.6
				c1.2,1.8,2,4.3,2.3,7c0.3,2.7,0.1,5.3-0.6,7.3c-0.8,2.1-2,3.4-3.4,3.5C35.1,78,35,78,34.9,78z M33.1,58.2c-0.1,0-0.2,0-0.3,0l0,0
				c-1.2,0.1-2.2,1.2-2.8,3.1c-0.7,1.9-0.9,4.4-0.6,7c0.6,5.2,3.2,9.3,5.7,9c1.2-0.1,2.2-1.2,2.8-3.1c0.7-1.9,0.9-4.4,0.6-7
				c-0.3-2.6-1.1-4.9-2.2-6.7C35.3,59,34.2,58.2,33.1,58.2z"/>
		</g>
		<g>
			<g>
				<g>
					<path class="st0" d="M35.2,80.2c0.7,4.6,1.4,9.2,2,13.7c0.1,0.8,1.3,0.4,1.2-0.3c-0.7-4.6-1.4-9.2-2-13.7
						C36.3,79.1,35.1,79.4,35.2,80.2L35.2,80.2z"/>
				</g>
			</g>
		</g>
		<g>
			<g>
				<g>
					<path class="st0" d="M69.4,26.9c-1.3,0.4-2-1.8-2.2-2.8c-0.3-1.1-0.3-2.2,0-3.3c0.5-1.9,2.1-3.3,4.1-3.4c0.9,0,1.9,0.2,2.6,1
						c0.4,0.4,0.9,1.4,0.3,1.9c-0.7,0.6-1.5-0.4-1.9-0.8c-1.4-2.2,0.5-4.8,3-4.3c0.3,0,0.6,0,0.7-0.3c0.7-1.4,2-2.2,3.5-2.4
						c0.8-0.1,0.8-1.3,0-1.2c-2,0.2-3.6,1.2-4.6,3c0.2-0.1,0.5-0.2,0.7-0.3c-2.5-0.5-5.2,1.3-5,4.1c0.1,1.2,0.7,2.5,1.8,3.2
						c1.1,0.7,2.4,0.6,3-0.6c1.2-2.5-2-4.4-4.1-4.3c-2.8,0.1-4.9,2.2-5.4,4.9c-0.4,2.1,0.5,8,3.9,7C70.4,27.9,70.1,26.7,69.4,26.9
						L69.4,26.9z"/>
				</g>
			</g>
		</g>
		<g>
			<g>
				<g>
					<path class="st0" d="M70.7,27.6c-0.7-0.8-0.6-2.2,0.4-2.7c0.4-0.2,1-0.3,1.4-0.2c0.6,0.1,1.5,0.9,0.8,1.6
						c0.3,0.1,0.7,0.3,1,0.4c-0.3-2.2,2.1-3,3.8-3.5c0.7-0.2,0.4-1.4-0.3-1.2c-2.2,0.6-5,1.8-4.7,4.6c0.1,0.5,0.6,0.8,1,0.4
						c1.7-1.8-0.7-3.9-2.7-3.6c-2.5,0.4-3.2,3.2-1.7,5C70.3,29,71.1,28.2,70.7,27.6L70.7,27.6z"/>
				</g>
			</g>
		</g>
		<g>
			<g>
				<g>
					<path class="st0" d="M54.1,33.8c0,0.3,0.1,0.6,0.3,0.8c0.2,0.2,0.4,0.3,0.6,0.4c0.3,0.1,0.7-0.1,0.7-0.4
						c0.1-0.3-0.1-0.7-0.4-0.7c0,0-0.1,0,0,0s0,0,0,0c-0.1,0,0,0,0,0c0,0,0,0-0.1,0c0,0,0.1,0.1,0,0c0,0,0-0.1,0-0.1c0,0,0,0.1,0,0
						c0,0,0-0.1,0,0c0-0.2,0-0.3-0.2-0.4c-0.1-0.1-0.3-0.2-0.4-0.2C54.4,33.2,54,33.4,54.1,33.8L54.1,33.8z"/>
				</g>
			</g>
		</g>
		<g>
			<g>
				<g>
					<path class="st0" d="M57.6,32.8C57.6,32.8,57.6,32.8,57.6,32.8C57.6,32.8,57.6,32.8,57.6,32.8C57.6,32.8,57.6,32.9,57.6,32.8
						C57.6,32.8,57.6,32.8,57.6,32.8C57.6,32.8,57.6,32.8,57.6,32.8C57.6,32.8,57.6,32.7,57.6,32.8c-0.1,0.4,0.1,0.8,0.4,0.8
						c0.3,0.1,0.7-0.1,0.7-0.4c0.1-0.3,0-0.7-0.1-1c-0.2-0.3-0.5-0.4-0.8-0.2C57.5,32.1,57.4,32.5,57.6,32.8L57.6,32.8z"/>
				</g>
			</g>
		</g>
		<g>
			<g>
				<g>
					<path class="st0" d="M60.8,31.9c0,0.2,0,0.5,0,0.7c0,0.3,0.3,0.6,0.6,0.6c0.3,0,0.6-0.3,0.6-0.6c0-0.2,0-0.5,0-0.7
						c0-0.3-0.3-0.6-0.6-0.6C61.1,31.3,60.8,31.6,60.8,31.9L60.8,31.9z"/>
				</g>
			</g>
		</g>
		<g>
			<g>
				<g>
					<path class="st0" d="M82.6,31.1c-0.1,0.3,0,0.7,0.1,1c0.2,0.3,0.5,0.4,0.8,0.2c0.3-0.2,0.4-0.6,0.2-0.8c0,0,0-0.1,0-0.1
						c0,0.1,0,0.1,0,0c0,0,0,0,0,0c0,0,0,0,0,0.1c0,0,0,0,0-0.1c0-0.1,0,0.1,0,0c0.1-0.3-0.1-0.7-0.4-0.7
						C83.1,30.6,82.7,30.8,82.6,31.1L82.6,31.1z"/>
				</g>
			</g>
		</g>
		<g>
			<g>
				<g>
					<path class="st0" d="M85.2,31.1c0,0.2-0.1,0.4-0.1,0.7c0,0.3,0.1,0.7,0.4,0.7c0.3,0.1,0.7-0.1,0.7-0.4c0-0.2,0.1-0.4,0.1-0.7
						c0-0.3-0.1-0.7-0.4-0.7C85.7,30.6,85.3,30.8,85.2,31.1L85.2,31.1z"/>
				</g>
			</g>
		</g>
		<g>
			<g>
				<g>
					<path class="st0" d="M88.7,31.9c-0.1,0.1-0.1,0.3-0.2,0.4c-0.1,0.3-0.1,0.7,0.2,0.8c0.3,0.1,0.7,0.1,0.8-0.2
						c0.1-0.1,0.1-0.3,0.2-0.4c0.1-0.3,0.1-0.7-0.2-0.8C89.3,31.5,88.9,31.6,88.7,31.9L88.7,31.9z"/>
				</g>
			</g>
		</g>
		<g>
			<g>
				<g>
					<path class="st0" d="M91.9,79.8c0.8,0,0.8-1.2,0-1.2C91.1,78.6,91.1,79.8,91.9,79.8L91.9,79.8z"/>
				</g>
			</g>
		</g>
		<g>
			<g>
				<g>
					<path class="st0" d="M98.2,73.7C98.2,73.7,98.2,73.8,98.2,73.7c-0.3,0.3-0.3,0.7-0.1,0.9c0.2,0.2,0.6,0.2,0.8,0
						c0,0,0.1-0.1,0.1-0.1c0.2-0.2,0.2-0.6,0-0.8C98.8,73.5,98.5,73.5,98.2,73.7L98.2,73.7z"/>
				</g>
			</g>
		</g>
		<g>
			<g>
				<g>
					<path class="st0" d="M90.1,80.5C90.1,80.5,90.2,80.5,90.1,80.5c0.3,0.3,0.7,0.3,0.9,0.1c0.2-0.2,0.2-0.6,0-0.8
						c0,0-0.1-0.1-0.1-0.1c-0.2-0.2-0.6-0.2-0.8,0C89.9,79.9,89.8,80.2,90.1,80.5L90.1,80.5z"/>
				</g>
			</g>
		</g>
		<g>
			<g>
				<g>
					<path class="st0" d="M80.3,87.5c0.8,0,0.8-1.2,0-1.2C79.5,86.3,79.5,87.5,80.3,87.5L80.3,87.5z"/>
				</g>
			</g>
		</g>
		<g>
			<g>
				<g>
					<path class="st0" d="M82,86.7c0.8,0,0.8-1.2,0-1.2C81.2,85.5,81.2,86.7,82,86.7L82,86.7z"/>
				</g>
			</g>
		</g>
		<g>
			<g>
				<g>
					<path class="st0" d="M68.3,88.1C68.3,88.1,68.3,88.2,68.3,88.1c0,0.4,0.3,0.7,0.6,0.7c0.3,0,0.6-0.3,0.6-0.6c0,0,0-0.1,0-0.1
						c0-0.3-0.3-0.6-0.6-0.6C68.6,87.5,68.3,87.7,68.3,88.1L68.3,88.1z"/>
				</g>
			</g>
		</g>
		<g>
			<g>
				<g>
					<path class="st0" d="M66.3,88.1c0.1,0.2,0.2,0.4,0.4,0.5c0.2,0.1,0.4,0.1,0.6,0.1c0.3-0.1,0.5-0.4,0.4-0.7
						c-0.1-0.3-0.4-0.5-0.7-0.4c0.1,0,0.1,0,0.2,0c0.2,0,0.3,0.1,0.3,0.3c-0.1-0.3-0.4-0.5-0.7-0.4C66.4,87.5,66.2,87.8,66.3,88.1
						L66.3,88.1z"/>
				</g>
			</g>
		</g>
		<g>
			<g>
				<g>
					<path class="st0" d="M56,83C56,83.1,56,83.1,56,83c0,0.4,0.3,0.7,0.6,0.7c0.3,0,0.6-0.3,0.6-0.6c0,0,0-0.1,0-0.1
						c0-0.3-0.3-0.6-0.6-0.6C56.2,82.5,56,82.7,56,83L56,83z"/>
				</g>
			</g>
		</g>
		<g>
			<g>
				<g>
					<path class="st0" d="M47.4,78.1C47.4,78.1,47.4,78.2,47.4,78.1c0,0.4,0.3,0.7,0.6,0.7c0.3,0,0.6-0.3,0.6-0.6c0,0,0-0.1,0-0.1
						c0-0.3-0.3-0.6-0.6-0.6C47.7,77.5,47.4,77.8,47.4,78.1L47.4,78.1z"/>
				</g>
			</g>
		</g>
		<g>
			<g>
				<g>
					<path class="st0" d="M37.9,94.7c0.8,0,0.8-1.2,0-1.2C37.1,93.5,37.1,94.7,37.9,94.7L37.9,94.7z"/>
				</g>
			</g>
		</g>
		<g>
			<g>
				<g>
					<path class="st0" d="M36.7,94.5C36.7,94.6,36.8,94.6,36.7,94.5c0.3,0.3,0.7,0.3,0.9,0.1s0.2-0.6,0-0.8c0,0-0.1-0.1-0.1-0.1
						c-0.2-0.2-0.6-0.2-0.8,0C36.5,93.9,36.5,94.3,36.7,94.5L36.7,94.5z"/>
				</g>
			</g>
		</g>
		<g>
			<g>
				<g>
					<path class="st0" d="M38,95.2c0.8,0,0.8-1.2,0-1.2C37.2,94,37.2,95.2,38,95.2L38,95.2z"/>
				</g>
			</g>
		</g>
		<g>
			<g>
				<g>
					<path class="st0" d="M38.7,94.5c0.8,0,0.8-1.2,0-1.2C38,93.3,38,94.5,38.7,94.5L38.7,94.5z"/>
				</g>
			</g>
		</g>
		<g>
			<g>
				<g>
					<path class="st0" d="M37,93.6c0.8,0,0.8-1.2,0-1.2C36.3,92.4,36.3,93.6,37,93.6L37,93.6z"/>
				</g>
			</g>
		</g>
		<g>
			<g>
				<g>
					<path class="st0" d="M37.9,93.4C37.9,93.4,38,93.4,37.9,93.4c0.3,0.3,0.7,0.3,0.9,0.1s0.2-0.6,0-0.8c0,0-0.1-0.1-0.1-0.1
						c-0.2-0.2-0.6-0.2-0.8,0C37.7,92.7,37.7,93.1,37.9,93.4L37.9,93.4z"/>
				</g>
			</g>
		</g>
		<g>
			<g>
				<g>
					<path class="st0" d="M28.2,70.5c0.8,0,0.8-1.2,0-1.2C27.5,69.2,27.4,70.5,28.2,70.5L28.2,70.5z"/>
				</g>
			</g>
		</g>
		<g>
			<g>
				<g>
					<path class="st0" d="M27.8,67.4c0.8,0,0.8-1.2,0-1.2C27,66.2,27,67.4,27.8,67.4L27.8,67.4z"/>
				</g>
			</g>
		</g>
		<g>
			<g>
				<g>
					<path class="st0" d="M28.1,63.9c0.8,0,0.8-1.2,0-1.2C27.3,62.7,27.3,63.9,28.1,63.9L28.1,63.9z"/>
				</g>
			</g>
		</g>
		<g>
			<g>
				<g>
					<path class="st0" d="M29.2,60.5c0.8,0,0.8-1.2,0-1.2C28.4,59.2,28.4,60.5,29.2,60.5L29.2,60.5z"/>
				</g>
			</g>
		</g>
		<g>
			<g>
				<g>
					<path class="st0" d="M30.6,56.9C30.6,56.9,30.6,56.9,30.6,56.9c-0.6,0.6,0.2,1.5,0.8,0.9c0,0,0,0,0.1-0.1
						C32,57.1,31.1,56.3,30.6,56.9C30.6,56.9,30.6,56.9,30.6,56.9c-0.6,0.6,0.2,1.5,0.8,0.9c0,0,0,0,0.1-0.1
						C32,57.1,31.1,56.3,30.6,56.9L30.6,56.9z"/>
				</g>
			</g>
		</g>
		<g>
			<g>
				<g>
					<path class="st0" d="M33.6,57.3C33.6,57.3,33.7,57.3,33.6,57.3c0.3,0.3,0.7,0.3,0.9,0.1c0.2-0.2,0.2-0.6,0-0.8
						c0,0-0.1-0.1-0.1-0.1c-0.2-0.2-0.6-0.2-0.8,0C33.4,56.7,33.4,57,33.6,57.3L33.6,57.3z"/>
				</g>
			</g>
		</g>
		<g>
			<g>
				<g>
					<path class="st0" d="M36.9,59.6c0.8,0,0.8-1.2,0-1.2C36.2,58.4,36.1,59.6,36.9,59.6L36.9,59.6z"/>
				</g>
			</g>
		</g>
		<g>
			<g>
				<g>
					<path class="st0" d="M38.5,62.8c0.8,0,0.8-1.2,0-1.2C37.8,61.6,37.8,62.8,38.5,62.8L38.5,62.8z"/>
				</g>
			</g>
		</g>
		<g>
			<g>
				<g>
					<path class="st0" d="M39.8,64.7C39.8,64.7,39.7,64.7,39.8,64.7c-0.3,0-0.4,0-0.6,0C39.1,64.8,39,65,39,65.1
						c-0.1,0.3,0.1,0.7,0.4,0.7c0,0,0.1,0,0.1,0c0.2,0,0.3,0,0.5-0.1c0.1-0.1,0.2-0.2,0.3-0.4C40.3,65.2,40.1,64.8,39.8,64.7
						L39.8,64.7z"/>
				</g>
			</g>
		</g>
		<g>
			<g>
				<g>
					<path class="st0" d="M39.8,69.3C39.9,69.3,39.9,69.3,39.8,69.3c0.4,0,0.7-0.3,0.7-0.6c0-0.3-0.3-0.6-0.6-0.6c0,0-0.1,0-0.1,0
						c-0.3,0-0.6,0.3-0.6,0.6C39.2,69,39.5,69.3,39.8,69.3L39.8,69.3z"/>
				</g>
			</g>
		</g>
		<g>
			<g>
				<g>
					<path class="st0" d="M39.7,73.1C39.7,73.1,39.8,73.1,39.7,73.1c0.4,0,0.7-0.3,0.7-0.6c0-0.3-0.3-0.6-0.6-0.6c0,0-0.1,0-0.1,0
						c-0.3,0-0.6,0.3-0.6,0.6C39.1,72.8,39.4,73.1,39.7,73.1L39.7,73.1z"/>
				</g>
			</g>
		</g>
		<g>
			<g>
				<g>
					<path class="st0" d="M38.3,75.6C38.3,75.7,38.3,75.7,38.3,75.6c0,0.4,0.3,0.7,0.6,0.7c0.3,0,0.6-0.3,0.6-0.6c0,0,0-0.1,0-0.1
						c0-0.3-0.3-0.6-0.6-0.6C38.5,75,38.3,75.3,38.3,75.6L38.3,75.6z"/>
				</g>
			</g>
		</g>
		<g>
			<g>
				<g>
					<path class="st0" d="M37.3,78.6c0.8,0,0.8-1.2,0-1.2C36.5,77.4,36.5,78.6,37.3,78.6L37.3,78.6z"/>
				</g>
			</g>
		</g>
		<g>
			<g>
				<g>
					<path class="st0" d="M34.1,79.2C34.2,79.2,34.2,79.2,34.1,79.2c0.4,0,0.7-0.3,0.7-0.6c0-0.3-0.3-0.6-0.6-0.6c0,0-0.1,0-0.1,0
						c-0.3,0-0.6,0.3-0.6,0.6C33.6,79,33.8,79.2,34.1,79.2L34.1,79.2z"/>
				</g>
			</g>
		</g>
		<g>
			<g>
				<g>
					<path class="st0" d="M31.4,76.5C31.3,76.5,31.3,76.6,31.4,76.5c-0.3,0.3-0.3,0.7-0.1,0.9c0.2,0.2,0.6,0.2,0.8,0
						c0,0,0.1-0.1,0.1-0.1c0.2-0.2,0.2-0.6,0-0.8C32,76.3,31.6,76.3,31.4,76.5L31.4,76.5z"/>
				</g>
			</g>
		</g>
		<g>
			<g>
				<g>
					<path class="st0" d="M29.5,74.4C29.5,74.4,29.6,74.4,29.5,74.4c0.4,0,0.7-0.3,0.7-0.6c0-0.3-0.3-0.6-0.6-0.6c0,0-0.1,0-0.1,0
						c-0.3,0-0.6,0.3-0.6,0.6C28.9,74.1,29.2,74.4,29.5,74.4L29.5,74.4z"/>
				</g>
			</g>
		</g>
		<g>
			<g>
				<g>
					<path class="st0" d="M31.4,61.9c0.5,2.3,1.1,4.6,1.6,6.9c0,0.2,0.3,0.1,0.3-0.1c-0.5-2.3-1.1-4.6-1.6-6.9
						C31.7,61.7,31.4,61.8,31.4,61.9L31.4,61.9z"/>
				</g>
			</g>
		</g>
		<g>
			<g>
				<g>
					<path class="st0" d="M32.7,61.7c0.3,1.5,0.7,3,1,4.5c0,0.2,0.3,0.1,0.3-0.1c-0.3-1.5-0.7-3-1-4.5C33,61.4,32.7,61.5,32.7,61.7
						L32.7,61.7z"/>
				</g>
			</g>
		</g>
	</g>
</g>
</svg>
