<?xml version="1.0" encoding="utf-8"?>
<!-- Generator: Adobe Illustrator 24.0.1, SVG Export Plug-In . SVG Version: 6.00 Build 0)  -->
<svg version="1.1" id="Layer_1" xmlns="http://www.w3.org/2000/svg" xmlns:xlink="http://www.w3.org/1999/xlink" x="0px" y="0px"
	 viewBox="0 0 141.7 141.7" style="enable-background:new 0 0 141.7 141.7;" xml:space="preserve">
<style type="text/css">
	.st0{fill:#070707;}
</style>
<g id="Layer_1_1_">
</g>
<g id="Layer_1_2_">
</g>
<g id="Layer_1_3_">
</g>
<g id="Layer_1_4_">
</g>
<g id="Layer_1_5_">
</g>
<g id="Layer_3">
</g>
<g id="Layer_3_1_">
</g>
<g id="Layer_1_6_">
</g>
<g id="Layer_1_7_">
</g>
<g id="Layer_1_8_">
</g>
<g id="Layer_1_9_">
</g>
<g id="Layer_1_10_">
</g>
<g id="Layer_1_11_">
</g>
<g id="Layer_1_12_">
</g>
<g id="Layer_1_13_">
</g>
<g id="Layer_1_14_">
</g>
<g id="Layer_1_15_">
</g>
<g id="Layer_1_16_">
</g>
<g id="Layer_1_17_">
</g>
<g id="Layer_1_18_">
</g>
<g id="Layer_1_19_">
</g>
<g id="Layer_1_20_">
</g>
<g id="Layer_2_1_">
</g>
<g id="Layer_1_21_">
</g>
<g id="Layer_1_22_">
</g>
<g id="Layer_1_23_">
</g>
<g id="Layer_1_24_">
</g>
<g id="Layer_1_25_">
</g>
<g id="Layer_1_26_">
</g>
<g>
	<g>
		<g>
			<g>
				<path class="st0" d="M63.8,104.6c1.9,3,4.5,5.5,7.6,7.3c0.4,0.2,0.7-0.3,0.3-0.6c-3-1.8-5.4-4.2-7.3-7.1
					C64.1,103.9,63.6,104.2,63.8,104.6L63.8,104.6z"/>
			</g>
		</g>
	</g>
	<g>
		<g>
			<g>
				<path class="st0" d="M106.2,25.5c-3.2-6.2-9.7-9.7-16.3-10.9c-4.3-0.8-8.7-0.3-13,0.1c-4,0.4-8.1,0.5-11.9,1.7
					c-6.8,2.1-12,8-14.6,14.4c-3.2,7.8-3.2,16.9-0.9,24.9c1.3,4.4,3.4,8.3,6.2,11.9c1.7,2.1,3,4.2,3.5,6.9c0.5,2.5,0.4,5.2,0.2,7.7
					c0,0.4,0.6,0.4,0.7,0c0.2-3.7,0.3-7.6-1.3-11c-0.8-1.6-1.9-3-2.9-4.4c-1.3-1.7-2.5-3.4-3.4-5.3c-3.9-7.6-4.9-17-3-25.3
					c1.6-7.1,5.6-13.7,11.9-17.5c3.5-2.1,7.6-2.6,11.6-2.9c4.2-0.4,8.3-1.1,12.5-1c8,0.1,16.6,3.5,20.4,11
					C105.8,26.2,106.4,25.9,106.2,25.5L106.2,25.5z"/>
			</g>
		</g>
	</g>
	<g>
		<g>
			<g>
				<path class="st0" d="M69.3,16.2c0.4,0,0.4-0.7,0-0.7C68.9,15.6,68.9,16.2,69.3,16.2L69.3,16.2z"/>
			</g>
		</g>
	</g>
	<g>
		<g>
			<g>
				<path class="st0" d="M49.8,33.4c-4.8-0.4-7.6-5.5-4.6-9.5c1.2-1.6,3-2.7,4.9-3.1s4.7-0.3,6,1.3c0.3,0.3,0.7-0.1,0.5-0.5
					c-1.5-1.7-4.2-1.9-6.3-1.6c-2.4,0.4-4.7,1.8-6,3.8c-2.9,4.5,0.5,9.7,5.5,10.1C50.2,34.1,50.2,33.4,49.8,33.4L49.8,33.4z"/>
			</g>
		</g>
	</g>
	<g>
		<g>
			<g>
				<path class="st0" d="M101.9,20.6c3.3-1.7,8.7-2.6,11,1.1c2.3,3.7,1,9.5-3.7,10.3c-0.4,0.1-0.2,0.7,0.2,0.6c5-0.9,6.6-6.9,4.3-11
					c-2.4-4.3-8.3-3.6-12.1-1.6C101.2,20.3,101.5,20.8,101.9,20.6L101.9,20.6z"/>
			</g>
		</g>
	</g>
	<g>
		<g>
			<g>
				<path class="st0" d="M75.4,38.9c0.1,0,0.2,0,0.3-0.1c0-0.1-0.1-0.2-0.1-0.3c-0.3,0.1-0.6,0.1-0.9,0.2c-0.5,0.2-0.9,0.6-1.3,0.9
					c-0.8,0.6-1.6,1.4-2,2.4c-0.8,2.2,1.8,3.4,3.6,3.4c1.6-0.1,3-0.8,4.6-1c1.6-0.2,2.9,0.4,4.5,0.7c1.9,0.4,3.8-0.8,3.4-2.9
					c-0.4-2.3-3.3-3.5-5.2-4.2c-0.2-0.1-0.3,0.2-0.1,0.3c2,0.7,5.7,2.3,4.9,5c-0.9,3.2-4.8,0.6-6.9,0.7c-1.3,0.1-2.4,0.5-3.7,0.8
					c-1.6,0.4-4.4,0.4-4.9-1.6c-0.3-1.3,1-2.5,1.9-3.3c0.4-0.4,0.9-0.8,1.5-1c0.3-0.1,0.6-0.1,0.8-0.2c0.1-0.1,0.1-0.3-0.1-0.3
					c-0.1,0-0.2,0-0.4,0.1C75.1,38.6,75.2,38.9,75.4,38.9L75.4,38.9z"/>
			</g>
		</g>
	</g>
	<g>
		<g>
			<g>
				<path class="st0" d="M83.1,45.1c0.5,1.3,0.7,2.9,0.4,4.3c-0.3,1.1-1.3,1.8-2.4,1.5c-0.8-0.2-1-0.9-1.3-1.6
					c-0.1-0.2-0.4,0-0.3,0.2c0.3,0.7,0.6,1.5,1.3,1.8c0.7,0.3,1.5,0.1,2.1-0.3c1.7-1.2,1.2-4.2,0.6-5.9
					C83.4,44.8,83.1,44.9,83.1,45.1L83.1,45.1z"/>
			</g>
		</g>
	</g>
	<g>
		<g>
			<g>
				<path class="st0" d="M72.5,111.4c1.9-0.9,2.9,1.5,4.3,2.4c0-0.1,0-0.2,0-0.3c-2,0.3-3.8,3.3-5.9,2.9c-2-0.4-1.6-2.4-0.5-3.5
					c0.8-0.7,1.7-1.3,2.7-1.8c0.2-0.1,0-0.4-0.2-0.3c-1.5,0.8-5.2,2.9-3.4,5c2.2,2.8,5.1-1.7,7.4-2.1c0.2,0,0.1-0.2,0-0.3
					c-1.5-1.1-2.4-3.4-4.6-2.4C72.2,111.2,72.4,111.5,72.5,111.4L72.5,111.4z"/>
			</g>
		</g>
	</g>
	<g>
		<g>
			<g>
				<path class="st0" d="M70.3,116c-0.3-1.1,0.5-2,1.4-2.5c0.2-0.1,0-0.4-0.2-0.3c-1.1,0.6-1.9,1.6-1.6,2.8
					C70.1,116.3,70.4,116.2,70.3,116L70.3,116z"/>
			</g>
		</g>
	</g>
	<g>
		<g>
			<g>
				<path class="st0" d="M105.1,114c-1.1-0.7-1.7-1.6-2.5-2.5c-0.6-0.6-1.1-1.1-0.2-2c0.6-0.6,1.4-1,2.2-1c1.5,0,2.7,1.3,3.2,2.6
					c0.3,0.7,0.6,1.8,0.1,2.4C107.3,114.5,106.1,114.4,105.1,114c-0.2-0.1-0.4,0.2-0.2,0.3c1.4,0.7,3.2,0.6,3.5-1.2
					c0.3-1.8-1.1-4-2.7-4.7c-0.8-0.3-1.7-0.3-2.5,0.1c-0.7,0.3-2,1.1-2,1.9c0,0.6,0.7,0.9,1.1,1.3c0.9,0.9,1.6,1.9,2.6,2.5
					C105.2,114.4,105.3,114.1,105.1,114z"/>
			</g>
		</g>
	</g>
	<g>
		<g>
			<g>
				<path class="st0" d="M105.8,111.3c0.8,0.8,1.4,1.8,1.4,2.9c0,0.2,0.3,0.2,0.3,0c-0.1-1.2-0.7-2.3-1.5-3.2
					C105.8,110.9,105.6,111.2,105.8,111.3L105.8,111.3z"/>
			</g>
		</g>
	</g>
	<g>
		<g>
			<g>
				<path class="st0" d="M110.8,64.1c0.7,0.3,1.5,0,2.2,0.1c1.7,0.2,3.5,1.2,4.3,2.8c0.9,1.8,0.1,4-2.2,3.5c-1.6-0.3-2.8-1.4-4-2.5
					c-0.2-0.2-0.4,0.1-0.2,0.2c1.3,1.2,2.7,2.5,4.5,2.7c1.2,0.1,2.2-0.5,2.4-1.7c0.3-1.6-0.6-3.1-1.8-4c-0.8-0.6-1.8-1-2.8-1.2
					c-0.8-0.2-1.7,0.2-2.4-0.1C110.8,63.8,110.6,64,110.8,64.1L110.8,64.1z"/>
			</g>
		</g>
	</g>
	<g>
		<g>
			<g>
				<path class="st0" d="M114.7,68.2c1.1,0.3,2.4,1.3,1.7,2.5c-0.1,0.2,0.2,0.3,0.3,0.2c0.8-1.5-0.6-2.6-1.9-3
					C114.6,67.8,114.5,68.1,114.7,68.2L114.7,68.2z"/>
			</g>
		</g>
	</g>
	<g>
		<path class="st0" d="M91.3,38.7c-5.4,0-9.8-4.4-9.8-9.8s4.4-9.8,9.8-9.8c5.4,0,9.8,4.4,9.8,9.8S96.7,38.7,91.3,38.7z M91.3,19.6
			c-5.2,0-9.4,4.2-9.4,9.4s4.2,9.4,9.4,9.4c5.2,0,9.4-4.2,9.4-9.4S96.4,19.6,91.3,19.6z"/>
	</g>
	<g>
		<path class="st0" d="M67.2,39.7C67.2,39.7,67.2,39.7,67.2,39.7c-5.4,0-9.8-4.4-9.8-9.8s4.4-9.8,9.8-9.8c5.4,0,9.8,4.4,9.8,9.8
			c0,2.6-1,5.1-2.9,6.9C72.2,38.7,69.8,39.7,67.2,39.7z M67.2,20.6c-5.2,0-9.4,4.2-9.4,9.4s4.2,9.4,9.4,9.4c0,0,0,0,0,0
			c2.5,0,4.8-1,6.6-2.7c1.8-1.8,2.8-4.1,2.8-6.7C76.5,24.8,72.3,20.6,67.2,20.6z"/>
	</g>
	<g>
		<path class="st0" d="M109.6,25.2c0-1.1-0.9-2-2-2c-1.1,0-2,0.9-2,2c0,1.1,0.9,2,2,2C108.7,27.2,109.6,26.3,109.6,25.2z"/>
	</g>
	<g>
		<circle class="st0" cx="50.7" cy="27" r="2"/>
	</g>
	<g>
		<path class="st0" d="M83.6,37.8c0-1.3-1.9-2.4-4.3-2.4S75,36.5,75,37.8s1.9,2.4,4.3,2.4S83.6,39.1,83.6,37.8z"/>
	</g>
	<g>
		<path class="st0" d="M87.5,30.6c-1.7,0-3.1,1.4-3.1,3.1s1.4,3.1,3.1,3.1c1.7,0,3.1-1.4,3.1-3.1C90.6,32.1,89.3,30.6,87.5,30.6z
			 M88.8,35.8c-0.5,0-0.9-0.4-0.9-0.9s0.4-0.9,0.9-0.9c0.5,0,0.9,0.4,0.9,0.9C89.7,35.4,89.3,35.8,88.8,35.8z"/>
	</g>
	<g>
		<path class="st0" d="M63.2,31.4c-1.7,0-3.1,1.4-3.1,3.1s1.4,3.1,3.1,3.1s3.1-1.4,3.1-3.1C66.4,32.8,64.9,31.4,63.2,31.4z
			 M64.5,36.5c-0.5,0-0.9-0.4-0.9-0.9s0.4-0.9,0.9-0.9c0.5,0,0.9,0.4,0.9,0.9C65.4,36.1,65,36.5,64.5,36.5z"/>
	</g>
	<g>
		<g>
			<g>
				<path class="st0" d="M79.5,44.4c0.2,1.2,0.2,2.6,0.1,3.8c-0.1,1.5-1.2,3.9-3.1,2.4c-1.4-1.1-1-3.9-0.6-5.4
					c0.1-0.2-0.3-0.3-0.3-0.1c-0.5,1.8-0.9,5.7,1.6,6.2c1.1,0.2,2-0.4,2.4-1.4c0.4-0.9,0.4-1.9,0.4-2.8c0-0.9,0.1-1.8-0.1-2.8
					C79.8,44.1,79.5,44.2,79.5,44.4L79.5,44.4z"/>
			</g>
		</g>
	</g>
	<g>
		<g>
			<g>
				<path class="st0" d="M59.7,78.8c-1.7,0.3-3.3-0.3-4.8-1.3c-0.2-0.1-0.3,0.2-0.2,0.3c1.5,1,3.2,1.6,5,1.3
					C59.9,79.1,59.9,78.8,59.7,78.8L59.7,78.8z"/>
			</g>
		</g>
	</g>
	<g>
		<g>
			<g>
				<path class="st0" d="M55.4,74.9c-0.6-0.3-1.7-0.9-1.2-1.7c0.5-0.9,1.8-0.6,2.5-0.3c1.2,0.6,2.3,1.5,3,2.5c0.1,0.2,0.4,0,0.3-0.2
					c-1-1.3-3-3.3-4.8-3c-0.6,0.1-1.4,0.5-1.4,1.2c0,0.8,0.8,1.4,1.5,1.7C55.4,75.3,55.6,75,55.4,74.9L55.4,74.9z"/>
			</g>
		</g>
	</g>
	<g>
		<g>
			<g>
				<path class="st0" d="M105.2,24.7c4.2,5.7,4.6,12.8,4.9,19.6c0.3,7.7-0.1,15.4,0.3,23.2c0,0.4,0.7,0.4,0.7,0
					c-0.4-8,0.1-16.1-0.4-24.2c-0.4-6.6-0.9-13.4-4.9-19C105.5,24.1,104.9,24.4,105.2,24.7L105.2,24.7z"/>
			</g>
		</g>
	</g>
	<g>
		<g>
			<g>
				<path class="st0" d="M76.6,114.1c8.4,1.7,17.1,0.6,24.8-3.1c0.4-0.2,0.1-0.7-0.3-0.6c-7.6,3.6-16.1,4.7-24.3,3
					C76.3,113.4,76.1,114.1,76.6,114.1L76.6,114.1z"/>
			</g>
		</g>
	</g>
	<g>
		<g>
			<g>
				<path class="st0" d="M110.2,66.3c0.4,3.7,3.3,6.2,5.3,8.9c2.6,3.7,4.6,8.3,4.8,12.7c0.6,9-5.7,17.1-13.7,20.6
					c-0.4,0.2-0.1,0.7,0.3,0.6c7.8-3.3,13.9-10.8,14.1-19.5c0.1-4.4-1.4-8.7-3.5-12.5c-1-1.7-2.2-3.3-3.4-4.8
					c-1.4-1.8-3-3.7-3.2-6.1C110.8,65.9,110.2,65.9,110.2,66.3L110.2,66.3z"/>
			</g>
		</g>
	</g>
	<g>
		<path class="st0" d="M47.2,106.5c-7.5,0-14.4-1-19.8-2.9c-5.7-2-8.9-4.8-9-7.8c0-3,3.1-5.9,8.7-8c5.6-2.1,13.1-3.4,21-3.5
			c7.9-0.1,15.4,0.9,21.1,2.9c5.7,2,8.9,4.8,9,7.8c0,3-3.1,5.9-8.7,8c-5.6,2.1-13.1,3.4-21,3.5C48.1,106.5,47.7,106.5,47.2,106.5z
			 M49.5,84.8c-0.4,0-0.9,0-1.3,0c-7.9,0.1-15.3,1.4-20.8,3.5c-5.5,2.1-8.4,4.8-8.4,7.5c0.1,5.8,13.3,10.4,29.6,10.1
			c7.9-0.1,15.3-1.4,20.8-3.5c5.5-2.1,8.4-4.8,8.4-7.5c0-2.8-3.1-5.4-8.6-7.3C63.9,85.8,56.9,84.8,49.5,84.8z"/>
	</g>
	<g>
		<path class="st0" d="M46.7,103.7c-7.6,0-14.6-1-20.1-2.9c-5.8-2-9.1-4.7-9.1-7.8c0-3,3.1-5.9,8.9-8c5.7-2.1,13.2-3.4,21.3-3.5
			c8.1-0.1,15.7,0.9,21.4,2.8c5.8,2,9.1,4.7,9.1,7.8c0,3-3.1,5.9-8.9,8c-5.7,2.1-13.2,3.4-21.3,3.5
			C47.6,103.7,47.2,103.7,46.7,103.7z M49.1,82c-0.5,0-0.9,0-1.4,0c-8,0.1-15.5,1.4-21.1,3.5c-5.5,2.1-8.6,4.8-8.5,7.5
			c0.1,5.7,12.8,10.1,28.6,10.1c0.5,0,0.9,0,1.4,0c16.4-0.3,29.8-5.2,29.7-11C77.6,86.4,64.9,82,49.1,82z"/>
	</g>
	<g>
		<g>
			<g>
				<path class="st0" d="M120.6,85.9c0.6-1.1,2.1-0.6,2.2,0.5c0.2,1.2-0.9,1.8-1.9,1.7c-0.2,0-0.2,0.3,0,0.3
					c1.4,0.1,2.7-1.1,2.2-2.5c-0.4-1.2-2.1-1.3-2.7-0.2C120.2,85.9,120.5,86.1,120.6,85.9L120.6,85.9z"/>
			</g>
		</g>
	</g>
	<g>
		<g>
			<g>
				<path class="st0" d="M55.1,74.9c-1,0.7-0.8,2.4-0.7,3.4c0.2,1.2,0.5,2.8,1.3,3.8c0.1,0.2,0.4-0.1,0.2-0.2c-0.7-0.8-0.9-2-1.1-3
					c-0.2-1-0.6-3,0.4-3.7C55.5,75.1,55.3,74.8,55.1,74.9L55.1,74.9z"/>
			</g>
		</g>
	</g>
	<g>
		<g>
			<g>
				<path class="st0" d="M54.6,72.5c0.2-0.4,0.6-1.4,1.1-1.4c0.7,0,0.3,1.2,0.2,1.6c-0.1,0.2,0.3,0.3,0.3,0.1c0.1-0.6,0.5-1.9-0.4-2
					c-0.8-0.1-1.3,1-1.6,1.6C54.2,72.6,54.6,72.6,54.6,72.5L54.6,72.5z"/>
			</g>
		</g>
	</g>
	<g>
		<g>
			<g>
				<path class="st0" d="M51.7,81.7c1-2.2,1.8-4.5,2.4-6.9c0.1-0.2-0.3-0.3-0.3-0.1c-0.6,2.4-1.3,4.6-2.3,6.8
					C51.4,81.7,51.6,81.9,51.7,81.7L51.7,81.7z"/>
			</g>
		</g>
	</g>
	<g>
		<g>
			<g>
				<path class="st0" d="M48.3,81.7c2-0.4,3-3.1,3.8-4.8c0.9-2.1,1.4-4.9,3.5-6c0.2-0.1,0-0.4-0.2-0.3c-1.5,0.8-2.2,2.3-2.7,3.8
					c-0.4,1.2-0.9,2.4-1.6,3.6c-0.7,1.2-1.5,3-3,3.3C48,81.5,48.1,81.8,48.3,81.7L48.3,81.7z"/>
			</g>
		</g>
	</g>
	<g>
		<g>
			<g>
				<path class="st0" d="M26.7,91.1c-0.5,2.6,3.2,3.4,5,3.9c3.5,0.9,7.1,1.1,10.7,1.1c7.7-0.1,15.4-1.1,22.8-2.9
					c0.2-0.1,0.1-0.4-0.1-0.3c-6.5,1.6-13.1,2.6-19.7,2.9c-3,0.1-6.1,0.1-9.2-0.2c-1.7-0.2-3.4-0.5-5.1-1c-1.5-0.4-4.5-1.2-4.1-3.3
					C27,91,26.7,90.9,26.7,91.1L26.7,91.1z"/>
			</g>
		</g>
	</g>
	<g>
		<g>
			<g>
				<path class="st0" d="M43.6,89.1c-2.9-0.4-5.8-0.4-8.6,0.2c-0.6,0.1-4.4,0.8-3.2,2c0.7,0.7,2,0.7,2.9,0.8
					c1.7,0.2,3.4,0.4,5.1,0.5c3.4,0.2,6.8,0.3,10.3,0.2c0.2,0,0.2-0.2,0.1-0.3c-1.8-1.4-4.2-1.7-6.4-1.9c-2.8-0.3-5.7-0.3-8.6-0.1
					c-0.2,0-0.2,0.3,0,0.3c2.5-0.2,5-0.2,7.6,0c2.5,0.2,5.2,0.5,7.2,2c0-0.1,0.1-0.2,0.1-0.3c-4.9,0.1-9.8-0.1-14.6-0.7
					c-0.6-0.1-1.3-0.1-1.9-0.3c-0.3-0.1-0.5-0.1-0.8-0.2c-0.7-0.1-0.9-0.3-0.3-0.8c0.6-0.9,2.3-1,3.3-1.2c2.6-0.4,5.2-0.4,7.7-0.1
					C43.7,89.4,43.8,89.1,43.6,89.1L43.6,89.1z"/>
			</g>
		</g>
	</g>
	<g>
		<g>
			<g>
				<path class="st0" d="M57.5,85.1c-1.9,5.8-0.5,11.9,2.2,17.1c0.1,0.2,0.4,0,0.3-0.2c-2.7-5.2-4-11.2-2.2-16.9
					C57.9,85,57.6,84.9,57.5,85.1L57.5,85.1z"/>
			</g>
		</g>
	</g>
	<g>
		<g>
			<g>
				<path class="st0" d="M20.4,97.7c-0.1,0.7-0.1,1.4,0.2,2.1c0.2,0.4,0.8,0.2,0.6-0.2c-0.2-0.6-0.3-1.2-0.2-1.7
					C21.2,97.5,20.5,97.3,20.4,97.7L20.4,97.7z"/>
			</g>
		</g>
	</g>
	<g>
		<g>
			<g>
				<path class="st0" d="M23.9,99.7c-0.1,0.8-0.1,1.6,0.1,2.3c0.1,0.4,0.7,0.2,0.6-0.2c-0.2-0.7-0.2-1.3-0.1-1.9
					C24.6,99.5,24,99.3,23.9,99.7L23.9,99.7z"/>
			</g>
		</g>
	</g>
	<g>
		<g>
			<g>
				<path class="st0" d="M29.1,101.6c0,0.8,0.1,1.6,0.3,2.3c0.1,0.4,0.7,0.2,0.6-0.2c-0.2-0.7-0.3-1.4-0.3-2.1
					C29.7,101.2,29.1,101.2,29.1,101.6L29.1,101.6z"/>
			</g>
		</g>
	</g>
	<g>
		<g>
			<g>
				<path class="st0" d="M40.4,103.7c0.1,0.7,0.1,1.3,0.1,2c0,0.4,0.7,0.4,0.7,0c-0.1-0.7-0.1-1.3-0.1-2
					C41,103.2,40.3,103.2,40.4,103.7L40.4,103.7z"/>
			</g>
		</g>
	</g>
	<g>
		<g>
			<g>
				<path class="st0" d="M55.8,103.2c0.2,0.8,0.3,1.6,0.2,2.4c-0.1,0.4,0.6,0.4,0.7,0c0.1-0.9,0-1.7-0.3-2.5
					C56.3,102.6,55.7,102.8,55.8,103.2L55.8,103.2z"/>
			</g>
		</g>
	</g>
	<g>
		<g>
			<g>
				<path class="st0" d="M65.1,101.4c0.4,0.6,0.6,1.4,0.3,2.1c-0.1,0.4,0.5,0.6,0.6,0.2c0.3-0.9,0.1-1.8-0.4-2.6
					C65.4,100.7,64.8,101,65.1,101.4L65.1,101.4z"/>
			</g>
		</g>
	</g>
	<g>
		<g>
			<g>
				<path class="st0" d="M69.3,100c0.5,0.7,0.7,1.5,0.6,2.3c0,0.4,0.6,0.4,0.7,0c0.1-0.9-0.2-1.8-0.7-2.6
					C69.6,99.3,69,99.7,69.3,100L69.3,100z"/>
			</g>
		</g>
	</g>
	<g>
		<g>
			<g>
				<path class="st0" d="M72,99.1c0.3,0.6,0.4,1.1,0.3,1.7c0,0.4,0.6,0.4,0.7,0c0-0.7-0.1-1.4-0.4-2.1C72.3,98.4,71.8,98.7,72,99.1
					L72,99.1z"/>
			</g>
		</g>
	</g>
	<g>
		<g>
			<g>
				<path class="st0" d="M74.1,97.4c0.3,0.7,0.4,1.5,0.3,2.3c-0.1,0.4,0.6,0.6,0.6,0.2c0.1-0.9,0.1-1.8-0.3-2.6
					C74.6,96.9,74,97.1,74.1,97.4L74.1,97.4z"/>
			</g>
		</g>
	</g>
	<g>
		<g>
			<g>
				<path class="st0" d="M75.8,96.5c0.1,0.7,0.1,1.5,0,2.3c-0.1,0.4,0.6,0.6,0.6,0.2c0.1-0.9,0.1-1.7,0-2.6
					C76.4,95.8,75.7,96,75.8,96.5L75.8,96.5z"/>
			</g>
		</g>
	</g>
	<g>
		<g>
			<g>
				<path class="st0" d="M76.9,95c0,0.7,0.1,1.5,0.1,2.2c0,0.4,0.7,0.4,0.7,0c0-0.7-0.1-1.5-0.1-2.2C77.5,94.6,76.8,94.6,76.9,95
					L76.9,95z"/>
			</g>
		</g>
	</g>
	<g>
		<g>
			<g>
				<path class="st0" d="M22.1,98.7c-0.2,0.8-0.1,1.5,0.2,2.3c0.2,0.4,0.7,0.1,0.6-0.3c-0.2-0.6-0.3-1.2-0.2-1.8
					C22.8,98.5,22.2,98.3,22.1,98.7L22.1,98.7z"/>
			</g>
		</g>
	</g>
	<g>
		<g>
			<g>
				<path class="st0" d="M21.2,87.8c-0.3,0.9-0.5,2.7,0.6,3.2c0.2,0.1,0.3-0.2,0.1-0.3c-0.9-0.4-0.6-2.1-0.4-2.8
					C21.6,87.7,21.3,87.6,21.2,87.8L21.2,87.8z"/>
			</g>
		</g>
	</g>
	<g>
		<g>
			<g>
				<path class="st0" d="M31.6,83.5c-0.7,0.9-0.7,2.1,0,2.9c0.1,0.2,0.4,0,0.3-0.2c-0.6-0.7-0.6-1.8,0-2.5
					C32,83.6,31.7,83.3,31.6,83.5L31.6,83.5z"/>
			</g>
		</g>
	</g>
	<g>
		<g>
			<g>
				<path class="st0" d="M56.7,82.3c0.4,0.9,0.5,1.8,0.1,2.7c-0.1,0.2,0.2,0.4,0.3,0.2c0.5-1,0.4-2.1-0.1-3
					C56.9,82,56.6,82.2,56.7,82.3L56.7,82.3z"/>
			</g>
		</g>
	</g>
	<g>
		<g>
			<g>
				<path class="st0" d="M66.4,84c0.3,0.7,0.3,1.4-0.1,2.1c-0.1,0.2,0.2,0.3,0.3,0.2c0.4-0.7,0.5-1.6,0.1-2.4
					C66.5,83.7,66.3,83.9,66.4,84L66.4,84z"/>
			</g>
		</g>
	</g>
	<g>
		<g>
			<g>
				<path class="st0" d="M74.4,87.5c0.2,0.7,0,1.3-0.4,1.9c-0.1,0.2,0.1,0.4,0.2,0.2c0.5-0.6,0.7-1.4,0.5-2.2
					C74.7,87.2,74.4,87.3,74.4,87.5L74.4,87.5z"/>
			</g>
		</g>
	</g>
	<g>
		<g>
			<g>
				<path class="st0" d="M41.1,82c-0.6,1-0.5,2.3,0.3,3.2c0.1,0.2,0.4-0.1,0.2-0.2c-0.7-0.8-0.8-1.9-0.3-2.8
					C41.4,82,41.2,81.8,41.1,82L41.1,82z"/>
			</g>
		</g>
	</g>
	<g>
		<g>
			<g>
				<path class="st0" d="M19.3,96.4c-0.1,0.2-0.1,0.5-0.2,0.7c-0.1,0.2,0.3,0.3,0.3,0.1c0.1-0.2,0.1-0.5,0.2-0.7
					C19.7,96.3,19.3,96.2,19.3,96.4L19.3,96.4z"/>
			</g>
		</g>
	</g>
	<g>
		<g>
			<g>
				<path class="st0" d="M19.7,96.5c-0.2,0.4-0.3,0.7-0.4,1.1c-0.1,0.2,0.2,0.3,0.3,0.1c0.2-0.4,0.3-0.7,0.4-1.1
					C20.1,96.4,19.8,96.3,19.7,96.5L19.7,96.5z"/>
			</g>
		</g>
	</g>
	<g>
		<g>
			<g>
				<path class="st0" d="M20.1,97c-0.2,0.4-0.3,0.7-0.5,1.1c-0.1,0.2,0.2,0.4,0.3,0.2c0.2-0.4,0.3-0.7,0.5-1.1
					C20.5,97,20.2,96.8,20.1,97L20.1,97z"/>
			</g>
		</g>
	</g>
	<g>
		<g>
			<g>
				<path class="st0" d="M20.4,97.4c-0.2,0.4-0.4,0.9-0.4,1.4c0,0.2,0.3,0.2,0.3,0c0.1-0.4,0.2-0.8,0.4-1.2
					C20.8,97.4,20.5,97.2,20.4,97.4L20.4,97.4z"/>
			</g>
		</g>
	</g>
	<g>
		<g>
			<g>
				<path class="st0" d="M77.5,94.4c0,0.5,0.1,1,0.1,1.5c0,0.2,0.3,0.2,0.3,0c0-0.5-0.1-1-0.1-1.5C77.8,94.2,77.5,94.2,77.5,94.4
					L77.5,94.4z"/>
			</g>
		</g>
	</g>
	<g>
		<g>
			<g>
				<path class="st0" d="M76.3,96.1c0.1,0.7,0.1,1.4,0.1,2.1c0,0.2,0.3,0.2,0.3,0c0.1-0.7,0-1.4-0.1-2.2
					C76.6,95.8,76.3,95.9,76.3,96.1L76.3,96.1z"/>
			</g>
		</g>
	</g>
	<g>
		<g>
			<g>
				<path class="st0" d="M74.8,97.1c0,0.5,0,1.1-0.2,1.6c-0.1,0.2,0.3,0.3,0.3,0.1c0.1-0.6,0.2-1.1,0.2-1.7
					C75.1,96.8,74.8,96.8,74.8,97.1L74.8,97.1z"/>
			</g>
		</g>
	</g>
	<g>
		<g>
			<g>
				<path class="st0" d="M75.6,96.4c-0.3,0.9-0.4,1.9-0.5,2.9c0,0.2,0.3,0.2,0.3,0c0.1-0.9,0.3-1.9,0.5-2.8
					C76,96.3,75.7,96.2,75.6,96.4L75.6,96.4z"/>
			</g>
		</g>
	</g>
	<g>
		<g>
			<g>
				<path class="st0" d="M76.9,95.5c-0.1,1-0.3,1.9-0.5,2.9c-0.1,0.2,0.3,0.3,0.3,0.1c0.2-1,0.4-2,0.5-3
					C77.3,95.2,76.9,95.2,76.9,95.5L76.9,95.5z"/>
			</g>
		</g>
	</g>
	<g>
		<g>
			<g>
				<path class="st0" d="M72.8,98.4c0,0.6-0.1,1.2-0.2,1.8c-0.1,0.2,0.3,0.3,0.3,0.1c0.1-0.6,0.2-1.2,0.2-1.9
					C73.1,98.2,72.8,98.2,72.8,98.4L72.8,98.4z"/>
			</g>
		</g>
	</g>
	<g>
		<g>
			<g>
				<path class="st0" d="M73.5,98.4c-0.2,0.7-0.3,1.5-0.5,2.2c-0.1,0.2,0.3,0.3,0.3,0.1c0.2-0.7,0.3-1.5,0.5-2.2
					C73.8,98.3,73.5,98.2,73.5,98.4L73.5,98.4z"/>
			</g>
		</g>
	</g>
	<g>
		<g>
			<g>
				<path class="st0" d="M74.1,97.8c-0.1,0.9-0.3,1.7-0.5,2.6c-0.1,0.2,0.3,0.3,0.3,0.1c0.2-0.9,0.4-1.8,0.5-2.7
					C74.4,97.6,74.1,97.6,74.1,97.8L74.1,97.8z"/>
			</g>
		</g>
	</g>
	<g>
		<g>
			<g>
				<path class="st0" d="M20.8,98.8c0.3,0.6,0.6,1.2,0.8,1.9c0.1,0.2,0.4,0,0.3-0.2c-0.3-0.6-0.6-1.2-0.8-1.9
					C21,98.4,20.7,98.6,20.8,98.8L20.8,98.8z"/>
			</g>
		</g>
	</g>
	<g>
		<g>
			<g>
				<path class="st0" d="M21.3,98.4c0.4,0.9,0.8,1.7,1.2,2.6c0.1,0.2,0.4,0,0.3-0.2c-0.4-0.9-0.8-1.7-1.2-2.6
					C21.5,98.1,21.2,98.3,21.3,98.4L21.3,98.4z"/>
			</g>
		</g>
	</g>
	<g>
		<g>
			<g>
				<path class="st0" d="M22.4,98.8c0.3,1,0.7,1.9,1.1,2.8c0.1,0.2,0.4,0,0.3-0.2c-0.4-0.9-0.8-1.8-1.1-2.7
					C22.7,98.5,22.3,98.6,22.4,98.8L22.4,98.8z"/>
			</g>
		</g>
	</g>
	<g>
		<g>
			<g>
				<path class="st0" d="M23.1,98.9c0.4,1,0.8,2.1,1.1,3.1c0.1,0.2,0.4,0.1,0.3-0.1c-0.4-1-0.8-2.1-1.1-3.1
					C23.3,98.6,23,98.7,23.1,98.9L23.1,98.9z"/>
			</g>
		</g>
	</g>
	<g>
		<g>
			<g>
				<path class="st0" d="M24.2,99.5c0.2,1,0.5,1.9,0.9,2.8c0.1,0.2,0.4,0,0.3-0.2c-0.4-0.9-0.7-1.8-0.8-2.7
					C24.5,99.2,24.1,99.3,24.2,99.5L24.2,99.5z"/>
			</g>
		</g>
	</g>
	<g>
		<g>
			<g>
				<path class="st0" d="M25.2,100.1c0.1,0.9,0.4,1.8,0.8,2.7c0.1,0.2,0.4,0,0.3-0.2c-0.4-0.8-0.6-1.7-0.8-2.6
					C25.4,99.8,25.1,99.8,25.2,100.1L25.2,100.1z"/>
			</g>
		</g>
	</g>
	<g>
		<g>
			<g>
				<path class="st0" d="M26,100.4c0.2,1.1,0.6,2.1,1.1,3.1c0.1,0.2,0.4,0,0.3-0.2c-0.5-0.9-0.9-1.9-1.1-3
					C26.2,100.1,25.9,100.2,26,100.4L26,100.4z"/>
			</g>
		</g>
	</g>
	<g>
		<g>
			<g>
				<path class="st0" d="M72,99.2c-0.3,0.9-0.6,1.9-1,2.8c-0.1,0.2,0.2,0.3,0.3,0.1c0.4-0.9,0.7-1.9,1-2.8C72.4,99.1,72,99,72,99.2
					L72,99.2z"/>
			</g>
		</g>
	</g>
	<g>
		<g>
			<g>
				<path class="st0" d="M71.1,99.3c-0.3,0.9-0.7,1.8-1,2.7c-0.1,0.2,0.2,0.3,0.3,0.1c0.3-0.9,0.7-1.8,1-2.7
					C71.5,99.2,71.2,99.1,71.1,99.3L71.1,99.3z"/>
			</g>
		</g>
	</g>
	<g>
		<g>
			<g>
				<path class="st0" d="M70.4,99.6c-0.5,1-0.9,2-1.3,3c-0.1,0.2,0.3,0.3,0.3,0.1c0.3-1,0.7-2,1.2-2.9
					C70.8,99.6,70.5,99.4,70.4,99.6L70.4,99.6z"/>
			</g>
		</g>
	</g>
	<g>
		<g>
			<g>
				<path class="st0" d="M69.5,99.8c-0.5,1.1-1,2.1-1.5,3.2c-0.1,0.2,0.2,0.4,0.3,0.2c0.5-1.1,1-2.1,1.5-3.2
					C69.9,99.8,69.6,99.6,69.5,99.8L69.5,99.8z"/>
			</g>
		</g>
	</g>
	<g>
		<g>
			<g>
				<path class="st0" d="M68.4,100.4c-0.4,0.9-0.8,1.8-1.2,2.7c-0.1,0.2,0.2,0.4,0.3,0.2c0.4-0.9,0.8-1.8,1.2-2.7
					C68.8,100.4,68.5,100.2,68.4,100.4L68.4,100.4z"/>
			</g>
		</g>
	</g>
	<g>
		<g>
			<g>
				<path class="st0" d="M53.8,74.3c0,0.1-0.1,0.1-0.1,0.2c-0.1,0.2,0.2,0.4,0.3,0.2c0-0.1,0.1-0.1,0.1-0.2
					C54.2,74.3,53.9,74.1,53.8,74.3L53.8,74.3z"/>
			</g>
		</g>
	</g>
	<g>
		<g>
			<g>
				<path class="st0" d="M20.9,122c8.1-2.5,16.2,1,22.8,5.5c0.2,0.1,0.3-0.2,0.2-0.3c-6.7-4.6-15-8.1-23.1-5.6
					C20.6,121.8,20.7,122.1,20.9,122L20.9,122z"/>
			</g>
		</g>
	</g>
	<g>
		<g>
			<g>
				<path class="st0" d="M43.8,128c4.3-5.6,9.7-10.2,15.8-13.6c0.2-0.1,0-0.4-0.2-0.3c-6.2,3.4-11.6,8.1-15.9,13.7
					C43.4,128,43.7,128.1,43.8,128L43.8,128z"/>
			</g>
		</g>
	</g>
	<g>
		<g>
			<g>
				<path class="st0" d="M59.6,114.5c3.2-0.2,6.3-0.2,9.5,0.1c0.2,0,0.2-0.3,0-0.3c-3.2-0.3-6.3-0.3-9.5-0.1
					C59.3,114.2,59.3,114.5,59.6,114.5L59.6,114.5z"/>
			</g>
		</g>
	</g>
	<g>
		<g>
			<g>
				<path class="st0" d="M20.8,121.9c7.4-3.6,14.9-6.9,22.4-10.1c0.2-0.1,0.1-0.4-0.1-0.3c-7.6,3.2-15.1,6.6-22.5,10.1
					C20.4,121.7,20.6,122,20.8,121.9L20.8,121.9z"/>
			</g>
		</g>
	</g>
	<g>
		<g>
			<g>
				<path class="st0" d="M43.2,112c2.4-0.3,4.8-0.4,7.1,0c1,0.2,2.1,0.4,3,0.8c0.3,0.1,4,2.2,3.6,2.4c-0.2,0.1,0,0.4,0.2,0.3
					c0.1,0,0.1-0.1,0.1-0.1c0.1,0,0.1-0.1,0.1-0.1c-0.1-0.8-1.2-1.3-1.8-1.7c-1.2-0.7-2.4-1.3-3.8-1.6c-2.8-0.7-5.7-0.7-8.6-0.3
					C42.9,111.7,42.9,112.1,43.2,112L43.2,112z"/>
			</g>
		</g>
	</g>
	<g>
		<g>
			<g>
				<path class="st0" d="M43.4,128.8c0.2-0.5,0.5-0.9,0.7-1.4c0.2-0.4-0.4-0.7-0.6-0.3c-0.2,0.5-0.5,0.9-0.7,1.4
					C42.6,128.9,43.2,129.2,43.4,128.8L43.4,128.8z"/>
			</g>
		</g>
	</g>
	<g>
		<g>
			<g>
				<path class="st0" d="M43.4,128.5c-3.5-2.2-7.1-4.5-11.1-5.4c-2.1-0.5-4.3-0.4-6.4-0.3c-2.3,0.1-4.6,0.2-6.9,0.3
					c0.1,0.2,0.1,0.4,0.2,0.6c1.5-0.9,3.1-1.7,4.8-2.3c0.4-0.1,0.2-0.8-0.2-0.6c-1.8,0.6-3.4,1.4-5,2.3c-0.3,0.2-0.2,0.6,0.2,0.6
					c2.2-0.1,4.3-0.2,6.4-0.3c2.3-0.1,4.5-0.3,6.8,0.2c4,0.9,7.6,3.1,11,5.3C43.4,129.3,43.7,128.8,43.4,128.5L43.4,128.5z"/>
			</g>
		</g>
	</g>
	<g>
		<g>
			<g>
				<path class="st0" d="M31,119.8c0.6-0.2,1.2-0.4,1.8-0.6c-0.1-0.1-0.3-0.3-0.4-0.4c-0.1,0.2-0.1,0.4-0.1,0.5
					c-0.1,0.2,0,0.3,0.2,0.4c0.9,0.7,2.2,0.9,3.3,0.3c0.2-0.1,0.4-0.3,0.6-0.4c1.1-0.6,0.4-0.1,0.2,0.2c-0.2,0.4-0.5,0.6-0.5,1.1
					c0,0.2,0.2,0.3,0.3,0.3c0.6,0.1,1,0,1.5-0.2c-0.1-0.2-0.2-0.4-0.3-0.6c-0.3,0.3-0.3,0.3-0.4,0.8c-0.1,0.2,0.1,0.3,0.2,0.4
					c0.8,0.3,1.4,0.2,2.1-0.2c-0.2-0.1-0.3-0.2-0.5-0.3c0,0.3,0,0.5,0,0.8c0,0.1,0.1,0.3,0.2,0.3c1.2,0.2,2.2,0.6,3.3,1.2
					c0.4,0.2,0.7-0.4,0.3-0.6c-0.6-0.3-1.1-0.6-1.7-0.8c-0.6-0.2-1.5-0.1-1.5-0.9c0-0.2-0.3-0.4-0.5-0.3c-0.5,0.4-1,0.4-1.6,0.2
					c0.1,0.1,0.2,0.3,0.2,0.4c0.1-0.2,0.1-0.3,0.2-0.5c0.2-0.2,0-0.7-0.3-0.6c-0.4,0.2-0.8,0.2-1.3,0.2c0.1,0.1,0.2,0.2,0.3,0.3
					c0-0.6,1.8-1.8,0.4-2.3c-0.4-0.1-0.7,0.1-1,0.3c-0.7,0.4-1.1,0.9-2,0.8c-0.5,0-1.3-0.1-1.2-0.8c0.1-0.2-0.2-0.5-0.4-0.4
					c-0.6,0.2-1.2,0.4-1.8,0.6C30.5,119.3,30.6,120,31,119.8L31,119.8z"/>
			</g>
		</g>
	</g>
	<g>
		<g>
			<g>
				<path class="st0" d="M39.9,119.2c0.3-0.1,0.6-0.3,0.9-0.4c-0.1-0.1-0.3-0.3-0.4-0.4c-0.1,0.4-0.1,0.7,0,1
					c0.1,0.1,0.2,0.2,0.3,0.2c0.6,0,1.1,0,1.7-0.2c-0.1-0.2-0.1-0.4-0.2-0.6c0,0-0.1,0-0.1,0.1c-0.2,0.1-0.3,0.2-0.2,0.4
					c0.2,0.9,2.1,0.8,2.8,0.9c-0.1-0.1-0.2-0.3-0.2-0.4c-0.1,0.4-0.1,1.2,0.6,1.1c0.4-0.1,0.4-0.7,0-0.7c0-0.1,0.1-0.2,0.1-0.3
					c0.1-0.2-0.1-0.4-0.2-0.4c-0.3-0.1-2.2-0.2-2.3-0.4c-0.1,0.1-0.2,0.3-0.2,0.4c0,0,0.1,0,0.1-0.1c0.4-0.2,0.2-0.8-0.2-0.6
					c-0.5,0.1-1,0.2-1.5,0.2c0.1,0.1,0.2,0.2,0.3,0.2c0-0.2,0-0.4,0-0.7c0.1-0.2-0.2-0.5-0.4-0.4c-0.3,0.1-0.6,0.3-0.9,0.4
					C39.4,118.7,39.6,119.3,39.9,119.2L39.9,119.2z"/>
			</g>
		</g>
	</g>
	<g>
		<g>
			<g>
				<path class="st0" d="M44.9,117.4c0.1-0.1,0.1-0.1,0.2-0.1c0-0.2,0-0.3,0-0.5c-0.3,0.3-0.2,0.7,0.1,0.9c0.1,0.1,0.3,0.2,0.5,0.2
					c0.1,0,0.5,0,0.5,0.1c0,0.4,0.7,0.4,0.7,0c0-0.3-0.2-0.5-0.4-0.6c-0.1-0.1-0.3-0.1-0.4-0.1c-0.1,0-0.2,0-0.2,0
					c-0.1,0-0.1-0.1-0.2-0.1c0.1-0.1,0.1-0.3,0-0.5c-0.4-0.3-0.9-0.3-1.2,0.2C44.1,117.4,44.7,117.7,44.9,117.4L44.9,117.4z"/>
			</g>
		</g>
	</g>
	<g>
		<g>
			<g>
				<path class="st0" d="M49,116.1c0.4,0,0.8,0,1.2,0c0.4,0,0.4-0.7,0-0.7c-0.4,0-0.8,0-1.2,0C48.6,115.5,48.6,116.1,49,116.1
					L49,116.1z"/>
			</g>
		</g>
	</g>
	<g>
		<g>
			<g>
				<path class="st0" d="M54.1,122.2c1.3-0.7,2.8-1.1,4.3-0.9c0.9,0.1,1.7,0.3,2.5-0.2c-0.2,0-0.3-0.1-0.4-0.1
					c0.1,0.2,0.3,0.4,0.4,0.6c0.1,0.1,0.2,0.2,0.4,0.2c0.8-0.3,1.5-0.3,2.3,0.1c0.4,0.2,0.7-0.4,0.3-0.6c-0.4-0.3-0.9-0.4-1.4-0.5
					c-0.6,0-1.1,0.3-1.4-0.2c-0.1-0.1-0.3-0.2-0.4-0.1c-0.6,0.4-1.3,0.2-1.9,0.1c-0.6-0.1-1.2,0-1.8,0.1c-1.1,0.1-2.1,0.5-3.1,1
					C53.4,121.8,53.7,122.4,54.1,122.2L54.1,122.2z"/>
			</g>
		</g>
	</g>
	<g>
		<g>
			<g>
				<path class="st0" d="M59.4,118.1c1.6,0.3,3.1,0.7,4.7,1.1c0.4,0.1,0.6-0.5,0.2-0.6c-1.6-0.4-3.1-0.8-4.7-1.1
					C59.2,117.4,59,118,59.4,118.1L59.4,118.1z"/>
			</g>
		</g>
	</g>
	<g>
		<g>
			<g>
				<path class="st0" d="M63.6,116.9c1.1-0.1,2.1-0.1,3.2,0.2c0.4,0.1,0.6-0.5,0.2-0.6c-1.1-0.3-2.2-0.4-3.4-0.2
					C63.1,116.3,63.1,116.9,63.6,116.9L63.6,116.9z"/>
			</g>
		</g>
	</g>
	<g>
		<g>
			<g>
				<path class="st0" d="M43.8,129.5c2.2-0.6,4.2-1.6,6.4-2.2c2.2-0.7,4.5-1.1,6.8-1.3c4.5-0.3,9,0.3,13.2,1.9
					c0.4,0.2,0.6-0.5,0.2-0.6c-4.3-1.6-8.8-2.3-13.4-1.9c-2.2,0.2-4.4,0.5-6.5,1.2c-2.3,0.7-4.5,1.7-6.9,2.3
					C43.3,129,43.4,129.6,43.8,129.5L43.8,129.5z"/>
			</g>
		</g>
	</g>
	<g>
		<g>
			<g>
				<path class="st0" d="M70.6,127.7c0.8-3.8,1.6-7.5,2.4-11.3c0.1-0.4-0.6-0.6-0.6-0.2c-0.8,3.8-1.6,7.5-2.4,11.3
					C69.9,127.9,70.6,128.1,70.6,127.7L70.6,127.7z"/>
			</g>
		</g>
	</g>
	<g>
		<g>
			<g>
				<path class="st0" d="M71.6,116.4c-0.6,1.3-1.1,2.6-1.6,3.9c-0.5,1.4-0.8,3.1-1.5,4.4c-0.2,0.4-0.2,0.6-0.8,0.6
					c-0.3,0-0.7-0.2-0.9-0.3c-0.8-0.2-1.6-0.4-2.3-0.6c-1.3-0.3-2.7-0.4-4.1-0.5c-5.7-0.4-11.5,0.8-16.6,3.3c-0.2,0.1,0,0.4,0.2,0.3
					c7.6-3.7,16.3-4.3,24.4-1.7c0.1,0,0.2,0,0.2-0.1c0.9-3.1,2-6.2,3.3-9.2C72,116.3,71.7,116.2,71.6,116.4L71.6,116.4z"/>
			</g>
		</g>
	</g>
	<g>
		<g>
			<g>
				<path class="st0" d="M58.3,33c5.7-2.4,12.1-2.9,18.1-1.4c0.2,0.1,0.3-0.3,0.1-0.3c-6.1-1.6-12.5-1.1-18.3,1.4
					C57.9,32.8,58.1,33.1,58.3,33L58.3,33z"/>
			</g>
		</g>
	</g>
	<g>
		<g>
			<g>
				<path class="st0" d="M82.2,31.4c6.1-1.5,12.5-1.5,18.6,0.1c0.2,0.1,0.3-0.3,0.1-0.3c-6.2-1.6-12.6-1.7-18.7-0.1
					C81.9,31.2,82,31.5,82.2,31.4L82.2,31.4z"/>
			</g>
		</g>
	</g>
</g>
</svg>
