<?xml version="1.0" encoding="utf-8"?>
<!-- Generator: Adobe Illustrator 24.0.1, SVG Export Plug-In . SVG Version: 6.00 Build 0)  -->
<svg version="1.1" id="Layer_1" xmlns="http://www.w3.org/2000/svg" xmlns:xlink="http://www.w3.org/1999/xlink" x="0px" y="0px"
	 viewBox="0 0 141.7 141.7" style="enable-background:new 0 0 141.7 141.7;" xml:space="preserve">
<style type="text/css">
	.st0{fill:#070707;}
	.st1{fill:#FFFFFF;}
	.st2{fill:#231F20;}
</style>
<g id="Layer_1_1_">
</g>
<g id="Layer_1_2_">
</g>
<g id="Layer_1_3_">
</g>
<g id="Layer_1_4_">
</g>
<g id="Layer_1_5_">
</g>
<g id="Layer_3">
</g>
<g id="Layer_3_1_">
</g>
<g id="Layer_1_6_">
</g>
<g id="Layer_1_7_">
</g>
<g id="Layer_1_8_">
</g>
<g id="Layer_1_9_">
</g>
<g id="Layer_1_10_">
</g>
<g id="Layer_1_11_">
</g>
<g id="Layer_1_12_">
</g>
<g id="Layer_1_13_">
</g>
<g id="Layer_1_14_">
</g>
<g id="Layer_1_15_">
</g>
<g id="Layer_1_16_">
</g>
<g id="Layer_1_17_">
</g>
<g id="Layer_1_18_">
</g>
<g id="Layer_1_19_">
</g>
<g id="Layer_1_20_">
</g>
<g id="Layer_2_1_">
</g>
<g id="Layer_1_21_">
</g>
<g id="Layer_1_22_">
</g>
<g id="Layer_1_23_">
</g>
<g id="Layer_1_24_">
</g>
<g id="Layer_1_25_">
</g>
<g id="Layer_1_26_">
</g>
<g>
	<g>
		<g>
			<g>
				<path class="st0" d="M102.3,93.4c1.8-0.2,3.6-0.5,5.2-1.3c1.4-0.8,2.3-2.1,3-3.4c0.9-1.6,2-2.9,3.7-3.7c1.9-0.8,3.9-1.1,5.9-1.7
					c2.8-1,5.3-2.7,6.4-5.4c1.5-3.3,1.1-7.1-0.3-10.4c-0.8-1.9-2-3.7-3.2-5.4c-0.8-1.1-2.2-2.9-3.8-2.6c-0.3,0.1-0.1,0.5,0.1,0.4
					c1.7-0.4,3.2,2.2,4,3.3c1,1.5,2,3,2.7,4.7c1.3,3.2,1.5,7-0.1,10.1c-1.4,2.7-4,4.2-6.9,5c-2.9,0.8-5.9,1.2-7.8,3.7
					c-1,1.3-1.6,3-2.9,4.1c-1.6,1.5-3.9,1.8-6,2C102,93,102,93.4,102.3,93.4L102.3,93.4z"/>
			</g>
		</g>
		<g>
			<g>
				<path class="st0" d="M85,81.4c0.7,2.9,2.5,5.3,4.5,7.5c2.1,2.2,4.5,4,7.5,4.6c0.3,0.1,0.4-0.3,0.1-0.4c-3-0.5-5.4-2.3-7.4-4.4
					c-2-2.1-3.7-4.5-4.4-7.3C85.3,81,84.9,81.1,85,81.4L85,81.4z"/>
			</g>
		</g>
		<g>
			<g>
				<path class="st0" d="M93.6,64.5c-4.9,3.1-8.6,8.2-8.9,14c0,0.3,0.4,0.3,0.4,0c0.3-5.6,3.9-10.7,8.7-13.7
					C94.1,64.7,93.9,64.4,93.6,64.5L93.6,64.5z"/>
			</g>
		</g>
		<g>
			<g>
				<path class="st0" d="M113.7,69.8c0,0,0,0.1,0.1,0.1c0.1,0,0.1-0.1,0.2-0.1c-0.2-0.2-0.3-0.4-0.5-0.6c-0.3-0.2-0.5-0.4-0.8-0.5
					c-0.4-0.2-0.8-0.3-1.2-0.1c-0.5,0.3-0.6,1-0.5,1.4c0.1,0.9,1,1.6,1.2,2.5c0.2,0.9-0.3,2.7,1.3,2.6c1.3-0.1,1.5-1.8,1.6-2.7
					c0-0.1-0.2-0.1-0.2,0c-0.1,0.9-0.4,2.9-1.7,2.5c-1-0.3-0.5-1.8-0.8-2.6c-0.1-0.5-0.4-0.8-0.7-1.2c-0.3-0.6-0.8-1.8,0-2.2
					c0.5-0.3,1.1,0.1,1.5,0.3c0.4,0.2,0.5,0.6,0.8,0.8c0.1,0.1,0.2,0,0.2-0.1c0,0,0-0.1-0.1-0.1C113.8,69.6,113.6,69.7,113.7,69.8
					L113.7,69.8z"/>
			</g>
		</g>
		<g>
			<g>
				<path class="st0" d="M112.1,73.6c-0.5,0.3-1.1,0.6-1.7,0.6c-0.3,0-0.8-0.2-0.9-0.6c-0.1-0.4,0.2-0.6,0.5-0.9
					c0.1-0.1-0.1-0.2-0.1-0.1c-0.2,0.2-0.6,0.4-0.6,0.7s0.1,0.6,0.4,0.8c0.7,0.6,1.9,0,2.5-0.5C112.3,73.7,112.2,73.5,112.1,73.6
					L112.1,73.6z"/>
			</g>
		</g>
		<g>
			<path class="st0" d="M119.6,79.1c-1.8,0-3.5-1.2-4-3c-0.3-1-0.2-2.1,0.3-3.1c0.6-1,1.5-1.7,2.5-1.9c2.2-0.6,4.6,0.6,5.2,2.8
				c0.6,2.2-0.6,4.4-2.9,5.1l0,0C120.4,79,120,79.1,119.6,79.1z M119.6,71.2c-0.3,0-0.7,0.1-1.1,0.1c-1,0.3-1.9,0.9-2.3,1.8
				c-0.5,0.9-0.6,1.9-0.3,2.9c0.3,1,1,1.8,1.9,2.3c0.9,0.5,2,0.6,3,0.3l0,0c2.1-0.6,3.3-2.7,2.7-4.8
				C122.9,72.3,121.4,71.2,119.6,71.2z"/>
		</g>
		<g>
			<path class="st0" d="M116.4,69.6c-0.7,0-1.4-0.2-2-0.5c-1-0.5-1.7-1.4-2-2.5c-0.3-1-0.2-2.1,0.3-3.1c0.6-1,1.5-1.7,2.5-1.9
				c1.1-0.3,2.2-0.2,3.2,0.3c1,0.5,1.7,1.4,2,2.5c0.3,1,0.2,2.1-0.3,3.1c-0.6,1-1.5,1.7-2.5,1.9C117.2,69.6,116.8,69.6,116.4,69.6z
				 M116.4,61.7c-0.4,0-0.7,0.1-1.1,0.1c-1,0.3-1.9,0.9-2.3,1.8c-0.5,0.9-0.6,1.9-0.3,2.9c0.3,1,1,1.8,1.9,2.3c0.9,0.5,2,0.6,3,0.3
				l0,0c1-0.3,1.9-0.9,2.3-1.8c0.5-0.9,0.6-1.9,0.3-2.9s-1-1.8-1.9-2.3C117.7,61.8,117.1,61.7,116.4,61.7z"/>
		</g>
		<g>
			<path class="st0" d="M115.1,72.9c0.6-0.1,0.8-1,0.5-2c-0.3-1-0.9-1.6-1.5-1.5c-0.5,0.1-0.8,1-0.5,2
				C113.9,72.5,114.6,73.1,115.1,72.9z"/>
		</g>
		<g>
			<path class="st0" d="M120.1,72.7c-0.2-0.7-0.9-1.1-1.7-0.9c-0.7,0.2-1.1,0.9-0.9,1.6c0.2,0.7,1,1.1,1.7,0.9
				C119.9,74.1,120.3,73.4,120.1,72.7z M118.2,73.8c-0.1-0.2,0.1-0.4,0.3-0.5c0.2-0.1,0.4,0.1,0.5,0.3c0.1,0.2-0.1,0.4-0.3,0.5
				S118.2,74,118.2,73.8z"/>
		</g>
		<g>
			<path class="st0" d="M116.9,63.1c-0.2-0.7-0.9-1.1-1.7-0.9c-0.7,0.2-1.1,0.9-0.9,1.6c0.2,0.7,1,1.1,1.7,0.9
				C116.7,64.5,117.1,63.8,116.9,63.1z M115,64.2c-0.1-0.2,0.1-0.4,0.3-0.5c0.2-0.1,0.4,0.1,0.5,0.3c0.1,0.2-0.1,0.4-0.3,0.5
				C115.3,64.5,115.1,64.4,115,64.2z"/>
		</g>
		<g>
			<g>
				<path class="st0" d="M111.9,72c-0.6,0.3-3.4,1.1-2.9-0.4c0.2-0.7,1.5-0.9,2.1-0.9c0.1,0,0.1-0.2,0-0.2c-0.8,0-2.6,0.3-2.4,1.5
					c0.2,1.3,2.5,0.6,3.2,0.2C112.2,72.2,112,72,111.9,72L111.9,72z"/>
			</g>
		</g>
		<g>
			<g>
				<path class="st0" d="M127,76c1.5,1,3,2.8,1.9,4.6c-1,1.7-3.4,2.3-4.8,0.9c-0.2-0.2-0.5,0.1-0.3,0.3c1.6,1.6,4.2,0.9,5.4-0.8
					c1.4-2.1-0.1-4.1-1.9-5.3C127,75.4,126.8,75.8,127,76L127,76z"/>
			</g>
		</g>
		<g>
			<g>
				<path class="st0" d="M84.1,78.5c1.5,0.3,1,2,1.3,3.1c0.1,0,0.1-0.1,0.1-0.1c-1.3-0.7-4.1,0.3-4.7-1.3c-0.9-2.1,2.5-1.8,3.7-1.6
					c0.1,0,0.2-0.2,0.1-0.2c-1.1-0.2-3.9-0.7-4.1,1.1c-0.2,2.6,3.6,1.4,4.9,2.2c0.1,0,0.2,0,0.1-0.1c-0.3-1.2,0.1-2.9-1.5-3.2
					C84,78.2,84,78.4,84.1,78.5L84.1,78.5z"/>
			</g>
		</g>
		<g>
			<g>
				<path class="st0" d="M80.9,80c0.3-0.7,1.2-0.8,1.9-0.7c0.1,0,0.2-0.2,0.1-0.2c-0.8-0.1-1.8,0-2.1,0.9
					C80.7,80.1,80.9,80.1,80.9,80L80.9,80z"/>
			</g>
		</g>
		<g>
			<g>
				<path class="st0" d="M100.2,94.8c-0.9-0.2-1.6-0.8-2.4-1.1c-0.5-0.2-0.7-0.3-0.4-1c0.2-0.4,0.6-0.9,1.1-1.1c1.1-0.5,2.3,0.1,3,1
					c0.4,0.5,0.7,1.2,0.2,1.8C101.3,94.8,100.6,94.8,100.2,94.8c-0.2,0-0.2,0.2,0,0.2c1,0.1,2.1-0.3,1.9-1.5
					c-0.2-1.2-1.5-2.2-2.7-2.3c-0.7-0.1-1.2,0.2-1.7,0.7c-0.3,0.3-0.8,0.9-0.8,1.5c0.1,0.4,0.4,0.4,0.8,0.6c0.8,0.3,1.5,0.9,2.4,1.1
					C100.3,95,100.3,94.8,100.2,94.8z"/>
			</g>
		</g>
		<g>
			<g>
				<path class="st0" d="M100,93c0.7,0.3,1.3,0.8,1.5,1.5c0.1,0.1,0.3,0.1,0.2-0.1c-0.3-0.8-0.9-1.3-1.7-1.7
					C100,92.8,99.9,92.9,100,93L100,93z"/>
			</g>
		</g>
		<g>
			<g>
				<path class="st0" d="M102.3,64.4c-0.3-0.2-0.6-0.3-0.9-0.4c-0.6-0.3-1.2-1-1.4-1.7c-0.2-1,0.5-2.1,1.6-1.4
					c0.6,0.4,0.9,1.1,1.2,1.8c0.1,0.1,0.2,0,0.2-0.1c-0.3-0.8-0.8-1.8-1.7-2.1c-0.6-0.2-1,0-1.3,0.5c-0.4,0.7-0.2,1.5,0.2,2.1
					c0.2,0.3,0.6,0.6,0.9,0.9c0.3,0.2,0.8,0.3,1.1,0.5C102.2,64.7,102.4,64.5,102.3,64.4L102.3,64.4z"/>
			</g>
		</g>
		<g>
			<g>
				<path class="st0" d="M101.3,62c-0.4-0.3-0.8-1-0.3-1.4c0.1-0.1-0.1-0.2-0.1-0.1c-0.6,0.5-0.2,1.3,0.3,1.7
					C101.2,62.2,101.4,62.1,101.3,62L101.3,62z"/>
			</g>
		</g>
		<g>
			<path class="st0" d="M127.3,79.8c0.4-0.3,0.6-0.9,0.3-1.3c-0.3-0.4-0.9-0.6-1.4-0.3c-0.4,0.3-0.6,0.9-0.3,1.3
				C126.3,80,126.9,80.1,127.3,79.8z"/>
		</g>
		<g>
			<g>
				<path class="st0" d="M94.1,64.7c-0.6-0.4-1-1.1-1.2-1.7c-0.1-0.3-0.1-0.5-0.2-0.8c0-0.4,0.2-1,0.7-0.8c0.1,0.1,0.2-0.1,0.1-0.2
					c-0.8-0.3-1,0.3-1,1c0.1,1,0.6,2.1,1.5,2.7C94,64.9,94.2,64.8,94.1,64.7L94.1,64.7z"/>
			</g>
		</g>
		<g>
			<g>
				<path class="st0" d="M93.7,62.2c-0.1-0.1-0.2-0.3-0.1-0.5c0.1-0.3,0.3-0.3,0.6-0.2c0.3,0.2,0.4,0.5,0.6,0.8
					c0.2,0.5,0.3,1,0.2,1.5c0,0.1,0.2,0.1,0.2,0c0.1-0.8-0.1-1.9-0.8-2.5c-0.2-0.2-0.6-0.3-0.8-0.1c-0.3,0.2-0.1,0.8,0,1
					C93.6,62.4,93.8,62.3,93.7,62.2L93.7,62.2z"/>
			</g>
		</g>
		<g>
			<g>
				<path class="st0" d="M90.8,65.3c0.8-0.1,1.6-0.3,2.4-0.4c0.3-0.1,0.1-0.4-0.1-0.4c-0.8,0.1-1.6,0.3-2.4,0.4
					C90.4,64.9,90.5,65.3,90.8,65.3L90.8,65.3z"/>
			</g>
		</g>
		<g>
			<g>
				<path class="st0" d="M95.5,64.9c1.5-0.3,3.1-0.5,4.7-0.6c0.3,0,0.3-0.4,0-0.4c-1.6,0.1-3.2,0.3-4.8,0.6
					C95.1,64.5,95.2,64.9,95.5,64.9L95.5,64.9z"/>
			</g>
		</g>
		<g>
			<g>
				<path class="st0" d="M102.8,63c-0.1,0.3-0.1,0.5,0.1,0.8c0,0.1,0.1,0.2,0.3,0.1c2.4-0.6,4.8-1.1,7.3-1.6
					c0.3-0.1,0.1-0.5-0.1-0.4c-2.4,0.5-4.9,1-7.3,1.6c0.1,0.1,0.2,0.1,0.3,0.1c0-0.2,0-0.3-0.1-0.5C103.3,62.8,102.9,62.7,102.8,63
					L102.8,63z"/>
			</g>
		</g>
		<g>
			<g>
				<path class="st0" d="M109.8,62.3c3.1-0.8,6.2-1.3,9.2-2.4c0.7-0.3,2-0.5,1.8-1.4c-0.1-0.7-0.5-1.4-0.8-2
					c-0.3-0.8-0.7-1.5-1.1-2.2c-0.1-0.2-0.5,0-0.4,0.2c0.6,1.2,1.2,2.4,1.7,3.7c0.2,0.5,0.2,0.6-0.3,0.8c-0.3,0.2-0.7,0.3-1.1,0.4
					c-0.6,0.2-1.2,0.4-1.7,0.6c-2.5,0.7-5,1.2-7.5,1.9C109.5,62,109.6,62.4,109.8,62.3L109.8,62.3z"/>
			</g>
		</g>
		<g>
			<g>
				<path class="st0" d="M90.8,65.1c-0.3-0.7-0.8-1.6-0.8-2.3c0-0.6,0.4-0.8,0.9-0.9c0.4-0.1,0.8-0.2,1.2-0.3
					c0.3-0.1,0.1-0.5-0.1-0.4c-0.7,0.1-2.3,0.3-2.5,1.2c-0.1,0.4,0.1,1,0.3,1.3c0.2,0.6,0.4,1.1,0.7,1.7
					C90.5,65.5,90.9,65.3,90.8,65.1L90.8,65.1z"/>
			</g>
		</g>
		<g>
			<g>
				<path class="st0" d="M90.1,62.3c-0.4-0.9-1-2.3-0.4-3.3c0.7-1.1,2.9-1,4.1-1.1c2.7-0.3,5.5-0.6,8.2-1c5.5-0.6,10.9-1.3,16.4-1.9
					c0.3,0,0.3-0.5,0-0.4c-6.4,0.8-12.7,1.5-19.1,2.2c-1.6,0.2-3.2,0.4-4.8,0.6c-1.3,0.1-2.8,0.1-4.1,0.6c-2,0.8-1.4,3-0.7,4.5
					C89.9,62.7,90.3,62.5,90.1,62.3L90.1,62.3z"/>
			</g>
		</g>
		<g>
			<g>
				<path class="st0" d="M118.6,54.9c4-4.5,8-9,12-13.5c-0.1,0-0.2,0-0.3,0c0.5,0.8,1,1.5,1.5,2.3c0.2,0.3,0.6,0.7,0.7,1.1
					c0.2,0.5-0.3,0.8-0.6,1.2c-1.2,1.4-2.5,2.8-3.8,4.3c-2.5,2.8-5,5.7-7.5,8.6c-0.2,0.2,0.1,0.5,0.3,0.3c4.1-4.6,8.1-9.2,12.2-13.8
					c0.1-0.1,0.1-0.2,0-0.3c-0.8-1.2-1.7-2.5-2.5-3.8c-0.1-0.1-0.2-0.1-0.3,0c-4,4.5-8,9-12,13.5C118.1,54.8,118.4,55.1,118.6,54.9
					L118.6,54.9z"/>
			</g>
		</g>
		<g>
			<g>
				<path class="st0" d="M89.4,59.1c2.5-2.3,4.8-4.8,7-7.4c0.2-0.2-0.1-0.5-0.3-0.3c-2.1,2.6-4.5,5.1-7,7.4
					C88.9,59,89.2,59.3,89.4,59.1L89.4,59.1z"/>
			</g>
		</g>
		<g>
			<g>
				<path class="st0" d="M130.3,41.6c0.5-0.1,0.3-0.6-0.1-0.7c-0.5-0.1-1.2,0.1-1.7,0.2c-0.8,0.1-1.6,0.3-2.4,0.5
					c-0.3,0.1-0.1,0.5,0.1,0.4c0.6-0.2,1.3-0.3,1.9-0.4c0.3-0.1,0.7-0.1,1-0.2c0.2,0,0.4-0.1,0.6-0.1c0.2,0.1,0.3,0,0.5-0.2
					C129.9,41.3,130.1,41.7,130.3,41.6L130.3,41.6z"/>
			</g>
		</g>
		<g>
			<g>
				<path class="st0" d="M91.7,48.3c0.2,1.2,0.4,2.5,0.6,3.7c0,0.1,0.1,0.2,0.2,0.1c3.9-0.4,7.7-0.9,11.6-1.3
					c3.8-0.4,7.7-1.1,11.5-0.9c0.1,0,0.2-0.1,0.2-0.3c-0.4-1.4-1-2.6-2-3.7c-0.2-0.2-0.5,0.1-0.3,0.3c0.9,1,1.5,2.2,1.9,3.6
					c0.1-0.1,0.1-0.2,0.2-0.3c-2.3-0.1-4.5,0.1-6.8,0.4c-2.2,0.3-4.4,0.5-6.6,0.8s-4.4,0.5-6.6,0.8c-0.6,0.1-1.1,0.1-1.7,0.2
					c-0.2,0-0.5,0.1-0.7,0.1c-0.5,0-0.4,0.1-0.6-0.4c-0.3-1-0.3-2.1-0.5-3.1C92.1,47.9,91.6,48,91.7,48.3L91.7,48.3z"/>
			</g>
		</g>
		<g>
			<g>
				<path class="st0" d="M113.5,46.4c2.7-1.7,5.4-3.5,8-5.3c1.3-0.9,2.6-1.9,3.9-2.8c0.5-0.4,1-0.8,1.6-1.2c0.7-0.5,1.2-0.5,1.7,0.2
					c0.3,0.5,0.4,1,0.5,1.5c0,0.3,0.5,0.3,0.4,0c-0.1-0.8-0.6-2.7-1.8-2.6c-0.7,0.1-1.5,1-2,1.3c-0.8,0.6-1.6,1.2-2.4,1.8
					c-3.2,2.3-6.6,4.6-10,6.7C113.1,46.1,113.3,46.5,113.5,46.4L113.5,46.4z"/>
			</g>
		</g>
		<g>
			<g>
				<path class="st0" d="M115.7,50c4.7-3.5,9.3-7.2,13.9-10.9c0.2-0.2-0.1-0.5-0.3-0.3c-4.5,3.7-9.1,7.4-13.8,10.9
					C115.3,49.9,115.5,50.2,115.7,50L115.7,50z"/>
			</g>
		</g>
		<g>
			<g>
				<path class="st0" d="M91.8,48.7c7.3-0.5,14.6-1.3,21.8-2.5c0.3-0.1,0.1-0.4-0.1-0.4c-7.2,1.2-14.4,2-21.6,2.4
					C91.5,48.3,91.5,48.7,91.8,48.7L91.8,48.7z"/>
			</g>
		</g>
		<g>
			<g>
				<path class="st0" d="M92.1,48.2c1.4-1,2.8-2,4.3-3c0.2-0.1,0-0.5-0.2-0.3c-1.4,1-2.8,2-4.3,3C91.6,48,91.8,48.3,92.1,48.2
					L92.1,48.2z"/>
			</g>
		</g>
		<g>
			<g>
				<path class="st0" d="M88.5,45.4c6.6-0.6,13.3-0.7,19.9-0.5c0.3,0,0.3-0.4,0-0.4c-6.6-0.2-13.3-0.1-19.9,0.5
					C88.3,45,88.3,45.4,88.5,45.4L88.5,45.4z"/>
			</g>
		</g>
		<g>
			<g>
				<path class="st0" d="M108.7,45c-0.4-0.9-0.7-1.9-0.9-2.8c-0.1-0.3-0.2-0.5,0-0.8c0.1-0.2,0.5-0.3,0.7-0.4c0.5-0.3,1-0.6,1.5-0.9
					c2-1.2,3.9-2.4,5.9-3.6c3.9-2.4,7.9-4.8,11.8-7.2c0.2-0.1,0-0.5-0.2-0.3c-6.7,4.1-13.4,8.2-20.1,12.3c-0.1,0.1-0.1,0.1-0.1,0.2
					c0.2,1.3,0.6,2.5,1.1,3.7C108.4,45.4,108.8,45.2,108.7,45L108.7,45z"/>
			</g>
		</g>
		<g>
			<g>
				<path class="st0" d="M108.8,45.3c6.3-4.2,12.8-8.1,19.4-11.7c0.2-0.1,0-0.5-0.2-0.3c-6.7,3.6-13.2,7.5-19.4,11.7
					C108.4,45.1,108.6,45.5,108.8,45.3L108.8,45.3z"/>
			</g>
		</g>
		<g>
			<g>
				<path class="st0" d="M127.9,36.3c-2.6,0.1-5.1,0.5-7.6,1c-0.3,0.1-0.1,0.5,0.1,0.4c2.5-0.6,4.9-0.9,7.5-1
					C128.2,36.7,128.2,36.3,127.9,36.3L127.9,36.3z"/>
			</g>
		</g>
		<g>
			<g>
				<path class="st0" d="M88.5,45.2c-0.4-0.4-1.3-1.2-0.3-1.9c0.3-0.2,0.9-0.3,1.3-0.4c0.8-0.2,1.7-0.4,2.6-0.6
					c1.7-0.3,3.5-0.6,5.3-0.8c3.4-0.3,6.8-0.3,10.3-0.1c0.3,0,0.3-0.4,0-0.4c-4.3-0.3-8.6-0.2-12.9,0.4c-2.1,0.3-4.3,0.6-6.3,1.2
					c-1.5,0.5-1.1,1.8-0.2,2.7C88.4,45.7,88.7,45.4,88.5,45.2L88.5,45.2z"/>
			</g>
		</g>
		<g>
			<g>
				<path class="st0" d="M95.7,61.6c1.1-0.2,2.2-0.3,3.3-0.3c0.3,0,0.3-0.4,0-0.4c-1.2,0.1-2.3,0.2-3.5,0.4
					C95.3,61.2,95.4,61.6,95.7,61.6L95.7,61.6z"/>
			</g>
		</g>
		<g>
			<g>
				<path class="st0" d="M103.3,61c4-1,8-2.2,12-2.9c0.3-0.1,0.1-0.5-0.1-0.4c-4.1,0.8-8,1.9-12,2.9C102.9,60.6,103,61,103.3,61
					L103.3,61z"/>
			</g>
		</g>
		<g>
			<g>
				<path class="st0" d="M90.2,60.9c4.6-0.9,9.3-1.6,14-2.1c0.3,0,0.3-0.5,0-0.4c-4.7,0.6-9.4,1.3-14.1,2.1
					C89.8,60.6,90,61,90.2,60.9L90.2,60.9z"/>
			</g>
		</g>
		<g>
			<g>
				<path class="st0" d="M92.7,51.2c6.1-0.5,12.2-1.3,18.2-2.3c0.3-0.1,0.1-0.4-0.1-0.4c-6,1-12,1.8-18.1,2.3
					C92.4,50.8,92.4,51.2,92.7,51.2L92.7,51.2z"/>
			</g>
		</g>
		<g>
			<g>
				<path class="st0" d="M95.5,49.9c3.7-0.5,7.4-0.9,11.1-1.2c0.3,0,0.3-0.4,0-0.4c-3.8,0.3-7.5,0.7-11.3,1.2
					C95.2,49.5,95.3,49.9,95.5,49.9L95.5,49.9z"/>
			</g>
		</g>
		<g>
			<g>
				<path class="st0" d="M92.7,44.2c3.6-0.2,7.2-0.3,10.8-0.2c0.3,0,0.3-0.4,0-0.4c-3.6,0-7.2,0-10.8,0.2
					C92.4,43.8,92.4,44.2,92.7,44.2L92.7,44.2z"/>
			</g>
		</g>
		<g>
			<g>
				<path class="st0" d="M127.4,29.4c0.8,1.2,1,2.6,0.9,4.1c0,0.3,0.3,0.3,0.4,0.1c0.1-0.1,0.1-0.2,0.1-0.3c0.1-0.3-0.3-0.3-0.4-0.1
					c-0.1,0.1-0.1,0.2-0.1,0.3c0.1,0,0.3,0,0.4,0.1c0.2-1.5-0.1-3-0.9-4.3C127.7,29,127.3,29.2,127.4,29.4L127.4,29.4z"/>
			</g>
		</g>
		<g>
			<g>
				<path class="st0" d="M121.2,58.4c3.1-1.4,6.2-2.8,9.3-4.2c0.4-0.2,0.9-0.3,1-0.8c0.1-0.4,0-1-0.1-1.5c-0.3-1.1-1-2-1.9-2.6
					c-0.2-0.1-0.4,0.2-0.2,0.3c1,0.7,1.7,1.7,1.9,2.9c0.1,0.9-0.6,1.1-1.3,1.4c-0.6,0.3-1.2,0.6-1.8,0.8c-2.3,1.1-4.7,2.1-7,3.2
					C120.7,58.2,120.9,58.6,121.2,58.4L121.2,58.4z"/>
			</g>
		</g>
		<g>
			<g>
				<path class="st0" d="M121.3,60.6c1.4,0.1,2.7,0.1,4.1,0.2c0.8,0,2,0.3,2.6-0.3c0.6-0.6,0.7-1.7,0.7-2.4c0-1-0.3-1.9-0.8-2.7
					c-0.1-0.2-0.5,0-0.4,0.2c0.5,0.8,0.7,1.6,0.8,2.4c0,0.9-0.1,2.3-1.3,2.3c-1.9,0-3.7-0.1-5.6-0.2C121,60.1,121,60.6,121.3,60.6
					L121.3,60.6z"/>
			</g>
		</g>
		<g>
			<g>
				<path class="st0" d="M89.8,54.3c-0.3,1-0.1,2,0.5,2.9c0.1,0.2,0.5,0,0.4-0.2c-0.6-0.8-0.7-1.7-0.4-2.6
					C90.3,54.2,89.9,54.1,89.8,54.3L89.8,54.3z"/>
			</g>
		</g>
		<g>
			<g>
				<path class="st0" d="M90,54.5c1.4-0.3,2.8-0.7,4.1-1c0.3-0.1,0.1-0.5-0.1-0.4c-1.4,0.3-2.8,0.7-4.1,1
					C89.7,54.2,89.8,54.6,90,54.5L90,54.5z"/>
			</g>
		</g>
		<g>
			<g>
				<path class="st0" d="M90.2,57.6c0.1,0,0.2,0.1,0.3,0c0.1-0.1,0.1-0.1,0.1-0.2c0-0.2-0.2-0.3-0.4-0.2c-0.1,0.1-0.1,0.2-0.1,0.3
					c0.1,0.1,0.2,0.1,0.3,0.1h0c0,0-0.1,0-0.1,0c0,0-0.1-0.1-0.1-0.1c0,0,0-0.1,0,0l0,0c0-0.1,0.1-0.1,0.1-0.1c0,0,0.1,0,0.1,0
					c0,0,0,0,0,0c-0.1-0.1-0.2,0-0.3,0.1C90.1,57.4,90.1,57.5,90.2,57.6L90.2,57.6z"/>
			</g>
		</g>
		<g>
			<g>
				<path class="st0" d="M94.3,53.6c0.1,0,0.1,0,0.1,0c0.3,0,0.3-0.4,0-0.4c-0.1,0-0.1,0-0.1,0C94,53.2,94,53.6,94.3,53.6L94.3,53.6
					z"/>
			</g>
		</g>
		<g>
			<g>
				<path class="st0" d="M87.6,43.4c7.7-5.3,15.8-10,24.1-14.3c0.2-0.1,0-0.5-0.2-0.3c-8.3,4.2-16.4,9-24.1,14.3
					C87.1,43.2,87.4,43.6,87.6,43.4L87.6,43.4z"/>
			</g>
		</g>
		<g>
			<g>
				<path class="st0" d="M111.5,29.3c2.7-0.2,5.3-0.3,8-0.5c1.3-0.1,2.6-0.1,3.9-0.1c0.5,0,4.1-0.3,4.1,0.3c0,0.3,0.4,0.3,0.4,0
					c0-0.9-1.2-0.8-1.8-0.8c-1.6,0-3.2,0.1-4.8,0.1c-3.3,0.1-6.6,0.3-9.9,0.5C111.3,28.9,111.3,29.3,111.5,29.3L111.5,29.3z"/>
			</g>
		</g>
		<g>
			<g>
				<path class="st0" d="M108,42.4c2.1-1.7,4.4-3.2,6.8-4.5c0.2-0.1,0-0.5-0.2-0.3c-2.4,1.3-4.7,2.8-6.9,4.6
					C107.4,42.3,107.7,42.6,108,42.4L108,42.4z"/>
			</g>
		</g>
		<g>
			<g>
				<path class="st0" d="M108.1,43.6c0.4-0.3,0.9-0.6,1.3-0.9c0.2-0.1,0-0.5-0.2-0.3c-0.4,0.3-0.9,0.6-1.3,0.9
					C107.7,43.4,107.9,43.8,108.1,43.6L108.1,43.6z"/>
			</g>
		</g>
		<g>
			<g>
				<path class="st0" d="M127.8,30.2c-1.7,1-3.5,2-5.2,3c-0.2,0.1,0,0.5,0.2,0.3c1.7-1,3.5-2,5.2-3
					C128.3,30.5,128.1,30.1,127.8,30.2L127.8,30.2z"/>
			</g>
		</g>
		<g>
			<g>
				<path class="st0" d="M128,31.8c-0.4,0.2-0.8,0.5-1.2,0.7c-0.2,0.1,0,0.5,0.2,0.3c0.4-0.2,0.8-0.5,1.2-0.7
					C128.4,32,128.2,31.7,128,31.8L128,31.8z"/>
			</g>
		</g>
		<g>
			<g>
				<path class="st0" d="M116.8,38.5c1.1-0.7,2.3-1.3,3.4-2c0.2-0.1,0-0.5-0.2-0.3c-1.1,0.7-2.3,1.3-3.4,2
					C116.4,38.3,116.6,38.6,116.8,38.5L116.8,38.5z"/>
			</g>
		</g>
		<g>
			<g>
				<path class="st0" d="M115.9,46.5c3.9-2.4,7.7-4.8,11.4-7.4c0.2-0.1,0-0.5-0.2-0.3c-3.7,2.6-7.5,5-11.4,7.4
					C115.5,46.3,115.7,46.6,115.9,46.5L115.9,46.5z"/>
			</g>
		</g>
		<g>
			<g>
				<path class="st0" d="M119.4,45.7c0.9-0.6,1.8-1.2,2.7-1.9c0.2-0.2-0.1-0.5-0.3-0.3c-0.8,0.7-1.7,1.3-2.6,1.9
					C118.9,45.5,119.1,45.9,119.4,45.7L119.4,45.7z"/>
			</g>
		</g>
		<g>
			<g>
				<path class="st0" d="M105.7,58.6c1.1-0.3,2.2-0.6,3.4-0.7c0.3,0,0.1-0.4-0.1-0.4c-1.2,0.2-2.3,0.4-3.4,0.7
					C105.3,58.3,105.5,58.7,105.7,58.6L105.7,58.6z"/>
			</g>
		</g>
		<g>
			<g>
				<path class="st0" d="M108.7,91.2c0.6,0.5,1.6,0.4,2.1-0.3c0.4-0.7,0-1.7-0.8-1.9c-0.1,0-0.2,0.2-0.1,0.2c0.7,0.2,1.1,1,0.7,1.6
					c-0.3,0.6-1.2,0.6-1.7,0.2C108.8,90.9,108.6,91.1,108.7,91.2L108.7,91.2z"/>
			</g>
		</g>
	</g>
	<g>
		<g>
			<g>
				<path class="st0" d="M44.1,98.2c1.2,1.9,2.9,3.5,4.8,4.7c0.2,0.1,0.4-0.2,0.2-0.4c-1.9-1.1-3.5-2.7-4.7-4.6
					C44.3,97.7,43.9,97.9,44.1,98.2L44.1,98.2z"/>
			</g>
		</g>
		<g>
			<g>
				<path class="st0" d="M71.3,47.5c-2-4-6.2-6.2-10.5-7c-2.8-0.5-5.5-0.2-8.3,0.1c-2.6,0.3-5.2,0.3-7.7,1.1
					c-4.4,1.3-7.7,5.1-9.4,9.2c-2.1,5-2.1,10.8-0.6,16c0.8,2.8,2.1,5.3,3.9,7.6c1,1.3,1.9,2.7,2.3,4.4c0.3,1.6,0.3,3.3,0.1,5
					c0,0.3,0.4,0.3,0.4,0c0.1-2.4,0.2-4.9-0.8-7.1c-0.5-1-1.2-1.9-1.9-2.8c-0.8-1.1-1.6-2.2-2.2-3.4c-2.5-4.9-3.1-10.9-1.9-16.2
					c1-4.5,3.6-8.8,7.6-11.2c2.3-1.4,4.9-1.7,7.4-1.9c2.7-0.2,5.3-0.7,8-0.6c5.1,0.1,10.6,2.3,13.1,7C71,47.9,71.4,47.7,71.3,47.5
					L71.3,47.5z"/>
			</g>
		</g>
		<g>
			<g>
				<path class="st0" d="M47.6,41.6c0.3,0,0.3-0.4,0-0.4C47.3,41.2,47.3,41.6,47.6,41.6L47.6,41.6z"/>
			</g>
		</g>
		<g>
			<g>
				<path class="st0" d="M35.1,52.6c-3.1-0.3-4.9-3.5-3-6.1c0.8-1,1.9-1.7,3.2-2c1.2-0.2,3-0.2,3.9,0.8c0.2,0.2,0.5-0.1,0.3-0.3
					c-0.9-1.1-2.7-1.2-4-1c-1.5,0.2-3,1.1-3.8,2.5c-1.8,2.9,0.3,6.2,3.5,6.5C35.4,53,35.4,52.6,35.1,52.6L35.1,52.6z"/>
			</g>
		</g>
		<g>
			<g>
				<path class="st0" d="M68.5,44.4c2.1-1.1,5.6-1.7,7.1,0.7c1.5,2.3,0.6,6.1-2.4,6.6c-0.3,0.1-0.1,0.5,0.1,0.4
					c3.2-0.6,4.2-4.4,2.8-7c-1.6-2.8-5.3-2.3-7.7-1C68,44.1,68.3,44.5,68.5,44.4L68.5,44.4z"/>
			</g>
		</g>
		<g>
			<g>
				<path class="st0" d="M51.5,56.1c0.1,0,0.1,0,0.2,0c0-0.1,0-0.1-0.1-0.2c-0.2,0.1-0.4,0.1-0.6,0.1c-0.3,0.1-0.6,0.4-0.9,0.6
					c-0.5,0.4-1,0.9-1.3,1.5c-0.5,1.4,1.2,2.2,2.3,2.1c1-0.1,1.9-0.5,3-0.6c1-0.1,1.9,0.3,2.8,0.5c1.2,0.3,2.4-0.5,2.2-1.9
					c-0.3-1.5-2.1-2.3-3.4-2.7c-0.1-0.1-0.2,0.1-0.1,0.2c1.2,0.5,3.7,1.5,3.2,3.2c-0.6,2-3.1,0.4-4.4,0.5c-0.8,0-1.6,0.3-2.3,0.5
					c-1,0.2-2.8,0.3-3.2-1c-0.2-0.8,0.7-1.6,1.2-2.1c0.3-0.2,0.6-0.5,1-0.6c0.2-0.1,0.3-0.1,0.5-0.1c0.1-0.1,0.1-0.2-0.1-0.2
					c-0.1,0-0.1,0-0.2,0C51.3,55.9,51.4,56.1,51.5,56.1L51.5,56.1z"/>
			</g>
		</g>
		<g>
			<g>
				<path class="st0" d="M56.5,60c0.3,0.8,0.5,1.8,0.2,2.7c-0.2,0.7-0.8,1.2-1.5,1c-0.5-0.1-0.6-0.6-0.9-1c-0.1-0.1-0.2,0-0.2,0.1
					c0.2,0.4,0.3,0.9,0.8,1.1c0.4,0.2,1,0,1.3-0.2C57.4,63,57,61,56.6,60C56.6,59.8,56.4,59.9,56.5,60L56.5,60z"/>
			</g>
		</g>
		<g>
			<g>
				<path class="st0" d="M49.7,102.5c1.2-0.6,1.9,1,2.7,1.5c0-0.1,0-0.1,0-0.2c-1.3,0.2-2.4,2.1-3.8,1.9c-1.3-0.3-1-1.6-0.3-2.2
					c0.5-0.5,1.1-0.8,1.7-1.1c0.1-0.1,0-0.2-0.1-0.2c-1,0.5-3.3,1.8-2.2,3.2c1.4,1.8,3.3-1.1,4.7-1.3c0.1,0,0.1-0.1,0-0.2
					c-1-0.7-1.6-2.2-3-1.5C49.5,102.4,49.6,102.6,49.7,102.5L49.7,102.5z"/>
			</g>
		</g>
		<g>
			<g>
				<path class="st0" d="M48.3,105.5c-0.2-0.7,0.3-1.3,0.9-1.6c0.1-0.1,0-0.2-0.1-0.2c-0.7,0.3-1.2,1-1,1.8
					C48.1,105.7,48.3,105.6,48.3,105.5L48.3,105.5z"/>
			</g>
		</g>
		<g>
			<g>
				<path class="st0" d="M70.6,104.2c-0.7-0.4-1.1-1-1.7-1.6c-0.4-0.4-0.7-0.7-0.1-1.3c0.3-0.3,0.9-0.6,1.4-0.6c1,0,1.7,0.8,2.1,1.7
					c0.2,0.4,0.4,1.1,0.1,1.6C71.9,104.5,71.2,104.5,70.6,104.2c-0.1-0.1-0.2,0.1-0.1,0.2c0.9,0.4,2,0.3,2.2-0.8
					c0.2-1.1-0.7-2.6-1.7-3c-0.5-0.2-1.1-0.2-1.6,0.1c-0.4,0.2-1.2,0.7-1.3,1.2c0,0.4,0.4,0.6,0.7,0.8c0.6,0.6,1,1.2,1.7,1.6
					C70.6,104.4,70.7,104.2,70.6,104.2z"/>
			</g>
		</g>
		<g>
			<g>
				<path class="st0" d="M71,102.5c0.5,0.5,0.9,1.2,0.9,1.9c0,0.1,0.2,0.1,0.2,0c0-0.8-0.4-1.5-1-2C71,102.2,70.9,102.4,71,102.5
					L71,102.5z"/>
			</g>
		</g>
		<g>
			<g>
				<path class="st0" d="M74.2,72.2c0.4,0.2,1,0,1.5,0.1c1.1,0.1,2.2,0.8,2.7,1.8c0.6,1.2,0.1,2.6-1.4,2.3c-1-0.2-1.8-0.9-2.5-1.6
					c-0.1-0.1-0.2,0.1-0.1,0.1c0.8,0.8,1.7,1.6,2.9,1.7c0.8,0.1,1.4-0.3,1.6-1.1c0.2-1-0.3-2-1.1-2.6c-0.5-0.4-1.1-0.7-1.8-0.8
					c-0.5-0.1-1.1,0.1-1.6-0.1C74.2,72,74.1,72.2,74.2,72.2L74.2,72.2z"/>
			</g>
		</g>
		<g>
			<g>
				<path class="st0" d="M76.7,74.8c0.7,0.2,1.5,0.8,1.1,1.6c-0.1,0.1,0.1,0.2,0.2,0.1c0.5-1-0.4-1.7-1.2-1.9
					C76.6,74.6,76.6,74.8,76.7,74.8L76.7,74.8z"/>
			</g>
		</g>
		<g>
			<path class="st0" d="M61.7,56c-3.5,0-6.3-2.8-6.3-6.3s2.8-6.3,6.3-6.3c3.5,0,6.3,2.8,6.3,6.3C67.9,53.2,65.2,56,61.7,56z
				 M61.7,43.7c-3.3,0-6,2.7-6,6c0,3.3,2.7,6,6,6c3.3,0,6-2.7,6-6S65,43.7,61.7,43.7z"/>
		</g>
		<g>
			<path class="st0" d="M46.2,56.6c-3.5,0-6.3-2.8-6.3-6.3c0-3.5,2.8-6.3,6.3-6.3c3.5,0,6.3,2.8,6.3,6.3
				C52.5,53.8,49.7,56.6,46.2,56.6z M46.2,44.3c-3.3,0-6,2.7-6,6c0,3.3,2.7,6,6,6c3.3,0,6-2.7,6-6C52.2,47,49.5,44.3,46.2,44.3z"/>
		</g>
		<g>
			<path class="st0" d="M73.4,47.3c0-0.7-0.6-1.3-1.3-1.3c-0.7,0-1.3,0.6-1.3,1.3c0,0.7,0.6,1.3,1.3,1.3
				C72.8,48.6,73.4,48,73.4,47.3z"/>
		</g>
		<g>
			<circle class="st0" cx="35.7" cy="48.4" r="1.3"/>
		</g>
		<g>
			<path class="st0" d="M56.7,55.4c0-0.8-1.2-1.5-2.8-1.5c-1.5,0-2.8,0.7-2.8,1.5c0,0.8,1.2,1.5,2.8,1.5
				C55.5,56.9,56.7,56.2,56.7,55.4z"/>
		</g>
		<g>
			<path class="st0" d="M59.3,50.8c-1.1,0-2,0.9-2,2s0.9,2,2,2c1.1,0,2-0.9,2-2S60.4,50.8,59.3,50.8z M60.1,54.1
				c-0.3,0-0.6-0.3-0.6-0.6s0.3-0.6,0.6-0.6c0.3,0,0.6,0.3,0.6,0.6S60.4,54.1,60.1,54.1z"/>
		</g>
		<g>
			<path class="st0" d="M43.7,51.3c-1.1,0-2,0.9-2,2s0.9,2,2,2c1.1,0,2-0.9,2-2C45.7,52.2,44.8,51.3,43.7,51.3z M44.5,54.6
				c-0.3,0-0.6-0.3-0.6-0.6c0-0.3,0.3-0.6,0.6-0.6c0.3,0,0.6,0.3,0.6,0.6C45.1,54.3,44.8,54.6,44.5,54.6z"/>
		</g>
		<g>
			<g>
				<path class="st0" d="M54.2,59.6c0.1,0.8,0.1,1.7,0,2.4c-0.1,1-0.8,2.5-2,1.6c-0.9-0.7-0.7-2.5-0.4-3.5c0-0.1-0.2-0.2-0.2-0.1
					c-0.3,1.2-0.6,3.6,1,4c0.7,0.1,1.3-0.3,1.5-0.9c0.2-0.6,0.2-1.2,0.2-1.8c0-0.6,0.1-1.2-0.1-1.8C54.3,59.4,54.1,59.5,54.2,59.6
					L54.2,59.6z"/>
			</g>
		</g>
		<g>
			<g>
				<path class="st0" d="M41.4,81.7c-1.1,0.2-2.1-0.2-3-0.8c-0.1-0.1-0.2,0.1-0.1,0.2c1,0.6,2.1,1,3.2,0.8
					C41.6,81.8,41.6,81.6,41.4,81.7L41.4,81.7z"/>
			</g>
		</g>
		<g>
			<g>
				<path class="st0" d="M38.7,79.2c-0.3-0.2-1.1-0.6-0.8-1.1c0.3-0.6,1.1-0.4,1.6-0.2c0.8,0.3,1.5,1,1.9,1.6c0.1,0.1,0.3,0,0.2-0.1
					c-0.6-0.8-1.9-2.1-3.1-1.9c-0.4,0.1-0.9,0.3-0.9,0.8c0,0.5,0.6,0.9,1,1C38.7,79.4,38.8,79.2,38.7,79.2L38.7,79.2z"/>
			</g>
		</g>
		<g>
			<g>
				<path class="st0" d="M70.6,47c2.7,3.7,2.9,8.2,3.1,12.6c0.2,4.9-0.1,9.9,0.2,14.8c0,0.3,0.4,0.3,0.4,0
					c-0.3-5.2,0.1-10.3-0.2-15.5c-0.2-4.2-0.6-8.6-3.2-12.1C70.8,46.6,70.4,46.8,70.6,47L70.6,47z"/>
			</g>
		</g>
		<g>
			<g>
				<path class="st0" d="M52.2,104.3c5.4,1.1,11,0.4,15.9-2c0.2-0.1,0-0.5-0.2-0.4c-4.8,2.3-10.3,3-15.6,1.9
					C52.1,103.8,52,104.2,52.2,104.3L52.2,104.3z"/>
			</g>
		</g>
		<g>
			<g>
				<path class="st0" d="M73.8,73.6c0.2,2.3,2.1,3.9,3.4,5.7c1.7,2.3,2.9,5.3,3.1,8.2c0.3,5.8-3.6,11-8.8,13.2
					c-0.3,0.1,0,0.5,0.2,0.4c5-2.1,8.9-6.9,9-12.5c0.1-2.8-0.9-5.6-2.3-8c-0.6-1.1-1.4-2.1-2.2-3.1c-0.9-1.2-1.9-2.4-2.1-3.9
					C74.2,73.4,73.8,73.4,73.8,73.6L73.8,73.6z"/>
			</g>
		</g>
		<g>
			<path class="st0" d="M33.5,99.4c-4.8,0-9.3-0.6-12.7-1.8c-3.7-1.3-5.7-3-5.7-5c0-1.9,1.9-3.8,5.6-5.2c3.6-1.4,8.4-2.2,13.5-2.3
				c5.1-0.1,9.9,0.6,13.5,1.8c3.7,1.3,5.7,3,5.7,5c0,1.9-1.9,3.8-5.6,5.2c-3.6,1.4-8.4,2.2-13.5,2.3C34,99.4,33.8,99.4,33.5,99.4z
				 M34.1,85.5c-5,0.1-9.8,0.9-13.3,2.2c-3.5,1.3-5.4,3.1-5.4,4.8c0,1.8,2,3.4,5.5,4.7c3.6,1.2,8.4,1.9,13.4,1.8
				c5-0.1,9.8-0.9,13.3-2.2c3.5-1.3,5.4-3,5.4-4.8c0-1.8-2-3.4-5.5-4.7C43.9,86.1,39.2,85.4,34.1,85.5L34.1,85.5z"/>
		</g>
		<g>
			<path class="st0" d="M33.2,97.6c-4.8,0-9.4-0.7-12.9-1.8c-3.7-1.3-5.8-3-5.8-5c0-1.9,2-3.8,5.7-5.2c3.6-1.4,8.5-2.2,13.7-2.3l0,0
				c5.2-0.1,10,0.6,13.7,1.8c3.7,1.3,5.8,3,5.8,5c0,1.9-2,3.8-5.7,5.2c-3.6,1.4-8.5,2.2-13.7,2.3C33.7,97.6,33.4,97.6,33.2,97.6z
				 M34.7,83.7c-0.3,0-0.6,0-0.9,0c-10.5,0.2-19.1,3.3-19,7.1c0,1.8,2,3.4,5.6,4.7c3.7,1.2,8.5,1.9,13.6,1.8
				c5.1-0.1,10-0.9,13.5-2.2c3.5-1.3,5.5-3,5.5-4.8C52.9,86.5,44.8,83.7,34.7,83.7z"/>
		</g>
		<g>
			<g>
				<path class="st0" d="M80.5,86.2c0.4-0.7,1.3-0.4,1.4,0.3c0.1,0.7-0.6,1.2-1.2,1.1c-0.1,0-0.1,0.2,0,0.2c0.9,0.1,1.7-0.7,1.4-1.6
					c-0.3-0.8-1.3-0.8-1.7-0.1C80.2,86.2,80.4,86.3,80.5,86.2L80.5,86.2z"/>
			</g>
		</g>
		<g>
			<g>
				<path class="st0" d="M38.5,79.1c-0.6,0.5-0.5,1.5-0.4,2.2c0.1,0.8,0.3,1.8,0.8,2.4c0.1,0.1,0.2-0.1,0.1-0.1
					c-0.4-0.5-0.6-1.3-0.7-1.9c-0.1-0.6-0.3-1.9,0.3-2.4C38.8,79.2,38.6,79,38.5,79.1L38.5,79.1z"/>
			</g>
		</g>
		<g>
			<g>
				<path class="st0" d="M38.2,77.6c0.1-0.3,0.3-0.9,0.7-0.9c0.4,0,0.2,0.8,0.1,1c0,0.1,0.2,0.2,0.2,0.1c0.1-0.4,0.3-1.2-0.3-1.3
					c-0.5-0.1-0.8,0.7-1,1C38,77.6,38.2,77.7,38.2,77.6L38.2,77.6z"/>
			</g>
		</g>
		<g>
			<g>
				<path class="st0" d="M36.3,83.5c0.6-1.4,1.2-2.9,1.5-4.4c0-0.1-0.2-0.2-0.2-0.1c-0.3,1.5-0.8,3-1.5,4.4
					C36.1,83.5,36.3,83.6,36.3,83.5L36.3,83.5z"/>
			</g>
		</g>
		<g>
			<g>
				<path class="st0" d="M34.2,83.5c1.3-0.3,1.9-2,2.4-3c0.6-1.3,0.9-3.1,2.3-3.9c0.1-0.1,0-0.2-0.1-0.2c-1,0.5-1.4,1.5-1.8,2.5
					c-0.3,0.8-0.6,1.6-1,2.3c-0.4,0.8-1,1.9-1.9,2.1C34,83.3,34,83.5,34.2,83.5L34.2,83.5z"/>
			</g>
		</g>
		<g>
			<g>
				<path class="st0" d="M20.3,89.5c-0.3,1.7,2.1,2.2,3.2,2.5c2.2,0.6,4.6,0.7,6.9,0.7c4.9,0,9.8-0.7,14.6-1.9
					c0.1,0,0.1-0.2-0.1-0.2c-4.1,1-8.4,1.7-12.6,1.8c-1.9,0.1-3.9,0.1-5.9-0.1c-1.1-0.1-2.2-0.3-3.3-0.6c-0.9-0.3-2.9-0.8-2.6-2.1
					C20.5,89.5,20.3,89.4,20.3,89.5L20.3,89.5z"/>
			</g>
		</g>
		<g>
			<g>
				<path class="st0" d="M31.2,88.2c-1.8-0.3-3.7-0.2-5.5,0.1c-0.3,0.1-2.8,0.5-2,1.3c0.4,0.4,1.3,0.5,1.8,0.6
					c1.1,0.1,2.2,0.2,3.3,0.3c2.2,0.2,4.4,0.2,6.6,0.1c0.1,0,0.1-0.1,0.1-0.2c-1.2-0.9-2.7-1.1-4.1-1.2c-1.8-0.2-3.7-0.2-5.5-0.1
					c-0.1,0-0.1,0.2,0,0.2c1.6-0.1,3.2-0.1,4.8,0c1.6,0.1,3.3,0.3,4.6,1.3c0-0.1,0-0.1,0.1-0.2c-3.1,0.1-6.3-0.1-9.4-0.4
					c-0.4-0.1-0.8-0.1-1.2-0.2c-0.2,0-0.3-0.1-0.5-0.1c-0.5-0.1-0.6-0.2-0.2-0.5c0.4-0.6,1.5-0.6,2.1-0.8c1.7-0.3,3.3-0.3,5-0.1
					C31.2,88.4,31.3,88.2,31.2,88.2L31.2,88.2z"/>
			</g>
		</g>
		<g>
			<g>
				<path class="st0" d="M40,85.7c-1.2,3.7-0.3,7.6,1.4,11c0.1,0.1,0.2,0,0.2-0.1c-1.7-3.3-2.6-7.2-1.4-10.8
					C40.3,85.6,40.1,85.5,40,85.7L40,85.7z"/>
			</g>
		</g>
		<g>
			<g>
				<path class="st0" d="M16.3,93.8c-0.1,0.5-0.1,0.9,0.1,1.3c0.1,0.3,0.5,0.1,0.4-0.1c-0.1-0.3-0.2-0.7-0.1-1.1
					C16.8,93.6,16.4,93.5,16.3,93.8L16.3,93.8z"/>
			</g>
		</g>
		<g>
			<g>
				<path class="st0" d="M18.5,95c-0.1,0.5-0.1,1,0.1,1.5c0.1,0.3,0.5,0.1,0.4-0.1c-0.1-0.4-0.1-0.8-0.1-1.2
					C19,94.9,18.6,94.8,18.5,95L18.5,95z"/>
			</g>
		</g>
		<g>
			<g>
				<path class="st0" d="M21.8,96.2c0,0.5,0.1,1,0.2,1.5c0.1,0.3,0.5,0.1,0.4-0.1c-0.1-0.5-0.2-0.9-0.2-1.4
					C22.2,96,21.8,96,21.8,96.2L21.8,96.2z"/>
			</g>
		</g>
		<g>
			<g>
				<path class="st0" d="M29.1,97.6c0,0.4,0.1,0.9,0.1,1.3c0,0.3,0.4,0.3,0.4,0c0-0.4-0.1-0.9-0.1-1.3
					C29.5,97.3,29.1,97.3,29.1,97.6L29.1,97.6z"/>
			</g>
		</g>
		<g>
			<g>
				<path class="st0" d="M39,97.3c0.1,0.5,0.2,1,0.1,1.5c0,0.3,0.4,0.3,0.4,0c0.1-0.6,0-1.1-0.2-1.6C39.3,96.9,38.9,97,39,97.3
					L39,97.3z"/>
			</g>
		</g>
		<g>
			<g>
				<path class="st0" d="M44.9,96.1c0.3,0.4,0.3,0.9,0.2,1.4c-0.1,0.3,0.3,0.4,0.4,0.1c0.2-0.6,0.1-1.2-0.3-1.7
					C45.1,95.6,44.8,95.9,44.9,96.1L44.9,96.1z"/>
			</g>
		</g>
		<g>
			<g>
				<path class="st0" d="M47.6,95.2c0.3,0.4,0.4,0.9,0.4,1.5c0,0.3,0.4,0.3,0.4,0c0-0.6-0.1-1.2-0.4-1.7
					C47.8,94.8,47.4,95,47.6,95.2L47.6,95.2z"/>
			</g>
		</g>
		<g>
			<g>
				<path class="st0" d="M49.3,94.6c0.2,0.3,0.2,0.7,0.2,1.1c0,0.3,0.4,0.3,0.4,0c0-0.5-0.1-0.9-0.3-1.3
					C49.5,94.2,49.2,94.4,49.3,94.6L49.3,94.6z"/>
			</g>
		</g>
		<g>
			<g>
				<path class="st0" d="M50.7,93.6c0.2,0.5,0.2,1,0.2,1.5c0,0.3,0.4,0.4,0.4,0.1c0.1-0.6,0-1.1-0.2-1.7
					C51,93.2,50.6,93.3,50.7,93.6L50.7,93.6z"/>
			</g>
		</g>
		<g>
			<g>
				<path class="st0" d="M51.8,92.9c0.1,0.5,0.1,1,0,1.5c0,0.3,0.4,0.4,0.4,0.1c0.1-0.6,0.1-1.1,0-1.7
					C52.2,92.6,51.8,92.7,51.8,92.9L51.8,92.9z"/>
			</g>
		</g>
		<g>
			<g>
				<path class="st0" d="M52.5,92c0,0.5,0.1,1,0.1,1.4c0,0.3,0.4,0.3,0.4,0c0-0.5-0.1-1-0.1-1.4C52.9,91.8,52.4,91.8,52.5,92
					L52.5,92z"/>
			</g>
		</g>
		<g>
			<g>
				<path class="st0" d="M17.4,94.4c-0.1,0.5-0.1,1,0.1,1.5c0.1,0.3,0.5,0,0.4-0.2c-0.1-0.3-0.2-0.8-0.1-1.1
					C17.8,94.2,17.4,94.1,17.4,94.4L17.4,94.4z"/>
			</g>
		</g>
		<g>
			<g>
				<path class="st0" d="M16.8,87.4c-0.2,0.6-0.3,1.8,0.4,2c0.1,0.1,0.2-0.1,0.1-0.2c-0.6-0.2-0.4-1.4-0.3-1.8
					C17.1,87.3,16.9,87.3,16.8,87.4L16.8,87.4z"/>
			</g>
		</g>
		<g>
			<g>
				<path class="st0" d="M23.5,84.6c-0.4,0.6-0.5,1.3,0,1.9c0.1,0.1,0.3,0,0.2-0.1c-0.4-0.5-0.4-1.1,0-1.6
					C23.7,84.7,23.5,84.5,23.5,84.6L23.5,84.6z"/>
			</g>
		</g>
		<g>
			<g>
				<path class="st0" d="M39.5,83.9c0.3,0.6,0.3,1.2,0,1.7c-0.1,0.1,0.1,0.2,0.2,0.1c0.3-0.6,0.3-1.3,0-1.9
					C39.7,83.7,39.5,83.8,39.5,83.9L39.5,83.9z"/>
			</g>
		</g>
		<g>
			<g>
				<path class="st0" d="M45.7,85c0.2,0.4,0.2,0.9-0.1,1.3c-0.1,0.1,0.1,0.2,0.2,0.1c0.3-0.5,0.3-1,0.1-1.5
					C45.8,84.8,45.7,84.9,45.7,85L45.7,85z"/>
			</g>
		</g>
		<g>
			<g>
				<path class="st0" d="M50.9,87.2c0.1,0.4,0,0.9-0.3,1.2c-0.1,0.1,0.1,0.3,0.1,0.1c0.3-0.4,0.4-0.9,0.3-1.4
					C51.1,87,50.9,87.1,50.9,87.2L50.9,87.2z"/>
			</g>
		</g>
		<g>
			<g>
				<path class="st0" d="M29.5,83.7c-0.4,0.6-0.3,1.5,0.2,2c0.1,0.1,0.2-0.1,0.1-0.1c-0.5-0.5-0.5-1.2-0.2-1.8
					C29.8,83.7,29.6,83.6,29.5,83.7L29.5,83.7z"/>
			</g>
		</g>
		<g>
			<g>
				<path class="st0" d="M15.6,92.9c0,0.1-0.1,0.3-0.1,0.5c0,0.1,0.2,0.2,0.2,0.1c0-0.1,0.1-0.3,0.1-0.5
					C15.8,92.9,15.6,92.8,15.6,92.9L15.6,92.9z"/>
			</g>
		</g>
		<g>
			<g>
				<path class="st0" d="M15.8,93c-0.1,0.2-0.2,0.5-0.3,0.7c-0.1,0.1,0.1,0.2,0.2,0.1c0.1-0.2,0.2-0.5,0.3-0.7
					C16.1,92.9,15.9,92.9,15.8,93L15.8,93z"/>
			</g>
		</g>
		<g>
			<g>
				<path class="st0" d="M16.1,93.3c-0.1,0.2-0.2,0.5-0.3,0.7c-0.1,0.1,0.1,0.2,0.2,0.1c0.1-0.2,0.2-0.5,0.3-0.7
					C16.3,93.3,16.2,93.2,16.1,93.3L16.1,93.3z"/>
			</g>
		</g>
		<g>
			<g>
				<path class="st0" d="M16.3,93.5c-0.1,0.3-0.2,0.6-0.3,0.9c0,0.1,0.2,0.1,0.2,0c0-0.3,0.1-0.6,0.3-0.8
					C16.5,93.5,16.4,93.4,16.3,93.5L16.3,93.5z"/>
			</g>
		</g>
		<g>
			<g>
				<path class="st0" d="M52.8,91.7c0,0.3,0,0.6,0,1c0,0.1,0.2,0.1,0.2,0c0-0.3,0-0.6,0-1C53,91.5,52.8,91.5,52.8,91.7L52.8,91.7z"
					/>
			</g>
		</g>
		<g>
			<g>
				<path class="st0" d="M52.1,92.7c0.1,0.4,0.1,0.9,0.1,1.3c0,0.1,0.2,0.1,0.2,0c0-0.5,0-0.9-0.1-1.4
					C52.3,92.5,52.1,92.6,52.1,92.7L52.1,92.7z"/>
			</g>
		</g>
		<g>
			<g>
				<path class="st0" d="M51.1,93.3c0,0.3,0,0.7-0.1,1c0,0.1,0.2,0.2,0.2,0.1c0.1-0.3,0.1-0.7,0.1-1.1
					C51.3,93.2,51.1,93.2,51.1,93.3L51.1,93.3z"/>
			</g>
		</g>
		<g>
			<g>
				<path class="st0" d="M51.6,92.9c-0.2,0.6-0.3,1.2-0.3,1.8c0,0.1,0.2,0.1,0.2,0c0.1-0.6,0.2-1.2,0.3-1.8
					C51.9,92.9,51.7,92.8,51.6,92.9L51.6,92.9z"/>
			</g>
		</g>
		<g>
			<g>
				<path class="st0" d="M52.5,92.3c-0.1,0.6-0.2,1.2-0.3,1.9c0,0.1,0.2,0.2,0.2,0.1c0.1-0.6,0.3-1.3,0.3-1.9
					C52.7,92.2,52.5,92.2,52.5,92.3L52.5,92.3z"/>
			</g>
		</g>
		<g>
			<g>
				<path class="st0" d="M49.8,94.2c0,0.4-0.1,0.8-0.1,1.1c0,0.1,0.2,0.2,0.2,0.1C50,95,50,94.6,50,94.2C50,94,49.8,94,49.8,94.2
					L49.8,94.2z"/>
			</g>
		</g>
		<g>
			<g>
				<path class="st0" d="M50.3,94.2c-0.1,0.5-0.2,1-0.3,1.4c0,0.1,0.2,0.2,0.2,0.1c0.1-0.5,0.2-1,0.3-1.4
					C50.5,94.1,50.3,94.1,50.3,94.2L50.3,94.2z"/>
			</g>
		</g>
		<g>
			<g>
				<path class="st0" d="M50.7,93.8c-0.1,0.6-0.2,1.1-0.3,1.7c0,0.1,0.2,0.2,0.2,0.1c0.2-0.6,0.3-1.1,0.3-1.7
					C50.9,93.7,50.7,93.7,50.7,93.8L50.7,93.8z"/>
			</g>
		</g>
		<g>
			<g>
				<path class="st0" d="M16.5,94.4c0.2,0.4,0.3,0.8,0.5,1.2c0.1,0.1,0.2,0,0.2-0.1c-0.2-0.4-0.3-0.8-0.5-1.2
					C16.7,94.2,16.5,94.3,16.5,94.4L16.5,94.4z"/>
			</g>
		</g>
		<g>
			<g>
				<path class="st0" d="M16.9,94.2c0.3,0.6,0.5,1.1,0.8,1.7c0.1,0.1,0.2,0,0.2-0.1c-0.3-0.6-0.5-1.1-0.8-1.7
					C17,94,16.8,94.1,16.9,94.2L16.9,94.2z"/>
			</g>
		</g>
		<g>
			<g>
				<path class="st0" d="M17.6,94.4c0.2,0.6,0.4,1.2,0.7,1.8c0.1,0.1,0.2,0,0.2-0.1c-0.3-0.6-0.5-1.2-0.7-1.8
					C17.7,94.3,17.5,94.3,17.6,94.4L17.6,94.4z"/>
			</g>
		</g>
		<g>
			<g>
				<path class="st0" d="M18,94.5c0.2,0.7,0.5,1.3,0.7,2c0.1,0.1,0.3,0.1,0.2-0.1c-0.2-0.7-0.5-1.3-0.7-2C18.2,94.3,18,94.4,18,94.5
					L18,94.5z"/>
			</g>
		</g>
		<g>
			<g>
				<path class="st0" d="M18.7,94.9c0.1,0.6,0.3,1.2,0.6,1.8c0.1,0.1,0.2,0,0.2-0.1c-0.2-0.6-0.4-1.1-0.6-1.7
					C18.9,94.7,18.7,94.8,18.7,94.9L18.7,94.9z"/>
			</g>
		</g>
		<g>
			<g>
				<path class="st0" d="M19.3,95.3c0.1,0.6,0.3,1.2,0.5,1.7c0.1,0.1,0.2,0,0.2-0.1c-0.2-0.5-0.4-1.1-0.5-1.7
					C19.5,95.1,19.3,95.1,19.3,95.3L19.3,95.3z"/>
			</g>
		</g>
		<g>
			<g>
				<path class="st0" d="M19.8,95.4c0.1,0.7,0.4,1.4,0.7,2c0.1,0.1,0.3,0,0.2-0.1c-0.3-0.6-0.6-1.2-0.7-1.9
					C20,95.3,19.8,95.3,19.8,95.4L19.8,95.4z"/>
			</g>
		</g>
		<g>
			<g>
				<path class="st0" d="M49.3,94.7c-0.2,0.6-0.4,1.2-0.6,1.8c-0.1,0.1,0.1,0.2,0.2,0.1c0.2-0.6,0.5-1.2,0.6-1.8
					C49.6,94.6,49.4,94.6,49.3,94.7L49.3,94.7z"/>
			</g>
		</g>
		<g>
			<g>
				<path class="st0" d="M48.8,94.8c-0.2,0.6-0.4,1.2-0.6,1.7c-0.1,0.1,0.1,0.2,0.2,0.1c0.2-0.6,0.4-1.2,0.6-1.7
					C49,94.7,48.8,94.6,48.8,94.8L48.8,94.8z"/>
			</g>
		</g>
		<g>
			<g>
				<path class="st0" d="M48.3,95c-0.3,0.6-0.6,1.2-0.8,1.9c0,0.1,0.2,0.2,0.2,0.1c0.2-0.6,0.5-1.3,0.8-1.9
					C48.6,94.9,48.4,94.9,48.3,95L48.3,95z"/>
			</g>
		</g>
		<g>
			<g>
				<path class="st0" d="M47.8,95.1c-0.3,0.7-0.6,1.4-0.9,2c-0.1,0.1,0.1,0.2,0.2,0.1c0.3-0.7,0.6-1.4,0.9-2
					C48,95.1,47.8,95,47.8,95.1L47.8,95.1z"/>
			</g>
		</g>
		<g>
			<g>
				<path class="st0" d="M47,95.5c-0.3,0.6-0.5,1.2-0.8,1.8c-0.1,0.1,0.1,0.2,0.2,0.1c0.3-0.6,0.5-1.2,0.8-1.8
					C47.3,95.5,47.1,95.4,47,95.5L47,95.5z"/>
			</g>
		</g>
		<g>
			<g>
				<path class="st0" d="M37.7,78.8c0,0,0,0.1-0.1,0.1c-0.1,0.1,0.1,0.2,0.2,0.1c0,0,0-0.1,0.1-0.1C37.9,78.8,37.8,78.6,37.7,78.8
					L37.7,78.8z"/>
			</g>
		</g>
		<g>
			<g>
				<path class="st0" d="M16.6,109.3c5.2-1.6,10.4,0.6,14.6,3.5c0.1,0.1,0.2-0.1,0.1-0.2c-4.3-2.9-9.6-5.2-14.8-3.6
					C16.4,109.2,16.5,109.4,16.6,109.3L16.6,109.3z"/>
			</g>
		</g>
		<g>
			<g>
				<path class="st0" d="M31.3,113.1c2.8-3.6,6.2-6.5,10.1-8.7c0.1-0.1,0-0.3-0.1-0.2c-4,2.2-7.5,5.2-10.2,8.8
					C31,113.1,31.2,113.2,31.3,113.1L31.3,113.1z"/>
			</g>
		</g>
		<g>
			<g>
				<path class="st0" d="M41.4,104.5c2-0.1,4.1-0.1,6.1,0.1c0.1,0,0.1-0.2,0-0.2c-2-0.2-4.1-0.2-6.1-0.1
					C41.2,104.3,41.2,104.5,41.4,104.5L41.4,104.5z"/>
			</g>
		</g>
		<g>
			<g>
				<path class="st0" d="M16.5,109.2c4.7-2.3,9.5-4.4,14.4-6.5c0.1-0.1,0.1-0.3-0.1-0.2c-4.9,2-9.7,4.2-14.4,6.5
					C16.3,109.1,16.4,109.3,16.5,109.2L16.5,109.2z"/>
			</g>
		</g>
		<g>
			<g>
				<path class="st0" d="M30.9,102.9c1.5-0.2,3.1-0.2,4.6,0c0.7,0.1,1.3,0.3,1.9,0.6c0.2,0.1,2.6,1.4,2.3,1.6
					c-0.1,0.1,0,0.3,0.1,0.2c0,0,0.1,0,0.1-0.1c0,0,0.1-0.1,0.1-0.1c-0.1-0.5-0.7-0.9-1.1-1.1c-0.8-0.5-1.6-0.8-2.4-1
					c-1.8-0.5-3.7-0.4-5.5-0.2C30.7,102.7,30.7,102.9,30.9,102.9L30.9,102.9z"/>
			</g>
		</g>
		<g>
			<g>
				<path class="st0" d="M31,113.7c0.1-0.3,0.3-0.6,0.5-0.9c0.1-0.2-0.2-0.5-0.4-0.2c-0.1,0.3-0.3,0.6-0.5,0.9
					C30.5,113.7,30.9,113.9,31,113.7L31,113.7z"/>
			</g>
		</g>
		<g>
			<g>
				<path class="st0" d="M31,113.5c-2.2-1.4-4.5-2.9-7.1-3.5c-1.4-0.3-2.7-0.3-4.1-0.2c-1.5,0.1-3,0.1-4.4,0.2
					c0,0.1,0.1,0.3,0.1,0.4c1-0.6,2-1.1,3.1-1.5c0.3-0.1,0.1-0.5-0.1-0.4c-1.1,0.4-2.2,0.9-3.2,1.5c-0.2,0.1-0.1,0.4,0.1,0.4
					c1.4-0.1,2.8-0.1,4.1-0.2c1.5-0.1,2.9-0.2,4.4,0.1c2.6,0.6,4.8,2,7,3.4C31,114,31.2,113.7,31,113.5L31,113.5z"/>
			</g>
		</g>
		<g>
			<g>
				<path class="st0" d="M23.1,107.9c0.4-0.1,0.8-0.3,1.2-0.4c-0.1-0.1-0.2-0.2-0.3-0.3c0,0.1-0.1,0.2-0.1,0.3c0,0.1,0,0.2,0.1,0.2
					c0.6,0.5,1.4,0.6,2.1,0.2c0.2-0.1,0.3-0.2,0.4-0.3c0.7-0.4,0.2-0.1,0.1,0.1c-0.1,0.2-0.3,0.3-0.3,0.7c0,0.1,0.1,0.2,0.2,0.2
					c0.3,0.1,0.6,0,1-0.1c-0.1-0.1-0.1-0.2-0.2-0.3c-0.2,0.2-0.2,0.2-0.2,0.5c0,0.1,0,0.2,0.1,0.3c0.5,0.2,0.9,0.1,1.3-0.1
					c-0.1-0.1-0.2-0.1-0.3-0.2c0,0.2,0,0.3,0,0.5c0,0.1,0.1,0.2,0.1,0.2c0.8,0.1,1.5,0.4,2.1,0.7c0.2,0.1,0.5-0.2,0.2-0.4
					c-0.3-0.2-0.7-0.3-1.1-0.5c-0.4-0.1-1-0.1-0.9-0.6c0-0.1-0.2-0.3-0.3-0.2c-0.3,0.2-0.7,0.3-1,0.1c0.1,0.1,0.1,0.2,0.1,0.3
					c0.1-0.1,0.1-0.2,0.1-0.3c0.1-0.1,0-0.4-0.2-0.3c-0.3,0.1-0.5,0.1-0.8,0.1c0.1,0.1,0.1,0.1,0.2,0.2c0-0.3,1.2-1.2,0.3-1.5
					c-0.3-0.1-0.4,0.1-0.6,0.2c-0.4,0.3-0.7,0.6-1.3,0.6c-0.3,0-0.8-0.1-0.8-0.5c0-0.1-0.1-0.3-0.3-0.3c-0.4,0.1-0.8,0.3-1.2,0.4
					C22.7,107.6,22.9,108,23.1,107.9L23.1,107.9z"/>
			</g>
		</g>
		<g>
			<g>
				<path class="st0" d="M28.8,107.5c0.2-0.1,0.4-0.2,0.6-0.2c-0.1-0.1-0.2-0.2-0.3-0.3c-0.1,0.2-0.1,0.4,0,0.7
					c0,0.1,0.1,0.1,0.2,0.1c0.4,0,0.7,0,1-0.1c0-0.1-0.1-0.3-0.1-0.4c0,0,0,0-0.1,0c-0.1,0.1-0.2,0.1-0.1,0.3
					c0.1,0.6,1.3,0.5,1.8,0.6c-0.1-0.1-0.1-0.2-0.1-0.3c-0.1,0.3-0.1,0.8,0.3,0.7c0.3,0,0.3-0.5,0-0.4c0-0.1,0-0.1,0.1-0.2
					c0-0.1,0-0.2-0.1-0.3c-0.2,0-1.4-0.1-1.5-0.3c-0.1,0.1-0.1,0.2-0.1,0.3c0,0,0,0,0.1,0c0.2-0.1,0.1-0.5-0.1-0.4
					c-0.3,0.1-0.6,0.1-1,0.1c0.1,0.1,0.1,0.1,0.2,0.1c0-0.1,0-0.3,0-0.4c0-0.1-0.1-0.3-0.3-0.3c-0.2,0.1-0.4,0.2-0.6,0.2
					C28.5,107.2,28.5,107.6,28.8,107.5L28.8,107.5z"/>
			</g>
		</g>
		<g>
			<g>
				<path class="st0" d="M32,106.3c0-0.1,0.1-0.1,0.1,0c0-0.1,0-0.2,0-0.3c-0.2,0.2-0.1,0.4,0.1,0.6c0.1,0.1,0.2,0.1,0.3,0.1
					c0.1,0,0.3,0,0.3,0.1c0,0.3,0.4,0.3,0.4,0c0-0.2-0.1-0.3-0.3-0.4c-0.1,0-0.2-0.1-0.3-0.1c-0.1,0-0.1,0-0.1,0s-0.1-0.1-0.1,0
					c0.1-0.1,0.1-0.2,0-0.3c-0.3-0.2-0.6-0.2-0.8,0.1C31.4,106.4,31.8,106.6,32,106.3L32,106.3z"/>
			</g>
		</g>
		<g>
			<g>
				<path class="st0" d="M34.6,105.6c0.3,0,0.5,0,0.8,0c0.3,0,0.3-0.4,0-0.4c-0.3,0-0.5,0-0.8,0C34.3,105.1,34.3,105.6,34.6,105.6
					L34.6,105.6z"/>
			</g>
		</g>
		<g>
			<g>
				<path class="st0" d="M37.9,109.4c0.9-0.4,1.8-0.7,2.8-0.6c0.6,0,1.1,0.2,1.6-0.1c-0.1,0-0.2-0.1-0.3-0.1
					c0.1,0.1,0.2,0.3,0.3,0.4c0.1,0.1,0.1,0.1,0.2,0.1c0.5-0.2,1-0.2,1.5,0.1c0.2,0.1,0.4-0.2,0.2-0.4c-0.3-0.2-0.6-0.3-0.9-0.3
					c-0.4,0-0.7,0.2-0.9-0.1c-0.1-0.1-0.2-0.1-0.3-0.1c-0.4,0.3-0.8,0.1-1.2,0.1c-0.4,0-0.8,0-1.2,0c-0.7,0.1-1.3,0.3-2,0.6
					C37.4,109.2,37.6,109.6,37.9,109.4L37.9,109.4z"/>
			</g>
		</g>
		<g>
			<g>
				<path class="st0" d="M41.3,106.8c1,0.2,2,0.5,3,0.7c0.3,0.1,0.4-0.3,0.1-0.4c-1-0.3-2-0.5-3-0.7C41.1,106.3,41,106.7,41.3,106.8
					L41.3,106.8z"/>
			</g>
		</g>
		<g>
			<g>
				<path class="st0" d="M43.9,106c0.7-0.1,1.4-0.1,2,0.1c0.3,0.1,0.4-0.3,0.1-0.4c-0.7-0.2-1.4-0.2-2.1-0.1
					C43.7,105.6,43.7,106.1,43.9,106L43.9,106z"/>
			</g>
		</g>
		<g>
			<g>
				<path class="st0" d="M31.3,114.1c1.4-0.3,2.7-1,4.1-1.4c1.4-0.4,2.9-0.7,4.4-0.8c2.9-0.2,5.7,0.2,8.4,1.2
					c0.3,0.1,0.4-0.3,0.1-0.4c-2.7-1-5.7-1.5-8.6-1.2c-1.4,0.1-2.8,0.3-4.2,0.7c-1.5,0.4-2.9,1.1-4.4,1.5
					C30.9,113.8,31,114.2,31.3,114.1L31.3,114.1z"/>
			</g>
		</g>
		<g>
			<g>
				<path class="st0" d="M48.5,113c0.5-2.4,1-4.8,1.5-7.2c0.1-0.3-0.3-0.4-0.4-0.1c-0.5,2.4-1,4.8-1.5,7.2
					C48,113.1,48.4,113.2,48.5,113L48.5,113z"/>
			</g>
		</g>
		<g>
			<g>
				<path class="st0" d="M49.1,105.7c-0.3,0.8-0.7,1.7-1,2.5c-0.3,0.9-0.5,2-1,2.8c-0.1,0.3-0.1,0.4-0.5,0.4c-0.2,0-0.4-0.1-0.6-0.2
					c-0.5-0.1-1-0.3-1.5-0.3c-0.9-0.2-1.7-0.3-2.6-0.3c-3.7-0.2-7.3,0.5-10.6,2.1c-0.1,0.1,0,0.2,0.1,0.2c4.8-2.4,10.5-2.8,15.6-1.1
					c0.1,0,0.1,0,0.1-0.1c0.6-2,1.3-4,2.1-5.9C49.3,105.7,49.1,105.6,49.1,105.7L49.1,105.7z"/>
			</g>
		</g>
		<g>
			<g>
				<path class="st0" d="M40.6,52.3c3.7-1.6,7.7-1.9,11.6-0.9c0.1,0,0.2-0.2,0.1-0.2c-3.9-1-8-0.7-11.7,0.9
					C40.3,52.1,40.4,52.4,40.6,52.3L40.6,52.3z"/>
			</g>
		</g>
		<g>
			<g>
				<path class="st0" d="M55.9,51.3c3.9-1,8-0.9,11.9,0.1c0.1,0,0.2-0.2,0.1-0.2c-3.9-1-8.1-1.1-12-0.1
					C55.7,51.1,55.8,51.3,55.9,51.3L55.9,51.3z"/>
			</g>
		</g>
	</g>
	<g>
		<g>
			<path class="st1" d="M80.5,91.4c0.2,0,0.2-0.3,0-0.3C80.3,91,80.3,91.4,80.5,91.4L80.5,91.4z"/>
		</g>
	</g>
	<g>
		<g>
			<path class="st2" d="M81.5,90.2c2.7-0.3,5.4-0.3,8-0.2c0.2,0,0.2-0.3,0-0.3c-2.7-0.1-5.4,0-8,0.2C81.3,89.9,81.3,90.3,81.5,90.2
				L81.5,90.2z"/>
		</g>
	</g>
	<g>
		<g>
			<path class="st2" d="M112,90.6c6.2-0.1,12.3-0.1,18.5-0.2c0.2,0,0.2-0.4,0-0.3c-6.2,0.1-12.3,0.1-18.5,0.2
				C111.8,90.2,111.8,90.6,112,90.6L112,90.6z"/>
		</g>
	</g>
	<g>
		<g>
			<path class="st2" d="M9,91.1c1.4,0,2.8-0.1,4.3-0.1c0.2,0,0.2-0.4,0-0.3c-1.4,0-2.8,0.1-4.3,0.1C8.8,90.8,8.8,91.1,9,91.1L9,91.1
				z"/>
		</g>
	</g>
	<g>
		<g>
			<path class="st2" d="M108.1,32.9c0.6-0.3,1.1-0.6,1.7-0.8c-0.1-0.1-0.2-0.1-0.3-0.2c-0.1,0.6,0.1,0.7,0.7,0.8
				c0.7,0.1,1.9-0.3,2.6-0.4c0.9-0.1,1.9-0.1,2.8,0c0.2,0,0.2-0.3,0-0.3c-1-0.1-2-0.1-3,0c-0.3,0-2.7,0.5-2.6,0.1
				c0-0.1-0.1-0.3-0.3-0.2c-0.6,0.3-1.1,0.6-1.7,0.8C107.7,32.7,107.9,33.1,108.1,32.9L108.1,32.9z"/>
		</g>
	</g>
	<g>
		<g>
			<path class="st2" d="M105.9,34.8c1.2-0.1,2.4-0.1,3.5-0.1c0.2,0,0.2-0.4,0-0.3c-1.2,0.1-2.4,0.1-3.5,0.1
				C105.6,34.5,105.6,34.8,105.9,34.8L105.9,34.8z"/>
		</g>
	</g>
	<g>
		<g>
			<path class="st2" d="M102.8,37.3c1.2-0.5,2.6-0.1,3.8,0c1.2,0.1,2.3,0.1,3.5,0.2c0.2,0,0.2-0.3,0-0.3c-1.5,0-3-0.1-4.6-0.3
				c-1-0.1-1.9-0.2-2.9,0.2C102.4,37.1,102.6,37.4,102.8,37.3L102.8,37.3z"/>
		</g>
	</g>
</g>
</svg>
