<?xml version="1.0" encoding="utf-8"?>
<!-- Generator: Adobe Illustrator 24.0.1, SVG Export Plug-In . SVG Version: 6.00 Build 0)  -->
<svg version="1.1" id="Layer_1" xmlns="http://www.w3.org/2000/svg" xmlns:xlink="http://www.w3.org/1999/xlink" x="0px" y="0px"
	 viewBox="0 0 141.7 141.7" style="enable-background:new 0 0 141.7 141.7;" xml:space="preserve">
<style type="text/css">
	.st0{fill:#070707;}
</style>
<g id="Layer_1_1_">
</g>
<g>
	<g>
		<g>
			<path d="M61.1,91.8c0,6.2,0,12.4,0,18.6c0,0.5,0.7,0.5,0.7,0c0-6.2,0-12.4,0-18.6C61.8,91.4,61.1,91.4,61.1,91.8L61.1,91.8z"/>
		</g>
	</g>
	<g>
		<g>
			<path d="M105.2,85.2c1.4,10,2.6,20.1,3.7,30.2c0.1,0.5,0.8,0.5,0.7,0c-1.1-10.1-2.3-20.3-3.7-30.4
				C105.8,84.6,105.1,84.8,105.2,85.2L105.2,85.2z"/>
		</g>
	</g>
	<g>
		<g>
			<path d="M113.1,86.8c1.5,9.8,3,19.7,4.5,29.5c0.1,0.5,0.8,0.3,0.7-0.2c-1.5-9.8-3-19.7-4.5-29.5
				C113.8,86.1,113.1,86.3,113.1,86.8L113.1,86.8z"/>
		</g>
	</g>
	<g>
		<g>
			<path d="M65,86.1c10.4-3.2,21.1-5.6,31.9-7.3c0.5-0.1,0.3-0.8-0.2-0.7c-10.8,1.7-21.5,4.1-31.9,7.3C64.4,85.5,64.6,86.2,65,86.1
				L65,86.1z"/>
		</g>
	</g>
	<g>
		<g>
			<path d="M107.4,78.4C107.4,78.4,107.4,78.5,107.4,78.4c0.1-0.1,0.2-0.2,0.3-0.3c0.1,0,0.1,0,0.2,0.1c0,0.1,0.1,0.2,0.1,0.2
				c0,0,0,0,0-0.1c0,0.1-0.1,0.2-0.1,0.2c-0.1,0-0.1,0,0,0.1c0.1,0,0.2,0.1,0.3,0.1c0.2,0.1,0.3,0.1,0.5,0.2
				c0.4,0.2,0.8,0.3,1.2,0.5c0.4,0.2,0.6-0.5,0.2-0.7c-0.5-0.2-1-0.4-1.5-0.6c-0.3-0.1-0.7-0.4-1.1-0.3c-0.6,0.2-0.3,1,0.3,0.8
				c0.1,0,0.3-0.2,0.3-0.3c0,0,0,0,0,0C108,78,107.3,78,107.4,78.4L107.4,78.4z"/>
		</g>
	</g>
	<g>
		<g>
			<path d="M107.7,78.9C107.7,78.9,107.7,78.9,107.7,78.9c0.2-0.1,0.3-0.2,0.2-0.3c0-0.2-0.1-0.3-0.3-0.5c-0.1-0.1-0.3-0.1-0.4,0
				c-0.3,0.2-0.4,0.5-0.5,0.8c-0.2,0.6-0.4,1.3-0.6,1.9c-0.4,1.3-0.8,2.7-1.3,4c0.2-0.1,0.4-0.1,0.6-0.2c-1-1.2-2.6-2.1-3.9-3
				c-1.6-1.1-3.1-2.2-4.6-3.3c-0.4-0.3-0.7,0.3-0.4,0.6c1.4,1,2.9,2.1,4.3,3.1c1.3,1,3,1.9,4,3.1c0.2,0.2,0.5,0.1,0.6-0.2
				c0.3-1.1,0.7-2.1,1-3.1c0.2-0.5,0.3-0.9,0.4-1.4c0.1-0.3,0.2-0.6,0.3-0.9c0-0.2,0.5-1.6,0-1.3C106.9,78.5,107.3,79.1,107.7,78.9
				L107.7,78.9z"/>
		</g>
	</g>
	<g>
		<g>
			<path d="M97,78.8c3.3-1.7,7.2-1.7,10.5-0.1c0.4,0.2,0.8-0.4,0.4-0.6c-3.6-1.7-7.7-1.7-11.3,0.1C96.2,78.4,96.5,79,97,78.8
				L97,78.8z"/>
		</g>
	</g>
	<g>
		<g>
			<path d="M104,77.4c0.4,2.4,0.7,4.8,0.9,7.2c0,0.5,0.8,0.5,0.7,0c-0.2-2.5-0.5-4.9-0.9-7.4C104.6,76.7,103.9,76.9,104,77.4
				L104,77.4z"/>
		</g>
	</g>
	<g>
		<g>
			<path d="M109.6,79.5c1.1,2.5,2.3,5,3.6,7.5c0.2,0.3,0.7,0.2,0.7-0.2c0-2.4-0.1-4.7-0.4-7.1c0-0.1-0.1-0.2-0.2-0.2
				c-1-0.2-2.1-0.5-3.1-0.8c-0.4-0.1-0.6,0.6-0.2,0.7c0.7,0.2,1.5,0.4,2.2,0.6c0.6,0.2,0.6,0.3,0.7,1c0.1,0.4,0.1,0.7,0.1,1.1
				c0.2,1.6,0.2,3.2,0.2,4.8c0.2-0.1,0.4-0.1,0.7-0.2c-1.3-2.4-2.5-4.8-3.5-7.3C110.2,78.9,109.5,79,109.6,79.5L109.6,79.5z"/>
		</g>
	</g>
	<g>
		<g>
			<path d="M61.3,110.7c0.8,1.6,1.6,3.2,2.4,4.9c0.1-0.2,0.3-0.3,0.4-0.5c-1.2-0.2-2.5-0.3-3.7-0.2c0.1,0.2,0.2,0.3,0.3,0.5
				c0.1-0.8,0.2-1.6,0.4-2.4c0.1-0.4,0.1-0.7,0.2-1.1c0-0.2,0.1-0.4,0.1-0.6c0.2-0.3,0.1-0.5-0.3-0.6c0.1-0.1,0.2-0.2,0.3-0.3
				c0,0-0.1,0-0.1,0c-0.5,0.1-0.3,0.8,0.2,0.7c0,0,0.1,0,0.1,0c0.2,0,0.2-0.2,0.3-0.3c0-0.2-0.1-0.3-0.3-0.5c-0.1-0.1-0.3-0.1-0.4,0
				c-0.6,0.4-0.5,1.2-0.6,1.8c-0.2,1-0.3,2.1-0.5,3.1c0,0.2,0.1,0.5,0.3,0.5c1.2-0.1,2.4,0,3.5,0.2c0.3,0.1,0.5-0.2,0.4-0.5
				c-0.7-1.6-1.6-3.3-2.4-4.9C61.7,109.9,61.1,110.3,61.3,110.7L61.3,110.7z"/>
		</g>
	</g>
	<g>
		<g>
			<path d="M61.4,92.7c1.3-2.4,2.5-4.7,3.8-7.1c0.2-0.3-0.1-0.6-0.4-0.5c-1,0.2-2,0.4-3,0.7c-0.6,0.2-1.2,0.2-1.4,0.8
				c-0.3,0.8-0.1,1.9-0.1,2.7c0,1.1,0.1,2.2,0.2,3.3c0,0.3,0.4,0.5,0.6,0.2c0.1-0.1,0.2-0.2,0.3-0.3c0.3-0.3-0.2-0.8-0.5-0.5
				c-0.1,0.1-0.2,0.2-0.3,0.3c0.2,0.1,0.4,0.2,0.6,0.2c-0.2-1.6-0.3-3.2-0.2-4.8c0-0.5-0.1-0.9,0.4-1.2c0.3-0.2,0.7-0.2,1-0.3
				c0.8-0.2,1.6-0.4,2.5-0.5c-0.1-0.2-0.3-0.3-0.4-0.5c-1.3,2.4-2.5,4.7-3.8,7.1C60.5,92.7,61.2,93.1,61.4,92.7L61.4,92.7z"/>
		</g>
	</g>
	<g>
		<g>
			<path d="M64.2,115.7c13.6,1.7,27.2,3.4,40.8,5c0.5,0.1,0.5-0.7,0-0.7c-13.6-1.7-27.2-3.4-40.8-5C63.7,115,63.7,115.7,64.2,115.7
				L64.2,115.7z"/>
		</g>
	</g>
	<g>
		<g>
			<path d="M108.8,116c0,0.6,0.1,1.3,0.1,1.9c0,0.4,0,0.7,0.1,1.1c0,0.3,0.1,0.7,0,0.9c0.1,0.2,0,0.2-0.2,0.2c-0.2,0-0.4,0-0.6,0
				c-0.3,0-0.6,0-0.9,0c-0.7,0-1.3,0-2,0c0.1,0.2,0.2,0.4,0.2,0.6c1.4-1.5,2.5-3.2,3.5-5.1c0.2-0.4-0.4-0.8-0.6-0.4
				c-0.9,1.8-2,3.4-3.3,4.9c-0.2,0.2-0.1,0.6,0.2,0.6c1,0,1.9,0,2.9,0c0.4,0,1,0.1,1.3-0.2c0.3-0.4,0.1-1.2,0.1-1.6c0-1-0.1-2-0.1-3
				C109.5,115.5,108.8,115.5,108.8,116L108.8,116z"/>
		</g>
	</g>
	<g>
		<g>
			<path d="M109.6,120.8c2.9-1.3,5.8-2.5,8.7-3.6c0.4-0.2,0.2-0.9-0.2-0.7c-3,1.2-6,2.4-8.9,3.7
				C108.8,120.3,109.2,120.9,109.6,120.8L109.6,120.8z"/>
		</g>
	</g>
	<g>
		<g>
			<path d="M109.5,115.9C109.5,115.9,109.5,115.9,109.5,115.9c0.2-0.1,0.2-0.3,0.2-0.4c-0.1-0.4-0.6-0.6-0.9-0.2
				c-0.4,0.6,0.5,1.3,0.8,1.6c0.3,0.3,2.4,3.3,2.9,1.9c0.1-0.4-0.6-0.6-0.7-0.2c0.1-0.2,0.1-0.3-0.1-0.4c-0.1-0.1-0.2-0.2-0.3-0.4
				c-0.2-0.2-0.4-0.5-0.6-0.7c-0.2-0.2-0.4-0.5-0.6-0.7c-0.1-0.1-0.2-0.2-0.3-0.4c-0.2-0.3-0.4-0.4-0.8-0.3c0-0.1,0.1-0.2,0.1-0.3
				c0,0,0,0-0.1,0C108.6,115.7,109.1,116.2,109.5,115.9L109.5,115.9z"/>
		</g>
	</g>
	<g>
		<g>
			<path d="M116,117.9c0.6-1.6,1.2-3.1,1.7-4.7c0.2-0.4-0.6-0.6-0.7-0.2c-0.5,1.6-1.1,3.1-1.7,4.7
				C115.2,118.1,115.9,118.3,116,117.9L116,117.9z"/>
		</g>
	</g>
	<g>
		<g>
			<path d="M108.2,79.3c2.4,12.7,4.9,25.4,7.3,38.1c0.1,0.5,0.8,0.3,0.7-0.2c-2.4-12.7-4.9-25.4-7.3-38.1
				C108.9,78.7,108.2,78.9,108.2,79.3L108.2,79.3z"/>
		</g>
	</g>
	<g>
		<g>
			<path d="M66.8,91.4c-0.5,0.2-0.7,0.7-0.6,1.2c0.1,0.4,0.2,1,0.8,0.9c0.5,0,0.8-0.5,0.8-1c0-0.4-0.2-0.9-0.5-1.2
				c-0.4-0.3-0.9,0.2-0.5,0.5c0.2,0.2,0.4,0.5,0.3,0.8c0,0.1-0.1,0.1,0,0.2c0,0,0-0.2-0.1-0.2c0-0.1-0.1-0.4,0.1-0.5
				C67.4,91.9,67.3,91.2,66.8,91.4L66.8,91.4z"/>
		</g>
	</g>
	<g>
		<g>
			<path d="M72.3,90.7c-0.3,0.4-0.4,1-0.2,1.5c0.2,0.4,0.7,0.6,1.1,0.3c0.4-0.3,0.5-0.8,0.5-1.3c-0.1-0.5-0.5-0.9-1.1-0.8
				c-0.4,0.1-0.2,0.8,0.2,0.7c0.2-0.1,0.2,0.7-0.1,0.8c-0.1,0-0.1-0.1-0.1-0.2c0-0.2,0.1-0.5,0.2-0.7C73.1,90.7,72.5,90.3,72.3,90.7
				L72.3,90.7z"/>
		</g>
	</g>
	<g>
		<g>
			<path d="M86.2,88.7c-0.3,0.3-0.5,0.7-0.4,1.1c0.1,0.4,0.3,0.7,0.7,0.7c0.4,0,0.7-0.4,0.8-0.7c0.1-0.4-0.1-0.9-0.4-1.2
				c-0.3-0.3-0.9,0.2-0.5,0.5c0.1,0.1,0.2,0.2,0.2,0.4c0,0.1,0,0.2,0,0.2c0,0-0.1,0.1,0,0.1c0,0,0-0.2,0-0.3c0-0.2,0.1-0.2,0.2-0.3
				C87.1,88.9,86.6,88.4,86.2,88.7L86.2,88.7z"/>
		</g>
	</g>
	<g>
		<g>
			<path d="M94.3,87.3c-0.3,0.4-0.6,0.9-0.3,1.4c0.2,0.5,0.7,0.7,1.2,0.4c0.4-0.2,0.6-0.8,0.5-1.2c-0.1-0.4-0.5-0.9-1-0.8
				c-0.5,0.1-0.5,0.8,0,0.7c0.3,0,0.3,0.5,0.1,0.7c-0.1,0.1-0.2,0.1-0.2-0.1c-0.1-0.2,0.1-0.4,0.2-0.5
				C95.1,87.5,94.6,86.9,94.3,87.3L94.3,87.3z"/>
		</g>
	</g>
	<g>
		<g>
			<path d="M68.9,84.4c-0.1,2,0,3.9,0.2,5.9c0,0.5,0.8,0.5,0.7,0c-0.2-2-0.2-3.9-0.2-5.9C69.6,83.9,68.9,83.9,68.9,84.4L68.9,84.4z"
				/>
		</g>
	</g>
	<g>
		<g>
			<path d="M70.8,84c0,1.9,0,3.7-0.1,5.6c0,0.5,0.7,0.5,0.7,0c0.1-1.9,0.1-3.7,0.1-5.6C71.5,83.6,70.8,83.6,70.8,84L70.8,84z"/>
		</g>
	</g>
	<g>
		<g>
			<path d="M66.9,91.9c0.3-1.4,2.2-1,3.2-1.4c0.4-0.1,0.8-0.4,1.2-0.5c0.8-0.2,1.8,0.2,2.2,0.9c0.3,0.5,0.2,0.8-0.1,1.3
				c-0.2,0.2-0.3,0.5-0.6,0.7c-0.6,0.6-1.2,0.6-2,0.6c-0.5,0-0.9,0-1.3,0.1c-0.6,0.1-2.5,1-2.6-0.3c0-0.5-0.7-0.5-0.7,0
				c0.2,2.4,3,1,4.4,1c0.9,0,1.8,0.1,2.5-0.5c0.6-0.5,1.2-1.4,1.3-2.2c0.2-1.7-2.3-2.5-3.6-2c-0.5,0.2-1,0.4-1.6,0.5
				c-0.5,0.1-1.1,0.1-1.6,0.2c-0.7,0.2-1.4,0.7-1.5,1.5C66.1,92.2,66.8,92.3,66.9,91.9L66.9,91.9z"/>
		</g>
	</g>
	<g>
		<g>
			<path d="M68.7,94.2c-0.1,0.9-0.2,1.7-0.6,2.5c-0.2,0.6-0.8,1.2-0.9,1.9c-0.2,0.7,0.3,1.4,1.1,1.4c1-0.1,1.7-1.4,2.1-2.3
				c0.5-1.2,0.7-2.5,0.8-3.8c0-0.5-0.7-0.5-0.7,0c-0.1,0.9-0.2,1.8-0.4,2.6c-0.1,0.5-0.3,0.9-0.5,1.3c-0.1,0.2-0.2,0.3-0.3,0.5
				c-0.3,0.4-0.4,0.7-0.9,0.5c-0.5-0.2-0.4-0.2-0.2-0.6c0.1-0.2,0.2-0.4,0.3-0.6c0.2-0.3,0.3-0.7,0.4-1c0.3-0.8,0.5-1.7,0.5-2.5
				C69.4,93.8,68.7,93.8,68.7,94.2L68.7,94.2z"/>
		</g>
	</g>
	<g>
		<g>
			<path d="M68.8,98.6c0.5,0,0.5-0.7,0-0.7C68.3,97.9,68.3,98.6,68.8,98.6L68.8,98.6z"/>
		</g>
	</g>
	<g>
		<g>
			<path d="M69.3,97.1c0.5,0,0.5-0.7,0-0.7C68.9,96.4,68.9,97.1,69.3,97.1L69.3,97.1z"/>
		</g>
	</g>
	<g>
		<g>
			<path d="M69.7,95.3c0.5,0,0.5-0.7,0-0.7C69.2,94.6,69.2,95.3,69.7,95.3L69.7,95.3z"/>
		</g>
	</g>
	<g>
		<g>
			<path d="M70.2,89.5c0.5,0,0.5-0.7,0-0.7C69.7,88.8,69.7,89.5,70.2,89.5L70.2,89.5z"/>
		</g>
	</g>
	<g>
		<g>
			<path d="M70.1,88.4C70.1,88.4,70.2,88.4,70.1,88.4c0.3,0,0.4-0.2,0.4-0.4s-0.2-0.4-0.4-0.4c0,0-0.1,0-0.1,0
				c-0.2,0-0.4,0.2-0.4,0.4C69.7,88.2,69.9,88.4,70.1,88.4L70.1,88.4z"/>
		</g>
	</g>
	<g>
		<g>
			<path d="M68.9,99.1c-0.2,5.6-0.2,11.2,0,16.8c0,0.5,0.7,0.5,0.7,0c-0.3-5.6-0.3-11.2,0-16.8C69.6,98.7,68.9,98.7,68.9,99.1
				L68.9,99.1z"/>
		</g>
	</g>
	<g>
		<g>
			<path d="M71.1,93.9c0.3,7.5-0.6,15,0.4,22.4c0.1,0.5,0.7,0.3,0.7-0.2c-1-7.4-0.1-14.8-0.4-22.2C71.7,93.5,71,93.5,71.1,93.9
				L71.1,93.9z"/>
		</g>
	</g>
	<g>
		<g>
			<path d="M85.9,90.3c0.6,0.7,1.3,2.1,2.4,2.2c0.6,0,1.2-0.5,1.8-0.7c0.9-0.3,1.8-0.2,2.8-0.1c1.2,0.2,2.1-0.1,3-0.9
				c0.7-0.6,2.1-1.8,2.1-2.8c-0.1-0.9-1.7-1.6-2.4-1.9c-1.2-0.5-2.2-0.3-3.4,0c-1.9,0.5-6.2,0.1-6.2,3.1c0,0.5,0.7,0.5,0.7,0
				c-0.1-2.3,3.7-2,5.3-2.3c1.1-0.2,2-0.6,3.1-0.2c0.5,0.2,0.9,0.4,1.3,0.7c0.6,0.4,0.9,0.7,0.4,1.3c-0.6,0.8-1.3,1.6-2.2,2.1
				c-1,0.6-2.1,0-3.3,0.1c-0.8,0-1.5,0.2-2.2,0.6c-0.6,0.3-1,0.4-1.5,0c-0.4-0.4-0.8-1-1.2-1.4C86.2,89.6,85.6,90,85.9,90.3
				L85.9,90.3z"/>
		</g>
	</g>
	<g>
		<g>
			<path d="M89.8,91.7c0.1,1,0.1,1.9,0,2.9c-0.1,0.9-0.4,1.8-0.3,2.7c0.1,1.1,1.1,1.2,2,0.8c0.6-0.3,1.3-0.8,1.7-1.3
				c0.3-0.4,0.3-1,0.3-1.5c0-0.9,0-1.9,0-2.8c0-0.5,0.1-1-0.4-1.3c-0.4-0.2-0.7,0.4-0.4,0.6c0.1,0.1,0,1.2,0,1.3c0,0.5,0,0.9,0,1.4
				c0,0.4,0.1,1-0.1,1.4c-0.2,0.5-1,1.2-1.5,1.3c-0.4,0.1-0.9-0.4-1-0.7c0-0.2,0.1-0.4,0.1-0.6c0.1-0.4,0.1-0.9,0.1-1.3
				c0.1-1,0.1-2,0-3C90.5,91.3,89.7,91.3,89.8,91.7L89.8,91.7z"/>
		</g>
	</g>
	<g>
		<g>
			<path d="M88.8,79.8c0,2.2,0.1,4.5,0.4,6.7c0.1,0.5,0.8,0.5,0.7,0c-0.2-2.2-0.4-4.5-0.4-6.7C89.6,79.4,88.8,79.4,88.8,79.8
				L88.8,79.8z"/>
		</g>
	</g>
	<g>
		<g>
			<path d="M91.6,79.4c0.1,2.2,0.3,4.5,0.4,6.7c0,0.5,0.7,0.5,0.7,0c-0.1-2.2-0.3-4.5-0.4-6.7C92.3,79,91.6,79,91.6,79.4L91.6,79.4z
				"/>
		</g>
	</g>
	<g>
		<g>
			<path d="M90.9,96.5C90.9,96.5,90.9,96.5,90.9,96.5c0.2,0.2,0.5,0.2,0.6,0.1c0.1-0.1,0.1-0.4,0-0.5c0,0-0.1-0.1-0.1-0.1
				c-0.1-0.1-0.4-0.1-0.5,0C90.8,96.1,90.8,96.3,90.9,96.5L90.9,96.5z"/>
		</g>
	</g>
	<g>
		<g>
			<path d="M91.3,94.6c0.5,0,0.5-0.7,0-0.7C90.8,93.9,90.8,94.6,91.3,94.6L91.3,94.6z"/>
		</g>
	</g>
	<g>
		<g>
			<path d="M91.4,92.4c0.5,0,0.5-0.7,0-0.7C90.9,91.7,90.9,92.4,91.4,92.4L91.4,92.4z"/>
		</g>
	</g>
	<g>
		<g>
			<path d="M90.4,85.7C90.4,85.8,90.4,85.8,90.4,85.7c0,0.3,0.2,0.4,0.4,0.4c0.2,0,0.4-0.2,0.4-0.4c0,0,0-0.1,0-0.1
				c0-0.2-0.2-0.4-0.4-0.4C90.6,85.4,90.4,85.5,90.4,85.7L90.4,85.7z"/>
		</g>
	</g>
	<g>
		<g>
			<path d="M90.6,84.5c0.5,0,0.5-0.7,0-0.7C90.2,83.7,90.2,84.5,90.6,84.5L90.6,84.5z"/>
		</g>
	</g>
	<g>
		<g>
			<path d="M90.2,97.8c0.3,6.9,0.9,13.9,1.6,20.8c0.1,0.5,0.8,0.5,0.7,0c-0.8-6.9-1.3-13.8-1.6-20.8C90.9,97.4,90.1,97.4,90.2,97.8
				L90.2,97.8z"/>
		</g>
	</g>
	<g>
		<g>
			<path d="M92.8,96.3c0.5,7.7,1.4,15.3,2.6,22.9c0.1,0.5,0.8,0.3,0.7-0.2c-1.2-7.5-2.1-15.1-2.6-22.7
				C93.5,95.8,92.8,95.8,92.8,96.3L92.8,96.3z"/>
		</g>
	</g>
	<g>
		<g>
			<path d="M80.9,83.4c-0.5,1.5-0.8,3.1-1.1,4.6c-0.1,0.7-0.2,1.5-0.3,2.2c0,0.3-0.1,0.6,0.1,0.8c0.1,0.2,0.4,0.1,0.5,0c0,0,0,0,0,0
				c0.1-0.1,0.2-0.4,0-0.5l0,0c-0.3-0.3-0.8,0.2-0.5,0.5l0,0c0-0.2,0-0.3,0-0.5c0,0,0,0,0,0c0.2,0,0.3,0,0.5,0
				c0.2,0.2,0.1-0.5,0.2-0.7c0-0.3,0.1-0.6,0.1-0.9c0.1-0.6,0.2-1.2,0.3-1.8c0.2-1.2,0.6-2.4,0.9-3.6C81.8,83.1,81.1,82.9,80.9,83.4
				L80.9,83.4z"/>
		</g>
	</g>
	<g>
		<g>
			<path d="M86,83.5c-0.7,2.8-1.3,5.6-1.9,8.4c-0.1,0.5,0.6,0.7,0.7,0.2c0.6-2.8,1.2-5.6,1.9-8.4C86.8,83.2,86.1,83.1,86,83.5
				L86,83.5z"/>
		</g>
	</g>
	<g>
		<g>
			<path d="M81.2,83.7c1.6,0.1,3.1,0.2,4.7,0.3c0.5,0,0.5-0.7,0-0.7c-1.6-0.1-3.1-0.2-4.7-0.3C80.7,83,80.7,83.7,81.2,83.7
				L81.2,83.7z"/>
		</g>
	</g>
	<g>
		<g>
			<path d="M79.5,91.1c0.2,0.6,0.9,0.5,1.4,0.6c0.9,0.2,1.8,0.4,2.7,0.5c0.5,0.1,0.7-0.6,0.2-0.7c-0.6-0.1-1.2-0.2-1.9-0.4
				c-0.1,0-1.8-0.3-1.8-0.3C80,90.5,79.4,90.6,79.5,91.1L79.5,91.1z"/>
		</g>
	</g>
	<g>
		<g>
			<path d="M84,92.3c0.5,0,0.5-0.7,0-0.7C83.5,91.6,83.5,92.3,84,92.3L84,92.3z"/>
		</g>
	</g>
	<g>
		<g>
			<path d="M83,91c0.1-0.7,0.1-1.5,0.2-2.2c0-0.2,0.1-1.6,0.3-1.6c0.1,0,0.1,1.1,0,1.2c0,0.3-0.1,0.6-0.2,0.9
				c-0.1,0.7-0.3,1.5-0.4,2.2c-0.1,0.5,0.6,0.7,0.7,0.2c0.3-1.3,0.5-2.7,0.7-4c0.1-0.7,0-1.1-0.8-1.2c-0.7-0.1-0.8,0.4-0.9,0.9
				c-0.3,1.2-0.4,2.4-0.5,3.7C82.2,91.4,82.9,91.4,83,91L83,91z"/>
		</g>
	</g>
	<g>
		<g>
			<path d="M81.3,90.7c0.1-0.5,0.2-1.1,0.3-1.6c0.1-0.2,0.1-0.5,0.2-0.7c0,0,0.1-0.7,0.2-0.7c-0.1,0.1,0,0.6,0,0.7
				c0,0.3-0.1,0.6-0.1,0.9c-0.1,0.6-0.3,1.2-0.5,1.7c-0.2,0.4,0.5,0.6,0.7,0.2c0.3-0.9,0.5-1.8,0.6-2.7c0.1-0.5,0.2-1.5-0.4-1.8
				c-0.5-0.2-0.8,0.2-0.9,0.6c-0.4,1-0.6,2-0.7,3C80.6,91,81.3,91.2,81.3,90.7L81.3,90.7z"/>
		</g>
	</g>
	<g>
		<g>
			<path d="M81.2,91.4c0-0.2,0.1-0.5,0.1-0.7c0-0.2-0.1-0.4-0.2-0.4c-0.2,0-0.4,0.1-0.4,0.2c0,0.2-0.1,0.5-0.1,0.7
				c0,0.2,0.1,0.4,0.2,0.4C80.9,91.7,81.1,91.6,81.2,91.4L81.2,91.4z"/>
		</g>
	</g>
	<g>
		<g>
			<path d="M82.9,91.4c0-0.1,0-0.2,0-0.4c0-0.2-0.2-0.4-0.4-0.4c-0.2,0-0.4,0.2-0.4,0.4c0,0.1,0,0.2,0,0.4c0,0.2,0.2,0.4,0.4,0.4
				C82.7,91.8,82.9,91.6,82.9,91.4L82.9,91.4z"/>
		</g>
	</g>
	<g>
		<g>
			<path d="M82.6,91.3c0.2,0,0.4,0.1,0.7,0.1c0.2,0,0.4,0,0.4-0.2c0-0.2-0.1-0.4-0.2-0.4c-0.2,0-0.4-0.1-0.7-0.1
				c-0.2,0-0.4,0-0.4,0.2C82.3,91,82.4,91.2,82.6,91.3L82.6,91.3z"/>
		</g>
	</g>
	<g>
		<g>
			<path d="M81.1,90.9c0.3,0,0.6,0,0.9,0c0.5,0,0.5-0.7,0-0.7c-0.3,0-0.6,0-0.9,0C80.6,90.2,80.6,90.9,81.1,90.9L81.1,90.9z"/>
		</g>
	</g>
	<g>
		<g>
			<path d="M81.6,89.2c0.2-0.1,0.3-0.1,0.4-0.1c0.2,0,0.4-0.1,0.4-0.2c0-0.2-0.1-0.4-0.2-0.4c-0.3,0-0.5,0-0.8,0.1
				c-0.2,0.1-0.3,0.2-0.2,0.4C81.2,89.2,81.4,89.3,81.6,89.2L81.6,89.2z"/>
		</g>
	</g>
	<g>
		<g>
			<path d="M82.9,89.4c0.2,0,0.4,0.1,0.7,0.1c0.2,0,0.4,0,0.4-0.2c0-0.2-0.1-0.4-0.2-0.4c-0.2,0-0.4-0.1-0.7-0.1
				c-0.2,0-0.4,0-0.4,0.2C82.6,89.1,82.7,89.4,82.9,89.4L82.9,89.4z"/>
		</g>
	</g>
	<g>
		<g>
			<path d="M82.1,86.8c-0.2-0.2,0.3-0.6,0.4-0.7c0.2-0.2,0.4-0.4,0.5-0.7c-0.2,0-0.5-0.1-0.7-0.1c0,0.4,0.1,0.7,0.1,1
				c0.1,0.2,0.1,0.6-0.2,0.7c-0.5,0.1-0.3,0.8,0.2,0.7c0.4-0.1,0.7-0.4,0.7-0.8c0.1-0.6-0.2-1.1-0.2-1.6c0-0.4-0.6-0.5-0.7-0.1
				c-0.1,0.4-0.7,0.6-0.8,1c-0.2,0.4-0.2,0.8,0.1,1.1C82,87.6,82.5,87.1,82.1,86.8L82.1,86.8z"/>
		</g>
	</g>
	<g>
		<g>
			<path d="M83.6,86.3c-0.2-0.2,0.4-0.5,0.5-0.6c0.2-0.2,0.4-0.3,0.6-0.5c-0.2-0.1-0.4-0.2-0.7-0.3c-0.1,0.3,0,0.6,0.1,1
				c0,0.2,0.1,0.7-0.2,0.7c-0.5,0-0.5,0.7,0,0.7c0.4,0,0.7-0.3,0.8-0.7c0.2-0.5-0.1-1,0-1.5c0.1-0.4-0.4-0.6-0.7-0.3
				c-0.3,0.4-0.9,0.5-1.1,1.1c-0.2,0.4,0,0.8,0.3,1C83.6,87.1,84,86.5,83.6,86.3L83.6,86.3z"/>
		</g>
	</g>
	<g>
		<g>
			<path d="M80.1,89.3c0.4,0,0.8,0.1,1.3,0.1c0.5,0,0.5-0.7,0-0.7c-0.4,0-0.8-0.1-1.3-0.1C79.7,88.5,79.7,89.2,80.1,89.3L80.1,89.3z
				"/>
		</g>
	</g>
	<g>
		<g>
			<path d="M84,89.8c0.2,0,0.4,0,0.6,0.1c0.2,0.1,0.4-0.1,0.4-0.2c0.1-0.2-0.1-0.4-0.2-0.4c-0.2-0.1-0.5-0.1-0.7-0.1
				c-0.2,0-0.4,0.2-0.4,0.4C83.6,89.6,83.8,89.7,84,89.8L84,89.8z"/>
		</g>
	</g>
	<g>
		<g>
			<path d="M80.4,90.1c0.5,0,0.5-0.7,0-0.7C80,89.4,80,90.1,80.4,90.1L80.4,90.1z"/>
		</g>
	</g>
	<g>
		<g>
			<path d="M80,90.5C80,90.5,80,90.6,80,90.5c0,0.3,0.2,0.4,0.4,0.4c0.2,0,0.4-0.2,0.4-0.4c0,0,0-0.1,0-0.1c0-0.2-0.2-0.4-0.4-0.4
				C80.2,90.2,80,90.3,80,90.5L80,90.5z"/>
		</g>
	</g>
	<g>
		<g>
			<path d="M84.1,90.5c0.5,0,0.5-0.7,0-0.7C83.7,89.8,83.7,90.5,84.1,90.5L84.1,90.5z"/>
		</g>
	</g>
	<g>
		<g>
			<path d="M84,91.4c0.5,0,0.5-0.7,0-0.7C83.5,90.7,83.5,91.4,84,91.4L84,91.4z"/>
		</g>
	</g>
	<g>
		<g>
			<path d="M97.4,91.7c0.5,3.6,1.2,7.2,2.3,10.7c0.1,0.4,0.8,0.2,0.7-0.2c-1-3.5-1.8-7.1-2.3-10.7C98,91.1,97.3,91.3,97.4,91.7
				L97.4,91.7z"/>
		</g>
	</g>
	<g>
		<g>
			<path d="M97.9,91.8c1.2-0.3,2.3-0.7,3.5-1.1c0.1,0,1-0.4,1.1-0.3c0.1,0,0.1,0.6,0.1,0.7c0.1,0.7,0.3,1.3,0.4,2
				c0.5,2.5,1,5,1.5,7.6c0.1,0.5,0.8,0.3,0.7-0.2c-0.6-3.1-1.2-6.1-1.9-9.2c-0.2-0.8-0.1-1.7-1.1-1.6c-0.7,0.1-1.5,0.4-2.1,0.6
				c-0.8,0.2-1.6,0.5-2.5,0.7C97.3,91.2,97.4,91.9,97.9,91.8L97.9,91.8z"/>
		</g>
	</g>
	<g>
		<g>
			<path d="M100,102.5c1.6-0.4,3.2-0.9,4.8-1.4c0.4-0.2,0.2-0.8-0.2-0.7c-1.6,0.5-3.2,1-4.8,1.4C99.4,101.9,99.6,102.6,100,102.5
				L100,102.5z"/>
		</g>
	</g>
	<g>
		<g>
			<path d="M100.7,99.6c0.4-2.7,1.1-5.4-0.1-8.1c-0.2-0.4-0.7-0.1-0.7,0.3c0.6,2.6,1.6,4.9,2.8,7.3c0-0.2,0.1-0.3,0.1-0.5
				c0,0,0,0-0.1,0c0.2,0,0.3,0.1,0.5,0.1c0,0,0,0,0,0c-0.2-0.4-0.8-0.1-0.6,0.4c0,0,0,0,0,0c0.1,0.2,0.3,0.2,0.5,0.1c0,0,0,0,0.1,0
				c0.2-0.1,0.2-0.3,0.1-0.5c-1.2-2.3-2.2-4.6-2.8-7.2c-0.2,0.1-0.4,0.2-0.7,0.3c1,2.4,0.3,5,0,7.5C99.9,99.8,100.6,100,100.7,99.6
				L100.7,99.6z"/>
		</g>
	</g>
	<g>
		<g>
			<path d="M100.8,98c0.5-0.2,1-0.3,1.5-0.3c0.5,0,0.5-0.8,0-0.7c-0.6,0.1-1.2,0.2-1.7,0.4C100.2,97.5,100.3,98.2,100.8,98L100.8,98
				z"/>
		</g>
	</g>
	<g>
		<g>
			<path d="M100.9,99.3c0-0.9,1.3-1.2,1.7-0.3c0.2,0.4,0.9,0.2,0.7-0.2c-0.3-0.7-1-1.2-1.7-1.1c-0.8,0.1-1.3,0.8-1.4,1.6
				C100.2,99.8,100.9,99.8,100.9,99.3L100.9,99.3z"/>
		</g>
	</g>
	<g>
		<g>
			<path d="M101.3,97.3c0.1-0.7,0.2-1.5,0.2-2.3c-0.2,0-0.5,0.1-0.7,0.1c0.3,0.8,0.6,1.6,0.9,2.4c0.2,0.4,0.8,0.1,0.6-0.4
				c-0.3-0.7-0.6-1.5-0.8-2.2c-0.1-0.4-0.7-0.3-0.7,0.1c-0.1,0.7-0.2,1.5-0.2,2.3C100.5,97.8,101.2,97.8,101.3,97.3L101.3,97.3z"/>
		</g>
	</g>
	<g>
		<g>
			<path d="M100.1,100.2c0.4,0,0.8-0.2,1.2-0.3c0.4-0.2,0-0.9-0.4-0.6c-0.2,0.1-0.5,0.2-0.8,0.2c-0.2,0-0.4,0.2-0.4,0.4
				C99.7,100,99.9,100.2,100.1,100.2L100.1,100.2z"/>
		</g>
	</g>
	<g>
		<g>
			<path d="M102.9,99.8c0.2-0.1,0.5-0.2,0.7-0.2c0.2-0.1,0.3-0.2,0.2-0.4c-0.1-0.2-0.2-0.3-0.4-0.2c-0.2,0.1-0.5,0.2-0.7,0.2
				c-0.2,0.1-0.3,0.2-0.2,0.4C102.5,99.7,102.7,99.8,102.9,99.8L102.9,99.8z"/>
		</g>
	</g>
	<g>
		<g>
			<path d="M72.1,100c1.4,2.4,2.5,5,3.5,7.6c0.2,0.4,0.9,0.2,0.7-0.2c-1-2.7-2.2-5.3-3.6-7.8C72.5,99.2,71.8,99.6,72.1,100L72.1,100
				z"/>
		</g>
	</g>
	<g>
		<g>
			<path d="M76.1,107.9c3.8-1.5,7.5-3.2,11-5.1c0.4-0.2,0-0.8-0.4-0.6c-3.5,1.9-7.1,3.5-10.9,5C75.5,107.4,75.6,108.1,76.1,107.9
				L76.1,107.9z"/>
		</g>
	</g>
	<g>
		<g>
			<path d="M72.6,100c3.6-1.8,7.2-3.4,11.1-4.6c0.4-0.1,0.2-0.8-0.2-0.7c-3.9,1.2-7.6,2.8-11.2,4.6C71.8,99.6,72.2,100.2,72.6,100
				L72.6,100z"/>
		</g>
	</g>
	<g>
		<g>
			<path d="M83.3,95.1c1,2.5,1.9,5.3,3.5,7.4c0.3,0.4,0.8-0.2,0.5-0.5c-1.6-2.1-2.4-4.7-3.4-7.1C83.8,94.5,83.1,94.7,83.3,95.1
				L83.3,95.1z"/>
		</g>
	</g>
	<g>
		<g>
			<path d="M61.9,103.2c0.4,2.4,0.6,4.8,0.7,7.2c0,0.5,0.7,0.5,0.7,0c-0.1-2.5-0.4-5-0.7-7.4C62.6,102.5,61.9,102.7,61.9,103.2
				L61.9,103.2z"/>
		</g>
	</g>
	<g>
		<g>
			<path d="M65.9,101.9c0.5,2.8,1,5.7,1.6,8.5c0.1,0.5,0.8,0.3,0.7-0.2c-0.6-2.8-1.2-5.7-1.6-8.5C66.5,101.2,65.8,101.4,65.9,101.9
				L65.9,101.9z"/>
		</g>
	</g>
	<g>
		<g>
			<path d="M62.3,103.3c1.3-0.4,2.7-0.8,4-1.2c0.4-0.1,0.2-0.8-0.2-0.7c-1.3,0.4-2.7,0.8-4,1.2C61.6,102.7,61.8,103.4,62.3,103.3
				L62.3,103.3z"/>
		</g>
	</g>
	<g>
		<g>
			<path d="M63.1,110.8c1.5-0.3,3-0.4,4.5-0.3c0.5,0,0.5-0.7,0-0.7c-1.6-0.1-3.1,0-4.7,0.3C62.4,110.3,62.6,110.9,63.1,110.8
				L63.1,110.8z"/>
		</g>
	</g>
	<g>
		<g>
			<path d="M83.4,107c-0.1,1.6-0.5,3.2-1,4.8c-0.2,0.4,0.6,0.6,0.7,0.2c0.5-1.6,0.9-3.3,1-5C84.1,106.5,83.4,106.5,83.4,107
				L83.4,107z"/>
		</g>
	</g>
	<g>
		<g>
			<path d="M89.6,107.8c-0.5,1.7-0.9,3.5-1.1,5.3c-0.1,0.5,0.7,0.5,0.7,0c0.2-1.7,0.6-3.4,1.1-5.1C90.5,107.6,89.8,107.4,89.6,107.8
				L89.6,107.8z"/>
		</g>
	</g>
	<g>
		<g>
			<path d="M83.7,107.1c2.1,0.3,4.1,0.7,6.2,1c0.5,0.1,0.7-0.6,0.2-0.7c-2.1-0.3-4.1-0.7-6.2-1C83.4,106.3,83.2,107,83.7,107.1
				L83.7,107.1z"/>
		</g>
	</g>
	<g>
		<g>
			<path d="M82.5,112.4c2.1,0.4,4.2,0.8,6.2,1.2c0.5,0.1,0.7-0.6,0.2-0.7c-2.1-0.5-4.1-0.9-6.2-1.2C82.2,111.6,82,112.3,82.5,112.4
				L82.5,112.4z"/>
		</g>
	</g>
	<g>
		<g>
			<path d="M100.4,79.3c0-0.2,0.2-0.3,0.3-0.1c0,0.1,0,0.1,0,0.1c0,0-0.1,0-0.1,0C100.5,79.3,100.5,79.3,100.4,79.3
				c0-0.2-0.2-0.2-0.4-0.1c-0.2,0.1-0.2,0.3-0.1,0.5c0.2,0.3,0.7,0.5,1.1,0.3c0.4-0.2,0.5-0.7,0.3-1.1c-0.2-0.4-0.6-0.6-1.1-0.5
				c-0.4,0.2-0.7,0.6-0.6,1.1C99.8,79.9,100.5,79.7,100.4,79.3L100.4,79.3z"/>
		</g>
	</g>
	<g>
		<g>
			<path d="M102.2,81.2c-0.1-0.1-0.2-0.2-0.2-0.3c0-0.1,0.1-0.2,0.2-0.2c0.1,0,0.1,0.2,0.2,0.3c0,0.1,0,0.1,0,0.2
				C102.3,81.2,102.3,81.2,102.2,81.2c-0.3-0.2-0.7,0.4-0.3,0.6c0.5,0.3,1,0,1.1-0.5c0.1-0.4-0.1-1-0.5-1.2c-0.4-0.2-1,0-1.2,0.4
				c-0.2,0.5,0,1,0.4,1.3C102.2,82,102.6,81.4,102.2,81.2L102.2,81.2z"/>
		</g>
	</g>
	<g>
		<g>
			<path d="M103.9,82.3c-0.1,0,0-0.2,0.1-0.2c0.2,0.1,0,0.3-0.2,0.3c-0.2,0-0.4,0.2-0.4,0.4c0,0.2,0.2,0.3,0.4,0.4
				c0.4,0.1,0.9-0.3,1-0.7c0.1-0.4-0.2-0.9-0.6-1c-0.4-0.1-0.8,0-1,0.4c-0.2,0.4-0.1,0.8,0.3,1.1c0.2,0.1,0.4,0,0.5-0.1
				C104.1,82.6,104,82.4,103.9,82.3L103.9,82.3z"/>
		</g>
	</g>
	<g>
		<g>
			<path d="M105.7,80.9C105.7,80.8,105.7,80.8,105.7,80.9C105.6,80.9,105.7,80.8,105.7,80.9C105.7,80.8,105.7,80.8,105.7,80.9
				C105.7,80.8,105.7,80.8,105.7,80.9C105.7,80.8,105.7,80.8,105.7,80.9C105.7,80.8,105.7,80.8,105.7,80.9
				C105.7,80.8,105.7,80.8,105.7,80.9C105.7,80.8,105.7,80.8,105.7,80.9c0.1-0.1,0.1-0.1,0.1-0.1c0,0,0,0,0,0L105.7,80.9
				C105.7,80.8,105.7,80.8,105.7,80.9C105.7,80.8,105.7,80.8,105.7,80.9C105.7,80.8,105.7,80.8,105.7,80.9
				C105.7,80.9,105.7,80.9,105.7,80.9C105.7,80.8,105.7,80.9,105.7,80.9C105.7,80.8,105.7,80.8,105.7,80.9
				C105.7,80.9,105.7,80.9,105.7,80.9C105.7,80.9,105.7,80.9,105.7,80.9C105.7,80.9,105.7,80.9,105.7,80.9
				C105.7,80.9,105.7,80.9,105.7,80.9C105.7,80.9,105.7,80.9,105.7,80.9C105.7,80.8,105.7,80.8,105.7,80.9
				C105.7,80.9,105.7,80.8,105.7,80.9C105.7,80.9,105.6,80.8,105.7,80.9C105.6,80.8,105.7,80.8,105.7,80.9
				C105.7,80.8,105.7,80.8,105.7,80.9C105.7,80.8,105.7,80.8,105.7,80.9c0.1-0.2,0-0.4-0.2-0.6c-0.2-0.1-0.4-0.1-0.5,0.1
				c-0.1,0.2-0.1,0.5,0,0.7c0.1,0.2,0.3,0.3,0.5,0.4c0.4,0.1,0.8-0.2,0.9-0.6c0.1-0.4-0.2-0.9-0.7-0.9c-0.4,0-0.9,0.4-0.8,0.8
				c0,0.2,0.2,0.4,0.4,0.4C105.5,81.2,105.7,81.1,105.7,80.9L105.7,80.9z"/>
		</g>
	</g>
	<g>
		<g>
			<path d="M106.3,79.6c0,0-0.3-0.6-0.1-0.6c0.1,0,0.1,0.1,0,0.2c0,0.1-0.2,0.2-0.2,0.2c-0.4,0.1-0.2,0.8,0.2,0.7
				c0.4-0.1,0.7-0.4,0.8-0.7c0.1-0.4-0.2-0.8-0.5-1c-0.4-0.1-0.8,0.1-0.9,0.5c-0.2,0.4,0,0.8,0.2,1.2
				C105.9,80.3,106.5,80,106.3,79.6L106.3,79.6z"/>
		</g>
	</g>
	<g>
		<g>
			<path d="M111.7,80.8C111.8,80.9,111.7,80.8,111.7,80.8C111.7,80.8,111.7,80.7,111.7,80.8c0-0.1,0-0.2,0-0.1c0-0.1,0,0,0-0.1
				c0,0,0,0,0,0c0,0-0.1,0,0,0c0,0,0,0,0,0c0,0,0,0,0.1,0c0,0,0,0,0,0c0,0,0,0,0,0c0,0,0,0,0.1,0c0,0,0,0,0,0c0,0.1,0-0.1,0,0
				c0-0.1,0,0,0,0c0,0,0,0,0,0c0,0,0,0,0,0c-0.1,0,0,0,0,0c0,0,0,0,0,0C111.9,80.7,111.9,80.7,111.7,80.8c0.1-0.1,0.1-0.1,0.1-0.1
				c-0.2-0.1-0.4,0-0.5,0.1c-0.1,0.2,0,0.4,0.1,0.5c0.4,0.2,0.8,0,1-0.3c0.2-0.4,0-0.8-0.3-1c-0.4-0.2-0.8-0.1-1,0.2
				c-0.2,0.3-0.2,0.8,0.1,1.1c0.1,0.2,0.4,0.1,0.5,0C111.9,81.2,111.8,81,111.7,80.8L111.7,80.8z"/>
		</g>
	</g>
	<g>
		<g>
			<path d="M113.2,83.8c-0.1-0.1-0.2-0.2-0.2-0.3c0,0,0-0.1,0-0.1c0-0.1,0.1,0,0,0c-0.1-0.1,0,0.1,0,0.2c0,0,0,0.1,0,0.2l0.1,0
				c-0.2-0.1-0.4,0-0.5,0.1c-0.1,0.2,0,0.4,0.1,0.5c0.3,0.2,0.8,0,0.9-0.4c0.1-0.4-0.1-0.9-0.4-1.1c-0.4-0.2-0.8,0-1,0.4
				c-0.2,0.4,0.1,0.9,0.3,1.2c0.1,0.2,0.4,0.1,0.5,0C113.4,84.1,113.3,83.9,113.2,83.8L113.2,83.8z"/>
		</g>
	</g>
	<g>
		<g>
			<path d="M61.7,89.9c-0.1,0-0.2-0.1-0.2-0.2c0,0,0-0.1,0-0.1c0,0,0,0,0,0c0,0,0,0,0,0l0,0c0,0,0,0,0,0c0,0,0,0,0,0c0,0,0,0,0,0
				c-0.1,0,0.1,0,0,0c-0.1,0,0.1,0,0,0l0,0c0,0,0,0,0,0c0,0,0,0,0,0c0,0,0,0,0,0c0-0.1,0,0.1,0,0c0,0-0.1,0.1,0,0.1c0,0-0.1,0.1,0,0
				c0,0-0.1,0,0,0c-0.2,0-0.4,0.2-0.4,0.4c0,0.2,0.2,0.4,0.4,0.4c0.4-0.1,0.7-0.3,0.8-0.7c0.1-0.4-0.2-0.8-0.6-0.9
				c-0.4-0.1-0.8,0.1-0.9,0.5c-0.1,0.5,0.2,0.9,0.6,1.1C61.7,90.8,62.1,90.1,61.7,89.9L61.7,89.9z"/>
		</g>
	</g>
	<g>
		<g>
			<path d="M62.3,88.5C62.3,88.5,62.3,88.4,62.3,88.5C62.3,88.4,62.3,88.4,62.3,88.5C62.3,88.5,62.2,88.4,62.3,88.5
				C62.3,88.5,62.2,88.3,62.3,88.5c-0.1,0-0.1-0.2-0.1-0.1c0,0,0,0,0,0c0,0,0,0,0,0c0,0,0,0,0,0c0,0,0,0,0,0c0,0,0,0,0,0
				c0,0,0,0,0.1,0c0,0,0,0,0,0c0,0,0,0,0.1,0c0,0,0,0,0,0s0,0,0,0C62.3,88.3,62.3,88.3,62.3,88.5C62.3,88.3,62.3,88.3,62.3,88.5
				C62.3,88.3,62.3,88.3,62.3,88.5C62.3,88.3,62.3,88.4,62.3,88.5C62.3,88.4,62.3,88.4,62.3,88.5C62.2,88.5,62.3,88.4,62.3,88.5
				C62.3,88.5,62.2,88.5,62.3,88.5c-0.3-0.1-0.5,0.1-0.5,0.2c-0.1,0.2,0.1,0.4,0.2,0.4c0.4,0.1,0.9-0.1,1-0.6c0.1-0.4-0.1-0.8-0.6-1
				c-0.4-0.1-0.8,0.1-1,0.5c-0.1,0.4,0,0.8,0.4,1c0.2,0.1,0.4,0.1,0.5-0.1C62.5,88.8,62.5,88.5,62.3,88.5L62.3,88.5z"/>
		</g>
	</g>
	<g>
		<g>
			<path d="M63.3,87c-0.1,0-0.2,0-0.2-0.1c0,0,0-0.1,0.1-0.1c0,0,0.1,0,0.1,0c0,0-0.1,0,0,0c-0.2-0.1-0.4,0-0.5,0.1
				c-0.1,0.2,0,0.4,0.1,0.5c0.4,0.2,0.9,0,1.1-0.4c0.2-0.5-0.2-1-0.7-1c-0.5,0-0.8,0.4-0.8,0.9c0,0.5,0.5,0.8,1,0.8
				c0.2,0,0.4-0.2,0.4-0.4C63.7,87.2,63.6,87,63.3,87L63.3,87z"/>
		</g>
	</g>
	<g>
		<g>
			<path d="M61.7,113.9C61.7,113.8,61.7,113.8,61.7,113.9C61.7,113.9,61.7,113.8,61.7,113.9C61.7,113.9,61.7,113.9,61.7,113.9
				C61.7,113.8,61.7,113.8,61.7,113.9C61.7,113.8,61.7,113.8,61.7,113.9C61.7,113.9,61.7,113.8,61.7,113.9
				C61.7,113.9,61.7,113.9,61.7,113.9C61.7,113.8,61.7,113.8,61.7,113.9C61.6,113.9,61.6,113.9,61.7,113.9
				C61.7,113.9,61.6,113.9,61.7,113.9C61.7,113.9,61.7,113.8,61.7,113.9C61.7,113.9,61.7,113.9,61.7,113.9
				C61.6,113.9,61.6,113.9,61.7,113.9C61.7,113.9,61.7,113.9,61.7,113.9C61.7,113.9,61.7,113.9,61.7,113.9
				C61.7,113.9,61.7,113.9,61.7,113.9C61.7,113.8,61.7,113.8,61.7,113.9C61.7,113.8,61.7,113.8,61.7,113.9
				C61.7,113.9,61.7,113.9,61.7,113.9C61.7,113.9,61.7,113.9,61.7,113.9C61.7,113.9,61.7,113.9,61.7,113.9
				C61.7,113.9,61.7,113.9,61.7,113.9C61.7,113.9,61.6,114,61.7,113.9c0,0.1,0,0.1,0,0.1C61.7,114,61.7,114,61.7,113.9
				C61.6,114,61.6,114,61.7,113.9C61.6,114,61.6,114,61.7,113.9C61.7,114,61.7,114,61.7,113.9C61.7,114,61.7,114,61.7,113.9
				C61.6,114,61.6,114,61.7,113.9c0,0.1,0,0.1,0.1,0.1c-0.1-0.2-0.3-0.2-0.5-0.1c-0.2,0.1-0.2,0.3-0.1,0.5c0.2,0.4,0.7,0.4,1,0.1
				c0.3-0.3,0.3-0.7,0.1-1.1c-0.2-0.3-0.7-0.4-1.1-0.1c-0.3,0.3-0.3,0.8,0,1c0.2,0.1,0.4,0.2,0.5,0C61.8,114.2,61.8,114,61.7,113.9
				L61.7,113.9z"/>
		</g>
	</g>
	<g>
		<g>
			<path d="M61.2,112.3c0,0-0.1-0.1-0.1-0.1c-0.2-0.2-0.6-0.1-0.6,0.2c-0.1,0.7,0.9,0.9,1.2,0.3c0.1-0.3,0.1-0.7-0.1-0.9
				c-0.2-0.3-0.5-0.5-0.8-0.3c-0.2,0.1-0.2,0.3-0.1,0.5c0.1,0.2,0.3,0.2,0.5,0.1c0.3-0.3-0.2,0-0.2,0c0,0,0,0.1,0,0.1
				c0,0,0,0.2,0,0.2c0,0,0,0,0,0c0,0,0.1,0,0,0c0.1,0,0.1,0.1,0.1,0.2c-0.2,0.1-0.4,0.1-0.6,0.2c0,0,0.1,0.1,0.1,0.1
				C61.1,113.1,61.6,112.6,61.2,112.3L61.2,112.3z"/>
		</g>
	</g>
	<g>
		<g>
			<path d="M62.5,114.7c0,0,0.1,0.1,0.1,0.2c0,0,0,0.1-0.1,0.1c0,0,0,0,0,0l0.1,0c0.1,0,0.1,0.1,0.2,0.2c0,0.2,0.3,0.3,0.4,0.2
				c0.2-0.1,0.3-0.2,0.2-0.4c-0.1-0.5-0.6-0.8-1.1-0.7c-0.5,0.1-0.7,0.8-0.2,1.1c0.2,0.1,0.4,0,0.5-0.1
				C62.8,115,62.7,114.8,62.5,114.7L62.5,114.7z"/>
		</g>
	</g>
	<g>
		<g>
			<path d="M107.2,120.5C107.2,120.5,107.2,120.5,107.2,120.5C107.2,120.5,107.2,120.4,107.2,120.5
				C107.2,120.4,107.2,120.4,107.2,120.5C107.3,120.4,107.2,120.4,107.2,120.5C107.3,120.4,107.2,120.4,107.2,120.5
				C107.2,120.4,107.3,120.5,107.2,120.5C107.2,120.4,107.2,120.4,107.2,120.5C107.2,120.5,107.2,120.4,107.2,120.5
				c0,0.2,0.2,0.4,0.4,0.4c0.2,0,0.3-0.2,0.4-0.4c0-0.3-0.2-0.7-0.5-0.7c-0.3-0.1-0.7,0.1-0.8,0.3
				C106.4,120.5,107,120.8,107.2,120.5L107.2,120.5z"/>
		</g>
	</g>
	<g>
		<g>
			<path d="M107.8,119.6c0-0.1,0-0.2,0-0.3c0,0,0,0,0.1,0c0,0-0.1,0,0,0c0,0,0,0,0,0c0,0,0,0,0,0c0,0,0,0,0,0c0,0,0,0,0,0s0,0,0,0
				c0,0,0,0.1,0,0c0,0,0,0,0-0.1c0,0,0,0,0,0s0,0,0,0c0,0,0,0,0,0c0,0,0,0,0,0c0,0,0,0,0.1,0.1c-0.1-0.2-0.3-0.2-0.5-0.1
				c-0.2,0.1-0.2,0.3-0.1,0.5c0.2,0.3,0.6,0.4,0.9,0.2c0.3-0.2,0.4-0.6,0.2-0.9c-0.2-0.3-0.6-0.4-0.9-0.2c-0.3,0.2-0.4,0.6-0.4,1
				c0,0.2,0.2,0.4,0.4,0.4C107.7,120,107.9,119.8,107.8,119.6L107.8,119.6z"/>
		</g>
	</g>
	<g>
		<g>
			<path d="M108.7,117.8C108.6,117.8,108.8,117.8,108.7,117.8C108.7,117.8,108.7,117.8,108.7,117.8
				C108.7,117.8,108.7,117.8,108.7,117.8C108.7,117.8,108.7,117.8,108.7,117.8C108.7,117.8,108.7,117.8,108.7,117.8
				C108.7,117.8,108.7,117.8,108.7,117.8C108.7,117.8,108.7,117.8,108.7,117.8S108.7,117.8,108.7,117.8
				C108.7,117.8,108.7,117.8,108.7,117.8C108.7,117.8,108.7,117.9,108.7,117.8C108.7,117.8,108.7,117.8,108.7,117.8
				C108.7,117.8,108.7,117.8,108.7,117.8C108.7,117.8,108.7,117.8,108.7,117.8C108.7,117.8,108.7,117.9,108.7,117.8
				C108.7,117.9,108.6,117.8,108.7,117.8C108.6,117.8,108.6,117.8,108.7,117.8C108.6,117.8,108.6,117.8,108.7,117.8
				C108.6,117.9,108.6,117.7,108.7,117.8C108.6,117.7,108.6,117.8,108.7,117.8C108.6,117.7,108.6,117.8,108.7,117.8
				C108.6,117.8,108.6,117.7,108.7,117.8C108.6,117.8,108.6,117.8,108.7,117.8C108.6,117.8,108.6,117.8,108.7,117.8
				C108.6,117.7,108.6,117.7,108.7,117.8c-0.3,0.1-0.3,0.3-0.2,0.5c0.1,0.2,0.3,0.2,0.5,0.1c0.3-0.2,0.4-0.5,0.3-0.8
				c-0.1-0.3-0.4-0.5-0.7-0.5c-0.3,0-0.6,0.3-0.7,0.7c0,0.3,0.2,0.6,0.5,0.7c0.2,0,0.4-0.1,0.4-0.2
				C109,118.1,108.9,117.8,108.7,117.8L108.7,117.8z"/>
		</g>
	</g>
	<g>
		<g>
			<path d="M110.2,118.5C110.1,118.4,110.3,118.5,110.2,118.5C110.3,118.5,110.3,118.6,110.2,118.5c0,0.1,0,0.1,0,0.2c0-0.1,0,0,0,0
				l0,0l0,0c0,0,0,0-0.1,0c0,0,0,0,0,0c0,0,0-0.1,0,0c0,0,0.1,0.1,0,0.1c0.1,0,0.2-0.1,0.2,0.1c-0.1-0.2-0.2-0.3-0.4-0.2
				c-0.2,0.1-0.3,0.2-0.2,0.4c0.1,0.4,0.7,0.6,1,0.3c0.3-0.3,0.3-0.8,0-1.1c-0.3-0.3-0.8-0.3-1,0c-0.2,0.3-0.2,0.7,0.2,0.9
				c0.2,0.1,0.4,0.1,0.5-0.1C110.4,118.8,110.4,118.6,110.2,118.5L110.2,118.5z"/>
		</g>
	</g>
	<g>
		<g>
			<path d="M117.2,115.9C117.2,115.9,117.3,115.9,117.2,115.9C117.2,115.9,117.2,115.9,117.2,115.9
				C117.2,115.8,117.3,116,117.2,115.9C117.2,116,117.2,116,117.2,115.9L117.2,115.9C117.2,116,117.2,115.9,117.2,115.9
				C117.2,115.9,117.2,116,117.2,115.9C117.2,115.9,117.2,115.9,117.2,115.9c0.1,0.1,0,0.1,0,0.1c0.1,0-0.1,0,0,0c-0.1,0-0.1,0,0,0
				C117.1,116,117.1,116,117.2,115.9C117.2,116,117.1,115.9,117.2,115.9C117.2,116,117.2,116,117.2,115.9
				C117.1,116,117.1,116,117.2,115.9C117.1,115.9,117.1,115.9,117.2,115.9C117.1,115.9,117.1,115.9,117.2,115.9
				C117.1,115.9,117.1,115.9,117.2,115.9C117.1,115.9,117.1,115.8,117.2,115.9C117.1,115.9,117.1,115.9,117.2,115.9
				C117.2,115.9,117.1,115.9,117.2,115.9C117.1,115.9,117.1,115.9,117.2,115.9C117.1,115.9,117.1,115.9,117.2,115.9
				C117.2,115.9,117.1,115.9,117.2,115.9C117.2,115.9,117.2,115.9,117.2,115.9C117.2,115.9,117.2,115.9,117.2,115.9
				c-0.2-0.1-0.4,0-0.5,0.2c-0.1,0.2-0.1,0.4,0.1,0.5c0.2,0.1,0.3,0.1,0.5,0c0.2-0.1,0.3-0.2,0.4-0.3c0.2-0.3,0.1-0.7-0.3-0.9
				c-0.3-0.2-0.7-0.1-0.9,0.2c-0.2,0.3-0.1,0.7,0.2,0.9c0.2,0.1,0.4,0,0.5-0.1C117.4,116.2,117.4,116,117.2,115.9L117.2,115.9z"/>
		</g>
	</g>
	<g>
		<g>
			<path d="M108.1,78.9c0,0.1,0,0.1,0,0.2c0,0,0,0.1,0,0.1c0,0,0-0.1,0-0.1c0,0.1,0-0.1,0.1-0.2c0,0,0.1-0.1,0.1-0.1l0,0
				c0.1,0,0.2,0,0.4,0c0,0,0.2,0.2,0.1,0.1c0,0,0-0.1,0,0c-0.1-0.2-0.2-0.3-0.4-0.2c-0.2,0.1-0.3,0.2-0.2,0.4
				c0.1,0.1,0.1,0.2,0.2,0.3c0.2,0.1,0.6,0,0.5-0.3c0-0.1,0-0.3-0.1-0.4c0-0.2-0.3-0.3-0.4-0.2C108.1,78.6,108.1,78.8,108.1,78.9
				L108.1,78.9z"/>
		</g>
	</g>
	<g>
		<g>
			<path d="M87.9,80c-0.2-0.4,0-1.1,0.5-1.1c0.5-0.1,0.9,0.6,0.7,1.1c-0.2,0.4,0.4,0.8,0.6,0.4c0.5-0.9-0.2-2.2-1.3-2.1
				c-1,0.1-1.6,1.4-1.1,2.2C87.5,80.8,88.1,80.4,87.9,80L87.9,80z"/>
		</g>
	</g>
	<g>
		<g>
			<path d="M77.4,79.8c-1.2,0.2-2.6,0.3-3.5,1.2c-0.6,0.6-1.2,2.1,0.2,2.1c0.5,0,0.5-0.7,0-0.7c-0.3,0,0.4-0.9,0.5-1
				c0.3-0.2,0.6-0.3,1-0.4c0.7-0.2,1.4-0.3,2.1-0.4C78.1,80.4,77.9,79.7,77.4,79.8L77.4,79.8z"/>
		</g>
	</g>
	<g>
		<g>
			<path d="M89.1,78.4c-1.7-0.4-3.3-0.2-5,0.1c-0.5,0.1-0.3,0.8,0.2,0.7c1.5-0.3,3.1-0.5,4.6-0.1C89.4,79.2,89.6,78.5,89.1,78.4
				L89.1,78.4z"/>
		</g>
	</g>
</g>
<g>
	<g>
		<path d="M39,109.8c-5.8-4.2-7.5-11.7-7.5-18.5c0-4.4,0.9-8.9,1.6-13.2c0.7-4.5,1-8.9,0.7-13.5c-0.2-2.6-0.6-5.2-0.7-7.8
			c-0.1-2.6,0.5-5.2,1.2-7.7c0.2-0.6-0.7-0.8-0.9-0.2c-0.7,2.2-1.2,4.6-1.3,6.9c-0.1,2.3,0.3,4.7,0.5,7c0.2,2.5,0.4,4.9,0.3,7.4
			c0,2.5-0.4,5-0.8,7.5c-1.3,7.9-2.8,16.1-0.2,23.9c1.2,3.6,3.3,6.9,6.5,9.2C39,111,39.5,110.2,39,109.8L39,109.8z"/>
	</g>
</g>
<g>
	<g>
		<path d="M67.2,118.9c-7.7-1.3-15.2-3.3-22.4-6.2c-0.6-0.2-0.8,0.7-0.2,0.9c7.2,2.8,14.8,4.9,22.4,6.2
			C67.6,119.9,67.9,119,67.2,118.9L67.2,118.9z"/>
	</g>
</g>
<g>
	<g>
		<path d="M85.7,118.1c-2,0.7-4,1-6.1,1.1c-0.6,0-0.6,1,0,1c2.2,0,4.3-0.4,6.3-1.1C86.5,118.8,86.3,117.9,85.7,118.1L85.7,118.1z"/>
	</g>
</g>
<g>
	<g>
		<path d="M88.5,35.5c4,6.4,1.9,14.3,1.7,21.4c-0.1,3.7,0.2,7.3,1.3,10.9c1.1,3.6,2.6,7.1,3.9,10.7c0.2,0.6,1.1,0.3,0.9-0.2
			c-1.3-3.7-2.8-7.3-4-11c-1.1-3.7-1.3-7.5-1.2-11.3c0.3-6.9,2-14.5-1.9-20.8C89,34.5,88.2,35,88.5,35.5L88.5,35.5z"/>
	</g>
</g>
<g>
	<g>
		<path d="M41.1,32.8c0.3-2.1,2.3-3.5,3.9-4.8c1.6-1.2,3.2-2.2,4.9-3c3.7-1.8,7.7-3,11.8-3.3c6.8-0.5,13.7,1.1,19.2,5.1
			c3.2,2.3,5.7,5.3,7.6,8.8c0.3,0.5,1.1,0.1,0.8-0.5c-3.5-6.3-9.1-11-16-13.1c-7.6-2.3-15.9-1.5-23.1,1.7c-2.2,1-4.4,2.3-6.3,3.8
			c-1.6,1.3-3.5,2.7-3.8,4.9C40,33.2,41,33.5,41.1,32.8L41.1,32.8z"/>
	</g>
</g>
<path class="st0" d="M45,34.7c-1.4,0.1-2.5,1.2-2.4,2.6c0.1,1.4,1.2,2.5,2.6,2.4c1.4-0.1,2.5-1.2,2.4-2.6
	C47.5,35.8,46.3,34.7,45,34.7z M46.1,38.8c-0.4,0-0.7-0.3-0.7-0.7c0-0.4,0.3-0.7,0.7-0.7c0.4,0,0.7,0.3,0.7,0.7
	C46.8,38.5,46.5,38.8,46.1,38.8z"/>
<g>
	<g>
		<path d="M40.7,31.5c-5.1-0.9-10.3,2.7-11.9,7.5c-0.8,2.3-0.6,4.8,0.7,6.8c1.2,1.9,3.1,3.2,5.3,3.2c0.3,0,0.3-0.5,0-0.5
			c-2.2-0.1-4.1-1.5-5.2-3.4c-1.1-2-1.1-4.3-0.3-6.4c1.6-4.4,6.4-7.7,11.2-6.9C40.9,32,41,31.6,40.7,31.5L40.7,31.5z"/>
	</g>
</g>
<g>
	<g>
		<path d="M39.3,50.8c-1-0.3-1.7,0.4-2.6,0.7c-1.7,0.5-1.9-2.1-1.3-3c0.3-0.5-0.5-1-0.8-0.5c-0.7,1.2-0.6,2.9,0.4,3.9
			c0.5,0.5,1.1,0.7,1.8,0.6c0.7-0.2,1.5-0.9,2.3-0.7C39.6,51.9,39.9,51,39.3,50.8L39.3,50.8z"/>
	</g>
</g>
<g>
	<path d="M34.9,48.1c0.1,0.5,0.6,0.8,1.1,0.8c0.5,0,1-0.1,1.4-0.3c0.8-0.3,1.6-0.6,2.4-0.9c0.7-0.3,1.5-0.6,2.1-1.1
		c0.6-0.6,0.9-1.5,0.5-2.2c-0.2-0.4-0.6-0.6-0.9-0.8c-1.5-0.8-3.5-0.9-4.9,0.1c-1.4,0.9-2.2,2.9-1.5,4.5"/>
</g>
<g>
	<g>
		<path d="M42,44.6c1.7,0.7,3.6,2.8,2,4.5c-1.4,1.5-3.8,1.2-5.6,1.6c-0.6,0.1-0.3,1.1,0.2,0.9c2.3-0.5,5.7-0.2,6.7-2.9
			c0.9-2.3-1.2-4.3-3.1-5C41.6,43.5,41.4,44.4,42,44.6L42,44.6z"/>
	</g>
</g>
<g>
	<g>
		<path d="M41.6,51c0.1,1.2,0.3,2.7-0.3,3.8c-0.2,0.3-0.6,1-1.1,0.5c-0.2-0.2-0.3-0.8-0.4-1.1c-0.2-0.9-0.3-1.7-0.2-2.6
			c0-0.6-0.9-0.6-1,0c-0.1,1.1,0.1,5.9,2.3,4.9c2-0.9,1.8-3.7,1.6-5.5C42.5,50.3,41.5,50.3,41.6,51L41.6,51z"/>
	</g>
</g>
<g>
	<g>
		<path d="M40.2,55.8c-1.9-0.2-2.9-2-2.1-3.7c0.2-0.6-0.7-0.8-0.9-0.2c-1,2.3,0.6,4.7,3.1,4.9C40.9,56.8,40.9,55.8,40.2,55.8
			L40.2,55.8z"/>
	</g>
</g>
<g>
	<g>
		<path class="st0" d="M83,69.7c-2.9,0.8-5.2,3.6-6.2,6.4c-0.7,2-0.6,4.5,2,4.5c0.3,0,0.3-0.5,0-0.5c-2.7,0-2.1-3-1.3-4.6
			c1.1-2.4,3-4.7,5.6-5.4C83.4,70.1,83.3,69.7,83,69.7L83,69.7z"/>
	</g>
</g>
<g>
	<g>
		<path class="st0" d="M79.9,77.6c-0.6,0.8-1.3,2-0.8,3.1c0.4,1,1.8,1,2.7,0.7c1.2-0.4,2-1.7,2.6-2.8c0.7-1.2,1.2-2.6,1.4-4
			c0.1-0.3-0.4-0.4-0.5-0.1c-0.3,2-1.2,4.2-2.6,5.7c-0.7,0.7-2.1,1.5-3,0.7c-0.8-0.7,0-2.2,0.5-2.9C80.4,77.7,80,77.3,79.9,77.6
			L79.9,77.6z"/>
	</g>
</g>
<g>
	<g>
		<path class="st0" d="M41,109.9c2.4-0.5,2.8,2.7,3.9,4.1c0.1-0.1,0.2-0.3,0.2-0.4c-1.4-0.2-2.7,0.4-3.9,0.8
			c-1.5,0.6-3.5,1.3-4.5-0.4c-1.6-2.8,3.2-3.9,5-4.2c0.3-0.1,0.2-0.5-0.1-0.5c-1.9,0.3-6.6,1.4-5.6,4.3c1.4,4.2,6.3,0,9,0.4
			c0.2,0,0.4-0.2,0.2-0.4c-1.3-1.6-1.6-4.8-4.4-4.2C40.6,109.5,40.7,110,41,109.9L41,109.9z"/>
	</g>
</g>
<g>
	<g>
		<path class="st0" d="M37,114.3c0-1.3,1.2-2,2.4-2.2c0.3-0.1,0.2-0.5-0.1-0.5c-1.4,0.3-2.8,1.2-2.8,2.7
			C36.6,114.6,37,114.6,37,114.3L37,114.3z"/>
	</g>
</g>
<g>
	<g>
		<path class="st0" d="M76.9,117.7c0.8,0.8,1.6,1.6,2.6,2.2c0-0.2,0-0.3,0.1-0.4c-3.2,0.7-4.8,3.7-7.5,5.1c-1,0.5-2,0.7-3,0.2
			c-1.2-0.5-2.1-1.6-2-2.9c0.2-2.1,2.5-3.8,4.1-5c0.2-0.2,0-0.6-0.2-0.4c-1.7,1.2-3.8,2.7-4.3,4.9c-0.4,1.9,0.9,3.6,2.7,4.1
			c1.9,0.5,3.5-0.7,4.9-1.9c1.7-1.4,3.2-3.2,5.5-3.7c0.2,0,0.2-0.3,0.1-0.4c-1-0.6-1.7-1.3-2.5-2.1C77,117.1,76.7,117.5,76.9,117.7
			L76.9,117.7z"/>
	</g>
</g>
<g>
	<g>
		<path class="st0" d="M68.6,124.5c-0.7-1.9,0.6-3.5,2.2-4.4c0.3-0.2,0-0.6-0.2-0.4c-1.7,1.1-3.2,2.9-2.4,5
			C68.2,124.9,68.7,124.7,68.6,124.5L68.6,124.5z"/>
	</g>
</g>
<g>
	<g>
		<path class="st0" d="M80.8,25.6c3.3-2.4,8.9-4.1,11.9-0.4c2.8,3.5,2.3,9.7-2.5,11.2c-0.3,0.1-0.2,0.6,0.1,0.5
			c4.9-1.5,5.7-7.7,3-11.5c-3.1-4.4-9.2-2.8-12.9-0.1C80.3,25.3,80.6,25.8,80.8,25.6L80.8,25.6z"/>
	</g>
</g>
<path class="st0" d="M89.6,29.1c-0.2-1.2-1.2-2-2.4-1.8c-1.2,0.2-2,1.2-1.8,2.4c0.2,1.2,1.2,2,2.4,1.8C89,31.4,89.8,30.3,89.6,29.1z
	"/>
<path class="st0" d="M31,37.7c-1.4,0.1-2.5,1.2-2.4,2.6c0.1,1.4,1.2,2.5,2.6,2.4c1.4-0.1,2.5-1.2,2.4-2.6
	C33.5,38.7,32.4,37.6,31,37.7z M32.1,41.8c-0.4,0-0.7-0.3-0.7-0.7c0-0.4,0.3-0.7,0.7-0.7c0.4,0,0.7,0.3,0.7,0.7
	C32.8,41.4,32.5,41.7,32.1,41.8z"/>
<g>
	<g>
		<path d="M39.9,43.5c-2-2.4-1.9-6-0.2-8.5c1.7-2.6,4.8-4,7.8-4.5c1.9-0.3,3.9-0.2,5.6,0.7c1.5,0.8,3,1.9,3.9,3.4
			c1.8,2.9,0.4,7-1.6,9.3c-2.5,2.9-6.5,3.9-10.2,2.8c-0.3-0.1-0.4,0.4-0.1,0.5c3.5,1,7.4,0.2,10-2.3c2.4-2.3,4-6.3,2.8-9.5
			c-0.6-1.6-2-2.8-3.4-3.8c-1.7-1.2-3.5-1.7-5.6-1.7c-3.5,0.1-7.1,1.5-9.3,4.3c-2.2,2.8-2.6,6.9-0.2,9.7
			C39.7,44,40.1,43.7,39.9,43.5L39.9,43.5z"/>
	</g>
</g>
<g>
	<g>
		<path class="st0" d="M30.7,68.8c-2.4,0.1-4.9,0.7-6.7,2.3c-1.4,1.2-2.2,3-0.5,4.3c0.2,0.2,0.6-0.2,0.3-0.3
			c-1.8-1.5-0.1-3.3,1.4-4.2c1.7-1,3.6-1.5,5.5-1.5C31,69.3,31,68.8,30.7,68.8L30.7,68.8z"/>
	</g>
</g>
<g>
	<g>
		<path class="st0" d="M26.2,73.6c-1.5,0.4-3.5,1.8-2,3.4c1.7,1.8,4.7,0.4,6.3-0.6c0.3-0.2,0-0.6-0.2-0.4c-1.4,0.8-3.2,1.7-4.8,1.2
			c-1-0.3-1.8-1.3-0.9-2.2c0.5-0.5,1.2-0.8,1.8-0.9C26.6,74,26.5,73.5,26.2,73.6L26.2,73.6z"/>
	</g>
</g>
<g>
	<g>
		<path class="st0" d="M32.5,64.2c-2.6,5.1-3,11-1.2,16.4c0.2,0.4,0.8,0.2,0.7-0.2c-1.8-5.2-1.4-10.9,1.2-15.8
			C33.3,64.1,32.7,63.8,32.5,64.2L32.5,64.2z"/>
	</g>
</g>
<g>
	<g>
		<path class="st0" d="M60.9,21.3c0.7-2.9,4.3-4.1,6.9-3.7c2.7,0.4,4.8,2.4,5.6,5c0.1,0.3,0.6,0.2,0.5-0.1c-0.8-2.8-3.2-5-6.1-5.3
			c-2.8-0.4-6.5,1-7.3,4C60.4,21.5,60.8,21.6,60.9,21.3L60.9,21.3z"/>
	</g>
</g>
<g>
	<g>
		<path class="st0" d="M106.7,51.3c2.8,0.4,3.2,3.8,3.5,6c0.5,3.2,1.3,6.4,2.8,9.3c1.6,3.3,4.3,5.9,6.6,8.8c2.3,2.9,5.1,7,3.8,10.9
			c-1.2,3.7-5.6,5.8-8.9,7.2c-0.3,0.1,0,0.5,0.2,0.4c3.1-1.4,6.4-3,8.4-5.9c2.1-3.1,0.7-7-1-9.9c-2.2-3.6-5.5-6.4-7.7-10
			c-2-3.3-3.1-7-3.7-10.8c-0.4-2.5-0.9-6-3.9-6.4C106.6,50.8,106.4,51.3,106.7,51.3L106.7,51.3z"/>
	</g>
</g>
<g>
	<g>
		<path class="st0" d="M91,56.4c1.2-3.1,3.2-5.8,5.9-7.8c0.2-0.2,0-0.6-0.2-0.4c-2.8,2.1-4.8,4.9-6.1,8.1
			C90.5,56.5,90.9,56.6,91,56.4L91,56.4z"/>
	</g>
</g>
<g>
	<g>
		<path class="st0" d="M81.9,70.5c0.5-5.3,2.5-11.5,8.3-13.1c0.4-0.1,0.2-0.8-0.2-0.7c-6.1,1.6-8.3,8.1-8.8,13.8
			C81.2,71,81.9,71,81.9,70.5L81.9,70.5z"/>
	</g>
</g>
<g>
	<g>
		<path class="st0" d="M83.2,70c0.6-4.4,3.3-8.2,7.2-10.2c0.4-0.2,0.1-0.8-0.4-0.6c-4.1,2.1-6.9,6.1-7.6,10.6
			C82.4,70.3,83.1,70.5,83.2,70L83.2,70z"/>
	</g>
</g>
<g>
	<g>
		<path class="st0" d="M85.1,75.2c0.3,1.2,0.7,2.4,1.1,3.6c0.2,0.4,0.9,0.2,0.7-0.2c-0.4-1.2-0.8-2.4-1.1-3.6
			C85.7,74.5,85,74.7,85.1,75.2L85.1,75.2z"/>
	</g>
</g>
<g>
	<g>
		<path class="st0" d="M114.1,87.6c3.8-2.1,6.9-5.2,8-9.5c0.1-0.3-0.4-0.4-0.5-0.1c-1.1,4.2-4.1,7.2-7.8,9.2
			C113.6,87.3,113.8,87.7,114.1,87.6L114.1,87.6z"/>
	</g>
</g>
<g>
	<g>
		<path class="st0" d="M90.9,59.8c1.3-3.2,3.4-6.1,6.2-8.1c0.2-0.2,0-0.6-0.2-0.4c-3,2.1-5.1,5-6.5,8.4C90.3,60,90.8,60.1,90.9,59.8
			L90.9,59.8z"/>
	</g>
</g>
<g>
	<g>
		<path class="st0" d="M96.1,46.4c-1.4,0.6-2.8,1.5-4.4,1.2c-0.3,0-0.4,0.4-0.1,0.5c1.8,0.3,3.2-0.6,4.8-1.3
			C96.6,46.7,96.4,46.3,96.1,46.4L96.1,46.4z"/>
	</g>
</g>
<g>
	<g>
		<path class="st0" d="M97.3,48.3c-0.5-3-0.9-6-1.3-9c-0.1,0.1-0.2,0.2-0.4,0.4c4-0.1,7.9-1.6,10.8-4.4c1.2-1.2,4.4-5,1.4-6.1
			c-2-0.7-4.5,0.6-6.2,1.4c-1.2,0.6-7.6,3.3-4.3,5c1.4,0.7,3.4,0.3,4.7-0.3c1.7-0.7,3.1-2.1,3.9-3.7c0.1-0.3-0.1-0.6-0.4-0.5
			c-1.7,0.5-3.3,1.3-4.7,2.5c-0.3,0.3,0.2,0.8,0.5,0.5c1.3-1.1,2.7-1.9,4.3-2.3c-0.1-0.2-0.3-0.3-0.4-0.5c-1.2,2.4-3.7,4.1-6.4,4
			c-0.3,0-0.7,0-1-0.2c-0.4-0.1-0.9-0.5-0.8-1c0.2-0.7,1.6-1.3,2.2-1.6c0.9-0.5,1.9-1,2.8-1.4c1.5-0.7,3.2-1.5,4.9-1.4
			c1.1,0.1,1.6,0.9,1.2,2c-0.4,1.3-1.6,2.5-2.6,3.4c-2.7,2.5-6.3,3.8-9.9,3.9c-0.2,0-0.4,0.2-0.4,0.4c0.4,3.1,0.9,6.2,1.3,9.2
			C96.6,48.9,97.3,48.8,97.3,48.3L97.3,48.3z"/>
	</g>
</g>
<g>
	<g>
		<path class="st0" d="M102.1,74.3c-1.9-8.5-3.5-17.1-4.8-25.7c-0.1-0.5-0.8-0.3-0.7,0.2c1.3,8.6,3,17.2,4.8,25.7
			C101.5,74.9,102.2,74.7,102.1,74.3L102.1,74.3z"/>
	</g>
</g>
<g>
	<g>
		<path class="st0" d="M108.5,30.9c-2.5,14.1-2.8,28.6-0.9,42.9c0.1,0.5,0.8,0.5,0.7,0c-1.8-14.2-1.5-28.6,0.9-42.7
			C109.2,30.7,108.5,30.5,108.5,30.9L108.5,30.9z"/>
	</g>
</g>
<g>
	<g>
		<path class="st0" d="M96.9,74.6c-0.7,2,3.7,1.1,4.6,0.9c2.1-0.4,4.1-1.1,6-2c1.6-0.8,3.6-1.8,4.4-3.6c0.2-0.4-0.4-0.8-0.6-0.4
			c-0.7,1.5-2.3,2.4-3.7,3.1c-1.5,0.8-3.1,1.3-4.7,1.8c-1,0.3-2.1,0.5-3.1,0.7c-0.3,0-2.4,0.3-2.2-0.3C97.7,74.3,97,74.1,96.9,74.6
			L96.9,74.6z"/>
	</g>
</g>
<g>
	<g>
		<path class="st0" d="M114.3,84.1c2.2-0.9,5.4-2,4.6-5c-1.1-3.8-4.3-6.1-6.9-8.8c-0.2-0.2-0.6,0.1-0.3,0.3c2.2,2.3,5,4.3,6.4,7.3
			c0.6,1.4,1,2.9-0.3,4c-1,0.8-2.3,1.2-3.5,1.7C113.9,83.8,114,84.3,114.3,84.1L114.3,84.1z"/>
	</g>
</g>
<g>
	<g>
		<path class="st0" d="M97.5,76c0.2,0.4,0.4,0.9,0.6,1.3c0.1,0.3,0.6,0.2,0.5-0.1c-0.2-0.5-0.4-1-0.6-1.4
			C97.8,75.5,97.4,75.7,97.5,76L97.5,76z"/>
	</g>
</g>
<g>
	<g>
		<path class="st0" d="M110.1,78.7c-1.2-1.6-1.9-3.3-2.3-5.2c-0.1-0.3-0.5-0.2-0.5,0.1c0.4,1.9,1.2,3.7,2.3,5.3
			C109.8,79.2,110.3,78.9,110.1,78.7L110.1,78.7z"/>
	</g>
</g>
<g>
	<g>
		<path class="st0" d="M101.3,74.8c0.2,0.7,0.3,1.5,0.4,2.2c0.1,0.3,0.5,0.2,0.5-0.1c-0.1-0.7-0.3-1.5-0.4-2.2
			C101.6,74.4,101.2,74.5,101.3,74.8L101.3,74.8z"/>
	</g>
</g>
<g>
	<g>
		<path class="st0" d="M96.3,34.6c0.4,1.4,0.8,2.8,1.3,4.1c0.2,0.4,0.9,0.2,0.7-0.2c-0.5-1.3-1-2.7-1.3-4.1
			C96.9,33.9,96.2,34.1,96.3,34.6L96.3,34.6z"/>
	</g>
</g>
<g>
	<g>
		<path class="st0" d="M105,31.7c-0.2,1.3-0.4,2.7-0.6,4c-0.1,0.5,0.6,0.7,0.7,0.2c0.2-1.3,0.4-2.7,0.6-4
			C105.8,31.4,105.1,31.2,105,31.7L105,31.7z"/>
	</g>
</g>
<g>
	<g>
		<path class="st0" d="M100.8,34.1c0,0.2,0.1,0.4,0.1,0.6c0,0.2,0.3,0.3,0.4,0.2c0.2-0.1,0.3-0.2,0.2-0.4c0-0.2-0.1-0.4-0.1-0.6
			c0-0.2-0.3-0.3-0.4-0.2C100.8,33.8,100.7,34,100.8,34.1L100.8,34.1z"/>
	</g>
</g>
<g>
	<g>
		<path class="st0" d="M99.1,75.6c-0.2,0.5-0.4,1-0.7,1.6c-0.1,0.3,0.3,0.5,0.4,0.2c0.2-0.5,0.4-1,0.7-1.6
			C99.7,75.5,99.2,75.3,99.1,75.6L99.1,75.6z"/>
	</g>
</g>
<g>
	<g>
		<path class="st0" d="M100.8,75.2c-0.3,0.5-0.6,1.1-0.8,1.6c-0.1,0.3,0.3,0.5,0.4,0.2c0.3-0.6,0.5-1.1,0.8-1.6
			C101.4,75.2,101,74.9,100.8,75.2L100.8,75.2z"/>
	</g>
</g>
<g>
	<g>
		<path class="st0" d="M102.5,75c-0.2,0.6-0.5,1.2-0.7,1.9c-0.1,0.3,0.3,0.4,0.5,0.1c0.2-0.6,0.5-1.2,0.7-1.9
			C103.1,74.9,102.6,74.7,102.5,75L102.5,75z"/>
	</g>
</g>
<g>
	<g>
		<path class="st0" d="M104.7,74.3c-0.3,0.9-0.6,1.8-1,2.7c-0.1,0.3,0.3,0.4,0.5,0.1c0.3-0.9,0.7-1.8,1-2.7
			C105.3,74.1,104.8,74,104.7,74.3L104.7,74.3z"/>
	</g>
</g>
<g>
	<g>
		<path class="st0" d="M107.2,73.2c-0.5,1.4-1,2.8-1.5,4.1c-0.1,0.3,0.3,0.4,0.5,0.1c0.5-1.4,1-2.7,1.5-4.1
			C107.8,73,107.3,72.9,107.2,73.2L107.2,73.2z"/>
	</g>
</g>
<g>
	<g>
		<path class="st0" d="M109.3,72.2c-0.3,2-0.8,4-1.3,6c-0.1,0.3,0.4,0.4,0.5,0.1c0.6-2,1-4,1.3-6C109.8,72,109.3,71.9,109.3,72.2
			L109.3,72.2z"/>
	</g>
</g>
<g>
	<g>
		<path class="st0" d="M111.5,70.7c-0.5,2.7-1.2,5.4-1.9,8c-0.1,0.3,0.4,0.4,0.5,0.1c0.8-2.6,1.4-5.3,1.9-8
			C112,70.5,111.5,70.4,111.5,70.7L111.5,70.7z"/>
	</g>
</g>
<g>
	<g>
		<path class="st0" d="M113.4,72.7c-0.6,2.2-1.3,4.5-2,6.7c-0.1,0.3,0.4,0.4,0.5,0.1c0.7-2.2,1.4-4.4,2-6.7
			C113.9,72.5,113.5,72.4,113.4,72.7L113.4,72.7z"/>
	</g>
</g>
<g>
	<g>
		<path class="st0" d="M114.9,74.3c-0.3,2.4-0.8,4.7-1.5,6.9c-0.1,0.3,0.4,0.4,0.5,0.1c0.7-2.3,1.2-4.7,1.5-7.1
			C115.4,74,114.9,74,114.9,74.3L114.9,74.3z"/>
	</g>
</g>
<g>
	<g>
		<path class="st0" d="M116.6,76.6c-0.6,2.1-1.2,4.2-1.8,6.3c-0.1,0.3,0.4,0.4,0.5,0.1c0.6-2.1,1.2-4.2,1.8-6.3
			C117.2,76.4,116.7,76.3,116.6,76.6L116.6,76.6z"/>
	</g>
</g>
<g>
	<g>
		<path class="st0" d="M117.8,77.7c-0.4,1.5-0.8,2.9-1.2,4.4c-0.1,0.3,0.4,0.4,0.5,0.1c0.4-1.5,0.8-2.9,1.2-4.4
			C118.4,77.5,117.9,77.4,117.8,77.7L117.8,77.7z"/>
	</g>
</g>
<g>
	<g>
		<path class="st0" d="M99.7,76.1c0.3,0.3,0.6,0.7,0.8,1c0.2,0.2,0.5-0.1,0.3-0.3c-0.3-0.3-0.6-0.7-0.8-1
			C99.8,75.5,99.5,75.8,99.7,76.1L99.7,76.1z"/>
	</g>
</g>
<g>
	<g>
		<path class="st0" d="M102.4,75.3c0.8,0.6,1.6,1.4,2.3,2.1c0.2,0.2,0.6-0.1,0.3-0.3c-0.8-0.8-1.6-1.5-2.4-2.2
			C102.4,74.7,102.2,75.1,102.4,75.3L102.4,75.3z"/>
	</g>
</g>
<g>
	<g>
		<path class="st0" d="M105.4,74c3.7,2.8,7.5,5.5,11.4,8c0.2,0.2,0.5-0.2,0.2-0.4c-3.9-2.5-7.7-5.2-11.4-8
			C105.4,73.4,105.2,73.9,105.4,74L105.4,74z"/>
	</g>
</g>
<g>
	<g>
		<path class="st0" d="M109,72.8c2.7,1.9,5.5,3.5,8.5,4.9c0.3,0.1,0.5-0.3,0.2-0.4c-2.9-1.5-5.8-3.1-8.5-4.9
			C109,72.2,108.7,72.6,109,72.8L109,72.8z"/>
	</g>
</g>
<g>
	<g>
		<path class="st0" d="M107.2,45.8c4.8,1.7,6.1,7.2,7.1,11.6c0.7,3.4,1.7,9,6,9.5c0-0.1-0.1-0.3-0.1-0.4c-1.4,1.2-3,2.2-4.8,2.8
			c-0.3,0.1-0.2,0.6,0.1,0.5c1.9-0.6,3.5-1.6,5-2.9c0.1-0.1,0.1-0.4-0.1-0.4c-2.3-0.3-3.7-2.5-4.4-4.5c-0.9-2.4-1.2-5-1.9-7.5
			c-1-3.8-2.8-7.8-6.8-9.1C107,45.2,106.9,45.7,107.2,45.8L107.2,45.8z"/>
	</g>
</g>
<g>
	<g>
		<path class="st0" d="M83.4,70.3c1.1,0.4,2.3,0.2,3.1-0.6c0.2-0.2-0.1-0.5-0.3-0.3c-0.5,0.4-1.8,1.5-1.5,2.3
			c0.2,0.8,1.3,0.2,1.7,0.7c0-0.1,0-0.2,0.1-0.4c-0.4,0.2-0.6,0.5-0.6,1c0,0.5,1,1.4,0.7,1.7c0.1,0,0.3,0,0.4,0
			c-0.5-0.7-1.1-0.9-1.9-0.8c-0.3,0.1-0.2,0.5,0.1,0.5c0.6-0.1,1,0.1,1.4,0.6c0.1,0.2,0.3,0.2,0.4,0c0.2-0.3,0.2-0.5,0.1-0.8
			c-0.2-0.4-1.3-1.2-0.4-1.7c0.2-0.1,0.1-0.3,0.1-0.4c-0.3-0.4-0.6-0.2-1-0.3c-0.3-0.1-0.2,0.1-0.4-0.2c-0.1-0.3,0-0.4,0.1-0.6
			c0.3-0.4,0.7-0.8,1.1-1.1c-0.1-0.1-0.2-0.2-0.3-0.3c-0.7,0.7-1.7,0.9-2.7,0.5C83.2,69.7,83.1,70.1,83.4,70.3L83.4,70.3z"/>
	</g>
</g>
<g>
	<g>
		<path class="st0" d="M31.3,97.2c-1.1,1-2.1,2-3.1,3c-0.2,0.2,0.1,0.6,0.3,0.3c1-1,2-2,3.1-3C31.9,97.3,31.5,97,31.3,97.2
			L31.3,97.2z"/>
	</g>
</g>
<g>
	<g>
		<path class="st0" d="M28,84c-2.5,2.5-5.1,5-7.6,7.4c-0.2,0.2,0.1,0.6,0.3,0.3c2.5-2.5,5.1-5,7.6-7.4C28.6,84.1,28.2,83.8,28,84
			L28,84z"/>
	</g>
</g>
<g>
	<g>
		<path class="st0" d="M23,90.6c-0.1-0.1-0.2-0.2-0.3-0.3c-0.1-0.1-0.1-0.1-0.2-0.2c0,0,0,0,0,0c0,0,0-0.1,0,0c0,0,0,0,0,0
			c0,0,0,0.1,0,0.1c0,0,0,0.1,0,0.1c0,0,0,0,0,0c0,0-0.1,0-0.1,0.1c-0.1,0-0.2,0-0.1,0c0,0-0.1,0,0,0c0,0,0,0,0,0
			c0,0,0.1,0.1,0.1,0.1c0.1,0.1,0.3,0,0.3-0.1c0.1-0.1,0-0.2-0.1-0.3c-0.1-0.1-0.3-0.2-0.5-0.1c-0.2,0.1-0.1,0.3,0,0.5
			c0.2,0.2,0.3,0.3,0.5,0.5C22.9,91.2,23.2,90.9,23,90.6L23,90.6z"/>
	</g>
</g>
<g>
	<g>
		<path class="st0" d="M31.3,89.1c-1.2-1.5-2.3-3.1-3.4-4.7c-0.2-0.3-0.6,0-0.4,0.2c1.1,1.7,2.2,3.3,3.4,4.8
			C31.1,89.7,31.4,89.3,31.3,89.1L31.3,89.1z"/>
	</g>
</g>
<g>
	<g>
		<path class="st0" d="M31.2,85.6c-0.8-0.7-1.6-1.5-2.4-2.2c-0.2-0.2-0.6,0.1-0.3,0.3c0.8,0.7,1.6,1.4,2.4,2.2
			C31.1,86.2,31.4,85.8,31.2,85.6L31.2,85.6z"/>
	</g>
</g>
<g>
	<g>
		<path class="st0" d="M28.2,99.9c-3-2.3-5.7-5.1-7.7-8.3c-0.2-0.2-0.6,0-0.4,0.2c2.1,3.3,4.8,6.1,7.9,8.5
			C28.2,100.5,28.5,100.1,28.2,99.9L28.2,99.9z"/>
	</g>
</g>
<g>
	<g>
		<path class="st0" d="M26.4,88.6c-0.4-0.4-0.7-1-0.9-1.5c-0.1-0.3-0.6-0.2-0.5,0.1c0.2,0.7,0.6,1.2,1,1.7
			C26.3,89.2,26.6,88.8,26.4,88.6L26.4,88.6z"/>
	</g>
</g>
<g>
	<g>
		<path class="st0" d="M28.7,83.5c-0.2-0.1-0.4,0-0.5,0.1c-0.1,0.2-0.1,0.4,0.1,0.5c0.1,0.1,0.3,0,0.3-0.1c0.1-0.1,0-0.2-0.1-0.3
			c0.1,0,0.1,0.1,0.1,0.1c0,0,0,0,0,0c0,0,0,0,0,0c0,0,0,0,0,0c0,0,0,0,0,0c0,0,0,0-0.1,0c-0.1,0-0.1,0-0.1,0c0.1,0.1,0.3,0,0.3-0.1
			C28.8,83.7,28.8,83.5,28.7,83.5L28.7,83.5z"/>
	</g>
</g>
<g>
	<g>
		<path class="st0" d="M28.7,83.5c-1-1.7-1.6-3.6-1.8-5.6c0-0.3-0.5-0.3-0.5,0c0.2,2.1,0.8,4,1.9,5.8C28.5,84,28.9,83.7,28.7,83.5
			L28.7,83.5z"/>
	</g>
</g>
<g>
	<g>
		<path class="st0" d="M26.2,70.3c0.3-0.2,0.9,0.6,0.9,0.8c0.1,0.3,0.2,0.6,0.4,0.9c0.2,0.5,0.3,1,0.5,1.4c0.3,1,0.5,2.1,0.7,3.1
			c0.3,2.3,0.3,4.6-0.1,6.9C28.5,83.9,29,84,29,83.7c0.5-2.9,0.4-5.8-0.2-8.7c-0.2-0.8-1.3-6.3-2.9-5.1
			C25.7,70.1,25.9,70.5,26.2,70.3L26.2,70.3z"/>
	</g>
</g>
<g>
	<g>
		<path class="st0" d="M25.5,70.8c2.2,3.8,3.2,8.1,2.9,12.4c0,0.3,0.5,0.3,0.5,0c0.3-4.4-0.7-8.8-2.9-12.6
			C25.8,70.3,25.4,70.5,25.5,70.8L25.5,70.8z"/>
	</g>
</g>
<g>
	<g>
		<path class="st0" d="M25.2,77.5c0.4,1.2,0.5,2.4,1,3.5c0.5,1.1,1.2,2.1,2,3c0.2,0.2,0.5-0.1,0.3-0.3c-0.8-0.9-1.6-2-2-3.2
			c-0.4-1-0.4-2.1-0.8-3.2C25.6,77.1,25.1,77.3,25.2,77.5L25.2,77.5z"/>
	</g>
</g>
<g>
	<g>
		<path class="st0" d="M20.4,91.9c-0.2-0.2,0.5-1.7,0.6-1.9c0.2-0.4,0.6-0.8,0.9-1.1c0.6-0.6,1.3-1.2,1.9-1.8
			c1.4-1.3,2.7-2.6,4.1-3.9c0.2-0.2-0.1-0.6-0.3-0.3c-1.9,1.8-3.7,3.5-5.6,5.3c-0.7,0.6-1.4,1.3-1.7,2.2c-0.2,0.5-0.5,1.3,0,1.8
			c0.1,0.1,0.2,0.1,0.3,0c0.2-0.1,0.2-0.1,0.2-0.3c0-0.1,0-0.2-0.1-0.3c0,0-0.1,0-0.1-0.1C20.4,91.3,20.1,91.8,20.4,91.9L20.4,91.9z
			"/>
	</g>
</g>
<g>
	<g>
		<path class="st0" d="M29.5,81.9c0.1-0.1,0.2-0.3,0.3-0.3c0.1,0.1,0.3,0.2,0.4,0.3c-0.1,0.1-0.2,0.2-0.2,0.3
			c-0.2,0.2-0.4,0.5-0.6,0.7c-0.4,0.5-0.9,0.9-1.4,1.3c-0.2,0.2,0,0.6,0.2,0.4c0.5-0.4,1.1-0.8,1.5-1.3c0.3-0.4,1-1,1.1-1.5
			c0-0.3-0.2-0.6-0.5-0.7c-0.5-0.2-0.9,0.2-1.2,0.5C29,81.8,29.3,82.1,29.5,81.9L29.5,81.9z"/>
	</g>
</g>
<g>
	<g>
		<path class="st0" d="M20.3,91.4c-0.8,0.7-1.8,1.3-1.3,2.5c0.6,1.4,2.1,2.5,3.1,3.7c1.2,1.4,2.5,2.9,3.9,4.2
			c1.2,1.1,2.1-0.7,2.8-1.5c0.2-0.2-0.1-0.6-0.3-0.3c-0.4,0.4-0.8,1.1-1.2,1.5c-0.8,0.6-1.4-0.4-1.9-1c-0.9-0.9-1.8-1.9-2.7-2.9
			c-0.8-0.9-1.6-1.7-2.4-2.6c-0.4-0.4-1.1-1.2-1-1.9c0.1-0.5,0.9-1,1.3-1.3C20.9,91.5,20.5,91.2,20.3,91.4L20.3,91.4z"/>
	</g>
</g>
<g>
	<g>
		<g>
			<path class="st0" d="M100.1,41.7c3-0.4,5.7-1.7,8.1-3.6c0.2-0.2-0.1-0.5-0.3-0.3c-2.2,1.9-4.9,3.1-7.8,3.5
				C99.6,41.3,99.8,41.8,100.1,41.7L100.1,41.7z"/>
		</g>
	</g>
	<g>
		<g>
			<path class="st0" d="M100,41.5c2,11.8,3.4,23.8,5.3,35.6c0.1,0.3,0.5,0.2,0.5-0.1c-1.9-11.8-3.2-23.8-5.3-35.6
				C100.4,41.1,99.9,41.2,100,41.5L100,41.5z"/>
		</g>
	</g>
	<g>
		<g>
			<path class="st0" d="M103.1,54.3c0-0.6,0.1-1.2,0.4-1.8c0.1-0.3-0.3-0.5-0.4-0.2c-0.3,0.7-0.4,1.3-0.4,2
				C102.6,54.6,103.1,54.6,103.1,54.3L103.1,54.3z"/>
		</g>
	</g>
	<g>
		<g>
			<path class="st0" d="M103.9,50.9c0.2-0.6,0.5-1.2,0.7-1.7c0.1-0.3-0.3-0.4-0.5-0.1c-0.2,0.6-0.5,1.2-0.7,1.7
				C103.4,51.1,103.8,51.2,103.9,50.9L103.9,50.9z"/>
		</g>
	</g>
	<g>
		<g>
			<path class="st0" d="M105.6,47.5c0.3-0.8,0.7-1.6,1.2-2.2c0.2-0.2-0.2-0.5-0.4-0.2c-0.5,0.7-0.9,1.5-1.2,2.3
				C105,47.6,105.5,47.7,105.6,47.5L105.6,47.5z"/>
		</g>
	</g>
	<g>
		<g>
			<path class="st0" d="M104.3,62c0-0.3,0.1-0.6,0.2-0.9c0-0.1,0.1-0.4,0.2-0.5c0.2-0.1,0.4,0,0.5,0.2c0.2,0.4,0.1,0.8,0.4,1.2
				c0.4,0.5,1.2,0.4,1.5-0.2c0.1-0.3-0.4-0.4-0.5-0.1c-0.1,0.1-0.2,0.1-0.3,0.2c-0.2,0-0.3-0.1-0.4-0.3c-0.1-0.1-0.1-0.2-0.2-0.4
				c0-0.2-0.1-0.4-0.1-0.7c-0.1-0.3-0.3-0.6-0.6-0.6c-0.9-0.1-1.1,1.4-1.2,2C103.8,62.2,104.3,62.3,104.3,62L104.3,62z"/>
		</g>
	</g>
	<g>
		<g>
			<path class="st0" d="M104.5,54.3c0.5,0.4,0.9,0.8,1.2,1.4c0.1,0.3,0.6,0.2,0.5-0.1c-0.3-0.7-0.8-1.3-1.4-1.7
				C104.5,53.7,104.3,54.1,104.5,54.3L104.5,54.3z"/>
		</g>
	</g>
	<g>
		<g>
			<path class="st0" d="M105,56.4c0-0.9,0.4-1.7,1-2.3c0.2-0.2-0.1-0.6-0.3-0.3c-0.7,0.7-1.1,1.6-1.1,2.6
				C104.5,56.7,104.9,56.7,105,56.4L105,56.4z"/>
		</g>
	</g>
	<g>
		<g>
			<path class="st0" d="M105.1,56.9c0.1,0.2,0.1,0.4,0.2,0.6c0.1,0.3,0.6,0.2,0.5-0.1c-0.1-0.2-0.1-0.4-0.2-0.6
				C105.5,56.4,105,56.6,105.1,56.9L105.1,56.9z"/>
		</g>
	</g>
	<g>
		<g>
			<path class="st0" d="M105.7,58.6c0.1,0.1,0.1,0.2,0.2,0.4c0.1,0.1,0.2,0.2,0.3,0.1s0.2-0.2,0.1-0.3c-0.1-0.1-0.1-0.2-0.2-0.4
				c-0.1-0.1-0.2-0.2-0.3-0.1C105.7,58.4,105.7,58.5,105.7,58.6L105.7,58.6z"/>
		</g>
	</g>
	<g>
		<g>
			<path class="st0" d="M105.6,72.6c-0.1-0.5,0-1,0.2-1.4c0.1-0.3-0.3-0.4-0.5-0.1c-0.2,0.5-0.2,1.1-0.2,1.7
				C105.2,73.1,105.7,72.9,105.6,72.6L105.6,72.6z"/>
		</g>
	</g>
	<g>
		<g>
			<path class="st0" d="M106.2,69.6c0-0.3,0.1-0.6,0.3-0.8c0.2-0.2-0.1-0.6-0.3-0.3c-0.3,0.3-0.4,0.7-0.5,1.1
				C105.7,69.9,106.2,69.9,106.2,69.6L106.2,69.6z"/>
		</g>
	</g>
</g>
<g>
	<g>
		<path class="st0" d="M19.3,93.1c0.3-1.2,0.8-2.2,1.5-3.2c0.2-0.2-0.2-0.6-0.3-0.3c-0.8,1-1.4,2.1-1.6,3.4
			C18.8,93.3,19.2,93.4,19.3,93.1L19.3,93.1z"/>
	</g>
</g>
<g>
	<g>
		<path class="st0" d="M30.4,82c0.3,0.3,0.5,0.5,0.8,0.8c0.2,0.2,0.6-0.1,0.3-0.3c-0.3-0.3-0.5-0.5-0.8-0.8
			C30.6,81.4,30.2,81.7,30.4,82L30.4,82z"/>
	</g>
</g>
<g>
	<g>
		<path class="st0" d="M22.6,91.1c0.1,0.2,0.3,0.3,0.4,0.5c0.1,0.1,0.2,0.1,0.3,0c0.1-0.1,0.1-0.2,0-0.3c-0.1-0.2-0.3-0.3-0.4-0.5
			c-0.1-0.1-0.2-0.1-0.3,0C22.5,90.8,22.5,91,22.6,91.1L22.6,91.1z"/>
	</g>
</g>
<g>
	<g>
		<path class="st0" d="M28.1,96.9c0.1,0.1,0.2,0.2,0.3,0.3c0.2,0.2,0.6-0.1,0.3-0.3c-0.1-0.1-0.2-0.2-0.3-0.3
			C28.2,96.3,27.9,96.6,28.1,96.9L28.1,96.9z"/>
	</g>
</g>
<g>
	<g>
		<path class="st0" d="M28.8,90.3c0.2-0.1,0.3-0.2,0.5-0.3c0.3-0.2,0-0.6-0.2-0.4c-0.2,0.1-0.3,0.2-0.5,0.3
			C28.3,90.1,28.5,90.5,28.8,90.3L28.8,90.3z"/>
	</g>
</g>
<g>
	<g>
		<g>
			<path class="st0" d="M31.1,88.4c-0.5-0.4-1.1-0.6-1.6-0.8c-0.3-0.1-0.4,0.4-0.1,0.5c0.5,0.2,1.1,0.5,1.5,0.8
				C31.1,89,31.4,88.5,31.1,88.4L31.1,88.4z"/>
		</g>
	</g>
	<g>
		<g>
			<path class="st0" d="M28.9,87.7c-2.8,0-4.6,2.9-4,5.5c0.6,2.8,4.2,3.7,6.4,2.3c0.3-0.2,0-0.6-0.2-0.4c-2,1.2-5.2,0.5-5.7-2
				c-0.5-2.3,1.1-4.9,3.6-4.9C29.2,88.2,29.2,87.7,28.9,87.7L28.9,87.7z"/>
		</g>
	</g>
	<g>
		<g>
			<path class="st0" d="M25.2,91.7c1-2.1,3.4-3,5.6-2.3c0.3,0.1,0.4-0.4,0.1-0.5c-2.4-0.8-5,0.2-6.1,2.5
				C24.7,91.8,25.1,92,25.2,91.7L25.2,91.7z"/>
		</g>
	</g>
	<g>
		<g>
			<path class="st0" d="M29.4,88.7c0-0.2,0-0.3,0-0.4c0.1-0.3-0.4-0.4-0.5-0.1c-0.1,0.2-0.1,0.5,0,0.7
				C29.1,89.2,29.5,89.1,29.4,88.7L29.4,88.7z"/>
		</g>
	</g>
	<g>
		<g>
			<path class="st0" d="M26.4,93.6c0.4,0.6,2,2,2.6,1c0.3-0.4-0.2-1-0.5-1.4c-0.6-0.8-1.2-1.3-1.4-2.3c0-0.2-0.2-0.2-0.3-0.1
				c-1.2,0.7-0.7,2.1-0.2,3.1c0.2,0.3,0.6,0,0.4-0.2c-0.4-0.7-1-1.9,0-2.4c-0.1,0-0.2-0.1-0.3-0.1c0.2,0.9,0.6,1.5,1.2,2.1
				c0.2,0.2,0.3,0.3,0.5,0.5c0.1,0.1,0.2,0.2,0.2,0.3c0.1,0.3,0,0.4-0.2,0.3c-0.6,0.1-1.2-0.6-1.5-1C26.7,93.1,26.3,93.3,26.4,93.6
				L26.4,93.6z"/>
		</g>
	</g>
	<g>
		<g>
			<path class="st0" d="M28.4,92c0.2,0.5,0.9,0.5,1.1,0c0.2-0.6-0.3-1-0.8-1.3c-0.1,0-0.2-0.1-0.2,0C28.1,91,28,91.5,28.4,92
				c0.1,0.1,0.5-0.2,0.3-0.4c-0.1-0.1-0.1-0.3,0-0.5c-0.1,0-0.2,0-0.2,0c0.2,0.1,0.5,0.2,0.6,0.5c0,0.1,0.1,0.2,0,0.3
				c0,0-0.1,0-0.2,0C28.8,91.6,28.3,91.7,28.4,92L28.4,92z"/>
		</g>
	</g>
	<g>
		<g>
			<path class="st0" d="M31,90.8c-0.7-1-1.7-1.4-2.9-1.2c-1.1,0.2-2.2,0.6-2.6,1.7c-0.1,0.3,0.4,0.4,0.5,0.1
				c0.3-0.9,1.3-1.3,2.2-1.4c1-0.2,1.8,0.1,2.4,0.9C30.8,91.2,31.2,91,31,90.8L31,90.8z"/>
		</g>
	</g>
	<g>
		<g>
			<path class="st0" d="M25.6,90.9c-0.6,1.4-0.2,3.2,1.2,4.1c1.4,1,3.3,0.6,4.3-0.7c0.2-0.2-0.2-0.6-0.3-0.3
				c-0.9,1.2-2.5,1.5-3.7,0.6c-1.2-0.8-1.4-2.3-0.9-3.5C26.2,90.7,25.7,90.6,25.6,90.9L25.6,90.9z"/>
		</g>
	</g>
</g>
<g>
	<g>
		<path class="st0" d="M21.6,90c-0.5-0.3,0.2-1,0.6-1.2c0.3-0.2,0.7-0.3,1.1-0.4c-0.1-0.1-0.2-0.2-0.3-0.2c0,1-0.9,1.5-1.6,2
			c-0.3,0.2,0,0.6,0.2,0.4c0.9-0.5,1.9-1.2,1.9-2.4c0-0.2-0.2-0.2-0.3-0.2c-0.7,0.1-1.4,0.5-1.8,1.1c-0.4,0.5-0.4,1.1,0.1,1.5
			C21.6,90.6,21.9,90.2,21.6,90L21.6,90z"/>
	</g>
</g>
<g>
	<g>
		<path class="st0" d="M21,92.6c0.4-0.7,1-1.2,1.8-1.5c0.3-0.1,0.2-0.6-0.1-0.5c-0.9,0.3-1.6,0.9-2.1,1.7
			C20.4,92.6,20.8,92.8,21,92.6L21,92.6z"/>
	</g>
</g>
<g>
	<g>
		<path class="st0" d="M21.6,93.7c0.5-0.3,0.9-0.7,1.2-1.3c0.2-0.3-0.2-0.5-0.4-0.2c-0.3,0.5-0.6,0.8-1.1,1.1
			C21.1,93.5,21.4,93.9,21.6,93.7L21.6,93.7z"/>
	</g>
</g>
<g>
	<g>
		<path class="st0" d="M28.4,77.5c0.2,0.7,0.3,1.5,0.2,2.3c0,0.3,0.5,0.3,0.5,0c0.1-0.8,0-1.6-0.2-2.4C28.8,77,28.3,77.1,28.4,77.5
			L28.4,77.5z"/>
	</g>
</g>
<g>
	<g>
		<path class="st0" d="M28.3,97.3c0.5,0.5,0.9,1,1.4,1.6c0.2,0.2,0.5-0.1,0.3-0.3c-0.9-1-1.8-2-2.7-3c-0.2-0.2-0.5,0.1-0.3,0.3
			c0.9,1,1.8,2,2.7,3c0.1-0.1,0.2-0.2,0.3-0.3c-0.5-0.5-0.9-1-1.4-1.6C28.4,96.7,28.1,97.1,28.3,97.3L28.3,97.3z"/>
	</g>
</g>
<g>
	<g>
		<path class="st0" d="M23,91.4c0.6,1,1.4,1.9,2.3,2.7c0.2,0.2,0.6-0.1,0.3-0.3c-0.9-0.8-1.6-1.6-2.2-2.6
			C23.2,90.9,22.8,91.1,23,91.4L23,91.4z"/>
	</g>
</g>
<g>
	<g>
		<path class="st0" d="M22.8,92.3c0.2-0.1,0.4-0.2,0.5-0.4c0.1-0.1,0.2-0.2,0.1-0.3c-0.1-0.1-0.2-0.2-0.3-0.1
			c-0.2,0.1-0.4,0.2-0.5,0.4c-0.1,0.1-0.2,0.2-0.1,0.3C22.5,92.3,22.7,92.4,22.8,92.3L22.8,92.3z"/>
	</g>
</g>
<g>
	<g>
		<path class="st0" d="M21.9,91.5c0.1,0.2,0.2,0.5,0.4,0.7c0.1,0.3,0.6,0,0.4-0.2c-0.1-0.2-0.2-0.5-0.4-0.7
			C22.2,91,21.8,91.2,21.9,91.5L21.9,91.5z"/>
	</g>
</g>
<g>
	<g>
		<path class="st0" d="M28.8,97.5c0.6-0.5,1.2-1,1.8-1.4c0.2-0.2-0.1-0.5-0.3-0.3c-0.6,0.5-1.2,1-1.8,1.4
			C28.2,97.4,28.6,97.7,28.8,97.5L28.8,97.5z"/>
	</g>
</g>
<g>
	<g>
		<path class="st0" d="M97.4,74.9c1.3-0.1,2.5-0.4,3.7-0.9c0.3-0.1,0.2-0.6-0.1-0.5c-1.2,0.5-2.3,0.8-3.5,0.9
			C97.1,74.4,97.1,74.9,97.4,74.9L97.4,74.9z"/>
	</g>
</g>
<g>
	<g>
		<path class="st0" d="M107.8,71.7c1.2-0.5,2.5-1.1,3.6-1.7c0.3-0.2,0-0.6-0.2-0.4c-1.1,0.6-2.3,1.2-3.5,1.7
			C107.4,71.3,107.5,71.8,107.8,71.7L107.8,71.7z"/>
	</g>
</g>
<g>
	<g>
		<path class="st0" d="M114.9,93.2c2-1.2,3.8-2.6,5.5-4.2c1.5-1.4,3-3,3.5-5.1c0.1-0.3-0.4-0.4-0.5-0.1c-0.5,2.1-2.1,3.7-3.7,5.1
			c-1.6,1.5-3.3,2.8-5.2,3.9C114.4,92.9,114.6,93.3,114.9,93.2L114.9,93.2z"/>
	</g>
</g>
<g>
	<g>
		<path class="st0" d="M117.8,84.9c1.8-0.6,3.5,1,2.8,2.9c-0.1,0.3,0.4,0.4,0.5,0.1c0.7-2.1-1.3-4.2-3.4-3.5
			C117.4,84.5,117.5,85,117.8,84.9L117.8,84.9z"/>
	</g>
</g>
<g>
	<g>
		<path class="st0" d="M120.4,81.6c1.7,0.5,2.6,2.3,2,3.9c-0.1,0.3,0.4,0.4,0.5,0.1c0.7-1.9-0.4-4-2.4-4.5
			C120.3,81.1,120.1,81.6,120.4,81.6L120.4,81.6z"/>
	</g>
</g>
<g>
	<g>
		<path class="st0" d="M107.3,46.8c2.3,0.8,3.5,3.1,4.3,5.3c0.8,2.1,1.2,4.4,1.7,6.6c0.7,3.2,1.6,7.4,5.1,8.7
			c0.3,0.1,0.4-0.4,0.1-0.5c-4.1-1.5-4.5-7.4-5.3-11c-0.8-3.5-2-8.2-5.8-9.6C107.1,46.3,107,46.7,107.3,46.8L107.3,46.8z"/>
	</g>
</g>
<g>
	<g>
		<path class="st0" d="M118.5,67.8c0.3,0,0.3-0.5,0-0.5C118.2,67.4,118.2,67.8,118.5,67.8L118.5,67.8z"/>
	</g>
</g>
<g>
	<g>
		<path class="st0" d="M118.4,67.3c-1.2,0.5-2.4,1.1-3.6,1.8c-0.3,0.2,0,0.6,0.2,0.4c1.1-0.7,2.3-1.2,3.5-1.7
			C118.8,67.6,118.7,67.2,118.4,67.3L118.4,67.3z"/>
	</g>
</g>
<g>
	<g>
		<path class="st0" d="M91.1,53.8c1-2.6,2.9-4.7,5.4-5.9c0.3-0.1,0-0.5-0.2-0.4c-2.6,1.2-4.7,3.4-5.7,6.2C90.6,54,91,54.1,91.1,53.8
			L91.1,53.8z"/>
	</g>
</g>
<g>
	<g>
		<path class="st0" d="M97.4,75.1C97.4,75.1,97.4,75.1,97.4,75.1c0.1,0,0.1-0.1,0.2-0.1c0,0,0.1,0,0.1,0.1c0,0.1,0,0.2,0,0.3
			c0.2-0.2,1.6,0.1,1.8,0.1c0.2,0,0.3-0.3,0.1-0.4c-0.6-0.3-1.1-0.4-1.7-0.3c-0.3,0.1-0.2,0.5,0.1,0.5c0.9,0.1,1.7-0.1,2.5-0.4
			c0.3-0.1,0.2-0.5-0.1-0.5c-0.5,0.1-1.1,0.2-1.6,0.3c0.1,0.2,0.1,0.3,0.2,0.4c0.4-0.3,0.8-0.4,1.4-0.2c0-0.1-0.1-0.2-0.1-0.3
			c-0.1,0.2-0.2,0.4-0.5,0.5c-0.2,0.2,0,0.6,0.2,0.4c0.5-0.3,0.8-0.6,1.1-1.1c-0.2-0.1-0.3-0.1-0.4-0.2c0,0.2-0.1,0.3-0.1,0.4
			c0.2,0,0.3,0.1,0.5,0.1c0,0,0.1,0,0.1-0.1c0-0.2,0-0.3-0.1-0.4c-0.3,0.2-0.3,0.6,0,0.8c0.1,0.1,0.2,0,0.3,0
			c0.2-0.2,0.4-0.6,0.2-0.8c-0.2-0.2-0.5-0.1-0.6,0.2c-0.1,0.1,0,0.2,0,0.3c0,0,0,0,0.1,0.1c0.1,0.1,0.3,0.1,0.4-0.1
			c0.2-0.3,0.2-0.6-0.1-0.9c-0.2-0.2-0.5,0.1-0.4,0.3c0.1,0.2,0.2,0.3,0.3,0.4c0.2,0.2,0.6,0,0.4-0.2c-0.1-0.2-0.2-0.3-0.3-0.4
			c-0.1,0.1-0.2,0.2-0.4,0.3c0,0.1,0,0.2,0,0.3c0.1,0,0.2,0,0.4-0.1c0,0,0,0-0.1-0.1c0,0.1,0,0.2,0,0.3c-0.1,0-0.2,0.1-0.3,0.1
			c0.1,0,0.2,0,0.3,0c0,0,0,0,0,0c0.2-0.1,0.1-0.4-0.1-0.4c-0.3-0.1-0.6,0-0.7,0.4c-0.1,0.3,0.4,0.4,0.5,0.1c0-0.2,0.1-0.3,0.1-0.4
			c0.1-0.3-0.3-0.4-0.4-0.2c-0.2,0.4-0.5,0.7-0.9,0.9c0.1,0.1,0.2,0.3,0.2,0.4c0.3-0.2,0.5-0.4,0.6-0.7c0.1-0.1,0-0.3-0.1-0.3
			c-0.6-0.2-1.2-0.1-1.7,0.3c-0.2,0.2-0.1,0.5,0.2,0.4c0.5-0.1,1.1-0.2,1.6-0.3c0-0.2-0.1-0.3-0.1-0.5c-0.8,0.3-1.5,0.4-2.3,0.4
			c0,0.2,0,0.3,0.1,0.5c0.5-0.1,0.9,0,1.4,0.3c0-0.2,0.1-0.3,0.1-0.4c-0.5,0-1.1-0.1-1.6-0.1C97.6,74.8,97.5,74.8,97.4,75.1
			c-0.2,0-0.2,0.1-0.1,0.2c0.1,0.1,0.2,0.2,0.3,0.2c0.1,0,0.2-0.1,0.2-0.2c0,0,0,0,0,0C98,74.9,97.5,74.8,97.4,75.1L97.4,75.1z"/>
	</g>
</g>
<g>
	<g>
		<path class="st0" d="M99.9,75.1c0,0.2,0.1,0.4,0.2,0.5c0.2,0.1,0.4,0.1,0.5-0.1c-0.1-0.1-0.3-0.2-0.4-0.2c0.1-0.1,0.1-0.1,0.2-0.1
			c0,0,0.1,0.1,0.1,0.1l0.1,0c0.1,0,0.2-0.1,0.3-0.1c0.2-0.1,0.3-0.4,0.2-0.6c-0.1-0.2-0.3-0.2-0.5-0.1s-0.2,0.4,0,0.5
			c0.3,0.2,0.5-0.2,0.2-0.4c0,0,0,0,0,0c0,0,0.1,0.1,0.1,0.1c0,0.2-0.1,0.2-0.2,0.1l0,0c0,0,0,0,0,0c-0.1,0-0.2,0.1-0.2,0.1
			c-0.2,0.1-0.3,0.2-0.3,0.5c0,0.4,0.6,0.5,0.7,0.1c0.1-0.2-0.2-0.4-0.4-0.2c0,0,0,0,0,0c0,0,0,0,0,0c0,0,0,0,0,0.1
			c0-0.1,0-0.2-0.2-0.3C100.1,74.9,99.9,75,99.9,75.1L99.9,75.1z"/>
	</g>
</g>
<g>
	<g>
		<path class="st0" d="M108.2,71.6c-0.1,0.2-0.2,0.3-0.4,0.5c0.1,0.1,0.3,0.2,0.4,0.2c0.2-0.3,0.2-0.6,0.2-0.9
			c0-0.2-0.3-0.3-0.4-0.1c-0.1,0.2-0.2,0.4-0.2,0.7c0,0.2,0.2,0.3,0.4,0.2c0.7-0.6,1.5-1.1,2.3-1.4c-0.1-0.1-0.2-0.3-0.2-0.4
			c-0.4,0.3-0.8,0.5-1.3,0.8c0.1,0.1,0.2,0.2,0.3,0.3c0.1-0.2,0.3-0.3,0.5-0.4c-0.1-0.2-0.1-0.3-0.2-0.4c-0.3,0.2-0.6,0.4-0.9,0.6
			c-0.2,0.1-0.1,0.4,0.1,0.4c0.3,0,0.6-0.1,0.9-0.2c-0.1-0.1-0.2-0.2-0.3-0.4c-0.2,0.2-0.4,0.4-0.7,0.6c0.1,0.1,0.2,0.3,0.2,0.4
			c0.4-0.3,0.7-0.6,1.1-0.9c0.2-0.2,0-0.6-0.2-0.4c-0.4,0.2-0.9,0.5-1.3,0.8c0.1,0.1,0.2,0.3,0.2,0.4c0.9-0.6,1.8-1.2,2.7-1.8
			c-0.1-0.1-0.2-0.2-0.3-0.4c-0.1,0.1-0.3,0.3-0.4,0.4c-0.2,0.2,0.1,0.6,0.3,0.3c0.1-0.1,0.3-0.3,0.4-0.4c0.2-0.2-0.1-0.5-0.3-0.4
			c-0.9,0.6-1.8,1.2-2.7,1.8c-0.2,0.2,0,0.6,0.2,0.4c0.4-0.2,0.9-0.5,1.3-0.8c-0.1-0.1-0.2-0.3-0.2-0.4c-0.4,0.3-0.7,0.6-1.1,0.9
			c-0.2,0.2,0,0.6,0.2,0.4c0.3-0.2,0.6-0.4,0.8-0.7c0.2-0.2-0.1-0.6-0.3-0.4c-0.2,0.2-0.4,0.2-0.7,0.2c0,0.2,0.1,0.3,0.1,0.4
			c0.3-0.2,0.6-0.4,0.9-0.6c0.2-0.2,0.1-0.5-0.2-0.4c-0.4,0.1-0.6,0.3-0.8,0.6c-0.1,0.2,0.1,0.5,0.3,0.3c0.4-0.3,0.8-0.5,1.3-0.8
			c0.3-0.2,0-0.5-0.2-0.4c-0.9,0.4-1.7,0.9-2.4,1.5c0.1,0.1,0.3,0.1,0.4,0.2c0-0.2,0.1-0.3,0.1-0.4c-0.2,0-0.3-0.1-0.4-0.1
			c0,0.2,0,0.5-0.1,0.7c-0.1,0.3,0.2,0.5,0.4,0.2c0.1-0.2,0.2-0.3,0.4-0.5C108.8,71.6,108.4,71.4,108.2,71.6L108.2,71.6z"/>
	</g>
</g>
<g>
	<g>
		<path class="st0" d="M97.7,75c0.1,0.1,0.2,0.1,0.4,0.2c0.1,0.1,0.3,0,0.3-0.1c0.1-0.1,0-0.3-0.1-0.3s-0.2-0.1-0.4-0.2
			s-0.3,0-0.3,0.1C97.5,74.8,97.5,75,97.7,75L97.7,75z"/>
	</g>
</g>
<g>
	<g>
		<path class="st0" d="M77.6,100.2c0.1,0.2,0.2,0.5,0.4,0.7c0.1,0.3,0.6,0,0.4-0.2c-0.1-0.2-0.2-0.5-0.4-0.7
			C77.8,99.7,77.4,99.9,77.6,100.2L77.6,100.2z"/>
	</g>
</g>
<g>
	<g>
		<path class="st0" d="M78.7,99.6c0.1,0.1,0.2,0.3,0.3,0.4c0.2,0.3,0.6,0,0.4-0.2c-0.1-0.1-0.2-0.3-0.3-0.4
			C79,99.1,78.6,99.3,78.7,99.6L78.7,99.6z"/>
	</g>
</g>
<g>
	<g>
		<path class="st0" d="M77.6,102.5c-0.1-0.1-0.3-0.1-0.4-0.2c-0.1,0.1-0.2,0.3-0.2,0.4c2.8,1.3,5.8-1,5.2-4
			c-0.1-0.3-0.5-0.2-0.5,0.1c0.5,2.6-2.1,4.6-4.5,3.5c-0.3-0.1-0.5,0.3-0.2,0.4c0.1,0.1,0.3,0.1,0.4,0.2
			C77.6,103.1,77.8,102.6,77.6,102.5L77.6,102.5z"/>
	</g>
</g>
<g>
	<g>
		<path class="st0" d="M84.9,112.3c0-0.6,0-1.2,0.2-1.8c0-0.2,0.1-0.5,0.2-0.6c0.2-0.4,0.6-0.3,1-0.2c0.2,0,0.8,0,1,0.1
			c0.2,0.2,0,0.5,0,0.7c-0.2,0.6-0.4,1.2-0.6,1.8c-0.1,0.3,0.4,0.4,0.5,0.1c0.2-0.5,0.3-1,0.5-1.6c0.1-0.3,0.3-0.7,0.3-1.1
			c-0.1-0.6-1-0.5-1.5-0.5c-0.7-0.1-1.2-0.2-1.5,0.5c-0.3,0.8-0.4,1.8-0.4,2.6C84.4,112.6,84.9,112.6,84.9,112.3L84.9,112.3z"/>
	</g>
</g>
<g>
	<g>
		<path class="st0" d="M87,111.6c0.4,0.3,1,0.3,1.5,0.1c0.3-0.1,0.2-0.6-0.1-0.5c-0.4,0.2-0.7,0.1-1.1-0.1
			C87,111.1,86.7,111.5,87,111.6L87,111.6z"/>
	</g>
</g>
<g>
	<g>
		<path class="st0" d="M83.5,109.8c0.3,0.1,0.6,0.1,0.9,0.2c0.3,0.1,0.4-0.4,0.1-0.5c-0.3-0.1-0.6-0.1-0.9-0.2
			C83.3,109.3,83.2,109.8,83.5,109.8L83.5,109.8z"/>
	</g>
</g>
<g>
	<g>
		<path class="st0" d="M86.9,109c0-0.1,0.1-0.2,0.1-0.3c-0.1,0-0.2,0-0.3,0c0.8,0.4,1.6,0.6,2.5,0.6c0.3,0,0.3-0.5,0-0.5
			c-0.8,0-1.5-0.1-2.2-0.5c-0.1-0.1-0.2,0-0.3,0c-0.2,0.2-0.3,0.5-0.2,0.8C86.5,109.4,87,109.3,86.9,109L86.9,109z"/>
	</g>
</g>
<g>
	<g>
		<path class="st0" d="M63.5,108.9c1.2-0.5,2.5-0.6,3.8-0.2c0.3,0.1,0.4-0.4,0.1-0.5c-1.4-0.4-2.8-0.3-4.1,0.3
			C63,108.6,63.2,109,63.5,108.9L63.5,108.9z"/>
	</g>
</g>
<g>
	<g>
		<path class="st0" d="M63,107.8c1.1-0.6,2.4-0.7,3.6-0.4c0.3,0.1,0.4-0.4,0.1-0.5c-1.3-0.4-2.7-0.2-4,0.4
			C62.4,107.6,62.7,108,63,107.8L63,107.8z"/>
	</g>
</g>
<g>
	<g>
		<path class="st0" d="M64.8,106.8c0.1-0.8,0.6-1.5,1.2-2c0.2-0.2,0-0.6-0.2-0.4c-0.7,0.6-1.2,1.4-1.4,2.3
			C64.3,106.9,64.8,107.1,64.8,106.8L64.8,106.8z"/>
	</g>
</g>
<g>
	<g>
		<path class="st0" d="M63.2,106.4c0.4-0.1,0.7-0.2,1.1-0.4c0.3-0.1,0.2-0.6-0.1-0.5c-0.4,0.1-0.7,0.2-1.1,0.4
			C62.8,106,63,106.5,63.2,106.4L63.2,106.4z"/>
	</g>
</g>
<g>
	<g>
		<path class="st0" d="M62.7,104.8c0.9-0.3,1.5-1.1,1.6-2.1c0-0.3-0.5-0.3-0.5,0c-0.1,0.7-0.5,1.4-1.2,1.6
			C62.3,104.5,62.4,104.9,62.7,104.8L62.7,104.8z"/>
	</g>
</g>
<g>
	<g>
		<path class="st0" d="M63.5,104.6c0,0.1,0,0.1,0,0.2c0,0.1,0.2,0.2,0.3,0.2c0.1,0,0.2-0.2,0.2-0.3c0-0.1,0-0.1,0-0.2
			c0-0.1-0.2-0.2-0.3-0.2C63.5,104.3,63.5,104.5,63.5,104.6L63.5,104.6z"/>
	</g>
</g>
<g>
	<g>
		<path class="st0" d="M64,104c0.1,0.1,0.2,0.1,0.4,0.2c0.1,0.1,0.3,0,0.3-0.1c0.1-0.1,0-0.3-0.1-0.3c-0.1-0.1-0.2-0.1-0.4-0.2
			c-0.1-0.1-0.3,0-0.3,0.1C63.8,103.8,63.8,104,64,104L64,104z"/>
	</g>
</g>
<g>
	<g>
		<path class="st0" d="M64.3,104.1c0.1-0.4,0.4-0.7,0.8-0.9c0.3-0.1,0-0.5-0.2-0.4c-0.5,0.2-0.9,0.7-1,1.2
			C63.8,104.2,64.3,104.4,64.3,104.1L64.3,104.1z"/>
	</g>
</g>
</svg>
