<?xml version="1.0" encoding="utf-8"?>
<!-- Generator: Adobe Illustrator 24.0.1, SVG Export Plug-In . SVG Version: 6.00 Build 0)  -->
<svg version="1.1" id="Layer_1" xmlns="http://www.w3.org/2000/svg" xmlns:xlink="http://www.w3.org/1999/xlink" x="0px" y="0px"
	 viewBox="0 0 141.7 141.7" style="enable-background:new 0 0 141.7 141.7;" xml:space="preserve">
<style type="text/css">
	.st0{fill:#070707;}
</style>
<g id="Layer_1_1_">
</g>
<g id="Layer_2_1_">
	<g>
		<g>
			<path d="M34.6,114c-6.5-4.7-8.5-13.2-8.4-20.8c0-5,1-10,1.8-14.9c0.8-5.1,1.1-10,0.7-15.2c-0.2-2.9-0.7-5.8-0.8-8.8
				c-0.1-3,0.6-5.9,1.4-8.7c0.2-0.7-0.8-0.9-1-0.3c-0.7,2.5-1.3,5.1-1.4,7.8c-0.1,2.6,0.4,5.3,0.6,7.9c0.2,2.8,0.4,5.5,0.4,8.3
				c0,2.8-0.4,5.6-0.9,8.4c-1.5,8.9-3.1,18.1-0.2,26.8c1.4,4.1,3.8,7.8,7.3,10.3C34.7,115.4,35.2,114.4,34.6,114L34.6,114z"/>
		</g>
	</g>
	<g>
		<g>
			<path d="M66.4,124.2c-8.6-1.4-17.1-3.7-25.2-6.9c-0.6-0.3-0.9,0.8-0.3,1c8.1,3.2,16.6,5.5,25.2,6.9
				C66.8,125.4,67.1,124.3,66.4,124.2L66.4,124.2z"/>
		</g>
	</g>
	<g>
		<g>
			<path d="M90.3,30.5c4.4,7.2,2.1,15.8,1.9,23.7c-0.1,4,0.4,8,1.4,11.9c1,3.8,2.5,7.4,3.9,11c1.4,3.7,2.7,7.4,3.5,11.3
				c0.8,4.1,1.1,8.4,0.9,12.6c0,0.9-0.1,1.9-0.2,2.8c-0.1,0.6-0.1,1.3,0.4,1.8c0.4,0.5,1.1,0.5,1.6,0.7c0.5,0.2,0.9,0.5,1.3,0.8
				c0.5,0.4,1,1.3,0.3,1.6c-0.5,0.2-1.4,0.1-1.9,0.3c-0.6,0.2-1.1,0.5-1.7,0.9c-1.1,0.9-1.9,2.1-2.7,3.3c-1,1.6-1.9,3.1-3.2,4.5
				s-2.7,2.6-4.3,3.6c-3.3,2.1-7.2,3.2-11.1,3.2c-0.7,0-0.7,1.1,0,1.1c6.8,0,13.3-3.3,17.4-8.7c1.7-2.3,3.1-6.4,6.3-7
				c1-0.2,2.8,0,2.8-1.6c-0.1-1.4-1.7-2.6-2.9-3c-0.5-0.2-0.8-0.1-1-0.6c-0.3-0.5-0.1-1.1-0.1-1.7c0.1-1.1,0.2-2.2,0.2-3.3
				c0.1-2.2,0-4.3-0.2-6.5c-0.4-4.1-1.3-8.2-2.6-12.1c-2.7-8-6.5-15.6-6.8-24.2c-0.4-9,3-18.8-2.1-27.1C90.9,29.3,90,29.9,90.3,30.5
				L90.3,30.5z"/>
		</g>
	</g>
	<g>
		<g>
			<path d="M37,27.5c0.4-2.4,2.6-4,4.4-5.3c1.7-1.3,3.6-2.4,5.6-3.4c4.1-2,8.7-3.3,13.3-3.7c7.6-0.6,15.4,1.2,21.7,5.7
				c3.6,2.6,6.4,6,8.5,9.9c0.3,0.6,1.3,0.1,0.9-0.5c-3.9-7.1-10.2-12.4-18-14.7c-8.5-2.6-17.9-1.7-25.9,2c-2.5,1.2-4.9,2.6-7.1,4.3
				c-1.9,1.4-3.9,3.1-4.3,5.5C35.8,27.8,36.9,28.1,37,27.5L37,27.5z"/>
		</g>
	</g>
	<path class="st0" d="M41.4,29.6c-1.6,0.1-2.8,1.4-2.7,2.9c0.1,1.6,1.4,2.8,2.9,2.7c1.6-0.1,2.8-1.4,2.7-2.9
		C44.3,30.7,42.9,29.5,41.4,29.6z M42.7,34.2c-0.4,0-0.8-0.3-0.8-0.8c0-0.5,0.3-0.8,0.8-0.8s0.8,0.3,0.8,0.8
		C43.5,33.8,43.1,34.2,42.7,34.2z"/>
	<g>
		<g>
			<path d="M36.6,25.9c-5.7-1.1-11.5,3.1-13.3,8.4c-0.9,2.5-0.7,5.4,0.8,7.7c1.3,2.1,3.5,3.6,6,3.6c0.3,0,0.3-0.5,0-0.5
				c-2.5-0.1-4.6-1.6-5.8-3.8c-1.2-2.2-1.2-4.9-0.3-7.2c1.9-4.9,7.2-8.7,12.6-7.7C36.8,26.5,37,26,36.6,25.9L36.6,25.9z"/>
		</g>
	</g>
	<g>
		<g>
			<path d="M35,47.7c-1.1-0.3-1.9,0.4-2.9,0.7C30.2,49,30,46.1,30.6,45c0.3-0.6-0.6-1.1-0.9-0.5c-0.8,1.4-0.7,3.3,0.5,4.4
				c0.5,0.5,1.2,0.8,2,0.6c0.8-0.2,1.7-1,2.6-0.8C35.4,48.9,35.7,47.9,35,47.7L35,47.7z"/>
		</g>
	</g>
	<g>
		<path d="M30.1,44.6c0.1,0.5,0.7,0.9,1.3,0.9c0.6,0,1.1-0.2,1.6-0.3c0.9-0.3,1.8-0.7,2.7-1c0.8-0.3,1.7-0.6,2.4-1.3
			c0.6-0.6,1-1.7,0.5-2.5c-0.2-0.4-0.6-0.7-1-0.9c-1.7-0.9-3.9-1-5.5,0.1c-1.6,1.1-2.4,3.3-1.7,5"/>
	</g>
	<g>
		<g>
			<path d="M38,40.7c1.9,0.7,4.1,3.1,2.2,5.1c-1.6,1.6-4.2,1.4-6.3,1.8c-0.7,0.2-0.4,1.2,0.3,1c2.6-0.5,6.4-0.3,7.5-3.3
				c1-2.6-1.3-4.8-3.5-5.7C37.6,39.4,37.4,40.5,38,40.7L38,40.7z"/>
		</g>
	</g>
	<g>
		<g>
			<path d="M37.6,47.8c0.2,1.4,0.3,3-0.4,4.3c-0.2,0.4-0.6,1.1-1.2,0.6c-0.2-0.2-0.3-0.9-0.4-1.2c-0.2-1-0.3-2-0.3-3
				c0-0.7-1.1-0.7-1.1,0c-0.1,1.3,0.1,6.6,2.6,5.5c2.2-1,2-4.2,1.8-6.1C38.6,47.2,37.6,47.1,37.6,47.8L37.6,47.8z"/>
		</g>
	</g>
	<g>
		<g>
			<path d="M36.1,53.2c-2.1-0.2-3.2-2.2-2.4-4.2c0.3-0.6-0.8-0.9-1-0.3c-1.1,2.6,0.7,5.3,3.5,5.5C36.8,54.4,36.8,53.3,36.1,53.2
				L36.1,53.2z"/>
		</g>
	</g>
	<g>
		<g>
			<path class="st0" d="M84.2,68.9c-3.3,0.9-5.9,4.1-7,7.2c-0.8,2.2-0.7,5.1,2.3,5.1c0.3,0,0.3-0.5,0-0.5c-3,0-2.3-3.3-1.4-5.2
				c1.3-2.7,3.4-5.3,6.3-6.1C84.6,69.4,84.5,68.9,84.2,68.9L84.2,68.9z"/>
		</g>
	</g>
	<g>
		<g>
			<path class="st0" d="M80.6,77.8c-0.7,0.9-1.5,2.3-0.9,3.5c0.5,1.1,2,1.1,3,0.8c1.4-0.5,2.3-1.9,2.9-3.1c0.8-1.4,1.4-3,1.6-4.5
				c0.1-0.3-0.5-0.5-0.5-0.2c-0.4,2.2-1.3,4.7-2.9,6.4c-0.7,0.8-2.4,1.7-3.4,0.8c-0.9-0.8,0-2.5,0.6-3.2
				C81.2,77.9,80.9,77.5,80.6,77.8L80.6,77.8z"/>
		</g>
	</g>
	<g>
		<g>
			<path class="st0" d="M37,114.2c2.7-0.5,3.1,3,4.4,4.6c0.1-0.2,0.2-0.3,0.3-0.5c-1.6-0.2-3,0.4-4.4,0.9c-1.7,0.6-3.9,1.5-5-0.5
				c-1.8-3.1,3.6-4.4,5.7-4.7c0.3-0.1,0.2-0.6-0.2-0.5c-2.2,0.4-7.4,1.6-6.3,4.9c1.6,4.8,7.1,0,10.1,0.4c0.3,0,0.4-0.2,0.3-0.5
				c-1.5-1.9-1.8-5.4-5-4.8C36.5,113.7,36.6,114.2,37,114.2L37,114.2z"/>
		</g>
	</g>
	<g>
		<g>
			<path class="st0" d="M32.5,119.1c0-1.5,1.4-2.3,2.7-2.5c0.3-0.1,0.2-0.6-0.2-0.5c-1.6,0.3-3.1,1.3-3.1,3
				C31.9,119.4,32.5,119.4,32.5,119.1L32.5,119.1z"/>
		</g>
	</g>
	<g>
		<g>
			<path class="st0" d="M71.6,121.3c3.6-2.2,5.9,2.5,8.6,4.1c0-0.2,0-0.3,0.1-0.5c-2.2,0.5-3.9,2.2-5.5,3.6
				c-1.7,1.4-4.1,3.6-6.4,2.4c-5.8-3,1.6-8.5,4.5-10.2c0.3-0.2,0-0.6-0.3-0.5c-1.7,1-3.3,2.1-4.6,3.5c-1.2,1.2-2.5,2.8-2.3,4.6
				c0.2,1.7,2,3.1,3.6,3.4c1.8,0.3,3.5-0.9,4.8-2c1.9-1.6,3.8-3.8,6.4-4.3c0.2,0,0.3-0.4,0.1-0.5c-2.9-1.7-5.2-6.5-9.1-4.1
				C71,121,71.3,121.5,71.6,121.3L71.6,121.3z"/>
		</g>
	</g>
	<g>
		<g>
			<path class="st0" d="M68,130.5c-0.8-2.1,0.7-3.9,2.5-5c0.3-0.2,0-0.6-0.3-0.5c-1.9,1.2-3.6,3.3-2.7,5.6
				C67.6,131,68.1,130.9,68,130.5L68,130.5z"/>
		</g>
	</g>
	<g>
		<g>
			<path class="st0" d="M81.7,19.3c3.7-2.7,10-4.7,13.4-0.5c3.1,3.9,2.6,10.9-2.8,12.6c-0.3,0.1-0.2,0.6,0.2,0.5
				c5.5-1.7,6.4-8.7,3.4-13c-3.5-4.9-10.3-3.1-14.5-0.1C81.2,19,81.4,19.5,81.7,19.3L81.7,19.3z"/>
		</g>
	</g>
	<path class="st0" d="M91.6,23.3c-0.2-1.3-1.4-2.2-2.7-2c-1.3,0.2-2.2,1.4-2,2.7c0.2,1.3,1.4,2.2,2.7,2
		C90.9,25.8,91.8,24.6,91.6,23.3z"/>
	<path class="st0" d="M25.7,32.9c-1.6,0.1-2.8,1.4-2.7,2.9c0.1,1.6,1.4,2.8,2.9,2.7c1.6-0.1,2.8-1.4,2.7-2.9
		C28.5,34.1,27.2,32.8,25.7,32.9z M27,37.5c-0.4,0-0.8-0.3-0.8-0.8c0-0.5,0.3-0.8,0.8-0.8c0.5,0,0.8,0.3,0.8,0.8
		C27.7,37.1,27.4,37.5,27,37.5z"/>
	<g>
		<g>
			<path d="M35.7,39.4c-2.3-2.7-2.1-6.7-0.2-9.6c2-2.9,5.4-4.5,8.8-5.1c2.2-0.3,4.3-0.2,6.3,0.8c1.7,0.9,3.4,2.2,4.4,3.8
				c2,3.2,0.5,7.8-1.9,10.5c-2.8,3.2-7.4,4.4-11.4,3.2c-0.3-0.1-0.5,0.4-0.2,0.5c3.9,1.1,8.3,0.2,11.3-2.6c2.7-2.6,4.5-7.1,3.2-10.7
				c-0.7-1.8-2.2-3.2-3.8-4.2c-1.9-1.3-3.9-2-6.3-1.9c-3.9,0.2-8,1.7-10.5,4.8c-2.5,3.1-2.9,7.8-0.2,11C35.5,40,35.9,39.7,35.7,39.4
				L35.7,39.4z"/>
		</g>
	</g>
	<g>
		<g>
			<path class="st0" d="M25.3,67.9c-2.7,0.1-5.5,0.8-7.6,2.5c-1.6,1.3-2.4,3.3-0.6,4.8c0.3,0.2,0.6-0.2,0.4-0.4
				c-2.1-1.7-0.1-3.7,1.6-4.7c1.9-1.1,4-1.7,6.2-1.7C25.7,68.5,25.7,67.9,25.3,67.9L25.3,67.9z"/>
		</g>
	</g>
	<g>
		<g>
			<path class="st0" d="M20.3,73.3c-1.7,0.4-4,2-2.3,3.8c1.9,2,5.2,0.4,7.1-0.7c0.3-0.2,0-0.6-0.3-0.5c-1.5,0.9-3.6,1.9-5.4,1.4
				c-1.1-0.3-2-1.5-1-2.5c0.5-0.5,1.3-0.9,2-1C20.7,73.8,20.6,73.2,20.3,73.3L20.3,73.3z"/>
		</g>
	</g>
	<g>
		<g>
			<path class="st0" d="M27.3,62.7c-2.9,5.7-3.4,12.4-1.4,18.4c0.2,0.5,0.9,0.3,0.8-0.2c-2-5.8-1.5-12.3,1.3-17.8
				C28.3,62.7,27.6,62.3,27.3,62.7L27.3,62.7z"/>
		</g>
	</g>
	<g>
		<g>
			<path class="st0" d="M59.3,14.5c0.8-3.2,4.8-4.6,7.8-4.1c3,0.5,5.4,2.7,6.3,5.6c0.1,0.3,0.6,0.2,0.5-0.2c-0.9-3.1-3.6-5.6-6.9-6
				c-3.2-0.4-7.4,1.1-8.2,4.5C58.7,14.7,59.3,14.8,59.3,14.5L59.3,14.5z"/>
		</g>
	</g>
</g>
<g id="Layer_3">
	<g>
		<g>
			<path class="st0" d="M110.9,48.3c3,0.5,3.5,3.9,3.9,6.4c0.4,2.3,0.9,4.5,1.6,6.7c0.7,2.2,1.6,4.3,2.8,6.2
				c1.2,1.9,2.8,3.6,4.3,5.4c1.6,1.9,3.2,3.9,4.5,6.1c1.2,2.1,2.3,4.6,2.2,7.1c-0.1,2.7-2,4.6-4.1,6.1c-2,1.4-4.1,2.6-6.3,3.6
				c-5,2.2-11.9,4-17.1,1.2c-0.3-0.2-0.6,0.3-0.3,0.5c4.6,2.5,10.5,1.4,15.2-0.3c2.5-0.9,4.9-2.1,7.2-3.5c1.9-1.2,3.9-2.6,5.1-4.7
				c2.4-4.4-0.9-9.9-3.6-13.4c-1.6-2-3.3-3.9-4.9-5.9c-1.8-2.2-3.1-4.7-4.1-7.4c-1-2.7-1.6-5.6-2-8.4c-0.4-2.5-1.2-5.5-4.1-6
				C110.7,47.7,110.5,48.2,110.9,48.3L110.9,48.3z"/>
		</g>
	</g>
	<g>
		<g>
			<path class="st0" d="M93.2,53.9c1.4-3.5,3.6-6.6,6.6-8.8c0.3-0.2,0-0.7-0.3-0.5c-3.1,2.4-5.4,5.5-6.9,9.1
				C92.6,54.1,93.1,54.2,93.2,53.9L93.2,53.9z"/>
		</g>
	</g>
	<g>
		<g>
			<path class="st0" d="M83,69.8c0.6-6,2.9-12.9,9.3-14.7c0.5-0.1,0.3-0.9-0.2-0.8c-6.9,1.9-9.3,9.1-9.9,15.5
				C82.1,70.3,82.9,70.3,83,69.8L83,69.8z"/>
		</g>
	</g>
	<g>
		<g>
			<path class="st0" d="M84.4,69.3c0.7-4.9,3.8-9.2,8.2-11.4c0.5-0.2,0.1-0.9-0.4-0.7c-4.6,2.3-7.8,6.8-8.5,11.9
				C83.5,69.5,84.3,69.8,84.4,69.3L84.4,69.3z"/>
		</g>
	</g>
	<g>
		<g>
			<path class="st0" d="M86.5,75.1c1.2,4.5,3.1,8.8,5.9,12.6c2.1,2.9,5.6,7.7,9.7,5.8c0.5-0.2,0.1-0.9-0.4-0.7
				c-2.2,1-4.3-0.6-5.8-2.2c-1.4-1.5-2.7-3.1-3.8-4.9c-2.2-3.4-3.8-7.1-4.8-10.9C87.2,74.4,86.4,74.6,86.5,75.1L86.5,75.1z"/>
		</g>
	</g>
	<g>
		<g>
			<path class="st0" d="M85,79.2c2.6,7.8,7.1,18.8,16.6,19.7c0.5,0,0.5-0.8,0-0.8c-4.4-0.4-7.8-3.4-10.2-6.9
				c-2.5-3.7-4.2-7.9-5.6-12.2C85.6,78.5,84.8,78.7,85,79.2L85,79.2z"/>
		</g>
	</g>
	<g>
		<g>
			<path class="st0" d="M102,92.9c5.6,1.3,11.2-0.8,16.2-3.3c2.4-1.2,4.7-2.6,6.5-4.7c1.7-1.9,2.8-4.1,3.4-6.5
				c0.1-0.3-0.4-0.5-0.5-0.2c-0.6,2.4-1.8,4.7-3.5,6.6c-1.7,1.9-3.9,3.2-6.1,4.3c-4.8,2.5-10.3,4.5-15.8,3.3
				C101.8,92.3,101.7,92.8,102,92.9L102,92.9z"/>
		</g>
	</g>
	<g>
		<g>
			<path class="st0" d="M93,57.8c1.5-3.6,3.8-6.8,7-9.1c0.3-0.2,0-0.7-0.3-0.5c-3.3,2.4-5.8,5.6-7.3,9.4C92.4,58,92.9,58.1,93,57.8
				L93,57.8z"/>
		</g>
	</g>
	<g>
		<g>
			<path class="st0" d="M99,42.7c-1.6,0.7-3.2,1.7-5,1.4c-0.3,0-0.5,0.5-0.2,0.5c2,0.3,3.6-0.7,5.4-1.5C99.5,43,99.3,42.5,99,42.7
				L99,42.7z"/>
		</g>
	</g>
	<g>
		<g>
			<path class="st0" d="M100.2,44.9c-0.5-3.4-1-6.8-1.5-10.2c-0.1,0.1-0.3,0.3-0.4,0.4c4.5-0.1,8.9-1.9,12.1-5
				c1.4-1.3,5-5.6,1.6-6.9c-2.2-0.8-5.1,0.7-7,1.6c-1.4,0.6-8.6,3.7-4.8,5.7c1.6,0.8,3.8,0.4,5.3-0.3c1.9-0.8,3.5-2.3,4.4-4.2
				c0.2-0.3-0.1-0.7-0.5-0.6c-1.9,0.5-3.7,1.5-5.2,2.8c-0.4,0.3,0.2,0.9,0.6,0.6c1.4-1.2,3.1-2.1,4.9-2.6c-0.2-0.2-0.3-0.4-0.5-0.6
				c-1.3,2.7-4.1,4.6-7.2,4.5c-0.4,0-0.8,0-1.1-0.2c-0.5-0.2-1.1-0.6-0.9-1.1c0.3-0.7,1.8-1.4,2.5-1.8c1-0.6,2.1-1.1,3.1-1.6
				c1.6-0.7,3.6-1.6,5.5-1.5c1.3,0.1,1.7,1,1.4,2.2c-0.5,1.5-1.8,2.8-3,3.8c-3.1,2.8-7.1,4.3-11.2,4.4c-0.2,0-0.4,0.2-0.4,0.4
				c0.5,3.5,1,6.9,1.5,10.4C99.5,45.6,100.3,45.4,100.2,44.9L100.2,44.9z"/>
		</g>
	</g>
	<g>
		<g>
			<path class="st0" d="M105.7,74c-2.1-9.6-3.9-19.2-5.4-28.9c-0.1-0.5-0.9-0.3-0.8,0.2c1.5,9.7,3.3,19.3,5.4,28.9
				C105,74.7,105.8,74.5,105.7,74L105.7,74z"/>
		</g>
	</g>
	<g>
		<g>
			<path class="st0" d="M112.8,25.3c-2.8,15.9-3.1,32.2-1.1,48.2c0.1,0.5,0.9,0.5,0.8,0c-2-16-1.7-32.2,1-48
				C113.7,25,112.9,24.8,112.8,25.3L112.8,25.3z"/>
		</g>
	</g>
	<g>
		<g>
			<path class="st0" d="M99.8,74.4c-0.8,2.2,4.2,1.2,5.2,1c2.3-0.5,4.6-1.2,6.8-2.2c1.9-0.9,4.1-2.1,5-4c0.2-0.5-0.5-0.9-0.7-0.4
				c-0.8,1.7-2.6,2.7-4.2,3.5c-1.7,0.9-3.5,1.5-5.3,2c-1.2,0.3-2.3,0.6-3.5,0.8c-0.3,0-2.7,0.3-2.5-0.3
				C100.8,74.1,100,73.9,99.8,74.4L99.8,74.4z"/>
		</g>
	</g>
	<g>
		<g>
			<path class="st0" d="M100.5,76c0.9,1.9,1.5,3.8,1.9,5.8c0.3,1.7,0.3,3.6,0.9,5.2c1.2,3.1,4.2,2.5,6.8,1.8c3.6-1.1,7-2.6,10.3-4.3
				c2.1-1.1,5.5-2.7,4.1-5.6c-0.8-1.7-2.2-3.3-3.5-4.8c-1.4-1.6-2.8-3.1-4.4-4.5c-0.3-0.2-0.6,0.2-0.4,0.4c1.5,1.4,2.9,2.8,4.2,4.4
				c1.2,1.4,2.7,3.1,3.5,4.8c1.1,2.4-1.7,3.6-3.4,4.6c-1.8,1-3.7,1.9-5.6,2.7c-1.8,0.8-3.7,1.4-5.6,2c-2.1,0.6-4.5,0.9-5.5-1.6
				c-0.7-1.7-0.6-3.6-0.9-5.4c-0.4-2-1.1-3.9-1.9-5.8C100.8,75.4,100.4,75.7,100.5,76L100.5,76z"/>
		</g>
	</g>
	<g>
		<g>
			<path class="st0" d="M104.7,74.7c0.4,1.9,0.7,3.8,1,5.7c0.2,1.1,0.3,2.2,0.4,3.2c0.1,0.7,0,1.7,0.3,2.4c0.4,0.7,1.3,0.7,2,0.6
				c1.8-0.3,3.6-0.9,5.3-1.5c1.3-0.5,3-1,4-1.9c0.9-0.8-0.1-1.3-0.8-1.8c-2.5-2-4.2-5-4.8-8.2c-0.1-0.3-0.6-0.2-0.5,0.2
				c0.4,2.3,1.4,4.4,2.8,6.2c0.4,0.5,0.8,0.9,1.2,1.3c0.4,0.4,0.9,0.7,1.3,1.1c0.3,0.3,0.5,0.6,0.1,1c-0.2,0.2-0.5,0.3-0.8,0.5
				c-0.7,0.4-1.5,0.7-2.3,1c-1.4,0.5-2.8,0.9-4.2,1.3c-0.6,0.2-1.5,0.6-2.1,0.4c-0.9-0.2-0.8-1.7-0.9-2.5c-0.3-3.1-0.8-6.1-1.4-9.1
				C105.2,74.2,104.6,74.3,104.7,74.7L104.7,74.7z"/>
		</g>
	</g>
	<g>
		<g>
			<path class="st0" d="M99.1,29.4c0.4,1.6,0.9,3.1,1.5,4.6c0.2,0.5,1,0.3,0.8-0.2c-0.6-1.5-1.1-3-1.5-4.6
				C99.8,28.7,99,28.9,99.1,29.4L99.1,29.4z"/>
		</g>
	</g>
	<g>
		<g>
			<path class="st0" d="M109,26.1c-0.2,1.5-0.4,3-0.6,4.5c-0.1,0.5,0.7,0.7,0.8,0.2c0.2-1.5,0.4-3,0.6-4.5
				C109.8,25.9,109,25.6,109,26.1L109,26.1z"/>
		</g>
	</g>
	<g>
		<g>
			<path class="st0" d="M104.2,28.9c0,0.2,0.1,0.5,0.1,0.7c0,0.2,0.3,0.3,0.5,0.3c0.2-0.1,0.3-0.3,0.3-0.5c0-0.2-0.1-0.5-0.1-0.7
				c0-0.2-0.3-0.3-0.5-0.3C104.2,28.5,104.1,28.7,104.2,28.9L104.2,28.9z"/>
		</g>
	</g>
	<g>
		<g>
			<path class="st0" d="M102.3,75.5c-0.4,0.9-0.7,1.7-1.1,2.6c-0.1,0.3,0.3,0.6,0.5,0.3c0.4-0.9,0.7-1.7,1.1-2.6
				C102.9,75.5,102.4,75.2,102.3,75.5L102.3,75.5z"/>
		</g>
	</g>
	<g>
		<g>
			<path class="st0" d="M104.2,75.1c-0.8,1.4-1.4,2.9-2,4.4c-0.1,0.3,0.4,0.5,0.5,0.2c0.5-1.5,1.2-2.9,1.9-4.2
				C104.9,75,104.4,74.8,104.2,75.1L104.2,75.1z"/>
		</g>
	</g>
	<g>
		<g>
			<path class="st0" d="M106.1,74.9c-1.2,2.9-2.3,5.7-3.5,8.6c-0.1,0.3,0.4,0.5,0.5,0.2c1.2-2.9,2.3-5.7,3.5-8.6
				C106.8,74.7,106.3,74.6,106.1,74.9L106.1,74.9z"/>
		</g>
	</g>
	<g>
		<g>
			<path class="st0" d="M108.6,74.1c-1.4,4-3.1,8-5,11.8c-0.2,0.3,0.3,0.6,0.5,0.3c2-3.8,3.7-7.8,5.1-11.9
				C109.2,73.9,108.7,73.7,108.6,74.1L108.6,74.1z"/>
		</g>
	</g>
	<g>
		<g>
			<path class="st0" d="M111.4,72.8c-1.7,5.2-4,10.3-6.6,15.2c-0.2,0.3,0.3,0.6,0.5,0.3c2.7-4.9,4.9-10,6.6-15.3
				C112,72.6,111.5,72.5,111.4,72.8L111.4,72.8z"/>
		</g>
	</g>
	<g>
		<g>
			<path class="st0" d="M113.7,71.7c-1,5.8-2.8,11.5-5.4,16.7c-0.2,0.3,0.3,0.6,0.5,0.3c2.7-5.3,4.5-11,5.5-16.9
				C114.3,71.5,113.8,71.4,113.7,71.7L113.7,71.7z"/>
		</g>
	</g>
	<g>
		<g>
			<path class="st0" d="M116.2,70c-1.2,6.2-3,12.2-5.4,18.1c-0.1,0.3,0.4,0.5,0.5,0.2c2.4-5.8,4.2-11.9,5.4-18.1
				C116.8,69.8,116.3,69.7,116.2,70L116.2,70z"/>
		</g>
	</g>
	<g>
		<g>
			<path class="st0" d="M118.3,72.3c-1.4,5-3,10-4.9,14.9c-0.1,0.3,0.4,0.5,0.5,0.2c1.9-4.9,3.5-9.9,4.9-14.9
				C119,72.1,118.4,72,118.3,72.3L118.3,72.3z"/>
		</g>
	</g>
	<g>
		<g>
			<path class="st0" d="M120.1,74.1c-0.4,3.8-1.4,7.4-2.9,10.9c-0.1,0.3,0.3,0.6,0.5,0.3c1.5-3.6,2.5-7.3,2.9-11.1
				C120.6,73.8,120.1,73.8,120.1,74.1L120.1,74.1z"/>
		</g>
	</g>
	<g>
		<g>
			<path class="st0" d="M122,76.7c-0.7,2.4-1.3,4.7-2,7.1c-0.1,0.3,0.4,0.5,0.5,0.2c0.7-2.4,1.3-4.7,2-7.1
				C122.6,76.5,122.1,76.4,122,76.7L122,76.7z"/>
		</g>
	</g>
	<g>
		<g>
			<path class="st0" d="M123.4,77.9c-0.4,1.7-0.9,3.3-1.3,5c-0.1,0.3,0.4,0.5,0.5,0.2c0.4-1.7,0.9-3.3,1.3-5
				C124,77.7,123.5,77.6,123.4,77.9L123.4,77.9z"/>
		</g>
	</g>
	<g>
		<g>
			<path class="st0" d="M102.5,83.1c1.6,2.4,3.6,4.4,6.1,6c0.3,0.2,0.6-0.3,0.3-0.5c-2.4-1.4-4.4-3.4-6-5.8
				C102.7,82.6,102.3,82.8,102.5,83.1L102.5,83.1z"/>
		</g>
	</g>
	<g>
		<g>
			<path class="st0" d="M101.7,78.7c2.8,3.9,6.3,7.1,10.5,9.3c0.3,0.2,0.6-0.3,0.3-0.5c-4.1-2.2-7.6-5.3-10.3-9.1
				C102,78.2,101.5,78.5,101.7,78.7L101.7,78.7z"/>
		</g>
	</g>
	<g>
		<g>
			<path class="st0" d="M103,76.1c3.5,4.2,7.7,7.8,12.5,10.5c0.3,0.2,0.6-0.3,0.3-0.5c-4.7-2.7-8.9-6.2-12.4-10.4
				C103.1,75.4,102.7,75.8,103,76.1L103,76.1z"/>
		</g>
	</g>
	<g>
		<g>
			<path class="st0" d="M106,75.2c4,3.1,6.8,7.8,11.5,10c0.3,0.2,0.6-0.3,0.3-0.5c-4.6-2.3-7.4-6.9-11.3-10
				C106.1,74.6,105.7,75,106,75.2L106,75.2z"/>
		</g>
	</g>
	<g>
		<g>
			<path class="st0" d="M109.4,73.8c4.2,3.1,8.4,6.2,12.8,9c0.3,0.2,0.6-0.3,0.3-0.5c-4.4-2.9-8.6-5.9-12.8-9
				C109.4,73.1,109.1,73.6,109.4,73.8L109.4,73.8z"/>
		</g>
	</g>
	<g>
		<g>
			<path class="st0" d="M113.4,72.4c3,2.1,6.2,3.9,9.5,5.6c0.3,0.2,0.6-0.3,0.3-0.5c-3.3-1.6-6.5-3.5-9.5-5.6
				C113.4,71.8,113.1,72.2,113.4,72.4L113.4,72.4z"/>
		</g>
	</g>
	<g>
		<g>
			<path class="st0" d="M111.3,42c5.4,1.9,6.9,8.1,8,13.1c0.8,3.8,2,10.1,6.7,10.7c0-0.2-0.1-0.3-0.1-0.5c-1.6,1.4-3.4,2.5-5.4,3.1
				c-0.3,0.1-0.2,0.6,0.2,0.5c2.1-0.7,4-1.8,5.6-3.3c0.1-0.1,0.1-0.4-0.1-0.5c-2.6-0.4-4.1-2.8-5-5.1c-1-2.7-1.4-5.6-2.1-8.4
				c-1.1-4.2-3.2-8.8-7.6-10.3C111.2,41.4,111,41.9,111.3,42L111.3,42z"/>
		</g>
	</g>
	<g>
		<g>
			<path class="st0" d="M24.9,82.5c0.6,0.2,1,0.6,1.1,1.2c0,0.3,0.6,0.2,0.5-0.2c-0.1-0.8-0.7-1.4-1.4-1.6
				C24.7,81.9,24.6,82.5,24.9,82.5L24.9,82.5z"/>
		</g>
	</g>
	<g>
		<g>
			<path class="st0" d="M84.8,69.4c0.5-0.4,0.9-0.8,1.5-1.1c-0.1-0.1-0.3-0.2-0.4-0.2c0.1,0.8-0.7,1.8,0.2,2.4
				c0.6,0.3,1.3,0.4,1.9,0.8c0.8,0.5,1.4,1.2,2,2c0.2-0.1,0.3-0.2,0.4-0.3c-0.8-0.6-1.6-0.8-2.5-0.3c-0.1,0.1-0.2,0.3-0.1,0.4
				c0.6,0.9,0.8,1.9,0.7,3c0.2,0,0.3-0.1,0.5-0.1c-0.4-0.8-1-1.3-1.9-1.6c-0.3-0.1-0.5,0.4-0.2,0.5c0.7,0.2,1.2,0.6,1.6,1.3
				c0.1,0.3,0.5,0.1,0.5-0.1c0-1.2-0.2-2.2-0.8-3.3c0,0.1-0.1,0.2-0.1,0.4c0.7-0.3,1.3-0.2,1.9,0.3c0.2,0.2,0.6,0,0.4-0.3
				c-0.6-1-1.4-1.8-2.4-2.4c-0.5-0.3-1.7-0.5-1.7-1.2c0-0.4,0.2-0.9,0.2-1.3c0-0.2-0.2-0.3-0.4-0.2c-0.6,0.3-1.1,0.7-1.6,1.2
				C84.2,69.2,84.6,69.6,84.8,69.4L84.8,69.4z"/>
		</g>
	</g>
	<g>
		<g>
			<path class="st0" d="M85.6,68.3c-0.3,0,0.9-2.9,1-3.1c0.5-1,1.1-1.9,1.8-2.7c1.3-1.6,2.9-3,4.7-4.1c0.3-0.2,0-0.6-0.3-0.5
				c-2.4,1.4-4.4,3.3-5.9,5.7c-0.4,0.6-3.1,5.1-1.3,5.2C85.9,68.9,85.9,68.3,85.6,68.3L85.6,68.3z"/>
		</g>
	</g>
	<g>
		<g>
			<path class="st0" d="M86.1,76.8c0.6,2.2,1.6,4.3,2.6,6.4c1.1,2.1,2.1,4.2,3.5,6.1c2.3,3.2,5.9,5.8,10,5.5c0.3,0,0.3-0.6,0-0.5
				c-4.4,0.3-7.9-2.7-10.2-6.1c-1.1-1.7-2-3.5-2.9-5.2c-1-2-2-4.1-2.6-6.2C86.5,76.3,85.9,76.5,86.1,76.8L86.1,76.8z"/>
		</g>
	</g>
	<g>
		<g>
			<path class="st0" d="M111.4,43.3c2.2,1,3.4,3.1,4.3,5.2c1,2.5,1.7,5.2,2.3,7.9c0.9,3.8,1.6,10,6.7,10.2c0.3,0,0.3-0.5,0-0.5
				c-2.8-0.1-4.4-2.8-5.2-5.2c-0.7-2.6-1.1-5.2-1.9-7.8c-1-3.6-2.1-8.5-6-10.2C111.3,42.7,111,43.1,111.4,43.3L111.4,43.3z"/>
		</g>
	</g>
	<g>
		<g>
			<path class="st0" d="M92.9,51.7c1-1.4,2-2.7,3.1-4c1-1.2,2.1-2.8,3.6-3.4c0.3-0.1,0.2-0.6-0.2-0.5c-1.5,0.6-2.6,2-3.6,3.2
				c-1.2,1.4-2.4,2.9-3.5,4.4C92.3,51.8,92.7,52,92.9,51.7L92.9,51.7z"/>
		</g>
	</g>
	<g>
		<g>
			<path class="st0" d="M126.9,80.8c1.5,2.7,2.1,5.6,1.9,8.7c0,0.3,0.5,0.3,0.5,0c0.2-3.1-0.5-6.2-2-8.9
				C127.2,80.3,126.7,80.5,126.9,80.8L126.9,80.8z"/>
		</g>
	</g>
	<g>
		<g>
			<path class="st0" d="M119.8,88.3c1.1,2,1.6,4.2,1.6,6.5c0,0.3,0.5,0.3,0.5,0c0-2.4-0.6-4.7-1.7-6.8
				C120.1,87.8,119.7,88,119.8,88.3L119.8,88.3z"/>
		</g>
	</g>
	<g>
		<g>
			<path class="st0" d="M108.6,92.6c-0.6,2.2,0,4.6,1.8,6.1c0.3,0.2,0.6-0.2,0.4-0.4c-1.6-1.4-2.2-3.6-1.6-5.6
				C109.2,92.5,108.7,92.3,108.6,92.6L108.6,92.6z"/>
		</g>
	</g>
	<g>
		<g>
			<path class="st0" d="M102.7,38.1c3.4-0.5,6.4-1.9,9.1-4.1c0.3-0.2-0.1-0.6-0.4-0.4c-2.5,2.1-5.6,3.5-8.8,4
				C102.2,37.6,102.4,38.1,102.7,38.1L102.7,38.1z"/>
		</g>
	</g>
	<g>
		<g>
			<path class="st0" d="M102.6,37.8c2.2,14.9,4.4,29.8,6.6,44.7c0,0.2,0.2,0.2,0.3,0.2c2-0.6,4.1-1.3,6.1-1.9
				c0.3-0.1,0.2-0.6-0.2-0.5c-2,0.6-4.1,1.3-6.1,1.9c0.1,0.1,0.2,0.1,0.3,0.2c-2.2-14.9-4.4-29.8-6.6-44.7
				C103.1,37.3,102.6,37.4,102.6,37.8L102.6,37.8z"/>
		</g>
	</g>
	<g>
		<g>
			<path class="st0" d="M106.1,52.2c0-0.7,0.1-1.4,0.4-2c0.2-0.3-0.3-0.6-0.5-0.3c-0.3,0.7-0.5,1.5-0.5,2.3
				C105.6,52.5,106.1,52.5,106.1,52.2L106.1,52.2z"/>
		</g>
	</g>
	<g>
		<g>
			<path class="st0" d="M107,48.4c0.3-0.6,0.5-1.3,0.8-2c0.1-0.3-0.4-0.5-0.5-0.2c-0.3,0.6-0.5,1.3-0.8,2
				C106.4,48.6,106.9,48.7,107,48.4L107,48.4z"/>
		</g>
	</g>
	<g>
		<g>
			<path class="st0" d="M108.9,44.5c0.3-0.9,0.7-1.7,1.3-2.5c0.2-0.3-0.3-0.5-0.5-0.3c-0.6,0.8-1.1,1.7-1.4,2.6
				C108.2,44.7,108.8,44.8,108.9,44.5L108.9,44.5z"/>
		</g>
	</g>
	<g>
		<g>
			<path class="st0" d="M107.4,60.9c0-0.3,0.1-0.7,0.2-1c0-0.1,0.1-0.5,0.2-0.5c0.2-0.1,0.5,0,0.6,0.2c0.2,0.5,0.1,0.9,0.5,1.3
				c0.5,0.6,1.4,0.5,1.7-0.2c0.1-0.3-0.4-0.5-0.5-0.2c-0.1,0.1-0.2,0.2-0.3,0.2c-0.2,0-0.4-0.1-0.4-0.3c-0.1-0.2-0.1-0.3-0.2-0.4
				c0-0.2-0.1-0.5-0.1-0.7c-0.1-0.3-0.3-0.6-0.7-0.7c-1-0.2-1.3,1.6-1.4,2.2C106.9,61.1,107.4,61.2,107.4,60.9L107.4,60.9z"/>
		</g>
	</g>
	<g>
		<g>
			<path class="st0" d="M107.7,52.2c0.6,0.4,1.1,0.9,1.3,1.6c0.1,0.3,0.6,0.2,0.5-0.2c-0.3-0.8-0.9-1.4-1.6-1.9
				C107.7,51.5,107.4,52,107.7,52.2L107.7,52.2z"/>
		</g>
	</g>
	<g>
		<g>
			<path class="st0" d="M108.2,54.6c0-1,0.4-1.9,1.1-2.6c0.2-0.3-0.2-0.6-0.4-0.4c-0.8,0.8-1.2,1.8-1.3,3
				C107.6,54.9,108.2,54.9,108.2,54.6L108.2,54.6z"/>
		</g>
	</g>
	<g>
		<g>
			<path class="st0" d="M108.4,55.1c0.1,0.2,0.2,0.4,0.2,0.6c0.1,0.3,0.6,0.2,0.5-0.2c-0.1-0.2-0.2-0.4-0.2-0.6
				C108.8,54.6,108.3,54.7,108.4,55.1L108.4,55.1z"/>
		</g>
	</g>
	<g>
		<g>
			<path class="st0" d="M109,57.1c0.1,0.2,0.2,0.3,0.2,0.4c0.1,0.1,0.2,0.2,0.4,0.1c0.1-0.1,0.2-0.2,0.1-0.4
				c-0.1-0.2-0.2-0.3-0.2-0.4c-0.1-0.1-0.2-0.2-0.4-0.1C109,56.8,109,57,109,57.1L109,57.1z"/>
		</g>
	</g>
	<g>
		<g>
			<path class="st0" d="M108.9,72.8c-0.1-0.5,0-1.1,0.2-1.6c0.1-0.3-0.4-0.5-0.5-0.2c-0.2,0.6-0.3,1.3-0.2,1.9
				C108.5,73.3,109,73.1,108.9,72.8L108.9,72.8z"/>
		</g>
	</g>
	<g>
		<g>
			<path class="st0" d="M109.6,69.4c0-0.3,0.1-0.6,0.4-0.9c0.2-0.3-0.2-0.6-0.4-0.4c-0.3,0.3-0.5,0.8-0.5,1.3
				C109,69.8,109.6,69.8,109.6,69.4L109.6,69.4z"/>
		</g>
	</g>
	<g>
		<g>
			<path class="st0" d="M94.1,55.3c2.5-0.5,4.9-1.4,7-2.8c0.3-0.2,0-0.7-0.3-0.5c-2.1,1.4-4.4,2.3-6.8,2.8
				C93.6,54.8,93.7,55.3,94.1,55.3L94.1,55.3z"/>
		</g>
	</g>
	<g>
		<g>
			<path class="st0" d="M102.6,96.9c10.1,2.7,21.3-2.9,27.5-10.8c0.2-0.3-0.2-0.6-0.4-0.4c-6,7.8-17,13.3-26.9,10.7
				C102.4,96.3,102.3,96.8,102.6,96.9L102.6,96.9z"/>
		</g>
	</g>
	<g>
		<g>
			<path class="st0" d="M119.7,68.2c1.5-0.5,3-1.1,4.4-1.8c0.3-0.2,0-0.6-0.3-0.5c-1.4,0.7-2.8,1.3-4.2,1.7
				C119.3,67.8,119.4,68.3,119.7,68.2L119.7,68.2z"/>
		</g>
	</g>
	<g>
		<g>
			<path class="st0" d="M100.2,74.9c1.5-0.1,3-0.3,4.4-0.9c0.3-0.1,0.2-0.6-0.2-0.5c-1.4,0.5-2.8,0.8-4.2,0.9
				C99.9,74.4,99.9,74.9,100.2,74.9L100.2,74.9z"/>
		</g>
	</g>
	<g>
		<g>
			<path class="st0" d="M112.1,71.7c1.5-0.9,3-1.7,4.5-2.6c0.3-0.2,0-0.6-0.3-0.5c-1.5,0.9-3,1.7-4.5,2.6
				C111.5,71.4,111.8,71.8,112.1,71.7L112.1,71.7z"/>
		</g>
	</g>
	<g>
		<g>
			<path class="st0" d="M25.9,99.9c-1.2,1.1-2.3,2.2-3.5,3.4c-0.2,0.2,0.1,0.6,0.4,0.4c1.1-1.1,2.3-2.3,3.5-3.4
				C26.6,100.1,26.2,99.7,25.9,99.9L25.9,99.9z"/>
		</g>
	</g>
	<g>
		<g>
			<path class="st0" d="M22.2,85.1c-2.9,2.8-5.7,5.6-8.6,8.4c-0.3,0.2,0.1,0.6,0.4,0.4c2.9-2.8,5.7-5.6,8.6-8.4
				C22.9,85.2,22.5,84.8,22.2,85.1L22.2,85.1z"/>
		</g>
	</g>
	<g>
		<g>
			<path class="st0" d="M16.6,92.6c-0.1-0.1-0.2-0.2-0.3-0.4c-0.1-0.1-0.1-0.1-0.2-0.2c0,0,0,0,0,0c0,0,0-0.1,0,0c0,0,0,0,0,0
				c0,0,0,0.1,0,0.1c0,0,0,0.1,0,0.1c0,0,0,0,0,0c0,0-0.1,0-0.1,0.1c-0.1,0-0.2,0-0.1,0c0,0-0.1,0,0,0s0,0,0,0c0,0,0.1,0.1,0.2,0.1
				c0.1,0.1,0.3,0,0.4-0.1c0.1-0.1,0-0.3-0.1-0.4c-0.2-0.1-0.3-0.3-0.5-0.2c-0.2,0.1-0.1,0.4,0,0.5c0.2,0.2,0.4,0.4,0.6,0.6
				C16.5,93.2,16.9,92.8,16.6,92.6L16.6,92.6z"/>
		</g>
	</g>
	<g>
		<g>
			<path class="st0" d="M25.9,90.8c-1.4-1.7-2.6-3.5-3.8-5.3c-0.2-0.3-0.6,0-0.5,0.3c1.2,1.9,2.5,3.7,3.9,5.4
				C25.7,91.5,26.1,91.1,25.9,90.8L25.9,90.8z"/>
		</g>
	</g>
	<g>
		<g>
			<path class="st0" d="M25.9,86.9c-0.9-0.8-1.8-1.7-2.7-2.5c-0.3-0.2-0.6,0.2-0.4,0.4c0.9,0.8,1.8,1.6,2.7,2.5
				C25.7,87.5,26.1,87.1,25.9,86.9L25.9,86.9z"/>
		</g>
	</g>
	<g>
		<g>
			<path class="st0" d="M22.5,103c-3.4-2.6-6.4-5.7-8.7-9.4c-0.2-0.3-0.6,0-0.5,0.3c2.4,3.7,5.4,6.9,8.9,9.6
				C22.5,103.7,22.8,103.2,22.5,103L22.5,103z"/>
		</g>
	</g>
	<g>
		<g>
			<path class="st0" d="M20.5,90.3c-0.5-0.5-0.8-1.1-1-1.7c-0.1-0.3-0.6-0.2-0.5,0.2c0.3,0.7,0.6,1.4,1.2,1.9
				C20.3,90.9,20.7,90.5,20.5,90.3L20.5,90.3z"/>
		</g>
	</g>
	<g>
		<g>
			<path class="st0" d="M23,84.5c-0.2-0.2-0.5,0-0.6,0.2c-0.1,0.2-0.1,0.5,0.1,0.6c0.1,0.1,0.3,0,0.4-0.1c0.1-0.1,0-0.3-0.1-0.4
				c0.1,0,0.1,0.1,0.1,0.2c0,0,0,0,0,0c0,0,0,0,0,0c0,0,0,0,0,0c0,0,0,0,0,0c0,0,0,0-0.1,0c-0.1,0-0.1,0-0.1,0
				c0.1,0.1,0.3,0,0.4-0.1C23.2,84.7,23.1,84.6,23,84.5L23,84.5z"/>
		</g>
	</g>
	<g>
		<g>
			<path class="st0" d="M23.1,84.4c-1.1-1.9-1.8-4.1-2-6.3c0-0.3-0.6-0.3-0.5,0c0.2,2.3,0.9,4.5,2.1,6.6
				C22.8,85,23.2,84.7,23.1,84.4L23.1,84.4z"/>
		</g>
	</g>
	<g>
		<g>
			<path class="st0" d="M20.2,69.7c0.4-0.3,1,0.7,1.1,0.9c0.2,0.3,0.3,0.7,0.4,1c0.2,0.5,0.4,1.1,0.5,1.6c0.3,1.1,0.6,2.3,0.8,3.5
				c0.4,2.6,0.3,5.2-0.1,7.8c-0.1,0.3,0.5,0.5,0.5,0.2c0.5-3.2,0.5-6.5-0.2-9.7c-0.2-0.9-1.4-7.1-3.3-5.7
				C19.6,69.5,19.9,69.9,20.2,69.7L20.2,69.7z"/>
		</g>
	</g>
	<g>
		<g>
			<path class="st0" d="M19.4,70.2c2.5,4.2,3.6,9.1,3.2,14c0,0.3,0.5,0.3,0.5,0c0.4-5-0.8-9.9-3.3-14.2
				C19.7,69.7,19.3,69.9,19.4,70.2L19.4,70.2z"/>
		</g>
	</g>
	<g>
		<g>
			<path class="st0" d="M19.1,77.8c0.5,1.3,0.5,2.7,1.1,4c0.5,1.3,1.3,2.4,2.2,3.4c0.2,0.3,0.6-0.1,0.4-0.4
				c-0.9-1.1-1.8-2.3-2.2-3.6c-0.4-1.2-0.5-2.4-0.9-3.6C19.5,77.4,19,77.5,19.1,77.8L19.1,77.8z"/>
		</g>
	</g>
	<g>
		<g>
			<path class="st0" d="M13.7,94c-0.3-0.2,0.5-1.9,0.6-2.1c0.3-0.5,0.7-0.9,1.1-1.3c0.7-0.7,1.4-1.4,2.1-2c1.5-1.5,3.1-2.9,4.6-4.4
				c0.3-0.2-0.1-0.6-0.4-0.4c-2.1,2-4.2,4-6.3,6c-0.8,0.7-1.5,1.5-1.9,2.5c-0.2,0.6-0.5,1.5,0,2c0.1,0.1,0.2,0.1,0.3,0
				c0.2-0.1,0.2-0.2,0.3-0.4c0-0.1,0-0.2-0.1-0.3c0,0-0.1,0-0.1-0.1C13.6,93.3,13.4,93.8,13.7,94L13.7,94z"/>
		</g>
	</g>
	<g>
		<g>
			<path class="st0" d="M24,82.7c0.1-0.1,0.3-0.3,0.4-0.3c0.2,0.1,0.3,0.2,0.5,0.4c-0.1,0.1-0.2,0.2-0.2,0.3
				c-0.2,0.3-0.5,0.5-0.7,0.8c-0.5,0.5-1,1-1.6,1.4c-0.3,0.2,0,0.7,0.3,0.5c0.6-0.5,1.2-0.9,1.7-1.5c0.4-0.4,1.2-1.1,1.2-1.7
				c0-0.4-0.2-0.7-0.5-0.8c-0.5-0.2-1,0.2-1.3,0.6C23.3,82.6,23.7,83,24,82.7L24,82.7z"/>
		</g>
	</g>
	<g>
		<g>
			<path class="st0" d="M13.6,93.4c-0.9,0.8-2,1.5-1.4,2.8c0.7,1.6,2.3,2.8,3.5,4.1c1.4,1.6,2.8,3.3,4.4,4.7
				c1.4,1.2,2.3-0.7,3.1-1.7c0.2-0.3-0.2-0.6-0.4-0.4c-0.4,0.5-0.9,1.3-1.4,1.6c-0.9,0.6-1.6-0.5-2.1-1.1c-1-1.1-2-2.2-3-3.3
				c-0.9-1-1.8-1.9-2.7-2.9c-0.4-0.5-1.3-1.4-1.1-2.1c0.2-0.6,1-1.1,1.4-1.5C14.2,93.5,13.8,93.1,13.6,93.4L13.6,93.4z"/>
		</g>
	</g>
	<g>
		<g>
			<path class="st0" d="M16.2,93c0.2,0.2,0.3,0.4,0.4,0.6c0.1,0.1,0.3,0.1,0.4,0c0.1-0.1,0.1-0.3,0-0.4c-0.2-0.2-0.3-0.4-0.4-0.6
				c-0.1-0.1-0.3-0.1-0.4,0C16.1,92.7,16.1,92.9,16.2,93L16.2,93z"/>
		</g>
	</g>
	<g>
		<g>
			<path class="st0" d="M22.3,99.5c0.1,0.1,0.2,0.2,0.3,0.3c0.2,0.3,0.6-0.1,0.4-0.4c-0.1-0.1-0.2-0.2-0.3-0.3
				C22.5,98.9,22.1,99.3,22.3,99.5L22.3,99.5z"/>
		</g>
	</g>
	<g>
		<g>
			<path class="st0" d="M23.1,92.2c0.2-0.1,0.4-0.2,0.5-0.3c0.3-0.2,0-0.6-0.3-0.5c-0.2,0.1-0.4,0.2-0.5,0.3
				C22.5,91.9,22.8,92.4,23.1,92.2L23.1,92.2z"/>
		</g>
	</g>
	<g>
		<g>
			<g>
				<path class="st0" d="M25.7,90c-0.6-0.4-1.2-0.7-1.9-0.9c-0.3-0.1-0.5,0.4-0.2,0.5c0.6,0.2,1.2,0.5,1.7,0.9
					C25.7,90.7,26,90.2,25.7,90L25.7,90z"/>
			</g>
		</g>
		<g>
			<g>
				<path class="st0" d="M23.3,89.3c-3.1,0-5.1,3.3-4.5,6.2c0.6,3.1,4.7,4.2,7.2,2.6c0.3-0.2,0-0.6-0.3-0.5
					c-2.2,1.4-5.9,0.5-6.4-2.3c-0.5-2.6,1.3-5.5,4-5.5C23.6,89.8,23.6,89.3,23.3,89.3L23.3,89.3z"/>
			</g>
		</g>
		<g>
			<g>
				<path class="st0" d="M19.1,93.8c1.2-2.4,3.8-3.4,6.3-2.6c0.3,0.1,0.5-0.4,0.2-0.5c-2.7-0.9-5.6,0.2-6.9,2.8
					C18.5,93.8,18.9,94.1,19.1,93.8L19.1,93.8z"/>
			</g>
		</g>
		<g>
			<g>
				<path class="st0" d="M23.8,90.4c0-0.2,0-0.3,0-0.5c0.1-0.3-0.4-0.5-0.5-0.2c-0.1,0.3-0.1,0.5,0,0.8C23.4,90.9,24,90.7,23.8,90.4
					L23.8,90.4z"/>
			</g>
		</g>
		<g>
			<g>
				<path class="st0" d="M20.5,95.8c0.4,0.7,2.2,2.2,2.9,1.1c0.3-0.5-0.2-1.2-0.5-1.5c-0.7-0.9-1.4-1.5-1.6-2.6
					c0-0.2-0.3-0.2-0.4-0.2c-1.4,0.8-0.8,2.4-0.2,3.5c0.2,0.3,0.6,0,0.5-0.3c-0.5-0.8-1.1-2.1,0-2.7c-0.1,0-0.3-0.1-0.4-0.2
					c0.2,1,0.7,1.7,1.3,2.4c0.2,0.2,0.4,0.4,0.5,0.6c0.1,0.1,0.2,0.2,0.2,0.4c0.1,0.3,0,0.5-0.2,0.4C22,96.8,21.2,96,21,95.5
					C20.7,95.3,20.3,95.5,20.5,95.8L20.5,95.8z"/>
			</g>
		</g>
		<g>
			<g>
				<path class="st0" d="M22.7,94.1c0.2,0.5,1,0.5,1.2,0c0.3-0.7-0.4-1.2-0.9-1.4c-0.1,0-0.2-0.1-0.3,0c-0.5,0.3-0.5,0.9-0.2,1.4
					c0.2,0.3,0.6-0.1,0.4-0.4c-0.1-0.1-0.1-0.4,0-0.5c-0.1,0-0.2,0-0.3,0c0.2,0.1,0.5,0.3,0.6,0.5c0,0.1,0.1,0.2,0,0.3
					c0,0-0.2,0-0.2,0C23.1,93.6,22.6,93.7,22.7,94.1L22.7,94.1z"/>
			</g>
		</g>
		<g>
			<g>
				<path class="st0" d="M25.7,92.7c-0.8-1.1-1.9-1.5-3.3-1.3c-1.3,0.2-2.4,0.7-2.9,2c-0.1,0.3,0.4,0.5,0.5,0.2
					c0.4-1.1,1.4-1.4,2.5-1.6c1.1-0.2,2,0.1,2.7,1.1C25.4,93.2,25.8,92.9,25.7,92.7L25.7,92.7z"/>
			</g>
		</g>
		<g>
			<g>
				<path class="st0" d="M19.5,92.8c-0.6,1.6-0.2,3.6,1.3,4.6c1.6,1.1,3.7,0.7,4.8-0.8c0.2-0.3-0.2-0.6-0.4-0.4
					c-1,1.3-2.8,1.7-4.2,0.7c-1.3-0.9-1.6-2.6-1.1-4C20.2,92.6,19.6,92.5,19.5,92.8L19.5,92.8z"/>
			</g>
		</g>
	</g>
	<g>
		<g>
			<path class="st0" d="M15.1,91.8c-0.6-0.4,0.3-1.2,0.6-1.4c0.4-0.3,0.8-0.4,1.2-0.5c-0.1-0.1-0.2-0.2-0.3-0.3c0,1.1-1,1.7-1.9,2.2
				c-0.3,0.2,0,0.6,0.3,0.5c1-0.6,2.1-1.4,2.1-2.7c0-0.2-0.2-0.3-0.3-0.3c-0.8,0.1-1.6,0.5-2,1.2c-0.4,0.5-0.5,1.3,0.1,1.7
				C15.1,92.5,15.3,92,15.1,91.8L15.1,91.8z"/>
		</g>
	</g>
	<g>
		<g>
			<path class="st0" d="M14.3,94.7c0.4-0.8,1.1-1.4,2-1.7c0.3-0.1,0.2-0.6-0.2-0.5c-1,0.3-1.8,1-2.3,2C13.7,94.7,14.2,95,14.3,94.7
				L14.3,94.7z"/>
		</g>
	</g>
	<g>
		<g>
			<path class="st0" d="M15.1,96c0.6-0.4,1.1-0.8,1.4-1.4c0.2-0.3-0.3-0.6-0.5-0.3c-0.3,0.5-0.7,0.9-1.2,1.3
				C14.5,95.8,14.8,96.2,15.1,96L15.1,96z"/>
		</g>
	</g>
	<g>
		<g>
			<path class="st0" d="M22.5,100.1c0.5,0.6,1.1,1.2,1.6,1.8c0.2,0.3,0.6-0.1,0.4-0.4c-1-1.1-2-2.2-3-3.4c-0.2-0.3-0.6,0.1-0.4,0.4
				c1,1.1,2,2.2,3,3.4c0.1-0.1,0.3-0.3,0.4-0.4c-0.5-0.6-1.1-1.2-1.6-1.8C22.7,99.4,22.3,99.8,22.5,100.1L22.5,100.1z"/>
		</g>
	</g>
	<g>
		<g>
			<path class="st0" d="M16.6,93.4c0.7,1.1,1.6,2.2,2.5,3c0.3,0.2,0.6-0.2,0.4-0.4c-1-0.9-1.8-1.8-2.5-2.9
				C16.8,92.8,16.4,93,16.6,93.4L16.6,93.4z"/>
		</g>
	</g>
	<g>
		<g>
			<path class="st0" d="M16.4,94.4c0.2-0.1,0.4-0.3,0.6-0.4c0.1-0.1,0.2-0.2,0.1-0.4c-0.1-0.1-0.2-0.2-0.4-0.1
				c-0.2,0.1-0.4,0.3-0.6,0.4c-0.1,0.1-0.2,0.2-0.1,0.4C16.1,94.5,16.3,94.5,16.4,94.4L16.4,94.4z"/>
		</g>
	</g>
	<g>
		<g>
			<path class="st0" d="M15.4,93.5c0.1,0.3,0.3,0.5,0.4,0.8c0.2,0.3,0.6,0,0.5-0.3c-0.1-0.3-0.3-0.5-0.4-0.8
				C15.7,92.9,15.2,93.2,15.4,93.5L15.4,93.5z"/>
		</g>
	</g>
	<g>
		<g>
			<path class="st0" d="M23.1,100.3c0.7-0.5,1.4-1.1,2-1.6c0.3-0.2-0.1-0.6-0.4-0.4c-0.7,0.5-1.4,1.1-2,1.6
				C22.5,100.1,22.9,100.5,23.1,100.3L23.1,100.3z"/>
		</g>
	</g>
	<g>
		<g>
			<path class="st0" d="M12.3,95.8c0.3,0,0.3-0.5,0-0.5C11.9,95.3,11.9,95.8,12.3,95.8L12.3,95.8z"/>
		</g>
	</g>
	<g>
		<g>
			<path class="st0" d="M12.4,95.4c-1.3-1.5,0.7-3,1.8-3.7c0.3-0.2,0-0.6-0.3-0.5c-1.4,0.9-3.4,2.8-1.9,4.5
				C12.3,96,12.7,95.7,12.4,95.4L12.4,95.4z"/>
		</g>
	</g>
	<g>
		<g>
			<path class="st0" d="M29,64.3c1.5,0.4,3,0.8,4.5,1.1c1.4,0.3,3.4,0.5,4.2,1.8c0.6,1,0.7,2.4,1,3.6c0.3,1.4,0.6,2.9,1,4.3
				c1.4,5.5,3.4,10.9,5.7,16c0.1,0.2,0.5,0.2,0.5-0.1c1-4.8,1.2-9.7,1.3-14.6c0-2.5,0.1-5.1,0.2-7.7c0-1.2,0.1-2.3,0.2-3.5
				c0.1-1.2-0.1-3.3,1.1-4.1c0.9-0.6,2.3-0.9,3.4-1c1.3-0.2,2.5-0.3,3.8-0.3c2.5,0,4.9,0.2,7.3,0.2c4.7,0,9.3-0.7,13.8-1.8
				c5.1-1.3,10-3.2,14.8-5.4c0.3-0.2,0-0.6-0.3-0.5c-9.1,4.2-18.9,7.3-29,7.1c-2.5,0-5-0.3-7.5-0.2c-2.1,0.1-4.5,0.3-6.4,1.3
				c-1.7,0.9-1.5,3.3-1.6,4.9c-0.2,2.5-0.3,5.1-0.3,7.6c-0.1,6-0.1,11.9-1.4,17.8c0.2,0,0.3,0,0.5-0.1c-2.6-5.7-4.7-11.7-6.1-17.9
				c-0.3-1.4-0.6-2.9-0.9-4.3c-0.2-0.9-0.5-1.9-1.3-2.5c-0.9-0.8-2.4-0.9-3.5-1.2c-1.6-0.4-3.3-0.8-4.9-1.2
				C28.8,63.7,28.6,64.2,29,64.3L29,64.3z"/>
		</g>
	</g>
	<g>
		<g>
			<path class="st0" d="M27.4,103.7c6.8,6.6,17,6.6,25.9,7.5c11.5,1.1,23.1,2.8,34.5,0.8c5.4-1,10.8-2.8,14.7-6.8
				c0.2-0.3-0.1-0.6-0.4-0.4c-3.5,3.5-8.2,5.3-12.9,6.4c-5.5,1.2-11.2,1.4-16.8,1.2c-5.6-0.2-11.1-0.8-16.7-1.4
				c-4.8-0.5-9.7-0.7-14.4-1.6c-5-0.9-9.9-2.5-13.6-6C27.5,103.1,27.1,103.4,27.4,103.7L27.4,103.7z"/>
		</g>
	</g>
	<g>
		<g>
			<path class="st0" d="M38.1,67.1c-1.1-1.2-2.9-1.1-4.2-0.3c-0.4,0.2-0.7,0.5-1,0.7c-0.7,0.6-1,0.3-1.5-0.3
				c-0.8-1.1-1.7-2.1-2.5-3.2c-0.2-0.3-0.6,0.1-0.4,0.4c0.8,0.9,1.5,1.9,2.3,2.8c0.4,0.5,0.8,1.4,1.6,1.3c0.6-0.1,1.2-0.9,1.7-1.2
				c1.2-0.7,2.7-0.9,3.8,0.2C38,67.7,38.4,67.3,38.1,67.1L38.1,67.1z"/>
		</g>
	</g>
	<g>
		<g>
			<path class="st0" d="M47.6,64.7c-0.9-2.3,1.7-3.7,3.7-3.1s3.1,2.4,3.9,4.1c0.1,0.1,0.3,0.2,0.4,0.1c2.2-1.6,4.4-3.1,6.9-4.1
				c2.3-0.9,4.9-0.8,7-2c0.3-0.2,0-0.6-0.3-0.5c-2.2,1.2-5,1.1-7.3,2.1c-2.4,1-4.5,2.5-6.6,4c0.1,0,0.2,0.1,0.4,0.1
				c-1.1-2.2-2.9-4.6-5.6-4.5c-2,0-3.7,2-3,4C47.2,65.1,47.7,65,47.6,64.7L47.6,64.7z"/>
		</g>
	</g>
</g>
</svg>
