<?xml version="1.0" encoding="utf-8"?>
<!-- Generator: Adobe Illustrator 24.0.1, SVG Export Plug-In . SVG Version: 6.00 Build 0)  -->
<svg version="1.1" id="Layer_1" xmlns="http://www.w3.org/2000/svg" xmlns:xlink="http://www.w3.org/1999/xlink" x="0px" y="0px"
	 viewBox="0 0 141.7 141.7" style="enable-background:new 0 0 141.7 141.7;" xml:space="preserve">
<style type="text/css">
	.st0{fill:#070707;}
	.st1{enable-background:new    ;}
</style>
<g id="Layer_1_1_">
</g>
<g id="Layer_1_2_">
</g>
<g id="Layer_3">
	<g>
		<g>
			<path class="st0" d="M27,95.3c0-1.8,3.6-3.7,9.8-5.1c0-0.2,0-0.3,0-0.4c-6.3,1.4-10.2,3.4-10.2,5.5c0,1.5,1.8,2.9,5.3,4.2
				c0,0,0,0,0,0c0.1-0.1,0.2-0.3,0.3-0.4c0.1-0.1,0.2-0.2,0.2-0.3c-0.2,0.1-0.3,0.3-0.5,0.4C28.7,97.9,27,96.6,27,95.3z"/>
		</g>
		<g>
			<path class="st0" d="M90.7,89.5c0,0.1,0,0.3,0,0.4c0,0,0.1,0,0.1,0c6.9,1.4,10.8,3.4,10.8,5.3c0,1.3-1.7,2.6-4.9,3.7
				c-0.1-0.2-0.2-0.3-0.4-0.4c0.1,0.2,0.2,0.3,0.3,0.4c0.1,0.1,0.2,0.3,0.2,0.4c3.4-1.2,5.2-2.6,5.2-4.1
				C101.9,93,97.6,90.9,90.7,89.5z"/>
		</g>
		<g>
			<path class="st0" d="M91,100.5c-7,1.5-16.7,2.4-26.7,2.4c-10.2,0-19.8-0.8-26.9-2.4c0-0.2,0.1-0.3,0.1-0.4
				c-0.1,0.2-0.2,0.4-0.4,0.6c0,0.1-0.1,0.1-0.2,0.2l0.1,0c7.2,1.6,16.8,2.4,27.2,2.4c10.2,0,20-0.9,27-2.4
				C91.1,100.8,91,100.7,91,100.5z"/>
		</g>
	</g>
	<g>
		<g>
			<g>
				<path class="st0" d="M86.7,62.9c-2.6-4.6-7.2-7.7-12.2-9c-3.1-0.8-6.2-0.9-9.4-0.7c-3.5,0.3-7.1,0.6-10.6,1.1
					c-5.1,0.7-9.7,3.3-13,7.3c-3.5,4.4-4.9,10.1-5.3,15.7c-0.5,7.8,0.8,15.5,0.8,23.4c0,0.4,0.5,0.4,0.5,0c0-6.4-0.9-12.8-0.9-19.2
					c0-5.7,0.7-11.7,3.5-16.8c2.6-4.7,7.1-8.2,12.4-9.4c2.9-0.7,6.1-0.8,9.1-1.1c3-0.3,6.1-0.6,9.2-0.3c6.2,0.6,12.4,3.8,15.5,9.4
					C86.4,63.5,86.8,63.2,86.7,62.9L86.7,62.9z"/>
			</g>
		</g>
	</g>
	<g>
		<g>
			<g>
				<path class="st0" d="M54.4,54.8c0.4,0,0.4-0.5,0-0.5S54.1,54.8,54.4,54.8L54.4,54.8z"/>
			</g>
		</g>
	</g>
	<g>
		<g>
			<g>
				<path class="st0" d="M37.4,69.8c-4.2-0.4-6.7-4.8-4-8.4c1-1.4,2.6-2.4,4.4-2.7c1.7-0.3,4-0.2,5.2,1.2c0.2,0.3,0.6-0.1,0.4-0.4
					c-1.3-1.5-3.6-1.6-5.4-1.4c-2.1,0.3-4.1,1.5-5.2,3.3c-2.5,3.9,0.4,8.5,4.8,8.9C37.7,70.4,37.7,69.8,37.4,69.8L37.4,69.8z"/>
			</g>
		</g>
	</g>
	<g>
		<g>
			<g>
				<path class="st0" d="M82.9,58.6c2.9-1.5,7.6-2.3,9.6,0.9c2.1,3.2,0.9,8.3-3.3,9c-0.4,0.1-0.2,0.6,0.2,0.5
					c4.4-0.7,5.8-6.1,3.7-9.6c-2.2-3.7-7.3-3.1-10.5-1.4C82.3,58.3,82.6,58.7,82.9,58.6L82.9,58.6z"/>
			</g>
		</g>
	</g>
	<g>
		<g>
			<g>
				<path class="st0" d="M59.8,74.6c0.1,0,0.2,0,0.2,0c0-0.1,0-0.2-0.1-0.3c-0.2,0.1-0.5,0.1-0.8,0.2c-0.4,0.2-0.9,0.6-1.3,0.9
					c-0.7,0.6-1.4,1.3-1.7,2.2c-0.7,2,1.9,2.9,3.4,2.8c1.3-0.1,2.5-0.7,3.8-0.9c1.3-0.2,2.5,0.3,3.7,0.6c1.7,0.4,3.4-0.5,3.1-2.5
					c-0.3-2-2.9-3.1-4.6-3.7c-0.2-0.1-0.2,0.2-0.1,0.3c1.7,0.6,5,2,4.3,4.4c-0.8,2.8-4.2,0.6-6,0.6c-1.1,0-2.1,0.5-3.2,0.7
					c-1.4,0.3-3.8,0.4-4.3-1.3c-0.3-1.1,0.8-2.2,1.5-2.8c0.4-0.4,0.9-0.8,1.5-1c0.2-0.1,0.5-0.1,0.7-0.2c0.1-0.1,0.1-0.3-0.1-0.3
					c-0.1,0-0.2,0-0.3,0C59.5,74.3,59.6,74.6,59.8,74.6L59.8,74.6z"/>
			</g>
		</g>
	</g>
	<g>
		<g>
			<g>
				<path class="st0" d="M66.5,79.9c0.4,1.2,0.6,2.5,0.3,3.7c-0.2,0.9-1.1,1.6-2.1,1.3c-0.7-0.2-0.9-0.8-1.2-1.4
					c-0.1-0.2-0.3,0-0.2,0.1c0.3,0.6,0.5,1.3,1.1,1.5c0.6,0.2,1.3,0,1.8-0.3c1.5-1,1-3.7,0.5-5.1C66.7,79.7,66.4,79.8,66.5,79.9
					L66.5,79.9z"/>
			</g>
		</g>
	</g>
	<g>
		<g>
			<g>
				<path class="st0" d="M90.4,83c0.5-0.2,1.3,0,1.9-0.1c0.8-0.1,1.7-0.5,2.4-0.9c1.1-0.8,1.9-2.1,1.8-3.5c-0.1-1.1-0.9-1.7-2-1.6
					c-1.7,0.1-3,1.2-4.1,2.4c-0.1,0.1,0.1,0.3,0.2,0.2c1-1,2-2,3.5-2.2c2-0.4,2.6,1.5,1.9,3.1c-0.6,1.3-2.1,2.1-3.5,2.4
					c-0.7,0.1-1.5-0.2-2.2,0.1C90.1,82.8,90.3,83.1,90.4,83L90.4,83z"/>
			</g>
		</g>
	</g>
	<g>
		<g>
			<g>
				<path class="st0" d="M93.4,79.6c1.1-0.4,2.4-1.3,1.7-2.6c-0.1-0.2-0.3,0-0.2,0.1c0.6,1.1-0.6,1.9-1.5,2.2
					C93.2,79.4,93.3,79.7,93.4,79.6L93.4,79.6z"/>
			</g>
		</g>
	</g>
	<g>
		<path class="st0" d="M73.6,74.4c-4.7,0-8.5-3.8-8.5-8.5c0-4.7,3.8-8.5,8.5-8.5c4.7,0,8.5,3.8,8.5,8.5
			C82.2,70.6,78.3,74.4,73.6,74.4z M73.6,57.7c-4.5,0-8.2,3.7-8.2,8.2s3.7,8.2,8.2,8.2c4.5,0,8.2-3.7,8.2-8.2S78.1,57.7,73.6,57.7z"
			/>
	</g>
	<g>
		<path class="st0" d="M52.5,75.3c-4.7,0-8.5-3.8-8.5-8.5s3.8-8.5,8.5-8.5c2.3,0,4.4,0.9,6.1,2.5c1.6,1.6,2.5,3.7,2.5,6
			C61.1,71.5,57.2,75.3,52.5,75.3z M52.5,58.6c-4.5,0-8.2,3.7-8.2,8.2S48,75,52.5,75s8.2-3.7,8.2-8.2c0-2.2-0.8-4.2-2.4-5.8
			C56.8,59.4,54.7,58.6,52.5,58.6z"/>
	</g>
	<g>
		<path class="st0" d="M89.6,62.6c0-1-0.8-1.8-1.8-1.8c-1,0-1.8,0.8-1.8,1.8s0.8,1.8,1.8,1.8C88.8,64.3,89.6,63.6,89.6,62.6z"/>
	</g>
	<g>
		<circle class="st0" cx="38.2" cy="64.2" r="1.8"/>
	</g>
	<g>
		<path class="st0" d="M66.9,73.6c0-1.1-1.7-2.1-3.7-2.1c-2.1,0-3.7,0.9-3.7,2.1c0,1.1,1.7,2.1,3.7,2.1
			C65.2,75.7,66.9,74.7,66.9,73.6z"/>
	</g>
	<g>
		<path class="st0" d="M70.9,65.9c0,1.5,1.2,2.7,2.7,2.7c1.5,0,2.7-1.2,2.7-2.7c0-1.5-1.2-2.7-2.7-2.7S70.9,64.4,70.9,65.9z
			 M75.4,64.8c0,0.4-0.4,0.8-0.8,0.8c-0.4,0-0.8-0.4-0.8-0.8s0.4-0.8,0.8-0.8C75,64.1,75.4,64.4,75.4,64.8z"/>
	</g>
	<g>
		<path class="st0" d="M50.1,66.8c0,1.5,1.2,2.7,2.7,2.7c1.5,0,2.7-1.2,2.7-2.7c0-1.5-1.2-2.7-2.7-2.7C51.3,64,50.1,65.3,50.1,66.8z
			 M54.5,65.7c0,0.4-0.4,0.8-0.8,0.8c-0.4,0-0.8-0.4-0.8-0.8s0.4-0.8,0.8-0.8C54.2,64.9,54.5,65.2,54.5,65.7z"/>
	</g>
	<g>
		<g>
			<g>
				<path class="st0" d="M63.3,79.4c0.2,1.1,0.2,2.4,0,3.5c-0.1,0.7-0.3,1.7-1,2.1c-0.6,0.4-1.5,0.2-2-0.4c-0.9-1.1-0.7-3.2-0.3-4.5
					c0-0.2-0.2-0.2-0.3-0.1c-0.4,1.5-0.8,4.7,1.1,5.3c3.1,1.1,2.9-4.5,2.6-6.1C63.6,79.1,63.3,79.2,63.3,79.4L63.3,79.4z"/>
			</g>
		</g>
	</g>
	<g>
		<g>
			<g>
				<path class="st0" d="M31.8,101.9c-1.7-0.9,0-2.6,1-3.2c1.2-0.8,2.7-1.4,4.2-1.1c0.2,0,0.2-0.2,0.1-0.3c-1.9-0.3-3.9,0.5-5.3,1.8
					c-1,0.9-1.5,2.2-0.1,3C31.8,102.2,32,102,31.8,101.9L31.8,101.9z"/>
			</g>
		</g>
	</g>
	<g>
		<g>
			<g>
				<path class="st0" d="M33.1,100.8c-0.5,0.3-1.3,0.8-1.3,1.5c0,0.6,0.6,1,1.2,1.1c1.6,0.3,3.4-1.5,4.2-2.7
					c0.1-0.1-0.1-0.3-0.2-0.1c-0.7,0.9-1.6,1.8-2.7,2.3c-0.6,0.3-1.8,0.5-2.2-0.2c-0.4-0.7,0.6-1.3,1.1-1.5
					C33.5,100.9,33.3,100.7,33.1,100.8L33.1,100.8z"/>
			</g>
		</g>
	</g>
	<g>
		<g>
			<g>
				<path class="st0" d="M85.8,62.3c4,5,4,11.7,4.2,17.8c0.3,6.8,0.1,13.7,0.4,20.5c0,0.4,0.6,0.4,0.5,0c-0.3-7.3-0.2-14.5-0.5-21.8
					c-0.2-5.9-0.5-12.1-4.3-16.9C86,61.6,85.6,62,85.8,62.3L85.8,62.3z"/>
			</g>
		</g>
	</g>
	<g>
		<g>
			<g>
				<path class="st0" d="M43.3,105.6c-2.6-0.8-5.4-0.5-7.8,0.8c-0.1,0-0.1,0.2,0,0.2c1.1,0.6,2.3,0.9,3.6,1.1
					c1.3,0.2,2.9,0.5,4.2,0.2c0.6-0.1,1.4-0.6,1.3-1.4c0-0.6-0.6-1-1.2-0.9c-0.2,0-0.1,0.3,0.1,0.3c0.1,0.5,0.2,1,0.3,1.5
					c-0.4,0.2-0.7,0.3-1.1,0.3c-0.3,0-0.6,0-0.9,0c-0.6,0-1.1-0.1-1.7-0.1c-0.7-0.1-1.3-0.2-2-0.3c-0.2,0-2.1-0.5-2.1-0.7
					c0-0.6,2.8-1.1,3.3-1.1c1.3-0.2,2.6,0,3.9,0.4C43.4,105.9,43.5,105.6,43.3,105.6L43.3,105.6z"/>
			</g>
		</g>
	</g>
	<g>
		<g>
			<g>
				<path class="st0" d="M45,109c-0.7-0.4-1.6-0.3-2.2,0.2c-0.1,0.1,0,0.2,0,0.2c0.8,0.5,1.8,0.5,2.6,0.1c0.1,0,0.1-0.1,0-0.2
					c-0.2-0.3-0.4-0.5-0.7-0.6c-0.2,0-0.2,0.2-0.1,0.3c0.3,0.1,0.5,0.2,0.6,0.5c0-0.1,0-0.1,0-0.2c-0.7,0.4-1.6,0.4-2.3-0.1
					c0,0.1,0,0.2,0,0.2c0.5-0.5,1.2-0.5,1.8-0.2C45,109.3,45.1,109.1,45,109L45,109z"/>
			</g>
		</g>
	</g>
	<g>
		<g>
			<g>
				<path class="st0" d="M90.9,100.8c2.2-0.4,4.4-0.9,6.5-1.7c0.2-0.1,0.1-0.3-0.1-0.3c-2.1,0.7-4.3,1.3-6.5,1.7
					C90.6,100.6,90.7,100.9,90.9,100.8L90.9,100.8z"/>
			</g>
		</g>
	</g>
	<g>
		<g>
			<g>
				<path class="st0" d="M90.8,101c2.2-0.4,4.4-1.1,6.5-2c0.2-0.1,0-0.3-0.1-0.2c-2.1,0.9-4.2,1.5-6.4,1.9
					C90.5,100.8,90.6,101.1,90.8,101L90.8,101z"/>
			</g>
		</g>
	</g>
	<g>
		<g>
			<g>
				<path class="st0" d="M91.1,100.7c1.2-0.5,2.4-0.8,3.7-1.1c0-0.1-0.1-0.2-0.1-0.2c-0.9,0.4-1.8,0.6-2.7,0.8
					c-0.2,0-0.1,0.3,0.1,0.3c1-0.2,2-0.4,3-0.7c0.2,0,0.1-0.3-0.1-0.3c-0.7,0.2-1.4,0.3-2.1,0.6c-0.2,0.1-0.1,0.3,0.1,0.3
					c0.8-0.1,1.6-0.4,2.4-0.7c0.2-0.1,0.1-0.3-0.1-0.3c-0.8,0.3-1.6,0.5-2.4,0.7c0,0.1,0,0.2,0.1,0.3c0.7-0.2,1.4-0.4,2.1-0.6
					c0-0.1,0-0.2-0.1-0.3c-1,0.3-2,0.5-3,0.7c0,0.1,0,0.2,0.1,0.3c0.9-0.2,1.9-0.4,2.8-0.8c0.2-0.1,0-0.3-0.1-0.2
					c-1.2,0.3-2.4,0.7-3.7,1.1C90.9,100.5,90.9,100.8,91.1,100.7L91.1,100.7z"/>
			</g>
		</g>
	</g>
	<g>
		<g>
			<g>
				<path class="st0" d="M101.8,95C101.8,95,101.7,95,101.8,95c0,0.1,0,0.2,0,0.2c0,0,0,0,0,0c0,0,0.2,0.1,0.2,0c0,0,0,0,0,0
					c0,0,0.1-0.1,0-0.2c0,0,0,0,0,0C102,94.9,101.8,94.9,101.8,95c0,0.2-0.1,0.3-0.2,0.4c0.1,0.1,0.2,0.1,0.2,0.2
					c0,0,0.1-0.1,0.1-0.2c-0.1,0-0.2-0.1-0.2-0.1c0,0.1-0.1,0.1-0.1,0.2c0.1,0,0.1,0.1,0.2,0.2c0-0.1,0.1-0.2,0.2-0.4
					c-0.1,0-0.2-0.1-0.2-0.1c-0.1,0.3-0.2,0.5-0.4,0.7c0.1,0.1,0.2,0.1,0.2,0.2c0.2-0.3,0.4-0.6,0.5-0.9c-0.1,0-0.2,0-0.3-0.1
					c0,0.5-0.3,0.9-0.7,1.3c0.1,0.1,0.1,0.1,0.2,0.2c0.4-0.4,0.7-0.9,0.8-1.5c-0.1,0-0.2,0-0.3,0c-0.2,1.4-1.5,2.1-2.6,2.6
					c-0.2,0.1,0,0.3,0.1,0.2c1.3-0.6,2.6-1.3,2.8-2.9c0-0.2-0.2-0.2-0.3,0c-0.1,0.5-0.4,0.9-0.7,1.3c-0.1,0.1,0.1,0.3,0.2,0.2
					c0.5-0.4,0.7-0.9,0.8-1.5c0-0.1-0.2-0.2-0.3-0.1c-0.2,0.3-0.4,0.6-0.5,0.9c-0.1,0.1,0.1,0.3,0.2,0.2c0.2-0.2,0.4-0.5,0.5-0.8
					c0-0.2-0.2-0.2-0.2-0.1c-0.1,0.1-0.1,0.3-0.2,0.4c0,0.1,0.1,0.2,0.2,0.2c0.2-0.1,0.2-0.2,0.2-0.4c0-0.1-0.2-0.2-0.2-0.1
					c-0.1,0.1-0.1,0.1-0.2,0.2s0.1,0.3,0.2,0.2c0.2-0.2,0.2-0.3,0.2-0.5c-0.1,0-0.2,0-0.3,0.1C101.8,95.2,101.8,95.1,101.8,95
					c0.1,0.1,0.2,0.1,0.2,0.1c0,0,0,0.1,0,0.1C102.1,95,101.8,94.8,101.8,95L101.8,95z"/>
			</g>
		</g>
	</g>
	<g>
		<g>
			<g>
				<path class="st0" d="M26.5,95.1c-0.1,0.4,0,0.7,0.2,1c0.1,0.1,0.3,0,0.2-0.1c-0.1-0.2-0.2-0.5-0.3-0.7c0-0.1-0.2-0.2-0.3,0
					c0,0.4,0,0.6,0.3,0.9c0.1,0.1,0.3,0,0.2-0.2c-0.1-0.2-0.1-0.4-0.2-0.6c0-0.2-0.2-0.2-0.3,0c-0.2,0.9,0.7,1.5,1.3,2
					c0.9,0.7,2,1,3.1,1.1c0.2,0,0.2-0.3,0-0.3c-0.8-0.1-1.6-0.3-2.4-0.7c-0.6-0.3-2-1.2-1.8-2c-0.1,0-0.2,0-0.3,0
					c0,0.3,0.1,0.5,0.2,0.8c0.1-0.1,0.2-0.1,0.2-0.2c-0.1-0.2-0.1-0.4-0.2-0.6c-0.1,0-0.2,0-0.3,0c0.1,0.2,0.2,0.5,0.3,0.7
					c0.1,0,0.2-0.1,0.2-0.1c0-0.3-0.1-0.5-0.2-0.8C26.8,95,26.5,95,26.5,95.1L26.5,95.1z"/>
			</g>
		</g>
	</g>
	<g>
		<g>
			<g>
				<path class="st0" d="M26.5,95.1c-0.1,0.2-0.1,0.4-0.1,0.6c0,0.2,0.3,0.2,0.3,0c0-0.1,0-0.3,0-0.4c0-0.2-0.2-0.2-0.3,0
					c0,0.2-0.1,0.3,0,0.4c0,0.2,0.3,0.2,0.3,0c0-0.2,0-0.2-0.1-0.3c-0.1-0.2-0.3,0-0.2,0.1c0,0.1,0,0.2,0,0.3c0,0.2,0.3,0.1,0.3,0
					c0-0.2,0-0.3-0.1-0.4c-0.1-0.1-0.2-0.1-0.2,0c-0.1,0.5,0.2,0.8,0.6,1.1c0.4,0.4,0.9,0.7,1.5,1c0.2,0.1,0.3-0.2,0.1-0.2
					c-0.4-0.2-0.7-0.4-1-0.6c-0.3-0.2-1-0.7-0.9-1.2c-0.1,0-0.2,0-0.2,0c0,0.1,0,0.2,0,0.3c0.1,0,0.2,0,0.3,0c0-0.1,0-0.2,0-0.3
					c-0.1,0-0.2,0.1-0.2,0.1c0,0.1,0,0.1,0,0.2c0.1,0,0.2,0,0.3,0c0-0.1,0-0.2,0-0.4c-0.1,0-0.2,0-0.3,0c0,0.1,0,0.3,0,0.4
					c0.1,0,0.2,0,0.3,0c0-0.2,0-0.4,0.1-0.6C26.9,95,26.6,95,26.5,95.1L26.5,95.1z"/>
			</g>
		</g>
	</g>
	<g>
		<path class="st0" d="M92.9,88.1c-0.1,0-0.1,0-0.2,0L92.4,88c-0.7-0.1-1.2-0.8-1.1-1.5l5.7-33.6c0.1-0.7,0.8-1.2,1.5-1.1l0.3,0
			c0.7,0.1,1.2,0.8,1.1,1.5l0,0l-5.7,33.5C94.2,87.6,93.6,88.1,92.9,88.1z"/>
	</g>
	<g>
		<path class="st0" d="M125,56.1c-0.1,0-0.3,0-0.4,0l-51-8c-1.6-0.2-2.6-1.7-2.4-3.3l2.2-14.1c0.1-0.7,0.5-1.4,1.1-1.9
			c0.6-0.5,1.4-0.6,2.1-0.5l51,8c1.5,0.3,2.6,1.7,2.4,3.3l-2.2,14.1c-0.1,0.7-0.5,1.4-1.1,1.9C126.2,55.9,125.6,56.1,125,56.1z
			 M76.2,28.8c-0.5,0-1,0.2-1.4,0.5c-0.5,0.4-0.9,0.9-1,1.6l-2.2,14.1c-0.2,1.3,0.7,2.6,2,2.8l51,8c0.6,0.1,1.3-0.1,1.8-0.4
			c0.5-0.4,0.9-0.9,1-1.6l2.2-14.1c0.2-1.3-0.7-2.5-2-2.8l-51-8C76.4,28.8,76.3,28.8,76.2,28.8z"/>
	</g>
	<g>
		<path class="st0" d="M123.5,54.2c-0.2,0-0.3,0-0.5,0L76,46.8c-1.9-0.3-3.1-2-2.8-3.9l1.4-9.1c0.3-1.9,2-3.1,3.9-2.8l46.9,7.3
			c1.8,0.3,3.1,2,2.8,3.9l-1.4,9.1C126.6,53,125.2,54.2,123.5,54.2z M78,32.5c-0.4,0-0.8,0.1-1.1,0.4c-0.4,0.3-0.7,0.7-0.7,1.2
			l-1.4,9.1c-0.1,0.5,0,1,0.3,1.4c0.3,0.4,0.7,0.7,1.2,0.7l46.9,7.3c0.5,0.1,1,0,1.4-0.3c0.4-0.3,0.7-0.7,0.7-1.2l1.4-9.1
			c0.2-1-0.5-2-1.6-2.1l0,0l-46.9-7.3C78.2,32.5,78.1,32.5,78,32.5z"/>
	</g>
	<g class="st1">
		<path d="M81.6,36.7l-0.5,1.9l-0.6-0.1l0.2-1.9L81.6,36.7z M82.7,36.9l-0.5,1.9l-0.6-0.1l0.2-1.9L82.7,36.9z"/>
		<path d="M82.9,41.6l0.8-4.5l0.9,0.2l-0.3,1.7l1.8,0.3l0.3-1.7l0.9,0.2l-0.8,4.5L85.6,42l0.3-2l-1.8-0.3l-0.3,2L82.9,41.6z"/>
		<path d="M90.2,39.4c0.2,0.1,0.4,0.3,0.5,0.6c0.1,0.2,0.2,0.5,0.2,0.7c0,0.2,0,0.4-0.1,0.7L88.3,41c0,0.3,0,0.6,0.2,0.8
			c0.1,0.1,0.3,0.2,0.5,0.2c0.2,0,0.4,0,0.5-0.1c0.1,0,0.2-0.1,0.2-0.2l0.9,0.1c-0.1,0.2-0.2,0.4-0.4,0.6c-0.4,0.3-0.8,0.4-1.3,0.3
			c-0.4-0.1-0.8-0.3-1.1-0.6c-0.3-0.3-0.4-0.8-0.3-1.4c0.1-0.6,0.3-1,0.7-1.3c0.4-0.3,0.8-0.3,1.3-0.3
			C89.7,39.2,89.9,39.3,90.2,39.4z M88.7,39.9c-0.1,0.1-0.3,0.3-0.3,0.5l1.5,0.3c0-0.2,0-0.4-0.1-0.6c-0.1-0.1-0.3-0.2-0.5-0.3
			C89,39.8,88.9,39.8,88.7,39.9z"/>
		<path d="M91.8,43.1L91,42.9l0.8-4.5l0.9,0.1L91.8,43.1z"/>
		<path d="M93.6,43.3l-0.9-0.1l0.8-4.5l0.9,0.1L93.6,43.3z"/>
		<path d="M97.3,43.5c-0.3,0.3-0.8,0.4-1.4,0.3c-0.6-0.1-1-0.3-1.2-0.7c-0.2-0.4-0.3-0.8-0.2-1.3c0.1-0.5,0.3-0.9,0.6-1.2
			c0.3-0.3,0.8-0.4,1.4-0.3c0.6,0.1,1,0.3,1.2,0.7c0.2,0.4,0.3,0.8,0.2,1.3C97.9,42.8,97.7,43.2,97.3,43.5z M96.7,42.9
			c0.2-0.2,0.3-0.4,0.3-0.7c0.1-0.3,0-0.6-0.1-0.8c-0.1-0.2-0.3-0.3-0.5-0.4c-0.3,0-0.5,0-0.6,0.2c-0.2,0.2-0.3,0.4-0.3,0.7
			c-0.1,0.3,0,0.6,0.1,0.8c0.1,0.2,0.3,0.3,0.5,0.4C96.3,43.2,96.5,43.1,96.7,42.9z"/>
		<path d="M101.5,40l0.2,2.7l0,0.7l0.2-0.7l0.9-2.5l1,0.2l0.1,2.7l0,0.7l0.3-0.7l1-2.5l1,0.2l-2,4.3l-0.9-0.2l-0.1-2.8l0-0.9
			l-0.3,0.9l-1,2.6l-0.9-0.1l-0.5-4.8L101.5,40z"/>
		<path d="M108.8,45.4c-0.3,0.3-0.8,0.4-1.4,0.3c-0.6-0.1-1-0.3-1.2-0.7c-0.2-0.4-0.3-0.8-0.2-1.3c0.1-0.5,0.3-0.9,0.6-1.2
			c0.3-0.3,0.8-0.4,1.4-0.3c0.6,0.1,1,0.3,1.2,0.7c0.2,0.4,0.3,0.8,0.2,1.3C109.3,44.7,109.1,45.1,108.8,45.4z M108.2,44.8
			c0.2-0.2,0.3-0.4,0.3-0.7c0.1-0.3,0-0.6-0.1-0.8c-0.1-0.2-0.3-0.3-0.5-0.4c-0.3,0-0.5,0-0.6,0.2c-0.2,0.2-0.3,0.4-0.3,0.7
			c-0.1,0.3,0,0.6,0.1,0.8c0.1,0.2,0.3,0.3,0.5,0.4C107.8,45.1,108,45,108.2,44.8z"/>
		<path d="M112.2,42.9C112.2,42.9,112.2,42.9,112.2,42.9l-0.1,0.9c-0.1,0-0.1,0-0.1,0c0,0-0.1,0-0.1,0c-0.4-0.1-0.6,0-0.8,0.2
			c-0.1,0.1-0.2,0.3-0.2,0.6l-0.3,1.6l-0.9-0.1l0.6-3.4l0.8,0.1l-0.1,0.6c0.2-0.2,0.3-0.3,0.4-0.4C111.7,42.9,111.9,42.8,112.2,42.9
			C112.2,42.9,112.2,42.9,112.2,42.9z"/>
		<path d="M113.1,46.6l-0.9-0.1l0.8-4.5l0.9,0.1L113.1,46.6z"/>
		<path d="M116.3,43.7c0.1,0.1,0.3,0.3,0.3,0.4l0.3-1.6l0.9,0.1l-0.8,4.5l-0.9-0.1l0.1-0.5c-0.2,0.2-0.3,0.3-0.5,0.4
			c-0.2,0.1-0.4,0.1-0.6,0c-0.4-0.1-0.7-0.3-0.9-0.6c-0.2-0.4-0.3-0.8-0.2-1.3c0.1-0.6,0.3-1,0.6-1.3c0.3-0.3,0.7-0.4,1.1-0.3
			C116,43.5,116.2,43.6,116.3,43.7z M116.1,46.1c0.2-0.2,0.3-0.4,0.3-0.7c0.1-0.4,0-0.7-0.2-0.9c-0.1-0.1-0.2-0.2-0.4-0.2
			c-0.3,0-0.5,0-0.6,0.2c-0.2,0.2-0.3,0.4-0.3,0.7c-0.1,0.3,0,0.6,0.1,0.8c0.1,0.2,0.3,0.3,0.5,0.4C115.8,46.4,116,46.3,116.1,46.1z
			"/>
		<path d="M118,46.4l0.9,0.2l-0.2,0.9l-0.9-0.2L118,46.4z"/>
		<path d="M121.3,43.3l-0.5,1.9l-0.6-0.1l0.2-1.9L121.3,43.3z M122.5,43.5l-0.5,1.9l-0.6-0.1l0.2-1.9L122.5,43.5z"/>
	</g>
	<g>
		<g>
			<g>
				<path class="st0" d="M126,39.9c0.1,0.1,0.2,0.2,0.3,0.3c0.2,0.2,0.5,0.2,0.8,0s0.2-0.6,0-0.8c0,0-0.1-0.1-0.1-0.1
					c-0.3,0.3-0.5,0.5-0.8,0.8c0.1,0,0.1,0.1,0.2,0.2c0.2,0.2,0.5,0.2,0.8,0c0.2-0.2,0.2-0.5,0-0.8c0,0,0-0.1-0.1-0.1
					c-0.3,0.3-0.5,0.5-0.8,0.8c0.2,0.2,0.3,0.2,0.5,0.3c0.2,0.1,0.5-0.1,0.6-0.3c0.1-0.3,0-0.5-0.2-0.7c0,0.1,0.1,0.1,0.2,0.2
					c-0.2,0.2-0.4,0.5-0.5,0.7c0,0,0,0,0,0c-0.1,0-0.2,0-0.3-0.1c-0.1,0,0,0,0,0c0,0,0.1,0.1,0.1,0.1c0.3-0.3,0.5-0.5,0.8-0.8
					c0-0.1-0.1-0.1-0.2-0.2c-0.2-0.2-0.6,0-0.7,0.2c-0.2,0.3,0,0.6,0.2,0.7c0,0,0.1,0.1,0.1,0.1c0.2,0.1,0.5,0.1,0.7-0.1
					c0.2-0.2,0.2-0.5,0.1-0.7c0-0.1-0.1-0.2-0.2-0.2c-0.2-0.2-0.5-0.2-0.8,0c-0.2,0.2-0.2,0.6,0,0.8c0,0,0.1,0.1,0.1,0.1
					c0.2,0.2,0.5,0.2,0.7,0.1c0.2-0.1,0.4-0.4,0.2-0.6c-0.1-0.2-0.2-0.3-0.3-0.4c-0.2-0.1-0.5-0.1-0.7,0.1c-0.2,0.2-0.2,0.5-0.1,0.7
					c0.1,0.1,0.2,0.2,0.3,0.3c0.2,0.1,0.5,0.1,0.7-0.1s0.2-0.4,0.1-0.7c0-0.1-0.1-0.2-0.2-0.2c-0.2-0.2-0.5-0.2-0.7,0
					c-0.2,0.2-0.3,0.5-0.1,0.7c0,0.1,0.1,0.1,0.2,0.2c0.2,0.2,0.5,0.2,0.7,0c0.2-0.2,0.2-0.4,0.1-0.7c0,0,0-0.1,0-0.1
					c-0.2-0.2-0.5-0.4-0.7-0.2c-0.2,0.2-0.4,0.5-0.2,0.7c0,0.1,0.1,0.1,0.1,0.2c0.4,0.4,1.1,0,0.9-0.5c0-0.1-0.1-0.2-0.2-0.3
					c-0.3,0.3-0.5,0.5-0.8,0.8c0,0,0,0,0,0c0.4,0.5,1.2-0.1,0.9-0.7c0,0,0,0,0-0.1c-0.3-0.5-1.2-0.2-1,0.4c0,0.1,0.1,0.2,0.2,0.3
					c0.2,0.2,0.5,0.2,0.7,0.1c0.2-0.1,0.3-0.4,0.2-0.6v0c-0.1-0.5-1-0.5-1.1,0l0,0c0,0.3,0.1,0.6,0.4,0.7c0,0,0,0,0,0
					c0.3,0.1,0.6-0.1,0.7-0.4c0-0.2,0-0.4-0.2-0.6c-0.2-0.2-0.4-0.2-0.7-0.1l0,0c-0.2,0.1-0.3,0.3-0.3,0.5l0,0
					c0,0.4,0.5,0.7,0.8,0.5l0,0c0.2-0.2,0.4-0.5,0.2-0.7l0,0c-0.3,0.2-0.6,0.4-0.9,0.7c0,0,0.1,0.1,0.1,0.2c0.1,0.3,0.5,0.3,0.7,0.2
					c0.3-0.2,0.3-0.5,0.2-0.7c-0.1-0.1-0.2-0.2-0.2-0.4c-0.2-0.2-0.5-0.2-0.7,0c-0.2,0.2-0.3,0.5-0.1,0.7l0,0
					c0.1-0.2,0.1-0.5,0.2-0.7l0,0c0.3,0.2,0.5,0.3,0.8,0.5l0,0c-0.1,0.2-0.2,0.3-0.3,0.5l0,0c-0.2,0-0.4-0.1-0.7-0.1
					c0,0,0,0-0.1-0.1c0-0.1,0-0.3-0.1-0.4c0,0,0,0,0,0c0.2-0.1,0.5-0.3,0.7-0.4c0,0,0,0,0,0c0.1,0.2,0.3,0.5,0.4,0.7l0,0
					c-0.4,0-0.7,0-1.1,0v0c0.3-0.2,0.6-0.4,0.9-0.5l0,0c0,0.1,0.1,0.2,0.1,0.2v0c-0.3,0.1-0.7,0.3-1,0.4c0,0,0,0,0,0.1
					c0.3-0.2,0.6-0.4,0.9-0.7c0,0,0,0,0,0c-0.2-0.2-0.6-0.2-0.8,0c-0.2,0.2-0.2,0.5,0,0.8c0,0,0,0,0,0c0-0.1-0.1-0.2-0.1-0.2
					c0,0,0,0,0,0c0.3-0.2,0.6-0.4,0.9-0.5c0,0,0,0,0,0c-0.3,0.2-0.6,0.4-0.9,0.5c0,0,0,0.1,0,0.1c0.3-0.2,0.6-0.4,0.9-0.7
					c0,0,0,0,0,0c-0.3,0.2-0.6,0.4-0.9,0.7c0,0,0,0,0,0c0.2-0.2,0.5-0.5,0.7-0.7c0,0,0.1,0.1,0.1,0.1c-0.2,0.2-0.5,0.5-0.7,0.7
					c0,0,0,0,0,0c0-0.1-0.1-0.2-0.1-0.2c0,0,0,0,0,0c0.3-0.2,0.6-0.4,0.9-0.5c0,0-0.1-0.1-0.1-0.1c-0.3,0.3-0.5,0.5-0.8,0.8
					c0,0,0,0,0,0c0.2-0.2,0.5-0.5,0.7-0.7c0,0-0.1-0.1-0.1-0.1c-0.2,0.3-0.4,0.6-0.5,0.9c0,0,0,0,0,0c0.2,0.2,0.6,0.2,0.8,0
					c0.2-0.2,0.2-0.5,0-0.8c-0.2-0.2-0.4-0.4-0.7-0.4c-0.3,0-0.7,0.4-0.5,0.7c0.1,0.2,0.2,0.3,0.4,0.5c0.1-0.3,0.3-0.7,0.4-1
					c0,0,0,0,0,0c0,0,0,0,0,0c-0.2-0.2-0.5-0.2-0.8,0s-0.2,0.5,0,0.8c0,0,0,0.1,0.1,0.1c0.3-0.3,0.5-0.5,0.8-0.8
					c-0.1,0-0.1-0.1-0.2-0.2c-0.2-0.2-0.5-0.2-0.8,0s-0.2,0.6,0,0.8c0,0,0.1,0.1,0.1,0.1c0.3-0.3,0.5-0.5,0.8-0.8
					c-0.1-0.1-0.2-0.2-0.3-0.3c-0.2-0.2-0.6-0.2-0.8,0C125.8,39.4,125.8,39.7,126,39.9L126,39.9z"/>
			</g>
		</g>
	</g>
	<g>
		<g>
			<g>
				<path class="st0" d="M126.8,40.4C126.8,40.4,126.8,40.4,126.8,40.4c0.2,0.2,0.4,0.2,0.6,0.2c0.2,0,0.3-0.2,0.4-0.4l0,0
					c-0.1,0.1-0.3,0.3-0.4,0.4c0,0,0,0,0,0c-0.1,0-0.2,0-0.3,0C127,40.5,126.9,40.4,126.8,40.4c0.2,0.2,0.5,0.4,0.8,0.2
					c0.2-0.2,0.4-0.5,0.2-0.7c0-0.1-0.1-0.1-0.1-0.2c-0.2-0.2-0.5-0.4-0.7-0.2c-0.2,0.2-0.4,0.5-0.2,0.7
					C126.8,40.3,126.8,40.3,126.8,40.4c0.4-0.2,0.7-0.4,1-0.6c-0.1-0.2-0.3-0.3-0.5-0.4c-0.3,0-0.5,0.1-0.6,0.4
					c0.3-0.1,0.6-0.2,0.9-0.2c0,0,0,0,0,0c-0.1-0.1-0.2-0.2-0.4-0.2c-0.1,0-0.3,0.1-0.4,0.2C126.6,39.8,126.5,40.2,126.8,40.4
					L126.8,40.4z"/>
			</g>
		</g>
	</g>
	<g>
		<g>
			<g>
				<path class="st0" d="M126.3,39c-0.2-0.1-0.4-0.1-0.6-0.2c-0.2,0-0.5,0.2-0.5,0.4c0,0.2,0,0.5,0.2,0.6c0.1,0,0.2,0.1,0.3,0.1
					c0.3,0,0.5,0,0.6-0.3c0.1-0.2,0-0.6-0.2-0.7c-0.2-0.1-0.3-0.2-0.5-0.2c-0.3-0.1-0.5,0.1-0.6,0.3c-0.1,0.2,0,0.6,0.2,0.7
					c0.1,0,0.2,0.1,0.2,0.1c0-0.4,0.1-0.7,0.2-1.1c0,0-0.1,0-0.1,0c-0.2,0-0.5,0.2-0.5,0.4s0,0.5,0.2,0.6c0.1,0,0.1,0.1,0.2,0.1
					c0.3,0,0.6-0.1,0.7-0.4c0.1-0.3-0.1-0.6-0.4-0.7c-0.1,0-0.2,0-0.2-0.1c0,0.3,0.1,0.7,0.1,1h0c0.3-0.1,0.4-0.5,0.2-0.7
					c-0.2-0.3-0.5-0.3-0.7-0.2h0c-0.2,0.1-0.3,0.4-0.3,0.5c0,0.2,0.2,0.4,0.4,0.5c0.1,0,0.2,0,0.2,0.1c0.1-0.4,0.2-0.7,0.3-1.1
					c0,0,0,0,0,0c-0.1,0.4-0.2,0.7-0.3,1c0,0,0.1,0,0.1,0c0.3,0,0.5-0.2,0.5-0.5c0-0.3-0.1-0.5-0.4-0.6c-0.1,0,0,0,0,0
					c-0.1,0.3-0.3,0.7-0.4,1c0,0,0.1,0,0.1,0c-0.1,0-0.1,0,0,0c0,0,0.1,0,0.2,0.1c0.1-0.3,0.3-0.7,0.4-1c-0.1,0-0.1,0,0,0
					c-0.1,0.4-0.2,0.7-0.3,1c0.1,0,0,0,0,0c0,0,0.1,0,0,0c0.3,0.1,0.6,0.1,0.7-0.2C126.7,39.5,126.6,39.1,126.3,39L126.3,39z"/>
			</g>
		</g>
	</g>
	<g>
		<g>
			<g>
				<path class="st0" d="M97.9,52.4c0-0.2,0-0.3,0-0.4c0-0.2-0.3-0.1-0.3,0c0,0.2,0,0.3,0,0.4C97.7,52.5,97.8,52.4,97.9,52.4
					c0-0.1-0.1-0.2-0.1-0.4c-0.1,0-0.2,0-0.3,0.1c0,0,0,0.1,0,0.1c0,0.1,0.3,0.1,0.3,0c0-0.2,0-0.2-0.1-0.4
					c-0.1-0.2-0.3-0.1-0.3,0.1c0,0.1,0,0.1,0,0.2c0.1,0,0.2-0.1,0.2-0.1c-0.1-0.2-0.3-0.3-0.4-0.4c-0.1-0.1-0.2,0-0.2,0.1
					c0,0.2,0.1,0.5,0.1,0.7c0,0.2,0.3,0.1,0.3,0c0-0.2-0.1-0.4-0.1-0.6c-0.1,0-0.2,0-0.3,0c0,0.3,0.1,0.5,0.1,0.8c0.1,0,0.2,0,0.3,0
					c0-0.3-0.1-0.6-0.1-1c-0.1,0-0.2,0-0.3,0c0.1,0.5,0,0.9,0,1.4c0.1,0,0.2,0,0.3,0c0-0.5,0-1.1-0.3-1.6c-0.1-0.1-0.3,0-0.2,0.1
					c0.3,0.7,0.2,1.7,0.2,2.5c0,0.2,0.2,0.2,0.3,0c0.1-0.4,0.2-0.9,0.3-1.3c0-0.1,0-0.3,0-0.4c0-0.2,0-0.4,0.2-0.3
					c0.1,0.1,0.3-0.1,0.2-0.2c-0.1-0.1-0.1-0.1-0.2-0.2c-0.1,0-0.2,0.1-0.2,0.2C97.7,52.1,97.8,52.3,97.9,52.4c0,0.2,0.3,0,0.2-0.1
					C98,52.1,98,52,97.9,51.8c0,0.1-0.1,0.1-0.2,0.2c0,0,0,0,0.1,0.1c0.1-0.1,0.1-0.1,0.2-0.2c-0.2-0.1-0.4-0.2-0.5,0
					c-0.1,0.2-0.1,0.7-0.1,1c-0.1,0.4-0.2,0.7-0.2,1.1c0.1,0,0.2,0,0.3,0c0-0.8,0.1-1.8-0.2-2.6c-0.1,0-0.2,0.1-0.2,0.1
					c0.3,0.4,0.3,0.9,0.2,1.4c0,0.2,0.2,0.2,0.3,0c0.1-0.5,0.1-1,0-1.5c0-0.2-0.3-0.2-0.3,0c0,0.4,0,0.7,0.1,1.1
					c0,0.2,0.3,0.1,0.3,0c0-0.3,0-0.6-0.1-0.9c0-0.2-0.3-0.1-0.3,0c0,0.2,0.1,0.4,0.1,0.6c0.1,0,0.2,0,0.3,0c0-0.2-0.1-0.5-0.1-0.7
					c-0.1,0-0.2,0.1-0.2,0.1c0.2,0.2,0.3,0.3,0.4,0.4c0.1,0.1,0.2,0,0.2-0.1c0-0.1,0-0.2-0.1-0.3c-0.1,0-0.2,0-0.3,0.1
					c0,0.1,0,0.2,0,0.3c0.1,0,0.2,0,0.3,0c0,0,0-0.1,0-0.1c-0.1-0.2-0.3-0.1-0.3,0.1c0,0.1,0.1,0.2,0.1,0.3
					C97.6,52.7,97.9,52.6,97.9,52.4c0-0.1,0-0.3,0-0.4c-0.1,0-0.2,0-0.3,0c0,0.1,0,0.2,0,0.4C97.6,52.6,97.9,52.6,97.9,52.4
					L97.9,52.4z"/>
			</g>
		</g>
	</g>
	<g>
		<g>
			<g>
				<path class="st0" d="M98.1,53.3c0.1,0.6,0.1,1.3,0.4,1.8c0.1,0.1,0.2,0,0.3-0.1c0,0,0,0,0-0.1c0-0.2-0.3-0.2-0.3,0
					c0,0,0,0,0,0.1c0.1,0,0.2,0,0.3-0.1c-0.1-0.3-0.2-0.6-0.2-0.9c0-0.3-0.1-0.6-0.1-0.9C98.4,53,98.1,53.1,98.1,53.3L98.1,53.3z"/>
			</g>
		</g>
	</g>
	<g>
		<g>
			<g>
				<path class="st0" d="M99.7,52.1L99.7,52.1c0,0,0,0.1,0,0.2c0,0,0,0,0,0c-0.1,0-0.1,0-0.2-0.1c0,0.1,0,0.1,0,0.2
					c0,0.1,0.1,0.2,0.2,0.1c0.1-0.1,0.2-0.2,0.2-0.2C99.8,52.2,99.7,52.1,99.7,52.1c-0.1,0.2-0.1,0.3-0.1,0.5c0,0.1,0.1,0.2,0.2,0.1
					c0.1-0.1,0.2-0.2,0.2-0.3c-0.1,0-0.2-0.1-0.2-0.1c-0.1,0.2-0.1,0.4-0.2,0.6c0,0.2,0.2,0.2,0.2,0.1s0.2-0.2,0.2-0.4
					c-0.1,0-0.2-0.1-0.2-0.1c-0.1,0.3-0.2,0.6-0.2,0.9c0,0.1,0.2,0.3,0.2,0.1c0.1-0.2,0.2-0.4,0.3-0.6c-0.1,0-0.2-0.1-0.2-0.1
					c-0.1,0.3-0.2,0.7-0.3,1c0,0.2,0.2,0.2,0.3,0.1c0.2-0.5,0.3-1.1,0.8-1.4c-0.1-0.1-0.1-0.2-0.2-0.2c-0.5,0.4-0.7,1-0.9,1.6
					c0.1,0,0.2,0,0.3,0.1c0.1-0.6,0.3-1.1,0.6-1.6c0.1-0.1-0.1-0.3-0.2-0.2c-0.1,0.1-0.3,0.3-0.4,0.4c-0.1,0.1,0.1,0.3,0.2,0.2
					s0.2-0.2,0.3-0.4c0.1-0.1-0.1-0.3-0.2-0.2c-0.1,0-0.2,0.1-0.2,0.1c0.1,0.1,0.1,0.2,0.2,0.2c0.1-0.1,0.1-0.1,0.2-0.3
					c0.1-0.1,0-0.2-0.2-0.2c-0.1,0-0.2,0-0.2,0.2c-0.1,0.1,0,0.3,0.2,0.2c0.1-0.1,0.2-0.2,0.3-0.3c-0.1,0-0.2-0.1-0.2-0.1
					c-0.1,0.2-0.1,0.4-0.2,0.6c-0.1,0.1,0.1,0.3,0.2,0.2c0.1-0.1,0.2-0.2,0.3-0.3c-0.1-0.1-0.2-0.1-0.2-0.2
					c-0.2,0.4-0.4,0.7-0.5,1.1c0,0.2,0.2,0.2,0.2,0.1c0.2-0.3,0.3-0.6,0.5-0.9c0.1-0.2-0.2-0.2-0.2-0.1c-0.2,0.4-0.3,0.7-0.4,1.1
					c0,0.2,0.2,0.2,0.3,0.1c0.1-0.3,0.2-0.5,0.3-0.8c-0.1,0-0.2,0-0.3-0.1c-0.1,0.3-0.2,0.6-0.3,1c0,0.2,0.2,0.2,0.3,0.1
					c0.1-0.3,0.2-0.6,0.3-0.9c0.1-0.2-0.2-0.2-0.3-0.1c-0.1,0.3-0.2,0.6-0.3,0.9c0.1,0,0.2,0,0.3,0.1c0.2-0.5,0.4-1,0.7-1.5
					c-0.1,0-0.2-0.1-0.2-0.1c-0.3,0.5-0.5,1-0.8,1.5c0.1,0,0.2,0.1,0.2,0.1c0.2-0.4,0.5-1.3,0.9-1.4c0-0.1-0.1-0.2-0.1-0.2
					c-0.1,0.1-0.1,0.1-0.2,0.2c-0.1,0.1,0.1,0.3,0.2,0.2c0.1-0.1,0.2-0.2,0.4-0.2c0-0.1-0.1-0.2-0.1-0.2c-0.7,0.6-1.1,1.4-1.5,2.2
					c0.1,0,0.2,0.1,0.2,0.1c0.2-0.5,0.4-1,0.7-1.5c-0.1,0-0.2-0.1-0.2-0.1c-0.2,0.4-0.4,0.9-0.5,1.3c-0.1,0.2,0.2,0.2,0.3,0.1
					c0.1-0.3,0.2-0.6,0.4-0.9c0.1-0.2-0.2-0.2-0.3-0.1c-0.1,0.3-0.2,0.6-0.4,1c0.1,0,0.2,0,0.3,0.1c0.1-0.3,0.2-0.7,0.3-1
					c-0.1,0-0.2,0-0.3-0.1c-0.1,0.2-0.2,0.5-0.3,0.7c-0.1,0.2,0.2,0.2,0.2,0.1c0.2-0.3,0.3-0.6,0.4-0.9c-0.1,0-0.2-0.1-0.2-0.1
					c-0.1,0.3-0.2,0.5-0.3,0.8c-0.1,0.1,0.2,0.2,0.2,0.1c0.1-0.2,0.2-0.5,0.3-0.7c0-0.2-0.2-0.2-0.3-0.1c-0.1,0.4-0.3,0.7-0.4,1.1
					c-0.1,0.2,0.2,0.2,0.3,0.1c0.1-0.4,0.3-0.7,0.4-1.1c-0.1,0-0.2,0-0.3-0.1c-0.1,0.2-0.1,0.4-0.2,0.7c0.1,0,0.2,0.1,0.2,0.1
					c0.1-0.3,0.2-0.5,0.3-0.8c0.1-0.1-0.2-0.2-0.2-0.1c-0.2,0.3-0.3,0.6-0.4,0.9c0.1,0,0.2,0.1,0.2,0.1c0.1-0.2,0.2-0.5,0.3-0.7
					c0.1-0.2-0.2-0.2-0.3-0.1c-0.1,0.3-0.2,0.6-0.3,1c0,0.2,0.2,0.2,0.3,0.1c0.1-0.3,0.2-0.7,0.4-1c-0.1,0-0.2,0-0.3-0.1
					c-0.1,0.3-0.2,0.6-0.4,0.9c0.1,0,0.2,0,0.3,0.1c0.2-0.4,0.3-0.8,0.5-1.2c0.1-0.2-0.2-0.3-0.2-0.1c-0.3,0.5-0.5,1-0.7,1.5
					c-0.1,0.2,0.2,0.2,0.2,0.1c0.4-0.8,0.7-1.6,1.4-2.2c0.1-0.1,0-0.3-0.1-0.2c-0.2,0.1-0.3,0.2-0.5,0.3c0.1,0.1,0.1,0.1,0.2,0.2
					c0.1-0.1,0.1-0.1,0.2-0.2c0.1-0.1,0-0.3-0.1-0.2c-0.6,0.2-0.8,1.1-1.1,1.6c-0.1,0.2,0.2,0.3,0.2,0.1c0.2-0.5,0.5-1,0.8-1.5
					c0.1-0.2-0.1-0.3-0.2-0.1c-0.4,0.5-0.6,1-0.7,1.5c0,0.2,0.2,0.2,0.3,0.1c0.1-0.3,0.2-0.6,0.3-0.9c-0.1,0-0.2,0-0.3-0.1
					c-0.1,0.3-0.2,0.6-0.3,0.9c0.1,0,0.2,0,0.3,0.1c0.1-0.3,0.2-0.6,0.3-1c0-0.2-0.2-0.2-0.3-0.1c-0.1,0.3-0.2,0.5-0.3,0.8
					c0.1,0,0.2,0,0.3,0.1c0.1-0.4,0.2-0.7,0.4-1c-0.1,0-0.2-0.1-0.2-0.1c-0.1,0.3-0.3,0.6-0.4,0.9c0.1,0,0.2,0.1,0.2,0.1
					c0.1-0.4,0.3-0.7,0.4-1c0.1-0.1-0.1-0.3-0.2-0.2c-0.1,0.1-0.2,0.2-0.3,0.3c0.1,0.1,0.2,0.1,0.2,0.2c0.1-0.2,0.2-0.4,0.3-0.7
					c0-0.2-0.1-0.2-0.2-0.1c-0.1,0.1-0.2,0.2-0.3,0.2c0.1,0.1,0.1,0.2,0.2,0.2c0,0,0.1,0,0.1-0.1c0-0.1-0.1-0.1-0.2-0.2
					c0,0.1-0.1,0.2-0.2,0.2c-0.1,0.1,0,0.3,0.2,0.2c0.1,0,0.2-0.1,0.2-0.1c-0.1-0.1-0.1-0.1-0.2-0.2c0,0.1-0.1,0.2-0.2,0.3
					c0.1,0.1,0.1,0.1,0.2,0.2c0.1-0.1,0.3-0.3,0.4-0.4c-0.1-0.1-0.2-0.1-0.2-0.2c-0.3,0.5-0.5,1.1-0.6,1.6c0,0.2,0.2,0.2,0.3,0.1
					c0.2-0.5,0.4-1.1,0.8-1.5c0.1-0.1,0-0.3-0.2-0.2c-0.5,0.4-0.7,1-0.9,1.6c0.1,0,0.2,0,0.3,0.1c0.1-0.3,0.2-0.7,0.3-1
					c0-0.2-0.2-0.2-0.2-0.1c-0.1,0.2-0.2,0.4-0.3,0.6c0.1,0,0.2,0.1,0.2,0.1c0-0.3,0.1-0.6,0.2-0.9c0-0.2-0.2-0.2-0.2-0.1
					c-0.1,0.1-0.1,0.3-0.2,0.4c0.1,0,0.2,0.1,0.2,0.1c0-0.2,0.1-0.4,0.2-0.6c0-0.2-0.2-0.2-0.2-0.1c0,0.1-0.1,0.2-0.2,0.3
					c0.1,0,0.2,0.1,0.2,0.1c0-0.2,0.1-0.3,0.1-0.4C99.9,52.1,99.7,52,99.7,52.1c-0.1,0.1-0.2,0.2-0.2,0.2c0.1,0,0.2,0.1,0.2,0.1
					C99.7,52.3,99.7,52.2,99.7,52.1c0-0.1-0.1-0.1-0.2-0.1c0,0,0,0,0,0c-0.1,0-0.1,0.1,0,0.2l0,0C99.5,52.4,99.7,52.2,99.7,52.1
					L99.7,52.1z"/>
			</g>
		</g>
	</g>
	<g>
		<g>
			<g>
				<path class="st0" d="M96.3,51.6c0.8,0.5,0.7,1.8,0.7,2.7c0,0.2,0.3,0.2,0.3,0c-0.1-1,0.1-2.3-0.9-2.9
					C96.3,51.3,96.2,51.5,96.3,51.6L96.3,51.6z"/>
			</g>
		</g>
	</g>
	<g>
		<g>
			<g>
				<path class="st0" d="M96.8,51.7c0,0.1,0.1,0.2,0.1,0.3c0.1,0,0.2-0.1,0.2-0.1c0,0,0,0,0,0c-0.1,0-0.2,0-0.3,0
					c0.1,0.2,0.1,0.4,0.1,0.7c0,0.2,0.3,0.2,0.3,0c0-0.3-0.1-0.5-0.2-0.7c0-0.1-0.3-0.1-0.3,0c0,0.1,0,0.1,0,0.2
					c0.1,0.1,0.3,0,0.2-0.1c0-0.1-0.1-0.2-0.1-0.3C97,51.5,96.7,51.6,96.8,51.7L96.8,51.7z"/>
			</g>
		</g>
	</g>
	<g>
		<g>
			<g>
				<path class="st0" d="M96.2,51.6c0.9,0.5,0.9,1.9,0.8,2.8c0,0.2,0.3,0.2,0.3,0c0-1,0-2.4-1-3C96.2,51.3,96,51.5,96.2,51.6
					L96.2,51.6z"/>
			</g>
		</g>
	</g>
	<g>
		<g>
			<g>
				<path class="st0" d="M101.2,52.1c-0.5,0-0.9,0.4-1.3,0.7c0.1,0.1,0.1,0.1,0.2,0.2c0.3-0.3,0.6-0.5,1-0.6c0-0.1-0.1-0.2-0.1-0.2
					c-0.9,0.4-1.3,1.2-1.7,2.1c-0.1,0.2,0.2,0.3,0.2,0.1c0.4-0.8,0.8-1.6,1.6-2c0.2-0.1,0-0.3-0.1-0.2c-0.4,0.1-0.8,0.3-1.1,0.7
					c-0.1,0.1,0.1,0.3,0.2,0.2c0.3-0.3,0.6-0.6,1.1-0.6C101.4,52.4,101.4,52.1,101.2,52.1L101.2,52.1z"/>
			</g>
		</g>
	</g>
	<g>
		<g>
			<g>
				<path class="st0" d="M96.4,79.6c8.7-0.2,17.4-0.4,26.1-0.7c0.2,0,0.2-0.3,0-0.3c-8.7,0.2-17.4,0.4-26.1,0.7
					C96.2,79.3,96.2,79.6,96.4,79.6L96.4,79.6z"/>
			</g>
		</g>
	</g>
	<g>
		<g>
			<g>
				<path class="st0" d="M10.3,81c8.7-0.2,17.4-0.4,26.1-0.7c0.2,0,0.2-0.3,0-0.3c-8.7,0.2-17.4,0.4-26.1,0.7
					C10.1,80.8,10.1,81,10.3,81L10.3,81z"/>
			</g>
		</g>
	</g>
	<g>
		<path class="st0" d="M31.7,99.3c0,0,2.2-2.6,5.4-2.1l-0.4-7.3l-3,1l-2,0.7l-2.2,0.9l-1.7,0.6l-0.9,1l-0.1,1.3v0.8l0.7,0.6l0.9,0.7
			L31.7,99.3z"/>
	</g>
	<g>
		<g>
			<g>
				<path class="st0" d="M29.8,92.8L29.8,92.8c-0.3,0-0.6,0.2-0.6,0.5c0,0,0,0,0,0c0,0.4,0.4,0.7,0.8,0.5c0.3-0.1,0.4-0.4,0.7-0.5
					c0.5-0.3,0.2-1.2-0.4-1c-0.3,0.1-0.4,0.1-0.7,0.2c-0.6,0.3-0.2,1.2,0.4,1c0.1,0,0.2-0.1,0.4-0.1c-0.1-0.4-0.2-0.7-0.3-1.1
					c-0.1,0-0.2,0.1-0.3,0.1c0.1,0.3,0.3,0.7,0.4,1c1.4-0.8,2.9-1.2,4.4-1.6c-0.1-0.4-0.2-0.7-0.3-1.1c-0.9,0.2-1.6,0.6-2.4,1.1
					c-0.6,0.4,0,1.4,0.5,0.9c0.7-0.5,1.3-0.8,2.1-1c0.7-0.2,0.4-1.2-0.3-1.1c-1.6,0.4-3.2,0.9-4.7,1.7c-0.5,0.3-0.2,1.3,0.4,1
					c0.1,0,0.2-0.1,0.3-0.1c0.6-0.3,0.4-1.3-0.3-1.1c-0.1,0-0.2,0.1-0.4,0.1c0.1,0.3,0.3,0.7,0.4,1c0.1,0,0.3-0.1,0.4-0.1
					c-0.1-0.3-0.3-0.7-0.4-1c-0.2,0.1-0.4,0.4-0.7,0.5c0.3,0.2,0.5,0.3,0.8,0.5c0,0,0,0,0,0c-0.2,0.2-0.4,0.4-0.5,0.5h0
					C30.5,93.8,30.5,92.7,29.8,92.8L29.8,92.8z"/>
			</g>
		</g>
	</g>
	<g>
		<g>
			<g>
				<path class="st0" d="M30.2,94c0.3-0.1,0.6-0.3,0.9-0.4c0.6-0.3,0.2-1.2-0.4-1c-0.3,0.1-0.6,0.2-0.9,0.3c0.1,0.3,0.3,0.7,0.4,1
					c0.2-0.2,0.5-0.3,0.7-0.4c0.5-0.4,0.2-1.1-0.4-1c-0.2,0-0.3,0-0.5,0.1c0.1,0.4,0.2,0.7,0.3,1c0.3-0.2,0.5-0.4,0.9-0.5
					c0.6-0.3,0.4-1.3-0.3-1.1c-0.3,0.1-0.7,0.2-1,0.3c0.1,0.3,0.3,0.7,0.4,1c0.2-0.1,0.4-0.2,0.6-0.3c-0.1-0.4-0.2-0.7-0.3-1.1
					c-0.2,0.1-0.4,0.1-0.5,0.2c0.1,0.3,0.3,0.7,0.4,1c1.2-0.6,2.5-0.7,3.7-1.2c0.6-0.3,0.2-1.2-0.4-1c-0.6,0.2-1.1,0.4-1.7,0.5
					c0.1,0.4,0.2,0.7,0.3,1.1c0.6-0.3,1.3-0.5,1.9-0.6c0.7-0.2,0.4-1.2-0.3-1.1c-0.7,0.2-1.3,0.4-1.9,0.6c-0.6,0.3-0.4,1.3,0.3,1.1
					c0.6-0.2,1.1-0.4,1.7-0.5c-0.1-0.3-0.3-0.7-0.4-1c-0.6,0.3-1.4,0.3-2,0.5c-0.6,0.2-1.2,0.4-1.7,0.7c-0.6,0.3-0.2,1.2,0.4,1
					c0.2,0,0.4-0.1,0.5-0.2c0.7-0.2,0.4-1.3-0.3-1.1c-0.3,0.1-0.6,0.2-0.8,0.4c-0.5,0.3-0.2,1.2,0.4,1c0.3-0.1,0.7-0.2,1-0.3
					c-0.1-0.4-0.2-0.7-0.3-1.1c-0.4,0.2-0.8,0.4-1.1,0.6c-0.4,0.3-0.3,1.1,0.3,1c0.3,0,0.5-0.1,0.8-0.1c-0.1-0.3-0.3-0.7-0.4-1
					c-0.2,0.2-0.5,0.3-0.7,0.4C29.2,93.3,29.5,94.1,30.2,94c0.2-0.1,0.5-0.2,0.8-0.3c-0.1-0.3-0.3-0.7-0.4-1
					c-0.3,0.1-0.6,0.3-0.9,0.4C29,93.3,29.6,94.3,30.2,94L30.2,94z"/>
			</g>
		</g>
	</g>
	<g>
		<g>
			<g>
				<path class="st0" d="M32,98.2c0.3-0.1,0.5-0.3,0.8-0.4c-0.2-0.3-0.4-0.6-0.7-0.9c-0.2,0.2-0.4,0.4-0.6,0.7c-0.4,0.4,0,1,0.5,0.9
					c0.2,0,0.3-0.1,0.5-0.2c-0.2-0.3-0.4-0.6-0.7-0.9c-0.2,0.2-0.3,0.3-0.4,0.5c-0.3,0.5,0.3,1,0.7,0.7c0,0,0.1,0,0.1-0.1
					c-0.2-0.2-0.5-0.5-0.7-0.7c-0.1,0-0.1,0.1-0.2,0.2c-0.5,0.4,0.2,1.2,0.7,0.9c0.1,0,0.1-0.1,0.2-0.2c-0.2-0.2-0.5-0.5-0.7-0.7
					c0,0,0.1-0.1,0.1-0.1c0.2,0.3,0.4,0.6,0.5,0.9c0.6-0.6,1.4-1,2.1-1.5c-0.2-0.3-0.4-0.6-0.5-0.9c-0.4,0.3-0.9,0.6-1.3,0.9
					c-0.6,0.4-0.1,1.2,0.5,0.9c0.6-0.3,1.3-0.6,1.8-1c0.6-0.4,0.1-1.3-0.5-0.9c-0.4,0.2-0.8,0.4-1.2,0.6c-0.6,0.4-0.1,1.2,0.5,0.9
					c0.7-0.3,1.4-0.6,2.1-0.8c-0.1-0.4-0.2-0.7-0.3-1.1c-0.4,0.2-0.9,0.4-1.3,0.5c-0.5,0.2-0.5,1.1,0.2,1.1c0.8,0,1.6-0.5,2.4-0.4
					c0-0.4,0-0.7,0-1.1c-0.1,0-0.2,0-0.3,0.1c-0.6,0.2-0.5,0.9,0,1.1c0.2,0.1,0.4,0,0.7-0.1c0.6-0.3,0.1-1.3-0.5-0.9
					c0.1,0,0.1,0,0.2,0c0,0.4,0,0.7,0,1.1c0.1,0,0.2,0,0.3-0.1c0.5-0.1,0.5-1,0-1.1c-1-0.2-1.7,0.4-2.7,0.4c0,0.4,0.1,0.7,0.2,1.1
					c0.4-0.2,0.9-0.4,1.3-0.5c0.6-0.3,0.4-1.3-0.3-1.1c-0.8,0.3-1.6,0.6-2.3,0.9c0.2,0.3,0.4,0.6,0.5,0.9c0.4-0.2,0.8-0.4,1.2-0.6
					c-0.2-0.3-0.4-0.6-0.5-0.9c-0.6,0.4-1.2,0.7-1.8,1c0.2,0.3,0.4,0.6,0.5,0.9c0.4-0.3,0.9-0.6,1.3-0.9c0.6-0.4,0.1-1.3-0.5-0.9
					c-0.8,0.5-1.6,1-2.3,1.6c-0.4,0.4,0,1.1,0.5,0.9c0.3-0.1,0.4-0.2,0.5-0.4c0.3-0.4-0.3-1.1-0.7-0.7c-0.1,0-0.1,0.1-0.2,0.2
					c0.2,0.3,0.4,0.6,0.7,0.9c0.2-0.1,0.2-0.2,0.4-0.4c0.3-0.5-0.3-1-0.7-0.7c0,0-0.1,0-0.1,0.1c0.2,0.2,0.5,0.5,0.7,0.7
					c0.1-0.1,0.2-0.2,0.3-0.3c0.5-0.5-0.1-1.1-0.7-0.9c-0.1,0-0.2,0-0.2,0.1c0.2,0.3,0.4,0.6,0.5,0.9c0.2-0.2,0.4-0.5,0.6-0.7
					c0.5-0.5-0.1-1.1-0.7-0.9c-0.3,0.1-0.5,0.3-0.8,0.4C30.9,97.6,31.4,98.5,32,98.2L32,98.2z"/>
			</g>
		</g>
	</g>
	<g>
		<g>
			<g>
				<path class="st0" d="M36.7,96.5C36.8,96.5,36.8,96.6,36.7,96.5c0,0.2,0,0.3,0,0.4c0,0.1-0.1,0.1-0.1,0.2
					c0.1-0.1,0.2-0.3,0.2-0.4c0-0.1-0.1-0.3-0.2-0.4c-0.1-0.1-0.2-0.2-0.4-0.2c-0.2,0-0.3,0.1-0.4,0.2c-0.2,0.2-0.2,0.5-0.1,0.8
					c0.2,0.2,0.5,0.4,0.7,0.2C36.8,97.1,36.9,96.8,36.7,96.5L36.7,96.5z"/>
			</g>
		</g>
	</g>
	<g>
		<path class="st0" d="M96.5,99.4l1.2-0.4l1.6-0.7l1.1-0.9l0.9-0.8l0.6-0.6v-1.1l-0.5-1.2l-2.9-1.5l-2.4-0.9c0,0-3-0.9-3.1-0.9
			c-0.1,0-2.1-0.5-2.1-0.5l0.1,6.9C90.8,96.9,94.8,96.5,96.5,99.4z"/>
	</g>
	<g>
		<g>
			<g>
				<path class="st0" d="M91.7,90.5c-0.1-0.1-0.3-0.2-0.4-0.3c0,0.1-0.1,0.2-0.1,0.2C91.3,90.4,91.5,90.5,91.7,90.5
					c0.1,0,0.1-0.1,0.2-0.2c-0.3,0-0.5-0.2-0.7-0.3c0,0.1-0.1,0.2-0.1,0.2c0.5,0.1,1,0.2,1.4,0.3c0-0.1,0-0.2,0-0.3
					c-0.4,0-0.7-0.1-1.1-0.2c-0.2-0.1-0.2,0.2-0.1,0.3c1.7,0.6,3.5,0.7,5.1,1.4c1.5,0.7,3.4,1.3,4.4,2.6c0.1-0.1,0.2-0.1,0.2-0.2
					c-1.4-1.1-2.9-2-4.6-2.6c0,0.1,0,0.2-0.1,0.3c0.8,0.2,1.6,0.4,2.4,0.7c0.2,0.1,0.3-0.2,0.1-0.2c-0.4-0.2-0.9-0.4-1.3-0.6
					c-0.2-0.1-0.3,0.1-0.1,0.2c0.5,0.3,0.9,0.7,1.2,1.1c0.1,0.1,0.3-0.1,0.2-0.2c-0.4-0.4-0.8-0.8-1.3-1.2c0,0.1-0.1,0.2-0.1,0.2
					c0.4,0.2,0.9,0.4,1.3,0.6c0-0.1,0.1-0.2,0.1-0.2c-0.8-0.3-1.6-0.6-2.4-0.8c-0.2,0-0.2,0.2-0.1,0.3c1.6,0.6,3.1,1.4,4.5,2.5
					c0.1,0.1,0.3,0,0.2-0.2c-1-1.3-2.7-1.9-4.2-2.6c-1.7-0.8-3.6-0.9-5.4-1.6c0,0.1,0,0.2-0.1,0.3c0.4,0.1,0.7,0.2,1.1,0.2
					c0.2,0,0.2-0.2,0-0.3c-0.5-0.1-1-0.2-1.4-0.3c-0.2,0-0.2,0.2-0.1,0.2c0.3,0.2,0.5,0.3,0.8,0.4c0.2,0,0.3-0.2,0.1-0.2
					c-0.4-0.2-0.2-0.1-0.7-0.2c-0.1,0-0.2,0.1-0.1,0.2c0.1,0.1,0.3,0.2,0.4,0.3C91.6,90.8,91.8,90.6,91.7,90.5L91.7,90.5z"/>
			</g>
		</g>
	</g>
	<g>
		<g>
			<g>
				<path class="st0" d="M101.6,95.6c0.1,0,0.2-0.1,0.3-0.2c0-0.1-0.1-0.2-0.1-0.2c0,0-0.1,0-0.1,0.1c-0.2,0.1,0,0.3,0.1,0.2
					c0,0,0.1,0,0.1-0.1c0.2-0.1,0-0.3-0.1-0.2c-0.1,0-0.2,0.1-0.3,0.2C101.3,95.5,101.5,95.7,101.6,95.6L101.6,95.6z"/>
			</g>
		</g>
	</g>
	<g>
		<g>
			<g>
				<path class="st0" d="M26.8,95.4c-0.1,0-0.2,0-0.3,0c0,0.1,0,0.2,0,0.3C26.6,95.7,26.7,95.6,26.8,95.4c0-0.2,0.1-0.4,0.2-0.6
					c0-0.2-0.2-0.2-0.2-0.1c-0.2,0.2-0.2,0.5-0.2,0.8C26.6,95.5,26.7,95.5,26.8,95.4c0-0.1-0.2-0.2-0.4,0s0.1,0.3,0.2,0.3
					c0-0.1-0.1-0.2-0.1-0.2c-0.1,0-0.1,0-0.2,0.1c-0.1,0.1-0.1,0.3,0.1,0.3c0.3,0,0.6,0,1,0c0.2,0,0.2-0.3,0-0.3c-0.3,0-0.6,0-1,0
					c0,0.1,0,0.2,0.1,0.3c0.1,0,0.1,0,0.2-0.1c0.1-0.1,0-0.3-0.1-0.2c0,0,0,0,0,0c0,0,0,0.1,0,0.1v0c0,0,0,0.1-0.1,0.1l0,0
					c0,0-0.1,0-0.1,0l0,0c0,0,0-0.1,0-0.1v0c0,0.2,0.3,0.2,0.3,0c0-0.2,0-0.5,0.2-0.7c-0.1,0-0.2-0.1-0.2-0.1c0,0.1-0.1,0.2-0.1,0.4
					c0,0.1-0.1,0.3-0.1,0.4c0,0,0.1,0,0.1,0c0,0,0,0,0,0c-0.2,0-0.2,0.3,0,0.3c0.1,0,0.2,0,0.4,0C27,95.6,27,95.4,26.8,95.4
					L26.8,95.4z"/>
			</g>
		</g>
	</g>
	<g>
		<polygon class="st0" points="90.7,100.6 97.7,99 95.2,94.2 90.5,94.2 		"/>
	</g>
	<g>
		<g>
			<g>
				<path d="M92.2,50.5C94,54,95,57.9,95,62c-0.1,15.2-14.8,27.6-32.7,27.4c-17.9-0.1-32.5-12.6-32.4-27.9
					C30,46.3,44.7,34,62.6,34.1c3.7,0,7.1,0.6,10.4,1.5c0-0.1,0.1-0.3,0.1-0.4c-3.3-1-6.8-1.5-10.5-1.5
					c-18.2-0.1-33.1,12.4-33.1,27.8C29.4,77,44.1,89.7,62.2,89.8C80.4,90,95.3,77.5,95.4,62c0-4.1-1-7.9-2.8-11.4
					C92.5,50.5,92.3,50.5,92.2,50.5z"/>
			</g>
		</g>
		<g>
			<g>
				<path d="M91.5,50.5c-0.2,0-0.4,0-0.5-0.1c2.9,4.2,4.6,9,4.5,14.2c-0.1,15.2-14.8,27.6-32.7,27.4C44.8,92,30.3,79.5,30.4,64.2
					C30.5,49,45.2,36.7,63.1,36.8c3.3,0,6.5,0.5,9.5,1.3c0-0.2,0-0.3,0-0.4c-3-0.8-6.2-1.3-9.6-1.3C45,36.2,30.1,48.8,30,64.2
					c-0.1,15.5,14.6,28.2,32.8,28.3s33.1-12.4,33.1-27.8C95.9,59.5,94.3,54.7,91.5,50.5z"/>
			</g>
		</g>
	</g>
	<g>
		<g>
			<g>
				<path d="M81,106.1c-2.2,0-4.4,0.2-6.6,0.5c-1.1,0.2-3.7,0.2-4,1.6c-0.2,1.3,1.9,1.2,2.7,1.3c2,0.2,4-0.1,6-0.2
					c1.2,0,2.3,0.2,3.2,1c0.6,0.5,1,1.1,1.8,1.4c1.6,0.6,3.4,0.2,5-0.1c1.8-0.3,4.1-0.4,5.7-1.4c0.8-0.5,1.6-1.3,0.5-1.9
					c-1.8-1-4.2-1-6.2-1.1c-2.7-0.2-5.5-0.6-8.1-1.3c-0.2,0-0.2,0.2-0.1,0.3c2,0.5,4.1,0.9,6.2,1.2c2.1,0.2,4.2,0.2,6.3,0.7
					c0.4,0.1,1.2,0.2,1.5,0.5c1.2,1.1-0.4,1.7-1,1.9c-0.9,0.3-2,0.5-2.9,0.6c-2,0.4-4.4,1.1-6.4,0.5c-1-0.3-1.5-1.1-2.3-1.7
					c-0.5-0.4-1.1-0.6-1.8-0.7c-1.8-0.3-3.7,0.2-5.5,0.2c-1,0-2-0.1-3-0.2c-0.9,0.1-1.1-0.4-0.7-1.5c0.3-0.1,0.6-0.2,0.9-0.3
					c0.5-0.1,1.1-0.2,1.7-0.3c2.4-0.4,4.8-0.6,7.1-0.6C81.2,106.4,81.2,106.1,81,106.1L81,106.1z"/>
			</g>
		</g>
	</g>
	<g>
		<g>
			<g>
				<path d="M80.8,105.8c0.9-0.4,0.7-0.4,1.3-0.2c0.2,0.1,0.5,0.1,0.7,0.1c0.8,0.1,1.5-0.1,2.3-0.2c1-0.1,1.8,0,2.7,0.4
					c0.5,0.2,0.9,0.3,0.4,0.7c-0.1,0.1-0.2,0.1-0.4,0.3c-0.1,0.1,0.1,0.3,0.2,0.2c0.2-0.2,0.8-0.3,0.9-0.7c0-0.4-0.3-0.4-0.6-0.6
					c-1.6-0.8-2.9-0.6-4.6-0.4c-0.7,0-1.3-0.1-1.9-0.3c-0.2-0.1-0.4-0.2-0.7-0.2c-0.3,0-0.7,0-0.9,0.3c-0.4,0.5,0.1,1.1,0.7,0.8
					C81.2,106,81,105.8,80.8,105.8L80.8,105.8z"/>
			</g>
		</g>
	</g>
	<g>
		<g>
			<g>
				<path d="M92.3,104.5c-0.7-0.1-1.4,0-2.1,0.4c-0.1,0-0.1,0.2,0,0.2c0.9,0.7,2.1,0.8,3.1,0.2c0.1,0,0.1-0.2,0-0.2
					c-0.3-0.4-0.8-0.6-1.3-0.4c-0.2,0-0.1,0.3,0.1,0.3c0.4-0.1,0.8,0,1.1,0.4c0-0.1,0-0.2,0-0.2c-0.9,0.5-2,0.5-2.8-0.2
					c0,0.1,0,0.2,0,0.2c0.6-0.3,1.2-0.4,1.9-0.4C92.5,104.8,92.5,104.5,92.3,104.5L92.3,104.5z"/>
			</g>
		</g>
	</g>
	<g>
		<g>
			<g>
				<path d="M63.6,112.6c-0.4-0.2-0.9-0.1-1.2,0.3c0,0.1-0.1,0.1,0,0.2c0.5,0.5,1.3,0.6,1.9,0.3c0.1,0,0.1-0.1,0-0.2
					c-0.2-0.4-0.6-0.6-1.1-0.6c-0.2,0-0.2,0.3,0,0.3c0.4,0,0.7,0.1,0.8,0.5c0-0.1,0-0.1,0-0.2c-0.5,0.2-1.1,0.1-1.6-0.2
					c0,0.1,0,0.1,0,0.2c0.2-0.3,0.5-0.4,0.9-0.2C63.6,112.9,63.8,112.6,63.6,112.6L63.6,112.6z"/>
			</g>
		</g>
	</g>
	<g>
		<g>
			<g>
				<path d="M114.2,91.7c-1-0.2-2.3-0.1-3.1,0.6c-0.7,0.5,0.1,1,0.7,1.1c0.7,0.1,2.2,0.1,2.7-0.5c0.4-0.4,0.1-1.2-0.5-1.1
					c-0.2,0-0.1,0.3,0.1,0.3c0.2,0.5,0.1,0.8-0.3,0.9c-0.1,0-0.2,0-0.3,0.1c-0.2,0-0.3,0.1-0.5,0.1c-0.3,0-2.3,0.1-1.6-0.7
					c0.3-0.3,0.9-0.4,1.2-0.5c0.5-0.1,1.1-0.1,1.6,0C114.3,91.9,114.3,91.7,114.2,91.7L114.2,91.7z"/>
			</g>
		</g>
	</g>
	<g>
		<g>
			<g>
				<path d="M102.5,84.1c-0.4,0.1-0.7,0.2-0.9,0.4c0,0-0.1,0.2,0,0.2c0.5,0.4,1.4,0.4,1.8-0.2c0,0,0.1-0.2,0-0.2
					c-0.2-0.2-0.4-0.2-0.7-0.2c-0.2,0-0.1,0.3,0.1,0.3c0.2,0,0.3,0,0.4,0.1c0-0.1,0-0.1,0-0.2c-0.4,0.4-1,0.5-1.5,0.2
					c0,0.1,0,0.1,0,0.2c0.2-0.2,0.5-0.3,0.8-0.4C102.8,84.3,102.7,84,102.5,84.1L102.5,84.1z"/>
			</g>
		</g>
	</g>
	<g>
		<g>
			<g>
				<path d="M17.6,88.1c-0.4,0-1,0.1-1.1,0.6c0,0.5,0.8,0.6,1.1,0.6c0.4,0,0.9-0.4,0.8-0.9C18.3,88.1,17.9,88,17.6,88.1
					c-0.1,0.2,0.1,0.4,0.2,0.3c0.1-0.1,0.3,0,0.4,0.1c0.1,0.2,0,0.3-0.1,0.4c-0.2,0.2-0.5,0.2-0.7,0.1c-0.2,0-0.6-0.2-0.4-0.4
					c0.2-0.2,0.5-0.2,0.7-0.2C17.7,88.4,17.7,88.1,17.6,88.1L17.6,88.1z"/>
			</g>
		</g>
	</g>
	<g>
		<g>
			<g>
				<path d="M50.3,115.4c-0.2,0-0.3,0.1-0.4,0.2c-0.1,0-0.1,0.1-0.1,0.2c0.3,0.4,0.9,0.7,1.2,0.2c0.3-0.4-0.2-0.9-0.6-0.7
					c-0.2,0.1,0,0.3,0.1,0.2c0.1-0.1,0.2,0,0.3,0.1c0,0.1-0.1,0.2-0.2,0.3c-0.2,0.1-0.5-0.1-0.6-0.3c0,0.1,0,0.1-0.1,0.2
					c0.2,0,0.3-0.1,0.4-0.2C50.6,115.6,50.5,115.3,50.3,115.4L50.3,115.4z"/>
			</g>
		</g>
	</g>
	<g>
		<g>
			<g>
				<path d="M19.5,106.5c-0.8-0.3-2.7-0.4-3.1,0.7c-0.4,1.1,1.4,1.4,2.1,1.5c0.6,0.1,3.2,0.5,3.4-0.5c0.2-1-2.1-1.6-2.8-1.7
					c-0.2,0-0.2,0.2-0.1,0.3c0.6,0.1,1.6,0.3,2,0.8c0.1,0.3,0.2,0.5,0.3,0.8c-0.3,0-0.6,0.1-0.9,0.1c-0.4,0-0.7,0-1.1,0
					c-0.5,0-2.1-0.1-2.4-0.5c0-0.4,0.1-0.7,0.1-1.1c0.4-0.2,0.7-0.3,1.1-0.3c0.4,0,0.8,0.1,1.2,0.2
					C19.6,106.8,19.7,106.5,19.5,106.5L19.5,106.5z"/>
			</g>
		</g>
	</g>
</g>
</svg>
