<?xml version="1.0" encoding="utf-8"?>
<!-- Generator: Adobe Illustrator 24.0.1, SVG Export Plug-In . SVG Version: 6.00 Build 0)  -->
<svg version="1.1" id="Layer_1" xmlns="http://www.w3.org/2000/svg" xmlns:xlink="http://www.w3.org/1999/xlink" x="0px" y="0px"
	 viewBox="0 0 141.7 141.7" style="enable-background:new 0 0 141.7 141.7;" xml:space="preserve">
<style type="text/css">
	.st0{fill:#070707;}
	.st1{enable-background:new    ;}
</style>
<g id="Layer_1_1_">
</g>
<g id="Layer_1_2_">
</g>
<g id="Layer_1_3_">
</g>
<g id="Layer_3">
	<g>
		<g>
			<path class="st0" d="M36.5,83.4c0-1.6,3.1-3.2,8.5-4.4c0-0.1,0-0.2,0-0.4c-5.5,1.2-8.8,2.9-8.8,4.8c0,1.3,1.5,2.5,4.6,3.6
				c0,0,0,0,0-0.1c0.1-0.1,0.2-0.2,0.3-0.4c0.1-0.1,0.1-0.2,0.2-0.3c-0.1,0.1-0.3,0.2-0.4,0.4C38,85.7,36.5,84.6,36.5,83.4z"/>
		</g>
		<g>
			<path class="st0" d="M91.5,78.5c0,0.1,0,0.2-0.1,0.4c0,0,0.1,0,0.1,0c5.9,1.2,9.3,2.9,9.3,4.6c0,1.1-1.5,2.2-4.2,3.2
				c-0.1-0.2-0.2-0.3-0.3-0.4c0.1,0.1,0.2,0.2,0.3,0.4c0.1,0.1,0.1,0.2,0.1,0.4c3-1.1,4.5-2.3,4.5-3.6
				C101.2,81.5,97.5,79.7,91.5,78.5z"/>
		</g>
		<g>
			<path class="st0" d="M91.8,88c-6,1.3-14.4,2-23.1,2c-8.8,0-17.1-0.7-23.2-2c0.1-0.1,0.1-0.2,0.1-0.4c-0.1,0.2-0.2,0.3-0.3,0.5
				c0,0.1-0.1,0.1-0.1,0.2l0.1,0c6.2,1.4,14.5,2.1,23.5,2.1c8.8,0,17.3-0.7,23.3-2.1C91.9,88.2,91.8,88.1,91.8,88z"/>
		</g>
	</g>
	<g>
		<g>
			<g>
				<path class="st0" d="M88.2,55.4c-2.2-4-6.1-6.6-10.4-7.8c-5.5-1.6-11.8-0.5-17.3,0.2c-4.5,0.6-8.6,2.8-11.4,6.3
					c-3,3.8-4.2,8.6-4.6,13.4C43.9,74.4,45,81.2,45.1,88c0,0.4,0.7,0.4,0.7,0c-0.1-10-3-21.4,2-30.7c2.2-4.1,6-7.2,10.6-8.3
					c2.6-0.7,5.4-0.8,8.1-1c2.6-0.2,5.2-0.5,7.8-0.2c5.4,0.5,10.7,3.3,13.4,8.1C87.8,56.2,88.4,55.8,88.2,55.4L88.2,55.4z"/>
			</g>
		</g>
	</g>
	<g>
		<g>
			<g>
				<path class="st0" d="M60.2,48.6c0.4,0,0.4-0.7,0-0.7C59.8,47.9,59.8,48.6,60.2,48.6L60.2,48.6z"/>
			</g>
		</g>
	</g>
	<g>
		<g>
			<g>
				<path class="st0" d="M45.5,61.3c-3.6-0.3-5.7-4.2-3.3-7.1c1.6-2.1,6-3.5,8-1.2c0.3,0.3,0.8-0.2,0.5-0.5
					c-1.2-1.3-3.1-1.4-4.7-1.2c-1.8,0.2-3.6,1.4-4.6,2.9c-2.2,3.5,0.3,7.4,4.2,7.8C46,62.1,46,61.4,45.5,61.3L45.5,61.3z"/>
			</g>
		</g>
	</g>
	<g>
		<g>
			<g>
				<path class="st0" d="M84.9,51.9c2.5-1.2,6.5-2,8.2,0.8c1.7,2.8,0.7,7-2.8,7.6c-0.4,0.1-0.2,0.7,0.2,0.7c3.8-0.7,5.1-5.2,3.4-8.3
					c-1.8-3.4-6.4-2.8-9.3-1.3C84.1,51.5,84.5,52.1,84.9,51.9L84.9,51.9z"/>
			</g>
		</g>
	</g>
	<g>
		<g>
			<g>
				<path class="st0" d="M64.8,65.6c0.1-0.3,0.1-0.4-0.2-0.2c-0.1,0-0.2,0.1-0.2,0.1c-0.2,0-0.3,0.2-0.5,0.2c-0.5,0.3-1,0.7-1.4,1.1
					c-0.5,0.6-1.1,1.3-0.9,2.1c0.2,1,1.4,1.5,2.2,1.6c1.6,0.2,3.1-0.8,4.8-0.8c1.7,0,4.9,1.9,5.3-1c0.3-2.2-2.4-3.3-4-3.9
					c-0.2-0.1-0.3,0.2-0.1,0.3c1.5,0.6,4.1,1.7,3.7,3.6c-0.5,2.4-3.5,0.6-5,0.6c-1.9,0-4.4,1.7-6.1,0.2c-1.8-1.6,1.1-3.6,2.5-4.1
					c0.1-0.1,0.2-0.2,0.1-0.3c-0.1-0.1-0.3,0-0.4,0C64.5,65.3,64.6,65.7,64.8,65.6L64.8,65.6z"/>
			</g>
		</g>
	</g>
	<g>
		<g>
			<g>
				<path class="st0" d="M70.6,70.2c0.4,1,0.6,2.2,0.3,3.2c-0.2,0.8-0.9,1.4-1.7,1.1c-0.6-0.2-0.7-0.7-1-1.2c-0.1-0.2-0.4,0-0.3,0.2
					c0.2,0.5,0.4,1.1,1,1.4c0.5,0.2,1.2,0.1,1.6-0.2c1.3-0.9,0.9-3.2,0.4-4.5C70.9,69.9,70.5,70,70.6,70.2L70.6,70.2z"/>
			</g>
		</g>
	</g>
	<g>
		<g>
			<g>
				<path class="st0" d="M91.3,72.9c0.5-0.2,1,0,1.5-0.1c0.7-0.1,1.5-0.4,2.2-0.8c1-0.7,1.7-1.8,1.6-3.1c-0.1-0.9-0.7-1.5-1.6-1.5
					c-1.5,0-2.7,1-3.8,2c-0.2,0.2,0.1,0.4,0.2,0.2c0.8-0.8,1.7-1.6,2.8-1.8c0.7-0.2,1.6-0.1,1.9,0.7c0.2,0.6,0.1,1.4-0.2,1.8
					c-0.5,1-1.6,1.7-2.7,2c-0.7,0.2-1.5-0.1-2.2,0.2C91,72.7,91.1,73,91.3,72.9L91.3,72.9z"/>
			</g>
		</g>
	</g>
	<g>
		<g>
			<g>
				<path class="st0" d="M93.9,70c1-0.3,2.1-1.2,1.5-2.3c-0.1-0.2-0.4,0-0.3,0.2c0.5,0.9-0.5,1.6-1.3,1.8
					C93.6,69.7,93.7,70.1,93.9,70L93.9,70z"/>
			</g>
		</g>
	</g>
	<g>
		<path class="st0" d="M76.8,65.5c-4.1,0-7.4-3.3-7.4-7.4s3.3-7.4,7.4-7.4s7.4,3.3,7.4,7.4S80.9,65.5,76.8,65.5z M76.8,51.1
			c-3.9,0-7,3.2-7,7s3.2,7,7,7s7-3.2,7-7S80.7,51.1,76.8,51.1z"/>
	</g>
	<g>
		<path class="st0" d="M58.6,66.3c-4.1,0-7.4-3.3-7.4-7.4s3.3-7.4,7.4-7.4c4.1,0,7.4,3.3,7.4,7.4C66.1,63,62.7,66.3,58.6,66.3z
			 M58.6,51.8c-3.9,0-7,3.2-7,7s3.2,7,7,7s7-3.2,7-7C65.6,55,62.5,51.8,58.6,51.8z"/>
	</g>
	<g>
		<path class="st0" d="M90.6,55.2c0-0.9-0.7-1.5-1.5-1.5c-0.9,0-1.5,0.7-1.5,1.5c0,0.9,0.7,1.5,1.5,1.5C90,56.8,90.6,56.1,90.6,55.2
			z"/>
	</g>
	<g>
		<circle class="st0" cx="46.2" cy="56.6" r="1.5"/>
	</g>
	<g>
		<path class="st0" d="M71,64.7c0-1-1.4-1.8-3.2-1.8c-1.8,0-3.2,0.8-3.2,1.8c0,1,1.4,1.8,3.2,1.8C69.5,66.5,71,65.7,71,64.7z"/>
	</g>
	<g>
		<path class="st0" d="M74.4,58.1c0,1.3,1,2.4,2.4,2.4c1.3,0,2.4-1,2.4-2.4c0-1.3-1-2.4-2.4-2.4C75.5,55.8,74.4,56.8,74.4,58.1z
			 M78.3,57.2c0,0.4-0.3,0.7-0.7,0.7c-0.4,0-0.7-0.3-0.7-0.7c0-0.4,0.3-0.7,0.7-0.7C78,56.5,78.3,56.8,78.3,57.2z"/>
	</g>
	<g>
		<path class="st0" d="M56.5,58.9c0,1.3,1,2.4,2.4,2.4c1.3,0,2.4-1,2.4-2.4c0-1.3-1-2.4-2.4-2.4C57.6,56.5,56.5,57.5,56.5,58.9z
			 M60.3,57.9c0,0.4-0.3,0.7-0.7,0.7c-0.4,0-0.7-0.3-0.7-0.7c0-0.4,0.3-0.7,0.7-0.7C60,57.2,60.3,57.5,60.3,57.9z"/>
	</g>
	<g>
		<g>
			<g>
				<path class="st0" d="M67.9,69.7c0.2,0.9,0.1,2,0,2.9c-0.1,0.6-0.1,1.2-0.5,1.6c-0.5,0.6-1.4,0.7-1.9,0.1
					c-0.9-0.9-0.6-2.8-0.3-3.9c0.1-0.2-0.3-0.3-0.3-0.1c-0.4,1.4-0.7,4.2,1.1,4.7c2.7,0.8,2.5-3.9,2.2-5.3
					C68.2,69.4,67.8,69.5,67.9,69.7L67.9,69.7z"/>
			</g>
		</g>
	</g>
	<g>
		<g>
			<g>
				<path class="st0" d="M40.8,89.1c-1.4-0.8,0.1-2.2,0.9-2.7c1-0.7,2.3-1.2,3.6-1c0.2,0,0.3-0.3,0.1-0.3c-1.7-0.3-3.4,0.5-4.6,1.6
					c-0.9,0.8-1.3,2-0.1,2.7C40.8,89.5,41,89.2,40.8,89.1L40.8,89.1z"/>
			</g>
		</g>
	</g>
	<g>
		<g>
			<g>
				<path class="st0" d="M41.8,88.1c-0.5,0.2-1.1,0.7-1.1,1.3c0,0.6,0.6,0.9,1.1,1c1.4,0.2,3-1.3,3.7-2.3c0.1-0.2-0.2-0.4-0.3-0.2
					c-0.6,0.8-1.4,1.5-2.3,1.9c-0.5,0.2-1.5,0.5-1.8-0.2c-0.3-0.6,0.5-1.1,0.9-1.3C42.2,88.3,42,88,41.8,88.1L41.8,88.1z"/>
			</g>
		</g>
	</g>
	<g>
		<g>
			<g>
				<path class="st0" d="M87.3,55c3.4,4.4,3.4,10.2,3.6,15.5c0.2,5.8,0.1,11.7,0.4,17.5c0,0.4,0.7,0.4,0.7,0
					c-0.3-6.4-0.1-12.8-0.4-19.1c-0.2-5-0.5-10.2-3.7-14.3C87.4,54.2,87,54.7,87.3,55L87.3,55z"/>
			</g>
		</g>
	</g>
	<g>
		<g>
			<g>
				<path class="st0" d="M50.7,92.3c-2.3-0.7-4.6-0.4-6.8,0.7c-0.1,0.1-0.1,0.2,0,0.3c1,0.5,2.1,0.8,3.3,1c1.1,0.1,2.7,0.5,3.8,0.1
					c1-0.4,1.2-2.1-0.1-1.9c-0.2,0-0.2,0.4,0,0.3c-0.1,1.1-0.4,1.5-1.2,1.4c-0.1,0-0.3,0-0.4,0c-0.4,0-0.9-0.1-1.4-0.1
					c-0.4-0.1-3.2-0.2-3.4-0.8c-0.2-0.5,2.7-0.9,3-1c1-0.1,2.1,0.1,3.1,0.4C50.8,92.7,50.9,92.3,50.7,92.3L50.7,92.3z"/>
			</g>
		</g>
	</g>
	<g>
		<g>
			<g>
				<path class="st0" d="M52.1,95.2c-0.6-0.4-1.4-0.3-1.9,0.2c-0.1,0.1-0.1,0.2,0,0.3c0.7,0.4,1.6,0.5,2.3,0.1
					c0.1-0.1,0.1-0.2,0.1-0.2c-0.1-0.3-0.4-0.5-0.7-0.6c-0.2-0.1-0.3,0.3-0.1,0.3c0.2,0.1,0.4,0.2,0.5,0.4c0-0.1,0-0.2,0.1-0.2
					c-0.6,0.3-1.4,0.3-2-0.1c0,0.1,0,0.2,0,0.3c0.4-0.4,1-0.4,1.5-0.2C52.1,95.6,52.3,95.4,52.1,95.2L52.1,95.2z"/>
			</g>
		</g>
	</g>
	<g>
		<g>
			<g>
				<path class="st0" d="M91.7,88.3c1.9-0.3,3.8-0.8,5.6-1.5c0.2-0.1,0.1-0.4-0.1-0.3c-1.8,0.6-3.7,1.1-5.6,1.5
					C91.4,88,91.5,88.3,91.7,88.3L91.7,88.3z"/>
			</g>
		</g>
	</g>
	<g>
		<g>
			<g>
				<path class="st0" d="M91.6,88.5c1.9-0.4,3.8-0.9,5.6-1.7c0.2-0.1,0-0.4-0.2-0.3c-1.8,0.7-3.6,1.3-5.5,1.7
					C91.3,88.2,91.4,88.5,91.6,88.5L91.6,88.5z"/>
			</g>
		</g>
	</g>
	<g>
		<g>
			<g>
				<path class="st0" d="M91.9,88.2c1-0.4,2.1-0.7,3.1-1C95,87.1,95,87,94.9,86.9c-0.7,0.3-1.5,0.5-2.3,0.7
					c-0.2,0.1-0.1,0.4,0.1,0.3c0.9-0.2,1.7-0.4,2.6-0.6c0.2-0.1,0.1-0.4-0.1-0.3c-0.6,0.1-1.2,0.3-1.8,0.5c-0.2,0.1-0.1,0.4,0.1,0.3
					c0.7-0.1,1.4-0.3,2.1-0.6c0.2-0.1,0.1-0.4-0.1-0.3c-0.7,0.3-1.4,0.5-2.1,0.6c0,0.1,0.1,0.2,0.1,0.3c0.6-0.2,1.2-0.4,1.8-0.5
					c0-0.1-0.1-0.2-0.1-0.3c-0.9,0.3-1.7,0.5-2.6,0.6c0,0.1,0.1,0.2,0.1,0.3c0.8-0.2,1.6-0.4,2.4-0.7c0.2-0.1,0.1-0.4-0.1-0.3
					c-1.1,0.3-2.1,0.6-3.1,1C91.6,88,91.7,88.3,91.9,88.2L91.9,88.2z"/>
			</g>
		</g>
	</g>
	<g>
		<g>
			<g>
				<path class="st0" d="M101.1,83.2C101.1,83.2,101.1,83.2,101.1,83.2c-0.1,0.1-0.1,0.2,0,0.2l0,0c0.1,0.1,0.2,0.1,0.2,0l0,0
					c0.1-0.1,0.1-0.1,0-0.2l0,0C101.3,83.1,101,83.1,101.1,83.2c-0.1,0.2-0.1,0.2-0.1,0.3c0.1,0.1,0.2,0.1,0.3,0.2
					c0-0.1,0.1-0.1,0.1-0.1c-0.1,0-0.2-0.1-0.3-0.1c0,0,0,0.1-0.1,0.1c0.1,0.1,0.2,0.1,0.2,0.2c0-0.1,0.1-0.2,0.1-0.3
					c-0.1-0.1-0.2-0.1-0.3-0.1c-0.1,0.2-0.2,0.4-0.3,0.6c0.1,0.1,0.2,0.1,0.3,0.2c0.2-0.3,0.3-0.5,0.5-0.8c-0.1,0-0.2-0.1-0.3-0.1
					c0,0.4-0.2,0.8-0.6,1c0.1,0.1,0.2,0.2,0.2,0.2c0.4-0.4,0.6-0.8,0.7-1.3c-0.1,0-0.2,0-0.3-0.1c-0.1,1.2-1.3,1.8-2.2,2.2
					c-0.2,0.1,0,0.4,0.2,0.3c1.1-0.5,2.3-1.2,2.4-2.5c0-0.2-0.3-0.2-0.3-0.1c-0.1,0.4-0.3,0.8-0.6,1.1c-0.2,0.2,0.1,0.4,0.2,0.2
					c0.4-0.3,0.6-0.8,0.7-1.3C101.5,83.1,101.2,83.1,101.1,83.2c-0.1,0.3-0.2,0.5-0.4,0.8c-0.1,0.2,0.1,0.4,0.3,0.2
					c0.2-0.2,0.3-0.4,0.4-0.7c0.1-0.2-0.2-0.3-0.3-0.1c-0.1,0.1-0.1,0.2-0.2,0.4c-0.1,0.1,0.1,0.2,0.2,0.2c0.2-0.1,0.2-0.2,0.2-0.4
					c0-0.1-0.2-0.2-0.3-0.1c-0.1,0.1-0.1,0.1-0.2,0.2c-0.1,0.2,0.1,0.3,0.3,0.2c0.2-0.1,0.2-0.3,0.2-0.5c-0.1,0-0.2,0.1-0.3,0.1l0,0
					C101.1,83.3,101.1,83.3,101.1,83.2L101.1,83.2c0.1,0,0.2,0,0.3,0l0,0c0,0.1,0,0.1,0,0.2c0,0,0,0,0,0
					C101.4,83.2,101.1,83,101.1,83.2L101.1,83.2z"/>
			</g>
		</g>
	</g>
	<g>
		<g>
			<g>
				<path class="st0" d="M36.1,83.3c-0.1,0.4-0.1,0.6,0.2,0.9c0.1,0.1,0.4,0.1,0.3-0.1c-0.1-0.2-0.1-0.4-0.2-0.6
					c-0.1-0.1-0.3-0.2-0.3,0c-0.1,0.3,0,0.6,0.2,0.8c0.1,0.2,0.4-0.1,0.3-0.2c-0.1-0.2-0.1-0.3-0.1-0.5c0-0.2-0.3-0.2-0.3-0.1
					c-0.2,0.8,0.6,1.4,1.2,1.8c0.8,0.6,1.7,0.9,2.7,1c0.2,0,0.2-0.3,0-0.3c-0.7-0.1-1.4-0.3-2-0.6c-0.5-0.3-1.7-1-1.5-1.7
					c-0.1,0-0.2,0-0.3-0.1c0,0.2,0.1,0.5,0.2,0.7c0.1-0.1,0.2-0.1,0.3-0.2c-0.1-0.2-0.1-0.3-0.1-0.5c-0.1,0-0.2,0-0.3,0
					c0.1,0.2,0.1,0.4,0.2,0.6c0.1-0.1,0.2-0.1,0.3-0.1c-0.1-0.2-0.1-0.4-0.1-0.6C36.5,83.2,36.1,83.1,36.1,83.3L36.1,83.3z"/>
			</g>
		</g>
	</g>
	<g>
		<g>
			<g>
				<path class="st0" d="M36.1,83.3C36,83.5,36,83.6,36,83.9c0,0.2,0.4,0.2,0.3,0c0-0.1,0-0.2,0-0.3c0-0.2-0.3-0.2-0.3-0.1
					c0,0.1-0.1,0.2-0.1,0.4c0,0.2,0.3,0.2,0.3,0c0-0.1,0-0.2-0.1-0.3c-0.1-0.2-0.3-0.1-0.3,0.1c0,0.1,0,0.2,0,0.3
					c0,0.2,0.3,0.1,0.3-0.1c0-0.1,0-0.2-0.1-0.4c-0.1-0.1-0.3-0.1-0.3,0c-0.1,0.4,0.2,0.7,0.5,1c0.4,0.4,0.8,0.6,1.3,0.9
					c0.2,0.1,0.4-0.2,0.2-0.3c-0.3-0.2-0.6-0.3-0.9-0.5c-0.2-0.2-0.9-0.6-0.7-1c-0.1,0-0.2,0-0.3,0c0,0.1,0,0.1,0,0.2
					c0.1,0,0.2,0,0.3-0.1c0-0.1,0-0.2,0-0.3c-0.1,0.1-0.2,0.1-0.3,0.1c0,0.1,0,0.1,0,0.1c0.1,0,0.2,0,0.3,0c0-0.1,0-0.2,0-0.3
					c-0.1,0-0.2,0-0.3-0.1c0,0.1,0,0.2,0,0.3c0.1,0,0.2,0,0.3,0c0-0.2,0-0.3,0.1-0.5C36.5,83.2,36.2,83.1,36.1,83.3L36.1,83.3z"/>
			</g>
		</g>
	</g>
	<g>
		<path class="st0" d="M93.4,77.5c-0.1,0-0.2,0-0.3,0c-0.9-0.1-1.4-1-1.3-1.8l4.9-28.7c0.1-0.9,1-1.4,1.8-1.3l0,0
			c0.4,0.1,0.8,0.3,1,0.7c0.2,0.3,0.3,0.8,0.3,1.2l-4.9,28.7c-0.1,0.4-0.3,0.8-0.7,1C94,77.4,93.7,77.5,93.4,77.5z M93,75.9
			C93,75.9,93,75.9,93,75.9L93,75.9z M98.6,47.2L98.6,47.2C98.6,47.2,98.6,47.2,98.6,47.2z"/>
	</g>
	<g>
		<path class="st0" d="M120.3,49.6c-0.2,0-0.4,0-0.6,0l-42-6.6c-1.9-0.3-3.3-2.1-3-4.1l1.6-10.1c0.3-2,2.1-3.3,4.1-3l42,6.6
			c1,0.1,1.8,0.7,2.4,1.4c0.6,0.8,0.8,1.7,0.6,2.7l-1.6,10.1C123.5,48.3,122,49.6,120.3,49.6z M79.9,26.3c-0.6,0-1.3,0.2-1.8,0.6
			c-0.7,0.5-1.1,1.2-1.2,2L75.3,39c-0.3,1.7,0.9,3.2,2.5,3.5l42,6.6c1.7,0.3,3.2-0.9,3.5-2.5l1.6-10.1c0.1-0.8-0.1-1.6-0.5-2.3
			c-0.5-0.7-1.2-1.1-2-1.2l0,0l-42-6.6C80.2,26.3,80,26.3,79.9,26.3z"/>
	</g>
	<g>
		<path class="st0" d="M119,48.1c-0.2,0-0.4,0-0.7-0.1l-38.5-6c-2.3-0.4-3.9-2.5-3.6-4.9l0.9-5.8c0.4-2.3,2.6-3.9,4.9-3.6l38.5,6
			c1.2,0.2,2.2,0.8,2.8,1.8c0.7,0.9,0.9,2,0.7,3.1l-0.9,5.8C122.9,46.6,121.1,48.1,119,48.1z M81.4,29.7c-1.1,0-2.2,0.8-2.3,2
			l-0.9,5.8c-0.2,1.3,0.7,2.5,2,2.7l38.5,6c0.6,0.1,1.2-0.1,1.7-0.4c0.5-0.4,0.8-0.9,0.9-1.5l0.9-5.8c0.1-0.6,0-1.2-0.4-1.7
			c-0.4-0.5-0.9-0.9-1.6-1l-38.5-6C81.7,29.7,81.5,29.7,81.4,29.7z"/>
	</g>
	<g class="st1">
		<path d="M83.7,32.9l-0.4,1.6l-0.5-0.1l0.1-1.6L83.7,32.9z M84.7,33l-0.4,1.6l-0.5-0.1l0.1-1.6L84.7,33z"/>
		<path d="M84.8,37.1l0.7-3.9l0.8,0.1l-0.2,1.5l1.5,0.3l0.2-1.5l0.8,0.1L88,37.6l-0.8-0.1l0.3-1.8l-1.5-0.3l-0.3,1.8L84.8,37.1z"/>
		<path d="M91.1,35.2c0.2,0.1,0.3,0.3,0.4,0.5c0.1,0.2,0.1,0.4,0.1,0.6c0,0.1,0,0.3-0.1,0.6l-2.1-0.3c0,0.3,0,0.5,0.2,0.7
			c0.1,0.1,0.2,0.2,0.4,0.2c0.2,0,0.3,0,0.4-0.1c0.1,0,0.1-0.1,0.2-0.2l0.8,0.1c0,0.2-0.2,0.3-0.4,0.5c-0.3,0.2-0.7,0.3-1.2,0.2
			c-0.4-0.1-0.7-0.2-1-0.5c-0.3-0.3-0.3-0.7-0.3-1.2c0.1-0.5,0.3-0.9,0.6-1.1c0.3-0.2,0.7-0.3,1.1-0.2C90.7,35,90.9,35.1,91.1,35.2z
			 M89.8,35.7c-0.1,0.1-0.2,0.2-0.3,0.4l1.3,0.2c0-0.2,0-0.4-0.1-0.5c-0.1-0.1-0.2-0.2-0.4-0.2C90.1,35.6,90,35.6,89.8,35.7z"/>
		<path d="M92.5,38.4l-0.8-0.1l0.7-3.9l0.8,0.1L92.5,38.4z"/>
		<path d="M94,38.6l-0.8-0.1l0.7-3.9l0.8,0.1L94,38.6z"/>
		<path d="M97.3,38.8c-0.3,0.3-0.7,0.4-1.2,0.3c-0.5-0.1-0.8-0.3-1-0.6c-0.2-0.3-0.3-0.7-0.2-1.2c0.1-0.4,0.3-0.8,0.5-1
			c0.3-0.3,0.7-0.4,1.2-0.3c0.5,0.1,0.8,0.3,1,0.6c0.2,0.3,0.3,0.7,0.2,1.1C97.7,38.2,97.6,38.5,97.3,38.8z M96.7,38.3
			c0.1-0.1,0.2-0.4,0.3-0.6c0-0.3,0-0.5-0.1-0.7c-0.1-0.2-0.3-0.3-0.5-0.3c-0.2,0-0.4,0-0.6,0.2c-0.1,0.1-0.2,0.4-0.3,0.6
			c0,0.3,0,0.5,0.1,0.7c0.1,0.2,0.3,0.3,0.5,0.3C96.4,38.5,96.6,38.4,96.7,38.3z"/>
		<path d="M100.9,35.7l0.1,2.3l0,0.6l0.2-0.6l0.8-2.2l0.9,0.1l0.1,2.3l0,0.6l0.2-0.6l0.9-2.2l0.8,0.1l-1.8,3.7l-0.8-0.1l-0.1-2.4
			l0-0.8l-0.3,0.7l-0.9,2.2l-0.8-0.1l-0.5-4.1L100.9,35.7z"/>
		<path d="M107.2,40.4c-0.3,0.3-0.7,0.4-1.2,0.3c-0.5-0.1-0.8-0.3-1-0.6c-0.2-0.3-0.3-0.7-0.2-1.2c0.1-0.4,0.3-0.8,0.5-1
			c0.3-0.3,0.7-0.4,1.2-0.3c0.5,0.1,0.8,0.3,1,0.6c0.2,0.3,0.3,0.7,0.2,1.1C107.6,39.8,107.4,40.2,107.2,40.4z M106.6,39.9
			c0.1-0.1,0.2-0.4,0.3-0.6c0-0.3,0-0.5-0.1-0.7c-0.1-0.2-0.3-0.3-0.5-0.3c-0.2,0-0.4,0-0.6,0.2c-0.1,0.1-0.2,0.4-0.3,0.6
			c0,0.3,0,0.5,0.1,0.7c0.1,0.2,0.3,0.3,0.5,0.3C106.3,40.1,106.5,40.1,106.6,39.9z"/>
		<path d="M110.1,38.2C110.1,38.2,110.1,38.3,110.1,38.2L110,39c0,0-0.1,0-0.1,0c0,0-0.1,0-0.1,0c-0.3-0.1-0.5,0-0.7,0.2
			c-0.1,0.1-0.1,0.3-0.2,0.5l-0.2,1.4l-0.8-0.1l0.5-2.9l0.7,0.1l-0.1,0.5c0.1-0.2,0.3-0.3,0.4-0.3C109.7,38.2,109.8,38.2,110.1,38.2
			C110.1,38.2,110.1,38.2,110.1,38.2z"/>
		<path d="M110.9,41.4l-0.8-0.1l0.7-3.9l0.8,0.1L110.9,41.4z"/>
		<path d="M113.7,38.9c0.1,0.1,0.2,0.2,0.3,0.4l0.2-1.4l0.8,0.1l-0.6,3.9l-0.7-0.1l0.1-0.4c-0.1,0.2-0.3,0.3-0.4,0.3
			c-0.2,0.1-0.3,0.1-0.5,0c-0.3-0.1-0.6-0.2-0.8-0.6c-0.2-0.3-0.2-0.7-0.2-1.1c0.1-0.5,0.3-0.9,0.5-1.1c0.3-0.2,0.6-0.3,1-0.3
			C113.4,38.8,113.5,38.8,113.7,38.9z M113.5,41c0.1-0.1,0.2-0.3,0.3-0.6c0.1-0.4,0-0.6-0.1-0.8c-0.1-0.1-0.2-0.2-0.4-0.2
			c-0.2,0-0.4,0-0.5,0.2c-0.1,0.2-0.2,0.4-0.3,0.6c0,0.3,0,0.5,0.1,0.7s0.2,0.3,0.4,0.3C113.2,41.2,113.4,41.2,113.5,41z"/>
		<path d="M115.1,41.3l0.8,0.1l-0.1,0.8l-0.8-0.1L115.1,41.3z"/>
		<path d="M118,38.6l-0.4,1.6l-0.5-0.1l0.1-1.6L118,38.6z M119,38.7l-0.4,1.6l-0.5-0.1l0.1-1.6L119,38.7z"/>
	</g>
	<g>
		<g>
			<g>
				<path class="st0" d="M121.9,35.8c0.1,0.1,0.2,0.2,0.2,0.2c0.3,0.2,0.7,0.3,1,0c0.2-0.3,0.3-0.7,0-1c0,0-0.1-0.1-0.1-0.1
					c-0.3,0.3-0.7,0.7-1,1c0.1,0,0.1,0.1,0.1,0.1c0.3,0.2,0.7,0.3,1,0c0.3-0.3,0.2-0.7,0-1c0,0-0.1-0.1-0.1-0.1
					c-0.3,0.3-0.7,0.7-1,1c0.2,0.2,0.3,0.2,0.6,0.3c0.3,0.1,0.7-0.1,0.8-0.4c0.1-0.3,0-0.7-0.3-0.9c0.1,0.1,0.2,0.2,0.2,0.3
					c-0.2,0.3-0.4,0.6-0.7,0.9h0c-0.1,0-0.2-0.1-0.4-0.1c-0.1-0.1-0.1-0.1,0,0c0,0,0.1,0.1,0.1,0.1c0.3-0.3,0.7-0.7,1-1
					c-0.1-0.1-0.1-0.1-0.2-0.2c-0.3-0.2-0.8-0.1-0.9,0.2c-0.2,0.4-0.1,0.7,0.2,0.9c0,0,0.1,0.1,0.1,0.1c0.2,0.2,0.6,0.1,0.8-0.1
					c0.2-0.2,0.3-0.6,0.1-0.8c-0.1-0.1-0.1-0.2-0.2-0.2c-0.3-0.2-0.7-0.3-1,0c-0.2,0.3-0.3,0.7,0,1c0,0,0.1,0.1,0.1,0.1
					c0.2,0.2,0.6,0.3,0.8,0.1c0.2-0.1,0.4-0.5,0.3-0.8c-0.1-0.2-0.2-0.4-0.4-0.5c-0.2-0.2-0.6-0.1-0.8,0.1c-0.2,0.2-0.3,0.6-0.1,0.8
					c0.1,0.1,0.2,0.2,0.3,0.3c0.2,0.1,0.6,0.1,0.8-0.1c0.2-0.2,0.2-0.6,0.1-0.8c-0.1-0.1-0.1-0.2-0.2-0.2c-0.3-0.2-0.6-0.3-0.9-0.1
					c-0.2,0.2-0.4,0.6-0.2,0.9c0.1,0.1,0.1,0.1,0.2,0.2c0.3,0.2,0.6,0.3,0.9,0.1c0.3-0.2,0.3-0.6,0.2-0.9c0,0,0-0.1-0.1-0.1
					c-0.2-0.3-0.6-0.5-0.9-0.2c-0.3,0.2-0.5,0.6-0.2,0.9c0.1,0.1,0.1,0.1,0.2,0.2c0.5,0.5,1.4,0,1.2-0.7c-0.1-0.1-0.1-0.2-0.2-0.4
					c-0.3,0.3-0.7,0.7-1,1c0,0,0,0,0,0.1c0.2,0.2,0.6,0.2,0.9,0.1c0.3-0.2,0.4-0.6,0.2-0.9c0,0,0,0,0-0.1c-0.2-0.3-0.6-0.4-0.9-0.3
					c-0.3,0.1-0.5,0.5-0.4,0.8c0,0.1,0.1,0.2,0.2,0.4c0.2,0.2,0.6,0.3,0.8,0.1c0.3-0.2,0.4-0.5,0.3-0.8v0c-0.1-0.3-0.4-0.5-0.7-0.5
					c-0.3,0-0.6,0.2-0.7,0.5l0,0c-0.1,0.4,0.1,0.8,0.5,0.9l0,0c0.4,0.1,0.8-0.1,0.9-0.5c0.1-0.2,0-0.5-0.2-0.7
					c-0.2-0.2-0.6-0.2-0.8-0.1l0,0c-0.2,0.1-0.4,0.4-0.3,0.6l0,0c0,0.5,0.6,0.9,1,0.6l0,0c0.3-0.2,0.5-0.6,0.2-0.9l0,0
					c-0.4,0.3-0.7,0.6-1.1,0.8c-0.1-0.1,0,0.1,0,0.1c0.1,0.3,0.7,0.4,0.9,0.2c0.3-0.2,0.4-0.6,0.2-0.9c-0.1-0.1-0.1-0.2-0.2-0.4
					c-0.1-0.1-0.3-0.2-0.5-0.2c-0.2,0-0.3,0.1-0.4,0.1c-0.2,0.2-0.4,0.6-0.2,0.9l0,0c0.1-0.3,0.2-0.6,0.2-0.9l0,0
					c0.4,0.2,0.7,0.4,1,0.6l0,0c-0.1,0.2-0.2,0.4-0.3,0.6l0,0c-0.3,0-0.6-0.1-0.8-0.1c0,0-0.1-0.1-0.1-0.1c0-0.2-0.1-0.4-0.1-0.5
					l0,0c0.3-0.2,0.6-0.3,0.9-0.5l0,0c0.2,0.3,0.3,0.6,0.5,0.9l0,0c-0.4,0-0.9,0-1.3,0v0c0.4-0.2,0.8-0.4,1.2-0.7c0,0,0,0,0,0
					c0.1,0.1,0.1,0.2,0.2,0.3v0c-0.4,0.2-0.8,0.4-1.3,0.5c0,0,0,0,0,0.1c0.4-0.3,0.7-0.6,1.1-0.8c0,0,0,0,0-0.1
					c-0.2-0.3-0.7-0.3-1,0c-0.3,0.3-0.2,0.7,0,1l0,0c-0.1-0.1-0.1-0.2-0.2-0.3v0c0.4-0.2,0.8-0.4,1.2-0.7c0,0,0,0.1,0.1,0.1
					c-0.4,0.2-0.8,0.5-1.2,0.7c0,0,0,0.1,0.1,0.1c0.4-0.3,0.7-0.6,1.1-0.8c0,0,0,0.1,0.1,0.1c-0.4,0.3-0.7,0.6-1.1,0.8
					c0.1,0.1,0.1,0,0,0c0.3-0.3,0.6-0.6,0.9-0.9c0.1,0.1,0.1,0.1,0.2,0.2c-0.3,0.3-0.6,0.6-0.9,0.9c0,0-0.1,0-0.1-0.1
					c-0.1-0.1-0.1-0.2-0.2-0.3v0c0.4-0.2,0.8-0.4,1.2-0.7c0,0-0.1-0.1-0.1-0.1c-0.3,0.3-0.7,0.7-1,1c0.1,0.1,0.1,0,0,0
					c0.3-0.3,0.6-0.6,0.9-0.9c0,0-0.1-0.1-0.1-0.1c-0.2,0.4-0.5,0.8-0.7,1.2c0,0-0.1,0-0.1-0.1c0.2,0.3,0.7,0.2,1,0
					c0.3-0.3,0.2-0.7,0-1c-0.2-0.2-0.4-0.4-0.7-0.4c-0.4,0-0.8,0.4-0.7,0.9c0.1,0.2,0.2,0.4,0.4,0.5c0.2-0.4,0.4-0.8,0.5-1.3
					c0.1,0,0.1,0.1,0,0c0.1,0.1,0.1,0.1,0,0c-0.3-0.2-0.7-0.3-1,0c-0.3,0.3-0.2,0.7,0,1c0,0,0.1,0.1,0.1,0.1c0.3-0.3,0.7-0.7,1-1
					c-0.1,0-0.1-0.1-0.1-0.1c-0.3-0.2-0.7-0.3-1,0c-0.2,0.3-0.3,0.7,0,1c0,0,0.1,0.1,0.1,0.1c0.3-0.3,0.7-0.7,1-1
					c-0.1-0.1-0.2-0.1-0.2-0.2c-0.2-0.2-0.7-0.3-1,0C121.6,35.1,121.6,35.6,121.9,35.8L121.9,35.8z"/>
			</g>
		</g>
	</g>
	<g>
		<g>
			<g>
				<path class="st0" d="M122.5,36.2L122.5,36.2c0.2,0.2,0.4,0.3,0.7,0.2c0.2-0.1,0.4-0.2,0.5-0.5l0,0c-0.2,0.2-0.3,0.3-0.5,0.5l0,0
					c-0.1,0-0.2,0-0.4,0h0C122.8,36.4,122.7,36.3,122.5,36.2C122.6,36.2,122.6,36.2,122.5,36.2c0.1,0.1,0.2,0.2,0.4,0.2
					c0.2,0.1,0.4,0,0.5-0.1c0.3-0.2,0.5-0.6,0.2-0.9c0-0.1-0.1-0.1-0.1-0.1c-0.2-0.3-0.6-0.5-0.9-0.2c-0.3,0.2-0.5,0.6-0.2,0.9
					C122.4,36.1,122.5,36.1,122.5,36.2c0.4-0.3,0.8-0.6,1.2-0.8c-0.2-0.2-0.4-0.4-0.7-0.4c-0.3,0-0.6,0.2-0.7,0.5
					c0.4-0.1,0.8-0.2,1.2-0.3l0,0c-0.1-0.1-0.3-0.2-0.5-0.2c-0.2,0-0.4,0.1-0.5,0.2C122.3,35.5,122.2,36,122.5,36.2L122.5,36.2z"/>
			</g>
		</g>
	</g>
	<g>
		<g>
			<g>
				<path class="st0" d="M122.4,34.7c-0.2-0.1-0.4-0.1-0.6-0.2c-0.3,0-0.6,0.2-0.7,0.5c0,0.1,0,0.2,0,0.4c0,0.1,0.2,0.4,0.3,0.4
					c0.1,0,0.2,0.1,0.3,0.1c0.3,0.1,0.7-0.1,0.8-0.4c0.1-0.3,0-0.7-0.3-0.9c-0.2-0.1-0.3-0.1-0.5-0.2c-0.3-0.1-0.7,0.1-0.8,0.4
					c-0.1,0.3,0,0.7,0.3,0.9c0.1,0,0.2,0.1,0.2,0.1c0.1-0.4,0.1-0.9,0.2-1.4c0,0-0.1,0-0.1,0c-0.3,0-0.6,0.2-0.7,0.5
					c-0.1,0.3,0,0.6,0.3,0.8c0.1,0,0.2,0.1,0.2,0.1c0.2,0,0.4,0,0.5-0.1c0.1-0.1,0.3-0.2,0.3-0.4c0.1-0.4-0.1-0.7-0.5-0.9
					c-0.1,0-0.1,0-0.2-0.1c0.1,0.4,0.1,0.8,0.2,1.3c0,0,0,0,0,0c0.1-0.1,0.3-0.3,0.3-0.4c0.1-0.2,0-0.4-0.1-0.5
					c-0.2-0.3-0.6-0.4-0.9-0.2c0,0,0,0,0,0c-0.2,0.1-0.4,0.4-0.3,0.7c0,0.3,0.2,0.5,0.5,0.6c0.1,0,0.1,0,0.2,0.1
					c0.1-0.4,0.2-0.9,0.4-1.3c0,0,0.1,0,0.1,0.1c-0.1,0.4-0.2,0.9-0.4,1.3c0,0,0.1,0,0.1,0c0.4,0,0.6-0.2,0.7-0.6
					c0.1-0.4-0.2-0.6-0.5-0.7c0,0,0.1,0,0.1,0c-0.2,0.4-0.4,0.8-0.5,1.3c0,0,0.1,0,0.1,0c-0.1-0.1-0.1-0.1-0.1,0
					c0.1,0,0.1,0.1,0.2,0.1c0.2-0.4,0.4-0.8,0.5-1.3c-0.1,0-0.1,0,0.1,0c-0.1,0.4-0.2,0.9-0.4,1.3c0.1,0,0.1,0-0.1,0
					c0.1,0,0.1,0,0,0c0.2,0.1,0.3,0.1,0.5,0.1c0.2-0.1,0.3-0.2,0.4-0.3C122.8,35.3,122.8,34.8,122.4,34.7L122.4,34.7z"/>
			</g>
		</g>
	</g>
	<g>
		<g>
			<g>
				<path class="st0" d="M97.8,46.5c0-0.1,0-0.2-0.1-0.4c-0.1-0.2-0.3-0.1-0.3,0.1c0,0.1,0,0.2,0,0.4C97.5,46.5,97.7,46.5,97.8,46.5
					c-0.1-0.1-0.1-0.2-0.1-0.3c-0.1,0-0.2,0.1-0.3,0.1c0,0,0,0.1,0,0.1c0.1,0.2,0.3,0.2,0.3-0.1c0-0.2,0-0.2-0.1-0.3
					c-0.1-0.2-0.4-0.1-0.3,0.1c0,0.1,0,0.1,0.1,0.2c0.1,0,0.2-0.1,0.3-0.1c-0.1-0.1-0.2-0.2-0.4-0.4c-0.1-0.1-0.3,0-0.3,0.2
					c0,0.2,0.1,0.4,0.1,0.6s0.4,0.1,0.3-0.1c0-0.2-0.1-0.4-0.1-0.5c-0.1,0-0.2,0-0.3,0.1c0,0.2,0.1,0.4,0.1,0.7c0.1,0,0.2,0,0.3-0.1
					c-0.1-0.3-0.1-0.6-0.1-0.8c-0.1,0-0.2,0-0.3,0c0.1,0.4,0.1,0.8,0,1.2c0.1,0,0.2,0,0.3,0.1c0-0.5,0-1-0.2-1.4
					c-0.1-0.2-0.4-0.1-0.3,0.1c0.3,0.6,0.2,1.4,0.2,2.1c0,0.2,0.3,0.2,0.3,0.1c0.1-0.4,0.2-0.7,0.2-1.1c0-0.1,0.1-0.2,0.1-0.4
					c0-0.2-0.1-0.3,0.1-0.2c0.1,0.1,0.3-0.1,0.2-0.2c-0.1-0.1-0.1-0.1-0.2-0.2c-0.2-0.1-0.2,0.1-0.2,0.2c0.1,0.1,0.1,0.3,0.2,0.4
					c0.1,0.2,0.4,0,0.3-0.2c-0.1-0.1-0.1-0.3-0.2-0.4c-0.1,0.1-0.1,0.2-0.2,0.2c0,0,0,0,0,0c0.1-0.1,0.2-0.2,0.2-0.2
					c-0.2-0.1-0.4-0.2-0.5,0.1c-0.1,0.2-0.1,0.6-0.1,0.9c-0.1,0.3-0.1,0.6-0.2,0.9c0.1,0,0.2,0,0.3,0.1c0-0.7,0.1-1.5-0.2-2.2
					c-0.1,0.1-0.2,0.1-0.3,0.1c0.2,0.4,0.2,0.8,0.2,1.2c0,0.2,0.3,0.2,0.3,0.1c0.1-0.4,0.1-0.9,0-1.3c0-0.2-0.4-0.2-0.3,0
					c0,0.3,0,0.6,0.1,0.9c0,0.2,0.4,0.1,0.3-0.1c0-0.2,0-0.5-0.1-0.8c0-0.2-0.4-0.1-0.3,0.1c0,0.2,0.1,0.4,0.1,0.5
					c0.1,0,0.2,0,0.3-0.1c0-0.2-0.1-0.4-0.1-0.6c-0.1,0.1-0.2,0.1-0.3,0.2c0.1,0.1,0.2,0.2,0.4,0.4c0.1,0.1,0.3,0,0.3-0.1
					c0-0.1,0-0.2-0.1-0.2c-0.1,0-0.2,0.1-0.3,0.1c0,0.1,0,0.1,0,0.2c0.1,0,0.2,0,0.3-0.1c0,0,0-0.1,0-0.1c-0.1-0.2-0.4-0.1-0.3,0.1
					c0,0.1,0.1,0.2,0.1,0.3C97.5,46.7,97.8,46.6,97.8,46.5c0-0.2,0-0.3,0-0.4c-0.1,0-0.2,0-0.3,0.1c0,0.1,0,0.2,0,0.3
					C97.5,46.7,97.8,46.7,97.8,46.5L97.8,46.5z"/>
			</g>
		</g>
	</g>
	<g>
		<g>
			<g>
				<path class="st0" d="M97.9,47.2c0.1,0.5,0.1,1.1,0.3,1.6c0.1,0.2,0.3,0.1,0.3-0.1c0,0,0,0,0-0.1c0-0.2-0.3-0.2-0.3,0
					c0,0,0,0,0,0.1c0.1,0,0.2-0.1,0.3-0.1c-0.1-0.2-0.1-0.5-0.2-0.7c0-0.2-0.1-0.5-0.1-0.7C98.2,46.9,97.9,47,97.9,47.2L97.9,47.2z"
					/>
			</g>
		</g>
	</g>
	<g>
		<g>
			<g>
				<path class="st0" d="M99.3,46.1L99.3,46.1c0,0.1-0.1,0.1-0.1,0.2l0,0c-0.1,0-0.2-0.1-0.2-0.1c0,0.1,0,0.1,0,0.1
					c0,0.2,0.2,0.3,0.3,0.2c0.1-0.1,0.1-0.1,0.2-0.2c-0.1-0.1-0.2-0.1-0.3-0.2c-0.1,0.1-0.1,0.2-0.1,0.4c0,0.2,0.2,0.3,0.3,0.2
					c0.1-0.1,0.2-0.2,0.2-0.3c-0.1-0.1-0.2-0.1-0.3-0.1c-0.1,0.2-0.1,0.4-0.1,0.5c-0.1,0.2,0.2,0.3,0.3,0.1c0.1-0.1,0.1-0.2,0.2-0.3
					c-0.1-0.1-0.2-0.1-0.3-0.1c-0.1,0.2-0.1,0.5-0.2,0.8c0,0.2,0.2,0.3,0.3,0.1c0.1-0.2,0.2-0.4,0.2-0.5c-0.1-0.1-0.2-0.1-0.3-0.1
					c-0.1,0.3-0.2,0.6-0.2,0.9c-0.1,0.2,0.2,0.3,0.3,0.1c0.2-0.4,0.2-0.9,0.7-1.2c-0.1-0.1-0.1-0.2-0.2-0.3
					c-0.4,0.4-0.6,0.9-0.7,1.4c0.1,0,0.2,0.1,0.3,0.1c0.1-0.5,0.2-0.9,0.5-1.4c0.1-0.2-0.1-0.3-0.3-0.2c-0.1,0.1-0.2,0.2-0.4,0.3
					c-0.2,0.2,0.1,0.4,0.2,0.2c0.1-0.1,0.2-0.2,0.2-0.3c0.1-0.2-0.1-0.3-0.2-0.2c-0.1,0-0.1,0.1-0.2,0.1c0.1,0.1,0.1,0.2,0.2,0.3
					c0.1-0.1,0.1-0.1,0.2-0.2c0.1-0.1-0.1-0.3-0.2-0.2C99.5,46,99.4,46.1,99.3,46.1c-0.1,0.2,0.1,0.4,0.2,0.3
					c0.1-0.1,0.2-0.1,0.3-0.2c-0.1-0.1-0.2-0.1-0.3-0.2c-0.1,0.2-0.1,0.3-0.2,0.5c-0.1,0.2,0.1,0.3,0.3,0.2c0.1-0.1,0.2-0.2,0.2-0.3
					c-0.1-0.1-0.2-0.1-0.3-0.2c-0.2,0.3-0.3,0.6-0.4,0.9c-0.1,0.2,0.2,0.3,0.3,0.1c0.2-0.2,0.3-0.5,0.4-0.8c0.1-0.2-0.2-0.3-0.3-0.1
					c-0.1,0.3-0.3,0.6-0.4,1c-0.1,0.2,0.2,0.3,0.3,0.1c0.1-0.2,0.2-0.5,0.2-0.7c-0.1,0-0.2-0.1-0.3-0.1c-0.1,0.3-0.2,0.6-0.2,0.8
					c-0.1,0.2,0.3,0.3,0.3,0.1c0.1-0.2,0.2-0.5,0.2-0.7c0.1-0.2-0.2-0.3-0.3-0.1c-0.1,0.2-0.2,0.5-0.2,0.7c0.1,0,0.2,0.1,0.3,0.1
					c0.1-0.5,0.3-0.9,0.6-1.3c-0.1-0.1-0.2-0.1-0.3-0.2c-0.2,0.4-0.5,0.8-0.7,1.3c0.1,0.1,0.2,0.1,0.3,0.2c0.1-0.3,0.4-1.1,0.7-1.2
					c-0.1-0.1-0.1-0.2-0.2-0.3c-0.1,0.1-0.1,0.1-0.2,0.2c-0.2,0.2,0.1,0.4,0.2,0.2c0.1-0.1,0.2-0.2,0.3-0.2
					c-0.1-0.1-0.1-0.2-0.2-0.3c-0.6,0.5-1,1.2-1.3,2c0.1,0.1,0.2,0.1,0.3,0.1c0.2-0.4,0.4-0.9,0.6-1.2c-0.1-0.1-0.2-0.1-0.3-0.2
					c-0.2,0.4-0.3,0.7-0.5,1.1c-0.1,0.2,0.2,0.3,0.3,0.1c0.1-0.2,0.2-0.5,0.3-0.8c0.1-0.2-0.2-0.3-0.3-0.1c-0.1,0.3-0.2,0.6-0.3,0.8
					c0.1,0,0.2,0.1,0.3,0.1c0.1-0.3,0.2-0.6,0.3-0.8c-0.1,0-0.2-0.1-0.3-0.1c-0.1,0.2-0.2,0.4-0.2,0.7c-0.1,0.2,0.2,0.3,0.3,0.1
					c0.1-0.2,0.2-0.5,0.4-0.8C99.7,47,99.6,47,99.5,47c-0.1,0.2-0.2,0.4-0.3,0.7c-0.1,0.2,0.2,0.3,0.3,0.1c0.1-0.2,0.2-0.4,0.2-0.6
					c0.1-0.2-0.2-0.3-0.3-0.1c-0.1,0.3-0.2,0.6-0.4,1c-0.1,0.2,0.2,0.3,0.3,0.1c0.1-0.3,0.2-0.6,0.4-1c-0.1,0-0.2-0.1-0.3-0.1
					c-0.1,0.2-0.1,0.4-0.2,0.6c0.1,0.1,0.2,0.1,0.3,0.1c0.1-0.2,0.2-0.4,0.3-0.7c0.1-0.2-0.2-0.3-0.3-0.1c-0.1,0.2-0.2,0.5-0.4,0.8
					c0.1,0.1,0.2,0.1,0.3,0.1c0.1-0.2,0.2-0.4,0.2-0.7c0.1-0.2-0.2-0.3-0.3-0.1c-0.1,0.3-0.2,0.6-0.3,0.8c-0.1,0.2,0.3,0.3,0.3,0.1
					c0.1-0.3,0.2-0.6,0.3-0.8c-0.1,0-0.2-0.1-0.3-0.1c-0.1,0.2-0.2,0.5-0.3,0.8c0.1,0,0.2,0.1,0.3,0.1c0.1-0.4,0.3-0.7,0.4-1
					c0.1-0.2-0.2-0.4-0.3-0.2c-0.2,0.4-0.4,0.9-0.6,1.3c-0.1,0.2,0.2,0.3,0.3,0.1c0.3-0.7,0.6-1.4,1.2-1.9c0.1-0.1,0-0.4-0.2-0.3
					s-0.3,0.2-0.4,0.3c0.1,0.1,0.2,0.2,0.2,0.2c0.1-0.1,0.1-0.1,0.2-0.2c0.1-0.1,0-0.4-0.2-0.3c-0.5,0.2-0.7,0.9-0.9,1.4
					c-0.1,0.2,0.2,0.4,0.3,0.2c0.2-0.4,0.4-0.9,0.7-1.3c0.1-0.2-0.2-0.4-0.3-0.2c-0.3,0.4-0.5,0.9-0.6,1.4c-0.1,0.2,0.2,0.3,0.3,0.1
					c0.1-0.2,0.2-0.5,0.2-0.7c-0.1,0-0.2-0.1-0.3-0.1c-0.1,0.2-0.2,0.5-0.2,0.7c0.1,0,0.2,0.1,0.3,0.1c0.1-0.3,0.2-0.6,0.2-0.8
					c0.1-0.2-0.2-0.3-0.3-0.1c-0.1,0.2-0.2,0.5-0.2,0.7c0.1,0,0.2,0.1,0.3,0.1c0.1-0.3,0.2-0.6,0.3-0.9c-0.1-0.1-0.2-0.1-0.3-0.1
					c-0.1,0.2-0.2,0.5-0.4,0.7c0.1,0.1,0.2,0.1,0.3,0.1c0.1-0.3,0.2-0.6,0.4-0.9c0.1-0.2-0.1-0.4-0.3-0.2c-0.1,0.1-0.2,0.2-0.2,0.3
					c0.1,0.1,0.2,0.1,0.3,0.2c0.1-0.2,0.2-0.4,0.2-0.6c0.1-0.2-0.2-0.3-0.3-0.2c-0.1,0.1-0.2,0.1-0.2,0.2c0.1,0.1,0.1,0.2,0.2,0.3
					c0,0,0.1,0,0.1-0.1c-0.1-0.1-0.1-0.2-0.2-0.2c0,0.1-0.1,0.1-0.1,0.2c-0.1,0.1,0,0.4,0.2,0.3c0.1,0,0.1-0.1,0.2-0.1
					c-0.1-0.1-0.2-0.2-0.2-0.2c0,0.1-0.1,0.2-0.2,0.3c0.1,0.1,0.2,0.2,0.2,0.2c0.1-0.1,0.2-0.2,0.4-0.3c-0.1-0.1-0.2-0.1-0.3-0.2
					c-0.3,0.4-0.5,0.9-0.5,1.4c0,0.2,0.3,0.3,0.3,0.1c0.1-0.5,0.3-0.9,0.7-1.3c0.1-0.1-0.1-0.4-0.2-0.3c-0.5,0.3-0.6,0.9-0.8,1.4
					c0.1,0,0.2,0.1,0.3,0.1c0.1-0.3,0.1-0.6,0.2-0.9c0.1-0.2-0.2-0.3-0.3-0.1c-0.1,0.2-0.2,0.4-0.2,0.5c0.1,0.1,0.2,0.1,0.3,0.1
					c0.1-0.3,0.1-0.5,0.2-0.8c0.1-0.2-0.2-0.3-0.3-0.1c-0.1,0.1-0.1,0.2-0.2,0.3c0.1,0.1,0.2,0.1,0.3,0.1c0.1-0.2,0.1-0.4,0.1-0.5
					c0.1-0.2-0.2-0.3-0.3-0.1c0,0.1-0.1,0.2-0.2,0.2c0.1,0.1,0.2,0.1,0.3,0.2c0-0.1,0.1-0.2,0.1-0.4C99.6,46.1,99.4,46,99.3,46.1
					c-0.1,0.1-0.2,0.1-0.2,0.2c0.1,0.1,0.2,0.1,0.3,0.2C99.3,46.4,99.4,46.2,99.3,46.1c0-0.1-0.1-0.1-0.2-0.1l0,0
					C99,46.1,99,46.2,99,46.3l0,0C99.1,46.5,99.4,46.3,99.3,46.1L99.3,46.1z"/>
			</g>
		</g>
	</g>
	<g>
		<g>
			<g>
				<path class="st0" d="M96.4,45.8c0.7,0.4,0.6,1.5,0.6,2.3c0,0.2,0.4,0.2,0.3,0c-0.1-0.9,0.1-2-0.8-2.5
					C96.4,45.4,96.2,45.7,96.4,45.8L96.4,45.8z"/>
			</g>
		</g>
	</g>
	<g>
		<g>
			<g>
				<path class="st0" d="M96.7,45.9c0,0.1,0.1,0.2,0.1,0.3c0.1-0.1,0.2-0.1,0.3-0.1l0,0c-0.1,0-0.2,0-0.3,0.1
					c0.1,0.2,0.1,0.4,0.1,0.6c0,0.2,0.4,0.2,0.3,0c0-0.2-0.1-0.4-0.1-0.7c-0.1-0.2-0.4-0.2-0.3,0.1c0,0.1,0,0.1,0.1,0.2
					c0.1,0.2,0.4,0.1,0.3-0.1c0-0.1-0.1-0.2-0.1-0.3C97,45.6,96.6,45.7,96.7,45.9L96.7,45.9z"/>
			</g>
		</g>
	</g>
	<g>
		<g>
			<g>
				<path class="st0" d="M96.3,45.8c0.7,0.4,0.7,1.6,0.7,2.3c0,0.2,0.3,0.2,0.3,0c0-0.9,0-2.1-0.9-2.6
					C96.2,45.4,96.1,45.7,96.3,45.8L96.3,45.8z"/>
			</g>
		</g>
	</g>
	<g>
		<g>
			<g>
				<path class="st0" d="M100.6,46.1c-0.5,0-0.8,0.3-1.1,0.6c0.1,0.1,0.2,0.2,0.2,0.2c0.2-0.2,0.5-0.4,0.8-0.5
					c-0.1-0.1-0.1-0.2-0.1-0.3c-0.7,0.4-1.2,1.1-1.5,1.8c-0.1,0.2,0.2,0.4,0.3,0.2c0.3-0.7,0.7-1.3,1.4-1.7c0.2-0.1,0.1-0.4-0.1-0.3
					c-0.4,0.1-0.7,0.3-1,0.6c-0.1,0.2,0.1,0.4,0.2,0.2c0.2-0.2,0.5-0.5,0.9-0.5C100.8,46.5,100.8,46.1,100.6,46.1L100.6,46.1z"/>
			</g>
		</g>
	</g>
	<g>
		<path class="st0" d="M40.6,86.9c0,0,1.9-2.2,4.7-1.8l-0.3-6.3l-2.6,0.9l-1.8,0.6l-1.9,0.8l-1.5,0.6l-0.7,0.8l-0.1,1.1v0.7l0.6,0.5
			l0.8,0.6L40.6,86.9z"/>
	</g>
	<g>
		<g>
			<g>
				<path class="st0" d="M38.9,81.1C38.9,81.1,38.9,81.1,38.9,81.1c-0.4,0-0.7,0.3-0.7,0.7v0c0.1,0.5,0.6,0.9,1,0.6
					c0.2-0.1,0.4-0.3,0.6-0.4c0.7-0.4,0.2-1.5-0.5-1.3c-0.2,0.1-0.4,0.1-0.6,0.2c-0.7,0.3-0.2,1.5,0.5,1.3c0.1,0,0.2-0.1,0.3-0.1
					c-0.1-0.4-0.2-0.9-0.4-1.3c-0.1,0-0.1,0.1-0.2,0.1c0.2,0.4,0.4,0.8,0.5,1.3c1.2-0.7,2.5-1,3.8-1.4c-0.1-0.4-0.2-0.9-0.4-1.3
					c-0.8,0.2-1.5,0.5-2.1,1c-0.7,0.5,0,1.7,0.7,1.2c0.6-0.4,1.1-0.7,1.8-0.8c0.9-0.2,0.5-1.5-0.4-1.3c-1.4,0.4-2.8,0.8-4.1,1.5
					c-0.6,0.4-0.2,1.6,0.5,1.3c0.1,0,0.1-0.1,0.2-0.1c0.8-0.3,0.5-1.6-0.4-1.3c-0.1,0-0.2,0.1-0.3,0.1c0.2,0.4,0.4,0.8,0.5,1.3
					c0.1,0,0.2-0.1,0.3-0.1c-0.2-0.4-0.4-0.8-0.5-1.3c-0.2,0.1-0.4,0.3-0.6,0.4c0.4,0.2,0.7,0.4,1,0.6v0c-0.2,0.2-0.5,0.5-0.7,0.7h0
					C39.8,82.4,39.8,81,38.9,81.1L38.9,81.1z"/>
			</g>
		</g>
	</g>
	<g>
		<g>
			<g>
				<path class="st0" d="M39.4,82.5c0.3-0.1,0.6-0.2,0.8-0.4c0.7-0.3,0.2-1.5-0.5-1.3c-0.2,0.1-0.5,0.2-0.8,0.2
					c0.2,0.4,0.4,0.8,0.5,1.3c0.2-0.1,0.4-0.2,0.6-0.4c0.7-0.4,0.2-1.4-0.5-1.3c-0.1,0-0.2,0-0.4,0.1c0.1,0.4,0.2,0.9,0.4,1.3
					c0.2-0.2,0.4-0.3,0.7-0.4c0.8-0.3,0.5-1.6-0.4-1.3c-0.3,0.1-0.6,0.2-0.9,0.2c0.2,0.4,0.4,0.8,0.5,1.3c0.1-0.1,0.3-0.2,0.4-0.2
					c-0.1-0.4-0.2-0.9-0.4-1.3c-0.2,0.1-0.3,0.1-0.5,0.2c0.2,0.4,0.4,0.8,0.5,1.3c1-0.5,2.2-0.6,3.2-1.1c0.7-0.3,0.2-1.5-0.5-1.3
					c-0.5,0.2-1,0.3-1.5,0.5c0.1,0.4,0.2,0.9,0.4,1.3c0.6-0.2,1.1-0.4,1.7-0.5c0.9-0.2,0.5-1.5-0.4-1.3c-0.6,0.1-1.1,0.3-1.7,0.5
					c-0.8,0.3-0.5,1.6,0.4,1.3c0.5-0.2,1-0.3,1.5-0.5c-0.2-0.4-0.4-0.8-0.5-1.3c-0.5,0.2-1.2,0.3-1.7,0.4c-0.5,0.2-1,0.4-1.5,0.6
					c-0.7,0.4-0.2,1.5,0.5,1.3c0.2,0,0.3-0.1,0.5-0.2c0.8-0.3,0.5-1.6-0.4-1.3c-0.3,0.1-0.5,0.2-0.8,0.4c-0.7,0.4-0.2,1.5,0.5,1.3
					c0.3-0.1,0.6-0.2,0.9-0.2c-0.1-0.4-0.2-0.9-0.4-1.3c-0.4,0.2-0.7,0.3-1,0.6c-0.5,0.3-0.4,1.4,0.4,1.3c0.2,0,0.5-0.1,0.7-0.1
					c-0.2-0.4-0.4-0.8-0.5-1.3c-0.2,0.1-0.4,0.2-0.6,0.4c-0.6,0.4-0.2,1.5,0.5,1.3c0.2-0.1,0.5-0.2,0.8-0.2
					c-0.2-0.4-0.4-0.8-0.5-1.3c-0.3,0.1-0.6,0.2-0.8,0.4C37.9,81.7,38.6,82.9,39.4,82.5L39.4,82.5z"/>
			</g>
		</g>
	</g>
	<g>
		<g>
			<g>
				<path class="st0" d="M41,86.2c0.2-0.1,0.5-0.2,0.7-0.4c-0.3-0.4-0.6-0.7-0.8-1.1c-0.2,0.2-0.4,0.4-0.6,0.6
					c-0.4,0.6,0,1.3,0.7,1.2c0.2,0,0.3-0.1,0.5-0.2c-0.3-0.4-0.6-0.7-0.8-1.1c-0.2,0.2-0.3,0.3-0.4,0.5c-0.4,0.6,0.4,1.2,0.9,0.9
					c0,0,0.1-0.1,0.1-0.1c-0.3-0.3-0.6-0.6-0.9-0.9c0,0-0.1,0.1-0.1,0.1c-0.6,0.5,0.2,1.5,0.8,1.1c0.1,0,0.1-0.1,0.2-0.1
					c-0.3-0.3-0.6-0.6-0.9-0.9c0,0-0.1,0.1-0.1,0.1c0.1-0.1,0.3-0.2,0.4-0.3c0,0-0.1,0-0.1,0c0.2,0.4,0.4,0.8,0.7,1.2
					c0.6-0.5,1.2-0.9,1.8-1.2c-0.2-0.4-0.5-0.8-0.7-1.2c-0.4,0.2-0.8,0.5-1.2,0.7c-0.7,0.5-0.1,1.5,0.7,1.2c0.6-0.2,1.1-0.6,1.6-0.9
					c0.7-0.5,0.1-1.6-0.7-1.2c-0.3,0.2-0.7,0.4-1,0.6c-0.8,0.4-0.1,1.5,0.7,1.2c0.6-0.2,1.2-0.5,1.7-0.7c-0.1-0.4-0.2-0.9-0.4-1.3
					c-0.4,0.1-0.7,0.3-1.1,0.4c-0.7,0.3-0.7,1.4,0.2,1.4c0.7,0,1.4-0.5,2-0.4c0-0.4,0-0.9,0-1.3c-0.1,0-0.2,0-0.2,0.1
					c-0.7,0.2-0.6,1.1,0,1.3c0.3,0.1,0.5,0.1,0.7-0.1c0.8-0.4,0.1-1.6-0.7-1.2c0,0-0.1,0-0.1,0.1c0.2,0,0.4-0.1,0.5-0.1
					c0,0-0.1,0-0.1,0c0,0.4,0,0.9,0,1.3c0.1,0,0.2,0,0.2-0.1c0.6-0.2,0.7-1.2,0-1.3c-0.9-0.2-1.5,0.3-2.4,0.3
					c0.1,0.4,0.1,0.9,0.2,1.4c0.4-0.1,0.7-0.3,1.1-0.4c0.8-0.3,0.5-1.7-0.4-1.3c-0.7,0.3-1.4,0.6-2.1,0.9c0.2,0.4,0.5,0.8,0.7,1.2
					c0.3-0.2,0.7-0.4,1-0.6c-0.2-0.4-0.5-0.8-0.7-1.2c-0.5,0.3-1,0.6-1.6,0.9c0.2,0.4,0.5,0.8,0.7,1.2c0.4-0.2,0.8-0.5,1.2-0.7
					c0.7-0.5,0.1-1.7-0.7-1.2c-0.7,0.4-1.4,0.9-2,1.4c-0.5,0.5,0,1.3,0.7,1.2c0.3-0.1,0.4-0.2,0.6-0.4c0.4-0.6-0.4-1.4-0.9-0.9
					c-0.1,0-0.1,0.1-0.2,0.1c0.3,0.4,0.6,0.7,0.8,1.1c0.1-0.1,0.2-0.2,0.3-0.4c0.4-0.6-0.4-1.3-0.9-0.9c0,0-0.1,0.1-0.1,0.1
					c0.3,0.3,0.6,0.6,0.9,0.9c0.1-0.1,0.1-0.1,0.2-0.2c0.6-0.6-0.2-1.4-0.8-1.1c-0.1,0-0.1,0-0.1,0c0.2,0.4,0.4,0.8,0.7,1.2
					c0.2-0.2,0.3-0.4,0.6-0.6c0.6-0.6-0.2-1.4-0.8-1.1c-0.2,0.1-0.5,0.2-0.7,0.4C39.6,85.4,40.2,86.5,41,86.2L41,86.2z"/>
			</g>
		</g>
	</g>
	<g>
		<g>
			<g>
				<path class="st0" d="M45.2,84.4C45.1,84.4,45.1,84.4,45.2,84.4c0,0.1,0.1,0.2,0.1,0.3c0,0.1,0,0.1,0,0.1
					c-0.1,0.1-0.1,0.2-0.2,0.3c0,0,0,0,0,0c0.3-0.2,0.3-0.7,0-1c-0.3-0.3-0.7-0.2-1,0c-0.2,0.2-0.3,0.6-0.1,0.9
					c0.2,0.3,0.6,0.4,0.9,0.2C45.2,85.2,45.4,84.8,45.2,84.4L45.2,84.4z"/>
			</g>
		</g>
	</g>
	<g>
		<path class="st0" d="M96.5,87l1-0.3l1.4-0.6l0.9-0.8l0.7-0.7l0.6-0.6v-0.9l-0.5-1l-2.5-1.3L96,80.1c0,0-2.6-0.7-2.7-0.8
			c-0.1,0-1.8-0.4-1.8-0.4l0.1,6C91.6,84.8,95.1,84.5,96.5,87z"/>
	</g>
	<g>
		<g>
			<g>
				<path class="st0" d="M92.4,79.3c-0.1-0.1-0.2-0.2-0.4-0.3c-0.1,0.1-0.1,0.2-0.2,0.3c0.2,0.1,0.3,0.1,0.5,0.1
					c0.1-0.1,0.1-0.2,0.1-0.3c-0.2-0.1-0.4-0.2-0.6-0.3c-0.1,0.1-0.1,0.2-0.1,0.3c0.4,0.1,0.8,0.2,1.2,0.2c0-0.1,0.1-0.2,0.1-0.3
					c-0.3,0-0.7-0.1-1-0.2c-0.2-0.1-0.3,0.3-0.1,0.3c1.5,0.5,3,0.6,4.4,1.2c1.3,0.6,2.8,1.1,3.7,2.2c0.1-0.1,0.2-0.2,0.2-0.2
					c-1.2-1-2.5-1.7-4-2.2c0,0.1-0.1,0.2-0.1,0.3c0.7,0.2,1.4,0.4,2.1,0.7c0.2,0.1,0.3-0.2,0.1-0.3c-0.4-0.2-0.7-0.4-1.1-0.6
					c-0.2-0.1-0.4,0.2-0.2,0.3c0.4,0.3,0.7,0.6,1,0.9c0.1,0.2,0.4-0.1,0.2-0.2c-0.3-0.4-0.7-0.7-1.1-1c-0.1,0.1-0.1,0.2-0.2,0.3
					c0.4,0.2,0.7,0.4,1.1,0.6c0.1-0.1,0.1-0.2,0.1-0.3c-0.7-0.3-1.4-0.5-2.1-0.7c-0.2-0.1-0.3,0.2-0.1,0.3c1.4,0.5,2.7,1.2,3.8,2.2
					c0.2,0.1,0.4-0.1,0.2-0.2c-0.9-1.2-2.5-1.7-3.8-2.3c-1.5-0.7-3-0.8-4.5-1.3c0,0.1-0.1,0.2-0.1,0.3c0.3,0.1,0.6,0.2,1,0.2
					c0.2,0,0.3-0.3,0.1-0.3c-0.4-0.1-0.8-0.2-1.2-0.2c-0.2,0-0.3,0.2-0.1,0.3c0.4,0.2,0.2,0.2,0.7,0.3c0.2,0.1,0.3-0.2,0.1-0.3
					C92.2,79,92.4,79,92,78.9c-0.1,0-0.3,0.2-0.2,0.3c0.1,0.1,0.2,0.2,0.4,0.3C92.3,79.6,92.6,79.4,92.4,79.3L92.4,79.3z"/>
			</g>
		</g>
	</g>
	<g>
		<g>
			<g>
				<path class="st0" d="M101,83.8c0.1-0.1,0.2-0.1,0.3-0.1c-0.1-0.1-0.1-0.2-0.2-0.3c0,0-0.1,0-0.1,0.1c-0.2,0.1,0,0.4,0.2,0.3
					c0,0,0.1,0,0.1-0.1c0.2-0.1,0-0.4-0.2-0.3c-0.1,0.1-0.2,0.1-0.3,0.1C100.6,83.6,100.8,83.9,101,83.8L101,83.8z"/>
			</g>
		</g>
	</g>
	<g>
		<g>
			<g>
				<path class="st0" d="M36.4,83.5c-0.1,0-0.2,0-0.2,0c0,0.1,0,0.2,0,0.3c0.2,0,0.2-0.1,0.3-0.2c0.1-0.2,0.1-0.4,0.2-0.6
					s-0.2-0.3-0.3-0.1c-0.2,0.2-0.2,0.5-0.2,0.7c0.1,0,0.2,0,0.3,0c0-0.2-0.2-0.3-0.4-0.1c-0.1,0.2,0.1,0.4,0.2,0.3
					c-0.1-0.1-0.1-0.2-0.1-0.3c-0.1,0-0.1,0.1-0.1,0.1c-0.2,0.1-0.1,0.3,0.1,0.3c0.3,0,0.6,0,0.8,0c0.2,0,0.2-0.3,0-0.3
					c-0.3,0-0.6,0-0.8,0c0,0.1,0.1,0.2,0.1,0.3c0.1,0,0.1-0.1,0.1-0.1c0.2-0.1,0.1-0.4-0.1-0.3C36.2,83.6,36.2,83.6,36.4,83.5
					c-0.1,0.1-0.1,0.2,0,0.2v0c0,0.1-0.1,0.1-0.1,0.1c0,0,0,0,0,0c-0.1,0-0.1,0-0.1,0l0,0c0,0,0-0.1-0.1-0.1v0c0,0.2,0.4,0.2,0.3,0
					c0-0.2,0-0.4,0.1-0.6c-0.1-0.1-0.2-0.1-0.3-0.1c0,0.1-0.1,0.2-0.1,0.3c0,0.1-0.1,0.2-0.1,0.3c0,0,0.1,0,0.1-0.1h0
					c-0.2,0-0.2,0.3,0,0.3c0.1,0,0.2,0,0.3,0C36.7,83.8,36.6,83.5,36.4,83.5L36.4,83.5z"/>
			</g>
		</g>
	</g>
	<g>
		<polygon class="st0" points="91.5,88 97.6,86.7 95.4,82.5 91.4,82.5 		"/>
	</g>
	<g>
		<g>
			<g>
				<path d="M92.8,44.8c1.6,3,2.5,6.3,2.4,9.9C95.2,67.9,82.5,78.5,67,78.4c-15.5-0.1-28-10.9-27.9-24c0.1-13.2,12.8-23.8,28.3-23.7
					c3.1,0,6.2,0.5,9,1.3c0-0.1,0.1-0.2,0.1-0.4c-2.8-0.9-5.9-1.3-9.1-1.3c-15.7-0.1-28.5,10.7-28.6,24C38.6,67.7,51.3,78.7,67,78.8
					c15.7,0.1,28.5-10.7,28.6-24c0-3.5-0.8-6.8-2.4-9.9C93.1,44.8,92.9,44.8,92.8,44.8z"/>
			</g>
		</g>
		<g>
			<g>
				<path d="M92.2,44.8c-0.2,0-0.3,0-0.5-0.1c2.5,3.6,3.9,7.8,3.9,12.3c-0.1,13.2-12.8,23.8-28.3,23.7c-15.5-0.1-28-10.9-27.9-24
					C39.6,43.5,52.2,32.9,67.7,33c2.9,0,5.6,0.4,8.2,1.1c0-0.1,0-0.2,0-0.4c-2.6-0.7-5.4-1.1-8.3-1.1c-15.7-0.1-28.5,10.7-28.6,24
					C39,70,51.7,81,67.4,81.1c15.7,0.1,28.5-10.7,28.6-24C96.1,52.6,94.6,48.4,92.2,44.8z"/>
			</g>
		</g>
	</g>
	<g>
		<g>
			<g>
				<path d="M83.2,92.7c-2.5,0-5.2,0.2-7.7,0.8c-0.7,0.2-2.1,0.8-1.3,1.8c0.4,0.6,1.8,0.4,2.4,0.5c1.4,0.1,2.7,0,4.1-0.1
					c1.3-0.1,2.6-0.1,3.7,0.8c0.7,0.6,1.1,1.1,2,1.3c2,0.5,4.4-0.3,6.3-0.7c0.7-0.1,3.6-0.6,3.4-1.9c-0.1-0.4-0.7-0.6-1-0.7
					c-1.1-0.4-2.3-0.6-3.5-0.7c-2.9-0.3-5.7-0.5-8.5-1.2c-0.2-0.1-0.3,0.3-0.1,0.3c1.6,0.4,3.2,0.7,4.8,0.9c1.9,0.2,3.8,0.2,5.7,0.6
					c0.4,0.1,0.9,0.1,1.2,0.3c0.9,0.6,0.3,1.4-0.4,1.7c-0.8,0.3-1.7,0.4-2.5,0.6c-1.8,0.3-4.4,1.2-6.1,0.2c-1.1-0.6-1.6-1.6-2.9-1.9
					c-1.4-0.3-2.9,0.1-4.3,0.1c-0.6,0-2.5,0.2-3-0.1c-0.1-0.5-0.2-0.9-0.4-1.4c0.2-0.1,0.4-0.1,0.6-0.1c0.4-0.1,0.8-0.2,1.3-0.2
					c2-0.3,4.1-0.5,6.1-0.5C83.4,93.1,83.4,92.7,83.2,92.7L83.2,92.7z"/>
			</g>
		</g>
	</g>
	<g>
		<g>
			<g>
				<path d="M83.1,92.5c0.6-0.2,1,0,1.7,0.1c0.7,0.1,1.3-0.1,2-0.1c0.8-0.1,2-0.1,2.6,0.4c0.5,0.4,0.4-0.2,0.1,0.5
					c0,0-0.5,0.5-0.2,0.2c-0.2,0.1,0.1,0.4,0.2,0.2c0.3-0.3,1-0.4,0.7-0.9c-0.2-0.4-1.6-0.7-2-0.8c-0.8-0.1-1.6,0.1-2.5,0.1
					c-0.9,0.1-1.6-0.5-2.4-0.4c-0.2,0-0.5,0.1-0.6,0.3c-0.3,0.5,0.2,0.9,0.6,0.7C83.4,92.8,83.3,92.5,83.1,92.5L83.1,92.5z"/>
			</g>
		</g>
	</g>
	<g>
		<g>
			<g>
				<path d="M93,91.3c-0.6-0.1-1.2,0.1-1.8,0.3c-0.1,0.1-0.1,0.2,0,0.3c0.8,0.6,1.9,0.7,2.8,0.2c0.1-0.1,0.1-0.2,0-0.3
					c-0.3-0.4-0.7-0.5-1.2-0.4c-0.2,0.1-0.1,0.4,0.1,0.3c0.4-0.1,0.7,0,0.9,0.3c0-0.1,0-0.2,0-0.3c-0.7,0.4-1.7,0.4-2.3-0.1
					c0,0.1,0,0.2,0,0.3c0.5-0.3,1-0.4,1.6-0.3C93.2,91.7,93.2,91.3,93,91.3L93,91.3z"/>
			</g>
		</g>
	</g>
	<g>
		<g>
			<g>
				<path d="M68.2,98.3c-0.4-0.2-0.8-0.1-1.1,0.2c-0.1,0.1-0.1,0.2,0,0.2c0.5,0.4,1.1,0.5,1.7,0.2c0.1,0,0.1-0.2,0.1-0.2
					c-0.2-0.4-0.6-0.6-1-0.5c-0.2,0-0.2,0.4,0,0.3c0.3,0,0.5,0.1,0.7,0.4c0-0.1,0-0.2,0.1-0.2c-0.4,0.2-0.9,0.1-1.3-0.2
					c0,0.1,0,0.2,0,0.2c0.2-0.2,0.4-0.3,0.7-0.2C68.2,98.7,68.4,98.4,68.2,98.3L68.2,98.3z"/>
			</g>
		</g>
	</g>
	<g>
		<g>
			<g>
				<path d="M111.8,80.3c-0.9-0.2-2-0.1-2.7,0.5c-0.6,0.5,0.1,1,0.6,1.1c0.6,0.1,1.9,0.1,2.4-0.5c0.4-0.4,0.1-1.2-0.5-1
					c-0.2,0.1-0.1,0.4,0.1,0.3c0.1,0.4,0,0.6-0.2,0.7c-0.1,0-0.2,0.1-0.2,0.1c-0.1,0-0.3,0.1-0.4,0.1c-0.2,0-1.8,0.1-1.4-0.5
					c0.2-0.2,0.7-0.3,1-0.4c0.4-0.1,0.9-0.1,1.4,0C111.9,80.6,112,80.3,111.8,80.3L111.8,80.3z"/>
			</g>
		</g>
	</g>
	<g>
		<g>
			<g>
				<path d="M101.7,73.7c-0.3,0.1-0.6,0.2-0.8,0.4c-0.1,0.1-0.1,0.2,0,0.2c0.5,0.4,1.2,0.4,1.7-0.1c0.1-0.1,0.1-0.2,0-0.2
					c-0.2-0.1-0.4-0.2-0.6-0.2c-0.2,0-0.1,0.4,0.1,0.3c0.1,0,0.2,0,0.3,0.1c0-0.1,0-0.2,0-0.2c-0.3,0.4-0.8,0.4-1.2,0.1
					c0,0.1,0,0.2,0,0.2c0.2-0.2,0.4-0.3,0.7-0.3C102,74,101.9,73.7,101.7,73.7L101.7,73.7z"/>
			</g>
		</g>
	</g>
	<g>
		<g>
			<g>
				<path d="M28.4,77.2c-0.4,0-0.9,0.1-1,0.6c0,0.5,0.7,0.6,1,0.6c0.4,0,0.8-0.4,0.7-0.8C29.1,77.2,28.7,77.1,28.4,77.2
					c-0.2,0.2,0.1,0.5,0.2,0.3c0.1-0.1,0.2,0,0.2,0.1c0.1,0.1,0,0.2-0.1,0.3c-0.2,0.1-0.4,0.1-0.6,0.1c-0.1,0-0.5-0.1-0.3-0.3
					c0.1-0.2,0.4-0.1,0.6-0.1C28.6,77.6,28.6,77.2,28.4,77.2L28.4,77.2z"/>
			</g>
		</g>
	</g>
	<g>
		<g>
			<g>
				<path d="M56.7,100.8c-0.1,0.1-0.2,0.1-0.4,0.1c-0.1,0-0.2,0.2-0.1,0.2c0.1,0.2,0.3,0.4,0.6,0.4c0.2,0,0.4-0.1,0.6-0.2
					C57.6,101,57.1,100.4,56.7,100.8c-0.1,0.1,0.1,0.3,0.2,0.2c0.1,0,0.1,0,0.1,0.1c0,0.1-0.1,0.1-0.1,0.2c-0.2,0.1-0.4-0.1-0.5-0.2
					c0,0.1-0.1,0.2-0.1,0.2c0.1-0.1,0.2-0.1,0.4-0.1C57,101,56.9,100.7,56.7,100.8L56.7,100.8z"/>
			</g>
		</g>
	</g>
	<g>
		<g>
			<path d="M123.5,46.7c-0.1,0.2-0.1,0.5-0.2,0.7c0,0,0,0,0,0.1c3.4,7.3,5.3,15.5,5.3,24c0,31.7-25.8,57.4-57.4,57.4
				s-57.4-25.8-57.4-57.4s25.8-57.4,57.4-57.4c15.9,0,30.4,6.5,40.8,17.1c0.1,0,0.1-0.1,0.2-0.1c0.1-0.1,0.2-0.1,0.3-0.2
				c-10.5-10.7-25.2-17.4-41.3-17.4c-32,0-58,26-58,58s26,58,58,58s58-26,58-58C129.1,62.7,127.1,54.3,123.5,46.7z"/>
		</g>
	</g>
	<g>
		<g>
			<g>
				<path d="M75.5,128.5c-1.9-1.4-1.8-4.3,0.4-5.4c1-0.5,1.9-0.3,3,0.1c0.4,0.2,0.9,0.3,1.3,0.2c1.1-0.3,1.8-1.7,2.6-2.4
					c1.6-1.3,3.6-2,5.7-2.1c0.1,0,0.1-0.1,0.2-0.1c0.9-2.9,2.3-5.5,4.3-7.9c1-1.2,2.2-2.5,3.7-2.9c3-0.7,2.4,2.6,2.1,4.2
					c-0.2,1.3-0.2,3.5,1.5,3.7c0.8,0.1,1.5-0.3,2.1-0.8c0.6-0.5,0.9-1.1,1.5-1.6c0.8-0.7,2.7-1.5,3.1,0.1c0,0.1,0.2,0.2,0.3,0.1
					c0.7-0.9,2.1-0.7,2.5,0.4c0.1,0.2,0.4,0.1,0.3-0.1c-0.4-1.3-1.6-1.2-2.6-1c-0.2,0.1-0.2,0.2-0.2,0.2c0.1,0-0.4-0.6-0.4-0.5
					c-0.5-0.5-1.4-0.5-2-0.3c-0.9,0.3-1.5,1.2-2.1,1.8c-0.2,0.2-0.4,0.4-0.6,0.6c-0.2,0.2-0.5,0.3-0.7,0.5c-0.6-0.1-1.3-0.1-1.9-0.2
					c-0.7-0.5-0.6-2-0.5-2.7c0.2-1.5,1-3.6-0.6-4.6c-1.5-0.9-3.3,0.3-4.4,1.3c-1.8,1.7-3.3,3.9-4.4,6.1c-0.2,0.4-0.4,0.8-0.6,1.2
					c-0.2,0.4-0.3,1.3-0.6,1.7c-0.4,0.4-1,0.4-1.5,0.4c-0.6,0.1-1.2,0.3-1.8,0.5c-0.9,0.4-1.8,0.9-2.6,1.5c-0.4,0.4-0.8,0.8-1.2,1.2
					c-0.2,0.2-0.3,0.4-0.5,0.6c-0.8,0.8-1.4,0.5-2.3,0.2c-3.9-1.4-6.5,3.7-3.2,6.1C75.5,128.9,75.7,128.6,75.5,128.5L75.5,128.5z"/>
			</g>
		</g>
	</g>
	<g>
		<g>
			<g>
				<path d="M73.2,117.4c1.7-0.4,3.2-1.1,4.6-2.2c1-0.7,2.3-1.9,2.7-3.1c0.8-2.5-2.7-3.1-4.4-2.9c-1.5,0.2-3,0.8-4.2,1.7
					c-0.9,0.7-2.3,2-2.6,3.2c-0.2,1.1,0.9,2.3,1.7,2.9c0.9,0.7,1.9,0.8,2.8,0.2c0.2-0.1,0-0.4-0.2-0.3c-1.2,0.9-3.3-0.2-3.7-1.6
					c-0.5-1.4,0.4-2.3,1.3-3.3c1.5-1.5,3.6-2.5,5.8-2.5c1,0,2.2,0.2,2.9,0.9c1.3,1.3-0.3,2.8-1.2,3.8c-1.5,1.5-3.4,2.4-5.4,2.9
					C72.9,117.1,73,117.4,73.2,117.4L73.2,117.4z"/>
			</g>
		</g>
	</g>
	<g>
		<g>
			<g>
				<path d="M124.3,50.8c1.1,3.1-6.4,3.7-8.3,4.1c-2.4,0.5-4.9,1.3-6.7,3c-1.4,1.3-2.6,3.5-0.7,4.9c0.9,0.7,2,0.9,3.1,1.2
					c0.7,0.2,1.6,0.6,2.2,1.2c0.9,1.1,0.1,2.1-0.4,3.1c-0.4,0.7-0.5,1.4-0.1,2.2c0.8,1.5,2.4,3,3.5,4.3c1,1.3,3.3,3.1,2.9,4.9
					c-0.3,1.3-1.6,2.1-2.3,3.1c-0.4,0.6-0.6,1.3-0.5,2c0.3,1.5,2.1,2,2.5,3.4c0.9,3.3-4.1,4.6-5.1,7.3c-0.3,0.9-0.3,2,0.3,2.8
					c0.7,1,1.9,0.8,3,0.8c0.3,0,1.1-0.1,1.4,0.1c0.5,0.3,0.1,0.3,0,0.7c-0.1,0.4-0.3,0.7-0.1,1.1c0.3,0.5,0.9,0.6,1.3,0.2
					c0.2-0.2-0.1-0.4-0.2-0.2c-0.1-0.5-0.1-1-0.2-1.5c0.1-0.1,0.1-0.2,0-0.3c-0.8-0.6-1.7-0.4-2.7-0.4c-0.9,0.1-1.8-0.1-2.3-0.9
					c-0.4-0.8-0.2-2,0.2-2.8c1.2-2.2,4.3-3,4.8-5.7c0.5-2.5-3.1-3.4-2.5-5.7c0.5-1.7,2.7-2.6,2.8-4.6c0-1-0.7-1.7-1.2-2.4
					c-1.1-1.4-2.2-2.7-3.3-4c-0.5-0.6-1-1.2-1.5-1.8c-0.9-1.2-0.7-2,0-3.1c0.4-0.7,0.7-1.5,0.4-2.3c-0.7-1.7-3-1.8-4.5-2.5
					c-0.7-0.3-1.8-0.9-2-1.8c-0.2-1,0.5-2,1.1-2.7c0.8-1,1.9-1.7,3.1-2.2c2.7-1.2,5.7-1.5,8.5-2.1c1.6-0.4,4.7-1.3,3.9-3.6
					C124.6,50.5,124.2,50.6,124.3,50.8L124.3,50.8z"/>
			</g>
		</g>
	</g>
	<g>
		<g>
			<g>
				<path d="M102.4,95.4c-1.4,0.8-3.1,2-2.9,3.8c0.1,0.9,0.6,1.4,1.2,1.9c0.4,0.3,0.8,0.6,1.2,0.9c0.6,0.7,0.7,1.5,0.9,2.3
					c0.3,1.6,1,2.9,2.8,3.2c1.5,0.3,2.9-0.4,3.6-1.7c0.8-1.6,0.5-3.6,0.1-5.2c-0.3-1.5-0.8-3-0.5-4.5c0.4-1.6,1.5-2.7,2.6-3.9
					c1.3-1.4,1.8-2.5,0.3-3.9c-1.3-1.3-3.3-1.7-5.1-1.2c-1.9,0.5-4.2,2-4.6,4.1c-0.1,0.8,0.1,1.4,0.5,2.2c0.3,0.6,0.2,0.5-0.3,1.1
					c-0.2,0.3-0.4,0.7-0.6,1.1c-0.1,0.2,0.2,0.3,0.3,0.1c0.3-0.7,0.7-1.3,1.3-1.7c0.1-0.1,0.1-0.2,0-0.2c-2.4-2,0.2-4.8,2.2-5.8
					c1.2-0.5,2.5-0.8,3.7-0.5c0.7,0.1,1.2,0.4,1.8,0.8c0.2,0.1,0.4,0.3,0.6,0.5c0.6,0.4,0.7,1,0.3,1.6c-0.2,1.1-0.4,1.2-1,2
					c-0.3,0.3-0.6,0.6-0.9,1c-0.5,0.6-0.9,1.2-1.2,1.8c-0.7,1.6-0.4,3.3,0,4.9c0.4,1.9,1,4.1,0,5.9c-1.2,2.2-4.6,1.8-5.4-0.6
					c-0.5-1.6-0.4-2.9-1.7-4c-1-0.8-2-1.4-1.7-2.9c0.3-1.3,1.6-2.1,2.7-2.7C102.8,95.6,102.6,95.3,102.4,95.4L102.4,95.4z"/>
			</g>
		</g>
	</g>
	<g>
		<g>
			<g>
				<path d="M62.6,128.6c1.9-1.1,3.7-3,3.9-5.4c0.2-2.6-2-3.8-4.2-4.5c-3.2-1-7.4-2-8.3-5.9c-0.3-1.2,0.1-2,0.4-3.1
					c0.1-0.4,0.3-0.8,0.2-1.2c-0.2-1-1.4-1.8-2.2-2.3c-5.7-3.6-12.9-1.2-19.1-3.4c-3.2-1.1-6.4-4-6.3-7.7c0.1-3.3,3.5-5.1,3.9-8.2
					c0.3-2-0.7-4.3-3.1-4c-1.8,0.2-3.4,1.6-4.8,2.6c-0.9,0.6-1.8,1.2-2.6,1.8c-0.8,0.5-4.6,3.4-4.6,0.6c0-0.2-0.4-0.2-0.3,0
					c0,0.7,0.3,1.2,0.9,1.4c1.2,0.5,2.4-0.4,3.3-1.1c1.5-1,2.9-2,4.4-3c1.6-1.1,4.6-3.3,6.1-0.8c1.8,3.1-1.8,5.9-3,8.4
					c-1,2.2-0.6,4.6,0.7,6.5c3.6,5.3,10.4,4.7,16,5.1c1.6,0.1,3.2,0.3,4.7,0.7c1.5,0.4,3.9,1.1,4.8,2.5c0.5,0.8,0.7,1.6,0.4,2.4
					c-0.1,0.3-0.2,0.4-0.3,0.8c-0.1,0.5-0.2,1-0.1,1.6c0.1,1.1,0.6,2.1,1.3,3c2,2.5,5.3,3,8.2,4c2.2,0.8,3.7,2.5,2.9,4.9
					c-0.6,1.8-1.9,3.2-3.5,4.1C62.2,128.4,62.4,128.7,62.6,128.6L62.6,128.6z"/>
			</g>
		</g>
	</g>
	<g>
		<g>
			<g>
				<path d="M14,75.8c2,0.6,3.7-0.5,4.9-2.1c1.6-2.3,1.4-5,1.2-7.6c-0.2-3.3,0-6.5,2.5-8.8c2-1.8,4.8-2.8,7.5-2.7c1,0,1.4,0.4,2-0.4
					c0.5-0.6,0.8-1.4,0.9-2.1c0.3-1.9-0.2-3.8-0.4-5.7c-0.1-1-0.1-2,0.2-3c0.6-1.7,2.2-2,3.6-2.6c1.2-0.5,2.2-1.2,3.1-2
					c1.1-0.9,2.4-1.9,3.2-3.1c1.3-1.9,0-4.3-1.8-5.1c-1.2-0.6-2.6-0.6-3.9-0.4c-0.5,0.1-1,0.3-1.5,0.2c-0.7,0-0.6,0.2-0.6-0.7
					c0-1,0.2-2.2,0.4-3.2c0-0.2-0.3-0.2-0.3,0c-0.2,1.4-0.3,2.8-0.5,4.2c0,0.1,0.1,0.2,0.2,0.2c1.6-0.4,3.2-0.7,4.8-0.4
					c1.6,0.3,3.4,1.5,3.5,3.4c0.1,1.6-1.4,2.6-2.5,3.6c-1,1-2.2,1.9-3.4,2.6c-1.6,0.9-3.7,1.1-4.5,3c-0.6,1.3-0.4,2.9-0.2,4.3
					c0.2,1.7,0.6,3.6,0.2,5.3c-0.2,0.9-0.6,1.8-1.6,1.8c-0.9,0-1.8-0.1-2.8,0c-3.6,0.5-7.2,2.8-8.3,6.4c-0.9,2.8,0,5.8-0.1,8.7
					c-0.1,2.9-2.3,7-5.7,6C13.9,75.4,13.8,75.7,14,75.8L14,75.8z"/>
			</g>
		</g>
	</g>
	<g>
		<g>
			<g>
				<path d="M47.6,19.3c-0.4,2.3-0.1,5.2,2.9,4.9c1.9-0.2,3.7-1.4,5.5-1.9c2.2-0.7,4.4-1.1,6.7-1.2c2.2-0.1,4.4-0.1,6.5,0.3
					c1.8,0.3,3.6,0.9,5.4,1.1c1.2,0.2,2.6,0.2,3.8-0.3c1.5-0.6,2-2.5,3.6-2.8c0.9-0.2,0.7-0.1,1.4,0.4c0.1,0.1,0.2,0.2,0.3,0.2
					c0.3,0.2,0.6,0.4,1,0.5c0.7,0.2,1.4,0.2,2.1-0.1c1.4-0.5,2.2-1.9,2.2-3.4c0-0.2-0.3-0.2-0.3,0c0,1.7-1.3,3.3-3.1,3.2
					c-1.2-0.1-1.7-1-2.7-1.4c-1.1-0.5-1.8,0.4-2.5,1.2c-1.3,1.6-2.7,2.3-4.9,2.2c-1.9-0.1-3.8-0.7-5.6-1.1
					c-3.9-0.7-7.9-0.6-11.8,0.3c-2.1,0.5-3.9,1.3-5.9,2c-1.3,0.5-3.2,1-4-0.6c-0.5-1-0.3-2.3-0.1-3.3C48,19.1,47.7,19,47.6,19.3
					L47.6,19.3z"/>
			</g>
		</g>
	</g>
	<g>
		<g>
			<g>
				<path d="M48.5,27.9c-0.9,0.4-2.6,1.6-1.5,2.7c0.4,0.4,0.9,0.4,1.4,0.2c0.7-0.3,1.5-0.7,2.2-1c0.9-0.3,2-1,1.5-2.1
					c-0.7-1.4-2.5-0.7-3.5-0.1c-0.2,0.1,0,0.4,0.2,0.3c0.4-0.2,0.8-0.5,1.3-0.6c0.8-0.2,2.3,0.4,1.7,1.4c-0.3,0.6-1.2,0.7-1.8,1
					c-0.5,0.2-0.9,0.4-1.4,0.7C47.4,31,46.5,30,47.4,29c0.3-0.4,0.8-0.6,1.3-0.7C48.9,28.1,48.7,27.8,48.5,27.9L48.5,27.9z"/>
			</g>
		</g>
	</g>
	<g>
		<g>
			<g>
				<path d="M27.9,64.9c-0.6,0.7-1.6,1.8-1,2.8c0.2,0.4,0.6,0.6,1,0.7c0.7,0.2,1.4,0.4,1.8,1.2c0.2,0.4,0.1,0.9,0.3,1.3
					c0.8,2.3,3.8,2.8,5.3,0.8c0.8-1,0.7-2.3,0.2-3.4c-0.4-0.9-1-1.9-1-2.9c-0.1-1.1,0.7-1.9,1.4-2.7c0.6-0.7,1.4-1.5,1.2-2.6
					c-0.1-1.1-1.2-1.9-2.2-2.1c-3.8-0.7-5.1,4.7-6.7,7c-0.1,0.2,0.2,0.4,0.3,0.2c1.5-2.2,3.2-8.4,7-6.7c1.2,0.5,1.7,1.7,1,2.9
					c-0.3,0.6-0.8,1-1.2,1.5c-0.6,0.7-1.1,1.5-1,2.4c0.1,1.2,0.9,2.3,1.2,3.4c0.7,2.3-1.4,4.8-3.8,3.5c-0.9-0.6-1.2-1.4-1.4-2.4
					c-0.1-0.5-0.2-0.9-0.5-1.3c-0.3-0.3-0.6-0.4-1-0.5c-0.6-0.1-1.3-0.8-1.4-1.4c0-0.5,0.7-1.2,1-1.5C28.2,65,28,64.8,27.9,64.9
					L27.9,64.9z"/>
			</g>
		</g>
	</g>
	<g>
		<g>
			<g>
				<path d="M103.5,51.3c-1.2,1.2-4.2,4.6-2.5,6.2c1.6,1.6,4.2,0.3,5.1-1.4c0.4-0.6,0.6-1.3,0.9-1.9c0.4-0.7,0.9-1.1,1.5-1.6
					c0.6-0.6,1-1.2,0.6-2c-0.5-0.9-1.9-1.4-2.8-1.7c-1.2-0.4-2.3-0.5-3.5,0.1c-0.1,0.1-0.1,0.2-0.1,0.2c0.5,0.8,1.1,1.7,0.4,2.7
					c-0.1,0.2,0.2,0.4,0.3,0.2c0.4-0.5,0.4-0.9,0.3-1.5c0.1,0.2-0.3-1-0.3-0.8c-0.3-0.3-0.2-0.6,0.2-0.8c0.3,0,0.5-0.1,0.8-0.1
					c1.2,0,2.6,0.6,3.6,1.2c0.9,0.6,0.9,1.5,0.2,2.3c-0.3,0.3-0.7,0.5-1,0.9c-1.3,1.4-1.3,3.6-3.4,4.4c-0.7,0.2-2.2,0.4-2.7-0.4
					c-0.5-0.9-0.1-2.1,0.3-2.8c0.6-1.1,1.3-2,2.2-2.9C103.9,51.4,103.6,51.1,103.5,51.3L103.5,51.3z"/>
			</g>
		</g>
	</g>
</g>
</svg>
