<?xml version="1.0" encoding="utf-8"?>
<!-- Generator: Adobe Illustrator 24.0.1, SVG Export Plug-In . SVG Version: 6.00 Build 0)  -->
<svg version="1.1" id="Layer_1" xmlns="http://www.w3.org/2000/svg" xmlns:xlink="http://www.w3.org/1999/xlink" x="0px" y="0px"
	 viewBox="0 0 141.7 141.7" style="enable-background:new 0 0 141.7 141.7;" xml:space="preserve">
<style type="text/css">
	.st0{fill:#070707;}
	.st1{enable-background:new    ;}
</style>
<g id="Layer_1_1_">
</g>
<g id="Layer_1_2_">
</g>
<g id="Layer_1_3_">
</g>
<g id="Layer_3">
	<g>
		<g>
			<g>
				<path class="st0" d="M28.6,104.6c0-1.8,3.5-3.7,9.7-5c0-0.2,0-0.3,0-0.4c-6.3,1.4-10.1,3.3-10.1,5.5c0,1.5,1.8,2.9,5.3,4.1
					c0,0,0,0,0,0c0.1-0.1,0.2-0.3,0.3-0.4c0.1-0.1,0.2-0.2,0.2-0.3c-0.2,0.1-0.3,0.3-0.5,0.4C30.3,107.1,28.6,105.9,28.6,104.6z"/>
			</g>
			<g>
				<path class="st0" d="M91.6,98.9c0,0.1,0,0.3,0,0.4c0,0,0.1,0,0.1,0c6.8,1.4,10.7,3.3,10.7,5.3c0,1.3-1.7,2.5-4.8,3.7
					c-0.1-0.2-0.2-0.3-0.3-0.4c0.1,0.2,0.2,0.3,0.3,0.4c0.1,0.1,0.2,0.3,0.2,0.4c3.4-1.2,5.1-2.6,5.1-4.1
					C102.7,102.3,98.5,100.3,91.6,98.9z"/>
			</g>
			<g>
				<path class="st0" d="M91.9,109.8c-6.9,1.5-16.5,2.3-26.4,2.3c-10.1,0-19.5-0.8-26.6-2.3c0-0.2,0.1-0.3,0.1-0.4
					c-0.1,0.2-0.2,0.4-0.3,0.6c0,0.1-0.1,0.1-0.2,0.2l0.1,0c7.1,1.6,16.6,2.4,26.9,2.4c10.1,0,19.7-0.9,26.7-2.4
					C92.1,110,92,109.9,91.9,109.8z"/>
			</g>
		</g>
		<g>
			<g>
				<g>
					<path class="st0" d="M87.6,72.6c-2.5-4.6-7.1-7.6-12.1-8.9c-3-0.8-6.2-0.9-9.3-0.7c-3.5,0.3-7,0.6-10.5,1.1
						c-5,0.7-9.6,3.2-12.8,7.2c-3.5,4.4-4.8,10-5.2,15.5c-0.5,7.7,0.8,15.4,0.8,23.1c0,0.3,0.5,0.3,0.5,0c0-6.3-0.9-12.6-0.9-19
						c0-5.7,0.7-11.6,3.5-16.7c2.6-4.7,7.1-8.1,12.3-9.3c2.9-0.7,6-0.8,9-1.1c3-0.3,6-0.6,9.1-0.3c6.1,0.6,12.3,3.8,15.3,9.3
						C87.3,73.1,87.8,72.9,87.6,72.6L87.6,72.6z"/>
				</g>
			</g>
		</g>
		<g>
			<g>
				<g>
					<path class="st0" d="M55.8,64.5c0.3,0,0.3-0.5,0-0.5C55.4,64,55.4,64.5,55.8,64.5L55.8,64.5z"/>
				</g>
			</g>
		</g>
		<g>
			<g>
				<g>
					<path class="st0" d="M38.9,79.4c-4.2-0.3-6.6-4.8-4-8.3c1-1.4,2.6-2.3,4.3-2.7c1.7-0.3,4-0.2,5.1,1.2c0.2,0.3,0.6-0.1,0.4-0.4
						c-1.2-1.5-3.6-1.6-5.4-1.3c-2.1,0.3-4,1.5-5.2,3.3c-2.5,3.9,0.3,8.4,4.7,8.8C39.3,80,39.3,79.4,38.9,79.4L38.9,79.4z"/>
				</g>
			</g>
		</g>
		<g>
			<g>
				<g>
					<path class="st0" d="M83.9,68.3c2.9-1.5,7.5-2.3,9.5,0.9c2,3.2,0.9,8.2-3.2,8.9c-0.3,0.1-0.2,0.6,0.2,0.5
						c4.3-0.7,5.7-6,3.7-9.5c-2.1-3.7-7.2-3-10.4-1.3C83.3,68,83.6,68.5,83.9,68.3L83.9,68.3z"/>
				</g>
			</g>
		</g>
		<g>
			<g>
				<g>
					<path class="st0" d="M61,84.1c0.1,0,0.2,0,0.2,0c0-0.1,0-0.2-0.1-0.3c-0.2,0.1-0.5,0.1-0.8,0.2c-0.4,0.2-0.9,0.6-1.2,0.8
						c-0.7,0.6-1.4,1.3-1.7,2.1c-0.7,2,1.8,2.9,3.4,2.8c1.3-0.1,2.5-0.7,3.8-0.8c1.3-0.2,2.4,0.3,3.7,0.6c1.7,0.4,3.3-0.5,3-2.5
						c-0.3-2-2.8-3.1-4.5-3.7c-0.2-0.1-0.2,0.2-0.1,0.3c1.7,0.6,4.9,2,4.3,4.3c-0.8,2.7-4.1,0.6-6,0.6c-1.1,0-2.1,0.5-3.2,0.7
						c-1.3,0.3-3.8,0.4-4.3-1.3c-0.3-1.1,0.8-2.1,1.5-2.8c0.4-0.4,0.9-0.8,1.4-1c0.2-0.1,0.5-0.1,0.7-0.2c0.1-0.1,0.1-0.3-0.1-0.3
						c-0.1,0-0.2,0-0.3,0C60.8,83.9,60.9,84.1,61,84.1L61,84.1z"/>
				</g>
			</g>
		</g>
		<g>
			<g>
				<g>
					<path class="st0" d="M67.7,89.4c0.4,1.2,0.6,2.5,0.3,3.7c-0.2,0.9-1.1,1.6-2.1,1.3c-0.7-0.2-0.9-0.8-1.2-1.4
						c-0.1-0.2-0.3,0-0.2,0.1c0.3,0.6,0.5,1.3,1.1,1.5c0.6,0.2,1.3,0,1.8-0.3c1.5-1,1-3.7,0.5-5.1C67.9,89.2,67.6,89.3,67.7,89.4
						L67.7,89.4z"/>
				</g>
			</g>
		</g>
		<g>
			<g>
				<g>
					<path class="st0" d="M91.4,92.4c0.5-0.2,1.3,0,1.9-0.1c0.8-0.1,1.7-0.5,2.4-0.9c1.1-0.8,1.9-2.1,1.7-3.5
						c-0.1-1.1-0.9-1.7-2-1.6c-1.7,0.1-2.9,1.2-4.1,2.3c-0.1,0.1,0.1,0.3,0.2,0.2c1-1,2-1.9,3.4-2.2c2-0.4,2.6,1.5,1.9,3
						c-0.6,1.3-2,2.1-3.5,2.4c-0.7,0.1-1.5-0.2-2.2,0.1C91.1,92.3,91.2,92.5,91.4,92.4L91.4,92.4z"/>
				</g>
			</g>
		</g>
		<g>
			<g>
				<g>
					<path class="st0" d="M94.3,89.1c1.1-0.3,2.3-1.3,1.7-2.6c-0.1-0.2-0.3,0-0.2,0.1c0.6,1.1-0.6,1.9-1.5,2.2
						C94.1,88.9,94.2,89.2,94.3,89.1L94.3,89.1z"/>
				</g>
			</g>
		</g>
		<g>
			<path class="st0" d="M74.8,84c-4.6,0-8.4-3.8-8.4-8.4s3.8-8.4,8.4-8.4c4.6,0,8.4,3.8,8.4,8.4S79.4,84,74.8,84z M74.8,67.4
				c-4.5,0-8.1,3.6-8.1,8.1s3.6,8.1,8.1,8.1c4.5,0,8.1-3.6,8.1-8.1S79.2,67.4,74.8,67.4z"/>
		</g>
		<g>
			<path class="st0" d="M53.9,84.8c-4.6,0-8.4-3.8-8.4-8.4s3.8-8.4,8.4-8.4c2.3,0,4.4,0.9,6,2.5c1.6,1.6,2.5,3.7,2.4,5.9
				C62.3,81,58.5,84.8,53.9,84.8z M53.9,68.3c-4.5,0-8.1,3.6-8.1,8.1s3.6,8.1,8.1,8.1s8.1-3.6,8.1-8.1c0-2.2-0.8-4.2-2.3-5.7
				C58.1,69.2,56.1,68.3,53.9,68.3z"/>
		</g>
		<g>
			<path class="st0" d="M90.6,72.3c0-1-0.8-1.7-1.7-1.7s-1.7,0.8-1.7,1.7c0,1,0.8,1.7,1.7,1.7S90.6,73.2,90.6,72.3z"/>
		</g>
		<g>
			<circle class="st0" cx="39.7" cy="73.8" r="1.7"/>
		</g>
		<g>
			<path class="st0" d="M68.1,83.2c0-1.1-1.7-2-3.7-2c-2,0-3.7,0.9-3.7,2c0,1.1,1.7,2,3.7,2C66.4,85.2,68.1,84.3,68.1,83.2z"/>
		</g>
		<g>
			<path class="st0" d="M72,75.6c0,1.5,1.2,2.7,2.7,2.7c1.5,0,2.7-1.2,2.7-2.7c0-1.5-1.2-2.7-2.7-2.7C73.3,72.9,72,74.1,72,75.6z
				 M76.5,74.5c0,0.4-0.3,0.8-0.8,0.8c-0.4,0-0.8-0.3-0.8-0.8c0-0.4,0.3-0.8,0.8-0.8C76.1,73.7,76.5,74.1,76.5,74.5z"/>
		</g>
		<g>
			<path class="st0" d="M51.5,76.4c0,1.5,1.2,2.7,2.7,2.7c1.5,0,2.7-1.2,2.7-2.7c0-1.5-1.2-2.7-2.7-2.7
				C52.7,73.7,51.5,74.9,51.5,76.4z M55.9,75.3c0,0.4-0.3,0.8-0.8,0.8s-0.8-0.3-0.8-0.8s0.3-0.8,0.8-0.8
				C55.6,74.6,55.9,74.9,55.9,75.3z"/>
		</g>
		<g>
			<g>
				<g>
					<path class="st0" d="M64.6,88.9c0.2,1.1,0.2,2.4,0,3.5c-0.1,0.7-0.3,1.7-1,2.1c-0.6,0.4-1.5,0.2-1.9-0.4
						c-0.9-1.1-0.7-3.2-0.3-4.5c0-0.2-0.2-0.2-0.3-0.1c-0.4,1.5-0.8,4.6,1.1,5.3c3.1,1.1,2.8-4.4,2.5-6
						C64.8,88.6,64.6,88.7,64.6,88.9L64.6,88.9z"/>
				</g>
			</g>
		</g>
		<g>
			<g>
				<g>
					<path class="st0" d="M33.4,111.1c-1.7-0.9,0-2.5,1-3.2c1.2-0.8,2.7-1.4,4.2-1.1c0.2,0,0.2-0.2,0.1-0.3
						c-1.9-0.3-3.9,0.5-5.2,1.8c-1,0.9-1.5,2.2-0.1,3C33.4,111.5,33.6,111.2,33.4,111.1L33.4,111.1z"/>
				</g>
			</g>
		</g>
		<g>
			<g>
				<g>
					<path class="st0" d="M34.7,110c-0.5,0.3-1.3,0.8-1.3,1.4c0,0.6,0.6,1,1.2,1.1c1.6,0.3,3.3-1.5,4.2-2.6c0.1-0.1-0.1-0.3-0.2-0.1
						c-0.7,0.9-1.6,1.8-2.6,2.2c-0.6,0.3-1.7,0.5-2.2-0.2c-0.4-0.7,0.6-1.3,1.1-1.5C35,110.2,34.9,109.9,34.7,110L34.7,110z"/>
				</g>
			</g>
		</g>
		<g>
			<g>
				<g>
					<path class="st0" d="M86.8,71.9c3.9,5,3.9,11.6,4.2,17.6c0.3,6.7,0.1,13.5,0.4,20.2c0,0.3,0.6,0.3,0.5,0
						c-0.3-7.2-0.2-14.3-0.5-21.5c-0.2-5.8-0.5-12-4.3-16.7C86.9,71.3,86.6,71.7,86.8,71.9L86.8,71.9z"/>
				</g>
			</g>
		</g>
		<g>
			<g>
				<g>
					<path class="st0" d="M103,104.6c-0.2-2.9-1.3-5.7-3.4-7.8c-0.1,0.1-0.1,0.2-0.2,0.2c2.5,1.5,2.9,4.8,5,6.8
						c0.1,0.1,0.2,0,0.2-0.1c-0.1-1.2,0.2-2.2,0.9-3.2c-0.1,0-0.2,0-0.3-0.1c0,0.9,0,1.8,0,2.7c0,0.1,0.1,0.2,0.2,0.1
						c0.4-0.2,0.7-0.3,1-0.7c-0.1,0-0.2-0.1-0.2-0.1c-0.1,0.4-0.2,0.7-0.3,1.1c0,0.1,0.1,0.2,0.2,0.2c0.7-0.3,1.2-0.6,1.8-1
						c-0.1-0.1-0.1-0.1-0.2-0.2c-0.3,0.5-0.5,1.1-0.7,1.7c0,0.1,0,0.2,0.1,0.2c1.1,0.3,0.3,1.4,0,1.8c-0.1,0.1,0,0.2,0.1,0.2
						c2.2,0.3,4.4,0.4,6.6,0.4c0.2,0,0.2-0.3,0-0.3c-1.2,0-2.3,0-3.5-0.1c-0.5,0-1.1-0.1-1.7-0.1c-0.2,0-0.6,0-0.8-0.1
						c-0.4-0.2-0.3,0.1-0.2-0.4c0.1-0.4,0.3-0.7,0.1-1.2c-0.1-0.2-0.3-0.3-0.4-0.4c-0.2-0.4,0.3-1.2,0.5-1.5c0-0.1-0.1-0.3-0.2-0.2
						c-0.3,0.2-0.6,0.5-1,0.6c-0.7,0.3-0.4-0.2-0.2-0.6c0-0.1-0.1-0.2-0.2-0.1c-0.7,0.7-0.7,0.2-0.7-0.4c0-0.5,0-1,0-1.5
						c0-0.2-0.2-0.2-0.3-0.1c-0.7,1-1.1,2.1-1,3.3c0.1,0,0.2-0.1,0.2-0.1c-2.1-2-2.5-5.3-5-6.8c-0.1-0.1-0.3,0.1-0.2,0.2
						c2,2,3.2,4.7,3.3,7.6C102.7,104.8,103,104.8,103,104.6L103,104.6z"/>
				</g>
			</g>
		</g>
		<g>
			<g>
				<g>
					<path class="st0" d="M28.2,104.8c0.1-1.9,0.3-3.8,0.4-5.8c0-0.1-0.2-0.2-0.3-0.1c-1.2,2-1.7,4.3-2.1,6.7c0.1,0,0.2,0,0.3,0
						c-0.2-0.9-0.3-1.8-0.5-2.7c0-0.2-0.2-0.1-0.3,0c-0.3,0.8-0.5,1.5-0.5,2.3c0.1,0,0.2,0,0.3-0.1c-0.2-0.3-0.6-1.7-1.2-1.5
						c-0.6,0.1-0.3,1.2-0.3,1.5c0.1,0.4,0.3,0.8,0.1,1.1c-0.1,0.2-0.4,0.3-0.4,0.7c-0.2,0.8,0.5,1.3,1.1,1.8c0-0.1,0-0.2,0.1-0.3
						c-1.2-0.1-2.5-0.2-3.7-0.3c-0.2,0-0.2,0.2-0.1,0.3c0.6,0.4,1.2,0.8,1.8,1.2c0-0.1,0-0.2,0-0.2c-3,0.4-5.9,0.9-8.9,1.3
						c-0.2,0-0.1,0.3,0.1,0.3c3-0.4,5.9-0.9,8.9-1.3c0.1,0,0.1-0.2,0-0.2c-0.6-0.4-1.2-0.8-1.8-1.2c0,0.1,0,0.2-0.1,0.3
						c1.2,0.1,2.5,0.2,3.7,0.3c0.2,0,0.2-0.2,0.1-0.3c-0.3-0.2-2-1.6-0.4-2c0.1,0,0.1-0.1,0.1-0.2c-0.2-0.4-0.5-1.3-0.4-1.7
						c0.4-1.1,0.9,0.4,1,0.7c0.1,0.1,0.2,0.1,0.3-0.1c0.1-0.8,0.2-1.5,0.5-2.3c-0.1,0-0.2,0-0.3,0c0.2,0.9,0.3,1.8,0.5,2.7
						c0,0.1,0.2,0.1,0.3,0c0.4-2.3,0.8-4.6,2-6.6c-0.1,0-0.2,0-0.3-0.1c-0.1,1.9-0.3,3.8-0.4,5.8C27.9,105,28.2,105,28.2,104.8
						L28.2,104.8z"/>
				</g>
			</g>
		</g>
		<g>
			<g>
				<g>
					<path class="st0" d="M44.8,114.7c-2.6-0.8-5.3-0.5-7.7,0.8c-0.1,0-0.1,0.2,0,0.2c1.1,0.6,2.3,0.9,3.6,1.1s2.9,0.5,4.1,0.2
						c0.6-0.1,1.4-0.6,1.3-1.3c0-0.6-0.6-1-1.2-0.8c-0.2,0-0.1,0.3,0.1,0.3c0.1,0.5,0.2,1,0.3,1.5c-0.3,0.2-0.7,0.3-1.1,0.3
						c-0.3,0-0.6,0-0.9,0c-0.6,0-1.1-0.1-1.7-0.1c-0.7-0.1-1.3-0.2-2-0.3c-0.2,0-2-0.5-2-0.7c0-0.6,2.8-1.1,3.3-1.1
						c1.3-0.2,2.6,0,3.8,0.4C44.9,115.1,44.9,114.8,44.8,114.7L44.8,114.7z"/>
				</g>
			</g>
		</g>
		<g>
			<g>
				<g>
					<path class="st0" d="M46.4,118.1c-0.7-0.4-1.5-0.3-2.1,0.2c-0.1,0.1,0,0.2,0,0.2c0.8,0.5,1.8,0.5,2.6,0.1c0.1,0,0.1-0.1,0-0.2
						c-0.2-0.3-0.4-0.5-0.7-0.6c-0.2,0-0.2,0.2-0.1,0.3c0.3,0.1,0.5,0.2,0.6,0.5c0-0.1,0-0.1,0-0.2c-0.7,0.4-1.6,0.4-2.3-0.1
						c0,0.1,0,0.2,0,0.2c0.5-0.5,1.2-0.5,1.8-0.2C46.4,118.5,46.6,118.2,46.4,118.1L46.4,118.1z"/>
				</g>
			</g>
		</g>
		<g>
			<g>
				<g>
					<path class="st0" d="M67.8,119.8c-0.6-0.7-1.2-1.5-1.8-2.2c-0.1,0.1-0.1,0.1-0.2,0.2c0.7,0.6,1.4,1.2,2.1,1.7
						c0.1,0.1,0.2,0,0.2-0.1c0.2-0.5,0.3-1,0.5-1.4c-0.1,0-0.2,0-0.3,0c0.3,0.8,1.2,1,1.8,0.5c-0.1,0-0.2-0.1-0.2-0.1
						c0,0.8,0.7,1,1.4,1.1c0.3,0,0.1-0.1,0.4,0c0.1,0,0.3,0.3,0.4,0.3c0.6,0.3,1.3,0.2,1.9,0.2c4,0.2,7.9,0,11.9-0.6
						c0.2,0,0.1-0.3-0.1-0.3c-2.3,0.3-4.7,0.5-7,0.6c-1.1,0-2.2,0-3.3,0c-0.9,0-3.2,0.3-3.7-0.7c0-0.1-0.1-0.1-0.2,0
						c-0.7,0.4-1.1,0.2-1.4-0.6c0-0.1-0.1-0.2-0.2-0.1c-0.4,0.4-0.9,0.2-1.3-0.4c0-0.1-0.2-0.1-0.3,0c-0.1,0.2-0.1,0.5-0.3,0.7
						c-0.2,0.4-0.2,0.5-0.7,0.2c-0.5-0.3-1-0.8-1.5-1.2c-0.1-0.1-0.3,0.1-0.2,0.2c0.6,0.7,1.2,1.5,1.8,2.2
						C67.7,120.1,67.9,119.9,67.8,119.8L67.8,119.8z"/>
				</g>
			</g>
		</g>
		<g>
			<g>
				<g>
					<path class="st0" d="M62.9,118.4c-0.3,0.8-0.6,1.5-1,2.2c0.1,0,0.2,0,0.2,0c-0.1-0.5-0.3-0.9-0.5-1.4c0-0.1-0.2-0.1-0.2,0
						c-0.3,0.4-0.5,0.8-0.3,1.3c0.1,0,0.2-0.1,0.2-0.1c-0.2-0.2-0.5-0.4-0.7-0.5c-0.1,0-0.2,0-0.2,0.1c-0.3,1-2.1,0.7-3,0.7
						c-1.3,0-2.6,0-3.9,0c-0.2,0-0.2,0.3,0,0.3c2.3,0.1,4.6,0,6.9-0.2c0.1,0,0.1-0.1,0.1-0.1c0.1-0.5,0.3-0.5,0.6,0
						c0.1,0.1,0.3,0,0.2-0.1c0.1-0.9,0.2-1,0.4-0.5c0.1,0.2,0.2,0.4,0.2,0.7c0,0.1,0.2,0.1,0.2,0c0.4-0.7,0.8-1.4,1-2.2
						C63.3,118.3,63,118.2,62.9,118.4L62.9,118.4z"/>
				</g>
			</g>
		</g>
		<g>
			<g>
				<g>
					<path class="st0" d="M64.2,120.7c0.2-1.3,0.1-2.7-0.2-4c0-0.2-0.3-0.1-0.3,0.1c0.3,1.3,0.3,2.6,0.2,3.9
						C63.9,120.8,64.2,120.8,64.2,120.7L64.2,120.7z"/>
				</g>
			</g>
		</g>
		<g>
			<g>
				<g>
					<path class="st0" d="M64.4,121c0.1-0.7,0.2-1.5,0.4-2.2c0-0.2-0.2-0.2-0.3-0.1c-0.1,0.7-0.2,1.5-0.4,2.2
						C64.1,121.1,64.3,121.2,64.4,121L64.4,121z"/>
				</g>
			</g>
		</g>
		<g>
			<g>
				<g>
					<path class="st0" d="M91.8,110.1c2.2-0.4,4.3-0.9,6.4-1.7c0.2-0.1,0.1-0.3-0.1-0.3c-2.1,0.7-4.2,1.3-6.4,1.7
						C91.6,109.8,91.6,110.1,91.8,110.1L91.8,110.1z"/>
				</g>
			</g>
		</g>
		<g>
			<g>
				<g>
					<path class="st0" d="M91.7,110.3c2.2-0.4,4.3-1.1,6.4-1.9c0.2-0.1,0-0.3-0.1-0.2c-2,0.9-4.2,1.5-6.3,1.9
						C91.4,110.1,91.5,110.3,91.7,110.3L91.7,110.3z"/>
				</g>
			</g>
		</g>
		<g>
			<g>
				<g>
					<path class="st0" d="M92,110c1.2-0.5,2.4-0.8,3.6-1.1c0-0.1-0.1-0.2-0.1-0.2c-0.9,0.4-1.8,0.6-2.7,0.8c-0.2,0-0.1,0.3,0.1,0.3
						c1-0.2,2-0.4,3-0.7c0.2,0,0.1-0.3-0.1-0.3c-0.7,0.2-1.4,0.3-2.1,0.6c-0.2,0.1-0.1,0.3,0.1,0.3c0.8-0.1,1.6-0.4,2.4-0.7
						c0.2-0.1,0.1-0.3-0.1-0.3c-0.8,0.3-1.6,0.5-2.4,0.7c0,0.1,0,0.2,0.1,0.3c0.7-0.2,1.3-0.4,2.1-0.6c0-0.1,0-0.2-0.1-0.3
						c-1,0.3-2,0.5-3,0.7c0,0.1,0,0.2,0.1,0.3c0.9-0.2,1.9-0.4,2.8-0.8c0.2-0.1,0-0.3-0.1-0.2c-1.2,0.3-2.4,0.7-3.6,1.1
						C91.8,109.8,91.9,110,92,110L92,110z"/>
				</g>
			</g>
		</g>
		<g>
			<g>
				<g>
					<path class="st0" d="M102.6,104.3C102.6,104.4,102.5,104.4,102.6,104.3c0,0.1,0,0.2,0,0.2c0,0,0,0,0,0c0,0,0.2,0.1,0.2,0
						c0,0,0,0,0,0c0,0,0.1-0.1,0-0.2c0,0,0,0,0,0C102.8,104.2,102.6,104.2,102.6,104.3c0,0.2-0.1,0.3-0.2,0.4
						c0.1,0.1,0.2,0.1,0.2,0.2c0,0,0.1-0.1,0.1-0.2c-0.1,0-0.2-0.1-0.2-0.1c0,0.1-0.1,0.1-0.1,0.2c0.1,0,0.1,0.1,0.2,0.2
						c0-0.1,0.1-0.2,0.2-0.3c-0.1,0-0.2-0.1-0.2-0.1c-0.1,0.3-0.2,0.5-0.4,0.7c0.1,0.1,0.2,0.1,0.2,0.2c0.2-0.3,0.4-0.6,0.5-0.9
						c-0.1,0-0.2,0-0.3-0.1c0,0.5-0.3,0.9-0.7,1.2c0.1,0.1,0.1,0.1,0.2,0.2c0.4-0.4,0.7-0.9,0.8-1.4c-0.1,0-0.2,0-0.3,0
						c-0.2,1.4-1.5,2-2.6,2.6c-0.2,0.1,0,0.3,0.1,0.2c1.2-0.6,2.6-1.3,2.7-2.8c0-0.2-0.2-0.2-0.3,0c-0.1,0.5-0.4,0.9-0.7,1.3
						c-0.1,0.1,0.1,0.3,0.2,0.2c0.5-0.4,0.7-0.8,0.8-1.4c0-0.1-0.2-0.2-0.3-0.1c-0.2,0.3-0.4,0.6-0.5,0.9c-0.1,0.1,0.1,0.3,0.2,0.2
						c0.2-0.2,0.4-0.5,0.5-0.8c0-0.2-0.2-0.2-0.2-0.1c-0.1,0.1-0.1,0.3-0.2,0.4c0,0.1,0.1,0.2,0.2,0.2c0.2-0.1,0.2-0.2,0.2-0.4
						c0-0.1-0.2-0.2-0.2-0.1c-0.1,0.1-0.1,0.1-0.2,0.2c-0.1,0.1,0.1,0.3,0.2,0.2c0.2-0.2,0.2-0.3,0.2-0.5c-0.1,0-0.2,0-0.3,0.1
						C102.6,104.5,102.6,104.4,102.6,104.3c0.1,0.1,0.2,0.1,0.2,0.1c0,0,0,0.1,0,0.1C102.9,104.3,102.6,104.2,102.6,104.3
						L102.6,104.3z"/>
				</g>
			</g>
		</g>
		<g>
			<g>
				<g>
					<path class="st0" d="M28.1,104.4c-0.1,0.4,0,0.7,0.2,1c0.1,0.1,0.3,0,0.2-0.1c-0.1-0.2-0.2-0.5-0.3-0.7c0-0.1-0.2-0.2-0.3,0
						c0,0.4,0,0.6,0.3,0.9c0.1,0.1,0.3,0,0.2-0.2c-0.1-0.2-0.1-0.4-0.2-0.6c0-0.2-0.2-0.2-0.3,0c-0.2,0.8,0.7,1.5,1.3,2
						c0.9,0.7,2,1,3.1,1.1c0.2,0,0.2-0.3,0-0.3c-0.8-0.1-1.6-0.3-2.3-0.7c-0.6-0.3-2-1.2-1.8-2c-0.1,0-0.2,0-0.3,0
						c0,0.3,0.1,0.5,0.2,0.8c0.1-0.1,0.2-0.1,0.2-0.2c-0.1-0.2-0.1-0.4-0.2-0.6c-0.1,0-0.2,0-0.3,0c0.1,0.2,0.2,0.5,0.3,0.7
						c0.1,0,0.2-0.1,0.2-0.1c0-0.3-0.1-0.5-0.2-0.8C28.4,104.3,28.2,104.3,28.1,104.4L28.1,104.4z"/>
				</g>
			</g>
		</g>
		<g>
			<g>
				<g>
					<path class="st0" d="M28.2,104.4c-0.1,0.2-0.1,0.4-0.1,0.6c0,0.2,0.3,0.2,0.3,0c0-0.1,0-0.3,0-0.4c0-0.2-0.2-0.2-0.3,0
						s-0.1,0.3,0,0.4c0,0.2,0.3,0.2,0.3,0c0-0.2,0-0.2-0.1-0.3c-0.1-0.2-0.3,0-0.2,0.1c0,0.1,0,0.2,0,0.3c0,0.2,0.3,0.1,0.3,0
						c0-0.2,0-0.3-0.1-0.4c-0.1-0.1-0.2-0.1-0.2,0c-0.1,0.5,0.2,0.8,0.6,1.1c0.4,0.4,0.9,0.7,1.4,1c0.2,0.1,0.3-0.2,0.1-0.2
						c-0.3-0.2-0.7-0.4-1-0.6s-1-0.7-0.9-1.2c-0.1,0-0.2,0-0.2,0c0,0.1,0,0.2,0,0.3c0.1,0,0.2,0,0.3,0c0-0.1,0-0.2,0-0.3
						c-0.1,0-0.2,0.1-0.2,0.1c0,0.1,0,0.1,0,0.2c0.1,0,0.2,0,0.3,0c0-0.1,0-0.2,0-0.3c-0.1,0-0.2,0-0.3,0c0,0.1,0,0.3,0,0.4
						c0.1,0,0.2,0,0.3,0c0-0.2,0-0.4,0.1-0.6C28.5,104.3,28.3,104.3,28.2,104.4L28.2,104.4z"/>
				</g>
			</g>
		</g>
		<g>
			<path class="st0" d="M93.8,97.5c-0.1,0-0.1,0-0.2,0l-0.3-0.1c-0.7-0.1-1.2-0.8-1.1-1.5l5.7-33.2c0.1-0.7,0.8-1.2,1.5-1.1l0.3,0
				c0.7,0.1,1.2,0.8,1.1,1.5l0,0l-5.7,33.2C95,97,94.5,97.5,93.8,97.5z"/>
		</g>
		<g>
			<path class="st0" d="M125.5,65.9c-0.1,0-0.3,0-0.4,0l-50.4-7.9c-1.5-0.2-2.6-1.7-2.4-3.2l2.2-13.9c0.1-0.7,0.5-1.4,1.1-1.8
				c0.6-0.4,1.4-0.6,2.1-0.5l50.4,7.9c1.5,0.3,2.6,1.7,2.4,3.2l-2.2,13.9c-0.1,0.7-0.5,1.4-1.1,1.8
				C126.7,65.7,126.1,65.9,125.5,65.9z M77.3,38.9c-0.5,0-1,0.2-1.4,0.5c-0.5,0.4-0.9,0.9-1,1.6l-2.2,13.9c-0.2,1.3,0.7,2.5,2,2.7
				l50.4,7.9c0.6,0.1,1.3-0.1,1.8-0.4c0.5-0.4,0.9-0.9,1-1.6l2.2-13.9c0.2-1.3-0.7-2.5-2-2.7l-50.4-7.9
				C77.5,38.9,77.4,38.9,77.3,38.9z"/>
		</g>
		<g>
			<path class="st0" d="M124,64c-0.2,0-0.3,0-0.5,0l-46.4-7.3c-1.8-0.3-3.1-2-2.8-3.8l1.4-9c0.3-1.8,2-3.1,3.8-2.8l46.4,7.3
				c1.8,0.3,3.1,2,2.8,3.8l-1.4,9C127.1,62.8,125.7,64,124,64z M79.1,42.5c-0.4,0-0.8,0.1-1.1,0.4c-0.4,0.3-0.7,0.7-0.7,1.2l-1.4,9
				c-0.1,0.5,0,1,0.3,1.4c0.3,0.4,0.7,0.7,1.2,0.7l46.4,7.3c0.5,0.1,1,0,1.4-0.3c0.4-0.3,0.7-0.7,0.7-1.2l1.4-9c0.2-1-0.5-2-1.5-2.1
				l0,0l-46.4-7.3C79.3,42.5,79.2,42.5,79.1,42.5z"/>
		</g>
		<g class="st1">
			<path d="M82.6,46.7l-0.5,1.8l-0.5-0.1l0.2-1.9L82.6,46.7z M83.7,46.9l-0.5,1.8l-0.5-0.1l0.2-1.9L83.7,46.9z"/>
			<path d="M83.9,51.5l0.7-4.5l0.9,0.2l-0.3,1.7l1.7,0.3l0.3-1.7l0.9,0.2l-0.7,4.5L86.6,52l0.3-2l-1.7-0.3l-0.3,2L83.9,51.5z"/>
			<path d="M91.1,49.3c0.2,0.1,0.4,0.3,0.5,0.6c0.1,0.2,0.2,0.5,0.2,0.7c0,0.2,0,0.4-0.1,0.7l-2.4-0.4c0,0.3,0,0.6,0.2,0.8
				c0.1,0.1,0.3,0.2,0.5,0.2c0.2,0,0.4,0,0.5-0.1c0.1,0,0.1-0.1,0.2-0.2l0.9,0.1c-0.1,0.2-0.2,0.4-0.4,0.5c-0.4,0.3-0.8,0.4-1.3,0.3
				c-0.4-0.1-0.8-0.3-1.1-0.6c-0.3-0.3-0.4-0.8-0.3-1.4c0.1-0.6,0.3-1,0.7-1.2c0.4-0.3,0.8-0.3,1.3-0.3
				C90.6,49.1,90.9,49.2,91.1,49.3z M89.7,49.9c-0.1,0.1-0.2,0.3-0.3,0.5l1.5,0.2c0-0.2,0-0.4-0.1-0.6c-0.1-0.1-0.3-0.2-0.5-0.3
				C90,49.7,89.8,49.8,89.7,49.9z"/>
			<path d="M92.7,53l-0.9-0.1l0.7-4.5l0.9,0.1L92.7,53z"/>
			<path d="M94.5,53.3l-0.9-0.1l0.7-4.5l0.9,0.1L94.5,53.3z"/>
			<path d="M98.2,53.4c-0.3,0.3-0.8,0.4-1.4,0.3c-0.6-0.1-1-0.3-1.2-0.7c-0.2-0.4-0.3-0.8-0.2-1.3c0.1-0.5,0.3-0.9,0.6-1.2
				c0.3-0.3,0.8-0.4,1.4-0.3c0.6,0.1,1,0.3,1.2,0.7c0.2,0.4,0.3,0.8,0.2,1.3C98.7,52.8,98.5,53.1,98.2,53.4z M97.5,52.9
				c0.2-0.2,0.3-0.4,0.3-0.7c0.1-0.3,0-0.6-0.1-0.8c-0.1-0.2-0.3-0.3-0.5-0.4c-0.3,0-0.5,0-0.6,0.2c-0.2,0.2-0.3,0.4-0.3,0.7
				c-0.1,0.3,0,0.6,0.1,0.8c0.1,0.2,0.3,0.3,0.5,0.4C97.2,53.1,97.4,53,97.5,52.9z"/>
			<path d="M102.3,49.9l0.2,2.7l0,0.7l0.2-0.7l0.9-2.5l1,0.2l0.1,2.7l0,0.7l0.3-0.7l1-2.5l1,0.2l-2,4.3l-0.9-0.1l-0.1-2.7l0-0.9
				l-0.3,0.8l-1,2.5l-0.9-0.1l-0.5-4.7L102.3,49.9z"/>
			<path d="M109.5,55.3c-0.3,0.3-0.8,0.4-1.4,0.3c-0.6-0.1-1-0.3-1.2-0.7c-0.2-0.4-0.3-0.8-0.2-1.3c0.1-0.5,0.3-0.9,0.6-1.2
				c0.3-0.3,0.8-0.4,1.4-0.3c0.6,0.1,1,0.3,1.2,0.7c0.2,0.4,0.3,0.8,0.2,1.3C110,54.6,109.8,55,109.5,55.3z M108.9,54.7
				c0.2-0.2,0.3-0.4,0.3-0.7c0.1-0.3,0-0.6-0.1-0.8c-0.1-0.2-0.3-0.3-0.5-0.4c-0.3,0-0.5,0-0.6,0.2c-0.2,0.2-0.3,0.4-0.3,0.7
				c-0.1,0.3,0,0.6,0.1,0.8c0.1,0.2,0.3,0.3,0.5,0.4C108.5,54.9,108.7,54.9,108.9,54.7z"/>
			<path d="M112.9,52.8C112.9,52.8,112.9,52.8,112.9,52.8l-0.1,0.9c-0.1,0-0.1,0-0.1,0s-0.1,0-0.1,0c-0.3-0.1-0.6,0-0.8,0.2
				c-0.1,0.1-0.2,0.3-0.2,0.6l-0.3,1.6l-0.9-0.1l0.6-3.3l0.8,0.1l-0.1,0.6c0.2-0.2,0.3-0.3,0.4-0.4
				C112.4,52.8,112.6,52.8,112.9,52.8C112.9,52.8,112.9,52.8,112.9,52.8z"/>
			<path d="M113.8,56.5l-0.9-0.1l0.7-4.5l0.9,0.1L113.8,56.5z"/>
			<path d="M116.9,53.6c0.1,0.1,0.2,0.3,0.3,0.4l0.3-1.6l0.9,0.1l-0.7,4.5l-0.8-0.1l0.1-0.5c-0.2,0.2-0.3,0.3-0.5,0.4
				c-0.2,0.1-0.4,0.1-0.6,0c-0.4-0.1-0.7-0.3-0.9-0.6c-0.2-0.4-0.3-0.8-0.2-1.3c0.1-0.6,0.3-1,0.6-1.3c0.3-0.3,0.7-0.4,1.1-0.3
				C116.6,53.4,116.8,53.5,116.9,53.6z M116.8,56c0.2-0.2,0.3-0.4,0.3-0.7c0.1-0.4,0-0.7-0.2-0.9c-0.1-0.1-0.2-0.2-0.4-0.2
				c-0.3,0-0.5,0-0.6,0.2c-0.2,0.2-0.2,0.4-0.3,0.7c-0.1,0.3,0,0.6,0.1,0.8c0.1,0.2,0.3,0.3,0.5,0.4C116.4,56.2,116.6,56.2,116.8,56
				z"/>
			<path d="M118.6,56.3l0.9,0.2l-0.2,0.9l-0.9-0.2L118.6,56.3z"/>
			<path d="M121.9,53.2l-0.5,1.8l-0.5-0.1L121,53L121.9,53.2z M123,53.4l-0.5,1.8l-0.5-0.1l0.2-1.9L123,53.4z"/>
		</g>
		<g>
			<g>
				<g>
					<path class="st0" d="M126.5,49.9c0.1,0.1,0.2,0.2,0.3,0.3c0.2,0.2,0.5,0.2,0.8,0c0.2-0.2,0.2-0.6,0-0.8c0,0-0.1-0.1-0.1-0.1
						c-0.3,0.3-0.5,0.5-0.8,0.8c0.1,0,0.1,0.1,0.2,0.2c0.2,0.2,0.5,0.2,0.8,0c0.2-0.2,0.2-0.5,0-0.8c0,0,0-0.1-0.1-0.1
						c-0.3,0.3-0.5,0.5-0.8,0.8c0.2,0.2,0.3,0.2,0.5,0.3c0.2,0.1,0.5-0.1,0.6-0.3c0.1-0.3,0-0.5-0.2-0.7c0,0.1,0.1,0.1,0.2,0.2
						c-0.2,0.2-0.3,0.5-0.5,0.7c0,0,0,0,0,0c-0.1,0-0.2,0-0.3-0.1c-0.1,0,0,0,0,0c0,0,0.1,0.1,0.1,0.1c0.3-0.3,0.5-0.5,0.8-0.8
						c0-0.1-0.1-0.1-0.2-0.2c-0.2-0.2-0.6,0-0.7,0.2c-0.2,0.3,0,0.6,0.2,0.7c0,0,0.1,0.1,0.1,0.1c0.2,0.1,0.5,0.1,0.7-0.1
						c0.2-0.2,0.2-0.5,0.1-0.7c0-0.1-0.1-0.2-0.2-0.2c-0.2-0.2-0.5-0.2-0.8,0c-0.2,0.2-0.2,0.6,0,0.8c0,0,0.1,0.1,0.1,0.1
						c0.2,0.2,0.5,0.2,0.7,0.1c0.2-0.1,0.3-0.4,0.2-0.6c-0.1-0.2-0.2-0.3-0.3-0.4c-0.2-0.1-0.5-0.1-0.7,0.1
						c-0.2,0.2-0.2,0.5-0.1,0.7c0.1,0.1,0.2,0.2,0.3,0.3c0.2,0.1,0.5,0.1,0.7-0.1c0.2-0.2,0.2-0.4,0.1-0.7c0-0.1-0.1-0.2-0.2-0.2
						c-0.2-0.2-0.5-0.2-0.7,0c-0.2,0.2-0.3,0.5-0.1,0.7c0,0.1,0.1,0.1,0.2,0.2c0.2,0.2,0.5,0.2,0.7,0s0.2-0.4,0.1-0.7
						c0,0,0-0.1,0-0.1c-0.2-0.2-0.5-0.3-0.7-0.2c-0.2,0.2-0.3,0.5-0.2,0.7c0,0.1,0.1,0.1,0.1,0.2c0.4,0.4,1.1,0,0.9-0.5
						c0-0.1-0.1-0.2-0.2-0.3c-0.3,0.3-0.5,0.5-0.8,0.8c0,0,0,0,0,0c0.4,0.5,1.2-0.1,0.8-0.7c0,0,0,0,0-0.1c-0.3-0.5-1.2-0.2-1,0.4
						c0,0.1,0.1,0.2,0.2,0.3c0.2,0.2,0.5,0.2,0.7,0.1c0.2-0.1,0.3-0.4,0.2-0.6v0c-0.1-0.5-1-0.5-1,0l0,0c0,0.3,0.1,0.6,0.4,0.7
						c0,0,0,0,0,0c0.3,0.1,0.6-0.1,0.7-0.4c0-0.2,0-0.4-0.2-0.6c-0.2-0.2-0.4-0.2-0.7-0.1l0,0c-0.2,0.1-0.3,0.3-0.3,0.5l0,0
						c0,0.4,0.5,0.7,0.8,0.5l0,0c0.2-0.2,0.4-0.5,0.2-0.7l0,0c-0.3,0.2-0.6,0.4-0.8,0.7c0,0,0.1,0.1,0.1,0.2
						c0.1,0.3,0.5,0.3,0.7,0.2c0.3-0.2,0.3-0.5,0.2-0.7c-0.1-0.1-0.2-0.2-0.2-0.4c-0.2-0.2-0.5-0.2-0.7,0c-0.2,0.2-0.3,0.5-0.1,0.7
						l0,0c0.1-0.2,0.1-0.5,0.2-0.7l0,0c0.3,0.2,0.5,0.3,0.8,0.5l0,0c-0.1,0.2-0.2,0.3-0.3,0.5l0,0c-0.2,0-0.4-0.1-0.7-0.1
						c0,0,0,0-0.1-0.1c0-0.1,0-0.3-0.1-0.4c0,0,0,0,0,0c0.2-0.1,0.5-0.3,0.7-0.4c0,0,0,0,0,0c0.1,0.2,0.3,0.5,0.4,0.7l0,0
						c-0.3,0-0.7,0-1,0v0c0.3-0.2,0.6-0.3,0.9-0.5l0,0c0,0.1,0.1,0.2,0.1,0.2v0c-0.3,0.1-0.7,0.3-1,0.4c0,0,0,0,0,0.1
						c0.3-0.2,0.6-0.4,0.8-0.7c0,0,0,0,0,0c-0.2-0.2-0.6-0.2-0.8,0c-0.2,0.2-0.2,0.5,0,0.8c0,0,0,0,0,0c0-0.1-0.1-0.2-0.1-0.2
						c0,0,0,0,0,0c0.3-0.2,0.6-0.3,0.9-0.5c0,0,0,0,0,0c-0.3,0.2-0.6,0.4-0.9,0.5c0,0,0,0.1,0,0.1c0.3-0.2,0.6-0.4,0.8-0.7
						c0,0,0,0,0,0c-0.3,0.2-0.6,0.4-0.8,0.7c0,0,0,0,0,0c0.2-0.2,0.5-0.5,0.7-0.7c0,0,0.1,0.1,0.1,0.1c-0.2,0.2-0.5,0.5-0.7,0.7
						c0,0,0,0,0,0c0-0.1-0.1-0.2-0.1-0.2c0,0,0,0,0,0c0.3-0.2,0.6-0.3,0.9-0.5c0,0-0.1-0.1-0.1-0.1c-0.3,0.3-0.5,0.5-0.8,0.8
						c0,0,0,0,0,0c0.2-0.2,0.5-0.5,0.7-0.7c0,0-0.1-0.1-0.1-0.1c-0.2,0.3-0.4,0.6-0.5,0.9c0,0,0,0,0,0c0.2,0.2,0.6,0.2,0.8,0
						c0.2-0.2,0.2-0.5,0-0.8c-0.2-0.2-0.4-0.4-0.7-0.4c-0.3,0-0.7,0.3-0.5,0.7c0.1,0.2,0.2,0.3,0.3,0.5c0.1-0.3,0.3-0.7,0.4-1
						c0,0,0,0,0,0c0,0,0,0,0,0c-0.2-0.2-0.5-0.2-0.8,0c-0.2,0.2-0.2,0.5,0,0.8c0,0,0,0.1,0.1,0.1c0.3-0.3,0.5-0.5,0.8-0.8
						c-0.1,0-0.1-0.1-0.2-0.2c-0.2-0.2-0.5-0.2-0.8,0c-0.2,0.2-0.2,0.6,0,0.8c0,0,0.1,0.1,0.1,0.1c0.3-0.3,0.5-0.5,0.8-0.8
						c-0.1-0.1-0.2-0.2-0.3-0.3c-0.2-0.2-0.6-0.2-0.8,0C126.3,49.3,126.3,49.7,126.5,49.9L126.5,49.9z"/>
				</g>
			</g>
		</g>
		<g>
			<g>
				<g>
					<path class="st0" d="M127.3,50.3C127.3,50.3,127.3,50.4,127.3,50.3c0.2,0.2,0.4,0.2,0.6,0.2c0.2,0,0.3-0.2,0.4-0.4l0,0
						c-0.1,0.1-0.3,0.3-0.4,0.4c0,0,0,0,0,0c-0.1,0-0.2,0-0.3,0C127.5,50.4,127.4,50.4,127.3,50.3c0.2,0.2,0.5,0.3,0.8,0.2
						c0.2-0.2,0.4-0.5,0.2-0.7c0-0.1-0.1-0.1-0.1-0.2c-0.2-0.2-0.5-0.4-0.7-0.2c-0.2,0.2-0.4,0.5-0.2,0.7
						C127.3,50.2,127.3,50.3,127.3,50.3c0.4-0.2,0.7-0.4,1-0.6c-0.1-0.2-0.3-0.3-0.5-0.3c-0.3,0-0.5,0.1-0.6,0.4
						c0.3-0.1,0.6-0.2,0.9-0.2c0,0,0,0,0,0c-0.1-0.1-0.2-0.2-0.4-0.2c-0.1,0-0.3,0.1-0.4,0.2C127.1,49.8,127,50.1,127.3,50.3
						L127.3,50.3z"/>
				</g>
			</g>
		</g>
		<g>
			<g>
				<g>
					<path class="st0" d="M126.9,49c-0.2-0.1-0.4-0.1-0.6-0.2c-0.2,0-0.5,0.2-0.5,0.4s0,0.5,0.2,0.6c0.1,0,0.2,0.1,0.3,0.1
						c0.3,0,0.5,0,0.6-0.3c0.1-0.2,0-0.6-0.2-0.7c-0.2-0.1-0.3-0.2-0.5-0.2c-0.3-0.1-0.5,0.1-0.6,0.3c-0.1,0.2,0,0.6,0.2,0.7
						c0.1,0,0.2,0.1,0.2,0.1c0-0.3,0.1-0.7,0.2-1.1c0,0-0.1,0-0.1,0c-0.2,0-0.5,0.2-0.5,0.4s0,0.5,0.2,0.6c0.1,0,0.1,0.1,0.2,0.1
						c0.3,0,0.6-0.1,0.7-0.4c0.1-0.3-0.1-0.6-0.4-0.7c-0.1,0-0.2,0-0.2-0.1c0,0.3,0.1,0.7,0.1,1h0c0.3-0.1,0.3-0.5,0.2-0.7
						c-0.2-0.3-0.5-0.3-0.7-0.2h0c-0.2,0.1-0.3,0.3-0.3,0.5c0,0.2,0.2,0.4,0.4,0.5c0.1,0,0.2,0,0.2,0.1c0.1-0.3,0.2-0.7,0.3-1
						c0,0,0,0,0,0c-0.1,0.3-0.2,0.7-0.3,1c0,0,0.1,0,0.1,0c0.3,0,0.5-0.2,0.5-0.5c0-0.3-0.1-0.5-0.4-0.6c-0.1,0,0,0,0,0
						c-0.1,0.3-0.3,0.7-0.4,1c0,0,0.1,0,0.1,0c-0.1,0-0.1,0,0,0c0,0,0.1,0,0.2,0.1c0.1-0.3,0.3-0.7,0.4-1c-0.1,0-0.1,0,0,0
						c-0.1,0.3-0.2,0.7-0.3,1c0.1,0,0,0,0,0c0,0,0.1,0,0,0c0.3,0.1,0.6,0.1,0.7-0.2C127.2,49.5,127.1,49.1,126.9,49L126.9,49z"/>
				</g>
			</g>
		</g>
		<g>
			<g>
				<g>
					<path class="st0" d="M98.7,62.3c0-0.2,0-0.3,0-0.4c0-0.2-0.3-0.1-0.3,0s0,0.3,0,0.4C98.5,62.3,98.6,62.3,98.7,62.3
						c0-0.1-0.1-0.2-0.1-0.3c-0.1,0-0.2,0-0.3,0.1c0,0,0,0.1,0,0.1c0,0.1,0.3,0.1,0.3,0c0-0.2,0-0.2-0.1-0.3
						c-0.1-0.2-0.3-0.1-0.3,0.1c0,0.1,0,0.1,0,0.2c0.1,0,0.2-0.1,0.2-0.1c-0.1-0.2-0.3-0.3-0.4-0.4c-0.1-0.1-0.2,0-0.2,0.1
						c0,0.2,0.1,0.5,0.1,0.7c0,0.2,0.3,0.1,0.3,0c0-0.2-0.1-0.4-0.1-0.6c-0.1,0-0.2,0-0.3,0c0,0.3,0.1,0.5,0.1,0.8
						c0.1,0,0.2,0,0.3,0c0-0.3-0.1-0.6-0.1-1c-0.1,0-0.2,0-0.3,0c0.1,0.5,0,0.9,0,1.4c0.1,0,0.2,0,0.3,0c0-0.5,0-1.1-0.3-1.5
						c-0.1-0.1-0.3,0-0.2,0.1c0.3,0.7,0.2,1.7,0.2,2.4c0,0.2,0.2,0.2,0.3,0c0.1-0.4,0.2-0.8,0.3-1.3c0-0.1,0-0.3,0-0.4
						c0-0.2,0-0.4,0.2-0.3c0.1,0.1,0.3-0.1,0.2-0.2c-0.1-0.1-0.1-0.1-0.2-0.2c-0.1,0-0.2,0.1-0.2,0.2C98.6,61.9,98.6,62.1,98.7,62.3
						c0,0.2,0.3,0,0.2-0.1c-0.1-0.2-0.2-0.3-0.2-0.5c0,0.1-0.1,0.1-0.2,0.2c0,0,0,0,0.1,0.1c0.1-0.1,0.1-0.1,0.2-0.2
						c-0.2-0.1-0.4-0.2-0.5,0c-0.1,0.2-0.1,0.7-0.1,1c-0.1,0.4-0.2,0.7-0.2,1.1c0.1,0,0.2,0,0.3,0c0-0.8,0.1-1.8-0.2-2.5
						c-0.1,0-0.2,0.1-0.2,0.1c0.3,0.4,0.3,0.9,0.2,1.4c0,0.2,0.2,0.2,0.3,0c0.1-0.5,0.1-1,0-1.4c0-0.2-0.3-0.2-0.3,0
						c0,0.3,0,0.7,0.1,1c0,0.2,0.3,0.1,0.3,0c0-0.3,0-0.6-0.1-0.8c0-0.2-0.3-0.1-0.3,0c0,0.2,0.1,0.4,0.1,0.6c0.1,0,0.2,0,0.3,0
						c0-0.2-0.1-0.5-0.1-0.7c-0.1,0-0.2,0.1-0.2,0.1c0.2,0.2,0.3,0.3,0.4,0.4c0.1,0.1,0.2,0,0.2-0.1c0-0.1,0-0.2-0.1-0.3
						c-0.1,0-0.2,0-0.3,0.1c0,0.1,0,0.2,0,0.3c0.1,0,0.2,0,0.3,0c0,0,0-0.1,0-0.1c-0.1-0.2-0.3-0.1-0.3,0.1c0,0.1,0.1,0.2,0.1,0.3
						C98.5,62.5,98.7,62.4,98.7,62.3c0-0.1,0-0.3,0-0.4c-0.1,0-0.2,0-0.3,0c0,0.1,0,0.2,0,0.3C98.4,62.4,98.7,62.4,98.7,62.3
						L98.7,62.3z"/>
				</g>
			</g>
		</g>
		<g>
			<g>
				<g>
					<path class="st0" d="M98.9,63.1c0.1,0.6,0.1,1.3,0.3,1.8c0.1,0.1,0.2,0,0.3-0.1c0,0,0,0,0-0.1c0-0.2-0.3-0.2-0.3,0
						c0,0,0,0,0,0.1c0.1,0,0.2,0,0.3-0.1c-0.1-0.3-0.2-0.6-0.2-0.9c0-0.3-0.1-0.6-0.1-0.9C99.2,62.8,98.9,62.9,98.9,63.1L98.9,63.1z
						"/>
				</g>
			</g>
		</g>
		<g>
			<g>
				<g>
					<path class="st0" d="M100.5,61.9L100.5,61.9c0,0,0,0.1,0,0.2c0,0,0,0,0,0c-0.1,0-0.1,0-0.2-0.1c0,0.1,0,0.1,0,0.2
						c0,0.1,0.1,0.2,0.2,0.1c0.1-0.1,0.2-0.2,0.2-0.2C100.6,62,100.5,61.9,100.5,61.9c-0.1,0.2-0.1,0.3-0.1,0.5
						c0,0.1,0.1,0.2,0.2,0.1c0.1-0.1,0.2-0.2,0.2-0.3c-0.1,0-0.2-0.1-0.2-0.1c-0.1,0.2-0.1,0.4-0.2,0.6c0,0.2,0.2,0.2,0.2,0.1
						s0.2-0.2,0.2-0.4c-0.1,0-0.2-0.1-0.2-0.1c-0.1,0.3-0.2,0.6-0.2,0.9c0,0.1,0.2,0.3,0.2,0.1c0.1-0.2,0.2-0.4,0.3-0.6
						c-0.1,0-0.2-0.1-0.2-0.1c-0.1,0.3-0.2,0.7-0.3,1c0,0.2,0.2,0.2,0.3,0.1c0.2-0.5,0.3-1.1,0.8-1.4c-0.1-0.1-0.1-0.2-0.2-0.2
						c-0.5,0.4-0.7,1-0.8,1.6c0.1,0,0.2,0,0.3,0.1c0.1-0.6,0.3-1.1,0.6-1.6c0.1-0.1-0.1-0.3-0.2-0.2c-0.1,0.1-0.3,0.3-0.4,0.4
						c-0.1,0.1,0.1,0.3,0.2,0.2c0.1-0.1,0.2-0.2,0.3-0.4c0.1-0.1-0.1-0.3-0.2-0.2c-0.1,0-0.2,0.1-0.2,0.1c0.1,0.1,0.1,0.2,0.2,0.2
						c0.1-0.1,0.1-0.1,0.2-0.3c0.1-0.1,0-0.2-0.2-0.2c-0.1,0-0.2,0-0.2,0.2c-0.1,0.1,0,0.3,0.2,0.2c0.1-0.1,0.2-0.2,0.3-0.3
						c-0.1,0-0.2-0.1-0.2-0.1c-0.1,0.2-0.1,0.4-0.2,0.6c-0.1,0.1,0.1,0.3,0.2,0.2c0.1-0.1,0.2-0.2,0.3-0.3c-0.1-0.1-0.2-0.1-0.2-0.2
						c-0.2,0.3-0.3,0.7-0.5,1.1c0,0.2,0.2,0.2,0.2,0.1c0.2-0.3,0.3-0.6,0.5-0.9c0.1-0.2-0.2-0.2-0.2-0.1c-0.2,0.3-0.3,0.7-0.4,1.1
						c0,0.2,0.2,0.2,0.3,0.1c0.1-0.3,0.2-0.5,0.3-0.8c-0.1,0-0.2,0-0.3-0.1c-0.1,0.3-0.2,0.6-0.3,1c0,0.2,0.2,0.2,0.3,0.1
						c0.1-0.3,0.2-0.6,0.3-0.8c0.1-0.2-0.2-0.2-0.3-0.1c-0.1,0.3-0.2,0.6-0.3,0.8c0.1,0,0.2,0,0.3,0.1c0.2-0.5,0.4-1,0.7-1.5
						c-0.1,0-0.2-0.1-0.2-0.1c-0.3,0.5-0.5,1-0.8,1.5c0.1,0,0.2,0.1,0.2,0.1c0.2-0.4,0.5-1.3,0.9-1.4c0-0.1-0.1-0.2-0.1-0.2
						c-0.1,0.1-0.1,0.1-0.2,0.2c-0.1,0.1,0.1,0.3,0.2,0.2c0.1-0.1,0.2-0.2,0.4-0.2c0-0.1-0.1-0.2-0.1-0.2c-0.7,0.6-1.1,1.4-1.5,2.2
						c0.1,0,0.2,0.1,0.2,0.1c0.2-0.5,0.4-1,0.7-1.4c-0.1,0-0.2-0.1-0.2-0.1c-0.2,0.4-0.4,0.8-0.5,1.3c-0.1,0.2,0.2,0.2,0.3,0.1
						c0.1-0.3,0.2-0.6,0.4-0.9c0.1-0.2-0.2-0.2-0.3-0.1c-0.1,0.3-0.2,0.6-0.3,1c0.1,0,0.2,0,0.3,0.1c0.1-0.3,0.2-0.7,0.3-1
						c-0.1,0-0.2,0-0.3-0.1c-0.1,0.2-0.2,0.5-0.3,0.7c-0.1,0.2,0.2,0.2,0.2,0.1c0.2-0.3,0.3-0.6,0.4-0.9c-0.1,0-0.2-0.1-0.2-0.1
						c-0.1,0.3-0.2,0.5-0.3,0.8c-0.1,0.1,0.2,0.2,0.2,0.1c0.1-0.2,0.2-0.5,0.3-0.7c0-0.2-0.2-0.2-0.3-0.1c-0.1,0.4-0.3,0.7-0.4,1.1
						c-0.1,0.2,0.2,0.2,0.3,0.1c0.1-0.4,0.3-0.7,0.4-1.1c-0.1,0-0.2,0-0.3-0.1c-0.1,0.2-0.1,0.4-0.2,0.7c0.1,0,0.2,0.1,0.2,0.1
						c0.1-0.3,0.2-0.5,0.3-0.8c0.1-0.1-0.2-0.2-0.2-0.1c-0.2,0.3-0.3,0.6-0.4,0.9c0.1,0,0.2,0.1,0.2,0.1c0.1-0.2,0.2-0.5,0.3-0.7
						c0.1-0.2-0.2-0.2-0.3-0.1c-0.1,0.3-0.2,0.6-0.3,1c0,0.2,0.2,0.2,0.3,0.1c0.1-0.3,0.2-0.7,0.3-1c-0.1,0-0.2,0-0.3-0.1
						c-0.1,0.3-0.2,0.6-0.4,0.9c0.1,0,0.2,0,0.3,0.1c0.2-0.4,0.3-0.8,0.5-1.2c0.1-0.2-0.2-0.3-0.2-0.1c-0.3,0.5-0.5,1-0.7,1.5
						c-0.1,0.2,0.2,0.2,0.2,0.1c0.3-0.8,0.7-1.6,1.4-2.2c0.1-0.1,0-0.3-0.1-0.2c-0.2,0.1-0.3,0.2-0.5,0.3c0.1,0.1,0.1,0.1,0.2,0.2
						c0.1-0.1,0.1-0.1,0.2-0.2c0.1-0.1,0-0.3-0.1-0.2c-0.6,0.2-0.8,1-1,1.5c-0.1,0.2,0.2,0.3,0.2,0.1c0.2-0.5,0.5-1,0.8-1.5
						c0.1-0.2-0.1-0.3-0.2-0.1c-0.3,0.5-0.6,1-0.7,1.5c0,0.2,0.2,0.2,0.3,0.1c0.1-0.3,0.2-0.6,0.3-0.8c-0.1,0-0.2,0-0.3-0.1
						c-0.1,0.3-0.2,0.6-0.3,0.8c0.1,0,0.2,0,0.3,0.1c0.1-0.3,0.2-0.6,0.3-1c0-0.2-0.2-0.2-0.3-0.1c-0.1,0.3-0.2,0.5-0.3,0.8
						c0.1,0,0.2,0,0.3,0.1c0.1-0.3,0.2-0.7,0.4-1c-0.1,0-0.2-0.1-0.2-0.1c-0.1,0.3-0.3,0.6-0.4,0.8c0.1,0,0.2,0.1,0.2,0.1
						c0.1-0.3,0.3-0.7,0.4-1c0.1-0.1-0.1-0.3-0.2-0.2c-0.1,0.1-0.2,0.2-0.3,0.3c0.1,0.1,0.2,0.1,0.2,0.2c0.1-0.2,0.2-0.4,0.3-0.7
						c0-0.2-0.1-0.2-0.2-0.1c-0.1,0.1-0.2,0.2-0.3,0.2c0.1,0.1,0.1,0.2,0.2,0.2c0,0,0.1,0,0.1-0.1c0-0.1-0.1-0.1-0.2-0.2
						c0,0.1-0.1,0.2-0.2,0.2c-0.1,0.1,0,0.3,0.2,0.2c0.1,0,0.2-0.1,0.2-0.1c-0.1-0.1-0.1-0.1-0.2-0.2c0,0.1-0.1,0.2-0.2,0.3
						c0.1,0.1,0.1,0.1,0.2,0.2c0.1-0.1,0.3-0.3,0.4-0.4c-0.1-0.1-0.2-0.1-0.2-0.2c-0.3,0.5-0.5,1-0.6,1.6c0,0.2,0.2,0.2,0.3,0.1
						c0.2-0.5,0.3-1.1,0.8-1.5c0.1-0.1,0-0.3-0.2-0.2c-0.5,0.4-0.7,1-0.9,1.6c0.1,0,0.2,0,0.3,0.1c0.1-0.3,0.2-0.7,0.3-1
						c0-0.2-0.2-0.2-0.2-0.1c-0.1,0.2-0.2,0.4-0.3,0.6c0.1,0,0.2,0.1,0.2,0.1c0-0.3,0.1-0.6,0.2-0.9c0-0.2-0.2-0.2-0.2-0.1
						c-0.1,0.1-0.1,0.3-0.2,0.4c0.1,0,0.2,0.1,0.2,0.1c0-0.2,0.1-0.4,0.2-0.6c0-0.2-0.2-0.2-0.2-0.1c0,0.1-0.1,0.2-0.2,0.3
						c0.1,0,0.2,0.1,0.2,0.1c0-0.2,0.1-0.3,0.1-0.4C100.8,61.9,100.6,61.8,100.5,61.9c-0.1,0.1-0.2,0.2-0.2,0.2
						c0.1,0,0.2,0.1,0.2,0.1C100.5,62.1,100.5,62,100.5,61.9c0-0.1-0.1-0.1-0.2-0.1c0,0,0,0,0,0c-0.1,0-0.1,0.1,0,0.2l0,0
						C100.3,62.2,100.6,62,100.5,61.9L100.5,61.9z"/>
				</g>
			</g>
		</g>
		<g>
			<g>
				<g>
					<path class="st0" d="M97.2,61.4c0.8,0.5,0.7,1.8,0.7,2.6c0,0.2,0.3,0.2,0.3,0c-0.1-1,0.1-2.3-0.9-2.9
						C97.2,61.1,97.1,61.3,97.2,61.4L97.2,61.4z"/>
				</g>
			</g>
		</g>
		<g>
			<g>
				<g>
					<path class="st0" d="M97.6,61.5c0,0.1,0.1,0.2,0.1,0.3c0.1,0,0.2-0.1,0.2-0.1c0,0,0,0,0,0c-0.1,0-0.2,0-0.3,0
						c0.1,0.2,0.1,0.4,0.1,0.7c0,0.2,0.3,0.2,0.3,0c0-0.3-0.1-0.5-0.2-0.7c0-0.1-0.3-0.1-0.3,0c0,0.1,0,0.1,0,0.2
						c0.1,0.1,0.3,0,0.2-0.1c0-0.1-0.1-0.2-0.1-0.3C97.8,61.3,97.6,61.4,97.6,61.5L97.6,61.5z"/>
				</g>
			</g>
		</g>
		<g>
			<g>
				<g>
					<path class="st0" d="M97,61.4c0.9,0.5,0.9,1.9,0.8,2.8c0,0.2,0.3,0.2,0.3,0c0-1,0-2.4-1-3C97,61.1,96.9,61.3,97,61.4L97,61.4z"
						/>
				</g>
			</g>
		</g>
		<g>
			<g>
				<g>
					<path class="st0" d="M102,61.9c-0.5,0-0.9,0.3-1.2,0.7c0.1,0.1,0.1,0.1,0.2,0.2c0.3-0.3,0.6-0.5,1-0.6c0-0.1-0.1-0.2-0.1-0.2
						c-0.8,0.4-1.3,1.2-1.7,2c-0.1,0.2,0.2,0.3,0.2,0.1c0.3-0.8,0.8-1.5,1.6-2c0.2-0.1,0-0.3-0.1-0.2c-0.4,0.1-0.8,0.3-1.1,0.7
						c-0.1,0.1,0.1,0.3,0.2,0.2c0.3-0.3,0.6-0.6,1.1-0.6C102.2,62.2,102.2,61.9,102,61.9L102,61.9z"/>
				</g>
			</g>
		</g>
		<g>
			<g>
				<g>
					<path class="st0" d="M72.6,51.3c-6.6,2.5-14.2,3.5-21.2,2c-3.2-0.7-6.4-2.2-8.2-5c-1.6-2.6-1.9-6.2,0.2-8.7
						c-0.1-0.1-0.1-0.1-0.2-0.2c-5,6.3-14.8,2.5-19.7-1.7c-2.9-2.5-6.6-7.6-2.5-10.8c1.6-1.2,3.6-1.8,5.5-2.3c2-0.5,4-0.7,6-0.7
						c4.6,0,9.2,1.3,13.2,3.7c0.1,0,0.2,0,0.2-0.1c1.3-4.8,6.5-7.1,10.9-8.2c2.9-0.7,6.2-1.3,9.2-0.5c2.7,0.8,5.2,3,5.5,5.9
						c0,0.1,0.1,0.2,0.2,0.1c3.6-2.6,8.3-2.8,12.6-3c4.8-0.3,9.7-0.2,14.5,0.1c4.8,0.3,9.6,0.8,14.3,1.8c2.1,0.5,4.2,1,6.2,1.9
						c1.9,0.8,4.4,1.8,5.1,3.9c0.7,1.9-1.2,2.5-2.6,2.9c-1.2,0.4-2.4,0.7-3.7,1c-2.7,0.5-5.3,0.7-8.1,0.7c-0.2,0-0.2,0.2,0,0.3
						c2.7,0.5,5.6,1.1,7.8,2.8c0.6,0.5,1.2,1,1.6,1.7c0.8,1.3,0.4,2.3-0.7,3.2c-1.3,1-2.9,1.7-4.6,2c-0.2,0-0.1,0.3,0.1,0.3
						c1.8-0.4,3.6-1.1,5-2.3c1.3-1.1,1.1-2.5,0.2-3.7c-2.2-2.8-6-3.6-9.2-4.2c0,0.1,0,0.2,0,0.3c3.2,0.1,6.4-0.2,9.5-1
						c1.4-0.3,2.9-0.7,4.2-1.3c0.8-0.4,1.2-1.1,1.1-2c-0.3-2.4-3.2-3.7-5.1-4.5c-2.8-1.2-5.8-2-8.8-2.5c-6.8-1.2-13.7-1.7-20.6-1.6
						c-3.4,0-6.9,0.1-10.3,0.5c-2.8,0.3-5.3,1-7.8,2.3c-0.7,0.4-0.4-0.1-0.6-0.7c-0.2-0.5-0.4-1.1-0.7-1.5c-0.6-0.9-1.4-1.7-2.4-2.3
						c-2.3-1.5-5.2-1.7-7.9-1.3c-4.7,0.6-10.4,2.2-13.4,6.2c-0.3,0.5-0.6,0.9-0.9,1.5c-0.2,0.3-0.3,1.2-0.7,1.3
						c-0.2,0-0.8-0.4-0.9-0.5c-0.3-0.2-0.6-0.3-1-0.5c-0.6-0.3-1.2-0.5-1.8-0.8c-2.7-1-5.5-1.6-8.4-1.7s-5.7,0.2-8.5,1.1
						c-2.2,0.7-4.7,1.7-5.7,3.9c-1,2.3,0.2,4.8,1.6,6.7c1.7,2.2,4.1,4.1,6.5,5.4c4,2.2,9.4,3.4,13.6,1c1-0.5,1.8-1.3,2.5-2.1
						c0.1-0.1-0.1-0.3-0.2-0.2c-1.8,2.2-1.9,5.1-0.9,7.6c1.2,3,4,4.9,7.1,5.9c3.6,1.2,7.6,1.4,11.4,1.2c4.1-0.2,8.1-1.1,11.9-2.6
						C72.8,51.5,72.7,51.3,72.6,51.3L72.6,51.3z"/>
				</g>
			</g>
		</g>
		<g>
			<g>
				<g>
					<path class="st0" d="M67.5,33.6c-3.7,0.3-9.1,1.7-9.4,6.3c-0.2,2.2,1.5,2.8,3.3,3.1c2.7,0.4,5.4,0.5,8.1,0.1
						c0-0.1,0-0.2-0.1-0.3c-1.3,0.8-2.8,2.2-1.3,3.6c1.4,1.4,3.7,1.3,5.4,0.5c0.2-0.1,0-0.3-0.1-0.2c-1.3,0.7-2.8,0.8-4.2,0.2
						c-0.9-0.4-1.8-1.4-1.2-2.4c0.3-0.6,1-1,1.5-1.3c0.1-0.1,0.1-0.3-0.1-0.3c-2,0.3-4,0.3-6.1,0.1c-2-0.2-5.3-0.3-5.1-3.1
						c0.3-4.4,5.6-5.7,9.1-6C67.7,33.8,67.7,33.6,67.5,33.6L67.5,33.6z"/>
				</g>
			</g>
		</g>
		<g>
			<g>
				<g>
					<path class="st0" d="M67.7,33.2c-0.7-0.3-0.8-0.8-0.3-1.5c0.3-0.2,0.6-0.4,1-0.5c0.4-0.1,0.8-0.2,1.2-0.3
						c0.9-0.2,1.9-0.3,2.8-0.3c1.1,0.1,2.1,0.4,2.9,1.2c0.6,0.6,0.9,1.3,1.7,1.7c1.2,0.5,2.6,0,3.8-0.4c1.9-0.7,3.9-1.3,5.9-1.7
						c4.2-0.8,8.5-0.7,12.7,0.2c1.8,0.4,3.7,1,5.2,2.1c0.4,0.3,0.8,0.7,1.2,1.1c0.7,0.6,0.7,1.3,0,2.2c-0.2,0.1-0.4,0.2-0.7,0.3
						c-1,0.5-2,1-3,1.5c-0.1,0.1,0,0.2,0.1,0.3c1.8,0.2,3.1,1.7,3.1,3.5c0,0.2,0.3,0.2,0.3,0c0-2-1.4-3.6-3.4-3.8
						c0,0.1,0,0.2,0.1,0.3c1-0.5,2-1,3-1.5c0.6-0.3,1.2-0.5,1.4-1.2c0.3-1.2-1.3-2.5-2.2-3.1c-3-2-7.2-2.5-10.8-2.7
						c-4.2-0.1-8.3,0.6-12.2,2c-0.8,0.3-1.7,0.7-2.5,0.8c-1.5,0.3-2.2-0.4-3.1-1.5c-1-1.2-2.4-1.5-3.9-1.5c-1.3,0-3.5,0.1-4.5,1.1
						c-0.6,0.6-0.5,1.9,0.5,2C67.9,33.5,67.9,33.2,67.7,33.2L67.7,33.2z"/>
				</g>
			</g>
		</g>
		<g>
			<g>
				<g>
					<path class="st0" d="M97.3,89.1c8.6-0.2,17.2-0.4,25.8-0.7c0.2,0,0.2-0.3,0-0.3c-8.6,0.2-17.2,0.4-25.8,0.7
						C97.1,88.8,97.1,89.1,97.3,89.1L97.3,89.1z"/>
				</g>
			</g>
		</g>
		<g>
			<g>
				<g>
					<path class="st0" d="M12.1,90.5c8.6-0.2,17.2-0.4,25.8-0.7c0.2,0,0.2-0.3,0-0.3c-8.6,0.2-17.2,0.4-25.8,0.7
						C12,90.2,12,90.5,12.1,90.5L12.1,90.5z"/>
				</g>
			</g>
		</g>
		<g>
			<g>
				<g>
					<path class="st0" d="M21.3,90c-4.8-4.4-7.5-10.7-7.6-17.2c-0.1-6,2.4-14.1,8.9-16c3.2-1,7.2,0,8.9,3.1c0.1,0.1,0.2,0.1,0.2,0
						c1-2.7,3.5-5.1,6.5-5.2c3-0.1,5.9,2.6,5.6,5.7c0,0.1,0.1,0.2,0.2,0.1c1.9-1.3,4.4-2.2,6.7-1.2c1.9,0.9,3.1,3.3,1.9,5.3
						c-0.1,0.2,0.2,0.3,0.2,0.1c1.2-2,0-4.7-2.1-5.7c-1.5-0.7-3.2-0.5-4.7,0.1c-0.3,0.1-1.9,1-2,1c0,0,0-0.8,0-0.9
						c0-0.3-0.1-0.7-0.3-1c-0.9-2.5-3.7-4.1-6.2-3.7c-2.9,0.4-5.2,2.7-6.1,5.4c0.1,0,0.2,0,0.2,0c-1.4-2.5-4.2-3.6-7-3.5
						c-3.1,0.1-5.8,1.9-7.7,4.3c-4.2,5.6-4.6,13.5-2.3,20c1.3,3.7,3.4,7.1,6.3,9.7C21.3,90.3,21.4,90.1,21.3,90L21.3,90z"/>
				</g>
			</g>
		</g>
		<g>
			<g>
				<g>
					<path class="st0" d="M90.9,82.2c2.5-2.9,6.2-4.7,9.8-5.8c1.7-0.5,3.6-0.8,5.3-0.3c2.2,0.7,4,2.6,3.7,5c0,0.1,0.1,0.2,0.2,0.1
						c2-1.5,4.6-3.5,7.2-3.4c1.3,0,2.8,0.7,3.1,2.1c0.3,1.5-1.1,2.9-1.8,4.1c0,0.1,0,0.2,0,0.2c0.9,0.6,1.7,0.7,2.7,0.2
						c0.3-0.2,0.7-0.4,1.1-0.4c0.9-0.1,1.7,0.7,1.7,1.5c0,1-0.6,1.8-1.2,2.5c-0.1,0.1,0.1,0.3,0.2,0.2c0.8-0.9,1.7-2.3,1.1-3.6
						c-0.3-0.5-0.8-0.8-1.4-0.9c-1-0.2-1.2,0.4-2.1,0.7c-0.5,0.2-1.8,0-1.6-0.7c0.2-0.4,0.6-0.8,0.8-1.2c0.4-0.6,0.8-1.3,0.8-2
						c0-1.3-0.9-2.3-2-2.7c-1.4-0.5-2.7-0.1-4,0.4c-0.9,0.4-1.8,0.8-2.6,1.4c-0.4,0.3-0.8,0.5-1.2,0.8c0,0-0.6,0.4-0.6,0.4
						c-0.1,0,0-0.5-0.1-0.7c-0.4-3.6-4.4-4.8-7.5-4.4c-4.3,0.7-9,3-11.9,6.3C90.6,82.1,90.8,82.3,90.9,82.2L90.9,82.2z"/>
				</g>
			</g>
		</g>
		<g>
			<g>
				<g>
					<path class="st0" d="M27.4,89.5c-1.8-1.5-4-3.7-3.5-6.3c0.3-1.2,1.4-2.3,2.7-2.3c1.3,0,2,1.3,2.6,2.3c0.7,1.2,1.5,1.9,2.5,0.7
						c0.8-1,2.1-1.8,3.4-1.6c1.5,0.2,2,1.7,2.4,2.9c0,0.2,0.3,0.1,0.3-0.1c-0.7-2.1-2-3.8-4.4-2.9c-0.5,0.2-0.9,0.5-1.3,0.8
						c-0.2,0.2-0.4,0.5-0.6,0.7c-0.5,0.5-1.3,0.2-1.7-0.3c-0.7-0.8-1-1.9-2-2.5c-1.7-1-3.7,0.4-4.1,2.2c-0.6,2.7,1.7,4.9,3.5,6.5
						C27.4,89.8,27.6,89.6,27.4,89.5L27.4,89.5z"/>
				</g>
			</g>
		</g>
		<g>
			<g>
				<g>
					<path class="st0" d="M102.5,88.3c-0.5-3.1-1.4-6-2.7-8.8c-0.1-0.2-0.3,0-0.2,0.1c1.3,2.8,2.2,5.7,2.7,8.8
						C102.3,88.6,102.6,88.5,102.5,88.3L102.5,88.3z"/>
				</g>
			</g>
		</g>
		<g>
			<g>
				<g>
					<path class="st0" d="M100.5,80c0.3,1,0.7,2,1.2,2.9c0.2,0.4,0.6,1.3,1.2,1.4c0.5,0,0.7-0.5,0.8-1c0.2-1.2,0.3-2.3,0.5-3.5
						c0-0.2-0.2-0.2-0.3-0.1c-0.1,0.6-0.2,1.3-0.3,1.9c0,0.3-0.1,0.6-0.1,1c0,0.2-0.1,0.4-0.1,0.6c0,0.3-0.2,0.4-0.5,0.3
						c-0.7,0.1-0.6-0.1-0.9-0.6c-0.2-0.3-0.3-0.5-0.4-0.8c-0.3-0.7-0.6-1.4-0.8-2.1C100.8,79.8,100.5,79.8,100.5,80L100.5,80z"/>
				</g>
			</g>
		</g>
		<g>
			<g>
				<g>
					<path class="st0" d="M104.7,81.6c-0.4,2.2-0.8,4.5-1.2,6.7c0,0.2,0.2,0.2,0.3,0.1c0.4-2.2,0.8-4.5,1.2-6.7
						C105,81.4,104.7,81.4,104.7,81.6L104.7,81.6z"/>
				</g>
			</g>
		</g>
		<g>
			<g>
				<g>
					<path class="st0" d="M113.7,82.6c-0.1,1.7-0.3,3.4-0.8,5.1c0,0.2,0.2,0.2,0.3,0.1c0.5-1.7,0.8-3.4,0.9-5.2
						C114,82.4,113.7,82.4,113.7,82.6L113.7,82.6z"/>
				</g>
			</g>
		</g>
		<g>
			<g>
				<g>
					<path class="st0" d="M114.9,82.6c-0.6,1.8-1,3.7-1.2,5.6c0,0.2,0.2,0.2,0.3,0c0.2-1.9,0.7-3.7,1.2-5.5
						C115.2,82.5,114.9,82.4,114.9,82.6L114.9,82.6z"/>
				</g>
			</g>
		</g>
		<g>
			<g>
				<g>
					<path class="st0" d="M29.9,87.8c0.3,0.7,0.6,1.4,0.9,2.1c0.1,0.2,0.3,0,0.2-0.1c-0.3-0.7-0.6-1.4-0.9-2.1
						C30.1,87.5,29.9,87.6,29.9,87.8L29.9,87.8z"/>
				</g>
			</g>
		</g>
		<g>
			<g>
				<g>
					<path class="st0" d="M32,89.6c-0.1-0.8,0-1.6,0.4-2.4c0.1-0.2-0.2-0.3-0.2-0.1c-0.3,0.8-0.5,1.7-0.4,2.5
						C31.7,89.7,32,89.7,32,89.6L32,89.6z"/>
				</g>
			</g>
		</g>
		<g>
			<g>
				<g>
					<path class="st0" d="M33.2,89.6c0.1-0.2,0.3-0.4,0.4-0.6c0.1-0.2-0.1-0.3-0.2-0.1c-0.1,0.2-0.3,0.4-0.4,0.6
						C32.9,89.7,33.1,89.8,33.2,89.6L33.2,89.6z"/>
				</g>
			</g>
		</g>
		<g>
			<g>
				<g>
					<path class="st0" d="M17.9,67.6c4.4,2.5,6.6,8.4,7.3,13.2c0,0.2,0.3,0.1,0.3-0.1c-0.7-4.8-3-10.8-7.4-13.3
						C17.9,67.3,17.8,67.6,17.9,67.6L17.9,67.6z"/>
				</g>
			</g>
		</g>
		<g>
			<g>
				<g>
					<path class="st0" d="M19.1,66.5c1.9,1.8,3.3,3.8,4.7,6c0.6,1,1.2,2.2,1.9,3.2c0.2,0.3,0.5,0.6,0.9,0.4c0.6-0.3,0.5-1.3,0.5-1.8
						c0-1.4,0-2.8,0.1-4.3c0-2.9,0.1-5.8,0.1-8.7c0-0.2-0.3-0.2-0.3,0c0,2.3-0.1,4.7-0.1,7c0,1.1,0,2.3,0,3.4c0,0.6,0,1.1,0,1.7
						c0,0.4,0.2,1.6-0.1,1.9c-0.3,0.1-0.5,0.1-0.8,0.2c-0.1-0.1-0.1-0.2-0.2-0.3c-0.2-0.2-0.3-0.4-0.4-0.6c-0.3-0.4-0.5-0.8-0.8-1.3
						c-0.5-0.8-1-1.7-1.6-2.5c-1.1-1.6-2.3-3.2-3.7-4.5C19.1,66.2,18.9,66.4,19.1,66.5L19.1,66.5z"/>
				</g>
			</g>
		</g>
		<g>
			<g>
				<g>
					<path class="st0" d="M28.5,62.3c-0.4,5.9-0.6,11.9-0.5,17.8c0,0.1,0.2,0.2,0.2,0.1c1.5-1.6,2.5-3.4,3.2-5.4
						c0-0.2-0.2-0.2-0.3-0.1c-0.6,2-1.7,3.8-3.1,5.3c0.1,0,0.2,0.1,0.2,0.1c-0.1-6,0-11.9,0.5-17.8C28.8,62.1,28.5,62.2,28.5,62.3
						L28.5,62.3z"/>
				</g>
			</g>
		</g>
		<g>
			<g>
				<g>
					<path class="st0" d="M31.9,76.5c-1.7,1.9-2.6,4.2-2.7,6.8c0,0.2,0.3,0.2,0.3,0c0.1-2.5,1-4.7,2.6-6.6
						C32.2,76.5,32,76.3,31.9,76.5L31.9,76.5z"/>
				</g>
			</g>
		</g>
		<g>
			<g>
				<g>
					<path class="st0" d="M12.2,90.4c-0.4-0.7-0.8-1.5-0.8-2.4c0-0.3,0.1-0.8,0.3-1.1c0.5-0.8,1.8-1,2.3,0.1c0,0.2,0.3,0.1,0.3,0
						c0.1-1.3,0.7-2.4,1.8-3.1c0.2-0.1,0-0.3-0.1-0.2c-1.2,0.7-1.9,1.9-1.9,3.3c0.1,0,0.2,0,0.3,0c-0.4-1-1.6-1.3-2.4-0.6
						c-1.3,1.1-0.6,3,0.1,4.2C12.1,90.7,12.3,90.5,12.2,90.4L12.2,90.4z"/>
				</g>
			</g>
		</g>
		<g>
			<g>
				<g>
					<path class="st0" d="M104.7,75.8c-0.2-1.3-0.3-2.7,0.1-4.1c0.5-1.5,1.8-2.8,3.5-2.3c0.7,0.2,1.1,1,1.8,0.9
						c0.3-0.1,0.7-0.5,0.9-0.7c0.5-0.4,1.1-0.7,1.8-0.9c1.1-0.3,2.4-0.3,3.5,0.1c0.9,0.3,1.8,1,1.7,2.1c0,0.8-0.5,1.5-0.8,2.2
						c-0.2,0.4-1,1.6-0.7,2.1c0.1,0.2,0.2,0.2,0.4,0.3c0.8,0.5,1.5,1.1,0.8,2.1c-0.1,0.2,0.1,0.3,0.2,0.1c0.5-0.7,0.4-1.6-0.3-2.2
						c-0.1-0.1-0.2-0.1-0.3-0.2c-0.1-0.1-0.3-0.1-0.4-0.2c-0.2-0.5-0.1-1,0.2-1.4c0.3-0.8,0.7-1.5,1-2.2c0.8-2.6-2.3-3.6-4.3-3.4
						c-1.2,0.1-2.2,0.6-3.1,1.3c-0.6,0.5-0.8,0.5-1.5,0.1c-0.2-0.1-0.3-0.2-0.5-0.3c-0.5-0.2-1-0.3-1.5-0.2c-3.1,0.5-3,4.4-2.7,6.7
						C104.4,76,104.7,76,104.7,75.8L104.7,75.8z"/>
				</g>
			</g>
		</g>
		<g>
			<g>
				<g>
					<path class="st0" d="M18.6,65.7c-0.3-0.3-0.2-0.8,0.2-1c0.5-0.3,1.1,0.2,1.3,0.5c0.1,0.1,0.3,0,0.2-0.1c-0.4-0.5-1.2-1-1.8-0.6
						c-0.4,0.3-0.6,1-0.2,1.4C18.5,66,18.7,65.8,18.6,65.7L18.6,65.7z"/>
				</g>
			</g>
		</g>
		<g>
			<g>
				<g>
					<path class="st0" d="M16.5,68.9c-0.2-0.4-0.6-0.9-0.4-1.4c0.1-0.3,0.6-0.6,0.9-0.3c0.1,0.2,0.3,0,0.2-0.1
						c-0.3-0.4-0.9-0.3-1.2,0c-0.5,0.5,0,1.4,0.3,1.9C16.4,69.1,16.6,69,16.5,68.9L16.5,68.9z"/>
				</g>
			</g>
		</g>
		<g>
			<g>
				<g>
					<path class="st0" d="M24.3,62.3c-0.3-0.2-0.6-0.7-0.3-1c0.2-0.2,0.6-0.2,0.7,0.1c0,0.2,0.3,0.2,0.3,0c0-0.5-0.7-0.7-1.1-0.4
						c-0.5,0.4-0.2,1.2,0.3,1.5C24.3,62.6,24.4,62.4,24.3,62.3L24.3,62.3z"/>
				</g>
			</g>
		</g>
		<g>
			<g>
				<g>
					<path class="st0" d="M25.2,59.9c0-0.4,0.3-0.9,0.7-0.9c0.3,0,0.6,0.5,0.3,0.7c-0.2,0.1,0,0.3,0.1,0.2c0.5-0.3,0.2-1-0.3-1.2
						c-0.7-0.2-1.1,0.5-1.2,1.1C24.9,60,25.2,60,25.2,59.9L25.2,59.9z"/>
				</g>
			</g>
		</g>
		<g>
			<g>
				<g>
					<path class="st0" d="M28.9,61.1c0-0.1,0.1-0.2,0.2-0.2c0.2,0,0,0.3-0.1,0.3c-0.2,0-0.2,0.2-0.1,0.3c0.5,0.2,0.8-0.6,0.3-0.8
						c-0.3-0.1-0.8,0.1-0.7,0.5C28.7,61.3,29,61.2,28.9,61.1L28.9,61.1z"/>
				</g>
			</g>
		</g>
		<g>
			<g>
				<g>
					<path class="st0" d="M24.6,67c-0.2-0.3-0.5-1-0.2-1.3c0.2-0.1,0.6-0.2,0.6,0.1c0,0.2,0.3,0.2,0.3,0c0-0.5-0.6-0.6-1-0.4
						c-0.7,0.3-0.3,1.2,0,1.7C24.4,67.3,24.6,67.1,24.6,67L24.6,67z"/>
				</g>
			</g>
		</g>
		<g>
			<g>
				<g>
					<path class="st0" d="M102.4,79.4c-0.3-0.2-0.5-0.6-0.1-0.8c0.3-0.2,0.5,0.2,0.3,0.3c-0.2,0.1,0,0.3,0.1,0.2
						c0.5-0.3,0.2-1-0.4-0.9c-0.3,0.1-0.5,0.3-0.5,0.6c0,0.3,0.2,0.6,0.4,0.8C102.5,79.7,102.6,79.5,102.4,79.4L102.4,79.4z"/>
				</g>
			</g>
		</g>
		<g>
			<g>
				<g>
					<path class="st0" d="M104.9,78.3c0-0.3,0.3-0.5,0.6-0.4c0.2,0.1,0,0.4-0.2,0.3c-0.2-0.1-0.3,0.2-0.1,0.2
						c0.4,0.2,0.9-0.4,0.6-0.7c-0.2-0.2-0.5-0.1-0.7,0c-0.2,0.1-0.4,0.4-0.4,0.6C104.6,78.5,104.9,78.5,104.9,78.3L104.9,78.3z"/>
				</g>
			</g>
		</g>
		<g>
			<g>
				<g>
					<path class="st0" d="M106.8,80.8c0-0.1,0.2-0.2,0.3-0.2c0,0-0.1,0-0.1,0c0.2,0.2,0.2,0.4,0.2,0.6c0,0,0.1-0.1,0.1-0.1
						C107,81,106.9,81,106.8,80.8c-0.2-0.1-0.4,0.1-0.2,0.2c0.2,0.2,0.4,0.3,0.7,0.3c0.1,0,0.1,0,0.1-0.1c0.1-0.3,0-0.6-0.2-0.8
						c-0.2-0.2-0.6,0.1-0.7,0.3C106.5,80.9,106.7,81,106.8,80.8L106.8,80.8z"/>
				</g>
			</g>
		</g>
		<g>
			<g>
				<g>
					<path class="st0" d="M115.2,80.5c-0.1-0.2,0.2-0.5,0.4-0.4c0.2,0.1,0.3,0.4,0.1,0.5c-0.1,0.1,0.1,0.3,0.2,0.2
						c0.3-0.3,0.2-0.8-0.3-1c-0.4-0.1-0.9,0.3-0.7,0.8C115,80.8,115.2,80.7,115.2,80.5L115.2,80.5z"/>
				</g>
			</g>
		</g>
		<g>
			<g>
				<g>
					<path class="st0" d="M111.4,84.6c-0.3-0.3-0.6-0.6-0.6-1c0-0.2,0-0.3,0.2-0.5c0.2-0.2,0.7-0.1,0.6,0.3c0,0.2,0.2,0.2,0.3,0.1
						c0.2-0.6-0.6-1-1-0.5c-0.6,0.6,0,1.4,0.4,1.8C111.4,84.9,111.6,84.7,111.4,84.6L111.4,84.6z"/>
				</g>
			</g>
		</g>
		<g>
			<g>
				<g>
					<path class="st0" d="M111.2,73.5c-0.2-0.1-0.4-0.4-0.2-0.6c0.2-0.2,0.6-0.1,0.6,0.2c0,0.2,0.3,0.1,0.3-0.1
						c-0.1-0.4-0.8-0.6-1.1-0.3c-0.3,0.3-0.1,1,0.3,1.1C111.3,73.8,111.4,73.5,111.2,73.5L111.2,73.5z"/>
				</g>
			</g>
		</g>
		<g>
			<g>
				<g>
					<path class="st0" d="M114.4,71.1c0-0.2,0.3-0.3,0.4-0.2c0.2,0.2-0.1,0.5-0.3,0.4c-0.2,0-0.2,0.2-0.1,0.3
						c0.4,0.1,0.9-0.5,0.5-0.8c-0.3-0.3-0.9-0.1-0.9,0.4C114.1,71.3,114.4,71.3,114.4,71.1L114.4,71.1z"/>
				</g>
			</g>
		</g>
		<g>
			<g>
				<g>
					<path class="st0" d="M15.1,88.4c-0.2,0-0.2-0.3-0.1-0.4c0.2-0.1,0.4,0.2,0.3,0.3c-0.1,0.2,0.1,0.3,0.2,0.1
						c0.3-0.4-0.2-0.9-0.6-0.7c-0.3,0.2-0.2,0.8,0.2,0.9C15.2,88.7,15.3,88.4,15.1,88.4L15.1,88.4z"/>
				</g>
			</g>
		</g>
		<g>
			<g>
				<g>
					<path class="st0" d="M17.1,88.7c0.1-0.2,0.3-0.2,0.4-0.1c0.1,0,0.1,0.1,0.2,0.1c0,0,0,0.1,0,0.1c0,0,0,0.1,0,0.2
						c0,0,0-0.1-0.1,0c0.1,0.2,0.3,0,0.2-0.1c-0.2-0.2-0.5,0-0.4,0.2c0,0.1,0.2,0.2,0.3,0.1c0.1-0.1,0.2-0.2,0.2-0.3
						c0-0.6-0.9-0.7-1.1-0.3C16.8,88.7,17,88.8,17.1,88.7L17.1,88.7z"/>
				</g>
			</g>
		</g>
		<g>
			<g>
				<g>
					<path class="st0" d="M26.4,85.9c-0.2-0.1-0.2-0.4,0-0.5c0.2-0.1,0.4,0.3,0.3,0.4c-0.1,0.1,0.1,0.3,0.2,0.2c0.3-0.3,0-1-0.5-0.9
						c-0.4,0.1-0.5,0.8-0.1,1C26.4,86.2,26.6,86,26.4,85.9L26.4,85.9z"/>
				</g>
			</g>
		</g>
		<g>
			<g>
				<g>
					<path class="st0" d="M45.6,64.4c-0.3-0.1-0.4-0.6-0.1-0.8c0.4-0.2,0.7,0.5,0.4,0.7c-0.1,0.1,0.1,0.3,0.2,0.2
						c0.5-0.4,0-1.4-0.6-1.2c-0.6,0.2-0.5,1.2,0.1,1.3C45.7,64.7,45.8,64.4,45.6,64.4L45.6,64.4z"/>
				</g>
			</g>
		</g>
		<g>
			<g>
				<g>
					<path class="st0" d="M36.4,66.1c-0.1-0.2-0.1-0.4,0.1-0.5c0.2-0.1,0.4,0,0.4,0.2c0,0.2,0.3,0.1,0.3-0.1
						c-0.1-0.3-0.5-0.5-0.8-0.4c-0.3,0.2-0.4,0.6-0.2,0.9C36.2,66.4,36.4,66.2,36.4,66.1L36.4,66.1z"/>
				</g>
			</g>
		</g>
		<g>
			<g>
				<g>
					<path class="st0" d="M50.3,62c0-0.1,0-0.2,0.1-0.3c0.1,0,0.2,0,0.2,0.2c0,0.2,0.3,0.2,0.3,0c0-0.3-0.3-0.5-0.6-0.4
						c-0.3,0.1-0.3,0.4-0.2,0.7C50.1,62.3,50.3,62.2,50.3,62L50.3,62z"/>
				</g>
			</g>
		</g>
		<g>
			<g>
				<g>
					<path class="st0" d="M38.2,57.6c0-0.4,0.4-0.9,0.9-0.8c0.4,0.1,0.6,0.5,0.6,0.9c0,0.2,0.2,0.2,0.3,0.1c0.1-0.6-0.2-1.2-0.8-1.3
						c-0.6-0.1-1.1,0.5-1.1,1C37.9,57.8,38.2,57.8,38.2,57.6L38.2,57.6z"/>
				</g>
			</g>
		</g>
		<g>
			<path class="st0" d="M33.3,108.5c0,0,2.2-2.6,5.3-2l-0.4-7.2l-2.9,1l-2,0.7l-2.2,0.9l-1.7,0.6l-0.9,1l-0.1,1.3v0.8l0.7,0.6
				l0.9,0.7L33.3,108.5z"/>
		</g>
		<g>
			<g>
				<g>
					<path class="st0" d="M31.4,102.1L31.4,102.1c-0.3,0-0.6,0.2-0.6,0.5c0,0,0,0,0,0c0,0.4,0.4,0.7,0.8,0.5
						c0.3-0.1,0.4-0.3,0.7-0.5c0.5-0.3,0.2-1.2-0.4-1c-0.3,0.1-0.4,0.1-0.7,0.2c-0.6,0.3-0.2,1.2,0.4,1c0.1,0,0.2-0.1,0.4-0.1
						c-0.1-0.3-0.2-0.7-0.3-1c-0.1,0-0.2,0.1-0.3,0.1c0.1,0.3,0.3,0.7,0.4,1c1.4-0.8,2.9-1.2,4.4-1.6c-0.1-0.3-0.2-0.7-0.3-1
						c-0.8,0.2-1.6,0.6-2.3,1.1c-0.6,0.4,0,1.3,0.5,0.9c0.7-0.5,1.3-0.8,2.1-1c0.7-0.2,0.4-1.2-0.3-1c-1.6,0.4-3.2,0.9-4.6,1.7
						c-0.5,0.3-0.2,1.2,0.4,1c0.1,0,0.2-0.1,0.3-0.1c0.6-0.3,0.4-1.2-0.3-1c-0.1,0-0.2,0.1-0.4,0.1c0.1,0.3,0.3,0.7,0.4,1
						c0.1,0,0.3-0.1,0.4-0.1c-0.1-0.3-0.3-0.7-0.4-1c-0.2,0.1-0.4,0.4-0.7,0.5c0.3,0.2,0.5,0.3,0.8,0.5c0,0,0,0,0,0
						c-0.2,0.2-0.4,0.4-0.5,0.5h0C32.1,103.2,32.1,102.1,31.4,102.1L31.4,102.1z"/>
				</g>
			</g>
		</g>
		<g>
			<g>
				<g>
					<path class="st0" d="M31.8,103.3c0.3-0.1,0.6-0.3,0.9-0.4c0.6-0.3,0.2-1.2-0.4-1c-0.3,0.1-0.6,0.2-0.9,0.3
						c0.1,0.3,0.3,0.7,0.4,1c0.2-0.2,0.5-0.3,0.7-0.4c0.5-0.3,0.2-1.1-0.4-1c-0.2,0-0.3,0-0.5,0.1c0.1,0.3,0.2,0.7,0.3,1
						c0.3-0.2,0.5-0.3,0.9-0.5c0.6-0.3,0.4-1.3-0.3-1c-0.3,0.1-0.7,0.2-1,0.3c0.1,0.3,0.3,0.7,0.4,1c0.2-0.1,0.4-0.2,0.6-0.3
						c-0.1-0.3-0.2-0.7-0.3-1c-0.2,0.1-0.4,0.1-0.5,0.2c0.1,0.3,0.3,0.7,0.4,1c1.2-0.6,2.5-0.7,3.7-1.2c0.6-0.3,0.2-1.2-0.4-1
						c-0.6,0.2-1.1,0.3-1.7,0.5c0.1,0.3,0.2,0.7,0.3,1c0.6-0.3,1.3-0.5,1.9-0.6c0.7-0.2,0.4-1.2-0.3-1c-0.7,0.2-1.3,0.3-1.9,0.6
						c-0.6,0.3-0.4,1.3,0.3,1c0.6-0.2,1.1-0.3,1.7-0.5c-0.1-0.3-0.3-0.7-0.4-1c-0.6,0.3-1.3,0.3-2,0.5c-0.6,0.2-1.2,0.4-1.7,0.7
						c-0.6,0.3-0.2,1.2,0.4,1c0.2,0,0.4-0.1,0.5-0.2c0.7-0.2,0.4-1.3-0.3-1c-0.3,0.1-0.6,0.2-0.8,0.4c-0.5,0.3-0.2,1.2,0.4,1
						c0.3-0.1,0.7-0.2,1-0.3c-0.1-0.3-0.2-0.7-0.3-1c-0.4,0.2-0.8,0.3-1.1,0.6c-0.4,0.3-0.3,1.1,0.3,1c0.3,0,0.5-0.1,0.8-0.1
						c-0.1-0.3-0.3-0.7-0.4-1c-0.2,0.2-0.5,0.3-0.7,0.4C30.9,102.6,31.2,103.4,31.8,103.3c0.2-0.1,0.5-0.2,0.8-0.3
						c-0.1-0.3-0.3-0.7-0.4-1c-0.3,0.1-0.6,0.3-0.9,0.4C30.6,102.7,31.2,103.6,31.8,103.3L31.8,103.3z"/>
				</g>
			</g>
		</g>
		<g>
			<g>
				<g>
					<path class="st0" d="M33.6,107.5c0.3-0.1,0.5-0.3,0.8-0.4c-0.2-0.3-0.4-0.6-0.7-0.8c-0.2,0.2-0.4,0.4-0.6,0.7
						c-0.3,0.4,0,1,0.5,0.9c0.2,0,0.3-0.1,0.5-0.2c-0.2-0.3-0.4-0.6-0.7-0.8c-0.2,0.2-0.3,0.3-0.4,0.5c-0.3,0.5,0.3,1,0.7,0.7
						c0,0,0.1,0,0.1-0.1c-0.2-0.2-0.5-0.5-0.7-0.7c-0.1,0-0.1,0.1-0.2,0.2c-0.5,0.4,0.2,1.2,0.7,0.8c0.1,0,0.1-0.1,0.2-0.2
						c-0.2-0.2-0.5-0.5-0.7-0.7c0,0,0.1-0.1,0.1-0.1c0.2,0.3,0.3,0.6,0.5,0.9c0.6-0.6,1.3-1,2.1-1.4c-0.2-0.3-0.4-0.6-0.5-0.9
						c-0.4,0.3-0.9,0.6-1.3,0.8c-0.6,0.4-0.1,1.2,0.5,0.9s1.2-0.6,1.8-1c0.6-0.4,0.1-1.3-0.5-0.9c-0.4,0.2-0.8,0.4-1.2,0.6
						c-0.6,0.3-0.1,1.2,0.5,0.9c0.7-0.3,1.3-0.6,2-0.8c-0.1-0.3-0.2-0.7-0.3-1c-0.4,0.2-0.8,0.3-1.3,0.5c-0.5,0.2-0.5,1.1,0.2,1.1
						c0.8,0,1.6-0.5,2.4-0.4c0-0.3,0-0.7,0-1c-0.1,0-0.2,0-0.3,0.1c-0.6,0.2-0.5,0.8,0,1c0.2,0.1,0.4,0,0.7-0.1
						c0.6-0.3,0.1-1.2-0.5-0.9c0.1,0,0.1,0,0.2,0c0,0.3,0,0.7,0,1c0.1,0,0.2,0,0.3-0.1c0.5-0.1,0.5-1,0-1c-1-0.2-1.7,0.4-2.7,0.4
						c0,0.3,0.1,0.7,0.2,1.1c0.4-0.2,0.8-0.3,1.3-0.5c0.6-0.3,0.4-1.3-0.3-1c-0.8,0.3-1.5,0.6-2.3,0.9c0.2,0.3,0.4,0.6,0.5,0.9
						c0.4-0.2,0.8-0.4,1.2-0.6c-0.2-0.3-0.4-0.6-0.5-0.9c-0.6,0.4-1.2,0.7-1.8,1c0.2,0.3,0.4,0.6,0.5,0.9c0.4-0.3,0.9-0.6,1.3-0.8
						c0.6-0.4,0.1-1.3-0.5-0.9c-0.8,0.5-1.6,1-2.3,1.6c-0.4,0.4,0,1,0.5,0.9c0.3-0.1,0.4-0.2,0.5-0.4c0.3-0.4-0.3-1.1-0.7-0.7
						c-0.1,0-0.1,0.1-0.2,0.2c0.2,0.3,0.4,0.6,0.7,0.8c0.2-0.1,0.2-0.2,0.3-0.4c0.3-0.5-0.3-1-0.7-0.7c0,0-0.1,0-0.1,0.1
						c0.2,0.2,0.5,0.5,0.7,0.7c0.1-0.1,0.2-0.2,0.3-0.3c0.5-0.5-0.1-1.1-0.7-0.8c-0.1,0-0.2,0-0.2,0.1c0.2,0.3,0.3,0.6,0.5,0.9
						c0.2-0.2,0.4-0.5,0.6-0.7c0.5-0.5-0.1-1.1-0.7-0.8c-0.3,0.1-0.5,0.3-0.8,0.4C32.5,106.9,33,107.8,33.6,107.5L33.6,107.5z"/>
				</g>
			</g>
		</g>
		<g>
			<g>
				<g>
					<path class="st0" d="M38.3,105.8C38.3,105.8,38.3,105.9,38.3,105.8c0,0.2,0,0.3,0,0.4c0,0.1-0.1,0.1-0.1,0.2
						c0.1-0.1,0.2-0.3,0.2-0.4s-0.1-0.3-0.2-0.4c-0.1-0.1-0.2-0.2-0.4-0.2c-0.2,0-0.3,0.1-0.4,0.2c-0.2,0.2-0.2,0.5-0.1,0.8
						c0.2,0.2,0.5,0.4,0.7,0.2C38.3,106.4,38.4,106.1,38.3,105.8L38.3,105.8z"/>
				</g>
			</g>
		</g>
		<g>
			<path class="st0" d="M97.3,108.6l1.2-0.3l1.6-0.7l1-0.9l0.8-0.8l0.6-0.6v-1l-0.5-1.2l-2.9-1.5l-2.4-0.9c0,0-3-0.8-3.1-0.9
				c-0.1,0-2.1-0.5-2.1-0.5l0.1,6.9C91.7,106.2,95.7,105.8,97.3,108.6z"/>
		</g>
		<g>
			<g>
				<g>
					<path class="st0" d="M92.6,99.8c-0.1-0.1-0.3-0.2-0.4-0.3c0,0.1-0.1,0.2-0.1,0.2C92.3,99.8,92.4,99.8,92.6,99.8
						c0.1,0,0.1-0.1,0.2-0.2c-0.3,0-0.5-0.2-0.7-0.3c0,0.1-0.1,0.2-0.1,0.2c0.5,0.1,1,0.2,1.4,0.3c0-0.1,0-0.2,0-0.3
						c-0.4,0-0.7-0.1-1.1-0.2c-0.2-0.1-0.2,0.2-0.1,0.3c1.7,0.6,3.4,0.7,5,1.4c1.4,0.7,3.3,1.3,4.3,2.6c0.1-0.1,0.2-0.1,0.2-0.2
						c-1.4-1.1-2.9-2-4.5-2.6c0,0.1,0,0.2-0.1,0.3c0.8,0.2,1.6,0.4,2.3,0.7c0.2,0.1,0.3-0.2,0.1-0.2c-0.4-0.2-0.8-0.4-1.3-0.6
						c-0.2-0.1-0.3,0.1-0.1,0.2c0.5,0.3,0.8,0.7,1.2,1.1c0.1,0.1,0.3-0.1,0.2-0.2c-0.4-0.4-0.8-0.8-1.3-1.2c0,0.1-0.1,0.2-0.1,0.2
						c0.4,0.2,0.8,0.4,1.3,0.6c0-0.1,0.1-0.2,0.1-0.2c-0.8-0.3-1.6-0.6-2.4-0.8c-0.2,0-0.2,0.2-0.1,0.3c1.6,0.6,3.1,1.4,4.4,2.5
						c0.1,0.1,0.3,0,0.2-0.2c-1-1.3-2.7-1.9-4.1-2.5c-1.7-0.8-3.6-0.9-5.4-1.5c0,0.1,0,0.2-0.1,0.3c0.4,0.1,0.7,0.2,1.1,0.2
						c0.2,0,0.2-0.2,0-0.3c-0.5-0.1-1-0.2-1.4-0.3c-0.2,0-0.2,0.2-0.1,0.2c0.3,0.2,0.5,0.3,0.8,0.3c0.2,0,0.3-0.2,0.1-0.2
						c-0.4-0.2-0.2-0.1-0.7-0.2c-0.1,0-0.2,0.1-0.1,0.2c0.1,0.1,0.3,0.2,0.4,0.3C92.5,100.1,92.7,99.9,92.6,99.8L92.6,99.8z"/>
				</g>
			</g>
		</g>
		<g>
			<g>
				<g>
					<path class="st0" d="M102.4,104.9c0.1,0,0.2-0.1,0.3-0.2c0-0.1-0.1-0.2-0.1-0.2c0,0-0.1,0-0.1,0.1c-0.2,0.1,0,0.3,0.1,0.2
						c0,0,0.1,0,0.1-0.1c0.2-0.1,0-0.3-0.1-0.2c-0.1,0-0.2,0.1-0.3,0.2C102.1,104.8,102.3,105,102.4,104.9L102.4,104.9z"/>
				</g>
			</g>
		</g>
		<g>
			<g>
				<g>
					<path class="st0" d="M28.4,104.7c-0.1,0-0.2,0-0.3,0c0,0.1,0,0.2,0,0.3C28.3,105,28.3,104.9,28.4,104.7c0-0.2,0.1-0.4,0.2-0.6
						c0-0.2-0.2-0.2-0.2-0.1c-0.2,0.2-0.2,0.5-0.2,0.8C28.3,104.8,28.3,104.8,28.4,104.7c0-0.1-0.2-0.2-0.3,0s0.1,0.3,0.2,0.3
						c0-0.1-0.1-0.2-0.1-0.2c-0.1,0-0.1,0-0.2,0.1c-0.1,0.1-0.1,0.3,0.1,0.3c0.3,0,0.6,0,1,0c0.2,0,0.2-0.3,0-0.3c-0.3,0-0.6,0-1,0
						c0,0.1,0,0.2,0.1,0.3c0.1,0,0.1,0,0.2-0.1c0.1-0.1,0-0.3-0.1-0.2c0,0,0,0,0,0c0,0,0,0.1,0,0.1v0c0,0,0,0.1-0.1,0.1l0,0
						c0,0-0.1,0-0.1,0l0,0c0,0,0-0.1,0-0.1v0c0,0.2,0.3,0.2,0.3,0c0-0.2,0-0.5,0.2-0.7c-0.1,0-0.2-0.1-0.2-0.1
						c0,0.1-0.1,0.2-0.1,0.3c0,0.1-0.1,0.3-0.1,0.4c0,0,0.1,0,0.1,0c0,0,0,0,0,0c-0.2,0-0.2,0.3,0,0.3c0.1,0,0.2,0,0.4,0
						C28.7,104.9,28.6,104.7,28.4,104.7L28.4,104.7z"/>
				</g>
			</g>
		</g>
		<g>
			<polygon class="st0" points="91.6,109.8 98.5,108.3 96.1,103.5 91.4,103.5 			"/>
		</g>
	</g>
</g>
</svg>
