<?xml version="1.0" encoding="utf-8"?>
<!-- Generator: Adobe Illustrator 24.0.1, SVG Export Plug-In . SVG Version: 6.00 Build 0)  -->
<svg version="1.1" id="Layer_1" xmlns="http://www.w3.org/2000/svg" xmlns:xlink="http://www.w3.org/1999/xlink" x="0px" y="0px"
	 viewBox="0 0 141.7 141.7" style="enable-background:new 0 0 141.7 141.7;" xml:space="preserve">
<style type="text/css">
	.st0{fill:#070707;}
</style>
<g id="Layer_1_1_">
</g>
<g id="Layer_1_2_">
</g>
<g id="Layer_1_3_">
	<g>
		<g>
			<path class="st0" d="M29.3,84.9c0-2.2,4.1-4.3,11.4-6c0-0.2,0-0.3,0-0.5c-7.4,1.7-11.8,3.9-11.8,6.4c0,1.8,2.1,3.4,6.2,4.9
				c0,0,0,0,0,0c0.1-0.2,0.2-0.4,0.4-0.5c0.1-0.1,0.2-0.3,0.3-0.4c-0.2,0.1-0.4,0.3-0.6,0.5C31.3,87.9,29.3,86.4,29.3,84.9z"/>
		</g>
		<g>
			<path class="st0" d="M103.4,78.2c0,0.2,0,0.3-0.1,0.5c0,0,0.1,0,0.1,0c8,1.7,12.6,3.9,12.6,6.2c0,1.5-2,3-5.7,4.3
				c-0.1-0.2-0.2-0.4-0.4-0.5c0.1,0.2,0.3,0.3,0.4,0.5c0.1,0.2,0.2,0.3,0.2,0.5c4-1.4,6-3,6-4.8C116.5,82.2,111.5,79.9,103.4,78.2z"
				/>
		</g>
		<g>
			<path class="st0" d="M103.8,91c-8.2,1.7-19.4,2.7-31.1,2.7c-11.9,0-23-1-31.3-2.8c0-0.2,0.1-0.3,0.1-0.5
				c-0.1,0.2-0.3,0.5-0.4,0.7c0,0.1-0.1,0.1-0.2,0.2l0.1,0c8.3,1.8,19.6,2.8,31.7,2.8c11.9,0,23.2-1,31.4-2.8
				C103.9,91.3,103.8,91.2,103.8,91z"/>
		</g>
	</g>
	<g>
		<g>
			<g>
				<path class="st0" d="M98.7,47.2c-2.9-5.3-8.3-8.8-14.1-10.4c-3.6-1-7.4-1.1-11.1-0.9c-4,0.3-8,0.7-12,1.2
					c-6.1,0.8-11.8,3.8-15.6,8.7C42,51,40.4,57.5,40,64C39.4,73,40.9,82,40.9,91.1c0,0.4,0.6,0.4,0.6,0c0-7.5-1.1-15-1.1-22.6
					c0-6.6,0.8-13.4,4-19.2c3.1-5.6,8.4-9.7,14.7-11.1c3.5-0.8,7.2-1,10.8-1.3c3.5-0.3,7-0.7,10.5-0.3c7.1,0.8,14.3,4.5,17.8,10.9
					C98.4,47.9,98.9,47.6,98.7,47.2L98.7,47.2z"/>
			</g>
		</g>
	</g>
	<g>
		<g>
			<g>
				<path class="st0" d="M61.2,37.8c0.4,0,0.4-0.6,0-0.6C60.8,37.2,60.8,37.8,61.2,37.8L61.2,37.8z"/>
			</g>
		</g>
	</g>
	<g>
		<g>
			<g>
				<path class="st0" d="M41.4,55.3C39.2,55.1,37,54,36,51.9c-1-2.1-0.7-4.6,0.7-6.4c1.2-1.6,3.1-2.8,5.1-3.1c2-0.3,4.6-0.2,6,1.4
					c0.2,0.3,0.7-0.1,0.4-0.4c-1.5-1.7-4.2-1.9-6.2-1.6c-2.4,0.3-4.7,1.7-6.1,3.8c-1.3,2-1.5,4.5-0.5,6.7c1.1,2.2,3.5,3.5,5.9,3.7
					C41.8,55.9,41.8,55.3,41.4,55.3L41.4,55.3z"/>
			</g>
		</g>
	</g>
	<g>
		<g>
			<g>
				<path class="st0" d="M94.3,42.2c3.4-1.8,8.9-2.6,11.3,1.1c2.4,3.7,1,9.7-3.8,10.5c-0.4,0.1-0.2,0.7,0.2,0.6
					c5.1-0.8,6.7-7,4.4-11.1c-2.5-4.4-8.4-3.6-12.2-1.6C93.7,41.9,94,42.4,94.3,42.2L94.3,42.2z"/>
			</g>
		</g>
	</g>
	<g>
		<g>
			<g>
				<path class="st0" d="M67.4,60.8c0.1,0,0.2,0,0.3,0c0-0.1-0.1-0.2-0.1-0.3c-0.2,0.2-0.6,0.1-0.8,0.2c-0.5,0.2-1,0.6-1.4,0.9
					c-0.8,0.7-1.6,1.5-2,2.4c-0.9,2.3,1.9,3.6,3.8,3.4c1.6-0.1,3-0.8,4.6-1c1.5-0.2,2.9,0.4,4.3,0.7c1.9,0.4,3.8-0.6,3.6-2.9
					c-0.3-2.4-3.4-3.7-5.3-4.4c-0.2-0.1-0.3,0.2-0.1,0.3c2,0.8,5.8,2.4,5,5.2c-0.6,2-2.5,1.7-4,1.3c-1.1-0.3-2.1-0.6-3.3-0.5
					c-1.4,0.1-2.7,0.7-4.1,1c-1.5,0.3-4.6-0.2-4.4-2.4c0.2-1.3,1.5-2.4,2.5-3.1c0.4-0.3,0.7-0.5,1.1-0.6c0.2-0.1,0.6-0.1,0.7-0.2
					c0.1-0.1,0-0.3-0.1-0.3c-0.1,0-0.2,0-0.4,0C67.2,60.6,67.2,60.9,67.4,60.8L67.4,60.8z"/>
			</g>
		</g>
	</g>
	<g>
		<g>
			<g>
				<path class="st0" d="M75.3,67.1c0.5,1.4,0.9,3.2,0.3,4.6c-0.4,1.1-1.8,1.8-2.8,1c-0.5-0.4-0.6-0.9-0.9-1.4
					c-0.1-0.2-0.3,0-0.3,0.1c0.3,0.6,0.5,1.4,1.2,1.7c0.7,0.4,1.6,0.2,2.3-0.2c1.8-1.2,1.2-4.3,0.6-6C75.5,66.8,75.2,66.9,75.3,67.1
					L75.3,67.1z"/>
			</g>
		</g>
	</g>
	<g>
		<g>
			<g>
				<path class="st0" d="M103.5,86.9c0.8,0.3,1.7,0,2.5,0.1c1.7,0.3,3.4,1.3,4.1,2.9c0.8,1.8,0.1,3.9-2.2,3.5
					c-1.7-0.3-2.9-1.5-4.1-2.6c-0.1-0.1-0.4,0.1-0.2,0.2c1.3,1.3,2.7,2.6,4.6,2.7c1.4,0.1,2.3-0.6,2.5-2c0.2-1.6-0.7-3.1-2-4
					c-0.8-0.6-1.9-1-2.9-1.2c-0.7-0.1-1.6,0.2-2.3-0.1C103.4,86.6,103.3,86.8,103.5,86.9L103.5,86.9z"/>
			</g>
		</g>
	</g>
	<g>
		<g>
			<g>
				<path class="st0" d="M107,90.8c1.1,0.3,2.4,1.3,1.8,2.6c-0.1,0.2,0.2,0.3,0.3,0.1c0.8-1.5-0.7-2.6-2-3
					C106.9,90.5,106.8,90.8,107,90.8L107,90.8z"/>
			</g>
		</g>
	</g>
	<g>
		<path class="st0" d="M83.6,60.6c-5.5,0-9.9-4.4-9.9-9.9s4.4-9.9,9.9-9.9s9.9,4.4,9.9,9.9S89,60.6,83.6,60.6z M83.6,41.2
			c-5.3,0-9.5,4.3-9.5,9.5s4.3,9.5,9.5,9.5c5.3,0,9.5-4.3,9.5-9.5S88.8,41.2,83.6,41.2z"/>
	</g>
	<g>
		<path class="st0" d="M59,61.7c-5.5,0-9.9-4.4-9.9-9.9s4.4-9.9,9.9-9.9c5.5,0,9.9,4.4,9.9,9.9S64.5,61.7,59,61.7z M59,42.2
			c-5.3,0-9.5,4.3-9.5,9.5s4.3,9.5,9.5,9.5c5.3,0,9.5-4.3,9.5-9.5S64.3,42.2,59,42.2z"/>
	</g>
	<g>
		<path class="st0" d="M102.2,46.9c0-1.1-0.9-2.1-2.1-2.1c-1.1,0-2.1,0.9-2.1,2.1c0,1.1,0.9,2.1,2.1,2.1
			C101.3,48.9,102.2,48,102.2,46.9z"/>
	</g>
	<g>
		<circle class="st0" cx="42.3" cy="48.7" r="2.1"/>
	</g>
	<g>
		<path class="st0" d="M75.7,59.7c0-1.3-2-2.4-4.4-2.4S67,58.4,67,59.7c0,1.3,2,2.4,4.4,2.4C73.8,62.1,75.7,61,75.7,59.7z"/>
	</g>
	<g>
		<path class="st0" d="M80.4,50.8c0,1.8,1.4,3.2,3.2,3.2c1.8,0,3.2-1.4,3.2-3.2c0-1.8-1.4-3.2-3.2-3.2C81.8,47.6,80.4,49,80.4,50.8z
			 M85.6,49.5c0,0.5-0.4,0.9-0.9,0.9c-0.5,0-0.9-0.4-0.9-0.9c0-0.5,0.4-0.9,0.9-0.9S85.6,49,85.6,49.5z"/>
	</g>
	<g>
		<path class="st0" d="M56.2,51.8c0,1.8,1.4,3.2,3.2,3.2c1.8,0,3.2-1.4,3.2-3.2c0-1.8-1.4-3.2-3.2-3.2C57.6,48.6,56.2,50,56.2,51.8z
			 M61.4,50.5c0,0.5-0.4,0.9-0.9,0.9c-0.5,0-0.9-0.4-0.9-0.9c0-0.5,0.4-0.9,0.9-0.9C61,49.6,61.4,50,61.4,50.5z"/>
	</g>
	<g>
		<g>
			<g>
				<path class="st0" d="M71.6,66.4c0.2,1.3,0.2,2.9,0,4.1c-0.1,0.8-0.3,1.6-0.8,2.2c-0.7,0.6-1.8,0.6-2.4,0
					c-1.3-1.2-0.9-3.9-0.5-5.5c0-0.2-0.2-0.3-0.3-0.1c-0.5,1.8-1,5.6,1.4,6.2c1.2,0.3,2.1-0.3,2.6-1.4c0.4-0.9,0.4-2,0.4-3
					c0-0.9,0.1-1.9-0.1-2.8C71.9,66.1,71.6,66.2,71.6,66.4L71.6,66.4z"/>
			</g>
		</g>
	</g>
	<g>
		<g>
			<g>
				<path class="st0" d="M41.1,87.2c-2.2-0.4-4.5,0.6-6.1,2.2c-1.1,1.1-1.8,2.6-0.1,3.5c0.2,0.1,0.3-0.2,0.1-0.3c-2-1.1,0-3,1.2-3.8
					c1.4-1,3.1-1.6,4.9-1.3C41.2,87.5,41.3,87.3,41.1,87.2L41.1,87.2z"/>
			</g>
		</g>
	</g>
	<g>
		<g>
			<g>
				<path class="st0" d="M36.5,91.3C35.8,91.6,35,92.1,35,93c0,0.7,0.8,1.2,1.4,1.3c1.9,0.3,3.9-1.7,4.9-3.1
					c0.1-0.1-0.1-0.3-0.3-0.1c-0.8,1.1-1.9,2.1-3.1,2.6c-0.7,0.3-2.1,0.6-2.5-0.3c-0.4-0.8,0.7-1.5,1.3-1.8
					C36.8,91.5,36.7,91.2,36.5,91.3L36.5,91.3z"/>
			</g>
		</g>
	</g>
	<g>
		<g>
			<g>
				<path class="st0" d="M97.7,46.5c4.6,5.8,4.6,13.6,4.9,20.7c0.3,8,0.1,15.9,0.5,23.9c0,0.4,0.6,0.4,0.6,0
					c-0.4-8.4-0.2-16.9-0.6-25.3c-0.3-6.8-0.6-14.1-5-19.7C97.9,45.8,97.5,46.2,97.7,46.5L97.7,46.5z"/>
			</g>
		</g>
	</g>
	<g>
		<g>
			<g>
				<path class="st0" d="M116.8,85c-0.2-3.5-1.6-6.7-4-9.1c-0.1,0.1-0.1,0.2-0.2,0.2c3,1.7,3.4,5.7,5.9,8c0.1,0.1,0.3,0,0.3-0.1
					c-0.1-1.4,0.2-2.7,1.1-3.8c-0.1,0-0.2,0-0.3-0.1c0,1,0,2.1,0,3.1c0,0.1,0.1,0.2,0.2,0.1c0.5-0.2,0.8-0.4,1.2-0.8
					c-0.1,0-0.2-0.1-0.2-0.1c-0.1,0.4-0.3,0.9-0.4,1.3c0,0.1,0.1,0.2,0.2,0.2c0.8-0.3,1.5-0.7,2.1-1.2c-0.1-0.1-0.1-0.1-0.2-0.2
					c-0.3,0.6-0.6,1.3-0.8,2c0,0.1,0,0.2,0.1,0.2c1.3,0.4,0.3,1.6,0,2.1c-0.1,0.1,0,0.2,0.1,0.2c2.6,0.3,5.2,0.5,7.8,0.5
					c0.2,0,0.2-0.3,0-0.3c-1.3,0-2.6,0-3.9-0.1c-0.7,0-1.4-0.1-2.1-0.2c-0.5,0-1.4,0-1.4-0.4c0-0.6,0.6-0.8,0.2-1.5
					c-0.1-0.2-0.4-0.3-0.4-0.5c-0.2-0.5,0.3-1.3,0.6-1.8c0-0.1-0.1-0.3-0.2-0.2c-0.4,0.3-0.8,0.6-1.2,0.8c-0.8,0.3-0.5-0.2-0.3-0.8
					c0-0.1-0.1-0.2-0.2-0.1c-0.8,0.8-0.8,0.3-0.8-0.5c0-0.6,0-1.2,0-1.8c0-0.2-0.2-0.2-0.3-0.1c-0.9,1.2-1.2,2.5-1.1,3.9
					c0.1,0,0.2-0.1,0.3-0.1c-2.4-2.3-2.9-6.2-5.9-8c-0.1-0.1-0.3,0.1-0.2,0.2c2.4,2.4,3.7,5.5,3.9,8.9
					C116.5,85.2,116.8,85.2,116.8,85L116.8,85z"/>
			</g>
		</g>
	</g>
	<g>
		<g>
			<g>
				<path class="st0" d="M28.8,85.2c0.2-2.3,0.3-4.5,0.5-6.8c0-0.1-0.2-0.2-0.3-0.1c-1.4,2.4-1.9,5.1-2.4,7.8c0.1,0,0.2,0,0.3,0
					c-0.2-1.1-0.4-2.2-0.6-3.2c0-0.2-0.2-0.1-0.3,0c-0.4,0.9-0.6,1.8-0.6,2.8c0.1,0,0.2,0,0.3-0.1c-0.2-0.4-0.7-2-1.4-1.8
					c-0.7,0.2-0.4,1.4-0.3,1.8c0,0.3,0.3,0.7,0.2,1c-0.1,0.5,0,0-0.2,0.4c-0.2,0.3-0.3,0.4-0.4,0.8c-0.1,0.9,0.7,1.5,1.3,2
					c0-0.1,0-0.2,0.1-0.3c-1.5-0.1-2.9-0.3-4.4-0.4c-0.2,0-0.2,0.2-0.1,0.3c0.7,0.5,1.4,1,2.1,1.5c0-0.1,0-0.2,0-0.3
					c-3.5,0.5-6.9,1-10.4,1.6c-0.2,0-0.1,0.3,0.1,0.3c3.5-0.5,6.9-1,10.4-1.6c0.1,0,0.1-0.2,0-0.3c-0.7-0.5-1.4-1-2.1-1.5
					c0,0.1,0,0.2-0.1,0.3c1.5,0.1,2.9,0.3,4.4,0.4c0.2,0,0.2-0.2,0.1-0.3c-0.3-0.2-0.5-0.4-0.8-0.7c-0.5-0.5-0.4-1,0.3-1.7
					c0.1,0,0.1-0.1,0.1-0.2c-0.2-0.6-0.8-1.8-0.2-2.2c0.4-0.3,0.3-0.2,0.5,0.3c0.1,0.3,0.3,0.6,0.4,0.8c0.1,0.1,0.3,0.1,0.3-0.1
					c0.1-0.9,0.3-1.8,0.6-2.7c-0.1,0-0.2,0-0.3,0c0.2,1.1,0.4,2.2,0.6,3.2c0,0.1,0.3,0.1,0.3,0c0.5-2.7,1-5.4,2.4-7.7
					c-0.1,0-0.2,0-0.3-0.1c-0.2,2.3-0.3,4.5-0.5,6.8C28.5,85.4,28.8,85.4,28.8,85.2L28.8,85.2z"/>
			</g>
		</g>
	</g>
	<g>
		<g>
			<g>
				<path class="st0" d="M48.3,96.9c-3-0.9-6.3-0.6-9,1c-0.1,0-0.1,0.2,0,0.3c1.4,0.7,2.8,1.1,4.3,1.3c1.5,0.2,3.2,0.5,4.7,0.2
					c0.7-0.1,1.6-0.7,1.6-1.5c0-0.7-0.7-1.2-1.4-1c-0.2,0-0.1,0.3,0.1,0.3c0.8,1.2,0.8,1.8-0.2,1.9c-0.2,0.1-0.5,0.2-0.8,0.1
					c-0.4,0-0.7,0-1.1,0c-0.7,0-1.4-0.1-2.1-0.1c-0.8-0.1-1.6-0.2-2.4-0.4c-0.2,0-2.3-0.6-2.3-0.8c0-0.7,3-1.2,3.7-1.3
					c1.6-0.2,3.2,0,4.7,0.4C48.4,97.2,48.5,96.9,48.3,96.9L48.3,96.9z"/>
			</g>
		</g>
	</g>
	<g>
		<g>
			<g>
				<path class="st0" d="M50.2,100.9c-0.8-0.5-1.8-0.4-2.5,0.3c-0.1,0.1,0,0.2,0,0.2c0.9,0.6,2.1,0.6,3,0.1c0.1,0,0.1-0.1,0-0.2
					c-0.2-0.4-0.5-0.6-0.8-0.7c-0.2,0-0.3,0.2-0.1,0.3c0.3,0.1,0.5,0.3,0.7,0.6c0-0.1,0-0.1,0-0.2c-0.9,0.5-1.9,0.4-2.7-0.1
					c0,0.1,0,0.2,0,0.2c0.6-0.6,1.4-0.6,2.1-0.2C50.2,101.2,50.4,101,50.2,100.9L50.2,100.9z"/>
			</g>
		</g>
	</g>
	<g>
		<g>
			<g>
				<path class="st0" d="M75.4,102.8c-0.7-0.9-1.4-1.8-2.1-2.6c-0.1,0.1-0.1,0.1-0.2,0.2c0.8,0.7,1.6,1.4,2.5,2
					c0.1,0.1,0.2,0,0.2-0.1c0.2-0.6,0.4-1.1,0.6-1.7c-0.1,0-0.2,0-0.3,0c0.3,0.9,1.3,1.2,2.1,0.6c-0.1,0-0.2-0.1-0.3-0.1
					c0,0.9,0.8,1.2,1.6,1.3c0.4,0,0.1-0.1,0.4,0c0,0,0.5,0.3,0.6,0.4c0.7,0.3,1.7,0.2,2.4,0.3c4.6,0.2,9.2,0,13.8-0.7
					c0.2,0,0.1-0.3-0.1-0.3c-2.7,0.4-5.5,0.6-8.2,0.7c-1.3,0-2.5,0-3.8,0c-1.1,0-3.9,0.3-4.5-0.8c0-0.1-0.1-0.1-0.2,0
					c-0.8,0.4-1.3,0.2-1.6-0.8c0-0.1-0.1-0.2-0.3-0.1c-0.5,0.4-1.1,0.3-1.6-0.5c0-0.1-0.2-0.1-0.3,0c-0.1,0.3-0.2,0.6-0.3,0.8
					c-0.3,0.5-0.2,0.6-0.8,0.2c-0.6-0.3-1.2-0.9-1.7-1.4c-0.1-0.1-0.3,0.1-0.2,0.2c0.7,0.9,1.4,1.8,2.1,2.6
					C75.3,103.2,75.5,103,75.4,102.8L75.4,102.8z"/>
			</g>
		</g>
	</g>
	<g>
		<g>
			<g>
				<path class="st0" d="M69.7,101.1c-0.3,0.9-0.7,1.7-1.2,2.5c0.1,0,0.2,0,0.3,0c-0.1-0.6-0.3-1.1-0.7-1.6c0-0.1-0.2-0.1-0.2,0
					c-0.4,0.5-0.5,0.9-0.4,1.5c0.1,0,0.2-0.1,0.2-0.1c-0.3-0.3-0.5-0.4-0.9-0.6c-0.1,0-0.2,0-0.2,0.1c-0.4,1.2-2.5,0.8-3.6,0.8
					c-1.5,0-3,0-4.5,0c-0.2,0-0.2,0.3,0,0.3c2.7,0.1,5.4,0.1,8.2-0.2c0.1,0,0.1-0.1,0.1-0.1c0.1-0.6,0.3-0.6,0.7,0
					c0.1,0.1,0.3,0,0.2-0.1c0.1-1.2,0.3-1.3,0.6-0.4c0.1,0.2,0.1,0.4,0.2,0.7c0,0.1,0.2,0.1,0.3,0c0.5-0.8,0.9-1.7,1.2-2.6
					C70,101.1,69.7,101,69.7,101.1L69.7,101.1z"/>
			</g>
		</g>
	</g>
	<g>
		<g>
			<g>
				<path class="st0" d="M71.2,103.8c0.2-1.6,0.1-3.1-0.2-4.7c0-0.2-0.3-0.1-0.3,0.1c0.3,1.5,0.4,3,0.2,4.6
					C70.9,104,71.1,104,71.2,103.8L71.2,103.8z"/>
			</g>
		</g>
	</g>
	<g>
		<g>
			<g>
				<path class="st0" d="M71.3,104.2c0.1-0.9,0.3-1.7,0.4-2.6c0-0.2-0.3-0.3-0.3-0.1c-0.1,0.9-0.3,1.7-0.4,2.6
					C71,104.4,71.3,104.4,71.3,104.2L71.3,104.2z"/>
			</g>
		</g>
	</g>
</g>
<g id="Layer_3">
	<g>
		<path class="st0" d="M34.8,89.6c0,0,2.6-3,6.3-2.4l-0.4-8.4l-3.5,1.2l-2.4,0.8l-2.5,1.1l-2,0.8l-1,1.1l-0.1,1.5V86l0.9,0.7
			l1.1,0.9L34.8,89.6z"/>
	</g>
	<g>
		<g>
			<g>
				<path class="st0" d="M32.5,82L32.5,82c-0.3,0-0.7,0.3-0.6,0.6c0,0,0,0,0,0c0,0.5,0.5,0.8,0.9,0.5c0.3-0.1,0.5-0.4,0.8-0.6
					c0.6-0.3,0.2-1.3-0.5-1.1c-0.3,0.1-0.5,0.1-0.8,0.3c-0.7,0.3-0.2,1.3,0.5,1.1c0.1,0,0.3-0.1,0.4-0.1c-0.1-0.4-0.2-0.8-0.3-1.2
					c-0.1,0-0.2,0.1-0.3,0.1c0.1,0.4,0.3,0.7,0.5,1.1c1.6-0.9,3.4-1.4,5.2-1.9c-0.1-0.4-0.2-0.8-0.3-1.2c-1,0.3-1.9,0.7-2.8,1.3
					c-0.6,0.4,0,1.5,0.6,1c0.8-0.5,1.5-0.9,2.5-1.1c0.8-0.2,0.4-1.4-0.3-1.2c-1.9,0.5-3.8,1-5.4,2c-0.6,0.3-0.2,1.4,0.5,1.1
					c0.1,0,0.2-0.1,0.3-0.1c0.7-0.3,0.5-1.4-0.3-1.2c-0.1,0-0.3,0.1-0.4,0.1c0.1,0.4,0.3,0.7,0.5,1.1c0.2,0,0.3-0.1,0.5-0.2
					c-0.1-0.4-0.3-0.7-0.5-1.1c-0.3,0.1-0.5,0.5-0.8,0.6c0.3,0.2,0.6,0.3,0.9,0.5c0,0,0,0,0,0c-0.2,0.2-0.4,0.4-0.6,0.6h0
					C33.3,83.2,33.3,82,32.5,82L32.5,82z"/>
			</g>
		</g>
	</g>
	<g>
		<g>
			<g>
				<path class="st0" d="M33,83.4c0.4-0.2,0.7-0.3,1.1-0.5c0.6-0.3,0.2-1.3-0.5-1.1c-0.3,0.1-0.7,0.2-1,0.3c0.1,0.4,0.3,0.7,0.5,1.1
					c0.3-0.2,0.6-0.3,0.8-0.5c0.6-0.4,0.2-1.2-0.5-1.1c-0.2,0-0.4,0-0.6,0.1c0.1,0.4,0.2,0.8,0.3,1.1c0.3-0.2,0.7-0.4,1-0.6
					c0.7-0.3,0.5-1.4-0.3-1.2c-0.4,0.1-0.8,0.2-1.2,0.3c0.1,0.4,0.3,0.7,0.5,1.1c0.2-0.1,0.4-0.2,0.7-0.3c-0.1-0.4-0.2-0.8-0.3-1.2
					c-0.2,0.1-0.4,0.2-0.7,0.2c0.1,0.4,0.3,0.7,0.5,1.1c1.4-0.7,3-0.8,4.4-1.5c0.6-0.3,0.2-1.3-0.5-1.1c-0.7,0.2-1.3,0.4-2,0.6
					c0.1,0.4,0.2,0.8,0.3,1.2c0.8-0.3,1.5-0.5,2.3-0.7c0.8-0.2,0.4-1.3-0.3-1.2c-0.8,0.2-1.5,0.4-2.3,0.7c-0.7,0.3-0.4,1.4,0.3,1.2
					c0.7-0.2,1.3-0.4,2-0.6c-0.1-0.4-0.3-0.7-0.5-1.1c-0.7,0.3-1.6,0.4-2.4,0.6c-0.7,0.2-1.4,0.5-2,0.8c-0.6,0.3-0.2,1.3,0.5,1.1
					c0.2,0,0.4-0.1,0.7-0.2c0.7-0.3,0.4-1.4-0.3-1.2c-0.3,0.1-0.7,0.3-1,0.4c-0.6,0.3-0.2,1.3,0.5,1.1c0.4-0.1,0.8-0.2,1.2-0.3
					c-0.1-0.4-0.2-0.8-0.3-1.2c-0.5,0.2-0.9,0.4-1.3,0.7c-0.4,0.3-0.3,1.2,0.3,1.1c0.3,0,0.6-0.1,0.9-0.1c-0.1-0.4-0.3-0.7-0.5-1.1
					c-0.3,0.2-0.6,0.3-0.8,0.5C32,82.6,32.3,83.5,33,83.4c0.3-0.1,0.6-0.3,1-0.4c-0.1-0.4-0.3-0.7-0.5-1.1c-0.4,0.2-0.7,0.3-1.1,0.5
					C31.7,82.7,32.3,83.7,33,83.4L33,83.4z"/>
			</g>
		</g>
	</g>
	<g>
		<g>
			<g>
				<path class="st0" d="M35.2,88.3c0.3-0.1,0.6-0.3,0.9-0.5c-0.2-0.3-0.5-0.6-0.7-0.9c-0.3,0.3-0.5,0.5-0.7,0.8
					c-0.4,0.5,0,1.1,0.6,1c0.2,0,0.3-0.1,0.6-0.2c-0.2-0.3-0.5-0.6-0.7-0.9c-0.2,0.2-0.3,0.4-0.5,0.6c-0.4,0.5,0.3,1.1,0.8,0.8
					c0,0,0.1-0.1,0.2-0.1c-0.3-0.3-0.6-0.6-0.8-0.8c-0.1,0.1-0.1,0.1-0.2,0.2c-0.5,0.4,0.2,1.4,0.7,0.9c0.1,0,0.1-0.1,0.2-0.2
					c-0.3-0.3-0.6-0.6-0.8-0.8c0,0,0.1-0.1,0.1-0.1c0.2,0.3,0.4,0.7,0.6,1c0.8-0.7,1.6-1.2,2.4-1.7c-0.2-0.3-0.4-0.7-0.6-1
					c-0.5,0.3-1,0.7-1.5,1c-0.7,0.4-0.1,1.4,0.6,1c0.8-0.3,1.5-0.7,2.2-1.2c0.7-0.4,0.1-1.4-0.6-1c-0.5,0.2-0.9,0.5-1.4,0.8
					c-0.7,0.4-0.1,1.4,0.6,1c0.8-0.3,1.6-0.7,2.4-1c-0.1-0.4-0.2-0.8-0.3-1.2c-0.5,0.2-1,0.4-1.5,0.6c-0.6,0.2-0.6,1.2,0.2,1.2
					c0.9,0,1.9-0.6,2.8-0.5c0-0.4,0-0.8,0-1.2c-0.1,0-0.2,0-0.3,0.1c-0.6,0.2-0.5,0.9,0,1.2c0.3,0.1,0.5,0,0.7-0.1
					c0.7-0.3,0.1-1.4-0.6-1c0.1,0,0.1,0,0.2,0c0,0.4,0,0.8,0,1.2c0.1,0,0.2,0,0.3-0.1c0.6-0.1,0.6-1.1,0-1.2c-1.1-0.2-2,0.4-3.1,0.4
					c0,0.4,0.1,0.8,0.2,1.2c0.5-0.2,1-0.4,1.5-0.6c0.7-0.3,0.4-1.5-0.3-1.2c-0.9,0.3-1.8,0.7-2.7,1.1c0.2,0.3,0.4,0.7,0.6,1
					c0.5-0.2,0.9-0.5,1.4-0.8c-0.2-0.3-0.4-0.7-0.6-1c-0.7,0.4-1.4,0.8-2.2,1.2c0.2,0.3,0.4,0.7,0.6,1c0.5-0.3,1-0.7,1.5-1
					c0.7-0.4,0.1-1.5-0.6-1c-0.9,0.6-1.9,1.1-2.7,1.9c-0.5,0.4,0,1.2,0.6,1c0.3-0.1,0.4-0.2,0.6-0.5c0.3-0.5-0.3-1.2-0.8-0.8
					c-0.1,0-0.1,0.1-0.2,0.2c0.2,0.3,0.5,0.6,0.7,0.9c0.2-0.1,0.3-0.2,0.4-0.4c0.3-0.5-0.3-1.1-0.8-0.8c0,0-0.1,0.1-0.2,0.1
					c0.3,0.3,0.6,0.6,0.8,0.8c0.1-0.1,0.2-0.2,0.3-0.4c0.5-0.5-0.1-1.2-0.7-0.9c-0.1,0-0.2,0-0.3,0.1c0.2,0.3,0.4,0.7,0.6,1
					c0.2-0.3,0.5-0.5,0.7-0.8c0.5-0.5-0.1-1.3-0.7-0.9c-0.3,0.1-0.6,0.3-0.9,0.5C33.9,87.6,34.5,88.6,35.2,88.3L35.2,88.3z"/>
			</g>
		</g>
	</g>
	<g>
		<g>
			<g>
				<path class="st0" d="M40.6,86.4c0,0.2,0,0.3,0,0.5c-0.1,0.1-0.1,0.1-0.2,0.2c0,0,0,0,0,0c0.1-0.1,0.2-0.2,0.3-0.4
					c0-0.1,0-0.3-0.1-0.5c-0.2-0.2-0.6-0.4-0.8-0.2c-0.1,0.1-0.3,0.2-0.3,0.4c0,0.2,0,0.4,0.1,0.5c0.1,0.1,0.2,0.2,0.4,0.3
					c0.1,0,0.3,0,0.5-0.1C40.7,87,40.8,86.7,40.6,86.4L40.6,86.4z"/>
			</g>
		</g>
	</g>
	<g>
		<path class="st0" d="M110.1,89.7l1.4-0.4l1.8-0.8l1.2-1l1-0.9l0.7-0.8v-1.2l-0.7-1.4l-3.4-1.7l-2.8-1.1c0,0-3.5-1-3.7-1
			c-0.2,0-2.4-0.6-2.4-0.6l0.1,8.1C103.5,86.8,108.2,86.3,110.1,89.7z"/>
	</g>
	<g>
		<g>
			<g>
				<path class="st0" d="M104.5,79.3c-0.1-0.1-0.3-0.3-0.5-0.4c0,0.1-0.1,0.2-0.1,0.2C104.2,79.2,104.4,79.3,104.5,79.3
					c0.1,0,0.1-0.1,0.2-0.2c-0.3,0-0.6-0.2-0.8-0.4c0,0.1-0.1,0.2-0.1,0.3c0.6,0.1,1.1,0.2,1.7,0.4c0-0.1,0-0.2,0-0.3
					c-0.4,0-0.8-0.1-1.3-0.3c-0.2-0.1-0.3,0.2-0.1,0.3c2,0.7,4,0.8,6,1.6c1.7,0.8,4,1.5,5.1,3c0.1-0.1,0.2-0.1,0.2-0.2
					c-1.6-1.3-3.4-2.3-5.3-3c0,0.1,0,0.2-0.1,0.3c0.9,0.2,1.9,0.5,2.8,0.9c0.2,0.1,0.3-0.2,0.1-0.3c-0.5-0.2-1-0.5-1.5-0.7
					c-0.2-0.1-0.3,0.1-0.1,0.3c0.6,0.4,1,0.8,1.5,1.3c0.1,0.1,0.3-0.1,0.2-0.2c-0.5-0.5-0.9-0.9-1.5-1.3c0,0.1-0.1,0.2-0.1,0.3
					c0.5,0.2,1,0.5,1.5,0.7c0-0.1,0.1-0.2,0.1-0.3c-0.9-0.4-1.8-0.7-2.8-0.9c-0.2,0-0.3,0.2-0.1,0.3c1.9,0.7,3.7,1.6,5.2,2.9
					c0.1,0.1,0.3,0,0.2-0.2c-1.1-1.5-3.2-2.2-4.9-3c-2-0.9-4.2-1.1-6.3-1.8c0,0.1,0,0.2-0.1,0.3c0.5,0.1,0.9,0.2,1.3,0.3
					c0.2,0,0.2-0.3,0-0.3c-0.6-0.1-1.1-0.2-1.7-0.4c-0.2,0-0.3,0.2-0.1,0.3c0.3,0.2,0.6,0.3,0.9,0.4c0.2,0,0.3-0.2,0.1-0.3
					c-0.4-0.2-0.3-0.2-0.8-0.2c-0.1,0-0.3,0.1-0.1,0.2c0.1,0.1,0.3,0.3,0.5,0.4C104.5,79.6,104.7,79.4,104.5,79.3L104.5,79.3z"/>
			</g>
		</g>
	</g>
	<g>
		<g>
			<g>
				<path class="st0" d="M116.1,85.3c0.1,0,0.2-0.1,0.4-0.2c0-0.1-0.1-0.2-0.1-0.3c0,0-0.1,0-0.1,0.1c-0.2,0.1,0,0.3,0.1,0.3
					c0,0,0.1,0,0.1-0.1c0.2-0.1,0-0.3-0.1-0.3c-0.1,0-0.2,0.1-0.4,0.2C115.8,85.1,116,85.4,116.1,85.3L116.1,85.3z"/>
			</g>
		</g>
	</g>
	<g>
		<g>
			<g>
				<path class="st0" d="M29.1,85.1c-0.1,0-0.2,0-0.3,0c0,0.1,0,0.2,0,0.3C28.9,85.4,29,85.2,29.1,85.1c0-0.2,0.1-0.5,0.2-0.7
					c0-0.2-0.2-0.2-0.3-0.1c-0.2,0.3-0.3,0.6-0.2,0.9C28.9,85.2,29,85.2,29.1,85.1c0-0.1-0.3-0.2-0.4,0s0.1,0.4,0.2,0.3
					c0-0.1-0.1-0.2-0.1-0.3c-0.1,0-0.1,0-0.2,0.1c-0.1,0.1-0.1,0.3,0.1,0.3c0.4,0,0.8,0,1.1,0c0.2,0,0.2-0.3,0-0.3
					c-0.4,0-0.8,0-1.1,0c0,0.1,0,0.2,0.1,0.3c0.1,0,0.1,0,0.2-0.1c0.1-0.1,0-0.3-0.1-0.3c0,0,0.1,0,0.1,0.1c0,0,0,0.1-0.1,0.1l0,0
					c0,0-0.1,0-0.1,0c0,0,0,0,0-0.1c0,0.2,0.3,0.2,0.3,0c0-0.3,0-0.6,0.2-0.8c-0.1,0-0.2-0.1-0.3-0.1c0,0.1-0.1,0.3-0.1,0.4
					c0,0-0.1,0.4-0.1,0.4c-0.2,0-0.2,0.3,0,0.3c0.1,0,0.3,0,0.4,0C29.4,85.3,29.3,85,29.1,85.1L29.1,85.1z"/>
			</g>
		</g>
	</g>
</g>
</svg>
