<?xml version="1.0" encoding="utf-8"?>
<!-- Generator: Adobe Illustrator 24.0.1, SVG Export Plug-In . SVG Version: 6.00 Build 0)  -->
<svg version="1.1" id="Layer_1" xmlns="http://www.w3.org/2000/svg" xmlns:xlink="http://www.w3.org/1999/xlink" x="0px" y="0px"
	 viewBox="0 0 141.7 141.7" style="enable-background:new 0 0 141.7 141.7;" xml:space="preserve">
<style type="text/css">
	.st0{fill:#070707;}
	.st1{enable-background:new    ;}
</style>
<g id="Layer_1_1_">
</g>
<g id="Layer_1_2_">
</g>
<g id="Layer_1_3_">
</g>
<g id="Layer_3">
	<g>
		<g>
			<g>
				<g>
					<path d="M57.9,26.6L57.9,26.6c-6.7,1.6-13,4.6-18.7,8.7l0.3,0.3c5.6-4,11.8-6.9,18.4-8.6C58,26.9,57.9,26.7,57.9,26.6z"/>
				</g>
				<g>
					<path d="M71.3,24.8c-0.5,0-1.1,0-1.6,0c0,0.1,0,0.2,0,0.2c0,0.1,0,0.2,0,0.2c0.5,0,1.1,0,1.6,0c8,0,15.6,1.7,22.6,4.9
						c0.1-0.1,0.3-0.1,0.5-0.1h0c0.1,0,0.1,0,0.2,0h0.1C87.6,26.7,79.6,24.8,71.3,24.8z"/>
				</g>
				<g>
					<path d="M116.3,48.3h-0.4c-0.1,0-0.1,0-0.2,0c6.4,9.1,9.9,19.9,9.9,31.3c0,14.5-5.6,28.1-15.9,38.4s-23.9,15.9-38.4,15.9
						s-28.1-5.6-38.4-15.9S17.1,94.1,17.1,79.6c0-10.3,2.9-20.1,8.2-28.7c0,0,0,0,0,0c0,0,0,0-0.1-0.1c-0.1-0.1-0.1-0.1-0.2-0.2l0,0
						c-5.4,8.6-8.3,18.6-8.3,29c0,14.6,5.7,28.4,16,38.7s24.1,16,38.7,16s28.4-5.7,38.7-16s16-24.1,16-38.7
						C126.1,68.2,122.6,57.4,116.3,48.3z"/>
				</g>
			</g>
			<g>
				<g>
					<path class="st0" d="M41.5,79c0-1.4,2.7-2.9,7.5-3.9c0-0.1,0-0.2,0-0.3c-4.9,1.1-7.8,2.6-7.8,4.3c0,1.2,1.4,2.2,4.1,3.2
						c0,0,0,0,0,0c0.1-0.1,0.1-0.2,0.2-0.3c0-0.1,0.1-0.2,0.2-0.2c-0.1,0.1-0.2,0.2-0.4,0.3C42.9,81,41.5,80,41.5,79z"/>
				</g>
				<g>
					<path class="st0" d="M90.5,74.5c0,0.1,0,0.2,0,0.3c0,0,0,0,0.1,0c5.3,1.1,8.3,2.6,8.3,4.1c0,1-1.3,2-3.8,2.9
						c0-0.1-0.1-0.2-0.3-0.3c0.1,0.1,0.2,0.2,0.2,0.3c0.1,0.1,0.1,0.2,0.1,0.3c2.6-1,4-2,4-3.2C99.1,77.2,95.9,75.7,90.5,74.5z"/>
				</g>
				<g>
					<path class="st0" d="M90.7,83c-5.4,1.2-12.8,1.8-20.6,1.8c-7.9,0-15.2-0.6-20.7-1.8c0-0.1,0-0.2,0-0.3
						c-0.1,0.1-0.2,0.3-0.3,0.5c0,0-0.1,0.1-0.1,0.1l0.1,0c5.5,1.2,12.9,1.9,20.9,1.9c7.8,0,15.4-0.7,20.8-1.8
						C90.9,83.3,90.8,83.2,90.7,83z"/>
				</g>
			</g>
			<g>
				<g>
					<path class="st0" d="M87.4,54.1c-2-3.6-5.6-5.9-9.4-6.9c-2.4-0.6-4.9-0.7-7.4-0.5c-2.7,0.2-5.4,0.4-8,0.8
						c-3.9,0.5-7.6,2.6-10,5.7c-2.7,3.4-3.7,7.7-4,12c-0.4,6,0.6,12,0.6,18c0,0.3,0.4,0.3,0.4,0c0-9-2.7-19.3,1.9-27.6
						c2-3.6,5.4-6.3,9.5-7.3c2.3-0.5,4.7-0.7,6.9-0.9c2.4-0.2,4.8-0.5,7.2-0.2c4.7,0.5,9.5,3,11.8,7.2
						C87.2,54.6,87.6,54.3,87.4,54.1L87.4,54.1z"/>
				</g>
			</g>
			<g>
				<g>
					<path class="st0" d="M62.6,47.9c0.3,0,0.3-0.4,0-0.4C62.3,47.4,62.3,47.9,62.6,47.9L62.6,47.9z"/>
				</g>
			</g>
			<g>
				<g>
					<path class="st0" d="M49.5,59.4c-3.2-0.3-5.1-3.7-3.1-6.4c0.8-1.1,2-1.8,3.3-2.1c1.3-0.2,3.1-0.2,4,0.9
						c0.2,0.2,0.5-0.1,0.3-0.3c-1-1.2-2.8-1.3-4.2-1.1c-1.6,0.2-3.1,1.2-4,2.6c-1.9,3,0.3,6.5,3.7,6.8
						C49.8,59.9,49.8,59.4,49.5,59.4L49.5,59.4z"/>
				</g>
			</g>
			<g>
				<g>
					<path class="st0" d="M84.5,50.8c2.3-1.2,5.9-1.7,7.5,0.8c1.5,2.5,0.6,6.3-2.6,6.8c-0.3,0-0.2,0.5,0.1,0.4
						c3.3-0.6,4.4-4.6,3-7.3c-1.6-3-5.6-2.5-8.2-1.2C84,50.5,84.3,50.9,84.5,50.8L84.5,50.8z"/>
				</g>
			</g>
			<g>
				<g>
					<path class="st0" d="M66.7,63.1c0.1,0,0.1,0,0.2,0c0-0.1,0-0.1,0-0.2c-0.2,0.1-0.4,0.1-0.6,0.1c-0.3,0.1-0.6,0.4-0.9,0.6
						c-0.5,0.4-1.1,1-1.4,1.6c-0.5,1.5,1.2,2.3,2.4,2.2c1.1,0,2-0.5,3.1-0.7c1.1-0.1,2,0.3,3,0.5c1.3,0.3,2.5-0.5,2.3-2
						c-0.3-1.6-2.2-2.4-3.5-2.9c-0.1,0-0.2,0.2,0,0.2c1.3,0.5,3.8,1.6,3.3,3.4c-0.6,2.1-3.2,0.4-4.7,0.5c-0.8,0-1.6,0.4-2.5,0.5
						c-1,0.2-3,0.3-3.3-1.1c-0.2-0.9,0.7-1.7,1.3-2.2c0.3-0.2,0.6-0.5,1-0.7c0.2-0.1,0.4-0.1,0.5-0.1c0.1,0,0-0.2,0-0.2
						c-0.1,0-0.1,0-0.2,0C66.5,62.9,66.6,63.1,66.7,63.1L66.7,63.1z"/>
				</g>
			</g>
			<g>
				<g>
					<path class="st0" d="M71.9,67.2c0.3,0.9,0.5,1.9,0.2,2.9c-0.2,0.7-0.9,1.2-1.6,1C70,71,69.9,70.5,69.6,70
						c-0.1-0.1-0.2,0-0.2,0.1c0.2,0.4,0.4,1,0.9,1.2c0.4,0.2,1,0,1.4-0.2c1.2-0.8,0.8-2.9,0.4-3.9C72.1,67,71.9,67.1,71.9,67.2
						L71.9,67.2z"/>
				</g>
			</g>
			<g>
				<g>
					<path class="st0" d="M90.3,69.6c0.4-0.2,1,0,1.5,0c0.6-0.1,1.3-0.3,1.8-0.7c0.9-0.6,1.6-1.6,1.4-2.7c-0.1-0.8-0.6-1.3-1.4-1.3
						c-1.4,0-2.4,0.9-3.3,1.8c-0.1,0.1,0,0.2,0.1,0.1c0.8-0.7,1.6-1.5,2.6-1.7c1.6-0.3,2.1,1.3,1.4,2.5c-0.6,1-1.7,1.6-2.8,1.7
						c-0.5,0-1.1-0.1-1.5,0.1C90.1,69.4,90.2,69.6,90.3,69.6L90.3,69.6z"/>
				</g>
			</g>
			<g>
				<g>
					<path class="st0" d="M92.6,67c0.9-0.3,1.8-1,1.3-2c-0.1-0.1-0.2,0-0.2,0.1c0.4,0.9-0.4,1.5-1.2,1.7C92.4,66.8,92.5,67,92.6,67
						L92.6,67z"/>
				</g>
			</g>
			<g>
				<path class="st0" d="M77.4,63c-3.6,0-6.6-3-6.6-6.6s3-6.6,6.6-6.6c3.6,0,6.6,3,6.6,6.6S81,63,77.4,63z M77.4,50.2
					c-3.4,0-6.2,2.8-6.2,6.2c0,3.4,2.8,6.2,6.2,6.2c3.4,0,6.2-2.8,6.2-6.2C83.6,53,80.8,50.2,77.4,50.2z"/>
			</g>
			<g>
				<path class="st0" d="M61.2,63.7c-3.6,0-6.6-3-6.6-6.6c0-3.6,3-6.6,6.6-6.6c1.8,0,3.5,0.7,4.7,2c1.2,1.2,1.9,2.9,1.9,4.7
					C67.8,60.7,64.8,63.7,61.2,63.7z M61.2,50.8c-3.4,0-6.2,2.8-6.2,6.2c0,3.4,2.8,6.2,6.2,6.2c3.4,0,6.2-2.8,6.2-6.2
					c0-1.7-0.6-3.2-1.8-4.4C64.4,51.5,62.9,50.8,61.2,50.8z"/>
			</g>
			<g>
				<path class="st0" d="M89.7,53.9c0-0.8-0.6-1.4-1.4-1.4c-0.8,0-1.4,0.6-1.4,1.4c0,0.8,0.6,1.4,1.4,1.4S89.7,54.6,89.7,53.9z"/>
			</g>
			<g>
				<circle class="st0" cx="50.1" cy="55.1" r="1.4"/>
			</g>
			<g>
				<path class="st0" d="M72.2,62.4c0-0.9-1.3-1.6-2.9-1.6s-2.9,0.7-2.9,1.6s1.3,1.6,2.9,1.6C70.9,63.9,72.2,63.2,72.2,62.4z"/>
			</g>
			<g>
				<path class="st0" d="M75.3,56.4c0,1.2,0.9,2.1,2.1,2.1s2.1-0.9,2.1-2.1s-0.9-2.1-2.1-2.1C76.2,54.3,75.3,55.3,75.3,56.4z
					 M78.7,55.6c0,0.3-0.3,0.6-0.6,0.6c-0.3,0-0.6-0.3-0.6-0.6c0-0.3,0.3-0.6,0.6-0.6C78.5,55,78.7,55.3,78.7,55.6z"/>
			</g>
			<g>
				<path class="st0" d="M59.3,57.1c0,1.2,0.9,2.1,2.1,2.1s2.1-0.9,2.1-2.1c0-1.2-0.9-2.1-2.1-2.1C60.2,55,59.3,55.9,59.3,57.1z
					 M62.7,56.3c0,0.3-0.3,0.6-0.6,0.6c-0.3,0-0.6-0.3-0.6-0.6s0.3-0.6,0.6-0.6C62.5,55.7,62.7,55.9,62.7,56.3z"/>
			</g>
			<g>
				<g>
					<path class="st0" d="M69.5,66.8c0.1,0.8,0.1,1.8,0,2.6c-0.1,1-0.8,2.6-2.1,1.6c-1-0.8-0.7-2.6-0.4-3.6c0-0.1-0.2-0.2-0.2,0
						c-0.4,1.2-0.6,3.8,1.1,4.2c2.2,0.5,2-3.5,1.8-4.7C69.7,66.6,69.5,66.6,69.5,66.8L69.5,66.8z"/>
				</g>
			</g>
			<g>
				<g>
					<path class="st0" d="M45.3,84.1c-1.3-0.7,0-2,0.8-2.5c0.9-0.6,2.1-1.1,3.2-0.9c0.1,0,0.2-0.2,0-0.2c-1.5-0.2-3,0.4-4.1,1.4
						c-0.7,0.7-1.2,1.7-0.1,2.3C45.3,84.4,45.4,84.2,45.3,84.1L45.3,84.1z"/>
				</g>
			</g>
			<g>
				<g>
					<path class="st0" d="M46.3,83.2c-0.4,0.2-1,0.6-1,1.1c0,0.5,0.5,0.8,0.9,0.8c1.2,0.2,2.6-1.2,3.2-2c0.1-0.1-0.1-0.2-0.2-0.1
						c-0.5,0.7-1.3,1.4-2,1.7c-0.5,0.2-1.3,0.4-1.6-0.2c-0.3-0.5,0.4-1,0.8-1.2C46.5,83.3,46.4,83.2,46.3,83.2L46.3,83.2z"/>
				</g>
			</g>
			<g>
				<g>
					<path class="st0" d="M86.8,53.6c3.1,3.9,3.1,9,3.2,13.7c0.2,5.2,0.1,10.5,0.3,15.7c0,0.3,0.5,0.3,0.4,0
						c-0.2-5.6-0.1-11.2-0.4-16.7c-0.2-4.5-0.4-9.3-3.3-13C86.9,53.1,86.6,53.4,86.8,53.6L86.8,53.6z"/>
				</g>
			</g>
			<g>
				<g>
					<path class="st0" d="M54.1,86.9c-2-0.6-4.1-0.4-6,0.6c-0.1,0-0.1,0.1,0,0.2c0.9,0.5,1.9,0.7,2.9,0.9c0.9,0.1,2.1,0.3,3.1,0.1
						c0.5-0.1,1-0.4,1-1c0-0.5-0.4-0.8-0.9-0.7c-0.1,0-0.1,0.2,0,0.2c0.1,0.4,0.1,0.7,0.2,1.1c-0.2,0.1-0.5,0.1-0.7,0.2
						c-0.2,0-0.5,0-0.7,0c-0.5,0-0.9,0-1.4-0.1c-0.2,0-3.2-0.3-3.2-0.8c0-0.5,2-0.8,2.4-0.9c1.1-0.1,2.1,0,3.1,0.3
						C54.2,87.2,54.2,86.9,54.1,86.9L54.1,86.9z"/>
				</g>
			</g>
			<g>
				<g>
					<path class="st0" d="M55.4,89.5c-0.5-0.3-1.2-0.2-1.7,0.2c0,0,0,0.1,0,0.2c0.6,0.4,1.4,0.4,2,0.1c0,0,0.1-0.1,0-0.1
						c-0.1-0.2-0.3-0.4-0.6-0.5c-0.1,0-0.2,0.2,0,0.2c0.2,0,0.3,0.2,0.4,0.4c0,0,0-0.1,0-0.1c-0.6,0.3-1.2,0.3-1.8-0.1
						c0,0,0,0.1,0,0.2c0.4-0.4,0.9-0.4,1.4-0.1C55.4,89.8,55.5,89.6,55.4,89.5L55.4,89.5z"/>
				</g>
			</g>
			<g>
				<g>
					<path class="st0" d="M90.7,83.3c1.7-0.3,3.4-0.7,5-1.3c0.1,0,0.1-0.3,0-0.2c-1.6,0.6-3.3,1-5,1.3
						C90.5,83.1,90.5,83.3,90.7,83.3L90.7,83.3z"/>
				</g>
			</g>
			<g>
				<g>
					<path class="st0" d="M90.6,83.4c1.7-0.3,3.4-0.8,5-1.5c0.1,0,0-0.2-0.1-0.2c-1.6,0.7-3.2,1.2-4.9,1.5
						C90.4,83.3,90.4,83.5,90.6,83.4L90.6,83.4z"/>
				</g>
			</g>
			<g>
				<g>
					<path class="st0" d="M90.8,83.2c0.9-0.3,1.8-0.6,2.8-0.9c0-0.1,0-0.1-0.1-0.2c-0.7,0.3-1.4,0.5-2.1,0.6c-0.1,0-0.1,0.2,0,0.2
						c0.8-0.1,1.6-0.3,2.3-0.6c0.1,0,0.1-0.2,0-0.2c-0.5,0.1-1.1,0.2-1.6,0.4c-0.1,0-0.1,0.2,0,0.2c0.6-0.1,1.3-0.3,1.9-0.5
						c0.1,0,0.1-0.3,0-0.2c-0.6,0.2-1.2,0.4-1.9,0.5c0,0.1,0,0.1,0,0.2c0.5-0.2,1.1-0.3,1.6-0.4c0-0.1,0-0.1,0-0.2
						c-0.8,0.2-1.5,0.4-2.3,0.6c0,0.1,0,0.1,0,0.2c0.7-0.2,1.5-0.3,2.1-0.6c0.1,0,0-0.2-0.1-0.2c-1,0.2-1.9,0.5-2.8,0.9
						C90.6,83,90.7,83.3,90.8,83.2L90.8,83.2z"/>
				</g>
			</g>
			<g>
				<g>
					<path class="st0" d="M99,78.8C99,78.8,99,78.8,99,78.8c0,0.1,0,0.1,0,0.1l0,0c0,0,0.1,0,0.1,0l0,0c0,0,0-0.1,0-0.1l0,0
						C99.2,78.7,99,78.7,99,78.8c0,0.1-0.1,0.2-0.1,0.3c0,0,0.1,0.1,0.2,0.1c0,0,0.1-0.1,0.1-0.1c-0.1,0-0.1,0-0.2-0.1
						c0,0,0,0.1-0.1,0.1c0,0,0.1,0.1,0.2,0.1c0-0.1,0.1-0.2,0.1-0.3c-0.1,0-0.1,0-0.2-0.1c-0.1,0.2-0.1,0.4-0.3,0.5
						c0,0,0.1,0.1,0.2,0.1c0.1-0.2,0.3-0.5,0.4-0.7C99.2,78.9,99.1,78.8,99,78.8c0,0.4-0.1,0.8-0.5,1c0,0,0.1,0.1,0.1,0.1
						c0.3-0.3,0.5-0.7,0.6-1.1C99.3,78.8,99.2,78.8,99,78.8c0,1.1-1.1,1.6-1.9,2c-0.1,0,0,0.2,0.1,0.2c1-0.5,2-1,2.1-2.2
						C99.4,78.7,99.1,78.7,99,78.8c0,0.4-0.2,0.7-0.5,1c-0.1,0.1,0,0.2,0.1,0.1c0.4-0.3,0.6-0.7,0.6-1.1
						C99.3,78.7,99.1,78.7,99,78.8c-0.1,0.3-0.2,0.5-0.3,0.7c-0.1,0.1,0.1,0.2,0.2,0.1c0.2-0.2,0.3-0.4,0.4-0.6
						c0-0.1-0.1-0.2-0.2-0.1c0,0.1-0.1,0.2-0.1,0.3c0,0.1,0.1,0.2,0.2,0.1c0.1-0.1,0.2-0.2,0.2-0.3c0-0.1-0.1-0.1-0.2-0.1
						c-0.1,0.1-0.1,0.1-0.1,0.2c0,0.1,0.1,0.2,0.2,0.1c0.1-0.1,0.2-0.2,0.2-0.4c-0.1,0-0.1,0-0.2,0C99,78.9,99,78.9,99,78.8
						c0.1,0,0.1,0,0.2,0c0,0,0,0,0,0.1C99.3,78.8,99.1,78.7,99,78.8L99,78.8z"/>
				</g>
			</g>
			<g>
				<g>
					<path class="st0" d="M41.1,78.9c-0.1,0.3,0,0.5,0.1,0.8c0.1,0.1,0.2,0,0.2-0.1c-0.1-0.2-0.1-0.3-0.2-0.5c0-0.1-0.2-0.1-0.2,0
						c0,0.3,0,0.5,0.2,0.7c0.1,0.1,0.2,0,0.2-0.1c0-0.2-0.1-0.3-0.1-0.5c0-0.1-0.2-0.2-0.2,0c-0.2,0.7,0.6,1.2,1,1.5
						c0.7,0.5,1.5,0.8,2.4,0.9c0.1,0,0.1-0.2,0-0.2c-0.6-0.1-1.3-0.2-1.8-0.6c-0.5-0.2-1.6-0.9-1.4-1.6c-0.1,0-0.1,0-0.2,0
						c0,0.2,0.1,0.4,0.2,0.6c0,0,0.1-0.1,0.2-0.1c0-0.1-0.1-0.3-0.1-0.5c-0.1,0-0.1,0-0.2,0c0.1,0.2,0.1,0.3,0.2,0.5
						c0.1,0,0.1,0,0.2-0.1c0-0.2-0.1-0.4-0.1-0.6C41.4,78.8,41.2,78.7,41.1,78.9L41.1,78.9z"/>
				</g>
			</g>
			<g>
				<g>
					<path class="st0" d="M41.2,78.9c-0.1,0.2-0.1,0.3-0.1,0.5c0,0.1,0.2,0.1,0.2,0c0-0.1,0-0.2,0-0.3c0-0.1-0.2-0.1-0.2,0
						c0,0.1,0,0.2,0,0.3c0,0.1,0.2,0.1,0.2,0c0-0.1,0-0.1,0-0.2c0-0.1-0.2,0-0.2,0.1c0,0.1,0,0.1,0,0.2c0,0.1,0.2,0.1,0.2,0
						c0-0.1,0-0.2-0.1-0.3c0-0.1-0.2-0.1-0.2,0c-0.1,0.4,0.2,0.6,0.4,0.9c0.3,0.3,0.7,0.6,1.1,0.8c0.1,0.1,0.2-0.1,0.1-0.2
						c-0.3-0.1-0.5-0.3-0.8-0.5c-0.2-0.2-0.8-0.5-0.7-0.9c-0.1,0-0.1,0-0.2,0c0,0.1,0,0.1,0,0.2c0.1,0,0.1,0,0.2,0
						c0-0.1,0-0.1,0-0.2c-0.1,0-0.1,0-0.2,0.1c0,0,0,0.1,0,0.1c0.1,0,0.1,0,0.2,0c0-0.1,0-0.2,0-0.3c-0.1,0-0.1,0-0.2,0
						c0,0.1,0,0.2,0,0.3c0.1,0,0.1,0,0.2,0c0-0.1,0-0.3,0.1-0.4C41.4,78.8,41.2,78.7,41.2,78.9L41.2,78.9z"/>
				</g>
			</g>
			<g>
				<path class="st0" d="M92.2,73.7c-0.1,0-0.2,0-0.3,0l-0.1,0c-0.4-0.1-0.7-0.3-0.9-0.6c-0.2-0.3-0.3-0.7-0.2-1l4.4-25.7
					c0.1-0.4,0.3-0.7,0.6-0.9c0.3-0.2,0.7-0.3,1-0.2l0.1,0c0.4,0.1,0.7,0.3,0.9,0.6c0.2,0.3,0.3,0.7,0.2,1l-4.4,25.7
					C93.4,73.3,92.9,73.7,92.2,73.7z M92.5,72.4L92.5,72.4C92.5,72.4,92.5,72.4,92.5,72.4z M96.2,46.6
					C96.2,46.6,96.2,46.6,96.2,46.6L96.2,46.6z"/>
			</g>
			<g>
				<path class="st0" d="M116.1,48.8c-0.2,0-0.3,0-0.5,0l-37.4-5.9c-0.8-0.1-1.6-0.6-2.1-1.3c-0.5-0.7-0.7-1.5-0.6-2.4l1.4-9
					c0.3-1.7,1.9-2.9,3.7-2.7l37.4,5.9c0.9,0.1,1.6,0.6,2.1,1.3c0.5,0.7,0.7,1.5,0.6,2.4l-1.4,9c-0.1,0.8-0.6,1.6-1.3,2.1
					C117.4,48.6,116.8,48.8,116.1,48.8z M80.1,28.1c-0.6,0-1.1,0.2-1.6,0.5c-0.6,0.4-1,1.1-1.1,1.8l-1.4,9c-0.1,0.7,0.1,1.4,0.5,2
					c0.4,0.6,1.1,1,1.8,1.1l37.4,5.9c0.7,0.1,1.4-0.1,2-0.5c0.6-0.4,1-1.1,1.1-1.8l1.4-9c0.1-0.7,0-1.4-0.5-2
					c-0.4-0.6-1.1-1-1.8-1.1l0,0l-37.4-5.9C80.4,28.1,80.3,28.1,80.1,28.1z"/>
			</g>
			<g>
				<path class="st0" d="M115,47.5c-0.2,0-0.4,0-0.6,0l-34.3-5.4c-1-0.2-1.9-0.7-2.5-1.5c-0.6-0.8-0.8-1.8-0.7-2.8l0.8-5.1
					c0.3-2.1,2.3-3.5,4.4-3.2l34.3,5.4c1,0.2,1.9,0.7,2.5,1.5c0.6,0.8,0.9,1.8,0.7,2.8l-0.8,5.1C118.5,46.2,116.8,47.5,115,47.5z
					 M81.5,31.1c-0.4,0-0.9,0.1-1.2,0.4c-0.5,0.3-0.8,0.8-0.8,1.4L78.6,38c-0.2,1.1,0.6,2.2,1.7,2.4l34.3,5.4
					c0.5,0.1,1.1-0.1,1.6-0.4c0.5-0.3,0.8-0.8,0.8-1.4l0.8-5.1c0.1-0.5-0.1-1.1-0.4-1.6c-0.3-0.5-0.8-0.8-1.4-0.8l0,0l-34.3-5.4
					C81.7,31.1,81.6,31.1,81.5,31.1z"/>
			</g>
			<g class="st1">
				<path d="M83.5,34l-0.4,1.4l-0.4-0.1l0.1-1.5L83.5,34z M84.4,34.1L84,35.5l-0.4-0.1l0.1-1.5L84.4,34.1z"/>
				<path d="M84.5,37.7l0.6-3.5l0.7,0.1l-0.2,1.3l1.4,0.2l0.2-1.3l0.7,0.1l-0.6,3.5l-0.7-0.1l0.3-1.6l-1.4-0.2l-0.3,1.6L84.5,37.7z"
					/>
				<path d="M90.1,36c0.2,0.1,0.3,0.3,0.4,0.5c0.1,0.2,0.1,0.4,0.1,0.6c0,0.1,0,0.3-0.1,0.5l-1.9-0.3c0,0.3,0,0.5,0.2,0.6
					c0.1,0.1,0.2,0.1,0.4,0.2c0.2,0,0.3,0,0.4-0.1c0.1,0,0.1-0.1,0.2-0.2l0.7,0.1c0,0.2-0.2,0.3-0.3,0.4c-0.3,0.2-0.6,0.3-1,0.2
					c-0.3-0.1-0.6-0.2-0.9-0.5C88,37.8,87.9,37.5,88,37c0.1-0.4,0.2-0.8,0.5-1c0.3-0.2,0.6-0.3,1-0.2C89.7,35.9,89.9,35.9,90.1,36z
					 M89,36.5c-0.1,0.1-0.2,0.2-0.2,0.4l1.2,0.2c0-0.2,0-0.3-0.1-0.4c-0.1-0.1-0.2-0.2-0.4-0.2C89.3,36.3,89.1,36.4,89,36.5z"/>
				<path d="M91.4,38.9l-0.7-0.1l0.6-3.5l0.7,0.1L91.4,38.9z"/>
				<path d="M92.7,39.1L92.1,39l0.6-3.5l0.7,0.1L92.7,39.1z"/>
				<path d="M95.6,39.2c-0.3,0.2-0.6,0.3-1.1,0.2c-0.4-0.1-0.8-0.3-0.9-0.6c-0.2-0.3-0.2-0.6-0.2-1c0.1-0.4,0.2-0.7,0.5-0.9
					c0.3-0.2,0.6-0.3,1.1-0.2c0.4,0.1,0.8,0.3,0.9,0.6c0.2,0.3,0.2,0.7,0.2,1C96,38.7,95.9,39,95.6,39.2z M95.1,38.8
					c0.1-0.1,0.2-0.3,0.3-0.6c0-0.3,0-0.5-0.1-0.6c-0.1-0.2-0.2-0.3-0.4-0.3c-0.2,0-0.4,0-0.5,0.1s-0.2,0.3-0.3,0.6
					c0,0.3,0,0.5,0.1,0.6c0.1,0.2,0.2,0.3,0.4,0.3C94.8,38.9,95,38.9,95.1,38.8z"/>
				<path d="M98.8,36.5l0.1,2.1l0,0.6l0.2-0.5l0.7-1.9l0.8,0.1l0.1,2.1l0,0.6l0.2-0.5l0.8-1.9l0.7,0.1l-1.6,3.3l-0.7-0.1l-0.1-2.1
					l0-0.7l-0.2,0.7l-0.8,2L98.5,40l-0.4-3.7L98.8,36.5z"/>
				<path d="M104.4,40.7c-0.3,0.2-0.6,0.3-1.1,0.2c-0.4-0.1-0.8-0.3-0.9-0.6c-0.2-0.3-0.2-0.6-0.2-1c0.1-0.4,0.2-0.7,0.5-0.9
					c0.3-0.2,0.6-0.3,1.1-0.2c0.4,0.1,0.8,0.3,0.9,0.6c0.2,0.3,0.2,0.7,0.2,1C104.9,40.2,104.7,40.5,104.4,40.7z M103.9,40.2
					c0.1-0.1,0.2-0.3,0.3-0.6c0-0.3,0-0.5-0.1-0.6c-0.1-0.2-0.2-0.3-0.4-0.3c-0.2,0-0.4,0-0.5,0.1c-0.1,0.1-0.2,0.3-0.3,0.6
					c0,0.3,0,0.5,0.1,0.6c0.1,0.2,0.2,0.3,0.4,0.3C103.7,40.4,103.8,40.4,103.9,40.2z"/>
				<path d="M107.1,38.7C107.1,38.7,107.1,38.7,107.1,38.7l-0.1,0.7c0,0-0.1,0-0.1,0c0,0-0.1,0-0.1,0c-0.3,0-0.5,0-0.6,0.2
					c-0.1,0.1-0.1,0.2-0.2,0.4l-0.2,1.2l-0.7-0.1l0.4-2.6l0.6,0.1l-0.1,0.5c0.1-0.2,0.2-0.3,0.3-0.3
					C106.7,38.7,106.8,38.7,107.1,38.7C107,38.7,107.1,38.7,107.1,38.7z"/>
				<path d="M107.8,41.6l-0.7-0.1l0.6-3.5l0.7,0.1L107.8,41.6z"/>
				<path d="M110.2,39.4c0.1,0.1,0.2,0.2,0.2,0.3l0.2-1.2l0.7,0.1l-0.6,3.5l-0.7-0.1l0.1-0.4c-0.1,0.1-0.3,0.2-0.4,0.3
					c-0.1,0-0.3,0.1-0.5,0c-0.3-0.1-0.5-0.2-0.7-0.5c-0.2-0.3-0.2-0.6-0.2-1c0.1-0.4,0.2-0.8,0.5-1c0.2-0.2,0.5-0.3,0.9-0.2
					C110,39.2,110.1,39.3,110.2,39.4z M110.1,41.2c0.1-0.1,0.2-0.3,0.2-0.5c0.1-0.3,0-0.6-0.1-0.7c-0.1-0.1-0.2-0.2-0.3-0.2
					c-0.2,0-0.4,0-0.5,0.2c-0.1,0.1-0.2,0.3-0.2,0.5c0,0.2,0,0.4,0,0.6c0.1,0.2,0.2,0.3,0.4,0.3C109.8,41.4,110,41.4,110.1,41.2z"/>
				<path d="M111.5,41.5l0.7,0.1l-0.1,0.7l-0.7-0.1L111.5,41.5z"/>
				<path d="M114.1,39l-0.4,1.4l-0.4-0.1l0.1-1.5L114.1,39z M114.9,39.2l-0.4,1.4l-0.4-0.1l0.1-1.5L114.9,39.2z"/>
			</g>
			<g>
				<g>
					<path class="st0" d="M117.6,36.5c0.1,0.1,0.1,0.1,0.2,0.2c0.2,0.1,0.4,0.2,0.6,0c0.2-0.2,0.2-0.4,0-0.6c0,0-0.1-0.1-0.1-0.1
						c-0.2,0.2-0.4,0.4-0.6,0.6c0,0,0.1,0.1,0.1,0.1c0.2,0.1,0.4,0.2,0.6,0c0.2-0.2,0.2-0.4,0-0.6c0,0,0,0,0-0.1
						c-0.2,0.2-0.4,0.4-0.6,0.6c0.1,0.1,0.2,0.2,0.4,0.2c0.2,0.1,0.4-0.1,0.5-0.2c0.1-0.2,0-0.4-0.2-0.5c0,0,0.1,0.1,0.1,0.2
						c-0.1,0.2-0.3,0.4-0.4,0.6h0c-0.1,0-0.1,0-0.2,0c0,0,0,0,0,0c0,0,0,0,0.1,0.1c0.2-0.2,0.4-0.4,0.6-0.6c0,0-0.1-0.1-0.1-0.1
						c-0.2-0.1-0.5,0-0.6,0.1c-0.1,0.2,0,0.5,0.1,0.6c0,0,0,0,0.1,0.1c0.1,0.1,0.4,0.1,0.5-0.1c0.1-0.1,0.2-0.4,0.1-0.5
						c0-0.1-0.1-0.1-0.1-0.2c-0.2-0.1-0.5-0.2-0.6,0c-0.2,0.2-0.2,0.4,0,0.6c0,0,0,0,0.1,0.1c0.1,0.1,0.4,0.2,0.5,0.1
						c0.1-0.1,0.3-0.3,0.2-0.5c-0.1-0.1-0.1-0.2-0.3-0.3c-0.1-0.1-0.4-0.1-0.5,0.1c-0.1,0.1-0.2,0.4-0.1,0.5
						c0.1,0.1,0.1,0.2,0.2,0.2c0.2,0.1,0.4,0.1,0.5-0.1c0.1-0.1,0.1-0.3,0.1-0.5c0-0.1-0.1-0.1-0.1-0.2c-0.2-0.1-0.4-0.2-0.6,0
						c-0.2,0.1-0.2,0.4-0.1,0.6c0,0,0.1,0.1,0.1,0.1c0.2,0.1,0.4,0.2,0.6,0s0.2-0.4,0.1-0.6c0,0,0,0,0-0.1c-0.1-0.2-0.4-0.3-0.6-0.1
						c-0.2,0.1-0.3,0.4-0.1,0.6c0,0,0.1,0.1,0.1,0.1c0.3,0.3,0.9,0,0.7-0.4c0-0.1-0.1-0.2-0.1-0.2c-0.2,0.2-0.4,0.4-0.6,0.6
						c0,0,0,0,0,0c0.3,0.4,1-0.1,0.7-0.5c0,0,0,0,0,0c-0.3-0.4-0.9-0.1-0.8,0.3c0,0.1,0.1,0.2,0.1,0.2c0.1,0.1,0.4,0.2,0.5,0.1
						c0.2-0.1,0.2-0.3,0.2-0.5v0c-0.1-0.4-0.8-0.4-0.9,0l0,0c0,0.2,0,0.5,0.3,0.5l0,0c0.2,0,0.5-0.1,0.5-0.3c0-0.2,0-0.3-0.1-0.5
						c-0.1-0.1-0.3-0.1-0.5-0.1l0,0c-0.1,0.1-0.2,0.2-0.2,0.4l0,0c0,0.3,0.4,0.6,0.7,0.4l0,0c0.2-0.1,0.3-0.4,0.1-0.6l0,0
						c-0.2,0.2-0.5,0.4-0.7,0.5c0,0,0,0,0,0c0,0,0,0,0,0.1c0.1,0.2,0.4,0.3,0.6,0.1c0.2-0.1,0.3-0.4,0.1-0.6c0-0.1-0.1-0.2-0.2-0.3
						c-0.1-0.2-0.4-0.1-0.6,0c-0.1,0.1-0.2,0.4-0.1,0.6l0,0c0-0.2,0.1-0.4,0.1-0.6l0,0c0.2,0.1,0.4,0.2,0.7,0.4l0,0
						c-0.1,0.1-0.1,0.2-0.2,0.4l0,0c-0.2,0-0.4,0-0.5-0.1c0,0,0,0,0-0.1c0-0.1,0-0.2,0-0.3l0,0c0.2-0.1,0.4-0.2,0.5-0.3l0,0
						c0.1,0.2,0.2,0.4,0.3,0.5l0,0c-0.3,0-0.6,0-0.9,0v0c0.2-0.1,0.5-0.3,0.7-0.4c0,0,0,0,0,0c0,0.1,0.1,0.1,0.1,0.2v0
						c-0.3,0.1-0.5,0.2-0.8,0.3c0,0,0,0,0,0c0.2-0.2,0.5-0.4,0.7-0.5c0,0,0,0,0,0c-0.1-0.2-0.5-0.2-0.6,0c-0.2,0.2-0.2,0.4,0,0.6
						l0,0c0-0.1-0.1-0.1-0.1-0.2v0c0.2-0.1,0.5-0.3,0.7-0.4l0,0c-0.2,0.1-0.5,0.3-0.8,0.4c0,0,0,0,0,0.1c0.2-0.2,0.5-0.4,0.7-0.5
						c0,0,0,0,0,0c-0.2,0.2-0.5,0.4-0.7,0.5c0,0,0,0,0,0c0.2-0.2,0.4-0.4,0.6-0.6c0,0,0,0,0.1,0.1c-0.2,0.2-0.4,0.4-0.6,0.6
						c0,0,0,0,0,0c0-0.1-0.1-0.1-0.1-0.2v0c0.2-0.1,0.5-0.3,0.7-0.4c0,0,0,0-0.1-0.1c-0.2,0.2-0.4,0.4-0.6,0.6c0,0,0,0,0,0
						c0.2-0.2,0.4-0.4,0.6-0.6c0,0,0,0-0.1-0.1c-0.1,0.2-0.3,0.5-0.4,0.8c0,0,0,0,0,0c0.1,0.2,0.5,0.2,0.6,0c0.2-0.2,0.1-0.4,0-0.6
						c-0.1-0.2-0.3-0.3-0.5-0.3c-0.3,0-0.5,0.3-0.4,0.6c0.1,0.2,0.1,0.3,0.3,0.4c0.1-0.3,0.2-0.5,0.3-0.8c0,0,0,0,0,0c0,0,0,0,0,0
						c-0.2-0.1-0.5-0.2-0.6,0C117.6,36.1,117.6,36.3,117.6,36.5c0.1,0.1,0.1,0.1,0.1,0.1c0.2-0.2,0.4-0.4,0.6-0.6
						c0,0-0.1-0.1-0.1-0.1c-0.2-0.1-0.4-0.2-0.6,0C117.5,36,117.5,36.3,117.6,36.5c0,0,0.1,0.1,0.1,0.1c0.2-0.2,0.4-0.4,0.6-0.6
						c-0.1-0.1-0.1-0.1-0.2-0.2c-0.2-0.2-0.5-0.2-0.6,0C117.5,36,117.5,36.3,117.6,36.5L117.6,36.5z"/>
				</g>
			</g>
			<g>
				<g>
					<path class="st0" d="M118.2,36.8L118.2,36.8c0.1,0.1,0.3,0.2,0.5,0.1c0.1,0,0.3-0.2,0.3-0.3l0,0c-0.1,0.1-0.2,0.2-0.3,0.3l0,0
						c-0.1,0-0.1,0-0.2,0C118.4,36.9,118.3,36.9,118.2,36.8c0.1,0.2,0.4,0.3,0.6,0.1c0.2-0.1,0.3-0.4,0.1-0.6c0,0,0-0.1-0.1-0.1
						c-0.1-0.2-0.4-0.3-0.6-0.1c-0.2,0.1-0.3,0.4-0.1,0.6C118.2,36.8,118.2,36.8,118.2,36.8c0.3-0.1,0.5-0.3,0.8-0.4
						c-0.1-0.1-0.2-0.2-0.4-0.3c-0.2,0-0.4,0.1-0.5,0.3c0.2-0.1,0.5-0.1,0.7-0.2l0,0c-0.1-0.1-0.2-0.1-0.3-0.1c-0.1,0-0.2,0-0.3,0.1
						C118.1,36.4,118,36.7,118.2,36.8L118.2,36.8z"/>
				</g>
			</g>
			<g>
				<g>
					<path class="st0" d="M117.9,35.7c-0.1-0.1-0.3-0.1-0.5-0.1c-0.2,0-0.4,0.1-0.4,0.3c0,0.2,0,0.4,0.2,0.5c0.1,0,0.1,0.1,0.2,0.1
						c0.2,0,0.4,0,0.5-0.2s0-0.5-0.2-0.5c-0.1-0.1-0.3-0.1-0.4-0.2c-0.2-0.1-0.4,0.1-0.5,0.2c-0.1,0.2,0,0.5,0.2,0.5
						c0.1,0,0.1,0,0.2,0.1c0-0.3,0.1-0.6,0.1-0.9c0,0,0,0-0.1,0c-0.2,0-0.4,0.1-0.4,0.3c0,0.2,0,0.4,0.2,0.5c0,0,0.1,0,0.2,0.1
						c0.1,0,0.2,0,0.3,0c0.1,0,0.2-0.1,0.2-0.3c0-0.2-0.1-0.5-0.3-0.5c-0.1,0-0.1,0-0.2,0c0,0.3,0.1,0.5,0.1,0.8c0,0,0,0,0,0
						c0.2-0.1,0.3-0.4,0.1-0.6c-0.1-0.2-0.4-0.3-0.6-0.1c0,0,0,0,0,0c-0.1,0.1-0.2,0.3-0.2,0.4c0,0.2,0.1,0.3,0.3,0.4
						c0.1,0,0.1,0,0.2,0c0.1-0.3,0.1-0.6,0.2-0.9c0,0,0,0,0,0c-0.1,0.3-0.1,0.5-0.2,0.8c0,0,0,0,0.1,0c0.2,0,0.4-0.1,0.4-0.4
						c0-0.2-0.1-0.4-0.3-0.5c0,0,0,0,0,0c-0.1,0.3-0.2,0.5-0.3,0.8c0,0,0,0,0.1,0c0,0,0,0,0,0c0,0,0.1,0,0.1,0
						c0.1-0.3,0.2-0.5,0.3-0.8c0,0,0,0,0,0c-0.1,0.3-0.1,0.5-0.2,0.8c0.1,0,0,0,0,0c0,0,0.1,0,0,0c0.2,0.1,0.5,0.1,0.6-0.1
						C118.2,36.1,118.2,35.8,117.9,35.7L117.9,35.7z"/>
				</g>
			</g>
			<g>
				<g>
					<path class="st0" d="M96,46.1c0-0.1,0-0.2,0-0.3c0-0.1-0.2-0.1-0.2,0c0,0.1,0,0.2,0,0.3C95.9,46.1,95.9,46.1,96,46.1
						c0-0.1-0.1-0.2-0.1-0.3c-0.1,0-0.1,0-0.2,0c0,0,0,0,0,0.1c0,0.1,0.2,0.1,0.2,0c0-0.1,0-0.1,0-0.3c0-0.1-0.3-0.1-0.2,0
						c0,0,0,0.1,0,0.2c0.1,0,0.1,0,0.2-0.1c-0.1-0.1-0.2-0.2-0.3-0.3c-0.1-0.1-0.2,0-0.2,0.1c0,0.2,0.1,0.4,0.1,0.5
						c0,0.1,0.2,0.1,0.2,0c0-0.1,0-0.3-0.1-0.5c-0.1,0-0.1,0-0.2,0c0,0.2,0,0.4,0,0.6c0.1,0,0.1,0,0.2,0c0-0.2,0-0.5-0.1-0.7
						c-0.1,0-0.1,0-0.2,0c0,0.4,0,0.7,0,1.1c0.1,0,0.1,0,0.2,0c0-0.4,0-0.8-0.2-1.2c-0.1-0.1-0.2,0-0.2,0.1c0.2,0.6,0.2,1.3,0.2,1.9
						c0,0.1,0.2,0.1,0.2,0c0.1-0.3,0.2-0.7,0.2-1c0-0.1,0-0.2,0-0.3c0-0.1,0-0.3,0.1-0.2c0.1,0,0.2,0,0.1-0.1c0-0.1-0.1-0.1-0.2-0.1
						c-0.1,0-0.1,0.1-0.1,0.2C95.9,45.8,96,46,96,46.1c0,0.1,0.2,0,0.2-0.1c0-0.1-0.1-0.2-0.2-0.4c0,0-0.1,0.1-0.1,0.2c0,0,0,0,0,0
						c0,0,0.1-0.1,0.1-0.1c-0.1-0.1-0.3-0.2-0.4,0c-0.1,0.2,0,0.6-0.1,0.8c0,0.3-0.1,0.6-0.2,0.8c0.1,0,0.1,0,0.2,0
						c0-0.6,0.1-1.4-0.2-2c-0.1,0-0.1,0-0.2,0.1c0.2,0.3,0.2,0.7,0.2,1.1c0,0.1,0.2,0.1,0.2,0c0-0.4,0.1-0.7,0-1.1
						c0-0.1-0.2-0.1-0.2,0c0,0.3,0,0.5,0.1,0.8c0,0.1,0.2,0.1,0.2,0c0-0.2,0-0.4-0.1-0.7c0-0.1-0.2-0.1-0.2,0c0,0.1,0,0.3,0.1,0.5
						c0.1,0,0.1,0,0.2,0c0-0.2-0.1-0.4-0.1-0.5c-0.1,0-0.1,0.1-0.2,0.1c0.1,0.1,0.2,0.2,0.3,0.3c0,0.1,0.2,0,0.2-0.1
						c0-0.1,0-0.1,0-0.2c-0.1,0-0.1,0-0.2,0c0,0.1,0,0.1,0,0.2c0.1,0,0.1,0,0.2,0c0,0,0,0,0-0.1c0-0.1-0.2-0.1-0.2,0
						c0,0.1,0,0.2,0.1,0.2C95.9,46.2,96,46.1,96,46.1c0-0.2,0-0.3,0-0.4c-0.1,0-0.1,0-0.2,0c0,0.1,0,0.2,0,0.3
						C95.8,46.2,96,46.2,96,46.1L96,46.1z"/>
				</g>
			</g>
			<g>
				<g>
					<path class="st0" d="M96.2,46.7c0.1,0.4,0.1,1,0.3,1.4c0,0.1,0.2,0,0.2,0c0,0,0,0,0,0c0-0.1-0.2-0.1-0.2,0c0,0,0,0,0,0
						c0.1,0,0.1,0,0.2,0c-0.1-0.2-0.1-0.4-0.1-0.7c0-0.2-0.1-0.4-0.1-0.7C96.4,46.5,96.2,46.6,96.2,46.7L96.2,46.7z"/>
				</g>
			</g>
			<g>
				<g>
					<path class="st0" d="M97.4,45.8L97.4,45.8c0,0,0,0.1,0,0.1l0,0c0,0-0.1,0-0.2-0.1c0,0,0,0.1,0,0.1c0,0.1,0.1,0.2,0.2,0.1
						c0-0.1,0.1-0.1,0.2-0.2C97.5,45.9,97.4,45.8,97.4,45.8c-0.1,0.1-0.1,0.2-0.2,0.4c0,0.1,0.1,0.2,0.2,0.1
						c0.1-0.1,0.1-0.1,0.2-0.2c-0.1,0-0.1,0-0.2-0.1c0,0.1-0.1,0.3-0.1,0.5c0,0.1,0.1,0.2,0.2,0.1c0.1-0.1,0.1-0.2,0.2-0.3
						c-0.1,0-0.1,0-0.2-0.1c-0.1,0.2-0.1,0.5-0.2,0.7c0,0.1,0.1,0.2,0.2,0.1c0.1-0.1,0.1-0.3,0.2-0.5c-0.1,0-0.1,0-0.2-0.1
						c-0.1,0.2-0.1,0.5-0.2,0.8c0,0.1,0.2,0.2,0.2,0c0.1-0.4,0.2-0.8,0.6-1.1c0,0-0.1-0.1-0.1-0.2c-0.4,0.3-0.5,0.8-0.7,1.2
						c0.1,0,0.1,0,0.2,0c0.1-0.4,0.2-0.8,0.4-1.2c0.1-0.1-0.1-0.2-0.2-0.1c-0.1,0.1-0.2,0.2-0.3,0.3c-0.1,0.1,0,0.2,0.1,0.1
						s0.1-0.2,0.2-0.3c0-0.1,0-0.2-0.1-0.1c-0.1,0-0.1,0.1-0.2,0.1c0,0,0.1,0.1,0.1,0.2c0.1-0.1,0.1-0.1,0.1-0.2
						c0-0.1,0-0.2-0.1-0.2C97.6,45.7,97.5,45.7,97.4,45.8c0,0.1,0.1,0.3,0.2,0.2s0.2-0.1,0.3-0.2c-0.1,0-0.1-0.1-0.2-0.1
						c0,0.1-0.1,0.3-0.2,0.5c0,0.1,0.1,0.2,0.2,0.1c0.1-0.1,0.1-0.1,0.2-0.2c0,0-0.1-0.1-0.2-0.1c-0.1,0.3-0.3,0.5-0.4,0.8
						c0,0.1,0.1,0.2,0.2,0.1c0.1-0.2,0.2-0.5,0.3-0.7c0-0.1-0.1-0.2-0.2-0.1c-0.1,0.3-0.2,0.5-0.3,0.8c0,0.1,0.2,0.2,0.2,0
						c0.1-0.2,0.1-0.4,0.2-0.6c-0.1,0-0.1,0-0.2,0c-0.1,0.2-0.1,0.5-0.2,0.7c0,0.1,0.2,0.2,0.2,0c0.1-0.2,0.1-0.4,0.2-0.7
						c0-0.1-0.2-0.2-0.2,0c-0.1,0.2-0.1,0.4-0.2,0.7c0.1,0,0.1,0,0.2,0c0.1-0.4,0.3-0.8,0.5-1.1c-0.1,0-0.1-0.1-0.2-0.1
						c-0.2,0.4-0.4,0.7-0.6,1.1c0.1,0,0.1,0.1,0.2,0.1c0.1-0.3,0.3-1,0.7-1.1c0-0.1-0.1-0.1-0.1-0.2c0,0-0.1,0.1-0.1,0.1
						c-0.1,0.1,0,0.2,0.1,0.1c0.1-0.1,0.2-0.1,0.3-0.2c0-0.1-0.1-0.1-0.1-0.2c-0.5,0.5-0.9,1.1-1.1,1.7c0.1,0,0.1,0,0.2,0.1
						c0.1-0.4,0.3-0.8,0.5-1.1c-0.1,0-0.1-0.1-0.2-0.1c-0.1,0.3-0.3,0.7-0.4,1c0,0.1,0.1,0.2,0.2,0c0.1-0.2,0.2-0.4,0.3-0.7
						c0-0.1-0.1-0.2-0.2,0c-0.1,0.2-0.2,0.5-0.3,0.7c0.1,0,0.1,0,0.2,0c0.1-0.2,0.1-0.5,0.2-0.7c-0.1,0-0.1,0-0.2,0
						c-0.1,0.2-0.1,0.4-0.2,0.6c0,0.1,0.1,0.2,0.2,0.1c0.1-0.2,0.2-0.5,0.3-0.7c-0.1,0-0.1,0-0.2-0.1c-0.1,0.2-0.2,0.4-0.2,0.6
						c0,0.1,0.1,0.2,0.2,0.1c0.1-0.2,0.1-0.4,0.2-0.6c0-0.1-0.2-0.2-0.2,0c-0.1,0.3-0.2,0.6-0.3,0.9c0,0.1,0.2,0.2,0.2,0
						c0.1-0.3,0.2-0.6,0.3-0.9c-0.1,0-0.1,0-0.2,0c0,0.2-0.1,0.3-0.2,0.5c0.1,0,0.1,0,0.2,0.1c0.1-0.2,0.2-0.4,0.2-0.6
						c0-0.1-0.1-0.2-0.2-0.1c-0.1,0.2-0.2,0.5-0.3,0.7c0.1,0,0.1,0,0.2,0.1c0.1-0.2,0.1-0.4,0.2-0.6c0-0.1-0.2-0.2-0.2,0
						c-0.1,0.2-0.2,0.5-0.2,0.7c0,0.1,0.2,0.2,0.2,0c0.1-0.2,0.2-0.5,0.3-0.7c-0.1,0-0.1,0-0.2,0c-0.1,0.2-0.2,0.4-0.3,0.7
						c0.1,0,0.1,0,0.2,0c0.1-0.3,0.2-0.6,0.4-0.9c0-0.1-0.1-0.2-0.2-0.1c-0.2,0.4-0.4,0.8-0.5,1.2c0,0.1,0.1,0.2,0.2,0.1
						c0.3-0.6,0.6-1.2,1.1-1.7c0.1-0.1,0-0.2-0.1-0.2c-0.1,0-0.3,0.1-0.4,0.2c0,0,0.1,0.1,0.1,0.1c0,0,0.1-0.1,0.1-0.1
						c0.1-0.1,0-0.2-0.1-0.2c-0.4,0.2-0.6,0.8-0.8,1.2c0,0.1,0.1,0.2,0.2,0.1c0.2-0.4,0.4-0.8,0.6-1.1c0.1-0.1-0.1-0.2-0.2-0.1
						c-0.3,0.4-0.4,0.8-0.6,1.2c0,0.1,0.2,0.2,0.2,0c0.1-0.2,0.1-0.4,0.2-0.7c-0.1,0-0.1,0-0.2,0c-0.1,0.2-0.1,0.4-0.2,0.7
						c0.1,0,0.1,0,0.2,0c0.1-0.2,0.1-0.5,0.2-0.7c0-0.1-0.2-0.2-0.2,0c-0.1,0.2-0.1,0.4-0.2,0.6c0.1,0,0.1,0,0.2,0
						c0.1-0.3,0.2-0.5,0.3-0.8c-0.1,0-0.1,0-0.2-0.1c-0.1,0.2-0.2,0.4-0.3,0.7c0.1,0,0.1,0,0.2,0.1c0.1-0.3,0.2-0.5,0.3-0.8
						c0-0.1-0.1-0.2-0.2-0.1c-0.1,0.1-0.1,0.2-0.2,0.2c0,0,0.1,0.1,0.2,0.1c0.1-0.2,0.1-0.3,0.2-0.5c0-0.1-0.1-0.2-0.2-0.1
						c-0.1,0-0.1,0.1-0.2,0.2c0,0,0.1,0.1,0.1,0.2c0,0,0,0,0.1,0c0,0-0.1-0.1-0.1-0.2C97.5,45.6,97.5,45.7,97.4,45.8
						c0,0.1,0.1,0.2,0.2,0.2c0.1,0,0.1-0.1,0.2-0.1c0,0-0.1-0.1-0.1-0.1c0,0.1-0.1,0.2-0.2,0.2c0,0,0.1,0.1,0.1,0.1
						c0.1-0.1,0.2-0.2,0.3-0.3c0,0-0.1-0.1-0.2-0.1c-0.2,0.4-0.4,0.8-0.5,1.3c0,0.1,0.2,0.2,0.2,0c0.1-0.4,0.3-0.8,0.6-1.1
						c0.1-0.1,0-0.2-0.1-0.2c-0.4,0.3-0.5,0.8-0.7,1.2c0.1,0,0.1,0,0.2,0c0-0.3,0.1-0.5,0.2-0.8c0-0.1-0.1-0.2-0.2-0.1
						c-0.1,0.1-0.1,0.3-0.2,0.5c0.1,0,0.1,0,0.2,0.1c0-0.2,0.1-0.5,0.2-0.7C97.7,45.8,97.5,45.7,97.4,45.8c0,0.2,0,0.3-0.1,0.4
						c0.1,0,0.1,0,0.2,0.1c0-0.2,0.1-0.3,0.1-0.5C97.7,45.6,97.5,45.6,97.4,45.8c0,0,0,0.1-0.1,0.1c0.1,0,0.1,0.1,0.2,0.1
						c0-0.1,0-0.2,0.1-0.3C97.6,45.8,97.5,45.7,97.4,45.8c-0.1,0-0.1,0.1-0.2,0.2c0.1,0,0.1,0.1,0.2,0.1
						C97.4,46,97.5,45.9,97.4,45.8c0,0-0.1-0.1-0.1,0l0,0c0,0-0.1,0.1,0,0.1l0,0C97.3,46,97.5,45.9,97.4,45.8L97.4,45.8z"/>
				</g>
			</g>
			<g>
				<g>
					<path class="st0" d="M94.9,45.4c0.6,0.4,0.5,1.4,0.6,2c0,0.1,0.2,0.1,0.2,0c0-0.8,0-1.7-0.7-2.2C94.9,45.2,94.7,45.4,94.9,45.4
						L94.9,45.4z"/>
				</g>
			</g>
			<g>
				<g>
					<path class="st0" d="M95.2,45.5c0,0.1,0.1,0.2,0.1,0.2c0.1,0,0.1,0,0.2-0.1v0c-0.1,0-0.1,0-0.2,0c0,0.2,0.1,0.3,0.1,0.5
						c0,0.1,0.2,0.1,0.2,0c0-0.2,0-0.4-0.1-0.6c0-0.1-0.2-0.1-0.2,0c0,0,0,0.1,0,0.1c0.1,0.1,0.2,0,0.2-0.1c0-0.1-0.1-0.2-0.1-0.2
						C95.3,45.3,95.1,45.4,95.2,45.5L95.2,45.5z"/>
				</g>
			</g>
			<g>
				<g>
					<path class="st0" d="M94.7,45.4c0.7,0.4,0.7,1.5,0.6,2.1c0,0.1,0.2,0.1,0.2,0c0-0.8,0-1.9-0.8-2.3
						C94.7,45.2,94.6,45.4,94.7,45.4L94.7,45.4z"/>
				</g>
			</g>
			<g>
				<g>
					<path class="st0" d="M98.6,45.8c-0.4,0-0.7,0.3-1,0.5c0,0,0.1,0.1,0.1,0.1c0.2-0.2,0.4-0.4,0.7-0.5c0-0.1,0-0.1-0.1-0.2
						c-0.7,0.3-1,0.9-1.3,1.6c0,0.1,0.1,0.2,0.2,0.1c0.3-0.6,0.6-1.2,1.2-1.5c0.1,0,0-0.2-0.1-0.2c-0.3,0.1-0.6,0.2-0.8,0.5
						c-0.1,0.1,0,0.2,0.1,0.1c0.2-0.2,0.5-0.4,0.8-0.5C98.7,46,98.7,45.8,98.6,45.8L98.6,45.8z"/>
				</g>
			</g>
			<g>
				<path class="st0" d="M45.1,82.1c0,0,1.7-2,4.2-1.6L49,74.9l-2.3,0.8l-1.6,0.5l-1.7,0.7l-1.3,0.5l-0.7,0.7l-0.1,1v0.6l0.6,0.5
					l0.7,0.6L45.1,82.1z"/>
			</g>
			<g>
				<g>
					<path class="st0" d="M43.7,77.1L43.7,77.1c-0.2,0-0.5,0.2-0.5,0.4v0c0,0.3,0.3,0.5,0.7,0.4c0.2-0.1,0.3-0.3,0.5-0.4
						c0.4-0.2,0.1-0.9-0.3-0.8c-0.2,0-0.3,0.1-0.5,0.2c-0.5,0.2-0.1,0.9,0.3,0.8c0.1,0,0.2,0,0.3-0.1c-0.1-0.3-0.1-0.6-0.2-0.9
						c-0.1,0-0.1,0-0.2,0.1c0.1,0.3,0.2,0.5,0.3,0.8c1.1-0.6,2.2-0.9,3.4-1.3c-0.1-0.3-0.1-0.6-0.2-0.9c-0.7,0.2-1.3,0.4-1.8,0.8
						c-0.5,0.3,0,1.1,0.4,0.8c0.5-0.3,1-0.6,1.6-0.8c0.5-0.1,0.3-1-0.2-0.9c-1.3,0.3-2.5,0.7-3.6,1.3c-0.4,0.2-0.1,1,0.3,0.8
						c0.1,0,0.1,0,0.2-0.1c0.5-0.2,0.3-1-0.2-0.9c-0.1,0-0.2,0-0.3,0.1c0.1,0.3,0.2,0.5,0.3,0.8c0.1,0,0.2-0.1,0.3-0.1
						c-0.1-0.3-0.2-0.5-0.3-0.8c-0.2,0.1-0.3,0.3-0.5,0.4c0.2,0.1,0.4,0.2,0.7,0.4v0c-0.1,0.1-0.3,0.3-0.4,0.4h0
						C44.2,77.9,44.2,77,43.7,77.1L43.7,77.1z"/>
				</g>
			</g>
			<g>
				<g>
					<path class="st0" d="M44,78c0.2-0.1,0.5-0.2,0.7-0.3c0.5-0.2,0.1-1-0.3-0.8c-0.2,0.1-0.5,0.1-0.7,0.2
						C43.8,77.4,43.9,77.7,44,78c0.2-0.2,0.4-0.3,0.6-0.4c0.4-0.3,0.1-0.9-0.3-0.8c-0.1,0-0.2,0-0.4,0c0.1,0.3,0.1,0.5,0.2,0.8
						c0.2-0.1,0.4-0.3,0.7-0.4c0.5-0.2,0.3-1-0.2-0.9c-0.3,0.1-0.5,0.1-0.8,0.2c0.1,0.3,0.2,0.5,0.3,0.8c0.1-0.1,0.3-0.1,0.4-0.2
						c-0.1-0.3-0.1-0.6-0.2-0.9c-0.1,0-0.3,0.1-0.4,0.1c0.1,0.3,0.2,0.5,0.3,0.8c0.9-0.5,1.9-0.5,2.9-1c0.5-0.2,0.1-1-0.3-0.8
						c-0.4,0.1-0.9,0.3-1.3,0.4c0.1,0.3,0.1,0.6,0.2,0.9c0.5-0.2,1-0.3,1.5-0.5c0.6-0.1,0.3-1-0.2-0.9c-0.5,0.1-1,0.3-1.5,0.5
						c-0.5,0.2-0.3,1,0.2,0.9c0.4-0.1,0.9-0.3,1.3-0.4c-0.1-0.3-0.2-0.5-0.3-0.8c-0.5,0.2-1.1,0.2-1.6,0.4c-0.5,0.1-0.9,0.3-1.3,0.5
						c-0.4,0.2-0.1,1,0.3,0.8c0.1,0,0.3-0.1,0.4-0.1c0.5-0.2,0.3-1.1-0.2-0.9c-0.2,0.1-0.4,0.2-0.7,0.3c-0.4,0.2-0.1,1,0.3,0.8
						c0.3-0.1,0.5-0.1,0.8-0.2c-0.1-0.3-0.1-0.6-0.2-0.9c-0.3,0.1-0.6,0.3-0.9,0.5c-0.3,0.2-0.2,0.9,0.2,0.8c0.2,0,0.4,0,0.6-0.1
						c-0.1-0.3-0.2-0.5-0.3-0.8c-0.2,0.1-0.4,0.2-0.5,0.3c-0.4,0.2-0.1,1,0.3,0.8c0.2-0.1,0.5-0.1,0.7-0.2c-0.1-0.3-0.2-0.5-0.3-0.8
						c-0.2,0.1-0.5,0.2-0.7,0.3C43,77.5,43.5,78.3,44,78L44,78z"/>
				</g>
			</g>
			<g>
				<g>
					<path class="st0" d="M45.4,81.3c0.2-0.1,0.4-0.2,0.6-0.3c-0.2-0.2-0.4-0.5-0.5-0.7c-0.2,0.2-0.3,0.3-0.5,0.5
						c-0.3,0.3,0,0.8,0.4,0.7c0.1,0,0.2-0.1,0.4-0.1c-0.2-0.2-0.4-0.5-0.5-0.7c-0.1,0.1-0.2,0.2-0.3,0.4c-0.3,0.4,0.2,0.8,0.6,0.6
						c0,0,0.1,0,0.1,0c-0.2-0.2-0.4-0.4-0.6-0.6c0,0-0.1,0.1-0.1,0.1c-0.4,0.3,0.1,1,0.5,0.7c0,0,0.1-0.1,0.1-0.1
						c-0.2-0.2-0.4-0.4-0.6-0.6c0,0,0.1,0,0.1-0.1c0.1,0.2,0.3,0.5,0.4,0.7c0.5-0.4,1.1-0.8,1.6-1.1c-0.1-0.2-0.3-0.5-0.4-0.8
						c-0.3,0.2-0.7,0.4-1,0.7c-0.5,0.3-0.1,1,0.4,0.8c0.5-0.2,1-0.5,1.4-0.8c0.5-0.3,0-1-0.4-0.8c-0.3,0.2-0.6,0.3-0.9,0.5
						c-0.5,0.3-0.1,1,0.4,0.8c0.5-0.2,1.1-0.4,1.6-0.6c-0.1-0.3-0.1-0.6-0.2-0.9c-0.3,0.1-0.7,0.3-1,0.4c-0.4,0.2-0.4,0.9,0.1,0.9
						c0.6,0,1.2-0.4,1.8-0.3c0-0.3,0-0.6,0-0.9c-0.1,0-0.1,0-0.2,0c-0.5,0.1-0.4,0.7,0,0.9c0.2,0.1,0.3,0,0.5,0
						c0.5-0.2,0.1-1-0.4-0.8c0,0,0.1,0,0.2,0c0,0.3,0,0.6,0,0.9c0.1,0,0.1,0,0.2,0c0.4-0.1,0.4-0.8,0-0.9c-0.7-0.1-1.3,0.3-2.1,0.3
						c0,0.3,0.1,0.6,0.1,0.9c0.3-0.1,0.7-0.3,1-0.4c0.5-0.2,0.3-1.1-0.2-0.9c-0.6,0.2-1.2,0.5-1.8,0.7c0.1,0.2,0.3,0.5,0.4,0.8
						c0.3-0.2,0.6-0.3,0.9-0.5c-0.1-0.2-0.3-0.5-0.4-0.8c-0.5,0.3-0.9,0.5-1.4,0.8c0.1,0.2,0.3,0.5,0.4,0.8c0.3-0.2,0.7-0.4,1-0.7
						c0.5-0.3,0-1.1-0.4-0.8c-0.6,0.4-1.2,0.8-1.8,1.3c-0.3,0.3,0,0.9,0.4,0.7c0.2,0,0.3-0.1,0.4-0.3c0.2-0.4-0.2-0.9-0.6-0.6
						c0,0-0.1,0.1-0.1,0.1c0.2,0.2,0.4,0.5,0.5,0.7c0.1-0.1,0.2-0.2,0.3-0.3c0.2-0.4-0.2-0.8-0.6-0.6c0,0-0.1,0-0.1,0
						c0.2,0.2,0.4,0.4,0.6,0.6c0.1-0.1,0.1-0.1,0.2-0.2c0.4-0.4-0.1-0.9-0.5-0.7c0,0-0.1,0-0.2,0c0.1,0.2,0.3,0.5,0.4,0.7
						c0.1-0.2,0.3-0.3,0.5-0.5c0.4-0.4-0.1-0.9-0.5-0.7c-0.2,0.1-0.4,0.2-0.6,0.3C44.5,80.7,44.9,81.5,45.4,81.3L45.4,81.3z"/>
				</g>
			</g>
			<g>
				<g>
					<path class="st0" d="M49,80C49,80,49.1,80,49,80c0,0.1,0,0.2,0,0.3c0,0,0,0.1-0.1,0.1c0.1-0.1,0.1-0.2,0.1-0.3s0-0.2-0.1-0.3
						c-0.1-0.1-0.2-0.1-0.3-0.1s-0.2,0-0.3,0.1c-0.2,0.1-0.2,0.4-0.1,0.6c0.1,0.2,0.4,0.3,0.6,0.1C49.1,80.4,49.2,80.2,49,80L49,80z
						"/>
				</g>
			</g>
			<g>
				<path class="st0" d="M95,82.1l0.9-0.3l1.2-0.6l0.8-0.7l0.7-0.6l0.5-0.5v-0.8l-0.4-0.9l-2.2-1.1L94.5,76c0,0-2.3-0.7-2.4-0.7
					c-0.1,0-1.6-0.4-1.6-0.4l0.1,5.3C90.6,80.2,93.7,79.9,95,82.1z"/>
			</g>
			<g>
				<g>
					<path class="st0" d="M91.3,75.3c-0.1-0.1-0.2-0.2-0.3-0.3c0,0.1-0.1,0.1-0.1,0.2C91,75.3,91.1,75.3,91.3,75.3
						c0,0,0.1-0.1,0.1-0.1c-0.2,0-0.4-0.1-0.6-0.2c0,0.1,0,0.1-0.1,0.2c0.4,0.1,0.7,0.1,1.1,0.2c0-0.1,0-0.1,0-0.2
						c-0.3,0-0.6-0.1-0.8-0.2c-0.1,0-0.2,0.2,0,0.2c1.2,0.4,2.4,0.5,3.5,0.9c1.2,0.5,3,1.1,3.7,2.2c0,0,0.1-0.1,0.2-0.1
						c-1.1-0.9-2.2-1.5-3.5-2c0,0.1,0,0.1,0,0.2c0.6,0.1,1.2,0.3,1.8,0.6c0.1,0,0.2-0.1,0.1-0.2c-0.3-0.2-0.7-0.3-1-0.5
						c-0.1-0.1-0.2,0.1-0.1,0.2c0.4,0.2,0.7,0.5,1,0.9c0.1,0.1,0.2,0,0.1-0.1c-0.3-0.3-0.6-0.6-1-0.9c0,0.1-0.1,0.1-0.1,0.2
						c0.3,0.2,0.7,0.3,1,0.5c0-0.1,0.1-0.1,0.1-0.2c-0.6-0.3-1.2-0.5-1.9-0.6c-0.1,0-0.2,0.2,0,0.2c1.3,0.4,2.4,1.1,3.4,1.9
						c0.1,0.1,0.2,0,0.2-0.1c-0.8-1.1-2.2-1.5-3.4-2c-1.3-0.6-2.7-0.7-4-1.1c0,0.1,0,0.1,0,0.2c0.3,0.1,0.6,0.1,0.9,0.2
						c0.1,0,0.1-0.2,0-0.2c-0.4-0.1-0.7-0.1-1.1-0.2c-0.1,0-0.2,0.1-0.1,0.2c0.2,0.1,0.4,0.2,0.6,0.3c0.1,0,0.2-0.1,0.1-0.2
						c-0.3-0.1-0.2-0.1-0.5-0.1c-0.1,0-0.2,0.1-0.1,0.2s0.2,0.2,0.3,0.3C91.2,75.5,91.4,75.4,91.3,75.3L91.3,75.3z"/>
				</g>
			</g>
			<g>
				<g>
					<path class="st0" d="M98.9,79.3c0.1,0,0.2-0.1,0.2-0.1c0-0.1-0.1-0.1-0.1-0.2c0,0,0,0-0.1,0c-0.1,0.1,0,0.2,0.1,0.2
						c0,0,0,0,0.1,0c0.1-0.1,0-0.2-0.1-0.2c-0.1,0-0.2,0.1-0.2,0.1C98.7,79.1,98.8,79.3,98.9,79.3L98.9,79.3z"/>
				</g>
			</g>
			<g>
				<g>
					<path class="st0" d="M41.4,79.1c-0.1,0-0.1,0-0.2,0c0,0.1,0,0.1,0,0.2C41.3,79.3,41.3,79.2,41.4,79.1c0-0.1,0.1-0.3,0.1-0.4
						c0-0.1-0.1-0.2-0.2-0.1c-0.1,0.2-0.2,0.4-0.2,0.6C41.2,79.2,41.3,79.2,41.4,79.1c0,0-0.2-0.1-0.3,0c-0.1,0.1,0,0.3,0.2,0.2
						c0-0.1,0-0.1-0.1-0.2c0,0-0.1,0-0.1,0c-0.1,0,0,0.2,0,0.2c0.2,0,0.5,0,0.7,0c0.1,0,0.1-0.2,0-0.2c-0.2,0-0.5,0-0.7,0
						c0,0.1,0,0.1,0,0.2c0,0,0.1,0,0.1,0c0.1,0,0-0.2-0.1-0.2C41.3,79.1,41.3,79.1,41.4,79.1C41.3,79.1,41.3,79.1,41.4,79.1
						L41.4,79.1c-0.1,0.1-0.1,0.1-0.1,0.1c0,0,0,0,0,0c0,0,0,0-0.1,0l0,0c0,0,0,0,0-0.1v0C41.2,79.3,41.4,79.3,41.4,79.1
						c0-0.1,0-0.3,0.2-0.4c-0.1,0-0.1,0-0.2-0.1c0,0.1-0.1,0.2-0.1,0.3c0,0.1,0,0.2-0.1,0.3c0,0,0,0,0.1,0h0c-0.1,0-0.1,0.2,0,0.2
						c0.1,0,0.2,0,0.3,0C41.6,79.3,41.5,79.1,41.4,79.1L41.4,79.1z"/>
				</g>
			</g>
			<g>
				<polygon class="st0" points="90.5,83.1 95.9,81.9 94,78.2 90.4,78.2 				"/>
			</g>
			<g>
				<path class="st0" d="M25.8,56.9c-0.5-0.5,0.1-2,1.5-4c0,0-0.1-0.1-0.1-0.1c-1.5,2-2,3.6-1.5,4.2c0.4,0.4,1.3,0.4,2.6-0.2v0
					c0-0.1,0-0.1,0-0.2c0,0,0-0.1,0-0.1c0,0.1,0,0.2,0,0.2C26.9,57.2,26.1,57.2,25.8,56.9z"/>
			</g>
			<g>
				<path class="st0" d="M42.6,38.7c0,0,0.1,0.1,0.1,0.1c0,0,0,0,0,0c2.3-1.4,4-1.8,4.5-1.3c0.3,0.4,0.2,1.2-0.4,2.3
					c-0.1,0-0.1,0-0.2,0c0.1,0,0.1,0,0.2,0c0.1,0,0.1,0,0.1,0.1c0.7-1.3,0.8-2.1,0.4-2.5C46.7,36.8,45,37.3,42.6,38.7z"/>
			</g>
			<g>
				<path class="st0" d="M45.5,41.8c-1.6,2.2-4.2,5-7.1,7.6c-3,2.7-5.9,4.9-8.3,6.3c0,0,0-0.1-0.1-0.1c0,0.1,0,0.2,0,0.3
					c0,0,0,0,0,0.1l0,0c2.5-1.4,5.5-3.7,8.5-6.4c2.9-2.6,5.5-5.4,7.1-7.7C45.6,41.8,45.6,41.8,45.5,41.8z"/>
			</g>
			<g>
				<path class="st0" d="M34.5,32.1c-1.9-0.7-4-0.3-5.8,0.5c-1.1,0.6-2.1,1.4-2.9,2.2c-0.9,1-1.8,2-2.7,3c-1.4,1.6-2.1,3.6-1.9,5.6
					c0.1,2.2,1.2,4.2,2.6,5.8c1.9,2.4,4.2,4.3,6.3,6.5c0.1,0.1,0.2,0,0.1-0.1c-1.7-1.8-3.6-3.5-5.3-5.3c-1.5-1.6-2.8-3.5-3.3-5.6
					c-0.5-2.1-0.1-4.3,1.1-6c0.7-1,1.6-1.8,2.4-2.7c0.8-0.9,1.6-1.7,2.5-2.4c1.9-1.4,4.5-2.1,6.8-1.3C34.6,32.3,34.6,32.2,34.5,32.1
					L34.5,32.1z"/>
			</g>
			<g>
				<path class="st0" d="M23.1,38.1c0.1-0.1,0-0.2-0.1-0.1C22.9,38.1,23,38.2,23.1,38.1L23.1,38.1z"/>
			</g>
			<g>
				<path class="st0" d="M22.2,46.9c-0.6,0.4-1.4,0.7-2.1,0.4c-0.7-0.3-1.2-1-1.3-1.7c0-0.7,0.1-1.4,0.6-1.9c0.4-0.5,1.1-1.1,1.8-1
					c0.1,0,0.1-0.2,0-0.2c-0.7-0.1-1.5,0.5-1.9,1c-0.5,0.6-0.8,1.5-0.7,2.3c0.1,0.8,0.6,1.5,1.4,1.7c0.8,0.3,1.6,0.1,2.3-0.4
					C22.4,46.9,22.3,46.8,22.2,46.9L22.2,46.9z"/>
			</g>
			<g>
				<path class="st0" d="M32.3,31.8c0.4-1.2,1.6-2.6,3-2.2c1.4,0.4,2.4,2.2,1.4,3.4c-0.1,0.1,0.1,0.2,0.2,0.1
					c1.1-1.4,0.1-3.2-1.4-3.7c-1.6-0.5-2.9,1-3.4,2.3C32.1,31.9,32.3,32,32.3,31.8L32.3,31.8z"/>
			</g>
			<g>
				<path class="st0" d="M29.8,42.4C29.8,42.4,29.9,42.4,29.8,42.4c0-0.1,0-0.1,0-0.1c0,0.1-0.1,0.2-0.2,0.2
					c-0.1,0.2-0.1,0.4-0.1,0.5c0,0.3-0.1,0.7,0,1.1c0.3,0.8,1.3,0.4,1.7,0c0.4-0.4,0.6-0.9,0.9-1.3c0.3-0.4,0.8-0.5,1.2-0.8
					c0.6-0.3,0.8-1,0.2-1.5c-0.6-0.5-1.6-0.1-2.3,0.1c0,0,0,0.1,0,0.1c0.7-0.3,2-0.7,2.4,0.1c0.3,0.6-0.2,1-0.7,1.2
					c-0.3,0.2-0.7,0.3-0.9,0.6c-0.3,0.3-0.5,0.8-0.8,1.2c-0.3,0.4-1.2,1-1.6,0.4c-0.2-0.4-0.2-0.9-0.1-1.3c0-0.1,0.1-0.3,0.1-0.4
					C29.8,42.5,29.9,42.4,29.8,42.4c0.1-0.1,0-0.2,0-0.1C29.8,42.3,29.8,42.3,29.8,42.4C29.7,42.4,29.8,42.5,29.8,42.4L29.8,42.4z"
					/>
			</g>
			<g>
				<path class="st0" d="M33.2,42.2c0.4,0.2,0.9,0.6,1.1,1.1c0.1,0.4,0,0.8-0.5,0.9c-0.2,0-0.3-0.1-0.5-0.1c0,0-0.1,0.1,0,0.1
					c0.2,0.1,0.4,0.2,0.7,0.2c0.2-0.1,0.4-0.3,0.5-0.6C34.6,43.1,33.7,42.4,33.2,42.2C33.2,42.1,33.1,42.2,33.2,42.2L33.2,42.2z"/>
			</g>
			<g>
				<path class="st0" d="M44.5,40.8c0.3-0.1,0.4-0.4,0.7-0.5c0.5-0.3,1.1-0.4,1.6-0.2c0.6,0.3,0.9,1,0.2,1.4c-0.5,0.3-1,0.3-1.6,0.3
					c-0.1,0-0.1,0.1,0,0.1c0.6,0,1.2,0,1.7-0.3c0.4-0.3,0.4-0.7,0.2-1c-0.3-0.4-0.9-0.6-1.4-0.5c-0.3,0-0.7,0.2-1,0.3
					C44.9,40.4,44.7,40.7,44.5,40.8C44.5,40.8,44.5,40.9,44.5,40.8L44.5,40.8z"/>
			</g>
			<g>
				<path class="st0" d="M46.3,41c0.3-0.2,0.9-0.2,1,0.2c0,0.1,0.1,0,0.1,0C47.2,40.7,46.7,40.8,46.3,41C46.2,41,46.2,41.1,46.3,41
					L46.3,41z"/>
			</g>
			<g>
				<path class="st0" d="M31.6,39.6c-1.8,0-3.3-1.5-3.3-3.3c0-1.8,1.5-3.3,3.3-3.3c1.8,0,3.3,1.5,3.3,3.3
					C34.9,38.2,33.4,39.6,31.6,39.6z M31.6,33.1c-1.8,0-3.2,1.4-3.2,3.2s1.4,3.2,3.2,3.2s3.2-1.4,3.2-3.2S33.3,33.1,31.6,33.1z"/>
			</g>
			<g>
				<path class="st0" d="M25.7,45.4c-1.8,0-3.3-1.5-3.3-3.3c0-1.8,1.5-3.3,3.3-3.3c1.8,0,3.3,1.5,3.3,3.3
					C29,43.9,27.6,45.4,25.7,45.4z M25.7,38.9c-1.8,0-3.2,1.4-3.2,3.2s1.4,3.2,3.2,3.2s3.2-1.4,3.2-3.2S27.5,38.9,25.7,38.9z"/>
			</g>
			<g>
				<circle class="st0" cx="34.8" cy="31.7" r="0.7"/>
			</g>
			<g>
				<circle class="st0" cx="20.9" cy="45" r="0.7"/>
			</g>
			<g>
				
					<ellipse transform="matrix(0.7429 -0.6694 0.6694 0.7429 -19.7759 31.0685)" class="st0" cx="30.6" cy="41.3" rx="1.5" ry="0.8"/>
			</g>
			<g>
				<path class="st0" d="M31.8,37.4c0.4,0.4,1.1,0.5,1.5,0.1c0.4-0.4,0.5-1.1,0.1-1.5c-0.4-0.4-1.1-0.5-1.5-0.1S31.4,37,31.8,37.4z
					 M32.7,36c0.1,0.1,0.1,0.3,0,0.4c-0.1,0.1-0.3,0.1-0.4,0s-0.1-0.3,0-0.4C32.5,35.8,32.6,35.8,32.7,36z"/>
			</g>
			<g>
				<path class="st0" d="M26,43.1c0.4,0.4,1.1,0.5,1.5,0.1c0.4-0.4,0.5-1.1,0.1-1.5c-0.4-0.4-1.1-0.5-1.5-0.1
					C25.6,42,25.6,42.6,26,43.1z M27,41.6c0.1,0.1,0.1,0.3,0,0.4c-0.1,0.1-0.3,0.1-0.4,0c-0.1-0.1-0.1-0.3,0-0.4
					C26.7,41.5,26.9,41.5,27,41.6z"/>
			</g>
			<g>
				<path class="st0" d="M32.1,42.9c0.3,0.2,0.7,0.7,0.9,1c0.1,0.2,0.3,0.5,0.3,0.7c0,0.3-0.3,0.5-0.6,0.5c-0.6,0-1.1-0.8-1.3-1.2
					c0,0-0.1,0-0.1,0c0.3,0.6,1,1.6,1.7,1.2c0.4-0.2,0.5-0.5,0.3-0.9c-0.1-0.3-0.3-0.6-0.6-0.8C32.6,43.3,32.5,43,32.1,42.9
					C32.1,42.8,32.1,42.8,32.1,42.9L32.1,42.9z"/>
			</g>
			<g>
				<path class="st0" d="M29.2,54.8c-0.6,0.4-1,1.2-1,1.9c0,0.5,0.1,1,0.7,0.9c0.1,0,0-0.1,0-0.1c-0.7,0.2-0.7-0.7-0.6-1.2
					c0.1-0.6,0.4-1.1,0.9-1.4C29.3,54.9,29.3,54.8,29.2,54.8L29.2,54.8z"/>
			</g>
			<g>
				<path class="st0" d="M29,56.8c-0.1,0.2-0.2,0.5,0,0.7c0.1,0.2,0.4,0.1,0.6,0c0.5-0.3,0.6-1.3,0.5-1.9c0-0.1-0.1,0-0.1,0
					c0,0.4,0,0.9-0.2,1.4c-0.1,0.2-0.4,0.6-0.7,0.5C28.8,57.5,29,57,29,56.8C29.1,56.8,29,56.8,29,56.8L29,56.8z"/>
			</g>
			<g>
				<path class="st0" d="M34.1,32.1c2.4,0.4,4.2,2.3,5.8,4c1.8,1.9,3.6,3.9,5.4,5.8c0.1,0.1,0.2,0,0.1-0.1c-2-2-3.8-4.1-5.8-6.1
					c-1.6-1.6-3.3-3.3-5.6-3.7C34,31.9,34,32.1,34.1,32.1L34.1,32.1z"/>
			</g>
			<g>
				<path class="st0" d="M33.1,55.6c-1,0.4-1.7,1.3-2,2.3c0,0,0,0.1,0,0.1c0.5-0.1,0.9-0.3,1.4-0.6c0.4-0.3,0.9-0.6,1.2-1
					c0.1-0.2,0.2-0.5,0-0.7C33.6,55.4,33.3,55.4,33.1,55.6c0,0.1,0.1,0.1,0.1,0.1c0.5,0.1,0.6,0.3,0.4,0.5c0,0.1-0.1,0.1-0.1,0.2
					c-0.1,0.1-0.2,0.1-0.3,0.2c-0.2,0.1-0.4,0.3-0.5,0.4c-0.2,0.2-0.4,0.3-0.7,0.4c-0.1,0-0.7,0.4-0.7,0.3c-0.1-0.2,0.5-1,0.6-1.2
					C32.2,56.3,32.6,55.9,33.1,55.6C33.2,55.7,33.2,55.6,33.1,55.6L33.1,55.6z"/>
			</g>
			<g>
				<path class="st0" d="M34.5,56.2c-0.3,0-0.5,0.3-0.6,0.6c0,0,0,0,0,0c0.4,0,0.6-0.3,0.8-0.6c0,0,0,0,0-0.1c-0.1,0-0.2,0-0.4,0
					C34.3,56.2,34.3,56.3,34.5,56.2c0,0,0.1,0,0.2,0.1c0,0,0,0,0-0.1c-0.1,0.3-0.4,0.5-0.7,0.6c0,0,0,0,0,0
					C34.1,56.5,34.2,56.3,34.5,56.2C34.6,56.3,34.5,56.2,34.5,56.2L34.5,56.2z"/>
			</g>
			<g>
				<path class="st0" d="M28.1,56.8c0,0,0-1.3,1-2l-2-2l-0.6,1.1l-0.4,0.7l-0.4,0.8l-0.3,0.6v0.5l0.3,0.4l0.2,0.2l0.4,0l0.5,0
					L28.1,56.8z"/>
			</g>
			<g>
				<path class="st0" d="M25.9,55.4C25.9,55.4,25.9,55.5,25.9,55.4c-0.1,0.1-0.1,0.2,0,0.3l0,0c0.1,0.1,0.3,0.1,0.3-0.1
					c0-0.1,0-0.2,0.1-0.3c0.1-0.2-0.2-0.4-0.4-0.2C25.9,55.3,25.9,55.3,25.9,55.4c-0.2,0.2,0.1,0.3,0.3,0.1c0,0,0-0.1,0.1-0.1
					c-0.1-0.1-0.2-0.1-0.3-0.2C25.9,55.3,25.9,55.3,25.9,55.4c0.1,0,0.2,0,0.3,0.1c0.2-0.6,0.5-1.1,0.9-1.6
					c-0.1-0.1-0.2-0.1-0.3-0.2c-0.2,0.3-0.3,0.6-0.4,0.9c0,0.2,0.3,0.4,0.4,0.1c0.1-0.3,0.2-0.6,0.3-0.8c0.1-0.2-0.2-0.4-0.3-0.2
					C26.4,54.2,26.1,54.7,25.9,55.4c-0.1,0.1,0.2,0.3,0.3,0.1c0,0,0-0.1,0-0.1c0.1-0.2-0.2-0.4-0.3-0.2
					C25.9,55.3,25.9,55.3,25.9,55.4c0,0,0.2,0,0.3,0.1c0,0,0-0.1,0.1-0.1c-0.1,0-0.2-0.1-0.4-0.2C25.9,55.3,25.9,55.4,25.9,55.4
					c0.1,0.1,0.2,0,0.3,0l0,0c0,0.1,0,0.2,0,0.3l0,0C26.4,55.6,26.1,55.3,25.9,55.4L25.9,55.4z"/>
			</g>
			<g>
				<path class="st0" d="M26.3,55.7c0-0.1,0.1-0.2,0.2-0.4c0.1-0.2-0.2-0.4-0.4-0.2c-0.1,0.1-0.1,0.2-0.2,0.3
					C26.1,55.5,26.2,55.6,26.3,55.7c0-0.1,0-0.2,0.1-0.4c0.1-0.2-0.2-0.3-0.4-0.2c0,0-0.1,0.1-0.1,0.1c0.1,0.1,0.2,0.1,0.3,0.2
					c0-0.1,0.1-0.2,0.1-0.4c0.1-0.2-0.2-0.4-0.3-0.2c-0.1,0.1-0.1,0.2-0.2,0.3c0.1,0,0.2,0.1,0.4,0.2c0-0.1,0-0.1,0.1-0.2
					c-0.1-0.1-0.2-0.1-0.3-0.2c0,0.1-0.1,0.1-0.1,0.2c0.1,0,0.2,0.1,0.4,0.2c0.2-0.5,0.5-0.9,0.8-1.3c0.1-0.2-0.2-0.4-0.4-0.2
					c-0.1,0.2-0.2,0.4-0.3,0.6c0.1,0.1,0.2,0.1,0.3,0.2c0.1-0.2,0.2-0.5,0.4-0.7c0.1-0.2-0.2-0.4-0.3-0.2c-0.1,0.2-0.3,0.4-0.4,0.7
					c-0.1,0.2,0.2,0.4,0.3,0.2c0.1-0.2,0.2-0.4,0.3-0.6c-0.1,0-0.2-0.1-0.4-0.2c-0.1,0.2-0.3,0.4-0.4,0.7c-0.1,0.2-0.2,0.4-0.3,0.6
					c-0.1,0.2,0.2,0.4,0.4,0.2c0-0.1,0.1-0.1,0.1-0.2c0.1-0.2-0.2-0.4-0.3-0.2c0,0.1-0.1,0.2-0.1,0.3c-0.1,0.2,0.2,0.4,0.4,0.2
					c0.1-0.1,0.1-0.2,0.2-0.3C26.2,55,26.2,55,26,54.9c-0.1,0.1-0.1,0.3-0.2,0.5c0,0.2,0.2,0.4,0.3,0.2c0.1-0.1,0.1-0.1,0.2-0.2
					c-0.1,0-0.2-0.1-0.4-0.2c0,0.1,0,0.2-0.1,0.3C25.8,55.7,26.2,55.9,26.3,55.7c0-0.1,0-0.2,0.1-0.3c-0.1,0-0.2-0.1-0.4-0.2
					c0,0.1-0.1,0.2-0.2,0.4C25.9,55.8,26.2,55.9,26.3,55.7L26.3,55.7z"/>
			</g>
			<g>
				<path class="st0" d="M28,56.4c0-0.1,0.1-0.2,0.1-0.3c-0.1,0-0.3,0-0.4-0.1c0,0.1,0,0.2,0,0.4C27.7,56.6,27.9,56.6,28,56.4
					c0.1,0,0.2,0,0.2-0.1c-0.1,0-0.3,0-0.4-0.1c0,0.1,0,0.2,0,0.3c0,0.2,0.3,0.2,0.4,0c0,0,0,0,0,0c-0.1,0-0.3,0-0.4,0
					c0,0,0,0.1,0,0.1c0,0.2,0.3,0.3,0.4,0.1c0,0,0-0.1,0-0.1c-0.1,0-0.3,0-0.4,0c0,0,0,0,0,0c0.1,0,0.2,0.1,0.4,0.1
					c0-0.3,0.1-0.6,0.2-1c-0.1,0-0.2-0.1-0.4-0.1c0,0.2-0.1,0.4-0.1,0.6c-0.1,0.2,0.3,0.4,0.4,0.1c0.1-0.2,0.2-0.5,0.3-0.8
					c0.1-0.2-0.3-0.4-0.4-0.1c0,0.2-0.1,0.3-0.2,0.5c-0.1,0.2,0.3,0.3,0.4,0.1c0.1-0.3,0.2-0.5,0.4-0.8c-0.1-0.1-0.2-0.1-0.3-0.2
					c-0.1,0.2-0.1,0.3-0.2,0.5c-0.1,0.2,0.1,0.4,0.3,0.2c0.2-0.2,0.3-0.6,0.6-0.7c-0.1-0.1-0.2-0.2-0.3-0.3c0,0,0,0,0,0.1
					c-0.1,0.2,0.1,0.3,0.3,0.3c0.1,0,0.1-0.1,0.2-0.2c0.1-0.2-0.3-0.4-0.4-0.1c0,0,0,0,0,0c0.1,0.1,0.2,0.2,0.3,0.3c0,0,0,0,0-0.1
					c0.1-0.1-0.1-0.4-0.3-0.3c-0.3,0.2-0.4,0.6-0.7,0.8c0.1,0.1,0.2,0.2,0.3,0.2c0.1-0.2,0.1-0.3,0.2-0.5c0.1-0.2-0.2-0.4-0.3-0.2
					c-0.1,0.3-0.3,0.6-0.4,0.9c0.1,0,0.2,0.1,0.4,0.1c0-0.2,0.1-0.3,0.2-0.5c-0.1,0-0.2-0.1-0.4-0.1c-0.1,0.3-0.2,0.5-0.3,0.8
					c0.1,0,0.2,0.1,0.4,0.1c0-0.2,0.1-0.4,0.1-0.6c0.1-0.2-0.3-0.4-0.4-0.1c-0.1,0.3-0.2,0.7-0.2,1.1c0,0.2,0.3,0.3,0.4,0.1
					c0-0.1,0.1-0.1,0-0.2c0-0.2-0.3-0.2-0.4,0c0,0,0,0.1,0,0.1c0.1,0,0.3,0,0.4,0.1c0-0.1,0-0.1,0-0.2c0-0.2-0.3-0.2-0.4,0
					c0,0,0,0,0,0c0.1,0,0.3,0,0.4,0c0,0,0-0.1,0-0.2c0-0.2-0.3-0.3-0.4-0.1c0,0,0,0,0,0.1C27.8,56.3,27.9,56.3,28,56.4
					c0.1-0.1,0.1-0.3,0.1-0.4c0-0.2-0.3-0.3-0.4-0.1c0,0.1-0.1,0.2-0.1,0.3C27.5,56.5,27.9,56.6,28,56.4L28,56.4z"/>
			</g>
			<g>
				<path class="st0" d="M28.9,54.7c0,0,0.1,0.1,0.1,0.1c0,0,0,0.1,0,0.1l0,0c0,0,0-0.1,0-0.1S28.9,54.7,28.9,54.7
					c-0.1,0-0.2,0-0.2,0.1c0,0,0,0.1,0,0.2c0,0,0.1,0.1,0.1,0.1c0,0,0.1,0,0.1,0c0,0,0.1-0.1,0.1-0.1C29.1,54.9,29,54.7,28.9,54.7
					L28.9,54.7z"/>
			</g>
			<g>
				<path class="st0" d="M46.8,40.1l0.2-0.4l0.3-0.6l0.1-0.5l0-0.4l0-0.3l-0.3-0.3l-0.5-0.2l-1.2,0.3l-0.9,0.3c0,0-1.1,0.5-1.1,0.6
					c0,0-0.7,0.4-0.7,0.4l1.8,2C44.5,40.8,45.6,39.6,46.8,40.1z"/>
			</g>
			<g>
				<path class="st0" d="M43.1,38.7c-0.1,0-0.1,0-0.2,0c0,0,0,0.1,0,0.1C43,38.8,43.1,38.7,43.1,38.7C43.2,38.7,43.1,38.6,43.1,38.7
					c-0.1,0-0.2,0-0.3,0c0,0,0,0.1,0,0.1c0.2-0.1,0.3-0.2,0.5-0.3c0,0,0,0,0-0.1c-0.1,0.1-0.2,0.2-0.4,0.2c0,0,0,0.1,0,0.1
					c0.6-0.3,1.2-0.7,1.8-0.9c0.6-0.2,1.3-0.5,1.9-0.4c0,0,0-0.1,0-0.1c-0.7,0-1.4,0.2-2,0.4c0,0,0,0,0,0.1c0.3-0.2,0.6-0.3,0.9-0.4
					c0,0,0-0.1,0-0.1c-0.2,0-0.3,0.1-0.5,0.1c-0.1,0,0,0.1,0,0.1c0.2,0,0.4,0,0.6,0c0.1,0,0.1-0.1,0-0.1c-0.2,0-0.4,0-0.7,0
					c0,0,0,0.1,0,0.1c0.2,0,0.3-0.1,0.5-0.1c0,0,0-0.1,0-0.1c-0.3,0.1-0.6,0.2-0.9,0.4c0,0,0,0.1,0,0.1c0.6-0.2,1.3-0.4,1.9-0.4
					c0,0,0.1-0.1,0-0.1c-0.6-0.1-1.3,0.2-1.9,0.3c-0.7,0.2-1.3,0.7-2,1c0,0,0,0,0,0.1c0.1-0.1,0.3-0.1,0.4-0.2c0,0,0-0.1,0-0.1
					c-0.2,0.1-0.3,0.2-0.5,0.3c0,0,0,0.1,0,0.1C43,38.9,43.1,38.8,43.1,38.7C43.2,38.8,43.2,38.7,43.1,38.7c-0.1,0,0,0-0.2,0.1
					c0,0,0,0.1,0,0.1c0.1,0,0.1,0,0.2,0C43.2,38.8,43.2,38.7,43.1,38.7L43.1,38.7z"/>
			</g>
			<g>
				<path class="st0" d="M47.3,37.6c0,0,0-0.1,0-0.1c0,0-0.1,0-0.1,0C47.3,37.5,47.3,37.5,47.3,37.6C47.2,37.6,47.3,37.6,47.3,37.6
					c0-0.1,0-0.1,0-0.1c0,0-0.1-0.1-0.1,0C47.2,37.5,47.2,37.6,47.3,37.6C47.2,37.7,47.3,37.7,47.3,37.6L47.3,37.6z"/>
			</g>
			<g>
				<path class="st0" d="M25.8,57C25.7,57,25.7,57,25.8,57c0,0.1,0,0.1,0,0.1C25.8,57.1,25.8,57,25.8,57c0,0-0.1-0.1-0.1-0.2
					c0,0-0.1,0-0.1,0C25.6,56.9,25.6,57,25.8,57C25.7,57,25.8,57,25.8,57C25.7,56.9,25.7,57,25.8,57C25.7,57.1,25.8,57.1,25.8,57
					C25.8,57,25.7,57,25.8,57c-0.1,0.1-0.1,0.1-0.1,0.1c0,0,0,0.1,0.1,0c0.1-0.1,0.2-0.2,0.3-0.2c0,0,0-0.1-0.1-0.1
					C25.8,56.9,25.7,57,25.8,57c-0.1,0.1,0,0.1,0,0.1C25.7,57.1,25.8,57.1,25.8,57C25.8,57,25.7,56.9,25.8,57
					C25.7,57,25.7,57,25.8,57C25.7,57,25.7,57,25.8,57L25.8,57L25.8,57L25.8,57C25.7,57.1,25.8,57,25.8,57c-0.1,0-0.1-0.1-0.1-0.2
					c0,0-0.1,0-0.1,0c0,0,0,0.1,0,0.1c0,0,0,0.1,0.1,0.1c0,0,0,0.1,0.1,0.1C25.8,57.1,25.8,57,25.8,57C25.9,57,25.8,56.9,25.8,57
					L25.8,57z"/>
			</g>
			<g>
				<path class="st0" d="M55.9,28.6c0-0.4,0.7-0.9,2.1-1.3c0,0,0-0.1,0-0.1C56.6,27.6,55.8,28.2,55.9,28.6c-0.1,0.3,0.4,0.6,1.2,0.8
					l0,0c0,0,0-0.1,0.1-0.1c0,0,0,0,0-0.1c0,0-0.1,0.1-0.1,0.1C56.3,29.2,55.9,28.9,55.9,28.6z"/>
			</g>
			<g>
				<path class="st0" d="M69.9,26.1C69.9,26.1,69.9,26.2,69.9,26.1L69.9,26.1c1.6,0.3,2.5,0.6,2.5,1.1c0,0.3-0.3,0.6-1,0.9
					c0,0,0-0.1-0.1-0.1c0,0,0,0,0.1,0.1c0,0,0,0,0,0.1c0.7-0.3,1.1-0.7,1.1-1C72.5,26.7,71.5,26.3,69.9,26.1z"/>
			</g>
			<g>
				<path class="st0" d="M70.2,28.5c-1.5,0.5-3.6,0.9-5.9,1.1c-2.3,0.2-4.4,0.2-6,0c0,0,0-0.1,0-0.1c0,0,0,0.1-0.1,0.1c0,0,0,0,0,0
					h0c1.6,0.2,3.8,0.2,6.1,0C66.6,29.5,68.7,29.1,70.2,28.5C70.2,28.6,70.2,28.6,70.2,28.5z"/>
			</g>
			<g>
				<path class="st0" d="M68.5,20.3c-0.6-1-1.7-1.6-2.9-1.7c-0.7-0.1-1.4-0.1-2.1,0c-0.8,0.1-1.5,0.3-2.3,0.4
					c-1.2,0.2-2.2,0.9-2.8,1.9c-0.7,1.1-0.9,2.3-0.8,3.6c0,1.7,0.5,3.4,0.6,5.1c0,0.1,0.1,0.1,0.1,0c-0.1-1.4-0.5-2.8-0.6-4.3
					c-0.1-1.3-0.1-2.6,0.4-3.7c0.5-1.1,1.4-2,2.6-2.4c0.7-0.2,1.4-0.3,2-0.4c0.7-0.1,1.3-0.2,2-0.2C66.2,18.6,67.7,19.2,68.5,20.3
					C68.4,20.4,68.5,20.3,68.5,20.3L68.5,20.3z"/>
			</g>
			<g>
				<path class="st0" d="M61.2,19.1c0.1,0,0.1-0.1,0-0.1S61.1,19.1,61.2,19.1L61.2,19.1z"/>
			</g>
			<g>
				<path class="st0" d="M57.7,22.8c-0.4,0-0.9-0.2-1.1-0.5c-0.2-0.4-0.2-0.9,0-1.2c0.2-0.3,0.5-0.6,0.9-0.7
					c0.4-0.1,0.9-0.1,1.2,0.2c0,0,0.1,0,0.1-0.1c-0.3-0.3-0.8-0.3-1.2-0.2c-0.5,0.1-0.9,0.4-1.1,0.8c-0.2,0.4-0.2,0.9,0,1.3
					c0.2,0.4,0.7,0.6,1.2,0.6C57.8,22.9,57.8,22.8,57.7,22.8L57.7,22.8z"/>
			</g>
			<g>
				<path class="st0" d="M67.6,19.4c0.6-0.4,1.6-0.7,2.2,0c0.5,0.7,0.3,1.8-0.5,2.1c-0.1,0,0,0.1,0,0.1c1-0.2,1.2-1.5,0.6-2.2
					C69.4,18.6,68.2,18.9,67.6,19.4C67.4,19.3,67.5,19.4,67.6,19.4L67.6,19.4z"/>
			</g>
			<g>
				<path class="st0" d="M62.8,23.4C62.8,23.4,62.8,23.4,62.8,23.4C62.8,23.4,62.8,23.4,62.8,23.4c0,0-0.1,0-0.1,0
					c-0.1,0-0.2,0.1-0.2,0.2c-0.1,0.1-0.3,0.3-0.3,0.5c-0.1,0.4,0.4,0.6,0.8,0.6c0.3,0,0.6-0.2,0.9-0.3c0.3-0.1,0.5,0,0.8,0.1
					c0.4,0,0.7-0.2,0.6-0.6c-0.1-0.4-0.7-0.6-1.1-0.7c0,0,0,0,0,0c0.4,0.1,1.2,0.3,1.1,0.9c-0.1,0.4-0.4,0.4-0.7,0.3
					c-0.2,0-0.4-0.1-0.6,0c-0.3,0-0.5,0.2-0.8,0.2c-0.3,0.1-0.9,0-0.9-0.4c0-0.2,0.2-0.5,0.4-0.6C62.6,23.5,62.7,23.4,62.8,23.4
					c0,0,0.1,0,0.1-0.1c0,0,0,0,0,0C62.8,23.3,62.8,23.3,62.8,23.4C62.7,23.4,62.7,23.4,62.8,23.4L62.8,23.4z"/>
			</g>
			<g>
				<path class="st0" d="M64.4,24.5c0.1,0.2,0.2,0.6,0.1,0.9c-0.1,0.2-0.3,0.4-0.5,0.2c-0.1,0-0.1-0.1-0.2-0.2c0,0-0.1,0,0,0
					c0.1,0.1,0.1,0.2,0.2,0.3c0.1,0,0.3,0,0.4-0.1C64.7,25.4,64.5,24.8,64.4,24.5C64.4,24.4,64.4,24.4,64.4,24.5L64.4,24.5z"/>
			</g>
			<g>
				<path class="st0" d="M70.1,27.8c0.1,0,0.3,0,0.5,0c0.3,0,0.7,0.2,0.8,0.5c0.2,0.3,0.1,0.8-0.4,0.7c-0.3,0-0.6-0.2-0.8-0.4
					c0,0-0.1,0,0,0c0.3,0.2,0.6,0.4,0.9,0.4c0.3,0,0.4-0.1,0.4-0.4c0-0.3-0.2-0.6-0.4-0.7c-0.2-0.1-0.4-0.2-0.6-0.2
					C70.4,27.7,70.2,27.8,70.1,27.8C70.1,27.7,70,27.7,70.1,27.8L70.1,27.8z"/>
			</g>
			<g>
				<path class="st0" d="M70.8,28.5c0.2,0,0.5,0.2,0.4,0.5c0,0,0,0,0,0C71.4,28.7,71.1,28.5,70.8,28.5
					C70.8,28.4,70.8,28.5,70.8,28.5L70.8,28.5z"/>
			</g>
			<g>
				<path class="st0" d="M65.7,23.1c-1,0-1.9-0.9-1.9-1.9s0.9-1.9,1.9-1.9s1.9,0.9,1.9,1.9S66.7,23.1,65.7,23.1z M65.7,19.4
					c-1,0-1.8,0.8-1.8,1.8c0,1,0.8,1.8,1.8,1.8c1,0,1.8-0.8,1.8-1.8C67.5,20.2,66.7,19.4,65.7,19.4z"/>
			</g>
			<g>
				<path class="st0" d="M61,23.7c-1,0-1.9-0.9-1.9-1.9c0-1,0.9-1.9,1.9-1.9c1,0,1.9,0.9,1.9,1.9C62.9,22.9,62.1,23.7,61,23.7z
					 M61,20c-1,0-1.8,0.8-1.8,1.8c0,1,0.8,1.8,1.8,1.8c1,0,1.8-0.8,1.8-1.8C62.8,20.8,62,20,61,20z"/>
			</g>
			<g>
				<circle class="st0" cx="68.8" cy="20.2" r="0.4"/>
			</g>
			<g>
				<circle class="st0" cx="57.8" cy="21.5" r="0.4"/>
			</g>
			<g>
				
					<ellipse transform="matrix(0.9961 -8.860429e-02 8.860429e-02 0.9961 -1.7986 5.7168)" class="st0" cx="63.5" cy="23.1" rx="0.8" ry="0.5"/>
			</g>
			<g>
				<path class="st0" d="M64.8,21.6c0,0.3,0.3,0.6,0.7,0.5c0.3,0,0.6-0.3,0.5-0.7c0-0.3-0.3-0.6-0.7-0.5C65,21,64.7,21.3,64.8,21.6z
					 M65.8,21.3c0,0.1-0.1,0.2-0.1,0.2c-0.1,0-0.2-0.1-0.2-0.1c0-0.1,0.1-0.2,0.1-0.2C65.7,21.1,65.7,21.2,65.8,21.3z"/>
			</g>
			<g>
				<path class="st0" d="M60.2,22.2c0,0.3,0.3,0.6,0.7,0.5c0.3,0,0.6-0.3,0.5-0.7c0-0.3-0.3-0.6-0.7-0.5
					C60.4,21.6,60.1,21.9,60.2,22.2z M61.2,21.9c0,0.1-0.1,0.2-0.1,0.2c-0.1,0-0.2-0.1-0.2-0.1c0-0.1,0.1-0.2,0.1-0.2
					C61.1,21.7,61.1,21.8,61.2,21.9z"/>
			</g>
			<g>
				<path class="st0" d="M63.6,24.4c0.1,0.2,0.1,0.5,0.1,0.8c0,0.1,0,0.3-0.1,0.4c-0.1,0.1-0.3,0.1-0.5,0c-0.3-0.2-0.2-0.7-0.2-1
					c0,0,0,0,0,0c-0.1,0.3-0.1,1.1,0.4,1.2c0.2,0,0.4-0.1,0.5-0.3c0-0.2,0-0.4,0-0.6C63.7,24.8,63.7,24.6,63.6,24.4
					C63.7,24.3,63.6,24.4,63.6,24.4L63.6,24.4z"/>
			</g>
			<g>
				<path class="st0" d="M58.2,28.9c-0.4,0-0.9,0.2-1.1,0.5c-0.2,0.2-0.3,0.5,0,0.7c0,0,0,0,0,0c-0.4-0.2,0-0.6,0.1-0.7
					C57.5,29.1,57.8,28.9,58.2,28.9C58.2,29,58.2,28.9,58.2,28.9L58.2,28.9z"/>
			</g>
			<g>
				<path class="st0" d="M57.4,29.7c-0.1,0.1-0.3,0.2-0.2,0.3c0,0.1,0.2,0.2,0.3,0.2c0.4,0,0.7-0.4,0.9-0.7c0,0,0,0,0,0
					c-0.1,0.2-0.3,0.4-0.5,0.6c-0.1,0.1-0.4,0.1-0.5,0C57.1,30,57.3,29.9,57.4,29.7C57.4,29.8,57.4,29.7,57.4,29.7L57.4,29.7z"/>
			</g>
			<g>
				<path class="st0" d="M68.3,20.2c1,1,1.1,2.5,1.3,3.9c0.2,1.5,0.3,3,0.5,4.5c0,0.1,0.1,0.1,0.1,0c-0.2-1.6-0.3-3.2-0.5-4.8
					C69.5,22.5,69.3,21.1,68.3,20.2C68.3,20,68.2,20.1,68.3,20.2L68.3,20.2z"/>
			</g>
			<g>
				<path class="st0" d="M59.7,30.6c-0.6-0.1-1.2,0-1.7,0.3c0,0,0,0,0,0c0.3,0.1,0.6,0.2,0.8,0.2c0.3,0,0.6,0,0.9,0
					c0.1,0,0.3-0.1,0.3-0.3C60,30.6,59.9,30.6,59.7,30.6C59.7,30.6,59.7,30.7,59.7,30.6c0.2,0.3,0.2,0.4,0,0.4c0,0-0.1,0-0.1,0
					c-0.1,0-0.1,0-0.2,0c-0.1,0-0.3,0-0.4,0c-0.1,0-0.3,0-0.5,0c0,0-0.4-0.1-0.4-0.1c0-0.1,0.6-0.3,0.7-0.3
					C59.1,30.6,59.4,30.6,59.7,30.6C59.8,30.7,59.8,30.6,59.7,30.6L59.7,30.6z"/>
			</g>
			<g>
				<path class="st0" d="M60.2,31.3c-0.2-0.1-0.3,0-0.5,0.1c0,0,0,0,0,0c0.2,0.1,0.4,0.1,0.6,0C60.3,31.4,60.3,31.4,60.2,31.3
					C60.2,31.3,60.2,31.3,60.2,31.3C60.1,31.3,60,31.3,60.2,31.3C60.2,31.3,60.2,31.4,60.2,31.3C60.2,31.4,60.2,31.4,60.2,31.3
					c-0.1,0.1-0.3,0.2-0.4,0.1c0,0,0,0,0,0C59.8,31.3,60,31.3,60.2,31.3C60.2,31.4,60.2,31.3,60.2,31.3L60.2,31.3z"/>
			</g>
			<g>
				<path class="st0" d="M57,29.4c0,0,0.4-0.6,1.2-0.6L58,27.3l-0.6,0.3l-0.4,0.2L56.4,28L56,28.2l-0.2,0.2v0.3l0,0.2l0.2,0.1
					l0.2,0.1L57,29.4z"/>
			</g>
			<g>
				<path class="st0" d="M56.5,28C56.5,28,56.5,28,56.5,28c-0.1,0-0.1,0.1-0.1,0.1l0,0c0,0.1,0.1,0.1,0.2,0.1c0,0,0.1-0.1,0.1-0.1
					c0.1-0.1,0-0.2-0.1-0.2C56.5,27.9,56.5,28,56.5,28c-0.2,0,0,0.2,0,0.1c0,0,0,0,0.1,0C56.6,28.1,56.6,28,56.5,28
					C56.5,27.9,56.5,28,56.5,28c0,0,0.1,0,0.1,0.1c0.3-0.2,0.6-0.3,1-0.4c0-0.1,0-0.1-0.1-0.2c-0.2,0.1-0.3,0.2-0.5,0.3
					c-0.1,0.1,0,0.3,0.1,0.2c0.1-0.1,0.3-0.2,0.4-0.3c0.1,0,0-0.3-0.1-0.2C57.1,27.6,56.8,27.7,56.5,28c-0.1,0,0,0.2,0.1,0.1
					c0,0,0,0,0,0c0.1-0.1,0.1-0.3-0.1-0.2C56.5,27.9,56.5,27.9,56.5,28C56.5,28,56.5,28.1,56.5,28c0.1,0.1,0.1,0.1,0.2,0
					c0-0.1-0.1-0.1-0.1-0.2C56.5,27.9,56.5,28,56.5,28C56.5,28,56.5,28.1,56.5,28L56.5,28c0.1,0.1,0,0.1,0,0.2l0,0
					C56.6,28.2,56.6,28,56.5,28L56.5,28z"/>
			</g>
			<g>
				<path class="st0" d="M56.6,28.3c0.1,0,0.1-0.1,0.2-0.1c0.1-0.1,0-0.2-0.1-0.2c-0.1,0-0.1,0-0.2,0.1
					C56.5,28.1,56.6,28.2,56.6,28.3c0-0.1,0.1-0.1,0.1-0.2c0.1-0.1,0-0.2-0.1-0.2c0,0-0.1,0-0.1,0c0,0.1,0,0.1,0.1,0.2
					c0,0,0.1-0.1,0.2-0.1c0.1-0.1,0.1-0.3-0.1-0.2c-0.1,0-0.1,0-0.2,0.1c0,0.1,0.1,0.1,0.1,0.2c0,0,0.1,0,0.1-0.1
					c0-0.1,0-0.1-0.1-0.2c0,0-0.1,0-0.1,0c0,0.1,0.1,0.1,0.1,0.2c0.2-0.1,0.5-0.2,0.8-0.3c0.1-0.1,0-0.2-0.1-0.2
					c-0.1,0-0.2,0.1-0.4,0.1c0,0.1,0,0.1,0.1,0.2c0.1-0.1,0.3-0.1,0.4-0.2c0.1,0,0-0.3-0.1-0.2c-0.1,0-0.3,0.1-0.4,0.2
					c-0.1,0.1,0,0.3,0.1,0.2c0.1,0,0.2-0.1,0.4-0.1c0-0.1-0.1-0.1-0.1-0.2c-0.1,0.1-0.3,0.1-0.4,0.1c-0.1,0-0.2,0.1-0.4,0.2
					c-0.1,0.1,0,0.2,0.1,0.2c0,0,0.1,0,0.1,0c0.1-0.1,0-0.3-0.1-0.2c-0.1,0-0.1,0-0.2,0.1c-0.1,0.1,0,0.2,0.1,0.2
					c0.1,0,0.1,0,0.2-0.1c0-0.1,0-0.1-0.1-0.2c-0.1,0-0.2,0.1-0.2,0.1c-0.1,0.1,0,0.2,0.1,0.2c0,0,0.1,0,0.2,0
					c0-0.1-0.1-0.1-0.1-0.2c0,0-0.1,0.1-0.1,0.1C56.4,28.1,56.5,28.3,56.6,28.3c0,0,0.1-0.1,0.2-0.1c0-0.1-0.1-0.1-0.1-0.2
					c-0.1,0-0.1,0.1-0.2,0.1C56.3,28.2,56.5,28.4,56.6,28.3L56.6,28.3z"/>
			</g>
			<g>
				<path class="st0" d="M57.1,29.2c0,0,0.1-0.1,0.2-0.1c0,0-0.1-0.1-0.1-0.2C57,29,57,29,57.1,29.2C56.9,29.2,57,29.3,57.1,29.2
					c0.1,0.1,0.1,0,0.1,0c0,0-0.1-0.1-0.1-0.2c0,0,0,0.1-0.1,0.1c-0.1,0.1,0.1,0.2,0.2,0.1L57.1,29.2C57.1,29.2,57,29.2,57.1,29.2
					c-0.1,0-0.1,0-0.1,0c-0.1,0.1,0,0.2,0.1,0.2c0,0,0,0,0,0C57.1,29.3,57,29.2,57.1,29.2L57.1,29.2c0,0,0,0.1,0,0.1
					c0.1-0.1,0.3-0.2,0.4-0.4c0-0.1-0.1-0.1-0.1-0.2c-0.1,0.1-0.2,0.1-0.3,0.2c-0.1,0.1,0,0.3,0.1,0.2c0.1-0.1,0.3-0.2,0.4-0.3
					c0.1-0.1,0-0.3-0.1-0.2c-0.1,0-0.2,0.1-0.2,0.2c-0.1,0.1,0,0.2,0.1,0.2c0.1-0.1,0.3-0.1,0.4-0.2c0-0.1,0-0.1-0.1-0.2
					c-0.1,0-0.2,0.1-0.3,0.1c-0.1,0-0.1,0.2,0,0.2c0.2,0,0.3-0.1,0.5-0.1c0-0.1,0-0.1,0-0.2c0,0,0,0,0,0c-0.1,0-0.1,0.2,0,0.2
					c0,0,0.1,0,0.1,0c0.1-0.1,0-0.3-0.1-0.2c0,0,0,0,0,0c0,0.1,0,0.1,0,0.2c0,0,0,0,0,0c0.1,0,0.1-0.2,0-0.2c-0.2,0-0.4,0.1-0.6,0.1
					c0,0.1,0,0.1,0,0.2c0.1,0,0.2-0.1,0.3-0.1c0.1-0.1,0-0.3-0.1-0.2c-0.2,0.1-0.3,0.2-0.5,0.2c0,0.1,0.1,0.1,0.1,0.2
					c0.1,0,0.2-0.1,0.2-0.2c0-0.1-0.1-0.1-0.1-0.2c-0.1,0.1-0.2,0.2-0.4,0.3c0,0.1,0.1,0.1,0.1,0.2c0.1-0.1,0.2-0.1,0.3-0.2
					c0.1-0.1,0-0.3-0.1-0.2C57.3,28.8,57.1,29,57.1,29.2C56.9,29.2,57,29.3,57.1,29.2c0.1,0.1,0.1,0,0.1,0c0-0.1-0.1-0.2-0.2-0.1
					c0,0,0,0,0,0C57,29.1,57.1,29.2,57.1,29.2c0.1,0,0.1,0,0.1,0c0-0.1-0.1-0.2-0.2-0.1l0,0C57,29,57.1,29.1,57.1,29.2
					c0.1,0,0.1-0.1,0.1-0.1c0.1-0.1,0-0.2-0.1-0.2c0,0,0,0,0,0C57.1,29,57.1,29,57.1,29.2c0.1-0.1,0.1-0.2,0.2-0.2
					c0.1-0.1,0-0.2-0.1-0.2c0,0-0.1,0.1-0.2,0.1C56.8,29.1,56.9,29.3,57.1,29.2L57.1,29.2z"/>
			</g>
			<g>
				<path class="st0" d="M58.1,28.7C58.1,28.8,58.1,28.8,58.1,28.7c0,0.1,0,0.1,0,0.1l0,0C58.1,28.9,58.1,28.8,58.1,28.7
					C58.1,28.8,58.1,28.7,58.1,28.7c0-0.1-0.1-0.1-0.1,0c0,0,0,0,0,0.1c0,0,0,0.1,0,0.1c0,0,0,0,0.1,0c0,0,0.1,0,0.1,0
					C58.1,28.9,58.1,28.8,58.1,28.7L58.1,28.7z"/>
			</g>
			<g>
				<path class="st0" d="M71.4,28.2l0.2-0.1l0.3-0.2l0.2-0.2l0.2-0.2l0.1-0.1l0-0.2l-0.1-0.2l-0.7-0.3l-0.5-0.1c0,0-0.7-0.1-0.7-0.1
					c0,0-0.5-0.1-0.5-0.1l0.1,1.5C70.1,27.7,71,27.6,71.4,28.2z"/>
			</g>
			<g>
				<path class="st0" d="M70.1,26.3C70.1,26.3,70.1,26.2,70.1,26.3c-0.1,0-0.1,0-0.1,0C70.1,26.3,70.1,26.3,70.1,26.3
					S70.2,26.3,70.1,26.3c0,0-0.1-0.1-0.1-0.1c0,0,0,0,0,0c0.1,0,0.2,0,0.3,0c0,0,0,0,0,0C70.2,26.2,70.1,26.2,70.1,26.3
					C70,26.2,70,26.3,70.1,26.3c0.3,0.1,0.7,0,1.1,0.2c0.3,0.1,0.8,0.2,1,0.5c0,0,0,0,0,0c-0.3-0.2-0.7-0.4-1.1-0.5c0,0,0,0,0,0
					c0.2,0,0.4,0.1,0.5,0.1c0,0,0,0,0,0c-0.1,0-0.2-0.1-0.3-0.1c0,0,0,0,0,0c0.1,0.1,0.2,0.1,0.3,0.2c0,0,0.1,0,0,0
					c-0.1-0.1-0.2-0.2-0.3-0.2c0,0,0,0,0,0c0.1,0,0.2,0.1,0.3,0.1c0,0,0,0,0,0c-0.2,0-0.4-0.1-0.6-0.1c0,0,0,0,0,0
					c0.4,0.1,0.7,0.2,1,0.5c0,0,0.1,0,0,0c-0.2-0.3-0.6-0.4-1-0.5c-0.4-0.1-0.8-0.1-1.2-0.2C70,26.2,70,26.2,70.1,26.3
					c0,0,0.1,0,0.2,0c0,0,0,0,0,0c-0.1,0-0.2,0-0.3,0c0,0,0,0,0,0C70,26.3,70.1,26.3,70.1,26.3C70.2,26.3,70.2,26.3,70.1,26.3
					C70.1,26.2,70.1,26.2,70.1,26.3c-0.1-0.1-0.1,0-0.1,0C70,26.3,70.1,26.3,70.1,26.3C70.1,26.4,70.2,26.3,70.1,26.3L70.1,26.3z"/>
			</g>
			<g>
				<path class="st0" d="M72.5,27.3C72.5,27.2,72.5,27.2,72.5,27.3C72.5,27.2,72.5,27.2,72.5,27.3C72.5,27.2,72.5,27.2,72.5,27.3
					C72.5,27.2,72.5,27.3,72.5,27.3C72.5,27.2,72.5,27.2,72.5,27.3C72.6,27.2,72.5,27.1,72.5,27.3C72.5,27.2,72.5,27.2,72.5,27.3
					C72.4,27.2,72.4,27.3,72.5,27.3L72.5,27.3z"/>
			</g>
			<g>
				<path class="st0" d="M55.9,28.7C55.8,28.7,55.8,28.7,55.9,28.7C55.8,28.7,55.8,28.7,55.9,28.7C55.8,28.7,55.8,28.7,55.9,28.7
					c0,0,0-0.1,0-0.1c0,0,0,0,0,0C55.8,28.6,55.8,28.6,55.9,28.7C55.8,28.7,55.8,28.7,55.9,28.7C55.9,28.7,55.8,28.7,55.9,28.7
					C55.8,28.7,55.8,28.8,55.9,28.7C55.8,28.7,55.8,28.7,55.9,28.7L55.9,28.7C55.8,28.7,55.8,28.8,55.9,28.7c0,0.1,0.1,0,0.2,0
					c0,0,0,0,0,0C56,28.7,55.9,28.7,55.9,28.7C55.8,28.7,55.8,28.7,55.9,28.7L55.9,28.7C55.9,28.7,55.9,28.7,55.9,28.7
					C55.8,28.7,55.8,28.7,55.9,28.7C55.8,28.7,55.8,28.7,55.9,28.7L55.9,28.7L55.9,28.7C55.8,28.7,55.8,28.7,55.9,28.7
					C55.8,28.7,55.9,28.7,55.9,28.7c0,0,0-0.1,0-0.1c0,0,0,0,0,0C55.8,28.6,55.8,28.6,55.9,28.7L55.9,28.7
					C55.7,28.7,55.8,28.7,55.9,28.7C55.8,28.7,55.8,28.7,55.9,28.7C55.9,28.7,55.9,28.7,55.9,28.7L55.9,28.7z"/>
			</g>
			<g>
				<g>
					<g>
						<path class="st0" d="M25.3,56.6c0.1,0.6,0,1.3-0.2,1.9c-0.1,0.2,0.2,0.3,0.3,0.1c0.2-0.6,0.3-1.3,0.2-2
							C25.5,56.4,25.2,56.4,25.3,56.6L25.3,56.6z"/>
					</g>
				</g>
			</g>
			<g>
				<g>
					<g>
						<path class="st0" d="M47,37.6c1.4,0,2.7-0.2,4-0.5c0.2,0,0.1-0.3-0.1-0.3c-1.3,0.3-2.6,0.5-3.9,0.5
							C46.8,37.3,46.8,37.6,47,37.6L47,37.6z"/>
					</g>
				</g>
			</g>
			<g>
				<g>
					<g>
						<path class="st0" d="M55.7,28.6c-0.3,0.7-0.7,1.2-1.3,1.7c-0.1,0.1,0.1,0.3,0.2,0.2c0.6-0.5,1-1.1,1.3-1.8
							C56.1,28.6,55.8,28.4,55.7,28.6L55.7,28.6z"/>
					</g>
				</g>
			</g>
			<g>
				<g>
					<g>
						<path class="st0" d="M72.2,27.2c0.6,1,1.5,1.6,2.7,1.9c0.2,0,0.3-0.2,0.1-0.3c-1-0.3-1.9-0.9-2.5-1.8
							C72.3,26.9,72.1,27,72.2,27.2L72.2,27.2z"/>
					</g>
				</g>
			</g>
			<g>
				<g>
					<g>
						<path class="st0" d="M41.4,78.6c-0.6,1.1-1.4,2-2.4,2.8c-0.1,0.1,0,0.4,0.1,0.3c1-0.8,1.9-1.7,2.6-2.9
							C41.8,78.6,41.5,78.4,41.4,78.6L41.4,78.6z"/>
					</g>
				</g>
			</g>
			<g>
				<g>
					<g>
						<path class="st0" d="M99.1,78.9c0.2,1.2,1,2.3,2.1,2.8c0.2,0.1,0.3-0.2,0.1-0.3c-1.1-0.5-1.8-1.5-2-2.6
							C99.3,78.7,99,78.7,99.1,78.9L99.1,78.9z"/>
					</g>
				</g>
			</g>
			<g>
				<g>
					<g>
						<path class="st0" d="M71.5,133.8c-2.1-2.4-3.5-5.4-4.1-8.6c-0.2-1.5-0.3-3-0.2-4.4c0.1-1.3,0.7-6.1,3.1-4.6
							c1.2,0.7,1.9,1.8,3.2,2.3c1.2,0.5,2.5,0.7,3.8,0.5c2.2-0.3,3.9-1.6,5.4-3.1c1.6-1.6,2.8-3.6,4.4-5.2c1.7-1.8,5.6-4.5,7.8-1.8
							c1.3,1.6,0.7,4.7,3.3,5.2c3,0.6,4.8-3,7.8-2.9c1.4,0,2.8,0.5,4-0.4c0.7-0.6,1.1-1.5,1.3-2.3c0.4-1.2,0.6-2.7,1.5-3.6
							c1.8-2,4.3,0.1,5.6,1.6c0.1,0.1,0.3-0.1,0.2-0.2c-1.4-1.6-4.1-3.7-6.1-1.6c-1.6,1.7-1.1,4.8-3.1,6.1c-1.6,1-3.6-0.2-5.3,0.5
							c-1.5,0.6-2.7,1.9-4.2,2.4c-4.4,1.5-3-4.1-5.6-5.6c-1.9-1.1-4.5,0-6.1,1.3c-2,1.6-3.4,3.8-5,5.7c-1.9,2.2-4.4,4.1-7.5,3.8
							c-2.1-0.2-3.4-1.3-4.9-2.6c-0.7-0.6-1.6-0.9-2.4-0.2c-1.1,0.9-1.3,2.9-1.4,4.1c-0.2,1.6-0.2,3.2,0,4.7
							c0.5,3.4,1.9,6.7,4.2,9.3C71.4,134.2,71.6,133.9,71.5,133.8L71.5,133.8z"/>
					</g>
				</g>
			</g>
			<g>
				<g>
					<g>
						<path class="st0" d="M122.9,63.6c-2.5,0.5-4.4,2.6-4.7,5.1c-0.2,1.6,0.5,3.1,0.9,4.7c0.4,2.1-0.4,3.7-1.5,5.5
							c-1.5,2.3-2.3,4.9-0.5,7.4c0.7,1,1.8,1.7,3,2c0.6,0.1,1.3,0.2,2,0.1c0.2,0,0.5-0.2,0.7-0.2c1.6,0,1.5,0.9,1.4,1.8
							c0,0.2,0.3,0.2,0.3,0c0-0.7,0.1-1.8-0.7-2.2c-0.4-0.2-0.7,0-1.1,0c-1,0.2-1.8,0.3-2.7,0c-1.8-0.5-3.1-1.9-3.5-3.7
							c-0.4-1.8,0.3-3.4,1.2-4.9c0.6-1.1,1.4-2.1,1.7-3.3c0.4-1.3,0.1-2.6-0.3-3.9c-0.5-1.8-0.9-3.5,0.1-5.3c0.8-1.5,2.2-2.6,3.9-3
							C123.2,63.9,123.1,63.6,122.9,63.6L122.9,63.6z"/>
					</g>
				</g>
			</g>
			<g>
				<g>
					<g>
						<path class="st0" d="M48.3,128.8c-1.2-0.7-0.7-2.4,0.2-3.1c1.2-0.9,2.8-0.4,4.1-0.1c1.1,0.3,2.2,0.7,3.2,1
							c0.8,0.3,1.7,0.7,2.6,0.6c1-0.2,1.6-1.1,1.7-2.1c0.1-1.3-0.5-2.4-1.5-3.2c-1.6-1.3-3.5-1.8-5-3.2c-0.9-0.8-1.6-1.9-1.7-3.2
							c0-1.2,0.5-2.3,0.7-3.4c0.5-3-0.7-6.2-2.8-8.3c-2.9-2.9-6.5-2.6-10.3-2.7c-4.3-0.1-8.4-1.9-10.9-5.4
							c-5.9-8.2,1.2-17.8,2.9-26.1c0.3-1.5,0.4-3.4-0.9-4.6c-1.2-1-2.8-0.8-4.1-0.2c-1.9,0.8-3.1,2.6-4.6,3.9c0.1,0-0.7,0.6-0.9,0.7
							c-0.5-0.1-1-0.2-1.6-0.3c0-0.2,0-0.4,0-0.5c0-0.4,0-0.8,0-1.2c0-0.5-0.2-1-0.6-1.4c-0.1-0.1-0.4,0.1-0.2,0.2
							c1.1,0.9,0,2.5,0.9,3.5c0.9,1,2.3-0.4,3-1c1.6-1.5,3-3.3,5.2-3.8c1.1-0.2,2.3-0.1,3.1,0.7c1,1.1,0.8,2.7,0.6,4
							c-1.6,8-8,16.5-3.8,24.8c1.5,3,4.3,5.2,7.5,6.3c4.1,1.4,8.9-0.3,12.8,1.9c3.4,1.9,5.5,6.2,4.5,10.1c-0.4,1.6-0.9,3,0,4.6
							c0.8,1.6,2.3,2.6,3.9,3.4c1.8,1,4.6,2.4,3.6,5c-0.7,1.9-2.8,0.9-4.2,0.5c-1.2-0.4-2.4-0.8-3.6-1.1c-1.4-0.3-3.3-0.4-4.2,0.9
							c-0.6,1-0.6,2.3,0.4,3C48.4,129.2,48.5,128.9,48.3,128.8L48.3,128.8z"/>
					</g>
				</g>
			</g>
			<g>
				<g>
					<g>
						<path class="st0" d="M56.7,109.7c-0.5,1.2-0.1,2.7,1,3.5c1.3,0.9,3.2,0.4,3.8-1c0.7-1.6-0.5-3-1.9-3.6c-1.3-0.5-3.2-0.1-3,1.6
							c0,0.2,0.3,0.1,0.3-0.1c-0.2-1.5,1.4-1.6,2.3-1.3c0.5,0.1,1.1,0.5,1.5,0.8c1.1,1,0.9,2.7-0.3,3.4c-2,1.2-4.2-1.2-3.3-3.2
							C57,109.7,56.7,109.6,56.7,109.7L56.7,109.7z"/>
					</g>
				</g>
			</g>
			<g>
				<g>
					<g>
						<path class="st0" d="M100.7,104.9c-1.4-1.4-2-3.3-1.8-5.3c0.2-2.1,1.6-3.4,3.4-4.3c1.5-0.7,3.1-1.1,4.5-1.8
							c1.6-0.8,2.3-2.5,3.8-3.3c2.2-1.3,5.2,0.6,6.8,2c2.1,1.7,2.9,4.8,0,6.2c-3,1.5-7.4-0.4-9.7,2.6c-0.6,0.7-0.7,1.6-0.8,2.5
							c-0.2,1.5-1.1,2.3-2.5,2.8c-0.4,0.1-0.9,0.3-1.3,0.3c-0.9,0-1.4-0.4-1.7-1c-0.2-0.4-0.4-0.6-0.9-0.6c-0.2,0-0.2,0.3,0,0.3
							c0.7,0,0.9,1.3,1.5,1.6c0.7,0.3,1.7-0.1,2.4-0.3c1.9-0.6,2.7-1.6,3-3.5c1-6.2,9.1-1.5,11.9-5.8c2.4-3.7-3.6-7.6-6.6-7.8
							c-2.2-0.2-3.1,1.5-4.6,2.8c-1.7,1.6-4.1,1.9-6.2,2.9c-3.9,2-4.3,6.9-1.4,9.9C100.6,105.3,100.9,105.1,100.7,104.9L100.7,104.9
							z"/>
					</g>
				</g>
			</g>
			<g>
				<g>
					<g>
						<path class="st0" d="M30.9,92.3c-0.4,0.2-0.4,0.8-0.1,1.1c0.4,0.4,1.1,0.1,1.4-0.3c0.3-0.4,0.4-1-0.1-1.3
							c-0.4-0.2-0.9-0.1-1,0.3c-0.1,0.2,0.2,0.3,0.3,0.1c0.1-0.2,0.4-0.2,0.6-0.1c0.3,0.2,0.2,0.6,0,0.9c-0.2,0.2-0.6,0.4-0.9,0.3
							c-0.3-0.1-0.3-0.5,0-0.7C31.2,92.5,31,92.2,30.9,92.3L30.9,92.3z"/>
					</g>
				</g>
			</g>
			<g>
				<g>
					<g>
						<path class="st0" d="M111.2,85.4c-0.3,0.2-0.4,0.5-0.5,0.8c0,0,0,0.1,0.1,0.1c0.4,0.2,0.9,0.3,1.3,0.1
							c0.3-0.1,0.6-0.5,0.6-0.9c0-0.6-1-0.9-1.2-0.3c-0.1,0.2,0.2,0.3,0.3,0.1c0.1-0.1,0.2-0.2,0.4-0.2c0.2,0,0.3,0.3,0.2,0.5
							c-0.2,0.6-0.9,0.5-1.4,0.3c0,0,0,0.1,0.1,0.1c0-0.2,0.1-0.4,0.3-0.5C111.5,85.6,111.3,85.3,111.2,85.4L111.2,85.4z"/>
					</g>
				</g>
			</g>
			<g>
				<g>
					<g>
						<path class="st0" d="M91.8,102.9c0,0.2,0,0.4-0.1,0.6c0,0,0,0.1,0,0.1c0.1,0.2,0.2,0.3,0.4,0.4c0.2,0.1,0.3,0.1,0.5,0
							c0.3-0.2,0.5-0.5,0.6-0.9c0.1-0.7-0.7-1.3-1.3-0.9c-0.2,0.1,0,0.4,0.1,0.3c0.4-0.2,0.9,0.1,0.8,0.6c0,0.2-0.2,0.5-0.3,0.6
							c-0.1,0.1-0.1,0.1-0.2,0.1c-0.1,0-0.3-0.2-0.3-0.3c0,0,0,0.1,0,0.1c0.2-0.3,0.2-0.6,0.2-0.9C92,102.6,91.8,102.7,91.8,102.9
							L91.8,102.9z"/>
					</g>
				</g>
			</g>
			<g>
				<g>
					<g>
						<path class="st0" d="M76.3,114.4c-0.4,0-0.9,0.3-0.9,0.8c0,0.4,0.3,0.8,0.7,0.9s0.8-0.1,0.9-0.5s0-0.9-0.4-1
							c-0.2-0.1-0.3,0.2-0.1,0.3c0.5,0.2,0.3,1.1-0.3,1c-0.2,0-0.5-0.2-0.5-0.5c0-0.3,0.3-0.6,0.6-0.5
							C76.5,114.7,76.5,114.4,76.3,114.4L76.3,114.4z"/>
					</g>
				</g>
			</g>
			<g>
				<g>
					<g>
						<path class="st0" d="M118,60.2c-0.5,0.1-0.8,0.7-0.6,1.2c0.2,0.5,0.9,0.6,1.3,0.4c0.5-0.3,0.7-1,0.4-1.5
							c-0.1-0.2-0.4-0.5-0.7-0.5s-0.5,0.3-0.5,0.5c0,0.2,0.2,0.3,0.3,0.1c0-0.2,0.1-0.3,0.3-0.3c0,0-0.1,0-0.1,0
							c0.6,0.3,0.9,1.4,0,1.6c-0.3,0.1-0.7-0.1-0.7-0.4c0-0.3,0.1-0.6,0.4-0.6C118.3,60.4,118.2,60.1,118,60.2L118,60.2z"/>
					</g>
				</g>
			</g>
			<g>
				<g>
					<g>
						<path class="st0" d="M24.7,69.4c0.6-1,2.1-3.1,3.3-1.6c0.8,1-0.5,3.3-1,4.3c-0.1,0.2,0.2,0.3,0.3,0.1c0.6-1,1.1-2.2,1.3-3.3
							c0.1-0.6,0-1.2-0.5-1.6c-1.6-1.1-3,0.7-3.6,1.9C24.4,69.5,24.6,69.6,24.7,69.4L24.7,69.4z"/>
					</g>
				</g>
			</g>
			<g>
				<g>
					<g>
						<path class="st0" d="M44.8,104.3c3.1,0,3.3,3.6,3.3,5.9c0,0.2,0.3,0.2,0.3,0c0-2.5-0.4-6.2-3.6-6.2
							C44.6,104,44.6,104.3,44.8,104.3L44.8,104.3z"/>
					</g>
				</g>
			</g>
			<g>
				<g>
					<g>
						<path class="st0" d="M53.8,123.6c0.7,0.7,2.6,2.6,3.7,1.6c0.4-0.3,0.4-0.9,0.2-1.4c-0.3-0.7-1.1-1-1.7-1.2
							c-0.2-0.1-0.3,0.2-0.1,0.3c0.5,0.2,1,0.4,1.3,0.8c0.2,0.2,0.3,0.5,0.3,0.8c-0.1,0.7-0.7,0.8-1.2,0.6c-0.9-0.3-1.7-1-2.4-1.6
							C53.8,123.2,53.6,123.4,53.8,123.6L53.8,123.6z"/>
					</g>
				</g>
			</g>
			<g>
				<g>
					<g>
						<path class="st0" d="M71.1,126.2c-0.8-1-1.7-2.7-1.2-4c0.7-2,3-0.2,3.8,0.7c0.1,0.1,0.3-0.1,0.2-0.2c-1-1-2.6-2.4-4-1.2
							c-1.3,1.2,0.1,3.8,0.9,4.8C71,126.5,71.2,126.3,71.1,126.2L71.1,126.2z"/>
					</g>
				</g>
			</g>
			<g>
				<g>
					<g>
						<path class="st0" d="M88.5,115.8c0.4-1.5,1.3-3.1,2.8-3.7c2.5-1,1.3,3.5,0.9,4.5c-0.1,0.2,0.2,0.3,0.3,0.1
							c0.4-1.1,1.6-5-0.5-5.1c-0.9,0-1.8,0.8-2.4,1.4c-0.7,0.8-1.2,1.7-1.4,2.8C88.2,115.9,88.5,116,88.5,115.8L88.5,115.8z"/>
					</g>
				</g>
			</g>
			<g>
				<g>
					<g>
						<path class="st0" d="M113.2,109c-0.3-0.5-0.1-1.2,0.4-1.4c0.5-0.2,1.2,0.2,1.3,0.7c0,0.2,0.3,0.1,0.3-0.1
							c-0.2-0.7-1-1.2-1.7-0.9c-0.7,0.3-1,1.2-0.6,1.9C113.1,109.3,113.3,109.1,113.2,109L113.2,109z"/>
					</g>
				</g>
			</g>
			<g>
				<g>
					<g>
						<path class="st0" d="M102.5,98.7c-0.4,0.9-1,2.1-0.4,3c0.4,0.6,1.1,1,1.8,0.6c0.2-0.1,0-0.3-0.1-0.3c-0.8,0.4-1.6-0.4-1.6-1.2
							c0-0.7,0.3-1.4,0.6-2.1C102.9,98.6,102.6,98.5,102.5,98.7L102.5,98.7z"/>
					</g>
				</g>
			</g>
			<g>
				<g>
					<g>
						<path class="st0" d="M113.1,92.7c0.7,0,1.6,0.1,2.2,0.6c0.5,0.4,0.8,1.4,0.2,1.9c-0.1,0.1,0.1,0.3,0.2,0.2
							c0.6-0.5,0.5-1.4,0.1-2c-0.6-0.8-1.7-0.9-2.7-1C112.9,92.4,112.9,92.7,113.1,92.7L113.1,92.7z"/>
					</g>
				</g>
			</g>
			<g>
				<g>
					<g>
						<path class="st0" d="M120.3,80.1c-1.9,1-1,3.8,1.1,3.5c0.2,0,0.2-0.3,0-0.3c-1.8,0.2-2.5-2.1-0.9-2.9
							C120.6,80.3,120.4,80.1,120.3,80.1L120.3,80.1z"/>
					</g>
				</g>
			</g>
			<g>
				<g>
					<g>
						<path class="st0" d="M120.8,71.1c-0.4-0.6-0.4-1.5,0.1-2c0.5-0.5,1.3-0.5,1.9-0.2c0.2,0.1,0.3-0.2,0.1-0.3
							c-0.7-0.5-1.8-0.4-2.4,0.3c-0.6,0.7-0.5,1.6,0,2.3C120.7,71.5,120.9,71.2,120.8,71.1L120.8,71.1z"/>
					</g>
				</g>
			</g>
			<g>
				<g>
					<g>
						<path class="st0" d="M44.4,106.7c0.7,0.2,1.2,0.8,1.3,1.6c0,0.2,0.3,0.1,0.3-0.1c-0.1-0.8-0.7-1.5-1.5-1.8
							C44.3,106.3,44.2,106.6,44.4,106.7L44.4,106.7z"/>
					</g>
				</g>
			</g>
			<g>
				<g>
					<g>
						<path class="st0" d="M25.4,70.1C25.4,70.1,25.4,70.1,25.4,70.1C25.4,70.1,25.4,70.1,25.4,70.1C25.4,70.1,25.4,70.1,25.4,70.1
							c0.1,0,0.2,0,0.2,0c0,0,0,0,0,0c0,0,0,0,0,0c0,0.2,0.2,0.3,0.3,0.1c0.1-0.5-0.9-0.6-0.8,0C25.1,70.4,25.4,70.3,25.4,70.1
							L25.4,70.1z"/>
					</g>
				</g>
			</g>
			<g>
				<g>
					<g>
						<path class="st0" d="M89.7,116.7c0.1-0.8,0.6-1.5,1.3-1.9c-0.1,0-0.1,0-0.2,0c0.3,0.5,0.3,1.1,0,1.6c-0.1,0.2,0.2,0.3,0.3,0.1
							c0.3-0.6,0.3-1.3,0-1.9c0-0.1-0.1-0.1-0.2,0c-0.8,0.4-1.3,1.2-1.5,2.1C89.3,116.8,89.6,116.9,89.7,116.7L89.7,116.7z"/>
					</g>
				</g>
			</g>
		</g>
		<g>
			<g>
				<g>
					<path class="st0" d="M91.4,44.7c-0.1,0-0.3,0-0.4-0.1l0,0c-0.1,0-0.2,0-0.2,0c2.1,3.1,3.3,6.6,3.3,10.5
						c0,11.6-11.3,21.1-25.3,21.1c-14,0-25.3-9.5-25.3-21.1s11.3-21.1,25.3-21.1c2.8,0,5.5,0.4,8,1.1c0-0.2,0-0.3,0.1-0.5
						c-2.5-0.7-5.3-1.1-8.1-1.1c-14.2,0-25.8,9.7-25.8,21.6s11.6,21.6,25.8,21.6S94.6,66.9,94.6,55C94.6,51.3,93.4,47.8,91.4,44.7z"
						/>
				</g>
			</g>
			<g>
				<g>
					<path class="st0" d="M91.5,44.7c-0.2,0-0.3,0-0.5-0.1l0,0c-0.1,0-0.1,0-0.2,0c2.5,3,4,6.5,4,10.4c0,10.7-11.5,19.4-25.7,19.4
						s-25.7-8.7-25.7-19.4S55,35.5,69.1,35.5c2.6,0,5.1,0.3,7.5,0.8c0,0,0-0.1,0-0.1c0,0,0-0.1,0-0.2c0-0.1,0-0.1,0-0.2
						c-2.4-0.5-4.9-0.8-7.5-0.8c-14.4,0-26.2,8.9-26.2,19.9s11.7,19.9,26.2,19.9s26.2-8.9,26.2-19.9C95.3,51.2,93.9,47.7,91.5,44.7z
						"/>
				</g>
			</g>
		</g>
		<g>
			<path class="st0" d="M26.3,52.6c-3.5,0-6.6-1.3-8.7-3.8c-4.4-5.1-3.2-13.4,2.7-18.6l0,0c5.9-5.2,14.3-5.2,18.8-0.2
				c4.4,5.1,3.2,13.4-2.7,18.6c-2.9,2.5-6.4,3.9-9.9,3.9C26.4,52.6,26.3,52.6,26.3,52.6z M20.5,30.5c-5.8,5.1-7,13.3-2.7,18.2
				c2.1,2.4,5.2,3.7,8.6,3.7c3.5,0,7-1.4,9.8-3.9c5.8-5.1,7-13.3,2.7-18.2S26.3,25.4,20.5,30.5L20.5,30.5z"/>
		</g>
		<g>
			<path class="st0" d="M25.6,51.8c-3,0-5.8-1.1-7.7-3.2c-2-2.3-2.7-5.4-2.1-8.7c0.6-3.4,2.6-6.6,5.4-9.1c2.9-2.5,6.3-4,9.7-4.1
				c3.4-0.2,6.4,1,8.4,3.2c2,2.3,2.7,5.4,2.1,8.7c-0.6,3.4-2.6,6.6-5.4,9.1C32.8,50.4,29,51.8,25.6,51.8z M21.3,30.8L21.3,30.8
				c-2.7,2.6-4.6,5.7-5.3,9c-0.6,3.3,0.1,6.3,2,8.5c4,4.6,12,4.1,17.8-0.9c2.8-2.5,4.7-5.6,5.4-8.9c0.6-3.3-0.1-6.3-2-8.5
				c-1.9-2.2-4.8-3.3-8.2-3.2C27.6,27,24.2,28.4,21.3,30.8L21.3,30.8z"/>
		</g>
		<g>
			<path class="st0" d="M62.7,27.7c-1.7,0-3.2-0.5-4.6-1.3c-1.7-1.1-2.7-2.7-2.9-4.4c-0.2-1.8,0.4-3.6,1.7-5.1
				c1.3-1.5,3.2-2.4,5.3-2.7l0,0.1l0-0.1c2.1-0.3,4.1,0.2,5.8,1.2c1.7,1.1,2.7,2.7,2.9,4.4c0.2,1.8-0.4,3.6-1.7,5.1
				c-1.3,1.5-3.2,2.4-5.3,2.7C63.5,27.7,63.1,27.7,62.7,27.7z M63.4,14.4c-0.4,0-0.8,0-1.2,0.1c-2,0.3-3.9,1.2-5.1,2.6
				c-1.3,1.4-1.8,3.1-1.6,4.9c0.2,1.7,1.2,3.2,2.8,4.3c1.6,1,3.6,1.5,5.6,1.2c2-0.3,3.9-1.2,5.1-2.6c1.3-1.4,1.8-3.1,1.6-4.9
				c-0.2-1.7-1.2-3.2-2.8-4.3C66.5,14.8,65,14.4,63.4,14.4z"/>
		</g>
		<g>
			<path class="st0" d="M62.8,27.2c-1.6,0-3.2-0.4-4.4-1.2c-1.6-1-2.7-2.4-2.9-4.1c-0.5-3.4,2.7-6.7,7-7.2c4.3-0.6,8.2,1.7,8.7,5.2
				c0.2,1.7-0.4,3.3-1.7,4.7c-1.3,1.4-3.2,2.3-5.3,2.5C63.6,27.1,63.2,27.2,62.8,27.2z M63.7,14.8c-0.4,0-0.8,0-1.3,0.1
				c-4.2,0.6-7.2,3.7-6.8,7c0.2,1.6,1.2,3,2.8,3.9c1.6,0.9,3.6,1.3,5.6,1c2-0.3,3.9-1.1,5.1-2.5c1.3-1.3,1.9-2.9,1.7-4.5
				C70.5,16.9,67.4,14.8,63.7,14.8z"/>
		</g>
		<g>
			<path class="st0" d="M40.5,21.9c-1.8,0-3.2-1.4-3.2-3.2s1.4-3.2,3.2-3.2s3.2,1.4,3.2,3.2S42.2,21.9,40.5,21.9z M40.5,15.8
				c-1.6,0-3,1.3-3,3s1.3,3,3,3c1.6,0,3-1.3,3-3S42.1,15.8,40.5,15.8z"/>
		</g>
		<g>
			<path class="st0" d="M95.2,15.8c-1.8,0-3.2-1.4-3.2-3.2s1.4-3.2,3.2-3.2c1.8,0,3.2,1.4,3.2,3.2S97,15.8,95.2,15.8z M95.2,9.6
				c-1.6,0-3,1.3-3,3s1.3,3,3,3s3-1.3,3-3S96.9,9.6,95.2,9.6z"/>
		</g>
		<g>
			<path class="st0" d="M75.3,12.7c-1.2,0-2.1-0.9-2.1-2.1c0-1.2,0.9-2.1,2.1-2.1c1.2,0,2.1,0.9,2.1,2.1
				C77.4,11.8,76.5,12.7,75.3,12.7z M75.3,8.7c-1,0-1.9,0.8-1.9,1.9c0,1,0.8,1.9,1.9,1.9c1,0,1.9-0.8,1.9-1.9
				C77.2,9.6,76.3,8.7,75.3,8.7z"/>
		</g>
		<g>
			<path class="st0" d="M109.2,27.9c-0.9,0-1.7-0.8-1.7-1.7c0-0.9,0.8-1.7,1.7-1.7c0.9,0,1.7,0.8,1.7,1.7
				C110.8,27.2,110.1,27.9,109.2,27.9z M109.2,24.8c-0.8,0-1.4,0.6-1.4,1.4s0.6,1.4,1.4,1.4c0.8,0,1.4-0.6,1.4-1.4
				S109.9,24.8,109.2,24.8z"/>
		</g>
	</g>
</g>
</svg>
