<?xml version="1.0" encoding="utf-8"?>
<!-- Generator: Adobe Illustrator 24.0.1, SVG Export Plug-In . SVG Version: 6.00 Build 0)  -->
<svg version="1.1" id="Layer_1" xmlns="http://www.w3.org/2000/svg" xmlns:xlink="http://www.w3.org/1999/xlink" x="0px" y="0px"
	 viewBox="0 0 141.7 141.7" style="enable-background:new 0 0 141.7 141.7;" xml:space="preserve">
<style type="text/css">
	.st0{fill:#070707;}
	.st1{enable-background:new    ;}
</style>
<g id="Layer_1_1_">
</g>
<g id="Layer_1_2_">
</g>
<g id="Layer_1_3_">
</g>
<g id="Layer_3">
	<g>
		<g>
			<g>
				<path d="M56.5,19.1L56.5,19.1c-7,1.7-13.7,4.8-19.6,9.1l0.4,0.4c5.8-4.2,12.4-7.3,19.3-9C56.5,19.4,56.5,19.2,56.5,19.1z"/>
			</g>
			<g>
				<path d="M70.6,17.2c-0.6,0-1.1,0-1.7,0c0,0.1,0,0.2,0,0.3c0,0.1,0,0.2,0,0.3c0.5,0,1.1,0,1.7,0c8.3,0,16.4,1.8,23.7,5.2
					c0.2-0.1,0.3-0.1,0.5-0.1h0.1c0.1,0,0.2,0,0.2,0h0.2C87.7,19.2,79.3,17.2,70.6,17.2z"/>
			</g>
			<g>
				<path d="M117.7,41.8h-0.5c-0.1,0-0.1,0-0.2,0c6.8,9.5,10.4,20.9,10.4,32.8c0,15.2-5.9,29.5-16.6,40.2s-25,16.6-40.2,16.6
					s-29.5-5.9-40.2-16.6s-16.6-25-16.6-40.2c0-10.8,3-21.1,8.6-30c0,0,0,0-0.1,0c0,0-0.1-0.1-0.1-0.1c-0.1-0.1-0.2-0.2-0.2-0.3l0,0
					c-5.7,9-8.7,19.5-8.7,30.5c0,15.3,6,29.7,16.8,40.6S55.2,132,70.6,132s29.7-6,40.6-16.8S128,90,128,74.6
					C128,62.7,124.4,51.4,117.7,41.8z"/>
			</g>
		</g>
		<g>
			<g>
				<path class="st0" d="M39.3,74c0-1.5,2.9-3,7.9-4.1c0-0.1,0-0.2,0-0.3C42.1,70.7,39,72.3,39,74c0,1.2,1.4,2.3,4.3,3.4
					c0,0,0,0,0-0.1c0.1-0.1,0.2-0.2,0.3-0.4c0.1-0.1,0.1-0.2,0.2-0.3c-0.1,0.1-0.3,0.2-0.4,0.3C40.7,76.1,39.3,75.1,39.3,74z"/>
			</g>
			<g>
				<path class="st0" d="M90.7,69.4c0,0.1,0,0.2-0.1,0.3c0,0,0.1,0,0.1,0c5.5,1.2,8.7,2.7,8.7,4.3c0,1-1.4,2.1-3.9,3
					c-0.1-0.2-0.2-0.3-0.3-0.4c0.1,0.1,0.2,0.2,0.3,0.4c0.1,0.1,0.1,0.2,0.1,0.3c2.8-1,4.2-2.1,4.2-3.3
					C99.7,72.2,96.3,70.5,90.7,69.4z"/>
			</g>
			<g>
				<path class="st0" d="M90.9,78.3c-5.7,1.2-13.4,1.9-21.6,1.9c-8.3,0-15.9-0.7-21.7-1.9c0.1-0.1,0.1-0.2,0.1-0.4
					c-0.1,0.2-0.2,0.3-0.3,0.5c0,0.1-0.1,0.1-0.1,0.2l0.1,0c5.8,1.3,13.6,2,21.9,2c8.2,0,16.1-0.7,21.8-1.9
					C91,78.5,91,78.4,90.9,78.3z"/>
			</g>
		</g>
		<g>
			<g>
				<path class="st0" d="M87.4,47.9c-2.1-3.7-5.8-6.2-9.9-7.3c-2.5-0.7-5.1-0.7-7.7-0.5c-2.8,0.2-5.6,0.5-8.4,0.9
					c-4.1,0.6-7.9,2.7-10.5,6c-2.8,3.6-3.9,8.1-4.2,12.5c-0.4,6.3,0.6,12.6,0.6,18.8c0,0.3,0.5,0.3,0.5,0c-0.1-9.4-2.8-20.2,2-28.9
					c2.1-3.8,5.7-6.6,10-7.7c2.4-0.6,4.9-0.7,7.3-0.9c2.5-0.3,5-0.5,7.5-0.2c5,0.5,10,3.1,12.4,7.6C87.2,48.4,87.6,48.2,87.4,47.9
					L87.4,47.9z"/>
			</g>
		</g>
		<g>
			<g>
				<path class="st0" d="M61.4,41.4c0.3,0,0.3-0.5,0-0.5C61.1,40.9,61.1,41.4,61.4,41.4L61.4,41.4z"/>
			</g>
		</g>
		<g>
			<g>
				<path class="st0" d="M47.7,53.5c-3.4-0.3-5.4-3.9-3.3-6.7c0.8-1.1,2.1-1.9,3.5-2.2c1.4-0.3,3.3-0.2,4.2,0.9
					c0.2,0.2,0.5-0.1,0.3-0.3c-1-1.2-2.9-1.3-4.4-1.1c-1.7,0.3-3.3,1.3-4.2,2.7c-2,3.2,0.3,6.8,3.9,7.1C48,54,48,53.5,47.7,53.5
					L47.7,53.5z"/>
			</g>
		</g>
		<g>
			<g>
				<path class="st0" d="M84.4,44.5c2.4-1.2,6.2-1.8,7.8,0.9c1.5,2.6,0.6,6.6-2.7,7.1c-0.3,0.1-0.2,0.5,0.1,0.4
					c3.5-0.6,4.6-4.8,3.1-7.6c-1.7-3.1-5.9-2.6-8.6-1.2C83.9,44.2,84.1,44.6,84.4,44.5L84.4,44.5z"/>
			</g>
		</g>
		<g>
			<g>
				<path class="st0" d="M65.7,57.4c0.1,0,0.1,0,0.2,0c0-0.1-0.1-0.2-0.1-0.2c-0.2,0.1-0.4,0.1-0.6,0.2c-0.3,0.1-0.7,0.4-1,0.7
					c-0.6,0.4-1.2,1-1.4,1.7c-0.6,1.5,1.3,2.4,2.6,2.3c1.1-0.1,2.1-0.6,3.3-0.7c1.1-0.2,2.1,0.3,3.1,0.5c1.3,0.3,2.7-0.6,2.4-2.1
					c-0.3-1.6-2.3-2.5-3.7-3c-0.1-0.1-0.2,0.2-0.1,0.2c1.4,0.5,4,1.6,3.5,3.5c-0.6,2.2-3.4,0.4-4.9,0.5c-0.9,0-1.7,0.4-2.6,0.6
					c-1.1,0.3-3.1,0.3-3.5-1.1c-0.2-0.9,0.7-1.8,1.3-2.3c0.3-0.3,0.7-0.5,1-0.7c0.2-0.1,0.4-0.1,0.6-0.2c0.1-0.1,0.1-0.2-0.1-0.2
					c-0.1,0-0.2,0-0.3,0C65.5,57.1,65.6,57.4,65.7,57.4L65.7,57.4z"/>
			</g>
		</g>
		<g>
			<g>
				<path class="st0" d="M71.2,61.7c0.4,0.9,0.5,2,0.3,3c-0.2,0.7-0.9,1.3-1.7,1.1c-0.6-0.2-0.7-0.6-1-1.1c-0.1-0.1-0.3,0-0.2,0.1
					c0.2,0.5,0.4,1,0.9,1.2c0.5,0.2,1.1,0.1,1.5-0.2c1.2-0.8,0.8-3,0.4-4.1C71.4,61.5,71.1,61.5,71.2,61.7L71.2,61.7z"/>
			</g>
		</g>
		<g>
			<g>
				<path class="st0" d="M90.5,64.1c0.4-0.2,1.1,0,1.6-0.1c0.7-0.1,1.3-0.4,1.9-0.7c1-0.6,1.6-1.7,1.5-2.9c-0.1-0.8-0.6-1.3-1.5-1.3
					c-1.4,0-2.5,1-3.5,1.9c-0.1,0.1,0.1,0.3,0.2,0.2c0.8-0.8,1.7-1.5,2.8-1.8c1.7-0.3,2.2,1.3,1.5,2.6c-0.6,1-1.8,1.7-2.9,1.8
					c-0.5,0.1-1.1-0.1-1.6,0.1C90.2,64,90.3,64.2,90.5,64.1L90.5,64.1z"/>
			</g>
		</g>
		<g>
			<g>
				<path class="st0" d="M92.9,61.4c0.9-0.3,1.9-1.1,1.4-2.1c-0.1-0.1-0.3,0-0.2,0.1c0.5,0.9-0.5,1.5-1.2,1.8
					C92.7,61.3,92.7,61.5,92.9,61.4L92.9,61.4z"/>
			</g>
		</g>
		<g>
			<path class="st0" d="M76.9,57.3c-3.8,0-6.9-3.1-6.9-6.9s3.1-6.9,6.9-6.9c3.8,0,6.9,3.1,6.9,6.9S80.7,57.3,76.9,57.3z M76.9,43.8
				c-3.6,0-6.5,2.9-6.5,6.5s2.9,6.5,6.5,6.5c3.6,0,6.5-2.9,6.5-6.5S80.5,43.8,76.9,43.8z"/>
		</g>
		<g>
			<path class="st0" d="M59.9,58c-3.8,0-6.9-3.1-6.9-6.9c0-3.8,3.1-6.9,6.9-6.9c1.9,0,3.6,0.7,4.9,2c1.3,1.3,2,3,2,4.9
				C66.8,54.9,63.7,58,59.9,58z M59.9,44.5c-3.6,0-6.5,2.9-6.5,6.5c0,3.6,2.9,6.5,6.5,6.5c3.6,0,6.5-2.9,6.5-6.5
				c0-1.7-0.7-3.4-1.9-4.6C63.3,45.2,61.7,44.5,59.9,44.5z"/>
		</g>
		<g>
			<path class="st0" d="M89.8,47.7c0-0.8-0.6-1.4-1.4-1.4c-0.8,0-1.4,0.6-1.4,1.4c0,0.8,0.6,1.4,1.4,1.4
				C89.2,49.1,89.8,48.5,89.8,47.7z"/>
		</g>
		<g>
			<circle class="st0" cx="48.3" cy="48.9" r="1.4"/>
		</g>
		<g>
			<path class="st0" d="M71.5,56.6c0-0.9-1.3-1.7-3-1.7c-1.7,0-3,0.7-3,1.7s1.3,1.7,3,1.7C70.1,58.2,71.5,57.5,71.5,56.6z"/>
		</g>
		<g>
			<path class="st0" d="M74.7,50.4c0,1.2,1,2.2,2.2,2.2c1.2,0,2.2-1,2.2-2.2s-1-2.2-2.2-2.2C75.7,48.2,74.7,49.2,74.7,50.4z
				 M78.3,49.5c0,0.3-0.3,0.6-0.6,0.6c-0.3,0-0.6-0.3-0.6-0.6c0-0.3,0.3-0.6,0.6-0.6C78,48.9,78.3,49.1,78.3,49.5z"/>
		</g>
		<g>
			<path class="st0" d="M57.9,51.1c0,1.2,1,2.2,2.2,2.2s2.2-1,2.2-2.2s-1-2.2-2.2-2.2C58.9,48.9,57.9,49.8,57.9,51.1z M61.5,50.2
				c0,0.3-0.3,0.6-0.6,0.6c-0.3,0-0.6-0.3-0.6-0.6s0.3-0.6,0.6-0.6C61.3,49.6,61.5,49.8,61.5,50.2z"/>
		</g>
		<g>
			<g>
				<path class="st0" d="M68.6,61.2c0.2,0.8,0.1,1.9,0,2.7c-0.1,1.1-0.9,2.8-2.2,1.7c-1-0.8-0.7-2.8-0.4-3.8
					c0.1-0.2-0.2-0.2-0.2-0.1c-0.4,1.3-0.7,4,1.1,4.4c2.3,0.5,2.1-3.6,1.9-5C68.8,61,68.6,61.1,68.6,61.2L68.6,61.2z"/>
			</g>
		</g>
		<g>
			<g>
				<path class="st0" d="M43.2,79.4c-1.3-0.7,0-2.1,0.8-2.6c1-0.7,2.2-1.1,3.4-0.9c0.2,0,0.2-0.2,0.1-0.2c-1.5-0.3-3.2,0.4-4.3,1.5
					c-0.8,0.7-1.2,1.8-0.1,2.5C43.2,79.7,43.4,79.4,43.2,79.4L43.2,79.4z"/>
			</g>
		</g>
		<g>
			<g>
				<path class="st0" d="M44.3,78.4c-0.4,0.2-1,0.6-1.1,1.2c0,0.5,0.5,0.8,1,0.9c1.3,0.2,2.7-1.2,3.4-2.1c0.1-0.1-0.1-0.2-0.2-0.1
					c-0.5,0.7-1.3,1.4-2.1,1.8c-0.5,0.2-1.4,0.4-1.7-0.2c-0.3-0.6,0.5-1.1,0.9-1.2C44.5,78.6,44.4,78.4,44.3,78.4L44.3,78.4z"/>
			</g>
		</g>
		<g>
			<g>
				<path class="st0" d="M86.7,47.4c3.2,4.1,3.2,9.5,3.4,14.4c0.2,5.5,0.1,11,0.3,16.5c0,0.3,0.5,0.3,0.5,0
					c-0.3-5.9-0.1-11.7-0.4-17.6C90.3,56,90.1,51,87,47.1C86.9,46.8,86.5,47.2,86.7,47.4L86.7,47.4z"/>
			</g>
		</g>
		<g>
			<g>
				<path class="st0" d="M52.5,82.3c-2.1-0.6-4.3-0.4-6.3,0.7c-0.1,0.1-0.1,0.2,0,0.2c1,0.5,2,0.8,3.1,0.9c1,0.1,2.2,0.3,3.2,0.1
					c0.5-0.1,1.1-0.5,1.1-1.1c0-0.5-0.5-0.8-1-0.7c-0.2,0-0.1,0.3,0.1,0.2c0.1,0.4,0.2,0.8,0.2,1.2c-0.3,0.1-0.5,0.1-0.7,0.2
					c-0.2,0-0.5,0-0.8,0c-0.5,0-1-0.1-1.4-0.1c-0.3,0-3.4-0.4-3.3-0.8c0-0.5,2.1-0.9,2.6-0.9c1.1-0.2,2.2,0,3.3,0.3
					C52.6,82.6,52.6,82.4,52.5,82.3L52.5,82.3z"/>
			</g>
		</g>
		<g>
			<g>
				<path class="st0" d="M53.8,85.1c-0.6-0.3-1.3-0.3-1.8,0.2c-0.1,0.1,0,0.2,0,0.2c0.6,0.4,1.4,0.4,2.1,0.1c0.1,0,0.1-0.1,0.1-0.2
					c-0.1-0.3-0.3-0.4-0.6-0.5c-0.2-0.1-0.2,0.2-0.1,0.2c0.2,0.1,0.4,0.2,0.5,0.4c0-0.1,0-0.1,0.1-0.2c-0.6,0.3-1.3,0.3-1.9-0.1
					c0,0.1,0,0.1,0,0.2c0.4-0.4,1-0.4,1.5-0.2C53.8,85.4,54,85.2,53.8,85.1L53.8,85.1z"/>
			</g>
		</g>
		<g>
			<g>
				<path class="st0" d="M90.8,78.5c1.8-0.3,3.5-0.8,5.2-1.4c0.1-0.1,0.1-0.3-0.1-0.2c-1.7,0.6-3.5,1.1-5.2,1.4
					C90.6,78.3,90.7,78.5,90.8,78.5L90.8,78.5z"/>
			</g>
		</g>
		<g>
			<g>
				<path class="st0" d="M90.7,78.7c1.8-0.3,3.5-0.9,5.2-1.6c0.1-0.1,0-0.3-0.1-0.2c-1.7,0.7-3.4,1.2-5.2,1.5
					C90.5,78.5,90.6,78.7,90.7,78.7L90.7,78.7z"/>
			</g>
		</g>
		<g>
			<g>
				<path class="st0" d="M91,78.4c1-0.4,1.9-0.7,2.9-0.9c0-0.1-0.1-0.1-0.1-0.2c-0.7,0.3-1.4,0.5-2.2,0.6c-0.2,0-0.1,0.3,0.1,0.2
					c0.8-0.2,1.6-0.3,2.4-0.6c0.2-0.1,0.1-0.3-0.1-0.2c-0.6,0.1-1.1,0.3-1.7,0.5c-0.2,0.1-0.1,0.3,0.1,0.2c0.7-0.1,1.3-0.3,2-0.5
					c0.1-0.1,0.1-0.3-0.1-0.2c-0.6,0.3-1.3,0.4-2,0.5c0,0.1,0.1,0.2,0.1,0.2c0.5-0.2,1.1-0.3,1.7-0.5c0-0.1-0.1-0.2-0.1-0.2
					c-0.8,0.3-1.6,0.4-2.4,0.6c0,0.1,0.1,0.2,0.1,0.2c0.8-0.2,1.5-0.4,2.2-0.7c0.1-0.1,0-0.2-0.1-0.2c-1,0.3-2,0.6-2.9,0.9
					C90.8,78.3,90.9,78.5,91,78.4L91,78.4z"/>
			</g>
		</g>
		<g>
			<g>
				<path class="st0" d="M99.6,73.8C99.6,73.8,99.6,73.8,99.6,73.8c-0.1,0.1-0.1,0.1,0,0.2l0,0c0.1,0.1,0.1,0.1,0.2,0l0,0
					c0-0.1,0.1-0.1,0-0.1l0,0C99.7,73.7,99.6,73.8,99.6,73.8c-0.1,0.1-0.1,0.2-0.1,0.3c0.1,0.1,0.1,0.1,0.2,0.1
					c0-0.1,0.1-0.1,0.1-0.1c-0.1,0-0.1-0.1-0.2-0.1c0,0.1-0.1,0.1-0.1,0.2c0.1,0.1,0.1,0.1,0.2,0.1c0-0.1,0.1-0.2,0.1-0.3
					c-0.1,0-0.1-0.1-0.2-0.1c-0.1,0.2-0.2,0.4-0.3,0.6c0.1,0.1,0.1,0.1,0.2,0.1c0.2-0.3,0.3-0.5,0.4-0.7
					C99.8,73.9,99.7,73.9,99.6,73.8c0.1,0.5-0.2,0.8-0.5,1.1c0.1,0.1,0.1,0.1,0.2,0.2c0.3-0.3,0.5-0.7,0.7-1.2c-0.1,0-0.2,0-0.2,0
					c-0.1,1.1-1.2,1.7-2.1,2.1c-0.1,0.1,0,0.3,0.1,0.2c1-0.5,2.1-1.1,2.2-2.3c0-0.1-0.2-0.2-0.2,0c-0.1,0.4-0.3,0.7-0.6,1.1
					c-0.1,0.1,0.1,0.3,0.2,0.2c0.4-0.3,0.6-0.7,0.6-1.2C99.9,73.8,99.7,73.7,99.6,73.8c-0.1,0.3-0.2,0.5-0.4,0.8
					c-0.1,0.1,0.1,0.2,0.2,0.1c0.2-0.2,0.3-0.4,0.4-0.7c0-0.1-0.2-0.2-0.2-0.1c-0.1,0.1-0.1,0.2-0.2,0.3c-0.1,0.1,0.1,0.2,0.2,0.1
					c0.2-0.1,0.2-0.2,0.2-0.3c0-0.1-0.1-0.2-0.2-0.1c-0.1,0.1-0.1,0.1-0.1,0.2c-0.1,0.1,0.1,0.2,0.2,0.1c0.1-0.1,0.2-0.3,0.2-0.4
					c-0.1,0-0.2,0.1-0.2,0.1C99.6,73.9,99.6,73.9,99.6,73.8c0.1,0.1,0.2,0.1,0.2,0.1c0,0,0,0.1,0,0.1C99.8,73.8,99.7,73.7,99.6,73.8
					L99.6,73.8z"/>
			</g>
		</g>
		<g>
			<g>
				<path class="st0" d="M38.9,73.9c-0.1,0.3-0.1,0.5,0.2,0.8c0.1,0.1,0.3,0.1,0.2-0.1c-0.1-0.2-0.1-0.4-0.2-0.5
					c0-0.1-0.2-0.1-0.2,0c-0.1,0.3,0,0.5,0.2,0.7c0.1,0.1,0.2,0,0.2-0.1c-0.1-0.2-0.1-0.3-0.2-0.5c0-0.1-0.2-0.2-0.2,0
					c-0.2,0.7,0.6,1.2,1.1,1.6c0.7,0.5,1.6,0.8,2.5,0.9c0.2,0,0.2-0.2,0-0.2c-0.7-0.1-1.3-0.3-1.9-0.6c-0.5-0.3-1.6-1-1.4-1.7
					c-0.1,0-0.2,0-0.2,0c0,0.2,0.1,0.4,0.2,0.6c0.1-0.1,0.1-0.1,0.2-0.1c-0.1-0.2-0.1-0.3-0.2-0.5c-0.1,0-0.2,0-0.2,0
					c0.1,0.2,0.1,0.4,0.2,0.5c0.1,0,0.1-0.1,0.2-0.1c-0.1-0.2-0.1-0.4-0.1-0.6C39.2,73.8,38.9,73.8,38.9,73.9L38.9,73.9z"/>
			</g>
		</g>
		<g>
			<g>
				<path class="st0" d="M38.9,73.9c-0.1,0.2-0.1,0.3-0.1,0.5c0,0.2,0.2,0.2,0.2,0c0-0.1,0-0.2,0-0.3c0-0.1-0.2-0.2-0.2,0
					c0,0.1-0.1,0.2-0.1,0.4c0,0.2,0.2,0.2,0.2,0c0-0.1,0-0.2-0.1-0.3c-0.1-0.1-0.2,0-0.2,0.1c0,0.1,0,0.2,0,0.3c0,0.1,0.2,0.1,0.2,0
					c0-0.1,0-0.2-0.1-0.3c-0.1-0.1-0.2-0.1-0.2,0c-0.1,0.4,0.2,0.7,0.5,0.9c0.4,0.3,0.7,0.6,1.2,0.8c0.1,0.1,0.3-0.1,0.1-0.2
					c-0.3-0.2-0.6-0.3-0.8-0.5c-0.3-0.2-0.8-0.6-0.7-0.9c-0.1,0-0.1,0-0.2,0c0,0.1,0,0.1,0.1,0.2c0.1,0,0.2,0,0.2,0
					c0-0.1,0-0.2,0-0.3c-0.1,0-0.1,0.1-0.2,0.1c0,0.1,0,0.1,0,0.2c0.1,0,0.2,0,0.2,0c0-0.1,0-0.2,0-0.3c-0.1,0-0.2,0-0.2,0
					c0,0.1,0,0.2,0,0.3c0.1,0,0.2,0,0.2,0c0-0.2,0-0.3,0.1-0.5C39.2,73.8,39,73.8,38.9,73.9L38.9,73.9z"/>
			</g>
		</g>
		<g>
			<path class="st0" d="M92.5,68.5c-0.1,0-0.2,0-0.3,0l-0.1,0c-0.4-0.1-0.7-0.3-0.9-0.6c-0.2-0.3-0.3-0.7-0.2-1.1l4.6-27
				c0.1-0.4,0.3-0.7,0.6-0.9c0.3-0.2,0.7-0.3,1.1-0.2l0.2,0c0.4,0.1,0.7,0.3,0.9,0.6c0.2,0.3,0.3,0.7,0.2,1.1l-4.6,27
				C93.7,68,93.2,68.5,92.5,68.5z M92.7,67.1L92.7,67.1C92.7,67.1,92.7,67.1,92.7,67.1z M96.7,40C96.7,40,96.7,40,96.7,40L96.7,40z"
				/>
		</g>
		<g>
			<path class="st0" d="M117.5,42.4c-0.2,0-0.3,0-0.5,0l-39.2-6.1c-0.9-0.1-1.7-0.6-2.2-1.3c-0.5-0.7-0.7-1.6-0.6-2.5l1.5-9.4
				c0.3-1.8,2-3.1,3.8-2.8l39.2,6.1c0.9,0.1,1.7,0.6,2.2,1.3c0.5,0.7,0.7,1.6,0.6,2.5l-1.5,9.4c-0.1,0.9-0.6,1.7-1.3,2.2
				C118.9,42.2,118.2,42.4,117.5,42.4z M79.8,20.6c-0.6,0-1.2,0.2-1.7,0.6c-0.6,0.4-1,1.1-1.1,1.8l-1.5,9.4
				c-0.1,0.7,0.1,1.5,0.5,2.1c0.4,0.6,1.1,1,1.8,1.1l39.2,6.1c0.7,0.1,1.5-0.1,2.1-0.5c0.6-0.4,1-1.1,1.1-1.8l1.5-9.4
				c0.1-0.7,0-1.5-0.5-2.1c-0.4-0.6-1.1-1-1.9-1.1l0,0l-39.2-6.1C80.1,20.7,79.9,20.6,79.8,20.6z"/>
		</g>
		<g>
			<path class="st0" d="M116.3,41c-0.2,0-0.4,0-0.6,0l-36-5.6c-1-0.2-2-0.7-2.6-1.6c-0.6-0.9-0.9-1.9-0.7-3l0.9-5.4
				c0.3-2.2,2.4-3.7,4.6-3.3l35.9,5.6c1.1,0.2,2,0.7,2.6,1.6c0.6,0.9,0.9,1.9,0.7,3l-0.9,5.4C120,39.6,118.3,41,116.3,41z
				 M81.2,23.8c-0.5,0-0.9,0.1-1.3,0.4c-0.5,0.3-0.8,0.9-0.9,1.4l-0.9,5.4c-0.2,1.2,0.7,2.3,1.8,2.5l36,5.6c0.6,0.1,1.2-0.1,1.6-0.4
				c0.5-0.3,0.8-0.9,0.9-1.4l0.9-5.4c0.1-0.6-0.1-1.2-0.4-1.6c-0.4-0.5-0.9-0.8-1.4-0.9l0,0l-35.9-5.6
				C81.5,23.8,81.3,23.8,81.2,23.8z"/>
		</g>
		<g class="st1">
			<path d="M83.3,26.8l-0.4,1.5l-0.4-0.1l0.1-1.5L83.3,26.8z M84.3,27l-0.4,1.5l-0.4-0.1l0.1-1.5L84.3,27z"/>
			<path d="M84.4,30.8l0.6-3.7l0.8,0.1l-0.2,1.4l1.4,0.2l0.2-1.4l0.8,0.1l-0.6,3.7l-0.8-0.1l0.3-1.6l-1.4-0.2l-0.3,1.6L84.4,30.8z"
				/>
			<path d="M90.2,29c0.2,0.1,0.3,0.3,0.4,0.5c0.1,0.2,0.1,0.4,0.1,0.6c0,0.1,0,0.3-0.1,0.5l-2-0.3c0,0.3,0,0.5,0.2,0.6
				c0.1,0.1,0.2,0.1,0.4,0.2c0.2,0,0.3,0,0.4-0.1c0.1,0,0.1-0.1,0.2-0.2l0.7,0.1c0,0.2-0.2,0.3-0.3,0.4c-0.3,0.2-0.6,0.3-1.1,0.2
				c-0.4-0.1-0.7-0.2-0.9-0.5C88,30.9,88,30.5,88,30c0.1-0.5,0.3-0.8,0.6-1c0.3-0.2,0.6-0.3,1-0.2C89.9,28.8,90.1,28.9,90.2,29z
				 M89.1,29.4c-0.1,0.1-0.2,0.2-0.3,0.4L90,30c0-0.2,0-0.3-0.1-0.5c-0.1-0.1-0.2-0.2-0.4-0.2C89.4,29.3,89.2,29.3,89.1,29.4z"/>
			<path d="M91.6,31.9l-0.7-0.1l0.6-3.7l0.7,0.1L91.6,31.9z"/>
			<path d="M93,32.2l-0.7-0.1l0.6-3.7l0.7,0.1L93,32.2z"/>
			<path d="M96,32.3c-0.3,0.2-0.6,0.3-1.1,0.3c-0.5-0.1-0.8-0.3-1-0.6c-0.2-0.3-0.2-0.7-0.2-1.1c0.1-0.4,0.2-0.7,0.5-1
				c0.3-0.2,0.6-0.3,1.1-0.3c0.5,0.1,0.8,0.3,1,0.6c0.2,0.3,0.2,0.7,0.2,1.1C96.5,31.8,96.3,32.1,96,32.3z M95.5,31.8
				c0.1-0.1,0.2-0.3,0.3-0.6c0-0.3,0-0.5-0.1-0.7c-0.1-0.2-0.2-0.3-0.4-0.3c-0.2,0-0.4,0-0.5,0.1c-0.1,0.1-0.2,0.3-0.3,0.6
				c0,0.3,0,0.5,0.1,0.7c0.1,0.2,0.2,0.3,0.4,0.3C95.2,32,95.4,32,95.5,31.8z"/>
			<path d="M99.4,29.5l0.1,2.2l0,0.6l0.2-0.6l0.8-2l0.8,0.1l0.1,2.2l0,0.6l0.2-0.5l0.8-2l0.8,0.1l-1.6,3.5l-0.7-0.1l-0.1-2.2l0-0.7
				l-0.2,0.7l-0.8,2.1L99,33.2l-0.4-3.8L99.4,29.5z"/>
			<path d="M105.3,33.9c-0.3,0.2-0.6,0.3-1.1,0.3c-0.5-0.1-0.8-0.3-1-0.6c-0.2-0.3-0.2-0.7-0.2-1.1c0.1-0.4,0.2-0.7,0.5-1
				c0.3-0.2,0.6-0.3,1.1-0.3c0.5,0.1,0.8,0.3,1,0.6c0.2,0.3,0.2,0.7,0.2,1.1C105.7,33.3,105.5,33.6,105.3,33.9z M104.8,33.4
				c0.1-0.1,0.2-0.3,0.3-0.6c0-0.3,0-0.5-0.1-0.7c-0.1-0.2-0.2-0.3-0.4-0.3c-0.2,0-0.4,0-0.5,0.1c-0.1,0.1-0.2,0.3-0.3,0.6
				c0,0.3,0,0.5,0.1,0.7c0.1,0.2,0.2,0.3,0.4,0.3C104.5,33.6,104.6,33.5,104.8,33.4z"/>
			<path d="M108,31.8C108,31.8,108.1,31.8,108,31.8l-0.1,0.7c0,0-0.1,0-0.1,0c0,0-0.1,0-0.1,0c-0.3,0-0.5,0-0.6,0.2
				c-0.1,0.1-0.1,0.3-0.2,0.5l-0.2,1.3l-0.7-0.1l0.4-2.7l0.7,0.1l-0.1,0.5c0.1-0.2,0.3-0.3,0.3-0.3C107.6,31.8,107.8,31.8,108,31.8
				C108,31.8,108,31.8,108,31.8z"/>
			<path d="M108.8,34.8l-0.7-0.1l0.6-3.7l0.7,0.1L108.8,34.8z"/>
			<path d="M111.3,32.5c0.1,0.1,0.2,0.2,0.3,0.4l0.2-1.3l0.7,0.1l-0.6,3.7l-0.7-0.1l0.1-0.4c-0.1,0.1-0.3,0.2-0.4,0.3
				c-0.1,0.1-0.3,0.1-0.5,0c-0.3-0.1-0.6-0.2-0.7-0.5c-0.2-0.3-0.2-0.6-0.2-1c0.1-0.5,0.2-0.8,0.5-1c0.3-0.2,0.6-0.3,0.9-0.3
				C111.1,32.3,111.2,32.4,111.3,32.5z M111.2,34.4c0.1-0.1,0.2-0.3,0.3-0.6c0.1-0.3,0-0.6-0.1-0.8c-0.1-0.1-0.2-0.2-0.3-0.2
				c-0.2,0-0.4,0-0.5,0.2c-0.1,0.1-0.2,0.3-0.2,0.6c0,0.3,0,0.5,0,0.6c0.1,0.2,0.2,0.3,0.4,0.3C110.9,34.6,111.1,34.6,111.2,34.4z"
				/>
			<path d="M112.7,34.7l0.8,0.1l-0.1,0.7l-0.8-0.1L112.7,34.7z"/>
			<path d="M115.4,32.1l-0.4,1.5l-0.4-0.1l0.1-1.5L115.4,32.1z M116.3,32.3l-0.4,1.5l-0.4-0.1l0.1-1.5L116.3,32.3z"/>
		</g>
		<g>
			<g>
				<path class="st0" d="M119.1,29.4c0.1,0.1,0.2,0.2,0.2,0.2c0.2,0.2,0.5,0.2,0.6,0c0.2-0.2,0.2-0.5,0-0.6c0,0-0.1-0.1-0.1-0.1
					c-0.2,0.2-0.4,0.4-0.6,0.6c0.1,0,0.1,0.1,0.1,0.1c0.2,0.2,0.5,0.2,0.6,0c0.2-0.2,0.2-0.5,0-0.6c0,0-0.1-0.1-0.1-0.1
					c-0.2,0.2-0.4,0.4-0.6,0.6c0.1,0.1,0.3,0.2,0.4,0.3c0.2,0.1,0.5-0.1,0.5-0.3c0.1-0.2,0-0.4-0.2-0.6c0.1,0.1,0.1,0.1,0.1,0.2
					c-0.2,0.2-0.3,0.4-0.4,0.6h0c-0.1,0-0.2-0.1-0.2-0.1c-0.1-0.1,0,0,0,0s0.1,0.1,0.1,0.1c0.2-0.2,0.4-0.4,0.6-0.6
					c-0.1-0.1-0.1-0.1-0.2-0.1c-0.2-0.2-0.5-0.1-0.6,0.2c-0.1,0.2-0.1,0.5,0.2,0.6c0,0,0.1,0.1,0.1,0.1c0.2,0.1,0.4,0.1,0.6-0.1
					c0.1-0.2,0.2-0.4,0.1-0.6c-0.1-0.1-0.1-0.1-0.2-0.2c-0.2-0.2-0.5-0.2-0.6,0c-0.2,0.2-0.2,0.5,0,0.6c0,0,0.1,0.1,0.1,0.1
					c0.1,0.1,0.4,0.2,0.6,0.1c0.2-0.1,0.3-0.3,0.2-0.5c-0.1-0.2-0.1-0.3-0.3-0.4s-0.4-0.1-0.6,0.1c-0.1,0.2-0.2,0.4-0.1,0.6
					c0.1,0.1,0.1,0.2,0.2,0.2c0.2,0.1,0.4,0.1,0.6-0.1c0.2-0.2,0.2-0.4,0.1-0.6c0-0.1-0.1-0.1-0.2-0.2c-0.2-0.2-0.4-0.2-0.6,0
					c-0.2,0.1-0.3,0.4-0.1,0.6c0,0.1,0.1,0.1,0.1,0.2c0.2,0.2,0.4,0.2,0.6,0c0.2-0.2,0.2-0.4,0.1-0.6c0,0,0-0.1-0.1-0.1
					c-0.1-0.2-0.4-0.3-0.6-0.2c-0.2,0.1-0.3,0.4-0.2,0.6c0,0.1,0.1,0.1,0.1,0.2c0.3,0.3,0.9,0,0.8-0.5c0-0.1-0.1-0.2-0.2-0.3
					c-0.2,0.2-0.4,0.4-0.6,0.6c0,0,0,0,0,0.1c0.4,0.4,1-0.1,0.7-0.6c0,0,0,0,0-0.1c-0.3-0.4-1-0.2-0.9,0.4c0,0.1,0.1,0.2,0.2,0.3
					c0.1,0.1,0.4,0.2,0.6,0.1c0.2-0.1,0.3-0.3,0.2-0.5v0c-0.1-0.4-0.8-0.4-0.9,0l0,0c-0.1,0.2,0.1,0.5,0.3,0.6l0,0
					c0.2,0.1,0.5-0.1,0.6-0.3c0-0.2,0-0.4-0.1-0.5c-0.2-0.2-0.4-0.2-0.6-0.1l0,0c-0.1,0.1-0.2,0.3-0.2,0.4l0,0
					c0,0.3,0.4,0.6,0.7,0.4l0,0c0.2-0.1,0.3-0.4,0.2-0.6l0,0c-0.2,0.2-0.5,0.4-0.7,0.6c0,0,0,0,0,0c0,0,0,0.1,0.1,0.1
					c0.1,0.2,0.4,0.3,0.6,0.2c0.2-0.2,0.3-0.4,0.2-0.6c-0.1-0.1-0.1-0.2-0.2-0.3c-0.2-0.2-0.4-0.2-0.6,0c-0.2,0.1-0.3,0.4-0.1,0.6
					l0,0c0.1-0.2,0.1-0.4,0.2-0.6l0,0c0.2,0.1,0.5,0.3,0.7,0.4l0,0c-0.1,0.1-0.2,0.3-0.2,0.4l0,0c-0.2,0-0.4-0.1-0.6-0.1
					c0,0,0-0.1-0.1-0.1c0-0.1,0-0.2-0.1-0.4l0,0c0.2-0.1,0.4-0.2,0.6-0.3l0,0c0.1,0.2,0.2,0.4,0.3,0.6l0,0c-0.3,0-0.6,0-0.9,0v0
					c0.3-0.2,0.5-0.3,0.8-0.5c0,0,0,0,0,0c0.1,0.1,0.1,0.1,0.1,0.2v0c-0.3,0.1-0.6,0.2-0.9,0.4c0,0,0,0,0,0.1
					c0.2-0.2,0.5-0.4,0.7-0.6c0,0,0,0,0-0.1c-0.2-0.2-0.5-0.2-0.6,0c-0.2,0.2-0.2,0.5,0,0.6l0,0c-0.1-0.1-0.1-0.1-0.1-0.2v0
					c0.3-0.2,0.5-0.3,0.8-0.5l0,0c-0.3,0.2-0.5,0.3-0.8,0.5c0,0,0,0.1,0.1,0.1c0.2-0.2,0.5-0.4,0.7-0.6c0,0,0,0,0,0.1
					c-0.2,0.2-0.5,0.4-0.7,0.6c0.1,0,0.1,0,0,0c0.2-0.2,0.4-0.4,0.6-0.6c0,0,0.1,0.1,0.1,0.1c-0.2,0.2-0.4,0.4-0.6,0.6
					c0,0,0,0-0.1,0c-0.1-0.1-0.1-0.1-0.1-0.2v0c0.3-0.2,0.5-0.3,0.8-0.5c0,0-0.1-0.1-0.1-0.1c-0.2,0.2-0.4,0.4-0.6,0.6
					c0.1,0,0.1,0,0,0c0.2-0.2,0.4-0.4,0.6-0.6c0,0-0.1-0.1-0.1-0.1c-0.2,0.3-0.3,0.5-0.5,0.8c0,0,0,0-0.1,0c0.2,0.2,0.5,0.2,0.6,0
					c0.2-0.2,0.2-0.5,0-0.6s-0.3-0.3-0.5-0.3c-0.3,0-0.6,0.3-0.4,0.6c0.1,0.2,0.2,0.3,0.3,0.4c0.1-0.3,0.2-0.6,0.4-0.9
					c0.1,0,0,0,0,0c0,0,0,0,0,0c-0.2-0.2-0.5-0.2-0.6,0c-0.2,0.2-0.2,0.5,0,0.6c0,0,0.1,0.1,0.1,0.1c0.2-0.2,0.4-0.4,0.6-0.6
					c-0.1,0-0.1-0.1-0.1-0.1c-0.2-0.2-0.5-0.2-0.6,0C119,29,119,29.3,119.1,29.4c0.1,0.1,0.1,0.1,0.1,0.1c0.2-0.2,0.4-0.4,0.6-0.6
					c-0.1-0.1-0.2-0.1-0.2-0.2c-0.2-0.2-0.5-0.2-0.6,0C118.9,29,118.9,29.2,119.1,29.4L119.1,29.4z"/>
			</g>
		</g>
		<g>
			<g>
				<path class="st0" d="M119.7,29.8L119.7,29.8c0.2,0.1,0.3,0.2,0.5,0.2c0.2-0.1,0.3-0.2,0.3-0.3l0,0c-0.1,0.1-0.2,0.2-0.3,0.3l0,0
					c-0.1,0-0.2,0-0.3,0C119.9,29.9,119.8,29.9,119.7,29.8c0.2,0.2,0.4,0.3,0.7,0.2c0.2-0.1,0.3-0.4,0.2-0.6c0-0.1-0.1-0.1-0.1-0.1
					c-0.1-0.2-0.4-0.3-0.6-0.2c-0.2,0.1-0.3,0.4-0.2,0.6C119.7,29.7,119.7,29.8,119.7,29.8c0.3-0.2,0.6-0.3,0.8-0.5
					c-0.1-0.2-0.2-0.3-0.4-0.3c-0.2,0-0.4,0.1-0.5,0.3c0.3-0.1,0.5-0.1,0.8-0.2l0,0c-0.1-0.1-0.2-0.1-0.3-0.1
					c-0.1,0-0.3,0.1-0.3,0.1C119.6,29.3,119.5,29.7,119.7,29.8L119.7,29.8z"/>
			</g>
		</g>
		<g>
			<g>
				<path class="st0" d="M119.4,28.7c-0.2-0.1-0.3-0.1-0.5-0.1c-0.2,0-0.4,0.2-0.4,0.3c-0.1,0.2,0,0.4,0.2,0.5
					c0.1,0,0.2,0.1,0.2,0.1c0.2,0.1,0.5-0.1,0.5-0.3c0.1-0.2,0-0.5-0.2-0.6c-0.1-0.1-0.3-0.1-0.4-0.2c-0.2-0.1-0.5,0.1-0.5,0.3
					s0,0.5,0.2,0.6c0.1,0,0.1,0.1,0.2,0.1c0.1-0.3,0.1-0.6,0.1-0.9c0,0-0.1,0-0.1,0c-0.2,0-0.4,0.2-0.4,0.3c-0.1,0.2,0,0.4,0.2,0.5
					c0.1,0,0.1,0.1,0.2,0.1c0.1,0,0.2,0,0.4-0.1c0.1-0.1,0.2-0.2,0.2-0.3c0.1-0.2-0.1-0.5-0.3-0.6c-0.1,0-0.1,0-0.2-0.1
					c0,0.3,0.1,0.6,0.1,0.9c0,0,0,0,0,0c0.2-0.1,0.3-0.4,0.2-0.6c-0.2-0.2-0.4-0.3-0.6-0.2c0,0,0,0,0,0c-0.2,0.1-0.2,0.3-0.2,0.5
					c0,0.2,0.2,0.3,0.3,0.4c0.1,0,0.1,0,0.2,0.1c0.1-0.3,0.2-0.6,0.3-0.9c0,0,0,0,0.1,0c-0.1,0.3-0.2,0.6-0.2,0.9c0,0,0.1,0,0.1,0
					c0.2,0,0.4-0.2,0.5-0.4c0-0.2-0.1-0.4-0.3-0.5c-0.1,0-0.1,0,0,0c-0.1,0.3-0.2,0.6-0.4,0.9c0,0,0.1,0,0.1,0c-0.1,0-0.1,0,0,0
					c0.1,0,0.1,0.1,0.1,0.1c0.1-0.3,0.2-0.6,0.4-0.9c-0.1,0-0.1,0,0,0c-0.1,0.3-0.2,0.6-0.2,0.9c0.1,0-0.1,0,0,0c0,0,0.1,0,0,0
					c0.2,0.1,0.5,0.1,0.6-0.2C119.7,29.1,119.7,28.8,119.4,28.7L119.4,28.7z"/>
			</g>
		</g>
		<g>
			<g>
				<path class="st0" d="M96.5,39.5c0-0.1,0-0.2-0.1-0.4c0-0.1-0.2-0.1-0.2,0s0,0.2,0,0.4C96.3,39.5,96.4,39.5,96.5,39.5
					c-0.1-0.1-0.1-0.2-0.1-0.3c-0.1,0-0.2,0.1-0.2,0.1c0,0,0,0.1,0,0.1c0.1,0.1,0.2,0.1,0.2,0c0-0.2,0-0.1-0.1-0.3
					c-0.1-0.1-0.3-0.1-0.2,0.1c0,0.1,0,0.1,0.1,0.2c0.1,0,0.1-0.1,0.2-0.1c-0.1-0.1-0.2-0.2-0.4-0.4c-0.1-0.1-0.2,0-0.2,0.1
					c0,0.2,0.1,0.4,0.1,0.6c0,0.1,0.3,0.1,0.2,0c0-0.2-0.1-0.3-0.1-0.5c-0.1,0-0.2,0-0.2,0c0,0.2,0.1,0.4,0.1,0.6c0.1,0,0.2,0,0.2,0
					c-0.1-0.3-0.1-0.5-0.1-0.8c-0.1,0-0.2,0-0.2,0c0.1,0.4,0.1,0.7,0,1.1c0.1,0,0.2,0,0.2,0c0-0.4,0-0.9-0.2-1.3
					c-0.1-0.1-0.3,0-0.2,0.1c0.3,0.6,0.2,1.3,0.2,2c0,0.1,0.2,0.2,0.2,0c0.1-0.3,0.2-0.7,0.2-1c0-0.1,0-0.2,0.1-0.3
					c0-0.1,0-0.3,0.1-0.2c0.1,0.1,0.2-0.1,0.2-0.2C96.5,39,96.4,39,96.3,39c-0.1-0.1-0.2,0.1-0.1,0.2C96.3,39.3,96.4,39.4,96.5,39.5
					c0,0.2,0.2,0.1,0.2-0.1c-0.1-0.1-0.1-0.3-0.2-0.4c-0.1,0.1-0.1,0.1-0.1,0.2c0,0,0,0,0.1,0.1c0.1-0.1,0.1-0.1,0.2-0.2
					c-0.2-0.1-0.3-0.2-0.4,0c-0.1,0.2-0.1,0.6-0.1,0.8c-0.1,0.3-0.1,0.6-0.2,0.9c0.1,0,0.2,0,0.2,0c0-0.6,0.1-1.4-0.2-2.1
					c-0.1,0-0.1,0.1-0.2,0.1c0.2,0.4,0.2,0.7,0.2,1.1c0,0.1,0.2,0.2,0.2,0c0.1-0.4,0.1-0.8,0-1.2c0-0.2-0.2-0.2-0.2,0
					c0,0.3,0,0.6,0.1,0.9c0,0.1,0.2,0.1,0.2,0c0-0.2,0-0.5-0.1-0.7c0-0.1-0.3-0.1-0.2,0c0,0.2,0.1,0.3,0.1,0.5c0.1,0,0.2,0,0.2,0
					c0-0.2-0.1-0.4-0.1-0.6c-0.1,0-0.1,0.1-0.2,0.1c0.1,0.1,0.2,0.2,0.4,0.4c0.1,0.1,0.2,0,0.2-0.1c0-0.1,0-0.1-0.1-0.2
					c-0.1,0-0.2,0.1-0.2,0.1c0,0.1,0,0.2,0,0.2c0.1,0,0.2,0,0.2,0c0,0,0-0.1,0-0.1c-0.1-0.1-0.3-0.1-0.2,0.1c0,0.1,0.1,0.2,0.1,0.3
					c0.1,0.2,0.2,0.1,0.2-0.1c0-0.1,0-0.2,0-0.3c-0.1,0-0.2,0-0.2,0c0,0.1,0.1,0.2,0,0.3C96.2,39.7,96.5,39.7,96.5,39.5L96.5,39.5z"
					/>
			</g>
		</g>
		<g>
			<g>
				<path class="st0" d="M96.6,40.2c0.1,0.5,0.1,1,0.3,1.5c0.1,0.1,0.2,0.1,0.2-0.1c0,0,0,0,0-0.1c0-0.2-0.2-0.2-0.2,0
					c0,0,0,0,0,0.1c0.1,0,0.2-0.1,0.2-0.1C97,41.3,97,41.1,97,40.8c0-0.2-0.1-0.5-0.1-0.7C96.9,40,96.6,40,96.6,40.2L96.6,40.2z"/>
			</g>
		</g>
		<g>
			<g>
				<path class="st0" d="M97.9,39.2L97.9,39.2c0,0.1,0,0.1-0.1,0.2l0,0c-0.1,0-0.1-0.1-0.2-0.1c0,0.1,0,0.1,0,0.2
					c0,0.1,0.1,0.2,0.2,0.1c0.1-0.1,0.1-0.1,0.2-0.2C98,39.3,97.9,39.3,97.9,39.2c-0.1,0.2-0.2,0.3-0.2,0.4c0,0.1,0.1,0.2,0.2,0.1
					c0.1-0.1,0.1-0.2,0.2-0.3c-0.1,0-0.1-0.1-0.2-0.1c-0.1,0.2-0.1,0.3-0.1,0.5c0,0.1,0.1,0.2,0.2,0.1c0.1-0.1,0.1-0.2,0.2-0.3
					c-0.1,0-0.1-0.1-0.2-0.1c-0.1,0.2-0.1,0.5-0.2,0.7c0,0.1,0.2,0.2,0.2,0.1c0.1-0.2,0.2-0.3,0.2-0.5c-0.1,0-0.1-0.1-0.2-0.1
					c-0.1,0.3-0.2,0.5-0.2,0.8c0,0.2,0.2,0.2,0.2,0.1c0.2-0.4,0.3-0.9,0.6-1.1c-0.1-0.1-0.1-0.1-0.1-0.2c-0.4,0.4-0.5,0.8-0.7,1.3
					c0.1,0,0.2,0.1,0.2,0.1c0.1-0.5,0.2-0.9,0.5-1.3c0.1-0.1-0.1-0.2-0.2-0.1c-0.1,0.1-0.2,0.2-0.3,0.3c-0.1,0.1,0.1,0.3,0.2,0.2
					s0.2-0.2,0.2-0.3c0.1-0.1-0.1-0.2-0.2-0.2c-0.1,0-0.1,0.1-0.2,0.1c0.1,0.1,0.1,0.1,0.1,0.2c0.1-0.1,0.1-0.1,0.2-0.2
					c0.1-0.1,0-0.2-0.1-0.2C98.1,39.1,98,39.2,97.9,39.2c0,0.2,0.1,0.3,0.2,0.2c0.1-0.1,0.2-0.1,0.3-0.2c-0.1,0-0.1-0.1-0.2-0.1
					c-0.1,0.2-0.1,0.3-0.2,0.5c-0.1,0.1,0.1,0.2,0.2,0.1c0.1-0.1,0.2-0.2,0.2-0.3c-0.1-0.1-0.1-0.1-0.2-0.1
					c-0.2,0.3-0.3,0.6-0.4,0.9c-0.1,0.1,0.2,0.2,0.2,0.1c0.2-0.2,0.3-0.5,0.4-0.7c0.1-0.1-0.2-0.2-0.2-0.1c-0.1,0.3-0.3,0.6-0.3,0.9
					c-0.1,0.2,0.2,0.2,0.2,0.1c0.1-0.2,0.2-0.4,0.2-0.6c-0.1,0-0.2-0.1-0.2-0.1c-0.1,0.3-0.2,0.5-0.2,0.8c-0.1,0.2,0.2,0.2,0.2,0.1
					c0.1-0.2,0.2-0.5,0.2-0.7c0.1-0.2-0.2-0.2-0.2-0.1c-0.1,0.2-0.2,0.5-0.2,0.7c0.1,0,0.2,0.1,0.2,0.1c0.1-0.4,0.3-0.8,0.6-1.2
					c-0.1-0.1-0.1-0.1-0.2-0.1c-0.2,0.4-0.4,0.8-0.6,1.2c0.1,0.1,0.1,0.1,0.2,0.1c0.1-0.3,0.4-1,0.7-1.2c0-0.1-0.1-0.1-0.1-0.2
					c-0.1,0.1-0.1,0.1-0.2,0.2c-0.1,0.1,0.1,0.3,0.2,0.2c0.1-0.1,0.2-0.2,0.3-0.2c0-0.1-0.1-0.1-0.1-0.2c-0.6,0.5-0.9,1.1-1.2,1.8
					c0.1,0,0.1,0.1,0.2,0.1c0.2-0.4,0.3-0.8,0.5-1.2c-0.1-0.1-0.1-0.1-0.2-0.1c-0.2,0.3-0.3,0.7-0.4,1c-0.1,0.1,0.2,0.2,0.2,0.1
					c0.1-0.2,0.2-0.5,0.3-0.7c0.1-0.1-0.2-0.2-0.2-0.1c-0.1,0.3-0.2,0.5-0.3,0.8c0.1,0,0.2,0.1,0.2,0.1c0.1-0.3,0.2-0.5,0.3-0.8
					c-0.1,0-0.2-0.1-0.2-0.1c-0.1,0.2-0.2,0.4-0.2,0.6c-0.1,0.1,0.2,0.2,0.2,0.1c0.1-0.2,0.2-0.5,0.4-0.7c-0.1,0-0.1-0.1-0.2-0.1
					c-0.1,0.2-0.2,0.4-0.3,0.6c-0.1,0.1,0.2,0.2,0.2,0.1c0.1-0.2,0.2-0.4,0.2-0.6c0-0.2-0.2-0.2-0.2-0.1c-0.1,0.3-0.2,0.6-0.3,0.9
					c-0.1,0.1,0.2,0.2,0.2,0.1c0.1-0.3,0.2-0.6,0.3-0.9c-0.1,0-0.2-0.1-0.2-0.1c-0.1,0.2-0.1,0.4-0.2,0.5c0.1,0,0.1,0.1,0.2,0.1
					c0.1-0.2,0.2-0.4,0.3-0.6c0.1-0.1-0.2-0.2-0.2-0.1c-0.1,0.2-0.2,0.5-0.4,0.7c0.1,0,0.1,0.1,0.2,0.1c0.1-0.2,0.2-0.4,0.2-0.6
					c0.1-0.1-0.2-0.2-0.2-0.1c-0.1,0.3-0.2,0.5-0.3,0.8c-0.1,0.2,0.2,0.2,0.2,0.1c0.1-0.3,0.2-0.5,0.3-0.8c-0.1,0-0.2-0.1-0.2-0.1
					c-0.1,0.2-0.2,0.5-0.3,0.7c0.1,0,0.2,0.1,0.2,0.1c0.1-0.3,0.3-0.6,0.4-1c0.1-0.1-0.1-0.3-0.2-0.1c-0.2,0.4-0.4,0.8-0.6,1.2
					c-0.1,0.1,0.2,0.2,0.2,0.1c0.3-0.6,0.6-1.3,1.2-1.8c0.1-0.1,0-0.2-0.1-0.2c-0.2,0.1-0.3,0.1-0.4,0.3c0.1,0.1,0.1,0.1,0.2,0.2
					c0.1-0.1,0.1-0.1,0.2-0.2c0.1-0.1,0-0.2-0.1-0.2c-0.5,0.2-0.7,0.9-0.9,1.3c-0.1,0.1,0.1,0.3,0.2,0.1c0.2-0.4,0.4-0.8,0.6-1.2
					c0.1-0.1-0.1-0.2-0.2-0.1c-0.3,0.4-0.5,0.8-0.6,1.2c-0.1,0.2,0.2,0.2,0.2,0.1c0.1-0.2,0.2-0.5,0.2-0.7c-0.1,0-0.2-0.1-0.2-0.1
					c-0.1,0.2-0.2,0.5-0.2,0.7c0.1,0,0.2,0.1,0.2,0.1c0.1-0.3,0.2-0.5,0.2-0.8c0.1-0.2-0.2-0.2-0.2-0.1c-0.1,0.2-0.2,0.4-0.2,0.6
					c0.1,0,0.2,0.1,0.2,0.1c0.1-0.3,0.2-0.6,0.3-0.8c-0.1,0-0.1-0.1-0.2-0.1c-0.1,0.2-0.2,0.5-0.3,0.7c0.1,0,0.1,0.1,0.2,0.1
					c0.1-0.3,0.2-0.5,0.4-0.8c0.1-0.1-0.1-0.3-0.2-0.1c-0.1,0.1-0.2,0.2-0.2,0.3c0.1,0.1,0.1,0.1,0.2,0.1c0.1-0.2,0.2-0.4,0.2-0.5
					c0-0.1-0.1-0.2-0.2-0.1c-0.1,0.1-0.2,0.1-0.2,0.2c0.1,0.1,0.1,0.1,0.1,0.2c0,0,0.1-0.1,0.1-0.1c-0.1-0.1-0.1-0.1-0.1-0.2
					C98,39.1,98,39.1,97.9,39.2c0,0.1,0.1,0.3,0.2,0.2c0.1,0,0.1-0.1,0.2-0.1c-0.1-0.1-0.1-0.1-0.2-0.2c-0.1,0.1-0.1,0.2-0.2,0.3
					c0.1,0.1,0.1,0.1,0.2,0.2c0.1-0.1,0.2-0.2,0.3-0.3c-0.1-0.1-0.1-0.1-0.2-0.1c-0.3,0.4-0.4,0.9-0.5,1.3c0,0.2,0.2,0.2,0.2,0.1
					c0.1-0.4,0.3-0.9,0.6-1.2c0.1-0.1,0-0.3-0.1-0.2c-0.4,0.3-0.5,0.8-0.7,1.3c0.1,0,0.2,0.1,0.2,0.1c0.1-0.3,0.1-0.5,0.2-0.8
					c0-0.1-0.2-0.2-0.2-0.1c-0.1,0.2-0.2,0.3-0.2,0.5c0.1,0,0.1,0.1,0.2,0.1c0.1-0.3,0.1-0.5,0.2-0.7c0.1-0.1-0.2-0.2-0.2-0.1
					c-0.1,0.1-0.1,0.2-0.2,0.3c0.1,0,0.1,0.1,0.2,0.1c0.1-0.2,0.1-0.3,0.1-0.5C98.2,39.1,98,39,97.9,39.2c0,0-0.1,0.1-0.1,0.1
					c0.1,0,0.1,0.1,0.2,0.1c0-0.1,0.1-0.2,0.1-0.3C98.1,39.2,98,39.1,97.9,39.2c-0.1,0.1-0.2,0.1-0.2,0.2c0.1,0,0.1,0.1,0.2,0.1
					C97.9,39.4,98,39.3,97.9,39.2c0-0.1-0.1-0.1-0.2-0.1l0,0c-0.1,0-0.1,0.1-0.1,0.2l0,0C97.8,39.4,98,39.3,97.9,39.2L97.9,39.2z"/>
			</g>
		</g>
		<g>
			<g>
				<path class="st0" d="M95.2,38.8c0.7,0.4,0.6,1.4,0.6,2.1c0,0.2,0.2,0.2,0.2,0c-0.1-0.8,0.1-1.8-0.7-2.3
					C95.2,38.6,95.1,38.8,95.2,38.8L95.2,38.8z"/>
			</g>
		</g>
		<g>
			<g>
				<path class="st0" d="M95.6,38.9c0,0.1,0.1,0.2,0.1,0.3c0.1,0,0.1-0.1,0.2-0.1v0c-0.1,0-0.2,0-0.2,0c0.1,0.2,0.1,0.4,0.1,0.5
					c0,0.2,0.2,0.2,0.2,0c0-0.2-0.1-0.4-0.1-0.6c-0.1-0.1-0.2-0.1-0.2,0c0,0.1,0,0.1,0.1,0.1c0.1,0.1,0.3,0.1,0.2-0.1
					c0-0.1-0.1-0.2-0.1-0.3C95.7,38.7,95.5,38.8,95.6,38.9L95.6,38.9z"/>
			</g>
		</g>
		<g>
			<g>
				<path class="st0" d="M95.1,38.8c0.7,0.4,0.7,1.5,0.7,2.2c0,0.2,0.2,0.2,0.2,0c0-0.8,0-2-0.8-2.5C95.1,38.6,95,38.8,95.1,38.8
					L95.1,38.8z"/>
			</g>
		</g>
		<g>
			<g>
				<path class="st0" d="M99.1,39.2c-0.4,0-0.7,0.3-1,0.6c0.1,0.1,0.1,0.1,0.2,0.2c0.2-0.3,0.5-0.4,0.8-0.5c0-0.1-0.1-0.1-0.1-0.2
					c-0.7,0.3-1.1,1-1.4,1.7c-0.1,0.1,0.2,0.3,0.2,0.1c0.3-0.6,0.6-1.3,1.3-1.6c0.1-0.1,0-0.2-0.1-0.2c-0.4,0.1-0.6,0.3-0.9,0.5
					c-0.1,0.1,0.1,0.3,0.2,0.2c0.2-0.2,0.5-0.5,0.9-0.5C99.3,39.4,99.3,39.2,99.1,39.2L99.1,39.2z"/>
			</g>
		</g>
		<g>
			<path class="st0" d="M43.1,77.3c0,0,1.8-2.1,4.4-1.7l-0.3-5.8l-2.4,0.8l-1.7,0.5l-1.8,0.8l-1.4,0.5l-0.7,0.8l-0.1,1v0.7l0.6,0.5
				l0.8,0.6L43.1,77.3z"/>
		</g>
		<g>
			<g>
				<path class="st0" d="M41.5,72L41.5,72c-0.3,0-0.5,0.2-0.5,0.5v0c0,0.4,0.4,0.6,0.7,0.4c0.2-0.1,0.3-0.3,0.5-0.4
					c0.5-0.3,0.2-1-0.4-0.9c-0.2,0.1-0.4,0.1-0.6,0.2c-0.5,0.2-0.1,1,0.4,0.9c0.1,0,0.2-0.1,0.3-0.1c-0.1-0.3-0.2-0.6-0.3-0.9
					c-0.1,0-0.1,0.1-0.2,0.1c0.1,0.3,0.2,0.6,0.4,0.9c1.1-0.6,2.3-1,3.6-1.3c-0.1-0.3-0.2-0.6-0.3-0.9c-0.7,0.2-1.3,0.5-1.9,0.9
					c-0.5,0.3,0,1.1,0.5,0.8c0.5-0.4,1.1-0.6,1.7-0.8c0.6-0.2,0.3-1.1-0.3-0.9c-1.3,0.3-2.6,0.7-3.8,1.4c-0.4,0.3-0.1,1.1,0.4,0.9
					c0.1,0,0.1-0.1,0.2-0.1c0.5-0.2,0.4-1.1-0.3-0.9c-0.1,0-0.2,0.1-0.3,0.1c0.1,0.3,0.2,0.6,0.4,0.9c0.1,0,0.2-0.1,0.3-0.1
					c-0.1-0.3-0.2-0.6-0.4-0.9c-0.2,0.1-0.4,0.3-0.5,0.4c0.2,0.1,0.5,0.3,0.7,0.4v0c-0.2,0.2-0.3,0.3-0.5,0.5h0
					C42.1,72.9,42.1,72,41.5,72L41.5,72z"/>
			</g>
		</g>
		<g>
			<g>
				<path class="st0" d="M41.9,73c0.3-0.1,0.5-0.2,0.8-0.3c0.5-0.2,0.1-1-0.4-0.9c-0.2,0.1-0.5,0.2-0.7,0.2c0.1,0.3,0.2,0.6,0.4,0.9
					c0.2-0.1,0.4-0.2,0.6-0.4c0.5-0.3,0.2-0.9-0.4-0.9c-0.1,0-0.3,0-0.4,0.1c0.1,0.3,0.2,0.6,0.2,0.9c0.2-0.2,0.4-0.3,0.7-0.4
					c0.5-0.2,0.3-1.1-0.3-0.9c-0.3,0.1-0.5,0.2-0.8,0.2c0.1,0.3,0.2,0.6,0.4,0.9c0.2-0.1,0.3-0.2,0.5-0.2c-0.1-0.3-0.2-0.6-0.3-0.9
					c-0.2,0.1-0.3,0.1-0.4,0.2c0.1,0.3,0.2,0.6,0.4,0.9c1-0.5,2-0.6,3-1c0.5-0.2,0.1-1-0.4-0.9c-0.5,0.2-0.9,0.3-1.4,0.4
					c0.1,0.3,0.2,0.6,0.3,0.9c0.5-0.2,1-0.4,1.6-0.5c0.6-0.1,0.3-1-0.3-0.9c-0.5,0.1-1.1,0.3-1.6,0.5c-0.5,0.2-0.3,1.1,0.3,0.9
					c0.5-0.2,0.9-0.3,1.4-0.4c-0.1-0.3-0.2-0.6-0.4-0.9c-0.5,0.2-1.1,0.3-1.6,0.4c-0.5,0.2-0.9,0.4-1.4,0.6c-0.5,0.2-0.2,1,0.4,0.9
					c0.2,0,0.3-0.1,0.4-0.2c0.5-0.2,0.3-1.1-0.3-0.9c-0.2,0.1-0.5,0.2-0.7,0.3c-0.5,0.3-0.2,1,0.4,0.9c0.3-0.1,0.5-0.2,0.8-0.2
					c-0.1-0.3-0.2-0.6-0.3-0.9c-0.3,0.1-0.6,0.3-0.9,0.5c-0.3,0.2-0.3,0.9,0.2,0.9c0.2,0,0.4-0.1,0.6-0.1c-0.1-0.3-0.2-0.6-0.4-0.9
					c-0.2,0.1-0.4,0.2-0.6,0.4c-0.4,0.3-0.2,1,0.4,0.9c0.2-0.1,0.5-0.2,0.7-0.2c-0.1-0.3-0.2-0.6-0.4-0.9c-0.3,0.1-0.5,0.2-0.8,0.3
					C40.9,72.5,41.4,73.3,41.9,73L41.9,73z"/>
			</g>
		</g>
		<g>
			<g>
				<path class="st0" d="M43.4,76.4c0.2-0.1,0.4-0.2,0.6-0.3c-0.2-0.2-0.4-0.5-0.6-0.7c-0.2,0.2-0.3,0.4-0.5,0.5
					c-0.3,0.4,0,0.9,0.5,0.8c0.2,0,0.3-0.1,0.4-0.1c-0.2-0.2-0.4-0.5-0.6-0.7c-0.2,0.2-0.2,0.3-0.4,0.4c-0.3,0.4,0.3,0.9,0.6,0.6
					c0,0,0.1-0.1,0.1-0.1c-0.2-0.2-0.4-0.4-0.6-0.6c-0.1,0.1-0.1,0.1-0.1,0.1c-0.4,0.3,0.1,1,0.6,0.7c0.1,0,0.1-0.1,0.2-0.1
					c-0.2-0.2-0.4-0.4-0.6-0.6c0,0,0.1-0.1,0.1-0.1c0.2,0.3,0.3,0.5,0.5,0.8c0.5-0.5,1.1-0.8,1.7-1.2c-0.2-0.3-0.3-0.5-0.5-0.8
					c-0.4,0.2-0.7,0.5-1.1,0.7c-0.5,0.3-0.1,1.1,0.5,0.8c0.5-0.2,1-0.5,1.5-0.8c0.5-0.3,0.1-1.1-0.5-0.8c-0.3,0.2-0.6,0.3-0.9,0.5
					c-0.5,0.3-0.1,1,0.5,0.8c0.5-0.2,1.1-0.5,1.7-0.7c-0.1-0.3-0.2-0.6-0.3-0.9c-0.4,0.1-0.7,0.3-1.1,0.4c-0.5,0.2-0.4,0.9,0.1,0.9
					c0.6,0,1.3-0.4,1.9-0.3c0-0.3,0-0.6,0-0.9c-0.1,0-0.2,0-0.2,0.1c-0.5,0.1-0.4,0.7,0,0.9c0.2,0.1,0.4,0,0.5-0.1
					c0.5-0.3,0.1-1.1-0.5-0.8c0.1,0,0.1,0,0.2-0.1c0,0.3,0,0.6,0,0.9c0.1,0,0.2,0,0.2-0.1c0.4-0.1,0.5-0.8,0-0.9
					C46.6,74.6,46,75,45.2,75c0.1,0.3,0.1,0.6,0.1,0.9c0.4-0.1,0.7-0.3,1.1-0.4c0.5-0.2,0.3-1.1-0.3-0.9c-0.6,0.2-1.3,0.5-1.9,0.8
					c0.2,0.3,0.3,0.5,0.5,0.8c0.3-0.2,0.6-0.3,0.9-0.5c-0.2-0.3-0.3-0.5-0.5-0.8c-0.5,0.3-1,0.6-1.5,0.8c0.2,0.3,0.3,0.5,0.5,0.8
					c0.4-0.2,0.7-0.5,1.1-0.7c0.5-0.3,0.1-1.1-0.5-0.8c-0.7,0.4-1.3,0.8-1.9,1.3c-0.4,0.3,0,0.9,0.5,0.8c0.2-0.1,0.3-0.2,0.4-0.3
					c0.3-0.4-0.3-0.9-0.6-0.6c-0.1,0-0.1,0.1-0.2,0.1c0.2,0.2,0.4,0.5,0.6,0.7c0.1-0.1,0.2-0.2,0.3-0.3c0.3-0.4-0.3-0.9-0.6-0.6
					c0,0-0.1,0.1-0.1,0.1c0.2,0.2,0.4,0.4,0.6,0.6c0.1-0.1,0.2-0.2,0.2-0.2c0.4-0.4-0.1-1-0.6-0.7c-0.1,0-0.1,0-0.2,0.1
					c0.2,0.3,0.3,0.5,0.5,0.8c0.2-0.2,0.3-0.4,0.5-0.5c0.4-0.4-0.1-1-0.6-0.7c-0.2,0.1-0.4,0.2-0.6,0.3
					C42.4,75.9,42.9,76.7,43.4,76.4L43.4,76.4z"/>
			</g>
		</g>
		<g>
			<g>
				<path class="st0" d="M47.2,75C47.2,75.1,47.2,75.1,47.2,75c0,0.2,0,0.2,0,0.3c0,0.1-0.1,0.1-0.1,0.2c0.1-0.1,0.1-0.2,0.1-0.3
					s-0.1-0.3-0.1-0.3c-0.1-0.1-0.2-0.1-0.3-0.1c-0.1,0-0.2,0.1-0.3,0.1c-0.2,0.2-0.2,0.5-0.1,0.6c0.1,0.2,0.4,0.3,0.6,0.2
					C47.2,75.5,47.3,75.2,47.2,75L47.2,75z"/>
			</g>
		</g>
		<g>
			<path class="st0" d="M95.3,77.3l1-0.3l1.3-0.6l0.9-0.7l0.7-0.6l0.5-0.5v-0.9l-0.4-0.9l-2.3-1.2l-1.9-0.7c0,0-2.4-0.7-2.5-0.7
				c-0.1,0-1.7-0.4-1.7-0.4l0.1,5.6C90.8,75.3,94,75,95.3,77.3z"/>
		</g>
		<g>
			<g>
				<path class="st0" d="M91.5,70.2c-0.1-0.1-0.2-0.2-0.3-0.3c0,0.1-0.1,0.1-0.1,0.2C91.2,70.1,91.3,70.2,91.5,70.2
					c0.1,0,0.1-0.1,0.1-0.2c-0.2,0-0.4-0.1-0.6-0.3c0,0.1-0.1,0.1-0.1,0.2c0.4,0.1,0.8,0.2,1.2,0.2c0-0.1,0-0.2,0-0.2
					c-0.3,0-0.6-0.1-0.9-0.2C91,69.7,91,69.9,91.1,70c1.2,0.4,2.5,0.5,3.7,1c1.3,0.5,3.1,1.1,3.9,2.3c0.1-0.1,0.1-0.1,0.2-0.1
					c-1.1-0.9-2.3-1.6-3.7-2.1c0,0.1-0.1,0.2-0.1,0.2c0.7,0.2,1.3,0.3,1.9,0.6c0.1,0.1,0.3-0.1,0.1-0.2c-0.3-0.2-0.7-0.3-1-0.5
					c-0.1-0.1-0.2,0.1-0.1,0.2c0.4,0.3,0.7,0.5,1,0.9c0.1,0.1,0.3-0.1,0.2-0.2c-0.3-0.4-0.6-0.6-1-0.9c-0.1,0.1-0.1,0.1-0.1,0.2
					c0.3,0.2,0.7,0.3,1,0.5c0.1-0.1,0.1-0.1,0.1-0.2c-0.6-0.3-1.3-0.5-2-0.6c-0.2,0-0.2,0.2-0.1,0.2c1.3,0.5,2.5,1.1,3.6,2
					c0.1,0.1,0.3,0,0.2-0.1c-0.8-1.1-2.3-1.6-3.5-2.1c-1.3-0.6-2.8-0.7-4.2-1.2c0,0.1-0.1,0.2-0.1,0.2c0.3,0.1,0.6,0.2,0.9,0.2
					c0.1,0,0.2-0.2,0-0.2c-0.4-0.1-0.8-0.2-1.2-0.2c-0.1,0-0.2,0.1-0.1,0.2c0.2,0.2,0.4,0.2,0.6,0.3c0.1,0,0.2-0.2,0.1-0.2
					c-0.3-0.2-0.2-0.1-0.5-0.2c-0.1,0-0.2,0.1-0.1,0.2c0.1,0.1,0.2,0.2,0.3,0.3C91.4,70.4,91.6,70.2,91.5,70.2L91.5,70.2z"/>
			</g>
		</g>
		<g>
			<g>
				<path class="st0" d="M99.5,74.3c0.1-0.1,0.2-0.1,0.3-0.1c-0.1-0.1-0.1-0.1-0.1-0.2c0,0-0.1,0-0.1,0.1c-0.1,0.1,0,0.3,0.1,0.2
					c0,0,0.1,0,0.1-0.1c0.1-0.1,0-0.3-0.1-0.2c-0.1,0.1-0.2,0.1-0.3,0.1C99.3,74.2,99.4,74.4,99.5,74.3L99.5,74.3z"/>
			</g>
		</g>
		<g>
			<g>
				<path class="st0" d="M39.2,74.1c-0.1,0-0.2,0-0.2,0c0,0.1,0,0.2,0,0.2C39.1,74.4,39.1,74.3,39.2,74.1c0-0.1,0.1-0.3,0.2-0.5
					c0.1-0.1-0.1-0.2-0.2-0.1c-0.1,0.2-0.2,0.4-0.2,0.6c0.1,0,0.2,0,0.2,0c0-0.1-0.2-0.2-0.3-0.1c-0.1,0.1,0.1,0.3,0.2,0.2
					c0-0.1-0.1-0.1-0.1-0.2c-0.1,0-0.1,0.1-0.1,0.1c-0.1,0.1-0.1,0.2,0.1,0.2c0.3,0,0.5,0,0.8,0c0.2,0,0.2-0.2,0-0.2
					c-0.3,0-0.5,0-0.8,0c0,0.1,0.1,0.2,0.1,0.2c0.1,0,0.1-0.1,0.1-0.1c0.1-0.1,0-0.3-0.1-0.2c0,0,0,0,0.1,0
					C39.1,74.2,39.1,74.2,39.2,74.1L39.2,74.1c-0.1,0.1-0.1,0.1-0.1,0.2c0,0,0,0,0,0c0,0-0.1,0-0.1,0l0,0c0,0,0-0.1,0-0.1v0
					C39,74.4,39.2,74.4,39.2,74.1c0-0.1,0.1-0.3,0.2-0.5c-0.1,0-0.1-0.1-0.2-0.1c0,0.1-0.1,0.2-0.1,0.3c0,0.1-0.1,0.2-0.1,0.3
					c0,0,0.1,0,0.1,0h0c-0.2,0-0.2,0.2,0,0.2c0.1,0,0.2,0,0.3,0C39.4,74.3,39.3,74.1,39.2,74.1L39.2,74.1z"/>
			</g>
		</g>
		<g>
			<polygon class="st0" points="90.7,78.3 96.3,77 94.3,73.1 90.5,73.1 			"/>
		</g>
		<g>
			<path class="st0" d="M22.8,50.8c-0.5-0.6,0.1-2.1,1.6-4.2c-0.1-0.1-0.1-0.1-0.1-0.1c-1.5,2.1-2.1,3.8-1.6,4.4
				c0.4,0.5,1.3,0.4,2.8-0.2v0c0-0.1,0-0.2,0-0.2c0-0.1,0-0.1,0-0.2c0,0.1,0,0.2,0,0.3C24,51.1,23.1,51.2,22.8,50.8z"/>
		</g>
		<g>
			<path class="st0" d="M40.4,31.8c0,0.1,0.1,0.1,0.1,0.2c0,0,0,0,0,0c2.5-1.4,4.2-1.9,4.7-1.3c0.4,0.4,0.2,1.2-0.5,2.5
				c-0.1,0-0.2-0.1-0.2,0c0.1,0,0.2,0,0.2,0.1c0.1,0,0.1,0.1,0.2,0.1c0.7-1.3,0.9-2.2,0.4-2.7C44.7,29.8,42.9,30.3,40.4,31.8z"/>
		</g>
		<g>
			<path class="st0" d="M43.5,35c-1.7,2.3-4.4,5.2-7.4,8c-3.1,2.8-6.2,5.1-8.7,6.6c0-0.1-0.1-0.1-0.1-0.2c0,0.1,0.1,0.2,0.1,0.3
				c0,0,0,0.1,0,0.1l0,0c2.6-1.5,5.7-3.8,8.9-6.7c3.1-2.8,5.8-5.7,7.5-8.1C43.6,35.1,43.6,35.1,43.5,35z"/>
		</g>
		<g>
			<path class="st0" d="M32,24.9c-2-0.7-4.2-0.4-6.1,0.6c-1.2,0.6-2.2,1.4-3.1,2.3c-1,1-1.9,2.1-2.8,3.1c-1.4,1.6-2.2,3.7-2,5.9
				c0.2,2.3,1.3,4.4,2.7,6.1c2,2.5,4.4,4.5,6.6,6.8c0.1,0.1,0.3-0.1,0.2-0.1c-1.8-1.9-3.8-3.6-5.5-5.6c-1.5-1.7-2.9-3.6-3.5-5.9
				c-0.5-2.2-0.1-4.5,1.2-6.3c0.7-1,1.7-1.9,2.5-2.9c0.8-0.9,1.7-1.8,2.7-2.5c2-1.5,4.7-2.2,7.2-1.3C32,25.1,32.1,24.9,32,24.9
				L32,24.9z"/>
		</g>
		<g>
			<path class="st0" d="M20,31.2c0.1-0.1-0.1-0.3-0.1-0.2C19.8,31.1,19.9,31.3,20,31.2L20,31.2z"/>
		</g>
		<g>
			<path class="st0" d="M19,40.3c-0.6,0.5-1.4,0.7-2.2,0.4c-0.8-0.3-1.2-1-1.3-1.8c-0.1-0.7,0.2-1.4,0.6-2c0.4-0.5,1.1-1.1,1.9-1
				c0.1,0,0.2-0.2,0-0.2c-0.8-0.1-1.5,0.5-2,1.1c-0.5,0.6-0.8,1.5-0.7,2.4c0.1,0.8,0.7,1.5,1.4,1.8c0.8,0.3,1.7,0.1,2.4-0.4
				C19.2,40.4,19.1,40.2,19,40.3L19,40.3z"/>
		</g>
		<g>
			<path class="st0" d="M29.7,24.6c0.5-1.3,1.7-2.8,3.2-2.3c1.5,0.4,2.5,2.3,1.5,3.6c-0.1,0.1,0.1,0.2,0.2,0.1
				c1.1-1.4,0.1-3.4-1.5-3.9c-1.7-0.5-3,1.1-3.6,2.5C29.4,24.7,29.6,24.7,29.7,24.6L29.7,24.6z"/>
		</g>
		<g>
			<path class="st0" d="M27,35.7C27.1,35.6,27.1,35.6,27,35.7c0-0.1,0-0.1,0-0.1c0,0.1-0.1,0.2-0.2,0.3c-0.1,0.2-0.1,0.4-0.1,0.6
				c-0.1,0.4-0.1,0.7,0.1,1.1c0.3,0.8,1.3,0.5,1.8,0c0.4-0.4,0.6-0.9,1-1.3c0.4-0.4,0.8-0.6,1.3-0.8c0.6-0.3,0.9-1.1,0.3-1.6
				c-0.6-0.5-1.7-0.2-2.4,0.1c-0.1,0,0,0.1,0.1,0.1c0.7-0.3,2.1-0.7,2.5,0.2c0.3,0.7-0.2,1-0.7,1.3c-0.4,0.2-0.7,0.3-1,0.6
				c-0.3,0.4-0.5,0.8-0.9,1.2c-0.3,0.4-1.3,1-1.7,0.4c-0.3-0.4-0.2-1-0.1-1.4c0-0.2,0.1-0.3,0.2-0.4c0-0.1,0.1-0.2,0.1-0.2
				c0-0.1-0.1-0.1-0.1-0.1C27,35.5,27,35.6,27,35.7C26.9,35.7,27,35.7,27,35.7L27,35.7z"/>
		</g>
		<g>
			<path class="st0" d="M30.5,35.5c0.5,0.2,1,0.6,1.2,1.1c0.1,0.4-0.1,0.9-0.5,0.9c-0.2,0-0.4-0.1-0.6-0.2c-0.1,0-0.1,0.1,0,0.1
				c0.2,0.1,0.5,0.2,0.7,0.2c0.3-0.1,0.5-0.3,0.5-0.6C32,36.3,31.1,35.7,30.5,35.5C30.5,35.4,30.5,35.4,30.5,35.5L30.5,35.5z"/>
		</g>
		<g>
			<path class="st0" d="M42.5,34c0.3-0.1,0.5-0.4,0.7-0.5c0.5-0.3,1.2-0.5,1.7-0.2c0.6,0.3,1,1,0.3,1.4C44.7,35,44.1,35,43.5,35
				c-0.1,0-0.1,0.1,0,0.1c0.6,0,1.3,0,1.8-0.4c0.4-0.3,0.5-0.7,0.2-1.1c-0.3-0.5-0.9-0.6-1.4-0.6c-0.4,0.1-0.7,0.2-1,0.4
				C42.9,33.6,42.7,33.9,42.5,34C42.4,33.9,42.4,34,42.5,34L42.5,34z"/>
		</g>
		<g>
			<path class="st0" d="M44.3,34.2c0.4-0.2,0.9-0.2,1.1,0.3c0,0.1,0.1,0.1,0.1,0c-0.2-0.6-0.8-0.5-1.2-0.3
				C44.2,34.1,44.3,34.3,44.3,34.2L44.3,34.2z"/>
		</g>
		<g>
			<path class="st0" d="M28.9,32.8c-1.9,0-3.5-1.6-3.5-3.5c0-1.9,1.6-3.5,3.5-3.5s3.5,1.6,3.5,3.5C32.3,31.2,30.8,32.8,28.9,32.8z
				 M28.9,26c-1.8,0-3.3,1.5-3.3,3.3c0,1.8,1.5,3.3,3.3,3.3c1.8,0,3.3-1.5,3.3-3.3C32.2,27.5,30.7,26,28.9,26z"/>
		</g>
		<g>
			<path class="st0" d="M22.8,38.8c-1.9,0-3.5-1.6-3.5-3.5c0-1.9,1.6-3.5,3.5-3.5c1.9,0,3.5,1.6,3.5,3.5
				C26.2,37.2,24.7,38.8,22.8,38.8z M22.8,31.9c-1.8,0-3.3,1.5-3.3,3.3c0,1.8,1.5,3.3,3.3,3.3s3.3-1.5,3.3-3.3
				C26.1,33.4,24.6,31.9,22.8,31.9z"/>
		</g>
		<g>
			<circle class="st0" cx="32.3" cy="24.4" r="0.7"/>
		</g>
		<g>
			<circle class="st0" cx="17.7" cy="38.4" r="0.7"/>
		</g>
		<g>
			
				<ellipse transform="matrix(0.7429 -0.6694 0.6694 0.7429 -15.9313 27.4823)" class="st0" cx="27.8" cy="34.5" rx="1.5" ry="0.9"/>
		</g>
		<g>
			<path class="st0" d="M29.1,30.5c0.4,0.5,1.1,0.5,1.6,0.1c0.5-0.4,0.5-1.1,0.1-1.6c-0.4-0.5-1.1-0.5-1.6-0.1
				C28.7,29.3,28.7,30,29.1,30.5z M30.1,28.9c0.1,0.1,0.1,0.3,0,0.4c-0.1,0.1-0.3,0.1-0.4,0c-0.1-0.1-0.1-0.3,0-0.4
				C29.8,28.8,30,28.8,30.1,28.9z"/>
		</g>
		<g>
			<path class="st0" d="M23,36.4c0.4,0.5,1.1,0.5,1.6,0.1c0.5-0.4,0.5-1.1,0.1-1.6c-0.4-0.5-1.1-0.5-1.6-0.1
				C22.6,35.2,22.6,35.9,23,36.4z M24.1,34.8c0.1,0.1,0.1,0.3,0,0.4c-0.1,0.1-0.3,0.1-0.4,0c-0.1-0.1-0.1-0.3,0-0.4
				C23.8,34.7,24,34.7,24.1,34.8z"/>
		</g>
		<g>
			<path class="st0" d="M29.4,36.2c0.4,0.3,0.7,0.7,1,1.1c0.2,0.2,0.3,0.5,0.3,0.8c0,0.3-0.3,0.6-0.6,0.6c-0.6,0-1.2-0.8-1.4-1.3
				c0-0.1-0.1,0-0.1,0.1c0.3,0.6,1.1,1.7,1.8,1.3c0.4-0.2,0.5-0.6,0.4-1c-0.1-0.3-0.4-0.6-0.6-0.9c-0.2-0.2-0.4-0.5-0.7-0.7
				C29.4,36,29.4,36.1,29.4,36.2L29.4,36.2z"/>
		</g>
		<g>
			<path class="st0" d="M26.4,48.7c-0.6,0.4-1,1.2-1.1,2c-0.1,0.5,0.2,1.1,0.8,1c0.1,0,0.1-0.1,0-0.1c-0.8,0.2-0.7-0.8-0.6-1.2
				c0.2-0.6,0.4-1.2,1-1.5C26.5,48.7,26.4,48.7,26.4,48.7L26.4,48.7z"/>
		</g>
		<g>
			<path class="st0" d="M26.1,50.8c-0.1,0.2-0.2,0.6,0,0.8c0.2,0.2,0.5,0.1,0.6,0c0.5-0.4,0.6-1.4,0.5-2c0-0.1-0.1-0.1-0.1,0
				c0.1,0.5,0,1-0.2,1.4c-0.1,0.3-0.4,0.6-0.7,0.5C26,51.5,26.1,51,26.1,50.8C26.3,50.8,26.2,50.7,26.1,50.8L26.1,50.8z"/>
		</g>
		<g>
			<path class="st0" d="M31.6,24.9c2.6,0.4,4.4,2.5,6.1,4.2c1.9,2,3.7,4.1,5.7,6.1c0.1,0.1,0.3-0.1,0.2-0.1c-2.1-2.1-4-4.3-6-6.4
				c-1.7-1.7-3.4-3.5-5.9-3.9C31.4,24.7,31.4,24.9,31.6,24.9L31.6,24.9z"/>
		</g>
		<g>
			<path class="st0" d="M30.5,49.5c-1,0.5-1.8,1.3-2.1,2.4c0,0,0,0.1,0.1,0.1c0.5-0.1,1-0.4,1.4-0.7c0.4-0.3,1-0.6,1.3-1
				c0.2-0.2,0.3-0.6,0.1-0.8C31,49.3,30.7,49.3,30.5,49.5c0,0.1,0.1,0.1,0.2,0.1c0.5,0.1,0.6,0.3,0.4,0.5c0,0.1-0.1,0.2-0.2,0.2
				c-0.1,0.1-0.2,0.2-0.3,0.2c-0.2,0.2-0.4,0.3-0.6,0.4c-0.2,0.2-0.5,0.3-0.7,0.5c-0.1,0.1-0.7,0.4-0.8,0.3c-0.2-0.2,0.5-1,0.7-1.2
				c0.4-0.4,0.8-0.7,1.3-1C30.6,49.6,30.6,49.5,30.5,49.5L30.5,49.5z"/>
		</g>
		<g>
			<path class="st0" d="M31.9,50.1c-0.3,0.1-0.6,0.3-0.6,0.6c0,0,0,0.1,0.1,0.1c0.4-0.1,0.7-0.3,0.8-0.7c0,0,0-0.1,0-0.1
				C32,50,31.9,50,31.8,50c-0.1,0,0,0.1,0.1,0.1c0.1-0.1,0.2-0.1,0.3,0c0,0,0-0.1,0-0.1c-0.1,0.3-0.4,0.5-0.7,0.6c0,0,0.1,0,0.1,0.1
				c0-0.3,0.2-0.5,0.5-0.5C32,50.2,32,50.1,31.9,50.1L31.9,50.1z"/>
		</g>
		<g>
			<path class="st0" d="M25.3,50.8c0,0,0-1.4,1.1-2.1l-2.1-2.1l-0.6,1.1l-0.4,0.7l-0.4,0.9L22.5,50v0.5l0.3,0.4l0.2,0.3l0.4,0l0.5,0
				L25.3,50.8z"/>
		</g>
		<g>
			<path class="st0" d="M23,49.3C23,49.3,23,49.4,23,49.3c-0.1,0.1-0.1,0.2,0,0.3l0,0c0.1,0.1,0.3,0.1,0.4-0.1
				c0.1-0.1,0-0.2,0.1-0.3c0.1-0.2-0.3-0.4-0.4-0.2c-0.1,0.1-0.1,0.2-0.1,0.3c-0.1,0.2,0.3,0.4,0.4,0.2c0-0.1,0.1-0.1,0.1-0.1
				c-0.1-0.1-0.2-0.2-0.4-0.2c0,0,0,0.1-0.1,0.1c0.1,0.1,0.3,0.1,0.4,0.2c0.2-0.6,0.5-1.2,0.9-1.7c-0.1-0.1-0.2-0.2-0.4-0.2
				c-0.2,0.3-0.3,0.6-0.4,1c-0.1,0.3,0.3,0.4,0.4,0.1c0.1-0.3,0.2-0.6,0.4-0.9c0.2-0.2-0.2-0.5-0.4-0.2C23.4,48,23.1,48.6,23,49.3
				c-0.2,0.2,0.2,0.4,0.3,0.1c0,0,0-0.1,0.1-0.1c0.1-0.2-0.2-0.5-0.4-0.2C22.9,49.2,22.9,49.2,23,49.3c0.1,0,0.2,0.1,0.3,0.1
				c0-0.1,0.1-0.1,0.1-0.2c-0.1-0.1-0.3-0.1-0.4-0.2c0,0.1,0,0.2-0.1,0.3c0.1,0,0.2-0.1,0.4-0.1l0,0c0,0.1,0,0.2,0,0.3l0,0
				C23.4,49.5,23.1,49.1,23,49.3L23,49.3z"/>
		</g>
		<g>
			<path class="st0" d="M23.4,49.6c0.1-0.1,0.1-0.3,0.2-0.4c0.1-0.2-0.3-0.4-0.4-0.2c-0.1,0.1-0.1,0.2-0.2,0.3
				C23.1,49.4,23.2,49.5,23.4,49.6c0-0.2,0-0.3,0.1-0.4c0.1-0.2-0.2-0.4-0.4-0.2C23,49,23,49.1,23,49.1c0.1,0.1,0.2,0.2,0.3,0.2
				c0-0.1,0.1-0.3,0.1-0.4c0.1-0.2-0.2-0.5-0.4-0.2c-0.1,0.1-0.2,0.2-0.2,0.4c0.1,0.1,0.3,0.1,0.4,0.2c0-0.1,0.1-0.2,0.1-0.2
				c-0.1-0.1-0.2-0.2-0.4-0.2c0,0.1-0.1,0.1-0.1,0.2c0.1,0.1,0.3,0.1,0.4,0.2c0.2-0.5,0.6-0.9,0.8-1.4c0.1-0.2-0.3-0.4-0.4-0.2
				c-0.1,0.2-0.3,0.4-0.4,0.6c0.1,0.1,0.2,0.2,0.4,0.2c0.1-0.3,0.3-0.5,0.4-0.7c0.2-0.2-0.2-0.4-0.4-0.2c-0.2,0.2-0.3,0.5-0.4,0.7
				c-0.1,0.2,0.2,0.5,0.4,0.2c0.1-0.2,0.3-0.4,0.4-0.6c-0.1-0.1-0.3-0.1-0.4-0.2c-0.1,0.3-0.3,0.5-0.5,0.7c-0.1,0.2-0.2,0.4-0.3,0.7
				c-0.1,0.2,0.3,0.4,0.4,0.2c0.1-0.1,0.1-0.1,0.1-0.2c0.1-0.2-0.2-0.5-0.4-0.2c-0.1,0.1-0.1,0.2-0.2,0.3c-0.1,0.2,0.3,0.4,0.4,0.2
				c0.1-0.1,0.2-0.2,0.2-0.4c-0.1-0.1-0.2-0.2-0.4-0.2c-0.1,0.2-0.1,0.3-0.2,0.5c-0.1,0.2,0.2,0.4,0.3,0.2c0.1-0.1,0.1-0.2,0.2-0.3
				c-0.1-0.1-0.3-0.1-0.4-0.2c0,0.1-0.1,0.2-0.1,0.3C22.9,49.6,23.2,49.8,23.4,49.6c0-0.1,0.1-0.2,0.1-0.3c-0.1-0.1-0.3-0.1-0.4-0.2
				c-0.1,0.1-0.1,0.3-0.2,0.4C22.9,49.7,23.3,49.8,23.4,49.6L23.4,49.6z"/>
		</g>
		<g>
			<path class="st0" d="M25.1,50.3c0.1-0.1,0.1-0.2,0.1-0.3c-0.1,0-0.3-0.1-0.4-0.1c0,0.1,0,0.3,0,0.4c0,0.2,0.3,0.3,0.4,0.1
				c0.1-0.1,0.1-0.1,0.1-0.2c-0.1,0-0.3-0.1-0.4-0.1c0,0.1,0,0.2,0,0.3c0,0.2,0.3,0.2,0.4,0c0,0,0-0.1,0-0.1c-0.1,0-0.3,0-0.4,0
				c0,0,0,0.1,0,0.1c-0.1,0.2,0.4,0.3,0.4,0.1c0,0,0-0.1,0-0.1c-0.1,0-0.3,0-0.4,0c0,0,0,0,0-0.1c0.1,0.1,0.3,0.1,0.4,0.1
				c0.1-0.3,0.1-0.7,0.2-1c-0.1-0.1-0.3-0.1-0.4-0.1C25.1,49.6,25,49.8,25,50c-0.1,0.3,0.3,0.4,0.4,0.1c0.1-0.3,0.2-0.5,0.3-0.8
				c0.1-0.3-0.3-0.4-0.4-0.1c-0.1,0.2-0.1,0.3-0.2,0.5c-0.1,0.3,0.3,0.4,0.4,0.1c0.1-0.3,0.3-0.5,0.4-0.8c-0.1-0.1-0.2-0.2-0.4-0.2
				c-0.1,0.2-0.2,0.3-0.3,0.5c-0.1,0.2,0.1,0.4,0.3,0.3c0.2-0.2,0.3-0.6,0.6-0.8c-0.1-0.1-0.2-0.2-0.3-0.3c0,0-0.1,0.1-0.1,0.1
				c-0.1,0.2,0.1,0.4,0.3,0.3c0.1,0,0.1-0.1,0.2-0.2c0.1-0.3-0.3-0.4-0.4-0.1c0,0,0-0.1,0.1-0.1c0.1,0.1,0.2,0.2,0.3,0.3
				c0,0,0.1-0.1,0.1-0.1c0.1-0.2-0.1-0.4-0.3-0.3c-0.3,0.2-0.4,0.6-0.7,0.8c0.1,0.1,0.2,0.2,0.3,0.3c0.1-0.2,0.2-0.3,0.3-0.5
				c0.1-0.2-0.2-0.5-0.4-0.2c-0.2,0.3-0.3,0.6-0.4,0.9c0.1,0.1,0.3,0.1,0.4,0.1c0.1-0.2,0.1-0.3,0.2-0.5c-0.1-0.1-0.3-0.1-0.4-0.1
				c-0.1,0.3-0.2,0.5-0.3,0.8c0.1,0.1,0.3,0.1,0.4,0.1c0.1-0.2,0.1-0.4,0.2-0.6c0.1-0.3-0.3-0.4-0.4-0.1c-0.1,0.4-0.2,0.7-0.3,1.1
				c0,0.2,0.3,0.3,0.4,0.1c0.1-0.1,0.1-0.2,0.1-0.3c0-0.2-0.4-0.2-0.4,0c0,0,0,0.1,0,0.1c0.1,0,0.3,0.1,0.4,0.1c0-0.1,0-0.1,0-0.2
				c0-0.2-0.3-0.2-0.4,0c0,0,0,0.1,0,0.1c0.1,0,0.3,0,0.4,0c0-0.1,0-0.1,0-0.2c0-0.3-0.3-0.3-0.4-0.1c0,0,0,0.1-0.1,0.1
				c0.1,0.1,0.3,0.1,0.4,0.1c0-0.1,0-0.3,0-0.4c0-0.3-0.3-0.3-0.4-0.1c-0.1,0.1-0.1,0.2-0.1,0.3C24.6,50.5,25,50.6,25.1,50.3
				L25.1,50.3z"/>
		</g>
		<g>
			<path class="st0" d="M26.1,48.6c0.1,0.1,0.1,0.1,0.1,0.1c0,0,0,0.1,0,0.1l0,0c0-0.1,0-0.1,0-0.2C26.2,48.6,26.1,48.6,26.1,48.6
				c-0.1-0.1-0.2,0-0.3,0.1c0,0.1,0,0.1,0,0.2c0,0.1,0.1,0.1,0.2,0.1c0.1,0,0.1,0,0.2,0c0.1,0,0.1-0.1,0.1-0.1
				C26.2,48.7,26.2,48.6,26.1,48.6L26.1,48.6z"/>
		</g>
		<g>
			<path class="st0" d="M44.8,33.2l0.3-0.4l0.3-0.6l0.1-0.6l0-0.5l0-0.4l-0.3-0.3l-0.5-0.2l-1.3,0.4l-1,0.4c0,0-1.1,0.5-1.2,0.6
				c-0.1,0-0.7,0.4-0.7,0.4l1.9,2.1C42.4,34,43.6,32.8,44.8,33.2z"/>
		</g>
		<g>
			<path class="st0" d="M41,31.8c-0.1,0-0.1,0-0.2,0c0,0,0,0.1,0,0.1C40.9,31.9,40.9,31.8,41,31.8c0.1,0,0-0.1,0-0.1
				c-0.1,0.1-0.2,0.1-0.3,0.1c0,0,0,0.1,0,0.1c0.2-0.1,0.3-0.2,0.5-0.3c0,0-0.1-0.1-0.1-0.1c-0.1,0.1-0.3,0.2-0.4,0.2
				c-0.1,0,0,0.1,0.1,0.1c0.7-0.3,1.2-0.7,1.9-1c0.6-0.2,1.4-0.5,2-0.4c0,0,0-0.1,0-0.1c-0.7,0-1.4,0.2-2.1,0.5c0,0,0,0.1,0.1,0.1
				c0.3-0.2,0.6-0.3,0.9-0.4c0.1,0,0.1-0.1,0-0.1c-0.2,0.1-0.4,0.1-0.6,0.2c-0.1,0-0.1,0.1,0,0.1c0.2,0,0.4,0,0.7,0
				c0.1,0,0.1-0.1,0-0.1c-0.2,0-0.5,0-0.7,0c0,0,0,0.1,0,0.1c0.2-0.1,0.4-0.1,0.6-0.2c0,0,0-0.1,0-0.1c-0.3,0.1-0.6,0.3-1,0.4
				c-0.1,0,0,0.1,0.1,0.1c0.6-0.3,1.3-0.4,2-0.5c0.1,0,0.1-0.1,0-0.1c-0.6-0.1-1.3,0.2-2,0.4c-0.7,0.2-1.3,0.7-2.1,1
				c0,0,0,0.1,0.1,0.1c0.2-0.1,0.3-0.1,0.4-0.2c0.1,0,0-0.1-0.1-0.1c-0.2,0.1-0.3,0.2-0.5,0.3c-0.1,0,0,0.1,0,0.1
				C40.8,32,40.9,31.9,41,31.8C41.1,31.9,41.1,31.7,41,31.8c-0.1,0-0.1,0-0.2,0.1c-0.1,0,0,0.1,0,0.1c0.1,0,0.1,0,0.2,0
				C41,31.9,41.1,31.8,41,31.8L41,31.8z"/>
		</g>
		<g>
			<path class="st0" d="M45.4,30.7c0-0.1,0-0.1,0.1-0.1c0,0-0.1,0-0.1,0c0,0,0,0,0,0.1C45.3,30.6,45.4,30.7,45.4,30.7
				c0-0.1,0-0.1,0.1-0.1c0-0.1-0.1-0.1-0.1,0c0,0.1,0,0.1-0.1,0.1C45.3,30.7,45.4,30.7,45.4,30.7L45.4,30.7z"/>
		</g>
		<g>
			<path class="st0" d="M22.8,50.9C22.8,51,22.7,51,22.8,50.9c-0.1,0.1,0,0.1,0,0.2C22.8,51.1,22.8,51,22.8,50.9
				c-0.1-0.1-0.1-0.2-0.1-0.2c0-0.1-0.1,0-0.1,0c0,0.1,0.1,0.2,0.2,0.3C22.8,51,22.8,51,22.8,50.9c0,0-0.1,0-0.1,0.1
				c0,0.1,0.1,0.1,0.1,0C22.8,51,22.8,51,22.8,50.9c-0.1,0.1-0.1,0.1-0.1,0.1c0,0.1,0.1,0.1,0.1,0.1c0.1-0.1,0.2-0.2,0.3-0.3
				c0.1-0.1,0-0.1-0.1-0.1c-0.1,0.1-0.2,0.2-0.3,0.3c0,0,0.1,0,0.1,0.1C22.8,51.1,22.8,51,22.8,50.9c0,0-0.1,0-0.1,0
				C22.7,51,22.7,51,22.8,50.9C22.7,51,22.7,51,22.8,50.9L22.8,50.9L22.7,51h0C22.7,51.1,22.8,51,22.8,50.9
				c-0.1-0.1-0.2-0.1-0.2-0.2c0,0-0.1,0-0.1,0c0,0.1,0.1,0.1,0.1,0.1c0,0,0.1,0.1,0.1,0.1c-0.1,0.1,0,0.1,0.1,0.1
				C22.8,51,22.8,51,22.8,50.9C22.9,50.9,22.8,50.9,22.8,50.9L22.8,50.9z"/>
		</g>
		<g>
			<path class="st0" d="M54.4,21.2c0-0.4,0.7-0.9,2.2-1.4c0,0,0-0.1,0-0.1c-1.4,0.5-2.3,1-2.2,1.5c0,0.4,0.5,0.6,1.3,0.9l0,0
				c0,0,0.1-0.1,0.1-0.1s0-0.1,0.1-0.1c0,0-0.1,0.1-0.1,0.1C54.8,21.8,54.4,21.5,54.4,21.2z"/>
		</g>
		<g>
			<path class="st0" d="M69.1,18.6c0,0,0,0.1,0,0.1h0c1.6,0.2,2.6,0.6,2.6,1c0,0.3-0.3,0.6-1.1,1c0-0.1-0.1-0.1-0.1-0.1
				c0,0,0.1,0.1,0.1,0.1c0,0,0.1,0.1,0.1,0.1c0.8-0.4,1.2-0.7,1.1-1.1C71.8,19.2,70.7,18.8,69.1,18.6z"/>
		</g>
		<g>
			<path class="st0" d="M69.4,21.1c-1.6,0.5-3.8,0.9-6.2,1.1c-2.4,0.2-4.6,0.2-6.3,0c0,0,0-0.1,0-0.1c0,0.1-0.1,0.1-0.1,0.2
				c0,0,0,0,0,0.1h0c1.7,0.2,4,0.2,6.4,0c2.4-0.2,4.6-0.6,6.2-1.1C69.4,21.2,69.4,21.2,69.4,21.1z"/>
		</g>
		<g>
			<path class="st0" d="M67.6,12.5c-0.7-1-1.8-1.6-3-1.8c-0.7-0.1-1.5-0.1-2.2,0c-0.8,0.1-1.6,0.3-2.4,0.5c-1.2,0.3-2.3,1-3,2
				c-0.7,1.1-0.9,2.5-0.9,3.7c0,1.8,0.5,3.6,0.7,5.4c0,0.1,0.1,0.1,0.1,0c-0.1-1.5-0.5-3-0.6-4.5c-0.1-1.3-0.1-2.7,0.5-3.9
				c0.5-1.2,1.5-2.1,2.7-2.5c0.7-0.2,1.4-0.3,2.1-0.5c0.7-0.1,1.4-0.3,2.1-0.2c1.4,0,2.9,0.6,3.7,1.9C67.5,12.6,67.6,12.5,67.6,12.5
				L67.6,12.5z"/>
		</g>
		<g>
			<path class="st0" d="M59.9,11.3c0.1,0,0.1-0.1,0-0.1S59.8,11.3,59.9,11.3L59.9,11.3z"/>
		</g>
		<g>
			<path class="st0" d="M56.3,15.1c-0.4,0-0.9-0.2-1.1-0.6c-0.3-0.4-0.2-0.9,0-1.3c0.2-0.3,0.6-0.6,1-0.7c0.4-0.1,0.9-0.1,1.2,0.2
				c0.1,0.1,0.1,0,0.1-0.1c-0.3-0.3-0.9-0.3-1.3-0.2c-0.5,0.1-0.9,0.4-1.1,0.9c-0.2,0.4-0.2,0.9,0,1.3c0.3,0.4,0.8,0.6,1.2,0.6
				C56.4,15.2,56.4,15.1,56.3,15.1L56.3,15.1z"/>
		</g>
		<g>
			<path class="st0" d="M66.6,11.5c0.6-0.4,1.7-0.7,2.3,0c0.5,0.7,0.4,1.9-0.6,2.2c-0.1,0,0,0.1,0.1,0.1c1-0.3,1.2-1.5,0.7-2.3
				c-0.6-0.8-1.8-0.6-2.5-0.1C66.5,11.5,66.6,11.6,66.6,11.5L66.6,11.5z"/>
		</g>
		<g>
			<path class="st0" d="M61.6,15.7C61.6,15.7,61.6,15.7,61.6,15.7C61.6,15.7,61.6,15.7,61.6,15.7c0-0.1-0.1-0.1-0.1,0
				c-0.1,0.1-0.2,0.1-0.3,0.2c-0.2,0.2-0.3,0.3-0.4,0.5c-0.1,0.5,0.5,0.7,0.8,0.6c0.3-0.1,0.6-0.2,0.9-0.3c0.3-0.1,0.6,0,0.9,0.1
				c0.4,0.1,0.7-0.2,0.7-0.6c-0.1-0.5-0.7-0.7-1.1-0.8c0,0-0.1,0.1,0,0.1c0.4,0.1,1.2,0.4,1.1,0.9c-0.1,0.4-0.5,0.4-0.8,0.3
				c-0.2-0.1-0.4-0.1-0.7-0.1c-0.3,0.1-0.5,0.2-0.8,0.3c-0.3,0.1-0.9,0-0.9-0.4c0-0.3,0.3-0.5,0.4-0.7
				C61.4,15.8,61.5,15.7,61.6,15.7c0-0.1,0.1-0.1,0.1-0.1c0,0,0-0.1,0-0.1s-0.1,0-0.1,0C61.5,15.7,61.5,15.7,61.6,15.7L61.6,15.7z"
				/>
		</g>
		<g>
			<path class="st0" d="M63.2,16.9c0.1,0.3,0.2,0.6,0.1,0.9C63.3,18,63,18.2,62.8,18c-0.1-0.1-0.2-0.2-0.2-0.3c0,0-0.1,0-0.1,0
				c0.1,0.1,0.1,0.3,0.3,0.3c0.2,0.1,0.3,0,0.4-0.1C63.6,17.8,63.4,17.2,63.2,16.9C63.3,16.8,63.2,16.8,63.2,16.9L63.2,16.9z"/>
		</g>
		<g>
			<path class="st0" d="M69.2,20.3c0.2,0.1,0.4,0,0.5,0c0.3,0,0.7,0.2,0.9,0.5c0.2,0.4,0.1,0.8-0.4,0.7c-0.3,0-0.6-0.2-0.9-0.4
				c0,0-0.1,0-0.1,0.1c0.3,0.2,0.6,0.5,1,0.5c0.3,0,0.5-0.2,0.5-0.4c0-0.3-0.2-0.6-0.5-0.7c-0.2-0.1-0.4-0.2-0.6-0.2
				C69.6,20.3,69.4,20.3,69.2,20.3C69.2,20.2,69.2,20.3,69.2,20.3L69.2,20.3z"/>
		</g>
		<g>
			<path class="st0" d="M70,21c0.2,0.1,0.5,0.2,0.4,0.5c0,0,0.1,0.1,0.1,0C70.6,21.2,70.3,21,70,21C70,21,70,21,70,21L70,21z"/>
		</g>
		<g>
			<path class="st0" d="M64.6,15.4c-1.1,0-2-0.9-2-2s0.9-2,2-2c1.1,0,2,0.9,2,2S65.7,15.4,64.6,15.4z M64.6,11.5
				c-1.1,0-1.9,0.9-1.9,1.9s0.9,1.9,1.9,1.9c1.1,0,1.9-0.9,1.9-1.9S65.7,11.5,64.6,11.5z"/>
		</g>
		<g>
			<path class="st0" d="M59.7,16.1c-1.1,0-2-0.9-2-2s0.9-2,2-2s2,0.9,2,2S60.8,16.1,59.7,16.1z M59.7,12.1c-1.1,0-1.9,0.9-1.9,1.9
				s0.9,1.9,1.9,1.9c1.1,0,1.9-0.9,1.9-1.9S60.8,12.1,59.7,12.1z"/>
		</g>
		<g>
			<circle class="st0" cx="67.9" cy="12.4" r="0.4"/>
		</g>
		<g>
			<circle class="st0" cx="56.3" cy="13.8" r="0.4"/>
		</g>
		<g>
			
				<ellipse transform="matrix(0.9961 -8.860429e-02 8.860429e-02 0.9961 -1.1228 5.5848)" class="st0" cx="62.3" cy="15.4" rx="0.9" ry="0.5"/>
		</g>
		<g>
			<path class="st0" d="M63.7,13.9c0,0.4,0.3,0.6,0.7,0.6c0.4,0,0.6-0.3,0.6-0.7c0-0.4-0.3-0.6-0.7-0.6
				C63.9,13.2,63.7,13.5,63.7,13.9z M64.7,13.5c0,0.1-0.1,0.2-0.2,0.2c-0.1,0-0.2-0.1-0.2-0.2c0-0.1,0.1-0.2,0.2-0.2
				C64.6,13.3,64.7,13.4,64.7,13.5z"/>
		</g>
		<g>
			<path class="st0" d="M58.9,14.5c0,0.4,0.3,0.6,0.7,0.6c0.4,0,0.6-0.3,0.6-0.7c0-0.4-0.3-0.6-0.7-0.6
				C59.1,13.8,58.8,14.1,58.9,14.5z M59.9,14.1c0,0.1-0.1,0.2-0.2,0.2c-0.1,0-0.2-0.1-0.2-0.2c0-0.1,0.1-0.2,0.2-0.2
				C59.8,14,59.9,14,59.9,14.1z"/>
		</g>
		<g>
			<path class="st0" d="M62.5,16.8c0.1,0.2,0.1,0.6,0.1,0.8c0,0.2,0,0.3-0.1,0.5c-0.1,0.1-0.3,0.2-0.5,0.1c-0.3-0.2-0.3-0.8-0.2-1.1
				c0,0-0.1-0.1-0.1,0c-0.1,0.4-0.1,1.1,0.4,1.2c0.2,0.1,0.4-0.1,0.5-0.3c0.1-0.2,0.1-0.4,0-0.6S62.6,17,62.5,16.8
				C62.6,16.7,62.5,16.8,62.5,16.8L62.5,16.8z"/>
		</g>
		<g>
			<path class="st0" d="M56.8,21.5c-0.4,0-0.9,0.2-1.2,0.5c-0.2,0.2-0.3,0.5,0,0.7c0,0,0.1-0.1,0-0.1c-0.4-0.2-0.1-0.6,0.2-0.8
				C56,21.7,56.4,21.5,56.8,21.5C56.8,21.6,56.8,21.5,56.8,21.5L56.8,21.5z"/>
		</g>
		<g>
			<path class="st0" d="M55.9,22.4c-0.1,0.1-0.3,0.2-0.3,0.4c0,0.2,0.2,0.2,0.3,0.2c0.4,0,0.7-0.4,0.9-0.7c0,0,0-0.1-0.1,0
				c-0.1,0.2-0.3,0.4-0.6,0.6c-0.1,0.1-0.4,0.2-0.5,0C55.7,22.7,55.9,22.5,55.9,22.4C56,22.4,56,22.4,55.9,22.4L55.9,22.4z"/>
		</g>
		<g>
			<path class="st0" d="M67.4,12.3c1,1.1,1.2,2.6,1.3,4.1c0.2,1.6,0.3,3.2,0.5,4.7c0,0.1,0.1,0.1,0.1,0c-0.2-1.7-0.3-3.4-0.6-5
				C68.6,14.7,68.4,13.3,67.4,12.3C67.4,12.2,67.3,12.3,67.4,12.3L67.4,12.3z"/>
		</g>
		<g>
			<path class="st0" d="M58.4,23.3c-0.6-0.1-1.3,0-1.8,0.4c0,0,0,0.1,0,0.1c0.3,0.1,0.6,0.2,0.9,0.2c0.3,0,0.6,0.1,0.9-0.1
				c0.2-0.1,0.3-0.2,0.3-0.3C58.7,23.3,58.6,23.3,58.4,23.3C58.4,23.3,58.4,23.4,58.4,23.3c0.2,0.3,0.2,0.4,0.1,0.5
				c-0.1,0-0.1,0.1-0.2,0.1c-0.1,0-0.2,0-0.2,0c-0.1,0-0.3,0-0.4,0c-0.2,0-0.3,0-0.5,0c-0.1,0-0.5-0.1-0.5-0.1
				c0-0.2,0.6-0.3,0.7-0.3C57.7,23.3,58.1,23.3,58.4,23.3C58.4,23.4,58.4,23.3,58.4,23.3L58.4,23.3z"/>
		</g>
		<g>
			<path class="st0" d="M58.9,24c-0.2-0.1-0.4-0.1-0.5,0.1c0,0,0,0,0,0.1c0.2,0.1,0.4,0.1,0.6,0c0,0,0,0,0-0.1
				C58.9,24,58.9,24,58.9,24C58.8,24,58.7,24,58.9,24c0,0,0,0.1,0.1,0.1C58.9,24.1,58.9,24.1,58.9,24c-0.1,0.2-0.3,0.2-0.5,0.1
				c0,0,0,0,0,0.1C58.5,24,58.7,24,58.9,24C58.9,24.1,58.9,24.1,58.9,24L58.9,24z"/>
		</g>
		<g>
			<path class="st0" d="M55.6,22.1c0,0,0.5-0.6,1.2-0.6l-0.2-1.7l-0.7,0.3l-0.5,0.2l-0.5,0.3l-0.4,0.2L54.3,21v0.3l0,0.2l0.2,0.1
				l0.2,0.2L55.6,22.1z"/>
		</g>
		<g>
			<path class="st0" d="M55,20.6C55,20.6,55,20.6,55,20.6c-0.1,0-0.1,0.1-0.1,0.1l0,0c0,0.1,0.1,0.1,0.2,0.1c0.1,0,0.1-0.1,0.2-0.1
				c0.1-0.1,0-0.3-0.1-0.2C55,20.5,55,20.5,55,20.6c-0.2,0-0.1,0.2,0.1,0.2c0,0,0.1,0,0.1,0c0-0.1-0.1-0.2-0.1-0.2
				C55,20.5,55,20.5,55,20.6c0,0,0.1,0.1,0.1,0.1c0.3-0.2,0.6-0.3,1-0.5c0-0.1-0.1-0.2-0.1-0.2c-0.2,0.1-0.4,0.2-0.5,0.3
				c-0.1,0.1,0,0.3,0.1,0.2c0.2-0.1,0.3-0.2,0.5-0.3c0.2-0.1,0.1-0.3-0.1-0.2C55.7,20.2,55.3,20.3,55,20.6c-0.1,0,0,0.2,0.1,0.1
				c0,0,0.1,0,0.1,0c0.1-0.1,0.1-0.3-0.1-0.2c0,0-0.1,0-0.1,0c0,0.1,0.1,0.1,0.1,0.2c0,0,0.1,0,0.1-0.1c0-0.1-0.1-0.1-0.1-0.2
				C55,20.5,55,20.5,55,20.6c0,0,0.1,0,0.1,0.1l0,0c0,0.1-0.1,0.1-0.1,0.1l0,0C55.1,20.8,55.1,20.6,55,20.6L55,20.6z"/>
		</g>
		<g>
			<path class="st0" d="M55.1,20.9c0.1-0.1,0.1-0.1,0.2-0.1c0.1-0.1,0-0.3-0.1-0.2c-0.1,0-0.1,0.1-0.2,0.1
				C55,20.7,55.1,20.7,55.1,20.9c0.1-0.1,0.1-0.1,0.2-0.2c0.1-0.1,0-0.2-0.1-0.2c-0.1,0-0.1,0-0.1,0c0,0.1,0.1,0.2,0.1,0.2
				c0.1-0.1,0.1-0.1,0.2-0.1c0.1-0.1,0.1-0.3-0.1-0.2c-0.1,0-0.2,0.1-0.2,0.1c0,0.1,0.1,0.1,0.1,0.2c0.1,0,0.1-0.1,0.1-0.1
				c0-0.1-0.1-0.2-0.1-0.2c-0.1,0-0.1,0.1-0.1,0.1c0,0.1,0.1,0.1,0.1,0.2c0.3-0.2,0.6-0.2,0.9-0.4c0.1-0.1,0-0.3-0.1-0.2
				s-0.3,0.1-0.4,0.2c0,0.1,0.1,0.2,0.1,0.2c0.2-0.1,0.3-0.1,0.4-0.2c0.2-0.1,0.1-0.3-0.1-0.2c-0.2,0.1-0.3,0.1-0.4,0.2
				c-0.1,0.1-0.1,0.3,0.1,0.2c0.1-0.1,0.3-0.1,0.4-0.2c0-0.1-0.1-0.1-0.1-0.2c-0.1,0.1-0.3,0.1-0.5,0.2c-0.1,0.1-0.3,0.1-0.4,0.2
				s0,0.3,0.1,0.2c0.1,0,0.1,0,0.1-0.1c0.1-0.1,0.1-0.3-0.1-0.2c-0.1,0-0.1,0.1-0.2,0.1c-0.1,0.1,0,0.3,0.1,0.2
				c0.1,0,0.2-0.1,0.2-0.1c0-0.1-0.1-0.2-0.1-0.2c-0.1,0.1-0.2,0.1-0.3,0.2c-0.1,0.1-0.1,0.3,0.1,0.2c0.1,0,0.1,0,0.2-0.1
				c0-0.1-0.1-0.1-0.1-0.2c-0.1,0.1-0.1,0.1-0.2,0.1C54.9,20.7,55,20.9,55.1,20.9c0.1-0.1,0.1-0.1,0.2-0.1c0-0.1-0.1-0.1-0.1-0.2
				c-0.1,0.1-0.1,0.1-0.2,0.1C54.8,20.7,55,20.9,55.1,20.9L55.1,20.9z"/>
		</g>
		<g>
			<path class="st0" d="M55.6,21.8c0.1,0,0.1-0.1,0.2-0.1c-0.1-0.1-0.1-0.1-0.2-0.2c-0.1,0.1-0.1,0.1-0.1,0.2
				C55.4,21.8,55.5,21.9,55.6,21.8c0.1,0.1,0.1,0.1,0.1,0c-0.1-0.1-0.1-0.1-0.2-0.2c-0.1,0.1-0.1,0.1-0.1,0.1
				c-0.1,0.1,0.1,0.2,0.2,0.2l0,0c-0.1-0.1-0.1-0.1-0.2-0.2c0,0,0,0,0,0.1c-0.1,0.1,0.1,0.3,0.2,0.2c0,0,0,0,0.1,0
				c-0.1-0.1-0.1-0.1-0.2-0.2H55.6c0,0,0,0.1,0.1,0.2c0.1-0.2,0.3-0.3,0.5-0.4c-0.1-0.1-0.1-0.1-0.1-0.2c-0.1,0.1-0.2,0.2-0.3,0.2
				c-0.1,0.1,0,0.3,0.1,0.2c0.2-0.1,0.3-0.2,0.4-0.3c0.1-0.1,0-0.3-0.1-0.2c-0.1,0.1-0.2,0.1-0.3,0.2c-0.1,0.1,0,0.3,0.1,0.2
				c0.2-0.1,0.3-0.2,0.5-0.2c0-0.1-0.1-0.2-0.1-0.2c-0.1,0.1-0.2,0.1-0.3,0.2c-0.1,0.1-0.1,0.3,0.1,0.2c0.2,0,0.4-0.2,0.5-0.2
				c0-0.1,0-0.2,0-0.2c0,0-0.1,0-0.1,0c-0.1,0.1-0.1,0.2,0,0.2c0.1,0,0.1,0,0.2,0c0.1-0.1,0-0.3-0.1-0.2c0,0,0,0,0.1,0
				c0,0.1,0,0.2,0,0.2c0,0,0.1,0,0.1,0c0.1,0,0.1-0.2,0-0.2c-0.2,0-0.4,0.1-0.6,0.1c0,0.1,0,0.2,0.1,0.2c0.1-0.1,0.2-0.1,0.3-0.2
				c0.1-0.1,0.1-0.3-0.1-0.2c-0.2,0.1-0.3,0.2-0.5,0.3c0.1,0.1,0.1,0.1,0.1,0.2c0.1-0.1,0.2-0.1,0.3-0.2c-0.1-0.1-0.1-0.1-0.1-0.2
				c-0.1,0.1-0.3,0.2-0.4,0.3c0.1,0.1,0.1,0.1,0.1,0.2c0.1-0.1,0.2-0.2,0.3-0.2c0.1-0.1,0-0.3-0.1-0.2c-0.2,0.1-0.4,0.3-0.5,0.4
				c-0.1,0.1,0,0.2,0.1,0.2c0.1,0,0.1-0.1,0.1-0.1c0.1-0.1-0.1-0.2-0.2-0.2c0,0,0,0-0.1,0C55.6,21.7,55.6,21.8,55.6,21.8
				c0.1,0,0.1,0,0.1-0.1c0.1-0.1-0.1-0.2-0.2-0.2l0,0c0.1,0.1,0.1,0.1,0.2,0.2c0,0,0.1-0.1,0.1-0.1c0.1-0.1-0.1-0.2-0.2-0.2
				c0,0,0,0-0.1,0C55.6,21.6,55.7,21.7,55.6,21.8c0.1-0.1,0.2-0.2,0.2-0.3c0.1-0.1-0.1-0.3-0.2-0.2c-0.1,0-0.1,0.1-0.2,0.1
				C55.3,21.7,55.5,21.9,55.6,21.8L55.6,21.8z"/>
		</g>
		<g>
			<path class="st0" d="M56.7,21.3c0,0,0,0.1,0,0.1c0,0,0,0-0.1,0.1l0,0C56.6,21.5,56.7,21.4,56.7,21.3
				C56.7,21.3,56.7,21.3,56.7,21.3c0-0.1-0.1-0.1-0.2-0.1c0,0-0.1,0.1-0.1,0.1c0,0,0,0.1,0,0.1c0,0,0.1,0.1,0.1,0.1s0.1,0,0.1,0
				C56.7,21.5,56.7,21.4,56.7,21.3L56.7,21.3z"/>
		</g>
		<g>
			<path class="st0" d="M70.6,20.8l0.3-0.1l0.4-0.2l0.2-0.2l0.2-0.2l0.1-0.2l0-0.3l-0.2-0.3l-0.7-0.3l-0.6-0.2c0,0-0.7-0.1-0.7-0.2
				c0,0-0.5-0.1-0.5-0.1l0.2,1.6C69.2,20.3,70.2,20.1,70.6,20.8z"/>
		</g>
		<g>
			<path class="st0" d="M69.3,18.8c0,0-0.1-0.1-0.1-0.1c0,0,0,0,0,0.1C69.2,18.8,69.3,18.8,69.3,18.8S69.3,18.7,69.3,18.8
				c-0.1-0.1-0.1-0.1-0.2-0.1c0,0,0,0,0,0.1c0.1,0,0.2,0,0.3,0.1c0,0,0-0.1,0-0.1c-0.1,0-0.2,0-0.3,0c0,0-0.1,0.1,0,0.1
				c0.4,0.1,0.8,0.1,1.2,0.2c0.3,0.1,0.8,0.2,1.1,0.5c0,0,0,0,0.1-0.1c-0.3-0.2-0.7-0.4-1.1-0.5c0,0,0,0.1,0,0.1
				c0.2,0,0.4,0.1,0.6,0.1c0,0,0.1-0.1,0-0.1c-0.1-0.1-0.2-0.1-0.3-0.1c0,0-0.1,0,0,0.1c0.1,0.1,0.2,0.1,0.3,0.2c0,0,0.1,0,0.1-0.1
				c-0.1-0.1-0.2-0.2-0.3-0.2c0,0,0,0,0,0.1c0.1,0.1,0.2,0.1,0.3,0.1c0,0,0,0,0-0.1c-0.2-0.1-0.4-0.1-0.6-0.1c-0.1,0-0.1,0.1,0,0.1
				c0.4,0.1,0.7,0.3,1.1,0.5c0,0,0.1,0,0.1-0.1c-0.3-0.3-0.7-0.4-1-0.5c-0.4-0.2-0.9-0.1-1.3-0.3c0,0,0,0.1,0,0.1c0.1,0,0.2,0,0.3,0
				c0,0,0-0.1,0-0.1c-0.1,0-0.2,0-0.3-0.1c0,0-0.1,0.1,0,0.1C69.2,18.8,69.3,18.8,69.3,18.8C69.4,18.8,69.4,18.7,69.3,18.8
				c-0.1-0.1,0-0.1-0.1-0.1c0,0-0.1,0,0,0.1C69.2,18.8,69.3,18.8,69.3,18.8C69.3,18.8,69.3,18.8,69.3,18.8L69.3,18.8z"/>
		</g>
		<g>
			<path class="st0" d="M71.7,19.8C71.8,19.7,71.8,19.7,71.7,19.8c0.1-0.1,0.1-0.1,0.1-0.1C71.8,19.7,71.8,19.7,71.7,19.8
				C71.7,19.7,71.8,19.8,71.7,19.8C71.8,19.7,71.8,19.7,71.7,19.8c0.1-0.1,0.1-0.1,0.1-0.1C71.8,19.7,71.7,19.7,71.7,19.8
				C71.7,19.7,71.7,19.8,71.7,19.8L71.7,19.8z"/>
		</g>
		<g>
			<path class="st0" d="M54.3,21.3C54.3,21.3,54.3,21.3,54.3,21.3C54.3,21.3,54.3,21.3,54.3,21.3C54.3,21.3,54.3,21.3,54.3,21.3
				c0-0.1,0-0.1,0-0.2c0,0-0.1-0.1-0.1,0C54.3,21.1,54.3,21.2,54.3,21.3C54.3,21.3,54.3,21.3,54.3,21.3
				C54.3,21.3,54.3,21.2,54.3,21.3C54.2,21.3,54.3,21.3,54.3,21.3C54.3,21.3,54.3,21.3,54.3,21.3L54.3,21.3
				C54.2,21.3,54.3,21.3,54.3,21.3c0,0.1,0.1,0.1,0.2,0.1c0.1,0,0-0.1,0-0.1C54.4,21.3,54.4,21.3,54.3,21.3
				C54.3,21.3,54.3,21.3,54.3,21.3L54.3,21.3C54.4,21.3,54.3,21.2,54.3,21.3C54.3,21.3,54.3,21.3,54.3,21.3
				C54.3,21.3,54.3,21.3,54.3,21.3L54.3,21.3L54.3,21.3C54.3,21.3,54.3,21.3,54.3,21.3C54.3,21.3,54.3,21.3,54.3,21.3
				c0,0,0-0.1,0-0.1c0,0,0,0-0.1,0C54.3,21.1,54.3,21.2,54.3,21.3L54.3,21.3C54.2,21.3,54.2,21.3,54.3,21.3
				C54.3,21.3,54.3,21.3,54.3,21.3C54.4,21.3,54.4,21.2,54.3,21.3L54.3,21.3z"/>
		</g>
		<g>
			<g>
				<g>
					<path class="st0" d="M22.3,50.6c0.1,0.7,0,1.3-0.2,2c-0.1,0.2,0.3,0.3,0.3,0.1c0.2-0.7,0.3-1.4,0.2-2.1
						C22.5,50.4,22.2,50.4,22.3,50.6L22.3,50.6z"/>
				</g>
			</g>
		</g>
		<g>
			<g>
				<g>
					<path class="st0" d="M45.1,30.6c1.4,0,2.8-0.2,4.2-0.5c0.2-0.1,0.1-0.4-0.1-0.3c-1.3,0.3-2.7,0.5-4.1,0.5
						C44.9,30.3,44.9,30.6,45.1,30.6L45.1,30.6z"/>
				</g>
			</g>
		</g>
		<g>
			<g>
				<g>
					<path class="st0" d="M54.2,21.2c-0.3,0.7-0.7,1.3-1.3,1.8c-0.2,0.1,0.1,0.4,0.2,0.2c0.6-0.5,1-1.1,1.4-1.9
						C54.5,21.2,54.3,21,54.2,21.2L54.2,21.2z"/>
				</g>
			</g>
		</g>
		<g>
			<g>
				<g>
					<path class="st0" d="M71.4,19.7c0.6,1,1.6,1.7,2.8,2c0.2,0.1,0.3-0.3,0.1-0.3c-1.1-0.3-2-0.9-2.6-1.9
						C71.6,19.4,71.3,19.5,71.4,19.7L71.4,19.7z"/>
				</g>
			</g>
		</g>
		<g>
			<g>
				<g>
					<path class="st0" d="M39.2,73.6c-0.6,1.1-1.5,2.1-2.6,2.9c-0.2,0.1,0,0.4,0.2,0.3c1.1-0.8,2-1.8,2.7-3
						C39.6,73.6,39.3,73.4,39.2,73.6L39.2,73.6z"/>
				</g>
			</g>
		</g>
		<g>
			<g>
				<g>
					<path class="st0" d="M99.7,74c0.2,1.3,1,2.4,2.2,3c0.2,0.1,0.4-0.2,0.2-0.3c-1.1-0.5-1.9-1.5-2.1-2.8
						C99.9,73.7,99.6,73.8,99.7,74L99.7,74z"/>
				</g>
			</g>
		</g>
		<g>
			<g>
				<g>
					<path class="st0" d="M70.7,131.5c-2.2-2.6-3.7-5.7-4.3-9c-0.3-1.5-0.3-3.1-0.2-4.6c0.1-1.4,0.7-6.4,3.2-4.8
						c1.2,0.8,2,1.9,3.4,2.4c1.3,0.5,2.6,0.7,4,0.5c2.3-0.3,4.1-1.6,5.7-3.3c1.7-1.7,3-3.8,4.6-5.5c1.8-1.9,5.9-4.7,8.1-1.9
						c1.4,1.7,0.8,4.9,3.5,5.4c3.1,0.6,5.1-3.1,8.2-3c1.4,0.1,2.9,0.5,4.2-0.5c0.7-0.6,1.1-1.5,1.4-2.4c0.4-1.3,0.6-2.8,1.6-3.8
						c1.9-2.1,4.5,0.1,5.9,1.7c0.1,0.2,0.4-0.1,0.2-0.2c-1.5-1.7-4.3-3.9-6.3-1.7c-1.6,1.8-1.1,5.1-3.3,6.3c-1.7,1-3.8-0.2-5.6,0.5
						c-1.6,0.6-2.8,2-4.4,2.5c-4.6,1.5-3.1-4.3-5.9-5.8c-2-1.1-4.7,0-6.3,1.3c-2.1,1.7-3.6,4-5.3,6c-2,2.3-4.6,4.3-7.8,4
						c-2.2-0.2-3.5-1.4-5.2-2.7c-0.7-0.6-1.7-0.9-2.5-0.3c-1.1,0.9-1.3,3-1.5,4.3c-0.2,1.7-0.2,3.3,0,5c0.5,3.6,2,7,4.4,9.8
						C70.6,131.9,70.8,131.6,70.7,131.5L70.7,131.5z"/>
				</g>
			</g>
		</g>
		<g>
			<g>
				<g>
					<path class="st0" d="M124.7,57.9c-2.6,0.5-4.6,2.7-5,5.4c-0.2,1.7,0.6,3.3,0.9,4.9c0.5,2.2-0.5,3.9-1.6,5.7
						c-1.5,2.5-2.4,5.2-0.5,7.7c0.8,1.1,1.9,1.8,3.2,2.1c0.7,0.2,1.4,0.2,2.1,0.1c0.2,0,0.5-0.2,0.8-0.2c1.6,0,1.6,0.9,1.5,1.9
						c0,0.2,0.3,0.2,0.3,0c0.1-0.7,0.1-1.9-0.7-2.3c-0.4-0.2-0.7,0-1.2,0.1c-1,0.2-1.9,0.3-2.9,0c-1.9-0.5-3.3-2-3.7-3.8
						c-0.4-1.9,0.3-3.5,1.2-5.1c0.7-1.1,1.4-2.2,1.8-3.4c0.4-1.4,0.1-2.8-0.3-4.1c-0.5-1.9-0.9-3.7,0.1-5.5c0.9-1.6,2.3-2.7,4.1-3.1
						C125,58.2,124.9,57.9,124.7,57.9L124.7,57.9z"/>
				</g>
			</g>
		</g>
		<g>
			<g>
				<g>
					<path class="st0" d="M46.4,126.3c-1.2-0.7-0.7-2.5,0.2-3.2c1.2-0.9,3-0.5,4.3-0.1c1.1,0.3,2.3,0.7,3.4,1.1
						c0.9,0.3,1.8,0.7,2.7,0.6c1.1-0.2,1.7-1.2,1.8-2.2c0.1-1.4-0.5-2.5-1.5-3.3c-1.6-1.3-3.7-1.9-5.2-3.4c-0.9-0.9-1.7-2-1.8-3.3
						c-0.1-1.2,0.5-2.4,0.7-3.6c0.5-3.1-0.7-6.5-2.9-8.7c-3-3-6.8-2.8-10.8-2.8c-4.5-0.1-8.8-2-11.4-5.7c-6.2-8.6,1.2-18.7,3-27.4
						c0.3-1.6,0.4-3.6-0.9-4.8c-1.2-1-3-0.9-4.3-0.3c-2,0.9-3.3,2.7-4.9,4.1c0.1-0.1-0.7,0.7-1,0.7c-0.5-0.1-1.1-0.2-1.6-0.3
						c-0.1-0.2-0.1-0.4-0.1-0.6c0-0.4,0-0.8,0-1.2c-0.1-0.6-0.2-1-0.6-1.4c-0.2-0.1-0.4,0.1-0.2,0.2c1.1,0.9,0,2.6,0.9,3.6
						c0.9,1,2.5-0.4,3.1-1c1.7-1.5,3.1-3.5,5.4-4c1.1-0.3,2.4-0.1,3.2,0.8c1,1.1,0.9,2.8,0.6,4.2c-1.7,8.4-8.4,17.3-3.9,26
						c1.6,3.1,4.5,5.5,7.8,6.6c4.3,1.5,9.3-0.3,13.4,2c3.6,2,5.7,6.5,4.7,10.6c-0.4,1.7-0.9,3.2-0.1,4.8c0.9,1.7,2.5,2.7,4.1,3.6
						c1.9,1,4.8,2.5,3.8,5.2c-0.7,2-3,1-4.4,0.5c-1.2-0.4-2.5-0.8-3.7-1.1c-1.5-0.3-3.5-0.5-4.4,1c-0.7,1-0.7,2.4,0.4,3.1
						C46.5,126.7,46.6,126.4,46.4,126.3L46.4,126.3z"/>
				</g>
			</g>
		</g>
		<g>
			<g>
				<g>
					<path class="st0" d="M55.2,106.3c-0.6,1.3-0.1,2.8,1,3.7c1.3,1,3.3,0.5,4-1c0.8-1.7-0.5-3.1-2-3.8c-1.3-0.6-3.4-0.2-3.1,1.7
						c0,0.2,0.3,0.1,0.3-0.1c-0.2-1.5,1.4-1.7,2.4-1.4c0.5,0.2,1.2,0.5,1.6,0.9c1.2,1,1,2.8-0.4,3.6c-2.1,1.2-4.4-1.3-3.5-3.4
						C55.5,106.2,55.3,106.1,55.2,106.3L55.2,106.3z"/>
				</g>
			</g>
		</g>
		<g>
			<g>
				<g>
					<path class="st0" d="M101.4,101.2c-1.4-1.5-2.1-3.5-1.9-5.6c0.3-2.2,1.7-3.6,3.6-4.5c1.5-0.7,3.2-1.1,4.7-1.9
						c1.6-0.9,2.5-2.6,4-3.5c2.3-1.3,5.4,0.6,7.2,2.1c2.2,1.8,3,5,0.1,6.5c-3.1,1.6-7.8-0.4-10.2,2.7c-0.6,0.8-0.7,1.7-0.9,2.6
						c-0.3,1.6-1.2,2.4-2.7,2.9c-0.4,0.1-0.9,0.3-1.3,0.4c-0.9,0-1.4-0.4-1.8-1.1c-0.2-0.4-0.4-0.6-0.9-0.6c-0.2,0-0.2,0.3,0,0.3
						c0.7,0,0.9,1.4,1.5,1.7c0.7,0.4,1.8-0.1,2.5-0.3c2-0.6,2.8-1.7,3.1-3.7c1-6.5,9.5-1.6,12.5-6.1c2.5-3.9-3.7-7.9-7-8.2
						c-2.3-0.2-3.3,1.6-4.8,3c-1.8,1.7-4.3,2-6.5,3.1c-4.1,2.1-4.5,7.2-1.4,10.4C101.3,101.6,101.5,101.4,101.4,101.2L101.4,101.2z"
						/>
				</g>
			</g>
		</g>
		<g>
			<g>
				<g>
					<path class="st0" d="M28.1,88c-0.5,0.2-0.5,0.9-0.1,1.2c0.5,0.4,1.2,0.1,1.5-0.3c0.3-0.4,0.4-1.1-0.1-1.4
						c-0.4-0.2-0.9-0.1-1.1,0.3c-0.1,0.2,0.2,0.3,0.3,0.1c0.1-0.2,0.4-0.2,0.6-0.1c0.3,0.2,0.2,0.6,0,0.9c-0.2,0.3-0.6,0.5-0.9,0.3
						c-0.3-0.1-0.4-0.6-0.1-0.7C28.5,88.2,28.3,87.9,28.1,88L28.1,88z"/>
				</g>
			</g>
		</g>
		<g>
			<g>
				<g>
					<path class="st0" d="M112.3,80.8c-0.3,0.2-0.4,0.5-0.5,0.8c0,0.1,0,0.1,0.1,0.1c0.4,0.2,0.9,0.3,1.3,0.1
						c0.4-0.2,0.6-0.5,0.6-0.9c0-0.6-1-1-1.3-0.3c-0.1,0.2,0.2,0.4,0.3,0.2c0.1-0.2,0.2-0.2,0.4-0.2c0.3,0.1,0.3,0.3,0.3,0.5
						c-0.2,0.6-1,0.5-1.4,0.3c0,0.1,0.1,0.1,0.1,0.1c0-0.2,0.1-0.4,0.3-0.6C112.7,80.9,112.5,80.6,112.3,80.8L112.3,80.8z"/>
				</g>
			</g>
		</g>
		<g>
			<g>
				<g>
					<path class="st0" d="M92,99.1c0,0.3,0,0.5-0.2,0.7c0,0.1,0,0.1,0,0.2c0.1,0.2,0.3,0.3,0.5,0.4c0.2,0.1,0.3,0.1,0.5,0
						c0.3-0.2,0.6-0.5,0.6-0.9c0.1-0.7-0.7-1.4-1.4-1c-0.2,0.1,0,0.4,0.2,0.3c0.4-0.3,0.9,0.2,0.9,0.6c0,0.3-0.2,0.5-0.4,0.6
						c-0.1,0.1-0.2,0.1-0.3,0.1c-0.2,0-0.3-0.2-0.4-0.3c0,0.1,0,0.1,0,0.2c0.2-0.3,0.2-0.6,0.2-0.9C92.3,98.8,92,98.9,92,99.1
						L92,99.1z"/>
				</g>
			</g>
		</g>
		<g>
			<g>
				<g>
					<path class="st0" d="M75.8,111.1c-0.5-0.1-0.9,0.3-1,0.8c-0.1,0.4,0.3,0.8,0.7,0.9c0.4,0.1,0.8-0.1,1-0.5s-0.1-0.9-0.4-1.1
						c-0.2-0.1-0.3,0.2-0.2,0.3c0.5,0.3,0.4,1.1-0.3,1c-0.3-0.1-0.5-0.2-0.5-0.5c0-0.3,0.3-0.6,0.6-0.6
						C76,111.5,76,111.1,75.8,111.1L75.8,111.1z"/>
				</g>
			</g>
		</g>
		<g>
			<g>
				<g>
					<path class="st0" d="M119.5,54.3c-0.5,0.1-0.8,0.7-0.6,1.2c0.2,0.6,0.9,0.7,1.4,0.4c0.6-0.3,0.7-1,0.4-1.6
						c-0.1-0.2-0.4-0.6-0.7-0.6s-0.5,0.4-0.6,0.6c-0.1,0.2,0.3,0.3,0.3,0.1c0.1-0.2,0.2-0.3,0.3-0.4c-0.1,0-0.1,0-0.2,0
						c0.7,0.3,0.9,1.4,0,1.7c-0.3,0.1-0.7-0.1-0.7-0.5c0-0.3,0.2-0.6,0.5-0.7C119.8,54.5,119.7,54.2,119.5,54.3L119.5,54.3z"/>
				</g>
			</g>
		</g>
		<g>
			<g>
				<g>
					<path class="st0" d="M21.7,64c0.6-1.1,2.2-3.3,3.5-1.7c0.9,1.1-0.5,3.5-1.1,4.5C24,67,24.3,67.1,24.4,67
						c0.6-1.1,1.2-2.3,1.3-3.5c0.1-0.6,0-1.2-0.5-1.6c-1.6-1.2-3.1,0.7-3.8,2C21.3,64,21.6,64.2,21.7,64L21.7,64z"/>
				</g>
			</g>
		</g>
		<g>
			<g>
				<g>
					<path class="st0" d="M42.8,100.6c3.2,0.1,3.5,3.8,3.5,6.2c0,0.2,0.3,0.2,0.3,0c0-2.6-0.4-6.5-3.8-6.5
						C42.6,100.2,42.6,100.6,42.8,100.6L42.8,100.6z"/>
				</g>
			</g>
		</g>
		<g>
			<g>
				<g>
					<path class="st0" d="M52.1,120.7c0.7,0.8,2.8,2.7,3.9,1.7c0.4-0.4,0.4-1,0.2-1.4c-0.3-0.7-1.1-1-1.8-1.3
						c-0.2-0.1-0.3,0.2-0.1,0.3c0.5,0.2,1.1,0.4,1.4,0.8c0.2,0.2,0.3,0.5,0.3,0.8c-0.1,0.8-0.7,0.8-1.2,0.6c-1-0.3-1.8-1-2.5-1.7
						C52.2,120.4,52,120.6,52.1,120.7L52.1,120.7z"/>
				</g>
			</g>
		</g>
		<g>
			<g>
				<g>
					<path class="st0" d="M70.4,123.5c-0.8-1.1-1.8-2.8-1.3-4.2c0.8-2.1,3.1-0.2,4,0.7c0.2,0.2,0.4-0.1,0.2-0.2
						c-1-1.1-2.8-2.6-4.2-1.2c-1.4,1.2,0.1,4,1,5.1C70.2,123.8,70.5,123.7,70.4,123.5L70.4,123.5z"/>
				</g>
			</g>
		</g>
		<g>
			<g>
				<g>
					<path class="st0" d="M88.6,112.6c0.4-1.5,1.4-3.3,2.9-3.9c2.6-1.1,1.3,3.6,1,4.7c-0.1,0.2,0.2,0.3,0.3,0.1
						c0.4-1.1,1.7-5.2-0.5-5.3c-1-0.1-1.9,0.8-2.5,1.5c-0.7,0.8-1.2,1.8-1.5,2.9C88.2,112.7,88.5,112.8,88.6,112.6L88.6,112.6z"/>
				</g>
			</g>
		</g>
		<g>
			<g>
				<g>
					<path class="st0" d="M114.5,105.4c-0.3-0.5-0.1-1.3,0.4-1.5c0.6-0.2,1.2,0.2,1.4,0.7c0.1,0.2,0.4,0.1,0.3-0.1
						c-0.2-0.7-1.1-1.3-1.8-1c-0.7,0.3-1,1.3-0.6,2C114.3,105.8,114.6,105.6,114.5,105.4L114.5,105.4z"/>
				</g>
			</g>
		</g>
		<g>
			<g>
				<g>
					<path class="st0" d="M103.3,94.6c-0.5,1-1,2.2-0.4,3.2c0.4,0.7,1.2,1,1.9,0.7c0.2-0.1,0-0.4-0.2-0.3c-0.9,0.4-1.7-0.5-1.7-1.3
						c-0.1-0.8,0.3-1.5,0.6-2.2C103.6,94.6,103.4,94.4,103.3,94.6L103.3,94.6z"/>
				</g>
			</g>
		</g>
		<g>
			<g>
				<g>
					<path class="st0" d="M114.4,88.4c0.8,0.1,1.7,0.1,2.3,0.6c0.6,0.5,0.8,1.4,0.2,2c-0.2,0.1,0.1,0.4,0.2,0.2
						c0.6-0.5,0.6-1.5,0.1-2.1c-0.6-0.9-1.8-1-2.8-1.1C114.2,88,114.2,88.4,114.4,88.4L114.4,88.4z"/>
				</g>
			</g>
		</g>
		<g>
			<g>
				<g>
					<path class="st0" d="M121.9,75.2c-2,1-1.1,4,1.1,3.7c0.2,0,0.2-0.4,0-0.3c-1.9,0.3-2.7-2.2-1-3.1
						C122.2,75.4,122,75.1,121.9,75.2L121.9,75.2z"/>
				</g>
			</g>
		</g>
		<g>
			<g>
				<g>
					<path class="st0" d="M122.4,65.7c-0.5-0.6-0.5-1.5,0.1-2.1c0.5-0.5,1.4-0.6,2-0.2c0.2,0.1,0.3-0.2,0.2-0.3
						c-0.8-0.5-1.9-0.4-2.5,0.3c-0.6,0.7-0.5,1.7,0,2.4C122.4,66.1,122.6,65.9,122.4,65.7L122.4,65.7z"/>
				</g>
			</g>
		</g>
		<g>
			<g>
				<g>
					<path class="st0" d="M42.3,103c0.7,0.3,1.2,0.9,1.4,1.6c0,0.2,0.4,0.1,0.3-0.1c-0.2-0.9-0.8-1.5-1.6-1.9
						C42.2,102.6,42.1,103,42.3,103L42.3,103z"/>
				</g>
			</g>
		</g>
		<g>
			<g>
				<g>
					<path class="st0" d="M22.4,64.7C22.4,64.7,22.4,64.7,22.4,64.7C22.4,64.7,22.4,64.7,22.4,64.7c0,0,0.1,0,0.1,0s0.1,0,0.1,0
						c0,0,0,0,0,0c0,0,0,0,0,0c-0.1,0.2,0.3,0.3,0.3,0.1c0.2-0.6-1-0.6-0.8,0C22.1,65,22.4,64.9,22.4,64.7L22.4,64.7z"/>
				</g>
			</g>
		</g>
		<g>
			<g>
				<g>
					<path class="st0" d="M89.8,113.5c0.1-0.9,0.6-1.6,1.4-2c-0.1,0-0.2,0-0.2-0.1c0.3,0.5,0.3,1.1,0,1.7c-0.1,0.2,0.2,0.4,0.3,0.2
						c0.3-0.6,0.3-1.4,0-2c-0.1-0.1-0.2-0.1-0.2-0.1c-0.8,0.4-1.4,1.2-1.5,2.2C89.4,113.6,89.8,113.7,89.8,113.5L89.8,113.5z"/>
				</g>
			</g>
		</g>
	</g>
</g>
</svg>
