<?xml version="1.0" encoding="utf-8"?>
<!-- Generator: Adobe Illustrator 24.0.1, SVG Export Plug-In . SVG Version: 6.00 Build 0)  -->
<svg version="1.1" id="Layer_1" xmlns="http://www.w3.org/2000/svg" xmlns:xlink="http://www.w3.org/1999/xlink" x="0px" y="0px"
	 viewBox="0 0 141.7 141.7" style="enable-background:new 0 0 141.7 141.7;" xml:space="preserve">
<style type="text/css">
	.st0{fill:#070707;}
	.st1{enable-background:new    ;}
</style>
<g id="Layer_1_1_">
</g>
<g id="Layer_1_2_">
</g>
<g id="Layer_1_3_">
</g>
<g id="Layer_3">
	<g>
		<g>
			<g>
				<g>
					<path class="st0" d="M29.7,105.2c0-1.8,3.5-3.6,9.6-5c0-0.1,0-0.3,0-0.4c-6.2,1.4-9.9,3.3-9.9,5.4c0,1.5,1.8,2.9,5.2,4.1
						c0,0,0,0,0,0c0.1-0.1,0.2-0.3,0.3-0.4c0.1-0.1,0.2-0.2,0.2-0.3c-0.2,0.1-0.3,0.2-0.5,0.4C31.4,107.7,29.7,106.5,29.7,105.2z"/>
				</g>
				<g>
					<path class="st0" d="M91.8,99.6c0,0.1,0,0.3,0,0.4c0,0,0.1,0,0.1,0c6.7,1.4,10.5,3.3,10.5,5.2c0,1.3-1.6,2.5-4.8,3.6
						c-0.1-0.2-0.2-0.3-0.4-0.4c0.1,0.1,0.2,0.3,0.3,0.4c0.1,0.1,0.1,0.3,0.2,0.4c3.3-1.2,5-2.6,5-4C102.8,102.9,98.6,101,91.8,99.6
						z"/>
				</g>
				<g>
					<path class="st0" d="M92.1,110.3c-6.8,1.5-16.3,2.3-26.1,2.3c-10,0-19.3-0.8-26.2-2.3c0-0.1,0.1-0.3,0.1-0.4
						c-0.1,0.2-0.2,0.4-0.3,0.6c0,0.1-0.1,0.1-0.1,0.2l0.1,0c7,1.5,16.4,2.4,26.5,2.4c9.9,0,19.5-0.9,26.3-2.3
						C92.3,110.6,92.2,110.5,92.1,110.3z"/>
				</g>
			</g>
			<g>
				<g>
					<g>
						<path class="st0" d="M87.9,73.6c-2.5-4.5-7-7.5-12-8.8c-3.1-0.8-6.2-0.9-9.4-0.7c-3.4,0.3-6.8,0.6-10.2,1
							c-5,0.7-9.6,3.3-12.7,7.2c-3.4,4.3-4.7,9.8-5.1,15.2c-0.5,7.6,0.7,15.2,0.8,22.8c0,0.4,0.6,0.4,0.6,0c0-11.4-3.4-24.4,2.4-35
							c2.5-4.6,6.9-8,12-9.3c2.9-0.7,5.9-0.8,8.8-1.1c3-0.3,6.1-0.6,9.1-0.3c6,0.6,12,3.8,15,9.2C87.6,74.2,88.1,73.9,87.9,73.6
							L87.9,73.6z"/>
					</g>
				</g>
			</g>
			<g>
				<g>
					<g>
						<path class="st0" d="M56.5,65.7c0.4,0,0.4-0.6,0-0.6S56.1,65.7,56.5,65.7L56.5,65.7z"/>
					</g>
				</g>
			</g>
			<g>
				<g>
					<g>
						<path class="st0" d="M39.9,80.3c-4.1-0.3-6.5-4.7-4-8.1c1-1.3,2.5-2.3,4.2-2.6c1.7-0.3,4-0.2,5.1,1.1c0.2,0.3,0.6-0.1,0.4-0.4
							c-1.2-1.5-3.6-1.6-5.3-1.3c-2,0.3-4,1.5-5.1,3.3c-2.5,3.8,0.4,8.2,4.7,8.6C40.2,80.9,40.2,80.4,39.9,80.3L39.9,80.3z"/>
					</g>
				</g>
			</g>
			<g>
				<g>
					<g>
						<path class="st0" d="M84.2,69.5c2.9-1.5,7.5-2.2,9.5,1.1c1.9,3.1,0.7,8-3.3,8.6c-0.4,0.1-0.2,0.6,0.2,0.5
							c4.2-0.7,5.6-5.8,3.7-9.2c-2-3.8-7.1-3.2-10.4-1.5C83.6,69.1,83.9,69.6,84.2,69.5L84.2,69.5z"/>
					</g>
				</g>
			</g>
			<g>
				<g>
					<g>
						<path class="st0" d="M61.7,85c0.1,0,0.2,0,0.2,0c0-0.1,0-0.2-0.1-0.3c-0.2,0.1-0.5,0.1-0.7,0.2c-0.4,0.2-0.8,0.5-1.1,0.8
							c-0.7,0.5-1.4,1.2-1.7,2.1c-0.7,1.9,1.6,2.9,3.1,2.9c1.3-0.1,2.6-0.7,3.9-0.9c1.4-0.2,2.5,0.4,3.8,0.6
							c1.6,0.3,3.2-0.7,2.9-2.5c-0.3-2-2.8-3-4.5-3.6c-0.2-0.1-0.2,0.2-0.1,0.3c1.7,0.6,4.9,2,4.2,4.3c-0.7,2.7-4.1,0.5-5.9,0.6
							c-1.1,0-2.1,0.4-3.1,0.7c-1.3,0.3-3.8,0.4-4.2-1.4c-0.3-1.1,0.9-2.2,1.6-2.8c0.4-0.3,0.8-0.7,1.3-0.8c0.2-0.1,0.5-0.1,0.7-0.2
							c0.1-0.1,0.1-0.3-0.1-0.3c-0.1,0-0.2,0-0.3,0C61.5,84.8,61.5,85.1,61.7,85L61.7,85z"/>
					</g>
				</g>
			</g>
			<g>
				<g>
					<g>
						<path class="st0" d="M68.3,90.2c0.4,1.1,0.6,2.5,0.3,3.6c-0.2,0.9-1.1,1.6-2,1.3c-0.7-0.2-0.9-0.8-1.1-1.4
							c-0.1-0.2-0.3,0-0.2,0.1c0.3,0.6,0.5,1.3,1.1,1.5c0.6,0.2,1.3,0,1.8-0.3c1.5-1,1-3.6,0.5-5C68.5,90,68.2,90.1,68.3,90.2
							L68.3,90.2z"/>
					</g>
				</g>
			</g>
			<g>
				<g>
					<g>
						<path class="st0" d="M91.6,93.2c0.5-0.2,1.3,0,1.9-0.1c0.8-0.1,1.6-0.4,2.3-0.9c1.1-0.8,2-2.1,1.8-3.5c-0.1-1-0.8-1.6-1.8-1.6
							c-1.7,0-3,1.2-4.2,2.3c-0.1,0.1,0.1,0.3,0.2,0.2c1-0.9,2-1.9,3.3-2.2c2-0.4,2.7,1.6,1.8,3.1c-0.7,1.2-2.1,2-3.6,2.2
							c-0.6,0.1-1.3-0.2-1.9,0.1C91.3,93.1,91.4,93.3,91.6,93.2L91.6,93.2z"/>
					</g>
				</g>
			</g>
			<g>
				<g>
					<g>
						<path class="st0" d="M94.5,90c1.1-0.3,2.3-1.3,1.7-2.5c-0.1-0.2-0.3,0-0.2,0.1c0.6,1.1-0.6,1.9-1.5,2.1
							C94.3,89.7,94.4,90,94.5,90L94.5,90z"/>
					</g>
				</g>
			</g>
			<g>
				<path class="st0" d="M75.2,84.9c-4.6,0-8.3-3.7-8.3-8.3s3.7-8.3,8.3-8.3c4.6,0,8.3,3.7,8.3,8.3S79.8,84.9,75.2,84.9z M75.2,68.6
					c-4.4,0-8,3.6-8,8c0,4.4,3.6,8,8,8c4.4,0,8-3.6,8-8C83.2,72.2,79.6,68.6,75.2,68.6z"/>
			</g>
			<g>
				<path class="st0" d="M54.7,85.8c-4.6,0-8.3-3.7-8.3-8.3c0-4.6,3.7-8.3,8.3-8.3c4.6,0,8.3,3.7,8.3,8.3C63,82,59.3,85.8,54.7,85.8
					z M54.7,69.4c-4.4,0-8,3.6-8,8c0,4.4,3.6,8,8,8c4.4,0,8-3.6,8-8C62.7,73,59.1,69.4,54.7,69.4z"/>
			</g>
			<g>
				<path class="st0" d="M90.8,73.3c0-0.9-0.8-1.7-1.7-1.7c-0.9,0-1.7,0.8-1.7,1.7c0,0.9,0.8,1.7,1.7,1.7S90.8,74.3,90.8,73.3z"/>
			</g>
			<g>
				<circle class="st0" cx="40.6" cy="74.9" r="1.7"/>
			</g>
			<g>
				<path class="st0" d="M68.6,84.1c0-1.1-1.6-2-3.6-2c-2,0-3.6,0.9-3.6,2c0,1.1,1.6,2,3.6,2S68.6,85.2,68.6,84.1z"/>
			</g>
			<g>
				<path class="st0" d="M72.6,76.6c0,1.5,1.2,2.7,2.7,2.7c1.5,0,2.7-1.2,2.7-2.7c0-1.5-1.2-2.7-2.7-2.7
					C73.7,73.9,72.6,75.1,72.6,76.6z M76.9,75.5c0,0.4-0.3,0.8-0.8,0.8c-0.4,0-0.8-0.3-0.8-0.8c0-0.4,0.3-0.8,0.8-0.8
					C76.6,74.8,76.9,75.1,76.9,75.5z"/>
			</g>
			<g>
				<path class="st0" d="M52.3,77.4c0,1.5,1.2,2.7,2.7,2.7c1.5,0,2.7-1.2,2.7-2.7c0-1.5-1.2-2.7-2.7-2.7S52.3,75.9,52.3,77.4z
					 M56.6,76.4c0,0.4-0.3,0.8-0.8,0.8c-0.4,0-0.8-0.3-0.8-0.8s0.3-0.8,0.8-0.8C56.3,75.6,56.6,75.9,56.6,76.4z"/>
			</g>
			<g>
				<g>
					<g>
						<path class="st0" d="M65.2,89.7c0.2,1,0.1,2.2,0,3.3c-0.1,1.3-1,3.3-2.6,2.1c-1.2-1-0.9-3.3-0.5-4.6c0-0.2-0.2-0.2-0.3-0.1
							c-0.4,1.6-0.8,4.8,1.3,5.3c2.9,0.6,2.6-4.4,2.3-6C65.4,89.5,65.2,89.5,65.2,89.7L65.2,89.7z"/>
					</g>
				</g>
			</g>
			<g>
				<g>
					<g>
						<path class="st0" d="M34.5,111.6c-1.6-0.9,0-2.5,1-3.1c1.2-0.8,2.6-1.3,4.1-1.1c0.2,0,0.2-0.2,0.1-0.3
							c-1.8-0.3-3.8,0.5-5.1,1.8c-0.9,0.9-1.5,2.2-0.1,3C34.5,112,34.7,111.7,34.5,111.6L34.5,111.6z"/>
					</g>
				</g>
			</g>
			<g>
				<g>
					<g>
						<path class="st0" d="M35.8,110.5c-0.5,0.2-1.2,0.7-1.3,1.4c0,0.6,0.6,1,1.2,1.1c1.6,0.2,3.3-1.5,4.1-2.6
							c0.1-0.1-0.1-0.3-0.2-0.1c-0.7,0.9-1.6,1.7-2.6,2.2c-0.6,0.3-1.7,0.5-2.1-0.2c-0.4-0.7,0.6-1.3,1.1-1.5
							C36.1,110.7,35.9,110.5,35.8,110.5L35.8,110.5z"/>
					</g>
				</g>
			</g>
			<g>
				<g>
					<g>
						<path class="st0" d="M87.1,73c3.9,4.9,3.9,11.5,4.1,17.4c0.2,6.6,0.1,13.3,0.4,19.9c0,0.4,0.6,0.4,0.6,0
							c-0.3-7.1-0.2-14.2-0.5-21.2c-0.2-5.8-0.5-11.8-4.2-16.5C87.2,72.4,86.9,72.7,87.1,73L87.1,73z"/>
					</g>
				</g>
			</g>
			<g>
				<g>
					<g>
						<path class="st0" d="M103.1,105.3c-0.2-2.9-1.3-5.6-3.3-7.6c-0.1,0.1-0.1,0.2-0.2,0.2c2.5,1.5,2.9,4.7,4.9,6.7
							c0.1,0.1,0.2,0,0.2-0.1c-0.1-1.2,0.2-2.2,0.9-3.1c-0.1,0-0.2,0-0.3-0.1c0,0.9,0,1.7,0,2.6c0,0.1,0.1,0.2,0.2,0.1
							c0.4-0.2,0.7-0.4,1-0.7c-0.1,0-0.2-0.1-0.2-0.1c-0.1,0.4-0.2,0.7-0.3,1.1c0,0.1,0.1,0.2,0.2,0.2c0.7-0.2,1.2-0.6,1.8-1
							c-0.1-0.1-0.1-0.1-0.2-0.2c-0.2,0.5-0.5,1.1-0.7,1.6c0,0.1,0,0.2,0.1,0.2c1.1,0.3,0.3,1.3,0,1.7c-0.1,0.1,0,0.2,0.1,0.2
							c2.2,0.2,4.3,0.4,6.5,0.4c0.2,0,0.2-0.3,0-0.3c-1.2,0-2.3,0-3.5-0.1c-0.6,0-1.2-0.1-1.7-0.1c-0.1,0-0.8,0-0.9-0.1
							c-0.2-0.2,0-0.2,0.1-0.5c0.1-0.4,0.2-0.8,0-1.1c-0.1-0.1-0.3-0.2-0.3-0.3c-0.1-0.4,0.3-1.1,0.5-1.5c0-0.1-0.1-0.3-0.2-0.2
							c-0.2,0.2-0.7,0.6-1,0.7c-0.6,0.2-0.3-0.1-0.2-0.6c0-0.1-0.1-0.2-0.2-0.1c-0.6,0.6-0.7,0.2-0.7-0.4c0-0.5,0-1,0-1.5
							c0-0.2-0.2-0.2-0.3-0.1c-0.7,1-1,2.1-0.9,3.3c0.1,0,0.2-0.1,0.2-0.1c-2-2-2.4-5.2-5-6.7c-0.1-0.1-0.3,0.1-0.2,0.2
							c2,2,3.1,4.6,3.3,7.5C102.8,105.4,103.1,105.4,103.1,105.3L103.1,105.3z"/>
					</g>
				</g>
			</g>
			<g>
				<g>
					<g>
						<path class="st0" d="M29.3,105.4c0.1-1.9,0.3-3.8,0.4-5.7c0-0.1-0.2-0.2-0.3-0.1c-1.2,2-1.6,4.3-2,6.6c0.1,0,0.2,0,0.3,0
							c-0.2-0.9-0.4-1.8-0.5-2.7c0-0.2-0.2-0.1-0.3,0c-0.3,0.8-0.5,1.5-0.5,2.3c0.1,0,0.2,0,0.3-0.1c-0.2-0.4-0.6-1.7-1.2-1.5
							c-0.6,0.2-0.3,1.3-0.2,1.7c0.1,0.4,0.2,0.7,0,1c-0.1,0.2-0.3,0.3-0.3,0.6c-0.1,0.8,0.5,1.3,1.1,1.7c0-0.1,0-0.2,0.1-0.3
							c-1.2-0.1-2.4-0.2-3.6-0.3c-0.2,0-0.2,0.2-0.1,0.3c0.6,0.4,1.2,0.8,1.8,1.2c0-0.1,0-0.2,0-0.2c-2.9,0.4-5.8,0.9-8.7,1.3
							c-0.2,0-0.1,0.3,0.1,0.3c2.9-0.4,5.8-0.9,8.7-1.3c0.1,0,0.1-0.2,0-0.2c-0.6-0.4-1.2-0.8-1.8-1.2c0,0.1,0,0.2-0.1,0.3
							c1.2,0.1,2.4,0.2,3.6,0.3c0.2,0,0.2-0.2,0.1-0.3c-0.3-0.2-1.9-1.6-0.4-2c0.1,0,0.1-0.1,0.1-0.2c-0.2-0.5-0.7-1.4-0.2-1.8
							c0.2-0.4,0.3-0.3,0.4,0.1c0.1,0.2,0.2,0.5,0.4,0.7c0.1,0.1,0.2,0.1,0.3-0.1c0-0.8,0.2-1.5,0.5-2.2c-0.1,0-0.2,0-0.3,0
							c0.2,0.9,0.4,1.8,0.5,2.7c0,0.1,0.2,0.1,0.3,0c0.4-2.2,0.8-4.5,2-6.5c-0.1,0-0.2,0-0.3-0.1c-0.1,1.9-0.3,3.8-0.4,5.7
							C29,105.6,29.3,105.6,29.3,105.4L29.3,105.4z"/>
					</g>
				</g>
			</g>
			<g>
				<g>
					<g>
						<path class="st0" d="M45.7,115.2c-2.6-0.8-5.2-0.5-7.6,0.8c-0.1,0-0.1,0.2,0,0.2c1.2,0.6,2.4,0.9,3.7,1.1
							c1.2,0.2,2.7,0.4,3.9,0.2c0.6-0.1,1.3-0.6,1.3-1.3c0-0.7-0.6-1-1.1-0.9c-0.2,0-0.1,0.3,0.1,0.3c0.1,0.5,0.2,0.9,0.3,1.4
							c-0.3,0.1-0.6,0.2-0.9,0.2c-0.3,0-0.6,0-0.9,0c-0.6,0-1.2,0-1.8-0.1c-0.3,0-4-0.4-4-1c0-0.6,2.5-1,3.1-1.1
							c1.3-0.2,2.7,0,4,0.4C45.8,115.6,45.8,115.3,45.7,115.2L45.7,115.2z"/>
					</g>
				</g>
			</g>
			<g>
				<g>
					<g>
						<path class="st0" d="M47.3,118.5c-0.7-0.4-1.5-0.3-2.1,0.2c-0.1,0.1,0,0.2,0,0.2c0.8,0.5,1.7,0.5,2.5,0.1c0.1,0,0.1-0.1,0-0.2
							c-0.2-0.3-0.4-0.5-0.7-0.6c-0.2,0-0.2,0.2-0.1,0.3c0.3,0.1,0.4,0.2,0.6,0.5c0-0.1,0-0.1,0-0.2c-0.7,0.4-1.6,0.4-2.3-0.1
							c0,0.1,0,0.2,0,0.2c0.5-0.4,1.2-0.5,1.8-0.2C47.3,118.9,47.4,118.6,47.3,118.5L47.3,118.5z"/>
					</g>
				</g>
			</g>
			<g>
				<g>
					<g>
						<path class="st0" d="M68.4,120.2c-0.6-0.7-1.2-1.5-1.8-2.2c-0.1,0.1-0.1,0.1-0.2,0.2c0.7,0.6,1.3,1.1,2.1,1.7
							c0.1,0.1,0.2,0,0.2-0.1c0.2-0.5,0.3-0.9,0.5-1.4c-0.1,0-0.2,0-0.3,0c0.2,0.4,0.4,0.7,0.9,0.8c0.2,0,0.5-0.1,0.7-0.1
							c0.1,0,0,0.1,0.1,0.2c0.3,0.3,0.5,0.5,0.9,0.6c0.2,0,0.4-0.1,0.6-0.1c0.2,0,0.4,0.3,0.5,0.3c0.7,0.3,1.7,0.2,2.4,0.2
							c1.2,0,2.5,0,3.7,0c2.5-0.1,5-0.3,7.5-0.6c0.2,0,0.1-0.3-0.1-0.3c-2.3,0.3-4.6,0.5-6.9,0.6c-1,0-2,0-3.1,0
							c-0.9,0-3.3,0.3-3.8-0.7c0-0.1-0.1-0.1-0.2,0c-0.8,0.3-1.2,0.1-1.3-0.6c0-0.1-0.1-0.2-0.2-0.1c-0.6,0.4-1,0.2-1.3-0.4
							c0-0.1-0.2-0.1-0.3,0c-0.2,0.6-0.2,1.3-0.9,0.9c-0.5-0.3-1-0.8-1.4-1.2c-0.1-0.1-0.3,0.1-0.2,0.2c0.6,0.7,1.2,1.5,1.8,2.2
							C68.3,120.5,68.5,120.3,68.4,120.2L68.4,120.2z"/>
					</g>
				</g>
			</g>
			<g>
				<g>
					<g>
						<path class="st0" d="M63.6,118.8c-0.3,0.7-0.6,1.4-1,2.1c0.1,0,0.2,0,0.2,0c-0.1-0.5-0.3-0.9-0.5-1.4c0-0.1-0.2-0.1-0.2,0
							c-0.4,0.4-0.4,0.8-0.4,1.3c0.1,0,0.2-0.1,0.2-0.1c-0.2-0.2-0.4-0.4-0.7-0.5c-0.1,0-0.2,0-0.2,0.1c-0.3,0.9-2.1,0.7-2.9,0.7
							c-1.3,0-2.6,0-3.8,0c-0.2,0-0.2,0.3,0,0.3c2.3,0.1,4.6,0,6.8-0.1c0.1,0,0.1-0.1,0.1-0.1c0-0.5,0.2-0.5,0.6,0
							c0.1,0.1,0.2,0,0.2-0.1c0.1-0.9,0.2-1,0.4-0.4c0.1,0.2,0.2,0.4,0.2,0.7c0,0.1,0.2,0.1,0.2,0c0.4-0.7,0.8-1.4,1-2.2
							C63.9,118.7,63.6,118.6,63.6,118.8L63.6,118.8z"/>
					</g>
				</g>
			</g>
			<g>
				<g>
					<g>
						<path class="st0" d="M64.8,121c0.2-1.3,0.1-2.6-0.2-3.9c0-0.2-0.3-0.1-0.3,0.1c0.2,1.3,0.3,2.6,0.2,3.9
							C64.6,121.2,64.8,121.2,64.8,121L64.8,121z"/>
					</g>
				</g>
			</g>
			<g>
				<g>
					<g>
						<path class="st0" d="M65,121.4c0.1-0.7,0.2-1.5,0.4-2.2c0-0.2-0.2-0.2-0.3-0.1c-0.1,0.7-0.2,1.5-0.4,2.2
							C64.7,121.5,65,121.6,65,121.4L65,121.4z"/>
					</g>
				</g>
			</g>
			<g>
				<g>
					<g>
						<path class="st0" d="M92,110.6c2.2-0.4,4.3-0.9,6.3-1.6c0.2-0.1,0.1-0.3-0.1-0.3c-2.1,0.7-4.2,1.3-6.3,1.6
							C91.8,110.4,91.9,110.7,92,110.6L92,110.6z"/>
					</g>
				</g>
			</g>
			<g>
				<g>
					<g>
						<path class="st0" d="M91.9,110.8c2.2-0.4,4.3-1.1,6.3-1.9c0.2-0.1,0-0.3-0.1-0.2c-2,0.9-4.1,1.5-6.2,1.9
							C91.7,110.6,91.8,110.9,91.9,110.8L91.9,110.8z"/>
					</g>
				</g>
			</g>
			<g>
				<g>
					<g>
						<path class="st0" d="M92.2,110.5c1.2-0.4,2.3-0.8,3.6-1.1c0-0.1-0.1-0.2-0.1-0.2c-0.9,0.4-1.8,0.6-2.7,0.8
							c-0.2,0-0.1,0.3,0.1,0.3c1-0.2,2-0.4,2.9-0.7c0.2,0,0.1-0.3-0.1-0.3c-0.7,0.1-1.4,0.3-2,0.5c-0.2,0.1-0.1,0.3,0.1,0.3
							c0.8-0.1,1.6-0.4,2.4-0.7c0.2-0.1,0.1-0.3-0.1-0.3c-0.8,0.3-1.6,0.5-2.4,0.7c0,0.1,0,0.2,0.1,0.3c0.7-0.2,1.3-0.4,2-0.5
							c0-0.1,0-0.2-0.1-0.3c-1,0.3-1.9,0.5-2.9,0.7c0,0.1,0,0.2,0.1,0.3c0.9-0.2,1.8-0.4,2.7-0.8c0.2-0.1,0-0.3-0.1-0.2
							c-1.2,0.3-2.4,0.7-3.6,1.1C92,110.3,92.1,110.6,92.2,110.5L92.2,110.5z"/>
					</g>
				</g>
			</g>
			<g>
				<g>
					<g>
						<path class="st0" d="M102.6,104.9C102.6,105,102.6,105,102.6,104.9c0,0.1,0,0.2,0,0.2c0,0,0,0,0,0c0,0,0.2,0.1,0.2,0
							c0,0,0,0,0,0c0,0,0.1-0.1,0-0.2c0,0,0,0,0,0C102.8,104.8,102.6,104.9,102.6,104.9c0,0.2-0.1,0.3-0.1,0.4
							c0.1,0.1,0.2,0.1,0.2,0.2c0,0,0.1-0.1,0.1-0.2c-0.1,0-0.2-0.1-0.2-0.1c0,0.1-0.1,0.1-0.1,0.2c0.1,0,0.1,0.1,0.2,0.2
							c0-0.1,0.1-0.2,0.2-0.3c-0.1,0-0.2-0.1-0.2-0.1c-0.1,0.3-0.2,0.4-0.4,0.7c0.1,0.1,0.2,0.1,0.2,0.2c0.2-0.3,0.4-0.6,0.5-0.9
							c-0.1,0-0.2,0-0.3-0.1c0,0.5-0.3,0.9-0.7,1.2c0.1,0.1,0.1,0.1,0.2,0.2c0.4-0.4,0.7-0.9,0.8-1.4c-0.1,0-0.2,0-0.3,0
							c-0.2,1.4-1.5,2-2.6,2.5c-0.2,0.1,0,0.3,0.1,0.2c1.2-0.6,2.5-1.3,2.7-2.8c0-0.2-0.2-0.2-0.3,0c-0.1,0.5-0.4,0.9-0.7,1.3
							c-0.1,0.1,0.1,0.3,0.2,0.2c0.4-0.4,0.7-0.8,0.8-1.4c0-0.1-0.2-0.2-0.3-0.1c-0.2,0.3-0.4,0.6-0.5,0.9c-0.1,0.1,0.1,0.3,0.2,0.2
							c0.2-0.2,0.4-0.5,0.4-0.8c0-0.2-0.2-0.2-0.2-0.1s-0.1,0.3-0.2,0.4c0,0.1,0.1,0.2,0.2,0.2c0.2-0.1,0.2-0.2,0.2-0.4
							c0-0.1-0.2-0.2-0.2-0.1c-0.1,0.1-0.1,0.1-0.2,0.2c-0.1,0.1,0.1,0.3,0.2,0.2c0.2-0.2,0.2-0.3,0.2-0.5c-0.1,0-0.2,0-0.3,0.1
							C102.7,105.1,102.7,105,102.6,104.9c0.1,0,0.2,0,0.2,0c0,0,0,0.1,0,0.1C102.9,104.9,102.7,104.8,102.6,104.9L102.6,104.9z"/>
					</g>
				</g>
			</g>
			<g>
				<g>
					<g>
						<path class="st0" d="M29.3,105.1c-0.1,0.4,0,0.7,0.2,1c0.1,0.1,0.3,0,0.2-0.1c-0.1-0.2-0.2-0.4-0.2-0.7c0-0.1-0.2-0.2-0.3,0
							c0,0.4,0,0.6,0.2,0.9c0.1,0.1,0.3,0,0.2-0.2c-0.1-0.2-0.1-0.4-0.2-0.6c0-0.2-0.2-0.2-0.3,0c-0.2,0.8,0.7,1.5,1.3,2
							c0.9,0.7,1.9,1,3,1.1c0.2,0,0.2-0.3,0-0.3c-0.8-0.1-1.6-0.3-2.3-0.7c-0.6-0.3-2-1.2-1.8-2c-0.1,0-0.2,0-0.3,0
							c0,0.3,0.1,0.5,0.2,0.8c0.1-0.1,0.2-0.1,0.2-0.2c-0.1-0.2-0.1-0.4-0.2-0.6c-0.1,0-0.2,0-0.3,0c0.1,0.2,0.2,0.4,0.2,0.7
							c0.1,0,0.2-0.1,0.2-0.1c0-0.2-0.1-0.5-0.2-0.8C29.6,104.9,29.3,104.9,29.3,105.1L29.3,105.1z"/>
					</g>
				</g>
			</g>
			<g>
				<g>
					<g>
						<path class="st0" d="M29.3,105c-0.1,0.2-0.1,0.4-0.1,0.6c0,0.2,0.3,0.2,0.3,0c0-0.1,0-0.2,0-0.4c0-0.2-0.2-0.2-0.3,0
							c0,0.2-0.1,0.3,0,0.4c0,0.2,0.3,0.2,0.3,0c0-0.2,0-0.2-0.1-0.3s-0.3,0-0.2,0.1c0,0.1,0,0.2,0,0.3c0,0.2,0.3,0.1,0.3,0
							c0-0.2,0-0.3-0.1-0.4c-0.1-0.1-0.2-0.1-0.2,0c-0.1,0.5,0.2,0.8,0.6,1.1c0.4,0.4,0.9,0.7,1.4,1c0.2,0.1,0.3-0.2,0.1-0.2
							c-0.3-0.2-0.7-0.4-1-0.6c-0.3-0.2-1-0.7-0.9-1.1c-0.1,0-0.2,0-0.2,0c0,0.1,0,0.2,0,0.2c0.1,0,0.2,0,0.3,0c0-0.1,0-0.2,0-0.3
							c-0.1,0-0.2,0.1-0.2,0.1c0,0.1,0,0.1,0,0.2c0.1,0,0.2,0,0.3,0c0-0.1,0-0.2,0-0.4c-0.1,0-0.2,0-0.3,0c0,0.1,0,0.2,0,0.4
							c0.1,0,0.2,0,0.3,0c0-0.2,0-0.4,0.1-0.6C29.6,104.9,29.4,104.9,29.3,105L29.3,105z"/>
					</g>
				</g>
			</g>
			<g>
				<path class="st0" d="M94,98.2c-0.1,0-0.1,0-0.2,0l-0.1,0l-0.2,0c-0.7-0.1-1.2-0.8-1.1-1.6L98,63.9c0.2-0.8,0.8-1.2,1.6-1.1
					l0.1,0l0.2,0c0.7,0.2,1.2,0.8,1.1,1.6L95.4,97C95.3,97.7,94.7,98.2,94,98.2z M93.9,96.6L93.9,96.6L93.9,96.6
					C93.9,96.6,93.9,96.6,93.9,96.6z"/>
			</g>
			<g>
				<path class="st0" d="M125.2,67c-0.1,0-0.3,0-0.4,0l-49.5-7.8c-0.8-0.1-1.4-0.5-1.9-1.2c-0.5-0.6-0.6-1.4-0.5-2.2l2.1-13.5
					c0.1-0.8,0.5-1.4,1.2-1.9c0.6-0.5,1.4-0.7,2.2-0.5l49.5,7.8c0.8,0.1,1.5,0.5,1.9,1.2c0.5,0.6,0.6,1.4,0.5,2.2l-2.1,13.5
					C127.8,66,126.6,67,125.2,67z M77.8,40.4c-0.5,0-1,0.2-1.5,0.5c-0.5,0.4-0.9,1-1,1.6L73.2,56c-0.1,0.6,0.1,1.3,0.5,1.8
					c0.4,0.5,1,0.9,1.6,1l49.5,7.8c1.3,0.2,2.6-0.7,2.8-2.1l2.1-13.5c0.1-0.6,0-1.3-0.4-1.8c-0.4-0.5-1-0.9-1.6-1h0l-49.5-7.8
					C78,40.4,77.9,40.4,77.8,40.4z"/>
			</g>
			<g>
				<path class="st0" d="M123.7,65.1c-0.2,0-0.4,0-0.5,0L77.7,58c-1.9-0.3-3.2-2.1-2.9-4l1.3-8.6c0.3-1.9,2.1-3.2,4-2.9l45.5,7.1
					c1.9,0.3,3.2,2.1,2.9,4l-1.3,8.6C126.9,63.9,125.4,65.1,123.7,65.1z M79.6,44c-0.4,0-0.8,0.1-1.1,0.4c-0.4,0.3-0.7,0.7-0.8,1.2
					l-1.3,8.6c-0.1,0.5,0,1,0.4,1.4c0.3,0.4,0.7,0.7,1.2,0.8l45.5,7.1c0.5,0.1,1,0,1.4-0.4c0.4-0.3,0.7-0.7,0.8-1.2l1.3-8.6
					c0.2-1-0.6-2-1.6-2.2l0,0L79.9,44C79.8,44,79.7,44,79.6,44z"/>
			</g>
			<g class="st1">
				<path d="M83,48.1l-0.4,1.8L82,49.8l0.2-1.9L83,48.1z M84.1,48.3l-0.4,1.8L83.1,50l0.2-1.9L84.1,48.3z"/>
				<path d="M84.3,52.9l0.7-4.4l0.9,0.2l-0.3,1.7l1.7,0.3l0.3-1.7l0.9,0.2l-0.7,4.4l-0.9-0.2l0.3-2L85.5,51l-0.3,2L84.3,52.9z"/>
				<path d="M91.3,50.7c0.2,0.1,0.4,0.3,0.5,0.6c0.1,0.2,0.2,0.5,0.1,0.7c0,0.2,0,0.4-0.1,0.7l-2.4-0.4c0,0.3,0,0.6,0.2,0.7
					c0.1,0.1,0.3,0.2,0.5,0.2c0.2,0,0.4,0,0.5-0.1c0.1,0,0.1-0.1,0.2-0.2l0.9,0.1c-0.1,0.2-0.2,0.4-0.4,0.5C91,53.9,90.6,54,90,53.9
					c-0.4-0.1-0.8-0.3-1.1-0.6c-0.3-0.3-0.4-0.8-0.3-1.4c0.1-0.6,0.3-1,0.7-1.2c0.4-0.3,0.8-0.3,1.2-0.3
					C90.9,50.5,91.1,50.6,91.3,50.7z M89.9,51.3c-0.1,0.1-0.2,0.3-0.3,0.5l1.5,0.2c0-0.2,0-0.4-0.1-0.6s-0.3-0.2-0.5-0.3
					C90.2,51.1,90.1,51.2,89.9,51.3z"/>
				<path d="M93,54.3l-0.9-0.1l0.7-4.4l0.9,0.1L93,54.3z"/>
				<path d="M94.7,54.6l-0.9-0.1l0.7-4.4l0.9,0.1L94.7,54.6z"/>
				<path d="M98.3,54.8c-0.3,0.3-0.8,0.4-1.3,0.3c-0.6-0.1-1-0.3-1.2-0.7c-0.2-0.4-0.3-0.8-0.2-1.3c0.1-0.5,0.3-0.9,0.6-1.2
					c0.3-0.3,0.8-0.4,1.3-0.3c0.6,0.1,1,0.3,1.2,0.7c0.2,0.4,0.3,0.8,0.2,1.3C98.8,54.1,98.6,54.5,98.3,54.8z M97.7,54.2
					c0.2-0.2,0.3-0.4,0.3-0.7c0.1-0.3,0-0.6-0.1-0.8c-0.1-0.2-0.3-0.3-0.5-0.4c-0.3,0-0.5,0-0.6,0.2c-0.2,0.2-0.3,0.4-0.3,0.7
					c-0.1,0.3,0,0.6,0.1,0.8c0.1,0.2,0.3,0.3,0.5,0.4C97.3,54.4,97.5,54.3,97.7,54.2z"/>
				<path d="M102.4,51.3l0.2,2.6l0,0.7l0.2-0.7l0.9-2.5l1,0.2l0.1,2.6l0,0.7l0.2-0.7l1-2.5l0.9,0.2l-2,4.2l-0.9-0.1l-0.1-2.7l0-0.9
					l-0.3,0.8l-1,2.5l-0.9-0.1l-0.5-4.6L102.4,51.3z"/>
				<path d="M109.5,56.6c-0.3,0.3-0.8,0.4-1.3,0.3c-0.6-0.1-1-0.3-1.2-0.7c-0.2-0.4-0.3-0.8-0.2-1.3c0.1-0.5,0.3-0.9,0.6-1.2
					c0.3-0.3,0.8-0.4,1.3-0.3c0.6,0.1,1,0.3,1.2,0.7c0.2,0.4,0.3,0.8,0.2,1.3C110,55.9,109.8,56.3,109.5,56.6z M108.9,56
					c0.2-0.2,0.3-0.4,0.3-0.7c0.1-0.3,0-0.6-0.1-0.8c-0.1-0.2-0.3-0.3-0.5-0.4c-0.3,0-0.5,0-0.6,0.2c-0.2,0.2-0.3,0.4-0.3,0.7
					c-0.1,0.3,0,0.6,0.1,0.8c0.1,0.2,0.3,0.3,0.5,0.4C108.5,56.3,108.7,56.2,108.9,56z"/>
				<path d="M112.8,54.1C112.8,54.1,112.9,54.2,112.8,54.1l-0.1,0.9c-0.1,0-0.1,0-0.1,0c0,0-0.1,0-0.1,0c-0.3-0.1-0.6,0-0.8,0.2
					c-0.1,0.1-0.2,0.3-0.2,0.6l-0.3,1.6l-0.9-0.1l0.5-3.3l0.8,0.1l-0.1,0.6c0.2-0.2,0.3-0.3,0.4-0.4
					C112.3,54.1,112.5,54.1,112.8,54.1C112.8,54.1,112.8,54.1,112.8,54.1z"/>
				<path d="M113.7,57.7l-0.9-0.1l0.7-4.4l0.9,0.1L113.7,57.7z"/>
				<path d="M116.8,54.9c0.1,0.1,0.2,0.3,0.3,0.4l0.3-1.6l0.9,0.1l-0.7,4.4l-0.8-0.1l0.1-0.5c-0.2,0.2-0.3,0.3-0.5,0.4
					c-0.2,0.1-0.4,0.1-0.6,0c-0.4-0.1-0.7-0.3-0.9-0.6c-0.2-0.4-0.3-0.8-0.2-1.3c0.1-0.6,0.3-1,0.6-1.3c0.3-0.3,0.7-0.4,1.1-0.3
					C116.5,54.8,116.7,54.8,116.8,54.9z M116.7,57.3c0.2-0.2,0.3-0.4,0.3-0.7c0.1-0.4,0-0.7-0.2-0.9c-0.1-0.1-0.2-0.2-0.4-0.2
					c-0.3,0-0.5,0-0.6,0.2c-0.1,0.2-0.2,0.4-0.3,0.7c-0.1,0.3,0,0.6,0.1,0.8c0.1,0.2,0.3,0.3,0.5,0.4
					C116.3,57.5,116.5,57.5,116.7,57.3z"/>
				<path d="M118.5,57.6l0.9,0.2l-0.1,0.9l-0.9-0.2L118.5,57.6z"/>
				<path d="M121.7,54.5l-0.4,1.8l-0.5-0.1l0.2-1.9L121.7,54.5z M122.8,54.7l-0.4,1.8l-0.5-0.1l0.2-1.9L122.8,54.7z"/>
			</g>
			<g>
				<g>
					<g>
						<path class="st0" d="M126.2,51.3c0.1,0.1,0.2,0.2,0.3,0.3c0.2,0.2,0.6,0.2,0.8,0c0.2-0.2,0.2-0.6,0-0.8c0,0-0.1-0.1-0.1-0.1
							c-0.3,0.3-0.5,0.5-0.8,0.8c0.1,0,0.1,0.1,0.2,0.1c0.2,0.2,0.6,0.2,0.8,0c0.2-0.2,0.2-0.6,0-0.8c0,0,0-0.1-0.1-0.1
							c-0.3,0.3-0.5,0.5-0.8,0.8c0.2,0.2,0.3,0.2,0.5,0.3c0.3,0.1,0.6-0.1,0.7-0.3c0.1-0.3,0-0.5-0.2-0.7c0,0.1,0.1,0.1,0.2,0.2
							c-0.2,0.2-0.4,0.5-0.5,0.7c0,0,0,0,0,0c-0.1,0-0.2,0-0.3-0.1c-0.1,0,0,0,0,0c0,0,0.1,0.1,0.1,0.1c0.3-0.3,0.5-0.5,0.8-0.8
							c0-0.1-0.1-0.1-0.2-0.2c-0.2-0.2-0.6,0-0.8,0.2c-0.2,0.3,0,0.6,0.2,0.8c0,0,0.1,0,0.1,0.1c0.2,0.1,0.5,0.1,0.7-0.1
							c0.2-0.2,0.2-0.4,0.1-0.7c0-0.1-0.1-0.2-0.2-0.2c-0.2-0.2-0.6-0.2-0.8,0c-0.2,0.2-0.2,0.6,0,0.8c0,0,0.1,0.1,0.1,0.1
							c0.2,0.2,0.5,0.2,0.7,0.1c0.2-0.1,0.4-0.4,0.2-0.6c-0.1-0.2-0.2-0.3-0.3-0.4c-0.2-0.1-0.5-0.1-0.7,0.1s-0.2,0.5-0.1,0.7
							c0.1,0.1,0.2,0.2,0.3,0.3c0.2,0.1,0.5,0.1,0.7-0.1c0.2-0.2,0.2-0.4,0.1-0.7c0-0.1-0.1-0.2-0.2-0.2c-0.2-0.2-0.5-0.2-0.7,0
							c-0.2,0.2-0.3,0.5-0.1,0.7c0,0.1,0.1,0.1,0.1,0.2c0.2,0.2,0.5,0.2,0.7,0c0.2-0.2,0.2-0.5,0.1-0.7c0,0,0-0.1,0-0.1
							c-0.2-0.2-0.5-0.4-0.8-0.2c-0.2,0.2-0.4,0.5-0.2,0.8c0,0.1,0.1,0.1,0.1,0.2c0.4,0.4,1.1,0,0.9-0.5c0-0.1-0.1-0.2-0.2-0.3
							c-0.3,0.3-0.5,0.5-0.8,0.8c0,0,0,0,0,0c0.4,0.5,1.2-0.1,0.9-0.7c0,0,0,0,0-0.1c-0.3-0.5-1.2-0.2-1,0.4c0,0.1,0.1,0.2,0.2,0.3
							c0.2,0.2,0.5,0.2,0.7,0.1c0.2-0.1,0.3-0.4,0.2-0.6v0c-0.1-0.5-1-0.5-1.1,0l0,0c0,0.3,0.1,0.6,0.4,0.7l0,0
							c0.3,0.1,0.6-0.1,0.7-0.4c0-0.2,0-0.4-0.2-0.6c-0.2-0.2-0.4-0.2-0.7-0.1l0,0c-0.2,0.1-0.3,0.3-0.3,0.5l0,0
							c0,0.4,0.5,0.7,0.9,0.5l0,0c0.2-0.2,0.4-0.5,0.2-0.8l0,0c-0.3,0.2-0.6,0.4-0.9,0.7c0,0,0,0,0,0c0,0,0,0.1,0,0.1
							c0.1,0.3,0.5,0.4,0.8,0.2c0.3-0.2,0.3-0.5,0.2-0.8c-0.1-0.1-0.2-0.2-0.2-0.4c-0.2-0.2-0.5-0.2-0.7,0c-0.2,0.2-0.3,0.5-0.1,0.7
							l0,0c0.1-0.2,0.1-0.5,0.2-0.8l0,0c0.3,0.2,0.6,0.3,0.9,0.5l0,0c-0.1,0.2-0.2,0.3-0.3,0.5l0,0c-0.2,0-0.4-0.1-0.7-0.1
							c0,0,0-0.1-0.1-0.1c0-0.1,0-0.3-0.1-0.4c0,0,0,0,0,0c0.2-0.1,0.5-0.3,0.7-0.4l0,0c0.1,0.2,0.3,0.5,0.4,0.7l0,0
							c-0.4,0-0.7,0-1.1,0v0c0.3-0.2,0.6-0.4,0.9-0.5l0,0c0,0.1,0.1,0.2,0.1,0.2v0c-0.3,0.1-0.7,0.3-1,0.4c0,0,0,0,0,0.1
							c0.3-0.2,0.6-0.4,0.9-0.7c0,0,0,0,0,0c-0.2-0.2-0.6-0.2-0.8,0c-0.2,0.2-0.2,0.6,0,0.8l0,0c0-0.1-0.1-0.2-0.1-0.2c0,0,0,0,0,0
							c0.3-0.2,0.6-0.4,0.9-0.5c0,0,0,0,0,0c-0.3,0.2-0.7,0.4-1,0.6c0,0,0,0.1,0,0.1c0.3-0.2,0.6-0.4,0.9-0.7c0,0,0,0,0,0
							c-0.3,0.2-0.6,0.4-0.9,0.7c0,0,0,0,0,0c0.2-0.2,0.5-0.5,0.8-0.8c0,0,0.1,0.1,0.1,0.1c-0.2,0.2-0.5,0.5-0.8,0.8c0,0,0,0,0,0
							c0-0.1-0.1-0.2-0.1-0.2c0,0,0,0,0,0c0.3-0.2,0.6-0.4,0.9-0.5c0,0-0.1-0.1-0.1-0.1c-0.3,0.3-0.5,0.5-0.8,0.8c0,0,0,0,0,0
							c0.2-0.2,0.5-0.5,0.8-0.8c0,0-0.1,0-0.1-0.1c-0.2,0.3-0.4,0.7-0.6,1c0,0,0,0,0,0c0.2,0.2,0.6,0.2,0.8,0c0.2-0.2,0.2-0.6,0-0.8
							c-0.2-0.2-0.4-0.4-0.7-0.4c-0.3,0-0.7,0.4-0.5,0.7c0.1,0.2,0.2,0.3,0.4,0.5c0.1-0.3,0.3-0.7,0.4-1c0,0,0,0,0,0c0,0,0,0,0,0
							c-0.2-0.2-0.6-0.2-0.8,0c-0.2,0.2-0.2,0.6,0,0.8c0,0,0,0.1,0.1,0.1c0.3-0.3,0.5-0.5,0.8-0.8c-0.1,0-0.1-0.1-0.2-0.1
							c-0.2-0.2-0.6-0.2-0.8,0c-0.2,0.2-0.2,0.6,0,0.8c0,0,0.1,0.1,0.1,0.1c0.3-0.3,0.5-0.5,0.8-0.8c-0.1-0.1-0.2-0.2-0.3-0.3
							c-0.2-0.2-0.6-0.2-0.8,0C126,50.7,126,51,126.2,51.3L126.2,51.3z"/>
					</g>
				</g>
			</g>
			<g>
				<g>
					<g>
						<path class="st0" d="M127,51.7C127,51.7,127,51.7,127,51.7c0.2,0.2,0.4,0.2,0.6,0.2c0.2,0,0.3-0.2,0.4-0.4l0,0
							c-0.1,0.1-0.3,0.3-0.4,0.4c0,0,0,0,0,0c-0.1,0-0.2,0-0.3,0C127.2,51.8,127.2,51.8,127,51.7c0.2,0.2,0.6,0.4,0.8,0.2
							c0.2-0.2,0.4-0.5,0.2-0.8c0,0-0.1-0.1-0.1-0.2c-0.2-0.2-0.5-0.4-0.8-0.2c-0.2,0.2-0.4,0.5-0.2,0.8C127,51.6,127,51.7,127,51.7
							c0.4-0.2,0.7-0.4,1-0.6c-0.1-0.2-0.3-0.3-0.5-0.3c-0.3,0-0.5,0.1-0.6,0.4c0.3-0.1,0.6-0.2,0.9-0.2c0,0,0,0,0,0
							c-0.1-0.1-0.2-0.2-0.4-0.2c-0.1,0-0.3,0.1-0.4,0.2C126.8,51.1,126.8,51.5,127,51.7L127,51.7z"/>
					</g>
				</g>
			</g>
			<g>
				<g>
					<g>
						<path class="st0" d="M126.6,50.3c-0.2-0.1-0.4-0.1-0.6-0.2c-0.2,0-0.5,0.2-0.5,0.4c0,0.2,0,0.5,0.2,0.6c0.1,0,0.2,0.1,0.3,0.1
							c0.3,0,0.5,0,0.7-0.3c0.1-0.2,0-0.6-0.2-0.7c-0.2-0.1-0.3-0.2-0.5-0.2c-0.3-0.1-0.6,0.1-0.7,0.3s0,0.6,0.2,0.7
							c0.1,0,0.2,0.1,0.2,0.1c0-0.4,0.1-0.7,0.2-1.1c0,0-0.1,0-0.1,0c-0.2,0-0.5,0.2-0.5,0.4c0,0.2,0,0.5,0.2,0.6
							c0.1,0,0.1,0.1,0.2,0.1c0.2,0,0.3,0,0.4-0.1c0.1-0.1,0.2-0.2,0.2-0.3c0.1-0.3-0.1-0.6-0.4-0.7c-0.1,0-0.2,0-0.2-0.1
							c0,0.3,0.1,0.7,0.1,1h0c0.3-0.1,0.4-0.5,0.2-0.8c-0.2-0.3-0.5-0.3-0.8-0.2h0c-0.2,0.1-0.3,0.4-0.3,0.6c0,0.2,0.2,0.4,0.4,0.5
							c0.1,0,0.2,0,0.2,0.1c0.1-0.4,0.2-0.7,0.3-1.1c0,0,0,0,0,0c-0.1,0.4-0.2,0.7-0.3,1.1c0,0,0.1,0,0.1,0c0.3,0,0.5-0.2,0.6-0.5
							c0-0.3-0.1-0.5-0.4-0.6c-0.1,0,0,0,0,0c-0.1,0.3-0.3,0.7-0.4,1c0,0,0.1,0,0.1,0c-0.1,0-0.1,0,0,0c0,0,0.1,0,0.2,0.1
							c0.1-0.3,0.3-0.7,0.4-1c-0.1,0-0.1,0,0,0c-0.1,0.4-0.2,0.7-0.3,1.1c0.1,0,0,0,0,0c0,0,0.1,0,0,0c0.3,0.1,0.6,0.1,0.8-0.2
							C127,50.9,126.9,50.5,126.6,50.3L126.6,50.3z"/>
					</g>
				</g>
			</g>
			<g>
				<g>
					<g>
						<path class="st0" d="M98.9,63.5c0-0.2,0-0.3,0-0.4c0-0.2-0.3-0.1-0.3,0c0,0.1,0,0.3,0,0.4C98.7,63.5,98.7,63.5,98.9,63.5
							c0-0.1-0.1-0.2-0.1-0.3c-0.1,0-0.2,0-0.3,0.1c0,0,0,0.1,0,0.1c0,0.1,0.3,0.1,0.3,0c0-0.2,0-0.2,0-0.3
							c-0.1-0.2-0.3-0.1-0.3,0.1c0,0.1,0,0.1,0,0.2c0.1,0,0.2-0.1,0.2-0.1c-0.1-0.1-0.3-0.3-0.4-0.4c-0.1-0.1-0.2,0-0.2,0.1
							c0,0.2,0.1,0.4,0.1,0.7c0,0.2,0.3,0.1,0.3,0c0-0.2,0-0.4-0.1-0.6c-0.1,0-0.2,0-0.3,0c0,0.2,0.1,0.5,0.1,0.8c0.1,0,0.2,0,0.3,0
							c0-0.3-0.1-0.6-0.1-0.9c-0.1,0-0.2,0-0.3,0c0,0.4,0,0.9,0,1.3c0.1,0,0.2,0,0.3,0c0-0.5,0-1.1-0.3-1.5c-0.1-0.1-0.3,0-0.2,0.1
							c0.3,0.7,0.2,1.6,0.2,2.4c0,0.2,0.2,0.2,0.3,0c0.1-0.4,0.2-0.8,0.3-1.3c0-0.1,0-0.3,0-0.4c0-0.2,0-0.4,0.2-0.2
							c0.1,0.1,0.3-0.1,0.2-0.2c-0.1-0.1-0.1-0.1-0.2-0.2c-0.1,0-0.2,0.1-0.2,0.2C98.7,63.1,98.8,63.3,98.9,63.5
							c0.1,0.2,0.3,0,0.2-0.1C99,63.2,99,63,98.9,62.8c0,0.1-0.1,0.1-0.2,0.2c0,0,0,0,0,0c0.1-0.1,0.1-0.1,0.2-0.2
							c-0.2-0.1-0.4-0.2-0.5,0c-0.1,0.2-0.1,0.7-0.1,1c-0.1,0.4-0.1,0.7-0.2,1.1c0.1,0,0.2,0,0.3,0c0-0.8,0.1-1.7-0.2-2.5
							c-0.1,0-0.2,0.1-0.2,0.1c0.3,0.4,0.3,0.9,0.2,1.4c0,0.2,0.2,0.2,0.3,0c0.1-0.5,0.1-0.9,0-1.4c0-0.2-0.3-0.2-0.3,0
							c0,0.3,0,0.7,0.1,1c0,0.2,0.3,0.1,0.3,0c0-0.3,0-0.6-0.1-0.9c0-0.2-0.3-0.1-0.3,0c0,0.2,0,0.4,0.1,0.6c0.1,0,0.2,0,0.3,0
							c0-0.2-0.1-0.4-0.1-0.7c-0.1,0-0.2,0.1-0.2,0.1c0.1,0.1,0.3,0.3,0.4,0.4c0.1,0.1,0.2,0,0.2-0.1c0-0.1,0-0.2-0.1-0.3
							c-0.1,0-0.2,0-0.3,0.1c0,0.1,0,0.2,0,0.3c0.1,0,0.2,0,0.3,0c0,0,0-0.1,0-0.1c-0.1-0.2-0.3-0.1-0.3,0.1c0,0.1,0.1,0.2,0.1,0.3
							C98.7,63.6,98.9,63.5,98.9,63.5c0-0.2,0-0.3,0-0.4c-0.1,0-0.2,0-0.3,0c0,0.1,0,0.2,0,0.4C98.6,63.6,98.9,63.6,98.9,63.5
							L98.9,63.5z"/>
					</g>
				</g>
			</g>
			<g>
				<g>
					<g>
						<path class="st0" d="M99.1,64.3c0.1,0.6,0.1,1.3,0.4,1.8c0.1,0.1,0.2,0,0.3-0.1c0,0,0,0,0,0c0-0.2-0.3-0.2-0.3,0c0,0,0,0,0,0
							c0.1,0,0.2,0,0.3-0.1c-0.1-0.3-0.1-0.6-0.2-0.9c0-0.3-0.1-0.6-0.1-0.9C99.3,64,99.1,64.1,99.1,64.3L99.1,64.3z"/>
					</g>
				</g>
			</g>
			<g>
				<g>
					<g>
						<path class="st0" d="M100.6,63.1C100.6,63.1,100.6,63.1,100.6,63.1c0,0,0,0.1,0,0.2c0,0,0,0,0,0c-0.1,0-0.1,0-0.2-0.1
							c0,0.1,0,0.1,0,0.2c0,0.1,0.1,0.2,0.2,0.1c0.1-0.1,0.1-0.2,0.2-0.2C100.7,63.2,100.6,63.2,100.6,63.1
							c-0.1,0.2-0.1,0.3-0.2,0.5c0,0.1,0.1,0.2,0.2,0.1c0.1-0.1,0.2-0.2,0.2-0.3c-0.1,0-0.2-0.1-0.2-0.1c-0.1,0.2-0.1,0.4-0.2,0.6
							c0,0.2,0.2,0.2,0.2,0.1c0.1-0.1,0.2-0.2,0.2-0.4c-0.1,0-0.2-0.1-0.2-0.1c-0.1,0.3-0.2,0.6-0.2,0.9c0,0.1,0.2,0.3,0.2,0.1
							c0.1-0.2,0.2-0.4,0.3-0.6c-0.1,0-0.2-0.1-0.2-0.1c-0.1,0.3-0.2,0.7-0.2,1c0,0.2,0.2,0.2,0.3,0.1c0.2-0.5,0.3-1.1,0.8-1.4
							c-0.1-0.1-0.1-0.2-0.2-0.2c-0.4,0.4-0.7,1-0.8,1.6c0.1,0,0.2,0,0.3,0.1c0.1-0.6,0.3-1.1,0.6-1.6c0.1-0.1-0.1-0.3-0.2-0.2
							c-0.1,0.1-0.3,0.2-0.4,0.4c-0.1,0.1,0.1,0.3,0.2,0.2c0.1-0.1,0.2-0.2,0.3-0.4c0.1-0.1-0.1-0.3-0.2-0.2c-0.1,0-0.2,0.1-0.2,0.1
							c0.1,0.1,0.1,0.2,0.2,0.2c0.1-0.1,0.1-0.1,0.2-0.3c0.1-0.1,0-0.2-0.2-0.2c-0.1,0-0.1,0-0.2,0.2c-0.1,0.1,0,0.3,0.2,0.2
							c0.1-0.1,0.2-0.2,0.3-0.2c-0.1,0-0.2-0.1-0.2-0.1c-0.1,0.2-0.1,0.4-0.2,0.6c-0.1,0.1,0.1,0.3,0.2,0.2c0.1-0.1,0.2-0.2,0.3-0.3
							c-0.1-0.1-0.2-0.1-0.2-0.2c-0.2,0.3-0.3,0.7-0.5,1.1c0,0.2,0.2,0.2,0.2,0.1c0.2-0.3,0.3-0.6,0.4-0.9c0.1-0.2-0.2-0.2-0.2-0.1
							c-0.2,0.3-0.3,0.7-0.4,1.1c0,0.2,0.2,0.2,0.3,0.1c0.1-0.3,0.2-0.5,0.3-0.8c-0.1,0-0.2,0-0.3-0.1c-0.1,0.3-0.2,0.6-0.3,0.9
							c0,0.2,0.2,0.2,0.3,0.1c0.1-0.3,0.2-0.6,0.3-0.8c0.1-0.2-0.2-0.2-0.3-0.1c-0.1,0.3-0.2,0.6-0.3,0.9c0.1,0,0.2,0,0.3,0.1
							c0.1-0.5,0.4-1,0.7-1.4c-0.1,0-0.2-0.1-0.2-0.1c-0.3,0.5-0.5,0.9-0.8,1.4c0.1,0,0.2,0.1,0.2,0.1c0.2-0.4,0.4-1.2,0.9-1.4
							c0-0.1-0.1-0.2-0.1-0.2c-0.1,0.1-0.1,0.1-0.2,0.2c-0.1,0.1,0.1,0.3,0.2,0.2c0.1-0.1,0.2-0.2,0.4-0.2c0-0.1-0.1-0.2-0.1-0.2
							c-0.7,0.6-1.1,1.4-1.4,2.2c0.1,0,0.2,0.1,0.2,0.1c0.2-0.5,0.4-1,0.7-1.4c-0.1,0-0.2-0.1-0.2-0.1c-0.2,0.4-0.4,0.8-0.5,1.3
							c-0.1,0.2,0.2,0.2,0.3,0.1c0.1-0.3,0.2-0.6,0.4-0.9c0.1-0.2-0.2-0.2-0.3-0.1c-0.1,0.3-0.2,0.6-0.3,0.9c0.1,0,0.2,0,0.3,0.1
							c0.1-0.3,0.2-0.6,0.3-0.9c-0.1,0-0.2,0-0.3-0.1c-0.1,0.2-0.2,0.5-0.3,0.7c-0.1,0.2,0.2,0.2,0.2,0.1c0.1-0.3,0.3-0.6,0.4-0.9
							c-0.1,0-0.2-0.1-0.2-0.1c-0.1,0.2-0.2,0.5-0.3,0.7c-0.1,0.1,0.2,0.2,0.2,0.1c0.1-0.2,0.2-0.4,0.2-0.7c0-0.2-0.2-0.2-0.3-0.1
							c-0.1,0.4-0.3,0.7-0.4,1.1c-0.1,0.2,0.2,0.2,0.3,0.1c0.1-0.4,0.3-0.7,0.4-1.1c-0.1,0-0.2,0-0.3-0.1c-0.1,0.2-0.1,0.4-0.2,0.6
							c0.1,0,0.2,0.1,0.2,0.1c0.1-0.2,0.2-0.5,0.3-0.7c0.1-0.1-0.2-0.2-0.2-0.1c-0.1,0.3-0.3,0.6-0.4,0.9c0.1,0,0.2,0.1,0.2,0.1
							c0.1-0.2,0.2-0.5,0.3-0.7c0.1-0.2-0.2-0.2-0.3-0.1c-0.1,0.3-0.2,0.6-0.3,0.9c0,0.2,0.2,0.2,0.3,0.1c0.1-0.3,0.2-0.6,0.3-0.9
							c-0.1,0-0.2,0-0.3-0.1c-0.1,0.3-0.2,0.6-0.4,0.9c0.1,0,0.2,0,0.3,0.1c0.2-0.4,0.3-0.8,0.5-1.2c0.1-0.2-0.2-0.3-0.2-0.1
							c-0.3,0.5-0.5,1-0.7,1.5c-0.1,0.2,0.2,0.2,0.2,0.1c0.3-0.8,0.7-1.6,1.4-2.1c0.1-0.1,0-0.3-0.1-0.2c-0.2,0.1-0.3,0.2-0.5,0.3
							c0.1,0.1,0.1,0.1,0.2,0.2c0.1-0.1,0.1-0.1,0.2-0.2c0.1-0.1,0-0.3-0.1-0.2c-0.6,0.2-0.8,1-1,1.5c-0.1,0.2,0.2,0.3,0.2,0.1
							c0.2-0.5,0.5-1,0.8-1.4c0.1-0.2-0.1-0.3-0.2-0.1c-0.3,0.4-0.6,0.9-0.7,1.5c0,0.2,0.2,0.2,0.3,0.1c0.1-0.3,0.2-0.6,0.3-0.9
							c-0.1,0-0.2,0-0.3-0.1c-0.1,0.3-0.2,0.6-0.3,0.8c0.1,0,0.2,0,0.3,0.1c0.1-0.3,0.2-0.6,0.3-0.9c0-0.2-0.2-0.2-0.3-0.1
							c-0.1,0.3-0.2,0.5-0.3,0.8c0.1,0,0.2,0,0.3,0.1c0.1-0.3,0.2-0.7,0.4-1c-0.1,0-0.2-0.1-0.2-0.1c-0.1,0.3-0.2,0.6-0.4,0.8
							c0.1,0,0.2,0.1,0.2,0.1c0.1-0.3,0.3-0.7,0.4-1c0.1-0.1-0.1-0.3-0.2-0.2c-0.1,0.1-0.2,0.2-0.3,0.3c0.1,0.1,0.2,0.1,0.2,0.2
							c0.1-0.2,0.2-0.4,0.2-0.7c0-0.2-0.1-0.2-0.2-0.1c-0.1,0.1-0.2,0.1-0.3,0.2c0.1,0.1,0.1,0.2,0.2,0.2c0,0,0.1,0,0.1-0.1
							c0-0.1-0.1-0.1-0.2-0.2c0,0.1-0.1,0.1-0.1,0.2c-0.1,0.1,0,0.3,0.2,0.2c0.1,0,0.2-0.1,0.2-0.1c-0.1-0.1-0.1-0.1-0.2-0.2
							c0,0.1-0.1,0.2-0.2,0.3c0.1,0.1,0.1,0.1,0.2,0.2c0.1-0.1,0.3-0.2,0.4-0.4c-0.1-0.1-0.2-0.1-0.2-0.2c-0.3,0.5-0.5,1-0.6,1.6
							c0,0.2,0.2,0.2,0.3,0.1c0.2-0.5,0.3-1.1,0.8-1.5c0.1-0.1,0-0.3-0.2-0.2c-0.5,0.4-0.7,1-0.9,1.5c0.1,0,0.2,0,0.3,0.1
							c0.1-0.3,0.2-0.7,0.2-1c0-0.2-0.2-0.2-0.2-0.1c-0.1,0.2-0.2,0.4-0.3,0.6c0.1,0,0.2,0.1,0.2,0.1c0-0.3,0.1-0.6,0.2-0.9
							c0-0.2-0.2-0.2-0.2-0.1c-0.1,0.1-0.1,0.2-0.2,0.4c0.1,0,0.2,0.1,0.2,0.1c0-0.2,0.1-0.4,0.2-0.6c0-0.2-0.2-0.2-0.2-0.1
							c0,0.1-0.1,0.2-0.2,0.3c0.1,0,0.2,0.1,0.2,0.1c0-0.1,0.1-0.3,0.1-0.4C100.8,63.1,100.6,63,100.6,63.1
							c-0.2,0.1-0.2,0.2-0.3,0.3c0.1,0,0.2,0.1,0.2,0.1C100.6,63.3,100.7,63.2,100.6,63.1c0-0.1-0.1-0.1-0.2-0.1c0,0,0,0,0,0
							c-0.1,0-0.1,0.1,0,0.2l0,0C100.4,63.4,100.7,63.2,100.6,63.1L100.6,63.1z"/>
					</g>
				</g>
			</g>
			<g>
				<g>
					<g>
						<path class="st0" d="M97.4,62.7c0.8,0.5,0.7,1.8,0.7,2.6c0,0.2,0.3,0.2,0.3,0c-0.1-1,0-2.2-0.9-2.8
							C97.4,62.3,97.2,62.6,97.4,62.7L97.4,62.7z"/>
					</g>
				</g>
			</g>
			<g>
				<g>
					<g>
						<path class="st0" d="M97.8,62.8c0,0.1,0.1,0.2,0.1,0.3C98,63,98,63,98.1,63c0,0,0,0,0,0c-0.1,0-0.2,0-0.3,0
							c0.1,0.2,0.1,0.4,0.1,0.7c0,0.2,0.3,0.2,0.3,0c0-0.2-0.1-0.5-0.1-0.7c0-0.1-0.3-0.1-0.3,0c0,0.1,0,0.1,0,0.2
							c0.1,0.1,0.3,0,0.2-0.1c0-0.1-0.1-0.2-0.1-0.3C98,62.5,97.7,62.6,97.8,62.8L97.8,62.8z"/>
					</g>
				</g>
			</g>
			<g>
				<g>
					<g>
						<path class="st0" d="M97.2,62.6c0.9,0.5,0.9,1.8,0.8,2.7c0,0.2,0.3,0.2,0.3,0c0-1,0-2.4-0.9-2.9C97.2,62.3,97,62.6,97.2,62.6
							L97.2,62.6z"/>
					</g>
				</g>
			</g>
			<g>
				<g>
					<g>
						<path class="st0" d="M102.1,63.1c-0.5,0-0.9,0.3-1.2,0.7c0.1,0.1,0.1,0.1,0.2,0.2c0.2-0.3,0.6-0.5,0.9-0.6
							c0-0.1-0.1-0.2-0.1-0.2c-0.8,0.4-1.3,1.2-1.7,2c-0.1,0.2,0.2,0.3,0.2,0.1c0.3-0.8,0.8-1.5,1.6-1.9c0.2-0.1,0-0.3-0.1-0.2
							c-0.4,0.1-0.8,0.3-1.1,0.7c-0.1,0.1,0.1,0.3,0.2,0.2c0.3-0.3,0.6-0.6,1-0.6C102.3,63.4,102.3,63.1,102.1,63.1L102.1,63.1z"/>
					</g>
				</g>
			</g>
			<g>
				<path class="st0" d="M34.3,109.1c0,0,2.2-2.5,5.3-2l-0.4-7.1l-2.9,1l-2,0.7l-2.1,0.9l-1.7,0.6l-0.9,0.9l-0.1,1.2v0.8l0.7,0.6
					l0.9,0.7L34.3,109.1z"/>
			</g>
			<g>
				<g>
					<g>
						<path class="st0" d="M32.5,102.7L32.5,102.7c-0.3,0-0.6,0.2-0.6,0.6c0,0,0,0,0,0c0,0.4,0.4,0.7,0.9,0.5
							c0.2-0.1,0.4-0.4,0.7-0.5c0.6-0.3,0.2-1.2-0.4-1c-0.3,0.1-0.4,0.1-0.7,0.2c-0.6,0.3-0.2,1.2,0.4,1c0.1,0,0.2-0.1,0.4-0.1
							c-0.1-0.4-0.2-0.7-0.3-1.1c-0.1,0-0.2,0.1-0.2,0.1c0.1,0.3,0.3,0.7,0.4,1c1.3-0.8,2.8-1.2,4.3-1.6c-0.1-0.4-0.2-0.7-0.3-1.1
							c-0.8,0.2-1.6,0.6-2.3,1.1c-0.6,0.4,0,1.4,0.6,1c0.7-0.4,1.3-0.8,2-1c0.7-0.2,0.4-1.3-0.3-1.1c-1.6,0.4-3.2,0.9-4.6,1.7
							c-0.5,0.3-0.2,1.3,0.4,1c0.1,0,0.2-0.1,0.2-0.1c0.7-0.3,0.4-1.3-0.3-1.1c-0.1,0-0.2,0.1-0.4,0.1c0.1,0.3,0.3,0.7,0.4,1
							c0.1,0,0.3-0.1,0.4-0.1c-0.1-0.3-0.3-0.7-0.4-1c-0.2,0.1-0.4,0.4-0.7,0.5c0.3,0.2,0.6,0.3,0.9,0.5c0,0,0,0,0,0
							c-0.2,0.2-0.4,0.4-0.6,0.6h0C33.2,103.8,33.2,102.7,32.5,102.7L32.5,102.7z"/>
					</g>
				</g>
			</g>
			<g>
				<g>
					<g>
						<path class="st0" d="M32.9,104c0.3-0.1,0.6-0.3,0.9-0.4c0.6-0.3,0.2-1.2-0.4-1c-0.3,0.1-0.6,0.2-0.9,0.3
							c0.1,0.3,0.3,0.7,0.4,1c0.2-0.1,0.5-0.3,0.7-0.4c0.6-0.4,0.2-1.1-0.4-1c-0.2,0-0.3,0-0.5,0.1c0.1,0.4,0.2,0.7,0.3,1.1
							c0.3-0.2,0.5-0.3,0.9-0.5c0.7-0.3,0.4-1.3-0.3-1.1c-0.3,0.1-0.7,0.2-1,0.3c0.1,0.3,0.3,0.7,0.4,1c0.2-0.1,0.4-0.2,0.6-0.3
							c-0.1-0.4-0.2-0.7-0.3-1.1c-0.2,0.1-0.4,0.1-0.5,0.2c0.1,0.3,0.3,0.7,0.4,1c1.2-0.6,2.5-0.7,3.7-1.2c0.6-0.3,0.2-1.2-0.4-1
							c-0.6,0.2-1.1,0.4-1.7,0.5c0.1,0.4,0.2,0.7,0.3,1.1c0.6-0.2,1.2-0.4,1.9-0.6c0.7-0.2,0.4-1.2-0.3-1.1
							c-0.7,0.1-1.3,0.3-1.9,0.6c-0.7,0.3-0.4,1.3,0.3,1.1c0.6-0.2,1.1-0.4,1.7-0.5c-0.1-0.3-0.3-0.7-0.4-1c-0.6,0.3-1.3,0.3-2,0.5
							c-0.6,0.2-1.1,0.4-1.7,0.7c-0.6,0.3-0.2,1.2,0.4,1c0.2,0,0.4-0.1,0.5-0.2c0.7-0.2,0.4-1.3-0.3-1.1c-0.3,0.1-0.6,0.2-0.8,0.4
							c-0.5,0.3-0.2,1.2,0.4,1c0.3-0.1,0.7-0.2,1-0.3c-0.1-0.4-0.2-0.7-0.3-1.1c-0.4,0.2-0.8,0.3-1.1,0.6c-0.4,0.3-0.3,1.1,0.3,1.1
							c0.3,0,0.5-0.1,0.8-0.1c-0.1-0.3-0.3-0.7-0.4-1c-0.2,0.1-0.5,0.3-0.7,0.4C31.9,103.2,32.2,104.1,32.9,104
							c0.2-0.1,0.5-0.2,0.8-0.3c-0.1-0.3-0.3-0.7-0.4-1c-0.3,0.1-0.6,0.3-0.9,0.4C31.7,103.3,32.2,104.2,32.9,104L32.9,104z"/>
					</g>
				</g>
			</g>
			<g>
				<g>
					<g>
						<path class="st0" d="M34.7,108.1c0.3-0.1,0.5-0.3,0.8-0.4c-0.2-0.3-0.4-0.6-0.7-0.9c-0.2,0.2-0.4,0.4-0.6,0.7
							c-0.4,0.4,0,1,0.5,0.9c0.2,0,0.3-0.1,0.5-0.2c-0.2-0.3-0.4-0.6-0.7-0.9c-0.2,0.2-0.3,0.3-0.4,0.5c-0.3,0.5,0.3,1,0.8,0.8
							c0,0,0.1,0,0.1-0.1c-0.2-0.2-0.5-0.5-0.8-0.8c0,0-0.1,0.1-0.2,0.2c-0.5,0.4,0.2,1.3,0.7,0.9c0.1,0,0.1-0.1,0.2-0.1
							c-0.2-0.2-0.5-0.5-0.8-0.8c0,0,0.1-0.1,0.1-0.1c0.2,0.3,0.4,0.6,0.5,0.9c0.6-0.6,1.3-1,2-1.4c-0.2-0.3-0.4-0.7-0.6-1
							c-0.4,0.3-0.9,0.6-1.3,0.8c-0.6,0.4-0.1,1.3,0.6,1c0.6-0.3,1.2-0.6,1.8-1c0.6-0.4,0.1-1.3-0.6-1c-0.4,0.2-0.8,0.4-1.1,0.6
							c-0.7,0.4-0.1,1.3,0.6,1c0.7-0.3,1.3-0.6,2-0.8c-0.1-0.4-0.2-0.7-0.3-1.1c-0.4,0.2-0.9,0.3-1.3,0.5c-0.6,0.2-0.5,1.1,0.2,1.1
							c0.8,0,1.6-0.5,2.3-0.4c0-0.4,0-0.7,0-1.1c-0.1,0-0.2,0-0.3,0.1c-0.6,0.2-0.5,0.9,0,1.1c0.2,0.1,0.4,0,0.7-0.1
							c0.7-0.3,0.1-1.3-0.6-1c0.1,0,0.1,0,0.2,0c0,0.4,0,0.7,0,1.1c0.1,0,0.2,0,0.3-0.1c0.5-0.1,0.6-1,0-1.1
							c-0.9-0.2-1.7,0.4-2.6,0.4c0,0.4,0.1,0.7,0.2,1.1c0.4-0.2,0.9-0.3,1.3-0.5c0.7-0.3,0.4-1.3-0.3-1.1c-0.8,0.3-1.5,0.6-2.3,0.9
							c0.2,0.3,0.4,0.7,0.6,1c0.4-0.2,0.8-0.4,1.1-0.6c-0.2-0.3-0.4-0.7-0.6-1c-0.6,0.4-1.2,0.7-1.8,1c0.2,0.3,0.4,0.7,0.6,1
							c0.4-0.3,0.9-0.6,1.3-0.8c0.6-0.4,0.1-1.3-0.6-1c-0.8,0.5-1.6,1-2.3,1.6c-0.4,0.4,0,1.1,0.5,0.9c0.3-0.1,0.4-0.2,0.5-0.4
							c0.3-0.4-0.3-1.1-0.8-0.8c-0.1,0-0.1,0.1-0.2,0.1c0.2,0.3,0.4,0.6,0.7,0.9c0.2-0.1,0.2-0.2,0.3-0.4c0.3-0.5-0.3-1-0.8-0.8
							c0,0-0.1,0-0.1,0.1c0.2,0.2,0.5,0.5,0.8,0.8c0.1-0.1,0.2-0.2,0.3-0.3c0.5-0.5-0.1-1.1-0.7-0.9c-0.1,0-0.1,0-0.2,0
							c0.2,0.3,0.4,0.6,0.5,0.9c0.2-0.2,0.4-0.4,0.6-0.7c0.5-0.5-0.1-1.2-0.7-0.9c-0.3,0.1-0.5,0.3-0.8,0.4
							C33.5,107.4,34.1,108.4,34.7,108.1L34.7,108.1z"/>
					</g>
				</g>
			</g>
			<g>
				<g>
					<g>
						<path class="st0" d="M39.3,106.4C39.3,106.4,39.3,106.5,39.3,106.4c0,0.2,0,0.3,0,0.4c0,0.1-0.1,0.1-0.1,0.2
							c0.1-0.1,0.2-0.3,0.2-0.4c0-0.1-0.1-0.3-0.2-0.4c-0.1-0.1-0.2-0.2-0.4-0.2c-0.2,0-0.3,0.1-0.4,0.2c-0.2,0.2-0.2,0.6-0.1,0.8
							c0.2,0.2,0.5,0.4,0.8,0.2C39.3,107,39.4,106.7,39.3,106.4L39.3,106.4z"/>
					</g>
				</g>
			</g>
			<g>
				<path class="st0" d="M97.5,109.2l1.2-0.3l1.6-0.7l1-0.9l0.8-0.8l0.6-0.6v-1l-0.5-1.1l-2.9-1.4l-2.3-0.9c0,0-2.9-0.8-3.1-0.9
					c-0.1,0-2-0.5-2-0.5l0.1,6.8C91.9,106.8,95.9,106.4,97.5,109.2z"/>
			</g>
			<g>
				<g>
					<g>
						<path class="st0" d="M92.8,100.5c-0.1-0.1-0.3-0.2-0.4-0.3c0,0.1-0.1,0.2-0.1,0.2C92.5,100.5,92.7,100.5,92.8,100.5
							c0.1,0,0.1-0.1,0.2-0.2c-0.3,0-0.5-0.2-0.7-0.3c0,0.1-0.1,0.2-0.1,0.2c0.5,0.1,0.9,0.2,1.4,0.3c0-0.1,0-0.2,0-0.3
							c-0.4,0-0.7-0.1-1.1-0.2c-0.2-0.1-0.2,0.2-0.1,0.3c1.5,0.5,3,0.6,4.5,1.2c1.5,0.6,3.7,1.4,4.7,2.7c0.1-0.1,0.2-0.1,0.2-0.2
							c-1.4-1.1-2.9-1.9-4.5-2.5c0,0.1,0,0.2-0.1,0.3c0.8,0.2,1.6,0.4,2.3,0.7c0.2,0.1,0.3-0.2,0.1-0.2c-0.4-0.2-0.8-0.4-1.3-0.6
							c-0.2-0.1-0.3,0.1-0.1,0.2c0.4,0.3,0.8,0.7,1.2,1.1c0.1,0.1,0.3-0.1,0.2-0.2c-0.4-0.4-0.8-0.8-1.3-1.1c0,0.1-0.1,0.2-0.1,0.2
							c0.4,0.2,0.8,0.4,1.3,0.6c0-0.1,0.1-0.2,0.1-0.2c-0.8-0.3-1.6-0.6-2.4-0.8c-0.2,0-0.2,0.2-0.1,0.3c1.6,0.6,3,1.4,4.4,2.5
							c0.1,0.1,0.3,0,0.2-0.2c-1-1.3-2.8-1.9-4.3-2.6c-1.6-0.7-3.4-0.9-5.1-1.4c0,0.1,0,0.2-0.1,0.3c0.4,0.1,0.7,0.2,1.1,0.2
							c0.2,0,0.2-0.2,0-0.3c-0.5-0.1-0.9-0.2-1.4-0.3c-0.2,0-0.2,0.2-0.1,0.2c0.3,0.2,0.5,0.3,0.8,0.3c0.2,0,0.3-0.2,0.1-0.2
							c-0.4-0.2-0.2-0.1-0.7-0.2c-0.1,0-0.2,0.1-0.1,0.2c0.1,0.1,0.3,0.2,0.4,0.3C92.7,100.8,92.9,100.6,92.8,100.5L92.8,100.5z"/>
					</g>
				</g>
			</g>
			<g>
				<g>
					<g>
						<path class="st0" d="M102.5,105.6c0.1,0,0.2-0.1,0.3-0.1c0-0.1-0.1-0.2-0.1-0.2c0,0-0.1,0-0.1,0.1c-0.2,0.1,0,0.3,0.1,0.2
							c0,0,0.1,0,0.1-0.1c0.2-0.1,0-0.3-0.1-0.2c-0.1,0-0.2,0.1-0.3,0.1C102.2,105.4,102.4,105.6,102.5,105.6L102.5,105.6z"/>
					</g>
				</g>
			</g>
			<g>
				<g>
					<g>
						<path class="st0" d="M29.6,105.3c-0.1,0-0.2,0-0.3,0c0,0.1,0,0.2,0,0.3C29.4,105.6,29.5,105.5,29.6,105.3
							c0-0.2,0.1-0.4,0.2-0.6c0-0.2-0.2-0.2-0.2-0.1c-0.2,0.2-0.2,0.5-0.2,0.8C29.4,105.4,29.4,105.4,29.6,105.3
							c0-0.1-0.2-0.2-0.4,0s0.1,0.3,0.2,0.3c0-0.1-0.1-0.2-0.1-0.2c0,0-0.1,0-0.2,0.1c-0.1,0.1-0.1,0.3,0.1,0.3c0.3,0,0.6,0,0.9,0
							c0.2,0,0.2-0.3,0-0.3c-0.3,0-0.6,0-0.9,0c0,0.1,0,0.2,0.1,0.3c0,0,0.1,0,0.2-0.1c0.1-0.1,0-0.3-0.1-0.2c0,0,0,0,0.1,0
							c0,0,0,0.1,0,0.1v0c0,0,0,0.1-0.1,0.1l0,0c0,0-0.1,0-0.1,0l0,0c0,0,0-0.1,0-0.1v0c0,0.2,0.3,0.2,0.3,0c0-0.2,0-0.4,0.2-0.7
							c-0.1,0-0.2-0.1-0.2-0.1c0,0.1-0.1,0.2-0.1,0.3c0,0.1-0.1,0.3-0.1,0.4c0,0,0.1,0,0.1,0c0,0,0,0,0,0c-0.2,0-0.2,0.3,0,0.3
							c0.1,0,0.2,0,0.4,0C29.8,105.6,29.7,105.3,29.6,105.3L29.6,105.3z"/>
					</g>
				</g>
			</g>
			<g>
				<polygon class="st0" points="91.8,110.3 98.7,108.9 96.2,104.1 91.7,104.1 				"/>
			</g>
		</g>
		<g>
			<g>
				<path class="st0" d="M19.4,48.3c0-1,2-2.1,5.5-2.9c0-0.1,0-0.2,0-0.2c-3.6,0.8-5.7,1.9-5.7,3.1c0,0.9,1,1.6,3,2.4l0,0
					c0.1-0.1,0.1-0.2,0.2-0.2c0-0.1,0.1-0.1,0.1-0.2c-0.1,0.1-0.2,0.2-0.3,0.2C20.3,49.7,19.4,49,19.4,48.3z"/>
			</g>
			<g>
				<path class="st0" d="M55.2,45c0,0.1,0,0.2,0,0.2c0,0,0,0,0,0c3.9,0.8,6.1,1.9,6.1,3c0,0.7-0.9,1.4-2.8,2.1
					c0-0.1-0.1-0.2-0.2-0.2c0.1,0.1,0.1,0.2,0.2,0.2c0,0.1,0.1,0.2,0.1,0.2c1.9-0.7,2.9-1.5,2.9-2.3C61.5,47,59.1,45.9,55.2,45z"/>
			</g>
			<g>
				<path class="st0" d="M55.4,51.2c-4,0.8-9.4,1.3-15,1.3c-5.8,0-11.1-0.5-15.1-1.3c0-0.1,0-0.2,0-0.2c-0.1,0.1-0.1,0.2-0.2,0.3
					c0,0,0,0.1-0.1,0.1h0c4,0.9,9.5,1.4,15.3,1.4c5.7,0,11.2-0.5,15.2-1.3C55.5,51.4,55.4,51.3,55.4,51.2z"/>
			</g>
			<g>
				<path class="st0" d="M52.9,30c-1.4-2.6-4-4.3-6.8-5.1c-1.8-0.5-3.6-0.5-5.3-0.4c-1.9,0.1-3.9,0.3-5.8,0.6
					c-3,0.4-5.7,1.8-7.5,4.2c-2,2.5-2.7,5.7-2.9,8.8c-0.3,4.4,0.4,8.7,0.4,13.1c0,0.2,0.3,0.2,0.3,0c0-3.6-0.5-7.3-0.5-10.9
					c0-3.2,0.4-6.5,1.9-9.3c1.5-2.7,4.1-4.7,7.1-5.4c1.7-0.4,3.5-0.5,5.2-0.6c1.7-0.2,3.4-0.3,5.1-0.1c3.4,0.4,6.9,2.2,8.6,5.3
					C52.8,30.4,53,30.2,52.9,30L52.9,30z"/>
			</g>
			<g>
				<path class="st0" d="M34.8,25.5c0.2,0,0.2-0.3,0-0.3C34.6,25.2,34.6,25.5,34.8,25.5L34.8,25.5z"/>
			</g>
			<g>
				<path class="st0" d="M25.2,34c-1.1-0.1-2.1-0.6-2.6-1.6c-0.5-1-0.3-2.2,0.3-3.1c0.6-0.8,1.5-1.3,2.5-1.5
					c0.9-0.2,2.2-0.1,2.9,0.7c0.1,0.1,0.3-0.1,0.2-0.2c-0.7-0.9-2-0.9-3-0.8c-1.2,0.2-2.3,0.9-2.9,1.8c-0.6,1-0.7,2.2-0.2,3.2
					c0.5,1.1,1.7,1.7,2.9,1.8C25.4,34.3,25.4,34,25.2,34L25.2,34z"/>
			</g>
			<g>
				<path class="st0" d="M50.8,27.6c1.6-0.9,4.3-1.3,5.4,0.5c1.1,1.8,0.5,4.7-1.8,5.1c-0.2,0-0.1,0.3,0.1,0.3
					c2.5-0.4,3.2-3.4,2.1-5.4c-1.2-2.1-4.1-1.7-5.9-0.8C50.5,27.5,50.6,27.7,50.8,27.6L50.8,27.6z"/>
			</g>
			<g>
				<path class="st0" d="M37.8,36.6c0,0,0.1,0,0.1,0c0,0,0-0.1,0-0.1c-0.1,0.1-0.3,0.1-0.4,0.1c-0.2,0.1-0.5,0.3-0.7,0.4
					c-0.4,0.3-0.8,0.7-1,1.2c-0.4,1.1,0.9,1.7,1.8,1.6c0.8-0.1,1.5-0.4,2.2-0.5c0.7-0.1,1.4,0.2,2.1,0.4c0.9,0.2,1.9-0.3,1.7-1.4
					c-0.2-1.2-1.6-1.8-2.6-2.1c-0.1,0-0.1,0.1,0,0.1c1,0.4,2.8,1.1,2.4,2.5c-0.3,1-1.2,0.8-2,0.6c-0.5-0.2-1-0.3-1.6-0.2
					c-0.7,0.1-1.3,0.3-2,0.5c-0.7,0.1-2.2-0.1-2.1-1.2c0.1-0.6,0.7-1.2,1.2-1.5c0.2-0.1,0.3-0.2,0.5-0.3c0.1,0,0.3,0,0.3-0.1
					c0,0,0-0.1,0-0.1s-0.1,0-0.2,0C37.6,36.5,37.7,36.6,37.8,36.6L37.8,36.6z"/>
			</g>
			<g>
				<path class="st0" d="M41.6,39.6c0.2,0.7,0.4,1.6,0.1,2.2c-0.2,0.5-0.9,0.9-1.4,0.5c-0.2-0.2-0.3-0.4-0.4-0.7
					c0-0.1-0.2,0-0.1,0.1c0.2,0.3,0.2,0.7,0.6,0.8c0.3,0.2,0.8,0.1,1.1-0.1c0.9-0.6,0.6-2.1,0.3-2.9C41.7,39.5,41.6,39.6,41.6,39.6
					L41.6,39.6z"/>
			</g>
			<g>
				<path class="st0" d="M55.2,49.2c0.4,0.2,0.9,0,1.2,0.1c0.8,0.2,1.6,0.6,2,1.4c0.4,0.9,0,1.9-1.1,1.7c-0.8-0.1-1.4-0.7-2-1.3
					c-0.1-0.1-0.2,0-0.1,0.1c0.6,0.6,1.3,1.2,2.2,1.3c0.7,0.1,1.1-0.3,1.2-0.9c0.1-0.8-0.3-1.5-1-1.9c-0.4-0.3-0.9-0.5-1.4-0.6
					c-0.3,0-0.8,0.1-1.1,0C55.2,49.1,55.1,49.2,55.2,49.2L55.2,49.2z"/>
			</g>
			<g>
				<path class="st0" d="M56.9,51.2c0.5,0.2,1.2,0.6,0.9,1.3c0,0.1,0.1,0.2,0.1,0.1c0.4-0.7-0.3-1.3-0.9-1.5
					C56.9,51,56.8,51.1,56.9,51.2L56.9,51.2z"/>
			</g>
			<g>
				<path class="st0" d="M45.6,36.6c-2.7,0-4.9-2.2-4.9-4.9s2.2-4.9,4.9-4.9s4.9,2.2,4.9,4.9S48.3,36.6,45.6,36.6z M45.6,27.2
					c-2.5,0-4.5,2-4.5,4.5s2,4.5,4.5,4.5s4.5-2,4.5-4.5S48.1,27.2,45.6,27.2z"/>
			</g>
			<g>
				<path class="st0" d="M33.7,37.1c-2.7,0-4.9-2.2-4.9-4.9s2.2-4.9,4.9-4.9s4.9,2.2,4.9,4.9S36.4,37.1,33.7,37.1z M33.7,27.7
					c-2.5,0-4.5,2-4.5,4.5s2,4.5,4.5,4.5c2.5,0,4.5-2,4.5-4.5S36.2,27.7,33.7,27.7z"/>
			</g>
			<g>
				<path class="st0" d="M54.6,29.9c0-0.5-0.4-1-1-1s-1,0.4-1,1s0.4,1,1,1C54.2,30.9,54.6,30.4,54.6,29.9z"/>
			</g>
			<g>
				<circle class="st0" cx="25.6" cy="30.8" r="1"/>
			</g>
			<g>
				<path class="st0" d="M41.8,36.1c0-0.7-0.9-1.2-2.1-1.2c-1.2,0-2.1,0.5-2.1,1.2c0,0.7,0.9,1.2,2.1,1.2
					C40.9,37.3,41.8,36.7,41.8,36.1z"/>
			</g>
			<g>
				<path class="st0" d="M44.7,33.1c0,0.9,0.7,1.5,1.5,1.5c0.9,0,1.5-0.7,1.5-1.5c0-0.9-0.7-1.5-1.5-1.5
					C45.4,31.6,44.7,32.3,44.7,33.1z M47.2,32.5c0,0.2-0.2,0.4-0.4,0.4c-0.2,0-0.4-0.2-0.4-0.4c0-0.2,0.2-0.4,0.4-0.4
					S47.2,32.3,47.2,32.5z"/>
			</g>
			<g>
				<path class="st0" d="M33,33.6c0,0.9,0.7,1.5,1.5,1.5c0.9,0,1.5-0.7,1.5-1.5c0-0.9-0.7-1.5-1.5-1.5C33.7,32.1,33,32.7,33,33.6z
					 M35.5,33c0,0.2-0.2,0.4-0.4,0.4c-0.2,0-0.4-0.2-0.4-0.4c0-0.2,0.2-0.4,0.4-0.4C35.3,32.5,35.5,32.7,35.5,33z"/>
			</g>
			<g>
				<path class="st0" d="M39.8,39.3c0.1,0.6,0.1,1.4,0,2c0,0.4-0.1,0.8-0.4,1.1c-0.3,0.3-0.9,0.3-1.2,0c-0.7-0.6-0.4-1.9-0.2-2.7
					c0-0.1-0.1-0.1-0.1,0c-0.2,0.9-0.5,2.7,0.7,3c0.6,0.2,1-0.1,1.2-0.7c0.2-0.4,0.2-0.9,0.2-1.4c0-0.4,0-0.9,0-1.3
					C39.9,39.2,39.8,39.2,39.8,39.3L39.8,39.3z"/>
			</g>
			<g>
				<path class="st0" d="M25,49.4c-1.1-0.2-2.2,0.3-3,1c-0.5,0.5-0.9,1.3-0.1,1.7c0.1,0,0.2-0.1,0.1-0.1c-0.9-0.5,0-1.4,0.6-1.8
					c0.7-0.5,1.5-0.8,2.4-0.6C25.1,49.6,25.1,49.4,25,49.4L25,49.4z"/>
			</g>
			<g>
				<path class="st0" d="M22.8,51.4c-0.3,0.2-0.7,0.4-0.7,0.8c0,0.4,0.4,0.6,0.7,0.6c0.9,0.2,1.9-0.9,2.4-1.5c0-0.1-0.1-0.2-0.1-0.1
					c-0.4,0.5-0.9,1-1.5,1.3c-0.3,0.2-1,0.3-1.2-0.1c-0.2-0.4,0.3-0.7,0.6-0.9C23,51.4,22.9,51.3,22.8,51.4L22.8,51.4z"/>
			</g>
			<g>
				<path class="st0" d="M52.4,29.7c2.2,2.8,2.2,6.6,2.4,10c0.2,3.8,0.1,7.7,0.2,11.6c0,0.2,0.3,0.2,0.3,0
					c-0.2-4.1-0.1-8.2-0.3-12.2c-0.1-3.3-0.3-6.8-2.4-9.5C52.5,29.4,52.3,29.6,52.4,29.7L52.4,29.7z"/>
			</g>
			<g>
				<path class="st0" d="M61.7,48.3c-0.1-1.7-0.8-3.2-1.9-4.4c0,0-0.1,0.1-0.1,0.1c1.4,0.9,1.7,2.7,2.8,3.8c0,0,0.1,0,0.1,0
					c0-0.7,0.1-1.3,0.5-1.8c0,0-0.1,0-0.1,0c0,0.5,0,1,0,1.5c0,0,0,0.1,0.1,0.1c0.2-0.1,0.4-0.2,0.6-0.4c0,0-0.1,0-0.1-0.1
					c-0.1,0.2-0.1,0.4-0.2,0.6c0,0,0,0.1,0.1,0.1c0.4-0.1,0.7-0.3,1-0.6c0,0-0.1-0.1-0.1-0.1c-0.2,0.3-0.3,0.6-0.4,0.9
					c0,0,0,0.1,0,0.1c0.6,0.2,0.2,0.8,0,1c0,0,0,0.1,0.1,0.1c1.3,0.1,2.5,0.2,3.8,0.2c0.1,0,0.1-0.1,0-0.2c-0.6,0-1.3,0-1.9-0.1
					c-0.3,0-0.7,0-1-0.1c-0.2,0-0.7,0-0.7-0.2c0-0.3,0.3-0.4,0.1-0.7c0-0.1-0.2-0.2-0.2-0.2c-0.1-0.2,0.2-0.7,0.3-0.9
					c0-0.1,0-0.2-0.1-0.1c-0.2,0.1-0.4,0.3-0.6,0.4c-0.4,0.2-0.2-0.1-0.1-0.4c0-0.1-0.1-0.1-0.1-0.1c-0.4,0.4-0.4,0.1-0.4-0.2
					c0-0.3,0-0.6,0-0.9c0-0.1-0.1-0.1-0.1,0c-0.4,0.6-0.6,1.2-0.5,1.9c0,0,0.1,0,0.1,0c-1.2-1.1-1.4-3-2.9-3.9c-0.1,0-0.2,0-0.1,0.1
					C60.8,45.2,61.5,46.7,61.7,48.3C61.5,48.4,61.7,48.4,61.7,48.3L61.7,48.3z"/>
			</g>
			<g>
				<path class="st0" d="M19.1,48.4c0.1-1.1,0.2-2.2,0.2-3.3c0-0.1-0.1-0.1-0.1,0c-0.7,1.2-0.9,2.5-1.2,3.8c0,0,0.1,0,0.1,0
					c-0.1-0.5-0.2-1-0.3-1.6c0-0.1-0.1-0.1-0.1,0c-0.2,0.4-0.3,0.9-0.3,1.3c0,0,0.1,0,0.1,0c-0.1-0.2-0.3-1-0.7-0.9
					c-0.3,0.1-0.2,0.7-0.2,0.9c0,0.1,0.1,0.4,0.1,0.5c0,0.2,0,0-0.1,0.2c-0.1,0.1-0.2,0.2-0.2,0.4c-0.1,0.4,0.3,0.7,0.6,1
					c0,0,0-0.1,0-0.1c-0.7-0.1-1.4-0.1-2.1-0.2c-0.1,0-0.1,0.1,0,0.1c0.3,0.2,0.7,0.5,1,0.7c0,0,0-0.1,0-0.1
					c-1.7,0.2-3.4,0.5-5.1,0.8c-0.1,0,0,0.2,0,0.1c1.7-0.2,3.4-0.5,5.1-0.8c0.1,0,0.1-0.1,0-0.1c-0.3-0.2-0.7-0.5-1-0.7
					c0,0,0,0.1,0,0.1c0.7,0.1,1.4,0.1,2.1,0.2c0.1,0,0.1-0.1,0-0.1c-0.1-0.1-0.3-0.2-0.4-0.3c-0.2-0.2-0.2-0.5,0.1-0.8
					c0,0,0.1,0,0-0.1c-0.1-0.3-0.4-0.9-0.1-1.1c0.2-0.1,0.2-0.1,0.2,0.1c0.1,0.1,0.1,0.3,0.2,0.4c0,0.1,0.1,0,0.1,0
					c0-0.4,0.1-0.9,0.3-1.3c0,0-0.1,0-0.1,0c0.1,0.5,0.2,1,0.3,1.6c0,0.1,0.1,0.1,0.1,0c0.2-1.3,0.5-2.6,1.2-3.8c0,0-0.1,0-0.1,0
					c-0.1,1.1-0.2,2.2-0.2,3.3C18.9,48.5,19.1,48.5,19.1,48.4L19.1,48.4z"/>
			</g>
			<g>
				<path class="st0" d="M28.5,54.1c-1.5-0.4-3-0.3-4.4,0.5c0,0,0,0.1,0,0.1c0.7,0.3,1.4,0.5,2.1,0.6c0.7,0.1,1.6,0.2,2.3,0.1
					c0.4-0.1,0.8-0.3,0.8-0.7c0-0.4-0.3-0.6-0.7-0.5c-0.1,0,0,0.2,0,0.1c0.4,0.6,0.4,0.9-0.1,0.9c-0.1,0-0.2,0.1-0.4,0.1
					c-0.2,0-0.3,0-0.5,0c-0.3,0-0.7,0-1-0.1c-0.4,0-0.8-0.1-1.2-0.2c-0.1,0-1.1-0.3-1.1-0.4c0-0.4,1.5-0.6,1.8-0.6
					c0.8-0.1,1.5,0,2.3,0.2C28.6,54.2,28.6,54.1,28.5,54.1L28.5,54.1z"/>
			</g>
			<g>
				<path class="st0" d="M29.5,56c-0.4-0.2-0.9-0.2-1.2,0.1c0,0,0,0.1,0,0.1c0.4,0.3,1,0.3,1.5,0c0,0,0-0.1,0-0.1
					c-0.1-0.2-0.2-0.3-0.4-0.3c-0.1,0-0.1,0.1,0,0.1c0.2,0,0.2,0.1,0.3,0.3c0,0,0-0.1,0-0.1c-0.4,0.2-0.9,0.2-1.3,0c0,0,0,0.1,0,0.1
					c0.3-0.3,0.7-0.3,1-0.1C29.5,56.2,29.6,56.1,29.5,56L29.5,56z"/>
			</g>
			<g>
				<path class="st0" d="M41.7,57c-0.3-0.4-0.7-0.9-1-1.3c0,0-0.1,0.1-0.1,0.1c0.4,0.3,0.8,0.7,1.2,1c0,0,0.1,0,0.1,0
					c0.1-0.3,0.2-0.5,0.3-0.8c0,0-0.1,0-0.1,0c0.2,0.4,0.7,0.6,1,0.3c0,0-0.1,0-0.1,0c0,0.4,0.4,0.6,0.8,0.6c0.2,0,0,0,0.2,0
					c0,0,0.2,0.2,0.3,0.2c0.3,0.2,0.8,0.1,1.2,0.1c2.2,0.1,4.5,0,6.7-0.3c0.1,0,0-0.2,0-0.1c-1.3,0.2-2.7,0.3-4,0.3
					c-0.6,0-1.2,0-1.8,0c-0.5,0-1.9,0.1-2.2-0.4c0,0-0.1,0-0.1,0c-0.4,0.2-0.6,0.1-0.8-0.4c0-0.1-0.1-0.1-0.1,0
					c-0.2,0.2-0.5,0.1-0.8-0.2c0-0.1-0.1-0.1-0.1,0c0,0.1-0.1,0.3-0.2,0.4c-0.1,0.2-0.1,0.3-0.4,0.1c-0.3-0.2-0.6-0.4-0.8-0.7
					c-0.1-0.1-0.2,0-0.1,0.1c0.3,0.4,0.7,0.9,1,1.3C41.6,57.1,41.7,57,41.7,57L41.7,57z"/>
			</g>
			<g>
				<path class="st0" d="M38.9,56.1c-0.2,0.4-0.3,0.8-0.6,1.2c0,0,0.1,0,0.1,0c0-0.3-0.2-0.5-0.3-0.8c0,0-0.1,0-0.1,0
					c-0.2,0.2-0.3,0.4-0.2,0.7c0,0,0.1,0,0.1-0.1c-0.1-0.1-0.2-0.2-0.4-0.3c0,0-0.1,0-0.1,0c-0.2,0.6-1.2,0.4-1.7,0.4
					c-0.7,0-1.5,0-2.2,0c-0.1,0-0.1,0.1,0,0.2c1.3,0.1,2.6,0,3.9-0.1c0,0,0.1,0,0.1-0.1c0-0.3,0.2-0.3,0.3,0c0,0,0.1,0,0.1-0.1
					c0-0.6,0.1-0.6,0.3-0.2c0,0.1,0.1,0.2,0.1,0.3c0,0.1,0.1,0.1,0.1,0C38.6,57,38.8,56.6,38.9,56.1C39,56.1,38.9,56.1,38.9,56.1
					L38.9,56.1z"/>
			</g>
			<g>
				<path class="st0" d="M39.6,57.4c0.1-0.8,0-1.5-0.1-2.3c0-0.1-0.2,0-0.1,0c0.1,0.7,0.2,1.5,0.1,2.2
					C39.4,57.5,39.6,57.5,39.6,57.4L39.6,57.4z"/>
			</g>
			<g>
				<path class="st0" d="M39.7,57.7c0.1-0.4,0.1-0.9,0.2-1.3c0-0.1-0.1-0.1-0.1,0c-0.1,0.4-0.1,0.9-0.2,1.3
					C39.5,57.7,39.7,57.7,39.7,57.7L39.7,57.7z"/>
			</g>
			<g>
				<path class="st0" d="M22,50.5c0,0,1.3-1.5,3-1.2l-0.2-4.1l-1.7,0.6L22,46.2l-1.2,0.5l-1,0.4l-0.5,0.5l0,0.7v0.4l0.4,0.3l0.5,0.4
					L22,50.5z"/>
			</g>
			<g>
				<path class="st0" d="M20.9,46.9L20.9,46.9c-0.2,0-0.3,0.1-0.3,0.3v0c0,0.2,0.2,0.4,0.4,0.2c0.1-0.1,0.2-0.2,0.4-0.3
					c0.3-0.2,0.1-0.6-0.2-0.5c-0.2,0-0.2,0.1-0.4,0.1c-0.3,0.1-0.1,0.6,0.2,0.5c0.1,0,0.1,0,0.2,0c0-0.2-0.1-0.4-0.2-0.6
					c0,0-0.1,0-0.2,0.1c0.1,0.2,0.2,0.4,0.2,0.5c0.8-0.4,1.6-0.7,2.5-0.9c0-0.2-0.1-0.4-0.2-0.6c-0.5,0.1-0.9,0.3-1.3,0.6
					c-0.3,0.2,0,0.7,0.3,0.5c0.4-0.3,0.8-0.4,1.2-0.6c0.4-0.1,0.2-0.7-0.2-0.6c-0.9,0.2-1.8,0.5-2.6,1c-0.3,0.2-0.1,0.7,0.2,0.5
					c0,0,0.1,0,0.2-0.1c0.3-0.1,0.2-0.7-0.2-0.6c-0.1,0-0.1,0-0.2,0c0.1,0.2,0.2,0.4,0.2,0.5c0.1,0,0.2,0,0.2-0.1
					c-0.1-0.2-0.2-0.4-0.2-0.5c-0.1,0.1-0.2,0.2-0.4,0.3c0.2,0.1,0.3,0.2,0.4,0.2v0c-0.1,0.1-0.2,0.2-0.3,0.3c0,0,0,0,0,0
					C21.3,47.4,21.3,46.9,20.9,46.9L20.9,46.9z"/>
			</g>
			<g>
				<path class="st0" d="M21.2,47.5c0.2-0.1,0.4-0.2,0.5-0.2c0.3-0.1,0.1-0.6-0.2-0.5c-0.2,0-0.3,0.1-0.5,0.2
					C21,47.1,21.1,47.3,21.2,47.5c0.2-0.2,0.3-0.2,0.4-0.3c0.3-0.2,0.1-0.6-0.2-0.5c-0.1,0-0.2,0-0.3,0c0,0.2,0.1,0.4,0.2,0.5
					c0.2-0.1,0.3-0.2,0.5-0.3c0.3-0.1,0.2-0.7-0.2-0.6c-0.2,0-0.4,0.1-0.6,0.2c0.1,0.2,0.2,0.4,0.2,0.5c0.1-0.1,0.2-0.1,0.3-0.2
					c0-0.2-0.1-0.4-0.2-0.6c-0.1,0-0.2,0.1-0.3,0.1c0.1,0.2,0.2,0.4,0.2,0.5c0.7-0.3,1.4-0.4,2.1-0.7c0.3-0.1,0.1-0.6-0.2-0.5
					c-0.3,0.1-0.7,0.2-1,0.3c0,0.2,0.1,0.4,0.2,0.6c0.4-0.1,0.7-0.2,1.1-0.3c0.4-0.1,0.2-0.7-0.2-0.6c-0.4,0.1-0.7,0.2-1.1,0.3
					c-0.3,0.1-0.2,0.7,0.2,0.6c0.3-0.1,0.7-0.2,1-0.3c-0.1-0.2-0.2-0.4-0.2-0.5C22.8,46,22.4,46,22,46.1c-0.3,0.1-0.7,0.2-1,0.4
					c-0.3,0.2-0.1,0.6,0.2,0.5c0.1,0,0.2-0.1,0.3-0.1c0.4-0.1,0.2-0.7-0.2-0.6c-0.2,0.1-0.3,0.1-0.5,0.2c-0.3,0.2-0.1,0.6,0.2,0.5
					c0.2,0,0.4-0.1,0.6-0.2c0-0.2-0.1-0.4-0.2-0.6c-0.2,0.1-0.4,0.2-0.6,0.3c-0.2,0.1-0.2,0.6,0.2,0.5c0.2,0,0.3,0,0.4-0.1
					c-0.1-0.2-0.2-0.4-0.2-0.5c-0.1,0.1-0.3,0.2-0.4,0.2C20.7,47.1,20.8,47.6,21.2,47.5c0.2-0.1,0.3-0.2,0.5-0.2
					c-0.1-0.2-0.2-0.4-0.2-0.5c-0.2,0.1-0.4,0.2-0.5,0.2C20.5,47.2,20.8,47.7,21.2,47.5L21.2,47.5z"/>
			</g>
			<g>
				<path class="st0" d="M22.2,49.9c0.2-0.1,0.3-0.2,0.4-0.2c-0.1-0.2-0.2-0.3-0.4-0.4c-0.1,0.1-0.2,0.2-0.4,0.4
					c-0.2,0.2,0,0.5,0.3,0.5c0.1,0,0.2,0,0.3-0.1c-0.1-0.2-0.2-0.3-0.4-0.4c-0.1,0.1-0.2,0.2-0.2,0.3c-0.2,0.2,0.2,0.5,0.4,0.4
					c0,0,0,0,0.1,0c-0.1-0.1-0.3-0.3-0.4-0.4c0,0-0.1,0.1-0.1,0.1c-0.3,0.2,0.1,0.7,0.4,0.4c0,0,0.1,0,0.1-0.1
					c-0.1-0.1-0.3-0.3-0.4-0.4c0,0,0,0,0,0c0.1,0.2,0.2,0.3,0.3,0.5c0.4-0.3,0.8-0.6,1.2-0.8c-0.1-0.2-0.2-0.3-0.3-0.5
					c-0.2,0.2-0.5,0.3-0.7,0.5c-0.3,0.2,0,0.7,0.3,0.5c0.4-0.2,0.7-0.4,1-0.6c0.3-0.2,0-0.7-0.3-0.5c-0.2,0.1-0.4,0.2-0.7,0.4
					c-0.3,0.2,0,0.7,0.3,0.5c0.4-0.2,0.8-0.3,1.2-0.5c0-0.2-0.1-0.4-0.2-0.6c-0.2,0.1-0.5,0.2-0.7,0.3c-0.3,0.1-0.3,0.6,0.1,0.6
					c0.4,0,0.9-0.3,1.3-0.2c0-0.2,0-0.4,0-0.6c0,0-0.1,0-0.2,0c-0.3,0.1-0.2,0.5,0,0.6c0.1,0.1,0.2,0,0.4,0c0.3-0.2,0-0.7-0.3-0.5
					c0,0,0.1,0,0.1,0c0,0.2,0,0.4,0,0.6c0,0,0.1,0,0.2,0c0.3-0.1,0.3-0.5,0-0.6c-0.5-0.1-1,0.2-1.5,0.2c0,0.2,0,0.4,0.1,0.6
					c0.2-0.1,0.5-0.2,0.7-0.3c0.3-0.1,0.2-0.7-0.2-0.6c-0.4,0.2-0.9,0.4-1.3,0.5c0.1,0.2,0.2,0.3,0.3,0.5c0.2-0.1,0.4-0.2,0.7-0.4
					c-0.1-0.2-0.2-0.3-0.3-0.5c-0.3,0.2-0.7,0.4-1,0.6c0.1,0.2,0.2,0.3,0.3,0.5c0.2-0.2,0.5-0.3,0.7-0.5c0.3-0.2,0-0.7-0.3-0.5
					c-0.4,0.3-0.9,0.6-1.3,0.9c-0.2,0.2,0,0.6,0.3,0.5c0.2,0,0.2-0.1,0.3-0.2c0.2-0.2-0.2-0.6-0.4-0.4c0,0-0.1,0-0.1,0.1
					c0.1,0.2,0.2,0.3,0.4,0.4c0.1-0.1,0.1-0.1,0.2-0.2c0.2-0.2-0.2-0.5-0.4-0.4c0,0,0,0-0.1,0c0.1,0.1,0.3,0.3,0.4,0.4
					c0-0.1,0.1-0.1,0.2-0.2c0.2-0.2-0.1-0.6-0.4-0.4c0,0-0.1,0-0.1,0c0.1,0.2,0.2,0.3,0.3,0.5c0.1-0.1,0.2-0.3,0.4-0.4
					c0.2-0.2-0.1-0.6-0.4-0.4c-0.2,0.1-0.3,0.2-0.4,0.2C21.6,49.6,21.8,50.1,22.2,49.9L22.2,49.9z"/>
			</g>
			<g>
				<path class="st0" d="M24.8,49c0,0.1,0,0.2,0,0.2c0,0-0.1,0.1-0.1,0.1l0,0c0.1,0,0.1-0.1,0.1-0.2C24.9,49.1,24.8,49,24.8,49
					c-0.1-0.2-0.3-0.2-0.4-0.2c-0.1,0-0.1,0.1-0.2,0.2c0,0.1,0,0.2,0,0.2c0,0.1,0.1,0.1,0.2,0.1c0.1,0,0.2,0,0.2,0
					C24.8,49.3,24.9,49.1,24.8,49L24.8,49z"/>
			</g>
			<g>
				<path class="st0" d="M58.4,50.6l0.7-0.2L60,50l0.6-0.5l0.5-0.4l0.4-0.4v-0.6l-0.3-0.7l-1.6-0.8l-1.3-0.5c0,0-1.7-0.5-1.8-0.5
					c-0.1,0-1.2-0.3-1.2-0.3l0,3.9C55.2,49.2,57.5,49,58.4,50.6z"/>
			</g>
			<g>
				<path class="st0" d="M55.7,45.6c-0.1-0.1-0.2-0.1-0.2-0.2c0,0,0,0.1-0.1,0.1C55.6,45.5,55.7,45.6,55.7,45.6
					c0.1,0,0.1-0.1,0.1-0.1c-0.2,0-0.3-0.1-0.4-0.2c0,0,0,0.1-0.1,0.1c0.3,0.1,0.5,0.1,0.8,0.2c0,0,0-0.1,0-0.1
					c-0.2,0-0.4-0.1-0.6-0.1c-0.1,0-0.1,0.1,0,0.1c0.9,0.3,2,0.4,2.9,0.8c0.8,0.4,1.9,0.7,2.5,1.5c0,0,0.1-0.1,0.1-0.1
					c-0.8-0.6-1.6-1.1-2.6-1.5c0,0,0,0.1,0,0.1c0.4,0.1,0.9,0.2,1.3,0.4c0.1,0,0.2-0.1,0.1-0.1c-0.2-0.1-0.5-0.2-0.7-0.4
					c-0.1,0-0.2,0.1-0.1,0.1c0.3,0.2,0.5,0.4,0.7,0.6c0.1,0.1,0.2,0,0.1-0.1c-0.2-0.2-0.4-0.4-0.7-0.7c0,0,0,0.1-0.1,0.1
					c0.2,0.1,0.5,0.2,0.7,0.4c0,0,0-0.1,0.1-0.1c-0.4-0.2-0.9-0.3-1.4-0.4c-0.1,0-0.1,0.1,0,0.1c0.9,0.3,1.8,0.8,2.5,1.4
					c0.1,0,0.2,0,0.1-0.1c-0.5-0.7-1.6-1.1-2.4-1.4c-1-0.4-2-0.5-3.1-0.9c0,0,0,0.1,0,0.1c0.2,0.1,0.4,0.1,0.7,0.1
					c0.1,0,0.1-0.1,0-0.1c-0.3-0.1-0.5-0.1-0.8-0.2c-0.1,0-0.1,0.1-0.1,0.1C55.5,45.5,55.6,45.5,55.7,45.6c0.1,0,0.2-0.1,0.1-0.1
					c-0.2-0.1-0.1-0.1-0.4-0.1c-0.1,0-0.1,0.1-0.1,0.1C55.5,45.5,55.6,45.6,55.7,45.6C55.7,45.7,55.8,45.6,55.7,45.6L55.7,45.6z"/>
			</g>
			<g>
				<path class="st0" d="M61.3,48.5c0.1,0,0.1,0,0.2-0.1c0,0,0-0.1-0.1-0.1c0,0,0,0-0.1,0c-0.1,0,0,0.2,0.1,0.1c0,0,0,0,0.1,0
					c0.1,0,0-0.2-0.1-0.1c-0.1,0-0.1,0-0.2,0.1C61.2,48.4,61.3,48.5,61.3,48.5L61.3,48.5z"/>
			</g>
			<g>
				<path class="st0" d="M19.2,48.4c-0.1,0-0.1,0-0.2,0c0,0,0,0.1,0,0.2C19.2,48.5,19.2,48.5,19.2,48.4c0-0.1,0.1-0.2,0.1-0.3
					c0-0.1-0.1-0.1-0.1-0.1c-0.1,0.1-0.1,0.3-0.1,0.4C19.1,48.4,19.2,48.4,19.2,48.4c0,0-0.1-0.1-0.2,0c-0.1,0.1,0,0.2,0.1,0.2
					c0,0,0-0.1-0.1-0.1c0,0-0.1,0-0.1,0c-0.1,0,0,0.1,0,0.1c0.2,0,0.4,0,0.5,0c0.1,0,0.1-0.2,0-0.2c-0.2,0-0.4,0-0.5,0
					c0,0,0,0.1,0,0.1c0,0,0.1,0,0.1,0c0.1,0,0-0.2-0.1-0.1C19.2,48.4,19.2,48.4,19.2,48.4c-0.1,0.1-0.1,0.1-0.1,0.1c0,0,0,0,0,0
					c0,0,0,0-0.1,0c0,0,0,0,0,0C19.1,48.5,19.2,48.5,19.2,48.4c0-0.1,0-0.2,0.1-0.3c0,0-0.1,0-0.1-0.1c0,0.1,0,0.1-0.1,0.2
					c0,0-0.1,0.2,0,0.2c-0.1,0-0.1,0.1,0,0.2c0.1,0,0.1,0,0.2,0C19.4,48.5,19.3,48.3,19.2,48.4L19.2,48.4z"/>
			</g>
		</g>
		<g>
			<g>
				<path class="st0" d="M90.4,33.6c0-0.6,1.1-1.2,3.2-1.7c0,0,0-0.1,0-0.1c-2,0.5-3.3,1.1-3.3,1.8c0,0.5,0.6,0.9,1.7,1.3
					c0,0,0,0,0,0c0,0,0.1-0.1,0.1-0.1c0,0,0-0.1,0.1-0.1c0,0-0.1,0.1-0.2,0.1C90.9,34.4,90.4,34,90.4,33.6z"/>
			</g>
			<g>
				<path class="st0" d="M111,31.7c0,0,0,0.1,0,0.1h0c2.2,0.5,3.5,1.1,3.5,1.7c0,0.4-0.5,0.8-1.6,1.2c0-0.1-0.1-0.1-0.1-0.1
					c0,0,0.1,0.1,0.1,0.1c0,0,0,0.1,0,0.1c1.1-0.4,1.7-0.9,1.7-1.3C114.6,32.8,113.2,32.2,111,31.7z"/>
			</g>
			<g>
				<path class="st0" d="M111.1,35.3c-2.3,0.5-5.4,0.8-8.7,0.8c-3.3,0-6.4-0.3-8.7-0.8c0,0,0-0.1,0-0.1c0,0.1-0.1,0.1-0.1,0.2
					c0,0,0,0,0,0.1h0c2.3,0.5,5.4,0.8,8.8,0.8c3.3,0,6.5-0.3,8.7-0.8C111.2,35.4,111.1,35.3,111.1,35.3z"/>
			</g>
			<g>
				<path class="st0" d="M109.7,23.1c-0.8-1.5-2.3-2.5-3.9-2.9c-1-0.3-2-0.3-3.1-0.2c-1.1,0.1-2.2,0.2-3.3,0.3
					c-1.7,0.2-3.3,1.1-4.3,2.4c-1.1,1.4-1.6,3.3-1.7,5.1c-0.2,2.5,0.2,5,0.3,7.5c0,0.1,0.2,0.1,0.2,0c0-2.1-0.3-4.2-0.3-6.3
					c0-1.8,0.2-3.7,1.1-5.3c0.9-1.6,2.3-2.7,4.1-3.1c1-0.2,2-0.3,3-0.4c1-0.1,2-0.2,2.9-0.1c2,0.2,4,1.3,4.9,3
					C109.6,23.3,109.8,23.2,109.7,23.1L109.7,23.1z"/>
			</g>
			<g>
				<path class="st0" d="M99.3,20.5c0.1,0,0.1-0.2,0-0.2C99.1,20.3,99.1,20.5,99.3,20.5L99.3,20.5z"/>
			</g>
			<g>
				<path class="st0" d="M93.8,25.3c-0.6,0-1.2-0.4-1.5-0.9c-0.3-0.6-0.2-1.3,0.2-1.8c0.3-0.4,0.9-0.8,1.4-0.9
					c0.5-0.1,1.3-0.1,1.7,0.4c0.1,0.1,0.2,0,0.1-0.1c-0.4-0.5-1.1-0.5-1.7-0.4c-0.7,0.1-1.3,0.5-1.7,1.1c-0.4,0.6-0.4,1.3-0.1,1.9
					c0.3,0.6,1,1,1.6,1C93.9,25.5,93.9,25.3,93.8,25.3L93.8,25.3z"/>
			</g>
			<g>
				<path class="st0" d="M108.5,21.7c0.9-0.5,2.5-0.7,3.1,0.3c0.7,1,0.3,2.7-1.1,2.9c-0.1,0-0.1,0.2,0,0.2c1.4-0.2,1.8-2,1.2-3.1
					c-0.7-1.2-2.3-1-3.4-0.4C108.3,21.6,108.4,21.7,108.5,21.7L108.5,21.7z"/>
			</g>
			<g>
				<path class="st0" d="M101,26.9C101,26.9,101,26.9,101,26.9C101.1,26.8,101.1,26.8,101,26.9c0,0-0.1-0.1-0.2,0
					c-0.1,0.1-0.3,0.2-0.4,0.3c-0.2,0.2-0.4,0.4-0.6,0.7c-0.2,0.6,0.5,1,1.1,0.9c0.4,0,0.9-0.2,1.3-0.3c0.4,0,0.8,0.1,1.2,0.2
					c0.5,0.1,1.1-0.2,1-0.8c-0.1-0.7-0.9-1-1.5-1.2c0,0-0.1,0.1,0,0.1c0.6,0.2,1.6,0.7,1.4,1.4c-0.2,0.6-0.7,0.5-1.1,0.4
					c-0.3-0.1-0.6-0.2-0.9-0.1c-0.4,0-0.8,0.2-1.1,0.3c-0.4,0.1-1.3-0.1-1.2-0.7c0-0.4,0.4-0.7,0.7-0.9C100.7,27,100.8,27,101,26.9
					c0,0.1,0.1,0.1,0.1,0C101.1,26.9,101.1,26.8,101,26.9C101,26.8,101,26.8,101,26.9C100.9,26.8,100.9,26.9,101,26.9L101,26.9z"/>
			</g>
			<g>
				<path class="st0" d="M103.2,28.6c0.2,0.4,0.2,0.9,0.1,1.3c-0.1,0.3-0.5,0.5-0.8,0.3c-0.1-0.1-0.2-0.2-0.2-0.4c0,0-0.1,0-0.1,0
					c0.1,0.2,0.1,0.4,0.3,0.5c0.2,0.1,0.4,0,0.6-0.1C103.6,29.9,103.4,29.1,103.2,28.6C103.2,28.5,103.2,28.5,103.2,28.6L103.2,28.6
					z"/>
			</g>
			<g>
				<path class="st0" d="M111,34.1c0.2,0.1,0.5,0,0.7,0c0.5,0.1,0.9,0.4,1.1,0.8c0.2,0.5,0,1.1-0.6,1c-0.5-0.1-0.8-0.4-1.1-0.7
					c0,0-0.1,0-0.1,0.1c0.4,0.4,0.8,0.7,1.3,0.8c0.4,0,0.7-0.2,0.7-0.5c0-0.4-0.2-0.9-0.6-1.1c-0.2-0.2-0.5-0.3-0.8-0.3
					C111.5,34.1,111.3,34.2,111,34.1C111,34,111,34.1,111,34.1L111,34.1z"/>
			</g>
			<g>
				<path class="st0" d="M112,35.2c0.3,0.1,0.7,0.4,0.5,0.7c0,0,0,0.1,0.1,0C112.8,35.6,112.4,35.3,112,35.2
					C112,35.1,112,35.2,112,35.2L112,35.2z"/>
			</g>
			<g>
				<path class="st0" d="M105.5,26.9c-1.6,0-2.9-1.3-2.9-2.9s1.3-2.9,2.9-2.9c1.6,0,2.9,1.3,2.9,2.9S107.1,26.9,105.5,26.9z
					 M105.5,21.5c-1.4,0-2.5,1.1-2.5,2.5s1.1,2.5,2.5,2.5c1.4,0,2.5-1.1,2.5-2.5S106.9,21.5,105.5,21.5z"/>
			</g>
			<g>
				<path class="st0" d="M98.7,27.2c-1.6,0-2.9-1.3-2.9-2.9c0-1.6,1.3-2.9,2.9-2.9c1.6,0,2.9,1.3,2.9,2.9
					C101.5,25.9,100.2,27.2,98.7,27.2z M98.7,21.8c-1.4,0-2.5,1.1-2.5,2.5s1.1,2.5,2.5,2.5s2.5-1.1,2.5-2.5S100,21.8,98.7,21.8z"/>
			</g>
			<g>
				<circle class="st0" cx="110.1" cy="23" r="0.6"/>
			</g>
			<g>
				<circle class="st0" cx="94" cy="23.5" r="0.6"/>
			</g>
			<g>
				<ellipse class="st0" cx="102.1" cy="26.6" rx="1.2" ry="0.7"/>
			</g>
			<g>
				<path class="st0" d="M104.1,24.5c0,0.5,0.4,0.9,0.9,0.9c0.5,0,0.9-0.4,0.9-0.9c0-0.5-0.4-0.9-0.9-0.9
					C104.5,23.6,104.1,24,104.1,24.5z M105.6,24.2c0,0.1-0.1,0.2-0.2,0.2s-0.2-0.1-0.2-0.2c0-0.1,0.1-0.2,0.2-0.2
					S105.6,24,105.6,24.2z"/>
			</g>
			<g>
				<path class="st0" d="M97.4,24.8c0,0.5,0.4,0.9,0.9,0.9c0.5,0,0.9-0.4,0.9-0.9c0-0.5-0.4-0.9-0.9-0.9
					C97.8,23.9,97.4,24.3,97.4,24.8z M98.9,24.4c0,0.1-0.1,0.2-0.2,0.2c-0.1,0-0.2-0.1-0.2-0.2c0-0.1,0.1-0.2,0.2-0.2
					C98.7,24.2,98.9,24.3,98.9,24.4z"/>
			</g>
			<g>
				<path class="st0" d="M102.2,28.4c0.1,0.3,0,0.8,0,1.1c0,0.2-0.1,0.4-0.2,0.6c-0.2,0.2-0.5,0.2-0.7,0c-0.4-0.3-0.3-1.1-0.1-1.5
					c0,0-0.1-0.1-0.1,0c-0.2,0.5-0.3,1.6,0.4,1.7c0.3,0.1,0.6-0.1,0.7-0.4c0.1-0.2,0.1-0.5,0.1-0.8
					C102.3,28.9,102.3,28.7,102.2,28.4C102.2,28.3,102.2,28.4,102.2,28.4L102.2,28.4z"/>
			</g>
			<g>
				<path class="st0" d="M93.7,34.2c-0.6-0.1-1.3,0.2-1.7,0.6c-0.3,0.3-0.5,0.7,0,1c0,0,0.1,0,0-0.1c-0.5-0.3,0-0.8,0.3-1.1
					C92.7,34.4,93.1,34.2,93.7,34.2C93.7,34.3,93.7,34.2,93.7,34.2L93.7,34.2z"/>
			</g>
			<g>
				<path class="st0" d="M92.4,35.3c-0.2,0.1-0.4,0.2-0.4,0.5c0,0.2,0.2,0.3,0.4,0.4c0.5,0.1,1.1-0.5,1.4-0.9c0,0,0-0.1-0.1,0
					c-0.2,0.3-0.5,0.6-0.9,0.7c-0.2,0.1-0.6,0.2-0.7-0.1c-0.1-0.2,0.2-0.4,0.4-0.5C92.5,35.4,92.4,35.3,92.4,35.3L92.4,35.3z"/>
			</g>
			<g>
				<path class="st0" d="M109.4,22.9c1.3,1.6,1.3,3.8,1.3,5.8c0.1,2.2,0,4.4,0.1,6.6c0,0.1,0.2,0.1,0.2,0c-0.1-2.3,0-4.7-0.2-7
					c-0.1-1.9-0.2-3.9-1.4-5.5C109.5,22.7,109.4,22.8,109.4,22.9L109.4,22.9z"/>
			</g>
			<g>
				<path class="st0" d="M114.7,33.6c0-1-0.4-1.8-1.1-2.5c0,0,0,0,0,0.1c0.8,0.5,1,1.6,1.6,2.2c0,0,0.1,0,0.1,0
					c0-0.4,0.1-0.7,0.3-1.1c0,0,0,0-0.1,0c0,0.3,0,0.6,0,0.9c0,0,0,0,0,0c0.1,0,0.2-0.1,0.3-0.2c0,0,0,0-0.1,0
					c0,0.1-0.1,0.2-0.1,0.4c0,0,0,0.1,0,0c0.2-0.1,0.4-0.2,0.6-0.3c0,0,0,0-0.1-0.1c-0.1,0.2-0.2,0.4-0.2,0.5c0,0,0,0,0,0
					c0.4,0.1,0.1,0.4,0,0.6c0,0,0,0.1,0,0.1c0.7,0.1,1.4,0.1,2.2,0.1c0,0,0-0.1,0-0.1c-0.4,0-0.7,0-1.1,0c-0.2,0-0.4,0-0.6,0
					c-0.1,0-0.4,0-0.4-0.1c0-0.2,0.2-0.2,0.1-0.4c0,0-0.1-0.1-0.1-0.1c-0.1-0.1,0.1-0.4,0.2-0.5c0,0,0-0.1-0.1-0.1
					c-0.1,0.1-0.2,0.2-0.3,0.2c-0.2,0.1-0.1,0-0.1-0.2c0,0,0-0.1-0.1,0c-0.2,0.2-0.2,0.1-0.2-0.1c0-0.2,0-0.3,0-0.5c0,0,0,0-0.1,0
					c-0.2,0.3-0.3,0.7-0.3,1.1c0,0,0,0,0.1,0c-0.7-0.7-0.8-1.7-1.6-2.2c0,0-0.1,0,0,0.1c0.7,0.7,1,1.5,1.1,2.5
					C114.6,33.6,114.7,33.6,114.7,33.6L114.7,33.6z"/>
			</g>
			<g>
				<path class="st0" d="M90.2,33.6c0-0.6,0.1-1.3,0.1-1.9c0,0-0.1,0-0.1,0c-0.4,0.7-0.5,1.4-0.7,2.2c0,0,0,0,0.1,0
					c-0.1-0.3-0.1-0.6-0.2-0.9c0,0-0.1,0-0.1,0c-0.1,0.2-0.2,0.5-0.2,0.8c0,0,0,0,0.1,0c-0.1-0.1-0.2-0.6-0.4-0.5
					c-0.2,0-0.1,0.4-0.1,0.5c0,0.1,0.1,0.2,0.1,0.3c0,0.1,0,0-0.1,0.1c0,0.1-0.1,0.1-0.1,0.2c0,0.2,0.2,0.4,0.4,0.6c0,0,0,0,0-0.1
					c-0.4,0-0.8-0.1-1.2-0.1c0,0,0,0.1,0,0.1c0.2,0.1,0.4,0.3,0.6,0.4c0,0,0,0,0-0.1c-1,0.1-1.9,0.3-2.9,0.4c0,0,0,0.1,0,0.1
					c1-0.1,1.9-0.3,2.9-0.4c0,0,0-0.1,0-0.1c-0.2-0.1-0.4-0.3-0.6-0.4c0,0,0,0,0,0.1c0.4,0,0.8,0.1,1.2,0.1c0,0,0-0.1,0-0.1
					c-0.1,0-0.2-0.1-0.2-0.2c-0.1-0.1-0.1-0.3,0.1-0.5c0,0,0,0,0,0c-0.1-0.2-0.2-0.5,0-0.6c0.1-0.1,0.1,0,0.2,0.1
					c0,0.1,0.1,0.2,0.1,0.2c0,0,0.1,0,0.1,0c0-0.3,0.1-0.5,0.2-0.7c0,0,0,0-0.1,0c0.1,0.3,0.1,0.6,0.2,0.9c0,0,0.1,0,0.1,0
					c0.1-0.7,0.3-1.5,0.7-2.2c0,0,0,0-0.1,0C90.2,32.4,90.2,33.1,90.2,33.6C90.2,33.7,90.2,33.7,90.2,33.6L90.2,33.6z"/>
			</g>
			<g>
				<path class="st0" d="M95.7,36.9c-0.9-0.3-1.7-0.2-2.5,0.3c0,0,0,0.1,0,0.1c0.4,0.2,0.8,0.3,1.2,0.4c0.4,0,0.9,0.1,1.3,0
					c0.2,0,0.4-0.2,0.4-0.4C96.1,37,95.9,36.9,95.7,36.9c0,0,0,0.1,0.1,0.1c0.2,0.3,0.2,0.5-0.1,0.5c-0.1,0-0.1,0-0.2,0
					c-0.1,0-0.2,0-0.3,0c-0.2,0-0.4,0-0.6,0c-0.2,0-0.4,0-0.7-0.1c-0.1,0-0.6-0.2-0.6-0.2c0-0.2,0.9-0.3,1-0.4
					C94.8,36.8,95.2,36.8,95.7,36.9C95.7,37,95.7,36.9,95.7,36.9L95.7,36.9z"/>
			</g>
			<g>
				<path class="st0" d="M96.2,38c-0.2-0.1-0.5-0.1-0.7,0.1c0,0,0,0,0,0.1c0.2,0.2,0.6,0.2,0.8,0c0,0,0,0,0-0.1
					c0-0.1-0.1-0.2-0.2-0.2c0,0-0.1,0.1,0,0.1c0.1,0,0.2,0.1,0.2,0.2C96.3,38.1,96.3,38.1,96.2,38c-0.2,0.2-0.4,0.2-0.7,0
					c0,0,0,0,0,0.1C95.7,38,95.9,37.9,96.2,38C96.2,38.1,96.2,38,96.2,38L96.2,38z"/>
			</g>
			<g>
				<path class="st0" d="M103.2,38.5c-0.2-0.2-0.4-0.5-0.6-0.7c0,0,0,0-0.1,0.1c0.2,0.2,0.4,0.4,0.7,0.6c0,0,0,0,0.1,0
					c0.1-0.2,0.1-0.3,0.2-0.5c0,0,0,0-0.1,0c0.1,0.2,0.4,0.3,0.6,0.2c0,0,0,0-0.1,0c0,0.2,0.2,0.3,0.4,0.4c0.1,0,0,0,0.1,0
					c0,0,0.1,0.1,0.2,0.1c0.2,0.1,0.5,0.1,0.7,0.1c1.3,0,2.6,0,3.8-0.2c0,0,0-0.1,0-0.1c-0.8,0.1-1.5,0.2-2.3,0.2
					c-0.4,0-0.7,0-1.1,0c-0.3,0-1.1,0.1-1.3-0.2c0,0,0,0-0.1,0c-0.2,0.1-0.4,0-0.4-0.2c0,0,0,0-0.1,0c-0.2,0.1-0.3,0.1-0.4-0.1
					c0,0-0.1,0-0.1,0c0,0.1,0,0.2-0.1,0.2c-0.1,0.1,0,0.2-0.2,0.1c-0.2-0.1-0.3-0.3-0.5-0.4c0,0-0.1,0-0.1,0.1
					C102.7,38.1,102.9,38.4,103.2,38.5C103.2,38.7,103.2,38.6,103.2,38.5L103.2,38.5z"/>
			</g>
			<g>
				<path class="st0" d="M101.6,38.1c-0.1,0.2-0.2,0.5-0.3,0.7c0,0,0,0,0.1,0c0-0.2-0.1-0.3-0.2-0.4c0,0,0,0-0.1,0
					c-0.1,0.1-0.2,0.2-0.1,0.4c0,0,0,0,0.1,0c-0.1-0.1-0.2-0.1-0.2-0.2c0,0,0,0-0.1,0c-0.1,0.3-0.7,0.2-1,0.2c-0.4,0-0.9,0-1.3,0
					c0,0,0,0.1,0,0.1c0.8,0,1.5,0,2.3,0c0,0,0,0,0,0c0-0.2,0.1-0.2,0.2,0c0,0,0.1,0,0.1,0c0-0.3,0.1-0.4,0.2-0.1c0,0.1,0,0.1,0,0.2
					c0,0,0.1,0,0.1,0C101.5,38.5,101.6,38.3,101.6,38.1C101.7,38.1,101.6,38,101.6,38.1L101.6,38.1z"/>
			</g>
			<g>
				<path class="st0" d="M102,38.8c0-0.4,0-0.9,0-1.3c0,0-0.1,0-0.1,0C102,38,102,38.4,102,38.8C101.9,38.9,102,38.9,102,38.8
					L102,38.8z"/>
			</g>
			<g>
				<path class="st0" d="M102.1,39c0-0.2,0.1-0.5,0.1-0.7c0,0-0.1-0.1-0.1,0C102.1,38.5,102,38.7,102.1,39C102,39,102.1,39,102.1,39
					L102.1,39z"/>
			</g>
			<g>
				<path class="st0" d="M91.9,34.9c0,0,0.7-0.8,1.8-0.7l-0.1-2.3l-1,0.3l-0.7,0.2l-0.7,0.3l-0.6,0.2l-0.3,0.3l0,0.4v0.3l0.2,0.2
					l0.3,0.2L91.9,34.9z"/>
			</g>
			<g>
				<path class="st0" d="M91.3,32.8L91.3,32.8c-0.1,0-0.2,0.1-0.2,0.2c0,0,0,0,0,0c0,0.1,0.1,0.2,0.2,0.1c0.1,0,0.1-0.1,0.2-0.2
					c0.2-0.1,0-0.4-0.1-0.3C91.3,32.7,91.3,32.7,91.3,32.8c-0.2,0-0.1,0.3,0.1,0.2c0,0,0.1,0,0.1,0C91.4,32.9,91.4,32.8,91.3,32.8
					C91.3,32.7,91.3,32.7,91.3,32.8c0,0.1,0.1,0.2,0.1,0.3c0.4-0.3,0.9-0.4,1.4-0.5c0-0.1-0.1-0.2-0.1-0.3c-0.3,0.1-0.5,0.2-0.8,0.4
					c-0.2,0.1,0,0.4,0.2,0.3c0.2-0.2,0.4-0.2,0.7-0.3c0.2,0,0.1-0.4-0.1-0.3C92.3,32.4,91.7,32.5,91.3,32.8c-0.2,0.1,0,0.4,0.1,0.3
					c0,0,0.1,0,0.1,0c0.2-0.1,0.1-0.4-0.1-0.3C91.4,32.7,91.3,32.8,91.3,32.8c0.1,0.1,0.1,0.2,0.2,0.3c0,0,0.1,0,0.1,0
					c0-0.1-0.1-0.2-0.1-0.3c-0.1,0-0.1,0.1-0.2,0.2c0.1,0,0.2,0.1,0.2,0.1c0,0,0,0,0,0c0,0-0.1,0.1-0.2,0.2l0,0
					C91.5,33.1,91.5,32.7,91.3,32.8L91.3,32.8z"/>
			</g>
			<g>
				<path class="st0" d="M91.4,33.2c0.1,0,0.2-0.1,0.3-0.1c0.2-0.1,0-0.4-0.1-0.3c-0.1,0-0.2,0.1-0.3,0.1
					C91.4,32.9,91.4,33,91.4,33.2c0.1-0.1,0.2-0.1,0.2-0.2c0.2-0.1,0-0.3-0.1-0.3c0,0-0.1,0-0.2,0c0,0.1,0.1,0.2,0.1,0.3
					c0.1-0.1,0.2-0.1,0.3-0.2c0.2-0.1,0.1-0.4-0.1-0.3c-0.1,0-0.2,0.1-0.3,0.1c0,0.1,0.1,0.2,0.1,0.3c0.1,0,0.1-0.1,0.2-0.1
					c0-0.1-0.1-0.2-0.1-0.3c-0.1,0-0.1,0-0.2,0.1c0,0.1,0.1,0.2,0.1,0.3c0.4-0.2,0.8-0.2,1.2-0.4c0.2-0.1,0-0.4-0.1-0.3
					c-0.2,0.1-0.4,0.1-0.6,0.2c0,0.1,0.1,0.2,0.1,0.3c0.2-0.1,0.4-0.2,0.6-0.2c0.2,0,0.1-0.4-0.1-0.3c-0.2,0-0.4,0.1-0.6,0.2
					c-0.2,0.1-0.1,0.4,0.1,0.3c0.2-0.1,0.4-0.1,0.6-0.2c0-0.1-0.1-0.2-0.1-0.3c-0.2,0.1-0.4,0.1-0.7,0.2c-0.2,0.1-0.4,0.1-0.6,0.2
					c-0.2,0.1,0,0.4,0.1,0.3c0.1,0,0.1,0,0.2-0.1c0.2-0.1,0.1-0.4-0.1-0.3c-0.1,0-0.2,0.1-0.3,0.1c-0.2,0.1,0,0.4,0.1,0.3
					c0.1,0,0.2-0.1,0.3-0.1c0-0.1-0.1-0.2-0.1-0.3c-0.1,0-0.2,0.1-0.4,0.2C91.2,32.9,91.2,33.1,91.4,33.2c0.1-0.1,0.2-0.1,0.2-0.1
					c0-0.1-0.1-0.2-0.1-0.3c-0.1,0-0.2,0.1-0.2,0.1C91.1,32.9,91.2,33.2,91.4,33.2c0.1,0,0.2,0,0.3-0.1c0-0.1-0.1-0.2-0.1-0.3
					c-0.1,0-0.2,0.1-0.3,0.1C91.1,32.9,91.2,33.2,91.4,33.2L91.4,33.2z"/>
			</g>
			<g>
				<path class="st0" d="M92,34.5c0.1,0,0.2-0.1,0.3-0.1c-0.1-0.1-0.1-0.2-0.2-0.3c-0.1,0.1-0.1,0.1-0.2,0.2c-0.1,0.1,0,0.3,0.2,0.3
					c0.1,0,0.1,0,0.2,0c-0.1-0.1-0.1-0.2-0.2-0.3c-0.1,0.1-0.1,0.1-0.1,0.2c-0.1,0.1,0.1,0.3,0.2,0.2c0,0,0,0,0,0
					c-0.1-0.1-0.2-0.2-0.2-0.2c0,0,0,0,0,0c-0.2,0.1,0,0.4,0.2,0.3c0,0,0,0,0.1,0c-0.1-0.1-0.2-0.2-0.2-0.2L92,34.5
					c0,0,0,0.1,0.1,0.2c0.2-0.2,0.4-0.3,0.7-0.5c-0.1-0.1-0.1-0.2-0.2-0.3c-0.1,0.1-0.3,0.2-0.4,0.3c-0.2,0.1,0,0.4,0.2,0.3
					c0.2-0.1,0.4-0.2,0.6-0.3c0.2-0.1,0-0.4-0.2-0.3c-0.1,0.1-0.2,0.1-0.4,0.2c-0.2,0.1,0,0.4,0.2,0.3c0.2-0.1,0.4-0.2,0.7-0.3
					c0-0.1-0.1-0.2-0.1-0.3c-0.1,0.1-0.3,0.1-0.4,0.2c-0.2,0.1-0.2,0.3,0,0.3c0.3,0,0.5-0.2,0.8-0.1c0-0.1,0-0.2,0-0.3
					c0,0-0.1,0-0.1,0c-0.2,0-0.1,0.3,0,0.3c0.1,0,0.1,0,0.2,0c0.2-0.1,0-0.4-0.2-0.3c0,0,0,0,0.1,0c0,0.1,0,0.2,0,0.3
					c0,0,0.1,0,0.1,0c0.2,0,0.2-0.3,0-0.3c-0.3,0-0.6,0.1-0.9,0.1c0,0.1,0,0.2,0,0.3c0.1-0.1,0.3-0.1,0.4-0.2
					c0.2-0.1,0.1-0.4-0.1-0.3c-0.2,0.1-0.5,0.2-0.7,0.3c0.1,0.1,0.1,0.2,0.2,0.3c0.1-0.1,0.2-0.1,0.4-0.2c-0.1-0.1-0.1-0.2-0.2-0.3
					c-0.2,0.1-0.4,0.2-0.6,0.3c0.1,0.1,0.1,0.2,0.2,0.3c0.1-0.1,0.3-0.2,0.4-0.3c0.2-0.1,0-0.4-0.2-0.3c-0.3,0.2-0.5,0.3-0.7,0.5
					c-0.1,0.1,0,0.3,0.2,0.3c0.1,0,0.1,0,0.2-0.1C92.3,34.5,92.1,34.3,92,34.5c-0.1,0-0.1,0-0.1,0c0.1,0.1,0.1,0.2,0.2,0.3
					c0,0,0.1-0.1,0.1-0.1C92.3,34.5,92.1,34.3,92,34.5C92,34.4,92,34.5,92,34.5c0,0,0.1,0.1,0.2,0.2c0,0,0.1-0.1,0.1-0.1
					c0.1-0.1,0-0.3-0.2-0.3c0,0,0,0-0.1,0c0,0.1,0.1,0.2,0.2,0.3c0.1-0.1,0.1-0.2,0.2-0.2c0.1-0.1,0-0.3-0.2-0.3
					c-0.1,0-0.2,0.1-0.3,0.1C91.7,34.3,91.8,34.6,92,34.5L92,34.5z"/>
			</g>
			<g>
				<path class="st0" d="M93.5,34c0,0,0,0.1,0,0.1c0,0,0,0-0.1,0.1l0,0c0,0,0.1,0,0.1-0.1C93.5,34.1,93.5,34,93.5,34
					c-0.1-0.1-0.2-0.1-0.2-0.1c0,0-0.1,0.1-0.1,0.1c0,0,0,0.1,0,0.2c0,0,0,0.1,0.1,0.1s0.1,0,0.1,0C93.6,34.2,93.6,34.1,93.5,34
					L93.5,34z"/>
			</g>
			<g>
				<path class="st0" d="M112.9,34.9l0.4-0.1l0.5-0.2l0.3-0.3l0.3-0.3l0.2-0.2v-0.3l-0.2-0.4l-0.9-0.5l-0.8-0.3c0,0-1-0.3-1-0.3
					c0,0-0.7-0.2-0.7-0.2l0,2.2C111,34.1,112.3,34,112.9,34.9z"/>
			</g>
			<g>
				<path class="st0" d="M111.3,32c0,0-0.1-0.1-0.1-0.1c0,0,0,0,0,0.1C111.2,32,111.3,32,111.3,32C111.3,32,111.4,32,111.3,32
					c0-0.1-0.1-0.1-0.2-0.2c0,0,0,0,0,0.1c0.2,0,0.3,0.1,0.5,0.1c0,0,0,0,0-0.1c-0.1,0-0.2,0-0.4-0.1c0,0-0.1,0.1,0,0.1
					c0.5,0.2,1.1,0.2,1.7,0.4c0.5,0.2,1.1,0.4,1.4,0.9c0,0,0,0,0.1,0c-0.4-0.4-0.9-0.7-1.5-0.8c0,0,0,0,0,0.1
					c0.3,0.1,0.5,0.1,0.8,0.2c0,0,0.1,0,0-0.1c-0.1-0.1-0.3-0.1-0.4-0.2c0,0-0.1,0,0,0.1c0.2,0.1,0.3,0.2,0.4,0.4c0,0,0.1,0,0.1-0.1
					c-0.1-0.1-0.3-0.3-0.4-0.4c0,0,0,0,0,0.1c0.1,0.1,0.3,0.1,0.4,0.2c0,0,0,0,0-0.1c-0.2-0.1-0.5-0.2-0.8-0.2c0,0-0.1,0.1,0,0.1
					c0.5,0.2,1,0.4,1.5,0.8c0,0,0.1,0,0.1,0c-0.3-0.4-0.9-0.6-1.3-0.8c-0.6-0.3-1.2-0.3-1.8-0.5C111.2,31.9,111.2,31.9,111.3,32
					c0,0,0.2,0,0.3,0c0,0,0.1-0.1,0-0.1c-0.2,0-0.3-0.1-0.5-0.1c0,0-0.1,0,0,0.1C111.2,32,111.3,32,111.3,32
					C111.4,32.1,111.4,32,111.3,32c-0.1-0.1,0-0.1-0.1-0.1c0,0-0.1,0,0,0.1C111.2,32,111.2,32.1,111.3,32
					C111.3,32.1,111.4,32.1,111.3,32L111.3,32z"/>
			</g>
			<g>
				<path class="st0" d="M114.5,33.7c0,0,0.1,0,0.1,0c0,0,0,0,0-0.1C114.6,33.6,114.6,33.6,114.5,33.7
					C114.5,33.6,114.6,33.7,114.5,33.7c0.1,0,0.1,0,0.1,0c0,0,0-0.1,0-0.1C114.6,33.6,114.5,33.6,114.5,33.7
					C114.5,33.6,114.5,33.7,114.5,33.7L114.5,33.7z"/>
			</g>
			<g>
				<path class="st0" d="M90.3,33.6C90.3,33.6,90.3,33.6,90.3,33.6C90.2,33.6,90.2,33.6,90.3,33.6C90.3,33.7,90.3,33.7,90.3,33.6
					c0-0.1,0-0.1,0-0.2c0,0,0-0.1-0.1,0C90.3,33.4,90.2,33.5,90.3,33.6C90.3,33.6,90.3,33.6,90.3,33.6c0,0-0.1,0-0.1,0
					C90.2,33.6,90.2,33.7,90.3,33.6C90.3,33.7,90.3,33.6,90.3,33.6c-0.1,0-0.1,0-0.1,0c0,0,0,0.1,0,0.1c0.1,0,0.2,0,0.3,0
					c0,0,0-0.1,0-0.1C90.5,33.6,90.4,33.6,90.3,33.6C90.2,33.6,90.3,33.7,90.3,33.6C90.3,33.7,90.3,33.7,90.3,33.6
					C90.4,33.6,90.3,33.6,90.3,33.6L90.3,33.6C90.3,33.6,90.3,33.6,90.3,33.6L90.3,33.6L90.3,33.6L90.3,33.6
					C90.3,33.7,90.4,33.7,90.3,33.6c0,0,0-0.1,0.1-0.2c0,0,0,0-0.1,0C90.3,33.4,90.3,33.5,90.3,33.6C90.3,33.5,90.3,33.6,90.3,33.6
					c-0.1,0-0.1,0.1,0,0.1s0.1,0,0.1,0C90.4,33.7,90.4,33.6,90.3,33.6L90.3,33.6z"/>
			</g>
		</g>
	</g>
</g>
</svg>
