<?xml version="1.0" encoding="utf-8"?>
<!-- Generator: Adobe Illustrator 24.0.1, SVG Export Plug-In . SVG Version: 6.00 Build 0)  -->
<svg version="1.1" id="Layer_1" xmlns="http://www.w3.org/2000/svg" xmlns:xlink="http://www.w3.org/1999/xlink" x="0px" y="0px"
	 viewBox="0 0 141.7 141.7" style="enable-background:new 0 0 141.7 141.7;" xml:space="preserve">
<style type="text/css">
	.st0{fill:#070707;}
</style>
<g id="Layer_1_1_">
</g>
<g id="Layer_1_2_">
</g>
<g id="Layer_1_3_">
</g>
<g id="Layer_1_4_">
</g>
<g id="Layer_3">
	<g>
		<g>
			<g>
				<g>
					<path class="st0" d="M44.9,97.1c0-1.5,2.8-2.9,7.8-4.1c0-0.1,0-0.2,0-0.3c-5.1,1.1-8.1,2.7-8.1,4.4c0,1.2,1.4,2.3,4.3,3.3
						c0,0,0,0,0,0c0.1-0.1,0.2-0.2,0.2-0.3c0.1-0.1,0.1-0.2,0.2-0.3c-0.1,0.1-0.3,0.2-0.4,0.3C46.2,99.2,44.9,98.1,44.9,97.1z"/>
				</g>
				<g>
					<path class="st0" d="M95.6,92.5c0,0.1,0,0.2,0,0.3c0,0,0,0,0.1,0c5.5,1.1,8.6,2.7,8.6,4.2c0,1-1.3,2-3.9,3
						c-0.1-0.1-0.2-0.3-0.3-0.4c0.1,0.1,0.2,0.2,0.2,0.3c0.1,0.1,0.1,0.2,0.1,0.3c2.7-1,4.1-2.1,4.1-3.3
						C104.6,95.3,101.2,93.7,95.6,92.5z"/>
				</g>
				<g>
					<path class="st0" d="M95.8,101.3c-5.6,1.2-13.3,1.9-21.3,1.9c-8.1,0-15.7-0.7-21.4-1.9c0-0.1,0-0.2,0-0.4
						c-0.1,0.2-0.2,0.3-0.3,0.5c0,0-0.1,0.1-0.1,0.1l0.1,0c5.7,1.2,13.4,2,21.7,2c8.1,0,15.9-0.7,21.5-1.9
						C96,101.5,95.9,101.4,95.8,101.3z"/>
				</g>
			</g>
			<g>
				<g>
					<g>
						<path class="st0" d="M92.5,71.3c-2-3.7-5.7-6.1-9.6-7.2c-5.1-1.4-10.6-0.4-15.8,0.2c-4.2,0.5-8.1,2.5-10.7,5.9
							c-2.8,3.5-3.9,8-4.2,12.4c-0.5,6.3,0.6,12.5,0.6,18.8c0,0.4,0.6,0.4,0.6,0c-0.1-9.3-2.8-20,2-28.6c2.1-3.8,5.7-6.5,9.9-7.5
							c2.4-0.6,4.9-0.7,7.3-0.9c2.4-0.2,4.8-0.5,7.2-0.2c4.9,0.5,9.8,3.1,12.2,7.5C92.1,71.9,92.6,71.6,92.5,71.3L92.5,71.3z"/>
					</g>
				</g>
			</g>
			<g>
				<g>
					<g>
						<path class="st0" d="M66.7,64.9c0.4,0,0.4-0.6,0-0.6C66.4,64.3,66.4,64.9,66.7,64.9L66.7,64.9z"/>
					</g>
				</g>
			</g>
			<g>
				<g>
					<g>
						<path class="st0" d="M53.1,76.7c-3.3-0.3-5.2-3.8-3.2-6.6c0.8-1.1,2-1.8,3.3-2.1c1.4-0.3,3.2-0.2,4.2,0.9
							c0.2,0.3,0.6-0.1,0.4-0.4c-1.1-1.2-2.9-1.3-4.4-1.1c-1.7,0.2-3.3,1.3-4.2,2.7c-2,3.2,0.4,6.8,3.9,7.1
							C53.5,77.4,53.5,76.8,53.1,76.7L53.1,76.7z"/>
					</g>
				</g>
			</g>
			<g>
				<g>
					<g>
						<path class="st0" d="M89.4,67.9c2.3-1.2,6-1.8,7.6,0.7c1.6,2.5,0.7,6.5-2.6,7.1c-0.4,0.1-0.2,0.6,0.2,0.5
							c3.5-0.6,4.6-4.8,3.1-7.7c-1.7-3.1-5.8-2.6-8.5-1.2C88.8,67.6,89.1,68.1,89.4,67.9L89.4,67.9z"/>
					</g>
				</g>
			</g>
			<g>
				<g>
					<g>
						<path class="st0" d="M71,80.6c0.1,0,0.1,0,0.2,0c0-0.1,0-0.2,0-0.3c-1.2,0.5-3.6,1.8-3,3.5c0.2,0.8,1.2,1.2,2,1.4
							c1.6,0.3,3-0.8,4.6-0.7c1.5,0.1,4.4,1.7,4.7-1c0.2-1.9-2.2-3-3.7-3.5c-0.2-0.1-0.2,0.2-0.1,0.3c1.3,0.5,3.7,1.5,3.5,3.2
							c-0.3,2.5-3,0.8-4.4,0.7c-1.9-0.1-4.3,1.7-6,0c-1.5-1.5,1.4-3.2,2.5-3.7c0.1-0.1,0.1-0.3,0-0.3c-0.1,0-0.2,0-0.3,0
							C70.7,80.4,70.8,80.7,71,80.6L71,80.6z"/>
					</g>
				</g>
			</g>
			<g>
				<g>
					<g>
						<path class="st0" d="M76.3,84.9c0.4,0.9,0.5,2,0.3,2.9c-0.2,0.7-0.9,1.2-1.6,1c-0.6-0.1-0.7-0.6-0.9-1.1
							c-0.1-0.2-0.3,0-0.2,0.1c0.2,0.5,0.4,1,0.9,1.2c0.5,0.2,1.1,0,1.5-0.2c1.2-0.8,0.8-3,0.4-4.1C76.5,84.7,76.3,84.8,76.3,84.9
							L76.3,84.9z"/>
					</g>
				</g>
			</g>
			<g>
				<g>
					<g>
						<path class="st0" d="M95.7,98.5c0.5,0.2,1.3,0,1.9,0.1c1.1,0.2,2.1,0.9,2.6,1.9c0.6,1.2,0.1,2.7-1.5,2.4c-1.1-0.2-2-1-2.7-1.7
							c-0.1-0.1-0.3,0.1-0.2,0.2c0.9,0.9,2,1.8,3.3,1.9c0.9,0,1.5-0.5,1.6-1.4c0.1-1.1-0.5-2.1-1.4-2.8c-0.6-0.4-1.3-0.7-2-0.8
							c-0.5-0.1-1.1,0.1-1.6-0.1C95.6,98.2,95.5,98.5,95.7,98.5L95.7,98.5z"/>
					</g>
				</g>
			</g>
			<g>
				<g>
					<g>
						<path class="st0" d="M98.1,101.2c0.7,0.2,1.6,0.8,1.2,1.7c-0.1,0.2,0.2,0.3,0.2,0.1c0.5-1-0.4-1.8-1.4-2.1
							C98,100.9,97.9,101.2,98.1,101.2L98.1,101.2z"/>
					</g>
				</g>
			</g>
			<g>
				<path class="st0" d="M82,80.5c-3.8,0-6.8-3.1-6.8-6.8c0-3.8,3.1-6.8,6.8-6.8c3.8,0,6.8,3.1,6.8,6.8C88.9,77.5,85.8,80.5,82,80.5
					z M82,67.2c-3.6,0-6.5,2.9-6.5,6.5c0,3.6,2.9,6.5,6.5,6.5c3.6,0,6.5-2.9,6.5-6.5C88.5,70.1,85.6,67.2,82,67.2z"/>
			</g>
			<g>
				<path class="st0" d="M65.2,81.3c-3.8,0-6.8-3.1-6.8-6.8c0-3.8,3.1-6.8,6.8-6.8c3.8,0,6.8,3.1,6.8,6.8
					C72.1,78.2,69,81.3,65.2,81.3z M65.2,67.9c-3.6,0-6.5,2.9-6.5,6.5c0,3.6,2.9,6.5,6.5,6.5c3.6,0,6.5-2.9,6.5-6.5
					C71.7,70.8,68.8,67.9,65.2,67.9z"/>
			</g>
			<g>
				<path class="st0" d="M94.8,71.1c0-0.8-0.6-1.4-1.4-1.4S92,70.3,92,71.1s0.6,1.4,1.4,1.4C94.1,72.5,94.8,71.8,94.8,71.1z"/>
			</g>
			<g>
				<circle class="st0" cx="53.8" cy="72.3" r="1.4"/>
			</g>
			<g>
				<path class="st0" d="M76.7,79.9c0-0.9-1.3-1.7-3-1.7c-1.7,0-3,0.7-3,1.7c0,0.9,1.3,1.7,3,1.7C75.3,81.5,76.7,80.8,76.7,79.9z"/>
			</g>
			<g>
				<path class="st0" d="M79.8,73.7c0,1.2,1,2.2,2.2,2.2s2.2-1,2.2-2.2s-1-2.2-2.2-2.2C80.8,71.6,79.8,72.5,79.8,73.7z M83.4,72.9
					c0,0.3-0.3,0.6-0.6,0.6c-0.3,0-0.6-0.3-0.6-0.6c0-0.3,0.3-0.6,0.6-0.6C83.1,72.3,83.4,72.5,83.4,72.9z"/>
			</g>
			<g>
				<path class="st0" d="M63.3,74.4c0,1.2,1,2.2,2.2,2.2s2.2-1,2.2-2.2s-1-2.2-2.2-2.2C64.2,72.3,63.3,73.2,63.3,74.4z M66.8,73.5
					c0,0.3-0.3,0.6-0.6,0.6c-0.3,0-0.6-0.3-0.6-0.6c0-0.3,0.3-0.6,0.6-0.6S66.8,73.2,66.8,73.5z"/>
			</g>
			<g>
				<g>
					<g>
						<path class="st0" d="M73.8,84.5c0.2,0.8,0.1,1.8,0,2.7c0,0.5-0.1,1.1-0.5,1.5c-0.4,0.5-1.3,0.6-1.8,0.1
							c-0.8-0.8-0.6-2.6-0.3-3.7c0-0.2-0.2-0.2-0.3-0.1c-0.4,1.2-0.7,3.8,1,4.3c2.5,0.7,2.3-3.6,2-4.9C74,84.2,73.8,84.3,73.8,84.5
							L73.8,84.5z"/>
					</g>
				</g>
			</g>
			<g>
				<g>
					<g>
						<path class="st0" d="M48.8,102.4c-1.3-0.7,0-2,0.8-2.5c1-0.7,2.1-1.1,3.3-0.9c0.2,0,0.2-0.2,0.1-0.3c-1.5-0.3-3.2,0.4-4.2,1.5
							c-0.8,0.7-1.2,1.8-0.1,2.5C48.8,102.7,48.9,102.4,48.8,102.4L48.8,102.4z"/>
					</g>
				</g>
			</g>
			<g>
				<g>
					<g>
						<path class="st0" d="M49.8,101.4c-0.5,0.2-1,0.6-1,1.2c0,0.5,0.5,0.8,1,0.9c1.3,0.2,2.7-1.2,3.4-2.1c0.1-0.1-0.1-0.3-0.2-0.1
							c-0.5,0.7-1.3,1.4-2.1,1.8c-0.5,0.2-1.4,0.4-1.7-0.2c-0.3-0.5,0.5-1,0.8-1.2C50.1,101.6,49.9,101.4,49.8,101.4L49.8,101.4z"/>
					</g>
				</g>
			</g>
			<g>
				<g>
					<g>
						<path class="st0" d="M91.7,70.9c3.2,4,3.2,9.4,3.3,14.3c0.2,5.4,0.1,10.8,0.3,16.2c0,0.4,0.6,0.4,0.6,0
							c-0.2-5.8-0.1-11.7-0.4-17.5c-0.2-4.7-0.4-9.5-3.4-13.4C91.9,70.2,91.4,70.6,91.7,70.9L91.7,70.9z"/>
					</g>
				</g>
			</g>
			<g>
				<g>
					<g>
						<path class="st0" d="M104.8,97.2c-0.1-2.4-1.1-4.6-2.7-6.3c-0.1,0.1-0.1,0.2-0.2,0.2c2,1.2,2.4,3.9,4,5.4
							c0.1,0.1,0.2,0,0.2-0.1c-0.1-1,0.2-1.8,0.7-2.6c-0.1,0-0.2,0-0.3-0.1c0,0.7,0,1.4,0,2.1c0,0.1,0.1,0.2,0.2,0.1
							c0.3-0.1,0.5-0.3,0.8-0.5c-0.1,0-0.2-0.1-0.2-0.1c-0.1,0.3-0.2,0.6-0.3,0.9c0,0.1,0.1,0.2,0.2,0.2c0.5-0.2,1-0.5,1.5-0.8
							c-0.1-0.1-0.1-0.1-0.2-0.2c-0.2,0.5-0.4,0.9-0.5,1.3c0,0.1,0,0.2,0.1,0.2c0.3,0.5,0.3,1,0,1.4c-0.1,0.1,0,0.2,0.1,0.2
							c1.8,0.2,3.6,0.3,5.3,0.3c0.2,0,0.2-0.3,0-0.3c-1,0-2.1,0-3.1-0.1c-0.4,0-0.9,0-1.3-0.1c-0.7-0.1-0.5,0.1-0.4-0.5
							c0-0.4,0.1-0.5,0-0.9c0-0.1-0.2-0.1-0.2-0.2c-0.1-0.4,0.2-0.8,0.4-1.2c0-0.1-0.1-0.3-0.2-0.2c-0.2,0.2-0.5,0.5-0.8,0.5
							c-0.5,0.1-0.2-0.1-0.1-0.5c0-0.1-0.1-0.2-0.2-0.1c-0.6,0.6-0.5,0.3-0.5-0.2c0-0.4,0-0.9,0-1.3c0-0.2-0.2-0.2-0.3-0.1
							c-0.6,0.8-0.8,1.7-0.8,2.7c0.1,0,0.2-0.1,0.2-0.1c-1.7-1.6-2-4.2-4.1-5.5c-0.1-0.1-0.3,0.1-0.2,0.2c1.6,1.7,2.5,3.8,2.7,6.1
							C104.5,97.3,104.8,97.3,104.8,97.2L104.8,97.2z"/>
					</g>
				</g>
			</g>
			<g>
				<g>
					<g>
						<path class="st0" d="M44.5,97.3c0.1-1.5,0.2-3.1,0.3-4.7c0-0.1-0.2-0.2-0.3-0.1c-1,1.7-1.3,3.5-1.7,5.4c0.1,0,0.2,0,0.3,0
							c-0.1-0.7-0.3-1.5-0.4-2.2c0-0.2-0.2-0.1-0.3,0c-0.2,0.6-0.4,1.2-0.4,1.9c0.1,0,0.2,0,0.3-0.1c-0.2-0.5-0.4-1.1-0.9-1.3
							c0,0-0.1,0-0.1,0c-0.3,0.3-0.3,0.7-0.2,1.2c0,0.2,0.2,0.6,0.2,0.8c0,0.2-0.1,0-0.2,0.3c-0.4,0.8,0,1.3,0.7,1.8
							c0-0.1,0-0.2,0.1-0.3c-1-0.1-2-0.2-3-0.3c-0.2,0-0.2,0.2-0.1,0.3c0.5,0.3,1,0.7,1.5,1c0-0.1,0-0.2,0-0.2
							c-2.4,0.4-4.8,0.7-7.1,1.1c-0.2,0-0.1,0.3,0.1,0.3c2.4-0.4,4.8-0.7,7.1-1.1c0.1,0,0.1-0.2,0-0.2c-0.5-0.3-1-0.7-1.5-1
							c0,0.1,0,0.2-0.1,0.3c1,0.1,2,0.2,3,0.3c0.2,0,0.2-0.2,0.1-0.3c-0.6-0.3-0.7-0.8-0.3-1.6c0.1,0,0.1-0.1,0.1-0.2
							c-0.1-0.4-0.6-1.2-0.2-1.5c0.1-0.3,0.2-0.2,0.3,0.1c0.1,0.2,0.2,0.4,0.3,0.6c0.1,0.1,0.2,0.1,0.3-0.1c0-0.7,0.2-1.2,0.4-1.8
							c-0.1,0-0.2,0-0.3,0c0.1,0.7,0.3,1.5,0.4,2.2c0,0.1,0.2,0.1,0.3,0c0.3-1.8,0.7-3.7,1.6-5.3c-0.1,0-0.2,0-0.3-0.1
							c-0.1,1.5-0.2,3.1-0.3,4.7C44.3,97.5,44.5,97.5,44.5,97.3L44.5,97.3z"/>
					</g>
				</g>
			</g>
			<g>
				<g>
					<g>
						<path class="st0" d="M57.9,105.3c-2.1-0.6-4.3-0.4-6.2,0.7c-0.1,0-0.1,0.2,0,0.2c0.9,0.5,1.9,0.7,3,0.9c1,0.1,2.3,0.4,3.3,0.1
							c1-0.3,1.4-1.9,0.1-1.8c-0.2,0-0.2,0.3,0,0.3c0,1-0.4,1.4-1.1,1.3c-0.2,0-0.5,0-0.8,0c-0.4,0-0.8,0-1.2-0.1
							c-0.5-0.1-2.7-0.2-2.9-0.8c-0.1-0.4,2.5-0.8,2.8-0.9c1-0.1,2,0,2.9,0.3C58,105.6,58,105.3,57.9,105.3L57.9,105.3z"/>
					</g>
				</g>
			</g>
			<g>
				<g>
					<g>
						<path class="st0" d="M59.2,108c-0.6-0.3-1.3-0.3-1.7,0.2c-0.1,0.1,0,0.2,0,0.2c0.6,0.4,1.4,0.4,2.1,0.1c0.1,0,0.1-0.1,0-0.2
							c-0.1-0.3-0.3-0.4-0.6-0.5c-0.2,0-0.2,0.2-0.1,0.3c0.2,0.1,0.3,0.2,0.4,0.4c0-0.1,0-0.1,0-0.2c-0.6,0.3-1.3,0.3-1.8-0.1
							c0,0.1,0,0.2,0,0.2c0.4-0.4,1-0.4,1.4-0.1C59.2,108.3,59.4,108.1,59.2,108L59.2,108z"/>
					</g>
				</g>
			</g>
			<g>
				<g>
					<g>
						<path class="st0" d="M76.4,109.3c-0.5-0.6-1-1.2-1.5-1.8c-0.1,0.1-0.1,0.1-0.2,0.2c0.5,0.5,1.1,0.9,1.7,1.4
							c0.1,0.1,0.2,0,0.2-0.1c0.1-0.4,0.3-0.8,0.4-1.2c-0.1,0-0.2,0-0.3,0c0.1,0.3,0.4,0.6,0.7,0.7c0.2,0,0.5-0.1,0.6,0
							c0.3,0.2,0.3,0.5,0.7,0.6c0.3,0,0.5,0,0.7,0c0.2,0.1,0.5,0.2,0.7,0.3c0.4,0.1,0.8,0.1,1.2,0.1c1,0,2,0.1,3,0
							c2.2,0,4.4-0.2,6.5-0.5c0.2,0,0.1-0.3-0.1-0.3c-1.9,0.3-3.9,0.4-5.8,0.5c-0.9,0-1.7,0-2.6,0c-0.7,0-2.5,0.2-2.9-0.5
							c0-0.1-0.1-0.1-0.2,0c-0.3-0.2-0.7-0.3-1-0.5c0-0.1-0.1-0.2-0.2-0.1c-0.4-0.1-0.7-0.2-1.1-0.3c0-0.1-0.2-0.1-0.3,0
							c-0.2,0.6-0.1,1-0.9,0.6c-0.4-0.2-0.7-0.6-1-0.8c-0.1-0.1-0.3,0.1-0.2,0.2c0.5,0.6,1,1.2,1.5,1.8
							C76.4,109.7,76.6,109.5,76.4,109.3L76.4,109.3z"/>
					</g>
				</g>
			</g>
			<g>
				<g>
					<g>
						<path class="st0" d="M72.5,108.2c-0.2,0.6-0.5,1.2-0.8,1.7c0.1,0,0.2,0,0.2,0c-0.1-0.4-0.2-0.7-0.5-1.1c0-0.1-0.2-0.1-0.2,0
							c-0.3,0.4-0.4,0.6-0.3,1.1c0.1,0,0.2-0.1,0.2-0.1c-0.3-0.3-0.2-0.2-0.6-0.4c-0.1,0-0.2,0-0.2,0.1c-0.2,0.7-1.6,0.5-2.3,0.5
							c-1.1,0-2.2,0-3.2,0c-0.2,0-0.2,0.3,0,0.3c1.9,0.1,3.7,0,5.6-0.1c0.1,0,0.1-0.1,0.1-0.1c0.1,0,0.3,0,0.4,0
							c0.1,0.1,0.2,0,0.2-0.1c0.3-0.3,0.5-0.2,0.4,0.2c0,0.1,0.2,0.1,0.2,0c0.4-0.6,0.6-1.2,0.8-1.8
							C72.8,108.1,72.5,108.1,72.5,108.2L72.5,108.2z"/>
					</g>
				</g>
			</g>
			<g>
				<g>
					<g>
						<path class="st0" d="M73.6,110.1c0.1-1.1,0.1-2.2-0.1-3.2c0-0.2-0.3-0.1-0.3,0.1c0.2,1,0.2,2.1,0.1,3.2
							C73.3,110.3,73.6,110.2,73.6,110.1L73.6,110.1z"/>
					</g>
				</g>
			</g>
			<g>
				<g>
					<g>
						<path class="st0" d="M73.7,110.4c0.1-0.6,0.2-1.2,0.3-1.8c0-0.2-0.2-0.2-0.3-0.1c-0.1,0.6-0.2,1.2-0.3,1.8
							C73.4,110.5,73.7,110.5,73.7,110.4L73.7,110.4z"/>
					</g>
				</g>
			</g>
			<g>
				<path class="st0" d="M48.6,100.3c0,0,1.8-2.1,4.3-1.7l-0.3-5.8l-2.4,0.8l-1.6,0.5l-1.7,0.7l-1.4,0.5l-0.7,0.8l-0.1,1v0.7
					l0.6,0.5l0.7,0.6L48.6,100.3z"/>
			</g>
			<g>
				<g>
					<g>
						<path class="st0" d="M47.1,95C47.1,95,47.1,95,47.1,95c-0.3,0-0.6,0.2-0.6,0.6v0c0,0.4,0.5,0.7,0.9,0.5
							c0.2-0.1,0.3-0.3,0.5-0.4c0.6-0.3,0.2-1.2-0.4-1c-0.2,0-0.4,0.1-0.6,0.2c-0.6,0.3-0.2,1.2,0.4,1c0.1,0,0.2,0,0.3-0.1
							c-0.1-0.4-0.2-0.7-0.3-1.1c-0.1,0-0.1,0.1-0.2,0.1c0.1,0.3,0.3,0.7,0.4,1c1.1-0.6,2.3-1,3.5-1.3c-0.1-0.4-0.2-0.7-0.3-1.1
							c-0.7,0.2-1.3,0.5-1.9,0.9c-0.6,0.4,0,1.4,0.6,1c0.5-0.4,1-0.6,1.7-0.8c0.7-0.2,0.4-1.3-0.3-1.1c-1.3,0.3-2.6,0.7-3.8,1.4
							c-0.5,0.3-0.2,1.3,0.4,1c0.1,0,0.1-0.1,0.2-0.1c0.7-0.3,0.4-1.3-0.3-1.1c-0.1,0-0.2,0-0.3,0.1c0.1,0.3,0.3,0.7,0.4,1
							c0.1,0,0.2-0.1,0.3-0.1c-0.1-0.3-0.3-0.7-0.4-1c-0.2,0.1-0.4,0.3-0.5,0.4c0.3,0.2,0.6,0.3,0.9,0.5v0c-0.2,0.2-0.4,0.4-0.6,0.6
							h0C47.8,96.1,47.8,95,47.1,95L47.1,95z"/>
					</g>
				</g>
			</g>
			<g>
				<g>
					<g>
						<path class="st0" d="M47.5,96.2c0.2-0.1,0.5-0.2,0.7-0.3c0.6-0.3,0.2-1.2-0.4-1c-0.2,0.1-0.5,0.1-0.7,0.2
							c0.1,0.3,0.3,0.7,0.4,1c0.2-0.1,0.4-0.2,0.6-0.4c0.6-0.4,0.2-1.1-0.4-1c-0.1,0-0.2,0-0.4,0c0.1,0.4,0.2,0.7,0.3,1.1
							c0.2-0.2,0.4-0.3,0.7-0.4c0.7-0.3,0.4-1.3-0.3-1.1c-0.3,0.1-0.5,0.2-0.8,0.2c0.1,0.3,0.3,0.7,0.4,1c0.1-0.1,0.3-0.2,0.4-0.2
							c-0.1-0.4-0.2-0.7-0.3-1.1c-0.1,0.1-0.3,0.1-0.4,0.1c0.1,0.3,0.3,0.7,0.4,1c1-0.5,2-0.6,3-1c0.6-0.3,0.2-1.2-0.4-1
							c-0.5,0.1-0.9,0.3-1.4,0.4c0.1,0.4,0.2,0.7,0.3,1.1c0.5-0.2,1-0.4,1.5-0.5c0.7-0.2,0.4-1.2-0.3-1.1c-0.5,0.1-1,0.3-1.5,0.5
							c-0.7,0.3-0.4,1.3,0.3,1.1c0.5-0.1,0.9-0.3,1.4-0.4c-0.1-0.3-0.3-0.7-0.4-1c-0.5,0.2-1.1,0.2-1.6,0.4c-0.5,0.2-1,0.4-1.4,0.6
							c-0.6,0.3-0.2,1.2,0.4,1c0.2,0,0.3-0.1,0.4-0.1c0.7-0.2,0.4-1.3-0.3-1.1c-0.2,0.1-0.5,0.2-0.7,0.3c-0.5,0.3-0.2,1.2,0.4,1
							c0.3-0.1,0.5-0.2,0.8-0.2c-0.1-0.4-0.2-0.7-0.3-1.1c-0.3,0.1-0.6,0.3-1,0.5c-0.4,0.3-0.3,1.1,0.3,1.1c0.2,0,0.5-0.1,0.7-0.1
							c-0.1-0.3-0.3-0.7-0.4-1c-0.2,0.1-0.4,0.2-0.6,0.4C46.5,95.5,46.8,96.4,47.5,96.2c0.2-0.1,0.4-0.2,0.7-0.2
							c-0.1-0.3-0.3-0.7-0.4-1c-0.2,0.1-0.5,0.2-0.7,0.3C46.3,95.5,46.8,96.5,47.5,96.2L47.5,96.2z"/>
					</g>
				</g>
			</g>
			<g>
				<g>
					<g>
						<path class="st0" d="M49,99.5c0.2-0.1,0.4-0.2,0.6-0.3c-0.2-0.3-0.5-0.6-0.7-0.9c-0.2,0.2-0.3,0.3-0.5,0.5c-0.4,0.5,0,1,0.5,1
							c0.2,0,0.3-0.1,0.4-0.1c-0.2-0.3-0.5-0.6-0.7-0.9c-0.2,0.2-0.2,0.3-0.4,0.5c-0.3,0.5,0.3,1,0.8,0.8c0,0,0.1,0,0.1-0.1
							c-0.2-0.2-0.5-0.5-0.8-0.8c0,0-0.1,0.1-0.1,0.1c-0.5,0.4,0.2,1.3,0.7,0.9c0,0,0.1-0.1,0.2-0.1c-0.2-0.2-0.5-0.5-0.8-0.8
							c0,0,0,0.1-0.1,0.1c0.1-0.1,0.2-0.2,0.3-0.2c0,0-0.1,0-0.1,0c0.2,0.3,0.4,0.6,0.5,1c0.5-0.5,1.1-0.8,1.7-1.1
							c-0.2-0.3-0.4-0.7-0.6-1c-0.4,0.2-0.7,0.5-1.1,0.7c-0.6,0.4-0.1,1.3,0.6,1c0.5-0.2,1-0.5,1.5-0.8c0.6-0.4,0.1-1.3-0.6-1
							c-0.3,0.2-0.6,0.3-0.9,0.5c-0.7,0.4-0.1,1.3,0.6,1c0.5-0.2,1.1-0.5,1.6-0.7c-0.1-0.4-0.2-0.7-0.3-1.1c-0.3,0.1-0.7,0.3-1,0.4
							c-0.6,0.2-0.5,1.1,0.2,1.1c0.6,0,1.3-0.4,1.9-0.3c0-0.4,0-0.7,0-1.1c-0.1,0-0.1,0-0.2,0c-0.6,0.2-0.5,0.9,0,1.1
							c0.2,0.1,0.4,0,0.6-0.1c0.7-0.3,0.1-1.3-0.6-1c0,0-0.1,0-0.1,0c0.1,0,0.3,0,0.4-0.1c0,0-0.1,0-0.1,0c0,0.4,0,0.7,0,1.1
							c0.1,0,0.1,0,0.2,0c0.5-0.1,0.6-1,0-1.1C52,97.5,51.4,98,50.7,98c0,0.4,0.1,0.7,0.2,1.1c0.3-0.1,0.7-0.3,1-0.4
							c0.7-0.3,0.4-1.4-0.3-1.1c-0.6,0.2-1.3,0.5-1.9,0.8c0.2,0.3,0.4,0.7,0.6,1c0.3-0.2,0.6-0.3,0.9-0.5c-0.2-0.3-0.4-0.7-0.6-1
							c-0.5,0.3-1,0.6-1.5,0.8c0.2,0.3,0.4,0.7,0.6,1c0.4-0.2,0.7-0.5,1.1-0.7c0.6-0.4,0.1-1.4-0.6-1c-0.7,0.4-1.3,0.8-1.9,1.3
							c-0.4,0.4,0,1.1,0.5,1c0.2-0.1,0.4-0.2,0.5-0.4c0.3-0.5-0.3-1.1-0.8-0.8c0,0-0.1,0.1-0.2,0.1c0.2,0.3,0.5,0.6,0.7,0.9
							c0.1-0.1,0.2-0.2,0.3-0.3c0.3-0.5-0.3-1-0.8-0.8c0,0-0.1,0-0.1,0.1c0.2,0.2,0.5,0.5,0.8,0.8c0.1-0.1,0.1-0.1,0.2-0.2
							c0.5-0.5-0.1-1.2-0.7-0.9c0,0-0.1,0-0.2,0c0.2,0.3,0.4,0.6,0.5,1c0.2-0.2,0.3-0.4,0.5-0.5c0.5-0.5-0.1-1.2-0.7-0.9
							c-0.2,0.1-0.4,0.2-0.6,0.3C47.7,98.9,48.3,99.9,49,99.5L49,99.5z"/>
					</g>
				</g>
			</g>
			<g>
				<g>
					<g>
						<path class="st0" d="M52.7,98C52.7,98,52.7,98,52.7,98c0,0.1,0,0.2,0.1,0.3c0,0,0,0.1,0,0.1c0,0.1-0.1,0.2-0.1,0.2
							c0,0,0,0,0,0c0.2-0.2,0.2-0.6,0-0.8c-0.2-0.2-0.6-0.2-0.8,0c-0.2,0.2-0.2,0.5-0.1,0.8c0.2,0.2,0.5,0.4,0.8,0.2
							C52.8,98.7,52.9,98.3,52.7,98L52.7,98z"/>
					</g>
				</g>
			</g>
			<g>
				<path class="st0" d="M100.2,100.4l1-0.3l1.3-0.6l0.8-0.7l0.7-0.7l0.5-0.5v-0.8l-0.5-0.9l-2.3-1.2l-1.9-0.7c0,0-2.4-0.7-2.5-0.7
					c-0.1,0-1.7-0.4-1.7-0.4l0.1,5.5C95.7,98.4,98.9,98.1,100.2,100.4z"/>
			</g>
			<g>
				<g>
					<g>
						<path class="st0" d="M96.4,93.3c-0.1-0.1-0.2-0.2-0.3-0.3c0,0.1-0.1,0.2-0.1,0.2C96.1,93.3,96.3,93.3,96.4,93.3
							c0,0,0.1-0.1,0.1-0.2c-0.2-0.1-0.4-0.2-0.6-0.2c0,0.1-0.1,0.2-0.1,0.2c0.4,0.1,0.8,0.2,1.2,0.2c0-0.1,0-0.2,0-0.3
							c-0.3,0-0.6-0.1-0.9-0.2c0,0.1,0,0.2-0.1,0.3c1.4,0.5,2.8,0.5,4.1,1.1c1.2,0.5,2.6,1,3.4,2.1c0.1-0.1,0.1-0.1,0.2-0.2
							c-1.1-0.9-2.3-1.6-3.7-2.1c0,0.1,0,0.2-0.1,0.3c0.7,0.2,1.3,0.3,1.9,0.6c0.1,0.1,0.2-0.2,0.1-0.2c-0.3-0.2-0.7-0.3-1-0.5
							c-0.2-0.1-0.3,0.1-0.1,0.2c0.4,0.3,0.7,0.5,1,0.9c0.1,0.1,0.3-0.1,0.2-0.2c-0.3-0.4-0.7-0.7-1-0.9c0,0.1-0.1,0.2-0.1,0.2
							c0.3,0.2,0.7,0.3,1,0.5c0-0.1,0.1-0.2,0.1-0.2c-0.6-0.3-1.2-0.5-1.9-0.6c-0.2,0-0.2,0.2-0.1,0.3c1.3,0.5,2.5,1.1,3.6,2
							c0.1,0.1,0.3,0,0.2-0.2c-0.8-1.1-2.3-1.6-3.5-2.1c-1.3-0.6-2.8-0.7-4.2-1.2c-0.2-0.1-0.2,0.2-0.1,0.3c0.3,0.1,0.6,0.2,0.9,0.2
							c0.2,0,0.2-0.2,0-0.3C96.8,93,96.4,93,96,92.9c-0.2,0-0.2,0.2-0.1,0.2c0.4,0.2,0.2,0.2,0.6,0.3c0.2,0,0.2-0.2,0.1-0.2
							c-0.3-0.1-0.2-0.1-0.5-0.2c-0.1,0-0.2,0.1-0.1,0.2c0.1,0.1,0.2,0.2,0.3,0.3C96.3,93.6,96.5,93.4,96.4,93.3L96.4,93.3z"/>
					</g>
				</g>
			</g>
			<g>
				<g>
					<g>
						<path class="st0" d="M104.4,97.4c0.1,0,0.2-0.1,0.2-0.1c0-0.1-0.1-0.2-0.1-0.2c0,0-0.1,0-0.1,0c-0.2,0.1,0,0.3,0.1,0.2
							c0,0,0.1,0,0.1,0c0.2-0.1,0-0.3-0.1-0.2c-0.1,0-0.2,0.1-0.2,0.1C104,97.3,104.2,97.5,104.4,97.4L104.4,97.4z"/>
					</g>
				</g>
			</g>
			<g>
				<g>
					<g>
						<path class="st0" d="M44.7,97.2c-0.1,0-0.2,0-0.2,0c0,0.1,0,0.2,0,0.3C44.6,97.5,44.7,97.4,44.7,97.2c0.1-0.1,0.1-0.3,0.2-0.5
							c0-0.2-0.2-0.2-0.2-0.1c-0.1,0.2-0.2,0.4-0.2,0.7C44.5,97.3,44.6,97.3,44.7,97.2c0-0.1-0.2-0.2-0.3,0c-0.1,0.1,0,0.3,0.2,0.3
							c0-0.1-0.1-0.2-0.1-0.2c0,0-0.1,0-0.1,0.1c-0.1,0.1-0.1,0.3,0.1,0.3c0.2,0,0.5,0,0.8,0c0.2,0,0.2-0.3,0-0.3
							c-0.2,0-0.5,0-0.8,0c0,0.1,0,0.2,0.1,0.3c0,0,0.1,0,0.1-0.1c0.1-0.1,0-0.3-0.1-0.2c0,0,0,0,0.1,0c0,0,0,0.1,0,0.1v0
							c0,0,0,0.1-0.1,0.1c0,0,0,0,0,0c0,0-0.1,0-0.1,0c0,0,0,0,0,0c0,0,0-0.1,0-0.1v0c0,0.2,0.3,0.2,0.3,0c0-0.2,0-0.4,0.1-0.5
							c-0.1,0-0.2-0.1-0.2-0.1c0,0.1-0.1,0.2-0.1,0.3c0,0.1,0,0.2-0.1,0.3c0,0,0.1,0,0.1,0h0c-0.2,0-0.2,0.3,0,0.3
							c0.1,0,0.2,0,0.3,0C45,97.4,44.9,97.1,44.7,97.2L44.7,97.2z"/>
					</g>
				</g>
			</g>
		</g>
		<g>
			<g>
				<path class="st0" d="M30.3,51.6c0-0.9,1.7-1.7,4.7-2.4c0-0.1,0-0.1,0-0.2c-3,0.7-4.8,1.6-4.8,2.6c0,0.7,0.9,1.4,2.5,2
					c0,0,0,0,0,0c0-0.1,0.1-0.1,0.2-0.2c0,0,0.1-0.1,0.1-0.2c-0.1,0.1-0.2,0.1-0.2,0.2C31.1,52.8,30.3,52.2,30.3,51.6z"/>
			</g>
			<g>
				<path class="st0" d="M60.5,48.9c0,0.1,0,0.1,0,0.2c0,0,0,0,0,0c3.2,0.7,5.1,1.6,5.1,2.5c0,0.6-0.8,1.2-2.3,1.8
					c0-0.1-0.1-0.2-0.2-0.2c0,0.1,0.1,0.1,0.2,0.2c0,0.1,0.1,0.1,0.1,0.2c1.6-0.6,2.5-1.2,2.5-2C65.8,50.5,63.7,49.5,60.5,48.9z"/>
			</g>
			<g>
				<path class="st0" d="M60.6,54.1c-3.3,0.7-7.9,1.1-12.7,1.1c-4.9,0-9.3-0.4-12.7-1.1c0-0.1,0-0.1,0-0.2c0,0.1-0.1,0.2-0.2,0.3
					c0,0,0,0.1-0.1,0.1h0c3.4,0.7,8,1.2,12.9,1.2c4.8,0,9.5-0.4,12.8-1.1C60.7,54.2,60.6,54.1,60.6,54.1z"/>
			</g>
		</g>
		<g>
			<g>
				<g>
					<path class="st0" d="M58.7,36.2c-1.6-2.9-4.8-4.4-7.9-4.7c-2.1-0.2-4.2,0.2-6.3,0.4c-1.6,0.2-3.1,0.4-4.5,1.2
						c-7.5,4.1-5.1,14.1-5.1,21c0,0.4,0.6,0.4,0.6,0c-0.1-6.5-2.5-16,4.2-20.2c1.4-0.9,2.9-1.3,4.6-1.5c1.7-0.2,3.5-0.5,5.3-0.5
						c3.4,0,6.9,1.4,8.7,4.4C58.4,36.8,58.9,36.5,58.7,36.2L58.7,36.2z"/>
				</g>
			</g>
		</g>
		<g>
			<g>
				<g>
					<path class="st0" d="M43.3,32.6c0.4,0,0.4-0.6,0-0.6C42.9,32,42.9,32.6,43.3,32.6L43.3,32.6z"/>
				</g>
			</g>
		</g>
		<g>
			<g>
				<g>
					<path class="st0" d="M35.2,39.4c-1.9-0.2-3-2.2-1.7-3.8c0.9-1.1,3.1-1.8,4.2-0.6c0.2,0.3,0.7-0.1,0.4-0.4
						c-1.5-1.6-4.4-0.6-5.3,1c-1.2,2,0.3,4.1,2.4,4.3C35.6,40,35.6,39.4,35.2,39.4L35.2,39.4z"/>
				</g>
			</g>
		</g>
		<g>
			<g>
				<g>
					<path class="st0" d="M56.8,34.4c1.3-0.7,3.4-1.1,4.4,0.4c1,1.5,0.4,3.7-1.5,4c-0.4,0.1-0.2,0.6,0.2,0.5
						c2.1-0.4,2.9-2.9,1.9-4.7c-1-2-3.6-1.7-5.3-0.8C56.2,34,56.5,34.5,56.8,34.4L56.8,34.4z"/>
				</g>
			</g>
		</g>
		<g>
			<g>
				<g>
					<path class="st0" d="M45.8,41.9c0,0,0.1,0,0.1,0c0-0.1,0-0.2-0.1-0.3c-0.7,0.3-2.1,1-1.9,2.1c0.3,1.7,2.8,0.6,3.7,0.5
						c1,0,2.9,1.1,3.2-0.6c0.2-1.2-1.3-1.9-2.2-2.2c-0.2-0.1-0.2,0.2-0.1,0.3c0.4,0.1,0.7,0.3,1,0.5c0.2,0.1,0.4,0.3,0.6,0.5
						c0.6,0.5,0.4,1.1-0.7,1.7c-0.5,0-1.1-0.4-1.7-0.3c-0.8,0-1.6,0.5-2.4,0.4c-1.1-0.5-1.4-1-0.8-1.6c0.1-0.1,0.2-0.2,0.4-0.4
						c0.3-0.2,0.6-0.4,0.9-0.5c0.2-0.1,0.1-0.3-0.1-0.3c0,0-0.1,0-0.1,0C45.6,41.6,45.7,41.9,45.8,41.9L45.8,41.9z"/>
				</g>
			</g>
		</g>
		<g>
			<g>
				<g>
					<path class="st0" d="M48.9,44.3c0.2,0.5,0.3,1.2,0.2,1.7c-0.1,0.4-0.5,0.7-0.9,0.6c-0.3-0.1-0.4-0.4-0.5-0.6
						c-0.1-0.2-0.3,0-0.2,0.1c0.1,0.3,0.2,0.6,0.6,0.8c0.3,0.1,0.7,0,1-0.2c0.7-0.5,0.5-1.8,0.2-2.5C49.2,44.1,48.9,44.2,48.9,44.3
						L48.9,44.3z"/>
				</g>
			</g>
		</g>
		<g>
			<g>
				<g>
					<path class="st0" d="M60.5,52.5c0.3,0.1,0.7,0,1.1,0.1c0.6,0.1,1.2,0.5,1.5,1.1c0.3,0.7,0.1,1.5-0.8,1.4
						c-0.7-0.1-1.1-0.6-1.6-1c-0.1-0.1-0.3,0.1-0.2,0.2c0.6,0.5,1.2,1.1,2,1.1c0.6,0,1-0.3,1-0.9c0.1-0.7-0.3-1.3-0.8-1.7
						c-0.3-0.2-0.8-0.4-1.2-0.5c-0.3,0-0.7,0.1-0.9,0C60.4,52.1,60.3,52.4,60.5,52.5L60.5,52.5z"/>
				</g>
			</g>
		</g>
		<g>
			<g>
				<g>
					<path class="st0" d="M61.9,54.1c0.4,0.1,0.9,0.5,0.7,0.9c-0.1,0.2,0.2,0.3,0.2,0.1c0.3-0.7-0.2-1.2-0.8-1.4
						C61.8,53.8,61.7,54,61.9,54.1L61.9,54.1z"/>
				</g>
			</g>
		</g>
		<g>
			<path class="st0" d="M52.4,41.8c-2.3,0-4.1-1.9-4.1-4.1s1.9-4.1,4.1-4.1s4.1,1.9,4.1,4.1S54.7,41.8,52.4,41.8z M52.4,33.9
				c-2.1,0-3.8,1.7-3.8,3.8c0,2.1,1.7,3.8,3.8,3.8c2.1,0,3.8-1.7,3.8-3.8C56.2,35.6,54.5,33.9,52.4,33.9z"/>
		</g>
		<g>
			<path class="st0" d="M42.4,42.2c-2.3,0-4.1-1.9-4.1-4.1s1.9-4.1,4.1-4.1c2.3,0,4.1,1.9,4.1,4.1C46.6,40.4,44.7,42.2,42.4,42.2z
				 M42.4,34.3c-2.1,0-3.8,1.7-3.8,3.8c0,2.1,1.7,3.8,3.8,3.8c2.1,0,3.8-1.7,3.8-3.8C46.2,36,44.5,34.3,42.4,34.3z"/>
		</g>
		<g>
			<circle class="st0" cx="59.1" cy="36.1" r="0.8"/>
		</g>
		<g>
			<circle class="st0" cx="35.6" cy="36.9" r="0.8"/>
		</g>
		<g>
			<path class="st0" d="M49.2,41.3c0-0.5-0.8-1-1.8-1s-1.8,0.4-1.8,1s0.8,1,1.8,1S49.2,41.9,49.2,41.3z"/>
		</g>
		<g>
			<path class="st0" d="M51,39c0,0.7,0.6,1.3,1.3,1.3c0.7,0,1.3-0.6,1.3-1.3c0-0.7-0.6-1.3-1.3-1.3C51.6,37.7,51,38.3,51,39z
				 M53.1,38.5c0,0.2-0.2,0.4-0.4,0.4s-0.4-0.2-0.4-0.4s0.2-0.4,0.4-0.4S53.1,38.3,53.1,38.5z"/>
		</g>
		<g>
			<path class="st0" d="M42.1,39.2c0,0.7,0.6,1.3,1.3,1.3c0.7,0,1.3-0.6,1.3-1.3c0-0.7-0.6-1.3-1.3-1.3
				C42.6,37.9,42.1,38.5,42.1,39.2z M44.2,38.7c0,0.2-0.2,0.4-0.4,0.4c-0.2,0-0.4-0.2-0.4-0.4c0-0.2,0.2-0.4,0.4-0.4
				C44,38.3,44.2,38.5,44.2,38.7z"/>
		</g>
		<g>
			<g>
				<g>
					<path class="st0" d="M47.5,44.1c0.1,0.5,0.1,1.1,0,1.6c0,0.3-0.1,0.6-0.2,0.8c-0.2,0.3-0.7,0.3-1,0.1c-0.5-0.5-0.3-1.5-0.2-2.1
						c0-0.2-0.2-0.2-0.3-0.1c-0.2,0.8-0.4,2.3,0.6,2.6c1.5,0.4,1.4-2.2,1.3-3C47.7,43.8,47.4,43.9,47.5,44.1L47.5,44.1z"/>
				</g>
			</g>
		</g>
		<g>
			<g>
				<g>
					<path class="st0" d="M32.6,54.7c-0.7-0.4,0-1.1,0.5-1.4c0.6-0.4,1.2-0.7,1.9-0.5c0.2,0,0.2-0.2,0.1-0.3
						c-0.9-0.2-1.9,0.2-2.6,0.9c-0.5,0.5-0.7,1.2,0,1.5C32.7,55,32.8,54.8,32.6,54.7L32.6,54.7z"/>
				</g>
			</g>
		</g>
		<g>
			<g>
				<g>
					<path class="st0" d="M33.2,54.1c-0.3,0.1-0.6,0.4-0.7,0.7c0,0.3,0.3,0.5,0.6,0.6c0.8,0.1,1.7-0.7,2.1-1.3
						c0.1-0.1-0.1-0.3-0.2-0.1c-0.3,0.4-0.7,0.8-1.2,1c-0.2,0.1-0.7,0.2-0.9-0.1c-0.2-0.3,0.3-0.5,0.5-0.6
						C33.5,54.3,33.4,54,33.2,54.1L33.2,54.1z"/>
				</g>
			</g>
		</g>
		<g>
			<g>
				<g>
					<path class="st0" d="M58,36c1.9,2.5,1.9,5.6,2,8.5c0.1,3.2,0.1,6.4,0.2,9.6c0,0.4,0.6,0.4,0.6,0c-0.2-3.5-0.1-6.9-0.2-10.4
						c-0.1-2.8-0.3-5.6-2-7.9C58.3,35.5,57.8,35.7,58,36L58,36z"/>
				</g>
			</g>
		</g>
		<g>
			<g>
				<g>
					<path class="st0" d="M66,51.6c-0.1-1.5-0.7-2.7-1.7-3.8c-0.1,0.1-0.1,0.2-0.2,0.2c1.2,0.7,1.4,2.3,2.4,3.2
						c0.1,0.1,0.2,0,0.2-0.1c0-0.5,0.1-1.1,0.4-1.5c-0.1,0-0.2,0-0.3-0.1c0,0.4,0,0.8,0,1.3c0,0.1,0.1,0.2,0.2,0.1
						c0.3-0.1,0.2-0.1,0.5-0.3c-0.1,0-0.2-0.1-0.2-0.1c0,0.2-0.1,0.4-0.2,0.5c0,0.1,0.1,0.2,0.2,0.2c0.3-0.1,0.6-0.3,0.9-0.5
						c-0.1-0.1-0.1-0.1-0.2-0.2c-0.2,0.4-0.2,0.4-0.3,0.8c0,0.1,0,0.1,0.1,0.2c0,0.2,0,0.5,0,0.7c-0.1,0.1,0,0.2,0.1,0.2
						c1.1,0.1,2.1,0.2,3.2,0.2c0.2,0,0.2-0.3,0-0.3c-0.5,0-2.6,0.2-2.9-0.2c0.1,0.1,0.1-0.5,0.1-0.5c0-0.6-0.7,0.7,0-1
						c0-0.1-0.1-0.3-0.2-0.2c-0.2,0.2-0.6,0.6-0.5,0.1c0-0.1-0.1-0.2-0.2-0.1c-0.3,0.3-0.2-0.9-0.2-0.9c0-0.2-0.2-0.2-0.3-0.1
						c-0.4,0.5-0.5,1-0.5,1.6c0.1,0,0.2-0.1,0.2-0.1c-1-1-1.2-2.5-2.4-3.3c-0.1-0.1-0.3,0.1-0.2,0.2c1,1,1.5,2.2,1.6,3.6
						C65.7,51.8,66,51.8,66,51.6L66,51.6z"/>
				</g>
			</g>
		</g>
		<g>
			<g>
				<g>
					<path class="st0" d="M30.2,51.7c0.1-0.9,0.1-1.8,0.2-2.8c0-0.1-0.2-0.2-0.3-0.1c-0.6,1-0.8,2.1-1,3.2c0.1,0,0.2,0,0.3,0
						c-0.1-0.4-0.2-0.9-0.2-1.3c0-0.2-0.2-0.1-0.3,0c-0.1,0.4-0.2,0.7-0.3,1.1c0.1,0,0.2,0,0.3-0.1c-0.2-0.3-0.2-0.7-0.6-0.8
						c0,0-0.1,0-0.1,0c-0.3,0.3-0.1,1-0.2,1.3c-0.1,0.6-0.2,0.7,0.4,1.2c0-0.1,0.1-0.2,0.1-0.2c-0.6,0-1.2-0.1-1.8-0.2
						c-0.2,0-0.2,0.2-0.1,0.3c0.3,0.2,0.6,0.4,0.9,0.6c0-0.1,0-0.2,0-0.2c-1.4,0.2-2.8,0.4-4.2,0.6c-0.2,0-0.1,0.3,0.1,0.3
						c1.4-0.2,2.8-0.4,4.2-0.6c0.1,0,0.1-0.2,0-0.2c-0.3-0.2-0.6-0.4-0.9-0.6c0,0.1,0,0.2-0.1,0.3c0.6,0,1.2,0.1,1.8,0.2
						c0.1,0,0.2-0.2,0.1-0.2c-0.3-0.2-0.4-0.5-0.2-0.9c0,0,0.1-0.1,0.1-0.2c-0.1-0.3-0.2-0.6-0.1-0.9c0.1,0.2,0.2,0.4,0.3,0.5
						c0.1,0.1,0.2,0,0.3-0.1c0-0.4,0.1-0.7,0.2-1.1c-0.1,0-0.2,0-0.3,0c0.1,0.4,0.2,0.9,0.2,1.3c0,0.1,0.2,0.1,0.3,0
						c0.2-1.1,0.4-2.2,1-3.1c-0.1,0-0.2,0-0.3-0.1c-0.1,0.9-0.1,1.8-0.2,2.8C29.9,51.9,30.2,51.9,30.2,51.7L30.2,51.7z"/>
				</g>
			</g>
		</g>
		<g>
			<g>
				<g>
					<path class="st0" d="M29.5,56.2c-1.3-0.4-2.6-0.2-3.7,0.4c-0.1,0-0.1,0.2,0,0.2c0.6,0.3,1.2,0.5,1.9,0.5c0.6,0.1,1.5,0.3,2.1,0
						C30.3,57.2,30.4,56.2,29.5,56.2c-0.1,0.1-0.1,0.4,0.1,0.3c0,0.5-0.2,0.7-0.5,0.7c-0.1,0-0.3,0-0.4,0c-0.2,0-0.5,0-0.7,0
						c-0.7-0.1-1.4-0.2-2-0.5c0,0.1,0,0.2,0,0.2c1.1-0.6,2.3-0.7,3.5-0.4C29.6,56.6,29.7,56.3,29.5,56.2L29.5,56.2z"/>
				</g>
			</g>
		</g>
		<g>
			<g>
				<g>
					<path class="st0" d="M36.9,58c-0.4-0.2-0.8-0.2-1.1,0.1c-0.1,0.1,0,0.2,0,0.2c0.4,0.2,0.9,0.3,1.3,0c0.1,0,0.1-0.1,0-0.2
						c-0.1-0.2-0.2-0.3-0.4-0.3c-0.2,0-0.2,0.2-0.1,0.3c0.1,0,0.2,0.1,0.2,0.2c0-0.1,0-0.1,0-0.2c-0.3,0.2-0.7,0.2-1,0
						c0,0.1,0,0.2,0,0.2c0.2-0.2,0.5-0.2,0.8-0.1C36.9,58.3,37,58.1,36.9,58L36.9,58z"/>
				</g>
			</g>
		</g>
		<g>
			<g>
				<g>
					<path class="st0" d="M49.1,58.8c-0.3-0.4-0.6-0.7-0.9-1.1c-0.1,0.1-0.1,0.1-0.2,0.2C48.4,58.3,48.7,58.5,49.1,58.8
						c0,0,0.1,0,0.2-0.1c0.1-0.2,0.2-0.5,0.2-0.7c-0.1,0-0.2,0-0.2,0c0.2,0.4,0.4,0.2,0.8,0.4c0.1,0.1,0.2,0.2,0.4,0.3
						c0.1,0.1,0.3,0,0.4,0c2.2,0.6,4.7,0.2,6.9,0c0.2,0,0.1-0.3-0.1-0.3c-1.2,0.2-2.3,0.3-3.5,0.3c-0.8,0-2.7,0.3-3.2-0.3
						c0,0-0.1,0-0.2,0c-0.2-0.1-0.4-0.2-0.5-0.3c0-0.1-0.1-0.1-0.2-0.1c-0.2,0-0.4-0.1-0.6-0.2c-0.1-0.1-0.2-0.1-0.2,0
						c0,0.4-0.1,0.5-0.4,0.2c-0.2-0.1-0.4-0.2-0.6-0.4c-0.1-0.1-0.3,0.1-0.2,0.2c0.3,0.4,0.6,0.7,0.9,1.1C49,59.2,49.2,59,49.1,58.8
						L49.1,58.8z"/>
				</g>
			</g>
		</g>
		<g>
			<g>
				<g>
					<path class="st0" d="M46.7,58.2c-0.1,0.4-0.3,0.7-0.5,1c0.1,0,0.2,0,0.2,0c-0.1-0.2-0.1-0.5-0.3-0.7c-0.1-0.1-0.2-0.1-0.2,0
						c-0.2,0.2-0.2,0.4-0.2,0.6c0.1,0,0.2-0.1,0.2-0.1c-0.2-0.2-0.2-0.1-0.4-0.2c-0.1,0-0.2,0-0.2,0.1c-0.1,0.5-2.8,0.3-3.2,0.3
						c-0.2,0-0.2,0.3,0,0.3c1.1,0,2.2,0,3.3-0.1c0,0,0.1,0,0.1-0.1c0,0,0.1,0,0.2,0c0.1,0.1,0.2,0,0.2-0.1c0-0.2,0.1-0.3,0.1-0.5
						c-0.1,0-0.2,0-0.2,0c0.1,0.2,0.2,0.4,0.2,0.6c0,0.1,0.2,0.1,0.2,0c0.2-0.3,0.4-0.7,0.5-1.1C47,58.1,46.7,58,46.7,58.2
						L46.7,58.2z"/>
				</g>
			</g>
		</g>
		<g>
			<g>
				<g>
					<path class="st0" d="M47.4,59.3c0.1-0.7,0-1.3-0.1-1.9c0-0.2-0.3-0.1-0.3,0.1c0.1,0.6,0.1,1.2,0.1,1.9
						C47.1,59.5,47.4,59.5,47.4,59.3L47.4,59.3z"/>
				</g>
			</g>
		</g>
		<g>
			<g>
				<g>
					<path class="st0" d="M47.5,59.5c0.1-0.4,0.1-0.7,0.2-1.1c0-0.2-0.2-0.2-0.3-0.1c-0.1,0.4-0.1,0.7-0.2,1.1
						C47.2,59.6,47.5,59.7,47.5,59.5L47.5,59.5z"/>
				</g>
			</g>
		</g>
		<g>
			<path class="st0" d="M32.5,53.5c0,0,1.1-1.2,2.6-1l-0.2-3.4l-1.4,0.5l-1,0.3l-1,0.5l-0.8,0.3l-0.4,0.5l0,0.6v0.4l0.4,0.3l0.5,0.4
				L32.5,53.5z"/>
		</g>
		<g>
			<g>
				<g>
					<path class="st0" d="M32,51.7c0.2-0.1,0.3-0.1,0.5-0.2c0.6-0.3,0.2-1.2-0.4-1c-0.1,0-0.3,0.1-0.4,0.1
						C31.8,50.9,31.9,51.3,32,51.7c0.1-0.1,0.2-0.2,0.4-0.3c0.6-0.4,0.2-1.1-0.4-1c0,0-0.1,0-0.2,0c0.1,0.4,0.2,0.7,0.3,1.1
						c0.1-0.1,0.2-0.2,0.3-0.2c0.7-0.3,0.4-1.3-0.3-1.1c-0.2,0-0.3,0.1-0.5,0.1c0.1,0.3,0.3,0.7,0.4,1c0.1,0,0.1-0.1,0.2-0.1
						c-0.1-0.4-0.2-0.7-0.3-1.1c-0.1,0-0.2,0.1-0.3,0.1c0.1,0.3,0.3,0.7,0.4,1c0.6-0.3,1.2-0.3,1.8-0.6c0.6-0.3,0.2-1.2-0.4-1
						c-0.3,0.1-0.5,0.2-0.8,0.2c0.1,0.4,0.2,0.7,0.3,1.1c0.3-0.1,0.6-0.2,0.9-0.3c0.7-0.2,0.4-1.2-0.3-1.1c-0.3,0.1-0.6,0.2-0.9,0.3
						C32,50.2,32.3,51.2,33,51c0.3-0.1,0.5-0.2,0.8-0.2c-0.1-0.3-0.3-0.7-0.4-1c-0.3,0.1-0.6,0.1-0.9,0.2c-0.3,0.1-0.6,0.2-0.9,0.4
						c-0.6,0.3-0.2,1.2,0.4,1c0.1,0,0.2,0,0.3-0.1c0.7-0.2,0.4-1.3-0.3-1.1c-0.2,0.1-0.3,0.1-0.5,0.2c-0.5,0.3-0.2,1.2,0.4,1
						c0.2,0,0.3-0.1,0.5-0.1c-0.1-0.4-0.2-0.7-0.3-1.1c-0.2,0.1-0.4,0.2-0.6,0.3c-0.4,0.3-0.3,1.1,0.3,1.1c0.2,0,0.3,0,0.5-0.1
						c-0.1-0.3-0.3-0.7-0.4-1c-0.1,0.1-0.2,0.1-0.3,0.2C31,51,31.3,51.9,32,51.7c0,0,0.2-0.1,0.3-0.1c-0.1-0.3-0.3-0.7-0.4-1
						c-0.2,0.1-0.3,0.1-0.5,0.2c-0.3,0.1-0.3,0.5-0.2,0.8C31.4,51.8,31.8,51.8,32,51.7L32,51.7z"/>
				</g>
			</g>
		</g>
		<g>
			<path class="st0" d="M63.2,53.5l0.6-0.2l0.7-0.3l0.5-0.4l0.4-0.4l0.3-0.3v-0.5l-0.3-0.5l-1.4-0.7l-1.1-0.4c0,0-1.4-0.4-1.5-0.4
				c-0.1,0-1-0.2-1-0.2l0,3.3C60.5,52.4,62.4,52.2,63.2,53.5z"/>
		</g>
		<g>
			<g>
				<g>
					<path class="st0" d="M61,49.3c-0.1,0-0.1-0.1-0.2-0.2c0,0.1-0.1,0.2-0.1,0.2c0.1,0,0.2,0.1,0.3,0.1c0-0.1,0-0.2,0.1-0.3
						c-0.1,0-0.2-0.1-0.3-0.2c0,0.1-0.1,0.2-0.1,0.2c0.2,0,0.5,0.1,0.7,0.1c0-0.1,0-0.2,0.1-0.3c-0.2,0-0.4,0-0.5-0.1
						c-0.2,0-0.2,0.2-0.1,0.3c1.5,0.5,3.4,0.6,4.4,1.9c0.1-0.1,0.1-0.1,0.2-0.2c-0.7-0.5-1.4-1-2.2-1.2c0,0.1,0,0.2-0.1,0.3
						c0.4,0.1,0.8,0.2,1.1,0.4c0.2,0.1,0.2-0.2,0.1-0.2c-0.2-0.1-0.4-0.2-0.6-0.3c-0.2-0.1-0.3,0.1-0.1,0.2c0.2,0.1,0.4,0.3,0.6,0.5
						c0.1,0.1,0.3-0.1,0.2-0.2c-0.2-0.2-0.4-0.4-0.6-0.6c0,0.1-0.1,0.2-0.1,0.2c0.2,0.1,0.4,0.2,0.6,0.3c0-0.1,0.1-0.2,0.1-0.2
						c-0.4-0.2-0.7-0.3-1.1-0.4c-0.2,0-0.2,0.2-0.1,0.3c0.8,0.3,1.5,0.7,2.1,1.2c0.1,0.1,0.3-0.1,0.2-0.2c-1.1-1.3-3.1-1.5-4.6-2
						c0,0.1,0,0.2-0.1,0.3c0.2,0.1,0.3,0.1,0.5,0.1c0.2,0,0.2-0.2,0.1-0.3c-0.2,0-0.5-0.1-0.7-0.1c-0.2,0-0.2,0.2-0.1,0.2
						c0.2,0.1,0.2,0.1,0.4,0.2c0.2,0,0.2-0.2,0.1-0.3c-0.1,0-0.2-0.1-0.3-0.1c-0.1,0-0.2,0.1-0.1,0.2c0.1,0,0.1,0.1,0.2,0.2
						C60.9,49.6,61.1,49.4,61,49.3L61,49.3z"/>
				</g>
			</g>
		</g>
		<g>
			<g>
				<g>
					<path class="st0" d="M65.7,51.8c0,0,0.1,0,0.2-0.1c0-0.1-0.1-0.2-0.1-0.2c0,0,0,0,0,0c-0.2,0.1,0,0.3,0.1,0.2c0,0,0,0,0,0
						c0.2-0.1,0-0.3-0.1-0.2c0,0-0.1,0-0.2,0.1C65.4,51.7,65.5,51.9,65.7,51.8L65.7,51.8z"/>
				</g>
			</g>
		</g>
		<g>
			<g>
				<g>
					<path class="st0" d="M30.2,51.6c0,0-0.1,0-0.1,0c0,0.1,0,0.2,0,0.3c0.1,0,0.2-0.1,0.2-0.1c0-0.1,0.1-0.2,0.1-0.3
						c0-0.2-0.2-0.2-0.2-0.1C30,51.4,30,51.5,30,51.7C30.1,51.7,30.2,51.7,30.2,51.6c0.1,0,0-0.1-0.2,0c0,0-0.1,0.1-0.1,0.1
						c0,0.1,0.1,0.2,0.2,0.2c0-0.1-0.1-0.2-0.1-0.2c0,0,0,0-0.1,0c-0.1,0.1-0.1,0.3,0.1,0.3c0.2,0,0.3,0,0.5,0c0.2,0,0.2-0.3,0-0.3
						c-0.2,0-0.3,0-0.5,0c0,0.1,0,0.2,0.1,0.3c0,0,0,0,0.1,0C30.4,51.8,30.3,51.5,30.2,51.6h-0.1C30.1,51.6,30.2,51.6,30.2,51.6
						L30.2,51.6c0,0,0,0.1,0,0.1L30.2,51.6c0,0.1,0,0.2,0,0.2h0c0,0-0.1,0-0.1,0h0c0,0,0,0-0.1-0.1v0C30.1,51.9,30.3,51.9,30.2,51.6
						c0.1,0,0.1-0.1,0.2-0.2c-0.1,0-0.2-0.1-0.2-0.1c0,0,0,0.1-0.1,0.2c0,0,0,0.1,0,0.1c0,0,0.1,0,0.1,0h0c-0.2,0-0.2,0.3,0,0.3
						c0.1,0,0.1,0,0.2,0C30.5,51.8,30.4,51.5,30.2,51.6L30.2,51.6z"/>
				</g>
			</g>
		</g>
		<g>
			<g>
				<path class="st0" d="M89.1,43.2c0-0.5,1-1,2.7-1.4c0,0,0-0.1,0-0.1c-1.7,0.4-2.8,0.9-2.8,1.5c0,0.4,0.5,0.8,1.5,1.1c0,0,0,0,0,0
					c0,0,0-0.1,0.1-0.1c0,0,0-0.1,0.1-0.1c0,0-0.1,0.1-0.1,0.1C89.5,43.9,89.1,43.6,89.1,43.2z"/>
			</g>
			<g>
				<path class="st0" d="M106.5,41.6c0,0,0,0.1,0,0.1h0c1.9,0.4,2.9,0.9,2.9,1.5c0,0.3-0.5,0.7-1.3,1c0,0,0-0.1-0.1-0.1
					c0,0,0.1,0.1,0.1,0.1c0,0,0,0.1,0,0.1c0.9-0.3,1.4-0.7,1.4-1.1C109.5,42.6,108.4,42,106.5,41.6z"/>
			</g>
			<g>
				<path class="st0" d="M106.6,44.6c-1.9,0.4-4.6,0.6-7.3,0.6c-2.8,0-5.4-0.2-7.4-0.7c0,0,0-0.1,0-0.1c0,0-0.1,0.1-0.1,0.2
					c0,0,0,0,0,0h0c2,0.4,4.6,0.7,7.4,0.7C102,45.4,104.7,45.1,106.6,44.6C106.6,44.7,106.6,44.7,106.6,44.6z"/>
			</g>
		</g>
		<g>
			<g>
				<g>
					<path class="st0" d="M105.6,34.2c-0.9-1.6-2.6-2.5-4.4-2.7c-1.3-0.2-2.7,0.1-4,0.2c-0.9,0.1-1.8,0.3-2.6,0.7
						c-4.4,2.4-3,8.2-3,12.2c0,0.4,0.6,0.4,0.6,0c0-3.6-1.4-8.7,2-11.3c1.5-1.2,3.7-1.2,5.5-1.3c2.1-0.1,4.3,0.6,5.4,2.5
						C105.2,34.8,105.7,34.5,105.6,34.2L105.6,34.2z"/>
				</g>
			</g>
		</g>
		<g>
			<g>
				<g>
					<path class="st0" d="M96.5,32.3c0.4,0,0.4-0.6,0-0.6S96.2,32.3,96.5,32.3L96.5,32.3z"/>
				</g>
			</g>
		</g>
		<g>
			<g>
				<g>
					<path class="st0" d="M91.9,36c-1-0.1-1.6-1.2-0.9-2c0.5-0.6,1.7-1,2.2-0.3c0.2,0.3,0.7-0.1,0.4-0.4c-0.9-1-2.7-0.4-3.3,0.6
						c-0.7,1.2,0.2,2.5,1.5,2.7C92.3,36.6,92.3,36.1,91.9,36L91.9,36z"/>
				</g>
			</g>
		</g>
		<g>
			<g>
				<g>
					<path class="st0" d="M104.4,33.3c0.7-0.3,1.8-0.6,2.4,0.2c0.5,0.8,0.2,2-0.8,2.2c-0.4,0.1-0.2,0.6,0.2,0.5
						c1.3-0.3,1.8-1.8,1.2-2.9c-0.6-1.2-2.2-1-3.2-0.5C103.8,33,104.1,33.5,104.4,33.3L104.4,33.3z"/>
				</g>
			</g>
		</g>
		<g>
			<g>
				<g>
					<path class="st0" d="M98,37.6C98.1,37.6,98.1,37.6,98,37.6c0-0.1,0-0.2,0-0.3c-0.5,0.2-1.2,0.6-1.1,1.2c0.2,1,1.6,0.4,2.2,0.4
						c0.6,0,1.7,0.6,1.9-0.4c0.1-0.7-0.8-1.1-1.3-1.3c-0.2-0.1-0.2,0.2-0.1,0.3c0.2,0.1,0.4,0.2,0.6,0.3c0.1,0.1,0.2,0.2,0.3,0.2
						c0.3,0.3,0.2,0.6-0.3,0.9c-0.3,0-0.6-0.2-1-0.2c-0.5,0-0.9,0.3-1.4,0.2c-1.1-0.2-0.5-0.8-0.2-1C97.8,37.7,98,37.7,98,37.6
						c0.3-0.1,0.2-0.3,0-0.3c0,0,0,0-0.1,0C97.8,37.4,97.9,37.7,98,37.6L98,37.6z"/>
				</g>
			</g>
		</g>
		<g>
			<g>
				<g>
					<path class="st0" d="M99.8,39c0.1,0.3,0.2,0.7,0.1,1c0,0.2-0.2,0.4-0.5,0.3c-0.2,0-0.2-0.2-0.2-0.3c-0.1-0.2-0.3,0-0.2,0.1
						c0.1,0.2,0.2,0.4,0.4,0.5s0.4,0,0.6-0.1c0.4-0.3,0.3-1.1,0.2-1.5C100,38.8,99.7,38.9,99.8,39L99.8,39z"/>
				</g>
			</g>
		</g>
		<g>
			<g>
				<g>
					<path class="st0" d="M106.5,43.8c0.2,0.1,0.4,0,0.6,0c0.3,0.1,0.7,0.3,0.8,0.6c0.2,0.4,0,0.8-0.4,0.7c-0.4-0.1-0.6-0.3-0.9-0.6
						c-0.1-0.1-0.3,0.1-0.2,0.2c0.3,0.3,0.7,0.7,1.2,0.7c0.4,0,0.6-0.2,0.7-0.6c0-0.4-0.2-0.8-0.5-1c-0.2-0.1-0.5-0.2-0.7-0.3
						c-0.2,0-0.4,0-0.5,0C106.4,43.4,106.3,43.7,106.5,43.8L106.5,43.8z"/>
				</g>
			</g>
		</g>
		<g>
			<g>
				<g>
					<path class="st0" d="M107.3,44.7c0.2,0.1,0.5,0.2,0.4,0.5c-0.1,0.2,0.2,0.3,0.2,0.1c0.2-0.4-0.1-0.7-0.5-0.9
						C107.2,44.4,107.1,44.6,107.3,44.7L107.3,44.7z"/>
				</g>
			</g>
		</g>
		<g>
			<path class="st0" d="M101.8,37.6c-1.4,0-2.5-1.1-2.5-2.5c0-1.4,1.1-2.5,2.5-2.5c1.4,0,2.5,1.1,2.5,2.5
				C104.3,36.5,103.2,37.6,101.8,37.6z M101.8,33c-1.2,0-2.1,1-2.1,2.1c0,1.2,1,2.1,2.1,2.1c1.2,0,2.1-1,2.1-2.1
				C103.9,34,103,33,101.8,33z"/>
		</g>
		<g>
			<path class="st0" d="M96,37.9c-1.4,0-2.5-1.1-2.5-2.5c0-1.4,1.1-2.5,2.5-2.5c1.4,0,2.5,1.1,2.5,2.5C98.5,36.8,97.4,37.9,96,37.9z
				 M96,33.3c-1.2,0-2.1,1-2.1,2.1c0,1.2,1,2.1,2.1,2.1c1.2,0,2.1-1,2.1-2.1C98.2,34.2,97.2,33.3,96,33.3z"/>
		</g>
		<g>
			<circle class="st0" cx="105.7" cy="34.2" r="0.5"/>
		</g>
		<g>
			<circle class="st0" cx="92.1" cy="34.7" r="0.5"/>
		</g>
		<g>
			<ellipse class="st0" cx="99" cy="37.3" rx="1" ry="0.6"/>
		</g>
		<g>
			<path class="st0" d="M99.6,35.5c0,0.4,0.3,0.7,0.7,0.7s0.7-0.3,0.7-0.7s-0.3-0.7-0.7-0.7C99.9,34.7,99.6,35,99.6,35.5z
				 M100.8,35.2c0,0.1-0.1,0.2-0.2,0.2c-0.1,0-0.2-0.1-0.2-0.2s0.1-0.2,0.2-0.2C100.7,35,100.8,35,100.8,35.2z"/>
		</g>
		<g>
			<path class="st0" d="M94,35.1c0,0.4,0.3,0.7,0.7,0.7s0.7-0.3,0.7-0.7c0-0.4-0.3-0.7-0.7-0.7S94,34.7,94,35.1z M95.3,34.8
				c0,0.1-0.1,0.2-0.2,0.2c-0.1,0-0.2-0.1-0.2-0.2s0.1-0.2,0.2-0.2C95.2,34.6,95.3,34.7,95.3,34.8z"/>
		</g>
		<g>
			<g>
				<g>
					<path class="st0" d="M98.9,38.9c0,0.3,0,0.6,0,0.9c0,0.3-0.2,0.8-0.6,0.5c-0.3-0.3-0.2-0.9-0.1-1.2c0-0.2-0.2-0.2-0.3-0.1
						c-0.1,0.5-0.2,1.4,0.4,1.6c0.9,0.3,0.9-1.3,0.8-1.8C99.1,38.6,98.9,38.7,98.9,38.9L98.9,38.9z"/>
				</g>
			</g>
		</g>
		<g>
			<g>
				<g>
					<path class="st0" d="M90.4,44.9c-0.4-0.2,0.1-0.6,0.3-0.7c0.3-0.2,0.7-0.4,1.1-0.3c0.2,0,0.2-0.2,0.1-0.3
						c-0.5-0.1-1.1,0.2-1.5,0.5c-0.3,0.3-0.5,0.7,0,1C90.5,45.3,90.6,45,90.4,44.9L90.4,44.9z"/>
				</g>
			</g>
		</g>
		<g>
			<g>
				<g>
					<path class="st0" d="M90.7,44.6c-0.2,0.1-0.4,0.2-0.4,0.5s0.2,0.4,0.4,0.4c0.5,0.1,1-0.4,1.2-0.8c0.1-0.1-0.1-0.3-0.2-0.1
						c-0.2,0.2-0.4,0.5-0.7,0.6c-0.1,0-0.4,0.1-0.5,0c0-0.1,0.2-0.2,0.2-0.3C91,44.8,90.9,44.5,90.7,44.6L90.7,44.6z"/>
				</g>
			</g>
		</g>
		<g>
			<g>
				<g>
					<path class="st0" d="M104.9,34.3c1.1,1.5,1.1,3.2,1.1,4.9c0.1,1.8,0,3.6,0.1,5.4c0,0.4,0.6,0.4,0.6,0c-0.1-2.1,0-4.2-0.2-6.3
						c-0.1-1.5-0.2-3-1.2-4.3C105.2,33.7,104.7,34,104.9,34.3L104.9,34.3z"/>
				</g>
			</g>
		</g>
		<g>
			<g>
				<g>
					<path class="st0" d="M109.7,43.2c-0.1-0.9-0.4-1.6-1-2.2c-0.1,0.1-0.1,0.2-0.2,0.2c0.7,0.4,0.8,1.3,1.4,1.9
						c0.1,0.1,0.2,0,0.2-0.1c0-0.3,0-0.6,0.2-0.8c-0.1,0-0.2,0-0.3-0.1c0,0.2,0,0.5,0,0.7c0,0.1,0.1,0.2,0.2,0.1
						c0.2-0.1,0.2-0.1,0.3-0.2c-0.1,0-0.2-0.1-0.2-0.1c0,0.1-0.1,0.2-0.1,0.3c0,0.1,0.1,0.2,0.2,0.2c0.2-0.1,0.3-0.2,0.5-0.3
						c-0.1-0.1-0.1-0.1-0.2-0.2c-0.1,0.2-0.1,0.3-0.2,0.5c0,0.1,0,0.1,0.1,0.2c0,0.1,0,0.2,0,0.3c-0.1,0.1,0,0.2,0.1,0.2
						c0.6,0.1,1.2,0.1,1.8,0.1c0.2,0,0.2-0.3,0-0.3c-0.6,0-1.2,0-1.8-0.1c0,0.1,0.1,0.1,0.1,0.2c0.2-0.4,0-0.6,0.2-1
						c0-0.1-0.1-0.3-0.2-0.2c-0.1,0.1-0.3,0.2-0.5,0.3c0.1,0,0.1,0.1,0.2,0.2c0-0.1,0.1-0.2,0.1-0.3c0-0.1-0.1-0.2-0.2-0.1
						c-0.1,0-0.2,0.1-0.2,0.2c0.1,0,0.1,0.1,0.2,0.1c0-0.2,0-0.5,0-0.7c0-0.1-0.2-0.2-0.3-0.1c-0.2,0.3-0.3,0.6-0.3,1
						c0.1,0,0.2-0.1,0.2-0.1c-0.6-0.6-0.7-1.4-1.4-1.9c-0.1-0.1-0.3,0.1-0.2,0.2c0.5,0.6,0.8,1.2,0.9,2
						C109.5,43.4,109.7,43.4,109.7,43.2L109.7,43.2z"/>
				</g>
			</g>
		</g>
		<g>
			<g>
				<g>
					<path class="st0" d="M89,43.3c0-0.5,0.1-1.1,0.1-1.6c0-0.1-0.2-0.2-0.3-0.1c-0.3,0.6-0.5,1.2-0.6,1.9c0.1,0,0.2,0,0.3,0
						c0-0.2-0.1-0.5-0.2-0.7c0-0.2-0.2-0.1-0.3,0C88,42.9,88,43.1,88,43.4c0.1,0,0.2,0,0.3-0.1c-0.1-0.2-0.2-0.4-0.4-0.5
						c0,0-0.1,0-0.1,0c-0.2,0.2-0.1,0.5-0.1,0.8c0,0.4-0.1,0.5,0.2,0.7c0-0.1,0.1-0.2,0.1-0.2c-0.3,0-0.7-0.1-1-0.1
						c-0.2,0-0.2,0.2-0.1,0.3c0.2,0.1,0.3,0.2,0.5,0.3c0-0.1,0-0.2,0-0.2c-0.8,0.1-1.6,0.2-2.5,0.4c-0.2,0-0.1,0.3,0.1,0.3
						c0.8-0.1,1.6-0.2,2.5-0.4c0.1,0,0.1-0.2,0-0.2c-0.2-0.1-0.3-0.2-0.5-0.3c0,0.1,0,0.2-0.1,0.3c0.3,0,0.7,0.1,1,0.1
						c0.1,0,0.2-0.2,0.1-0.2c0-0.1-0.1-0.3-0.1-0.4c0,0,0.1-0.1,0.1-0.2c-0.3-0.9-0.1-0.4,0-0.2c0.1,0.1,0.2,0,0.3-0.1
						c0-0.2,0.1-0.4,0.1-0.6c-0.1,0-0.2,0-0.3,0c0,0.2,0.1,0.5,0.2,0.7c0,0.1,0.2,0.1,0.3,0c0.1-0.6,0.2-1.2,0.5-1.8
						c-0.1,0-0.2,0-0.3-0.1c0,0.5-0.1,1.1-0.1,1.6C88.7,43.4,89,43.4,89,43.3L89,43.3z"/>
				</g>
			</g>
		</g>
		<g>
			<g>
				<g>
					<path class="st0" d="M100.5,51.8c-0.7-0.2-1.5-0.1-2.2,0.2c-0.1,0-0.1,0.2,0,0.2c0.3,0.2,0.7,0.3,1.1,0.3c0.3,0,0.9,0.2,1.2,0
						C101,52.5,101,51.8,100.5,51.8c-0.1,0.1-0.1,0.3,0,0.3c0,0.2-0.2,0.3-0.3,0.3c-0.1,0-0.2,0-0.2,0c-0.1,0-0.3,0-0.4,0
						c-0.4,0-0.8-0.1-1.1-0.3c0,0.1,0,0.2,0,0.2c0.6-0.3,1.3-0.4,2-0.2C100.5,52.2,100.6,51.9,100.5,51.8L100.5,51.8z"/>
				</g>
			</g>
		</g>
		<g>
			<g>
				<g>
					<path class="st0" d="M104.4,49c-0.2-0.1-0.5-0.1-0.7,0.1c-0.1,0.1,0,0.2,0,0.2c0.2,0.2,0.6,0.2,0.8,0c0.1,0,0.1-0.1,0-0.2
						c0-0.1-0.2-0.2-0.3-0.2c-0.2,0-0.2,0.2-0.1,0.3c0,0,0.1,0,0.1,0.1C104.3,49.2,104.3,49.1,104.4,49c-0.2,0.2-0.4,0.1-0.6,0
						c0,0.1,0,0.2,0,0.2c0.1-0.1,0.2-0.1,0.4,0C104.4,49.3,104.5,49,104.4,49L104.4,49z"/>
				</g>
			</g>
		</g>
		<g>
			<g>
				<g>
					<path class="st0" d="M100,47.3c-0.2-0.2-0.3-0.4-0.5-0.6c-0.1,0.1-0.1,0.1-0.2,0.2C99.5,47.1,99.6,47.2,100,47.3
						c0,0.1,0.1,0.1,0.1,0c0-0.1,0.1-0.3,0.1-0.4c-0.1,0-0.2,0-0.2,0c0.2,0.2,0.5,0.4,0.8,0.5c1.2,0.5,2.9,0.1,4.1,0
						c0.2,0,0.2-0.3,0-0.3c-0.9,0.1-1.9,0.2-2.8,0.2c-0.1,0-1.4-0.1-1.5-0.3c0-0.1-0.1-0.1-0.2-0.1c-0.1,0-0.2,0-0.3-0.1
						c-0.1-0.1-0.2-0.1-0.2,0c-0.2,0-0.3-0.1-0.5-0.1c-0.1-0.1-0.3,0.1-0.2,0.2c0.2,0.2,0.3,0.4,0.5,0.6
						C99.9,47.7,100.1,47.5,100,47.3L100,47.3z"/>
				</g>
			</g>
		</g>
		<g>
			<g>
				<g>
					<path class="st0" d="M98.5,47c-0.1,0.2-0.2,0.4-0.3,0.6c0.1,0,0.2,0,0.2,0c0-0.2-0.1-0.3-0.2-0.4c-0.1-0.1-0.2-0.1-0.2,0
						c-0.1,0.1-0.1,0.2-0.1,0.4c0.1,0,0.2-0.1,0.2-0.1c-0.1-0.1-0.1-0.1-0.2-0.2c-0.1,0-0.2,0-0.2,0.1c0,0.2-1.6,0.1-1.8,0.1
						c-0.2,0-0.2,0.3,0,0.3c0.6,0,1.3,0,1.9,0c0,0,0.1,0,0.1-0.1c0-0.1,0-0.1,0-0.2c-0.1,0-0.1,0-0.2,0.1c0.1,0,0.1,0.1,0.2,0.1
						c0.1,0.1,0.2,0,0.2-0.1c0-0.1,0-0.2,0.1-0.2c-0.1,0-0.2,0-0.2,0c0.1,0.1,0.1,0.2,0.1,0.3c0,0.1,0.2,0.1,0.2,0
						c0.1-0.2,0.2-0.4,0.3-0.6C98.8,46.9,98.5,46.8,98.5,47L98.5,47z"/>
				</g>
			</g>
		</g>
		<g>
			<g>
				<g>
					<path class="st0" d="M99,47.6c0-0.4,0-0.7,0-1.1c0-0.2-0.3-0.1-0.3,0.1c0.1,0.3,0.1,0.7,0,1C98.7,47.8,99,47.8,99,47.6L99,47.6
						z"/>
				</g>
			</g>
		</g>
		<g>
			<g>
				<g>
					<path class="st0" d="M99,47.8c0-0.2,0.1-0.4,0.1-0.6c0-0.2-0.2-0.2-0.3-0.1c0,0.2-0.1,0.4-0.1,0.6C98.7,47.9,99,48,99,47.8
						L99,47.8z"/>
				</g>
			</g>
		</g>
		<g>
			<path class="st0" d="M90.4,44.3c0,0,0.6-0.7,1.5-0.6l-0.1-2L90.9,42l-0.6,0.2l-0.6,0.2l-0.5,0.2L89,42.9l0,0.3v0.2l0.2,0.2
				l0.2,0.2L90.4,44.3z"/>
		</g>
		<g>
			<path class="st0" d="M108.1,44.3l0.3-0.1l0.4-0.2l0.3-0.2l0.2-0.2l0.2-0.2v-0.3l-0.2-0.3l-0.8-0.4l-0.7-0.2c0,0-0.8-0.2-0.9-0.2
				c0,0-0.6-0.1-0.6-0.1l0,1.9C106.5,43.6,107.6,43.5,108.1,44.3z"/>
		</g>
		<g>
			<g>
				<g>
					<path class="st0" d="M106.8,41.8c0,0-0.1-0.1-0.1-0.1c0,0.1-0.1,0.2-0.1,0.2c0.1,0,0.1,0,0.2,0
						C106.8,41.9,106.8,41.8,106.8,41.8c-0.1-0.1-0.1-0.1-0.2-0.2c0,0.1-0.1,0.2-0.1,0.2c0.1,0,0.3,0,0.4,0.1c0-0.1,0-0.2,0.1-0.3
						c-0.1,0-0.2,0-0.3-0.1c-0.2,0-0.2,0.2-0.1,0.3c0.8,0.3,2,0.3,2.5,1.1c0.1-0.1,0.1-0.1,0.2-0.2c-0.4-0.3-0.8-0.6-1.3-0.7
						c0,0.1,0,0.2-0.1,0.3c0.2,0,0.4,0.1,0.7,0.2c0.2,0.1,0.2-0.2,0.1-0.2c-0.1-0.1-0.2-0.1-0.3-0.2c-0.2-0.1-0.3,0.1-0.1,0.2
						c0.1,0.1,0.2,0.2,0.3,0.3c0.1,0.1,0.3-0.1,0.2-0.2s-0.2-0.2-0.4-0.3c0,0.1-0.1,0.2-0.1,0.2c0.1,0.1,0.2,0.1,0.3,0.2
						c0-0.1,0.1-0.2,0.1-0.2c-0.2-0.1-0.4-0.2-0.7-0.2c-0.2,0-0.2,0.2-0.1,0.3c0.4,0.2,0.8,0.4,1.2,0.7c0.1,0.1,0.3-0.1,0.2-0.2
						c-0.6-0.8-1.8-0.9-2.7-1.2c0,0.1,0,0.2-0.1,0.3c0.1,0,0.2,0.1,0.3,0.1c0.2,0,0.2-0.2,0.1-0.3c-0.1,0-0.3,0-0.4-0.1
						c-0.2,0-0.2,0.2-0.1,0.2c0.1,0.1,0.1,0.1,0.2,0.1C106.9,42,107,41.8,106.8,41.8c0-0.1-0.1-0.1-0.2-0.1c-0.1,0-0.2,0.1-0.1,0.2
						c0,0,0.1,0.1,0.1,0.1C106.8,42.1,107,41.9,106.8,41.8L106.8,41.8z"/>
				</g>
			</g>
		</g>
		<g>
			<g>
				<g>
					<path class="st0" d="M109.5,43.4C109.5,43.4,109.6,43.4,109.5,43.4c0-0.1,0-0.2,0-0.3c0,0,0,0,0,0
						C109.3,43.2,109.4,43.4,109.5,43.4C109.6,43.4,109.6,43.4,109.5,43.4c0.2-0.1,0.1-0.4,0-0.3c0,0-0.1,0-0.1,0
						C109.2,43.2,109.3,43.5,109.5,43.4L109.5,43.4z"/>
				</g>
			</g>
		</g>
		<g>
			<g>
				<g>
					<path class="st0" d="M89,43.1C89,43.1,88.9,43.1,89,43.1c0,0.1,0,0.2,0,0.3c0.1,0,0.2-0.2,0.2-0.3c0-0.2-0.2-0.2-0.2-0.1
						c0,0.1-0.1,0.2-0.1,0.3c0.1,0,0.2,0,0.3,0C89.1,43.1,89,43.1,89,43.1c-0.1,0-0.2,0-0.2,0.1c0,0.1,0.1,0.2,0.2,0.2
						C89,43.3,89,43.2,89,43.1c-0.1,0-0.1,0-0.1,0c-0.1,0.1-0.1,0.3,0.1,0.3c0.1,0,0.2,0,0.3,0c0.2,0,0.2-0.3,0-0.3
						C89.1,43.1,89,43.1,89,43.1c0,0.1,0,0.2,0,0.3c0,0,0,0,0,0C89.2,43.3,89.1,43.1,89,43.1L89,43.1C89,43.1,89,43.1,89,43.1
						L89,43.1c0.1,0.1,0.1,0.1,0.1,0.2l0,0c0,0,0,0.1-0.1,0.1l0,0c0,0-0.1,0-0.1,0l0,0c0,0,0,0-0.1-0.1l0,0c0,0.2,0.3,0.1,0.3,0
						c0,0,0-0.1,0-0.1c-0.1,0-0.2-0.1-0.2-0.1c0,0,0,0.1-0.1,0.2C88.9,43.2,88.9,43.1,89,43.1C88.9,43.1,88.9,43.1,89,43.1
						c-0.2,0-0.2,0.3,0,0.3c0,0,0.1,0,0.1,0C89.2,43.4,89.2,43.1,89,43.1L89,43.1z"/>
				</g>
			</g>
		</g>
		<g>
			<g>
				<g>
					<path class="st0" d="M60.5,40.2c0.3,1.1,0.5,2.2,0.8,3.3c0,0.1,0.2,0.1,0.3,0c0.3-1.2,0.9-2.3,1.5-3.4c-0.1,0-0.2,0-0.2,0
						c0.2,0.7,0.3,1.5,0.3,2.3c0,0.1,0.1,0.2,0.2,0.1c0.5-0.3,0.9-0.7,1.1-1.3c-0.1,0-0.2,0-0.3,0c0,0.4,0.1,0.7,0.1,1.1
						c0,0.1,0.1,0.2,0.2,0.1c0.7-0.3,1.1-0.7,1.4-1.4c-0.1,0-0.2,0-0.3,0c0.1,0.4,0.2,0.7,0.2,1.1c0,0.1,0.2,0.1,0.2,0.1
						c0.3-0.2,0.5-0.5,0.9-0.4c0.2,0.1,0.6,0.6,0.8,0.7c0,0,0.2,0.1,0.2,0c2.7-3,5.4-6.1,8.1-9.1c-0.1,0-0.2-0.1-0.2-0.1
						c-0.9,3.4-4.8,5.7-4.2,9.6c0,0.1,0.2,0.1,0.2,0.1c0.5-0.5,1.1-1.7,1.6-1.9c0.3-0.1,0.6,0,1-0.1c0.3-0.1,0.6-0.3,0.8-0.5
						c-0.1,0-0.2-0.1-0.2-0.1c0,0.5,0.1,1.1,0.1,1.6c0,0.1,0.1,0.2,0.2,0.1c0.4-0.2,0.8-0.5,1.2-0.7c0.1-0.1,0.4-0.5,0.5-0.4
						c0.2,0,0.4,0.7,0.4,0.8c0,0.1,0.1,0.1,0.2,0.1c0.7-0.5,1.3-1.1,1.8-1.9c-0.1,0-0.2,0-0.2,0c0.2,1,1.7,1.1,2.2,0.2
						c-0.1,0-0.2,0-0.2,0c0.4,0.8,0.8,1.6,1.9,1.5c0.5-0.1,0.2-0.1,0.7,0c0.4,0.1,0.7,0.2,1.1,0.1c2.9-0.7,1.6-4.1,0.6-5.8
						c-0.1,0.1-0.1,0.1-0.2,0.2c1.6,0.9,2.7,2.1,3.5,3.8c0,0.1,0.2,0.1,0.2,0c0.3-1.7,0.6,0.2,0.6,0.5c0,0.1,0.1,0.1,0.2,0.1
						c0.5-0.2,1-0.2,1.5,0.1c0.2,0.1,0.3-0.2,0.1-0.2c-0.4-0.2-0.6-0.2-1.1-0.3c-0.3,0-0.3,0.2-0.6-0.1c-0.2-0.1-0.2-0.9-0.2-1.1
						c0-0.1-0.1-0.1-0.2-0.1c-0.4,0.3-0.6,0.6-0.7,1.1c0.1,0,0.2,0,0.2,0c-0.8-1.7-2-3-3.6-3.9c-0.1-0.1-0.3,0.1-0.2,0.2
						c0.7,1.1,1.5,2.5,1.2,3.8C86,41,84.4,42,83.4,41.1c0,0-0.1-0.1-0.2,0c-1,1-1.7-0.6-1.9-1.1c0-0.1-0.2-0.1-0.2,0
						c-0.3,0.7-1.4,0.6-1.6-0.2c0-0.1-0.2-0.1-0.2,0c-0.3,0.4-0.6,1-1,1.2c-0.7,0.5-0.7,0.1-0.9-0.5c0-0.1-0.2-0.1-0.2-0.1
						c-0.3,0.3-1,1.1-1.4,1.1c-0.5,0-0.3-0.8-0.3-1.3c0-0.1-0.2-0.2-0.2-0.1c-0.5,0.5-1.2,0.7-1.9,0.5c-0.1,0-0.1,0-0.2,0.1
						c-0.2,0.4-0.5,1.2-0.9,1.5c-0.2,0.4-0.3,0.3-0.3-0.1c0-0.4,0-0.7,0.1-1.1c0.2-1,0.8-2,1.4-2.9c1.1-1.5,2.3-2.9,2.7-4.7
						c0-0.1-0.1-0.2-0.2-0.1c-1.5,1.7-3,3.4-4.5,5.1c-0.7,0.8-1.4,1.6-2.1,2.4C69,41,68.4,42,68,42.1c-0.5,0.2-0.8-0.3-1.1-0.7
						c-0.1,0-0.1,0-0.2,0C66,42,66,41.9,65.8,41.1c0-0.2-0.2-0.1-0.3,0c-0.1,0.6-0.5,0.9-1.1,1c0-0.2-0.1-0.5-0.1-0.7
						c0-0.2-0.2-0.2-0.3,0c-0.1,0.5-0.3,0.8-0.8,0.8c0-0.2,0-0.5-0.1-0.8c0-0.4-0.1-0.8-0.2-1.2c0-0.1-0.2-0.1-0.2,0
						c-0.7,1.1-1.2,2.2-1.5,3.5c0.1,0,0.2,0,0.3,0c-0.2-1.1-0.5-2.2-0.8-3.3C60.7,40,60.5,40,60.5,40.2L60.5,40.2z"/>
				</g>
			</g>
		</g>
		<g>
			<g>
				<g>
					<path class="st0" d="M113.1,43.9c0.4-1.4,0.6-2.9,0.8-4.4c-0.1,0-0.2,0-0.3,0c0,0.9,0.3,2,0.9,2.6c0.2,0.3,0.5,0.5,0.9,0.5
						c0.2,0,0.3-0.1,0.4-0.1c0.4-0.1,0.3-0.1,0.8,0c0.1,0,0.3,0.1,0.4,0.1c0.4,0,0.7-0.3,1.1-0.3s0.6,0.1,1,0.2c1,0.3,2,0.2,3,0.3
						c2.5,0.1,5,0.1,7.5,0.1c0.2,0,0.2-0.3,0-0.3c-2.6,0-5.2,0.1-7.8-0.1c-1.1-0.1-2.2-0.2-3.2-0.5c-0.9-0.2-1.7,0.4-2.5,0
						c-0.1,0-0.1,0-0.2,0c-1.5,1.2-2.1-1.5-2.2-2.5c0-0.2-0.3-0.2-0.3,0c-0.1,1.5-0.4,2.9-0.7,4.3C112.8,44,113.1,44.1,113.1,43.9
						L113.1,43.9z"/>
				</g>
			</g>
		</g>
		<g>
			<g>
				<g>
					<path class="st0" d="M34.6,43.3c-0.3-0.7-0.6-1.3-0.9-2c0-0.1-0.2-0.1-0.2,0c-0.2,0.6-0.4,1.1-0.7,1.7
						c-0.2,0.3-0.8,1.5-1.1,1.5c-0.6-0.1-1.2-2.2-1.4-2.7c0-0.1-0.2-0.1-0.2,0c-0.7,1.9-2.4,3.1-4.4,3.1c-0.9,0-1.9-0.2-2.7-0.7
						c-0.7-0.4-1.5-1.2-2.4-1.2c-0.4,0-0.7,0.1-1.1,0.4c-1,0.8-1.8,1.4-3.2,1.5c-2.4,0.2-4.7-0.9-7.1-1.2c-0.2,0-0.2,0.2-0.1,0.3
						c2.5,0.3,4.8,1.5,7.3,1.2c0.9-0.1,1.8-0.4,2.5-1c0.5-0.4,1-0.9,1.7-0.8c0.6,0.1,1.3,0.7,1.8,1c2.8,1.7,6.5,0.6,7.6-2.5
						c-0.1,0-0.2,0-0.2,0c0.5,1,0.9,2,1.4,3c0,0.1,0.2,0.1,0.2,0c1-1,1.7-2.2,2.1-3.5c-0.1,0-0.2,0-0.2,0c0.3,0.7,0.6,1.3,0.9,2
						C34.4,43.6,34.7,43.5,34.6,43.3L34.6,43.3z"/>
				</g>
			</g>
		</g>
	</g>
</g>
</svg>
