<?xml version="1.0" encoding="utf-8"?>
<!-- Generator: Adobe Illustrator 24.0.1, SVG Export Plug-In . SVG Version: 6.00 Build 0)  -->
<svg version="1.1" id="Layer_1" xmlns="http://www.w3.org/2000/svg" xmlns:xlink="http://www.w3.org/1999/xlink" x="0px" y="0px"
	 viewBox="0 0 141.7 141.7" style="enable-background:new 0 0 141.7 141.7;" xml:space="preserve">
<style type="text/css">
	.st0{fill:#070707;}
</style>
<g id="Layer_1_1_">
</g>
<g id="Layer_1_2_">
</g>
<g id="Layer_1_3_">
</g>
<g id="Layer_1_4_">
</g>
<g id="Layer_1_5_">
</g>
<g id="Layer_3">
</g>
<g id="Layer_3_1_">
</g>
<g id="Layer_4">
	<g>
		<g>
			<path class="st0" d="M69.3,47.8c-0.2-4.8,2.7-9.2,6.6-12c2.4-1.7,5.2-2.8,7.9-4c2.7-1.2,5.3-2.4,8.3-2.6
				c9.5-0.5,15.3,7.9,19.1,15c1.1,2.1,2.2,4.2,3.3,6.3c1.7,3.1,3.7,6.1,5.8,8.9c2,2.7,4,5.4,5,8.6c0.9,2.8,0.9,5.9,0.2,8.8
				c-0.1,0.3-0.6,0.2-0.5-0.1c0.7-3,0.6-5.9-0.3-8.8c-1-3-3-5.6-4.8-8.1c-1.9-2.6-3.7-5.2-5.2-7.9c-1.1-1.9-2.1-4-3.2-5.9
				c-4-7.7-9.9-16.9-20.2-16.1c-2.9,0.2-5.5,1.6-8,2.8c-2.4,1.1-4.8,2-6.9,3.5c-3.8,2.7-6.7,7.1-6.6,11.8
				C69.8,48.2,69.3,48.2,69.3,47.8L69.3,47.8z"/>
		</g>
		<g>
			<path class="st0" d="M123.4,81c-1.8,3.4-5.5,5.5-8.9,7.2c-1.8,0.9-3.6,1.6-5.5,2.3c-2.1,0.8-4.4,1.9-6.7,1.9
				c-0.3,0-0.3-0.5,0-0.5c2.3,0,4.5-1.1,6.5-1.8c1.8-0.7,3.6-1.4,5.4-2.3c3.4-1.6,6.9-3.7,8.7-7C123.1,80.4,123.5,80.7,123.4,81
				L123.4,81z"/>
		</g>
		<g>
			<path class="st0" d="M103.8,33.9c2-1.9,2.2-4.6-0.2-6.2c-1.1-0.7-2.4-0.8-3.6-0.6c-1.3,0.2-3.2,1.2-3.6,2.6
				c-0.1,0.3-0.6,0.2-0.5-0.1c0.4-1.5,2.1-2.3,3.4-2.8c1.4-0.5,3-0.3,4.4,0.4c1.2,0.6,2,1.8,2.2,3.1c0.3,1.6-0.6,3-1.7,4
				C104,34.5,103.6,34.1,103.8,33.9L103.8,33.9z"/>
		</g>
		<g>
			<path class="st0" d="M70.1,43.8c-2.2,0.1-5,1.1-5.7,3.3c-0.9,3,2.3,6.3,5.4,5.1c0.3-0.1,0.4,0.4,0.1,0.5
				c-3.3,1.2-6.2-1.8-6.2-4.9c0-3,3.7-4.4,6.3-4.5C70.5,43.3,70.5,43.8,70.1,43.8L70.1,43.8z"/>
		</g>
		<g>
			<path class="st0" d="M91.1,45.2c-0.1,0-0.1,0-0.2,0.1c0-0.1-0.1-0.2-0.1-0.2c1.3-0.2,3.4-0.2,4.1,1.1c0.3,0.6-0.1,1.5-0.6,1.9
				c-0.8,0.8-1.9,1-3,1.3c-1.3,0.4-2,1.2-2.9,2.1c-0.6,0.6-1.3,0.8-2.1,0.4c-2.2-1-0.2-3.8,0.7-4.9c0.1-0.1,0.3,0,0.2,0.2
				c-0.6,0.7-1.1,1.5-1.4,2.3c-0.5,1.2,0.5,3,2,2.2c0.6-0.3,1.1-1,1.6-1.5c0.4-0.4,0.9-0.6,1.4-0.8c0.7-0.3,1.5-0.4,2.2-0.7
				c0.9-0.3,2.2-1.4,1.6-2.5c-0.6-1.1-2.7-1-3.7-0.9c-0.2,0-0.2-0.2-0.1-0.2c0.1,0,0.2-0.1,0.2-0.1C91.2,44.9,91.3,45.1,91.1,45.2
				L91.1,45.2z"/>
		</g>
		<g>
			<path class="st0" d="M88.9,51c0.2,0.9,0.6,1.7,1.2,2.4c0.4,0.4,0.9,0.6,1.5,0.4c0.6-0.2,0.9-1,0.5-1.5c-0.1-0.1,0.1-0.3,0.2-0.2
				c0.9,0.9-0.3,2.1-1.4,2C89.6,54,88.8,52,88.6,51C88.6,50.8,88.9,50.8,88.9,51L88.9,51z"/>
		</g>
		<g>
			<path class="st0" d="M125.4,77c-2.1,0.2-1.7,2.6-2.3,3.9c0-0.1-0.1-0.1-0.2-0.2c2-0.8,5.8,1.2,6.7-1.3c0.9-2.5-3.4-2.5-4.9-2.4
				c-0.2,0-0.2-0.2,0-0.2c1.6-0.1,5.2-0.2,5.2,2.1c0,3.4-5.1,1.3-7,2.1c-0.1,0-0.2-0.1-0.2-0.2c0.7-1.5,0.3-3.9,2.6-4.1
				C125.5,76.7,125.5,77,125.4,77L125.4,77z"/>
		</g>
		<g>
			<path class="st0" d="M129.4,79.6c-0.3-1-1.4-1.3-2.4-1.3c-0.2,0-0.2-0.2,0-0.2c1.1-0.1,2.4,0.3,2.7,1.5
				C129.7,79.7,129.5,79.8,129.4,79.6L129.4,79.6z"/>
		</g>
		<g>
			<path class="st0" d="M102.6,92.3c-1.4-1-3.8-1.3-4.9,0.2c-0.7,1-0.7,2.5-0.2,3.6c0.7,1.5,2.2,1.3,3.1,0.1
				c0.9-1.2,0.7-2.9,1.3-4.2c0.1-0.2,0.3,0,0.2,0.1c-0.8,1.8-0.4,4-2.4,5.2c-1.1,0.7-2.2-0.2-2.6-1.2c-0.5-1.2-0.5-2.9,0.4-3.9
				c1.3-1.5,3.6-1.2,5.1-0.1C102.8,92.1,102.7,92.3,102.6,92.3L102.6,92.3z"/>
		</g>
		<g>
			<path class="st0" d="M98.9,94.4c-0.2,0.9-0.2,2,0.3,2.9c0.1,0.1-0.2,0.3-0.2,0.1c-0.5-0.9-0.5-2-0.3-3
				C98.7,94.2,99,94.2,98.9,94.4L98.9,94.4z"/>
		</g>
		<g>
			<path class="st0" d="M74.9,62.6c-1.1-0.7-2.3-1.2-3.6-0.6c-0.9,0.4-1.4,1.2-0.7,2.1c0.4,0.4,1,0.6,1.5,0.8
				c0.9,0.2,1.9-0.2,2.8-0.2c0.7,0,1.4,0.4,2,0.7c0.1,0.1,0,0.3-0.1,0.2c-0.8-0.6-1.8-0.7-2.8-0.6c-0.5,0.1-1.1,0.2-1.6,0.1
				c-1-0.1-2-0.6-2.3-1.6c-0.3-0.9,0.8-1.6,1.4-1.9c1.2-0.5,2.6,0.1,3.6,0.7C75.1,62.5,75,62.7,74.9,62.6L74.9,62.6z"/>
		</g>
		<g>
			<path class="st0" d="M72.3,63.5c-0.6-0.3-1.7-0.5-1.9,0.4c0,0.2-0.3,0.1-0.2-0.1c0.3-1,1.5-0.9,2.3-0.5
				C72.6,63.4,72.4,63.6,72.3,63.5L72.3,63.5z"/>
		</g>
		<g>
			<path class="st0" d="M78.9,51.1c-2.2,0-4.3-1.1-5.5-3c-0.9-1.4-1.1-3.1-0.7-4.7c0.4-1.6,1.5-3,2.9-3.9c3-1.8,7-0.8,8.8,2.2
				c0.9,1.4,1.1,3.1,0.7,4.7c-0.4,1.6-1.5,3-2.9,3.9C81.1,50.8,80,51.1,78.9,51.1z M78.9,39c-1.1,0-2.1,0.3-3.1,0.8
				c-1.4,0.8-2.4,2.1-2.8,3.6c-0.4,1.5-0.1,3.1,0.7,4.4c1.7,2.8,5.5,3.7,8.4,2c1.4-0.8,2.4-2.1,2.8-3.6c0.4-1.5,0.1-3.1-0.7-4.4
				C83,40,80.9,39,78.9,39z"/>
		</g>
		<g>
			<path class="st0" d="M92.8,43.8c-2.2,0-4.3-1.1-5.5-3l0,0c-0.9-1.4-1.1-3.1-0.7-4.7c0.4-1.6,1.5-3,2.9-3.9c3-1.8,7-0.8,8.8,2.2
				c0.9,1.4,1.1,3.1,0.7,4.7c-0.4,1.6-1.5,3-2.9,3.9C95,43.6,93.9,43.8,92.8,43.8z M87.5,40.6c1.7,2.8,5.5,3.7,8.4,2
				c1.4-0.8,2.4-2.1,2.8-3.6c0.4-1.5,0.1-3.1-0.7-4.4c-1.7-2.8-5.5-3.7-8.4-2c-1.4,0.8-2.4,2.1-2.8,3.6
				C86.5,37.7,86.7,39.3,87.5,40.6z"/>
		</g>
		<g>
			<path class="st0" d="M67.3,48.7c-0.4-0.6-0.2-1.4,0.5-1.8c0.6-0.4,1.4-0.2,1.8,0.4c0.4,0.6,0.2,1.4-0.5,1.8
				C68.5,49.5,67.7,49.3,67.3,48.7z"/>
		</g>
		<g>
			<path class="st0" d="M99.7,31.4c-0.4-0.6-0.2-1.4,0.5-1.8c0.6-0.4,1.4-0.2,1.8,0.4c0.4,0.6,0.2,1.4-0.5,1.8
				C100.9,32.2,100.1,32,99.7,31.4z"/>
		</g>
		<g>
			<path class="st0" d="M86.2,47.2c-0.4-0.7,0.3-1.9,1.6-2.7c1.3-0.8,2.8-0.8,3.2-0.1c0.4,0.7-0.3,1.9-1.6,2.7
				C88.1,47.9,86.6,47.9,86.2,47.2z"/>
		</g>
		<g>
			<path class="st0" d="M76.7,46c1-0.6,2.2-0.2,2.8,0.7c0.6,0.9,0.3,2.2-0.7,2.7c-1,0.6-2.2,0.2-2.8-0.7S75.8,46.6,76.7,46z
				 M77.8,49.2c0.3-0.2,0.4-0.5,0.2-0.8c-0.2-0.3-0.5-0.4-0.8-0.2c-0.3,0.2-0.4,0.5-0.2,0.8C77.1,49.3,77.5,49.3,77.8,49.2z"/>
		</g>
		<g>
			<path class="st0" d="M91.7,38.8c1-0.6,2.2-0.2,2.8,0.7c0.6,0.9,0.3,2.2-0.7,2.7c-1,0.6-2.2,0.2-2.8-0.7
				C90.5,40.6,90.8,39.4,91.7,38.8z M92.8,42c0.3-0.2,0.4-0.5,0.2-0.8c-0.2-0.3-0.5-0.4-0.8-0.2c-0.3,0.2-0.4,0.5-0.2,0.8
				C92.1,42.1,92.5,42.2,92.8,42z"/>
		</g>
		<g>
			<path class="st0" d="M90.7,49.5c0.4,0.8,0.8,1.6,1.3,2.3c0.4,0.6,1,1,1.7,0.9c0.4-0.1,0.7-0.3,0.8-0.7c0.3-1-0.8-2.4-1.5-3.1
				c-0.1-0.1,0.1-0.3,0.2-0.2c0.8,0.8,2.1,2.5,1.3,3.7c-0.4,0.6-1.4,0.6-2,0.3c-1.1-0.5-1.7-2.1-2.2-3.1
				C90.4,49.4,90.6,49.3,90.7,49.5L90.7,49.5z"/>
		</g>
		<g>
			<path class="st0" d="M114.4,50.8c1.1-0.9,2.6-1.1,4-0.8c1.1,0.2,2,0.9,1.4,1.9c-0.1,0.1-0.3,0-0.2-0.1c0.8-1.3-1.2-1.6-2-1.6
				c-1.1-0.1-2.2,0.2-3,0.9C114.5,51.1,114.3,50.9,114.4,50.8L114.4,50.8z"/>
		</g>
		<g>
			<path class="st0" d="M118.3,51.5c0.5,0,1.1,0,1.5,0.5c0.2,0.4-0.2,0.9-0.5,1.1c-0.4,0.3-1.1,0.3-1.6,0.3c-0.5,0-1.1,0-1.6-0.2
				c-0.2-0.1-0.1-0.3,0.1-0.2c0.6,0.2,1.3,0.2,2,0.2c0.4,0,0.7-0.1,1-0.2c0.5-0.3,0.4-0.9-0.1-1.1c-0.2-0.1-0.5-0.1-0.8-0.1
				C118.2,51.8,118.2,51.5,118.3,51.5L118.3,51.5z"/>
		</g>
		<g>
			<path class="st0" d="M71.6,56.3c0,0,0.1-0.1,0.1-0.2l0,0c-1.3-2.8-2.3-5.9-2.1-9.1c0-0.3-0.5-0.3-0.5,0c-0.2,3.3,0.8,6.5,2.2,9.5
				C71.5,56.5,71.6,56.4,71.6,56.3z"/>
		</g>
		<g>
			<path class="st0" d="M97.6,91.9c-2.1-1.2-4.2-1.9-6-3.5c-1.7-1.6-3.1-3.5-4.4-5.5c-2.5-4-4.7-8.1-6.9-12.2c-2-3.6-4.2-7-6.3-10.4
				v0.6c0,0.1,0,0.2-0.1,0.3c2,3.3,4,6.5,5.9,9.8c2.4,4.4,4.7,8.9,7.6,13.1c1.2,1.9,2.7,3.6,4.4,5.1c1.6,1.4,3.7,2.1,5.5,3.1
				C97.6,92.5,97.9,92.1,97.6,91.9z"/>
		</g>
		<g>
			<g>
				<g>
					<path class="st0" d="M94.1,40.5c0,0,0.1,0,0.1,0c0.4,0,0.4-0.6,0-0.6c0,0-0.1,0-0.1,0C93.8,39.9,93.8,40.5,94.1,40.5
						c0,0,0.1,0,0.1,0c0.4,0,0.4-0.6,0-0.6c0,0-0.1,0-0.1,0C93.8,39.9,93.8,40.5,94.1,40.5L94.1,40.5z"/>
				</g>
			</g>
		</g>
		<g>
			<g>
				<g>
					<path class="st0" d="M24.5,108.8c12.7-0.4,25.4-0.4,38.1,0c0.1,0,0.1-0.1,0.1-0.1c0-1.1,0.1-2.1,0.4-3.2c-0.1,0-0.2,0-0.2,0
						c0.6,1,1.1,2.1,1.5,3.2c0,0.1,0.1,0.1,0.1,0.1c6.6,0.2,13.2,0.4,19.8,1c0.1,0,0.2-0.1,0.1-0.2c-0.4-0.8-2,0-0.1,0.2
						c0.1,0,0.2-0.1,0.1-0.2c-0.1-0.3-0.2-0.6-0.2-0.9c-0.1-0.7,1-1.1,1.1-1.3c-0.1,0.3-0.3,0.4-0.4,0.8c-0.1,0.7,0.3,1.2,0.8,1.6
						c0.8,0.6,1.5,0.4,2.5,0.4c1.5,0,3,0,4.6,0c5.9,0,11.9,0,17.8,0c0.1,0,0.2-0.1,0.1-0.2c-0.3-0.7-0.5-1.5-0.8-2.2
						c-0.1,0-0.2,0.1-0.2,0.1c1,1.1,2.2,1.5,3.6,1.7c1.8,0.2,3.7,0.3,5.5,0.4c1.7,0.1,3.4,0.3,5,0.3c1.1,0,3.1-0.4,4.1,0.4
						c0.1,0.1,0.3-0.1,0.2-0.2c-0.7-0.6-1.7-0.6-2.6-0.6c-1.4,0-2.7,0.1-4.1,0c-2.1-0.2-4.3-0.3-6.4-0.5c-1.9-0.1-3.9-0.3-5.2-1.8
						c-0.1-0.1-0.3,0-0.2,0.1c0.2,0.4,0.5,1,0.5,1.5c0.2,0.2,0.2,0.4,0,0.6c-0.3,0-0.6,0-0.9,0c-1.2,0-2.3,0-3.5,0
						c-2.3,0-4.6,0-6.9,0c-2.3,0-4.6,0-6.9,0c-1.2,0-2.3,0-3.5,0c-0.6,0-1.3,0.1-1.9,0c-0.8-0.2-2.1-1.6-0.9-2.4
						c0.1,0,0.1-0.2,0-0.2c-1.1-0.8-1.9,0.5-1.8,1.5c0,0.1,0,0.2,0.1,0.3c0.2,0.2,0.2,0.4-0.1,0.3c0,0-0.4,0.1,0,0.1
						c-0.7,0-1.5-0.1-2.2-0.2c-1.4-0.1-2.9-0.2-4.3-0.3c-2.8-0.2-5.6-0.3-8.3-0.4c-0.7,0-1.4,0-2.1-0.1c-0.6,0-1.6,0.2-2.1-0.2
						c-0.4-0.2-0.5-0.9-0.7-1.3c-0.3-0.6-0.6-1.2-0.9-1.7c-0.1-0.1-0.2-0.1-0.2,0c-0.2,0.7-0.4,1.3-0.4,2c0,0.4,0.1,0.9-0.3,1.1
						c-0.2,0.1-1.1,0-1.3,0c-1.7,0-3.5-0.1-5.3-0.1c-3.4-0.1-6.9-0.1-10.3-0.1c-6.9,0-13.9,0.1-20.8,0.3
						C24.3,108.5,24.3,108.8,24.5,108.8L24.5,108.8z"/>
				</g>
			</g>
		</g>
		<g>
			<g>
				<g>
					<path class="st0" d="M24.1,108.4c0-0.1,0.6-1.5,0.7-1.7c0.2-0.6,0.4-1.1,0.6-1.7c0-0.1,0-0.2-0.1-0.2c-2.6-0.2-3,3.5-5.2,4.2
						c-0.9,0.3-2,0-2.9-0.1c-1.1-0.1-2.2-0.3-3.3-0.4c-0.5-0.1-1-0.1-1.5-0.2c-0.2,0-1.3,0-1.5-0.2c-0.3-0.4,1-2.3,1.3-2.7
						c4-7.1,8.3-13.9,13-20.5c2.7-3.8,5.6-7.6,8.5-11.3c0.1-0.1-0.1-0.3-0.2-0.2C24.8,84.4,17,96,10.4,108.2c0,0.1,0,0.2,0.1,0.2
						c2.2,0.3,4.4,0.5,6.7,0.8c1.5,0.2,3,0.4,4.2-0.6c1-0.9,1.5-2.2,2.5-3c0.1-0.1,1.1-0.8,1.2-0.5c0.1,0.2-0.4,1.1-0.4,1.3
						c-0.2,0.5-0.8,1.5-0.7,2c0,0,0.1,0.1,0.1,0.1c0.1,0,0.2,0,0.3-0.1c0.1,0,0.1-0.1,0-0.2c0,0,0,0,0-0.1
						C24.3,108.1,24.1,108.2,24.1,108.4L24.1,108.4z"/>
				</g>
			</g>
		</g>
		<g>
			<g>
				<g>
					<path class="st0" d="M33.8,73.4c0.3-2,0.2-4.6,1.3-6.4c0.6-0.9,1.6-1.5,2.7-1.7c0.9-0.2,1.9-0.1,2.4,0.8
						c0.3,0.5,0.4,1.1,0.5,1.6c0.2,1.2,0.2,2.5-0.2,3.6c-0.1,0.5-0.3,0.9-0.5,1.4c-0.3,0.6-1.3,2.4-2.3,1c-0.6-0.8-0.5-2.6-0.2-3.4
						c0.3-0.9,1.1-1.9,2.1-1.5c0.8,0.4,1,0.9,0.8,1.6c-0.1,0.8-0.7,0.9-1.6,0.3c0.1-0.2-0.2-0.2-0.3-0.1c-0.3,0.7,0.5,1.3,1.2,1.1
						c0.9-0.3,1.3-1.6,1-2.4c-0.4-0.9-1.6-1-2.3-0.6c-1.3,0.8-1.3,2.5-1.1,3.8c0.1,0.8,0.4,2.1,1.5,2c1.2-0.1,1.8-1.7,2.1-2.7
						c0.7-2.2,0.8-7.2-2.6-6.8c-4.2,0.5-4.1,5.1-4.5,8.4C33.5,73.6,33.8,73.6,33.8,73.4L33.8,73.4z"/>
				</g>
			</g>
		</g>
		<g>
			<g>
				<g>
					<path class="st0" d="M38.7,74.6C49.1,72.8,59.6,72.2,70,73c0.2,0,0.2-0.3,0-0.3c-10.5-0.8-21-0.2-31.4,1.6
						C38.5,74.4,38.5,74.6,38.7,74.6L38.7,74.6z"/>
				</g>
			</g>
		</g>
		<g>
			<g>
				<g>
					<path class="st0" d="M73.7,73.4c2.6-0.6,5.1-0.3,7.6,0.2c0.2,0,0.2-0.2,0.1-0.3c-2.6-0.5-5.1-0.8-7.8-0.2
						C73.5,73.2,73.5,73.5,73.7,73.4L73.7,73.4z"/>
				</g>
			</g>
		</g>
		<g>
			<g>
				<g>
					<path class="st0" d="M37.2,65.7c11.1-0.5,22.3-0.6,33.4-0.3c0.2,0,0.2-0.3,0-0.3c-11.1-0.3-22.3-0.2-33.4,0.3
						C37,65.4,37,65.7,37.2,65.7L37.2,65.7z"/>
				</g>
			</g>
		</g>
		<g>
			<g>
				<g>
					<path class="st0" d="M128.5,110.8c-4.5-7.9-9.5-15.4-15-22.5c-0.1-0.1-0.3,0.1-0.2,0.2c5.5,7.1,10.5,14.7,15,22.5
						C128.3,111.1,128.6,110.9,128.5,110.8L128.5,110.8z"/>
				</g>
			</g>
		</g>
		<g>
			<g>
				<g>
					<path class="st0" d="M101,97.2c1.1-1.2,3.3-1.1,4.9-1.2c1.6-0.1,3.2-0.2,4.8-0.2c0.2,0,0.2-0.3,0-0.3c-2,0-4.1,0.1-6.1,0.3
						c-1.3,0.1-2.8,0.1-3.8,1.1C100.6,97.1,100.8,97.3,101,97.2L101,97.2z"/>
				</g>
			</g>
		</g>
		<g>
			<g>
				<g>
					<path class="st0" d="M101.5,97.6c1,0.1,1.9,0.1,2.9,0.2c0.2,0,0.2-0.3,0-0.3c-1-0.1-1.9-0.1-2.9-0.2
						C101.3,97.3,101.3,97.6,101.5,97.6L101.5,97.6z"/>
				</g>
			</g>
		</g>
		<g>
			<g>
				<g>
					<path class="st0" d="M97.3,96.9c-1.5-1.7-3.5-2.8-5.8-3c-0.2,0-0.2,0.3,0,0.3c2.2,0.3,4.2,1.3,5.6,3
						C97.2,97.2,97.4,97,97.3,96.9L97.3,96.9z"/>
				</g>
			</g>
		</g>
		<g>
			<g>
				<g>
					<path class="st0" d="M35.2,73.1c0.4,0,0.7,0,1,0c0.2,0,0.2-0.3,0-0.3c-0.4,0-0.7,0-1,0C35,72.8,35,73.1,35.2,73.1L35.2,73.1z"
						/>
				</g>
			</g>
		</g>
		<g>
			<g>
				<g>
					<path class="st0" d="M42.3,71.9c8.9-1.4,17.8-1.7,26.8-0.9c0.2,0,0.2-0.3,0-0.3c-9-0.8-18-0.5-26.9,0.9
						C42,71.7,42.1,72,42.3,71.9L42.3,71.9z"/>
				</g>
			</g>
		</g>
		<g>
			<g>
				<g>
					<path class="st0" d="M13,108c0.9-0.1,1.8-0.1,2.7-0.2c0.2,0,0.2-0.3,0-0.3c-0.9,0.1-1.8,0.1-2.7,0.2
						C12.8,107.8,12.8,108,13,108L13,108z"/>
				</g>
			</g>
		</g>
		<g>
			<g>
				<g>
					<path class="st0" d="M27.7,107.8c6.2-0.6,12.5-0.7,18.7-0.4c0.2,0,0.2-0.3,0-0.3c-6.2-0.3-12.5-0.2-18.7,0.4
						C27.6,107.5,27.5,107.8,27.7,107.8L27.7,107.8z"/>
				</g>
			</g>
		</g>
		<g>
			<g>
				<g>
					<path class="st0" d="M65.7,108.1c3.5,0.1,7.1,0.1,10.6,0c0.2,0,0.2-0.3,0-0.3c-3.5,0.1-7.1,0-10.6,0
						C65.6,107.9,65.6,108.1,65.7,108.1L65.7,108.1z"/>
				</g>
			</g>
		</g>
		<g>
			<g>
				<g>
					<path class="st0" d="M89,108.8c4.7,0.1,9.4,0,14.1-0.4c0.2,0,0.2-0.3,0-0.3c-4.7,0.4-9.4,0.5-14.1,0.4
						C88.8,108.5,88.8,108.8,89,108.8L89,108.8z"/>
				</g>
			</g>
		</g>
		<g>
			<g>
				<g>
					<path class="st0" d="M113.5,108.8c2.8,0.2,5.5,0.2,8.3,0c0.2,0,0.2-0.3,0-0.3c-2.8,0.1-5.5,0.1-8.3,0
						C113.3,108.5,113.3,108.8,113.5,108.8L113.5,108.8z"/>
				</g>
			</g>
		</g>
		<g>
			<g>
				<g>
					<path class="st0" d="M28.2,82.5c-5.8,7.6-11.1,15.7-15.7,24.1c-0.1,0.2,0.2,0.3,0.2,0.1c4.6-8.4,9.9-16.4,15.7-24.1
						C28.6,82.5,28.4,82.3,28.2,82.5L28.2,82.5z"/>
				</g>
			</g>
		</g>
		<g>
			<g>
				<g>
					<path class="st0" d="M114.7,93.8c3.9,4.8,7.3,10.1,10,15.7c0.1,0.2,0.3,0,0.2-0.1c-2.7-5.6-6.1-10.9-10-15.7
						C114.8,93.5,114.6,93.6,114.7,93.8L114.7,93.8z"/>
				</g>
			</g>
		</g>
		<g>
			<g>
				<g>
					<path class="st0" d="M61.2,91.7c5.8-0.2,11.6-0.3,17.4,0c0.2,0,0.2-0.3,0-0.3c-5.8-0.2-11.6-0.2-17.4,0
						C61,91.5,61,91.8,61.2,91.7L61.2,91.7z"/>
				</g>
			</g>
		</g>
		<g>
			<g>
				<g>
					<path class="st0" d="M61.8,91.3c5.3-0.6,10.7-0.6,16,0c0.2,0,0.2-0.3,0-0.3c-5.3-0.6-10.7-0.6-16,0
						C61.6,91,61.6,91.3,61.8,91.3L61.8,91.3z"/>
				</g>
			</g>
		</g>
		<g>
			<g>
				<g>
					<path class="st0" d="M71.1,61.9c0-1.7-0.4-3.6,0.5-5.1c0.4-0.6,0.9-1.2,1.6-0.8c0.8,0.4,0.8,1.4,0.8,2.2c0,1.2-0.3,2.3-0.6,3.5
						c-0.1,0.4,0.5,0.5,0.5,0.2c0.3-1.6,0.9-3.5,0.5-5.1c-0.2-0.9-1.1-1.6-2-1.4c-1,0.3-1.6,1.6-1.8,2.5c-0.3,1.3-0.1,2.7-0.1,4.1
						C70.5,62.2,71.1,62.2,71.1,61.9L71.1,61.9z"/>
				</g>
			</g>
		</g>
		<g>
			<g>
				<g>
					<path class="st0" d="M72.5,58.5c-0.3-0.2-0.2-0.7,0.1-0.8c0.6-0.2,0.8,0.8,0.1,0.9c-0.4,0-0.4,0.6,0,0.6c0.5,0,1-0.5,1-1
						c0-0.5-0.5-0.9-1-1c-1,0-1.2,1.4-0.5,1.9C72.5,59.2,72.7,58.7,72.5,58.5L72.5,58.5z"/>
				</g>
			</g>
		</g>
		<g>
			<g>
				<g>
					<path class="st0" d="M70.8,64.8c0,1.1-0.2,1.7-0.9,2.6c-0.2,0.3-0.4,0.7-0.3,1.1c0.1,0.4,0.4,0.6,0.5,1
						c0.1,0.4,0.1,0.8,0.1,1.2c0,0.9-0.2,1.7-0.1,2.6c0,0.1,0.1,0.2,0.2,0.3c1.1,0.2,4.1,0.7,3.8-1.4c-0.1-0.8-0.5-0.9-0.1-1.7
						c0.2-0.4,0.5-0.8,0.6-1.2c0.2-1.4-1-2.5-0.4-4c0.1-0.3-0.3-0.6-0.5-0.3c-0.3,0.6-0.4,1.2-0.2,1.8c0.2,1.2,0.8,1.9,0.2,3.1
						c-0.3,0.5-0.6,0.9-0.5,1.6c0.1,0.6,0.5,1-0.1,1.6c-0.4,0.4-1.4,0.2-1.9,0.1s-0.6-0.2-0.6-0.7c0-0.4,0.1-0.9,0.1-1.3
						c0.1-0.7,0.1-1.5-0.2-2.1c-0.3-0.6-0.5-0.8-0.1-1.4c0.2-0.3,0.4-0.5,0.6-0.8c0.3-0.6,0.3-1.4,0.3-2.1
						C71.4,64.4,70.8,64.4,70.8,64.8L70.8,64.8z"/>
				</g>
			</g>
		</g>
		<g>
			<g>
				<g>
					<path class="st0" d="M71.4,73.4c-0.4,1.2-0.8,2.8,0.2,3.9c0.6,0.7,1.6,0.8,2.4,1c1.2,0.3,2.4,0.6,3.6,0.8
						c2.2,0.4,4.8,0.4,6.7,1.6c1.1,0.7,0.8,2.4,0.9,3.5c0,1,0.5,4.4-1.5,3.9c-0.3-0.1-0.5,0.4-0.2,0.5c2.1,0.6,2.3-2,2.2-3.4
						c0-1.1,0-2.4-0.2-3.5c-0.1-0.9-0.7-1.3-1.5-1.7c-2.2-1.1-4.9-1.1-7.4-1.6c-1.3-0.3-2.7-0.5-3.9-1c-1.7-0.7-1.3-2.5-0.9-3.9
						C72,73.2,71.5,73.1,71.4,73.4L71.4,73.4z"/>
				</g>
			</g>
		</g>
		<g>
			<g>
				<g>
					<path class="st0" d="M71.9,73.6c0,1.7-0.4,3.3,1.5,4c2.3,0.9,4.9,1.3,7.4,1.6c1.3,0.2,2.8,0.3,3.9,1.2c1.2,1,1.5,2.5,1.5,4
						c0,1.8,0,5.1-2.6,4.9c-0.4,0-0.4,0.5,0,0.6c1.9,0.2,2.7-1.3,3-3c0.3-2.1,0.4-4.8-1.2-6.4c-1.8-1.9-5-1.7-7.4-2.1
						c-1.4-0.3-2.8-0.6-4.1-1.1c-0.9-0.3-1.5-0.7-1.6-1.7c0-0.6,0-1.3,0-1.9C72.4,73.2,71.9,73.2,71.9,73.6L71.9,73.6z"/>
				</g>
			</g>
		</g>
		<g>
			<g>
				<g>
					<path class="st0" d="M70.5,68c1-0.4,2.1-0.4,3.2,0c0.3,0.1,0.5-0.4,0.2-0.5c-1.2-0.5-2.5-0.4-3.6,0.1
						C69.9,67.6,70.2,68.1,70.5,68L70.5,68z"/>
				</g>
			</g>
		</g>
		<g>
			<g>
				<g>
					<path class="st0" d="M70.4,69.7c1.1,0.7,2.5,0.8,3.7,0.2c0.3-0.1,0-0.6-0.3-0.5c-1,0.5-2.2,0.4-3.2-0.2
						C70.4,69,70.1,69.5,70.4,69.7L70.4,69.7z"/>
				</g>
			</g>
		</g>
		<g>
			<g>
				<g>
					<path class="st0" d="M58.1,83c-1.2,0.7-1.6,2.1-1.8,3.4c-0.2,2,0,3.9,0.8,5.7c0.1,0.3,0.7,0.2,0.5-0.2
						c-0.6-1.4-0.9-2.9-0.9-4.4c0-1.4,0.2-3.3,1.6-4C58.7,83.3,58.4,82.8,58.1,83L58.1,83z"/>
				</g>
			</g>
		</g>
		<g>
			<g>
				<g>
					<path class="st0" d="M83.2,85.2c0.2,2.5,0.1,5-0.4,7.5c-0.1,0.4,0.5,0.5,0.5,0.2c0.4-2.5,0.5-5.1,0.4-7.7
						C83.7,84.8,83.2,84.8,83.2,85.2L83.2,85.2z"/>
				</g>
			</g>
		</g>
		<g>
			<g>
				<g>
					<path class="st0" d="M58.2,83.5c4.2,0.1,8.3,0.3,12.5,0.4c2,0.1,4.1,0.1,6.1,0.2c1,0,2,0.1,3.1,0.1c0.8,0,2.8-0.2,3.1,0.8
						c0.1,0.3,0.6,0.2,0.5-0.2c-0.4-1.3-2.1-1.2-3.2-1.2c-2.5-0.1-4.9-0.2-7.4-0.2c-4.9-0.2-9.8-0.3-14.6-0.5
						C57.9,82.9,57.9,83.5,58.2,83.5L58.2,83.5z"/>
				</g>
			</g>
		</g>
		<g>
			<g>
				<g>
					<path class="st0" d="M57.7,93.1c8.3-0.5,16.6-0.5,24.8,0c0.7,0,0.7-1.1,0-1.1c-8.3-0.5-16.6-0.5-24.8,0
						C57,92,57,93.1,57.7,93.1L57.7,93.1z"/>
				</g>
			</g>
		</g>
		<g>
			<g>
				<g>
					<path class="st0" d="M59.5,83.2c-2.1,2.5-2.6,6.1-1,9c0.2,0.3,0.6,0,0.5-0.3c-1.4-2.7-1-6,0.9-8.3
						C60.2,83.3,59.8,82.9,59.5,83.2L59.5,83.2z"/>
				</g>
			</g>
		</g>
		<g>
			<g>
				<g>
					<path class="st0" d="M61,83.3c-2.5,2.5-2.3,6.8-0.3,9.4c0.2,0.3,0.7,0,0.5-0.3c-1.9-2.5-2.2-6.5,0.2-8.8
						C61.6,83.4,61.2,83,61,83.3L61,83.3z"/>
				</g>
			</g>
		</g>
		<g>
			<g>
				<g>
					<path class="st0" d="M78.8,84.2c0,2.7-0.1,5.3-0.4,8c0,0.4,0.5,0.4,0.6,0c0.3-2.7,0.4-5.3,0.4-8C79.4,83.9,78.8,83.9,78.8,84.2
						L78.8,84.2z"/>
				</g>
			</g>
		</g>
		<g>
			<g>
				<g>
					<path class="st0" d="M80.5,84c0.1,2.7,0.2,5.4,0.2,8.1c0,0.4,0.6,0.4,0.6,0c-0.1-2.7-0.2-5.4-0.2-8.1
						C81.1,83.7,80.5,83.7,80.5,84L80.5,84z"/>
				</g>
			</g>
		</g>
		<g>
			<g>
				<g>
					<path class="st0" d="M58.3,92.5c-7.2,3-14.4,5.9-21.7,8.9c-0.2,0.1-0.1,0.3,0.1,0.3c7.2-3,14.5-5.9,21.7-8.9
						C58.6,92.7,58.5,92.5,58.3,92.5L58.3,92.5z"/>
				</g>
			</g>
		</g>
		<g>
			<g>
				<g>
					<path class="st0" d="M60,92.7c-6,2.9-11.9,6.1-17.9,8.9c-0.2,0.1,0,0.3,0.1,0.2c6.1-2.8,11.9-6,17.9-8.9
						C60.3,92.9,60.2,92.7,60,92.7L60,92.7z"/>
				</g>
			</g>
		</g>
		<g>
			<g>
				<g>
					<path class="st0" d="M68.4,98.6c-0.4,2-0.8,4-1.1,6c0,0.2,0.2,0.2,0.3,0.1c0.4-2,0.7-4,1.1-6C68.7,98.5,68.4,98.4,68.4,98.6
						L68.4,98.6z"/>
				</g>
			</g>
		</g>
		<g>
			<g>
				<g>
					<path class="st0" d="M68.8,98.7c0.1-0.2,0.4,0.2,0.4,0.2c0.1,0.1,0.1,0.4,0.1,0.5c0,0.4,0,0.9,0,1.3c-0.1,1.2-0.2,2.4-0.3,3.6
						c0,0.2,0.3,0.2,0.3,0c0.1-1.2,0.2-2.4,0.3-3.6c0-0.7,0.1-1.3-0.1-1.9c-0.2-0.6-0.6-1-0.9-0.3C68.5,98.7,68.7,98.9,68.8,98.7
						L68.8,98.7z"/>
				</g>
			</g>
		</g>
		<g>
			<g>
				<g>
					<path class="st0" d="M69,93.3c-0.4,0.9-0.6,1.8-0.5,2.8c0,0.1,0.2,0.2,0.2,0.1c0.3-0.2,0.5-0.3,0.9-0.3c0.1,0,0.1-0.1,0.1-0.1
						c0-0.6,0-1.2,0-1.7c0-0.2,0.1-0.6-0.1-0.8c-0.2-0.3-0.7-0.1-0.5,0.2c0.1,0.2,0.3,0.1,0.3-0.1c0.1,0.4,0,0.8,0,1.2s0,0.8,0,1.2
						c0,0,0.1-0.1,0.1-0.1c-0.4-0.1-0.8,0.1-1.1,0.4c0.1,0,0.2,0.1,0.2,0.1c-0.1-0.9,0.1-1.8,0.5-2.7C69.3,93.3,69.1,93.1,69,93.3
						L69,93.3z"/>
				</g>
			</g>
		</g>
		<g>
			<g>
				<g>
					<path class="st0" d="M69.1,85.6c-0.2,1.4-0.4,2.7-0.7,4.1c0,0.2,0.1,0.4,0.3,0.4c0.9,0,1.3-0.7,1.4-1.5c0.1-0.7,0-1.3,0-2
						c0-0.5,0-0.9-0.3-1.3c-0.1-0.1-0.2-0.1-0.3-0.1c-0.2,0-0.3,0.1-0.4,0.3c0,0.1,0,0.2,0,0.3c0,0,0,0.1,0.1,0.1
						c0.2,0.3,0.7,0,0.5-0.3c-0.1,0.2-0.1,0.4-0.2,0.6c0,0.2,0,0.4,0,0.5c0,0.3,0,0.6,0,0.9c0,0.6,0.2,2-0.9,1.9
						c0.1,0.1,0.2,0.2,0.3,0.4c0.2-1.4,0.4-2.7,0.7-4.1C69.7,85.5,69.2,85.3,69.1,85.6L69.1,85.6z"/>
				</g>
			</g>
		</g>
		<g>
			<g>
				<g>
					<path class="st0" d="M69.3,83.4c-0.5,0.3-0.5,1.1,0.1,1.3c0.2,0.1,0.5,0,0.7-0.1c0.2-0.2,0.1-0.3,0.1-0.5
						c0-0.2-0.1-0.4-0.1-0.5c-0.1-0.4-0.6-0.2-0.5,0.2c0,0.2,0.1,0.5,0.2,0.7c0-0.1,0-0.2,0.1-0.3c-0.2,0.2-0.4-0.1-0.2-0.3
						C69.9,83.7,69.6,83.3,69.3,83.4L69.3,83.4z"/>
				</g>
			</g>
		</g>
		<g>
			<g>
				<g>
					<path class="st0" d="M78.6,92.7c5.1,4.2,10.6,7.7,16.3,11.1c0.2,0.1,0.3-0.2,0.1-0.2c-5.6-3.4-11.1-6.9-16.2-11
						C78.7,92.3,78.5,92.5,78.6,92.7L78.6,92.7z"/>
				</g>
			</g>
		</g>
		<g>
			<g>
				<g>
					<path class="st0" d="M81.8,92.4c6.4,3.4,12.7,7.1,19.1,10.5c0.2,0.1,0.3-0.2,0.1-0.2c-6.4-3.5-12.7-7.1-19.1-10.5
						C81.7,92.1,81.6,92.3,81.8,92.4L81.8,92.4z"/>
				</g>
			</g>
		</g>
		<g>
			<g>
				<g>
					<path class="st0" d="M83.3,92.7c1,0,2,0.5,2.9,0.9c0.9,0.4,1.8,0.8,2.7,1.3c1.9,0.9,3.7,1.8,5.5,2.7c3.6,1.8,7.2,3.6,10.8,5.2
						c0.2,0.1,0.3-0.2,0.1-0.2c-3.9-1.8-7.7-3.7-11.6-5.6c-1.9-0.9-3.8-1.9-5.7-2.8c-1.4-0.7-3.2-1.7-4.8-1.8
						C83.1,92.4,83.1,92.7,83.3,92.7L83.3,92.7z"/>
				</g>
			</g>
		</g>
		<g>
			<g>
				<g>
					<path class="st0" d="M58,92.2c-0.3,0-0.3,0-0.5,0.2c0,0,0,0.1,0,0.1c0.2,0.5,0.6,0.5,0.8,0c0-0.1,0-0.2-0.1-0.2
						c-2.1,0.1-4.3,1.2-6.3,1.9c-2.3,0.8-4.5,1.6-6.8,2.5c-4.5,1.7-9,3.3-13.6,4.8c-0.2,0.1-0.1,0.3,0.1,0.3
						c4.4-1.5,8.8-3.1,13.2-4.7c2.1-0.8,4.3-1.5,6.4-2.3c1.1-0.4,2.3-0.8,3.4-1.2c0.6-0.2,1.1-0.4,1.6-0.6s1.3-0.6,1.9-0.6
						C58.2,92.5,58.2,92.2,58,92.2L58,92.2z"/>
				</g>
			</g>
		</g>
		<g>
			<g>
				<g>
					<path class="st0" d="M56.1,85.8c-0.6-0.6-0.8-1.4-0.4-2.2c0.1-0.2-0.2-0.2-0.2-0.1c-0.4,0.5-0.9,1.6-1.5,1.9
						c-0.4,0.2-1.5,0-1.9,0c-1.3,0.1-4.5,1-4.5-1.3c0-0.1-0.2-0.2-0.2-0.1c-0.7,0.7-1.8,0-2.6,0c-0.9,0-1.6,0.8-2.6,0.8
						c-1.2,0-3.1-0.8-3.9,0.7c-0.1,0.1-0.1,0.4-0.1,0.5c-0.5,0.7-1.6,0.1-2.1-0.2c-0.6-0.4-1.2-0.8-1.9-0.8c-1.7-0.1-3,1.7-4.7,1.2
						c-0.2-0.1-0.2,0.2-0.1,0.3c1.5,0.5,2.7-0.8,4.1-1.1c1.8-0.4,3.1,2,4.9,1c0.1,0,0.1-0.1,0.1-0.2c-0.4-2,2.5-1.3,3.3-1.2
						c0.9,0.1,1.3-0.1,2.1-0.4c0.9-0.5,1.6-0.1,2.6,0c0.5,0,0.8,0,1.1-0.4c-0.1,0-0.2-0.1-0.2-0.1c0,1,0.7,1.5,1.6,1.8
						c1.7,0.5,3.3-0.6,4.9,0c0.1,0,0.1,0,0.2-0.1c0.6-0.7,1.1-1.5,1.7-2.2c-0.1,0-0.2-0.1-0.2-0.1c-0.4,0.9-0.2,1.8,0.5,2.5
						C56.1,86.1,56.3,85.9,56.1,85.8L56.1,85.8z"/>
				</g>
			</g>
		</g>
		<g>
			<g>
				<g>
					<path class="st0" d="M86.9,86.4c0.1-0.2,0.2-0.4,0.5-0.6c-0.1,0-0.1,0-0.2,0c0.3,0.1,0.7,0.2,1,0.2c0.4,0.1,0.5-0.4,0.2-0.5
						c-0.2,0-0.4-0.1-0.7-0.2c-0.2,0-0.4-0.1-0.6,0c-0.3,0.2-0.6,0.5-0.7,0.9C86.3,86.6,86.8,86.7,86.9,86.4L86.9,86.4z"/>
				</g>
			</g>
		</g>
		<g>
			<g>
				<g>
					<path class="st0" d="M84.1,86.6c0.1-0.2,0.4-0.3,0.6-0.2c0.1,0.1,0.3,0,0.4-0.1c0.1-0.1,0-0.3-0.1-0.4c-0.5-0.2-1.1,0-1.3,0.4
						C83.4,86.7,83.9,87,84.1,86.6L84.1,86.6z"/>
				</g>
			</g>
		</g>
		<g>
			<g>
				<g>
					<path class="st0" d="M33.5,85.1c-0.5-0.5-0.9-1-1-1.7c-0.2-0.8,0.2-3.1,1.7-2.3c0.1,0,0.2,0,0.2-0.1c0.2-0.9,0.5-1.7,1-2.5
						c0.3-0.5,0.7-0.9,1.2-1.2c0.4-0.2,0.8-0.3,1.2-0.1c0.6,0.4,0.7,0.8,0.3,1.5c-0.1,0.1,0,0.3,0.1,0.2c0.8-0.3,1.4,0.3,1.4,1
						c0,0-0.1,0.8,0,0.8c0.1,0.3,0.1,0.3,0.3,0.5c0.4,0.4,0.8,0.6,1.1,1.2c0.3,0.6,0.4,1.3,0.5,1.9c0,0.1,0.2,0.1,0.3,0
						c0.2-0.8,0.3-1.5,0.4-2.3c0.1-0.4,0.1-0.7,0.2-1.1c0-0.1,0-0.2,0.1-0.3c0.1-0.7,0.6-1,1.6-0.8c0,0.1,0.2,0.1,0.2,0
						c0.3-0.3,0.6-0.5,1-0.7c0.7,0,1.1,0.3,1.3,0.8c0.2,0.2,0.2,0.2,0.5,0.3c0.3,0.2,0.7,0.2,1,0.4c0.7,0.4,0.8,1.2,0.5,1.9
						c0,0.1,0,0.2,0.1,0.2c1.1,0.2,1.8,1.5,1.2,2.5c-0.1,0.2,0.2,0.3,0.2,0.1c0.3-0.6,0.4-1.2,0.1-1.8c-0.2-0.3-0.4-0.6-0.7-0.8
						c-0.2-0.1-0.5-0.2-0.6-0.4c-0.1-0.2,0.1-0.6,0-0.8c-0.1-0.3-0.2-0.6-0.5-0.9c-0.2-0.2-0.4-0.3-0.7-0.4
						c-0.4-0.2-0.8-0.3-1.1-0.7c-0.4-0.4,0.1-0.2-0.3-0.5c-0.4-0.3-1-0.3-1.5,0c-0.4,0.2-0.4,0.4-0.8,0.3c-0.2,0-0.4-0.2-0.6-0.2
						c-0.6,0-0.9,0.3-1.2,0.8c-0.6,1.2-0.7,3-0.9,4.3c0.1,0,0.2,0,0.3,0c-0.2-0.8-0.2-1.7-0.7-2.4c-0.1-0.2-0.3-0.3-0.5-0.5
						C40,80.8,40,80.7,40.1,80c0-1-0.8-1.8-1.8-1.4c0,0.1,0.1,0.2,0.1,0.2c0.6-0.7,0.2-1.7-0.6-2c-1.5-0.5-2.7,1.5-3.2,2.6
						c-0.1,0.2-0.2,0.9-0.4,1.1c-0.2,0.2-0.2,0-0.5,0.1c-0.5,0.1-0.9,0.4-1.2,0.8c-0.8,1.2-0.2,2.9,0.8,3.8
						C33.4,85.4,33.6,85.2,33.5,85.1L33.5,85.1z"/>
				</g>
			</g>
		</g>
		<g>
			<g>
				<g>
					<path class="st0" d="M50.3,83.6c0-0.8,0.5-1.6,1.3-1.6c0.4,0,0.7,0.2,1.1,0.4c0.1,0,0.5,0.1,0.6,0.2c0.2,0.2,0.4,0.6,0.4,0.9
						c0.2,0.5,0.3,1,0.5,1.5c0,0.2,0.3,0.1,0.3-0.1c-0.2-0.8-0.4-1.7-0.9-2.3c-0.3-0.4-0.8-0.5-1.3-0.6c-1.3-0.4-2.4,0.4-2.4,1.8
						C50.1,83.7,50.4,83.7,50.3,83.6L50.3,83.6z"/>
				</g>
			</g>
		</g>
		<g>
			<g>
				<g>
					<path class="st0" d="M36.9,85.9c0.2-1.1,0.2-2.3-0.1-3.4c0-0.2-0.3-0.1-0.3,0.1c0.3,1.1,0.3,2.2,0.1,3.3
						C36.6,86,36.9,86.1,36.9,85.9L36.9,85.9z"/>
				</g>
			</g>
		</g>
		<g>
			<g>
				<g>
					<path class="st0" d="M37.8,85.9c0.2-0.4,0.3-0.9,0.2-1.4c0-0.2-0.3-0.1-0.3,0.1c0.1,0.4,0,0.8-0.2,1.1
						C37.5,85.9,37.7,86.1,37.8,85.9L37.8,85.9z"/>
				</g>
			</g>
		</g>
		<g>
			<g>
				<g>
					<path class="st0" d="M45.7,83.7c-0.2-0.4-0.2-0.9-0.1-1.4c0-0.2-0.2-0.2-0.3-0.1c-0.1,0.5-0.1,1.1,0.1,1.5
						C45.5,84,45.7,83.9,45.7,83.7L45.7,83.7z"/>
				</g>
			</g>
		</g>
		<g>
			<g>
				<g>
					<path class="st0" d="M52.4,85.4c0-0.2,0-0.4,0-0.6c0-0.2-0.3-0.2-0.3,0c0,0.2,0,0.4,0,0.6C52.1,85.6,52.4,85.6,52.4,85.4
						L52.4,85.4z"/>
				</g>
			</g>
		</g>
		<g>
			<g>
				<g>
					<path class="st0" d="M30.2,99.7c-0.4-1.7-0.8-3.3-1.2-5c-0.1,0-0.2,0.1-0.2,0.1c1.1,1.1,1.8,2.5,2.4,3.9
						c0.1,0.2,0.3,0.1,0.3-0.1c-0.5-1.5-1.3-2.9-2.4-4.1c-0.1-0.1-0.3,0-0.2,0.1c0.4,1.7,0.8,3.3,1.2,5
						C29.9,100,30.2,99.9,30.2,99.7L30.2,99.7z"/>
				</g>
			</g>
		</g>
		<g>
			<g>
				<g>
					<path class="st0" d="M33.6,98.5c-0.4-0.3-0.5-0.8-0.2-1.3c-0.1,0-0.2,0-0.2,0c0.2,0.3,0.4,0.6,0.5,0.9c0,0.1,0.2,0.1,0.2,0
						c0.2-0.3,0.4-0.6,0.5-0.9c-0.1,0-0.2,0-0.2,0c0.1,0.5,0.5,0.9,1,0.9c0.2,0,0.2-0.3,0-0.3c-0.4,0-0.7-0.3-0.7-0.7
						c0-0.1-0.2-0.1-0.2,0c-0.2,0.3-0.4,0.6-0.5,0.9c0.1,0,0.2,0,0.2,0c-0.2-0.3-0.4-0.6-0.5-0.9c0-0.1-0.2-0.1-0.2,0
						c-0.3,0.5-0.2,1.2,0.2,1.6C33.5,98.8,33.7,98.6,33.6,98.5L33.6,98.5z"/>
				</g>
			</g>
		</g>
		<g>
			<g>
				<g>
					<path class="st0" d="M37.4,97.1c0-0.5,0.2-1,0.6-1.3c0.1-0.1-0.1-0.3-0.2-0.2c-0.4,0.4-0.7,0.9-0.7,1.5
						C37.1,97.2,37.4,97.2,37.4,97.1L37.4,97.1z"/>
				</g>
			</g>
		</g>
		<g>
			<g>
				<g>
					<path class="st0" d="M39.7,96.5C39.7,96.5,39.8,96.5,39.7,96.5C39.8,96.5,39.8,96.5,39.7,96.5c0.1,0,0.1,0,0.1,0
						c0,0.2,0.3,0.1,0.3-0.1c-0.1-0.3-0.6-0.3-0.6,0C39.4,96.6,39.7,96.6,39.7,96.5L39.7,96.5z"/>
				</g>
			</g>
		</g>
		<g>
			<g>
				<g>
					<path class="st0" d="M42.4,95.6C42.4,95.6,42.4,95.7,42.4,95.6c-0.1,0.1-0.1,0.1-0.1,0c0,0.2,0.3,0.2,0.3,0
						c0-0.3-0.5-0.3-0.4,0C42.2,95.8,42.4,95.8,42.4,95.6L42.4,95.6z"/>
				</g>
			</g>
		</g>
		<g>
			<g>
				<g>
					<path class="st0" d="M44.8,95.1c0.2,0,0.2-0.3,0-0.3C44.6,94.9,44.6,95.1,44.8,95.1L44.8,95.1z"/>
				</g>
			</g>
		</g>
		<g>
			<g>
				<g>
					<path class="st0" d="M106.4,101.6c-0.1-1.3,0.6-2.5,1.8-3c0-0.1-0.1-0.1-0.2-0.2c-0.6,0.8-0.9,1.8-0.8,2.8c0,0.2,0.3,0.2,0.3,0
						c-0.1-1,0.1-1.9,0.7-2.7c0.1-0.1,0-0.2-0.2-0.2c-1.3,0.5-2.1,1.8-2.1,3.2C106.1,101.8,106.4,101.8,106.4,101.6L106.4,101.6z"/>
				</g>
			</g>
		</g>
		<g>
			<g>
				<g>
					<path class="st0" d="M108.8,101.6c0,0,0.2,0.3,0.2,0.3c0,0.1,0.1,0.2,0.2,0.2c0.1,0.2,0.2,0.3,0.3,0.5c0.1,0.2,0.3,0,0.2-0.1
						c-0.2-0.2-0.3-0.5-0.5-0.7c-0.1-0.2-0.2-0.4-0.4-0.4c-0.3,0-0.4,0.5-0.1,0.5C108.9,101.9,108.9,101.6,108.8,101.6L108.8,101.6z
						"/>
				</g>
			</g>
		</g>
		<g>
			<g>
				<g>
					<path class="st0" d="M111.2,103.6c0.4,0,0.8,0,1.2,0c0.2,0,0.2-0.3,0-0.3c-0.4,0-0.8,0-1.2,0
						C111.1,103.4,111.1,103.6,111.2,103.6L111.2,103.6z"/>
				</g>
			</g>
		</g>
		<g>
			<g>
				<g>
					<path class="st0" d="M28.2,100.6c-1.6-0.4-3.2-0.5-4.8-0.4c-0.2,0-0.2,0.3,0,0.3c1.6-0.1,3.2,0,4.7,0.3
						C28.3,100.9,28.4,100.6,28.2,100.6L28.2,100.6z"/>
				</g>
			</g>
		</g>
		<g>
			<g>
				<g>
					<path class="st0" d="M34.2,68.1c-0.7,0.1-1.3,0.2-2,0.3c-0.6,0.1-1.6,0.5-1.8-0.4c-0.2-0.5,0-1.4,0-1.9c0-0.8,0-1.6,0-2.3
						c0-0.1-0.2-0.2-0.3-0.1c-0.9,1.6-1.7,3.2-2.3,4.9c0,0.2,0.2,0.2,0.2,0.1c0.1-0.2,0.2-0.4,0.3-0.5c-0.1,0-0.2-0.1-0.2-0.1
						c-0.4,1.3-0.8-0.8-1.5-0.4c-0.2,0.1-0.3,0.4-0.4,0.6c-0.1,0.4,0.2,1.2-0.7,0.7c-0.3-0.2-0.5-1.4-0.5-1.6
						c-0.3-3.3,1.4-6.7,2.7-9.6c0.1-0.2-0.2-0.3-0.2-0.1c-1.3,3-3.1,6.5-2.7,9.9c0.1,0.5,0.3,2.2,1.2,2.1c0.3,0,0.4-0.2,0.5-0.4
						c0.1-0.2,0-0.4,0.1-0.6c0.5-1,0.8,0,1.1,0.4c0,0.1,0.2,0.1,0.2,0c0.3-0.3,0.4-0.5,0.5-0.8c0-0.2-0.2-0.2-0.2-0.1
						c-0.1,0.2-0.2,0.4-0.3,0.5c0.1,0,0.2,0.1,0.2,0.1c0.6-1.7,1.4-3.3,2.3-4.9c-0.1,0-0.2,0-0.3-0.1c0,1,0,2,0,3
						c0,0.5-0.2,1.5,0.2,1.9c0.3,0.3,0.6,0.2,1,0.2c1-0.1,2-0.3,3-0.4C34.4,68.4,34.4,68.1,34.2,68.1L34.2,68.1z"/>
				</g>
			</g>
		</g>
		<g>
			<g>
				<g>
					<path class="st0" d="M23.7,68.8c-0.8-0.3,0.1-3.4,0.3-4.1c0.2-1.3,0.5-2.6,0.7-4c0-0.2-0.2-0.2-0.3-0.1c-0.4,2-0.7,4-1.1,6
						c-0.1,0.7-0.6,1.9,0.3,2.3C23.7,69.2,23.8,68.9,23.7,68.8L23.7,68.8z"/>
				</g>
			</g>
		</g>
		<g>
			<g>
				<g>
					<path class="st0" d="M21.7,68.5c0-1.1,0-2.3,0-3.5c0-0.2-0.2-0.2-0.3,0c-0.2,0.8-0.2,1.5,0,2.3c0,0.2,0.3,0.1,0.3-0.1
						c-0.2-0.7-0.2-1.4,0-2.1c-0.1,0-0.2,0-0.3,0c0,1.1,0,2.3,0,3.5C21.4,68.7,21.7,68.7,21.7,68.5L21.7,68.5z"/>
				</g>
			</g>
		</g>
		<g>
			<g>
				<g>
					<path class="st0" d="M19.8,69c0.1-0.7,0-1.3-0.3-2c0-0.1-0.2-0.1-0.2,0c-0.1,0.6-0.2,1.1-0.4,1.6c0.1,0,0.2,0,0.3,0
						c0-0.4,0-0.6-0.3-0.8c-0.1-0.1-0.2,0-0.2,0.1c-0.2,0.2-0.4,0.5-0.6,0.7c-0.3-0.1-0.6-0.1-1-0.2c-0.2-0.1-0.4-0.3-0.6-0.4
						c-0.3-0.2-0.6-0.4-0.9-0.4c-0.5-0.1-0.9,0-1.3,0.4c-0.1,0.1,0.1,0.3,0.2,0.2c1-1.1,2.3,0.8,3.4,0.7c0.6,0,1.1-0.4,1.1-1
						c-0.1,0-0.2,0.1-0.2,0.1c0.1,0.2,0.1,0.4,0.2,0.6c0,0.2,0.2,0.2,0.3,0c0.1-0.6,0.2-1.1,0.4-1.6c-0.1,0-0.2,0-0.2,0
						c0.3,0.6,0.4,1.1,0.3,1.8C19.5,69.1,19.7,69.1,19.8,69L19.8,69z"/>
				</g>
			</g>
		</g>
		<g>
			<g>
				<g>
					<path class="st0" d="M125.9,67.5c0.6-1.5,0.9-2.9,1.1-4.5c-0.1,0-0.2,0-0.3,0c0.1,1.4,0.2,2.8,0.5,4.3c0,0.1,0.2,0.1,0.2,0
						c0.2-0.5,0.4-0.9,0.6-1.4c-0.1,0-0.2-0.1-0.2-0.1c0,0.2-0.1,0.4-0.1,0.6c0,0.2,0.2,0.2,0.3,0.1c0-0.2,0.1-0.4,0.1-0.6
						c0-0.1-0.2-0.3-0.2-0.1c-0.2,0.5-0.4,0.9-0.6,1.4c0.1,0,0.2,0,0.2,0c-0.3-1.4-0.4-2.8-0.5-4.2c0-0.2-0.3-0.2-0.3,0
						c-0.2,1.5-0.6,3-1.1,4.4C125.6,67.6,125.8,67.6,125.9,67.5L125.9,67.5z"/>
				</g>
			</g>
		</g>
		<g>
			<g>
				<g>
					<path class="st0" d="M128.7,67.3c0-0.2,0.2-0.4,0.4-0.6c0.1-0.1,0-0.3-0.1-0.2c-0.2,0.1-0.3,0.3-0.1,0.5
						c0.2,0.2,0.5,0.1,0.7-0.1c-0.1,0-0.2,0-0.2,0c0.1,0.2,0.2,0.6,0.4,0.6c0.2,0,0.4-0.1,0.6-0.2c0.1-0.1-0.1-0.3-0.2-0.2
						c-0.3,0.4-0.5,0-0.6-0.3c0-0.1-0.2-0.1-0.2,0c-0.1,0.1-0.2,0.1-0.3,0c0-0.1-0.1-0.2-0.1-0.2c-0.3,0.2-0.5,0.5-0.5,0.8
						C128.4,67.4,128.7,67.4,128.7,67.3L128.7,67.3z"/>
				</g>
			</g>
		</g>
		<g>
			<g>
				<g>
					<path class="st0" d="M130.9,67.6c0.1-0.1,0.3-0.2,0.4,0c0.1,0.2,0.3,0,0.2-0.1c-0.2-0.3-0.6-0.3-0.8,0
						C130.6,67.5,130.8,67.7,130.9,67.6L130.9,67.6z"/>
				</g>
			</g>
		</g>
		<g>
			<g>
				<g>
					<path class="st0" d="M23,112.4c1.7-0.9,3.5-1.3,5.4-1.3c0.9,0,1.9,0.2,2.8,0.4c0.2,0.1,1.3,0.4,1.3,0.5c0,0.3-1.4,0.5-1.6,0.5
						c-1.9,0.2-3.8,0-5.7,0c-2,0-4-0.1-6-0.1c-0.2,0-0.2,0.3,0,0.3c2.6,0,5.2,0.1,7.7,0.2c2,0,4.2,0.4,6-0.7c0.1,0,0.1-0.2,0-0.2
						c-3.2-1.5-7-1.4-10.1,0.2C22.7,112.3,22.8,112.5,23,112.4L23,112.4z"/>
				</g>
			</g>
		</g>
		<g>
			<g>
				<g>
					<path class="st0" d="M33.3,112.3c0.5-0.4,0.7-0.9,0.8-1.5c-0.1,0-0.2,0-0.3,0c0.1,0.6,0.2,1.1,0.5,1.7c0,0.1,0.2,0.1,0.2,0
						c0.3-0.2,0.3-0.4,0.4-0.8c-0.1,0-0.2,0-0.3,0.1c1.1,2,3.7,0,5.2,0c0.2,0,0.2-0.3,0-0.3c-1.4,0-4,1.9-5,0.2
						c-0.1-0.1-0.2-0.1-0.3,0.1c-0.1,1-0.6-1-0.6-0.9c0-0.2-0.3-0.2-0.3,0c0,0.6-0.3,1-0.7,1.3C33,112.2,33.1,112.4,33.3,112.3
						L33.3,112.3z"/>
				</g>
			</g>
		</g>
		<g>
			<g>
				<g>
					<path class="st0" d="M38.8,113c1,0,2.1,0,3.1,0c0.2,0,0.2-0.3,0-0.3c-1,0-2.1,0-3.1,0C38.6,112.7,38.6,113,38.8,113L38.8,113z"
						/>
				</g>
			</g>
		</g>
		<g>
			<g>
				<g>
					<path class="st0" d="M47.8,113.6c0.6-0.4,1.4-0.3,1.9,0.2c0-0.1,0-0.2,0-0.2c-0.7,0.4-1.4,0.4-2.1,0.1c0,0.1,0,0.2,0,0.2
						c0.3-0.3,0.6-0.4,1-0.5c0.2,0,0.1-0.3-0.1-0.3c-0.4,0.1-0.8,0.3-1.1,0.6c-0.1,0.1,0,0.2,0,0.2c0.8,0.4,1.7,0.4,2.4-0.1
						c0.1,0,0.1-0.2,0-0.2c-0.6-0.6-1.5-0.7-2.2-0.3C47.5,113.5,47.7,113.7,47.8,113.6L47.8,113.6z"/>
				</g>
			</g>
		</g>
		<g>
			<g>
				<g>
					<path class="st0" d="M53.6,111.6c0.6-0.3,1.2-0.5,1.9-0.5c0.2,0,0.5,0,0.7,0c0.1,0,0.3,0,0.4,0.1c0.4,0,0.4,0.2,0.2,0.6
						c-0.1,0.6-0.2,0.5-0.7,0.5c-0.3,0-0.5,0-0.8,0.1c-0.2,0-0.4,0-0.7,0c-0.1,0-0.2,0-0.4,0c-0.6-0.4-0.6-0.6-0.1-0.8
						c0.2,0.1,0.2-0.2,0.1-0.3c-0.6-0.2-0.9,0.6-0.6,1c0.3,0.3,0.8,0.4,1.1,0.4c0.6,0,1.4,0,2-0.2c0.8-0.3,0.7-1,0-1.4
						c-1-0.6-2.5-0.2-3.5,0.3C53.3,111.5,53.4,111.7,53.6,111.6L53.6,111.6z"/>
				</g>
			</g>
		</g>
		<g>
			<g>
				<g>
					<path class="st0" d="M123.2,113.1c-1.3-0.5-2.7-0.2-3.9,0.6c-0.1,0.1-0.1,0.2,0,0.2c1,0.2,2.1,0.3,3.2,0.2
						c0.5,0,1.8,0.1,2.1-0.4c0.6-0.9-1.3-1-1.7-0.9c-0.2,0-0.1,0.3,0.1,0.3c0.5-0.1,0.9,0,1.3,0.2c-0.2,0.2-0.4,0.3-0.6,0.5
						c-0.4,0.2-1,0.1-1.4,0.1c-1,0-1.9-0.1-2.9-0.2c0,0.1,0,0.2,0,0.2c1.1-0.8,2.4-1,3.7-0.6C123.3,113.5,123.3,113.2,123.2,113.1
						L123.2,113.1z"/>
				</g>
			</g>
		</g>
		<g>
			<g>
				<g>
					<path class="st0" d="M115.5,113.8c-0.4-0.2-0.8-0.2-1.1,0.1c-0.1,0.1,0,0.2,0,0.2c0.8,0.4,1.7,0.5,2.6,0.2
						c0.1,0,0.1-0.2,0.1-0.2c-0.5-0.5-1.1-0.6-1.8-0.4c-0.2,0-0.1,0.3,0.1,0.3c0.6-0.2,1.1,0,1.5,0.4c0-0.1,0-0.2,0.1-0.2
						c-0.8,0.3-1.6,0.3-2.4-0.1c0,0.1,0,0.2,0,0.2c0.2-0.2,0.6-0.2,0.8,0C115.5,114.1,115.6,113.9,115.5,113.8L115.5,113.8z"/>
				</g>
			</g>
		</g>
	</g>
</g>
</svg>
