<?xml version="1.0" encoding="utf-8"?>
<!-- Generator: Adobe Illustrator 24.0.1, SVG Export Plug-In . SVG Version: 6.00 Build 0)  -->
<svg version="1.1" id="Layer_1" xmlns="http://www.w3.org/2000/svg" xmlns:xlink="http://www.w3.org/1999/xlink" x="0px" y="0px"
	 viewBox="0 0 141.7 141.7" style="enable-background:new 0 0 141.7 141.7;" xml:space="preserve">
<style type="text/css">
	.st0{fill:#070707;}
</style>
<g id="Layer_1_1_">
</g>
<g id="Layer_1_2_">
</g>
<g id="Layer_1_3_">
</g>
<g id="Layer_1_4_">
</g>
<g id="Layer_1_5_">
</g>
<g id="Layer_3">
</g>
<g id="Layer_3_1_">
</g>
<g>
	<g>
		<g>
			<path class="st0" d="M87.6,118.7c3.7-1.4,7-3.6,10-6.1c0.3-0.2-0.1-0.7-0.4-0.4c-3,2.4-6.2,4.6-9.8,6
				C87.1,118.3,87.3,118.9,87.6,118.7L87.6,118.7z"/>
		</g>
	</g>
</g>
<g>
	<g>
		<g>
			<path class="st0" d="M39.8,72.4c0.6,7.8-0.5,15.8,1.3,23.5c0.1,0.4,0.7,0.2,0.6-0.2C40,88,41,80.1,40.4,72.4
				C40.4,72,39.8,72,39.8,72.4L39.8,72.4z"/>
		</g>
	</g>
</g>
<g>
	<g>
		<g>
			<path class="st0" d="M53.1,32.4c-6.1,2.5-10.5,7.7-12.5,14c-2.3,7.3-1.8,15.4-1,23c0,0.4,0.6,0.4,0.6,0
				c-0.8-7.1-1.2-14.7,0.7-21.7c1.7-6.5,6.1-12.1,12.4-14.7C53.5,32.8,53.4,32.3,53.1,32.4L53.1,32.4z"/>
		</g>
	</g>
</g>
<g>
	<g>
		<g>
			<path class="st0" d="M63.1,30.6c-0.8,0.1-1.6,0.2-2.4,0.3c-0.4,0-0.4,0.6,0,0.6c0.8-0.1,1.6-0.2,2.4-0.3
				C63.5,31.1,63.5,30.5,63.1,30.6L63.1,30.6z"/>
		</g>
	</g>
</g>
<g>
	<g>
		<g>
			<path class="st0" d="M76,30.3c-3.2-0.4-6.5-0.4-9.7,0c-0.4,0-0.4,0.6,0,0.6c3.2-0.3,6.5-0.4,9.7,0C76.4,30.9,76.4,30.3,76,30.3
				L76,30.3z"/>
		</g>
	</g>
</g>
<g>
	<g>
		<g>
			<path class="st0" d="M85.9,33.8c-1.5-0.9-3-1.7-4.7-2.3c-0.3-0.1-0.5,0.4-0.2,0.6c1.6,0.6,3.1,1.3,4.5,2.2
				C86,34.5,86.2,34,85.9,33.8L85.9,33.8z"/>
		</g>
	</g>
</g>
<g>
	<g>
		<g>
			<path class="st0" d="M92,40.3c-0.4-0.8-0.9-1.5-1.4-2.2c-0.2-0.3-0.7,0-0.5,0.3c0.5,0.7,1,1.4,1.4,2.2
				C91.7,40.9,92.2,40.6,92,40.3L92,40.3z"/>
		</g>
	</g>
</g>
<g>
	<g>
		<g>
			<path class="st0" d="M58.4,31.8c0.4,0,0.4-0.6,0-0.6S58,31.8,58.4,31.8L58.4,31.8z"/>
		</g>
	</g>
</g>
<g>
	<g>
		<g>
			<path class="st0" d="M40.3,47.5c-4-0.5-6.5-4.8-4.2-8.3c1-1.6,2.8-2.7,4.6-3.1c1.8-0.4,4.3-0.3,5.6,1.2c0.2,0.3,0.7-0.1,0.4-0.4
				c-1.3-1.6-3.7-1.7-5.7-1.4c-2.2,0.3-4.2,1.6-5.5,3.5c-2.5,3.9,0.2,8.6,4.5,9.2C40.6,48.1,40.7,47.5,40.3,47.5L40.3,47.5z"/>
		</g>
	</g>
</g>
<g>
	<g>
		<g>
			<path class="st0" d="M90,35c3.2-1,7-0.9,8.6,2.6c1.5,3.4,0.1,7.9-3.8,8.6c-0.4,0.1-0.2,0.6,0.2,0.6c4.2-0.7,5.8-5.5,4.3-9.2
				c-1.6-3.9-5.8-4.2-9.4-3.1C89.5,34.5,89.6,35.1,90,35L90,35z"/>
		</g>
	</g>
</g>
<g>
	<g>
		<g>
			<path class="st0" d="M64,52.5c0.1,0,0.2,0,0.3,0c0-0.1,0-0.2-0.1-0.3c-0.3,0.1-0.6,0.1-0.8,0.2c-0.5,0.2-0.9,0.6-1.3,0.9
				c-0.7,0.6-1.5,1.3-1.8,2.2c-0.7,2.1,2,3.1,3.6,2.9c1.4-0.1,2.6-0.7,4-0.9c1.4-0.2,2.6,0.3,3.9,0.7c1.7,0.4,3.5-0.6,3.2-2.6
				c-0.3-2.1-3-3.2-4.8-3.9c-0.2-0.1-0.3,0.2-0.1,0.3c1.8,0.7,5.2,2.1,4.5,4.6c-0.8,2.9-4.4,0.6-6.3,0.7c-1.1,0-2.2,0.5-3.3,0.7
				c-1.4,0.3-4,0.4-4.5-1.4c-0.3-1.1,0.8-2.3,1.6-2.9c0.4-0.4,1-0.8,1.5-1c0.2-0.1,0.5-0.1,0.7-0.2c0.1-0.1,0.1-0.3-0.1-0.3
				c-0.1,0-0.2,0-0.3,0C63.7,52.2,63.8,52.5,64,52.5L64,52.5z"/>
		</g>
	</g>
</g>
<g>
	<g>
		<g>
			<path class="st0" d="M71,58.1c0.5,1.2,0.7,2.6,0.3,3.9c-0.3,1-1.2,1.7-2.2,1.4c-0.7-0.2-0.9-0.8-1.2-1.5c-0.1-0.2-0.3,0-0.3,0.1
				c0.3,0.6,0.5,1.3,1.2,1.6c0.6,0.2,1.4,0,1.9-0.3c1.6-1.1,1.1-3.9,0.5-5.3C71.2,57.8,70.9,57.9,71,58.1L71,58.1z"/>
		</g>
	</g>
</g>
<g>
	<g>
		<g>
			<path class="st0" d="M104.2,110c2.4,1.2,5.6,5.1,8.6,3.3c1.3-0.8,1.9-2.2,1.3-3.7c-0.6-1.6-2.1-2.7-3.5-3.5
				c-0.2-0.1-0.3,0.2-0.1,0.3c1.2,0.7,2.5,1.6,3.2,2.9c1,1.9-0.3,4.1-2.5,4.1c-2.6,0-4.6-2.7-6.8-3.7C104.2,109.7,104,110,104.2,110
				L104.2,110z"/>
		</g>
	</g>
</g>
<g>
	<g>
		<g>
			<path class="st0" d="M113.2,112.7c0.3-1.9-0.9-3.3-2.5-4.1c-0.2-0.1-0.3,0.2-0.1,0.3c1.5,0.7,2.7,2.1,2.4,3.8
				C112.9,112.8,113.2,112.9,113.2,112.7L113.2,112.7z"/>
		</g>
	</g>
</g>
<g>
	<g>
		<path class="st0" d="M107,98.2C106.9,98.2,106.9,98.2,107,98.2c-0.1,0.1-0.2,0.2-0.2,0.2c1.4,0.9,2.3,2.5,2.6,4
			c0.1,0.5,0.1,1,0.1,1.5c0.1,0,0.2,0,0.3,0c0,0,0,0,0,0C110,101.8,108.7,99.4,107,98.2z"/>
	</g>
</g>
<g>
	<g>
		<g>
			<path class="st0" d="M99.2,68.7c-1.5,0.5-2.6,1.7-3.5,2.9c-0.1,0.1,0.1,0.3,0.2,0.2c0.9-1.2,1.9-2.4,3.4-2.8
				C99.4,69,99.4,68.7,99.2,68.7L99.2,68.7z"/>
		</g>
	</g>
</g>
<g>
	<g>
		<g>
			<path class="st0" d="M96,75.8c2.7-0.1,5.3-1.6,5.9-4.3c0-0.2-0.2-0.3-0.3-0.1c-0.6,2.6-3.1,4-5.6,4.1
				C95.8,75.5,95.8,75.8,96,75.8L96,75.8z"/>
		</g>
	</g>
</g>
<g>
	<g>
		<g>
			<path class="st0" d="M99,71.8c1.1-0.5,2.2-1.7,1.4-3c-0.1-0.2-0.3,0-0.3,0.1c0.7,1.1-0.3,2.1-1.3,2.6
				C98.6,71.6,98.8,71.9,99,71.8L99,71.8z"/>
		</g>
	</g>
</g>
<g>
	<path class="st0" d="M78.4,52.3c-4.9,0-8.9-4-8.9-8.9s4-8.9,8.9-8.9c4.9,0,8.9,4,8.9,8.9S83.3,52.3,78.4,52.3z M78.4,34.9
		c-4.7,0-8.5,3.8-8.5,8.5s3.8,8.5,8.5,8.5c4.7,0,8.5-3.8,8.5-8.5S83.1,34.9,78.4,34.9z"/>
</g>
<g>
	<path class="st0" d="M56.5,53.2c-4.9,0-8.9-4-8.9-8.9s4-8.9,8.9-8.9s8.9,4,8.9,8.9S61.4,53.2,56.5,53.2z M56.5,35.8
		c-4.7,0-8.5,3.8-8.5,8.5s3.8,8.5,8.5,8.5S65,49,65,44.3S61.2,35.8,56.5,35.8z"/>
</g>
<g>
	<path class="st0" d="M95.1,40c0-1-0.8-1.8-1.8-1.8s-1.8,0.8-1.8,1.8c0,1,0.8,1.8,1.8,1.8S95.1,41,95.1,40z"/>
</g>
<g>
	<circle class="st0" cx="41.4" cy="41.6" r="1.8"/>
</g>
<g>
	<path class="st0" d="M71.4,51.5c0-1.2-1.7-2.2-3.9-2.2c-2.2,0-3.9,1-3.9,2.2c0,1.2,1.7,2.2,3.9,2.2C69.6,53.6,71.4,52.7,71.4,51.5z
		"/>
</g>
<g>
	<path class="st0" d="M74.4,43.5c-1.6,0-2.8,1.3-2.8,2.8c0,1.6,1.3,2.8,2.8,2.8c1.6,0,2.8-1.3,2.8-2.8C77.2,44.7,76,43.5,74.4,43.5z
		 M75.5,48.1c-0.4,0-0.8-0.4-0.8-0.8c0-0.4,0.4-0.8,0.8-0.8s0.8,0.4,0.8,0.8C76.3,47.8,76,48.1,75.5,48.1z"/>
</g>
<g>
	<path class="st0" d="M52.2,43.9c-1.6,0-2.8,1.3-2.8,2.8c0,1.6,1.3,2.8,2.8,2.8c1.6,0,2.8-1.3,2.8-2.8
		C55.1,45.2,53.8,43.9,52.2,43.9z M53.4,48.6c-0.4,0-0.8-0.4-0.8-0.8s0.4-0.8,0.8-0.8c0.4,0,0.8,0.4,0.8,0.8
		C54.2,48.2,53.8,48.6,53.4,48.6z"/>
</g>
<g>
	<g>
		<g>
			<path class="st0" d="M67.7,57.5c0.2,1.1,0.2,2.6,0,3.7c-0.1,0.7-0.2,1.4-0.7,1.9c-0.6,0.6-1.6,0.6-2.2,0
				c-1.1-1.1-0.8-3.5-0.4-4.8c0-0.2-0.2-0.3-0.3-0.1c-0.5,1.6-0.9,5,1.3,5.6c3.2,0.9,2.9-4.7,2.6-6.4C68,57.2,67.7,57.3,67.7,57.5
				L67.7,57.5z"/>
		</g>
	</g>
</g>
<g>
	<g>
		<g>
			<path class="st0" d="M40.3,76c-1.6,0.3-3.1-0.3-4.4-1.2c-1-0.7-2.8-2.4-1-3.5c0.2-0.1,0-0.3-0.1-0.3c-1.4,0.8-0.9,2.2,0.1,3.2
				c1.4,1.4,3.5,2.3,5.5,2C40.5,76.2,40.4,75.9,40.3,76L40.3,76z"/>
		</g>
	</g>
</g>
<g>
	<g>
		<g>
			<path class="st0" d="M36.4,72.3c-1.1-0.5-1.7-2.2,0-2.2c1.4,0,2.7,1.3,3.6,2.3c0.1,0.1,0.3-0.1,0.2-0.2c-1-1.1-3-3.2-4.7-2.2
				c-1.2,0.7-0.1,2.1,0.7,2.5C36.4,72.6,36.5,72.4,36.4,72.3L36.4,72.3z"/>
		</g>
	</g>
</g>
<g>
	<g>
		<g>
			<path class="st0" d="M108,97.5c-1-3.6-1.2-7.6-4.3-10.3c-0.3-0.2-0.7,0.2-0.4,0.4c3,2.6,3.1,6.5,4.1,10
				C107.6,98,108.2,97.8,108,97.5L108,97.5z"/>
		</g>
	</g>
</g>
<g>
	<g>
		<g>
			<path class="st0" d="M95.3,69.9c0,4.2,0.8,8.2,3.5,11.6c0.2,0.3,0.6-0.1,0.4-0.4c-2.5-3.2-3.3-7.2-3.3-11.2
				C95.9,69.6,95.3,69.6,95.3,69.9L95.3,69.9z"/>
		</g>
	</g>
</g>
<g>
	<g>
		<g>
			<path class="st0" d="M91.1,39.6c5.1,7.9,4.7,17.5,4.3,26.5c0,0.4,0.6,0.4,0.6,0c0.4-9.1,0.8-18.8-4.4-26.8
				C91.4,39,90.9,39.3,91.1,39.6L91.1,39.6z"/>
		</g>
	</g>
</g>
<g>
	<g>
		<g>
			<path class="st0" d="M91.7,67.1c1.3-0.3,2.6-0.5,3.9-0.7c0.4,0,0.4-0.6,0-0.6c-1.4,0.1-2.8,0.4-4.1,0.7
				C91.2,66.6,91.3,67.2,91.7,67.1L91.7,67.1z"/>
		</g>
	</g>
</g>
<g>
	<g>
		<g>
			<path class="st0" d="M39.9,69.8c3.3,0.3,6.4,1.6,9.4,2.8c1.5,0.6,3,1.1,4.5,1.5c1.8,0.4,3.6,0.6,5.5,1c2.6,0.5,5.8,1.5,7.8,3.3
				c0.7,0.7,1.4,1.5,2.1,2.4c0.4,0.6,1.3,1.7,1,2.5c-0.1,0.3,0.4,0.5,0.5,0.2c3.3-6.2,8.6-11.1,14.9-14.2c0.3-0.2,0-0.7-0.3-0.5
				c-6.4,3.1-11.8,8-15.2,14.4c0.2,0.1,0.3,0.1,0.5,0.2c0.6-1.5-1.6-3.8-2.5-4.7c-1.8-1.9-4.3-3-6.8-3.7c-1.9-0.6-3.8-0.7-5.7-1.1
				c-1.9-0.3-3.7-0.9-5.5-1.5c-3.4-1.2-6.7-2.7-10.3-3.1C39.5,69.1,39.5,69.7,39.9,69.8L39.9,69.8z"/>
		</g>
	</g>
</g>
<g>
	<g>
		<g>
			<path class="st0" d="M70.1,83c-1.3,0-4.3,0.8-4,2.7c0.2,0.9,1.3,1,2,1.2c1.3,0.2,2.6,0.3,3.8,0.2c1.3-0.1,4.1-0.4,3.9-2.3
				c-0.1-0.7-0.7-1-1.3-1.3c-1.2-0.4-2.5-0.6-3.8-0.6c-0.4,0-0.4,0.6,0,0.6c1.1,0,2.5,0,3.5,0.5c0.1,0,0.3,0.1,0.4,0.1
				c0.1,0.5,0.3,1,0.4,1.5c-0.1,0.3-0.8,0.5-1.1,0.5c-0.7,0.2-1.4,0.3-2.1,0.3c-1.2,0.1-2.5,0-3.7-0.2c-0.7-0.1-0.6,0-0.7-0.9
				c-0.1-0.8-0.1-0.8,0.6-1.2c0.7-0.4,1.4-0.5,2.2-0.6C70.5,83.6,70.5,83,70.1,83L70.1,83z"/>
		</g>
	</g>
</g>
<g>
	<g>
		<g>
			<path class="st0" d="M92.9,70.9c1.4-0.4,3.6-1,4.2-2.7c0.3-1.1-0.2-2.6-1.5-2.4c-0.4,0-0.4,0.6,0,0.6c1.4-0.2,1.2,1.7,0.5,2.4
				c-0.9,0.9-2.1,1.2-3.3,1.6C92.4,70.5,92.6,71.1,92.9,70.9L92.9,70.9z"/>
		</g>
	</g>
</g>
<g>
	<g>
		<g>
			<path class="st0" d="M72.2,83.4c5.3-2.2,8.4-7.4,13.4-10.1c0.3-0.2,0-0.7-0.3-0.5c-4.9,2.7-8,7.9-13.2,10.1
				C71.8,83,71.9,83.5,72.2,83.4L72.2,83.4z"/>
		</g>
	</g>
</g>
<g>
	<g>
		<g>
			<path class="st0" d="M68.7,83c-4.4-3.1-9.3-5.4-14.4-7.2c-2.5-0.9-5.1-1.7-7.7-2.4c-1.3-0.4-2.7-0.7-4-1.1
				c-0.5-0.1-1-0.2-1.5-0.4c-0.3-0.1-0.7-0.2-0.9-0.4c-0.7-0.4-0.8-1.5,0-1.8c0.3-0.2,0-0.7-0.3-0.5c-0.7,0.3-1.2,1-1,1.8
				c0.3,0.9,1.4,1.3,2.2,1.5c3.1,0.8,6.1,1.6,9.1,2.5c6.4,2,12.6,4.6,18.2,8.5C68.7,83.7,69,83.2,68.7,83L68.7,83z"/>
		</g>
	</g>
</g>
<g>
	<g>
		<g>
			<path class="st0" d="M67.6,82.6c-0.4-0.6-1.2-0.6-1.7-0.1c-0.5,0.5-0.7,1.4-0.2,2c0.4,0.4,1.2,0.4,1.6,0c0.5-0.5,0.4-1.4,0.1-2
				c-0.2-0.3-0.7,0-0.5,0.3s0.3,0.7,0.1,1.1c-0.1,0.3-0.5,0.4-0.8,0.3c-0.4-0.2-0.2-0.8,0-1c0.2-0.3,0.6-0.5,0.9-0.2
				C67.3,83.2,67.8,82.9,67.6,82.6L67.6,82.6z"/>
		</g>
	</g>
</g>
<g>
	<g>
		<g>
			<path class="st0" d="M65.8,84.1c-1-0.5-2.1,0.3-1.8,1.4c0.3,1.1,1.7,1.3,2.4,0.5c0.3-0.3-0.2-0.7-0.4-0.4
				c-0.4,0.4-1.2,0.5-1.4-0.2c-0.2-0.6,0.4-1.1,0.9-0.8C65.9,84.8,66.2,84.3,65.8,84.1L65.8,84.1z"/>
		</g>
	</g>
</g>
<g>
	<g>
		<g>
			<path class="st0" d="M65.6,85.9c-0.4,0.4-0.8,0.9-0.8,1.4c0,0.5,0.4,0.9,0.9,1c1.2,0.3,2.1-0.9,1.7-2c-0.1-0.3-0.7-0.2-0.6,0.2
				c0.3,0.7-0.2,1.4-1,1.3c-0.9-0.2-0.1-1.1,0.2-1.5C66.3,86.1,65.9,85.7,65.6,85.9L65.6,85.9z"/>
		</g>
	</g>
</g>
<g>
	<g>
		<g>
			<path class="st0" d="M68,86.5c-0.7,0.1-1.2,0.7-1.3,1.4c0,0.7,0.5,1.3,1.2,1.4c1.6,0.3,2.3-1.7,1.1-2.6c-0.3-0.2-0.6,0.3-0.3,0.5
				c0.7,0.6,0.2,1.8-0.7,1.5c-1-0.3-0.7-1.6,0.2-1.7C68.5,87,68.3,86.4,68,86.5L68,86.5z"/>
		</g>
	</g>
</g>
<g>
	<g>
		<g>
			<path class="st0" d="M69.9,86.7c-1.3,1-0.4,3.2,1.3,2.8c0.7-0.2,1.2-0.8,1.1-1.5c-0.1-0.8-0.9-1.3-1.6-1.2
				c-0.4,0-0.2,0.6,0.2,0.6c0.5-0.1,0.9,0.4,0.9,0.9c0,0.4-0.5,0.7-0.9,0.7c-1,0-1.2-1.3-0.5-1.9C70.6,86.9,70.2,86.5,69.9,86.7
				L69.9,86.7z"/>
		</g>
	</g>
</g>
<g>
	<g>
		<g>
			<path class="st0" d="M72.7,86.7c-0.7,0.1-1.1,0.8-1,1.5c0.1,0.7,0.8,1.2,1.5,1.2c0.7,0,1.4-0.6,1.6-1.2c0.2-0.6,0-1.5-0.7-1.6
				c-0.4-0.1-0.5,0.5-0.2,0.6c0.5,0.1,0.4,0.7,0.3,1c-0.2,0.4-0.5,0.7-1,0.7c-1,0-1.4-1.4-0.3-1.6C73.2,87.2,73.1,86.6,72.7,86.7
				L72.7,86.7z"/>
		</g>
	</g>
</g>
<g>
	<g>
		<g>
			<path class="st0" d="M74.5,86.1c-0.4,0.3-0.5,0.9-0.2,1.4c0.4,0.6,1.2,0.6,1.7,0.3c0.5-0.3,1-0.9,0.8-1.5c-0.1-0.6-0.7-1-1.3-0.9
				c-0.4,0.1-0.2,0.7,0.2,0.6c0.3-0.1,0.6,0.2,0.6,0.5c0,0.3-0.2,0.6-0.5,0.7c-0.3,0.2-0.6,0.2-0.9,0c-0.2-0.1-0.3-0.5-0.1-0.7
				C75.1,86.4,74.8,85.9,74.5,86.1L74.5,86.1z"/>
		</g>
	</g>
</g>
<g>
	<g>
		<g>
			<path class="st0" d="M75.5,85.4c0.3,0.4,0.9,0.6,1.4,0.4c0.5-0.2,0.7-0.8,0.6-1.3c-0.2-0.5-0.7-0.9-1.3-0.7
				c-0.6,0.2-0.9,0.8-0.8,1.4c0.1,0.4,0.7,0.2,0.6-0.2c-0.1-0.3,0.1-0.6,0.4-0.7c0.3,0,0.5,0.2,0.5,0.4c0.1,0.6-0.6,0.8-0.9,0.4
				C75.8,84.8,75.3,85.1,75.5,85.4L75.5,85.4z"/>
		</g>
	</g>
</g>
<g>
	<g>
		<g>
			<path class="st0" d="M75.6,82.3c-0.3-0.6-1.1-0.1-1.2,0.4c-0.1,0.7,0.3,1.4,1,1.6c0.6,0.1,1.3-0.2,1.5-0.9
				c0.2-0.7-0.5-1.4-1.2-1.3c-0.4,0-0.4,0.6,0,0.6c0.3,0,0.7,0.2,0.6,0.6c0,0.3-0.3,0.4-0.6,0.5c-0.3,0-0.5-0.2-0.7-0.4
				c0-0.1-0.1-0.3-0.1-0.4c0-0.1,0-0.1,0.1-0.2c0.1,0,0.1,0,0-0.1C75.3,82.9,75.8,82.6,75.6,82.3L75.6,82.3z"/>
		</g>
	</g>
</g>
<g>
	<g>
		<g>
			<path class="st0" d="M73.4,83.3c-0.1-0.4,0.1-1,0.6-0.9c0.2,0,0.3,0.1,0.3,0.3c0,0.2-0.2,0.4-0.4,0.3c-0.3-0.2-0.6,0.3-0.3,0.5
				c0.4,0.2,0.9,0,1.2-0.4c0.3-0.4,0.1-0.9-0.3-1.2c-0.4-0.2-0.9-0.2-1.3,0.1c-0.4,0.3-0.5,0.9-0.4,1.4
				C72.9,83.8,73.5,83.6,73.4,83.3L73.4,83.3z"/>
		</g>
	</g>
</g>
<g>
	<g>
		<g>
			<path class="st0" d="M66.7,85.4c1.7,0.4,3.5,0.6,5.2,0.4c1.1-0.1,2.8-0.2,3.5-1.1c0.2-0.3-0.3-0.6-0.5-0.3
				c-0.6,0.9-3.1,0.9-4.1,0.9c-1.4,0-2.7-0.1-4-0.5C66.5,84.7,66.4,85.3,66.7,85.4L66.7,85.4z"/>
		</g>
	</g>
</g>
<g>
	<g>
		<g>
			<path class="st0" d="M71.6,83.1c1.8-2.1,3.7-4.2,5.8-6c0.3-0.3-0.1-0.7-0.4-0.4c-2.1,1.8-4.1,3.8-5.8,6
				C71,83,71.4,83.4,71.6,83.1L71.6,83.1z"/>
		</g>
	</g>
</g>
<g>
	<g>
		<g>
			<path class="st0" d="M69.5,83.3c-1.7-2.5-3.5-5.8-6.9-6.2c-0.4,0-0.4,0.5,0,0.6c3.1,0.3,4.8,3.6,6.4,5.9
				C69.2,83.9,69.7,83.6,69.5,83.3L69.5,83.3z"/>
		</g>
	</g>
</g>
<g>
	<g>
		<g>
			<path class="st0" d="M74.7,95.2c-0.7-0.4-1.5-0.4-2.2,0c-0.5,0.3-0.8,1-0.5,1.6c0.4,0.6,1.1,0.7,1.8,0.5c0.7-0.3,1.3-0.9,1.5-1.6
				c0.1-0.3-0.4-0.5-0.6-0.2c-0.2,0.7-1.2,1.7-2,1.2c-0.6-0.4-0.1-1,0.4-1.2c0.4-0.1,0.9,0,1.2,0.2C74.8,95.9,75.1,95.4,74.7,95.2
				L74.7,95.2z"/>
		</g>
	</g>
</g>
<g>
	<g>
		<g>
			<path class="st0" d="M72.4,95.5c-1.1-1.1-2.2-2.2-3.4-3.2c-0.6-0.6-1.3-1-2.2-0.7c-0.8,0.3-1.2,1-1.3,1.8c-0.1,1.4,1,2.5,0.5,3.9
				c-0.3,0.9-0.9,1.7-0.8,2.7c0.1,0.9,0.6,1.8,1.4,2.3c0.9,0.5,1.4,0,2-0.7c1.1-1.3,2.3-2.5,3.4-3.8c0.3-0.3-0.2-0.7-0.4-0.4
				c-0.7,0.8-1.4,1.6-2.2,2.4c-0.5,0.5-1.1,1.6-1.7,1.9c-1.5,0.7-2.1-1.8-1.9-2.8c0.2-0.7,0.7-1.3,0.9-2.1c0.4-1.5-1.8-4.2,0.4-4.8
				c0.8-0.2,1.2,0.2,1.8,0.7c0.3,0.3,0.6,0.6,0.9,0.9c0.7,0.7,1.4,1.4,2.2,2C72.3,96.1,72.7,95.8,72.4,95.5L72.4,95.5z"/>
		</g>
	</g>
</g>
<g>
	<g>
		<g>
			<path class="st0" d="M75.5,95.6c0.3-1.6,1.1-5.4,3.6-4c1.2,0.7,0,2.1-0.1,2.9c0,0.3,0,0.6,0.2,0.9c0.4,1,1.5,1.4,2,2.4
				c0.3,0.6,0.5,1.2-0.6,1.5c-0.4,0.1-0.9-0.1-1.3-0.2c-1-0.2-1.8-0.6-2.7-1c-0.3-0.2-0.6,0.3-0.3,0.5c1.1,0.6,2.2,1,3.5,1.2
				c0.7,0.1,1.7,0.3,2.1-0.5c0.9-1.6-1.5-2.8-2.1-3.9c-0.6-1.2,0.6-2.1,0.4-3.3c-0.2-0.9-1-1.1-1.8-1.2c-2.5-0.3-3.1,2.7-3.4,4.6
				C74.9,95.8,75.5,96,75.5,95.6L75.5,95.6z"/>
		</g>
	</g>
</g>
<g>
	<g>
		<g>
			<path class="st0" d="M72.1,96.6c-1.5-0.7-3.1-0.7-4.6,0.1c-0.3,0.2,0,0.7,0.3,0.5c1.3-0.7,2.7-0.7,4-0.1
				C72.1,97.2,72.4,96.8,72.1,96.6L72.1,96.6z"/>
		</g>
	</g>
</g>
<g>
	<g>
		<g>
			<path class="st0" d="M71.6,97c-0.9,0.2-1.7,0.6-2.3,1.1c-0.3,0.2,0.1,0.7,0.4,0.4c0.6-0.5,1.3-0.8,2.1-1C72.2,97.5,72,97,71.6,97
				L71.6,97z"/>
		</g>
	</g>
</g>
<g>
	<g>
		<g>
			<path class="st0" d="M75.5,95.8c0.6-0.5,1.3-0.8,2.1-1c0.4-0.1,0.2-0.6-0.2-0.6c-0.9,0.1-1.7,0.5-2.3,1.1
				C74.8,95.6,75.2,96,75.5,95.8L75.5,95.8z"/>
		</g>
	</g>
</g>
<g>
	<g>
		<g>
			<path class="st0" d="M75.5,96.7c0.6-0.2,1.1,0,1.5,0.3c0.3,0.2,0.6-0.3,0.3-0.5c-0.6-0.4-1.3-0.6-2-0.4
				C75,96.2,75.1,96.8,75.5,96.7L75.5,96.7z"/>
		</g>
	</g>
</g>
<g>
	<g>
		<g>
			<path class="st0" d="M72,97.3c-0.9,1.5-1.5,3-1.8,4.7c0,0.2,0.1,0.4,0.3,0.3c1-0.2,1.7,0.6,2.2,1.3c0.2,0.2,0.6,0.2,0.5-0.1
				c-0.1-1.4-1.2-4.2,0-5.2c0.3-0.5,0.5-0.4,0.7,0.2c0.1,0.2,0.2,0.3,0.3,0.5c0.2,0.3,0.4,0.7,0.6,1.1c0.4,0.9,0.7,1.8,0.9,2.8
				c0,0.2,0.3,0.3,0.5,0.1c0.3-0.3,0.6-0.5,1-0.6c0.3,0,0.6,0,0.9-0.1c0.1-0.1,0.3-0.1,0.4-0.2c0.2-0.4-0.1-0.8-0.3-1.2
				c-0.8-1.6-2-2.8-3.5-3.7c-0.3-0.2-0.6,0.3-0.3,0.5c1.4,0.8,2.5,1.9,3.3,3.4c0.5,1,0.2,0.6-0.5,0.8c-0.5,0.1-0.9,0.4-1.3,0.8
				c0.2,0,0.3,0.1,0.5,0.1c-0.3-1.3-0.7-2.6-1.4-3.8c-0.3-0.6-0.8-1.7-1.7-1.6c-2.1,0.4-0.6,5.1-0.6,6.2c0.2,0,0.4-0.1,0.5-0.1
				c-0.7-1-1.6-1.8-2.9-1.5c0.1,0.1,0.2,0.2,0.3,0.3c0.3-1.6,0.9-3.1,1.7-4.5C72.7,97.2,72.2,97,72,97.3L72,97.3z"/>
		</g>
	</g>
</g>
<g>
	<g>
		<g>
			<path class="st0" d="M73.7,97.4c1.4,1.2,2.4,2.7,2.9,4.4c0.1,0.3,0.7,0.2,0.6-0.2c-0.5-1.8-1.6-3.4-3-4.7
				C73.9,96.8,73.4,97.2,73.7,97.4L73.7,97.4z"/>
		</g>
	</g>
</g>
<g>
	<g>
		<g>
			<path class="st0" d="M72.8,97.8c0.4-0.5-0.3-0.9-0.7-0.4c-0.7,0.8-0.9,2-1,3c0,0.4,0.6,0.4,0.6,0c0-0.5,0.1-0.9,0.3-1.4
				c0.1-0.3,0.4-1.2,0.7-1.3c-0.1,0-0.2,0-0.3,0c0,0,0,0,0,0c0-0.1,0-0.2,0.1-0.3c0,0,0,0,0,0C72.2,97.7,72.6,98.1,72.8,97.8
				L72.8,97.8z"/>
		</g>
	</g>
</g>
<g>
	<g>
		<g>
			<path class="st0" d="M79.6,94.1c3.9-0.5,7-3.1,9.9-5.6c3.1-2.8,6.1-5.8,7.8-9.6c0.2-0.3-0.3-0.6-0.5-0.3c-1.6,3.6-4.3,6.4-7.2,9
				c-2.9,2.6-6,5.5-10,6C79.2,93.6,79.2,94.2,79.6,94.1L79.6,94.1z"/>
		</g>
	</g>
</g>
<g>
	<g>
		<g>
			<path class="st0" d="M79.6,95.6C87.4,93,94.2,87.9,99,81.2c0.2-0.3-0.3-0.6-0.5-0.3c-4.7,6.6-11.3,11.6-19,14.2
				C79.1,95.2,79.3,95.8,79.6,95.6L79.6,95.6z"/>
		</g>
	</g>
</g>
<g>
	<g>
		<g>
			<path class="st0" d="M66.2,95.8c-8.1,1.2-16.6,2.4-24.5-0.4c-0.3-0.1-0.5,0.4-0.2,0.6c8,2.8,16.6,1.6,24.8,0.4
				C66.7,96.3,66.6,95.8,66.2,95.8L66.2,95.8z"/>
		</g>
	</g>
</g>
<g>
	<g>
		<g>
			<path class="st0" d="M66.3,97c-4,1.3-8,2.1-12.1,2.5c-2,0.2-3.9,0.3-5.9,0.2c-2.2,0-4.2-0.4-6.3-0.9c-0.4-0.1-0.5,0.5-0.2,0.6
				c2,0.4,3.9,0.8,6,0.9c2.1,0.1,4.2,0,6.3-0.2c4.2-0.4,8.3-1.2,12.3-2.5C66.8,97.5,66.7,96.9,66.3,97L66.3,97z"/>
		</g>
	</g>
</g>
<g>
	<g>
		<g>
			<path class="st0" d="M36.1,112.8c-2.9,2.5-3.4,6.4-5.1,9.7c-0.8,1.6-3.4,6.4,0.1,6.7c2.1,0.2,4.2-0.1,6.3-0.1
				c2.5,0,5.1-0.1,7.6-0.2c5-0.3,9.9-1.2,14.9-1.8c4.7-0.5,9.6-0.7,14.2-1.7c2.2-0.5,4.4-1.2,6.4-2.1c0.9-0.4,1.9-0.6,2.8-0.9
				c0.8-0.3,1.4-1.1,1.9-1.7c2.7-3.1,5.9-5.6,9.7-7.3c2.1-0.9,4.2-1.4,6.3-2.2c2.1-0.8,4.2-1.7,6.2-2.7c1.1-0.5,2.3-1,3.3-1.7
				c0.4-0.3,0.8-0.7,0.8-1.2c0.1-0.7-0.1-1.2-0.7-1.5c-1-0.6-2.4-0.9-3.6-1.1c-5-1-10.1-0.5-15.2-0.4c-0.4,0-0.4,0.6,0,0.6
				c4,0,8-0.4,12.1,0c1.1,0.1,2.1,0.3,3.2,0.5c0.9,0.2,2.2,0.4,3,0.9c1.7,1-0.4,2.1-1.2,2.5c-0.9,0.5-1.8,1-2.8,1.4
				c-1.9,0.9-3.9,1.7-5.9,2.4c-1.8,0.7-3.7,1.1-5.5,1.9c-3.1,1.3-5.8,3.1-8.2,5.4c-0.6,0.6-1.2,1.2-1.8,1.9c-0.7,0.8-1.3,1.7-2.4,2
				c-0.8,0.2-1.5,0.4-2.3,0.8c-1.1,0.5-2.2,0.9-3.4,1.3c-4.2,1.3-8.6,1.5-12.9,2c-4.2,0.4-8.4,0.9-12.5,1.5
				c-4.6,0.7-9.1,0.9-13.7,0.9c-2.1,0-4.3,0.2-6.4,0.2c-3-0.1-1.1-3.8-0.3-5.3c1.8-3.4,2.4-7.6,5.3-10.2
				C36.8,112.9,36.4,112.5,36.1,112.8L36.1,112.8z"/>
		</g>
	</g>
</g>
<g>
	<g>
		<g>
			<path class="st0" d="M79.9,96.3c2.4,0.4,4.7,0.1,7.1-0.3c2.3-0.4,4.6-0.9,6.5-2.2c1.9-1.4,3.5-3.1,5.5-4.3
				c1.1-0.7,2.3-1.5,3.5-1.8c0.7-0.2,1.5-0.3,2.1,0.1c0.9,0.4,0.8,0.8,0.5,1.5c-0.2,0.3,0.3,0.6,0.5,0.3c0.3-0.7,0.7-1,0.1-1.7
				c-0.5-0.6-1.3-0.9-2.1-0.9c-2.3,0-4.9,1.9-6.6,3.3c-2.4,1.8-4.2,3.9-7.2,4.7c-3.1,0.8-6.5,1.5-9.7,1
				C79.7,95.7,79.5,96.2,79.9,96.3L79.9,96.3z"/>
		</g>
	</g>
</g>
<g>
	<g>
		<g>
			<path class="st0" d="M106.5,88.3c-0.1-2-0.7-4-2-5.5c-1.7-1.8-3.7-1.7-6-1.5c-0.4,0-0.4,0.6,0,0.6c2.1-0.2,4-0.3,5.6,1.4
				c1.3,1.4,1.7,3.2,1.8,5C105.9,88.7,106.5,88.7,106.5,88.3L106.5,88.3z"/>
		</g>
	</g>
</g>
<g>
	<g>
		<g>
			<path class="st0" d="M65.8,101.6c-2,2.8-5.1,4.4-8.5,4.8c-3.6,0.4-7-0.3-10.3-1.7c-2.9-1.3-5.8-2.8-9-3.2
				c-1.8-0.2-3.3,0.2-5.1,0.4c-1.1,0.2-3,0.2-3.2-1.3c-0.1-0.8,0.3-1.6,0.8-2.2c0.2-0.3-0.3-0.6-0.5-0.3c-1.3,1.8-1.2,4.1,1.4,4.4
				c1.7,0.2,3.4-0.6,5.1-0.6c1.7,0,3.4,0.4,5,1c3.1,1.1,5.9,2.8,9.1,3.7c2.7,0.7,5.6,0.8,8.3,0.2c3-0.7,5.7-2.3,7.5-4.9
				C66.6,101.6,66.1,101.3,65.8,101.6L65.8,101.6z"/>
		</g>
	</g>
</g>
<g>
	<g>
		<g>
			<path class="st0" d="M29.3,99.2c-1.4,3.4-2.4,6.8-3.1,10.4c-0.3,1.6-0.6,3.3-0.7,4.9c-0.1,1-0.6,2.8,0.4,3.5
				c0.8,0.6,1.9,0,2.6-0.5c1.4-1,2.7-2,4.2-2.8c1.6-0.8,3.3-1.4,5-1.7c1.5-0.3,3.1-0.5,4.5-1.2c1.6-0.8,2.5-2.4,3.9-3.4
				c1.8-1.3,4.1-1.3,6.2-1.3c0.4,0,0.4-0.6,0-0.6c-1.7,0-3.5,0-5.1,0.7c-1.6,0.7-2.6,1.9-3.8,3.1c-1.7,1.5-3.7,1.7-5.8,2.2
				c-1.8,0.4-3.5,1-5.1,1.8c-0.9,0.4-1.7,1-2.6,1.5c-0.7,0.5-1.3,1.1-2.1,1.5c-0.3,0.1-0.5,0.3-0.8,0.3c-0.8-0.3-1.2-0.7-1.1-1.4
				c0-0.4,0.1-0.9,0.1-1.3c0.1-1.2,0.3-2.4,0.4-3.5c0.7-4.2,1.8-8.2,3.4-12.1C30,98.9,29.4,98.8,29.3,99.2L29.3,99.2z"/>
		</g>
	</g>
</g>
<g>
	<g>
		<g>
			<path class="st0" d="M29.5,100.2c0.5-2.3,2.9-3,4.9-3.5c2.2-0.5,4.4-1,6.7-0.8c0.4,0,0.4-0.6,0-0.6c-2.7-0.2-5.5,0.4-8.1,1.1
				c-1.9,0.5-3.7,1.5-4.1,3.5C28.9,100.4,29.5,100.6,29.5,100.2L29.5,100.2z"/>
		</g>
	</g>
</g>
<g>
	<g>
		<g>
			<path class="st0" d="M65.3,33.6c0.6,1,0.3,1.4-0.6,1.1c-0.6-0.2-0.9-0.6-1.1-1.1c-0.2-0.7,0-1.3,0.4-1.8c0.3-0.4,1.1-1,1.6-0.8
				c0.7,1,0.5,1.1-0.5,0.3c-0.3-0.9-0.2-1.2,0.4-1c0.1-0.1,0.2-0.2,0.3-0.3c-0.5,0-0.8-0.2-1.1-0.5c-0.3-0.2-0.3-0.5,0.1-0.8
				c-0.2,0.3,0.3,0.6,0.5,0.3c0.5-0.9-0.6-1.6-1.3-0.8c-0.9,1.1,0.7,2.5,1.8,2.5c0.2,0,0.3-0.1,0.3-0.3c0-0.4-0.1-0.7-0.3-1
				c-0.1-0.1-0.3-0.1-0.3,0c-2.2,1.2,0,4.3,1.5,2.9c0.6-0.6,0.1-1.3-0.5-1.6c-1-0.4-2.2,0.1-2.8,0.9c-1.4,1.7,0.1,4.9,2.4,3.8
				c2.1-1-0.3-3.6-1.2-1.8C64.6,33.6,65.1,33.9,65.3,33.6L65.3,33.6z"/>
		</g>
	</g>
</g>
<g>
	<g>
		<g>
			<path class="st0" d="M61.8,31.5c-0.9-0.2-1.6-0.8-1.8-1.7c-0.3-1,0.2,0.1-0.3,0.6c-0.3,0.3-0.9,0.4-1.3,0.5c-1,0.2-1.8,0.1-2.8,0
				c-1.4-0.2-2.5,0.9-3.9,0.6c-0.3,0-0.4,0.2-0.3,0.4c0.7,1.4-1.3,1.3-2,1.3c0,0.2,0,0.4,0.1,0.6c-0.3,0.7-0.8,0.9-1.4,0.7
				c0,0.1,0.1,0.3,0.2,0.4c0.2-0.1,0.3-0.3,0.5-0.4c0.3-0.2,0-0.7-0.3-0.5c-0.3,0.2-0.5,0.3-0.7,0.6c-0.1,0.1,0,0.4,0.2,0.4
				c0.8,0.2,2,0,2.3-0.8c0.2-0.6-0.3-1.1-0.9-0.9c-0.3,0.1-0.3,0.6,0.1,0.6c1.3,0,3.3-0.5,2.5-2.2c-0.1,0.1-0.2,0.3-0.3,0.4
				c1.1,0.2,2.6,0,3.3-0.9c0.5-0.6,0.2-1.4-0.7-1.3c-0.1,0-0.2,0.2-0.2,0.3c0.1,2.1,4.3,1.5,5.5,1c0.6-0.3,1.3-0.8,1.4-1.5
				c0-0.7-0.5-1.3-1.2-1.3c-0.1,0-0.3,0.1-0.3,0.2c-0.2,1.6,0.7,3.1,2.3,3.5C62,32.1,62.1,31.6,61.8,31.5L61.8,31.5z"/>
		</g>
	</g>
</g>
<g>
	<g>
		<g>
			<path class="st0" d="M67.3,30.2c0.1-0.9,0.6-1.7,1.4-1.9c0.4-0.1,0.8-0.1,1.1,0c0.4,0.1,0.7,0.3,0.8,0.7c0,0.2,0.1,0.3,0.1,0.5
				c0.9-1,2.3-0.9,2.9,0.2c0.1,0.1,0.3,0.2,0.4,0.1c0.9-0.7,2.1-0.1,2,1.1c0,0.2,0.3,0.3,0.4,0.3c0.4,0.1,0.8,0.3,1.3,0.4
				c-0.1,0.3,0.3,0.5,0.5,0.3c0.7-0.7,2-0.6,2.5,0.3c0.2,0.3,0.7,0,0.5-0.3c-0.7-1.2-2.4-1.4-3.4-0.4c0.2,0.1,0.3,0.2,0.5,0.3
				c0.5-1.4-1.2-1.5-2.1-1.1c0.1,0.1,0.3,0.2,0.4,0.3c0.1-1.6-1.6-2.6-2.9-1.6c0.1,0,0.3,0.1,0.4,0.1c-0.9-1.5-2.7-1.7-3.9-0.3
				c-0.1,0.2-0.1,0.4,0.1,0.5c0.4,0.1,0.8,0,0.9-0.5c0.1-0.7-0.8-1.2-1.4-1.4c-1.7-0.5-3.2,0.8-3.3,2.4
				C66.6,30.5,67.2,30.5,67.3,30.2L67.3,30.2z"/>
		</g>
	</g>
</g>
<g>
	<g>
		<g>
			<path class="st0" d="M45.8,35.9c0-2.3,1.4-4.1,3-5.7c1.3-1.3,3.4-3.5,5.4-2.5c0.1,0.1,0.3,0,0.4-0.1c0.3-0.6,1.5-2.5,2.1-1
				c0.1,0.2,0.3,0.3,0.5,0.1c0.5-0.4,1.1-0.7,1.8-0.6c0.4,0.1,0.7,0.3,1,0.4s0.7,0.1,1.1-0.1c0.8-0.3,1.4-0.9,2.2-1.1
				c1.1-0.3,2.3,0,3.2,0.7c0.3,0.2,0.6,0,0.5-0.3c-0.1-0.3-0.5-0.6-0.8-0.7c-0.2-0.1-0.5,0.2-0.3,0.4c0.2,0.2,0.4,0.4,0.6,0.7
				c0.2,0.2,0.5,0,0.5-0.2c0-0.5-0.2-1.8-0.9-1.5c-0.8,0.3,0.1,1.4,0.4,1.7c0.2,0.2,0.5,0,0.5-0.2c0-1.4,2-1.1,2.9-1
				c1.1,0.1,4.7,0,4.8,1.7c0,0.2,0.2,0.3,0.4,0.3c0.7-0.1,1.3-0.1,1.9,0.2c0.3,0.1,0.5-0.4,0.2-0.6c-0.7-0.3-1.5-0.3-2.3-0.2
				c0.1,0.1,0.3,0.2,0.4,0.3c-0.2-2.3-3.8-2.1-5.4-2.2c-1.4-0.1-3.5-0.2-3.5,1.6c0.2-0.1,0.3-0.1,0.5-0.2c-0.1-0.1-0.5-0.7-0.6-0.6
				c0,0,0.1,0.7,0.1,0.8c0.2-0.1,0.3-0.1,0.5-0.2c-0.2-0.1-0.4-0.3-0.5-0.5c-0.1,0.1-0.2,0.3-0.3,0.4c0.1,0,0.3,0.3,0.4,0.4
				c0.2-0.1,0.3-0.2,0.5-0.3c-1.4-1.2-3.2-1.3-4.8-0.5c-0.8,0.4-1.3,0.9-2.2,0.6c-0.3-0.1-0.5-0.3-0.9-0.3c-0.8-0.1-1.6,0.3-2.2,0.8
				c0.2,0,0.3,0.1,0.5,0.1c-0.3-0.7-0.8-1-1.5-0.9c-0.9,0.1-1.4,1-1.7,1.7c0.1,0,0.3-0.1,0.4-0.1c-2.1-1-4.2,0.8-5.6,2.2
				c-1.9,1.8-3.6,3.8-3.6,6.6C45.2,36.3,45.8,36.3,45.8,35.9L45.8,35.9z"/>
		</g>
	</g>
</g>
<g>
	<g>
		<g>
			<path class="st0" d="M46.6,27.3c0.1-0.3,0.6-0.3,0.5,0.1c0,0.2-0.2,0.3-0.3,0.3c-0.2,0-0.4-0.3-0.3-0.5c0.1-0.4-0.5-0.5-0.6-0.2
				c-0.1,0.5,0.2,1,0.7,1.2c0.5,0.1,1-0.2,1.1-0.7c0.1-0.4-0.1-0.9-0.6-1c-0.4-0.1-0.9,0.2-1,0.6C46,27.5,46.5,27.6,46.6,27.3
				L46.6,27.3z"/>
		</g>
	</g>
</g>
<g>
	<g>
		<g>
			<path class="st0" d="M53.7,23.3c0-0.1,0.1-0.1,0.2-0.1c0.1,0,0.1,0.1,0.1,0.2c0,0.3-0.4,0.3-0.7,0.1c-0.3-0.3-0.7,0.2-0.4,0.4
				c0.3,0.3,0.8,0.4,1.2,0.2c0.4-0.2,0.5-0.6,0.5-1c-0.1-0.4-0.5-0.7-0.9-0.6c-0.4,0.1-0.7,0.4-0.6,0.9
				C53.2,23.8,53.8,23.7,53.7,23.3L53.7,23.3z"/>
		</g>
	</g>
</g>
<g>
	<g>
		<g>
			<path class="st0" d="M62.1,21.8C62,21.8,62,21.8,62.1,21.8c0-0.1,0.1-0.2,0.1-0.2c0,0,0.1,0,0.1,0c0,0,0.1,0,0.1,0
				c0,0,0,0.1,0,0.2c0,0-0.1,0.1-0.1,0.1C62.2,21.9,62.1,21.9,62.1,21.8c-0.3-0.1-0.6,0.4-0.2,0.6c0.7,0.3,1.5-0.6,1-1.2
				c-0.5-0.6-1.5,0-1.3,0.7C61.6,22.3,62.1,22.2,62.1,21.8L62.1,21.8z"/>
		</g>
	</g>
</g>
<g>
	<g>
		<g>
			<path class="st0" d="M71.3,22.4c0-0.2,0.2-0.4,0.4-0.4s0.4,0.3,0.4,0.5c0.1-0.1,0.1-0.2,0.2-0.3c-0.2,0-0.4,0-0.6,0
				c-0.3-0.1-0.5,0.5-0.2,0.6c0.3,0.1,0.6,0.1,1,0c0.1,0,0.2-0.2,0.2-0.3c0-0.5-0.3-1-0.9-1c-0.5,0-1,0.3-1.1,0.8
				C70.6,22.6,71.2,22.8,71.3,22.4L71.3,22.4z"/>
		</g>
	</g>
</g>
<g>
	<g>
		<g>
			<path class="st0" d="M78,24.6c0.1-0.2,0.5-0.4,0.6-0.1c0,0,0,0.1,0,0.1c0,0,0,0.1-0.1,0.1c0,0-0.1,0-0.1,0c0,0,0-0.1,0,0
				c0-0.2,0-0.3-0.2-0.3c-0.1,0-0.3,0-0.3,0.2c-0.1,0.4,0.2,0.7,0.6,0.8c0.4,0.1,0.8-0.2,0.8-0.7c0-0.4-0.2-0.7-0.6-0.8
				c-0.4-0.1-0.9,0.1-1.1,0.5C77.3,24.6,77.8,24.9,78,24.6L78,24.6z"/>
		</g>
	</g>
</g>
<g>
	<g>
		<g>
			<path class="st0" d="M46.6,31.2c-0.8,0.6-1.7,0.3-2.3-0.4c-0.2-0.2-0.4-0.5-0.5-0.8c-0.1-0.2-0.2-0.4-0.3-0.6
				c-0.2-0.3-0.2-0.6,0.2-0.9c0.1-0.1,0.2-0.3,0.3-0.4c-1.2-0.1-1.6-1.5-1.1-2.4c0.4-0.8,1-1.1,1.9-1c0.6,0.1,0.8,0,1.3-0.2
				c0.8-0.3,1.2-0.2,1.9,0.1c0.7,0.3,1.2,0.1,1.6,1.2c0.1,0.2,0,0.4,0.1,0.7c0,0,0.6,0.7,0.5,0.7c-0.4,0-0.4,0.6,0,0.6
				c0.4,0,0.6-0.3,0.6-0.7c0-0.3-0.2-0.3-0.3-0.6c-0.3-0.5-0.3-0.9-0.5-1.4c-0.3-0.8-1.1-0.8-1.9-1.1c-0.7-0.3-1.1-0.7-1.9-0.4
				c-0.6,0.2-0.9,0.5-1.6,0.4c-0.3,0-0.4-0.1-0.7-0.1c-0.7,0.2-1.4,1-1.7,1.6c-0.7,1.4,0.1,3,1.6,3.1c0.2,0,0.4-0.3,0.3-0.4
				c-0.3-0.4-0.7-0.5-1.1-0.2c-0.6,0.4-0.3,1.3,0,1.8c0.7,1.4,2.3,3,3.9,1.8C47.2,31.5,46.9,31,46.6,31.2L46.6,31.2z"/>
		</g>
	</g>
</g>
<g>
	<g>
		<g>
			<path class="st0" d="M48.9,24.1c-0.1-0.7,0-1.5,0.4-2.1c0.1-0.2,0.3-0.6,0.6-0.7c0.2-0.1,0.4-0.1,0.7-0.2c0,0,0.1,0.1,0.2,0.1
				c0.7,0.1,1.1-0.4,1.8-0.8c0.7-0.4,1.1-0.4,1.9-0.2c0.2,0.1,0.5,0.1,0.7,0.2c1.1,0.4,1.3,1.1,1.7,2c0.3,0.6,1.3,2,0.3,2.5
				c-0.3,0.2,0,0.7,0.3,0.5c1.5-0.9,0.2-2.8-0.3-3.9c-0.3-0.6-0.6-1.4-1.3-1.7c-0.4-0.2-0.9-0.2-1.3-0.4c-0.2-0.1-0.3-0.2-0.6-0.3
				c-0.8-0.1-1.6,0.5-2.2,0.9c-0.2,0.1-0.4,0.4-0.6,0.4c-0.2,0-0.1-0.1-0.3-0.2c-0.2,0-0.3-0.1-0.4-0.1c-1.6,0.1-2.1,2.7-2,3.8
				C48.3,24.5,48.9,24.5,48.9,24.1L48.9,24.1z"/>
		</g>
	</g>
</g>
<g>
	<g>
		<g>
			<path class="st0" d="M56.8,20.6c0.4-0.7,1-1.2,1.7-1.6c0.3-0.2,0.6-0.3,1-0.4c0.6-0.2,0.6,0,1.1,0.2c0.3,0.2,0.1,0.3,0.6,0.3
				c0.5,0,1-0.3,1.5-0.5c1-0.3,1.2,0.1,1.9,0.7c0.3,0.3,0.7,0.3,1,0.6c0.7,0.6,0.3,1.3,0.4,2c0.2,0.9,1.2,1.7,0,2.4
				c-0.3,0.2,0,0.7,0.3,0.5c0.5-0.3,0.9-0.8,0.9-1.4c0-0.3-0.1-0.6-0.2-0.9c-0.2-0.4-0.3-0.9-0.3-1.4c0-0.2,0.1-0.4,0.1-0.6
				c0-0.6-0.2-0.9-0.7-1.2c-0.5-0.3-0.8-0.5-1.2-0.9c-0.2-0.2-0.3-0.4-0.6-0.5c-0.7-0.3-1.5,0-2.2,0.3c-0.5,0.2-0.7,0.2-1,0
				c-0.3-0.2-0.2-0.3-0.6-0.4c-1.5-0.3-3.3,1.2-4,2.4C56.1,20.6,56.6,20.9,56.8,20.6L56.8,20.6z"/>
		</g>
	</g>
</g>
<g>
	<g>
		<g>
			<path class="st0" d="M66.9,19.4c0.3-0.3,0.6-0.6,1-0.8c0.7-0.4,0.9-0.2,1.8,0.1c0.3,0.1,0.3,0.2,0.7,0.1c0.7-0.1,1.3-0.7,2-0.7
				c1-0.1,1.4,0.5,2.2,0.8c0.5,0.2,1.2,0.1,1.1,0.9c0,0.4-0.3,0.7-0.2,1c0.1,0.3,0.3,0.5,0.4,0.9c0,0.6-0.4,2.3-0.9,2.4
				c-0.4,0-0.2,0.6,0.2,0.6c0.6-0.1,1-0.5,1.1-1.1c0.1-0.4,0-0.9,0.1-1.4c0-0.3,0.2-0.5,0.1-0.8c-0.1-0.3-0.4-0.5-0.3-0.9
				c0-0.3,0.3-0.6,0.3-0.9c0-0.5-0.2-0.7-0.6-0.9c-0.5-0.2-0.9-0.2-1.4-0.4c-0.4-0.2-0.7-0.5-1.2-0.6c-0.9-0.2-1.6,0.2-2.4,0.5
				c-0.6,0.2-0.7,0-1.3-0.1c-0.3-0.1-0.5-0.1-0.8-0.1c-0.9,0-1.6,0.7-2.1,1.3C66.2,19.2,66.6,19.7,66.9,19.4L66.9,19.4z"/>
		</g>
	</g>
</g>
<g>
	<g>
		<g>
			<path class="st0" d="M77,20.7c0.8-1.2,2.5-0.7,2.6,0.7c0,0.2,0.2,0.3,0.4,0.3c0.8-0.1,1.1-0.2,1.5,0.4c0.4,0.7,0.1,0.4,0.3,0.9
				c0.1,0.3,0.2,0.5,0.4,0.8c0.4,0.4,0.8,0.7,1,1.2c0.1,0.4,0.8,2.4,0.2,2.4c-0.4,0-0.4,0.6,0,0.6c0.6,0,1-0.4,1-1
				c0-0.6-0.4-1.1-0.6-1.7c-0.1-0.4-0.1-0.8-0.4-1.2c-0.5-0.7-0.9-0.6-1-1.5c-0.1-0.4,0-0.7-0.2-1c-0.5-0.7-1.5-0.6-2.3-0.5
				c0.1,0.1,0.3,0.2,0.4,0.3c-0.1-2.1-2.5-2.7-3.7-1C76.3,20.7,76.8,21,77,20.7L77,20.7z"/>
		</g>
	</g>
</g>
<g>
	<g>
		<g>
			<path class="st0" d="M43,24.1c0,0.1,0,0.1,0.1,0.2c0.1,0.4,0.6,0.2,0.6-0.2c-0.2-1.5-0.6-3.3,0.2-4.7c0.6-1.1,1.7-1.9,3-2.2
				c1.8-0.5,4-0.1,5.8-0.8c1-0.4,1.5-1.5,2.4-2c0.8-0.4,1.5-0.3,2.1,0.3c0.2,0.2,0.3,0.5,0.5,0.6c0.2,0.1,0.3,0.2,0.6,0.2
				c0.7,0,1.4-0.8,1.9-1.3c0.2-0.2,0.7-0.7,0.9-0.7c0,0,0.1,0.1,0.2,0.1c0.4,0.1,0.6,0.1,0.6,0.6c0,0.2,0.3,0.4,0.4,0.3
				c0.2-0.2,0.3-0.2,0.4-0.4c0.1-0.1,0-0.3,0-0.3l0,0c-0.1-0.1-0.3-0.1-0.3,0c-0.2,0.1-0.3,0.2-0.4,0.4c-0.2,0.3,0.2,0.5,0.4,0.4
				c1.6-0.7,1.1,1,2,1.2c0.3,0,0.7-0.2,1-0.4c0.5-0.4,0.8-1,1.4-1.3c1-0.5,2.1,0.6,2.9,1c0.9,0.5,1.8,0.7,2.5-0.1
				c0.4-0.4,0.7-1,1.2-1.3c1.4-0.8,2.8,0.7,2.4,2.1c0,0.2,0.1,0.4,0.3,0.3c2.2-0.7,4.3,0.7,6.2,1.5c1.5,0.7,2.8,1.7,3.9,2.9
				c1.1,1.3,2,2.8,2.5,4.4c0.3,0.8,0.5,1.7,0.6,2.6c0.1,1.2-0.3,2.3-0.5,3.5c0,0.1,0,0.2,0.1,0.3c1,0.8,1.4,1.7,0.8,2.9
				c-0.2,0.3,0.3,0.6,0.5,0.3c0.4-0.9,0.5-1.9-0.1-2.8c-0.4-0.6-0.7-0.7-0.6-1.4c0.1-0.6,0.3-1.2,0.3-1.8c0.2-2.3-0.7-4.8-1.9-6.7
				c-1.1-1.8-2.8-3.4-4.7-4.4c-2.1-1.1-4.8-2.8-7.3-1.9c0.1,0.1,0.2,0.2,0.3,0.3c0.4-1.4-0.5-3-2.1-3c-0.7,0-1.3,0.3-1.8,0.8
				c-0.3,0.3-0.4,0.6-0.7,0.9c-0.6,0.6-1.3,0.3-2-0.1c-1.4-0.9-2.6-1.8-4-0.3c-0.3,0.3-0.7,1-1.2,0.9c-0.3-0.1-0.3-0.4-0.6-0.7
				c-0.5-0.5-1.3-0.5-1.9-0.3c0.1,0.1,0.3,0.3,0.4,0.4c-0.1-0.1-0.3-0.3-0.4-0.4c0.1,0.1,0.3,0.2,0.4,0.3c0-0.8-0.2-1-0.9-1.2
				c-0.9-0.2-1.4,0.4-2.1,1c-0.3,0.2-0.5,0.6-0.9,0.7c-0.6,0.1-0.8-0.3-1.1-0.7c-0.4-0.3-0.8-0.7-1.4-0.7c-1.3-0.1-2.1,1.5-3.1,2.1
				c-1.2,0.8-2.9,0.6-4.2,0.8c-1.1,0.1-2.2,0.3-3.2,0.8c-2.8,1.5-2.7,4.4-2.3,7.2c0.2,0,0.4-0.1,0.6-0.2c0-0.1,0-0.1-0.1-0.2
				C43.4,23.6,42.8,23.7,43,24.1L43,24.1z"/>
		</g>
	</g>
</g>
<g>
	<g>
		<g>
			<path class="st0" d="M38.9,47.3c-0.5,0.7-0.6,1.5-0.6,2.3c-0.1,1.5,0,3,0,4.5c0,1.6,0,3.2-0.4,4.7c-0.3,1.1-1,2.1-1,3.3
				c0,0.4,0.6,0.4,0.6,0c0-1.1,0.7-2.1,1-3.1c0.3-1.2,0.4-2.4,0.5-3.6c0-1.2,0-2.4-0.1-3.7c0-1.2-0.3-3.1,0.5-4.1
				C39.6,47.4,39.2,47,38.9,47.3L38.9,47.3z"/>
		</g>
	</g>
</g>
<g>
	<g>
		<g>
			<path class="st0" d="M37.1,75.9c-0.2,0.7-0.4,1.4-0.3,2.1c0.1,0.6,0.4,1,0.5,1.7c0,0.5,0,1,0,1.5c0,2,0.2,3.9,0.6,5.9
				c0,0.2,0.3,0.3,0.4,0.2c1.1-0.7,1.8-1.6,2.3-2.8c0.1-0.3-0.4-0.5-0.6-0.2c-0.4,1-1,1.8-2,2.4c0.1,0,0.3,0.1,0.4,0.2
				c-0.4-1.9-0.6-3.8-0.6-5.7c0-0.7,0.1-1.5-0.1-2.2c-0.1-0.4-0.3-0.7-0.3-1.1c-0.1-0.6,0-1.2,0.3-1.8
				C37.8,75.7,37.2,75.5,37.1,75.9L37.1,75.9z"/>
		</g>
	</g>
</g>
<g>
	<g>
		<g>
			<path class="st0" d="M89.6,34.1c0,0.8,0,1.7,0.2,2.4c0.3,1,0.5,1.9,0.8,2.8c0.6,2.1,1.1,4.2,1.1,6.3c0,1.9-0.8,3.8-0.3,5.7
				c0.2,0.9,0.6,1.7,0.9,2.5c0.4,1.1,0.3,2.3,0,3.5c-1,4.1-1.5,8-0.5,12.2c1.1,4.3-0.7,8.9-1.2,13.2c0,0.3,0.5,0.4,0.6,0.1
				c0.1-0.4,0.4-1,0.3-1.4c0-0.3-0.4-0.3-0.5-0.1c-0.2,0.3-0.2,1-0.3,1.3c-0.1,0.4,0.4,0.5,0.6,0.2c0.3-0.8-0.2-1.6-0.9-1.9
				c-0.6-0.3-1.3-0.3-2-0.4c-0.4-0.1-0.8-0.2-1.2-0.4c-0.6-0.4-0.5-1.1-0.5-1.7c0-0.7-0.2-1.4-0.3-2.1c-0.2-1-0.3-2.1-0.4-3.2
				c-0.1-2,0-3.9,0.2-5.9c0.4-4,1.2-7.9,1.9-11.9c0.7-3.5,1.1-7.1,0.9-10.7c-0.3-3.8-1.3-7.5-3.1-10.8c-0.2-0.3-0.7,0-0.5,0.3
				c3.5,6.6,3.5,13.8,2.2,20.9c-1.3,6.9-3.1,14.2-1.8,21.2c0.1,0.5,0.3,1,0.3,1.5c0.1,0.5-0.1,1-0.1,1.5c0,0.6,0.2,0.9,0.6,1.2
				c0.9,0.7,4.6,0.7,4.1,2.3c0.2,0,0.4,0.1,0.6,0.2c0-0.3,0-0.9,0.3-1.2c-0.2,0-0.3,0-0.5-0.1c0.1,0.3-0.2,0.8-0.3,1.1
				c0.2,0,0.4,0,0.6,0.1c0.3-2.3,0.8-4.6,1.2-6.9c0.3-1.8,0.7-3.7,0.2-5.5c-0.5-2.3-0.9-4.5-0.8-6.8c0.1-1.2,0.2-2.4,0.5-3.5
				c0.2-1.1,0.7-2.2,0.8-3.2c0.2-1.8-0.4-3.1-0.9-4.7c-0.7-2.1,0.2-4.1,0.2-6.2c0-1.9-0.4-3.8-0.9-5.7c-0.3-0.9-0.5-1.9-0.8-2.8
				c-0.3-1-0.3-2.1-0.4-3.1C90.1,33.8,89.5,33.8,89.6,34.1L89.6,34.1z"/>
		</g>
	</g>
</g>
<g>
	<g>
		<g>
			<path class="st0" d="M48.1,96.8c-0.4-2.2-1-4.3-1.8-6.3c-0.1-0.3-0.7-0.2-0.6,0.2c0.8,2.1,1.4,4.2,1.8,6.3
				C47.6,97.3,48.2,97.2,48.1,96.8L48.1,96.8z"/>
		</g>
	</g>
</g>
<g>
	<g>
		<g>
			<path class="st0" d="M50.9,96.9c-0.1-1-0.2-2-0.3-3c0-0.4-0.6-0.4-0.6,0c0.1,1,0.2,2,0.3,3C50.4,97.3,51,97.3,50.9,96.9
				L50.9,96.9z"/>
		</g>
	</g>
</g>
<g>
	<g>
		<g>
			<path class="st0" d="M41.1,95.4c-1.7,1.1-1.3,3.6,0.7,4.1c0.4,0.1,0.5-0.5,0.2-0.6c-1.5-0.3-1.8-2.2-0.6-3
				C41.7,95.7,41.5,95.2,41.1,95.4L41.1,95.4z"/>
		</g>
	</g>
</g>
<g>
	<g>
		<g>
			<path class="st0" d="M36.2,62.2c-0.5,0-1,0.2-1.4,0.5c0.1,0.1,0.2,0.1,0.3,0.2c0.3-0.3,0.7-0.4,1.2-0.4c1,0,1.9,0.8,1.9,1.9
				c0,1-0.8,1.9-1.9,1.9c-0.6,0-1.2-0.3-1.5-0.7c0,0.1-0.1,0.1-0.1,0.2c0,0,0,0,0,0.1c0.4,0.5,1,0.8,1.7,0.8c1.2,0,2.2-1,2.2-2.2
				C38.4,63.2,37.4,62.2,36.2,62.2z"/>
		</g>
	</g>
	<g>
		<g>
			<path class="st0" d="M37.2,64.6c0.4,0,0.7-0.3,0.7-0.7c0-0.4-0.3-0.7-0.7-0.7s-0.7,0.3-0.7,0.7C36.5,64.2,36.8,64.6,37.2,64.6z
				 M36.9,63.5c0.1,0,0.2,0.1,0.2,0.2s-0.1,0.2-0.2,0.2c-0.1,0-0.2-0.1-0.2-0.2C36.7,63.5,36.8,63.5,36.9,63.5z"/>
		</g>
	</g>
</g>
<g>
	<path class="st0" d="M33.2,66.8c-1.2,0-2.2-1-2.2-2.2c0-1.2,1-2.2,2.2-2.2s2.2,1,2.2,2.2C35.4,65.8,34.4,66.8,33.2,66.8z
		 M33.2,62.7c-1,0-1.9,0.8-1.9,1.9c0,1,0.8,1.9,1.9,1.9s1.9-0.8,1.9-1.9C35,63.5,34.2,62.7,33.2,62.7z"/>
</g>
<g>
	<path class="st0" d="M34.1,64.6c0.4,0,0.7-0.3,0.7-0.7s-0.3-0.7-0.7-0.7c-0.4,0-0.7,0.3-0.7,0.7C33.5,64.3,33.8,64.6,34.1,64.6z
		 M33.9,63.6c0.1,0,0.2,0.1,0.2,0.2c0,0.1-0.1,0.2-0.2,0.2c-0.1,0-0.2-0.1-0.2-0.2C33.7,63.6,33.8,63.6,33.9,63.6z"/>
</g>
<g>
	<g>
		<g>
			<path class="st0" d="M34.9,66.6c1.4-0.3,2.2,1,2.8,2c0.1-0.1,0.3-0.3,0.4-0.4c-1.1-0.5-2.3-1-3.4-1.5c-0.3-0.1-0.6,0.3-0.3,0.5
				c1.1,0.5,2.3,1,3.4,1.5c0.3,0.1,0.6-0.1,0.4-0.4c-0.8-1.3-1.8-2.6-3.5-2.3C34.4,66.1,34.5,66.6,34.9,66.6L34.9,66.6z"/>
		</g>
	</g>
</g>
<g>
	<g>
		<g>
			<path class="st0" d="M36.8,68.1c-0.8-0.3-3.1,0-3.1-1.3c0-0.4-0.6-0.4-0.6,0c-0.1,1.9,2.4,1.5,3.5,1.9
				C37,68.8,37.2,68.2,36.8,68.1L36.8,68.1z"/>
		</g>
	</g>
</g>
<g>
	<g>
		<g>
			<path class="st0" d="M35.9,61.9c-1-0.3-1.6-1.5-1.1-2.4c0.1-0.3-0.2-0.6-0.5-0.3c-0.6,0.5-0.9,1.2-1,1.9c0.1-0.1,0.3-0.2,0.4-0.3
				c-0.4-0.2-0.8-0.3-1.3-0.3c-0.2,0-0.3,0.1-0.3,0.3c0,0.2,0,0.3,0,0.5c0.1-0.1,0.3-0.2,0.4-0.3c-0.6-0.3-1.1-0.4-1.8-0.3
				c-0.2,0-0.3,0.3-0.1,0.5c0.2,0.2,0.4,0.4,0.5,0.6c0.3,0.3,0.7-0.1,0.4-0.4c-0.2-0.2-0.4-0.4-0.5-0.6c0,0.2-0.1,0.3-0.1,0.5
				c0.5-0.1,0.9,0,1.3,0.2c0.2,0.1,0.4,0,0.4-0.3c0-0.2,0-0.3,0-0.5c-0.1,0.1-0.2,0.2-0.3,0.3c0.4,0,0.7,0,1,0.3
				c0.2,0.1,0.4,0,0.4-0.3c0.1-0.6,0.3-1.1,0.8-1.5c-0.2-0.1-0.3-0.2-0.5-0.3c-0.7,1.3,0,2.9,1.5,3.3C36.1,62.6,36.3,62,35.9,61.9
				L35.9,61.9z"/>
		</g>
	</g>
</g>
<g>
	<g>
		<g>
			<path class="st0" d="M28.5,69.8c0.7,1.5,2.2,2.2,3.8,2.3c1.1,0.1,2.6,0,3-1.3c0.1-0.3-0.4-0.5-0.6-0.2c-0.3,1-1.9,0.9-2.7,0.8
				c-1.3-0.1-2.4-0.8-3.1-2C28.8,69.2,28.3,69.5,28.5,69.8L28.5,69.8z"/>
		</g>
	</g>
</g>
<g>
	<g>
		<g>
			<path class="st0" d="M31.1,61.5c-0.9,0.6-1.7,1.4-2.2,2.4c-0.2,0.3,0.3,0.6,0.5,0.3c0.5-0.9,1.2-1.6,2-2.2
				C31.7,61.8,31.4,61.3,31.1,61.5L31.1,61.5z"/>
		</g>
	</g>
</g>
<g>
	<g>
		<g>
			<path class="st0" d="M36.5,68.5c0.2,0.5,0.1,1-0.1,1.5c-0.1,0.3,0.4,0.5,0.6,0.2c0.2-0.6,0.3-1.2,0.1-1.8
				C36.9,68,36.4,68.1,36.5,68.5L36.5,68.5z"/>
		</g>
	</g>
</g>
<g>
	<g>
		<g>
			<path class="st0" d="M29.5,71.2c-2.9,4.6-3.9,10.2-2.8,15.5c0,0.3,0.4,0.3,0.5,0.1c0.6-1.1,1.1-2.2,1.4-3.5c-0.2,0-0.4,0-0.6,0
				c0.1,0.4,0.3,0.8,0.4,1.2c0.1,0.3,0.4,0.3,0.5,0.1c0.2-0.3,0.4-0.7,0.7-1c-0.2,0-0.3,0-0.5,0.1c0.2,0.2,0.4,0.4,0.6,0.7
				c0.1,0.1,0.3,0.1,0.4,0c0.3-0.3,0.5-0.6,0.6-1.1c-0.2,0-0.4,0-0.6-0.1c0,0.5,0.5,0.9,1,0.6c0.8-0.4,0.3-1.5,0.3-2.1
				c-0.2,0-0.4,0-0.6,0.1c0.2,1,1.8,1.6,1.7,2.6c0,0.3,0.3,0.4,0.5,0.2c3.8-3.8-1.4-8.7-1.3-12.8c0-0.4-0.6-0.4-0.6,0
				c0,2,0.8,3.8,1.6,5.6c1,2.2,1.8,4.9-0.1,6.9c0.2,0.1,0.3,0.1,0.5,0.2c0.2-1.4-1.4-1.6-1.7-2.8c-0.1-0.3-0.6-0.2-0.6,0.1
				c0,0.1,0,0.3,0,0.4c0.1,0.4,0,0.8-0.2,1.1c0-0.3-0.5-0.4-0.6-0.1c-0.2,0.3-0.3,0.6-0.5,0.8c0.1,0,0.3,0,0.4,0
				c-0.2-0.2-0.4-0.4-0.6-0.7c-0.1-0.1-0.3-0.1-0.5,0.1c-0.2,0.3-0.4,0.7-0.7,1c0.2,0,0.3,0,0.5,0.1c-0.1-0.4-0.3-0.8-0.4-1.2
				c-0.1-0.3-0.5-0.3-0.6,0c-0.3,1.2-0.8,2.3-1.4,3.3c0.2,0,0.3,0,0.5,0.1C26.2,81.4,27.2,76,30,71.5C30.3,71.2,29.7,70.9,29.5,71.2
				L29.5,71.2z"/>
		</g>
	</g>
</g>
<g>
	<g>
		<g>
			<path class="st0" d="M30.3,71.5c-0.7,1.4-1.1,2.9-1.3,4.4c0,0.2,0.3,0.2,0.3,0c0.2-1.5,0.6-2.9,1.2-4.2
				C30.7,71.5,30.4,71.4,30.3,71.5L30.3,71.5z"/>
		</g>
	</g>
</g>
<g>
	<g>
		<g>
			<path class="st0" d="M30.8,72.1c0,1.1,0,2.2,0,3.2c0,0.2,0.3,0.2,0.3,0c0-1.1,0-2.2,0-3.2C31.1,71.9,30.8,71.9,30.8,72.1
				L30.8,72.1z"/>
		</g>
	</g>
</g>
<g>
	<g>
		<g>
			<path class="st0" d="M35.4,70.4c0.3,0.1,0.5,0.5,0.3,0.8c0,0.1,0,0.2,0,0.2c0.3,0.2,0.7,0,0.8-0.3c0.2-0.4-0.2-0.8-0.5-1.1
				c-0.1-0.1-0.3,0.1-0.2,0.2c0.2,0.2,0.3,0.3,0.4,0.6c0,0.2-0.1,0.6-0.4,0.4c0,0.1,0,0.1,0,0.2c0.3-0.5,0-1.1-0.5-1.2
				C35.3,70.1,35.2,70.4,35.4,70.4L35.4,70.4z"/>
		</g>
	</g>
</g>
<g>
	<g>
		<g>
			<path class="st0" d="M36.5,71.4c0.5-0.4,0.5-1.1,0.1-1.6c-0.1-0.1-0.3,0.1-0.2,0.2c0.3,0.3,0.3,0.9-0.1,1.2
				C36.1,71.3,36.3,71.5,36.5,71.4L36.5,71.4z"/>
		</g>
	</g>
</g>
<g>
	<g>
		<g>
			<path class="st0" d="M33.8,71.7c-0.1,0.3-0.2,0.7,0,0.9c0.1,0.2,0.4,0.3,0.6,0.2c0.2-0.1,0.3-0.3,0.3-0.5
				c-0.1-0.3-0.3-0.5-0.3-0.7c0-0.2-0.3-0.2-0.3,0c0,0.2,0,0.3,0.1,0.4c0.1,0.1,0.2,0.3,0.2,0.4c0,0.2-0.2,0.1-0.3,0
				c-0.2-0.2,0-0.5,0-0.7C34.2,71.6,33.9,71.6,33.8,71.7L33.8,71.7z"/>
		</g>
	</g>
</g>
<g>
	<g>
		<g>
			<path class="st0" d="M32.8,71.9c-0.1,0.3,0,0.7,0.2,0.9s0.5,0.4,0.9,0.3c0.2,0,0.2-0.2,0.2-0.3c0-0.2-0.2-0.2-0.3-0.2
				c-0.3,0-0.4-0.3-0.3-0.5c0.1-0.1-0.1-0.3-0.2-0.3C33,71.6,32.9,71.7,32.8,71.9L32.8,71.9z"/>
		</g>
	</g>
</g>
<g>
	<g>
		<g>
			<path class="st0" d="M30.4,69c-1,0.2-2,0-2.8-0.4c-0.4-0.2-0.7-0.5-1-0.8c-0.2-0.2-0.3-0.4-0.5-0.7c-0.4-0.4-0.3-0.7,0.4-0.7
				c0.1,0.1,0.3,0,0.2-0.1c-0.2-0.5,0-0.8,0.6-1.1c0.1,0.1,0.3,0,0.2-0.1c0.2,0.1,0.4,0.1,0.6,0.2c0,0.1,0.2,0.1,0.2,0.1
				c0.5-0.5,0.9,0,1.3,0.4c0.7,0.6,1.4,1.3,0.8,2.3c-0.1,0.2,0.1,0.3,0.3,0.1c1-1.6-0.8-2.6-1.9-3.5c-0.1,0-0.1,0-0.2,0
				c-0.2,0.1-0.3,0.3-0.5,0.4c0.1,0,0.2,0,0.2,0.1c-0.1-0.3-0.4-0.8-0.9-0.7c-0.3,0.1-0.4,0.3-0.3,0.7c0.1,0,0.2-0.1,0.2-0.1
				c-0.3-0.3-0.7-0.3-1,0c-0.4,0.4-0.3,1-0.1,1.4c0.1,0,0.2-0.1,0.2-0.1c-0.3-0.3-0.7-0.6-1.1-0.3c-0.4,0.4,0.3,1.4,0.6,1.8
				c1,1.3,2.7,2,4.4,1.6C30.6,69.2,30.6,68.9,30.4,69L30.4,69z"/>
		</g>
	</g>
</g>
<g>
	<g>
		<g>
			<path class="st0" d="M30,69.1c-5.4,1-8.9-4-10.5-8.4c-0.1,0.1-0.3,0.2-0.4,0.3c1.4,0.9,2.6,1.9,3.9,2.9c0.2,0.2,0.5,0,0.5-0.3
				c-0.1-0.9-0.3-1.8-0.4-2.7c-0.2,0.1-0.3,0.2-0.5,0.3c0.8,0.7,1.6,1.4,2.4,2.1c0.1,0.1,0.4,0.1,0.5-0.1c0.1-0.4,0.1-0.8,0.2-1.2
				c-0.1,0-0.3,0.1-0.4,0.2c0.6,0.3,1.1,0.6,1.6,1c0.2,0.1,0.4,0.1,0.5-0.1c0.3-0.8,1.6,1.1,1.7,1.3c0.3,0.5,0.6,1,0.8,1.4
				c0.2,0.3,0.7,0,0.5-0.3c-0.3-0.6-2.8-5.1-3.6-2.6c0.2,0,0.3-0.1,0.5-0.1c-0.5-0.4-1.1-0.8-1.7-1.1c-0.2-0.1-0.4,0-0.4,0.2
				c-0.1,0.4-0.1,0.8-0.2,1.2c0.2,0,0.3-0.1,0.5-0.1c-0.8-0.7-1.6-1.4-2.4-2.1c-0.2-0.2-0.5,0-0.5,0.3c0.1,0.9,0.3,1.8,0.4,2.7
				c0.2-0.1,0.3-0.2,0.5-0.3c-1.3-1-2.6-2.1-4-3c-0.2-0.1-0.5,0.1-0.4,0.3c1.7,4.7,5.5,9.9,11.2,8.8C30.5,69.6,30.4,69,30,69.1
				L30,69.1z"/>
		</g>
	</g>
</g>
<g>
	<g>
		<g>
			<path class="st0" d="M29.7,63c-1.4-2.3-2.7-4.7-2.9-7.5c-0.2,0-0.4,0.1-0.5,0.1c0.4,0.7,0.8,1.4,1.3,2.1c0.1,0.2,0.3,0.2,0.5,0.1
				c0.4-0.4,0.8,0.4,1.3,0.4c0,0,0.1,0,0.1,0c0.3,0,0.3,0,0.6,0.2c0.3,0.2,0.3,0.3,0.6,0.3c0.1,0,0.2-0.1,0.3-0.1
				c0.1-0.2,0.3-0.5,0.4-0.7c-0.2,0-0.3,0-0.5,0.1c1,0.8,1.6,1.8,1.7,3.1c0,0.4,0.6,0.4,0.6,0c-0.2-1.4-0.8-2.6-1.9-3.5
				c-0.1-0.1-0.3-0.1-0.5,0.1c-0.4,0.7-0.4,0.1-0.9,0c-0.5-0.1-0.5,0.2-1-0.2c-0.6-0.5-0.7-0.6-1.3,0c0.2,0,0.3,0,0.5,0.1
				c-0.4-0.7-0.9-1.4-1.3-2.1c-0.1-0.2-0.6-0.1-0.5,0.1c0.2,2.9,1.5,5.3,2.9,7.7C29.4,63.6,29.9,63.3,29.7,63L29.7,63z"/>
		</g>
	</g>
</g>
<g>
	<g>
		<g>
			<path class="st0" d="M29.6,68.8c-0.5,0-1.2-0.1-1.6-0.5c-0.1-0.1-0.4-0.6-0.3-0.8c0.1-0.2,0.5,0.1,0.7,0.2c0.1,0,0.2,0,0.2-0.1
				c0.1-0.3,0.1-0.6,0-0.9c-0.1,0.1-0.1,0.1-0.2,0.2c0.3,0.2,0.7,0.2,1,0.1c-0.1,0-0.1-0.1-0.2-0.1c0,0.2,0.2,0.3,0.4,0.3
				c0.3,0,0.3,0,0.6,0.1c0.3,0.2,0.2,0.5,0.2,0.8c0,0.2,0.3,0.3,0.3,0.1c0.1-0.3,0.1-0.8-0.1-1.1c-0.1-0.1-0.2-0.2-0.3-0.2
				c-0.1,0-0.6,0-0.7-0.1c0-0.1-0.1-0.1-0.2-0.1c-0.3,0.1-0.5,0-0.8-0.1c-0.1-0.1-0.3,0.1-0.2,0.2c0.1,0.2,0.1,0.5,0,0.7
				c0.1,0,0.1,0,0.2-0.1c-0.3-0.2-0.5-0.3-0.8-0.3c-0.1,0-0.1,0-0.2,0.1c-0.3,0.4-0.2,1,0.2,1.4c0.5,0.5,1.2,0.6,1.8,0.6
				C29.8,69.1,29.8,68.8,29.6,68.8L29.6,68.8z"/>
		</g>
	</g>
</g>
<g>
	<g>
		<g>
			<path class="st0" d="M27,82.3c0-0.4,0.2-0.7,0.6-0.8c0.1,0.2,0.2,0.4,0.3,0.7c0,0.1,0.1,0.1,0.2,0.1c0.3-0.1,0.4-0.2,0.6-0.4
				c0,0,0.9-1.4,0.9-0.9c0,0.1,0.2,0.2,0.3,0.1c0.2-0.2,1.4-0.4,1.5-0.3c0.4,0.2,0.3,0.8,1,0.7c0.6,0,0.5-0.5,1,0.2
				c0.2,0.3,0.2,0.5,0.6,0.4c0.1,0,0.1-0.1,0.1-0.1c0-0.1,0.1-0.3,0.1-0.4c0.1-0.2-0.2-0.3-0.3-0.1c-0.4,0.7-0.3-0.5-0.7-0.7
				c-0.1,0-0.2,0-0.3,0c-0.1,0-0.1,0.2-0.2,0.2c-0.7,0.2-1,0-1.2-0.5c0-0.1-0.2-0.1-0.2,0c-0.4,0.5-1.2,0-1.7,0.5
				c0.1,0,0.2,0.1,0.3,0.1c0-0.3-0.2-0.5-0.6-0.5c-0.2,0-0.3,0.1-0.4,0.3c-0.1,0.1-0.1,0.3-0.2,0.4c-0.2,0.2-0.5,0.4-0.7,0.6
				c-0.1-0.2-0.2-0.4-0.3-0.7c0-0.1-0.1-0.1-0.2-0.1c-0.5,0.3-0.7,0.7-0.8,1.2C26.6,82.4,26.9,82.5,27,82.3L27,82.3z"/>
		</g>
	</g>
</g>
<g>
	<g>
		<g>
			<path class="st0" d="M67.2,87.3c-0.1,1.1,1.2,1.7,1.9,0.8c0.1-0.1-0.1-0.3-0.2-0.2c-0.5,0.7-1.5,0.2-1.4-0.6
				C67.5,87.1,67.3,87.1,67.2,87.3L67.2,87.3z"/>
		</g>
	</g>
</g>
<g>
	<g>
		<g>
			<path class="st0" d="M69.5,88.3c0.7,0.7,2,0.6,2.4-0.3c0.1-0.2-0.2-0.3-0.3-0.1c-0.3,0.7-1.4,0.9-2,0.3
				C69.6,87.9,69.4,88.2,69.5,88.3L69.5,88.3z"/>
		</g>
	</g>
</g>
<g>
	<g>
		<g>
			<path class="st0" d="M72,88.2c0.7,0.6,2,0.2,2.2-0.7c0-0.2-0.2-0.3-0.3-0.1c-0.2,0.7-1.1,1-1.7,0.6C72.1,87.8,71.9,88.1,72,88.2
				L72,88.2z"/>
		</g>
	</g>
</g>
<g>
	<g>
		<g>
			<path class="st0" d="M74.5,87.5c0.9,0,1.7-0.6,1.9-1.5c0-0.2-0.2-0.3-0.3-0.1c-0.2,0.7-0.8,1.3-1.6,1.3
				C74.3,87.2,74.3,87.5,74.5,87.5L74.5,87.5z"/>
		</g>
	</g>
</g>
<g>
	<g>
		<g>
			<path class="st0" d="M65.5,86.7c0,0.9,1.1,1.4,1.7,0.8c0.1-0.1-0.1-0.3-0.2-0.2c-0.5,0.4-1.3,0-1.3-0.6
				C65.8,86.5,65.5,86.5,65.5,86.7L65.5,86.7z"/>
		</g>
	</g>
</g>
<g>
	<g>
		<g>
			<path class="st0" d="M64.5,84.8c0.4,1,1.8,1.1,2.3,0.1c0.1-0.2-0.2-0.3-0.3-0.1c-0.4,0.7-1.4,0.7-1.8-0.1
				C64.7,84.6,64.4,84.7,64.5,84.8L64.5,84.8z"/>
		</g>
	</g>
</g>
<g>
	<g>
		<g>
			<path class="st0" d="M75.1,83.3c0.6,0.4,1.5-0.1,1.5-0.9c0-0.2-0.3-0.2-0.3,0c0,0.5-0.7,0.9-1.1,0.6C75,83,74.9,83.2,75.1,83.3
				L75.1,83.3z"/>
		</g>
	</g>
</g>
<g>
	<g>
		<g>
			<path class="st0" d="M65.8,82.9c-0.2,0.3,0,0.7,0.2,0.9c0.4,0.3,1,0,1.3-0.2c0.2-0.1,0-0.3-0.1-0.3c-0.3,0.1-0.6,0.3-0.9,0.3
				c-0.2-0.1-0.4-0.3-0.3-0.6C66.2,82.9,65.9,82.7,65.8,82.9L65.8,82.9z"/>
		</g>
	</g>
</g>
<g>
	<g>
		<g>
			<path class="st0" d="M66.2,96.6c-3.6,0.6-7.3,1.2-10.9,1.8c-0.2,0-0.1,0.3,0.1,0.3c3.6-0.6,7.3-1.2,10.9-1.8
				C66.5,96.9,66.4,96.6,66.2,96.6L66.2,96.6z"/>
		</g>
	</g>
</g>
<g>
	<g>
		<g>
			<path class="st0" d="M79.3,95c1.7-0.5,3.3-1.2,4.9-1.9c0.2-0.1,0-0.3-0.1-0.3c-1.6,0.7-3.2,1.4-4.8,1.9
				C79.1,94.7,79.1,95,79.3,95L79.3,95z"/>
		</g>
	</g>
</g>
<g>
	<g>
		<g>
			<path class="st0" d="M67.3,85.4c2.5-1,5.1-1.2,7.7-0.5c0.4,0.1,0.5-0.5,0.2-0.6c-2.7-0.7-5.5-0.6-8,0.5
				C66.8,85,67,85.6,67.3,85.4L67.3,85.4z"/>
		</g>
	</g>
</g>
<g>
	<g>
		<g>
			<path class="st0" d="M100,70.9c-0.3-1.7-0.5-3.3-0.5-5c0-0.2-0.3-0.2-0.3,0c0,1.7,0.2,3.4,0.6,5.1C99.7,71.2,100,71.1,100,70.9
				L100,70.9z"/>
		</g>
	</g>
</g>
<g>
	<g>
		<g>
			<path class="st0" d="M99.8,71.2c0.5-1.3,1.1-2.4,2-3.4c0.1-0.1-0.1-0.3-0.2-0.2c-0.9,1.1-1.6,2.3-2.1,3.6
				C99.5,71.3,99.7,71.4,99.8,71.2L99.8,71.2z"/>
		</g>
	</g>
</g>
<g>
	<g>
		<g>
			<path class="st0" d="M98.8,64.9c0,1.1,1.7,1.4,1.8,0.2c0-0.4-0.3-0.9-0.7-1c-0.6-0.1-1.1,0.4-1.3,1c0,0.2,0.2,0.3,0.3,0.1
				c0.1-0.4,0.5-0.8,0.9-0.7c0.3,0.1,0.5,0.4,0.5,0.7c0,0.8-1.2,0.6-1.2-0.1C99.1,64.7,98.8,64.7,98.8,64.9L98.8,64.9z"/>
		</g>
	</g>
</g>
<g>
	<g>
		<g>
			<path class="st0" d="M102.3,66.7c0.3,0,0.5,0.2,0.6,0.5c0,0.3-0.2,0.4-0.4,0.5C101.8,67.7,101.7,66.9,102.3,66.7
				c0.1,0-0.1-0.3-0.2-0.2c-0.3,0.2-0.5,0.6-0.4,1c0.1,0.4,0.5,0.6,0.9,0.5c0.4-0.1,0.7-0.4,0.7-0.8s-0.4-0.7-0.8-0.7
				C102.1,66.4,102.1,66.7,102.3,66.7L102.3,66.7z"/>
		</g>
	</g>
</g>
<g>
	<g>
		<g>
			<path class="st0" d="M99.6,64.2c-0.9-0.1-1.4,1-0.7,1.6c0.7,0.6,1.7,0,1.9-0.8c0-0.2-0.2-0.3-0.3-0.1c-0.1,0.5-0.6,1-1.1,0.8
				c-0.2-0.1-0.5-0.3-0.5-0.5c-0.1-0.4,0.3-0.8,0.7-0.7C99.7,64.6,99.8,64.3,99.6,64.2L99.6,64.2z"/>
		</g>
	</g>
</g>
<g>
	<g>
		<g>
			<path class="st0" d="M99.7,65.8c0,1.7,0.1,3.3,0.1,5c0,0.2,0.2,0.2,0.3,0.1c0.8-1.1,1.7-2.1,2.7-3.1c0.1-0.1-0.1-0.3-0.2-0.2
				c-1,1-1.9,2-2.7,3.1c0.1,0,0.2,0,0.3,0.1c0-1.7-0.1-3.3-0.1-5C100,65.6,99.7,65.6,99.7,65.8L99.7,65.8z"/>
		</g>
	</g>
</g>
<g>
	<g>
		<g>
			<path class="st0" d="M100.4,70.4c0.7-0.6,1.3-1.2,2.1-1.6c0.4-0.2,0.8-0.4,1.3-0.5c0.2,0,1.4-0.2,1.6,0c0.5,0.6-1.4,1.5-1.7,1.6
				c-0.9,0.3-1.8,0.2-2.8,0.1c-0.1,0-0.2,0.1-0.1,0.2c0.7,1,1.7,3,3,3.3c0.9,0.2,1.8-0.3,2.1-1.1c0-0.1,0-0.2-0.1-0.2
				c-0.9,0-1.5-1.5-2.3-1.9c-0.5-0.3-1.1-0.3-1.6-0.2c-0.1,0-0.1,0.2-0.1,0.2c0.6,0.7,1.2,1.3,1.9,1.9c0.1,0.1,0.3-0.1,0.2-0.2
				c-0.4-0.3-1.2-0.8-1.4-1.3c-0.1-0.1-0.2-0.2-0.3-0.3c0.2-0.1,0.3-0.2,0.6-0.1c0.6,0.1,1.1,0.5,1.4,1c0.5,0.6,0.7,1.1,1.5,1.1
				c0-0.1-0.1-0.1-0.1-0.2c-0.6,1.4-2,1.1-2.8,0.2c-0.6-0.7-1.2-1.6-1.7-2.4c0,0.1-0.1,0.1-0.1,0.2c1.9,0.2,4.1,0.1,4.9-1.9
				c0-0.1,0-0.2-0.1-0.2c-2.2-0.7-4.1,0.7-5.6,2.1C100,70.3,100.2,70.5,100.4,70.4L100.4,70.4z"/>
		</g>
	</g>
</g>
<g>
	<g>
		<g>
			<path class="st0" d="M101.4,69.6c0.7-0.1,1.4-0.3,2-0.7c0.2-0.1,0-0.3-0.1-0.3c-0.6,0.3-1.2,0.5-1.8,0.6
				C101.2,69.4,101.2,69.7,101.4,69.6L101.4,69.6z"/>
		</g>
	</g>
</g>
<g>
	<g>
		<g>
			<path class="st0" d="M99.6,65.5c-1.8-0.1-1.5-2.7,0.2-2.8c0.6,0,1.2,0.3,1.4,0.8c0.4,0.8-0.2,1.7-1,1.7c-0.2,0-0.2,0.3,0,0.3
				c0.9,0,1.5-0.8,1.5-1.6c-0.1-0.9-1-1.5-1.9-1.5c-0.8,0-1.7,0.7-1.8,1.6c-0.1,1,0.6,1.8,1.6,1.8C99.8,65.8,99.8,65.6,99.6,65.5
				L99.6,65.5z"/>
		</g>
	</g>
</g>
<g>
	<g>
		<g>
			<path class="st0" d="M102.1,67.3c-0.9-0.7-0.3-2.1,0.8-1.8c0.5,0.1,0.8,0.6,0.7,1.1c-0.1,0.5-0.6,0.9-1.1,0.8
				c-0.2,0-0.3,0.3-0.1,0.3c1.4,0.2,2-1.9,0.7-2.4c-0.6-0.3-1.4-0.1-1.7,0.5c-0.3,0.6-0.2,1.3,0.3,1.7
				C102,67.6,102.2,67.4,102.1,67.3L102.1,67.3z"/>
		</g>
	</g>
</g>
<g>
	<g>
		<g>
			<path class="st0" d="M88.5,78c-0.6-3.7-1.2-7.4-0.9-11.1c0.3-3.5,1.9-6.8,2.1-10.3c0.1-1.8-0.1-3.7-0.1-5.5
				c0-1.8,0.3-3.6,0.4-5.4c0.1-3.4-0.8-6.7-1.8-10c0-0.2-0.3-0.1-0.3,0.1c1,3.5,2,6.9,1.7,10.5c-0.1,1.8-0.4,3.6-0.4,5.4
				c0,2,0.3,3.9,0,5.9c-0.5,3.4-1.8,6.5-2.1,9.9c-0.2,3.5,0.4,7,1,10.5C88.3,78.3,88.6,78.2,88.5,78L88.5,78z"/>
		</g>
	</g>
</g>
<g>
	<g>
		<g>
			<path class="st0" d="M89.4,37.1c0.7,2.6,1.1,5.3,1.1,8c0,2.5-0.3,5.1,0.1,7.6c0.2,1.3,0.6,2.6,0.6,3.9c0,1.3-0.4,2.5-0.8,3.7
				c-0.6,1.9-1.2,3.9-0.7,5.9c0,0.2,0.3,0.1,0.3-0.1c-0.5-2.4,0.5-4.7,1.1-7c0.6-2.3,0.2-4.2-0.2-6.4c-0.5-2.7,0-5.5-0.1-8.2
				c-0.1-2.5-0.4-5-1.1-7.4C89.6,36.8,89.3,36.9,89.4,37.1L89.4,37.1z"/>
		</g>
	</g>
</g>
<g>
	<g>
		<g>
			<path class="st0" d="M39.7,47.6c-1.6,7.1,0.1,14.4-1.2,21.6c0,0.2,0.3,0.3,0.3,0.1c1.3-7.1-0.4-14.5,1.2-21.6
				C40,47.6,39.7,47.5,39.7,47.6L39.7,47.6z"/>
		</g>
	</g>
</g>
<g>
	<g>
		<g>
			<path class="st0" d="M38.6,76.4c0.1,1.5,0.2,3.1,0.3,4.6c0,0.2,0.3,0.2,0.3,0c-0.1-1.5-0.2-3.1-0.3-4.6
				C38.9,76.2,38.6,76.2,38.6,76.4L38.6,76.4z"/>
		</g>
	</g>
</g>
<g>
	<g>
		<g>
			<path class="st0" d="M64.4,30.1c-2.1,0.9-2.8,3.6-1.2,5.4c1.6,1.7,4.9,1.8,5.8-0.7c0.2-0.6,0.3-1.6-0.4-2C68,32.5,67,33.4,67,34
				c0,1.4,1.6,0.4,0.8-0.2c-0.2-0.1-0.3,0.1-0.1,0.3c0.1-1.2,0.5-1.2,1.2,0c-0.1,0.3-0.2,0.6-0.3,0.9c-0.3,0.6-0.9,1.1-1.5,1.3
				c-1.1,0.4-2.5,0.1-3.5-0.7c-1.8-1.6-1.2-4.2,0.9-5.2C64.7,30.3,64.6,30,64.4,30.1L64.4,30.1z"/>
		</g>
	</g>
</g>
<g>
	<g>
		<g>
			<path class="st0" d="M46.4,36c-0.8-0.7-0.3-2,0.2-2.7c0.4-0.5,1-0.9,1.7-0.6c0.4,0.2,0.6,0.5,0.5,1c0,0.3-0.3,0.5-0.7,0.5
				c-0.6-0.4-0.6-0.7,0-1c-0.2-0.1-0.3,0.1-0.1,0.3c0.3,0.2,0.8,0.2,0.8-0.3c0-0.5-0.7-0.6-1-0.3c-1,0.8,0.6,2.3,1.3,1.2
				c0.3-0.4,0.2-1.1-0.2-1.4c-0.5-0.4-1.3-0.3-1.8,0c-1,0.7-1.9,2.7-0.8,3.6C46.3,36.3,46.5,36.1,46.4,36L46.4,36z"/>
		</g>
	</g>
</g>
<g>
	<g>
		<g>
			<path class="st0" d="M48.9,30.7c-0.1-0.7,0.4-1.5,1.2-1.4c0.6,0,1,0.6,1.1,1.2c0,0.8-1.1,1.5-1.6,0.7c-0.3-0.4,0-1,0.5-0.9
				c0,0,0.6,0.2,0.3,0.3c-0.1,0.1-0.1-0.4-0.1-0.4c0.1-0.2-0.2-0.3-0.3-0.1c-0.1,0.3-0.2,0.7,0.2,0.9c0.3,0.1,0.5-0.2,0.5-0.5
				c-0.1-0.9-1.4-0.5-1.5,0.2c-0.2,1.1,1.2,1.4,1.9,0.8c0.7-0.7,0.4-1.9-0.4-2.3c-1.1-0.5-2.2,0.6-2,1.7C48.7,31,49,30.9,48.9,30.7
				L48.9,30.7z"/>
		</g>
	</g>
</g>
<g>
	<g>
		<g>
			<path class="st0" d="M52.8,29.1c-0.1-0.6,0.5-1,1-0.7c0.2,0.1,0.3,0.3,0.2,0.5c-0.1,0.4-0.4,0-0.3-0.1c0,0-0.1,0-0.1,0
				c0.1,0.1,0.2,0.2,0.3,0.3c0.1,0.2,0.3,0.1,0.3-0.1c-0.1-0.2-0.3-0.6-0.5-0.5c-0.2,0-0.3,0.3-0.2,0.4c0.1,0.5,0.7,0.5,0.9,0
				c0.2-0.5-0.3-1-0.8-1c-0.6,0-1,0.6-0.9,1.2C52.6,29.3,52.9,29.3,52.8,29.1L52.8,29.1z"/>
		</g>
	</g>
</g>
<g>
	<g>
		<g>
			<path class="st0" d="M56.1,29.9c-0.5-0.9-0.4-2.1,0.5-2.7c0.8-0.5,2-0.2,2.3,0.8c0.3,0.9-0.8,1.9-1.7,1.4c-0.4-0.2-0.5-0.6-0.4-1
				c0-0.2,0.1-0.4,0.2-0.5c0.1-0.1,0.1-0.2,0.3-0.2c0.3-0.2,0.5-0.1,0.5,0.3c0.1-0.1-0.1-0.3-0.2-0.2c-0.3,0.3-0.2,0.8,0.2,0.9
				c0.4,0.1,0.8-0.4,0.7-0.7c-0.1-0.5-0.7-0.7-1.2-0.6c-0.5,0.2-0.8,0.7-0.8,1.2c-0.1,1.3,1.5,1.7,2.3,0.9c1-0.9,0.1-2.6-1.1-2.7
				c-1.9-0.2-2.6,2-1.8,3.4C55.9,30.2,56.2,30.1,56.1,29.9L56.1,29.9z"/>
		</g>
	</g>
</g>
<g>
	<g>
		<g>
			<path class="st0" d="M61.3,27.1c0.3-0.3,0.7-0.6,1.1-0.7c0.5-0.1,1,0.1,1,0.6c0,0.3-0.2,0.7-0.5,0.9c-0.2,0.1-0.5,0.2-0.7,0
				c-0.1-0.1-0.2-0.2-0.2-0.3c0-0.1,0.3-0.3,0.4-0.2c0.1,0.1,0.3-0.1,0.2-0.2c-0.4-0.4-1.1,0.2-0.9,0.7c0.3,0.7,1.3,0.5,1.6,0
				c0.4-0.5,0.5-1.2,0-1.6c-0.7-0.6-1.7,0.1-2.2,0.6C60.9,27,61.1,27.2,61.3,27.1L61.3,27.1z"/>
		</g>
	</g>
</g>
<g>
	<g>
		<g>
			<path class="st0" d="M61.4,29.9c-0.1-0.5,0.5-1,0.9-0.6c0.1,0.1,0.2,0.4,0.2,0.6c0,0.1-0.2,0.3-0.3,0.3s-0.3-0.2-0.1-0.3
				s0-0.3-0.1-0.3c-0.4,0.2-0.2,0.8,0.2,0.9c0.5,0.1,0.8-0.5,0.7-0.9c-0.1-0.4-0.5-0.8-1-0.7c-0.5,0.1-0.8,0.6-0.7,1.1
				C61.2,30.1,61.5,30,61.4,29.9L61.4,29.9z"/>
		</g>
	</g>
</g>
<g>
	<g>
		<g>
			<path class="st0" d="M66.1,27.5c0.2-0.4,0.7-1.3,1.3-0.8c0.3,0.2,0.3,0.6,0.1,0.8c-0.1,0.1-0.2,0.1-0.3,0.2c-0.1,0-0.2,0-0.3,0
				c-0.2,0-0.2-0.1,0.1-0.2c0.1,0.1,0.3-0.1,0.2-0.2c-0.4-0.4-1.1,0.1-0.7,0.5c0.3,0.4,1.1,0.1,1.3-0.3c0.3-0.5-0.1-1.2-0.7-1.2
				c-0.7-0.1-1.1,0.6-1.3,1.2C65.7,27.6,66,27.7,66.1,27.5L66.1,27.5z"/>
		</g>
	</g>
</g>
<g>
	<g>
		<g>
			<path class="st0" d="M70,27.2c-0.3-1,0.8-2.1,1.8-1.5c0.6,0.4,0.7,1.4-0.1,1.7c-0.3,0.1-0.8-0.1-0.8-0.6c0-0.3,0.2-0.4,0.5-0.4
				c0.2,0,0.3,0.2,0.2,0.4c0.1,0,0.1,0,0.2,0c0,0,0,0,0,0.1c0.2-0.1,0-0.3-0.1-0.3c0,0,0,0,0,0c0,0-0.1,0.1-0.1,0.1
				c0,0.1,0,0.2,0.1,0.2c0,0,0.1,0,0.2,0c0.7-0.3-0.4-1.4-1-0.7c-0.3,0.3-0.1,0.8,0.2,1.1c0.3,0.3,0.8,0.3,1.2,0
				c1-0.7,0.3-2.2-0.8-2.3c-1.1-0.1-1.9,1.1-1.6,2.1C69.8,27.4,70,27.3,70,27.2L70,27.2z"/>
		</g>
	</g>
</g>
<g>
	<g>
		<g>
			<path class="st0" d="M74.2,27.8c0.1-0.3,0.6-0.5,0.8-0.3c0.2,0.2,0,0.6-0.3,0.7c0,0,0.1,0,0.1,0c-0.1-0.1-0.2-0.2-0.1-0.4
				c0-0.2-0.2-0.3-0.3-0.1c-0.1,0.3,0.1,0.8,0.5,0.7c0.3-0.1,0.5-0.4,0.5-0.8c0-0.4-0.3-0.6-0.7-0.5c-0.3,0-0.7,0.3-0.8,0.6
				C73.9,27.9,74.1,28,74.2,27.8L74.2,27.8z"/>
		</g>
	</g>
</g>
<g>
	<g>
		<g>
			<path class="st0" d="M77.8,29.8c-0.4-0.3,0.1-0.9,0.3-1.1c0.3-0.2,0.7-0.3,1.1-0.1c0.3,0.2,0.6,0.7,0.3,1
				c-0.1,0.1-0.3,0.2-0.5,0.2c-0.2,0-0.3-0.1-0.4-0.3c0.1-0.3,0.2-0.3,0.3-0.1c0,0.2,0.3,0.2,0.3,0c0-0.7-1.1-0.5-0.8,0.3
				c0.3,0.7,1.4,0.4,1.5-0.3c0.2-1-0.9-1.5-1.7-1.1c-0.6,0.2-1.4,1.2-0.6,1.7C77.9,30.1,78,29.9,77.8,29.8L77.8,29.8z"/>
		</g>
	</g>
</g>
<g>
	<g>
		<g>
			<path class="st0" d="M81.7,30.6c0,0,0-0.1,0-0.2c0-0.1,0.1-0.1,0.2-0.2c0.2-0.1,0.3,0,0.5,0.1c0.3,0.2,0.1,0.7-0.2,0.8
				c0,0,0.1,0,0.1,0c0,0,0-0.1,0-0.1c0.2-0.1,0.1-0.3-0.1-0.3c-0.2,0.1-0.3,0.3-0.2,0.5c0.1,0.2,0.3,0.3,0.4,0.2
				c0.4-0.2,0.6-0.7,0.3-1.1c-0.3-0.3-0.8-0.4-1.2-0.1c-0.3,0.3-0.1,1,0.3,0.7C82,30.8,81.9,30.5,81.7,30.6L81.7,30.6z"/>
		</g>
	</g>
</g>
<g>
	<g>
		<g>
			<path class="st0" d="M68.4,29.9c-0.4-0.2-0.2-0.6,0-0.8s0.7-0.2,1-0.1c0.3,0.1,0.6,0.6,0.2,0.8c-0.2,0.1-0.4,0-0.4-0.2
				c0,0,0-0.1,0-0.1c0,0-0.1-0.2-0.1,0c0,0.2,0.3,0.2,0.3,0c0-0.2-0.3-0.3-0.4-0.2c-0.1,0.1-0.1,0.3,0,0.5c0.2,0.6,1.1,0.4,1.2-0.2
				c0-0.8-0.9-1.1-1.5-0.8c-0.3,0.1-0.6,0.3-0.7,0.7c0,0.3,0.1,0.6,0.4,0.7C68.4,30.2,68.6,30,68.4,29.9L68.4,29.9z"/>
		</g>
	</g>
</g>
<g>
	<g>
		<g>
			<path class="st0" d="M71.9,30c-0.1-0.3,0.3-0.7,0.7-0.6c0.3,0.1,0.4,0.6,0.2,0.8c0,0,0.1,0,0.1,0c-0.2,0-0.3-0.2-0.2-0.3
				c0.1-0.2-0.1-0.3-0.3-0.1c-0.2,0.3,0,0.8,0.4,0.8c0.2,0,0.2-0.2,0.3-0.4c0-0.2,0-0.4-0.1-0.5c-0.2-0.3-0.5-0.5-0.9-0.4
				c-0.4,0.1-0.6,0.5-0.6,1C71.7,30.2,71.9,30.1,71.9,30L71.9,30z"/>
		</g>
	</g>
</g>
<g>
	<g>
		<g>
			<path class="st0" d="M54,96.8c-0.2-1.2-0.2-2.4,0-3.6c0-0.2-0.3-0.3-0.3-0.1c-0.2,1.3-0.2,2.5,0,3.8C53.8,97.1,54,97,54,96.8
				L54,96.8z"/>
		</g>
	</g>
</g>
<g>
	<g>
		<g>
			<path class="st0" d="M57.5,97.3c0.1-0.3,0.3-0.7,0.4-1c0.1-0.2-0.2-0.3-0.3-0.1c-0.1,0.3-0.3,0.7-0.4,1
				C57.2,97.3,57.5,97.4,57.5,97.3L57.5,97.3z"/>
		</g>
	</g>
</g>
<g>
	<g>
		<g>
			<path class="st0" d="M84.7,92.2c0.4-1,0.7-2.1,0.7-3.2c0-0.2-0.3-0.2-0.3,0c0,1-0.2,2.1-0.6,3C84.3,92.3,84.6,92.4,84.7,92.2
				L84.7,92.2z"/>
		</g>
	</g>
</g>
<g>
	<g>
		<g>
			<path class="st0" d="M87.7,89.7c0.3-1.4,0.7-2.8,1.1-4.3c0-0.2-0.2-0.3-0.3-0.1c-0.3,1.4-0.7,2.8-1.1,4.3
				C87.3,89.8,87.6,89.9,87.7,89.7L87.7,89.7z"/>
		</g>
	</g>
</g>
<g>
	<g>
		<g>
			<path class="st0" d="M105.3,103.3c0.5,3.5-3.9,4.6-6.4,5.3c-2.3,0.6-4.6,1-6.8,1.7c-2.1,0.6-4.2,1.5-5.9,2.8
				c-2.1,1.6-3.6,3.9-5.7,5.5c-4.2,3.2-9.9,4.3-15,5.1c-3,0.5-6,0.8-9,1c-3,0.2-5.8,0.7-8.7,1.1c-3.2,0.4-6.4,0.6-9.6,0.7
				c-1.7,0.1-3.4,0.2-5,0.3c-0.8,0-1.7,0.1-2.5,0.1c-0.2,0-0.6,0-0.7,0.2c0,0.1-0.1,0.2,0,0.2c0,0,0,0,0.1,0c0.1,0,0.2,0,0.2-0.1
				c0,0,0,0,0,0c0.1-0.2-0.2-0.3-0.3-0.1c0,0,2.2,0,2.5,0c0.8,0,1.5-0.1,2.3-0.1c1.7-0.1,3.4-0.2,5-0.3c2.8-0.1,5.6-0.3,8.5-0.7
				c3.2-0.4,6.3-0.8,9.6-1.1c2.8-0.2,5.6-0.6,8.4-1c5-0.8,10.4-1.9,14.5-5c2.2-1.7,3.7-4.1,5.9-5.7c2.2-1.6,4.7-2.4,7.3-3
				c2.8-0.7,5.6-1.2,8.3-2.2c2-0.8,3.8-2.3,3.5-4.6C105.6,103,105.3,103.1,105.3,103.3L105.3,103.3z"/>
		</g>
	</g>
</g>
<g>
	<g>
		<g>
			<path class="st0" d="M25.9,117.1c2-0.7,3.5-2.1,5.3-3.2c2.2-1.3,4.7-1.3,7.1-2.2c4.5-1.7,8.6-6.4,13.9-4.9c0.2,0,0.3-0.2,0.1-0.3
				c-4.9-1.4-8.9,2.5-12.9,4.4c-2.3,1.1-4.8,1.1-7.1,2.1c-2.3,1-4,2.9-6.4,3.7C25.6,116.9,25.7,117.2,25.9,117.1L25.9,117.1z"/>
		</g>
	</g>
</g>
<g>
	<g>
		<g>
			<path class="st0" d="M26.7,107.4c-1.6,0.3-3.1,0.3-4.6,0c-0.2,0-0.3,0.3-0.1,0.3c1.6,0.3,3.2,0.3,4.8,0
				C26.9,107.6,26.8,107.4,26.7,107.4L26.7,107.4z"/>
		</g>
	</g>
</g>
<g>
	<g>
		<g>
			<path class="st0" d="M111.9,105.6c3.2,0,6.4-0.1,9.6-0.2c0.2,0,0.2-0.3,0-0.3c-3.2,0-6.4,0.1-9.6,0.2
				C111.7,105.3,111.7,105.6,111.9,105.6L111.9,105.6z"/>
		</g>
	</g>
</g>
<g>
	<g>
		<g>
			<path class="st0" d="M107.2,97.6c-0.9,0.6-1.4,1.4-1.9,2.3c-0.8,1.5-1.9,2.5-3.7,2.5c-0.4,0-0.4,0.6,0,0.6c1.3,0,2.5-0.5,3.3-1.5
				c1-1.1,1.3-2.6,2.6-3.5C107.9,97.8,107.5,97.4,107.2,97.6L107.2,97.6z"/>
		</g>
	</g>
</g>
<g>
	<g>
		<g>
			<path class="st0" d="M29.2,103.5c3.6,4.1,9.4-1.4,13.4,1.5c0.1,0.1,0.3-0.1,0.1-0.3c-4-3-9.8,2.5-13.3-1.5
				C29.3,103.1,29.1,103.4,29.2,103.5L29.2,103.5z"/>
		</g>
	</g>
</g>
<g>
	<g>
		<g>
			<path class="st0" d="M41.5,105.9c-0.7-1.4-3.4-0.4-4.4,0c-2.3,1-3.9,2.9-5.6,4.7c-0.1,0.1,0.1,0.3,0.2,0.2
				c1.2-1.4,2.4-2.7,3.9-3.8c0.7-0.5,1.5-0.9,2.3-1.2c0.8-0.3,2.8-0.9,3.4,0.1C41.3,106.2,41.6,106.1,41.5,105.9L41.5,105.9z"/>
		</g>
	</g>
</g>
<g>
	<g>
		<g>
			<path class="st0" d="M33.8,106.3c-0.7,0.5-1.4,1-2.1,1.4c-0.2,0.1,0,0.3,0.1,0.3c0.7-0.5,1.4-1,2.1-1.4
				C34.1,106.4,33.9,106.2,33.8,106.3L33.8,106.3z"/>
		</g>
	</g>
</g>
<g>
	<g>
		<g>
			<path class="st0" d="M64.1,99.5c-1.5,3.1-4.8,4.8-8.2,4.4c-0.2,0-0.3,0.3-0.1,0.3c3.5,0.5,7-1.4,8.5-4.5
				C64.4,99.5,64.2,99.4,64.1,99.5L64.1,99.5z"/>
		</g>
	</g>
</g>
<g>
	<g>
		<g>
			<path class="st0" d="M62.6,99.6c-1,0.3-2.1,0.7-3.1,1c-0.2,0.1-0.1,0.3,0.1,0.3c1-0.3,2.1-0.7,3.1-1
				C62.9,99.9,62.8,99.6,62.6,99.6L62.6,99.6z"/>
		</g>
	</g>
</g>
<g>
	<g>
		<g>
			<path class="st0" d="M83,95.4c2.7-0.3,5.2-1.4,7.2-3.4c0.1-0.1-0.1-0.3-0.2-0.2c-1.9,1.9-4.3,3-6.9,3.3
				C82.8,95.1,82.8,95.4,83,95.4L83,95.4z"/>
		</g>
	</g>
</g>
<g>
	<g>
		<g>
			<path class="st0" d="M107.3,96.5c-1.8-0.5-2.9,1-3.9,2.2c-1.5,1.8-3.5,3-5.8,3.5c-0.2,0-0.1,0.3,0.1,0.3c1.6-0.4,3-1.1,4.3-2.1
				c1.5-1.2,3-4.3,5.2-3.7C107.4,96.8,107.5,96.5,107.3,96.5L107.3,96.5z"/>
		</g>
	</g>
</g>
<g>
	<g>
		<g>
			<path class="st0" d="M65.8,101.9c-3.1,3.8-5.4,8.2-6.8,13c0,0.2,0.2,0.3,0.3,0.1c1.3-4.7,3.6-9.1,6.7-12.8
				C66.1,102,65.9,101.7,65.8,101.9L65.8,101.9z"/>
		</g>
	</g>
</g>
<g>
	<g>
		<g>
			<path class="st0" d="M67.3,102c-0.5,1.4-1.1,2.8-1.6,4.2c-0.1,0.2,0.2,0.3,0.3,0.1c0.5-1.4,1.1-2.8,1.6-4.2
				C67.6,101.9,67.3,101.8,67.3,102L67.3,102z"/>
		</g>
	</g>
</g>
<g>
	<g>
		<g>
			<path class="st0" d="M80.5,96.5c4.8,0.1,9.4,1.5,13.4,4c0.2,0.1,0.3-0.2,0.1-0.3c-4.1-2.5-8.7-3.9-13.5-4
				C80.3,96.3,80.3,96.5,80.5,96.5L80.5,96.5z"/>
		</g>
	</g>
</g>
<g>
	<g>
		<g>
			<path class="st0" d="M83.9,96.8c3.5-0.6,7-0.7,10.5-0.3c0.2,0,0.2-0.3,0-0.3c-3.5-0.4-7.1-0.3-10.6,0.3
				C83.6,96.6,83.7,96.9,83.9,96.8L83.9,96.8z"/>
		</g>
	</g>
</g>
<g>
	<g>
		<g>
			<path class="st0" d="M85.2,33.9c1,0.6,2.1,1.5,3.2,1.8c0.5,0.2,1,0,1.3-0.5c0.8-1.6-1.9-2.8-3.1-3.1c0,0.1,0.1,0.3,0.2,0.4
				c0.9-2-1.1-3.4-2.7-4c-0.7-0.2-1.4-0.4-2.1-0.8c-0.6-0.3-1-0.9-1.7-1.1c-1.2-0.4-2.1,0.8-3.2-0.4c-0.3-0.3-0.7,0.1-0.4,0.4
				c0.4,0.5,1,0.8,1.6,0.8c0.3,0,0.6-0.2,0.9-0.2c0.8-0.1,1.2,0.2,1.8,0.6c1.4,1,6.5,1.7,5.2,4.4c-0.1,0.2,0,0.4,0.2,0.4
				c0.6,0.1,1.1,0.3,1.6,0.6c0.3,0.2,0.5,0.4,0.8,0.6c0,1-0.3,1.3-0.7,1c-0.4-0.1-0.9-0.5-1.3-0.7c-0.5-0.3-1-0.5-1.4-0.8
				C85.2,33.2,84.9,33.7,85.2,33.9L85.2,33.9z"/>
		</g>
	</g>
</g>
<g>
	<g>
		<g>
			<path class="st0" d="M83.7,31.3c-0.1-0.6,0.6-1.2,1.1-0.8c0.3,0.3,0.2,1-0.2,1.2c0.1,0,0.1,0,0.2,0c-0.3-0.3-0.3-0.7,0-1
				c0.1-0.1-0.1-0.3-0.3-0.1c-0.3,0.4-0.3,1,0.1,1.3c0,0,0.1,0,0.2,0c0.7-0.3,0.7-1.4,0.1-1.7c-0.7-0.5-1.7,0.4-1.4,1.1
				C83.5,31.6,83.8,31.5,83.7,31.3L83.7,31.3z"/>
		</g>
	</g>
</g>
<g>
	<g>
		<g>
			<path class="st0" d="M86.9,34.1c0-0.3,0-0.5,0-0.8c0,0-0.1,0.1-0.1,0.1c0.6,0,1.1,0.5,1.1,1.1c0,0,0.1-0.1,0.1-0.1
				c-0.1,0-0.2,0-0.2-0.1c0-0.2-0.3-0.2-0.3,0c0,0.3,0.3,0.5,0.6,0.4c0.1,0,0.1-0.1,0.1-0.1c0-0.8-0.6-1.4-1.4-1.4
				c-0.1,0-0.1,0.1-0.1,0.1c0,0.3,0,0.5,0,0.8C86.6,34.3,86.8,34.3,86.9,34.1L86.9,34.1z"/>
		</g>
	</g>
</g>
<g>
	<g>
		<g>
			<path class="st0" d="M106.4,101.8c0.8,0,1.5,0.7,1.5,1.5c0,0.2,0.3,0.2,0.3,0c0-1-0.8-1.8-1.8-1.8
				C106.2,101.5,106.2,101.7,106.4,101.8L106.4,101.8z"/>
		</g>
	</g>
</g>
<g>
	<g>
		<g>
			<path class="st0" d="M44.5,96.2c-0.3-0.5-0.7-1-1-1.5c-0.1-0.2-0.3,0-0.3,0.1c0.3,0.5,0.7,1,1,1.5C44.4,96.5,44.6,96.4,44.5,96.2
				L44.5,96.2z"/>
		</g>
	</g>
</g>
<g>
	<g>
		<g>
			<path class="st0" d="M50.3,27.4c-0.3,0.2-0.4,0.7-0.2,1c0.1,0.1,0.3-0.1,0.2-0.2c-0.1-0.2-0.1-0.5,0.1-0.6
				C50.6,27.5,50.4,27.3,50.3,27.4L50.3,27.4z"/>
		</g>
	</g>
</g>
<g>
	<g>
		<g>
			<path class="st0" d="M57.4,25c-0.4,0.1-0.6,0.5-0.5,0.8c0.1,0.2,0.3,0.1,0.3-0.1c-0.1-0.2,0-0.4,0.3-0.5
				C57.6,25.2,57.5,24.9,57.4,25L57.4,25z"/>
		</g>
	</g>
</g>
<g>
	<g>
		<g>
			<path class="st0" d="M59.2,25.8c0.8,0.9,2,0.7,2.8,0c0.1-0.1,0-0.3-0.2-0.2c-0.5,0.3-1.1,0.3-1.7,0.3c-0.2,0-0.2,0.3,0,0.3
				c0.7,0.1,1.3-0.1,1.8-0.4c0-0.1-0.1-0.2-0.1-0.3c-0.2,0.2-0.4,0.3-0.6,0.5c-0.1,0.1,0,0.3,0.1,0.3c0.3-0.1,0.6-0.3,0.9-0.4
				c0.2-0.1,0-0.3-0.1-0.3c-0.3,0-0.4,0.1-0.7,0.3c-0.1,0.1,0,0.3,0.1,0.3c0.1-0.1,0.2-0.1,0.3-0.2c0.2-0.1,0-0.3-0.1-0.3
				c-0.1,0.1-0.2,0.1-0.3,0.2c0,0.1,0.1,0.2,0.1,0.3c0.2-0.1,0.3-0.2,0.6-0.3c0-0.1-0.1-0.2-0.1-0.3c-0.3,0.1-0.6,0.3-0.9,0.4
				c0,0.1,0.1,0.2,0.1,0.3c0.2-0.2,0.4-0.3,0.6-0.5c0.1-0.1,0-0.3-0.1-0.3c-0.5,0.3-1,0.5-1.7,0.4c0,0.1,0,0.2,0,0.3
				c0.6,0,1.2-0.1,1.8-0.3c-0.1-0.1-0.1-0.2-0.2-0.2c-0.7,0.6-1.7,0.7-2.4,0C59.2,25.5,59,25.7,59.2,25.8L59.2,25.8z"/>
		</g>
	</g>
</g>
<g>
	<g>
		<g>
			<path class="st0" d="M59.3,26c0.2,0,0.3,0.1,0.5,0.1c0.2,0,0.3-0.2,0.1-0.3c-0.2,0-0.3-0.1-0.5-0.1C59.2,25.7,59.1,26,59.3,26
				L59.3,26z"/>
		</g>
	</g>
</g>
<g>
	<g>
		<g>
			<path class="st0" d="M75.4,24.1c-0.6-0.1-1.2,0.3-1.4,0.8c0,0.2,0.2,0.3,0.3,0.1c0.1-0.4,0.6-0.7,1-0.6
				C75.5,24.4,75.6,24.1,75.4,24.1L75.4,24.1z"/>
		</g>
	</g>
</g>
<g>
	<g>
		<g>
			<path class="st0" d="M66.6,19.2c-0.2,0.2-0.3,0.3-0.5,0.5c-0.1,0.1,0.1,0.3,0.2,0.2c0.2-0.2,0.3-0.3,0.5-0.5
				C67,19.3,66.8,19.1,66.6,19.2L66.6,19.2z"/>
		</g>
	</g>
</g>
<g>
	<g>
		<g>
			<path class="st0" d="M77.1,20.3c-0.5,0.2-0.8,0.5-1,1c-0.1,0.2,0.2,0.3,0.3,0.1c0.1-0.3,0.4-0.6,0.8-0.8
				C77.4,20.6,77.3,20.3,77.1,20.3L77.1,20.3z"/>
		</g>
	</g>
</g>
<g>
	<g>
		<g>
			<path class="st0" d="M83.5,27.8c-0.3,0-0.6,0-0.9,0.1c-0.2,0-0.1,0.3,0.1,0.3c0.3-0.1,0.5-0.1,0.8-0.1
				C83.6,28.1,83.6,27.8,83.5,27.8L83.5,27.8z"/>
		</g>
	</g>
</g>
<g>
	<g>
		<g>
			<path class="st0" d="M62.6,21.1c-0.9-0.9-2.6,0.1-2,1.4c0.3,0.6,0.9,0.9,1.5,0.7c0.6-0.2,1-0.9,0.8-1.6c0-0.2-0.3-0.1-0.3,0.1
				c0.1,0.5-0.1,1-0.6,1.2c-0.5,0.2-1-0.1-1.2-0.6c-0.3-1,0.9-1.6,1.6-0.9C62.5,21.5,62.7,21.3,62.6,21.1L62.6,21.1z"/>
		</g>
	</g>
</g>
<g>
	<g>
		<g>
			<path class="st0" d="M53.9,22.6c-1.1-0.7-2.4,0.6-1.7,1.7c0.8,1.1,2.5,0.2,2.2-1.1c0-0.2-0.3-0.1-0.3,0.1c0.3,1-1.1,1.8-1.7,0.8
				c-0.5-0.9,0.6-1.7,1.3-1.2C53.9,23,54.1,22.7,53.9,22.6L53.9,22.6z"/>
		</g>
	</g>
</g>
<g>
	<g>
		<g>
			<path class="st0" d="M47.3,26.7c-0.7-1-2.4-0.1-2.2,1c0.1,0.5,0.6,0.9,1.1,0.9c0.6,0,1.1-0.4,1.4-0.9c0.1-0.2-0.2-0.3-0.3-0.1
				c-0.3,0.7-1.3,1.1-1.8,0.4c-0.6-0.9,1-2,1.5-1.1C47.2,27,47.4,26.8,47.3,26.7L47.3,26.7z"/>
		</g>
	</g>
</g>
<g>
	<g>
		<g>
			<path class="st0" d="M71.9,21.4c-0.6-0.3-1.2-0.3-1.7,0.1c-0.5,0.3-0.5,0.9-0.2,1.4c0.8,1.1,2.4,0.7,2.8-0.5
				c0.1-0.2-0.2-0.3-0.3-0.1c-0.3,0.8-1.2,1.1-1.9,0.7c-0.5-0.3-0.7-0.9-0.2-1.3c0.4-0.3,0.9-0.3,1.4-0.1
				C71.9,21.7,72.1,21.4,71.9,21.4L71.9,21.4z"/>
		</g>
	</g>
</g>
<g>
	<g>
		<g>
			<path class="st0" d="M78.4,23.7c-1.1-0.3-2.1,0.9-1.3,1.8c0.3,0.4,0.9,0.5,1.4,0.3c0.5-0.3,0.7-0.8,0.9-1.4
				c0-0.2-0.2-0.3-0.3-0.1c-0.2,0.7-0.7,1.7-1.6,1.1c-0.3-0.2-0.5-0.7-0.3-1c0.2-0.5,0.7-0.7,1.1-0.5C78.5,24.1,78.6,23.8,78.4,23.7
				L78.4,23.7z"/>
		</g>
	</g>
</g>
<g>
	<g>
		<g>
			<path class="st0" d="M100.2,74.6c0.1-0.1,0.1-0.2,0-0.4c0-0.1-0.2-0.1-0.3,0c-0.1,0.7,0,1.4,0.4,2c0.1,0.2,0.3,0,0.3-0.1
				c-0.3-0.5-0.5-1.2-0.3-1.8c-0.1,0-0.2,0-0.3,0c0,0,0,0,0,0C99.9,74.5,100.1,74.7,100.2,74.6L100.2,74.6z"/>
		</g>
	</g>
</g>
<g>
	<g>
		<g>
			<path class="st0" d="M100.3,74.2c-0.1,0.6,0,1.1,0,1.7c0,0.2,0.3,0.2,0.3,0c-0.1-0.6-0.1-1.1,0-1.7C100.6,74,100.3,74,100.3,74.2
				L100.3,74.2z"/>
		</g>
	</g>
</g>
<g>
	<g>
		<g>
			<path class="st0" d="M34.8,63.1c0.2,0,0.2-0.3,0-0.3C34.6,62.8,34.6,63.1,34.8,63.1L34.8,63.1z"/>
		</g>
	</g>
</g>
<g>
	<g>
		<g>
			<path class="st0" d="M37.1,62.2c0,0.1,0.1,0.3,0.1,0.4c0,0.2,0.3,0.1,0.3-0.1c0-0.1-0.1-0.3-0.1-0.4C37.3,61.9,37.1,62,37.1,62.2
				L37.1,62.2z"/>
		</g>
	</g>
</g>
<g>
	<g>
		<g>
			<path class="st0" d="M59.2,31c-0.2,0.9,0.4,1.9,1.4,1.9c0.3,0,0.8,0,0.8-0.4c0-0.5-0.8-0.6-1.1-0.7c-0.2,0-0.3,0.2-0.1,0.3
				c0.1,0,1,0.2,0.7,0.4c-0.2,0.2-0.7,0-0.9-0.1c-0.5-0.3-0.7-0.9-0.6-1.4C59.5,30.9,59.2,30.8,59.2,31L59.2,31z"/>
		</g>
	</g>
</g>
<g>
	<g>
		<g>
			<path class="st0" d="M76.2,30.2c-0.2,0.5-0.7,1.7-0.2,2.2c0.4,0.5,1.7,0.4,2.2,0.3c0.1,0,0.2-0.1,0.1-0.2
				c-0.5-0.9-1.7-0.1-1.1,0.7c0.7,0.9,2.5,0.3,2.3-0.9c0-0.2-0.3-0.1-0.3,0.1c0.2,1,1.4,0.9,2.1,1c0.2,0,0.2-0.3,0-0.3
				c-0.6,0-1.7,0-1.9-0.8c-0.1,0-0.2,0-0.3,0.1c-1,1.2-1.4,1.4-1.1,0.3c0-0.1,0.1-0.1,0.1-0.2c-0.6,0.1-1.5,0.2-1.9-0.3
				c-0.3-0.5,0-1.3,0.2-1.8C76.6,30,76.3,30,76.2,30.2L76.2,30.2z"/>
		</g>
	</g>
</g>
<g>
	<g>
		<g>
			<path class="st0" d="M59.4,31c-0.4,0.3-0.7,0.7-1,1.1c-0.4,0.4-1.9,1.4-2.5,0.8c0-0.2-0.1-0.5-0.1-0.7c-0.2,0.1-0.4,0.2-0.6,0.2
				c-0.3,0.1-0.7,0.1-1,0.1c-0.7,0-1.4-0.2-2.1-0.4c-0.2,0-0.3,0.2-0.1,0.3c1.1,0.3,3.4,1,4.3-0.2c0.5-0.7-0.3-1.3-1-0.8
				C54.4,32,55,33,55.8,33.2c1.8,0.6,2.7-1,3.9-2C59.8,31.1,59.6,30.9,59.4,31L59.4,31z"/>
		</g>
	</g>
</g>
<g>
	<g>
		<g>
			<path class="st0" d="M44.8,21.6c0-0.1,0-0.3,0-0.4c0-0.2,0.1-0.2,0.3-0.3c0.3,0,0.5,0.1,0.8,0c0.4,0,0.8-0.3,1.1-0.6
				c0.2-0.3-0.2-0.7-0.4-0.4c-0.3,0.4-0.7,0.5-1.2,0.4c-0.3,0-0.5-0.1-0.7,0.1c-0.4,0.3-0.5,0.9-0.4,1.3
				C44.3,22.1,44.9,22,44.8,21.6L44.8,21.6z"/>
		</g>
	</g>
</g>
<g>
	<g>
		<g>
			<path class="st0" d="M50.9,18.9C50.9,18.9,50.9,18.9,50.9,18.9C50.8,19,50.9,18.9,50.9,18.9C50.9,18.9,50.9,18.9,50.9,18.9
				C50.9,18.9,50.9,18.9,50.9,18.9C50.9,18.9,50.9,18.9,50.9,18.9L50.9,18.9C50.9,18.9,50.9,18.9,50.9,18.9
				C50.9,18.9,50.9,18.9,50.9,18.9L50.9,18.9C50.9,18.9,50.9,18.9,50.9,18.9C50.9,18.9,50.9,18.9,50.9,18.9c0,0.1,0.1,0.2,0.2,0.2
				c0.1,0,0.3-0.1,0.3-0.3c0-0.2-0.2-0.4-0.4-0.5c-0.2,0-0.5,0-0.6,0.3c-0.1,0.1,0,0.3,0.1,0.4C50.6,19.1,50.8,19,50.9,18.9
				L50.9,18.9z"/>
		</g>
	</g>
</g>
<g>
	<g>
		<g>
			<path class="st0" d="M42.6,32.1c0,0.2,0,0.5,0,0.7c0,0.2,0,0.3,0.2,0.3c0.3,0.1,0.7,0.1,1,0c0.1-0.1,0.2-0.3,0.1-0.4
				c-0.1-0.1-0.3-0.2-0.4-0.1c-0.2,0.1-0.4,0.1-0.6,0c0.1,0.1,0.1,0.2,0.2,0.3c0-0.3,0.1-0.6,0.1-0.8C43.2,31.7,42.6,31.7,42.6,32.1
				L42.6,32.1z"/>
		</g>
	</g>
</g>
<g>
	<g>
		<g>
			<path class="st0" d="M59.5,16.8c0.1-0.2,0.3-0.4,0.5-0.5c0.1,0,0.2-0.1,0.3-0.1c0,0,0.1,0.1,0.1,0.1c-0.2,0.3,0.2,0.7,0.4,0.4
				c0.3-0.4,0-1-0.5-1.1c-0.6-0.1-1.2,0.5-1.4,1C58.8,16.9,59.4,17.1,59.5,16.8L59.5,16.8z"/>
		</g>
	</g>
</g>
<g>
	<g>
		<g>
			<path class="st0" d="M68.2,16.5C68.2,16.5,68.2,16.4,68.2,16.5C68.2,16.4,68.2,16.4,68.2,16.5C68.2,16.5,68.3,16.4,68.2,16.5
				C68.2,16.4,68.3,16.4,68.2,16.5c0.1-0.1,0.1-0.1,0.1-0.1C68.3,16.4,68.3,16.4,68.2,16.5l0.1-0.1L68.2,16.5
				C68.3,16.4,68.3,16.4,68.2,16.5c0.2,0,0.4,0,0.5-0.1c0.1-0.1,0.1-0.3,0-0.4c-0.2-0.1-0.4-0.2-0.7-0.1c-0.2,0.1-0.4,0.3-0.4,0.5
				c0,0.2,0,0.3,0.2,0.3C68,16.8,68.2,16.7,68.2,16.5L68.2,16.5z"/>
		</g>
	</g>
</g>
<g>
	<g>
		<g>
			<path class="st0" d="M78.4,17.6c0.1-0.1,0.3-0.2,0.4-0.2c0,0,0.2,0.1,0.2,0.2c-0.1,0.1-0.1,0.4,0.1,0.5c0.3,0.1,0.6,0.1,0.8-0.1
				c0.3-0.3-0.1-0.7-0.4-0.4c0,0-0.1,0-0.1,0c0,0.2,0,0.3,0.1,0.5c0.3-0.3,0.2-0.7-0.1-1c-0.3-0.3-0.9-0.2-1.2,0.1
				C77.7,17.3,78.1,17.8,78.4,17.6L78.4,17.6z"/>
		</g>
	</g>
</g>
<g>
	<g>
		<g>
			<path class="st0" d="M86.5,24.3c-0.1,0-0.1,0-0.1,0.1s0,0.1,0,0.1c0,0.1,0.1,0.2,0.1,0.3c0.1,0.1,0.3,0.3,0.3,0.5
				c-0.2,0.3,0.3,0.6,0.5,0.3c0.3-0.5-0.2-0.9-0.4-1.3c-0.2-0.4-0.7-0.7-1-0.2C85.8,24.4,86.3,24.6,86.5,24.3L86.5,24.3z"/>
		</g>
	</g>
</g>
<g>
	<g>
		<g>
			<path class="st0" d="M87.7,29.3C87.8,29.3,87.7,29.3,87.7,29.3C87.7,29.3,87.7,29.3,87.7,29.3C87.7,29.3,87.7,29.3,87.7,29.3
				C87.7,29.3,87.7,29.3,87.7,29.3C87.7,29.3,87.7,29.3,87.7,29.3C87.7,29.2,87.7,29.2,87.7,29.3c-0.1,0.1,0,0.3,0.2,0.3
				c0.2,0,0.3,0,0.3-0.2c0.2-0.5-0.4-0.9-0.8-0.6c-0.1,0.1-0.2,0.3-0.1,0.4C87.4,29.3,87.6,29.4,87.7,29.3L87.7,29.3z"/>
		</g>
	</g>
</g>
<g>
	<g>
		<g>
			<path class="st0" d="M42.1,27.6c-1,0.7-0.8,1.7-0.9,2.8c0,0.6-0.2,1.1-0.4,1.7c-0.1,0.3-0.3,0.4-0.3,0.7
				c-0.1,0.7,0.8,2.2-0.1,2.6c-0.3,0.2,0,0.7,0.3,0.5c1-0.6,0.5-1.5,0.4-2.4c-0.1-1,0.5-1.4,0.7-2.3c0.2-1-0.4-2.4,0.6-3.1
				C42.7,27.9,42.4,27.4,42.1,27.6L42.1,27.6z"/>
		</g>
	</g>
</g>
<g>
	<path class="st0" d="M68.3,72.2c-0.8,0-1.4-0.5-1.4-1.2c0-0.6,0.6-1.2,1.4-1.2c0.8,0,1.4,0.5,1.4,1.2
		C69.7,71.7,69.1,72.2,68.3,72.2z M68.3,70.2c-0.6,0-1,0.4-1,0.8c0,0.5,0.5,0.8,1,0.8s1-0.4,1-0.8C69.3,70.6,68.9,70.2,68.3,70.2z"
		/>
</g>
<g>
	<path class="st0" d="M70.9,72.1c-0.8,0-1.4-0.5-1.4-1.2c0-0.6,0.6-1.2,1.4-1.2c0.8,0,1.4,0.5,1.4,1.2
		C72.2,71.6,71.6,72.1,70.9,72.1z M70.9,70.1c-0.6,0-1,0.4-1,0.8c0,0.5,0.5,0.8,1,0.8s1-0.4,1-0.8C71.9,70.5,71.4,70.1,70.9,70.1z"
		/>
</g>
<g>
	<path class="st0" d="M72.9,71.6c-0.8,0-1.4-0.5-1.4-1.2c0-0.6,0.6-1.2,1.4-1.2c0.8,0,1.4,0.5,1.4,1.2
		C74.3,71.1,73.7,71.6,72.9,71.6z M72.9,69.6c-0.6,0-1,0.4-1,0.8c0,0.5,0.5,0.8,1,0.8s1-0.4,1-0.8C73.9,70,73.5,69.6,72.9,69.6z"/>
</g>
<g>
	<path class="st0" d="M75.5,71.4c-0.6,0-1.2-0.4-1.3-1c0-0.3,0-0.6,0.2-0.8c0.2-0.3,0.6-0.5,1-0.5c0.7-0.1,1.4,0.3,1.5,1l0,0
		c0,0.3,0,0.6-0.2,0.8c-0.2,0.3-0.6,0.5-1,0.5C75.7,71.4,75.6,71.4,75.5,71.4z M75.6,69.4c-0.1,0-0.1,0-0.2,0
		c-0.3,0-0.6,0.2-0.7,0.4c-0.1,0.2-0.2,0.4-0.1,0.5c0.1,0.4,0.6,0.8,1.1,0.7c0.3,0,0.6-0.2,0.7-0.4c0.1-0.2,0.2-0.4,0.1-0.5l0,0
		C76.5,69.7,76,69.4,75.6,69.4z"/>
</g>
<g>
	<path class="st0" d="M80.2,69.9c-0.6,0-1.2-0.4-1.3-1c0-0.3,0-0.6,0.2-0.8c0.2-0.3,0.6-0.5,1-0.5c0.7-0.1,1.4,0.3,1.5,1l0,0
		c0,0.3,0,0.6-0.2,0.8c-0.2,0.3-0.6,0.5-1,0.5C80.4,69.9,80.3,69.9,80.2,69.9z M80.3,67.9c-0.1,0-0.1,0-0.2,0
		c-0.3,0-0.6,0.2-0.7,0.4c-0.1,0.2-0.2,0.4-0.1,0.5c0.1,0.4,0.6,0.8,1.1,0.7c0.3,0,0.6-0.2,0.7-0.4c0.1-0.2,0.2-0.4,0.1-0.5
		C81.2,68.2,80.7,67.9,80.3,67.9z"/>
</g>
<g>
	<path class="st0" d="M78,70.6c-0.6,0-1.2-0.4-1.3-1c0-0.3,0-0.6,0.2-0.8c0.2-0.3,0.6-0.5,1-0.5c0.7-0.1,1.4,0.3,1.5,1l0,0
		c0,0.3,0,0.6-0.2,0.8c-0.2,0.3-0.6,0.5-1,0.5C78.1,70.6,78,70.6,78,70.6z M78,68.6c-0.1,0-0.1,0-0.2,0c-0.3,0-0.6,0.2-0.7,0.4
		C77,69.2,77,69.4,77,69.5c0.1,0.4,0.6,0.8,1.1,0.7c0.3,0,0.6-0.2,0.7-0.4c0.1-0.2,0.2-0.4,0.1-0.5C78.9,68.9,78.5,68.6,78,68.6z"/>
</g>
<g>
	<path class="st0" d="M82.3,68.9c-0.8,0-1.4-0.5-1.4-1.2s0.6-1.2,1.4-1.2c0.8,0,1.4,0.5,1.4,1.2S83.1,68.9,82.3,68.9z M82.3,66.9
		c-0.6,0-1,0.4-1,0.8c0,0.5,0.5,0.8,1,0.8s1-0.4,1-0.8C83.4,67.2,82.9,66.9,82.3,66.9z"/>
</g>
<g>
	<path class="st0" d="M65.7,72.2c-0.8,0-1.4-0.5-1.4-1.2c0-0.6,0.6-1.2,1.4-1.2c0.8,0,1.4,0.5,1.4,1.2C67,71.7,66.4,72.2,65.7,72.2z
		 M65.7,70.2c-0.6,0-1,0.4-1,0.8c0,0.5,0.5,0.8,1,0.8c0.6,0,1-0.4,1-0.8C66.7,70.6,66.2,70.2,65.7,70.2z"/>
</g>
<g>
	<path class="st0" d="M84.6,67.8c-0.8,0-1.4-0.5-1.4-1.2s0.6-1.2,1.4-1.2c0.8,0,1.4,0.5,1.4,1.2S85.3,67.8,84.6,67.8z M84.6,65.8
		c-0.6,0-1,0.4-1,0.8s0.5,0.8,1,0.8c0.6,0,1-0.4,1-0.8S85.1,65.8,84.6,65.8z"/>
</g>
<g>
	<path class="st0" d="M58.6,71.6c-0.8,0-1.4-0.5-1.4-1.2c0-0.6,0.6-1.2,1.4-1.2s1.4,0.5,1.4,1.2C60,71.1,59.4,71.6,58.6,71.6z
		 M58.6,69.6c-0.6,0-1,0.4-1,0.8c0,0.5,0.5,0.8,1,0.8c0.6,0,1-0.4,1-0.8C59.6,70,59.2,69.6,58.6,69.6z"/>
</g>
<g>
	<path class="st0" d="M60.8,71.9c-0.8,0-1.4-0.5-1.4-1.2c0-0.6,0.6-1.2,1.4-1.2c0.8,0,1.4,0.5,1.4,1.2
		C62.2,71.4,61.5,71.9,60.8,71.9z M60.8,69.9c-0.6,0-1,0.4-1,0.8c0,0.5,0.5,0.8,1,0.8c0.6,0,1-0.4,1-0.8
		C61.8,70.3,61.4,69.9,60.8,69.9z"/>
</g>
<g>
	<path class="st0" d="M63.2,72.2c-0.8,0-1.4-0.5-1.4-1.2c0-0.6,0.6-1.2,1.4-1.2s1.4,0.5,1.4,1.2C64.6,71.7,64,72.2,63.2,72.2z
		 M63.2,70.2c-0.6,0-1,0.4-1,0.8c0,0.5,0.5,0.8,1,0.8s1-0.4,1-0.8C64.2,70.6,63.8,70.2,63.2,70.2z"/>
</g>
<g>
	<path class="st0" d="M51.1,70.4c-0.8,0-1.4-0.5-1.4-1.2s0.6-1.2,1.4-1.2s1.4,0.5,1.4,1.2S51.9,70.4,51.1,70.4z M51.1,68.4
		c-0.6,0-1,0.4-1,0.8s0.5,0.8,1,0.8c0.6,0,1-0.4,1-0.8S51.7,68.4,51.1,68.4z"/>
</g>
<g>
	<path class="st0" d="M53.7,70.8c-0.8,0-1.4-0.5-1.4-1.2s0.6-1.2,1.4-1.2c0.8,0,1.4,0.5,1.4,1.2S54.4,70.8,53.7,70.8z M53.7,68.8
		c-0.6,0-1,0.4-1,0.8s0.5,0.8,1,0.8c0.6,0,1-0.4,1-0.8S54.2,68.8,53.7,68.8z"/>
</g>
<g>
	<path class="st0" d="M56.1,71.2c-0.8,0-1.4-0.5-1.4-1.2s0.6-1.2,1.4-1.2c0.8,0,1.4,0.5,1.4,1.2S56.8,71.2,56.1,71.2z M56.1,69.2
		c-0.6,0-1,0.4-1,0.8s0.5,0.8,1,0.8c0.6,0,1-0.4,1-0.8S56.6,69.2,56.1,69.2z"/>
</g>
<g>
	<path class="st0" d="M44.1,68.3c-0.8,0-1.4-0.5-1.4-1.2s0.6-1.2,1.4-1.2c0.8,0,1.4,0.5,1.4,1.2S44.9,68.3,44.1,68.3z M44.1,66.3
		c-0.6,0-1,0.4-1,0.8s0.5,0.8,1,0.8c0.6,0,1-0.4,1-0.8S44.7,66.3,44.1,66.3z"/>
</g>
<g>
	<path class="st0" d="M46.6,69.1c-0.8,0-1.4-0.5-1.4-1.2s0.6-1.2,1.4-1.2c0.8,0,1.4,0.5,1.4,1.2S47.4,69.1,46.6,69.1z M46.6,67.1
		c-0.6,0-1,0.4-1,0.8s0.5,0.8,1,0.8c0.6,0,1-0.4,1-0.8S47.2,67.1,46.6,67.1z"/>
</g>
<g>
	<path class="st0" d="M49,69.8c-0.8,0-1.4-0.5-1.4-1.2s0.6-1.2,1.4-1.2c0.8,0,1.4,0.5,1.4,1.2S49.7,69.8,49,69.8z M49,67.8
		c-0.6,0-1,0.4-1,0.8s0.5,0.8,1,0.8c0.6,0,1-0.4,1-0.8S49.5,67.8,49,67.8z"/>
</g>
<g>
	<path class="st0" d="M40.4,66.2c-0.8,0-1.4-0.5-1.4-1.2c0-0.6,0.6-1.2,1.4-1.2c0.8,0,1.4,0.5,1.4,1.2
		C41.7,65.7,41.1,66.2,40.4,66.2z M40.4,64.2c-0.6,0-1,0.4-1,0.8c0,0.5,0.5,0.8,1,0.8c0.6,0,1-0.4,1-0.8
		C41.4,64.6,40.9,64.2,40.4,64.2z"/>
</g>
<g>
	<path class="st0" d="M42.1,67.2c-0.8,0-1.4-0.5-1.4-1.2c0-0.6,0.6-1.2,1.4-1.2c0.8,0,1.4,0.5,1.4,1.2
		C43.5,66.7,42.9,67.2,42.1,67.2z M42.1,65.2c-0.6,0-1,0.4-1,0.8c0,0.5,0.5,0.8,1,0.8c0.6,0,1-0.4,1-0.8
		C43.2,65.6,42.7,65.2,42.1,65.2z"/>
</g>
<g>
	<g>
		<g>
			<path class="st0" d="M47.9,44.5c5.2-2.6,11.4-2.7,16.7-0.4c0.3,0.1,0.6-0.3,0.3-0.5c-5.5-2.4-11.9-2.2-17.3,0.4
				C47.3,44.1,47.6,44.6,47.9,44.5L47.9,44.5z"/>
		</g>
	</g>
</g>
<g>
	<g>
		<g>
			<path class="st0" d="M69.9,43.8c5.4-2.3,11.4-2.5,16.9-0.6c0.3,0.1,0.5-0.4,0.2-0.6c-5.7-2-11.8-1.7-17.3,0.7
				C69.3,43.5,69.6,44,69.9,43.8L69.9,43.8z"/>
		</g>
	</g>
</g>
</svg>
