<?xml version="1.0" encoding="utf-8"?>
<!-- Generator: Adobe Illustrator 24.0.1, SVG Export Plug-In . SVG Version: 6.00 Build 0)  -->
<svg version="1.1" id="Layer_1" xmlns="http://www.w3.org/2000/svg" xmlns:xlink="http://www.w3.org/1999/xlink" x="0px" y="0px"
	 viewBox="0 0 141.7 141.7" style="enable-background:new 0 0 141.7 141.7;" xml:space="preserve">
<style type="text/css">
	.st0{fill:#070707;}
</style>
<g id="Layer_1_1_">
</g>
<g id="Layer_1_2_">
</g>
<g id="Layer_1_3_">
</g>
<g id="Layer_1_4_">
</g>
<g id="Layer_1_5_">
</g>
<g id="Layer_3">
</g>
<g id="Layer_3_1_">
</g>
<g id="Layer_2_1_">
	<g>
		<g>
			<path d="M36.7,108.9c-3.1-4.4-4.1-9.7-4.5-15c0-0.5-0.8-0.5-0.7,0c0.4,5.4,1.4,10.8,4.6,15.3C36.3,109.7,37,109.3,36.7,108.9
				L36.7,108.9z"/>
		</g>
	</g>
	<g>
		<g>
			<path d="M63.5,120.3c-3.4-0.7-6.8-1.6-10.2-2.7c-0.4-0.1-0.6,0.6-0.2,0.7c3.4,1.1,6.8,1.9,10.2,2.7
				C63.8,121.1,64,120.4,63.5,120.3L63.5,120.3z"/>
		</g>
	</g>
	<g>
		<g>
			<path d="M96.3,113.9c-2,3.2-5.2,5-8.5,6.5c-0.4,0.2-0.1,0.8,0.4,0.6c3.5-1.5,6.8-3.4,8.8-6.7C97.2,113.9,96.6,113.5,96.3,113.9
				L96.3,113.9z"/>
		</g>
	</g>
	<g>
		<g>
			<path d="M100.8,103.9c0.5,0.4,1,0.8,1.6,1.1c0.7,0.3,1.3,0.6,1.7,1.3c0.6,1.1-0.9,1.2-1.7,1.4c-0.7,0.2-1.4,0.4-2,0.8
				c-0.4,0.3,0,0.9,0.4,0.6c1-0.7,2.2-0.7,3.3-1.1c0.6-0.3,1-0.6,0.9-1.3c-0.2-1.9-2.5-2.2-3.7-3.3
				C100.9,103,100.4,103.6,100.8,103.9L100.8,103.9z"/>
		</g>
	</g>
	<g>
		<g>
			<path d="M92.4,62.9c0.7,5.9,3,11.3,5,16.9c2.1,5.9,3.6,11.8,3.6,18.1c0,0.5,0.7,0.5,0.7,0c0-6.1-1.3-11.9-3.3-17.6
				c-2-5.7-4.5-11.3-5.2-17.4C93.1,62.5,92.4,62.5,92.4,62.9L92.4,62.9z"/>
		</g>
	</g>
	<g>
		<g>
			<path d="M90.5,36.3c2.5,4.1,2.6,9.1,2.3,13.8c0,0.5,0.7,0.5,0.7,0c0.3-4.8,0.2-9.9-2.4-14.1C90.9,35.5,90.2,35.9,90.5,36.3
				L90.5,36.3z"/>
		</g>
	</g>
	<g>
		<g>
			<path d="M57.1,18.8c3.5,0.3,6.9,1,10.3,1.7c3.3,0.8,6.7,1.4,10,2.3c0.7,0.2,1.5,0.4,2.1,0.9c0.7,0.5,1.2,1.2,1.8,1.9
				c1,1.2,2.1,2.2,3.3,3.3c1.2,1,2.2,2.1,3.2,3.3c1,1.2,2.4,2.7,2.7,4.2c0.1,0.5,0.8,0.3,0.7-0.2c-0.3-1.5-1.5-2.7-2.4-3.9
				c-1-1.3-2.1-2.5-3.3-3.6c-1.3-1.2-2.5-2.2-3.6-3.5c-1-1.2-1.9-2.3-3.5-2.8c-1.6-0.6-3.4-0.8-5.1-1.2c-1.8-0.4-3.6-0.9-5.4-1.3
				c-3.6-0.8-7.2-1.5-10.8-1.8C56.6,18,56.6,18.8,57.1,18.8L57.1,18.8z"/>
		</g>
	</g>
	<g>
		<g>
			<path d="M42,33.5c0-0.2,0.1-0.4,0.1-0.6c0.1-0.4-0.6-0.6-0.7-0.2c-0.1,0.3-0.1,0.5-0.2,0.8c0,0.2,0.2,0.4,0.4,0.4
				C41.8,33.9,41.9,33.7,42,33.5L42,33.5z"/>
		</g>
	</g>
	<path class="st0" d="M47,40.5c1.3-0.5,2-2,1.5-3.3c-0.5-1.3-2-2-3.3-1.5c-1.3,0.5-2,2-1.5,3.3C44.2,40.3,45.7,41,47,40.5z
		 M44.6,36.9c0.4-0.1,0.8,0.1,0.9,0.4c0.1,0.4-0.1,0.8-0.4,0.9c-0.4,0.1-0.8-0.1-0.9-0.4C44,37.5,44.2,37.1,44.6,36.9z"/>
	<g>
		<g>
			<path d="M41.7,32.3c-5.2-1-10.4,2.8-12.1,7.6c-0.8,2.3-0.6,4.9,0.7,6.9c1.2,1.9,3.2,3.2,5.4,3.3c0.3,0,0.3-0.5,0-0.5
				c-2.2-0.1-4.2-1.5-5.2-3.4c-1.1-2-1.1-4.4-0.3-6.5c1.7-4.4,6.5-7.9,11.4-7C41.9,32.8,42.1,32.3,41.7,32.3L41.7,32.3z"/>
		</g>
	</g>
	<g>
		<path d="M35.8,49.1c0.1,0.5,0.6,0.8,1.1,0.8c0.5,0,1-0.1,1.5-0.3c0.8-0.3,1.6-0.6,2.4-0.9c0.8-0.3,1.6-0.6,2.1-1.2
			c0.6-0.6,0.9-1.5,0.5-2.2c-0.2-0.4-0.6-0.6-0.9-0.8c-1.5-0.8-3.5-0.9-5,0.1s-2.2,2.9-1.5,4.6"/>
	</g>
	<g>
		<g>
			<path d="M42.5,51.6c-1,0.2-2,0.2-3.1,0.4c-0.3,0.1-0.2,0.5,0.1,0.5c1-0.2,2-0.3,3.1-0.4C42.9,52.1,42.8,51.6,42.5,51.6L42.5,51.6
				z"/>
		</g>
	</g>
	<g>
		<g>
			<path d="M43.1,45.3c0.6,0.2,1.2,0.5,1.7,1c0.2,0.2,0.6-0.1,0.4-0.4c-0.6-0.5-1.2-0.9-1.9-1.1C42.9,44.8,42.8,45.2,43.1,45.3
				L43.1,45.3z"/>
		</g>
	</g>
	<g>
		<g>
			<path d="M42.9,52.1c0.1,1.3,0.3,2.8-0.4,4c-0.3,0.4-0.8,1.3-1.5,0.5c-0.2-0.3-0.3-0.9-0.4-1.2c-0.2-0.9-0.3-1.8-0.3-2.8
				c0-0.3-0.5-0.3-0.5,0c0,1,0.1,5.6,2,4.8c1.9-0.8,1.7-3.7,1.5-5.3C43.4,51.7,42.9,51.7,42.9,52.1L42.9,52.1z"/>
		</g>
	</g>
	<g>
		<g>
			<path d="M41.3,57.2c-2-0.2-3.2-2.2-2.4-4.1c0.1-0.3-0.4-0.4-0.5-0.1c-0.9,2.2,0.5,4.5,2.9,4.7C41.6,57.7,41.6,57.2,41.3,57.2
				L41.3,57.2z"/>
		</g>
	</g>
	<g>
		<g>
			<path class="st0" d="M84.8,71.2c-3,0.8-5.3,3.7-6.3,6.5c-0.7,2-0.6,4.6,2,4.6c0.3,0,0.3-0.5,0-0.5c-2.7,0-2.1-3-1.3-4.7
				c1.1-2.4,3.1-4.8,5.7-5.5C85.2,71.6,85.1,71.1,84.8,71.2L84.8,71.2z"/>
		</g>
	</g>
	<g>
		<g>
			<path class="st0" d="M81.6,79.1c-0.6,0.8-1.3,2.1-0.9,3.1c0.4,1,1.8,1,2.7,0.7c1.2-0.4,2.1-1.7,2.7-2.8c0.7-1.3,1.2-2.7,1.5-4.1
				c0.1-0.3-0.4-0.4-0.5-0.1c-0.3,2-1.2,4.3-2.6,5.8c-0.7,0.7-2.2,1.6-3.1,0.7c-0.8-0.8,0-2.2,0.5-2.9
				C82.1,79.2,81.8,78.9,81.6,79.1L81.6,79.1z"/>
		</g>
	</g>
	<g>
		<g>
			<path class="st0" d="M42.1,112.1c2.5-0.5,2.8,2.8,4,4.2c0.1-0.1,0.2-0.3,0.2-0.4c-1.4-0.2-2.7,0.4-4,0.9
				c-1.5,0.6-3.5,1.3-4.5-0.4c-1.7-2.8,3.3-4,5.1-4.3c0.3-0.1,0.2-0.5-0.1-0.5c-2,0.4-6.7,1.5-5.7,4.4c1.4,4.3,6.4,0,9.2,0.4
				c0.2,0,0.4-0.2,0.2-0.4c-1.4-1.7-1.6-4.9-4.5-4.3C41.6,111.7,41.7,112.1,42.1,112.1L42.1,112.1z"/>
		</g>
	</g>
	<g>
		<g>
			<path class="st0" d="M38,116.5c0-1.4,1.3-2,2.5-2.3c0.3-0.1,0.2-0.5-0.1-0.5c-1.4,0.3-2.8,1.2-2.8,2.8
				C37.5,116.9,38,116.9,38,116.5L38,116.5z"/>
		</g>
	</g>
	<g>
		<g>
			<path class="st0" d="M73.4,118.5c3.2-2,5.3,2.3,7.8,3.7c0-0.2,0-0.3,0.1-0.4c-2,0.4-3.5,2-5,3.2c-1.5,1.3-3.7,3.3-5.8,2.2
				c-5.3-2.7,1.5-7.6,4.1-9.2c0.3-0.2,0-0.6-0.3-0.4c-1.5,0.9-2.9,1.9-4.2,3.1c-1.1,1.1-2.3,2.6-2.1,4.2c0.2,1.5,1.8,2.8,3.3,3.1
				c1.7,0.3,3.2-0.8,4.4-1.8c1.8-1.4,3.5-3.5,5.8-3.9c0.2,0,0.2-0.4,0.1-0.4c-2.6-1.5-4.7-5.9-8.3-3.7
				C72.9,118.3,73.2,118.7,73.4,118.5L73.4,118.5z"/>
		</g>
	</g>
	<g>
		<g>
			<path class="st0" d="M70.1,126.9c-0.7-1.9,0.6-3.6,2.2-4.5c0.3-0.2,0-0.6-0.3-0.4c-1.8,1.1-3.2,2.9-2.5,5.1
				C69.7,127.3,70.2,127.2,70.1,126.9L70.1,126.9z"/>
		</g>
	</g>
	<g>
		<g>
			<path class="st0" d="M82.5,26.4c3.4-2.5,9.1-4.2,12.2-0.4c2.8,3.5,2.3,9.8-2.5,11.4c-0.3,0.1-0.2,0.6,0.1,0.5
				c5-1.6,5.8-7.9,3-11.7c-3.1-4.4-9.3-2.8-13.1-0.1C82.1,26.2,82.3,26.6,82.5,26.4L82.5,26.4z"/>
		</g>
	</g>
	<path class="st0" d="M91.5,30c-0.2-1.2-1.3-2-2.5-1.8c-1.2,0.2-2,1.3-1.8,2.5c0.2,1.2,1.3,2,2.5,1.8C90.9,32.3,91.7,31.2,91.5,30z"
		/>
	<path class="st0" d="M31.8,43.7c1.4,0.1,2.6-1,2.7-2.4c0.1-1.4-1-2.6-2.4-2.7c-1.4-0.1-2.6,1-2.7,2.4
		C29.3,42.4,30.3,43.6,31.8,43.7z M31,39.4c0.4,0,0.7,0.4,0.7,0.8c0,0.4-0.4,0.7-0.8,0.7c-0.4,0-0.7-0.4-0.7-0.8
		C30.2,39.7,30.6,39.4,31,39.4z"/>
	<g>
		<g>
			<path d="M40.9,44.4c-2.3-2.7-1.8-6.8,0.4-9.4c2.1-2.5,5.5-3.9,8.8-4c3.2-0.1,6.6,1.4,8.3,4.2c1.8,2.8,0.6,6.5-1.2,9.1
				c-0.2,0.3,0.2,0.5,0.4,0.3c1.6-2.1,2.6-5,2-7.7c-0.6-2.6-2.9-4.5-5.3-5.5c-4.9-2.1-12,0.3-14.5,5.1c-1.4,2.7-1.2,6.1,0.7,8.4
				C40.7,45,41.1,44.7,40.9,44.4L40.9,44.4z"/>
		</g>
	</g>
	<g>
		<g>
			<path class="st0" d="M30.4,70.8c-2.2,0.7-7.1,3.6-3.9,6.1c0.3,0.2,0.6-0.2,0.4-0.4c-2.8-2.2,1.9-4.7,3.7-5.3
				C30.9,71.2,30.7,70.7,30.4,70.8L30.4,70.8z"/>
		</g>
	</g>
	<g>
		<g>
			<path class="st0" d="M29.3,75.1c-1.2,0.3-2.9,1.1-2.6,2.6c0.2,1.3,1.9,1.7,3,1.7c0.3,0,0.3-0.5,0-0.5c-0.8,0-2.2-0.2-2.5-1.2
				c-0.4-1.2,1.3-1.9,2.2-2.1C29.7,75.5,29.6,75,29.3,75.1L29.3,75.1z"/>
		</g>
	</g>
	<g>
		<g>
			<path class="st0" d="M63.5,19.4c1.3-2.2,3.9-3.1,6.4-2.7c2.8,0.4,5.1,2.3,5.9,5.1c0.1,0.3,0.6,0.2,0.5-0.1
				c-0.9-2.9-3.3-5-6.3-5.4c-2.7-0.4-5.4,0.6-6.9,2.9C62.9,19.4,63.3,19.7,63.5,19.4L63.5,19.4z"/>
		</g>
	</g>
	<g>
		<g>
			<path class="st0" d="M34.1,47.2c2.8-2,6-4.1,9.6-3.4c0.3,0.1,0.4-0.4,0.1-0.5c-3.8-0.7-7,1.4-10,3.4C33.5,47,33.8,47.4,34.1,47.2
				L34.1,47.2z"/>
		</g>
	</g>
	<g>
		<g>
			<path class="st0" d="M43.8,42.7c-0.4,0.5-0.3,1.2,0.1,1.7c0.6,0.7,1.6,0.7,2.5,0.6c1.2-0.1,2.4-0.4,3.5-0.9
				c0.5-0.2,1.4-0.5,1.4-1.2c0-0.7-0.9-1.2-1.4-1.4c-0.8-0.4-1.7-0.5-2.6-0.5c-1.1,0-4.3,0.2-3.5,2c0.1,0.3,0.6,0.2,0.5-0.1
				c0.1-0.3,0.2-0.6,0.4-0.9c0.2-0.1,0.4-0.2,0.6-0.2c0.2-0.1,0.5-0.1,0.7-0.1c0.5-0.1,1-0.1,1.5-0.1c0.9,0,2.4,0.2,3,1
				c0.8,1-1.8,1.6-2.6,1.8c-0.6,0.2-1.3,0.3-1.9,0.3c-0.8,0-2.5-0.5-1.7-1.6C44.4,42.7,44,42.5,43.8,42.7L43.8,42.7z"/>
		</g>
	</g>
	<g>
		<g>
			<path class="st0" d="M34.7,45.7c0.2-0.2,0.2-0.5-0.1-0.7c-0.5-0.4-1.3-0.1-1.9,0.1c-0.8,0.3-2.6,1.6-2,2.7
				c0.6,1.1,2.5,0.2,3.3-0.2c0.7-0.4,2.2-1.8,0.8-2.4C34.4,45,34.3,45.5,34.7,45.7c0.9,0.3-1.2,1.5-1.5,1.6c-0.3,0.2-1.6,0.8-2,0.3
				c-0.3-0.4,0.1-1,0.4-1.3c0.2-0.2,0.4-0.4,0.7-0.6c0.2-0.1,0.5-0.3,0.7-0.3c0.1,0,0.2-0.1,0.4-0.1c0.3-0.1,0.6-0.1,0.9,0
				C34.1,45.6,34.4,45.9,34.7,45.7L34.7,45.7z"/>
		</g>
	</g>
	<g>
		<g>
			<path class="st0" d="M29.9,56.9c-1,2.1-0.4,4.3-0.6,6.5c-0.2,2.6-1.9,4.8-4.4,5.6c-0.3,0.1-0.4,0.6,0,0.7
				c2.8,0.6,5.7,0.3,8.3-0.9c0.4-0.2,0.1-0.8-0.4-0.6c-2.4,1.1-5.1,1.3-7.7,0.8c0,0.2,0,0.5,0,0.7c2.2-0.6,3.9-2.3,4.6-4.4
				c0.9-2.6-0.3-5.4,0.8-7.9C30.7,56.8,30.1,56.5,29.9,56.9L29.9,56.9z"/>
		</g>
	</g>
	<g>
		<g>
			<path class="st0" d="M49.4,98.1c3.8,6,10.8,9.2,17.5,10.8c0.3,0.1,0.5-0.2,0.4-0.4c-0.9-2.7-3.1-5.2-3.3-8.1
				c-0.2-2.9,1.3-5.6,2.3-8.2c0.2-0.4-0.5-0.6-0.7-0.2c-1,2.7-2.5,5.4-2.3,8.4c0.2,3,2.4,5.4,3.3,8.3c0.2-0.2,0.3-0.3,0.4-0.4
				c-6.6-1.5-13.4-4.6-17.1-10.5C49.8,97.3,49.1,97.7,49.4,98.1L49.4,98.1z"/>
		</g>
	</g>
	<g>
		<g>
			<path class="st0" d="M66.1,92.8c2.7,0.3,5.2-0.6,7.3-2.3c0.3-0.2,0-0.6-0.3-0.6c-3.5-0.4-6.2-3.7-6.1-7.2c0.2-3.4,4-6.8,1.8-10.3
				c-0.1,0.2-0.3,0.4-0.4,0.5c3,0.8,6.2-0.2,8.2-2.5c0.2-0.3,0-0.7-0.4-0.6c-3.1,1-3.9-3.3-4.5-5.4c-0.5-2-1.5-3.8-2.7-5.4
				C66.6,55.9,63,53.7,59,53c-0.5-0.1-0.7,0.6-0.2,0.7c4.5,0.8,8.5,3.6,10.8,7.6c0.6,1,1,2,1.4,3.1c0.4,1.2,0.5,2.4,1,3.5
				c0.7,1.7,2.5,3.3,4.5,2.7c-0.1-0.2-0.2-0.4-0.4-0.6c-1.9,2.1-4.7,3-7.5,2.3c-0.3-0.1-0.6,0.3-0.4,0.5c1.4,2.2,0,4.6-1,6.7
				c-0.7,1.7-1.1,3.3-0.7,5.1c0.7,3.2,3.4,5.7,6.6,6.1c-0.1-0.2-0.2-0.4-0.3-0.6c-1.9,1.6-4.3,2.3-6.8,2.1
				C65.6,92,65.6,92.8,66.1,92.8L66.1,92.8z"/>
		</g>
	</g>
	<g>
		<g>
			<path class="st0" d="M58.9,54.1c3.4-0.1,6.7-0.8,9.8-2c0.4-0.1,0.4-0.7-0.1-0.7c-2,0.1-4-0.6-5.5-1.9c-0.4-0.3-0.9,0.2-0.5,0.5
				c1.7,1.5,3.8,2.2,6.1,2.1c0-0.2-0.1-0.5-0.1-0.7c-3,1.3-6.3,2-9.6,2C58.5,53.4,58.5,54.1,58.9,54.1L58.9,54.1z"/>
		</g>
	</g>
	<g>
		<g>
			<path class="st0" d="M38.6,32.1c-1.4-2.2-1.2-5.1,0.6-7.1c-0.1-0.1-0.3-0.2-0.4-0.2c-0.2,0.6-0.1,1.1,0.2,1.7
				c0.1,0.1,0.3,0.2,0.4,0.1c0.5-0.4,1-0.7,1.6-0.9c-0.1-0.1-0.2-0.1-0.3-0.2c0.1,0.4,0.1,0.7,0.2,1.1c0,0.2,0.2,0.2,0.4,0.1
				c0.6-0.3,1.1-0.7,1.7-1c-0.1,0-0.2-0.1-0.3-0.1c0.7,1.2,2.1,1.7,3.4,1.2c0.3-0.1,0.5-0.3,0.7-0.4c1.1-0.7,1.6-0.3,2.4,0.4
				c0.7,0.6,1.3,1.1,2.2,1.4c1.8,0.7,3.7,0.6,5.6,0.4c1-0.1,3.8-0.1,3.6-1.7c-0.2,0-0.3,0.1-0.4,0.1c0.9,1.5,2.3,2.9,3.6,4
				c1,0.8,2.3,1.3,3.5,0.5c0.3-0.2,0-0.6-0.3-0.4c-1.4,1.1-2.9-0.4-3.8-1.3c-0.9-0.9-1.9-1.8-2.6-3c-0.1-0.2-0.5-0.1-0.4,0.1
				c0.2,1.3-4.4,1.3-5.2,1.3c-1.6,0-3.2-0.3-4.6-1.2c-0.9-0.6-1.9-2-3.2-1.5c-0.7,0.3-1.1,1-2,1c-0.9,0-1.7-0.4-2.1-1.2
				c-0.1-0.1-0.2-0.2-0.3-0.1c-0.6,0.3-1.1,0.7-1.7,1c0.1,0,0.2,0.1,0.4,0.1c-0.1-0.4-0.1-0.7-0.2-1.1c0-0.1-0.2-0.2-0.3-0.2
				c-0.7,0.2-1.3,0.5-1.8,1c0.1,0,0.3,0,0.4,0.1c-0.3-0.4-0.3-0.8-0.2-1.3c0.1-0.2-0.2-0.4-0.4-0.2c-1.9,2.1-2.2,5.3-0.6,7.7
				C38.3,32.6,38.8,32.4,38.6,32.1L38.6,32.1z"/>
		</g>
	</g>
	<g>
		<g>
			<path class="st0" d="M79.6,29.2c1.1-0.6,1.9-1.7,2.6-2.8c0.2-0.3-0.3-0.5-0.4-0.3c-0.7,1-1.3,2-2.4,2.6
				C79.1,28.9,79.4,29.3,79.6,29.2L79.6,29.2z"/>
		</g>
	</g>
	<g>
		<g>
			<path class="st0" d="M67.3,31.8c1.2,0.7,2.6,1.1,3.9,0.9c1.4-0.2,2.4-1.2,3.8-1.5c0.3-0.1,0.2-0.5-0.1-0.5
				c-1.1,0.2-1.9,0.9-2.9,1.2c-1.5,0.6-3.1,0.2-4.4-0.6C67.3,31.2,67.1,31.6,67.3,31.8L67.3,31.8z"/>
		</g>
	</g>
	<g>
		<g>
			<path class="st0" d="M79.7,30.9c1.5-0.8,3.8-2.4,2.7-4.3c-0.2-0.3-0.6,0-0.4,0.3c1,1.7-1.2,3-2.5,3.7
				C79.2,30.6,79.4,31.1,79.7,30.9L79.7,30.9z"/>
		</g>
	</g>
	<g>
		<g>
			<path class="st0" d="M59.4,37.5c1.2,0.6,2.5,0.7,3.8,0.5c0.6-0.1,1.2-0.3,1.7-0.6c0.8-0.4,1.4-1.1,2.1-1.5
				c0.9-0.4,1.8-0.4,2.7-0.6c0.7-0.2,1.4-0.4,2.1-0.7c1.5-0.6,2.9-1.4,4.4-2c0.3-0.1,0-0.5-0.3-0.4c-1.4,0.6-2.8,1.4-4.2,2
				c-0.6,0.2-1.2,0.4-1.8,0.6c-0.7,0.2-1.5,0.1-2.2,0.3c-1.3,0.3-2.2,1.4-3.4,2c-1.4,0.7-3.3,0.8-4.7,0C59.3,37,59.1,37.4,59.4,37.5
				L59.4,37.5z"/>
		</g>
	</g>
	<g>
		<g>
			<path class="st0" d="M48.9,26.2c1.2-1.3,2.5-2.6,3.7-3.9c0.6-0.6,1.2-1.3,1.9-2c0.7-0.7,1.4-1.5,2.5-1.3c0.8,0.1,1.5,0.7,2.2,1
				c0.7,0.4,1.5,0.8,2.2,1.2c1.6,0.9,3.1,1.7,4.7,2.6c2.8,1.5,5.7,2.9,7.8,5.3c2.1,2.4,3.3,5.4,4.1,8.4c0.1,0.4,0.8,0.3,0.7-0.2
				c-0.8-3.2-2-6.3-4.3-8.8c-2.4-2.6-5.6-4.1-8.6-5.8c-1.8-1-3.6-2-5.4-2.9c-1.2-0.6-2.6-1.8-4-1.6c-1.6,0.2-2.8,1.9-3.8,2.9
				c-1.4,1.5-2.8,3-4.2,4.5C48,26,48.6,26.6,48.9,26.2L48.9,26.2z"/>
		</g>
	</g>
	<g>
		<g>
			<path class="st0" d="M79.7,37.3c0.3-1.6,0.4-3.2,0.3-4.8c-0.2-1.5-0.9-3.3,0-4.7c0.3-0.4-0.4-0.8-0.6-0.4
				c-0.7,1.2-0.5,2.5-0.3,3.8c0.4,2,0.4,3.9,0,5.8C78.9,37.6,79.6,37.8,79.7,37.3L79.7,37.3z"/>
		</g>
	</g>
	<g>
		<g>
			<path class="st0" d="M77.8,37.2c-2.1,0.3-3.9,1.9-4.2,4c-0.1,0.3,0.2,0.6,0.5,0.4c0.4-0.2,0.7-0.4,1.1-0.5
				c-0.2-0.1-0.4-0.2-0.5-0.3c0,0.9-0.1,1.8-0.1,2.7c0,0.5,0.7,0.5,0.7,0c0-0.9,0.1-1.8,0.1-2.7c0-0.3-0.3-0.4-0.5-0.3
				c-0.4,0.2-0.7,0.4-1.1,0.5c0.2,0.1,0.4,0.3,0.5,0.4c0.3-1.8,1.7-3.2,3.5-3.5C78.3,37.9,78.3,37.2,77.8,37.2L77.8,37.2z"/>
		</g>
	</g>
	<g>
		<g>
			<path class="st0" d="M75,44.4c0.3-0.1,0.6-0.2,0.9-0.4c-0.2-0.1-0.3-0.2-0.5-0.4c0.2,2.3,1.7,4.3,3.9,5.1
				c0.2,0.1,0.4-0.1,0.4-0.3c0.3-0.9,1.3-0.4,1.6,0.1c0.3,0.5,0.3,1.1,0.3,1.7c0,0.3,0.3,0.5,0.5,0.3c1.4-1.1,2.2-2.7,2.2-4.5
				c-0.1,0.1-0.2,0.2-0.4,0.4c0.9,0,1.7-0.1,2.6-0.1c0.4,0,0.9,0,1.2-0.4c0.2-0.3,0.1-0.5,0.1-0.8c0-0.6,0.3-0.4,0.6-0.8
				c0.6-0.7,0.3-1.9,0-2.6c-0.2-0.5-0.4-1-0.7-1.4c-0.4-0.4-1.1-0.6-1.6-1c0,0.2,0.1,0.4,0.1,0.6c0.4-0.4,0.8-0.6,1.3-0.7
				c0.3-0.1,0.4-0.5,0.1-0.7c-2.4-1.5-5.2-2.2-8.1-1.8c-0.5,0.1-0.5,0.8,0,0.7c2.7-0.3,5.4,0.3,7.7,1.7c0-0.2,0.1-0.4,0.1-0.7
				c-0.6,0.2-1.1,0.4-1.6,0.9c-0.2,0.2-0.1,0.4,0.1,0.6c0.4,0.3,0.9,0.4,1.3,0.7c0.5,0.4,0.7,0.9,0.8,1.5c0.1,0.4,0.3,1.1,0.2,1.5
				c-0.2,0.4-0.5,0.3-0.8,0.5c-0.4,0.4-0.1,0.6-0.2,1.1c0,0.5-0.8,0.4-1.2,0.4c-0.6,0-1.2,0.1-1.8,0.1c-0.2,0-0.4,0.2-0.4,0.4
				c0.1,1.5-0.6,2.9-1.8,3.8c0.2,0.1,0.4,0.2,0.5,0.3c0-1.1-0.2-2.4-1.3-2.9c-0.8-0.3-1.8,0-2.1,0.9c0.2-0.1,0.3-0.2,0.4-0.3
				c-1.9-0.7-3.2-2.4-3.4-4.4c0-0.2-0.2-0.4-0.5-0.4c-0.3,0.1-0.6,0.2-0.9,0.4C74.4,43.9,74.6,44.6,75,44.4L75,44.4z"/>
		</g>
	</g>
	<g>
		<g>
			<path class="st0" d="M78.4,37.5c0.5,0.1,1-0.1,1.2-0.5c0.2-0.3-0.3-0.5-0.4-0.3C79,37,78.8,37.1,78.5,37
				C78.2,36.9,78.1,37.4,78.4,37.5L78.4,37.5z"/>
		</g>
	</g>
	<g>
		<g>
			<path class="st0" d="M82.8,86.8c5.6-0.7,11-2.4,15.9-5.2c0.3-0.2,0-0.6-0.3-0.4c-4.8,2.8-10.2,4.5-15.7,5.1
				C82.5,86.3,82.5,86.8,82.8,86.8L82.8,86.8z"/>
		</g>
	</g>
	<g>
		<g>
			<path class="st0" d="M66.9,85.5c4.3,1.2,8.8,1.7,13.3,1.5c0.3,0,0.3-0.5,0-0.5c-4.4,0.2-8.9-0.3-13.2-1.5
				C66.7,85,66.6,85.4,66.9,85.5L66.9,85.5z"/>
		</g>
	</g>
	<g>
		<g>
			<path class="st0" d="M83.7,89.7c5.6-0.5,11.3-1.6,15.9-5c0.3-0.2,0-0.6-0.3-0.4c-4.5,3.3-10.2,4.4-15.7,4.9
				C83.4,89.2,83.4,89.7,83.7,89.7L83.7,89.7z"/>
		</g>
	</g>
	<g>
		<g>
			<path class="st0" d="M73,90.8c2.7-0.3,5.3-0.6,8-0.9c0.3,0,0.3-0.5,0-0.5c-2.7,0.3-5.3,0.6-8,0.9C72.7,90.4,72.7,90.9,73,90.8
				L73,90.8z"/>
		</g>
	</g>
	<g>
		<g>
			<path class="st0" d="M37.6,113.5c-1.2-0.5-1.9-1.6-2-2.8c-0.2,0-0.3,0.1-0.4,0.1c0.3,0.3,0.6,0.4,0.9,0.1
				c0.2-0.2,0.3-0.4,0.3-0.6c0.1-0.3,0-0.7,0.5-0.8c0.2,0,0.5,0.1,0.7,0.1c0.8,0,1-0.4,1.3-1c0.3-0.6,0.8-1.1,1.3-1.5
				c0.4-0.3,1.7-0.9,1.9-0.1c0.1,0.5,0,0.8,0.6,0.9c0.8,0.2,1.7-0.4,2.5-0.5c2.2-0.2,4.4,1,5.5,2.9c0-0.1,0.1-0.2,0.1-0.3
				c-0.6,0.3-0.5,1-0.1,1.4c0.4,0.4,1,0.6,1.4,1c0.6,0.5,1.1,1.2,1.5,1.9c0.1-0.1,0.2-0.2,0.3-0.3c-1.1-0.6-1.9,0.6-1.7,1.6
				c0.1,0.9,0.5,1.7,0.6,2.6c0.1,1.1-0.1,2.3-0.6,3.3c0.1,0,0.3,0,0.4-0.1c-1-1.2-2.5-1.7-4-1.5c-0.7,0.1-1.4,0.3-2.1,0.5
				c-0.6,0.3-1.1,0.5-1.6-0.1c-0.4-0.4-0.6-1-0.9-1.4c-0.1-0.1-0.2-0.1-0.3-0.1c-0.4,0.1-0.8,0.2-1.2,0.2c-0.2,0-0.4,0-0.6-0.2
				c0-0.1,0.1-0.1,0.1-0.2c-0.1-0.2,0.1-0.4-0.1-0.6c-0.2-0.5-0.7-0.7-1.2-0.5c-0.3,0.1-0.2,0.5,0.1,0.5c0.8-0.2,0.4,1.1,0.6,1.4
				c0.3,0.3,0.9,0.2,1.2,0.2c0.3,0,0.7-0.2,1,0c0.2,0.1,0.4,0.6,0.5,0.8c0.2,0.3,0.5,0.9,0.9,1c0.4,0.1,0.8-0.2,1.1-0.3
				c0.6-0.3,1.3-0.5,2-0.6c1.5-0.2,3,0.2,4,1.3c0.1,0.1,0.3,0.1,0.4-0.1c0.4-1,0.7-2.1,0.6-3.3c0-0.5-0.1-1.1-0.2-1.6
				c-0.1-0.3-0.2-0.6-0.3-0.9c-0.1-0.5-0.2-2.2,0.9-1.6c0.2,0.1,0.4-0.1,0.3-0.3c-0.4-0.7-0.8-1.2-1.3-1.8c-0.3-0.2-0.5-0.4-0.8-0.6
				c-0.2-0.1-1.6-0.8-0.8-1.2c0.1-0.1,0.2-0.2,0.1-0.3c-0.8-1.5-2.3-2.5-3.9-2.9c-0.8-0.2-1.6-0.3-2.3-0.1c-0.5,0.1-0.9,0.2-1.4,0.4
				c-0.9,0.3-0.6-0.4-0.9-0.9c-0.7-1.1-2.9,0.2-3.5,0.9c-0.3,0.3-0.5,0.7-0.7,1.1c-0.7,1-1.1,0.3-1.8,0.5c-0.2,0-0.4,0.2-0.5,0.3
				c-0.1,0.1-0.4,1.4-0.6,1.2c-0.1-0.2-0.5-0.1-0.4,0.1c0.1,1.4,0.9,2.7,2.3,3.3C37.6,114.1,37.9,113.7,37.6,113.5L37.6,113.5z"/>
		</g>
	</g>
	<g>
		<g>
			<path class="st0" d="M67.8,124.2c-0.8,0.3-1.5,0.7-2.1,1.4c0.1,0.1,0.3,0.2,0.4,0.2c0.3-1,0-1.6-0.8-2.1c-0.5-0.3-0.9-0.6-1.3-1
				c-0.6-0.6-0.6-1-0.6-1.8c-0.1,0.1-0.3,0.1-0.4,0.2c0.9,0.4,1-0.9,1.1-1.5c0-0.5,0.1-1.1,0.2-1.6c0.2-0.6,0.3-1.1,1-1
				c0.3,0.1,0.5,0.2,0.8,0.1c0.3-0.1,0.4-0.5,0.5-0.7c0.4-0.8,0.4-1.4,1.4-1.4c0.7,0,1.2-0.1,1.9-0.4c0.4-0.2,0.7-0.5,1-0.7
				c0.5-0.3,2.6-1,2.2,0.7c-0.1,0.3,0.2,0.4,0.4,0.2c3.2-2.8,8.1-3.1,11.7-0.9c0-0.1,0-0.3,0-0.4c-1.1,0.6-2.6,1.8-2,3.2
				c0.6,1.4,5,1.8,3.6,4.1c-0.1,0.1,0,0.3,0.1,0.3c0.4,0.3,0.7,0.5,1,0.9c0.1,0.2,0.8,0.9,0.7,1.1c-0.1,0.5-0.9,0.6-1.3,0.7
				c-0.8,0.3-0.8,0.6-0.7,1.3c0.3,0.4,0.2,0.7-0.2,1.2c-0.2,0.1-0.4,0.2-0.7,0.3c-0.3,0.1-0.5,0.1-0.8,0.2c-0.8,0.1-1.7,0.1-2.5,0.2
				c-1.2,0.1-2.4,0.5-3.3,1.3c0.1,0.1,0.3,0.2,0.4,0.2c0.4-1-0.1-2.2-1.2-2.5c-1.2-0.4-2.2,0.6-2.5,1.7c0.1,0,0.2-0.1,0.4-0.1
				c-0.6-0.4-1.2-0.8-1.9-1.2c-0.3-0.2-0.5,0.3-0.3,0.4c0.6,0.4,1.2,0.8,1.9,1.2c0.1,0.1,0.3,0,0.4-0.1c0.2-0.9,1-1.6,1.9-1.3
				c0.8,0.3,1.2,1.1,0.8,1.9c-0.1,0.3,0.3,0.4,0.4,0.2c1.5-1.3,3.4-1.1,5.3-1.3c0.8-0.1,2.8-0.4,2.7-1.7c0-0.4-0.3-0.4-0.2-0.8
				c0.1-0.5,0.4-0.5,0.8-0.6c0.4-0.1,0.9-0.3,1.1-0.6c0.5-0.9-1.3-2.4-2-2.8c0,0.1,0.1,0.2,0.1,0.3c0.6-1,0.1-2.2-0.8-2.8
				c-0.7-0.5-1.6-0.7-2.3-1.2c-1.5-1.2,0.2-2.5,1.2-3.2c0.2-0.1,0.2-0.3,0-0.4c-3.8-2.3-8.9-1.9-12.3,1c0.1,0.1,0.3,0.2,0.4,0.2
				c0.3-1.3-1.1-1.9-2.2-1.6c-0.9,0.3-1.6,1.1-2.5,1.3c-0.7,0.2-1.4-0.2-2,0.4c-0.3,0.3-0.5,0.8-0.6,1.2c-0.2,0.5-0.4,0.6-1,0.5
				c-0.2,0-0.3-0.2-0.6-0.1c-0.5,0.1-0.7,0.8-0.8,1.2c-0.2,0.4-0.3,0.9-0.3,1.4c0,0.2,0,1.9-0.4,1.8c-0.2-0.1-0.4,0-0.4,0.2
				c-0.1,1.1,0.1,1.6,0.9,2.3c0.8,0.8,2.3,1.1,1.8,2.5c-0.1,0.2,0.3,0.4,0.4,0.2c0.5-0.6,1.1-1.1,1.9-1.3
				C68.3,124.6,68.1,124.1,67.8,124.2L67.8,124.2z"/>
		</g>
	</g>
	<g>
		<g>
			<path class="st0" d="M32.5,68.3c-3.4,2.6-3.6,7.1-3.2,11c0.3,2.7,0.8,5.4,0.3,8.2c-0.4,2.6-1.6,5-2.8,7.4c-0.1,0.2,0,0.6,0.3,0.5
				c4.3-0.4,8.2-2.8,10.3-6.6c0.2-0.4-0.4-0.8-0.6-0.4c-2,3.5-5.7,5.8-9.7,6.2c0.1,0.2,0.2,0.4,0.3,0.5c1-2.1,2.1-4.2,2.6-6.5
				c0.6-2.4,0.4-4.7,0.2-7.1c-0.5-4.2-1.3-9.7,2.6-12.6C33.2,68.6,32.8,68,32.5,68.3L32.5,68.3z"/>
		</g>
	</g>
	<g>
		<g>
			<path class="st0" d="M36.5,88.6c0,3.6,0.7,7.2,2.7,10.2c2,3,5.1,5,8,6.9c0.2,0.1,0.5,0,0.5-0.2c0.4-1.3-0.4-2.5-0.3-3.9
				c0.1-1.5,1-2.9,2.2-3.8c0.4-0.3,0-0.9-0.4-0.6c-1.2,0.8-2,1.9-2.4,3.2c-0.2,0.6-0.3,1.3-0.2,2c0.1,0.9,0.6,1.9,0.3,2.8
				c0.2-0.1,0.4-0.1,0.5-0.2c-2.9-1.9-5.9-3.8-7.8-6.7c-1.9-2.9-2.6-6.4-2.6-9.8C37.2,88.1,36.5,88.1,36.5,88.6L36.5,88.6z"/>
		</g>
	</g>
	<g>
		<g>
			<path class="st0" d="M80.2,74c-0.6-0.9-0.4-2,0.5-2.6c0.1-0.1,0.1-0.2,0.1-0.3c-0.2-1.5,1.5-2.7,2.3-1c0.2,0.4,0.3,0.8,0.7,1
				c0.6,0.4,1.6-0.2,2.1,0.4c0.6,0.5,0.4,1.5,0.5,2.1c0.1,0.6,0.2,1,0.6,1.4c0.4,0.4,0.8,0.6,1,1.1c0.2,0.3,0.3,0.7,0.3,1.1
				c0.2,1,0.4,2.2-0.1,3.1c-0.9,1.5-1.9-0.1-2-1.1c0-0.3-0.5-0.2-0.5,0.1c0.1,0.8,0.8,2.2,1.8,2.2c1.1,0,1.5-1.8,1.5-2.6
				c0-1.3-0.3-2.9-1.2-3.8c-0.4-0.4-0.8-0.7-1-1.3c-0.1-0.4-0.1-0.9-0.1-1.3c-0.1-0.4-0.2-0.9-0.5-1.2c-0.4-0.4-0.8-0.5-1.2-0.5
				c-0.7,0-1.2-0.1-1.6-0.9c-0.1-0.2-0.2-0.5-0.4-0.7c-0.6-0.7-1.6-0.7-2.2-0.2c-0.4,0.3-0.6,0.8-0.7,1.3c-0.1,0.7,0,0.5-0.5,1.1
				c-0.6,0.8-0.7,1.9-0.1,2.7C79.9,74.5,80.4,74.3,80.2,74L80.2,74z"/>
		</g>
	</g>
	<g>
		<g>
			<path class="st0" d="M81,69.2c-0.2,0.1-0.4,0.3-0.6,0.4c-0.1,0.1-0.2,0.2-0.1,0.3c0.1,0.1,0.2,0.2,0.3,0.1
				c0.2-0.1,0.4-0.3,0.6-0.4c0.1-0.1,0.2-0.2,0.1-0.3C81.3,69.2,81.1,69.1,81,69.2L81,69.2z"/>
		</g>
	</g>
	<g>
		<g>
			<path class="st0" d="M80.6,69.7c-0.1-1.1,0.2-2.2,0.8-3.1c-0.1,0-0.3,0-0.4,0c0.8,1.2,1.7-0.5,2.2-1c0.3-0.3,1.1-1,1.4-0.6
				c0.1,0.1,0.1,0.6,0.2,0.8c0.3,0.6,1,0.9,1.6,1.1c1.1,0.3,2,0.5,2.9,1.3c0.6,0.6,1.4,1.3,1.9,2.1c1.2,1.8,2,4.1,2.9,6.1
				c0.1-0.1,0.2-0.2,0.3-0.3c-0.4-0.1-0.8-0.2-1.2-0.4c-0.2-0.1-0.4,0.2-0.3,0.4c0.9,1.4,1.4,2.9,1.3,4.6c0,0.3,0.5,0.3,0.5,0
				c0.1-1.2-1.5-1.1-2.1-0.4c-0.2,0.3-0.4,0.6-0.6,0.9c-0.4,0.6-1,0.5-1.7,0.5c-0.8,0.1-1.3,0.5-1.7,1.2c0.1,0,0.3,0,0.4,0
				c-0.3-0.5-0.5-1-0.8-1.5c-0.2-0.3-0.6,0-0.4,0.3c0.3,0.5,0.5,1,0.8,1.5c0.1,0.2,0.3,0.1,0.4,0c0.5-0.8,1.2-0.9,2.1-0.9
				c0.4,0,0.6-0.1,0.9-0.4c0.2-0.2,0.4-0.4,0.5-0.6c0.1-0.2,0.2-0.4,0.3-0.5c0.3-0.3,1.3-1,1.3,0c0.2,0,0.3,0,0.5,0
				c0-1.7-0.4-3.4-1.4-4.8c-0.1,0.1-0.2,0.2-0.3,0.4c0.4,0.1,0.8,0.2,1.2,0.4c0.2,0.1,0.4-0.1,0.3-0.3c-0.8-1.9-1.7-3.8-2.6-5.7
				c-0.4-0.7-0.9-1.3-1.5-1.9c-0.6-0.6-1.2-1.3-2-1.7c-0.8-0.4-2.1-0.3-2.8-0.9c-0.3-0.3-0.4-0.6-0.5-1c0-0.1,0-0.2,0-0.3
				c-0.1-0.1-0.2-0.2-0.3-0.3c-0.4-0.2-1.2,0.3-1.5,0.5c-0.3,0.2-0.5,0.4-0.8,0.7c-0.2,0.2-0.8,1.3-1.2,0.8c-0.1-0.2-0.3-0.2-0.4,0
				c-0.7,1-1,2.2-0.9,3.4C80.2,70,80.7,70,80.6,69.7L80.6,69.7z"/>
		</g>
	</g>
	<g>
		<g>
			<path class="st0" d="M66.8,56.6c0.6-0.6,1.2-1.2,1.7-1.8c-0.1,0-0.3-0.1-0.4-0.1c0.6,1.9,3.2,1.6,3.4-0.4c-0.2,0-0.3,0.1-0.4,0.1
				c2,2.8,5.7,2.3,8.6,1.6c1.1-0.3,2.3-0.5,3.5-0.5c0.7,0,1.4,0,2-0.3c0.4-0.2,0.8-0.4,1-0.9c0.1-0.2,0.1-0.4,0.1-0.7
				c-0.1-0.9-0.1-2.1,1.2-1.9c-0.1-0.1-0.1-0.2-0.2-0.3c-0.4,0.9,0.5,1.8,1.4,1.7c1.1-0.1,1.6-1.3,1.7-2.3c-0.2,0-0.3,0.1-0.4,0.1
				c0.4,0.6,1,0.5,1.6,0.2c0.4-0.3,0.7-0.9,1.2-1c1.2-0.4,1.1,1.1,1.2,1.6c0.4,1.9,2.3,2.3,3.5,3.6c1.1,1.1,0.4,2.3-0.2,3.5
				c-0.4,0.9-0.6,1.6-0.3,2.6c0.2,0.5,0.4,1.1,0.6,1.6c0.3,1.4-1,1.7-1.9,1.1c-1-0.6-1.5-1.5-2.7-1.9c-0.1,0-0.2,0-0.3,0.1
				c-0.7,1-2.3,0.2-3.1-0.1c-1-0.3-2.1-0.5-3.2-0.7c-0.7-0.1-1.5-0.3-2.2,0c-0.3,0.1-0.5,0.3-0.7,0.6c-0.4,0.5-0.8,0.9-1.5,1
				c-0.8,0.1-1.6,0-2.4,0.2c-0.7,0.2-1.3,0.7-2,1.1c-1.1,0.7-2,0.3-3.1,0.1c-1-0.1-1.9,0-2.8,0.4c-0.3,0.1-0.2,0.6,0.1,0.5
				c1.3-0.5,2.4-0.4,3.7-0.1c0.8,0.2,1.5,0.1,2.2-0.4c0.8-0.4,1.4-1.1,2.3-1.2c0.9-0.2,1.9,0.1,2.7-0.3c0.3-0.1,0.5-0.3,0.7-0.6
				c0.4-0.5,0.6-0.8,1.4-0.9c1.2-0.2,2.7,0.3,3.8,0.6c0.9,0.2,1.8,0.7,2.7,0.8c0.3,0,0.5,0,0.8,0c0.2-0.1,0.5-0.4,0.7-0.4
				c0.6-0.1,1.6,1.1,2,1.5c0.5,0.4,1.3,0.8,2,0.6c1.4-0.3,1.2-1.8,0.8-2.8c-0.4-1.1-0.6-1.9-0.2-3c0.3-0.7,0.8-1.4,0.9-2.2
				c0.1-1.2-0.7-2-1.6-2.7c-0.7-0.5-1.5-0.9-2-1.5c-0.6-0.8-0.4-1.7-0.8-2.5c-1-2.1-3,1.6-3.8,0.5c-0.1-0.2-0.4-0.1-0.4,0.1
				c0,0.5-0.2,1.1-0.6,1.4c-0.6,0.6-2,0.3-1.6-0.8c0-0.1-0.1-0.3-0.2-0.3c-0.9-0.2-1.9,0.4-2,1.5c0,0.5,0.3,1.1,0.1,1.5
				c-0.2,0.4-0.8,0.5-1.2,0.6c-0.9,0.2-1.7,0.1-2.6,0.2c-3.3,0.4-8,2.4-10.4-1c-0.1-0.2-0.4-0.1-0.4,0.1c-0.2,1.4-2,1.6-2.5,0.3
				c-0.1-0.2-0.3-0.2-0.4-0.1c-0.6,0.6-1.2,1.2-1.7,1.8C66.2,56.5,66.5,56.8,66.8,56.6L66.8,56.6z"/>
		</g>
	</g>
	<g>
		<g>
			<path d="M27.7,49.7c-0.3,0.4-0.3,0.8-0.6,1.2c-0.4,0.8-1.6,0.2-2.2,0c-1.4-0.6-2.8-1.2-4-2.2c-0.2-0.2-0.5,0.1-0.5,0.3
				c0,2.5,1.8,4.3,4,5c0.9,0.3,1.3,0.8,1.8,1.5c0.4,0.5,0.8,1.1,1.4,1.4c1,0.7,2.2,0.7,3.4,0.4c0.6-0.2,1.2-0.6,1.8-0.8
				c0.6-0.2,1.2,0,1.8-0.2c1.2-0.3,2.1-1.1,2.9-2c0.4-0.4,0.7-1.2,1.3-1.4c0.4-0.2,0.9-0.2,1.2-0.7c0.4-0.9,0-2.1-0.8-2.6
				c-0.4-0.3-0.7,0.4-0.4,0.6c0.5,0.4,0.8,1.4,0.3,1.8c-0.3,0.3-0.7,0.2-1,0.5c-0.4,0.3-0.6,0.9-0.9,1.2c-0.3,0.4-0.7,0.7-1.1,1.1
				c-1,0.8-1.9,0.9-3.1,0.9c-0.4,0-0.7,0.3-1.1,0.4c-0.5,0.3-1.2,0.5-1.8,0.6c-1.4,0.2-2.5-0.5-3.3-1.6c-0.5-0.7-0.9-1.3-1.8-1.7
				c-2.1-0.8-4-2-4-4.4c-0.2,0.1-0.4,0.2-0.5,0.3c1.5,1.1,3.3,2.1,5.1,2.6c0.6,0.2,1.2,0.2,1.7-0.2c0.5-0.4,0.4-1,0.8-1.5
				C28.5,49.9,28,49.3,27.7,49.7L27.7,49.7z"/>
		</g>
	</g>
	<g>
		<g>
			<path d="M28.2,49.5c-0.6,0-0.8,0.6-0.8,1.1c0,0.2,0.3,0.3,0.4,0.3c0.2-0.1,0.3-0.3,0.3-0.4c0,0.1,0,0,0,0c0,0,0-0.1,0-0.1
				c0,0.1,0,0,0,0s0-0.1,0,0c0,0,0-0.1,0-0.1c0,0.1,0,0,0,0c-0.1,0,0,0,0,0c0,0,0,0,0,0c0,0-0.1,0,0,0c0.2,0,0.4-0.2,0.4-0.4
				C28.5,49.7,28.4,49.5,28.2,49.5L28.2,49.5z"/>
		</g>
	</g>
	<g>
		<g>
			<path d="M40.5,48.5c-1.2,0.9-1.4,2.6-0.3,3.6c0.5,0.5,1.2,0.6,1.9,0.5c0.6-0.1,1.1-0.3,1.6-0.4c0.8-0.2,1.6-0.1,2.4,0
				c2.4,0.3,4.7,0.9,7.2,0.6c2-0.3,4-1.1,5.4-2.7c-0.2-0.2-0.4-0.3-0.6-0.4c-0.3,0.5-0.5,0.9-0.8,1.4c-0.2,0.4,0.3,0.7,0.6,0.4
				c0.2-0.2,0.9-0.3,1.2-0.3c0.6-0.1,1.1-0.3,1.7-0.4c1.2-0.3,2.1-1,2.9-1.9c2.1-2.3,4.3-5.5,3.9-8.8c0-0.3-0.5-0.6-0.7-0.2
				c-0.9,2.1-3.2,3.3-5.4,2.8c0,0.2,0.1,0.4,0.1,0.7c0.8-0.5,1.1-1.4,0.8-2.3c-0.1-0.3-0.5-0.4-0.7-0.1c-0.7,1.2-1.6,2.1-2.8,2.8
				c-0.4,0.2,0,0.9,0.4,0.6c1.3-0.7,2.3-1.7,3-3c-0.2,0-0.4-0.1-0.7-0.1c0.2,0.6,0.1,1.1-0.5,1.5c-0.3,0.2-0.2,0.6,0.1,0.7
				c2.5,0.6,5.2-0.7,6.2-3.1c-0.2-0.1-0.4-0.1-0.7-0.2c0.2,1.9-0.4,3.6-1.4,5.1c-0.8,1.3-1.8,2.7-2.9,3.7c-0.9,0.8-1.9,1.1-3,1.3
				c-0.6,0.1-1.7,0.2-2.2,0.7c0.2,0.2,0.4,0.3,0.6,0.4c0.3-0.5,0.5-0.9,0.8-1.4c0.2-0.4-0.3-0.8-0.6-0.4c-2.5,2.8-6.5,2.8-9.9,2.2
				c-1.5-0.3-3.1-0.7-4.6-0.4c-0.9,0.2-1.8,0.7-2.7,0.3c-1.1-0.5-1.2-2-0.2-2.7C41.2,48.9,40.8,48.3,40.5,48.5L40.5,48.5z"/>
		</g>
	</g>
	<g>
		<g>
			<path d="M45.6,46.9c0.3-1.1,1.2-1.8,2.3-1.9c-0.1-0.2-0.2-0.4-0.3-0.5c-0.4,0.7-0.7,2,0.4,2.2c0.4,0.1,0.7-0.2,1-0.5
				c0.5-0.5,0.9-1.1,1.5-1.5c2.3-1.7,5.3-2.2,8-2.6c-0.1-0.2-0.1-0.5-0.2-0.7c-1.6,0.6-2.9,1.7-3.8,3.2c-0.2,0.3,0.1,0.6,0.4,0.5
				c1.5-0.2,2.9-0.4,4.4-0.6c0.5-0.1,0.3-0.8-0.2-0.7c-1.5,0.2-2.9,0.4-4.4,0.6c0.1,0.2,0.3,0.4,0.4,0.5c0.7-1.4,1.9-2.4,3.3-2.9
				c0.4-0.2,0.3-0.8-0.2-0.7c-2,0.3-4,0.7-5.9,1.5c-0.8,0.3-1.6,0.7-2.3,1.2c-0.4,0.3-0.7,0.5-1,0.9c-0.2,0.2-0.3,0.4-0.5,0.5
				c-0.1,0.1-0.1,0.2-0.2,0.2c-0.4-0.3-0.5-0.6-0.3-0.9c0.1-0.2,0-0.6-0.3-0.5c-1.4,0.1-2.6,1-3,2.4C44.7,47.2,45.4,47.4,45.6,46.9
				L45.6,46.9z"/>
		</g>
	</g>
	<g>
		<g>
			<path d="M36.6,47.8c-1-0.3-1.9-0.4-2.9-0.3c-0.2,0-0.3,0.1-0.4,0.3c-0.1,0.4,0.1,0.5,0.1,0.9c0,0.1,0.1,0.1,0.1,0.2
				c-0.1,0.3-0.3,0.4-0.5,0.4c-0.3,0.1-0.6,0-0.9,0.1c-1.3,0.2-2.6,1-3.8,0.3c-0.4-0.3-0.8,0.4-0.4,0.6c1.6,1,3.3-0.1,5-0.2
				c0.5,0,1,0,1.3-0.4c0.4-0.6-0.4-1-0.3-1.6c-0.1,0.1-0.2,0.2-0.4,0.3c0.9-0.1,1.8,0,2.7,0.3C36.9,48.6,37.1,47.9,36.6,47.8
				L36.6,47.8z"/>
		</g>
	</g>
	<g>
		<g>
			<path d="M38.3,60.9c2.1,2.8,6.3,2.3,7.6-0.9c0.2-0.4-0.5-0.6-0.7-0.2c-1.1,2.7-4.6,3.1-6.3,0.8C38.6,60.2,38,60.5,38.3,60.9
				L38.3,60.9z"/>
		</g>
	</g>
	<g>
		<g>
			<path d="M37.7,63.3c-1,4,1,8,4,10.5c3.5,3,8.2,4.1,12.6,5.1c0.4,0.1,0.7-0.6,0.2-0.7c-4.1-0.9-8.4-1.9-11.8-4.5
				c-3.1-2.3-5.3-6.3-4.4-10.2C38.5,63,37.8,62.8,37.7,63.3L37.7,63.3z"/>
		</g>
	</g>
	<g>
		<g>
			<path d="M40.5,69.8c2,1.9,4.4,3.2,7.1,3.7c0.5,0.1,0.7-0.6,0.2-0.7c-2.6-0.5-4.9-1.7-6.8-3.5C40.6,69,40.1,69.5,40.5,69.8
				L40.5,69.8z"/>
		</g>
	</g>
	<g>
		<g>
			<path d="M31,74.7c0,2.1,0.5,4.1,0.7,6.2c0.2,2.2,0.1,4.3-0.5,6.4c-0.1,0.4,0.6,0.6,0.7,0.2c0.5-2,0.7-4.1,0.5-6.2
				c-0.2-2.2-0.8-4.3-0.8-6.5C31.7,74.2,31,74.2,31,74.7L31,74.7z"/>
		</g>
	</g>
	<g>
		<g>
			<path d="M33.4,80c-0.1,0.9-0.1,1.8-0.2,2.7c0,0.5,0.7,0.5,0.7,0c0.1-0.9,0.1-1.8,0.2-2.7C34.2,79.5,33.4,79.5,33.4,80L33.4,80z"
				/>
		</g>
	</g>
	<g>
		<g>
			<path class="st0" d="M100.9,103.3c-0.6-0.1-1.3-0.2-1.8,0.3c-0.2,0.3-0.3,0.5-0.3,0.9c0,0.3,0.1,0.6,0.1,0.9
				c0,0.4-0.1,0.8-0.3,1.2c-0.2,0.5-0.4,1.1,0.2,1.5c0.7,0.5,0.9-0.4,1.4-0.7c-0.1,0-0.2-0.1-0.4-0.1c0.1,0.6,0,1.2-0.4,1.7
				c-0.2,0.2,0.2,0.6,0.4,0.4c0.5-0.7,0.7-1.3,0.5-2.2c0-0.2-0.2-0.2-0.4-0.1c-0.1,0.1-0.7,0.6-0.7,0.6c-0.1,0-0.1-0.8-0.1-1
				s0.2-0.4,0.2-0.5c0.1-0.3,0-0.6,0-0.9c-0.1-0.5-0.1-0.5,0.3-1c0.4-0.5,0.5-0.4,1.1-0.3C101.1,103.9,101.2,103.4,100.9,103.3
				L100.9,103.3z"/>
		</g>
	</g>
	<g>
		<g>
			<path class="st0" d="M101.9,104.2c0.8-0.5,1.8-1.1,1.7-2.2c0-0.4-0.2-0.6-0.2-1c0.1-0.6,0.3-1.2,0-1.7c-0.4-0.9-1.5-1.2-2.5-1.1
				c-0.9,0.1-2.3,0.4-2.8,1.2c-0.2,0.3-0.3,0.7-0.2,1c0,0.1,0.2,0.3,0.2,0.4c0.1,0.5-0.4,0.7-0.8,0.9c-1,0.5-2,1.3-2.2,2.5
				c-0.1,0.4,0,0.8,0.2,1.2c0.2,0.6,0.4,1,0.2,1.6c-0.1,0.3-0.4,0.5-0.5,0.8c-0.7,0.9-0.5,1.6,0,2.6c0.5,1.2,0.5,2.9,1.7,3.7
				c0.7,0.5,1.8,0.3,2.2-0.5c-0.1,0-0.3,0-0.4,0c0.8,1.1,2.3,0.9,2.8-0.4c0.1-0.4,0.1-0.7,0.2-1.1c0.1-0.7,0.3-1.2,0.5-1.9
				c0.3-0.6,0.3-1.2-0.2-1.7c-0.2-0.2-0.6,0.1-0.4,0.4c0.6,0.6-0.4,2.1-0.4,2.8c0,0.4,0,0.8-0.1,1.1c-0.2,0.9-1.2,1.5-1.9,0.5
				c-0.1-0.1-0.4-0.2-0.4,0c-0.4,1-1.6,0.4-2-0.3c-0.3-0.6-0.4-1.2-0.6-1.8c-0.4-1.2-1.2-2.1-0.4-3.3c0.4-0.5,0.8-1,0.7-1.6
				s-0.5-1.1-0.5-1.8c0-0.9,0.6-1.5,1.4-2c0.5-0.3,1.6-0.6,1.8-1.3c0.1-0.2-0.1-0.3-0.1-0.5c-0.3-1.2,0.1-1.4,1.1-1.7
				c0.7-0.2,1.4-0.4,2.1-0.3c1.3,0.3,1.3,1.3,1.1,2.3c-0.1,0.3,0,0.3,0,0.5c0.3,0.4,0.3,0.8,0,1.2c-0.1,0.2-0.2,0.4-0.4,0.5
				c-0.3,0.3-0.6,0.4-0.9,0.6C101.4,103.9,101.7,104.3,101.9,104.2L101.9,104.2z"/>
		</g>
	</g>
	<g>
		<g>
			<path class="st0" d="M80.2,86.3c1.3,1.3,1.7,3.3,0.9,4.9c-0.1,0.3,0.3,0.5,0.4,0.3c0.9-1.9,0.5-4.1-0.9-5.5
				C80.3,85.7,79.9,86.1,80.2,86.3L80.2,86.3z"/>
		</g>
	</g>
	<g>
		<g>
			<path class="st0" d="M81.8,85.9c1.2,1.8,1.6,3.8,1.1,5.9c-0.1,0.3,0.4,0.4,0.5,0.1c0.4-2.2,0-4.4-1.2-6.3
				C82,85.4,81.6,85.7,81.8,85.9L81.8,85.9z"/>
		</g>
	</g>
	<g>
		<g>
			<path class="st0" d="M101.3,97.3c2.1,0.5,4.4-0.5,6.4-1.3c2-0.7,3.9-1.7,5.4-3.2c1.6-1.6,2.7-3.8,3.8-5.7
				c1.4-2.4,2.8-4.8,4.2-7.3c0.2-0.3-0.3-0.5-0.4-0.3c-1.2,2.1-2.4,4.2-3.6,6.3c-1.2,2-2.2,4.1-3.6,5.9c-1.4,1.7-3.3,2.8-5.3,3.6
				c-2,0.8-4.6,2-6.7,1.5C101.2,96.8,101,97.2,101.3,97.3L101.3,97.3z"/>
		</g>
	</g>
	<g>
		<g>
			<path class="st0" d="M117,86.8c4.9-2.7,9.8-7.2,9.6-13.3c-0.1-3.3-1.5-6.5-3.2-9.2c-1.7-2.7-3.8-5.1-6.3-7
				c-2.6-2-6.1-3.6-7.3-6.9c-0.1-0.3-0.6-0.2-0.5,0.1c0.8,2.4,2.8,3.9,4.9,5.3c2.5,1.8,4.9,3.6,6.8,6c2.1,2.5,3.8,5.5,4.7,8.7
				c0.9,3.2,0.4,6.5-1.3,9.3c-1.8,2.8-4.6,5-7.6,6.6C116.5,86.5,116.7,86.9,117,86.8L117,86.8z"/>
		</g>
	</g>
	<g>
		<g>
			<path class="st0" d="M94.2,52.5c3.7-0.3,7.4-0.8,11-1.4c1.9-0.3,3.7-0.7,5.5-1.1c1.2-0.3,2.7-0.5,3.4-1.6
				c0.8-1.1,0.4-2.4-0.1-3.6c-0.3-0.8-0.7-1.7-1-2.5c-0.2-0.4-0.4-0.9-0.9-1.2c-1.1-0.5-1.8,1.2-2.4,1.7c-1.1,1.2-2.6,1.9-4,2.7
				c-3.8,1.9-8,4-12.4,2.6c-0.3-0.1-0.4,0.4-0.1,0.5c2.8,0.9,5.8,0.4,8.6-0.7c2.5-1,5.1-2.1,7.2-3.7c0.5-0.4,1-0.8,1.3-1.2
				c0.1-0.2,0.3-0.4,0.4-0.5c0.1-0.1,0.2-0.3,0.3-0.4c0.1-0.3,0.3-0.3,0.6-0.1c0.3-0.1,0.5,0,0.6,0.3c0.3,0.3,0.4,1,0.6,1.3
				c0.2,0.4,0.3,0.7,0.4,1.1c0.4,0.8,0.8,1.8,0.6,2.8c-0.4,1.6-2.4,1.9-3.7,2.1c-1.6,0.4-3.2,0.7-4.8,1c-3.8,0.7-7.6,1.2-11.4,1.5
				C93.9,52,93.9,52.5,94.2,52.5L94.2,52.5z"/>
		</g>
	</g>
	<g>
		<g>
			<path class="st0" d="M98.7,48.7c1.2-3,2.5-6.1,3.8-9.1c0.1-0.2,0.2-0.4,0.2-0.5c0.1-0.3,0.2-0.4,0.4-0.3c0.4,0,0.9,0.4,1.2,0.5
				c0.7,0.3,1.4,0.6,2.1,0.9c1.5,0.6,3.1,1.3,4.6,1.9c0.3,0.1,0.4-0.4,0.1-0.5c-1.8-0.7-3.6-1.5-5.3-2.2c-0.9-0.4-1.9-1-2.8-1.2
				c-0.2,0-0.4-0.1-0.5,0.1c-0.3,0.2-0.4,0.7-0.4,1c-0.2,0.4-0.3,0.7-0.4,1.1c-0.4,1-0.8,1.9-1.2,2.9c-0.7,1.8-1.5,3.6-2.2,5.4
				C98.1,48.8,98.6,49,98.7,48.7L98.7,48.7z"/>
		</g>
	</g>
	<g>
		<g>
			<path class="st0" d="M103,38.4c-0.8-2.3-1.6-4.6-2.4-6.8c-0.1,0.1-0.2,0.2-0.4,0.3c2.6,1.2,5.1,2.5,7.7,3.7
				c0.3,0.1,0.5-0.3,0.3-0.4c-2.6-1.2-5.1-2.5-7.7-3.7c-0.2-0.1-0.4,0.1-0.4,0.3c0.8,2.3,1.6,4.6,2.4,6.8
				C102.6,38.8,103.1,38.7,103,38.4L103,38.4z"/>
		</g>
	</g>
	<g>
		<g>
			<path class="st0" d="M107.6,35.3c1.4,2.1,2.6,4.3,3.6,6.6c0.1,0.3,0.5,0,0.4-0.3c-1-2.3-2.2-4.5-3.6-6.6
				C107.9,34.8,107.5,35,107.6,35.3L107.6,35.3z"/>
		</g>
	</g>
	<g>
		<g>
			<path class="st0" d="M99.9,31.6c-1.1,2.5-2.3,5-3.4,7.5c-1.1,2.4-2.1,4.8-3.5,7.1c-0.2,0.3,0.3,0.5,0.4,0.3
				c1.3-2.3,2.4-4.7,3.5-7.1c1.1-2.5,2.3-5,3.4-7.5C100.5,31.6,100.1,31.3,99.9,31.6L99.9,31.6z"/>
		</g>
	</g>
	<g>
		<g>
			<path class="st0" d="M98.3,35.3c0.6,1.3,1.1,2.5,1.7,3.8c0.4,0.8,0.6,2,1.4,2.4c1.2,0.6,2.6,0.8,3.8,1.2c1.3,0.4,2.6,0.8,3.9,1.2
				c0.3,0.1,0.4-0.4,0.1-0.5c-2.3-0.7-4.5-1.4-6.8-2.1c-0.8-0.2-1.2-0.6-1.6-1.3c-0.2-0.5-0.5-1-0.7-1.6c-0.5-1.2-1-2.3-1.6-3.5
				C98.6,34.7,98.2,35,98.3,35.3L98.3,35.3z"/>
		</g>
	</g>
	<g>
		<g>
			<path class="st0" d="M93.1,41.3c0.9-0.1,1.7-0.1,2.6,0.1c0.3,0.1,0.4-0.4,0.1-0.5c-1-0.2-1.9-0.3-2.9-0.1
				C92.7,40.9,92.8,41.4,93.1,41.3L93.1,41.3z"/>
		</g>
	</g>
	<g>
		<g>
			<path class="st0" d="M94.1,36.9c1.1-0.1,2.2-0.1,3.3,0c0.3,0,0.3-0.5,0-0.5c-1.1-0.1-2.2-0.1-3.3,0C93.7,36.5,93.7,37,94.1,36.9
				L94.1,36.9z"/>
		</g>
	</g>
	<g>
		<g>
			<path class="st0" d="M104.2,46.9c0.7-1.2,1.3-2.4,1.9-3.7c0.4-0.9,1.2-2.1,1.1-3.1c-0.1-1-0.9-1.9-1.3-2.8
				c-0.6-1.3-1.1-2.6-1.3-4c-0.1-0.3-0.5-0.2-0.5,0.1c0.2,1.1,0.6,2.2,1,3.2c0.4,0.9,0.9,1.7,1.3,2.6c0.7,1.4-0.3,2.8-0.9,4.1
				c-0.5,1.1-1.1,2.2-1.7,3.3C103.7,46.9,104.1,47.2,104.2,46.9L104.2,46.9z"/>
		</g>
	</g>
	<g>
		<g>
			<path class="st0" d="M94.8,48.7c2-2.9,3.8-5.9,5.2-9.2c0.3-0.7,0.6-1.4,0.9-2.1c0.7-1.2,1.7-1.5,3-1.2c1.8,0.5,3.6,1.4,5.3,2.2
				c0.3,0.1,0.5-0.3,0.3-0.4c-1.8-0.9-3.8-1.9-5.8-2.3c-1.6-0.3-2.7,0.3-3.4,1.7c-0.9,1.8-1.6,3.7-2.6,5.5c-1,1.9-2.2,3.8-3.5,5.5
				C94.2,48.7,94.6,48.9,94.8,48.7L94.8,48.7z"/>
		</g>
	</g>
	<g>
		<g>
			<path class="st0" d="M104.8,35.7c-0.5,0.2-1.4-0.4-1.8-0.8c-0.3-0.3-0.5-0.6-0.6-1c0-0.2,0-0.4,0-0.6c0.3-0.2,0.6-0.4,1-0.6
				c0.4,0,0.8,0.7,0.9,1c0.1,0.3,0.2,0.5,0.2,0.8C104.6,34.9,104.7,35.4,104.8,35.7c0.7,1.4,2.4,1.9,3.6,1.1c0.7-0.4,2-1.9,0.7-2.4
				c-1.6-0.6-3.4,0.2-4.5,1.3c0.1,0.1,0.3,0.2,0.4,0.3c0.5-1.2,1-2.5,0.9-3.9c-0.2-1.2-0.2-2.2,1.1-2.8c0.9-0.4,2-0.3,3-0.1
				c0.3,0,0.4-0.4,0.1-0.5c-1.5-0.2-3.5-0.4-4.5,1.1c-0.4,0.6-0.4,1.2-0.3,2c0.2,1.5-0.2,2.7-0.7,4c-0.1,0.2,0.2,0.5,0.4,0.3
				c0.8-0.8,1.8-1.3,3-1.3c0.2,0,0.8-0.1,0.9,0.1c0.4,0.4,0,0.9-0.2,1.1c-0.4,0.4-1,0.7-1.6,0.7c-2.5,0-1.4-3.4-3.2-4.3
				c-1.1-0.5-2,0.5-1.9,1.6c0.1,1.1,1.9,2.6,3,2.2C105.2,36.1,105.1,35.6,104.8,35.7L104.8,35.7z"/>
		</g>
	</g>
	<g>
		<g>
			<path class="st0" d="M105.1,35.4c0.2-1.3,0.7-2.5,1.6-3.5c0.4-0.4,0.9-0.8,1.6-0.9c0.4,0,0.9,0.1,1.2,0.4
				c0.4,0.5,0.4,1.3-0.4,1.6c0.1,0.1,0.2,0.1,0.3,0.2c-0.3-1.5,1.9-1.9,2.1-0.3c0,0.2,0.3,0.2,0.4,0.1c0.3,0.2,0.6,0.4,1,0.5
				c-0.1,0.3,0.3,0.5,0.4,0.3c0.6-1.3-1-2.2-1.8-1c0.2,0,0.3,0,0.4,0.1c-0.4-2.2-3.5-1.6-3.1,0.6c0,0.1,0.2,0.2,0.3,0.2
				c1.7-0.6,1-2.7-0.6-2.9c-2.4-0.2-3.6,2.9-4,4.7C104.5,35.6,105,35.7,105.1,35.4L105.1,35.4z"/>
		</g>
	</g>
	<g>
		<g>
			<path class="st0" d="M93.5,37.5c0.3,0.2,0.7,0.3,0.9,0.6c0.2,0.2,0.3,0.4,0.3,0.7c-0.4,0.6-0.2,0.7,0.5,0.1
				c0.1,0.1,0.4,0.1,0.4-0.1c0.3-0.9,1-1.5,1.9-1.6c0.3,0,0.3-0.5,0-0.5c-1.2,0.1-2,0.8-2.4,1.9c0.1,0,0.3-0.1,0.4-0.1
				c-0.9-0.9-2.1,0.3-1.3,1.2c0.1,0.1,0.2,0.1,0.2,0.1c0.5-0.2,0.8-0.7,0.7-1.2c-0.1-0.8-0.9-1.2-1.5-1.5
				C93.5,37,93.2,37.4,93.5,37.5L93.5,37.5z"/>
		</g>
	</g>
	<g>
		<g>
			<path class="st0" d="M93.8,39.1c-0.2,0.3-0.4,0.4-0.8,0.5c-0.3,0-0.3,0.5,0,0.5c0.5,0,0.9-0.3,1.2-0.7
				C94.4,39.1,94,38.8,93.8,39.1L93.8,39.1z"/>
		</g>
	</g>
	<g>
		<g>
			<path class="st0" d="M95,39.3c0.1,0.3,0.3,0.6,0.7,0.5c0.3,0,0.6-0.3,0.5-0.6c0-0.1-0.2-0.2-0.3-0.2c-0.1,0-0.2,0.2-0.2,0.3
				c0,0.1,0,0,0,0c0,0,0,0-0.1,0c-0.1,0-0.2-0.2-0.2-0.3C95.3,38.8,94.9,39.1,95,39.3L95,39.3z"/>
		</g>
	</g>
	<g>
		<g>
			<path class="st0" d="M95.3,37.8c-0.4-1.2,0.4-2.5,1.7-2.7c-0.1-0.1-0.2-0.2-0.2-0.3c-0.1,0.1-0.3,0.3-0.4,0.4
				c0.1,0.1,0.2,0.2,0.3,0.2c0.1-0.8,0.5-1.5,0.7-2.1c0.2,0,0.3,0,0.5,0c-0.3-0.9,0.3-1.9,1.3-2c0.2,0,0.3-0.1,0.2-0.3
				c-0.1-0.6,0.1-1,0.5-1.4c0.2-0.2-0.1-0.6-0.4-0.4c-0.5,0.5-0.7,1.2-0.6,1.9c0.1-0.1,0.2-0.2,0.2-0.3c-1.3,0.1-2.2,1.4-1.8,2.6
				c0.1,0.2,0.4,0.2,0.5,0c0.1-0.4,0-0.6-0.4-0.7c-0.1,0-0.2,0-0.3,0.1c-0.5,0.8-0.9,1.6-1,2.6c0,0.2,0.2,0.3,0.3,0.2
				c0.4-0.1,0.6-0.3,0.7-0.7c0-0.1-0.1-0.3-0.2-0.3c-1.6,0.2-2.6,1.8-2.2,3.3C94.9,38.2,95.4,38.1,95.3,37.8L95.3,37.8z"/>
		</g>
	</g>
	<g>
		<g>
			<path class="st0" d="M95,50.9c2-0.1,4-0.4,5.9-1c0.3-0.1,0.2-0.6-0.1-0.5c-1.9,0.6-3.8,0.9-5.8,1C94.7,50.4,94.7,50.9,95,50.9
				L95,50.9z"/>
		</g>
	</g>
	<g>
		<g>
			<path class="st0" d="M105.3,49.1c1.5-0.5,3-1.1,4.4-1.7c0.9-0.4,1.8-1,2-2.1c-0.1,0-0.3,0.1-0.4,0.1c0.6,0.5,1.4,1.3,0.3,2
				c-0.5,0.3-1.3,0.4-1.9,0.6c-1.4,0.4-2.8,0.7-4.2,0.8c-0.3,0-0.3,0.5,0,0.5c2.2-0.3,4.4-0.7,6.4-1.5c0.4-0.2,1-0.3,1-0.9
				c0-0.7-0.7-1.4-1.2-1.8c-0.1-0.1-0.4-0.1-0.4,0.1c-0.3,1.2-1.5,1.7-2.5,2.1c-1.2,0.5-2.3,0.9-3.5,1.4
				C104.9,48.8,105,49.2,105.3,49.1L105.3,49.1z"/>
		</g>
	</g>
	<g>
		<g>
			<path class="st0" d="M100.5,49.8c0.1,0.3,0.1,0.5,0.2,0.8c0.1-0.1,0.1-0.2,0.2-0.3c-2,0.5-3.9,0.8-6,1c0.1,0.1,0.2,0.2,0.2,0.3
				c0.1-0.2,0.1-0.4,0.2-0.6c0.1-0.3-0.4-0.4-0.5-0.1c-0.1,0.2-0.1,0.4-0.2,0.6c0,0.1,0.1,0.3,0.2,0.3c2.1-0.1,4.1-0.4,6.1-1
				c0.1,0,0.2-0.2,0.2-0.3c-0.1-0.3-0.1-0.5-0.2-0.8C100.9,49.4,100.4,49.5,100.5,49.8L100.5,49.8z"/>
		</g>
	</g>
	<g>
		<g>
			<path class="st0" d="M100.9,49.4c0.5,0,0.8,0.8,0.4,1.1c-0.2,0.2,0.1,0.5,0.4,0.4c0.7-0.6,0.2-1.9-0.7-1.9
				C100.6,48.9,100.6,49.4,100.9,49.4L100.9,49.4z"/>
		</g>
	</g>
	<g>
		<g>
			<path class="st0" d="M104.1,47.9c-0.6,0.1-1.1,0.7-1.1,1.4s0.7,1.1,1.3,1.1c0.3,0,0.3-0.5,0-0.5c-0.4,0-0.8-0.3-0.8-0.7
				s0.3-0.8,0.7-0.8C104.6,48.3,104.5,47.8,104.1,47.9L104.1,47.9z"/>
		</g>
	</g>
	<g>
		<g>
			<path class="st0" d="M111.4,45c0.9,0,1.6,0.7,1.5,1.6c0,0.3,0.5,0.3,0.5,0c0-1.1-0.9-2.1-2-2.1C111.1,44.5,111.1,45,111.4,45
				L111.4,45z"/>
		</g>
	</g>
	<g>
		<g>
			<path class="st0" d="M104.6,35.3c0-0.4-0.1-0.9-0.4-1.3c-0.2-0.3-0.6-0.7-1-0.5c-0.9,0.5,0.6,1.7,0.9,2c0.2,0.2,0.6-0.1,0.4-0.4
				c-0.2-0.2-0.4-0.4-0.6-0.6c-0.1-0.1-0.5-0.4-0.4-0.6c0.1-0.2,0.5,0.5,0.5,0.5c0.1,0.2,0.2,0.5,0.2,0.8
				C104.2,35.6,104.7,35.6,104.6,35.3L104.6,35.3z"/>
		</g>
	</g>
	<g>
		<g>
			<path class="st0" d="M105.8,36c0.5-0.2,1-0.1,1.5,0.2c0-0.1,0-0.3,0-0.4c-0.5,0.3-1.2,0.2-1.6-0.2c-0.2-0.2-0.6,0.1-0.4,0.4
				c0.6,0.6,1.4,0.7,2.2,0.3c0.2-0.1,0.1-0.3,0-0.4c-0.5-0.4-1.2-0.5-1.8-0.3C105.4,35.6,105.5,36.1,105.8,36L105.8,36z"/>
		</g>
	</g>
	<g>
		<g>
			<path class="st0" d="M25.8,73.6c-0.2-0.4-0.5-0.9-0.8-1.2c0,0.1,0,0.2,0,0.4c0.3-0.3,0.6-0.6,0.9-0.9c-0.1,0-0.3,0-0.4-0.1
				c0.3,0.4,0.5,0.8,0.7,1.2c0.2,0.3,0.6,0,0.4-0.3c-0.3-0.4-0.5-0.8-0.7-1.2c-0.1-0.1-0.3-0.2-0.4-0.1c-0.3,0.3-0.6,0.6-0.9,0.9
				c-0.1,0.1-0.1,0.3,0,0.4c0.3,0.4,0.5,0.7,0.7,1.2C25.5,74.1,26,73.9,25.8,73.6L25.8,73.6z"/>
		</g>
	</g>
	<g>
		<g>
			<path class="st0" d="M16.6,66.2c0.7-3.2,3.6-5.5,6.9-5.3c0.3,0,0.3-0.5,0-0.5c-3.5-0.2-6.7,2.3-7.4,5.7
				C16,66.4,16.5,66.5,16.6,66.2L16.6,66.2z"/>
		</g>
	</g>
	<g>
		<g>
			<path class="st0" d="M18.5,67.1c3,0.3,2.7,6.6,6.4,5.4c0.3-0.1,0.2-0.6-0.1-0.5c-2.2,0.7-2.9-2.1-3.7-3.5c-0.6-1-1.3-1.7-2.5-1.9
				C18.2,66.6,18.2,67.1,18.5,67.1L18.5,67.1z"/>
		</g>
	</g>
	<g>
		<g>
			<path class="st0" d="M25.5,72c0.8-0.5,1.1-1.4,0.8-2.2c-0.1-0.3-0.6-0.2-0.5,0.1c0.2,0.6-0.1,1.3-0.6,1.7
				C25,71.8,25.2,72.2,25.5,72L25.5,72z"/>
		</g>
	</g>
	<g>
		<g>
			<path class="st0" d="M25.8,68.6c-1.4-1.6-2-3.6-1.9-5.6c0-0.3-0.5-0.3-0.5,0c-0.1,2.2,0.6,4.3,2,6C25.7,69.2,26,68.9,25.8,68.6
				L25.8,68.6z"/>
		</g>
	</g>
	<g>
		<g>
			<path class="st0" d="M16.1,65.9c-0.7,0.6-0.3,1.7,0.6,1.9c1.7,0.3,2.6-2,3.6-2.9c0.7-0.7,1.6-1.2,2.6-1.6
				c0.5-0.2,1.6-0.2,1.9-0.7c0.6-0.8-0.5-2.1-1.3-2.1c-0.3,0-0.3,0.5,0,0.5c0.3,0,1,0.5,0.9,0.9c0,0.4-0.3,0.5-0.6,0.6
				c-0.4,0.2-0.8,0.2-1.1,0.4c-0.7,0.3-1.4,0.7-2,1.1c-0.6,0.4-1.1,0.9-1.6,1.5c-0.2,0.3-0.4,0.5-0.6,0.8c-0.2,0.3-0.4,0.6-0.7,0.8
				c-0.1,0.2-0.3,0.3-0.5,0.3c-0.5,0.3-0.8,0-0.8-1C16.7,66,16.3,65.7,16.1,65.9L16.1,65.9z"/>
		</g>
	</g>
	<g>
		<g>
			<path class="st0" d="M27.9,79.4c0.2,0.2,0.4,0.5,0.5,0.7c0.2,0.2,0.3,0.5,0.5,0.6c0.3,0.3,0.8,0.2,1.1-0.1c0.3-0.2,0-0.6-0.3-0.4
				c-0.2,0.1-0.4,0.2-0.5,0.1c-0.1-0.1-0.2-0.3-0.3-0.4c-0.2-0.3-0.4-0.5-0.6-0.8C28.1,78.9,27.7,79.2,27.9,79.4L27.9,79.4z"/>
		</g>
	</g>
	<g>
		<g>
			<path class="st0" d="M79.5,76.2c-1.3-3.5-1.2-7.6,1.6-10.4c2.8-2.8,7.2-2.2,10.8-2.3c0.3,0,0.3-0.5,0-0.5
				c-3.9,0.1-8.4-0.5-11.4,2.7c-2.7,2.9-2.8,7.1-1.5,10.6C79.2,76.6,79.6,76.5,79.5,76.2L79.5,76.2z"/>
		</g>
	</g>
	<g>
		<g>
			<path class="st0" d="M85.9,65.6c2.3,0.2,4.6-0.2,6.6-1.3c0.3-0.2,0-0.6-0.3-0.4c-2,1.1-4.1,1.5-6.4,1.2
				C85.6,65.1,85.6,65.6,85.9,65.6L85.9,65.6z"/>
		</g>
	</g>
	<g>
		<g>
			<path class="st0" d="M93.7,74.9c-0.3,0.4,0.3,0.7,0.6,0.4c0.4-0.4,0.4-1.2,0.5-1.7c0.1-0.6,0.1-1.3,0.1-1.9c0-0.3-0.5-0.3-0.5,0
				c0,0.6,0,1.2-0.1,1.8c0,0.3-0.1,0.5-0.2,0.8c0,0.1-0.1,0.2-0.1,0.3c-0.1,0.2-0.1,0.5,0,0.7C94.2,74.8,93.8,74.6,93.7,74.9
				L93.7,74.9z"/>
		</g>
	</g>
	<g>
		<g>
			<path class="st0" d="M94.4,77.6c0.6-1.3,1.1-2.6,1.4-3.9c0.1-0.3-0.4-0.4-0.5-0.1c-0.4,1.3-0.8,2.6-1.4,3.8
				C93.9,77.6,94.3,77.9,94.4,77.6L94.4,77.6z"/>
		</g>
	</g>
	<g>
		<g>
			<path class="st0" d="M85.6,65.3c-0.1-0.1-0.3-0.1-0.4-0.2c-0.1-0.1-0.3,0-0.3,0.1c-0.1,0.1,0,0.3,0.1,0.3
				c0.1,0.1,0.3,0.1,0.4,0.2c0.1,0.1,0.3,0,0.3-0.1C85.7,65.6,85.7,65.4,85.6,65.3L85.6,65.3z"/>
		</g>
	</g>
	<g>
		<g>
			<path class="st0" d="M44.8,41.7c-0.8,0.5-0.6,1.7,0.2,2.2c0.6,0.4,1.5,0.2,2.1,0c1.1-0.3,2.1-0.5,3.2-0.8
				c0.3-0.1,0.2-0.5-0.1-0.5c-0.8,0.2-1.7,0.4-2.5,0.6c-0.4,0.1-0.7,0.2-1.1,0.3c-0.4,0.1-0.7,0.1-1.1,0c-0.7-0.3-0.9-0.8-0.4-1.4
				C45.4,42,45.1,41.6,44.8,41.7L44.8,41.7z"/>
		</g>
	</g>
	<g>
		<g>
			<path class="st0" d="M31.3,46.3c-0.5,0.1-0.6,0.8-0.2,1c0.4,0.2,1-0.1,1.3-0.2c0.7-0.3,1.3-0.5,2-0.8c0.3-0.1,0.2-0.6-0.1-0.5
				c-0.5,0.2-0.9,0.4-1.4,0.6c-0.2,0.1-0.4,0.2-0.7,0.3c-0.1,0-0.2,0.1-0.3,0.1c-0.2,0.1-0.4,0.1-0.6,0
				C31.6,46.7,31.6,46.2,31.3,46.3L31.3,46.3z"/>
		</g>
	</g>
	<g>
		<g>
			<path class="st0" d="M35.4,45.6c2.2-1.9,5-2.8,7.9-2.5c0.3,0,0.3-0.5,0-0.5c-3-0.2-5.9,0.7-8.2,2.7
				C34.9,45.4,35.2,45.8,35.4,45.6L35.4,45.6z"/>
		</g>
	</g>
	<g>
		<g>
			<path class="st0" d="M58.1,21.2c3,1,5.8,2.5,8.3,4.4c0.3,0.2,0.5-0.2,0.3-0.4c-2.6-1.9-5.4-3.4-8.4-4.4
				C57.9,20.6,57.8,21.1,58.1,21.2L58.1,21.2z"/>
		</g>
	</g>
	<g>
		<g>
			<path class="st0" d="M59.8,22.8c0.7,0.1,1.3,0.4,1.9,0.8c0.3,0.2,0.5-0.2,0.3-0.4c-0.6-0.4-1.3-0.7-2-0.9
				C59.7,22.3,59.5,22.8,59.8,22.8L59.8,22.8z"/>
		</g>
	</g>
	<g>
		<g>
			<path class="st0" d="M119.2,79.7c-1.4,2.4-2.6,4.9-3.7,7.4c-0.1,0.3,0.3,0.5,0.4,0.3c1.1-2.5,2.3-5,3.7-7.4
				C119.7,79.6,119.3,79.4,119.2,79.7L119.2,79.7z"/>
		</g>
	</g>
	<g>
		<g>
			<path class="st0" d="M116.7,80.7c-0.3,1-0.8,1.9-1.4,2.7c-0.2,0.3,0.2,0.5,0.4,0.3c0.6-0.8,1.1-1.8,1.4-2.8
				C117.3,80.5,116.8,80.4,116.7,80.7L116.7,80.7z"/>
		</g>
	</g>
	<g>
		<g>
			<path class="st0" d="M97.8,53.7c3.3,0,6.5-0.7,9.5-2c0.3-0.1,0-0.5-0.3-0.4c-2.9,1.3-6,1.9-9.2,2C97.4,53.2,97.4,53.7,97.8,53.7
				L97.8,53.7z"/>
		</g>
	</g>
	<g>
		<g>
			<path class="st0" d="M100.8,55.3c1.2-0.3,2.5-0.7,3.7-1c0.3-0.1,0.2-0.5-0.1-0.5c-1.2,0.3-2.5,0.7-3.7,1
				C100.3,54.9,100.5,55.4,100.8,55.3L100.8,55.3z"/>
		</g>
	</g>
	<g>
		<g>
			<path class="st0" d="M45.9,30.7c2.2-0.7,4.4-0.9,6.7-0.6c0.3,0,0.4-0.4,0.1-0.5c-2.4-0.3-4.7-0.1-7,0.6
				C45.5,30.3,45.6,30.8,45.9,30.7L45.9,30.7z"/>
		</g>
	</g>
	<g>
		<g>
			<path class="st0" d="M31.8,34.5c1-0.9,2.2-1.5,3.6-1.7c0.3,0,0.2-0.5-0.1-0.5c-1.4,0.2-2.7,0.8-3.8,1.8
				C31.2,34.4,31.5,34.7,31.8,34.5L31.8,34.5z"/>
		</g>
	</g>
	<g>
		<g>
			<path class="st0" d="M17.4,66.8c0.8-1.5,2-2.6,3.4-3.4c0.3-0.2,0-0.6-0.3-0.4c-1.5,0.8-2.8,2.1-3.6,3.6
				C16.8,66.9,17.2,67.1,17.4,66.8L17.4,66.8z"/>
		</g>
	</g>
	<g>
		<g>
			<path class="st0" d="M23.6,71.4c0.4,0.5,1.2,0.3,1.2-0.3c0-0.1-0.1-0.2-0.2-0.2c-0.1,0-0.2,0.1-0.2,0.2c0,0.1-0.3,0.2-0.3,0.1
				C23.9,71,23.8,71,23.7,71C23.6,71.1,23.5,71.2,23.6,71.4L23.6,71.4z"/>
		</g>
	</g>
	<g>
		<g>
			<path class="st0" d="M44.6,118.5c-0.4,0.4-0.1,1.1,0.4,1.3c0.7,0.3,1.3-0.4,1.6-0.8c0.2-0.2-0.2-0.6-0.4-0.4
				c-0.2,0.3-0.5,0.6-0.8,0.7c-0.2,0-0.3,0-0.4-0.1c-0.1-0.1-0.2-0.3-0.1-0.4C45.1,118.6,44.8,118.3,44.6,118.5L44.6,118.5z"/>
		</g>
	</g>
	<g>
		<g>
			<path class="st0" d="M64.7,121.5c-0.2-0.1-0.4-0.1-0.6,0c-0.2,0.1-0.3,0.4-0.2,0.6c0.4,0.5,0.9,0.8,1.4,1
				c0.3,0.1,0.4-0.4,0.1-0.5c-0.5-0.2-0.9-0.4-1.2-0.8c0,0.1,0,0.1,0,0.2c0-0.1,0.1-0.1,0.2-0.1C64.7,122.1,65,121.7,64.7,121.5
				L64.7,121.5z"/>
		</g>
	</g>
	<g>
		<g>
			<path class="st0" d="M83.5,126.5c1.1,0.2,2.2-0.7,2.2-1.9c0-0.3-0.5-0.3-0.5,0c0,0.8-0.8,1.5-1.6,1.4
				C83.3,126,83.2,126.5,83.5,126.5L83.5,126.5z"/>
		</g>
	</g>
	<g>
		<g>
			<path class="st0" d="M80.8,114c0.9-0.1,1.7,0,2.6,0.1c0-0.1-0.1-0.3-0.1-0.4c-1.1,0.9-1.5,2.2-1.2,3.6c0.1,0.3,0.5,0.2,0.5-0.1
				c-0.3-1.2,0.1-2.3,1-3.1c0.1-0.1,0.1-0.4-0.1-0.4c-0.9-0.2-1.8-0.2-2.7-0.2C80.5,113.6,80.5,114,80.8,114L80.8,114z"/>
		</g>
	</g>
	<g>
		<g>
			<path class="st0" d="M47.1,109.3c0.7,0.4,1.4,0.7,2.1,1.1c0-0.2,0-0.3,0.1-0.4c-0.2,0.1-0.4,0.1-0.5,0.2
				c-0.1,0.1-0.2,0.2-0.2,0.3c0,0.3,0.2,0.6,0.5,0.7c0.3,0.2,0.5-0.3,0.3-0.4c-0.2-0.1-0.3-0.3-0.3-0.4c-0.1,0.1-0.1,0.2-0.2,0.3
				c0.2-0.1,0.4-0.1,0.5-0.2s0.3-0.4,0.1-0.4c-0.7-0.4-1.4-0.7-2.1-1.1C47,108.8,46.8,109.2,47.1,109.3L47.1,109.3z"/>
		</g>
	</g>
	<g>
		<g>
			<path class="st0" d="M96.2,107.6c-0.6,0.6-0.8,1.5-0.5,2.4c0.1,0.3,0.6,0.2,0.5-0.1c-0.3-0.7-0.1-1.4,0.4-1.9
				C96.8,107.7,96.5,107.3,96.2,107.6L96.2,107.6z"/>
		</g>
	</g>
	<g>
		<g>
			<path class="st0" d="M99.6,109.3c0.3-0.1,0.5-0.1,0.8-0.2c0.3-0.1,0.2-0.5-0.1-0.5c-0.3,0.1-0.5,0.1-0.8,0.2
				C99.1,108.9,99.3,109.4,99.6,109.3L99.6,109.3z"/>
		</g>
	</g>
	<g>
		<g>
			<path class="st0" d="M78.9,22.8c2.3-1.9,4.6-3.8,6.8-5.7c1.1-0.9,2.2-1.7,3.7-1.7c1.5,0.1,3.1,0.6,4.6,1c0.7,0.2,1.4,0.3,2.1,0.5
				c0.8,0.2,1.7,0.2,2.1,1.1c0.2,0.6,0.3,1.4,0.4,2c0.1,0.8,0.3,1.5,0.4,2.3c0.5,2.9,1.1,5.9,1.6,8.8c0.1,0.3,0.5,0.2,0.5-0.1
				c-0.6-3.4-1.2-6.9-1.9-10.3c-0.2-0.8-0.3-1.7-0.4-2.5c-0.1-0.4-0.2-0.9-0.5-1.2c-0.4-0.3-1.1-0.4-1.6-0.5
				c-0.8-0.2-1.6-0.4-2.5-0.6c-1.5-0.4-3.1-0.9-4.7-1c-1.2-0.1-2.3,0.5-3.3,1.2c-2.6,2-5.1,4.2-7.6,6.3C78.3,22.7,78.7,23,78.9,22.8
				L78.9,22.8z"/>
		</g>
	</g>
	<g>
		<g>
			<path class="st0" d="M87.8,15.5c0.6,2.7,1.1,5.3,1.7,8c0.1,0.3,0.5,0.2,0.5-0.1c-0.6-2.7-1.1-5.3-1.7-8
				C88.2,15,87.7,15.2,87.8,15.5L87.8,15.5z"/>
		</g>
	</g>
	<g>
		<g>
			<path class="st0" d="M100.2,25.5c0.8,0.2,1.5,0.4,2.3,0.7c0.5,0.2,2,0.3,2.2,1c0,0.2-0.2,0.9-0.3,1.1c-0.1,0.4-0.2,0.8-0.3,1.1
				c-0.2,0.9-0.4,1.8-0.6,2.6c-0.1,0.3,0.4,0.4,0.5,0.1c0.3-1.1,0.5-2.1,0.8-3.2c0.1-0.6,0.7-1.8,0.4-2.4c-0.3-0.5-1.1-0.5-1.6-0.7
				c-1.1-0.3-2.1-0.6-3.2-1C100,25,99.9,25.4,100.2,25.5L100.2,25.5z"/>
		</g>
	</g>
	<g>
		<g>
			<path class="st0" d="M80.5,24.2c1.3-0.9,2.6-1.8,3.9-2.7c1.2-0.8,2.4-1.7,3.7-2.4c1.6-0.8,3.6,0.1,5.2,0.5
				c1.6,0.4,3.3,0.8,4.9,1.2c0.3,0.1,0.4-0.4,0.1-0.5c-1.8-0.4-3.5-0.9-5.3-1.3c-1.4-0.3-3.2-1.1-4.6-0.6c-1.4,0.4-2.7,1.5-3.9,2.3
				c-1.5,1-2.9,2-4.3,3C80,24,80.3,24.4,80.5,24.2L80.5,24.2z"/>
		</g>
	</g>
	<g>
		<g>
			<path class="st0" d="M80.2,20.5c-0.4-0.1-0.9-0.2-1.3-0.5C78,19.5,78.2,18.5,79,18c0.8-0.5,1.9-0.5,2.7-1.2
				c0.7-0.5,0.9-1.4,1.4-2.1c0.5-0.7,1.8-1.8,2.4-0.4c0.3,0.7-0.1,1.6-0.4,2.2c-0.1,0.3,0.3,0.5,0.4,0.3c0.5-1.1,1.1-2.9-0.3-3.5
				c-1.6-0.7-2.5,1.4-3.2,2.5c-0.7,1-1.7,1.1-2.7,1.6c-0.6,0.3-1.2,0.7-1.4,1.4c-0.4,1.4,1.2,2.1,2.3,2.3
				C80.4,21.1,80.6,20.6,80.2,20.5L80.2,20.5z"/>
		</g>
	</g>
	<g>
		<g>
			<path class="st0" d="M86.6,13.6c-0.3-1.2,1.4-0.8,1.9-0.6c0.3,0.1,0.5,0.3,0.8,0.4c0.5,0.2,1.1,0.3,1.7,0.2
				c0.7-0.1,1.5-0.3,2.2-0.3c0.9,0,2.9,0.9,1.7,2.1c-0.2,0.2,0.1,0.6,0.4,0.4c0.6-0.6,0.5-1.5,0-2.2c-0.8-0.9-2-0.8-3.1-0.6
				c-1.2,0.2-2,0.3-3.2-0.3c-0.5-0.2-1-0.5-1.5-0.5c-0.8,0-1.5,0.7-1.3,1.5C86.2,14,86.6,13.9,86.6,13.6L86.6,13.6z"/>
		</g>
	</g>
	<g>
		<g>
			<path class="st0" d="M86.2,14.2c0.1-0.1,0.1-0.1,0.2-0.2c0.2-0.2-0.1-0.6-0.4-0.4c-0.1,0.1-0.1,0.1-0.2,0.2
				C85.7,14.1,86,14.4,86.2,14.2L86.2,14.2z"/>
		</g>
	</g>
	<g>
		<g>
			<path class="st0" d="M83.8,17.9c-0.4-0.1-0.8-0.3-1.1-0.6c-0.2-0.2-0.6,0.1-0.4,0.4c0.4,0.3,0.8,0.6,1.3,0.7
				C83.9,18.5,84.1,18,83.8,17.9L83.8,17.9z"/>
		</g>
	</g>
	<g>
		<g>
			<path class="st0" d="M82.6,18.7c-0.5-0.1-1,0.1-1.4,0.4c-0.2,0.2,0.1,0.6,0.4,0.4c0.3-0.3,0.6-0.4,0.9-0.3
				C82.8,19.2,82.9,18.7,82.6,18.7L82.6,18.7z"/>
		</g>
	</g>
	<g>
		<g>
			<path class="st0" d="M91.2,15.2c0.2-0.3,0.4-0.5,0.6-0.8c0.2-0.3-0.2-0.5-0.4-0.3c-0.2,0.3-0.4,0.5-0.6,0.8
				C90.6,15.2,91,15.4,91.2,15.2L91.2,15.2z"/>
		</g>
	</g>
	<g>
		<g>
			<path class="st0" d="M92.1,15.1c0.6-0.1,1.1-0.3,1.5-0.7c0.2-0.2-0.1-0.5-0.4-0.4c-0.3,0.3-0.7,0.5-1.2,0.5
				C91.8,14.6,91.8,15.1,92.1,15.1L92.1,15.1z"/>
		</g>
	</g>
	<g>
		<g>
			<path class="st0" d="M92.4,16.2c0.4,2.9,1.9,5.4,3.1,8c0.7,1.5,1.3,3.1,1.5,4.8c0.2,1.8,0.1,3.6-0.1,5.4c0,0.3,0.5,0.3,0.5,0
				c0.3-3.2,0.3-6.2-1-9.3c-1.2-2.9-3.1-5.7-3.5-8.9C92.9,15.9,92.4,15.9,92.4,16.2L92.4,16.2z"/>
		</g>
	</g>
	<g>
		<g>
			<path class="st0" d="M93.5,16c-0.3,2.9,0.9,5.6,2,8.2c1.2,2.9,2.4,6.2,0.9,9.2c-0.1,0.3,0.3,0.5,0.4,0.3c3.1-6-3.4-11.7-2.8-17.7
				C94,15.7,93.5,15.7,93.5,16L93.5,16z"/>
		</g>
	</g>
	<g>
		<g>
			<path class="st0" d="M82.9,19.1c1,1.8,1.7,3.6,2.2,5.6c0.1,0.3,0.5,0.2,0.5-0.1c-0.5-2-1.2-3.9-2.2-5.7
				C83.1,18.5,82.7,18.8,82.9,19.1L82.9,19.1z"/>
		</g>
	</g>
	<g>
		<g>
			<path class="st0" d="M83.9,18c-0.1,2.2,0.3,4.4,1.2,6.5c0.1,0.3,0.6,0.2,0.5-0.1c-0.8-2-1.2-4.2-1.2-6.4
				C84.4,17.6,83.9,17.6,83.9,18L83.9,18z"/>
		</g>
	</g>
	<g>
		<g>
			<path class="st0" d="M95.7,48.6c1.1-1.9,2.1-4,3-6c0.8-2,1.2-4.7,2.8-6.3c0.2-0.2-0.1-0.6-0.4-0.4c-1.4,1.5-1.8,3.7-2.5,5.6
				c-0.9,2.4-2,4.7-3.3,6.9C95.1,48.7,95.6,48.9,95.7,48.6L95.7,48.6z"/>
		</g>
	</g>
	<g>
		<g>
			<path class="st0" d="M102.7,47.4c1.1-1.5,2.1-3.1,3.2-4.6c0.8-1.1,1.7-2.4,1.3-3.8c-0.1-0.3-0.6-0.2-0.5,0.1
				c0.5,1.6-1,3.1-1.9,4.4c-0.9,1.2-1.7,2.5-2.6,3.7C102.1,47.4,102.6,47.6,102.7,47.4L102.7,47.4z"/>
		</g>
	</g>
	<g>
		<g>
			<path class="st0" d="M24.2,62.2c-0.4,2.4,1.9,4,2.2,6.2c0,0.3,0.5,0.2,0.5-0.1c-0.3-2.1-2.5-3.7-2.2-5.9
				C24.7,62,24.2,61.9,24.2,62.2L24.2,62.2z"/>
		</g>
	</g>
	<g>
		<g>
			<path class="st0" d="M17.8,67.3c1.2,0.7,2,1.7,2.4,2.9c0.3,0.8,0.5,1.7,1.1,2.3c1,1.1,2.8,1,3.8-0.1c0.2-0.2-0.1-0.6-0.4-0.4
				c-0.7,0.7-1.8,0.9-2.6,0.4c-0.9-0.5-1.1-1.7-1.4-2.6c-0.5-1.4-1.3-2.4-2.6-3.1C17.8,66.8,17.5,67.2,17.8,67.3L17.8,67.3z"/>
		</g>
	</g>
	<g>
		<g>
			<path class="st0" d="M26.1,70.7c-0.1,0,0.9,1.8,1,2c0.2,0.3,0.6,0,0.4-0.3c-0.2-0.4-0.5-0.8-0.7-1.2c-0.2-0.3-0.3-0.7-0.7-0.7
				c-0.5,0-0.4,0.9,0.1,0.7C26.5,71,26.4,70.6,26.1,70.7L26.1,70.7z"/>
		</g>
	</g>
</g>
<g id="Layer_3_2_">
</g>
</svg>
