<?xml version="1.0" encoding="utf-8"?>
<!-- Generator: Adobe Illustrator 24.0.1, SVG Export Plug-In . SVG Version: 6.00 Build 0)  -->
<svg version="1.1" id="Layer_1" xmlns="http://www.w3.org/2000/svg" xmlns:xlink="http://www.w3.org/1999/xlink" x="0px" y="0px"
	 viewBox="0 0 141.7 141.7" style="enable-background:new 0 0 141.7 141.7;" xml:space="preserve">
<style type="text/css">
	.st0{fill:#070707;}
</style>
<g id="Layer_1_1_">
</g>
<g id="Layer_1_2_">
</g>
<g id="Layer_1_3_">
</g>
<g id="Layer_1_4_">
</g>
<g id="Layer_1_5_">
</g>
<g id="Layer_3">
</g>
<g id="Layer_3_1_">
</g>
<g>
	<g>
		<g>
			<path class="st0" d="M109.8,89.9c0.4,0.3,0.8,0.6,1.3,0.9c0.2,0.1,0.4-0.2,0.2-0.3c-0.4-0.2-0.8-0.5-1.2-0.8
				C109.9,89.5,109.6,89.8,109.8,89.9L109.8,89.9z"/>
		</g>
	</g>
</g>
<g>
	<g>
		<g>
			<path class="st0" d="M104.4,74.6c1,3.5,2,7.2,1.9,10.9c0,0.2,0.4,0.2,0.4,0c0.1-3.7-0.8-7.4-1.9-11
				C104.6,74.3,104.3,74.4,104.4,74.6L104.4,74.6z"/>
		</g>
	</g>
</g>
<g>
	<g>
		<g>
			<path class="st0" d="M122.9,53.4c-1.5-1.6-3.5-2.4-5.6-2.7c-2.6-0.3-5,0.5-7.4,1.4c-2,0.7-4,1.4-5.5,2.8
				c-1.6,1.5-2.6,3.7-2.9,5.9c-0.4,3,0.4,6.1,1.2,9c0.1,0.2,0.4,0.1,0.4-0.1c-1.3-4.5-2.5-9.9,0.9-13.8c1.4-1.6,3.3-2.4,5.2-3
				c2.2-0.8,4.4-1.7,6.7-1.7c2.5-0.1,5,0.8,6.7,2.6C122.8,53.8,123.1,53.6,122.9,53.4L122.9,53.4z"/>
		</g>
	</g>
</g>
<g>
	<g>
		<g>
			<path class="st0" d="M113.8,91.8c3.4,1.1,7.3-0.5,10.4-1.8c1.6-0.7,3.1-1.4,4.3-2.5c1.2-1.2,2.1-2.6,2.6-4.3
				c0.1-0.2-0.3-0.3-0.4-0.1c-0.5,1.6-1.4,3.1-2.7,4.2c-1.2,1.1-2.7,1.7-4.2,2.4c-3,1.3-6.7,2.8-10,1.7
				C113.7,91.3,113.6,91.7,113.8,91.8L113.8,91.8z"/>
		</g>
	</g>
</g>
<g>
	<g>
		<g>
			<path class="st0" d="M107.6,53.3c0.2,0,0.2-0.4,0-0.4S107.3,53.3,107.6,53.3L107.6,53.3z"/>
		</g>
	</g>
</g>
<g>
	<g>
		<g>
			<path class="st0" d="M101.6,61.8c-1.9,0.3-3.4-1.4-2.6-3.2c0.6-1.3,2.7-2.6,4-1.7c0.2,0.1,0.4-0.2,0.2-0.3
				c-0.8-0.6-1.9-0.3-2.8,0c-0.9,0.4-1.6,1.2-1.9,2.1c-0.7,2.1,1.2,3.7,3.2,3.4C101.9,62.1,101.8,61.8,101.6,61.8L101.6,61.8z"/>
		</g>
	</g>
</g>
<g>
	<g>
		<g>
			<path class="st0" d="M120.8,52c1.2-1,3.2-1.9,4.5-0.5c1.1,1.2,1,3.4-0.6,4.2c-0.2,0.1,0,0.4,0.2,0.3c1.8-0.8,2-3.2,0.8-4.6
				c-1.4-1.7-3.7-0.9-5.1,0.3C120.4,51.9,120.6,52.1,120.8,52L120.8,52z"/>
		</g>
	</g>
</g>
<g>
	<g>
		<g>
			<path class="st0" d="M112.1,61.6c0-0.2,0-0.2-0.1-0.1c-0.1,0-0.1,0.1-0.2,0.1c-0.1,0-0.1,0.1-0.2,0.2c-0.2,0.2-0.4,0.5-0.5,0.7
				c-0.2,0.4-0.4,0.8-0.2,1.2c0.2,0.5,1,0.6,1.5,0.6c0.8-0.1,1.4-0.8,2.2-1c0.9-0.2,2.7,0.4,2.6-1.2c-0.1-1.2-1.6-1.4-2.6-1.6
				c-0.1,0-0.1,0.2,0,0.2c0.8,0.1,2.6,0.4,2.4,1.6c-0.2,1.1-1.7,0.6-2.6,0.8c-0.9,0.3-2.4,1.7-3.3,0.7c-0.6-0.7,0.5-1.9,1.1-2.2
				c0.1,0,0.1-0.1,0-0.2c-0.1,0-0.1,0-0.2,0C111.9,61.5,112,61.6,112.1,61.6L112.1,61.6z"/>
		</g>
	</g>
</g>
<g>
	<g>
		<g>
			<path class="st0" d="M115.7,63.3c0.3,0.5,0.6,1,0.5,1.6c0,0.3-0.2,0.8-0.6,0.8c-0.4,0-0.6-0.2-0.8-0.5c-0.1-0.1-0.2,0-0.1,0.1
				c0.2,0.2,0.4,0.5,0.7,0.6c0.3,0,0.7-0.1,0.9-0.4c0.5-0.7,0-1.7-0.4-2.3C115.8,63.1,115.6,63.2,115.7,63.3L115.7,63.3z"/>
		</g>
	</g>
</g>
<g>
	<g>
		<g>
			<path class="st0" d="M111.2,90.8c1-0.8,1.9,0.4,2.8,0.8c0-0.1,0-0.1,0-0.2c-1.1,0.5-1.5,2.1-2.7,2.4c-0.4,0.1-1-0.1-1.2-0.5
				c-0.2-0.4,0-0.9,0.2-1.3c0.3-0.6,0.8-1,1.3-1.5c0.1-0.1,0-0.2-0.1-0.1c-0.8,0.7-2.7,2.5-1.1,3.4c1.6,0.9,2.5-1.7,3.7-2.3
				c0.1,0,0.1-0.1,0-0.2c-1-0.4-1.9-1.6-2.9-0.7C111,90.7,111.2,90.9,111.2,90.8L111.2,90.8z"/>
		</g>
	</g>
</g>
<g>
	<g>
		<g>
			<path class="st0" d="M110.6,93.7c-0.3-0.6,0-1.2,0.5-1.6c0.1-0.1,0-0.2-0.1-0.1c-0.5,0.5-0.9,1.2-0.5,1.8
				C110.5,93.9,110.7,93.8,110.6,93.7L110.6,93.7z"/>
		</g>
	</g>
</g>
<g>
	<g>
		<g>
			<path class="st0" d="M133.2,82.3c-0.4,0.2-0.7,0.3-1.2,0.4c-0.3,0.1-0.7,0.2-1.1,0.2c-1.1,0-0.9-1.7-0.3-2.2
				c0.5-0.5,1.2-0.6,1.8-0.5c0.4,0,0.7,0.1,1,0.4C134.2,81.1,133.8,81.9,133.2,82.3c-0.1,0.1,0,0.2,0.1,0.2c0.7-0.5,1.2-1.5,0.4-2.1
				c-0.7-0.6-2-0.6-2.8-0.1c-0.8,0.5-1.1,1.8-0.6,2.6c0.2,0.4,0.4,0.3,0.7,0.2c0.8-0.2,1.6-0.3,2.3-0.7
				C133.4,82.4,133.3,82.3,133.2,82.3z"/>
		</g>
	</g>
</g>
<g>
	<g>
		<g>
			<path class="st0" d="M132.1,81.3c0.6-0.1,1.3-0.1,1.8,0.2c0.1,0.1,0.2-0.1,0.1-0.2c-0.6-0.3-1.3-0.3-2-0.2
				C132,81.1,132,81.3,132.1,81.3L132.1,81.3z"/>
		</g>
	</g>
</g>
<g>
	<g>
		<g>
			<path class="st0" d="M128.3,68.1c0.2,0,0.5-0.1,0.7-0.1c0.6-0.1,1.5,0,1.9,0.5c0.4,0.4,0.8,1.4-0.1,1.6c-0.7,0.2-1.5-0.2-2.1-0.6
				c-0.1-0.1-0.2,0.1-0.1,0.2c0.6,0.4,1.4,0.8,2.2,0.6c0.5-0.1,0.7-0.5,0.6-1c-0.1-0.6-0.5-1.1-1.1-1.4c-0.4-0.1-0.7-0.2-1.1-0.2
				c-0.3,0-0.7,0.2-1,0.2C128.3,68,128.2,68.1,128.3,68.1L128.3,68.1z"/>
		</g>
	</g>
</g>
<g>
	<g>
		<g>
			<path class="st0" d="M130.3,69.4c0.4,0,1,0.2,0.9,0.8c0,0.1,0.1,0.2,0.2,0c0.2-0.7-0.5-1-1.1-1C130.1,69.2,130.1,69.3,130.3,69.4
				L130.3,69.4z"/>
		</g>
	</g>
</g>
<g>
	<path class="st0" d="M117.4,60.2c-2.2,0-4-1.8-4-4s1.8-4,4-4c2.2,0,4,1.8,4,4S119.6,60.2,117.4,60.2z M117.4,52.5
		c-2.1,0-3.7,1.7-3.7,3.7c0,2.1,1.7,3.7,3.7,3.7s3.7-1.7,3.7-3.7C121.1,54.1,119.5,52.5,117.4,52.5z"/>
</g>
<g>
	<path class="st0" d="M108,62.8c-0.7,0-1.4-0.2-2.1-0.6c-0.9-0.6-1.5-1.4-1.8-2.5c-0.2-1-0.1-2.1,0.5-3c0.6-0.9,1.4-1.5,2.5-1.8
		c2.1-0.5,4.3,0.8,4.8,2.9l0,0c0.5,2.1-0.8,4.3-2.9,4.8C108.7,62.8,108.4,62.8,108,62.8z M108,55.1c-0.3,0-0.6,0-0.9,0.1
		c-1,0.2-1.8,0.8-2.3,1.7c-0.5,0.9-0.7,1.9-0.4,2.8c0.2,1,0.8,1.8,1.7,2.3c0.9,0.5,1.9,0.7,2.8,0.4c2-0.5,3.2-2.5,2.8-4.5
		C111.3,56.3,109.7,55.1,108,55.1z"/>
</g>
<g>
	<path class="st0" d="M124.2,53c-0.1-0.4-0.5-0.7-1-0.6s-0.7,0.5-0.6,1c0.1,0.4,0.5,0.7,1,0.6C124,53.9,124.3,53.4,124.2,53z"/>
</g>
<g>
	<circle class="st0" cx="101.3" cy="59.2" r="0.8"/>
</g>
<g>
	<path class="st0" d="M115.2,60.4c-0.1-0.5-1-0.7-1.9-0.5c-0.9,0.2-1.6,0.8-1.5,1.3c0.1,0.5,1,0.7,1.9,0.5
		C114.7,61.5,115.3,60.9,115.2,60.4z"/>
</g>
<g>
	<path class="st0" d="M115.2,55.7c-0.7,0.2-1.1,0.8-0.9,1.5c0.2,0.7,0.8,1.1,1.5,0.9c0.7-0.2,1.1-0.8,0.9-1.5
		C116.5,55.9,115.9,55.5,115.2,55.7z M116.2,57.5c-0.2,0-0.4-0.1-0.4-0.3c0-0.2,0.1-0.4,0.3-0.4c0.2,0,0.4,0.1,0.4,0.3
		C116.5,57.3,116.4,57.5,116.2,57.5z"/>
</g>
<g>
	<path class="st0" d="M105.7,58.3c-0.7,0.2-1.1,0.8-0.9,1.5c0.2,0.7,0.8,1.1,1.5,0.9s1.1-0.8,0.9-1.5
		C107.1,58.5,106.4,58.1,105.7,58.3z M106.7,60.1c-0.2,0-0.4-0.1-0.4-0.3c0-0.2,0.1-0.4,0.3-0.4c0.2,0,0.4,0.1,0.4,0.3
		C107,59.9,106.9,60.1,106.7,60.1z"/>
</g>
<g>
	<g>
		<g>
			<path class="st0" d="M114.2,63.4c0.2,0.4,0.3,0.9,0.4,1.4c0.1,0.6,0,1.7-0.9,1.3c-0.6-0.3-0.7-1.4-0.7-2c0-0.1-0.2-0.1-0.2,0
				c0,0.8,0.2,2.4,1.3,2.3c1.3-0.2,0.6-2.3,0.3-3C114.3,63.2,114.2,63.2,114.2,63.4L114.2,63.4z"/>
		</g>
	</g>
</g>
<g>
	<g>
		<g>
			<path class="st0" d="M104.4,74.2c-0.9,0.1-1.8,0.7-2.2,1.5c-0.3,0.5-0.3,1.1,0.4,1.3c0.1,0,0.2-0.1,0-0.2c-0.8-0.2-0.3-1,0-1.4
				c0.5-0.5,1.1-1,1.8-1C104.5,74.3,104.5,74.2,104.4,74.2L104.4,74.2z"/>
		</g>
	</g>
</g>
<g>
	<g>
		<g>
			<path class="st0" d="M103,76.2c-0.2,0.2-0.5,0.5-0.4,0.8c0,0.3,0.4,0.4,0.7,0.4c0.7-0.1,1.4-1.1,1.6-1.7c0-0.1-0.1-0.2-0.2,0
				c-0.2,0.5-0.6,1.1-1.1,1.4c-0.2,0.1-0.7,0.3-0.9-0.1c-0.1-0.2,0.2-0.5,0.4-0.7C103.2,76.2,103.1,76.1,103,76.2L103,76.2z"/>
		</g>
	</g>
</g>
<g>
	<g>
		<g>
			<path class="st0" d="M127.9,67c0.8,3,1.8,5.8,2.5,8.8c0.1,0.2,0.4,0.1,0.4-0.1c-0.7-3-1.7-5.9-2.5-8.8
				C128.1,66.7,127.8,66.8,127.9,67L127.9,67z"/>
		</g>
	</g>
</g>
<g>
	<g>
		<g>
			<path class="st0" d="M122.4,53.3c2.6,2.4,3.5,5.8,4.3,9.1c0.1,0.2,0.4,0.1,0.4-0.1c-0.8-3.3-1.7-6.9-4.4-9.2
				C122.5,52.9,122.2,53.1,122.4,53.3L122.4,53.3z"/>
		</g>
	</g>
</g>
<g>
	<g>
		<g>
			<path class="st0" d="M128.1,87.7C128.1,87.7,128.1,87.7,128.1,87.7c0.2,0,0.1-0.2,0-0.2h0c0,0-0.1,0-0.1,0.1c0,0,0,0,0,0
				C128.1,87.6,128.1,87.7,128.1,87.7c0.1-0.1,0.1-0.1,0.1-0.1C128.1,87.6,128.1,87.7,128.1,87.7C128.1,87.7,128.1,87.7,128.1,87.7
				c0.1,0.1,0.2-0.1,0.1-0.2c0,0-0.1,0-0.1-0.1c-0.1,0-0.1,0-0.1,0.1C128,87.6,128,87.6,128.1,87.7C128,87.7,128.1,87.8,128.1,87.7
				c0.1,0,0.1-0.1,0.1-0.1C128.2,87.6,128.2,87.7,128.1,87.7L128.1,87.7c0.1-0.1,0-0.2,0-0.2c0,0,0,0-0.1,0
				C127.9,87.6,128,87.8,128.1,87.7L128.1,87.7z"/>
		</g>
	</g>
</g>
<g>
	<g>
		<g>
			<path class="st0" d="M102.3,56.4c-0.5-2.5,1.4-4.3,3.2-5.6c1.6-1.1,3.5-2,5.4-2.4c2-0.5,4-0.6,6-0.3c2,0.3,4.4,0.9,5.4,2.8
				c0.1,0.2,0.4,0,0.3-0.2c-1.1-1.9-3.4-2.6-5.4-2.9c-2.2-0.4-4.5-0.2-6.7,0.3s-4.2,1.5-6,2.9s-3.2,3.1-2.7,5.5
				C102,56.7,102.3,56.6,102.3,56.4L102.3,56.4z"/>
		</g>
	</g>
</g>
<g>
	<g>
		<g>
			<path class="st0" d="M103.5,52.4c0.9-2.4,1.7-4.7,2.6-7c0.7-2,1.6-4.1,3.5-5.3c3.7-2.4,8.7-0.5,9.9,3.7c0.1,0.2,0.4,0.1,0.4-0.1
				c-1.2-4.1-5.8-6.2-9.7-4.4c-2,1-3.1,2.8-3.9,4.8c-1.1,2.7-2,5.4-3,8.2C103.1,52.5,103.4,52.6,103.5,52.4L103.5,52.4z"/>
		</g>
	</g>
</g>
<g>
	<g>
		<g>
			<path class="st0" d="M119.8,44.3c1-0.6,2.1,0.5,2.1,1.6c-0.1,1.1-1.1,1.7-2.2,1.5c-0.8-0.2-1.8-0.7-1.9-1.6
				c-0.1-1.2,1.1-1.7,2.1-1.7c0.2,0,0.2-0.4,0-0.4c-1.2-0.1-2.6,0.7-2.5,2.1c0.1,1.3,1.8,2.1,2.9,2c1.2-0.1,2.1-1.2,1.8-2.4
				c-0.2-1.1-1.5-2.1-2.6-1.4C119.4,44.1,119.6,44.4,119.8,44.3L119.8,44.3z"/>
		</g>
	</g>
</g>
<g>
	<g>
		<g>
			<path class="st0" d="M118.1,48c-0.2-1.8-2-3-3.6-3.6c-1.8-0.7-3.8-0.6-5.6,0.1c-0.2,0.1-0.1,0.4,0.1,0.4c1.6-0.6,3.4-0.7,5-0.2
				c1.6,0.5,3.5,1.6,3.7,3.4C117.7,48.4,118.1,48.3,118.1,48L118.1,48z"/>
		</g>
	</g>
</g>
<g>
	<g>
		<g>
			<path class="st0" d="M115.7,44.7c-0.8-0.7-0.2-1.9,0.7-2.1c1-0.2,1.8,0.5,2.2,1.3c0.1,0.2,0.4,0,0.3-0.2
				c-0.6-1.1-1.8-1.9-3.1-1.3c-1,0.4-1.3,1.8-0.5,2.6C115.6,45.2,115.9,44.9,115.7,44.7L115.7,44.7z"/>
		</g>
	</g>
</g>
<g>
	<g>
		<g>
			<path class="st0" d="M119.4,68.1c2.7-1.2,5.5-2.9,7.5-5.2c0.7-0.8,1.3-1.8,1.1-2.9c-0.2-1.1-1.2-2-2.3-1.6
				c-0.2,0.1-0.1,0.4,0.1,0.4c0.8-0.3,1.6,0.3,1.8,1.1c0.2,0.6,0,1.1-0.2,1.7c-0.5,0.9-1.3,1.6-2.1,2.3c-1.8,1.6-3.9,2.9-6.1,3.9
				C119,67.9,119.2,68.2,119.4,68.1L119.4,68.1z"/>
		</g>
	</g>
</g>
<g>
	<g>
		<g>
			<path class="st0" d="M101.6,64.7c-1,0.5-1.4,1.5-1.1,2.6c0.4,1.4,1.6,2.1,2.9,2.7c3.6,1.5,7.7,0.8,11.4-0.1
				c0.2-0.1,0.1-0.4-0.1-0.4c-3.1,0.8-6.6,1.5-9.7,0.6c-1.3-0.3-2.9-0.9-3.7-2c-0.7-1-0.6-2.4,0.6-3C102,64.9,101.8,64.6,101.6,64.7
				L101.6,64.7z"/>
		</g>
	</g>
</g>
<g>
	<g>
		<g>
			<path class="st0" d="M120.7,71.3c1.8-0.8,3.5-1.8,5.1-2.9c1.2-0.8,2.4-1.6,3.4-2.7c0.8-0.9,1.2-1.9,1-3.1
				c-0.4-1.6-1.9-2.5-2.7-3.8c-0.1-0.2-0.5,0-0.3,0.2c0.8,1.1,2,2,2.6,3.3c0.6,1.5-0.2,2.7-1.3,3.7c-2.3,2.1-5.1,3.7-7.9,5
				C120.3,71.1,120.5,71.4,120.7,71.3L120.7,71.3z"/>
		</g>
	</g>
</g>
<g>
	<g>
		<g>
			<path class="st0" d="M101.2,64.9c-1.6,2.1-3.7,6.4-1.1,8.6c1.7,1.5,4.6,1.2,6.7,1.2c2.7-0.1,5.4-0.5,8-1.2
				c0.2-0.1,0.1-0.4-0.1-0.4c-2.3,0.6-4.7,1-7.1,1.1c-1.2,0.1-2.3,0.1-3.5,0c-1.1-0.1-2.3-0.2-3.3-0.7c-3-1.8-0.9-6.3,0.7-8.4
				C101.6,65,101.4,64.7,101.2,64.9L101.2,64.9z"/>
		</g>
	</g>
</g>
<g>
	<g>
		<g>
			<path class="st0" d="M114,76.4c0.1,1.2,0.4,2.4,0.8,3.6c0.2,0.7,0.5,1.8,1.3,2.2c0.9,0.4,2.2-0.1,3.1-0.3
				c1.2-0.3,2.4-0.7,3.5-1.2c1-0.5,2.1-1,2.9-1.7c0.7-0.7,0.7-1.6,0.3-2.5c-0.6-1.6-1.8-3.5-3.7-3.2c-1.4,0.2-2.7,0.7-4,1.2
				c-1.3,0.5-2.6,1.1-3.9,1.7c-0.2,0.1,0,0.4,0.2,0.3c2.3-1.2,4.7-2.1,7.1-2.7c0.7-0.2,1.4-0.3,2,0.1c0.5,0.3,0.9,0.7,1.2,1.2
				c0.7,1,1.6,2.6,0.6,3.6c-0.8,0.8-2.1,1.3-3.1,1.8c-1.2,0.5-2.4,0.9-3.6,1.2c-0.6,0.1-1.5,0.4-2.2,0.2c-0.7-0.2-1-1.2-1.2-1.8
				c-0.4-1.2-0.7-2.5-0.8-3.8C114.4,76.2,114,76.2,114,76.4L114,76.4z"/>
		</g>
	</g>
</g>
<g>
	<g>
		<g>
			<path class="st0" d="M116,76.9c0,1,0.2,2,0.7,2.8c0.4,0.7,0.8,0.8,1.5,0.7c1.1-0.2,2.2-0.5,3.2-0.9c0.8-0.3,1.7-0.7,2.3-1.3
				c0.5-0.5,0.6-1.1,0.3-1.7c-0.3-0.7-1-1.5-1.7-1.8c-0.9-0.4-1.8,0.2-2.6,0.6c-1.2,0.5-2.4,1-3.5,1.5c-0.2,0.1-0.1,0.4,0.1,0.4
				c1.5-0.6,3-1.2,4.5-1.8c0.4-0.2,0.9-0.4,1.4-0.2c0.4,0.1,0.6,0.4,0.9,0.7c0.6,0.7,1.1,1.6,0.2,2.4c-1,0.9-2.6,1.4-3.9,1.7
				c-0.3,0.1-0.7,0.2-1,0.2c-0.4,0.1-0.6,0.1-1-0.1c-0.3-0.2-0.4-0.2-0.5-0.5c-0.4-0.8-0.5-1.6-0.6-2.5
				C116.4,76.7,116,76.7,116,76.9L116,76.9z"/>
		</g>
	</g>
</g>
<g>
	<g>
		<g>
			<path class="st0" d="M123.6,73.9c2.2-0.4,4.2-1.4,5.7-3c0.2-0.2-0.1-0.4-0.3-0.3c-1.5,1.6-3.4,2.6-5.5,3
				C123.3,73.6,123.4,74,123.6,73.9L123.6,73.9z"/>
		</g>
	</g>
</g>
<g>
	<g>
		<g>
			<path class="st0" d="M126.3,77.8c0.1-0.5,0.9-0.8,1.3-1.1c0.3-0.2,0.6-0.4,0.9-0.7c0.6-0.6,1.1-1.2,1.6-1.9
				c0.1-0.2-0.2-0.4-0.3-0.2c-0.6,0.9-1.3,1.7-2.2,2.4c-0.5,0.4-1.5,0.7-1.7,1.4C125.9,77.9,126.3,78,126.3,77.8L126.3,77.8z"/>
		</g>
	</g>
</g>
<g>
	<g>
		<g>
			<path class="st0" d="M115.4,81.3c-3,0.1-6,0.1-8.9,0.1c-0.2,0-0.2,0.4,0,0.4c3,0,6-0.1,8.9-0.1C115.6,81.7,115.6,81.3,115.4,81.3
				L115.4,81.3z"/>
		</g>
	</g>
</g>
<g>
	<g>
		<g>
			<path class="st0" d="M105.4,78.8c3.2,0.6,6.5,0,9.2-1.8c0.2-0.1,0-0.5-0.2-0.3c-2.6,1.8-5.8,2.4-8.9,1.8
				C105.3,78.4,105.2,78.7,105.4,78.8L105.4,78.8z"/>
		</g>
	</g>
</g>
<g>
	<g>
		<g>
			<path class="st0" d="M123.7,85c1.7-0.9,3.4-1.9,5-3c1.1-0.8,2.4-1.6,3.4-2.5c0.8-0.7,1.6-1.7,1.3-2.8c-0.3-1.2-1.6-1.7-2.7-1.8
				c-0.2,0-0.2,0.3,0,0.4c1.3,0.1,2.9,1,2.3,2.5c-0.4,1.1-1.5,1.8-2.4,2.4c-2.3,1.6-4.6,3.2-7.1,4.5C123.3,84.8,123.5,85.1,123.7,85
				L123.7,85z"/>
		</g>
	</g>
</g>
<g>
	<g>
		<g>
			<path class="st0" d="M106.5,85.5c-1.4,0-1.9,1.7-1.4,2.9c0.7,1.6,2.7,1.8,4.2,1.7c2-0.2,4-0.9,5.9-1.5c2-0.6,4-1.4,5.9-2.3
				c0.2-0.1,0-0.4-0.2-0.3c-2.9,1.4-5.8,2.3-8.9,3.1c-1.5,0.4-3,0.9-4.5,0.6c-0.8-0.1-1.6-0.5-2-1.3c-0.5-0.9-0.2-2.5,1-2.5
				C106.8,85.9,106.8,85.5,106.5,85.5L106.5,85.5z"/>
		</g>
	</g>
</g>
<g>
	<g>
		<g>
			<path class="st0" d="M124.2,81.7c1.6-0.7,3.2-1.4,4.5-2.6c0.6-0.5,1.1-1.1,1.5-1.8c0.5-0.8,0.6-1.5,0.5-2.4
				c0-0.2-0.4-0.1-0.4,0.1c0.3,1.8-1.2,3.4-2.6,4.4c-1.2,0.8-2.5,1.4-3.8,2C123.7,81.4,123.9,81.7,124.2,81.7L124.2,81.7z"/>
		</g>
	</g>
</g>
<g>
	<g>
		<g>
			<path class="st0" d="M106.5,86.2c1.7,1,3.8,0.8,5.7,0.4c2.3-0.5,4.5-1.3,6.6-2.3c0.2-0.1,0-0.4-0.2-0.3c-1.9,0.9-3.9,1.7-6,2.2
				c-1.9,0.5-4.1,0.8-5.9-0.3C106.5,85.7,106.3,86,106.5,86.2L106.5,86.2z"/>
		</g>
	</g>
</g>
<g>
	<g>
		<g>
			<path class="st0" d="M120.9,81.4c0.2,0.2,0.3,0.5,0.4,0.9c0,0.2,0.4,0.1,0.4-0.1c-0.1-0.4-0.2-0.7-0.5-1
				C121,80.9,120.7,81.2,120.9,81.4L120.9,81.4z"/>
		</g>
	</g>
</g>
<g>
	<g>
		<g>
			<path class="st0" d="M117.6,72.6c0.2,0.6,0.4,1.3,0.7,1.9c0.1,0.2,0.4,0.1,0.4-0.1c-0.2-0.6-0.4-1.3-0.7-1.9
				C117.9,72.3,117.6,72.3,117.6,72.6L117.6,72.6z"/>
		</g>
	</g>
</g>
<g>
	<g>
		<g>
			<path class="st0" d="M115,69.7c2-0.5,2.6,1.9,2.8,3.3c0,0.2,0.4,0.1,0.4-0.1c-0.3-1.6-1.1-4.1-3.3-3.6
				C114.6,69.4,114.7,69.8,115,69.7L115,69.7z"/>
		</g>
	</g>
</g>
<g>
	<g>
		<g>
			<path class="st0" d="M117.6,71c-0.7-1.6,0.9-2.6,2.2-2.9c0.2-0.1,0.1-0.4-0.1-0.4c-1.6,0.4-3.2,1.7-2.5,3.5
				C117.4,71.4,117.7,71.2,117.6,71L117.6,71z"/>
		</g>
	</g>
</g>
<g>
	<g>
		<g>
			<path class="st0" d="M113.9,73.6c1.2-0.5,2.4,0.4,2.2,1.7c0,0.2,0.3,0.2,0.4,0c0.2-1.5-1.3-2.6-2.7-2.1
				C113.6,73.4,113.7,73.7,113.9,73.6L113.9,73.6z"/>
		</g>
	</g>
</g>
<g>
	<g>
		<g>
			<path class="st0" d="M120.4,71.1c-0.9,0.8-1,2.1-0.4,3.1c0.1,0.2,0.4,0,0.3-0.2c-0.6-0.8-0.4-1.9,0.3-2.6
				C120.9,71.2,120.6,70.9,120.4,71.1L120.4,71.1z"/>
		</g>
	</g>
</g>
<g>
	<g>
		<g>
			<path class="st0" d="M118.2,82.5c0.5,0.3,0.7,0.8,0.7,1.3c0,0.2,0.3,0.3,0.4,0.1c0.1-0.7-0.2-1.4-0.8-1.7
				C118.2,82.1,118,82.4,118.2,82.5L118.2,82.5z"/>
		</g>
	</g>
</g>
<g>
	<g>
		<g>
			<path class="st0" d="M123.3,80.3c-0.4,0.5-0.2,1.2,0.4,1.5c0.2,0.1,0.3-0.3,0.1-0.4c-0.3-0.1-0.4-0.6-0.2-0.8
				C123.7,80.3,123.5,80.1,123.3,80.3L123.3,80.3z"/>
		</g>
	</g>
</g>
<g>
	<g>
		<g>
			<path class="st0" d="M120.6,86.5c1.5-0.9,2-3,1-4.4c-0.1-0.2-0.5,0-0.3,0.2c0.9,1.3,0.5,3.1-0.8,3.9
				C120.2,86.3,120.4,86.6,120.6,86.5L120.6,86.5z"/>
		</g>
	</g>
</g>
<g>
	<g>
		<g>
			<path class="st0" d="M121.7,83.6c0.3,0.8,1.1,1.4,2,1.4c0.2,0,0.2-0.4,0-0.4c-0.7,0-1.4-0.4-1.6-1.1
				C122,83.3,121.6,83.4,121.7,83.6L121.7,83.6z"/>
		</g>
	</g>
</g>
<g>
	<g>
		<g>
			<path class="st0" d="M112.4,79.8c0-0.3,0.5-0.2,0.4,0c0,0.4-0.5,0.3-0.5,0c-0.1-0.2-0.4-0.1-0.4,0.1c0.1,0.3,0.4,0.5,0.7,0.5
				c0.3,0,0.6-0.3,0.6-0.6c0-0.3-0.2-0.6-0.5-0.6c-0.3,0-0.6,0.2-0.6,0.5C112.1,79.9,112.4,80,112.4,79.8L112.4,79.8z"/>
		</g>
	</g>
</g>
<g>
	<g>
		<g>
			<path class="st0" d="M109.5,80.2c-0.1-0.1,0-0.2,0.1-0.2c0.1,0,0.2,0.1,0.2,0.1c0.1,0.3-0.3,0.4-0.5,0.2
				c-0.2-0.1-0.4,0.1-0.3,0.3c0.2,0.2,0.6,0.3,0.9,0.1c0.3-0.2,0.3-0.5,0.2-0.8c-0.1-0.3-0.5-0.4-0.7-0.2c-0.2,0.2-0.3,0.5-0.1,0.8
				C109.4,80.6,109.6,80.3,109.5,80.2L109.5,80.2z"/>
		</g>
	</g>
</g>
<g>
	<g>
		<g>
			<path class="st0" d="M127,74.4c0.1-0.2,0.5-0.1,0.4,0.1c0,0.1-0.2,0.2-0.2,0.2c0,0-0.1,0-0.1,0C127.1,74.6,127.1,74.5,127,74.4
				c0,0,0-0.1,0-0.1c0-0.2-0.4-0.1-0.4,0.1c0,0.2,0,0.4,0.2,0.5c0.1,0.1,0.2,0.1,0.4,0.1c0.3,0,0.5-0.2,0.6-0.5
				c0.1-0.6-0.9-0.8-1.1-0.3C126.6,74.5,126.9,74.6,127,74.4L127,74.4z"/>
		</g>
	</g>
</g>
<g>
	<g>
		<g>
			<path class="st0" d="M114.4,76.8c0.8,1.7,0.7,3.6,1.5,5.3c0.1,0.2,0.4,0,0.3-0.2c-0.8-1.7-0.8-3.6-1.5-5.3
				C114.6,76.4,114.3,76.6,114.4,76.8L114.4,76.8z"/>
		</g>
	</g>
</g>
<g>
	<g>
		<g>
			<path class="st0" d="M122.8,73.9c1.5,1.1,2.6,2.7,2.7,4.6c0,0.2,0.4,0.2,0.4,0c-0.2-2-1.3-3.8-2.9-4.9
				C122.8,73.5,122.6,73.8,122.8,73.9L122.8,73.9z"/>
		</g>
	</g>
</g>
<g>
	<g>
		<g>
			<path class="st0" d="M116.4,77.8c1.9-1,3.8-1.8,5.8-2.5c0.2-0.1,0.1-0.4-0.1-0.4c-2,0.7-4,1.5-5.9,2.5
				C116,77.6,116.2,77.9,116.4,77.8L116.4,77.8z"/>
		</g>
	</g>
</g>
<g>
	<g>
		<g>
			<path class="st0" d="M72.9,73c-1-0.3-0.5-1.5-0.1-2c0.4-0.5,0.8-0.8,1.2-1.3c-0.1,0-0.2,0-0.3,0c0.2,0.9,1.6,2.3,0.7,3.1
				c-0.2,0.1,0.1,0.4,0.3,0.3c1.2-1-0.4-2.4-0.6-3.4c0-0.2-0.2-0.2-0.3,0c-0.6,0.8-1.6,1.4-1.7,2.5c-0.1,0.6,0.2,1.3,0.8,1.5
				C73.1,73.4,73.1,73.1,72.9,73L72.9,73z"/>
		</g>
	</g>
</g>
<g>
	<g>
		<g>
			<path class="st0" d="M79.1,76c0.2-0.5,0.9-0.3,1.3-0.2c0.4,0.1,0.7,0.2,1.1,0.1c-0.1-0.1-0.1-0.1-0.2-0.2
				c-0.2,1.1-1.2,1.9-2.3,1.6c-0.2-0.1-0.3,0.3-0.1,0.4c1.2,0.3,2.6-0.6,2.8-1.8c0-0.1-0.1-0.3-0.2-0.2c-0.8,0.2-2.1-0.7-2.6,0.3
				C78.7,76,79,76.2,79.1,76L79.1,76z"/>
		</g>
	</g>
</g>
<g>
	<g>
		<g>
			<path class="st0" d="M74.3,73.1c0.6-0.4,1.1-0.7,1.8-0.4c0.2,0.1,0.5,0.1,0.7,0.1c0.6-0.1,0.9-0.7,1.2-1.2c-0.1,0-0.2,0-0.3,0
				c0.1,0.6,0,1-0.3,1.5c-0.1,0.1,0,0.3,0.2,0.3c0.5,0,0.9-0.1,1.3-0.2c-0.1-0.1-0.1-0.2-0.2-0.3c-0.2,0.3-0.5,0.6-0.7,0.9
				c-0.1,0.1-0.1,0.3,0.1,0.3c0.1,0,0.9,0.1,0.9,0.2c0.1,0.2-0.3,0.5-0.4,0.6c-0.1,0.1-0.1,0.1-0.2,0.2c-0.2,0.4,0.2,0.7,0.1,1.1
				c-0.1,0.2,0.3,0.3,0.4,0.1c0-0.1,0.1-0.2,0-0.4c-0.1-0.4-0.3-0.4,0.1-0.8c0.3-0.3,0.4-0.5,0.4-0.9c0-0.1-0.1-0.2-0.1-0.2
				c-0.4-0.1-0.8-0.2-1.2-0.3c0,0.1,0.1,0.2,0.1,0.3c0.2-0.3,0.5-0.6,0.7-0.9c0.1-0.1,0-0.4-0.2-0.3c-0.4,0.1-0.8,0.2-1.2,0.2
				c0.1,0.1,0.1,0.2,0.2,0.3c0.4-0.5,0.5-1.1,0.4-1.8c0-0.2-0.3-0.2-0.3,0c-0.2,0.4-0.4,0.7-0.8,0.9c-0.5,0.2-0.8-0.1-1.3-0.1
				c-0.6,0-1.1,0.3-1.5,0.6C73.9,73,74.1,73.3,74.3,73.1L74.3,73.1z"/>
		</g>
	</g>
</g>
<g>
	<g>
		<g>
			<path class="st0" d="M76,72.7c0.3-3,1.6-5.8,3.2-8.3c0.7-1.2,1.6-2.3,2.4-3.6c0.4-0.7-0.1-1.3-0.8-1c-0.4,0.2-0.8,0.6-1.1,0.9
				c-0.5,0.5-1,1-1.4,1.6c-0.8,1-1.5,2.1-2,3.3c-0.1,0.3-0.2,0.9-0.7,0.8c-0.2,0-0.6-0.4-0.7-0.6c-0.4-0.4-0.8-0.9-1.2-1.4
				c-0.4-0.4-1.4-1.3-1.8-0.5c-0.4,0.9,1,2,1.6,2.4c0.5,0.4,1.9,0.8,1.9,1.6c0,0.4-0.3,0.9-0.4,1.3c-0.2,0.5-0.3,0.9-0.5,1.4
				c-0.1,0.2,0.3,0.3,0.4,0.1c0.2-0.7,0.5-1.4,0.7-2c0.1-0.4,0.4-0.8,0.2-1.2c-0.2-0.4-0.6-0.5-0.9-0.6c-0.6-0.3-1.1-0.7-1.6-1.1
				c-0.2-0.2-0.4-0.4-0.6-0.6c0,0-0.4-0.4-0.4-0.6c0.1-0.1,0.2-0.1,0.2-0.2c0.1-0.2,0.3-0.2,0.4-0.1c0.5,0.2,0.9,0.8,1.2,1.2
				c0.4,0.5,1.3,1.7,2,1.5c0.2-0.1,0.3-0.2,0.4-0.4c0.3-0.6,0.5-1.3,0.9-1.9c0.6-1.1,1.4-2.1,2.2-3.1c0.3-0.3,1-1.3,1.5-1.3
				c0,0,0.1,0,0.1-0.1c0.1,0.1,0.2,0.3,0.3,0.4c0,0.1-0.2,0.3-0.2,0.4c-0.2,0.3-0.4,0.6-0.6,0.9c-0.7,1.1-1.4,2.1-2,3.2
				c-1.4,2.4-2.5,4.9-2.7,7.7C75.6,72.9,76,72.9,76,72.7L76,72.7z"/>
		</g>
	</g>
</g>
<g>
	<g>
		<g>
			<path class="st0" d="M79,74.2c2.2-1.4,4.1-3.2,5.8-5.3c0.8-1,1.5-2,2.1-3.1c0.7-1.2,1.3-2.6,2.5-3.4c-0.1-0.1-0.2-0.1-0.3-0.2
				c-0.3,4.3-3.6,7.4-6.7,10.1c-0.1,0.1-0.1,0.2,0,0.2c0.3,0.5,0.7,0.6,1.2,0.9c0.2,0.1,0.5,0.2,0.6,0.4c0.2,0.1,0.2,0.3,0,0.6
				c0,0.5-0.2,0.6-0.6,0.5c-0.5-0.1-0.9-0.5-1.3-0.8c-0.3-0.3-0.6-0.7-1.1-0.6c-0.3,0.1-0.5,0.4-0.8,0.6c-0.4,0.4-0.8,0.7-1.1,1.1
				c-0.2,0.2,0.1,0.4,0.3,0.3c0.2-0.2,0.5-0.5,0.7-0.7c0.2-0.2,0.5-0.6,0.7-0.7c0.6-0.2,1,0.3,1.4,0.6c0.5,0.4,1.3,0.8,2,0.5
				c0.5-0.2,0.6-0.8,0.3-1.3c-0.2-0.3-0.5-0.5-0.8-0.6c-0.2-0.1-1.2-0.4-1.1-0.8c0-0.1,0.5-0.4,0.6-0.5c0.2-0.2,0.4-0.4,0.6-0.5
				c0.5-0.4,0.9-0.8,1.3-1.3c0.7-0.7,1.4-1.5,2-2.4c1.1-1.6,1.9-3.5,2.1-5.5c0-0.1-0.2-0.2-0.3-0.2c-1,0.7-1.6,1.6-2.1,2.6
				c-0.7,1.2-1.3,2.4-2.1,3.4c-1.7,2.3-3.7,4.2-6.1,5.8C78.6,74,78.8,74.3,79,74.2L79,74.2z"/>
		</g>
	</g>
</g>
<g>
	<g>
		<path class="st0" d="M74,77.1c-0.9,0-1.7-0.7-1.7-1.7c0-0.9,0.7-1.7,1.7-1.7c0.9,0,1.7,0.7,1.7,1.7C75.6,76.3,74.9,77.1,74,77.1z
			 M74,74c-0.8,0-1.4,0.6-1.4,1.4c0,0.8,0.6,1.4,1.4,1.4c0.8,0,1.4-0.6,1.4-1.4C75.4,74.6,74.7,74,74,74z"/>
	</g>
	<g>
		<path class="st0" d="M73,75.2c-0.3,0.1-0.4,0.3-0.4,0.6c0.1,0.3,0.3,0.4,0.6,0.4c0.3-0.1,0.4-0.3,0.4-0.6
			C73.6,75.3,73.3,75.1,73,75.2z M73.4,75.9c-0.1,0-0.2,0-0.2-0.1c0-0.1,0-0.2,0.1-0.2c0.1,0,0.2,0,0.2,0.1
			C73.5,75.8,73.5,75.9,73.4,75.9z"/>
	</g>
</g>
<g>
	<g>
		<path class="st0" d="M76.7,79.1c-0.9,0-1.7-0.7-1.7-1.7c0-0.9,0.7-1.7,1.7-1.7c0.9,0,1.7,0.7,1.7,1.7
			C78.3,78.3,77.6,79.1,76.7,79.1z M76.7,76c-0.8,0-1.4,0.6-1.4,1.4c0,0.8,0.6,1.4,1.4,1.4c0.8,0,1.4-0.6,1.4-1.4
			C78.1,76.6,77.5,76,76.7,76z"/>
	</g>
	<g>
		<path class="st0" d="M77.6,77.7c0.3-0.1,0.4-0.3,0.4-0.6c-0.1-0.3-0.3-0.4-0.6-0.4c-0.3,0.1-0.4,0.3-0.4,0.6
			C77,77.6,77.3,77.7,77.6,77.7z M77.2,76.9c0.1,0,0.2,0,0.2,0.1c0,0.1,0,0.2-0.1,0.2c-0.1,0-0.2,0-0.2-0.1
			C77.1,77,77.1,76.9,77.2,76.9z"/>
	</g>
</g>
<g>
	<g>
		<path class="st0" d="M43.4,76.7c-0.9,0-1.7-0.7-1.7-1.7c0-0.9,0.7-1.7,1.7-1.7c0.9,0,1.7,0.7,1.7,1.7C45.1,76,44.3,76.7,43.4,76.7
			z M43.4,73.6c-0.8,0-1.4,0.6-1.4,1.4c0,0.8,0.6,1.4,1.4,1.4c0.8,0,1.4-0.6,1.4-1.4C44.9,74.3,44.2,73.6,43.4,73.6z"/>
	</g>
	<g>
		<path class="st0" d="M44.4,74.8c0.2-0.2,0.2-0.5,0-0.7c-0.2-0.2-0.5-0.2-0.7,0c-0.2,0.2-0.2,0.5,0,0.7C43.8,75,44.1,75,44.4,74.8z
			 M43.7,74.4c0.1-0.1,0.1,0,0.2,0c0.1,0.1,0,0.1,0,0.2s-0.1,0-0.2,0C43.6,74.5,43.6,74.4,43.7,74.4z"/>
	</g>
</g>
<g>
	<g>
		<path class="st0" d="M46.4,78.2c-0.9,0-1.7-0.7-1.7-1.7c0-0.9,0.7-1.7,1.7-1.7s1.7,0.7,1.7,1.7C48.1,77.4,47.4,78.2,46.4,78.2z
			 M46.4,75.1c-0.8,0-1.4,0.6-1.4,1.4c0,0.8,0.6,1.4,1.4,1.4s1.4-0.6,1.4-1.4C47.9,75.7,47.2,75.1,46.4,75.1z"/>
	</g>
	<g>
		<path class="st0" d="M47.4,76.6c0.3-0.1,0.4-0.4,0.3-0.7c-0.1-0.3-0.4-0.4-0.7-0.3c-0.3,0.1-0.4,0.4-0.3,0.7
			C46.8,76.6,47.1,76.7,47.4,76.6z M46.9,75.9c0.1,0,0.2,0,0.2,0.1c0,0.1,0,0.2-0.1,0.2c-0.1,0-0.2,0-0.2-0.1
			C46.8,76,46.8,75.9,46.9,75.9z"/>
	</g>
</g>
<g>
	<path class="st0" d="M13.5,76.9c-0.9,0-1.7-0.7-1.7-1.7c0-0.9,0.7-1.7,1.7-1.7s1.7,0.7,1.7,1.7C15.2,76.1,14.4,76.9,13.5,76.9z
		 M13.5,73.8c-0.8,0-1.4,0.6-1.4,1.4c0,0.8,0.6,1.4,1.4,1.4s1.4-0.6,1.4-1.4C14.9,74.4,14.3,73.8,13.5,73.8z"/>
</g>
<g>
	<path class="st0" d="M14.1,75.6c0.2-0.2,0.1-0.5-0.1-0.7c-0.2-0.2-0.5-0.1-0.7,0.1c-0.2,0.2-0.1,0.5,0.1,0.7
		C13.6,75.8,13.9,75.8,14.1,75.6z M13.3,75.2c0-0.1,0.1-0.1,0.2,0c0.1,0,0.1,0.1,0,0.2c0,0.1-0.1,0.1-0.2,0
		C13.3,75.4,13.2,75.3,13.3,75.2z"/>
</g>
<g>
	<path class="st0" d="M16.8,77.6c-0.9,0-1.7-0.7-1.7-1.7c0-0.9,0.7-1.7,1.7-1.7c0.9,0,1.7,0.7,1.7,1.7
		C18.4,76.9,17.7,77.6,16.8,77.6z M16.8,74.5c-0.8,0-1.4,0.6-1.4,1.4c0,0.8,0.6,1.4,1.4,1.4c0.8,0,1.4-0.6,1.4-1.4
		C18.2,75.1,17.6,74.5,16.8,74.5z"/>
</g>
<g>
	<path class="st0" d="M17.3,76.3c0.2-0.2,0.3-0.5,0.1-0.7c-0.2-0.2-0.5-0.3-0.7-0.1c-0.2,0.2-0.3,0.5-0.1,0.7
		C16.7,76.4,17,76.4,17.3,76.3z M16.6,75.7c0.1,0,0.2,0,0.2,0c0,0.1,0,0.2,0,0.2s-0.2,0-0.2,0C16.5,75.8,16.5,75.8,16.6,75.7z"/>
</g>
<g>
	<path class="st0" d="M13.7,87c-0.6,0-1.3-0.1-1.9-0.3l0,0c-3-0.9-4.9-3.6-4.2-6.2c0.3-1.1,1.1-2,2.1-2.6c1.3-0.7,3.1-0.9,4.7-0.4
		c1.5,0.4,2.7,1.3,3.5,2.5c0.8,1.2,1,2.5,0.7,3.7c-0.3,1.1-1.1,2-2.1,2.6C15.7,86.8,14.7,87,13.7,87z M11.9,86.5
		c1.6,0.5,3.2,0.3,4.5-0.4c1-0.5,1.7-1.4,2-2.4c0.3-1.1,0.1-2.4-0.6-3.5c-0.7-1.1-1.9-1.9-3.3-2.3c-1.6-0.5-3.2-0.3-4.5,0.4
		c-1,0.5-1.7,1.4-2,2.4C7.2,83.1,9,85.7,11.9,86.5L11.9,86.5z"/>
</g>
<g>
	<path class="st0" d="M43.1,87.2c-0.6,0-1.3-0.1-1.9-0.3c-3-0.9-4.9-3.6-4.2-6.2c0.3-1.1,1.1-2,2.1-2.6c1.3-0.7,3.1-0.9,4.7-0.4
		c1.5,0.4,2.7,1.3,3.5,2.5c0.8,1.2,1,2.5,0.7,3.7c-0.3,1.1-1.1,2-2.1,2.6C45,86.9,44.1,87.2,43.1,87.2z M41.9,77.8
		c-1,0-1.9,0.2-2.7,0.7c-1,0.5-1.7,1.4-2,2.4c-0.7,2.4,1.1,5,4,5.8c1.6,0.5,3.2,0.3,4.5-0.4c1-0.5,1.7-1.4,2-2.4
		c0.3-1.1,0.1-2.4-0.6-3.5c-0.7-1.1-1.9-1.9-3.3-2.3C43.1,77.9,42.5,77.8,41.9,77.8z"/>
</g>
<g>
	<path class="st0" d="M71.5,87.2c-0.6,0-1.3-0.1-1.9-0.3c-1.6-0.5-3-1.5-3.7-2.9c-0.6-1.1-0.7-2.2-0.4-3.3c0.3-1.1,1.1-2,2.1-2.6
		c1.3-0.7,3.1-0.9,4.7-0.4c1.5,0.4,2.7,1.3,3.5,2.5c0.8,1.2,1,2.5,0.7,3.7c-0.3,1.1-1.1,2-2.1,2.6C73.5,86.9,72.5,87.2,71.5,87.2z
		 M70.4,77.8c-1,0-1.9,0.2-2.7,0.7c-1,0.5-1.7,1.4-2,2.4c-0.3,1-0.2,2.1,0.4,3.1c0.7,1.3,2,2.3,3.6,2.7c1.6,0.5,3.2,0.3,4.5-0.4
		c1-0.5,1.7-1.4,2-2.4c0.3-1.1,0.1-2.4-0.6-3.5c-0.7-1.1-1.9-1.9-3.3-2.3C71.6,77.9,71,77.8,70.4,77.8z"/>
</g>
<g>
	<g>
		<g>
			<path class="st0" d="M37.4,80.1c0.9-2.6,1.6-6.2,4.4-7.5c0.1,0,0.1-0.2,0-0.3c-0.4-0.5-0.7-1.1-0.8-1.8c0-0.1-0.1-0.6,0-0.7
				c0.3-0.4,0.5-0.1,0.7,0.1c0.4,0.5,0.7,1.2,0.8,1.8c0,0.2,0.4,0.2,0.4,0c-0.1-0.7-0.7-2.5-1.6-2.5c-0.6,0-0.7,0.6-0.7,1
				c0,0.9,0.4,1.7,1,2.4c0-0.1,0-0.2,0-0.3c-2.9,1.2-3.6,5-4.6,7.7C36.9,80.2,37.3,80.3,37.4,80.1L37.4,80.1z"/>
		</g>
	</g>
</g>
<g>
	<g>
		<g>
			<path class="st0" d="M44.3,71c-0.4-2.4-0.2-4.8,0.5-7.2c0.3-1.2,0.8-2.3,1.4-3.3c0.3-0.5,0.7-1.4-0.1-1.7
				c-0.7-0.2-1.1,0.7-1.3,1.2c-0.2,0.5-0.4,0.9-0.6,1.4c-0.1,0.2-0.2,0.5-0.4,0.7c-0.4,0.4-0.6,0.2-1,0.1c-0.7-0.3-1.6-0.5-2.4-0.1
				c-0.5,0.2-0.8,0.8-0.3,1.2c0.8,0.6,2.6-0.1,2.4,1.6c-0.1,0.7-0.5,1.5,0,2.2c0.1-0.1,0.2-0.1,0.3-0.2c-0.6-0.4-1.2-0.6-2-0.5
				c-0.5,0.1-1.4,0.4-1.4,1.1c0,0.6,0.6,0.9,1.1,1c0.7,0.1,1.5-0.1,1.9,0.6c0.4,0.7,0.2,1.5,0,2.2c-0.1,0.2,0.3,0.3,0.4,0.1
				c0.2-1,0.4-2.4-0.6-3c-0.6-0.3-1.6,0-2-0.4c-0.3-0.1-0.3-0.2-0.1-0.5c-0.1-0.3,0-0.4,0.2-0.5c0.2-0.1,0.5-0.2,0.7-0.2
				c0.5,0,1,0.1,1.4,0.5c0.1,0.1,0.4,0,0.3-0.2c-0.5-0.8,0.2-1.7,0.1-2.6c-0.1-0.7-0.8-1-1.4-1.1c-0.2,0-0.6,0-0.8-0.1
				c-0.2-0.6,0-0.9,0.5-0.8c0.1,0,0.1,0,0.2,0c0.4,0,0.9,0.1,1.2,0.3c0.2,0.1,0.4,0.3,0.6,0.4c0.7,0.2,1.2-1,1.4-1.5
				c0.2-0.5,0.4-1,0.6-1.5c0.1-0.1,0.1-0.3,0.2-0.4c0.6,0.1,0.7,0.4,0.5,0.7c-0.1,0.2-0.2,0.5-0.4,0.7c-0.5,1.1-1,2.2-1.3,3.4
				c-0.6,2.2-0.7,4.6-0.3,6.9C43.9,71.3,44.3,71.2,44.3,71L44.3,71z"/>
		</g>
	</g>
</g>
<g>
	<g>
		<g>
			<path class="st0" d="M47.8,72.4c1.8-1.8,3.3-3.8,4.3-6.1c0.5-1.1,0.9-2.4,1.4-3.5c0.1-0.3,0.7-1.9,1.2-1.5c0.2,0.2-0.1,1-0.1,1.2
				c-0.1,0.3-0.1,0.6-0.2,0.9c-0.2,0.7-0.6,1.2-0.9,1.9c-0.2,0.4-0.4,0.9-0.2,1.3c0.3,0.9,1.4,0.9,2,1.5c0.5,0.5,0.2,1.2-0.5,1.2
				c-0.3,0-0.6-0.1-0.8-0.2c-0.5-0.2-1.2-0.7-1.8-0.7c-0.3,0-0.4,0.1-0.6,0.4c-0.4,0.5-0.6,1.2-0.9,1.8c0,0.1,0,0.2,0.1,0.2
				c0.5,0.2,1.1,0.4,1.5,0.7c0.4,0.4,0.3,0.7-0.4,1c-0.2-0.1-0.4-0.1-0.5-0.3c-0.2-0.1-0.4-0.3-0.6-0.4c-0.3-0.2-0.6-0.4-1-0.3
				c-0.4,0.1-0.5,0.5-0.6,0.9c-0.1,0.2,0.2,0.4,0.3,0.2c0.2-0.4,0.1-0.5,0.6-0.5c0.5-0.1,0.6,0.1,0.9,0.4c0.2,0.1,0.4,0.3,0.6,0.4
				c0.4,0.2,0.9,0.2,1.2-0.2c0.8-1.2-1.1-1.8-1.8-2.1c0,0.1,0,0.2,0.1,0.2c0.2-0.5,0.5-1,0.8-1.5c0.2-0.4,0.4-0.5,0.8-0.4
				c0.4,0.1,0.7,0.3,1.1,0.4c0.6,0.2,1.4,0.6,2,0.2c0.5-0.3,0.5-1,0.1-1.5c-0.7-0.9-2.5-0.8-2-2.3c0.4-1.1,1-1.9,1.3-3
				c0.1-0.4,0.4-1.7-0.2-1.9c-0.7-0.2-1.2,1.3-1.4,1.7c-0.4,1-0.8,2-1.2,3c-1.1,2.6-2.6,4.9-4.6,6.8C47.3,72.3,47.6,72.6,47.8,72.4
				L47.8,72.4z"/>
		</g>
	</g>
</g>
<g>
	<g>
		<g>
			<path class="st0" d="M7.9,80.4c0.5-2.7,1.9-5.2,3.9-7.1c0.2-0.2-0.1-0.4-0.3-0.3c-2.1,2-3.5,4.5-4,7.3
				C7.5,80.5,7.9,80.6,7.9,80.4L7.9,80.4z"/>
		</g>
	</g>
</g>
<g>
	<g>
		<g>
			<path class="st0" d="M11.7,73c-0.9-0.7-1-2-0.3-2.9c-0.1,0-0.2,0-0.3,0c0.3,0.4,0.7,0.7,1.1,1c0.3,0.2,1,0.8,1.4,0.8
				c0.5,0,1.2-0.6,1.6-1c0.9-0.9,1.1-2.6-0.2-3.1c-0.2-0.1-0.3,0.2-0.1,0.3c1.2,0.6,1.9,1.8,1.7,3.1c0,0.2,0.2,0.2,0.3,0.1
				c0.4-0.4,0.7-0.9,1-1.3c-0.1,0-0.2,0-0.3,0c0.2,0.7,0,1.4-0.4,2.1c-0.1,0.1,0.1,0.3,0.2,0.3c0.2-0.1,0.4-0.1,0.6-0.3
				c-0.1-0.1-0.2-0.1-0.3-0.2c0,0.2-0.1,0.4-0.1,0.6c0,0.1,0,0.2,0.1,0.2c0.8,0.4,1.7,0.2,2.2-0.5c-0.1,0-0.2,0-0.2,0.1
				c0.5,0.3,0.5,1,0.1,1.5c-0.3,0.4-0.8,0.5-1.3,0.6c-0.1,0-0.2,0.1-0.2,0.2c0.9,2.8,1,5.7,0.3,8.5c-0.1,0.2,0.3,0.3,0.4,0.1
				c0.7-2.9,0.6-5.9-0.3-8.7c-0.1,0.1-0.1,0.2-0.2,0.2c0.7-0.1,1.5-0.4,1.8-1.1c0.3-0.6,0.1-1.3-0.5-1.7c-0.1-0.1-0.2,0-0.2,0.1
				c-0.3,0.4-1.7,1-1.5,0c0-0.1-0.1-0.3-0.3-0.2c-0.1,0.1-0.3,0.2-0.5,0.2c0.1,0.1,0.1,0.2,0.2,0.3c0.5-0.7,0.6-1.5,0.4-2.4
				c0-0.2-0.2-0.2-0.3,0c-0.3,0.5-0.6,0.9-0.9,1.3c0.1,0,0.2,0.1,0.3,0.1c0.2-1.4-0.6-2.8-1.9-3.4c0,0.1-0.1,0.2-0.1,0.3
				c0.6,0.2,0.8,1,0.6,1.6c-0.2,0.6-0.7,1.1-1.3,1.5c-0.6,0.4-0.8,0.2-1.4-0.1c-0.6-0.4-1-0.8-1.5-1.3c-0.1-0.1-0.2-0.1-0.3,0
				c-0.8,1-0.7,2.5,0.3,3.4C11.6,73.4,11.8,73.2,11.7,73L11.7,73z"/>
		</g>
	</g>
</g>
<g>
	<g>
		<g>
			<path class="st0" d="M13.1,58.3c-0.1,1.1-0.4,2.3-0.6,3.4c-0.1,0.5-0.1,0.9-0.2,1.4c0,0.3,0,0.6,0,0.8c0.1,0.3-0.1,0.5-0.4,0.6
				c-0.2,0.2-0.4,0.3-0.6,0.2c-0.4-0.1-0.7-0.3-1.1-0.4c-0.3-0.1-0.6-0.1-0.9-0.1c-0.4,0-1.1,0.2-1.2,0.7c-0.2,1.4,3.2,0.8,3.8,1.3
				c0.6,0.6,0.3,2,0.3,2.8c0,1,0.1,1.8,0.6,2.7c0.1,0.2,0.4,0,0.3-0.2c-0.5-1-0.5-2.1-0.5-3.3c0-0.8,0.1-1.6-0.4-2.3
				c-0.3-0.5-1.2-0.5-1.7-0.5c-0.4,0-1.1,0-1.5-0.2c-0.2,0-0.3-0.1-0.3-0.3c-0.2-0.3-0.1-0.4,0.3-0.5c0.2-0.1,0.5,0,0.8,0
				c0.9,0.2,2.7,1.3,3-0.3c0.1-0.4,0-0.9,0.1-1.3c0.1-0.6,0.1-1.1,0.2-1.7c0.2-1,0.4-2,0.5-3C13.5,58,13.2,58,13.1,58.3L13.1,58.3z"
				/>
		</g>
	</g>
</g>
<g>
	<g>
		<g>
			<path class="st0" d="M14.1,71.5c0.7-0.4,0.4-1.2,0.4-1.9c0-1.2,0-2.4,0-3.6c0-2.4,0.2-4.9,0.5-7.3c0-0.2-0.3-0.3-0.4-0.1
				c-0.3,2.1-0.5,4.2-0.5,6.2c0,1.1,0,2.1,0,3.2c0,0.5,0,1.1,0,1.6c0,0.4,0.2,1.3-0.2,1.5C13.7,71.3,13.8,71.6,14.1,71.5L14.1,71.5z
				"/>
		</g>
	</g>
</g>
<g>
	<g>
		<g>
			<path class="st0" d="M18.1,71.7c2.6-4.9,4.8-10.1,6.5-15.4c0.1-0.4,0.2-0.7,0.3-1c0.1-0.3,0.1-0.8,0.4-1c0.7-0.5,1,0.4,1.1,0.7
				c0.1,0.3,0.1,0.7,0,1c-0.2,1.4-1,2.7-1.6,3.9c-1.4,2.7-2.7,5.4-4,8.1c0,0.1,0,0.2,0.1,0.3c0.4,0.1,0.8,0.2,1.2,0.5
				c0.2,0.1,0.5,0.4,0.6,0.5c0,0.1,0.1,0.1,0.1,0.2c-0.1,0.3-0.1,0.6-0.2,1c-0.4,0.1-1.1-1-1.6-1.1c-1.4-0.3-1.9,1.3-2.1,2.3
				c0,0.2,0.3,0.3,0.4,0.1c0.1-0.7,0.2-1.5,0.9-1.9c0.7-0.4,1.2,0.1,1.6,0.6c0.4,0.3,1,0.7,1.4,0.3c0.5-0.4,0.1-1.1-0.2-1.5
				c-0.6-0.7-1.3-1.1-2.2-1.3c0,0.1,0.1,0.2,0.1,0.3c1.2-2.5,2.5-5,3.7-7.4c0.5-1.1,1.2-2.2,1.6-3.3c0.3-0.8,0.6-1.7,0.4-2.6
				c-0.1-0.5-0.6-1.3-1.3-1.1c-0.8,0.2-0.9,1.6-1.1,2.3c-0.8,2.5-1.7,4.9-2.7,7.3c-1.2,2.8-2.5,5.6-3.9,8.2
				C17.7,71.7,18,71.9,18.1,71.7L18.1,71.7z"/>
		</g>
	</g>
</g>
<g>
	<g>
		<g>
			<path class="st0" d="M18.4,84.2c0.9,0.7,2.1,1,3.2,0.7c0.7-0.1,1.3-0.5,2-0.7c0.6-0.1,1,0,1.5,0.2c0.2,0.1,0.4,0.2,0.6,0.2
				c2,0.2,2.3-2.8,0.3-3.1c-0.2,0-0.3,0.3-0.1,0.4c1,0.4,2,1.1,2.5,2.1c0.4,0.9,0.3,2.2-0.6,2.9c-0.5,0.4-1.4,0.4-1.6,1
				c-0.2,0.6,0.3,1.1,0.8,1.4c0.8,0.5,1.8,0.7,2.7,0.7c0.5,0,0.9-0.1,1.4-0.1c0.3,0,0.3-0.1,0.5,0.2c0.1,0.2,0.1,0.5,0.2,0.8
				c0.2,1.8-1,3.7-2.8,4.2c-1.9,0.4-3.9-0.7-4.6-2.5c-0.3-0.9-0.2-1.9-0.8-2.7c-0.4-0.6-1-0.9-1.7-1c-1.7-0.2-3.1,1.3-4,2.6
				c-1,1.5-2.3,3.8-4.5,3.3c-1.1-0.3-2-1.2-2.5-2.2c-0.2-0.5-0.6-1.4-0.4-1.9c0.3-0.7,1.2-0.8,1.9-1c0.9-0.2,1.8-0.5,2.3-1.3
				c0.5-0.6,0.6-1.3,0.2-2c-0.1-0.2-0.4,0-0.3,0.2c0.5,0.9-0.2,1.9-1,2.3c-0.8,0.4-1.8,0.5-2.7,0.8c-1.2,0.5-0.9,1.9-0.5,2.8
				c0.5,1.1,1.4,2.2,2.6,2.5c1.2,0.4,2.3-0.1,3.2-0.9c1.1-1.1,1.7-2.5,2.8-3.6c0.6-0.6,1.4-1.3,2.4-1.3c1.3-0.1,2,0.9,2.2,2
				c0.3,1.3,0.5,2.4,1.6,3.3c0.9,0.7,2.2,1.2,3.4,1c2.7-0.4,4.2-3.5,3.1-5.9c0-0.1-0.1-0.1-0.2-0.1c-0.8,0.2-1.6,0.2-2.4,0.1
				c-0.6-0.1-2-0.3-2.3-0.9c0-0.3,0-0.6,0-1c0.1,0,0.2-0.1,0.3-0.1c0.1,0,0.2-0.1,0.4-0.1c0.2-0.1,0.4-0.2,0.5-0.3
				c0.3-0.2,0.6-0.6,0.7-1c0.9-2.2-1-3.9-2.8-4.7c0,0.1-0.1,0.2-0.1,0.4c1.3,0.2,1.6,2.1,0.2,2.4c-0.7,0.1-1.4-0.5-2.2-0.4
				c-0.8,0.1-1.6,0.6-2.4,0.7c-1,0.2-2.1-0.1-2.9-0.7C18.4,83.8,18.2,84.1,18.4,84.2L18.4,84.2z"/>
		</g>
	</g>
</g>
<g>
	<g>
		<g>
			<path class="st0" d="M47.9,84.9c0.9,0.7,2.1,1,3.2,0.7c0.7-0.1,1.3-0.5,2-0.7c0.6-0.1,1,0,1.5,0.2c0.2,0.1,0.4,0.2,0.6,0.2
				c2,0.2,2.3-2.8,0.3-3.1c-0.2,0-0.3,0.3-0.1,0.4c1,0.4,2,1.1,2.5,2.1c0.4,0.9,0.3,2.2-0.6,2.9c-0.5,0.4-1.4,0.4-1.6,1
				c-0.2,0.6,0.3,1.1,0.8,1.4c0.8,0.5,1.8,0.7,2.7,0.7c0.5,0,0.9-0.1,1.4-0.1c0.3,0,0.3-0.1,0.5,0.2c0.1,0.2,0.1,0.5,0.2,0.8
				c0.2,1.8-1,3.7-2.8,4.2c-1.9,0.4-3.9-0.7-4.6-2.5c-0.3-0.9-0.2-1.9-0.8-2.7c-0.4-0.6-1-0.9-1.7-1c-1.7-0.2-3.1,1.3-4,2.6
				c-1,1.5-2.3,3.8-4.5,3.3c-1.1-0.3-2-1.2-2.5-2.2c-0.2-0.5-0.6-1.4-0.4-1.9c0.3-0.7,1.2-0.8,1.9-1c0.9-0.2,1.8-0.5,2.3-1.3
				c0.5-0.6,0.6-1.3,0.2-2c-0.1-0.2-0.4,0-0.3,0.2c0.5,0.9-0.2,1.9-1,2.3c-0.8,0.4-1.8,0.5-2.7,0.8c-1.2,0.5-0.9,1.9-0.5,2.8
				c0.5,1.1,1.4,2.2,2.6,2.5c1.2,0.4,2.3-0.1,3.2-0.9c1.1-1.1,1.7-2.5,2.8-3.6c0.6-0.6,1.4-1.3,2.4-1.3c1.3-0.1,2,0.9,2.2,2
				c0.3,1.3,0.5,2.4,1.6,3.3c0.9,0.7,2.2,1.2,3.4,1c2.7-0.4,4.2-3.5,3.1-5.9c0-0.1-0.1-0.1-0.2-0.1c-0.8,0.2-1.6,0.2-2.4,0.1
				c-0.6-0.1-2-0.3-2.3-0.9c0-0.3,0-0.6,0-1c0.1,0,0.2-0.1,0.3-0.1c0.1,0,0.2-0.1,0.4-0.1c0.2-0.1,0.4-0.2,0.5-0.3
				c0.3-0.2,0.6-0.6,0.7-1c0.9-2.2-1-3.9-2.8-4.7c0,0.1-0.1,0.2-0.1,0.4c1.3,0.2,1.6,2.1,0.2,2.4c-0.7,0.1-1.4-0.5-2.2-0.4
				c-0.8,0.1-1.6,0.6-2.4,0.7c-1,0.2-2.1-0.1-2.9-0.7C47.9,84.4,47.7,84.8,47.9,84.9L47.9,84.9z"/>
		</g>
	</g>
</g>
<g>
	<g>
		<g>
			<path class="st0" d="M76.5,84.8c0.9,0.7,2.1,1,3.2,0.7c0.7-0.1,1.3-0.5,2-0.7c0.6-0.1,1,0,1.5,0.2c0.2,0.1,0.4,0.2,0.6,0.2
				c2,0.2,2.3-2.8,0.3-3.1c-0.2,0-0.3,0.3-0.1,0.4c1,0.4,2,1.1,2.5,2.1c0.4,0.9,0.3,2.2-0.6,2.9c-0.5,0.4-1.4,0.4-1.6,1
				c-0.2,0.6,0.3,1.1,0.8,1.4c0.8,0.5,1.8,0.7,2.7,0.7c0.5,0,0.9-0.1,1.4-0.1c0.3,0,0.3-0.1,0.5,0.2c0.1,0.2,0.1,0.5,0.2,0.8
				c0.2,1.8-1,3.7-2.8,4.2c-1.9,0.4-3.9-0.7-4.6-2.5c-0.3-0.9-0.2-1.9-0.8-2.7c-0.4-0.6-1-0.9-1.7-1c-1.7-0.2-3.1,1.3-4,2.6
				c-1,1.5-2.3,3.8-4.5,3.3c-1.1-0.3-2-1.2-2.5-2.2c-0.2-0.5-0.6-1.4-0.4-1.9c0.3-0.7,1.2-0.8,1.9-1c0.9-0.2,1.8-0.5,2.3-1.3
				c0.5-0.6,0.6-1.3,0.2-2c-0.1-0.2-0.4,0-0.3,0.2c0.5,0.9-0.2,1.9-1,2.3C71,90,70.1,90,69.2,90.4c-1.2,0.5-0.9,1.9-0.5,2.8
				c0.5,1.1,1.4,2.2,2.6,2.5c1.2,0.4,2.3-0.1,3.2-0.9c1.1-1.1,1.7-2.5,2.8-3.6c0.6-0.6,1.4-1.3,2.4-1.3c1.3-0.1,2,0.9,2.2,2
				c0.3,1.3,0.5,2.4,1.6,3.3c0.9,0.7,2.2,1.2,3.4,1c2.7-0.4,4.2-3.5,3.1-5.9c0-0.1-0.1-0.1-0.2-0.1c-0.8,0.2-1.6,0.2-2.4,0.1
				c-0.6-0.1-2-0.3-2.3-0.9c0-0.3,0-0.6,0-1c0.1,0,0.2-0.1,0.3-0.1c0.1,0,0.2-0.1,0.4-0.1c0.2-0.1,0.4-0.2,0.5-0.3
				c0.3-0.2,0.6-0.6,0.7-1c0.9-2.2-1-3.9-2.8-4.7c0,0.1-0.1,0.2-0.1,0.4c1.3,0.2,1.6,2.1,0.2,2.4c-0.7,0.1-1.4-0.5-2.2-0.4
				c-0.8,0.1-1.6,0.6-2.4,0.7c-1,0.2-2.1-0.1-2.9-0.7C76.5,84.3,76.3,84.6,76.5,84.8L76.5,84.8z"/>
		</g>
	</g>
</g>
<g>
	<g>
		<g>
			<path class="st0" d="M44.5,71.3c0-0.6,0.4-0.2,0.7-0.2c0.3,0,0.6-0.1,0.8-0.3c0.3-0.3,0.4-0.6,0.4-1c0.1-0.6-0.1-2.1,1-1.9
				c0-0.1-0.1-0.1-0.1-0.2c-0.4,1.1-0.7,2.2-0.8,3.3c0,0.1,0.2,0.2,0.3,0.2c0.1-0.1,0.2-0.1,0.4-0.2c-0.1-0.1-0.2-0.1-0.3-0.2
				c-0.1,0.4-0.3,0.9-0.4,1.3c-0.1,0.2,0.1,0.3,0.3,0.2c0.3-0.2,0.6-0.2,0.8,0.3c-0.1,0.1,0,0.3,0.2,0.3c1.6-0.1,1.3,3.2,1.2,4.2
				c-0.2,1.5-0.6,2.9-1.3,4.1c-0.1,0.2,0.2,0.4,0.3,0.2c0.9-1.6,1.4-3.4,1.4-5.3c0-1.1,0.1-3.7-1.6-3.6c0.1,0.1,0.1,0.2,0.2,0.3
				c0.2-0.3,0.1-0.6-0.1-0.8c-0.4-0.3-0.8-0.1-1.2,0.1c0.1,0.1,0.2,0.1,0.3,0.2c0.1-0.4,0.3-0.9,0.4-1.3c0-0.2-0.1-0.3-0.3-0.2
				c-0.1,0.1-0.2,0.1-0.4,0.2c0.1,0.1,0.2,0.1,0.3,0.2c0.1-1.1,0.4-2.2,0.8-3.2c0-0.1,0-0.2-0.1-0.2c-1.3-0.3-1.3,1.3-1.5,2.2
				c0,0.2-0.1,0.7-0.3,0.8c-0.1,0.1-0.7,0.1-0.8,0.1c-0.2,0-0.2-0.1-0.4-0.1c-0.3,0.1-0.4,0.5-0.4,0.8
				C44.2,71.5,44.6,71.5,44.5,71.3L44.5,71.3z"/>
		</g>
	</g>
</g>
<g>
	<g>
		<g>
			<path class="st0" d="M72.7,73c-2.5,1.2-4.5,3.2-5.9,5.6c-0.1,0.2,0.2,0.4,0.3,0.2c1.3-2.4,3.3-4.3,5.7-5.5
				C73.1,73.2,72.9,72.9,72.7,73L72.7,73z"/>
		</g>
	</g>
</g>
<g>
	<g>
		<g>
			<path class="st0" d="M78.5,77.5c0.1,1.1-0.4,2.2-0.8,3.2c-0.4,0.9-0.9,1.9-1.4,2.7c-0.1,0.2,0.2,0.4,0.3,0.2c0.6-1,1.1-2,1.6-3.1
				c0.4-1,0.8-2,0.7-3C78.8,77.2,78.5,77.2,78.5,77.5L78.5,77.5z"/>
		</g>
	</g>
</g>
<g>
	<g>
		<g>
			<path class="st0" d="M20.5,85.1c0.3,1.4,0,2.9-0.7,4.1c-0.1,0.2,0.2,0.4,0.3,0.2c0.8-1.3,1.1-2.9,0.8-4.4
				C20.8,84.8,20.4,84.9,20.5,85.1L20.5,85.1z"/>
		</g>
	</g>
</g>
<g>
	<g>
		<g>
			<path class="st0" d="M21.6,84.8c0.4,1.9,1,3.7,1.7,5.6c0.1,0.2,0.4,0.1,0.4-0.1c-0.7-1.8-1.2-3.7-1.7-5.6
				C21.9,84.5,21.5,84.6,21.6,84.8L21.6,84.8z"/>
		</g>
	</g>
</g>
<g>
	<g>
		<g>
			<path class="st0" d="M49.9,85.7c0,1.9-0.5,3.6-1.6,5.2c-0.1,0.2,0.2,0.4,0.3,0.2c1.1-1.6,1.6-3.4,1.6-5.4
				C50.3,85.4,49.9,85.4,49.9,85.7L49.9,85.7z"/>
		</g>
	</g>
</g>
<g>
	<g>
		<g>
			<path class="st0" d="M51.8,85.5c0,1.9,0.4,3.6,1.1,5.4c0.1,0.2,0.4,0.1,0.4-0.1c-0.7-1.7-1-3.4-1-5.3
				C52.2,85.3,51.8,85.3,51.8,85.5L51.8,85.5z"/>
		</g>
	</g>
</g>
<g>
	<g>
		<g>
			<path class="st0" d="M77.8,85.4c0.3,1.6,0.5,3.4-0.3,4.9c-0.1,0.2,0.2,0.4,0.3,0.2c0.9-1.6,0.7-3.4,0.4-5.1
				C78.1,85,77.8,85.2,77.8,85.4L77.8,85.4z"/>
		</g>
	</g>
</g>
<g>
	<g>
		<g>
			<path class="st0" d="M80,85c0,2,0.5,4,1.4,5.8c0.1,0.2,0.4,0,0.3-0.2c-0.9-1.7-1.4-3.7-1.4-5.6C80.4,84.8,80,84.8,80,85L80,85z"
				/>
		</g>
	</g>
</g>
<g>
	<g>
		<g>
			<path class="st0" d="M8.5,81c0,1.5,1.1,2.6,2.3,3.3c1.7,1,3.6,1.6,5.5,1.8c0.2,0,0.3-0.3,0.1-0.4c-1.7-0.2-3.4-0.7-4.9-1.5
				c-1.3-0.6-2.7-1.7-2.7-3.3C8.9,80.7,8.5,80.7,8.5,81L8.5,81z"/>
		</g>
	</g>
</g>
<g>
	<g>
		<g>
			<path class="st0" d="M39.1,82.8c0.6-0.7,1.4,1.2,2,1.5c0.2,0.1,0.4,0,0.6,0c0.6-0.1,1.1-0.1,1.7,0.1c0.6,0.2,1.4,0.5,2,0
				c0.4-0.3,0.6-0.7,0.5-1.2c0-0.2-0.4-0.1-0.4,0.1c-0.1,0.2-0.1,0.5-0.2,0.7c-0.2,0.2-0.5,0.3-0.8,0.2c-0.3,0-0.5,0-0.7-0.1
				c-0.4-0.1-0.7-0.3-1.1-0.3c-0.3,0-0.6,0-0.9,0c-0.6,0.1-0.9,0.1-1.2-0.5c-0.4-0.6-1.1-1.6-1.8-0.8C38.7,82.7,39,83,39.1,82.8
				L39.1,82.8z"/>
		</g>
	</g>
</g>
<g>
	<g>
		<g>
			<path class="st0" d="M67.4,80.3c-0.4,3.3,4.4,4.2,6.8,4.2c0.2,0,0.2-0.4,0-0.4c-2.1,0-6.9-0.8-6.5-3.8
				C67.8,80.2,67.4,80.1,67.4,80.3L67.4,80.3z"/>
		</g>
	</g>
</g>
<g>
	<g>
		<g>
			<path class="st0" d="M69,83.6c-0.3,1.1,0.3,2.3,1.5,2.4c1,0,1.8-1,1.3-2c-0.1-0.2-0.4,0-0.3,0.2c0.4,0.8-0.4,1.6-1.2,1.4
				c-0.9-0.2-1.1-1.1-1-1.9C69.4,83.5,69,83.4,69,83.6L69,83.6z"/>
		</g>
	</g>
</g>
<g>
	<g>
		<g>
			<path class="st0" d="M70.1,84c-0.2,0.3-0.2,0.8,0,1.1c0.1,0.2,0.4,0,0.3-0.2c-0.1-0.2-0.1-0.5,0-0.7C70.6,84,70.3,83.9,70.1,84
				L70.1,84z"/>
		</g>
	</g>
</g>
<g>
	<g>
		<g>
			<path class="st0" d="M11.8,78.9c0.4-0.5,0.8,0.5,0.9,0.8c0.1,0.4,0,0.8-0.1,1.2c0,0.1,0.1,0.2,0.2,0c0.2-0.6,0.3-1.4-0.1-2
				c-0.2-0.3-0.7-0.6-1-0.2C11.6,78.9,11.7,79,11.8,78.9L11.8,78.9z"/>
		</g>
	</g>
</g>
<g>
	<g>
		<g>
			<path class="st0" d="M14.5,81.9c0-0.5,0.5-0.9,0.9-0.8c0.1,0,0.2-0.2,0-0.2c-0.6-0.1-1.2,0.4-1.2,1C14.3,82,14.5,82,14.5,81.9
				L14.5,81.9z"/>
		</g>
	</g>
</g>
<g>
	<g>
		<g>
			<path class="st0" d="M11.4,79.9c-0.2-0.1-0.2-0.3-0.1-0.5c-0.1,0-0.1,0-0.2,0c0.1,0.1,0.3,0.2,0.4,0.3
				C11.5,79.8,11.5,79.9,11.4,79.9C11.4,79.9,11.4,79.9,11.4,79.9C11.4,80,11.4,80,11.4,79.9c-0.1-0.1-0.4,0.1-0.2,0.3
				c0.2,0.3,0.6,0,0.7-0.2c0.1-0.4-0.3-0.6-0.6-0.8c-0.1,0-0.2,0-0.2,0c-0.3,0.3-0.2,0.9,0.1,1C11.4,80.3,11.6,80,11.4,79.9
				L11.4,79.9z"/>
		</g>
	</g>
</g>
<g>
	<g>
		<g>
			<path class="st0" d="M15.2,81.8c0.1-0.1,0.5,0.1,0.4,0.2c-0.1,0.2-0.4,0.1-0.5-0.1c0-0.2-0.4-0.1-0.4,0.1c0.1,0.5,1,0.6,1.2,0.1
				c0.2-0.6-0.6-1.1-1-0.6C14.7,81.7,15,82,15.2,81.8L15.2,81.8z"/>
		</g>
	</g>
</g>
<g>
	<g>
		<g>
			<path class="st0" d="M41,78.7c0.9,0.1,1.6,0.9,1.5,1.9c0,0.1,0.2,0.1,0.2,0c0.1-1-0.7-2-1.7-2C40.9,78.5,40.9,78.7,41,78.7
				L41,78.7z"/>
		</g>
	</g>
</g>
<g>
	<g>
		<g>
			<path class="st0" d="M44.1,80.8c0.2-0.5,0.8-0.6,1.2-0.4c0.1,0.1,0.2-0.1,0.1-0.2c-0.5-0.4-1.3-0.1-1.5,0.5
				C43.8,80.9,44,80.9,44.1,80.8L44.1,80.8z"/>
		</g>
	</g>
</g>
<g>
	<g>
		<g>
			<path class="st0" d="M40.8,79.9c0.2,0.1,0.4,0.2,0.4,0.5c0,0,0-0.1,0-0.1c-0.1,0.2-0.4,0.3-0.6,0.1c-0.2-0.2-0.1-0.5,0-0.6
				c0.2-0.1-0.1-0.4-0.3-0.3c-0.5,0.4-0.2,1.3,0.4,1.4c0.2,0,0.6-0.1,0.7-0.4c0-0.1-0.1-0.4-0.2-0.5c-0.1-0.1-0.2-0.2-0.4-0.3
				C40.7,79.5,40.6,79.8,40.8,79.9L40.8,79.9z"/>
		</g>
	</g>
</g>
<g>
	<g>
		<g>
			<path class="st0" d="M44.8,81.5C44.7,81.5,44.8,81.5,44.8,81.5c0-0.1,0-0.1,0-0.2c0.2-0.1,0.5,0.2,0.6,0.3c0-0.1,0-0.1,0-0.2
				C45.3,81.6,45.1,81.7,44.8,81.5c-0.1-0.1-0.3,0.2-0.1,0.4c0.4,0.2,0.8,0,1-0.3c0-0.1,0-0.2,0-0.2c-0.3-0.3-0.9-0.7-1.2-0.2
				c-0.2,0.3-0.1,0.8,0.3,0.7C45,81.9,45,81.5,44.8,81.5L44.8,81.5z"/>
		</g>
	</g>
</g>
<g>
	<g>
		<g>
			<path class="st0" d="M69.8,79c0.7,0.4,1.2,1.1,1.2,2c0,0.1,0.2,0.1,0.2,0c0-0.9-0.5-1.7-1.3-2.1C69.8,78.8,69.7,79,69.8,79
				L69.8,79z"/>
		</g>
	</g>
</g>
<g>
	<g>
		<g>
			<path class="st0" d="M72.6,81.2c0.5-0.6,1.4-0.7,2-0.2c0.1,0.1,0.2-0.1,0.1-0.2C74,80.2,73,80.3,72.4,81
				C72.4,81.1,72.5,81.3,72.6,81.2L72.6,81.2z"/>
		</g>
	</g>
</g>
<g>
	<g>
		<g>
			<path class="st0" d="M69.6,80c0.2,0,0.3,0.1,0.5,0.2c0.1,0.1,0.1,0.2,0,0.3c-0.4,0-0.4-0.6-0.3-0.9c0-0.2-0.3-0.2-0.4,0
				c0,0.3-0.1,0.7,0.2,1c0.2,0.2,0.5,0.3,0.7,0.2c0.2-0.1,0.4-0.4,0.2-0.7c-0.1-0.3-0.5-0.4-0.7-0.5C69.5,79.6,69.4,79.9,69.6,80
				L69.6,80z"/>
		</g>
	</g>
</g>
<g>
	<g>
		<g>
			<path class="st0" d="M73.3,81.4c0.4,0,0.7,0.1,0.9,0.4c0-0.1,0-0.2,0-0.3c-0.2,0.1-0.4,0.2-0.6,0.2c-0.1,0-0.2-0.2-0.1-0.3
				c0.2-0.2-0.1-0.4-0.3-0.3c-0.2,0.2-0.1,0.6,0.1,0.8c0.3,0.3,0.8,0.1,1.1-0.1c0.1-0.1,0.1-0.2,0-0.3c-0.3-0.3-0.7-0.5-1.2-0.5
				C73.1,81.1,73.1,81.4,73.3,81.4L73.3,81.4z"/>
		</g>
	</g>
</g>
<g>
	<g>
		<g>
			<path class="st0" d="M11.8,89.8c0.4,2.2,1.9,4.1,4.1,4.9c0.2,0.1,0.3-0.3,0.1-0.4c-2-0.7-3.5-2.5-3.8-4.6
				C12.2,89.4,11.8,89.5,11.8,89.8L11.8,89.8z"/>
		</g>
	</g>
</g>
<g>
	<g>
		<g>
			<path class="st0" d="M25.6,94.8c1.3,0.6,2.6-0.1,3.6-1c1.1-1,1.8-2.3,2-3.7c0-0.2-0.3-0.3-0.4-0.1c-0.2,1.1-0.7,2.2-1.5,3.1
				c-0.9,0.9-2.3,2-3.6,1.4C25.6,94.3,25.4,94.7,25.6,94.8L25.6,94.8z"/>
		</g>
	</g>
</g>
<g>
	<g>
		<g>
			<path class="st0" d="M41,90.7c-0.3,1.3,0.9,2.2,2,2.6c1.4,0.5,3,0.3,4.3-0.5c0.2-0.1,0-0.4-0.2-0.3c-1,0.6-2.1,0.8-3.3,0.6
				c-1.1-0.2-2.7-0.9-2.4-2.3C41.4,90.6,41.1,90.5,41,90.7L41,90.7z"/>
		</g>
	</g>
</g>
<g>
	<g>
		<g>
			<path class="st0" d="M53.6,93.1c0.9,1,2.3,1.3,3.6,1c1.5-0.4,2.6-1.7,3.4-3.1c0.1-0.2-0.2-0.4-0.3-0.2c-0.7,1.2-1.6,2.4-3,2.8
				c-1.2,0.4-2.6,0.2-3.4-0.8C53.7,92.7,53.4,93,53.6,93.1L53.6,93.1z"/>
		</g>
	</g>
</g>
<g>
	<g>
		<g>
			<path class="st0" d="M70.7,90.1c-0.5,2.2,0.8,4.4,2.9,5.1c0.2,0.1,0.3-0.3,0.1-0.4c-1.9-0.7-3-2.7-2.6-4.7
				C71.1,90,70.7,89.9,70.7,90.1L70.7,90.1z"/>
		</g>
	</g>
</g>
<g>
	<g>
		<g>
			<path class="st0" d="M85.5,96c1.7-1.2,3.7-3,2.9-5.4c-0.1-0.2-0.4-0.1-0.4,0.1c0.7,2.2-1.2,3.8-2.7,4.9
				C85.1,95.8,85.3,96.1,85.5,96L85.5,96z"/>
		</g>
	</g>
</g>
<g>
	<g>
		<g>
			<path class="st0" d="M20.8,84.8c-0.2-0.2-0.5-0.5-0.5-0.8c-0.1-0.3,0.1-0.7,0.5-0.6c0.3,0,0.5,0.2,0.6,0.5
				C21.4,84.2,21.2,84.5,20.8,84.8c-0.1,0.1,0,0.4,0.2,0.3c0.4-0.3,0.8-0.8,0.7-1.3c-0.1-0.5-0.4-0.8-0.9-0.8
				c-0.4,0-0.9,0.2-0.9,0.7c-0.1,0.5,0.3,1.1,0.6,1.4C20.7,85.2,21,84.9,20.8,84.8L20.8,84.8z"/>
		</g>
	</g>
</g>
<g>
	<g>
		<g>
			<path class="st0" d="M50.6,85.6c-0.3-0.7-0.6-1.8,0.2-2.2c0.4-0.2,0.8,0,0.8,0.5c0,0.5-0.4,0.8-0.7,1.1c-0.2,0.2,0.1,0.4,0.3,0.3
				c0.4-0.4,0.9-0.9,0.7-1.6c-0.1-0.5-0.4-0.8-0.9-0.8c-0.5,0-0.9,0.3-1.1,0.7c-0.3,0.6,0,1.4,0.2,2C50.3,85.9,50.7,85.8,50.6,85.6
				L50.6,85.6z"/>
		</g>
	</g>
</g>
<g>
	<g>
		<g>
			<path class="st0" d="M78.9,85c-0.8-0.2-1-1.5,0-1.6c0.9-0.1,1,1.1,0.2,1.3c-0.2,0-0.1,0.4,0.1,0.4c0.5-0.1,0.8-0.6,0.8-1.1
				C80,83.3,79.5,83,78.9,83c-0.5,0-1,0.4-1,1c-0.1,0.6,0.4,1.2,1,1.3C79.1,85.4,79.2,85.1,78.9,85L78.9,85z"/>
		</g>
	</g>
</g>
<g>
	<g>
		<g>
			<path class="st0" d="M21.4,84c3.6,2.4,7.6,4.1,11.9,4.8c3.9,0.7,8,0.7,11.8-0.5c2-0.7,3.8-1.7,5.2-3.2c0.1-0.1,0-0.2-0.1-0.1
				c-3.5,3.7-8.9,4.4-13.7,4.1c-5.4-0.4-10.5-2.2-15-5.2C21.4,83.8,21.3,84,21.4,84L21.4,84z"/>
		</g>
	</g>
</g>
<g>
	<g>
		<g>
			<path class="st0" d="M51.3,85.3c4.1,2.8,9.1,3.5,13.9,3.5c4.4,0,9.1-0.6,12.4-3.7c0.1-0.1,0-0.2-0.1-0.1
				c-3.3,3.1-8.1,3.7-12.5,3.7c-4.7,0-9.6-0.8-13.6-3.5C51.3,85.1,51.2,85.3,51.3,85.3L51.3,85.3z"/>
		</g>
	</g>
</g>
<g>
	<g>
		<g>
			<path class="st0" d="M78.2,85.3c4.5,2.4,9.8,2.1,14.5,0.5c4.3-1.5,8.6-4.1,10.6-8.4c0-0.1-0.1-0.2-0.2-0.1
				c-2,4.2-6.2,6.9-10.5,8.3c-4.6,1.6-9.9,1.9-14.4-0.5C78.2,85,78.1,85.2,78.2,85.3L78.2,85.3z"/>
		</g>
	</g>
</g>
<g>
	<g>
		<g>
			<path class="st0" d="M20.5,83c-0.2-0.4-0.4-0.8-0.4-1.3c0-0.2,0-0.5,0.1-0.7c0.1-0.4,0.1-0.6,0.5-0.6c0.4,0,0.4,0.1,0.4,0.5
				c0,0.2,0,0.4,0,0.7c0,0.5-0.2,1-0.5,1.4c0.1,0,0.1,0,0.2,0.1c0.3-0.7,0.9-1.9,1.7-2c0.3-0.1,0.5,0,0.6,0.3
				c0.5,0.2,0.6,0.5,0.1,0.9c-0.1,0.1-0.3,0.3-0.5,0.4c-0.3,0.2-0.6,0.3-0.9,0.3c-0.1,0-0.3,0-0.5,0.1c-0.3,0.1-0.4,0-0.4-0.4
				c-0.3-0.5-0.2-0.3,0.1-0.7c0.1-0.1,0.1-0.2,0.2-0.3c0.1-0.2,0.2-0.5,0.2-0.7c0-0.4,0-0.7,0.1-1c0-0.2,0.1-0.5,0.3-0.6
				c0.1,0,0.5,0.3,0.5,0.4c0.1,0,0.1,0,0.1-0.1c0.3-0.1,0.7-0.3,1-0.4c0,0,0.1-0.1,0.1-0.1c-0.1-0.2-0.2-0.5-0.2-0.7
				c0.1-0.2,0.3-0.4,0.6-0.4c0.2-0.1,0.5-0.1,0.8-0.1c0.1,0,0.1-0.1,0.1-0.1c-0.1-0.3-0.1-0.6-0.1-0.9c0.1-0.4,0.4-0.5,0.9-0.3
				c0.1,0.1,0.2,0,0.2-0.1c-0.2-0.3-0.6-0.4-0.9-0.2c-0.2,0.1-0.3,0.3-0.3,0.5c-0.1,0.2,0.1,0.7-0.1,0.9c-0.1,0.1-0.7,0.1-0.8,0.2
				c-0.2,0.1-0.4,0.3-0.5,0.6c-0.1,0.4,0.1,0.7,0.4,0.8c0.1,0,0.1-0.1,0.1-0.1c-0.5-0.8-1.6-0.3-1.4,0.6c0,0,0.1-0.1,0.1-0.1
				c-0.2-0.2-0.5-0.4-0.7-0.5c0,0-0.1,0-0.1,0c-0.3,0.6-0.2,1.3-0.4,2c-0.1,0.5-0.5,0.7-0.7,1.2c-0.1,0.1-0.1,0.3-0.1,0.4
				c0.1,1.1,2.4,0.1,2.8-0.2c0.5-0.5,0.9-1.6-0.1-1.8c-1.2-0.2-2.1,1.3-2.5,2.2c0,0.1,0.1,0.2,0.2,0.1c0.4-0.7,0.6-1.4,0.5-2.2
				c0-0.3-0.1-0.9-0.5-0.9c-0.5-0.1-0.7,0.9-0.8,1.2c-0.1,0.7,0,1.4,0.4,2C20.4,83.2,20.6,83.2,20.5,83L20.5,83z"/>
		</g>
	</g>
</g>
<g>
	<g>
		<g>
			<path class="st0" d="M50.1,83.5c-0.2-0.1-0.4-0.3-0.5-0.6c-0.3-0.5-0.2-0.7,0.3-0.6c0.4-0.2,0.5-0.1,0.5,0.2c0,0.2,0.1,0.4,0,0.7
				c0,0.1,0.1,0.1,0.2,0c0.2-0.5,0.4-1.1,0.8-1.4c0.2-0.2,0.5-0.4,0.9-0.4c0.2,0,0.3,0,0.5,0.1c0.4,0.1,0.5,0.3,0.4,0.7
				c0.2,0.4,0,0.7-0.4,0.9c-0.1,0.1-0.3,0.2-0.5,0.2c-0.2,0.1-0.5,0.1-0.7,0.1c-1.1,0-1.7-2.5-0.3-2.5c0.1,0,0.1-0.1,0.1-0.1
				c0-0.3-0.1-0.6-0.1-0.9c0.1-0.4,0.5-1.1,1.1-0.7c0.1,0,0.1,0,0.1-0.1c-0.1-0.3-0.1-0.5,0-0.8c0.2-0.4,0.4-0.5,0.8-0.2
				c0.1,0.1,0.2,0,0.1-0.1c-0.2-0.7,0.5-1.3,1.2-1.2c0.1,0,0.2-0.1,0-0.2c-0.8-0.2-1.6,0.5-1.4,1.4c0,0,0.1-0.1,0.1-0.1
				c-0.2-0.3-0.6-0.3-0.9,0c-0.3,0.3-0.3,0.8-0.2,1.2c0,0,0.1-0.1,0.1-0.1c-0.4-0.2-0.9-0.1-1.2,0.2C51,79.5,51,79.9,51,80.3
				c0,0.4,0,0.2-0.2,0.4c-0.6,0.4-0.7,1-0.5,1.7c0.2,0.7,0.4,1.2,1.2,1.1c0.6-0.1,1.5-0.3,1.8-0.9c0.2-0.4,0.2-1-0.2-1.2
				c-1.3-0.9-2.3,0.8-2.6,1.8c0.1,0,0.1,0,0.2,0c0-0.5-0.3-2.2-1.1-1.6c-0.8,0.6-0.1,1.7,0.5,2.1C50.1,83.7,50.2,83.6,50.1,83.5
				L50.1,83.5z"/>
		</g>
	</g>
</g>
<g>
	<g>
		<g>
			<path class="st0" d="M50.6,82.5c-0.2-0.9,0.7-1.7,1.6-1.5c0.1,0,0.1,0,0.1-0.1c0.3-0.9,0.6-1.1,1.1-0.5c0,0.1,0.2,0,0.2-0.1
				c0.4,0,0.7,0,1,0c0,0.1,0.2,0.1,0.2,0c0.1-0.8,1.1-1,1.7-0.5c0.2,0.1,0.4,0.4,0.4,0.6c0.1,0.1,0.1,0.2-0.1,0.2
				c-0.2,0.1-0.2,0,0.1-0.4c0.3-0.4,1-0.5,1.4-0.1c0.4,0.4,0.3,1.2-0.2,1.6c-0.1,0.1,0,0.2,0.1,0.2c0.7-0.5,0.7-1.7-0.1-2.1
				c-0.5-0.2-1,0-1.4,0.3c-0.2,0.2-0.5,0.7-0.2,1.1c0.2,0.3,0.4,0.2,0.6-0.1c0.2-0.4-0.1-1-0.3-1.3c-0.6-0.8-2-0.7-2.2,0.5
				c0.1,0,0.1,0,0.2,0c0-1.1-1.5-1.1-1.4,0c0.1,0,0.1,0,0.2-0.1c-0.2-0.3-0.6-0.5-1-0.3c-0.2,0.1-0.3,0.2-0.4,0.4c0,0,0,0.4-0.1,0.4
				c-0.1,0-0.5,0-0.6,0c-0.2,0.1-0.5,0.2-0.7,0.4c-0.3,0.4-0.5,0.8-0.4,1.3C50.4,82.6,50.6,82.6,50.6,82.5L50.6,82.5z"/>
		</g>
	</g>
</g>
<g>
	<g>
		<g>
			<path class="st0" d="M79.3,82.9c-0.3-0.5-0.2-1.2,0.2-1.6c0.3-0.3,0.6-0.1,0.6,0.3c0,0.4-0.2,0.7-0.4,1c0,0,0.1,0.1,0.1,0.1
				c0.2-0.2,0.4-0.5,0.8-0.6c0.2-0.1,0.4-0.2,0.7-0.1c0.6,0.4,0.7,0.8,0.4,1.1c-0.4,0.5-1.8,0.7-1.9-0.3c-0.1-0.6,0.4-1.2,0.8-1.6
				c0.2-0.2,0.4-0.3,0.6-0.5c0.2-0.1,1.5-0.5,1.3,0.2c0.1,0,0.1,0,0.2,0c-0.1-0.2-0.1-0.4,0-0.7c-0.1-0.6,0.2-0.7,1-0.2
				c0,0.1,0.1,0.2,0.2,0c0.1-0.2,0.1-0.3,0.3-0.5c0.3-0.4,0.6-0.3,1.2,0.3c0,0.1,0.1,0.2,0.2,0c0.1-0.4-0.2-0.8-0.6-0.9
				c-0.6-0.1-1,0.5-1.2,1c0.1,0,0.1,0,0.2,0c0.1-0.5-0.3-0.9-0.8-0.8c-0.7,0.2-0.7,1.1-0.6,1.7c0,0.1,0.2,0.1,0.2,0
				c0.1-0.4-0.2-0.6-0.5-0.6c-0.6-0.1-1.2,0.2-1.6,0.6c-0.5,0.5-1.6,2.1-0.7,2.6c0.6,0.4,2.3-0.1,2.1-1c-0.1-0.4-0.5-0.7-0.9-0.7
				c-0.6-0.1-1.1,0.4-1.5,0.8c-0.1,0.1,0.1,0.2,0.1,0.1c0.5-0.6,0.6-1.2,0.3-1.9c0,0-0.1-0.1-0.1,0c-0.9,0.3-1.3,1.4-0.8,2.2
				C79.2,83,79.4,83,79.3,82.9L79.3,82.9z"/>
		</g>
	</g>
</g>
<g>
	<g>
		<g>
			<path class="st0" d="M80.3,81.8c-0.7-0.5-0.6-1.7,0.1-2.1c0.1,0,0.1-0.1,0-0.2c-0.2-0.1-0.4-0.3-0.5-0.6c-0.1-0.1-0.2,0-0.2,0.1
				c0.1,0.3,0.3,0.5,0.6,0.6c0-0.1,0-0.1,0-0.2c-0.8,0.5-1,1.8-0.2,2.4C80.2,82,80.4,81.9,80.3,81.8L80.3,81.8z"/>
		</g>
	</g>
</g>
<g>
	<g>
		<g>
			<path class="st0" d="M79.1,83.4C79.1,83.4,79.2,83.3,79.1,83.4c-0.1,0-0.1,0-0.1,0c-0.1,0.1-0.1,0.1-0.2,0.2
				c-0.1,0.1-0.1,0.3-0.1,0.5c0,0.4,0.2,0.7,0.5,0.8c0.1,0,0.2-0.1,0-0.2c-0.3-0.1-0.4-0.5-0.4-0.8c0-0.1,0.1-0.3,0.2-0.4
				c0.1-0.1,0.2-0.1,0.3-0.2c0.1-0.3-0.5-0.3-0.4,0C78.9,83.6,79.1,83.5,79.1,83.4L79.1,83.4z"/>
		</g>
	</g>
</g>
<g>
	<g>
		<g>
			<path class="st0" d="M50.6,83.3c0.5,0.8,0.3,1.8-0.5,2.3c-0.1,0.1,0,0.2,0.1,0.2c0.8-0.6,1.1-1.7,0.5-2.6
				C50.7,83.1,50.6,83.2,50.6,83.3L50.6,83.3z"/>
		</g>
	</g>
</g>
<g>
	<g>
		<g>
			<path class="st0" d="M20.8,83.1c-0.5,0.6-0.4,1.5,0.2,2c0.1,0.1,0.2-0.1,0.1-0.1c-0.5-0.4-0.6-1.2-0.2-1.8
				C21,83.1,20.8,83,20.8,83.1L20.8,83.1z"/>
		</g>
	</g>
</g>
<g>
	<g>
		<g>
			<path class="st0" d="M20.8,84.9c0.4,1.4,0.5,2.9,0.1,4.3c0,0.1,0.1,0.2,0.2,0c0.4-1.5,0.4-3-0.1-4.4
				C20.9,84.8,20.8,84.8,20.8,84.9L20.8,84.9z"/>
		</g>
	</g>
</g>
<g>
	<g>
		<g>
			<path class="st0" d="M21.2,85c0.5,1.3,0.7,2.7,0.7,4.1c0,0.1,0.2,0.1,0.2,0c0-1.4-0.2-2.8-0.7-4.1C21.4,84.9,21.2,84.9,21.2,85
				L21.2,85z"/>
		</g>
	</g>
</g>
<g>
	<g>
		<g>
			<path class="st0" d="M50.2,85.5c0.2,1.4,0.2,2.9,0,4.3c0,0.1,0.2,0.2,0.2,0c0.3-1.5,0.3-3,0-4.4C50.4,85.4,50.2,85.4,50.2,85.5
				L50.2,85.5z"/>
		</g>
	</g>
</g>
<g>
	<g>
		<g>
			<path class="st0" d="M51.4,85.5c0,0.9-0.1,1.7-0.1,2.6c0,0.4-0.2,1.3,0,1.7c0,0,0,0,0.1,0c0.1,0,0.1,0,0.2-0.1c0,0,0-0.1,0-0.1
				c0,0,0,0,0,0c0-0.1-0.2,0-0.2,0.1c-0.1-0.2,0.1-0.8,0.1-1c0-0.3,0-0.7,0.1-1c0-0.7,0.1-1.4,0.1-2.2
				C51.6,85.4,51.4,85.4,51.4,85.5L51.4,85.5z"/>
		</g>
	</g>
</g>
<g>
	<g>
		<g>
			<path class="st0" d="M78.2,85.4c0.5,1.4,0.7,2.9,0.5,4.4c0,0.1,0.2,0.1,0.2,0c0.1-1.5,0-3-0.6-4.4C78.4,85.2,78.2,85.3,78.2,85.4
				L78.2,85.4z"/>
		</g>
	</g>
</g>
<g>
	<g>
		<g>
			<path class="st0" d="M79.7,85c-0.4,1.5-0.4,3,0,4.4c0,0.1,0.2,0.1,0.2,0c-0.4-1.4-0.3-2.9,0-4.3C79.9,85,79.8,84.9,79.7,85
				L79.7,85z"/>
		</g>
	</g>
</g>
<g>
	<g>
		<g>
			<path class="st0" d="M68.7,92.6c0.3-0.8,1.1-1.2,1.9-1.1c0.1,0,0.2-0.2,0-0.2c-0.9-0.1-1.8,0.4-2.1,1.2
				C68.5,92.7,68.6,92.7,68.7,92.6L68.7,92.6z"/>
		</g>
	</g>
</g>
<g>
	<g>
		<g>
			<path class="st0" d="M69.5,94.1c0.2-0.7,0.7-1.3,1.3-1.6c0.1-0.1,0-0.2-0.1-0.2c-0.7,0.4-1.2,1-1.4,1.7
				C69.3,94.2,69.4,94.2,69.5,94.1L69.5,94.1z"/>
		</g>
	</g>
</g>
<g>
	<g>
		<g>
			<path class="st0" d="M70.5,95.3c0.1-0.6,0.5-1.2,1-1.4c0.1-0.1,0-0.2-0.1-0.2c-0.6,0.3-1,0.9-1.1,1.6
				C70.3,95.4,70.5,95.4,70.5,95.3L70.5,95.3z"/>
		</g>
	</g>
</g>
<g>
	<g>
		<g>
			<path class="st0" d="M71.9,96c0.1-0.3,0.3-0.6,0.5-0.9c0.1-0.1-0.1-0.2-0.2-0.1c-0.1,0.3-0.3,0.6-0.5,0.9
				C71.7,96,71.8,96.1,71.9,96L71.9,96z"/>
		</g>
	</g>
</g>
<g>
	<g>
		<g>
			<path class="st0" d="M86.9,94.7c0.4,0.4,0.9,0.5,1.4,0.4c0.1,0,0.1-0.2,0-0.2c-0.5,0.1-0.9-0.1-1.2-0.4
				C86.9,94.5,86.8,94.6,86.9,94.7L86.9,94.7z"/>
		</g>
	</g>
</g>
<g>
	<g>
		<g>
			<path class="st0" d="M87.8,93.2c0.2,0.6,0.9,1,1.5,0.9c0.1,0,0.1-0.2,0-0.2c-0.6,0.1-1.1-0.3-1.3-0.8
				C87.9,93.1,87.8,93.1,87.8,93.2L87.8,93.2z"/>
		</g>
	</g>
</g>
<g>
	<g>
		<g>
			<path class="st0" d="M88.6,91.9c0.5-0.2,1-0.1,1.4,0.3c0.1,0.1,0.2,0,0.1-0.1c-0.4-0.5-1-0.6-1.6-0.3
				C88.4,91.8,88.5,92,88.6,91.9L88.6,91.9z"/>
		</g>
	</g>
</g>
<g>
	<g>
		<g>
			<path class="st0" d="M103.2,94.6c7.2,0.1,14.5,0,21.7-0.4c0.1,0,0.1-0.2,0-0.2c-7.2,0.4-14.5,0.5-21.7,0.4
				C103.1,94.4,103.1,94.6,103.2,94.6L103.2,94.6z"/>
		</g>
	</g>
</g>
<g>
	<g>
		<g>
			<path class="st0" d="M113,93.6c1.9,0,3.8-0.1,5.7-0.1c0.1,0,0.1-0.2,0-0.2c-1.9,0-3.8,0.1-5.7,0.1
				C112.9,93.4,112.9,93.6,113,93.6L113,93.6z"/>
		</g>
	</g>
</g>
<g>
	<g>
		<g>
			<path class="st0" d="M95.5,98.7c11.9-0.5,23.7-0.7,35.6-0.5c3.4,0,6.7,0.1,10.1,0.2c0.1,0,0.1-0.2,0-0.2
				c-11.9-0.3-23.7-0.3-35.6,0c-3.4,0.1-6.7,0.2-10.1,0.3C95.4,98.6,95.4,98.7,95.5,98.7L95.5,98.7z"/>
		</g>
	</g>
</g>
<g>
	<g>
		<g>
			<path class="st0" d="M65.8,96.3c2.9,0,5.7,0,8.6,0c0.1,0,0.1-0.2,0-0.2c-2.9,0-5.7,0-8.6,0C65.6,96.1,65.6,96.3,65.8,96.3
				L65.8,96.3z"/>
		</g>
	</g>
</g>
<g>
	<g>
		<g>
			<path class="st0" d="M38.1,96c1.4,0,2.7,0,4.1,0c0.1,0,0.1-0.2,0-0.2c-1.4,0-2.7,0-4.1,0C38,95.8,38,96,38.1,96L38.1,96z"/>
		</g>
	</g>
</g>
<g>
	<g>
		<g>
			<path class="st0" d="M6.9,94.9c2.3,0.1,4.6,0.2,6.9,0.3c0.1,0,0.1-0.2,0-0.2c-2.3-0.1-4.6-0.2-6.9-0.3
				C6.8,94.8,6.8,94.9,6.9,94.9L6.9,94.9z"/>
		</g>
	</g>
</g>
<g>
	<g>
		<g>
			<path class="st0" d="M8.1,94.2c0.3,0,0.6,0,0.9,0c0.1,0,0.1-0.2,0-0.2c-0.3,0-0.6,0-0.9,0C8,94,8,94.2,8.1,94.2L8.1,94.2z"/>
		</g>
	</g>
</g>
<g>
	<g>
		<g>
			<path class="st0" d="M38.1,95.3c0.5,0,0.9,0,1.4,0c0.1,0,0.1-0.2,0-0.2c-0.5,0-0.9,0-1.4,0C38,95.1,38,95.3,38.1,95.3L38.1,95.3z
				"/>
		</g>
	</g>
</g>
<g>
	<g>
		<g>
			<path class="st0" d="M66.2,95.4c0.5,0,1,0,1.5,0c0.1,0,0.1-0.2,0-0.2c-0.5,0-1,0-1.5,0C66.1,95.2,66.1,95.4,66.2,95.4L66.2,95.4z
				"/>
		</g>
	</g>
</g>
<g>
	<g>
		<g>
			<path class="st0" d="M12.8,73.2c0.5-0.4,1.2-0.4,1.7,0c0.1,0.1,0.2-0.1,0.1-0.2c-0.6-0.4-1.3-0.4-1.9,0
				C12.7,73.1,12.7,73.3,12.8,73.2L12.8,73.2z"/>
		</g>
	</g>
</g>
<g>
	<g>
		<g>
			<path class="st0" d="M16,74.1c0.2-0.3,0.6-0.3,0.9-0.1c0.1,0.1,0.2-0.1,0.1-0.1c-0.4-0.3-0.9-0.2-1.2,0.1
				C15.8,74.1,16,74.2,16,74.1L16,74.1z"/>
		</g>
	</g>
</g>
<g>
	<g>
		<g>
			<path class="st0" d="M41.5,73.5c0.6-0.3,1.1-0.5,1.8-0.6c0.1,0,0.1-0.2,0-0.2c-0.7,0.1-1.3,0.3-1.9,0.6
				C41.3,73.4,41.4,73.6,41.5,73.5L41.5,73.5z"/>
		</g>
	</g>
</g>
<g>
	<g>
		<g>
			<path class="st0" d="M47.3,74.4c0.7,0.6,1.2,1.5,1.1,2.5c0,0.1,0.2,0.1,0.2,0c0-1-0.4-2-1.2-2.7C47.3,74.2,47.2,74.3,47.3,74.4
				L47.3,74.4z"/>
		</g>
	</g>
</g>
<g>
	<g>
		<g>
			<path class="st0" d="M75.1,74c0.2,0,0.4,0.1,0.5,0.3c0.1,0.1,0.2,0,0.2-0.1c-0.1-0.2-0.4-0.4-0.7-0.4C75,73.8,75,74,75.1,74
				L75.1,74z"/>
		</g>
	</g>
</g>
<g>
	<g>
		<g>
			<path class="st0" d="M77,75c0,0.1,0.1,0.2,0.1,0.3c0.1,0.1,0.2,0,0.2-0.1c0-0.1-0.1-0.2-0.1-0.3C77.1,74.8,77,74.9,77,75L77,75z"
				/>
		</g>
	</g>
</g>
<g>
	<g>
		<g>
			<path class="st0" d="M40.8,69.8c0.7,0.7,1,1.6,0.9,2.5c0,0.1,0.2,0.2,0.2,0c0.1-1-0.2-2-1-2.7C40.9,69.6,40.8,69.7,40.8,69.8
				L40.8,69.8z"/>
		</g>
	</g>
</g>
<g>
	<g>
		<g>
			<path class="st0" d="M48.8,73.5c0.4-0.4,0.9-0.6,1.4-0.6c0.4,0,1.2,0,1.2,0.5c0,0.4-0.5,0.8-0.8,1c-0.4,0.2-0.9,0.3-1.4,0.1
				c-0.1,0-0.2,0.1,0,0.2c1.1,0.4,2.3-0.4,2.5-1.6c0,0,0-0.1,0-0.1c-0.9-0.6-2.1-0.4-2.9,0.3C48.6,73.5,48.7,73.6,48.8,73.5
				L48.8,73.5z"/>
		</g>
	</g>
</g>
<g>
	<g>
		<g>
			<path class="st0" d="M49.4,74.5c-0.3-0.1,0.3-0.5,0.4-0.5c0.2-0.1,0.3-0.2,0.5-0.2c0.4-0.2,0.8-0.2,1.2-0.3c0.1,0,0.1-0.2,0-0.2
				c-0.7,0.1-1.5,0.3-2,0.7c-0.2,0.2-0.4,0.6-0.1,0.7C49.4,74.7,49.5,74.6,49.4,74.5L49.4,74.5z"/>
		</g>
	</g>
</g>
<g>
	<g>
		<g>
			<path class="st0" d="M11.7,73.1c0-1-0.1-1.9-0.5-2.9c0-0.1-0.2-0.1-0.2,0c0.4,0.9,0.5,1.9,0.5,2.8C11.5,73.2,11.7,73.2,11.7,73.1
				L11.7,73.1z"/>
		</g>
	</g>
</g>
<g>
	<g>
		<g>
			<path class="st0" d="M18.2,74.3c0.8-0.6,1.4-1.4,1.7-2.3c0-0.1-0.1-0.2-0.2,0c-0.3,0.9-0.9,1.7-1.6,2.2
				C18,74.2,18.1,74.4,18.2,74.3L18.2,74.3z"/>
		</g>
	</g>
</g>
<g>
	<g>
		<g>
			<path class="st0" d="M73,73.2c0.8-1,1.1-2.3,0.8-3.5c0-0.1-0.2-0.1-0.2,0c0.2,1.2,0,2.4-0.8,3.4C72.8,73.1,73,73.3,73,73.2
				L73,73.2z"/>
		</g>
	</g>
</g>
<g>
	<g>
		<g>
			<path class="st0" d="M78.7,77.5c0.1-1,1.3-1.6,2.2-1.2c0.1,0.1,0.2-0.1,0.1-0.2c-1-0.5-2.3,0.2-2.5,1.3
				C78.5,77.6,78.7,77.6,78.7,77.5L78.7,77.5z"/>
		</g>
	</g>
</g>
<g>
	<g>
		<g>
			<path class="st0" d="M10.8,92.1c0.1-0.1,0.1-0.2,0.2-0.4c0.2-0.5,0.5-0.4,0.9,0.2c0,0.1-0.4,0.3-0.5,0.4c-0.2,0.3-0.4,0.6-0.4,1
				c0,0,0,0.1,0.1,0.1c0.4,0.1,0.6,0,0.9-0.2c0.1-0.1,0.2-0.1,0.3-0.2c0.3-0.2,0.5,0,0.7,0.6c0,0.2-0.5,0.7-0.7,0.8c0,0,0,0.1,0,0.1
				c0.2,0.2,0.4,0.2,0.7,0.2c0.1,0,0.3-0.1,0.4-0.2c0.1-0.1,0.2-0.2,0.3-0.2c0.2-0.2,0.3-0.1,0.3,0.2c0.2,0.2,0.2,0.4,0,0.4
				c-0.1,0.1,0,0.2,0.1,0.2c0.3-0.2,0.8-0.5,0.7-0.9c-0.1-0.4-0.5-0.4-0.8-0.3c-0.3,0.1-0.5,0.4-0.8,0.6c-0.3,0.2-0.5,0.1-0.4-0.2
				c0-0.2,0.3-0.4,0.4-0.5c0.2-0.3,0.6-0.6,0.2-1c-0.4-0.4-0.9,0.1-1.3,0.2c-0.5,0.2-0.9,0-0.6-0.4c0.3-0.4,0.4-0.3,0.7-0.6
				c0.1-0.1,0.2-0.2,0.2-0.4c0-0.3-0.4-0.6-0.7-0.6c-0.5,0-0.8,0.5-1,0.9C10.6,92.1,10.8,92.2,10.8,92.1L10.8,92.1z"/>
		</g>
	</g>
</g>
<g>
	<g>
		<g>
			<path class="st0" d="M29,95.4c-0.2-0.2-0.8-0.6-0.7-1c0.2-0.6,0.8,0.3,0.9,0.4c0.2,0.1,0.4,0.2,0.6,0.2c0.6-0.1,0.9-0.8,0.4-1.2
				c-0.1-0.1-0.2-0.1-0.3-0.2c-0.4-0.1-0.2-0.3,0.5-0.6c0.2,0.1,0.3,0.2,0.5,0.4c0.1,0,0.2,0,0.3-0.1c0.2-0.2,0.2-0.4,0.1-0.6
				c0-0.2-0.2-0.2-0.2-0.4c-0.2-0.2-0.3-0.4-0.4-0.6c0.5-0.4,0.8-0.3,1,0.1c0.1,0.1,0.2,0,0.2-0.1c-0.2-0.3-0.5-0.8-1-0.6
				c-0.3,0.1-0.4,0.3-0.3,0.6c0,0.2,0.1,0.4,0.3,0.5c0.1,0.1,0.1,0.2,0.2,0.2c0,0.2-0.1,0.5-0.1,0.7c0,0-0.2-0.2-0.3-0.2
				c-0.3-0.2-0.8-0.3-1,0.1c-0.1,0.2-0.1,0.4,0,0.6c0.3,0.3,0.5-0.1-0.1,0.5c-0.7,0.7-0.1,0.4-0.5,0.2c-0.2-0.1-0.2-0.2-0.4-0.3
				c-0.3,0-0.5,0.1-0.5,0.4c0,0.5,0.5,1,0.8,1.2C29,95.6,29.1,95.5,29,95.4L29,95.4z"/>
		</g>
	</g>
</g>
<g>
	<g>
		<g>
			<path class="st0" d="M40,92.6c0.3-0.4,0.8-0.5,1.3-0.4c0.1,0,0.2-0.1,0-0.2c-0.5-0.1-1.1,0.1-1.5,0.5
				C39.8,92.6,39.9,92.7,40,92.6L40,92.6z"/>
		</g>
	</g>
</g>
<g>
	<g>
		<g>
			<path class="st0" d="M40.9,94.5c0.6-0.3,1-0.9,1.1-1.6c0-0.1-0.2-0.1-0.2,0c-0.1,0.6-0.5,1.1-1,1.4
				C40.7,94.4,40.8,94.5,40.9,94.5L40.9,94.5z"/>
		</g>
	</g>
</g>
<g>
	<g>
		<g>
			<path class="st0" d="M42.9,95.8c-0.3-0.8,0-1.6,0.7-2c0.1-0.1,0-0.2-0.1-0.2c-0.8,0.4-1.1,1.4-0.8,2.2
				C42.8,95.9,42.9,95.9,42.9,95.8L42.9,95.8z"/>
		</g>
	</g>
</g>
<g>
	<g>
		<g>
			<path class="st0" d="M44.4,93.9c0.4,0.6,0.6,1.2,0.4,1.9c0,0.1,0.2,0.2,0.2,0c0.1-0.7,0-1.4-0.5-2C44.5,93.7,44.3,93.8,44.4,93.9
				L44.4,93.9z"/>
		</g>
	</g>
</g>
<g>
	<g>
		<g>
			<path class="st0" d="M56.3,95.9c-0.3-0.6,0-1.4,0.6-1.7c0.1,0,0-0.2-0.1-0.2c-0.7,0.3-1,1.2-0.6,1.9C56.2,96.1,56.4,96,56.3,95.9
				L56.3,95.9z"/>
		</g>
	</g>
</g>
<g>
	<g>
		<g>
			<path class="st0" d="M57.4,94.2c0.7,0.4,1.1,1.1,1,1.9c0,0.1,0.2,0.1,0.2,0c0.1-0.8-0.4-1.6-1.1-2C57.4,94,57.3,94.1,57.4,94.2
				L57.4,94.2z"/>
		</g>
	</g>
</g>
<g>
	<g>
		<g>
			<path class="st0" d="M60.3,94.8c-0.9-0.3-1.4-1.4-1-2.3c0.1-0.1-0.1-0.2-0.2-0.1c-0.5,1,0,2.2,1.1,2.6
				C60.4,95,60.5,94.8,60.3,94.8L60.3,94.8z"/>
		</g>
	</g>
</g>
<g>
	<g>
		<g>
			<path class="st0" d="M59.9,92.2c0.5-0.3,1.2,0.1,1.3,0.7c0,0.1,0.2,0.1,0.2,0c-0.1-0.7-0.9-1.2-1.6-0.8
				C59.7,92.1,59.8,92.3,59.9,92.2L59.9,92.2z"/>
		</g>
	</g>
</g>
<g>
	<g>
		<g>
			<path class="st0" d="M41.6,84.9c0.5-0.2,1.1,0.1,1.2,0.6c0,0.1,0.2,0.1,0.2,0c-0.2-0.6-0.9-0.9-1.5-0.7
				C41.5,84.8,41.5,85,41.6,84.9L41.6,84.9z"/>
		</g>
	</g>
</g>
<g>
	<g>
		<g>
			<path class="st0" d="M10.2,84.8c0.5,0.6,1.3,0.8,2,0.5c0.1,0,0.1-0.2,0-0.2c-0.7,0.2-1.4,0-1.8-0.5
				C10.2,84.6,10.1,84.7,10.2,84.8L10.2,84.8z"/>
		</g>
	</g>
</g>
<g>
	<g>
		<g>
			<path class="st0" d="M67.9,84.1c0,0.4,0.1,0.9,0.3,1.2c0.1,0.1,0.2,0,0.2-0.1c-0.2-0.4-0.3-0.7-0.3-1.2
				C68.1,84,67.9,84,67.9,84.1L67.9,84.1z"/>
		</g>
	</g>
</g>
<g>
	<path class="st0" d="M13.3,60.2L12.9,57l-2.8-1.5l2.9-1.3l0.5-3.1l2.2,2.3l3.1-0.5l-1.5,2.8l1.4,2.8l-3.1-0.6L13.3,60.2z
		 M10.7,55.6l2.4,1.3l0.3,2.7l1.9-1.9l2.7,0.5l-1.2-2.4l1.3-2.4l-2.7,0.4l-1.9-2l-0.4,2.7L10.7,55.6z"/>
</g>
<g>
	<path class="st0" d="M89.5,65.3l-0.4-3.1l-2.8-1.5l2.9-1.3l0.5-3.1l2.2,2.3l3.1-0.5l-1.5,2.8l1.4,2.8l-3.1-0.6L89.5,65.3z M87,60.7
		l2.4,1.3l0.3,2.7l1.9-1.9l2.7,0.5l-1.2-2.4l1.3-2.4l-2.7,0.4l-1.9-2l-0.4,2.7L87,60.7z"/>
</g>
<g>
	<path class="st0" d="M55.7,74.8l-0.4-3.1l-2.8-1.5l2.9-1.3l0.5-3.1l2.2,2.3l3.1-0.5l-1.5,2.8l1.4,2.8l-3.1-0.6L55.7,74.8z
		 M53.1,70.2l2.4,1.3l0.3,2.7l1.9-1.9l2.7,0.5l-1.2-2.4l1.3-2.4l-2.7,0.4l-1.9-2l-0.4,2.7L53.1,70.2z"/>
</g>
<g>
	<path class="st0" d="M26.2,71.2l-1.5-1L23,70.9l0.5-1.7l-1.2-1.4l1.8-0.1l1-1.5l0.6,1.7l1.8,0.4l-1.4,1.1L26.2,71.2z M24.7,69.9
		l1.1,0.7l-0.1-1.4l1.1-0.9l-1.3-0.3L25,66.8L24.3,68l-1.4,0.1l0.9,1.1l-0.4,1.3L24.7,69.9z"/>
</g>
<g>
	<path class="st0" d="M74.1,64.9l-1.5-1L71,64.5l0.5-1.7l-1.2-1.4l1.8-0.1l1-1.5l0.6,1.7l1.8,0.4L74,63.1L74.1,64.9z M72.7,63.5
		l1.1,0.8l-0.1-1.4l1.1-0.8l-1.3-0.3L73,60.5l-0.7,1.2l-1.4,0.1l0.9,1.1L71.4,64L72.7,63.5z"/>
</g>
<g>
	<path class="st0" d="M47.2,60.1l-1.5-1L44,59.7l0.5-1.7l-1.2-1.4l1.8-0.1l1-1.5l0.6,1.7l1.8,0.4l-1.4,1.1L47.2,60.1z M45.7,58.7
		l1.1,0.7l-0.1-1.4l1.1-0.8l-1.3-0.3L46,55.7l-0.7,1.2l-1.4,0.1l0.9,1l-0.4,1.3L45.7,58.7z"/>
</g>
<g>
	<path class="st0" d="M48.2,68.3l-1.1-0.7l-1.2,0.5l0.4-1.3l-0.9-1l1.3-0.1l0.7-1.1l0.5,1.2l1.3,0.3l-1,0.8L48.2,68.3z M47.1,67.3
		l0.7,0.5l-0.1-0.9l0.7-0.6l-0.9-0.2l-0.3-0.8L46.8,66l-0.9,0l0.6,0.7l-0.2,0.9L47.1,67.3z"/>
</g>
<g>
	<g>
		<g>
			<path class="st0" d="M15.6,57.6c0.3,0.5,0.2,1.5,0,2c-0.2,0.6-0.5,1.2-1,1.7c-0.7,0.9-1.8,1.7-2.9,2c-0.2,0-0.8,0.2-0.9,0.1
				c-0.5-0.4,0.3-0.8,0.6-0.9c0.5-0.3,1.1-0.6,1.6-0.8c0.8-0.2,2.4-0.6,2.5,0.6c0,0.8-0.5,1.6-1.3,1.9c-0.1,0-0.1,0.2,0,0.2
				c0.8-0.3,1.4-1,1.4-1.8c0.1-1-0.6-1.4-1.5-1.3c-1.1,0.1-2.3,0.6-3.2,1.2c-0.3,0.2-1.1,0.8-0.3,1.1c0.9,0.3,2.2-0.5,2.9-1
				c0.9-0.6,1.6-1.5,2.1-2.5c0.2-0.4,0.3-0.9,0.3-1.3c0-0.3,0-1-0.2-1.2c-0.2-0.2-0.5-0.1-0.3,0.2C15.4,57.8,15.6,57.7,15.6,57.6
				L15.6,57.6z"/>
		</g>
	</g>
</g>
<g>
	<g>
		<g>
			<path class="st0" d="M12,66.6c-0.4,0.5-1,0.9-1.4,1.4c-0.1,0.2-0.2,0.4,0,0.7c0.5,0.8,2.1,0,2.7-0.3c0.7-0.3,1.3-0.7,1.9-1.1
				c0.2-0.2,0.7-0.4,0.7-0.7c0-0.9-1.1-0.3-1.4,0c-0.1,0.1,0,0.2,0.1,0.1c0.3-0.4,0.6-0.3,0.7,0.4c-0.1,0-0.1,0.1-0.2,0.1
				c-0.1,0.2-0.4,0.3-0.6,0.4c-0.5,0.3-1,0.6-1.6,0.8c-0.3,0.1-0.5,0.2-0.8,0.3c-0.1,0-0.2,0.1-0.3,0.1c-0.4,0.2-0.6,0.1-0.6-0.4
				c-0.2-0.6-0.1-0.6,0.3-1c0.2-0.2,0.5-0.5,0.7-0.7C12.2,66.7,12.1,66.5,12,66.6L12,66.6z"/>
		</g>
	</g>
</g>
<g>
	<g>
		<g>
			<path class="st0" d="M23.4,70.1c-0.5,0.2-0.7,0.6-1.1,1c-0.1,0.2-0.3,0.3-0.5,0.4c-0.8,0.1-1.2-0.2-1.1-0.8
				c0-0.4,0.2-0.8,0.4-1.1c0.4-0.8,0.7-1.5,0.3-2.4c-0.6-1.2-1.9-1.8-1.8-3.3c0-0.5,0.4-1.5,1.1-1.1c0.3,0.1,0.7,0.6,0.9,0.9
				c0.2,0.2,0.3,0.5,0.5,0.8c0.1,0.2,0.2,0.4,0.2,0.6c0.2,0.4,0,0.8-0.5,1.1c-0.1,0-0.1,0.2,0,0.2c0.7,0.1,0.9-0.6,0.8-1.1
				c-0.2-0.9-0.7-1.8-1.4-2.4c-0.4-0.4-0.9-0.4-1.4,0c-0.5,0.6-0.4,1.6-0.1,2.2c0.4,0.9,1.4,1.5,1.7,2.5c0.3,1.1-0.6,1.9-0.8,2.9
				c-0.1,0.5,0.1,1.3,0.7,1.3c1,0.1,1.4-1.2,2.1-1.6C23.6,70.3,23.5,70.1,23.4,70.1L23.4,70.1z"/>
		</g>
	</g>
</g>
<g>
	<g>
		<g>
			<path class="st0" d="M22.6,61.1c1-0.6,1.9,0.2,2.4,1c0.3,0.4,0.6,1.2-0.1,1.5c-0.5,0.1-1-0.2-1.4-0.4c-0.1-0.1-0.2,0.1-0.1,0.2
				c0.5,0.3,1.1,0.7,1.7,0.4c0.4-0.2,0.6-0.6,0.4-1c-0.4-1.1-1.7-2.4-3-1.7C22.4,61,22.5,61.1,22.6,61.1L22.6,61.1z"/>
		</g>
	</g>
</g>
<g>
	<g>
		<g>
			<path class="st0" d="M46.9,60.1c0.2,0.2,0.5,0.5,0.6,0.8c0.4,1.3-1,0.7-1.3,0.6c-0.5-0.2-1-0.4-1.5-0.5c-0.5-0.1-1.4-0.5-1.9-0.1
				c-0.3,0.2-0.3,0.5,0,0.8c0.3,0.3,0.7,0.6,1,0.9c0.2,0.2,0.4,0.3,0.6,0.5c0.1,0.1,0.2,0.1,0.2,0.2c0.4,0.4,0.3,0.8-0.3,1.2
				c-0.1,0-0.2,0.1,0,0.2c0.6,0.2,1-0.4,0.9-1c-0.2-0.5-0.7-0.9-1.1-1.2c-0.2-0.2-0.6-0.4-0.8-0.7c-0.1-0.1-0.1-0.1-0.2-0.2
				c0.1-0.2,0.2-0.5,0.3-0.8c0.1-0.1,0.6,0.1,0.7,0.1c0.7,0.2,1.4,0.4,2,0.6c0.4,0.1,0.9,0.5,1.3,0.2c0.8-0.5,0.1-1.4-0.4-1.9
				C47,59.9,46.8,60,46.9,60.1L46.9,60.1z"/>
		</g>
	</g>
</g>
<g>
	<g>
		<g>
			<path class="st0" d="M55.6,68.1c-0.7-0.8-1.4-1.5-2.3-2c-0.6-0.4-1.5-1-2.2-0.9c-0.7,0.1-0.7,0.8-0.5,1.4
				c0.1,0.4,0.4,0.9,0.7,1.2c0.1,0.1,0.2,0.2,0.3,0.4c0.1,0.1,0.2,0.2,0.3,0.4c0.6,0.5,0.4,0.8-0.4,1c0-0.1-0.2,0-0.2,0.1
				c0.2,0.4,0.6,0.5,0.9,0.2c0.6-0.6-0.2-1.4-0.6-1.7c-0.4-0.4-1-1.2-1-1.7c0-1.1,0.6-1,1.2-0.8c0.3,0.1,0.7,0.3,1,0.5
				c1,0.6,1.9,1.4,2.7,2.2C55.6,68.4,55.7,68.2,55.6,68.1L55.6,68.1z"/>
		</g>
	</g>
</g>
<g>
	<g>
		<g>
			<path class="st0" d="M73.3,64.4c-0.4,0.4-2.2,3-0.7,3c0.7,0,1.2-1.1,1.6-1.6c0.3-0.3,0.6-1,1-1.2c0.9-0.5,0.4,0.2,0.2,0.4
				c-0.2,0.3-0.4,0.7-0.6,1c-0.1,0.1,0.1,0.2,0.2,0.1c0.3-0.6,0.7-1.2,1-1.8c0,0,0-0.1,0-0.1c-0.8-0.5-1.6,1-2,1.5
				c-0.2,0.3-0.4,0.6-0.7,0.8c-0.1,0.1-0.2,0.3-0.3,0.3c-0.2,0.1-0.8-0.1-0.8-0.3c-0.1-0.6,0.7-1.6,1.1-2
				C73.5,64.5,73.4,64.4,73.3,64.4L73.3,64.4z"/>
		</g>
	</g>
</g>
<g>
	<g>
		<g>
			<path class="st0" d="M89.3,62.3c-1.1-0.1-3.3,0.4-2.5,1.9c0.5,1,1.3,1.7,1.8,2.7c0.4,0.7,0.5,1.8-0.5,2.1c-0.5,0.1-1.1,0-1.6-0.2
				c-0.9-0.3-2.9-1.1-3.2,0.4c-0.2,0.7,0.4,1.2,0.8,1.6c0.2,0.1,0.4,0.3,0.5,0.4c0.1,0.1,0.2,0.1,0.2,0.2c0.3,0.2,0.3,0.5,0,0.7
				c0,0.3-0.2,0.5-0.5,0.4c-0.2,0-0.4,0-0.6-0.1c-0.4-0.1-0.7-0.2-1-0.4c-0.1-0.1-0.2,0.1-0.1,0.2c0.6,0.3,3.1,1.1,2.6-0.4
				c-0.3-1-2.5-1.6-1.9-2.8c0.6-1.2,2.3-0.3,3.1,0c1.1,0.4,2.7,0.1,2.4-1.4c-0.2-1-1-1.8-1.5-2.6c-0.4-0.6-1.1-1.5-0.2-2.1
				c0.6-0.4,1.3-0.5,2-0.4C89.4,62.5,89.4,62.3,89.3,62.3L89.3,62.3z"/>
		</g>
	</g>
</g>
<g>
	<g>
		<g>
			<path class="st0" d="M81.6,72.1c-0.5-0.7-1.7-0.6-1.7,0.4c0,0.6,0.6,1.1,0.9,1.5c0.2,0.2,0.8,0.8,0.8,1c0.1,1-1.3,0-1.5-0.2
				C80,74.9,79.9,75,80,75.1c0.2,0.1,1.9,1.3,2.1,0.5c0.1-0.3-0.4-0.7-0.6-0.9c-0.2-0.3-0.5-0.6-0.7-0.9c-0.2-0.2-0.4-0.4-0.5-0.6
				c-0.1-0.1-0.1-0.3-0.1-0.5c-0.2-0.7,0.2-0.8,1.2-0.4C81.5,72.3,81.7,72.2,81.6,72.1L81.6,72.1z"/>
		</g>
	</g>
</g>
<g>
	<g>
		<g>
			<path class="st0" d="M77.5,67.1c0.5,0.2,1.1,0.4,1.6,0c0.4-0.3,0.4-0.8,0.2-1.2c-0.3-0.7-1-1.2-1.4-1.8c-0.2-0.4-0.4-0.9-0.5-1.3
				c0-0.1-0.3-0.8-0.2-0.9c0.3-0.1,0.6-0.2,0.9-0.3c0.1,0.2,0.3,0.3,0.4,0.5c0.1,0.1,0.2,0,0.2-0.1c-0.2-0.4-0.6-1-1.2-0.9
				c-0.6,0.1-0.5,0.7-0.4,1.1c0.2,0.8,0.5,1.7,1.1,2.4c0.2,0.3,0.6,0.6,0.8,0.9c0.1,0.1,0.2,0.3,0.3,0.5c0.1,0.3,0,0.5-0.4,0.7
				c-0.2,0.4-0.5,0.5-0.8,0.3c-0.1,0-0.3-0.1-0.4-0.2C77.4,66.9,77.4,67.1,77.5,67.1L77.5,67.1z"/>
		</g>
	</g>
</g>
<g>
	<g>
		<g>
			<path class="st0" d="M79.8,63.6c0.3,1,1.6,0.6,1.8-0.3c0.1-0.6-0.2-1.1-0.6-1.6c-0.3-0.3-0.6-0.6-0.9-0.9
				c-0.2-0.2-0.5-0.5-0.5-0.7c-0.2-0.3-0.1-0.5,0.3-0.7c0.2,0.1,0.5,0.2,0.6,0.4c0.1,0.1,0.2,0,0.1-0.1c-0.2-0.3-0.7-0.7-1.1-0.5
				c-0.3,0.1-0.3,0.5-0.2,0.8c0.2,0.6,0.7,1,1.1,1.4c0.3,0.3,0.6,0.7,0.8,1.1c0.1,0.3,0.2,0.8,0,1c-0.3,0.4-1.1,0.6-1.3,0
				C80,63.5,79.8,63.5,79.8,63.6L79.8,63.6z"/>
		</g>
	</g>
</g>
<g>
	<g>
		<g>
			<path class="st0" d="M12.8,90.6c0.5,1,1.2,1.7,2.2,2.2c0.2,0.1,0.4-0.2,0.2-0.3c-0.9-0.5-1.6-1.2-2-2.1
				C13,90.2,12.7,90.4,12.8,90.6L12.8,90.6z"/>
		</g>
	</g>
</g>
<g>
	<g>
		<g>
			<path class="st0" d="M13.8,91.1c0.1,0,0.2,0.1,0.3,0.1c0.1,0,0.2,0,0.2-0.1c0-0.1,0-0.2-0.1-0.2c-0.1,0-0.2-0.1-0.3-0.1
				c-0.1,0-0.2,0-0.2,0.1C13.7,90.9,13.7,91.1,13.8,91.1L13.8,91.1z"/>
		</g>
	</g>
</g>
<g>
	<g>
		<g>
			<path class="st0" d="M42.1,91.5c0.7,0.9,1.9,1.3,3,0.9c0.2-0.1,0.1-0.4-0.1-0.4c-1,0.3-2,0-2.6-0.8
				C42.2,91.1,41.9,91.4,42.1,91.5L42.1,91.5z"/>
		</g>
	</g>
</g>
<g>
	<g>
		<g>
			<path class="st0" d="M43.5,91.8c0.2,0,0.4,0,0.6,0c0.2,0,0.2-0.4,0-0.4c-0.2,0-0.4,0-0.6,0C43.3,91.4,43.3,91.8,43.5,91.8
				L43.5,91.8z"/>
		</g>
	</g>
</g>
<g>
	<g>
		<g>
			<path class="st0" d="M71.4,90.7c0.1,1.2,0.6,2.2,1.5,3c0.2,0.2,0.4-0.1,0.3-0.3c-0.8-0.7-1.3-1.7-1.4-2.8
				C71.7,90.4,71.3,90.4,71.4,90.7L71.4,90.7z"/>
		</g>
	</g>
</g>
<g>
	<g>
		<g>
			<path class="st0" d="M72.3,91.7c0.2,0.3,0.5,0.7,0.8,1c0.1,0.2,0.5,0,0.3-0.2c-0.2-0.3-0.5-0.7-0.8-1
				C72.5,91.3,72.2,91.5,72.3,91.7L72.3,91.7z"/>
		</g>
	</g>
</g>
<g>
	<g>
		<g>
			<path class="st0" d="M90.2,59.3c0-0.3,0-0.6,0.1-0.9c-0.1,0-0.1,0-0.2,0c0,0.3,0.2,0.6,0.5,0.7c0.1,0.1,0.2-0.1,0.1-0.2
				c-0.2-0.1-0.4-0.4-0.4-0.6c0-0.1-0.1-0.1-0.2,0c-0.1,0.3-0.2,0.7-0.1,1.1C90.1,59.5,90.3,59.4,90.2,59.3L90.2,59.3z"/>
		</g>
	</g>
</g>
<g>
	<g>
		<g>
			<path class="st0" d="M92.5,59.5c0.3,0,0.6,0,0.9-0.1c0,0-0.1-0.1-0.1-0.1c-0.1,0.2-0.2,0.4-0.4,0.5c-0.1,0.1,0,0.2,0.1,0.1
				c0.2-0.2,0.3-0.4,0.4-0.6c0-0.1,0-0.2-0.1-0.1c-0.3,0.1-0.6,0.1-0.9,0.1C92.4,59.3,92.4,59.4,92.5,59.5L92.5,59.5z"/>
		</g>
	</g>
</g>
<g>
	<g>
		<g>
			<path class="st0" d="M92.9,62.1c0.2,0.2,0.4,0.5,0.6,0.7c0,0,0.1-0.1,0.1-0.1c-0.2-0.2-0.5-0.3-0.8-0.2c-0.1,0-0.1,0.2,0,0.2
				c0.2,0,0.5,0,0.6,0.2c0.1,0.1,0.2,0,0.1-0.1c-0.2-0.2-0.4-0.5-0.6-0.7C92.9,61.9,92.8,62,92.9,62.1L92.9,62.1z"/>
		</g>
	</g>
</g>
<g>
	<g>
		<g>
			<path class="st0" d="M90.1,62.6c0,0.2,0,0.5,0.1,0.7c0,0.1,0.1,0.1,0.1,0.1c0.2-0.1,0.4-0.3,0.5-0.5c0.1-0.1-0.1-0.2-0.2-0.1
				c-0.1,0.2-0.3,0.3-0.5,0.4c0,0,0.1,0.1,0.1,0.1c0-0.2,0-0.5-0.1-0.7C90.3,62.5,90.1,62.5,90.1,62.6L90.1,62.6z"/>
		</g>
	</g>
</g>
<g>
	<g>
		<g>
			<path class="st0" d="M88.9,60.3c-0.2,0.1-0.4,0.1-0.6,0.2c-0.1,0-0.1,0.1-0.1,0.1c0.1,0.2,0.3,0.4,0.5,0.5
				c0.1,0.1,0.2-0.1,0.1-0.2c-0.2-0.1-0.4-0.3-0.4-0.5c0,0,0,0.1-0.1,0.1c0.2-0.1,0.4-0.1,0.6-0.2C89,60.4,89,60.2,88.9,60.3
				L88.9,60.3z"/>
		</g>
	</g>
</g>
<g>
	<g>
		<g>
			<path class="st0" d="M72.6,61.7c0.1-0.1,0.2-0.2,0.3-0.4c-0.1,0-0.1,0-0.2,0c0,0.2,0.1,0.3,0.2,0.5c0.1,0.1,0.2,0,0.2-0.1
				c-0.1-0.1-0.1-0.2-0.1-0.4c0-0.1-0.1-0.1-0.2,0c-0.1,0.1-0.2,0.2-0.3,0.4C72.3,61.7,72.5,61.8,72.6,61.7L72.6,61.7z"/>
		</g>
	</g>
</g>
<g>
	<g>
		<g>
			<path class="st0" d="M73.3,62.3c0.1,0,0.2,0.1,0.4,0.1c0,0,0-0.1,0-0.1c-0.1,0.1-0.2,0.2-0.2,0.2c-0.1,0.1,0,0.2,0.1,0.1
				c0.1-0.1,0.2-0.2,0.2-0.2c0.1,0,0-0.1,0-0.1c-0.1,0-0.2-0.1-0.4-0.1C73.3,62,73.2,62.2,73.3,62.3L73.3,62.3z"/>
		</g>
	</g>
</g>
<g>
	<g>
		<g>
			<path class="st0" d="M72.8,63.4c0.1,0.1,0.2,0.1,0.3,0.2c0.1,0,0.1,0,0.1-0.1c0-0.1,0-0.2,0-0.3c0-0.1-0.1-0.2-0.2,0
				c0,0.1-0.1,0.2-0.1,0.4c0,0,0.1-0.1,0.1-0.1c-0.1-0.1-0.2-0.1-0.3-0.2C72.8,63.2,72.7,63.3,72.8,63.4L72.8,63.4z"/>
		</g>
	</g>
</g>
<g>
	<g>
		<g>
			<path class="st0" d="M72,62.9c0,0.1,0,0.2-0.1,0.4c0,0.1,0,0.1,0.1,0.1c0.1,0,0.2-0.1,0.3-0.2c0-0.1-0.1-0.2-0.2,0
				c0,0.1-0.1,0.1-0.1,0.1c0,0,0.1,0.1,0.1,0.1c0-0.1,0-0.2,0.1-0.4C72.2,62.8,72,62.8,72,62.9L72,62.9z"/>
		</g>
	</g>
</g>
<g>
	<g>
		<g>
			<path class="st0" d="M72,62.3c-0.1-0.1-0.2-0.2-0.3-0.3c0,0.1,0,0.1-0.1,0.2c0.2,0,0.3,0,0.5,0.1c0.1,0,0.2-0.1,0-0.2
				C72,62,71.8,62,71.6,62c-0.1,0-0.1,0.1-0.1,0.2c0.1,0.1,0.2,0.2,0.3,0.3C72,62.6,72.1,62.4,72,62.3L72,62.3z"/>
		</g>
	</g>
</g>
<g>
	<g>
		<g>
			<path class="st0" d="M45.6,57c0.1-0.1,0.2-0.2,0.2-0.4c-0.1,0-0.1,0-0.2,0c0,0.1,0.1,0.2,0.1,0.3c0,0.1,0.2,0,0.2-0.1
				c0-0.1-0.1-0.2-0.1-0.3c0-0.1-0.1-0.1-0.2,0c-0.1,0.1-0.2,0.2-0.2,0.4C45.4,57,45.5,57.1,45.6,57L45.6,57z"/>
		</g>
	</g>
</g>
<g>
	<g>
		<g>
			<path class="st0" d="M45,57.5c-0.1-0.1-0.1-0.2-0.2-0.3c0,0,0,0.1-0.1,0.1c0.1,0,0.3,0,0.4,0c0.1,0,0.2-0.1,0-0.2
				c-0.2-0.1-0.3-0.1-0.5,0c0,0-0.1,0.1-0.1,0.1c0.1,0.1,0.1,0.2,0.2,0.3C44.9,57.7,45.1,57.6,45,57.5L45,57.5z"/>
		</g>
	</g>
</g>
<g>
	<g>
		<g>
			<path class="st0" d="M45,58.2C45,58.3,45,58.4,45,58.5c0,0.1,0.1,0.1,0.1,0.1c0.1-0.1,0.2-0.1,0.4-0.2c0.1,0,0-0.2-0.1-0.2
				c-0.1,0.1-0.2,0.1-0.4,0.2c0,0,0.1,0.1,0.1,0.1c0-0.1,0-0.2,0-0.2C45.2,58.2,45.1,58.1,45,58.2L45,58.2z"/>
		</g>
	</g>
</g>
<g>
	<g>
		<g>
			<path class="st0" d="M46.1,58.4c0,0.1,0.1,0.2,0.1,0.2c0,0,0.1,0,0.1,0c0.1-0.1,0.2-0.2,0.1-0.4c-0.1-0.1-0.2,0-0.2,0.1
				c0,0,0,0.1,0,0.1c0,0,0.1,0,0.1,0c0,0-0.1,0-0.1-0.1C46.3,58.3,46.1,58.3,46.1,58.4L46.1,58.4z"/>
		</g>
	</g>
</g>
<g>
	<g>
		<g>
			<path class="st0" d="M46.5,57.5c0.1,0,0.3,0,0.4,0c0,0-0.1-0.1-0.1-0.1c0,0.1-0.1,0.1-0.1,0.2c-0.1,0.1,0.1,0.2,0.2,0.1
				c0-0.1,0.1-0.1,0.1-0.2c0-0.1,0-0.1-0.1-0.1c-0.1,0-0.3,0-0.4,0C46.4,57.3,46.4,57.5,46.5,57.5L46.5,57.5z"/>
		</g>
	</g>
</g>
<g>
	<g>
		<g>
			<path class="st0" d="M56.4,68.8c0-0.3,0-0.6,0.1-0.9c-0.1,0-0.1,0-0.2,0c0.1,0.2,0.3,0.4,0.5,0.6c0.1,0.1,0.2,0,0.2-0.1
				c-0.1-0.2-0.3-0.4-0.5-0.6c0-0.1-0.1-0.1-0.2,0c-0.1,0.3-0.1,0.6-0.1,1C56.3,69,56.4,69,56.4,68.8L56.4,68.8z"/>
		</g>
	</g>
</g>
<g>
	<g>
		<g>
			<path class="st0" d="M58.6,69.1c0.2-0.1,0.5-0.2,0.8-0.2c0,0-0.1-0.1-0.1-0.1c-0.1,0.2-0.2,0.4-0.2,0.6c0,0.1,0.1,0.2,0.2,0
				c0.1-0.2,0.2-0.4,0.2-0.6c0-0.1-0.1-0.1-0.1-0.1c-0.3,0-0.5,0.1-0.8,0.2C58.4,69,58.5,69.1,58.6,69.1L58.6,69.1z"/>
		</g>
	</g>
</g>
<g>
	<g>
		<g>
			<path class="st0" d="M54.8,70c-0.2,0.1-0.3,0.2-0.5,0.2c-0.1,0-0.1,0.1,0,0.2c0.2,0.1,0.5,0.3,0.7,0.4c0.1,0,0.2-0.1,0.1-0.2
				c-0.2-0.1-0.5-0.2-0.7-0.4c0,0.1,0,0.1,0,0.2c0.2,0,0.4-0.1,0.6-0.2C55,70.1,54.9,69.9,54.8,70L54.8,70z"/>
		</g>
	</g>
</g>
<g>
	<g>
		<g>
			<path class="st0" d="M56,72.2c0,0.2,0.1,0.4,0.1,0.6c0,0.1,0.1,0.1,0.1,0.1c0.2-0.1,0.3-0.3,0.4-0.5c0-0.1-0.1-0.2-0.2-0.1
				c-0.1,0.2-0.2,0.3-0.4,0.4c0,0,0.1,0,0.1,0.1c0-0.2-0.1-0.4-0.1-0.6C56.1,72,56,72.1,56,72.2L56,72.2z"/>
		</g>
	</g>
</g>
<g>
	<g>
		<g>
			<path class="st0" d="M58.7,72c0.2,0.1,0.4,0.2,0.6,0.1c0,0,0.1-0.1,0.1-0.1c-0.1-0.2-0.1-0.3-0.2-0.5c0-0.1-0.2-0.1-0.2,0
				c0.1,0.2,0.1,0.3,0.2,0.5c0,0,0-0.1,0.1-0.1c-0.2,0-0.4,0-0.5-0.1C58.7,71.8,58.6,72,58.7,72L58.7,72z"/>
		</g>
	</g>
</g>
<g>
	<g>
		<g>
			<path class="st0" d="M78.7,86c0.2-0.1,0.6,0,0.4,0.2c0,0-0.1,0-0.1,0c-0.1,0.2-0.1,0-0.2,0.2c0,0.1,0,0.1,0.1,0.1
				c0.2,0,0.5,0,0.4,0.2c-0.1,0.1-0.4,0.2-0.5,0.2c0,0-0.1,0.1,0,0.1c0.1,0.2,0.1,0.1,0.3,0.2c0.1,0,0.2,0,0.2,0.1
				c0.1,0.1,0.1,0.1-0.1,0.1c-0.1,0.1-0.2,0.1-0.2,0.2c0,0,0,0.1,0,0.1c0-0.1,0.1,0.1,0.1,0.1c0-0.1,0.7,0.2,0,0.3
				c-0.1,0-0.1,0.1,0,0.2c0.5,0.2,0.4,0.2-0.1,0.5c-0.1,0-0.1,0.1,0,0.2c0.1,0,0.7,0.2,0.7,0.3c-0.1,0.1,0.1,0.2,0.1,0.1
				c0.1-0.1,0.1-0.3,0-0.4c-0.3-0.3-0.8,0,0-0.3c0.1,0,0.1-0.1,0-0.2c-0.2-0.1-0.4-0.2-0.6-0.3c0,0.1,0,0.1,0,0.2
				c0.2,0,0.6-0.1,0.6-0.4c0-0.1-0.1-0.1-0.1-0.2c0,0-0.2,0-0.2,0c0-0.1,0.1,0,0.2-0.1c0.1-0.1,0.3-0.1,0.1-0.3
				c-0.1-0.1-0.1-0.1-0.2-0.1c-0.1,0-0.2,0-0.3-0.1c0,0,0.5-0.3,0.6-0.3c0.1,0,0.1-0.1,0-0.2c0,0-0.5-0.3-0.5-0.2c0,0,0.2,0,0.2,0
				c0.1-0.1,0.2-0.1,0.2-0.2c0.1-0.5-0.6-0.5-0.9-0.4C78.5,85.9,78.6,86.1,78.7,86L78.7,86z"/>
		</g>
	</g>
</g>
<g>
	<g>
		<g>
			<path class="st0" d="M50.5,89.9c0.2,0.1,0.7,0,0.7-0.3c0-0.5-1-0.1-0.1-0.5c0.1,0,0.1-0.1,0-0.2c-0.6-0.3-0.7-0.4-0.1-0.5
				c0,0,0.1-0.1,0.1-0.1c-0.1-0.3-0.6-0.5-0.1-0.6c0.1,0,0.1-0.1,0-0.2c-0.2,0-0.3-0.3-0.1-0.5c0,0,0.1,0,0.2,0
				c0.1-0.1,0.2,0,0.2-0.2c0.1-0.3-0.2-0.2-0.4-0.4c-0.4-0.4,0.2-0.2,0.3-0.5c0.1-0.3-0.2-0.4-0.4-0.4c-0.1,0-0.2,0.2,0,0.2
				c0.4,0.1-0.4,0.3-0.2,0.1c-0.1,0.1-0.1,0.1-0.2,0.2c0,0.1,0,0.2,0,0.3c0.1,0.1,0.4,0.2,0.4,0.2c0.1,0.2-0.4,0.2-0.5,0.5
				c-0.1,0.4,0.4,0.5,0.6,0.6c0-0.1,0-0.1,0-0.2c-0.2,0.1-0.7,0.1-0.7,0.5c0.1,0.4,0.9,0.2,0,0.5c-0.1,0-0.1,0.1,0,0.1
				c0.2,0.2,0.5,0.4,0.7,0.6c0-0.1,0-0.1,0-0.2c-0.2,0.1-0.4,0.1-0.6,0.1c0,0-0.1,0-0.1,0.1c0,0.1,0,0.2,0,0.3c0,0,0.1,0.1,0.1,0.1
				c0,0,0,0,0,0c0.2,0,0.2,0.1,0,0.2C50.4,89.7,50.4,89.9,50.5,89.9L50.5,89.9z"/>
		</g>
	</g>
</g>
<g>
	<g>
		<g>
			<path class="st0" d="M19.7,89.3c-0.1,0.2-0.1,0.4-0.2,0.6c0,0.1,0.1,0.2,0.2,0c0.1-0.2,0.1-0.4,0.2-0.6
				C19.9,89.3,19.7,89.2,19.7,89.3L19.7,89.3z"/>
		</g>
	</g>
</g>
<g>
	<g>
		<g>
			<path class="st0" d="M19.7,89.3c0,0.1,0,0.2-0.1,0.3c-0.1,0.1,0.1,0.2,0.2,0.1c0.1-0.1,0.2-0.2,0.2-0.4c-0.1,0-0.1-0.1-0.2-0.1
				c-0.1,0.1-0.1,0.2-0.2,0.3c-0.1,0.1,0.1,0.2,0.2,0.1c0-0.1,0.1-0.2,0.1-0.2c0.1-0.1-0.1-0.2-0.2-0.1c0,0.1-0.1,0.2-0.1,0.2
				c0.1,0,0.1,0.1,0.2,0.1c0.1-0.1,0.1-0.2,0.2-0.3c0.1-0.1-0.1-0.2-0.2-0.1c-0.1,0.1-0.2,0.2-0.2,0.4c0.1,0,0.1,0.1,0.2,0.1
				c0.1-0.1,0.1-0.3,0.1-0.4C19.8,89.2,19.7,89.2,19.7,89.3L19.7,89.3z"/>
		</g>
	</g>
</g>
<g>
	<g>
		<g>
			<path class="st0" d="M21.2,89c-0.1-0.2,1.1-0.2,0.7-0.7c-0.2-0.2-0.4,0-0.2-0.3c0-0.1,0.2-0.1,0.2-0.2c0,0,0-0.1,0-0.1
				c0,0-0.1-0.1-0.1-0.1c-0.3-0.3-0.3-0.5-0.1-0.5c0,0,0.2-0.2,0.1-0.1c0,0,0-0.1,0-0.1c-0.1-0.2-0.1-0.4-0.2-0.6
				c0.1,0,0.1-0.1,0.1-0.2c-0.3-0.4-0.4-0.7-0.4-1.1c0-0.1-0.2-0.1-0.2,0c0,0.5,0.1,0.9,0.4,1.2c0-0.1,0-0.1,0.1-0.2
				c-0.2,0-0.4,0.2-0.4,0.5c0,0.1,0.2,0.3,0.3,0.4c0,0.1-0.1,0-0.2,0.1c-0.2,0.2-0.1,0.2,0,0.5c0,0.1,0.1,0.1,0.2,0.2
				c0.2,0.6,0,0.1-0.1,0.2c-0.1,0.2-0.1,0-0.2,0.2c0,0,0,0.1,0,0.1c0.1,0,0.4,0.2,0.4,0.2c0.2,0.2-0.2,0.2-0.4,0.3
				c-0.2,0.1-0.2,0.2-0.1,0.4C21.1,89.2,21.2,89.1,21.2,89L21.2,89z"/>
		</g>
	</g>
</g>
<g>
	<g>
		<g>
			<path class="st0" d="M12.5,55.2c-0.2-0.1-0.5-0.1-0.7,0.1c0,0,0,0.1,0,0.1c0.3,0.1,0.7,0.3,1,0.4c0.1,0,0.2-0.1,0.1-0.2
				c-0.3-0.1-0.7-0.3-1-0.4c0,0,0,0.1,0,0.1c0.1-0.1,0.3-0.1,0.4-0.1C12.6,55.4,12.6,55.3,12.5,55.2L12.5,55.2z"/>
		</g>
	</g>
</g>
<g>
	<g>
		<g>
			<path class="st0" d="M14.2,53.9c0-0.2,0-0.5,0.1-0.7c0,0-0.1,0-0.1,0c0.1,0.1,0.3,0.3,0.4,0.5c0.1,0.1,0.2,0,0.1-0.1
				c-0.1-0.1-0.3-0.3-0.4-0.5c0-0.1-0.1,0-0.1,0c-0.1,0.3-0.1,0.5-0.1,0.8C14,54,14.2,54,14.2,53.9L14.2,53.9z"/>
		</g>
	</g>
</g>
<g>
	<g>
		<g>
			<path class="st0" d="M16.3,54.3c0.2-0.1,0.5-0.1,0.7-0.2c0,0-0.1-0.1-0.1-0.1c-0.1,0.1-0.1,0.3-0.2,0.4c-0.1,0.1,0.1,0.2,0.2,0.1
				c0.1-0.1,0.2-0.3,0.3-0.5c0-0.1-0.1-0.1-0.1-0.1c-0.2,0.1-0.5,0.1-0.7,0.2C16.1,54.2,16.2,54.3,16.3,54.3L16.3,54.3z"/>
		</g>
	</g>
</g>
<g>
	<g>
		<g>
			<path class="st0" d="M13.8,57.4c0,0.3,0,0.6,0.1,0.8c0,0.1,0.1,0.1,0.1,0c0.1-0.1,0.2-0.2,0.4-0.4c0.1-0.1,0-0.2-0.1-0.1
				c-0.1,0.1-0.2,0.2-0.4,0.4c0,0,0.1,0,0.1,0c-0.1-0.3-0.1-0.5,0-0.8C14,57.3,13.8,57.3,13.8,57.4L13.8,57.4z"/>
		</g>
	</g>
</g>
<g>
	<g>
		<g>
			<path class="st0" d="M16.3,57.3c0.2,0,0.4,0.1,0.6,0.1c0.1,0,0.1,0,0.1-0.1c0-0.2,0-0.4-0.1-0.6c-0.1-0.1-0.2,0-0.2,0.1
				c0.1,0.2,0.1,0.3,0.1,0.5c0,0,0.1-0.1,0.1-0.1c-0.2,0-0.4-0.1-0.6-0.1C16.3,57,16.2,57.2,16.3,57.3L16.3,57.3z"/>
		</g>
	</g>
</g>
<g>
	<g>
		<g>
			<path class="st0" d="M24.1,68.6c-0.1,0-0.2-0.1-0.3-0.1c0,0.1,0,0.1,0,0.2c0.1,0,0.3,0,0.4,0c0.1,0,0.1-0.2,0-0.2
				c-0.1,0-0.3,0-0.4,0c-0.1,0-0.1,0.1,0,0.2c0.1,0.1,0.2,0.1,0.3,0.1C24.1,68.8,24.2,68.6,24.1,68.6L24.1,68.6z"/>
		</g>
	</g>
</g>
<g>
	<g>
		<g>
			<path class="st0" d="M24.8,68c0-0.1,0-0.2,0.1-0.3c-0.1,0-0.1,0-0.2,0C24.7,67.8,24.7,67.9,24.8,68c-0.1,0.1,0.1,0.1,0.1,0
				c0-0.1,0-0.2,0-0.3c0-0.1-0.2-0.1-0.2,0c0,0.1,0,0.2-0.1,0.3C24.5,68.1,24.7,68.2,24.8,68L24.8,68z"/>
		</g>
	</g>
</g>
<g>
	<g>
		<g>
			<path class="st0" d="M23.9,69.4c0,0.1,0,0.2,0,0.2c0,0.1,0.1,0.1,0.1,0.1c0.1-0.1,0.2-0.1,0.2-0.2c0.1-0.1,0-0.2-0.1-0.2
				c-0.1,0.1-0.2,0.1-0.2,0.2c0,0,0.1,0.1,0.1,0.1c0-0.1,0-0.2,0-0.2C24.1,69.3,23.9,69.3,23.9,69.4L23.9,69.4z"/>
		</g>
	</g>
</g>
<g>
	<g>
		<g>
			<path class="st0" d="M25.1,69.8c0,0.2,0.2,0.3,0.3,0.1c0.1-0.1,0-0.3-0.1-0.4c-0.1-0.1-0.2,0.1-0.1,0.2c0.1,0,0.1,0.1,0,0.2
				c0,0,0.1,0,0.1,0c0,0,0,0,0,0C25.3,69.7,25.1,69.7,25.1,69.8L25.1,69.8z"/>
		</g>
	</g>
</g>
<g>
	<g>
		<g>
			<path class="st0" d="M25.5,68.7c0.1,0,0.3,0.1,0.4,0.1c0-0.1,0-0.1,0-0.2c-0.1,0-0.2,0.1-0.3,0.1c-0.1,0,0,0.2,0.1,0.2
				s0.2-0.1,0.3-0.1c0.1,0,0.1-0.1,0-0.2c-0.1,0-0.3-0.1-0.4-0.1C25.5,68.5,25.4,68.6,25.5,68.7L25.5,68.7z"/>
		</g>
	</g>
</g>
<g>
	<g>
		<g>
			<path class="st0" d="M46.6,67C46.6,67.1,46.6,67.1,46.6,67c0,0.2,0.2,0.1,0.2,0c0,0,0,0,0-0.1C46.8,66.9,46.6,66.9,46.6,67
				L46.6,67z"/>
		</g>
	</g>
</g>
<g>
	<g>
		<g>
			<path class="st0" d="M46.3,66.3c0,0,0.1,0.1,0.1,0.1c0.1,0.1,0.2-0.1,0.1-0.1c0,0-0.1-0.1-0.1-0.1C46.3,66.1,46.2,66.2,46.3,66.3
				L46.3,66.3z"/>
		</g>
	</g>
</g>
<g>
	<g>
		<g>
			<path class="st0" d="M47.2,66.2c0,0,0.1-0.1,0.1-0.1c0.1-0.1,0-0.2-0.1-0.1c0,0-0.1,0.1-0.1,0.1C46.9,66.1,47.1,66.2,47.2,66.2
				L47.2,66.2z"/>
		</g>
	</g>
</g>
<g>
	<g>
		<g>
			<path class="st0" d="M47.6,66.6c0.1,0,0.1,0,0.2-0.1c0.1,0,0.1-0.2,0-0.2c-0.1,0-0.1,0-0.2,0.1C47.4,66.4,47.5,66.6,47.6,66.6
				L47.6,66.6z"/>
		</g>
	</g>
</g>
<g>
	<g>
		<g>
			<path class="st0" d="M47.3,67.3C47.3,67.3,47.4,67.3,47.3,67.3c0.1,0.1,0.3,0,0.2-0.1c0,0,0,0-0.1-0.1
				C47.4,67.1,47.2,67.2,47.3,67.3L47.3,67.3z"/>
		</g>
	</g>
</g>
<g>
	<g>
		<g>
			<path class="st0" d="M21.3,83c0.1-0.3,0.2-0.5,0.4-0.7c0.2-0.2,0.5-0.5,0.8-0.5c0.1,0,0.1,0,0.1,0.2c0.1,0.1,0.1,0.1,0,0.2
				c0,0.1-0.1,0.1-0.1,0.2c-0.1,0.1-0.2,0.2-0.3,0.2c-0.3,0.1-0.6,0.2-0.9,0.2C21.1,82.8,21.1,82.9,21.3,83c0.4,0,0.8-0.1,1.1-0.4
				c0.2-0.2,0.6-0.6,0.4-0.9c-0.2-0.3-0.7-0.1-0.9,0.1c-0.4,0.3-0.6,0.7-0.8,1.1C21.1,83,21.2,83.1,21.3,83L21.3,83z"/>
		</g>
	</g>
</g>
<g>
	<g>
		<g>
			<path class="st0" d="M20.7,82.7c-0.1-0.2-0.2-0.4-0.2-0.7c0-0.1,0-0.2,0-0.4c0-0.1,0-0.4,0.1-0.3c0.1,0.1,0.1,0.4,0.1,0.6
				c0,0.2,0,0.5,0,0.7C20.6,82.8,20.8,82.8,20.7,82.7c0.1-0.3,0.3-1.9-0.3-1.7c-0.2,0.1-0.2,0.5-0.2,0.7c0,0.4,0.1,0.7,0.3,1.1
				C20.6,82.9,20.8,82.8,20.7,82.7L20.7,82.7z"/>
		</g>
	</g>
</g>
<g>
	<g>
		<g>
			<path class="st0" d="M51.2,83.2c0.1-0.4,0.5-0.9,0.9-1c0.4-0.1,0.5,0.2,0.3,0.5c-0.1,0.1-0.2,0.1-0.2,0.2
				c-0.2,0.1-0.4,0.1-0.6,0.2c-0.1,0.1,0,0.2,0.1,0.2c0.3-0.2,0.7-0.2,1-0.5c0.1-0.2,0.1-0.5-0.1-0.7c-0.3-0.2-0.6,0.1-0.8,0.2
				c-0.3,0.2-0.5,0.5-0.6,0.9C50.9,83.2,51.1,83.3,51.2,83.2L51.2,83.2z"/>
		</g>
	</g>
</g>
<g>
	<g>
		<g>
			<path class="st0" d="M50.2,83.3c-0.3-0.1-0.5-0.4-0.3-0.7c0,0-0.1,0-0.1,0C50,82.7,50.2,83,50.2,83.3c0.1,0.1,0.3,0,0.2-0.1
				c-0.1-0.3-0.3-0.6-0.6-0.7c0,0-0.1,0-0.1,0c-0.2,0.4,0,0.9,0.5,1C50.3,83.5,50.4,83.3,50.2,83.3L50.2,83.3z"/>
		</g>
	</g>
</g>
<g>
	<g>
		<g>
			<path class="st0" d="M80,83.3c0.2-0.3,0.6-0.9,1-0.7c0.4,0.2,0,0.4-0.2,0.5c-0.2,0-0.5,0-0.7,0C80,83.1,79.9,83.2,80,83.3
				c0.4,0,0.8,0,1.1-0.1c0.2-0.1,0.4-0.3,0.3-0.6s-0.5-0.2-0.7-0.2c-0.4,0.1-0.6,0.4-0.8,0.7C79.8,83.3,79.9,83.4,80,83.3L80,83.3z"
				/>
		</g>
	</g>
</g>
<g>
	<g>
		<g>
			<path class="st0" d="M79.6,82.9c-0.1-0.2-0.4-1.4,0.2-1.1c0,0,0-0.1-0.1-0.1c-0.1,0.2-0.1,0.4-0.2,0.5c0,0.1,0.1,0.2,0.2,0
				c0.1-0.2,0.1-0.4,0.2-0.5c0,0,0-0.1-0.1-0.1c-0.3-0.1-0.5,0.1-0.6,0.3c-0.1,0.4,0,0.8,0.1,1.1C79.5,83.1,79.7,83,79.6,82.9
				L79.6,82.9z"/>
		</g>
	</g>
</g>
<g>
	<g>
		<g>
			<path class="st0" d="M79.1,85.3c0.1-0.1,0.1-0.2,0.2-0.3c0.1-0.1,0-0.2-0.1-0.1c-0.1,0.1-0.2,0.2-0.3,0.4c0,0,0,0.1,0.1,0.1
				C79,85.4,79.1,85.4,79.1,85.3L79.1,85.3z"/>
		</g>
	</g>
</g>
<g>
	<g>
		<g>
			<path class="st0" d="M56.6,83.4c0.3,0.5,0.4,1,0.2,1.5c0,0.1,0.1,0.2,0.2,0c0.1-0.6,0-1.1-0.3-1.6C56.7,83.2,56.6,83.3,56.6,83.4
				L56.6,83.4z"/>
		</g>
	</g>
</g>
<g>
	<g>
		<g>
			<path class="st0" d="M57.5,84.2c0.1,0.5,0,1.1-0.2,1.6c-0.1,0.1,0.1,0.2,0.2,0.1c0.3-0.5,0.4-1.1,0.3-1.7
				C57.7,84,57.5,84.1,57.5,84.2L57.5,84.2z"/>
		</g>
	</g>
</g>
<g>
	<g>
		<g>
			<path class="st0" d="M27.1,82.7c0.5,0.7,0.6,1.6,0.3,2.4c0,0.1,0.1,0.2,0.2,0c0.3-0.9,0.2-1.8-0.4-2.5
				C27.2,82.5,27,82.6,27.1,82.7L27.1,82.7z"/>
		</g>
	</g>
</g>
<g>
	<g>
		<g>
			<path class="st0" d="M28.1,83.4c0.1,0.6,0.1,1.2-0.1,1.9c0,0.1,0.1,0.2,0.2,0c0.2-0.6,0.2-1.3,0.1-1.9
				C28.2,83.3,28.1,83.3,28.1,83.4L28.1,83.4z"/>
		</g>
	</g>
</g>
<g>
	<g>
		<g>
			<path class="st0" d="M86,83.6c0.2,0.6,0.2,1.2-0.2,1.7c-0.1,0.1,0.1,0.2,0.2,0.1c0.4-0.5,0.4-1.2,0.2-1.8
				C86.1,83.4,86,83.4,86,83.6L86,83.6z"/>
		</g>
	</g>
</g>
<g>
	<g>
		<g>
			<path class="st0" d="M86.8,84.9c-0.1,0.5-0.3,0.9-0.6,1.2c-0.1,0.1,0,0.2,0.1,0.1c0.4-0.4,0.6-0.8,0.7-1.3
				C86.9,84.8,86.8,84.8,86.8,84.9L86.8,84.9z"/>
		</g>
	</g>
</g>
<g>
	<path class="st0" d="M107.2,48.1l0-0.7l-0.6-0.4l0.7-0.2l0.2-0.7l0.4,0.6l0.7,0l-0.4,0.6l0.2,0.7l-0.7-0.2L107.2,48.1z M106.8,47
		l0.5,0.4l0,0.6l0.5-0.4l0.6,0.2l-0.2-0.6l0.4-0.5l-0.6,0l-0.4-0.5l-0.2,0.6L106.8,47z"/>
</g>
<g>
	<path class="st0" d="M112.6,46.9l-0.1-0.4l-0.4-0.2l0.4-0.2l0-0.5l0.4,0.3l0.4-0.1l-0.2,0.4l0.3,0.4l-0.5,0L112.6,46.9z
		 M112.2,46.3l0.3,0.1l0.1,0.3l0.2-0.3l0.3,0l-0.2-0.3l0.1-0.3l-0.3,0.1l-0.3-0.2l0,0.3L112.2,46.3z"/>
</g>
<g>
	<path class="st0" d="M112.7,43.3l-0.4-1.1l-1.2-0.3l1-0.7l-0.1-1.2l1,0.7l1.1-0.4l-0.3,1.2l0.8,0.9l-1.2,0L112.7,43.3z M111.3,41.9
		l1.1,0.3l0.4,1l0.6-0.9l1.1,0l-0.7-0.9l0.3-1l-1,0.4l-0.9-0.6l0.1,1.1L111.3,41.9z"/>
</g>
<g>
	<g>
		<g>
			<path class="st0" d="M109.3,80.6c-0.5-0.7-1,0.2-1.6-0.1c-0.2-0.1-0.3-0.4-0.5-0.4c-0.4,0-0.3,0.8-1,0.3
				c-0.1-0.1-0.2,0.1-0.1,0.2c0.2,0.1,0.4,0.2,0.6,0.1c0.3-0.1,0.4-0.4,0.7-0.2c0.2,0.1,0.3,0.4,0.6,0.4c0.3,0.1,1-0.4,1.2-0.1
				C109.2,80.7,109.3,80.7,109.3,80.6L109.3,80.6z"/>
		</g>
	</g>
</g>
<g>
	<g>
		<g>
			<path class="st0" d="M110.2,79.8c0.2,0,0.4,0,0.5,0.1c0,0,0.1,0,0.1,0.1c0.1,0,0.2,0.1,0.2,0c0.1,0,0.7-0.5,0.8-0.2
				c0,0.1,0.2,0.1,0.2,0c0-0.2-0.1-0.3-0.3-0.3c-0.1,0-0.2,0-0.3,0.1c-0.1,0-0.1,0.1-0.2,0.1c-0.4,0.2-0.3,0-0.5-0.1
				c-0.2-0.1-0.4-0.2-0.6,0c-0.1,0.1-0.1,0.3,0.1,0.3C110.3,80,110.3,79.9,110.2,79.8L110.2,79.8z"/>
		</g>
	</g>
</g>
<g>
	<g>
		<g>
			<path class="st0" d="M113.3,80.2c0.2-0.2,0.7,0.2,1,0c0.2-0.1,0.2-0.6,0.5-0.6c0.1,0,0.1-0.2,0-0.2c-0.3,0-0.3,0.3-0.5,0.5
				c-0.2,0.4-0.8-0.2-1.1,0.1C113.1,80.2,113.2,80.3,113.3,80.2L113.3,80.2z"/>
		</g>
	</g>
</g>
<g>
	<g>
		<g>
			<path class="st0" d="M125.8,76.1c0.1-0.2,0.2-0.5,0.4-0.6c0.2-0.1,0.4-0.1,0.5-0.2c0.3-0.1,0.5-0.3,0.7-0.6
				c0.1-0.1-0.1-0.2-0.1-0.1c-0.1,0.2-0.3,0.3-0.5,0.4c-0.2,0.1-0.4,0.1-0.6,0.2c-0.3,0.2-0.5,0.5-0.6,0.8
				C125.6,76.2,125.8,76.2,125.8,76.1L125.8,76.1z"/>
		</g>
	</g>
</g>
<g>
	<g>
		<g>
			<path class="st0" d="M127.6,74.2c0-0.2,0.6-0.2,0.8-0.3c0.1-0.1,0.2-0.3,0.2-0.5c0-0.1,0-0.2,0.1-0.3c0.1-0.2,0.3-0.3,0.5-0.4
				c0.2-0.1,0.4-0.2,0.4-0.4c0-0.1-0.2-0.2-0.2,0c0,0.1-0.3,0.2-0.4,0.3c0,0-0.1,0-0.1,0c-0.1,0-0.2,0.1-0.2,0.2
				c-0.1,0.2-0.1,0.4-0.2,0.6c-0.1,0.2-0.1,0.4-0.4,0.4c-0.1,0-0.2,0-0.3,0c-0.2,0.1-0.2,0.2-0.3,0.3
				C127.4,74.3,127.6,74.3,127.6,74.2L127.6,74.2z"/>
		</g>
	</g>
</g>
<g>
	<g>
		<g>
			<path class="st0" d="M104.8,53.9c3.2-1.7,6.6-2.9,10.2-3.3c0.1,0,0.1-0.2,0-0.2c-3.6,0.4-7.1,1.6-10.3,3.3
				C104.6,53.8,104.7,54,104.8,53.9L104.8,53.9z"/>
		</g>
	</g>
</g>
<g>
	<g>
		<g>
			<path class="st0" d="M107.6,51.9c1.6-0.5,3.2-1,4.9-1.5c0.1,0,0.1-0.2,0-0.2c-1.6,0.5-3.2,1-4.9,1.5
				C107.4,51.8,107.5,52,107.6,51.9L107.6,51.9z"/>
		</g>
	</g>
</g>
<g>
	<g>
		<g>
			<path class="st0" d="M118.6,69.4c2.3-1.3,4.7-2.6,7.1-3.9c0.1-0.1,0-0.2-0.1-0.2c-2.4,1.2-4.8,2.5-7.1,3.9
				C118.4,69.3,118.4,69.5,118.6,69.4L118.6,69.4z"/>
		</g>
	</g>
</g>
<g>
	<g>
		<g>
			<path class="st0" d="M120.9,68.9c0.8-0.4,1.5-0.8,2.4-1.2c0.1,0,0-0.2-0.1-0.2c-0.8,0.4-1.6,0.7-2.4,1.2
				C120.7,68.8,120.8,69,120.9,68.9L120.9,68.9z"/>
		</g>
	</g>
</g>
<g>
	<g>
		<g>
			<path class="st0" d="M115.4,70.1c-3.2,0.8-6.4,1.4-9.6,1.7c-0.1,0-0.1,0.2,0,0.2c3.3-0.4,6.5-0.9,9.7-1.7
				C115.6,70.3,115.5,70.1,115.4,70.1L115.4,70.1z"/>
		</g>
	</g>
</g>
<g>
	<g>
		<g>
			<path class="st0" d="M115.1,71.3C115.1,71.3,115.1,71.3,115.1,71.3c0.1,0,0.1,0,0.1-0.1c0,0,0,0,0-0.1c0,0,0-0.1-0.1-0.1
				c-0.6-0.1-1.5,0.2-2.1,0.3c-0.9,0.2-1.8,0.3-2.7,0.5c-0.1,0-0.1,0.2,0,0.2c0.8-0.1,1.6-0.3,2.3-0.4c0.4-0.1,0.7-0.1,1.1-0.2
				c0.2,0,0.4-0.1,0.5-0.1c0.2,0,0.5-0.2,0.7-0.2C115,71.1,115,71.3,115.1,71.3L115.1,71.3z"/>
		</g>
	</g>
</g>
<g>
	<g>
		<g>
			<path class="st0" d="M124.5,82.1c1.4-0.7,2.7-1.4,4-2.1c0.1-0.1,0-0.2-0.1-0.2c-1.4,0.7-2.7,1.4-4,2.1
				C124.3,81.9,124.4,82.1,124.5,82.1L124.5,82.1z"/>
		</g>
	</g>
</g>
<g>
	<g>
		<g>
			<path class="st0" d="M119.2,84.5c-1.1,0.6-2.3,1.2-3.6,1.6c-0.1,0-0.1,0.2,0,0.2c1.2-0.5,2.5-1,3.6-1.7
				C119.4,84.6,119.3,84.5,119.2,84.5L119.2,84.5z"/>
		</g>
	</g>
</g>
<g>
	<g>
		<g>
			<path class="st0" d="M103.5,77.4c0.1,0.2,0.2,0.4,0.3,0.5c-0.2,0.3-0.2,0.6,0.1,0.7c0.3,0.3,0.3,0.8,0.1,1.2
				c0,0.1,0.1,0.2,0.1,0.1c0.5-0.6,0.8,1.7,0.6,2.2c-0.1,0.4-0.3,0.8-0.5,1.1c-0.1,0.1,0.1,0.2,0.2,0.1c0.3-0.5,1-2,0.4-2.6
				c-0.2-0.2-0.5-0.1-0.4,0.2c0,0.1,0.1,0.1,0.1,0.1c0.6-0.5,0-1.8-0.5-1.2c0,0,0.1,0.1,0.1,0.1c0.2-0.4,0.4-1.4-0.2-1.6
				c-0.4-0.1-0.6,0.2-0.4,0.5c0,0,0.1,0.1,0.1,0c0.4-0.4,0.6-1,0.2-1.5c-0.2-0.2-0.4-0.3-0.5,0C103.3,77.5,103.4,77.6,103.5,77.4
				L103.5,77.4z"/>
		</g>
	</g>
</g>
<g>
	<g>
		<g>
			<path class="st0" d="M102.9,77.3c-0.6,0-1.1,0.2-1.5,0.6c-0.1,0,0,0.1,0,0.1c0.4,0.1,0.8,0.1,1.2-0.1c0.2-0.1,0.3-0.2,0.5-0.3
				c0.1-0.1,0.9-0.4,0.6-0.1c0,0.1-0.1,0.2-0.2,0.1c-0.2,0-0.3-0.1-0.5-0.2c-0.1,0-0.2,0-0.2,0.1c0.1,0.6,0,1.2,0,1.9
				c0,0.1,0.2,0.1,0.2,0c0.1-0.6,0.1-1.2,0-1.9c-0.1,0-0.1,0-0.2,0.1c0.4,0.3,0.8,0.4,1.2,0.2c0,0,0.1-0.1,0-0.1
				c-0.1-0.3-0.4-0.4-0.6-0.4c-0.2,0-0.4,0.2-0.6,0.3c-0.5,0.3-0.9,0.4-1.4,0.2c0,0,0,0.1,0,0.1c0.4-0.4,0.9-0.5,1.4-0.5
				C103,77.5,103,77.3,102.9,77.3L102.9,77.3z"/>
		</g>
	</g>
</g>
<g>
	<g>
		<g>
			<path class="st0" d="M103.1,79.5c0.1,0.2,0.1,0.4-0.1,0.5c-0.1,0.1-0.2,0.1-0.4,0.1c-0.2,0.1-0.4,0.1-0.7,0.1c0,0.1,0,0.1,0,0.2
				c0.2-0.1,0.4-0.2,0.7-0.3c0.2,0,0.9-0.3,0.7,0.3c-0.1,0.4-0.8,0.5-1.1,0.5c0,0.1,0,0.1,0,0.2c0.1-0.1,0.3-0.1,0.4-0.1
				c0.2,0.3,0.1,0.5-0.2,0.4c0,0,0.1,0.1,0.1,0.1c0,0,0.1,0,0.1,0c0,0.1,0.2,0,0.2-0.1c-0.1-0.2-0.4-0.2-0.5,0c0,0.1,0,0.1,0.1,0.1
				c0.3,0,0.7-0.1,0.6-0.5c-0.1-0.4-0.7-0.3-1-0.2c-0.1,0-0.1,0.2,0,0.2c0.5,0.1,1.5-0.3,1.4-1c-0.1-0.7-1.5-0.1-1.8,0.1
				c-0.1,0,0,0.2,0,0.2c0.4,0,1.5-0.2,1.6-0.8c0-0.3-0.4-0.5-0.6-0.2C102.9,79.5,103.1,79.6,103.1,79.5L103.1,79.5z"/>
		</g>
	</g>
</g>
<g>
	<g>
		<g>
			<path class="st0" d="M109.4,80.3c-0.2-0.2-0.5-0.6-0.1-0.7c0.3-0.1,0.5,0.2,0.6,0.5c0.1,0.1,0.2,0,0.2-0.1
				c-0.2-0.3-0.5-0.7-0.9-0.5c-0.5,0.2-0.1,0.7,0.1,1C109.3,80.5,109.5,80.4,109.4,80.3L109.4,80.3z"/>
		</g>
	</g>
</g>
<g>
	<g>
		<g>
			<path class="st0" d="M112.2,79.9c-0.2-0.2-0.2-0.7,0.1-0.8c0.4-0.2,0.7,0.3,0.6,0.6c0,0.1,0.1,0.2,0.2,0c0.2-0.5-0.3-1-0.8-0.8
				c-0.4,0.2-0.5,0.8-0.2,1.1C112.2,80.1,112.3,80,112.2,79.9L112.2,79.9z"/>
		</g>
	</g>
</g>
<g>
	<g>
		<g>
			<path class="st0" d="M127,75c-0.2-0.2-0.3-0.5-0.2-0.8c0.1-0.2,0.2-0.4,0.5-0.3c0.2,0.1,0.2,0.4,0.3,0.6c0,0.1,0.2,0.1,0.2,0
				c0-0.3-0.1-0.6-0.3-0.7c-0.2-0.1-0.4-0.1-0.6,0c-0.4,0.4-0.3,1,0.1,1.3C127,75.2,127.1,75,127,75L127,75z"/>
		</g>
	</g>
</g>
<g>
	<g>
		<g>
			<path class="st0" d="M119.8,78.1c0-0.1,0.3-0.3,0.3-0.1c0,0.1-0.2,0.2-0.2,0.1C119.9,77.9,119.8,77.9,119.8,78.1
				c0,0.3,0.6,0.3,0.5,0c0-0.2-0.1-0.3-0.3-0.3c-0.2,0-0.4,0.1-0.4,0.3C119.6,78.1,119.8,78.2,119.8,78.1L119.8,78.1z"/>
		</g>
	</g>
</g>
<g>
	<g>
		<g>
			<path class="st0" d="M121.9,77.2c0-0.1,0.1-0.1,0.2-0.1c0.1,0.1,0,0.2,0,0.2c0,0,0.1,0,0.1,0c-0.1-0.1-0.1-0.2-0.2-0.3
				c-0.1-0.1-0.2,0-0.2,0.1c0.1,0.1,0.1,0.2,0.2,0.3c0,0,0.1,0.1,0.1,0c0.2-0.1,0.2-0.5,0-0.6c-0.2-0.1-0.5,0.1-0.4,0.3
				C121.7,77.3,121.9,77.3,121.9,77.2L121.9,77.2z"/>
		</g>
	</g>
</g>
<g>
	<g>
		<g>
			<path class="st0" d="M117.3,79c0-0.1,0.3-0.1,0.3,0c0,0.1-0.1,0.1-0.1,0.1c0,0-0.1-0.1,0-0.1c0.1-0.1,0-0.2-0.1-0.1
				c-0.1,0.1-0.1,0.3,0.1,0.4c0.1,0.1,0.3,0,0.4-0.1s0-0.4-0.2-0.4c-0.2,0-0.4,0.1-0.4,0.2C117.1,79.1,117.3,79.2,117.3,79L117.3,79
				z"/>
		</g>
	</g>
</g>
</svg>
