<?xml version="1.0" encoding="utf-8"?>
<!-- Generator: Adobe Illustrator 24.0.1, SVG Export Plug-In . SVG Version: 6.00 Build 0)  -->
<svg version="1.1" id="Layer_1" xmlns="http://www.w3.org/2000/svg" xmlns:xlink="http://www.w3.org/1999/xlink" x="0px" y="0px"
	 viewBox="0 0 141.7 141.7" style="enable-background:new 0 0 141.7 141.7;" xml:space="preserve">
<style type="text/css">
	.st0{fill:#070707;}
</style>
<g id="Layer_1_1_">
</g>
<g id="Layer_1_2_">
</g>
<g id="Layer_1_3_">
</g>
<g id="Layer_1_4_">
</g>
<g id="Layer_1_5_">
</g>
<g id="Layer_3">
</g>
<g id="Layer_3_1_">
</g>
<g>
	<g>
		<g>
			<path class="st0" d="M104.5,86.4c0.4,0.3,0.8,0.6,1.2,0.8c0.2,0.1,0.4-0.2,0.2-0.3c-0.4-0.2-0.8-0.5-1.1-0.8
				C104.6,86.1,104.4,86.3,104.5,86.4L104.5,86.4z"/>
		</g>
	</g>
</g>
<g>
	<g>
		<g>
			<path class="st0" d="M99.4,72.2c1,3.3,1.8,6.7,1.7,10.1c0,0.2,0.3,0.2,0.3,0c0.1-3.5-0.8-6.9-1.8-10.2
				C99.7,71.9,99.4,72,99.4,72.2L99.4,72.2z"/>
		</g>
	</g>
</g>
<g>
	<g>
		<g>
			<path class="st0" d="M116.8,52.4c-1.4-1.5-3.2-2.3-5.2-2.5c-2.4-0.3-4.7,0.5-6.9,1.3c-1.8,0.6-3.7,1.3-5.2,2.6
				c-1.5,1.4-2.4,3.4-2.7,5.5c-0.4,2.8,0.4,5.7,1.2,8.4c0.1,0.2,0.4,0.1,0.3-0.1c-1.2-4.2-2.3-9.3,0.8-12.9c1.3-1.5,3-2.2,4.8-2.8
				c2-0.7,4.1-1.5,6.3-1.6c2.3-0.1,4.7,0.7,6.3,2.4C116.7,52.8,116.9,52.5,116.8,52.4L116.8,52.4z"/>
		</g>
	</g>
</g>
<g>
	<g>
		<g>
			<path class="st0" d="M108.3,88.2c3.2,1,6.8-0.5,9.7-1.7c1.5-0.6,2.9-1.3,4-2.4c1.2-1.1,2-2.5,2.5-4c0.1-0.2-0.3-0.3-0.3-0.1
				c-0.5,1.5-1.3,2.9-2.5,3.9c-1.1,1-2.5,1.6-3.9,2.2c-2.8,1.2-6.3,2.6-9.4,1.6C108.2,87.8,108.1,88.1,108.3,88.2L108.3,88.2z"/>
		</g>
	</g>
</g>
<g>
	<g>
		<g>
			<path class="st0" d="M102.4,52.3c0.2,0,0.2-0.3,0-0.3S102.2,52.3,102.4,52.3L102.4,52.3z"/>
		</g>
	</g>
</g>
<g>
	<g>
		<g>
			<path class="st0" d="M96.8,60.2c-1.8,0.2-3.2-1.3-2.5-3c0.5-1.2,2.5-2.5,3.8-1.6c0.2,0.1,0.4-0.2,0.2-0.3c-0.8-0.5-1.8-0.3-2.6,0
				c-0.8,0.4-1.5,1.1-1.8,2c-0.6,1.9,1.1,3.5,3,3.2C97.1,60.5,97,60.2,96.8,60.2L96.8,60.2z"/>
		</g>
	</g>
</g>
<g>
	<g>
		<g>
			<path class="st0" d="M114.8,51c1.1-0.9,3-1.7,4.2-0.4c1,1.2,1,3.2-0.6,3.9c-0.2,0.1,0,0.4,0.2,0.3c1.7-0.8,1.8-2.9,0.8-4.3
				c-1.3-1.6-3.5-0.8-4.8,0.3C114.4,50.9,114.6,51.2,114.8,51L114.8,51z"/>
		</g>
	</g>
</g>
<g>
	<g>
		<g>
			<path class="st0" d="M106.7,60c0-0.2,0-0.2-0.1-0.1c-0.1,0-0.1,0.1-0.2,0.1c-0.1,0-0.1,0.1-0.2,0.2c-0.2,0.2-0.4,0.4-0.5,0.7
				c-0.2,0.3-0.4,0.8-0.2,1.1c0.2,0.5,0.9,0.6,1.4,0.5c0.8-0.1,1.3-0.7,2.1-0.9c0.8-0.2,2.6,0.4,2.5-1.1c-0.1-1.1-1.5-1.3-2.4-1.5
				c-0.1,0-0.1,0.2,0,0.2c0.8,0.1,2.4,0.4,2.2,1.5c-0.2,1.1-1.6,0.5-2.4,0.7c-0.9,0.2-2.2,1.6-3.1,0.6c-0.6-0.7,0.5-1.8,1-2.1
				c0.1,0,0.1-0.1,0-0.2c-0.1,0-0.1,0-0.2,0C106.5,59.9,106.6,60.1,106.7,60L106.7,60z"/>
		</g>
	</g>
</g>
<g>
	<g>
		<g>
			<path class="st0" d="M110,61.6c0.3,0.4,0.5,1,0.5,1.5c0,0.3-0.2,0.7-0.6,0.8c-0.4,0-0.6-0.2-0.8-0.5c-0.1-0.1-0.2,0-0.1,0.1
				c0.2,0.2,0.3,0.5,0.6,0.5c0.3,0,0.7-0.1,0.8-0.4c0.4-0.6,0-1.6-0.4-2.1C110.1,61.4,109.9,61.5,110,61.6L110,61.6z"/>
		</g>
	</g>
</g>
<g>
	<g>
		<g>
			<path class="st0" d="M105.9,87.2c0.9-0.7,1.8,0.4,2.6,0.7c0-0.1,0-0.1,0-0.2c-1.1,0.4-1.4,1.9-2.5,2.3c-0.4,0.1-0.9-0.1-1.2-0.5
				c-0.2-0.4,0-0.9,0.2-1.2c0.3-0.5,0.8-1,1.2-1.4c0.1-0.1,0-0.2-0.1-0.1c-0.8,0.6-2.5,2.4-1,3.2c1.5,0.9,2.3-1.6,3.5-2.1
				c0.1,0,0.1-0.1,0-0.2c-0.9-0.4-1.7-1.5-2.7-0.7C105.7,87.2,105.8,87.3,105.9,87.2L105.9,87.2z"/>
		</g>
	</g>
</g>
<g>
	<g>
		<g>
			<path class="st0" d="M105.3,90c-0.3-0.6,0-1.1,0.5-1.5c0.1-0.1,0-0.2-0.1-0.1c-0.5,0.4-0.8,1.1-0.5,1.7
				C105.2,90.2,105.3,90.1,105.3,90L105.3,90z"/>
		</g>
	</g>
</g>
<g>
	<g>
		<g>
			<path class="st0" d="M126.4,79.4c-0.3,0.2-0.7,0.3-1.1,0.3c-0.3,0.1-0.7,0.2-1,0.2c-1,0-0.8-1.6-0.3-2.1c0.4-0.4,1.1-0.5,1.7-0.5
				c0.3,0,0.7,0.1,1,0.4C127.3,78.2,126.9,79,126.4,79.4c-0.1,0.1,0,0.2,0.1,0.2c0.7-0.5,1.1-1.4,0.3-2c-0.7-0.5-1.9-0.5-2.6-0.1
				c-0.8,0.5-1.1,1.7-0.6,2.5c0.2,0.3,0.4,0.3,0.7,0.2c0.7-0.2,1.5-0.3,2.2-0.6C126.6,79.4,126.5,79.3,126.4,79.4z"/>
		</g>
	</g>
</g>
<g>
	<g>
		<g>
			<path class="st0" d="M125.4,78.4c0.6-0.1,1.2-0.1,1.7,0.2c0.1,0.1,0.2-0.1,0.1-0.2c-0.6-0.3-1.2-0.3-1.8-0.2
				C125.2,78.2,125.2,78.4,125.4,78.4L125.4,78.4z"/>
		</g>
	</g>
</g>
<g>
	<g>
		<g>
			<path class="st0" d="M121.8,66.1c0.2,0,0.5-0.1,0.7-0.1c0.6-0.1,1.4,0,1.8,0.5c0.4,0.4,0.7,1.3-0.1,1.5c-0.7,0.2-1.4-0.2-1.9-0.5
				c-0.1-0.1-0.2,0.1-0.1,0.2c0.6,0.4,1.3,0.8,2.1,0.5c0.4-0.1,0.6-0.5,0.6-0.9c-0.1-0.6-0.5-1.1-1-1.3c-0.3-0.1-0.7-0.2-1.1-0.2
				c-0.3,0-0.6,0.2-0.9,0.2C121.7,66,121.7,66.1,121.8,66.1L121.8,66.1z"/>
		</g>
	</g>
</g>
<g>
	<g>
		<g>
			<path class="st0" d="M123.6,67.3c0.4,0,1,0.2,0.8,0.7c0,0.1,0.1,0.2,0.2,0c0.2-0.6-0.5-0.9-1-1C123.5,67.1,123.5,67.3,123.6,67.3
				L123.6,67.3z"/>
		</g>
	</g>
</g>
<g>
	<path class="st0" d="M111.6,58.7c-2,0-3.7-1.7-3.7-3.7c0-2,1.7-3.7,3.7-3.7c2,0,3.7,1.7,3.7,3.7C115.3,57,113.6,58.7,111.6,58.7z
		 M111.6,51.5c-1.9,0-3.5,1.6-3.5,3.5s1.6,3.5,3.5,3.5s3.5-1.6,3.5-3.5S113.5,51.5,111.6,51.5z"/>
</g>
<g>
	<path class="st0" d="M102.9,61.2c-0.7,0-1.3-0.2-1.9-0.5c-0.8-0.5-1.4-1.3-1.7-2.3c-0.2-1-0.1-2,0.4-2.8c0.5-0.8,1.3-1.4,2.3-1.7
		c2-0.5,4,0.8,4.5,2.7l0,0c0.5,2-0.8,4-2.7,4.5C103.5,61.1,103.2,61.2,102.9,61.2z M102.9,54c-0.3,0-0.5,0-0.8,0.1
		c-0.9,0.2-1.7,0.8-2.2,1.6c-0.5,0.8-0.6,1.7-0.4,2.6c0.2,0.9,0.8,1.7,1.6,2.2c0.8,0.5,1.7,0.6,2.6,0.4c1.9-0.4,3-2.3,2.6-4.2
		C105.9,55.1,104.5,54,102.9,54z"/>
</g>
<g>
	<path class="st0" d="M118,52c-0.1-0.4-0.5-0.7-0.9-0.6c-0.4,0.1-0.7,0.5-0.6,0.9c0.1,0.4,0.5,0.7,0.9,0.6
		C117.8,52.8,118,52.4,118,52z"/>
</g>
<g>
	<circle class="st0" cx="96.6" cy="57.8" r="0.8"/>
</g>
<g>
	<path class="st0" d="M109.5,58.9c-0.1-0.5-0.9-0.7-1.8-0.5c-0.9,0.2-1.5,0.8-1.4,1.2c0.1,0.5,0.9,0.7,1.8,0.5
		C109.1,59.9,109.7,59.4,109.5,58.9z"/>
</g>
<g>
	<path class="st0" d="M110.6,56.1c0.4,0.5,1.1,0.7,1.6,0.4c0.5-0.4,0.7-1.1,0.4-1.6c-0.4-0.5-1.1-0.7-1.6-0.4
		C110.4,54.9,110.2,55.6,110.6,56.1z M112,54.7c0.1,0.2,0.1,0.4-0.1,0.5c-0.2,0.1-0.4,0.1-0.5-0.1c-0.1-0.2-0.1-0.4,0.1-0.5
		C111.7,54.5,111.9,54.5,112,54.7z"/>
</g>
<g>
	<path class="st0" d="M102.1,58.3c0.4,0.5,1.1,0.7,1.6,0.4c0.5-0.4,0.7-1.1,0.4-1.6c-0.4-0.5-1.1-0.7-1.6-0.4
		C101.9,57,101.7,57.8,102.1,58.3z M103.5,56.9c0.1,0.2,0.1,0.4-0.1,0.5c-0.2,0.1-0.4,0.1-0.5-0.1c-0.1-0.2-0.1-0.4,0.1-0.5
		C103.2,56.7,103.4,56.7,103.5,56.9z"/>
</g>
<g>
	<g>
		<g>
			<path class="st0" d="M108.6,61.7c0.2,0.4,0.3,0.9,0.3,1.3c0.1,0.5,0,1.6-0.9,1.2c-0.6-0.3-0.7-1.3-0.7-1.9c0-0.1-0.2-0.1-0.2,0
				c0,0.7,0.2,2.3,1.2,2.1c1.2-0.2,0.6-2.2,0.3-2.8C108.7,61.5,108.6,61.6,108.6,61.7L108.6,61.7z"/>
		</g>
	</g>
</g>
<g>
	<g>
		<g>
			<path class="st0" d="M99.5,71.7c-0.9,0.1-1.7,0.7-2.1,1.4c-0.3,0.5-0.3,1.1,0.3,1.2c0.1,0,0.2-0.1,0-0.2c-0.7-0.2-0.3-1,0-1.3
				c0.4-0.5,1-0.9,1.7-1C99.6,71.9,99.6,71.7,99.5,71.7L99.5,71.7z"/>
		</g>
	</g>
</g>
<g>
	<g>
		<g>
			<path class="st0" d="M98.2,73.6c-0.2,0.2-0.5,0.4-0.4,0.7c0,0.3,0.4,0.4,0.6,0.4c0.7-0.1,1.3-1,1.5-1.6c0-0.1-0.1-0.2-0.2,0
				c-0.2,0.5-0.6,1-1,1.3c-0.2,0.1-0.7,0.3-0.8-0.1c-0.1-0.2,0.2-0.5,0.3-0.6C98.4,73.7,98.3,73.5,98.2,73.6L98.2,73.6z"/>
		</g>
	</g>
</g>
<g>
	<g>
		<g>
			<path class="st0" d="M121.4,65.1c0.7,2.8,1.7,5.4,2.3,8.2c0.1,0.2,0.4,0.1,0.3-0.1c-0.7-2.8-1.6-5.5-2.3-8.2
				C121.6,64.7,121.3,64.8,121.4,65.1L121.4,65.1z"/>
		</g>
	</g>
</g>
<g>
	<g>
		<g>
			<path class="st0" d="M116.3,52.3c2.4,2.2,3.2,5.4,4,8.5c0.1,0.2,0.4,0.1,0.3-0.1c-0.8-3.1-1.6-6.4-4.1-8.6
				C116.3,51.9,116.1,52.1,116.3,52.3L116.3,52.3z"/>
		</g>
	</g>
</g>
<g>
	<g>
		<g>
			<path class="st0" d="M121.6,84.4C121.6,84.4,121.6,84.4,121.6,84.4c0.2,0,0.1-0.2,0-0.2h0c0,0-0.1,0-0.1,0.1c0,0,0,0,0,0
				C121.6,84.3,121.6,84.3,121.6,84.4c0.1-0.1,0.1-0.1,0.1-0.1C121.6,84.3,121.6,84.3,121.6,84.4C121.6,84.4,121.6,84.4,121.6,84.4
				c0.1,0.1,0.2-0.1,0.1-0.2c0,0-0.1,0-0.1-0.1c-0.1,0-0.1,0-0.1,0.1C121.5,84.3,121.5,84.3,121.6,84.4
				C121.5,84.4,121.6,84.4,121.6,84.4c0.1,0,0.1-0.1,0.1-0.1C121.7,84.3,121.7,84.3,121.6,84.4L121.6,84.4c0.1-0.1,0-0.2,0-0.2
				c0,0,0,0-0.1,0C121.4,84.3,121.5,84.4,121.6,84.4L121.6,84.4z"/>
		</g>
	</g>
</g>
<g>
	<g>
		<g>
			<path class="st0" d="M97.5,55.2c-0.5-2.3,1.3-4,3-5.2c1.5-1.1,3.3-1.8,5.1-2.3c1.8-0.4,3.7-0.5,5.6-0.3c1.9,0.3,4.1,0.9,5.1,2.6
				c0.1,0.2,0.4,0,0.3-0.2c-1-1.8-3.2-2.4-5-2.7c-2.1-0.3-4.2-0.2-6.2,0.3c-2,0.5-3.9,1.4-5.6,2.7c-1.6,1.3-3,2.9-2.5,5.1
				C97.2,55.5,97.5,55.4,97.5,55.2L97.5,55.2z"/>
		</g>
	</g>
</g>
<g>
	<g>
		<g>
			<path class="st0" d="M98.6,51.4c0.8-2.2,1.6-4.4,2.4-6.6c0.7-1.9,1.5-3.8,3.3-4.9c3.5-2.2,8.1-0.4,9.2,3.5
				c0.1,0.2,0.4,0.1,0.3-0.1c-1.1-3.9-5.4-5.8-9.1-4.1c-1.9,0.9-2.9,2.6-3.7,4.4c-1,2.5-1.9,5.1-2.8,7.6
				C98.3,51.5,98.6,51.6,98.6,51.4L98.6,51.4z"/>
		</g>
	</g>
</g>
<g>
	<g>
		<g>
			<path class="st0" d="M113.9,43.9c0.9-0.6,2,0.5,1.9,1.5c-0.1,1-1.1,1.6-2,1.4c-0.7-0.2-1.7-0.7-1.8-1.5c-0.1-1.1,1-1.6,2-1.6
				c0.2,0,0.2-0.3,0-0.3c-1.1-0.1-2.4,0.6-2.3,1.9c0.1,1.2,1.7,1.9,2.7,1.8c1.1-0.1,1.9-1.2,1.7-2.2c-0.2-1.1-1.4-1.9-2.4-1.3
				C113.5,43.7,113.7,44,113.9,43.9L113.9,43.9z"/>
		</g>
	</g>
</g>
<g>
	<g>
		<g>
			<path class="st0" d="M112.2,47.4c-0.2-1.7-1.9-2.8-3.3-3.3c-1.7-0.6-3.6-0.6-5.2,0.1c-0.2,0.1-0.1,0.4,0.1,0.3
				c1.5-0.6,3.1-0.7,4.7-0.2c1.5,0.5,3.3,1.5,3.5,3.2C111.9,47.7,112.3,47.6,112.2,47.4L112.2,47.4z"/>
		</g>
	</g>
</g>
<g>
	<g>
		<g>
			<path class="st0" d="M110,44.3c-0.7-0.7-0.2-1.8,0.7-1.9c0.9-0.2,1.7,0.5,2.1,1.2c0.1,0.2,0.4,0,0.3-0.2c-0.6-1-1.7-1.8-2.9-1.2
				c-0.9,0.4-1.2,1.7-0.5,2.4C110,44.7,110.2,44.5,110,44.3L110,44.3z"/>
		</g>
	</g>
</g>
<g>
	<g>
		<g>
			<path class="st0" d="M117.4,63.9c1.4-1,3.2-2.2,3.9-3.9c0.3-0.7,0.3-1.5-0.2-2.2c-0.4-0.6-1.1-0.9-1.8-0.6
				c-0.2,0.1-0.1,0.4,0.1,0.3c1-0.4,1.8,0.6,1.8,1.5c0,0.8-0.5,1.5-1,2.1c-0.8,1-1.9,1.7-2.9,2.5C117.1,63.7,117.3,64,117.4,63.9
				L117.4,63.9z"/>
		</g>
	</g>
</g>
<g>
	<g>
		<g>
			<path class="st0" d="M115.8,64.9c0.2-0.1,0.5-0.3,0.7-0.4c0.2-0.1,0-0.4-0.2-0.3c-0.2,0.1-0.4,0.3-0.7,0.4
				C115.5,64.7,115.6,65.1,115.8,64.9L115.8,64.9z"/>
		</g>
	</g>
</g>
<g>
	<g>
		<g>
			<path class="st0" d="M96.9,62.9c-1.9,0.9-1.1,3.3,0.3,4.2c2.1,1.5,5,1.6,7.4,1.4c0.2,0,0.2-0.4,0-0.3c-2.1,0.2-4.3,0.1-6.3-0.8
				c-0.8-0.4-1.6-0.9-2-1.6c-0.5-0.9-0.3-2.1,0.7-2.6C97.3,63.1,97.1,62.8,96.9,62.9L96.9,62.9z"/>
		</g>
	</g>
</g>
<g>
	<g>
		<g>
			<path class="st0" d="M117.2,67.8c1.2-0.7,2.3-1.4,3.4-2.2c0.9-0.7,1.9-1.5,2.5-2.5c0.4-0.8,0.5-1.7,0.2-2.6c-0.5-1.2-1.6-2-2.4-3
				c-0.1-0.2-0.4,0-0.3,0.2c0.6,0.9,1.5,1.5,2,2.4c0.7,1,0.6,2.2-0.1,3.2c-0.7,1-1.7,1.7-2.7,2.4c-0.9,0.7-1.9,1.3-2.9,1.9
				C116.9,67.6,117,67.9,117.2,67.8L117.2,67.8z"/>
		</g>
	</g>
</g>
<g>
	<g>
		<g>
			<path class="st0" d="M96.5,63.1c-1.6,2-3.6,6.4-0.7,8.2c1.1,0.7,2.4,0.8,3.7,0.9c2.1,0.1,4.2-0.1,6.3-0.4c0.2,0,0.1-0.4-0.1-0.3
				c-1.9,0.3-3.7,0.4-5.6,0.4c-1.2,0-2.4-0.1-3.5-0.5c-3.4-1.4-1.5-5.9,0.2-8C96.9,63.2,96.7,62.9,96.5,63.1L96.5,63.1z"/>
		</g>
	</g>
</g>
<g>
	<g>
		<g>
			<path class="st0" d="M109.7,73.2c-0.3,0.2-0.7,0.3-1,0.5c-0.2,0.1,0,0.4,0.2,0.3c0.3-0.2,0.7-0.3,1-0.5
				C110.1,73.4,109.9,73.1,109.7,73.2L109.7,73.2z"/>
		</g>
	</g>
</g>
<g>
	<g>
		<g>
			<path class="st0" d="M108.5,73.9c0.1,0.9,0.2,1.9,0.5,2.7c0.2,0.7,0.5,1.7,1,2.2c0.8,1,2.4,0.5,3.4,0.2c1.8-0.5,3.5-1.2,5.1-2.1
				c0.6-0.3,1.2-0.8,1.3-1.5c0.2-0.8-0.2-1.5-0.5-2.2c-0.8-1.4-1.8-2.5-3.6-2.2c-0.2,0-0.1,0.4,0.1,0.3c1.9-0.4,3.2,1.5,3.6,3.1
				c0.3,1.2-0.6,1.8-1.5,2.3c-0.9,0.5-1.9,1-2.8,1.3c-0.7,0.3-1.4,0.5-2.1,0.7c-0.7,0.2-1.4,0.4-2.1,0.2c-0.9-0.3-1.2-1.5-1.5-2.3
				c-0.3-0.9-0.4-1.9-0.5-2.9C108.8,73.7,108.5,73.7,108.5,73.9L108.5,73.9z"/>
		</g>
	</g>
</g>
<g>
	<g>
		<g>
			<path class="st0" d="M110.3,74.3c0,1,0.1,2.8,1.2,3.3c0.6,0.2,1.6-0.1,2.2-0.3c0.8-0.2,1.6-0.5,2.4-0.9c0.6-0.3,1.3-0.7,1.6-1.3
				c0.3-0.6,0-1.2-0.3-1.7c-0.3-0.5-0.8-1-1.4-1.2c-0.8-0.2-1.5,0.3-2.2,0.6c-0.2,0.1,0,0.4,0.2,0.3c0.6-0.3,1.3-0.8,2-0.5
				c0.5,0.2,1,0.8,1.2,1.3c0.7,1.5-1.4,2.2-2.4,2.6c-0.5,0.2-1,0.3-1.5,0.5c-0.5,0.1-1.2,0.4-1.7,0.2c-1-0.3-1.1-2.2-1.1-3
				C110.7,74.1,110.3,74.1,110.3,74.3L110.3,74.3z"/>
		</g>
	</g>
</g>
<g>
	<g>
		<g>
			<path class="st0" d="M117.4,71.5c2.1-0.3,3.9-1.3,5.3-2.8c0.2-0.2-0.1-0.4-0.2-0.2c-1.4,1.5-3.2,2.4-5.2,2.8
				C117.1,71.2,117.2,71.5,117.4,71.5L117.4,71.5z"/>
		</g>
	</g>
</g>
<g>
	<g>
		<g>
			<path class="st0" d="M119.9,75.1c0.1-0.5,0.9-0.7,1.2-1c0.3-0.2,0.5-0.4,0.8-0.6c0.6-0.5,1.1-1.1,1.5-1.8
				c0.1-0.2-0.2-0.4-0.3-0.2c-0.5,0.9-1.2,1.6-2,2.2c-0.5,0.4-1.4,0.6-1.5,1.3C119.6,75.2,119.9,75.3,119.9,75.1L119.9,75.1z"/>
		</g>
	</g>
</g>
<g>
	<g>
		<g>
			<path class="st0" d="M109.7,78.4c-2.8,0.1-5.6,0.1-8.3,0.1c-0.2,0-0.2,0.3,0,0.3c2.8,0,5.6-0.1,8.3-0.1
				C110,78.8,110,78.4,109.7,78.4L109.7,78.4z"/>
		</g>
	</g>
</g>
<g>
	<g>
		<g>
			<path class="st0" d="M100.4,76.1c3,0.6,6.1,0,8.6-1.7c0.2-0.1,0-0.4-0.2-0.3c-2.5,1.6-5.4,2.2-8.3,1.7
				C100.3,75.7,100.2,76,100.4,76.1L100.4,76.1z"/>
		</g>
	</g>
</g>
<g>
	<g>
		<g>
			<path class="st0" d="M117.5,81.8c1.6-0.9,3.2-1.8,4.7-2.8c1.1-0.7,2.2-1.5,3.2-2.3c0.7-0.6,1.5-1.6,1.2-2.6
				c-0.3-1.1-1.5-1.6-2.5-1.7c-0.2,0-0.2,0.3,0,0.3c1.2,0.1,2.7,1,2.1,2.4c-0.4,1-1.4,1.7-2.2,2.2c-2.2,1.5-4.3,3-6.6,4.2
				C117.1,81.6,117.3,81.9,117.5,81.8L117.5,81.8z"/>
		</g>
	</g>
</g>
<g>
	<g>
		<g>
			<path class="st0" d="M101.5,82.3c-1.3,0-1.7,1.6-1.3,2.7c0.6,1.5,2.5,1.7,3.9,1.6c1.9-0.2,3.7-0.8,5.5-1.4
				c1.9-0.6,3.7-1.3,5.5-2.1c0.2-0.1,0-0.4-0.2-0.3c-2.7,1.3-5.4,2.2-8.3,2.9c-1.4,0.4-2.8,0.8-4.2,0.5c-0.7-0.1-1.5-0.5-1.9-1.2
				c-0.4-0.8-0.2-2.3,0.9-2.3C101.7,82.7,101.7,82.3,101.5,82.3L101.5,82.3z"/>
		</g>
	</g>
</g>
<g>
	<g>
		<g>
			<path class="st0" d="M117.9,78.7c1.5-0.7,2.9-1.3,4.2-2.4c0.6-0.5,1.1-1,1.4-1.7c0.4-0.8,0.6-1.4,0.5-2.3c0-0.2-0.4-0.1-0.3,0.1
				c0.3,1.7-1.1,3.2-2.4,4.1c-1.1,0.8-2.3,1.3-3.5,1.9C117.5,78.5,117.7,78.8,117.9,78.7L117.9,78.7z"/>
		</g>
	</g>
</g>
<g>
	<g>
		<g>
			<path class="st0" d="M101.5,83c1.6,1,3.6,0.8,5.3,0.4c2.1-0.5,4.2-1.2,6.2-2.2c0.2-0.1,0-0.4-0.2-0.3c-1.8,0.8-3.7,1.5-5.6,2
				c-1.8,0.4-3.9,0.8-5.5-0.3C101.4,82.5,101.3,82.8,101.5,83L101.5,83z"/>
		</g>
	</g>
</g>
<g>
	<g>
		<g>
			<path class="st0" d="M114.9,78.5c0.2,0.2,0.3,0.5,0.3,0.8c0,0.2,0.4,0.1,0.3-0.1c-0.1-0.4-0.2-0.7-0.4-0.9
				C115,78.1,114.7,78.3,114.9,78.5L114.9,78.5z"/>
		</g>
	</g>
</g>
<g>
	<g>
		<g>
			<path class="st0" d="M112.3,79.5c0.4,0.2,0.7,0.7,0.6,1.2c0,0.2,0.3,0.3,0.3,0.1c0.1-0.6-0.2-1.3-0.8-1.6
				C112.3,79.1,112.1,79.4,112.3,79.5L112.3,79.5z"/>
		</g>
	</g>
</g>
<g>
	<g>
		<g>
			<path class="st0" d="M117.1,77.4c-0.4,0.4-0.2,1.2,0.3,1.4c0.2,0.1,0.3-0.3,0.1-0.3c-0.3-0.1-0.4-0.5-0.2-0.8
				C117.5,77.5,117.3,77.3,117.1,77.4L117.1,77.4z"/>
		</g>
	</g>
</g>
<g>
	<g>
		<g>
			<path class="st0" d="M114.6,83.3c1.4-0.8,1.9-2.8,0.9-4.1c-0.1-0.2-0.4,0-0.3,0.2c0.8,1.2,0.5,2.9-0.8,3.6
				C114.2,83.1,114.4,83.4,114.6,83.3L114.6,83.3z"/>
		</g>
	</g>
</g>
<g>
	<g>
		<g>
			<path class="st0" d="M115.6,80.5c0.3,0.8,1,1.3,1.9,1.3c0.2,0,0.2-0.4,0-0.3c-0.7,0-1.3-0.4-1.5-1
				C115.9,80.2,115.6,80.3,115.6,80.5L115.6,80.5z"/>
		</g>
	</g>
</g>
<g>
	<g>
		<g>
			<path class="st0" d="M107,77c0-0.2,0.4-0.2,0.4,0c0,0.3-0.4,0.2-0.5,0c-0.1-0.2-0.4-0.1-0.3,0.1c0.1,0.3,0.3,0.5,0.6,0.5
				c0.3,0,0.5-0.3,0.5-0.6c0-0.3-0.2-0.5-0.5-0.6c-0.3,0-0.5,0.2-0.6,0.4C106.6,77.1,106.9,77.2,107,77L107,77z"/>
		</g>
	</g>
</g>
<g>
	<g>
		<g>
			<path class="st0" d="M104.2,77.3c-0.1-0.1,0-0.2,0.1-0.2c0.1,0,0.2,0.1,0.2,0.1c0.1,0.3-0.3,0.4-0.5,0.2
				c-0.2-0.1-0.4,0.1-0.2,0.2c0.2,0.2,0.6,0.2,0.8,0.1c0.2-0.2,0.3-0.5,0.2-0.7s-0.5-0.4-0.7-0.2c-0.2,0.2-0.3,0.5-0.1,0.7
				C104.1,77.8,104.4,77.5,104.2,77.3L104.2,77.3z"/>
		</g>
	</g>
</g>
<g>
	<g>
		<g>
			<path class="st0" d="M120.6,72c0.1-0.2,0.4-0.1,0.4,0.1c0,0.1-0.2,0.2-0.2,0.2c0,0-0.1,0-0.1,0C120.6,72.2,120.6,72.1,120.6,72
				c0,0,0-0.1,0-0.1c0-0.2-0.4-0.1-0.3,0.1c0,0.2,0,0.4,0.2,0.5c0.1,0.1,0.2,0.1,0.3,0.1c0.2,0,0.5-0.2,0.5-0.5
				c0.1-0.6-0.8-0.8-1-0.3C120.2,72,120.5,72.2,120.6,72L120.6,72z"/>
		</g>
	</g>
</g>
<g>
	<g>
		<g>
			<path class="st0" d="M108.8,74.2c0.7,1.6,0.7,3.4,1.4,5c0.1,0.2,0.4,0,0.3-0.2c-0.7-1.6-0.7-3.4-1.4-5
				C109,73.8,108.7,74,108.8,74.2L108.8,74.2z"/>
		</g>
	</g>
</g>
<g>
	<g>
		<g>
			<path class="st0" d="M116.7,71.5c1.4,1,2.4,2.6,2.6,4.3c0,0.2,0.4,0.2,0.3,0c-0.2-1.9-1.2-3.5-2.7-4.6
				C116.7,71.1,116.5,71.4,116.7,71.5L116.7,71.5z"/>
		</g>
	</g>
</g>
<g>
	<g>
		<g>
			<path class="st0" d="M113.9,73.7c0.7-0.3,1.5-0.6,2.2-0.8c0.2-0.1,0.1-0.4-0.1-0.3c-0.7,0.2-1.5,0.5-2.2,0.8
				C113.6,73.4,113.7,73.7,113.9,73.7L113.9,73.7z"/>
		</g>
	</g>
</g>
<g>
	<g>
		<g>
			<path class="st0" d="M110.7,75.2c0.2-0.1,0.4-0.2,0.6-0.3c0.2-0.1,0-0.4-0.2-0.3c-0.2,0.1-0.4,0.2-0.6,0.3
				C110.3,75,110.5,75.3,110.7,75.2L110.7,75.2z"/>
		</g>
	</g>
</g>
<g>
	<g>
		<g>
			<path class="st0" d="M70.1,70.7c-0.9-0.3-0.5-1.4-0.1-1.9c0.4-0.4,0.8-0.8,1.1-1.2c-0.1,0-0.2,0-0.3,0c0.2,0.8,1.5,2.1,0.6,2.9
				c-0.2,0.1,0.1,0.4,0.2,0.2c1.1-0.9-0.3-2.2-0.5-3.2c0-0.2-0.2-0.2-0.3,0c-0.5,0.8-1.5,1.3-1.6,2.3c-0.1,0.6,0.2,1.2,0.8,1.4
				C70.2,71.1,70.3,70.7,70.1,70.7L70.1,70.7z"/>
		</g>
	</g>
</g>
<g>
	<g>
		<g>
			<path class="st0" d="M75.9,73.4c0.2-0.5,0.8-0.3,1.2-0.2c0.3,0.1,0.7,0.2,1,0.1c-0.1-0.1-0.1-0.1-0.2-0.2c-0.2,1-1.2,1.7-2.2,1.5
				c-0.2-0.1-0.3,0.3-0.1,0.3c1.2,0.3,2.4-0.5,2.6-1.7c0-0.1-0.1-0.2-0.2-0.2c-0.7,0.2-2-0.7-2.4,0.3C75.5,73.5,75.8,73.6,75.9,73.4
				L75.9,73.4z"/>
		</g>
	</g>
</g>
<g>
	<g>
		<g>
			<path class="st0" d="M71.4,70.8c0.5-0.4,1-0.6,1.7-0.4c0.2,0.1,0.5,0.1,0.7,0.1c0.5-0.1,0.9-0.7,1.1-1.1c-0.1,0-0.2,0-0.3,0
				c0.1,0.5,0,1-0.3,1.4c-0.1,0.1,0,0.3,0.2,0.3c0.4,0,0.8-0.1,1.2-0.2c-0.1-0.1-0.1-0.2-0.2-0.3c-0.2,0.3-0.4,0.5-0.6,0.8
				c-0.1,0.1-0.1,0.3,0.1,0.3c0.1,0,0.8,0.1,0.9,0.2c0.1,0.2-0.3,0.5-0.4,0.6c-0.1,0.1-0.1,0.1-0.2,0.2c-0.2,0.4,0.2,0.7,0.1,1
				c-0.1,0.2,0.3,0.3,0.3,0.1c0-0.1,0.1-0.2,0-0.4c-0.1-0.4-0.3-0.3,0.1-0.8c0.3-0.3,0.4-0.5,0.4-0.9c0-0.1-0.1-0.2-0.1-0.2
				c-0.4-0.1-0.7-0.2-1.1-0.3c0,0.1,0.1,0.2,0.1,0.3c0.2-0.3,0.4-0.5,0.6-0.8c0.1-0.1,0-0.3-0.2-0.3c-0.4,0.1-0.8,0.2-1.2,0.2
				c0.1,0.1,0.1,0.2,0.2,0.3c0.4-0.5,0.5-1.1,0.3-1.7c0-0.2-0.2-0.2-0.3,0c-0.2,0.3-0.4,0.7-0.7,0.9c-0.5,0.2-0.8-0.1-1.2-0.1
				c-0.5,0-1,0.3-1.4,0.6C71.1,70.6,71.2,70.9,71.4,70.8L71.4,70.8z"/>
		</g>
	</g>
</g>
<g>
	<g>
		<g>
			<path class="st0" d="M73,70.4c0.3-2.8,1.5-5.4,3-7.8c0.7-1.1,1.5-2.2,2.2-3.3c0.4-0.6-0.1-1.2-0.8-0.9c-0.4,0.2-0.7,0.5-1,0.8
				c-0.5,0.5-0.9,1-1.3,1.5c-0.7,1-1.4,2-1.8,3.1c-0.1,0.3-0.2,0.8-0.7,0.7c-0.2,0-0.5-0.4-0.7-0.5c-0.4-0.4-0.7-0.9-1.1-1.3
				c-0.3-0.3-1.3-1.2-1.7-0.4c-0.4,0.8,1,1.9,1.5,2.3c0.5,0.4,1.7,0.8,1.7,1.5c0,0.4-0.3,0.9-0.4,1.2c-0.2,0.4-0.3,0.9-0.4,1.3
				c-0.1,0.2,0.3,0.3,0.3,0.1c0.2-0.6,0.4-1.3,0.6-1.9c0.1-0.3,0.3-0.8,0.2-1.2c-0.2-0.3-0.5-0.4-0.9-0.6c-0.6-0.3-1.1-0.6-1.5-1.1
				c-0.2-0.2-0.4-0.3-0.5-0.5c0,0-0.4-0.4-0.3-0.5c0.1-0.1,0.2-0.1,0.2-0.2c0.1-0.2,0.2-0.2,0.4-0.1c0.4,0.2,0.8,0.7,1.1,1.1
				c0.4,0.4,1.2,1.5,1.9,1.4c0.2-0.1,0.3-0.2,0.4-0.4c0.3-0.6,0.5-1.2,0.8-1.8c0.6-1,1.3-2,2.1-2.9c0.3-0.3,1-1.2,1.4-1.2
				c0,0,0.1,0,0.1-0.1c0.1,0.1,0.2,0.2,0.3,0.4c0,0.1-0.2,0.3-0.2,0.3c-0.2,0.3-0.4,0.6-0.6,0.9c-0.7,1-1.3,2-1.9,3
				c-1.3,2.2-2.3,4.6-2.6,7.2C72.6,70.6,73,70.6,73,70.4L73,70.4z"/>
		</g>
	</g>
</g>
<g>
	<g>
		<g>
			<path class="st0" d="M75.8,71.8c2.1-1.3,3.9-3,5.4-4.9c0.7-0.9,1.4-1.9,1.9-2.9c0.6-1.2,1.2-2.4,2.3-3.2
				c-0.1-0.1-0.2-0.1-0.3-0.2c-0.3,4-3.4,6.9-6.3,9.4c-0.1,0.1-0.1,0.2,0,0.2c0.3,0.4,0.7,0.6,1.1,0.8c0.2,0.1,0.5,0.2,0.6,0.3
				c0.2,0.1,0.2,0.3,0,0.6c0,0.4-0.2,0.6-0.5,0.4c-0.5-0.1-0.9-0.4-1.2-0.7c-0.3-0.2-0.6-0.6-1-0.5c-0.3,0.1-0.5,0.4-0.7,0.5
				c-0.4,0.3-0.7,0.7-1.1,1c-0.2,0.2,0.1,0.4,0.2,0.2c0.2-0.2,0.5-0.4,0.7-0.7c0.2-0.2,0.5-0.6,0.7-0.7c0.6-0.2,0.9,0.3,1.3,0.6
				c0.5,0.4,1.2,0.8,1.9,0.5c0.5-0.2,0.6-0.8,0.3-1.2c-0.2-0.3-0.4-0.5-0.7-0.6c-0.2-0.1-1.2-0.3-1.1-0.7c0-0.1,0.5-0.4,0.5-0.5
				c0.2-0.2,0.4-0.3,0.5-0.5c0.4-0.4,0.8-0.8,1.2-1.2c0.7-0.7,1.3-1.4,1.9-2.2c1.1-1.5,1.8-3.2,1.9-5.1c0-0.1-0.2-0.2-0.3-0.2
				c-0.9,0.6-1.5,1.5-2,2.4c-0.6,1.1-1.2,2.2-1.9,3.2c-1.5,2.1-3.5,3.9-5.7,5.4C75.4,71.6,75.6,71.9,75.8,71.8L75.8,71.8z"/>
		</g>
	</g>
</g>
<g>
	<g>
		<path class="st0" d="M71.1,74.5c-0.9,0-1.6-0.7-1.6-1.6c0-0.9,0.7-1.6,1.6-1.6c0.9,0,1.6,0.7,1.6,1.6
			C72.6,73.8,71.9,74.5,71.1,74.5z M71.1,71.6c-0.7,0-1.4,0.6-1.4,1.4c0,0.7,0.6,1.4,1.4,1.4c0.7,0,1.4-0.6,1.4-1.4
			C72.4,72.2,71.8,71.6,71.1,71.6z"/>
	</g>
	<g>
		<path class="st0" d="M70.2,72.7c-0.3,0.1-0.4,0.3-0.4,0.6s0.3,0.4,0.6,0.4c0.3-0.1,0.4-0.3,0.4-0.6C70.7,72.8,70.5,72.6,70.2,72.7
			z M70.6,73.4c-0.1,0-0.2,0-0.2-0.1s0-0.2,0.1-0.2s0.2,0,0.2,0.1C70.7,73.3,70.6,73.4,70.6,73.4z"/>
	</g>
</g>
<g>
	<g>
		<path class="st0" d="M73.6,76.3c-0.9,0-1.6-0.7-1.6-1.6c0-0.9,0.7-1.6,1.6-1.6c0.9,0,1.6,0.7,1.6,1.6
			C75.2,75.6,74.5,76.3,73.6,76.3z M73.6,73.4c-0.7,0-1.4,0.6-1.4,1.4c0,0.7,0.6,1.4,1.4,1.4c0.7,0,1.4-0.6,1.4-1.4
			C75,74,74.3,73.4,73.6,73.4z"/>
	</g>
	<g>
		<path class="st0" d="M74.5,75c0.3-0.1,0.4-0.3,0.4-0.6c-0.1-0.3-0.3-0.4-0.6-0.4c-0.3,0.1-0.4,0.3-0.4,0.6
			C74,74.9,74.2,75.1,74.5,75z M74.1,74.3c0.1,0,0.2,0,0.2,0.1c0,0.1,0,0.2-0.1,0.2c-0.1,0-0.2,0-0.2-0.1S74,74.3,74.1,74.3z"/>
	</g>
</g>
<g>
	<g>
		<path class="st0" d="M42.6,74.1c-0.9,0-1.6-0.7-1.6-1.6c0-0.9,0.7-1.6,1.6-1.6c0.9,0,1.6,0.7,1.6,1.6
			C44.2,73.5,43.5,74.1,42.6,74.1z M42.6,71.2c-0.7,0-1.4,0.6-1.4,1.4c0,0.7,0.6,1.4,1.4,1.4c0.7,0,1.4-0.6,1.4-1.4
			C44,71.8,43.3,71.2,42.6,71.2z"/>
	</g>
	<g>
		<path class="st0" d="M43.5,72.4c0.2-0.2,0.2-0.5,0-0.7c-0.2-0.2-0.5-0.2-0.7,0c-0.2,0.2-0.2,0.5,0,0.7
			C43,72.6,43.3,72.6,43.5,72.4z M42.8,71.9c0.1-0.1,0.1,0,0.2,0s0,0.1,0,0.2s-0.1,0-0.2,0S42.8,72,42.8,71.9z"/>
	</g>
</g>
<g>
	<g>
		<path class="st0" d="M45.4,75.5c-0.9,0-1.6-0.7-1.6-1.6c0-0.9,0.7-1.6,1.6-1.6c0.9,0,1.6,0.7,1.6,1.6C47,74.8,46.3,75.5,45.4,75.5
			z M45.4,72.6c-0.7,0-1.4,0.6-1.4,1.4c0,0.7,0.6,1.4,1.4,1.4s1.4-0.6,1.4-1.4C46.8,73.2,46.2,72.6,45.4,72.6z"/>
	</g>
	<g>
		<path class="st0" d="M46.3,74c0.2-0.1,0.4-0.4,0.2-0.6c-0.1-0.2-0.4-0.4-0.6-0.2c-0.2,0.1-0.4,0.4-0.2,0.6
			C45.8,74,46.1,74.1,46.3,74z M45.8,73.4c0.1,0,0.2,0,0.2,0.1c0,0.1,0,0.2-0.1,0.2s-0.2,0-0.2-0.1C45.7,73.5,45.8,73.4,45.8,73.4z"
			/>
	</g>
</g>
<g>
	<path class="st0" d="M14.7,74.3c-0.9,0-1.6-0.7-1.6-1.6c0-0.9,0.7-1.6,1.6-1.6c0.9,0,1.6,0.7,1.6,1.6
		C16.2,73.6,15.5,74.3,14.7,74.3z M14.7,71.4c-0.7,0-1.4,0.6-1.4,1.4c0,0.7,0.6,1.4,1.4,1.4c0.7,0,1.4-0.6,1.4-1.4
		C16,72,15.4,71.4,14.7,71.4z"/>
</g>
<g>
	<path class="st0" d="M15.3,73c0.2-0.2,0.1-0.5-0.1-0.7c-0.2-0.2-0.5-0.1-0.7,0.1c-0.2,0.2-0.1,0.5,0.1,0.7
		C14.8,73.3,15.1,73.3,15.3,73z M14.5,72.7c0-0.1,0.1-0.1,0.2,0c0.1,0,0.1,0.1,0,0.2c0,0.1-0.1,0.1-0.2,0
		C14.5,72.9,14.5,72.8,14.5,72.7z"/>
</g>
<g>
	<path class="st0" d="M17.7,75c-0.9,0-1.6-0.7-1.6-1.6c0-0.9,0.7-1.6,1.6-1.6s1.6,0.7,1.6,1.6C19.3,74.3,18.6,75,17.7,75z
		 M17.7,72.1c-0.7,0-1.4,0.6-1.4,1.4c0,0.7,0.6,1.4,1.4,1.4c0.7,0,1.4-0.6,1.4-1.4C19.1,72.7,18.5,72.1,17.7,72.1z"/>
</g>
<g>
	<path class="st0" d="M18.2,73.7c0.2-0.2,0.3-0.5,0.1-0.7s-0.5-0.3-0.7-0.1c-0.2,0.2-0.3,0.5-0.1,0.7C17.7,73.8,18,73.9,18.2,73.7z
		 M17.6,73.2c0.1,0,0.2,0,0.2,0c0,0.1,0,0.2,0,0.2c-0.1,0-0.2,0-0.2,0C17.5,73.3,17.5,73.2,17.6,73.2z"/>
</g>
<g>
	<path class="st0" d="M14.9,83.8c-0.6,0-1.2-0.1-1.8-0.3l0,0c-2.8-0.8-4.6-3.4-3.9-5.7c0.3-1,1-1.8,2-2.4c1.3-0.7,2.9-0.8,4.4-0.4
		c1.4,0.4,2.5,1.2,3.2,2.3c0.7,1.1,1,2.3,0.6,3.5c-0.3,1-1,1.8-2,2.4C16.7,83.5,15.8,83.8,14.9,83.8z M13.2,83.2
		c1.5,0.4,3,0.3,4.2-0.4c0.9-0.5,1.6-1.3,1.8-2.2c0.3-1.1,0.1-2.2-0.6-3.2c-0.7-1-1.8-1.8-3.1-2.2c-1.5-0.4-3-0.3-4.2,0.4
		c-0.9,0.5-1.6,1.3-1.8,2.2C8.9,80,10.5,82.5,13.2,83.2L13.2,83.2z"/>
</g>
<g>
	<path class="st0" d="M42.3,83.9c-0.6,0-1.2-0.1-1.8-0.3c-2.8-0.8-4.6-3.4-3.9-5.7c0.3-1,1-1.8,2-2.4c1.3-0.7,2.9-0.8,4.4-0.4
		c1.4,0.4,2.5,1.2,3.2,2.3c0.7,1.1,1,2.3,0.6,3.5c-0.3,1-1,1.8-2,2.4C44.1,83.7,43.2,83.9,42.3,83.9z M41.2,75.1
		c-0.9,0-1.8,0.2-2.5,0.6c-0.9,0.5-1.6,1.3-1.8,2.2c-0.6,2.2,1,4.6,3.7,5.4c1.5,0.4,3,0.3,4.2-0.4c0.9-0.5,1.6-1.3,1.8-2.2
		c0.3-1.1,0.1-2.2-0.6-3.2c-0.7-1-1.8-1.8-3.1-2.2C42.3,75.2,41.8,75.1,41.2,75.1z"/>
</g>
<g>
	<path class="st0" d="M68.8,83.9c-0.6,0-1.2-0.1-1.8-0.3c-1.5-0.4-2.8-1.4-3.5-2.7c-0.5-1-0.7-2.1-0.4-3.1c0.3-1,1-1.8,2-2.4
		c1.3-0.7,2.9-0.8,4.4-0.4c1.4,0.4,2.5,1.2,3.2,2.3c0.7,1.1,1,2.3,0.6,3.5c-0.3,1-1,1.8-2,2.4C70.6,83.7,69.7,83.9,68.8,83.9z
		 M67.7,75.1c-0.9,0-1.8,0.2-2.5,0.6c-0.9,0.5-1.6,1.3-1.8,2.2c-0.3,0.9-0.1,1.9,0.4,2.9c0.7,1.2,1.9,2.1,3.3,2.5
		c1.5,0.4,3,0.3,4.2-0.4c0.9-0.5,1.6-1.3,1.8-2.2c0.3-1.1,0.1-2.2-0.6-3.2c-0.7-1-1.8-1.8-3.1-2.2C68.9,75.2,68.3,75.1,67.7,75.1z"
		/>
</g>
<g>
	<g>
		<g>
			<path class="st0" d="M37,77.3c0.9-2.4,1.5-5.8,4.1-7c0.1,0,0.1-0.2,0-0.3c-0.4-0.5-0.7-1-0.8-1.7c0-0.1-0.1-0.6,0-0.7
				c0.2-0.4,0.5-0.1,0.6,0.1c0.3,0.5,0.7,1.1,0.7,1.7c0,0.2,0.4,0.2,0.3,0c-0.1-0.7-0.6-2.3-1.5-2.4c-0.5,0-0.6,0.6-0.6,1
				c0,0.8,0.4,1.6,0.9,2.2c0-0.1,0-0.2,0-0.3c-2.7,1.2-3.4,4.7-4.3,7.1C36.6,77.4,36.9,77.5,37,77.3L37,77.3z"/>
		</g>
	</g>
</g>
<g>
	<g>
		<g>
			<path class="st0" d="M43.4,68.8c-0.4-2.2-0.2-4.5,0.4-6.7c0.3-1.1,0.8-2.1,1.3-3.1c0.2-0.4,0.7-1.3-0.1-1.6
				c-0.6-0.2-1,0.7-1.2,1.1c-0.2,0.4-0.4,0.9-0.5,1.3c-0.1,0.2-0.2,0.5-0.4,0.7c-0.3,0.4-0.6,0.2-1,0.1c-0.6-0.3-1.5-0.5-2.2-0.1
				c-0.4,0.2-0.8,0.7-0.3,1.1c0.8,0.6,2.4-0.1,2.2,1.5c-0.1,0.7-0.5,1.4,0,2.1c0.1-0.1,0.2-0.1,0.3-0.2c-0.5-0.4-1.2-0.6-1.8-0.5
				c-0.5,0.1-1.3,0.4-1.3,1c0,0.5,0.6,0.8,1,0.9c0.6,0.1,1.4-0.1,1.8,0.6c0.4,0.6,0.2,1.4,0,2c-0.1,0.2,0.3,0.3,0.3,0.1
				c0.2-0.9,0.4-2.2-0.6-2.8c-0.5-0.3-1.5,0-1.9-0.4c-0.3-0.1-0.3-0.2-0.1-0.5c-0.1-0.3,0-0.4,0.2-0.5c0.2-0.1,0.5-0.2,0.7-0.2
				c0.5,0,0.9,0.1,1.3,0.4c0.1,0.1,0.4,0,0.3-0.2c-0.5-0.7,0.2-1.6,0.1-2.4c-0.1-0.7-0.7-0.9-1.3-1c-0.2,0-0.6,0-0.7-0.1
				c-0.2-0.5,0-0.8,0.5-0.8c0.1,0,0.1,0,0.2,0c0.4,0,0.8,0.1,1.2,0.3c0.2,0.1,0.4,0.3,0.6,0.3c0.7,0.2,1.1-0.9,1.3-1.4
				c0.2-0.5,0.4-0.9,0.6-1.4c0.1-0.1,0.1-0.2,0.2-0.4c0.5,0.1,0.7,0.3,0.4,0.6c-0.1,0.2-0.2,0.4-0.3,0.6c-0.5,1-0.9,2-1.2,3.1
				c-0.5,2.1-0.6,4.3-0.3,6.4C43.1,69.1,43.4,69,43.4,68.8L43.4,68.8z"/>
		</g>
	</g>
</g>
<g>
	<g>
		<g>
			<path class="st0" d="M46.6,70.1c1.7-1.6,3.1-3.6,4-5.7c0.5-1.1,0.9-2.2,1.3-3.3c0.1-0.3,0.7-1.8,1.1-1.4c0.2,0.2-0.1,0.9-0.1,1.1
				c-0.1,0.3-0.1,0.5-0.2,0.8c-0.2,0.6-0.6,1.2-0.9,1.8c-0.2,0.4-0.3,0.8-0.2,1.2c0.3,0.8,1.3,0.9,1.9,1.4c0.5,0.4,0.2,1.1-0.5,1.1
				c-0.3,0-0.5-0.1-0.8-0.2c-0.5-0.2-1.1-0.6-1.6-0.7c-0.3,0-0.4,0.1-0.6,0.3c-0.4,0.5-0.6,1.2-0.9,1.7c0,0.1,0,0.2,0.1,0.2
				c0.4,0.2,1,0.3,1.4,0.7c0.4,0.4,0.3,0.7-0.4,0.9c-0.2-0.1-0.3-0.1-0.5-0.2c-0.2-0.1-0.4-0.3-0.5-0.4c-0.3-0.2-0.6-0.3-0.9-0.3
				C48,69.2,48,69.7,47.8,70c-0.1,0.2,0.2,0.4,0.3,0.2c0.2-0.4,0.1-0.5,0.5-0.5c0.4-0.1,0.5,0.1,0.9,0.3c0.2,0.1,0.4,0.3,0.6,0.4
				c0.4,0.2,0.8,0.2,1.1-0.2c0.8-1.1-1.1-1.6-1.7-2c0,0.1,0,0.2,0.1,0.2c0.2-0.5,0.5-0.9,0.7-1.4c0.2-0.4,0.4-0.5,0.8-0.3
				c0.3,0.1,0.7,0.3,1,0.4c0.5,0.2,1.3,0.5,1.9,0.2c0.5-0.3,0.4-0.9,0.1-1.4c-0.7-0.8-2.4-0.7-1.9-2.2c0.3-1,1-1.8,1.2-2.8
				c0.1-0.4,0.4-1.6-0.2-1.8c-0.6-0.2-1.1,1.2-1.3,1.6c-0.4,0.9-0.7,1.9-1.1,2.8c-1,2.4-2.4,4.5-4.3,6.4
				C46.2,70,46.5,70.3,46.6,70.1L46.6,70.1z"/>
		</g>
	</g>
</g>
<g>
	<g>
		<g>
			<path class="st0" d="M9.5,77.6c0.5-2.6,1.8-4.9,3.7-6.7c0.2-0.2-0.1-0.4-0.2-0.2c-1.9,1.8-3.3,4.2-3.8,6.8
				C9.1,77.7,9.5,77.8,9.5,77.6L9.5,77.6z"/>
		</g>
	</g>
</g>
<g>
	<g>
		<g>
			<path class="st0" d="M13,70.7C12.2,70,12,68.8,12.7,68c-0.1,0-0.2,0-0.2,0c0.3,0.3,0.6,0.6,1,0.9c0.3,0.2,0.9,0.8,1.3,0.8
				c0.5,0,1.2-0.6,1.5-0.9c0.8-0.8,1-2.4-0.2-2.9c-0.2-0.1-0.3,0.2-0.1,0.3c1.1,0.5,1.8,1.7,1.6,2.9c0,0.2,0.2,0.2,0.3,0.1
				c0.3-0.4,0.7-0.8,0.9-1.2c-0.1,0-0.2,0-0.3,0c0.2,0.7,0,1.3-0.3,1.9c-0.1,0.1,0.1,0.3,0.2,0.2c0.2-0.1,0.4-0.1,0.6-0.3
				c-0.1-0.1-0.2-0.1-0.2-0.2c0,0.2-0.1,0.4-0.1,0.5c0,0.1,0,0.2,0.1,0.2c0.7,0.4,1.6,0.2,2.1-0.5c-0.1,0-0.2,0-0.2,0.1
				c0.5,0.3,0.5,1,0.1,1.4c-0.3,0.4-0.8,0.5-1.2,0.5c-0.1,0-0.2,0.1-0.2,0.2c0.8,2.6,0.9,5.3,0.3,8c-0.1,0.2,0.3,0.3,0.3,0.1
				c0.6-2.7,0.5-5.5-0.3-8.1c-0.1,0.1-0.1,0.2-0.2,0.2c0.7-0.1,1.4-0.3,1.7-1c0.2-0.6,0.1-1.2-0.4-1.5c-0.1-0.1-0.2,0-0.2,0.1
				c-0.3,0.4-1.6,1-1.4,0c0-0.1-0.1-0.3-0.2-0.2c-0.1,0.1-0.3,0.2-0.5,0.2c0.1,0.1,0.1,0.2,0.2,0.2c0.4-0.7,0.5-1.4,0.4-2.2
				c0-0.2-0.2-0.2-0.3,0c-0.3,0.4-0.5,0.8-0.9,1.2c0.1,0,0.2,0.1,0.3,0.1c0.2-1.3-0.6-2.6-1.8-3.2c0,0.1-0.1,0.2-0.1,0.3
				c0.6,0.2,0.8,0.9,0.6,1.5c-0.2,0.6-0.7,1-1.2,1.4c-0.5,0.4-0.8,0.2-1.3-0.1c-0.5-0.3-1-0.7-1.4-1.2c-0.1-0.1-0.2-0.1-0.2,0
				c-0.8,0.9-0.7,2.4,0.3,3.2C12.9,71.1,13.2,70.8,13,70.7L13,70.7z"/>
		</g>
	</g>
</g>
<g>
	<g>
		<g>
			<path class="st0" d="M14.4,56.9C14.2,58,14,59,13.8,60.1c-0.1,0.4-0.1,0.9-0.2,1.3c0,0.3,0,0.5,0,0.8c0.1,0.3-0.1,0.5-0.4,0.5
				c-0.2,0.2-0.4,0.3-0.6,0.2c-0.4-0.1-0.7-0.3-1.1-0.4c-0.3-0.1-0.6-0.1-0.9-0.1c-0.4,0-1,0.2-1.1,0.7c-0.2,1.3,3,0.7,3.5,1.2
				c0.6,0.6,0.3,1.9,0.3,2.6c0,0.9,0.1,1.7,0.5,2.5c0.1,0.2,0.4,0,0.3-0.2c-0.5-1-0.5-2-0.5-3.1c0-0.7,0.1-1.5-0.4-2.1
				c-0.3-0.4-1.1-0.4-1.6-0.5c-0.4,0-1,0-1.4-0.2c-0.2,0-0.3-0.1-0.3-0.3c-0.2-0.2-0.1-0.4,0.2-0.4c0.2-0.1,0.5,0,0.7,0
				c0.9,0.2,2.5,1.2,2.8-0.3c0.1-0.4,0-0.8,0.1-1.2c0.1-0.5,0.1-1.1,0.2-1.6c0.2-0.9,0.3-1.9,0.5-2.8C14.7,56.7,14.4,56.7,14.4,56.9
				L14.4,56.9z"/>
		</g>
	</g>
</g>
<g>
	<g>
		<g>
			<path class="st0" d="M15.2,69.3c0.6-0.3,0.4-1.1,0.3-1.7c0-1.1,0-2.2,0-3.3c0-2.3,0.2-4.6,0.5-6.8c0-0.2-0.3-0.3-0.3-0.1
				c-0.3,1.9-0.4,3.9-0.5,5.8c0,1,0,2,0,2.9c0,0.5,0,1,0,1.5c0,0.4,0.2,1.2-0.2,1.4C14.9,69.1,15,69.4,15.2,69.3L15.2,69.3z"/>
		</g>
	</g>
</g>
<g>
	<g>
		<g>
			<path class="st0" d="M19,69.5c2.4-4.6,4.5-9.4,6-14.3c0.1-0.3,0.2-0.6,0.3-1c0.1-0.2,0.1-0.8,0.3-0.9c0.6-0.5,0.9,0.4,1,0.7
				c0.1,0.3,0.1,0.7,0,1c-0.2,1.3-1,2.5-1.5,3.6c-1.3,2.5-2.5,5-3.8,7.6c0,0.1,0,0.2,0.1,0.2c0.4,0.1,0.8,0.2,1.1,0.5
				c0.2,0.1,0.5,0.3,0.6,0.5c0,0.1,0.1,0.1,0.1,0.2c-0.1,0.3-0.1,0.6-0.2,0.9c-0.4,0.1-1-0.9-1.5-1.1c-1.3-0.3-1.8,1.2-1.9,2.2
				c0,0.2,0.3,0.3,0.3,0.1c0.1-0.6,0.2-1.4,0.8-1.8c0.7-0.4,1.1,0.1,1.5,0.5c0.3,0.3,0.9,0.6,1.3,0.3c0.5-0.4,0.1-1-0.2-1.4
				c-0.5-0.6-1.2-1-2-1.2c0,0.1,0.1,0.2,0.1,0.2c1.2-2.3,2.3-4.6,3.5-6.9c0.5-1,1.1-2,1.5-3.1c0.3-0.8,0.5-1.6,0.3-2.5
				c-0.1-0.5-0.6-1.2-1.2-1.1c-0.7,0.2-0.9,1.5-1.1,2.1c-0.7,2.3-1.6,4.6-2.5,6.8c-1.1,2.6-2.3,5.2-3.6,7.7
				C18.6,69.5,18.9,69.7,19,69.5L19,69.5z"/>
		</g>
	</g>
</g>
<g>
	<g>
		<g>
			<path class="st0" d="M19.3,81.1c0.9,0.6,1.9,0.9,3,0.7c0.7-0.1,1.2-0.5,1.9-0.6c0.5-0.1,0.9,0,1.4,0.2c0.2,0.1,0.4,0.2,0.6,0.2
				c1.9,0.2,2.1-2.6,0.3-2.9c-0.2,0-0.3,0.2-0.1,0.3c1,0.4,1.9,1,2.4,2c0.4,0.9,0.3,2.1-0.5,2.7c-0.5,0.3-1.3,0.3-1.5,1
				c-0.2,0.5,0.3,1.1,0.7,1.3c0.7,0.5,1.7,0.6,2.5,0.7c0.5,0,0.9-0.1,1.3-0.1c0.2,0,0.3-0.1,0.4,0.2c0.1,0.2,0.1,0.5,0.2,0.7
				c0.2,1.7-0.9,3.5-2.6,3.9c-1.7,0.4-3.7-0.7-4.3-2.4c-0.3-0.8-0.2-1.7-0.7-2.5c-0.4-0.5-0.9-0.9-1.6-1c-1.6-0.2-2.9,1.2-3.7,2.5
				c-0.9,1.4-2.2,3.5-4.2,3.1c-1-0.2-1.9-1.1-2.3-2.1c-0.2-0.4-0.5-1.3-0.3-1.8c0.3-0.7,1.2-0.8,1.8-0.9c0.8-0.2,1.6-0.5,2.2-1.2
				c0.4-0.6,0.6-1.2,0.2-1.9c-0.1-0.2-0.4,0-0.3,0.2c0.5,0.9-0.2,1.7-1,2.1c-0.8,0.4-1.7,0.4-2.5,0.8c-1.1,0.5-0.8,1.7-0.5,2.6
				c0.4,1.1,1.3,2,2.4,2.4c1.1,0.3,2.2-0.1,3-0.8c1.1-1,1.6-2.4,2.6-3.4c0.6-0.6,1.3-1.2,2.2-1.2c1.2-0.1,1.8,0.8,2.1,1.9
				c0.3,1.2,0.5,2.3,1.5,3.1c0.9,0.7,2,1.1,3.1,0.9c2.5-0.3,3.9-3.3,2.9-5.5c0-0.1-0.1-0.1-0.2-0.1c-0.8,0.2-1.5,0.2-2.3,0.1
				c-0.6-0.1-1.9-0.3-2.1-0.9c0-0.3,0-0.6,0-0.9c0.1,0,0.2-0.1,0.3-0.1c0.1,0,0.2-0.1,0.3-0.1c0.2-0.1,0.4-0.2,0.5-0.3
				c0.3-0.2,0.5-0.5,0.7-0.9c0.9-2-0.9-3.7-2.6-4.4c0,0.1-0.1,0.2-0.1,0.3c1.2,0.2,1.5,1.9,0.2,2.2c-0.7,0.1-1.3-0.5-2.1-0.4
				c-0.8,0.1-1.5,0.5-2.2,0.7c-1,0.2-1.9-0.1-2.7-0.7C19.3,80.7,19.1,81,19.3,81.1L19.3,81.1z"/>
		</g>
	</g>
</g>
<g>
	<g>
		<g>
			<path class="st0" d="M46.8,81.8c0.9,0.6,1.9,0.9,3,0.7c0.7-0.1,1.2-0.5,1.9-0.6c0.5-0.1,0.9,0,1.4,0.2c0.2,0.1,0.4,0.2,0.6,0.2
				c1.9,0.2,2.1-2.6,0.3-2.9c-0.2,0-0.3,0.2-0.1,0.3c1,0.4,1.9,1,2.4,2c0.4,0.9,0.3,2.1-0.5,2.7c-0.5,0.3-1.3,0.3-1.5,1
				c-0.2,0.5,0.3,1.1,0.7,1.3c0.7,0.5,1.7,0.6,2.5,0.7c0.5,0,0.9-0.1,1.3-0.1c0.2,0,0.3-0.1,0.4,0.2c0.1,0.2,0.1,0.5,0.2,0.7
				c0.2,1.7-0.9,3.5-2.6,3.9c-1.7,0.4-3.7-0.7-4.3-2.4c-0.3-0.8-0.2-1.7-0.7-2.5c-0.4-0.5-0.9-0.9-1.6-1c-1.6-0.2-2.9,1.2-3.7,2.5
				c-0.9,1.4-2.2,3.5-4.2,3.1c-1-0.2-1.9-1.1-2.3-2.1c-0.2-0.4-0.5-1.3-0.3-1.8c0.3-0.7,1.2-0.8,1.8-0.9c0.8-0.2,1.6-0.5,2.2-1.2
				c0.4-0.6,0.6-1.2,0.2-1.9c-0.1-0.2-0.4,0-0.3,0.2c0.5,0.9-0.2,1.7-1,2.1c-0.8,0.4-1.7,0.4-2.5,0.8c-1.1,0.5-0.8,1.7-0.5,2.6
				c0.4,1.1,1.3,2,2.4,2.4c1.1,0.3,2.2-0.1,3-0.8c1.1-1,1.6-2.4,2.6-3.4c0.6-0.6,1.3-1.2,2.2-1.2c1.2-0.1,1.8,0.8,2.1,1.9
				c0.3,1.2,0.5,2.3,1.5,3.1c0.9,0.7,2,1.1,3.1,0.9c2.5-0.3,3.9-3.3,2.9-5.5c0-0.1-0.1-0.1-0.2-0.1c-0.8,0.2-1.5,0.2-2.3,0.1
				c-0.6-0.1-1.9-0.3-2.1-0.9c0-0.3,0-0.6,0-0.9c0.1,0,0.2-0.1,0.3-0.1c0.1,0,0.2-0.1,0.3-0.1c0.2-0.1,0.4-0.2,0.5-0.3
				c0.3-0.2,0.5-0.5,0.7-0.9c0.9-2-0.9-3.7-2.6-4.4c0,0.1-0.1,0.2-0.1,0.3c1.2,0.2,1.5,1.9,0.2,2.2c-0.7,0.1-1.3-0.5-2.1-0.4
				c-0.8,0.1-1.5,0.5-2.2,0.7c-1,0.2-1.9-0.1-2.7-0.7C46.8,81.3,46.6,81.6,46.8,81.8L46.8,81.8z"/>
		</g>
	</g>
</g>
<g>
	<g>
		<g>
			<path class="st0" d="M73.4,81.6c0.9,0.6,1.9,0.9,3,0.7c0.7-0.1,1.2-0.5,1.9-0.6c0.5-0.1,0.9,0,1.4,0.2c0.2,0.1,0.4,0.2,0.6,0.2
				c1.9,0.2,2.1-2.6,0.3-2.9c-0.2,0-0.3,0.2-0.1,0.3c1,0.4,1.9,1,2.4,2c0.4,0.9,0.3,2.1-0.5,2.7c-0.5,0.3-1.3,0.3-1.5,1
				c-0.2,0.5,0.3,1.1,0.7,1.3c0.7,0.5,1.7,0.6,2.5,0.7c0.5,0,0.9-0.1,1.3-0.1c0.2,0,0.3-0.1,0.4,0.2c0.1,0.2,0.1,0.5,0.2,0.7
				c0.2,1.7-0.9,3.5-2.6,3.9c-1.7,0.4-3.7-0.7-4.3-2.4c-0.3-0.8-0.2-1.7-0.7-2.5c-0.4-0.5-0.9-0.9-1.6-1c-1.6-0.2-2.9,1.2-3.7,2.5
				c-0.9,1.4-2.2,3.5-4.2,3.1c-1-0.2-1.9-1.1-2.3-2.1c-0.2-0.4-0.5-1.3-0.3-1.8c0.3-0.7,1.2-0.8,1.8-0.9c0.8-0.2,1.6-0.5,2.2-1.2
				c0.4-0.6,0.6-1.2,0.2-1.9c-0.1-0.2-0.4,0-0.3,0.2c0.5,0.9-0.2,1.7-1,2.1c-0.8,0.4-1.7,0.4-2.5,0.8c-1.1,0.5-0.8,1.7-0.5,2.6
				c0.4,1.1,1.3,2,2.4,2.4c1.1,0.3,2.2-0.1,3-0.8c1.1-1,1.6-2.4,2.6-3.4c0.6-0.6,1.3-1.2,2.2-1.2c1.2-0.1,1.8,0.8,2.1,1.9
				c0.3,1.2,0.5,2.3,1.5,3.1c0.9,0.7,2,1.1,3.1,0.9c2.5-0.3,3.9-3.3,2.9-5.5c0-0.1-0.1-0.1-0.2-0.1c-0.8,0.2-1.5,0.2-2.3,0.1
				c-0.6-0.1-1.9-0.3-2.1-0.9c0-0.3,0-0.6,0-0.9c0.1,0,0.2-0.1,0.3-0.1c0.1,0,0.2-0.1,0.3-0.1c0.2-0.1,0.4-0.2,0.5-0.3
				c0.3-0.2,0.5-0.5,0.7-0.9c0.9-2-0.9-3.7-2.6-4.4c0,0.1-0.1,0.2-0.1,0.3c1.2,0.2,1.5,1.9,0.2,2.2c-0.7,0.1-1.3-0.5-2.1-0.4
				c-0.8,0.1-1.5,0.5-2.2,0.7c-1,0.2-1.9-0.1-2.7-0.7C73.4,81.2,73.2,81.5,73.4,81.6L73.4,81.6z"/>
		</g>
	</g>
</g>
<g>
	<g>
		<g>
			<path class="st0" d="M43.6,69.1c0-0.5,0.4-0.2,0.6-0.2c0.3,0,0.5-0.1,0.7-0.3c0.3-0.3,0.4-0.6,0.4-0.9c0.1-0.5-0.1-2,0.9-1.8
				c0-0.1-0.1-0.1-0.1-0.2c-0.4,1-0.6,2-0.8,3.1c0,0.1,0.2,0.2,0.3,0.2c0.1-0.1,0.2-0.1,0.4-0.2c-0.1-0.1-0.2-0.1-0.2-0.2
				c-0.1,0.4-0.3,0.8-0.4,1.2C45.4,70,45.6,70,45.7,70c0.3-0.2,0.6-0.2,0.8,0.2c-0.1,0.1,0,0.3,0.2,0.3c1.5-0.1,1.2,3,1.1,3.9
				c-0.2,1.4-0.6,2.7-1.2,3.9c-0.1,0.2,0.2,0.4,0.3,0.2c0.8-1.5,1.3-3.2,1.3-4.9c0-1,0.1-3.5-1.5-3.3c0.1,0.1,0.1,0.2,0.2,0.3
				c0.2-0.2,0.1-0.6-0.1-0.8c-0.3-0.3-0.8-0.1-1.1,0.1c0.1,0.1,0.2,0.1,0.2,0.2c0.1-0.4,0.3-0.8,0.4-1.2c0-0.2-0.1-0.3-0.2-0.2
				c-0.1,0.1-0.2,0.1-0.4,0.2c0.1,0.1,0.2,0.1,0.3,0.2c0.1-1,0.3-2,0.7-3c0-0.1,0-0.2-0.1-0.2c-1.2-0.2-1.2,1.2-1.4,2.1
				c0,0.2-0.1,0.6-0.3,0.8c-0.1,0.1-0.7,0.1-0.8,0.1c-0.2,0-0.2-0.1-0.4-0.1c-0.3,0.1-0.3,0.5-0.3,0.7
				C43.3,69.3,43.7,69.3,43.6,69.1L43.6,69.1z"/>
		</g>
	</g>
</g>
<g>
	<g>
		<g>
			<path class="st0" d="M69.9,70.7c-2.3,1.1-4.2,3-5.5,5.2c-0.1,0.2,0.2,0.4,0.3,0.2c1.2-2.2,3.1-4,5.3-5.1
				C70.3,70.9,70.1,70.6,69.9,70.7L69.9,70.7z"/>
		</g>
	</g>
</g>
<g>
	<g>
		<g>
			<path class="st0" d="M75.3,74.8c0.1,1-0.3,2.1-0.8,3c-0.4,0.9-0.8,1.7-1.3,2.5c-0.1,0.2,0.2,0.4,0.3,0.2c0.6-0.9,1.1-1.9,1.5-2.9
				c0.4-0.9,0.8-1.8,0.6-2.8C75.6,74.6,75.3,74.6,75.3,74.8L75.3,74.8z"/>
		</g>
	</g>
</g>
<g>
	<g>
		<g>
			<path class="st0" d="M21.2,81.9c0.3,1.3,0,2.7-0.7,3.8c-0.1,0.2,0.2,0.4,0.3,0.2c0.8-1.2,1-2.7,0.7-4.1
				C21.5,81.6,21.2,81.7,21.2,81.9L21.2,81.9z"/>
		</g>
	</g>
</g>
<g>
	<g>
		<g>
			<path class="st0" d="M22.3,81.7c0.4,1.8,0.9,3.5,1.6,5.2c0.1,0.2,0.4,0.1,0.3-0.1c-0.6-1.7-1.2-3.4-1.6-5.2
				C22.5,81.4,22.2,81.5,22.3,81.7L22.3,81.7z"/>
		</g>
	</g>
</g>
<g>
	<g>
		<g>
			<path class="st0" d="M48.7,82.5c0,1.7-0.5,3.4-1.5,4.8c-0.1,0.2,0.2,0.4,0.3,0.2c1-1.5,1.5-3.2,1.5-5
				C49,82.2,48.7,82.2,48.7,82.5L48.7,82.5z"/>
		</g>
	</g>
</g>
<g>
	<g>
		<g>
			<path class="st0" d="M50.4,82.3c0,1.7,0.3,3.4,1,5c0.1,0.2,0.4,0.1,0.3-0.1c-0.6-1.6-1-3.2-1-4.9C50.7,82.1,50.4,82.1,50.4,82.3
				L50.4,82.3z"/>
		</g>
	</g>
</g>
<g>
	<g>
		<g>
			<path class="st0" d="M74.7,82.2c0.3,1.5,0.5,3.1-0.3,4.5c-0.1,0.2,0.2,0.4,0.3,0.2c0.9-1.5,0.6-3.2,0.3-4.8
				C75,81.9,74.6,82,74.7,82.2L74.7,82.2z"/>
		</g>
	</g>
</g>
<g>
	<g>
		<g>
			<path class="st0" d="M76.8,81.9c0,1.9,0.5,3.7,1.3,5.4c0.1,0.2,0.4,0,0.3-0.2c-0.8-1.6-1.3-3.4-1.3-5.3
				C77.1,81.7,76.7,81.7,76.8,81.9L76.8,81.9z"/>
		</g>
	</g>
</g>
<g>
	<g>
		<g>
			<path class="st0" d="M10,78.1c0,1.4,1,2.4,2.1,3.1c1.5,0.9,3.4,1.5,5.2,1.7c0.2,0,0.3-0.3,0.1-0.3c-1.6-0.2-3.1-0.7-4.6-1.4
				c-1.2-0.6-2.5-1.6-2.5-3.1C10.4,77.9,10.1,77.9,10,78.1L10,78.1z"/>
		</g>
	</g>
</g>
<g>
	<g>
		<g>
			<path class="st0" d="M38.6,79.8c0.6-0.7,1.3,1.2,1.9,1.4c0.2,0.1,0.4,0,0.6,0c0.6-0.1,1-0.1,1.6,0.1c0.6,0.2,1.3,0.4,1.9,0
				c0.4-0.3,0.6-0.7,0.5-1.1c0-0.2-0.4-0.1-0.3,0.1c-0.1,0.2-0.1,0.4-0.2,0.6c-0.2,0.2-0.5,0.3-0.7,0.2c-0.3,0-0.4,0-0.7-0.1
				c-0.4-0.1-0.7-0.2-1.1-0.3c-0.3,0-0.5,0-0.8,0c-0.5,0.1-0.8,0.1-1.2-0.4c-0.3-0.5-1-1.5-1.7-0.7C38.2,79.7,38.5,80,38.6,79.8
				L38.6,79.8z"/>
		</g>
	</g>
</g>
<g>
	<g>
		<g>
			<path class="st0" d="M65,77.5c-0.4,3.1,4.1,3.9,6.3,4c0.2,0,0.2-0.3,0-0.3c-1.9,0-6.4-0.7-6-3.5C65.3,77.4,65,77.3,65,77.5
				L65,77.5z"/>
		</g>
	</g>
</g>
<g>
	<g>
		<g>
			<path class="st0" d="M66.4,80.5c-0.2,1,0.3,2.2,1.4,2.2c1,0,1.7-1,1.2-1.8c-0.1-0.2-0.4,0-0.3,0.2c0.4,0.8-0.4,1.5-1.2,1.3
				c-0.8-0.2-1.1-1-0.9-1.8C66.8,80.4,66.5,80.3,66.4,80.5L66.4,80.5z"/>
		</g>
	</g>
</g>
<g>
	<g>
		<g>
			<path class="st0" d="M67.5,81c-0.2,0.3-0.2,0.7,0,1c0.1,0.2,0.4,0,0.3-0.2c-0.1-0.2-0.1-0.5,0-0.7C67.9,81,67.6,80.8,67.5,81
				L67.5,81z"/>
		</g>
	</g>
</g>
<g>
	<g>
		<g>
			<path class="st0" d="M13.1,76.2c0.4-0.5,0.8,0.5,0.8,0.7c0.1,0.4,0,0.8-0.1,1.2c0,0.1,0.1,0.2,0.2,0c0.2-0.5,0.2-1.3-0.1-1.8
				C13.7,76,13.3,75.7,13,76C12.9,76.1,13,76.3,13.1,76.2L13.1,76.2z"/>
		</g>
	</g>
</g>
<g>
	<g>
		<g>
			<path class="st0" d="M15.7,78.9c0-0.5,0.4-0.8,0.9-0.8c0.1,0,0.2-0.2,0-0.2c-0.6-0.1-1.1,0.3-1.1,0.9C15.5,79,15.7,79,15.7,78.9
				L15.7,78.9z"/>
		</g>
	</g>
</g>
<g>
	<g>
		<g>
			<path class="st0" d="M12.7,77.1c-0.2-0.1-0.2-0.3-0.1-0.4c-0.1,0-0.1,0-0.2,0c0.1,0.1,0.3,0.2,0.4,0.3
				C12.8,77,12.8,77.1,12.7,77.1C12.8,77.1,12.7,77.1,12.7,77.1C12.7,77.2,12.8,77.2,12.7,77.1c-0.1-0.1-0.4,0.1-0.2,0.3
				c0.2,0.3,0.6,0,0.7-0.2c0.1-0.4-0.3-0.6-0.5-0.7c-0.1,0-0.2,0-0.2,0c-0.3,0.3-0.2,0.8,0.1,1C12.7,77.5,12.9,77.2,12.7,77.1
				L12.7,77.1z"/>
		</g>
	</g>
</g>
<g>
	<g>
		<g>
			<path class="st0" d="M16.2,78.9c0.1-0.1,0.5,0.1,0.4,0.2c-0.1,0.2-0.4,0.1-0.4-0.1c0-0.2-0.4-0.1-0.3,0.1
				c0.1,0.5,0.9,0.6,1.1,0.1c0.2-0.5-0.6-1-0.9-0.6C15.8,78.8,16.1,79.1,16.2,78.9L16.2,78.9z"/>
		</g>
	</g>
</g>
<g>
	<g>
		<g>
			<path class="st0" d="M40.4,75.9c0.9,0.1,1.5,0.9,1.4,1.7c0,0.1,0.2,0.1,0.2,0c0.1-0.9-0.6-1.8-1.6-1.9
				C40.2,75.8,40.2,75.9,40.4,75.9L40.4,75.9z"/>
		</g>
	</g>
</g>
<g>
	<g>
		<g>
			<path class="st0" d="M43.2,78c0.2-0.5,0.8-0.6,1.2-0.3c0.1,0.1,0.2-0.1,0.1-0.2c-0.5-0.4-1.2-0.1-1.4,0.4
				C43,78,43.2,78.1,43.2,78L43.2,78z"/>
		</g>
	</g>
</g>
<g>
	<g>
		<g>
			<path class="st0" d="M40.1,77.1c0.2,0.1,0.3,0.2,0.4,0.5c0,0,0-0.1,0-0.1c-0.1,0.2-0.4,0.2-0.6,0.1c-0.2-0.2-0.1-0.5,0-0.6
				c0.2-0.1-0.1-0.4-0.2-0.2c-0.5,0.4-0.2,1.2,0.4,1.3c0.2,0,0.6-0.1,0.7-0.4c0-0.1-0.1-0.3-0.2-0.5c-0.1-0.1-0.2-0.2-0.4-0.3
				C40.1,76.7,39.9,77,40.1,77.1L40.1,77.1z"/>
		</g>
	</g>
</g>
<g>
	<g>
		<g>
			<path class="st0" d="M43.9,78.6C43.8,78.6,43.9,78.6,43.9,78.6c0-0.1,0-0.1,0-0.2c0.2-0.1,0.5,0.2,0.6,0.3c0-0.1,0-0.1,0-0.2
				C44.3,78.7,44.1,78.7,43.9,78.6c-0.1-0.1-0.3,0.2-0.1,0.3c0.3,0.2,0.8,0,0.9-0.3c0-0.1,0-0.2,0-0.2c-0.3-0.2-0.8-0.6-1.1-0.2
				c-0.2,0.2-0.1,0.7,0.3,0.7C44.1,78.9,44.1,78.6,43.9,78.6L43.9,78.6z"/>
		</g>
	</g>
</g>
<g>
	<g>
		<g>
			<path class="st0" d="M67.2,76.3c0.7,0.4,1.1,1,1.2,1.8c0,0.1,0.2,0.1,0.2,0c0-0.8-0.5-1.6-1.2-2C67.2,76.1,67.1,76.2,67.2,76.3
				L67.2,76.3z"/>
		</g>
	</g>
</g>
<g>
	<g>
		<g>
			<path class="st0" d="M69.8,78.3c0.5-0.6,1.3-0.7,1.9-0.2c0.1,0.1,0.2-0.1,0.1-0.2c-0.6-0.5-1.6-0.4-2.1,0.3
				C69.6,78.2,69.7,78.4,69.8,78.3L69.8,78.3z"/>
		</g>
	</g>
</g>
<g>
	<g>
		<g>
			<path class="st0" d="M67,77.2c0.2,0,0.3,0.1,0.4,0.2c0.1,0.1,0.1,0.2,0,0.2c-0.4,0-0.3-0.6-0.3-0.8c0-0.2-0.3-0.2-0.3,0
				c0,0.3-0.1,0.7,0.2,0.9c0.2,0.2,0.5,0.3,0.7,0.2c0.2-0.1,0.3-0.4,0.2-0.6c-0.1-0.3-0.4-0.4-0.7-0.5C66.9,76.8,66.8,77.1,67,77.2
				L67,77.2z"/>
		</g>
	</g>
</g>
<g>
	<g>
		<g>
			<path class="st0" d="M70.5,78.5c0.3,0,0.6,0.1,0.9,0.4c0-0.1,0-0.2,0-0.3c-0.2,0.1-0.4,0.2-0.6,0.2c-0.1,0-0.2-0.2-0.1-0.3
				c0.2-0.2-0.1-0.4-0.2-0.2c-0.2,0.2-0.1,0.6,0.1,0.7c0.3,0.3,0.7,0.1,1.1-0.1c0.1-0.1,0.1-0.2,0-0.3c-0.3-0.3-0.7-0.5-1.1-0.5
				C70.3,78.2,70.3,78.5,70.5,78.5L70.5,78.5z"/>
		</g>
	</g>
</g>
<g>
	<g>
		<g>
			<path class="st0" d="M13.2,86.3c0.3,2.1,1.8,3.8,3.8,4.5c0.2,0.1,0.3-0.3,0.1-0.3c-1.9-0.7-3.2-2.3-3.5-4.3
				C13.4,86,13.1,86.1,13.2,86.3L13.2,86.3z"/>
		</g>
	</g>
</g>
<g>
	<g>
		<g>
			<path class="st0" d="M26,91c1.2,0.6,2.5-0.1,3.4-0.9c1-0.9,1.6-2.1,1.9-3.4c0-0.2-0.3-0.3-0.3-0.1c-0.2,1.1-0.6,2.1-1.4,2.9
				c-0.8,0.9-2.2,1.9-3.4,1.3C26,90.6,25.8,90.9,26,91L26,91z"/>
		</g>
	</g>
</g>
<g>
	<g>
		<g>
			<path class="st0" d="M40.4,87.2c-0.3,1.2,0.8,2.1,1.9,2.4c1.3,0.4,2.8,0.2,4-0.4c0.2-0.1,0-0.4-0.2-0.3c-0.9,0.5-2,0.7-3.1,0.5
				c-1-0.2-2.6-0.9-2.3-2.2C40.7,87.1,40.4,87,40.4,87.2L40.4,87.2z"/>
		</g>
	</g>
</g>
<g>
	<g>
		<g>
			<path class="st0" d="M52.1,89.5c0.8,1,2.2,1.2,3.3,0.9c1.4-0.4,2.5-1.6,3.2-2.9c0.1-0.2-0.2-0.4-0.3-0.2
				c-0.6,1.1-1.5,2.2-2.8,2.6c-1.1,0.4-2.4,0.2-3.2-0.8C52.2,89,51.9,89.3,52.1,89.5L52.1,89.5z"/>
		</g>
	</g>
</g>
<g>
	<g>
		<g>
			<path class="st0" d="M68,86.7c-0.4,2,0.7,4.1,2.7,4.8c0.2,0.1,0.3-0.3,0.1-0.3c-1.8-0.6-2.8-2.5-2.4-4.3
				C68.4,86.5,68,86.4,68,86.7L68,86.7z"/>
		</g>
	</g>
</g>
<g>
	<g>
		<g>
			<path class="st0" d="M81.8,92.1c1.5-1.2,3.4-2.8,2.7-5c-0.1-0.2-0.4-0.1-0.3,0.1c0.7,2-1.1,3.5-2.5,4.6
				C81.5,91.9,81.7,92.2,81.8,92.1L81.8,92.1z"/>
		</g>
	</g>
</g>
<g>
	<g>
		<g>
			<path class="st0" d="M21.5,81.6c-0.2-0.2-0.4-0.5-0.5-0.8c-0.1-0.3,0.1-0.6,0.5-0.6c0.3,0,0.5,0.2,0.6,0.5
				C22.1,81.1,21.8,81.4,21.5,81.6c-0.1,0.1,0,0.4,0.2,0.3c0.4-0.2,0.7-0.7,0.6-1.2c-0.1-0.4-0.4-0.7-0.8-0.8
				c-0.4,0-0.8,0.2-0.9,0.6c-0.1,0.5,0.2,1,0.6,1.3C21.4,82,21.7,81.8,21.5,81.6L21.5,81.6z"/>
		</g>
	</g>
</g>
<g>
	<g>
		<g>
			<path class="st0" d="M49.3,82.4c-0.3-0.6-0.6-1.7,0.2-2c0.4-0.2,0.8,0,0.8,0.5c0,0.4-0.3,0.8-0.6,1.1c-0.2,0.2,0.1,0.4,0.2,0.2
				c0.4-0.4,0.8-0.9,0.7-1.5c-0.1-0.4-0.4-0.7-0.8-0.7c-0.4,0-0.8,0.3-1,0.7c-0.3,0.6,0,1.3,0.2,1.8C49,82.7,49.4,82.6,49.3,82.4
				L49.3,82.4z"/>
		</g>
	</g>
</g>
<g>
	<g>
		<g>
			<path class="st0" d="M75.7,81.8c-0.7-0.2-0.9-1.4,0-1.5c0.8-0.1,1,1,0.2,1.2c-0.2,0-0.1,0.4,0.1,0.3c0.5-0.1,0.8-0.6,0.7-1.1
				c-0.1-0.5-0.5-0.8-1-0.8c-0.5,0-0.9,0.4-1,0.9c-0.1,0.6,0.4,1.1,0.9,1.2C75.8,82.2,75.9,81.9,75.7,81.8L75.7,81.8z"/>
		</g>
	</g>
</g>
<g>
	<g>
		<g>
			<path class="st0" d="M22.1,81c3.3,2.3,7.1,3.8,11.1,4.5c3.6,0.6,7.5,0.7,11-0.5c1.8-0.6,3.5-1.6,4.9-3c0.1-0.1,0-0.2-0.1-0.1
				c-3.2,3.4-8.3,4.1-12.8,3.8c-5-0.3-9.8-2-14-4.9C22.1,80.7,22,80.9,22.1,81L22.1,81z"/>
		</g>
	</g>
</g>
<g>
	<g>
		<g>
			<path class="st0" d="M49.9,82.2c3.8,2.6,8.5,3.2,13,3.3c4.1,0,8.5-0.6,11.6-3.5c0.1-0.1,0-0.2-0.1-0.1c-3.1,2.9-7.6,3.5-11.7,3.4
				c-4.4,0-9-0.7-12.7-3.2C49.9,82,49.8,82.1,49.9,82.2L49.9,82.2z"/>
		</g>
	</g>
</g>
<g>
	<g>
		<g>
			<path class="st0" d="M75,82.1c4.2,2.2,9.2,1.9,13.5,0.4c4-1.4,8-3.9,9.9-7.8c0-0.1-0.1-0.2-0.2-0.1c-1.9,3.9-5.8,6.4-9.8,7.8
				c-4.3,1.5-9.3,1.8-13.4-0.4C75,81.9,74.9,82,75,82.1L75,82.1z"/>
		</g>
	</g>
</g>
<g>
	<g>
		<g>
			<path class="st0" d="M21.3,80c-0.2-0.4-0.3-0.8-0.4-1.2c0-0.2,0-0.5,0.1-0.7c0.1-0.4,0.1-0.6,0.5-0.5c0.4,0,0.3,0.1,0.4,0.4
				c0,0.2,0,0.4,0,0.6c0,0.5-0.2,0.9-0.4,1.3c0.1,0,0.1,0,0.2,0.1c0.3-0.7,0.8-1.7,1.6-1.9c0.2-0.1,0.4,0,0.6,0.3
				c0.5,0.2,0.5,0.5,0.1,0.8c-0.1,0.1-0.3,0.3-0.5,0.4c-0.2,0.2-0.5,0.2-0.8,0.3c-0.1,0-0.3,0-0.4,0.1c-0.2,0.1-0.4,0-0.4-0.3
				c-0.2-0.5-0.2-0.3,0.1-0.7c0.1-0.1,0.1-0.2,0.2-0.3c0.1-0.2,0.2-0.4,0.2-0.7c0-0.3,0-0.6,0.1-1c0-0.2,0.1-0.5,0.3-0.5
				c0.1,0,0.4,0.3,0.5,0.4c0.1,0,0.1,0,0.1-0.1c0.3-0.1,0.6-0.3,1-0.4c0,0,0.1-0.1,0.1-0.1c-0.1-0.2-0.2-0.5-0.2-0.7
				c0.1-0.2,0.3-0.3,0.5-0.4c0.2-0.1,0.5-0.1,0.7-0.1c0.1,0,0.1-0.1,0.1-0.1c-0.1-0.3-0.1-0.6-0.1-0.9c0.1-0.4,0.4-0.5,0.8-0.3
				c0.1,0.1,0.2,0,0.2-0.1c-0.2-0.3-0.5-0.3-0.8-0.2c-0.2,0.1-0.3,0.3-0.3,0.5c-0.1,0.2,0.1,0.7-0.1,0.8c-0.1,0.1-0.6,0.1-0.8,0.2
				c-0.2,0.1-0.4,0.3-0.5,0.6c-0.1,0.4,0.1,0.7,0.4,0.8c0.1,0,0.1-0.1,0.1-0.1c-0.5-0.7-1.5-0.3-1.3,0.5c0,0,0.1-0.1,0.1-0.1
				c-0.2-0.2-0.5-0.3-0.7-0.5c0,0-0.1,0-0.1,0c-0.3,0.6-0.2,1.2-0.4,1.9c-0.1,0.5-0.5,0.7-0.7,1.1c-0.1,0.1-0.1,0.2-0.1,0.4
				c0.1,1.1,2.2,0.1,2.6-0.2c0.5-0.4,0.8-1.5-0.1-1.6c-1.2-0.2-2,1.2-2.3,2.1c0,0.1,0.1,0.2,0.2,0.1c0.4-0.6,0.5-1.3,0.4-2
				c0-0.3-0.1-0.8-0.5-0.9c-0.5-0.1-0.7,0.8-0.8,1.1c-0.1,0.6,0,1.3,0.3,1.8C21.2,80.2,21.3,80.1,21.3,80L21.3,80z"/>
		</g>
	</g>
</g>
<g>
	<g>
		<g>
			<path class="st0" d="M48.8,80.4c-0.2-0.1-0.4-0.3-0.5-0.5c-0.3-0.5-0.2-0.7,0.3-0.6c0.3-0.2,0.5-0.1,0.5,0.2c0,0.2,0.1,0.4,0,0.6
				c0,0.1,0.1,0.1,0.2,0c0.2-0.5,0.4-1,0.7-1.3c0.2-0.2,0.5-0.4,0.8-0.4c0.2,0,0.3,0,0.4,0.1c0.3,0.1,0.5,0.3,0.4,0.6
				c0.2,0.4,0,0.7-0.4,0.8c-0.1,0.1-0.3,0.2-0.5,0.2c-0.2,0.1-0.5,0.1-0.7,0.1c-1,0-1.6-2.3-0.3-2.3c0.1,0,0.1-0.1,0.1-0.1
				c0-0.3-0.1-0.5-0.1-0.8c0.1-0.4,0.4-1.1,1-0.7c0.1,0,0.1,0,0.1-0.1C51,76,51,75.8,51,75.5c0.2-0.4,0.4-0.5,0.7-0.2
				c0.1,0.1,0.2,0,0.1-0.1c-0.2-0.6,0.5-1.2,1.1-1.1c0.1,0,0.2-0.1,0-0.2c-0.8-0.2-1.5,0.5-1.3,1.3c0,0,0.1-0.1,0.1-0.1
				c-0.2-0.2-0.6-0.3-0.8,0c-0.3,0.3-0.2,0.8-0.2,1.2c0,0,0.1-0.1,0.1-0.1c-0.4-0.2-0.8-0.1-1.1,0.2c-0.2,0.3-0.2,0.6-0.2,1
				c0,0.4,0,0.2-0.2,0.4c-0.5,0.4-0.6,0.9-0.5,1.6c0.2,0.7,0.4,1.1,1.1,1.1c0.6-0.1,1.4-0.2,1.7-0.8c0.2-0.4,0.2-0.9-0.2-1.2
				c-1.2-0.9-2.1,0.7-2.5,1.7c0.1,0,0.1,0,0.2,0c0-0.5-0.2-2-1-1.5c-0.7,0.5-0.1,1.6,0.5,1.9C48.8,80.7,48.9,80.5,48.8,80.4
				L48.8,80.4z"/>
		</g>
	</g>
</g>
<g>
	<g>
		<g>
			<path class="st0" d="M49.3,79.5c-0.2-0.9,0.7-1.6,1.5-1.4c0.1,0,0.1,0,0.1-0.1c0.3-0.8,0.6-1,1-0.5c0,0.1,0.2,0,0.2-0.1
				c0.3,0,0.7,0,1,0c0,0.1,0.2,0.1,0.2,0c0.1-0.8,1-0.9,1.5-0.5c0.2,0.1,0.4,0.4,0.4,0.6c0.1,0.1,0.1,0.2-0.1,0.2
				c-0.2,0.1-0.2,0,0.1-0.3c0.3-0.4,0.9-0.5,1.3-0.1c0.4,0.4,0.3,1.1-0.2,1.5c-0.1,0.1,0,0.2,0.1,0.2c0.6-0.5,0.7-1.6-0.1-1.9
				c-0.4-0.2-1,0-1.3,0.3c-0.2,0.2-0.4,0.7-0.2,1c0.2,0.2,0.4,0.2,0.5-0.1c0.2-0.4-0.1-0.9-0.3-1.2c-0.6-0.8-1.9-0.6-2,0.4
				c0.1,0,0.1,0,0.2,0c0-1-1.4-1-1.3,0c0.1,0,0.1,0,0.2-0.1c-0.2-0.3-0.6-0.4-1-0.3c-0.2,0.1-0.3,0.2-0.3,0.4c0,0,0,0.4-0.1,0.4
				c-0.1,0-0.4,0-0.5,0c-0.2,0.1-0.5,0.2-0.6,0.4c-0.3,0.3-0.4,0.7-0.4,1.2C49.1,79.7,49.3,79.6,49.3,79.5L49.3,79.5z"/>
		</g>
	</g>
</g>
<g>
	<g>
		<g>
			<path class="st0" d="M76.1,79.9c-0.3-0.5-0.2-1.1,0.2-1.5c0.3-0.3,0.5-0.1,0.5,0.3c0,0.3-0.2,0.7-0.4,0.9c0,0,0.1,0.1,0.1,0.1
				c0.2-0.2,0.4-0.5,0.7-0.6c0.2-0.1,0.4-0.2,0.6-0.1c0.6,0.4,0.7,0.7,0.3,1c-0.4,0.5-1.7,0.6-1.8-0.3c-0.1-0.5,0.4-1.1,0.7-1.5
				c0.2-0.2,0.4-0.3,0.6-0.4c0.2-0.1,1.4-0.5,1.2,0.2c0.1,0,0.1,0,0.2,0c-0.1-0.2-0.1-0.4,0-0.6c-0.1-0.6,0.2-0.7,0.9-0.2
				c0,0.1,0.1,0.2,0.2,0c0.1-0.2,0.1-0.3,0.2-0.4c0.2-0.4,0.6-0.3,1.1,0.3c0,0.1,0.1,0.2,0.2,0c0.1-0.4-0.2-0.8-0.6-0.8
				c-0.5-0.1-0.9,0.5-1.1,0.9c0.1,0,0.1,0,0.2,0c0.1-0.5-0.2-0.9-0.7-0.7c-0.7,0.2-0.7,1-0.5,1.5c0,0.1,0.2,0.1,0.2,0
				c0.1-0.3-0.2-0.5-0.5-0.6c-0.5-0.1-1.1,0.2-1.5,0.5c-0.5,0.4-1.5,1.9-0.6,2.4c0.6,0.4,2.2-0.1,2-1c-0.1-0.4-0.5-0.6-0.8-0.7
				c-0.6-0.1-1,0.4-1.4,0.8c-0.1,0.1,0.1,0.2,0.1,0.1c0.5-0.5,0.5-1.2,0.2-1.8c0,0-0.1-0.1-0.1,0c-0.8,0.3-1.2,1.3-0.7,2.1
				C76,80,76.1,80,76.1,79.9L76.1,79.9z"/>
		</g>
	</g>
</g>
<g>
	<g>
		<g>
			<path class="st0" d="M77,78.9c-0.6-0.5-0.6-1.5,0.1-2c0.1,0,0.1-0.1,0-0.2c-0.2-0.1-0.4-0.3-0.5-0.5c-0.1-0.1-0.2,0-0.2,0.1
				c0.1,0.3,0.3,0.4,0.5,0.6c0-0.1,0-0.1,0-0.2c-0.8,0.5-0.9,1.6-0.2,2.2C76.9,79,77.1,78.9,77,78.9L77,78.9z"/>
		</g>
	</g>
</g>
<g>
	<g>
		<g>
			<path class="st0" d="M75.8,80.4C75.8,80.3,75.9,80.3,75.8,80.4C75.8,80.4,75.8,80.4,75.8,80.4c-0.2,0.1-0.2,0.1-0.3,0.2
				c-0.1,0.1-0.1,0.3-0.1,0.5c0,0.3,0.2,0.6,0.5,0.8c0.1,0,0.2-0.1,0-0.2c-0.3-0.1-0.4-0.5-0.4-0.7c0-0.1,0.1-0.2,0.2-0.3
				c0.1-0.1,0.2-0.1,0.2-0.2c0.1-0.2-0.5-0.3-0.4,0C75.7,80.5,75.9,80.5,75.8,80.4L75.8,80.4z"/>
		</g>
	</g>
</g>
<g>
	<g>
		<g>
			<path class="st0" d="M49.3,80.2c0.5,0.7,0.3,1.7-0.4,2.2c-0.1,0.1,0,0.2,0.1,0.2c0.8-0.5,1-1.6,0.5-2.4
				C49.4,80.1,49.3,80.1,49.3,80.2L49.3,80.2z"/>
		</g>
	</g>
</g>
<g>
	<g>
		<g>
			<path class="st0" d="M21.5,80.1c-0.4,0.6-0.3,1.4,0.2,1.9c0.1,0.1,0.2-0.1,0.1-0.1c-0.5-0.4-0.6-1.2-0.2-1.7
				C21.7,80.1,21.5,80,21.5,80.1L21.5,80.1z"/>
		</g>
	</g>
</g>
<g>
	<g>
		<g>
			<path class="st0" d="M21.5,81.8c0.4,1.3,0.4,2.7,0.1,4c0,0.1,0.1,0.2,0.2,0c0.4-1.4,0.4-2.8-0.1-4.1
				C21.6,81.6,21.5,81.7,21.5,81.8L21.5,81.8z"/>
		</g>
	</g>
</g>
<g>
	<g>
		<g>
			<path class="st0" d="M21.9,81.9c0.4,1.2,0.6,2.5,0.6,3.8c0,0.1,0.2,0.1,0.2,0c0-1.3-0.2-2.6-0.6-3.9C22,81.8,21.9,81.8,21.9,81.9
				L21.9,81.9z"/>
		</g>
	</g>
</g>
<g>
	<g>
		<g>
			<path class="st0" d="M48.9,82.4c0.2,1.3,0.2,2.7,0,4c0,0.1,0.2,0.2,0.2,0c0.2-1.4,0.2-2.8,0-4.1C49.1,82.2,48.9,82.2,48.9,82.4
				L48.9,82.4z"/>
		</g>
	</g>
</g>
<g>
	<g>
		<g>
			<path class="st0" d="M50,82.3c0,0.8-0.1,1.6-0.1,2.4c0,0.4-0.2,1.2,0,1.6c0,0,0,0,0.1,0c0.1,0,0.1,0,0.2-0.1c0,0,0-0.1,0-0.1
				c0,0,0,0,0,0c0-0.1-0.2,0-0.2,0.1c-0.1-0.2,0.1-0.7,0.1-0.9c0-0.3,0-0.6,0.1-0.9c0-0.7,0.1-1.3,0.1-2C50.2,82.2,50,82.2,50,82.3
				L50,82.3z"/>
		</g>
	</g>
</g>
<g>
	<g>
		<g>
			<path class="st0" d="M75.1,82.2c0.5,1.3,0.6,2.7,0.5,4.1c0,0.1,0.2,0.1,0.2,0c0.1-1.4,0-2.8-0.5-4.1C75.2,82,75,82.1,75.1,82.2
				L75.1,82.2z"/>
		</g>
	</g>
</g>
<g>
	<g>
		<g>
			<path class="st0" d="M76.5,81.9c-0.4,1.4-0.4,2.8,0,4.1c0,0.1,0.2,0.1,0.2,0c-0.3-1.3-0.3-2.7,0-4C76.7,81.8,76.5,81.8,76.5,81.9
				L76.5,81.9z"/>
		</g>
	</g>
</g>
<g>
	<g>
		<g>
			<path class="st0" d="M66.2,88.9c0.3-0.7,1-1.2,1.8-1c0.1,0,0.2-0.2,0-0.2c-0.9-0.1-1.7,0.3-2,1.2C66,89,66.1,89,66.2,88.9
				L66.2,88.9z"/>
		</g>
	</g>
</g>
<g>
	<g>
		<g>
			<path class="st0" d="M66.9,90.4c0.2-0.7,0.6-1.2,1.2-1.5c0.1-0.1,0-0.2-0.1-0.2c-0.6,0.3-1.1,0.9-1.3,1.6
				C66.7,90.4,66.9,90.5,66.9,90.4L66.9,90.4z"/>
		</g>
	</g>
</g>
<g>
	<g>
		<g>
			<path class="st0" d="M67.9,91.5c0.1-0.6,0.4-1.1,0.9-1.3c0.1-0.1,0-0.2-0.1-0.2c-0.6,0.3-0.9,0.9-1,1.5
				C67.7,91.6,67.9,91.6,67.9,91.5L67.9,91.5z"/>
		</g>
	</g>
</g>
<g>
	<g>
		<g>
			<path class="st0" d="M69.1,92.1c0.1-0.3,0.3-0.6,0.4-0.9c0.1-0.1-0.1-0.2-0.2-0.1c-0.1,0.3-0.3,0.6-0.4,0.9
				C68.9,92.1,69.1,92.2,69.1,92.1L69.1,92.1z"/>
		</g>
	</g>
</g>
<g>
	<g>
		<g>
			<path class="st0" d="M83.1,90.9c0.4,0.4,0.8,0.5,1.3,0.4c0.1,0,0.1-0.2,0-0.2c-0.4,0.1-0.9-0.1-1.2-0.4
				C83.2,90.7,83,90.9,83.1,90.9L83.1,90.9z"/>
		</g>
	</g>
</g>
<g>
	<g>
		<g>
			<path class="st0" d="M84,89.5c0.2,0.6,0.8,1,1.4,0.9c0.1,0,0.1-0.2,0-0.2c-0.5,0.1-1.1-0.2-1.2-0.8C84.1,89.4,84,89.4,84,89.5
				L84,89.5z"/>
		</g>
	</g>
</g>
<g>
	<g>
		<g>
			<path class="st0" d="M84.7,88.3c0.4-0.2,1-0.1,1.3,0.3c0.1,0.1,0.2,0,0.1-0.1c-0.4-0.4-1-0.5-1.5-0.3
				C84.6,88.2,84.6,88.4,84.7,88.3L84.7,88.3z"/>
		</g>
	</g>
</g>
<g>
	<g>
		<g>
			<path class="st0" d="M98.3,90.8c6.8,0.1,13.5,0,20.3-0.4c0.1,0,0.1-0.2,0-0.2c-6.7,0.4-13.5,0.5-20.3,0.4
				C98.2,90.6,98.2,90.8,98.3,90.8L98.3,90.8z"/>
		</g>
	</g>
</g>
<g>
	<g>
		<g>
			<path class="st0" d="M107.5,89.9c1.8,0,3.6-0.1,5.3-0.1c0.1,0,0.1-0.2,0-0.2c-1.8,0-3.6,0.1-5.3,0.1
				C107.4,89.7,107.4,89.9,107.5,89.9L107.5,89.9z"/>
		</g>
	</g>
</g>
<g>
	<g>
		<g>
			<path class="st0" d="M91.2,94.7c11.1-0.5,22.1-0.6,33.2-0.5c3.1,0,6.3,0.1,9.4,0.2c0.1,0,0.1-0.2,0-0.2
				c-11.1-0.3-22.1-0.3-33.2,0c-3.1,0.1-6.3,0.2-9.4,0.3C91.1,94.5,91.1,94.7,91.2,94.7L91.2,94.7z"/>
		</g>
	</g>
</g>
<g>
	<g>
		<g>
			<path class="st0" d="M63.4,92.4c2.7,0,5.3,0,8,0c0.1,0,0.1-0.2,0-0.2c-2.7,0-5.3,0-8,0C63.3,92.2,63.3,92.4,63.4,92.4L63.4,92.4z
				"/>
		</g>
	</g>
</g>
<g>
	<g>
		<g>
			<path class="st0" d="M37.7,92.1c1.3,0,2.5,0,3.8,0c0.1,0,0.1-0.2,0-0.2c-1.3,0-2.5,0-3.8,0C37.6,92,37.6,92.1,37.7,92.1
				L37.7,92.1z"/>
		</g>
	</g>
</g>
<g>
	<g>
		<g>
			<path class="st0" d="M8.5,91.1c2.2,0.1,4.3,0.2,6.5,0.3c0.1,0,0.1-0.2,0-0.2c-2.2-0.1-4.3-0.2-6.5-0.3
				C8.4,90.9,8.4,91.1,8.5,91.1L8.5,91.1z"/>
		</g>
	</g>
</g>
<g>
	<g>
		<g>
			<path class="st0" d="M9.7,90.4c0.3,0,0.6,0,0.9,0c0.1,0,0.1-0.2,0-0.2c-0.3,0-0.6,0-0.9,0C9.6,90.3,9.6,90.4,9.7,90.4L9.7,90.4z"
				/>
		</g>
	</g>
</g>
<g>
	<g>
		<g>
			<path class="st0" d="M37.7,91.4c0.4,0,0.9,0,1.3,0c0.1,0,0.1-0.2,0-0.2c-0.4,0-0.9,0-1.3,0C37.6,91.2,37.6,91.4,37.7,91.4
				L37.7,91.4z"/>
		</g>
	</g>
</g>
<g>
	<g>
		<g>
			<path class="st0" d="M63.9,91.6c0.5,0,0.9,0,1.4,0c0.1,0,0.1-0.2,0-0.2c-0.5,0-0.9,0-1.4,0C63.7,91.4,63.7,91.6,63.9,91.6
				L63.9,91.6z"/>
		</g>
	</g>
</g>
<g>
	<g>
		<g>
			<path class="st0" d="M14.1,70.9c0.5-0.3,1.1-0.3,1.6,0c0.1,0.1,0.2-0.1,0.1-0.2c-0.5-0.4-1.2-0.4-1.8,0
				C13.9,70.8,14,70.9,14.1,70.9L14.1,70.9z"/>
		</g>
	</g>
</g>
<g>
	<g>
		<g>
			<path class="st0" d="M17.1,71.7c0.2-0.3,0.6-0.3,0.8-0.1c0.1,0.1,0.2-0.1,0.1-0.1c-0.3-0.3-0.9-0.2-1.1,0.1
				C16.9,71.7,17,71.8,17.1,71.7L17.1,71.7z"/>
		</g>
	</g>
</g>
<g>
	<g>
		<g>
			<path class="st0" d="M40.8,71.1c0.5-0.3,1.1-0.5,1.7-0.5c0.1,0,0.1-0.2,0-0.2c-0.6,0.1-1.2,0.3-1.7,0.6
				C40.6,71,40.7,71.2,40.8,71.1L40.8,71.1z"/>
		</g>
	</g>
</g>
<g>
	<g>
		<g>
			<path class="st0" d="M46.2,71.9c0.7,0.6,1.1,1.4,1.1,2.4c0,0.1,0.2,0.1,0.2,0c0-1-0.4-1.9-1.1-2.5C46.3,71.7,46.1,71.9,46.2,71.9
				L46.2,71.9z"/>
		</g>
	</g>
</g>
<g>
	<g>
		<g>
			<path class="st0" d="M72.2,71.6c0.2,0,0.4,0.1,0.5,0.2c0.1,0.1,0.2,0,0.2-0.1c-0.1-0.2-0.4-0.4-0.6-0.3
				C72.1,71.4,72.1,71.6,72.2,71.6L72.2,71.6z"/>
		</g>
	</g>
</g>
<g>
	<g>
		<g>
			<path class="st0" d="M73.9,72.5c0,0.1,0.1,0.2,0.1,0.3c0.1,0.1,0.2,0,0.2-0.1c0-0.1-0.1-0.2-0.1-0.3C74,72.3,73.9,72.4,73.9,72.5
				L73.9,72.5z"/>
		</g>
	</g>
</g>
<g>
	<g>
		<g>
			<path class="st0" d="M40.2,67.7c0.7,0.6,1,1.5,0.9,2.4c0,0.1,0.2,0.2,0.2,0c0.1-1-0.2-1.9-0.9-2.5C40.2,67.5,40.1,67.6,40.2,67.7
				L40.2,67.7z"/>
		</g>
	</g>
</g>
<g>
	<g>
		<g>
			<path class="st0" d="M47.6,71.2c0.4-0.4,0.8-0.6,1.3-0.6c0.3,0,1.1,0,1.1,0.5c0,0.4-0.4,0.8-0.7,0.9c-0.4,0.2-0.9,0.3-1.3,0.1
				c-0.1,0-0.2,0.1,0,0.2c1,0.4,2.2-0.4,2.3-1.5c0,0,0-0.1,0-0.1c-0.9-0.5-2-0.4-2.7,0.3C47.4,71.1,47.5,71.2,47.6,71.2L47.6,71.2z"
				/>
		</g>
	</g>
</g>
<g>
	<g>
		<g>
			<path class="st0" d="M48.1,72.1c-0.3-0.1,0.3-0.5,0.3-0.5c0.2-0.1,0.3-0.2,0.5-0.2c0.4-0.2,0.7-0.2,1.1-0.3c0.1,0,0.1-0.2,0-0.2
				c-0.6,0.1-1.4,0.2-1.9,0.7c-0.2,0.2-0.4,0.5-0.1,0.6C48.2,72.3,48.2,72.1,48.1,72.1L48.1,72.1z"/>
		</g>
	</g>
</g>
<g>
	<g>
		<g>
			<path class="st0" d="M13,70.8c0-0.9-0.1-1.8-0.5-2.7c0-0.1-0.2-0.1-0.2,0c0.3,0.9,0.5,1.7,0.5,2.6C12.8,70.9,13,70.9,13,70.8
				L13,70.8z"/>
		</g>
	</g>
</g>
<g>
	<g>
		<g>
			<path class="st0" d="M19.1,71.9c0.8-0.5,1.3-1.3,1.6-2.2c0-0.1-0.1-0.2-0.2,0c-0.3,0.9-0.8,1.6-1.5,2.1
				C18.9,71.8,19,71.9,19.1,71.9L19.1,71.9z"/>
		</g>
	</g>
</g>
<g>
	<g>
		<g>
			<path class="st0" d="M70.2,70.8c0.7-1,1-2.1,0.8-3.3c0-0.1-0.2-0.1-0.2,0c0.2,1.1,0,2.2-0.7,3.1C70.1,70.8,70.2,70.9,70.2,70.8
				L70.2,70.8z"/>
		</g>
	</g>
</g>
<g>
	<g>
		<g>
			<path class="st0" d="M75.5,74.9c0.1-0.9,1.2-1.5,2.1-1.1c0.1,0.1,0.2-0.1,0.1-0.2c-1-0.5-2.2,0.2-2.3,1.2
				C75.3,75,75.5,75,75.5,74.9L75.5,74.9z"/>
		</g>
	</g>
</g>
<g>
	<g>
		<g>
			<path class="st0" d="M12.2,88.5c0.1-0.1,0.1-0.2,0.2-0.3c0.2-0.5,0.5-0.4,0.9,0.2c0,0.1-0.4,0.2-0.5,0.4
				c-0.2,0.3-0.3,0.6-0.4,0.9c0,0,0,0.1,0.1,0.1c0.3,0.1,0.6,0,0.9-0.2c0.1-0.1,0.2-0.1,0.3-0.2c0.3-0.2,0.5,0,0.6,0.6
				c0,0.2-0.5,0.6-0.7,0.8c0,0,0,0.1,0,0.1c0.2,0.2,0.4,0.2,0.6,0.2c0.1,0,0.3-0.1,0.4-0.2c0.1-0.1,0.2-0.2,0.3-0.2
				c0.2-0.2,0.2-0.1,0.3,0.2c0.2,0.2,0.2,0.3,0,0.4c-0.1,0.1,0,0.2,0.1,0.2c0.3-0.2,0.7-0.5,0.6-0.9c-0.1-0.4-0.5-0.4-0.7-0.3
				s-0.5,0.4-0.7,0.5c-0.2,0.2-0.5,0.1-0.4-0.2c0-0.2,0.3-0.4,0.4-0.5c0.2-0.3,0.5-0.6,0.2-0.9c-0.4-0.4-0.9,0.1-1.2,0.2
				c-0.5,0.2-0.8,0-0.5-0.4c0.3-0.4,0.4-0.3,0.7-0.6c0.1-0.1,0.2-0.2,0.2-0.3c0-0.3-0.3-0.5-0.6-0.5c-0.5,0-0.8,0.5-1,0.9
				C12,88.5,12.2,88.6,12.2,88.5L12.2,88.5z"/>
		</g>
	</g>
</g>
<g>
	<g>
		<g>
			<path class="st0" d="M29.2,91.6c-0.2-0.2-0.7-0.6-0.6-0.9c0.2-0.6,0.7,0.3,0.8,0.3c0.2,0.1,0.4,0.2,0.6,0.2
				c0.6-0.1,0.8-0.8,0.4-1.2c-0.1-0.1-0.2-0.1-0.3-0.2c-0.4-0.1-0.2-0.3,0.5-0.5c0.2,0.1,0.3,0.2,0.5,0.4c0.1,0,0.2,0,0.3-0.1
				c0.2-0.2,0.2-0.4,0.1-0.6c0-0.2-0.2-0.2-0.2-0.4c-0.2-0.2-0.3-0.3-0.4-0.5c0.4-0.3,0.7-0.3,0.9,0.1c0.1,0.1,0.2,0,0.2-0.1
				c-0.2-0.3-0.5-0.7-0.9-0.6c-0.2,0.1-0.3,0.3-0.3,0.5c0,0.2,0.1,0.3,0.2,0.5c0.1,0.1,0.1,0.2,0.2,0.2c0,0.2-0.1,0.4-0.1,0.6
				c0,0-0.2-0.2-0.3-0.2c-0.3-0.2-0.7-0.3-1,0.1c-0.1,0.2-0.1,0.4,0,0.6c0.2,0.3,0.5-0.1-0.1,0.5c-0.7,0.7-0.1,0.4-0.4,0.2
				c-0.2-0.1-0.2-0.2-0.4-0.3c-0.3,0-0.4,0.1-0.5,0.3c0,0.4,0.4,0.9,0.7,1.1C29.1,91.7,29.2,91.6,29.2,91.6L29.2,91.6z"/>
		</g>
	</g>
</g>
<g>
	<g>
		<g>
			<path class="st0" d="M39.4,89c0.3-0.3,0.7-0.5,1.2-0.4c0.1,0,0.2-0.1,0-0.2c-0.5-0.1-1,0.1-1.4,0.4C39.2,89,39.4,89.1,39.4,89
				L39.4,89z"/>
		</g>
	</g>
</g>
<g>
	<g>
		<g>
			<path class="st0" d="M40.3,90.7c0.6-0.3,1-0.8,1.1-1.5c0-0.1-0.2-0.1-0.2,0c-0.1,0.6-0.4,1.1-1,1.3
				C40.1,90.6,40.1,90.7,40.3,90.7L40.3,90.7z"/>
		</g>
	</g>
</g>
<g>
	<g>
		<g>
			<path class="st0" d="M42.1,91.9c-0.2-0.7,0-1.5,0.7-1.9c0.1-0.1,0-0.2-0.1-0.2c-0.7,0.4-1,1.3-0.8,2.1C42,92,42.2,92,42.1,91.9
				L42.1,91.9z"/>
		</g>
	</g>
</g>
<g>
	<g>
		<g>
			<path class="st0" d="M43.5,90.1c0.4,0.5,0.5,1.1,0.4,1.8c0,0.1,0.2,0.2,0.2,0c0.1-0.7,0-1.3-0.4-1.9C43.6,89.9,43.5,90,43.5,90.1
				L43.5,90.1z"/>
		</g>
	</g>
</g>
<g>
	<g>
		<g>
			<path class="st0" d="M54.6,92c-0.3-0.6,0-1.3,0.5-1.6c0.1,0,0-0.2-0.1-0.2c-0.7,0.3-1,1.2-0.6,1.8C54.5,92.2,54.7,92.1,54.6,92
				L54.6,92z"/>
		</g>
	</g>
</g>
<g>
	<g>
		<g>
			<path class="st0" d="M55.7,90.4c0.6,0.4,1,1,0.9,1.8c0,0.1,0.2,0.1,0.2,0c0.1-0.8-0.3-1.5-1-1.9C55.6,90.2,55.6,90.4,55.7,90.4
				L55.7,90.4z"/>
		</g>
	</g>
</g>
<g>
	<g>
		<g>
			<path class="st0" d="M58.4,91c-0.9-0.3-1.3-1.3-0.9-2.1c0.1-0.1-0.1-0.2-0.2-0.1c-0.5,0.9,0,2.1,1,2.4C58.5,91.2,58.5,91,58.4,91
				L58.4,91z"/>
		</g>
	</g>
</g>
<g>
	<g>
		<g>
			<path class="st0" d="M58,88.6c0.5-0.3,1.2,0.1,1.2,0.6c0,0.1,0.2,0.1,0.2,0c-0.1-0.7-0.9-1.1-1.5-0.8
				C57.8,88.5,57.9,88.6,58,88.6L58,88.6z"/>
		</g>
	</g>
</g>
<g>
	<g>
		<g>
			<path class="st0" d="M40.9,81.8c0.5-0.2,1,0.1,1.2,0.5c0,0.1,0.2,0.1,0.2,0c-0.2-0.5-0.8-0.9-1.4-0.7
				C40.8,81.7,40.8,81.8,40.9,81.8L40.9,81.8z"/>
		</g>
	</g>
</g>
<g>
	<g>
		<g>
			<path class="st0" d="M11.6,81.7c0.5,0.5,1.2,0.7,1.9,0.5c0.1,0,0.1-0.2,0-0.2c-0.6,0.2-1.3,0-1.7-0.4
				C11.7,81.4,11.5,81.6,11.6,81.7L11.6,81.7z"/>
		</g>
	</g>
</g>
<g>
	<g>
		<g>
			<path class="st0" d="M65.5,81.1c0,0.4,0.1,0.8,0.3,1.2c0.1,0.1,0.2,0,0.2-0.1c-0.2-0.3-0.3-0.7-0.3-1.1
				C65.6,80.9,65.5,80.9,65.5,81.1L65.5,81.1z"/>
		</g>
	</g>
</g>
<g>
	<path class="st0" d="M14.5,58.7l-0.4-2.9l-2.6-1.4l2.7-1.3l0.5-2.9l2,2.2l2.9-0.4l-1.4,2.6l1.3,2.6l-2.9-0.6L14.5,58.7z M12.1,54.4
		l2.3,1.2l0.3,2.5l1.8-1.8l2.5,0.5l-1.1-2.3l1.2-2.2l-2.5,0.4l-1.7-1.9l-0.4,2.5L12.1,54.4z"/>
</g>
<g>
	<path class="st0" d="M85.6,63.5l-0.4-2.9l-2.6-1.4l2.7-1.3l0.5-2.9l2,2.2l2.9-0.4l-1.4,2.6l1.3,2.6l-2.9-0.6L85.6,63.5z M83.2,59.2
		l2.3,1.2l0.3,2.5l1.8-1.8l2.5,0.5L89,59.4l1.2-2.2l-2.5,0.4L86,55.6l-0.4,2.5L83.2,59.2z"/>
</g>
<g>
	<path class="st0" d="M54,72.4l-0.4-2.9l-2.6-1.4l2.7-1.3l0.5-2.9l2,2.2l2.9-0.4l-1.4,2.6l1.3,2.6l-2.9-0.6L54,72.4z M51.7,68.1
		l2.3,1.2l0.3,2.5l1.8-1.8l2.5,0.5l-1.1-2.3l1.2-2.2l-2.5,0.4l-1.7-1.9L54,67L51.7,68.1z"/>
</g>
<g>
	<path class="st0" d="M26.5,69l-1.4-0.9l-1.6,0.6l0.5-1.6l-1.1-1.3l1.7-0.1l0.9-1.4l0.6,1.6l1.6,0.4l-1.3,1.1L26.5,69z M25.2,67.8
		l1.1,0.7l-0.1-1.3l1-0.8l-1.2-0.3l-0.4-1.2L24.8,66l-1.3,0.1l0.8,1L24,68.3L25.2,67.8z"/>
</g>
<g>
	<path class="st0" d="M71.2,63.1l-1.4-0.9l-1.6,0.6l0.5-1.6l-1.1-1.3l1.7-0.1l0.9-1.4l0.6,1.6l1.6,0.4l-1.3,1L71.2,63.1z M69.9,61.8
		l1.1,0.7l-0.1-1.3l1-0.8l-1.2-0.3L70.2,59L69.5,60l-1.3,0.1l0.8,1l-0.3,1.2L69.9,61.8z"/>
</g>
<g>
	<path class="st0" d="M46.1,58.6l-1.4-0.9l-1.6,0.6l0.5-1.6l-1.1-1.3l1.7-0.1l0.9-1.4l0.6,1.6l1.6,0.4l-1.3,1L46.1,58.6z M44.8,57.4
		l1.1,0.7l-0.1-1.3l1-0.8l-1.2-0.3L45,54.5l-0.7,1.1l-1.3,0.1l0.8,1l-0.3,1.2L44.8,57.4z"/>
</g>
<g>
	<path class="st0" d="M47,66.3l-1-0.7l-1.1,0.5l0.3-1.2L44.4,64l1.2-0.1l0.7-1.1l0.4,1.2l1.2,0.3l-1,0.8L47,66.3z M46,65.3l0.7,0.5
		L46.7,65l0.6-0.5l-0.8-0.2l-0.3-0.8l-0.4,0.7l-0.8,0l0.5,0.6l-0.2,0.8L46,65.3z"/>
</g>
<g>
	<g>
		<g>
			<path class="st0" d="M16.6,56.3c0.3,0.5,0.2,1.4,0,1.9c-0.2,0.6-0.5,1.1-0.9,1.6c-0.7,0.8-1.7,1.6-2.7,1.8
				c-0.2,0-0.7,0.2-0.9,0.1c-0.5-0.4,0.3-0.7,0.5-0.9c0.5-0.3,1-0.5,1.5-0.7c0.8-0.2,2.2-0.6,2.3,0.6c0,0.8-0.5,1.5-1.2,1.7
				c-0.1,0-0.1,0.2,0,0.2c0.7-0.3,1.3-0.9,1.3-1.7c0.1-0.9-0.5-1.3-1.4-1.2c-1.1,0.1-2.1,0.5-3,1.2c-0.3,0.2-1,0.8-0.3,1
				c0.9,0.3,2.1-0.5,2.7-0.9c0.8-0.6,1.5-1.4,1.9-2.3c0.2-0.4,0.3-0.8,0.3-1.2c0-0.3,0-0.9-0.2-1.2c-0.2-0.2-0.4-0.1-0.3,0.2
				C16.5,56.5,16.7,56.4,16.6,56.3L16.6,56.3z"/>
		</g>
	</g>
</g>
<g>
	<g>
		<g>
			<path class="st0" d="M13.3,64.7c-0.4,0.4-1,0.8-1.3,1.3c-0.1,0.2-0.2,0.4,0,0.6c0.5,0.8,1.9,0,2.5-0.3c0.6-0.3,1.2-0.6,1.8-1
				c0.2-0.2,0.6-0.4,0.6-0.7c0-0.8-1-0.3-1.3,0c-0.1,0.1,0,0.2,0.1,0.1c0.3-0.4,0.5-0.3,0.6,0.3c-0.1,0-0.1,0.1-0.2,0.1
				c-0.1,0.2-0.4,0.3-0.6,0.4c-0.5,0.3-1,0.5-1.5,0.8c-0.3,0.1-0.5,0.2-0.8,0.3c-0.1,0-0.2,0.1-0.3,0.1c-0.4,0.2-0.5,0.1-0.5-0.4
				c-0.2-0.6-0.1-0.5,0.3-0.9c0.2-0.2,0.4-0.4,0.6-0.7C13.5,64.7,13.3,64.6,13.3,64.7L13.3,64.7z"/>
		</g>
	</g>
</g>
<g>
	<g>
		<g>
			<path class="st0" d="M23.9,68c-0.5,0.2-0.7,0.6-1,0.9c-0.1,0.2-0.3,0.3-0.4,0.4c-0.8,0.1-1.1-0.2-1-0.7c0-0.4,0.2-0.7,0.4-1.1
				c0.4-0.7,0.7-1.4,0.3-2.2c-0.5-1.1-1.7-1.7-1.7-3.1c0-0.5,0.4-1.4,1.1-1.1c0.3,0.1,0.6,0.6,0.8,0.8c0.2,0.2,0.3,0.5,0.4,0.8
				c0.1,0.2,0.2,0.4,0.2,0.6c0.2,0.4,0,0.7-0.5,1c-0.1,0-0.1,0.2,0,0.2c0.6,0.1,0.8-0.5,0.7-1c-0.2-0.8-0.7-1.7-1.3-2.2
				c-0.4-0.4-0.9-0.4-1.3,0c-0.5,0.6-0.4,1.5-0.1,2.1c0.4,0.9,1.3,1.4,1.6,2.3c0.3,1-0.6,1.8-0.7,2.7c-0.1,0.5,0.1,1.2,0.7,1.2
				c0.9,0.1,1.3-1.2,2-1.5C24.1,68.1,24,68,23.9,68L23.9,68z"/>
		</g>
	</g>
</g>
<g>
	<g>
		<g>
			<path class="st0" d="M23.1,59.5c0.9-0.5,1.7,0.2,2.2,0.9c0.3,0.4,0.6,1.1-0.1,1.4c-0.5,0.1-0.9-0.2-1.3-0.4
				c-0.1-0.1-0.2,0.1-0.1,0.2c0.5,0.3,1,0.6,1.6,0.4c0.4-0.2,0.5-0.6,0.4-1c-0.4-1-1.6-2.3-2.8-1.6C23,59.4,23.1,59.6,23.1,59.5
				L23.1,59.5z"/>
		</g>
	</g>
</g>
<g>
	<g>
		<g>
			<path class="st0" d="M45.9,58.6c0.2,0.2,0.5,0.5,0.6,0.8c0.4,1.2-0.9,0.6-1.2,0.5c-0.5-0.2-0.9-0.3-1.4-0.5
				c-0.5-0.1-1.3-0.5-1.8-0.1c-0.3,0.2-0.2,0.5,0,0.8c0.2,0.3,0.6,0.6,0.9,0.8c0.2,0.2,0.4,0.3,0.5,0.5c0.1,0.1,0.2,0.1,0.2,0.2
				c0.4,0.4,0.3,0.7-0.3,1.1c-0.1,0-0.2,0.1,0,0.2c0.5,0.2,1-0.4,0.8-0.9c-0.2-0.5-0.6-0.8-1-1.1c-0.2-0.2-0.5-0.4-0.7-0.6
				c-0.1-0.1-0.1-0.1-0.2-0.2c0.1-0.2,0.2-0.5,0.3-0.7c0.1-0.1,0.5,0.1,0.7,0.1c0.6,0.2,1.3,0.3,1.9,0.6c0.4,0.1,0.9,0.4,1.2,0.2
				c0.7-0.5,0.1-1.3-0.4-1.7C45.9,58.4,45.8,58.5,45.9,58.6L45.9,58.6z"/>
		</g>
	</g>
</g>
<g>
	<g>
		<g>
			<path class="st0" d="M54,66.1c-0.6-0.7-1.3-1.4-2.2-1.9c-0.5-0.3-1.4-0.9-2.1-0.8c-0.7,0.1-0.7,0.8-0.5,1.3
				c0.1,0.4,0.4,0.8,0.6,1.2c0.1,0.1,0.2,0.2,0.3,0.3c0.1,0.1,0.2,0.2,0.3,0.3c0.5,0.5,0.4,0.8-0.4,1c0-0.1-0.2,0-0.2,0.1
				c0.2,0.3,0.6,0.4,0.9,0.2c0.5-0.5-0.2-1.3-0.5-1.6c-0.3-0.4-0.9-1.1-0.9-1.6c0-1.1,0.6-1,1.1-0.8c0.3,0.1,0.6,0.3,0.9,0.5
				c1,0.5,1.8,1.3,2.5,2.1C54,66.3,54.1,66.2,54,66.1L54,66.1z"/>
		</g>
	</g>
</g>
<g>
	<g>
		<g>
			<path class="st0" d="M70.5,62.7c-0.3,0.4-2,2.8-0.6,2.8c0.6,0,1.2-1.1,1.5-1.5c0.2-0.3,0.5-0.9,0.9-1.1c0.9-0.5,0.4,0.2,0.2,0.4
				c-0.2,0.3-0.4,0.6-0.5,1c-0.1,0.1,0.1,0.2,0.2,0.1c0.3-0.6,0.6-1.1,0.9-1.7c0,0,0-0.1,0-0.1c-0.8-0.4-1.5,1-1.8,1.4
				c-0.2,0.3-0.4,0.5-0.6,0.8c-0.1,0.1-0.2,0.3-0.2,0.3c-0.2,0.1-0.7-0.1-0.8-0.3c-0.1-0.6,0.7-1.5,1.1-1.9
				C70.7,62.7,70.6,62.6,70.5,62.7L70.5,62.7z"/>
		</g>
	</g>
</g>
<g>
	<g>
		<g>
			<path class="st0" d="M85.4,60.7c-1-0.1-3.1,0.4-2.4,1.8c0.5,0.9,1.2,1.6,1.7,2.5c0.4,0.7,0.5,1.7-0.5,1.9c-0.5,0.1-1,0-1.5-0.2
				c-0.8-0.3-2.7-1-3,0.4c-0.2,0.6,0.3,1.1,0.8,1.5c0.2,0.1,0.3,0.3,0.5,0.4c0.1,0.1,0.2,0.1,0.2,0.2c0.3,0.2,0.3,0.4,0,0.7
				c0,0.3-0.2,0.4-0.4,0.4c-0.2,0-0.4,0-0.5-0.1c-0.3-0.1-0.6-0.2-0.9-0.3c-0.1-0.1-0.2,0.1-0.1,0.2c0.5,0.3,2.9,1,2.4-0.4
				c-0.3-0.9-2.4-1.5-1.7-2.6c0.6-1.1,2.1-0.3,2.9,0c1,0.3,2.5,0.1,2.3-1.3c-0.2-0.9-0.9-1.7-1.4-2.4c-0.4-0.6-1.1-1.4-0.2-2
				c0.6-0.3,1.2-0.4,1.8-0.4C85.5,60.9,85.5,60.7,85.4,60.7L85.4,60.7z"/>
		</g>
	</g>
</g>
<g>
	<g>
		<g>
			<path class="st0" d="M78.2,69.8c-0.5-0.7-1.6-0.5-1.6,0.4c0,0.5,0.5,1,0.9,1.4c0.2,0.2,0.7,0.7,0.8,1c0.1,0.9-1.2,0-1.4-0.2
				c-0.1-0.1-0.2,0.1-0.1,0.2c0.2,0.1,1.8,1.2,2,0.5c0.1-0.3-0.4-0.7-0.5-0.9c-0.2-0.3-0.5-0.6-0.7-0.9c-0.2-0.2-0.4-0.4-0.5-0.6
				c-0.1-0.1-0.1-0.3-0.1-0.5c-0.2-0.7,0.2-0.8,1.2-0.3C78.1,70,78.3,69.9,78.2,69.8L78.2,69.8z"/>
		</g>
	</g>
</g>
<g>
	<g>
		<g>
			<path class="st0" d="M74.4,65.2c0.4,0.2,1,0.4,1.5,0c0.3-0.3,0.3-0.8,0.2-1.2c-0.3-0.7-1-1.1-1.3-1.7c-0.2-0.4-0.4-0.8-0.5-1.2
				c0-0.1-0.3-0.7-0.2-0.8c0.3-0.1,0.6-0.2,0.9-0.2c0.1,0.2,0.2,0.3,0.3,0.5c0.1,0.1,0.2,0,0.2-0.1c-0.2-0.4-0.6-0.9-1.1-0.8
				c-0.5,0.1-0.5,0.6-0.4,1.1c0.2,0.8,0.5,1.6,1,2.2c0.2,0.3,0.5,0.5,0.7,0.8c0.1,0.1,0.2,0.3,0.2,0.5c0.1,0.3,0,0.5-0.3,0.6
				c-0.2,0.3-0.4,0.4-0.8,0.2c-0.1,0-0.3-0.1-0.4-0.2C74.3,65,74.3,65.1,74.4,65.2L74.4,65.2z"/>
		</g>
	</g>
</g>
<g>
	<g>
		<g>
			<path class="st0" d="M76.6,61.9c0.3,0.9,1.5,0.6,1.6-0.3c0.1-0.6-0.2-1.1-0.5-1.5c-0.2-0.3-0.5-0.5-0.8-0.8
				c-0.2-0.2-0.5-0.4-0.5-0.7c-0.2-0.2-0.1-0.5,0.3-0.6c0.2,0.1,0.4,0.2,0.6,0.4c0.1,0.1,0.2,0,0.1-0.1c-0.2-0.2-0.6-0.6-1-0.5
				c-0.3,0.1-0.3,0.5-0.2,0.8c0.2,0.5,0.7,0.9,1,1.3c0.3,0.3,0.6,0.6,0.8,1c0.1,0.3,0.2,0.7,0,1c-0.3,0.4-1,0.6-1.2,0
				C76.7,61.8,76.5,61.8,76.6,61.9L76.6,61.9z"/>
		</g>
	</g>
</g>
<g>
	<g>
		<g>
			<path class="st0" d="M14,87.1c0.4,0.9,1.1,1.6,2,2.1c0.2,0.1,0.4-0.2,0.2-0.3c-0.8-0.4-1.5-1.1-1.9-2
				C14.2,86.7,13.9,86.9,14,87.1L14,87.1z"/>
		</g>
	</g>
</g>
<g>
	<g>
		<g>
			<path class="st0" d="M14.9,87.5c0.1,0,0.2,0.1,0.3,0.1c0.1,0,0.2,0,0.2-0.1c0-0.1,0-0.2-0.1-0.2c-0.1,0-0.2-0.1-0.3-0.1
				c-0.1,0-0.2,0-0.2,0.1C14.8,87.4,14.9,87.5,14.9,87.5L14.9,87.5z"/>
		</g>
	</g>
</g>
<g>
	<g>
		<g>
			<path class="st0" d="M41.3,88c0.7,0.9,1.8,1.2,2.8,0.8c0.2-0.1,0.1-0.4-0.1-0.3c-0.9,0.3-1.9,0-2.5-0.8
				C41.4,87.5,41.2,87.8,41.3,88L41.3,88z"/>
		</g>
	</g>
</g>
<g>
	<g>
		<g>
			<path class="st0" d="M42.7,88.2c0.2,0,0.4,0,0.5,0c0.2,0,0.2-0.3,0-0.3c-0.2,0-0.4,0-0.5,0C42.5,87.8,42.5,88.2,42.7,88.2
				L42.7,88.2z"/>
		</g>
	</g>
</g>
<g>
	<g>
		<g>
			<path class="st0" d="M68.7,87.1c0.1,1.1,0.6,2.1,1.4,2.8c0.2,0.2,0.4-0.1,0.2-0.2c-0.7-0.7-1.2-1.6-1.3-2.6
				C69,86.9,68.6,86.9,68.7,87.1L68.7,87.1z"/>
		</g>
	</g>
</g>
<g>
	<g>
		<g>
			<path class="st0" d="M69.5,88.1c0.2,0.3,0.5,0.6,0.7,0.9c0.1,0.2,0.4,0,0.3-0.2c-0.2-0.3-0.5-0.6-0.7-0.9
				C69.7,87.7,69.4,87.9,69.5,88.1L69.5,88.1z"/>
		</g>
	</g>
</g>
<g>
	<g>
		<g>
			<path class="st0" d="M86.3,57.9c0-0.3,0-0.6,0.1-0.9c-0.1,0-0.1,0-0.2,0c0,0.3,0.2,0.5,0.5,0.7c0.1,0.1,0.2-0.1,0.1-0.2
				c-0.2-0.1-0.4-0.3-0.4-0.6c0-0.1-0.1-0.1-0.2,0c-0.1,0.3-0.2,0.6-0.1,1C86.1,58.1,86.3,58,86.3,57.9L86.3,57.9z"/>
		</g>
	</g>
</g>
<g>
	<g>
		<g>
			<path class="st0" d="M88.4,58c0.3,0,0.6,0,0.8-0.1c0,0-0.1-0.1-0.1-0.1c-0.1,0.2-0.2,0.4-0.4,0.5c-0.1,0.1,0,0.2,0.1,0.1
				c0.2-0.2,0.3-0.3,0.4-0.5c0-0.1,0-0.2-0.1-0.1c-0.3,0.1-0.5,0.1-0.8,0.1C88.3,57.8,88.3,58,88.4,58L88.4,58z"/>
		</g>
	</g>
</g>
<g>
	<g>
		<g>
			<path class="st0" d="M88.8,60.5c0.2,0.2,0.4,0.4,0.6,0.6c0,0,0.1-0.1,0.1-0.1c-0.2-0.2-0.5-0.3-0.8-0.2c-0.1,0-0.1,0.2,0,0.2
				c0.2,0,0.4,0,0.6,0.2c0.1,0.1,0.2,0,0.1-0.1c-0.2-0.2-0.4-0.4-0.6-0.6C88.8,60.3,88.7,60.4,88.8,60.5L88.8,60.5z"/>
		</g>
	</g>
</g>
<g>
	<g>
		<g>
			<path class="st0" d="M86.1,61c0,0.2,0,0.5,0.1,0.7c0,0.1,0.1,0.1,0.1,0.1c0.2-0.1,0.4-0.2,0.5-0.4c0.1-0.1-0.1-0.2-0.2-0.1
				c-0.1,0.2-0.2,0.3-0.4,0.4c0,0,0.1,0.1,0.1,0.1c0-0.2,0-0.5-0.1-0.7C86.3,60.9,86.1,60.9,86.1,61L86.1,61z"/>
		</g>
	</g>
</g>
<g>
	<g>
		<g>
			<path class="st0" d="M85,58.8c-0.2,0.1-0.4,0.1-0.5,0.2c-0.1,0-0.1,0.1-0.1,0.1c0.1,0.2,0.3,0.4,0.5,0.5c0.1,0.1,0.2-0.1,0.1-0.2
				c-0.2-0.1-0.3-0.2-0.4-0.5c0,0,0,0.1-0.1,0.1c0.2-0.1,0.4-0.1,0.5-0.2C85.1,58.9,85.1,58.8,85,58.8L85,58.8z"/>
		</g>
	</g>
</g>
<g>
	<g>
		<g>
			<path class="st0" d="M69.8,60.1c0.1-0.1,0.2-0.2,0.3-0.4c-0.1,0-0.1,0-0.2,0c0,0.2,0.1,0.3,0.2,0.5c0.1,0.1,0.2,0,0.2-0.1
				c-0.1-0.1-0.1-0.2-0.1-0.4c0-0.1-0.1-0.1-0.2,0c-0.1,0.1-0.2,0.2-0.3,0.4C69.6,60.1,69.7,60.2,69.8,60.1L69.8,60.1z"/>
		</g>
	</g>
</g>
<g>
	<g>
		<g>
			<path class="st0" d="M70.5,60.7c0.1,0,0.2,0.1,0.4,0.1c0,0,0-0.1,0-0.1c-0.1,0.1-0.2,0.2-0.2,0.2c-0.1,0.1,0,0.2,0.1,0.1
				c0.1-0.1,0.2-0.2,0.2-0.2c0.1,0,0-0.1,0-0.1c-0.1,0-0.2-0.1-0.4-0.1C70.5,60.4,70.4,60.6,70.5,60.7L70.5,60.7z"/>
		</g>
	</g>
</g>
<g>
	<g>
		<g>
			<path class="st0" d="M70,61.7c0.1,0.1,0.2,0.1,0.3,0.2c0.1,0,0.1,0,0.1-0.1c0-0.1,0-0.2,0-0.3c0-0.1-0.1-0.2-0.2,0
				c0,0.1-0.1,0.2-0.1,0.3c0,0,0.1-0.1,0.1-0.1c-0.1-0.1-0.2-0.1-0.3-0.2C70,61.5,69.9,61.6,70,61.7L70,61.7z"/>
		</g>
	</g>
</g>
<g>
	<g>
		<g>
			<path class="st0" d="M69.2,61.2c0,0.1,0,0.2-0.1,0.3c0,0.1,0,0.1,0.1,0.1c0.1,0,0.2-0.1,0.3-0.2c0-0.1-0.1-0.2-0.2,0
				c0,0.1-0.1,0.1-0.1,0.1c0,0,0.1,0.1,0.1,0.1c0-0.1,0-0.2,0.1-0.3C69.4,61.2,69.3,61.1,69.2,61.2L69.2,61.2z"/>
		</g>
	</g>
</g>
<g>
	<g>
		<g>
			<path class="st0" d="M69.3,60.7c-0.1-0.1-0.2-0.2-0.3-0.3c0,0.1,0,0.1-0.1,0.2C69.1,60.6,69.2,60.6,69.3,60.7
				c0.2,0,0.2-0.2,0.1-0.2c-0.2-0.1-0.3-0.1-0.5-0.1c-0.1,0-0.1,0.1-0.1,0.2c0.1,0.1,0.2,0.2,0.3,0.3C69.2,60.9,69.3,60.8,69.3,60.7
				L69.3,60.7z"/>
		</g>
	</g>
</g>
<g>
	<g>
		<g>
			<path class="st0" d="M44.6,55.8c0.1-0.1,0.2-0.2,0.2-0.4c-0.1,0-0.1,0-0.2,0c0,0.1,0.1,0.2,0.1,0.3c0,0.1,0.2,0,0.2-0.1
				c0-0.1-0.1-0.2-0.1-0.3c0-0.1-0.1-0.1-0.2,0c-0.1,0.1-0.2,0.2-0.2,0.4C44.4,55.8,44.6,55.9,44.6,55.8L44.6,55.8z"/>
		</g>
	</g>
</g>
<g>
	<g>
		<g>
			<path class="st0" d="M44.1,56.2c-0.1-0.1-0.1-0.2-0.2-0.3c0,0,0,0.1-0.1,0.1c0.1,0,0.2,0,0.4,0c0.1,0,0.2-0.1,0-0.2
				c-0.2-0.1-0.3-0.1-0.5,0c0,0-0.1,0.1-0.1,0.1c0.1,0.1,0.1,0.2,0.2,0.3C44,56.4,44.1,56.3,44.1,56.2L44.1,56.2z"/>
		</g>
	</g>
</g>
<g>
	<g>
		<g>
			<path class="st0" d="M44.1,56.9c-0.1,0.1-0.1,0.2-0.1,0.3c0,0.1,0.1,0.1,0.1,0.1c0.1-0.1,0.2-0.1,0.3-0.2c0.1,0,0-0.2-0.1-0.2
				c-0.1,0.1-0.2,0.1-0.3,0.2c0,0,0.1,0.1,0.1,0.1c0-0.1,0-0.2,0-0.2C44.3,56.9,44.2,56.8,44.1,56.9L44.1,56.9z"/>
		</g>
	</g>
</g>
<g>
	<g>
		<g>
			<path class="st0" d="M45.1,57.1c0,0.1,0.1,0.2,0.1,0.2c0,0,0.1,0,0.1,0c0.1-0.1,0.2-0.2,0.1-0.4c-0.1-0.1-0.2,0-0.2,0.1
				c0,0,0,0.1,0,0.1c0,0,0.1,0,0.1,0c0,0-0.1,0-0.1-0.1C45.3,57,45.1,57,45.1,57.1L45.1,57.1z"/>
		</g>
	</g>
</g>
<g>
	<g>
		<g>
			<path class="st0" d="M45.5,56.2c0.1,0,0.3,0,0.4,0c0,0-0.1-0.1-0.1-0.1c0,0.1-0.1,0.1-0.1,0.2c-0.1,0.1,0.1,0.2,0.2,0.1
				c0-0.1,0.1-0.1,0.1-0.2c0-0.1,0-0.1-0.1-0.1c-0.1,0-0.3,0-0.4,0C45.4,56,45.4,56.2,45.5,56.2L45.5,56.2z"/>
		</g>
	</g>
</g>
<g>
	<g>
		<g>
			<path class="st0" d="M54.7,66.8c0-0.3,0-0.6,0.1-0.9c-0.1,0-0.1,0-0.2,0c0.1,0.2,0.3,0.4,0.4,0.6c0.1,0.1,0.2,0,0.2-0.1
				c-0.1-0.2-0.3-0.4-0.4-0.6c0-0.1-0.1-0.1-0.2,0c-0.1,0.3-0.1,0.6-0.1,0.9C54.6,66.9,54.7,66.9,54.7,66.8L54.7,66.8z"/>
		</g>
	</g>
</g>
<g>
	<g>
		<g>
			<path class="st0" d="M56.8,67c0.2-0.1,0.5-0.2,0.7-0.2c0,0-0.1-0.1-0.1-0.1c-0.1,0.2-0.2,0.4-0.2,0.6c0,0.1,0.1,0.2,0.2,0
				c0.1-0.2,0.2-0.4,0.2-0.6c0-0.1-0.1-0.1-0.1-0.1c-0.3,0-0.5,0.1-0.8,0.2C56.6,66.9,56.7,67,56.8,67L56.8,67z"/>
		</g>
	</g>
</g>
<g>
	<g>
		<g>
			<path class="st0" d="M53.3,67.8c-0.2,0.1-0.3,0.2-0.5,0.2c-0.1,0-0.1,0.1,0,0.2c0.2,0.1,0.4,0.3,0.7,0.4c0.1,0,0.2-0.1,0.1-0.2
				c-0.2-0.1-0.5-0.2-0.7-0.4c0,0.1,0,0.1,0,0.2c0.2,0,0.4-0.1,0.5-0.2C53.4,67.9,53.4,67.8,53.3,67.8L53.3,67.8z"/>
		</g>
	</g>
</g>
<g>
	<g>
		<g>
			<path class="st0" d="M54.3,69.9c0,0.2,0.1,0.4,0.1,0.6c0,0.1,0.1,0.1,0.1,0.1c0.2-0.1,0.3-0.3,0.4-0.5c0-0.1-0.1-0.2-0.2-0.1
				c-0.1,0.2-0.2,0.3-0.3,0.4c0,0,0.1,0,0.1,0.1c0-0.2-0.1-0.4-0.1-0.6C54.5,69.8,54.3,69.8,54.3,69.9L54.3,69.9z"/>
		</g>
	</g>
</g>
<g>
	<g>
		<g>
			<path class="st0" d="M56.9,69.7c0.2,0.1,0.4,0.2,0.6,0.1c0,0,0.1-0.1,0.1-0.1c-0.1-0.2-0.1-0.3-0.2-0.5c0-0.1-0.2-0.1-0.2,0
				c0.1,0.2,0.1,0.3,0.2,0.5c0,0,0-0.1,0.1-0.1c-0.2,0-0.3,0-0.5-0.1C56.8,69.5,56.8,69.7,56.9,69.7L56.9,69.7z"/>
		</g>
	</g>
</g>
<g>
	<g>
		<g>
			<path class="st0" d="M75.5,82.8c0.2-0.1,0.6,0,0.4,0.2c0,0-0.1,0-0.1,0c-0.1,0.2-0.1,0-0.2,0.2c0,0.1,0,0.1,0.1,0.1
				c0.2,0,0.5,0,0.4,0.2c-0.1,0.1-0.4,0.2-0.5,0.2c0,0-0.1,0.1,0,0.1c0.1,0.2,0.1,0.1,0.2,0.2c0.1,0,0.2,0,0.2,0.1
				c0.1,0.1,0.1,0.1-0.1,0.1c-0.1,0.1-0.2,0.1-0.2,0.2c0,0,0,0.1,0,0.1c0-0.1,0.1,0.1,0.1,0.1c0-0.1,0.7,0.2,0,0.3
				c-0.1,0-0.1,0.1,0,0.2c0.5,0.2,0.4,0.2-0.1,0.4c-0.1,0-0.1,0.1,0,0.2c0.1,0,0.7,0.2,0.6,0.3c-0.1,0.1,0.1,0.2,0.1,0.1
				c0.1-0.1,0.1-0.3,0-0.4c-0.2-0.2-0.8,0,0-0.3c0.1,0,0.1-0.1,0-0.2c-0.2-0.1-0.4-0.2-0.6-0.3c0,0.1,0,0.1,0,0.2
				c0.2,0,0.6-0.1,0.5-0.4c0-0.1-0.1-0.1-0.1-0.2c0,0-0.2,0-0.2,0c0-0.1,0.1,0,0.2-0.1c0.1-0.1,0.2-0.1,0.1-0.3
				c-0.1-0.1-0.1-0.1-0.2-0.1c-0.1,0-0.2,0-0.2-0.1c0,0,0.5-0.3,0.5-0.3c0.1,0,0.1-0.1,0-0.2c0,0-0.5-0.3-0.5-0.2c0,0,0.2,0,0.2,0
				c0.1-0.1,0.2-0.1,0.2-0.2c0.1-0.5-0.6-0.4-0.8-0.3C75.3,82.7,75.4,82.9,75.5,82.8L75.5,82.8z"/>
		</g>
	</g>
</g>
<g>
	<g>
		<g>
			<path class="st0" d="M49.2,86.4c0.2,0.1,0.6,0,0.6-0.3c0-0.5-0.9-0.1-0.1-0.5c0.1,0,0.1-0.1,0-0.2c-0.5-0.3-0.7-0.4-0.1-0.5
				c0,0,0.1-0.1,0.1-0.1c-0.1-0.3-0.6-0.4-0.1-0.6c0.1,0,0.1-0.1,0-0.2c-0.2,0-0.3-0.3-0.1-0.5c0,0,0.1,0,0.2,0
				c0.1-0.1,0.2,0,0.2-0.2c0.1-0.3-0.2-0.2-0.4-0.3c-0.3-0.3,0.2-0.2,0.3-0.5c0.1-0.3-0.2-0.4-0.4-0.4c-0.1,0-0.2,0.2,0,0.2
				c0.3,0.1-0.3,0.2-0.2,0.1c-0.1,0.1-0.1,0.1-0.2,0.2c0,0.1,0,0.2,0,0.3c0.1,0.1,0.4,0.2,0.4,0.2c0.1,0.2-0.4,0.2-0.4,0.4
				c-0.1,0.4,0.3,0.5,0.6,0.5c0-0.1,0-0.1,0-0.2c-0.2,0.1-0.7,0.1-0.6,0.4c0.1,0.3,0.9,0.2,0,0.4c-0.1,0-0.1,0.1,0,0.1
				c0.2,0.2,0.4,0.4,0.7,0.5c0-0.1,0-0.1,0-0.2c-0.2,0.1-0.4,0.1-0.6,0.1c0,0-0.1,0-0.1,0.1c0,0.1,0,0.2,0,0.3c0,0,0.1,0.1,0.1,0.1
				c0,0,0,0,0,0c0.2,0,0.2,0.1,0,0.2C49.2,86.2,49.1,86.4,49.2,86.4L49.2,86.4z"/>
		</g>
	</g>
</g>
<g>
	<g>
		<g>
			<path class="st0" d="M20.4,85.9c-0.1,0.2-0.1,0.4-0.2,0.5c0,0.1,0.1,0.2,0.2,0c0.1-0.2,0.1-0.4,0.2-0.5
				C20.6,85.8,20.5,85.8,20.4,85.9L20.4,85.9z"/>
		</g>
	</g>
</g>
<g>
	<g>
		<g>
			<path class="st0" d="M20.4,85.9c0,0.1,0,0.2-0.1,0.3c-0.1,0.1,0.1,0.2,0.2,0.1c0.1-0.1,0.2-0.2,0.2-0.3c-0.1,0-0.1-0.1-0.2-0.1
				c-0.1,0.1-0.1,0.2-0.2,0.3c-0.1,0.1,0.1,0.2,0.2,0.1c0-0.1,0.1-0.2,0.1-0.2c0.1-0.1-0.1-0.2-0.2-0.1c0,0.1-0.1,0.2-0.1,0.2
				c0.1,0,0.1,0.1,0.2,0.1c0.1-0.1,0.1-0.2,0.2-0.3c0.1-0.1-0.1-0.2-0.2-0.1c-0.1,0.1-0.2,0.2-0.2,0.3c0.1,0,0.1,0.1,0.2,0.1
				c0.1-0.1,0.1-0.2,0.1-0.4C20.6,85.8,20.4,85.8,20.4,85.9L20.4,85.9z"/>
		</g>
	</g>
</g>
<g>
	<g>
		<g>
			<path class="st0" d="M21.8,85.6c-0.1-0.2,1-0.2,0.6-0.7c-0.2-0.2-0.3,0-0.2-0.2c0-0.1,0.2-0.1,0.2-0.2c0,0,0-0.1,0-0.1
				c0,0-0.1-0.1-0.1-0.1C22,84,22,83.8,22.2,83.8c0,0,0.2-0.2,0.1-0.1c0,0,0-0.1,0-0.1c-0.1-0.2-0.1-0.4-0.2-0.6
				c0.1,0,0.1-0.1,0.1-0.2c-0.3-0.3-0.4-0.6-0.3-1.1c0-0.1-0.2-0.1-0.2,0c0,0.5,0.1,0.8,0.4,1.2c0-0.1,0-0.1,0.1-0.2
				c-0.2,0-0.4,0.2-0.4,0.4c0,0.1,0.2,0.3,0.2,0.3c0,0.1-0.1,0-0.2,0.1c-0.2,0.2-0.1,0.2,0,0.4c0,0.1,0.1,0.1,0.2,0.2
				c0.2,0.5,0,0.1-0.1,0.2c-0.1,0.2-0.1,0-0.2,0.2c0,0,0,0.1,0,0.1c0.1,0,0.3,0.2,0.3,0.2c0.2,0.2-0.2,0.2-0.4,0.3
				c-0.2,0.1-0.2,0.2-0.1,0.4C21.7,85.7,21.9,85.7,21.8,85.6L21.8,85.6z"/>
		</g>
	</g>
</g>
<g>
	<g>
		<g>
			<path class="st0" d="M13.8,54.1c-0.2-0.1-0.5-0.1-0.6,0.1c0,0,0,0.1,0,0.1c0.3,0.1,0.6,0.3,0.9,0.4c0.1,0,0.2-0.1,0.1-0.2
				c-0.3-0.1-0.6-0.3-0.9-0.4c0,0,0,0.1,0,0.1c0.1-0.1,0.3-0.1,0.4-0.1C13.8,54.3,13.9,54.1,13.8,54.1L13.8,54.1z"/>
		</g>
	</g>
</g>
<g>
	<g>
		<g>
			<path class="st0" d="M15.3,52.8c0-0.2,0-0.5,0.1-0.7c0,0-0.1,0-0.1,0c0.1,0.1,0.3,0.3,0.4,0.4c0.1,0.1,0.2,0,0.1-0.1
				c-0.1-0.1-0.3-0.3-0.4-0.4c0-0.1-0.1,0-0.1,0c-0.1,0.2-0.1,0.5-0.1,0.8C15.2,53,15.3,52.9,15.3,52.8L15.3,52.8z"/>
		</g>
	</g>
</g>
<g>
	<g>
		<g>
			<path class="st0" d="M17.3,53.2c0.2-0.1,0.5-0.1,0.7-0.2c0,0-0.1-0.1-0.1-0.1c-0.1,0.1-0.1,0.3-0.2,0.4c-0.1,0.1,0.1,0.2,0.2,0.1
				c0.1-0.1,0.2-0.3,0.2-0.4c0-0.1-0.1-0.1-0.1-0.1c-0.2,0.1-0.5,0.1-0.7,0.2C17.2,53.1,17.2,53.2,17.3,53.2L17.3,53.2z"/>
		</g>
	</g>
</g>
<g>
	<g>
		<g>
			<path class="st0" d="M15,56.1c0,0.3,0,0.5,0.1,0.8c0,0.1,0.1,0.1,0.1,0c0.1-0.1,0.2-0.2,0.4-0.3c0.1-0.1,0-0.2-0.1-0.1
				c-0.1,0.1-0.2,0.2-0.4,0.3c0,0,0.1,0,0.1,0c-0.1-0.2-0.1-0.5,0-0.7C15.2,56,15,56,15,56.1L15,56.1z"/>
		</g>
	</g>
</g>
<g>
	<g>
		<g>
			<path class="st0" d="M17.3,56c0.2,0,0.4,0.1,0.6,0.1c0.1,0,0.1,0,0.1-0.1c0-0.2,0-0.4-0.1-0.6c-0.1-0.1-0.2,0-0.2,0.1
				c0.1,0.2,0.1,0.3,0.1,0.5c0,0,0.1-0.1,0.1-0.1c-0.2,0-0.4-0.1-0.6-0.1C17.3,55.8,17.2,56,17.3,56L17.3,56z"/>
		</g>
	</g>
</g>
<g>
	<g>
		<g>
			<path class="st0" d="M24.5,66.5c-0.1,0-0.2-0.1-0.3-0.1c0,0.1,0,0.1,0,0.2C24.4,66.6,24.5,66.6,24.5,66.5
				c0.2,0.1,0.2-0.1,0.1-0.1c-0.1,0-0.3,0-0.4,0c-0.1,0-0.1,0.1,0,0.2c0.1,0.1,0.2,0.1,0.3,0.1C24.6,66.7,24.7,66.5,24.5,66.5
				L24.5,66.5z"/>
		</g>
	</g>
</g>
<g>
	<g>
		<g>
			<path class="st0" d="M25.2,66c0-0.1,0-0.2,0.1-0.3c-0.1,0-0.1,0-0.2,0C25.1,65.8,25.1,65.9,25.2,66C25.1,66.1,25.3,66.1,25.2,66
				c0.1-0.1,0.1-0.2,0.1-0.3c0-0.1-0.2-0.1-0.2,0c0,0.1,0,0.2-0.1,0.3C25,66.1,25.2,66.1,25.2,66L25.2,66z"/>
		</g>
	</g>
</g>
<g>
	<g>
		<g>
			<path class="st0" d="M24.4,67.3c0,0.1,0,0.2,0,0.2c0,0.1,0.1,0.1,0.1,0.1c0.1-0.1,0.2-0.1,0.2-0.2c0.1-0.1,0-0.2-0.1-0.2
				s-0.2,0.1-0.2,0.2c0,0,0.1,0.1,0.1,0.1c0-0.1,0-0.2,0-0.2C24.6,67.2,24.4,67.2,24.4,67.3L24.4,67.3z"/>
		</g>
	</g>
</g>
<g>
	<g>
		<g>
			<path class="st0" d="M25.5,67.7c0,0.2,0.2,0.3,0.3,0.1c0.1-0.1,0-0.3-0.1-0.4C25.6,67.4,25.5,67.5,25.5,67.7c0.2,0,0.2,0,0.1,0.1
				c0,0,0.1,0,0.1,0c0,0,0,0,0,0C25.7,67.6,25.5,67.6,25.5,67.7L25.5,67.7z"/>
		</g>
	</g>
</g>
<g>
	<g>
		<g>
			<path class="st0" d="M25.9,66.6c0.1,0,0.3,0.1,0.4,0.1c0-0.1,0-0.1,0-0.2c-0.1,0-0.2,0.1-0.3,0.1c-0.1,0,0,0.2,0.1,0.2
				c0.1,0,0.2-0.1,0.3-0.1c0.1,0,0.1-0.1,0-0.2c-0.1,0-0.3-0.1-0.4-0.1C25.8,66.4,25.8,66.6,25.9,66.6L25.9,66.6z"/>
		</g>
	</g>
</g>
<g>
	<g>
		<g>
			<path class="st0" d="M45.6,65.1C45.6,65.1,45.6,65.1,45.6,65.1c0,0.2,0.2,0.1,0.2,0c0,0,0,0,0-0.1C45.7,65,45.6,65,45.6,65.1
				L45.6,65.1z"/>
		</g>
	</g>
</g>
<g>
	<g>
		<g>
			<path class="st0" d="M45.3,64.4c0,0,0.1,0.1,0.1,0.1c0.1,0.1,0.2-0.1,0.1-0.1c0,0-0.1-0.1-0.1-0.1C45.3,64.2,45.2,64.4,45.3,64.4
				L45.3,64.4z"/>
		</g>
	</g>
</g>
<g>
	<g>
		<g>
			<path class="st0" d="M46.1,64.3C46.1,64.3,46.2,64.2,46.1,64.3c0.2-0.2,0.1-0.3,0-0.2c0,0-0.1,0.1-0.1,0.1
				C45.9,64.2,46,64.4,46.1,64.3L46.1,64.3z"/>
		</g>
	</g>
</g>
<g>
	<g>
		<g>
			<path class="st0" d="M46.5,64.7c0.1,0,0.1,0,0.2-0.1c0.1,0,0.1-0.2,0-0.2c-0.1,0-0.1,0-0.2,0.1C46.4,64.5,46.4,64.7,46.5,64.7
				L46.5,64.7z"/>
		</g>
	</g>
</g>
<g>
	<g>
		<g>
			<path class="st0" d="M46.2,65.3C46.2,65.3,46.3,65.4,46.2,65.3c0.1,0.1,0.2,0,0.2-0.1c0,0,0,0-0.1-0.1
				C46.3,65.1,46.2,65.2,46.2,65.3L46.2,65.3z"/>
		</g>
	</g>
</g>
<g>
	<g>
		<g>
			<path class="st0" d="M21.9,80c0.1-0.2,0.2-0.5,0.4-0.7c0.2-0.2,0.5-0.5,0.7-0.5c0.1,0,0.1,0,0.1,0.2c0.1,0.1,0.1,0.1,0,0.2
				c0,0.1-0.1,0.1-0.1,0.2c-0.1,0.1-0.2,0.2-0.3,0.2c-0.2,0.1-0.5,0.2-0.8,0.2C21.8,79.8,21.8,79.9,21.9,80c0.4,0,0.8-0.1,1.1-0.4
				c0.2-0.2,0.6-0.5,0.4-0.8c-0.2-0.3-0.6-0.1-0.8,0.1c-0.4,0.2-0.6,0.6-0.8,1C21.8,80,21.9,80.1,21.9,80L21.9,80z"/>
		</g>
	</g>
</g>
<g>
	<g>
		<g>
			<path class="st0" d="M21.4,79.7c-0.1-0.2-0.2-0.4-0.2-0.6c0-0.1,0-0.2,0-0.3c0-0.1,0-0.4,0.1-0.3s0.1,0.4,0.1,0.5
				c0,0.2,0,0.4,0,0.6C21.3,79.8,21.5,79.8,21.4,79.7c0.1-0.3,0.3-1.8-0.3-1.5C21,78.3,21,78.7,21,78.8c0,0.4,0.1,0.7,0.3,1
				C21.4,79.9,21.5,79.8,21.4,79.7L21.4,79.7z"/>
		</g>
	</g>
</g>
<g>
	<g>
		<g>
			<path class="st0" d="M49.8,80.2c0.1-0.4,0.5-0.8,0.9-1c0.3-0.1,0.5,0.2,0.3,0.4c-0.1,0.1-0.2,0.1-0.2,0.2
				c-0.2,0.1-0.4,0.1-0.6,0.2c-0.1,0.1,0,0.2,0.1,0.2c0.3-0.2,0.7-0.2,0.9-0.5c0.1-0.2,0.1-0.5-0.1-0.6c-0.3-0.2-0.6,0.1-0.8,0.2
				c-0.3,0.2-0.5,0.5-0.6,0.9C49.6,80.2,49.8,80.3,49.8,80.2L49.8,80.2z"/>
		</g>
	</g>
</g>
<g>
	<g>
		<g>
			<path class="st0" d="M49,80.3c-0.3-0.1-0.4-0.4-0.3-0.6c0,0-0.1,0-0.1,0C48.8,79.7,49,80,49,80.3c0.1,0.1,0.3,0,0.2-0.1
				c-0.1-0.3-0.3-0.6-0.6-0.7c0,0-0.1,0-0.1,0c-0.2,0.4,0,0.8,0.4,0.9C49,80.4,49.1,80.3,49,80.3L49,80.3z"/>
		</g>
	</g>
</g>
<g>
	<g>
		<g>
			<path class="st0" d="M76.7,80.2c0.2-0.3,0.5-0.8,0.9-0.6s0,0.4-0.2,0.4c-0.2,0-0.4,0-0.6,0C76.7,80.1,76.7,80.2,76.7,80.2
				c0.3,0,0.7,0,1-0.1c0.2-0.1,0.4-0.3,0.2-0.5c-0.1-0.2-0.5-0.2-0.7-0.2c-0.3,0.1-0.5,0.4-0.7,0.7C76.5,80.3,76.7,80.3,76.7,80.2
				L76.7,80.2z"/>
		</g>
	</g>
</g>
<g>
	<g>
		<g>
			<path class="st0" d="M76.3,79.9c-0.1-0.2-0.3-1.3,0.2-1.1c0,0,0-0.1-0.1-0.1c-0.1,0.2-0.1,0.3-0.2,0.5c0,0.1,0.1,0.2,0.2,0
				c0.1-0.2,0.1-0.3,0.2-0.5c0,0,0-0.1-0.1-0.1c-0.2-0.1-0.5,0.1-0.5,0.3c-0.1,0.3,0,0.7,0.1,1C76.2,80.1,76.4,80,76.3,79.9
				L76.3,79.9z"/>
		</g>
	</g>
</g>
<g>
	<g>
		<g>
			<path class="st0" d="M75.9,82.2c0.1-0.1,0.1-0.2,0.2-0.3c0.1-0.1,0-0.2-0.1-0.1c-0.1,0.1-0.2,0.2-0.3,0.4c0,0,0,0.1,0.1,0.1
				C75.8,82.2,75.8,82.2,75.9,82.2L75.9,82.2z"/>
		</g>
	</g>
</g>
<g>
	<g>
		<g>
			<path class="st0" d="M54.9,80.4c0.3,0.4,0.4,0.9,0.2,1.4c0,0.1,0.1,0.2,0.2,0c0.1-0.5,0-1.1-0.3-1.5C55,80.2,54.9,80.3,54.9,80.4
				L54.9,80.4z"/>
		</g>
	</g>
</g>
<g>
	<g>
		<g>
			<path class="st0" d="M55.8,81.1c0.1,0.5,0,1-0.2,1.5c-0.1,0.1,0.1,0.2,0.2,0.1c0.3-0.5,0.4-1,0.2-1.6C55.9,81,55.8,81,55.8,81.1
				L55.8,81.1z"/>
		</g>
	</g>
</g>
<g>
	<g>
		<g>
			<path class="st0" d="M27.4,79.7c0.5,0.7,0.6,1.5,0.3,2.2c0,0.1,0.1,0.2,0.2,0c0.3-0.8,0.2-1.7-0.3-2.4
				C27.4,79.5,27.3,79.6,27.4,79.7L27.4,79.7z"/>
		</g>
	</g>
</g>
<g>
	<g>
		<g>
			<path class="st0" d="M28.3,80.4c0.1,0.6,0.1,1.2-0.1,1.7c0,0.1,0.1,0.2,0.2,0c0.2-0.6,0.2-1.2,0.1-1.8
				C28.4,80.2,28.3,80.3,28.3,80.4L28.3,80.4z"/>
		</g>
	</g>
</g>
<g>
	<g>
		<g>
			<path class="st0" d="M82.3,80.5c0.2,0.5,0.2,1.1-0.2,1.6c-0.1,0.1,0.1,0.2,0.2,0.1c0.3-0.5,0.4-1.1,0.2-1.7
				C82.4,80.4,82.3,80.4,82.3,80.5L82.3,80.5z"/>
		</g>
	</g>
</g>
<g>
	<g>
		<g>
			<path class="st0" d="M83,81.7c-0.1,0.4-0.3,0.8-0.6,1.1c-0.1,0.1,0,0.2,0.1,0.1c0.4-0.3,0.6-0.8,0.6-1.2
				C83.2,81.6,83,81.6,83,81.7L83,81.7z"/>
		</g>
	</g>
</g>
<g>
	<path class="st0" d="M102,47.5l0-0.7l-0.6-0.4l0.7-0.2l0.2-0.7l0.4,0.6l0.7,0l-0.4,0.6l0.2,0.7l-0.7-0.2L102,47.5z M101.8,46.4
		l0.4,0.3l0,0.5l0.4-0.3l0.5,0.2l-0.2-0.5l0.3-0.4l-0.5,0l-0.3-0.4l-0.2,0.5L101.8,46.4z"/>
</g>
<g>
	<path class="st0" d="M107.1,46.4L107,46l-0.4-0.2l0.4-0.2l0-0.5l0.4,0.3l0.5-0.1l-0.2,0.5l0.3,0.4l-0.5,0L107.1,46.4z M106.8,45.8
		l0.2,0.1l0.1,0.3l0.2-0.2l0.3,0l-0.1-0.2l0.1-0.3l-0.3,0.1l-0.2-0.2l0,0.3L106.8,45.8z"/>
</g>
<g>
	<path class="st0" d="M107.2,43.1l-0.4-1.1l-1.1-0.3l0.9-0.7l-0.1-1.2l1,0.7l1.1-0.4l-0.3,1.1l0.8,0.9l-1.2,0L107.2,43.1z M106,41.6
		l0.9,0.2l0.3,0.9l0.5-0.8l1,0l-0.6-0.8l0.3-0.9l-0.9,0.3l-0.8-0.5l0,1L106,41.6z"/>
</g>
<g>
	<g>
		<g>
			<path class="st0" d="M104,77.7c-0.4-0.6-0.9,0.2-1.5-0.1c-0.2-0.1-0.3-0.4-0.5-0.4c-0.4,0-0.2,0.7-0.9,0.3
				c-0.1-0.1-0.2,0.1-0.1,0.2c0.2,0.1,0.4,0.2,0.5,0.1c0.2-0.1,0.4-0.4,0.6-0.2c0.2,0.1,0.3,0.3,0.5,0.4c0.3,0.1,0.9-0.4,1.1-0.1
				C103.9,77.9,104.1,77.8,104,77.7L104,77.7z"/>
		</g>
	</g>
</g>
<g>
	<g>
		<g>
			<path class="st0" d="M104.9,77c0.2,0,0.3,0,0.5,0.1c0,0,0.1,0,0.1,0.1c0.1,0,0.2,0.1,0.2,0c0.1,0,0.7-0.5,0.7-0.2
				c0,0.1,0.2,0.1,0.2,0c0-0.2-0.1-0.3-0.3-0.3c-0.1,0-0.2,0-0.3,0.1c-0.1,0-0.1,0.1-0.2,0.1c-0.4,0.2-0.3,0-0.5-0.1
				c-0.2-0.1-0.4-0.2-0.6,0c-0.1,0.1-0.1,0.2,0.1,0.3C105,77.2,105,77.1,104.9,77L104.9,77z"/>
		</g>
	</g>
</g>
<g>
	<g>
		<g>
			<path class="st0" d="M107.8,77.4c0.2-0.2,0.6,0.2,0.9,0c0.2-0.1,0.2-0.5,0.4-0.6c0.1,0,0.1-0.2,0-0.2c-0.3,0-0.3,0.3-0.4,0.5
				c-0.2,0.3-0.7-0.2-1,0.1C107.6,77.3,107.7,77.5,107.8,77.4L107.8,77.4z"/>
		</g>
	</g>
</g>
<g>
	<g>
		<g>
			<path class="st0" d="M119.4,73.6c0.1-0.2,0.2-0.5,0.4-0.6c0.2-0.1,0.3-0.1,0.5-0.2c0.3-0.1,0.5-0.3,0.7-0.5
				c0.1-0.1-0.1-0.2-0.1-0.1c-0.1,0.2-0.3,0.3-0.5,0.4c-0.2,0.1-0.4,0.1-0.6,0.2c-0.3,0.2-0.4,0.4-0.6,0.7
				C119.2,73.6,119.4,73.7,119.4,73.6L119.4,73.6z"/>
		</g>
	</g>
</g>
<g>
	<g>
		<g>
			<path class="st0" d="M121.1,71.8c0-0.2,0.6-0.2,0.7-0.2c0.1-0.1,0.2-0.3,0.2-0.5c0-0.1,0-0.2,0.1-0.3c0.1-0.2,0.2-0.3,0.5-0.3
				c0.2-0.1,0.3-0.2,0.4-0.4c0-0.1-0.2-0.2-0.2,0c0,0.1-0.3,0.2-0.4,0.3c0,0-0.1,0-0.1,0c-0.1,0-0.2,0.1-0.2,0.2
				c-0.1,0.2-0.1,0.4-0.2,0.5c-0.1,0.2-0.1,0.3-0.4,0.4c-0.1,0-0.2,0-0.3,0c-0.2,0.1-0.2,0.2-0.2,0.3
				C121,71.9,121.1,71.9,121.1,71.8L121.1,71.8z"/>
		</g>
	</g>
</g>
<g>
	<g>
		<g>
			<path class="st0" d="M99.9,52.8c3-1.6,6.2-2.7,9.5-3.1c0.1,0,0.1-0.2,0-0.2c-3.4,0.4-6.6,1.5-9.6,3.1
				C99.7,52.8,99.8,52.9,99.9,52.8L99.9,52.8z"/>
		</g>
	</g>
</g>
<g>
	<g>
		<g>
			<path class="st0" d="M102.5,51c1.5-0.5,3-0.9,4.5-1.4c0.1,0,0.1-0.2,0-0.2c-1.5,0.4-3,0.9-4.5,1.4
				C102.3,50.9,102.4,51.1,102.5,51L102.5,51z"/>
		</g>
	</g>
</g>
<g>
	<g>
		<g>
			<path class="st0" d="M116.2,65.4c1-0.6,2.1-1.1,3.1-1.6c0.1-0.1,0-0.2-0.1-0.2c-1.1,0.5-2.1,1.1-3.1,1.6
				C116,65.3,116.1,65.4,116.2,65.4L116.2,65.4z"/>
		</g>
	</g>
</g>
<g>
	<g>
		<g>
			<path class="st0" d="M116.6,66c0.2-0.1,0.3-0.2,0.5-0.2c0.1,0,0-0.2-0.1-0.2c-0.2,0.1-0.3,0.2-0.5,0.2
				C116.4,65.9,116.5,66,116.6,66L116.6,66z"/>
		</g>
	</g>
</g>
<g>
	<g>
		<g>
			<path class="st0" d="M104.7,69c-1.3,0.2-2.6,0.4-4,0.5c-0.1,0-0.1,0.2,0,0.2c1.3-0.2,2.7-0.3,4-0.6C104.8,69.2,104.8,69,104.7,69
				L104.7,69z"/>
		</g>
	</g>
</g>
<g>
	<g>
		<g>
			<path class="st0" d="M118.2,79.1c1.3-0.6,2.5-1.3,3.8-1.9c0.1-0.1,0-0.2-0.1-0.2c-1.3,0.6-2.5,1.3-3.8,1.9
				C118,79,118.1,79.2,118.2,79.1L118.2,79.1z"/>
		</g>
	</g>
</g>
<g>
	<g>
		<g>
			<path class="st0" d="M113.3,81.4c-1.1,0.6-2.2,1.1-3.3,1.5c-0.1,0-0.1,0.2,0,0.2c1.2-0.4,2.3-0.9,3.4-1.5
				C113.5,81.5,113.4,81.4,113.3,81.4L113.3,81.4z"/>
		</g>
	</g>
</g>
<g>
	<g>
		<g>
			<path class="st0" d="M98.6,74.8c0.1,0.2,0.2,0.3,0.3,0.5c-0.2,0.3-0.2,0.5,0.1,0.7c0.3,0.3,0.2,0.7,0.1,1.1
				c0,0.1,0.1,0.2,0.1,0.1c0.5-0.6,0.7,1.6,0.6,2.1c-0.1,0.4-0.3,0.7-0.5,1.1c-0.1,0.1,0.1,0.2,0.2,0.1c0.3-0.5,1-1.9,0.4-2.4
				c-0.2-0.2-0.5-0.1-0.4,0.2c0,0.1,0.1,0.1,0.1,0.1c0.6-0.5,0-1.7-0.5-1.1c0,0,0.1,0.1,0.1,0.1c0.2-0.4,0.4-1.3-0.2-1.5
				c-0.4-0.1-0.6,0.2-0.4,0.5c0,0,0.1,0.1,0.1,0c0.3-0.4,0.5-1,0.2-1.4c-0.2-0.2-0.4-0.3-0.5,0C98.4,74.9,98.6,74.9,98.6,74.8
				L98.6,74.8z"/>
		</g>
	</g>
</g>
<g>
	<g>
		<g>
			<path class="st0" d="M98,74.6c-0.5,0-1,0.2-1.4,0.5c-0.1,0,0,0.1,0,0.1c0.4,0.1,0.8,0.1,1.2-0.1c0.2-0.1,0.3-0.2,0.5-0.2
				c0.1-0.1,0.8-0.3,0.5-0.1c0,0.1-0.1,0.2-0.2,0.1c-0.2,0-0.3-0.1-0.5-0.2c-0.1,0-0.2,0-0.2,0.1c0.1,0.6,0,1.2,0,1.7
				c0,0.1,0.2,0.1,0.2,0c0.1-0.6,0.1-1.2,0-1.7c-0.1,0-0.1,0-0.2,0.1c0.3,0.3,0.7,0.3,1.1,0.2c0,0,0.1-0.1,0-0.1
				c-0.1-0.3-0.3-0.4-0.6-0.3c-0.2,0-0.4,0.2-0.6,0.3c-0.4,0.2-0.9,0.4-1.3,0.2c0,0,0,0.1,0,0.1c0.4-0.3,0.8-0.5,1.3-0.5
				C98.1,74.8,98.1,74.6,98,74.6L98,74.6z"/>
		</g>
	</g>
</g>
<g>
	<g>
		<g>
			<path class="st0" d="M98.3,76.7c0.1,0.2,0.1,0.4-0.1,0.4c-0.1,0.1-0.2,0.1-0.3,0.1c-0.2,0.1-0.4,0.1-0.6,0.1c0,0.1,0,0.1,0,0.2
				c0.2-0.1,0.4-0.2,0.6-0.3c0.2,0,0.9-0.3,0.7,0.3c-0.1,0.4-0.7,0.5-1.1,0.5c0,0.1,0,0.1,0,0.2c0.1-0.1,0.3-0.1,0.4-0.1
				c0.2,0.3,0.1,0.4-0.2,0.4c0,0,0.1,0.1,0.1,0.1c0,0,0.1,0,0.1,0c0,0.1,0.2,0,0.2-0.1c-0.1-0.2-0.3-0.2-0.4,0c0,0.1,0,0.1,0.1,0.1
				c0.3,0,0.7-0.1,0.6-0.5c-0.1-0.4-0.6-0.3-0.9-0.2c-0.1,0-0.1,0.2,0,0.2c0.5,0.1,1.4-0.3,1.3-0.9c-0.1-0.6-1.4-0.1-1.7,0.1
				c-0.1,0,0,0.2,0,0.2c0.4,0,1.4-0.2,1.5-0.8c0-0.3-0.4-0.5-0.5-0.2C98.1,76.7,98.2,76.8,98.3,76.7L98.3,76.7z"/>
		</g>
	</g>
</g>
<g>
	<g>
		<g>
			<path class="st0" d="M104.1,77.5c-0.2-0.2-0.5-0.6-0.1-0.7c0.3-0.1,0.5,0.2,0.6,0.4c0.1,0.1,0.2,0,0.2-0.1
				c-0.2-0.3-0.5-0.7-0.9-0.5c-0.4,0.2-0.1,0.7,0.1,0.9C104.1,77.7,104.2,77.5,104.1,77.5L104.1,77.5z"/>
		</g>
	</g>
</g>
<g>
	<g>
		<g>
			<path class="st0" d="M106.8,77.1c-0.2-0.2-0.2-0.6,0.1-0.7c0.3-0.2,0.7,0.2,0.6,0.6c0,0.1,0.1,0.2,0.2,0c0.2-0.4-0.3-1-0.8-0.8
				c-0.4,0.2-0.5,0.7-0.2,1C106.7,77.3,106.9,77.2,106.8,77.1L106.8,77.1z"/>
		</g>
	</g>
</g>
<g>
	<g>
		<g>
			<path class="st0" d="M120.6,72.5c-0.2-0.2-0.3-0.5-0.2-0.7c0.1-0.2,0.2-0.4,0.4-0.3c0.2,0.1,0.2,0.4,0.3,0.5c0,0.1,0.2,0.1,0.2,0
				c0-0.2-0.1-0.5-0.3-0.7c-0.2-0.1-0.4-0.1-0.5,0c-0.3,0.3-0.2,0.9,0.1,1.2C120.5,72.7,120.7,72.6,120.6,72.5L120.6,72.5z"/>
		</g>
	</g>
</g>
<g>
	<g>
		<g>
			<path class="st0" d="M113.8,75.4c0-0.1,0.3-0.3,0.3-0.1c0,0.1-0.2,0.2-0.2,0.1C114,75.3,113.8,75.3,113.8,75.4
				c0,0.3,0.5,0.3,0.5,0c0-0.2-0.1-0.3-0.3-0.3c-0.2,0-0.3,0.1-0.4,0.3C113.6,75.5,113.8,75.5,113.8,75.4L113.8,75.4z"/>
		</g>
	</g>
</g>
<g>
	<g>
		<g>
			<path class="st0" d="M115.8,74.6c0-0.1,0.1-0.1,0.2-0.1c0.1,0.1,0,0.2,0,0.2c0,0,0.1,0,0.1,0c-0.1-0.1-0.1-0.2-0.2-0.3
				c-0.1-0.1-0.2,0-0.2,0.1c0.1,0.1,0.1,0.2,0.2,0.3c0,0,0.1,0.1,0.1,0c0.2-0.1,0.2-0.4,0-0.5c-0.2-0.1-0.4,0.1-0.4,0.3
				C115.7,74.7,115.8,74.7,115.8,74.6L115.8,74.6z"/>
		</g>
	</g>
</g>
<g>
	<g>
		<g>
			<path class="st0" d="M111.6,76.3c0-0.1,0.3-0.1,0.2,0c0,0.1-0.1,0.1-0.1,0.1C111.6,76.4,111.6,76.3,111.6,76.3
				c0.2-0.1,0.1-0.2,0-0.2c-0.1,0.1-0.1,0.3,0.1,0.4c0.1,0.1,0.3,0,0.4-0.1c0.1-0.2,0-0.3-0.2-0.4c-0.2,0-0.3,0.1-0.4,0.2
				C111.3,76.3,111.5,76.4,111.6,76.3L111.6,76.3z"/>
		</g>
	</g>
</g>
<g>
	<g>
		<g>
			<path class="st0" d="M106.3,62.4c-2,0.7-3.4,2.5-3.8,4.5c0,0.1,0.1,0.1,0.1,0.1c0.6-0.4,1.2-0.7,1.9-0.9c0.4-0.1,0.3,0,0.2,0.3
				c-0.1,0.2-0.1,0.5-0.2,0.7c-0.1,0.8-0.1,1.6,0.1,2.3c0.4,1.7,1.5,3.1,3.1,3.9c0.1,0,0.1,0,0.1-0.1c-0.1-0.4,0-0.8,0.2-1.2
				c0.2-0.4,0.3-0.5,0.6-0.2c0.4,0.5,0.8,1,1.2,1.4c0.9,1,1.9,1.9,2.9,2.7c0,0,0.1,0,0.1,0c0.3-0.7,0.6-1.5,0.8-2.2
				c0.1-0.4,0.2-0.8,0.3-1.2c0.2-0.3,0.3-0.2,0.6-0.3c1.3-0.4,1-2,0.7-3c0,0-0.1,0.1-0.1,0.1c0.9,0.9,1.9-0.1,2-1.1
				c0.1-1.5-1-2.9-1.9-4c0,0.1,0,0.1-0.1,0.2c0.8,0.1,1.5-0.1,2.1-0.4c0.1,0,0.1-0.1,0-0.1c-1.8-1.7-4-2.6-6.5-2.7
				c-0.1,0-0.1,0.2,0,0.2c1.4,0,2.8,0.4,4.1,1.1c0.6,0.3,1.2,0.7,1.7,1.2c0,0,0.3,0.2,0.3,0.3c0,0.1-0.4,0.2-0.5,0.3
				c-0.4,0.2-0.9,0.2-1.4,0.1c-0.1,0-0.1,0.1-0.1,0.2c0.6,0.8,1.3,1.6,1.6,2.5c0.2,0.5,0.3,1,0.2,1.5c-0.1,0.8-0.9,1.6-1.7,0.9
				c-0.1-0.1-0.2,0-0.1,0.1c0.1,0.5,0.3,0.9,0.3,1.4c0,0.7-0.5,1.5-1.4,1.4c0,0-0.1,0-0.1,0.1c-0.2,0.8-0.4,1.6-0.7,2.4
				c-0.1,0.3-0.2,0.8-0.5,1.1c-0.2,0.2-0.3,0-0.5-0.2c-0.2-0.1-0.3-0.3-0.5-0.4c-1.2-1.1-2.3-2.3-3.3-3.6c0,0-0.1-0.1-0.1,0
				c-0.6,0.5-0.8,1.2-0.7,1.9c0,0,0.1-0.1,0.1-0.1c-2.6-1.3-3.9-4.5-2.8-7.2c0-0.1-0.1-0.1-0.1-0.1c-0.9,0.2-1.7,0.5-2.4,1
				c0,0,0.1,0.1,0.1,0.1c0.3-2,1.7-3.7,3.7-4.4C106.5,62.6,106.4,62.4,106.3,62.4L106.3,62.4z"/>
		</g>
	</g>
</g>
<g>
	<g>
		<g>
			<path class="st0" d="M105.8,66.4c-0.4,1.6-0.2,3.3,0.6,4.7c0.1,0.1,0.2,0,0.2-0.1c-0.8-1.4-1-3-0.6-4.6
				C105.9,66.4,105.8,66.3,105.8,66.4L105.8,66.4z"/>
		</g>
	</g>
</g>
<g>
	<g>
		<g>
			<path class="st0" d="M106.2,68.2c0,0.5,0.1,0.9,0.3,1.4c0,0.1,0.2,0.1,0.2,0c-0.1-0.4-0.2-0.9-0.3-1.3
				C106.4,68.1,106.2,68.1,106.2,68.2L106.2,68.2z"/>
		</g>
	</g>
</g>
<g>
	<g>
		<g>
			<path class="st0" d="M109.2,71.3c0.9,1.2,2,2.2,3.2,3.1c0.1,0.1,0.2-0.1,0.1-0.2c-1.2-0.9-2.3-1.9-3.2-3
				C109.2,71.1,109.1,71.2,109.2,71.3L109.2,71.3z"/>
		</g>
	</g>
</g>
<g>
	<g>
		<g>
			<path class="st0" d="M110.9,71.9c0.4,0.5,0.8,0.9,1.3,1.2c0.1,0.1,0.2-0.1,0.1-0.2c-0.5-0.3-0.9-0.7-1.3-1.2
				C111,71.7,110.8,71.9,110.9,71.9L110.9,71.9z"/>
		</g>
	</g>
</g>
<g>
	<g>
		<g>
			<path class="st0" d="M108.5,65.4c1,0.7,2-0.1,2.7-0.8c0.1-0.1,0-0.2-0.1-0.1c-0.6,0.7-1.5,1.4-2.5,0.8
				C108.5,65.2,108.4,65.3,108.5,65.4L108.5,65.4z"/>
		</g>
	</g>
</g>
</svg>
