<?xml version="1.0" encoding="utf-8"?>
<!-- Generator: Adobe Illustrator 24.0.1, SVG Export Plug-In . SVG Version: 6.00 Build 0)  -->
<svg version="1.1" id="Layer_1" xmlns="http://www.w3.org/2000/svg" xmlns:xlink="http://www.w3.org/1999/xlink" x="0px" y="0px"
	 viewBox="0 0 141.7 141.7" style="enable-background:new 0 0 141.7 141.7;" xml:space="preserve">
<style type="text/css">
	.st0{fill:#070707;}
	.st1{enable-background:new    ;}
</style>
<g id="Layer_1_1_">
</g>
<g id="Layer_1_2_">
</g>
<g id="Layer_1_3_">
</g>
<g id="Layer_1_4_">
</g>
<g id="Layer_1_5_">
</g>
<g id="Layer_3">
</g>
<g id="Layer_3_1_">
</g>
<g id="Layer_2_1_">
	<g>
		<g>
			<g>
				<path d="M98.8,83.3c-0.8-4.3-0.7-8.8-0.3-13.2c0.2-2.1,0.6-4.2,0.4-6.4c-0.2-2-0.6-3.9-1.2-5.9c-0.1-0.4-0.7-0.2-0.6,0.2
					c0.5,2.1,1.1,4.2,1.2,6.3c0.1,2.1-0.3,4.3-0.5,6.4c-0.3,4.2-0.3,8.5,0.4,12.7C98.2,83.9,98.8,83.7,98.8,83.3L98.8,83.3z"/>
			</g>
		</g>
	</g>
	<g>
		<g>
			<g>
				<path d="M93,112.9c0.7-0.5,1.4-1.1,2.1-1.7c0.3-0.3-0.2-0.7-0.5-0.5c-0.6,0.6-1.2,1.1-1.9,1.6C92.3,112.6,92.6,113.1,93,112.9
					L93,112.9z"/>
			</g>
		</g>
	</g>
	<g>
		<g>
			<g>
				<path d="M73.6,119.7c4.7-1.1,9.3-2.4,13.7-4.1c0.4-0.1,0.2-0.8-0.2-0.6c-4.5,1.7-9.1,3-13.7,4.1C73,119.2,73.2,119.8,73.6,119.7
					L73.6,119.7z"/>
			</g>
		</g>
	</g>
	<g>
		<g>
			<g>
				<path d="M65.6,120.9c0.8-0.2,1.7-0.1,2.6-0.2c0.4-0.1,0.2-0.7-0.2-0.6c-0.9,0.1-1.7,0-2.6,0.2C65,120.4,65.2,121.1,65.6,120.9
					L65.6,120.9z"/>
			</g>
		</g>
	</g>
	<g>
		<g>
			<g>
				<path d="M36,102c0,0.7,0.1,1.3,0.2,2c0,0.2,0.1,0.5,0.1,0.7c-0.1,0.5-0.5,0.6-0.9,0.7c-0.9,0.3-1.7,0.7-2.2,1.5
					c-0.3,0.5-0.5,1.1,0,1.5c0.5,0.4,1.2,0.3,1.7,0.4c2.7,0.3,4,3.6,5.5,5.5c1.5,1.9,3.5,3.5,5.6,4.7c2.7,1.4,5.7,2.2,8.8,2.2
					c0.4,0,0.4-0.6,0-0.6c-3.4,0-6.8-1-9.7-2.9c-1.3-0.9-2.6-1.9-3.6-3.1c-1-1.2-1.8-2.6-2.8-3.9c-0.7-1-1.6-1.9-2.8-2.4
					c-0.4-0.2-0.8-0.2-1.3-0.2c-0.5-0.1-1.2,0-1-0.7c0.4-1.4,2.4-1.1,3.1-2.1c0.2-0.3,0.2-0.7,0.2-1.1c-0.1-0.8-0.2-1.6-0.2-2.3
					C36.6,101.6,36,101.6,36,102L36,102z"/>
			</g>
		</g>
	</g>
	<g>
		<g>
			<g>
				<path d="M45.7,45.7c-3.2,5.4-2.2,11.6-1.9,17.5c0.2,3.1,0.1,6.3-0.6,9.4c-0.4,1.6-1,3.1-1.9,4.5c-0.9,1.4-2,2.6-3,3.9
					c-0.9,1.2-1.7,2.5-1.3,4.1c0.2,0.8,0.7,1.5,0.7,2.4c0.1,0.9-0.3,1.8-0.6,2.7c-0.1,0.4,0.5,0.6,0.6,0.2c0.3-1.3,0.8-2.5,0.4-3.9
					c-0.2-0.7-0.6-1.4-0.6-2.1c-0.1-0.9,0.4-1.7,0.9-2.4c1.8-2.6,4-4.7,5-7.8c2-5.9,0.8-12.1,0.6-18.1c-0.1-3.5,0.4-7,2.2-10.1
					C46.4,45.6,45.9,45.3,45.7,45.7L45.7,45.7z"/>
			</g>
		</g>
	</g>
	<g>
		<g>
			<g>
				<path d="M61.2,34c-6.6,1.6-12.3,5.9-15.6,11.8c-0.2,0.4,0.4,0.7,0.5,0.3c3.2-5.8,8.8-9.9,15.2-11.5C61.8,34.5,61.6,33.9,61.2,34
					L61.2,34z"/>
			</g>
		</g>
	</g>
	<g>
		<path class="st0" d="M88.3,48c1.3,0.1,2.3,1.1,2.3,2.3c-0.1,1.2-1.1,2.2-2.4,2.2c-1.3-0.1-2.3-1.1-2.3-2.3
			C85.9,48.9,87,47.9,88.3,48z M87.2,51.6c0.4,0,0.7-0.3,0.7-0.6c0-0.4-0.3-0.6-0.6-0.7c-0.4,0-0.7,0.3-0.7,0.6
			C86.6,51.3,86.9,51.6,87.2,51.6z"/>
	</g>
	<g>
		<g>
			<g>
				<path d="M92.8,42.7c3.7,0.2,7.3,2.8,8.7,6.3c0.6,1.7,0.7,3.7-0.2,5.4c-0.9,1.9-2.9,3.2-5,3.3c-0.3,0-0.3,0.4,0,0.4
					c4.4-0.2,6.9-4.7,5.7-8.7c-1.2-4-5.2-6.9-9.3-7.1C92.6,42.3,92.6,42.7,92.8,42.7L92.8,42.7z"/>
			</g>
		</g>
	</g>
	<g>
		<g>
			<g>
				<path d="M92.5,60.5c0.7-0.2,1.4,0.4,2.1,0.6c0.6,0.1,1.2,0,1.6-0.4c1-0.9,1.2-2.4,0.5-3.6c-0.3-0.5-1-0.1-0.7,0.4
					c0.6,1,0.2,3.2-1.4,2.7c-0.8-0.3-1.4-0.8-2.3-0.5C91.8,59.8,92,60.6,92.5,60.5L92.5,60.5z"/>
			</g>
		</g>
	</g>
	<g>
		<g>
			<path d="M96.4,57.2c-0.1,0.4-0.6,0.7-1,0.7c-0.5,0-0.9-0.1-1.3-0.3c-0.8-0.3-1.5-0.5-2.2-0.8c-0.7-0.2-1.4-0.5-2-1
				c-0.5-0.5-0.8-1.3-0.4-1.9c0.2-0.3,0.5-0.5,0.9-0.7c1.4-0.7,3.2-0.8,4.6,0.1c1.3,0.8,2,2.6,1.4,4"/>
		</g>
	</g>
	<g>
		<g>
			<g>
				<path d="M89.6,53.4c-1.7,0.6-3.6,2.3-2.8,4.4c0.9,2.4,4.2,2.1,6.2,2.5c0.4,0.1,0.6-0.5,0.2-0.6c-1.7-0.3-3.9-0.1-5.3-1.4
					c-1.7-1.7,0.3-3.7,1.9-4.2C90.1,53.9,90,53.3,89.6,53.4L89.6,53.4z"/>
			</g>
		</g>
	</g>
	<g>
		<g>
			<g>
				<path d="M89.3,59.8c-0.2,1.5-0.3,4,1.5,4.8c1.9,0.8,2-3.3,2-4.3c0-0.4-0.7-0.4-0.6,0c0,0.8,0,1.6-0.2,2.4
					c-0.1,0.2-0.2,0.8-0.3,1c-0.5,0.6-1-0.1-1.2-0.5c-0.6-1-0.5-2.3-0.3-3.4C90,59.4,89.4,59.4,89.3,59.8L89.3,59.8z"/>
			</g>
		</g>
	</g>
	<g>
		<g>
			<g>
				<path d="M91.4,64.8c2.2-0.2,3.6-2.2,2.7-4.3c-0.2-0.4-0.7-0.1-0.5,0.3c0.7,1.6-0.5,3.2-2.2,3.3C91,64.2,91,64.9,91.4,64.8
					L91.4,64.8z"/>
			</g>
		</g>
	</g>
	<g>
		<g>
			<g>
				<path class="st0" d="M54.2,78.5c1.3,1.2,2.4,2.7,2.9,4.3c0.4,1.4,0.1,3-1.7,3c-0.3,0-0.3,0.4,0,0.4c1.6,0,2.4-1.2,2.2-2.7
					c-0.2-2.1-1.7-4-3.1-5.4C54.3,78,54,78.4,54.2,78.5L54.2,78.5z"/>
			</g>
		</g>
	</g>
	<g>
		<g>
			<g>
				<path class="st0" d="M54.1,83.8c0.4,0.5,0.8,1.1,0.8,1.7c0.1,1.2-1.5,1.2-2.3,0.8c-1.6-0.8-2.5-3-3-4.6
					c-0.1-0.3-0.5-0.2-0.4,0.1c0.6,2,2.1,5.3,4.6,5.2c2.1-0.2,1.5-2.4,0.6-3.5C54.2,83.3,53.9,83.6,54.1,83.8L54.1,83.8z"/>
			</g>
		</g>
	</g>
	<g>
		<g>
			<g>
				<path class="st0" d="M90.8,111.8c-2.6-0.5-2.8,2.3-4.1,3.8c-0.2,0.2,0,0.4,0.2,0.4c2.4-0.3,7.2,3.5,8.4-0.4
					c0.8-2.6-3.6-3.5-5.3-3.8c-0.3-0.1-0.4,0.4-0.1,0.4c1.6,0.3,6.2,1.2,4.8,3.7c-0.9,1.6-2.6,1-4,0.5c-1.2-0.4-2.5-1-3.9-0.8
					c0.1,0.1,0.1,0.2,0.2,0.4c1.1-1.3,1.4-4.1,3.7-3.7C90.9,112.3,91,111.8,90.8,111.8L90.8,111.8z"/>
			</g>
		</g>
	</g>
	<g>
		<g>
			<g>
				<path class="st0" d="M94.8,116.1c0-1.4-1.3-2.2-2.6-2.4c-0.3-0.1-0.4,0.4-0.1,0.4c1,0.2,2.3,0.8,2.3,2
					C94.4,116.4,94.8,116.4,94.8,116.1L94.8,116.1z"/>
			</g>
		</g>
	</g>
	<g>
		<g>
			<g>
				<path class="st0" d="M62.1,117.7c-3.2-1.9-5.1,1.9-7.6,3.2c-0.2,0.1-0.1,0.4,0.1,0.4c1.9,0.4,3.3,1.8,4.7,3
					c1.2,0.9,2.5,2.1,4.1,2.1c1.4,0,3-1,3.4-2.4c0.4-1.3-0.5-2.7-1.4-3.6c-1.2-1.3-2.8-2.3-4.3-3.2c-0.2-0.1-0.5,0.2-0.2,0.4
					c2.3,1.3,8.5,5.6,3.9,8c-2,1-3.9-0.6-5.4-1.8c-1.4-1.1-2.9-2.5-4.7-2.9c0,0.1,0,0.3,0.1,0.4c2.3-1.2,4.2-5,7.1-3.2
					C62.1,118.1,62.3,117.8,62.1,117.7L62.1,117.7z"/>
			</g>
		</g>
	</g>
	<g>
		<g>
			<g>
				<path class="st0" d="M65.3,125.4c0.7-1.9-0.7-3.5-2.3-4.5c-0.2-0.1-0.5,0.2-0.2,0.4c1.4,0.8,2.7,2.2,2.1,4
					C64.8,125.6,65.2,125.7,65.3,125.4L65.3,125.4z"/>
			</g>
		</g>
	</g>
	<g>
		<g>
			<g>
				<path class="st0" d="M53.7,36.8c-3.4-2.4-9-3.8-11.9,0c-2.6,3.4-1.8,9,2.7,10.4c0.3,0.1,0.4-0.3,0.1-0.4c-4.4-1.3-5-6.9-2.2-10
					c2.9-3.3,8-1.7,11.1,0.4C53.7,37.3,53.9,37,53.7,36.8L53.7,36.8z"/>
			</g>
		</g>
	</g>
	<g>
		<path class="st0" d="M45.3,40.4c0.2-1,1.2-1.7,2.3-1.6s1.8,1.1,1.7,2.2c-0.2,1-1.2,1.7-2.3,1.6C45.8,42.4,45.1,41.4,45.3,40.4z"/>
	</g>
	<g>
		<path class="st0" d="M99.6,48.5c1.3,0.1,2.3,1.1,2.3,2.3c-0.1,1.2-1.1,2.2-2.4,2.2c-1.3-0.1-2.3-1.1-2.3-2.3
			C97.2,49.4,98.3,48.4,99.6,48.5z M98.5,52.1c0.4,0,0.7-0.3,0.7-0.6c0-0.4-0.3-0.6-0.6-0.7c-0.4,0-0.7,0.3-0.7,0.6
			C97.9,51.8,98.2,52.1,98.5,52.1z"/>
	</g>
	<g>
		<g>
			<g>
				<path d="M76.3,44.3c-2.7,2.4-2.1,6.3,0,8.9c2.5,3.1,6.7,4.2,10.5,3.2c0.3-0.1,0.2-0.5-0.1-0.4c-3.5,0.9-7.3,0-9.8-2.7
					c-2.2-2.4-2.9-6.3-0.3-8.7C76.9,44.4,76.6,44.1,76.3,44.3L76.3,44.3z"/>
			</g>
		</g>
	</g>
	<g>
		<g>
			<g>
				<path d="M92.1,53.6c2.6-2.8,1.4-7.1-1.4-9.4c-0.2-0.2-0.5,0.1-0.3,0.3c2.6,2.1,3.9,6.1,1.4,8.8C91.6,53.5,91.9,53.8,92.1,53.6
					L92.1,53.6z"/>
			</g>
		</g>
	</g>
	<g>
		<g>
			<g>
				<path class="st0" d="M98.4,76.1c1.8,0,3.5,0.5,5.1,1.3c1.4,0.8,3.2,2.4,1.4,3.8c-0.2,0.2,0.1,0.5,0.3,0.3
					c1.6-1.2,0.8-2.9-0.6-3.9c-1.7-1.3-4-1.9-6.2-1.9C98.1,75.7,98.1,76.1,98.4,76.1L98.4,76.1z"/>
			</g>
		</g>
	</g>
	<g>
		<g>
			<g>
				<path class="st0" d="M99.7,82.6c-0.3-0.2-0.6-0.3-1-0.5c-0.2-0.1-0.5,0.2-0.2,0.4c0.3,0.2,0.6,0.3,1,0.5
					C99.7,83.1,100,82.7,99.7,82.6L99.7,82.6z"/>
			</g>
		</g>
	</g>
	<g>
		<g>
			<g>
				<path class="st0" d="M102.4,80.4c0.7,0.2,1.3,0.4,1.8,1c0.2,0.2,0.5-0.1,0.3-0.3c-0.5-0.6-1.3-0.9-2-1.1
					C102.3,79.9,102.2,80.4,102.4,80.4L102.4,80.4z"/>
			</g>
		</g>
	</g>
	<g>
		<g>
			<g>
				<path class="st0" d="M68.5,29.8c-3.6-0.9-7.4,1-8.5,4.6c-0.1,0.3,0.3,0.4,0.4,0.1c1-3.3,4.6-5.1,8-4.3
					C68.6,30.3,68.8,29.9,68.5,29.8L68.5,29.8z"/>
			</g>
		</g>
	</g>
	<g>
		<g>
			<g>
				<path d="M68.3,80.5c5.5,1.9,11.4,4.2,17.4,2.8c5.2-1.2,8.4-5.9,11.8-9.7c0.3-0.3-0.2-0.8-0.5-0.5c-3.3,3.7-6.4,8.3-11.5,9.5
					c-5.8,1.4-11.6-0.9-17-2.8C68.1,79.8,67.9,80.4,68.3,80.5L68.3,80.5z"/>
			</g>
		</g>
	</g>
	<g>
		<g>
			<g>
				<path d="M43.5,71.3c3.6,2.8,7.9,4.1,12.2,5.4c0.4,0.1,0.6-0.5,0.2-0.6c-4.2-1.3-8.5-2.5-11.9-5.2C43.7,70.6,43.2,71,43.5,71.3
					L43.5,71.3z"/>
			</g>
		</g>
	</g>
	<g>
		<g>
			<g>
				<path d="M89.4,44.5c1.7-1,3.6-1.2,5.6-1.1c2.1,0.1,4,0.8,6,1.1c1.2,0.2,1.5-0.7,1-1.7c-0.6-1.3-2-2.2-3.2-3
					c-5.7-3.4-12.5-4.4-19.1-4.4c-3.8,0-7.6,0.4-11.3,0.9c-0.4,0.1-0.2,0.7,0.2,0.6c6.1-0.9,12.4-1.3,18.6-0.5c3,0.4,6,1.2,8.7,2.5
					c1.4,0.6,2.7,1.3,3.9,2.3c0.6,0.5,1.2,1,1.5,1.7c0.2,0.3,0.3,0.4,0,0.7c-0.3,0.3-0.2,0.1-0.5,0.1c-0.5,0-1.1-0.2-1.6-0.4
					c-3.4-0.8-7.1-1.3-10.2,0.4C88.7,44.1,89,44.7,89.4,44.5L89.4,44.5z"/>
			</g>
		</g>
	</g>
	<g>
		<g>
			<g>
				<path d="M68.8,36.5c-1,0.3-2.1,0.8-2.4,1.9c-0.2,1,0.6,1.6,1.5,1.9c0.4,0.1,0.5-0.5,0.2-0.6c-0.7-0.3-1.3-0.8-0.8-1.5
					c0.4-0.6,1.1-0.8,1.8-1C69.4,37,69.2,36.3,68.8,36.5L68.8,36.5z"/>
			</g>
		</g>
	</g>
	<g>
		<g>
			<g>
				<path d="M66.8,38.6c-0.5-1.3-0.9-2.6-1.3-3.9c-0.3-1.3-0.8-3.2,0.8-3.7c1.2-0.4,2.6-0.5,3.8-0.7s2.5-0.3,3.7-0.3
					c2.5-0.1,5,0.3,7.2,1.5c2.4,1.3,3.9,3.5,5.9,5.1c0.3,0.3,0.8-0.2,0.5-0.5c-2.3-1.8-4-4.3-6.8-5.6c-2.5-1.1-5.3-1.3-7.9-1.2
					c-1.5,0.1-2.9,0.3-4.3,0.5c-1,0.2-2.5,0.2-3.3,1.1c-0.8,0.8-0.5,2.2-0.4,3.2c0.3,1.6,0.8,3.2,1.4,4.7C66.4,39.2,67,39,66.8,38.6
					L66.8,38.6z"/>
			</g>
		</g>
	</g>
	<g>
		<g>
			<g>
				<path d="M68.4,37c-1-2,0-4.6,2.3-5.1c2.6-0.6,4.3,1.6,4.6,3.9c0.1,0.4,0.7,0.2,0.6-0.2c-0.4-2.8-2.6-5.2-5.6-4.3
					c-2.5,0.7-3.6,3.7-2.4,6C68,37.7,68.6,37.4,68.4,37L68.4,37z"/>
			</g>
		</g>
	</g>
	<g>
		<g>
			<g>
				<path d="M77.3,35.6C77.3,35.6,77.3,35.7,77.3,35.6c0.1,0,0.2-0.1,0.3-0.2c-0.4,0-0.4-1.9-0.4-2.2c0.2-1.2,1.3-1.5,2.3-1.2
					c1.6,0.4,2.7,1.9,3,3.5c0.1,0.4,0.7,0.2,0.6-0.2c-0.3-2.2-2.6-4.7-5-4c-1.1,0.3-1.6,1.2-1.6,2.3c0,0.7,0.1,2.4,1.1,2.4
					c0.1,0,0.3-0.1,0.3-0.2c0,0,0-0.1,0-0.1C78.1,35.4,77.4,35.2,77.3,35.6L77.3,35.6z"/>
			</g>
		</g>
	</g>
	<g>
		<g>
			<g>
				<path d="M65.2,30.9c-2,1.6-3.9,3.3-5.7,5.1c-0.9,0.9-1.8,1.9-2.6,2.8c-0.5,0.6-1.2,1.3-1.2,2.2c0,2.2,2.8,1.3,4,1
					c1.3-0.3,2.5-0.6,3.8-1c1.5-0.4,3-0.9,4.6-0.6c0.4,0.1,0.6-0.5,0.2-0.6c-2.1-0.3-4.1,0.4-6.1,0.9c-1,0.3-2.1,0.5-3.1,0.8
					c-0.5,0.1-1.2,0.4-1.7,0.4c-0.9,0-1.1-0.9-0.8-1.6c0.5-0.9,1.3-1.7,2-2.4c0.7-0.8,1.4-1.5,2.2-2.2c1.6-1.5,3.2-3,4.9-4.3
					C65.9,31.1,65.5,30.6,65.2,30.9L65.2,30.9z"/>
			</g>
		</g>
	</g>
	<g>
		<g>
			<g>
				<path d="M54.6,72.8c-0.5,0.9-1,1.7-1.6,2.5c-0.3,0.3,0.3,0.6,0.5,0.3c0.6-0.8,1.1-1.6,1.6-2.5C55.4,72.7,54.8,72.4,54.6,72.8
					L54.6,72.8z"/>
			</g>
		</g>
	</g>
	<g>
		<g>
			<g>
				<path d="M57.4,41.9c-0.8,6,0,12.1-0.1,18.1c0,0.4,0.6,0.4,0.6,0c0.1-6-0.7-12,0.1-18C58,41.7,57.4,41.5,57.4,41.9L57.4,41.9z"/>
			</g>
		</g>
	</g>
	<g>
		<g>
			<g>
				<path d="M67.6,40.3c1,6.4,2,13.3,6,18.6c2.1,2.8,4.9,4.9,8,6.5c3,1.6,6.5,2.6,9.9,1.8c3.1-0.7,5.8-2.8,6.7-5.8
					c0.1-0.4-0.5-0.6-0.6-0.2c-0.9,2.8-3.4,4.7-6.2,5.3c-3.3,0.8-6.8-0.3-9.8-1.9C78.7,63,76,61,74,58.2c-1.8-2.4-2.9-5.2-3.7-8.1
					c-0.9-3.3-1.5-6.6-2-10C68.2,39.7,67.5,39.9,67.6,40.3L67.6,40.3z"/>
			</g>
		</g>
	</g>
	<g>
		<g>
			<g>
				<path d="M97.6,73.6c0.1-0.1,0.2-0.2,0.3-0.3c0.2-0.2,0.2-0.4,0-0.6c-0.2-0.2-0.4-0.2-0.6,0c-0.1,0.1-0.2,0.2-0.3,0.3
					c-0.2,0.2-0.2,0.4,0,0.6S97.5,73.8,97.6,73.6L97.6,73.6z"/>
			</g>
		</g>
	</g>
	<g>
		<g>
			<g>
				<path d="M104.1,108.3c-0.8,1.8-1.7,3.8-3.1,5.2c-0.8,0.8-1.8,1.3-2.8,0.8c-1-0.5-1.7-1.5-2.2-2.4c-1.2-2.2-2.1-4.9-2.9-7.3
					c-1-3.2-1.7-6.5-2.1-9.8c-0.2-1.6-0.3-3.3-0.3-4.9c0-0.8,0-1.6,0-2.4c0-1.1,0.3-1.9,1.5-2.1c3.3-0.7,6.5-1.3,9.7-2.4
					c1.2-0.4,2.4-0.9,3.4-1.6c0.5-0.4,0.8-0.8,1.1-1.3c0.4-0.6,1-1.5,1.8-0.8c0.7,0.6,0.9,1.8,1.1,2.7c0.3,1.7,0.5,3.4,0.5,5.1
					C109.8,94.4,107.1,101.6,104.1,108.3c-0.2,0.4,0.4,0.7,0.5,0.3c3-6.6,5.7-13.6,5.8-21c0-1.7-0.1-3.4-0.4-5.1
					c-0.2-1.1-0.4-2.4-1.1-3.3c-0.5-0.7-1.3-1.1-2.1-0.6c-0.5,0.3-0.7,0.8-1,1.2c-0.5,0.8-1.2,1.3-2,1.7c-1.7,0.9-3.6,1.4-5.3,1.9
					c-1.9,0.5-3.8,1-5.7,1.3c-1.4,0.2-2.4,0.6-2.6,2.2c-0.2,1.8-0.1,3.8,0,5.6c0.2,3.7,0.9,7.3,1.9,10.8c0.8,2.8,1.8,5.8,3.1,8.5
					c1,1.9,2.9,4.4,5.3,3c2.1-1.2,3.2-4,4.2-6.1C104.8,108.2,104.2,107.9,104.1,108.3z"/>
			</g>
		</g>
	</g>
	<g>
		<g>
			<g>
				<path d="M56.4,80.4c2.5-0.9,5-1.9,7.5-2.6c1.2-0.3,2.5-0.6,3.7-0.8c1.2-0.2,2.7-0.5,3.9-0.2c0.5,0.1,0.7,0.2,0.7,0.8
					c0,0.6-0.3,0.5-0.8,0.7c-0.7,0.3-1.3,0.5-2,0.8c-1.2,0.4-2.5,0.9-3.7,1.3c-2.6,0.9-5.2,1.7-7.9,2.4c-0.4,0.1-0.2,0.7,0.2,0.6
					c3.3-0.9,6.5-1.9,9.7-3c1.5-0.5,3.1-1,4.5-1.7c0.8-0.4,1.1-1.1,0.5-1.8c-0.7-0.8-1.9-0.8-2.8-0.8c-1.5,0.1-3,0.3-4.5,0.6
					c-3.2,0.7-6.3,1.9-9.4,3C55.8,80,56,80.6,56.4,80.4L56.4,80.4z"/>
			</g>
		</g>
	</g>
	<g>
		<g>
			<g>
				<path d="M73.7,123.6c0-11.4-1.3-22.8-3.8-34c-0.7-3.2-1.5-6.3-2.4-9.4c-0.1-0.4-0.7-0.2-0.6,0.2c3.1,11,5.1,22.2,5.9,33.6
					c0.2,3.2,0.3,6.4,0.3,9.6C73,124,73.7,124,73.7,123.6L73.7,123.6z"/>
			</g>
		</g>
	</g>
	<g>
		<g>
			<g>
				<path d="M61,78.3c-0.7-2.4-1.3-4.9-1.8-7.4c-0.2-1.2-0.4-2.4-0.6-3.7c-0.1-0.7-0.2-1.5-0.3-2.2c-0.1-0.5-0.3-1.5,0-1.9
					c-0.1,0.1-0.2,0.1-0.4,0.2c0.7,0.1,0.9,1.1,1,1.6c0.2,0.6,0.3,1.2,0.5,1.7c0.3,1.2,0.6,2.4,0.9,3.7c0.6,2.4,1,4.9,1.4,7.4
					c0.1,0.4,0.7,0.2,0.6-0.2c-0.5-2.9-1-5.8-1.7-8.7c-0.3-1.4-0.7-2.8-1.1-4.1c-0.2-0.8-0.5-1.9-1.5-2.1c-0.2,0-0.3,0-0.4,0.2
					c-0.3,0.4-0.2,0.8-0.2,1.3c0.1,0.6,0.1,1.3,0.2,1.9c0.2,1.4,0.4,2.7,0.6,4.1c0.5,2.8,1.2,5.6,2,8.4C60.5,78.8,61.1,78.7,61,78.3
					L61,78.3z"/>
			</g>
		</g>
	</g>
	<g>
		<g>
			<g>
				<path d="M57.6,62.5c-1.2-0.2-1.4-2,0-2.2c1.3-0.1,1.5,1.6,0.4,2.1c-0.4,0.2-0.1,0.7,0.3,0.5c0.8-0.3,1.2-1.3,1-2.1
					c-0.2-0.8-1-1.3-1.8-1.2c-0.8,0.1-1.5,0.7-1.5,1.6c0,0.9,0.6,1.7,1.5,1.8C57.8,63.2,58,62.6,57.6,62.5L57.6,62.5z"/>
			</g>
		</g>
	</g>
	<g>
		<g>
			<g>
				<path d="M57.4,35.3c0.2-0.7,0.3-1.4,0.4-2.2c0.1-0.2,0.2-2,0.4-2.2c0.6-0.3,1.7,3,1.8,3.4c0.1,0.4,0.8,0.2,0.6-0.2
					c-0.3-1-0.7-1.9-1.2-2.8c-0.2-0.5-0.6-1.4-1.2-1.3c-0.7,0-0.7,0.9-0.8,1.4c-0.2,1.2-0.5,2.4-0.7,3.6
					C56.7,35.5,57.3,35.7,57.4,35.3L57.4,35.3z"/>
			</g>
		</g>
	</g>
	<g>
		<g>
			<g>
				<path d="M58.6,29.6c-1-2.3-2.1-4.6-3.3-6.8c-1.1-2-2.1-4.1-3.6-5.8c-2.9-3.3-7.8-2.8-11.7-1.7c-3.9,1.1-7.7,3.2-10.1,6.7
					c-1.1,1.6-1.9,3.5-2.1,5.5c-0.3,1.8-0.2,4,0.8,5.6c0.8,1.3,2.7,2.5,3.9,1c1.5-1.8-0.2-3.8-1.5-5.1c-0.1,0.2-0.1,0.4-0.1,0.5
					c0.9-0.3,1.9,2,2.8,0.6c0.4-0.6,0.2-1.5,0-2.1c-0.2-1.1-0.8-2.2-0.2-3.2c0.2-0.4-0.3-0.7-0.5-0.3c-0.8,1.5,0.1,2.9,0.3,4.4
					c0.1,0.5-0.1,1.2-0.7,0.8c-0.2-0.1-0.4-0.3-0.6-0.5c-0.4-0.3-0.8-0.5-1.3-0.3c-0.2,0.1-0.3,0.4-0.1,0.5c0.7,0.7,1.4,1.4,1.7,2.3
					s0,2.4-1.2,2.4c-2,0.1-2.6-2.9-2.7-4.3c-0.3-3.5,1.3-7,3.8-9.4c2.5-2.5,5.9-4,9.4-4.7c1.8-0.4,3.8-0.7,5.7-0.3
					c2.1,0.4,3.6,1.5,4.8,3.2c2.5,3.5,4.4,7.6,6.1,11.6C58.2,30.3,58.7,30,58.6,29.6L58.6,29.6z"/>
			</g>
		</g>
	</g>
	<g>
		<g>
			<g>
				<path d="M35.3,26.3c0.6-1.2,0.9-2.4,1-3.8c-0.2,0-0.4,0.1-0.6,0.1c0.2,1.1,0.7,2.1,1.5,2.8c0.1,0.1,0.3,0.1,0.5,0
					c0.7-0.7,1.2-1.5,1.4-2.4c-0.2,0-0.4,0.1-0.6,0.1c0.3,0.6,1,0.7,1.5,0.4c0.8-0.5,0.6-1.6,0.4-2.3c-0.1,0.1-0.3,0.3-0.4,0.4
					c0.9,0.2,1.9,0.6,2.9,0.7c0.5,0,0.9-0.1,1-0.6c0.1-0.3,0-0.5,0-0.8c0-0.7,0.5-1.2,1.1-1.4c1.1-0.2,1.8,0.5,2.6,0.9
					c0.5,0.2,0.9,0.2,1.3-0.1c0.3-0.3,0.4-0.5,0.7-0.1c0.1,0.2,0.2,0.4,0.3,0.6c0.5,0.5,1.3,0.4,1.9,0.6c1,0.3,1.8,0.9,2.4,1.7
					c0.3,0.3,0.7-0.1,0.5-0.5c-0.5-0.7-1.2-1.2-2-1.6c-0.7-0.3-2-0.3-2.5-0.9c-0.2-0.3-0.3-0.9-0.8-1c-0.8-0.1-0.9,0.9-1.6,0.7
					c-0.4-0.1-0.8-0.5-1.1-0.6c-0.3-0.1-0.6-0.2-0.9-0.3c-0.7-0.1-1.4,0-1.9,0.4c-0.5,0.4-0.7,1-0.7,1.6c0,0.4,0.2,0.6-0.5,0.7
					c-0.2,0-0.6-0.2-0.8-0.2c-0.6-0.2-1.2-0.3-1.8-0.4c-0.2-0.1-0.5,0.2-0.4,0.4c0.1,0.3,0.2,0.6,0.2,0.9c0.1,0.2,0,0.4-0.2,0.5
					c-0.2,0.3-0.4,0.3-0.6,0c-0.1-0.3-0.5-0.2-0.6,0.1c-0.2,0.9-0.6,1.6-1.2,2.2c0.2,0,0.3,0,0.5,0c-0.7-0.7-1.1-1.6-1.3-2.6
					c-0.1-0.4-0.6-0.3-0.6,0.1c-0.1,1.2-0.4,2.4-0.9,3.4C34.5,26.4,35.1,26.7,35.3,26.3L35.3,26.3z"/>
			</g>
		</g>
	</g>
	<g>
		<g>
			<g>
				<path d="M27.7,26.3c0-2.4,0.2-4.9,1.6-6.9c1.3-1.9,3.5-3,5.6-4c2.3-1.1,4.7-2.3,7.2-2.4c2.4-0.1,4.8,0.8,6.5,2.5
					c0.3,0.3,0.8-0.2,0.5-0.5c-1.8-1.7-4.2-2.8-6.7-2.7c-2.7,0.1-5.2,1.3-7.6,2.4c-2.2,1-4.4,2.2-5.9,4.2c-1.6,2.1-1.8,4.8-1.8,7.4
					C27,26.7,27.7,26.7,27.7,26.3L27.7,26.3z"/>
			</g>
		</g>
	</g>
	<g>
		<g>
			<g>
				<path d="M55.2,22.4c-0.2-1.4,0.3-2.7,1.4-3.5c0.4-0.3-0.2-0.9-0.6-0.6c-1.3,1-1.9,2.7-1.6,4.4C54.4,23.2,55.3,23,55.2,22.4
					L55.2,22.4z"/>
			</g>
		</g>
	</g>
	<g>
		<g>
			<g>
				<path d="M55.7,23.3c0.1-0.7,0.5-1.2,1-1.6c0.5-0.3,0-1-0.4-0.7c-0.8,0.5-1.3,1.2-1.4,2.1C54.7,23.7,55.6,23.9,55.7,23.3
					L55.7,23.3z"/>
			</g>
		</g>
	</g>
	<g>
		<g>
			<g>
				<path d="M56.5,24.6c0.2-0.2,0.5-0.3,0.7-0.5c0.2-0.1,0.3-0.4,0.2-0.6c-0.1-0.2-0.4-0.3-0.6-0.2c-0.2,0.2-0.5,0.3-0.7,0.5
					c-0.2,0.1-0.3,0.4-0.2,0.6C56,24.6,56.3,24.8,56.5,24.6L56.5,24.6z"/>
			</g>
		</g>
	</g>
	<g>
		<g>
			<g>
				<path d="M57.4,25.8c0.2-0.1,0.3-0.2,0.5-0.3c0.2-0.1,0.3-0.4,0.2-0.6c-0.1-0.2-0.4-0.3-0.6-0.2c-0.2,0.1-0.3,0.2-0.5,0.3
					c-0.2,0.1-0.3,0.4-0.2,0.6C56.9,25.8,57.2,25.9,57.4,25.8L57.4,25.8z"/>
			</g>
		</g>
	</g>
	<g>
		<g>
			<g>
				<path d="M57.9,26.2c0.3-0.1,0.6-0.1,0.9-0.2c0.2-0.1,0.4-0.3,0.3-0.5c-0.1-0.2-0.3-0.3-0.5-0.3c-0.3,0.1-0.6,0.1-0.9,0.2
					c-0.2,0.1-0.4,0.3-0.3,0.5S57.7,26.3,57.9,26.2L57.9,26.2z"/>
			</g>
		</g>
	</g>
	<g>
		<g>
			<g>
				<path d="M54.6,23.6c-1.1,0-2.1,0.5-2.8,1.4c-0.3,0.4,0.4,0.9,0.7,0.4c0.5-0.7,1.2-1,2-1C55.1,24.5,55.1,23.7,54.6,23.6
					L54.6,23.6z"/>
			</g>
		</g>
	</g>
	<g>
		<g>
			<g>
				<path d="M54.8,25.3c-0.3,0.3-0.4,0.7-0.5,1.1c0,0.2,0.2,0.4,0.4,0.4c0.2,0,0.4-0.2,0.4-0.4c0-0.2,0.1-0.4,0.2-0.5
					c0.2-0.2,0.2-0.4,0-0.6C55.2,25.2,55,25.2,54.8,25.3L54.8,25.3z"/>
			</g>
		</g>
	</g>
	<g>
		<g>
			<g>
				<path d="M55.6,26c-0.5,0.3-0.7,0.8-0.6,1.3c0,0.2,0.3,0.4,0.5,0.3c0.2-0.1,0.3-0.3,0.3-0.5c0,0.1,0-0.1,0-0.1c0,0,0.1-0.2,0-0.1
					c0-0.1,0.1-0.1,0.2-0.2C56.5,26.4,56.1,25.7,55.6,26L55.6,26z"/>
			</g>
		</g>
	</g>
	<g>
		<g>
			<g>
				<path d="M56.1,26.8c-0.2,0.1-0.3,0.3-0.3,0.5c0,0.2,0.1,0.4,0.3,0.5c0.1,0.1,0.2,0.1,0.3,0.1c0.1,0,0.2-0.1,0.3-0.2
					c0.1-0.2,0-0.4-0.2-0.6c0.1,0.1,0.1,0.1,0.1,0.2c0,0,0,0,0,0.1c0,0,0,0,0,0c0,0.1,0,0.1,0,0c0,0.1,0,0.1,0,0.1c0,0,0,0,0,0.1
					c-0.1,0.1-0.1,0.1,0,0c0.2-0.1,0.3-0.4,0.2-0.6C56.6,26.8,56.3,26.7,56.1,26.8L56.1,26.8z"/>
			</g>
		</g>
	</g>
	<g>
		<g>
			<g>
				<path d="M57.2,27.5c-0.1,0.2-0.2,0.3-0.3,0.5c-0.1,0.1,0,0.4,0.1,0.4c0.2,0.1,0.3,0,0.4-0.1c0.1-0.2,0.2-0.3,0.3-0.5
					c0.1-0.1,0-0.4-0.1-0.4C57.5,27.3,57.3,27.4,57.2,27.5L57.2,27.5z"/>
			</g>
		</g>
	</g>
	<g>
		<g>
			<g>
				<path d="M55.7,86.2c1.9,5.9,3.7,11.7,5.6,17.6c1.7,5.3,3.2,10.9,6.2,15.6c1.6,2.4,3.5,4.6,5.7,6.5c0.3,0.3,0.8-0.2,0.5-0.5
					c-4.2-3.5-7-8-9-13.1c-2-5.4-3.6-11.1-5.4-16.6c-1-3.2-2.1-6.5-3.1-9.7C56.2,85.6,55.6,85.8,55.7,86.2L55.7,86.2z"/>
			</g>
		</g>
	</g>
	<g>
		<g>
			<g>
				<path d="M48.9,82.6c-1,0.6-1.4,2-0.7,3c0.7,1,2.2,1.1,3.1,0.3c0.3-0.3-0.1-0.7-0.5-0.5c-0.6,0.5-1.7,0.5-2.2-0.3
					c-0.4-0.7-0.1-1.6,0.6-2C49.5,82.9,49.2,82.4,48.9,82.6L48.9,82.6z"/>
			</g>
		</g>
	</g>
	<g>
		<g>
			<g>
				<path d="M57.3,79.2c-1-2.8-1.9-5.7-2.5-8.6c-0.3-1.6-0.8-3.3-0.3-4.9c0.4-1.6,1.7-2,3.2-2.3c0.4-0.1,0.2-0.7-0.2-0.6
					c-1.2,0.2-2.5,0.6-3.2,1.6c-0.9,1.3-0.7,3.1-0.5,4.5c0.5,3.6,1.6,7.1,2.9,10.5C56.8,79.8,57.4,79.6,57.3,79.2L57.3,79.2z"/>
			</g>
		</g>
	</g>
	<g>
		<g>
			<g>
				<path d="M58.5,59.6c-1.8-0.9-4.2-0.7-5.6,0.8c-0.6,0.6-1,1.6-0.7,2.4c0.3,1,1.4,1.3,2.3,1.5c0.4,0.1,0.6-0.5,0.2-0.6
					c-0.8-0.2-1.9-0.4-1.9-1.4c0-0.8,0.6-1.5,1.3-1.9c1.2-0.8,2.9-0.9,4.2-0.2C58.5,60.4,58.9,59.8,58.5,59.6L58.5,59.6z"/>
			</g>
		</g>
	</g>
	<g>
		<g>
			<g>
				<path d="M37.2,90.3c2.6,2.7,6.1,4.3,9.7,5.2c2.1,0.5,4.3,0.9,6.4,1.1c1.9,0.2,3.9-0.1,5.8,0.5c0.4,0.1,0.6-0.5,0.2-0.6
					c-1.6-0.5-3.4-0.3-5-0.4c-2.2-0.1-4.4-0.5-6.5-1c-3.7-0.9-7.4-2.4-10-5.2C37.4,89.5,36.9,90,37.2,90.3L37.2,90.3z"/>
			</g>
		</g>
	</g>
	<g>
		<g>
			<g>
				<path d="M70.9,96.6c3.3,0.6,6.7,1.1,10,1.1c3.3,0.1,6.6-0.3,9.7-1.6c0.4-0.2,0.1-0.7-0.3-0.5c-3,1.3-6.4,1.6-9.6,1.5
					c-3.2-0.1-6.4-0.5-9.6-1.1C70.7,95.9,70.5,96.5,70.9,96.6L70.9,96.6z"/>
			</g>
		</g>
	</g>
	<g>
		<g>
			<g>
				<path d="M37.1,90.2c-2.5,1.1-3.2,3.8-3.7,6.3c-0.3,1.5-1.2,4.5,0.8,5.3c1.3,0.5,2.7,0.3,3.9,1c1.2,0.7,2.4,1.8,3.8,1.9
					c0.9,0.1,1.8-0.2,2.7-0.2c0.9-0.1,1.7,0.3,2.5,0.6c1.3,0.6,2.5,1.5,4,1.4c1.1,0,2.1-0.5,3.1-0.4c1.1,0.1,2.3,0.5,3.3,1
					c1.8,0.8,3.4,1.9,5.3,2.4c0.4,0.1,0.6-0.5,0.2-0.6c-3.1-0.8-5.6-3.2-8.9-3.5c-0.8-0.1-1.5,0.1-2.2,0.2c-1,0.2-1.9,0.1-2.8-0.3
					c-1.2-0.5-2.2-1.3-3.5-1.6c-1.7-0.4-3.2,0.6-4.8-0.2c-1.2-0.5-2.2-1.6-3.4-2c-1-0.3-2.5-0.1-3.4-0.8c-0.8-0.6-0.3-2.3-0.2-3.1
					c0.4-2.6,0.9-5.9,3.6-7.2C37.8,90.6,37.4,90,37.1,90.2L37.1,90.2z"/>
			</g>
		</g>
	</g>
	<g>
		<g>
			<g>
				<path d="M72.9,109.7c1.8,0.7,3.2-0.1,4.9-0.7c1-0.3,1.8,0.1,2.8,0.1c0.9,0,1.7-0.4,2.5-0.6c0.9-0.2,1.9-0.4,2.9-0.4
					c0.7,0,1.3,0,2-0.4c1.7-0.8,3.2-2.1,5.2-1.5c0.4,0.1,0.6-0.5,0.2-0.6c-1.5-0.4-2.9,0.1-4.2,0.8c-0.7,0.4-1.5,1-2.4,1.1
					c-0.9,0.1-1.8,0-2.7,0.2c-0.9,0.2-1.7,0.4-2.6,0.6c-1,0.3-1.7,0-2.7-0.1c-0.9-0.1-1.6,0.4-2.5,0.7c-1.1,0.4-2.1,0.5-3.2,0.1
					C72.7,108.9,72.5,109.5,72.9,109.7L72.9,109.7z"/>
			</g>
		</g>
	</g>
	<g>
		<g>
			<g>
				<path d="M49.5,82.2c0.5-1.3,1.5-2.6,2.7-3.1c0.7-0.3,1.5-0.4,2.2-0.8c0.4-0.3,0.8-0.7,0.5-1.2c-0.2-0.3-0.5-0.5-0.9-0.6
					c-0.3-0.1-1.7,0.1-1.7-0.1c-0.2-0.4-0.8-0.2-0.6,0.2c0.5,1.2,1.9-0.1,2.5,0.7c0.3,0.3,0,0.4-0.3,0.6c-0.4,0.2-0.8,0.3-1.1,0.4
					c-1.9,0.6-3.2,1.9-3.9,3.7C48.7,82.5,49.4,82.6,49.5,82.2L49.5,82.2z"/>
			</g>
		</g>
	</g>
	<g>
		<g>
			<g>
				<path d="M49.1,81.7c-0.8-0.5-0.5-1.7,0-2.3c0.3-0.3-0.2-0.8-0.5-0.5c-0.8,0.9-1,2.6,0.2,3.3C49.1,82.5,49.5,82,49.1,81.7
					L49.1,81.7z"/>
			</g>
		</g>
	</g>
	<g>
		<g>
			<g>
				<path d="M98.3,80.3c-0.1-1.8,0.9-3.3,2.5-4.1c0.4-0.2,0.1-0.7-0.3-0.5c-1.8,0.8-3,2.6-2.9,4.6C97.7,80.7,98.3,80.7,98.3,80.3
					L98.3,80.3z"/>
			</g>
		</g>
	</g>
	<g>
		<g>
			<g>
				<path d="M73.5,125.6c0-0.2,0-0.5,0-0.7c0-0.4-0.6-0.4-0.6,0c0,0.2,0,0.5,0,0.7C72.9,126,73.5,126,73.5,125.6L73.5,125.6z"/>
			</g>
		</g>
	</g>
	<g>
		<g>
			<g>
				<path d="M73.5,125.8c0-0.6,0-1.1,0-1.7c0-0.4-0.6-0.4-0.6,0c0,0.6,0,1.1,0,1.7C72.9,126.2,73.5,126.2,73.5,125.8L73.5,125.8z"/>
			</g>
		</g>
	</g>
	<g>
		<g>
			<g>
				<path d="M57.6,33.5c0.6-0.5,1.3-0.8,2.1-0.9c0.4-0.1,0.4-0.7,0-0.6c-1,0.1-1.8,0.5-2.5,1.1C56.9,33.3,57.3,33.7,57.6,33.5
					L57.6,33.5z"/>
			</g>
		</g>
	</g>
	<g>
		<g>
			<g>
				<path d="M27.4,26.8c0.2-0.3,0.3-0.6,0.6-0.9c-0.1,0-0.2,0.1-0.3,0.1c0.1,0,0.2,0.2,0.2,0.3c0,0.2,0.1,0.3,0.2,0.4
					c0.2,0,0.4-0.1,0.4-0.2c0.1-0.5-0.2-0.9-0.6-1c-0.1,0-0.2,0-0.3,0.1c-0.3,0.3-0.5,0.7-0.7,1.1c-0.1,0.2-0.1,0.3,0.1,0.4
					C27.1,27,27.3,27,27.4,26.8L27.4,26.8z"/>
			</g>
		</g>
	</g>
	<g>
		<g>
			<g>
				<path d="M33.4,24.7c0.6,0.1,1,0.8,0.8,1.3c-0.1,0.4,0.5,0.6,0.6,0.2c0.3-1-0.4-2-1.5-2.2C33,24,33,24.6,33.4,24.7L33.4,24.7z"/>
			</g>
		</g>
	</g>
	<g>
		<g>
			<g>
				<path d="M34.8,17.5c-0.9,0.6-1.5,1.6-1.5,2.7c0,0.4,0.6,0.4,0.6,0c0-0.9,0.4-1.7,1.2-2.1C35.4,17.8,35.1,17.2,34.8,17.5
					L34.8,17.5z"/>
			</g>
		</g>
	</g>
	<g>
		<g>
			<g>
				<path d="M38.8,16.1c-0.2,0.3-0.3,0.7-0.5,1c-0.2,0.4,0.4,0.7,0.5,0.3c0.2-0.3,0.3-0.7,0.5-1C39.5,16,38.9,15.7,38.8,16.1
					L38.8,16.1z"/>
			</g>
		</g>
	</g>
	<g>
		<g>
			<g>
				<path d="M36.4,16.3c-0.1-0.2-0.2-0.3-0.3-0.5c-0.1-0.1-0.3-0.2-0.4-0.1c-0.1,0.1-0.2,0.3-0.1,0.4c0.1,0.2,0.2,0.3,0.3,0.5
					c0.1,0.1,0.3,0.2,0.4,0.1C36.4,16.6,36.5,16.4,36.4,16.3L36.4,16.3z"/>
			</g>
		</g>
	</g>
	<g>
		<g>
			<g>
				<path d="M54.8,23.1c-0.8-0.4-2.3-1-2.6,0.4c0.1-0.1,0.2-0.1,0.3-0.2c-0.6-0.2-1.2-0.1-1.8,0.1c-0.8,0.2-1.6,0.5-2.4,0.7
					c-0.3,0.1-0.2,0.5,0.1,0.4c0.6-0.2,1.2-0.4,1.8-0.5c0.7-0.2,1.5-0.6,2.1-0.3c0.1,0,0.2-0.1,0.3-0.2c0.3-1,1.5-0.4,2-0.1
					C54.8,23.6,55,23.2,54.8,23.1L54.8,23.1z"/>
			</g>
		</g>
	</g>
	<g>
		<g>
			<g>
				<path d="M55.8,23.6c-0.1-0.5,0.1-0.9,0.5-1.2c-0.1,0-0.2-0.1-0.3-0.1c0.2,0.5,0.6,1,1.2,0.8c0.5-0.1,0.7-0.6,0.6-1.1
					c-0.1,0.1-0.2,0.2-0.3,0.2c0.2,0.1,0.4,0.2,0.6,0.3c0.1,0.1,0.2,0,0.3-0.1c0.2-0.3,0.3-0.9,0.7-0.7c0.1,0.1,0.2,0.3,0.3,0.4
					c0.2,0.1,0.3,0.2,0.5,0c0.2-0.1,0-0.5-0.2-0.4c0,0-0.6-0.6-0.8-0.6c-0.5,0-0.8,0.8-0.9,1.1c0.1,0,0.2-0.1,0.3-0.1
					c-0.2-0.1-0.4-0.2-0.6-0.3c-0.2-0.1-0.4,0.1-0.3,0.2c-0.3,0-0.7,0-1,0c-0.1-0.1-0.2-0.2-0.3-0.1c-0.5,0.4-0.8,0.9-0.7,1.5
					C55.5,23.8,55.9,23.8,55.8,23.6L55.8,23.6z"/>
			</g>
		</g>
	</g>
	<g>
		<g>
			<g>
				<path d="M55.8,25.1c-1.1-0.8-2.6,1-3.1,1.8c0.1,0,0.2,0,0.3-0.1c-0.2-0.2-0.5-0.2-0.7,0c-0.5,0.3-0.3,1.1-0.7,1.4
					c-0.2,0.1,0,0.5,0.2,0.4c0.2-0.1,0.3-0.2,0.4-0.4c0.1-0.1,0.3-1.3,0.6-1.1c0.1,0.1,0.3,0.1,0.3-0.1c0.4-0.6,1.7-2.2,2.5-1.6
					C55.8,25.6,56,25.2,55.8,25.1L55.8,25.1z"/>
			</g>
		</g>
	</g>
	<g>
		<g>
			<g>
				<path d="M53.3,22.5c0.3-2.1-2.8-1.6-4-1.3c-0.6,0.1-1.5,0.3-1.7,1c-0.2,0.5,0.1,1.1,0.6,1.1c0.1,0,0.3-0.1,0.3-0.2
					c-0.1-1.1-1.8-0.8-2.4-0.4c-0.8,0.5-1.1,1.7-0.2,2.2c0.2,0.1,0.5-0.2,0.2-0.4c-1-0.5,0-1.5,0.6-1.7c0.3-0.1,1.3-0.3,1.4,0.2
					c0.1-0.1,0.2-0.1,0.3-0.2c-0.3-0.7-0.1-1.1,0.4-1.2c0.2-0.1,0.3-0.1,0.5-0.1c0.4-0.1,0.8-0.2,1.2-0.2c0.7-0.1,2.6-0.3,2.4,1
					C52.9,22.6,53.3,22.8,53.3,22.5L53.3,22.5z"/>
			</g>
		</g>
	</g>
	<g>
		<g>
			<g>
				<path d="M54.7,21.7c-0.2-0.8-0.4-1.6-0.6-2.4c-0.1-0.3-0.3-0.8-0.3-1.1c-0.2-0.4,0-0.6,0.6-0.7c0.1,0.2,0.3,0.4,0.3,0.6
					c0.1-0.1,0.2-0.1,0.4-0.2c-0.3-0.3-0.5-0.7-0.6-1.1c-0.2-0.7,0.1-1.8,1.1-1.6c0.3,0.1,0.4-0.3,0.1-0.4c-0.7-0.2-1.4,0.2-1.7,0.9
					c-0.3,0.9,0.2,1.7,0.7,2.4c0.2,0.2,0.5,0,0.4-0.2c-0.3-0.6-1.3-1.6-1.8-0.6c-0.2,0.5,0.1,1.2,0.3,1.7c0.3,1,0.5,1.9,0.8,2.9
					C54.4,22,54.8,21.9,54.7,21.7L54.7,21.7z"/>
			</g>
		</g>
	</g>
	<g>
		<g>
			<g>
				<path d="M53.8,19.8c-0.8-1.3-1.4-2.8-1.6-4.3c-0.1-0.7,0-0.9-0.5-1.3c-0.5-0.5-1-1.1-1.5-1.6c-0.2-0.2-0.5,0.1-0.3,0.3
					c0.4,0.5,1,1,1.4,1.5c0.5,0.6,0.4,1.2,0.6,1.9c0.3,1.3,0.8,2.6,1.5,3.7C53.6,20.3,53.9,20.1,53.8,19.8L53.8,19.8z"/>
			</g>
		</g>
	</g>
	<g>
		<g>
			<g>
				<path d="M57.1,25.3c0.4-0.7,1.1-1.2,1.9-1.3c0.3-0.1,0.2-0.5-0.1-0.4c-0.9,0.2-1.7,0.7-2.1,1.5C56.6,25.4,56.9,25.6,57.1,25.3
					L57.1,25.3z"/>
			</g>
		</g>
	</g>
	<g>
		<g>
			<g>
				<path d="M58,30.1c-0.3-1.2-0.8-2.6-2-3.1c-1.3-0.5-2.6,0.2-3.5,1.1c-0.1,0.1-0.1,0.1-0.1,0.2c0.4,1.2,0.7,2.3,1.1,3.5
					c0.1,0.3,0.5,0.2,0.4-0.1c-0.3-0.8-0.5-1.7-0.8-2.5c-0.2-0.6-0.4-0.8,0.2-1.2c0.3-0.2,0.7-0.4,1.1-0.5c1.9-0.5,2.7,1.4,3.1,2.9
					C57.7,30.5,58.1,30.4,58,30.1L58,30.1z"/>
			</g>
		</g>
	</g>
	<g>
		<g>
			<g>
				<path d="M57.7,29c-0.3-0.9-1.1-1.7-2-1.3c-1.1,0.5-0.4,2.4-0.2,3.3c0.1,0.3,0.5,0.2,0.4-0.1c-0.1-0.7-0.5-1.7-0.3-2.3
					c0.1-0.4,0.6-0.6,1-0.4c0.4,0.2,0.6,0.6,0.7,1C57.3,29.4,57.7,29.3,57.7,29L57.7,29z"/>
			</g>
		</g>
	</g>
	<g>
		<g>
			<g>
				<path d="M58,28c0-0.4,0.1-1,0.3-1.4c0.3-0.4,0.6-0.4,1-0.2c0.7,0.2,1.4,0.4,2.1,0.7c0.3,0.1,0.4-0.3,0.1-0.4
					c-0.6-0.2-1.3-0.4-1.9-0.6c-0.3-0.1-0.8-0.3-1.1-0.2c-0.7,0.3-0.9,1.6-0.9,2.2C57.5,28.3,58,28.3,58,28L58,28z"/>
			</g>
		</g>
	</g>
	<g>
		<g>
			<g>
				<path d="M49.2,19.8c-0.5,0.1-1,0.4-1.3,0.8c-0.2,0.2,0.2,0.4,0.4,0.2c0.3-0.3,0.6-0.5,1.1-0.6C49.6,20.2,49.5,19.7,49.2,19.8
					L49.2,19.8z"/>
			</g>
		</g>
	</g>
	<g>
		<g>
			<g>
				<path d="M42.7,14.9c-1,0.8-1.7,1.7-2.3,2.8c-0.1,0.2,0.2,0.5,0.4,0.2c0.5-1.1,1.2-2,2.2-2.7C43.2,15,42.9,14.7,42.7,14.9
					L42.7,14.9z"/>
			</g>
		</g>
	</g>
	<g>
		<g>
			<g>
				<path d="M30.9,21.1c-0.7,1.7-0.7,3.6,0,5.3c0.1,0.3,0.5,0.1,0.4-0.1c-0.7-1.6-0.7-3.4,0-5C31.5,21,31.1,20.9,30.9,21.1
					L30.9,21.1z"/>
			</g>
		</g>
	</g>
	<g>
		<g>
			<g>
				<path d="M32,19.4c-0.3-0.2-0.7-0.4-1-0.7c-0.2-0.2-0.4,0.2-0.2,0.4c0.3,0.2,0.7,0.4,1,0.7C32,19.9,32.2,19.6,32,19.4L32,19.4z"
					/>
			</g>
		</g>
	</g>
	<g>
		<g>
			<g>
				<path d="M38.9,91.8c-0.6,1.2-1.2,2.4-1.7,3.6c-0.2,0.4,0.4,0.7,0.5,0.3c0.6-1.2,1.2-2.4,1.7-3.6C39.7,91.7,39.1,91.4,38.9,91.8
					L38.9,91.8z"/>
			</g>
		</g>
	</g>
	<g>
		<g>
			<g>
				<path d="M41.8,93.7c-0.3,0.7-0.5,1.4-0.8,2.1c-0.2,0.4,0.5,0.5,0.6,0.2c0.3-0.7,0.5-1.4,0.8-2.1C42.5,93.5,41.9,93.3,41.8,93.7
					L41.8,93.7z"/>
			</g>
		</g>
	</g>
	<g>
		<g>
			<g>
				<path d="M46.6,96.1c-0.3,1.1-0.7,2.3-1,3.4c-0.1,0.4,0.5,0.6,0.6,0.2c0.3-1.1,0.7-2.3,1-3.4C47.3,95.9,46.7,95.7,46.6,96.1
					L46.6,96.1z"/>
			</g>
		</g>
	</g>
	<g>
		<g>
			<g>
				<path d="M46.8,95.3c-0.1,0.5-0.2,1.1-0.5,1.5c-0.2,0.4,0.4,0.7,0.5,0.3c0.3-0.6,0.5-1.2,0.6-1.9C47.5,94.9,46.8,94.9,46.8,95.3
					L46.8,95.3z"/>
			</g>
		</g>
	</g>
	<g>
		<g>
			<g>
				<path d="M51,96.7c-0.1,1.1-0.2,2.2-0.4,3.2c-0.1,0.4,0.6,0.4,0.6,0c0.1-1.1,0.2-2.2,0.4-3.2C51.7,96.3,51.1,96.3,51,96.7
					L51,96.7z"/>
			</g>
		</g>
	</g>
	<g>
		<g>
			<g>
				<path d="M55.5,96.7c0,0.5,0,0.9,0,1.4c0,0.4,0.6,0.4,0.6,0c0-0.5,0-0.9,0-1.4C56.1,96.3,55.5,96.3,55.5,96.7L55.5,96.7z"/>
			</g>
		</g>
	</g>
	<g>
		<g>
			<g>
				<path d="M74.7,97.2c0.2,2.2,0.5,4.4,0.7,6.7c0.1,0.4,0.7,0.4,0.6,0c-0.2-2.2-0.5-4.4-0.7-6.7C75.3,96.8,74.7,96.8,74.7,97.2
					L74.7,97.2z"/>
			</g>
		</g>
	</g>
	<g>
		<g>
			<g>
				<path d="M80.5,97.8c0.3,0.7,0.4,1.5,0.2,2.3c-0.1,0.4,0.5,0.6,0.6,0.2c0.2-0.9,0.1-1.8-0.2-2.6C81,97.2,80.3,97.4,80.5,97.8
					L80.5,97.8z"/>
			</g>
		</g>
	</g>
	<g>
		<g>
			<g>
				<path d="M86.6,97.5c0.3,1.7,0.5,3.3,0.8,5c0.1,0.4,0.7,0.2,0.6-0.2c-0.3-1.7-0.5-3.3-0.8-5C87.2,96.9,86.5,97.1,86.6,97.5
					L86.6,97.5z"/>
			</g>
		</g>
	</g>
	<g>
		<g>
			<g>
				<path d="M88.3,68.1c-1.1,2.9-1.8,6-2,9.2c-0.1,0.9-0.2,2.2,0.7,2.8c0.6,0.4,1.6,0.2,1.8-0.5c0.1-0.4-0.5-0.6-0.6-0.2
					s-0.6,0.3-0.8,0.1C87.1,79.3,87,79,87,78.7c-0.1-0.5,0-1,0-1.5c0.1-1.1,0.2-2.1,0.4-3.2c0.3-2,0.9-3.9,1.6-5.8
					C89.1,67.9,88.5,67.7,88.3,68.1L88.3,68.1z"/>
			</g>
		</g>
	</g>
	<g>
		<g>
			<g>
				<path d="M90.7,78.1c1.8-2,3.6-4,5.5-6c0.3-0.3-0.2-0.8-0.5-0.5c-1.8,2-3.6,4-5.5,6C89.9,78,90.4,78.4,90.7,78.1L90.7,78.1z"/>
			</g>
		</g>
	</g>
	<g>
		<g>
			<g>
				<path d="M73.9,79.8c3.4,1.2,6.8,2.3,10.4,1.9c0.4,0,0.4-0.7,0-0.6c-3.6,0.4-6.9-0.7-10.3-1.9C73.7,79,73.5,79.6,73.9,79.8
					L73.9,79.8z"/>
			</g>
		</g>
	</g>
	<g>
		<g>
			<g>
				<path d="M45,70.2c2.1,1.5,4.5,2.7,6.9,3.4c0.4,0.1,0.6-0.5,0.2-0.6c-2.4-0.8-4.7-1.9-6.8-3.4C45,69.4,44.7,70,45,70.2L45,70.2z"
					/>
			</g>
		</g>
	</g>
	<g>
		<g>
			<g>
				<path d="M71.7,60.6c3.5,4.4,8.3,7.5,13.7,8.8c0.4,0.1,0.6-0.5,0.2-0.6c-5.3-1.3-10-4.4-13.4-8.6C71.9,59.8,71.5,60.3,71.7,60.6
					L71.7,60.6z"/>
			</g>
		</g>
	</g>
	<g>
		<g>
			<g>
				<path d="M90.2,69.4c2.4-0.4,4.7-1.3,6.7-2.7c0.3-0.2,0-0.8-0.3-0.5c-1.9,1.4-4.2,2.3-6.5,2.6C89.6,68.8,89.8,69.4,90.2,69.4
					L90.2,69.4z"/>
			</g>
		</g>
	</g>
	<g>
		<g>
			<g>
				<path d="M57.9,40.2c-0.2-0.3,0.2-0.7,0.5-0.4c0.3,0.4-0.2,0.7-0.6,0.5c-0.4-0.2-0.7,0.4-0.3,0.5c0.4,0.2,1,0.2,1.3-0.2
					c0.4-0.4,0.4-1,0-1.4c-0.3-0.4-0.9-0.5-1.3-0.1c-0.4,0.3-0.5,0.9-0.2,1.2C57.6,40.8,58.2,40.5,57.9,40.2L57.9,40.2z"/>
			</g>
		</g>
	</g>
	<g>
		<g>
			<g>
				<path d="M55.7,39.8c-3,3.8-5,8.4-5.8,13.2c-0.4,2.5-0.4,5-0.7,7.6c-0.1,1.4-0.3,2.8-0.8,4.1c-0.5,1.3-1.8,2.8-3.3,1.9
					c-0.4-0.2-0.7,0.3-0.3,0.5c2.1,1.2,3.8-1,4.4-2.8c0.9-2.8,0.8-5.7,1-8.6c0.5-5.7,2.6-11.1,6.1-15.6
					C56.5,39.8,55.9,39.5,55.7,39.8L55.7,39.8z"/>
			</g>
		</g>
	</g>
	<g>
		<g>
			<g>
				<path d="M68.3,33.4c-0.1,0.5-0.2,1.1-0.2,1.6c-0.1,0.3,0.4,0.6,0.6,0.2c0.3-0.8,0.5-1.5,0.5-2.3c0-0.4-0.5-0.4-0.6-0.1
					c-0.3,0.8-0.5,1.6-0.6,2.4c0,0.3,0.4,0.4,0.5,0.2c0.4-0.4,0.6-0.8,0.6-1.3c0-0.3-0.4-0.4-0.6-0.2c-0.3,0.4-0.5,0.9-0.5,1.4
					c0,0.3,0.4,0.4,0.5,0.2c0.4-0.4,0.5-0.8,0.4-1.4c-0.1-0.3-0.4-0.3-0.6-0.1c-0.3,0.6-0.4,1.1-0.3,1.8c0.1,0.2,0.3,0.3,0.5,0.2
					c0.5-0.3,0.8-0.8,0.8-1.5c0-0.3-0.4-0.4-0.6-0.2c-0.3,0.5-0.4,1-0.3,1.6c0.1,0.3,0.4,0.3,0.6,0.1c0.4-0.5,0.6-1,0.7-1.6
					c0.1-0.3-0.3-0.6-0.5-0.3c-0.4,0.5-0.7,1-0.9,1.5c-0.1,0.3,0.4,0.6,0.6,0.2c0.1-0.3,0.2-0.6-0.1-0.8c-0.1-0.1-0.3-0.1-0.5,0
					c-0.3,0.3-0.3,0.5-0.2,0.8c0.1,0.3,0.5,0.3,0.6,0c0.1-0.2,0.2-0.4,0.2-0.7c0.1-0.3-0.4-0.6-0.6-0.2c-0.2,0.3-0.2,0.6,0.1,0.9
					c0.1,0.2,0.3,0.2,0.5,0.1c0.2-0.2,0.2-0.3,0.3-0.5c0.1-0.2-0.2-0.5-0.4-0.4c-0.4,0.1-0.6,0.4-0.6,0.9c0,0.2,0.3,0.4,0.5,0.3
					c0.5-0.3,0.8-0.7,1.1-1.2c-0.2-0.1-0.4-0.1-0.6-0.2c0,0.3-0.1,0.5-0.1,0.8c0,0.2,0.3,0.4,0.5,0.3c0.6-0.4,0.9-1.1,0.7-1.8
					c-0.1-0.3-0.4-0.3-0.5-0.1c-0.4,0.3-0.5,0.7-0.5,1.2c0,0.3,0.3,0.4,0.5,0.2c0.6-0.5,0.9-1.2,0.9-2c0-0.3-0.3-0.4-0.5-0.3
					c-0.5,0.3-0.9,0.6-1.1,1.1c-0.2,0.3,0.2,0.6,0.5,0.4c0.4-0.4,0.6-0.8,0.8-1.3c0.1-0.3-0.3-0.5-0.5-0.3c-0.3,0.3-0.5,0.6-0.6,1
					c-0.1,0.4,0.4,0.5,0.6,0.2c0.4-0.5,0.6-1.1,0.7-1.8c0.1-0.3-0.3-0.6-0.5-0.3c-0.3,0.4-0.5,0.8-0.6,1.2c0.2,0,0.4,0,0.6,0
					c-0.1-0.1-0.1-0.3-0.1-0.4c-0.1-0.4-0.7-0.2-0.6,0.2c-0.1,0.1-0.1,0.3-0.2,0.4c0.1,0.1,0.3,0.2,0.4,0.3
					c-0.1-0.6,0.3-0.9,1.2-0.9c0.7-0.6,1.1-0.5,1.3,0.1c0.1-0.1,0.1-0.2,0.2-0.4c0,0,0,0-0.1-0.1c0.1-0.1,0.2-0.2,0.2-0.3
					c-0.1,0.1-0.1,0.3,0.1,0.4c0.1-0.2,0.1-0.3,0.2-0.5c-0.5,0.1-1-0.2-1.1-0.7c-0.1,0.1-0.2,0.3-0.3,0.4c0.7,0,1.3,0.2,1.9,0.7
					c0.1-0.2,0.2-0.4,0.3-0.5c-0.4-0.1-0.7-0.2-1.1-0.3c-0.1,0.2-0.1,0.4-0.2,0.6c0.6,0.2,1,0.4,1.4,0.9c0.3,0.3,0.7-0.1,0.5-0.4
					c-0.3-0.4-0.5-0.8-0.9-1.1c-0.3-0.3-0.7,0.2-0.5,0.5c0.5,0.5,1,1.1,1.5,1.6c0.2,0.3,0.7-0.1,0.5-0.4c-0.2-0.3-0.4-0.7-0.7-1
					c-0.2-0.3-0.7-0.1-0.5,0.3c0.3,0.5,0.5,1.1,0.8,1.6c0.2-0.1,0.3-0.3,0.5-0.4c-0.4-0.3-0.6-0.7-0.7-1.3c-0.2,0.1-0.4,0.1-0.6,0.2
					c0.3,0.4,0.5,0.8,0.8,1.2c0.2-0.1,0.4-0.2,0.5-0.3c-0.3-0.4-0.7-0.9-1-1.3c-0.2-0.2-0.5-0.2-0.6,0.1c-0.1,0.6-0.1,1.2,0.1,1.7
					c0.1,0.4,0.7,0.2,0.6-0.2c-0.1-0.4-0.2-0.8-0.5-1.1c-0.1-0.2-0.4-0.2-0.5,0c-0.2,0.4-0.4,0.8-0.6,1.2c0.2,0.1,0.4,0.1,0.6,0.2
					c0-0.3,0-0.6,0-0.9c0-0.2-0.3-0.4-0.5-0.3c-0.4,0.3-0.8,0.6-1.2,1c0.2,0.1,0.3,0.3,0.5,0.4c0.2-0.4,0.4-0.8,0.8-1.1
					c-0.2-0.2-0.3-0.3-0.5-0.5c-0.5,0.5-1.1,1-1.6,1.4c0.2,0.2,0.3,0.3,0.5,0.5c0.4-0.5,0.8-1,1.1-1.5c0.2-0.3-0.2-0.6-0.5-0.4
					c-0.7,0.6-1.2,1.2-1.7,2c0.2,0.1,0.4,0.2,0.5,0.3c0.2-0.4,0.5-0.8,0.7-1.2c0.2-0.4-0.3-0.7-0.5-0.3c-0.4,0.5-0.7,1.1-1.1,1.6
					c-0.2,0.3,0.2,0.6,0.5,0.4c0.4-0.4,0.9-0.6,1.5-0.7c-0.1-0.2-0.2-0.4-0.3-0.5c-0.4,0.5-0.9,0.8-1.6,0.9
					c-0.4,0.1-0.3,0.6,0.1,0.6c1,0.1,1.9,0,2.9-0.1c0.3-0.1,0.3-0.5,0-0.6c-0.8-0.2-1.6-0.3-2.5-0.2c-0.3,0-0.4,0.4-0.2,0.6
					c0.9,0.5,1.9,0.5,2.8-0.1c0.3-0.2,0.2-0.6-0.2-0.6c-1.1,0-2.1,0.2-3.1,0.6c-0.3,0.2-0.1,0.7,0.2,0.6c0.6-0.2,1.2-0.3,1.8-0.4
					c0-0.2-0.1-0.4-0.1-0.6c-0.5,0.1-1,0.3-1.5,0.4c0.1,0.2,0.1,0.4,0.2,0.6c1-0.3,1.8-0.9,2.5-1.6c0.2-0.2,0.1-0.5-0.1-0.5
					c-0.5-0.1-0.9,0-1.2,0.4c0.2,0.1,0.3,0.3,0.5,0.4c0.3-0.4,0.5-0.9,0.7-1.4c0.2-0.4-0.4-0.5-0.6-0.2c-0.3,0.5-0.5,1-0.4,1.5
					c0,0.2,0.3,0.4,0.5,0.3c0.8-0.6,1.2-1.4,1.2-2.4c0-0.3-0.4-0.4-0.6-0.2c-0.4,0.7-0.6,1.5-0.7,2.3c0,0.3,0.3,0.4,0.5,0.3
					c0.7-0.4,1.1-1,1.1-1.8c0-0.3-0.4-0.4-0.5-0.2c-0.4,0.5-0.6,1-0.6,1.6c0,0.2,0.3,0.4,0.5,0.3c0.6-0.4,0.9-0.9,1-1.6
					c0-0.3-0.4-0.4-0.5-0.2c-0.5,0.5-0.8,1.1-0.8,1.8c0,0.2,0.3,0.4,0.5,0.3c0.5-0.3,0.9-0.7,1.1-1.2c0.1-0.3-0.3-0.7-0.5-0.4
					c-0.4,0.5-0.6,0.9-0.8,1.5c-0.1,0.3,0.3,0.5,0.5,0.3c0.5-0.4,0.8-0.9,0.9-1.6c0.1-0.4-0.4-0.5-0.6-0.2c-0.4,0.5-0.7,1.1-0.8,1.7
					c-0.1,0.3,0.2,0.5,0.5,0.4c0.6-0.4,0.9-0.9,1.1-1.6c0.1-0.3-0.3-0.6-0.5-0.3c-0.4,0.5-0.7,1-0.8,1.6c-0.1,0.3,0.3,0.6,0.5,0.3
					c0.4-0.4,0.6-0.9,0.9-1.4c0.1-0.3-0.3-0.5-0.5-0.3c-0.4,0.4-0.8,0.8-1.2,1.2c-0.2,0.2-0.1,0.4,0.1,0.5c0.4,0.3,0.7,0.3,1.1,0
					c0.3-0.2,0.2-0.6-0.2-0.6c-0.5,0-0.8,0.1-1.2,0.3c-0.3,0.2-0.1,0.6,0.2,0.6c0.7-0.1,1.4-0.3,2.1-0.4c0.3-0.1,0.3-0.5,0.1-0.6
					c-0.3-0.2-0.5-0.4-0.6-0.7c-0.2,0.1-0.4,0.2-0.5,0.3c0.2,0.2,0.5,0.5,0.7,0.7c0.1,0.1,0.4,0.1,0.5-0.1c0.2-0.4,0.2-0.8,0-1.1
					C74.4,34,74,34.1,74,34.4c0,0.3,0.1,0.6,0.3,0.8c0.1,0.2,0.3,0.2,0.5,0.1c0.2-0.2,0.3-0.4,0.4-0.7c-0.2,0-0.4-0.1-0.6-0.1
					c0,0.3,0,0.5,0.1,0.8c0.1,0.2,0.4,0.3,0.6,0.1c0.2-0.4,0.2-0.6,0.1-1c-0.1-0.3-0.5-0.3-0.6,0c-0.1,0.4-0.1,0.7,0.1,1
					c0.1,0.1,0.2,0.2,0.4,0.2c0.4-0.1,0.5-0.4,0.5-0.7c0-0.2-0.4-0.3-0.5-0.1c-0.3,0.4-0.4,0.8-0.1,1.2c0.2,0.4,0.8,0,0.5-0.3
					c0-0.2,0-0.3,0-0.5c-0.2-0.1-0.4-0.1-0.5-0.1c0,0,0,0,0-0.1c0.1,0.1,0.2,0.1,0.4,0.2c0-0.2,0-0.4,0-0.5c-0.2,0-0.4,0-0.6,0
					c0,0.2,0,0.4,0,0.5c0.2,0,0.4,0.1,0.6,0.1c-0.1-0.2-0.2-0.4-0.1-0.6c0-0.4-0.6-0.4-0.6-0.1c-0.1,0.1-0.1,0.3-0.2,0.4
					c0.2,0,0.3,0.1,0.5,0.1c-0.1-0.2-0.1-0.3-0.2-0.5c-0.2,0.1-0.4,0.1-0.6,0.2c0,0.2,0,0.3,0,0.5c0.2,0,0.3-0.1,0.5-0.1
					c-0.2-0.2-0.5-0.5-0.7-0.7c-0.2-0.2-0.7,0-0.5,0.3c0.2,0.5,0.5,0.8,0.9,1.1c0-0.2,0.1-0.4,0.1-0.6c-0.7,0.1-1.4,0.3-2.1,0.4
					c0.1,0.2,0.2,0.4,0.2,0.6c0.3-0.2,0.6-0.3,0.9-0.3c-0.1-0.2-0.1-0.4-0.2-0.6c-0.2,0-0.3,0-0.5,0c0,0.2,0.1,0.3,0.1,0.5
					c0.4-0.4,0.8-0.8,1.2-1.2c-0.2-0.1-0.4-0.2-0.5-0.3c-0.2,0.4-0.4,0.7-0.7,1.1c0.2,0.1,0.4,0.2,0.5,0.3c0.1-0.5,0.3-1,0.7-1.3
					c-0.2-0.1-0.4-0.2-0.5-0.3c-0.1,0.5-0.3,0.9-0.8,1.2c0.2,0.1,0.3,0.2,0.5,0.4c0.1-0.6,0.4-1.1,0.7-1.6c-0.2-0.1-0.4-0.2-0.6-0.2
					c-0.1,0.5-0.3,0.9-0.8,1.3c0.2,0.1,0.4,0.2,0.5,0.3c0.1-0.5,0.3-0.9,0.6-1.2c-0.2-0.1-0.3-0.3-0.5-0.4c-0.2,0.5-0.5,0.8-0.9,1
					c0.2,0.1,0.3,0.2,0.5,0.3c0-0.6,0.2-1,0.6-1.4c-0.2-0.1-0.4-0.2-0.5-0.2c-0.1,0.5-0.3,0.8-0.7,1.1c0.2,0.1,0.3,0.2,0.5,0.3
					c0-0.4,0.2-0.8,0.4-1.1c-0.2-0.1-0.4-0.2-0.5-0.2c0,0.6-0.3,1-0.8,1.3c0.2,0.1,0.3,0.2,0.5,0.3c0.1-0.7,0.3-1.3,0.6-1.9
					c-0.2-0.1-0.4-0.1-0.6-0.2c0,0.8-0.3,1.4-0.9,1.8c0.2,0.1,0.3,0.2,0.5,0.3c0-0.5,0.1-0.8,0.4-1.2c-0.2-0.1-0.4-0.2-0.6-0.2
					c-0.2,0.4-0.4,0.8-0.7,1.2c-0.2,0.3,0.3,0.7,0.5,0.4c0.2-0.1,0.4-0.2,0.6-0.2c-0.1-0.2-0.1-0.4-0.1-0.5
					c-0.6,0.6-1.4,1.1-2.3,1.4c-0.4,0.1-0.2,0.7,0.2,0.6c0.5-0.1,1-0.3,1.5-0.4c0.3-0.1,0.3-0.6-0.1-0.6c-0.7,0-1.3,0.2-2,0.4
					c0.1,0.2,0.2,0.4,0.2,0.6c0.9-0.4,1.8-0.6,2.8-0.6c-0.1-0.2-0.1-0.4-0.2-0.6c-0.7,0.5-1.4,0.5-2.1,0.1c-0.1,0.2-0.1,0.4-0.2,0.6
					c0.8-0.1,1.5,0,2.3,0.2c0-0.2,0-0.4,0-0.6c-0.9,0.1-1.8,0.2-2.7,0.1c0,0.2,0.1,0.4,0.1,0.6c0.8-0.1,1.4-0.5,1.9-1.1
					c0.2-0.2,0-0.6-0.3-0.5c-0.7,0.2-1.2,0.4-1.7,0.9c0.2,0.1,0.3,0.3,0.5,0.4c0.4-0.5,0.7-1.1,1.1-1.6c-0.2-0.1-0.4-0.2-0.5-0.3
					c-0.2,0.4-0.5,0.8-0.7,1.2c-0.2,0.4,0.3,0.7,0.5,0.3c0.4-0.7,1-1.3,1.6-1.8c-0.2-0.1-0.3-0.3-0.5-0.4c-0.3,0.5-0.7,0.9-1.1,1.4
					c-0.3,0.3,0.2,0.7,0.5,0.5c0.5-0.5,1.1-1,1.6-1.4c0.3-0.3-0.1-0.7-0.5-0.5c-0.4,0.4-0.7,0.7-0.9,1.2c-0.1,0.3,0.2,0.7,0.5,0.4
					c0.3-0.3,0.7-0.6,1.1-0.9c-0.2-0.1-0.3-0.2-0.5-0.3c0,0.3,0,0.6,0,0.9c0,0.3,0.4,0.4,0.6,0.2c0.2-0.4,0.4-0.8,0.6-1.2
					c-0.2,0-0.4,0-0.5,0c0.2,0.3,0.3,0.6,0.4,1c0.2-0.1,0.4-0.1,0.6-0.2c-0.2-0.5-0.2-0.9-0.1-1.4c-0.2,0-0.4,0.1-0.6,0.1
					c0.3,0.4,0.7,0.9,1,1.3c0.2,0.3,0.8,0,0.5-0.3c-0.3-0.4-0.5-0.8-0.8-1.2c-0.2-0.2-0.6-0.2-0.6,0.2c0.1,0.7,0.3,1.2,0.9,1.7
					c0.3,0.2,0.7-0.1,0.5-0.4c-0.3-0.5-0.5-1.1-0.8-1.6c-0.2,0.1-0.4,0.2-0.5,0.3c0.2,0.3,0.4,0.7,0.7,1c0.2-0.1,0.3-0.3,0.5-0.4
					c-0.5-0.5-1-1.1-1.5-1.6c-0.2,0.2-0.3,0.3-0.5,0.5c0.3,0.3,0.6,0.6,0.8,1c0.2-0.1,0.3-0.3,0.5-0.4c-0.5-0.5-1-0.8-1.7-1
					c-0.4-0.1-0.6,0.5-0.2,0.6c0.4,0.1,0.7,0.2,1.1,0.3c0.3,0.1,0.5-0.3,0.3-0.5c-0.6-0.6-1.4-0.9-2.3-0.9c-0.2,0-0.4,0.2-0.3,0.4
					c0.3,0.9,1,1.3,1.9,1.1c0.2-0.1,0.3-0.3,0.2-0.5c-0.3-0.6-1.3-1.4-1.9-0.5c-0.5,1,0.8,1.3,1.4,1.1c0.2-0.1,0.2-0.2,0.2-0.3
					c0.1-1-1.2-1.5-1.6-0.5c-0.5,0.9,0.6,1.6,1.4,1.2c0.1-0.1,0.2-0.2,0.2-0.4c-0.3-0.9-1.6-1.8-2.3-0.6c-0.5,0.8,0.6,1.9,1.3,1.1
					c0.7-0.8-0.1-1.9-1-1.8c-1,0.1-1.3,1.5-0.4,1.9c0.9,0.4,1.8-0.7,1.1-1.4c-0.6-0.7-2,0.1-1.7,1c0.3,0.9,1.5,0.5,1.3-0.4
					c-0.2-0.9-1.6-0.8-1.7,0.1c-0.2,1.2,1.8,1.3,1.6,0.1c-0.1-0.5-0.6-0.7-1-0.5c-0.6,0.2-0.8,0.9-0.8,1.5c0,0.2,0.2,0.4,0.4,0.3
					c0.5-0.2,0.8-0.6,0.7-1.2c-0.2,0.1-0.4,0.1-0.6,0.2c0.1,0.1,0.1,0.3,0.1,0.4c0.1,0.3,0.6,0.3,0.6,0c0.1-0.4,0.2-0.7,0.5-1
					c-0.2-0.1-0.4-0.2-0.5-0.3c-0.1,0.6-0.3,1.1-0.6,1.6c0.2,0.1,0.4,0.2,0.6,0.2c0-0.3,0.2-0.5,0.4-0.7c-0.2-0.1-0.4-0.2-0.5-0.3
					c-0.1,0.4-0.3,0.8-0.6,1.1c0.2,0.1,0.3,0.3,0.5,0.4c0.2-0.4,0.5-0.7,0.9-0.9c-0.2-0.1-0.3-0.2-0.5-0.3c0,0.6-0.2,1.1-0.7,1.6
					c0.2,0.1,0.4,0.2,0.5,0.2c0-0.3,0.1-0.6,0.4-0.8c-0.2-0.1-0.4-0.1-0.5-0.1c0.1,0.5-0.1,0.8-0.4,1.1c0.2,0.1,0.3,0.2,0.5,0.3
					c0-0.3,0.1-0.5,0.1-0.8c0-0.3-0.5-0.4-0.6-0.2c-0.2,0.4-0.4,0.8-0.8,1c0.2,0.1,0.3,0.2,0.5,0.3c0.1-0.1,0.1-0.2,0.1-0.3
					c-0.1-0.1-0.3-0.3-0.4-0.4c-0.1,0.1-0.1,0.2-0.2,0.3c0.2,0,0.3,0.1,0.5,0.1c0-0.1,0-0.2-0.1-0.2c-0.2-0.1-0.4-0.2-0.6-0.2
					c-0.1,0.2-0.2,0.4-0.2,0.7c0.2,0,0.4,0,0.6,0c0-0.1,0-0.1,0-0.2c-0.2,0-0.3,0-0.5,0c0,0,0,0,0,0c0.2,0.1,0.4,0.2,0.6,0.2
					c0.2-0.5,0.4-0.9,0.7-1.2c-0.2-0.1-0.4-0.2-0.5-0.3c-0.1,0.5-0.3,1-0.6,1.4c0.2,0,0.4,0.1,0.6,0.1c-0.1-0.4,0-0.8,0.2-1.1
					c-0.2-0.1-0.4-0.1-0.6-0.2c0.1,0.4-0.1,0.7-0.4,0.9c0.2,0.1,0.3,0.1,0.5,0.2c-0.1-0.5-0.1-0.9,0.2-1.3c-0.2,0-0.4-0.1-0.6-0.1
					C68.1,34.7,68,35,68,35.2c0.2,0.1,0.4,0.2,0.5,0.2c0.1-0.4,0.2-0.7,0.5-1.1c-0.2-0.1-0.4-0.1-0.6-0.2c0,0.4-0.1,0.6-0.4,0.8
					c0.2,0.1,0.4,0.2,0.5,0.2c0.1-0.8,0.3-1.5,0.6-2.2c-0.2,0-0.4-0.1-0.6-0.1c0,0.7-0.2,1.3-0.4,2c0.2,0.1,0.4,0.2,0.6,0.2
					c0.1-0.5,0.2-1.1,0.2-1.6C69,33.2,68.3,33,68.3,33.4L68.3,33.4z"/>
			</g>
		</g>
	</g>
	<g>
		<g>
			<g>
				<path d="M77.2,34.2c0,0.2,0,0.4,0,0.6c0,0.4,0.5,0.4,0.6,0.1c0.1-0.4,0.2-0.8,0.2-1.3c0-0.4-0.5-0.4-0.6-0.1
					c-0.3,0.6-0.2,1.3,0.1,1.9c0.1,0.3,0.5,0.2,0.6-0.1c0.2-0.5,0.2-1.1,0.1-1.6c-0.1-0.3-0.4-0.3-0.5-0.1c-0.3,0.3-0.2,0.7,0.1,0.9
					c0.3,0.2,0.6-0.3,0.3-0.5c0,0,0,0,0,0.1c-0.2-0.1-0.4-0.1-0.5-0.1c0.1,0.4,0.1,0.8-0.1,1.2c0.2,0,0.4-0.1,0.6-0.1
					c-0.2-0.4-0.2-0.9,0-1.4c-0.2,0-0.4-0.1-0.6-0.1c0,0.4,0,0.7-0.1,1.1c0.2,0,0.4,0.1,0.6,0.1c0-0.2,0-0.4,0-0.6
					C77.8,33.8,77.1,33.8,77.2,34.2L77.2,34.2z"/>
			</g>
		</g>
	</g>
	<g>
		<g>
			<g>
				<path d="M75,35.5c-0.4-0.2-0.8-0.4-1.2-0.6c0,0.2,0,0.4,0,0.5c0.5-0.3,1-0.6,1.3-1.1c-0.2-0.1-0.4-0.2-0.5-0.3
					c0.1,0.1,0.1,0.2,0.2,0.3c-0.2-0.1-0.3-0.2-0.5-0.4c-0.1,0.2-0.1,0.3-0.2,0.5c-0.2,0.4,0.5,0.5,0.6,0.2c0.1-0.2,0.1-0.3,0.2-0.5
					c0.1-0.3-0.3-0.5-0.5-0.4c-0.3,0.1-0.4,0.6-0.1,0.8c0.3,0.2,0.6,0.1,0.8-0.2c0.2-0.4-0.3-0.7-0.5-0.3c-0.3,0.4-0.6,0.7-1.1,0.9
					c-0.2,0.1-0.2,0.4,0,0.5c0.4,0.2,0.8,0.4,1.2,0.6C75,36.3,75.3,35.7,75,35.5L75,35.5z"/>
			</g>
		</g>
	</g>
	<g>
		<g>
			<g>
				<path d="M68.4,36.3c0,0,0-1,0.1-1.1c0.1-0.4,0.3-0.7,0.6-0.9c0.4-0.5,1-0.8,1.5-1.1c0.3-0.2,0-0.8-0.3-0.5c-1,0.6-2,1.3-2.3,2.5
					c-0.2,0.6-0.2,2.1,0.7,1.9C68.9,36.8,68.8,36.2,68.4,36.3L68.4,36.3z"/>
			</g>
		</g>
	</g>
	<g>
		<g>
			<g>
				<path d="M69.3,33.6c0.5-2.3,3.2-1.5,4.4-0.4c0.3,0.3,0.8-0.2,0.5-0.5c-0.9-0.8-2-1.4-3.3-1.3c-1.1,0.2-2,0.9-2.2,1.9
					C68.6,33.8,69.2,34,69.3,33.6L69.3,33.6z"/>
			</g>
		</g>
	</g>
	<g>
		<g>
			<g>
				<path d="M78.4,33.5c0.3-0.2,0.3-0.4,0.2-0.7c-0.1-0.2-0.4-0.3-0.5-0.1c-0.3,0.3-0.5,0.6-0.6,1c0.2,0.1,0.4,0.2,0.6,0.2
					c0.1-0.4,0.1-0.7,0.1-1.1c0-0.2-0.4-0.3-0.5-0.1c-0.2,0.2-0.3,0.4-0.4,0.7c-0.1,0.3,0.3,0.5,0.5,0.3c0.6-0.5,0.2-1.5-0.5-0.9
					c-0.1,0.1-0.1,0.3-0.1,0.4c0,0,0,0.1,0,0.1c0.1,0.2,0.4,0.2,0.5,0c0.2-0.3,0.2-0.3,0.2-0.7c0-0.3-0.4-0.4-0.5-0.2
					c-0.4,0.4-0.5,0.9-0.3,1.4c0.1,0.2,0.4,0.3,0.5,0.1c0.2-0.3,0.4-0.6,0.5-0.9c0.1-0.3-0.4-0.6-0.6-0.2c-0.3,0.5-0.3,1-0.1,1.5
					c0.1,0.3,0.5,0.3,0.6,0c0.1-0.3,0.1-0.4,0.1-0.7c0-0.1,0-0.3,0-0.4c-0.1-0.3,0-0.4,0.3-0.5c0.2,0,0.3-0.1,0.4-0.1
					c0-0.1-0.1-0.2-0.1-0.3c-0.2,0-0.3,0-0.5,0c0.3,0.3,0.4,0.6,0.3,1c0.1-0.1,0.2-0.2,0.3-0.3c0-0.1-0.1-0.1-0.1-0.1
					c-0.2,0-0.3,0.1-0.4,0.1c0.1,0.2,0.2,0.3,0.2,0.5c0.1-0.1,0.3-0.2,0.4-0.3c0.1,0.1,0.2,0.2,0.3,0.3c0.2-0.1,0.3-0.2,0.5-0.3
					c-0.1-0.2-0.1-0.4-0.2-0.6c-0.2,0.1-0.4,0.1-0.5,0.1c0.4,0.4,0.9,0.8,1.3,1.2c0.1-0.2,0.2-0.4,0.2-0.5c-0.5-0.1-0.8-0.4-0.9-0.8
					c-0.1,0.1-0.3,0.3-0.4,0.4C80,33,80.6,33.4,81,34c0.2-0.2,0.3-0.3,0.4-0.4c-0.5-0.3-0.9-0.6-1.1-1.2c-0.2,0.1-0.4,0.2-0.5,0.3
					c0.5,0.6,1.1,1.3,1.6,1.9c0.2,0.3,0.7-0.1,0.5-0.4c-0.2-0.4-0.4-0.8-0.7-1.2c-0.2,0.1-0.3,0.3-0.5,0.4c0.4,0.3,0.7,0.7,0.9,1.2
					c0.2-0.1,0.3-0.3,0.5-0.4c-0.2-0.2-0.3-0.4-0.3-0.7c-0.2,0.1-0.4,0.2-0.6,0.2c0.2,0.3,0.4,0.6,0.6,0.9c0-0.2,0.1-0.3,0.1-0.4
					c-0.8,0.3-1.6-0.1-1.7-0.9c-0.1-0.2-0.3-0.3-0.5-0.2c-0.4,0.2-0.7,0.5-1.1,0.8c0.2,0.1,0.4,0.1,0.5,0.1c-0.1-0.3-0.1-0.5,0-0.8
					c0.1-0.3-0.2-0.5-0.5-0.4c-0.5,0.3-0.8,0.6-1,1.2c-0.1,0.3,0.3,0.5,0.5,0.3c0.3-0.3,0.5-0.6,0.6-1c0.1-0.4-0.4-0.5-0.6-0.2
					c-0.3,0.4-0.5,0.7-0.6,1.1c-0.1,0.3,0.3,0.5,0.5,0.3c0.2-0.2,0.5-0.4,0.7-0.7C78.7,33.7,78.5,33.6,78.4,33.5
					c-0.3,0.4-0.4,0.8-0.3,1.3c0,0.3,0.3,0.4,0.5,0.2c0.4-0.4,0.7-0.8,0.9-1.3c0.1-0.3-0.4-0.6-0.6-0.2c-0.2,0.4-0.4,0.8-0.5,1.1
					c-0.2,0.3,0.2,0.6,0.5,0.4c0.4-0.3,0.7-0.7,1-1.1c-0.2-0.1-0.4-0.2-0.5-0.3c-0.3,0.4-0.4,0.9-0.6,1.4c-0.1,0.3,0.3,0.5,0.5,0.3
					c0.3-0.3,0.6-0.6,0.9-1c-0.2-0.1-0.4-0.2-0.6-0.2c-0.1,0.2-0.1,0.4-0.2,0.5c-0.1,0.2,0.1,0.4,0.3,0.4c0.5,0,0.8-0.2,0.9-0.7
					c0-0.1,0-0.2-0.1-0.3c0,0-0.1,0-0.1-0.1c-0.1-0.1-0.2-0.1-0.3-0.1c-0.2,0.1-0.3,0.1-0.4,0.4c-0.1,0.1,0,0.3,0.2,0.4
					c0.5,0.3,0.8,0,0.9-0.5c0.1-0.4-0.5-0.6-0.6-0.2c-0.1,0.3-0.2,0.5-0.3,0.8c-0.1,0.2,0.2,0.5,0.4,0.4c0.4-0.1,0.6-0.3,0.8-0.7
					c0.2-0.4-0.4-0.7-0.5-0.3c-0.1,0.1-0.2,0.2-0.4,0.4c0.1,0.1,0.3,0.3,0.4,0.4c0.1-0.3,0.2-0.5,0.3-0.8c-0.2-0.1-0.4-0.1-0.6-0.2
					c0,0,0,0.1,0,0.1c0.1,0.1,0.1,0.2,0.2,0.4c-0.2,0-0.5,0-0.7,0c0.1,0.1,0.2,0.3,0.3,0.4c0.1-0.2,0.1-0.4,0.2-0.5
					c0.1-0.4-0.4-0.5-0.6-0.2c-0.2,0.3-0.5,0.6-0.8,0.9c0.2,0.1,0.4,0.2,0.5,0.3c0.1-0.4,0.3-0.8,0.5-1.2c0.2-0.4-0.3-0.7-0.5-0.3
					c-0.2,0.4-0.5,0.7-0.9,1c0.2,0.1,0.3,0.3,0.5,0.4c0.2-0.4,0.4-0.8,0.5-1.1c-0.2-0.1-0.4-0.2-0.6-0.2c-0.2,0.4-0.4,0.8-0.8,1.1
					c0.2,0.1,0.4,0.2,0.5,0.2c-0.1-0.4,0-0.7,0.2-1.1c0.2-0.3-0.2-0.6-0.5-0.4c-0.2,0.2-0.5,0.4-0.7,0.7c0.2,0.1,0.4,0.2,0.5,0.3
					c0.1-0.4,0.3-0.7,0.5-1c-0.2-0.1-0.4-0.2-0.6-0.2c0,0.3-0.2,0.6-0.4,0.8c0.2,0.1,0.4,0.2,0.5,0.3c0.2-0.4,0.4-0.6,0.8-0.8
					c-0.2-0.1-0.3-0.2-0.5-0.4c-0.1,0.4-0.1,0.7,0,1.1c0.1,0.2,0.4,0.3,0.5,0.1c0.3-0.3,0.6-0.5,0.9-0.7c-0.2-0.1-0.3-0.1-0.5-0.2
					c0.3,1.2,1.6,1.8,2.7,1.3c0.2-0.1,0.2-0.3,0.1-0.4c-0.2-0.3-0.4-0.6-0.6-0.9c-0.2-0.3-0.7-0.1-0.6,0.2c0.1,0.4,0.2,0.7,0.5,1
					c0.3,0.3,0.6-0.1,0.5-0.4c-0.2-0.5-0.5-1-1-1.3c-0.3-0.2-0.7,0.1-0.5,0.4c0.2,0.4,0.4,0.8,0.7,1.2c0.2-0.1,0.3-0.3,0.5-0.4
					c-0.5-0.6-1.1-1.3-1.6-1.9c-0.2-0.2-0.6,0-0.5,0.3c0.3,0.7,0.7,1.2,1.4,1.6c0.3,0.1,0.6-0.2,0.4-0.4c-0.5-0.8-1.3-1.3-2.2-1.6
					c-0.2-0.1-0.4,0.2-0.4,0.4c0.2,0.8,0.7,1.2,1.5,1.3c0.3,0,0.4-0.4,0.2-0.5c-0.4-0.4-0.9-0.8-1.3-1.2c-0.2-0.2-0.5-0.1-0.5,0.1
					c-0.2,0.5,0,1,0.5,1.3c0.2,0.1,0.5-0.1,0.5-0.3c0-0.6-0.5-1.4-1.2-1c-0.5,0.3-0.4,1.1,0.1,1.3c0.2,0.1,0.4-0.1,0.4-0.3
					c0-0.5-0.1-0.8-0.5-1c-0.1-0.1-0.4,0-0.4,0.1c-0.3,0.5,0,1.1,0.6,1.1c0.2,0,0.3-0.2,0.3-0.3c0.1-0.6-0.1-1-0.5-1.4
					c-0.1-0.1-0.3-0.1-0.5,0c-0.4,0.4-0.3,1,0.2,1.3c0.2,0.1,0.3,0,0.4-0.1c0.3-0.5-0.1-1.1-0.7-1c-1.1,0.1-0.6,1.5-0.8,2.2
					c0.2,0,0.4,0,0.6,0c-0.2-0.3-0.2-0.7,0-1c-0.2-0.1-0.4-0.2-0.6-0.2c-0.1,0.2-0.2,0.5-0.3,0.6c0.2,0.1,0.4,0.1,0.5,0.1
					c0.1-0.3,0.1-0.5,0.2-0.8c-0.2-0.1-0.4-0.2-0.5-0.2c0,0.1-0.1,0.2-0.1,0.3c0.2,0,0.4,0,0.5,0c0,0,0-0.1,0-0.1
					c0,0.1,0,0.3-0.1,0.4c-0.1,0-0.3,0-0.4,0c0.2,0.1,0.4,0.2,0.5,0.3c0.1-0.1,0.2-0.3,0.2-0.4c-0.2-0.1-0.4-0.1-0.5-0.1
					c0.1,0.3,0,0.5-0.1,0.8c-0.1,0.3,0.4,0.6,0.6,0.2s0.3-0.6,0.5-0.9c-0.2-0.1-0.4-0.1-0.5-0.1c0,0,0,0.1-0.1,0.1
					C77.6,33.3,78.1,33.8,78.4,33.5L78.4,33.5z"/>
			</g>
		</g>
	</g>
	<g>
		<g>
			<g>
				<path d="M78.3,35.5c0.7,0,1.4-0.1,2.1-0.2c-0.1-0.2-0.1-0.4-0.2-0.6c-0.7,0.1-1.4,0.3-2.2,0.4c-0.3,0.1-0.3,0.5,0,0.6
					c0.7,0.2,1.5,0.2,2.2,0.1c0.3-0.1,0.3-0.5,0-0.6c-0.6-0.2-1.1-0.2-1.7,0c-0.4,0.1-0.2,0.7,0.2,0.6c1-0.2,2.1-0.4,3.1-0.6
					c0.4-0.1,0.3-0.6-0.1-0.6c-0.6,0-1.2,0.1-1.7,0.4c-0.2,0.1-0.2,0.4,0,0.5c0.4,0.2,0.7,0.3,1.2,0.2c0.4-0.1,0.4-0.7,0-0.6
					c-0.2,0-0.5,0-0.7,0.1c-0.4,0-0.4,0.6,0,0.6c0.4,0.1,0.7,0,1.1-0.1c0.4-0.1,0.2-0.7-0.2-0.6c-0.3,0.1-0.5,0.1-0.8,0.2
					c-0.3,0.1-0.3,0.5,0,0.6c0.6,0.2,1.2,0.1,1.8-0.3c-0.2-0.1-0.3-0.1-0.5-0.2c0.1,0.2,0.1,0.3,0.1,0.4c0.2-0.1,0.4-0.2,0.6-0.2
					c-0.4-0.6-0.9-1.3-1.3-2c-0.3-0.5-0.7-1.2-1.2-1.6c-0.2-0.2-0.6-0.3-0.9-0.2c-0.5,0.2-0.4,0.7-0.5,1.1c-0.1,0.4,0.5,0.6,0.6,0.2
					c0-0.2,0.1-0.4,0.1-0.6c0.3,0,0.6,0.2,0.7,0.5c0.2,0.3,0.4,0.6,0.6,0.8c0.4,0.6,0.9,1.3,1.3,2c0.2,0.3,0.7,0.1,0.6-0.2
					c-0.1-0.2-0.1-0.3-0.1-0.4c-0.1-0.2-0.3-0.3-0.5-0.2c-0.4,0.3-0.8,0.4-1.3,0.3c0,0.2,0,0.4,0,0.6c0.3-0.1,0.5-0.1,0.8-0.2
					c-0.1-0.2-0.1-0.4-0.2-0.6c-0.3,0.1-0.6,0.1-0.9,0c0,0.2,0,0.4,0,0.6c0.2,0,0.5,0,0.7-0.1c0-0.2,0-0.4,0-0.6
					c-0.3,0.1-0.6,0-0.9-0.2c0,0.2,0,0.4,0,0.5c0.5-0.2,0.9-0.3,1.4-0.3c0-0.2-0.1-0.4-0.1-0.6c-1,0.2-2.1,0.4-3.1,0.6
					c0.1,0.2,0.1,0.4,0.2,0.6c0.5-0.1,0.9-0.1,1.4,0c0-0.2,0-0.4,0-0.6c-0.6,0.1-1.2,0.1-1.9-0.1c0,0.2,0,0.4,0,0.6
					c0.7-0.1,1.4-0.3,2.2-0.4c0.4-0.1,0.2-0.7-0.2-0.6c-0.6,0.1-1.3,0.2-1.9,0.2C77.9,34.9,77.9,35.5,78.3,35.5L78.3,35.5z"/>
			</g>
		</g>
	</g>
	<g>
		<g>
			<g>
				<path d="M66.9,39.6c3.2,3.3,7.5,5.2,12.1,5.7c2.3,0.3,4.6,0.2,6.9-0.1c1.2-0.2,2.3-0.4,3.5-0.7c1-0.3,2.2-0.5,3-1.3
					c0.3-0.3-0.2-0.7-0.5-0.5c-0.8,0.8-2.4,1.1-3.5,1.3c-1,0.3-2.1,0.4-3.2,0.6c-2.1,0.3-4.2,0.3-6.3,0.1c-4.4-0.5-8.5-2.4-11.6-5.5
					C67.1,38.9,66.7,39.3,66.9,39.6L66.9,39.6z"/>
			</g>
		</g>
	</g>
	<g>
		<g>
			<g>
				<path d="M76.8,36.2c2.9,0.4,5.7,0.9,8.5,1.8c2.5,0.8,5.8,2.1,7.2,4.5c0.2,0.4,0.8,0,0.5-0.3c-1.4-2.4-4.5-3.7-7-4.6
					c-3-1.1-6.1-1.6-9.2-2C76.4,35.5,76.4,36.2,76.8,36.2L76.8,36.2z"/>
			</g>
		</g>
	</g>
	<g>
		<g>
			<g>
				<path d="M73.6,30c2.2,1.2,2.2,3.9,2.2,6.1c0,0.4,0.6,0.4,0.6,0c0-2.4-0.1-5.3-2.5-6.6C73.5,29.2,73.2,29.8,73.6,30L73.6,30z"/>
			</g>
		</g>
	</g>
	<g>
		<g>
			<g>
				<path d="M37.9,88.1c5.9,4.2,13,6.5,20.3,6.7c0.4,0,0.4-0.6,0-0.6C51,94,44.1,91.6,38.2,87.5C37.9,87.3,37.6,87.9,37.9,88.1
					L37.9,88.1z"/>
			</g>
		</g>
	</g>
	<g>
		<g>
			<g>
				<path d="M70.6,93.9c3.3,0.7,6.6,1.5,10,1.6c1.6,0.1,3.2-0.1,4.8-0.4c1.7-0.3,3.3-0.9,5.1-1.3c0.4-0.1,0.2-0.7-0.2-0.6
					c-1.6,0.3-3.1,0.9-4.8,1.2c-1.6,0.3-3.3,0.5-4.9,0.4c-3.3-0.1-6.6-0.8-9.8-1.6C70.4,93.2,70.2,93.8,70.6,93.9L70.6,93.9z"/>
			</g>
		</g>
	</g>
	<g>
		<g>
			<g>
				<path d="M40.5,87.8c0,1.3,0.8,2.6,2,3.1c1.6,0.7,3.3-0.2,4.7-1c0.4-0.2,0-0.8-0.3-0.5c-1.1,0.6-2.5,1.4-3.8,1
					c-1.2-0.3-1.9-1.5-1.9-2.7C41.1,87.3,40.5,87.3,40.5,87.8L40.5,87.8z"/>
			</g>
		</g>
	</g>
	<g>
		<g>
			<g>
				<path d="M53.2,93.6c-0.3-0.6-0.6-1.2-0.6-1.9c-0.1-0.4-0.7-0.4-0.6,0c0.1,0.8,0.3,1.5,0.7,2.2C52.8,94.3,53.4,94,53.2,93.6
					L53.2,93.6z"/>
			</g>
		</g>
	</g>
	<g>
		<g>
			<g>
				<path d="M77.4,94.8c0.9-0.7,1.3-1.8,1.2-2.9c0-0.4-0.7-0.4-0.6,0c0.1,0.9-0.3,1.8-1,2.4C76.6,94.6,77.1,95,77.4,94.8L77.4,94.8z
					"/>
			</g>
		</g>
	</g>
	<g>
		<g>
			<g>
				<path d="M42,92.7c1.5,0.9,3.1,1.5,4.9,1.9c0.4,0.1,0.6-0.5,0.2-0.6c-1.7-0.4-3.2-1-4.7-1.8C41.9,92,41.6,92.5,42,92.7L42,92.7z"
					/>
			</g>
		</g>
	</g>
	<g>
		<g>
			<g>
				<path d="M38,90.1c0.6,0.6,1.3,1,2.2,1.3c0.4,0.1,0.6-0.5,0.2-0.6c-0.7-0.2-1.3-0.6-1.9-1.1C38.1,89.3,37.7,89.8,38,90.1L38,90.1
					z"/>
			</g>
		</g>
	</g>
	<g>
		<g>
			<g>
				<path d="M61,82.3c3.5,11.1,6.1,22.4,9,33.6c0.9,3.2,1.7,6.4,2.7,9.6c0.1,0.4,0.7,0.2,0.6-0.2c-3.3-11.1-5.8-22.5-8.9-33.6
					c-0.9-3.2-1.8-6.4-2.8-9.6C61.5,81.8,60.9,81.9,61,82.3L61,82.3z"/>
			</g>
		</g>
	</g>
	<g>
		<g>
			<g>
				<path d="M57.4,82.5c2.9-0.8,5.9-1.7,8.8-2.5c2.2-0.6,5-1,6.6-2.8c0.1-0.1,0.1-0.2,0-0.3c-0.2-0.2-0.2-0.2-0.5-0.2
					c-0.3,0-0.3,0.4,0,0.4c0.1,0,0.2,0.1,0.2,0.1c0-0.1,0-0.2,0-0.3c-0.8,0.9-1.9,1.4-3.1,1.7c-1.3,0.4-2.6,0.8-3.9,1.1
					c-2.7,0.8-5.4,1.6-8.2,2.3C57,82.2,57.1,82.6,57.4,82.5L57.4,82.5z"/>
			</g>
		</g>
	</g>
	<g>
		<g>
			<g>
				<path d="M48.9,85.6c0.5-0.3,1-0.5,1.5-0.6c0.3,0,0.2-0.4-0.1-0.4c-0.6,0.1-1.1,0.3-1.6,0.6C48.4,85.4,48.6,85.7,48.9,85.6
					L48.9,85.6z"/>
			</g>
		</g>
	</g>
	<g>
		<g>
			<g>
				<path d="M54.9,59.5c-1.2,0.1-2.2,1.2-2,2.5c0.2,1.2,1.6,1.9,2.7,1.7c0.3-0.1,0.2-0.5-0.1-0.4c-0.9,0.2-1.9-0.3-2.2-1.2
					c-0.3-1,0.5-2.1,1.6-2.2C55.2,59.9,55.2,59.5,54.9,59.5L54.9,59.5z"/>
			</g>
		</g>
	</g>
	<g>
		<g>
			<g>
				<path d="M56.5,63.4c-2,2-1.6,4.9-1.1,7.4c0.6,3,1.5,6,3,8.7c0.1,0.2,0.5,0,0.4-0.2c-1.3-2.4-2.1-5-2.7-7.7
					c-0.6-2.6-1.4-5.8,0.8-7.9C57,63.5,56.7,63.2,56.5,63.4L56.5,63.4z"/>
			</g>
		</g>
	</g>
	<g>
		<g>
			<g>
				<path d="M93.8,84.5c-1.7,0.8-2,2.7-2,4.4c0,2.5,0.5,5.1,0.9,7.5c0.9,5.2,2.4,10.6,4.9,15.3c0.5,0.9,1.1,1.8,2.1,2.1
					c0.9,0.2,1.7,0,2.2-0.7c0.2-0.2-0.2-0.4-0.4-0.2c-1.2,1.7-3-0.2-3.6-1.3c-0.6-1.2-1.2-2.5-1.7-3.8c-1-2.6-1.8-5.3-2.5-8
					c-0.6-2.8-1.1-5.7-1.4-8.5c-0.2-2-0.7-5.2,1.6-6.2C94.2,84.8,94,84.4,93.8,84.5L93.8,84.5z"/>
			</g>
		</g>
	</g>
	<g>
		<g>
			<g>
				<path d="M70.3,126.5c2.5-0.2,5-0.6,7.5-1.3c0.2-0.1,0.2-0.3,0.1-0.4c-0.6-0.3-1.2-0.5-1.9-0.5c-0.3,0-0.3,0.4,0,0.4
					c0.6,0,1.1,0.2,1.7,0.5c0-0.1,0-0.3,0.1-0.4c-2.4,0.6-4.9,1.1-7.4,1.2C70,126.1,70,126.6,70.3,126.5L70.3,126.5z"/>
			</g>
		</g>
	</g>
	<g>
		<g>
			<g>
				<path d="M72.9,127.6c1.7-0.3,3.3-0.3,5-0.1c0.3,0,0.4-0.4,0.1-0.4c-1.8-0.3-3.5-0.3-5.2,0.1C72.5,127.2,72.6,127.7,72.9,127.6
					L72.9,127.6z"/>
			</g>
		</g>
	</g>
	<g>
		<g>
			<g>
				<path d="M81.6,128c0.4,0,0.8,0,1.2,0c0.3,0,0.3-0.4,0-0.4c-0.4,0-0.8,0-1.2,0C81.3,127.6,81.3,128,81.6,128L81.6,128z"/>
			</g>
		</g>
	</g>
	<g>
		<g>
			<g>
				<path d="M82.5,128c0.7,0,1-0.6,1.4-1.1c1.1-1.3,2.2,0.6,3.2,1.1c0-0.1,0-0.3,0.1-0.4c-1.1,0.3-2,0.1-3-0.2
					c-0.5-0.2-0.9-0.2-1.2,0.1c-0.2,0.2,0.1,0.5,0.3,0.3c0.4-0.4,1.7,0.3,2.2,0.4c0.6,0.1,1.2,0,1.8-0.2c0.2-0.1,0.2-0.3,0.1-0.4
					c-0.9-0.5-1.6-1.8-2.8-1.7c-0.9,0.1-1.2,1.6-2.1,1.5C82.2,127.6,82.2,128,82.5,128L82.5,128z"/>
			</g>
		</g>
	</g>
	<g>
		<g>
			<g>
				<path d="M87.2,128.3c2.1-0.9,4.4-0.9,6.6-1c0.1,0,0.2-0.1,0.2-0.2c0-1.2-1.7-1.3-1.7-2.4c-0.1,0.1-0.2,0.1-0.3,0.2
					c0.9,0.4,1.6,0.8,2.4,1.4c0.2,0.1,0.3-0.1,0.3-0.2c-0.1-0.6-0.1-1.1,0.2-1.6c-0.1,0-0.2,0-0.4,0c0.3,0.4,0.6,0.9,1,1.3
					c0.2,0.2,0.5-0.1,0.3-0.3c-0.3-0.4-0.6-0.8-0.9-1.2c-0.1-0.1-0.3-0.2-0.4,0c-0.3,0.6-0.3,1.2-0.2,1.9c0.1-0.1,0.2-0.2,0.3-0.2
					c-0.7-0.6-1.5-1-2.4-1.4c-0.1-0.1-0.3,0-0.3,0.2c0,1.1,1.7,1.3,1.7,2.4c0.1-0.1,0.1-0.1,0.2-0.2c-2.3,0.1-4.7,0.1-6.9,1.1
					C86.8,128,87,128.4,87.2,128.3L87.2,128.3z"/>
			</g>
		</g>
	</g>
	<g>
		<g>
			<g>
				<path d="M97.3,126.4c1.5-0.1,3-0.2,4.4-0.3c0.3,0,0.3-0.4,0-0.4c-1.5,0.1-3,0.2-4.4,0.3C97,126,97,126.4,97.3,126.4L97.3,126.4z
					"/>
			</g>
		</g>
	</g>
	<g>
		<g>
			<g>
				<path d="M34.4,112.1c0.7-0.1,1.4-0.2,2.1-0.2c0.6-0.1,1.6-0.3,2.2,0.1c0.2,0.2,0.4-0.2,0.2-0.4c-0.5-0.4-1.1-0.3-1.8-0.2
					c-0.9,0.1-1.8,0.2-2.8,0.3C34.2,111.7,34.2,112.1,34.4,112.1L34.4,112.1z"/>
			</g>
		</g>
	</g>
	<g>
		<g>
			<g>
				<path d="M102.9,112.2c1.4,0.1,2.7,0.1,4.1,0.2c0.3,0,0.3-0.4,0-0.4c-1.4-0.1-2.7-0.1-4.1-0.2
					C102.7,111.8,102.7,112.2,102.9,112.2L102.9,112.2z"/>
			</g>
		</g>
	</g>
	<g>
		<g>
			<g>
				<path d="M30.3,119.3c0.4-2.5,3.5-2.3,4.7-0.5c0.3,0.5,0.6,0.9,1.1,1.2c0.6,0.3,1.5,0.3,1.8,1c0.1-0.1,0.1-0.2,0.2-0.3
					c-1.9-0.1-3.8-0.1-5.8-0.2c-0.3,0-0.3,0.4,0,0.4c1.9,0.1,3.8,0.1,5.8,0.2c0.2,0,0.3-0.2,0.2-0.3c-0.4-0.8-1.3-0.8-2.1-1.2
					c-0.5-0.3-0.7-0.8-1.1-1.2c-0.3-0.4-0.8-0.8-1.2-1c-1.6-0.8-3.7,0-4,1.9C29.9,119.5,30.3,119.6,30.3,119.3L30.3,119.3z"/>
			</g>
		</g>
	</g>
	<g>
		<g>
			<g>
				<path d="M44.5,126.9c-0.1-0.3,0.4-0.5,0.6-0.3c0.2,0.2-0.2,0.6-0.4,0.5c0,0.1,0.1,0.1,0.1,0.2c0-0.2,0-0.3,0-0.5
					c0-0.3-0.4-0.3-0.4,0c0,0.2,0,0.3,0,0.5c0,0.1,0,0.2,0.1,0.2c0.6,0.3,1.5-0.6,1-1.2c-0.5-0.6-1.5,0-1.3,0.7
					C44.1,127.3,44.5,127.1,44.5,126.9L44.5,126.9z"/>
			</g>
		</g>
	</g>
	<g>
		<g>
			<g>
				<path d="M52,126.5c0-0.1,0.1-0.3,0.2-0.4c0.1-0.1,0.2-0.1,0.3-0.1c0.2,0,0.4,0.2,0.4,0.4c0,0.2-0.1,0.4-0.3,0.5
					C52.4,126.9,52.1,126.7,52,126.5c0.1-0.3-0.4-0.3-0.4,0c0,0.5,0.4,0.9,0.9,0.9c0.4,0,0.8-0.4,0.8-0.8c0-0.5-0.3-0.8-0.7-0.9
					c-0.2,0-0.4,0-0.6,0.1c-0.3,0.2-0.3,0.4-0.4,0.7C51.5,126.6,51.9,126.7,52,126.5L52,126.5z"/>
			</g>
		</g>
	</g>
	<g>
		<g>
			<g>
				<path d="M43.5,123c-0.1-0.2,0-0.4,0.2-0.5c-0.1,0-0.1,0-0.2,0c0.2,0,0.3,0.3,0.2,0.4c-0.1,0.2-0.3,0.1-0.4,0
					c-0.2-0.2-0.5,0.1-0.3,0.3c0.2,0.2,0.6,0.3,0.9,0.2c0.3-0.2,0.4-0.5,0.3-0.8c-0.1-0.2-0.2-0.3-0.3-0.4c-0.2-0.1-0.3-0.1-0.5,0
					c-0.3,0.2-0.4,0.6-0.3,0.9C43.2,123.3,43.6,123.2,43.5,123L43.5,123z"/>
			</g>
		</g>
	</g>
	<g>
		<g>
			<g>
				<path d="M56.2,40.2c0.2,1,1,1.7,2,1.8c0.3,0,0.3-0.4,0-0.4c-0.8-0.1-1.4-0.7-1.6-1.5C56.5,39.8,56.1,39.9,56.2,40.2L56.2,40.2z"
					/>
			</g>
		</g>
	</g>
	<g>
		<g>
			<g>
				<path d="M44.2,94.7c0,0.5-0.1,0.9-0.4,1.2c-0.2,0.2,0.2,0.4,0.4,0.2c0.3-0.4,0.4-0.9,0.4-1.5C44.6,94.4,44.2,94.4,44.2,94.7
					L44.2,94.7z"/>
			</g>
		</g>
	</g>
	<g>
		<g>
			<g>
				<path d="M77.5,97.6c0.2,0.6,0.4,1.2,0.5,1.9c0,0.3,0.4,0.2,0.4-0.1c-0.1-0.6-0.2-1.3-0.5-1.9C77.8,97.2,77.4,97.3,77.5,97.6
					L77.5,97.6z"/>
			</g>
		</g>
	</g>
	<g>
		<g>
			<g>
				<path d="M78.5,95c0.5,0.1,1-0.1,1.3-0.4c0.2-0.2-0.1-0.5-0.3-0.3c-0.3,0.2-0.7,0.3-1,0.3C78.2,94.6,78.2,95,78.5,95L78.5,95z"/>
			</g>
		</g>
	</g>
	<g>
		<g>
			<g>
				<path d="M32.5,111.7c-0.6-0.5-1.4-0.4-2.2-0.2c-1.3,0.3-2.5,0.5-3.9,0.1c-0.3-0.1-0.4,0.3-0.1,0.4c0.9,0.3,1.8,0.4,2.8,0.3
					c1-0.2,2.2-0.9,3.1-0.2C32.5,112.3,32.7,111.9,32.5,111.7L32.5,111.7z"/>
			</g>
		</g>
	</g>
	<g>
		<g>
			<g>
				<path d="M45,66.8c-0.3-0.3-0.6-0.4-0.9-0.5c-0.2-0.1-0.3,0.2-0.2,0.4c0.1,0.1,0.2,0.2,0.3,0.3c0.2,0.2,0.5-0.1,0.3-0.3
					c-0.1-0.1-0.2-0.2-0.3-0.3c-0.1,0.1-0.1,0.2-0.2,0.4c0.3,0.1,0.5,0.3,0.7,0.4C44.9,67.3,45.2,67,45,66.8L45,66.8z"/>
			</g>
		</g>
	</g>
	<g class="st1">
		<path d="M105.4,97c-0.4,0-0.7,0.1-1,0.3c-0.3,0.2-0.4,0.5-0.5,1c-0.1,0.4-0.2,1.1-0.2,2.1c0,1-0.1,1.6-0.1,2
			c-0.1,0.5-0.2,0.9-0.3,1.2c-0.1,0.3-0.3,0.5-0.5,0.7c-0.2,0.2-0.4,0.3-0.7,0.4c-0.2,0.1-0.5,0.1-1,0.1l-0.4,0l0-1.4l0.2,0
			c0.5,0,0.9-0.1,1.1-0.3c0.2-0.2,0.3-0.7,0.3-1.5c0-1.6,0.1-2.5,0.2-2.9c0.1-0.6,0.3-1.1,0.5-1.5c0.2-0.3,0.6-0.6,1.1-0.9
			c-0.6-0.3-1-0.7-1.2-1.3c-0.2-0.6-0.3-1.5-0.3-2.8c0-1.2,0-1.8,0-2.1c0-0.4-0.1-0.7-0.3-0.9c-0.2-0.2-0.5-0.3-1-0.3l-0.2,0l0-1.4
			l0.4,0c0.5,0,0.9,0.1,1.1,0.2c0.3,0.1,0.6,0.4,0.8,0.7c0.2,0.3,0.3,0.7,0.4,1.2c0.1,0.5,0.1,1.2,0.1,2.3c0,1.1,0,1.8,0.1,2.2
			c0.1,0.4,0.2,0.7,0.5,1c0.2,0.2,0.6,0.4,1,0.4L105.4,97z"/>
	</g>
	<g>
		<g>
			<g>
				<path class="st0" d="M45.1,72.4c-0.1,1.6-0.5,3.2-0.9,4.7c-0.1,0.3,0.4,0.4,0.4,0.1c0.3-1.6,0.7-3.2,0.9-4.8
					C45.6,72.2,45.2,72.2,45.1,72.4L45.1,72.4z"/>
			</g>
		</g>
	</g>
	<g>
		<g>
			<g>
				<path class="st0" d="M47.6,73.8c-0.1,0.4-0.1,0.8-0.2,1.2c0,0.3,0.4,0.4,0.4,0.1c0.1-0.4,0.1-0.8,0.2-1.2
					C48,73.6,47.6,73.5,47.6,73.8L47.6,73.8z"/>
			</g>
		</g>
	</g>
	<g>
		<g>
			<g>
				<path class="st0" d="M72.8,81.8c-0.1,0-0.1,3.4-0.1,3.7c0,1.1,0,2.2,0,3.3c0,0.3,0.4,0.3,0.4,0c0-1.4,0-2.8,0-4.2
					c0-0.7,0-1.3,0-2c0-0.4,0.1-0.7-0.2-1c-0.1-0.1-0.2-0.1-0.3,0c-0.2,0.1-0.2,0.2-0.2,0.3c0,0.1,0.1,0.2,0.2,0.2c0,0,0.1,0,0.1,0
					C72.9,82.3,73,81.9,72.8,81.8L72.8,81.8z"/>
			</g>
		</g>
	</g>
	<g>
		<g>
			<g>
				<path class="st0" d="M76.2,82.8c-0.2,0.8-0.2,1.5-0.2,2.3c0,0.3,0.4,0.3,0.4,0c-0.1-0.7,0-1.5,0.2-2.2
					C76.7,82.7,76.3,82.5,76.2,82.8L76.2,82.8z"/>
			</g>
		</g>
	</g>
	<g>
		<g>
			<g>
				<path class="st0" d="M83.2,83.4c0,1.9-0.4,3.8-1.2,5.6c-0.1,0.3,0.3,0.4,0.4,0.1c0.8-1.8,1.2-3.7,1.2-5.7
					C83.6,83.1,83.2,83.1,83.2,83.4L83.2,83.4z"/>
			</g>
		</g>
	</g>
	<g>
		<g>
			<g>
				<path class="st0" d="M87,82.9c0.1,0.6,0.1,1.1,0.2,1.7c0,0.3,0.5,0.3,0.4,0c-0.1-0.6-0.1-1.1-0.2-1.7C87.4,82.6,87,82.6,87,82.9
					L87,82.9z"/>
			</g>
		</g>
	</g>
	<g>
		<g>
			<g>
				<path class="st0" d="M94.1,77.3c0.4,1.9,0.7,3.9,1.1,5.8c0.1,0.3,0.5,0.2,0.4-0.1c-0.4-1.9-0.7-3.9-1.1-5.8
					C94.4,76.9,94,77,94.1,77.3L94.1,77.3z"/>
			</g>
		</g>
	</g>
	<g>
		<g>
			<g>
				<path d="M84.5,38.6c2.2,0.3,4.3,1.3,5.9,2.8c0.3,0.3,0.6,0.5,0.2,0.9c-0.1,0.1-0.6,0.2-0.8,0.3c-0.5,0.2-1.1,0.3-1.6,0.5
					c-1.1,0.3-2.3,0.5-3.4,0.6c-4.5,0.5-9.1-0.3-13-2.5c-0.2-0.1-0.5,0.2-0.2,0.4c4.5,2.6,9.9,3.3,15.1,2.3c1.3-0.2,2.6-0.6,3.8-1
					c0.8-0.3,1.3-0.5,0.6-1.3c-1.6-1.8-4.1-3-6.5-3.3C84.4,38.2,84.3,38.6,84.5,38.6L84.5,38.6z"/>
			</g>
		</g>
	</g>
	<g>
		<g>
			<g>
				<path d="M89.8,39c1,0.3,1.9,0.9,2.5,1.7c0.4,0.5,0.6,1.1,1.2,1.3c0.4,0.1,1,0,1.4,0c0.5,0,1,0.1,1.5,0.1
					c1.2,0.1,2.4,0.3,3.6,0.6c0.3,0.1,0.4-0.3,0.1-0.4c-1-0.3-1.9-0.4-2.9-0.6c-0.5-0.1-1.1-0.1-1.6-0.2c-0.5,0-1.2,0.1-1.7,0
					c-0.8-0.2-1.3-1.3-1.9-1.9c-0.6-0.5-1.3-0.9-2.1-1.1C89.7,38.5,89.6,38.9,89.8,39L89.8,39z"/>
			</g>
		</g>
	</g>
	<g>
		<g>
			<g>
				<path class="st0" d="M69.2,35c-0.2,0.2-0.4,0.3-0.6,0.5c-0.3,0.2-0.1,0.7,0.3,0.7c0.3,0,0.5,0,0.8,0c-0.1-0.2-0.2-0.4-0.4-0.6
					c0.1-0.1-0.1,0.1,0,0c0,0-0.1,0,0,0c0,0,0,0,0,0c0,0,0,0,0,0c0.1,0,0.1,0,0,0c0,0,0,0,0,0c-0.1,0-0.1,0,0,0
					c-0.2-0.1-0.5-0.1-0.6,0.2c-0.1,0.2-0.1,0.5,0.2,0.6c0.5,0.2,0.9,0.1,1.2-0.3c0.2-0.3-0.1-0.6-0.4-0.6c-0.3,0-0.5,0-0.8,0
					c0.1,0.2,0.2,0.5,0.3,0.7c0.2-0.2,0.4-0.3,0.6-0.5c0.2-0.2,0.2-0.4,0-0.6C69.6,34.8,69.4,34.8,69.2,35L69.2,35z"/>
			</g>
		</g>
	</g>
	<g>
		<g>
			<g>
				<path class="st0" d="M68.7,35.7c0.2,0.1,0.4,0.2,0.5,0.3c-0.1-0.2-0.1-0.4-0.2-0.6C69,35.7,68.8,35.8,68.7,35.7
					c0.2,0.2,0.4,0.3,0.6,0.3c-0.1-0.4-0.1-0.7,0-1.1c0.1-0.3-0.2-0.6-0.5-0.5c-0.4,0.1-0.7,0.4-0.7,0.9c0,0.4,0.6,0.6,0.8,0.2
					c0.2-0.4,0.3-0.7,0.2-1.1c-0.1-0.5-0.8-0.6-0.9,0c0,0.2,0,0.4,0,0.7c0.3,0,0.6,0,0.9,0c0-0.3,0-0.5,0-0.8c0-0.5-0.7-0.5-0.8-0.1
					c-0.2,0.4-0.2,0.7-0.1,1.2c0.1,0.4,0.6,0.4,0.8,0.1c0.3-0.5,0.5-1.1,0.5-1.7c0-0.4-0.6-0.6-0.8-0.2c-0.3,0.6-0.4,1.2-0.4,1.8
					c0,0.3,0.4,0.6,0.6,0.4c0.8-0.5,1.2-1.3,1.2-2.3c0-0.3-0.4-0.6-0.6-0.4c-0.7,0.5-0.9,1.4-0.5,2.2c0.1,0.2,0.4,0.3,0.6,0.2
					c0.7-0.5,1.2-1.2,1.4-2.1c0.1-0.3-0.3-0.7-0.6-0.5c-0.7,0.5-1.1,1.1-1.1,2c0,0.3,0.3,0.5,0.5,0.4c1-0.2,1.6-0.8,2-1.7
					c0.1-0.3-0.3-0.7-0.6-0.5c-0.6,0.4-0.9,1.1-0.7,1.8c0.1,0.3,0.4,0.4,0.6,0.3c0.6-0.3,1.1-0.8,1.5-1.4c0.2-0.4-0.2-0.8-0.6-0.6
					c-0.5,0.3-0.8,0.8-0.8,1.5c0,0.4,0.4,0.5,0.6,0.4c0.4-0.2,0.7-0.4,1.1-0.7c-0.2-0.1-0.5-0.3-0.7-0.4c0,0.2-0.1,0.3-0.1,0.5
					c-0.1,0.5,0.7,0.8,0.8,0.2c0-0.2,0.1-0.3,0.1-0.5c0.1-0.4-0.4-0.7-0.7-0.4c-0.3,0.3-0.5,0.4-0.9,0.6c0.2,0.1,0.4,0.2,0.6,0.4
					c0-0.3,0.1-0.6,0.4-0.7c-0.2-0.2-0.4-0.4-0.6-0.6c-0.3,0.5-0.6,0.9-1.2,1.1c0.2,0.1,0.4,0.2,0.6,0.3c-0.1-0.4,0-0.7,0.3-0.9
					c-0.2-0.2-0.4-0.3-0.6-0.5c-0.2,0.6-0.7,1-1.4,1.1c0.2,0.1,0.4,0.3,0.5,0.4c0-0.5,0.2-1,0.6-1.2c-0.2-0.2-0.4-0.3-0.6-0.5
					c-0.1,0.6-0.4,1.2-1,1.6c0.2,0.1,0.4,0.1,0.6,0.2c-0.2-0.3-0.2-0.7,0.2-1c-0.2-0.1-0.4-0.2-0.6-0.4c0,0.6-0.3,1.1-0.8,1.5
					c0.2,0.1,0.4,0.2,0.6,0.4c0-0.5,0-0.9,0.3-1.4c-0.3-0.1-0.5-0.1-0.8-0.2c0,0.5-0.2,0.9-0.4,1.3c0.3,0,0.5,0.1,0.8,0.1
					c-0.1-0.3,0-0.5,0.1-0.7c-0.3,0-0.6-0.1-0.8-0.1c0,0.3,0,0.5,0,0.8c0,0.5,0.8,0.5,0.9,0c0-0.2,0-0.4,0-0.7c-0.3,0-0.6,0-0.9,0
					c0.1,0.2,0,0.5-0.1,0.7c0.3,0.1,0.5,0.1,0.8,0.2c0,0,0-0.1,0-0.1c-0.2-0.2-0.4-0.4-0.5-0.5c-0.2,0.5-0.2,1,0,1.6
					c0.1,0.3,0.4,0.4,0.6,0.3c0.3-0.2,0.5-0.4,0.7-0.6c0.1-0.2,0-0.5-0.2-0.6c-0.2-0.1-0.4-0.2-0.5-0.3
					C68.6,34.7,68.2,35.4,68.7,35.7L68.7,35.7z"/>
			</g>
		</g>
	</g>
	<g>
		<g>
			<g>
				<path class="st0" d="M77.9,32.6c-0.3,0.5-0.5,1.1-0.5,1.6c0,0.3,0.4,0.5,0.6,0.4c0.5-0.4,0.8-1,0.6-1.7
					c-0.1-0.4-0.6-0.4-0.8-0.1c-0.4,0.5-0.4,1.1-0.3,1.6c0.1,0.3,0.5,0.4,0.7,0.2c0.2-0.1,0.3-0.3,0.5-0.4c-0.2-0.1-0.5-0.3-0.7-0.4
					c-0.1,0.2-0.1,0.4-0.2,0.6c-0.1,0.5,0.7,0.8,0.8,0.2c0.1-0.2,0.1-0.4,0.2-0.6c0.1-0.4-0.4-0.7-0.7-0.4c-0.2,0.1-0.3,0.3-0.5,0.4
					c0.2,0.1,0.5,0.1,0.7,0.2c-0.1-0.4,0-0.7,0.2-1c-0.3,0-0.5-0.1-0.8-0.1c0.1,0.3,0.1,0.5-0.2,0.7c0.2,0.1,0.4,0.2,0.6,0.4
					c0-0.4,0.1-0.8,0.3-1.2C78.9,32.5,78.2,32.1,77.9,32.6L77.9,32.6z"/>
			</g>
		</g>
	</g>
	<g>
		<g>
			<g>
				<path d="M100.8,83.4c0.2,1.1,0.4,2.2,0.6,3.2c0.1,0.3,0.5,0.2,0.4-0.1c-0.2-1.1-0.4-2.2-0.6-3.2
					C101.1,83.1,100.7,83.2,100.8,83.4L100.8,83.4z"/>
			</g>
		</g>
	</g>
	<g>
		<g>
			<g>
				<path d="M101.2,105.6c0.3,2.7,0.1,5.5-0.6,8.1c-0.1,0.3,0.3,0.4,0.4,0.1c0.7-2.7,0.9-5.5,0.6-8.2
					C101.6,105.3,101.1,105.3,101.2,105.6L101.2,105.6z"/>
			</g>
		</g>
	</g>
</g>
<g id="Layer_3_2_">
</g>
</svg>
