<?xml version="1.0" encoding="utf-8"?>
<!-- Generator: Adobe Illustrator 24.0.1, SVG Export Plug-In . SVG Version: 6.00 Build 0)  -->
<svg version="1.1" id="Layer_1" xmlns="http://www.w3.org/2000/svg" xmlns:xlink="http://www.w3.org/1999/xlink" x="0px" y="0px"
	 viewBox="0 0 141.7 141.7" style="enable-background:new 0 0 141.7 141.7;" xml:space="preserve">
<style type="text/css">
	.st0{fill:#070707;}
	.st1{enable-background:new    ;}
</style>
<g id="Layer_1_1_">
</g>
<g id="Layer_1_2_">
</g>
<g id="Layer_1_3_">
</g>
<g id="Layer_1_4_">
</g>
<g id="Layer_1_5_">
</g>
<g id="Layer_3">
</g>
<g id="Layer_3_1_">
</g>
<g id="Layer_2_1_">
	<g>
		<g>
			<g>
				<g>
					<path d="M42.9,84.3c0.7-4.2,0.7-8.5,0.4-12.7c-0.2-2.1-0.6-4.3-0.5-6.4c0.1-2.2,0.6-4.3,1.1-6.4c0.1-0.4-0.5-0.6-0.6-0.2
						c-0.5,1.9-1,3.9-1.1,5.9c-0.2,2.1,0.2,4.3,0.4,6.4c0.4,4.4,0.4,8.9-0.3,13.2C42.2,84.5,42.8,84.7,42.9,84.3L42.9,84.3z"/>
				</g>
			</g>
		</g>
		<g>
			<g>
				<g>
					<path d="M48.3,113.3c-0.7-0.5-1.3-1-1.9-1.6c-0.3-0.3-0.8,0.2-0.5,0.5c0.6,0.6,1.3,1.2,2,1.7C48.3,114.1,48.6,113.6,48.3,113.3
						L48.3,113.3z"/>
				</g>
			</g>
		</g>
		<g>
			<g>
				<g>
					<path d="M67.2,120.1c-4.6-1.1-9.1-2.4-13.5-4.1c-0.4-0.2-0.5,0.5-0.2,0.6c4.4,1.7,8.9,3.1,13.5,4.1
						C67.4,120.8,67.6,120.2,67.2,120.1L67.2,120.1z"/>
				</g>
			</g>
		</g>
		<g>
			<g>
				<g>
					<path d="M75,121.3c-0.8-0.2-1.7-0.1-2.5-0.2c-0.4-0.1-0.6,0.6-0.2,0.6c0.8,0.1,1.7,0,2.5,0.2C75.3,122.1,75.5,121.4,75,121.3
						L75,121.3z"/>
				</g>
			</g>
		</g>
		<g>
			<g>
				<g>
					<path d="M103.4,103c-0.1,0.8-0.2,1.6-0.2,2.4c0,0.4,0,0.8,0.3,1.2c0.3,0.4,1,0.5,1.4,0.7c0.6,0.3,1.3,0.6,1.6,1.3
						c0.3,0.7-0.6,0.7-1.1,0.7c-0.4,0.1-0.8,0.1-1.2,0.3c-1.2,0.5-2,1.5-2.8,2.5c-0.9,1.2-1.6,2.6-2.6,3.8c-1.1,1.3-2.4,2.3-3.7,3.2
						c-2.8,1.8-6.1,2.7-9.4,2.8c-0.4,0-0.4,0.7,0,0.7c5.1,0,10.3-2.2,13.6-6.2c0.8-0.9,1.4-1.9,2.1-2.9c0.7-1.1,1.6-2.4,2.8-3
						c0.8-0.4,1.6-0.2,2.3-0.5c0.5-0.2,0.8-0.5,0.7-1.1c-0.2-0.9-1.1-1.6-1.9-1.9c-0.3-0.1-0.5-0.2-0.8-0.3c-0.5-0.2-0.7-0.5-0.7-1
						c0-0.8,0.2-1.6,0.2-2.4C104.1,102.6,103.4,102.6,103.4,103L103.4,103z"/>
				</g>
			</g>
		</g>
		<g>
			<g>
				<g>
					<path d="M94,46.7c3.3,5.5,2,12,1.7,18.1c-0.1,3,0,6,0.7,8.9c0.4,1.5,0.9,2.9,1.7,4.1c0.9,1.4,1.9,2.7,2.9,4
						c0.5,0.7,1.2,1.5,1.5,2.4c0.3,1,0,1.8-0.3,2.7c-0.6,1.6-0.2,2.8,0.3,4.4c0.1,0.4,0.7,0.2,0.6-0.2c-0.2-0.8-0.5-1.5-0.6-2.3
						c-0.1-0.8,0.2-1.5,0.5-2.2c0.5-1.3,0.4-2.4-0.3-3.6c-0.8-1.4-2-2.7-3-4c-1-1.4-1.8-2.8-2.3-4.4c-1.9-6.1-0.5-12.5-0.5-18.7
						c0-3.3-0.6-6.6-2.3-9.5C94.3,46,93.8,46.3,94,46.7L94,46.7z"/>
				</g>
			</g>
		</g>
		<g>
			<g>
				<g>
					<path d="M79,35.2c6.4,1.6,11.8,5.8,15,11.6c0.2,0.4,0.8,0,0.5-0.3c-3.2-5.9-8.8-10.2-15.3-11.9C78.8,34.5,78.7,35.1,79,35.2
						L79,35.2z"/>
				</g>
			</g>
		</g>
		<g>
			<path class="st0" d="M52.5,48.7c-1.3,0.1-2.3,1.1-2.2,2.3c0.1,1.3,1.1,2.2,2.4,2.2c1.3-0.1,2.3-1.1,2.2-2.3
				C54.9,49.6,53.8,48.6,52.5,48.7z M53.6,52.3c-0.4,0-0.7-0.3-0.7-0.6s0.3-0.7,0.6-0.7c0.4,0,0.7,0.3,0.7,0.6S54,52.3,53.6,52.3z"
				/>
		</g>
		<g>
			<g>
				<g>
					<path d="M48.1,43c-4.1,0.2-7.9,3.2-9.1,7.1c-1.2,3.9,1.2,8.6,5.6,8.8c0.3,0,0.3-0.4,0-0.4c-4.4-0.2-6.4-4.9-5-8.7
						c1.3-3.5,4.8-6.1,8.5-6.3C48.3,43.4,48.3,43,48.1,43L48.1,43z"/>
				</g>
			</g>
		</g>
		<g>
			<g>
				<g>
					<path d="M48.6,60.5c-0.9-0.2-1.5,0.3-2.3,0.5c-1.6,0.5-1.9-1.7-1.3-2.7c0.3-0.5-0.5-0.9-0.7-0.4c-0.7,1.1-0.5,2.7,0.5,3.6
						c0.4,0.4,1,0.5,1.5,0.4c0.7-0.1,1.4-0.8,2.1-0.6C48.9,61.4,49.2,60.6,48.6,60.5L48.6,60.5z"/>
				</g>
			</g>
		</g>
		<g>
			<g>
				<path d="M44.6,58c0.1,0.4,0.6,0.7,1,0.7c0.4,0,0.9-0.1,1.3-0.3c0.7-0.3,1.5-0.5,2.2-0.8c0.7-0.2,1.4-0.5,1.9-1
					c0.5-0.5,0.8-1.3,0.4-2c-0.2-0.3-0.5-0.5-0.8-0.7c-1.4-0.7-3.2-0.8-4.5,0.1c-1.3,0.8-2,2.6-1.4,4"/>
			</g>
		</g>
		<g>
			<g>
				<g>
					<path d="M51.1,54.8c1.5,0.6,3.5,2.5,2,4.2c-1.3,1.4-3.6,1.2-5.3,1.5c-0.4,0.1-0.2,0.7,0.2,0.6c2-0.4,5.3-0.2,6.1-2.7
						c0.7-2-1.1-3.7-2.8-4.3C50.9,54,50.7,54.6,51.1,54.8L51.1,54.8z"/>
				</g>
			</g>
		</g>
		<g>
			<g>
				<g>
					<path d="M50.9,60.6c0.1,1.1,0.3,2.4-0.3,3.4c-0.2,0.4-0.7,1-1.2,0.5c-0.2-0.2-0.3-0.8-0.3-1c-0.2-0.8-0.3-1.6-0.2-2.4
						c0-0.4-0.6-0.4-0.7,0c-0.1,0.9,0.1,5.1,1.9,4.3c1.7-0.7,1.6-3.3,1.4-4.8C51.5,60.2,50.8,60.2,50.9,60.6L50.9,60.6z"/>
				</g>
			</g>
		</g>
		<g>
			<g>
				<g>
					<path d="M49.5,65c-1.7-0.1-2.8-1.8-2.1-3.4c0.2-0.4-0.4-0.7-0.5-0.3c-0.9,2.1,0.5,4.2,2.7,4.3C49.9,65.7,49.9,65,49.5,65
						L49.5,65z"/>
				</g>
			</g>
		</g>
		<g>
			<g>
				<g>
					<path class="st0" d="M85.8,79.1c-1.4,1.4-2.9,3.3-3.1,5.4c-0.2,1.5,0.6,2.7,2.2,2.7c0.3,0,0.3-0.4,0-0.4c-1.7,0-2-1.6-1.6-3
						c0.5-1.7,1.6-3.2,2.8-4.3C86.3,79.2,86,78.9,85.8,79.1L85.8,79.1z"/>
				</g>
			</g>
		</g>
		<g>
			<g>
				<g>
					<path class="st0" d="M85.9,84.4c-0.9,1.1-1.5,3.4,0.6,3.5c2.6,0.2,3.9-3.2,4.6-5.2c0.1-0.3-0.3-0.4-0.4-0.1
						c-0.5,1.6-1.4,3.8-2.9,4.6c-0.8,0.4-2.2,0.4-2.2-0.7c0-0.7,0.4-1.3,0.8-1.8C86.4,84.5,86.1,84.2,85.9,84.4L85.9,84.4z"/>
				</g>
			</g>
		</g>
		<g>
			<g>
				<g>
					<path class="st0" d="M50.2,113.2c2.2-0.4,2.5,2.4,3.6,3.7c0.1-0.1,0.1-0.2,0.2-0.4c-1.3-0.2-2.5,0.4-3.7,0.8
						c-1.3,0.5-3.1,1.1-4-0.4c-1.5-2.5,3-3.5,4.7-3.8c0.3-0.1,0.2-0.5-0.1-0.4c-1.7,0.3-6.1,1.3-5.2,3.9c1.3,3.8,5.8,0,8.3,0.3
						c0.2,0,0.4-0.2,0.2-0.4c-1.3-1.5-1.5-4.3-4-3.8C49.8,112.8,49.9,113.2,50.2,113.2L50.2,113.2z"/>
				</g>
			</g>
		</g>
		<g>
			<g>
				<g>
					<path class="st0" d="M46.5,117.1c0-1.2,1.2-1.8,2.2-2c0.3-0.1,0.2-0.5-0.1-0.4c-1.3,0.2-2.5,1-2.5,2.4
						C46.1,117.4,46.5,117.4,46.5,117.1L46.5,117.1z"/>
				</g>
			</g>
		</g>
		<g>
			<g>
				<g>
					<path class="st0" d="M78.6,119c2.9-1.8,4.8,2,7,3.2c0-0.1,0-0.3,0.1-0.4c-1.8,0.4-3.2,1.7-4.5,2.8c-1.4,1.2-3.4,2.9-5.4,1.9
						c-4.6-2.4,1.5-6.7,3.8-8c0.2-0.1,0-0.5-0.2-0.4c-1.3,0.8-2.6,1.6-3.7,2.7c-1,0.9-2.1,2.2-2,3.6c0.1,1.4,1.6,2.6,2.9,2.8
						c1.5,0.3,2.8-0.7,3.9-1.5c1.6-1.3,3.2-3.1,5.3-3.5c0.2,0,0.2-0.3,0.1-0.4c-2.4-1.4-4.3-5.1-7.4-3.2
						C78.1,118.8,78.3,119.2,78.6,119L78.6,119z"/>
				</g>
			</g>
		</g>
		<g>
			<g>
				<g>
					<path class="st0" d="M75.6,126.4c-0.6-1.7,0.6-3.1,2-4c0.2-0.1,0-0.5-0.2-0.4c-1.6,0.9-2.9,2.6-2.2,4.5
						C75.3,126.7,75.7,126.6,75.6,126.4L75.6,126.4z"/>
				</g>
			</g>
		</g>
		<g>
			<g>
				<g>
					<path class="st0" d="M86.8,37.9c3-2.1,8.1-3.7,10.9-0.4c2.7,3.1,2.2,8.7-2.2,10.1c-0.3,0.1-0.2,0.5,0.1,0.4
						c4.5-1.4,5.2-7,2.7-10.4c-2.8-3.8-8.4-2.4-11.8,0C86.4,37.6,86.6,38,86.8,37.9L86.8,37.9z"/>
				</g>
			</g>
		</g>
		<g>
			<path class="st0" d="M94.9,41.1c-0.2-1-1.1-1.8-2.2-1.6c-1.1,0.2-1.8,1.1-1.6,2.2c0.2,1,1.1,1.8,2.2,1.6
				C94.3,43.1,95.1,42.1,94.9,41.1z"/>
		</g>
		<g>
			<path class="st0" d="M41.4,49.2c-1.3,0.1-2.3,1.1-2.2,2.3c0.1,1.3,1.1,2.2,2.4,2.2c1.3-0.1,2.3-1.1,2.2-2.3
				C43.7,50.1,42.7,49.1,41.4,49.2z M42.5,52.8c-0.4,0-0.7-0.3-0.7-0.6s0.3-0.7,0.6-0.7c0.4,0,0.7,0.3,0.7,0.6
				C43.1,52.5,42.8,52.8,42.5,52.8z"/>
		</g>
		<g>
			<g>
				<g>
					<path d="M64,45.3c2.6,2.5,1.9,6.4-0.4,8.8c-2.4,2.6-6.1,3.5-9.5,2.6c-0.3-0.1-0.4,0.3-0.1,0.4c3.7,1,7.8-0.1,10.3-3.1
						c2.1-2.6,2.7-6.6,0.1-9.1C64.1,44.8,63.8,45.1,64,45.3L64,45.3z"/>
				</g>
			</g>
		</g>
		<g>
			<g>
				<g>
					<path d="M49.2,54c-2.5-2.7-1.2-6.7,1.3-8.8c0.2-0.2-0.1-0.5-0.3-0.3c-2.7,2.3-3.9,6.6-1.3,9.4C49,54.5,49.3,54.2,49.2,54
						L49.2,54z"/>
				</g>
			</g>
		</g>
		<g>
			<g>
				<g>
					<path class="st0" d="M42.6,76.6c-2.1,0.1-4.4,0.7-6.1,2c-1.4,1-2.1,2.7-0.6,3.9c0.2,0.2,0.5-0.1,0.3-0.3
						c-1.8-1.4,0-3.1,1.4-3.8c1.5-0.8,3.2-1.3,5-1.3C42.9,77,42.9,76.6,42.6,76.6L42.6,76.6z"/>
				</g>
			</g>
		</g>
		<g>
			<g>
				<g>
					<path class="st0" d="M41.5,83.8c0.3-0.2,0.6-0.3,1-0.5c0.2-0.1,0-0.5-0.2-0.4c-0.3,0.2-0.6,0.3-1,0.5
						C41.1,83.6,41.3,84,41.5,83.8L41.5,83.8z"/>
				</g>
			</g>
		</g>
		<g>
			<g>
				<g>
					<path class="st0" d="M38.5,80.9c-0.8,0.2-1.5,0.5-2,1.1c-0.2,0.2,0.1,0.5,0.3,0.3c0.5-0.5,1.1-0.8,1.8-1
						C38.9,81.2,38.8,80.8,38.5,80.9L38.5,80.9z"/>
				</g>
			</g>
		</g>
		<g>
			<g>
				<g>
					<path class="st0" d="M72.2,30.9c3.3-0.8,6.8,1,7.8,4.3c0.1,0.3,0.5,0.2,0.4-0.1c-1.1-3.6-4.8-5.5-8.4-4.6
						C71.8,30.5,71.9,30.9,72.2,30.9L72.2,30.9z"/>
				</g>
			</g>
		</g>
		<g>
			<g>
				<g>
					<path d="M72.1,80.7c-5.4,1.9-11.2,4.2-16.9,2.7c-4.9-1.2-8-5.9-11.2-9.5c-0.3-0.3-0.7,0.1-0.5,0.5c3.2,3.7,6.4,8.4,11.5,9.7
						c5.9,1.5,11.8-0.8,17.2-2.7C72.6,81.2,72.5,80.6,72.1,80.7L72.1,80.7z"/>
				</g>
			</g>
		</g>
		<g>
			<g>
				<g>
					<path d="M96.2,71.6c-3.4,2.7-7.6,4-11.7,5.2c-0.4,0.1-0.2,0.7,0.2,0.6c4.2-1.3,8.5-2.6,12-5.4C96.9,71.8,96.5,71.4,96.2,71.6
						L96.2,71.6z"/>
				</g>
			</g>
		</g>
		<g>
			<g>
				<g>
					<path d="M51.8,44.6c-2.7-1.5-5.8-1.4-8.7-0.8c-0.8,0.2-1.5,0.3-2.3,0.5c-0.3,0.1-1.2,0.4-1.3-0.1c-0.1-0.3,0.5-1,0.7-1.2
						c0.9-1.2,2.4-2,3.7-2.7c5.4-2.9,11.7-3.7,17.8-3.5c3.4,0.1,6.9,0.4,10.3,0.9c0.4,0.1,0.6-0.6,0.2-0.6
						c-6.5-0.9-13.2-1.4-19.8-0.3c-3.2,0.6-6.4,1.6-9.3,3.2c-1.2,0.7-2.6,1.5-3.4,2.6c-0.4,0.6-1.5,2.4-0.1,2.6
						c0.7,0.1,1.7-0.3,2.4-0.5c1.1-0.3,2.2-0.5,3.3-0.6c2.1-0.3,4.4-0.1,6.3,1C51.8,45.4,52.2,44.8,51.8,44.6L51.8,44.6z"/>
				</g>
			</g>
		</g>
		<g>
			<g>
				<g>
					<path d="M71.5,37.8c0.6,0.2,1.3,0.4,1.7,1c0.5,0.8-0.1,1.4-0.8,1.6c-0.4,0.1-0.2,0.8,0.2,0.6c0.9-0.3,1.7-0.9,1.4-2
						c-0.3-1.1-1.3-1.5-2.3-1.9C71.3,37,71.2,37.6,71.5,37.8L71.5,37.8z"/>
				</g>
			</g>
		</g>
		<g>
			<g>
				<g>
					<path d="M74.3,39.5c0.6-1.5,1.1-3.1,1.4-4.7c0.2-1,0.4-2.2-0.2-3.1c-0.7-1-2.3-1-3.3-1.2c-1.4-0.2-2.8-0.4-4.2-0.5
						c-2.7-0.2-5.5,0.1-8,1.2c-2.7,1.3-4.3,3.7-6.6,5.6c-0.3,0.3,0.1,0.7,0.5,0.5c2-1.6,3.4-3.7,5.6-5c2.2-1.3,4.9-1.7,7.4-1.6
						c1.3,0,2.5,0.2,3.8,0.4c1.2,0.2,2.6,0.3,3.8,0.8c1.4,0.6,0.8,2.5,0.6,3.7c-0.3,1.4-0.7,2.7-1.2,4
						C73.6,39.7,74.2,39.9,74.3,39.5L74.3,39.5z"/>
				</g>
			</g>
		</g>
		<g>
			<g>
				<g>
					<path d="M72.7,38c1.1-2.2,0.2-5.3-2.4-6c-3-0.9-5.1,1.6-5.6,4.3c-0.1,0.4,0.6,0.6,0.6,0.2c0.3-2.3,1.9-4.5,4.5-3.9
						c2.2,0.5,3.2,3.2,2.2,5.1C72,38,72.5,38.4,72.7,38L72.7,38z"/>
				</g>
			</g>
		</g>
		<g>
			<g>
				<g>
					<path d="M62.7,36.4C62.8,36.5,62.8,36.5,62.7,36.4c0.1,0.2,0.2,0.3,0.3,0.3c0.9,0,1-1.6,1.1-2.3c0.1-1.1-0.4-2.1-1.5-2.4
						c-2.4-0.7-4.6,1.9-4.9,4c-0.1,0.4,0.6,0.6,0.6,0.2c0.2-1.6,1.3-3.1,2.9-3.5c0.9-0.3,2,0,2.3,1c0.1,0.3,0,2.3-0.4,2.4
						c0.1,0.1,0.2,0.2,0.3,0.2c0,0,0-0.1,0-0.1C63.2,35.9,62.6,36,62.7,36.4L62.7,36.4z"/>
				</g>
			</g>
		</g>
		<g>
			<g>
				<g>
					<path d="M74.9,32c1.6,1.3,3.1,2.7,4.6,4.1c0.7,0.7,1.5,1.5,2.1,2.2c0.7,0.8,1.5,1.5,2.1,2.4c0.4,0.6,0.7,1.7-0.5,1.8
						c-0.5,0.1-1.2-0.2-1.7-0.3c-1-0.3-2.1-0.5-3.1-0.8c-2-0.5-4-1.3-6.1-1c-0.4,0.1-0.2,0.7,0.2,0.6c1.5-0.2,2.8,0.2,4.2,0.6
						c1.3,0.4,2.6,0.7,3.9,1c0.9,0.2,2.2,0.8,3.1,0.4c0.7-0.3,0.9-1,0.9-1.6c-0.1-0.9-0.8-1.6-1.4-2.2c-0.8-0.9-1.6-1.8-2.5-2.7
						c-1.7-1.8-3.6-3.4-5.5-5C75,31.3,74.6,31.7,74.9,32L74.9,32z"/>
				</g>
			</g>
		</g>
		<g>
			<g>
				<g>
					<path d="M85.1,73.9c0.5,0.9,1,1.7,1.6,2.5c0.2,0.3,0.8,0,0.5-0.3c-0.6-0.8-1.1-1.6-1.6-2.5C85.5,73.2,85,73.6,85.1,73.9
						L85.1,73.9z"/>
				</g>
			</g>
		</g>
		<g>
			<g>
				<g>
					<path d="M82.4,42.8c0.8,6,0,12,0.1,18c0,0.4,0.7,0.4,0.7,0c-0.1-6.1,0.7-12.1-0.1-18.2C83,42.2,82.3,42.4,82.4,42.8L82.4,42.8z
						"/>
				</g>
			</g>
		</g>
		<g>
			<g>
				<g>
					<path d="M72.3,40.8c-0.9,5.9-1.8,12-5,17.2c-1.8,2.9-4.3,5-7.1,6.8c-2.8,1.7-6.1,3.1-9.5,2.8c-3.3-0.3-6.5-2.4-7.4-5.6
						c-0.1-0.4-0.7-0.2-0.6,0.2c0.8,2.7,3,4.7,5.7,5.6c3.1,1,6.5,0.4,9.4-0.9c3.2-1.4,6.3-3.6,8.5-6.3c2-2.4,3.4-5.3,4.3-8.3
						c1.1-3.6,1.8-7.4,2.3-11.2C73,40.6,72.4,40.4,72.3,40.8L72.3,40.8z"/>
				</g>
			</g>
		</g>
		<g>
			<g>
				<g>
					<path d="M44,73.8c-0.1-0.1-0.2-0.2-0.3-0.3c-0.2-0.2-0.4-0.2-0.6,0s-0.2,0.4,0,0.6c0.1,0.1,0.2,0.2,0.3,0.3
						c0.2,0.2,0.4,0.2,0.6,0C44.1,74.3,44.1,74,44,73.8L44,73.8z"/>
				</g>
			</g>
		</g>
		<g>
			<g>
				<g>
					<path d="M36.5,109.6c0.9,2,1.9,4.3,3.6,5.7c1.8,1.4,3.6,0.6,4.9-1.1c1.5-2.1,2.4-5,3.2-7.5c1.2-3.5,2-7.2,2.4-10.9
						c0.2-1.8,0.3-3.7,0.3-5.5c0-1.2,0.3-3.3-0.8-4.2c-0.5-0.4-1.1-0.5-1.7-0.6c-1-0.2-2-0.4-3-0.6c-1.8-0.4-3.6-0.9-5.4-1.5
						c-1.6-0.5-3.5-1.1-4.5-2.5c-0.6-0.8-1.1-2-2.3-1.6c-0.9,0.3-1.3,1.3-1.6,2.1c-0.5,1.4-0.6,3-0.8,4.4
						C30.2,94.1,33.1,102.1,36.5,109.6c0.2,0.4,0.7,0.1,0.5-0.3c-2.7-6-5.1-12.3-5.5-19c-0.2-2.9-0.2-6.1,0.8-8.8
						c0.2-0.5,0.4-1,0.8-1.4c0.8-0.7,1.3,0.2,1.7,0.8c0.7,1,1.6,1.7,2.7,2.2c2.8,1.3,5.9,2.1,8.9,2.7c0.8,0.2,1.5,0.3,2.3,0.4
						c0.4,0.1,0.8,0.2,1.1,0.4c0.4,0.4,0.5,1,0.5,1.5c0.1,1.6,0,3.3-0.1,4.9c-0.4,6.2-1.9,12.1-4.2,17.8c-0.7,1.9-2.5,5.7-5.1,4.1
						c-1.9-1.2-2.9-3.8-3.8-5.8C36.9,108.9,36.3,109.2,36.5,109.6z"/>
				</g>
			</g>
		</g>
		<g>
			<g>
				<g>
					<path d="M84.1,80.7c-3-1.2-6-2.3-9.1-3c-1.5-0.3-3-0.6-4.5-0.7c-1-0.1-2.2-0.1-2.8,0.8c-0.6,0.7-0.2,1.4,0.6,1.8
						c1.4,0.7,3.1,1.2,4.5,1.7c3.1,1.1,6.3,2.1,9.5,3c0.4,0.1,0.6-0.5,0.2-0.6c-2.6-0.7-5.1-1.5-7.6-2.4c-1.3-0.4-2.5-0.9-3.8-1.3
						c-0.6-0.2-1.2-0.5-1.9-0.7c-0.2-0.1-0.8-0.2-0.9-0.4c-0.7-0.6,0.4-1.1,0.7-1.2c1.2-0.3,2.7,0,3.9,0.2c1.3,0.2,2.5,0.5,3.7,0.8
						c2.5,0.7,4.9,1.6,7.3,2.6C84.4,81.4,84.5,80.8,84.1,80.7L84.1,80.7z"/>
				</g>
			</g>
		</g>
		<g>
			<g>
				<g>
					<path d="M67.6,124.6c0-11.5,1.3-22.9,3.7-34.1c0.7-3.1,1.5-6.2,2.3-9.3c0.1-0.4-0.5-0.6-0.6-0.2c-3.1,11-5.1,22.3-5.8,33.8
						c-0.2,3.3-0.3,6.6-0.3,9.9C66.9,125.1,67.6,125.1,67.6,124.6L67.6,124.6z"/>
				</g>
			</g>
		</g>
		<g>
			<g>
				<g>
					<path d="M80,79.3c0.8-2.8,1.4-5.6,1.9-8.4c0.2-1.3,0.4-2.6,0.6-3.9c0.1-0.7,0.2-1.4,0.2-2.1c0.1-0.5,0.1-0.9-0.2-1.3
						c-0.1-0.1-0.2-0.2-0.4-0.2c-1,0.2-1.2,1.3-1.4,2.1c-0.4,1.4-0.7,2.7-1.1,4.1c-0.7,2.9-1.3,5.8-1.7,8.7
						c-0.1,0.4,0.5,0.6,0.6,0.2c0.4-2.5,0.9-5,1.4-7.4c0.3-1.2,0.5-2.4,0.9-3.5c0.2-0.6,0.3-1.3,0.5-1.9c0.2-0.6,0.3-1.5,1-1.6
						c-0.1-0.1-0.2-0.1-0.4-0.2c0.3,0.5,0,1.4,0,1.9c-0.1,0.7-0.2,1.5-0.3,2.2c-0.2,1.2-0.4,2.5-0.6,3.7c-0.5,2.5-1.1,5-1.8,7.4
						C79.3,79.5,79.9,79.7,80,79.3L80,79.3z"/>
				</g>
			</g>
		</g>
		<g>
			<g>
				<g>
					<path d="M83,63.9c0.8-0.1,1.5-0.9,1.5-1.8c0-0.9-0.7-1.5-1.5-1.6c-0.8-0.1-1.6,0.4-1.8,1.2c-0.2,0.8,0.2,1.7,1,2.1
						c0.4,0.2,0.7-0.4,0.3-0.5c-1-0.5-0.9-2.2,0.4-2.1c1.3,0.1,1.2,2,0,2.2C82.4,63.3,82.6,64,83,63.9L83,63.9z"/>
				</g>
			</g>
		</g>
		<g>
			<g>
				<g>
					<path d="M83.6,35.8c-0.2-1.2-0.5-2.4-0.7-3.7c-0.1-0.5-0.1-1.4-0.8-1.4c-0.7,0-1,0.9-1.2,1.4c-0.5,0.9-0.8,1.9-1.1,2.8
						c-0.1,0.4,0.5,0.6,0.6,0.2c0.2-0.7,0.5-1.4,0.8-2c0.1-0.2,0.7-1.7,1-1.4c0.1,0.1,0.2,0.9,0.2,1c0.1,0.3,0.1,0.7,0.2,1
						c0.2,0.8,0.3,1.5,0.5,2.3C83.1,36.4,83.7,36.2,83.6,35.8L83.6,35.8z"/>
				</g>
			</g>
		</g>
		<g>
			<g>
				<g>
					<path d="M82.4,30.5c1.5-3.7,3.3-7.4,5.5-10.8c1-1.7,2.3-3.1,4.2-3.7c1.8-0.5,3.7-0.4,5.4-0.1c6.8,1.2,13.7,5.7,14.1,13.2
						c0.1,1.8-0.2,4.5-2,5.4c-1.2,0.6-2-0.6-2-1.7c0.1-1.2,1-2.1,1.8-2.9c0.2-0.2,0.1-0.4-0.1-0.5c-0.4-0.2-0.8,0-1.2,0.3
						c-0.2,0.1-0.4,0.3-0.6,0.5c-0.1,0.1-0.3,0.3-0.4,0.3c-0.4,0-0.4-0.7-0.3-1c0.2-1.5,1.1-3,0.3-4.4c-0.2-0.4-0.8,0-0.5,0.3
						c0.6,1,0.1,2.2-0.2,3.2c-0.1,0.6-0.4,1.6,0.1,2.2c0.9,1.3,1.9-1,2.8-0.6c-0.1-0.2-0.1-0.4-0.1-0.5c-1.2,1.2-2.5,2.8-1.8,4.6
						c0.6,1.5,2.3,1.5,3.3,0.6c1.4-1.3,1.8-3.4,1.7-5.2c0-1.9-0.5-3.8-1.4-5.5c-1.9-3.7-5.4-6.3-9.3-7.6C98,15,93,14,89.8,16.5
						c-2,1.5-3.1,4-4.3,6.1c-1.4,2.5-2.6,5.1-3.7,7.7C81.6,30.7,82.3,30.9,82.4,30.5L82.4,30.5z"/>
				</g>
			</g>
		</g>
		<g>
			<g>
				<g>
					<path d="M105.3,26.6c-0.5-1.1-0.8-2.2-0.9-3.4c0-0.3-0.6-0.5-0.6-0.1c-0.2,1-0.6,1.8-1.3,2.6c0.2,0,0.3,0,0.5,0
						c-0.6-0.6-1-1.3-1.2-2.2c-0.1-0.3-0.5-0.3-0.6-0.1c-0.1,0.1-0.3,0.1-0.4,0.2c-0.4-0.2-0.5-0.5-0.4-0.9c0-0.3,0.1-0.5,0.2-0.8
						c0.1-0.2-0.2-0.4-0.4-0.4c-0.5,0.1-1.1,0.3-1.6,0.4c-0.2,0.1-0.8,0.3-1,0.2c-0.4-0.1-0.5-0.5-0.5-0.8c0-0.7-0.4-1.3-0.9-1.6
						c-0.5-0.3-1.2-0.4-1.8-0.3c-0.3,0.1-0.7,0.2-1,0.3c-0.5,0.2-0.9,0.8-1.5,0.5c-0.4-0.2-0.6-0.8-1.2-0.6
						c-0.5,0.2-0.5,0.8-0.8,1.1c-0.3,0.4-1,0.3-1.4,0.4c-0.4,0.1-0.7,0.2-1.1,0.4c-0.8,0.4-1.4,0.9-1.9,1.6
						c-0.3,0.3,0.3,0.7,0.5,0.3c0.6-0.8,1.5-1.4,2.5-1.7c0.6-0.2,1.3,0,1.7-0.5c0.2-0.2,0.2-0.4,0.4-0.7c0.2-0.3,0.3-0.2,0.6,0
						c0.4,0.4,0.8,0.5,1.3,0.2c0.8-0.3,1.3-0.9,2.2-0.9c0.5,0,1.1,0.1,1.4,0.6c0.3,0.5,0.1,0.9,0.2,1.4c0.1,0.5,0.4,0.8,1,0.8
						c1-0.1,2-0.5,2.9-0.7c-0.1-0.1-0.3-0.3-0.4-0.4c-0.2,0.8-0.5,1.8,0.4,2.3c0.5,0.3,1.2,0.2,1.5-0.4c-0.2,0-0.4-0.1-0.6-0.1
						c0.2,1,0.7,1.8,1.4,2.5c0.1,0.1,0.3,0.1,0.5,0c0.8-0.8,1.3-1.8,1.5-2.8c-0.2,0-0.4-0.1-0.6-0.1c0.1,1.3,0.4,2.6,1,3.8
						C104.9,27.3,105.5,27,105.3,26.6L105.3,26.6z"/>
				</g>
			</g>
		</g>
		<g>
			<g>
				<g>
					<path d="M112.9,26.9c0-2.5-0.2-5.1-1.6-7.2c-1.5-2.1-3.8-3.3-6-4.4c-2.4-1.2-5-2.5-7.8-2.4c-2.4,0-4.6,1-6.3,2.7
						c-0.3,0.3,0.2,0.8,0.5,0.5c1.7-1.7,3.9-2.6,6.3-2.5c2.6,0.1,5,1.3,7.3,2.4c2,1,4.2,2.1,5.5,4c1.4,2,1.5,4.5,1.5,6.9
						C112.2,27.3,112.9,27.3,112.9,26.9L112.9,26.9z"/>
				</g>
			</g>
		</g>
		<g>
			<g>
				<g>
					<path d="M86,23.3c0.3-1.7-0.3-3.3-1.6-4.4c-0.4-0.3-1,0.3-0.6,0.6c1.1,0.9,1.6,2.2,1.4,3.6C85.1,23.6,85.9,23.8,86,23.3
						L86,23.3z"/>
				</g>
			</g>
		</g>
		<g>
			<g>
				<g>
					<path d="M85.5,23.7c-0.2-0.9-0.7-1.6-1.4-2.1c-0.5-0.3-0.9,0.4-0.4,0.7c0.6,0.4,0.9,0.9,1,1.6C84.8,24.5,85.6,24.3,85.5,23.7
						L85.5,23.7z"/>
				</g>
			</g>
		</g>
		<g>
			<g>
				<g>
					<path d="M84.3,24.5c-0.2-0.2-0.4-0.3-0.7-0.5c-0.2-0.1-0.5,0-0.6,0.2c-0.1,0.2,0,0.4,0.2,0.6c0.2,0.2,0.4,0.3,0.7,0.5
						c0.2,0.1,0.5,0,0.6-0.2C84.6,24.9,84.5,24.6,84.3,24.5L84.3,24.5z"/>
				</g>
			</g>
		</g>
		<g>
			<g>
				<g>
					<path d="M83.4,25.7c-0.2-0.1-0.3-0.2-0.5-0.3c-0.2-0.1-0.5,0-0.6,0.2c-0.1,0.2-0.1,0.4,0.2,0.6c0.2,0.1,0.3,0.2,0.5,0.3
						c0.2,0.1,0.5,0,0.6-0.2C83.7,26.1,83.6,25.8,83.4,25.7L83.4,25.7z"/>
				</g>
			</g>
		</g>
		<g>
			<g>
				<g>
					<path d="M82.7,26c-0.3-0.1-0.6-0.1-0.8-0.2c-0.2-0.1-0.5,0.1-0.5,0.3c-0.1,0.2,0.1,0.5,0.3,0.5c0.3,0.1,0.6,0.1,0.8,0.2
						c0.2,0.1,0.5-0.1,0.5-0.3S82.9,26.1,82.7,26L82.7,26z"/>
				</g>
			</g>
		</g>
		<g>
			<g>
				<g>
					<path d="M85.7,25.1c0.8,0,1.5,0.3,2,1c0.3,0.4,1,0,0.7-0.4c-0.6-0.9-1.6-1.5-2.7-1.4C85.2,24.3,85.2,25.1,85.7,25.1L85.7,25.1z
						"/>
				</g>
			</g>
		</g>
		<g>
			<g>
				<g>
					<path d="M84.9,26.5c0.1,0.2,0.2,0.4,0.2,0.5c0,0.2,0.2,0.4,0.4,0.4c0.2,0,0.4-0.2,0.4-0.4c0-0.4-0.2-0.8-0.5-1.1
						c-0.2-0.2-0.4-0.2-0.6,0C84.8,26.1,84.8,26.4,84.9,26.5L84.9,26.5z"/>
				</g>
			</g>
		</g>
		<g>
			<g>
				<g>
					<path d="M84.3,27.3c0.1,0,0.1,0.1,0.2,0.2c0,0,0,0,0,0c0,0,0,0.1,0,0.1c0-0.1,0,0.1,0,0.1c0,0.2,0.1,0.5,0.3,0.5
						c0.2,0.1,0.5-0.1,0.5-0.3c0.1-0.5-0.1-1-0.6-1.3C84.3,26.3,83.9,27,84.3,27.3L84.3,27.3z"/>
				</g>
			</g>
		</g>
		<g>
			<g>
				<g>
					<path d="M83.8,28.2C83.9,28.2,83.9,28.2,83.8,28.2C83.8,28.1,83.8,28.1,83.8,28.2C83.7,28,83.7,28,83.7,28s0,0,0-0.1
						c0,0.1,0-0.1,0,0c0-0.1,0.1-0.1,0.1-0.2c-0.1,0.1-0.2,0.1-0.2,0.3c0,0.1,0,0.2,0.1,0.3c0.1,0.2,0.4,0.3,0.6,0.2
						c0.2-0.1,0.3-0.3,0.3-0.5s-0.1-0.4-0.3-0.5c-0.2-0.1-0.5-0.1-0.6,0.2C83.6,27.8,83.6,28.1,83.8,28.2L83.8,28.2z"/>
				</g>
			</g>
		</g>
		<g>
			<g>
				<g>
					<path d="M82.6,28.5c0.1,0.2,0.2,0.3,0.3,0.5c0.1,0.1,0.3,0.2,0.4,0.1c0.1-0.1,0.2-0.3,0.1-0.4c-0.1-0.2-0.2-0.3-0.3-0.5
						c-0.1-0.1-0.3-0.2-0.4-0.1C82.6,28.1,82.5,28.3,82.6,28.5L82.6,28.5z"/>
				</g>
			</g>
		</g>
		<g>
			<g>
				<g>
					<path d="M84,86.9c-1.8,5.7-3.5,11.3-5.3,17c-1.6,5.3-3.1,10.9-6,15.7c-1.6,2.6-3.6,4.9-5.8,6.9c-0.3,0.3,0.1,0.7,0.5,0.5
						c4-3.5,6.9-7.9,8.8-12.9c2.1-5.5,3.7-11.3,5.4-16.9c1-3.3,2.1-6.7,3.1-10C84.8,86.7,84.1,86.5,84,86.9L84,86.9z"/>
				</g>
			</g>
		</g>
		<g>
			<g>
				<g>
					<path d="M91.1,84c0.7,0.4,1,1.4,0.5,2.1c-0.5,0.7-1.5,0.7-2.1,0.2c-0.3-0.3-0.8,0.2-0.5,0.5c0.9,0.8,2.4,0.7,3.1-0.3
						c0.7-1,0.3-2.5-0.7-3.1C91,83.2,90.7,83.8,91.1,84L91.1,84z"/>
				</g>
			</g>
		</g>
		<g>
			<g>
				<g>
					<path d="M83.7,80.2c1.2-3.4,2.3-6.9,2.8-10.5c0.2-1.4,0.3-3.1-0.4-4.4c-0.7-1.1-2-1.5-3.2-1.7c-0.4-0.1-0.6,0.5-0.2,0.6
						c1.4,0.3,2.7,0.7,3.1,2.3c0.4,1.6,0,3.3-0.3,4.9c-0.6,2.9-1.4,5.8-2.5,8.6C83,80.4,83.6,80.6,83.7,80.2L83.7,80.2z"/>
				</g>
			</g>
		</g>
		<g>
			<g>
				<g>
					<path d="M82.2,60.9c1.3-0.7,2.9-0.6,4.1,0.2c0.6,0.4,1.3,1.1,1.3,2c0,1-1.1,1.2-1.9,1.4c-0.4,0.1-0.2,0.7,0.2,0.6
						c0.9-0.2,1.9-0.5,2.2-1.4c0.3-0.9-0.1-1.8-0.7-2.5c-1.4-1.5-3.7-1.8-5.5-0.8C81.5,60.6,81.8,61.1,82.2,60.9L82.2,60.9z"/>
				</g>
			</g>
		</g>
		<g>
			<g>
				<g>
					<path d="M102.4,90.7c-2.7,2.8-6.3,4.4-10.1,5.3c-2,0.5-4.2,0.9-6.3,1c-1.6,0.1-3.4-0.1-5,0.4c-0.4,0.1-0.2,0.8,0.2,0.6
						c1.8-0.6,3.7-0.3,5.5-0.5c2.1-0.2,4.3-0.6,6.3-1.1c3.6-0.9,7.1-2.6,9.7-5.3C103.1,90.9,102.7,90.4,102.4,90.7L102.4,90.7z"/>
				</g>
			</g>
		</g>
		<g>
			<g>
				<g>
					<path d="M69.5,96.9c-3.1,0.6-6.3,1-9.4,1.1c-3.2,0.1-6.5-0.2-9.5-1.5c-0.4-0.2-0.7,0.4-0.3,0.5c3,1.4,6.3,1.7,9.5,1.6
						c3.3-0.1,6.6-0.5,9.9-1.1C70.1,97.4,69.9,96.8,69.5,96.9L69.5,96.9z"/>
				</g>
			</g>
		</g>
		<g>
			<g>
				<g>
					<path d="M102.7,91.6c2.5,1.1,3,4,3.4,6.5c0.2,1,0.5,2.3,0.2,3.3s-2.1,1-3,1.1c-1.3,0.2-2.2,1-3.2,1.7c-0.6,0.4-1.3,0.7-2.1,0.8
						c-0.9,0.1-1.8-0.3-2.7-0.3c-1.2,0-2.3,0.7-3.3,1.2c-0.6,0.3-1.3,0.7-2,0.8c-1,0.2-1.9-0.2-2.9-0.3c-3.6-0.5-6.5,2.6-9.7,3.5
						c-0.4,0.1-0.2,0.7,0.2,0.6c1.6-0.5,3.1-1.3,4.6-2.1c1.9-1,3.7-1.6,5.8-1.2c1.5,0.3,2.7,0.1,4.1-0.7c0.7-0.3,1.3-0.7,2-1
						c1-0.4,1.9-0.2,2.9,0c1.5,0.2,2.7-0.3,3.9-1.2c0.6-0.4,1.2-0.9,2-1.1c0.6-0.2,1.3-0.2,2-0.4c0.9-0.2,1.8-0.4,2-1.4
						c0.3-1,0-2.2-0.1-3.2c-0.4-2.7-1-6-3.8-7.3C102.6,90.9,102.3,91.4,102.7,91.6L102.7,91.6z"/>
				</g>
			</g>
		</g>
		<g>
			<g>
				<g>
					<path d="M67.6,110c-1,0.4-2,0.3-3-0.1c-0.8-0.3-1.5-0.8-2.3-0.8c-0.9,0-1.7,0.4-2.6,0.2c-1-0.2-1.9-0.6-2.8-0.7
						c-0.9-0.2-1.8,0-2.6-0.2c-0.8-0.1-1.6-0.7-2.3-1.1c-1.3-0.7-2.7-1.2-4.2-0.8c-0.4,0.1-0.2,0.7,0.2,0.6c1.9-0.5,3.4,0.6,4.9,1.4
						c0.6,0.3,1.2,0.5,1.9,0.5c1.1,0,2.1,0.1,3.2,0.4c0.8,0.2,1.6,0.6,2.4,0.6c0.9,0,1.8-0.4,2.7-0.1c1.6,0.6,3.1,1.4,4.8,0.7
						C68.1,110.5,68,109.9,67.6,110L67.6,110z"/>
				</g>
			</g>
		</g>
		<g>
			<g>
				<g>
					<path d="M91.4,82.9c-0.7-1.8-2-3.2-3.8-3.7c-0.4-0.1-0.7-0.2-1.1-0.4c-0.3-0.2-0.7-0.3-0.4-0.6c0.6-0.8,2,0.5,2.5-0.7
						c0.2-0.4-0.5-0.5-0.6-0.2c-0.1,0.2-1.6,0-1.8,0.1c-0.3,0.1-0.6,0.4-0.8,0.7c-0.2,0.5,0.2,0.9,0.6,1.2c0.7,0.4,1.4,0.5,2.1,0.8
						c1.3,0.5,2.2,1.8,2.7,3.1C90.9,83.5,91.5,83.3,91.4,82.9L91.4,82.9z"/>
				</g>
			</g>
		</g>
		<g>
			<g>
				<g>
					<path d="M91.5,83.2c1.2-0.7,0.9-2.4,0.2-3.3c-0.3-0.3-0.7,0.1-0.5,0.5c0.5,0.6,0.8,1.8,0,2.3C90.8,82.8,91.1,83.4,91.5,83.2
						L91.5,83.2z"/>
				</g>
			</g>
		</g>
		<g>
			<g>
				<g>
					<path d="M43.3,81.2c0.1-2-1-3.8-2.8-4.6c-0.4-0.2-0.7,0.4-0.3,0.5c1.6,0.7,2.6,2.3,2.5,4.1C42.6,81.6,43.3,81.6,43.3,81.2
						L43.3,81.2z"/>
				</g>
			</g>
		</g>
		<g>
			<g>
				<g>
					<path d="M67.7,126.6c0-0.2,0-0.5,0-0.7c0-0.4-0.7-0.4-0.7,0c0,0.2,0,0.5,0,0.7C67.1,127,67.7,127,67.7,126.6L67.7,126.6z"/>
				</g>
			</g>
		</g>
		<g>
			<g>
				<g>
					<path d="M67.7,126.8c0-0.6,0-1.1,0-1.7c0-0.4-0.7-0.4-0.7,0c0,0.6,0,1.1,0,1.7C67.1,127.2,67.7,127.2,67.7,126.8L67.7,126.8z"
						/>
				</g>
			</g>
		</g>
		<g>
			<g>
				<g>
					<path d="M83.2,33.7c-0.7-0.6-1.5-1-2.5-1.1c-0.4-0.1-0.4,0.6,0,0.7c0.8,0.1,1.5,0.4,2,0.9C83,34.4,83.5,33.9,83.2,33.7
						L83.2,33.7z"/>
				</g>
			</g>
		</g>
		<g>
			<g>
				<g>
					<path d="M113.1,27.1c-0.2-0.4-0.4-0.7-0.7-1.1c-0.1-0.1-0.2-0.1-0.3-0.1c-0.4,0.2-0.7,0.6-0.6,1c0,0.2,0.2,0.3,0.4,0.2
						c0.2-0.1,0.3-0.2,0.2-0.4c0-0.1,0.1-0.2,0.1-0.3c-0.1,0-0.2-0.1-0.3-0.1c0.2,0.3,0.4,0.6,0.6,0.9c0.1,0.2,0.3,0.2,0.4,0.1
						C113.1,27.5,113.2,27.3,113.1,27.1L113.1,27.1z"/>
				</g>
			</g>
		</g>
		<g>
			<g>
				<g>
					<path d="M106.5,24.7c-1,0.1-1.6,1.2-1.4,2.1c0.1,0.4,0.7,0.2,0.6-0.2c-0.2-0.6,0.3-1.3,0.9-1.4
						C107.1,25.2,106.9,24.6,106.5,24.7L106.5,24.7z"/>
				</g>
			</g>
		</g>
		<g>
			<g>
				<g>
					<path d="M104.9,18.6c0.7,0.5,1.1,1.3,1.1,2.1c0,0.4,0.7,0.4,0.7,0c0-1.1-0.5-2.1-1.5-2.7C104.9,17.8,104.6,18.4,104.9,18.6
						L104.9,18.6z"/>
				</g>
			</g>
		</g>
		<g>
			<g>
				<g>
					<path d="M100.8,17c0.2,0.3,0.3,0.7,0.5,1c0.2,0.4,0.7,0.1,0.5-0.3c-0.2-0.3-0.3-0.7-0.5-1C101.1,16.3,100.6,16.6,100.8,17
						L100.8,17z"/>
				</g>
			</g>
		</g>
		<g>
			<g>
				<g>
					<path d="M104.2,17.1c0.1-0.2,0.2-0.3,0.3-0.5c0.1-0.1,0-0.4-0.1-0.4s-0.3,0-0.4,0.1c-0.1,0.2-0.2,0.3-0.3,0.5
						c-0.1,0.1,0,0.4,0.1,0.4S104.1,17.3,104.2,17.1L104.2,17.1z"/>
				</g>
			</g>
		</g>
		<g>
			<g>
				<g>
					<path d="M85.8,24.1c0.5-0.3,1.7-0.9,2,0.1c0,0.1,0.2,0.2,0.3,0.2c0.7-0.3,1.4,0.1,2.1,0.3c0.6,0.2,1.2,0.4,1.8,0.5
						c0.3,0.1,0.4-0.3,0.1-0.4c-0.8-0.2-1.6-0.5-2.4-0.7c-0.6-0.2-1.1-0.4-1.8-0.1c0.1,0.1,0.2,0.1,0.3,0.2
						c-0.3-1.3-1.8-0.8-2.6-0.4C85.3,23.8,85.5,24.2,85.8,24.1L85.8,24.1z"/>
				</g>
			</g>
		</g>
		<g>
			<g>
				<g>
					<path d="M84.9,24.2c0.1-0.7-0.2-1.2-0.7-1.5c-0.1-0.1-0.3,0-0.3,0.1c-0.3,0-0.7,0-1,0c0.1-0.2-0.2-0.3-0.3-0.2
						c-0.2,0.1-0.4,0.2-0.6,0.3c0.1,0,0.2,0.1,0.3,0.1c-0.2-0.3-0.4-1.1-0.9-1.1c-0.2,0-0.8,0.6-0.8,0.7c-0.2-0.1-0.5,0.2-0.2,0.4
						c0.2,0.1,0.3,0.1,0.5,0c0.1-0.1,0.2-0.4,0.3-0.4c0.4-0.1,0.5,0.5,0.7,0.7c0.1,0.1,0.2,0.1,0.3,0.1c0.2-0.1,0.4-0.2,0.6-0.3
						c-0.1-0.1-0.2-0.2-0.3-0.2c-0.1,0.5,0.1,1,0.6,1.1c0.6,0.1,1-0.3,1.2-0.8c-0.1,0-0.2,0.1-0.3,0.1c0.4,0.3,0.5,0.7,0.5,1.2
						C84.5,24.5,84.9,24.4,84.9,24.2L84.9,24.2z"/>
				</g>
			</g>
		</g>
		<g>
			<g>
				<g>
					<path d="M84.8,26.1c0.8-0.6,2.1,1.1,2.5,1.6c0.1,0.1,0.2,0.1,0.3,0.1c0.3-0.2,0.5,0.9,0.6,1.1c0.1,0.2,0.2,0.3,0.3,0.4
						c0.2,0.1,0.4-0.2,0.2-0.4c-0.5-0.3-0.2-1.1-0.7-1.4c-0.3-0.2-0.5-0.2-0.7,0c0.1,0,0.2,0,0.3,0.1c-0.5-0.8-2-2.6-3.1-1.8
						C84.3,25.8,84.6,26.2,84.8,26.1L84.8,26.1z"/>
				</g>
			</g>
		</g>
		<g>
			<g>
				<g>
					<path d="M87.4,23c-0.2-1.2,1.6-1,2.4-1c0.4,0,0.8,0.1,1.2,0.2c0.2,0,0.3,0.1,0.5,0.1c0.5,0.1,0.7,0.5,0.4,1.2
						c0.1,0.1,0.2,0.1,0.3,0.2c0-0.5,1.1-0.3,1.4-0.2c0.6,0.2,1.5,1.1,0.6,1.7c-0.2,0.1,0,0.5,0.2,0.4c0.9-0.5,0.7-1.7-0.1-2.2
						c-0.6-0.4-2.4-0.7-2.4,0.4c0,0.2,0.1,0.2,0.3,0.2c0.5-0.1,0.8-0.6,0.7-1.1c-0.2-0.8-1.1-1-1.8-1.1c-1.1-0.3-4.2-0.7-3.9,1.3
						C87,23.3,87.4,23.2,87.4,23L87.4,23z"/>
				</g>
			</g>
		</g>
		<g>
			<g>
				<g>
					<path d="M86,22.4c0.2-0.9,0.5-1.9,0.7-2.8c0.1-0.5,0.5-1.4,0.3-1.9c-0.5-1-1.5,0-1.8,0.6c-0.1,0.3,0.2,0.4,0.4,0.2
						c0.5-0.7,1-1.6,0.6-2.5c-0.3-0.6-0.9-0.9-1.6-0.8c-0.3,0.1-0.2,0.5,0.1,0.4c1-0.3,1.3,0.9,1.1,1.6c-0.1,0.4-0.4,0.8-0.6,1.1
						c0.1,0.1,0.2,0.1,0.4,0.2c0.1-0.2,0.2-0.4,0.3-0.6c0.6,0.1,0.8,0.3,0.5,0.7c0,0.3-0.2,0.8-0.3,1.1c-0.2,0.8-0.4,1.6-0.6,2.4
						C85.5,22.5,85.9,22.6,86,22.4L86,22.4z"/>
				</g>
			</g>
		</g>
		<g>
			<g>
				<g>
					<path d="M86.9,20.6c0.7-1.1,1.3-2.4,1.5-3.8c0.1-0.6,0.1-1.3,0.5-1.8c0.5-0.6,1-1.1,1.5-1.6c0.2-0.2-0.1-0.5-0.3-0.3
						c-0.4,0.5-0.9,1-1.4,1.5c-0.5,0.5-0.5,0.7-0.6,1.4c-0.2,1.6-0.8,3-1.6,4.4C86.4,20.7,86.7,20.9,86.9,20.6L86.9,20.6z"/>
				</g>
			</g>
		</g>
		<g>
			<g>
				<g>
					<path d="M83.7,25.7c-0.4-0.8-1.2-1.4-2.1-1.5c-0.3-0.1-0.4,0.4-0.1,0.4c0.8,0.2,1.4,0.6,1.8,1.3C83.4,26.2,83.8,26,83.7,25.7
						L83.7,25.7z"/>
				</g>
			</g>
		</g>
		<g>
			<g>
				<g>
					<path d="M82.8,30.9c0.4-1.5,1.1-3.5,3.1-3c0.4,0.1,1,0.4,1.3,0.7c0.3,0.4,0.2,0.6,0,1.1c-0.3,0.8-0.5,1.7-0.8,2.5
						c-0.1,0.3,0.3,0.4,0.4,0.1c0.3-1.2,0.7-2.3,1-3.5c0-0.1,0-0.2-0.1-0.2c-0.9-0.9-2.2-1.6-3.4-1.1s-1.7,2-2,3.2
						C82.3,31,82.7,31.1,82.8,30.9L82.8,30.9z"/>
				</g>
			</g>
		</g>
		<g>
			<g>
				<g>
					<path d="M83.1,29.7c0.1-0.4,0.3-0.7,0.6-0.9c0.5-0.3,1.1-0.1,1.2,0.5c0,0.7-0.2,1.5-0.4,2.1c-0.1,0.3,0.4,0.4,0.4,0.1
						c0.1-0.7,0.3-1.4,0.4-2.1c0-0.5-0.1-0.9-0.6-1.1c-1-0.5-1.8,0.4-2,1.3C82.6,29.9,83,30,83.1,29.7L83.1,29.7z"/>
				</g>
			</g>
		</g>
		<g>
			<g>
				<g>
					<path d="M82.8,28.6c0-0.6-0.2-1.9-0.9-2.2c-0.3-0.1-0.8,0.1-1.1,0.2c-0.6,0.2-1.3,0.4-1.9,0.6c-0.3,0.1-0.2,0.5,0.1,0.4
						c0.7-0.2,1.5-0.6,2.2-0.7c0.6-0.1,0.8,0.1,1,0.6c0.1,0.3,0.2,0.7,0.2,1.1C82.4,28.9,82.8,28.9,82.8,28.6L82.8,28.6z"/>
				</g>
			</g>
		</g>
		<g>
			<g>
				<g>
					<path d="M90.9,20.8c0.4,0.1,0.8,0.3,1,0.6c0.2,0.2,0.5,0,0.4-0.2c-0.3-0.4-0.8-0.7-1.3-0.8C90.8,20.3,90.6,20.7,90.9,20.8
						L90.9,20.8z"/>
				</g>
			</g>
		</g>
		<g>
			<g>
				<g>
					<path d="M97.2,15.8c0.9,0.7,1.6,1.6,2.1,2.7c0.1,0.2,0.5,0,0.4-0.2c-0.5-1.1-1.3-2-2.2-2.8C97.3,15.3,97,15.6,97.2,15.8
						L97.2,15.8z"/>
				</g>
			</g>
		</g>
		<g>
			<g>
				<g>
					<path d="M108.6,21.8c0.7,1.6,0.7,3.4,0,5c-0.1,0.3,0.3,0.4,0.4,0.1c0.7-1.7,0.7-3.6,0-5.3C108.9,21.5,108.5,21.6,108.6,21.8
						L108.6,21.8z"/>
				</g>
			</g>
		</g>
		<g>
			<g>
				<g>
					<path d="M108.2,20.4c0.3-0.2,0.7-0.4,1-0.7c0.2-0.2,0-0.5-0.2-0.4c-0.3,0.2-0.7,0.4-1,0.7C107.8,20.2,108,20.5,108.2,20.4
						L108.2,20.4z"/>
				</g>
			</g>
		</g>
		<g>
			<g>
				<g>
					<path d="M100.6,93c0.6,1.2,1.1,2.4,1.7,3.6c0.2,0.4,0.7,0.1,0.5-0.3c-0.6-1.2-1.1-2.4-1.7-3.6C101,92.3,100.4,92.6,100.6,93
						L100.6,93z"/>
				</g>
			</g>
		</g>
		<g>
			<g>
				<g>
					<path d="M97.8,94.8c0.3,0.7,0.5,1.4,0.8,2.1c0.2,0.4,0.8,0.2,0.6-0.2c-0.3-0.7-0.5-1.4-0.8-2.1C98.2,94.2,97.6,94.4,97.8,94.8
						L97.8,94.8z"/>
				</g>
			</g>
		</g>
		<g>
			<g>
				<g>
					<path d="M93,97.2c0.3,1.1,0.7,2.3,1,3.4c0.1,0.4,0.7,0.2,0.6-0.2c-0.3-1.1-0.7-2.3-1-3.4C93.5,96.6,92.9,96.8,93,97.2L93,97.2z
						"/>
				</g>
			</g>
		</g>
		<g>
			<g>
				<g>
					<path d="M92.8,96.3c0.1,0.7,0.2,1.3,0.6,1.9c0.2,0.4,0.8,0,0.5-0.3c-0.3-0.5-0.4-1-0.5-1.5C93.4,95.8,92.8,95.8,92.8,96.3
						L92.8,96.3z"/>
				</g>
			</g>
		</g>
		<g>
			<g>
				<g>
					<path d="M88.6,97.6c0.1,1.1,0.2,2.2,0.3,3.3c0.1,0.4,0.7,0.4,0.7,0c-0.1-1.1-0.2-2.2-0.3-3.3C89.2,97.2,88.6,97.2,88.6,97.6
						L88.6,97.6z"/>
				</g>
			</g>
		</g>
		<g>
			<g>
				<g>
					<path d="M84.2,97.6c0,0.5,0,0.9,0,1.4c0,0.4,0.7,0.4,0.7,0c0-0.5,0-0.9,0-1.4C84.9,97.2,84.2,97.2,84.2,97.6L84.2,97.6z"/>
				</g>
			</g>
		</g>
		<g>
			<g>
				<g>
					<path d="M65.3,98.1c-0.2,2.2-0.5,4.5-0.7,6.7c-0.1,0.4,0.6,0.4,0.7,0c0.2-2.2,0.5-4.5,0.7-6.7C66,97.7,65.3,97.7,65.3,98.1
						L65.3,98.1z"/>
				</g>
			</g>
		</g>
		<g>
			<g>
				<g>
					<path d="M59.6,98.5c-0.3,0.8-0.4,1.7-0.2,2.6c0.1,0.4,0.7,0.2,0.6-0.2c-0.1-0.8-0.1-1.5,0.2-2.3C60.4,98.3,59.8,98.2,59.6,98.5
						L59.6,98.5z"/>
				</g>
			</g>
		</g>
		<g>
			<g>
				<g>
					<path d="M53.6,98.2c-0.3,1.7-0.5,3.3-0.8,5c-0.1,0.4,0.5,0.6,0.6,0.2c0.3-1.7,0.5-3.3,0.8-5C54.3,98,53.6,97.8,53.6,98.2
						L53.6,98.2z"/>
				</g>
			</g>
		</g>
		<g>
			<g>
				<g>
					<path d="M51.9,69.1c0.7,1.9,1.2,3.8,1.6,5.7c0.2,1,0.3,2.1,0.4,3.1c0,0.4,0.1,0.9,0,1.3c0,0.3-0.1,0.6-0.2,0.8
						c-0.2,0.3-0.9,0.5-1,0.1c-0.1-0.4-0.8-0.2-0.6,0.2c0.2,0.7,1,0.9,1.6,0.6c1-0.5,0.9-2,0.8-2.9c-0.2-3.1-0.8-6.2-2-9.2
						C52.4,68.5,51.7,68.7,51.9,69.1L51.9,69.1z"/>
				</g>
			</g>
		</g>
		<g>
			<g>
				<g>
					<path d="M50.6,78.5c-1.8-2-3.6-4-5.4-6c-0.3-0.3-0.7,0.2-0.5,0.5c1.8,2,3.6,4,5.4,6C50.5,79.3,50.9,78.8,50.6,78.5L50.6,78.5z"
						/>
				</g>
			</g>
		</g>
		<g>
			<g>
				<g>
					<path d="M66.6,80c-3.3,1.2-6.6,2.3-10.1,1.9c-0.4,0-0.4,0.6,0,0.7c3.6,0.4,7-0.7,10.3-1.9C67.1,80.5,67,79.9,66.6,80L66.6,80z"
						/>
				</g>
			</g>
		</g>
		<g>
			<g>
				<g>
					<path d="M94.9,70.5c-2,1.5-4.3,2.6-6.7,3.4c-0.4,0.1-0.2,0.7,0.2,0.6c2.5-0.8,4.8-1.9,6.8-3.4C95.5,70.8,95.2,70.2,94.9,70.5
						L94.9,70.5z"/>
				</g>
			</g>
		</g>
		<g>
			<g>
				<g>
					<path d="M68.4,60.9c-3.3,4.3-8,7.4-13.2,8.7c-0.4,0.1-0.2,0.7,0.2,0.6c5.4-1.4,10.1-4.5,13.5-8.9
						C69.1,61.1,68.7,60.6,68.4,60.9L68.4,60.9z"/>
				</g>
			</g>
		</g>
		<g>
			<g>
				<g>
					<path d="M50.8,69.6c-2.3-0.4-4.5-1.3-6.4-2.7c-0.3-0.2-0.7,0.3-0.3,0.5c2,1.4,4.2,2.4,6.6,2.7C51.1,70.2,51.2,69.6,50.8,69.6
						L50.8,69.6z"/>
				</g>
			</g>
		</g>
		<g>
			<g>
				<g>
					<path d="M83,41.2c0.3-0.4,0.2-0.9-0.2-1.2c-0.4-0.4-1-0.3-1.3,0.1c-0.3,0.4-0.4,1,0,1.3c0.3,0.4,0.9,0.4,1.3,0.2
						c0.4-0.2,0.1-0.7-0.3-0.5c-0.4,0.2-0.8-0.2-0.5-0.5c0.3-0.4,0.7,0.1,0.4,0.4C82.2,41.2,82.8,41.5,83,41.2L83,41.2z"/>
				</g>
			</g>
		</g>
		<g>
			<g>
				<g>
					<path d="M84.1,40.8c3.4,4.5,5.5,10,6,15.7c0.2,2.9,0.2,5.9,1,8.6c0.5,1.8,2.2,4,4.3,2.8c0.4-0.2,0-0.8-0.3-0.5
						c-1.5,0.9-2.8-0.6-3.2-1.9c-0.5-1.3-0.7-2.6-0.8-4c-0.3-2.6-0.2-5.2-0.7-7.7c-0.8-4.8-2.8-9.4-5.7-13.2
						C84.4,40.2,83.9,40.5,84.1,40.8L84.1,40.8z"/>
				</g>
			</g>
		</g>
		<g>
			<g>
				<g>
					<path d="M71.6,34.2c0.1,0.5,0.2,1.1,0.2,1.6c0.2-0.1,0.4-0.2,0.6-0.2c-0.3-0.7-0.4-1.3-0.4-2c-0.2,0-0.4,0.1-0.6,0.1
						c0.3,0.7,0.5,1.5,0.6,2.2c0.2-0.1,0.4-0.2,0.5-0.2c-0.3-0.2-0.4-0.5-0.4-0.8c-0.2,0.1-0.4,0.1-0.6,0.2c0.3,0.3,0.4,0.7,0.4,1.1
						c0.2-0.1,0.4-0.2,0.5-0.2c-0.1-0.3-0.2-0.5-0.2-0.8c-0.2,0-0.4,0.1-0.6,0.1c0.3,0.4,0.3,0.8,0.2,1.3c0.2-0.1,0.3-0.1,0.5-0.2
						c-0.3-0.2-0.5-0.5-0.4-0.9c-0.2,0.1-0.4,0.1-0.6,0.2c0.2,0.3,0.3,0.7,0.2,1.1c0.2,0,0.4-0.1,0.6-0.1c-0.3-0.4-0.5-0.9-0.6-1.4
						c-0.2,0.1-0.4,0.2-0.5,0.3c0.3,0.4,0.5,0.8,0.7,1.3c0.2-0.1,0.4-0.1,0.6-0.2c0,0,0-0.1-0.1-0.1c-0.2,0-0.3,0-0.5,0
						c0,0.1,0,0.1,0,0.2c0.2,0,0.4,0,0.6,0c-0.1-0.2-0.2-0.4-0.2-0.7c-0.2,0.1-0.4,0.2-0.6,0.2c0,0.1,0,0.2-0.1,0.2
						c0.2,0,0.3-0.1,0.5-0.1c-0.1-0.1-0.1-0.2-0.2-0.3c-0.1,0.1-0.3,0.3-0.4,0.4c0.1,0.1,0.1,0.2,0.1,0.3c0.2-0.1,0.3-0.2,0.5-0.3
						c-0.4-0.3-0.6-0.5-0.8-0.9c-0.1-0.3-0.7-0.3-0.6,0.1c0,0.3,0.1,0.5,0.1,0.8c0.2-0.1,0.3-0.2,0.5-0.3c-0.4-0.3-0.5-0.6-0.4-1.1
						c-0.2,0.1-0.4,0.1-0.5,0.1c0.3,0.2,0.4,0.4,0.3,0.8c0.2-0.1,0.4-0.2,0.5-0.2c-0.5-0.4-0.7-0.9-0.7-1.6
						c-0.2,0.1-0.3,0.2-0.5,0.3c0.4,0.2,0.7,0.5,0.9,0.9c0.2-0.1,0.3-0.3,0.5-0.4c-0.3-0.3-0.5-0.6-0.6-1.1
						c-0.2,0.1-0.4,0.2-0.5,0.3c0.2,0.2,0.4,0.4,0.4,0.7c0.2-0.1,0.4-0.2,0.6-0.2c-0.3-0.5-0.5-1-0.6-1.6c-0.2,0.1-0.4,0.2-0.5,0.3
						c0.3,0.3,0.4,0.6,0.5,1c0.1,0.3,0.5,0.3,0.6,0c0.1-0.1,0.1-0.3,0.1-0.4c-0.2-0.1-0.4-0.1-0.6-0.2c-0.1,0.6,0.1,1,0.7,1.2
						c0.2,0.1,0.4-0.1,0.4-0.3c0-0.5-0.1-1.1-0.6-1.4c-0.4-0.2-0.9-0.2-1.1,0.2c-0.4,0.8,0.7,1.6,1.3,0.9c0.7-0.8-0.4-1.9-1.2-1.3
						c-0.6,0.5-0.3,1.7,0.6,1.3c1-0.4,0.1-1.9-0.8-1.8c-0.9,0.1-1,1.5-0.1,1.8c1,0.3,1.6-0.9,1-1.6c-0.7-0.8-2-0.2-1.9,0.9
						c0.1,1.2,1.8,1,1.7-0.2c-0.1-0.5-0.6-0.9-1.1-0.8c-0.7,0.1-1,0.6-1.2,1.1c-0.1,0.1,0,0.3,0.2,0.4c0.8,0.4,1.8-0.2,1.4-1.2
						c-0.5-0.9-1.7-0.4-1.6,0.5c0,0.2,0.1,0.3,0.2,0.3c0.7,0.2,2-0.1,1.4-1.1c-0.5-0.9-1.5-0.1-1.9,0.5c-0.1,0.2,0,0.4,0.2,0.5
						c0.9,0.2,1.6-0.3,1.9-1.1c0.1-0.2-0.1-0.4-0.3-0.4c-0.9,0-1.6,0.3-2.3,0.9c-0.2,0.2,0,0.6,0.3,0.5c0.4-0.1,0.7-0.2,1.1-0.3
						c0.4-0.1,0.2-0.7-0.2-0.6c-0.7,0.2-1.2,0.5-1.7,1c0.2,0.1,0.3,0.3,0.5,0.4c0.2-0.4,0.5-0.7,0.8-1c-0.2-0.2-0.3-0.3-0.5-0.5
						c-0.5,0.5-1,1.1-1.5,1.6c0.2,0.1,0.3,0.3,0.5,0.4c0.2-0.3,0.4-0.7,0.7-1c-0.2-0.1-0.4-0.2-0.5-0.3c-0.3,0.5-0.5,1.1-0.8,1.6
						c-0.2,0.3,0.2,0.6,0.5,0.4c0.5-0.5,0.8-1,0.9-1.7c0-0.3-0.4-0.4-0.6-0.2c-0.3,0.4-0.5,0.8-0.8,1.2c-0.2,0.4,0.3,0.7,0.5,0.3
						c0.3-0.4,0.7-0.9,1-1.4c-0.2,0-0.4-0.1-0.6-0.1c0.1,0.5,0.1,0.9-0.1,1.4c0.2,0.1,0.4,0.1,0.6,0.2c0.1-0.4,0.2-0.7,0.4-1
						c-0.2,0-0.4,0-0.5,0c0.2,0.4,0.4,0.8,0.7,1.2c0.2,0.3,0.6,0.1,0.6-0.2c0-0.3,0-0.6,0-0.9c-0.2,0.1-0.3,0.2-0.5,0.3
						c0.4,0.3,0.7,0.6,1.1,0.9c0.3,0.3,0.6-0.1,0.5-0.4c-0.2-0.5-0.5-0.9-0.9-1.2c-0.3-0.3-0.8,0.2-0.5,0.5c0.5,0.5,1,1,1.6,1.4
						c0.3,0.3,0.7-0.2,0.5-0.5c-0.4-0.4-0.7-0.9-1-1.4c-0.2,0.1-0.3,0.3-0.5,0.4c0.6,0.5,1.1,1.1,1.6,1.9c0.2,0.3,0.8,0,0.5-0.3
						c-0.2-0.4-0.5-0.8-0.7-1.2c-0.2,0.1-0.4,0.2-0.5,0.3c0.4,0.5,0.7,1.1,1.1,1.6c0.2-0.1,0.3-0.3,0.5-0.4
						c-0.5-0.4-1.1-0.7-1.7-0.9c-0.2-0.1-0.5,0.2-0.4,0.5c0.5,0.6,1.1,1,1.9,1.1c0-0.2,0.1-0.4,0.1-0.6c-0.9,0.1-1.8,0-2.7-0.1
						c0,0.2,0,0.4,0,0.6c0.8-0.2,1.5-0.2,2.3-0.2c-0.1-0.2-0.1-0.4-0.2-0.6c-0.7,0.4-1.4,0.4-2.1-0.1c-0.1,0.2-0.1,0.4-0.2,0.6
						c1,0,1.9,0.2,2.8,0.6c0.1-0.2,0.2-0.4,0.2-0.6c-0.6-0.2-1.3-0.3-1.9-0.4c-0.4,0-0.4,0.5-0.1,0.6c0.5,0.1,1,0.3,1.4,0.4
						c0.4,0.1,0.6-0.5,0.2-0.6c-0.9-0.3-1.6-0.8-2.2-1.4c-0.1,0.2-0.1,0.4-0.1,0.5c0.2,0.1,0.4,0.2,0.6,0.2c0.2,0.3,0.7-0.1,0.5-0.4
						c-0.3-0.4-0.5-0.8-0.7-1.2c-0.2,0.1-0.4,0.2-0.6,0.2c0.3,0.4,0.4,0.8,0.4,1.2c0.2-0.1,0.3-0.2,0.5-0.3
						c-0.6-0.4-0.9-1.1-0.9-1.8c-0.2,0.1-0.4,0.1-0.6,0.2c0.3,0.6,0.5,1.3,0.6,2c0.2-0.1,0.3-0.2,0.5-0.3c-0.5-0.3-0.8-0.7-0.8-1.3
						c-0.2,0.1-0.4,0.2-0.5,0.2c0.3,0.3,0.4,0.7,0.4,1.1c0.2-0.1,0.3-0.2,0.5-0.3c-0.4-0.3-0.6-0.6-0.7-1.1
						c-0.2,0.1-0.4,0.2-0.5,0.2c0.4,0.4,0.5,0.8,0.6,1.4c0.2-0.1,0.3-0.2,0.5-0.3c-0.4-0.3-0.7-0.5-0.9-1c-0.2,0.1-0.3,0.3-0.5,0.4
						c0.3,0.4,0.5,0.8,0.6,1.2c0.2-0.1,0.4-0.2,0.5-0.3c-0.4-0.4-0.6-0.8-0.7-1.3c-0.2,0.1-0.4,0.2-0.6,0.2c0.4,0.5,0.6,1,0.7,1.6
						c0.2-0.1,0.3-0.2,0.5-0.4c-0.4-0.3-0.7-0.7-0.8-1.2c-0.2,0.1-0.4,0.2-0.5,0.3c0.4,0.4,0.6,0.8,0.7,1.3c0.2-0.1,0.4-0.2,0.5-0.3
						c-0.3-0.4-0.5-0.7-0.7-1.1c-0.2,0.1-0.4,0.2-0.5,0.3c0.4,0.4,0.8,0.8,1.1,1.2c0-0.2,0.1-0.3,0.1-0.5c-0.2,0-0.3,0-0.5,0
						c-0.1,0.2-0.1,0.4-0.2,0.6c0.3,0,0.6,0.1,0.9,0.3c0.1-0.2,0.2-0.4,0.2-0.6c-0.7-0.1-1.4-0.3-2.1-0.4c0,0.2,0.1,0.4,0.1,0.6
						c0.4-0.3,0.7-0.6,0.9-1.1c0.1-0.3-0.3-0.5-0.5-0.3c-0.2,0.2-0.4,0.5-0.7,0.7c0.2,0,0.3,0.1,0.5,0.1c0-0.2,0-0.3,0-0.5
						c-0.2-0.1-0.4-0.1-0.6-0.2c-0.1,0.2-0.1,0.3-0.2,0.5c0.2,0,0.3-0.1,0.5-0.1c-0.1-0.1-0.1-0.3-0.2-0.4c-0.1-0.4-0.7-0.3-0.6,0.1
						c0.1,0.2,0,0.4-0.1,0.6c0.2,0,0.4-0.1,0.6-0.1c0-0.2,0-0.4,0-0.5c-0.2,0-0.4,0-0.6,0c0,0.2,0,0.4,0,0.5
						c0.1-0.1,0.2-0.1,0.4-0.2c0,0,0,0,0,0.1c-0.2,0-0.4,0.1-0.6,0.1c0,0.2,0,0.4,0.1,0.5c-0.2,0.4,0.3,0.7,0.5,0.3
						c0.2-0.4,0.2-0.8-0.1-1.2c-0.2-0.2-0.5-0.2-0.6,0.1c-0.1,0.4,0.1,0.7,0.4,0.7c0.1,0,0.3,0,0.4-0.2c0.2-0.4,0.2-0.7,0.1-1
						c-0.1-0.3-0.5-0.3-0.6,0c-0.1,0.4-0.1,0.7,0.1,1c0.1,0.3,0.5,0.2,0.6-0.1c0.1-0.3,0.2-0.5,0.1-0.8c-0.2,0-0.4,0.1-0.6,0.1
						c0.1,0.3,0.2,0.5,0.4,0.7c0.2,0.2,0.4,0.1,0.5-0.1c0.2-0.3,0.3-0.5,0.3-0.8c0-0.3-0.4-0.4-0.6-0.2c-0.2,0.4-0.2,0.7,0,1.1
						c0.1,0.2,0.4,0.2,0.5,0.1c0.2-0.2,0.4-0.5,0.7-0.7c-0.2-0.1-0.4-0.2-0.5-0.3c-0.1,0.3-0.3,0.6-0.6,0.7
						c-0.2,0.1-0.2,0.5,0.1,0.6c0.7,0.1,1.4,0.3,2.1,0.4c0.3,0.1,0.6-0.4,0.2-0.6C68,36.1,67.7,36,67.2,36c-0.3,0-0.4,0.4-0.2,0.6
						c0.4,0.2,0.7,0.2,1.1,0c0.2-0.1,0.2-0.3,0.1-0.5c-0.4-0.4-0.8-0.8-1.1-1.2c-0.2-0.2-0.7,0-0.5,0.3c0.2,0.5,0.5,1,0.8,1.4
						c0.2,0.3,0.6,0,0.5-0.3c-0.1-0.6-0.4-1.1-0.8-1.6c-0.2-0.3-0.6,0-0.5,0.3c0.1,0.7,0.5,1.2,1.1,1.6c0.2,0.2,0.5-0.1,0.5-0.4
						c-0.1-0.7-0.4-1.2-0.8-1.8c-0.2-0.3-0.7-0.1-0.6,0.2c0.1,0.6,0.4,1.2,0.9,1.6c0.2,0.2,0.6,0,0.5-0.3c-0.2-0.6-0.4-1-0.8-1.5
						c-0.2-0.3-0.6,0.1-0.5,0.4c0.2,0.5,0.6,1,1.1,1.3c0.2,0.1,0.5,0,0.5-0.3c0-0.7-0.3-1.3-0.8-1.8c-0.2-0.2-0.6-0.1-0.5,0.2
						c0.1,0.7,0.4,1.2,1,1.6c0.2,0.1,0.5,0,0.5-0.3c0-0.6-0.2-1.1-0.6-1.6c-0.2-0.2-0.6,0-0.5,0.2c0,0.8,0.4,1.5,1.1,1.8
						c0.2,0.1,0.5,0,0.5-0.3c-0.1-0.8-0.3-1.5-0.7-2.3c-0.2-0.3-0.6-0.1-0.6,0.2c0,1,0.4,1.8,1.2,2.4c0.2,0.2,0.5-0.1,0.5-0.3
						c0-0.6-0.1-1.1-0.4-1.5c-0.2-0.3-0.7-0.1-0.6,0.2c0.2,0.5,0.4,0.9,0.7,1.4c0.2-0.1,0.3-0.3,0.5-0.4c-0.3-0.4-0.7-0.5-1.2-0.4
						c-0.2,0.1-0.3,0.4-0.1,0.5c0.7,0.7,1.5,1.3,2.5,1.6c0.1-0.2,0.1-0.4,0.2-0.6c-0.5-0.1-1-0.3-1.4-0.4c0,0.2-0.1,0.4-0.1,0.6
						c0.6,0,1.2,0.1,1.8,0.4c0.3,0.1,0.6-0.4,0.2-0.6c-1-0.5-2-0.7-3.1-0.7c-0.3,0-0.4,0.4-0.2,0.6c0.8,0.6,1.8,0.6,2.7,0.1
						c0.3-0.2,0.2-0.6-0.2-0.6c-0.8-0.1-1.6,0-2.4,0.2c-0.3,0.1-0.3,0.6,0,0.6c0.9,0.1,1.9,0.2,2.8,0.1c0.3,0,0.5-0.6,0.1-0.6
						c-0.6-0.1-1.1-0.4-1.5-0.9c-0.1,0.2-0.2,0.3-0.4,0.5c0.5,0.1,1,0.3,1.4,0.7c0.3,0.2,0.7-0.1,0.5-0.4c-0.4-0.5-0.7-1.1-1.1-1.6
						c-0.2-0.3-0.8,0-0.5,0.3c0.2,0.4,0.5,0.8,0.7,1.2c0.2-0.1,0.4-0.2,0.5-0.3c-0.5-0.7-1-1.4-1.7-2c-0.3-0.2-0.7,0.1-0.5,0.4
						c0.3,0.5,0.7,1,1.1,1.5c0.2-0.2,0.3-0.3,0.5-0.5c-0.5-0.5-1-1-1.6-1.4c-0.2,0.2-0.3,0.3-0.5,0.5c0.4,0.3,0.6,0.7,0.8,1.1
						c0.2-0.1,0.3-0.3,0.5-0.4c-0.4-0.4-0.8-0.7-1.2-1C68.3,33.8,68,34,68,34.2c0,0.3,0,0.6,0,0.9c0.2-0.1,0.4-0.1,0.6-0.2
						c-0.2-0.4-0.4-0.8-0.7-1.2c-0.1-0.2-0.4-0.2-0.5,0c-0.2,0.4-0.4,0.7-0.5,1.1c-0.1,0.4,0.5,0.6,0.6,0.2c0.2-0.6,0.2-1.1,0.1-1.8
						C67.5,33,67.1,33,67,33.2c-0.3,0.4-0.7,0.9-1,1.4c0.2,0.1,0.4,0.2,0.5,0.3c0.3-0.4,0.5-0.8,0.8-1.2c-0.2-0.1-0.4-0.1-0.6-0.2
						c-0.1,0.5-0.3,0.9-0.7,1.3c0.2,0.1,0.3,0.3,0.5,0.4c0.3-0.5,0.5-1.1,0.8-1.6c0.2-0.4-0.3-0.7-0.5-0.3c-0.2,0.3-0.4,0.7-0.7,1
						c-0.2,0.3,0.3,0.7,0.5,0.4c0.5-0.5,1-1.1,1.5-1.6c0.3-0.3-0.2-0.8-0.5-0.5c-0.3,0.4-0.6,0.7-0.9,1.1c-0.2,0.3,0.3,0.7,0.5,0.4
						c0.4-0.4,0.8-0.7,1.4-0.9c-0.1-0.2-0.1-0.4-0.2-0.6c-0.4,0.1-0.7,0.2-1.1,0.3c0.1,0.2,0.2,0.4,0.3,0.5c0.5-0.5,1.1-0.7,1.8-0.7
						c-0.1-0.1-0.2-0.3-0.3-0.4c-0.2,0.5-0.6,0.8-1.1,0.7c0.1,0.2,0.1,0.3,0.2,0.5c0.1-0.1,0.2-0.2,0.1-0.4c0.1,0.1,0.2,0.2,0.2,0.3
						c0,0,0,0-0.1,0.1c0.1,0.1,0.1,0.2,0.2,0.4c0.2-0.7,0.7-0.7,1.3-0.1c0.8-0.1,1.2,0.2,1.1,0.8c0.1-0.1,0.3-0.2,0.4-0.3
						c-0.1-0.1-0.1-0.3-0.2-0.4c0.1-0.4-0.5-0.6-0.6-0.2c-0.1,0.1-0.1,0.3-0.1,0.4c0.2,0,0.4,0,0.6,0c-0.1-0.5-0.3-0.9-0.6-1.3
						c-0.2-0.3-0.6,0-0.5,0.3c0.1,0.7,0.3,1.2,0.7,1.8c0.2,0.3,0.7,0.1,0.6-0.2c-0.1-0.4-0.3-0.7-0.6-1c-0.2-0.2-0.6,0-0.5,0.3
						c0.1,0.5,0.4,1,0.8,1.4c0.3,0.3,0.7-0.1,0.5-0.4c-0.3-0.5-0.6-0.8-1.1-1.1c-0.2-0.1-0.5,0-0.5,0.3c0,0.8,0.3,1.5,0.9,2
						c0.2,0.2,0.5,0.1,0.5-0.2c0-0.5-0.2-0.9-0.5-1.2c-0.2-0.2-0.5-0.1-0.5,0.1c-0.2,0.7,0.1,1.4,0.7,1.8c0.2,0.1,0.5,0,0.5-0.3
						c0-0.3-0.1-0.5-0.1-0.8c-0.2,0-0.4,0.1-0.6,0.1c0.2,0.6,0.6,1,1.1,1.3c0.2,0.2,0.5-0.1,0.5-0.3c0-0.5-0.2-0.7-0.6-0.9
						c-0.2-0.1-0.5,0.2-0.4,0.4c0.1,0.3,0.1,0.3,0.3,0.5c0.2,0.1,0.4,0.1,0.5-0.1c0.2-0.3,0.2-0.5,0.1-0.9c-0.1-0.3-0.7-0.1-0.6,0.2
						c0.1,0.2,0.2,0.4,0.2,0.7c0.1,0.3,0.5,0.3,0.6,0c0.1-0.4,0.1-0.6-0.2-0.8c-0.1-0.1-0.3-0.1-0.5,0c-0.2,0.2-0.2,0.4-0.1,0.7
						c0.2,0.4,0.8,0.2,0.6-0.2c-0.2-0.6-0.5-1.1-0.9-1.5c-0.2-0.3-0.6,0-0.5,0.3c0.1,0.6,0.3,1.1,0.7,1.6c0.1,0.2,0.5,0.2,0.6-0.1
						c0.1-0.6,0.1-1.1-0.3-1.6c-0.2-0.3-0.6-0.2-0.6,0.2c0,0.6,0.2,1.1,0.7,1.5c0.2,0.1,0.4,0,0.5-0.2c0.2-0.6,0.1-1.2-0.3-1.8
						c-0.1-0.2-0.5-0.2-0.6,0.1c-0.1,0.5,0,1,0.4,1.4c0.2,0.2,0.6,0.1,0.5-0.2c-0.1-0.5-0.2-1-0.5-1.4c-0.2-0.2-0.6-0.2-0.6,0.2
						c0,0.5,0.2,0.9,0.6,1.3c0.2,0.2,0.6,0.1,0.5-0.2c-0.1-0.8-0.3-1.6-0.6-2.4c-0.1-0.3-0.7-0.3-0.6,0.1c0,0.8,0.2,1.6,0.5,2.3
						c0.2,0.4,0.6,0.1,0.6-0.2c-0.1-0.5-0.2-1.1-0.2-1.6C72.2,33.6,71.6,33.8,71.6,34.2L71.6,34.2z"/>
				</g>
			</g>
		</g>
		<g>
			<g>
				<g>
					<path d="M62.9,34.8c0,0.2,0,0.4,0,0.6c0.2,0,0.4-0.1,0.6-0.1c-0.1-0.4-0.2-0.7-0.1-1.1c-0.2,0-0.4,0.1-0.6,0.1
						c0.2,0.4,0.2,0.9,0,1.4c0.2,0,0.4,0.1,0.6,0.1c-0.1-0.4-0.2-0.8-0.1-1.3c-0.2,0.1-0.4,0.1-0.5,0.1c0,0,0-0.1,0-0.1
						c-0.3,0.2,0,0.8,0.3,0.5c0.3-0.2,0.4-0.7,0.1-0.9c-0.2-0.2-0.5-0.1-0.5,0.1c-0.1,0.5-0.1,1.1,0.1,1.6c0.1,0.2,0.5,0.3,0.6,0.1
						c0.3-0.6,0.3-1.3,0.1-1.9c-0.1-0.3-0.6-0.3-0.6,0.1c0,0.4,0,0.9,0.2,1.3c0.1,0.4,0.6,0.3,0.6-0.1c0-0.2,0-0.4,0-0.6
						C63.6,34.4,62.9,34.4,62.9,34.8L62.9,34.8z"/>
				</g>
			</g>
		</g>
		<g>
			<g>
				<g>
					<path d="M66,36.8c0.4-0.2,0.8-0.4,1.1-0.6c0.2-0.1,0.2-0.4,0-0.5c-0.4-0.2-0.8-0.5-1.1-0.9c-0.2-0.3-0.7-0.1-0.5,0.3
						c0.1,0.3,0.5,0.4,0.8,0.2c0.3-0.2,0.2-0.7-0.1-0.8c-0.2-0.1-0.6,0.1-0.5,0.4c0.1,0.2,0.1,0.3,0.2,0.5c0.2,0.4,0.8,0.2,0.6-0.2
						c-0.1-0.2-0.1-0.3-0.2-0.5c-0.2,0.1-0.3,0.2-0.5,0.4c0.1-0.1,0.1-0.2,0.2-0.3c-0.2,0.1-0.4,0.2-0.5,0.3
						c0.3,0.5,0.8,0.9,1.3,1.1c0-0.2,0-0.4,0-0.5c-0.4,0.2-0.8,0.4-1.1,0.6C65.3,36.4,65.6,36.9,66,36.8L66,36.8z"/>
				</g>
			</g>
		</g>
		<g>
			<g>
				<g>
					<path d="M72,37.6c0.9,0.2,0.9-1.2,0.7-1.8c-0.3-1.2-1.4-1.9-2.3-2.6c-0.3-0.2-0.7,0.3-0.3,0.5c0.5,0.3,1.1,0.7,1.5,1.2
						c0.2,0.3,0.4,0.5,0.5,0.9c0,0.1,0,1.1,0.1,1.1C71.8,36.9,71.6,37.5,72,37.6L72,37.6z"/>
				</g>
			</g>
		</g>
		<g>
			<g>
				<g>
					<path d="M71.9,34.1c-0.2-1-1.1-1.8-2.2-2c-1.2-0.2-2.4,0.5-3.2,1.3c-0.3,0.3,0.2,0.7,0.5,0.5c0.7-0.6,1.5-1.1,2.5-1.1
						c0.9,0,1.7,0.6,1.9,1.5C71.4,34.6,72,34.5,71.9,34.1L71.9,34.1z"/>
				</g>
			</g>
		</g>
		<g>
			<g>
				<g>
					<path d="M62.8,33.7c0,0,0-0.1-0.1-0.1c-0.2,0.1-0.4,0.1-0.5,0.1c0.2,0.2,0.4,0.5,0.5,0.8c0.2,0.4,0.8,0.2,0.6-0.2
						c-0.1-0.3-0.1-0.6-0.1-0.9c-0.2,0.1-0.4,0.2-0.5,0.2c0.1,0.1,0.2,0.3,0.2,0.4c0.2-0.1,0.4-0.2,0.5-0.3c-0.1,0-0.3,0-0.4,0
						c0-0.1,0-0.3-0.1-0.4c0,0,0,0.1,0,0.1c0.2,0,0.4,0,0.5,0c0-0.1-0.1-0.2-0.1-0.3c-0.2,0.1-0.4,0.2-0.5,0.2
						c0.1,0.3,0.1,0.5,0.2,0.8c0.2,0,0.4-0.1,0.6-0.1c-0.2-0.2-0.3-0.4-0.4-0.7c-0.2,0.1-0.4,0.2-0.6,0.2c0.2,0.4,0.2,0.7,0,1
						c0.2,0,0.4,0,0.6,0c-0.2-0.6,0.2-2.1-0.8-2.2c-0.6-0.1-1,0.6-0.7,1c0.1,0.2,0.3,0.2,0.4,0.1c0.5-0.3,0.6-0.9,0.2-1.3
						c-0.1-0.1-0.3-0.1-0.5,0c-0.4,0.4-0.6,0.9-0.5,1.4c0,0.2,0.1,0.3,0.3,0.3c0.6,0,0.9-0.6,0.7-1.1c-0.1-0.2-0.3-0.2-0.4-0.1
						c-0.4,0.2-0.6,0.5-0.5,1c0,0.2,0.2,0.4,0.4,0.3c0.5-0.2,0.7-1,0.1-1.3c-0.7-0.4-1.2,0.4-1.2,1c0,0.2,0.3,0.4,0.5,0.3
						c0.5-0.3,0.6-0.8,0.5-1.3c-0.1-0.2-0.4-0.3-0.5-0.1c-0.4,0.4-0.8,0.8-1.3,1.2c-0.2,0.2-0.1,0.6,0.2,0.5
						c0.8-0.1,1.3-0.5,1.5-1.3c0.1-0.2-0.2-0.5-0.4-0.4c-0.9,0.3-1.6,0.8-2.1,1.6c-0.2,0.3,0.2,0.6,0.4,0.4c0.7-0.3,1.1-0.9,1.4-1.6
						c0.1-0.3-0.3-0.6-0.5-0.3c-0.5,0.7-1.1,1.3-1.6,2c0.2,0.1,0.3,0.3,0.5,0.4c0.2-0.4,0.4-0.8,0.7-1.3c0.2-0.3-0.2-0.6-0.5-0.4
						c-0.4,0.4-0.7,0.8-1,1.3c-0.1,0.3,0.3,0.7,0.5,0.4c0.3-0.3,0.4-0.6,0.5-1c0.1-0.4-0.4-0.6-0.6-0.2c-0.2,0.3-0.4,0.6-0.6,0.9
						c-0.1,0.1,0,0.4,0.1,0.4c1.1,0.5,2.4-0.1,2.6-1.3c-0.2,0.1-0.3,0.1-0.5,0.2c0.4,0.2,0.6,0.4,0.9,0.7c0.2,0.2,0.5,0.1,0.5-0.1
						c0.1-0.4,0.1-0.7,0-1.1c-0.2,0.1-0.3,0.2-0.5,0.4c0.3,0.2,0.6,0.4,0.7,0.8c0.2-0.1,0.4-0.2,0.5-0.3c-0.3-0.2-0.4-0.4-0.4-0.8
						c-0.2,0.1-0.4,0.2-0.6,0.2c0.2,0.3,0.4,0.6,0.5,1c0.2-0.1,0.4-0.2,0.5-0.3c-0.2-0.2-0.5-0.4-0.7-0.7c-0.3-0.3-0.7,0.1-0.5,0.4
						c0.2,0.4,0.3,0.7,0.2,1.1c0.2-0.1,0.4-0.2,0.5-0.2c-0.3-0.3-0.6-0.6-0.8-1.1c-0.2,0.1-0.4,0.2-0.6,0.2c0.2,0.4,0.4,0.8,0.5,1.1
						c0.2-0.1,0.3-0.3,0.5-0.4c-0.4-0.3-0.7-0.6-0.9-1c-0.2-0.4-0.8,0-0.5,0.3c0.2,0.4,0.4,0.8,0.5,1.3c0.2-0.1,0.4-0.2,0.5-0.3
						c-0.3-0.3-0.5-0.5-0.8-0.9c-0.2-0.3-0.7-0.1-0.6,0.2c0.1,0.2,0.1,0.4,0.2,0.5c0.1-0.1,0.2-0.3,0.3-0.4c-0.2,0-0.5,0-0.7,0
						c0.1-0.1,0.1-0.2,0.2-0.4c0,0,0-0.1,0-0.1c-0.2,0.1-0.4,0.1-0.6,0.2c0.1,0.3,0.2,0.5,0.3,0.8c0.1-0.1,0.3-0.3,0.4-0.4
						c-0.1-0.1-0.2-0.2-0.4-0.4c-0.2-0.4-0.7-0.1-0.5,0.3c0.2,0.3,0.4,0.5,0.7,0.7c0.2,0.1,0.5-0.2,0.4-0.4
						c-0.1-0.3-0.2-0.5-0.3-0.8c-0.1-0.4-0.7-0.2-0.6,0.2c0.1,0.5,0.5,0.8,0.9,0.5c0.1-0.1,0.2-0.2,0.2-0.4
						c-0.1-0.2-0.2-0.3-0.4-0.4c-0.1,0-0.2,0-0.3,0.1c0,0-0.1,0-0.1,0.1C60,34.7,60,34.9,60,35c0.1,0.5,0.4,0.7,0.9,0.7
						c0.2,0,0.4-0.2,0.3-0.4c-0.1-0.2-0.1-0.4-0.2-0.5c-0.2,0.1-0.4,0.2-0.6,0.2c0.3,0.4,0.5,0.7,0.9,1c0.2,0.2,0.6,0,0.5-0.3
						c-0.1-0.5-0.3-0.9-0.6-1.4c-0.2,0.1-0.4,0.2-0.5,0.3c0.3,0.4,0.6,0.8,1,1.1c0.3,0.2,0.7-0.1,0.5-0.4c-0.2-0.4-0.4-0.8-0.5-1.1
						c-0.2-0.3-0.7-0.1-0.6,0.2c0.2,0.5,0.5,1,0.9,1.4c0.2,0.2,0.5,0.1,0.5-0.2c0.1-0.5,0-0.9-0.3-1.4c-0.2,0.1-0.3,0.3-0.5,0.4
						c0.2,0.2,0.5,0.4,0.7,0.7c0.2,0.2,0.7,0,0.5-0.3c-0.1-0.4-0.3-0.8-0.6-1.1c-0.2-0.3-0.7-0.1-0.6,0.2c0.1,0.4,0.3,0.7,0.6,1
						c0.2,0.2,0.7,0,0.5-0.3c-0.2-0.5-0.5-0.9-1-1.2c-0.2-0.1-0.6,0.1-0.5,0.4c0.1,0.3,0.1,0.5,0,0.8c0.2-0.1,0.4-0.1,0.5-0.1
						c-0.3-0.3-0.6-0.6-1-0.8c-0.2-0.1-0.4,0-0.5,0.2c-0.2,0.8-1,1.3-1.7,0.9c0,0.2,0.1,0.3,0.1,0.4c0.2-0.3,0.4-0.6,0.6-0.9
						c-0.2-0.1-0.4-0.2-0.6-0.2c0,0.3-0.1,0.5-0.3,0.7c0.2,0.1,0.3,0.3,0.5,0.4c0.2-0.5,0.5-0.9,0.9-1.2c-0.2-0.1-0.3-0.3-0.5-0.4
						c-0.2,0.4-0.4,0.8-0.7,1.3c-0.2,0.3,0.3,0.7,0.5,0.4c0.5-0.7,1.1-1.3,1.6-2c-0.2-0.1-0.4-0.2-0.5-0.3c-0.2,0.6-0.5,0.9-1.1,1.2
						c0.2,0.2,0.3,0.3,0.4,0.4c0.4-0.6,1-1.1,1.8-1.3c-0.1-0.1-0.3-0.3-0.4-0.4c-0.1,0.4-0.3,0.8-0.8,0.8c0.1,0.2,0.2,0.4,0.2,0.5
						c0.4-0.4,0.8-0.8,1.3-1.2c-0.2-0.1-0.4-0.1-0.5-0.1c-0.1,0.2-0.1,0.4-0.2,0.6c0.2,0.1,0.3,0.2,0.5,0.3c0.1-0.1,0.2-0.2,0.3-0.3
						c0.1,0.1,0.3,0.2,0.4,0.3c0.1-0.2,0.1-0.3,0.2-0.5c-0.2,0-0.3-0.1-0.4-0.1c0,0.1-0.1,0.1-0.1,0.1c0.1,0.1,0.2,0.2,0.3,0.3
						c-0.1-0.4,0-0.7,0.3-1c-0.2,0-0.3,0-0.5,0c0,0.1-0.1,0.2-0.1,0.3c0.2,0,0.3,0.1,0.4,0.1c0.2,0.1,0.3,0.3,0.2,0.5
						c0,0.1,0,0.3,0,0.4c0,0.3,0,0.5,0.1,0.7c0.1,0.3,0.5,0.3,0.6,0c0.2-0.5,0.2-1-0.1-1.5c-0.2-0.3-0.7-0.1-0.6,0.2
						c0.1,0.3,0.2,0.6,0.4,0.9c0.2,0.2,0.5,0.2,0.6-0.1c0.1-0.5,0-1-0.3-1.4c-0.2-0.2-0.5,0-0.5,0.2c0,0.3,0,0.4,0.2,0.7
						c0.1,0.2,0.4,0.2,0.5,0c0,0,0-0.1,0-0.1c0.1-0.1,0.1-0.3-0.1-0.4c-0.7-0.6-1.1,0.4-0.5,0.9c0.2,0.2,0.6,0,0.5-0.3
						c-0.1-0.3-0.2-0.5-0.4-0.7c-0.2-0.2-0.5,0-0.5,0.2c-0.1,0.4,0,0.7,0.1,1.1c0.2-0.1,0.4-0.1,0.6-0.2c-0.2-0.4-0.4-0.8-0.7-1.1
						c-0.2-0.2-0.5-0.1-0.5,0.1c-0.1,0.3-0.1,0.5,0.2,0.7C62.6,34.4,63.1,34,62.8,33.7L62.8,33.7z"/>
				</g>
			</g>
		</g>
		<g>
			<g>
				<g>
					<path d="M62.3,35.5c-0.6,0-1.3-0.1-1.9-0.2c-0.4-0.1-0.6,0.5-0.2,0.6c0.7,0.1,1.4,0.3,2.1,0.4c0-0.2,0-0.4,0-0.6
						c-0.6,0.1-1.2,0.2-1.8,0.1c0,0.2,0,0.4,0,0.6c0.5-0.1,0.9-0.1,1.4,0c0.1-0.2,0.1-0.4,0.2-0.6c-1-0.2-2.1-0.4-3.1-0.6
						c0,0.2-0.1,0.4-0.1,0.6c0.5,0,0.9,0.1,1.4,0.3c0-0.2,0-0.4,0-0.5c-0.3,0.2-0.6,0.2-0.9,0.2c0,0.2,0,0.4,0,0.7
						c0.2,0,0.5,0,0.7,0.1c0-0.2,0-0.4,0-0.7c-0.3,0-0.6,0-0.9,0c-0.1,0.2-0.1,0.4-0.2,0.6c0.3,0.1,0.5,0.1,0.8,0.2
						c0-0.2,0-0.4,0-0.6C59.4,36,59,36,58.6,35.7c-0.2-0.2-0.5-0.1-0.5,0.1C58.1,36,58,36.1,58,36.3c-0.1,0.4,0.4,0.5,0.6,0.2
						c0.4-0.7,0.9-1.3,1.3-1.9c0.2-0.3,0.4-0.6,0.6-0.9c0.1-0.3,0.3-0.5,0.7-0.5c0,0.2,0.1,0.4,0.1,0.6c0.1,0.4,0.7,0.2,0.6-0.2
						c-0.1-0.4,0-1-0.5-1.2c-0.3-0.1-0.6,0.1-0.9,0.3c-0.4,0.4-0.7,1-1,1.4c-0.5,0.7-0.9,1.4-1.4,2.1c0.2,0.1,0.4,0.2,0.6,0.2
						c0.1-0.2,0.1-0.3,0.1-0.4c-0.2,0.1-0.4,0.1-0.5,0.1c0.5,0.4,1.1,0.6,1.8,0.4c0.3-0.1,0.3-0.5,0-0.6c-0.3-0.1-0.5-0.1-0.8-0.2
						c-0.4-0.1-0.6,0.5-0.2,0.6c0.4,0.1,0.7,0.1,1.1,0.1c0.4-0.1,0.4-0.6,0-0.7c-0.2,0-0.5,0-0.7-0.1c-0.4,0-0.4,0.6,0,0.7
						c0.5,0.1,0.8,0,1.2-0.2c0.2-0.1,0.2-0.4,0-0.5c-0.6-0.3-1.1-0.4-1.7-0.4c-0.3,0-0.5,0.5-0.1,0.6c1,0.2,2.1,0.4,3.1,0.6
						c0.4,0.1,0.6-0.5,0.2-0.6c-0.6-0.2-1.1-0.2-1.7,0c-0.3,0.1-0.3,0.6,0,0.6c0.7,0.1,1.4,0.1,2.2-0.1c0.3-0.1,0.3-0.6,0-0.6
						c-0.7-0.1-1.4-0.3-2.1-0.4c-0.1,0.2-0.1,0.4-0.2,0.6c0.7,0.1,1.4,0.2,2.1,0.2C62.8,36.2,62.8,35.5,62.3,35.5L62.3,35.5z"/>
				</g>
			</g>
		</g>
		<g>
			<g>
				<g>
					<path d="M73.1,39.8c-3.1,3.2-7.1,5-11.5,5.6c-2,0.2-4.1,0.2-6.1-0.1c-1.1-0.1-2.1-0.3-3.1-0.6c-1.1-0.3-2.6-0.5-3.4-1.3
						c-0.3-0.3-0.8,0.2-0.5,0.5c0.8,0.8,2,1,3,1.3c1.1,0.3,2.3,0.5,3.4,0.7c2.2,0.3,4.5,0.4,6.7,0.1c4.5-0.5,8.8-2.5,11.9-5.7
						C73.8,40,73.4,39.5,73.1,39.8L73.1,39.8z"/>
				</g>
			</g>
		</g>
		<g>
			<g>
				<g>
					<path d="M63.9,36.3c-3.1,0.4-6.1,0.9-9.1,2c-2.5,0.9-5.5,2.2-6.9,4.6c-0.2,0.4,0.3,0.7,0.5,0.3c1.4-2.4,4.6-3.7,7.1-4.5
						c2.7-0.9,5.5-1.4,8.3-1.8C64.3,36.8,64.3,36.2,63.9,36.3L63.9,36.3z"/>
				</g>
			</g>
		</g>
		<g>
			<g>
				<g>
					<path d="M66.7,30.1c-2.4,1.4-2.5,4.2-2.5,6.7c0,0.4,0.7,0.4,0.7,0c0-2.2,0-4.9,2.2-6.1C67.4,30.4,67.1,29.9,66.7,30.1
						L66.7,30.1z"/>
				</g>
			</g>
		</g>
		<g>
			<g>
				<g>
					<path d="M101.9,88.4c-5.7,4.1-12.6,6.5-19.6,6.7c-0.4,0-0.4,0.7,0,0.7c7.2-0.2,14.1-2.6,20-6.8
						C102.5,88.7,102.2,88.2,101.9,88.4L101.9,88.4z"/>
				</g>
			</g>
		</g>
		<g>
			<g>
				<g>
					<path d="M69.8,94.2c-3.2,0.7-6.4,1.5-9.7,1.6c-1.6,0.1-3.2-0.1-4.8-0.4c-1.6-0.3-3.1-0.9-4.7-1.2c-0.4-0.1-0.6,0.5-0.2,0.6
						c1.7,0.3,3.3,0.9,5,1.3c1.5,0.3,3.1,0.4,4.6,0.4c3.3-0.1,6.6-0.8,9.9-1.6C70.4,94.7,70.2,94.1,69.8,94.2L69.8,94.2z"/>
				</g>
			</g>
		</g>
		<g>
			<g>
				<g>
					<path d="M99,88.6c0,1.2-0.7,2.3-1.9,2.7c-1.3,0.4-2.7-0.4-3.8-1c-0.4-0.2-0.7,0.4-0.3,0.5c1.4,0.8,3.1,1.6,4.7,1
						c1.3-0.5,2-1.8,2-3.2C99.6,88.2,99,88.2,99,88.6L99,88.6z"/>
				</g>
			</g>
		</g>
		<g>
			<g>
				<g>
					<path d="M87.7,94.9c0.4-0.7,0.6-1.4,0.7-2.2c0.1-0.4-0.6-0.4-0.7,0c-0.1,0.7-0.3,1.3-0.6,1.9C86.9,94.9,87.5,95.2,87.7,94.9
						L87.7,94.9z"/>
				</g>
			</g>
		</g>
		<g>
			<g>
				<g>
					<path d="M63.7,95.2c-0.7-0.6-1.1-1.5-1-2.4c0-0.4-0.6-0.4-0.7,0c-0.1,1.1,0.3,2.2,1.2,2.9C63.6,95.9,64,95.5,63.7,95.2
						L63.7,95.2z"/>
				</g>
			</g>
		</g>
		<g>
			<g>
				<g>
					<path d="M97.9,93.1c-1.5,0.9-3,1.5-4.6,1.9c-0.4,0.1-0.2,0.7,0.2,0.6c1.7-0.4,3.3-1,4.8-1.9C98.5,93.4,98.2,92.9,97.9,93.1
						L97.9,93.1z"/>
				</g>
			</g>
		</g>
		<g>
			<g>
				<g>
					<path d="M101.6,90.5c-0.5,0.5-1.1,0.9-1.9,1.1c-0.4,0.1-0.2,0.8,0.2,0.6c0.8-0.3,1.5-0.7,2.1-1.3
						C102.4,90.7,101.9,90.2,101.6,90.5L101.6,90.5z"/>
				</g>
			</g>
		</g>
		<g>
			<g>
				<g>
					<path d="M78.8,83c-3.4,11.2-6,22.5-8.9,33.8c-0.8,3.2-1.7,6.4-2.6,9.5c-0.1,0.4,0.5,0.6,0.6,0.2c3.2-11.2,5.7-22.6,8.8-33.9
						c0.9-3.2,1.8-6.3,2.7-9.5C79.6,82.8,78.9,82.6,78.8,83L78.8,83z"/>
				</g>
			</g>
		</g>
		<g>
			<g>
				<g>
					<path d="M83.1,82.9c-2.7-0.8-5.4-1.6-8-2.4c-1.3-0.4-2.5-0.7-3.8-1.1c-1.2-0.4-2.3-0.8-3.1-1.8c0,0.1,0,0.2,0,0.3
						c0.1,0,0.1-0.1,0.2-0.1c0.3,0,0.3-0.4,0-0.4c-0.3,0-0.3,0-0.5,0.2c-0.1,0.1-0.1,0.2,0,0.3c1.5,1.8,4.3,2.1,6.5,2.8
						c2.9,0.8,5.8,1.7,8.7,2.5C83.3,83.4,83.4,83,83.1,82.9L83.1,82.9z"/>
				</g>
			</g>
		</g>
		<g>
			<g>
				<g>
					<path d="M91.6,86.1c-0.5-0.3-1-0.6-1.6-0.6c-0.3,0-0.4,0.4-0.1,0.4c0.5,0.1,1,0.3,1.5,0.6C91.6,86.6,91.8,86.2,91.6,86.1
						L91.6,86.1z"/>
				</g>
			</g>
		</g>
		<g>
			<g>
				<g>
					<path d="M85.4,60.7c1,0.1,1.8,1.2,1.5,2.2c-0.3,0.9-1.2,1.4-2.1,1.2c-0.3-0.1-0.4,0.3-0.1,0.4c1.2,0.3,2.5-0.4,2.7-1.7
						c0.2-1.3-0.8-2.4-2-2.5C85.1,60.2,85.1,60.7,85.4,60.7L85.4,60.7z"/>
				</g>
			</g>
		</g>
		<g>
			<g>
				<g>
					<path d="M83.6,64.5c2.1,2.1,1.4,5.4,0.8,8c-0.6,2.7-1.4,5.3-2.7,7.7c-0.1,0.2,0.2,0.5,0.4,0.2c1.4-2.7,2.3-5.7,2.9-8.8
						c0.5-2.5,0.9-5.5-1.1-7.5C83.7,64,83.4,64.3,83.6,64.5L83.6,64.5z"/>
				</g>
			</g>
		</g>
		<g>
			<g>
				<g>
					<path d="M46.9,85.8c2.2,1.1,1.8,4.3,1.6,6.3c-0.3,2.9-0.8,5.7-1.4,8.5c-0.6,2.7-1.4,5.4-2.4,8c-0.5,1.3-1,2.6-1.7,3.9
						c-0.6,1.1-2.4,3.1-3.5,1.3c-0.2-0.2-0.5,0-0.4,0.2c1,1.5,3,0.7,3.8-0.6c0.7-1,1.1-2.2,1.6-3.3c0.5-1.2,1-2.5,1.4-3.7
						c1.7-5.1,2.8-10.5,3.2-15.9c0.1-1.8,0-4.3-1.9-5.2C46.9,85.3,46.7,85.7,46.9,85.8L46.9,85.8z"/>
				</g>
			</g>
		</g>
		<g>
			<g>
				<g>
					<path d="M70.3,127.2c-2.5-0.2-4.9-0.6-7.3-1.3c0,0.1,0,0.3,0.1,0.4c0.5-0.3,1-0.4,1.6-0.5c0.3,0,0.3-0.4,0-0.4
						c-0.7,0-1.3,0.2-1.9,0.5c-0.2,0.1-0.1,0.3,0.1,0.4c2.4,0.7,4.9,1.1,7.4,1.3C70.5,127.6,70.5,127.2,70.3,127.2L70.3,127.2z"/>
				</g>
			</g>
		</g>
		<g>
			<g>
				<g>
					<path d="M67.8,128.2c-1.7-0.3-3.4-0.4-5.2-0.1c-0.3,0.1-0.2,0.5,0.1,0.4c1.6-0.3,3.3-0.2,4.9,0.1
						C68,128.7,68.1,128.3,67.8,128.2L67.8,128.2z"/>
				</g>
			</g>
		</g>
		<g>
			<g>
				<g>
					<path d="M59.2,128.6c-0.4,0-0.8,0-1.2,0c-0.3,0-0.3,0.4,0,0.4c0.4,0,0.8,0,1.2,0C59.4,129.1,59.4,128.6,59.2,128.6L59.2,128.6z
						"/>
				</g>
			</g>
		</g>
		<g>
			<g>
				<g>
					<path d="M58.2,128.6c-0.9,0-1.1-1.5-2.1-1.6c-1.1-0.1-1.7,1.2-2.6,1.7c-0.2,0.1-0.1,0.3,0.1,0.4c0.6,0.2,1.2,0.3,1.8,0.2
						c0.5-0.1,1.8-0.7,2.2-0.4c0.2,0.2,0.5-0.1,0.3-0.3c-0.4-0.3-0.8-0.3-1.2-0.1c-1,0.3-1.9,0.5-3,0.2c0,0.1,0,0.3,0.1,0.4
						c1-0.5,2-2.5,3.1-1.1c0.4,0.5,0.7,1.1,1.4,1.1C58.5,129.1,58.5,128.6,58.2,128.6L58.2,128.6z"/>
				</g>
			</g>
		</g>
		<g>
			<g>
				<g>
					<path d="M53.8,128.9c-2.1-1-4.5-0.9-6.8-1.1c0.1,0.1,0.1,0.1,0.2,0.2c0-1,1.6-1.3,1.6-2.4c0-0.2-0.2-0.2-0.3-0.2
						c-0.8,0.4-1.6,0.8-2.4,1.4c0.1,0.1,0.2,0.2,0.3,0.2c0.1-0.7,0.1-1.3-0.2-1.9c-0.1-0.2-0.3-0.2-0.4-0.1
						c-0.3,0.4-0.6,0.8-0.9,1.2c-0.2,0.2,0.1,0.5,0.3,0.3c0.3-0.4,0.7-0.8,1-1.3c-0.1,0-0.3,0-0.4-0.1c0.2,0.5,0.3,1.1,0.2,1.7
						c0,0.2,0.2,0.4,0.3,0.2c0.7-0.6,1.5-1,2.4-1.4c-0.1-0.1-0.2-0.1-0.3-0.2c0,1.1-1.7,1.2-1.6,2.4c0,0.1,0.1,0.2,0.2,0.2
						c2.2,0.1,4.5,0.1,6.6,1C53.9,129.4,54.1,129.1,53.8,128.9L53.8,128.9z"/>
				</g>
			</g>
		</g>
		<g>
			<g>
				<g>
					<path d="M43.7,127c-1.5-0.1-2.9-0.2-4.4-0.3c-0.3,0-0.3,0.4,0,0.4c1.5,0.1,2.9,0.2,4.4,0.3C43.9,127.5,43.9,127,43.7,127
						L43.7,127z"/>
				</g>
			</g>
		</g>
		<g>
			<g>
				<g>
					<path d="M105.6,112.6c-0.9-0.1-1.8-0.2-2.7-0.3c-0.6-0.1-1.2-0.2-1.8,0.2c-0.2,0.2,0,0.5,0.2,0.4c0.6-0.4,1.5-0.2,2.2-0.1
						c0.7,0.1,1.4,0.2,2.1,0.2C105.9,113.1,105.9,112.7,105.6,112.6L105.6,112.6z"/>
				</g>
			</g>
		</g>
		<g>
			<g>
				<g>
					<path d="M38.1,112.8c-1.3,0.1-2.7,0.1-4,0.2c-0.3,0-0.3,0.4,0,0.4c1.3-0.1,2.7-0.1,4-0.2C38.4,113.2,38.4,112.7,38.1,112.8
						L38.1,112.8z"/>
				</g>
			</g>
		</g>
		<g>
			<g>
				<g>
					<path d="M110,120.2c-0.3-1.9-2.4-2.7-4-1.9c-0.4,0.2-0.8,0.5-1.1,0.9c-0.4,0.4-0.6,1-1.1,1.3c-0.7,0.4-1.6,0.3-2,1.2
						c-0.1,0.1,0,0.3,0.2,0.3c1.9-0.1,3.8-0.1,5.7-0.2c0.3,0,0.3-0.4,0-0.4c-1.9,0.1-3.8,0.1-5.7,0.2c0.1,0.1,0.1,0.2,0.2,0.3
						c0.3-0.7,1.1-0.7,1.7-0.9c0.6-0.3,0.8-0.7,1.2-1.2c1.2-1.7,4.2-1.9,4.6,0.5C109.6,120.6,110.1,120.5,110,120.2L110,120.2z"/>
				</g>
			</g>
		</g>
		<g>
			<g>
				<g>
					<path d="M96.1,128c0.2-0.7-0.8-1.3-1.3-0.7c-0.5,0.6,0.3,1.5,0.9,1.2c0.1,0,0.1-0.1,0.1-0.2c0-0.2,0-0.3,0-0.5
						c0-0.3-0.4-0.3-0.4,0c0,0.2,0,0.3,0,0.5c0-0.1,0.1-0.1,0.1-0.2c-0.3,0.1-0.6-0.3-0.4-0.5c0.2-0.2,0.6,0.1,0.5,0.3
						C95.6,128.2,96.1,128.3,96.1,128L96.1,128z"/>
				</g>
			</g>
		</g>
		<g>
			<g>
				<g>
					<path d="M88.7,127.4c-0.1-0.3-0.1-0.5-0.4-0.7c-0.2-0.1-0.4-0.2-0.6-0.1c-0.4,0.1-0.8,0.5-0.7,0.9c0,0.4,0.4,0.8,0.8,0.8
						C88.2,128.4,88.6,128,88.7,127.4c0-0.2-0.5-0.2-0.5,0.1c0,0.2-0.2,0.5-0.5,0.4c-0.2,0-0.4-0.3-0.4-0.5c0-0.2,0.2-0.4,0.4-0.4
						c0.1,0,0.3,0,0.3,0.1c0.1,0.1,0.1,0.3,0.2,0.4C88.3,127.8,88.7,127.7,88.7,127.4L88.7,127.4z"/>
				</g>
			</g>
		</g>
		<g>
			<g>
				<g>
					<path d="M97.1,124.1c0.1-0.3,0-0.7-0.3-0.9c-0.2-0.1-0.3-0.2-0.5-0.1c-0.1,0.1-0.2,0.2-0.3,0.4c-0.1,0.3,0,0.7,0.3,0.8
						C96.6,124.5,96.9,124.4,97.1,124.1c0.3-0.1,0-0.4-0.2-0.2c-0.1,0.1-0.3,0.2-0.4,0c-0.1-0.2,0-0.4,0.2-0.4c-0.1,0-0.1,0-0.2,0
						c0.2,0.1,0.3,0.3,0.2,0.5C96.6,124.3,97,124.4,97.1,124.1L97.1,124.1z"/>
				</g>
			</g>
		</g>
		<g>
			<g>
				<g>
					<path d="M83.8,40.8c-0.2,0.8-0.8,1.4-1.6,1.5c-0.3,0-0.3,0.5,0,0.4c1-0.1,1.8-0.8,2-1.8C84.2,40.6,83.8,40.5,83.8,40.8
						L83.8,40.8z"/>
				</g>
			</g>
		</g>
		<g>
			<g>
				<g>
					<path d="M95.6,95.6c0,0.5,0.1,1,0.4,1.5c0.2,0.2,0.5,0,0.4-0.2C96.1,96.4,96,96,96,95.6C96,95.3,95.6,95.3,95.6,95.6L95.6,95.6
						z"/>
				</g>
			</g>
		</g>
		<g>
			<g>
				<g>
					<path d="M62.8,98.4c-0.2,0.6-0.4,1.3-0.4,1.9c0,0.3,0.4,0.4,0.4,0.1c0.1-0.7,0.2-1.3,0.4-1.9C63.3,98.3,62.9,98.2,62.8,98.4
						L62.8,98.4z"/>
				</g>
			</g>
		</g>
		<g>
			<g>
				<g>
					<path d="M62.2,95.5c-0.4,0-0.7-0.1-1-0.3c-0.2-0.2-0.5,0.1-0.3,0.3c0.4,0.3,0.8,0.5,1.3,0.4C62.5,95.9,62.5,95.5,62.2,95.5
						L62.2,95.5z"/>
				</g>
			</g>
		</g>
		<g>
			<g>
				<g>
					<path d="M107.8,113.1c0.9-0.7,2.1,0.1,3.1,0.2c0.9,0.1,1.8,0,2.7-0.3c0.3-0.1,0.2-0.5-0.1-0.4c-1.4,0.5-2.6,0.3-3.9-0.1
						c-0.8-0.2-1.4-0.2-2.1,0.3C107.2,112.9,107.6,113.2,107.8,113.1L107.8,113.1z"/>
				</g>
			</g>
		</g>
		<g>
			<g>
				<g>
					<path d="M95.5,67.9c0.2-0.2,0.4-0.3,0.7-0.4c-0.1-0.1-0.1-0.2-0.2-0.4c-0.1,0.1-0.2,0.2-0.3,0.3c-0.2,0.2,0.1,0.5,0.3,0.3
						c0.1-0.1,0.2-0.2,0.3-0.3c0.1-0.2,0-0.4-0.2-0.4c-0.3,0.1-0.6,0.3-0.9,0.5C95,67.8,95.3,68.1,95.5,67.9L95.5,67.9z"/>
				</g>
			</g>
		</g>
		<g class="st1">
			<path d="M35.6,96.5c0.4,0,0.7-0.2,0.9-0.4c0.2-0.2,0.4-0.6,0.5-1c0.1-0.4,0.1-1.2,0.1-2.2c0-1.1,0-1.8,0.1-2.3
				c0.1-0.5,0.2-0.9,0.4-1.2c0.2-0.3,0.5-0.5,0.8-0.7c0.2-0.1,0.6-0.2,1.1-0.2l0.4,0l0,1.4l-0.2,0c-0.5,0-0.8,0.1-1,0.3
				c-0.2,0.2-0.3,0.5-0.3,0.9c0,0.2,0,0.9,0,2.1c0,1.3-0.1,2.2-0.3,2.8c-0.2,0.6-0.6,1-1.2,1.3c0.5,0.3,0.8,0.6,1.1,0.9
				c0.2,0.3,0.4,0.8,0.5,1.5c0.1,0.4,0.1,1.4,0.1,3c0,0.8,0.1,1.3,0.3,1.5c0.2,0.2,0.5,0.3,1.1,0.3l0.2,0l0,1.4l-0.4,0
				c-0.4,0-0.7,0-0.9-0.1c-0.3-0.1-0.5-0.2-0.7-0.4c-0.2-0.2-0.3-0.4-0.5-0.7c-0.1-0.3-0.2-0.7-0.3-1.2c0-0.3-0.1-1-0.1-2
				s-0.1-1.7-0.2-2.1c-0.1-0.4-0.3-0.7-0.5-1c-0.3-0.2-0.6-0.3-1-0.3L35.6,96.5z"/>
		</g>
		<g>
			<g>
				<g>
					<path class="st0" d="M94.6,73.3c0.1,1.6,0.5,3.3,0.8,4.9c0.1,0.3,0.5,0.2,0.4-0.1c-0.3-1.5-0.7-3.2-0.8-4.8
						C95,73,94.6,73,94.6,73.3L94.6,73.3z"/>
				</g>
			</g>
		</g>
		<g>
			<g>
				<g>
					<path class="st0" d="M92.3,74.7c0.1,0.4,0.1,0.8,0.2,1.2c0,0.3,0.4,0.2,0.4-0.1c-0.1-0.4-0.1-0.8-0.2-1.2
						C92.6,74.3,92.2,74.4,92.3,74.7L92.3,74.7z"/>
				</g>
			</g>
		</g>
		<g>
			<g>
				<g>
					<path class="st0" d="M67.9,83.1C68,83.1,68,83.1,67.9,83.1c0.2,0,0.2-0.1,0.2-0.2c0-0.2,0-0.2-0.2-0.3c-0.1-0.1-0.2,0-0.3,0
						c-0.2,0.2-0.2,0.5-0.2,0.8c0,0.7,0,1.4,0,2.2c0,1.4,0,2.8,0,4.2c0,0.3,0.4,0.3,0.4,0c0-1.1,0-2.2,0-3.3c0-0.3,0-3.7-0.1-3.7
						C67.5,82.8,67.7,83.2,67.9,83.1L67.9,83.1z"/>
				</g>
			</g>
		</g>
		<g>
			<g>
				<g>
					<path class="st0" d="M64,83.8c0.2,0.7,0.2,1.4,0.2,2.2c0,0.3,0.4,0.3,0.4,0c0.1-0.8,0-1.5-0.2-2.3C64.4,83.4,63.9,83.5,64,83.8
						L64,83.8z"/>
				</g>
			</g>
		</g>
		<g>
			<g>
				<g>
					<path class="st0" d="M57.1,84.2c0,2,0.4,3.9,1.2,5.7c0.1,0.3,0.5,0.1,0.4-0.1c-0.7-1.8-1.1-3.7-1.2-5.6
						C57.5,84,57.1,84,57.1,84.2L57.1,84.2z"/>
				</g>
			</g>
		</g>
		<g>
			<g>
				<g>
					<path class="st0" d="M53.4,83.7c-0.1,0.6-0.1,1.1-0.2,1.7c0,0.3,0.4,0.3,0.4,0c0.1-0.6,0.1-1.1,0.2-1.7
						C53.9,83.5,53.4,83.5,53.4,83.7L53.4,83.7z"/>
				</g>
			</g>
		</g>
		<g>
			<g>
				<g>
					<path class="st0" d="M46.4,78c-0.4,2-0.7,3.9-1.1,5.9c-0.1,0.3,0.4,0.4,0.4,0.1c0.4-2,0.7-3.9,1.1-5.9
						C46.9,77.8,46.5,77.7,46.4,78L46.4,78z"/>
				</g>
			</g>
		</g>
		<g>
			<g>
				<g>
					<path d="M56.1,38.9c-2.4,0.3-4.8,1.5-6.4,3.3c-0.5,0.6-0.3,0.9,0.4,1.2c1.3,0.5,2.6,0.9,3.9,1.1c5.1,1,10.4,0.3,14.9-2.3
						c0.2-0.1,0-0.5-0.2-0.4c-3.9,2.2-8.4,3-12.8,2.5c-1.1-0.1-2.2-0.3-3.3-0.6c-0.5-0.1-1.1-0.3-1.6-0.5c-0.2-0.1-0.7-0.2-0.8-0.3
						c-0.4-0.3-0.1-0.7,0.2-0.9c1.6-1.5,3.6-2.5,5.8-2.8C56.5,39.3,56.4,38.9,56.1,38.9L56.1,38.9z"/>
				</g>
			</g>
		</g>
		<g>
			<g>
				<g>
					<path d="M50.9,39.2c-0.7,0.2-1.4,0.6-1.9,1c-0.6,0.5-1.2,1.8-2,2c-0.5,0.1-1,0-1.5,0c-0.5,0-1.1,0.1-1.6,0.2
						c-1,0.1-2,0.3-3,0.6c-0.3,0.1-0.2,0.5,0.1,0.4c1.1-0.3,2.2-0.5,3.4-0.7c0.5-0.1,1.1-0.1,1.6-0.1c0.4,0,1,0.1,1.4,0
						c0.6-0.1,0.8-0.7,1.1-1.1c0.7-0.9,1.6-1.5,2.6-1.9C51.3,39.5,51.2,39.1,50.9,39.2L50.9,39.2z"/>
				</g>
			</g>
		</g>
		<g>
			<g>
				<g>
					<path class="st0" d="M70.8,36.2c0.2,0.2,0.4,0.3,0.5,0.5c0.1-0.2,0.2-0.5,0.3-0.7c-0.2,0-0.5,0-0.7,0c-0.3,0-0.6,0.4-0.4,0.7
						c0.3,0.4,0.8,0.5,1.2,0.3c0.2-0.1,0.3-0.4,0.2-0.6c-0.1-0.2-0.4-0.3-0.6-0.2c0,0,0,0,0,0c0,0,0,0,0,0c-0.1,0-0.1,0,0,0s0,0,0,0
						c0,0,0,0,0,0c0,0,0,0,0,0c0.1,0.1,0-0.1,0,0c-0.1,0.2-0.2,0.4-0.4,0.7c0.2,0,0.5,0,0.7,0c0.4,0,0.6-0.5,0.3-0.7
						c-0.2-0.2-0.4-0.3-0.5-0.5c-0.2-0.2-0.4-0.2-0.6,0C70.6,35.8,70.6,36.1,70.8,36.2L70.8,36.2z"/>
				</g>
			</g>
		</g>
		<g>
			<g>
				<g>
					<path class="st0" d="M71.5,35.7c-0.2,0.1-0.4,0.2-0.5,0.3c-0.2,0.1-0.3,0.4-0.2,0.6c0.2,0.3,0.4,0.5,0.7,0.7
						c0.3,0.1,0.5,0,0.6-0.3c0.2-0.5,0.2-1,0-1.6c-0.2,0.2-0.4,0.4-0.5,0.5c0,0,0,0.1,0,0.1c0.3-0.1,0.5-0.1,0.8-0.2
						c-0.1-0.2-0.2-0.5-0.1-0.7c-0.3,0-0.6,0-0.9,0c0,0.2,0,0.4,0,0.7c0,0.5,0.8,0.5,0.9,0c0-0.3,0-0.5,0-0.8
						c-0.3,0-0.6,0.1-0.8,0.1c0.1,0.2,0.1,0.4,0.1,0.7c0.3,0,0.5-0.1,0.8-0.1c-0.2-0.4-0.3-0.8-0.4-1.3c-0.3,0.1-0.5,0.1-0.8,0.2
						c0.2,0.5,0.3,0.9,0.2,1.4c0.2-0.1,0.4-0.2,0.7-0.4c-0.5-0.4-0.8-0.9-0.8-1.5c-0.2,0.1-0.4,0.2-0.7,0.4c0.3,0.2,0.4,0.7,0.2,1
						c0.2-0.1,0.4-0.1,0.6-0.2c-0.5-0.4-0.8-0.9-1-1.6c-0.2,0.2-0.4,0.3-0.6,0.5c0.4,0.3,0.6,0.7,0.6,1.3c0.2-0.1,0.4-0.3,0.5-0.4
						c-0.6-0.2-1.1-0.5-1.3-1.1c-0.2,0.2-0.4,0.3-0.6,0.5c0.3,0.2,0.4,0.5,0.3,0.9c0.2-0.1,0.4-0.2,0.6-0.3
						c-0.5-0.3-0.9-0.6-1.1-1.1c-0.2,0.2-0.4,0.4-0.6,0.6c0.3,0.2,0.4,0.4,0.4,0.7c0.2-0.1,0.4-0.2,0.7-0.4
						c-0.3-0.2-0.6-0.3-0.9-0.6c-0.3-0.3-0.8,0-0.7,0.4c0,0.2,0.1,0.3,0.1,0.5c0.1,0.5,0.9,0.3,0.8-0.2c0-0.2-0.1-0.3-0.1-0.5
						c-0.2,0.1-0.5,0.3-0.7,0.4c0.3,0.3,0.6,0.5,1,0.7c0.3,0.1,0.7,0,0.7-0.4c0-0.7-0.3-1.1-0.8-1.5c-0.4-0.2-0.8,0.2-0.6,0.6
						c0.3,0.6,0.8,1.1,1.5,1.4c0.2,0.1,0.6,0,0.6-0.3c0.2-0.8-0.1-1.4-0.7-1.9c-0.3-0.2-0.8,0.1-0.6,0.5c0.3,0.9,1,1.5,1.9,1.8
						c0.3,0.1,0.5-0.1,0.5-0.4c0-0.8-0.3-1.5-1-2c-0.3-0.2-0.7,0.1-0.6,0.5c0.2,0.9,0.7,1.6,1.4,2.1c0.2,0.1,0.5,0,0.6-0.2
						c0.4-0.8,0.2-1.6-0.5-2.2c-0.3-0.2-0.7,0.1-0.7,0.4c0,0.9,0.4,1.7,1.2,2.3c0.3,0.2,0.6-0.1,0.7-0.4c0-0.7-0.1-1.2-0.4-1.8
						c-0.2-0.4-0.8-0.2-0.8,0.2c0,0.6,0.2,1.2,0.5,1.7c0.2,0.3,0.7,0.3,0.8-0.1c0.1-0.4,0.1-0.8-0.1-1.2c-0.2-0.4-0.8-0.4-0.8,0.1
						C71.4,35.1,71.4,35.4,71.5,35.7c0.3,0,0.5,0,0.8,0c0-0.2,0-0.4,0-0.7c0-0.6-0.8-0.5-0.9,0c-0.1,0.4,0,0.8,0.2,1.1
						c0.2,0.4,0.8,0.2,0.8-0.2c0-0.5-0.2-0.8-0.7-0.9c-0.3-0.1-0.7,0.2-0.5,0.5c0.2,0.4,0.2,0.7,0,1.1c0.2-0.1,0.4-0.2,0.6-0.3
						c-0.2-0.1-0.3-0.2-0.4-0.3c-0.1,0.2-0.1,0.4-0.2,0.6c0.2-0.1,0.4-0.2,0.5-0.3C72.4,36.1,71.9,35.4,71.5,35.7L71.5,35.7z"/>
				</g>
			</g>
		</g>
		<g>
			<g>
				<g>
					<path class="st0" d="M62.1,33.7c0.2,0.4,0.3,0.8,0.3,1.2c0.2-0.1,0.4-0.2,0.7-0.4c-0.2-0.2-0.3-0.5-0.2-0.7
						c-0.3,0-0.5,0.1-0.8,0.1c0.2,0.3,0.3,0.6,0.2,1c0.2-0.1,0.5-0.1,0.7-0.2c-0.2-0.1-0.3-0.3-0.5-0.4c-0.3-0.3-0.8,0-0.7,0.4
						c0.1,0.2,0.1,0.4,0.2,0.6c0.1,0.5,1,0.3,0.8-0.2c-0.1-0.2-0.1-0.4-0.2-0.6c-0.2,0.1-0.5,0.3-0.7,0.4c0.2,0.1,0.3,0.3,0.5,0.4
						c0.2,0.2,0.6,0.1,0.7-0.2c0.2-0.6,0.1-1.2-0.3-1.6C62.6,33.2,62.2,33.2,62.1,33.7c-0.3,0.5,0,1.2,0.5,1.6
						c0.3,0.2,0.7-0.1,0.7-0.4c0-0.6-0.2-1.1-0.5-1.6C62.5,32.8,61.8,33.2,62.1,33.7L62.1,33.7z"/>
				</g>
			</g>
		</g>
		<g>
			<g>
				<g>
					<path d="M39.9,84.2c-0.2,1.1-0.4,2.2-0.6,3.2c-0.1,0.3,0.4,0.4,0.4,0.1c0.2-1.1,0.4-2.2,0.6-3.2C40.3,84.1,39.9,83.9,39.9,84.2
						L39.9,84.2z"/>
				</g>
			</g>
		</g>
		<g>
			<g>
				<g>
					<path d="M39.5,106.6c-0.3,2.8-0.1,5.6,0.6,8.3c0.1,0.3,0.5,0.2,0.4-0.1c-0.7-2.7-0.8-5.4-0.6-8.2
						C39.9,106.3,39.5,106.3,39.5,106.6L39.5,106.6z"/>
				</g>
			</g>
		</g>
	</g>
</g>
<g id="Layer_3_2_">
</g>
</svg>
