<?xml version="1.0" encoding="utf-8"?>
<!-- Generator: Adobe Illustrator 24.0.1, SVG Export Plug-In . SVG Version: 6.00 Build 0)  -->
<svg version="1.1" id="Layer_1" xmlns="http://www.w3.org/2000/svg" xmlns:xlink="http://www.w3.org/1999/xlink" x="0px" y="0px"
	 viewBox="0 0 141.7 141.7" style="enable-background:new 0 0 141.7 141.7;" xml:space="preserve">
<style type="text/css">
	.st0{fill:#070707;}
	.st1{enable-background:new    ;}
</style>
<g id="Layer_1_1_">
</g>
<g id="Layer_1_2_">
</g>
<g id="Layer_1_3_">
</g>
<g id="Layer_1_4_">
</g>
<g id="Layer_1_5_">
</g>
<g id="Layer_3">
</g>
<g id="Layer_3_1_">
</g>
<g>
	<g>
		<g>
			<path class="st0" d="M46.8,116.4c1,1.4,2.2,2.6,3.3,4c0.2,0.3,0.7,0,0.5-0.3c-1-1.4-2.2-2.6-3.3-4
				C47.1,115.8,46.5,116.1,46.8,116.4L46.8,116.4z"/>
		</g>
	</g>
</g>
<g>
	<g>
		<g>
			<path class="st0" d="M42.5,53.9c-0.2,2.4-0.4,4.8-0.3,7.2c0,0.4,0.6,0.4,0.6,0c-0.1-2.4,0.1-4.8,0.3-7.2
				C43.2,53.5,42.6,53.5,42.5,53.9L42.5,53.9z"/>
		</g>
	</g>
</g>
<g>
	<g>
		<g>
			<path class="st0" d="M50,34.1c-3.2,3.2-5.1,7.3-6.2,11.6c-0.1,0.4,0.5,0.5,0.6,0.2c1.1-4.2,2.9-8.2,6.1-11.4
				C50.7,34.3,50.3,33.9,50,34.1L50,34.1z"/>
		</g>
	</g>
</g>
<g>
	<g>
		<g>
			<path class="st0" d="M100.1,37.5c-1.1-2.1-2.6-3.9-4.4-5.5c-0.3-0.2-0.7,0.2-0.4,0.4c1.8,1.5,3.3,3.3,4.3,5.3
				C99.8,38.2,100.3,37.8,100.1,37.5L100.1,37.5z"/>
		</g>
	</g>
</g>
<g>
	<g>
		<g>
			<path class="st0" d="M56.2,124.3c5.2,3.2,11.9,3.2,17.8,2.7c3.1-0.3,6.1-0.7,9.1-1.2c3.2-0.5,6.8-0.8,9.7-2.6
				c0.3-0.2,0-0.7-0.3-0.5c-2.8,1.8-6.4,2-9.5,2.5c-3,0.5-6,0.9-9,1.2c-5.8,0.5-12.4,0.5-17.5-2.7C56.2,123.6,55.9,124.1,56.2,124.3
				L56.2,124.3z"/>
		</g>
	</g>
</g>
<g>
	<g>
		<g>
			<path class="st0" d="M43.9,45.4c-4.8-0.4-7.5-5.3-4.8-9.4c1.2-1.8,3.2-2.9,5.2-3.3c1.9-0.4,4.6-0.2,5.9,1.4
				c0.2,0.3,0.7-0.1,0.4-0.4c-1.4-1.7-4.1-1.9-6.1-1.6c-2.4,0.4-4.5,1.6-5.9,3.6c-1.4,1.9-1.5,4.4-0.6,6.5c1,2.3,3.5,3.6,5.9,3.7
				C44.3,46,44.3,45.4,43.9,45.4L43.9,45.4z"/>
		</g>
	</g>
</g>
<g>
	<g>
		<g>
			<path class="st0" d="M95.8,32.6c3.4-1.8,8.6-2.6,11.1,1.1c2.4,3.6,0.9,9.5-3.7,10.3c-0.4,0.1-0.2,0.6,0.2,0.6
				c5.1-0.9,6.4-6.9,4.3-10.9c-2.3-4.3-8.4-3.5-12-1.6C95.2,32.3,95.5,32.8,95.8,32.6L95.8,32.6z"/>
		</g>
	</g>
</g>
<g>
	<g>
		<g>
			<path class="st0" d="M69.4,50.8c0.1,0,0.2,0,0.3,0c0-0.1-0.1-0.2-0.1-0.3c-0.2,0.2-0.8,0.2-1,0.3c-0.6,0.4-1.2,0.9-1.8,1.4
				c-0.9,0.8-1.7,1.9-1.5,3.1c0.2,1.2,1.8,2,2.9,2.1c2.2,0.2,4.1-0.9,6.2-1c2.4-0.1,6.2,2.6,7-1.2c0.6-2.8-3.2-4.4-5.2-5.1
				c-0.2-0.1-0.3,0.2-0.1,0.3c2.1,0.8,5.6,2.3,4.9,5.1c-0.4,1.9-2.3,1.7-3.7,1.3c-1.1-0.3-2.1-0.6-3.3-0.6c-1.3,0-2.6,0.6-3.8,0.9
				c-1.6,0.4-4.6,0.1-4.7-2.1c0-1.4,1.5-2.6,2.5-3.3c0.3-0.2,0.7-0.5,1.1-0.6c0.2,0,0.5-0.1,0.7-0.2c0.1-0.1,0-0.3-0.1-0.3
				c-0.1,0-0.2,0-0.4,0C69.2,50.6,69.2,50.9,69.4,50.8L69.4,50.8z"/>
		</g>
	</g>
</g>
<g>
	<g>
		<g>
			<path class="st0" d="M77.1,57c0.5,1.4,0.7,2.8,0.4,4.3c-0.3,1.2-1.4,1.8-2.6,1.6c-0.7-0.1-0.9-1.1-1.2-1.6
				c-0.1-0.2-0.3,0-0.3,0.1c0.3,0.6,0.5,1.3,1.1,1.7c0.7,0.4,1.6,0.1,2.2-0.2c1.8-1,1.2-4.3,0.6-5.9C77.4,56.7,77.1,56.8,77.1,57
				L77.1,57z"/>
		</g>
	</g>
</g>
<g>
	<g>
		<g>
			<path class="st0" d="M50.4,120.5c2.8-1.4,4.3,2.2,6.3,3.5c0-0.1,0-0.2,0-0.3c-1.5,0.2-2.8,1.3-4,2.2c-1.4,1.1-3.3,2.7-5.1,1.8
				c-2.4-1.1-1.7-3.4-0.2-4.9c1.1-1.1,2.6-2,4-2.7c0.2-0.1,0-0.3-0.1-0.3c-2.3,1.1-7.4,4.1-4.9,7.1c3.1,3.9,7.4-2.6,10.5-3
				c0.1,0,0.1-0.2,0-0.3c-2.1-1.4-3.5-5-6.6-3.5C50.1,120.4,50.2,120.6,50.4,120.5L50.4,120.5z"/>
		</g>
	</g>
</g>
<g>
	<g>
		<g>
			<path class="st0" d="M47.1,127.3c-0.5-1.7,0.8-3,2.1-3.7c0.2-0.1,0-0.4-0.1-0.3c-1.5,0.8-2.8,2.2-2.3,4
				C46.9,127.6,47.2,127.5,47.1,127.3L47.1,127.3z"/>
		</g>
	</g>
</g>
<g>
	<g>
		<g>
			<path class="st0" d="M98,127.3c-1.6-0.9-2.6-2.6-4-3.8c-0.1-0.1-0.3-0.3-0.5-0.4c-1.3-0.9,0.5-2.1,1-2.5c1.2-0.9,2.5-1.3,3.9-0.9
				c2,0.6,3.3,2.7,3.7,4.6c0.3,1.1,0.1,2.2-0.7,3C100.7,128.2,99,127.8,98,127.3c-0.2-0.1-0.3,0.2-0.1,0.3c1.8,0.9,4.6,0.7,4.8-1.8
				c0.2-2.5-1.4-5.2-3.7-6.2c-1.2-0.5-2.4-0.4-3.5,0.2c-0.8,0.4-2.6,1.5-2.7,2.6c0,0.9,1.2,1.5,1.8,2.1c1,1.1,1.9,2.3,3.3,3.1
				C98.1,127.6,98.2,127.4,98,127.3z"/>
		</g>
	</g>
</g>
<g>
	<g>
		<g>
			<path class="st0" d="M99,123.5c1.1,1.1,1.9,2.5,2,4.1c0,0.2,0.3,0.2,0.3,0c0-1.7-0.9-3.2-2.1-4.3C99.1,123.1,98.9,123.3,99,123.5
				L99,123.5z"/>
		</g>
	</g>
</g>
<g>
	<g>
		<g>
			<path class="st0" d="M104.7,76c0.6,0.3,1.4,0.1,2,0.1c1.7,0,3.5,1.2,4.4,2.6c0.5,0.7,0.5,1.7,0.4,2.5c-0.2,1.2-1.4,1.4-2.4,1.2
				c-1.6-0.2-2.9-1.4-4-2.5c-0.1-0.1-0.4,0.1-0.2,0.2c1.2,1.2,2.7,2.6,4.5,2.7c1.2,0.1,2.3-0.5,2.4-1.8c0.2-1.5-0.5-3-1.8-3.9
				c-0.8-0.6-1.7-0.9-2.7-1.2c-0.8-0.2-1.7,0.2-2.4-0.1C104.7,75.6,104.5,75.9,104.7,76L104.7,76z"/>
		</g>
	</g>
</g>
<g>
	<g>
		<g>
			<path class="st0" d="M108.6,80c1.1,0.3,2.4,1.3,1.8,2.5c-0.1,0.2,0.2,0.3,0.3,0.1c0.8-1.5-0.6-2.6-1.9-3
				C108.5,79.7,108.4,80,108.6,80L108.6,80z"/>
		</g>
	</g>
</g>
<g>
	<path class="st0" d="M85.3,50.7c-5.4,0-9.7-4.4-9.7-9.7c0-5.4,4.4-9.7,9.7-9.7c5.4,0,9.7,4.4,9.7,9.7C95,46.3,90.6,50.7,85.3,50.7z
		 M85.3,31.6c-5.2,0-9.4,4.2-9.4,9.4c0,5.2,4.2,9.4,9.4,9.4s9.4-4.2,9.4-9.4C94.6,35.8,90.4,31.6,85.3,31.6z"/>
</g>
<g>
	<path class="st0" d="M61.2,51.7c-5.4,0-9.7-4.4-9.7-9.7s4.4-9.7,9.7-9.7c5.4,0,9.7,4.4,9.7,9.7S66.6,51.7,61.2,51.7z M61.2,32.6
		c-5.2,0-9.4,4.2-9.4,9.4s4.2,9.4,9.4,9.4c5.2,0,9.4-4.2,9.4-9.4S66.4,32.6,61.2,32.6z"/>
</g>
<g>
	<path class="st0" d="M103.5,37.2c0-1.1-0.9-2-2-2c-1.1,0-2,0.9-2,2c0,1.1,0.9,2,2,2S103.5,38.3,103.5,37.2z"/>
</g>
<g>
	<circle class="st0" cx="44.8" cy="39" r="2"/>
</g>
<g>
	<path class="st0" d="M77.6,49.8c0-1.3-1.9-2.4-4.3-2.4S69,48.5,69,49.8c0,1.3,1.9,2.4,4.3,2.4C75.6,52.1,77.6,51.1,77.6,49.8z"/>
</g>
<g>
	<path class="st0" d="M82.1,41.5c0,1.7,1.4,3.1,3.1,3.1c1.7,0,3.1-1.4,3.1-3.1c0-1.7-1.4-3.1-3.1-3.1C83.5,38.4,82.1,39.8,82.1,41.5
		z M87.2,40.3c0,0.5-0.4,0.9-0.9,0.9c-0.5,0-0.9-0.4-0.9-0.9c0-0.5,0.4-0.9,0.9-0.9C86.8,39.4,87.2,39.8,87.2,40.3z"/>
</g>
<g>
	<path class="st0" d="M58.1,41.7c0,1.7,1.4,3.1,3.1,3.1c1.7,0,3.1-1.4,3.1-3.1c0-1.7-1.4-3.1-3.1-3.1C59.5,38.6,58.1,40,58.1,41.7z
		 M63.2,40.5c0,0.5-0.4,0.9-0.9,0.9c-0.5,0-0.9-0.4-0.9-0.9c0-0.5,0.4-0.9,0.9-0.9S63.2,40,63.2,40.5z"/>
</g>
<g>
	<g>
		<g>
			<path class="st0" d="M73.5,56.3c0.2,1.3,0.1,2.8,0,4c-0.1,1.6-1.4,3.6-3.2,2.2c-1.3-1.1-0.9-3.9-0.5-5.4c0-0.2-0.2-0.3-0.3-0.1
				c-0.5,1.8-0.9,5.3,1.4,6.1c3.4,1.1,3.2-5.2,2.8-7C73.8,56,73.5,56.1,73.5,56.3L73.5,56.3z"/>
		</g>
	</g>
</g>
<g>
	<g>
		<g>
			<path class="st0" d="M102.5,112.6c-0.7,1.4-1.3,2.7-2.3,4c-0.7,0.8-1.2,1.7-1.4,2.8c-0.1,0.4,0.5,0.5,0.6,0.2
				c0.3-1.4,1-2.1,1.9-3.2c0.8-1,1.3-2.3,1.8-3.4C103.2,112.5,102.7,112.2,102.5,112.6L102.5,112.6z"/>
		</g>
	</g>
</g>
<g>
	<g>
		<g>
			<path class="st0" d="M104.4,76.1c0,5.4,0.7,10.7,1,16.1c0,0.4,0.6,0.4,0.6,0c-0.3-5.4-0.9-10.7-1-16.1
				C105,75.7,104.4,75.7,104.4,76.1L104.4,76.1z"/>
		</g>
	</g>
</g>
<g>
	<g>
		<g>
			<path class="st0" d="M103.9,52.9c0.1,2.8,0.1,5.6,0.1,8.4c0,0.4,0.6,0.4,0.6,0c0-2.8,0-5.6-0.1-8.4
				C104.5,52.5,103.9,52.5,103.9,52.9L103.9,52.9z"/>
		</g>
	</g>
</g>
<g>
	<g>
		<g>
			<path class="st0" d="M99.1,36.7c1.6,2.3,2.7,4.9,3.5,7.6c0.1,0.4,0.7,0.2,0.6-0.2c-0.8-2.8-1.9-5.4-3.5-7.8
				C99.4,36.1,98.9,36.4,99.1,36.7L99.1,36.7z"/>
		</g>
	</g>
</g>
<g>
	<g>
		<g>
			<path class="st0" d="M92.8,123c0,0,0.1,0,0.1,0c0.2,0,0.2-0.3,0-0.3h0c0,0-0.1,0-0.1,0.1c0,0,0,0,0,0c0.1,0.1,0.1,0.1,0.2,0.2
				c0,0,0-0.1,0-0.2C92.9,122.8,92.8,122.9,92.8,123c0,0,0.1,0,0.1,0.1c0.1,0.1,0.4-0.1,0.2-0.2c0,0-0.1-0.1-0.2-0.2
				c-0.1-0.1-0.2,0-0.2,0.1C92.7,122.8,92.7,122.9,92.8,123c-0.1,0.1,0,0.2,0.1,0.1c0.1,0,0.2-0.1,0.2-0.2c0,0-0.1,0-0.1,0.1h0
				c0.2,0,0.2-0.3,0-0.3c0,0-0.1,0-0.1,0C92.6,122.7,92.6,123,92.8,123L92.8,123z"/>
		</g>
	</g>
</g>
<g>
	<g>
		<g>
			<path class="st0" d="M45.9,70c0.8-2,0.6-4.5-1.4-5.8c-1.9-1.2-4.3-0.4-5.5,1.4c-0.2,0.3,0.3,0.6,0.5,0.3c1.1-1.7,3.4-2.2,5.1-0.9
				c1.5,1.2,1.4,3.2,0.7,4.8C45.2,70.2,45.8,70.3,45.9,70L45.9,70z"/>
		</g>
	</g>
</g>
<g>
	<g>
		<g>
			<path class="st0" d="M39.5,65c-1,1.2-1.9,2.5-2.2,4c-0.1,0.4,0.5,0.5,0.6,0.2c0.3-1.4,1.1-2.6,2-3.8C40.1,65.1,39.7,64.7,39.5,65
				L39.5,65z"/>
		</g>
	</g>
</g>
<g>
	<g>
		<g>
			<path class="st0" d="M49.2,69.9c0.6-3.2-0.2-6.6-2.9-8.7c-1-0.8-2.5-1.3-3.7-0.5c-1.1,0.7-1.5,2.2-1.7,3.4c0,0.4,0.5,0.4,0.6,0
				c0.1-1.1,0.6-2.7,1.8-3.1c1.3-0.5,2.7,0.7,3.6,1.6c1.8,1.9,2.2,4.6,1.7,7.1C48.6,70.1,49.1,70.3,49.2,69.9L49.2,69.9z"/>
		</g>
	</g>
</g>
<g>
	<g>
		<g>
			<path class="st0" d="M101.4,67.3c0.8,2.5,2.9,5.4,5.7,5.9c2.4,0.4,3.9-2.1,3.4-4.3c-0.5-2.5-3.2-5.3-5.8-5.6
				c-2.3-0.3-4.8,2-3.1,4.2c0.2,0.3,0.7,0,0.5-0.3c-0.8-1-0.4-2.4,0.8-3c1.1-0.6,2.4-0.3,3.4,0.3c1.7,1,3.7,3.1,3.7,5.2
				c0,0.9-0.4,1.9-1.2,2.5c-1.1,0.8-2.4,0.2-3.4-0.4c-1.7-1.1-2.8-2.8-3.4-4.7C101.9,66.8,101.3,67,101.4,67.3L101.4,67.3z"/>
		</g>
	</g>
</g>
<g>
	<g>
		<g>
			<path class="st0" d="M109.9,71.7c-0.2,0.6,0.2,1,0.7,1.4c0,0,0.6,0.3,0.6,0.3c0.1,0.4,0.3,0.8,0.4,1.1c-0.2,0.1-0.4,0.1-0.6,0.2
				c-0.7,0.2-1.4,0.5-2.1,0.6c-3,0.7-5.9,0-7.9-2.4c-1.9-2.3-2.2-5.6-1.5-8.4c0.4-1.6,1.3-3,3.1-3.1c1.6,0,2.8,1.3,3.2,2.8
				c0.1,0.4,0.6,0.2,0.6-0.2c-0.6-2.7-3.9-4.4-6.1-2.3c-1.2,1.1-1.5,3.1-1.7,4.6c-0.2,1.8,0.1,3.7,0.9,5.3c1.5,3.1,4.7,4.9,8.2,4.5
				c1-0.1,1.9-0.4,2.8-0.7c0.6-0.2,1.6-0.3,2-0.9c1-1.5-2.3-1.7-2-2.7C110.5,71.5,110,71.4,109.9,71.7L109.9,71.7z"/>
		</g>
	</g>
</g>
<g>
	<g>
		<g>
			<path class="st0" d="M91.2,98.9c5-1.2,9.7-3.1,13.8-6.1c0.3-0.2,0-0.7-0.3-0.5c-4.1,3-8.8,4.9-13.7,6.1
				C90.6,98.5,90.8,99,91.2,98.9L91.2,98.9z"/>
		</g>
	</g>
</g>
<g>
	<g>
		<g>
			<path class="st0" d="M79.6,100.5c2.9-0.2,5.7-0.5,8.6-0.9c0.4-0.1,0.2-0.6-0.2-0.6c-2.8,0.5-5.6,0.8-8.4,0.9
				C79.3,99.9,79.3,100.5,79.6,100.5L79.6,100.5z"/>
		</g>
	</g>
</g>
<g>
	<g>
		<g>
			<path class="st0" d="M57.8,99.5c2.8,0.6,5.6,0.9,8.4,1.1c0.4,0,0.4-0.6,0-0.6c-2.8-0.2-5.5-0.5-8.2-1
				C57.6,98.8,57.5,99.4,57.8,99.5L57.8,99.5z"/>
		</g>
	</g>
</g>
<g>
	<g>
		<g>
			<path class="st0" d="M91.1,92.7c4.7-1.5,9.5-2.9,13.8-5.6c0.3-0.2,0-0.7-0.3-0.5c-4.2,2.7-8.9,4.1-13.6,5.6
				C90.6,92.2,90.7,92.8,91.1,92.7L91.1,92.7z"/>
		</g>
	</g>
</g>
<g>
	<g>
		<g>
			<path class="st0" d="M78.7,96.1c3.2-0.5,6.2-1.4,9.3-2.4c0.4-0.1,0.2-0.7-0.2-0.6c-3.1,1-6.1,1.9-9.3,2.4
				C78.2,95.6,78.4,96.2,78.7,96.1L78.7,96.1z"/>
		</g>
	</g>
</g>
<g>
	<g>
		<g>
			<path class="st0" d="M69.3,96.6c2.1,0.1,4.2,0.1,6.3-0.1c0.4,0,0.4-0.6,0-0.6c-2.1,0.2-4.2,0.2-6.3,0.1C69,96,69,96.6,69.3,96.6
				L69.3,96.6z"/>
		</g>
	</g>
</g>
<g>
	<g>
		<g>
			<path class="st0" d="M59.6,95c2.1,0.6,4.3,1,6.4,1.3c0.4,0,0.5-0.5,0.2-0.6c-2.2-0.3-4.3-0.8-6.4-1.3
				C59.4,94.3,59.2,94.9,59.6,95L59.6,95z"/>
		</g>
	</g>
</g>
<g>
	<g>
		<g>
			<path class="st0" d="M68.1,96.1c-0.2,1.2-0.5,2.7,0.3,3.7c0.9,1.2,2.9,1,4.2,1c1.2,0,3.5,0.3,4.3-1c0.8-1.3,0.3-3-0.6-4.1
				c-0.2-0.3-0.7,0-0.5,0.3c0.9,1.2,1.6,3.7-0.5,4.1c-1,0.2-2.1,0.1-3.1,0.1c-1.1,0-2.8,0.1-3.4-0.9c-0.5-0.9-0.3-2.1-0.1-3.1
				C68.8,95.9,68.2,95.7,68.1,96.1L68.1,96.1z"/>
		</g>
	</g>
</g>
<g>
	<g>
		<g>
			<path class="st0" d="M67.1,100.6c-0.5-1.2-1-2.6-0.6-3.9c0.5-1.6,2.4-1.8,3.8-2.1c2.6-0.5,6.4-1.1,7.6,2c0.4,1,0.7,2.2,0.6,3.3
				c-0.1,1.7-1.2,2.3-2.8,2.2c-1.4-0.1-2.8-0.2-4.1-0.3c-0.7,0-5.1,0-4.7-1.2c0.1-0.4-0.5-0.5-0.6-0.2c-0.4,1.5,1.2,1.7,2.3,1.8
				c2.3,0.2,4.6,0.4,6.9,0.5c1.4,0.1,2.7-0.1,3.3-1.5c0.6-1.3,0.3-2.8-0.1-4.1c-0.4-1.4-1.2-2.6-2.6-3.1c-1.7-0.6-3.7-0.3-5.5,0
				c-1.5,0.2-3.5,0.4-4.4,1.8c-1,1.5-0.3,3.4,0.3,5C66.7,101.1,67.2,100.9,67.1,100.6L67.1,100.6z"/>
		</g>
	</g>
</g>
<g>
	<g>
		<g>
			<path class="st0" d="M88.6,93.1c1.1,0.2,1,2.5,0.9,3.3c-0.1,1.2-0.4,2.3-1.1,3.3c-0.2,0.3,0.2,0.7,0.4,0.4c1-1.3,1.4-2.8,1.3-4.4
				c0-1.1,0-2.9-1.4-3.2C88.3,92.4,88.2,93,88.6,93.1L88.6,93.1z"/>
		</g>
	</g>
</g>
<g>
	<g>
		<g>
			<path class="st0" d="M89.7,91.9c1.5,2.4,1.6,5.3,0.4,7.9c-0.2,0.3,0.3,0.6,0.5,0.3c1.4-2.7,1.2-5.9-0.4-8.4
				C90,91.3,89.5,91.6,89.7,91.9L89.7,91.9z"/>
		</g>
	</g>
</g>
<g>
	<g>
		<g>
			<path class="st0" d="M87.5,102.5c1.1-0.2,2.2-0.4,3.3-0.6c0.4-0.1,0.2-0.6-0.2-0.6c-1.1,0.2-2.2,0.4-3.3,0.6
				C87,102,87.2,102.6,87.5,102.5L87.5,102.5z"/>
		</g>
	</g>
</g>
<g>
	<g>
		<g>
			<path class="st0" d="M87.4,92.1c0.7-0.5,1.4-0.9,2.1-1.4c0.3-0.2,0-0.7-0.3-0.5c-0.7,0.5-1.4,0.9-2.1,1.4
				C86.7,91.8,87.1,92.4,87.4,92.1L87.4,92.1z"/>
		</g>
	</g>
</g>
<g>
	<g>
		<g>
			<path class="st0" d="M48.7,27c3.2,1.5,6.6,2.5,10.1,3.2c3.6,0.7,7.3,1.4,10.9,1.7c3.8,0.3,7.3-0.7,10.8-2
				c3.7-1.4,7.3-2.9,10.8-4.6c0.4-0.2,0-0.7-0.3-0.5c-3.4,1.6-6.9,3.1-10.4,4.4c-3.6,1.3-7,2.4-10.9,2.1c-3.5-0.3-7.1-0.9-10.6-1.6
				C55.7,29,52.2,28,49,26.5C48.7,26.3,48.4,26.9,48.7,27L48.7,27z"/>
		</g>
	</g>
</g>
<g>
	<g>
		<g>
			<path class="st0" d="M89.2,22.7c0.6,0.7,1.1,1.4,1.5,2.1c0.2,0.3,0.7,0,0.5-0.3c-0.5-0.8-1-1.6-1.6-2.3
				C89.4,22,88.9,22.4,89.2,22.7L89.2,22.7z"/>
		</g>
	</g>
</g>
<g>
	<g>
		<g>
			<path class="st0" d="M58.1,17.9c3.3-2.4,7.4-3.1,11.4-2.9c4.3,0.2,8.7,1.1,12.6,2.8c0.4,0.1,0.6-0.4,0.3-0.5
				c-4-1.7-8.5-2.7-12.9-2.8c-4.1-0.2-8.3,0.6-11.7,3C57.5,17.6,57.8,18.1,58.1,17.9L58.1,17.9z"/>
		</g>
	</g>
</g>
<g>
	<g>
		<g>
			<path class="st0" d="M48.9,26.7c1.6-1.8,3.2-3.5,4.9-5.1c0.3-0.3-0.1-0.7-0.4-0.4c-1.7,1.6-3.3,3.3-4.9,5.1
				C48.2,26.6,48.6,27,48.9,26.7L48.9,26.7z"/>
		</g>
	</g>
</g>
<g>
	<g>
		<g>
			<path class="st0" d="M51.7,32.8c-3.9-0.5-8.7-1.3-10.7-5.1c-0.1,0.1-0.2,0.3-0.3,0.4c0.2,0.1,0.5,0.2,0.8,0.2
				c-0.2-0.2-0.3-0.4-0.4-0.7c-0.1,0.1-0.2,0.3-0.3,0.4c1.4,0.3,2.9,0.5,4.3,0.1c1.3-0.4,2.4-2,3.9-1.3c0.3,0.2,0.6-0.3,0.3-0.5
				c-1-0.5-1.9-0.2-2.8,0.4c-1.8,1.1-3.5,1-5.5,0.7c-0.3,0-0.5,0.2-0.3,0.4c0.2,0.3,0.9,1.5,1.4,0.8c0.4-0.6-0.6-1.1-1-1.3
				c-0.3-0.1-0.5,0.2-0.3,0.4c2.1,4,7.1,4.9,11.2,5.4C52,33.4,52,32.8,51.7,32.8L51.7,32.8z"/>
		</g>
	</g>
</g>
<g>
	<g>
		<g>
			<path class="st0" d="M91,25.6c1.1-0.6,2.4-0.9,3.7-0.6c1,0.2,1.9,0.8,2.9,1.2c1.7,0.7,3.4,0.7,5.1,0c-0.1-0.1-0.2-0.3-0.3-0.4
				c-1,2.2-2.5,4-4.5,5.3c-0.3,0.2,0,0.7,0.3,0.5c2.1-1.4,3.7-3.3,4.7-5.6c0.1-0.2-0.1-0.5-0.3-0.4c-1.2,0.5-2.5,0.6-3.8,0.3
				c-1.1-0.3-2-0.9-3-1.3c-1.7-0.6-3.5-0.4-5,0.4C90.4,25.3,90.7,25.8,91,25.6L91,25.6z"/>
		</g>
	</g>
</g>
<g>
	<g>
		<g>
			<path class="st0" d="M70,14.7c1.7,2.1,2.2,5.6,2.4,8.2c0.2,2.7,0,5.4-0.7,8c-0.1,0.4,0.5,0.5,0.6,0.2c0.8-2.9,1-6,0.7-9
				c-0.3-2.6-0.8-5.6-2.5-7.7C70.2,14,69.7,14.4,70,14.7L70,14.7z"/>
		</g>
	</g>
</g>
<g>
	<g>
		<g>
			<path class="st0" d="M83.5,20.7c1-0.5,1.8,1.7,1.3,2.3c-0.7,0.7-1.7,0.4-2.3-0.2c-0.8-0.8-1.4-2-1.3-3.2c0.2-3,4-1.8,5.9-2.1
				c1.5-0.2,2.5-1.3,3.4-2.4c0.3-0.5,1-1.9,1.9-1.1c0.6,0.6-0.5,1.7-0.9,2.1c-0.8,0.8-1.7,1.6-2.5,2.5c-0.2,0.2,0,0.6,0.3,0.5
				c0.8-0.3,1.6-0.6,2.4-0.9c0.3-0.1,0.7-0.4,1-0.4c0.9-0.1,0.8,0.6,0.4,1.2c-0.8,1.1-2.4,1.4-3.6,1.6c0,0.2,0.1,0.4,0.2,0.6
				c0.3-0.1,0.7-0.1,1,0c0.7-0.1,1,0.3,0.7,1.1c-0.3,0.3-1,0.3-1.4,0.2c-1.1-0.1-2-0.7-3-1.1c-0.6-0.2-1.9-0.6-1.9,0.4
				c0,0.4,0.6,0.4,0.6,0c0-0.4,2.1,0.5,2.3,0.7c0.5,0.2,1,0.5,1.6,0.5c0.8,0.1,1.7,0,2.3-0.5c0.5-0.4,0.8-1.1,0.3-1.5
				c-0.7-0.6-2-0.5-2.8-0.4c-0.4,0-0.2,0.6,0.2,0.6c1.6-0.2,4.1-0.8,4.4-2.7c0.4-2.7-3.8-0.2-4.8,0.1c0.1,0.2,0.2,0.3,0.3,0.5
				c0.9-0.9,5.4-4.2,3-5.7c-0.7-0.5-1.4,0-1.8,0.6c-1.3,1.6-2.1,3.1-4.4,3.1c-1.4,0-2.8-0.3-4.2,0.3c-1,0.5-1.5,1.4-1.5,2.5
				c0,1.9,1.6,4.9,3.9,4.1c2.3-0.9,0.5-4.6-1.3-3.7C82.9,20.3,83.2,20.8,83.5,20.7L83.5,20.7z"/>
		</g>
	</g>
</g>
<g>
	<g>
		<g>
			<path class="st0" d="M58.8,21.1c1.4,0.5,0.6,2.2-0.5,2.5c-0.7,0.2-1.5-0.1-2.1-0.5c-1.1-0.7-2-1.8-2.6-2.8
				c-0.8-1.2-1.2-2.6-1.3-4c0-0.7,0.1-1.4,0.3-2c0-0.1,0.4-1.1,0.5-1.1c0.6,0,0.4,1,0.3,1.3c-0.1,0.7-0.3,1.4,0.2,1.9
				c0.3,0.3,0.8,0.5,1.2,0.2c0.7-0.5,0.3-1.7,0.4-2.4c-0.1-0.8,0.2-1.1,0.7-1c0.3-0.1,0.4,0,0.3,0.4c0.1,0.3,0,0.8,0,1.1
				c-0.1,0.9-0.4,1.7-0.8,2.4c0.2,0.1,0.4,0.1,0.5,0.2c0.1-0.5,0.2-1,0.5-1.4c0.3-0.5,0.8-0.7,1.3-0.6c0.1,0.4,0.2,0.9,0.2,1.3
				c-0.1,0.4-0.6,0.9-0.7,1.3c-0.1,0.3-0.2,0.5-0.2,0.8c-0.1,1.1,0.5,2,1.6,2.1c0.4,0,0.4-0.5,0-0.6c-0.3-0.3-0.7-0.6-1-0.9
				c-0.1-0.4,0-0.8,0.2-1.2c0.1-0.4,0.3-0.6,0.5-0.9c0.2-0.4,0.5-0.8,0.5-1.2c0-0.5-0.2-1-0.7-1.2c-1.6-0.8-2.5,1.1-2.8,2.3
				c-0.1,0.3,0.4,0.5,0.5,0.2c0.9-1.5,1.1-3.1,0.8-4.8c0-0.1-0.1-0.2-0.2-0.2c-1.5-0.5-1.9,1.3-1.9,2.4c0,0.6,0.3,1.3-0.4,0.5
				c-0.5-0.6-0.3-0.5-0.2-1c0-0.3,0.1-0.5,0-0.8c-0.1-0.5-0.4-0.9-0.9-1c-0.1,0-0.3,0-0.3,0.1c-2.5,3.6-0.6,8.3,2.6,10.8
				c1.2,0.9,3,1.4,4.2,0.2c0.9-1,0.5-2.5-0.7-3C58.6,20.5,58.5,21,58.8,21.1L58.8,21.1z"/>
		</g>
	</g>
</g>
<g>
	<g>
		<g>
			<path class="st0" d="M51.1,33.7c4.7-0.8,9.5-1,14.3-0.5c4,0.4,8.1,1.9,12,0.7c3.3-1,6.4-3.5,10-3.4c3.3,0,6.9,3.8,10.1,1.2
				c0.3-0.2-0.1-0.7-0.4-0.4c-1.9,1.6-4.4,0.3-6.3-0.5c-1.6-0.7-3.1-1-4.8-0.7c-3.3,0.5-6.1,2.7-9.4,3.5c-2.3,0.6-4.4,0.1-6.7-0.3
				c-1.9-0.4-3.9-0.6-5.9-0.7c-4.4-0.3-8.8-0.1-13.1,0.6C50.5,33.2,50.7,33.7,51.1,33.7L51.1,33.7z"/>
		</g>
	</g>
</g>
<g>
	<g>
		<g>
			<path class="st0" d="M47.2,115.3c1.2-0.2,2.2-0.7,3.1-1.4c0.7-0.6,1.4-1.4,2.3-1.7c1.3-0.4,2.2,0.5,3.1,1.3
				c1.9,1.5,3.8,3.3,6.2,3.9c2.9,0.7,5.6-0.5,8.4-1.2c3.6-0.8,7,0.1,10.6,0.4c1.7,0.1,3.5,0.2,5.2,0c1.3-0.1,3-0.3,4.1-0.9
				c1.2-0.7,1.2-2.4,3-2.4c1.4-0.1,2.7,0.8,3.9,1.2c1.1,0.4,2.1,0.4,3.2,0c1.4-0.5,2.6-2,4.2-2.1c0.9-0.1,1.9,0.3,2.7,0.8
				c0.5,0.3,0.6,0.4,1.2,0.4c0.8-0.1,1.4-0.6,1.8-1.4c0.4-1,0.3-2.2,0.1-3.3c-0.3-1.7-0.6-3.3-1-4.9c-1-4.1-2.4-8-3.5-12
				c-0.1-0.4-0.7-0.2-0.6,0.2c0.9,3.3,2.1,6.6,3,9.9c0.7,2.7,1.7,5.8,1.7,8.7c0,1.4-0.9,2.8-2.3,2c-1-0.6-2.2-1-3.4-0.8
				c-1.2,0.2-2.1,1.1-3.1,1.7c-1.6,0.9-3,0.7-4.6,0c-2-0.8-4.1-1.5-5.5,0.5c-0.5,0.8-0.9,1.2-1.9,1.5c-0.7,0.2-1.4,0.4-2.2,0.5
				c-1.9,0.3-3.7,0.3-5.6,0.2c-3.2-0.2-6.4-1.1-9.6-0.7c-3,0.4-6.2,2.2-9.3,1.5c-3.1-0.7-5.1-3.1-7.5-4.8c-1-0.7-2.1-0.6-3.1,0
				c-1.6,0.9-2.6,2.4-4.6,2.7C46.9,114.8,46.9,115.4,47.2,115.3L47.2,115.3z"/>
		</g>
	</g>
</g>
<g>
	<g>
		<g>
			<path class="st0" d="M45.4,61.1c4.4,5.7,11.4,8.3,18.3,9.2c4.3,0.6,8.8,0.7,13.1,0.7c4,0,8.1-0.4,12-1.6c3.9-1.3,7.5-3.3,10.7-6
				c0.3-0.2-0.1-0.7-0.4-0.4c-6,5-13.2,7.2-20.9,7.4c-3.8,0.1-7.7,0-11.6-0.3S59,69,55.4,67.6c-3.7-1.4-7.1-3.7-9.5-6.9
				C45.7,60.5,45.2,60.7,45.4,61.1L45.4,61.1z"/>
		</g>
	</g>
</g>
<g>
	<g>
		<g>
			<path class="st0" d="M53.4,32.8c-6.9,6.1-8,16.5-2.4,23.8c0.1-0.1,0.3-0.3,0.4-0.4c-5.9-3.1-12.7-3.7-19-1.8
				c0.1,0.1,0.2,0.2,0.4,0.4c1.7-4.5,3.4-9,5.1-13.5c0.1-0.4-0.4-0.5-0.6-0.2c-1.7,4.5-3.4,9-5.1,13.5c-0.1,0.2,0.2,0.4,0.4,0.4
				c6.2-1.9,12.9-1.3,18.6,1.7c0.2,0.1,0.6-0.1,0.4-0.4C46,49.2,47,39.1,53.8,33.2C54.1,33,53.6,32.6,53.4,32.8L53.4,32.8z"/>
		</g>
	</g>
</g>
<g>
	<g>
		<g>
			<path class="st0" d="M41.5,33.6c0.2-1.1,0.8-2.1,1.8-2.7c0.3-0.2,0-0.7-0.3-0.5c-1.1,0.7-1.8,1.8-2,3.1
				C40.8,33.8,41.4,34,41.5,33.6L41.5,33.6z"/>
		</g>
	</g>
</g>
<g>
	<g>
		<g>
			<path class="st0" d="M105.5,43.8c1.4,4.1,2.8,8.1,4.1,12.2c0.2-0.1,0.3-0.2,0.5-0.3c-4-4.2-10.3-5.5-15.6-3.2
				c0.1,0.1,0.3,0.2,0.4,0.3c2.7-6.8,2.5-14.5-0.6-21.2c-0.2-0.4-0.7,0-0.5,0.3c3,6.5,3.2,14,0.5,20.7c-0.1,0.3,0.2,0.4,0.4,0.3
				c5.1-2.2,11.2-0.9,14.9,3.1c0.2,0.2,0.6,0,0.5-0.3c-1.4-4.1-2.8-8.1-4.1-12.2C105.9,43.2,105.4,43.4,105.5,43.8L105.5,43.8z"/>
		</g>
	</g>
</g>
<g>
	<g>
		<g>
			<path class="st0" d="M60.2,73.3c6.2,1.4,12.6,2.2,18.9,1.8c3-0.2,6.1-0.6,9-1.5c1.5-0.4,2.9-0.9,4.4-1.5c1.5-0.6,2.6-1.4,3.9-2.4
				c0.3-0.2,0-0.7-0.3-0.5c-1.1,0.9-2.2,1.6-3.5,2.2c-1.5,0.6-3,1.2-4.6,1.6c-3,0.8-6.1,1.3-9.2,1.5c-6.2,0.3-12.3-0.5-18.4-1.8
				C60,72.7,59.9,73.3,60.2,73.3L60.2,73.3z"/>
		</g>
	</g>
</g>
<g>
	<g>
		<g>
			<path class="st0" d="M64,82.5c1.6-0.2,3.1-0.9,4.6-1.3c1.8-0.5,3.6-0.4,5.4-0.2c3.6,0.4,7,1.7,10.6,2.3c2,0.3,4.6,0.7,6-1.2
				c1.6-2.1,0.6-4.7-0.6-6.7c-0.2-0.3-0.7,0-0.5,0.3c1.4,2.3,2.4,6.4-1.2,7.1c-2.6,0.5-5.7-0.6-8.3-1.3c-2.8-0.7-5.5-1.4-8.4-1.4
				c-2.8,0-5.1,1.2-7.8,1.6C63.4,82,63.6,82.6,64,82.5L64,82.5z"/>
		</g>
	</g>
</g>
<g>
	<g>
		<g>
			<path class="st0" d="M61.3,90.2c3.6-0.3,7.1-1.6,10.7-1.9c3.9-0.3,7.5,1.2,11.3,1.8c1.8,0.2,3.9,0.4,5.5-0.3
				c1.3-0.6,2.7-2.9,1-3.7c0,0.2,0,0.4-0.1,0.5c0,0,0.1,0,0.2,0c0-0.1,0-0.3,0-0.4c0,0-0.1-0.1-0.1-0.2c0,0.2,0,0.3,0,0.5
				c0.3-0.2,0.7-0.4,1-0.5c0.3-0.2,0-0.7-0.3-0.5c-0.3,0.2-0.7,0.4-1,0.5c-0.2,0.1-0.2,0.4,0,0.5c0.3,0.1,0.6,0.3,0.8,0.1
				c0.1-0.1,0.1-0.3,0-0.4c-0.2-0.2-0.5-0.3-0.7-0.2c-0.2,0-0.3,0.4-0.1,0.5c1,0.5,0.1,2.1-0.6,2.5c-0.8,0.5-1.8,0.6-2.7,0.6
				c-2.5,0.1-4.8-0.5-7.2-1.1c-2.9-0.6-5.6-1.1-8.5-0.7c-3.1,0.5-6.1,1.4-9.3,1.7C60.9,89.6,60.9,90.2,61.3,90.2L61.3,90.2z"/>
		</g>
	</g>
</g>
<g>
	<g>
		<g>
			<path class="st0" d="M50.2,114c0.5-1.6,1.2-3.2,2.1-4.7c0.2-0.3-0.3-0.6-0.5-0.3c-0.9,1.5-1.7,3.1-2.2,4.8
				C49.5,114.2,50.1,114.4,50.2,114L50.2,114z"/>
		</g>
	</g>
</g>
<g>
	<g>
		<g>
			<path class="st0" d="M88.7,115.8c-0.5-1.6-0.9-3.2-1.4-4.7c-0.1-0.4-0.7-0.2-0.6,0.2c0.5,1.6,0.9,3.2,1.4,4.7
				C88.2,116.3,88.8,116.1,88.7,115.8L88.7,115.8z"/>
		</g>
	</g>
</g>
<g>
	<g>
		<g>
			<path class="st0" d="M101.2,113.4c-0.5-1.4-0.9-2.7-1.4-4.1c-0.1-0.4-0.7-0.2-0.6,0.2c0.5,1.4,0.9,2.7,1.4,4.1
				C100.7,113.9,101.3,113.8,101.2,113.4L101.2,113.4z"/>
		</g>
	</g>
</g>
<g>
	<g>
		<g>
			<path class="st0" d="M93.4,112.2c-0.2-0.8-0.3-1.6-0.5-2.4c-0.1-0.4-0.6-0.2-0.6,0.2c0.2,0.8,0.3,1.6,0.5,2.4
				C92.9,112.7,93.5,112.6,93.4,112.2L93.4,112.2z"/>
		</g>
	</g>
</g>
<g>
	<g>
		<g>
			<path class="st0" d="M55.8,112.7c0.6-0.9,0.9-1.8,0.9-2.8c0-0.4-0.6-0.4-0.6,0c0,0.9-0.3,1.8-0.8,2.5
				C55,112.7,55.5,113,55.8,112.7L55.8,112.7z"/>
		</g>
	</g>
</g>
<g>
	<g>
		<g>
			<path class="st0" d="M70.7,116.1c0-1.8,0.2-3.6,0.5-5.4c0-0.4-0.5-0.5-0.6-0.2c-0.3,1.8-0.5,3.7-0.5,5.5
				C70.1,116.5,70.7,116.5,70.7,116.1L70.7,116.1z"/>
		</g>
	</g>
</g>
<g>
	<g>
		<g>
			<path class="st0" d="M23.1,86.8c-1.5-4.9-2.5-11.4,2.2-14.9c3.7-2.8,8.8-2.4,13.1-2.2c3.7,0.2,7.4,0,11,0.3
				c3.7,0.3,7.8,1,10.7,3.5c1.7,1.4,2.9,3.5,3.1,5.7c0.3,3-0.7,6-1.8,8.8c-2.1,5.6-5,10.9-8,16.1c-1.3,2.2-2.7,4.4-4,6.6
				c-0.9,1.6-1.9,3.3-2.9,4.8c-0.9,1.3-2.4,3.6-4.1,3.8c-1.4,0.2-2.8-1.8-3.6-2.8c-1.3-1.6-2.3-3.3-3.5-5c-1.5-2.3-3-4.5-4.4-6.8
				C27.7,99.1,25,93.1,23.1,86.8c-0.1-0.4-0.7-0.2-0.6,0.2c1.8,6,4.3,11.8,7.4,17.2c1.4,2.5,3,4.9,4.7,7.3c1.1,1.6,2.1,3.3,3.3,4.8
				c0.9,1.2,2,2.8,3.4,3.4c1.3,0.6,2.5-0.3,3.4-1.1c1.5-1.4,2.6-3.2,3.7-5c1.2-1.9,2.3-3.9,3.5-5.9c3.4-5.5,6.6-11,9.1-17
				c2-4.9,4.6-11.1,1.1-16c-2.3-3.2-6.1-4.5-9.8-5.1c-4.1-0.6-8.2-0.5-12.3-0.6c-5-0.1-10.8-1-15.1,2.2C20,75,21,81.8,22.5,87
				C22.6,87.3,23.2,87.2,23.1,86.8z"/>
		</g>
	</g>
</g>
<g>
	<g>
		<g>
			<path class="st0" d="M58,99.2c-0.2-0.2-0.5-0.3-0.7-0.5c-0.1-0.1-0.3,0-0.4,0.1c-0.1,0.1,0,0.3,0.1,0.4c0.2,0.2,0.5,0.3,0.7,0.5
				c0.1,0.1,0.3,0,0.4-0.1C58.2,99.4,58.1,99.3,58,99.2L58,99.2z"/>
		</g>
	</g>
</g>
<g>
	<g>
		<g>
			<path class="st0" d="M109.9,56.1c0.1,0.1-1.2,0.6-1.5,0.7c-0.5,0.1-0.9,0.3-1.4,0.4c-0.9,0.2-1.7,0.4-2.6,0.6
				c-0.4,0.1-0.2,0.6,0.2,0.6c1.7-0.3,3.6-0.7,5.1-1.4c0.5-0.3,1-0.9,0.4-1.4C109.8,55.4,109.6,55.9,109.9,56.1L109.9,56.1z"/>
		</g>
	</g>
</g>
<g>
	<g>
		<g>
			<path class="st0" d="M32.1,55c-0.7,1.9,1.4,2.9,2.8,3.6c2.3,1,4.7,1.7,7.2,2.1c0.4,0,0.5-0.5,0.2-0.6c-1.7-0.3-3.4-0.7-5.1-1.3
				c-1.4-0.5-5.3-1.6-4.5-3.7C32.8,54.8,32.2,54.6,32.1,55L32.1,55z"/>
		</g>
	</g>
</g>
<g>
	<g>
		<g>
			<path class="st0" d="M86.5,101.6c0,0.4,0.2,0.9,0.7,0.8c0.4,0,0.7-0.6,0.3-0.9c-0.1-0.1-0.3,0-0.4,0.1c-0.1,0.1,0,0.3,0.1,0.4
				c-0.1,0-0.1-0.1-0.1-0.2c0,0,0,0,0,0c0,0,0,0,0,0c0,0,0,0,0,0c0,0,0,0,0.1,0c0,0,0,0,0,0c0,0,0,0,0,0c0,0,0,0,0,0
				c0,0,0-0.1,0-0.1c0,0,0-0.1,0-0.1c0-0.2-0.1-0.3-0.3-0.3C86.6,101.3,86.4,101.5,86.5,101.6L86.5,101.6z"/>
		</g>
	</g>
</g>
<g>
	<g>
		<g>
			<path class="st0" d="M91.1,101.5c0.2-0.3,0.5-0.6,0.7-0.9c0.1-0.1,0-0.3-0.1-0.4c-0.1-0.1-0.3,0-0.4,0.1
				c-0.2,0.3-0.5,0.6-0.7,0.9c-0.1,0.1,0,0.3,0.1,0.4C90.8,101.7,91,101.7,91.1,101.5L91.1,101.5z"/>
		</g>
	</g>
</g>
<g>
	<g>
		<g>
			<path class="st0" d="M87,91.7c-0.1,0.1-0.2,0.3-0.3,0.4c-0.1,0.1,0,0.3,0.1,0.4c0.1,0.1,0.3,0,0.4-0.1c0.1-0.1,0.2-0.3,0.3-0.4
				c0.1-0.1,0-0.3-0.1-0.4C87.2,91.5,87.1,91.6,87,91.7L87,91.7z"/>
		</g>
	</g>
</g>
<g>
	<g>
		<g>
			<path class="st0" d="M89.2,90.6c0.2,0.2,0.5,0.5,0.7,0.7c0.3,0.3,0.7-0.1,0.4-0.4c-0.2-0.2-0.5-0.5-0.7-0.7
				C89.3,89.9,88.9,90.4,89.2,90.6L89.2,90.6z"/>
		</g>
	</g>
</g>
<g>
	<g>
		<g>
			<path class="st0" d="M68,98.8c2.8,0,5.6-0.1,8.3-0.4c0.4,0,0.4-0.6,0-0.6c-2.8,0.2-5.5,0.4-8.3,0.4C67.6,98.2,67.6,98.8,68,98.8
				L68,98.8z"/>
		</g>
	</g>
</g>
<g>
	<g>
		<g>
			<path class="st0" d="M67.7,98.5c-0.2-0.2-0.4-0.4-0.5-0.6c-0.1,0.1-0.2,0.3-0.3,0.4c3.2-0.4,6.5-0.5,9.7-0.4c0.4,0,0.4-0.6,0-0.6
				c-3.3-0.1-6.5,0.1-9.7,0.4c-0.2,0-0.4,0.2-0.3,0.4c0.2,0.5,0.4,0.7,0.8,0.9C67.7,99.2,68,98.7,67.7,98.5L67.7,98.5z"/>
		</g>
	</g>
</g>
<g>
	<g>
		<g>
			<path class="st0" d="M83,97.6c0-0.3,0.5-0.5,0.6-0.3c0-0.1,0-0.2,0-0.3c-0.2,0.3-0.3,0.6-0.5,0.9c0.1,0,0.2-0.1,0.3-0.1
				c-0.1,0-0.2,0-0.2-0.2c0-0.4-0.6-0.4-0.6,0c0,0.4,0.3,0.7,0.6,0.7c0.1,0,0.3,0,0.3-0.1c0.2-0.3,0.3-0.6,0.5-0.9
				c0-0.1,0.1-0.2,0-0.3c-0.5-0.7-1.8-0.3-1.7,0.5C82.4,98,83,98,83,97.6L83,97.6z"/>
		</g>
	</g>
</g>
<g>
	<g>
		<g>
			<path class="st0" d="M94.6,94.7c0-0.2,0.2-0.5,0.4-0.6c0.2,0,0.4,0.2,0.4,0.4C95.5,94.9,94.9,95.1,94.6,94.7
				c-0.2-0.3-0.7,0-0.5,0.4c0.6,0.8,2.1,0.4,1.8-0.7c-0.1-0.4-0.5-0.9-1-0.8c-0.5,0.1-0.9,0.7-0.9,1.2C94,95.1,94.6,95.1,94.6,94.7
				L94.6,94.7z"/>
		</g>
	</g>
</g>
<g>
	<g>
		<g>
			<path class="st0" d="M100.2,92.1c-0.1-0.2,0.1-0.4,0.2-0.5c0.2-0.1,0.3,0.1,0.4,0.2C101,92.3,100.3,92.5,100.2,92.1
				c-0.2-0.3-0.7,0-0.5,0.3c0.2,0.4,0.8,0.6,1.2,0.4c0.5-0.2,0.7-0.8,0.5-1.2c-0.2-0.5-0.7-0.7-1.2-0.5c-0.5,0.2-0.7,0.8-0.5,1.3
				C99.8,92.8,100.3,92.5,100.2,92.1L100.2,92.1z"/>
		</g>
	</g>
</g>
<g>
	<g>
		<g>
			<path class="st0" d="M61,97.4c0.1-0.4,0.7-0.1,0.5,0.2c0.1,0,0.3-0.1,0.4-0.1c-0.4-0.2-0.7-0.3-1.1-0.5c-0.1-0.1-0.3,0-0.4,0.1
				c-0.1,0.1,0,0.3,0.1,0.4c0.4,0.2,0.7,0.3,1.1,0.5c0.1,0.1,0.3,0,0.4-0.1c0.2-0.5,0.1-1.1-0.4-1.3c-0.5-0.2-1,0.1-1.2,0.6
				C60.3,97.6,60.8,97.8,61,97.4L61,97.4z"/>
		</g>
	</g>
</g>
<g>
	<g>
		<g>
			<path class="st0" d="M61.2,100c-0.6,0.5-1.1,1.1-1.7,1.6c-0.3,0.3,0.1,0.7,0.4,0.4c0.6-0.5,1.1-1.1,1.7-1.6
				C61.9,100.1,61.4,99.7,61.2,100L61.2,100z"/>
		</g>
	</g>
</g>
<g>
	<g>
		<g>
			<path class="st0" d="M95.6,97.4c0.2,0.9,0.4,1.9,0.6,2.9c0.1,0.4,0.7,0.2,0.6-0.2c-0.2-0.9-0.4-1.9-0.6-2.9
				C96.1,96.9,95.5,97,95.6,97.4L95.6,97.4z"/>
		</g>
	</g>
</g>
<g>
	<g>
		<g>
			<path class="st0" d="M96.6,97.2c0.1,0.4,0.2,0.8,0.2,1.2c0.1,0.4,0.6,0.2,0.6-0.2c-0.1-0.4-0.2-0.8-0.2-1.2
				C97.1,96.6,96.5,96.8,96.6,97.2L96.6,97.2z"/>
		</g>
	</g>
</g>
<g>
	<g>
		<g>
			<path class="st0" d="M62,100c-0.2,0.2-0.3,0.5-0.5,0.7c-0.1,0.1,0,0.3,0.1,0.4c0.1,0.1,0.3,0,0.4-0.1c0.2-0.2,0.3-0.5,0.5-0.7
				c0.1-0.1,0-0.3-0.1-0.4C62.3,99.8,62.1,99.9,62,100L62,100z"/>
		</g>
	</g>
</g>
<g>
	<g>
		<g>
			<path class="st0" d="M73.9,102.7c-0.1,0.6-0.2,1.3-0.3,1.9c0,0.4,0.5,0.5,0.6,0.2c0.1-0.6,0.2-1.3,0.3-1.9
				C74.5,102.5,74,102.3,73.9,102.7L73.9,102.7z"/>
		</g>
	</g>
</g>
<g>
	<g>
		<g>
			<path class="st0" d="M75.4,102.8c-0.5,0.3-0.7,0.8-0.6,1.3c0,0.2,0.2,0.2,0.4,0.2c0.2,0,0.2-0.2,0.2-0.4c0-0.3,0.1-0.5,0.3-0.6
				C76.1,103.1,75.8,102.6,75.4,102.8L75.4,102.8z"/>
		</g>
	</g>
</g>
<g>
	<g>
		<g>
			<path class="st0" d="M67.2,27.2c3.4,0.6,6.8,0.7,10.1,0.1c0.4-0.1,0.2-0.6-0.2-0.6c-3.3,0.5-6.6,0.5-9.8-0.1
				C67,26.6,66.8,27.1,67.2,27.2L67.2,27.2z"/>
		</g>
	</g>
</g>
<g>
	<g>
		<g>
			<path class="st0" d="M70.6,23.9c1.4,0.1,2.8,0,4.1-0.3c0.4-0.1,0.2-0.6-0.2-0.6c-1.3,0.3-2.6,0.4-4,0.3
				C70.2,23.3,70.2,23.9,70.6,23.9L70.6,23.9z"/>
		</g>
	</g>
</g>
<g>
	<g>
		<g>
			<path class="st0" d="M71.2,21.2c0.5-0.1,1.1-0.2,1.7-0.2c0.4,0,0.2-0.6-0.2-0.6c-0.5,0.1-1.1,0.2-1.7,0.2
				C70.6,20.7,70.8,21.3,71.2,21.2L71.2,21.2z"/>
		</g>
	</g>
</g>
<g>
	<g>
		<g>
			<path class="st0" d="M55.6,25.3c1.7,0.6,3.6,0.1,4.8-1.3c0.2-0.3-0.2-0.7-0.4-0.4c-1,1.2-2.7,1.7-4.2,1.2
				C55.4,24.6,55.2,25.2,55.6,25.3L55.6,25.3z"/>
		</g>
	</g>
</g>
<g>
	<g>
		<g>
			<path class="st0" d="M79.6,21.8c0.7,1.6,2.3,2.7,4.1,2.7c0.4,0,0.4-0.6,0-0.6c-1.6,0-3-0.9-3.6-2.4
				C79.9,21.2,79.4,21.5,79.6,21.8L79.6,21.8z"/>
		</g>
	</g>
</g>
<g>
	<g>
		<g>
			<path class="st0" d="M96.7,50.4c3.6-1.1,7.5-0.5,10.5,1.8c0.3,0.2,0.6-0.3,0.3-0.5c-3.2-2.3-7.3-3-11-1.9
				C96.2,50,96.4,50.5,96.7,50.4L96.7,50.4z"/>
		</g>
	</g>
</g>
<g>
	<g>
		<g>
			<path class="st0" d="M35.1,52.7c3.9-1,7.9-0.9,11.7,0.4c0.4,0.1,0.5-0.5,0.2-0.6c-3.9-1.3-8-1.4-12-0.4
				C34.6,52.3,34.7,52.8,35.1,52.7L35.1,52.7z"/>
		</g>
	</g>
</g>
<g>
	<g>
		<g>
			<path class="st0" d="M58.3,74.3c4,2.3,3.6,7.5,2.1,11.2c-1.6,4.2-3.9,8.2-6.1,12.2c-2.1,3.9-4.4,7.8-6.8,11.5
				c-1.2,1.9-2.4,3.7-3.7,5.6c-0.5,0.7-0.9,1.9-2.1,1.1c-0.4-0.3-0.7-0.8-1-1.2c-0.8-0.9-1.5-1.9-2.3-2.8c-0.2-0.3-0.7,0.1-0.4,0.4
				c0.7,0.8,1.3,1.6,2,2.4c0.5,0.6,1,1.4,1.8,1.9c1.2,0.6,1.9-0.5,2.5-1.4c2.4-3.5,4.6-7.1,6.8-10.7c2.2-3.7,4.3-7.5,6.2-11.3
				c1.8-3.5,4-7.2,4.6-11.1c0.5-3.2-0.5-6.7-3.4-8.4C58.3,73.6,58,74.2,58.3,74.3L58.3,74.3z"/>
		</g>
	</g>
</g>
<g>
	<g>
		<g>
			<path class="st0" d="M35.4,107.7c-4.3-5.9-7.7-12.5-10-19.5c-1.1-3.3-2.3-6.9-1.9-10.4c0.5-4.3,4.3-6.4,8.3-6.6
				c2.2-0.1,4.3,0.1,6.5,0.4c2.3,0.2,4.5,0.5,6.8,0.7c0.4,0,0.4-0.5,0-0.6c-2.2-0.2-4.4-0.5-6.5-0.7c-2.2-0.2-4.3-0.5-6.5-0.4
				c-3.2,0.2-6.7,1.4-8.3,4.4c-1.6,3.1-0.7,6.8,0.1,10c1,3.8,2.4,7.6,4.1,11.2c1.9,4.2,4.3,8.1,7,11.8
				C35.1,108.3,35.6,108,35.4,107.7L35.4,107.7z"/>
		</g>
	</g>
</g>
<g>
	<g>
		<g>
			<path class="st0" d="M47.3,72.2c2,0.4,4.1,0.7,6.1,1.1c0.4,0.1,0.5-0.5,0.2-0.6c-2-0.4-4.1-0.7-6.1-1.1
				C47.1,71.6,46.9,72.1,47.3,72.2L47.3,72.2z"/>
		</g>
	</g>
</g>
<g>
	<g>
		<g>
			<path class="st0" d="M109.3,88.1c0-0.7-0.1-1.5,0-2.2c0-0.5,0.1-1,0.2-1.4c0-0.1,0-0.3,0.1-0.4c0.1-0.7,0.7-0.7,1.9,0
				c0.4,0.6,0.3,1.6,0.3,2.3c0,0.8,0,1.7,0,2.5c0,0.4,0.6,0.4,0.6,0c0.1-1.5,0.5-6-1.8-6.3c-2.3-0.4-2,4.4-1.9,5.6
				C108.8,88.5,109.4,88.5,109.3,88.1L109.3,88.1z"/>
		</g>
	</g>
</g>
<g>
	<g>
		<g>
			<path class="st0" d="M109.1,88.5c-1.3-0.5-2.6-0.3-3.6,0.6c-0.1,0.1-0.1,0.3,0,0.4c1,1.3,2.5,1.7,4.1,1.8
				c2.4,0.1,4.9-0.3,7.2-0.9c0.2-0.1,0.3-0.4,0.1-0.5c-2.7-1.3-5.6-1.2-8.5-1c-0.4,0-0.4,0.6,0,0.6c2.8-0.2,5.6-0.3,8.2,0.9
				c0-0.2,0-0.4,0.1-0.5c-2.3,0.6-4.7,1-7.1,0.9c-0.9,0-2-0.2-2.8-0.7c-0.8-0.5-0.3-0.9,0.4-1.1c0.6-0.1,1.2,0,1.7,0.2
				C109.3,89.2,109.5,88.7,109.1,88.5L109.1,88.5z"/>
		</g>
	</g>
</g>
<g>
	<g>
		<g>
			<path class="st0" d="M109.1,88.8c-0.6-0.4-1.6,0-1.8,0.7c-0.2,0.9,0.7,1.6,1.5,1.4c0.4-0.1,0.2-0.7-0.2-0.6
				c-0.4,0.1-0.9-0.3-0.8-0.7c0.1-0.4,0.6-0.5,0.9-0.3C109.2,89.6,109.5,89.1,109.1,88.8L109.1,88.8z"/>
		</g>
	</g>
</g>
<g>
	<g>
		<g>
			<path class="st0" d="M112.4,89.3c0.9,0,1.7,0,2.5,0c0.4,0,0.8,0,1.2,0c0.2,0,0.4,0,0.6,0c0.2,0.7,0,0.9-0.5,0.8
				c-0.4,0-0.4,0.6,0,0.6c0.6,0,1.3,0,1.6-0.6c0.2-0.4,0.2-0.9-0.1-1.2c-0.4-0.4-1.2-0.3-1.8-0.3c-1.2,0-2.3,0-3.5,0
				C112,88.7,112,89.3,112.4,89.3L112.4,89.3z"/>
		</g>
	</g>
</g>
<g>
	<g>
		<g>
			<path class="st0" d="M112.2,91.2c0.1,6,0,12-0.2,17.9c-0.1,2.9-0.3,5.9-0.5,8.9c-0.1,1.5-0.2,2.9-0.4,4.4c-0.1,1.6-0.3,3.2-1,4.6
				c0.2,0,0.3,0,0.5,0c-2.3-4.2-3.3-9-2.8-13.8c0-0.4-0.5-0.4-0.6,0c-0.5,4.9,0.5,9.8,2.9,14.1c0.1,0.2,0.4,0.2,0.5,0
				c1.2-2.3,1.1-5.1,1.4-7.7c0.3-3.2,0.5-6.4,0.6-9.5c0.3-6.3,0.4-12.6,0.3-18.9C112.8,90.8,112.2,90.8,112.2,91.2L112.2,91.2z"/>
		</g>
	</g>
</g>
<g>
	<g>
		<g>
			<path class="st0" d="M108.7,102.1c-0.1-3.6,0.1-7.1,0.5-10.7c0-0.4-0.5-0.4-0.6,0c-0.4,3.5-0.5,7.1-0.5,10.7
				C108.2,102.5,108.7,102.5,108.7,102.1L108.7,102.1z"/>
		</g>
	</g>
</g>
<g>
	<g>
		<g>
			<path class="st0" d="M111.5,83.6c1.2-0.5,1.6-1.9,0.8-3c-0.2-0.3-0.7,0.1-0.4,0.4c0.5,0.6,0.3,1.7-0.5,2
				C111,83.2,111.2,83.8,111.5,83.6L111.5,83.6z"/>
		</g>
	</g>
</g>
<g>
	<g>
		<g>
			<path class="st0" d="M109.5,83.7c-0.5,0-0.8-0.4-0.9-0.9c0-0.4-0.6-0.4-0.6,0c0.1,0.8,0.6,1.5,1.4,1.4
				C109.9,84.2,109.9,83.6,109.5,83.7L109.5,83.7z"/>
		</g>
	</g>
</g>
<g>
	<g>
		<g>
			<path class="st0" d="M110.4,91.1c0.9,11.8-2.3,23.5-0.9,35.3c0,0.4,0.6,0.4,0.6,0c-1.4-11.8,1.8-23.5,0.9-35.3
				C111,90.7,110.4,90.7,110.4,91.1L110.4,91.1z"/>
		</g>
	</g>
</g>
<g class="st1">
	<path d="M41.3,97.6v-3h3v3c0,1.1-0.2,2-0.6,2.6c-0.4,0.7-1,1.2-1.8,1.6l-0.7-1.1c0.5-0.2,1-0.6,1.2-1.1c0.3-0.5,0.4-1.1,0.4-2H41.3
		z M41.3,85.2v-3h3v3H41.3z"/>
</g>
<g>
	<g>
		<g>
			<path class="st0" d="M41,71.9c0.1,1.4,0.2,2.8,0.1,4.3c0,0.4,0.6,0.4,0.6,0c0.1-1.4,0.1-2.8-0.1-4.3C41.6,71.6,41,71.5,41,71.9
				L41,71.9z"/>
		</g>
	</g>
</g>
<g>
	<g>
		<g>
			<path class="st0" d="M41.4,106.8c-0.2,3.1-0.1,6.2,0.3,9.3c0,0.4,0.6,0.2,0.6-0.2c-0.5-3-0.5-6.1-0.3-9.2
				C42,106.4,41.5,106.4,41.4,106.8L41.4,106.8z"/>
		</g>
	</g>
</g>
</svg>
