<?xml version="1.0" encoding="utf-8"?>
<!-- Generator: Adobe Illustrator 24.0.1, SVG Export Plug-In . SVG Version: 6.00 Build 0)  -->
<svg version="1.1" id="Layer_1" xmlns="http://www.w3.org/2000/svg" xmlns:xlink="http://www.w3.org/1999/xlink" x="0px" y="0px"
	 viewBox="0 0 141.7 141.7" style="enable-background:new 0 0 141.7 141.7;" xml:space="preserve">
<style type="text/css">
	.st0{fill:#231F20;}
	.st1{fill:#070707;}
	.st2{enable-background:new    ;}
</style>
<g id="Layer_1_1_">
</g>
<g id="Layer_1_2_">
</g>
<g id="Layer_1_3_">
</g>
<g id="Layer_1_4_">
</g>
<g id="Layer_1_5_">
</g>
<g id="Layer_3">
</g>
<g id="Layer_3_1_">
</g>
<g>
	<g>
		<g>
			<path class="st0" d="M45.4,114.5c-1.9-1.4-3.6-3.2-4.8-5.3c-0.7-1.2-1.3-2.5-2.4-3.4c-0.4-0.3-0.8-0.5-1.3-0.7
				c-0.8-0.3-2.6-0.4-2.5-1.6c0-0.4,0.4-1,0.6-1.4c0.2-0.5,0.4-1.1,0.5-1.6c0.2-1.1,0.3-2.2,0.3-3.4c0-2.3-0.5-5,0-7.2
				c0.2-0.9,0.8-1.6,1.2-2.4c0.5-0.9,0.7-1.8,0.9-2.8c0.4-2.3,0.6-4.7,0.9-7c0.4-2.6,0.7-5.2,0.7-7.9c0.1-6.1-1.5-12.1-0.6-18.2
				c0.1-0.6-0.8-0.9-0.9-0.3c-0.8,5.4,0.4,10.8,0.6,16.2c0.2,5.4-0.8,10.9-1.5,16.2c-0.2,1.3-0.4,2.5-1.1,3.6
				c-0.4,0.7-0.9,1.4-1.2,2.3c-0.6,2.2-0.1,4.8-0.1,7.1c0,1.3-0.1,2.7-0.4,3.9c-0.3,1-1.1,2.1-1.1,3.2c-0.1,1.7,2,1.7,3.2,2.2
				c1.7,0.7,2.3,2.4,3.2,3.9c1.3,2.2,3,4,5,5.5C45.5,115.7,46,114.9,45.4,114.5L45.4,114.5z"/>
		</g>
	</g>
</g>
<g>
	<g>
		<g>
			<path class="st0" d="M76.8,124.6c-8.5-1.4-16.8-3.7-24.9-6.8c-0.6-0.2-0.8,0.7-0.3,0.9c8,3.1,16.4,5.4,24.9,6.8
				C77.1,125.6,77.4,124.7,76.8,124.6L76.8,124.6z"/>
		</g>
	</g>
</g>
<g>
	<g>
		<g>
			<path class="st0" d="M111.7,100c-0.2,2.1-0.3,4.2,0.1,6.2c0,0.2,0.2,0.3,0.3,0.3c0.9,0.2,2.1,0.4,2.7,1c0.7,0.7,0.5,1.6-0.6,1.9
				c-1,0.2-2,0.2-2.7,0.9c-1,1.1-1.8,2.5-2.8,3.7c-0.9,1.1-1.8,2.2-2.8,3.2c-4.2,4.3-9.3,7.6-15.5,7.5c-0.6,0-0.6,0.9,0,1
				c7.9,0.2,14.1-5,18.9-10.8c0.6-0.7,1.1-1.4,1.6-2.1c0.7-0.9,1.2-2,2.3-2.2c1.1-0.2,3-0.2,3.1-1.7c0.1-1.2-0.9-2.2-1.9-2.6
				c-0.4-0.2-1.3-0.3-1.7-0.5c-0.5-0.4-0.4-1.4-0.4-2c0-1.3,0.1-2.5,0.2-3.8C112.7,99.4,111.7,99.4,111.7,100L111.7,100z"/>
		</g>
	</g>
</g>
<g>
	<g>
		<g>
			<path class="st0" d="M102.5,50c-0.2,2.2-0.3,4.5-0.3,6.7c0,0.6,1,0.6,1,0c0-2.2,0.1-4.5,0.3-6.7C103.5,49.4,102.6,49.4,102.5,50
				L102.5,50z"/>
		</g>
	</g>
</g>
<g>
	<g>
		<g>
			<path class="st0" d="M100.4,32.2c1.9,3.1,2.5,6.8,3.1,10.4c0.1,0.6,1,0.4,0.9-0.3c-0.6-3.6-1.3-7.4-3.2-10.6
				C100.9,31.1,100.1,31.6,100.4,32.2L100.4,32.2z"/>
		</g>
	</g>
</g>
<g>
	<g>
		<g>
			<path class="st0" d="M68.9,17.1c6.4-0.8,13,0,18.8,2.9c5.5,2.7,9.8,7,12.7,12.3c0.3,0.5,1.1,0.1,0.8-0.5c-3-5.4-7.5-9.9-13-12.6
				c-6-2.9-12.8-3.8-19.3-3C68.3,16.3,68.3,17.2,68.9,17.1L68.9,17.1z"/>
		</g>
	</g>
</g>
<g>
	<g>
		<g>
			<path class="st0" d="M47.8,29.1c0.1-0.5,0.2-0.9,0.4-1.3c0.3-0.5-0.5-1-0.8-0.5c-0.3,0.6-0.5,1.2-0.6,1.8c0,0.3,0.3,0.5,0.5,0.5
				C47.5,29.5,47.7,29.3,47.8,29.1L47.8,29.1z"/>
		</g>
	</g>
</g>
<g>
	<path class="st1" d="M52.1,31.3c-1.5,0.1-2.7,1.4-2.7,2.9s1.4,2.7,2.9,2.7c1.5-0.1,2.7-1.4,2.7-2.9C54.9,32.4,53.7,31.2,52.1,31.3z
		 M53.4,35.8c-0.4,0-0.8-0.3-0.8-0.8s0.3-0.8,0.8-0.8s0.8,0.3,0.8,0.8C54.2,35.4,53.8,35.8,53.4,35.8z"/>
</g>
<g>
	<g>
		<g>
			<path class="st0" d="M39.9,47.1c0.4,0.1,0.7,0.1,1.1,0.1c0.4,0,0.4-0.6,0-0.6c-0.3,0-0.6,0-0.9-0.1c-0.2,0-0.3,0.1-0.4,0.2
				C39.6,46.9,39.7,47.1,39.9,47.1L39.9,47.1z"/>
		</g>
	</g>
</g>
<g>
	<g>
		<g>
			<path class="st0" d="M47.4,27.7c-7.9-1.5-16.5,7.4-12.9,15.2c0.2,0.4,0.7,0.1,0.6-0.3c-3.4-7.3,4.8-15.6,12.1-14.3
				C47.7,28.4,47.8,27.7,47.4,27.7L47.4,27.7z"/>
		</g>
	</g>
</g>
<g>
	<g>
		<g>
			<path class="st0" d="M45.8,49.2c-1.1-0.3-1.8,0.4-2.8,0.7c-1.9,0.5-2.2-2.3-1.5-3.4c0.3-0.5-0.5-1-0.8-0.5
				c-0.8,1.4-0.7,3.1,0.5,4.3c0.5,0.5,1.2,0.8,1.9,0.6c0.8-0.2,1.7-1,2.6-0.8C46.2,50.3,46.4,49.4,45.8,49.2L45.8,49.2z"/>
		</g>
	</g>
</g>
<g>
	<g>
		<path class="st0" d="M41,46.1c0.1,0.5,0.7,0.9,1.2,0.9c0.5,0.1,1.1-0.2,1.6-0.3c0.9-0.3,1.8-0.7,2.7-1c0.8-0.3,1.7-0.6,2.3-1.3
			c0.6-0.6,0.9-1.6,0.5-2.4c-0.2-0.4-0.6-0.7-1-0.9c-1.7-0.9-3.8-1-5.4,0.1c-1.6,1-2.4,3.2-1.7,5"/>
	</g>
</g>
<g>
	<g>
		<g>
			<path class="st0" d="M48.8,42.2c2,0.8,4.2,3.4,2,5.3c-1.6,1.4-4,1.2-6,1.6c-0.6,0.1-0.4,1,0.3,0.9c2.5-0.5,6.3-0.3,7.4-3.3
				c0.9-2.5-1.3-4.7-3.4-5.5C48.5,41,48.2,42,48.8,42.2L48.8,42.2z"/>
		</g>
	</g>
</g>
<g>
	<g>
		<g>
			<path class="st0" d="M48.5,49.3c0.2,1.4,0.3,3-0.4,4.3c-0.2,0.4-0.7,1.1-1.3,0.5c-0.2-0.2-0.3-0.9-0.4-1.2
				c-0.2-1-0.3-1.9-0.3-2.9c0-0.6-0.9-0.6-1,0c-0.1,1.2,0.1,6.3,2.4,5.4c2.2-0.9,2-4.1,1.8-6C49.4,48.7,48.4,48.7,48.5,49.3
				L48.5,49.3z"/>
		</g>
	</g>
</g>
<g>
	<g>
		<g>
			<path class="st0" d="M46.9,54.7c-2.1-0.2-3.2-2.3-2.4-4.1c0.2-0.6-0.7-0.8-0.9-0.3c-1,2.5,0.7,5.1,3.4,5.4
				C47.5,55.7,47.5,54.7,46.9,54.7L46.9,54.7z"/>
		</g>
	</g>
</g>
<g>
	<g>
		<g>
			<path class="st1" d="M47.8,114.7c2.6-0.5,3,3,4.3,4.6c0.1-0.2,0.2-0.4,0.3-0.5c-1.5-0.2-2.9,0.4-4.3,0.9c-1.6,0.6-3.8,1.5-5-0.3
				c-1.9-3,3.5-4.3,5.5-4.7c0.4-0.1,0.2-0.7-0.2-0.6c-2.2,0.4-7.3,1.6-6.3,4.8c1.5,4.8,7.1,0.1,10,0.5c0.3,0.1,0.5-0.3,0.3-0.5
				c-1.5-1.9-1.8-5.3-4.9-4.7C47.2,114.1,47.4,114.8,47.8,114.7L47.8,114.7z"/>
		</g>
	</g>
</g>
<g>
	<g>
		<g>
			<path class="st1" d="M43.4,119.5c0-1.5,1.4-2.2,2.6-2.4c0.4-0.1,0.2-0.7-0.2-0.6c-1.6,0.3-3.1,1.3-3.1,3
				C42.8,119.9,43.4,119.9,43.4,119.5L43.4,119.5z"/>
		</g>
	</g>
</g>
<g>
	<g>
		<g>
			<path class="st1" d="M81.9,121.7c3.5-2.1,5.8,2.5,8.4,4c0-0.2,0.1-0.4,0.1-0.6c-2.1,0.4-3.7,2-5.3,3.4c-1.7,1.4-4,3.7-6.4,2.6
				c-5.9-2.8,1.6-8.3,4.4-10c0.4-0.2,0-0.8-0.3-0.6c-3,1.7-9.9,6.6-5.5,10.3c4.8,4.1,9-4.3,13.3-5.2c0.3-0.1,0.3-0.5,0.1-0.6
				c-2.9-1.7-5.1-6.4-9-4C81.2,121.3,81.6,121.9,81.9,121.7L81.9,121.7z"/>
		</g>
	</g>
</g>
<g>
	<g>
		<g>
			<path class="st1" d="M78.4,130.7c-0.7-2.1,0.7-3.8,2.4-4.9c0.4-0.2,0-0.8-0.3-0.6c-1.9,1.2-3.5,3.3-2.7,5.6
				C77.9,131.2,78.5,131.1,78.4,130.7L78.4,130.7z"/>
		</g>
	</g>
</g>
<g>
	<g>
		<g>
			<path class="st1" d="M91.9,21.2c3.7-2.7,9.9-4.6,13.2-0.4c3,3.8,2.4,10.5-2.8,12.2c-0.4,0.1-0.2,0.7,0.2,0.6
				c5.4-1.7,6.3-8.5,3.4-12.8c-3.4-5-10.2-3.3-14.4-0.2C91.2,20.9,91.5,21.4,91.9,21.2L91.9,21.2z"/>
		</g>
	</g>
</g>
<g>
	<path class="st1" d="M101.6,25.1c-0.2-1.3-1.4-2.2-2.7-2c-1.3,0.2-2.2,1.4-2,2.7c0.2,1.3,1.4,2.2,2.7,2
		C100.9,27.6,101.8,26.4,101.6,25.1z"/>
</g>
<g>
	<path class="st1" d="M36.6,34.6c-1.5,0.1-2.7,1.4-2.7,2.9c0.1,1.5,1.4,2.7,2.9,2.7c1.5-0.1,2.7-1.4,2.7-2.9
		C39.5,35.7,38.2,34.5,36.6,34.6z M37.9,39.1c-0.4,0-0.8-0.3-0.8-0.8s0.3-0.8,0.8-0.8c0.4,0,0.8,0.3,0.8,0.8
		C38.7,38.7,38.4,39.1,37.9,39.1z"/>
</g>
<g>
	<g>
		<g>
			<path class="st0" d="M45.8,40c-1.6-2.9-0.9-6.3,0.9-8.8c1.8-2.5,4.8-4,7.8-4.5c3.1-0.5,6.4,0.2,8.9,2.2c2.9,2.4,3.5,5.8,2.3,9.2
				c-0.1,0.4,0.5,0.6,0.6,0.2c1.3-3.5,0.7-7.1-2.1-9.6c-2.6-2.3-6.1-3.1-9.4-2.6c-3.4,0.5-6.6,2.2-8.6,5c-2,2.8-2.6,6.3-0.8,9.3
				C45.5,40.7,46,40.3,45.8,40L45.8,40z"/>
		</g>
	</g>
</g>
<g>
	<g>
		<g>
			<path class="st1" d="M38.9,69c-2.6,0.1-5.4,0.8-7.5,2.5c-1.6,1.3-2.4,3.3-0.6,4.8c0.3,0.3,0.8-0.2,0.5-0.5
				c-2.1-1.8,0.1-3.8,1.8-4.7c1.8-1,3.8-1.5,5.8-1.5C39.3,69.6,39.3,69,38.9,69L38.9,69z"/>
		</g>
	</g>
</g>
<g>
	<g>
		<g>
			<path class="st1" d="M33.9,74.3c-1.6,0.4-3.9,2-2.3,3.8c1.8,2.1,5.2,0.5,7.2-0.6c0.4-0.2,0-0.8-0.3-0.6c-1.5,0.8-3.4,1.8-5.1,1.4
				c-1.2-0.3-2.2-1.5-1.1-2.5c0.5-0.5,1.2-0.8,1.9-0.9C34.4,74.9,34.3,74.2,33.9,74.3L33.9,74.3z"/>
		</g>
	</g>
</g>
<g>
	<g>
		<g>
			<path class="st1" d="M69.8,16.4c0.8-3.2,4.9-4.6,7.9-4c2.8,0.5,5,2.7,5.8,5.4c0.1,0.4,0.7,0.2,0.6-0.2c-0.9-3.1-3.6-5.6-6.9-6
				c-3.1-0.4-7.2,1.2-8,4.5C69.1,16.7,69.7,16.8,69.8,16.4L69.8,16.4z"/>
		</g>
	</g>
</g>
<g>
	<g>
		<g>
			<path class="st0" d="M53.4,38.7c3.1-0.3,6.1-0.3,9.2-0.1c1.7,0.1,4.3,1,5.2-1c0.9-1.9,0.6-4.8,0.2-6.8c-0.4-1.9-1.5-3.7-3.3-4.6
				c-2.3-1-4.9-0.6-7.3-0.3c-3.1,0.3-6.2,0.6-9.3,0.9c-5,0.6-10.4,1.3-14.7,4.1c-2,1.3-3.8,3.3-4.2,5.8c-0.4,2.9,1.1,5.7,2.6,8.1
				c0.3,0.5,1.2,0.1,0.8-0.5c-1.2-2-2.5-4.2-2.5-6.6c0-2.5,1.6-4.5,3.6-5.8c3.7-2.5,8.4-3.3,12.8-3.9c4.6-0.6,9.2-1.1,13.8-1.4
				c2.3-0.2,4.9,0.2,6.2,2.3c1,1.7,1.2,4.1,1,6c-0.1,1.3-0.2,3-1.8,3c-1.2,0-2.5-0.3-3.7-0.3c-2.8-0.2-5.7-0.1-8.5,0.1
				C52.8,37.7,52.7,38.7,53.4,38.7L53.4,38.7z"/>
		</g>
	</g>
</g>
<g>
	<g>
		<g>
			<path class="st0" d="M32.6,44.6c1.7-0.8,3.4-1.6,5.1-2.3c0.6-0.2,0.3-1.2-0.3-0.9c-1.8,0.7-3.6,1.5-5.4,2.4
				C31.6,44.1,32.1,44.9,32.6,44.6L32.6,44.6z"/>
		</g>
	</g>
</g>
<g>
	<g>
		<g>
			<path class="st0" d="M31.9,45.1c1.3,3.4,1.9,6.9,1.8,10.6c0,0.5,0.6,0.6,0.9,0.2c1.7-2.5,3.9-4.5,6.7-5.8
				c0.6-0.3,0.1-1.1-0.5-0.8c-2.9,1.4-5.2,3.5-7,6.1c0.3,0.1,0.6,0.2,0.9,0.2c0.2-3.7-0.5-7.4-1.8-10.8
				C32.6,44.3,31.7,44.5,31.9,45.1L31.9,45.1z"/>
		</g>
	</g>
</g>
<g>
	<g>
		<g>
			<path class="st0" d="M50.9,48.4c18-3.9,37.9-5,54.7,3.9c0.3,0.2,0.9-0.1,0.7-0.5c-1.4-3.3-2.1-6.8-2.1-10.3c0-0.6-0.9-0.6-1,0
				c0,3.7,0.7,7.2,2.1,10.6c0.2-0.2,0.5-0.4,0.7-0.5c-13.2-7-28.4-7.9-43-6.1c-4.2,0.5-8.4,1.3-12.5,2.2
				C50.1,47.6,50.3,48.5,50.9,48.4L50.9,48.4z"/>
		</g>
	</g>
</g>
<g>
	<g>
		<g>
			<path class="st0" d="M29.4,37.3c-1.5-4.3-2.5-8.6-2.9-13.1c-0.1,0.2-0.2,0.3-0.4,0.5c14.8-5,30.4-6.5,45.9-8c0.6-0.1,0.6-1,0-0.9
				c-15.6,1.5-31.3,3-46.2,8c-0.2,0.1-0.4,0.3-0.4,0.5c0.4,4.6,1.4,9,3,13.4C28.7,38.1,29.7,37.9,29.4,37.3L29.4,37.3z"/>
		</g>
	</g>
</g>
<g>
	<g>
		<g>
			<path class="st0" d="M25.9,23.4c-0.2-0.7-0.1-1.1,0.4-1.3c0.2-0.1,0.4-0.2,0.5-0.3c0.5-0.2,0.9-0.4,1.4-0.6
				c0.9-0.4,1.8-0.8,2.8-1.1c1.7-0.6,3.5-1.2,5.3-1.7c3.8-1,7.6-1.6,11.5-1.9c7.7-0.6,15.5,0,23.1,1.4c0.6,0.1,0.9-0.8,0.3-0.9
				c-9.1-1.6-18.4-2.2-27.5-1c-4.6,0.6-9,1.7-13.3,3.3c-1,0.4-2,0.8-3,1.2c-0.8,0.4-1.9,0.7-2.5,1.5c-0.7,0.9-0.3,2.4,1,2.3
				C26.5,24.3,26.5,23.4,25.9,23.4L25.9,23.4z"/>
		</g>
	</g>
</g>
<g>
	<g>
		<g>
			<path class="st0" d="M34,54.7c0,0.3,0,0.6-0.3,0.8c-0.2,0.2-0.2,0.6,0.1,0.7c1.4,0.7,2.8,0.9,4.3,0.6c0.6-0.1,0.4-1-0.3-0.9
				c-1.2,0.3-2.5,0.1-3.6-0.5c0,0.3,0.1,0.5,0.1,0.7c0.4-0.5,0.6-0.9,0.5-1.5C34.9,54.1,34,54.1,34,54.7L34,54.7z"/>
		</g>
	</g>
</g>
<g>
	<g>
		<g>
			<path class="st0" d="M106,52.5c0.9,0.2-0.9,1.2-1.1,1.4c-0.6,0.3-1.3,0.5-2,0.3c-0.6-0.2-0.8,0.7-0.3,0.9
				c1.3,0.4,2.8-0.3,3.8-1.1c0.8-0.6,1-2.2-0.2-2.5C105.7,51.5,105.4,52.4,106,52.5L106,52.5z"/>
		</g>
	</g>
</g>
<g>
	<g>
		<g>
			<path class="st0" d="M70.3,16.7c4.5,8.4,6.5,17.9,5.8,27.5c-0.1,0.6,0.9,0.6,1,0c0.8-9.7-1.3-19.4-5.9-28
				C70.8,15.7,70,16.2,70.3,16.7L70.3,16.7z"/>
		</g>
	</g>
</g>
<g>
	<g>
		<g>
			<path class="st0" d="M37,42.7c1.1-1.7,2.2,2.5,2.3,3c0.3,1.5,0.4,2.9,0.3,4.4c0,0.6,0.9,0.6,1,0c0.1-2.3,0-5.3-1.2-7.4
				c-0.7-1.2-2.3-1.8-3.2-0.5C35.8,42.7,36.7,43.2,37,42.7L37,42.7z"/>
		</g>
	</g>
</g>
<g>
	<g>
		<g>
			<path class="st0" d="M53.9,37.6c-3.1,1.9-2.1,6.9-1.6,9.8c0.1,0.6,1,0.4,0.9-0.3c-0.4-2.4-1.4-7.2,1.2-8.8
				C54.9,38.1,54.4,37.2,53.9,37.6L53.9,37.6z"/>
		</g>
	</g>
</g>
<g>
	<g>
		<g>
			<path class="st0" d="M117.1,77.7c-4.5,10.9-11.9,20.5-20,29c-0.9,0.9-1.8,1.9-2.7,2.8c-1,1-2.2,2.5-3.6,2.8
				c-2.4,0.6-4.7-2.5-6.3-3.8c-4.7-3.9-9.2-8-13.2-12.6c-4-4.7-7.5-9.8-10.4-15.3c-1.5-2.8-3.1-5.6-4.3-8.5c-0.6-1.4-0.8-3,0.1-4.3
				c0.8-1.2,2.4-1.9,3.7-2.4c11.3-4.7,23.2-7.5,35.5-7.7c6.8-0.1,13.6,0.5,20.2,2.1c1.6,0.4,3.8,0.6,4.3,2.4c0.4,1.6,0,3.5-0.3,5.1
				C119.5,70.9,118.4,74.4,117.1,77.7c-0.2,0.6,0.7,0.8,0.9,0.3c1.3-3.3,2.4-6.6,3-10.1c0.4-2.2,1.3-5.6-0.5-7.4
				c-0.9-0.9-2.4-1.1-3.5-1.4c-1.6-0.4-3.3-0.8-5-1.1c-3.1-0.6-6.3-0.9-9.5-1.1C89,56.1,75.5,58.5,63,63.3c-2.3,0.9-5.4,1.7-7,3.8
				c-1.8,2.3-0.5,5.1,0.6,7.5c3,6.1,6.2,12.2,10.3,17.6c4,5.4,8.7,10.3,13.8,14.6c1.1,0.9,2.3,1.8,3.3,2.7c1,0.9,2,1.9,3.1,2.7
				c2.1,1.5,4,1.5,6-0.2c2.5-2.2,4.8-4.8,7-7.2c2.3-2.6,4.6-5.2,6.7-8c4.4-5.8,8.3-12,11.1-18.7C118.2,77.4,117.3,77.1,117.1,77.7z"
				/>
		</g>
	</g>
</g>
<g>
	<g>
		<g>
			<path class="st1" d="M37.8,82.8c1.3,1.2,2.9,1.7,4.5,2.1c2.4,0.6,4.8,1.3,7.2,1.8c2.2,0.5,4.4,0.7,6.7,0.4c2.2-0.3,4.4-1,6.5-1.8
				c-0.1-0.2-0.2-0.4-0.3-0.5c-0.2,0.2-0.3,0.4-0.5,0.5c-0.3,0.3,0.2,0.8,0.5,0.5c0.2-0.2,0.3-0.4,0.5-0.5c0.2-0.2,0-0.6-0.3-0.5
				c-1.9,0.7-3.9,1.3-5.9,1.7c-2.3,0.4-4.6,0.2-6.9-0.3c-2.1-0.5-4.1-1-6.2-1.6c-1.8-0.5-3.8-0.8-5.2-2.2
				C37.9,82.1,37.5,82.5,37.8,82.8L37.8,82.8z"/>
		</g>
	</g>
</g>
<g>
	<g>
		<g>
			<path class="st1" d="M37,86.2c-1,2,10.9,4.6,12.4,4.8c5.4,0.8,10.9,0.4,16.1-1.1c0.4-0.1,0.2-0.7-0.2-0.6
				c-4.5,1.3-9.2,1.7-13.9,1.3c-2.4-0.2-4.7-0.7-7-1.3c-0.7-0.2-7.1-2.5-6.9-2.8C37.7,86.2,37.2,85.8,37,86.2L37,86.2z"/>
		</g>
	</g>
</g>
<g>
	<g>
		<g>
			<path class="st1" d="M28.1,26.1c0.1-0.4,0.4-0.8,0.8-0.9c0.4-0.1,1,0.2,0.8,0.7c-0.2,0.6-1.4,0.4-1.8,0.2
				c-0.4-0.2-0.7,0.4-0.3,0.6c0.9,0.4,3,0.5,2.8-1c-0.1-0.7-0.8-1.1-1.5-1c-0.7,0.1-1.3,0.7-1.5,1.4C27.3,26.3,27.9,26.5,28.1,26.1
				L28.1,26.1z"/>
		</g>
	</g>
</g>
<g>
	<g>
		<g>
			<path class="st1" d="M34.8,24.4c-0.2-0.8,0.9-1.3,1.3-0.5c0.3,0.7-0.7,1.2-1.2,0.6c-0.3-0.3-0.7,0.2-0.5,0.5
				c0.4,0.5,1.2,0.5,1.7,0.2c0.6-0.3,0.7-1.1,0.5-1.7c-0.3-0.6-1-0.9-1.6-0.7c-0.6,0.3-1,1-0.8,1.6C34.3,25,34.9,24.8,34.8,24.4
				L34.8,24.4z"/>
		</g>
	</g>
</g>
<g>
	<g>
		<g>
			<path class="st1" d="M43.4,22.8c-0.5-0.8,0.3-1.8,1.2-1.3c0.9,0.6,0.2,1.9-0.8,1.6c-0.4-0.1-0.6,0.5-0.2,0.6
				c0.7,0.2,1.5-0.1,1.8-0.7c0.4-0.7,0.2-1.5-0.5-1.9c-1.4-1-3,0.7-2.1,2.1C43,23.5,43.6,23.2,43.4,22.8L43.4,22.8z"/>
		</g>
	</g>
</g>
<g>
	<g>
		<g>
			<path class="st1" d="M51.2,21.7c-0.7-0.4-0.2-1.5,0.6-1.3c0.9,0.3,0.6,1.6-0.3,1.6c-0.4,0-0.4,0.7,0,0.6c0.7-0.1,1.4-0.6,1.5-1.3
				c0.1-0.7-0.4-1.4-1-1.6c-1.5-0.4-2.4,1.6-1.1,2.4C51.2,22.5,51.5,21.9,51.2,21.7L51.2,21.7z"/>
		</g>
	</g>
</g>
<g>
	<g>
		<g>
			<path class="st1" d="M58.3,20.5c-0.1-0.3,0.2-0.7,0.5-0.8c0.3-0.1,0.6,0.2,0.7,0.5c0.2,0.7-0.7,1-1.1,0.5c-0.2-0.3-0.8,0-0.6,0.3
				c0.8,1.1,2.8,0.4,2.3-1.1c-0.2-0.6-0.8-1-1.5-0.8c-0.7,0.2-1.1,0.9-0.9,1.6C57.8,21.1,58.4,20.9,58.3,20.5L58.3,20.5z"/>
		</g>
	</g>
</g>
<g>
	<g>
		<g>
			<path class="st1" d="M65.1,20.7c0.3,0.6,0.9,1,1.6,0.9c0.7-0.1,1.1-0.8,1-1.5c-0.1-0.7-0.6-1.3-1.4-1.3c-0.8,0-1.4,0.7-1.4,1.5
				c0,0.4,0.7,0.4,0.6,0c0-0.4,0.3-0.8,0.8-0.9c0.4,0,0.7,0.3,0.7,0.7c0.1,0.8-1.1,1.1-1.4,0.3C65.5,20.2,64.9,20.3,65.1,20.7
				L65.1,20.7z"/>
		</g>
	</g>
</g>
<g>
	<g>
		<g>
			<path class="st1" d="M54.1,39.2c-0.7,2.2-0.8,4.5-0.3,6.8c0.1,0.4,0.7,0.2,0.6-0.2c-0.5-2.2-0.4-4.3,0.3-6.5
				C54.9,39,54.3,38.9,54.1,39.2L54.1,39.2z"/>
		</g>
	</g>
</g>
<g>
	<g>
		<g>
			<path class="st1" d="M36.6,44c0.8,1.3,1.3,2.7,1.2,4.3c0,0.4,0.6,0.4,0.6,0c0-1.6-0.4-3.2-1.3-4.6C36.9,43.3,36.4,43.7,36.6,44
				L36.6,44z"/>
		</g>
	</g>
</g>
<g>
	<g>
		<g>
			<path class="st1" d="M55.9,40.3c3.3-0.1,6.5-0.1,9.7-0.1c0.4,0,0.4-0.6,0-0.6c-3.3,0.1-6.5,0.1-9.7,0.1
				C55.5,39.7,55.5,40.3,55.9,40.3L55.9,40.3z"/>
		</g>
	</g>
</g>
<g>
	<g>
		<g>
			<path class="st1" d="M36.4,43.5c-0.8,0.4-1.7,0.7-2.6,1c-0.4,0.2-0.2,0.8,0.2,0.6c0.8-0.4,1.7-0.7,2.6-1
				C36.9,44,36.7,43.4,36.4,43.5L36.4,43.5z"/>
		</g>
	</g>
</g>
<g>
	<g>
		<g>
			<path class="st1" d="M73.2,18.2c3.4,7.8,5.2,16.1,5.5,24.5c0,0.4,0.7,0.4,0.6,0c-0.3-8.6-2.2-17-5.6-24.8
				C73.6,17.5,73.1,17.8,73.2,18.2L73.2,18.2z"/>
		</g>
	</g>
</g>
<g>
	<g>
		<g>
			<path class="st1" d="M80.8,43.9c6.2-0.2,12.3,1.1,17.9,4c0.4,0.2,0.7-0.4,0.3-0.6c-5.6-2.9-11.9-4.3-18.2-4
				C80.4,43.2,80.4,43.9,80.8,43.9L80.8,43.9z"/>
		</g>
	</g>
</g>
<g>
	<g>
		<g>
			<path class="st1" d="M75.6,18.8c4.2-0.2,8,1.7,11.6,3.7c1.6,0.9,3.2,1.9,4.8,2.9c1.7,1.2,3.5,2.3,4.4,4.1
				c0.2,0.4,0.7,0.1,0.6-0.3c-0.8-1.7-2.4-2.8-3.9-3.9c-1.8-1.3-3.6-2.4-5.5-3.5c-3.7-2-7.7-3.9-11.9-3.7
				C75.2,18.1,75.2,18.8,75.6,18.8L75.6,18.8z"/>
		</g>
	</g>
</g>
<g>
	<g>
		<g>
			<path class="st1" d="M81.5,41.5c-0.4-0.7,0.6-1.4,1.1-0.7c0.5,0.6-0.4,1.3-0.9,0.9c-0.3-0.2-0.7,0.3-0.3,0.6
				c0.5,0.3,1.3,0.2,1.7-0.2c0.5-0.5,0.5-1.2,0-1.7c-0.4-0.5-1.2-0.6-1.7-0.2c-0.5,0.4-0.7,1.1-0.4,1.7
				C81.1,42.2,81.7,41.9,81.5,41.5L81.5,41.5z"/>
		</g>
	</g>
</g>
<g>
	<g>
		<g>
			<path class="st1" d="M76.9,20.8c0.3-0.6,1.2-0.5,1.1,0.2c-0.1,0.7-0.9,0.7-1.1,0.1c-0.1-0.4-0.7-0.2-0.6,0.2
				c0.2,0.5,0.7,0.9,1.3,0.9c0.6,0,1.1-0.5,1.1-1.1c0.1-0.6-0.3-1.1-0.8-1.3c-0.6-0.1-1.2,0.1-1.4,0.6
				C76.2,20.8,76.8,21.2,76.9,20.8L76.9,20.8z"/>
		</g>
	</g>
</g>
<g>
	<g>
		<g>
			<path class="st1" d="M73,42.3c0.5-0.6,1.8-0.3,1.4,0.6c-0.1,0.3-0.5,0.6-0.8,0.4c-0.3-0.2-0.4-0.6-0.2-0.9
				c0.3-0.3-0.2-0.8-0.5-0.5c-0.5,0.5-0.3,1.4,0.2,1.8c0.6,0.5,1.4,0.3,1.7-0.3c0.4-0.6,0.3-1.4-0.3-1.8c-0.6-0.4-1.5-0.3-2,0.3
				C72.3,42.2,72.8,42.7,73,42.3L73,42.3z"/>
		</g>
	</g>
</g>
<g>
	<g>
		<g>
			<path class="st1" d="M55.3,45.2c0.3,0.5,0.9,0.7,1.4,0.6c0.6-0.2,0.9-0.8,0.7-1.3c-0.2-0.6-0.7-1-1.3-0.8
				c-0.6,0.1-1.1,0.8-0.9,1.5c0.1,0.4,0.7,0.2,0.6-0.2c-0.1-0.3,0.2-0.6,0.5-0.7c0.3,0,0.4,0.2,0.5,0.5c0.1,0.6-0.7,0.7-1,0.2
				C55.7,44.5,55.1,44.8,55.3,45.2L55.3,45.2z"/>
		</g>
	</g>
</g>
<g>
	<g>
		<g>
			<path class="st1" d="M35.6,49.8c0,1,1.7,1.4,2,0.4c0.3-1-1.4-1.7-1.9-0.8c-0.2,0.4,0.4,0.7,0.6,0.3c0.2-0.3,0.8-0.1,0.7,0.3
				c-0.1,0.3-0.8,0.2-0.8-0.2C36.3,49.4,35.6,49.4,35.6,49.8L35.6,49.8z"/>
		</g>
	</g>
</g>
<g>
	<g>
		<g>
			<path class="st0" d="M37.7,106.1c0.5,0.7,1,1,1.9,1c0.2,0,0.4-0.1,0.5-0.4c0.7-4.4,1.8-8.8,3.3-13c0.2-0.6-0.7-0.8-0.9-0.3
				c-1.5,4.2-2.6,8.6-3.3,13c0.2-0.1,0.3-0.2,0.5-0.4c-0.4-0.2-0.7-0.4-1.1-0.5C38.2,105.1,37.4,105.6,37.7,106.1L37.7,106.1z"/>
		</g>
	</g>
</g>
<g>
	<g>
		<g>
			<path class="st0" d="M39.8,106.6c1.2-0.8,2,0.6,2.7,1.4c0.5,0.6,1,1.2,1.7,1.6c1,0.6,2.7,1.4,3.9,0.8c1.3-0.6,0.9-2.6,0.9-3.7
				c0.1-2.3,0.1-4.6,0.1-6.9c0-0.6-0.9-0.6-1,0c0,2-0.1,4-0.1,5.9c0,0.9,0.1,1.9-0.1,2.7c-0.3,1.7-1.8,1.2-2.8,0.6
				c-1.5-0.7-2-2.2-3.3-3.1c-0.8-0.6-1.8-0.8-2.6-0.2C38.8,106.1,39.3,106.9,39.8,106.6L39.8,106.6z"/>
		</g>
	</g>
</g>
<g>
	<g>
		<g>
			<path class="st0" d="M48.6,107.8c3.3-0.6,5,4.4,8.5,3.1c0.2-0.1,0.4-0.3,0.3-0.6c-1.2-4-1.6-8.2-1.3-12.4c0.1-0.6-0.9-0.6-1,0
				c-0.4,4.3,0.1,8.6,1.3,12.6c0.1-0.2,0.2-0.4,0.3-0.6c-1.9,0.7-3.4-1-4.9-2c-1.1-0.8-2.2-1.3-3.6-1C47.8,107,48,107.9,48.6,107.8
				L48.6,107.8z"/>
		</g>
	</g>
</g>
<g>
	<g>
		<g>
			<path class="st0" d="M56,109.2c1,1.3,2.4,2.1,3.9,2.3c0.9,0.1,1.8,0.1,2.6-0.2c0.5-0.2,1-0.4,1.5-0.5c1.2-0.1,1.2,0.3,1.8,0.9
				c1,0.9,2,0.5,2.3-0.7c0.5-2.6,0.7-5.2,1-7.8c0.1-0.6-0.8-0.9-0.9-0.3c-0.3,2-0.5,4-0.8,6.1c-0.1,0.8,0.1,2.7-1.2,1.8
				c-0.5-0.4-0.7-0.8-1.3-0.9c-1.4-0.3-2.7,0.7-4,0.7c-1.7,0.1-3.3-0.8-4.4-2.1C56.4,108,55.7,108.7,56,109.2L56,109.2z"/>
		</g>
	</g>
</g>
<g>
	<g>
		<g>
			<path class="st0" d="M68.5,109.5c1.1,1.4,2.7,3,4.7,2.3c0.4-0.2,0.6-0.4,0.9-0.7c1-0.7,1.6-0.2,2.4,0.5c0.7,0.5,1.4,0.8,2.3,0.7
				c1-0.1,1.8-0.7,2.8-0.8c0.8-0.2,1.8,0.4,2.5-0.2c0.4-0.3,0.6-0.7,0.4-1.2c-0.1-0.5-1.2-1.4-1-1.9c0.3-0.6-0.6-1-0.8-0.5
				c-0.2,0.4-0.2,0.7,0,1.2c0.1,0.3,1,1.2,0.9,1.5c-0.1,0.2-2,0.1-2.3,0.2c-0.8,0.2-1.6,0.6-2.4,0.8c-1.8,0.4-2.8-2.2-4.7-1.6
				c-1,0.3-1.2,1.5-2.5,1.2c-1.1-0.2-1.9-1.3-2.6-2.1C68.8,108.4,68.1,109,68.5,109.5L68.5,109.5z"/>
		</g>
	</g>
</g>
<g>
	<g>
		<g>
			<path class="st0" d="M96.8,108.8c0.7-0.7,2.2-0.1,3.1-0.5c0.5-0.2,0.7-0.6,1.1-0.9c0.6-0.5,1.3-0.7,2-0.8
				c0.7-0.1,2.2-0.2,2.7-0.9c0.5-0.7,0-2.6-0.2-3.4c-0.1-0.6-1-0.4-0.9,0.3c0.2,0.6,0.4,1.6,0.3,2.2c-0.2,0.6-0.6,0.6-1.2,0.7
				c-1,0.2-2,0.2-2.9,0.8c-0.3,0.2-0.5,0.5-0.8,0.8c-0.6,0.5-1.1,0.5-1.9,0.5c-0.8,0-1.4,0-2,0.6C95.7,108.6,96.4,109.3,96.8,108.8
				L96.8,108.8z"/>
		</g>
	</g>
</g>
<g>
	<g>
		<g>
			<path class="st0" d="M106.2,105.5c-0.4-1.3,2.4-1,3.1-1.4c0.3-0.1,0.5-0.3,0.7-0.5c0.2-0.2,1-1.8,1.4-1.3
				c0.2,0.3,0.6,0.1,0.7-0.1c0.5-0.6,0.6-1.2,0.6-1.9c0-0.6-1-0.6-1,0c0,0.5-0.1,1-0.5,1.5c0.3,0,0.5-0.1,0.7-0.1
				c-0.4-0.5-0.9-0.5-1.5-0.3c-0.4,0.2-0.6,0.4-0.8,0.7c-0.5,0.8-0.8,1.2-1.8,1.3c-1.3,0.1-3.4,0.6-2.8,2.4
				C105.4,106.3,106.3,106.1,106.2,105.5L106.2,105.5z"/>
		</g>
	</g>
</g>
<g>
	<g>
		<g>
			<path class="st0" d="M113,99.7c0-0.4,1.6-0.6,1.9-1.1c0.5-0.8,0-1.9-0.2-2.6c-0.7-2.4-1.6-4.7-2.6-7c-0.3-0.6-1.1-0.1-0.8,0.5
				c1,2.1,1.8,4.3,2.5,6.5c0.1,0.4,0.4,1,0.4,1.4c-0.1,1.2-0.7,0.8-1.3,1.2c-0.5,0.3-0.7,0.6-0.7,1.2C112,100.4,113,100.4,113,99.7
				L113,99.7z"/>
		</g>
	</g>
</g>
<g>
	<g>
		<g>
			<path class="st0" d="M37.8,69c0-0.8,0.7-1.5,1.5-1.5c0.6,0,0.6-1,0-1c-1.3,0-2.5,1.1-2.5,2.5C36.8,69.6,37.8,69.6,37.8,69
				L37.8,69z"/>
		</g>
	</g>
</g>
<g>
	<g>
		<g>
			<path class="st0" d="M39.2,66.7c4.7,3.4,10.8,4.4,16.3,2.8c0.6-0.2,0.3-1.1-0.3-0.9c-5.3,1.6-11.1,0.6-15.6-2.7
				C39.2,65.5,38.7,66.3,39.2,66.7L39.2,66.7z"/>
		</g>
	</g>
</g>
<g>
	<g>
		<g>
			<path class="st0" d="M38.9,67.4c3,3.1,6.7,5.3,10.8,6.4c0.6,0.2,0.8-0.8,0.3-0.9c-4-1-7.6-3.1-10.4-6.1
				C39.1,66.3,38.4,67,38.9,67.4L38.9,67.4z"/>
		</g>
	</g>
</g>
<g>
	<g>
		<g>
			<path class="st0" d="M38.6,67.2c1.4,2.9,3.6,5.4,6.4,7c0.5,0.3,1-0.5,0.5-0.8c-2.7-1.6-4.7-3.9-6-6.7
				C39.2,66.2,38.3,66.7,38.6,67.2L38.6,67.2z"/>
		</g>
	</g>
</g>
<g>
	<g>
		<g>
			<path class="st0" d="M58.3,106.6c-0.5-2.2-0.2-4.4,0.9-6.3c0.3-0.5-0.5-1-0.8-0.5c-1.3,2.2-1.6,4.6-1,7
				C57.5,107.4,58.4,107.2,58.3,106.6L58.3,106.6z"/>
		</g>
	</g>
</g>
<g>
	<g>
		<g>
			<path class="st0" d="M38.8,97.3c-0.3,0.8-0.5,1.5-0.8,2.3c-0.2,0.6,0.7,0.8,0.9,0.3c0.3-0.8,0.5-1.5,0.8-2.3
				C40,97,39,96.7,38.8,97.3L38.8,97.3z"/>
		</g>
	</g>
</g>
<g>
	<g>
		<g>
			<path class="st0" d="M105.7,100.5c0.2,0.3,0.3,0.7,0.5,1c0.1,0.2,0.4,0.3,0.7,0.2s0.3-0.4,0.2-0.7c-0.2-0.3-0.3-0.7-0.5-1
				c-0.1-0.2-0.4-0.3-0.7-0.2C105.7,100,105.6,100.3,105.7,100.5L105.7,100.5z"/>
		</g>
	</g>
</g>
<g>
	<g>
		<g>
			<path class="st1" d="M117.9,63.6c0.3,4.7-2,8.9-3.9,13c-1.8,3.8-3.7,7.5-5.7,11.1c-4.1,7.3-9.1,14.4-15.4,20
				c-1.3,1.2-2.5,1.6-4.2,1c-1.1-0.4-2.1-1-3-1.6c-2.1-1.4-3.8-3.1-5.2-5.2c-0.2-0.3-0.8,0-0.6,0.3c1.2,1.7,2.6,3.3,4.3,4.6
				c1.5,1.2,3.4,2.4,5.3,2.8c1.9,0.4,3.3-0.9,4.6-2.2c1.7-1.6,3.3-3.3,4.8-5c6.1-7.1,10.7-15.3,14.8-23.7c2.3-4.7,5.2-9.8,4.9-15.1
				C118.5,63.2,117.8,63.2,117.9,63.6L117.9,63.6z"/>
		</g>
	</g>
</g>
<g>
	<g>
		<g>
			<path class="st1" d="M78.3,99.7c-4.8-5.7-9.2-11.7-13.4-17.9c-2-3-4-6.1-5.8-9.2c-0.2-0.3-0.5-0.6-0.6-1c-0.4-1.2,0-1.6,0.7-2.3
				c0.7-0.7,1.4-1.3,2.2-1.8c1.5-1,3.1-1.6,4.9-2c0.4-0.1,0.2-0.7-0.2-0.6c-1.8,0.4-3.5,1.1-5,2.1c-1.1,0.7-2.8,1.8-3.3,3.1
				c-0.6,1.4,0.9,3.1,1.6,4.2c1.1,1.8,2.3,3.6,3.4,5.4c4.6,7.1,9.7,13.9,15,20.4C78.1,100.4,78.6,100,78.3,99.7L78.3,99.7z"/>
		</g>
	</g>
</g>
<g>
	<g>
		<g>
			<path class="st1" d="M71.4,64.6c13.3-3.3,27.1-4.2,40.7-2.7c0.4,0.1,0.4-0.6,0-0.6c-13.6-1.5-27.5-0.5-40.8,2.7
				C70.8,64.1,71,64.7,71.4,64.6L71.4,64.6z"/>
		</g>
	</g>
</g>
<g>
	<g>
		<g>
			<path class="st1" d="M38.9,86c3.1,1.2,6.2,2.4,9.2,3.5c0.4,0.2,0.6-0.5,0.2-0.6c-3.1-1.2-6.2-2.4-9.2-3.5
				C38.7,85.3,38.6,85.9,38.9,86L38.9,86z"/>
		</g>
	</g>
</g>
<g>
	<g>
		<g>
			<path class="st1" d="M55,90c2.7-0.4,5.5-0.8,8.2-1.2c0.4-0.1,0.2-0.7-0.2-0.6c-2.7,0.4-5.5,0.8-8.2,1.2C54.4,89.4,54.6,90,55,90
				L55,90z"/>
		</g>
	</g>
</g>
<g>
	<g>
		<g>
			<path class="st1" d="M32.9,78.9c-0.7,0.3-5.9,3.1-3.5,4c1.1,0.4,3,0,4.1-0.3c1.7-0.4,3.2-1.1,4.6-2c0.3-0.2,0-0.8-0.3-0.6
				c-1.8,1.2-3.8,2-6,2.3c-0.4,0.1-0.8,0.1-1.3,0.1c-0.3,0-0.7,0-1-0.1c0.1-0.4,0.2-0.7,0.5-0.9c0.7-0.8,1.9-1.4,2.9-1.8
				C33.4,79.3,33.3,78.7,32.9,78.9L32.9,78.9z"/>
		</g>
	</g>
</g>
<g>
	<g>
		<g>
			<path class="st1" d="M32.6,82.6c-2.1,2.6,3.4,3.6,2.6,5.8c-0.1,0.4,0.5,0.6,0.6,0.2c0.3-0.8,0-1.5-0.5-2.2
				c-0.7-0.8-3.5-1.9-2.3-3.4C33.3,82.7,32.9,82.2,32.6,82.6L32.6,82.6z"/>
		</g>
	</g>
</g>
<g>
	<g>
		<g>
			<path class="st1" d="M34.8,84.4c0.8-0.3,1.6-0.6,2.3-0.9c0.4-0.2,0.2-0.8-0.2-0.6c-0.8,0.3-1.6,0.6-2.3,0.9
				C34.2,84,34.4,84.6,34.8,84.4L34.8,84.4z"/>
		</g>
	</g>
</g>
<g>
	<g>
		<g>
			<path class="st1" d="M31.3,79.6c-0.9-1.9-1.6-3.8-2-5.8c-0.2-0.9-0.5-2-0.5-3c0.1-1.4,1.2-1.5,2-0.9c0.4,0.3,0.7,0.8,0.9,1.3
				c0.2,0.4,0.7,0.1,0.6-0.3c-0.5-0.9-1.1-1.8-2.2-2c-1-0.2-1.7,0.4-1.9,1.3c-0.3,1.4,0.3,3.3,0.7,4.6c0.5,1.8,1.1,3.5,1.9,5.1
				C31,80.3,31.5,80,31.3,79.6L31.3,79.6z"/>
		</g>
	</g>
</g>
<g>
	<g>
		<g>
			<path class="st1" d="M28.6,69.4c-1,0.1-1.9-0.6-2.2-1.6c-0.3-1,0.5-1.9,1.5-2.2c0.9-0.2,1.8,0.2,2.2,1c0.2,0.4,0.2,0.8,0.2,1.2
				c0,0.2-0.1,0.4-0.2,0.6c-0.1,0.1-0.5,0.9-0.5,0.9c0.4-0.2,0.2-0.8-0.2-0.6c-0.4,0.2-0.5,0.7-0.1,0.9c0.6,0.2,1.2-0.7,1.3-1.1
				c0.5-1.3-0.1-3.1-1.5-3.5c-1.4-0.5-3.1,0.5-3.4,1.9c-0.4,1.7,1.2,3.3,2.8,3.1C29,70,29,69.4,28.6,69.4L28.6,69.4z"/>
		</g>
	</g>
</g>
<g>
	<g>
		<g>
			<path class="st1" d="M30,79.2c-1.4,0.6-2.7,1.4-3.7,2.4c-0.6,0.6-2,2-1.8,2.9c0.1,1.1,1.7,1.4,2.6,1.4c1.7-0.2,3.6-1.2,5.2-1.8
				c0.4-0.2,0.2-0.8-0.2-0.6c-0.8,0.3-7.2,3.3-6.9,0.8c0.1-0.8,1.3-1.9,1.8-2.4c0.9-0.9,2-1.5,3.1-2C30.5,79.6,30.4,79,30,79.2
				L30,79.2z"/>
		</g>
	</g>
</g>
<g>
	<g>
		<g>
			<path class="st1" d="M41.1,112c-2.2-0.2-4.3-0.1-6.5,0.4c-0.4,0.1-0.2,0.7,0.2,0.6c2.1-0.4,4.2-0.5,6.3-0.3
				C41.5,112.7,41.5,112.1,41.1,112L41.1,112z"/>
		</g>
	</g>
</g>
<g>
	<g>
		<g>
			<path class="st1" d="M110,114c3.9-0.5,7.8-0.6,11.8-0.5c0.4,0,0.4-0.6,0-0.6c-3.9-0.1-7.9,0.1-11.8,0.5
				C109.6,113.4,109.6,114.1,110,114L110,114z"/>
		</g>
	</g>
</g>
<g class="st2">
	<path d="M70.3,75.9l-0.2-1.7l10.3-5.1l0.2,1.8l-8.2,4l8.8,2.5l0.2,1.8L70.3,75.9z"/>
	<path d="M83.2,76.9L83,75l6.1-0.5l0.2,1.8L83.2,76.9z"/>
	<path d="M90.7,76.2l-0.2-1.8l6.1-0.5l0.2,1.8L90.7,76.2z"/>
	<path d="M98.2,75.5l-0.2-1.8l6.1-0.5l0.2,1.8L98.2,75.5z"/>
</g>
<g>
	<g>
		<g>
			<path class="st1" d="M90.5,109.4c-0.5-0.5-0.5-2-0.6-2.7c-0.2-1-0.3-2-0.5-3.1c-0.2-1.8-0.4-3.6-0.6-5.4
				c-0.3-3.6-0.4-7.2-0.5-10.9c0-0.4-0.7-0.4-0.6,0c0.2,4,0.3,8.1,0.6,12.1c0.2,1.8,0.4,3.7,0.6,5.5c0.2,1,0.3,1.9,0.5,2.9
				c0.1,0.6,0.1,1.5,0.6,2C90.3,110.1,90.7,109.7,90.5,109.4L90.5,109.4z"/>
		</g>
	</g>
</g>
<g>
	<g>
		<g>
			<path class="st1" d="M85.8,62c0.1,1.6,0.2,3.3,0.3,4.9c0,0.4,0.7,0.4,0.6,0c-0.1-1.6-0.2-3.3-0.3-4.9
				C86.4,61.6,85.8,61.6,85.8,62L85.8,62z"/>
		</g>
	</g>
</g>
</svg>
