<?xml version="1.0" encoding="utf-8"?>
<!-- Generator: Adobe Illustrator 24.0.1, SVG Export Plug-In . SVG Version: 6.00 Build 0)  -->
<svg version="1.1" id="Layer_1" xmlns="http://www.w3.org/2000/svg" xmlns:xlink="http://www.w3.org/1999/xlink" x="0px" y="0px"
	 viewBox="0 0 141.7 141.7" style="enable-background:new 0 0 141.7 141.7;" xml:space="preserve">
<style type="text/css">
	.st0{fill:#070707;}
	.st1{enable-background:new    ;}
</style>
<g id="Layer_1_1_">
</g>
<g id="Layer_1_2_">
</g>
<g id="Layer_1_3_">
</g>
<g id="Layer_1_4_">
</g>
<g id="Layer_1_5_">
</g>
<g id="Layer_3">
</g>
<g id="Layer_3_1_">
</g>
<g id="Layer_2_1_">
	<g>
		<g>
			<g>
				<g>
					<path class="st0" d="M100.1,21.5c-0.8-2-2.3-3.5-3.8-4.9c-1.5-1.5-3.3-2.7-5.2-3.6c-4-2-8.4-2.9-12.9-2.8c-5,0-10,0.7-14.9,1.3
						c-4.4,0.5-9,2.3-12.2,5.3c-1.6,1.5-3,2.9-4.2,4.7c-1.1,1.7-2,3.4-2.7,5.3c-1.4,3.8-2.1,7.8-2.3,11.8c-0.6,9.4,1.3,18.7,1,28.1
						c-0.2,5.5-1.3,11.1-2.8,16.4c-1.3,4.5-4.2,9.1-2.6,13.9c0.1,0.3,0.5,0.2,0.4-0.1c-1.5-4.3,0.9-8.5,2.2-12.5
						c0.7-2.1,1.2-4.3,1.6-6.5c0.5-2.2,1-4.5,1.2-6.7c1.1-9.2-0.6-18.3-0.7-27.5c-0.1-7.9,0.9-16.3,5.7-22.9
						c2.6-3.7,6.5-6.4,10.8-7.9c2.4-0.8,4.7-1,7.1-1.3c2.4-0.2,4.8-0.6,7.1-0.8c5.2-0.5,10.3-0.4,15.2,1.4c2.2,0.8,4.3,1.9,6.2,3.3
						c2,1.5,4.3,3.7,5.3,6.1C99.8,21.9,100.2,21.7,100.1,21.5L100.1,21.5z"/>
				</g>
			</g>
		</g>
		<g>
			<g>
				<g>
					<path class="st0" d="M42.2,102.7c4.7,4.5,11.1,5.9,17.1,7.8c1.6,0.5,3.2,1.1,4.9,1.4c1.7,0.4,3.5,0.4,5.3,0.4
						c3.7-0.1,7.4-0.7,11-1.3c2.1-0.4,4.2-0.6,6.3-1c1-0.2,2-0.4,3.1-0.7c1-0.3,1.9-0.8,2.8-1.3c0.2-0.1,0-0.5-0.2-0.4
						c-1.7,0.9-3.3,1.5-5.2,1.9c-1.8,0.4-3.6,0.5-5.4,0.8c-3.7,0.6-7.4,1.3-11.1,1.5c-1.9,0.1-3.7,0.2-5.6-0.1
						c-1.7-0.3-3.2-0.7-4.8-1.3c-2.9-1-5.9-1.7-8.7-2.7c-3.4-1.2-6.6-2.8-9.2-5.3C42.3,102.2,42,102.5,42.2,102.7L42.2,102.7z"/>
				</g>
			</g>
		</g>
		<g>
			<g>
				<g>
					<path class="st0" d="M62.9,11.9c0.3,0,0.3-0.4,0-0.4C62.7,11.5,62.7,11.9,62.9,11.9L62.9,11.9z"/>
				</g>
			</g>
		</g>
		<g>
			<g>
				<g>
					<path class="st0" d="M43.3,29.4c-2.3-0.2-4.5-1.4-5.5-3.5c-1-2-0.7-4.3,0.6-6.1c1.2-1.7,3.1-2.9,5.1-3.3c2-0.4,4.8-0.3,6.1,1.4
						c0.2,0.2,0.5-0.1,0.3-0.3c-1.4-1.8-4.3-1.9-6.3-1.5c-2.3,0.4-4.5,1.8-5.8,3.7c-1.3,1.9-1.5,4.4-0.4,6.5
						c1.1,2.2,3.4,3.4,5.8,3.6C43.6,29.9,43.6,29.5,43.3,29.4L43.3,29.4z"/>
				</g>
			</g>
		</g>
		<g>
			<g>
				<g>
					<path class="st0" d="M95.7,16.4c3.4-1.8,9-2.6,11.3,1.2c2.3,3.7,0.9,9.7-3.9,10.5c-0.3,0-0.2,0.5,0.1,0.4
						c5-0.8,6.5-6.9,4.3-10.9c-2.4-4.3-8.3-3.5-12-1.5C95.3,16.1,95.5,16.5,95.7,16.4L95.7,16.4z"/>
				</g>
			</g>
		</g>
		<g>
			<g>
				<g>
					<path class="st0" d="M69.1,34.8c0.1,0,0.2,0,0.3-0.1c0-0.1,0-0.1-0.1-0.2c-0.2,0.2-0.6,0.1-0.9,0.2c-0.5,0.2-0.9,0.6-1.3,0.9
						c-0.8,0.6-1.6,1.4-2,2.4c-0.9,2.4,2.1,3.5,4,3.3c1.6-0.2,3-0.9,4.6-1c1.3-0.1,2.5,0.4,3.8,0.7c0.9,0.2,1.9,0.4,2.7-0.2
						c0.7-0.6,1.1-1.6,1-2.6C80.9,36,77.9,34.7,76,34c-0.1-0.1-0.2,0.2-0.1,0.2c1.7,0.6,3.8,1.5,4.8,3.2c0.6,1.1,0.4,2.6-0.7,3.3
						c-0.9,0.6-2.1,0.2-3.1-0.1c-0.8-0.2-1.7-0.5-2.5-0.5c-1.1,0-2.2,0.3-3.3,0.6c-1.3,0.4-2.6,0.7-3.9,0.2
						c-1.2-0.4-2.3-1.4-1.8-2.8c0.4-1.1,1.4-2,2.3-2.6c0.4-0.3,0.7-0.5,1.1-0.7c0.2-0.1,0.5-0.1,0.7-0.2c0.1-0.1,0.1-0.2-0.1-0.2
						c-0.1,0-0.2,0-0.4,0.1C68.9,34.6,69,34.8,69.1,34.8L69.1,34.8z"/>
				</g>
			</g>
		</g>
		<g>
			<g>
				<g>
					<path class="st0" d="M77,41c0.6,1.4,0.8,3.2,0.3,4.7c-0.4,1-1.8,1.7-2.8,1.2c-0.5-0.3-0.7-1.1-1-1.6c-0.1-0.1-0.2,0-0.2,0.1
						c0.3,0.6,0.6,1.5,1.3,1.7c0.7,0.3,1.6,0.1,2.2-0.4c1.6-1.2,1.1-4.2,0.4-5.8C77.1,40.8,76.9,40.9,77,41L77,41z"/>
				</g>
			</g>
		</g>
		<g>
			<g>
				<g>
					<path class="st0" d="M37.5,97.2c3.2-0.5,3.5,3.5,4.9,5.4c0-0.1,0.1-0.1,0.1-0.2c-1.8-0.3-3.6,0.5-5.3,1
						c-2.1,0.7-4.5,1.2-5.5-1.3c-1.5-3.5,4.5-4.7,6.8-5c0.1,0,0.1-0.2-0.1-0.2c-1.4,0.2-2.7,0.5-4,1c-1.1,0.4-2.4,1.1-3,2.2
						c-0.5,1.1,0,2.4,0.8,3.3c1,1.1,2.6,1,3.9,0.6c2-0.5,4.2-1.8,6.3-1.4c0.1,0,0.2-0.1,0.1-0.2c-1.5-2-1.8-6-5.1-5.4
						C37.3,97,37.3,97.2,37.5,97.2L37.5,97.2z"/>
				</g>
			</g>
		</g>
		<g>
			<g>
				<g>
					<path class="st0" d="M32.2,102.7c0.1-1.8,1.7-2.6,3.3-2.9c0.1,0,0.1-0.2-0.1-0.2c-1.7,0.3-3.4,1.2-3.4,3.1
						C31.9,102.8,32.2,102.8,32.2,102.7L32.2,102.7z"/>
				</g>
			</g>
		</g>
		<g>
			<g>
				<g>
					<path class="st0" d="M98,112.1c-1.7-1-2.7-2.8-4.2-4c-0.2-0.1-0.5-0.3-0.6-0.4c-0.3-0.4-0.1-0.9,0.1-1.3
						c0.4-0.5,0.9-0.9,1.4-1.2c1.1-0.7,2.3-1.2,3.6-0.8c2.1,0.6,3.6,2.8,4,4.9c0.2,1.1,0,2.5-1.1,3.1C100.3,112.9,99,112.6,98,112.1
						c-0.1-0.1-0.2,0.1-0.1,0.2c1.4,0.7,3.5,0.9,4.4-0.6c1-1.6,0.1-3.9-0.9-5.3c-1.1-1.6-3.1-2.9-5.1-2.3c-1,0.3-4.2,2-3.5,3.4
						c0.2,0.3,0.6,0.5,0.9,0.7c0.5,0.4,0.9,0.9,1.4,1.4c0.9,1,1.7,2,2.9,2.7C98,112.4,98.2,112.2,98,112.1z"/>
				</g>
			</g>
		</g>
		<g>
			<g>
				<g>
					<path class="st0" d="M99.1,108.2c1.1,1.1,2,2.6,2,4.2c0,0.1,0.2,0.1,0.2,0c-0.1-1.7-0.9-3.2-2.1-4.3
						C99.1,108,99,108.1,99.1,108.2L99.1,108.2z"/>
				</g>
			</g>
		</g>
		<g>
			<g>
				<g>
					<path class="st0" d="M104.8,60.2c0.3,0.2,0.7,0.1,1,0.1c0.6,0,1.2,0,1.8,0.1c1.7,0.4,3.4,1.5,4,3.3c0.2,0.7,0.2,1.5-0.1,2.1
						c-0.4,0.9-1.4,1.1-2.3,1c-1.7-0.3-3-1.4-4.1-2.6c-0.1-0.1-0.3,0.1-0.2,0.2c1.3,1.2,2.7,2.5,4.5,2.7c1.4,0.1,2.4-0.6,2.5-2
						c0.1-1.6-0.8-3.1-2.2-3.9c-0.8-0.5-1.8-0.9-2.8-1c-0.6-0.1-1.5,0.2-2-0.1C104.8,60,104.7,60.2,104.8,60.2L104.8,60.2z"/>
				</g>
			</g>
		</g>
		<g>
			<g>
				<g>
					<path class="st0" d="M108.8,64.3c1.1,0.3,2.5,1.3,1.8,2.6c-0.1,0.1,0.1,0.2,0.2,0.1c0.7-1.5-0.6-2.5-1.9-2.9
						C108.7,64,108.6,64.3,108.8,64.3L108.8,64.3z"/>
				</g>
			</g>
		</g>
		<g>
			<path class="st0" d="M85.1,34.6c-5.4,0-9.8-4.4-9.8-9.8s4.4-9.8,9.8-9.8c5.4,0,9.8,4.4,9.8,9.8S90.5,34.6,85.1,34.6z M85.1,15.3
				c-5.2,0-9.5,4.3-9.5,9.5s4.3,9.5,9.5,9.5c5.2,0,9.5-4.3,9.5-9.5S90.4,15.3,85.1,15.3z"/>
		</g>
		<g>
			<path class="st0" d="M60.8,35.7c-5.4,0-9.8-4.4-9.8-9.8s4.4-9.8,9.8-9.8s9.8,4.4,9.8,9.8S66.2,35.7,60.8,35.7z M60.8,16.4
				c-5.2,0-9.5,4.3-9.5,9.5s4.3,9.5,9.5,9.5s9.5-4.3,9.5-9.5S66.1,16.4,60.8,16.4z"/>
		</g>
		<g>
			<path class="st0" d="M103.6,21c0-1.1-0.9-2-2-2c-1.1,0-2,0.9-2,2c0,1.1,0.9,2,2,2S103.6,22.2,103.6,21z"/>
		</g>
		<g>
			<path class="st0" d="M46.3,22.9c0-1.1-0.9-2-2-2c-1.1,0-2,0.9-2,2c0,1.1,0.9,2,2,2C45.3,24.9,46.3,24,46.3,22.9z"/>
		</g>
		<g>
			<path class="st0" d="M77.3,33.8c0-1.3-1.9-2.4-4.3-2.4c-2.4,0-4.3,1.1-4.3,2.4c0,1.3,1.9,2.4,4.3,2.4
				C75.4,36.1,77.3,35.1,77.3,33.8z"/>
		</g>
		<g>
			<path class="st0" d="M82,24.9c0,1.7,1.4,3.2,3.2,3.2s3.2-1.4,3.2-3.2c0-1.7-1.4-3.2-3.2-3.2S82,23.2,82,24.9z M87.1,23.6
				c0,0.5-0.4,0.9-0.9,0.9c-0.5,0-0.9-0.4-0.9-0.9s0.4-0.9,0.9-0.9C86.7,22.7,87.1,23.1,87.1,23.6z"/>
		</g>
		<g>
			<path class="st0" d="M57.7,25.9c0,1.7,1.4,3.2,3.2,3.2c1.7,0,3.2-1.4,3.2-3.2c0-1.7-1.4-3.2-3.2-3.2S57.7,24.1,57.7,25.9z
				 M62.8,24.6c0,0.5-0.4,0.9-0.9,0.9S61,25.1,61,24.6c0-0.5,0.4-0.9,0.9-0.9C62.4,23.7,62.8,24.1,62.8,24.6z"/>
		</g>
		<g>
			<g>
				<g>
					<path class="st0" d="M73.3,40.4c0.2,0.7,0.1,1.5,0.1,2.2c0,0.8,0,1.7-0.1,2.5c-0.3,1.4-1.5,2.7-3,1.7c-1.5-1.1-1.1-4-0.7-5.6
						c0-0.1-0.2-0.2-0.2-0.1c-0.5,1.7-0.9,5.4,1.3,6.1c1.2,0.4,2.2-0.3,2.6-1.4c0.3-0.9,0.4-1.9,0.3-2.9c0-0.9,0.1-1.8-0.1-2.6
						C73.5,40.2,73.3,40.3,73.3,40.4L73.3,40.4z"/>
				</g>
			</g>
		</g>
		<g>
			<g>
				<g>
					<path class="st0" d="M43,61.1c-2.1-0.4-4.5,0.6-6,2.1c-1.1,1-1.8,2.6-0.2,3.4c0.1,0.1,0.2-0.1,0.1-0.2c-1.9-1-0.2-2.8,0.9-3.6
						c1.5-1.1,3.3-1.8,5.1-1.5C43.1,61.3,43.1,61.1,43,61.1L43,61.1z"/>
				</g>
			</g>
		</g>
		<g>
			<g>
				<g>
					<path class="st0" d="M38.5,65.1C37.8,65.4,37,66,37,66.7c0,0.8,0.8,1.2,1.5,1.3c1.8,0.2,3.8-1.8,4.7-3.1
						c0.1-0.1-0.1-0.2-0.2-0.1c-0.8,1.1-2,2.2-3.3,2.7c-0.7,0.3-1.9,0.5-2.4-0.4c-0.4-0.8,0.6-1.5,1.2-1.9
						C38.7,65.2,38.6,65,38.5,65.1L38.5,65.1z"/>
				</g>
			</g>
		</g>
		<g>
			<g>
				<g>
					<path class="st0" d="M99.2,20.6c5.8,8.4,5.1,19.3,5,29c-0.1,12.2,1.6,24.4,1,36.6c-0.2,3.4-0.7,6.8-1.8,10
						c-1,2.9-3.1,5.2-4.5,7.8c-0.1,0.2,0.2,0.5,0.4,0.2c1.3-2.4,3-4.4,4.1-6.9c1.1-2.5,1.6-5.3,2-8.1c0.8-6.3,0.4-12.8,0.1-19.1
						c-0.3-6.3-0.8-12.6-0.8-18.9c0-5.1,0.2-10.2-0.2-15.3c-0.5-5.5-1.7-11.1-4.9-15.7C99.4,20.1,99,20.3,99.2,20.6L99.2,20.6z"/>
				</g>
			</g>
		</g>
		<g>
			<g>
				<g>
					<path class="st0" d="M92.7,107.7c0.1,0,0.1,0,0.1,0c0.1,0,0.1-0.2,0-0.2c0,0,0,0,0,0c0,0-0.1,0-0.1,0.1
						C92.7,107.6,92.7,107.6,92.7,107.7c0,0,0.1,0,0.1,0.1c0-0.1,0-0.1,0.1-0.2C92.8,107.6,92.8,107.6,92.7,107.7
						c0,0,0.1,0.1,0.2,0.1c0.1,0.1,0.3-0.1,0.2-0.2c-0.1-0.1-0.1-0.1-0.2-0.2c-0.1-0.1-0.2,0-0.2,0.1
						C92.7,107.6,92.6,107.7,92.7,107.7c-0.1,0.1,0,0.1,0.1,0.1c0.1,0,0.1-0.1,0.2-0.2c0,0-0.1,0-0.1,0.1c0,0,0,0,0,0
						c0.1,0,0.1-0.2,0-0.2c-0.1,0-0.1,0-0.1,0C92.6,107.5,92.6,107.7,92.7,107.7L92.7,107.7z"/>
				</g>
			</g>
		</g>
		<g class="st1">
			<path d="M49.5,116.2v-0.7c1.7,0,2.6-0.5,2.6-1.4v-9.8c0-0.6-0.3-0.9-0.8-0.9h-1.9v-0.7c0.5-0.1,1-0.2,1.4-0.3
				c0.4-0.1,0.7-0.2,1-0.3c0.3-0.1,0.6-0.3,0.9-0.5c0.3-0.2,0.6-0.4,1-0.7l0.6,0.2c-0.1,0.3-0.1,0.6-0.1,0.8c0,0.2,0,0.4,0,0.7V114
				c0,1,0.9,1.4,2.6,1.4v0.7H49.5z"/>
		</g>
		<g class="st1">
			<path d="M63.3,129.7c-0.5,0-1,0-1.5,0c-0.5,0-0.9,0.1-1.3,0.1l-0.2-1.2c1.7-2,3.3-3.9,4.7-5.8c1.4-1.9,2.7-3.7,3.7-5.4
				c1-1.8,1.9-3.5,2.5-5.2c0.6-1.7,0.9-3.4,0.9-5.1c0-1.8-0.4-3.1-1.3-4c-0.8-0.9-2-1.3-3.6-1.3c-1.4,0-2.5,0.3-3.3,0.9
				c-0.7,0.6-1.1,1.5-1.1,2.6c0.9,0.3,1.3,0.9,1.3,1.7c0,1.5-0.5,2.2-1.6,2.2c-1.1,0-1.6-1-1.6-2.9c0-2.2,0.6-4,1.9-5.1
				c1.3-1.2,3.2-1.8,5.7-1.8c4.6,0,6.9,2.5,6.9,7.5c0,1.7-0.2,3.3-0.7,4.9c-0.5,1.5-1.2,3-2.1,4.6c-0.9,1.5-2.2,3.1-3.6,4.7
				c-1.5,1.6-3.2,3.3-5.2,5.1h6.7c0.7,0,1.3,0,1.7-0.1c0.5-0.1,0.9-0.3,1.3-0.5c0.4-0.3,0.7-0.7,0.9-1.1c0.3-0.5,0.5-1.1,0.8-2
				l1,0.2l-1.4,7.2H63.3z"/>
		</g>
		<g class="st1">
			<path d="M85,106.1c2.7,0.3,4,1.9,4,4.8c0,3.8-2.2,5.7-6.6,5.7c-2.8,0-4.2-0.9-4.2-2.7c0-0.9,0.4-1.3,1.3-1.3
				c0.6,0,0.9,0.3,0.9,0.9c0,0.5-0.2,0.8-0.5,0.9c0.1,0.7,0.6,1,1.8,1c3.1,0,4.6-1.5,4.6-4.5c0-2.5-1-3.8-3-3.8H82
				c-0.2,0-0.3-0.1-0.3-0.4c0-0.3,0.1-0.5,0.3-0.5c1.3,0,2.2-0.3,2.9-1c0.6-0.7,0.9-1.6,0.9-2.9c0-2-0.9-3-2.6-3
				c-1.7,0-2.5,0.4-2.5,1.1c0.3,0.2,0.5,0.5,0.5,0.9c0,0.8-0.4,1.2-1.1,1.2c-0.7,0-1.1-0.4-1.1-1.1c0-2.2,1.6-3.4,4.8-3.4
				c2.8,0,4.1,1.3,4.1,3.9c0,2-1,3.3-3.1,3.9V106.1z"/>
		</g>
		<g class="st1">
			<path d="M42.2,124.1c-0.9,0-1.7-0.2-2.3-0.7c-0.7-0.5-1.2-1.1-1.7-1.9c-0.5-0.8-0.8-1.7-1-2.7c-0.2-1-0.4-2.1-0.4-3.2
				c0-1.2,0.1-2.4,0.4-3.5c0.3-1.1,0.7-2.1,1.2-3c0.5-0.9,1.1-1.6,1.8-2.1c0.7-0.5,1.5-0.8,2.4-0.8c0.8,0,1.6,0.2,2.3,0.7
				c0.7,0.5,1.3,1.1,1.7,1.9c0.5,0.8,0.9,1.7,1.1,2.8c0.3,1,0.4,2.1,0.4,3.2c0,1.1-0.1,2.3-0.4,3.4c-0.3,1.1-0.6,2.1-1.2,3
				c-0.5,0.9-1.1,1.6-1.9,2.1C44,123.9,43.1,124.1,42.2,124.1z M42.6,123c0.7,0,1.2-0.2,1.6-0.6c0.4-0.4,0.7-0.9,1-1.6
				c0.2-0.7,0.4-1.4,0.5-2.3c0.1-0.9,0.1-1.7,0.1-2.7c0-0.8,0-1.7-0.1-2.7c-0.1-1-0.3-1.9-0.6-2.8c-0.3-0.9-0.7-1.6-1.2-2.2
				c-0.5-0.6-1.2-0.9-2-0.9c-0.5,0-1,0.2-1.3,0.7c-0.4,0.5-0.6,1-0.9,1.7c-0.2,0.7-0.4,1.5-0.5,2.3c-0.1,0.8-0.1,1.6-0.1,2.4
				c0,1.3,0.1,2.5,0.2,3.5c0.1,1,0.4,1.9,0.6,2.6s0.7,1.3,1.1,1.7C41.5,122.8,42,123,42.6,123z"/>
		</g>
		<g class="st1">
			<path d="M105.8,86.7v-0.9c1.1,0,1.7-0.4,1.7-1.2v-2.9c0-0.4-0.2-0.6-0.7-0.6h-8v-1.1l10.7-13.4l1.1,0.1c-0.2,0.8-0.4,1.6-0.4,2.4
				v9.5c0,0.4,0.2,0.6,0.5,0.6h1.3c0.3,0,0.6,0,0.9-0.1c0.3,0,0.5-0.1,0.8-0.1V81h-2.9c-0.3,0-0.5,0.2-0.5,0.6v2.9
				c0,0.8,0.5,1.2,1.5,1.2v0.9H105.8z M107.5,70.8l-6.6,8.3h6c0.4,0,0.7-0.2,0.7-0.6V70.8z"/>
		</g>
		<g>
			<g>
				<g>
					<path class="st0" d="M31.1,100.8c-2.5,0.9-5,1.9-7.4,2.8c-0.1,0.1-0.1,0.3,0.1,0.2c2.5-0.9,5-1.9,7.4-2.8
						C31.3,101,31.3,100.8,31.1,100.8L31.1,100.8z"/>
				</g>
			</g>
		</g>
		<g>
			<g>
				<g>
					<path class="st0" d="M101.5,100.4c5.7,1.7,11.4,3.6,17,5.8c0.1,0.1,0.2-0.2,0.1-0.2c-5.6-2.1-11.2-4-17-5.8
						C101.4,100.2,101.3,100.4,101.5,100.4L101.5,100.4z"/>
				</g>
			</g>
		</g>
		<g>
			<g>
				<g>
					<path class="st0" d="M32.4,112.7c0.2,0.3,0.6,0.5,1,0.4c0.4-0.1,0.6-0.6,0.4-0.9c-0.1-0.4-0.5-0.6-0.9-0.5
						c-0.4,0.1-0.7,0.6-0.5,1c0,0.1,0.2,0.1,0.2-0.1c-0.1-0.3,0.1-0.7,0.4-0.7c0.3-0.1,0.6,0.1,0.6,0.4c0.2,0.6-0.7,0.9-1,0.4
						C32.5,112.4,32.3,112.5,32.4,112.7L32.4,112.7z"/>
				</g>
			</g>
		</g>
		<g>
			<g>
				<g>
					<path class="st0" d="M34.7,108.4c0-0.2,0-0.3,0.1-0.4c0,0-0.1,0-0.1,0c0.1,0.1,0.3,0.1,0.4,0.2c0,0,0.1,0.1,0.1,0.1
						c0,0.1,0,0.1,0,0.2c-0.2,0.2-0.6,0-0.5-0.3c0-0.1-0.2-0.2-0.2-0.1c-0.1,0.3,0.1,0.6,0.4,0.7c0.3,0.1,0.6-0.1,0.7-0.4
						c0-0.2-0.1-0.3-0.2-0.4c-0.1-0.1-0.3-0.2-0.4-0.3c-0.3-0.1-0.4,0.4-0.4,0.6C34.5,108.6,34.7,108.6,34.7,108.4L34.7,108.4z"/>
				</g>
			</g>
		</g>
		<g>
			<g>
				<g>
					<path class="st0" d="M25.4,110.9c0.1-1.2,1.4-2.1,2.6-1.9c0.7,0.2,1.2,0.7,1.5,1.3c0.2,0.5,0.4,0.6-0.2,0.8
						c-0.3,0.1-0.7,0.1-0.9,0.1c-1.3,0-2.4-0.3-3.6-0.6c-1-0.2-2.1-0.2-3.1-0.2c-0.1,0-0.1,0.2,0,0.2c0.8,0,1.5,0.1,2.3,0.1
						c0.8,0.1,1.5,0.4,2.3,0.5c1.3,0.2,2.5,0.2,3.8,0.1c0.1,0,0.1-0.1,0.1-0.1c-0.4-1.2-1.2-2.5-2.7-2.4c-1.1,0.1-2,1-2.1,2.1
						C25.2,111.1,25.4,111.1,25.4,110.9L25.4,110.9z"/>
				</g>
			</g>
		</g>
		<g>
			<g>
				<g>
					<path class="st0" d="M106.4,108.1c0.1-0.4,0.8-0.5,0.8,0c0,0.2-0.1,0.4-0.3,0.4s-0.4-0.2-0.4-0.4
						C106.6,108,106.4,107.9,106.4,108.1c-0.1,0.3,0.1,0.6,0.5,0.6c0.3,0,0.6-0.2,0.6-0.6c0-0.3-0.2-0.6-0.5-0.6
						c-0.3,0-0.6,0.2-0.7,0.5C106.2,108.2,106.4,108.3,106.4,108.1L106.4,108.1z"/>
				</g>
			</g>
		</g>
		<g>
			<g>
				<g>
					<path class="st0" d="M104.4,114.4c-1.2-0.3,0.2-1.3,0.5-1.4c0.3-0.1,0.7-0.1,0.9-0.1c0.4,0,1-0.2,1.5,0c0.4,0,0.6,0.3,0.5,0.8
						c-0.2,0.1-0.4,0.3-0.6,0.4c-0.2,0.1-0.6,0.1-0.8,0.1c-0.6,0.1-1.2,0.2-1.8,0.3c-0.1,0-0.1,0.2,0.1,0.2c0.8-0.1,1.6-0.2,2.4-0.4
						c0.4-0.1,0.9-0.2,1.1-0.7c0.3-0.7-0.3-1.1-0.9-1.1c-0.7,0-1.4,0-2,0.1c-0.4,0.1-0.8,0.2-1.1,0.4c-0.4,0.4-0.3,1.2,0.3,1.4
						C104.5,114.6,104.5,114.4,104.4,114.4L104.4,114.4z"/>
				</g>
			</g>
		</g>
		<g>
			<g>
				<g>
					<path class="st0" d="M111.9,110.7c1.4-0.5,2.8,0.5,4.3,0.4c0.4-0.1,0.8-0.2,1.2-0.2c0.6-0.1,1.1,0,1.6,0.2
						c0.6,0.1,1.1,0.2,1.6,0.1c0.1,0,0.1-0.2-0.1-0.2c-0.8,0.2-1.5-0.2-2.4-0.3c-0.8-0.1-1.5,0.3-2.3,0.3c-1.4,0.1-2.6-0.9-4-0.4
						C111.7,110.5,111.8,110.7,111.9,110.7L111.9,110.7z"/>
				</g>
			</g>
		</g>
		<g>
			<g>
				<g>
					<path class="st0" d="M34.5,124.5c5.2-0.5,10.5-0.5,15.7,0.2c0.1,0,0.1-0.2,0-0.2c-5.2-0.7-10.5-0.7-15.7-0.2
						C34.4,124.3,34.4,124.5,34.5,124.5L34.5,124.5z"/>
				</g>
			</g>
		</g>
		<g>
			<g>
				<g>
					<path class="st0" d="M53.8,116.1c2.2-0.2,4.3,0,6.4,0.5c0.1,0,0.2-0.2,0.1-0.2c-2.1-0.5-4.3-0.7-6.5-0.5
						C53.7,115.9,53.7,116.1,53.8,116.1L53.8,116.1z"/>
				</g>
			</g>
		</g>
		<g>
			<g>
				<g>
					<path class="st0" d="M56.7,130.2c4.3-0.4,8.6-0.7,12.9-1.1c0.1,0,0.1-0.2,0-0.2c-4.3,0.4-8.6,0.7-12.9,1.1
						C56.6,130,56.6,130.2,56.7,130.2L56.7,130.2z"/>
				</g>
			</g>
		</g>
		<g>
			<g>
				<g>
					<path class="st0" d="M73.2,129.8c3-0.1,6.1,0,9.1,0.2c0.1,0,0.1-0.2,0-0.2c-3-0.2-6.1-0.2-9.1-0.2
						C73,129.6,73,129.8,73.2,129.8L73.2,129.8z"/>
				</g>
			</g>
		</g>
		<g>
			<g>
				<g>
					<path class="st0" d="M77.4,117.4c3.5-0.9,7-1.3,10.6-1.5c0.1,0,0.1-0.2,0-0.2c-3.6,0.1-7.2,0.6-10.7,1.5
						C77.2,117.2,77.2,117.4,77.4,117.4L77.4,117.4z"/>
				</g>
			</g>
		</g>
		<g>
			<g>
				<g>
					<path class="st0" d="M85,118.8c0.2-0.1,0.4-0.2,0.6-0.3c0.3-0.1,0.6,0.2,0.4,0.5c-0.4,0.6-1.1,0.1-1.4-0.2c0,0.1,0,0.1,0,0.1
						c0.2-0.3,0.5-0.4,0.9-0.3c0.1,0,0.2-0.2,0.1-0.2c-0.4-0.1-0.9,0-1.1,0.4c0,0,0,0.1,0,0.1c0.3,0.3,0.7,0.6,1.2,0.5
						c0.3,0,0.6-0.2,0.7-0.5c0.1-0.3,0-0.6-0.3-0.7c-0.4-0.1-0.7,0.1-1,0.3C84.8,118.7,84.9,118.9,85,118.8L85,118.8z"/>
				</g>
			</g>
		</g>
		<g>
			<g>
				<g>
					<path class="st0" d="M88.7,116.4c1.6-0.3,3.6,1.4,5-0.1c0.1-0.1,0-0.1,0-0.2c-1.4-0.8-2.9-0.8-4.3-0.1c-0.1,0.1,0,0.3,0.1,0.2
						c0.7-0.4,1.5-0.6,2.3-0.5c0.3,0,1,0.1,1.3,0.3c0.3,0,0.3,0.1,0.1,0.4c-0.2,0.1-0.5,0.2-0.8,0.2c-1.3,0.1-2.4-0.7-3.8-0.5
						C88.5,116.2,88.6,116.5,88.7,116.4L88.7,116.4z"/>
				</g>
			</g>
		</g>
		<g>
			<g>
				<g>
					<path class="st0" d="M82.4,129.9c-0.4-1.5-2.4-1.8-3.2-0.4c-0.1,0.1,0.1,0.2,0.2,0.1c0.7-1.2,2.4-1,2.8,0.4
						C82.3,130.1,82.5,130,82.4,129.9L82.4,129.9z"/>
				</g>
			</g>
		</g>
		<g>
			<g>
				<g>
					<path class="st0" d="M66.5,131.7c0.2,0.1,0.4,0,0.6,0c0.3-0.1,0.8-0.4,1.1-0.1c0.5,0.6-0.7,0.6-0.9,0.6c-0.4,0-0.8-0.1-1.1-0.2
						c0,0.1,0.1,0.1,0.1,0.1c0.1-0.2,0.2-0.4,0.5-0.4c0.1,0,0.1-0.2-0.1-0.2c-0.3,0.1-0.5,0.3-0.6,0.6c0,0.1,0,0.1,0.1,0.1
						c0.5,0.2,1.1,0.3,1.6,0.2c0.3,0,0.9-0.1,0.9-0.5c0-0.3-0.2-0.5-0.5-0.6c-0.5-0.2-1,0.3-1.6,0.1
						C66.5,131.5,66.4,131.7,66.5,131.7L66.5,131.7z"/>
				</g>
			</g>
		</g>
		<g>
			<g>
				<g>
					<path class="st0" d="M32.7,122.7c0.2-0.4,1-0.3,1,0.2c0,0.5-0.8,0.6-1,0.2c-0.1-0.1-0.2,0-0.2,0.1c0.3,0.7,1.5,0.4,1.4-0.3
						c0-0.7-1.2-0.8-1.5-0.2C32.4,122.7,32.6,122.8,32.7,122.7L32.7,122.7z"/>
				</g>
			</g>
		</g>
		<g>
			<g>
				<g>
					<path class="st0" d="M58.7,121.5c-0.1-0.4,0.2-0.7,0.6-0.6c0.3,0.1,0.5,0.4,0.3,0.7c-0.3,0.4-0.9,0.4-1.2,0.1
						c-0.1-0.1-0.2,0.1-0.2,0.2c0.5,0.5,1.7,0.3,1.6-0.6c0-0.4-0.4-0.7-0.8-0.7c-0.4,0.1-0.7,0.5-0.6,0.9
						C58.5,121.7,58.7,121.6,58.7,121.5L58.7,121.5z"/>
				</g>
			</g>
		</g>
		<g>
			<g>
				<g>
					<path class="st0" d="M98.7,125c0.1-0.5,1-0.5,1.1,0c0,0.3-0.2,0.5-0.5,0.5c-0.1,0-0.2,0-0.4,0C98.7,125.4,98.7,125.1,98.7,125
						c0-0.2-0.2-0.1-0.2,0c0.1,0.2,0.1,0.5,0.3,0.7c0.2,0.1,0.3,0.1,0.5,0.1c0.4-0.1,0.7-0.4,0.7-0.8c-0.1-0.8-1.3-0.8-1.5-0.1
						C98.4,125,98.7,125.1,98.7,125L98.7,125z"/>
				</g>
			</g>
		</g>
	</g>
</g>
<g id="Layer_3_2_">
</g>
</svg>
