<?xml version="1.0" encoding="utf-8"?>
<!-- Generator: Adobe Illustrator 24.0.1, SVG Export Plug-In . SVG Version: 6.00 Build 0)  -->
<svg version="1.1" id="Layer_1" xmlns="http://www.w3.org/2000/svg" xmlns:xlink="http://www.w3.org/1999/xlink" x="0px" y="0px"
	 viewBox="0 0 141.7 141.7" style="enable-background:new 0 0 141.7 141.7;" xml:space="preserve">
<style type="text/css">
	.st0{fill:#070707;}
	.st1{fill:#FFFFFF;}
</style>
<g id="Layer_1_1_">
</g>
<g id="Layer_1_2_">
</g>
<g id="Layer_1_3_">
</g>
<g id="Layer_1_4_">
</g>
<g id="Layer_1_5_">
</g>
<g id="Layer_3">
</g>
<g id="Layer_3_1_">
</g>
<g>
	<g>
		<path class="st0" d="M106.1,71c-0.3,2.4-0.2,5-1.6,7c-0.3,0.4,0.4,0.8,0.7,0.4c1.5-2.2,1.4-4.9,1.7-7.4
			C106.9,70.5,106.1,70.5,106.1,71L106.1,71z"/>
	</g>
</g>
<g>
	<g>
		<path class="st0" d="M25.1,106.5c-2.2-0.8-5.3-0.4-5.8,2.2c-0.8,3.9,5.9,3.3,7.9,3.7c0.3,0.1,0.4-0.3,0.1-0.4
			c-2.3-0.5-4.5,0.1-6.7-1.2c-2.4-1.4-0.3-3.8,1.4-4.2c1-0.2,2.1-0.1,3,0.3C25.2,106.9,25.3,106.6,25.1,106.5L25.1,106.5z"/>
	</g>
</g>
<g>
	<g>
		<g>
			<path class="st0" d="M96,116.9c0.7,2.1,0.3,4.9-2.4,5.2c-2.6,0.3-3.7-3-4.3-5c-0.7-2.4-1.1-5.4,1.2-7c3-2,3.1,3.5,2.2,5
				c-0.1,0.2,0.2,0.4,0.3,0.2c0.9-1.6,1.1-5.7-1.5-5.9c-1.2-0.1-2.3,1-2.8,2c-0.8,1.5-0.4,3.5,0,5.1c0.6,2.5,1.9,6.1,5,6
				c2.9,0,3.4-3.6,2.7-5.7C96.2,116.5,95.9,116.7,96,116.9L96,116.9z"/>
		</g>
	</g>
	<g>
		<g>
			<path class="st0" d="M91,109.7c1.1-0.7,2.2-1.3,3.5-0.4c1,0.7,1.2,2.5,1.3,3.5c0.2,1.4-0.3,2.8,0.2,4.1c0.1,0.3,0.4,0.1,0.4-0.1
				c-0.5-1.3-0.1-2.7-0.2-4c-0.1-1.2-0.4-2.4-1.1-3.4c-1.1-1.6-3.1-0.8-4.3,0C90.6,109.5,90.8,109.9,91,109.7L91,109.7z"/>
		</g>
	</g>
</g>
<g>
	<g>
		<path class="st0" d="M54.1,85.7c-1.9-1.3-3.8-4.9-6.5-3c-2.6,1.9-0.3,5.8,1,7.7c1.3,2,3.6,5.9,6.4,4.2c2.8-1.7-2.1-5.7-3-6.7
			c-0.2-0.2-0.5,0.1-0.3,0.3c1,1.1,6.2,5.5,2.3,6.5c-2.2,0.5-4.2-3.2-5.2-4.8c-1.3-2-3.3-5.7-0.3-7.2c2-1,4,2.4,5.4,3.4
			C54,86.1,54.3,85.8,54.1,85.7L54.1,85.7z"/>
	</g>
</g>
<g>
	<g>
		<path class="st0" d="M56,93.2c2.5-2.8,0.4-5.6-2.1-7.6c-0.2-0.2-0.4,0.2-0.3,0.3c2.3,1.8,4.4,4.4,2,7C55.6,93.1,55.9,93.4,56,93.2
			L56,93.2z"/>
	</g>
</g>
<g>
	<g>
		<path class="st0" d="M42.7,33.9c-2.2-1.2-4.1-2.8-4.7-5.3c-0.5-2,0.5-4,1.9-5.3c1.7-1.6,4.1-2.3,6.3-2.3c1.5,0,2.9,0.3,4.3,0.8
			c1.1,0.3,4,1.3,4,2.9c0,0.5,0.8,0.5,0.8,0c-0.1-2.9-5.3-4.1-7.5-4.4c-2.9-0.3-5.7,0.2-8.1,2c-1.9,1.4-2.9,3.8-2.6,6.1
			c0.4,2.9,2.8,4.9,5.2,6.1C42.7,34.8,43.1,34.1,42.7,33.9L42.7,33.9z"/>
	</g>
</g>
<g>
	<path class="st0" d="M49.2,28.4c0.3-1.2-0.4-2.4-1.8-2.8c-1.3-0.4-2.7,0.2-3.1,1.4c-0.3,1.2,0.4,2.4,1.8,2.8
		C47.5,30.2,48.8,29.6,49.2,28.4z"/>
</g>
<g>
	<g>
		<path class="st0" d="M62.1,22.1c0.4-2.9,1.7-6.3,4.2-7.9c1.5-1,3.6-0.7,5.1,0.2c1.9,1.2,2.1,3.8,1.3,5.7c-0.2,0.5,0.6,0.7,0.8,0.2
			c1.5-3.8-1.1-8.2-5.5-7.5c-4.1,0.6-6.1,5.4-6.7,9C61.3,22.4,62.1,22.6,62.1,22.1L62.1,22.1z"/>
		<path class="st0" d="M61.8,22.5C61.8,22.5,61.8,22.5,61.8,22.5c-0.3,0-0.6-0.3-0.6-0.6c0.6-3.8,2.6-8.5,6.7-9.1
			c1.9-0.3,3.6,0.4,4.8,1.8c1.3,1.6,1.6,3.8,0.8,5.8c-0.1,0.3-0.4,0.4-0.7,0.3c-0.2-0.1-0.3-0.3-0.2-0.5c0.8-1.9,0.6-4.5-1.3-5.6
			c-1.6-1-3.6-1.1-5-0.2c-1,0.6-3.4,2.7-4.2,7.9C62.2,22.3,62,22.5,61.8,22.5z M68.8,12.9c-0.3,0-0.6,0-0.8,0.1c-4,0.6-6,5.2-6.6,9
			c0,0.2,0.2,0.4,0.4,0.4c0.1,0,0.2,0,0.3-0.2l0,0c0.2-1.1,0.5-2.8,1.3-4.4c0.8-1.6,1.7-2.8,2.9-3.5c1.5-0.9,3.5-0.8,5.2,0.2
			c1.9,1.2,2.1,3.8,1.3,5.8c-0.1,0.2,0.1,0.3,0.1,0.3c0.2,0.1,0.4,0,0.5-0.2c0.8-1.9,0.5-4.1-0.7-5.7C71.7,13.5,70.4,12.9,68.8,12.9
			z"/>
	</g>
</g>
<g>
	<path class="st0" d="M79.3,65.2c-8.6,0-15.7-6.8-15.7-15.2s7-15.2,15.7-15.2C88,34.8,95,41.6,95,50S88,65.2,79.3,65.2z M79.3,36
		c-8,0-14.4,6.3-14.4,14s6.5,14,14.4,14s14.4-6.3,14.4-14S87.3,36,79.3,36z"/>
</g>
<g>
	<path class="st0" d="M89.1,47.2c-2.7,0-4.9,2.1-4.9,4.8s2.2,4.8,4.9,4.8c2.7,0,4.9-2.1,4.9-4.8C94,49.4,91.8,47.2,89.1,47.2z
		 M91.1,55.1c-0.8,0-1.4-0.6-1.4-1.3c0-0.8,0.6-1.3,1.4-1.3c0.8,0,1.4,0.6,1.4,1.3C92.5,54.5,91.8,55.1,91.1,55.1z"/>
</g>
<g>
	<g>
		<path class="st0" d="M99.4,54.6c0.2,0,0.3,0,0.5-0.1c0-0.1-0.1-0.3-0.1-0.4c-2.7,0.8-6.3,3-6.4,6.1c-0.1,3.5,4.3,3.9,6.7,3.6
			c1.8-0.2,3.5-0.7,5.2-1.1c1.4-0.3,3.3-0.1,4.7-0.8c3.6-1.9-0.7-5.9-2.5-7.2c-0.2-0.2-0.4,0.2-0.2,0.3c1.2,0.9,2.3,1.9,3.1,3.1
			c0.7,1,0.7,2.5-0.4,3.3c-0.6,0.4-1.5,0.4-2.2,0.5c-2.3,0.2-4.5,0.9-6.7,1.3c-2.7,0.5-7.1,0.6-7.4-3.1c-0.3-2.9,3.9-5.1,6.1-5.7
			c0.3-0.1,0.1-0.4-0.1-0.4c-0.2,0-0.3,0-0.5,0.1C99.1,54.2,99.2,54.6,99.4,54.6L99.4,54.6z"/>
	</g>
</g>
<g>
	<path class="st0" d="M111.1,53c0-1.9-2.8-3.4-6.2-3.4s-6.2,1.5-6.2,3.4s2.8,3.4,6.2,3.4S111.1,54.9,111.1,53z"/>
</g>
<g>
	<g>
		<path class="st0" d="M105.5,62.7c0,2.5,1.2,8.1-1.9,9.3c-2.4,0.9-3.7-1.6-3.9-3.5c-0.2-1.5,0-3.2,0.5-4.7c0.1-0.3-0.3-0.3-0.4-0.1
			c-0.9,3-1.2,9,3.4,8.8c4-0.2,2.8-7.4,2.7-9.8C105.9,62.5,105.5,62.5,105.5,62.7L105.5,62.7z"/>
	</g>
</g>
<g>
	<g>
		<path class="st0" d="M105.5,70.7c4.3,0.9,2.6-6.1,2.6-8.3c0-0.3-0.4-0.3-0.4,0c0,2,1.6,8.8-2.2,7.9
			C105.4,70.3,105.3,70.7,105.5,70.7L105.5,70.7z"/>
	</g>
</g>
<g>
	<path class="st0" d="M115.7,45.5c-2.7,0-4.9,2.1-4.9,4.8s2.2,4.8,4.9,4.8s4.9-2.1,4.9-4.8C120.7,47.6,118.5,45.5,115.7,45.5z
		 M117.7,53.3c-0.8,0-1.4-0.6-1.4-1.3s0.6-1.3,1.4-1.3c0.8,0,1.4,0.6,1.4,1.3C119.1,52.7,118.5,53.3,117.7,53.3z"/>
</g>
<g>
	<g>
		<g>
			<path class="st0" d="M106.2,71.9c-0.8,4.9-2.8,9.5-5.9,13.4c-0.3,0.4,0.3,0.9,0.6,0.6c3.2-4,5.2-8.7,6.1-13.7
				C107.1,71.6,106.3,71.4,106.2,71.9L106.2,71.9z"/>
		</g>
	</g>
</g>
<g>
	<g>
		<g>
			<path class="st0" d="M108.4,51c-0.3-8.1-4-16.1-10.4-21.1c-2.9-2.3-6.3-3.8-9.8-5.1c-4.1-1.6-8.3-3.1-12.6-3.9
				c-4.7-0.8-9.5-0.7-14,1.2c-0.5,0.2-0.1,0.9,0.4,0.7c5.2-2.2,10.9-1.9,16.3-0.5c4.7,1.2,9.5,2.9,13.8,5
				c9.3,4.5,15.1,13.4,15.4,23.7C107.6,51.5,108.4,51.5,108.4,51L108.4,51z"/>
		</g>
	</g>
</g>
<g>
	<g>
		<g>
			<path class="st0" d="M61.9,21.9c-7.7,2.7-14.6,7.2-20.2,13.1c-6.1,6.4-9.9,14-12.4,22.4c-1.3,4.6-2.4,9.3-3.5,13.9
				c-1.1,4.7-2.2,9.4-2.7,14.3c-1,9.1,0.2,18.3,4,26.7c1.5,3.5,3.6,6.7,6.5,9.3c3.1,2.7,7,4.1,10.9,5.2c9.4,2.6,19.3,4.1,29,4
				c9.1-0.1,18.4-1.6,26.8-5.2c7.2-3.1,13.4-8.3,15-16.3c1.7-8.8-2.4-17.3-10-21.9c-8.9-5.3-19.7-4.5-29.6-3.7c-0.5,0-0.5,0.8,0,0.8
				c8.9-0.7,18.3-1.5,26.7,2.3c7.4,3.3,12.5,10,12.6,18.3c0.1,18.8-23,24-37.8,24.8c-9.3,0.5-18.6-0.6-27.7-2.7
				c-4.2-1-8.6-1.9-12.4-4.1c-3.4-1.9-6-4.9-7.9-8.2c-4.3-7.5-6-16.5-5.6-25.1c0.3-9.1,2.9-18,5.1-26.8c2.3-9.3,5.6-18.1,12-25.4
				c5.8-6.7,13.2-11.8,21.6-14.7C62.5,22.5,62.3,21.7,61.9,21.9L61.9,21.9z"/>
		</g>
	</g>
</g>
<g>
	<g>
		<g>
			<path class="st0" d="M116,118c-1.4,1.8-4,2.9-5.6,0.9c-0.1-0.2-0.2-0.3-0.3-0.5c-0.1,0.1-0.2,0.2-0.3,0.3
				c0.1,0.1,0.2,0.3,0.3,0.4c1.6,2.4,4.9,0.9,6.2-0.9C116.5,118,116.2,117.8,116,118z"/>
		</g>
		<g>
			<path class="st0" d="M119.9,110.2c-0.6-1-2.1-1.4-3.2-1.3c-0.6,0.1-1.2,0.3-1.7,0.6c0,0.2-0.1,0.4-0.2,0.6c0,0,0,0,0,0.1
				c1.2-0.8,2.5-1.1,4-0.5c3.3,1.4-1.2,4.5-2.9,4.6c-0.3,0-0.2,0.4,0.1,0.4C117.7,114.6,121.2,112.6,119.9,110.2z"/>
		</g>
	</g>
	<g>
		<g>
			<path class="st0" d="M119.3,109.9c1.2,0.5,2.3,1.2,2.3,2.7c0,1.2-1.4,2.4-2.2,3.1c-1.1,0.9-2.5,1.3-3.4,2.4
				c-0.2,0.2,0.2,0.4,0.3,0.2c0.8-1.1,2.2-1.6,3.3-2.4c1-0.7,1.8-1.7,2.3-2.8c0.8-1.8-1-3-2.4-3.6
				C119.3,109.4,119.1,109.8,119.3,109.9L119.3,109.9z"/>
		</g>
	</g>
</g>
<g>
	<g>
		<path class="st0" d="M105.7,36.2c-0.9,0-1.8,0.1-2.7,0.3c0.1,0.1,0.2,0.3,0.3,0.4c0.8-0.1,1.6-0.2,2.4-0.2
			c8.2,0,14.8,6.4,14.8,14.4c0,7.1-5.3,13-12.2,14.1v0.5c7.2-1.2,12.7-7.3,12.7-14.6C121,42.8,114.2,36.2,105.7,36.2z"/>
		<path class="st0" d="M107.9,66.2v-1.4l0.4-0.1c6.9-1.2,11.8-6.9,11.8-13.7c0-7.7-6.4-13.9-14.3-13.9c-0.8,0-1.6,0.1-2.4,0.2
			l-0.4,0.1l-0.1-0.4c0-0.1-0.1-0.2-0.2-0.3l-0.6-0.6L103,36c1-0.2,1.9-0.3,2.8-0.3c8.7,0,15.7,6.9,15.8,15.3
			c0,7.5-5.5,13.8-13.1,15.1L107.9,66.2z"/>
	</g>
</g>
<g>
	<g>
		<path class="st0" d="M114.7,78.4c-0.4-3.2-6.1-0.4-7.4,0.1c-0.3,0.1-0.2,0.5,0.1,0.4c1.4-0.5,7.6-3.5,6.8,0.6
			c-0.4,2.3-4.7,2.5-6.5,2.8c-1.3,0.2-3,0.4-4.4,0c0,0.1-0.1,0.1-0.1,0.2c0,0.1-0.1,0.1-0.1,0.2c1.7,0.4,3.8,0.2,5.1-0.1
			C110.6,82.1,115.1,81.7,114.7,78.4z"/>
	</g>
</g>
<g>
	<g>
		<path class="st0" d="M113.8,76.8c-1.5-3.5-5-2.6-7.7-1.2l0,0c0,0.1,0,0.2,0,0.3c0.1,0.1,0.2,0.1,0.3,0.1c2.5-1.3,5.8-2.3,7.2,1
			C113.6,77.2,113.9,77,113.8,76.8z"/>
	</g>
</g>
<g>
	<g>
		<g>
			<path class="st0" d="M73.3,74.3c4.7,1.5,9.8,1.4,14.4-0.2c0.5-0.2,0.3-0.9-0.2-0.8c-4.6,1.6-9.4,1.7-14,0.2
				C73.1,73.4,72.8,74.1,73.3,74.3L73.3,74.3z"/>
		</g>
	</g>
</g>
<g>
	<g>
		<g>
			<path class="st0" d="M58.2,57c1.1,3.5,2.5,6.8,4.7,9.8c0.3,0.4,1,0,0.7-0.4c-2.2-2.9-3.6-6.1-4.6-9.6
				C58.8,56.3,58.1,56.5,58.2,57L58.2,57z"/>
		</g>
	</g>
</g>
<g>
	<g>
		<g>
			<path class="st0" d="M57.9,40.5c-1.2,3.1-1.4,6.3-1.1,9.6c0,0.5,0.8,0.5,0.8,0c-0.3-3.2-0.1-6.3,1.1-9.3
				C58.8,40.2,58.1,40,57.9,40.5L57.9,40.5z"/>
		</g>
	</g>
</g>
<g>
	<g>
		<g>
			<path class="st0" d="M102.6,34.5c-6.2-2.9-13-4.5-19.8-4.6c-6.7-0.1-14.2,1-19.9,4.6c-0.4,0.3,0,0.9,0.4,0.7
				c5.6-3.5,13-4.5,19.5-4.5c6.7,0.1,13.4,1.6,19.4,4.5C102.7,35.3,103.1,34.7,102.6,34.5L102.6,34.5z"/>
		</g>
	</g>
</g>
<g>
	<g>
		<g>
			<path class="st0" d="M108,67.3c0.6,0.8,1.6,0.8,2.4,0.3c1-0.6,1.1-1.9,1.2-3c0-0.5-0.8-0.5-0.8,0c0,0.7-0.1,1.5-0.6,2.1
				c-0.3,0.4-1.1,0.7-1.5,0.2C108.4,66.5,107.7,66.9,108,67.3L108,67.3z"/>
		</g>
	</g>
</g>
<g>
	<g>
		<g>
			<path class="st0" d="M101.9,34.8c1.7-0.8,4.5-1.1,5,1.3c0.1,0.5,0.9,0.3,0.8-0.2c-0.7-2.9-4-2.8-6.2-1.7
				C101.1,34.4,101.5,35.1,101.9,34.8L101.9,34.8z"/>
		</g>
	</g>
</g>
<g>
	<g>
		<g>
			<path class="st0" d="M87.3,73.9c3.8-2.4,4.7-6,5.4-10.1c0.9-4.7,3.6-8.6,8.6-9.5c0.5-0.1,0.3-0.8-0.2-0.8
				c-3.6,0.7-6.8,3.2-8.2,6.6c-0.9,2.1-1,4.5-1.5,6.7c-0.7,2.7-2.1,4.9-4.5,6.4C86.4,73.5,86.9,74.2,87.3,73.9L87.3,73.9z"/>
		</g>
	</g>
</g>
<g>
	<path class="st0" d="M72,83l-6.5-3.7l-6.8,3.2l1.6-7.4l-5.2-5.5l7.5-0.8l3.6-6.6l3,6.9l7.4,1.4l-5.6,5L72,83z M65.6,78.5l5.7,3.3
		l-0.8-6.5l4.9-4.4l-6.5-1.2l-2.7-6L63,69.5l-6.5,0.7l4.5,4.8l-1.4,6.4L65.6,78.5z"/>
</g>
<g>
	<path class="st0" d="M54.6,61.1l-1.2-4.9l-4.7-1.8l4.3-2.6l0.3-5l3.8,3.3l4.8-1.3l-1.9,4.6l2.7,4.2l-5-0.4L54.6,61.1z M50.2,54.3
		l3.8,1.5l1,4l2.6-3.2l4.1,0.3l-2.2-3.4l1.5-3.7l-3.9,1l-3.1-2.6l-0.2,4L50.2,54.3z"/>
</g>
<g>
	<path class="st0" d="M62.7,43.7l-3.4-3.1l-4.5,1.1l1.9-4.2l-2.4-3.9l4.6,0.5l3-3.5l1,4.5l4.3,1.7l-4,2.3L62.7,43.7z M59.4,39.9
		l2.7,2.4l0.3-3.6l3.2-1.9l-3.4-1.4l-0.8-3.6l-2.4,2.8l-3.7-0.4l1.9,3.1l-1.5,3.4L59.4,39.9z"/>
</g>
<g>
	<path class="st0" d="M100.2,50.2l-0.3-3.3l-2.9-1.7l3.1-1.2l0.7-3.3l2.2,2.6l3.3-0.3l-1.8,2.8l1.4,3l-3.2-0.8L100.2,50.2z
		 M98.5,45.3l2,1.2l0.2,2.4l1.8-1.6l2.3,0.6l-1-2.2l1.3-2l-2.4,0.2l-1.5-1.8l-0.5,2.3L98.5,45.3z"/>
</g>
<g>
	<g>
		<g>
			<path class="st0" d="M86.9,75.6c0.1,0,0.1,0,0.2,0c0.4,0,0.8-0.2,1.1-0.5s0.5-0.7,0.5-1.1c0-0.4-0.2-0.8-0.5-1.1
				s-0.7-0.5-1.1-0.5c-0.1,0-0.1,0-0.2,0c-0.4,0-0.8,0.2-1.1,0.5s-0.5,0.7-0.5,1.1c0,0.4,0.2,0.8,0.5,1.1
				C86.1,75.4,86.4,75.6,86.9,75.6L86.9,75.6z"/>
		</g>
	</g>
</g>
<g>
	<g>
		<g>
			<path class="st0" d="M90.5,72c0.1-0.1,0.1-0.1,0.2-0.2c0.3-0.3,0.5-0.7,0.5-1.1c0-0.4-0.2-0.8-0.5-1.1c-0.3-0.3-0.7-0.5-1.1-0.5
				c-0.4,0-0.8,0.2-1.1,0.5c-0.1,0.1-0.1,0.1-0.2,0.2c-0.3,0.3-0.5,0.7-0.5,1.1c0,0.4,0.2,0.8,0.5,1.1c0.3,0.3,0.7,0.5,1.1,0.5
				C89.8,72.5,90.2,72.3,90.5,72L90.5,72z"/>
		</g>
	</g>
</g>
<g>
	<g>
		<g>
			<path class="st0" d="M92.2,67.8c0.1-0.1,0.1-0.1,0.2-0.2c0.3-0.3,0.5-0.7,0.5-1.1c0-0.4-0.2-0.8-0.5-1.1
				c-0.3-0.3-0.7-0.5-1.1-0.5c-0.4,0-0.8,0.2-1.1,0.5c-0.1,0.1-0.1,0.1-0.2,0.2c-0.3,0.3-0.5,0.7-0.5,1.1c0,0.4,0.2,0.8,0.5,1.1
				c0.3,0.3,0.7,0.5,1.1,0.5C91.5,68.3,91.9,68.1,92.2,67.8L92.2,67.8z"/>
		</g>
	</g>
</g>
<g>
	<g>
		<g>
			<path class="st0" d="M92.3,64.1c2,0,2-3.1,0-3.1C90.3,61,90.3,64.1,92.3,64.1L92.3,64.1z"/>
		</g>
	</g>
</g>
<g>
	<g>
		<g>
			<path class="st0" d="M92.2,59c0,0.1,0,0.1,0,0.2c0,0.4,0.2,0.8,0.5,1.1s0.7,0.5,1.1,0.5c0.4,0,0.8-0.2,1.1-0.5
				c0.3-0.3,0.5-0.7,0.5-1.1c0-0.1,0-0.1,0-0.2c0-0.4-0.2-0.8-0.5-1.1s-0.7-0.5-1.1-0.5c-0.4,0-0.8,0.2-1.1,0.5
				C92.4,58.2,92.2,58.6,92.2,59L92.2,59z"/>
		</g>
	</g>
</g>
<g>
	<g>
		<g>
			<path class="st0" d="M96.1,57.6c2,0,2-3.1,0-3.1C94.1,54.5,94,57.6,96.1,57.6L96.1,57.6z"/>
		</g>
	</g>
</g>
<g>
	<g>
		<g>
			<path class="st0" d="M98.8,56c0.1,0,0.1,0,0.2,0c0.4,0,0.8-0.2,1.1-0.5s0.5-0.7,0.5-1.1c0-0.4-0.2-0.8-0.5-1.1s-0.7-0.5-1.1-0.5
				c-0.1,0-0.1,0-0.2,0c-0.4,0-0.8,0.2-1.1,0.5s-0.5,0.7-0.5,1.1c0,0.4,0.2,0.8,0.5,1.1C98,55.8,98.4,56,98.8,56L98.8,56z"/>
		</g>
	</g>
</g>
<g>
	<g>
		<g>
			<path class="st0" d="M81,76.2c0.1,0.1,0.1,0.1,0.2,0.2c0.3,0.3,0.7,0.5,1.1,0.5c0.4,0,0.8-0.2,1.1-0.5c0.3-0.3,0.5-0.7,0.5-1.1
				c0-0.4-0.2-0.8-0.5-1.1c-0.1-0.1-0.1-0.1-0.2-0.2c-0.3-0.3-0.7-0.5-1.1-0.5c-0.4,0-0.8,0.2-1.1,0.5c-0.3,0.3-0.5,0.7-0.5,1.1
				C80.5,75.5,80.7,75.9,81,76.2L81,76.2z"/>
		</g>
	</g>
</g>
<g>
	<g>
		<g>
			<path class="st0" d="M77.7,76.4c2,0,2-3.1,0-3.1C75.7,73.3,75.7,76.4,77.7,76.4L77.7,76.4z"/>
		</g>
	</g>
</g>
<g>
	<g>
		<g>
			<path class="st0" d="M73.7,76c2,0,2-3.1,0-3.1S71.7,76,73.7,76L73.7,76z"/>
		</g>
	</g>
</g>
<g>
	<g>
		<g>
			<path class="st0" d="M62.4,67.9c2,0,2-3.1,0-3.1C60.4,64.7,60.4,67.9,62.4,67.9L62.4,67.9z"/>
		</g>
	</g>
</g>
<g>
	<g>
		<g>
			<path class="st0" d="M59.7,64.1c0.1,0,0.1,0,0.2,0c0.4,0,0.8-0.2,1.1-0.5s0.5-0.7,0.5-1.1c0-0.4-0.2-0.8-0.5-1.1
				c-0.3-0.3-0.7-0.5-1.1-0.5c-0.1,0-0.1,0-0.2,0c-0.4,0-0.8,0.2-1.1,0.5c-0.3,0.3-0.5,0.7-0.5,1.1c0,0.4,0.2,0.8,0.5,1.1
				C58.9,63.9,59.3,64.1,59.7,64.1L59.7,64.1z"/>
		</g>
	</g>
</g>
<g>
	<g>
		<g>
			<path class="st0" d="M58.7,60.1c2,0,2-3.1,0-3.1S56.6,60.1,58.7,60.1L58.7,60.1z"/>
		</g>
	</g>
</g>
<g>
	<g>
		<g>
			<path class="st0" d="M56.6,49.7c2,0,2-3.1,0-3.1C54.5,46.5,54.5,49.7,56.6,49.7L56.6,49.7z"/>
		</g>
	</g>
</g>
<g>
	<g>
		<g>
			<path class="st0" d="M55.5,44.4c0.1,0.1,0.1,0.1,0.2,0.2c0.3,0.3,0.7,0.5,1.1,0.5c0.4,0,0.8-0.2,1.1-0.5c0.3-0.3,0.5-0.7,0.5-1.1
				c0-0.4-0.2-0.8-0.5-1.1c-0.1-0.1-0.1-0.1-0.2-0.2c-0.3-0.3-0.7-0.5-1.1-0.5s-0.8,0.2-1.1,0.5c-0.3,0.3-0.5,0.7-0.5,1.1
				C55,43.7,55.2,44.1,55.5,44.4L55.5,44.4z"/>
		</g>
	</g>
</g>
<g>
	<g>
		<g>
			<path class="st0" d="M64.5,35.3c2,0,2-3.1,0-3.1C62.5,32.1,62.5,35.3,64.5,35.3L64.5,35.3z"/>
		</g>
	</g>
</g>
<g>
	<g>
		<g>
			<path class="st0" d="M68.1,33.8c2,0,2-3.1,0-3.1C66.1,30.7,66.1,33.8,68.1,33.8L68.1,33.8z"/>
		</g>
	</g>
</g>
<g>
	<g>
		<g>
			<path class="st0" d="M70.5,31c0,0.1,0,0.1,0,0.2c0,0.4,0.2,0.8,0.5,1.1s0.7,0.5,1.1,0.5c0.4,0,0.8-0.2,1.1-0.5
				c0.3-0.3,0.5-0.7,0.5-1.1c0-0.1,0-0.1,0-0.2c0-0.4-0.2-0.8-0.5-1.1s-0.7-0.5-1.1-0.5c-0.4,0-0.8,0.2-1.1,0.5
				C70.6,30.2,70.5,30.5,70.5,31L70.5,31z"/>
		</g>
	</g>
</g>
<g>
	<g>
		<g>
			<path class="st0" d="M74.9,31.2c0.1,0.1,0.1,0.1,0.2,0.2c0.3,0.3,0.7,0.5,1.1,0.5c0.4,0,0.8-0.2,1.1-0.5c0.3-0.3,0.5-0.7,0.5-1.1
				c0-0.4-0.2-0.8-0.5-1.1c-0.1-0.1-0.1-0.1-0.2-0.2c-0.3-0.3-0.7-0.5-1.1-0.5c-0.4,0-0.8,0.2-1.1,0.5c-0.3,0.3-0.5,0.7-0.5,1.1
				C74.5,30.5,74.6,31,74.9,31.2L74.9,31.2z"/>
		</g>
	</g>
</g>
<g>
	<g>
		<g>
			<path class="st0" d="M78.7,31.2c0.1,0.1,0.1,0.1,0.2,0.2c0.3,0.3,0.7,0.5,1.1,0.5c0.4,0,0.8-0.2,1.1-0.5c0.3-0.3,0.5-0.7,0.5-1.1
				c0-0.4-0.2-0.8-0.5-1.1C81,29.2,81,29.1,80.9,29c-0.3-0.3-0.7-0.5-1.1-0.5s-0.8,0.2-1.1,0.5c-0.3,0.3-0.5,0.7-0.5,1.1
				C78.2,30.5,78.4,31,78.7,31.2L78.7,31.2z"/>
		</g>
	</g>
</g>
<g>
	<g>
		<g>
			<path class="st0" d="M83.8,32.1c2,0,2-3.1,0-3.1C81.7,29,81.7,32.1,83.8,32.1L83.8,32.1z"/>
		</g>
	</g>
</g>
<g>
	<g>
		<g>
			<path class="st0" d="M87.7,29.2c-0.4,0-0.8,0.2-1.2,0.5c-0.3,0.3-0.5,0.8-0.5,1.2s0.2,0.9,0.5,1.2s0.8,0.5,1.2,0.5
				c0.4,0,0.8-0.2,1.1-0.5c0.3-0.3,0.5-0.7,0.5-1.1c0-0.4-0.2-0.8-0.5-1.1c-0.3-0.3-0.7-0.5-1.1-0.5c0,0,0,0,0,0
				c0.1,0,0.3,0,0.4,0.1c0,0,0,0,0,0c0.2,0.1,0.5,0.3,0.7,0.4l0,0c0.1,0.1,0.2,0.2,0.3,0.3c0,0,0,0,0,0c0.1,0.1,0.1,0.3,0.2,0.4
				c0,0,0,0,0,0c0,0.1,0,0.3,0.1,0.4c0,0,0,0,0-0.1c0,0.1,0,0.3-0.1,0.4c0,0,0,0,0,0c-0.1,0.1-0.1,0.3-0.2,0.4c0,0,0,0,0,0
				c-0.1,0.1-0.2,0.2-0.3,0.3l0,0c-0.1,0.1-0.2,0.2-0.3,0.3c0,0,0,0,0,0c-0.3,0.1-0.5,0.2-0.8,0.2c0,0,0,0,0,0
				c0.4,0,0.8-0.2,1.1-0.5c0.3-0.3,0.5-0.7,0.5-1.1c0-0.4-0.2-0.8-0.5-1.1C88.5,29.4,88.1,29.2,87.7,29.2L87.7,29.2z"/>
		</g>
	</g>
</g>
<g>
	<g>
		<g>
			<path class="st0" d="M91.1,32.7c0.1,0,0.1,0,0.2,0c0.4,0,0.8-0.2,1.1-0.5s0.5-0.7,0.5-1.1c0-0.4-0.2-0.8-0.5-1.1
				s-0.7-0.5-1.1-0.5c-0.1,0-0.1,0-0.2,0c-0.4,0-0.8,0.2-1.1,0.5c-0.3,0.3-0.5,0.7-0.5,1.1c0,0.4,0.2,0.8,0.5,1.1
				C90.2,32.6,90.6,32.7,91.1,32.7L91.1,32.7z"/>
		</g>
	</g>
</g>
<g>
	<g>
		<g>
			<path class="st0" d="M95,33.4c0.1,0,0.1,0,0.2,0c0.4,0,0.8-0.2,1.1-0.5s0.5-0.7,0.5-1.1c0-0.4-0.2-0.8-0.5-1.1
				c-0.3-0.3-0.7-0.5-1.1-0.5c-0.1,0-0.1,0-0.2,0c-0.4,0-0.8,0.2-1.1,0.5c-0.3,0.3-0.5,0.7-0.5,1.1c0,0.4,0.2,0.8,0.5,1.1
				C94.2,33.2,94.6,33.4,95,33.4L95,33.4z"/>
		</g>
	</g>
</g>
<g>
	<g>
		<g>
			<path class="st0" d="M99,35.1c2,0,2-3.1,0-3.1C97,31.9,97,35.1,99,35.1L99,35.1z"/>
		</g>
	</g>
</g>
<g>
	<g>
		<g>
			<path class="st0" d="M101,33.9c0,0.1,0,0.1,0,0.2c0,0.4,0.2,0.8,0.5,1.1s0.7,0.5,1.1,0.5c0.4,0,0.8-0.2,1.1-0.5
				c0.3-0.3,0.5-0.7,0.5-1.1c0-0.1,0-0.1,0-0.2c0-0.4-0.2-0.8-0.5-1.1s-0.7-0.5-1.1-0.5c-0.4,0-0.8,0.2-1.1,0.5
				C101.2,33.1,101,33.5,101,33.9L101,33.9z"/>
		</g>
	</g>
</g>
<g>
	<g>
		<g>
			<path class="st0" d="M105.7,36.3c2,0,2-3.1,0-3.1C103.7,33.2,103.7,36.3,105.7,36.3L105.7,36.3z"/>
		</g>
	</g>
</g>
<g>
	<g>
		<g>
			<path class="st0" d="M110.1,69.1c0,0,0.1,0,0.1,0c2,0,2-3.1,0-3.1c0,0-0.1,0-0.1,0C108.1,66,108.1,69.1,110.1,69.1
				c0,0,0.1,0,0.1,0c2,0,2-3.1,0-3.1c0,0-0.1,0-0.1,0C108.1,66,108.1,69.1,110.1,69.1L110.1,69.1z"/>
		</g>
	</g>
</g>
<g>
	<g>
		<g>
			<path class="st0" d="M65.3,74.8c2,0,2-3.1,0-3.1C63.3,71.6,63.3,74.8,65.3,74.8L65.3,74.8z"/>
		</g>
	</g>
</g>
<g>
	<g>
		<g>
			<path class="st0" d="M54.4,54.9c0,0,0.1,0.1,0.1,0.1c1.4,1.4,3.6-0.8,2.2-2.2c0,0-0.1-0.1-0.1-0.1C55.2,51.2,53,53.5,54.4,54.9
				c0,0,0.1,0.1,0.1,0.1c1.4,1.4,3.6-0.8,2.2-2.2c0,0-0.1-0.1-0.1-0.1C55.2,51.2,53,53.5,54.4,54.9L54.4,54.9z"/>
		</g>
	</g>
</g>
<g>
	<g>
		<g>
			<path class="st0" d="M59.9,38.6c2,0,2-3.1,0-3.1S57.9,38.6,59.9,38.6L59.9,38.6z"/>
		</g>
	</g>
</g>
<g>
	<g>
		<g>
			<path class="st0" d="M101.9,47.2c0.1,0,0.1,0,0.2,0c0.4,0,0.8-0.2,1.1-0.5s0.5-0.7,0.5-1.1c0-0.4-0.2-0.8-0.5-1.1
				s-0.7-0.5-1.1-0.5c-0.1,0-0.1,0-0.2,0c-0.4,0-0.8,0.2-1.1,0.5s-0.5,0.7-0.5,1.1c0,0.4,0.2,0.8,0.5,1.1
				C101.1,47,101.5,47.2,101.9,47.2L101.9,47.2z"/>
		</g>
	</g>
</g>
<g>
	<g>
		<g>
			<path class="st0" d="M64.7,69.1c0.4-1,0.8-1.9,1.2-2.9c-0.1,0-0.3,0-0.4,0c0.3,0.9,0.5,1.8,0.8,2.7c0.1,0.3,0.4,0.1,0.4-0.1
				c-0.3-0.9-0.5-1.8-0.8-2.7c-0.1-0.2-0.3-0.2-0.4,0c-0.4,1-0.8,1.9-1.2,2.9C64.2,69.3,64.6,69.4,64.7,69.1L64.7,69.1z"/>
		</g>
	</g>
</g>
<g>
	<g>
		<g>
			<path class="st0" d="M69.3,71.4c1,0,1.9,0,2.8,0.2c0-0.1-0.1-0.2-0.1-0.3c-0.6,0.5-1.2,1-1.8,1.5c-0.2,0.2,0.1,0.4,0.3,0.3
				c0.6-0.5,1.2-1,1.8-1.5c0.1-0.1,0.1-0.3-0.1-0.3c-1-0.2-1.9-0.3-2.9-0.2C69.1,71,69.1,71.4,69.3,71.4L69.3,71.4z"/>
		</g>
	</g>
</g>
<g>
	<g>
		<g>
			<path class="st0" d="M67.6,78.3c0.5,0.4,1.1,0.7,1.7,0.8c0.2,0,0.3-0.1,0.3-0.3C69.3,77.9,69.1,77,69,76
				c-0.1-0.3-0.4-0.2-0.4,0.1c0.2,0.9,0.4,1.9,0.5,2.8c0.1-0.1,0.2-0.2,0.3-0.3c-0.6-0.1-1.1-0.3-1.5-0.7
				C67.6,77.9,67.4,78.1,67.6,78.3L67.6,78.3z"/>
		</g>
	</g>
</g>
<g>
	<g>
		<g>
			<path class="st0" d="M62.1,76.8c-0.4,0.5-0.7,1.1-0.8,1.8c0,0.1,0.1,0.3,0.2,0.3c0.7,0,1.3-0.2,1.9-0.5c0.2-0.1,0-0.5-0.2-0.3
				c-0.5,0.3-1.1,0.4-1.7,0.4c0.1,0.1,0.1,0.2,0.2,0.3c0.1-0.6,0.3-1.2,0.7-1.6C62.5,76.9,62.2,76.6,62.1,76.8L62.1,76.8z"/>
		</g>
	</g>
</g>
<g>
	<g>
		<g>
			<path class="st0" d="M61.2,73c-0.5-0.7-1.1-1.3-1.8-1.9c-0.1,0.1-0.1,0.2-0.2,0.3c1,0.3,2,0.3,3-0.1c0.2-0.1,0.1-0.5-0.1-0.4
				c-0.9,0.3-1.9,0.4-2.8,0.1c-0.2-0.1-0.3,0.2-0.2,0.3c0.7,0.5,1.2,1.1,1.7,1.8C61,73.4,61.4,73.2,61.2,73L61.2,73z"/>
		</g>
	</g>
</g>
<g>
	<g>
		<g>
			<path class="st0" d="M54.8,51.1c-0.1-0.5-0.1-1.1-0.2-1.6c-0.1,0.1-0.2,0.1-0.3,0.2c0.5,0.3,0.8,0.7,0.8,1.2c0,0.3,0.4,0.3,0.4,0
				c0-0.7-0.4-1.3-1-1.6c-0.1-0.1-0.3,0-0.3,0.2c0.1,0.5,0.1,1.1,0.2,1.6C54.5,51.3,54.8,51.3,54.8,51.1L54.8,51.1z"/>
		</g>
	</g>
</g>
<g>
	<g>
		<g>
			<path class="st0" d="M57.5,51.7c0.5-0.2,1.1-0.4,1.6-0.6c-0.1-0.1-0.2-0.2-0.3-0.3c-0.1,0.4-0.4,0.7-0.8,0.8
				c-0.3,0.1-0.1,0.5,0.1,0.4c0.5-0.2,0.9-0.5,1.1-1.1c0.1-0.1-0.1-0.3-0.3-0.3c-0.5,0.2-1.1,0.4-1.6,0.6
				C57.1,51.3,57.2,51.7,57.5,51.7L57.5,51.7z"/>
		</g>
	</g>
</g>
<g>
	<g>
		<g>
			<path class="st0" d="M58.9,54.6c0.2,0.5,0.5,0.8,0.9,1c0-0.1,0.1-0.3,0.1-0.4C59.3,55,58.7,55,58,55.1c-0.3,0-0.2,0.4,0.1,0.4
				c0.6-0.1,1.2,0,1.7,0.2c0.3,0.1,0.3-0.3,0.1-0.4c-0.3-0.1-0.6-0.4-0.7-0.7C59.2,54.3,58.8,54.4,58.9,54.6L58.9,54.6z"/>
		</g>
	</g>
</g>
<g>
	<g>
		<g>
			<path class="st0" d="M55,56.3c0,0.5,0,0.9,0.1,1.4c0,0.2,0.3,0.3,0.4,0.1c0.3-0.4,0.6-0.8,1-1.1c0.2-0.2-0.1-0.4-0.3-0.3
				c-0.4,0.3-0.8,0.8-1.1,1.2c0.1,0,0.3,0.1,0.4,0.1c0-0.5,0-0.9-0.1-1.4C55.4,56,55,56,55,56.3L55,56.3z"/>
		</g>
	</g>
</g>
<g>
	<g>
		<g>
			<path class="st0" d="M52.7,53.2c-0.2,0.3-0.5,0.4-0.8,0.4c-0.2,0-0.3,0.3-0.1,0.4c0.4,0.2,0.8,0.4,1.2,0.6
				c0.2,0.1,0.4-0.2,0.2-0.3c-0.4-0.2-0.8-0.4-1.2-0.6c0,0.1-0.1,0.3-0.1,0.4c0.4,0,0.8-0.2,1.1-0.5C53.1,53.3,52.8,53,52.7,53.2
				L52.7,53.2z"/>
		</g>
	</g>
</g>
<g>
	<g>
		<g>
			<path class="st0" d="M57.2,38.7c0,0.3-0.1,0.5-0.3,0.7c-0.2,0.1,0,0.4,0.2,0.3c0.4-0.1,0.8-0.3,1.2-0.3c0.3-0.1,0.1-0.4-0.1-0.4
				c-0.4,0.1-0.8,0.3-1.2,0.3c0.1,0.1,0.1,0.2,0.2,0.3c0.3-0.3,0.4-0.6,0.4-0.9C57.6,38.5,57.2,38.5,57.2,38.7L57.2,38.7z"/>
		</g>
	</g>
</g>
<g>
	<g>
		<g>
			<path class="st0" d="M60.2,39.6c0.2,0.3,0.4,0.7,0.6,1c0.1,0.2,0.4,0.1,0.4-0.1c0-0.6,0-1.2,0-1.8c0-0.3-0.4-0.3-0.4,0
				c0,0.6,0,1.2,0,1.8c0.1,0,0.3-0.1,0.4-0.1c-0.2-0.3-0.4-0.7-0.6-1C60.4,39.2,60,39.4,60.2,39.6L60.2,39.6z"/>
		</g>
	</g>
</g>
<g>
	<g>
		<g>
			<path class="st0" d="M62.4,36.8c0.4,0.1,0.9,0.2,1.3,0.3c0-0.1-0.1-0.2-0.1-0.3c-0.2,0.2-0.8,0.6-0.9,0.2c-0.1-0.2-0.4,0-0.3,0.2
				c0.3,0.7,1.2,0.2,1.6-0.2c0.1-0.1,0.1-0.3-0.1-0.3c-0.4-0.1-0.9-0.2-1.3-0.3C62.2,36.3,62.1,36.7,62.4,36.8L62.4,36.8z"/>
		</g>
	</g>
</g>
<g>
	<g>
		<g>
			<path class="st0" d="M60.3,34.7c0.3-0.3,0.5-0.5,0.8-0.8c-0.1,0-0.2,0-0.3,0c0.1,0.3,0,0.6-0.3,0.8c-0.2,0.1,0,0.5,0.2,0.3
				c0.5-0.3,0.6-0.8,0.4-1.3c-0.1-0.1-0.2-0.1-0.3,0c-0.3,0.3-0.5,0.5-0.8,0.8C59.8,34.6,60.1,34.8,60.3,34.7L60.3,34.7z"/>
		</g>
	</g>
</g>
<g>
	<g>
		<g>
			<path class="st0" d="M57.5,36.3c-0.1-0.3-0.2-0.7-0.3-1c-0.1,0.1-0.1,0.2-0.2,0.3c0.4,0,0.8,0.1,1.2,0.2c0.3,0.1,0.3-0.3,0.1-0.4
				c-0.4-0.2-0.8-0.2-1.3-0.2c-0.1,0-0.2,0.1-0.2,0.3c0.1,0.3,0.2,0.7,0.3,1C57.2,36.7,57.6,36.6,57.5,36.3L57.5,36.3z"/>
		</g>
	</g>
</g>
<g>
	<g>
		<g>
			<path class="st0" d="M63.2,65.7c0.1-0.7,0.3-1.4,0.6-2c0.3-0.5,0.6-0.8,1.1-0.9c0.3-0.1,0.8,0,1.1-0.2c1-0.5,0.9-2.3,2.1-2.4
				c0.3,0,0.3-0.4,0-0.4c-0.5,0-0.8,0.2-1.1,0.6c-0.3,0.3-0.3,0.7-0.5,1c-0.4,0.7-1.2,0.8-1.9,1c-1.3,0.4-1.7,2-1.9,3.2
				C62.7,65.9,63.1,66,63.2,65.7L63.2,65.7z"/>
		</g>
	</g>
</g>
<g>
	<g>
		<g>
			<path class="st0" d="M60.2,62.9c0.4-0.6,0.9-1.3,1.7-1.5c0.5-0.2,0.9-0.1,1.4-0.3c1.1-0.6,1.6-2.5,3.1-2.2c0.3,0,0.3-0.3,0.1-0.4
				c-1.6-0.3-2.1,1.3-3.2,2.1c-0.7,0.4-1.5,0.3-2.1,0.7c-0.5,0.3-0.9,0.9-1.2,1.4C59.7,62.9,60,63.1,60.2,62.9L60.2,62.9z"/>
		</g>
	</g>
</g>
<g>
	<g>
		<g>
			<path class="st0" d="M59.7,58.6c0.2-0.5,1-0.5,1.4-0.4c0.2,0.1,0.5,0.2,0.7,0.2c0.3,0.1,0.7,0.1,1,0c0.8-0.3,1.3-2.2,2.2-1.7
				c0.2,0.1,0.4-0.2,0.2-0.3c-0.4-0.2-0.8-0.2-1.2,0.1c-0.2,0.1-0.3,0.3-0.5,0.5c-0.4,0.6-0.4,0.8-1.2,1c-0.7,0.1-0.9-0.1-1.6-0.1
				c-0.2,0-0.4,0-0.6,0c-0.4,0.1-0.7,0.3-0.8,0.7C59.2,58.8,59.6,58.9,59.7,58.6L59.7,58.6z"/>
		</g>
	</g>
</g>
<g>
	<g>
		<g>
			<path class="st0" d="M60.2,53.8c0.2-0.6,0.8-1,1.4-0.9c0.4,0.1,0.8,0.4,1.2,0.4c0.6,0.1,1-0.3,1.2-0.8c0.1-0.2-0.3-0.4-0.3-0.2
				c-0.5,1.1-1.8-0.1-2.7,0.2c-0.6,0.2-1,0.6-1.2,1.2C59.8,54,60.1,54.1,60.2,53.8L60.2,53.8z"/>
		</g>
	</g>
</g>
<g>
	<g>
		<g>
			<path class="st0" d="M57.8,48.5c0.6-0.5,1.4-0.8,2.2-0.6c0.4,0.1,0.7,0.4,1.1,0.5c0.5,0.2,1.9-0.2,2.2,0.2c0.1,0.2,0.5,0,0.3-0.2
				c-0.2-0.3-0.4-0.5-0.8-0.5c-0.4,0-0.3,0.1-0.7,0.1c-1.1,0.1-1-0.1-1.7-0.4c-1-0.4-2.1-0.1-2.9,0.6C57.3,48.4,57.6,48.7,57.8,48.5
				L57.8,48.5z"/>
		</g>
	</g>
</g>
<g>
	<g>
		<g>
			<path class="st0" d="M57.8,43.5c1.1-0.2,1.8,1,2.7,1.4c1.1,0.5,2.8-0.4,3.2,1.2c0.1,0.3,0.4,0.2,0.4-0.1c-0.1-0.6-0.4-1-1-1.3
				c-0.6-0.3-1.1,0-1.7,0c-1.4-0.1-2.1-1.8-3.6-1.6C57.6,43.1,57.6,43.5,57.8,43.5L57.8,43.5z"/>
		</g>
	</g>
</g>
<g>
	<g>
		<g>
			<path class="st0" d="M62.5,39.6c0.5,0.4,0.6,1.2,1.2,1.4c0.3,0.1,0.6,0.1,1,0.1c0.3,0,2-0.2,1.6,0.7c-0.1,0.2,0.3,0.4,0.3,0.2
				c0.3-0.7-0.3-1.2-1-1.3c-0.6-0.1-1.4,0.4-2-0.2c-0.3-0.3-0.4-0.8-0.8-1.2C62.6,39.2,62.3,39.4,62.5,39.6L62.5,39.6z"/>
		</g>
	</g>
</g>
<g>
	<g>
		<g>
			<path class="st0" d="M64.9,33.8c1.3,0.4,2.4,1.3,2.9,2.6c0.3,0.8,0.3,1.8,0.9,2.5c0.2,0.2,0.4-0.1,0.3-0.3
				c-0.5-0.6-0.5-1.3-0.7-2c-0.2-0.5-0.4-1-0.7-1.4c-0.6-0.8-1.5-1.4-2.5-1.8C64.8,33.4,64.6,33.8,64.9,33.8L64.9,33.8z"/>
		</g>
	</g>
</g>
<g>
	<g>
		<g>
			<path class="st0" d="M68.8,33.2C68.9,33.1,68.9,33.1,68.8,33.2c0.1-0.1,0.2-0.2,0.1-0.3c-0.1-0.2-0.2-0.2-0.3-0.2
				c-0.1,0-0.2,0.1-0.2,0.2c-0.2,0.4,0.2,1.2,0.5,1.5c0.3,0.3,0.6,0.4,0.9,0.7c0.6,0.5,0.9,1.1,0.9,1.9c0,0.3,0.4,0.3,0.4,0
				c0-0.8-0.3-1.4-0.8-2c-0.3-0.3-0.7-0.4-0.9-0.7c0.1,0.1-0.7-1.3-0.8-1.3C68.4,33.1,68.7,33.3,68.8,33.2L68.8,33.2z"/>
		</g>
	</g>
</g>
<g>
	<g>
		<g>
			<path class="st0" d="M72,31.5c-0.2,0.6,0.1,1,0.5,1.4c0.8,0.9,1.1,1.8,0.8,3c-0.1,0.3,0.3,0.3,0.4,0.1c0.2-0.7,0.2-1.3,0-2
				c-0.2-0.7-1.5-1.8-1.3-2.4C72.5,31.3,72.1,31.2,72,31.5L72,31.5z"/>
		</g>
	</g>
</g>
<g>
	<g>
		<g>
			<path class="st0" d="M76.9,30.5c-0.1,0.8-0.8,1.4-0.7,2.3c0.1,0.8,1.3,1.8,0.6,2.5c-0.2,0.2,0.1,0.5,0.3,0.3
				c0.5-0.5,0.4-1.1,0.1-1.7c-0.1-0.3-0.3-0.5-0.4-0.7c-0.3-0.6-0.1-1,0.1-1.6c0.2-0.4,0.3-0.7,0.4-1.1
				C77.3,30.3,76.9,30.3,76.9,30.5L76.9,30.5z"/>
		</g>
	</g>
</g>
<g>
	<g>
		<g>
			<path class="st0" d="M80,30.4c0.2,1.4,0.8,3.2,0.1,4.6c-0.1,0.2,0.2,0.4,0.3,0.2c0.8-1.5,0.2-3.3,0-4.9C80.4,30,80,30.1,80,30.4
				L80,30.4z"/>
		</g>
	</g>
</g>
<g>
	<g>
		<g>
			<path class="st0" d="M69.7,69.5c-0.3-1-0.6-2.1-0.2-3.1c0.3-0.9,1.1-1.2,1.9-1.6c0.3-0.1,0.6-0.3,0.7-0.5
				c0.1-0.2,0.2-1.1,0.3-1.1c0.3,0,0.3-0.4,0-0.4c-0.4,0-0.4,0.2-0.5,0.5c-0.3,0.6-0.3,1-1,1.3c-0.3,0.1-0.6,0.2-0.9,0.4
				c-1.4,1.1-1,3.1-0.7,4.6C69.4,69.9,69.8,69.8,69.7,69.5L69.7,69.5z"/>
		</g>
	</g>
</g>
<g>
	<g>
		<g>
			<path class="st0" d="M73.8,69.9c0.5-0.8,0.2-1.6,0.2-2.5c-0.1-1.5,0.8-2.4,1.8-3.4c0.2-0.2-0.1-0.4-0.3-0.3
				c-0.7,0.6-1.5,1.3-1.8,2.2c-0.5,1.2,0.4,2.6-0.3,3.8C73.4,70,73.7,70.1,73.8,69.9L73.8,69.9z"/>
		</g>
	</g>
</g>
<g>
	<g>
		<g>
			<path class="st0" d="M78,74.1c0.3-1.4,0.9-3.2,0.6-4.7c-0.3-1.7-2.8-3.9-0.9-5.4c0.2-0.2-0.1-0.4-0.3-0.3c-1,0.8-0.9,1.9-0.5,3
				c0.5,1.2,1.3,2,1.3,3.5c0,1.2-0.4,2.6-0.6,3.8C77.5,74.3,77.9,74.4,78,74.1L78,74.1z"/>
		</g>
	</g>
</g>
<g>
	<g>
		<g>
			<path class="st0" d="M81.9,74.5c-1-1.9,0.3-3.1,0.1-4.9c-0.1-1.6-1-3.3-1.6-4.8c-0.1-0.2-0.5-0.1-0.4,0.1c0.7,2,2,4.2,1.3,6.3
				c-0.4,1.3-0.4,2.3,0.2,3.5C81.7,74.9,82.1,74.7,81.9,74.5L81.9,74.5z"/>
		</g>
	</g>
</g>
<g>
	<g>
		<g>
			<path class="st0" d="M83.2,64.1c0.4,1.8,0.7,3.7,1.2,5.4c0.5,1.6,2,2.4,2,4.3c0,0.3,0.4,0.3,0.4,0c0-0.7-0.1-1.3-0.4-1.9
				c-0.3-0.7-0.9-1.1-1.3-1.8c-0.5-0.8-0.6-1.9-0.8-2.9c-0.3-1.1-0.5-2.2-0.8-3.4C83.5,63.7,83.1,63.8,83.2,64.1L83.2,64.1z"/>
		</g>
	</g>
</g>
<g>
	<g>
		<g>
			<path class="st0" d="M89.5,70c-2.9-0.6-1.9-5.1-4-6.7c-0.2-0.2-0.5,0.1-0.3,0.3c2,1.8,0.9,6.2,4.1,6.8C89.6,70.4,89.7,70,89.5,70
				L89.5,70z"/>
		</g>
	</g>
</g>
<g>
	<g>
		<g>
			<path class="st0" d="M87.6,63c0.8,0.3,1,1.3,1.4,2c0.2,0.3,0.3,0.5,0.6,0.7c0.3,0.2,1.5,0.6,1.3,1c-0.1,0.2,0.2,0.4,0.3,0.2
				c0.2-0.3,0.1-0.6-0.1-0.8c-0.4-0.5-1.1-0.4-1.5-0.9c-0.6-0.8-0.7-1.9-1.7-2.4C87.6,62.5,87.4,62.9,87.6,63L87.6,63z"/>
		</g>
	</g>
</g>
<g>
	<g>
		<g>
			<path class="st0" d="M90.4,61.2c-0.1-0.3-0.3-0.5-0.6-0.5c-0.2,0-0.2,0.3-0.1,0.4c0.7,0.5,1.3,1,2,1.5c0.2,0.2,0.4-0.2,0.2-0.3
				c-0.7-0.5-1.3-1-2-1.5c0,0.1-0.1,0.3-0.1,0.4c0.1,0.1,0.1,0.2,0.2,0.2C90.1,61.6,90.4,61.5,90.4,61.2L90.4,61.2z"/>
		</g>
	</g>
</g>
<g>
	<g>
		<g>
			<path class="st0" d="M83.4,31.1c0.4,0.5,0.6,1.1,0.5,1.8c-0.1,0.5-0.5,0.8-0.8,1.2c-0.3,0.4-0.5,0.9-0.1,1.4
				c0.2,0.2,0.5,0,0.3-0.2c-0.5-0.7,0.4-1.3,0.8-1.8c0.2-0.3,0.3-0.6,0.3-0.9c0.1-0.7-0.2-1.3-0.6-1.9
				C83.6,30.6,83.3,30.9,83.4,31.1L83.4,31.1z"/>
		</g>
	</g>
</g>
<g>
	<g>
		<g>
			<path class="st0" d="M88.6,30.6c-1.7,1.4,0.1,4.9-2.1,5.7c-0.3,0.1-0.1,0.5,0.1,0.4c2.5-0.9,0.6-4.4,2.3-5.8
				C89.1,30.8,88.8,30.5,88.6,30.6L88.6,30.6z"/>
		</g>
	</g>
</g>
<g>
	<g>
		<g>
			<path class="st0" d="M91.3,31.6c-0.5,1.6-0.3,2.8,0.1,4.4c0.3,1.1,0.3,2-0.1,3c-0.2,0.7-0.4,1.3-0.4,2c0,0.3,0.4,0.3,0.4,0
				c0-1.4,0.9-2.6,0.8-4c-0.1-0.6-0.3-1.1-0.4-1.7c-0.3-1.3-0.3-2.4,0.1-3.6C91.8,31.5,91.4,31.4,91.3,31.6L91.3,31.6z"/>
		</g>
	</g>
</g>
<g>
	<g>
		<g>
			<path class="st0" d="M95.3,31.8c-1.6,1.3-1.3,3.5-0.8,5.2c0.5,2,0.6,3.5-0.5,5.3c-0.5,0.9-0.8,1.6-0.7,2.6c0,0.3,0.4,0.2,0.4-0.1
				c-0.2-1.4,0.8-2.4,1.3-3.6c0.3-0.8,0.4-1.6,0.3-2.5c-0.3-2.2-1.9-5,0.3-6.7C95.7,31.9,95.5,31.6,95.3,31.8L95.3,31.8z"/>
		</g>
	</g>
</g>
<g>
	<g>
		<g>
			<path class="st0" d="M99.8,33.2c-1.6,1.1-1.4,2.8-1.3,4.5c0.1,1.7-0.3,3.1-1.2,4.5c-0.6,0.9-1.6,1.7-2,2.7c-0.8,2.1,1,4,0.7,6.1
				c-0.2,1.6-1.7,3.3-0.2,4.7c0.2,0.2,0.5-0.1,0.3-0.3c-1.5-1.3,0.5-3.7,0.3-5.4c-0.3-2.3-1.7-4,0-6.1c1-1.3,2-2.4,2.4-4
				c0.5-2.1-0.9-5.1,1.3-6.5C100.2,33.4,100,33,99.8,33.2L99.8,33.2z"/>
		</g>
	</g>
</g>
<g>
	<g>
		<g>
			<path class="st0" d="M102.2,34c-0.5,0.9-1.1,1.9-1.2,2.9c-0.2,1.3,1.1,3.1,0.2,4.3c-0.2,0.2,0.1,0.5,0.3,0.3
				c0.5-0.6,0.6-1.2,0.4-1.9c-0.1-0.8-0.5-1.4-0.5-2.2c0-1.2,0.6-2.2,1.2-3.2C102.6,34,102.3,33.8,102.2,34L102.2,34z"/>
		</g>
	</g>
</g>
<g>
	<g>
		<g>
			<path class="st0" d="M99,53.5c-0.9-1.4-1-3.1-0.3-4.6c0.4-0.9,0.9-1.5,1-2.5c0-0.3-0.4-0.3-0.4,0c-0.1,1.4-1.3,2.5-1.5,4
				c-0.1,1.2,0.2,2.3,0.8,3.3C98.7,53.9,99.1,53.7,99,53.5L99,53.5z"/>
		</g>
	</g>
</g>
<g>
	<g>
		<g>
			<path class="st0" d="M103.4,36c-0.4,0.1-0.6,0.3-0.7,0.8c-0.2,1,0.8,1.5,0.7,2.7c-0.2,1.3-1.2,2.6,0,3.8c0.2,0.2,0.5-0.1,0.3-0.3
				c-1.2-1.2,0.1-2.6,0.2-3.9c0-0.6-1-2.6-0.3-2.8C103.7,36.4,103.6,36,103.4,36L103.4,36z"/>
		</g>
	</g>
</g>
<g>
	<g>
		<g>
			<path class="st0" d="M102.8,47.9c-0.3,0.7-0.1,1.4,0.5,1.9c0.2,0.2,0.5-0.1,0.3-0.3c-0.4-0.4-0.6-0.9-0.4-1.5
				C103.2,47.7,102.9,47.6,102.8,47.9L102.8,47.9z"/>
		</g>
	</g>
</g>
<g>
	<g>
		<g>
			<path class="st0" d="M106.9,50.6c0.3-0.7,0.5-1.3,0.4-2.1c-0.1-1.1-1.7-3-0.4-3.9c0.2-0.1,0-0.5-0.2-0.3
				c-0.5,0.3-0.8,0.9-0.7,1.5c0,0.4,0.2,0.8,0.4,1.2c0.5,1.2,0.7,2.1,0.2,3.4C106.5,50.7,106.8,50.8,106.9,50.6L106.9,50.6z"/>
		</g>
	</g>
</g>
<g>
	<g>
		<g>
			<path class="st0" d="M109.7,67.2c0.3-0.8,0.3-1.6-0.1-2.4c-0.1-0.2-0.5-0.1-0.4,0.1c0.3,0.7,0.3,1.5,0.1,2.2
				C109.2,67.3,109.6,67.4,109.7,67.2L109.7,67.2z"/>
		</g>
	</g>
</g>
<g>
	<g>
		<g>
			<path class="st0" d="M52.8,52c-6.9,1.5-14.1-0.9-18.7-6.2c-0.2-0.2-0.4,0.1-0.3,0.3c4.7,5.4,12.1,7.9,19.1,6.3
				C53.1,52.3,53,51.9,52.8,52L52.8,52z"/>
		</g>
	</g>
</g>
<g>
	<g>
		<g>
			<path class="st0" d="M34.2,45.6c0.5-1.4,0.7-3.2,0-4.5c-0.3-0.5-0.9-1.3-1.5-0.8c-0.9,0.8-0.3,5.8,1.3,5.4c0.2,0,0.2-0.3,0-0.3
				c-1.8-1-5.4,4.9-4.5,6.4c0.6,1,1.8-0.3,2.2-0.8c1.2-1.4,1.9-3.1,2.1-4.9c0-0.3-0.3-0.3-0.4,0c-0.2,1.2-0.5,2.3-1.1,3.3
				c-0.3,0.6-2.2,3.5-2.4,1.3c-0.1-1,2.6-5.7,3.9-5c0-0.1,0-0.3,0-0.3c-0.6,0.2-0.9-1.4-1-1.8c-0.1-0.5-0.2-1-0.2-1.5
				c-0.2-0.6,0.1-0.7,0.6-0.4c1,0.1,0.8,0.8,0.8,1.8c0,0.8-0.2,1.4-0.4,2.1C33.7,45.8,34.1,45.9,34.2,45.6L34.2,45.6z"/>
		</g>
	</g>
</g>
<g>
	<g>
		<g>
			<path class="st0" d="M33.8,44.8c-2.2,0.1-4.4-0.1-6.7-0.4c-0.3,0-0.3,0.3-0.1,0.4c2.2,0.4,4.5,0.5,6.7,0.4
				C34,45.2,34,44.8,33.8,44.8L33.8,44.8z"/>
		</g>
	</g>
</g>
<g>
	<g>
		<g>
			<path class="st0" d="M32.7,45.5c-2,0.5-3.8,1.5-5.3,2.9c-0.2,0.2,0.1,0.4,0.3,0.3c1.5-1.4,3.2-2.3,5.1-2.8
				C33.1,45.8,33,45.4,32.7,45.5L32.7,45.5z"/>
		</g>
	</g>
</g>
<g>
	<g>
		<g>
			<path class="st0" d="M34.1,45.3c2,2.4,4.6,4.2,7.6,5.1c1.7,0.5,3.5,0.8,5.2,0.8c1.9,0.1,3.9-0.5,5.7-0.3c0.3,0,0.3-0.4,0-0.4
				c-1.5-0.1-3,0.3-4.6,0.3c-1.9,0-3.9-0.2-5.8-0.7c-3.1-0.8-5.9-2.6-8-5.1C34.2,44.9,33.9,45.1,34.1,45.3L34.1,45.3z"/>
		</g>
	</g>
</g>
<g>
	<g>
		<g>
			<path class="st1" d="M56,54.5c1,0,1-1.6,0-1.6C54.9,53,54.9,54.5,56,54.5L56,54.5z"/>
		</g>
	</g>
</g>
<g>
	<g>
		<g>
			<path class="st1" d="M60.1,37.6c1,0,1-1.6,0-1.6C59.1,36,59.1,37.6,60.1,37.6L60.1,37.6z"/>
		</g>
	</g>
</g>
<g>
	<g>
		<g>
			<path class="st1" d="M65.1,74.2c1,0,1-1.6,0-1.6S64.1,74.2,65.1,74.2L65.1,74.2z"/>
		</g>
	</g>
</g>
<g>
	<g>
		<g>
			<path class="st1" d="M73.7,75.3c1,0,1-1.6,0-1.6C72.7,73.7,72.7,75.3,73.7,75.3L73.7,75.3z"/>
		</g>
	</g>
</g>
<g>
	<g>
		<g>
			<path class="st1" d="M77.7,75.9c1,0,1-1.6,0-1.6C76.7,74.3,76.7,75.9,77.7,75.9L77.7,75.9z"/>
		</g>
	</g>
</g>
<g>
	<g>
		<g>
			<path class="st1" d="M81.3,75.1c0,0.1,0,0.1,0,0.2c0,0.4,0.3,0.8,0.8,0.8c0.4,0,0.8-0.3,0.8-0.8c0-0.1,0-0.1,0-0.2
				c0-0.4-0.3-0.8-0.8-0.8C81.6,74.3,81.3,74.6,81.3,75.1L81.3,75.1z"/>
		</g>
	</g>
</g>
<g>
	<g>
		<g>
			<path class="st1" d="M86.9,74.8c1,0,1-1.6,0-1.6S85.9,74.8,86.9,74.8L86.9,74.8z"/>
		</g>
	</g>
</g>
<g>
	<g>
		<g>
			<path class="st1" d="M89.4,71.9c1,0,1-1.6,0-1.6C88.4,70.3,88.4,71.9,89.4,71.9L89.4,71.9z"/>
		</g>
	</g>
</g>
<g>
	<g>
		<g>
			<path class="st1" d="M91.1,67.3c0.1,0,0.1,0,0.2,0c0.4,0,0.8-0.3,0.8-0.8c0-0.4-0.3-0.8-0.8-0.8c-0.1,0-0.1,0-0.2,0
				c-0.4,0-0.8,0.3-0.8,0.8C90.3,66.9,90.6,67.3,91.1,67.3L91.1,67.3z"/>
		</g>
	</g>
</g>
<g>
	<g>
		<g>
			<path class="st1" d="M92.5,63.1c1,0,1-1.6,0-1.6C91.5,61.5,91.5,63.1,92.5,63.1L92.5,63.1z"/>
		</g>
	</g>
</g>
<g>
	<g>
		<g>
			<path class="st1" d="M93,58.8c0,0.1,0,0.1,0,0.2c0,0.4,0.3,0.8,0.8,0.8c0.4,0,0.8-0.3,0.8-0.8c0-0.1,0-0.1,0-0.2
				c0-0.4-0.3-0.8-0.8-0.8C93.4,58,93,58.3,93,58.8L93,58.8z"/>
		</g>
	</g>
</g>
<g>
	<g>
		<g>
			<path class="st1" d="M95.5,55.9c0,0.1,0,0.1,0,0.2c0,0.4,0.3,0.8,0.8,0.8c0.4,0,0.8-0.3,0.8-0.8c0-0.1,0-0.1,0-0.2
				c0-0.4-0.3-0.8-0.8-0.8C95.9,55.1,95.5,55.4,95.5,55.9L95.5,55.9z"/>
		</g>
	</g>
</g>
<g>
	<g>
		<g>
			<path class="st1" d="M110.6,68.1c0.1-0.1,0.1-0.1,0.2-0.2c0.3-0.3,0.3-0.8,0-1.1c-0.3-0.3-0.8-0.3-1.1,0
				c-0.1,0.1-0.1,0.1-0.2,0.2c-0.3,0.3-0.3,0.8,0,1.1C109.9,68.4,110.3,68.4,110.6,68.1L110.6,68.1z"/>
		</g>
	</g>
</g>
<g>
	<g>
		<g>
			<path class="st1" d="M63.2,66.3L63.2,66.3c0,0.1-0.1,0.3-0.1,0.4c-0.3,0.4-0.7,0.4-1.1,0.2c-0.1-0.1-0.1-0.2-0.2-0.3
				c0-0.1,0-0.1,0-0.2c0,0.4,0.4,0.8,0.8,0.8c0.4,0,0.8-0.3,0.8-0.8c0-0.5-0.4-0.8-0.9-0.9c-0.5,0-0.9,0.4-0.9,0.8
				c0,0.4,0.4,0.8,0.8,0.8C62.9,67.1,63.2,66.7,63.2,66.3L63.2,66.3z"/>
		</g>
	</g>
</g>
<g>
	<g>
		<g>
			<path class="st1" d="M60.3,63.3c0.1-0.1,0.1-0.1,0.2-0.2c0.3-0.3,0.3-0.8,0-1.1c-0.3-0.3-0.8-0.3-1.1,0c-0.1,0.1-0.1,0.1-0.2,0.2
				c-0.3,0.3-0.3,0.8,0,1.1C59.5,63.6,59.9,63.6,60.3,63.3L60.3,63.3z"/>
		</g>
	</g>
</g>
<g>
	<g>
		<g>
			<path class="st1" d="M59.1,59.3c1,0,1-1.6,0-1.6C58.1,57.8,58.1,59.3,59.1,59.3L59.1,59.3z"/>
		</g>
	</g>
</g>
<g>
	<g>
		<g>
			<path class="st1" d="M56.6,48.9c1,0,1-1.6,0-1.6C55.5,47.3,55.5,48.9,56.6,48.9L56.6,48.9z"/>
		</g>
	</g>
</g>
<g>
	<g>
		<g>
			<path class="st1" d="M56.6,44.1c1,0,1-1.6,0-1.6C55.5,42.5,55.5,44.1,56.6,44.1L56.6,44.1z"/>
		</g>
	</g>
</g>
<g>
	<g>
		<g>
			<path class="st1" d="M64.1,34.5c1,0,1-1.6,0-1.6C63.1,32.9,63.1,34.5,64.1,34.5L64.1,34.5z"/>
		</g>
	</g>
</g>
<g>
	<g>
		<g>
			<path class="st1" d="M67.8,33c1,0,1-1.6,0-1.6S66.8,33,67.8,33L67.8,33z"/>
		</g>
	</g>
</g>
<g>
	<g>
		<g>
			<path class="st1" d="M72.2,31.6c1,0,1-1.6,0-1.6C71.2,30,71.2,31.6,72.2,31.6L72.2,31.6z"/>
		</g>
	</g>
</g>
<g>
	<g>
		<g>
			<path class="st1" d="M76.2,31.1c1,0,1-1.6,0-1.6S75.2,31.1,76.2,31.1L76.2,31.1z"/>
		</g>
	</g>
</g>
<g>
	<g>
		<g>
			<path class="st1" d="M79,30.1c0,0.1,0,0.1,0,0.2c0,0.4,0.3,0.8,0.8,0.8s0.8-0.3,0.8-0.8c0-0.1,0-0.1,0-0.2c0-0.4-0.3-0.8-0.8-0.8
				C79.4,29.4,79,29.7,79,30.1L79,30.1z"/>
		</g>
	</g>
</g>
<g>
	<g>
		<g>
			<path class="st1" d="M83.8,31.3c1,0,1-1.6,0-1.6S82.7,31.3,83.8,31.3L83.8,31.3z"/>
		</g>
	</g>
</g>
<g>
	<g>
		<g>
			<path class="st1" d="M86.7,31c0,0.1,0,0.1,0,0.2c0,0.4,0.3,0.8,0.8,0.8c0.4,0,0.8-0.3,0.8-0.8c0-0.1,0-0.1,0-0.2
				c0-0.4-0.3-0.8-0.8-0.8C87.1,30.2,86.7,30.5,86.7,31L86.7,31z"/>
		</g>
	</g>
</g>
<g>
	<g>
		<g>
			<path class="st1" d="M91.1,32c1,0,1-1.6,0-1.6S90.1,32,91.1,32L91.1,32z"/>
		</g>
	</g>
</g>
<g>
	<g>
		<g>
			<path class="st1" d="M95.5,32.4c1,0,1-1.6,0-1.6S94.4,32.4,95.5,32.4L95.5,32.4z"/>
		</g>
	</g>
</g>
<g>
	<g>
		<g>
			<path class="st1" d="M98.5,34.3c0.1,0.1,0.1,0.1,0.2,0.2c0.3,0.3,0.8,0.3,1.1,0c0.3-0.3,0.3-0.8,0-1.1c-0.1-0.1-0.1-0.1-0.2-0.2
				c-0.3-0.3-0.8-0.3-1.1,0C98.2,33.5,98.2,33.9,98.5,34.3L98.5,34.3z"/>
		</g>
	</g>
</g>
<g>
	<g>
		<g>
			<path class="st1" d="M103,34.7c1,0,1-1.6,0-1.6S102,34.7,103,34.7L103,34.7z"/>
		</g>
	</g>
</g>
<g>
	<g>
		<g>
			<path class="st1" d="M105.7,35.7c1,0,1-1.6,0-1.6S104.7,35.7,105.7,35.7L105.7,35.7z"/>
		</g>
	</g>
</g>
<g>
	<g>
		<g>
			<path class="st1" d="M101.4,46.2c0.1,0.1,0.1,0.1,0.2,0.2c0.3,0.3,0.8,0.3,1.1,0c0.3-0.3,0.3-0.8,0-1.1c-0.1-0.1-0.1-0.1-0.2-0.2
				c-0.3-0.3-0.8-0.3-1.1,0C101.1,45.4,101.1,45.9,101.4,46.2L101.4,46.2z"/>
		</g>
	</g>
</g>
</svg>
