<?xml version="1.0" encoding="utf-8"?>
<!-- Generator: Adobe Illustrator 24.0.1, SVG Export Plug-In . SVG Version: 6.00 Build 0)  -->
<svg version="1.1" id="Layer_1" xmlns="http://www.w3.org/2000/svg" xmlns:xlink="http://www.w3.org/1999/xlink" x="0px" y="0px"
	 viewBox="0 0 141.7 141.7" style="enable-background:new 0 0 141.7 141.7;" xml:space="preserve">
<style type="text/css">
	.st0{fill:#070707;}
</style>
<g id="Layer_1_1_">
</g>
<g id="Layer_1_2_">
</g>
<g id="Layer_1_3_">
</g>
<g id="Layer_1_4_">
</g>
<g id="Layer_1_5_">
</g>
<g id="Layer_3">
</g>
<g id="Layer_3_1_">
</g>
<g>
	<g>
		<g>
			<path class="st0" d="M24,113.2c0-2.3,4.5-4.7,12.4-6.5c0-0.2,0-0.4-0.1-0.6c-8,1.8-12.9,4.3-12.9,7c0,1.9,2.3,3.7,6.8,5.3
				c0,0,0-0.1,0.1-0.1c0.1-0.2,0.3-0.4,0.4-0.6c0.1-0.1,0.2-0.3,0.3-0.4c-0.2,0.2-0.4,0.3-0.6,0.5C26.2,116.5,24,114.9,24,113.2z"/>
		</g>
		<g>
			<path class="st0" d="M104.6,105.9c0,0.2-0.1,0.4-0.1,0.6c0,0,0.1,0,0.1,0c8.7,1.8,13.7,4.3,13.7,6.7c0,1.6-2.1,3.3-6.2,4.7
				c-0.1-0.2-0.3-0.4-0.4-0.6c0.1,0.2,0.3,0.4,0.4,0.6c0.1,0.2,0.2,0.3,0.2,0.5c4.3-1.6,6.6-3.3,6.6-5.2
				C118.9,110.3,113.5,107.7,104.6,105.9z"/>
		</g>
		<g>
			<path class="st0" d="M105.1,119.9c-8.9,1.9-21.1,3-33.9,3c-13,0-25-1.1-34-3c0.1-0.2,0.1-0.4,0.1-0.6c-0.2,0.3-0.3,0.5-0.4,0.8
				c-0.1,0.1-0.1,0.2-0.2,0.2l0.1,0c9.1,2,21.3,3.1,34.5,3.1c12.9,0,25.3-1.1,34.2-3.1C105.2,120.2,105.1,120,105.1,119.9z"/>
		</g>
	</g>
	<g>
		<g>
			<g>
				<path class="st0" d="M45.5,67.1C34.7,77.4,35,93,36,106.8c0.3,4.4,0.6,8.7,0.6,13.1c0,0.4,0.7,0.4,0.7,0
					c-0.1-3.8-0.2-7.5-0.5-11.2c-0.3-3.5-0.5-7-0.6-10.5c-0.2-6.9,0.3-14.1,2.9-20.6c1.6-3.8,3.9-7.2,6.9-10
					C46.3,67.3,45.8,66.8,45.5,67.1L45.5,67.1z"/>
			</g>
		</g>
	</g>
	<g>
		<g>
			<g>
				<path class="st0" d="M99.6,72.2c-1.1-2-2.5-3.8-4.2-5.3c-0.3-0.3-0.8,0.2-0.5,0.5c1.6,1.5,3,3.3,4.1,5.2
					C99.2,72.9,99.8,72.6,99.6,72.2L99.6,72.2z"/>
			</g>
		</g>
	</g>
	<g>
		<g>
			<g>
				<path class="st0" d="M37.1,80.9c-2.4-0.2-4.8-1.4-5.9-3.7c-1.1-2.3-0.7-5,0.8-7c1.3-1.8,3.4-3,5.6-3.4c2.1-0.4,5.1-0.3,6.5,1.5
					c0.3,0.3,0.7-0.1,0.5-0.5c-1.6-1.9-4.5-2.1-6.8-1.7c-2.6,0.4-5.1,1.9-6.6,4.1c-1.4,2.2-1.7,4.9-0.5,7.3c1.2,2.4,3.8,3.8,6.5,4
					C37.6,81.7,37.6,81,37.1,80.9L37.1,80.9z"/>
			</g>
		</g>
	</g>
	<g>
		<g>
			<g>
				<path class="st0" d="M94.8,66.7c3.7-1.9,9.6-2.9,12.3,1.2c2.6,4.1,1.1,10.5-4.2,11.4c-0.4,0.1-0.2,0.7,0.2,0.6
					c5.6-0.9,7.3-7.7,4.7-12.1c-2.7-4.7-9.2-3.9-13.3-1.7C94.1,66.3,94.4,66.9,94.8,66.7L94.8,66.7z"/>
			</g>
		</g>
	</g>
	<g>
		<g>
			<g>
				<path class="st0" d="M64.2,87c0.1,0,0.2,0,0.3-0.1c0-0.1-0.1-0.2-0.1-0.3c-0.2,0.2-0.7,0.1-0.9,0.2c-0.5,0.2-1.1,0.7-1.5,1
					c-0.9,0.7-1.8,1.6-2.2,2.7c-1,2.5,2.1,3.9,4.2,3.7c1.7-0.1,3.3-0.9,5-1.1c1.7-0.2,3.1,0.4,4.7,0.8c2.1,0.5,4.2-0.7,3.9-3.1
					c-0.3-2.6-3.7-4-5.8-4.8c-0.2-0.1-0.3,0.2-0.1,0.3c2.2,0.8,6.4,2.6,5.5,5.6c-0.6,2.2-2.7,1.9-4.4,1.4c-1.2-0.3-2.3-0.7-3.6-0.6
					c-1.5,0.2-3,0.8-4.5,1.1c-1.7,0.3-5.1-0.3-4.7-2.6c0.2-1.4,1.6-2.6,2.7-3.4c0.4-0.3,0.7-0.5,1.2-0.7c0.2-0.1,0.6-0.1,0.8-0.3
					c0.1-0.1,0-0.3-0.1-0.3c-0.1,0-0.2,0-0.4,0.1C63.9,86.7,64,87,64.2,87L64.2,87z"/>
			</g>
		</g>
	</g>
	<g>
		<g>
			<g>
				<path class="st0" d="M72.7,93.8c0.6,1.5,0.9,3.5,0.3,5.1c-0.5,1.2-2,1.9-3.1,1.1c-0.5-0.4-0.7-1-1-1.6c-0.1-0.2-0.4,0-0.3,0.2
					c0.3,0.7,0.6,1.5,1.3,1.9c0.8,0.4,1.8,0.2,2.5-0.3c1.9-1.3,1.3-4.7,0.6-6.5C73,93.5,72.7,93.6,72.7,93.8L72.7,93.8z"/>
			</g>
		</g>
	</g>
	<g>
		<g>
			<g>
				<path class="st0" d="M104.7,115.4c0.8,0.4,1.9,0,2.8,0.2c1.8,0.4,3.7,1.4,4.5,3.1c0.9,2,0.1,4.3-2.4,3.8
					c-1.8-0.3-3.2-1.6-4.4-2.8c-0.2-0.2-0.4,0.1-0.2,0.2c1.4,1.4,3,2.8,5,3c1.5,0.1,2.6-0.7,2.7-2.1c0.2-1.7-0.8-3.3-2.2-4.3
					c-0.9-0.6-2-1.1-3.1-1.3c-0.7-0.1-1.8,0.2-2.5-0.1C104.7,115,104.5,115.3,104.7,115.4L104.7,115.4z"/>
			</g>
		</g>
	</g>
	<g>
		<g>
			<g>
				<path class="st0" d="M108.6,119.7c1.2,0.4,2.7,1.4,1.9,2.8c-0.1,0.2,0.2,0.3,0.3,0.2c0.8-1.6-0.7-2.8-2.1-3.3
					C108.5,119.3,108.4,119.6,108.6,119.7L108.6,119.7z"/>
			</g>
		</g>
	</g>
	<g>
		<path class="st0" d="M83.1,85.5c-4.6,0-8.3-3.7-8.3-8.3c0-4.6,3.7-8.3,8.3-8.3c4.6,0,8.3,3.7,8.3,8.3
			C91.4,81.7,87.7,85.5,83.1,85.5z M83.1,69.6c-4.2,0-7.5,3.4-7.5,7.5c0,4.2,3.4,7.5,7.5,7.5c4.2,0,7.5-3.4,7.5-7.5
			C90.6,73,87.2,69.6,83.1,69.6z"/>
	</g>
	<g>
		<path class="st0" d="M56.7,83c-3.2,0-5.8-2.6-5.8-5.8c0-3.2,2.6-5.8,5.8-5.8c3.2,0,5.8,2.6,5.8,5.8C62.6,80.4,59.9,83,56.7,83z
			 M56.7,72.1c-2.8,0-5.1,2.3-5.1,5.1c0,2.8,2.3,5.1,5.1,5.1c2.8,0,5.1-2.3,5.1-5.1C61.8,74.4,59.5,72.1,56.7,72.1z"/>
	</g>
	<g>
		<path class="st0" d="M103.4,71.8c0-1.2-1-2.2-2.2-2.2s-2.2,1-2.2,2.2s1,2.2,2.2,2.2S103.4,73,103.4,71.8z"/>
	</g>
	<g>
		<circle class="st0" cx="38.2" cy="73.8" r="2.2"/>
	</g>
	<g>
		<path class="st0" d="M73.2,85.8c0-1.4-2.1-2.6-4.7-2.6s-4.7,1.2-4.7,2.6c0,1.4,2.1,2.6,4.7,2.6C71.1,88.4,73.2,87.2,73.2,85.8z"/>
	</g>
	<g>
		<path class="st0" d="M79.6,76c0,1.9,1.6,3.5,3.5,3.5c1.9,0,3.5-1.6,3.5-3.5c0-1.9-1.6-3.5-3.5-3.5C81.1,72.6,79.6,74.1,79.6,76z
			 M85.3,74.6c0,0.6-0.4,1-1,1c-0.6,0-1-0.4-1-1c0-0.6,0.4-1,1-1C84.8,73.7,85.3,74.1,85.3,74.6z"/>
	</g>
	<g>
		<path class="st0" d="M53.2,77.1c0,1.9,1.6,3.5,3.5,3.5c1.9,0,3.5-1.6,3.5-3.5c0-1.9-1.6-3.5-3.5-3.5
			C54.8,73.7,53.2,75.2,53.2,77.1z M58.9,75.7c0,0.6-0.4,1-1,1c-0.6,0-1-0.4-1-1c0-0.6,0.4-1,1-1C58.5,74.8,58.9,75.2,58.9,75.7z"/>
	</g>
	<g>
		<g>
			<g>
				<path class="st0" d="M68.8,93.1c0.3,1.4,0.2,3.1,0,4.5c-0.1,0.8-0.3,1.8-0.9,2.4c-0.7,0.7-1.9,0.6-2.6,0c-1.4-1.3-1-4.3-0.5-6
					c0.1-0.2-0.3-0.3-0.3-0.1c-0.6,1.9-1.1,6.1,1.6,6.8c1.3,0.4,2.3-0.3,2.8-1.5c0.4-1,0.4-2.1,0.4-3.2c0-1,0.1-2.1-0.1-3
					C69,92.8,68.7,92.9,68.8,93.1L68.8,93.1z"/>
			</g>
		</g>
	</g>
	<g>
		<g>
			<g>
				<path class="st0" d="M36.8,115.8c-2.4-0.4-5,0.7-6.7,2.3c-1.2,1.2-1.9,2.8-0.2,3.8c0.2,0.1,0.3-0.2,0.2-0.3
					c-2.1-1.2,0-3.3,1.3-4.1c1.6-1.1,3.4-1.8,5.3-1.4C36.9,116.1,37,115.8,36.8,115.8L36.8,115.8z"/>
			</g>
		</g>
	</g>
	<g>
		<g>
			<g>
				<path class="st0" d="M31.8,120.2c-0.7,0.3-1.6,0.9-1.6,1.8c0,0.8,0.8,1.3,1.5,1.4c2,0.3,4.3-1.9,5.3-3.4
					c0.1-0.2-0.2-0.3-0.3-0.2c-0.8,1.2-2.1,2.2-3.4,2.9c-0.8,0.4-2.2,0.7-2.8-0.3c-0.5-0.9,0.7-1.7,1.4-2
					C32.2,120.4,32,120.1,31.8,120.2L31.8,120.2z"/>
			</g>
		</g>
	</g>
	<g>
		<g>
			<g>
				<path class="st0" d="M98.5,71.4c5,6.4,5,14.8,5.3,22.5c0.3,8.7,0.2,17.3,0.6,26c0,0.4,0.7,0.4,0.7,0c-0.4-9.2-0.2-18.4-0.6-27.5
					c-0.3-7.5-0.6-15.3-5.5-21.4C98.7,70.6,98.2,71.1,98.5,71.4L98.5,71.4z"/>
			</g>
		</g>
	</g>
	<g>
		<g>
			<g>
				<path class="st0" d="M44.6,126.3c-3.3-1-6.8-0.6-9.8,1.1c-0.1,0.1-0.1,0.2,0,0.3c1.5,0.8,3.1,1.2,4.7,1.4
					c1.6,0.2,3.5,0.5,5.1,0.2c0.8-0.2,1.8-0.8,1.7-1.7c0-0.8-0.7-1.3-1.5-1.1c-0.2,0.1-0.1,0.4,0.1,0.3c0.9,1.3,0.8,2-0.2,2.1
					c-0.3,0.1-0.6,0.2-0.8,0.2c-0.4,0-0.8,0-1.2,0c-0.8,0-1.5-0.1-2.3-0.1c-0.9-0.1-1.8-0.2-2.6-0.4c-0.3-0.1-2.5-0.6-2.5-0.9
					c0-0.8,3.3-1.3,4.1-1.4c1.7-0.2,3.5-0.1,5.1,0.5C44.8,126.6,44.9,126.3,44.6,126.3L44.6,126.3z"/>
			</g>
		</g>
	</g>
	<g>
		<g>
			<g>
				<path class="st0" d="M46.8,130.6c-0.9-0.5-2-0.4-2.7,0.3c-0.1,0.1-0.1,0.2,0,0.3c1,0.7,2.2,0.7,3.3,0.1c0.1-0.1,0.1-0.2,0.1-0.2
					c-0.2-0.4-0.5-0.7-0.9-0.8c-0.2-0.1-0.3,0.3-0.1,0.3c0.4,0.1,0.6,0.3,0.7,0.6c0-0.1,0-0.2,0.1-0.2c-0.9,0.5-2.1,0.5-3-0.1
					c0,0.1,0,0.2,0,0.3c0.7-0.6,1.6-0.7,2.3-0.2C46.8,131,46.9,130.7,46.8,130.6L46.8,130.6z"/>
			</g>
		</g>
	</g>
	<g>
		<path class="st0" d="M70.3,110.7c-16,0-29-13-29-29c0-16,13-29,29-29s29,13,29,29C99.3,97.7,86.3,110.7,70.3,110.7z M70.3,53.6
			c-15.5,0-28.2,12.6-28.2,28.2c0,15.5,12.6,28.2,28.2,28.2s28.2-12.6,28.2-28.2C98.5,66.2,85.8,53.6,70.3,53.6z"/>
	</g>
	<g>
		<path class="st0" d="M68.8,102.9c-6.1,0-11-4.9-11-11s4.9-11,11-11c6.1,0,11,4.9,11,11S74.9,102.9,68.8,102.9z M68.8,81.7
			c-5.6,0-10.2,4.6-10.2,10.2s4.6,10.2,10.2,10.2c5.6,0,10.2-4.6,10.2-10.2S74.5,81.7,68.8,81.7z"/>
	</g>
	<g>
		<g>
			<g>
				<path class="st0" d="M98.6,88.3c1.4-1.5,3.1-2.6,5.1-3.4c0.2-0.1,0.1-0.4-0.1-0.3c-2,0.8-3.7,1.9-5.2,3.5
					C98.2,88.2,98.5,88.5,98.6,88.3L98.6,88.3z"/>
			</g>
		</g>
	</g>
	<g>
		<g>
			<g>
				<path class="st0" d="M99,83.3c1.3,0.6,2.7,0.8,4.1,0.6c0.2,0,0.1-0.3-0.1-0.3c-1.3,0.2-2.6,0-3.8-0.6C99,82.9,98.8,83.2,99,83.3
					L99,83.3z"/>
			</g>
		</g>
	</g>
	<g>
		<g>
			<g>
				<path class="st0" d="M43.2,91.4c-1.7-2.2-4.3-3.5-7.1-3.7c-0.2,0-0.2,0.3,0,0.3c2.7,0.2,5.2,1.4,6.9,3.6
					C43.1,91.8,43.4,91.6,43.2,91.4L43.2,91.4z"/>
			</g>
		</g>
	</g>
	<g>
		<g>
			<g>
				<path class="st0" d="M41.6,85c-1.6,1.1-3.5,1.5-5.4,1.2c-0.2,0-0.3,0.3-0.1,0.3c2,0.3,4-0.1,5.6-1.2C42,85.2,41.8,84.9,41.6,85
					L41.6,85z"/>
			</g>
		</g>
	</g>
	<g>
		<path class="st0" d="M51.2,52.4c-6.7,0-12.1-5.4-12.1-12.1s5.4-12.1,12.1-12.1c6.7,0,12.1,5.4,12.1,12.1S57.9,52.4,51.2,52.4z
			 M51.2,29.1C45,29.1,40,34.2,40,40.4S45,51.6,51.2,51.6s11.3-5.1,11.3-11.3S57.5,29.1,51.2,29.1z"/>
	</g>
	<g>
		<path class="st0" d="M63.7,24.5c-3.8,0-7-3.1-7-7s3.1-7,7-7s7,3.1,7,7S67.6,24.5,63.7,24.5z M63.7,11.4c-3.4,0-6.2,2.8-6.2,6.2
			s2.8,6.2,6.2,6.2s6.2-2.8,6.2-6.2S67.1,11.4,63.7,11.4z"/>
	</g>
	<g>
		<g>
			<g>
				<path class="st0" d="M45.8,67.8c1.8-2.8,3.9-6.1,4.4-9.5c0.4-2.9-1-5.5-3-7.5c-0.2-0.2-0.4,0.1-0.2,0.2c2.3,2.3,3.5,5.2,2.6,8.5
					c-0.8,2.9-2.5,5.6-4.1,8.1C45.4,67.8,45.6,68,45.8,67.8L45.8,67.8z"/>
			</g>
		</g>
	</g>
	<g>
		<g>
			<g>
				<path class="st0" d="M61.3,33.8c-1.4-1.8-2.5-3.7-1.7-6c0.7-2,2.4-3.2,4.4-3.5c0.2,0,0.1-0.3-0.1-0.3c-2.1,0.3-4,1.7-4.6,3.7
					c-0.8,2.5,0.3,4.5,1.8,6.4C61.2,34.2,61.4,33.9,61.3,33.8L61.3,33.8z"/>
			</g>
		</g>
	</g>
	<g>
		<g>
			<g>
				<path class="st0" d="M36.1,86.6c-0.4-0.9-0.5-3.2-2.1-3c-1,0.1-0.9,1.1-0.5,1.8c0.3,0.5,2,1.5,2,1.9c0.2,0.1,0.2,0.2-0.2,0.2
					c-0.1,0.1-0.2,0.1-0.3,0.2c-0.2,0.1-0.4,0.3-0.5,0.4c-0.7,0.7-1.6,2.4-1.4,3.5c0.2,1.1,1.1,0.7,1.7,0.1c0.8-0.9,1.5-2.8,1.1-4
					c-0.4-1.1-1.6-0.6-2.4-0.2c-1.7,0.7-3,1.8-4.1,3.2c-0.1,0.2,0.2,0.3,0.3,0.2c0.8-1.1,1.8-1.9,2.9-2.6c0.5-0.3,1.2-0.7,1.8-0.8
					c0.5-0.2,0.9-0.1,1.2,0.5c0,0.3,0,0.6,0,0.8c-0.1,0.6-0.2,1.4-0.6,1.9c-0.2,0.6-0.7,0.7-1.5,0.2c0.1-0.2,0.1-0.4,0.2-0.6
					c0.4-1.2,1-2.4,2.4-2.6c0.1,0,0.2-0.2,0.1-0.3c-0.4-0.3-0.7-0.7-1.1-1c-0.2-0.2-0.5-0.4-0.7-0.7c-0.4-0.3-0.3-0.4,0.3-0.5
					c0.9-0.3,0.6-0.1,0.8,0.7c0.1,0.3,0.2,0.6,0.3,0.9C35.9,86.9,36.2,86.7,36.1,86.6L36.1,86.6z"/>
			</g>
		</g>
	</g>
	<g>
		<g>
			<g>
				<path class="st0" d="M34.9,86.9c-1.5-0.5-3.1-1.1-4.6-1.6c-0.2-0.1-0.3,0.2-0.1,0.3c1.5,0.5,3.1,1.1,4.6,1.6
					C35,87.3,35.1,87,34.9,86.9L34.9,86.9z"/>
			</g>
		</g>
	</g>
	<g>
		<g>
			<g>
				<path class="st0" d="M103.9,83.6c0-0.8,0.3-1.6,0.9-2.2c0.5-0.5,0.9-0.5,0.8,0.3c-0.1,1.2-1.4,2.2-2.3,2.7
					c-0.1,0-0.1,0.1-0.1,0.2c0.1,0.4,1.1,5.6,2.4,4.2c0.6-0.6,0.3-2.3,0.1-3c-0.3-0.9-0.8-1.5-1.7-1.8c0,0.1,0,0.2,0,0.3
					c1.7-0.3,3-1.2,4-2.6c0.1-0.2-0.2-0.3-0.3-0.2c-0.9,1.3-2.2,2.1-3.8,2.4c-0.2,0-0.1,0.3,0,0.3c1.1,0.4,1.5,1.4,1.6,2.5
					c0,0.3,0,0.7,0,1c-0.8,0.2-1.2,0-1.3-0.6c-0.2-0.4-0.3-0.9-0.4-1.3c-0.2-0.8-0.3-1,0.3-1.6c1.1-1.1,1.9-2,2-3.7
					c0-0.1-0.1-0.2-0.2-0.2c-1.4,0.4-2.3,1.7-2.3,3.2C103.6,83.8,103.9,83.8,103.9,83.6L103.9,83.6z"/>
			</g>
		</g>
	</g>
	<g>
		<g>
			<g>
				<path class="st0" d="M104.3,84.6c0.9,0.4,1.8,0.9,2.6,1.3c0.2,0.1,0.4-0.2,0.2-0.3c-0.9-0.4-1.8-0.9-2.6-1.3
					C104.3,84.2,104.1,84.5,104.3,84.6L104.3,84.6z"/>
			</g>
		</g>
	</g>
	<g>
		<g>
			<g>
				<path class="st0" d="M36.1,87.3c2.1,0.4,4.1,0.2,6-0.8c0.4-0.2,0.1-0.8-0.3-0.6c-1.7,0.9-3.6,1.1-5.5,0.7
					C35.9,86.6,35.7,87.2,36.1,87.3L36.1,87.3z"/>
			</g>
		</g>
	</g>
	<g>
		<g>
			<g>
				<path class="st0" d="M98.7,84.9c1.5,0.1,3,0,4.5-0.4c0.4-0.1,0.2-0.7-0.2-0.6c-1.4,0.3-2.9,0.4-4.3,0.3
					C98.2,84.2,98.2,84.9,98.7,84.9L98.7,84.9z"/>
			</g>
		</g>
	</g>
	<g>
		<g>
			<g>
				<path class="st0" d="M48.2,51.3C47.1,50,46,48.6,45.5,47c-0.5-1.7-0.2-4.1,1.6-5c0.8-0.4,2-0.3,2.7,0.4c0.9,1,0.3,2.3-0.1,3.4
					c-0.3,0.9-0.6,2-0.1,3c1.1,2,3.4,0.7,4.3-0.7c0.6-0.9,1.3-2,2.5-1.3c0.7,0.4,0.8,1.1,1.3,1.6c0.5,0.6,1.2,0.8,1.8,0.2
					c0.3-0.3-0.2-0.7-0.5-0.5c-0.4,0.4-1.6-1.4-1.9-1.7c-0.4-0.3-0.9-0.6-1.4-0.6c-1.1-0.1-1.7,0.7-2.2,1.6c-0.3,0.6-0.7,1-1.2,1.3
					c-1,0.6-2.3,0.2-2.3-1.2c0-0.9,0.5-1.8,0.7-2.7c0.3-1.2,0.3-2.3-0.7-3.2c-1.8-1.5-4.3-0.2-5,1.8c-1.2,3.1,0.8,6.1,2.8,8.3
					C48,52.1,48.5,51.6,48.2,51.3L48.2,51.3z"/>
			</g>
		</g>
	</g>
	<g>
		<g>
			<g>
				<path class="st0" d="M53.1,40.4c-0.5,0.6-0.7,1.2-0.8,1.9c0,0.1,0.1,0.3,0.2,0.3c0.8,0.1,2-0.1,2.1-1.1c0.1-0.8-0.7-1.6-1.5-1.2
					c-0.4,0.2,0,0.8,0.3,0.6c0.3-0.2,0.6,0.4,0.4,0.7c-0.2,0.4-0.8,0.5-1.2,0.4c0.1,0.1,0.2,0.2,0.2,0.3c0-0.6,0.2-1.1,0.6-1.5
					C53.9,40.6,53.4,40.1,53.1,40.4L53.1,40.4z"/>
			</g>
		</g>
	</g>
	<g>
		<g>
			<g>
				<path class="st0" d="M41.6,33.5c-0.5,1.4-0.6,3.6,1.2,4.2c1.8,0.6,2.8-1.4,3.6-2.6c0.4-0.7,0.9-1.2,1.7-1.4
					c0.6-0.1,1.2,0.1,1.7,0.1c0.8,0.1,1.6,0.1,2.2-0.4c1.5-1.2,0.7-3.2,0.1-4.6c-0.2-0.4-0.7-0.1-0.6,0.3c0.4,0.9,0.9,2,0.6,3
					c-0.4,1.2-1.5,1.1-2.5,0.9c-0.9-0.1-1.7-0.2-2.5,0.2c-0.7,0.4-1.2,1.3-1.6,2c-0.2,0.3-0.3,0.5-0.5,0.8c-0.5,0.6-1.3,1.1-2.1,0.8
					c-1.3-0.4-0.8-2.4-0.5-3.3C42.4,33.3,41.7,33.1,41.6,33.5L41.6,33.5z"/>
			</g>
		</g>
	</g>
	<g>
		<g>
			<g>
				<path class="st0" d="M55.1,35.3c-0.2,0.6,0.1,1.3,0.6,1.6c0.6,0.3,1.2,0,1.6-0.5c0.3-0.5,0.2-1.2-0.3-1.5
					c-0.5-0.3-1.2-0.3-1.6,0.1c-0.3,0.3,0.2,0.8,0.5,0.5c0.4-0.4,1.2,0.1,0.9,0.6c-0.4,0.7-1.2,0.1-0.9-0.5
					C55.9,35.1,55.3,35,55.1,35.3L55.1,35.3z"/>
			</g>
		</g>
	</g>
	<g>
		<g>
			<g>
				<path class="st0" d="M58.3,44.1c-0.4-1-1.3-3.8,0.7-3.7c1.1,0,1.4,1.2,1.2,2.1c-0.1,0.4-0.2,0.7-0.5,1c-0.3,0.4-1.4,1-1.4,0.1
					c0-0.4-0.7-0.4-0.7,0c0,1.2,1.4,1.4,2.2,0.8c1-0.8,1.4-2.5,0.8-3.6c-0.6-1-1.9-1.3-2.7-0.5c-1.3,1.1-0.7,2.8-0.2,4.2
					C57.8,44.6,58.5,44.5,58.3,44.1L58.3,44.1z"/>
			</g>
		</g>
	</g>
	<g>
		<g>
			<g>
				<path class="st0" d="M60.6,12c-3.6,2.7-2.8,8.2,1.2,10c4.4,1.9,8.1-3,5.8-6.9c-0.9-1.6-2.8-2.6-4.7-1.9c-1.6,0.6-2.5,2.4-2,4.1
					c1.3,3.9,7.5,1.5,5.5-1.8c-0.7-1.2-3-1.2-3.2,0.4c-0.2,1.6,2.1,1.9,2.1,0.3c0-0.4-0.7-0.4-0.7,0c0.1-0.3,0.1-0.6,0.2-0.9
					c0.3,0.1,0.6,0.2,0.9,0.3c0.3,0.4,0.4,1.1,0.3,1.6c-0.3,0.9-1.1,1.4-2,1.5c-1.7,0.1-3-1.5-2.6-3.1c0.4-1.8,2.6-2.4,4.1-1.6
					c1.4,0.8,2.2,2.6,2,4.2c-0.1,1.5-1.2,3-2.6,3.5c-1.6,0.5-3.3-0.2-4.5-1.3c-2.3-2.2-2.2-5.8,0.4-7.7C61.3,12.3,61,11.7,60.6,12
					L60.6,12z"/>
			</g>
		</g>
	</g>
	<g>
		<g>
			<g>
				<path class="st0" d="M42,81.3c0.4-4.6,2.2-9.1,5.1-12.7c2.7-3.3,7.5-7.6,12.1-6.2c1.1,0.3,1.9,1,2.9,1.4
					c0.9,0.3,1.9,0.4,2.8,0.2c2.2-0.3,4.1-1.6,6-2.5c4.1-2,9.4-2.3,13,0.9c1.5,1.4,2.6,3.3,4.7,3.8c1.9,0.5,4.6-0.4,6,1.4
					c0.3,0.3,0.7-0.1,0.5-0.5c-1.1-1.5-3-1.3-4.7-1.4c-1.3-0.1-2.4-0.3-3.3-1.1c-0.9-0.8-1.7-1.7-2.5-2.6c-3-2.8-7.5-3.3-11.4-2.2
					c-2.4,0.7-4.5,2.3-6.9,3.1c-1.6,0.5-3.1,0.6-4.6-0.2c-1.1-0.5-2-1.1-3.2-1.3c-4.4-0.6-8.6,2.8-11.3,5.9
					c-3.3,3.8-5.4,8.7-5.8,13.8C41.3,81.7,42,81.7,42,81.3L42,81.3z"/>
			</g>
		</g>
	</g>
	<g>
		<g>
			<g>
				<path class="st0" d="M42,81.5c0.8-2.1,1.7-4.4,3.7-5.7c1-0.6,2.1-0.9,3.2-0.8c0.9,0.1,1.6,0.2,2.5-0.1c0.4-0.1,0.2-0.8-0.2-0.6
					c-1.2,0.4-2.3-0.1-3.6,0.1c-1,0.1-1.9,0.6-2.7,1.2c-1.9,1.4-2.8,3.7-3.6,5.8C41.3,81.7,41.9,81.9,42,81.5L42,81.5z"/>
			</g>
		</g>
	</g>
	<g>
		<g>
			<g>
				<path class="st0" d="M61.5,75c1.4,0.5,2.9,0.8,4.2-0.2c0.6-0.4,1.1-1.1,1.7-1.5c0.8-0.5,1.7-0.7,2.7-0.7c1.1,0.1,2,0.5,2.8,1.2
					c0.4,0.4,0.8,0.9,1.4,1.1c0.8,0.2,1.5-0.5,1.3-1.3c-0.1-0.4-0.7-0.2-0.6,0.2c-0.4-0.1-0.9-0.1-1.3-0.1c-0.1-0.1-0.3-0.3-0.4-0.4
					c-0.2-0.1-0.3-0.3-0.5-0.4c-0.4-0.2-0.8-0.4-1.2-0.6c-0.9-0.3-1.9-0.4-2.8-0.2c-0.9,0.2-1.7,0.6-2.3,1.2c-0.6,0.6-1.2,1.3-2,1.5
					c-0.9,0.2-1.9-0.1-2.7-0.4C61.2,74.2,61,74.8,61.5,75L61.5,75z"/>
			</g>
		</g>
	</g>
	<g>
		<g>
			<g>
				<path class="st0" d="M90.5,76.2c1.6,3.3,5.2-2.7,6.6-0.6c0.2,0.3,0.8,0,0.6-0.3c-0.5-0.8-1.4-1-2.3-0.7
					c-1.1,0.4-3.3,3.2-4.2,1.3C90.9,75.5,90.3,75.8,90.5,76.2L90.5,76.2z"/>
			</g>
		</g>
	</g>
	<g>
		<g>
			<g>
				<path class="st0" d="M41.6,84.6c1.2,2.3,3.2,5.6,6.2,5.3c2.9-0.3,7.7-3.7,9.8,0.1c0.2,0.4,0.8,0,0.6-0.3
					c-1.3-2.3-4.1-2.3-6.2-1.6c-1.8,0.6-4.2,1.9-6.1,0.8c-1.7-0.9-2.8-2.9-3.7-4.6C42,83.9,41.4,84.3,41.6,84.6L41.6,84.6z"/>
			</g>
		</g>
	</g>
	<g>
		<g>
			<g>
				<path class="st0" d="M79.1,90.6c1.1,1.3,3.1,1.5,4.6,0.8c2.2-0.9,3.3-3.1,5-4.6c1.2-1.1,2.5-1.7,4.2-1.7c1,0,1.9,0,2.8-0.5
					c1.7-1,2.4-3,3-4.7c0.1-0.4-0.5-0.6-0.6-0.2c-0.6,1.7-1.5,4-3.4,4.6c-1,0.3-2,0-3,0.2c-0.9,0.1-1.7,0.5-2.4,1
					c-1.6,1.1-2.6,2.7-3.9,4c-1.5,1.4-4.1,2.6-5.8,0.7C79.3,89.8,78.9,90.3,79.1,90.6L79.1,90.6z"/>
			</g>
		</g>
	</g>
	<g>
		<g>
			<g>
				<path class="st0" d="M44.6,95.4c1.8,0.8,3.5,1.8,5.1,3.1c1.2,1,2.3,2.2,3.7,3c1.2,0.6,2.5,0.7,3.8,0.4c2.2-0.5,4.2-0.9,6.5-0.5
					c0.4,0.1,0.6-0.6,0.2-0.6c-1.6-0.3-3.3-0.4-4.9-0.1c-2,0.4-3.6,1.1-5.6,0c-1.5-0.9-2.6-2.2-4-3.2c-1.4-1.1-2.9-1.9-4.5-2.6
					C44.5,94.6,44.2,95.2,44.6,95.4L44.6,95.4z"/>
			</g>
		</g>
	</g>
	<g>
		<g>
			<g>
				<path class="st0" d="M74.8,101.6c1.9,1.1,4.1,1.7,6.3,1.4c2.5-0.3,4.6-1.7,6.6-3c1.8-1.1,4.3-2.1,5.2-4.2
					c0.5-1.1,0.8-2.3,1.6-3.2c0.9-0.9,2-1.6,3.1-2.3c0.4-0.2,0-0.8-0.3-0.6c-1.5,0.9-3.1,1.9-4,3.4c-0.5,0.9-0.7,2-1.2,2.9
					c-0.7,1.1-2,1.7-3.1,2.4c-2,1.3-4.1,2.8-6.4,3.6c-2.5,0.9-5.2,0.3-7.5-0.9C74.7,100.8,74.4,101.4,74.8,101.6L74.8,101.6z"/>
			</g>
		</g>
	</g>
	<g>
		<g>
			<g>
				<path class="st0" d="M50.2,92.7c-0.3-0.7,0.3-1.6,1-1c0.6,0.5-0.3,1.2-0.7,0.7c-0.3-0.3-0.7,0.1-0.5,0.5
					c0.4,0.5,1.1,0.4,1.5,0.1c0.5-0.4,0.6-1.1,0.2-1.6c-0.4-0.5-1.2-0.7-1.7-0.3c-0.6,0.4-0.8,1.2-0.5,1.8
					C49.7,93.2,50.4,93.1,50.2,92.7L50.2,92.7z"/>
			</g>
		</g>
	</g>
	<g>
		<g>
			<g>
				<path class="st0" d="M45.5,80.2c-0.3-0.9,0.9-1.6,1.3-0.6C47.3,80.4,46,80.9,45.5,80.2c-0.2-0.3-0.8,0-0.6,0.3
					c0.4,0.6,1.2,0.8,1.8,0.5c0.7-0.3,0.9-1.1,0.6-1.8c-0.3-0.7-1-1.1-1.7-0.8c-0.7,0.3-1.1,1.1-0.8,1.8
					C45.1,80.7,45.7,80.6,45.5,80.2L45.5,80.2z"/>
			</g>
		</g>
	</g>
	<g>
		<g>
			<g>
				<path class="st0" d="M75.2,67.4C75.2,67,75.7,66.8,76,67c0.3,0.2,0.3,0.7,0.1,0.9c-0.2,0.2-0.7,0.3-0.9,0.1
					c-0.2-0.2-0.1-0.6,0.2-0.8c0.4-0.2,0.1-0.8-0.3-0.6c-0.7,0.3-0.8,1.3-0.3,1.8c0.6,0.6,1.6,0.3,2-0.3c0.4-0.6,0.1-1.6-0.6-1.9
					c-0.8-0.3-1.7,0.4-1.5,1.3C74.7,68,75.3,67.8,75.2,67.4L75.2,67.4z"/>
			</g>
		</g>
	</g>
	<g>
		<g>
			<g>
				<path class="st0" d="M52.7,66.5c0-0.4,0.6-0.8,0.7-0.2c0.1,0.4-0.5,0.3-0.5,0.1c0.1-0.4-0.6-0.6-0.6-0.2c-0.1,0.6,0.3,1,0.8,1.1
					c0.5,0.1,0.9-0.4,0.9-0.9c0-0.5-0.4-1-1-1c-0.6,0-1.1,0.6-1.1,1.2C52,66.9,52.7,66.9,52.7,66.5L52.7,66.5z"/>
			</g>
		</g>
	</g>
	<g>
		<g>
			<g>
				<path class="st0" d="M67.7,58.3c0-0.8,1-1.1,1.3-0.3c0.1,0.3,0,0.9-0.4,0.8c-0.2,0-0.3-0.3-0.1-0.4c0.4-0.2,0.1-0.7-0.3-0.6
					c-0.6,0.3-0.6,1.2-0.1,1.5c0.7,0.5,1.5-0.2,1.6-0.9c0.1-0.8-0.5-1.5-1.3-1.6c-0.8,0-1.4,0.7-1.4,1.4
					C67,58.7,67.7,58.7,67.7,58.3L67.7,58.3z"/>
			</g>
		</g>
	</g>
	<g>
		<g>
			<g>
				<path class="st0" d="M70.8,106.9c0-0.7,0.9-1.1,1.2-0.3c0.2,0.6-0.6,0.9-0.9,0.4c-0.2-0.4-0.8,0-0.6,0.3
					c0.7,1.1,2.5,0.3,2.1-0.9c-0.2-0.6-0.7-1-1.3-0.9c-0.7,0.1-1.1,0.7-1.1,1.4C70.2,107.3,70.8,107.3,70.8,106.9L70.8,106.9z"/>
			</g>
		</g>
	</g>
	<g>
		<g>
			<g>
				<path class="st0" d="M91.1,89.1c0.4-0.4,1.2-0.4,1.2,0.3c0,0.6-0.8,0.6-0.9,0.1c-0.1-0.4-0.7-0.2-0.6,0.2
					c0.1,0.5,0.6,0.8,1.1,0.8c0.6,0,1-0.4,1-1c0.1-0.6-0.2-1.1-0.8-1.3c-0.5-0.2-1.2,0-1.6,0.4C90.4,88.9,90.8,89.4,91.1,89.1
					L91.1,89.1z"/>
			</g>
		</g>
	</g>
	<g>
		<g>
			<g>
				<path class="st0" d="M93,71.7c0-0.2,0.2-0.4,0.4-0.4c0.2,0,0.4,0.2,0.4,0.4C93.8,72.3,93,72.2,93,71.7c0-0.4-0.7-0.4-0.7,0
					c0,0.6,0.5,1.1,1.1,1.1c0.6,0,1-0.5,1-1.1c0-0.6-0.4-1.1-1-1.1c-0.6,0-1.1,0.5-1.1,1.1C92.3,72.1,93,72.1,93,71.7L93,71.7z"/>
			</g>
		</g>
	</g>
	<g>
		<path class="st0" d="M63,75.5l-2.1-4.1l-4.6-0.6l3.3-3.3L58.7,63l4.1,2.1l4.1-2.2l-0.7,4.6l3.4,3.2L65,71.3L63,75.5z M57.5,70.4
			l3.8,0.5l1.8,3.4l1.6-3.5l3.8-0.6l-2.8-2.6l0.6-3.8l-3.4,1.8l-3.4-1.7l0.7,3.8L57.5,70.4z"/>
	</g>
	<g>
		<path class="st0" d="M82.7,102.4l-1.2-3.4l-3.4-0.9l2.8-2.1l-0.2-3.6l2.9,2l3.3-1.3l-1,3.4l2.2,2.8l-3.5,0.1L82.7,102.4z
			 M79.2,97.9l2.6,0.7l0.9,2.6l1.5-2.3l2.7-0.1l-1.7-2.1l0.8-2.6l-2.6,1l-2.3-1.6l0.2,2.8L79.2,97.9z"/>
	</g>
	<g id="Layer_3_2_">
		<g>
			<path class="st0" d="M29.9,118.3c0,0,2.8-3.3,6.8-2.6l-0.5-9.2l-3.8,1.3l-2.6,0.8l-2.7,1.2l-2.2,0.8l-1.1,1.2l-0.1,1.6v1l0.9,0.8
				l1.2,0.9L29.9,118.3z"/>
		</g>
		<g>
			<g>
				<g>
					<path class="st0" d="M27.5,110.1L27.5,110.1c-0.4,0-0.7,0.3-0.7,0.7c0,0,0,0,0,0.1c0.1,0.5,0.5,0.8,1,0.6
						c0.3-0.2,0.5-0.4,0.8-0.6c0.7-0.4,0.2-1.4-0.5-1.2c-0.3,0.1-0.5,0.2-0.9,0.3c-0.7,0.3-0.2,1.4,0.5,1.2c0.2-0.1,0.3-0.1,0.5-0.1
						c-0.1-0.4-0.2-0.8-0.3-1.3c-0.1,0.1-0.2,0.1-0.3,0.1c0.2,0.4,0.3,0.8,0.5,1.2c1.7-1,3.7-1.6,5.6-2.1c-0.1-0.4-0.2-0.8-0.3-1.3
						c-1.1,0.3-2.1,0.7-3,1.4c-0.7,0.5,0,1.6,0.7,1.1c0.8-0.6,1.7-1,2.7-1.2c0.8-0.2,0.5-1.5-0.3-1.3c-2.1,0.5-4.1,1.1-5.9,2.2
						c-0.6,0.4-0.2,1.5,0.5,1.2c0.1-0.1,0.2-0.1,0.3-0.1c0.8-0.3,0.5-1.5-0.3-1.3c-0.2,0.1-0.3,0.1-0.5,0.1c0.2,0.4,0.3,0.8,0.5,1.2
						c0.2-0.1,0.4-0.1,0.6-0.2c-0.2-0.4-0.3-0.8-0.5-1.2c-0.3,0.2-0.6,0.5-0.8,0.6c0.3,0.2,0.7,0.4,1,0.6c0,0,0,0,0-0.1
						c-0.2,0.2-0.4,0.4-0.7,0.7h0C28.3,111.4,28.3,110,27.5,110.1L27.5,110.1z"/>
				</g>
			</g>
		</g>
		<g>
			<g>
				<g>
					<path class="st0" d="M28,111.6c0.4-0.2,0.8-0.4,1.2-0.5c0.7-0.3,0.2-1.4-0.5-1.2c-0.4,0.1-0.7,0.2-1.1,0.3
						c0.2,0.4,0.3,0.8,0.5,1.2c0.3-0.2,0.6-0.4,0.9-0.6c0.7-0.4,0.2-1.3-0.5-1.2c-0.2,0-0.4,0.1-0.7,0.1c0.1,0.4,0.2,0.8,0.3,1.2
						c0.4-0.2,0.7-0.4,1.1-0.6c0.8-0.3,0.5-1.5-0.3-1.3c-0.4,0.1-0.9,0.3-1.3,0.4c0.2,0.4,0.3,0.8,0.5,1.2c0.2-0.2,0.5-0.3,0.7-0.3
						c-0.1-0.4-0.2-0.8-0.3-1.3c-0.2,0.1-0.5,0.2-0.7,0.2c0.2,0.4,0.3,0.8,0.5,1.2c1.5-0.8,3.2-0.9,4.7-1.6c0.7-0.3,0.2-1.4-0.5-1.2
						c-0.7,0.2-1.4,0.4-2.2,0.7c0.1,0.4,0.2,0.8,0.3,1.3c0.8-0.3,1.6-0.6,2.5-0.8c0.8-0.2,0.5-1.4-0.3-1.3c-0.8,0.2-1.7,0.4-2.5,0.8
						c-0.8,0.3-0.5,1.5,0.3,1.3c0.7-0.2,1.4-0.4,2.2-0.7c-0.2-0.4-0.3-0.8-0.5-1.2c-0.8,0.4-1.7,0.4-2.6,0.7
						c-0.7,0.2-1.5,0.6-2.2,0.9c-0.7,0.3-0.2,1.4,0.5,1.2c0.2-0.1,0.5-0.1,0.7-0.2c0.8-0.3,0.4-1.6-0.3-1.3
						c-0.4,0.1-0.7,0.3-1.1,0.5c-0.6,0.4-0.2,1.4,0.5,1.2c0.4-0.1,0.9-0.3,1.3-0.4c-0.1-0.4-0.2-0.8-0.3-1.3c-0.5,0.2-1,0.4-1.4,0.8
						s-0.4,1.3,0.3,1.2c0.3-0.1,0.7-0.1,1-0.1c-0.2-0.4-0.3-0.8-0.5-1.2c-0.3,0.2-0.6,0.4-0.9,0.6C26.9,110.7,27.3,111.7,28,111.6
						c0.3-0.2,0.7-0.3,1.1-0.4c-0.2-0.4-0.3-0.8-0.5-1.2c-0.4,0.2-0.8,0.4-1.2,0.5C26.6,110.8,27.3,111.9,28,111.6L28,111.6z"/>
				</g>
			</g>
		</g>
		<g>
			<g>
				<g>
					<path class="st0" d="M30.4,116.9c0.3-0.2,0.7-0.3,1-0.5c-0.3-0.3-0.5-0.7-0.8-1c-0.3,0.3-0.5,0.6-0.8,0.9
						c-0.4,0.5,0,1.2,0.6,1.1c0.3,0,0.4-0.1,0.6-0.2c-0.3-0.3-0.5-0.7-0.8-1c-0.2,0.2-0.4,0.4-0.6,0.7c-0.4,0.6,0.4,1.2,0.9,0.9
						c0.1,0,0.1-0.1,0.2-0.1c-0.3-0.3-0.6-0.6-0.9-0.9c-0.1,0.1-0.2,0.1-0.2,0.2c-0.6,0.4,0.2,1.5,0.8,1c0.1-0.1,0.2-0.1,0.3-0.2
						c-0.3-0.3-0.6-0.6-0.9-0.9c0.1,0,0.1-0.1,0.1-0.1c0.2,0.4,0.4,0.7,0.6,1.1c0.8-0.7,1.7-1.3,2.7-1.8c-0.2-0.4-0.4-0.8-0.7-1.1
						c-0.6,0.4-1.1,0.7-1.7,1.1c-0.7,0.5-0.1,1.5,0.7,1.1c0.8-0.4,1.6-0.8,2.3-1.3c0.7-0.4,0.1-1.6-0.7-1.1c-0.5,0.3-1,0.5-1.5,0.8
						c-0.8,0.4-0.1,1.5,0.7,1.1c0.9-0.4,1.7-0.7,2.6-1.1c-0.1-0.4-0.2-0.8-0.3-1.3c-0.6,0.2-1.1,0.4-1.6,0.7
						c-0.7,0.3-0.6,1.3,0.2,1.3c1,0,2-0.7,3-0.5c0-0.4,0-0.8,0-1.3c-0.1,0-0.2,0.1-0.3,0.1c-0.7,0.2-0.6,1,0,1.3
						c0.3,0.1,0.5,0.1,0.8-0.1c0.8-0.4,0.1-1.5-0.7-1.1c0.1,0,0.2-0.1,0.2-0.1c0,0.4,0,0.8,0,1.3c0.1,0,0.2-0.1,0.3-0.1
						c0.6-0.2,0.7-1.2,0-1.3c-1.2-0.2-2.2,0.5-3.4,0.5c0.1,0.4,0.1,0.9,0.2,1.3c0.6-0.2,1.1-0.4,1.6-0.7c0.8-0.3,0.4-1.6-0.3-1.3
						c-1,0.4-2,0.8-3,1.2c0.2,0.4,0.4,0.8,0.7,1.1c0.5-0.3,1-0.5,1.5-0.8c-0.2-0.4-0.4-0.8-0.7-1.1c-0.8,0.5-1.5,0.9-2.3,1.3
						c0.2,0.4,0.4,0.8,0.7,1.1c0.6-0.4,1.1-0.7,1.7-1.1c0.7-0.4,0.1-1.6-0.7-1.1c-1,0.6-2,1.2-3,2c-0.5,0.4,0,1.3,0.6,1.1
						c0.3-0.1,0.5-0.2,0.7-0.5c0.3-0.5-0.4-1.3-0.9-0.9c-0.1,0.1-0.2,0.1-0.3,0.2c0.3,0.3,0.5,0.7,0.8,1c0.2-0.2,0.3-0.3,0.4-0.5
						c0.4-0.6-0.3-1.2-0.9-0.9c-0.1,0-0.1,0.1-0.2,0.1c0.3,0.3,0.6,0.6,0.9,0.9c0.1-0.1,0.2-0.3,0.3-0.4c0.6-0.6-0.2-1.3-0.8-1
						c-0.1,0-0.2,0.1-0.3,0.1c0.2,0.4,0.4,0.7,0.6,1.1c0.3-0.3,0.5-0.6,0.8-0.9c0.6-0.6-0.2-1.4-0.8-1c-0.3,0.2-0.7,0.3-1,0.5
						C29,116.1,29.6,117.3,30.4,116.9L30.4,116.9z"/>
				</g>
			</g>
		</g>
		<g>
			<g>
				<g>
					<path class="st0" d="M36.3,114.8c0,0.2,0,0.4,0,0.6c-0.1,0.1-0.2,0.2-0.2,0.2c0,0,0,0,0,0c0.1-0.1,0.3-0.2,0.3-0.4
						c0.1-0.2,0-0.4-0.1-0.5c-0.2-0.3-0.6-0.4-0.9-0.2c-0.2,0.1-0.3,0.3-0.3,0.4s0,0.4,0.1,0.6c0.1,0.1,0.2,0.3,0.4,0.3
						c0.2,0.1,0.4,0,0.5-0.1C36.3,115.5,36.5,115.1,36.3,114.8L36.3,114.8z"/>
				</g>
			</g>
		</g>
		<g>
			<path class="st0" d="M112,118.4l1.5-0.4l2-0.9l1.3-1.1l1.1-1l0.8-0.8v-1.3l-0.7-1.5l-3.7-1.9l-3-1.2c0,0-3.8-1.1-4-1.1
				c-0.2-0.1-2.6-0.6-2.6-0.6l0.1,8.8C104.8,115.3,109.9,114.7,112,118.4z"/>
		</g>
		<g>
			<g>
				<g>
					<path class="st0" d="M105.9,107.1c-0.2-0.1-0.3-0.3-0.5-0.4c-0.1,0.1-0.1,0.2-0.2,0.3C105.5,107,105.7,107.1,105.9,107.1
						c0.1-0.1,0.2-0.2,0.2-0.2c-0.3-0.1-0.7-0.2-0.9-0.4c-0.1,0.1-0.1,0.2-0.1,0.3c0.6,0.1,1.2,0.3,1.8,0.4c0-0.1,0-0.2,0.1-0.3
						c-0.5,0-0.9-0.1-1.4-0.3c-0.2-0.1-0.3,0.2-0.1,0.3c2.1,0.7,4.4,0.8,6.5,1.8c1.8,0.8,4.3,1.6,5.5,3.3c0.1-0.1,0.2-0.1,0.3-0.2
						c-1.8-1.4-3.7-2.5-5.8-3.3c0,0.1-0.1,0.2-0.1,0.3c1,0.2,2,0.5,3,0.9c0.2,0.1,0.4-0.2,0.2-0.3c-0.6-0.3-1.1-0.5-1.6-0.8
						c-0.2-0.1-0.3,0.2-0.2,0.3c0.6,0.4,1.1,0.9,1.6,1.4c0.1,0.2,0.4-0.1,0.2-0.2c-0.5-0.6-1-1-1.6-1.4c-0.1,0.1-0.1,0.2-0.2,0.3
						c0.6,0.3,1.1,0.5,1.6,0.8c0.1-0.1,0.1-0.2,0.2-0.3c-1-0.4-2-0.8-3.1-1c-0.2-0.1-0.3,0.2-0.1,0.3c2.1,0.7,4,1.8,5.7,3.2
						c0.1,0.1,0.4,0,0.3-0.2c-1.2-1.7-3.5-2.4-5.3-3.3c-2.2-1-4.6-1.2-6.9-2c0,0.1-0.1,0.2-0.1,0.3c0.5,0.2,0.9,0.3,1.4,0.3
						c0.2,0,0.2-0.3,0.1-0.3c-0.6-0.1-1.2-0.3-1.8-0.4c-0.2,0-0.3,0.2-0.1,0.3c0.3,0.2,0.6,0.4,1,0.4c0.2,0.1,0.3-0.2,0.1-0.3
						c-0.5-0.2-0.3-0.2-0.8-0.3c-0.1,0-0.3,0.2-0.2,0.3c0.2,0.1,0.3,0.3,0.5,0.4C105.8,107.5,106.1,107.3,105.9,107.1L105.9,107.1z"
						/>
				</g>
			</g>
		</g>
		<g>
			<g>
				<g>
					<path class="st0" d="M118.5,113.6c0.1-0.1,0.3-0.1,0.4-0.2c-0.1-0.1-0.1-0.2-0.2-0.3c-0.1,0-0.1,0.1-0.1,0.1
						c-0.2,0.1,0,0.4,0.2,0.3c0.1,0,0.1-0.1,0.1-0.1c0.2-0.1,0-0.4-0.2-0.3c-0.1,0.1-0.3,0.1-0.4,0.2
						C118.2,113.5,118.3,113.8,118.5,113.6L118.5,113.6z"/>
				</g>
			</g>
		</g>
		<g>
			<g>
				<g>
					<path class="st0" d="M23.8,113.4c-0.1,0-0.2,0-0.4,0c0,0.1,0,0.2,0,0.3C23.6,113.8,23.6,113.6,23.8,113.4
						c0.1-0.2,0.1-0.5,0.2-0.8c0.1-0.2-0.2-0.3-0.3-0.1c-0.2,0.3-0.3,0.7-0.3,1c0.1,0,0.2,0,0.3,0c0-0.2-0.3-0.3-0.4-0.2
						c-0.1,0.2,0.1,0.4,0.3,0.3c-0.1-0.1-0.1-0.2-0.1-0.3c-0.1,0-0.1,0.1-0.2,0.1c-0.2,0.1-0.1,0.3,0.1,0.3c0.4,0,0.8,0,1.2,0
						c0.2,0,0.2-0.3,0-0.3c-0.4,0-0.8,0-1.2,0c0,0.1,0.1,0.2,0.1,0.3c0.1,0,0.1-0.1,0.2-0.1c0.2-0.1,0.1-0.4-0.1-0.3
						c0,0,0.1,0.1,0.1,0.1c0,0.1-0.1,0.1-0.1,0.1l0,0c-0.1,0-0.1,0-0.1,0c0,0,0-0.1-0.1-0.1c0,0.2,0.3,0.2,0.3,0
						c0-0.3,0.1-0.6,0.2-0.8c-0.1-0.1-0.2-0.1-0.3-0.1c-0.1,0.2-0.1,0.3-0.2,0.4c0,0.1-0.1,0.4-0.1,0.4c-0.2,0-0.2,0.3,0,0.3
						c0.2,0,0.3,0,0.5-0.1C24,113.7,24,113.4,23.8,113.4L23.8,113.4z"/>
				</g>
			</g>
		</g>
	</g>
</g>
</svg>
