<?xml version="1.0" encoding="utf-8"?>
<!-- Generator: Adobe Illustrator 24.0.1, SVG Export Plug-In . SVG Version: 6.00 Build 0)  -->
<svg version="1.1" id="Layer_1" xmlns="http://www.w3.org/2000/svg" xmlns:xlink="http://www.w3.org/1999/xlink" x="0px" y="0px"
	 viewBox="0 0 141.7 141.7" style="enable-background:new 0 0 141.7 141.7;" xml:space="preserve">
<style type="text/css">
	.st0{enable-background:new    ;}
</style>
<g id="Layer_1_1_">
</g>
<g id="Layer_1_2_">
</g>
<g id="Layer_1_3_">
</g>
<g id="Layer_1_4_">
</g>
<g id="Layer_1_5_">
</g>
<g id="Layer_3">
</g>
<g id="Layer_3_1_">
</g>
<g>
	<path d="M70.8,127.8c-14.8,0-28.7-5.8-39.2-16.2S15.4,87.1,15.4,72.3s5.8-28.7,16.2-39.2C42.1,22.6,56,16.8,70.8,16.8
		c14.8,0,28.7,5.8,39.2,16.2c10.5,10.5,16.2,24.4,16.2,39.2s-5.8,28.7-16.2,39.2S85.7,127.8,70.8,127.8z M70.8,17.5
		c-14.6,0-28.4,5.7-38.7,16.1C21.7,43.9,16,57.7,16,72.3c0,14.6,5.7,28.4,16.1,38.7c10.4,10.4,24.1,16.1,38.7,16.1
		s28.4-5.7,38.7-16.1c10.4-10.4,16.1-24.1,16.1-38.7c0-14.6-5.7-28.4-16.1-38.7C99.2,23.2,85.5,17.5,70.8,17.5z"/>
</g>
<g>
	<path d="M69.8,118.3c-25.5,0-46.3-20.8-46.3-46.3c0-25.5,20.8-46.3,46.3-46.3s46.3,20.8,46.3,46.3
		C116.1,97.6,95.3,118.3,69.8,118.3z M69.8,26.6c-25,0-45.4,20.4-45.4,45.4s20.4,45.4,45.4,45.4c25,0,45.4-20.4,45.4-45.4
		S94.8,26.6,69.8,26.6z"/>
</g>
<g>
	<path d="M70.5,123.2c-13.6,0-26.4-5.3-36-14.9s-14.9-22.4-14.9-36s5.3-26.4,14.9-36s22.4-14.9,36-14.9s26.4,5.3,36,14.9
		s14.9,22.4,14.9,36s-5.3,26.4-14.9,36S84.1,123.2,70.5,123.2z M70.5,21.8c-13.5,0-26.1,5.2-35.7,14.8c-9.5,9.5-14.8,22.2-14.8,35.7
		s5.2,26.1,14.8,35.7c9.5,9.5,22.2,14.8,35.7,14.8s26.1-5.2,35.7-14.8c9.5-9.5,14.8-22.2,14.8-35.7s-5.2-26.1-14.8-35.7
		C96.7,27.1,84,21.8,70.5,21.8z"/>
</g>
<g>
	<g>
		<path d="M105.8,73.7c-0.1,0-0.1,0-0.2,0c0,0-0.1,0-0.1,0c-0.6,19.2-16.3,34.6-35.6,34.6c-19,0-34.6-14.9-35.6-33.7
			c-0.1,0-0.2-0.1-0.3-0.1c-0.1,0-0.1-0.1-0.2-0.1c0.9,19.1,16.7,34.4,36.1,34.4c19.6,0,35.6-15.7,36.1-35.1
			C105.8,73.7,105.8,73.7,105.8,73.7z"/>
	</g>
	<g>
		<path d="M69.8,37c18.8,0,34.2,14.6,35.5,33c0.1,0,0.2,0.1,0.3,0.1c0,0,0.1,0.1,0.1,0.1c-1.3-18.8-16.9-33.6-36-33.6
			c-19.2,0-35,15.1-36,34.1c0.1-0.1,0.3-0.1,0.5-0.2C35.4,51.8,50.9,37,69.8,37z"/>
	</g>
</g>
<g>
	<g>
		<path d="M62.6,66.6C62.6,66.6,62.6,66.6,62.6,66.6c0.1,0,0.1,0,0.1,0c1.7-2.2,4.4-3.6,7.4-3.6c2.9,0,5.6,1.4,7.3,3.5
			c0.4,0,0.7-0.1,1.1,0c-1.9-2.6-4.9-4.4-8.4-4.4c-3.6,0-6.7,1.8-8.6,4.6c0.3-0.1,0.6-0.1,0.9-0.1C62.5,66.6,62.6,66.6,62.6,66.6z"
			/>
	</g>
	<g>
		<path d="M77.2,78.4c-1.7,2-4.3,3.3-7.1,3.3c-3,0-5.7-1.5-7.4-3.7c0,0-0.1,0-0.2,0c-0.4,0-0.7-0.1-1.1-0.2c1.8,2.9,5,4.8,8.7,4.8
			c3.4,0,6.5-1.7,8.3-4.3C78,78.4,77.6,78.4,77.2,78.4z"/>
	</g>
</g>
<g>
	<path d="M70.1,76.5c-2.5,0-4.5-2-4.5-4.5c0-2.5,2-4.5,4.5-4.5c2.5,0,4.5,2,4.5,4.5C74.6,74.5,72.6,76.5,70.1,76.5z M70.1,68.2
		c-2.1,0-3.8,1.7-3.8,3.8c0,2.1,1.7,3.8,3.8,3.8s3.8-1.7,3.8-3.8C73.9,69.9,72.2,68.2,70.1,68.2z"/>
</g>
<g>
	<g>
		<g>
			<path d="M61.9,27c0.4,3.4,0.9,6.8,1.5,10.2c0,0.1,0.2,0.1,0.2,0c-0.7-3.4-1.2-6.8-1.5-10.1C62,26.9,61.9,26.9,61.9,27L61.9,27z"
				/>
		</g>
	</g>
</g>
<g>
	<g>
		<g>
			<path d="M77.7,27c-0.7,3.4-1.4,6.8-2.2,10.3c0,0.1,0.1,0.2,0.2,0c0.7-3.4,1.4-6.8,2.2-10.3C77.8,26.9,77.7,26.9,77.7,27L77.7,27z
				"/>
		</g>
	</g>
</g>
<g>
	<g>
		<g>
			<path d="M92.7,32.6c-1.9,2.8-3.7,5.7-5.3,8.7c0,0.1,0.1,0.2,0.1,0.1c1.6-3,3.3-5.9,5.3-8.7C92.9,32.6,92.8,32.5,92.7,32.6
				L92.7,32.6z"/>
		</g>
	</g>
</g>
<g>
	<g>
		<g>
			<path d="M97.3,49.5c2.7-2.1,5.3-4.4,7.8-6.8c0.1-0.1,0-0.2-0.1-0.1c-2.4,2.4-5,4.7-7.7,6.8C97.2,49.4,97.3,49.6,97.3,49.5
				L97.3,49.5z"/>
		</g>
	</g>
</g>
<g>
	<g>
		<g>
			<path d="M103.5,60.3c3.1-1.1,6.3-2.3,9.4-3.5c0.1,0,0.1-0.2,0-0.2c-3.1,1.2-6.3,2.4-9.4,3.5C103.3,60.2,103.4,60.4,103.5,60.3
				L103.5,60.3z"/>
		</g>
	</g>
</g>
<g>
	<g>
		<g>
			<path d="M105.7,72.4c1.6,0,3.2,0,4.8-0.1c1.7-0.1,3.3-0.3,5-0.1c0.1,0,0.2-0.2,0-0.2c-1.5-0.2-3.1-0.1-4.6,0
				c-1.8,0.1-3.5,0.2-5.3,0.1C105.6,72.3,105.6,72.4,105.7,72.4L105.7,72.4z"/>
		</g>
	</g>
</g>
<g>
	<g>
		<g>
			<path d="M46.8,32.2c1.6,3.1,3.1,6.3,5,9.2c0.1,0.1,0.2,0,0.1-0.1c-1.9-2.9-3.4-6.1-5-9.2C46.9,32.1,46.8,32.1,46.8,32.2
				L46.8,32.2z"/>
		</g>
	</g>
</g>
<g>
	<g>
		<g>
			<path d="M34.6,42.8c2.4,2.3,4.9,4.6,7.5,6.9c0.1,0.1,0.2,0,0.1-0.1c-2.5-2.2-5-4.5-7.5-6.9C34.7,42.6,34.6,42.7,34.6,42.8
				L34.6,42.8z"/>
		</g>
	</g>
</g>
<g>
	<g>
		<g>
			<path d="M26.6,56.7c3.1,1.3,6.1,2.5,9.2,3.7c0.1,0,0.1-0.1,0-0.2c-3.1-1.2-6.2-2.4-9.2-3.7C26.5,56.4,26.5,56.6,26.6,56.7
				L26.6,56.7z"/>
		</g>
	</g>
</g>
<g>
	<g>
		<g>
			<path d="M23.9,72.5c3.4-0.1,6.7,0,10.1,0.1c0.1,0,0.1-0.2,0-0.2c-3.4-0.1-6.7-0.1-10.1-0.1C23.8,72.3,23.8,72.5,23.9,72.5
				L23.9,72.5z"/>
		</g>
	</g>
</g>
<g>
	<g>
		<g>
			<path d="M27,88.3c2.9-1.3,5.9-2.5,9-3.5c0.1,0,0.1-0.2,0-0.2c-3.1,1-6.1,2.2-9,3.5C26.8,88.2,26.9,88.4,27,88.3L27,88.3z"/>
		</g>
	</g>
</g>
<g>
	<g>
		<g>
			<path d="M34.5,101.6c0.1,0,0.1,0,0.2,0c0.1,0,0.1-0.2,0-0.2c-0.1,0-0.1,0-0.2,0C34.4,101.4,34.4,101.6,34.5,101.6L34.5,101.6z"/>
		</g>
	</g>
</g>
<g>
	<g>
		<g>
			<path d="M34.8,101.7c2.5-2.1,4.9-4.2,7.4-6.2c0.1-0.1,0-0.2-0.1-0.1c-2.5,2.1-4.9,4.2-7.4,6.2C34.6,101.6,34.7,101.8,34.8,101.7
				L34.8,101.7z"/>
		</g>
	</g>
</g>
<g>
	<g>
		<g>
			<path d="M47.3,111.9c1.3-2.9,3.4-5.4,4.6-8.3c0-0.1-0.1-0.1-0.2,0c-1.2,2.9-3.2,5.4-4.5,8.3C47.1,111.9,47.2,112,47.3,111.9
				L47.3,111.9z"/>
		</g>
	</g>
</g>
<g>
	<g>
		<g>
			<path d="M63.4,108.1c-0.7,3-1.2,6-1.7,9c0,0.1,0.1,0.2,0.2,0.1c0-0.1,0.1-0.2,0.1-0.2c0-0.1-0.1-0.2-0.1-0.1
				c0.5-1.2,0.6-2.9,0.8-4.2c0.3-1.5,0.6-3,0.9-4.5C63.6,108,63.5,108,63.4,108.1L63.4,108.1z"/>
		</g>
	</g>
</g>
<g>
	<g>
		<g>
			<path d="M76.2,108.2c0.3,1.6,0.6,3.3,0.9,4.9c0.1,0.8,0.3,1.5,0.4,2.3c0.1,0.6,0.1,1.4,0.4,1.8c0,0,0.1,0,0.1,0c0,0,0,0,0,0
				c0,0,0-0.1,0-0.1c0,0,0,0,0,0c-0.1-0.1-0.2,0-0.1,0.1c-0.1-0.1-0.2-1.2-0.2-1.4c0-0.3-0.1-0.6-0.2-0.9c-0.1-0.8-0.3-1.5-0.4-2.3
				c-0.3-1.5-0.5-3-0.8-4.5C76.3,108,76.2,108,76.2,108.2L76.2,108.2z"/>
		</g>
	</g>
</g>
<g>
	<g>
		<g>
			<path d="M87.8,103.7c1.4,2.7,2.8,5.3,4.3,7.9c0,0.1,0.2,0,0.1-0.1c-1.5-2.6-2.9-5.3-4.3-7.9C88,103.6,87.8,103.6,87.8,103.7
				L87.8,103.7z"/>
		</g>
	</g>
</g>
<g>
	<g>
		<g>
			<path d="M97.5,95.6c2.5,1.8,4.8,3.7,7.1,5.8c0.1,0.1,0.2,0,0.1-0.1c-2.2-2.1-4.6-4.1-7.1-5.9C97.5,95.4,97.4,95.5,97.5,95.6
				L97.5,95.6z"/>
		</g>
	</g>
</g>
<g>
	<g>
		<g>
			<path d="M103.8,84.5c2.9,1.3,5.7,2.5,8.7,3.6c0.1,0,0.1-0.1,0-0.2c-2.9-1.1-5.8-2.3-8.6-3.6C103.8,84.4,103.7,84.5,103.8,84.5
				L103.8,84.5z"/>
		</g>
	</g>
</g>
<g>
	<g>
		<g>
			<path d="M34.2,57.9c0.7,0.4,1.4,0.7,2.1,1.1c0.1,0,0.2-0.1,0.1-0.1c-0.7-0.4-1.4-0.7-2.1-1.1C34.1,57.7,34.1,57.9,34.2,57.9
				L34.2,57.9z"/>
		</g>
	</g>
</g>
<g>
	<g>
		<g>
			<path d="M34.6,56.6c0.7,0.4,1.4,0.8,2.2,1.2c0.1,0,0.2-0.1,0.1-0.1c-0.7-0.4-1.4-0.8-2.2-1.2C34.6,56.4,34.6,56.5,34.6,56.6
				L34.6,56.6z"/>
		</g>
	</g>
</g>
<g>
	<g>
		<g>
			<path d="M35.2,55.3c0.8,0.4,1.6,0.9,2.4,1.3c0.1,0,0.2-0.1,0.1-0.1c-0.8-0.4-1.6-0.9-2.4-1.3C35.2,55.1,35.1,55.3,35.2,55.3
				L35.2,55.3z"/>
		</g>
	</g>
</g>
<g>
	<g>
		<g>
			<path d="M35.9,54.2c0.7,0.4,1.4,0.8,2.2,1.2c0.1,0,0.2-0.1,0.1-0.1c-0.7-0.4-1.4-0.8-2.2-1.2C35.9,54,35.8,54.2,35.9,54.2
				L35.9,54.2z"/>
		</g>
	</g>
</g>
<g>
	<g>
		<g>
			<path d="M35.9,52.7c0.9,0.4,1.9,1,2.7,1.5c0.1,0.1,0.2-0.1,0.1-0.1c-0.9-0.6-1.8-1.1-2.7-1.5C35.9,52.5,35.8,52.7,35.9,52.7
				L35.9,52.7z"/>
		</g>
	</g>
</g>
<g>
	<g>
		<g>
			<path d="M37.3,52.1c0.7,0.4,1.3,0.8,2,1.2c0.1,0.1,0.2,0,0.1-0.1c-0.6-0.5-1.3-0.9-2-1.3C37.3,51.9,37.2,52,37.3,52.1L37.3,52.1z
				"/>
		</g>
	</g>
</g>
<g>
	<g>
		<g>
			<path d="M38.1,51c0.7,0.5,1.3,1,2,1.5c0.1,0.1,0.2,0,0.1-0.1c-0.7-0.5-1.3-1-2-1.5C38.1,50.7,38,50.9,38.1,51L38.1,51z"/>
		</g>
	</g>
</g>
<g>
	<g>
		<g>
			<path d="M39,49.9c0.5,0.6,1.1,1.1,1.8,1.5c0.1,0,0.2-0.1,0.1-0.1c-0.7-0.4-1.3-0.9-1.8-1.4C39,49.7,38.9,49.8,39,49.9L39,49.9z"
				/>
		</g>
	</g>
</g>
<g>
	<g>
		<g>
			<path d="M39.8,48.9c0.6,0.6,1.2,1.1,1.8,1.6c0.1,0.1,0.2,0,0.1-0.1c-0.6-0.5-1.2-1.1-1.8-1.6C39.8,48.7,39.7,48.8,39.8,48.9
				L39.8,48.9z"/>
		</g>
	</g>
</g>
<g>
	<g>
		<g>
			<path d="M41.5,46.6c0.5,0.6,1,1.2,1.6,1.8c0.1,0.1,0.2,0,0.1-0.1c-0.5-0.6-1-1.2-1.6-1.8C41.6,46.4,41.4,46.5,41.5,46.6
				L41.5,46.6z"/>
		</g>
	</g>
</g>
<g>
	<g>
		<g>
			<path d="M42.2,45.6c0.6,0.6,1.1,1.3,1.7,1.9c0.1,0.1,0.2,0,0.1-0.1c-0.6-0.6-1.1-1.3-1.7-1.9C42.3,45.4,42.1,45.5,42.2,45.6
				L42.2,45.6z"/>
		</g>
	</g>
</g>
<g>
	<g>
		<g>
			<path d="M43.4,44.8c0.5,0.6,0.9,1.2,1.4,1.8c0.1,0.1,0.2,0,0.1-0.1c-0.5-0.6-0.9-1.2-1.4-1.8C43.4,44.6,43.3,44.7,43.4,44.8
				L43.4,44.8z"/>
		</g>
	</g>
</g>
<g>
	<g>
		<g>
			<path d="M44.2,43.9c0.5,0.6,1.1,1.3,1.6,1.9c0.1,0.1,0.2,0,0.1-0.1c-0.5-0.6-1.1-1.3-1.6-1.9C44.3,43.7,44.1,43.8,44.2,43.9
				L44.2,43.9z"/>
		</g>
	</g>
</g>
<g>
	<g>
		<g>
			<path d="M44.4,42.3c0.7,0.9,1.5,1.9,2.2,2.8c0.1,0.1,0.2,0,0.1-0.1c-0.7-0.9-1.5-1.9-2.2-2.8C44.4,42.1,44.3,42.2,44.4,42.3
				L44.4,42.3z"/>
		</g>
	</g>
</g>
<g>
	<g>
		<g>
			<path d="M46.2,42.2c0.4,0.7,0.8,1.3,1.3,1.9c0.1,0.1,0.2,0,0.1-0.1c-0.5-0.6-0.9-1.2-1.3-1.8C46.3,42.1,46.2,42.2,46.2,42.2
				L46.2,42.2z"/>
		</g>
	</g>
</g>
<g>
	<g>
		<g>
			<path d="M47.4,41.4c0.4,0.7,0.7,1.3,1.2,1.9c0.1,0.1,0.2,0,0.1-0.1c-0.4-0.6-0.8-1.2-1.2-1.9C47.5,41.2,47.3,41.3,47.4,41.4
				L47.4,41.4z"/>
		</g>
	</g>
</g>
<g>
	<g>
		<g>
			<path d="M48.5,40.4c0.5,0.7,0.9,1.4,1.4,2.1c0.1,0.1,0.2,0,0.1-0.1c-0.5-0.7-0.9-1.4-1.4-2.1C48.5,40.3,48.4,40.4,48.5,40.4
				L48.5,40.4z"/>
		</g>
	</g>
</g>
<g>
	<g>
		<g>
			<path d="M49.4,39.8c0.4,0.8,0.7,1.5,1.2,2.3c0,0.1,0.2,0,0.1-0.1c-0.4-0.8-0.8-1.5-1.2-2.3C49.5,39.6,49.4,39.7,49.4,39.8
				L49.4,39.8z"/>
		</g>
	</g>
</g>
<g>
	<g>
		<g>
			<path d="M51.7,38.4c0.4,0.8,0.9,1.6,1.3,2.4c0,0.1,0.2,0,0.1-0.1c-0.4-0.8-0.9-1.6-1.3-2.4C51.8,38.2,51.6,38.3,51.7,38.4
				L51.7,38.4z"/>
		</g>
	</g>
</g>
<g>
	<g>
		<g>
			<path d="M53,37.8c0.2,0.5,0.5,1.1,0.7,1.6c0.1,0.3,0.2,0.8,0.5,0.9c0,0,0.1,0,0.1,0c0,0,0,0,0,0c0,0,0-0.1,0-0.1c0,0,0,0,0,0
				c0,0-0.1,0-0.1,0c0,0,0,0,0,0c-0.1,0,0,0.2,0.1,0.1c0,0-1-2.3-1.1-2.5C53.1,37.7,52.9,37.8,53,37.8L53,37.8z"/>
		</g>
	</g>
</g>
<g>
	<g>
		<g>
			<path d="M54.2,37.3c0.4,0.8,0.8,1.5,1.1,2.3c0,0.1,0.2,0,0.1-0.1c-0.4-0.8-0.8-1.5-1.1-2.3C54.3,37.1,54.1,37.2,54.2,37.3
				L54.2,37.3z"/>
		</g>
	</g>
</g>
<g>
	<g>
		<g>
			<path d="M55.2,36.8c0.4,0.7,0.7,1.5,1.1,2.2c0,0.1,0.2,0,0.1-0.1c-0.4-0.7-0.7-1.5-1.1-2.2C55.4,36.6,55.2,36.7,55.2,36.8
				L55.2,36.8z"/>
		</g>
	</g>
</g>
<g>
	<g>
		<g>
			<path d="M56.3,35.3c0.4,1.1,0.9,2.3,1.4,3.4c0,0.1,0.2,0,0.2,0c-0.4-1.1-0.9-2.3-1.4-3.4C56.4,35.1,56.2,35.2,56.3,35.3
				L56.3,35.3z"/>
		</g>
	</g>
</g>
<g>
	<g>
		<g>
			<path d="M58.1,35.9C58.1,35.9,58.1,35.9,58.1,35.9c0-0.1-0.1,0-0.2,0c0.2,0.8,0.4,1.6,0.6,2.4c0,0.1,0.2,0.1,0.2,0
				C58.6,37.5,58.3,36.7,58.1,35.9c0-0.2-0.2-0.2-0.2-0.1c0,0,0,0,0,0.1C58,36,58.1,36,58.1,35.9L58.1,35.9z"/>
		</g>
	</g>
</g>
<g>
	<g>
		<g>
			<path d="M59.4,35.6c0.1,0.8,0.3,1.6,0.5,2.4c0,0.1,0.2,0.1,0.2,0c-0.2-0.8-0.4-1.6-0.5-2.4C59.5,35.4,59.3,35.5,59.4,35.6
				L59.4,35.6z"/>
		</g>
	</g>
</g>
<g>
	<g>
		<g>
			<path d="M60.5,35.1c0.2,0.8,0.4,1.6,0.7,2.5c0,0.1,0.2,0.1,0.2,0c-0.2-0.8-0.4-1.6-0.7-2.5C60.7,35,60.5,35,60.5,35.1L60.5,35.1z
				"/>
		</g>
	</g>
</g>
<g>
	<g>
		<g>
			<path d="M61.7,34.6c0.2,0.9,0.4,1.9,0.6,2.8c0,0.1,0.2,0.1,0.2,0c-0.2-0.9-0.4-1.9-0.6-2.8C61.9,34.5,61.7,34.5,61.7,34.6
				L61.7,34.6z"/>
		</g>
	</g>
</g>
<g>
	<g>
		<g>
			<path d="M64.5,34.2c0,1,0.2,1.9,0.3,2.9c0,0.1,0.2,0.1,0.2,0c-0.2-0.9-0.3-1.9-0.3-2.8C64.7,34.1,64.5,34.1,64.5,34.2L64.5,34.2z
				"/>
		</g>
	</g>
</g>
<g>
	<g>
		<g>
			<path d="M65.9,34.1c0,0.9,0.1,1.8,0.1,2.8c0,0.1,0.2,0.1,0.2,0c0-0.9-0.1-1.8-0.1-2.8C66.1,34,65.9,34,65.9,34.1L65.9,34.1z"/>
		</g>
	</g>
</g>
<g>
	<g>
		<g>
			<path d="M67.2,34c-0.1,0.9-0.1,1.8-0.1,2.8c0,0.1,0.2,0.1,0.2,0c0-0.9,0-1.8,0.1-2.8C67.4,33.9,67.2,33.9,67.2,34L67.2,34z"/>
		</g>
	</g>
</g>
<g>
	<g>
		<g>
			<path d="M68.2,33.7c0,0.9,0.1,1.8,0.1,2.8c0,0.1,0.2,0.1,0.2,0c0-0.9-0.1-1.8-0.1-2.8C68.4,33.6,68.2,33.6,68.2,33.7L68.2,33.7z"
				/>
		</g>
	</g>
</g>
<g>
	<g>
		<g>
			<path d="M69.8,32.6c-0.1,1.3-0.1,2.7-0.2,4c0,0.1,0.2,0.1,0.2,0c0.1-1.3,0.1-2.7,0.2-4C69.9,32.5,69.8,32.5,69.8,32.6L69.8,32.6z
				"/>
		</g>
	</g>
</g>
<g>
	<g>
		<g>
			<path d="M71.1,33.9C71,34.8,71,35.7,71,36.6c0,0.1,0.2,0.1,0.2,0c0-0.9,0-1.8,0.1-2.6C71.3,33.8,71.1,33.8,71.1,33.9L71.1,33.9z"
				/>
		</g>
	</g>
</g>
<g>
	<g>
		<g>
			<path d="M72.4,33.9c-0.1,0.9-0.1,1.8-0.2,2.8c0,0.1,0.2,0.1,0.2,0c0.1-0.9,0.1-1.8,0.2-2.8C72.6,33.8,72.4,33.8,72.4,33.9
				L72.4,33.9z"/>
		</g>
	</g>
</g>
<g>
	<g>
		<g>
			<path d="M73.8,34.1c-0.1,0.9-0.1,1.8-0.2,2.6c0,0.1,0.2,0.1,0.2,0c0.1-0.9,0.1-1.8,0.2-2.6C74,34,73.8,34,73.8,34.1L73.8,34.1z"
				/>
		</g>
	</g>
</g>
<g>
	<g>
		<g>
			<path d="M75,34.5c-0.1,0.8-0.2,1.5-0.3,2.3c0,0.1,0.2,0.1,0.2,0c0.1-0.8,0.2-1.5,0.3-2.3C75.2,34.4,75,34.4,75,34.5L75,34.5z"/>
		</g>
	</g>
</g>
<g>
	<g>
		<g>
			<path d="M77.6,34.7c-0.2,0.9-0.3,1.8-0.5,2.6c0,0.1,0.1,0.2,0.2,0c0.2-0.9,0.3-1.8,0.5-2.6C77.8,34.6,77.7,34.6,77.6,34.7
				L77.6,34.7z"/>
		</g>
	</g>
</g>
<g>
	<g>
		<g>
			<path d="M79,35.1c-0.2,0.9-0.4,1.7-0.6,2.6c0,0,0.1,0,0.2,0c0-0.1,0-0.1,0.1-0.2c0.1-0.1-0.1-0.2-0.1-0.1
				c-0.1,0.2-0.1,0.1-0.1,0.3c0,0.1,0.1,0.1,0.2,0c0.2-0.9,0.4-1.7,0.6-2.6C79.2,35.1,79,35,79,35.1L79,35.1z"/>
		</g>
	</g>
</g>
<g>
	<g>
		<g>
			<path d="M80.3,35.6c-0.2,0.8-0.4,1.6-0.6,2.4c0,0.1,0.1,0.2,0.2,0c0.2-0.8,0.4-1.6,0.6-2.4C80.4,35.6,80.3,35.5,80.3,35.6
				L80.3,35.6z"/>
		</g>
	</g>
</g>
<g>
	<g>
		<g>
			<path d="M81.6,36c-0.2,0.8-0.4,1.6-0.7,2.4c0,0.1,0.1,0.2,0.1,0.1c0.3-0.8,0.6-1.6,0.7-2.4C81.8,35.9,81.6,35.9,81.6,36L81.6,36z
				"/>
		</g>
	</g>
</g>
<g>
	<g>
		<g>
			<path d="M83.2,35.2c-0.3,1.2-0.7,2.4-1.2,3.5c0,0.1,0.1,0.2,0.1,0.1c0.5-1.1,0.9-2.3,1.2-3.5C83.4,35.1,83.3,35,83.2,35.2
				L83.2,35.2z"/>
		</g>
	</g>
</g>
<g>
	<g>
		<g>
			<path d="M84.2,36.7c-0.3,0.9-0.7,1.7-1.1,2.5c0,0.1,0.1,0.2,0.1,0.1c0.4-0.8,0.8-1.7,1.2-2.6C84.4,36.6,84.2,36.6,84.2,36.7
				L84.2,36.7z"/>
		</g>
	</g>
</g>
<g>
	<g>
		<g>
			<path d="M85.4,37.4c-0.3,0.8-0.6,1.5-0.9,2.2c0,0.1,0.1,0.2,0.1,0.1c0.3-0.7,0.6-1.5,0.9-2.3C85.6,37.4,85.4,37.3,85.4,37.4
				L85.4,37.4z"/>
		</g>
	</g>
</g>
<g>
	<g>
		<g>
			<path d="M86.5,38c-0.3,0.8-0.7,1.5-1.1,2.2c0,0.1,0.1,0.2,0.1,0.1c0.4-0.7,0.8-1.5,1.1-2.3C86.7,38,86.5,37.9,86.5,38L86.5,38z"
				/>
		</g>
	</g>
</g>
<g>
	<g>
		<g>
			<path d="M87.6,38.7c-0.3,0.6-0.7,1.3-1,1.9c0,0.1,0.1,0.2,0.1,0.1c0.3-0.6,0.7-1.3,1-1.9C87.8,38.6,87.7,38.5,87.6,38.7
				L87.6,38.7z"/>
		</g>
	</g>
</g>
<g>
	<g>
		<g>
			<path d="M90,39.7c-0.5,0.7-0.9,1.5-1.4,2.2c-0.1,0.1,0.1,0.2,0.1,0.1c0.5-0.7,0.9-1.5,1.4-2.2C90.2,39.7,90.1,39.6,90,39.7
				L90,39.7z"/>
		</g>
	</g>
</g>
<g>
	<g>
		<g>
			<path d="M91.1,40.4c-0.4,0.8-0.9,1.5-1.5,2.2c-0.1,0.1,0,0.2,0.1,0.1c0.6-0.7,1.1-1.5,1.5-2.3C91.3,40.4,91.2,40.3,91.1,40.4
				L91.1,40.4z"/>
		</g>
	</g>
</g>
<g>
	<g>
		<g>
			<path d="M92,41.3c-0.4,0.7-0.9,1.4-1.5,2.1c-0.1,0.1,0,0.2,0.1,0.1c0.6-0.7,1.1-1.3,1.5-2.1C92.2,41.3,92.1,41.2,92,41.3L92,41.3
				z"/>
		</g>
	</g>
</g>
<g>
	<g>
		<g>
			<path d="M93.3,42.2c-0.6,0.6-1.2,1.3-1.8,2c-0.1,0.1,0,0.2,0.1,0.1c0.5-0.7,1.1-1.3,1.8-2C93.5,42.2,93.4,42.1,93.3,42.2
				L93.3,42.2z"/>
		</g>
	</g>
</g>
<g>
	<g>
		<g>
			<path d="M94.9,42.1c-0.8,0.9-1.5,1.7-2.4,2.6c-0.1,0.1,0,0.2,0.1,0.1c0.8-0.8,1.6-1.7,2.4-2.6C95.1,42.2,95,42.1,94.9,42.1
				L94.9,42.1z"/>
		</g>
	</g>
</g>
<g>
	<g>
		<g>
			<path d="M95.2,43.9c-0.5,0.6-1.1,1.2-1.6,1.8c-0.1,0.1,0,0.2,0.1,0.1c0.5-0.6,1.1-1.2,1.6-1.8C95.4,43.9,95.3,43.8,95.2,43.9
				L95.2,43.9z"/>
		</g>
	</g>
</g>
<g>
	<g>
		<g>
			<path d="M96.4,44.8c-0.6,0.5-1.1,1.1-1.7,1.8c-0.1,0.1,0,0.2,0.1,0.1c0.5-0.6,1.1-1.2,1.7-1.8C96.6,44.9,96.5,44.8,96.4,44.8
				L96.4,44.8z"/>
		</g>
	</g>
</g>
<g>
	<g>
		<g>
			<path d="M97,45.9c-0.4,0.5-0.9,1-1.5,1.5c-0.1,0.1,0,0.2,0.1,0.1c0.5-0.5,1-1,1.5-1.5C97.3,45.9,97.1,45.8,97,45.9L97,45.9z"/>
		</g>
	</g>
</g>
<g>
	<g>
		<g>
			<path d="M98.2,46.7c-0.6,0.5-1.2,1-1.8,1.5c-0.1,0.1,0,0.2,0.1,0.1c0.6-0.5,1.2-1,1.8-1.5C98.4,46.8,98.3,46.6,98.2,46.7
				L98.2,46.7z"/>
		</g>
	</g>
</g>
<g>
	<g>
		<g>
			<path d="M99.8,48.7c-0.5,0.5-1.1,1.1-1.6,1.6c-0.1,0.1,0,0.2,0.1,0.1c0.5-0.5,1.1-1.1,1.6-1.6C100,48.8,99.9,48.7,99.8,48.7
				L99.8,48.7z"/>
		</g>
	</g>
</g>
<g>
	<g>
		<g>
			<path d="M98.8,51.4c0.7-0.5,1.4-1.1,2.1-1.6c0.1-0.1,0-0.2-0.1-0.1c-0.7,0.5-1.4,1.1-2.1,1.6C98.7,51.3,98.8,51.4,98.8,51.4
				L98.8,51.4z"/>
		</g>
	</g>
</g>
<g>
	<g>
		<g>
			<path d="M99.6,52.5c0.7-0.5,1.3-1,2-1.4c0.1-0.1,0-0.2-0.1-0.1c-0.7,0.4-1.4,0.9-2.1,1.5C99.4,52.4,99.5,52.5,99.6,52.5
				L99.6,52.5z"/>
		</g>
	</g>
</g>
<g>
	<g>
		<g>
			<path d="M100.1,53.2C100.1,53.2,100.1,53.2,100.1,53.2c-0.1,0-0.1,0-0.1,0c0,0.1,0,0.1,0,0.2c0,0,0,0.1,0.1,0.1
				c0.3,0,0.7-0.4,1-0.5c0.5-0.3,0.9-0.6,1.4-0.9c0.1-0.1,0-0.2-0.1-0.1c-0.4,0.2-0.8,0.5-1.2,0.8c-0.2,0.1-0.4,0.2-0.5,0.4
				c-0.1,0-0.5,0.4-0.5,0.4C100.2,53.3,100.2,53.2,100.1,53.2L100.1,53.2z"/>
		</g>
	</g>
</g>
<g>
	<g>
		<g>
			<path d="M100.7,54.7c1.2-0.6,2.3-1.3,3.4-2c0.1-0.1,0-0.2-0.1-0.1c-1.1,0.7-2.3,1.4-3.4,2C100.5,54.6,100.6,54.7,100.7,54.7
				L100.7,54.7z"/>
		</g>
	</g>
</g>
<g>
	<g>
		<g>
			<path d="M101.4,55.5c0.9-0.4,1.8-0.8,2.7-1.3c0.1,0,0-0.2-0.1-0.1c-0.9,0.4-1.8,0.8-2.7,1.3C101.2,55.4,101.2,55.5,101.4,55.5
				L101.4,55.5z"/>
		</g>
	</g>
</g>
<g>
	<g>
		<g>
			<path d="M102,56.9c0.9-0.4,1.8-0.9,2.7-1.3c0.1,0,0-0.2-0.1-0.1c-0.9,0.4-1.8,0.9-2.7,1.3C101.8,56.9,101.9,57,102,56.9L102,56.9
				z"/>
		</g>
	</g>
</g>
<g>
	<g>
		<g>
			<path d="M102.7,57.7c0.8-0.3,1.6-0.7,2.4-1c0.1,0,0-0.2,0-0.2c-0.8,0.3-1.6,0.7-2.4,1C102.6,57.6,102.6,57.8,102.7,57.7
				L102.7,57.7z"/>
		</g>
	</g>
</g>
<g>
	<g>
		<g>
			<path d="M103,59c0.8-0.4,1.6-0.7,2.4-1c0.1,0,0.1-0.2,0-0.2c-0.9,0.3-1.7,0.6-2.5,1C102.8,58.9,102.8,59.1,103,59L103,59z"/>
		</g>
	</g>
</g>
<g>
	<g>
		<g>
			<path d="M103.9,61.2c0.8-0.3,1.6-0.6,2.4-0.7c0.1,0,0.1-0.2,0-0.2c-0.8,0.1-1.6,0.4-2.4,0.7C103.8,61.1,103.8,61.3,103.9,61.2
				L103.9,61.2z"/>
		</g>
	</g>
</g>
<g>
	<g>
		<g>
			<path d="M104.3,62.6c0.9-0.3,1.8-0.5,2.6-0.7c0.1,0,0.1-0.2,0-0.2c-0.9,0.2-1.8,0.4-2.6,0.7C104.1,62.5,104.1,62.7,104.3,62.6
				L104.3,62.6z"/>
		</g>
	</g>
</g>
<g>
	<g>
		<g>
			<path d="M104.6,63.8c0.8-0.1,1.6-0.3,2.4-0.5c0.1,0,0.1-0.2,0-0.2c-0.8,0.2-1.6,0.4-2.4,0.5C104.5,63.7,104.5,63.8,104.6,63.8
				L104.6,63.8z"/>
		</g>
	</g>
</g>
<g>
	<g>
		<g>
			<path d="M104.9,65c0.9-0.2,1.7-0.3,2.6-0.5c0.1,0,0.1-0.2,0-0.2c-0.9,0.2-1.7,0.3-2.6,0.5C104.8,64.9,104.8,65,104.9,65L104.9,65
				z"/>
		</g>
	</g>
</g>
<g>
	<g>
		<g>
			<path d="M105.4,66.1c1.1-0.2,2.3-0.4,3.4-0.6c0.1,0,0.1-0.2,0-0.2c-1.1,0.2-2.3,0.4-3.4,0.6C105.2,66,105.3,66.1,105.4,66.1
				L105.4,66.1z"/>
		</g>
	</g>
</g>
<g>
	<g>
		<g>
			<path d="M105.3,67.3c0.9-0.2,1.8-0.3,2.6-0.3c0.1,0,0.1-0.2,0-0.2c-0.9,0-1.8,0.1-2.7,0.3C105.2,67.2,105.2,67.3,105.3,67.3
				L105.3,67.3z"/>
		</g>
	</g>
</g>
<g>
	<g>
		<g>
			<path d="M105.6,68.7c0.8-0.1,1.6-0.2,2.4-0.2c0.1,0,0.1-0.2,0-0.2c-0.8,0.1-1.6,0.2-2.4,0.2C105.4,68.6,105.4,68.7,105.6,68.7
				L105.6,68.7z"/>
		</g>
	</g>
</g>
<g>
	<g>
		<g>
			<path d="M105.6,69.7c0.2,0.3,0.5,0.2,0.8,0.2c0.7,0,1.3-0.1,1.9-0.2c0.1,0,0.1-0.2,0-0.2c-0.4,0-0.8,0.1-1.3,0.1
				c-0.3,0-1.1,0.2-1.3-0.1C105.7,69.5,105.5,69.6,105.6,69.7L105.6,69.7z"/>
		</g>
	</g>
</g>
<g>
	<g>
		<g>
			<path d="M105.8,73.7c0.8-0.2,1.6-0.2,2.4-0.1c0.1,0,0.1-0.2,0-0.2c-0.9-0.1-1.7,0-2.5,0.1C105.7,73.5,105.7,73.7,105.8,73.7
				L105.8,73.7z"/>
		</g>
	</g>
</g>
<g>
	<g>
		<g>
			<path d="M105.6,75c0.9-0.1,1.7-0.1,2.6,0c0.1,0,0.1-0.2,0-0.2c-0.9-0.1-1.7-0.1-2.6,0C105.5,74.8,105.5,75,105.6,75L105.6,75z"/>
		</g>
	</g>
</g>
<g>
	<g>
		<g>
			<path d="M105.5,76.3c0.9,0,1.7,0,2.6,0c0.1,0,0.1-0.2,0-0.2c-0.9,0-1.7,0-2.6,0C105.4,76.1,105.4,76.3,105.5,76.3L105.5,76.3z"/>
		</g>
	</g>
</g>
<g>
	<g>
		<g>
			<path d="M105.4,78c0.1,0,0.1-0.2,0-0.2S105.2,78,105.4,78L105.4,78z"/>
		</g>
	</g>
</g>
<g>
	<g>
		<g>
			<path d="M105.5,77.5c0.9,0,1.7,0.1,2.6,0.2c0.1,0,0.1-0.2,0-0.2c-0.9,0-1.7-0.1-2.6-0.2C105.4,77.3,105.4,77.5,105.5,77.5
				L105.5,77.5z"/>
		</g>
	</g>
</g>
<g>
	<g>
		<g>
			<path d="M105.5,79c1.2,0.1,2.3,0.2,3.5,0.3c0.1,0,0.1-0.2,0-0.2c-1.2-0.1-2.3-0.2-3.5-0.3C105.4,78.8,105.4,79,105.5,79L105.5,79
				z"/>
		</g>
	</g>
</g>
<g>
	<g>
		<g>
			<path d="M105.1,80.1c0.9,0.1,1.8,0.1,2.7,0.2c0.1,0,0.1-0.2,0-0.2c-0.9-0.1-1.8-0.1-2.7-0.2C105,80,105,80.1,105.1,80.1
				L105.1,80.1z"/>
		</g>
	</g>
</g>
<g>
	<g>
		<g>
			<path d="M104.7,81.3c0.9,0.1,1.8,0.3,2.6,0.5c0.1,0,0.2-0.1,0-0.2c-0.9-0.2-1.8-0.4-2.6-0.5C104.6,81.2,104.6,81.3,104.7,81.3
				L104.7,81.3z"/>
		</g>
	</g>
</g>
<g>
	<g>
		<g>
			<path d="M104.4,82.5c0.9,0.2,1.7,0.5,2.6,0.8c0.1,0,0.2-0.1,0-0.2c-0.9-0.2-1.7-0.5-2.6-0.8C104.3,82.3,104.3,82.5,104.4,82.5
				L104.4,82.5z"/>
		</g>
	</g>
</g>
<g>
	<g>
		<g>
			<path d="M104.1,83.7c0.8,0.2,1.6,0.5,2.4,0.9c0.1,0,0.2-0.1,0.1-0.1c-0.8-0.4-1.6-0.7-2.4-0.9C104,83.5,104,83.7,104.1,83.7
				L104.1,83.7z"/>
		</g>
	</g>
</g>
<g>
	<g>
		<g>
			<path d="M103.3,85.9c0.8,0.3,1.6,0.6,2.4,0.9c0.1,0,0.2-0.1,0.1-0.1c-0.8-0.4-1.6-0.7-2.4-1C103.3,85.7,103.2,85.9,103.3,85.9
				L103.3,85.9z"/>
		</g>
	</g>
</g>
<g>
	<g>
		<g>
			<path d="M102.8,87c0.9,0.2,1.7,0.6,2.5,0.9c0.1,0,0.2-0.1,0.1-0.1c-0.8-0.4-1.7-0.7-2.5-1C102.7,86.8,102.7,87,102.8,87L102.8,87
				z"/>
		</g>
	</g>
</g>
<g>
	<g>
		<g>
			<path d="M102.1,88.5c0.8,0.2,1.6,0.6,2.4,1c0.1,0,0.2-0.1,0.1-0.1c-0.8-0.4-1.6-0.8-2.4-1C102.1,88.3,102,88.4,102.1,88.5
				L102.1,88.5z"/>
		</g>
	</g>
</g>
<g>
	<g>
		<g>
			<path d="M101.8,89.6c0.6,0.2,1.2,0.5,1.8,0.7c0.1,0,0.1-0.1,0-0.2c-0.6-0.2-1.2-0.5-1.8-0.7C101.7,89.4,101.7,89.6,101.8,89.6
				L101.8,89.6z"/>
		</g>
	</g>
</g>
<g>
	<g>
		<g>
			<path d="M101.1,90.6c1,0.4,1.8,0.9,2.6,1.6c0.1,0.1,0.2,0,0.1-0.1c-0.8-0.7-1.7-1.3-2.7-1.6C101,90.4,101,90.6,101.1,90.6
				L101.1,90.6z"/>
		</g>
	</g>
</g>
<g>
	<g>
		<g>
			<path d="M100.5,91.6c0.6,0.4,1.2,0.9,1.7,1.3c0.1,0.1,0.2-0.1,0.1-0.1c-0.6-0.4-1.2-0.9-1.7-1.3
				C100.5,91.4,100.4,91.6,100.5,91.6L100.5,91.6z"/>
		</g>
	</g>
</g>
<g>
	<g>
		<g>
			<path d="M99.8,92.8c0.6,0.4,1.2,0.8,1.7,1.3c0.1,0.1,0.2,0,0.1-0.1c-0.5-0.5-1.1-1-1.7-1.4C99.8,92.6,99.7,92.7,99.8,92.8
				L99.8,92.8z"/>
		</g>
	</g>
</g>
<g>
	<g>
		<g>
			<path d="M99.1,93.7c0.6,0.5,1.1,0.9,1.7,1.4c0.1,0.1,0.2,0,0.1-0.1c-0.6-0.5-1.1-0.9-1.7-1.4C99.2,93.5,99,93.6,99.1,93.7
				L99.1,93.7z"/>
		</g>
	</g>
</g>
<g>
	<g>
		<g>
			<path d="M98.2,94.9c0.6,0.3,1.2,0.7,1.8,1.1c0.1,0.1,0.2,0,0.1-0.1c-0.6-0.5-1.2-0.9-1.8-1.2C98.2,94.7,98.1,94.8,98.2,94.9
				L98.2,94.9z"/>
		</g>
	</g>
</g>
<g>
	<g>
		<g>
			<path d="M88.9,103.2c0.4,0.7,0.9,1.5,1.3,2.2c0,0.1,0.2,0,0.2-0.1c0-0.1,0-0.2-0.1-0.3c0-0.1-0.2-0.1-0.2,0c0,0.1,0,0.2,0.1,0.3
				c0,0,0.1,0,0.2-0.1c-0.4-0.7-0.9-1.5-1.3-2.2C89,103,88.9,103.1,88.9,103.2L88.9,103.2z"/>
		</g>
	</g>
</g>
<g>
	<g>
		<g>
			<path d="M90.1,102.5c0.4,0.7,0.9,1.3,1.3,2c0,0,0.1-0.1,0.1-0.1c0-0.1-0.1-0.2-0.2-0.3c-0.1-0.1-0.2,0-0.1,0.1
				c0,0.1,0.1,0.2,0.2,0.3c0.1,0.1,0.2,0,0.1-0.1c-0.4-0.7-0.8-1.3-1.3-2C90.2,102.3,90.1,102.4,90.1,102.5L90.1,102.5z"/>
		</g>
	</g>
</g>
<g>
	<g>
		<g>
			<path d="M91.5,101.9c0-0.2-0.1-0.3-0.2-0.3c-0.1,0-0.1,0.1-0.1,0.1c0.4,0.6,0.8,1.1,1.2,1.7c0.1,0.1,0.2,0,0.1-0.1
				c-0.4-0.5-0.8-1.1-1.2-1.7c0,0-0.1,0.1-0.1,0.1c0,0.1,0.1,0.1,0.1,0.2C91.3,102,91.5,102,91.5,101.9L91.5,101.9z"/>
		</g>
	</g>
</g>
<g>
	<g>
		<g>
			<path d="M92,101c0.4,0.6,0.9,1.1,1.3,1.7c0.1,0.1,0.2,0,0.1-0.1c-0.4-0.6-0.9-1.1-1.3-1.7C92,100.8,91.9,100.9,92,101L92,101z"/>
		</g>
	</g>
</g>
<g>
	<g>
		<g>
			<path d="M92.9,100.1c0.6,0.8,1.3,1.5,1.9,2.3c0.1,0.1,0.2,0,0.1-0.1c-0.6-0.8-1.3-1.5-1.9-2.3C93,99.9,92.9,100,92.9,100.1
				L92.9,100.1z"/>
		</g>
	</g>
</g>
<g>
	<g>
		<g>
			<path d="M94,99.4c0.4,0.6,0.8,1.1,1.3,1.5c0.1,0.1,0.2,0,0.1-0.1c-0.5-0.4-0.9-0.9-1.3-1.5C94.1,99.2,94,99.3,94,99.4L94,99.4z"
				/>
		</g>
	</g>
</g>
<g>
	<g>
		<g>
			<path d="M94.9,98.3c0.5,0.6,1,1.1,1.5,1.6c0.1,0.1,0.2,0,0.1-0.1c-0.5-0.5-1.1-1.1-1.5-1.6C95,98.1,94.8,98.3,94.9,98.3
				L94.9,98.3z"/>
		</g>
	</g>
</g>
<g>
	<g>
		<g>
			<path d="M96,97.5c0.4,0.5,0.8,1,1.2,1.5c0.1,0.1,0.2,0,0.1-0.1c-0.4-0.5-0.8-1-1.2-1.5C96,97.3,95.9,97.4,96,97.5L96,97.5z"/>
		</g>
	</g>
</g>
<g>
	<g>
		<g>
			<path d="M96.8,96.7c0.5,0.5,1,1.1,1.6,1.5c0.1,0.1,0.2,0,0.1-0.1c-0.5-0.5-1.1-1-1.6-1.5C96.8,96.5,96.7,96.6,96.8,96.7
				L96.8,96.7z"/>
		</g>
	</g>
</g>
<g>
	<g>
		<g>
			<path d="M82.1,106.4c0.4,1.1,0.8,2.2,1.2,3.3c0,0.1,0.2,0.1,0.2,0c0-0.1-0.1-0.2-0.1-0.3c0-0.1-0.2-0.1-0.2,0
				c0,0.1,0.1,0.2,0.1,0.3c0,0,0.1,0,0.2,0c-0.4-1.1-0.8-2.2-1.2-3.3C82.2,106.2,82.1,106.2,82.1,106.4L82.1,106.4z"/>
		</g>
	</g>
</g>
<g>
	<g>
		<g>
			<path d="M83.4,106.2c0.2,0.6,0.4,1.1,0.6,1.7c0,0.1,0.2,0,0.1-0.1c-0.2-0.5-0.4-1.1-0.6-1.6C83.6,106,83.4,106.1,83.4,106.2
				L83.4,106.2z"/>
		</g>
	</g>
</g>
<g>
	<g>
		<g>
			<path d="M84.6,105.7c0.3,0.6,0.5,1.1,0.8,1.7c0,0.1,0.2,0,0.1-0.1c-0.3-0.6-0.5-1.1-0.8-1.7C84.7,105.5,84.6,105.6,84.6,105.7
				L84.6,105.7z"/>
		</g>
	</g>
</g>
<g>
	<g>
		<g>
			<path d="M85.6,104.8c0.3,0.7,0.6,1.4,0.9,2.1c0,0.1,0.2,0,0.1-0.1c-0.3-0.7-0.6-1.4-0.9-2.1C85.7,104.6,85.6,104.7,85.6,104.8
				L85.6,104.8z"/>
		</g>
	</g>
</g>
<g>
	<g>
		<g>
			<path d="M86.9,104.5c0.2,0.7,0.5,1.5,0.9,2.1c0.1,0.1,0.2,0,0.1-0.1c-0.4-0.7-0.7-1.3-0.9-2.1C87,104.3,86.8,104.3,86.9,104.5
				L86.9,104.5z"/>
		</g>
	</g>
</g>
<g>
	<g>
		<g>
			<path d="M81.2,106.9c-0.2-0.1-0.3,0.1-0.3,0.3c0,0.2,0.2,0.5,0.2,0.8c0.1,0.3,0.2,0.6,0.3,0.9c0,0.1,0.2,0.1,0.2,0
				c-0.1-0.3-0.2-0.6-0.3-0.9c0-0.1-0.1-0.3-0.1-0.4c0,0-0.2-0.6-0.1-0.5C81.2,107.1,81.3,106.9,81.2,106.9L81.2,106.9z"/>
		</g>
	</g>
</g>
<g>
	<g>
		<g>
			<path d="M79.6,107.4c0.2,0.6,0.3,1.2,0.5,1.8c0,0.1,0.2,0.1,0.2,0c-0.2-0.6-0.3-1.2-0.5-1.8C79.8,107.3,79.6,107.3,79.6,107.4
				L79.6,107.4z"/>
		</g>
	</g>
</g>
<g>
	<g>
		<g>
			<path d="M78.3,107.6c0.2,0.7,0.3,1.3,0.5,2c0,0.1,0.2,0.1,0.2,0c-0.2-0.7-0.4-1.3-0.5-2C78.5,107.5,78.3,107.5,78.3,107.6
				L78.3,107.6z"/>
		</g>
	</g>
</g>
<g>
	<g>
		<g>
			<path d="M77.3,107.9c0.1,0.7,0.3,1.4,0.4,2.1c0,0.1,0.2,0.1,0.2,0c-0.1-0.7-0.3-1.4-0.4-2.1C77.5,107.7,77.3,107.8,77.3,107.9
				L77.3,107.9z"/>
		</g>
	</g>
</g>
<g>
	<g>
		<g>
			<path d="M74.8,108.4c0.1,0.7,0.2,1.3,0.2,2c0,0.1,0.2,0.1,0.2,0c-0.1-0.7-0.2-1.3-0.2-2C75,108.3,74.8,108.3,74.8,108.4
				L74.8,108.4z"/>
		</g>
	</g>
</g>
<g>
	<g>
		<g>
			<path d="M73.4,108.5c0,0.6,0.1,1.3,0.1,1.9c0,0.1,0.2,0.1,0.2,0c0-0.6-0.1-1.3-0.1-1.9C73.6,108.4,73.4,108.4,73.4,108.5
				L73.4,108.5z"/>
		</g>
	</g>
</g>
<g>
	<g>
		<g>
			<path d="M72.2,108.6c0,0.7,0,1.3,0,2c0,0.1,0.2,0.1,0.2,0c0-0.7,0-1.3,0-2C72.4,108.5,72.2,108.5,72.2,108.6L72.2,108.6z"/>
		</g>
	</g>
</g>
<g>
	<g>
		<g>
			<path d="M70.8,108.6c0,0.7,0,1.4,0,2.2c0,0.1,0.2,0.1,0.2,0c0-0.1,0-0.2,0-0.3c0-0.1-0.2-0.1-0.2,0c0,0.1,0,0.2,0,0.3
				c0,0.1,0.2,0.1,0.2,0c0-0.7,0-1.4,0-2.2C71,108.5,70.8,108.5,70.8,108.6L70.8,108.6z"/>
		</g>
	</g>
</g>
<g>
	<g>
		<g>
			<path d="M69.6,108.7c0,1,0,2,0,2.9c0,0.1,0.2,0.1,0.2,0c0-1,0-2,0-2.9C69.7,108.6,69.6,108.6,69.6,108.7L69.6,108.7z"/>
		</g>
	</g>
</g>
<g>
	<g>
		<g>
			<path d="M68.3,108.6c0,0.7,0.1,1.5,0,2.2c0,0.1,0.2,0.1,0.2,0c0-0.7,0-1.5,0-2.2C68.4,108.5,68.3,108.5,68.3,108.6L68.3,108.6z"
				/>
		</g>
	</g>
</g>
<g>
	<g>
		<g>
			<path d="M66.9,108.6c0,0.7-0.1,1.3-0.1,2c0,0.1,0.2,0.1,0.2,0c0-0.7,0.1-1.3,0.1-2C67.1,108.5,66.9,108.5,66.9,108.6L66.9,108.6z
				"/>
		</g>
	</g>
</g>
<g>
	<g>
		<g>
			<path d="M65.7,108.5c0,0.7-0.1,1.5-0.1,2.2c0,0.1,0.2,0.1,0.2,0c0-0.7,0.1-1.5,0.1-2.2C65.9,108.4,65.7,108.4,65.7,108.5
				L65.7,108.5z"/>
		</g>
	</g>
</g>
<g>
	<g>
		<g>
			<path d="M64.4,108.3c-0.1,0.7-0.1,1.4-0.2,2.1c0,0.1,0.2,0.1,0.2,0c0.1-0.7,0.1-1.4,0.2-2.1C64.6,108.2,64.4,108.2,64.4,108.3
				L64.4,108.3z"/>
		</g>
	</g>
</g>
<g>
	<g>
		<g>
			<path d="M62,107.9c-0.2,0.7-0.4,1.5-0.7,2.2c0,0.1,0.1,0.2,0.2,0c0.2-0.7,0.4-1.5,0.7-2.2C62.2,107.9,62.1,107.8,62,107.9
				L62,107.9z"/>
		</g>
	</g>
</g>
<g>
	<g>
		<g>
			<path d="M60.9,107.5c-0.2,0.6-0.4,1.2-0.6,1.8c0,0.1,0.1,0.1,0.2,0c0.2-0.6,0.4-1.2,0.6-1.8C61.1,107.5,60.9,107.5,60.9,107.5
				L60.9,107.5z"/>
		</g>
	</g>
</g>
<g>
	<g>
		<g>
			<path d="M59.8,107.5L59.8,107.5c0.1,0,0.1,0,0.1,0c0.1-0.2-0.1-0.3-0.2-0.1c-0.2,0.2-0.2,0.5-0.3,0.7c-0.1,0.4-0.3,0.7-0.5,1.1
				c0,0.1,0.1,0.2,0.1,0.1c0.1-0.2,0.8-1.8,0.7-1.9C59.7,107.3,59.7,107.5,59.8,107.5L59.8,107.5z"/>
		</g>
	</g>
</g>
<g>
	<g>
		<g>
			<path d="M58.4,107c-0.2,0.6-0.5,1.2-0.7,1.8c0,0.1,0.1,0.1,0.2,0c0.2-0.6,0.5-1.2,0.7-1.8C58.6,106.9,58.5,106.9,58.4,107
				L58.4,107z"/>
		</g>
	</g>
</g>
<g>
	<g>
		<g>
			<path d="M57.2,106.5c-0.4,1-0.8,1.9-1.3,2.9c0,0.1,0.1,0.2,0.1,0.1c0.5-0.9,0.9-1.9,1.3-2.9C57.4,106.4,57.2,106.4,57.2,106.5
				L57.2,106.5z"/>
		</g>
	</g>
</g>
<g>
	<g>
		<g>
			<path d="M56.1,106c-0.3,0.7-0.6,1.4-0.9,2.1c0,0.1,0.1,0.1,0.2,0c0.3-0.7,0.6-1.4,0.9-2.1C56.3,105.9,56.1,105.8,56.1,106
				L56.1,106z"/>
		</g>
	</g>
</g>
<g>
	<g>
		<g>
			<path d="M54.6,105.6c-0.2,0.6-0.4,1.1-0.7,1.6c0,0.1,0.1,0.2,0.1,0.1c0.3-0.5,0.5-1.1,0.7-1.7C54.8,105.6,54.7,105.6,54.6,105.6
				L54.6,105.6z"/>
		</g>
	</g>
</g>
<g>
	<g>
		<g>
			<path d="M53.8,105c-0.2,0.5-0.4,1-0.6,1.5c0,0.1,0.1,0.1,0.2,0c0.2-0.5,0.4-1,0.6-1.5C54,104.9,53.8,104.9,53.8,105L53.8,105z"/>
		</g>
	</g>
</g>
<g>
	<g>
		<g>
			<path d="M52.6,104.5c-0.3,0.7-0.7,1.3-1,1.9c0,0.1,0.1,0.2,0.1,0.1c0.3-0.7,0.7-1.3,1-1.9C52.8,104.5,52.7,104.4,52.6,104.5
				L52.6,104.5z"/>
		</g>
	</g>
</g>
<g>
	<g>
		<g>
			<path d="M50.3,103c-0.4,0.6-0.8,1.3-1.2,1.9c0,0,0.1,0.1,0.1,0.1c0-0.1,0.1-0.2,0.1-0.3c0-0.1-0.1-0.2-0.1-0.1
				c0,0.1-0.1,0.2-0.1,0.3s0.1,0.2,0.1,0.1c0.4-0.7,0.8-1.3,1.2-1.9C50.6,103,50.4,102.9,50.3,103L50.3,103z"/>
		</g>
	</g>
</g>
<g>
	<g>
		<g>
			<path d="M49.3,102.3c-0.3,0.7-0.7,1.3-1.2,1.8c-0.1,0.1,0,0.2,0.1,0.1c0.4-0.6,0.9-1.2,1.2-1.8C49.5,102.3,49.4,102.2,49.3,102.3
				L49.3,102.3z"/>
		</g>
	</g>
</g>
<g>
	<g>
		<g>
			<path d="M48.4,101.7c-0.4,0.4-0.8,0.9-1.1,1.5c-0.1,0.1,0.1,0.2,0.1,0.1c0.3-0.5,0.7-1,1.1-1.4C48.6,101.7,48.4,101.6,48.4,101.7
				L48.4,101.7z"/>
		</g>
	</g>
</g>
<g>
	<g>
		<g>
			<path d="M47.5,101.1c0.1-0.1,0.1-0.2,0.2-0.2c0.1-0.1-0.1-0.2-0.1-0.1c-0.4,0.5-0.9,1-1.3,1.5c-0.1,0.1,0,0.2,0.1,0.1
				c0.4-0.5,0.9-1,1.3-1.5c0,0-0.1-0.1-0.1-0.1c-0.1,0.1-0.1,0.2-0.2,0.2C47.3,101.1,47.4,101.2,47.5,101.1L47.5,101.1z"/>
		</g>
	</g>
</g>
<g>
	<g>
		<g>
			<path d="M46.4,99.8c-0.4,0.4-0.7,0.9-1.1,1.4c-0.2,0.2-0.4,0.4-0.5,0.7c-0.1,0.1-0.2,0.2-0.3,0.3c0,0-0.3,0.4-0.2,0.4
				c0.1,0,0.1-0.2,0-0.2c0,0,0,0,0,0c0,0-0.1,0.1-0.1,0.1c0,0,0,0,0,0c0,0,0.1,0.1,0.1,0.1c0.1,0,0.2-0.1,0.3-0.2
				c0.2-0.3,0.4-0.5,0.7-0.8c0.4-0.5,0.9-1.1,1.3-1.6C46.6,99.9,46.5,99.8,46.4,99.8L46.4,99.8z"/>
		</g>
	</g>
</g>
<g>
	<g>
		<g>
			<path d="M45.3,99.1c-0.4,0.5-0.8,1.1-1.2,1.6c-0.1,0.1,0.1,0.2,0.1,0.1c0.4-0.5,0.8-1.1,1.2-1.6C45.6,99.1,45.4,99,45.3,99.1
				L45.3,99.1z"/>
		</g>
	</g>
</g>
<g>
	<g>
		<g>
			<path d="M44.4,98.2c-0.4,0.7-0.8,1.3-1.3,1.8c-0.1,0.1,0,0.2,0.1,0.1c0.5-0.6,0.9-1.2,1.3-1.8C44.6,98.2,44.4,98.1,44.4,98.2
				L44.4,98.2z"/>
		</g>
	</g>
</g>
<g>
	<g>
		<g>
			<path d="M43.5,97.3C43.4,97.5,42,99,42,99c0.1,0.1,0.2,0,0.1-0.1l0,0c0,0-0.1,0-0.1,0c-0.1,0-0.1,0.1-0.1,0.2c0,0,0,0,0.1,0
				c0.3,0,0.6-0.4,0.7-0.6c0.3-0.3,0.6-0.7,0.9-1C43.7,97.4,43.6,97.2,43.5,97.3L43.5,97.3z"/>
		</g>
	</g>
</g>
<g>
	<g>
		<g>
			<path d="M42.7,96.4c-0.2,0.2-0.5,0.5-0.8,0.7c-0.1,0.1-0.2,0.2-0.4,0.4c-0.1,0.1-0.1,0.1-0.2,0.2c-0.1,0.1-0.2,0.2-0.2,0.3
				c0,0-0.1,0-0.1,0c0,0,0,0,0,0c0.1,0.1,0.2,0,0.1-0.1c0,0,0,0,0,0c0,0-0.1,0-0.1,0c-0.1,0-0.1,0.1-0.1,0.2c0,0,0,0.1,0.1,0.1
				c0.3,0,0.6-0.4,0.7-0.6c0.3-0.3,0.7-0.6,1-0.9C42.9,96.5,42.8,96.4,42.7,96.4L42.7,96.4z"/>
		</g>
	</g>
</g>
<g>
	<g>
		<g>
			<path d="M41.3,94.5c-0.7,0.4-1.3,0.9-2,1.3c-0.1,0.1,0,0.2,0.1,0.1c0.7-0.4,1.3-0.9,2-1.3C41.4,94.6,41.4,94.4,41.3,94.5
				L41.3,94.5z"/>
		</g>
	</g>
</g>
<g>
	<g>
		<g>
			<path d="M40.5,93.6c-0.1,0-0.2,0.1-0.3,0.2c-0.1,0.1-0.2,0.1-0.2,0.2c-0.1,0.1-0.3,0.2-0.4,0.3c-0.3,0.2-0.6,0.4-0.9,0.6
				c-0.1,0.1,0,0.2,0.1,0.1c0.3-0.2,0.6-0.4,0.9-0.7c0.3-0.2,0.6-0.4,0.8-0.6c0.1-0.2,0-0.4-0.2-0.2C40.3,93.5,40.4,93.6,40.5,93.6
				L40.5,93.6z"/>
		</g>
	</g>
</g>
<g>
	<g>
		<g>
			<path d="M39.6,92.4c-0.4,0.4-0.9,0.9-1.4,1.2c-0.1,0.1,0,0.2,0.1,0.1c0.5-0.4,1-0.8,1.4-1.2C39.7,92.4,39.6,92.3,39.6,92.4
				L39.6,92.4z"/>
		</g>
	</g>
</g>
<g>
	<g>
		<g>
			<path d="M39,91.3c-0.6,0.4-1.1,0.7-1.7,1.1c-0.1,0.1,0,0.2,0.1,0.1c0.6-0.4,1.1-0.7,1.7-1.1C39.2,91.4,39.1,91.3,39,91.3L39,91.3
				z"/>
		</g>
	</g>
</g>
<g>
	<g>
		<g>
			<path d="M38.3,90.3c0.1,0,0.1-0.1,0.2-0.1c0,0-0.1-0.1-0.1-0.1c-0.8,0.7-1.7,1.3-2.7,1.9c-0.1,0,0,0.2,0.1,0.1
				c1-0.6,1.9-1.2,2.7-1.9c0.1-0.1,0-0.2-0.1-0.1c-0.1,0-0.1,0.1-0.2,0.1C38.1,90.2,38.2,90.4,38.3,90.3L38.3,90.3z"/>
		</g>
	</g>
</g>
<g>
	<g>
		<g>
			<path d="M37.8,88.9c-0.6,0.6-1.2,1.1-1.9,1.5c-0.1,0,0,0.2,0.1,0.1c0.7-0.4,1.4-0.9,2-1.5C38,89,37.9,88.9,37.8,88.9L37.8,88.9z"
				/>
		</g>
	</g>
</g>
<g>
	<g>
		<g>
			<path d="M37.2,88c-0.6,0.4-1.1,0.7-1.7,1.1c-0.1,0.1,0,0.2,0.1,0.1c0.6-0.4,1.1-0.7,1.7-1.1C37.4,88.1,37.3,87.9,37.2,88L37.2,88
				z"/>
		</g>
	</g>
</g>
<g>
	<g>
		<g>
			<path d="M36.8,86.7c-0.6,0.4-1.3,0.9-2,1.2c-0.1,0,0,0.2,0.1,0.1c0.7-0.4,1.4-0.8,2-1.2C37,86.8,36.9,86.7,36.8,86.7L36.8,86.7z"
				/>
		</g>
	</g>
</g>
<g>
	<g>
		<g>
			<path d="M36.3,85.6c-0.6,0.4-1.2,0.9-1.8,1.3c-0.1,0.1,0,0.2,0.1,0.1c0.6-0.4,1.3-0.8,1.8-1.3C36.4,85.7,36.3,85.5,36.3,85.6
				L36.3,85.6z"/>
		</g>
	</g>
</g>
<g>
	<g>
		<g>
			<path d="M35.5,83.3c-0.8,0.3-1.5,0.5-2.3,0.7c-0.1,0-0.1,0.2,0,0.2c0.8-0.2,1.5-0.5,2.3-0.7C35.6,83.4,35.6,83.2,35.5,83.3
				L35.5,83.3z"/>
		</g>
	</g>
</g>
<g>
	<g>
		<g>
			<path d="M34.9,82.1c-0.7,0.2-1.5,0.4-2.2,0.5c-0.1,0-0.1,0.2,0,0.2c0.7-0.2,1.5-0.4,2.2-0.5C35.1,82.2,35,82,34.9,82.1L34.9,82.1
				z"/>
		</g>
	</g>
</g>
<g>
	<g>
		<g>
			<path d="M34.6,80.9c-0.7,0-1.3,0.1-2,0.3c-0.1,0-0.1,0.2,0,0.2c0.7-0.2,1.3-0.3,2-0.3C34.7,81.1,34.7,80.9,34.6,80.9L34.6,80.9z"
				/>
		</g>
	</g>
</g>
<g>
	<g>
		<g>
			<path d="M32.1,80.2c0.7-0.2,1.4-0.3,2.1-0.3c0.1,0,0.1-0.2,0-0.2c-0.7,0-1.4,0.1-2.1,0.3C32,80,32,80.2,32.1,80.2L32.1,80.2z"/>
		</g>
	</g>
</g>
<g>
	<g>
		<g>
			<path d="M30.7,78.8c1.1-0.1,2.3-0.1,3.4-0.2c0.1,0,0.1-0.2,0-0.2c-1.1,0.1-2.3,0.1-3.4,0.2C30.6,78.6,30.6,78.8,30.7,78.8
				L30.7,78.8z"/>
		</g>
	</g>
</g>
<g>
	<g>
		<g>
			<path d="M31.6,77.3c0.7,0,1.5,0.1,2.2,0c0.1,0,0.1-0.2,0-0.2c-0.7,0-1.5,0-2.2,0C31.5,77.1,31.5,77.3,31.6,77.3L31.6,77.3z"/>
		</g>
	</g>
</g>
<g>
	<g>
		<g>
			<path d="M31.5,76.2c0.7,0,1.4-0.1,2.1-0.1c0.1,0,0.1-0.2,0-0.2c-0.7,0-1.4,0.1-2.1,0.1C31.4,76,31.4,76.2,31.5,76.2L31.5,76.2z"
				/>
		</g>
	</g>
</g>
<g>
	<g>
		<g>
			<path d="M31.4,74.9c0.8,0,1.5,0,2.3,0c0.1,0,0.1-0.2,0-0.2c-0.8,0-1.5,0-2.3,0C31.3,74.7,31.3,74.9,31.4,74.9L31.4,74.9z"/>
		</g>
	</g>
</g>
<g>
	<g>
		<g>
			<path d="M31.3,70.8c0.8,0,1.5,0,2.3,0.1c0.1,0,0.1-0.2,0-0.2c-0.8-0.1-1.5-0.1-2.3-0.1C31.2,70.7,31.2,70.8,31.3,70.8L31.3,70.8z
				"/>
		</g>
	</g>
</g>
<g>
	<g>
		<g>
			<path d="M31.5,69.4c0.8,0,1.5,0.1,2.3,0.1c0.1,0,0.1-0.2,0-0.2c-0.8,0-1.5-0.1-2.3-0.1C31.4,69.3,31.4,69.4,31.5,69.4L31.5,69.4z
				"/>
		</g>
	</g>
</g>
<g>
	<g>
		<g>
			<path d="M31.6,67.9c0.8,0.1,1.5,0.2,2.3,0.3c0.1,0,0.2-0.2,0-0.2c-0.8-0.1-1.5-0.2-2.3-0.3C31.5,67.7,31.5,67.9,31.6,67.9
				L31.6,67.9z"/>
		</g>
	</g>
</g>
<g>
	<g>
		<g>
			<path d="M31.7,66.9c0.9,0,1.8,0.1,2.6,0.3c0.1,0,0.2-0.1,0-0.2c-0.9-0.2-1.8-0.3-2.7-0.3C31.6,66.7,31.6,66.9,31.7,66.9
				L31.7,66.9z"/>
		</g>
	</g>
</g>
<g>
	<g>
		<g>
			<path d="M31.1,65.4c1.1,0.1,2.2,0.3,3.2,0.6c0.1,0,0.2-0.1,0-0.2c-1.1-0.3-2.2-0.5-3.3-0.7C31,65.2,31,65.4,31.1,65.4L31.1,65.4z
				"/>
		</g>
	</g>
</g>
<g>
	<g>
		<g>
			<path d="M32.4,64.6c0.7,0.1,1.5,0.1,2.2,0.2c0.1,0,0.1-0.2,0-0.2c-0.7-0.1-1.5-0.1-2.2-0.2C32.3,64.4,32.3,64.5,32.4,64.6
				L32.4,64.6z"/>
		</g>
	</g>
</g>
<g>
	<g>
		<g>
			<path d="M32.8,63.1c0.7,0.1,1.4,0.3,2.1,0.4c0.1,0,0.2-0.1,0-0.2c-0.7-0.1-1.4-0.3-2.1-0.4C32.7,62.9,32.6,63.1,32.8,63.1
				L32.8,63.1z"/>
		</g>
	</g>
</g>
<g>
	<g>
		<g>
			<path d="M33,61.6c0.7,0.2,1.4,0.5,2.2,0.7c0.1,0,0.2-0.1,0-0.2c-0.7-0.2-1.4-0.5-2.2-0.7C32.9,61.4,32.8,61.6,33,61.6L33,61.6z"
				/>
		</g>
	</g>
</g>
<g>
	<g>
		<g>
			<path d="M33.3,60.4c0.8,0.3,1.5,0.6,2.3,0.9c0.1,0,0.1-0.1,0-0.2c-0.8-0.3-1.5-0.6-2.3-0.9C33.3,60.2,33.2,60.4,33.3,60.4
				L33.3,60.4z"/>
		</g>
	</g>
</g>
<g>
	<g>
		<g>
			<path d="M54.7,57.1c2.3,3.2,4.6,6.5,6.8,9.7c0.1,0.1,0.2,0,0.1-0.1c-2.3-3.2-4.6-6.5-6.8-9.7C54.8,56.9,54.6,57,54.7,57.1
				L54.7,57.1z"/>
		</g>
	</g>
</g>
<g>
	<g>
		<g>
			<path d="M54.7,57c3.1,2.4,6.2,5,9.2,7.6c0.1,0.1,0.2,0,0.1-0.1c-3-2.6-6.1-5.2-9.2-7.6C54.7,56.8,54.6,56.9,54.7,57L54.7,57z"/>
		</g>
	</g>
</g>
<g>
	<g>
		<g>
			<path d="M62.4,55.3c0.5,1.7,1.1,3.4,1.6,5.1c0.2,0.8,0.5,1.6,0.8,2.4c0.1,0.3,0.1,0.7,0.4,0.8c0,0,0.1,0,0.1,0c0,0,0,0,0-0.1
				c0,0,0-0.1-0.1-0.1c0,0,0,0-0.1,0c-0.1,0-0.1,0.1,0,0.2c-0.2-0.1-0.6-2-0.7-2.2c-0.2-0.7-0.4-1.4-0.6-2c-0.4-1.4-0.9-2.7-1.3-4.1
				C62.6,55.2,62.4,55.2,62.4,55.3L62.4,55.3z"/>
		</g>
	</g>
</g>
<g>
	<g>
		<g>
			<path d="M62.4,55.4c1,1.4,1.9,2.8,2.6,4.3c0.3,0.7,0.6,1.3,1,2c0.2,0.4,0.5,1.1,0.9,1.3C67,63,67,63,67,63c0,0,0,0,0,0
				c0,0,0-0.1-0.1-0.1c0,0,0,0,0,0c-0.1,0-0.1,0.2,0,0.2c-0.2,0-1-1.8-1.1-2c-0.3-0.6-0.6-1.2-0.9-1.8c-0.7-1.3-1.5-2.6-2.3-3.8
				C62.4,55.2,62.3,55.3,62.4,55.4L62.4,55.4z"/>
		</g>
	</g>
</g>
<g>
	<g>
		<g>
			<path d="M68.6,62.6c0-4,0.3-7.9,0.8-11.9c0-0.1-0.2-0.1-0.2,0c-0.5,3.9-0.8,7.9-0.8,11.9C68.4,62.7,68.6,62.7,68.6,62.6
				L68.6,62.6z"/>
		</g>
	</g>
</g>
<g>
	<g>
		<g>
			<path d="M69.3,50.5c0.4,4,0.7,8.1,1.1,12.1c0,0.1,0.2,0.1,0.2,0c-0.4-4-0.7-8.1-1.1-12.1C69.5,50.5,69.3,50.5,69.3,50.5
				L69.3,50.5z"/>
		</g>
	</g>
</g>
<g>
	<g>
		<g>
			<path d="M72.2,62.8c1.2-2.8,2.6-5.5,4.2-8.1c0.1-0.1-0.1-0.2-0.1-0.1c-1.6,2.6-3,5.3-4.2,8.1C72,62.8,72.1,62.9,72.2,62.8
				L72.2,62.8z"/>
		</g>
	</g>
</g>
<g>
	<g>
		<g>
			<path d="M76.2,54.6c-0.7,2.9-1.4,5.8-2.2,8.7c0,0.1,0.1,0.2,0.2,0.1c0-0.1,0.1-0.2,0.1-0.2c0-0.1-0.1-0.2-0.1-0.1
				c0.6-1.2,0.8-2.7,1.1-4c0.4-1.4,0.7-2.9,1.1-4.3C76.4,54.6,76.3,54.5,76.2,54.6L76.2,54.6z"/>
		</g>
	</g>
</g>
<g>
	<g>
		<g>
			<path d="M68.3,81.9c0.3,4.1,0.6,8.2,1,12.3c0,0.1,0.2,0.1,0.2,0c0-0.2,0-0.4,0-0.5c0-0.1-0.2-0.1-0.2,0c0.1,0.8,0.1-0.6,0.1-0.8
				c0-0.4-0.1-0.9-0.1-1.3c-0.1-1.1-0.2-2.2-0.3-3.3c-0.2-2.1-0.3-4.3-0.5-6.4C68.4,81.8,68.3,81.8,68.3,81.9L68.3,81.9z"/>
		</g>
	</g>
</g>
<g>
	<g>
		<g>
			<path d="M69.4,94.2c0.7-4,1.3-8.1,1.8-12.2c0-0.1-0.2-0.1-0.2,0c-0.5,4.1-1.1,8.1-1.8,12.1C69.2,94.2,69.3,94.3,69.4,94.2
				L69.4,94.2z"/>
		</g>
	</g>
</g>
<g>
	<g>
		<g>
			<path d="M72.8,81.7c1.2,2.4,2.6,4.6,4,6.9c0.1,0.1,0.2,0,0.1-0.1c-1.5-2.2-2.8-4.5-4-6.9C72.9,81.6,72.7,81.7,72.8,81.7
				L72.8,81.7z"/>
		</g>
	</g>
</g>
<g>
	<g>
		<g>
			<path d="M74.9,80.8c0.7,2.6,1.3,5.3,1.8,8c0,0.1,0.2,0.1,0.2,0c-0.5-2.7-1.1-5.4-1.8-8C75.1,80.6,74.9,80.7,74.9,80.8L74.9,80.8z
				"/>
		</g>
	</g>
</g>
<g>
	<g>
		<g>
			<path d="M75.7,80.4c3.3,2.2,5.9,5.3,9.3,7.5c0.1,0.1,0.2-0.1,0.1-0.1c-3.4-2.1-6-5.2-9.3-7.5C75.7,80.2,75.6,80.4,75.7,80.4
				L75.7,80.4z"/>
		</g>
	</g>
</g>
<g>
	<g>
		<g>
			<path d="M85.2,87.7c-2.1-3.3-4.3-6.4-6.7-9.4c-0.1-0.1-0.2,0-0.1,0.1c2.4,3,4.6,6.2,6.6,9.4C85.2,87.9,85.3,87.8,85.2,87.7
				L85.2,87.7z"/>
		</g>
	</g>
</g>
<g>
	<g>
		<g>
			<path d="M83.9,78.1c0.8,0.2,1.5,0.4,2.3,0.7c0.1,0,0.2-0.1,0-0.2c-0.8-0.2-1.5-0.4-2.3-0.7C83.8,77.9,83.8,78,83.9,78.1
				L83.9,78.1z"/>
		</g>
	</g>
</g>
<g>
	<g>
		<g>
			<path d="M84.6,77.7c0.6,0.4,1.1,0.7,1.7,1.1c0.1,0.1,0.2-0.1,0.1-0.1c-0.6-0.4-1.1-0.7-1.7-1.1C84.6,77.5,84.5,77.6,84.6,77.7
				L84.6,77.7z"/>
		</g>
	</g>
</g>
<g>
	<g>
		<g>
			<path d="M67,81.7c-1.2,2.4-2.5,4.8-3.9,7.1c-0.1,0.1,0.1,0.2,0.1,0.1c1.4-2.3,2.8-4.7,3.9-7.1C67.2,81.7,67.1,81.6,67,81.7
				L67,81.7z"/>
		</g>
	</g>
</g>
<g>
	<g>
		<g>
			<path d="M65.1,81c-0.6,2.7-1.3,5.3-2.2,7.9c0,0.1,0.1,0.2,0.2,0c0.9-2.6,1.6-5.2,2.2-7.9C65.3,80.9,65.2,80.8,65.1,81L65.1,81z"
				/>
		</g>
	</g>
</g>
<g>
	<g>
		<g>
			<path d="M52.7,65.9c0.7,0.3,1.4,0.7,2.1,1c0.1,0,0.2-0.1,0.1-0.1c-0.7-0.3-1.4-0.7-2.1-1C52.7,65.7,52.6,65.9,52.7,65.9
				L52.7,65.9z"/>
		</g>
	</g>
</g>
<g>
	<g>
		<g>
			<path d="M52.5,65.9c1.6,0.2,3.2,0.6,4.8,1c0.1,0,0.2-0.1,0-0.2c-1.6-0.4-3.2-0.8-4.8-1C52.4,65.7,52.4,65.8,52.5,65.9L52.5,65.9z
				"/>
		</g>
	</g>
</g>
<g>
	<g>
		<g>
			<path d="M52.9,79.6c1.2-0.6,2.4-1.2,3.6-1.7c0.1,0,0-0.2-0.1-0.1c-1.2,0.6-2.4,1.1-3.6,1.7C52.7,79.5,52.8,79.7,52.9,79.6
				L52.9,79.6z"/>
		</g>
	</g>
</g>
<g>
	<g>
		<g>
			<path d="M52.6,79.7c3.3-0.3,6.6-0.8,9.8-1.4c0.1,0,0.1-0.2,0-0.2c-3.2,0.7-6.5,1.1-9.8,1.4C52.5,79.6,52.5,79.8,52.6,79.7
				L52.6,79.7z"/>
		</g>
	</g>
</g>
<g>
	<g>
		<g>
			<path d="M62.6,79c-0.9,1.7-2.4,3.1-3.6,4.6c-1.3,1.5-2.6,3-3.9,4.5c-0.1,0.1,0,0.2,0.1,0.1c1.4-1.6,2.8-3.3,4.2-4.9
				c1.1-1.3,2.5-2.6,3.3-4.2C62.8,79,62.6,79,62.6,79L62.6,79z"/>
		</g>
	</g>
</g>
<g>
	<g>
		<g>
			<path d="M55.3,88.4c3.1-2.6,6.3-5.1,9.6-7.6c0.1-0.1,0-0.2-0.1-0.1c-3.2,2.5-6.4,5-9.6,7.7C55.1,88.3,55.2,88.5,55.3,88.4
				L55.3,88.4z"/>
		</g>
	</g>
</g>
<g>
	<g>
		<g>
			<path d="M86.1,64.7c-0.8,0.5-1.5,1-2.3,1.5c-0.1,0.1,0,0.2,0.1,0.1c0.8-0.5,1.5-1,2.3-1.5C86.3,64.8,86.2,64.6,86.1,64.7
				L86.1,64.7z"/>
		</g>
	</g>
</g>
<g>
	<g>
		<g>
			<path d="M86,64.6c-1.6,0.5-3.1,1.1-4.7,1.6c-0.1,0-0.1,0.2,0,0.2c1.6-0.5,3.1-1.1,4.7-1.6C86.2,64.7,86.1,64.5,86,64.6L86,64.6z"
				/>
		</g>
	</g>
</g>
<g>
	<g>
		<g>
			<path d="M75.6,64.3c3.1-3.1,6.5-5.9,10.1-8.4c0.1-0.1,0-0.2-0.1-0.1c-3.6,2.5-7,5.3-10.1,8.4C75.4,64.3,75.6,64.4,75.6,64.3
				L75.6,64.3z"/>
		</g>
	</g>
</g>
<g>
	<g>
		<g>
			<path d="M77.6,66c2.7-3.4,5.4-6.7,8.1-10c0.1-0.1,0-0.2-0.1-0.1c-2.8,3.3-5.5,6.6-8.1,10C77.5,65.9,77.6,66.1,77.6,66L77.6,66z"
				/>
		</g>
	</g>
</g>
<g>
	<g>
		<g>
			<path d="M28.2,72.6c10.4-3.6,21.1-5.3,32.1-5.7c11.2-0.4,22.4-0.7,33.4,1c6,0.9,11.9,2.4,17.7,4.3c0.3,0.1,0.5-0.4,0.2-0.5
				c-10.4-3.5-21.3-5.3-32.3-5.6c-5.7-0.1-11.4,0-17,0.2c-5.4,0.2-10.8,0.5-16.1,1.3C40,68.5,34,70,28.1,72
				C27.8,72.2,27.9,72.7,28.2,72.6L28.2,72.6z"/>
		</g>
	</g>
</g>
<g>
	<g>
		<g>
			<path d="M27.8,72.8c4.8,2.2,10,2.9,15.1,3.7c2.5,0.4,5,0.9,7.6,0.9c2.9,0.1,5.9,0.6,8.8,0.7c5.7,0.3,11.4,0.4,17.1,0.4
				c5.5,0,11.1-1,16.5-1.9c3.1-0.5,6.2-1.1,9.3-1.9c1.6-0.4,3.1-0.8,4.7-1.2c1.5-0.4,3.1-0.6,4.6-1.1c0.3-0.1,0.2-0.7-0.2-0.5
				c-1.2,0.5-2.5,0.7-3.8,0.9c-1.4,0.3-2.7,0.7-4,1.1c-2.7,0.7-5.5,1.3-8.3,1.8c-2.7,0.5-5.4,0.9-8.1,1.3c-2.8,0.4-5.7,1-8.5,1
				c-5.6,0-11.2,0-16.8-0.3c-5.6-0.2-11.2-0.6-16.7-1.5c-5.8-0.9-11.8-1.5-17.2-3.9C27.7,72.2,27.4,72.7,27.8,72.8L27.8,72.8z"/>
		</g>
	</g>
</g>
<g>
	<g>
		<g>
			<path d="M28.3,72.6c6.4,0.3,12.8,0.2,19.3,0.1c3.2,0,6.4-0.1,9.5-0.1c1.5,0,3.1-0.1,4.6-0.1c0.4,0,3.8,0.2,3.7-0.1
				c0.1-0.1,0.1-0.2,0.2-0.3c0,0,0,0,0,0c-0.3,0.1-0.2,0.7,0.2,0.5c0,0,0,0,0,0c0.2-0.1,0.2-0.2,0.2-0.3c0,0,0,0,0-0.1
				c0-0.1-0.2-0.2-0.3-0.2c-12.4-0.2-24.9,0.6-37.4,0C27.9,72,27.9,72.6,28.3,72.6L28.3,72.6z"/>
		</g>
	</g>
</g>
<g>
	<g>
		<g>
			<path d="M74.4,72.8c12.2,0.8,24.5-0.3,36.7-0.3c0.4,0,0.4-0.6,0-0.6c-12.2,0-24.5,1.1-36.7,0.3C74.1,72.2,74.1,72.8,74.4,72.8
				L74.4,72.8z"/>
		</g>
	</g>
</g>
<g>
	<g>
		<g>
			<path d="M100.3,69.2c0.5,0.7,1.2,1.9,1.2,2.8c0,1-1.1,2-1.8,2.6c-0.2,0.3,0.2,0.7,0.4,0.4c0.6-0.7,1.8-1.7,1.9-2.6
				c0.2-1.1-0.8-2.6-1.3-3.5C100.6,68.7,100.2,68.9,100.3,69.2L100.3,69.2z"/>
		</g>
	</g>
</g>
<g class="st0">
	<path d="M69.9,32c-0.4,0-0.7-0.2-0.9-0.6c-0.2-0.4-0.3-1-0.3-1.6c0-0.7,0.1-1.2,0.4-1.6c0.2-0.4,0.6-0.6,0.9-0.6
		c0.4,0,0.7,0.2,0.9,0.6c0.2,0.4,0.3,1,0.3,1.6c0,0.7-0.1,1.2-0.4,1.6C70.6,31.8,70.3,32,69.9,32z M70,31.5c0.5,0,0.8-0.6,0.8-1.8
		c0-1.2-0.2-1.8-0.7-1.8c-0.5,0-0.8,0.6-0.8,1.8C69.2,30.9,69.5,31.5,70,31.5z"/>
</g>
<g class="st0">
	<path d="M81.3,33.4l0.2-0.5c0.3-0.3,0.7-0.6,1.2-0.9l0.4-0.2c0.5-0.2,0.8-0.5,0.9-0.9c0.1-0.2,0.1-0.4,0-0.6
		c-0.1-0.2-0.2-0.3-0.4-0.4c-0.2-0.1-0.6-0.1-1,0l0.2-0.5c0.4-0.1,0.7,0,1,0.1c0.3,0.1,0.5,0.3,0.7,0.6c0.1,0.3,0.1,0.6,0,0.9
		c-0.1,0.2-0.2,0.4-0.4,0.6c-0.2,0.2-0.4,0.3-0.8,0.5L83,32.3c-0.5,0.2-0.8,0.5-1,0.8l1.5,0.5l-0.2,0.5L81.3,33.4z"/>
	<path d="M85.3,34.9c-0.4-0.1-0.6-0.4-0.6-0.9c-0.1-0.5,0-1,0.2-1.7c0.2-0.6,0.5-1.1,0.9-1.4c0.4-0.3,0.7-0.4,1.1-0.3
		c0.4,0.1,0.6,0.4,0.7,0.9c0.1,0.5,0,1-0.2,1.7c-0.2,0.7-0.5,1.1-0.9,1.4C86.1,35,85.7,35.1,85.3,34.9z M85.5,34.5
		c0.5,0.2,0.9-0.3,1.3-1.5c0.4-1.1,0.4-1.8-0.1-2c-0.5-0.2-0.9,0.3-1.3,1.5C85,33.7,85,34.3,85.5,34.5z"/>
</g>
<g class="st0">
	<path d="M94.7,40.6l0.8-0.9l-1.3-1l0.3-0.3l2.9-1l0.4,0.3l-1.6,2l0.4,0.3l-0.3,0.4L95.8,40l-0.8,0.9L94.7,40.6z M94.9,38.6l0.9,0.8
		l1.2-1.5L94.9,38.6z"/>
	<path d="M96.9,42.5c-0.3-0.2-0.4-0.6-0.3-1.1c0.1-0.5,0.3-1,0.8-1.5c0.4-0.5,0.9-0.9,1.3-1.1c0.4-0.2,0.8-0.1,1.1,0.1
		c0.3,0.2,0.4,0.6,0.3,1.1c-0.1,0.5-0.3,1-0.8,1.5c-0.4,0.5-0.9,0.9-1.3,1.1C97.6,42.8,97.2,42.8,96.9,42.5z M97.2,42.2
		c0.4,0.3,1,0,1.8-1c0.8-0.9,0.9-1.6,0.5-1.9c-0.4-0.3-1,0-1.7,0.9C97,41.2,96.8,41.9,97.2,42.2z"/>
</g>
<g class="st0">
	<path d="M105.7,49.5c0.4,0,0.7,0.2,0.9,0.5c0.2,0.3,0.2,0.6,0.1,0.9c-0.1,0.3-0.3,0.5-0.7,0.7c-0.4,0.2-0.8,0.3-1.1,0.2
		c-0.4-0.1-0.6-0.2-0.8-0.5c-0.2-0.4-0.2-0.7,0-1.1c0.2-0.4,0.6-0.7,1.2-1.1c0.6-0.4,1.2-0.5,1.7-0.5c0.5,0,0.8,0.2,1.1,0.7
		c0.1,0.2,0.2,0.5,0.3,0.8l-0.4,0.2c0-0.4-0.1-0.7-0.2-0.8C107.4,48.9,106.7,48.9,105.7,49.5z M105.6,51.2c0.3-0.2,0.5-0.3,0.6-0.5
		c0.1-0.2,0.1-0.4,0-0.6c-0.1-0.2-0.3-0.3-0.5-0.3c-0.2,0-0.4,0-0.6,0.1c-0.3,0.2-0.5,0.4-0.7,0.6c-0.1,0.2-0.1,0.4,0,0.6
		c0.1,0.2,0.3,0.3,0.5,0.3C105.1,51.4,105.4,51.4,105.6,51.2z"/>
	<path d="M105.6,54c-0.2-0.3-0.2-0.7,0.1-1.1c0.2-0.4,0.7-0.8,1.3-1.1c0.6-0.3,1.1-0.5,1.6-0.5c0.5,0,0.8,0.2,1,0.5
		c0.2,0.3,0.2,0.7-0.1,1.1c-0.2,0.4-0.7,0.8-1.2,1.1c-0.6,0.3-1.1,0.5-1.6,0.5C106.1,54.6,105.8,54.4,105.6,54z M106,53.8
		c0.3,0.4,0.9,0.4,2-0.2c1-0.6,1.4-1.1,1.2-1.6c-0.2-0.4-0.9-0.4-2,0.2C106.1,52.9,105.7,53.4,106,53.8z"/>
</g>
<g class="st0">
	<path d="M111.3,63c0.2-0.4,0.5-0.6,0.9-0.7c0.3-0.1,0.6,0,0.8,0.2c0.2,0.2,0.4,0.4,0.4,0.7c0.1,0.3,0,0.6-0.1,0.8
		c-0.1,0.2-0.3,0.3-0.6,0.4c-0.4,0.1-0.8-0.1-1.2-0.5c-0.2,0.6-0.6,0.9-1.1,1c-0.4,0.1-0.7,0-0.9-0.2c-0.3-0.2-0.4-0.5-0.5-0.8
		c-0.1-0.4,0-0.7,0.2-0.9c0.2-0.3,0.4-0.4,0.8-0.5C110.4,62.4,110.9,62.5,111.3,63z M111.1,63.3c-0.2-0.2-0.4-0.3-0.5-0.3
		c-0.1,0-0.3-0.1-0.5,0c-0.2,0-0.4,0.1-0.6,0.3c-0.1,0.2-0.2,0.3-0.1,0.6c0,0.2,0.1,0.4,0.3,0.5c0.2,0.1,0.3,0.1,0.5,0.1
		c0.2,0,0.3-0.1,0.4-0.2c0.1-0.1,0.2-0.3,0.3-0.5L111.1,63.3z M111.6,63.5c0.3,0.3,0.6,0.4,1,0.4c0.2,0,0.3-0.1,0.4-0.2
		c0.1-0.1,0.1-0.3,0.1-0.5c0-0.2-0.1-0.3-0.2-0.4c-0.1-0.1-0.3-0.1-0.4-0.1c-0.2,0-0.3,0.1-0.4,0.2C111.8,63,111.7,63.2,111.6,63.5z
		"/>
	<path d="M109.5,66.9c-0.1-0.4,0.1-0.7,0.5-1c0.4-0.3,0.9-0.5,1.6-0.6c0.7-0.1,1.2-0.1,1.7,0.1c0.4,0.2,0.7,0.4,0.8,0.8
		c0.1,0.4-0.1,0.7-0.5,1s-0.9,0.5-1.5,0.6c-0.7,0.1-1.2,0.1-1.7-0.1C109.8,67.6,109.5,67.3,109.5,66.9z M109.9,66.9
		c0.1,0.5,0.7,0.7,2,0.4c1.2-0.2,1.7-0.6,1.7-1.1c-0.1-0.5-0.7-0.6-1.9-0.4C110.4,66,109.8,66.4,109.9,66.9z"/>
</g>
<g class="st0">
	<path d="M110.4,75.5l0.4,0.1l-0.1,0.7L114,77l-0.1-0.8l0.4,0.1l0.1,1.3l-3.9-0.8l-0.1,0.7l-0.4-0.1L110.4,75.5z"/>
	<path d="M109.5,79.4c0.1-0.4,0.3-0.6,0.8-0.8c0.5-0.1,1-0.1,1.7,0c0.7,0.1,1.2,0.4,1.5,0.7c0.4,0.3,0.5,0.7,0.4,1
		c-0.1,0.4-0.3,0.6-0.8,0.8c-0.5,0.1-1,0.1-1.7,0c-0.7-0.1-1.2-0.4-1.5-0.7C109.5,80.1,109.4,79.8,109.5,79.4z M109.9,79.5
		c-0.1,0.5,0.4,0.9,1.7,1.1c1.2,0.2,1.8,0.1,1.9-0.4c0.1-0.5-0.4-0.9-1.6-1.1C110.6,78.9,110,79,109.9,79.5z"/>
	<path d="M108.8,82.5c0.1-0.4,0.3-0.6,0.8-0.8c0.5-0.1,1-0.1,1.7,0c0.7,0.1,1.2,0.4,1.5,0.7c0.4,0.3,0.5,0.7,0.4,1
		c-0.1,0.4-0.3,0.6-0.8,0.8c-0.5,0.1-1,0.1-1.7,0c-0.7-0.1-1.2-0.4-1.5-0.7C108.9,83.3,108.7,82.9,108.8,82.5z M109.2,82.6
		c-0.1,0.5,0.4,0.9,1.7,1.1c1.2,0.2,1.8,0.1,1.9-0.4c0.1-0.5-0.4-0.9-1.6-1.1C110,82,109.4,82.1,109.2,82.6z"/>
</g>
<g class="st0">
	<path d="M106.5,89.8l0.4,0.2l-0.4,0.6l2.8,1.8l0.2-0.7l0.4,0.2l-0.4,1.2l-3.3-2.2l-0.4,0.6l-0.4-0.2L106.5,89.8z"/>
	<path d="M104.9,92.1l0.4,0.3c0.2,0.3,0.5,0.8,0.6,1.4l0.1,0.4c0.1,0.5,0.3,0.9,0.7,1.1c0.2,0.1,0.4,0.2,0.6,0.2
		c0.2,0,0.3-0.1,0.4-0.3c0.1-0.2,0.2-0.5,0.2-0.9l0.4,0.3c0,0.4-0.1,0.7-0.3,1c-0.2,0.3-0.4,0.5-0.7,0.5c-0.3,0.1-0.6,0-0.9-0.2
		c-0.2-0.1-0.4-0.3-0.5-0.5c-0.1-0.2-0.2-0.5-0.3-0.9l-0.1-0.3c-0.1-0.5-0.3-0.9-0.6-1.2l-0.9,1.3l-0.4-0.3L104.9,92.1z"/>
	<path d="M102.5,95.7c0.2-0.3,0.5-0.5,1-0.4c0.5,0,1,0.2,1.6,0.6c0.6,0.4,1,0.8,1.2,1.2c0.2,0.4,0.2,0.8,0,1.1
		c-0.2,0.3-0.5,0.5-1,0.4c-0.5,0-1-0.2-1.6-0.6c-0.6-0.4-1-0.8-1.2-1.2C102.2,96.4,102.2,96.1,102.5,95.7z M102.8,96
		c-0.3,0.4,0.1,1,1.1,1.7c1,0.7,1.7,0.8,1.9,0.3c0.3-0.4-0.1-1-1.1-1.6C103.7,95.7,103.1,95.6,102.8,96z"/>
</g>
<g class="st0">
	<path d="M99.3,99.9l0.3,0.3l-0.5,0.5l2.2,2.6l0.4-0.6l0.3,0.3l-0.7,1.1l-2.6-3l-0.5,0.5l-0.3-0.3L99.3,99.9z"/>
	<path d="M96,102.7l0.8,0.9l1.2-1.1l0.3,0.3l0.5,3.1l-0.3,0.3l-1.7-2l-0.4,0.3l-0.3-0.4l0.4-0.3l-0.8-0.9L96,102.7z M98,103.2
		l-0.9,0.8l1.3,1.4L98,103.2z"/>
	<path d="M93.8,104.5c0.3-0.2,0.6-0.3,1.1-0.1c0.4,0.2,0.9,0.5,1.3,1c0.4,0.5,0.7,1,0.8,1.5c0.1,0.5,0,0.8-0.3,1.1
		c-0.3,0.3-0.7,0.3-1.1,0.1c-0.4-0.2-0.9-0.5-1.3-1c-0.5-0.5-0.7-1-0.8-1.5C93.4,105.2,93.5,104.8,93.8,104.5z M94.1,104.9
		c-0.4,0.3-0.2,1,0.6,1.9c0.8,0.9,1.4,1.2,1.8,0.9c0.4-0.3,0.2-1-0.6-1.9C95,104.8,94.4,104.5,94.1,104.9z"/>
</g>
<g class="st0">
	<path d="M87.4,108.8l0.1,0.4l-0.7,0.2l1.1,3.2l0.6-0.4l0.1,0.4l-1,0.7l-1.3-3.8l-0.7,0.2l-0.1-0.4L87.4,108.8z"/>
	<path d="M85,112c-0.1,0.4-0.3,0.7-0.6,0.8c-0.3,0.1-0.6,0.1-0.9-0.1c-0.3-0.2-0.5-0.4-0.6-0.8c-0.2-0.4-0.2-0.8,0-1.2
		c0.1-0.3,0.3-0.6,0.7-0.7c0.4-0.1,0.7-0.1,1.1,0.2c0.3,0.3,0.6,0.7,0.9,1.4c0.3,0.7,0.3,1.3,0.2,1.8c-0.1,0.5-0.4,0.8-0.8,1
		c-0.2,0.1-0.5,0.1-0.8,0.1l-0.2-0.5c0.4,0,0.7,0,0.9-0.1C85.3,113.7,85.4,113.1,85,112z M83.3,111.6c0.1,0.3,0.3,0.5,0.4,0.7
		c0.2,0.1,0.4,0.2,0.6,0.1c0.2-0.1,0.3-0.2,0.4-0.4c0.1-0.2,0.1-0.4,0-0.6c-0.1-0.3-0.3-0.6-0.5-0.7c-0.2-0.2-0.4-0.2-0.6-0.1
		c-0.2,0.1-0.3,0.2-0.4,0.4C83.2,111.1,83.2,111.3,83.3,111.6z"/>
	<path d="M80.6,111.1c0.4-0.1,0.7,0,1.1,0.3c0.4,0.3,0.7,0.8,0.9,1.4c0.2,0.6,0.3,1.2,0.2,1.7c-0.1,0.5-0.3,0.8-0.7,0.9
		c-0.4,0.1-0.7,0-1.1-0.3c-0.4-0.3-0.7-0.8-0.9-1.4c-0.2-0.7-0.3-1.2-0.2-1.7C80,111.5,80.2,111.2,80.6,111.1z M80.7,111.5
		c-0.5,0.2-0.5,0.8-0.1,2c0.4,1.1,0.8,1.6,1.3,1.4c0.5-0.2,0.5-0.8,0.1-2C81.6,111.8,81.2,111.3,80.7,111.5z"/>
</g>
<g class="st0">
	<path d="M73.7,112.4l0,0.4l-0.7,0l0,3.4l0.7-0.2l0,0.4l-1.2,0.4l0-4l-0.7,0l0-0.4L73.7,112.4z"/>
	<path d="M70.1,114.8c0.4,0.3,0.5,0.6,0.5,1c0,0.3-0.1,0.6-0.3,0.8c-0.2,0.2-0.5,0.3-0.8,0.3c-0.3,0-0.5-0.1-0.7-0.3
		c-0.2-0.2-0.3-0.4-0.3-0.7c0-0.4,0.2-0.8,0.7-1.1c-0.6-0.3-0.8-0.7-0.8-1.2c0-0.4,0.1-0.7,0.3-0.9c0.2-0.2,0.5-0.3,0.9-0.3
		c0.4,0,0.6,0.1,0.9,0.3c0.2,0.2,0.3,0.5,0.3,0.8C70.8,114,70.6,114.4,70.1,114.8z M69.9,114.5c0.2-0.2,0.3-0.3,0.4-0.5
		s0.1-0.3,0.1-0.5c0-0.2-0.1-0.4-0.2-0.6c-0.1-0.2-0.3-0.2-0.5-0.2c-0.2,0-0.4,0.1-0.5,0.2c-0.1,0.1-0.2,0.3-0.2,0.5
		c0,0.2,0,0.3,0.1,0.4c0.1,0.1,0.2,0.3,0.5,0.4L69.9,114.5z M69.5,115c-0.3,0.3-0.5,0.6-0.5,0.9c0,0.2,0.1,0.3,0.2,0.4
		c0.1,0.1,0.3,0.2,0.4,0.2c0.2,0,0.3-0.1,0.4-0.2c0.1-0.1,0.2-0.2,0.2-0.4c0-0.2-0.1-0.3-0.2-0.4C70,115.3,69.8,115.1,69.5,115z"/>
	<path d="M66.5,112.4c0.4,0,0.7,0.2,0.9,0.6c0.2,0.4,0.4,1,0.4,1.6c0,0.7-0.1,1.2-0.3,1.6c-0.2,0.4-0.5,0.6-0.9,0.6
		c-0.4,0-0.7-0.2-0.9-0.6c-0.2-0.4-0.4-1-0.4-1.6c0-0.7,0.1-1.2,0.3-1.7C65.8,112.6,66.1,112.4,66.5,112.4z M66.5,112.8
		c-0.5,0-0.8,0.6-0.8,1.9c0,1.2,0.3,1.8,0.8,1.8c0.5,0,0.8-0.6,0.7-1.8C67.2,113.4,67,112.8,66.5,112.8z"/>
</g>
<g class="st0">
	<path d="M59.9,111.5l-0.2,0.5c-0.3,0.3-0.7,0.6-1.3,0.9l-0.4,0.2c-0.5,0.2-0.8,0.5-0.9,0.9c-0.1,0.2-0.1,0.4,0,0.6
		c0.1,0.2,0.2,0.3,0.4,0.4c0.2,0.1,0.6,0.1,1,0l-0.2,0.5c-0.4,0.1-0.7,0-1-0.1c-0.3-0.1-0.5-0.3-0.7-0.6c-0.1-0.3-0.1-0.6,0-0.9
		c0.1-0.2,0.2-0.4,0.4-0.6c0.2-0.1,0.4-0.3,0.8-0.5l0.2-0.1c0.5-0.2,0.8-0.5,1-0.8l-1.5-0.6l0.2-0.5L59.9,111.5z"/>
	<path d="M55.9,109.9c0.4,0.1,0.6,0.4,0.6,0.9c0.1,0.5,0,1-0.3,1.7c-0.2,0.6-0.5,1.1-0.9,1.4c-0.4,0.3-0.7,0.4-1.1,0.3
		c-0.4-0.1-0.6-0.4-0.6-0.9c-0.1-0.5,0-1,0.3-1.6c0.2-0.6,0.6-1.1,0.9-1.4C55.2,109.8,55.5,109.7,55.9,109.9z M55.7,110.3
		c-0.5-0.2-0.9,0.3-1.4,1.5c-0.4,1.1-0.4,1.8,0.1,2c0.5,0.2,0.9-0.3,1.4-1.4C56.2,111.1,56.2,110.4,55.7,110.3z"/>
	<path d="M52.9,108.7c0.4,0.1,0.6,0.4,0.6,0.9c0.1,0.5,0,1-0.3,1.7c-0.2,0.6-0.5,1.1-0.9,1.4c-0.4,0.3-0.7,0.4-1.1,0.3
		c-0.4-0.1-0.6-0.4-0.6-0.9c-0.1-0.5,0-1,0.2-1.6c0.2-0.6,0.6-1.1,0.9-1.4C52.2,108.7,52.5,108.6,52.9,108.7z M52.8,109.1
		c-0.5-0.2-0.9,0.3-1.4,1.5c-0.4,1.1-0.4,1.8,0.1,2c0.5,0.2,0.9-0.3,1.4-1.4C53.2,110,53.2,109.3,52.8,109.1z"/>
</g>
<g class="st0">
	<path d="M47.6,106l-0.3,0.4c-0.4,0.2-0.8,0.4-1.5,0.4l-0.4,0c-0.5,0.1-0.9,0.2-1.1,0.5c-0.2,0.2-0.2,0.4-0.2,0.6
		c0,0.2,0.1,0.3,0.3,0.5c0.2,0.2,0.5,0.3,0.9,0.3l-0.3,0.4c-0.4-0.1-0.7-0.2-0.9-0.4c-0.3-0.2-0.4-0.5-0.4-0.8
		c0-0.3,0.1-0.6,0.3-0.9c0.2-0.2,0.4-0.3,0.6-0.4c0.2-0.1,0.5-0.1,0.9-0.2l0.3,0c0.5-0.1,1-0.2,1.2-0.4l-1.2-1l0.3-0.4L47.6,106z"/>
	<path d="M45.2,104l-0.3,0.4c-0.4,0.2-0.8,0.4-1.5,0.4l-0.4,0c-0.5,0.1-0.9,0.2-1.1,0.5c-0.2,0.2-0.2,0.4-0.2,0.6
		c0,0.2,0.1,0.3,0.3,0.5c0.2,0.2,0.5,0.3,0.9,0.3l-0.3,0.4c-0.4-0.1-0.7-0.2-0.9-0.4c-0.3-0.2-0.4-0.5-0.4-0.8
		c0-0.3,0.1-0.6,0.3-0.9c0.2-0.2,0.4-0.3,0.6-0.4c0.2-0.1,0.5-0.1,0.9-0.2l0.3,0c0.5-0.1,1-0.2,1.2-0.4l-1.2-1l0.3-0.4L45.2,104z"/>
	<path d="M41.9,101.1c0.3,0.2,0.4,0.6,0.3,1.1c-0.1,0.5-0.3,1-0.8,1.5c-0.4,0.5-0.9,0.9-1.3,1c-0.4,0.2-0.8,0.1-1.1-0.1
		c-0.3-0.2-0.4-0.6-0.3-1.1c0.1-0.5,0.3-1,0.8-1.5c0.4-0.5,0.9-0.9,1.3-1C41.2,100.8,41.6,100.9,41.9,101.1z M41.6,101.5
		c-0.4-0.3-1,0-1.8,0.9c-0.8,0.9-1,1.6-0.6,1.9c0.4,0.3,1,0,1.8-0.9C41.8,102.4,42,101.8,41.6,101.5z"/>
</g>
<g class="st0">
	<path d="M37.4,96.4L37,96.7c-0.4,0.1-0.9,0-1.5-0.1l-0.4-0.1c-0.5-0.1-0.9-0.1-1.3,0.1c-0.2,0.1-0.3,0.3-0.4,0.4s0,0.4,0.1,0.5
		c0.1,0.2,0.4,0.4,0.7,0.6l-0.4,0.3c-0.3-0.2-0.6-0.4-0.7-0.7c-0.2-0.3-0.2-0.6-0.1-0.9c0.1-0.3,0.3-0.5,0.6-0.7
		C33.8,96,34,96,34.2,96c0.2,0,0.5,0,0.9,0.1l0.3,0.1c0.5,0.1,1,0.1,1.3,0l-0.8-1.4l0.4-0.3L37.4,96.4z"/>
	<path d="M35.1,92.4L34,93l0.8,1.4l-0.4,0.2l-3.1-0.1l-0.2-0.4l2.3-1.3l-0.2-0.4l0.4-0.2l0.2,0.4l1.1-0.6L35.1,92.4z M34.2,94.3
		l-0.6-1l-1.7,1L34.2,94.3z"/>
	<path d="M33.7,89.9c0.2,0.3,0.2,0.7-0.1,1.1c-0.2,0.4-0.7,0.8-1.2,1.1c-0.6,0.3-1.1,0.5-1.6,0.5c-0.5,0-0.8-0.2-1-0.5
		c-0.2-0.3-0.2-0.7,0.1-1.1c0.2-0.4,0.6-0.8,1.2-1.1c0.6-0.3,1.1-0.5,1.6-0.5C33.2,89.4,33.5,89.5,33.7,89.9z M33.4,90.1
		c-0.3-0.4-0.9-0.4-2,0.3c-1,0.6-1.4,1.1-1.2,1.6c0.3,0.4,0.9,0.3,2-0.3C33.2,91,33.6,90.5,33.4,90.1z"/>
</g>
<g class="st0">
	<path d="M31.3,84.1l-0.5,0.1c-0.4-0.1-0.9-0.3-1.4-0.6L29,83.4c-0.4-0.3-0.8-0.4-1.2-0.3c-0.2,0-0.4,0.1-0.5,0.3
		c-0.1,0.1-0.1,0.3-0.1,0.5c0,0.2,0.2,0.5,0.5,0.8l-0.5,0.1c-0.2-0.3-0.4-0.6-0.4-0.9c-0.1-0.3,0-0.6,0.2-0.9
		c0.2-0.2,0.4-0.4,0.8-0.5c0.3,0,0.5,0,0.7,0c0.2,0.1,0.5,0.2,0.8,0.4l0.2,0.1c0.5,0.3,0.9,0.5,1.2,0.5l-0.3-1.6l0.5-0.1L31.3,84.1z
		"/>
	<path d="M28.4,81c-0.4-0.2-0.6-0.4-0.7-0.8c-0.1-0.3,0-0.6,0.2-0.8c0.2-0.2,0.5-0.4,0.9-0.5c0.4-0.1,0.8,0,1.1,0.1
		c0.3,0.2,0.5,0.4,0.6,0.8c0.1,0.4-0.1,0.7-0.4,1c-0.3,0.3-0.8,0.5-1.5,0.6c-0.7,0.1-1.3,0.1-1.8-0.1c-0.5-0.2-0.7-0.5-0.8-1
		c0-0.2,0-0.5,0-0.8l0.5-0.1c-0.1,0.4-0.1,0.7-0.1,0.9C26.6,81,27.3,81.2,28.4,81z M29,79.3c-0.3,0.1-0.6,0.2-0.7,0.3
		c-0.2,0.2-0.2,0.3-0.2,0.6c0,0.2,0.2,0.4,0.3,0.5c0.2,0.1,0.4,0.2,0.6,0.1c0.4-0.1,0.6-0.2,0.8-0.4s0.3-0.4,0.2-0.6
		c0-0.2-0.2-0.4-0.4-0.4C29.6,79.3,29.3,79.3,29,79.3z"/>
	<path d="M30,76.7c0.1,0.4-0.1,0.7-0.4,1c-0.4,0.3-0.9,0.5-1.5,0.6c-0.7,0.1-1.2,0.1-1.7,0c-0.4-0.2-0.7-0.4-0.8-0.8
		c-0.1-0.4,0.1-0.7,0.4-1c0.4-0.3,0.9-0.5,1.5-0.7c0.7-0.1,1.2-0.1,1.7,0C29.6,76,29.9,76.3,30,76.7z M29.5,76.8
		c-0.1-0.5-0.8-0.6-2-0.4c-1.2,0.2-1.7,0.6-1.6,1.1c0.1,0.5,0.7,0.6,1.9,0.4C29.1,77.6,29.6,77.2,29.5,76.8z"/>
</g>
<g class="st0">
	<path d="M29.4,70.3l-0.5-0.1c-0.4-0.2-0.7-0.5-1.1-1l-0.3-0.3c-0.3-0.4-0.7-0.6-1.1-0.7c-0.2,0-0.4,0-0.6,0.1
		c-0.2,0.1-0.2,0.3-0.3,0.5c0,0.3,0,0.6,0.2,0.9l-0.5-0.1c-0.1-0.3-0.2-0.7-0.1-1c0-0.3,0.2-0.6,0.4-0.8c0.2-0.2,0.5-0.2,0.9-0.2
		c0.3,0,0.5,0.1,0.7,0.3c0.2,0.1,0.4,0.4,0.6,0.7l0.2,0.2c0.3,0.4,0.7,0.7,1,0.8l0.2-1.6l0.5,0.1L29.4,70.3z"/>
	<path d="M27.7,66c-0.3,0.3-0.7,0.4-1,0.4c-0.3,0-0.6-0.2-0.7-0.4c-0.2-0.2-0.2-0.5-0.2-0.8c0-0.3,0.2-0.5,0.4-0.7
		c0.2-0.2,0.4-0.2,0.7-0.2c0.4,0.1,0.8,0.3,1,0.8c0.4-0.5,0.8-0.7,1.3-0.6c0.4,0.1,0.6,0.2,0.8,0.5c0.2,0.3,0.3,0.6,0.2,0.9
		c0,0.4-0.2,0.6-0.4,0.8c-0.2,0.2-0.5,0.3-0.9,0.2C28.3,66.9,27.9,66.6,27.7,66z M27.6,65.4c-0.2-0.4-0.5-0.6-0.8-0.6
		c-0.2,0-0.3,0-0.4,0.1c-0.1,0.1-0.2,0.2-0.2,0.4c0,0.2,0,0.3,0.1,0.5c0.1,0.1,0.2,0.2,0.4,0.2c0.2,0,0.3,0,0.4-0.1
		C27.2,65.8,27.3,65.6,27.6,65.4z M27.9,65.8c0.1,0.2,0.3,0.4,0.4,0.5c0.1,0.1,0.3,0.1,0.5,0.2c0.2,0,0.5,0,0.6-0.1
		c0.2-0.1,0.3-0.3,0.3-0.5c0-0.2,0-0.4-0.1-0.5c-0.1-0.2-0.3-0.2-0.5-0.3c-0.2,0-0.3,0-0.4,0.1c-0.1,0.1-0.3,0.2-0.5,0.4L27.9,65.8z
		"/>
	<path d="M30.6,62.8c-0.1,0.4-0.3,0.6-0.7,0.8c-0.4,0.2-1,0.2-1.7,0.1c-0.7-0.1-1.2-0.3-1.6-0.6c-0.4-0.3-0.5-0.6-0.5-1
		c0.1-0.4,0.3-0.7,0.7-0.8c0.4-0.2,1-0.2,1.7-0.1c0.7,0.1,1.2,0.3,1.6,0.6S30.6,62.4,30.6,62.8z M30.2,62.7c0.1-0.5-0.5-0.8-1.7-1
		c-1.2-0.2-1.8,0-1.9,0.5c-0.1,0.5,0.5,0.8,1.7,1C29.5,63.4,30.1,63.2,30.2,62.7z"/>
</g>
<g class="st0">
	<path d="M32.6,56.4l-0.5-0.3c0.3-0.2,0.5-0.4,0.6-0.6c0.1-0.2,0.1-0.4,0.1-0.6c-0.1-0.2-0.2-0.4-0.4-0.5c-0.5-0.3-1-0.2-1.3,0.5
		L31,55.1l-0.3-0.2l0.1-0.1c0.3-0.6,0.3-1-0.2-1.3c-0.4-0.2-0.7-0.1-0.9,0.2c-0.1,0.2-0.2,0.5-0.2,0.8L29,54.2
		c0-0.3,0.1-0.6,0.3-0.8c0.4-0.6,0.9-0.8,1.4-0.4c0.4,0.3,0.6,0.7,0.5,1.2c0.4-0.4,0.9-0.5,1.4-0.2c0.3,0.2,0.6,0.5,0.6,0.8
		c0.1,0.3,0,0.6-0.2,1C33,56,32.8,56.2,32.6,56.4z"/>
	<path d="M34.9,52.8c-0.2,0.3-0.5,0.5-1,0.5c-0.5,0-1-0.2-1.6-0.5c-0.6-0.3-1-0.7-1.2-1.1c-0.2-0.4-0.3-0.8-0.1-1.1
		c0.2-0.3,0.5-0.5,1-0.5c0.5,0,1,0.2,1.6,0.5c0.6,0.4,1,0.7,1.2,1.2C35,52.1,35.1,52.5,34.9,52.8z M34.5,52.6c0.3-0.4-0.1-1-1.2-1.6
		c-1-0.6-1.7-0.7-1.9-0.3c-0.3,0.4,0.1,1,1.2,1.6C33.6,52.9,34.2,53,34.5,52.6z"/>
	<path d="M36.5,50.1c-0.2,0.3-0.5,0.5-1,0.5c-0.5,0-1-0.2-1.6-0.5c-0.6-0.3-1-0.7-1.2-1.1c-0.2-0.4-0.3-0.8-0.1-1.1
		c0.2-0.3,0.5-0.5,1-0.5c0.5,0,1,0.2,1.6,0.5c0.6,0.4,1,0.7,1.2,1.2C36.7,49.4,36.7,49.8,36.5,50.1z M36.1,49.9
		c0.3-0.4-0.1-1-1.2-1.6c-1-0.6-1.7-0.7-1.9-0.3c-0.3,0.4,0.1,1,1.2,1.6C35.2,50.2,35.9,50.3,36.1,49.9z"/>
</g>
<g class="st0">
	<path d="M40.6,44.7l-0.4-0.4c0.4-0.1,0.6-0.2,0.8-0.4c0.2-0.2,0.3-0.3,0.3-0.6c0-0.2-0.1-0.4-0.2-0.6c-0.4-0.5-0.9-0.4-1.4,0
		l-0.1,0.1l-0.3-0.3l0.1-0.1c0.5-0.4,0.6-0.9,0.2-1.3c-0.3-0.3-0.6-0.4-0.9-0.1c-0.2,0.2-0.3,0.4-0.4,0.7l-0.3-0.4
		c0.1-0.3,0.3-0.5,0.5-0.7c0.6-0.5,1.1-0.5,1.5,0c0.3,0.4,0.4,0.8,0.1,1.3c0.5-0.3,1-0.2,1.4,0.3c0.3,0.3,0.4,0.6,0.4,0.9
		c0,0.3-0.2,0.6-0.5,0.9C41.1,44.4,40.9,44.5,40.6,44.7z"/>
	<path d="M42.9,42.7l-0.3-0.4c-0.2-0.4-0.2-0.9-0.2-1.5l0-0.4c0-0.5-0.1-0.9-0.3-1.2c-0.2-0.2-0.3-0.3-0.5-0.3c-0.2,0-0.4,0-0.5,0.2
		c-0.2,0.2-0.3,0.4-0.4,0.8l-0.3-0.4c0.1-0.3,0.3-0.6,0.5-0.8c0.3-0.2,0.5-0.3,0.8-0.3c0.3,0,0.6,0.2,0.8,0.4
		c0.2,0.2,0.3,0.4,0.3,0.6c0.1,0.2,0.1,0.5,0,0.9l0,0.3c0,0.5,0,1,0.2,1.3l1.2-1l0.3,0.4L42.9,42.7z"/>
	<path d="M46.3,39.9c-0.3,0.2-0.6,0.3-1.1,0.1c-0.4-0.2-0.9-0.5-1.3-1c-0.4-0.5-0.7-1-0.8-1.5c-0.1-0.5,0-0.8,0.3-1.1
		c0.3-0.3,0.7-0.3,1.1-0.1c0.4,0.2,0.9,0.5,1.3,1c0.5,0.5,0.7,1,0.8,1.5C46.7,39.3,46.6,39.6,46.3,39.9z M46,39.5
		c0.4-0.3,0.2-1-0.6-1.9c-0.8-0.9-1.4-1.2-1.8-0.9c-0.4,0.3-0.2,1,0.6,1.9C45,39.6,45.6,39.9,46,39.5z"/>
</g>
<g class="st0">
	<path d="M51.7,36.1l-0.2-0.5c0.4,0,0.7,0,0.9-0.1c0.2-0.1,0.4-0.2,0.4-0.4c0.1-0.2,0.1-0.4,0-0.7c-0.2-0.6-0.7-0.7-1.3-0.4
		l-0.2,0.1l-0.1-0.4l0.2-0.1c0.6-0.3,0.8-0.6,0.6-1.2c-0.2-0.4-0.5-0.5-0.9-0.4c-0.2,0.1-0.4,0.3-0.7,0.5l-0.2-0.5
		c0.2-0.2,0.5-0.4,0.7-0.5c0.7-0.3,1.2-0.1,1.4,0.5c0.2,0.5,0.1,0.9-0.3,1.3c0.6-0.1,1,0.2,1.2,0.7c0.2,0.4,0.2,0.7,0,1
		c-0.1,0.3-0.4,0.5-0.7,0.7C52.3,36,52.1,36.1,51.7,36.1z"/>
	<path d="M56,34.4l-0.5-1.1L54,33.9l-0.2-0.4l0.5-3.1l0.4-0.2l1,2.4l0.5-0.2l0.2,0.4l-0.5,0.2l0.5,1.1L56,34.4z M54.3,33.3l1.1-0.4
		l-0.7-1.8L54.3,33.3z"/>
	<path d="M58.7,33.4c-0.3,0.1-0.7,0.1-1.1-0.2c-0.4-0.3-0.7-0.8-0.9-1.4c-0.3-0.6-0.3-1.2-0.3-1.6s0.3-0.8,0.6-0.9
		c0.4-0.1,0.7-0.1,1.1,0.2c0.4,0.3,0.7,0.8,0.9,1.4c0.3,0.6,0.4,1.2,0.3,1.7C59.2,33,59,33.3,58.7,33.4z M58.5,33
		c0.5-0.2,0.5-0.9,0-2c-0.5-1.1-0.9-1.6-1.4-1.4c-0.5,0.2-0.5,0.8,0,2C57.6,32.7,58.1,33.2,58.5,33z"/>
</g>
<g>
	<path d="M70,75.6c-1.9,0-3.5-1.6-3.5-3.5c0-1.9,1.6-3.5,3.5-3.5c1.9,0,3.5,1.6,3.5,3.5C73.4,74,71.9,75.6,70,75.6z M70,69.4
		c-1.5,0-2.8,1.2-2.8,2.8c0,1.5,1.2,2.8,2.8,2.8s2.8-1.2,2.8-2.8C72.8,70.6,71.5,69.4,70,69.4z"/>
</g>
<g>
	<g>
		<g>
			<path d="M101.5,69.4c0.4,0.9,1,1.7,0.9,2.7c0,1-0.5,1.8-1.2,2.4c-0.1,0.1,0,0.2,0.1,0.1c0.7-0.6,1.1-1.4,1.2-2.3
				c0.1-1.1-0.4-2.1-0.9-3.1C101.6,69.2,101.4,69.3,101.5,69.4L101.5,69.4z"/>
		</g>
	</g>
</g>
</svg>
