<?xml version="1.0" encoding="utf-8"?>
<!-- Generator: Adobe Illustrator 24.0.1, SVG Export Plug-In . SVG Version: 6.00 Build 0)  -->
<svg version="1.1" id="Layer_1" xmlns="http://www.w3.org/2000/svg" xmlns:xlink="http://www.w3.org/1999/xlink" x="0px" y="0px"
	 viewBox="0 0 141.7 141.7" style="enable-background:new 0 0 141.7 141.7;" xml:space="preserve">
<style type="text/css">
	.st0{enable-background:new    ;}
	.st1{fill:#070707;}
</style>
<g id="Layer_1_1_">
</g>
<g id="Layer_1_2_">
</g>
<g id="Layer_1_3_">
</g>
<g id="Layer_1_4_">
</g>
<g id="Layer_1_5_">
</g>
<g id="Layer_3">
</g>
<g id="Layer_3_1_">
</g>
<g>
	<path d="M70.4,131.4c-16.1,0-31.2-6.3-42.5-17.6S10.3,87.3,10.3,71.3s6.3-31.2,17.6-42.5c11.4-11.4,26.5-17.6,42.5-17.6
		c16.1,0,31.2,6.3,42.5,17.6c11.4,11.4,17.6,26.5,17.6,42.5s-6.3,31.2-17.6,42.5S86.5,131.4,70.4,131.4z M70.4,11.8
		c-15.9,0-30.8,6.2-42,17.4C17.2,40.5,11,55.4,11,71.3c0,15.9,6.2,30.8,17.4,42c11.2,11.2,26.1,17.4,42,17.4s30.8-6.2,42-17.4
		c11.2-11.2,17.4-26.1,17.4-42c0-15.9-6.2-30.8-17.4-42C101.2,18,86.3,11.8,70.4,11.8z"/>
</g>
<g>
	<path d="M69.3,121.2C41.6,121.2,19,98.7,19,71c0-27.7,22.5-50.2,50.2-50.2s50.2,22.5,50.2,50.2C119.5,98.7,97,121.2,69.3,121.2z
		 M69.3,21.7C42.1,21.7,20,43.8,20,71s22.1,49.3,49.3,49.3c27.2,0,49.3-22.1,49.3-49.3S96.4,21.7,69.3,21.7z"/>
</g>
<g>
	<path d="M70.1,126.5c-14.7,0-28.6-5.7-39-16.2S14.9,86,14.9,71.3s5.7-28.6,16.2-39s24.3-16.2,39-16.2s28.6,5.7,39,16.2
		s16.2,24.3,16.2,39s-5.7,28.6-16.2,39S84.9,126.5,70.1,126.5z M70.1,16.6c-14.6,0-28.3,5.7-38.7,16c-10.3,10.3-16,24.1-16,38.7
		s5.7,28.3,16,38.7c10.3,10.3,24.1,16,38.7,16s28.4-5.7,38.7-16c10.3-10.3,16-24.1,16-38.7s-5.7-28.3-16-38.7
		C98.5,22.3,84.7,16.6,70.1,16.6z"/>
</g>
<g>
	<g>
		<path d="M108.3,72.8c-0.1,0-0.1,0-0.2,0c0,0-0.1,0-0.1,0c-0.6,20.8-17.7,37.5-38.6,37.5c-20.6,0-37.5-16.2-38.6-36.5
			c-0.1,0-0.2-0.1-0.3-0.1c-0.1,0-0.1-0.1-0.2-0.1c1,20.7,18.1,37.3,39.1,37.3c21.2,0,38.6-17,39.1-38.1
			C108.4,72.8,108.4,72.8,108.3,72.8z"/>
	</g>
	<g>
		<path d="M69.3,33c20.3,0,37.1,15.8,38.5,35.7c0.1,0,0.3,0.1,0.4,0.1c0,0,0.1,0.1,0.1,0.1C107,48.7,90,32.6,69.3,32.6
			c-20.8,0-37.9,16.4-39.1,36.9c0.1-0.1,0.3-0.1,0.5-0.2C32,49.1,48.8,33,69.3,33z"/>
	</g>
</g>
<g>
	<g>
		<path d="M61.5,65.1C61.5,65.1,61.5,65.1,61.5,65.1c0.1,0,0.1,0,0.1,0c1.8-2.4,4.7-3.9,8-3.9c3.2,0,6,1.5,7.9,3.8
			c0.4,0,0.8-0.1,1.2,0c-2-2.8-5.3-4.7-9.1-4.7c-3.9,0-7.3,2-9.3,5c0.3-0.1,0.7-0.1,1-0.1C61.4,65.1,61.4,65.1,61.5,65.1z"/>
	</g>
	<g>
		<path d="M77.4,77.9c-1.8,2.2-4.6,3.6-7.7,3.6c-3.3,0-6.2-1.6-8.1-4c0,0-0.1,0-0.2,0c-0.4,0-0.8-0.1-1.2-0.2c2,3.1,5.4,5.2,9.4,5.2
			c3.7,0,7-1.8,9-4.6C78.2,77.8,77.8,77.9,77.4,77.9z"/>
	</g>
</g>
<g>
	<path d="M69.6,75.9c-2.7,0-4.9-2.2-4.9-4.9c0-2.7,2.2-4.9,4.9-4.9c2.7,0,4.9,2.2,4.9,4.9C74.5,73.7,72.3,75.9,69.6,75.9z
		 M69.6,66.8c-2.3,0-4.2,1.9-4.2,4.2c0,2.3,1.9,4.2,4.2,4.2c2.3,0,4.2-1.9,4.2-4.2C73.8,68.7,71.9,66.8,69.6,66.8z"/>
</g>
<g>
	<g>
		<g>
			<path d="M60.7,22.2c0.4,3.7,1,7.4,1.7,11c0,0.1,0.2,0.1,0.2,0c-0.7-3.7-1.3-7.3-1.7-11C60.9,22,60.7,22,60.7,22.2L60.7,22.2z"/>
		</g>
	</g>
</g>
<g>
	<g>
		<g>
			<path d="M77.8,22.1c-0.8,3.7-1.6,7.4-2.3,11.1c0,0.1,0.1,0.2,0.2,0c0.8-3.7,1.6-7.4,2.3-11.1C78,22.1,77.8,22,77.8,22.1
				L77.8,22.1z"/>
		</g>
	</g>
</g>
<g>
	<g>
		<g>
			<path d="M94.2,28.2c-2.1,3-4,6.2-5.7,9.4c0,0.1,0.1,0.2,0.1,0.1c1.7-3.2,3.6-6.4,5.7-9.4C94.4,28.2,94.2,28.1,94.2,28.2
				L94.2,28.2z"/>
		</g>
	</g>
</g>
<g>
	<g>
		<g>
			<path d="M99.2,46.6c3-2.3,5.8-4.7,8.4-7.4c0.1-0.1,0-0.2-0.1-0.1c-2.6,2.6-5.4,5.1-8.4,7.3C99,46.5,99.1,46.6,99.2,46.6
				L99.2,46.6z"/>
		</g>
	</g>
</g>
<g>
	<g>
		<g>
			<path d="M105.8,58.3c3.4-1.2,6.8-2.5,10.2-3.8c0.1,0,0.1-0.2,0-0.2c-3.4,1.3-6.8,2.6-10.2,3.8C105.7,58.2,105.7,58.3,105.8,58.3
				L105.8,58.3z"/>
		</g>
	</g>
</g>
<g>
	<g>
		<g>
			<path d="M108.3,71.4c1.8,0,3.5,0,5.3-0.1c1.8-0.1,3.6-0.3,5.4-0.1c0.1,0,0.2-0.2,0-0.2c-1.7-0.2-3.3-0.1-5,0
				c-1.9,0.1-3.8,0.2-5.7,0.1C108.1,71.2,108.1,71.4,108.3,71.4L108.3,71.4z"/>
		</g>
	</g>
</g>
<g>
	<g>
		<g>
			<path d="M44.4,27.8c1.8,3.3,3.4,6.8,5.5,9.9c0.1,0.1,0.2,0,0.1-0.1c-2.1-3.1-3.7-6.6-5.5-9.9C44.5,27.6,44.3,27.7,44.4,27.8
				L44.4,27.8z"/>
		</g>
	</g>
</g>
<g>
	<g>
		<g>
			<path d="M31.2,39.3c2.7,2.5,5.4,5,8.1,7.4c0.1,0.1,0.2,0,0.1-0.1c-2.7-2.4-5.5-4.9-8.1-7.4C31.2,39.1,31.1,39.2,31.2,39.3
				L31.2,39.3z"/>
		</g>
	</g>
</g>
<g>
	<g>
		<g>
			<path d="M22.4,54.3c3.3,1.4,6.6,2.7,10,4c0.1,0,0.1-0.1,0-0.2c-3.4-1.3-6.7-2.6-10-4C22.4,54.1,22.3,54.3,22.4,54.3L22.4,54.3z"
				/>
		</g>
	</g>
</g>
<g>
	<g>
		<g>
			<path d="M19.6,71.5c3.7-0.1,7.3,0,10.9,0.1c0.1,0,0.1-0.2,0-0.2c-3.7-0.1-7.3-0.1-10.9-0.1C19.4,71.3,19.4,71.5,19.6,71.5
				L19.6,71.5z"/>
		</g>
	</g>
</g>
<g>
	<g>
		<g>
			<path d="M22.9,88.6c3.2-1.4,6.4-2.7,9.7-3.8c0.1,0,0.1-0.2,0-0.2c-3.3,1.1-6.6,2.4-9.8,3.8C22.7,88.5,22.8,88.7,22.9,88.6
				L22.9,88.6z"/>
		</g>
	</g>
</g>
<g>
	<g>
		<g>
			<path d="M31,103c0.1,0,0.1,0,0.2,0c0.1,0,0.1-0.2,0-0.2c-0.1,0-0.1,0-0.2,0C30.9,102.8,30.9,103,31,103L31,103z"/>
		</g>
	</g>
</g>
<g>
	<g>
		<g>
			<path d="M31.3,103.2c2.7-2.2,5.3-4.5,8-6.7c0.1-0.1,0-0.2-0.1-0.1c-2.7,2.2-5.3,4.5-8,6.7C31.1,103.1,31.2,103.2,31.3,103.2
				L31.3,103.2z"/>
		</g>
	</g>
</g>
<g>
	<g>
		<g>
			<path d="M44.9,114.2c1.4-3.1,3.7-5.8,4.9-9c0-0.1-0.1-0.1-0.2,0c-1.3,3.2-3.5,5.9-4.9,9C44.6,114.2,44.8,114.3,44.9,114.2
				L44.9,114.2z"/>
		</g>
	</g>
</g>
<g>
	<g>
		<g>
			<path d="M62.4,110.1c-0.7,3.2-1.3,6.5-1.8,9.7c0,0.1,0.1,0.2,0.2,0.1c0-0.1,0.1-0.2,0.1-0.2c0-0.1-0.1-0.2-0.1-0.1
				c0.6-1.3,0.6-3.1,0.9-4.6c0.3-1.6,0.6-3.2,1-4.8C62.6,110,62.4,110,62.4,110.1L62.4,110.1z"/>
		</g>
	</g>
</g>
<g>
	<g>
		<g>
			<path d="M76.2,110.2c0.3,1.8,0.6,3.5,0.9,5.3c0.1,0.9,0.3,1.7,0.4,2.5c0.1,0.6,0.1,1.5,0.4,2c0,0,0.1,0,0.1,0c0,0,0,0,0,0
				c0,0,0-0.1,0-0.1c0,0,0,0,0,0c-0.1-0.1-0.2,0-0.1,0.1c-0.1-0.1-0.2-1.3-0.2-1.5c0-0.3-0.1-0.6-0.2-0.9c-0.1-0.9-0.3-1.7-0.4-2.5
				c-0.3-1.6-0.6-3.2-0.9-4.8C76.4,110,76.2,110,76.2,110.2L76.2,110.2z"/>
		</g>
	</g>
</g>
<g>
	<g>
		<g>
			<path d="M88.9,105.4c1.5,2.9,3.1,5.8,4.7,8.6c0,0.1,0.2,0,0.1-0.1c-1.6-2.8-3.2-5.7-4.7-8.6C89,105.2,88.8,105.3,88.9,105.4
				L88.9,105.4z"/>
		</g>
	</g>
</g>
<g>
	<g>
		<g>
			<path d="M99.4,96.5c2.7,1.9,5.2,4.1,7.7,6.3c0.1,0.1,0.2,0,0.1-0.1c-2.4-2.3-5-4.4-7.7-6.4C99.4,96.3,99.3,96.5,99.4,96.5
				L99.4,96.5z"/>
		</g>
	</g>
</g>
<g>
	<g>
		<g>
			<path d="M106.2,84.6c3.1,1.4,6.2,2.7,9.4,3.9c0.1,0,0.1-0.1,0-0.2c-3.2-1.2-6.3-2.5-9.4-3.9C106.2,84.4,106.1,84.5,106.2,84.6
				L106.2,84.6z"/>
		</g>
	</g>
</g>
<g>
	<g>
		<g>
			<path d="M30.7,55.7c0.8,0.4,1.5,0.8,2.2,1.2c0.1,0,0.2-0.1,0.1-0.1c-0.8-0.4-1.5-0.8-2.2-1.2C30.6,55.5,30.5,55.6,30.7,55.7
				L30.7,55.7z"/>
		</g>
	</g>
</g>
<g>
	<g>
		<g>
			<path d="M31.2,54.2c0.8,0.4,1.6,0.9,2.3,1.3c0.1,0,0.2-0.1,0.1-0.1c-0.8-0.4-1.6-0.9-2.3-1.3C31.2,54,31.1,54.2,31.2,54.2
				L31.2,54.2z"/>
		</g>
	</g>
</g>
<g>
	<g>
		<g>
			<path d="M31.8,52.9c0.9,0.5,1.7,1,2.6,1.5c0.1,0,0.2-0.1,0.1-0.1c-0.9-0.5-1.7-1-2.6-1.5C31.8,52.6,31.7,52.8,31.8,52.9
				L31.8,52.9z"/>
		</g>
	</g>
</g>
<g>
	<g>
		<g>
			<path d="M32.5,51.7c0.8,0.4,1.6,0.9,2.3,1.3c0.1,0,0.2-0.1,0.1-0.1c-0.8-0.4-1.6-0.9-2.3-1.3C32.5,51.5,32.4,51.6,32.5,51.7
				L32.5,51.7z"/>
		</g>
	</g>
</g>
<g>
	<g>
		<g>
			<path d="M32.5,50c1,0.5,2,1,3,1.7c0.1,0.1,0.2-0.1,0.1-0.1c-0.9-0.6-1.9-1.2-3-1.7C32.5,49.8,32.4,50,32.5,50L32.5,50z"/>
		</g>
	</g>
</g>
<g>
	<g>
		<g>
			<path d="M34,49.3c0.8,0.4,1.5,0.8,2.1,1.3c0.1,0.1,0.2,0,0.1-0.1c-0.7-0.5-1.4-1-2.2-1.4C34,49.1,33.9,49.3,34,49.3L34,49.3z"/>
		</g>
	</g>
</g>
<g>
	<g>
		<g>
			<path d="M34.9,48.1c0.7,0.5,1.5,1,2.2,1.6c0.1,0.1,0.2,0,0.1-0.1C36.5,49,35.8,48.5,35,48C34.9,47.9,34.8,48.1,34.9,48.1
				L34.9,48.1z"/>
		</g>
	</g>
</g>
<g>
	<g>
		<g>
			<path d="M35.9,46.9c0.6,0.6,1.2,1.1,2,1.6c0.1,0,0.2-0.1,0.1-0.1c-0.7-0.4-1.4-0.9-1.9-1.6C35.9,46.7,35.8,46.9,35.9,46.9
				L35.9,46.9z"/>
		</g>
	</g>
</g>
<g>
	<g>
		<g>
			<path d="M36.7,45.9c0.6,0.6,1.3,1.2,1.9,1.8c0.1,0.1,0.2,0,0.1-0.1c-0.7-0.6-1.3-1.1-1.9-1.8C36.8,45.7,36.7,45.8,36.7,45.9
				L36.7,45.9z"/>
		</g>
	</g>
</g>
<g>
	<g>
		<g>
			<path d="M38.6,43.4c0.6,0.6,1.1,1.3,1.7,1.9c0.1,0.1,0.2,0,0.1-0.1c-0.6-0.6-1.1-1.3-1.7-1.9C38.7,43.1,38.5,43.3,38.6,43.4
				L38.6,43.4z"/>
		</g>
	</g>
</g>
<g>
	<g>
		<g>
			<path d="M39.4,42.3c0.6,0.7,1.2,1.4,1.8,2.1c0.1,0.1,0.2,0,0.1-0.1c-0.6-0.7-1.2-1.4-1.8-2.1C39.4,42.1,39.3,42.2,39.4,42.3
				L39.4,42.3z"/>
		</g>
	</g>
</g>
<g>
	<g>
		<g>
			<path d="M40.6,41.5c0.5,0.7,1,1.3,1.5,2c0.1,0.1,0.2,0,0.1-0.1c-0.5-0.7-1-1.3-1.5-2C40.7,41.2,40.6,41.4,40.6,41.5L40.6,41.5z"
				/>
		</g>
	</g>
</g>
<g>
	<g>
		<g>
			<path d="M41.5,40.5c0.6,0.7,1.2,1.4,1.8,2.1c0.1,0.1,0.2,0,0.1-0.1c-0.6-0.7-1.2-1.4-1.8-2.1C41.6,40.2,41.5,40.4,41.5,40.5
				L41.5,40.5z"/>
		</g>
	</g>
</g>
<g>
	<g>
		<g>
			<path d="M41.7,38.7c0.8,1,1.6,2,2.4,3c0.1,0.1,0.2,0,0.1-0.1c-0.8-1-1.6-2-2.4-3C41.8,38.5,41.7,38.6,41.7,38.7L41.7,38.7z"/>
		</g>
	</g>
</g>
<g>
	<g>
		<g>
			<path d="M43.7,38.7c0.4,0.7,0.9,1.4,1.4,2c0.1,0.1,0.2,0,0.1-0.1c-0.5-0.6-1-1.3-1.4-2C43.8,38.5,43.7,38.6,43.7,38.7L43.7,38.7z
				"/>
		</g>
	</g>
</g>
<g>
	<g>
		<g>
			<path d="M45,37.8c0.4,0.7,0.8,1.4,1.3,2c0.1,0.1,0.2,0,0.1-0.1c-0.5-0.7-0.9-1.3-1.3-2C45.1,37.6,44.9,37.7,45,37.8L45,37.8z"/>
		</g>
	</g>
</g>
<g>
	<g>
		<g>
			<path d="M46.2,36.7c0.5,0.8,1,1.5,1.5,2.3c0.1,0.1,0.2,0,0.1-0.1c-0.5-0.8-1-1.5-1.5-2.3C46.2,36.5,46.1,36.6,46.2,36.7
				L46.2,36.7z"/>
		</g>
	</g>
</g>
<g>
	<g>
		<g>
			<path d="M47.2,36c0.4,0.9,0.8,1.7,1.3,2.5c0,0.1,0.2,0,0.1-0.1c-0.5-0.8-0.9-1.7-1.3-2.5C47.3,35.8,47.2,35.9,47.2,36L47.2,36z"
				/>
		</g>
	</g>
</g>
<g>
	<g>
		<g>
			<path d="M49.6,34.5c0.5,0.9,0.9,1.7,1.4,2.6c0,0.1,0.2,0,0.1-0.1c-0.5-0.9-0.9-1.7-1.4-2.6C49.7,34.3,49.6,34.4,49.6,34.5
				L49.6,34.5z"/>
		</g>
	</g>
</g>
<g>
	<g>
		<g>
			<path d="M51.1,33.9c0.3,0.6,0.5,1.1,0.8,1.7c0.1,0.3,0.2,0.8,0.6,0.9c0,0,0.1,0,0.1,0c0,0,0,0,0,0c0,0,0-0.1,0-0.1c0,0,0,0,0,0
				c0,0-0.1,0-0.1,0c0,0,0,0,0,0c-0.1,0,0,0.2,0.1,0.1c0,0-1.1-2.5-1.2-2.7C51.2,33.7,51,33.8,51.1,33.9L51.1,33.9z"/>
		</g>
	</g>
</g>
<g>
	<g>
		<g>
			<path d="M52.3,33.3c0.4,0.8,0.8,1.7,1.2,2.5c0,0.1,0.2,0,0.1-0.1c-0.4-0.8-0.8-1.7-1.2-2.5C52.4,33.1,52.3,33.2,52.3,33.3
				L52.3,33.3z"/>
		</g>
	</g>
</g>
<g>
	<g>
		<g>
			<path d="M53.5,32.8c0.4,0.8,0.8,1.6,1.2,2.4c0,0.1,0.2,0,0.1-0.1c-0.4-0.8-0.8-1.6-1.2-2.4C53.6,32.6,53.5,32.7,53.5,32.8
				L53.5,32.8z"/>
		</g>
	</g>
</g>
<g>
	<g>
		<g>
			<path d="M54.6,31.1c0.5,1.2,1,2.5,1.5,3.7c0,0.1,0.2,0,0.2,0c-0.5-1.2-1-2.5-1.5-3.7C54.8,31,54.6,31,54.6,31.1L54.6,31.1z"/>
		</g>
	</g>
</g>
<g>
	<g>
		<g>
			<path d="M56.7,31.8C56.7,31.8,56.7,31.8,56.7,31.8c0-0.1-0.1,0-0.2,0c0.2,0.9,0.5,1.8,0.7,2.7c0,0.1,0.2,0.1,0.2,0
				C57.1,33.5,56.9,32.6,56.7,31.8c0-0.2-0.2-0.2-0.2-0.1c0,0,0,0,0,0.1C56.5,31.9,56.7,31.9,56.7,31.8L56.7,31.8z"/>
		</g>
	</g>
</g>
<g>
	<g>
		<g>
			<path d="M58,31.5c0.1,0.9,0.3,1.7,0.6,2.6c0,0.1,0.2,0.1,0.2,0c-0.2-0.9-0.4-1.7-0.6-2.6C58.1,31.3,58,31.3,58,31.5L58,31.5z"/>
		</g>
	</g>
</g>
<g>
	<g>
		<g>
			<path d="M59.2,30.9c0.2,0.9,0.5,1.8,0.7,2.7c0,0.1,0.2,0.1,0.2,0c-0.2-0.9-0.5-1.8-0.7-2.7C59.4,30.8,59.2,30.8,59.2,30.9
				L59.2,30.9z"/>
		</g>
	</g>
</g>
<g>
	<g>
		<g>
			<path d="M60.6,30.4c0.2,1,0.4,2,0.7,3.1c0,0.1,0.2,0.1,0.2,0c-0.2-1-0.4-2-0.7-3.1C60.7,30.3,60.5,30.3,60.6,30.4L60.6,30.4z"/>
		</g>
	</g>
</g>
<g>
	<g>
		<g>
			<path d="M63.5,30c0,1,0.2,2.1,0.4,3.1c0,0.1,0.2,0.1,0.2,0c-0.2-1-0.3-2-0.4-3.1C63.7,29.9,63.5,29.9,63.5,30L63.5,30z"/>
		</g>
	</g>
</g>
<g>
	<g>
		<g>
			<path d="M65.1,29.9c0,1,0.1,2,0.1,3c0,0.1,0.2,0.1,0.2,0c0-1-0.1-2-0.1-3C65.3,29.8,65.1,29.8,65.1,29.9L65.1,29.9z"/>
		</g>
	</g>
</g>
<g>
	<g>
		<g>
			<path d="M66.5,29.8c-0.1,1-0.1,2-0.1,3c0,0.1,0.2,0.1,0.2,0c0-1,0-2,0.1-3C66.7,29.7,66.5,29.7,66.5,29.8L66.5,29.8z"/>
		</g>
	</g>
</g>
<g>
	<g>
		<g>
			<path d="M67.6,29.5c0,1,0.1,2,0.1,3c0,0.1,0.2,0.1,0.2,0c0-1-0.1-2-0.1-3C67.8,29.3,67.6,29.3,67.6,29.5L67.6,29.5z"/>
		</g>
	</g>
</g>
<g>
	<g>
		<g>
			<path d="M69.3,28.2c-0.1,1.4-0.1,2.9-0.2,4.3c0,0.1,0.2,0.1,0.2,0c0.1-1.4,0.1-2.9,0.2-4.3C69.5,28.1,69.3,28.1,69.3,28.2
				L69.3,28.2z"/>
		</g>
	</g>
</g>
<g>
	<g>
		<g>
			<path d="M70.7,29.7c-0.1,0.9-0.1,1.9-0.1,2.9c0,0.1,0.2,0.1,0.2,0c0-1,0-1.9,0.1-2.9C70.9,29.6,70.7,29.6,70.7,29.7L70.7,29.7z"
				/>
		</g>
	</g>
</g>
<g>
	<g>
		<g>
			<path d="M72.1,29.7c-0.1,1-0.1,2-0.2,3c0,0.1,0.2,0.1,0.2,0c0.1-1,0.1-2,0.2-3C72.3,29.6,72.1,29.6,72.1,29.7L72.1,29.7z"/>
		</g>
	</g>
</g>
<g>
	<g>
		<g>
			<path d="M73.7,29.9c-0.1,0.9-0.1,1.9-0.2,2.9c0,0.1,0.2,0.1,0.2,0c0.1-0.9,0.1-1.9,0.2-2.9C73.9,29.8,73.7,29.8,73.7,29.9
				L73.7,29.9z"/>
		</g>
	</g>
</g>
<g>
	<g>
		<g>
			<path d="M74.9,30.3c-0.1,0.8-0.2,1.7-0.3,2.5c0,0.1,0.2,0.1,0.2,0c0.1-0.8,0.2-1.7,0.3-2.5C75.1,30.2,74.9,30.2,74.9,30.3
				L74.9,30.3z"/>
		</g>
	</g>
</g>
<g>
	<g>
		<g>
			<path d="M77.8,30.5c-0.2,0.9-0.4,1.9-0.5,2.9c0,0.1,0.1,0.2,0.2,0c0.2-0.9,0.4-1.9,0.5-2.9C78,30.4,77.8,30.4,77.8,30.5
				L77.8,30.5z"/>
		</g>
	</g>
</g>
<g>
	<g>
		<g>
			<path d="M79.3,31c-0.2,0.9-0.4,1.8-0.6,2.8c0,0,0.1,0,0.2,0c0-0.1,0-0.1,0.1-0.2c0.1-0.1-0.1-0.2-0.1-0.1
				c-0.1,0.2-0.1,0.1-0.1,0.3c0,0.1,0.1,0.1,0.2,0c0.2-0.9,0.4-1.8,0.6-2.8C79.5,30.9,79.3,30.9,79.3,31L79.3,31z"/>
		</g>
	</g>
</g>
<g>
	<g>
		<g>
			<path d="M80.6,31.5c-0.2,0.9-0.4,1.7-0.7,2.6c0,0.1,0.1,0.2,0.2,0c0.2-0.9,0.5-1.7,0.7-2.6C80.8,31.5,80.7,31.4,80.6,31.5
				L80.6,31.5z"/>
		</g>
	</g>
</g>
<g>
	<g>
		<g>
			<path d="M82.1,31.9c-0.2,0.9-0.4,1.8-0.8,2.6c0,0.1,0.1,0.2,0.1,0.1c0.4-0.9,0.6-1.7,0.8-2.6C82.3,31.8,82.1,31.8,82.1,31.9
				L82.1,31.9z"/>
		</g>
	</g>
</g>
<g>
	<g>
		<g>
			<path d="M83.9,31c-0.3,1.3-0.8,2.6-1.3,3.8c0,0.1,0.1,0.2,0.1,0.1c0.6-1.2,1-2.5,1.3-3.8C84.1,30.9,83.9,30.9,83.9,31L83.9,31z"
				/>
		</g>
	</g>
</g>
<g>
	<g>
		<g>
			<path d="M84.9,32.7c-0.4,0.9-0.8,1.9-1.2,2.7c0,0.1,0.1,0.2,0.1,0.1c0.5-0.9,0.9-1.8,1.3-2.8C85.2,32.6,85,32.5,84.9,32.7
				L84.9,32.7z"/>
		</g>
	</g>
</g>
<g>
	<g>
		<g>
			<path d="M86.2,33.5c-0.3,0.8-0.6,1.6-1,2.4c0,0.1,0.1,0.2,0.1,0.1c0.4-0.8,0.7-1.6,1-2.5C86.4,33.4,86.2,33.4,86.2,33.5
				L86.2,33.5z"/>
		</g>
	</g>
</g>
<g>
	<g>
		<g>
			<path d="M87.4,34.1c-0.3,0.9-0.7,1.7-1.2,2.4c0,0.1,0.1,0.2,0.1,0.1c0.5-0.8,0.9-1.6,1.2-2.5C87.6,34,87.4,34,87.4,34.1
				L87.4,34.1z"/>
		</g>
	</g>
</g>
<g>
	<g>
		<g>
			<path d="M88.6,34.8c-0.4,0.7-0.7,1.4-1.1,2.1c0,0.1,0.1,0.2,0.1,0.1c0.4-0.7,0.7-1.4,1.1-2.1C88.8,34.8,88.7,34.7,88.6,34.8
				L88.6,34.8z"/>
		</g>
	</g>
</g>
<g>
	<g>
		<g>
			<path d="M91.2,35.9c-0.5,0.8-1,1.6-1.5,2.4c-0.1,0.1,0.1,0.2,0.1,0.1c0.5-0.8,1-1.6,1.5-2.4C91.4,35.9,91.3,35.8,91.2,35.9
				L91.2,35.9z"/>
		</g>
	</g>
</g>
<g>
	<g>
		<g>
			<path d="M92.5,36.6c-0.5,0.9-1,1.7-1.7,2.4c-0.1,0.1,0,0.2,0.1,0.1c0.6-0.8,1.2-1.6,1.7-2.5C92.7,36.6,92.5,36.5,92.5,36.6
				L92.5,36.6z"/>
		</g>
	</g>
</g>
<g>
	<g>
		<g>
			<path d="M93.4,37.7c-0.5,0.8-1,1.5-1.6,2.2c-0.1,0.1,0,0.2,0.1,0.1c0.6-0.7,1.1-1.5,1.6-2.3C93.6,37.7,93.5,37.6,93.4,37.7
				L93.4,37.7z"/>
		</g>
	</g>
</g>
<g>
	<g>
		<g>
			<path d="M94.8,38.6c-0.7,0.7-1.3,1.4-1.9,2.1c-0.1,0.1,0,0.2,0.1,0.1c0.6-0.8,1.2-1.5,1.9-2.1C95.1,38.6,94.9,38.5,94.8,38.6
				L94.8,38.6z"/>
		</g>
	</g>
</g>
<g>
	<g>
		<g>
			<path d="M96.6,38.6c-0.8,0.9-1.7,1.9-2.6,2.8c-0.1,0.1,0,0.2,0.1,0.1c0.9-0.9,1.8-1.8,2.6-2.8C96.8,38.6,96.6,38.5,96.6,38.6
				L96.6,38.6z"/>
		</g>
	</g>
</g>
<g>
	<g>
		<g>
			<path d="M96.9,40.4c-0.6,0.7-1.2,1.3-1.8,1.9c-0.1,0.1,0,0.2,0.1,0.1c0.6-0.7,1.2-1.3,1.8-1.9C97.1,40.5,97,40.3,96.9,40.4
				L96.9,40.4z"/>
		</g>
	</g>
</g>
<g>
	<g>
		<g>
			<path d="M98.1,41.5c-0.7,0.6-1.2,1.2-1.8,1.9c-0.1,0.1,0,0.2,0.1,0.1c0.6-0.7,1.2-1.3,1.8-1.9C98.4,41.5,98.2,41.4,98.1,41.5
				L98.1,41.5z"/>
		</g>
	</g>
</g>
<g>
	<g>
		<g>
			<path d="M98.9,42.6c-0.5,0.6-1,1.1-1.6,1.6c-0.1,0.1,0,0.2,0.1,0.1c0.6-0.5,1.1-1,1.6-1.6C99.1,42.7,98.9,42.5,98.9,42.6
				L98.9,42.6z"/>
		</g>
	</g>
</g>
<g>
	<g>
		<g>
			<path d="M100.1,43.5c-0.7,0.6-1.3,1.1-1.9,1.7c-0.1,0.1,0,0.2,0.1,0.1c0.7-0.6,1.3-1.1,1.9-1.7C100.3,43.6,100.2,43.4,100.1,43.5
				L100.1,43.5z"/>
		</g>
	</g>
</g>
<g>
	<g>
		<g>
			<path d="M101.9,45.7c-0.6,0.6-1.2,1.1-1.8,1.7c-0.1,0.1,0,0.2,0.1,0.1c0.6-0.6,1.2-1.1,1.8-1.7C102.1,45.8,101.9,45.6,101.9,45.7
				L101.9,45.7z"/>
		</g>
	</g>
</g>
<g>
	<g>
		<g>
			<path d="M100.8,48.6c0.8-0.6,1.5-1.1,2.3-1.7c0.1-0.1,0-0.2-0.1-0.1c-0.8,0.6-1.5,1.1-2.3,1.7C100.6,48.5,100.7,48.7,100.8,48.6
				L100.8,48.6z"/>
		</g>
	</g>
</g>
<g>
	<g>
		<g>
			<path d="M101.6,49.8c0.7-0.6,1.5-1.1,2.2-1.6c0.1-0.1,0-0.2-0.1-0.1c-0.8,0.5-1.5,1-2.3,1.6C101.4,49.7,101.5,49.8,101.6,49.8
				L101.6,49.8z"/>
		</g>
	</g>
</g>
<g>
	<g>
		<g>
			<path d="M102.2,50.5C102.2,50.5,102.2,50.5,102.2,50.5c-0.1,0-0.1,0-0.1,0c0,0.1,0,0.1,0,0.2c0,0,0,0.1,0.1,0.1
				c0.3,0,0.8-0.4,1.1-0.6c0.5-0.3,1-0.7,1.5-1c0.1-0.1,0-0.2-0.1-0.1c-0.4,0.3-0.9,0.5-1.3,0.8c-0.2,0.1-0.4,0.2-0.6,0.4
				c-0.1,0-0.5,0.4-0.6,0.4C102.3,50.7,102.3,50.5,102.2,50.5L102.2,50.5z"/>
		</g>
	</g>
</g>
<g>
	<g>
		<g>
			<path d="M102.8,52.2c1.3-0.7,2.5-1.4,3.7-2.2c0.1-0.1,0-0.2-0.1-0.1c-1.2,0.8-2.5,1.6-3.7,2.2C102.6,52,102.7,52.2,102.8,52.2
				L102.8,52.2z"/>
		</g>
	</g>
</g>
<g>
	<g>
		<g>
			<path d="M103.5,53c1-0.5,2-0.9,3-1.4c0.1,0,0-0.2-0.1-0.1c-1,0.5-2,0.9-3,1.4C103.3,52.9,103.4,53.1,103.5,53L103.5,53z"/>
		</g>
	</g>
</g>
<g>
	<g>
		<g>
			<path d="M104.2,54.6c1-0.5,2-0.9,3-1.4c0.1,0,0-0.2-0.1-0.1c-1,0.5-2,0.9-3,1.4C104,54.5,104.1,54.7,104.2,54.6L104.2,54.6z"/>
		</g>
	</g>
</g>
<g>
	<g>
		<g>
			<path d="M105,55.5c0.9-0.4,1.7-0.7,2.6-1.1c0.1,0,0-0.2,0-0.2c-0.9,0.4-1.7,0.7-2.6,1.1C104.9,55.3,104.9,55.5,105,55.5L105,55.5
				z"/>
		</g>
	</g>
</g>
<g>
	<g>
		<g>
			<path d="M105.3,56.9c0.9-0.4,1.8-0.8,2.7-1c0.1,0,0.1-0.2,0-0.2c-0.9,0.3-1.8,0.7-2.7,1.1C105.1,56.8,105.1,56.9,105.3,56.9
				L105.3,56.9z"/>
		</g>
	</g>
</g>
<g>
	<g>
		<g>
			<path d="M106.3,59.3c0.9-0.4,1.7-0.6,2.6-0.8c0.1,0,0.1-0.2,0-0.2c-0.9,0.1-1.8,0.4-2.6,0.8C106.2,59.1,106.2,59.3,106.3,59.3
				L106.3,59.3z"/>
		</g>
	</g>
</g>
<g>
	<g>
		<g>
			<path d="M106.7,60.8c0.9-0.3,1.9-0.5,2.9-0.8c0.1,0,0.1-0.2,0-0.2c-1,0.2-1.9,0.5-2.9,0.8C106.5,60.7,106.5,60.8,106.7,60.8
				L106.7,60.8z"/>
		</g>
	</g>
</g>
<g>
	<g>
		<g>
			<path d="M107.1,62.1c0.9-0.1,1.8-0.3,2.7-0.5c0.1,0,0.1-0.2,0-0.2c-0.9,0.2-1.8,0.4-2.7,0.5C106.9,61.9,107,62.1,107.1,62.1
				L107.1,62.1z"/>
		</g>
	</g>
</g>
<g>
	<g>
		<g>
			<path d="M107.4,63.4c0.9-0.2,1.8-0.4,2.8-0.5c0.1,0,0.1-0.2,0-0.2c-0.9,0.2-1.8,0.4-2.8,0.5C107.2,63.2,107.3,63.4,107.4,63.4
				L107.4,63.4z"/>
		</g>
	</g>
</g>
<g>
	<g>
		<g>
			<path d="M107.9,64.6c1.2-0.2,2.5-0.4,3.7-0.6c0.1,0,0.1-0.2,0-0.2c-1.2,0.2-2.5,0.4-3.7,0.6C107.7,64.4,107.8,64.6,107.9,64.6
				L107.9,64.6z"/>
		</g>
	</g>
</g>
<g>
	<g>
		<g>
			<path d="M107.8,65.8c0.9-0.2,1.9-0.4,2.8-0.3c0.1,0,0.1-0.2,0-0.2c-1,0-1.9,0.1-2.9,0.3C107.6,65.7,107.7,65.9,107.8,65.8
				L107.8,65.8z"/>
		</g>
	</g>
</g>
<g>
	<g>
		<g>
			<path d="M108.1,67.4c0.9-0.1,1.7-0.2,2.6-0.3c0.1,0,0.1-0.2,0-0.2c-0.9,0.1-1.7,0.2-2.6,0.3C108,67.2,108,67.4,108.1,67.4
				L108.1,67.4z"/>
		</g>
	</g>
</g>
<g>
	<g>
		<g>
			<path d="M108.1,68.5c0.2,0.3,0.5,0.3,0.9,0.2c0.7,0,1.4-0.1,2.1-0.2c0.1,0,0.1-0.2,0-0.2c-0.5,0-0.9,0.1-1.4,0.1
				c-0.3,0-1.2,0.2-1.4-0.1C108.2,68.3,108,68.4,108.1,68.5L108.1,68.5z"/>
		</g>
	</g>
</g>
<g>
	<g>
		<g>
			<path d="M108.4,72.8c0.9-0.2,1.8-0.2,2.7-0.1c0.1,0,0.1-0.2,0-0.2c-0.9-0.1-1.8,0-2.7,0.1C108.2,72.6,108.3,72.8,108.4,72.8
				L108.4,72.8z"/>
		</g>
	</g>
</g>
<g>
	<g>
		<g>
			<path d="M108.2,74.2c0.9-0.1,1.8-0.1,2.8,0c0.1,0,0.1-0.2,0-0.2c-0.9-0.1-1.8-0.1-2.8,0C108,74,108,74.2,108.2,74.2L108.2,74.2z"
				/>
		</g>
	</g>
</g>
<g>
	<g>
		<g>
			<path d="M108,75.6c0.9,0,1.8,0,2.8,0c0.1,0,0.1-0.2,0-0.2c-0.9,0-1.8,0-2.8,0C107.9,75.4,107.9,75.6,108,75.6L108,75.6z"/>
		</g>
	</g>
</g>
<g>
	<g>
		<g>
			<path d="M107.9,77.5c0.1,0,0.1-0.2,0-0.2C107.7,77.3,107.7,77.5,107.9,77.5L107.9,77.5z"/>
		</g>
	</g>
</g>
<g>
	<g>
		<g>
			<path d="M108,76.9c0.9,0,1.8,0.1,2.8,0.2c0.1,0,0.1-0.2,0-0.2c-0.9,0-1.8-0.1-2.8-0.2C107.9,76.7,107.9,76.9,108,76.9L108,76.9z"
				/>
		</g>
	</g>
</g>
<g>
	<g>
		<g>
			<path d="M108,78.5c1.3,0.1,2.5,0.2,3.8,0.3c0.1,0,0.1-0.2,0-0.2c-1.3-0.1-2.5-0.2-3.8-0.3C107.9,78.3,107.9,78.5,108,78.5
				L108,78.5z"/>
		</g>
	</g>
</g>
<g>
	<g>
		<g>
			<path d="M107.5,79.8c1,0.1,1.9,0.1,2.9,0.2c0.1,0,0.1-0.2,0-0.2c-1-0.1-1.9-0.1-2.9-0.2C107.4,79.6,107.4,79.8,107.5,79.8
				L107.5,79.8z"/>
		</g>
	</g>
</g>
<g>
	<g>
		<g>
			<path d="M107.1,81.1c1,0.1,1.9,0.3,2.9,0.5c0.1,0,0.2-0.1,0-0.2c-0.9-0.2-1.9-0.4-2.9-0.5C107.1,80.9,107,81.1,107.1,81.1
				L107.1,81.1z"/>
		</g>
	</g>
</g>
<g>
	<g>
		<g>
			<path d="M106.8,82.3c0.9,0.3,1.8,0.6,2.8,0.8c0.1,0,0.2-0.1,0-0.2c-0.9-0.3-1.8-0.6-2.8-0.8C106.7,82.1,106.7,82.3,106.8,82.3
				L106.8,82.3z"/>
		</g>
	</g>
</g>
<g>
	<g>
		<g>
			<path d="M106.5,83.7c0.9,0.2,1.7,0.6,2.6,1c0.1,0,0.2-0.1,0.1-0.1c-0.8-0.4-1.7-0.8-2.6-1C106.4,83.5,106.4,83.7,106.5,83.7
				L106.5,83.7z"/>
		</g>
	</g>
</g>
<g>
	<g>
		<g>
			<path d="M105.7,86c0.9,0.3,1.7,0.6,2.6,1c0.1,0,0.2-0.1,0.1-0.1c-0.9-0.4-1.7-0.7-2.6-1C105.6,85.8,105.6,86,105.7,86L105.7,86z"
				/>
		</g>
	</g>
</g>
<g>
	<g>
		<g>
			<path d="M105.1,87.2c0.9,0.3,1.8,0.6,2.7,1c0.1,0,0.2-0.1,0.1-0.1c-0.9-0.4-1.8-0.8-2.7-1C105,87,105,87.2,105.1,87.2L105.1,87.2
				z"/>
		</g>
	</g>
</g>
<g>
	<g>
		<g>
			<path d="M104.3,88.8c0.9,0.3,1.8,0.6,2.6,1.1c0.1,0,0.2-0.1,0.1-0.1c-0.8-0.5-1.7-0.9-2.6-1.1C104.3,88.6,104.2,88.8,104.3,88.8
				L104.3,88.8z"/>
		</g>
	</g>
</g>
<g>
	<g>
		<g>
			<path d="M104,90.1c0.7,0.3,1.3,0.5,2,0.8c0.1,0,0.1-0.1,0-0.2c-0.7-0.3-1.3-0.5-2-0.8C103.9,89.9,103.9,90,104,90.1L104,90.1z"/>
		</g>
	</g>
</g>
<g>
	<g>
		<g>
			<path d="M103.2,91.2c1.1,0.4,2,1,2.8,1.7c0.1,0.1,0.2,0,0.1-0.1c-0.9-0.8-1.8-1.4-2.9-1.8C103.1,91,103.1,91.2,103.2,91.2
				L103.2,91.2z"/>
		</g>
	</g>
</g>
<g>
	<g>
		<g>
			<path d="M102.6,92.2c0.6,0.5,1.3,0.9,1.9,1.4c0.1,0.1,0.2-0.1,0.1-0.1c-0.6-0.5-1.3-0.9-1.9-1.4C102.6,92,102.5,92.2,102.6,92.2
				L102.6,92.2z"/>
		</g>
	</g>
</g>
<g>
	<g>
		<g>
			<path d="M101.9,93.5c0.7,0.4,1.3,0.9,1.8,1.5c0.1,0.1,0.2,0,0.1-0.1c-0.6-0.6-1.2-1.1-1.9-1.5C101.9,93.2,101.8,93.4,101.9,93.5
				L101.9,93.5z"/>
		</g>
	</g>
</g>
<g>
	<g>
		<g>
			<path d="M101.1,94.4c0.6,0.5,1.2,1,1.9,1.5c0.1,0.1,0.2,0,0.1-0.1c-0.6-0.5-1.2-1-1.9-1.5C101.1,94.2,101,94.4,101.1,94.4
				L101.1,94.4z"/>
		</g>
	</g>
</g>
<g>
	<g>
		<g>
			<path d="M100.1,95.8c0.7,0.3,1.3,0.8,1.9,1.2c0.1,0.1,0.2,0,0.1-0.1c-0.6-0.5-1.3-0.9-2-1.3C100.1,95.6,100,95.7,100.1,95.8
				L100.1,95.8z"/>
		</g>
	</g>
</g>
<g>
	<g>
		<g>
			<path d="M90,104.8c0.5,0.8,1,1.6,1.5,2.4c0,0.1,0.2,0,0.2-0.1c0-0.1,0-0.2-0.1-0.3c0-0.1-0.2-0.1-0.2,0c0,0.1,0,0.2,0.1,0.3
				c0,0,0.1,0,0.2-0.1c-0.5-0.8-1-1.6-1.5-2.4C90.1,104.6,90,104.7,90,104.8L90,104.8z"/>
		</g>
	</g>
</g>
<g>
	<g>
		<g>
			<path d="M91.4,104c0.5,0.7,0.9,1.4,1.4,2.2c0,0,0.1-0.1,0.1-0.1c0-0.1-0.1-0.2-0.2-0.3c-0.1-0.1-0.2,0-0.1,0.1
				c0,0.1,0.1,0.2,0.2,0.3c0.1,0.1,0.2,0,0.1-0.1c-0.4-0.7-0.9-1.5-1.4-2.2C91.4,103.8,91.3,103.9,91.4,104L91.4,104z"/>
		</g>
	</g>
</g>
<g>
	<g>
		<g>
			<path d="M92.8,103.3c0-0.2-0.1-0.3-0.2-0.4c-0.1,0-0.1,0.1-0.1,0.1c0.4,0.6,0.9,1.2,1.3,1.8c0.1,0.1,0.2,0,0.1-0.1
				c-0.5-0.6-0.9-1.2-1.3-1.8c0,0-0.1,0.1-0.1,0.1c0,0.1,0.1,0.1,0.1,0.2C92.6,103.5,92.8,103.5,92.8,103.3L92.8,103.3z"/>
		</g>
	</g>
</g>
<g>
	<g>
		<g>
			<path d="M93.4,102.4c0.5,0.6,0.9,1.2,1.4,1.8c0.1,0.1,0.2,0,0.1-0.1c-0.5-0.6-0.9-1.2-1.4-1.8C93.4,102.2,93.3,102.3,93.4,102.4
				L93.4,102.4z"/>
		</g>
	</g>
</g>
<g>
	<g>
		<g>
			<path d="M94.4,101.4c0.7,0.8,1.4,1.6,2.1,2.5c0.1,0.1,0.2,0,0.1-0.1c-0.7-0.8-1.4-1.6-2.1-2.5C94.4,101.2,94.3,101.3,94.4,101.4
				L94.4,101.4z"/>
		</g>
	</g>
</g>
<g>
	<g>
		<g>
			<path d="M95.5,100.7c0.4,0.6,0.9,1.1,1.4,1.6c0.1,0.1,0.2,0,0.1-0.1c-0.5-0.5-1-1-1.4-1.6C95.6,100.5,95.5,100.6,95.5,100.7
				L95.5,100.7z"/>
		</g>
	</g>
</g>
<g>
	<g>
		<g>
			<path d="M96.5,99.5c0.5,0.6,1.1,1.2,1.7,1.8c0.1,0.1,0.2,0,0.1-0.1c-0.6-0.6-1.1-1.1-1.7-1.8C96.6,99.3,96.5,99.4,96.5,99.5
				L96.5,99.5z"/>
		</g>
	</g>
</g>
<g>
	<g>
		<g>
			<path d="M97.7,98.6c0.4,0.6,0.9,1.1,1.3,1.7c0.1,0.1,0.2,0,0.1-0.1c-0.4-0.6-0.9-1.1-1.3-1.7C97.7,98.4,97.6,98.5,97.7,98.6
				L97.7,98.6z"/>
		</g>
	</g>
</g>
<g>
	<g>
		<g>
			<path d="M98.5,97.7c0.6,0.6,1.1,1.1,1.7,1.7c0.1,0.1,0.2,0,0.1-0.1c-0.6-0.5-1.2-1.1-1.7-1.7C98.6,97.5,98.5,97.7,98.5,97.7
				L98.5,97.7z"/>
		</g>
	</g>
</g>
<g>
	<g>
		<g>
			<path d="M82.6,108.2c0.4,1.2,0.9,2.4,1.3,3.6c0,0.1,0.2,0.1,0.2,0c0-0.1-0.1-0.2-0.1-0.3c0-0.1-0.2-0.1-0.2,0
				c0,0.1,0.1,0.2,0.1,0.3c0,0,0.1,0,0.2,0c-0.4-1.2-0.9-2.4-1.3-3.6C82.8,108,82.6,108.1,82.6,108.2L82.6,108.2z"/>
		</g>
	</g>
</g>
<g>
	<g>
		<g>
			<path d="M84.1,108c0.2,0.6,0.4,1.2,0.7,1.8c0,0.1,0.2,0,0.1-0.1c-0.2-0.6-0.5-1.1-0.7-1.8C84.2,107.8,84.1,107.9,84.1,108
				L84.1,108z"/>
		</g>
	</g>
</g>
<g>
	<g>
		<g>
			<path d="M85.4,107.5c0.3,0.6,0.6,1.2,0.9,1.9c0,0.1,0.2,0,0.1-0.1c-0.3-0.6-0.6-1.2-0.9-1.9C85.5,107.3,85.3,107.4,85.4,107.5
				L85.4,107.5z"/>
		</g>
	</g>
</g>
<g>
	<g>
		<g>
			<path d="M86.5,106.5c0.3,0.8,0.7,1.5,1,2.3c0,0.1,0.2,0,0.1-0.1c-0.3-0.8-0.7-1.5-1-2.3C86.6,106.3,86.4,106.4,86.5,106.5
				L86.5,106.5z"/>
		</g>
	</g>
</g>
<g>
	<g>
		<g>
			<path d="M87.8,106.1c0.2,0.8,0.6,1.6,1,2.3c0.1,0.1,0.2,0,0.1-0.1c-0.4-0.7-0.8-1.5-1-2.3C87.9,106,87.8,106,87.8,106.1
				L87.8,106.1z"/>
		</g>
	</g>
</g>
<g>
	<g>
		<g>
			<path d="M81.6,108.7c-0.2-0.1-0.3,0.1-0.3,0.3c0,0.3,0.2,0.6,0.3,0.8c0.1,0.3,0.2,0.7,0.3,1c0,0.1,0.2,0.1,0.2,0
				c-0.1-0.3-0.2-0.6-0.3-0.9c0-0.1-0.1-0.3-0.1-0.4c0,0-0.2-0.6-0.1-0.6C81.7,109,81.8,108.8,81.6,108.7L81.6,108.7z"/>
		</g>
	</g>
</g>
<g>
	<g>
		<g>
			<path d="M80,109.3c0.2,0.7,0.3,1.3,0.5,2c0,0.1,0.2,0.1,0.2,0c-0.2-0.7-0.3-1.3-0.5-2C80.1,109.2,79.9,109.2,80,109.3L80,109.3z"
				/>
		</g>
	</g>
</g>
<g>
	<g>
		<g>
			<path d="M78.6,109.6c0.2,0.7,0.4,1.4,0.6,2.1c0,0.1,0.2,0.1,0.2,0c-0.2-0.7-0.4-1.4-0.6-2.1C78.7,109.4,78.5,109.5,78.6,109.6
				L78.6,109.6z"/>
		</g>
	</g>
</g>
<g>
	<g>
		<g>
			<path d="M77.5,109.9c0.1,0.8,0.3,1.5,0.4,2.3c0,0.1,0.2,0.1,0.2,0c-0.1-0.8-0.3-1.5-0.4-2.3C77.6,109.7,77.4,109.7,77.5,109.9
				L77.5,109.9z"/>
		</g>
	</g>
</g>
<g>
	<g>
		<g>
			<path d="M74.7,110.5c0.1,0.7,0.2,1.4,0.3,2.2c0,0.1,0.2,0.1,0.2,0c-0.1-0.7-0.2-1.4-0.3-2.2C74.9,110.3,74.7,110.3,74.7,110.5
				L74.7,110.5z"/>
		</g>
	</g>
</g>
<g>
	<g>
		<g>
			<path d="M73.2,110.5c0,0.7,0.1,1.4,0.1,2.1c0,0.1,0.2,0.1,0.2,0c0-0.7-0.1-1.4-0.1-2.1C73.4,110.5,73.2,110.5,73.2,110.5
				L73.2,110.5z"/>
		</g>
	</g>
</g>
<g>
	<g>
		<g>
			<path d="M71.9,110.7c0,0.7,0,1.4,0,2.2c0,0.1,0.2,0.1,0.2,0c0-0.7,0-1.4,0-2.2C72.1,110.5,71.9,110.5,71.9,110.7L71.9,110.7z"/>
		</g>
	</g>
</g>
<g>
	<g>
		<g>
			<path d="M70.4,110.7c0,0.8,0,1.6,0,2.3c0,0.1,0.2,0.1,0.2,0c0-0.1,0-0.2,0-0.3c0-0.1-0.2-0.1-0.2,0c0,0.1,0,0.2,0,0.3
				c0,0.1,0.2,0.1,0.2,0c0-0.8,0-1.6,0-2.3C70.5,110.5,70.4,110.5,70.4,110.7L70.4,110.7z"/>
		</g>
	</g>
</g>
<g>
	<g>
		<g>
			<path d="M69,110.8c0,1.1,0,2.1,0,3.2c0,0.1,0.2,0.1,0.2,0c0-1.1,0-2.1,0-3.2C69.2,110.6,69,110.6,69,110.8L69,110.8z"/>
		</g>
	</g>
</g>
<g>
	<g>
		<g>
			<path d="M67.7,110.6c0,0.8,0.1,1.6,0,2.4c0,0.1,0.2,0.1,0.2,0c0-0.8,0-1.6,0-2.4C67.8,110.5,67.6,110.5,67.7,110.6L67.7,110.6z"
				/>
		</g>
	</g>
</g>
<g>
	<g>
		<g>
			<path d="M66.1,110.7c0,0.7-0.1,1.4-0.1,2.2c0,0.1,0.2,0.1,0.2,0c0-0.7,0.1-1.4,0.1-2.2C66.3,110.5,66.2,110.5,66.1,110.7
				L66.1,110.7z"/>
		</g>
	</g>
</g>
<g>
	<g>
		<g>
			<path d="M64.8,110.5c0,0.8-0.1,1.6-0.1,2.4c0,0.1,0.2,0.1,0.2,0c0-0.8,0.1-1.6,0.1-2.4C65,110.5,64.8,110.5,64.8,110.5
				L64.8,110.5z"/>
		</g>
	</g>
</g>
<g>
	<g>
		<g>
			<path d="M63.4,110.4c-0.1,0.8-0.1,1.5-0.2,2.3c0,0.1,0.2,0.1,0.2,0c0.1-0.8,0.1-1.5,0.2-2.3C63.6,110.2,63.4,110.2,63.4,110.4
				L63.4,110.4z"/>
		</g>
	</g>
</g>
<g>
	<g>
		<g>
			<path d="M60.9,109.9c-0.2,0.8-0.5,1.6-0.7,2.4c0,0.1,0.1,0.2,0.2,0c0.2-0.8,0.5-1.6,0.7-2.4C61.1,109.8,60.9,109.8,60.9,109.9
				L60.9,109.9z"/>
		</g>
	</g>
</g>
<g>
	<g>
		<g>
			<path d="M59.6,109.5c-0.2,0.7-0.4,1.3-0.7,1.9c0,0.1,0.1,0.1,0.2,0c0.3-0.6,0.5-1.3,0.7-1.9C59.8,109.5,59.6,109.4,59.6,109.5
				L59.6,109.5z"/>
		</g>
	</g>
</g>
<g>
	<g>
		<g>
			<path d="M58.4,109.5L58.4,109.5c0.1,0,0.1,0,0.1,0c0.1-0.2-0.1-0.3-0.3-0.1c-0.2,0.2-0.2,0.6-0.3,0.8c-0.1,0.4-0.3,0.8-0.5,1.2
				c0,0.1,0.1,0.2,0.1,0.1c0.1-0.2,0.9-2,0.8-2C58.4,109.2,58.3,109.4,58.4,109.5L58.4,109.5z"/>
		</g>
	</g>
</g>
<g>
	<g>
		<g>
			<path d="M57,108.9c-0.3,0.7-0.5,1.3-0.8,2c0,0.1,0.1,0.1,0.2,0c0.3-0.7,0.5-1.3,0.8-2C57.2,108.8,57,108.8,57,108.9L57,108.9z"/>
		</g>
	</g>
</g>
<g>
	<g>
		<g>
			<path d="M55.6,108.4c-0.4,1-0.9,2.1-1.4,3.1c0,0.1,0.1,0.2,0.1,0.1c0.5-1,1-2.1,1.4-3.1C55.9,108.3,55.7,108.3,55.6,108.4
				L55.6,108.4z"/>
		</g>
	</g>
</g>
<g>
	<g>
		<g>
			<path d="M54.4,107.8c-0.3,0.8-0.6,1.5-0.9,2.3c0,0.1,0.1,0.1,0.2,0c0.3-0.8,0.6-1.5,0.9-2.3C54.7,107.7,54.5,107.7,54.4,107.8
				L54.4,107.8z"/>
		</g>
	</g>
</g>
<g>
	<g>
		<g>
			<path d="M52.9,107.4c-0.2,0.6-0.5,1.2-0.8,1.8c0,0.1,0.1,0.2,0.1,0.1c0.3-0.6,0.6-1.2,0.8-1.8C53.1,107.4,52.9,107.3,52.9,107.4
				L52.9,107.4z"/>
		</g>
	</g>
</g>
<g>
	<g>
		<g>
			<path d="M51.9,106.7c-0.2,0.6-0.5,1.1-0.7,1.7c0,0.1,0.1,0.1,0.2,0c0.2-0.6,0.5-1.1,0.7-1.7C52.1,106.7,52,106.6,51.9,106.7
				L51.9,106.7z"/>
		</g>
	</g>
</g>
<g>
	<g>
		<g>
			<path d="M50.7,106.2c-0.4,0.7-0.7,1.4-1.1,2.1c0,0.1,0.1,0.2,0.1,0.1c0.4-0.7,0.7-1.4,1.1-2.1C50.9,106.2,50.7,106.1,50.7,106.2
				L50.7,106.2z"/>
		</g>
	</g>
</g>
<g>
	<g>
		<g>
			<path d="M48.2,104.6c-0.5,0.7-0.9,1.4-1.3,2c0,0,0.1,0.1,0.1,0.1c0-0.1,0.1-0.2,0.1-0.3c0-0.1-0.1-0.2-0.1-0.1
				c0,0.1-0.1,0.2-0.1,0.3c0,0.1,0.1,0.2,0.1,0.1c0.4-0.7,0.9-1.4,1.3-2C48.4,104.6,48.3,104.5,48.2,104.6L48.2,104.6z"/>
		</g>
	</g>
</g>
<g>
	<g>
		<g>
			<path d="M47.1,103.8c-0.4,0.7-0.8,1.4-1.3,2c-0.1,0.1,0,0.2,0.1,0.1c0.5-0.6,0.9-1.3,1.3-2C47.3,103.8,47.2,103.7,47.1,103.8
				L47.1,103.8z"/>
		</g>
	</g>
</g>
<g>
	<g>
		<g>
			<path d="M46.1,103.2c-0.5,0.5-0.9,1-1.2,1.6c-0.1,0.1,0.1,0.2,0.1,0.1c0.3-0.6,0.7-1.1,1.2-1.6C46.3,103.2,46.1,103.1,46.1,103.2
				L46.1,103.2z"/>
		</g>
	</g>
</g>
<g>
	<g>
		<g>
			<path d="M45.1,102.5c0.1-0.1,0.1-0.2,0.2-0.3c0.1-0.1-0.1-0.2-0.1-0.1c-0.5,0.5-0.9,1.1-1.4,1.6c-0.1,0.1,0,0.2,0.1,0.1
				c0.5-0.5,0.9-1.1,1.4-1.6c0,0-0.1-0.1-0.1-0.1c-0.1,0.1-0.1,0.2-0.2,0.3C44.9,102.5,45,102.6,45.1,102.5L45.1,102.5z"/>
		</g>
	</g>
</g>
<g>
	<g>
		<g>
			<path d="M44,101.1c-0.4,0.5-0.8,1-1.2,1.5c-0.2,0.2-0.4,0.5-0.6,0.7c-0.1,0.1-0.2,0.2-0.3,0.3c0,0-0.3,0.4-0.2,0.4
				c0.1,0,0.1-0.2,0-0.2c0,0,0,0,0,0c0,0-0.1,0.1-0.1,0.1c0,0,0,0,0,0c0,0,0.1,0.1,0.1,0.1c0.1,0,0.2-0.1,0.3-0.2
				c0.2-0.3,0.5-0.6,0.7-0.9c0.5-0.6,0.9-1.2,1.4-1.8C44.1,101.2,44,101.1,44,101.1L44,101.1z"/>
		</g>
	</g>
</g>
<g>
	<g>
		<g>
			<path d="M42.8,100.3c-0.4,0.6-0.9,1.2-1.3,1.8c-0.1,0.1,0.1,0.2,0.1,0.1c0.4-0.6,0.9-1.2,1.3-1.8C43,100.3,42.9,100.2,42.8,100.3
				L42.8,100.3z"/>
		</g>
	</g>
</g>
<g>
	<g>
		<g>
			<path d="M41.7,99.4c-0.4,0.7-0.9,1.4-1.4,2c-0.1,0.1,0,0.2,0.1,0.1c0.5-0.6,1-1.3,1.4-2C41.9,99.4,41.8,99.3,41.7,99.4L41.7,99.4
				z"/>
		</g>
	</g>
</g>
<g>
	<g>
		<g>
			<path d="M40.8,98.4c-0.1,0.1-1.7,1.8-1.7,1.8c0.1,0.1,0.2,0,0.1-0.1l0,0c0,0-0.1,0-0.1,0c-0.1,0-0.1,0.1-0.1,0.2c0,0,0,0,0.1,0
				c0.3,0,0.6-0.5,0.8-0.7c0.3-0.4,0.7-0.7,1-1.1C41,98.5,40.9,98.3,40.8,98.4L40.8,98.4z"/>
		</g>
	</g>
</g>
<g>
	<g>
		<g>
			<path d="M40,97.5c-0.3,0.2-0.6,0.5-0.8,0.8c-0.1,0.1-0.3,0.2-0.4,0.4c-0.1,0.1-0.1,0.1-0.2,0.2c-0.1,0.1-0.2,0.2-0.2,0.3
				c0,0-0.1,0-0.1,0c0,0,0,0,0,0c0.1,0.1,0.2,0,0.1-0.1c0,0,0,0,0,0c0,0-0.1,0-0.1,0c-0.1,0-0.1,0.1-0.1,0.2c0,0,0,0.1,0.1,0.1
				c0.3,0,0.6-0.4,0.8-0.6c0.4-0.3,0.7-0.7,1.1-1C40.2,97.5,40.1,97.4,40,97.5L40,97.5z"/>
		</g>
	</g>
</g>
<g>
	<g>
		<g>
			<path d="M38.4,95.3c-0.7,0.5-1.4,1-2.1,1.5c-0.1,0.1,0,0.2,0.1,0.1c0.7-0.5,1.4-1,2.1-1.5C38.5,95.4,38.5,95.2,38.4,95.3
				L38.4,95.3z"/>
		</g>
	</g>
</g>
<g>
	<g>
		<g>
			<path d="M37.5,94.3c-0.1,0-0.2,0.1-0.3,0.2c-0.1,0.1-0.2,0.1-0.2,0.2c-0.1,0.1-0.3,0.2-0.4,0.3c-0.3,0.2-0.6,0.5-0.9,0.7
				c-0.1,0.1,0,0.2,0.1,0.1c0.3-0.2,0.7-0.5,1-0.7c0.3-0.2,0.7-0.4,0.9-0.7c0.1-0.2,0-0.5-0.2-0.3C37.3,94.3,37.4,94.4,37.5,94.3
				L37.5,94.3z"/>
		</g>
	</g>
</g>
<g>
	<g>
		<g>
			<path d="M36.5,93.1c-0.5,0.5-1,0.9-1.5,1.3c-0.1,0.1,0,0.2,0.1,0.1c0.6-0.4,1.1-0.9,1.6-1.3C36.7,93.1,36.6,93,36.5,93.1
				L36.5,93.1z"/>
		</g>
	</g>
</g>
<g>
	<g>
		<g>
			<path d="M35.9,91.9c-0.6,0.4-1.2,0.8-1.8,1.2c-0.1,0.1,0,0.2,0.1,0.1c0.6-0.4,1.2-0.8,1.8-1.2C36.1,92,36,91.8,35.9,91.9
				L35.9,91.9z"/>
		</g>
	</g>
</g>
<g>
	<g>
		<g>
			<path d="M35.2,90.8c0.1,0,0.1-0.1,0.2-0.1c0,0-0.1-0.1-0.1-0.1c-0.9,0.8-1.9,1.4-2.9,2c-0.1,0,0,0.2,0.1,0.1c1-0.6,2-1.3,2.9-2
				c0.1-0.1,0-0.2-0.1-0.1c-0.1,0-0.1,0.1-0.2,0.1C35,90.7,35.1,90.9,35.2,90.8L35.2,90.8z"/>
		</g>
	</g>
</g>
<g>
	<g>
		<g>
			<path d="M34.6,89.3c-0.6,0.7-1.3,1.2-2.1,1.6c-0.1,0,0,0.2,0.1,0.1c0.8-0.4,1.5-0.9,2.1-1.6C34.8,89.4,34.7,89.3,34.6,89.3
				L34.6,89.3z"/>
		</g>
	</g>
</g>
<g>
	<g>
		<g>
			<path d="M33.9,88.3c-0.6,0.4-1.2,0.8-1.8,1.1c-0.1,0.1,0,0.2,0.1,0.1c0.6-0.4,1.2-0.8,1.8-1.1C34.1,88.4,34,88.2,33.9,88.3
				L33.9,88.3z"/>
		</g>
	</g>
</g>
<g>
	<g>
		<g>
			<path d="M33.5,86.9c-0.7,0.5-1.4,0.9-2.2,1.3c-0.1,0,0,0.2,0.1,0.1c0.8-0.4,1.5-0.8,2.2-1.3C33.7,87,33.6,86.8,33.5,86.9
				L33.5,86.9z"/>
		</g>
	</g>
</g>
<g>
	<g>
		<g>
			<path d="M32.9,85.7c-0.7,0.5-1.3,0.9-2,1.4c-0.1,0.1,0,0.2,0.1,0.1c0.7-0.4,1.4-0.9,2-1.4C33.1,85.8,33,85.6,32.9,85.7L32.9,85.7
				z"/>
		</g>
	</g>
</g>
<g>
	<g>
		<g>
			<path d="M32.1,83.2c-0.8,0.3-1.7,0.6-2.5,0.8c-0.1,0-0.1,0.2,0,0.2c0.9-0.2,1.7-0.5,2.5-0.8C32.2,83.3,32.2,83.1,32.1,83.2
				L32.1,83.2z"/>
		</g>
	</g>
</g>
<g>
	<g>
		<g>
			<path d="M31.5,81.9c-0.8,0.2-1.6,0.4-2.4,0.6c-0.1,0-0.1,0.2,0,0.2c0.8-0.2,1.6-0.4,2.4-0.6C31.7,82,31.6,81.8,31.5,81.9
				L31.5,81.9z"/>
		</g>
	</g>
</g>
<g>
	<g>
		<g>
			<path d="M31.1,80.6c-0.7,0-1.5,0.1-2.2,0.3c-0.1,0-0.1,0.2,0,0.2c0.7-0.2,1.4-0.3,2.1-0.3C31.2,80.8,31.2,80.6,31.1,80.6
				L31.1,80.6z"/>
		</g>
	</g>
</g>
<g>
	<g>
		<g>
			<path d="M28.4,79.8c0.7-0.2,1.5-0.3,2.2-0.3c0.1,0,0.1-0.2,0-0.2c-0.8,0-1.6,0.1-2.3,0.3C28.3,79.7,28.3,79.8,28.4,79.8
				L28.4,79.8z"/>
		</g>
	</g>
</g>
<g>
	<g>
		<g>
			<path d="M26.9,78.3c1.2-0.1,2.5-0.1,3.7-0.2c0.1,0,0.1-0.2,0-0.2c-1.2,0.1-2.5,0.1-3.7,0.2C26.8,78.1,26.8,78.3,26.9,78.3
				L26.9,78.3z"/>
		</g>
	</g>
</g>
<g>
	<g>
		<g>
			<path d="M27.9,76.7c0.8,0,1.6,0.1,2.4,0c0.1,0,0.1-0.2,0-0.2c-0.8,0-1.6,0-2.4,0C27.8,76.5,27.8,76.7,27.9,76.7L27.9,76.7z"/>
		</g>
	</g>
</g>
<g>
	<g>
		<g>
			<path d="M27.8,75.5c0.8,0,1.5-0.1,2.3-0.1c0.1,0,0.1-0.2,0-0.2c-0.8,0-1.5,0.1-2.3,0.1C27.7,75.3,27.7,75.5,27.8,75.5L27.8,75.5z
				"/>
		</g>
	</g>
</g>
<g>
	<g>
		<g>
			<path d="M27.7,74c0.8,0,1.7,0,2.5,0c0.1,0,0.1-0.2,0-0.2c-0.8,0-1.7,0-2.5,0C27.6,73.9,27.6,74.1,27.7,74L27.7,74z"/>
		</g>
	</g>
</g>
<g>
	<g>
		<g>
			<path d="M27.6,69.7c0.8,0,1.7,0,2.5,0.1c0.1,0,0.1-0.2,0-0.2c-0.8-0.1-1.7-0.1-2.5-0.1C27.5,69.5,27.5,69.7,27.6,69.7L27.6,69.7z
				"/>
		</g>
	</g>
</g>
<g>
	<g>
		<g>
			<path d="M27.8,68.2c0.8,0,1.7,0.1,2.5,0.1c0.1,0,0.1-0.2,0-0.2c-0.8,0-1.7-0.1-2.5-0.1C27.7,68,27.7,68.2,27.8,68.2L27.8,68.2z"
				/>
		</g>
	</g>
</g>
<g>
	<g>
		<g>
			<path d="M27.9,66.5c0.8,0.1,1.7,0.2,2.5,0.4c0.1,0,0.2-0.2,0-0.2c-0.8-0.1-1.7-0.2-2.5-0.4C27.8,66.3,27.8,66.5,27.9,66.5
				L27.9,66.5z"/>
		</g>
	</g>
</g>
<g>
	<g>
		<g>
			<path d="M28,65.4c1,0,1.9,0.1,2.8,0.3c0.1,0,0.2-0.1,0-0.2C30,65.4,29,65.3,28,65.2C27.9,65.2,27.9,65.4,28,65.4L28,65.4z"/>
		</g>
	</g>
</g>
<g>
	<g>
		<g>
			<path d="M27.3,63.8c1.2,0.1,2.3,0.4,3.5,0.7c0.1,0,0.2-0.1,0-0.2c-1.1-0.3-2.3-0.6-3.5-0.7C27.2,63.6,27.2,63.8,27.3,63.8
				L27.3,63.8z"/>
		</g>
	</g>
</g>
<g>
	<g>
		<g>
			<path d="M28.7,62.9c0.8,0.1,1.6,0.1,2.4,0.2c0.1,0,0.1-0.2,0-0.2c-0.8-0.1-1.6-0.1-2.4-0.2C28.6,62.7,28.6,62.9,28.7,62.9
				L28.7,62.9z"/>
		</g>
	</g>
</g>
<g>
	<g>
		<g>
			<path d="M29.1,61.3c0.8,0.1,1.5,0.3,2.3,0.4c0.1,0,0.2-0.1,0-0.2c-0.8-0.1-1.5-0.3-2.3-0.4C29.1,61.1,29,61.3,29.1,61.3
				L29.1,61.3z"/>
		</g>
	</g>
</g>
<g>
	<g>
		<g>
			<path d="M29.3,59.7c0.8,0.3,1.6,0.5,2.4,0.8c0.1,0,0.2-0.1,0-0.2c-0.8-0.3-1.6-0.5-2.4-0.8C29.3,59.5,29.2,59.7,29.3,59.7
				L29.3,59.7z"/>
		</g>
	</g>
</g>
<g>
	<g>
		<g>
			<path d="M29.7,58.4c0.8,0.3,1.7,0.6,2.5,0.9c0.1,0,0.1-0.1,0-0.2c-0.8-0.3-1.7-0.6-2.5-0.9C29.7,58.2,29.6,58.4,29.7,58.4
				L29.7,58.4z"/>
		</g>
	</g>
</g>
<g>
	<g>
		<g>
			<path d="M52.9,54.8c2.5,3.5,4.9,7,7.4,10.5c0.1,0.1,0.2,0,0.1-0.1c-2.5-3.5-4.9-7-7.4-10.5C53,54.6,52.9,54.7,52.9,54.8
				L52.9,54.8z"/>
		</g>
	</g>
</g>
<g>
	<g>
		<g>
			<path d="M52.9,54.7c3.4,2.7,6.7,5.4,10,8.2c0.1,0.1,0.2,0,0.1-0.1c-3.3-2.8-6.6-5.6-10-8.2C53,54.5,52.9,54.6,52.9,54.7
				L52.9,54.7z"/>
		</g>
	</g>
</g>
<g>
	<g>
		<g>
			<path d="M61.3,52.9c0.6,1.8,1.1,3.7,1.7,5.5c0.3,0.9,0.6,1.8,0.8,2.7c0.1,0.3,0.1,0.7,0.4,0.9c0,0,0.1,0,0.1,0c0,0,0,0,0-0.1
				c0,0,0-0.1-0.1-0.1c0,0,0,0-0.1,0c-0.1,0-0.1,0.1,0,0.2c-0.2-0.1-0.6-2.2-0.7-2.4c-0.2-0.7-0.5-1.5-0.7-2.2
				c-0.5-1.5-0.9-2.9-1.4-4.4C61.4,52.7,61.3,52.8,61.3,52.9L61.3,52.9z"/>
		</g>
	</g>
</g>
<g>
	<g>
		<g>
			<path d="M61.2,53c1.1,1.5,2,3,2.8,4.7c0.4,0.7,0.7,1.5,1.1,2.1c0.2,0.4,0.6,1.2,1,1.4c0.1,0,0.1,0,0.1-0.1c0,0,0,0,0,0
				c0,0,0-0.1-0.1-0.1c0,0,0,0,0,0c-0.1,0-0.1,0.2,0,0.2c-0.3,0-1.1-1.9-1.2-2.2c-0.3-0.7-0.6-1.3-1-2c-0.8-1.4-1.6-2.8-2.5-4.1
				C61.3,52.8,61.2,52.9,61.2,53L61.2,53z"/>
		</g>
	</g>
</g>
<g>
	<g>
		<g>
			<path d="M68,60.8c0-4.3,0.3-8.6,0.9-12.9c0-0.1-0.2-0.1-0.2,0c-0.6,4.3-0.9,8.6-0.9,12.9C67.8,60.9,68,60.9,68,60.8L68,60.8z"/>
		</g>
	</g>
</g>
<g>
	<g>
		<g>
			<path d="M68.8,47.7c0.4,4.4,0.8,8.7,1.1,13.1c0,0.1,0.2,0.1,0.2,0c-0.4-4.4-0.8-8.7-1.1-13.1C69,47.6,68.8,47.6,68.8,47.7
				L68.8,47.7z"/>
		</g>
	</g>
</g>
<g>
	<g>
		<g>
			<path d="M71.9,61c1.3-3,2.9-6,4.6-8.8c0.1-0.1-0.1-0.2-0.1-0.1c-1.7,2.8-3.3,5.8-4.6,8.8C71.7,61,71.8,61.1,71.9,61L71.9,61z"/>
		</g>
	</g>
</g>
<g>
	<g>
		<g>
			<path d="M76.3,52.1c-0.8,3.1-1.6,6.3-2.4,9.4c0,0.1,0.1,0.2,0.2,0.1c0-0.1,0.1-0.2,0.1-0.2c0-0.1-0.1-0.2-0.1-0.1
				c0.7-1.3,0.9-3,1.2-4.4c0.4-1.6,0.8-3.1,1.2-4.7C76.5,52.1,76.3,52,76.3,52.1L76.3,52.1z"/>
		</g>
	</g>
</g>
<g>
	<g>
		<g>
			<path d="M67.7,81.7c0.3,4.5,0.7,8.9,1.1,13.4c0,0.1,0.2,0.1,0.2,0c0-0.2,0-0.4,0-0.6c0-0.1-0.2-0.1-0.2,0
				c0.1,0.8,0.1-0.6,0.1-0.8c0-0.5-0.1-0.9-0.1-1.4c-0.1-1.2-0.2-2.4-0.3-3.6c-0.2-2.3-0.4-4.6-0.5-6.9
				C67.8,81.6,67.7,81.6,67.7,81.7L67.7,81.7z"/>
		</g>
	</g>
</g>
<g>
	<g>
		<g>
			<path d="M68.8,95c0.7-4.4,1.4-8.8,2-13.2c0-0.1-0.2-0.1-0.2,0c-0.6,4.4-1.2,8.8-2,13.1C68.6,95.1,68.8,95.1,68.8,95L68.8,95z"/>
		</g>
	</g>
</g>
<g>
	<g>
		<g>
			<path d="M72.5,81.5c1.3,2.6,2.8,5,4.4,7.4c0.1,0.1,0.2,0,0.1-0.1c-1.6-2.4-3-4.9-4.4-7.4C72.6,81.3,72.4,81.4,72.5,81.5
				L72.5,81.5z"/>
		</g>
	</g>
</g>
<g>
	<g>
		<g>
			<path d="M74.9,80.5c0.8,2.8,1.5,5.7,2,8.7c0,0.1,0.2,0.1,0.2,0c-0.5-2.9-1.2-5.8-2-8.7C75,80.3,74.8,80.4,74.9,80.5L74.9,80.5z"
				/>
		</g>
	</g>
</g>
<g>
	<g>
		<g>
			<path d="M75.7,80.1c3.6,2.4,6.4,5.8,10.1,8.1c0.1,0.1,0.2-0.1,0.1-0.1c-3.7-2.3-6.5-5.7-10.1-8.1C75.7,79.9,75.6,80,75.7,80.1
				L75.7,80.1z"/>
		</g>
	</g>
</g>
<g>
	<g>
		<g>
			<path d="M86.1,88c-2.2-3.5-4.7-6.9-7.2-10.2c-0.1-0.1-0.2,0-0.1,0.1c2.6,3.3,5,6.7,7.2,10.2C86,88.2,86.1,88.1,86.1,88L86.1,88z"
				/>
		</g>
	</g>
</g>
<g>
	<g>
		<g>
			<path d="M84.5,77.5c0.8,0.2,1.7,0.5,2.5,0.7c0.1,0,0.2-0.1,0-0.2c-0.8-0.2-1.7-0.5-2.5-0.7C84.5,77.3,84.4,77.5,84.5,77.5
				L84.5,77.5z"/>
		</g>
	</g>
</g>
<g>
	<g>
		<g>
			<path d="M85.3,77.1c0.6,0.4,1.2,0.8,1.9,1.1c0.1,0.1,0.2-0.1,0.1-0.1c-0.6-0.4-1.2-0.8-1.9-1.1C85.3,76.9,85.2,77.1,85.3,77.1
				L85.3,77.1z"/>
		</g>
	</g>
</g>
<g>
	<g>
		<g>
			<path d="M66.3,81.5c-1.3,2.6-2.7,5.2-4.3,7.7c-0.1,0.1,0.1,0.2,0.1,0.1c1.6-2.5,3-5.1,4.3-7.7C66.5,81.5,66.3,81.4,66.3,81.5
				L66.3,81.5z"/>
		</g>
	</g>
</g>
<g>
	<g>
		<g>
			<path d="M64.2,80.7c-0.7,2.9-1.5,5.7-2.4,8.5c0,0.1,0.1,0.2,0.2,0c0.9-2.8,1.7-5.7,2.4-8.5C64.5,80.6,64.3,80.5,64.2,80.7
				L64.2,80.7z"/>
		</g>
	</g>
</g>
<g>
	<g>
		<g>
			<path d="M50.7,64.4c0.8,0.4,1.5,0.7,2.3,1.1c0.1,0,0.2-0.1,0.1-0.1c-0.8-0.3-1.6-0.7-2.3-1.1C50.7,64.2,50.6,64.3,50.7,64.4
				L50.7,64.4z"/>
		</g>
	</g>
</g>
<g>
	<g>
		<g>
			<path d="M50.6,64.3c1.8,0.2,3.5,0.7,5.2,1c0.1,0,0.2-0.1,0-0.2c-1.7-0.4-3.5-0.9-5.2-1.1C50.4,64.1,50.4,64.3,50.6,64.3
				L50.6,64.3z"/>
		</g>
	</g>
</g>
<g>
	<g>
		<g>
			<path d="M50.9,79.2c1.3-0.6,2.6-1.3,3.9-1.8c0.1,0,0-0.2-0.1-0.1c-1.3,0.6-2.6,1.2-3.9,1.8C50.7,79.1,50.8,79.3,50.9,79.2
				L50.9,79.2z"/>
		</g>
	</g>
</g>
<g>
	<g>
		<g>
			<path d="M50.7,79.4c3.6-0.3,7.1-0.8,10.6-1.5c0.1,0,0.1-0.2,0-0.2c-3.5,0.7-7,1.2-10.6,1.5C50.6,79.2,50.6,79.4,50.7,79.4
				L50.7,79.4z"/>
		</g>
	</g>
</g>
<g>
	<g>
		<g>
			<path d="M61.5,78.6c-0.9,1.8-2.6,3.4-3.9,4.9c-1.4,1.6-2.8,3.3-4.2,4.9c-0.1,0.1,0,0.2,0.1,0.1c1.5-1.8,3-3.5,4.5-5.3
				c1.2-1.5,2.7-2.9,3.6-4.6C61.7,78.6,61.5,78.5,61.5,78.6L61.5,78.6z"/>
		</g>
	</g>
</g>
<g>
	<g>
		<g>
			<path d="M53.6,88.7c3.4-2.8,6.9-5.6,10.4-8.3c0.1-0.1,0-0.2-0.1-0.1c-3.5,2.7-7,5.5-10.4,8.3C53.3,88.7,53.5,88.8,53.6,88.7
				L53.6,88.7z"/>
		</g>
	</g>
</g>
<g>
	<g>
		<g>
			<path d="M87,63c-0.9,0.6-1.7,1.1-2.5,1.7c-0.1,0.1,0,0.2,0.1,0.1c0.9-0.6,1.7-1.1,2.5-1.7C87.2,63.1,87.1,62.9,87,63L87,63z"/>
		</g>
	</g>
</g>
<g>
	<g>
		<g>
			<path d="M86.9,62.9c-1.7,0.6-3.4,1.2-5.1,1.7c-0.1,0-0.1,0.2,0,0.2c1.7-0.6,3.4-1.2,5.1-1.7C87,63,87,62.9,86.9,62.9L86.9,62.9z"
				/>
		</g>
	</g>
</g>
<g>
	<g>
		<g>
			<path d="M75.6,62.7c3.4-3.4,7-6.4,11-9.1c0.1-0.1,0-0.2-0.1-0.1c-3.9,2.7-7.6,5.8-11,9.1C75.4,62.6,75.5,62.7,75.6,62.7
				L75.6,62.7z"/>
		</g>
	</g>
</g>
<g>
	<g>
		<g>
			<path d="M77.8,64.4c2.9-3.7,5.8-7.3,8.8-10.9c0.1-0.1,0-0.2-0.1-0.1c-3,3.6-6,7.2-8.8,10.9C77.6,64.4,77.7,64.5,77.8,64.4
				L77.8,64.4z"/>
		</g>
	</g>
</g>
<g>
	<g>
		<g>
			<path d="M24.2,71.6c11.3-3.9,22.9-5.8,34.8-6.2c12.1-0.4,24.2-0.8,36.2,1.1c6.5,1,12.9,2.6,19.2,4.7c0.4,0.1,0.5-0.5,0.2-0.6
				c-11.3-3.7-23.1-5.8-35-6.1c-6.2-0.1-12.3,0-18.5,0.2c-5.8,0.2-11.7,0.5-17.5,1.4c-6.7,1-13.2,2.7-19.6,4.9
				C23.7,71.1,23.9,71.7,24.2,71.6L24.2,71.6z"/>
		</g>
	</g>
</g>
<g>
	<g>
		<g>
			<path d="M23.7,71.8c5.2,2.3,10.8,3.2,16.4,4c2.7,0.4,5.5,0.9,8.2,1c3.2,0.1,6.4,0.6,9.6,0.8C64,78,70.2,78,76.4,78.1
				c6,0,12-1,17.9-2c3.4-0.6,6.8-1.2,10.1-2c1.7-0.4,3.4-0.9,5.1-1.3s3.4-0.6,5-1.2c0.4-0.1,0.2-0.7-0.2-0.6c-1.3,0.5-2.7,0.7-4.1,1
				c-1.5,0.3-2.9,0.8-4.4,1.1c-3,0.8-6,1.4-9,1.9c-2.9,0.5-5.8,1-8.7,1.4c-3,0.4-6.2,1.1-9.2,1.1c-6.1,0-12.1,0-18.2-0.3
				c-6-0.3-12.1-0.7-18.1-1.6C36.4,74.7,29.9,74,24,71.3C23.7,71.2,23.4,71.7,23.7,71.8L23.7,71.8z"/>
		</g>
	</g>
</g>
<g>
	<g>
		<g>
			<path d="M24.3,71.6c7,0.4,13.9,0.2,20.9,0.1c3.4,0,6.9-0.1,10.3-0.1c1.7,0,3.3-0.1,5-0.1c0.4,0,4.1,0.2,4-0.1
				c0.1-0.1,0.1-0.2,0.2-0.4c0,0,0,0,0,0c-0.4,0.1-0.2,0.7,0.2,0.6c0,0,0,0,0,0c0.2-0.1,0.2-0.2,0.2-0.4c0,0,0,0,0-0.1
				c0-0.1-0.2-0.2-0.3-0.2c-13.5-0.2-27,0.7-40.5,0C23.9,71,23.9,71.6,24.3,71.6L24.3,71.6z"/>
		</g>
	</g>
</g>
<g>
	<g>
		<g>
			<path d="M74.3,71.9c13.3,0.8,26.5-0.3,39.8-0.3c0.4,0,0.4-0.6,0-0.6c-13.3,0-26.5,1.2-39.8,0.3C73.9,71.2,73.9,71.8,74.3,71.9
				L74.3,71.9z"/>
		</g>
	</g>
</g>
<g>
	<g>
		<g>
			<path d="M102.4,68c0.5,0.8,1.3,2,1.3,3c0,1.1-1.2,2.1-1.9,2.9c-0.3,0.3,0.2,0.7,0.4,0.4c0.7-0.7,1.9-1.8,2.1-2.9
				c0.2-1.2-0.8-2.8-1.4-3.8C102.7,67.3,102.2,67.6,102.4,68L102.4,68z"/>
		</g>
	</g>
</g>
<g class="st0">
	<path d="M69.5,27.5c-0.4,0-0.7-0.2-1-0.7c-0.2-0.5-0.4-1-0.4-1.8c0-0.7,0.1-1.3,0.4-1.8c0.3-0.4,0.6-0.7,1-0.7c0.4,0,0.7,0.2,1,0.7
		c0.2,0.5,0.4,1,0.4,1.8c0,0.7-0.1,1.3-0.4,1.8C70.2,27.3,69.9,27.5,69.5,27.5z M69.5,27.1c0.6,0,0.8-0.7,0.9-2c0-1.3-0.2-2-0.8-2
		c-0.5,0-0.8,0.6-0.9,2C68.7,26.4,68.9,27.1,69.5,27.1z"/>
</g>
<g class="st0">
	<path d="M81.7,29.1l0.2-0.5c0.3-0.3,0.7-0.7,1.3-1l0.4-0.2c0.5-0.3,0.8-0.6,1-1c0.1-0.2,0.1-0.5,0-0.6c-0.1-0.2-0.2-0.3-0.4-0.4
		c-0.3-0.1-0.6-0.1-1,0l0.2-0.5c0.4-0.1,0.8,0,1.1,0.1c0.3,0.1,0.6,0.3,0.7,0.6c0.1,0.3,0.1,0.6,0,1c-0.1,0.3-0.2,0.5-0.4,0.6
		c-0.2,0.2-0.5,0.3-0.9,0.5l-0.3,0.1c-0.5,0.3-0.9,0.6-1.1,0.9l1.6,0.6L84,29.9L81.7,29.1z"/>
	<path d="M86.1,30.8c-0.4-0.1-0.6-0.5-0.7-1c-0.1-0.5,0-1.1,0.2-1.8c0.2-0.7,0.6-1.2,1-1.5c0.4-0.3,0.8-0.4,1.2-0.3
		c0.4,0.1,0.6,0.5,0.7,1c0.1,0.5,0,1.1-0.2,1.8c-0.3,0.7-0.6,1.2-1,1.6C86.9,30.8,86.5,30.9,86.1,30.8z M86.3,30.3
		c0.5,0.2,1-0.4,1.5-1.6c0.4-1.2,0.4-1.9-0.1-2.1c-0.5-0.2-1,0.3-1.4,1.6C85.8,29.4,85.8,30.1,86.3,30.3z"/>
</g>
<g class="st0">
	<path d="M96.3,36.9l0.8-1l-1.4-1.1l0.3-0.4l3.2-1.1l0.4,0.3l-1.8,2.2l0.4,0.3L98,36.6l-0.4-0.3l-0.8,1L96.3,36.9z M96.5,34.7l1,0.8
		l1.3-1.6L96.5,34.7z"/>
	<path d="M98.7,39c-0.3-0.3-0.4-0.6-0.3-1.2c0.1-0.5,0.4-1,0.8-1.6c0.5-0.6,0.9-1,1.4-1.1c0.5-0.2,0.9-0.2,1.2,0.1
		c0.3,0.3,0.4,0.6,0.4,1.2c-0.1,0.5-0.4,1-0.8,1.6c-0.5,0.6-0.9,1-1.4,1.2C99.4,39.3,99,39.3,98.7,39z M99,38.6c0.4,0.4,1.1,0,1.9-1
		c0.8-1,1-1.7,0.6-2c-0.4-0.3-1.1,0-1.9,1C98.8,37.6,98.6,38.3,99,38.6z"/>
</g>
<g class="st0">
	<path d="M108.2,46.6c0.5,0,0.8,0.2,1,0.5c0.2,0.3,0.2,0.6,0.1,0.9c-0.1,0.3-0.4,0.6-0.7,0.8c-0.4,0.2-0.8,0.3-1.2,0.3
		c-0.4-0.1-0.7-0.3-0.9-0.6c-0.2-0.4-0.2-0.8,0-1.2c0.2-0.4,0.7-0.8,1.3-1.2c0.7-0.4,1.3-0.6,1.8-0.6c0.5,0,0.9,0.3,1.2,0.7
		c0.1,0.2,0.2,0.5,0.3,0.9l-0.5,0.3c0-0.4-0.1-0.7-0.2-0.9C110,45.9,109.3,45.9,108.2,46.6z M108.1,48.5c0.3-0.2,0.5-0.4,0.6-0.6
		c0.1-0.2,0.1-0.4,0-0.6c-0.1-0.2-0.3-0.3-0.5-0.4c-0.2-0.1-0.5,0-0.7,0.1c-0.3,0.2-0.6,0.4-0.7,0.7c-0.1,0.2-0.1,0.5,0,0.7
		c0.1,0.2,0.3,0.3,0.5,0.3C107.6,48.7,107.9,48.6,108.1,48.5z"/>
	<path d="M108.1,51.5c-0.2-0.4-0.2-0.8,0.1-1.2c0.3-0.4,0.7-0.8,1.4-1.2c0.6-0.4,1.2-0.5,1.7-0.5c0.5,0,0.9,0.2,1.1,0.5
		c0.2,0.4,0.2,0.8-0.1,1.2c-0.3,0.4-0.7,0.8-1.3,1.2c-0.7,0.4-1.2,0.6-1.7,0.6C108.7,52.1,108.3,51.9,108.1,51.5z M108.5,51.3
		c0.3,0.5,1,0.4,2.2-0.3c1.1-0.6,1.6-1.2,1.3-1.7c-0.3-0.5-1-0.4-2.1,0.3C108.7,50.2,108.3,50.8,108.5,51.3z"/>
</g>
<g class="st0">
	<path d="M114.3,61.2c0.2-0.4,0.6-0.7,0.9-0.7c0.3-0.1,0.6,0,0.9,0.2c0.3,0.2,0.4,0.4,0.5,0.8c0.1,0.3,0,0.6-0.1,0.8
		c-0.2,0.2-0.4,0.4-0.7,0.4c-0.4,0.1-0.9-0.1-1.3-0.5c-0.2,0.6-0.6,1-1.2,1.1c-0.4,0.1-0.7,0-1-0.2c-0.3-0.2-0.5-0.5-0.5-0.9
		c-0.1-0.4,0-0.7,0.2-1c0.2-0.3,0.5-0.4,0.8-0.5C113.3,60.5,113.8,60.7,114.3,61.2z M114.1,61.5c-0.2-0.2-0.4-0.3-0.6-0.3
		s-0.3-0.1-0.5,0c-0.3,0-0.5,0.2-0.6,0.3c-0.1,0.2-0.2,0.4-0.1,0.6c0,0.2,0.1,0.4,0.3,0.5c0.2,0.1,0.4,0.2,0.6,0.1
		c0.2,0,0.3-0.1,0.4-0.2c0.1-0.1,0.2-0.3,0.4-0.6L114.1,61.5z M114.6,61.8c0.3,0.3,0.7,0.4,1,0.4c0.2,0,0.3-0.1,0.4-0.3
		c0.1-0.1,0.1-0.3,0.1-0.5c0-0.2-0.1-0.3-0.2-0.4c-0.1-0.1-0.3-0.1-0.5-0.1c-0.2,0-0.3,0.1-0.4,0.2
		C114.9,61.2,114.7,61.5,114.6,61.8z"/>
	<path d="M112.3,65.5c-0.1-0.4,0.1-0.8,0.5-1.1c0.4-0.3,1-0.5,1.7-0.7c0.7-0.1,1.3-0.1,1.8,0.1c0.5,0.2,0.8,0.5,0.8,0.9
		c0.1,0.4-0.1,0.8-0.5,1.1c-0.4,0.3-1,0.5-1.7,0.7c-0.7,0.1-1.3,0.1-1.8-0.1C112.7,66.2,112.4,65.9,112.3,65.5z M112.8,65.4
		c0.1,0.5,0.8,0.7,2.1,0.5c1.3-0.2,1.9-0.6,1.8-1.1c-0.1-0.5-0.8-0.7-2.1-0.5C113.3,64.5,112.7,64.9,112.8,65.4z"/>
</g>
<g class="st0">
	<path d="M113.3,74.7l0.5,0.1l-0.2,0.8l3.6,0.8l-0.1-0.8l0.5,0.1l0.1,1.4l-4.2-0.9l-0.2,0.8l-0.5-0.1L113.3,74.7z"/>
	<path d="M112.3,79c0.1-0.4,0.4-0.7,0.9-0.8c0.5-0.2,1.1-0.2,1.8,0c0.7,0.1,1.3,0.4,1.7,0.7c0.4,0.3,0.5,0.7,0.5,1.1
		c-0.1,0.4-0.4,0.7-0.9,0.8c-0.5,0.2-1.1,0.2-1.8,0c-0.7-0.2-1.3-0.4-1.7-0.7C112.4,79.8,112.2,79.4,112.3,79z M112.8,79.1
		c-0.1,0.5,0.5,1,1.8,1.2c1.3,0.3,2,0.1,2.1-0.4c0.1-0.5-0.5-0.9-1.8-1.2C113.6,78.4,112.9,78.5,112.8,79.1z"/>
	<path d="M111.6,82.4c0.1-0.4,0.4-0.7,0.9-0.8c0.5-0.2,1.1-0.2,1.8,0c0.7,0.1,1.3,0.4,1.7,0.7c0.4,0.3,0.5,0.7,0.5,1.1
		c-0.1,0.4-0.4,0.7-0.9,0.8c-0.5,0.2-1.1,0.2-1.8,0c-0.7-0.2-1.3-0.4-1.7-0.7C111.7,83.2,111.5,82.8,111.6,82.4z M112.1,82.5
		c-0.1,0.5,0.5,1,1.8,1.2c1.3,0.3,2,0.1,2.1-0.4c0.1-0.5-0.5-0.9-1.8-1.2C112.9,81.8,112.2,81.9,112.1,82.5z"/>
</g>
<g class="st0">
	<path d="M109.1,90.2l0.4,0.3l-0.4,0.7l3.1,2l0.2-0.8l0.4,0.3l-0.4,1.3l-3.6-2.4l-0.4,0.7l-0.4-0.3L109.1,90.2z"/>
	<path d="M107.4,92.8l0.5,0.3c0.3,0.4,0.5,0.9,0.7,1.5l0.1,0.4c0.1,0.6,0.4,0.9,0.7,1.2c0.2,0.1,0.4,0.2,0.6,0.2
		c0.2,0,0.4-0.1,0.5-0.3c0.1-0.2,0.2-0.6,0.2-1l0.5,0.3c0,0.4-0.1,0.7-0.3,1c-0.2,0.3-0.5,0.5-0.8,0.6c-0.3,0.1-0.6,0-1-0.2
		c-0.2-0.2-0.4-0.3-0.5-0.5c-0.1-0.2-0.2-0.5-0.3-1l-0.1-0.3c-0.1-0.6-0.3-1-0.6-1.3l-0.9,1.4l-0.5-0.3L107.4,92.8z"/>
	<path d="M104.7,96.7c0.2-0.3,0.6-0.5,1.1-0.5c0.5,0,1.1,0.3,1.7,0.6c0.6,0.4,1,0.8,1.3,1.3c0.2,0.5,0.2,0.9,0,1.2
		c-0.2,0.3-0.6,0.5-1.1,0.5c-0.5,0-1.1-0.2-1.7-0.6c-0.6-0.4-1.1-0.8-1.3-1.3C104.5,97.5,104.5,97.1,104.7,96.7z M105.1,97
		c-0.3,0.5,0.1,1.1,1.2,1.8c1.1,0.7,1.8,0.8,2.1,0.4c0.3-0.5-0.1-1-1.2-1.8C106.1,96.6,105.4,96.5,105.1,97z"/>
</g>
<g class="st0">
	<path d="M101.3,101.2l0.3,0.4l-0.6,0.5l2.4,2.8l0.4-0.7l0.3,0.4l-0.7,1.2l-2.8-3.3l-0.6,0.5l-0.3-0.4L101.3,101.2z"/>
	<path d="M97.7,104.3l0.9,1l1.3-1.2l0.3,0.4l0.6,3.3l-0.4,0.3l-1.9-2.1l-0.4,0.3l-0.3-0.4l0.4-0.3l-0.9-1L97.7,104.3z M99.9,104.8
		l-1,0.9l1.4,1.6L99.9,104.8z"/>
	<path d="M95.3,106.2c0.3-0.3,0.7-0.3,1.2-0.1c0.5,0.2,1,0.5,1.5,1.1c0.5,0.6,0.8,1.1,0.9,1.6c0.1,0.5,0,0.9-0.3,1.2
		c-0.3,0.3-0.7,0.3-1.2,0.2c-0.5-0.2-1-0.5-1.4-1.1c-0.5-0.6-0.8-1.1-0.9-1.6C94.9,106.9,95,106.5,95.3,106.2z M95.6,106.6
		c-0.4,0.4-0.2,1.1,0.7,2.1c0.9,1,1.5,1.3,1.9,0.9c0.4-0.4,0.2-1-0.7-2C96.7,106.6,96,106.2,95.6,106.6z"/>
</g>
<g class="st0">
	<path d="M88.4,110.8l0.2,0.4l-0.7,0.3L89,115l0.7-0.5l0.2,0.5l-1.1,0.8l-1.4-4.1l-0.7,0.3l-0.2-0.4L88.4,110.8z"/>
	<path d="M85.8,114.3c-0.1,0.4-0.3,0.7-0.7,0.9c-0.3,0.1-0.6,0.1-0.9-0.1c-0.3-0.2-0.5-0.5-0.7-0.9c-0.2-0.5-0.2-0.9-0.1-1.3
		c0.1-0.4,0.4-0.6,0.7-0.8c0.4-0.1,0.8-0.1,1.2,0.2c0.4,0.3,0.7,0.8,0.9,1.5c0.3,0.8,0.3,1.4,0.2,1.9c-0.1,0.5-0.4,0.9-0.9,1
		c-0.2,0.1-0.5,0.1-0.9,0.1l-0.2-0.5c0.4,0,0.7,0,0.9-0.1C86.1,116.2,86.2,115.5,85.8,114.3z M84,113.9c0.1,0.3,0.3,0.6,0.5,0.7
		c0.2,0.1,0.4,0.2,0.6,0.1c0.2-0.1,0.4-0.2,0.5-0.4c0.1-0.2,0.1-0.4,0-0.7c-0.1-0.4-0.3-0.6-0.5-0.8c-0.2-0.2-0.5-0.2-0.7-0.1
		c-0.2,0.1-0.4,0.2-0.4,0.5S83.9,113.6,84,113.9z"/>
	<path d="M81,113.3c0.4-0.1,0.8,0,1.2,0.3c0.4,0.3,0.7,0.9,1,1.5c0.2,0.7,0.3,1.3,0.2,1.8c-0.1,0.5-0.3,0.8-0.7,1
		c-0.4,0.1-0.8,0-1.2-0.3c-0.4-0.3-0.7-0.8-1-1.5c-0.3-0.7-0.3-1.3-0.2-1.8C80.3,113.8,80.6,113.5,81,113.3z M81.1,113.8
		c-0.5,0.2-0.6,0.9-0.1,2.2c0.4,1.2,0.9,1.8,1.4,1.6c0.5-0.2,0.6-0.9,0.1-2.1C82.1,114.1,81.6,113.6,81.1,113.8z"/>
</g>
<g class="st0">
	<path d="M73.5,114.8l0,0.5l-0.8,0l0,3.7l0.8-0.2l0,0.5l-1.3,0.4l0-4.3l-0.8,0l0-0.5L73.5,114.8z"/>
	<path d="M69.7,117.3c0.4,0.3,0.6,0.7,0.6,1c0,0.4-0.1,0.6-0.3,0.9c-0.2,0.2-0.5,0.3-0.9,0.3c-0.3,0-0.6-0.1-0.8-0.3
		c-0.2-0.2-0.3-0.4-0.3-0.7c0-0.5,0.2-0.9,0.7-1.2c-0.6-0.3-0.9-0.8-0.9-1.3c0-0.4,0.1-0.7,0.4-1c0.2-0.2,0.6-0.4,1-0.4
		c0.4,0,0.7,0.1,0.9,0.3c0.2,0.2,0.4,0.5,0.4,0.9C70.4,116.5,70.2,117,69.7,117.3z M69.4,117.1c0.2-0.2,0.4-0.4,0.4-0.5
		c0.1-0.1,0.1-0.3,0.1-0.5c0-0.3-0.1-0.5-0.2-0.6c-0.1-0.2-0.3-0.2-0.6-0.2c-0.2,0-0.4,0.1-0.6,0.2c-0.1,0.1-0.2,0.3-0.2,0.6
		c0,0.2,0,0.3,0.1,0.5s0.3,0.3,0.5,0.5L69.4,117.1z M69,117.5c-0.4,0.3-0.5,0.6-0.5,1c0,0.2,0.1,0.3,0.2,0.5
		c0.1,0.1,0.3,0.2,0.5,0.2c0.2,0,0.4-0.1,0.5-0.2s0.2-0.3,0.2-0.4c0-0.2-0.1-0.3-0.2-0.5C69.5,117.9,69.3,117.7,69,117.5z"/>
	<path d="M65.7,114.7c0.4,0,0.7,0.2,1,0.7c0.3,0.5,0.4,1,0.4,1.8c0,0.7-0.1,1.3-0.4,1.8c-0.2,0.5-0.6,0.7-1,0.7
		c-0.4,0-0.8-0.2-1-0.7c-0.3-0.4-0.4-1-0.4-1.8c0-0.7,0.1-1.3,0.4-1.8C65,115,65.3,114.7,65.7,114.7z M65.7,115.2
		c-0.6,0-0.8,0.7-0.8,2c0,1.3,0.3,2,0.8,2c0.5,0,0.8-0.7,0.8-2C66.5,115.8,66.3,115.2,65.7,115.2z"/>
</g>
<g class="st0">
	<path d="M58.6,113.8l-0.2,0.5c-0.3,0.3-0.7,0.7-1.4,1l-0.4,0.2c-0.5,0.2-0.8,0.6-1,0.9c-0.1,0.2-0.1,0.5,0,0.6
		c0.1,0.2,0.2,0.3,0.4,0.4c0.3,0.1,0.6,0.1,1,0l-0.2,0.5c-0.4,0.1-0.8,0-1.1-0.1c-0.3-0.1-0.6-0.3-0.7-0.6c-0.1-0.3-0.1-0.6,0-1
		c0.1-0.3,0.2-0.5,0.4-0.6c0.2-0.2,0.5-0.3,0.9-0.5l0.3-0.1c0.5-0.2,0.9-0.5,1.1-0.9l-1.6-0.6l0.2-0.5L58.6,113.8z"/>
	<path d="M54.2,112c0.4,0.1,0.6,0.5,0.7,1c0.1,0.5,0,1.1-0.3,1.8c-0.3,0.7-0.6,1.2-1,1.5c-0.4,0.3-0.8,0.4-1.2,0.3
		c-0.4-0.1-0.6-0.5-0.7-1c-0.1-0.5,0-1.1,0.3-1.8c0.3-0.7,0.6-1.2,1-1.5C53.4,111.9,53.8,111.8,54.2,112z M54,112.4
		c-0.5-0.2-1,0.3-1.5,1.6c-0.5,1.2-0.4,1.9,0.1,2.1c0.5,0.2,1-0.3,1.5-1.6C54.6,113.3,54.5,112.6,54,112.4z"/>
	<path d="M51,110.8c0.4,0.1,0.6,0.5,0.7,1c0.1,0.5,0,1.1-0.3,1.8c-0.3,0.7-0.6,1.2-1,1.5c-0.4,0.3-0.8,0.4-1.2,0.3
		c-0.4-0.1-0.6-0.5-0.7-1c-0.1-0.5,0-1.1,0.3-1.8c0.3-0.7,0.6-1.2,1-1.5C50.2,110.7,50.6,110.6,51,110.8z M50.8,111.2
		c-0.5-0.2-1,0.3-1.5,1.6c-0.5,1.2-0.4,1.9,0.1,2.1c0.5,0.2,1-0.3,1.5-1.6C51.3,112.1,51.3,111.4,50.8,111.2z"/>
</g>
<g class="st0">
	<path d="M45.3,107.8l-0.3,0.4c-0.4,0.2-0.9,0.4-1.6,0.5l-0.4,0.1c-0.6,0.1-1,0.3-1.2,0.6c-0.2,0.2-0.2,0.4-0.2,0.6
		c0,0.2,0.1,0.4,0.3,0.5c0.2,0.2,0.5,0.3,1,0.3l-0.4,0.4c-0.4-0.1-0.7-0.2-1-0.4c-0.3-0.2-0.4-0.5-0.5-0.8c0-0.3,0.1-0.6,0.3-0.9
		c0.2-0.2,0.4-0.4,0.6-0.5c0.2-0.1,0.6-0.2,1-0.2l0.3,0c0.6-0.1,1-0.2,1.3-0.5l-1.3-1.1l0.3-0.4L45.3,107.8z"/>
	<path d="M42.6,105.6l-0.3,0.4c-0.4,0.2-0.9,0.4-1.6,0.5l-0.4,0.1c-0.6,0.1-1,0.3-1.2,0.6c-0.2,0.2-0.2,0.4-0.2,0.6s0.1,0.4,0.3,0.5
		c0.2,0.2,0.5,0.3,1,0.3l-0.4,0.4c-0.4-0.1-0.7-0.2-1-0.4c-0.3-0.2-0.4-0.5-0.5-0.8c0-0.3,0.1-0.6,0.3-0.9c0.2-0.2,0.4-0.4,0.6-0.5
		c0.2-0.1,0.6-0.2,1-0.2l0.3,0c0.6-0.1,1-0.2,1.3-0.5l-1.3-1.1l0.3-0.4L42.6,105.6z"/>
	<path d="M39,102.5c0.3,0.3,0.4,0.6,0.3,1.2c-0.1,0.5-0.4,1-0.8,1.6c-0.5,0.6-0.9,0.9-1.4,1.1c-0.5,0.2-0.9,0.1-1.2-0.1
		c-0.3-0.3-0.4-0.7-0.3-1.2c0.1-0.5,0.4-1,0.8-1.6c0.5-0.6,1-1,1.4-1.1C38.3,102.2,38.7,102.3,39,102.5z M38.7,102.9
		c-0.4-0.4-1.1,0-1.9,1c-0.8,1-1,1.7-0.6,2c0.4,0.4,1.1,0,1.9-1C38.9,103.9,39.2,103.2,38.7,102.9z"/>
</g>
<g class="st0">
	<path d="M34.2,97.5l-0.5,0.3c-0.4,0.1-1,0-1.7-0.1l-0.4-0.1c-0.6-0.1-1-0.1-1.4,0.1c-0.2,0.1-0.4,0.3-0.4,0.5
		c-0.1,0.2,0,0.4,0.1,0.6c0.1,0.2,0.4,0.5,0.8,0.6l-0.5,0.3c-0.3-0.2-0.6-0.5-0.8-0.8c-0.2-0.3-0.2-0.6-0.1-0.9
		c0.1-0.3,0.3-0.6,0.6-0.8c0.2-0.1,0.5-0.2,0.7-0.2c0.2,0,0.6,0,1,0.1l0.3,0.1c0.6,0.2,1,0.2,1.4,0l-0.9-1.5l0.5-0.3L34.2,97.5z"/>
	<path d="M31.7,93.1l-1.1,0.7l0.9,1.5L31,95.5l-3.4-0.1L27.4,95l2.5-1.4l-0.3-0.5l0.4-0.3l0.3,0.5l1.1-0.7L31.7,93.1z M30.7,95.1
		L30.1,94l-1.8,1L30.7,95.1z"/>
	<path d="M30.2,90.3c0.2,0.4,0.2,0.8-0.1,1.2c-0.3,0.4-0.7,0.9-1.3,1.2c-0.6,0.4-1.2,0.6-1.7,0.6c-0.5,0-0.9-0.2-1.1-0.5
		c-0.2-0.4-0.2-0.8,0.1-1.2c0.3-0.4,0.7-0.9,1.3-1.2c0.6-0.4,1.2-0.6,1.7-0.6C29.6,89.8,30,90,30.2,90.3z M29.8,90.6
		c-0.3-0.5-1-0.4-2.2,0.3c-1.1,0.7-1.6,1.2-1.3,1.7c0.3,0.5,1,0.4,2.1-0.3C29.6,91.6,30.1,91,29.8,90.6z"/>
</g>
<g class="st0">
	<path d="M27.5,84.1L27,84.2c-0.4-0.1-1-0.3-1.5-0.7l-0.4-0.2c-0.5-0.3-0.9-0.4-1.3-0.3c-0.3,0-0.4,0.2-0.6,0.3
		c-0.1,0.2-0.2,0.4-0.1,0.6c0.1,0.3,0.2,0.6,0.6,0.9l-0.5,0.1c-0.3-0.3-0.4-0.6-0.5-1c-0.1-0.4,0-0.7,0.2-0.9
		c0.2-0.3,0.5-0.4,0.9-0.5c0.3-0.1,0.5,0,0.8,0c0.2,0.1,0.5,0.2,0.9,0.5l0.2,0.2c0.5,0.3,0.9,0.5,1.3,0.5l-0.3-1.7l0.5-0.1
		L27.5,84.1z"/>
	<path d="M24.4,80.7c-0.4-0.2-0.7-0.4-0.7-0.8c-0.1-0.3,0-0.6,0.2-0.9c0.2-0.3,0.5-0.4,1-0.5c0.5-0.1,0.9,0,1.2,0.1
		c0.4,0.2,0.6,0.5,0.6,0.8c0.1,0.4-0.1,0.8-0.4,1.1c-0.4,0.3-0.9,0.5-1.6,0.7c-0.8,0.2-1.4,0.1-1.9-0.1c-0.5-0.2-0.8-0.5-0.9-1
		c0-0.2,0-0.5,0-0.9l0.5-0.1c-0.1,0.4-0.1,0.7-0.1,0.9C22.5,80.7,23.2,80.9,24.4,80.7z M25.1,78.9c-0.3,0.1-0.6,0.2-0.8,0.4
		c-0.2,0.2-0.2,0.4-0.2,0.6c0,0.2,0.2,0.4,0.4,0.5c0.2,0.1,0.4,0.2,0.7,0.1c0.4-0.1,0.7-0.2,0.9-0.4c0.2-0.2,0.3-0.4,0.2-0.7
		c0-0.2-0.2-0.4-0.4-0.5C25.7,78.9,25.4,78.9,25.1,78.9z"/>
	<path d="M26.1,76c0.1,0.4-0.1,0.8-0.5,1.1c-0.4,0.3-1,0.6-1.7,0.7c-0.7,0.1-1.3,0.1-1.8,0c-0.5-0.2-0.8-0.5-0.8-0.9
		c-0.1-0.4,0.1-0.8,0.5-1.1c0.4-0.3,0.9-0.6,1.7-0.7c0.7-0.1,1.3-0.1,1.8,0C25.8,75.3,26,75.6,26.1,76z M25.7,76.1
		c-0.1-0.5-0.8-0.7-2.1-0.4c-1.3,0.2-1.9,0.6-1.8,1.2c0.1,0.5,0.8,0.7,2.1,0.4C25.2,77,25.8,76.6,25.7,76.1z"/>
</g>
<g class="st0">
	<path d="M25.5,69.1L25,69c-0.4-0.2-0.8-0.6-1.2-1.1l-0.3-0.3c-0.4-0.4-0.7-0.7-1.1-0.7c-0.3,0-0.5,0-0.6,0.1s-0.3,0.3-0.3,0.5
		c0,0.3,0,0.6,0.2,1l-0.5-0.1c-0.1-0.4-0.2-0.7-0.1-1.1c0.1-0.4,0.2-0.6,0.5-0.8c0.3-0.2,0.6-0.3,1-0.2c0.3,0,0.5,0.1,0.7,0.3
		c0.2,0.1,0.4,0.4,0.7,0.7l0.2,0.2c0.4,0.5,0.7,0.8,1.1,0.9l0.2-1.7l0.5,0.1L25.5,69.1z"/>
	<path d="M23.6,64.5c-0.4,0.3-0.7,0.5-1.1,0.4c-0.3,0-0.6-0.2-0.8-0.4c-0.2-0.2-0.3-0.5-0.2-0.9c0-0.3,0.2-0.6,0.4-0.7
		c0.2-0.2,0.5-0.2,0.8-0.2c0.4,0.1,0.8,0.4,1.1,0.9c0.4-0.5,0.9-0.8,1.4-0.7c0.4,0.1,0.7,0.2,0.9,0.5c0.2,0.3,0.3,0.6,0.2,1
		c-0.1,0.4-0.2,0.7-0.5,0.9c-0.3,0.2-0.6,0.3-1,0.2C24.3,65.4,23.9,65.1,23.6,64.5z M23.5,63.8c-0.2-0.4-0.5-0.6-0.9-0.7
		c-0.2,0-0.3,0-0.5,0.1c-0.1,0.1-0.2,0.3-0.2,0.5c0,0.2,0,0.4,0.1,0.5c0.1,0.1,0.2,0.2,0.4,0.2c0.2,0,0.3,0,0.5-0.1
		C23.1,64.2,23.3,64.1,23.5,63.8z M23.9,64.2c0.2,0.2,0.3,0.4,0.4,0.5s0.3,0.2,0.5,0.2c0.3,0,0.5,0,0.7-0.1c0.2-0.1,0.3-0.3,0.3-0.5
		c0-0.2,0-0.4-0.1-0.6c-0.1-0.2-0.3-0.3-0.5-0.3c-0.2,0-0.3,0-0.5,0.1c-0.1,0.1-0.3,0.2-0.5,0.5L23.9,64.2z"/>
	<path d="M26.8,61c-0.1,0.4-0.3,0.7-0.8,0.9c-0.5,0.2-1.1,0.2-1.8,0.1c-0.7-0.1-1.3-0.3-1.7-0.6c-0.4-0.3-0.6-0.7-0.5-1.1
		c0.1-0.4,0.3-0.7,0.8-0.9c0.5-0.2,1.1-0.2,1.8-0.1c0.7,0.1,1.3,0.3,1.7,0.6C26.7,60.2,26.8,60.6,26.8,61z M26.3,60.9
		c0.1-0.6-0.5-0.9-1.9-1.1c-1.3-0.2-2,0-2.1,0.5c-0.1,0.5,0.5,0.9,1.8,1.1C25.6,61.6,26.2,61.5,26.3,60.9z"/>
</g>
<g class="st0">
	<path d="M28.9,54.1l-0.5-0.3c0.3-0.2,0.6-0.4,0.7-0.6c0.1-0.2,0.2-0.4,0.1-0.7c-0.1-0.2-0.2-0.4-0.5-0.5c-0.6-0.3-1-0.2-1.4,0.5
		l-0.1,0.2l-0.4-0.2l0.1-0.2c0.4-0.6,0.3-1.1-0.2-1.4c-0.4-0.2-0.7-0.2-1,0.3c-0.1,0.2-0.2,0.5-0.2,0.9L25,51.7
		c0.1-0.3,0.2-0.6,0.3-0.9c0.4-0.7,0.9-0.9,1.6-0.5c0.5,0.3,0.7,0.7,0.6,1.3c0.5-0.5,1-0.5,1.6-0.2c0.4,0.2,0.6,0.5,0.7,0.8
		c0.1,0.3,0,0.7-0.2,1.1C29.4,53.6,29.2,53.8,28.9,54.1z"/>
	<path d="M31.4,50.2c-0.2,0.3-0.6,0.5-1.1,0.5c-0.5,0-1.1-0.2-1.7-0.6c-0.6-0.4-1.1-0.8-1.3-1.2C27,48.4,27,48,27.2,47.6
		c0.2-0.4,0.6-0.5,1.1-0.5c0.5,0,1.1,0.2,1.7,0.6c0.6,0.4,1.1,0.8,1.3,1.2C31.6,49.4,31.6,49.8,31.4,50.2z M31,49.9
		c0.3-0.5-0.1-1.1-1.3-1.7c-1.1-0.7-1.8-0.8-2.1-0.3c-0.3,0.5,0.1,1,1.3,1.7C30,50.3,30.8,50.4,31,49.9z"/>
	<path d="M33.2,47.2c-0.2,0.3-0.6,0.5-1.1,0.5c-0.5,0-1.1-0.2-1.7-0.6c-0.6-0.4-1.1-0.8-1.3-1.2c-0.3-0.4-0.3-0.8-0.1-1.2
		c0.2-0.4,0.6-0.5,1.1-0.5c0.5,0,1.1,0.2,1.7,0.6c0.6,0.4,1.1,0.8,1.3,1.2C33.4,46.4,33.4,46.8,33.2,47.2z M32.8,47
		c0.3-0.5-0.1-1.1-1.3-1.7c-1.1-0.7-1.8-0.8-2.1-0.3c-0.3,0.5,0.1,1,1.3,1.7C31.8,47.3,32.5,47.4,32.8,47z"/>
</g>
<g class="st0">
	<path d="M37.6,41.3l-0.4-0.4c0.4-0.1,0.7-0.2,0.8-0.4c0.2-0.2,0.3-0.4,0.3-0.6c0-0.2-0.1-0.5-0.3-0.7c-0.4-0.5-0.9-0.5-1.5,0
		l-0.2,0.1l-0.3-0.3l0.1-0.1c0.5-0.5,0.6-0.9,0.2-1.4c-0.3-0.4-0.7-0.4-1-0.1c-0.2,0.2-0.4,0.4-0.5,0.8l-0.4-0.4
		c0.2-0.3,0.3-0.5,0.6-0.7c0.6-0.5,1.2-0.5,1.6,0c0.4,0.4,0.4,0.9,0.1,1.4c0.6-0.3,1.1-0.2,1.5,0.3c0.3,0.3,0.4,0.7,0.4,1
		c0,0.4-0.2,0.7-0.5,0.9C38.2,41,37.9,41.1,37.6,41.3z"/>
	<path d="M40.1,39.1l-0.4-0.4c-0.2-0.4-0.2-1-0.2-1.7l0-0.4c0-0.6-0.1-1-0.4-1.3C39,35.1,38.9,35,38.7,35c-0.2,0-0.4,0-0.6,0.2
		c-0.2,0.2-0.4,0.5-0.5,0.9l-0.4-0.4c0.1-0.4,0.3-0.7,0.6-0.9c0.3-0.2,0.6-0.4,0.9-0.3c0.3,0,0.6,0.2,0.9,0.5
		c0.2,0.2,0.3,0.4,0.4,0.7c0.1,0.2,0.1,0.6,0,1l0,0.3c0,0.6,0,1.1,0.2,1.4l1.3-1.1l0.4,0.4L40.1,39.1z"/>
	<path d="M43.8,36.1c-0.3,0.3-0.7,0.3-1.2,0.1c-0.5-0.2-1-0.5-1.5-1.1c-0.5-0.6-0.8-1.1-0.9-1.6c-0.1-0.5,0-0.9,0.3-1.2
		c0.3-0.3,0.7-0.3,1.2-0.2c0.5,0.2,1,0.5,1.4,1.1c0.5,0.6,0.8,1.1,0.9,1.6C44.2,35.4,44.1,35.8,43.8,36.1z M43.5,35.8
		c0.4-0.4,0.2-1.1-0.7-2.1c-0.9-1-1.5-1.3-1.9-0.9c-0.4,0.4-0.2,1,0.7,2C42.4,35.8,43.1,36.1,43.5,35.8z"/>
</g>
<g class="st0">
	<path d="M49.7,32l-0.2-0.5c0.4,0,0.7,0,0.9-0.1c0.2-0.1,0.4-0.3,0.5-0.5c0.1-0.2,0.1-0.5,0-0.7c-0.2-0.6-0.7-0.8-1.5-0.5l-0.2,0.1
		L49,29.4l0.2-0.1c0.7-0.3,0.9-0.7,0.7-1.3c-0.2-0.4-0.5-0.6-0.9-0.4c-0.2,0.1-0.5,0.3-0.7,0.6L48,27.8c0.2-0.2,0.5-0.4,0.8-0.5
		c0.7-0.3,1.3-0.1,1.5,0.5c0.2,0.5,0.1,1-0.3,1.4c0.7-0.1,1.1,0.2,1.3,0.8c0.2,0.4,0.2,0.8,0,1.1c-0.1,0.3-0.4,0.6-0.8,0.7
		C50.4,31.9,50.1,32,49.7,32z"/>
	<path d="M54.3,30.2L53.8,29l-1.6,0.7L52,29.2l0.6-3.3l0.5-0.2l1.1,2.6l0.5-0.2l0.2,0.5l-0.5,0.2l0.5,1.2L54.3,30.2z M52.4,29
		l1.2-0.5l-0.8-1.9L52.4,29z"/>
	<path d="M57.2,29.1c-0.4,0.2-0.8,0.1-1.2-0.3c-0.4-0.3-0.7-0.8-1-1.5c-0.3-0.7-0.4-1.3-0.3-1.8c0.1-0.5,0.3-0.8,0.7-1
		c0.4-0.2,0.8-0.1,1.2,0.2c0.4,0.3,0.7,0.8,1,1.5c0.3,0.7,0.4,1.3,0.3,1.8C57.8,28.6,57.6,29,57.2,29.1z M57,28.7
		c0.5-0.2,0.5-0.9,0-2.2c-0.5-1.2-1-1.7-1.5-1.5c-0.5,0.2-0.5,0.9,0,2.1C56,28.4,56.5,28.9,57,28.7z"/>
</g>
<g>
	<path d="M69.5,74.8c-2.1,0-3.7-1.7-3.7-3.7c0-2.1,1.7-3.7,3.7-3.7c2.1,0,3.7,1.7,3.7,3.7C73.3,73.2,71.6,74.8,69.5,74.8z
		 M69.5,68.1c-1.7,0-3,1.4-3,3c0,1.7,1.4,3,3,3c1.7,0,3-1.4,3-3C72.5,69.4,71.2,68.1,69.5,68.1z"/>
</g>
<g>
	<g>
		<g>
			<path d="M103.6,68.1c0.5,0.9,1,1.8,1,2.9c0,1-0.5,2-1.3,2.7c-0.1,0.1,0,0.2,0.1,0.1c0.7-0.7,1.2-1.5,1.3-2.5
				c0.1-1.2-0.5-2.3-1-3.3C103.7,67.9,103.6,68,103.6,68.1L103.6,68.1z"/>
		</g>
	</g>
</g>
<g>
	<path class="st1" d="M69.7,67.9c-1.8,0-3.2,1.4-3.2,3.2c0,1.8,1.4,3.2,3.2,3.2c1.8,0,3.2-1.4,3.2-3.2
		C72.9,69.3,71.5,67.9,69.7,67.9z M71,73.1c-0.5,0-0.9-0.4-0.9-0.9c0-0.5,0.4-0.9,0.9-0.9c0.5,0,0.9,0.4,0.9,0.9
		C71.9,72.7,71.5,73.1,71,73.1z"/>
</g>
</svg>
