<?xml version="1.0" encoding="utf-8"?>
<!-- Generator: Adobe Illustrator 24.0.1, SVG Export Plug-In . SVG Version: 6.00 Build 0)  -->
<svg version="1.1" id="Layer_1" xmlns="http://www.w3.org/2000/svg" xmlns:xlink="http://www.w3.org/1999/xlink" x="0px" y="0px"
	 viewBox="0 0 141.7 141.7" style="enable-background:new 0 0 141.7 141.7;" xml:space="preserve">
<style type="text/css">
	.st0{enable-background:new    ;}
	.st1{fill:#070707;}
	.st2{fill:#FFFFFF;}
</style>
<g id="Layer_1_1_">
</g>
<g id="Layer_1_2_">
</g>
<g id="Layer_1_3_">
</g>
<g id="Layer_1_4_">
</g>
<g id="Layer_1_5_">
</g>
<g id="Layer_3">
</g>
<g id="Layer_3_1_">
</g>
<g>
	<g>
		<path d="M70.1,129.1c-15.4,0-29.9-6-40.7-16.9S12.5,86.9,12.5,71.5s6-29.9,16.9-40.7c10.9-10.9,25.3-16.9,40.7-16.9
			c15.4,0,29.9,6,40.7,16.9c10.9,10.9,16.9,25.3,16.9,40.7s-6,29.9-16.9,40.7S85.5,129.1,70.1,129.1z M70.1,14.6
			c-15.2,0-29.5,5.9-40.2,16.7C19.1,42,13.2,56.3,13.2,71.5c0,15.2,5.9,29.5,16.7,40.2c10.7,10.7,25,16.7,40.2,16.7
			s29.5-5.9,40.2-16.7c10.7-10.7,16.7-25,16.7-40.2c0-15.2-5.9-29.5-16.7-40.2C99.6,20.5,85.3,14.6,70.1,14.6z"/>
	</g>
	<g>
		<path d="M69,119.3c-26.5,0-48.1-21.6-48.1-48.1c0-26.5,21.6-48.1,48.1-48.1s48.1,21.6,48.1,48.1C117.1,97.7,95.5,119.3,69,119.3z
			 M69,24c-26,0-47.2,21.2-47.2,47.2S43,118.4,69,118.4c26,0,47.2-21.2,47.2-47.2S95,24,69,24z"/>
	</g>
	<g>
		<path d="M69.8,124.3c-14.1,0-27.4-5.5-37.4-15.5S16.9,85.6,16.9,71.5s5.5-27.4,15.5-37.4s23.3-15.5,37.4-15.5s27.4,5.5,37.4,15.5
			s15.5,23.3,15.5,37.4s-5.5,27.4-15.5,37.4S83.9,124.3,69.8,124.3z M69.8,19.1c-14,0-27.1,5.4-37,15.3c-9.9,9.9-15.3,23-15.3,37
			s5.4,27.1,15.3,37c9.9,9.9,23,15.3,37,15.3s27.1-5.4,37-15.3c9.9-9.9,15.3-23,15.3-37s-5.4-27.1-15.3-37
			C96.9,24.6,83.8,19.1,69.8,19.1z"/>
	</g>
	<g>
		<g>
			<path d="M106.4,72.9c-0.1,0-0.1,0-0.2,0c0,0-0.1,0-0.1,0c-0.6,19.9-17,35.9-37,35.9c-19.7,0-35.9-15.5-37-35
				c-0.1,0-0.2-0.1-0.3-0.1c-0.1,0-0.1-0.1-0.2-0.1c0.9,19.9,17.4,35.7,37.4,35.7c20.3,0,36.9-16.3,37.5-36.5
				C106.4,72.9,106.4,72.9,106.4,72.9z"/>
		</g>
		<g>
			<path d="M69,34.9c19.5,0,35.5,15.1,36.9,34.2c0.1,0,0.3,0.1,0.3,0.1c0,0,0.1,0.1,0.1,0.1C105.1,49.9,88.8,34.4,69,34.4
				c-19.9,0-36.3,15.7-37.4,35.4c0.1-0.1,0.3-0.1,0.5-0.2C33.3,50.2,49.4,34.9,69,34.9z"/>
		</g>
	</g>
	<g>
		<g>
			<path d="M61.5,65.6C61.6,65.6,61.6,65.6,61.5,65.6c0.1,0,0.1,0,0.1,0c1.8-2.3,4.5-3.8,7.7-3.8c3.1,0,5.8,1.4,7.5,3.6
				c0.4,0,0.8-0.1,1.1,0c-1.9-2.7-5.1-4.5-8.7-4.5c-3.7,0-7,1.9-8.9,4.8c0.3-0.1,0.7-0.1,1-0.1C61.4,65.6,61.5,65.6,61.5,65.6z"/>
		</g>
		<g>
			<path d="M76.7,77.8c-1.8,2.1-4.5,3.4-7.4,3.4c-3.1,0-5.9-1.5-7.7-3.8c0,0-0.1,0-0.2,0c-0.4,0-0.7-0.1-1.1-0.2c1.9,3,5.2,5,9,5
				c3.6,0,6.7-1.8,8.6-4.5C77.5,77.8,77.1,77.8,76.7,77.8z"/>
		</g>
	</g>
	<g>
		<path d="M69.3,75.9c-2.6,0-4.7-2.1-4.7-4.7c0-2.6,2.1-4.7,4.7-4.7c2.6,0,4.7,2.1,4.7,4.7C74,73.8,71.9,75.9,69.3,75.9z M69.3,67.2
			c-2.2,0-4,1.8-4,4c0,2.2,1.8,4,4,4s4-1.8,4-4C73.3,69,71.5,67.2,69.3,67.2z"/>
	</g>
	<g>
		<g>
			<g>
				<path d="M60.8,24.5c0.4,3.5,0.9,7.1,1.6,10.6c0,0.1,0.2,0.1,0.2,0c-0.7-3.5-1.2-7-1.6-10.5C60.9,24.3,60.8,24.3,60.8,24.5
					L60.8,24.5z"/>
			</g>
		</g>
	</g>
	<g>
		<g>
			<g>
				<path d="M77.2,24.4c-0.7,3.5-1.5,7.1-2.2,10.6c0,0.1,0.1,0.2,0.2,0c0.7-3.5,1.5-7.1,2.2-10.6C77.4,24.4,77.2,24.3,77.2,24.4
					L77.2,24.4z"/>
			</g>
		</g>
	</g>
	<g>
		<g>
			<g>
				<path d="M92.8,30.2c-2,2.9-3.8,5.9-5.5,9c0,0.1,0.1,0.2,0.1,0.1c1.7-3.1,3.5-6.1,5.5-9C93,30.2,92.9,30.1,92.8,30.2L92.8,30.2z"
					/>
			</g>
		</g>
	</g>
	<g>
		<g>
			<g>
				<path d="M97.6,47.8c2.8-2.2,5.5-4.5,8.1-7.1c0.1-0.1,0-0.2-0.1-0.1c-2.5,2.5-5.2,4.9-8,7C97.4,47.7,97.5,47.9,97.6,47.8
					L97.6,47.8z"/>
			</g>
		</g>
	</g>
	<g>
		<g>
			<g>
				<path d="M104,59.1c3.3-1.2,6.5-2.4,9.8-3.7c0.1,0,0.1-0.2,0-0.2c-3.2,1.3-6.5,2.5-9.8,3.7C103.8,58.9,103.9,59.1,104,59.1
					L104,59.1z"/>
			</g>
		</g>
	</g>
	<g>
		<g>
			<g>
				<path d="M106.3,71.6c1.7,0,3.4,0,5-0.1c1.7-0.1,3.4-0.3,5.2-0.1c0.1,0,0.2-0.2,0-0.2c-1.6-0.2-3.2-0.1-4.8,0
					c-1.8,0.1-3.7,0.2-5.5,0.1C106.2,71.5,106.2,71.6,106.3,71.6L106.3,71.6z"/>
			</g>
		</g>
	</g>
	<g>
		<g>
			<g>
				<path d="M45.1,29.9c1.7,3.2,3.3,6.5,5.2,9.5c0.1,0.1,0.2,0,0.1-0.1c-2-3-3.5-6.3-5.2-9.5C45.2,29.7,45.1,29.8,45.1,29.9
					L45.1,29.9z"/>
			</g>
		</g>
	</g>
	<g>
		<g>
			<g>
				<path d="M32.5,40.9c2.5,2.4,5.1,4.8,7.8,7.1c0.1,0.1,0.2,0,0.1-0.1c-2.6-2.3-5.2-4.7-7.8-7.1C32.5,40.7,32.4,40.8,32.5,40.9
					L32.5,40.9z"/>
			</g>
		</g>
	</g>
	<g>
		<g>
			<g>
				<path d="M24.1,55.2c3.2,1.3,6.4,2.6,9.6,3.8c0.1,0,0.1-0.1,0-0.2c-3.2-1.2-6.4-2.5-9.6-3.8C24.1,55,24,55.2,24.1,55.2L24.1,55.2
					z"/>
			</g>
		</g>
	</g>
	<g>
		<g>
			<g>
				<path d="M21.4,71.7c3.5-0.1,7,0,10.5,0.1c0.1,0,0.1-0.2,0-0.2c-3.5-0.1-7-0.1-10.5-0.1C21.3,71.5,21.3,71.7,21.4,71.7L21.4,71.7
					z"/>
			</g>
		</g>
	</g>
	<g>
		<g>
			<g>
				<path d="M24.6,88.1c3-1.4,6.1-2.6,9.3-3.6c0.1,0,0.1-0.2,0-0.2c-3.2,1-6.3,2.3-9.3,3.7C24.4,88,24.5,88.2,24.6,88.1L24.6,88.1z"
					/>
			</g>
		</g>
	</g>
	<g>
		<g>
			<g>
				<path d="M32.3,101.9c0.1,0,0.1,0,0.2,0c0.1,0,0.1-0.2,0-0.2c-0.1,0-0.1,0-0.2,0C32.2,101.7,32.2,101.9,32.3,101.9L32.3,101.9z"
					/>
			</g>
		</g>
	</g>
	<g>
		<g>
			<g>
				<path d="M32.6,102c2.6-2.1,5.1-4.3,7.7-6.5c0.1-0.1,0-0.2-0.1-0.1c-2.6,2.1-5.1,4.3-7.7,6.5C32.4,102,32.5,102.1,32.6,102
					L32.6,102z"/>
			</g>
		</g>
	</g>
	<g>
		<g>
			<g>
				<path d="M45.6,112.6c1.4-3,3.5-5.6,4.7-8.6c0-0.1-0.1-0.1-0.2,0c-1.2,3-3.3,5.6-4.7,8.6C45.4,112.6,45.5,112.7,45.6,112.6
					L45.6,112.6z"/>
			</g>
		</g>
	</g>
	<g>
		<g>
			<g>
				<path d="M62.4,108.7c-0.7,3.1-1.3,6.2-1.7,9.3c0,0.1,0.1,0.2,0.2,0.1c0-0.1,0.1-0.2,0.1-0.2c0-0.1-0.1-0.2-0.1-0.1
					c0.6-1.2,0.6-3,0.8-4.4c0.3-1.6,0.6-3.1,1-4.6C62.6,108.6,62.4,108.6,62.4,108.7L62.4,108.7z"/>
			</g>
		</g>
	</g>
	<g>
		<g>
			<g>
				<path d="M75.6,108.7c0.3,1.7,0.6,3.4,0.9,5.1c0.1,0.8,0.3,1.6,0.4,2.4c0.1,0.6,0.1,1.4,0.4,1.9c0,0,0.1,0,0.1,0c0,0,0,0,0,0
					c0,0,0-0.1,0-0.1c0,0,0,0,0,0c-0.1-0.1-0.2,0-0.1,0.1c-0.1-0.1-0.2-1.3-0.2-1.4c0-0.3-0.1-0.6-0.2-0.9c-0.1-0.8-0.3-1.6-0.4-2.4
					c-0.3-1.5-0.5-3.1-0.8-4.6C75.8,108.6,75.6,108.6,75.6,108.7L75.6,108.7z"/>
			</g>
		</g>
	</g>
	<g>
		<g>
			<g>
				<path d="M87.7,104.1c1.4,2.8,3,5.5,4.5,8.2c0,0.1,0.2,0,0.1-0.1c-1.5-2.7-3.1-5.5-4.5-8.2C87.9,103.9,87.7,104,87.7,104.1
					L87.7,104.1z"/>
			</g>
		</g>
	</g>
	<g>
		<g>
			<g>
				<path d="M97.8,95.7c2.6,1.9,5,3.9,7.3,6.1c0.1,0.1,0.2,0,0.1-0.1c-2.3-2.2-4.8-4.2-7.4-6.1C97.8,95.5,97.7,95.6,97.8,95.7
					L97.8,95.7z"/>
			</g>
		</g>
	</g>
	<g>
		<g>
			<g>
				<path d="M104.3,84.2c3,1.3,6,2.6,9,3.7c0.1,0,0.1-0.1,0-0.2c-3-1.2-6-2.4-9-3.7C104.3,84,104.2,84.2,104.3,84.2L104.3,84.2z"/>
			</g>
		</g>
	</g>
	<g>
		<g>
			<g>
				<path d="M32,56.6c0.7,0.4,1.4,0.8,2.1,1.1c0.1,0,0.2-0.1,0.1-0.1c-0.7-0.4-1.4-0.8-2.1-1.1C32,56.4,31.9,56.5,32,56.6L32,56.6z"
					/>
			</g>
		</g>
	</g>
	<g>
		<g>
			<g>
				<path d="M32.5,55.2c0.7,0.4,1.5,0.8,2.2,1.2c0.1,0,0.2-0.1,0.1-0.1c-0.7-0.4-1.5-0.8-2.2-1.2C32.5,55,32.4,55.1,32.5,55.2
					L32.5,55.2z"/>
			</g>
		</g>
	</g>
	<g>
		<g>
			<g>
				<path d="M33.1,53.8c0.8,0.5,1.6,0.9,2.5,1.4c0.1,0,0.2-0.1,0.1-0.1c-0.8-0.5-1.6-0.9-2.5-1.4C33.1,53.6,33,53.8,33.1,53.8
					L33.1,53.8z"/>
			</g>
		</g>
	</g>
	<g>
		<g>
			<g>
				<path d="M33.8,52.7c0.7,0.4,1.5,0.8,2.2,1.2c0.1,0,0.2-0.1,0.1-0.1c-0.7-0.4-1.5-0.8-2.2-1.2C33.8,52.5,33.7,52.7,33.8,52.7
					L33.8,52.7z"/>
			</g>
		</g>
	</g>
	<g>
		<g>
			<g>
				<path d="M33.8,51.1c1,0.5,1.9,1,2.8,1.6c0.1,0.1,0.2-0.1,0.1-0.1c-0.9-0.6-1.9-1.1-2.8-1.6C33.8,51,33.7,51.1,33.8,51.1
					L33.8,51.1z"/>
			</g>
		</g>
	</g>
	<g>
		<g>
			<g>
				<path d="M35.2,50.5c0.7,0.4,1.4,0.8,2,1.3c0.1,0.1,0.2,0,0.1-0.1c-0.7-0.5-1.3-1-2.1-1.3C35.2,50.3,35.2,50.4,35.2,50.5
					L35.2,50.5z"/>
			</g>
		</g>
	</g>
	<g>
		<g>
			<g>
				<path d="M36.1,49.3c0.7,0.5,1.4,1,2.1,1.5c0.1,0.1,0.2,0,0.1-0.1c-0.7-0.6-1.4-1.1-2.1-1.6C36.1,49.1,36,49.3,36.1,49.3
					L36.1,49.3z"/>
			</g>
		</g>
	</g>
	<g>
		<g>
			<g>
				<path d="M37,48.2c0.6,0.6,1.2,1.1,1.9,1.5c0.1,0,0.2-0.1,0.1-0.1c-0.7-0.4-1.3-0.9-1.8-1.5C37.1,48,36.9,48.1,37,48.2L37,48.2z"
					/>
			</g>
		</g>
	</g>
	<g>
		<g>
			<g>
				<path d="M37.8,47.2c0.6,0.6,1.2,1.2,1.9,1.7c0.1,0.1,0.2,0,0.1-0.1c-0.7-0.5-1.3-1.1-1.9-1.7C37.9,47,37.7,47.1,37.8,47.2
					L37.8,47.2z"/>
			</g>
		</g>
	</g>
	<g>
		<g>
			<g>
				<path d="M39.6,44.8c0.5,0.6,1.1,1.2,1.6,1.8c0.1,0.1,0.2,0,0.1-0.1c-0.5-0.6-1.1-1.2-1.6-1.8C39.7,44.5,39.6,44.7,39.6,44.8
					L39.6,44.8z"/>
			</g>
		</g>
	</g>
	<g>
		<g>
			<g>
				<path d="M40.3,43.8c0.6,0.7,1.2,1.3,1.8,2c0.1,0.1,0.2,0,0.1-0.1c-0.6-0.7-1.2-1.3-1.8-2C40.4,43.5,40.3,43.7,40.3,43.8
					L40.3,43.8z"/>
			</g>
		</g>
	</g>
	<g>
		<g>
			<g>
				<path d="M41.6,42.9c0.5,0.6,1,1.3,1.5,1.9c0.1,0.1,0.2,0,0.1-0.1c-0.5-0.6-1-1.3-1.5-1.9C41.6,42.7,41.5,42.9,41.6,42.9
					L41.6,42.9z"/>
			</g>
		</g>
	</g>
	<g>
		<g>
			<g>
				<path d="M42.4,42c0.6,0.7,1.1,1.3,1.7,2c0.1,0.1,0.2,0,0.1-0.1c-0.6-0.7-1.1-1.3-1.7-2C42.5,41.8,42.4,41.9,42.4,42L42.4,42z"/>
			</g>
		</g>
	</g>
	<g>
		<g>
			<g>
				<path d="M42.6,40.3c0.8,1,1.5,1.9,2.3,2.9c0.1,0.1,0.2,0,0.1-0.1c-0.8-1-1.5-1.9-2.3-2.9C42.7,40.1,42.5,40.2,42.6,40.3
					L42.6,40.3z"/>
			</g>
		</g>
	</g>
	<g>
		<g>
			<g>
				<path d="M44.5,40.3c0.4,0.7,0.8,1.3,1.4,1.9c0.1,0.1,0.2,0,0.1-0.1c-0.5-0.6-1-1.2-1.3-1.9C44.6,40.1,44.5,40.2,44.5,40.3
					L44.5,40.3z"/>
			</g>
		</g>
	</g>
	<g>
		<g>
			<g>
				<path d="M45.7,39.4c0.4,0.7,0.8,1.3,1.2,1.9c0.1,0.1,0.2,0,0.1-0.1c-0.5-0.6-0.9-1.3-1.2-1.9C45.8,39.2,45.7,39.3,45.7,39.4
					L45.7,39.4z"/>
			</g>
		</g>
	</g>
	<g>
		<g>
			<g>
				<path d="M46.9,38.4c0.5,0.7,1,1.5,1.4,2.2c0.1,0.1,0.2,0,0.1-0.1c-0.5-0.7-1-1.5-1.4-2.2C46.9,38.2,46.8,38.3,46.9,38.4
					L46.9,38.4z"/>
			</g>
		</g>
	</g>
	<g>
		<g>
			<g>
				<path d="M47.9,37.7c0.4,0.8,0.8,1.6,1.2,2.4c0,0.1,0.2,0,0.1-0.1c-0.4-0.8-0.8-1.6-1.2-2.4C48,37.5,47.8,37.6,47.9,37.7
					L47.9,37.7z"/>
			</g>
		</g>
	</g>
	<g>
		<g>
			<g>
				<path d="M50.2,36.3c0.4,0.8,0.9,1.6,1.3,2.4c0,0.1,0.2,0,0.1-0.1c-0.4-0.8-0.9-1.6-1.3-2.4C50.3,36.1,50.1,36.2,50.2,36.3
					L50.2,36.3z"/>
			</g>
		</g>
	</g>
	<g>
		<g>
			<g>
				<path d="M51.5,35.7c0.3,0.6,0.5,1.1,0.7,1.7c0.1,0.3,0.2,0.8,0.6,0.9c0,0,0.1,0,0.1,0c0,0,0,0,0,0c0,0,0-0.1,0-0.1c0,0,0,0,0,0
					c0,0-0.1,0-0.1,0c0,0,0,0,0,0c-0.1,0,0,0.2,0.1,0.1c0,0-1.1-2.4-1.2-2.6C51.7,35.5,51.5,35.6,51.5,35.7L51.5,35.7z"/>
			</g>
		</g>
	</g>
	<g>
		<g>
			<g>
				<path d="M52.8,35.2c0.4,0.8,0.8,1.6,1.2,2.4c0,0.1,0.2,0,0.1-0.1c-0.4-0.8-0.8-1.6-1.2-2.4C52.9,35,52.7,35.1,52.8,35.2
					L52.8,35.2z"/>
			</g>
		</g>
	</g>
	<g>
		<g>
			<g>
				<path d="M53.9,34.6c0.4,0.8,0.8,1.5,1.1,2.3c0,0.1,0.2,0,0.1-0.1c-0.4-0.8-0.8-1.5-1.1-2.3C54,34.5,53.8,34.6,53.9,34.6
					L53.9,34.6z"/>
			</g>
		</g>
	</g>
	<g>
		<g>
			<g>
				<path d="M54.9,33.1c0.5,1.2,1,2.4,1.4,3.5c0,0.1,0.2,0,0.2,0c-0.5-1.2-1-2.4-1.4-3.5C55.1,32.9,54.9,32.9,54.9,33.1L54.9,33.1z"
					/>
			</g>
		</g>
	</g>
	<g>
		<g>
			<g>
				<path d="M56.9,33.7C56.9,33.7,56.9,33.7,56.9,33.7c0-0.1-0.1,0-0.2,0c0.2,0.8,0.4,1.7,0.7,2.5c0,0.1,0.2,0.1,0.2,0
					C57.3,35.3,57.1,34.5,56.9,33.7c0-0.2-0.2-0.2-0.2-0.1c0,0,0,0,0,0.1C56.7,33.8,56.9,33.8,56.9,33.7L56.9,33.7z"/>
			</g>
		</g>
	</g>
	<g>
		<g>
			<g>
				<path d="M58.2,33.4c0.1,0.8,0.3,1.7,0.5,2.5c0,0.1,0.2,0.1,0.2,0c-0.2-0.8-0.4-1.6-0.5-2.5C58.3,33.2,58.2,33.2,58.2,33.4
					L58.2,33.4z"/>
			</g>
		</g>
	</g>
	<g>
		<g>
			<g>
				<path d="M59.4,32.9c0.2,0.9,0.5,1.7,0.7,2.6c0,0.1,0.2,0.1,0.2,0c-0.2-0.9-0.5-1.7-0.7-2.6C59.5,32.7,59.3,32.8,59.4,32.9
					L59.4,32.9z"/>
			</g>
		</g>
	</g>
	<g>
		<g>
			<g>
				<path d="M60.6,32.4c0.2,1,0.4,2,0.7,3c0,0.1,0.2,0.1,0.2,0c-0.2-1-0.4-2-0.7-3C60.8,32.2,60.6,32.3,60.6,32.4L60.6,32.4z"/>
			</g>
		</g>
	</g>
	<g>
		<g>
			<g>
				<path d="M63.5,31.9c0,1,0.2,2,0.3,3c0,0.1,0.2,0.1,0.2,0c-0.2-1-0.3-1.9-0.3-2.9C63.7,31.8,63.5,31.8,63.5,31.9L63.5,31.9z"/>
			</g>
		</g>
	</g>
	<g>
		<g>
			<g>
				<path d="M65,31.8c0,1,0.1,1.9,0.1,2.9c0,0.1,0.2,0.1,0.2,0c0-1-0.1-1.9-0.1-2.9C65.1,31.7,65,31.7,65,31.8L65,31.8z"/>
			</g>
		</g>
	</g>
	<g>
		<g>
			<g>
				<path d="M66.3,31.8c-0.1,1-0.1,1.9-0.1,2.9c0,0.1,0.2,0.1,0.2,0c0-1,0-1.9,0.1-2.9C66.5,31.6,66.3,31.6,66.3,31.8L66.3,31.8z"/>
			</g>
		</g>
	</g>
	<g>
		<g>
			<g>
				<path d="M67.4,31.5c0,1,0.1,1.9,0.1,2.9c0,0.1,0.2,0.1,0.2,0c0-1-0.1-1.9-0.1-2.9C67.5,31.3,67.4,31.3,67.4,31.5L67.4,31.5z"/>
			</g>
		</g>
	</g>
	<g>
		<g>
			<g>
				<path d="M69,30.3c-0.1,1.4-0.1,2.8-0.2,4.1c0,0.1,0.2,0.1,0.2,0c0.1-1.4,0.1-2.8,0.2-4.1C69.2,30.2,69,30.2,69,30.3L69,30.3z"/>
			</g>
		</g>
	</g>
	<g>
		<g>
			<g>
				<path d="M70.3,31.7c-0.1,0.9-0.1,1.8-0.1,2.7c0,0.1,0.2,0.1,0.2,0c0-0.9,0-1.8,0.1-2.7C70.5,31.5,70.4,31.5,70.3,31.7L70.3,31.7
					z"/>
			</g>
		</g>
	</g>
	<g>
		<g>
			<g>
				<path d="M71.7,31.7c-0.1,1-0.1,1.9-0.2,2.9c0,0.1,0.2,0.1,0.2,0c0.1-1,0.1-1.9,0.2-2.9C71.9,31.5,71.7,31.5,71.7,31.7L71.7,31.7
					z"/>
			</g>
		</g>
	</g>
	<g>
		<g>
			<g>
				<path d="M73.2,31.8c-0.1,0.9-0.1,1.8-0.2,2.7c0,0.1,0.2,0.1,0.2,0c0.1-0.9,0.1-1.8,0.2-2.7C73.4,31.7,73.2,31.7,73.2,31.8
					L73.2,31.8z"/>
			</g>
		</g>
	</g>
	<g>
		<g>
			<g>
				<path d="M74.4,32.2c-0.1,0.8-0.2,1.6-0.3,2.4c0,0.1,0.2,0.1,0.2,0c0.1-0.8,0.2-1.6,0.3-2.4C74.6,32.1,74.4,32.2,74.4,32.2
					L74.4,32.2z"/>
			</g>
		</g>
	</g>
	<g>
		<g>
			<g>
				<path d="M77.1,32.4c-0.2,0.9-0.3,1.8-0.5,2.7c0,0.1,0.1,0.2,0.2,0c0.2-0.9,0.3-1.8,0.5-2.7C77.3,32.4,77.2,32.3,77.1,32.4
					L77.1,32.4z"/>
			</g>
		</g>
	</g>
	<g>
		<g>
			<g>
				<path d="M78.5,32.9c-0.2,0.9-0.4,1.8-0.6,2.7c0,0,0.1,0,0.2,0c0-0.1,0-0.1,0.1-0.2c0.1-0.1-0.1-0.2-0.1-0.1
					c-0.1,0.2-0.1,0.1-0.1,0.3c0,0.1,0.1,0.1,0.2,0c0.2-0.9,0.4-1.8,0.6-2.7C78.8,32.8,78.6,32.8,78.5,32.9L78.5,32.9z"/>
			</g>
		</g>
	</g>
	<g>
		<g>
			<g>
				<path d="M79.9,33.4c-0.2,0.8-0.4,1.6-0.7,2.4c0,0.1,0.1,0.2,0.2,0c0.2-0.8,0.5-1.6,0.7-2.4C80.1,33.4,79.9,33.3,79.9,33.4
					L79.9,33.4z"/>
			</g>
		</g>
	</g>
	<g>
		<g>
			<g>
				<path d="M81.3,33.8c-0.2,0.8-0.4,1.7-0.7,2.5c0,0.1,0.1,0.2,0.1,0.1c0.3-0.8,0.6-1.6,0.7-2.5C81.5,33.7,81.3,33.7,81.3,33.8
					L81.3,33.8z"/>
			</g>
		</g>
	</g>
	<g>
		<g>
			<g>
				<path d="M83,32.9c-0.3,1.2-0.7,2.4-1.3,3.6c0,0.1,0.1,0.2,0.1,0.1c0.5-1.2,1-2.4,1.3-3.7C83.2,32.9,83,32.8,83,32.9L83,32.9z"/>
			</g>
		</g>
	</g>
	<g>
		<g>
			<g>
				<path d="M84,34.5c-0.3,0.9-0.7,1.8-1.2,2.6c0,0.1,0.1,0.2,0.1,0.1c0.5-0.9,0.9-1.8,1.2-2.7C84.2,34.4,84,34.4,84,34.5L84,34.5z"
					/>
			</g>
		</g>
	</g>
	<g>
		<g>
			<g>
				<path d="M85.2,35.3c-0.3,0.8-0.6,1.6-0.9,2.3c0,0.1,0.1,0.2,0.1,0.1c0.3-0.8,0.7-1.6,0.9-2.4C85.4,35.2,85.2,35.2,85.2,35.3
					L85.2,35.3z"/>
			</g>
		</g>
	</g>
	<g>
		<g>
			<g>
				<path d="M86.3,35.9c-0.3,0.8-0.7,1.6-1.1,2.3c0,0.1,0.1,0.2,0.1,0.1c0.4-0.8,0.8-1.6,1.1-2.4C86.6,35.8,86.4,35.8,86.3,35.9
					L86.3,35.9z"/>
			</g>
		</g>
	</g>
	<g>
		<g>
			<g>
				<path d="M87.5,36.6c-0.3,0.7-0.7,1.3-1.1,2c0,0.1,0.1,0.2,0.1,0.1c0.3-0.7,0.7-1.3,1.1-2C87.7,36.5,87.6,36.4,87.5,36.6
					L87.5,36.6z"/>
			</g>
		</g>
	</g>
	<g>
		<g>
			<g>
				<path d="M90,37.7c-0.5,0.8-1,1.6-1.4,2.3c-0.1,0.1,0.1,0.2,0.1,0.1c0.5-0.8,1-1.6,1.4-2.3C90.2,37.6,90.1,37.6,90,37.7L90,37.7z
					"/>
			</g>
		</g>
	</g>
	<g>
		<g>
			<g>
				<path d="M91.2,38.3c-0.4,0.8-1,1.6-1.6,2.3c-0.1,0.1,0,0.2,0.1,0.1c0.6-0.7,1.1-1.5,1.6-2.4C91.4,38.3,91.2,38.2,91.2,38.3
					L91.2,38.3z"/>
			</g>
		</g>
	</g>
	<g>
		<g>
			<g>
				<path d="M92.1,39.3c-0.4,0.8-0.9,1.5-1.5,2.1c-0.1,0.1,0,0.2,0.1,0.1c0.6-0.7,1.1-1.4,1.5-2.2C92.3,39.3,92.1,39.2,92.1,39.3
					L92.1,39.3z"/>
			</g>
		</g>
	</g>
	<g>
		<g>
			<g>
				<path d="M93.5,40.2c-0.7,0.6-1.3,1.3-1.8,2.1c-0.1,0.1,0,0.2,0.1,0.1c0.6-0.7,1.2-1.4,1.8-2.1C93.7,40.2,93.5,40.1,93.5,40.2
					L93.5,40.2z"/>
			</g>
		</g>
	</g>
	<g>
		<g>
			<g>
				<path d="M95.1,40.2c-0.8,0.9-1.6,1.8-2.5,2.7c-0.1,0.1,0,0.2,0.1,0.1c0.9-0.9,1.7-1.7,2.5-2.7C95.3,40.2,95.2,40.1,95.1,40.2
					L95.1,40.2z"/>
			</g>
		</g>
	</g>
	<g>
		<g>
			<g>
				<path d="M95.4,42c-0.6,0.6-1.1,1.2-1.7,1.9c-0.1,0.1,0,0.2,0.1,0.1c0.6-0.6,1.1-1.2,1.7-1.9C95.6,42,95.5,41.9,95.4,42L95.4,42z
					"/>
			</g>
		</g>
	</g>
	<g>
		<g>
			<g>
				<path d="M96.6,43c-0.6,0.6-1.2,1.2-1.7,1.8c-0.1,0.1,0,0.2,0.1,0.1c0.5-0.7,1.1-1.3,1.7-1.8C96.8,43,96.7,42.9,96.6,43L96.6,43z
					"/>
			</g>
		</g>
	</g>
	<g>
		<g>
			<g>
				<path d="M97.3,44c-0.5,0.5-1,1.1-1.5,1.6c-0.1,0.1,0,0.2,0.1,0.1c0.5-0.5,1-1,1.5-1.6C97.5,44.1,97.4,44,97.3,44L97.3,44z"/>
			</g>
		</g>
	</g>
	<g>
		<g>
			<g>
				<path d="M98.5,44.9c-0.6,0.5-1.3,1-1.9,1.6c-0.1,0.1,0,0.2,0.1,0.1c0.6-0.5,1.3-1,1.9-1.6C98.7,45,98.6,44.8,98.5,44.9
					L98.5,44.9z"/>
			</g>
		</g>
	</g>
	<g>
		<g>
			<g>
				<path d="M100.2,47c-0.6,0.5-1.1,1.1-1.7,1.6c-0.1,0.1,0,0.2,0.1,0.1c0.6-0.5,1.1-1.1,1.7-1.6C100.4,47.1,100.3,46.9,100.2,47
					L100.2,47z"/>
			</g>
		</g>
	</g>
	<g>
		<g>
			<g>
				<path d="M99.2,49.8c0.7-0.6,1.5-1.1,2.2-1.7c0.1-0.1,0-0.2-0.1-0.1c-0.7,0.6-1.5,1.1-2.2,1.7C99,49.7,99.1,49.8,99.2,49.8
					L99.2,49.8z"/>
			</g>
		</g>
	</g>
	<g>
		<g>
			<g>
				<path d="M99.9,50.9c0.7-0.5,1.4-1,2.1-1.5c0.1-0.1,0-0.2-0.1-0.1c-0.7,0.5-1.5,1-2.2,1.5C99.7,50.8,99.8,51,99.9,50.9L99.9,50.9
					z"/>
			</g>
		</g>
	</g>
	<g>
		<g>
			<g>
				<path d="M100.5,51.6C100.5,51.6,100.5,51.6,100.5,51.6c-0.1,0-0.1,0-0.1,0c0,0.1,0,0.1,0,0.2c0,0,0,0.1,0.1,0.1
					c0.3,0,0.8-0.4,1-0.6c0.5-0.3,1-0.6,1.4-0.9c0.1-0.1,0-0.2-0.1-0.1c-0.4,0.3-0.8,0.5-1.2,0.8c-0.2,0.1-0.4,0.2-0.6,0.4
					c-0.1,0-0.5,0.4-0.6,0.4C100.6,51.8,100.6,51.6,100.5,51.6L100.5,51.6z"/>
			</g>
		</g>
	</g>
	<g>
		<g>
			<g>
				<path d="M101.1,53.2c1.2-0.6,2.4-1.4,3.6-2.1c0.1-0.1,0-0.2-0.1-0.1c-1.1,0.8-2.4,1.5-3.6,2.1C100.9,53.1,101,53.2,101.1,53.2
					L101.1,53.2z"/>
			</g>
		</g>
	</g>
	<g>
		<g>
			<g>
				<path d="M101.8,54c1-0.4,1.9-0.9,2.8-1.3c0.1,0,0-0.2-0.1-0.1c-1,0.4-1.9,0.9-2.8,1.3C101.6,53.9,101.7,54.1,101.8,54L101.8,54z
					"/>
			</g>
		</g>
	</g>
	<g>
		<g>
			<g>
				<path d="M102.4,55.5c1-0.4,1.9-0.9,2.8-1.3c0.1,0,0-0.2-0.1-0.1c-1,0.4-1.9,0.9-2.8,1.3C102.3,55.5,102.3,55.6,102.4,55.5
					L102.4,55.5z"/>
			</g>
		</g>
	</g>
	<g>
		<g>
			<g>
				<path d="M103.2,56.3c0.8-0.3,1.6-0.7,2.4-1c0.1,0,0-0.2,0-0.2c-0.8,0.3-1.6,0.7-2.4,1C103.1,56.2,103.1,56.4,103.2,56.3
					L103.2,56.3z"/>
			</g>
		</g>
	</g>
	<g>
		<g>
			<g>
				<path d="M103.4,57.7c0.8-0.4,1.7-0.7,2.5-1c0.1,0,0.1-0.2,0-0.2c-0.9,0.3-1.7,0.6-2.6,1C103.2,57.6,103.3,57.8,103.4,57.7
					L103.4,57.7z"/>
			</g>
		</g>
	</g>
	<g>
		<g>
			<g>
				<path d="M104.4,60c0.8-0.3,1.6-0.6,2.5-0.7c0.1,0,0.1-0.2,0-0.2c-0.9,0.1-1.7,0.4-2.5,0.7C104.3,59.9,104.3,60,104.4,60
					L104.4,60z"/>
			</g>
		</g>
	</g>
	<g>
		<g>
			<g>
				<path d="M104.8,61.4c0.9-0.3,1.8-0.5,2.7-0.7c0.1,0,0.1-0.2,0-0.2c-0.9,0.2-1.8,0.4-2.7,0.7C104.6,61.3,104.7,61.5,104.8,61.4
					L104.8,61.4z"/>
			</g>
		</g>
	</g>
	<g>
		<g>
			<g>
				<path d="M105.2,62.7c0.9-0.1,1.7-0.3,2.5-0.5c0.1,0,0.1-0.2,0-0.2c-0.8,0.2-1.7,0.4-2.5,0.5C105,62.5,105.1,62.7,105.2,62.7
					L105.2,62.7z"/>
			</g>
		</g>
	</g>
	<g>
		<g>
			<g>
				<path d="M105.5,63.9c0.9-0.2,1.8-0.3,2.7-0.5c0.1,0,0.1-0.2,0-0.2c-0.9,0.2-1.8,0.3-2.7,0.5C105.3,63.8,105.4,63.9,105.5,63.9
					L105.5,63.9z"/>
			</g>
		</g>
	</g>
	<g>
		<g>
			<g>
				<path d="M105.9,65.1c1.2-0.2,2.4-0.4,3.5-0.6c0.1,0,0.1-0.2,0-0.2c-1.2,0.2-2.4,0.4-3.5,0.6C105.8,64.9,105.8,65.1,105.9,65.1
					L105.9,65.1z"/>
			</g>
		</g>
	</g>
	<g>
		<g>
			<g>
				<path d="M105.9,66.3c0.9-0.2,1.8-0.3,2.7-0.3c0.1,0,0.1-0.2,0-0.2c-1,0-1.9,0.1-2.8,0.3C105.7,66.1,105.8,66.3,105.9,66.3
					L105.9,66.3z"/>
			</g>
		</g>
	</g>
	<g>
		<g>
			<g>
				<path d="M106.1,67.8c0.8-0.1,1.6-0.2,2.5-0.3c0.1,0,0.1-0.2,0-0.2c-0.8,0.1-1.6,0.2-2.5,0.3C106,67.6,106,67.8,106.1,67.8
					L106.1,67.8z"/>
			</g>
		</g>
	</g>
	<g>
		<g>
			<g>
				<path d="M106.2,68.8c0.2,0.3,0.5,0.3,0.8,0.2c0.7,0,1.4-0.1,2-0.2c0.1,0,0.1-0.2,0-0.2c-0.4,0-0.9,0.1-1.3,0.1
					c-0.3,0-1.2,0.2-1.4-0.1C106.2,68.6,106.1,68.7,106.2,68.8L106.2,68.8z"/>
			</g>
		</g>
	</g>
	<g>
		<g>
			<g>
				<path d="M106.4,72.9c0.8-0.2,1.7-0.2,2.5-0.1c0.1,0,0.1-0.2,0-0.2c-0.9-0.1-1.7,0-2.6,0.1C106.3,72.8,106.3,73,106.4,72.9
					L106.4,72.9z"/>
			</g>
		</g>
	</g>
	<g>
		<g>
			<g>
				<path d="M106.2,74.3c0.9-0.1,1.8-0.1,2.7,0c0.1,0,0.1-0.2,0-0.2c-0.9-0.1-1.8-0.1-2.7,0C106.1,74.1,106.1,74.3,106.2,74.3
					L106.2,74.3z"/>
			</g>
		</g>
	</g>
	<g>
		<g>
			<g>
				<path d="M106,75.7c0.9,0,1.8,0,2.7,0c0.1,0,0.1-0.2,0-0.2c-0.9,0-1.8,0-2.7,0C105.9,75.5,105.9,75.7,106,75.7L106,75.7z"/>
			</g>
		</g>
	</g>
	<g>
		<g>
			<g>
				<path d="M105.9,77.4c0.1,0,0.1-0.2,0-0.2S105.8,77.4,105.9,77.4L105.9,77.4z"/>
			</g>
		</g>
	</g>
	<g>
		<g>
			<g>
				<path d="M106,76.9c0.9,0,1.8,0.1,2.7,0.2c0.1,0,0.1-0.2,0-0.2c-0.9,0-1.8-0.1-2.7-0.2C105.9,76.7,105.9,76.9,106,76.9L106,76.9z
					"/>
			</g>
		</g>
	</g>
	<g>
		<g>
			<g>
				<path d="M106,78.4c1.2,0.1,2.4,0.2,3.7,0.3c0.1,0,0.1-0.2,0-0.2c-1.2-0.1-2.4-0.2-3.7-0.3C105.9,78.2,105.9,78.4,106,78.4
					L106,78.4z"/>
			</g>
		</g>
	</g>
	<g>
		<g>
			<g>
				<path d="M105.6,79.6c0.9,0.1,1.8,0.1,2.8,0.2c0.1,0,0.1-0.2,0-0.2c-0.9-0.1-1.8-0.1-2.8-0.2C105.5,79.5,105.5,79.6,105.6,79.6
					L105.6,79.6z"/>
			</g>
		</g>
	</g>
	<g>
		<g>
			<g>
				<path d="M105.2,80.9c0.9,0.1,1.8,0.3,2.7,0.5c0.1,0,0.2-0.1,0-0.2c-0.9-0.2-1.8-0.4-2.7-0.5C105.2,80.7,105.1,80.9,105.2,80.9
					L105.2,80.9z"/>
			</g>
		</g>
	</g>
	<g>
		<g>
			<g>
				<path d="M104.9,82.1c0.9,0.3,1.8,0.5,2.7,0.8c0.1,0,0.2-0.1,0-0.2c-0.9-0.3-1.8-0.5-2.7-0.8C104.8,81.9,104.8,82,104.9,82.1
					L104.9,82.1z"/>
			</g>
		</g>
	</g>
	<g>
		<g>
			<g>
				<path d="M104.6,83.4c0.9,0.2,1.7,0.6,2.4,1c0.1,0,0.2-0.1,0.1-0.1c-0.8-0.4-1.6-0.7-2.5-1C104.5,83.2,104.5,83.3,104.6,83.4
					L104.6,83.4z"/>
			</g>
		</g>
	</g>
	<g>
		<g>
			<g>
				<path d="M103.8,85.6c0.8,0.3,1.7,0.6,2.4,1c0.1,0,0.2-0.1,0.1-0.1c-0.8-0.4-1.6-0.7-2.5-1C103.8,85.4,103.7,85.6,103.8,85.6
					L103.8,85.6z"/>
			</g>
		</g>
	</g>
	<g>
		<g>
			<g>
				<path d="M103.3,86.7c0.9,0.3,1.8,0.6,2.6,1c0.1,0,0.2-0.1,0.1-0.1c-0.8-0.4-1.7-0.7-2.6-1C103.2,86.5,103.1,86.7,103.3,86.7
					L103.3,86.7z"/>
			</g>
		</g>
	</g>
	<g>
		<g>
			<g>
				<path d="M102.5,88.3c0.9,0.3,1.7,0.6,2.5,1c0.1,0,0.2-0.1,0.1-0.1c-0.8-0.5-1.6-0.8-2.5-1.1C102.5,88.1,102.4,88.2,102.5,88.3
					L102.5,88.3z"/>
			</g>
		</g>
	</g>
	<g>
		<g>
			<g>
				<path d="M102.2,89.5c0.6,0.3,1.3,0.5,1.9,0.8c0.1,0,0.1-0.1,0-0.2c-0.6-0.3-1.3-0.5-1.9-0.8C102.2,89.3,102.1,89.5,102.2,89.5
					L102.2,89.5z"/>
			</g>
		</g>
	</g>
	<g>
		<g>
			<g>
				<path d="M101.5,90.5c1,0.4,1.9,0.9,2.7,1.7c0.1,0.1,0.2,0,0.1-0.1c-0.8-0.7-1.7-1.3-2.8-1.7C101.4,90.3,101.4,90.5,101.5,90.5
					L101.5,90.5z"/>
			</g>
		</g>
	</g>
	<g>
		<g>
			<g>
				<path d="M100.9,91.6c0.6,0.5,1.2,0.9,1.8,1.4c0.1,0.1,0.2-0.1,0.1-0.1c-0.6-0.5-1.2-0.9-1.8-1.4
					C100.9,91.4,100.8,91.5,100.9,91.6L100.9,91.6z"/>
			</g>
		</g>
	</g>
	<g>
		<g>
			<g>
				<path d="M100.2,92.7c0.7,0.4,1.2,0.8,1.8,1.4c0.1,0.1,0.2,0,0.1-0.1c-0.5-0.6-1.1-1-1.8-1.4C100.2,92.5,100.1,92.7,100.2,92.7
					L100.2,92.7z"/>
			</g>
		</g>
	</g>
	<g>
		<g>
			<g>
				<path d="M99.4,93.7c0.6,0.5,1.2,1,1.8,1.5c0.1,0.1,0.2,0,0.1-0.1c-0.6-0.5-1.2-1-1.8-1.5C99.5,93.5,99.4,93.6,99.4,93.7
					L99.4,93.7z"/>
			</g>
		</g>
	</g>
	<g>
		<g>
			<g>
				<path d="M98.5,94.9c0.7,0.3,1.3,0.7,1.8,1.2c0.1,0.1,0.2,0,0.1-0.1c-0.6-0.5-1.2-0.9-1.9-1.2C98.5,94.7,98.4,94.9,98.5,94.9
					L98.5,94.9z"/>
			</g>
		</g>
	</g>
	<g>
		<g>
			<g>
				<path d="M88.8,103.5c0.5,0.8,0.9,1.6,1.4,2.3c0,0.1,0.2,0,0.2-0.1c0-0.1,0-0.2-0.1-0.3c0-0.1-0.2-0.1-0.2,0c0,0.1,0,0.2,0.1,0.3
					c0,0,0.1,0,0.2-0.1c-0.5-0.8-0.9-1.6-1.4-2.3C88.9,103.4,88.8,103.5,88.8,103.5L88.8,103.5z"/>
			</g>
		</g>
	</g>
	<g>
		<g>
			<g>
				<path d="M90.1,102.8c0.4,0.7,0.9,1.4,1.3,2.1c0,0,0.1-0.1,0.1-0.1c0-0.1-0.1-0.2-0.2-0.3c-0.1-0.1-0.2,0-0.1,0.1
					c0,0.1,0.1,0.2,0.2,0.3c0.1,0.1,0.2,0,0.1-0.1c-0.4-0.7-0.9-1.4-1.3-2.1C90.2,102.6,90.1,102.7,90.1,102.8L90.1,102.8z"/>
			</g>
		</g>
	</g>
	<g>
		<g>
			<g>
				<path d="M91.5,102.2c0-0.2-0.1-0.3-0.2-0.3c-0.1,0-0.1,0.1-0.1,0.1c0.4,0.6,0.8,1.2,1.3,1.8c0.1,0.1,0.2,0,0.1-0.1
					c-0.4-0.6-0.9-1.1-1.3-1.7c0,0-0.1,0.1-0.1,0.1c0,0.1,0.1,0.1,0.1,0.2C91.3,102.3,91.5,102.3,91.5,102.2L91.5,102.2z"/>
			</g>
		</g>
	</g>
	<g>
		<g>
			<g>
				<path d="M92.1,101.3c0.5,0.6,0.9,1.2,1.4,1.8c0.1,0.1,0.2,0,0.1-0.1c-0.5-0.6-0.9-1.2-1.4-1.8C92.1,101.1,92,101.2,92.1,101.3
					L92.1,101.3z"/>
			</g>
		</g>
	</g>
	<g>
		<g>
			<g>
				<path d="M93,100.3c0.7,0.8,1.3,1.6,2,2.4c0.1,0.1,0.2,0,0.1-0.1c-0.7-0.8-1.3-1.6-2-2.4C93.1,100.1,92.9,100.2,93,100.3
					L93,100.3z"/>
			</g>
		</g>
	</g>
	<g>
		<g>
			<g>
				<path d="M94.1,99.7c0.4,0.6,0.8,1.1,1.3,1.6c0.1,0.1,0.2,0,0.1-0.1c-0.5-0.4-0.9-1-1.3-1.5C94.2,99.5,94.1,99.6,94.1,99.7
					L94.1,99.7z"/>
			</g>
		</g>
	</g>
	<g>
		<g>
			<g>
				<path d="M95.1,98.5c0.5,0.6,1,1.1,1.6,1.7c0.1,0.1,0.2,0,0.1-0.1c-0.6-0.5-1.1-1.1-1.6-1.7C95.1,98.3,95,98.4,95.1,98.5
					L95.1,98.5z"/>
			</g>
		</g>
	</g>
	<g>
		<g>
			<g>
				<path d="M96.2,97.6c0.4,0.5,0.9,1,1.3,1.6c0.1,0.1,0.2,0,0.1-0.1c-0.4-0.5-0.9-1-1.3-1.6C96.2,97.4,96.1,97.6,96.2,97.6
					L96.2,97.6z"/>
			</g>
		</g>
	</g>
	<g>
		<g>
			<g>
				<path d="M97,96.8c0.5,0.6,1.1,1.1,1.6,1.6c0.1,0.1,0.2,0,0.1-0.1c-0.6-0.5-1.1-1-1.6-1.6C97,96.6,96.9,96.7,97,96.8L97,96.8z"/>
			</g>
		</g>
	</g>
	<g>
		<g>
			<g>
				<path d="M81.8,106.9c0.4,1.1,0.9,2.3,1.3,3.4c0,0.1,0.2,0.1,0.2,0c0-0.1-0.1-0.2-0.1-0.3c0-0.1-0.2-0.1-0.2,0
					c0,0.1,0.1,0.2,0.1,0.3c0,0,0.1,0,0.2,0c-0.4-1.1-0.9-2.3-1.3-3.4C81.9,106.7,81.7,106.7,81.8,106.9L81.8,106.9z"/>
			</g>
		</g>
	</g>
	<g>
		<g>
			<g>
				<path d="M83.2,106.6c0.2,0.6,0.4,1.2,0.7,1.7c0,0.1,0.2,0,0.1-0.1c-0.2-0.5-0.4-1.1-0.6-1.7C83.3,106.5,83.1,106.6,83.2,106.6
					L83.2,106.6z"/>
			</g>
		</g>
	</g>
	<g>
		<g>
			<g>
				<path d="M84.4,106.2c0.3,0.6,0.6,1.2,0.8,1.8c0,0.1,0.2,0,0.1-0.1c-0.3-0.6-0.6-1.2-0.8-1.8C84.5,106,84.3,106.1,84.4,106.2
					L84.4,106.2z"/>
			</g>
		</g>
	</g>
	<g>
		<g>
			<g>
				<path d="M85.4,105.2c0.3,0.7,0.6,1.4,1,2.2c0,0.1,0.2,0,0.1-0.1c-0.3-0.7-0.6-1.4-1-2.2C85.6,105,85.4,105.1,85.4,105.2
					L85.4,105.2z"/>
			</g>
		</g>
	</g>
	<g>
		<g>
			<g>
				<path d="M86.7,104.9c0.2,0.8,0.6,1.5,1,2.2c0.1,0.1,0.2,0,0.1-0.1c-0.4-0.7-0.7-1.4-1-2.2C86.9,104.7,86.7,104.8,86.7,104.9
					L86.7,104.9z"/>
			</g>
		</g>
	</g>
	<g>
		<g>
			<g>
				<path d="M80.8,107.4c-0.2-0.1-0.3,0.1-0.3,0.3c0,0.3,0.2,0.6,0.3,0.8c0.1,0.3,0.2,0.7,0.3,1c0,0.1,0.2,0.1,0.2,0
					c-0.1-0.3-0.2-0.6-0.3-0.9c0-0.1-0.1-0.3-0.1-0.4c0,0-0.2-0.6-0.1-0.5C80.8,107.6,80.9,107.4,80.8,107.4L80.8,107.4z"/>
			</g>
		</g>
	</g>
	<g>
		<g>
			<g>
				<path d="M79.2,107.9c0.2,0.6,0.3,1.3,0.5,1.9c0,0.1,0.2,0.1,0.2,0c-0.2-0.6-0.3-1.3-0.5-1.9C79.4,107.8,79.2,107.8,79.2,107.9
					L79.2,107.9z"/>
			</g>
		</g>
	</g>
	<g>
		<g>
			<g>
				<path d="M77.9,108.2c0.2,0.7,0.3,1.4,0.6,2c0,0.1,0.2,0.1,0.2,0c-0.2-0.7-0.4-1.4-0.6-2C78,108,77.8,108,77.9,108.2L77.9,108.2z
					"/>
			</g>
		</g>
	</g>
	<g>
		<g>
			<g>
				<path d="M76.8,108.4c0.1,0.7,0.3,1.4,0.4,2.2c0,0.1,0.2,0.1,0.2,0c-0.1-0.7-0.3-1.4-0.4-2.2C77,108.3,76.8,108.3,76.8,108.4
					L76.8,108.4z"/>
			</g>
		</g>
	</g>
	<g>
		<g>
			<g>
				<path d="M74.2,109c0.1,0.7,0.2,1.4,0.3,2.1c0,0.1,0.2,0.1,0.2,0c-0.1-0.7-0.2-1.4-0.3-2.1C74.4,108.9,74.2,108.9,74.2,109
					L74.2,109z"/>
			</g>
		</g>
	</g>
	<g>
		<g>
			<g>
				<path d="M72.8,109.1c0,0.7,0.1,1.3,0.1,2c0,0.1,0.2,0.1,0.2,0c0-0.7-0.1-1.3-0.1-2C72.9,109,72.8,109,72.8,109.1L72.8,109.1z"/>
			</g>
		</g>
	</g>
	<g>
		<g>
			<g>
				<path d="M71.5,109.2c0,0.7,0,1.4,0,2.1c0,0.1,0.2,0.1,0.2,0c0-0.7,0-1.4,0-2.1C71.7,109.1,71.5,109.1,71.5,109.2L71.5,109.2z"/>
			</g>
		</g>
	</g>
	<g>
		<g>
			<g>
				<path d="M70,109.2c0,0.7,0,1.5,0,2.2c0,0.1,0.2,0.1,0.2,0c0-0.1,0-0.2,0-0.3c0-0.1-0.2-0.1-0.2,0c0,0.1,0,0.2,0,0.3
					c0,0.1,0.2,0.1,0.2,0c0-0.7,0-1.5,0-2.2C70.2,109.1,70,109.1,70,109.2L70,109.2z"/>
			</g>
		</g>
	</g>
	<g>
		<g>
			<g>
				<path d="M68.8,109.3c0,1,0,2.1,0,3.1c0,0.1,0.2,0.1,0.2,0c0-1,0-2.1,0-3.1C68.9,109.2,68.8,109.2,68.8,109.3L68.8,109.3z"/>
			</g>
		</g>
	</g>
	<g>
		<g>
			<g>
				<path d="M67.4,109.2c0,0.8,0.1,1.5,0,2.3c0,0.1,0.2,0.1,0.2,0c0-0.8,0-1.5,0-2.3C67.6,109.1,67.4,109.1,67.4,109.2L67.4,109.2z"
					/>
			</g>
		</g>
	</g>
	<g>
		<g>
			<g>
				<path d="M66,109.2c0,0.7-0.1,1.4-0.1,2.1c0,0.1,0.2,0.1,0.2,0c0-0.7,0.1-1.4,0.1-2.1C66.2,109.1,66,109.1,66,109.2L66,109.2z"/>
			</g>
		</g>
	</g>
	<g>
		<g>
			<g>
				<path d="M64.7,109.1c0,0.7-0.1,1.5-0.1,2.3c0,0.1,0.2,0.1,0.2,0c0-0.7,0.1-1.5,0.1-2.3C64.9,109,64.7,109,64.7,109.1L64.7,109.1
					z"/>
			</g>
		</g>
	</g>
	<g>
		<g>
			<g>
				<path d="M63.4,108.9c-0.1,0.7-0.1,1.4-0.2,2.2c0,0.1,0.2,0.1,0.2,0c0.1-0.7,0.1-1.4,0.2-2.2C63.6,108.8,63.4,108.8,63.4,108.9
					L63.4,108.9z"/>
			</g>
		</g>
	</g>
	<g>
		<g>
			<g>
				<path d="M60.9,108.5c-0.2,0.7-0.5,1.5-0.7,2.3c0,0.1,0.1,0.2,0.2,0c0.2-0.7,0.5-1.5,0.7-2.3C61.2,108.4,61,108.4,60.9,108.5
					L60.9,108.5z"/>
			</g>
		</g>
	</g>
	<g>
		<g>
			<g>
				<path d="M59.7,108.1c-0.2,0.6-0.4,1.3-0.7,1.9c0,0.1,0.1,0.1,0.2,0c0.3-0.6,0.5-1.2,0.7-1.9C59.9,108,59.7,108,59.7,108.1
					L59.7,108.1z"/>
			</g>
		</g>
	</g>
	<g>
		<g>
			<g>
				<path d="M58.6,108L58.6,108c0.1,0,0.1,0,0.1,0c0.1-0.2-0.1-0.3-0.3-0.1c-0.2,0.2-0.2,0.5-0.3,0.7c-0.1,0.4-0.3,0.7-0.5,1.1
					c0,0.1,0.1,0.2,0.1,0.1c0.1-0.2,0.8-1.9,0.8-2C58.5,107.8,58.5,108,58.6,108L58.6,108z"/>
			</g>
		</g>
	</g>
	<g>
		<g>
			<g>
				<path d="M57.2,107.5c-0.3,0.6-0.5,1.3-0.7,1.9c0,0.1,0.1,0.1,0.2,0c0.3-0.6,0.5-1.3,0.7-1.9C57.4,107.4,57.2,107.4,57.2,107.5
					L57.2,107.5z"/>
			</g>
		</g>
	</g>
	<g>
		<g>
			<g>
				<path d="M55.9,107c-0.4,1-0.8,2-1.3,3c0,0.1,0.1,0.2,0.1,0.1c0.5-1,0.9-2,1.3-3C56.1,107,56,106.9,55.9,107L55.9,107z"/>
			</g>
		</g>
	</g>
	<g>
		<g>
			<g>
				<path d="M54.8,106.4c-0.3,0.7-0.6,1.4-0.9,2.2c0,0.1,0.1,0.1,0.2,0c0.3-0.7,0.6-1.4,0.9-2.2C55,106.4,54.8,106.3,54.8,106.4
					L54.8,106.4z"/>
			</g>
		</g>
	</g>
	<g>
		<g>
			<g>
				<path d="M53.3,106.1c-0.2,0.6-0.4,1.1-0.7,1.7c0,0.1,0.1,0.2,0.1,0.1c0.3-0.6,0.5-1.1,0.7-1.7C53.4,106.1,53.3,106,53.3,106.1
					L53.3,106.1z"/>
			</g>
		</g>
	</g>
	<g>
		<g>
			<g>
				<path d="M52.3,105.4c-0.2,0.5-0.4,1.1-0.7,1.6c0,0.1,0.1,0.1,0.2,0c0.2-0.5,0.4-1.1,0.7-1.6C52.6,105.4,52.4,105.3,52.3,105.4
					L52.3,105.4z"/>
			</g>
		</g>
	</g>
	<g>
		<g>
			<g>
				<path d="M51.2,104.9c-0.3,0.7-0.7,1.3-1,2c0,0.1,0.1,0.2,0.1,0.1c0.3-0.7,0.7-1.3,1-2C51.4,104.9,51.2,104.8,51.2,104.9
					L51.2,104.9z"/>
			</g>
		</g>
	</g>
	<g>
		<g>
			<g>
				<path d="M48.8,103.4c-0.4,0.7-0.9,1.3-1.3,2c0,0,0.1,0.1,0.1,0.1c0-0.1,0.1-0.2,0.1-0.3c0-0.1-0.1-0.2-0.1-0.1
					c0,0.1-0.1,0.2-0.1,0.3c0,0.1,0.1,0.2,0.1,0.1c0.4-0.7,0.8-1.3,1.3-2C49,103.4,48.9,103.3,48.8,103.4L48.8,103.4z"/>
			</g>
		</g>
	</g>
	<g>
		<g>
			<g>
				<path d="M47.7,102.6c-0.3,0.7-0.8,1.3-1.2,1.9c-0.1,0.1,0,0.2,0.1,0.1c0.5-0.6,0.9-1.2,1.3-1.9
					C47.9,102.6,47.8,102.5,47.7,102.6L47.7,102.6z"/>
			</g>
		</g>
	</g>
	<g>
		<g>
			<g>
				<path d="M46.8,102c-0.4,0.5-0.8,1-1.2,1.5c-0.1,0.1,0.1,0.2,0.1,0.1c0.3-0.5,0.7-1,1.1-1.5C47,102.1,46.8,101.9,46.8,102
					L46.8,102z"/>
			</g>
		</g>
	</g>
	<g>
		<g>
			<g>
				<path d="M45.8,101.4c0.1-0.1,0.1-0.2,0.2-0.3c0.1-0.1-0.1-0.2-0.1-0.1c-0.5,0.5-0.9,1-1.4,1.5c-0.1,0.1,0,0.2,0.1,0.1
					c0.5-0.5,0.9-1,1.4-1.5c0,0-0.1-0.1-0.1-0.1c-0.1,0.1-0.1,0.2-0.2,0.3C45.6,101.4,45.8,101.5,45.8,101.4L45.8,101.4z"/>
			</g>
		</g>
	</g>
	<g>
		<g>
			<g>
				<path d="M44.7,100.1c-0.4,0.5-0.8,1-1.2,1.4c-0.2,0.2-0.4,0.4-0.5,0.7c-0.1,0.1-0.2,0.2-0.3,0.3c0,0-0.3,0.4-0.2,0.4
					c0.1,0,0.1-0.2,0-0.2c0,0,0,0,0,0c0,0-0.1,0.1-0.1,0.1c0,0,0,0,0,0c0,0,0.1,0.1,0.1,0.1c0.1,0,0.2-0.1,0.3-0.2
					c0.2-0.3,0.4-0.6,0.7-0.8c0.4-0.6,0.9-1.1,1.4-1.7C44.9,100.1,44.8,100,44.7,100.1L44.7,100.1z"/>
			</g>
		</g>
	</g>
	<g>
		<g>
			<g>
				<path d="M43.6,99.3c-0.4,0.6-0.9,1.1-1.3,1.7c-0.1,0.1,0.1,0.2,0.1,0.1c0.4-0.6,0.9-1.1,1.3-1.7C43.8,99.3,43.7,99.2,43.6,99.3
					L43.6,99.3z"/>
			</g>
		</g>
	</g>
	<g>
		<g>
			<g>
				<path d="M42.6,98.4c-0.4,0.7-0.8,1.3-1.3,1.9c-0.1,0.1,0,0.2,0.1,0.1c0.5-0.6,1-1.2,1.4-1.9C42.8,98.4,42.7,98.3,42.6,98.4
					L42.6,98.4z"/>
			</g>
		</g>
	</g>
	<g>
		<g>
			<g>
				<path d="M41.7,97.5c-0.1,0.1-1.6,1.7-1.6,1.7c0.1,0.1,0.2,0,0.1-0.1l0,0c0,0-0.1,0-0.1,0c-0.1,0-0.1,0.1-0.1,0.2c0,0,0,0,0.1,0
					c0.3,0,0.6-0.4,0.8-0.7c0.3-0.3,0.7-0.7,1-1.1C41.9,97.5,41.8,97.4,41.7,97.5L41.7,97.5z"/>
			</g>
		</g>
	</g>
	<g>
		<g>
			<g>
				<path d="M40.9,96.6c-0.3,0.2-0.5,0.5-0.8,0.7c-0.1,0.1-0.3,0.2-0.4,0.4c-0.1,0.1-0.1,0.1-0.2,0.2c-0.1,0.1-0.2,0.2-0.2,0.3
					c0,0-0.1,0-0.1,0c0,0,0,0,0,0c0.1,0.1,0.2,0,0.1-0.1c0,0,0,0,0,0c0,0-0.1,0-0.1,0c-0.1,0-0.1,0.1-0.1,0.2c0,0,0,0.1,0.1,0.1
					c0.3,0,0.6-0.4,0.8-0.6c0.3-0.3,0.7-0.6,1-1C41.1,96.6,41,96.5,40.9,96.6L40.9,96.6z"/>
			</g>
		</g>
	</g>
	<g>
		<g>
			<g>
				<path d="M39.4,94.5c-0.7,0.5-1.4,0.9-2.1,1.4c-0.1,0.1,0,0.2,0.1,0.1c0.7-0.5,1.4-0.9,2.1-1.4C39.6,94.6,39.5,94.4,39.4,94.5
					L39.4,94.5z"/>
			</g>
		</g>
	</g>
	<g>
		<g>
			<g>
				<path d="M38.6,93.6c-0.1,0-0.2,0.1-0.3,0.2c-0.1,0.1-0.2,0.1-0.2,0.2c-0.1,0.1-0.3,0.2-0.4,0.3c-0.3,0.2-0.6,0.4-0.9,0.7
					c-0.1,0.1,0,0.2,0.1,0.1c0.3-0.2,0.6-0.5,0.9-0.7c0.3-0.2,0.7-0.4,0.9-0.7c0.1-0.2,0-0.4-0.2-0.3C38.4,93.5,38.5,93.6,38.6,93.6
					L38.6,93.6z"/>
			</g>
		</g>
	</g>
	<g>
		<g>
			<g>
				<path d="M37.6,92.4c-0.4,0.5-0.9,0.9-1.5,1.3c-0.1,0.1,0,0.2,0.1,0.1c0.6-0.4,1-0.8,1.5-1.3C37.8,92.4,37.7,92.3,37.6,92.4
					L37.6,92.4z"/>
			</g>
		</g>
	</g>
	<g>
		<g>
			<g>
				<path d="M37,91.2c-0.6,0.4-1.2,0.7-1.7,1.1c-0.1,0.1,0,0.2,0.1,0.1c0.6-0.4,1.2-0.7,1.7-1.1C37.2,91.3,37.1,91.2,37,91.2
					L37,91.2z"/>
			</g>
		</g>
	</g>
	<g>
		<g>
			<g>
				<path d="M36.3,90.2c0.1,0,0.1-0.1,0.2-0.1c0,0-0.1-0.1-0.1-0.1c-0.9,0.7-1.8,1.4-2.8,1.9c-0.1,0,0,0.2,0.1,0.1
					c1-0.6,1.9-1.2,2.8-2c0.1-0.1,0-0.2-0.1-0.1c-0.1,0-0.1,0.1-0.2,0.1C36.1,90.1,36.2,90.3,36.3,90.2L36.3,90.2z"/>
			</g>
		</g>
	</g>
	<g>
		<g>
			<g>
				<path d="M35.8,88.8c-0.6,0.6-1.3,1.1-2,1.5c-0.1,0,0,0.2,0.1,0.1c0.8-0.4,1.4-0.9,2.1-1.6C36,88.8,35.9,88.7,35.8,88.8
					L35.8,88.8z"/>
			</g>
		</g>
	</g>
	<g>
		<g>
			<g>
				<path d="M35.1,87.8c-0.6,0.4-1.2,0.7-1.8,1.1c-0.1,0.1,0,0.2,0.1,0.1c0.6-0.4,1.2-0.7,1.8-1.1C35.3,87.9,35.2,87.7,35.1,87.8
					L35.1,87.8z"/>
			</g>
		</g>
	</g>
	<g>
		<g>
			<g>
				<path d="M34.8,86.4c-0.7,0.5-1.4,0.9-2.1,1.3c-0.1,0,0,0.2,0.1,0.1c0.7-0.4,1.4-0.8,2.1-1.3C34.9,86.5,34.8,86.4,34.8,86.4
					L34.8,86.4z"/>
			</g>
		</g>
	</g>
	<g>
		<g>
			<g>
				<path d="M34.2,85.3c-0.6,0.5-1.3,0.9-1.9,1.3c-0.1,0.1,0,0.2,0.1,0.1c0.7-0.4,1.3-0.9,1.9-1.3C34.4,85.4,34.3,85.2,34.2,85.3
					L34.2,85.3z"/>
			</g>
		</g>
	</g>
	<g>
		<g>
			<g>
				<path d="M33.4,82.9c-0.8,0.3-1.6,0.5-2.4,0.8c-0.1,0-0.1,0.2,0,0.2c0.8-0.2,1.6-0.5,2.4-0.8C33.5,83,33.5,82.8,33.4,82.9
					L33.4,82.9z"/>
			</g>
		</g>
	</g>
	<g>
		<g>
			<g>
				<path d="M32.8,81.6c-0.8,0.2-1.5,0.4-2.3,0.6c-0.1,0-0.1,0.2,0,0.2c0.8-0.2,1.5-0.4,2.3-0.6C33,81.8,32.9,81.6,32.8,81.6
					L32.8,81.6z"/>
			</g>
		</g>
	</g>
	<g>
		<g>
			<g>
				<path d="M32.4,80.4c-0.7,0-1.4,0.1-2.1,0.3c-0.1,0-0.1,0.2,0,0.2c0.7-0.2,1.4-0.3,2-0.3C32.5,80.6,32.5,80.4,32.4,80.4
					L32.4,80.4z"/>
			</g>
		</g>
	</g>
	<g>
		<g>
			<g>
				<path d="M29.9,79.7c0.7-0.2,1.4-0.3,2.1-0.3c0.1,0,0.1-0.2,0-0.2c-0.7,0-1.5,0.1-2.2,0.3C29.7,79.5,29.8,79.7,29.9,79.7
					L29.9,79.7z"/>
			</g>
		</g>
	</g>
	<g>
		<g>
			<g>
				<path d="M28.4,78.2c1.2-0.1,2.4-0.1,3.5-0.2c0.1,0,0.1-0.2,0-0.2c-1.2,0.1-2.4,0.1-3.5,0.2C28.3,78,28.3,78.2,28.4,78.2
					L28.4,78.2z"/>
			</g>
		</g>
	</g>
	<g>
		<g>
			<g>
				<path d="M29.4,76.7c0.8,0,1.5,0.1,2.3,0c0.1,0,0.1-0.2,0-0.2c-0.8,0-1.5,0-2.3,0C29.3,76.5,29.3,76.7,29.4,76.7L29.4,76.7z"/>
			</g>
		</g>
	</g>
	<g>
		<g>
			<g>
				<path d="M29.3,75.5c0.7,0,1.4-0.1,2.2-0.1c0.1,0,0.1-0.2,0-0.2c-0.7,0-1.4,0.1-2.2,0.1C29.2,75.3,29.2,75.5,29.3,75.5L29.3,75.5
					z"/>
			</g>
		</g>
	</g>
	<g>
		<g>
			<g>
				<path d="M29.2,74.1c0.8,0,1.6,0,2.4,0c0.1,0,0.1-0.2,0-0.2c-0.8,0-1.6,0-2.4,0C29.1,74,29.1,74.2,29.2,74.1L29.2,74.1z"/>
			</g>
		</g>
	</g>
	<g>
		<g>
			<g>
				<path d="M29.1,70c0.8,0,1.6,0,2.4,0.1c0.1,0,0.1-0.2,0-0.2c-0.8-0.1-1.6-0.1-2.4-0.1C29,69.8,29,70,29.1,70L29.1,70z"/>
			</g>
		</g>
	</g>
	<g>
		<g>
			<g>
				<path d="M29.3,68.5c0.8,0,1.6,0.1,2.4,0.1c0.1,0,0.1-0.2,0-0.2c-0.8,0-1.6-0.1-2.4-0.1C29.2,68.3,29.2,68.5,29.3,68.5L29.3,68.5
					z"/>
			</g>
		</g>
	</g>
	<g>
		<g>
			<g>
				<path d="M29.4,66.9c0.8,0.1,1.6,0.2,2.4,0.3c0.1,0,0.2-0.2,0-0.2c-0.8-0.1-1.6-0.2-2.4-0.3C29.3,66.8,29.2,66.9,29.4,66.9
					L29.4,66.9z"/>
			</g>
		</g>
	</g>
	<g>
		<g>
			<g>
				<path d="M29.5,65.9c0.9,0,1.8,0.1,2.7,0.3c0.1,0,0.2-0.1,0-0.2c-0.9-0.2-1.8-0.3-2.8-0.3C29.4,65.7,29.4,65.9,29.5,65.9
					L29.5,65.9z"/>
			</g>
		</g>
	</g>
	<g>
		<g>
			<g>
				<path d="M28.8,64.3c1.1,0.1,2.2,0.3,3.3,0.7c0.1,0,0.2-0.1,0-0.2c-1.1-0.3-2.2-0.5-3.4-0.7C28.7,64.1,28.7,64.3,28.8,64.3
					L28.8,64.3z"/>
			</g>
		</g>
	</g>
	<g>
		<g>
			<g>
				<path d="M30.2,63.4c0.7,0.1,1.5,0.1,2.3,0.2c0.1,0,0.1-0.2,0-0.2c-0.7-0.1-1.5-0.1-2.3-0.2C30,63.3,30,63.4,30.2,63.4L30.2,63.4
					z"/>
			</g>
		</g>
	</g>
	<g>
		<g>
			<g>
				<path d="M30.5,61.9c0.7,0.1,1.4,0.3,2.2,0.4c0.1,0,0.2-0.1,0-0.2c-0.7-0.1-1.4-0.3-2.2-0.4C30.5,61.7,30.4,61.9,30.5,61.9
					L30.5,61.9z"/>
			</g>
		</g>
	</g>
	<g>
		<g>
			<g>
				<path d="M30.7,60.4c0.7,0.3,1.5,0.5,2.3,0.7c0.1,0,0.2-0.1,0-0.2c-0.7-0.3-1.5-0.5-2.3-0.7C30.7,60.2,30.6,60.4,30.7,60.4
					L30.7,60.4z"/>
			</g>
		</g>
	</g>
	<g>
		<g>
			<g>
				<path d="M31.1,59.2c0.8,0.3,1.6,0.6,2.4,0.9c0.1,0,0.1-0.1,0-0.2c-0.8-0.3-1.6-0.6-2.4-0.9C31.1,58.9,31,59.1,31.1,59.2
					L31.1,59.2z"/>
			</g>
		</g>
	</g>
	<g>
		<g>
			<g>
				<path d="M53.3,55.7c2.4,3.4,4.7,6.7,7.1,10.1c0.1,0.1,0.2,0,0.1-0.1c-2.4-3.4-4.7-6.7-7.1-10.1C53.4,55.5,53.3,55.6,53.3,55.7
					L53.3,55.7z"/>
			</g>
		</g>
	</g>
	<g>
		<g>
			<g>
				<path d="M53.3,55.6c3.3,2.5,6.5,5.2,9.6,7.9c0.1,0.1,0.2,0,0.1-0.1c-3.1-2.7-6.3-5.4-9.6-7.9C53.4,55.4,53.3,55.5,53.3,55.6
					L53.3,55.6z"/>
			</g>
		</g>
	</g>
	<g>
		<g>
			<g>
				<path d="M61.3,53.9c0.6,1.8,1.1,3.5,1.7,5.3c0.3,0.8,0.5,1.7,0.8,2.5c0.1,0.3,0.1,0.7,0.4,0.9c0,0,0.1,0,0.1,0c0,0,0,0,0-0.1
					c0,0,0-0.1-0.1-0.1c0,0,0,0-0.1,0c-0.1,0-0.1,0.1,0,0.2c-0.2-0.1-0.6-2.1-0.7-2.3c-0.2-0.7-0.4-1.4-0.7-2.1
					c-0.4-1.4-0.9-2.8-1.3-4.2C61.5,53.7,61.3,53.8,61.3,53.9L61.3,53.9z"/>
			</g>
		</g>
	</g>
	<g>
		<g>
			<g>
				<path d="M61.3,54c1,1.4,1.9,2.9,2.7,4.5c0.3,0.7,0.7,1.4,1,2.1c0.2,0.4,0.5,1.2,1,1.4c0.1,0,0.1,0,0.1-0.1c0,0,0,0,0,0
					c0,0,0-0.1-0.1-0.1c0,0,0,0,0,0c-0.1,0-0.1,0.2,0,0.2c-0.3,0-1-1.8-1.2-2.1c-0.3-0.6-0.6-1.3-0.9-1.9c-0.7-1.4-1.5-2.7-2.4-3.9
					C61.4,53.8,61.2,53.9,61.3,54L61.3,54z"/>
			</g>
		</g>
	</g>
	<g>
		<g>
			<g>
				<path d="M67.8,61.4c0-4.1,0.3-8.2,0.8-12.3c0-0.1-0.2-0.1-0.2,0c-0.5,4.1-0.8,8.2-0.8,12.3C67.6,61.6,67.8,61.6,67.8,61.4
					L67.8,61.4z"/>
			</g>
		</g>
	</g>
	<g>
		<g>
			<g>
				<path d="M68.5,48.9c0.4,4.2,0.7,8.4,1.1,12.5c0,0.1,0.2,0.1,0.2,0c-0.4-4.2-0.7-8.4-1.1-12.5C68.7,48.8,68.5,48.8,68.5,48.9
					L68.5,48.9z"/>
			</g>
		</g>
	</g>
	<g>
		<g>
			<g>
				<path d="M71.5,61.6c1.3-2.9,2.7-5.7,4.4-8.4c0.1-0.1-0.1-0.2-0.1-0.1c-1.7,2.7-3.1,5.5-4.4,8.4C71.3,61.6,71.4,61.7,71.5,61.6
					L71.5,61.6z"/>
			</g>
		</g>
	</g>
	<g>
		<g>
			<g>
				<path d="M75.7,53.1c-0.7,3-1.5,6-2.3,9c0,0.1,0.1,0.2,0.2,0.1c0-0.1,0.1-0.2,0.1-0.2c0-0.1-0.1-0.2-0.1-0.1
					c0.6-1.2,0.8-2.8,1.2-4.2c0.4-1.5,0.7-3,1.1-4.5C75.9,53.1,75.7,53.1,75.7,53.1L75.7,53.1z"/>
			</g>
		</g>
	</g>
	<g>
		<g>
			<g>
				<path d="M67.4,81.5c0.3,4.3,0.7,8.5,1.1,12.8c0,0.1,0.2,0.1,0.2,0c0-0.2,0-0.4,0-0.6c0-0.1-0.2-0.1-0.2,0
					c0.1,0.8,0.1-0.6,0.1-0.8c0-0.5-0.1-0.9-0.1-1.4c-0.1-1.1-0.2-2.3-0.3-3.4c-0.2-2.2-0.3-4.4-0.5-6.6
					C67.6,81.4,67.4,81.4,67.4,81.5L67.4,81.5z"/>
			</g>
		</g>
	</g>
	<g>
		<g>
			<g>
				<path d="M68.5,94.2c0.7-4.2,1.3-8.4,1.9-12.6c0-0.1-0.2-0.1-0.2,0c-0.6,4.2-1.2,8.4-1.9,12.6C68.4,94.3,68.5,94.3,68.5,94.2
					L68.5,94.2z"/>
			</g>
		</g>
	</g>
	<g>
		<g>
			<g>
				<path d="M72.1,81.3c1.3,2.4,2.7,4.8,4.2,7.1c0.1,0.1,0.2,0,0.1-0.1c-1.5-2.3-2.9-4.7-4.2-7.1C72.2,81.1,72,81.2,72.1,81.3
					L72.1,81.3z"/>
			</g>
		</g>
	</g>
	<g>
		<g>
			<g>
				<path d="M74.3,80.3c0.8,2.7,1.4,5.5,1.9,8.3c0,0.1,0.2,0.1,0.2,0c-0.5-2.8-1.1-5.6-1.9-8.3C74.5,80.2,74.3,80.2,74.3,80.3
					L74.3,80.3z"/>
			</g>
		</g>
	</g>
	<g>
		<g>
			<g>
				<path d="M75.1,79.9c3.5,2.3,6.2,5.5,9.7,7.7c0.1,0.1,0.2-0.1,0.1-0.1c-3.5-2.2-6.2-5.4-9.7-7.7C75.1,79.7,75,79.9,75.1,79.9
					L75.1,79.9z"/>
			</g>
		</g>
	</g>
	<g>
		<g>
			<g>
				<path d="M85,87.5c-2.1-3.4-4.5-6.6-6.9-9.8c-0.1-0.1-0.2,0-0.1,0.1c2.5,3.1,4.8,6.4,6.9,9.8C84.9,87.7,85.1,87.6,85,87.5
					L85,87.5z"/>
			</g>
		</g>
	</g>
	<g>
		<g>
			<g>
				<path d="M83.6,77.5c0.8,0.2,1.6,0.5,2.4,0.7c0.1,0,0.2-0.1,0-0.2c-0.8-0.2-1.6-0.5-2.4-0.7C83.6,77.3,83.5,77.5,83.6,77.5
					L83.6,77.5z"/>
			</g>
		</g>
	</g>
	<g>
		<g>
			<g>
				<path d="M84.4,77.1c0.6,0.4,1.2,0.7,1.8,1.1c0.1,0.1,0.2-0.1,0.1-0.1c-0.6-0.4-1.2-0.7-1.8-1.1C84.4,76.9,84.3,77,84.4,77.1
					L84.4,77.1z"/>
			</g>
		</g>
	</g>
	<g>
		<g>
			<g>
				<path d="M66.1,81.2c-1.2,2.5-2.6,5-4.1,7.4c-0.1,0.1,0.1,0.2,0.1,0.1c1.5-2.4,2.9-4.8,4.1-7.4C66.3,81.2,66.2,81.2,66.1,81.2
					L66.1,81.2z"/>
			</g>
		</g>
	</g>
	<g>
		<g>
			<g>
				<path d="M64.2,80.5c-0.6,2.8-1.4,5.5-2.3,8.2c0,0.1,0.1,0.2,0.2,0c0.9-2.7,1.7-5.4,2.3-8.2C64.4,80.4,64.2,80.4,64.2,80.5
					L64.2,80.5z"/>
			</g>
		</g>
	</g>
	<g>
		<g>
			<g>
				<path d="M51.2,64.9c0.7,0.3,1.5,0.7,2.2,1c0.1,0,0.2-0.1,0.1-0.1c-0.7-0.3-1.5-0.7-2.2-1C51.2,64.7,51.1,64.8,51.2,64.9
					L51.2,64.9z"/>
			</g>
		</g>
	</g>
	<g>
		<g>
			<g>
				<path d="M51.1,64.8c1.7,0.2,3.3,0.6,5,1c0.1,0,0.2-0.1,0-0.2c-1.7-0.4-3.3-0.8-5-1C51,64.6,51,64.8,51.1,64.8L51.1,64.8z"/>
			</g>
		</g>
	</g>
	<g>
		<g>
			<g>
				<path d="M51.4,79.1c1.2-0.6,2.4-1.2,3.7-1.8c0.1,0,0-0.2-0.1-0.1c-1.2,0.6-2.5,1.2-3.7,1.8C51.2,79,51.3,79.1,51.4,79.1
					L51.4,79.1z"/>
			</g>
		</g>
	</g>
	<g>
		<g>
			<g>
				<path d="M51.2,79.2c3.4-0.3,6.8-0.8,10.2-1.5c0.1,0,0.1-0.2,0-0.2c-3.4,0.7-6.7,1.2-10.1,1.5C51.1,79.1,51.1,79.2,51.2,79.2
					L51.2,79.2z"/>
			</g>
		</g>
	</g>
	<g>
		<g>
			<g>
				<path d="M61.5,78.5c-0.9,1.7-2.4,3.2-3.7,4.7c-1.3,1.6-2.7,3.1-4,4.7c-0.1,0.1,0,0.2,0.1,0.1c1.4-1.7,2.9-3.4,4.3-5.1
					c1.2-1.4,2.6-2.7,3.4-4.4C61.7,78.5,61.6,78.4,61.5,78.5L61.5,78.5z"/>
			</g>
		</g>
	</g>
	<g>
		<g>
			<g>
				<path d="M53.9,88.2c3.3-2.7,6.6-5.3,9.9-7.9c0.1-0.1,0-0.2-0.1-0.1c-3.4,2.6-6.7,5.2-10,7.9C53.7,88.1,53.9,88.3,53.9,88.2
					L53.9,88.2z"/>
			</g>
		</g>
	</g>
	<g>
		<g>
			<g>
				<path d="M86,63.6c-0.8,0.5-1.6,1.1-2.4,1.6c-0.1,0.1,0,0.2,0.1,0.1c0.8-0.5,1.6-1.1,2.4-1.6C86.1,63.7,86.1,63.5,86,63.6
					L86,63.6z"/>
			</g>
		</g>
	</g>
	<g>
		<g>
			<g>
				<path d="M85.9,63.5c-1.6,0.6-3.3,1.1-4.9,1.7c-0.1,0-0.1,0.2,0,0.2c1.6-0.6,3.3-1.1,4.9-1.7C86,63.6,86,63.4,85.9,63.5
					L85.9,63.5z"/>
			</g>
		</g>
	</g>
	<g>
		<g>
			<g>
				<path d="M75,63.2c3.2-3.2,6.7-6.1,10.5-8.7c0.1-0.1,0-0.2-0.1-0.1c-3.8,2.6-7.3,5.5-10.5,8.7C74.9,63.2,75,63.3,75,63.2L75,63.2
					z"/>
			</g>
		</g>
	</g>
	<g>
		<g>
			<g>
				<path d="M77.1,64.9c2.8-3.5,5.6-7,8.5-10.4c0.1-0.1,0-0.2-0.1-0.1c-2.9,3.4-5.7,6.9-8.5,10.4C77,64.9,77.1,65,77.1,64.9
					L77.1,64.9z"/>
			</g>
		</g>
	</g>
	<g>
		<g>
			<g>
				<path d="M103.9,69c2.8,0.7,5.6,1.5,8.3,2.4c0.3,0.1,0.5-0.4,0.2-0.6c-2.7-0.9-5.5-1.7-8.3-2.4C103.7,68.3,103.5,68.9,103.9,69
					L103.9,69z"/>
			</g>
		</g>
	</g>
	<g>
		<g>
			<g>
				<path d="M25.9,71.8c8.7-3,17.8-4.9,27.1-5.6c4.7-0.3,9.4-0.4,14.1-0.5c4.8-0.1,9.6-0.2,14.4,0c5.3,0.2,10.7,0.9,15.9,1.8
					c0.4,0.1,0.5-0.5,0.2-0.6C88,65.2,78.6,64.8,69.1,65c-9.4,0.2-18.8,0.4-28,2.1c-5.2,1-10.3,2.4-15.3,4.1
					C25.3,71.3,25.5,71.9,25.9,71.8L25.9,71.8z"/>
			</g>
		</g>
	</g>
	<g>
		<g>
			<g>
				<path d="M104.2,73.7c1.4-0.3,2.7-0.8,4.1-1.1c1.3-0.3,2.6-0.5,3.9-1c0.3-0.1,0.2-0.7-0.2-0.6c-1.3,0.5-2.6,0.7-3.9,1
					c-1.4,0.3-2.7,0.7-4.1,1.1C103.7,73.2,103.9,73.8,104.2,73.7L104.2,73.7z"/>
			</g>
		</g>
	</g>
	<g>
		<g>
			<g>
				<path d="M25.4,72c4.1,1.8,8.5,2.9,12.9,3.6c4.5,0.7,9,1.1,13.5,1.5c4.8,0.4,9.7,0.6,14.6,0.9c4.9,0.3,9.9,0.4,14.8-0.1
					c5.5-0.6,10.9-1.7,16.3-2.6c0.4-0.1,0.2-0.6-0.2-0.6c-4.7,0.8-9.4,1.7-14.2,2.4c-4.9,0.7-9.8,0.7-14.8,0.5
					c-9.2-0.4-18.4-1-27.5-2.1c-5.2-0.6-10.4-1.7-15.2-3.8C25.3,71.4,25,71.9,25.4,72L25.4,72z"/>
			</g>
		</g>
	</g>
	<g>
		<g>
			<g>
				<path d="M25.9,71.8c6.7,0.3,13.3,0.2,20,0.1c3.3,0,6.6-0.1,9.9-0.1c1.6,0,3.2-0.1,4.8-0.1c0.4,0,3.9,0.2,3.9-0.1
					c0.1-0.1,0.1-0.2,0.2-0.3c0,0,0,0,0,0c-0.3,0.1-0.2,0.7,0.2,0.6c0,0,0,0,0,0c0.2-0.1,0.2-0.2,0.2-0.3c0,0,0,0,0-0.1
					c0-0.1-0.2-0.2-0.3-0.2c-12.9-0.2-25.9,0.7-38.8,0C25.5,71.2,25.5,71.8,25.9,71.8L25.9,71.8z"/>
			</g>
		</g>
	</g>
	<g>
		<g>
			<g>
				<path d="M103.4,71.8c2.7-0.1,5.4-0.1,8.1-0.1c0.4,0,0.4-0.6,0-0.6c-2.7,0-5.4,0-8.1,0.1C103,71.3,103,71.8,103.4,71.8
					L103.4,71.8z"/>
			</g>
		</g>
	</g>
	<g>
		<g>
			<g>
				<path d="M73.8,72c7.8,0.4,15.7,0.2,23.5,0c0.4,0,0.4-0.6,0-0.6c-7.8,0.2-15.7,0.4-23.5,0C73.4,71.4,73.4,72,73.8,72L73.8,72z"/>
			</g>
		</g>
	</g>
	<g class="st0">
		<path d="M69.2,29.6c-0.4,0-0.7-0.2-0.9-0.7c-0.2-0.4-0.3-1-0.3-1.7c0-0.7,0.1-1.3,0.4-1.7c0.2-0.4,0.6-0.6,1-0.6
			c0.4,0,0.7,0.2,1,0.7c0.2,0.4,0.4,1,0.3,1.7c0,0.7-0.1,1.3-0.4,1.7C69.9,29.4,69.6,29.6,69.2,29.6z M69.2,29.2
			c0.5,0,0.8-0.6,0.8-1.9c0-1.3-0.2-1.9-0.8-1.9c-0.5,0-0.8,0.6-0.8,1.9C68.4,28.5,68.7,29.2,69.2,29.2z"/>
	</g>
	<g class="st0">
		<path d="M80.9,31.1l0.2-0.5c0.3-0.3,0.7-0.6,1.3-0.9l0.4-0.2c0.5-0.2,0.8-0.6,0.9-0.9c0.1-0.2,0.1-0.4,0-0.6
			c-0.1-0.2-0.2-0.3-0.4-0.4c-0.2-0.1-0.6-0.1-1,0l0.2-0.5c0.4-0.1,0.7,0,1,0.1c0.3,0.1,0.6,0.3,0.7,0.6c0.1,0.3,0.1,0.6,0,1
			c-0.1,0.3-0.2,0.5-0.4,0.6c-0.2,0.2-0.4,0.3-0.8,0.5l-0.2,0.1c-0.5,0.2-0.9,0.5-1,0.9l1.5,0.6L83,31.8L80.9,31.1z"/>
		<path d="M85.1,32.7c-0.4-0.1-0.6-0.4-0.7-0.9c-0.1-0.5,0-1.1,0.2-1.7c0.2-0.7,0.5-1.2,0.9-1.5c0.4-0.3,0.7-0.4,1.1-0.3
			s0.6,0.4,0.7,0.9c0.1,0.5,0,1.1-0.2,1.7c-0.2,0.7-0.5,1.2-0.9,1.5C85.9,32.7,85.5,32.8,85.1,32.7z M85.3,32.3
			c0.5,0.2,1-0.3,1.4-1.5c0.4-1.2,0.4-1.9-0.1-2c-0.5-0.2-1,0.3-1.4,1.5C84.8,31.4,84.8,32.1,85.3,32.3z"/>
	</g>
	<g class="st0">
		<path d="M94.9,38.6l0.8-1l-1.3-1.1l0.3-0.3l3.1-1.1l0.4,0.3l-1.7,2.1l0.4,0.3l-0.3,0.4l-0.4-0.3l-0.8,1L94.9,38.6z M95.1,36.5
			l1,0.8l1.2-1.5L95.1,36.5z"/>
		<path d="M97.1,40.6c-0.3-0.2-0.4-0.6-0.3-1.1c0.1-0.5,0.3-1,0.8-1.5c0.4-0.5,0.9-0.9,1.4-1.1c0.5-0.2,0.8-0.1,1.2,0.1
			c0.3,0.2,0.4,0.6,0.3,1.1c-0.1,0.5-0.3,1-0.8,1.5c-0.5,0.6-0.9,0.9-1.4,1.1C97.9,40.9,97.5,40.8,97.1,40.6z M97.4,40.2
			c0.4,0.3,1,0,1.8-1c0.8-1,1-1.6,0.6-2c-0.4-0.3-1,0-1.8,1C97.2,39.3,97,39.9,97.4,40.2z"/>
	</g>
	<g class="st0">
		<path d="M106.3,47.8c0.4,0,0.7,0.2,0.9,0.5c0.2,0.3,0.2,0.6,0.1,0.9c-0.1,0.3-0.4,0.6-0.7,0.8c-0.4,0.2-0.8,0.3-1.2,0.3
			c-0.4-0.1-0.7-0.2-0.8-0.6c-0.2-0.4-0.2-0.7,0-1.1c0.2-0.4,0.7-0.8,1.3-1.1c0.7-0.4,1.3-0.6,1.8-0.5c0.5,0,0.9,0.2,1.1,0.7
			c0.1,0.2,0.2,0.5,0.3,0.8l-0.5,0.3c0-0.4-0.1-0.7-0.2-0.9C108,47.2,107.3,47.2,106.3,47.8z M106.2,49.6c0.3-0.2,0.5-0.4,0.6-0.6
			c0.1-0.2,0.1-0.4,0-0.6c-0.1-0.2-0.3-0.3-0.5-0.4c-0.2,0-0.4,0-0.6,0.1c-0.3,0.2-0.6,0.4-0.7,0.6c-0.1,0.2-0.1,0.5,0,0.7
			c0.1,0.2,0.3,0.3,0.5,0.3C105.7,49.9,105.9,49.8,106.2,49.6z"/>
		<path d="M106.2,52.6c-0.2-0.3-0.2-0.7,0.1-1.1c0.3-0.4,0.7-0.8,1.3-1.2c0.6-0.3,1.2-0.5,1.7-0.5c0.5,0,0.8,0.2,1,0.5
			c0.2,0.3,0.2,0.7-0.1,1.2c-0.3,0.4-0.7,0.8-1.3,1.2c-0.6,0.4-1.2,0.5-1.7,0.5C106.7,53.1,106.4,52.9,106.2,52.6z M106.6,52.3
			c0.3,0.5,1,0.4,2.1-0.3c1.1-0.6,1.5-1.2,1.2-1.6c-0.3-0.5-0.9-0.4-2,0.2C106.7,51.4,106.3,51.9,106.6,52.3z"/>
	</g>
	<g class="st0">
		<path d="M112.1,61.8c0.2-0.4,0.5-0.7,0.9-0.7c0.3-0.1,0.6,0,0.9,0.2c0.2,0.2,0.4,0.4,0.5,0.8c0.1,0.3,0,0.6-0.1,0.8
			c-0.1,0.2-0.4,0.4-0.6,0.4c-0.4,0.1-0.9-0.1-1.3-0.5c-0.2,0.6-0.6,1-1.1,1.1c-0.4,0.1-0.7,0-1-0.2c-0.3-0.2-0.4-0.5-0.5-0.9
			c-0.1-0.4,0-0.7,0.2-0.9c0.2-0.3,0.4-0.4,0.8-0.5C111.2,61.2,111.6,61.4,112.1,61.8z M111.9,62.1c-0.2-0.2-0.4-0.3-0.5-0.3
			c-0.1,0-0.3-0.1-0.5,0c-0.3,0-0.4,0.1-0.6,0.3c-0.1,0.2-0.2,0.4-0.1,0.6c0,0.2,0.1,0.4,0.3,0.5c0.2,0.1,0.3,0.2,0.6,0.1
			c0.2,0,0.3-0.1,0.4-0.2c0.1-0.1,0.2-0.3,0.3-0.6L111.9,62.1z M112.4,62.4c0.3,0.3,0.7,0.4,1,0.4c0.2,0,0.3-0.1,0.4-0.2
			s0.1-0.3,0.1-0.5c0-0.2-0.1-0.3-0.2-0.4c-0.1-0.1-0.3-0.1-0.4-0.1c-0.2,0-0.3,0.1-0.4,0.2C112.6,61.9,112.5,62.1,112.4,62.4z"/>
		<path d="M110.2,65.9c-0.1-0.4,0.1-0.7,0.5-1c0.4-0.3,0.9-0.5,1.6-0.6c0.7-0.1,1.3-0.1,1.7,0.1c0.5,0.2,0.7,0.4,0.8,0.8
			c0.1,0.4-0.1,0.7-0.5,1.1c-0.4,0.3-0.9,0.5-1.6,0.6c-0.7,0.1-1.3,0.1-1.8-0.1C110.5,66.6,110.3,66.3,110.2,65.9z M110.6,65.8
			c0.1,0.5,0.8,0.7,2,0.5c1.2-0.2,1.8-0.6,1.7-1.1c-0.1-0.5-0.8-0.7-2-0.5C111.1,65,110.5,65.3,110.6,65.8z"/>
	</g>
	<g class="st0">
		<path d="M111.2,74.8l0.4,0.1l-0.2,0.7l3.5,0.7l-0.1-0.8l0.4,0.1l0.1,1.3l-4-0.8l-0.2,0.7l-0.4-0.1L111.2,74.8z"/>
		<path d="M110.2,78.9c0.1-0.4,0.4-0.6,0.8-0.8c0.5-0.1,1.1-0.2,1.7,0c0.7,0.1,1.2,0.4,1.6,0.7c0.4,0.3,0.5,0.7,0.4,1.1
			c-0.1,0.4-0.4,0.7-0.8,0.8c-0.5,0.2-1,0.2-1.7,0c-0.7-0.1-1.2-0.4-1.6-0.7C110.3,79.6,110.1,79.3,110.2,78.9z M110.6,79
			c-0.1,0.5,0.5,0.9,1.7,1.2c1.2,0.3,1.9,0.1,2-0.4c0.1-0.5-0.5-0.9-1.7-1.2C111.4,78.3,110.8,78.4,110.6,79z"/>
		<path d="M109.5,82.1c0.1-0.4,0.4-0.6,0.8-0.8c0.5-0.1,1.1-0.2,1.7,0c0.7,0.1,1.2,0.4,1.6,0.7c0.4,0.3,0.5,0.7,0.4,1.1
			c-0.1,0.4-0.4,0.7-0.8,0.8c-0.5,0.2-1,0.2-1.7,0c-0.7-0.1-1.2-0.4-1.6-0.7C109.6,82.9,109.5,82.5,109.5,82.1z M110,82.2
			c-0.1,0.5,0.5,0.9,1.7,1.2c1.2,0.3,1.9,0.1,2-0.4c0.1-0.5-0.5-0.9-1.7-1.2C110.8,81.6,110.1,81.7,110,82.2z"/>
	</g>
	<g class="st0">
		<path d="M107.1,89.6l0.4,0.2l-0.4,0.6l3,1.9l0.2-0.8l0.4,0.2l-0.4,1.3l-3.5-2.3l-0.4,0.6l-0.4-0.2L107.1,89.6z"/>
		<path d="M105.5,92.1l0.4,0.3c0.3,0.3,0.5,0.8,0.6,1.5l0.1,0.4c0.1,0.5,0.4,0.9,0.7,1.1c0.2,0.1,0.4,0.2,0.6,0.2
			c0.2,0,0.3-0.1,0.5-0.3c0.1-0.2,0.2-0.5,0.2-1l0.4,0.3c0,0.4-0.1,0.7-0.3,1c-0.2,0.3-0.4,0.5-0.7,0.5c-0.3,0.1-0.6,0-0.9-0.2
			c-0.2-0.1-0.4-0.3-0.5-0.5c-0.1-0.2-0.2-0.5-0.3-0.9l-0.1-0.3c-0.1-0.6-0.3-1-0.6-1.2l-0.9,1.4l-0.4-0.3L105.5,92.1z"/>
		<path d="M102.9,95.8c0.2-0.3,0.6-0.5,1.1-0.4c0.5,0,1,0.2,1.6,0.6c0.6,0.4,1,0.8,1.2,1.2c0.2,0.4,0.2,0.8,0,1.2
			c-0.2,0.3-0.6,0.5-1.1,0.5c-0.5,0-1-0.2-1.6-0.6c-0.6-0.4-1-0.8-1.2-1.2C102.7,96.6,102.7,96.2,102.9,95.8z M103.3,96.1
			c-0.3,0.4,0.1,1,1.2,1.7c1.1,0.7,1.7,0.8,2,0.4c0.3-0.4-0.1-1-1.2-1.7C104.2,95.8,103.6,95.7,103.3,96.1z"/>
	</g>
	<g class="st0">
		<path d="M99.6,100.1l0.3,0.3l-0.6,0.5l2.3,2.7l0.4-0.7l0.3,0.3l-0.7,1.1l-2.7-3.1l-0.6,0.5l-0.3-0.3L99.6,100.1z"/>
		<path d="M96.2,103.1l0.8,1l1.3-1.1l0.3,0.3l0.5,3.2l-0.4,0.3l-1.8-2l-0.4,0.3l-0.3-0.4l0.4-0.3l-0.8-1L96.2,103.1z M98.3,103.6
			l-0.9,0.8l1.3,1.5L98.3,103.6z"/>
		<path d="M93.9,105c0.3-0.3,0.7-0.3,1.1-0.1c0.5,0.2,0.9,0.5,1.4,1c0.5,0.5,0.7,1,0.8,1.5c0.1,0.5,0,0.9-0.3,1.1
			c-0.3,0.3-0.7,0.3-1.1,0.1c-0.5-0.2-0.9-0.5-1.4-1c-0.5-0.5-0.8-1.1-0.9-1.5C93.5,105.6,93.6,105.2,93.9,105z M94.2,105.3
			c-0.4,0.4-0.2,1,0.7,2c0.8,0.9,1.4,1.2,1.8,0.9c0.4-0.3,0.2-1-0.7-1.9C95.2,105.3,94.6,105,94.2,105.3z"/>
	</g>
	<g class="st0">
		<path d="M87.3,109.4l0.1,0.4l-0.7,0.3l1.2,3.3l0.6-0.5l0.2,0.4l-1.1,0.8l-1.4-3.9l-0.7,0.3l-0.1-0.4L87.3,109.4z"/>
		<path d="M84.8,112.7c-0.1,0.4-0.3,0.7-0.7,0.8c-0.3,0.1-0.6,0.1-0.9-0.1c-0.3-0.2-0.5-0.5-0.6-0.8c-0.2-0.4-0.2-0.8-0.1-1.2
			c0.1-0.4,0.4-0.6,0.7-0.7c0.4-0.1,0.8-0.1,1.1,0.2c0.4,0.3,0.6,0.8,0.9,1.4c0.3,0.7,0.3,1.3,0.2,1.8c-0.1,0.5-0.4,0.8-0.9,1
			c-0.2,0.1-0.5,0.1-0.9,0.1l-0.2-0.5c0.4,0,0.7,0,0.9-0.1C85.1,114.5,85.2,113.8,84.8,112.7z M83.1,112.3c0.1,0.3,0.3,0.5,0.4,0.7
			c0.2,0.1,0.4,0.2,0.6,0.1c0.2-0.1,0.3-0.2,0.4-0.4c0.1-0.2,0.1-0.4,0-0.7c-0.1-0.4-0.3-0.6-0.5-0.8c-0.2-0.2-0.4-0.2-0.7-0.1
			c-0.2,0.1-0.3,0.2-0.4,0.4C82.9,111.7,82.9,112,83.1,112.3z"/>
		<path d="M80.2,111.8c0.4-0.1,0.7,0,1.1,0.3c0.4,0.3,0.7,0.8,0.9,1.5c0.2,0.7,0.3,1.2,0.2,1.7c-0.1,0.5-0.3,0.8-0.7,0.9
			c-0.4,0.1-0.7,0-1.1-0.3c-0.4-0.3-0.7-0.8-0.9-1.5c-0.2-0.7-0.3-1.3-0.2-1.7C79.6,112.2,79.8,111.9,80.2,111.8z M80.3,112.2
			c-0.5,0.2-0.5,0.9-0.1,2.1c0.4,1.2,0.9,1.7,1.4,1.5c0.5-0.2,0.5-0.9,0.1-2.1C81.3,112.5,80.8,112,80.3,112.2z"/>
	</g>
	<g class="st0">
		<path d="M73.1,113.1l0,0.4l-0.8,0l0,3.5l0.8-0.2l0,0.5l-1.3,0.4l0-4.1l-0.8,0l0-0.4L73.1,113.1z"/>
		<path d="M69.4,115.6c0.4,0.3,0.6,0.6,0.6,1c0,0.3-0.1,0.6-0.3,0.8c-0.2,0.2-0.5,0.3-0.8,0.3c-0.3,0-0.6-0.1-0.8-0.3
			c-0.2-0.2-0.3-0.4-0.3-0.7c0-0.4,0.2-0.8,0.7-1.2c-0.6-0.3-0.9-0.7-0.9-1.3c0-0.4,0.1-0.7,0.4-0.9c0.2-0.2,0.5-0.4,0.9-0.4
			c0.4,0,0.7,0.1,0.9,0.3c0.2,0.2,0.3,0.5,0.4,0.9C70.1,114.8,69.8,115.2,69.4,115.6z M69.1,115.4c0.2-0.2,0.3-0.3,0.4-0.5
			c0.1-0.1,0.1-0.3,0.1-0.5c0-0.3-0.1-0.5-0.2-0.6c-0.1-0.2-0.3-0.2-0.6-0.2c-0.2,0-0.4,0.1-0.5,0.2c-0.1,0.1-0.2,0.3-0.2,0.5
			c0,0.2,0,0.3,0.1,0.4c0.1,0.1,0.3,0.3,0.5,0.4L69.1,115.4z M68.7,115.8c-0.4,0.3-0.5,0.6-0.5,0.9c0,0.2,0.1,0.3,0.2,0.4
			c0.1,0.1,0.3,0.2,0.5,0.2c0.2,0,0.3-0.1,0.5-0.2c0.1-0.1,0.2-0.2,0.2-0.4c0-0.2-0.1-0.3-0.2-0.4C69.2,116.1,69,116,68.7,115.8z"/>
		<path d="M65.6,113.1c0.4,0,0.7,0.2,1,0.6c0.2,0.4,0.4,1,0.4,1.7c0,0.7-0.1,1.3-0.3,1.7c-0.2,0.4-0.6,0.6-1,0.7
			c-0.4,0-0.7-0.2-1-0.6c-0.2-0.4-0.4-1-0.4-1.7c0-0.7,0.1-1.3,0.3-1.7C64.8,113.3,65.2,113.1,65.6,113.1z M65.6,113.5
			c-0.5,0-0.8,0.6-0.8,1.9c0,1.3,0.3,1.9,0.8,1.9c0.5,0,0.8-0.6,0.8-1.9C66.4,114.2,66.1,113.5,65.6,113.5z"/>
	</g>
	<g class="st0">
		<path d="M58.7,112.2l-0.2,0.5c-0.3,0.3-0.7,0.6-1.3,0.9l-0.4,0.2c-0.5,0.2-0.8,0.5-0.9,0.9c-0.1,0.2-0.1,0.4,0,0.6
			c0.1,0.2,0.2,0.3,0.4,0.4c0.2,0.1,0.6,0.1,1,0l-0.2,0.5c-0.4,0.1-0.7,0-1-0.1c-0.3-0.1-0.6-0.3-0.7-0.6c-0.1-0.3-0.1-0.6,0-1
			c0.1-0.3,0.2-0.5,0.4-0.6c0.2-0.2,0.5-0.3,0.8-0.5l0.3-0.1c0.5-0.2,0.9-0.5,1.1-0.8l-1.5-0.6l0.2-0.5L58.7,112.2z"/>
		<path d="M54.6,110.5c0.4,0.1,0.6,0.5,0.7,0.9c0.1,0.5,0,1.1-0.3,1.7c-0.3,0.7-0.6,1.1-0.9,1.5c-0.4,0.3-0.8,0.4-1.1,0.3
			c-0.4-0.1-0.6-0.5-0.7-0.9c-0.1-0.5,0-1.1,0.3-1.7c0.3-0.7,0.6-1.2,1-1.5C53.8,110.4,54.2,110.3,54.6,110.5z M54.4,110.9
			c-0.5-0.2-1,0.3-1.4,1.5c-0.4,1.2-0.4,1.8,0.1,2c0.5,0.2,1-0.3,1.4-1.5C54.9,111.8,54.9,111.1,54.4,110.9z"/>
		<path d="M51.5,109.3c0.4,0.1,0.6,0.5,0.7,0.9c0.1,0.5,0,1.1-0.3,1.7c-0.3,0.7-0.6,1.1-0.9,1.5c-0.4,0.3-0.8,0.4-1.1,0.3
			c-0.4-0.1-0.6-0.5-0.7-0.9c-0.1-0.5,0-1.1,0.3-1.7c0.3-0.7,0.6-1.2,1-1.5C50.7,109.2,51.1,109.2,51.5,109.3z M51.3,109.7
			c-0.5-0.2-1,0.3-1.4,1.5c-0.4,1.2-0.4,1.8,0.1,2c0.5,0.2,1-0.3,1.4-1.5C51.8,110.6,51.8,109.9,51.3,109.7z"/>
	</g>
	<g class="st0">
		<path d="M46,106.5l-0.3,0.4c-0.4,0.2-0.9,0.4-1.5,0.4l-0.4,0c-0.5,0.1-0.9,0.3-1.2,0.6c-0.2,0.2-0.2,0.4-0.2,0.6
			c0,0.2,0.1,0.4,0.3,0.5c0.2,0.2,0.5,0.3,0.9,0.3l-0.3,0.4c-0.4-0.1-0.7-0.2-0.9-0.4c-0.3-0.2-0.4-0.5-0.4-0.8
			c0-0.3,0.1-0.6,0.3-0.9c0.2-0.2,0.4-0.4,0.6-0.4c0.2-0.1,0.5-0.2,0.9-0.2l0.3,0c0.6-0.1,1-0.2,1.3-0.4l-1.3-1.1l0.3-0.4L46,106.5z
			"/>
		<path d="M43.4,104.4l-0.3,0.4c-0.4,0.2-0.9,0.4-1.5,0.4l-0.4,0c-0.5,0.1-0.9,0.3-1.2,0.6c-0.2,0.2-0.2,0.4-0.2,0.6
			c0,0.2,0.1,0.4,0.3,0.5c0.2,0.2,0.5,0.3,0.9,0.3l-0.3,0.4c-0.4-0.1-0.7-0.2-0.9-0.4c-0.3-0.2-0.4-0.5-0.4-0.8
			c0-0.3,0.1-0.6,0.3-0.9c0.2-0.2,0.4-0.4,0.6-0.4c0.2-0.1,0.5-0.2,0.9-0.2l0.3,0c0.6-0.1,1-0.2,1.3-0.4l-1.3-1.1l0.3-0.4
			L43.4,104.4z"/>
		<path d="M40,101.4c0.3,0.2,0.4,0.6,0.3,1.1c-0.1,0.5-0.4,1-0.8,1.5c-0.5,0.5-0.9,0.9-1.4,1.1c-0.5,0.2-0.8,0.1-1.1-0.1
			c-0.3-0.3-0.4-0.6-0.3-1.1c0.1-0.5,0.4-1,0.8-1.5c0.5-0.6,0.9-0.9,1.4-1.1C39.3,101.1,39.7,101.2,40,101.4z M39.7,101.8
			c-0.4-0.3-1,0-1.8,1c-0.8,1-1,1.6-0.6,1.9c0.4,0.3,1,0,1.8-1C39.9,102.7,40.1,102.1,39.7,101.8z"/>
	</g>
	<g class="st0">
		<path d="M35.4,96.6L35,96.8c-0.4,0.1-1,0-1.6-0.1L33,96.6c-0.5-0.1-1-0.1-1.3,0.1c-0.2,0.1-0.4,0.3-0.4,0.5
			c-0.1,0.2,0,0.4,0.1,0.6c0.1,0.2,0.4,0.4,0.8,0.6l-0.5,0.3c-0.3-0.2-0.6-0.4-0.7-0.7c-0.2-0.3-0.2-0.6-0.1-0.9
			c0.1-0.3,0.3-0.5,0.6-0.7c0.2-0.1,0.5-0.2,0.7-0.2c0.2,0,0.6,0,1,0.1l0.3,0.1c0.6,0.1,1,0.2,1.4,0l-0.8-1.4l0.5-0.3L35.4,96.6z"/>
		<path d="M33,92.4L31.9,93l0.9,1.5l-0.4,0.2l-3.2-0.1l-0.2-0.4l2.3-1.4L31,92.4l0.4-0.2l0.3,0.4l1.1-0.6L33,92.4z M32.1,94.3
			l-0.6-1.1l-1.7,1L32.1,94.3z"/>
		<path d="M31.6,89.7c0.2,0.3,0.2,0.7-0.1,1.1c-0.3,0.4-0.7,0.8-1.3,1.2c-0.6,0.4-1.2,0.5-1.7,0.5c-0.5,0-0.8-0.2-1-0.5
			c-0.2-0.3-0.2-0.7,0.1-1.2s0.7-0.8,1.3-1.2c0.6-0.4,1.2-0.5,1.7-0.5C31,89.2,31.4,89.4,31.6,89.7z M31.2,90
			c-0.3-0.5-1-0.4-2.1,0.3c-1.1,0.6-1.5,1.2-1.2,1.6c0.3,0.5,0.9,0.4,2-0.3C31,90.9,31.4,90.4,31.2,90z"/>
	</g>
	<g class="st0">
		<path d="M29,83.8l-0.5,0.1c-0.4-0.1-0.9-0.3-1.5-0.6L26.7,83c-0.5-0.3-0.9-0.4-1.3-0.3c-0.2,0-0.4,0.1-0.5,0.3
			c-0.1,0.2-0.2,0.3-0.1,0.6c0,0.3,0.2,0.5,0.5,0.8l-0.5,0.1c-0.2-0.3-0.4-0.6-0.5-0.9c-0.1-0.3,0-0.6,0.2-0.9
			c0.2-0.3,0.5-0.4,0.8-0.5c0.3-0.1,0.5,0,0.7,0c0.2,0.1,0.5,0.2,0.9,0.5l0.2,0.2c0.5,0.3,0.9,0.5,1.3,0.5l-0.3-1.6l0.5-0.1L29,83.8
			z"/>
		<path d="M26,80.5c-0.4-0.2-0.6-0.4-0.7-0.8c-0.1-0.3,0-0.6,0.2-0.9c0.2-0.3,0.5-0.4,0.9-0.5c0.5-0.1,0.9,0,1.2,0.1
			c0.3,0.2,0.5,0.4,0.6,0.8c0.1,0.4-0.1,0.8-0.4,1.1c-0.3,0.3-0.9,0.5-1.6,0.7c-0.8,0.1-1.4,0.1-1.8-0.1c-0.5-0.2-0.8-0.5-0.8-1
			c0-0.2,0-0.5,0-0.9l0.5-0.1c-0.1,0.4-0.1,0.7-0.1,0.9C24.2,80.5,24.8,80.7,26,80.5z M26.7,78.8c-0.3,0.1-0.6,0.2-0.7,0.3
			c-0.2,0.2-0.2,0.4-0.2,0.6c0,0.2,0.2,0.4,0.4,0.5c0.2,0.1,0.4,0.2,0.6,0.1c0.4-0.1,0.6-0.2,0.8-0.4c0.2-0.2,0.3-0.4,0.2-0.6
			c0-0.2-0.2-0.4-0.4-0.5C27.2,78.8,27,78.7,26.7,78.8z"/>
		<path d="M27.7,76c0.1,0.4-0.1,0.7-0.5,1.1c-0.4,0.3-0.9,0.5-1.6,0.7c-0.7,0.1-1.3,0.1-1.7,0c-0.5-0.2-0.7-0.4-0.8-0.8
			c-0.1-0.4,0.1-0.7,0.5-1.1c0.4-0.3,0.9-0.5,1.6-0.7c0.7-0.1,1.3-0.1,1.8,0C27.3,75.4,27.6,75.6,27.7,76z M27.2,76.1
			c-0.1-0.5-0.8-0.7-2-0.4c-1.2,0.2-1.8,0.6-1.7,1.1c0.1,0.5,0.8,0.7,2,0.4C26.7,77,27.3,76.6,27.2,76.1z"/>
	</g>
	<g class="st0">
		<path d="M27.1,69.4l-0.5-0.1c-0.4-0.2-0.8-0.6-1.2-1.1l-0.3-0.3c-0.3-0.4-0.7-0.7-1.1-0.7c-0.2,0-0.5,0-0.6,0.1
			c-0.2,0.1-0.3,0.3-0.3,0.5c0,0.3,0,0.6,0.2,1l-0.5-0.1c-0.1-0.4-0.2-0.7-0.1-1c0-0.4,0.2-0.6,0.5-0.8c0.3-0.2,0.6-0.2,0.9-0.2
			c0.3,0,0.5,0.1,0.7,0.3c0.2,0.1,0.4,0.4,0.7,0.7l0.2,0.2c0.3,0.5,0.7,0.7,1.1,0.9l0.2-1.6l0.5,0.1L27.1,69.4z"/>
		<path d="M25.2,65c-0.4,0.3-0.7,0.5-1.1,0.4c-0.3,0-0.6-0.2-0.8-0.4c-0.2-0.2-0.2-0.5-0.2-0.9c0-0.3,0.2-0.5,0.4-0.7
			c0.2-0.2,0.4-0.2,0.7-0.2c0.4,0.1,0.8,0.3,1.1,0.9c0.4-0.5,0.9-0.7,1.4-0.7c0.4,0.1,0.7,0.2,0.9,0.5c0.2,0.3,0.3,0.6,0.2,1
			c-0.1,0.4-0.2,0.7-0.5,0.8c-0.3,0.2-0.6,0.3-0.9,0.2C25.9,65.9,25.5,65.5,25.2,65z M25.2,64.3c-0.2-0.4-0.5-0.6-0.8-0.7
			c-0.2,0-0.3,0-0.5,0.1c-0.1,0.1-0.2,0.2-0.2,0.4c0,0.2,0,0.3,0.1,0.5c0.1,0.1,0.2,0.2,0.4,0.2c0.2,0,0.3,0,0.5-0.1
			C24.7,64.8,24.9,64.6,25.2,64.3z M25.5,64.8c0.2,0.2,0.3,0.4,0.4,0.5c0.1,0.1,0.3,0.2,0.5,0.2c0.3,0,0.5,0,0.6-0.1
			c0.2-0.1,0.3-0.3,0.3-0.5c0-0.2,0-0.4-0.1-0.6c-0.1-0.2-0.3-0.2-0.5-0.3c-0.2,0-0.3,0-0.5,0.1c-0.1,0.1-0.3,0.2-0.5,0.4L25.5,64.8
			z"/>
		<path d="M28.3,61.6c-0.1,0.4-0.3,0.7-0.8,0.8c-0.5,0.2-1,0.2-1.7,0.1c-0.7-0.1-1.2-0.3-1.6-0.6c-0.4-0.3-0.6-0.6-0.5-1
			c0.1-0.4,0.3-0.7,0.8-0.9c0.5-0.2,1-0.2,1.7-0.1c0.7,0.1,1.3,0.3,1.6,0.6C28.2,60.9,28.3,61.2,28.3,61.6z M27.9,61.6
			c0.1-0.5-0.5-0.9-1.8-1.1c-1.2-0.2-1.9,0-2,0.5c-0.1,0.5,0.5,0.9,1.8,1C27.1,62.3,27.8,62.1,27.9,61.6z"/>
	</g>
	<g class="st0">
		<path d="M30.3,55l-0.5-0.3c0.3-0.2,0.5-0.4,0.7-0.6c0.1-0.2,0.2-0.4,0.1-0.6c-0.1-0.2-0.2-0.4-0.4-0.5c-0.5-0.3-1-0.2-1.4,0.5
			l-0.1,0.2l-0.3-0.2l0.1-0.2c0.4-0.6,0.3-1-0.2-1.3c-0.4-0.2-0.7-0.2-0.9,0.2c-0.1,0.2-0.2,0.5-0.2,0.8l-0.4-0.3
			c0.1-0.3,0.1-0.6,0.3-0.8c0.4-0.7,0.9-0.8,1.5-0.5c0.5,0.3,0.6,0.7,0.6,1.3c0.5-0.4,1-0.5,1.5-0.2c0.4,0.2,0.6,0.5,0.7,0.8
			c0.1,0.3,0,0.7-0.2,1C30.8,54.5,30.6,54.7,30.3,55z"/>
		<path d="M32.7,51.3c-0.2,0.3-0.5,0.5-1,0.5c-0.5,0-1-0.2-1.6-0.6c-0.6-0.4-1-0.8-1.3-1.2c-0.2-0.4-0.3-0.8-0.1-1.2
			c0.2-0.3,0.6-0.5,1-0.5c0.5,0,1,0.2,1.6,0.6c0.6,0.4,1,0.8,1.3,1.2C32.9,50.5,32.9,50.9,32.7,51.3z M32.4,51
			c0.3-0.5-0.1-1-1.2-1.7c-1.1-0.6-1.7-0.7-2-0.3c-0.3,0.5,0.1,1,1.2,1.7C31.4,51.4,32.1,51.5,32.4,51z"/>
		<path d="M34.4,48.4c-0.2,0.3-0.5,0.5-1,0.5c-0.5,0-1-0.2-1.6-0.6c-0.6-0.4-1-0.8-1.3-1.2c-0.2-0.4-0.3-0.8-0.1-1.2
			c0.2-0.3,0.6-0.5,1-0.5s1,0.2,1.6,0.6c0.6,0.4,1,0.8,1.3,1.2S34.6,48.1,34.4,48.4z M34.1,48.2c0.3-0.5-0.1-1-1.2-1.7
			c-1.1-0.6-1.7-0.7-2-0.3c-0.3,0.5,0.1,1,1.2,1.7C33.1,48.5,33.8,48.7,34.1,48.2z"/>
	</g>
	<g class="st0">
		<path d="M38.6,42.8l-0.4-0.4c0.4-0.1,0.7-0.2,0.8-0.4c0.2-0.2,0.3-0.3,0.3-0.6c0-0.2-0.1-0.4-0.3-0.6c-0.4-0.5-0.9-0.5-1.5,0
			L37.5,41l-0.3-0.3l0.1-0.1c0.5-0.5,0.6-0.9,0.2-1.3c-0.3-0.3-0.6-0.4-1-0.1c-0.2,0.2-0.3,0.4-0.5,0.7l-0.3-0.4
			c0.1-0.3,0.3-0.5,0.5-0.7c0.6-0.5,1.1-0.5,1.6,0c0.3,0.4,0.4,0.9,0.1,1.4c0.6-0.3,1.1-0.2,1.5,0.3c0.3,0.3,0.4,0.6,0.4,1
			c0,0.3-0.2,0.6-0.5,0.9C39.2,42.5,39,42.6,38.6,42.8z"/>
		<path d="M41.1,40.7l-0.3-0.4c-0.2-0.4-0.2-0.9-0.2-1.6l0-0.4c0-0.5-0.1-1-0.4-1.3c-0.2-0.2-0.3-0.3-0.5-0.3c-0.2,0-0.4,0-0.5,0.2
			c-0.2,0.2-0.4,0.5-0.5,0.9l-0.3-0.4c0.1-0.4,0.3-0.7,0.6-0.9c0.3-0.2,0.6-0.3,0.9-0.3s0.6,0.2,0.8,0.5c0.2,0.2,0.3,0.4,0.3,0.6
			c0.1,0.2,0.1,0.5,0,1l0,0.3c0,0.6,0,1,0.2,1.3l1.2-1.1l0.3,0.4L41.1,40.7z"/>
		<path d="M44.6,37.8c-0.3,0.3-0.7,0.3-1.1,0.1c-0.5-0.2-0.9-0.5-1.4-1c-0.5-0.5-0.7-1-0.8-1.5c-0.1-0.5,0-0.9,0.3-1.1
			c0.3-0.3,0.7-0.3,1.1-0.1c0.5,0.2,0.9,0.5,1.4,1c0.5,0.5,0.8,1.1,0.9,1.5C45,37.2,44.9,37.6,44.6,37.8z M44.3,37.5
			c0.4-0.4,0.2-1-0.7-2c-0.8-0.9-1.4-1.2-1.8-0.9c-0.4,0.3-0.2,1,0.7,1.9C43.3,37.5,43.9,37.8,44.3,37.5z"/>
	</g>
	<g class="st0">
		<path d="M50.2,33.9L50,33.4c0.4,0,0.7,0,0.9-0.1c0.2-0.1,0.4-0.2,0.5-0.5c0.1-0.2,0.1-0.4,0-0.7c-0.2-0.6-0.7-0.7-1.4-0.5
			l-0.2,0.1l-0.2-0.4l0.2-0.1c0.6-0.3,0.9-0.7,0.6-1.2c-0.2-0.4-0.5-0.5-0.9-0.4c-0.2,0.1-0.5,0.3-0.7,0.5l-0.2-0.5
			c0.2-0.2,0.5-0.4,0.7-0.5c0.7-0.3,1.2-0.1,1.5,0.5c0.2,0.5,0.1,0.9-0.3,1.3c0.6-0.1,1.1,0.2,1.3,0.8c0.2,0.4,0.2,0.7,0,1.1
			c-0.1,0.3-0.4,0.5-0.8,0.7C50.9,33.8,50.6,33.9,50.2,33.9z"/>
		<path d="M54.6,32.1L54.2,31l-1.6,0.6l-0.2-0.4L53,28l0.4-0.2l1,2.5l0.5-0.2l0.2,0.5l-0.5,0.2l0.5,1.2L54.6,32.1z M52.8,31l1.2-0.5
			l-0.7-1.8L52.8,31z"/>
		<path d="M57.4,31.1c-0.4,0.1-0.7,0.1-1.1-0.2s-0.7-0.8-1-1.4c-0.3-0.7-0.4-1.2-0.3-1.7c0.1-0.5,0.3-0.8,0.6-1
			c0.4-0.1,0.7-0.1,1.1,0.2c0.4,0.3,0.7,0.8,1,1.4c0.3,0.7,0.4,1.2,0.3,1.7C58,30.7,57.8,31,57.4,31.1z M57.3,30.7
			c0.5-0.2,0.5-0.9,0-2.1c-0.5-1.2-0.9-1.6-1.4-1.4c-0.5,0.2-0.5,0.9,0,2.1C56.3,30.4,56.8,30.9,57.3,30.7z"/>
	</g>
	<g>
		<path d="M69.2,74.9c-2,0-3.6-1.6-3.6-3.6c0-2,1.6-3.6,3.6-3.6s3.6,1.6,3.6,3.6C72.8,73.3,71.2,74.9,69.2,74.9z M69.2,68.4
			c-1.6,0-2.9,1.3-2.9,2.9c0,1.6,1.3,2.9,2.9,2.9s2.9-1.3,2.9-2.9C72.1,69.7,70.8,68.4,69.2,68.4z"/>
	</g>
	<g>
		<path class="st1" d="M69.4,69.3c-1.1,0-2,0.9-2,2c0,1.1,0.9,2,2,2c1.1,0,2-0.9,2-2C71.4,70.2,70.5,69.3,69.4,69.3z M70.2,72.6
			c-0.3,0-0.6-0.3-0.6-0.6c0-0.3,0.3-0.6,0.6-0.6c0.3,0,0.6,0.3,0.6,0.6C70.8,72.3,70.5,72.6,70.2,72.6z"/>
	</g>
	<g>
		<g>
			<g>
				<path class="st1" d="M98.1,75.2c0-0.1,0-0.1,0-0.2c-0.3,0.1-0.5,0.2-0.7,0.3c-0.1-0.1,0,0.2,0.1,0.3c0,0.1,0,0.3,0.1,0.4
					c0.2,0.5,0.7,1,1,1.4c0.7,0.8,1.5,1.6,2.5,2c2.4,0.9,3.8-2,3.6-4c-0.1-1.5-0.9-2.9-1.1-4.5c-0.2-1.4,0.3-2.7,0.6-4.1
					c0.2-0.9,0.2-1.9-0.3-2.6c-0.6-0.8-1.8-1.2-2.8-1.1c-2.4,0.4-3.6,3.4-4.3,5.4c-0.2,0.5,0.7,0.8,0.8,0.2c0.6-1.8,2-5.4,4.5-4.8
					c1.7,0.4,1.5,2.1,1.1,3.4c-0.3,1.1-0.6,2.1-0.5,3.2c0.1,1.3,0.7,2.5,1,3.8c0.3,1.3,0.3,4.2-1.7,4.2c-1.1,0-2.1-1.1-2.7-1.9
					c-0.3-0.4-0.7-0.8-0.8-1.3c-0.1-0.2-0.1-0.6-0.3-0.8c-0.3-0.2-0.8-0.1-0.7,0.3c0,0.1,0,0.3,0.1,0.4C97.4,76,98.2,75.8,98.1,75.2
					L98.1,75.2z"/>
			</g>
		</g>
	</g>
	<g>
		<path class="st1" d="M96.6,67.3c-1.3,0-2.3,1.9-2.2,4.2c0,2.3,1.1,4.2,2.4,4.1c1.3,0,2.3-1.9,2.2-4.2C99,69.1,97.9,67.3,96.6,67.3
			z"/>
	</g>
	<g>
		<g>
			<g>
				<path d="M103.3,70.9c2.5,0,5,0,7.5,0.1c0.4,0,0.4-0.6,0-0.6c-2.5,0-5,0-7.5-0.1C102.9,70.3,102.9,70.9,103.3,70.9L103.3,70.9z"
					/>
			</g>
		</g>
	</g>
	<g>
		<g>
			<g>
				<path d="M103.9,68.4c-0.8-0.5-1,1.4-0.9,1.8c0,0.3,0.4,0.4,0.5,0.1c0.1-0.3,0.3-0.6,0.4-0.9c-0.2,0-0.4-0.1-0.5-0.1
					c0,0.3,0,0.6,0,0.8c0,0.2,0.3,0.4,0.5,0.2c0.3-0.3,0.4-0.7,0.4-1.2c0-0.4-0.5-0.4-0.6,0c0,0.3,0,0.6,0.2,0.9
					c0.1,0.3,0.7,0,0.5-0.3c-0.1-0.2-0.1-0.4-0.1-0.6c-0.2,0-0.4,0-0.6,0c0,0.3,0,0.6-0.3,0.8c0.2,0.1,0.3,0.1,0.5,0.2
					c0-0.3,0-0.6,0-0.8c0-0.3-0.4-0.4-0.5-0.1c-0.1,0.3-0.3,0.6-0.4,0.9c0.2,0,0.4,0.1,0.5,0.1c0-0.2,0-0.5,0-0.7
					c0-0.1,0-0.2,0.1-0.3c0-0.1,0-0.1,0.1-0.2c0.1-0.1,0-0.1-0.1-0.1C104,69.2,104.2,68.6,103.9,68.4L103.9,68.4z"/>
			</g>
		</g>
	</g>
	<g>
		<g>
			<g>
				<path d="M103.8,69c0.3,0.3,0.7,0.6,1,0.9c0.1-0.2,0.2-0.3,0.3-0.5c-0.3-0.1-0.6-0.3-0.7-0.5c-0.1,0.2-0.2,0.3-0.3,0.5
					c0.4,0.1,0.8,0.2,1.2,0.4c0-0.2,0-0.4,0-0.6c-0.3,0.1-0.7,0.2-1.1,0.2c-0.3,0-0.4,0.6,0,0.6c0.2,0,0.3,0,0.5,0
					c-0.1-0.2-0.1-0.3-0.2-0.5c-0.2,0.2-0.3,0.3-0.5,0.5c-0.2,0.2,0,0.6,0.3,0.5c0.4-0.2,0.6-0.3,0.8-0.7c0.2-0.3-0.2-0.5-0.4-0.4
					c-0.3,0.1-0.3,0.2-0.4,0.4c-0.1,0.2,0,0.4,0.3,0.4c0.4,0,0.7-0.1,1-0.4c0.2-0.2,0-0.5-0.3-0.5c-0.4,0.1-0.5,0.2-0.7,0.6
					c-0.1,0.2,0.1,0.4,0.3,0.4c0.5,0,0.9-0.2,1.1-0.7c0.1-0.3-0.1-0.6-0.4-0.4c-0.3,0.2-0.4,0.4-0.6,0.7c0,0.2,0.1,0.4,0.3,0.4
					c0.5,0,0.8-0.2,1.1-0.7c0.2-0.3-0.2-0.5-0.4-0.4c-0.4,0.2-0.5,0.3-0.7,0.7c0,0.1,0.1,0.3,0.2,0.3c0.6,0.1,1-0.1,1.2-0.7
					c0.1-0.2-0.2-0.4-0.3-0.3c-0.4,0.1-0.8,0.5-0.4,0.9c0.5,0.4,1,0,1.2-0.4c0.1-0.2-0.1-0.5-0.3-0.4c-0.4,0.1-0.8,0.5-0.5,0.9
					c0.4,0.5,1.1,0,1.4-0.2c0.2-0.2,0-0.5-0.3-0.5c-0.3,0.1-0.3,0.1-0.6,0.3c-0.1,0.2-0.1,0.4,0.1,0.5c0.5,0.1,0.8,0.1,1.2-0.1
					c0.2-0.1,0.2-0.4,0-0.5c-0.3-0.2-0.6-0.2-1-0.2c-0.3,0-0.4,0.5-0.1,0.6c0.6,0.2,1.1,0.2,1.7,0.2c0.4,0,0.4-0.6,0-0.6
					c-0.5,0-1-0.1-1.6-0.2c0,0.2,0,0.4-0.1,0.6c0.2,0,0.4,0.1,0.7,0.1c0-0.2,0-0.3,0-0.5c-0.3,0-0.5,0-0.8,0.1
					c0,0.2,0.1,0.3,0.1,0.5c0.1-0.1,0.2-0.1,0.3-0.2c-0.1-0.2-0.2-0.3-0.3-0.5c-0.1,0.1-0.2,0.2-0.3,0.3c-0.1-0.1-0.2-0.3-0.3-0.4
					c-0.1,0.1-0.1,0.2-0.2,0.3c-0.1-0.1-0.2-0.2-0.3-0.3c-0.2,0.1-0.3,0.2-0.5,0.3c0.1,0.1,0.1,0.2,0.2,0.3c0.1-0.1,0.3-0.3,0.4-0.4
					c-0.1-0.1-0.3-0.3-0.4-0.4c-0.2,0.1-0.4,0.2-0.6,0.3c0.1,0.1,0.2,0.3,0.3,0.4c0.1-0.1,0.2-0.2,0.3-0.4c-0.1-0.1-0.3-0.3-0.4-0.4
					c-0.2,0.1-0.4,0.3-0.6,0.4c0.1,0.1,0.2,0.3,0.3,0.4c0.1,0,0.2-0.1,0.3-0.2c-0.1-0.2-0.2-0.3-0.3-0.5c-0.2,0.1-0.4,0.1-0.6,0.2
					c0.1,0.1,0.2,0.3,0.3,0.4c0.1-0.1,0.2-0.1,0.2-0.2c-0.1-0.1-0.3-0.3-0.4-0.4c-0.2,0.1-0.3,0.3-0.5,0.4c0.1,0.2,0.2,0.3,0.3,0.5
					c0.2-0.2,0.3-0.3,0.5-0.5c0.2-0.2,0-0.5-0.2-0.5c-0.2,0-0.3,0-0.5,0c0,0.2,0,0.4,0,0.6c0.4,0,0.8-0.1,1.2-0.3
					c0.3-0.1,0.3-0.5,0-0.6c-0.4-0.2-0.8-0.3-1.2-0.4c-0.3-0.1-0.5,0.3-0.3,0.5c0.3,0.3,0.6,0.5,1,0.7c0.3,0.1,0.5-0.3,0.3-0.5
					c-0.3-0.3-0.7-0.6-1-0.9C104,68.4,103.5,68.8,103.8,69L103.8,69z"/>
			</g>
		</g>
	</g>
	<g>
		<g>
			<g>
				<path d="M103.2,71.9c0.3,0.5,0.5,1,0.6,1.5c0.2,0,0.4-0.1,0.6-0.2c-0.1-0.3-0.1-0.3-0.3-0.6c-0.2-0.3-0.7-0.1-0.5,0.2
					c0.1,0.2,0.1,0.3,0.2,0.5c0.1,0.3,0.5,0.3,0.6,0c0.2-0.6,0.5-1.2-0.2-1.6c0,0.2-0.1,0.4-0.1,0.5c0.5,0,1-0.1,1.6-0.1
					c0-0.2,0-0.4,0-0.6c-0.5,0.1-1,0-1.6,0c0,0.2,0,0.4,0,0.6c0.8,0,1.6-0.1,2.4-0.1c0-0.2,0-0.4-0.1-0.6c-0.6,0.2-1.3,0.4-1.9,0.6
					c-0.4,0.1-0.2,0.6,0.2,0.6c0.6-0.1,1.1-0.2,1.7-0.3c-0.1-0.2-0.1-0.3-0.2-0.5c-0.5,0.3-1,0.5-1.4,0.7c-0.3,0.1-0.2,0.6,0.2,0.6
					c0.4-0.1,0.8-0.2,1.2-0.3c0.3-0.1,0.2-0.7-0.2-0.6c-0.4,0.1-0.9,0.3-1.3,0.4c-0.3,0.1-0.2,0.7,0.2,0.6c0.3-0.1,0.7-0.3,1-0.4
					c0.3-0.1,0.2-0.7-0.2-0.6c-0.3,0-0.5,0.1-0.8,0.1c0,0.2,0,0.4,0.1,0.6c1.1-0.3,2.2-0.6,3.4-0.9c0.4-0.1,0.2-0.6-0.2-0.6
					c-0.7,0.1-1.4,0.2-2,0.3c0,0.2,0.1,0.4,0.2,0.6c0.8-0.2,1.6-0.3,2.4-0.3c0-0.2,0-0.4-0.1-0.6c-0.9,0.2-1.8,0.3-2.7,0.7
					c-0.3,0.1-0.2,0.6,0.2,0.6c1.3-0.2,2.5-0.5,3.7-0.9c0.3-0.1,0.3-0.6-0.1-0.6c-0.2,0-0.3,0-0.5,0.2c-0.3,0.2,0,0.7,0.3,0.5
					c0.1,0,0.1-0.1,0.2-0.1c0-0.2,0-0.4-0.1-0.6c-1.2,0.3-2.5,0.6-3.7,0.9c0,0.2,0.1,0.4,0.2,0.6c0.9-0.3,1.8-0.5,2.7-0.7
					c0.3-0.1,0.2-0.6-0.1-0.6c-0.9,0-1.7,0.1-2.5,0.3c-0.4,0.1-0.2,0.6,0.2,0.6c0.7-0.1,1.4-0.2,2-0.3c0-0.2-0.1-0.4-0.2-0.6
					c-1.1,0.3-2.2,0.6-3.4,0.9c-0.3,0.1-0.3,0.6,0.1,0.6c0.4,0,0.5,0,0.9-0.1c0-0.2-0.1-0.4-0.2-0.6c-0.3,0.1-0.7,0.3-1,0.4
					c0,0.2,0.1,0.4,0.2,0.6c0.4-0.2,0.9-0.3,1.3-0.4c0-0.2-0.1-0.4-0.2-0.6c-0.4,0.1-0.8,0.3-1.2,0.3c0,0.2,0.1,0.4,0.2,0.6
					c0.6-0.2,1.1-0.4,1.6-0.7c0.3-0.2,0.1-0.6-0.2-0.5c-0.6,0.1-1.1,0.2-1.7,0.3c0,0.2,0.1,0.4,0.2,0.6c0.6-0.2,1.3-0.4,1.9-0.6
					c0.3-0.1,0.3-0.6-0.1-0.6c-0.8,0-1.6,0.1-2.4,0.1c-0.4,0-0.4,0.5,0,0.6c0.5,0.1,1,0.1,1.6,0c0.4,0,0.4-0.6,0-0.6
					c-0.5,0-1,0.1-1.6,0.1c-0.3,0-0.4,0.4-0.1,0.5c0,0.3,0,0.7-0.1,1c0.2,0,0.4,0,0.6,0c-0.1-0.2-0.1-0.3-0.2-0.5
					c-0.2,0.1-0.3,0.1-0.5,0.2c0.1,0.2,0.2,0.3,0.3,0.5c0.1,0.3,0.7,0.2,0.6-0.2c-0.1-0.6-0.4-1.1-0.7-1.7
					C103.5,71.3,103.1,71.6,103.2,71.9L103.2,71.9z"/>
			</g>
		</g>
	</g>
	<g>
		<g>
			<g>
				<path d="M111.9,71c-0.1-0.1-0.3-0.2-0.5-0.3c-0.2,0-0.3,0-0.3,0.2c0,0.1,0,0.3,0.2,0.3c0.1,0,0.2,0,0.2,0.1
					c0.1,0.1,0.3,0.1,0.4,0C112,71.3,112,71.2,111.9,71L111.9,71z"/>
			</g>
		</g>
	</g>
	<g>
		<g>
			<g>
				<path d="M104.2,72.9c-0.1,0.1-0.3,0.2-0.4,0.3c0.1,0.2,0.2,0.3,0.3,0.5c0.1,0,0.1-0.1,0.2-0.1c0.1-0.1,0.1-0.3,0-0.4
					c-0.1-0.1-0.3-0.1-0.4,0c-0.1,0-0.1,0.1-0.2,0.1c-0.3,0.2,0.1,0.6,0.3,0.5c0.1-0.1,0.3-0.2,0.4-0.3c0.1-0.1,0.2-0.3,0.1-0.4
					C104.5,72.9,104.3,72.8,104.2,72.9L104.2,72.9z"/>
			</g>
		</g>
	</g>
	<g>
		<g>
			<g>
				<path d="M103.8,68.8c0-0.1-0.1-0.2-0.1-0.3c-0.1-0.3-0.7-0.2-0.6,0.2c0,0.1,0.1,0.2,0.1,0.3C103.3,69.3,103.9,69.2,103.8,68.8
					L103.8,68.8z"/>
			</g>
		</g>
	</g>
	<g>
		<g>
			<g>
				<path d="M112.2,71.6c0.2-0.1,0.4-0.1,0.6-0.1c0.4,0,0.4-0.6,0-0.6c-0.3,0-0.6,0.1-0.9,0.2c-0.1,0.1-0.2,0.3-0.1,0.4
					C111.8,71.7,112,71.7,112.2,71.6L112.2,71.6z"/>
			</g>
		</g>
	</g>
	<g>
		<g>
			<g>
				<path d="M112,71.5c0.1,0,0.3,0,0.4,0.1c0-0.2,0-0.3-0.1-0.5c0,0-0.1,0-0.1,0.1c0.1,0.2,0.2,0.3,0.3,0.5c0,0,0.1,0,0.1-0.1
					c0.1-0.1,0.2-0.3,0.1-0.4c-0.1-0.2-0.3-0.3-0.5-0.3c-0.2,0-0.3,0.1-0.3,0.3c0,0.1,0.1,0.3,0.3,0.3c0.1,0,0,0,0,0
					c0-0.1,0.1-0.3,0.1-0.4c0,0-0.1,0-0.1,0.1C112.1,71.1,112,71.3,112,71.5c0.2,0.1,0.3,0.1,0.5,0.1c0,0,0.1,0,0.1-0.1
					c0.2-0.1,0.2-0.5-0.1-0.5c-0.1,0-0.3,0-0.4-0.1c-0.2,0-0.3,0-0.3,0.2C111.8,71.3,111.9,71.4,112,71.5L112,71.5z"/>
			</g>
		</g>
	</g>
	<g>
		<g>
			<g>
				<path d="M103.1,70.5c0,0.3,0,0.3,0.1,0.7c0.1,0.3,0.6,0.3,0.6-0.1c0-0.3,0-0.3-0.1-0.5c-0.1-0.3-0.6-0.3-0.6,0.1
					c0,0.3,0,0.4,0.2,0.7s0.5,0.1,0.5-0.1c0-0.1,0-0.3,0-0.4c0-0.3-0.5-0.4-0.6-0.1c-0.1,0.9,0.8,0.7,1.1,0.2
					c-0.2-0.1-0.3-0.1-0.5-0.2c-0.1,0.4-0.1,0.4,0.1,0.7c0.1,0.2,0.4,0.2,0.5,0c0.2-0.3,0.2-0.3,0.3-0.6c0.1-0.3-0.4-0.5-0.6-0.2
					c-0.3,0.8,0.9,0.9,1.1,0c0.1-0.3-0.3-0.5-0.5-0.2c-0.9,1.3,1.5,0.8,1.7,1c0.1-0.1,0.2-0.3,0.3-0.4c-0.2,0-0.3,0-0.5,0
					c0,0.2,0,0.4,0.1,0.6c0.7-0.1,1.5-0.1,2.2,0c0-0.2,0-0.4,0-0.6c-0.7,0-1.4-0.1-2-0.2c0,0.2,0,0.4-0.1,0.6c1.3-0.1,2.5-0.1,3.8,0
					c0-0.2,0-0.4,0-0.6c-0.4,0-0.8,0-1.2,0c-0.4,0-0.4,0.6,0,0.6c0.8,0,1.6,0,2.3,0.1c0.4,0,0.4-0.6,0-0.6c-0.8,0-1.6-0.1-2.3-0.1
					c0,0.2,0,0.4,0,0.6c0.4,0,0.8,0,1.2,0c0.4,0,0.4-0.5,0-0.6c-1.3-0.1-2.5-0.2-3.8,0c-0.3,0-0.4,0.5-0.1,0.6
					c0.7,0.1,1.4,0.2,2.2,0.2c0.4,0,0.3-0.5,0-0.6c-0.8-0.1-1.6-0.1-2.4,0.1c-0.3,0.1-0.2,0.6,0.1,0.6c0.2,0,0.3,0,0.5,0
					c0.2,0,0.3-0.3,0.3-0.4c-0.1-0.3-0.2-0.3-0.5-0.4c-0.2-0.1-1.1,0-1.1,0c-0.2-0.1-0.3-0.1-0.5-0.2c0,0.1,0,0.2,0,0.3
					c-0.2,0-0.4-0.1-0.6-0.2c-0.1,0.1-0.2,0.3-0.2,0.4c0.2,0,0.3,0,0.5,0c0-0.1,0-0.2-0.1-0.3c0-0.3-0.3-0.5-0.5-0.2
					c0,0.1,0,0.2-0.1,0.3c-0.2,0-0.4,0-0.6-0.1c0,0.1,0,0.3,0,0.4c0.2,0,0.4-0.1,0.5-0.1c0-0.1,0-0.3-0.1-0.4c-0.2,0-0.4,0-0.6,0.1
					c0,0.1,0,0.2,0,0.3c0.2,0,0.4,0,0.6-0.1c0-0.2-0.1-0.3-0.1-0.5C103.6,70.1,103.1,70.1,103.1,70.5L103.1,70.5z"/>
			</g>
		</g>
	</g>
	<g>
		<g>
			<g>
				<path class="st2" d="M104.9,71.7c0.7,0,0.7-1.2,0-1.2C104.2,70.5,104.2,71.7,104.9,71.7L104.9,71.7z"/>
			</g>
		</g>
	</g>
	<g>
		<g>
			<g>
				<path class="st2" d="M107.4,71.7c0.1,0,0.3,0,0.4,0c0.3,0,0.6-0.3,0.6-0.6c0-0.3-0.3-0.6-0.6-0.6c-0.1,0-0.3,0-0.4,0
					c-0.3,0-0.6,0.3-0.6,0.6C106.9,71.4,107.1,71.7,107.4,71.7L107.4,71.7z"/>
			</g>
		</g>
	</g>
</g>
</svg>
