<?xml version="1.0" encoding="utf-8"?>
<!-- Generator: Adobe Illustrator 24.0.1, SVG Export Plug-In . SVG Version: 6.00 Build 0)  -->
<svg version="1.1" id="Layer_1" xmlns="http://www.w3.org/2000/svg" xmlns:xlink="http://www.w3.org/1999/xlink" x="0px" y="0px"
	 viewBox="0 0 141.7 141.7" style="enable-background:new 0 0 141.7 141.7;" xml:space="preserve">
<style type="text/css">
	.st0{fill:#070707;}
	.st1{fill:#231F20;}
</style>
<g id="Layer_1_1_">
</g>
<g id="Layer_1_2_">
</g>
<g id="Layer_1_3_">
</g>
<g id="Layer_1_4_">
</g>
<g id="Layer_1_5_">
</g>
<g id="Layer_3">
</g>
<g id="Layer_3_1_">
</g>
<g>
	<g>
		<path class="st0" d="M57.4,33.5c-0.5-2.4-1.5-4.8-1.2-7.3c0.4-3,2.9-4.6,5.6-5.5c2.2-0.7,4.5-0.8,6.8-1.2c2.7-0.3,5.3-0.7,8-0.8
			c5.6-0.4,11.2-0.4,16.8-0.3c5.5,0.1,11.1,0.2,16.5,0.6c1.2,0.1,2.4,0.2,3.6,0.3c1.3,0.1,2.8,0.1,4.1,0.6c1.3,0.5,2.7,1.4,3.4,2.6
			c0.7,1.3,1,2.9,1.4,4.3c1.5,5.2,2.2,10.6,2.6,16.1c0.4,5.4,0.4,10.7,0.2,16.1c0,1.3-0.2,2.6-0.1,3.9c0,0.4,0.2,0.8,0.1,1.2
			c-0.2,1-1.1,1.6-1.9,2c-1,0.5-2.1,0.7-3.1,0.9c-1.1,0.3-2.2,0.8-3.3,1.1c-2.9,0.9-6,1.3-9,1.6c-3.1,0.3-6.1,0.7-9.3,0.7
			c-6.3,0-12.6-0.5-18.9,0c-0.2,0-0.2,0.3,0,0.3c6.3-0.5,12.6,0,18.9,0c5.6,0,11.5-0.6,17-1.9c1.3-0.3,2.5-0.8,3.8-1.2
			c1.1-0.3,2.3-0.5,3.4-0.9c0.8-0.3,1.7-0.8,2.3-1.5c0.6-0.7,0.5-1.3,0.5-2.1c-0.1-2.8,0.2-5.7,0.2-8.5c0-3,0-6-0.2-9
			c-0.3-5.8-1-11.6-2.4-17.2c-0.3-1.4-0.8-2.8-1.2-4.2c-0.3-1-0.6-2-1.4-2.7c-1.7-1.7-3.8-2.2-6.1-2.4c-6-0.5-12-0.6-18-0.9
			C90.2,18,84,18,77.8,18.4c-3.3,0.2-6.6,0.6-9.9,1c-2.5,0.3-5,0.5-7.4,1.5c-2.2,0.9-4.2,2.5-4.6,4.9c-0.5,2.6,0.6,5.3,1.2,7.8
			C57.2,33.8,57.5,33.7,57.4,33.5L57.4,33.5z"/>
	</g>
</g>
<g>
	<g>
		<path class="st0" d="M78.5,73.3c9.8-0.1,19.5-0.4,29.3-0.9c4.8-0.3,9.7-0.4,14.5-1c3.7-0.5,2.4-3.9,3-6.5c0.1-0.2-0.3-0.3-0.3-0.1
			c-0.3,1.5,0,3-0.3,4.4c-0.6,2.4-4.2,2-6.1,2.1c-4.4,0.3-8.9,0.6-13.3,0.8c-8.9,0.5-17.8,0.7-26.6,0.8
			C78.3,72.9,78.3,73.3,78.5,73.3L78.5,73.3z"/>
	</g>
</g>
<g>
	<g>
		<path class="st0" d="M54.3,33.4c-0.6-3.4-0.9-6.9-0.9-10.4c0-0.2-0.3-0.2-0.3,0c0,3.5,0.3,7,0.9,10.5C54,33.7,54.3,33.6,54.3,33.4
			L54.3,33.4z"/>
	</g>
</g>
<g>
	<g>
		<path class="st0" d="M57.9,18.6c18.3-2.2,36.6-3.7,55-4.4c0.2,0,0.2-0.3,0-0.3c-18.4,0.7-36.7,2.1-55,4.4
			C57.7,18.3,57.7,18.7,57.9,18.6L57.9,18.6z"/>
	</g>
</g>
<g>
	<g>
		<path class="st0" d="M125.4,20.5c1.2,14.6,2.5,29.2,3.7,43.8c0,0.2,0.3,0.2,0.3,0c-1.2-14.6-2.5-29.2-3.7-43.8
			C125.7,20.3,125.3,20.3,125.4,20.5L125.4,20.5z"/>
	</g>
</g>
<g>
	<g>
		<path class="st0" d="M77.3,75.8c8.8-0.4,17.5-0.7,26.2-1.1c4.5-0.2,8.9-0.4,13.4-0.6c2.2-0.1,4.4-0.1,6.6-0.3
			c0.9-0.1,2.2-0.2,2.8-1c0.5-0.6,0.4-1.5-0.2-2c-0.8-0.7-2-0.5-2.8,0c-0.2,0.1,0,0.4,0.2,0.3c0.9-0.6,3.1-0.6,2.7,1.1
			c-0.3,1.1-1.6,1.3-2.6,1.4c-2.1,0.2-4.2,0.2-6.3,0.3c-4.5,0.2-8.9,0.4-13.4,0.6c-8.8,0.4-17.7,0.7-26.5,1.1
			C77.1,75.5,77.1,75.8,77.3,75.8L77.3,75.8z"/>
	</g>
</g>
<g>
	<g>
		<path class="st0" d="M126.2,71.7c0.1,0.5,0.2,0.9,0.3,1.4c0.1,0.7,0.4,1-0.4,1.2c-0.9,0.3-2.4,0.2-3.4,0.2
			c-2.1,0.1-4.2,0.3-6.3,0.4c-4.4,0.2-8.7,0.4-13.1,0.6c-8.7,0.3-17.4,0.4-26.1,0.4c-0.2,0-0.2,0.3,0,0.3c16.5,0,33.1-0.6,49.6-1.7
			c0.1,0,0.2-0.1,0.2-0.2c-0.2-0.9-0.3-1.8-0.5-2.8C126.5,71.4,126.2,71.5,126.2,71.7L126.2,71.7z"/>
	</g>
</g>
<g>
	<g>
		<path class="st0" d="M54.6,27.6c-0.1-0.2,0.1-0.5,0.3-0.5c0,0-0.1,0-0.1-0.1c0.2,0.2,0.2,0.6-0.1,0.8c0.1,0,0.2,0.1,0.2,0.1
			c-0.1-0.2-0.2-0.5-0.2-0.7c-0.1-0.2-0.4-0.1-0.3,0.1c0.1,0.2,0.2,0.5,0.2,0.7c0,0.1,0.2,0.2,0.2,0.1c0.4-0.3,0.6-0.9,0.2-1.3
			c-0.2-0.2-0.5,0-0.6,0.1c-0.2,0.2-0.3,0.4-0.2,0.7C54.4,27.9,54.7,27.9,54.6,27.6L54.6,27.6z"/>
	</g>
</g>
<g>
	<g>
		<path class="st0" d="M54.9,20.5c-0.3,0.2-0.3-0.2-0.2-0.4c0-0.1,0.1-0.2,0.2-0.3c0.1-0.1,0.3-0.2,0.4-0.2c0.4-0.1,0.7,0.1,0.8,0.5
			c0.1,0.3-0.1,0.7-0.4,0.8c-0.4,0.1-0.8-0.3-0.7-0.7c0.1-0.2-0.3-0.3-0.3-0.1c-0.2,0.6,0.5,1.3,1.1,1.1c0.6-0.2,0.7-1,0.4-1.5
			c-0.3-0.6-1.2-0.6-1.6-0.2c-0.3,0.2-0.5,0.6-0.3,1c0.1,0.3,0.5,0.4,0.7,0.2C55.2,20.7,55,20.4,54.9,20.5L54.9,20.5z"/>
	</g>
</g>
<g>
	<g>
		<path class="st0" d="M121.3,16.3c0.2-0.4,0.6-0.8,1.1-0.9c0.5-0.1,1.1,0.2,1.2,0.7c0.1,0.6-0.5,0.9-1,0.9c-0.2,0-0.4,0-0.6-0.1
			c-0.1,0-0.9-0.3-0.6-0.6c0.2-0.2-0.1-0.4-0.2-0.2c-0.5,0.6,0.4,1.1,0.9,1.1c0.7,0.1,1.6,0.1,1.8-0.7c0.2-0.6-0.3-1.3-0.9-1.5
			c-0.8-0.2-1.6,0.4-2,1C120.9,16.3,121.2,16.5,121.3,16.3L121.3,16.3z"/>
	</g>
</g>
<g>
	<g>
		<path class="st0" d="M116,16.1c-0.1-0.2,0.1-0.6,0.3-0.5c0.3,0.1,0,0.4-0.1,0.2C116.1,15.7,115.9,16,116,16.1
			c0.2,0.2,0.5,0.1,0.7,0c0.2-0.2,0.2-0.5-0.1-0.7c-0.2-0.2-0.5-0.2-0.7,0c-0.2,0.2-0.3,0.5-0.2,0.8C115.8,16.4,116.1,16.4,116,16.1
			L116,16.1z"/>
	</g>
</g>
<g>
	<g>
		<path class="st0" d="M123,22.2c-0.1-0.2,0.2-0.6,0.5-0.4c0.2,0.2,0,0.6-0.3,0.6c0.1,0.1,0.1,0.1,0.1,0.2c0-0.2,0-0.5,0-0.7
			c0-0.2-0.3-0.2-0.3,0c0,0.2,0,0.5,0,0.7c0,0.1,0.1,0.2,0.1,0.2c0.6,0.1,1-0.8,0.6-1.2c-0.5-0.4-1.3,0.3-1,0.9
			C122.8,22.5,123.1,22.3,123,22.2L123,22.2z"/>
	</g>
</g>
<g>
	<g>
		<path class="st0" d="M127,69.9c-0.1-0.5,0.3-1.1,0.9-1.2c0.4,0,0.8,0.4,0.8,0.8c0.1,1-1.4,1-1.6,0.1c0-0.2-0.3-0.1-0.3,0.1
			c0.1,0.6,0.7,1,1.3,0.9c0.6-0.1,1-0.7,0.9-1.2c-0.1-0.6-0.6-1.1-1.3-1c-0.7,0.1-1.2,0.8-1.1,1.6C126.7,70.2,127,70.1,127,69.9
			L127,69.9z"/>
	</g>
</g>
<g>
	<g>
		<path class="st0" d="M127.1,64.5c0-0.2,0.4-0.3,0.5-0.1c0.2,0.2-0.2,0.5-0.4,0.3c-0.2-0.1-0.4,0.1-0.2,0.2c0.4,0.4,1.2-0.1,1-0.7
			c-0.2-0.4-1-0.4-1.1,0.1C126.7,64.6,127,64.7,127.1,64.5L127.1,64.5z"/>
	</g>
</g>
<g>
	<g>
		<path class="st0" d="M125,75.2c-1.1,12.3-1.6,24.7-1.6,37.1c0,0.2,0.3,0.2,0.3,0c0-12.4,0.6-24.7,1.6-37.1
			C125.4,75,125,75,125,75.2L125,75.2z"/>
	</g>
</g>
<g>
	<g>
		<path class="st0" d="M122.8,75.7c-0.7,12.1-1.3,24.2-2,36.4c0,0.2,0.3,0.2,0.3,0c0.7-12.1,1.3-24.2,2-36.4
			C123.2,75.5,122.8,75.5,122.8,75.7L122.8,75.7z"/>
	</g>
</g>
<g>
	<g>
		<path class="st0" d="M120.4,116.9c0.7-0.3,1.3-0.5,2.1-0.6c0.4,0,0.7-0.1,1.1,0c0.1,0,0.2,0,0.4,0c0.6-0.1,0.9,0.2,0.8,0.9
			c0.2,0.9,0.2,0.9-0.6,1.1c-0.3,0.1-0.6,0.1-0.8,0.2c-0.3,0.1-0.7,0.1-1.1,0.1c-0.2,0-0.4,0-0.6-0.1c-0.7-0.1-1-0.6-0.8-1.4
			c0.2,0,0.2-0.3,0-0.3c-1.1-0.1-0.3,1.5,0.1,1.8c1,0.7,2.9,0.3,4-0.2c0.9-0.4,1.2-1.3,0.4-2c-1.2-1-3.6-0.4-4.9,0.2
			C120.2,116.7,120.3,117,120.4,116.9L120.4,116.9z"/>
	</g>
</g>
<g>
	<g>
		<path class="st0" d="M120.3,117.2c0-1.7,0.2-3.3,0.6-4.9c0.1-0.2-0.3-0.3-0.3-0.1c-0.4,1.6-0.6,3.3-0.6,5
			C119.9,117.4,120.3,117.4,120.3,117.2L120.3,117.2z"/>
	</g>
</g>
<g>
	<g>
		<path class="st0" d="M125.1,116.9c-0.4-1.7-0.9-3.3-1.6-4.9c-0.1-0.2-0.4-0.1-0.3,0.1c0.7,1.6,1.2,3.2,1.6,4.9
			C124.8,117.2,125.2,117.2,125.1,116.9L125.1,116.9z"/>
	</g>
</g>
<g>
	<g>
		<path class="st0" d="M121.5,112.5c-0.2-0.2-0.4-0.3-0.6-0.5c-0.2-0.1-0.4,0.1-0.2,0.2c0.7,0.8,2.1,0.6,2.5-0.3
			c0.1-0.2-0.2-0.3-0.3-0.2c-0.4,0.7-1.5,0.9-2,0.2c-0.1,0.1-0.2,0.2-0.2,0.2c0.2,0.2,0.4,0.3,0.6,0.5
			C121.4,112.9,121.7,112.6,121.5,112.5L121.5,112.5z"/>
	</g>
</g>
<g>
	<g>
		<path class="st0" d="M120.7,112.3c0.1-0.9,0.2-1.8,0.1-2.6c-0.1-0.8-1.1-3.4,0.2-3.6c0.2-0.1,0.1-0.4-0.1-0.3
			c-0.7,0.2-1,0.7-0.9,1.5c0,0.5,0.3,1.1,0.4,1.6c0.2,1.2,0.3,2.3,0.1,3.5C120.4,112.4,120.7,112.5,120.7,112.3L120.7,112.3z"/>
	</g>
</g>
<g>
	<g>
		<path class="st0" d="M91,108.6c9.3-0.6,18.7-1.1,28-1.7c0.2,0,0.2-0.3,0-0.3c-9.3,0.6-18.7,1.1-28,1.7
			C90.8,108.3,90.8,108.6,91,108.6L91,108.6z"/>
	</g>
</g>
<g>
	<g>
		<path class="st0" d="M124,107c1.2-0.1,2.5-0.3,3.7-0.4c0.2,0,0.2-0.3,0-0.3c-1.2,0.1-2.5,0.3-3.7,0.4
			C123.8,106.7,123.8,107,124,107L124,107z"/>
	</g>
</g>
<g>
	<g>
		<path class="st0" d="M108.4,72.5c-1.3-0.3-2.8-0.3-4,0.4c-0.7,0.3-0.7,1.1,0,1.4c0.6,0.3,1.5,0.1,2.2,0.1c0.6,0,1.3,0.1,1.9-0.1
			c0.6-0.3,0.8-1.2,0.1-1.5c-0.2-0.1-0.4,0.2-0.2,0.3c0.1,0.7-0.1,1-0.5,1c-0.2,0-0.3,0-0.5,0c-0.3,0-0.7,0-1,0c-0.3,0-0.6,0-0.8,0
			c-0.2,0-0.3,0-0.5,0c-0.4,0.1-0.6,0-0.6-0.4c-0.2-0.6,0.1-0.5,0.6-0.7c0.3-0.1,0.6-0.2,0.9-0.2c0.8-0.1,1.6-0.1,2.3,0.1
			C108.6,72.9,108.6,72.6,108.4,72.5L108.4,72.5z"/>
	</g>
</g>
<g>
	<g>
		<path class="st0" d="M110.4,73.6c0-0.5,0.7-0.5,1.1-0.5c0.2,0,0.3,0.1,0.3,0.3c0,0.1-0.2,0.3-0.3,0.3c-0.3,0.1-0.7-0.2-0.9-0.4
			C110.5,73.2,110.3,73.5,110.4,73.6c0.4,0.2,1,0.6,1.5,0.3c0.3-0.2,0.5-0.7,0.2-0.9c-0.3-0.3-0.9-0.2-1.2-0.1
			c-0.4,0.1-0.7,0.3-0.7,0.8C110.1,73.8,110.4,73.8,110.4,73.6L110.4,73.6z"/>
	</g>
</g>
<g>
	<g>
		<path class="st0" d="M74.1,28.4c-0.1,2.5,0,4.9,0.2,7.4c0,0.2,0.3,0.2,0.3,0c-0.2-2.5-0.2-4.9-0.2-7.4
			C74.5,28.2,74.1,28.2,74.1,28.4L74.1,28.4z"/>
	</g>
</g>
<g>
	<g>
		<path class="st0" d="M75.6,27.9c0.1,2.3,0.2,4.7,0.3,7c0,0.2,0.3,0.2,0.3,0c-0.1-2.3-0.2-4.7-0.3-7C75.9,27.7,75.5,27.7,75.6,27.9
			L75.6,27.9z"/>
	</g>
</g>
<g>
	<g>
		<path class="st0" d="M77.8,26.8c-0.2,2.6-0.1,5.3,0.1,7.9c0,0.2,0.3,0.2,0.3,0c-0.3-2.6-0.3-5.3-0.1-7.9
			C78.2,26.6,77.8,26.6,77.8,26.8L77.8,26.8z"/>
	</g>
</g>
<g>
	<g>
		<path class="st0" d="M79.9,26.6c-0.1,2.8,0,5.5,0.3,8.3c0,0.2,0.3,0.2,0.3,0c-0.3-2.7-0.4-5.5-0.3-8.3
			C80.3,26.4,79.9,26.4,79.9,26.6L79.9,26.6z"/>
	</g>
</g>
<g>
	<g>
		<path class="st0" d="M85.9,26.8c0.2,2.2,0.3,4.5,0.5,6.7c0,0.2,0.3,0.2,0.3,0c-0.2-2.2-0.3-4.5-0.5-6.7
			C86.3,26.6,85.9,26.6,85.9,26.8L85.9,26.8z"/>
	</g>
</g>
<g>
	<g>
		<path class="st0" d="M88.2,28.1c-0.2,1.6-0.2,3.3,0,4.9c0,0.2,0.3,0.2,0.3,0c-0.2-1.6-0.2-3.3,0-4.9
			C88.6,27.9,88.2,27.9,88.2,28.1L88.2,28.1z"/>
	</g>
</g>
<g>
	<g>
		<path class="st0" d="M89.9,27c-0.1,1.9,0.1,3.8,0.4,5.7c0,0.2,0.3,0.1,0.3-0.1c-0.3-1.8-0.4-3.7-0.3-5.6
			C90.3,26.8,89.9,26.8,89.9,27L89.9,27z"/>
	</g>
</g>
<g>
	<g>
		<path class="st0" d="M92.7,27c0,1.8,0.1,3.6,0.1,5.5c0,0.2,0.3,0.2,0.3,0c0-1.8-0.1-3.6-0.1-5.5C93,26.8,92.7,26.8,92.7,27
			L92.7,27z"/>
	</g>
</g>
<g>
	<g>
		<path class="st0" d="M100.7,27.7c0,1.9,0,3.7,0,5.6c0,0.2,0.3,0.2,0.3,0c0-1.9,0-3.7,0-5.6C101,27.5,100.7,27.5,100.7,27.7
			L100.7,27.7z"/>
	</g>
</g>
<g>
	<g>
		<path class="st0" d="M102.9,26.8c-0.2,2-0.3,4-0.3,6c0,0.2,0.3,0.2,0.3,0c0-2,0.1-4,0.3-6C103.3,26.6,103,26.6,102.9,26.8
			L102.9,26.8z"/>
	</g>
</g>
<g>
	<g>
		<path class="st0" d="M104.3,27c0,1.8,0,3.6,0,5.5c0,0.2,0.3,0.2,0.3,0c0-1.8,0-3.6,0-5.5C104.7,26.8,104.3,26.8,104.3,27L104.3,27
			z"/>
	</g>
</g>
<g>
	<g>
		<path class="st0" d="M107,26.8c-0.2,2.1-0.4,4.2-0.7,6.3c0,0.2,0.3,0.2,0.3,0c0.2-2.1,0.4-4.2,0.7-6.3
			C107.3,26.6,107,26.6,107,26.8L107,26.8z"/>
	</g>
</g>
<g>
	<g>
		<path class="st0" d="M81.5,39.7c0.1,1.9,0.2,3.7,0.3,5.6c0,0.2,0.3,0.2,0.3,0c-0.1-1.9-0.2-3.7-0.3-5.6
			C81.8,39.5,81.5,39.4,81.5,39.7L81.5,39.7z"/>
	</g>
</g>
<g>
	<g>
		<path class="st0" d="M83.8,39.8c-0.3,1.8-0.4,3.5-0.2,5.3c0,0.2,0.4,0.2,0.3,0c-0.2-1.8-0.2-3.5,0.2-5.2
			C84.1,39.7,83.8,39.6,83.8,39.8L83.8,39.8z"/>
	</g>
</g>
<g>
	<g>
		<path class="st0" d="M85.5,40.2c0,1.9,0,3.7,0,5.6c0,0.2,0.3,0.2,0.3,0c0-1.9,0-3.7,0-5.6C85.9,40,85.5,40,85.5,40.2L85.5,40.2z"
			/>
	</g>
</g>
<g>
	<g>
		<path class="st0" d="M87.3,39.7c0,2,0.2,4,0.5,6c0,0.2,0.3,0.1,0.3-0.1c-0.3-2-0.5-3.9-0.5-5.9C87.6,39.4,87.3,39.4,87.3,39.7
			L87.3,39.7z"/>
	</g>
</g>
<g>
	<g>
		<path class="st0" d="M94.2,39.1c0,1.8,0,3.6,0,5.5c0,0.2,0.3,0.2,0.3,0c0-1.8,0-3.6,0-5.5C94.6,38.9,94.2,38.9,94.2,39.1
			L94.2,39.1z"/>
	</g>
</g>
<g>
	<g>
		<path class="st0" d="M96,39.8c0,1.7,0,3.4,0.1,5.1c0,0.2,0.3,0.2,0.3,0c-0.1-1.7-0.1-3.4-0.1-5.1C96.4,39.6,96,39.6,96,39.8
			L96,39.8z"/>
	</g>
</g>
<g>
	<g>
		<path class="st0" d="M98.4,39.7c-0.2,1.9-0.3,3.7-0.2,5.6c0,0.2,0.3,0.2,0.3,0c-0.1-1.9-0.1-3.7,0.2-5.6
			C98.7,39.5,98.4,39.5,98.4,39.7L98.4,39.7z"/>
	</g>
</g>
<g>
	<g>
		<path class="st0" d="M100.2,39c0.2,2.1,0.2,4.1,0,6.1c0,0.2,0.3,0.2,0.3,0c0.2-2.1,0.2-4.1,0-6.1C100.5,38.8,100.1,38.8,100.2,39
			L100.2,39z"/>
	</g>
</g>
<g>
	<g>
		<path class="st0" d="M88.4,51.6c0.1,2.1,0.2,4.1,0.4,6.2c0,0.2,0.3,0.2,0.3,0c-0.2-2.1-0.4-4.1-0.4-6.2
			C88.7,51.4,88.4,51.4,88.4,51.6L88.4,51.6z"/>
	</g>
</g>
<g>
	<g>
		<path class="st0" d="M90.7,51.3c0,2.1,0.1,4.1,0.1,6.1c0,0.2,0.3,0.2,0.3,0c0-2.1-0.1-4.1-0.1-6.1C91,51,90.7,51,90.7,51.3
			L90.7,51.3z"/>
	</g>
</g>
<g>
	<g>
		<path class="st0" d="M92.4,51.4c0.1,2,0.2,4,0.3,6c0,0.2,0.3,0.2,0.3,0c-0.1-2-0.2-4-0.3-6C92.7,51.2,92.4,51.2,92.4,51.4
			L92.4,51.4z"/>
	</g>
</g>
<g>
	<g>
		<path class="st0" d="M94.7,51.4c0.1,2.2,0.2,4.3,0.3,6.5c0,0.2,0.3,0.2,0.3,0c-0.1-2.2-0.2-4.3-0.3-6.5
			C95.1,51.2,94.7,51.2,94.7,51.4L94.7,51.4z"/>
	</g>
</g>
<g>
	<g>
		<path class="st0" d="M73.2,35.6c3.6-3.2,7.4-6.2,11.4-8.8c0.2-0.1,0-0.4-0.2-0.3c-4.1,2.6-7.9,5.6-11.4,8.8
			C72.8,35.5,73,35.7,73.2,35.6L73.2,35.6z"/>
	</g>
</g>
<g>
	<g>
		<path class="st0" d="M84.6,34c3.2-2.1,6.4-4.2,9.7-6.3c0.2-0.1,0-0.4-0.2-0.3c-3.2,2.1-6.4,4.2-9.7,6.3
			C84.2,33.8,84.4,34.1,84.6,34L84.6,34z"/>
	</g>
</g>
<g>
	<g>
		<path class="st0" d="M99.3,33c2.9-2.2,6.1-3.9,9.5-5.1c0.2-0.1,0.1-0.4-0.1-0.3c-3.5,1.2-6.7,2.9-9.6,5.1
			C98.9,32.9,99.1,33.2,99.3,33L99.3,33z"/>
	</g>
</g>
<g>
	<g>
		<path class="st0" d="M80.9,45.7c2.2-1.8,4.5-3.3,7-4.5c0.2-0.1,0-0.4-0.2-0.3c-2.5,1.3-4.9,2.8-7.1,4.6
			C80.5,45.6,80.7,45.9,80.9,45.7L80.9,45.7z"/>
	</g>
</g>
<g>
	<g>
		<path class="st0" d="M92.9,45.3c3.8-2.6,7.7-4.8,11.9-6.7c0.2-0.1,0-0.4-0.2-0.3c-4.1,1.9-8.1,4.1-11.9,6.7
			C92.6,45.1,92.7,45.4,92.9,45.3L92.9,45.3z"/>
	</g>
</g>
<g>
	<g>
		<path class="st0" d="M81.7,71.6c-0.2-0.2-0.6-0.1-0.8,0.1c-0.2,0.3-0.1,0.7,0.2,0.8c0.3,0.2,0.7,0.1,0.9-0.2
			c0.1-0.1,0.2-0.3,0.1-0.5c0-0.2-0.3-0.3-0.5-0.4c-0.2-0.1-0.3,0.2-0.2,0.3c0.1,0.1,0.3,0.1,0.4,0.2c0,0-0.1-0.1-0.1-0.1
			c0.1,0.3-0.3,0.6-0.6,0.3c-0.2-0.2,0.1-0.5,0.3-0.3C81.7,72,81.8,71.7,81.7,71.6L81.7,71.6z"/>
	</g>
</g>
<g>
	<g>
		<path class="st0" d="M87.8,71.1c-0.4,0.1-2.3,0.2-1.7,1.1c0.2,0.4,1.3,0.5,1.6,0.6c0.7,0.1,1.5,0.1,2.2,0c0.5-0.1,2-0.4,1.4-1.2
			c-0.2-0.3-0.5-0.3-0.8-0.4c-0.9-0.2-2.1-0.1-3-0.1c-0.2,0-0.2,0.3,0,0.3c0.7,0,1.5,0,2.2,0c0.2,0,0.4,0,0.6,0
			c0.1,0.3,0.1,0.6,0.2,0.8c-0.1,0.2-1.2,0.2-1.3,0.2c-0.7,0-1.4,0-2-0.2c-0.2,0-0.4-0.1-0.5-0.3c-0.3-0.2-0.2-0.3,0.2-0.3
			c0.3-0.2,0.8-0.2,1.1-0.3C88.1,71.4,88,71.1,87.8,71.1L87.8,71.1z"/>
	</g>
</g>
<g>
	<g>
		<path class="st0" d="M84.5,73.9c-0.4-0.1-0.7,0.4-0.6,0.8c0.1,0.5,0.7,0.6,1.1,0.5c0.4-0.1,0.8-0.5,0.6-1
			c-0.2-0.4-0.8-0.5-1.1-0.2c-0.1,0.2,0.1,0.4,0.2,0.2c0.2-0.2,0.6-0.2,0.6,0.2c0,0.3-0.3,0.4-0.5,0.5c-0.2,0-0.5,0-0.6-0.3
			c-0.1-0.2,0.1-0.4,0.3-0.4C84.7,74.2,84.7,73.9,84.5,73.9L84.5,73.9z"/>
	</g>
</g>
<g>
	<g>
		<path class="st0" d="M122.3,72.2c-0.4-0.1-1.2,0.2-0.8,0.7c0.4,0.5,1.3,0.1,1.7-0.2c0.1-0.1,0.1-0.2,0.1-0.2
			C123,72.1,122.5,72,122.3,72.2c-0.3,0.1-0.1,0.4,0.1,0.3c0.2-0.1,0.4-0.1,0.6,0.1c0-0.1,0-0.2,0.1-0.2c-0.3,0.2-0.6,0.4-1,0.4
			c-0.2,0-0.4-0.1-0.2-0.2c0.1-0.1,0.3-0.1,0.4,0C122.5,72.5,122.5,72.2,122.3,72.2L122.3,72.2z"/>
	</g>
</g>
<g>
	<g>
		<path class="st1" d="M73,114c4.9-3.9,6.5-10.3,6.3-16.3c-0.1-3.8-1-7.5-1.8-11.2c-0.5-2.3-1.1-4.6-1.3-6.9
			C76,77.5,76,75.4,76,73.4c0.1-2.4,0.4-4.9,0.2-7.3c-0.1-2.3-0.7-4.5-1.5-6.6c-0.1-0.4-0.8-0.2-0.6,0.2c0.9,2.6,1.6,5.2,1.5,7.9
			c-0.1,2.5-0.3,5-0.2,7.5c0,5.2,1.3,10,2.3,15c1.6,8,2,17.8-5.1,23.4C72.2,113.8,72.7,114.2,73,114L73,114z"/>
	</g>
</g>
<g>
	<g>
		<path class="st1" d="M47.5,123.5c6.9-1.5,13.7-3.7,20.2-6.5c0.4-0.2,0.1-0.7-0.3-0.6c-6.4,2.8-13.1,5-20,6.5
			C46.9,122.9,47.1,123.5,47.5,123.5L47.5,123.5z"/>
	</g>
</g>
<g>
	<g>
		<path class="st1" d="M23.4,50.4c-3.2,5.9-1.2,12.5-0.7,18.8c0.3,3.5,0,7-0.9,10.4c-0.8,3.2-2,6.3-3,9.4c-1,3.2-1.8,6.4-2.1,9.7
			c-0.2,1.7-0.2,3.4-0.1,5c0,0.8,0.1,1.7,0.2,2.5c0.1,0.6,0.5,2,0.4,2.6c-0.4,1.1-2.1,1.4-2.8,2.4c-0.4,0.6-0.7,1.3,0,1.8
			c0.3,0.2,0.7,0.2,1.1,0.2c0.8,0.1,1.4,0.1,2.1,0.5c1.3,0.8,2.1,2.2,3,3.4c3.6,4.9,9.4,7.6,15.4,7.3c0.4,0,0.4-0.7,0-0.7
			c-5.8,0.3-11.4-2.3-14.9-7c-1.1-1.5-2.3-3.5-4.2-4c-0.3-0.1-1.3-0.1-1.5-0.2c-0.1-0.2-0.1-0.4-0.2-0.6c-0.3-0.4-0.3-0.7,0.1-0.9
			c0.3-0.3,0.8-0.5,1.2-0.7c0.8-0.3,1.2-0.5,1.3-1.4c0-0.7-0.3-1.6-0.3-2.3c-0.1-0.7-0.2-1.5-0.2-2.3c-0.1-1.7-0.1-3.4,0-5
			c0.2-3.4,0.9-6.6,2-9.9c1.8-5.8,4.1-11.4,4.1-17.5c0.1-7.1-3.2-14.8,0.4-21.5C24.2,50.4,23.6,50,23.4,50.4L23.4,50.4z"/>
	</g>
</g>
<g>
	<g>
		<path class="st1" d="M67.8,45.6c-0.3-1.5-1.4-2.5-2.5-3.3c-1.7-1.2-3.5-2.3-5.4-3.1c-3.5-1.6-7.2-2.5-11-2.7
			c-6.5-0.4-13.3,1.3-18.5,5.3c-3,2.3-5.3,5.2-7,8.5c-0.2,0.4,0.4,0.7,0.6,0.3c3.6-7.1,10.2-11.8,18-13.1c4.4-0.8,9-0.5,13.3,0.7
			c2.3,0.6,4.5,1.5,6.5,2.7c2,1.1,4.8,2.6,5.4,5C67.3,46.2,67.9,46,67.8,45.6L67.8,45.6z"/>
	</g>
</g>
<path class="st0" d="M65,51.5c-0.6-1.1-0.1-2.5,0.9-3c1.1-0.6,2.5-0.1,3,1.1c0.6,1.1,0.1,2.5-0.9,3C66.9,53.2,65.5,52.7,65,51.5z
	 M68.6,50.8c-0.2-0.3-0.6-0.4-0.8-0.3c-0.3,0.2-0.4,0.6-0.3,0.9s0.6,0.4,0.8,0.3C68.7,51.4,68.8,51.1,68.6,50.8z"/>
<g>
	<g>
		<path class="st1" d="M67.5,45.1c4-0.9,8.3,1.4,10.1,5c1.9,3.6,0.3,8.7-4.2,9.1c-0.4,0.1-0.4,0.7,0,0.7c4.5-0.4,6.7-5.3,5.1-9.3
			c-1.7-4.3-6.7-7.1-11.3-6.1C66.9,44.6,67.1,45.2,67.5,45.1L67.5,45.1z"/>
	</g>
</g>
<g>
	<g>
		<path class="st1" d="M69.7,62.1c0.8-0.2,1.4,0.3,2.2,0.5c0.6,0.1,1-0.1,1.4-0.5c0.8-0.9,0.8-2.2,0.2-3.2c-0.1-0.2-0.4,0-0.3,0.2
			c0.7,1.1,0.4,3.5-1.3,3.1c-0.8-0.2-1.4-0.7-2.2-0.4C69.4,61.9,69.5,62.2,69.7,62.1L69.7,62.1z"/>
	</g>
</g>
<g>
	<path class="st1" d="M73.4,58.9c-0.1,0.4-0.5,0.7-1,0.8c-0.4,0.1-0.9-0.1-1.3-0.2c-0.7-0.2-1.5-0.4-2.2-0.7c-0.7-0.2-1.4-0.4-2-0.9
		c-0.6-0.5-0.8-1.3-0.5-1.9c0.2-0.3,0.5-0.6,0.8-0.8c1.3-0.8,3.1-0.9,4.4-0.2c1.3,0.8,2.1,2.5,1.6,3.9"/>
</g>
<g>
	<g>
		<path class="st1" d="M66.6,55.7c-1.5,0.7-3.1,2.2-2.5,4.1c0.9,2.4,4.2,2,6.1,2.3c0.2,0,0.3-0.3,0.1-0.3c-1.7-0.2-4,0.1-5.4-1.3
			c-1.7-1.7,0.2-3.8,1.8-4.5C66.9,55.8,66.8,55.6,66.6,55.7L66.6,55.7z"/>
	</g>
</g>
<g>
	<g>
		<path class="st1" d="M66.8,61.8c-0.1,1.4-0.1,3.9,1.6,4.5c1.7,0.6,1.6-3.4,1.5-4.2c0-0.2-0.3-0.2-0.3,0c0.1,0.8,0.1,1.6-0.1,2.4
			c-0.1,0.3-0.1,0.8-0.3,1.1c-0.4,0.6-0.9,0.3-1.3-0.1c-0.8-1-0.8-2.5-0.7-3.7C67.2,61.6,66.8,61.6,66.8,61.8L66.8,61.8z"/>
	</g>
</g>
<g>
	<g>
		<path class="st1" d="M68.9,66.5c2-0.3,3.2-2.3,2.3-4.2c-0.1-0.2-0.4,0-0.3,0.2c0.8,1.7-0.2,3.4-2,3.7
			C68.7,66.2,68.7,66.5,68.9,66.5L68.9,66.5z"/>
	</g>
</g>
<g>
	<g>
		<path class="st0" d="M30.6,80.6c2.3,0.5,4.1,2.3,5.3,4.3c0.9,1.5,1.7,4.2-0.8,4.4c-0.2,0-0.2,0.3,0,0.3c2.2-0.2,2.4-2.1,1.7-3.9
			c-1-2.5-3.3-4.9-6-5.5C30.5,80.3,30.4,80.6,30.6,80.6L30.6,80.6z"/>
	</g>
</g>
<g>
	<g>
		<path class="st0" d="M33.6,87.3c0.5,0.6,1.3,1.8,0.7,2.5c-0.8,0.9-2.4,0.1-3-0.6c-1.2-1.2-2.1-3-2.5-4.7c-0.1-0.2-0.4-0.1-0.3,0.1
			c0.5,2,1.9,5.4,4.2,5.9c2.6,0.5,2.5-2,1.2-3.4C33.7,86.9,33.5,87.1,33.6,87.3L33.6,87.3z"/>
	</g>
</g>
<g>
	<g>
		<path class="st0" d="M70.8,113.2c-2.5-0.3-2.6,2.4-3.7,4c-0.1,0.1,0.1,0.3,0.2,0.2c2.2-0.4,7.5,3,8.2-0.9c0.4-2.5-3.7-3.1-5.4-3.3
			c-0.2,0-0.2,0.3,0,0.3c1.7,0.2,6.5,1.1,4.6,3.8c-1.6,2.2-5.4-0.6-7.5-0.2c0.1,0.1,0.1,0.2,0.2,0.2c1-1.4,1.2-4,3.5-3.8
			C71,113.6,71,113.2,70.8,113.2L70.8,113.2z"/>
	</g>
</g>
<g>
	<g>
		<path class="st0" d="M74.9,117.3c-0.1-1.4-1.4-2.1-2.6-2.2c-0.2,0-0.2,0.3,0,0.3c1.1,0.1,2.2,0.7,2.3,1.9
			C74.6,117.5,74.9,117.5,74.9,117.3L74.9,117.3z"/>
	</g>
</g>
<g>
	<g>
		<path class="st0" d="M43.2,120.3c-3.2-1.6-4.8,2.1-7.1,3.6c-0.1,0.1-0.1,0.3,0,0.3c3.6,0.6,7.6,7.1,11.2,3.4
			c3-3.1-2.8-6.5-5.1-7.6c-0.2-0.1-0.4,0.2-0.2,0.3c2.4,1.2,8.8,5.3,4.1,7.9c-1.9,1-3.9-0.6-5.4-1.7c-1.4-1-2.8-2.2-4.5-2.5
			c0,0.1,0,0.2,0,0.3c2.2-1.4,3.8-5.1,6.8-3.6C43.2,120.7,43.4,120.4,43.2,120.3L43.2,120.3z"/>
	</g>
</g>
<g>
	<g>
		<path class="st0" d="M46.7,127.8c0.6-1.9-0.8-3.4-2.4-4.2c-0.2-0.1-0.3,0.2-0.2,0.3c1.5,0.8,2.8,2.1,2.2,3.9
			C46.3,127.9,46.7,128,46.7,127.8L46.7,127.8z"/>
	</g>
</g>
<g>
	<g>
		<path class="st0" d="M30.9,40.9c-3.5-2.2-9.2-3.3-11.8,0.7c-2.4,3.6-1.2,9,3.3,10.2c0.4,0.1,0.6-0.5,0.2-0.6
			c-4.2-1.1-5.1-6.3-2.7-9.5c2.5-3.4,7.7-2.1,10.7-0.2C30.9,41.7,31.2,41.1,30.9,40.9L30.9,40.9z"/>
	</g>
</g>
<path class="st0" d="M22.8,44.9c0.1-1,1.1-1.8,2.1-1.7c1.1,0.1,1.8,1,1.7,2s-1.1,1.8-2.1,1.7C23.4,46.9,22.7,45.9,22.8,44.9z"/>
<path class="st0" d="M74,52.5c-0.5-1.2,0-2.5,1.2-3c1.1-0.5,2.5,0.1,2.9,1.3c0.5,1.2,0,2.5-1.2,3C75.8,54.2,74.5,53.6,74,52.5z
	 M77.7,51.9c-0.1-0.3-0.5-0.5-0.8-0.4s-0.5,0.5-0.3,0.8s0.5,0.5,0.8,0.4C77.7,52.6,77.8,52.3,77.7,51.9z"/>
<g>
	<g>
		<path class="st1" d="M69.1,55.4c1.8-2.4,1.6-5.7-0.2-8c-1.9-2.6-5.2-3.7-8.3-3.9c-3.3-0.2-6.9,1.4-8.5,4.4
			c-1.5,2.7-0.2,6.2,1.6,8.3c2.6,2.9,6.7,3.8,10.3,2.6c0.4-0.1,0.2-0.8-0.2-0.6c-3.6,1.2-7.8,0.2-10.1-3c-1.1-1.5-1.8-3.3-1.6-5.1
			c0.2-2.1,1.8-3.6,3.5-4.7c3.1-2,7.7-1.3,10.8,0.7c3,2,4.5,6.1,2.1,9.2C68.3,55.4,68.8,55.7,69.1,55.4L69.1,55.4z"/>
	</g>
</g>
<g>
	<g>
		<path class="st0" d="M75.9,69.5c2.3-0.2,6.5-1,7.3-3.7c0.1-0.2-0.3-0.3-0.3-0.1c-0.7,2.5-4.8,3.2-6.9,3.4
			C75.7,69.2,75.7,69.5,75.9,69.5L75.9,69.5z"/>
	</g>
</g>
<g>
	<g>
		<path class="st0" d="M79.8,65.7c1-0.3,3.1-1.3,1.8-2.5c-1.5-1.5-4.3-0.2-5.8,0.6c-0.2,0.1,0,0.4,0.2,0.3c1.2-0.6,2.5-1.2,3.8-1.2
			c0.3,0,0.7,0,1,0.2c0.7,0.3,0.9,1.2,0.3,1.7c-0.4,0.3-0.9,0.5-1.4,0.6C79.5,65.5,79.6,65.8,79.8,65.7L79.8,65.7z"/>
	</g>
</g>
<g>
	<g>
		<path class="st0" d="M49,36.5c-0.9-2.6-4-3.7-6.5-3.4c-2.8,0.3-5.1,2.4-5.8,5.1c-0.1,0.4,0.5,0.6,0.6,0.2c0.6-2.2,2.3-4,4.5-4.5
			c2.3-0.6,5.7,0.2,6.6,2.8C48.5,37,49.2,36.9,49,36.5L49,36.5z"/>
	</g>
</g>
<g>
	<g>
		<path class="st0" d="M80.6,62.8c0-0.8,0.1-1.6,0.4-2.3c0.1-0.2,0.2-0.4,0.3-0.7c0.7,0,1,0.3,1,0.8c0.1,0.3,0.1,0.7,0.1,0.9
			c0,0.3,0.1,0.7,0.2,1c0.2,0.4,2,2.7,0.4,2.7c-0.2,0-0.2,0.3,0,0.3c0.7,0,1.1-0.6,1-1.3c-0.1-0.7-0.8-1.2-1-1.9
			c-0.3-0.7-0.1-1.5-0.3-2.2c-0.2-0.6-0.7-1.3-1.4-0.8c-0.8,0.6-1,2.5-1,3.4C80.2,63,80.6,63,80.6,62.8L80.6,62.8z"/>
	</g>
</g>
<g>
	<g>
		<path class="st0" d="M81.8,59.5c0.8,0,1.1,1.3,1.4,1.8c0.3,0.8,1.5,2.4,0.4,3c-0.2,0.1,0,0.4,0.2,0.3c1.1-0.6,0.4-1.9,0-2.8
			c-0.4-0.8-0.8-2.6-2-2.7C81.6,59.2,81.6,59.5,81.8,59.5L81.8,59.5z"/>
	</g>
</g>
<g>
	<g>
		<path class="st0" d="M80.7,65.2c0.2,0.5,0.6,0.7,1.1,0.8c0.7,0.1,1.3-0.3,1.9-0.7c0.2-0.1,0-0.4-0.2-0.3c-0.6,0.4-2,1.3-2.5,0.1
			C81,64.9,80.7,65,80.7,65.2L80.7,65.2z"/>
	</g>
</g>
<g>
	<g>
		<path class="st0" d="M79.4,113.7c-0.4-0.1-0.9,0.1-1,0.4c-0.2,0.6,0.5,0.7,0.9,0.7c0.4,0,1.1-0.2,1-0.8c-0.1-0.4-0.7-0.5-0.8-0.1
			c-0.1,0.2,0.2,0.3,0.3,0.2c0.1-0.2,0.3,0.1,0.2,0.2c-0.1,0.1-0.2,0.2-0.3,0.2c-0.2,0.1-0.4,0-0.6,0c-0.2,0-0.4-0.2-0.2-0.3
			c0.1-0.1,0.3-0.1,0.5-0.1C79.6,114,79.6,113.7,79.4,113.7L79.4,113.7z"/>
	</g>
</g>
<g>
	<g>
		<path class="st0" d="M80.9,116.6c-0.7-0.4-1,0.7-0.1,1c0.4,0.2,1.1,0.2,1.5,0.2c0.7,0.1,1.4,0.2,2.1,0.3c0.8,0.1,1.5,0.1,2-0.5
			c0.1-0.1,0.1-0.2,0-0.3c-0.8-0.4-1.5-0.7-2.4-0.8c-0.8-0.1-2.1,0.2-2.8-0.1C80.9,116.3,80.7,116.6,80.9,116.6
			c0.5,0.3,0.8,0.3,1.3,0.2c0.9-0.1,1.9,0,2.8,0.3c1.8,0.6-0.1,0.7-0.8,0.7c-0.4-0.1-0.9-0.1-1.4-0.2c-0.9-0.1-1.2-0.2-2-0.7
			C80.9,117,81.1,116.7,80.9,116.6L80.9,116.6z"/>
	</g>
</g>
<g>
	<g>
		<path class="st0" d="M82.1,114c0.3,0.3,0.8,0.3,1.1,0c0.1-0.1,0.1-0.2,0-0.2c-0.3-0.3-0.7-0.3-1.1-0.1c-0.2,0.1,0,0.4,0.2,0.3
			c0.2-0.1,0.5-0.1,0.7,0.1c0-0.1,0-0.2,0-0.2c-0.2,0.2-0.4,0.2-0.6,0C82.1,113.6,81.9,113.8,82.1,114L82.1,114z"/>
	</g>
</g>
<g>
	<g>
		<path class="st0" d="M35.2,38.7c-1.3-1.9-2.8-3.7-4.4-5.3c-0.2-0.2-0.4,0.1-0.2,0.2c1.6,1.6,3.1,3.4,4.4,5.2
			C35,39,35.3,38.9,35.2,38.7L35.2,38.7z"/>
	</g>
</g>
<g>
	<g>
		<path class="st0" d="M36.2,38.5c-0.2-1.1-0.5-2.1-0.7-3.2c-0.1-0.2-0.4-0.1-0.3,0.1c0.2,1.1,0.5,2.1,0.7,3.2
			C35.9,38.9,36.2,38.8,36.2,38.5L36.2,38.5z"/>
	</g>
</g>
<g>
	<g>
		<path class="st0" d="M23,75.6c7.8,3,16.2,3.4,24.4,2.8c4.2-0.3,8.3-0.9,12.5-1.5c1-0.2,2-0.3,3-0.4c1.1-0.2,2.8-0.7,3.9,0
			c1,0.6,1.3,2.1,1.6,3.1c0.4,1.1,0.8,2.2,1.2,3.3c0.1,0.2,0.3,0.2,0.3,0c1-3.4,0.2-7.1,1.8-10.3c1.1-2.4,4-4,4-6.9
			c0-0.2-0.3-0.2-0.3,0c0.1,3-3.3,4.9-4.2,7.6c-1.1,3.1-0.6,6.5-1.5,9.6c0.1,0,0.2,0,0.3,0c-0.7-1.8-1.1-4.1-2.1-5.7
			c-0.8-1.2-2.1-1.2-3.4-1c-4.6,0.6-9.3,1.4-13.9,1.9c-9.2,0.9-18.7,0.9-27.4-2.5C22.9,75.2,22.8,75.5,23,75.6L23,75.6z"/>
	</g>
</g>
<g>
	<g>
		<path class="st0" d="M17.2,99.7c1.8,3,4.8,4.9,8.1,6.2c4.1,1.6,8.5,2.5,12.9,3c9.5,1.1,19.3,0.2,28.6-2c4.5-1.1,8.9-2.6,12.5-5.7
			c0.2-0.1-0.1-0.4-0.2-0.2c-3.2,2.8-7.2,4.3-11.3,5.4c-4.4,1.1-8.8,1.9-13.3,2.3c-8.8,0.9-17.9,0.4-26.4-2.1
			c-4.1-1.2-8.2-3.1-10.5-6.9C17.3,99.4,17,99.5,17.2,99.7L17.2,99.7z"/>
	</g>
</g>
<g>
	<g>
		<path class="st0" d="M69.6,85c-0.1-0.2,0.1-0.5,0.3-0.6c0.2-0.1,0.4,0.1,0.4,0.3C70.5,85.3,69.8,85.4,69.6,85
			c-0.1-0.2-0.4-0.1-0.3,0.1c0.2,0.4,0.5,0.6,0.9,0.4c0.4-0.1,0.6-0.5,0.5-0.9c-0.1-0.4-0.4-0.7-0.8-0.6c-0.4,0.1-0.7,0.6-0.6,1
			C69.3,85.3,69.7,85.2,69.6,85L69.6,85z"/>
	</g>
</g>
<g>
	<g>
		<path class="st0" d="M70.2,89c-0.2-0.1-0.1-0.3,0-0.5c0.2-0.2,0.5,0,0.7,0.1c0.2,0.2,0.3,0.5,0.1,0.7c-0.1,0.2-0.4,0.2-0.5-0.1
			c0-0.2-0.3-0.1-0.3,0.1c0.1,0.4,0.6,0.6,0.9,0.3c0.4-0.3,0.3-0.9,0.1-1.3c-0.3-0.3-0.9-0.6-1.2-0.2c-0.3,0.3-0.3,0.8,0.1,1
			C70.2,89.4,70.4,89.1,70.2,89L70.2,89z"/>
	</g>
</g>
</svg>
