<?xml version="1.0" encoding="utf-8"?>
<!-- Generator: Adobe Illustrator 24.0.1, SVG Export Plug-In . SVG Version: 6.00 Build 0)  -->
<svg version="1.1" id="Layer_1" xmlns="http://www.w3.org/2000/svg" xmlns:xlink="http://www.w3.org/1999/xlink" x="0px" y="0px"
	 viewBox="0 0 141.7 141.7" style="enable-background:new 0 0 141.7 141.7;" xml:space="preserve">
<style type="text/css">
	.st0{fill:#070707;}
</style>
<g id="Layer_1_1_">
</g>
<g id="Layer_1_2_">
</g>
<g id="Layer_1_3_">
</g>
<g id="Layer_1_4_">
</g>
<g id="Layer_1_5_">
</g>
<g id="Layer_3">
</g>
<g id="Layer_3_1_">
</g>
<g id="Layer_1_6_">
</g>
<g id="Layer_2_1_">
	<g>
		<g>
			<g>
				<path class="st0" d="M85.3,78.3c-1.3,1.6-2.7,3.3-3,5.4c-0.2,1.3,0.1,3,1.4,3.6c1.2,0.5,2.6,0,3.8-0.3c1.8-0.5,3.3-0.5,5.2,0
					c1.3,0.4,2.8,1,4.1,0.5c1.3-0.5,2.1-2.1,1.9-3.5c-0.4-3-4.1-4.5-6.5-5.4c-0.2-0.1-0.3,0.3-0.1,0.4c2.3,0.8,5.6,2.2,6.2,4.8
					c0.4,2-1.1,3.7-3.1,3.5c-1.3-0.1-2.5-0.7-3.8-1c-2-0.4-3.8,0.5-5.8,0.8c-2,0.3-3-0.9-2.9-2.8c0.1-2.1,1.6-4,2.9-5.6
					C85.7,78.4,85.4,78.1,85.3,78.3L85.3,78.3z"/>
			</g>
		</g>
	</g>
	<g>
		<g>
			<g>
				<path class="st0" d="M93.2,87.3c0.7,1.7,1.1,4,0.4,5.7c-0.5,1.3-2.2,2.2-3.5,1.3c-0.6-0.4-0.8-1.1-1.1-1.7
					c-0.1-0.2-0.4,0-0.3,0.2c0.4,0.7,0.7,1.7,1.4,2.1c0.9,0.4,2,0.2,2.8-0.3c2.2-1.5,1.5-5.3,0.7-7.3C93.5,87,93.1,87.1,93.2,87.3
					L93.2,87.3z"/>
			</g>
		</g>
	</g>
	<g>
		<path class="st0" d="M93.8,78.3c0-1.6-2.4-3-5.3-3c-2.9,0-5.3,1.3-5.3,3s2.4,3,5.3,3C91.4,81.2,93.8,79.9,93.8,78.3z"/>
	</g>
	<g>
		<g>
			<g>
				<path class="st0" d="M88.8,86.5c0.1,1.3,0.1,2.6,0.1,3.9c0,0.9,0,1.9-0.3,2.8c-0.2,0.8-0.2,0.9-1.1,1.1
					c-0.8,0.2-0.8,0.3-1.1-0.3c-0.9-1.8-0.6-4.6-0.2-6.5c0-0.2-0.3-0.3-0.4-0.1c-0.3,1.6-0.4,3.3-0.2,4.9c0.1,0.9,0.3,2.3,1.2,2.7
					c3,1.4,2.4-7.4,2.3-8.6C89.1,86.2,88.8,86.2,88.8,86.5L88.8,86.5z"/>
			</g>
		</g>
	</g>
	<g>
		<g>
			<g>
				<path class="st0" d="M24.9,39c0-2.2,1.1-4.2,2.9-5.4c0.4-0.3,0-0.9-0.4-0.7c-2,1.4-3.3,3.6-3.3,6.1C24.1,39.5,24.9,39.5,24.9,39
					L24.9,39z"/>
			</g>
		</g>
	</g>
	<g>
		<g>
			<g>
				<path class="st0" d="M31.9,42.2c-0.6-0.2-0.7-0.6-0.3-1c0.1-0.1,0.1-0.2,0.2-0.3c0.2-0.4,0.5-0.8,0.7-1.2c0.2-0.3,0.4-0.7,0.7-1
					c0.1-0.2,0.2-0.3,0.3-0.5c0.2-0.4,0.5-0.5,1-0.4c-0.2,0.4,0.4,0.8,0.7,0.4c0.3-0.7-0.2-1.5-1-1.4c-1.2,0.1-1.9,2-2.4,2.8
					c-0.5,0.8-1.7,2.2-0.9,3.2c0.4,0.6,1.4,0.6,1.7-0.1C32.7,42.1,32.1,41.8,31.9,42.2L31.9,42.2z"/>
			</g>
		</g>
	</g>
	<g>
		<g>
			<g>
				<path class="st0" d="M24.5,39.6c2.2,0.8,4.3,1.9,6.3,3.2c0.4,0.3,0.8-0.4,0.4-0.7c-2-1.3-4.2-2.4-6.5-3.3
					C24.3,38.8,24.1,39.5,24.5,39.6L24.5,39.6z"/>
			</g>
		</g>
	</g>
	<g>
		<g>
			<g>
				<path class="st0" d="M27.7,33.4c2.3,0.7,4.6,2.4,6.7,3.6c0.4,0.2,0.8-0.4,0.4-0.7c-2.2-1.3-4.4-3-6.9-3.7
					C27.4,32.6,27.3,33.3,27.7,33.4L27.7,33.4z"/>
			</g>
		</g>
	</g>
	<g>
		<g>
			<g>
				<path class="st0" d="M32.1,42.4C42.1,48.5,52.4,54,63,59c0.4,0.2,0.8-0.4,0.4-0.7c-10.6-5-20.9-10.5-30.9-16.6
					C32,41.5,31.7,42.2,32.1,42.4L32.1,42.4z"/>
			</g>
		</g>
	</g>
	<g>
		<g>
			<g>
				<path class="st0" d="M34.8,38.4c9.3,5.6,18.7,11,28.4,16c0.4,0.2,0.8-0.4,0.4-0.7c-9.6-5-19.1-10.4-28.4-16
					C34.7,37.5,34.3,38.1,34.8,38.4L34.8,38.4z"/>
			</g>
		</g>
	</g>
	<g>
		<g>
			<g>
				<path class="st0" d="M32.2,41.4c-0.4-0.1-0.7-0.3-0.9-0.6c-0.1-0.1-0.4-0.1-0.5,0c-0.1,0.1-0.1,0.4,0,0.5
					c0.3,0.4,0.7,0.7,1.2,0.8C32.5,42.3,32.7,41.6,32.2,41.4L32.2,41.4z"/>
			</g>
		</g>
	</g>
	<g>
		<g>
			<g>
				<path class="st0" d="M64.1,58.9c-0.5-0.5-0.4-1.2-0.2-1.9c0.1-0.3,0.1-0.7,0.3-0.9c0.1-0.2,0.3-0.4,0.5-0.5
					c0.7-0.2,0.9,0,0.7,0.6c-0.3,0.4,0.2,0.9,0.5,0.5c0.4-0.4,0.4-1.1,0-1.5c-0.5-0.5-1.3-0.4-1.8-0.1c-0.7,0.5-0.9,1.5-1,2.3
					c-0.1,0.8-0.1,1.6,0.5,2.1C63.9,59.8,64.4,59.2,64.1,58.9L64.1,58.9z"/>
			</g>
		</g>
	</g>
	<g>
		<g>
			<g>
				<path class="st0" d="M63.7,58.9c-0.7,0.2-1.2,0.9-1.2,1.7c0,0.8,0.7,1.4,1.5,1.4s1.5-0.5,1.5-1.3c0.1-0.8-0.4-1.5-1.2-1.7
					c-0.5-0.1-0.7,0.6-0.2,0.7c0.9,0.2,0.9,1.6-0.1,1.6c-1,0-1-1.4-0.1-1.6C64.3,59.5,64.1,58.7,63.7,58.9L63.7,58.9z"/>
			</g>
		</g>
	</g>
	<g>
		<g>
			<g>
				<path class="st0" d="M64.9,59.5c0.3-1,0.7-4.1,2.4-3.1c1,0.5,0.9,1.8,0.4,2.7c-0.2,0.4-0.5,0.8-0.8,1.1
					c-0.1,0.1-1.1,1.2-1.1,0.5c0-0.5-0.7-0.5-0.7,0c0,1.3,1.4,1.1,2,0.4c1-1,2-2.6,1.5-4.1c-0.4-1-1.5-1.8-2.5-1.4
					c-1.4,0.6-1.7,2.5-2,3.7C64.1,59.8,64.8,60,64.9,59.5L64.9,59.5z"/>
			</g>
		</g>
	</g>
	<g>
		<g>
			<g>
				<path class="st0" d="M67.5,60.8c2.4,1.5,4.8,2.9,7.1,4.4C76,66,77,66.6,78,64.9c1-1.8-0.6-2.4-1.9-3.2c-2.4-1.5-4.9-3-7.3-4.4
					c-0.4-0.2-0.8,0.4-0.4,0.7c1.5,0.9,3.1,1.9,4.6,2.8c0.9,0.5,4.9,2.3,4.4,3.6c-0.2,0.5-1.1,0.8-1.5,0.7c-0.3,0-0.9-0.6-1.2-0.7
					c-0.7-0.4-1.4-0.9-2.1-1.3c-1.6-1-3.2-2-4.8-2.9C67.5,59.9,67.1,60.5,67.5,60.8L67.5,60.8z"/>
			</g>
		</g>
	</g>
	<g>
		<g>
			<g>
				<path class="st0" d="M77.1,66c0.6,0.4,1.2,0.9,1.9,1.3c0.4,0.3,0.9,0.8,1.4,0.8c1,0.1,1.7-1.6,2-2.3c0.1-0.2,0-0.4-0.1-0.5
					c-1.2-0.9-2.5-1.5-4-1.9c-0.5-0.1-0.7,0.6-0.2,0.7c1.4,0.3,2.7,0.9,3.8,1.8c0-0.2-0.1-0.3-0.1-0.5c-0.2,0.4-0.4,0.9-0.6,1.2
					c-0.5,0.6-0.9,0.7-1.5,0.2c-0.7-0.5-1.5-1-2.2-1.5C77.1,65.1,76.7,65.8,77.1,66L77.1,66z"/>
			</g>
		</g>
	</g>
	<g>
		<g>
			<g>
				<path class="st0" d="M47.9,51.3c-0.7,0.9-1.3,1.9-2.1,2.6c-0.6,0.5-1.5,0.9-1.9,1.7c-0.4,0.7-0.3,1.7,0.5,2.1
					c0.8,0.4,2.5,0.2,3-0.7c0.4-0.8-0.1-1.7-0.9-1.7c0.1,0.2,0.2,0.4,0.3,0.6c0.8-1.2,1.7-2.3,2.8-3.2c0.4-0.3-0.1-0.8-0.5-0.5
					c-1.2,1-2.1,2.1-2.9,3.3C46,55.7,46.3,56,46.5,56c-0.1,0.8-0.4,1.1-0.9,1.1c-0.1,0-0.2,0-0.3,0c-0.7-0.1-1-0.5-0.7-1.1
					c0.3-0.6,1.1-1,1.6-1.4c0.9-0.8,1.7-1.9,2.4-2.9C48.8,51.2,48.2,50.9,47.9,51.3L47.9,51.3z"/>
			</g>
		</g>
	</g>
	<g>
		<g>
			<g>
				<path class="st0" d="M43.9,57.3c-0.7-0.1-1.3-0.2-1.8,0.4c-0.8,1-1.2,2.6-1.7,3.7c-1.2,2.6-2.4,5.2-3.6,7.8
					c-2.6,5.5-5.1,10.9-7.7,16.4c-5.1,11-10,22.2-14.9,33.3c-0.2,0.4,0.4,0.8,0.7,0.4c4.6-10.5,9.2-21,14-31.5
					c2.3-5.1,4.7-10.1,7-15.1c1.2-2.6,2.4-5.2,3.6-7.8c0.6-1.2,1.1-2.4,1.7-3.6c0.3-0.7,0.6-1.4,1-2.1c0.5-0.8,0.7-1.2,1.7-1.2
					C44.4,58.1,44.4,57.3,43.9,57.3L43.9,57.3z"/>
			</g>
		</g>
	</g>
	<g>
		<g>
			<g>
				<path class="st0" d="M15.5,119.3c5-10.1,9.5-20.5,14.4-30.7c5-10.3,10.2-20.6,15.2-30.9c0.2-0.4-0.4-0.8-0.7-0.4
					c-5,10.3-10.2,20.6-15.2,30.9c-4.9,10.2-9.4,20.6-14.4,30.7C14.6,119.3,15.2,119.7,15.5,119.3L15.5,119.3z"/>
			</g>
		</g>
	</g>
	<g>
		<g>
			<g>
				<path class="st0" d="M44.5,57.7c0.6,5.2,1.9,10.4,3.1,15.5c1.2,5.2,2.4,10.3,3.7,15.5c2.5,10.5,5,21.1,7.5,31.6
					c0.1,0.5,0.8,0.3,0.7-0.2C55.6,99,51.5,78,47,57.1c-0.1-0.5-0.8-0.3-0.7,0.2c4.5,21,8.6,42,12.5,63.1c0.2-0.1,0.5-0.1,0.7-0.2
					c-2.4-10.3-4.9-20.7-7.3-31c-1.2-5.2-2.4-10.3-3.7-15.5c-1.2-5.2-2.6-10.5-3.2-15.9C45.2,57.3,44.4,57.3,44.5,57.7L44.5,57.7z"
					/>
			</g>
		</g>
	</g>
	<g>
		<g>
			<g>
				<path class="st0" d="M47,59.2c8.9,20.4,18.3,40.6,28.4,60.5c0.2,0.4,0.8,0.1,0.7-0.3c-4.5-11-9.1-22-13.6-33
					C60.2,81,58,75.6,55.7,70.2c-2.1-5-4.4-9.7-7.7-13.9c-0.3-0.4-0.9,0-0.7,0.4c3.4,4.5,5.8,9.4,8,14.5c2.2,5.3,4.4,10.7,6.6,16.1
					c4.4,10.8,8.9,21.6,13.4,32.5c0.2-0.1,0.4-0.2,0.7-0.3c-10-19.9-19.5-40.1-28.4-60.5C47.4,58.4,46.8,58.8,47,59.2L47,59.2z"/>
			</g>
		</g>
	</g>
	<g>
		<g>
			<g>
				<path class="st0" d="M48.4,56.5c0.4-1.3,1.2-2.4,2.4-3.1c0.4-0.2,0-0.9-0.4-0.7c-1.4,0.8-2.3,2-2.7,3.5
					C47.5,56.8,48.2,57,48.4,56.5L48.4,56.5z"/>
			</g>
		</g>
	</g>
	<g>
		<g>
			<g>
				<path class="st0" d="M32.7,42.1c0.2-1.3,0.7-3.6,2.5-3.3c0.5,0.1,0.7-0.7,0.2-0.7c-2.3-0.4-3.1,2-3.3,3.8
					C31.9,42.4,32.6,42.6,32.7,42.1L32.7,42.1z"/>
			</g>
		</g>
	</g>
	<g>
		<g>
			<g>
				<path class="st0" d="M112.2,122.1c4.9-0.3,10.1-2.6,12.2-7.3c2.7-5.9-0.1-11.7-2-17.3c-2.3-6.5-2.3-13.5-3.3-20.3
					c-0.9-5.7-2.4-12.3-8.1-15.1c-3.1-1.5-7-1-10.4-0.7c-3.3,0.4-6.3,1.3-9.3,2.8c-0.4,0.2-0.1,0.9,0.4,0.7c2.5-1.3,5.2-2.2,8.1-2.6
					c3-0.4,6.5-0.9,9.4-0.1c6.2,1.6,8.1,8.7,9.1,14.2c1,6,1.2,12.1,2.5,18c1.3,5.4,4.6,10.5,4,16.2c-0.7,6.6-6.2,10.4-12.6,10.8
					C111.7,121.4,111.7,122.1,112.2,122.1L112.2,122.1z"/>
			</g>
		</g>
	</g>
	<g>
		<g>
			<g>
				<path class="st0" d="M86.4,94.8c-1,4.4-1.4,8.8-1,13.3c0.3,3.2,0.8,6.5,2.7,9.1c4.2,5.9,12.2,5.6,18.6,5.4c0.5,0,0.5-0.8,0-0.7
					c-6.2,0.3-14.2,0.6-18.2-5.3c-1.8-2.6-2.3-5.9-2.5-9c-0.3-4.2,0.1-8.4,1-12.6C87.2,94.5,86.5,94.3,86.4,94.8L86.4,94.8z"/>
			</g>
		</g>
	</g>
	<g>
		<path class="st0" d="M90.7,79c-2.7,0-4.9-3.3-4.9-7.4s2.2-7.4,4.9-7.4s4.9,3.3,4.9,7.4S93.4,79,90.7,79z M90.7,64.7
			c-2.5,0-4.5,3.1-4.5,6.9s2,6.9,4.5,6.9c2.5,0,4.5-3.1,4.5-6.9S93.2,64.7,90.7,64.7z"/>
	</g>
	<g>
		<g>
			<path class="st0" d="M84.5,76.6c0-0.1,0.1-0.1,0.1-0.2c-1.4-1.1-2.3-3.2-2.3-5.6c0-3.6,2-6.5,4.5-6.5c0.8,0,1.5,0.3,2.2,0.8
				c0.1-0.1,0.3-0.1,0.4-0.2c-0.8-0.7-1.7-1.1-2.6-1.1c-2.7,0-4.9,3.1-4.9,6.9c0,2.6,1,4.8,2.5,6C84.4,76.7,84.4,76.6,84.5,76.6z"/>
		</g>
	</g>
	<g>
		<path class="st0" d="M83.5,69.8c0.7,0.7,1.7,0.7,2.3,0c0.7-0.7,0.7-1.7,0-2.3c-0.7-0.7-1.7-0.7-2.3,0
			C82.9,68.1,82.9,69.1,83.5,69.8z M85,67.4c0.2,0.2,0.2,0.5,0,0.7c-0.2,0.2-0.5,0.2-0.7,0c-0.2-0.2-0.2-0.5,0-0.7
			C84.5,67.2,84.8,67.2,85,67.4z"/>
	</g>
	<g>
		<path class="st0" d="M87,70.1c0.7,0.7,1.7,0.7,2.3,0c0.7-0.7,0.7-1.7,0-2.3c-0.7-0.7-1.7-0.7-2.3,0C86.3,68.4,86.3,69.4,87,70.1z
			 M88.4,67.7c0.2,0.2,0.2,0.5,0,0.7c-0.2,0.2-0.5,0.2-0.7,0c-0.2-0.2-0.2-0.5,0-0.7C87.9,67.5,88.2,67.5,88.4,67.7z"/>
	</g>
	<g>
		<g>
			<g>
				<path class="st0" d="M111.7,62.6c2.3-1.4,6.2-2.4,8.1,0.3c1.8,2.5,1.1,6.6-2.2,7.5c-0.5,0.1-0.3,0.8,0.2,0.7
					c3.6-1,4.6-5.3,2.8-8.3c-2-3.3-6.4-2.6-9.3-0.9C110.9,62.3,111.3,62.9,111.7,62.6L111.7,62.6z"/>
			</g>
		</g>
	</g>
	<g>
		<path class="st0" d="M117.5,65.5c-0.1-0.8-0.8-1.5-1.6-1.4c-0.8,0.1-1.5,0.8-1.4,1.6c0.1,0.8,0.8,1.5,1.6,1.4
			C117,67.1,117.6,66.4,117.5,65.5z"/>
	</g>
	<g>
		<g>
			<g>
				<path class="st0" d="M95.5,61.9c-0.6-0.2-0.9-1.1-1.1-1.6c-0.1-0.4-0.2-0.8,0-1.2c-0.1-1.1,0.5-1.4,2-0.7
					c-0.1-0.3-0.2-0.5-0.4-0.8c-0.1-0.4-0.2-0.9-0.2-1.3c0-0.6,0.1-1.2,0.3-1.7c0.1-0.2-0.3-0.3-0.4-0.1c-0.6,1.6-0.4,3.1,0.5,4.5
					c0.1,0.1,0.3,0.1,0.3,0c0.6-1.4-1.1-2.3-2.1-1.3c-1.2,1.1-0.6,4,0.9,4.6C95.6,62.3,95.7,61.9,95.5,61.9L95.5,61.9z"/>
			</g>
		</g>
	</g>
	<g>
		<g>
			<g>
				<path class="st0" d="M98.8,61.9c0.1-0.5,0.1-1,0.2-1.5c0-0.2-0.3-0.3-0.4-0.1c-0.1,0.5-0.1,1-0.2,1.5
					C98.4,62,98.8,62.1,98.8,61.9L98.8,61.9z"/>
			</g>
		</g>
	</g>
	<g>
		<g>
			<g>
				<path class="st0" d="M86.1,96.8c-1.4-0.2-2.9,0.4-3.9,1.4c-0.7,0.7-1.1,1.7-0.1,2.3c0.2,0.1,0.4-0.2,0.2-0.3
					c-1.1-0.6,0.1-1.7,0.7-2.2c0.9-0.6,1.9-1,3-0.8C86.3,97.2,86.4,96.9,86.1,96.8L86.1,96.8z"/>
			</g>
		</g>
	</g>
	<g>
		<g>
			<g>
				<path class="st0" d="M83.2,99.4c-0.4,0.2-0.9,0.6-1,1.1c0,0.5,0.5,0.8,0.9,0.9c1.2,0.2,2.5-1.1,3.1-2c0.1-0.2-0.2-0.4-0.3-0.2
					c-0.5,0.7-1.2,1.3-1.9,1.6c-0.4,0.2-1.2,0.4-1.5-0.1c-0.2-0.4,0.4-0.9,0.7-1C83.6,99.6,83.4,99.3,83.2,99.4L83.2,99.4z"/>
			</g>
		</g>
	</g>
	<g>
		<g>
			<g>
				<path class="st0" d="M102,96.4c-0.6,0-1,0.4-1.5,0.6c-1.1,0.4-2.6,0.3-3.6-0.3c-1.2-0.7-2.1-2.6-0.3-3.3c1.3-0.5,2.7,0,3.9,0.4
					c0.2,0.1,0.3-0.3,0.1-0.4c-1.4-0.5-3.1-1-4.5-0.3c-0.9,0.4-1.1,1.3-0.8,2.2c0.4,1.2,1.6,1.9,2.8,2.1c0.7,0.1,1.4,0.1,2-0.1
					c0.6-0.1,1.2-0.7,1.8-0.7C102.2,96.8,102.2,96.4,102,96.4L102,96.4z"/>
			</g>
		</g>
	</g>
	<g>
		<g>
			<g>
				<path class="st0" d="M97.8,94.8c-0.8,0.1-2-0.1-2-1.2c0-0.2-0.4-0.2-0.4,0c-0.1,1.3,1.4,1.7,2.5,1.5
					C98.2,95.2,98.1,94.8,97.8,94.8L97.8,94.8z"/>
			</g>
		</g>
	</g>
	<g>
		<g>
			<g>
				<path class="st0" d="M124,115.5c0.9-1.7,3.9-0.2,4.6-2.2c0.2-0.6-0.1-1.2-0.5-1.5c-0.8-0.7-1.9-0.4-2.8-0.1
					c-0.2,0.1-0.1,0.4,0.1,0.4c0.6-0.2,1.2-0.4,1.9-0.2c0.7,0.2,1.2,0.9,0.9,1.6c-0.3,0.8-1.6,0.8-2.3,0.8c-0.9,0.1-1.8,0.3-2.3,1.1
					C123.6,115.5,123.9,115.7,124,115.5L124,115.5z"/>
			</g>
		</g>
	</g>
	<g>
		<g>
			<g>
				<path class="st0" d="M87.6,116.9c-0.7,0.7-1.6,1.7-2.6,1.7c-1.3,0-2.2-1.2-1.7-2.4c0.5-1.3,1.9-2.1,3-2.8c0.2-0.1,0-0.4-0.2-0.3
					c-1.4,0.9-4,2.5-3.3,4.5c0.3,0.8,1.1,1.4,2,1.4c1.2,0.1,2.2-1,3-1.8C88,117,87.7,116.7,87.6,116.9L87.6,116.9z"/>
			</g>
		</g>
	</g>
	<g>
		<g>
			<g>
				<path class="st0" d="M84.1,118.3c-0.4-1,0.3-2,1.1-2.5c0.2-0.1,0-0.4-0.2-0.3c-1,0.7-1.7,1.7-1.3,2.9
					C83.8,118.6,84.2,118.5,84.1,118.3L84.1,118.3z"/>
			</g>
		</g>
	</g>
	<g>
		<g>
			<g>
				<path class="st0" d="M109.7,124.4c-0.9-0.6-1.5-1.4-2.2-2.1c-0.5-0.5-0.9-0.9-0.1-1.6c0.5-0.5,1.2-0.9,1.9-0.9
					c1.3,0,2.3,1.1,2.7,2.2c0.2,0.6,0.5,1.5,0.1,2.1C111.4,124.9,110.5,124.8,109.7,124.4c-0.2-0.1-0.4,0.2-0.2,0.3
					c1.2,0.6,2.8,0.5,3.1-1.1c0.3-1.5-0.9-3.5-2.3-4c-0.7-0.3-1.5-0.2-2.2,0.1c-0.6,0.3-1.7,0.9-1.7,1.7c0,0.6,0.6,0.8,0.9,1.1
					c0.8,0.7,1.3,1.6,2.3,2.2C109.7,124.9,109.9,124.6,109.7,124.4z"/>
			</g>
		</g>
	</g>
	<g>
		<g>
			<g>
				<path class="st0" d="M110.1,122.2c0.7,0.7,1.2,1.5,1.2,2.5c0,0.2,0.4,0.2,0.4,0c0-1-0.6-2-1.3-2.7
					C110.2,121.8,110,122.1,110.1,122.2L110.1,122.2z"/>
			</g>
		</g>
	</g>
	<g>
		<g>
			<g>
				<path class="st0" d="M12,119.7c-0.5,0.3-0.7,0.5-0.8,1c0,0.1,0.1,0.2,0.2,0.2c2.6,0.3,5.1,0.1,7.6-0.5c0.2-0.1,0.1-0.4-0.1-0.4
					c-1.3,0.3-2.6,0.5-4,0.6c-0.5,0-1.1,0-1.6,0c-0.2,0-2.3-0.1-1.1-0.7C12.3,119.9,12.2,119.6,12,119.7L12,119.7z"/>
			</g>
		</g>
	</g>
	<g>
		<g>
			<g>
				<path class="st0" d="M56.1,121.1c-0.5,0.3-0.7,0.5-0.9,1.1c0,0.1,0.1,0.2,0.2,0.2c2.3,0.1,4.6-0.1,6.8-0.4c0.2,0,0.2-0.4,0-0.4
					c-1.1,0.1-2.3,0.3-3.4,0.3c-0.5,0-1.1,0.1-1.6,0.1c-0.2,0-2.4,0.1-0.9-0.7C56.5,121.3,56.3,120.9,56.1,121.1L56.1,121.1z"/>
			</g>
		</g>
	</g>
	<g>
		<g>
			<g>
				<path class="st0" d="M72.3,120.9c-0.9-0.2-1.2,1-0.5,1.5c0.6,0.4,1.5,0.2,2.1,0.1c1.3-0.1,2.6-0.4,3.9-0.8
					c0.2-0.1,0.1-0.4-0.1-0.4c-0.8,0.2-1.6,0.4-2.5,0.6c-0.5,0.1-1,0.2-1.5,0.2c-0.1,0-0.3,0-0.5,0.1c-0.6,0.1-0.9-0.2-1-1
					C72.4,121.3,72.5,121,72.3,120.9L72.3,120.9z"/>
			</g>
		</g>
	</g>
	<g>
		<g>
			<g>
				<path class="st0" d="M30.8,84.8c-0.9,0.1-1.7-0.1-2.5-0.6c-0.4-0.3-0.8-0.7-0.8-1.2c0-0.4,0.4-0.7,0.8-0.7
					c0.2,0.1,0.4,0.2,0.5,0.4c0.2,0.2,0.1,0.3-0.2,0.5c-0.1-0.2-0.4,0-0.3,0.2c0.3,0.5,1.1,0.2,1-0.4c0-0.7-0.9-1.3-1.6-1
					c-0.8,0.4-0.7,1.4-0.2,2c0.7,0.9,2.1,1.2,3.2,1.2C31,85.1,31,84.8,30.8,84.8L30.8,84.8z"/>
			</g>
		</g>
	</g>
	<g>
		<g>
			<g>
				<path class="st0" d="M52.3,85c-0.5,0.4-1.2,0.7-1.8,0.8c-0.3,0-0.7,0.1-1,0c-0.4-0.1-1.5-0.5-0.4-0.9c-0.2,0.1-0.1,0.4,0.1,0.4
					c0.5-0.2,0.7-0.9,0.3-1.3c-0.5-0.4-1.3,0.1-1.4,0.7c-0.1,0.9,0.8,1.5,1.6,1.6c1.1,0.1,2.1-0.2,2.9-0.9
					C52.7,85.1,52.4,84.8,52.3,85L52.3,85z"/>
			</g>
		</g>
	</g>
	<g>
		<g>
			<g>
				<path class="st0" d="M58.5,84.8c1.1,0.5,2.2,0.2,3.1-0.5c0.8-0.6,1.9-1.9,1.6-3C63,80.7,62,80.2,61.6,81c-0.3,0.7,0.6,1.1,1,0.6
					c0.1-0.2-0.1-0.4-0.3-0.3c0.1,0,0.3,0.1,0.5,0.1c0,0.2,0,0.4,0,0.7c-0.1,0.3-0.2,0.5-0.4,0.8c-0.2,0.4-0.5,0.7-0.9,1
					c-0.8,0.7-1.9,1-2.9,0.6C58.4,84.4,58.2,84.7,58.5,84.8L58.5,84.8z"/>
			</g>
		</g>
	</g>
	<g>
		<g>
			<g>
				<path class="st0" d="M14.7,118.9c-0.6-0.2-1.2,0-1.7,0.4c-0.1,0.1,0,0.3,0.1,0.3c1,0.3,2.1,0.2,3.1-0.2c0.1,0,0.1-0.1,0.1-0.2
					c-0.1-0.4-0.4-0.7-0.8-0.5c-0.2,0.1-0.1,0.4,0.1,0.4c0.1,0.1,0.2,0.1,0.3,0.2C16,119.1,16,119,16,119c-0.9,0.4-1.9,0.4-2.9,0.2
					c0,0.1,0.1,0.2,0.1,0.3c0.4-0.3,0.9-0.4,1.3-0.3C14.8,119.3,14.9,118.9,14.7,118.9L14.7,118.9z"/>
			</g>
		</g>
	</g>
	<g>
		<g>
			<g>
				<path class="st0" d="M58.9,120.4c-0.2,0.1-0.4,0.2-0.7,0.1c-0.2-0.1-0.3,0.3-0.1,0.4c0.7,0.3,1.5,0.2,2.2-0.2
					c0.1-0.1,0.1-0.2,0-0.3c-0.4-0.3-0.8-0.3-1.2-0.2c-0.2,0.1-0.1,0.4,0.1,0.4c0.3-0.1,0.6,0,0.9,0.2c0-0.1,0-0.2,0-0.3
					c-0.6,0.4-1.3,0.4-1.9,0.1c0,0.1-0.1,0.2-0.1,0.4c0.4,0.1,0.7,0,1-0.2C59.3,120.5,59.1,120.3,58.9,120.4L58.9,120.4z"/>
			</g>
		</g>
	</g>
	<g>
		<g>
			<g>
				<path class="st0" d="M75.6,119.7c-0.4-0.2-0.9-0.1-1.1,0.3c-0.1,0.1,0,0.3,0.1,0.3c0.9,0,1.8-0.1,2.7-0.5
					c0.1-0.1,0.2-0.2,0.1-0.3c-0.5-0.4-1-0.5-1.6-0.4c-0.2,0-0.1,0.4,0.1,0.4c0.5-0.1,0.9,0,1.3,0.3c0-0.1,0.1-0.2,0.1-0.3
					c-0.8,0.4-1.7,0.5-2.6,0.5c0,0.1,0.1,0.2,0.1,0.3c0.2-0.3,0.5-0.3,0.8-0.2C75.8,120.1,75.8,119.8,75.6,119.7L75.6,119.7z"/>
			</g>
		</g>
	</g>
	<g>
		<g>
			<g>
				<path class="st0" d="M26.2,39.5c-0.6-2.4,0.8-4.8,3.1-5.6c0.2-0.1,0.1-0.4-0.1-0.4c-2.5,0.8-4,3.5-3.4,6.1
					C25.9,39.8,26.2,39.8,26.2,39.5L26.2,39.5z"/>
			</g>
		</g>
	</g>
	<g>
		<g>
			<g>
				<path class="st0" d="M79.5,67c0.4-0.7,0.9-1.4,1.4-2c0.2-0.2-0.1-0.4-0.3-0.3c-0.6,0.6-1.1,1.3-1.5,2.1
					C79.1,67,79.4,67.2,79.5,67L79.5,67z"/>
			</g>
		</g>
	</g>
	<g>
		<g>
			<g>
				<path class="st0" d="M75.7,65.1c0.7-0.7,1.2-1.5,1.6-2.4c0.1-0.2-0.3-0.3-0.4-0.1c-0.3,0.9-0.8,1.6-1.5,2.3
					C75.2,65,75.5,65.3,75.7,65.1L75.7,65.1z"/>
			</g>
		</g>
	</g>
	<g>
		<g>
			<g>
				<path class="st0" d="M65.5,60.8c1.1-1.4,1.9-2.9,2.4-4.6c0.1-0.2-0.3-0.3-0.4-0.1c-0.5,1.6-1.2,3.1-2.3,4.4
					C65.1,60.7,65.4,60.9,65.5,60.8L65.5,60.8z"/>
			</g>
		</g>
	</g>
	<g>
		<g>
			<g>
				<path class="st0" d="M27,38.9c-0.1-0.1-0.1-0.3,0-0.4c0.1-0.1,0.3-0.1,0.4,0c0.1,0.1,0,0.2-0.1,0.3C27.2,38.9,27.1,38.9,27,38.9
					c-0.1-0.1-0.3-0.1-0.3,0c-0.1,0.1,0,0.2,0.1,0.3c0.5,0.4,1.4-0.4,0.9-0.9C27.4,38,27,38,26.8,38.2c-0.3,0.2-0.3,0.6-0.1,0.9
					C26.8,39.3,27.1,39.1,27,38.9L27,38.9z"/>
			</g>
		</g>
	</g>
	<g>
		<g>
			<g>
				<path class="st0" d="M29.3,35.6C29,35.5,29,35,29.4,34.9c0.2,0,0.4,0.3,0.3,0.5c-0.1,0.2-0.4,0.2-0.5,0
					c-0.1-0.2-0.4,0.1-0.3,0.3c0.3,0.3,0.8,0.3,1.1,0c0.3-0.4,0.1-0.9-0.4-1.1c-0.8-0.3-1.1,1.2-0.4,1.4
					C29.4,36,29.6,35.7,29.3,35.6L29.3,35.6z"/>
			</g>
		</g>
	</g>
	<g>
		<g>
			<g>
				<path class="st0" d="M63.6,57.3c0.2,0.3,0.6,0.5,1,0.5c0.2,0,0.2-0.4,0-0.4c-0.3,0-0.6-0.1-0.7-0.4
					C63.7,56.9,63.4,57.2,63.6,57.3L63.6,57.3z"/>
			</g>
		</g>
	</g>
	<g>
		<g>
			<g>
				<path class="st0" d="M64,56.3c0.4-0.1,0.7,0.2,0.8,0.5c0.1,0.2,0.4,0.1,0.4-0.1c-0.1-0.6-0.7-0.9-1.2-0.8
					C63.7,56,63.8,56.4,64,56.3L64,56.3z"/>
			</g>
		</g>
	</g>
	<g>
		<g>
			<g>
				<path class="st0" d="M63.5,58.5c-1.8,0.3-2.6,2.6-1.2,3.9c1.4,1.2,3.5,0.2,3.7-1.5c0-0.2-0.4-0.2-0.4,0c-0.2,1.6-2.2,2.3-3.3,1
					c-1-1.2-0.2-2.8,1.2-3C63.8,58.9,63.7,58.5,63.5,58.5L63.5,58.5z"/>
			</g>
		</g>
	</g>
	<g>
		<g>
			<g>
				<path class="st0" d="M63.3,54.6c0.6-0.1,1,0.1,1.4,0.6c0.3,0.4,0.8-0.1,0.5-0.5c-0.5-0.6-1.2-0.9-1.9-0.8
					C62.8,53.9,62.8,54.6,63.3,54.6L63.3,54.6z"/>
			</g>
		</g>
	</g>
	<g>
		<g>
			<g>
				<path class="st0" d="M63.4,54.8c0.4-0.7-0.5-1.1-0.9-0.5c-0.7,0.9-0.9,2.5-1,3.6c-0.1,0.5,0.7,0.5,0.7,0
					c0.1-0.6,0.1-1.1,0.3-1.7c0.1-0.2,0.1-0.5,0.2-0.7c0-0.1,0.1-0.1,0.1-0.2c0.3-0.2,0.3-0.4,0-0.5c0-0.1,0-0.2,0-0.4
					c0,0,0,0.1-0.1,0.1C62.5,54.8,63.1,55.2,63.4,54.8L63.4,54.8z"/>
			</g>
		</g>
	</g>
	<g>
		<g>
			<g>
				<path class="st0" d="M68.6,61.2c1.1-0.4,1.7-1.4,1.8-2.5c0-0.5-0.7-0.5-0.7,0c0,0.8-0.5,1.5-1.2,1.8
					C67.9,60.7,68.1,61.4,68.6,61.2L68.6,61.2z"/>
			</g>
		</g>
	</g>
	<g>
		<g>
			<g>
				<path class="st0" d="M27.2,84.4C27.2,84.4,27.2,84.4,27.2,84.4c0,0,0.1-0.1,0.2-0.1h0c0.1,0,0.2,0,0.3,0c0,0,0.1,0.1,0.1,0.1
					c0.1,0,0.2-0.2,0.2-0.3c0.1-0.2,0.3-0.4,0.4-0.5c0.3-0.3,0.6-0.6,0.9-0.9c0.4-0.3-0.2-0.8-0.5-0.5c-0.4,0.3-0.7,0.6-1,1
					c-0.3,0.3-0.7,0.7-0.8,1c-0.2,0.5,0.5,1.2,0.8,0.6C28.1,84.4,27.5,84,27.2,84.4L27.2,84.4z"/>
			</g>
		</g>
	</g>
	<g>
		<g>
			<g>
				<path class="st0" d="M48.4,83.8c0.3,0.9,0.5,1.9,0.7,2.8c0.1,0.5,0.8,0.3,0.7-0.2c-0.1-1-0.4-1.9-0.7-2.8
					C49,83.1,48.3,83.3,48.4,83.8L48.4,83.8z"/>
			</g>
		</g>
	</g>
	<g>
		<g>
			<g>
				<path class="st0" d="M60.9,81.4c0.7,0.6,1.4,1.2,2.3,1.5c0.4,0.2,0.8-0.4,0.4-0.7c-0.8-0.4-1.5-0.8-2.1-1.4
					C61,80.5,60.5,81.1,60.9,81.4L60.9,81.4z"/>
			</g>
		</g>
	</g>
	<g>
		<g>
			<g>
				<path class="st0" d="M31.4,120c0.6-0.4,1.3-0.4,1.9,0c0-0.1,0-0.2-0.1-0.3c-0.5,0.9-1.8,1-2.5,0.3c0,0.1-0.1,0.2-0.1,0.3
					c0.4-0.1,0.9-0.2,1.3-0.3c0.2-0.1,0.1-0.4-0.1-0.4c-0.4,0.1-0.9,0.2-1.3,0.3c-0.1,0-0.2,0.2-0.1,0.3c0.9,0.9,2.5,0.7,3.1-0.4
					c0.1-0.1,0-0.2-0.1-0.3c-0.7-0.5-1.6-0.5-2.3,0C31,119.8,31.2,120.1,31.4,120L31.4,120z"/>
			</g>
		</g>
	</g>
	<g>
		<g>
			<g>
				<path class="st0" d="M44.2,121.8c0.4-0.1,0.7-0.1,1,0.1c0-0.1,0-0.2,0-0.3c-0.3,0.3-0.8,0.3-1-0.1c-0.1-0.2-0.4,0-0.3,0.2
					c0.3,0.6,1.1,0.7,1.5,0.2c0.1-0.1,0.1-0.2,0-0.3c-0.4-0.2-0.8-0.3-1.3-0.2C43.9,121.5,44,121.9,44.2,121.8L44.2,121.8z"/>
			</g>
		</g>
	</g>
	<g>
		<g>
			<g>
				<path class="st0" d="M35.7,120.3c3.8,0.1,7.5-0.1,11.3-0.5c0.2,0,0.3-0.2,0.1-0.4c-3.3-2-9-2.9-11.8,0.4
					c-0.1,0.2,0.1,0.4,0.3,0.3c2.7-3.2,8.2-2.3,11.4-0.4c0-0.1,0.1-0.2,0.1-0.4c-3.8,0.4-7.5,0.6-11.3,0.5
					C35.5,119.9,35.5,120.3,35.7,120.3L35.7,120.3z"/>
			</g>
		</g>
	</g>
	<g>
		<g>
			<g>
				<path class="st0" d="M25,120.3c2.1-0.1,4.2-0.1,6.2-0.2c0.2,0,0.2-0.4,0-0.4c-2.1,0.1-4.2,0.1-6.2,0.2
					C24.8,119.9,24.7,120.3,25,120.3L25,120.3z"/>
			</g>
		</g>
	</g>
	<g>
		<g>
			<g>
				<path class="st0" d="M46.9,120.1c1.3-0.1,2.6-0.1,3.9-0.2c0.2,0,0.2-0.4,0-0.4c-1.3,0.1-2.6,0.1-3.9,0.2
					C46.7,119.7,46.7,120.1,46.9,120.1L46.9,120.1z"/>
			</g>
		</g>
	</g>
	<g>
		<g>
			<g>
				<path class="st0" d="M61.9,129c0.3-0.2,0.6-0.4,0.9-0.4c0.2,0,0.8,0.1,0.7,0.3c-0.1,0.4-1.7,0.1-2,0c-0.2-0.1-0.3,0.3-0.1,0.4
					c0.4,0.1,2.9,0.6,2.6-0.5c-0.1-0.4-0.7-0.5-1-0.6c-0.5-0.1-1,0.1-1.4,0.5C61.5,129,61.7,129.2,61.9,129L61.9,129z"/>
			</g>
		</g>
	</g>
	<g>
		<g>
			<g>
				<path class="st0" d="M61.1,129.1c-0.9-0.3-1-0.6-0.4-0.8c0.4-0.2,0.7-0.4,1.1-0.5c0.6-0.2,1.1-0.4,1.7-0.5
					c1.3-0.3,2.8-0.4,4.1-0.4c0.6,0,2.9,0.4,2.5,1.5c-0.2,0.5-2.2,0.5-2.7,0.5c-1.3,0-2.6-0.1-3.9-0.2c-0.2,0-0.2,0.4,0,0.4
					c2.4,0.2,5,0.7,7.2-0.6c0.1-0.1,0.1-0.2,0.1-0.3c-1.2-2-3.5-1.8-5.5-1.6c-2.1,0.2-4.2,0.7-5.8,2.1c-0.1,0.1-0.1,0.2,0,0.3
					c0.6,0.4,1,0.6,1.7,0.4C61.4,129.4,61.3,129,61.1,129.1L61.1,129.1z"/>
			</g>
		</g>
	</g>
	<g>
		<g>
			<g>
				<path class="st0" d="M70.5,128.7c1.3-0.2,2.3,0.5,3.6,0.6c1,0.1,1.9-0.5,2.9-0.4c1.1,0.1,2.1,0.5,3.2,0.5c1.1,0,2.2-0.2,3.3-0.5
					c0.2-0.1,0.1-0.4-0.1-0.4c-1.5,0.4-3.1,0.6-4.7,0.4c-0.8-0.1-1.6-0.5-2.5-0.4c-0.5,0.1-1,0.4-1.6,0.5c-0.7,0-1.3-0.2-2-0.4
					c-0.7-0.2-1.4-0.3-2.1-0.2C70.1,128.4,70.2,128.7,70.5,128.7L70.5,128.7z"/>
			</g>
		</g>
	</g>
	<g>
		<g>
			<g>
				<path class="st0" d="M59.2,129.1c-4.7,0.2-9.4,0.7-14,1.6c-0.2,0.1-0.1,0.4,0.1,0.4c4.6-0.9,9.3-1.4,13.9-1.6
					C59.4,129.5,59.5,129.1,59.2,129.1L59.2,129.1z"/>
			</g>
		</g>
	</g>
	<g>
		<g>
			<g>
				<path class="st0" d="M99.7,129.7c9.2-0.1,18.4-0.4,27.6-0.9c0.2,0,0.2-0.4,0-0.4c-9.2,0.4-18.4,0.8-27.6,0.9
					C99.4,129.3,99.4,129.7,99.7,129.7L99.7,129.7z"/>
			</g>
		</g>
	</g>
	<g>
		<g>
			<g>
				<path class="st0" d="M118.4,127.6c1.9,0.1,3.9,0.1,5.8,0.2c0.2,0,0.2-0.4,0-0.4c-1.9-0.1-3.9-0.1-5.8-0.2
					C118.2,127.2,118.2,127.6,118.4,127.6L118.4,127.6z"/>
			</g>
		</g>
	</g>
	<g>
		<g>
			<g>
				<path class="st0" d="M121.2,118.9c2.9-0.2,5.7-0.4,8.6-0.6c0.2,0,0.2-0.4,0-0.4c-2.9,0.2-5.7,0.4-8.6,0.6
					C121,118.6,121,118.9,121.2,118.9L121.2,118.9z"/>
			</g>
		</g>
	</g>
	<g>
		<path class="st0" d="M78,48c-6.6,0-11.9-5.3-11.9-11.9c0-6.6,5.3-11.9,11.9-11.9c6.6,0,11.9,5.3,11.9,11.9
			C89.9,42.6,84.6,48,78,48z M78,24.4c-6.4,0-11.7,5.2-11.7,11.7c0,6.4,5.2,11.7,11.7,11.7c6.4,0,11.7-5.2,11.7-11.7
			C89.7,29.6,84.5,24.4,78,24.4z"/>
	</g>
	<g>
		<path class="st0" d="M50.3,26.7c-4.2,0-7.5-3.4-7.5-7.5s3.4-7.5,7.5-7.5s7.5,3.4,7.5,7.5S54.4,26.7,50.3,26.7z M50.3,11.8
			c-4,0-7.3,3.3-7.3,7.3s3.3,7.3,7.3,7.3s7.3-3.3,7.3-7.3S54.3,11.8,50.3,11.8z"/>
	</g>
	<g>
		<path class="st0" d="M110.3,40c-2.3,0-4.3-1.9-4.3-4.3s1.9-4.3,4.3-4.3s4.3,1.9,4.3,4.3S112.6,40,110.3,40z M110.3,31.8
			c-2.2,0-4,1.8-4,4s1.8,4,4,4c2.2,0,4-1.8,4-4S112.5,31.8,110.3,31.8z"/>
	</g>
	<g>
		<path class="st0" d="M94.5,23.4c-1.2,0-2.2-1-2.2-2.2s1-2.2,2.2-2.2c1.2,0,2.2,1,2.2,2.2S95.7,23.4,94.5,23.4z M94.5,19.3
			c-1.1,0-2,0.9-2,2s0.9,2,2,2c1.1,0,2-0.9,2-2S95.6,19.3,94.5,19.3z"/>
	</g>
	<g>
		<path class="st0" d="M22.9,59.4c-1.2,0-2.2-1-2.2-2.2c0-1.2,1-2.2,2.2-2.2s2.2,1,2.2,2.2C25.1,58.4,24.1,59.4,22.9,59.4z
			 M22.9,55.2c-1.1,0-2,0.9-2,2s0.9,2,2,2s2-0.9,2-2S24,55.2,22.9,55.2z"/>
	</g>
	<g>
		<g>
			<g>
				<path class="st0" d="M43.3,21.8c1.2-0.6,2.8,1.8,3.9,0.6c0.3-0.3,0.1-0.3,0.2-0.7c0.4-1.3,0.7-1.4,1.9-1.8
					c0.6-0.2,1.2-0.4,1.7-0.8c0.4-0.4,0.6-0.8,0.6-1.3c0-0.8-0.7-1.5-0.8-2.3c0-0.9,3.1-2.2,1.7-3.2c-0.2-0.1-0.4,0.1-0.3,0.3
					c0.7,0.5-1.4,1.5-1.7,1.8c-0.2,0.3-0.3,0.6-0.2,1c0.1,0.7,0.5,1.3,0.7,1.9c0.5,1.8-1.3,2-2.5,2.5s-1.3,0.9-1.7,1.9
					c-0.7,1.7-2.6-0.7-3.9,0C42.9,21.5,43.1,21.9,43.3,21.8L43.3,21.8z"/>
			</g>
		</g>
	</g>
	<g>
		<g>
			<g>
				<path class="st0" d="M48.1,25.9c0.4-1.1,1.9-0.9,2.1,0.2c0.1,0.2,0.4,0.1,0.4-0.1c-0.3-1.5-2.3-1.6-2.8-0.2
					C47.6,26,48,26.1,48.1,25.9L48.1,25.9z"/>
			</g>
		</g>
	</g>
	<g>
		<g>
			<g>
				<path class="st0" d="M55.9,14.9c-0.9,0.4-1.6,1.2-1.7,2.2c-0.1,0.8,0.3,1.3,0.1,2.1c-0.1,0.9-0.4,1-1,1.6
					c-0.4,0.4-0.9,0.8-1.3,1.2c-0.1,0.1-0.1,0.1,0,0.2c0.5,0.9,0.7,1.7,0.8,2.7c0,0.1,0.1,0.1,0.1,0.2c0.2,0.1,0.4,0.1,0.6,0.2
					c0.2,0.1,0.3-0.3,0.1-0.4c-0.7-0.2-0.8-1.4-0.9-2c-0.1-0.8-0.2-0.9,0.5-1.5c0.4-0.4,0.9-0.8,1.3-1.2c0.4-0.4,0.7-0.7,0.7-1.2
					c0-0.3-0.3-0.5-0.4-0.8c-0.4-1.2-0.1-2.5,1.2-3C56.3,15.1,56.1,14.8,55.9,14.9L55.9,14.9z"/>
			</g>
		</g>
	</g>
	<g>
		<g>
			<g>
				<path class="st0" d="M50.4,26.4c0.4,0,0.7,0,1.1,0c0.2,0,0.2-0.4,0-0.4c-0.4,0-0.7,0-1.1,0C50.1,26,50.1,26.4,50.4,26.4
					L50.4,26.4z"/>
			</g>
		</g>
	</g>
	<g>
		<g>
			<g>
				<path class="st0" d="M68.9,43.3c-0.1,0.6,0.7,0.8,1.1,0.5c0.2-0.2,0.3-0.6,0.3-0.9c0-0.2,0-0.4-0.1-0.7c0-0.2-0.1-0.4,0-0.6
					c0.1-0.2,0.4-0.6,0.7-0.3c0.2,0.1,0.4-0.1,0.3-0.3c-0.4-0.4-1-0.1-1.2,0.3c-0.1,0.3-0.1,0.6-0.1,0.9c0,0.2,0.1,0.5,0,0.7
					c0,0.2-0.1,0.3-0.2,0.4c-0.1,0.1-0.5,0.2-0.4-0.2C69.3,43,68.9,43,68.9,43.3L68.9,43.3z"/>
			</g>
		</g>
	</g>
	<g>
		<g>
			<g>
				<path class="st0" d="M72.7,40c0.5,0.3,0.8,0.2,1.3-0.1c0.1-0.1,0.1-0.1,0.1-0.3c-0.1-0.4-0.2-0.8-0.3-1.2
					c-0.1,0-0.2,0.1-0.3,0.1c1.1,0.9,2.1-0.6,1.6-1.7c-0.2-0.5-0.6-0.9-1-1.3c-0.6-0.6-1.8-1.6-2-2.4c-0.1-0.1-0.2-0.3-0.3-0.4
					c0.3-1.1,0.7-1.3,1.1-0.8c0.3,0.1,0.8,0.7,1,1c0.7,0.7,1.3,1.3,2,1.9c0.2,0.2,0.4-0.1,0.3-0.3c-1.2-1.1-2.3-2.6-3.6-3.5
					c-0.5-0.3-1-0.4-1.3,0.2c-0.4,0.7,0.2,1.6,0.6,2.1c0.4,0.6,0.9,1.2,1.3,1.7c0.2,0.3,0.5,0.5,0.7,0.8c0.2,0.2,0.4,0.4,0.6,0.7
					c0.6,0.6,0.4,1.2-0.7,1.8c-0.1-0.1-0.3,0-0.3,0.1c0,0.2,0.4,1.7-0.5,1.2C72.6,39.5,72.5,39.8,72.7,40L72.7,40z"/>
			</g>
		</g>
	</g>
	<g>
		<g>
			<g>
				<path class="st0" d="M78.2,33c0.4,0.4,0.9,0.2,1.4,0c0.7-0.2,1.4-0.4,2.1-0.6c0.3-0.1,0.9-0.1,1.1-0.4c0.4-0.5,0-1.1-0.2-1.7
					c-0.6-1.5-1.1-3-1.7-4.4c-0.1,0.1-0.2,0.1-0.3,0.2c1.2,0.6,2.1,1.4,2.8,2.5c0.1,0.2,0.4,0,0.3-0.2c-0.7-1.2-1.7-2.1-3-2.7
					c-0.1-0.1-0.3,0-0.3,0.2c0.6,1.5,1.5,3.1,1.8,4.7c0.1,0.5,0.3,0.8-0.2,1.2c-0.2,0.2-0.8,0.2-1,0.3c-0.5,0.1-2.2,0.9-2.6,0.5
					C78.3,32.6,78,32.9,78.2,33L78.2,33z"/>
			</g>
		</g>
	</g>
	<g>
		<g>
			<g>
				<path class="st0" d="M73.2,45.1c0.8,0,1.7,0,2.1-0.8c0.1-0.3,0.1-0.5,0.1-0.8c0-0.9,1-1.4,1.7-1.8c0.2-0.1,0-0.4-0.2-0.3
					c-0.6,0.4-1.7,0.9-1.9,1.6c-0.1,0.3,0,0.4,0,0.7c0.1,1.1-1,1.2-1.8,1.2C73,44.8,73,45.1,73.2,45.1L73.2,45.1z"/>
			</g>
		</g>
	</g>
	<g>
		<g>
			<g>
				<path class="st0" d="M79.8,39c-0.3-0.4-0.7-0.9-0.9-1.3c-0.1-0.1-0.2-0.3-0.3-0.4c0.6-0.7,1.2-0.9,1.8-0.5
					c0.7,0.2,1.2,0.8,1.9,0.9c0.7,0.1,1.5-0.1,1.7-0.8c0.2-0.6,0-1.4,0.7-1.7c0.4-0.2,1.2-0.1,1.6-0.4c1.2-0.6,2-1.7,2.7-2.8
					c0.1-0.2-0.2-0.4-0.3-0.2c-0.6,0.9-1.3,1.9-2.2,2.5c-0.6,0.4-1.1,0.4-1.8,0.5c-0.3,0-0.4-0.1-0.7,0.1c-0.3,0.2-0.2,0.3-0.4,0.6
					c-0.1,0.1,0.1,0.3,0,0.4c-0.3,1.8-1.2,1.5-2.4,0.9c-0.8-0.3-2.1-1.3-3-0.4c-0.8,0.9,0.7,2.1,1.2,2.8
					C79.6,39.4,79.9,39.3,79.8,39L79.8,39z"/>
			</g>
		</g>
	</g>
	<g>
		<g>
			<g>
				<path class="st0" d="M75.7,47.6c0.4-0.7,1.7-0.6,2.3-1c0.7-0.5,1.2-1.2,2-1.6c1.7-0.9,3.3-1.2,4.6-2.8c1.2-1.4,2.2-2.9,3.2-4.4
					c1-1.4,1.8-2.8,1.8-4.5c0-0.2-0.4-0.2-0.4,0c0,2.2-1.4,3.7-2.6,5.4c-1.1,1.5-2.1,3.3-3.6,4.4c-1.4,1-3.2,1.2-4.5,2.3
					c-0.5,0.5-0.7,0.9-1.5,1.2c-0.3,0.1-0.7,0.1-1,0.2c-0.4,0.1-0.6,0.3-0.8,0.7C75.2,47.6,75.6,47.8,75.7,47.6L75.7,47.6z"/>
			</g>
		</g>
	</g>
	<g>
		<g>
			<g>
				<path class="st0" d="M66.5,34.8c1.3-1.7,2.6-3.6,4.1-5.1c0.7-0.7,1.3-0.7,2.2-0.5c0.3,0.1,0.5,0.2,0.9,0.2
					c0.3,0,0.6-0.1,0.8-0.3c0.2-0.2,0.4-0.5,0.5-0.8c0.1-0.3,0.1-0.6,0.3-0.9c0.3-0.8,0.5-0.6,1.2-1.1c0.6-0.4,0.9-1.1,1.7-1.3
					c0.5-0.2,0.9-0.1,1.3-0.4c0.2-0.1,0-0.5-0.2-0.3c-0.6,0.4-1.3,0.2-1.9,0.5c-0.7,0.3-0.8,0.9-1.4,1.3c-0.4,0.2-0.5,0.2-0.8,0.6
					c-0.5,0.8-0.2,1.3-1.2,1.8c-0.9,0.5-0.9,0.1-1.7,0c-0.3,0-0.4-0.1-0.7,0c-0.5,0.1-1,0.6-1.3,0.9c-1.5,1.5-2.8,3.3-4,5
					C66.1,34.8,66.4,35,66.5,34.8L66.5,34.8z"/>
			</g>
		</g>
	</g>
	<g>
		<g>
			<g>
				<path class="st0" d="M78.2,47.9c2.5-1.4,5.2-2.7,7.3-4.6c2.1-1.9,3.2-4.9,4.4-7.3c0.1-0.2-0.2-0.4-0.3-0.2
					c-1.2,2.5-2.3,5.4-4.4,7.3c-2.1,1.9-4.9,3.1-7.3,4.5C77.9,47.7,78,48,78.2,47.9L78.2,47.9z"/>
			</g>
		</g>
	</g>
	<g>
		<g>
			<g>
				<path class="st0" d="M78.9,41.2c0.2-0.3,0.4-0.5,0.6-0.8c-0.1,0-0.2,0-0.3,0c0.1,0.1,0.3,0.3,0.5,0.4c0-0.1,0-0.1-0.1-0.2
					c-0.1,0.3-0.4,0.4-0.6,0.3c-0.2-0.1-0.3,0.3-0.1,0.4c0.4,0.1,0.9-0.1,1.1-0.6c0-0.1,0-0.1-0.1-0.2c-0.1-0.1-0.3-0.3-0.5-0.4
					c-0.1-0.1-0.2-0.1-0.3,0c-0.2,0.3-0.4,0.5-0.6,0.8C78.5,41.1,78.8,41.4,78.9,41.2L78.9,41.2z"/>
			</g>
		</g>
	</g>
	<g>
		<g>
			<g>
				<path class="st0" d="M84.7,29.9c0.1-0.3,0.2-0.7,0.6-0.7c0.1,0,0.3,0,0.4,0.1c0,0.1,0,0.3-0.1,0.2c-0.2,0-0.3,0.3-0.1,0.4
					c0.6,0.1,0.8-0.7,0.3-1c-0.3-0.1-0.6-0.1-0.8,0.1c-0.3,0.2-0.4,0.5-0.5,0.9C84.3,30,84.7,30.1,84.7,29.9L84.7,29.9z"/>
			</g>
		</g>
	</g>
	<g>
		<g>
			<g>
				<path class="st0" d="M68.4,39.3c0-0.1,0.1-0.3,0.2-0.4c0.1-0.1,0.1-0.1,0.2-0.1c0,0,0.1,0,0.1,0c0,0,0,0,0,0
					c0.1,0.2,0,0.4-0.2,0.4c-0.2,0-0.2,0.4,0,0.4c0.5,0,0.8-0.7,0.5-1c-0.1-0.1-0.2-0.2-0.3-0.2c-0.1,0-0.3,0.1-0.4,0.2
					C68.1,38.8,68,39,68,39.3C68.1,39.6,68.4,39.6,68.4,39.3L68.4,39.3z"/>
			</g>
		</g>
	</g>
	<g>
		<g>
			<g>
				<path class="st0" d="M108.8,37.8c-1.8-2.1,0.2-5.4,2.9-4.4c1.3,0.4,2.1,2.1,1.2,3.2c-0.5,0.7-1.5,0.9-2.2,0.3
					c-0.2-0.2-0.4-0.6-0.4-0.9c-0.1-0.2,0-0.4,0.1-0.6c0.1-0.7,0.5-0.6,1.2,0.1c-0.1,0.2,0.3,0.3,0.4,0.1c0.2-0.7-0.3-1.4-1.1-1.2
					c-0.8,0.2-1.2,1.1-0.9,1.8c0.6,2,3.2,1.5,3.7-0.3c0.6-2.1-1.9-3.6-3.7-3.1c-2.2,0.7-2.8,3.4-1.3,5.1
					C108.7,38.2,108.9,38,108.8,37.8L108.8,37.8z"/>
			</g>
		</g>
	</g>
	<g>
		<g>
			<g>
				<path class="st0" d="M94.2,19.3c-0.2,1.1-0.3,2.2-0.3,3.3c0,0.2,0.4,0.2,0.4,0c0-1.1,0.1-2.1,0.3-3.2
					C94.6,19.1,94.2,19.1,94.2,19.3L94.2,19.3z"/>
			</g>
		</g>
	</g>
	<g>
		<g>
			<g>
				<path class="st0" d="M95.2,19.5c-0.2,1.1-0.4,2.1-0.5,3.2c0,0.2,0.3,0.3,0.4,0.1c0.2-1.1,0.4-2.1,0.5-3.2
					C95.6,19.4,95.3,19.3,95.2,19.5L95.2,19.5z"/>
			</g>
		</g>
	</g>
	<g>
		<g>
			<g>
				<path class="st0" d="M20.8,57c1,0.3,1.9,0.8,2.7,1.5c0.2,0.1,0.4-0.1,0.3-0.3C23,57.5,22,57,20.9,56.6
					C20.7,56.5,20.6,56.9,20.8,57L20.8,57z"/>
			</g>
		</g>
	</g>
	<g>
		<g>
			<g>
				<path class="st0" d="M21.7,56.1c1.1,0.4,2,0.9,2.9,1.5c0.2,0.1,0.4-0.2,0.2-0.3c-0.9-0.7-1.9-1.2-3-1.6
					C21.6,55.7,21.5,56,21.7,56.1L21.7,56.1z"/>
			</g>
		</g>
	</g>
</g>
</svg>
