<?xml version="1.0" encoding="utf-8"?>
<!-- Generator: Adobe Illustrator 24.0.1, SVG Export Plug-In . SVG Version: 6.00 Build 0)  -->
<svg version="1.1" id="Layer_1" xmlns="http://www.w3.org/2000/svg" xmlns:xlink="http://www.w3.org/1999/xlink" x="0px" y="0px"
	 viewBox="0 0 141.7 141.7" style="enable-background:new 0 0 141.7 141.7;" xml:space="preserve">
<style type="text/css">
	.st0{fill:#070707;}
	.st1{enable-background:new    ;}
</style>
<g id="Layer_1_1_">
</g>
<g id="Layer_2_1_">
	<g>
		<g>
			<g>
				<g>
					<path class="st0" d="M98.7,38.6c-4.2-7.7-13.3-11.4-21.8-11.3c-2.9,0-5.8,0.5-8.7,0.8c-2.8,0.3-5.8,0.4-8.5,1
						c-4.7,1-8.9,3.5-12.1,7.2c-5.4,6.2-6.8,14.7-6.9,22.7c0,4.3,0.2,8.5,0.5,12.8c0.4,5.3,0.6,10.6,0.4,16
						c-0.3,6.5-1.5,13.1-0.5,19.6c0.9,5.5,3.4,10.5,7.3,14.5c0.3,0.3,0.7-0.1,0.4-0.4c-3.4-3.7-5.9-8-6.9-13c-1.1-5.4-0.3-11,0-16.5
						c0.4-5.5,0.4-11,0.1-16.6c-0.3-3.9-0.6-7.9-0.7-11.8c-0.3-7.9,0.1-16.4,4.2-23.3c2.2-3.8,5.5-6.9,9.5-8.9
						c2.6-1.2,5.3-1.8,8.2-2.1c2.9-0.3,5.8-0.6,8.7-0.9c5.1-0.5,10-0.5,14.9,1.4c4.7,1.7,8.9,4.9,11.3,9.3
						C98.4,39.3,98.9,38.9,98.7,38.6L98.7,38.6z"/>
				</g>
			</g>
		</g>
		<g>
			<g>
				<g>
					<path class="st0" d="M54.7,125.7c5.2,3.2,11.9,3.2,17.9,2.7c3.1-0.3,6.1-0.7,9.2-1.2c3.2-0.5,6.9-0.8,9.7-2.6
						c0.3-0.2,0-0.7-0.3-0.5c-2.8,1.8-6.4,2-9.5,2.5c-3,0.5-6,1-9,1.2c-5.8,0.5-12.4,0.5-17.6-2.7C54.6,125,54.4,125.5,54.7,125.7
						L54.7,125.7z"/>
				</g>
			</g>
		</g>
		<g>
			<g>
				<g>
					<path class="st0" d="M61.8,29.3c0.4,0,0.4-0.6,0-0.6S61.4,29.3,61.8,29.3L61.8,29.3z"/>
				</g>
			</g>
		</g>
		<g>
			<g>
				<g>
					<path class="st0" d="M42.3,46.5c-2.2-0.2-4.3-1.3-5.3-3.3c-1-2.1-0.7-4.5,0.7-6.3c1.2-1.6,3.1-2.7,5-3c1.9-0.3,4.6-0.2,5.9,1.4
						c0.2,0.3,0.7-0.1,0.4-0.4c-1.4-1.7-4.1-1.9-6.1-1.6c-2.4,0.3-4.6,1.7-6,3.7c-1.3,2-1.5,4.4-0.5,6.6c1.1,2.2,3.4,3.4,5.8,3.6
						C42.7,47.1,42.7,46.6,42.3,46.5L42.3,46.5z"/>
				</g>
			</g>
		</g>
		<g>
			<g>
				<g>
					<path class="st0" d="M94.4,33.7c3.4-1.7,8.7-2.6,11.1,1.1c2.4,3.7,1,9.5-3.8,10.3c-0.4,0.1-0.2,0.6,0.2,0.6
						c5-0.8,6.6-6.9,4.3-10.9c-2.4-4.3-8.3-3.5-12-1.6C93.7,33.3,94,33.8,94.4,33.7L94.4,33.7z"/>
				</g>
			</g>
		</g>
		<g>
			<g>
				<g>
					<path class="st0" d="M67.9,52c0.1,0,0.2,0,0.3,0c0-0.1-0.1-0.2-0.1-0.3c-0.2,0.2-0.6,0.1-0.8,0.2c-0.5,0.2-1,0.6-1.4,0.9
						c-0.8,0.6-1.6,1.4-2,2.4c-0.9,2.3,1.9,3.5,3.8,3.4c1.5-0.1,3-0.8,4.5-1c1.5-0.2,2.8,0.4,4.2,0.7c1.9,0.4,3.8-0.6,3.5-2.8
						c-0.3-2.4-3.3-3.6-5.2-4.3c-0.2-0.1-0.3,0.2-0.1,0.3c2,0.7,5.7,2.3,4.9,5.1c-0.6,2-2.4,1.7-4,1.2c-1.1-0.3-2.1-0.6-3.2-0.5
						c-1.4,0.1-2.7,0.7-4,1c-1.5,0.3-4.6-0.2-4.3-2.4c0.2-1.3,1.5-2.4,2.5-3.1c0.4-0.3,0.7-0.5,1.1-0.6c0.2-0.1,0.5-0.1,0.7-0.2
						c0.1-0.1,0-0.3-0.1-0.3c-0.1,0-0.2,0-0.4,0C67.7,51.7,67.7,52,67.9,52L67.9,52z"/>
				</g>
			</g>
		</g>
		<g>
			<g>
				<g>
					<path class="st0" d="M75.6,58.1c0.5,1.4,0.9,3.2,0.3,4.6c-0.4,1-1.8,1.8-2.8,1c-0.5-0.4-0.6-0.9-0.9-1.4
						c-0.1-0.2-0.3,0-0.3,0.1c0.3,0.6,0.5,1.4,1.1,1.7c0.7,0.4,1.6,0.2,2.2-0.2c1.7-1.2,1.2-4.2,0.6-5.9
						C75.9,57.9,75.6,57.9,75.6,58.1L75.6,58.1z"/>
				</g>
			</g>
		</g>
		<g>
			<g>
				<g>
					<path class="st0" d="M48.8,121.9c2.8-1.5,4.3,2.2,6.3,3.5c0-0.1,0-0.2,0-0.3c-1.6,0.2-2.9,1.3-4.2,2.3c-1.4,1-3.3,2.7-5.1,1.6
						c-4.4-2.5,1.6-6.4,3.9-7.5c0.2-0.1,0-0.3-0.1-0.3c-2.2,1.1-7.6,4.3-4.8,7.3c3.3,3.6,7.2-2.6,10.5-3.1c0.1,0,0.1-0.2,0-0.3
						c-2.1-1.4-3.5-5-6.6-3.5C48.5,121.7,48.7,122,48.8,121.9L48.8,121.9z"/>
				</g>
			</g>
		</g>
		<g>
			<g>
				<g>
					<path class="st0" d="M45.6,128.7c-0.5-1.7,0.8-3,2.1-3.7c0.2-0.1,0-0.4-0.1-0.3c-1.5,0.8-2.8,2.2-2.3,4
						C45.4,128.9,45.6,128.9,45.6,128.7L45.6,128.7z"/>
				</g>
			</g>
		</g>
		<g>
			<g>
				<g>
					<path class="st0" d="M96.6,128.6c-1.6-1-2.5-2.6-4-3.8c-0.6-0.5-1.3-0.7-0.5-2c0.3-0.5,1-0.9,1.4-1.1c1.1-0.7,2.3-1.1,3.6-0.7
						c1.9,0.6,3.3,2.7,3.7,4.6c0.2,1,0.2,2.3-0.7,3C99.2,129.5,97.7,129.1,96.6,128.6c-0.2-0.1-0.3,0.2-0.1,0.3
						c1.9,1,4.4,0.7,4.8-1.8c0.3-2.4-1.5-5.3-3.7-6.2c-1.2-0.5-2.4-0.4-3.5,0.2c-0.9,0.4-2.6,1.5-2.7,2.6c-0.1,1,1.3,1.5,1.8,2.1
						c1,1.1,2,2.4,3.3,3.1C96.6,129,96.8,128.7,96.6,128.6z"/>
				</g>
			</g>
		</g>
		<g>
			<g>
				<g>
					<path class="st0" d="M97.6,124.8c1.1,1.1,1.9,2.5,2,4.1c0,0.2,0.3,0.2,0.3,0c0-1.7-0.9-3.2-2.1-4.3
						C97.7,124.5,97.5,124.6,97.6,124.8L97.6,124.8z"/>
				</g>
			</g>
		</g>
		<g>
			<g>
				<g>
					<path class="st0" d="M103.6,83.1c0.7,0.3,1.7,0,2.5,0.1c1.6,0.3,3.3,1.3,4,2.8c0.8,1.8,0.1,3.9-2.2,3.5c-1.6-0.3-2.9-1.4-4-2.5
						c-0.1-0.1-0.4,0.1-0.2,0.2c1.3,1.2,2.7,2.5,4.5,2.7c1.3,0.1,2.3-0.6,2.5-1.9c0.2-1.6-0.7-3-2-3.9c-0.8-0.6-1.8-1-2.8-1.1
						c-0.7-0.1-1.6,0.2-2.2-0.1C103.5,82.8,103.4,83,103.6,83.1L103.6,83.1z"/>
				</g>
			</g>
		</g>
		<g>
			<g>
				<g>
					<path class="st0" d="M107.5,87.2c1.1,0.3,2.4,1.3,1.8,2.5c-0.1,0.2,0.2,0.3,0.3,0.1c0.8-1.5-0.6-2.6-1.9-3
						C107.4,86.8,107.3,87.1,107.5,87.2L107.5,87.2z"/>
				</g>
			</g>
		</g>
		<g>
			<path class="st0" d="M83.8,51.8c-5.4,0-9.7-4.4-9.7-9.7c0-5.4,4.4-9.7,9.7-9.7s9.7,4.4,9.7,9.7C93.5,47.4,89.2,51.8,83.8,51.8z
				 M83.8,32.7c-5.2,0-9.4,4.2-9.4,9.4c0,5.2,4.2,9.4,9.4,9.4s9.4-4.2,9.4-9.4C93.2,36.9,89,32.7,83.8,32.7z"/>
		</g>
		<g>
			<path class="st0" d="M59.7,52.8c-5.4,0-9.7-4.4-9.7-9.7s4.4-9.7,9.7-9.7c5.4,0,9.7,4.4,9.7,9.7S65.1,52.8,59.7,52.8z M59.7,33.7
				c-5.2,0-9.4,4.2-9.4,9.4s4.2,9.4,9.4,9.4c5.2,0,9.4-4.2,9.4-9.4S64.9,33.7,59.7,33.7z"/>
		</g>
		<g>
			<path class="st0" d="M102.1,38.3c0-1.1-0.9-2-2-2c-1.1,0-2,0.9-2,2c0,1.1,0.9,2,2,2S102.1,39.4,102.1,38.3z"/>
		</g>
		<g>
			<circle class="st0" cx="43.2" cy="40.1" r="2"/>
		</g>
		<g>
			<path class="st0" d="M76.1,50.9c0-1.3-1.9-2.4-4.3-2.4c-2.4,0-4.3,1.1-4.3,2.4s1.9,2.4,4.3,2.4C74.2,53.2,76.1,52.2,76.1,50.9z"
				/>
		</g>
		<g>
			<path class="st0" d="M80.6,42.2c0,1.7,1.4,3.1,3.1,3.1c1.7,0,3.1-1.4,3.1-3.1c0-1.7-1.4-3.1-3.1-3.1C82,39.1,80.6,40.5,80.6,42.2
				z M85.8,41c0,0.5-0.4,0.9-0.9,0.9c-0.5,0-0.9-0.4-0.9-0.9c0-0.5,0.4-0.9,0.9-0.9C85.4,40.1,85.8,40.5,85.8,41z"/>
		</g>
		<g>
			<path class="st0" d="M56.3,43c0,1.7,1.4,3.1,3.1,3.1c1.7,0,3.1-1.4,3.1-3.1c0-1.7-1.4-3.1-3.1-3.1C57.8,39.9,56.3,41.3,56.3,43z
				 M61.5,41.7c0,0.5-0.4,0.9-0.9,0.9c-0.5,0-0.9-0.4-0.9-0.9c0-0.5,0.4-0.9,0.9-0.9C61.1,40.8,61.5,41.2,61.5,41.7z"/>
		</g>
		<g>
			<g>
				<g>
					<path class="st0" d="M72.1,57.5c0.2,1.2,0.2,2.8,0,4c-0.1,0.7-0.3,1.6-0.8,2.2c-0.6,0.6-1.7,0.6-2.4,0
						c-1.3-1.2-0.9-3.9-0.5-5.4c0-0.2-0.2-0.3-0.3-0.1c-0.5,1.7-1,5.5,1.4,6.1c1.1,0.3,2.1-0.3,2.5-1.3c0.4-0.9,0.4-1.9,0.4-2.9
						c0-0.9,0.1-1.9-0.1-2.7C72.3,57.2,72,57.3,72.1,57.5L72.1,57.5z"/>
				</g>
			</g>
		</g>
		<g>
			<g>
				<g>
					<path class="st0" d="M42.3,83.9c-2.1-0.4-4.5,0.6-6,2.1c-1.1,1-1.7,2.6-0.1,3.4c0.2,0.1,0.3-0.2,0.1-0.3c-1.9-1.1,0-3,1.1-3.7
						c1.4-1,3.1-1.6,4.8-1.3C42.4,84.2,42.5,83.9,42.3,83.9L42.3,83.9z"/>
				</g>
			</g>
		</g>
		<g>
			<g>
				<g>
					<path class="st0" d="M37.7,87.9c-0.6,0.3-1.5,0.9-1.5,1.7c0,0.7,0.7,1.1,1.4,1.2c1.8,0.3,3.9-1.7,4.8-3
						c0.1-0.1-0.1-0.3-0.3-0.1c-0.8,1-1.9,2-3,2.6c-0.7,0.3-2,0.6-2.5-0.3c-0.4-0.8,0.7-1.5,1.2-1.8C38.1,88.1,37.9,87.8,37.7,87.9
						L37.7,87.9z"/>
				</g>
			</g>
		</g>
		<g>
			<g>
				<g>
					<path class="st0" d="M97.7,37.8c5.8,8.4,5,19.3,5,29c-0.1,12.1,1.6,24.1,1,36.2c-0.2,3.2-0.7,6.5-1.7,9.6
						c-1,2.9-3.1,5.2-4.5,7.9c-0.2,0.3,0.3,0.6,0.5,0.3c1.3-2.3,3-4.4,4.1-6.8c1.1-2.5,1.6-5.3,2-8c0.8-6.1,0.4-12.5,0.1-18.6
						c-0.3-6.4-0.8-12.8-0.8-19.1c0-5,0.2-10.1-0.2-15.1c-0.5-5.5-1.7-11-4.8-15.6C98,37.2,97.5,37.5,97.7,37.8L97.7,37.8z"/>
				</g>
			</g>
		</g>
		<g>
			<g>
				<g>
					<path class="st0" d="M91.3,124.3c0,0,0.1,0,0.1,0c0.2,0,0.2-0.3,0-0.3h0c0,0-0.1,0-0.1,0.1l0,0c0,0,0,0,0,0
						c0.1,0.1,0.1,0.1,0.2,0.2c0,0,0-0.1,0-0.2C91.5,124.2,91.4,124.2,91.3,124.3c0,0,0.1,0,0.1,0.1c0.1,0.1,0.4-0.1,0.2-0.2
						c0,0-0.1-0.1-0.2-0.2c-0.1-0.1-0.2,0-0.2,0.1C91.3,124.1,91.2,124.2,91.3,124.3c-0.1,0.1,0,0.2,0.1,0.1c0.1,0,0.2-0.1,0.2-0.2
						c0,0-0.1,0-0.1,0.1h0c0.2,0,0.2-0.3,0-0.3c0,0-0.1,0-0.1,0C91.1,124,91.1,124.3,91.3,124.3L91.3,124.3z"/>
				</g>
			</g>
		</g>
		<g>
			<g>
				<path d="M57.5,75.4c-2.1,0-3.7-1.7-3.7-3.7c0-2.1,1.7-3.7,3.7-3.7c2.1,0,3.7,1.7,3.7,3.7C61.3,73.7,59.6,75.4,57.5,75.4z
					 M57.5,68.4c-1.8,0-3.3,1.5-3.3,3.3c0,1.8,1.5,3.3,3.3,3.3c1.8,0,3.3-1.5,3.3-3.3C60.8,69.9,59.3,68.4,57.5,68.4z"/>
			</g>
			<g class="st1">
				<path d="M56.9,73.1V70h0.4v2.8h1.6v0.4H56.9z"/>
			</g>
		</g>
		<g>
			<g>
				<path d="M67,77.7c-2.6,0-4.6-2.1-4.6-4.6c0-2.6,2.1-4.6,4.6-4.6c2.6,0,4.6,2.1,4.6,4.6C71.7,75.7,69.6,77.7,67,77.7z M67,68.9
					c-2.3,0-4.2,1.9-4.2,4.2c0,2.3,1.9,4.2,4.2,4.2c2.3,0,4.2-1.9,4.2-4.2C71.2,70.8,69.3,68.9,67,68.9z"/>
			</g>
			<g class="st1">
				<path d="M65.4,73c0-0.7,0.2-1.2,0.5-1.5c0.4-0.4,0.8-0.6,1.4-0.6c0.4,0,0.7,0.1,1,0.3c0.3,0.2,0.5,0.4,0.7,0.7
					c0.2,0.3,0.2,0.7,0.2,1.1c0,0.4-0.1,0.8-0.2,1.1c-0.2,0.3-0.4,0.6-0.7,0.7c-0.3,0.2-0.6,0.2-1,0.2c-0.4,0-0.7-0.1-1-0.3
					c-0.3-0.2-0.5-0.4-0.7-0.7C65.5,73.7,65.4,73.3,65.4,73z M66,73c0,0.5,0.1,0.9,0.4,1.1s0.6,0.4,1,0.4c0.4,0,0.7-0.1,1-0.4
					c0.3-0.3,0.4-0.7,0.4-1.2c0-0.3-0.1-0.6-0.2-0.8c-0.1-0.2-0.3-0.4-0.5-0.6c-0.2-0.1-0.4-0.2-0.7-0.2c-0.4,0-0.7,0.1-1,0.4
					C66.1,72,66,72.4,66,73z"/>
			</g>
		</g>
		<g>
			<g>
				<path d="M77.3,76.7c-2.5,0-4.5-2-4.5-4.5c0-2.5,2-4.5,4.5-4.5c2.5,0,4.5,2,4.5,4.5C81.8,74.7,79.8,76.7,77.3,76.7z M77.3,68.1
					c-2.2,0-4.1,1.8-4.1,4.1s1.8,4.1,4.1,4.1c2.2,0,4.1-1.8,4.1-4.1S79.5,68.1,77.3,68.1z"/>
			</g>
			<g class="st1">
				<path d="M77.3,74.3l-1.5-3.9h0.6l1,2.8c0.1,0.2,0.1,0.4,0.2,0.6c0.1-0.2,0.1-0.4,0.2-0.6l1-2.8h0.5l-1.5,3.9H77.3z"/>
			</g>
		</g>
		<g>
			<g>
				<path d="M86.3,73c-2.2,0-3.9-1.8-3.9-3.9s1.8-3.9,3.9-3.9s3.9,1.8,3.9,3.9S88.4,73,86.3,73z M86.3,65.6c-1.9,0-3.4,1.5-3.4,3.4
					c0,1.9,1.5,3.4,3.4,3.4s3.4-1.5,3.4-3.4C89.7,67.2,88.1,65.6,86.3,65.6z"/>
			</g>
			<g class="st1">
				<path d="M85.5,70.7v-3.3h2.4v0.4h-1.9v1h1.8v0.4h-1.8v1.1h2v0.4H85.5z"/>
			</g>
		</g>
		<g>
			<g>
				<path d="M51.1,85.1c-2.7,0-4.9-2.2-4.9-4.9c0-2.7,2.2-4.9,4.9-4.9s4.9,2.2,4.9,4.9C56,82.9,53.8,85.1,51.1,85.1z M51.1,75.8
					c-2.4,0-4.4,2-4.4,4.4s2,4.4,4.4,4.4c2.4,0,4.4-2,4.4-4.4S53.5,75.8,51.1,75.8z"/>
			</g>
			<g class="st1">
				<path d="M50.2,82.7v-4.2h1.6c0.3,0,0.5,0,0.6,0c0.2,0,0.4,0.1,0.5,0.2c0.1,0.1,0.3,0.2,0.3,0.4c0.1,0.2,0.1,0.4,0.1,0.6
					c0,0.4-0.1,0.7-0.3,0.9c-0.2,0.2-0.6,0.4-1.2,0.4h-1.1v1.7H50.2z M50.7,80.5h1.1c0.4,0,0.6-0.1,0.8-0.2c0.2-0.1,0.2-0.3,0.2-0.6
					c0-0.2,0-0.3-0.1-0.4s-0.2-0.2-0.3-0.2c-0.1,0-0.3,0-0.5,0h-1.1V80.5z"/>
			</g>
		</g>
		<g>
			<g>
				<path d="M61.5,90.1c-3.2,0-5.7-2.6-5.7-5.7c0-3.2,2.6-5.7,5.7-5.7c3.2,0,5.7,2.6,5.7,5.7C67.2,87.6,64.6,90.1,61.5,90.1z
					 M61.5,79.2c-2.9,0-5.3,2.4-5.3,5.3c0,2.9,2.4,5.3,5.3,5.3c2.9,0,5.3-2.4,5.3-5.3C66.7,81.5,64.4,79.2,61.5,79.2z"/>
			</g>
			<g class="st1">
				<path d="M60.2,87v-4.4h3.2v0.5h-2.6v1.3h2.4V85h-2.4v1.5h2.7V87H60.2z"/>
			</g>
		</g>
		<g>
			<g>
				<path d="M74.1,98.4c-4.1,0-7.5-3.4-7.5-7.5c0-4.1,3.4-7.5,7.5-7.5s7.5,3.4,7.5,7.5C81.6,95,78.3,98.4,74.1,98.4z M74.1,83.9
					c-3.9,0-7,3.1-7,7c0,3.9,3.1,7,7,7s7-3.1,7-7C81.1,87,78,83.9,74.1,83.9z"/>
			</g>
			<g class="st1">
				<path d="M71.1,93.8l2.2-5.8h0.8l2.4,5.8h-0.9L75,92.1h-2.4l-0.6,1.8H71.1z M72.8,91.4h2l-0.6-1.6c-0.2-0.5-0.3-0.9-0.4-1.2
					c-0.1,0.4-0.2,0.7-0.3,1.1L72.8,91.4z"/>
			</g>
		</g>
		<g>
			<g>
				<path d="M85.5,88.2c-3.1,0-5.5-2.5-5.5-5.5s2.5-5.5,5.5-5.5c3.1,0,5.5,2.5,5.5,5.5S88.6,88.2,85.5,88.2z M85.5,77.6
					c-2.8,0-5.1,2.3-5.1,5.1s2.3,5.1,5.1,5.1c2.8,0,5.1-2.3,5.1-5.1S88.3,77.6,85.5,77.6z"/>
			</g>
			<g class="st1">
				<path d="M86.9,83.5l0.6,0.1c-0.1,0.5-0.3,0.8-0.6,1.1c-0.3,0.2-0.7,0.4-1.1,0.4c-0.5,0-0.8-0.1-1.1-0.3
					c-0.3-0.2-0.5-0.5-0.7-0.8c-0.1-0.4-0.2-0.7-0.2-1.1c0-0.4,0.1-0.8,0.3-1.2c0.2-0.3,0.4-0.6,0.7-0.7c0.3-0.2,0.7-0.3,1-0.3
					c0.4,0,0.8,0.1,1.1,0.3c0.3,0.2,0.5,0.5,0.6,0.9l-0.6,0.1c-0.1-0.3-0.2-0.5-0.4-0.7c-0.2-0.1-0.4-0.2-0.7-0.2
					c-0.3,0-0.6,0.1-0.8,0.2c-0.2,0.2-0.4,0.4-0.5,0.6c-0.1,0.3-0.1,0.5-0.1,0.8c0,0.4,0.1,0.7,0.2,0.9c0.1,0.3,0.3,0.5,0.5,0.6
					c0.2,0.1,0.5,0.2,0.7,0.2c0.3,0,0.6-0.1,0.8-0.3C86.7,84.2,86.9,83.9,86.9,83.5z"/>
			</g>
		</g>
		<g>
			<g>
				<path d="M93.3,80.2c-2.6,0-4.7-2.1-4.7-4.7c0-2.6,2.1-4.7,4.7-4.7c2.6,0,4.7,2.1,4.7,4.7C98,78.1,95.9,80.2,93.3,80.2z
					 M93.3,71.4c-2.3,0-4.2,1.9-4.2,4.2c0,2.3,1.9,4.2,4.2,4.2c2.3,0,4.2-1.9,4.2-4.2C97.5,73.2,95.7,71.4,93.3,71.4z"/>
			</g>
			<g class="st1">
				<path d="M92.3,77.6V74h2.6v0.4h-2.1v1.1h2v0.4h-2v1.2h2.2v0.4H92.3z"/>
			</g>
		</g>
		<g>
			<g>
				<path d="M53.1,101.5c-2.5,0-4.5-2-4.5-4.5s2-4.5,4.5-4.5s4.5,2,4.5,4.5S55.6,101.5,53.1,101.5z M53.1,93c-2.2,0-4,1.8-4,4
					s1.8,4,4,4s4-1.8,4-4S55.3,93,53.1,93z"/>
			</g>
			<g class="st1">
				<path d="M51.8,98l0.4,0c0,0.2,0.1,0.3,0.1,0.4c0.1,0.1,0.2,0.2,0.3,0.3c0.2,0.1,0.3,0.1,0.5,0.1c0.2,0,0.3,0,0.5-0.1
					c0.1-0.1,0.2-0.1,0.3-0.2c0.1-0.1,0.1-0.2,0.1-0.3c0-0.1,0-0.2-0.1-0.3c-0.1-0.1-0.2-0.1-0.3-0.2c-0.1,0-0.3-0.1-0.6-0.2
					c-0.3-0.1-0.5-0.1-0.7-0.2c-0.2-0.1-0.3-0.2-0.4-0.3c-0.1-0.1-0.1-0.3-0.1-0.4c0-0.2,0-0.3,0.1-0.5c0.1-0.1,0.2-0.3,0.4-0.3
					c0.2-0.1,0.4-0.1,0.6-0.1c0.3,0,0.5,0,0.7,0.1c0.2,0.1,0.3,0.2,0.4,0.4s0.2,0.3,0.2,0.5l-0.4,0c0-0.2-0.1-0.4-0.2-0.5
					c-0.1-0.1-0.3-0.2-0.6-0.2c-0.3,0-0.5,0-0.6,0.2c-0.1,0.1-0.2,0.2-0.2,0.4c0,0.1,0,0.2,0.1,0.3c0.1,0.1,0.3,0.2,0.7,0.2
					c0.4,0.1,0.6,0.2,0.8,0.2c0.2,0.1,0.3,0.2,0.4,0.3c0.1,0.1,0.1,0.3,0.1,0.5c0,0.2-0.1,0.4-0.2,0.5c-0.1,0.2-0.3,0.3-0.4,0.4
					c-0.2,0.1-0.4,0.1-0.7,0.1c-0.3,0-0.6,0-0.8-0.1c-0.2-0.1-0.4-0.2-0.5-0.4C51.9,98.4,51.8,98.2,51.8,98z"/>
			</g>
		</g>
		<g>
			<g>
				<path d="M60.8,111.7c-3.2,0-5.8-2.6-5.8-5.8s2.6-5.8,5.8-5.8c3.2,0,5.8,2.6,5.8,5.8S63.9,111.7,60.8,111.7z M60.8,100.6
					c-2.9,0-5.3,2.4-5.3,5.3c0,2.9,2.4,5.3,5.3,5.3c2.9,0,5.3-2.4,5.3-5.3C66.1,103,63.7,100.6,60.8,100.6z"/>
			</g>
			<g class="st1">
				<path d="M59.6,108.5v-4.4h1.7c0.3,0,0.5,0,0.7,0c0.2,0,0.4,0.1,0.5,0.2c0.1,0.1,0.3,0.2,0.4,0.4c0.1,0.2,0.1,0.4,0.1,0.6
					c0,0.4-0.1,0.7-0.4,1c-0.2,0.3-0.7,0.4-1.3,0.4h-1.1v1.8H59.6z M60.2,106.2h1.1c0.4,0,0.6-0.1,0.8-0.2c0.2-0.1,0.2-0.3,0.2-0.6
					c0-0.2,0-0.3-0.1-0.5c-0.1-0.1-0.2-0.2-0.4-0.3c-0.1,0-0.3,0-0.5,0h-1.1V106.2z"/>
			</g>
		</g>
		<g>
			<g>
				<path d="M74.2,117.4c-4.1,0-7.5-3.4-7.5-7.5s3.4-7.5,7.5-7.5s7.5,3.4,7.5,7.5S78.4,117.4,74.2,117.4z M74.2,102.9
					c-3.9,0-7,3.1-7,7c0,3.9,3.1,7,7,7s7-3.1,7-7C81.3,106.1,78.1,102.9,74.2,102.9z"/>
			</g>
			<g class="st1">
				<path d="M71.6,112.7l2.2-5.8h0.8l2.4,5.8h-0.9l-0.7-1.8h-2.4l-0.6,1.8H71.6z M73.3,110.3h2l-0.6-1.6c-0.2-0.5-0.3-0.9-0.4-1.2
					c-0.1,0.4-0.2,0.7-0.3,1.1L73.3,110.3z"/>
			</g>
		</g>
		<g>
			<g>
				<path d="M88.3,111.7c-3.2,0-5.8-2.6-5.8-5.8s2.6-5.8,5.8-5.8s5.8,2.6,5.8,5.8S91.4,111.7,88.3,111.7z M88.3,100.6
					c-2.9,0-5.3,2.4-5.3,5.3c0,2.9,2.4,5.3,5.3,5.3c2.9,0,5.3-2.4,5.3-5.3C93.6,103,91.2,100.6,88.3,100.6z"/>
			</g>
			<g class="st1">
				<path d="M89.9,106.9l0.6,0.1c-0.1,0.5-0.3,0.8-0.7,1.1c-0.3,0.3-0.7,0.4-1.2,0.4c-0.5,0-0.9-0.1-1.2-0.3
					c-0.3-0.2-0.5-0.5-0.7-0.8c-0.2-0.4-0.2-0.8-0.2-1.2c0-0.5,0.1-0.9,0.3-1.2c0.2-0.3,0.4-0.6,0.8-0.8c0.3-0.2,0.7-0.3,1.1-0.3
					c0.4,0,0.8,0.1,1.1,0.3c0.3,0.2,0.5,0.5,0.6,1l-0.6,0.1c-0.1-0.3-0.3-0.6-0.4-0.7c-0.2-0.1-0.4-0.2-0.7-0.2
					c-0.3,0-0.6,0.1-0.9,0.2c-0.2,0.2-0.4,0.4-0.5,0.7c-0.1,0.3-0.1,0.6-0.1,0.8c0,0.4,0.1,0.7,0.2,1c0.1,0.3,0.3,0.5,0.5,0.6
					c0.2,0.1,0.5,0.2,0.8,0.2c0.3,0,0.6-0.1,0.8-0.3C89.6,107.6,89.8,107.3,89.9,106.9z"/>
			</g>
		</g>
		<g>
			<g>
				<path d="M93.3,99.7c-2.5,0-4.5-2-4.5-4.5s2-4.5,4.5-4.5s4.5,2,4.5,4.5S95.8,99.7,93.3,99.7z M93.3,91.1c-2.2,0-4,1.8-4,4
					c0,2.2,1.8,4,4,4c2.2,0,4-1.8,4-4C97.4,92.9,95.6,91.1,93.3,91.1z"/>
			</g>
			<g class="st1">
				<path d="M92.4,97v-3.4h2.5V94h-2v1h1.9v0.4h-1.9v1.2h2.1V97H92.4z"/>
			</g>
		</g>
		<g>
			<g>
				<g>
					<path d="M97.7,73.6c1.6-0.9,3.3-1.6,5-2c0.4-0.1,0.2-0.7-0.2-0.6c-1.8,0.4-3.5,1.2-5.2,2.1C97.1,73.3,97.3,73.8,97.7,73.6
						L97.7,73.6z"/>
				</g>
			</g>
		</g>
		<g>
			<g>
				<g>
					<path d="M89.6,79.3c0.2-0.2,0.4-0.4,0.6-0.5c0.1-0.1,0.1-0.3,0-0.4c-0.1-0.1-0.3-0.1-0.4,0c-0.2,0.2-0.4,0.4-0.6,0.5
						c-0.1,0.1-0.1,0.3,0,0.4C89.3,79.4,89.5,79.4,89.6,79.3L89.6,79.3z"/>
				</g>
			</g>
		</g>
		<g>
			<g>
				<g>
					<path d="M79.5,86c0.4-0.2,0.9-0.3,1.3-0.5c0.4-0.1,0-0.7-0.3-0.5c-0.4,0.2-0.8,0.3-1.1,0.5C78.9,85.6,79.1,86.1,79.5,86
						L79.5,86z"/>
				</g>
			</g>
		</g>
		<g>
			<g>
				<g>
					<path d="M66.4,87.6c0.5,0,0.9,0.1,1.4,0.1c0.4,0,0.4-0.6,0-0.6c-0.5,0-0.9-0.1-1.4-0.1C66,87,66,87.6,66.4,87.6L66.4,87.6z"/>
				</g>
			</g>
		</g>
		<g>
			<g>
				<g>
					<path d="M42.4,76.5c1.5-0.3,3.1,0.6,4.4,1.2c0.4,0.2,0.6-0.4,0.3-0.5c-1.5-0.7-3.1-1.6-4.9-1.3C41.9,76,42,76.6,42.4,76.5
						L42.4,76.5z"/>
				</g>
			</g>
		</g>
		<g>
			<g>
				<g>
					<path d="M94.3,90.8c1.1-3.3,2-6.7,3.6-9.9c0.7-1.3,1.4-2.5,2.3-3.7c0.8-1,1.6-2.4,2.8-2.9c0.4-0.2,0-0.7-0.3-0.5
						c-1,0.5-1.8,1.5-2.5,2.4c-1,1.3-1.9,2.6-2.6,4c-1.7,3.3-2.7,6.9-3.9,10.4C93.6,91,94.2,91.2,94.3,90.8L94.3,90.8z"/>
				</g>
			</g>
		</g>
		<g>
			<g>
				<g>
					<path d="M90.3,100.6c0.3-0.5,0.6-1,0.8-1.5c0.2-0.3-0.3-0.6-0.5-0.3c-0.3,0.5-0.5,1-0.8,1.5C89.5,100.6,90.1,100.9,90.3,100.6
						L90.3,100.6z"/>
				</g>
			</g>
		</g>
		<g>
			<g>
				<g>
					<path d="M81.7,109.8c0.5-0.4,1.1-0.8,1.6-1.2c0.3-0.2-0.1-0.7-0.4-0.4c-0.5,0.4-1,0.7-1.5,1.1C81.1,109.5,81.4,110,81.7,109.8
						L81.7,109.8z"/>
				</g>
			</g>
		</g>
		<g>
			<g>
				<g>
					<path d="M64.7,110.2c0.7,0.5,1.4,0.9,2.1,1.2c0.3,0.2,0.6-0.4,0.3-0.5c-0.7-0.4-1.5-0.8-2.1-1.2
						C64.7,109.5,64.4,110,64.7,110.2L64.7,110.2z"/>
				</g>
			</g>
		</g>
		<g>
			<g>
				<g>
					<path d="M56.2,100.2c0.3,0.5,0.5,0.9,0.8,1.4c0.2,0.3,0.7,0,0.5-0.3c-0.3-0.5-0.5-0.9-0.8-1.4C56.5,99.6,56,99.9,56.2,100.2
						L56.2,100.2z"/>
				</g>
			</g>
		</g>
		<g>
			<g>
				<g>
					<path d="M41.9,81.2c4.7,2.5,7.7,6.9,10.3,11.4c0.2,0.3,0.7,0,0.5-0.3c-2.6-4.6-5.7-9.1-10.5-11.6
						C41.8,80.5,41.5,81.1,41.9,81.2L41.9,81.2z"/>
				</g>
			</g>
		</g>
		<g>
			<g>
				<g>
					<path d="M90.2,68.1c4.4-1.5,8.8-3,12.5-5.9c0.3-0.2,0-0.7-0.3-0.5c-3.7,2.8-8,4.4-12.3,5.8C89.7,67.6,89.8,68.2,90.2,68.1
						L90.2,68.1z"/>
				</g>
			</g>
		</g>
		<g>
			<g>
				<g>
					<path d="M81.5,70.3c0.3,0,0.6-0.1,0.9-0.2c0.4-0.1,0.2-0.6-0.2-0.6c-0.3,0.1-0.6,0.1-0.9,0.2C81,69.8,81.1,70.4,81.5,70.3
						L81.5,70.3z"/>
				</g>
			</g>
		</g>
		<g>
			<g>
				<g>
					<path d="M71.2,71.6c0.5,0,1.1-0.1,1.7-0.1c0.4,0,0.4-0.6,0-0.6c-0.5,0-1.1,0.1-1.7,0.1C70.9,71,70.9,71.6,71.2,71.6L71.2,71.6z
						"/>
				</g>
			</g>
		</g>
		<g>
			<g>
				<g>
					<path d="M61.1,72c0.5,0,1,0,1.5,0c0.4,0,0.4-0.6,0-0.6c-0.5,0-1,0-1.5,0C60.7,71.4,60.7,72,61.1,72L61.1,72z"/>
				</g>
			</g>
		</g>
		<g>
			<g>
				<g>
					<path d="M41.9,69.5c3.9,0.9,7.9,1.5,11.9,2c0.4,0,0.4-0.5,0-0.6c-3.9-0.4-7.9-1-11.8-2C41.7,68.9,41.5,69.5,41.9,69.5
						L41.9,69.5z"/>
				</g>
			</g>
		</g>
		<g>
			<path class="st0" d="M34.4,79.1c-1.7,0-3.4-1-4.8-3c-1.5-2.1-2.6-5-3-8.2c-0.8-6.6,1.6-12.3,5.4-12.7l0,0
				c3.8-0.5,7.4,4.5,8.2,11.1c0.4,3.2,0,6.2-1,8.6c-1,2.4-2.6,3.9-4.4,4.1C34.7,79.1,34.5,79.1,34.4,79.1z M32.1,55.7
				c-3.5,0.4-5.7,5.9-5,12.2c0.4,3.1,1.4,5.9,2.9,7.9c1.5,2,3.2,3,4.8,2.8c1.7-0.2,3.1-1.6,4-3.8c1-2.3,1.3-5.3,0.9-8.4
				C39,60.1,35.6,55.3,32.1,55.7L32.1,55.7z"/>
		</g>
		<g>
			<path class="st0" d="M34.3,77.2c-1.3,0-2.6-0.9-3.8-2.6c-1.2-1.8-2-4.2-2.3-6.9c-0.3-2.7-0.1-5.2,0.6-7.2
				c0.7-2.1,1.9-3.3,3.4-3.5c1.4-0.2,2.9,0.8,4.1,2.6c1.2,1.8,2,4.2,2.3,6.9c0.3,2.7,0.1,5.2-0.6,7.2c-0.7,2.1-1.9,3.3-3.4,3.5
				C34.5,77.2,34.4,77.2,34.3,77.2z M32.5,57.7c-0.1,0-0.2,0-0.3,0l0,0c-1.2,0.1-2.1,1.2-2.8,3c-0.7,1.9-0.9,4.3-0.6,6.9
				c0.3,2.5,1.1,4.9,2.2,6.6c1.1,1.6,2.3,2.4,3.4,2.3c1.2-0.1,2.1-1.2,2.8-3c0.7-1.9,0.9-4.3,0.6-6.9s-1.1-4.9-2.2-6.6
				C34.7,58.5,33.6,57.7,32.5,57.7z"/>
		</g>
		<g>
			<g>
				<g>
					<path class="st0" d="M34.6,79.4c0.7,4.5,1.3,9,2,13.5c0.1,0.8,1.3,0.4,1.1-0.3c-0.7-4.5-1.3-9-2-13.5
						C35.7,78.3,34.5,78.6,34.6,79.4L34.6,79.4z"/>
				</g>
			</g>
		</g>
		<g>
			<g>
				<g>
					<path class="st0" d="M68.2,27c-1.3,0.4-2-1.8-2.2-2.7c-0.3-1.1-0.3-2.2,0-3.3c0.5-1.9,2-3.3,4-3.4c0.9,0,1.9,0.2,2.5,1
						c0.4,0.4,0.9,1.4,0.3,1.8c-0.7,0.5-1.5-0.4-1.8-0.8c-1.4-2.1,0.5-4.7,3-4.2c0.3,0,0.5,0,0.7-0.3c0.7-1.3,2-2.2,3.5-2.3
						c0.8-0.1,0.8-1.3,0-1.2c-1.9,0.2-3.6,1.2-4.5,2.9c0.2-0.1,0.5-0.2,0.7-0.3c-2.5-0.5-5.1,1.3-4.9,4c0.1,1.2,0.7,2.4,1.7,3.1
						c1,0.7,2.4,0.6,3-0.6c1.2-2.5-2-4.4-4-4.3c-2.7,0.1-4.8,2.1-5.3,4.8c-0.4,2.1,0.5,7.9,3.8,6.9C69.3,27.9,69,26.8,68.2,27
						L68.2,27z"/>
				</g>
			</g>
		</g>
		<g>
			<g>
				<g>
					<path class="st0" d="M69.5,27.6c-0.7-0.8-0.6-2.1,0.4-2.7c0.4-0.2,1-0.3,1.4-0.2c0.5,0.1,1.5,0.9,0.8,1.5
						c0.3,0.1,0.7,0.3,1,0.4c-0.3-2.2,2-3,3.7-3.4c0.7-0.2,0.4-1.4-0.3-1.1c-2.2,0.6-5,1.8-4.6,4.5c0.1,0.5,0.6,0.8,1,0.4
						c1.7-1.8-0.7-3.9-2.6-3.6c-2.4,0.4-3.1,3.2-1.7,4.9C69.1,29,70,28.2,69.5,27.6L69.5,27.6z"/>
				</g>
			</g>
		</g>
		<g>
			<g>
				<g>
					<path class="st0" d="M53.2,33.7c0,0.3,0.1,0.5,0.3,0.8c0.2,0.2,0.4,0.3,0.6,0.4c0.3,0.1,0.7-0.1,0.7-0.4
						c0.1-0.3-0.1-0.6-0.4-0.7c0,0-0.1,0,0,0c0.1,0,0,0,0,0c-0.1,0,0,0,0,0c0,0,0,0-0.1,0c0,0,0.1,0.1,0,0c0,0,0-0.1,0-0.1
						c0,0,0,0.1,0,0c0,0,0-0.1,0,0c0-0.2,0-0.3-0.2-0.4c-0.1-0.1-0.3-0.2-0.4-0.2C53.5,33.1,53.1,33.3,53.2,33.7L53.2,33.7z"/>
				</g>
			</g>
		</g>
		<g>
			<g>
				<g>
					<path class="st0" d="M56.6,32.7C56.7,32.7,56.7,32.8,56.6,32.7C56.7,32.7,56.6,32.7,56.6,32.7C56.7,32.8,56.7,32.8,56.6,32.7
						C56.7,32.8,56.7,32.8,56.6,32.7C56.7,32.8,56.7,32.8,56.6,32.7C56.6,32.8,56.7,32.7,56.6,32.7c-0.1,0.4,0.1,0.8,0.4,0.8
						c0.3,0.1,0.6-0.1,0.7-0.4c0.1-0.3,0-0.7-0.1-1c-0.2-0.3-0.5-0.4-0.8-0.2C56.6,32.1,56.4,32.4,56.6,32.7L56.6,32.7z"/>
				</g>
			</g>
		</g>
		<g>
			<g>
				<g>
					<path class="st0" d="M59.8,31.9c0,0.2,0,0.5,0,0.7c0,0.3,0.3,0.6,0.6,0.6c0.3,0,0.6-0.3,0.6-0.6c0-0.2,0-0.5,0-0.7
						c0-0.3-0.3-0.6-0.6-0.6C60.1,31.3,59.8,31.6,59.8,31.9L59.8,31.9z"/>
				</g>
			</g>
		</g>
		<g>
			<g>
				<g>
					<path class="st0" d="M81.3,31.1c-0.1,0.3,0,0.7,0.1,1c0.2,0.3,0.5,0.4,0.8,0.2c0.3-0.2,0.4-0.5,0.2-0.8c0,0,0-0.1,0-0.1
						c0,0.1,0,0.1,0,0c0,0,0,0,0,0c0,0,0,0,0,0.1c0,0,0,0,0-0.1c0-0.1,0,0.1,0,0c0.1-0.3-0.1-0.7-0.4-0.7
						C81.7,30.6,81.4,30.8,81.3,31.1L81.3,31.1z"/>
				</g>
			</g>
		</g>
		<g>
			<g>
				<g>
					<path class="st0" d="M83.9,31.1c0,0.2-0.1,0.4-0.1,0.6c0,0.3,0.1,0.7,0.4,0.7c0.3,0.1,0.7-0.1,0.7-0.4c0-0.2,0.1-0.4,0.1-0.6
						c0-0.3-0.1-0.7-0.4-0.7C84.3,30.6,83.9,30.8,83.9,31.1L83.9,31.1z"/>
				</g>
			</g>
		</g>
		<g>
			<g>
				<g>
					<path class="st0" d="M87.3,31.8c-0.1,0.1-0.1,0.3-0.2,0.4c-0.1,0.3-0.1,0.7,0.2,0.8c0.3,0.1,0.7,0.1,0.8-0.2
						c0.1-0.1,0.1-0.3,0.2-0.4c0.1-0.3,0.1-0.7-0.2-0.8C87.9,31.4,87.5,31.5,87.3,31.8L87.3,31.8z"/>
				</g>
			</g>
		</g>
		<g>
			<g>
				<g>
					<path class="st0" d="M54.8,71.8C54.8,71.7,54.9,71.7,54.8,71.8c0.3-0.3,0.3-0.7,0.1-0.9c-0.2-0.2-0.6-0.2-0.8,0
						c0,0-0.1,0.1-0.1,0.1c-0.2,0.2-0.2,0.6,0,0.8C54.2,72,54.6,72,54.8,71.8L54.8,71.8z"/>
				</g>
			</g>
		</g>
		<g>
			<g>
				<g>
					<path class="st0" d="M61.2,72.2C61.2,72.2,61.2,72.1,61.2,72.2c0.3-0.3,0.3-0.7,0.1-0.9s-0.6-0.2-0.8,0c0,0-0.1,0.1-0.1,0.1
						c-0.2,0.2-0.2,0.6,0,0.8S60.9,72.4,61.2,72.2L61.2,72.2z"/>
				</g>
			</g>
		</g>
		<g>
			<g>
				<g>
					<path class="st0" d="M62.7,71.1C62.7,71.2,62.7,71.2,62.7,71.1c-0.3,0.3-0.3,0.7-0.1,0.9s0.6,0.2,0.8,0c0,0,0.1-0.1,0.1-0.1
						c0.2-0.2,0.2-0.6,0-0.8C63.3,70.9,63,70.9,62.7,71.1L62.7,71.1z"/>
				</g>
			</g>
		</g>
		<g>
			<g>
				<g>
					<path class="st0" d="M70.9,72.1c0.8,0,0.8-1.2,0-1.2C70.1,70.9,70.1,72.1,70.9,72.1L70.9,72.1z"/>
				</g>
			</g>
		</g>
		<g>
			<g>
				<g>
					<path class="st0" d="M72.5,71.1C72.5,71.2,72.5,71.2,72.5,71.1c0,0.4,0.3,0.7,0.6,0.7c0.3,0,0.6-0.3,0.6-0.6c0,0,0-0.1,0-0.1
						c0-0.3-0.3-0.6-0.6-0.6C72.8,70.5,72.5,70.8,72.5,71.1L72.5,71.1z"/>
				</g>
			</g>
		</g>
		<g>
			<g>
				<g>
					<path class="st0" d="M81,70.8c0.8,0,0.8-1.2,0-1.2C80.3,69.6,80.3,70.8,81,70.8L81,70.8z"/>
				</g>
			</g>
		</g>
		<g>
			<g>
				<g>
					<path class="st0" d="M82.8,70.4c0.8,0,0.8-1.2,0-1.2C82.1,69.3,82.1,70.4,82.8,70.4L82.8,70.4z"/>
				</g>
			</g>
		</g>
		<g>
			<g>
				<g>
					<path class="st0" d="M89.3,68.5c0.8,0,0.8-1.2,0-1.2C88.5,67.4,88.5,68.5,89.3,68.5L89.3,68.5z"/>
				</g>
			</g>
		</g>
		<g>
			<g>
				<g>
					<path class="st0" d="M90.4,79c0.8,0,0.8-1.2,0-1.2C89.7,77.8,89.7,79,90.4,79L90.4,79z"/>
				</g>
			</g>
		</g>
		<g>
			<g>
				<g>
					<path class="st0" d="M96.7,73C96.7,73.1,96.6,73.1,96.7,73c-0.3,0.3-0.3,0.7-0.1,0.9s0.6,0.2,0.8,0c0,0,0.1-0.1,0.1-0.1
						c0.2-0.2,0.2-0.6,0-0.8C97.3,72.8,96.9,72.8,96.7,73L96.7,73z"/>
				</g>
			</g>
		</g>
		<g>
			<g>
				<g>
					<path class="st0" d="M88.7,79.7C88.7,79.7,88.7,79.7,88.7,79.7c0.3,0.3,0.7,0.3,0.9,0.1s0.2-0.6,0-0.8c0,0-0.1-0.1-0.1-0.1
						c-0.2-0.2-0.6-0.2-0.8,0C88.4,79.1,88.4,79.5,88.7,79.7L88.7,79.7z"/>
				</g>
			</g>
		</g>
		<g>
			<g>
				<g>
					<path class="st0" d="M79,86.6c0.8,0,0.8-1.2,0-1.2C78.3,85.4,78.3,86.6,79,86.6L79,86.6z"/>
				</g>
			</g>
		</g>
		<g>
			<g>
				<g>
					<path class="st0" d="M80.7,85.8c0.8,0,0.8-1.2,0-1.2C80,84.6,80,85.8,80.7,85.8L80.7,85.8z"/>
				</g>
			</g>
		</g>
		<g>
			<g>
				<g>
					<path class="st0" d="M67.2,87.2C67.2,87.2,67.2,87.3,67.2,87.2c0,0.4,0.3,0.7,0.6,0.7s0.6-0.3,0.6-0.6c0,0,0-0.1,0-0.1
						c0-0.3-0.3-0.6-0.6-0.6C67.5,86.6,67.2,86.9,67.2,87.2L67.2,87.2z"/>
				</g>
			</g>
		</g>
		<g>
			<g>
				<g>
					<path class="st0" d="M65.2,87.2c0.1,0.2,0.2,0.4,0.4,0.5c0.2,0.1,0.4,0.1,0.6,0.1c0.3-0.1,0.5-0.4,0.4-0.7
						c-0.1-0.3-0.4-0.5-0.7-0.4c0.1,0,0.1,0,0.2,0c0.2,0,0.3,0.1,0.3,0.3c-0.1-0.3-0.4-0.5-0.7-0.4C65.4,86.6,65.1,86.9,65.2,87.2
						L65.2,87.2z"/>
				</g>
			</g>
		</g>
		<g>
			<g>
				<g>
					<path class="st0" d="M55.1,82.2C55.1,82.2,55.1,82.3,55.1,82.2c0,0.4,0.3,0.7,0.6,0.7c0.3,0,0.6-0.3,0.6-0.6c0,0,0-0.1,0-0.1
						c0-0.3-0.3-0.6-0.6-0.6C55.3,81.6,55.1,81.9,55.1,82.2L55.1,82.2z"/>
				</g>
			</g>
		</g>
		<g>
			<g>
				<g>
					<path class="st0" d="M46.6,77.4C46.6,77.4,46.6,77.4,46.6,77.4c0,0.4,0.3,0.7,0.6,0.7c0.3,0,0.6-0.3,0.6-0.6c0,0,0-0.1,0-0.1
						c0-0.3-0.3-0.6-0.6-0.6C46.9,76.8,46.6,77,46.6,77.4L46.6,77.4z"/>
				</g>
			</g>
		</g>
		<g>
			<g>
				<g>
					<path class="st0" d="M52.4,93.5c0.8,0,0.8-1.2,0-1.2C51.6,92.3,51.6,93.5,52.4,93.5L52.4,93.5z"/>
				</g>
			</g>
		</g>
		<g>
			<g>
				<g>
					<path class="st0" d="M55.6,99.8C55.6,99.8,55.6,99.9,55.6,99.8c0,0.4,0.3,0.7,0.6,0.7c0.3,0,0.6-0.3,0.6-0.6c0,0,0-0.1,0-0.1
						c0-0.3-0.3-0.6-0.6-0.6C55.9,99.2,55.6,99.4,55.6,99.8L55.6,99.8z"/>
				</g>
			</g>
		</g>
		<g>
			<g>
				<g>
					<path class="st0" d="M57.3,102.3c0.8,0,0.8-1.2,0-1.2S56.6,102.3,57.3,102.3L57.3,102.3z"/>
				</g>
			</g>
		</g>
		<g>
			<g>
				<g>
					<path class="st0" d="M64.5,110.4c0.8,0,0.8-1.2,0-1.2S63.8,110.4,64.5,110.4L64.5,110.4z"/>
				</g>
			</g>
		</g>
		<g>
			<g>
				<g>
					<path class="st0" d="M67.1,111.8c0.8,0,0.8-1.2,0-1.2C66.3,110.6,66.3,111.8,67.1,111.8L67.1,111.8z"/>
				</g>
			</g>
		</g>
		<g>
			<g>
				<g>
					<path class="st0" d="M81.4,110.2c0.8,0,0.8-1.2,0-1.2C80.6,109,80.6,110.2,81.4,110.2L81.4,110.2z"/>
				</g>
			</g>
		</g>
		<g>
			<g>
				<g>
					<path class="st0" d="M82.7,108.3C82.7,108.4,82.7,108.4,82.7,108.3c0,0.4,0.3,0.7,0.6,0.7c0.3,0,0.6-0.3,0.6-0.6
						c0,0,0-0.1,0-0.1c0-0.3-0.3-0.6-0.6-0.6C82.9,107.8,82.7,108,82.7,108.3L82.7,108.3z"/>
				</g>
			</g>
		</g>
		<g>
			<g>
				<g>
					<path class="st0" d="M89.8,101.3c0.8,0,0.8-1.2,0-1.2C89,100.1,89,101.3,89.8,101.3L89.8,101.3z"/>
				</g>
			</g>
		</g>
		<g>
			<g>
				<g>
					<path class="st0" d="M91,99.2c0.8,0,0.8-1.2,0-1.2C90.2,98,90.2,99.2,91,99.2L91,99.2z"/>
				</g>
			</g>
		</g>
		<g>
			<g>
				<g>
					<path class="st0" d="M93.9,91.7c0.8,0,0.8-1.2,0-1.2C93.2,90.5,93.2,91.7,93.9,91.7L93.9,91.7z"/>
				</g>
			</g>
		</g>
		<g>
			<g>
				<g>
					<path class="st0" d="M37.3,93.7c0.8,0,0.8-1.2,0-1.2C36.5,92.5,36.5,93.7,37.3,93.7L37.3,93.7z"/>
				</g>
			</g>
		</g>
		<g>
			<g>
				<g>
					<path class="st0" d="M36.1,93.5C36.1,93.6,36.2,93.6,36.1,93.5c0.3,0.3,0.7,0.3,0.9,0.1c0.2-0.2,0.2-0.6,0-0.8
						c0,0-0.1-0.1-0.1-0.1c-0.2-0.2-0.6-0.2-0.8,0C35.9,92.9,35.9,93.3,36.1,93.5L36.1,93.5z"/>
				</g>
			</g>
		</g>
		<g>
			<g>
				<g>
					<path class="st0" d="M37.4,94.2c0.8,0,0.8-1.2,0-1.2S36.6,94.2,37.4,94.2L37.4,94.2z"/>
				</g>
			</g>
		</g>
		<g>
			<g>
				<g>
					<path class="st0" d="M38.1,93.5c0.8,0,0.8-1.2,0-1.2S37.3,93.5,38.1,93.5L38.1,93.5z"/>
				</g>
			</g>
		</g>
		<g>
			<g>
				<g>
					<path class="st0" d="M36.4,92.7c0.8,0,0.8-1.2,0-1.2S35.6,92.7,36.4,92.7L36.4,92.7z"/>
				</g>
			</g>
		</g>
		<g>
			<g>
				<g>
					<path class="st0" d="M37.3,92.4C37.3,92.4,37.3,92.5,37.3,92.4c0.3,0.3,0.7,0.3,0.9,0.1c0.2-0.2,0.2-0.6,0-0.8
						c0,0-0.1-0.1-0.1-0.1c-0.2-0.2-0.6-0.2-0.8,0C37,91.8,37,92.1,37.3,92.4L37.3,92.4z"/>
				</g>
			</g>
		</g>
		<g>
			<g>
				<g>
					<path class="st0" d="M27.7,69.8c0.8,0,0.8-1.2,0-1.2C27,68.6,27,69.8,27.7,69.8L27.7,69.8z"/>
				</g>
			</g>
		</g>
		<g>
			<g>
				<g>
					<path class="st0" d="M27.3,66.9c0.8,0,0.8-1.2,0-1.2C26.6,65.7,26.6,66.9,27.3,66.9L27.3,66.9z"/>
				</g>
			</g>
		</g>
		<g>
			<g>
				<g>
					<path class="st0" d="M27.6,63.4c0.8,0,0.8-1.2,0-1.2C26.9,62.2,26.9,63.4,27.6,63.4L27.6,63.4z"/>
				</g>
			</g>
		</g>
		<g>
			<g>
				<g>
					<path class="st0" d="M28.7,60c0.8,0,0.8-1.2,0-1.2C27.9,58.8,27.9,60,28.7,60L28.7,60z"/>
				</g>
			</g>
		</g>
		<g>
			<g>
				<g>
					<path class="st0" d="M30.1,56.4C30,56.5,30,56.5,30.1,56.4c-0.6,0.6,0.2,1.5,0.8,0.9c0,0,0,0,0.1-0.1
						C31.5,56.7,30.6,55.9,30.1,56.4C30,56.5,30,56.5,30.1,56.4c-0.6,0.6,0.2,1.5,0.8,0.9c0,0,0,0,0.1-0.1
						C31.5,56.7,30.6,55.9,30.1,56.4L30.1,56.4z"/>
				</g>
			</g>
		</g>
		<g>
			<g>
				<g>
					<path class="st0" d="M33,56.8C33.1,56.9,33.1,56.9,33,56.8c0.3,0.3,0.7,0.3,0.9,0.1c0.2-0.2,0.2-0.6,0-0.8c0,0-0.1-0.1-0.1-0.1
						c-0.2-0.2-0.6-0.2-0.8,0S32.8,56.6,33,56.8L33,56.8z"/>
				</g>
			</g>
		</g>
		<g>
			<g>
				<g>
					<path class="st0" d="M36.3,59.1c0.8,0,0.8-1.2,0-1.2C35.5,58,35.5,59.1,36.3,59.1L36.3,59.1z"/>
				</g>
			</g>
		</g>
		<g>
			<g>
				<g>
					<path class="st0" d="M37.9,62.3c0.8,0,0.8-1.2,0-1.2S37.1,62.3,37.9,62.3L37.9,62.3z"/>
				</g>
			</g>
		</g>
		<g>
			<g>
				<g>
					<path class="st0" d="M39.1,64.2C39.1,64.2,39,64.2,39.1,64.2c-0.3,0-0.4,0-0.5,0c-0.1,0.1-0.2,0.2-0.3,0.4
						c-0.1,0.3,0.1,0.7,0.4,0.7c0,0,0.1,0,0.1,0c0.2,0,0.3,0,0.5-0.1c0.1-0.1,0.2-0.2,0.3-0.4C39.6,64.6,39.4,64.3,39.1,64.2
						L39.1,64.2z"/>
				</g>
			</g>
		</g>
		<g>
			<g>
				<g>
					<path class="st0" d="M39.2,68.7C39.2,68.7,39.2,68.7,39.2,68.7c0.4,0,0.7-0.3,0.7-0.6c0-0.3-0.3-0.6-0.6-0.6c0,0-0.1,0-0.1,0
						c-0.3,0-0.6,0.3-0.6,0.6C38.6,68.4,38.8,68.7,39.2,68.7L39.2,68.7z"/>
				</g>
			</g>
		</g>
		<g>
			<g>
				<g>
					<path class="st0" d="M39.1,72.5C39.1,72.5,39.1,72.5,39.1,72.5c0.4,0,0.7-0.3,0.7-0.6c0-0.3-0.3-0.6-0.6-0.6c0,0-0.1,0-0.1,0
						c-0.3,0-0.6,0.3-0.6,0.6C38.5,72.2,38.7,72.5,39.1,72.5L39.1,72.5z"/>
				</g>
			</g>
		</g>
		<g>
			<g>
				<g>
					<path class="st0" d="M37.6,74.9C37.6,75,37.6,75,37.6,74.9c0,0.4,0.3,0.7,0.6,0.7c0.3,0,0.6-0.3,0.6-0.6c0,0,0-0.1,0-0.1
						c0-0.3-0.3-0.6-0.6-0.6C37.9,74.3,37.6,74.6,37.6,74.9L37.6,74.9z"/>
				</g>
			</g>
		</g>
		<g>
			<g>
				<g>
					<path class="st0" d="M36.6,77.8c0.8,0,0.8-1.2,0-1.2S35.9,77.8,36.6,77.8L36.6,77.8z"/>
				</g>
			</g>
		</g>
		<g>
			<g>
				<g>
					<path class="st0" d="M33.6,78.5C33.6,78.5,33.6,78.5,33.6,78.5c0.4,0,0.7-0.3,0.7-0.6s-0.3-0.6-0.6-0.6c0,0-0.1,0-0.1,0
						c-0.3,0-0.6,0.3-0.6,0.6S33.2,78.5,33.6,78.5L33.6,78.5z"/>
				</g>
			</g>
		</g>
		<g>
			<g>
				<g>
					<path class="st0" d="M30.8,75.8C30.8,75.8,30.7,75.8,30.8,75.8c-0.3,0.3-0.3,0.7-0.1,0.9s0.6,0.2,0.8,0c0,0,0.1-0.1,0.1-0.1
						c0.2-0.2,0.2-0.6,0-0.8C31.4,75.6,31,75.5,30.8,75.8L30.8,75.8z"/>
				</g>
			</g>
		</g>
		<g>
			<g>
				<g>
					<path class="st0" d="M29,73.7C29,73.7,29.1,73.7,29,73.7c0.4,0,0.7-0.3,0.7-0.6c0-0.3-0.3-0.6-0.6-0.6c0,0-0.1,0-0.1,0
						c-0.3,0-0.6,0.3-0.6,0.6C28.4,73.5,28.7,73.7,29,73.7L29,73.7z"/>
				</g>
			</g>
		</g>
		<g>
			<g>
				<g>
					<path class="st0" d="M30.9,61.4c0.5,2.3,1,4.5,1.6,6.8c0,0.2,0.3,0.1,0.3-0.1c-0.5-2.3-1-4.5-1.6-6.8
						C31.1,61.2,30.8,61.2,30.9,61.4L30.9,61.4z"/>
				</g>
			</g>
		</g>
		<g>
			<g>
				<g>
					<path class="st0" d="M32.2,61.2c0.3,1.5,0.6,3,1,4.4c0,0.2,0.3,0.1,0.3-0.1c-0.3-1.5-0.6-3-1-4.4C32.4,60.9,32.1,61,32.2,61.2
						L32.2,61.2z"/>
				</g>
			</g>
		</g>
	</g>
</g>
</svg>
