<?xml version="1.0" encoding="utf-8"?>
<!-- Generator: Adobe Illustrator 24.0.1, SVG Export Plug-In . SVG Version: 6.00 Build 0)  -->
<svg version="1.1" id="Layer_1" xmlns="http://www.w3.org/2000/svg" xmlns:xlink="http://www.w3.org/1999/xlink" x="0px" y="0px"
	 viewBox="0 0 141.7 141.7" style="enable-background:new 0 0 141.7 141.7;" xml:space="preserve">
<style type="text/css">
	.st0{fill:#070707;}
</style>
<g id="Layer_1_1_">
</g>
<g id="Layer_1_2_">
</g>
<g id="Layer_1_3_">
</g>
<g id="Layer_1_4_">
</g>
<g id="Layer_1_5_">
</g>
<g id="Layer_3">
</g>
<g id="Layer_3_1_">
</g>
<g id="Layer_1_6_">
</g>
<g id="Layer_1_7_">
</g>
<g id="Layer_1_8_">
</g>
<g id="Layer_1_9_">
</g>
<g id="Layer_1_10_">
</g>
<g id="Layer_1_11_">
</g>
<g id="Layer_1_12_">
</g>
<g id="Layer_2_1_">
	<g>
		<g>
			<g>
				<g>
					<path class="st0" d="M45.8,99.7c-0.1,2.1-0.3,4.1-0.5,6.1c-0.1,0.4,0.6,0.4,0.7,0c0.2-2,0.4-4.1,0.5-6.1
						C46.4,99.3,45.8,99.3,45.8,99.7L45.8,99.7z"/>
				</g>
			</g>
		</g>
		<g>
			<g>
				<g>
					<path class="st0" d="M51.5,51.2c-8.1,8.6-6.3,21.1-5.7,31.9c0,0.4,0.7,0.4,0.7,0c-0.5-10.5-2.4-23,5.5-31.4
						C52.2,51.4,51.8,50.9,51.5,51.2L51.5,51.2z"/>
				</g>
			</g>
		</g>
		<g>
			<g>
				<g>
					<path class="st0" d="M94.1,54.1c-1.1-1.9-2.6-3.5-4.3-4.9c-0.3-0.3-0.8,0.2-0.5,0.5c1.7,1.4,3.1,3,4.2,4.8
						C93.8,54.7,94.3,54.4,94.1,54.1L94.1,54.1z"/>
				</g>
			</g>
		</g>
		<g>
			<g>
				<g>
					<path class="st0" d="M46.5,60.7c-4-0.3-6.4-4.6-3.8-8c1-1.3,2.5-2.2,4.1-2.5c1.6-0.3,3.9-0.2,5,1.1c0.3,0.3,0.7-0.2,0.5-0.5
						c-1.3-1.5-3.6-1.6-5.5-1.3c-2,0.3-3.8,1.5-4.9,3.2c-2.4,3.9,0.4,8.3,4.7,8.6C46.9,61.4,46.9,60.8,46.5,60.7L46.5,60.7z"/>
				</g>
			</g>
		</g>
		<g>
			<g>
				<g>
					<path class="st0" d="M90.5,50c2.8-1.4,7.2-2.2,9.2,0.9c2,3.1,0.9,7.9-3.1,8.6c-0.4,0.1-0.2,0.7,0.2,0.6
						c4.2-0.8,5.6-5.9,3.7-9.3c-2.1-3.7-7.1-3-10.3-1.4C89.8,49.6,90.1,50.2,90.5,50L90.5,50z"/>
				</g>
			</g>
		</g>
		<g>
			<g>
				<g>
					<path class="st0" d="M68.1,65.4c0.1,0,0.2,0,0.2,0c0-0.1,0-0.2-0.1-0.3c-1,0.4-1.8,0.8-2.7,1.7c-0.6,0.6-1.3,1.5-1.1,2.4
						c0.2,1,1.4,1.6,2.3,1.7c1.9,0.3,3.6-0.9,5.5-0.9c1.9,0,5.5,2.2,5.9-1.2c0.3-2.3-2.7-3.6-4.5-4.3c-0.2-0.1-0.3,0.2-0.1,0.3
						c1.6,0.6,4.5,1.8,4.2,3.9c-0.3,3-3.8,0.9-5.6,0.9c-1,0-1.9,0.3-2.9,0.6c-1.4,0.4-3.6,0.7-4.5-0.8c-1-1.9,2-3.6,3.3-4.1
						c0.2-0.1,0.2-0.3-0.1-0.3c-0.1,0-0.2,0-0.3,0.1C67.8,65.1,67.9,65.4,68.1,65.4L68.1,65.4z"/>
				</g>
			</g>
		</g>
		<g>
			<g>
				<g>
					<path class="st0" d="M74.6,70.6c0.4,1.1,0.6,2.4,0.3,3.6c-0.2,0.9-1.1,1.5-2,1.3c-0.7-0.2-0.8-0.8-1.1-1.4
						c-0.1-0.2-0.4,0-0.3,0.2c0.3,0.6,0.5,1.2,1.1,1.5c0.6,0.2,1.3,0.1,1.8-0.3c1.5-1,1-3.6,0.5-5C74.8,70.3,74.5,70.4,74.6,70.6
						L74.6,70.6z"/>
				</g>
			</g>
		</g>
		<g>
			<g>
				<g>
					<path class="st0" d="M52,124.4c2.4-1.2,3.6,1.8,5.3,2.9c0-0.1,0-0.2,0-0.3c-1.3,0.2-2.3,1-3.3,1.8c-1.1,0.8-2.6,2.2-4.1,1.7
						c-1-0.3-1.8-1.4-1.6-2.4c0.2-0.7,0.7-1.4,1.2-1.8c1-0.9,2.1-1.6,3.3-2.2c0.2-0.1,0-0.4-0.2-0.3c-1.9,1-6.4,3.6-4.1,6.2
						c2.8,3.1,6.1-2.2,8.9-2.6c0.2,0,0.1-0.2,0-0.3c-1.8-1.2-3-4.2-5.6-2.9C51.6,124.2,51.8,124.5,52,124.4L52,124.4z"/>
				</g>
			</g>
		</g>
		<g>
			<g>
				<g>
					<path class="st0" d="M49.3,130.1c-0.4-1.4,0.7-2.5,1.8-3.1c0.2-0.1,0-0.4-0.2-0.3c-1.3,0.7-2.4,1.9-1.9,3.4
						C49,130.4,49.3,130.3,49.3,130.1L49.3,130.1z"/>
				</g>
			</g>
		</g>
		<g>
			<g>
				<g>
					<path class="st0" d="M92.3,130c-1.3-0.8-2.1-2.1-3.2-3.1c-2.1-1.9,1.7-3.7,3.4-3.3c1.6,0.4,2.7,1.9,3.2,3.4
						c0.3,1,0.4,2.1-0.4,2.9C94.5,130.7,93.3,130.5,92.3,130c-0.2-0.1-0.4,0.2-0.2,0.3c1.6,0.8,3.8,0.6,4.1-1.6
						c0.3-2-1.2-4.5-3.1-5.3c-1-0.4-2-0.4-3,0.1c-0.8,0.4-2.1,1.2-2.3,2.1c-0.2,0.9,0.8,1.2,1.3,1.7c1,1,1.8,2.1,3,2.9
						C92.4,130.4,92.5,130.1,92.3,130z"/>
				</g>
			</g>
		</g>
		<g>
			<g>
				<g>
					<path class="st0" d="M93.1,126.9c0.9,0.9,1.6,2.1,1.7,3.5c0,0.2,0.3,0.2,0.3,0c-0.1-1.4-0.8-2.7-1.7-3.7
						C93.2,126.5,93,126.7,93.1,126.9L93.1,126.9z"/>
				</g>
			</g>
		</g>
		<g>
			<path class="st0" d="M81.5,65.3c-4.6,0-8.3-3.7-8.3-8.3s3.7-8.3,8.3-8.3s8.3,3.7,8.3,8.3S86,65.3,81.5,65.3z M81.5,49.1
				c-4.3,0-7.9,3.5-7.9,7.9s3.5,7.9,7.9,7.9s7.9-3.5,7.9-7.9S85.8,49.1,81.5,49.1z"/>
		</g>
		<g>
			<path class="st0" d="M61.2,66.1c-4.6,0-8.3-3.7-8.3-8.3s3.7-8.3,8.3-8.3s8.3,3.7,8.3,8.3S65.7,66.1,61.2,66.1z M61.2,50
				c-4.3,0-7.9,3.5-7.9,7.9s3.5,7.9,7.9,7.9s7.9-3.5,7.9-7.9S65.5,50,61.2,50z"/>
		</g>
		<g>
			<path class="st0" d="M96.9,53.8c0-0.9-0.8-1.7-1.7-1.7c-0.9,0-1.7,0.8-1.7,1.7c0,0.9,0.8,1.7,1.7,1.7S96.9,54.7,96.9,53.8z"/>
		</g>
		<g>
			<circle class="st0" cx="47.3" cy="55.3" r="1.7"/>
		</g>
		<g>
			<path class="st0" d="M75,64.4c0-1.1-1.6-2-3.6-2c-2,0-3.6,0.9-3.6,2c0,1.1,1.6,2,3.6,2C73.4,66.5,75,65.6,75,64.4z"/>
		</g>
		<g>
			<path class="st0" d="M87.3,54.1c-0.2-1.5-1.5-2.5-2.9-2.3s-2.5,1.5-2.3,2.9c0.2,1.5,1.5,2.5,2.9,2.3S87.4,55.6,87.3,54.1z
				 M83.1,55.6c-0.1-0.4,0.3-0.8,0.7-0.8c0.4-0.1,0.8,0.3,0.8,0.7c0.1,0.4-0.3,0.8-0.7,0.8C83.5,56.4,83.2,56,83.1,55.6z"/>
		</g>
		<g>
			<path class="st0" d="M66.3,56.1c0.4-1.4-0.5-2.9-1.9-3.2c-1.4-0.4-2.9,0.5-3.2,1.9c-0.4,1.4,0.5,2.9,1.9,3.2
				C64.5,58.3,65.9,57.5,66.3,56.1z M61.9,56c0.1-0.4,0.5-0.6,0.9-0.5s0.6,0.5,0.5,0.9c-0.1,0.4-0.5,0.6-0.9,0.5
				C62,56.8,61.8,56.4,61.9,56z"/>
		</g>
		<g>
			<g>
				<g>
					<path class="st0" d="M71.5,70c0.2,1,0.1,2.2,0.1,3.2c-0.1,0.6-0.2,1.3-0.5,1.8c-0.5,0.7-1.6,0.8-2.2,0.1c-1-1-0.7-3.2-0.3-4.5
						c0.1-0.2-0.3-0.3-0.3-0.1c-0.4,1.5-0.8,4.6,1.2,5.2c3,0.9,2.7-4.3,2.4-5.9C71.8,69.7,71.5,69.8,71.5,70L71.5,70z"/>
				</g>
			</g>
		</g>
		<g>
			<g>
				<g>
					<path class="st0" d="M41,84.9c-0.5-0.7-0.8-1.7,0.2-2.2c0.2-0.1,0-0.4-0.2-0.3c-1.1,0.6-1,1.7-0.3,2.6
						C40.8,85.2,41.1,85,41,84.9L41,84.9z"/>
				</g>
			</g>
		</g>
		<g>
			<g>
				<g>
					<path class="st0" d="M45.9,87.1c-1.4,0.1-2.6-0.4-3.7-1.1c-0.2-0.1-0.3,0.2-0.2,0.3c1.1,0.8,2.4,1.4,3.9,1.2
						C46.1,87.5,46.1,87.1,45.9,87.1L45.9,87.1z"/>
				</g>
			</g>
		</g>
		<g>
			<g>
				<g>
					<path class="st0" d="M42.6,83.6c-0.8-0.4-1.7-1.6-0.3-2c1.1-0.3,2.2,0.7,3,1.5c0.2,0.2,0.4-0.1,0.2-0.2
						c-0.9-0.9-2.6-2.3-3.9-1.2c-0.9,0.8,0.1,1.9,0.9,2.3C42.6,83.9,42.8,83.7,42.6,83.6L42.6,83.6z"/>
				</g>
			</g>
		</g>
		<g>
			<g>
				<g>
					<path class="st0" d="M93.1,53.5c2.6,3.8,3.4,7.9,3.8,12.5c0.3,4.7,0.5,9.5,0.7,14.2c0.1,4.7,0.2,9.4,0.4,14.1
						c0.2,4.6,0.9,9.3,0.2,13.9c-0.1,0.4,0.6,0.6,0.6,0.2c0.7-4.6,0-9.4-0.2-14c-0.2-4.9-0.3-9.8-0.4-14.6
						c-0.2-4.9-0.3-9.9-0.7-14.8c-0.3-4.3-1.4-8.2-3.8-11.8C93.5,52.8,92.9,53.1,93.1,53.5L93.1,53.5z"/>
				</g>
			</g>
		</g>
		<g>
			<g>
				<g>
					<path class="st0" d="M87.9,126.4c0.1,0,0.1,0,0.1,0c0.2,0,0.2-0.3,0-0.3h0c-0.1,0-0.1,0-0.1,0.1c0,0-0.1,0,0,0
						c0.1,0.1,0.1,0.1,0.2,0.2c0-0.1,0-0.1,0.1-0.2C88,126.3,87.9,126.3,87.9,126.4c0,0,0.1,0,0.1,0.1c0.2,0.2,0.4-0.1,0.2-0.2
						c-0.1-0.1-0.1-0.1-0.2-0.2c-0.1-0.1-0.2-0.1-0.3,0.1c0,0.1,0,0.1-0.1,0.2c-0.1,0.1,0.1,0.2,0.2,0.2c0.1,0,0.2-0.1,0.2-0.2
						c-0.1,0-0.1,0.1-0.1,0.1h0c0.2,0,0.2-0.3,0-0.3c-0.1,0-0.1,0-0.1,0C87.7,126.1,87.7,126.4,87.9,126.4L87.9,126.4z"/>
				</g>
			</g>
		</g>
		<g>
			<g>
				<g>
					<path class="st0" d="M42.7,86.9c-0.4,2.8-1.5,5.5-1.4,8.4c0,0.7-0.1,1.6,0.5,2c0.5,0.3,1.1,0.2,1.6-0.1c1.7-1.1,2-3.8,2.3-5.6
						c0.5-2.8,0.8-5.6,0.2-8.5c-0.1-0.2-0.4-0.1-0.3,0.1c0.5,2.4,0.4,4.7,0,7.1c-0.3,1.8-0.5,3.8-1.4,5.4c-0.5,0.9-1.8,2.3-2.5,0.5
						c-0.3-0.8,0-2.4,0.1-3.1c0.3-2,0.9-4,1.2-6C43,86.8,42.7,86.6,42.7,86.9L42.7,86.9z"/>
				</g>
			</g>
		</g>
		<g>
			<g>
				<g>
					<path class="st0" d="M43.1,87.3c-0.1,1.4-0.3,2.7-0.4,4c-0.1,1-0.5,2.3-0.1,3.3c0.4,0.9,1.6,1.1,2,0.1c0.1-0.2-0.2-0.3-0.3-0.1
						c-1.1-0.1-1.6-0.5-1.5-1.2c0-0.3,0.1-0.6,0.1-0.9c0.1-0.5,0.1-1.1,0.2-1.7c0.1-1.2,0.2-2.4,0.4-3.6
						C43.4,87.1,43.1,87.1,43.1,87.3L43.1,87.3z"/>
				</g>
			</g>
		</g>
		<g>
			<g>
				<g>
					<path class="st0" d="M102.4,87.7c1.3-2.4,2.9-4.6,4.4-6.8c0.1-0.1,0-0.1,0-0.2c-1.2-1.5-2.7-2.4-4.5-3.2
						c-0.8-0.4-1.7-0.6-2.6-0.9c-0.8-0.3-1.4-0.8-2.3-0.8c-0.2,0-0.2,0.3,0,0.3c0.8,0,1.2,0.4,1.8,0.7c0.6,0.2,1.2,0.4,1.8,0.6
						c1.5,0.5,3,1.2,4.2,2.3c0.6,0.5,1.2,0.9,0.8,1.7c-0.3,0.7-0.9,1.4-1.4,2c-0.9,1.4-1.8,2.8-2.7,4.2
						C102,87.8,102.3,87.9,102.4,87.7L102.4,87.7z"/>
				</g>
			</g>
		</g>
		<g>
			<g>
				<g>
					<path class="st0" d="M98.7,95.7c0.5-1.2,1-2.4,1.5-3.6c0.1-0.2-0.2-0.4-0.3-0.2c-0.5,1.2-1.1,2.4-1.5,3.7
						C98.3,95.8,98.6,95.9,98.7,95.7L98.7,95.7z"/>
				</g>
			</g>
		</g>
		<g>
			<g>
				<g>
					<path class="st0" d="M99.9,83c0-0.2,0.2-0.4,0.4-0.4c-0.1-0.1-0.1-0.1-0.2-0.2c0,0.3,0.2,0.5,0.4,0.6c0.3,0.2,1.1,0,1.2,0.4
						c0.1,0.2,0.4,0.1,0.3-0.1c-0.1-0.3-0.3-0.4-0.5-0.5c-0.3-0.1-1.1,0-1.1-0.5c0-0.1-0.1-0.2-0.2-0.2c-0.4,0.1-0.6,0.3-0.7,0.7
						C99.6,83.1,99.9,83.2,99.9,83L99.9,83z"/>
				</g>
			</g>
		</g>
		<g>
			<g>
				<g>
					<path class="st0" d="M99.3,85.1c0.4,0.3,0.8,0.6,1.1,0.9c0.2,0.1,0.4-0.1,0.2-0.2c-0.4-0.3-0.8-0.6-1.1-0.9
						C99.3,84.8,99.1,85,99.3,85.1L99.3,85.1z"/>
				</g>
			</g>
		</g>
		<g>
			<g>
				<g>
					<path class="st0" d="M99.6,87.6c0.4,0,0.8,0.2,1,0.5c0.1,0.2,0.4,0,0.3-0.2c-0.3-0.4-0.8-0.7-1.3-0.7
						C99.4,87.3,99.4,87.6,99.6,87.6L99.6,87.6z"/>
				</g>
			</g>
		</g>
		<g>
			<g>
				<g>
					<path class="st0" d="M100.7,85.8c0.1-0.3,0.4-0.6,0.8-0.6c-0.1-0.1-0.1-0.1-0.2-0.1c0.1,0.5-0.4,1-0.9,0.9
						c-0.2,0-0.3,0.3-0.1,0.3c0.8,0.1,1.5-0.6,1.3-1.3c0-0.1-0.1-0.1-0.2-0.1c-0.5,0.1-0.9,0.4-1.1,0.9
						C100.3,85.9,100.6,86,100.7,85.8L100.7,85.8z"/>
				</g>
			</g>
		</g>
		<g>
			<g>
				<g>
					<path class="st0" d="M42,97.4c1.7,2.7,5.6-1.8,6.8-3c0.1-0.2-0.1-0.4-0.2-0.2c-1,1.1-4.7,5.4-6.2,3.1
						C42.2,97.1,41.9,97.3,42,97.4L42,97.4z"/>
				</g>
			</g>
		</g>
		<g>
			<g>
				<g>
					<path class="st0" d="M43.7,98.5c1.9,0.4,3.6,2.6,5.6,1.4c0.2-0.1,0-0.4-0.2-0.3c-1.8,1.1-3.6-1.1-5.4-1.5
						C43.6,98.2,43.5,98.5,43.7,98.5L43.7,98.5z"/>
				</g>
			</g>
		</g>
		<g>
			<g>
				<g>
					<path class="st0" d="M45.7,83.3c0.7,0.4,1.5,0.7,2.3,0.8c1,0.2,1.9,0.2,2.7,0.9c1.9,1.6,1.9,4.2,1.9,6.5c0,0.2,0.3,0.2,0.3,0
						c0.1-2.1,0.1-4.4-1.4-6.1c-1.5-1.8-3.8-1.3-5.7-2.3C45.7,82.9,45.5,83.2,45.7,83.3L45.7,83.3z"/>
				</g>
			</g>
		</g>
		<g>
			<g>
				<g>
					<path class="st0" d="M51.9,86c6.3,3.9,13.6,5.6,21,5.4c0.2,0,0.2-0.3,0-0.3c-7.3,0.2-14.6-1.5-20.8-5.3
						C51.9,85.6,51.7,85.9,51.9,86L51.9,86z"/>
				</g>
			</g>
		</g>
		<g>
			<g>
				<g>
					<path class="st0" d="M96.9,79.5c-6.1,5.3-14.5,6.6-21.4,10.6c-3.6,2.1-6.9,4.6-10,7.3c-3.2,2.7-6.1,5.6-9.3,8.3
						c-1.8,1.5-3.9,2.9-6.2,3.6c-1,0.3-2.2,0.6-3.3,0.4c-0.8-0.1-1.6-0.5-1.9-1.3c-0.3-0.8,0-1.9,0.9-2.1c0.2-0.1,0.1-0.4-0.1-0.3
						c-1.1,0.3-1.5,1.5-1.2,2.6c0.5,1.4,2.1,1.7,3.4,1.6c4.2-0.4,7.9-3.5,10.9-6.2c3.8-3.5,7.6-7,11.7-10c4.1-3,8.5-5.3,13.2-7.1
						c4.7-1.8,9.6-3.5,13.4-6.8C97.3,79.6,97.1,79.4,96.9,79.5L96.9,79.5z"/>
				</g>
			</g>
		</g>
		<g>
			<g>
				<g>
					<path class="st0" d="M97.4,79c-0.4,0.3-0.8,0.6-1.1,0.9c-0.2,0.1,0.1,0.4,0.2,0.2c0.4-0.3,0.8-0.6,1.1-0.9
						C97.8,79.2,97.5,78.9,97.4,79L97.4,79z"/>
				</g>
			</g>
		</g>
		<g>
			<g>
				<g>
					<path class="st0" d="M97.4,80.3c-2.5,2.7-5.6,4.5-8.8,6.2c-3.1,1.8-6.1,3.6-9,5.8c-5.7,4.2-10.7,9.2-15,14.8
						c-0.1,0.2,0.1,0.4,0.2,0.2c4.5-5.8,9.8-10.9,15.7-15.2c2.8-2.1,5.8-3.9,8.8-5.6c3-1.7,5.9-3.4,8.3-6
						C97.7,80.4,97.5,80.2,97.4,80.3L97.4,80.3z"/>
				</g>
			</g>
		</g>
		<g>
			<g>
				<g>
					<path class="st0" d="M97.8,81.2C94,86.3,90,91.3,86,96.2c-0.1,0.2,0.1,0.4,0.2,0.2c4-4.9,8-10,11.8-15.1
						C98.2,81.2,97.9,81,97.8,81.2L97.8,81.2z"/>
				</g>
			</g>
		</g>
		<g>
			<g>
				<g>
					<path class="st0" d="M97.6,82.5c-0.8,1.8-1.7,3.5-2.8,5.2c-0.1,0.2,0.2,0.3,0.3,0.2c1-1.7,2-3.4,2.8-5.2
						C98,82.5,97.7,82.3,97.6,82.5L97.6,82.5z"/>
				</g>
			</g>
		</g>
		<g>
			<g>
				<g>
					<path class="st0" d="M44.5,106.9c-0.7,2.5-1.3,5-1.7,7.5c-0.3,1.5-0.7,3.3,0.9,4.3s3.7,0.9,5.4,0.6c2.4-0.4,4.7-1.4,6.9-2.4
						c0.2-0.1,0-0.4-0.2-0.3c-1.8,0.8-3.7,1.6-5.7,2.1c-1.8,0.4-4.3,0.8-6.1-0.1c-2.1-1.1-1-4.1-0.7-6c0.4-1.9,0.9-3.8,1.4-5.6
						C44.8,106.8,44.5,106.7,44.5,106.9L44.5,106.9z"/>
				</g>
			</g>
		</g>
		<g>
			<g>
				<g>
					<path class="st0" d="M46.7,119.7c0.7,1,0.8,2.1,0.1,3.1c-0.1,0.1,0,0.2,0.1,0.2c0.7,0.5,1.5,0.5,2.4,0.2c1.6-0.4,3.1-1,4.7-1.5
						c3.3-1.1,6.5-2.2,9.7-3.3c0.2-0.1,0.1-0.4-0.1-0.3c-3.8,1.3-7.6,2.6-11.4,3.8c-0.9,0.3-1.8,0.6-2.7,0.9
						c-0.4,0.1-0.9,0.3-1.3,0.3c-1.2,0-0.9-0.2-0.7-0.8c0.3-1.1,0.3-1.9-0.4-2.8C46.9,119.3,46.6,119.5,46.7,119.7L46.7,119.7z"/>
				</g>
			</g>
		</g>
		<g>
			<g>
				<g>
					<path class="st0" d="M49.3,123.2c-0.5,1.2-0.9,2.4-1.1,3.6c0,0.2,0.3,0.3,0.3,0.1c0.2-1.2,0.6-2.4,1.1-3.6
						C49.7,123.1,49.4,123,49.3,123.2L49.3,123.2z"/>
				</g>
			</g>
		</g>
		<g>
			<g>
				<g>
					<path class="st0" d="M56.8,127.7c0.2,0,0.2-0.3,0-0.3C56.6,127.4,56.6,127.7,56.8,127.7L56.8,127.7z"/>
				</g>
			</g>
		</g>
		<g>
			<g>
				<g>
					<path class="st0" d="M56.8,127.6c0-0.1,0-0.1,0-0.2c0-0.2-0.3-0.2-0.3,0c0,0.1,0,0.1,0,0.2C56.4,127.8,56.8,127.8,56.8,127.6
						L56.8,127.6z"/>
				</g>
			</g>
		</g>
		<g>
			<g>
				<g>
					<path class="st0" d="M57,127.3c-0.2,1.6,0.8,3.1,2.3,3.7c2,0.9,4.3,0.3,6.2-0.2c1.4-0.4,2.8-0.8,4.2-0.7c1.4,0.1,2.7,0.7,4,1.2
						c2.3,0.7,4.7,0.5,7,0c1.9-0.4,3.9-0.7,5.1-2.4c1.2-1.8,1.8-3.9,4.1-4.7c1.9-0.7,4.2-0.3,5.7,1.1c0.6,0.6,1.4,2.3,2.3,1.1
						c0.6-0.8,0.5-2.3,0.6-3.2c0.2-1.6,0.3-3.2,0.3-4.8c0.1-3.2-0.1-6.4-0.5-9.5c0-0.2-0.4-0.2-0.3,0c0.7,4.8,0.7,9.7,0.2,14.5
						c-0.1,0.6,0,1.6-0.3,2.1c-0.1,0.2-1.1,0.5-1.3,0.4c-0.4-0.2-0.1-0.2-0.2-0.3c-0.5-0.4-0.9-0.9-1.5-1.3
						c-1.1-0.7-2.5-0.9-3.8-0.7c-1.2,0.1-2.4,0.6-3.3,1.5c-1.3,1.2-1.6,3.1-2.8,4.3c-0.9,0.9-2.3,1.1-3.4,1.4
						c-1.3,0.3-2.6,0.6-3.9,0.7c-1.2,0.1-2.4,0-3.6-0.4c-1-0.3-2.1-0.8-3.1-1.1c-2.3-0.5-4.5,0.3-6.7,0.8c-1.6,0.4-3.3,0.6-4.8-0.1
						c-1.4-0.6-2.3-1.9-2.1-3.5C57.4,127.1,57,127.1,57,127.3L57,127.3z"/>
				</g>
			</g>
		</g>
		<g>
			<g>
				<g>
					<path class="st0" d="M49.5,99c-0.8,2-1.6,4-2.4,6c-0.1,0.2,0.2,0.3,0.3,0.1c0.8-2,1.6-4,2.4-6C49.9,98.9,49.6,98.8,49.5,99
						L49.5,99z"/>
				</g>
			</g>
		</g>
		<g>
			<g>
				<g>
					<path class="st0" d="M49.8,99.4c-0.5,1.9-1,3.8-1.4,5.6c-0.1,0.2,0.3,0.3,0.3,0.1c0.5-1.9,1-3.8,1.4-5.6
						C50.1,99.2,49.8,99.2,49.8,99.4L49.8,99.4z"/>
				</g>
			</g>
		</g>
		<g>
			<g>
				<g>
					<path class="st0" d="M50.4,99.4c-0.1,0.8-0.1,1.5-0.2,2.3c0,0.2,0.3,0.2,0.3,0c0.1-0.8,0.1-1.5,0.2-2.3
						C50.8,99.2,50.4,99.2,50.4,99.4L50.4,99.4z"/>
				</g>
			</g>
		</g>
		<g>
			<g>
				<g>
					<path class="st0" d="M63.8,118.3c1.7-1.5,4-1.6,6.2-1.9c1.8-0.3,3.5-0.7,5-1.8c1.5-1.1,2.7-2.7,4-4c1.5-1.6,3.3-2.8,5.2-3.9
						c3.5-2.2,6.5-4.3,8.4-8c2.2-4.4,3.8-9.1,5.7-13.7c0.1-0.2-0.2-0.3-0.3-0.1c-1,2.4-1.9,4.7-2.9,7.1c-0.9,2.3-1.8,4.7-3,6.8
						c-2.2,4-5.8,6-9.5,8.4c-1.6,1.1-3,2.3-4.4,3.7c-1.3,1.5-2.6,3-4.3,4c-3.2,1.8-7.4,0.6-10.3,3.1
						C63.4,118.2,63.6,118.4,63.8,118.3L63.8,118.3z"/>
				</g>
			</g>
		</g>
		<g>
			<g>
				<g>
					<path class="st0" d="M87.3,104.7c-0.4,4.2-0.7,8.4-0.8,12.7c0,0.2,0.3,0.2,0.3,0c0.1-4.2,0.3-8.5,0.8-12.7
						C87.7,104.5,87.3,104.5,87.3,104.7L87.3,104.7z"/>
				</g>
			</g>
		</g>
		<g>
			<g>
				<g>
					<path class="st0" d="M81.6,107.9c-0.6,4.9-1.2,9.8-1.6,14.8c0,0.2,0.3,0.2,0.3,0c0.5-4.9,1-9.9,1.6-14.8
						C81.9,107.7,81.6,107.7,81.6,107.9L81.6,107.9z"/>
				</g>
			</g>
		</g>
		<g>
			<g>
				<g>
					<path class="st0" d="M84.2,106.6c-0.1,1.3-0.1,2.7-0.1,4c0,0.2,0.3,0.2,0.3,0c0.1-1.3,0.1-2.7,0.1-4
						C84.5,106.4,84.2,106.4,84.2,106.6L84.2,106.6z"/>
				</g>
			</g>
		</g>
		<g>
			<g>
				<g>
					<path class="st0" d="M63.5,118.3c-0.2,2.1-0.5,4.2-1.2,6.2c-0.1,0.2,0.3,0.3,0.3,0.1c0.6-2.1,1-4.1,1.2-6.3
						C63.8,118.1,63.5,118.1,63.5,118.3L63.5,118.3z"/>
				</g>
			</g>
		</g>
		<g>
			<g>
				<g>
					<path class="st0" d="M64.8,117.5c-0.1,1.2-0.3,2.5-0.4,3.8c0,0.2,0.3,0.2,0.3,0c0.1-1.2,0.3-2.5,0.4-3.8
						C65.1,117.3,64.8,117.4,64.8,117.5L64.8,117.5z"/>
				</g>
			</g>
		</g>
		<g>
			<g>
				<g>
					<path class="st0" d="M66.6,117c0.2,2.8,0.3,5.5,0.4,8.3c0,0.2,0.3,0.2,0.3,0c-0.2-2.8-0.3-5.5-0.4-8.3
						C66.9,116.8,66.6,116.8,66.6,117L66.6,117z"/>
				</g>
			</g>
		</g>
		<g>
			<g>
				<g>
					<path class="st0" d="M73,115.7c-0.1,1.6-0.2,3.1-0.3,4.7c0,0.2,0.3,0.2,0.3,0c0.1-1.6,0.2-3.1,0.3-4.7
						C73.3,115.5,73,115.5,73,115.7L73,115.7z"/>
				</g>
			</g>
		</g>
		<g>
			<g>
				<g>
					<path class="st0" d="M74,115.3c-0.1,1.2-0.1,2.4,0,3.6c0,0.2,0.3,0.2,0.3,0c-0.1-1.2-0.1-2.4,0-3.6
						C74.4,115.1,74.1,115.1,74,115.3L74,115.3z"/>
				</g>
			</g>
		</g>
		<g>
			<g>
				<g>
					<path class="st0" d="M98.6,105.8c0,3.7,0.2,7.3,0.8,11c0.1,0.9,0.3,1.8,0.5,2.7c0.2,0.8,0.6,1.8,0.5,2.7s-0.9,1.3-1.5,1.8
						c-0.1,0.1-0.2,0.1-0.3,0.2c-0.3,0.3-0.4,0.5-0.4,0.9c0,0.2,0.3,0.2,0.3,0c-0.1-0.9,1.5-1,1.9-1.6c0.2-0.3,0.3-0.7,0.3-1
						c0.1-1.5-0.5-3.1-0.8-4.6c-0.7-4-1-8.1-1-12.1C98.9,105.6,98.6,105.6,98.6,105.8L98.6,105.8z"/>
				</g>
			</g>
		</g>
		<g>
			<g>
				<g>
					<path class="st0" d="M52.3,51.2c2-0.4,3.7-1.2,5.4-2.3c1.7-1,3.3-1.8,5.3-1.8c2.4,0,5.2,0.5,6.7-1.9c0.1-0.2-0.2-0.3-0.3-0.2
						c-1.7,2.7-5.2,1.4-7.8,1.8c-1.4,0.2-2.7,0.9-3.9,1.6c-1.7,1-3.5,1.9-5.5,2.3C52,50.9,52.1,51.2,52.3,51.2L52.3,51.2z"/>
				</g>
			</g>
		</g>
		<g>
			<g>
				<g>
					<path class="st0" d="M70.9,45.3c2.6,2,5.8,1.5,8.9,2c1.8,0.3,3.4,1.2,5.1,1.9c1.7,0.7,3.4,0.9,5.2,0.7c0.2,0,0.2-0.3,0-0.3
						c-2.1,0.2-4-0.2-5.9-1c-1.4-0.6-2.7-1.3-4.2-1.5c-3.1-0.5-6.3,0-9-1.9C70.9,44.9,70.7,45.2,70.9,45.3L70.9,45.3z"/>
				</g>
			</g>
		</g>
		<g>
			<g>
				<g>
					<path class="st0" d="M51.8,51.7c4-5.8,10.4-9.5,17.5-9.8c3.8-0.2,7.5,0.7,10.9,2.3c3.4,1.7,6.7,3.6,10,5.5
						c0.2,0.1,0.3-0.2,0.2-0.3c-3.7-2.1-7.4-4.4-11.3-6.1c-3.4-1.4-7.1-2-10.8-1.7c-6.8,0.6-13,4.3-16.8,9.9
						C51.4,51.7,51.7,51.9,51.8,51.7L51.8,51.7z"/>
				</g>
			</g>
		</g>
		<g>
			<g>
				<g>
					<path class="st0" d="M50.7,49.8c3.2-8.1,10.6-15.4,20-14.2c2.2,0.3,4.3,1,6.4,1.7c2.1,0.7,4.2,1.5,6.2,2.6
						c3.7,2,6.9,5.3,7.6,9.6c0,0.2,0.3,0.1,0.3-0.1c-1.1-7.3-8.4-10.6-14.7-12.6c-3.4-1.1-6.8-2.1-10.5-1.4
						c-3.5,0.6-6.7,2.3-9.3,4.7c-2.9,2.7-5,6.1-6.4,9.7C50.3,49.9,50.6,50,50.7,49.8L50.7,49.8z"/>
				</g>
			</g>
		</g>
		<g>
			<g>
				<g>
					<path class="st0" d="M50.3,49.7c1.8-7.1,6.8-13.2,13.6-15.9c4.2-1.7,8.5-1.6,12.7-0.1c3.4,1.1,6.6,2.9,9.3,5.3
						c2.9,2.6,5.1,5.9,5.9,9.8c0.1,0.2,0.4,0.1,0.3-0.1c-1.5-7.1-7.5-12.2-14.1-14.8c-4.1-1.6-8.3-2.3-12.6-1
						c-3.6,1.1-6.9,3.3-9.6,6c-2.9,3-5,6.7-6,10.8C49.9,49.8,50.2,49.9,50.3,49.7L50.3,49.7z"/>
				</g>
			</g>
		</g>
		<g>
			<g>
				<g>
					<path class="st0" d="M69,32.3c1.5-6.7,3-13.3,4.5-20c-0.1,0-0.2,0-0.3-0.1c-0.7,6.6-1.4,13.2-2.1,19.8c0,0.2,0.3,0.2,0.3,0
						c0.7-6.6,1.4-13.2,2.1-19.8c0-0.2-0.3-0.2-0.3-0.1c-1.5,6.7-3,13.3-4.5,20C68.7,32.4,69,32.5,69,32.3L69,32.3z"/>
				</g>
			</g>
		</g>
		<g>
			<g>
				<g>
					<path class="st0" d="M73.1,12.2c0,3.4,0,6.8,0,10.3c0,3.3-0.2,6.7,0.1,10c0,0.2,0.3,0.2,0.3,0c-0.2-3.3-0.1-6.7-0.1-10
						c0-3.4,0-6.8,0-10.3C73.4,12,73.1,12,73.1,12.2L73.1,12.2z"/>
				</g>
			</g>
		</g>
		<g>
			<g>
				<g>
					<path class="st0" d="M78.1,33.9c4.3-6.4,8.6-12.8,12.8-19.2c-0.1-0.1-0.2-0.1-0.3-0.1c-2.4,7.4-4.9,14.9-7.3,22.3
						c-0.1,0.2,0.3,0.3,0.3,0.1c2.4-7.4,4.9-14.9,7.3-22.3c0.1-0.2-0.2-0.3-0.3-0.1c-4.2,6.5-8.4,12.9-12.8,19.2
						C77.7,33.9,78,34.1,78.1,33.9L78.1,33.9z"/>
				</g>
			</g>
		</g>
		<g>
			<g>
				<g>
					<path class="st0" d="M90.5,14.7c-3.2,6.7-6.4,13.4-9.4,20.1C81,35,81.3,35.2,81.4,35c3.1-6.7,6.2-13.4,9.4-20.1
						C90.9,14.7,90.6,14.5,90.5,14.7L90.5,14.7z"/>
				</g>
			</g>
		</g>
		<g>
			<g>
				<g>
					<path class="st0" d="M88,40.7c5.5-3.9,10.9-8.1,16-12.5c-0.1-0.1-0.2-0.1-0.3-0.2c-1.6,3.1-4,5.6-6.4,8.1
						c-2.4,2.6-4.7,5.3-6.8,8.2c-0.1,0.2,0.2,0.3,0.3,0.2c2.3-3,4.8-5.9,7.4-8.7c2.2-2.3,4.3-4.7,5.9-7.5c0.1-0.2-0.1-0.3-0.3-0.2
						c-5.1,4.4-10.4,8.5-16,12.4C87.6,40.6,87.8,40.9,88,40.7L88,40.7z"/>
				</g>
			</g>
		</g>
		<g>
			<g>
				<g>
					<path class="st0" d="M89.4,42.5c4.8-4.5,9.5-9.1,14.1-13.9c0.2-0.2-0.1-0.4-0.2-0.2c-4.6,4.8-9.3,9.4-14.1,13.9
						C89.1,42.5,89.3,42.7,89.4,42.5L89.4,42.5z"/>
				</g>
			</g>
		</g>
		<g>
			<g>
				<g>
					<path class="st0" d="M56.9,37.4c-2.8-6.2-5.6-12.4-8.5-18.5c-0.1,0.1-0.2,0.1-0.3,0.2c4.1,5.3,8.1,10.6,12.2,15.8
						c0.1,0.2,0.4,0,0.3-0.2c-4.1-5.3-8.1-10.6-12.2-15.8c-0.1-0.2-0.4,0-0.3,0.2c2.8,6.2,5.6,12.4,8.4,18.5
						C56.7,37.7,57,37.6,56.9,37.4L56.9,37.4z"/>
				</g>
			</g>
		</g>
		<g>
			<g>
				<g>
					<path class="st0" d="M48.4,19.6c2,3,3.9,6.1,5.7,9.2c0.9,1.6,1.8,3.1,2.6,4.7c0.5,1,1,2.1,2.1,2.6c0.2,0.1,0.4-0.2,0.2-0.3
						c-1.3-0.6-2-2.6-2.6-3.8c-0.8-1.4-1.6-2.9-2.4-4.3c-1.7-2.8-3.4-5.6-5.2-8.4C48.6,19.2,48.3,19.4,48.4,19.6L48.4,19.6z"/>
				</g>
			</g>
		</g>
		<g>
			<g>
				<g>
					<path class="st0" d="M50.5,47.6C45.6,43.1,40.8,38.6,36,34c-0.1,0.1-0.1,0.2-0.2,0.3c5.9,2.6,11.5,5.8,16.8,9.5
						c0.2,0.1,0.3-0.2,0.2-0.3c-5.3-3.7-10.9-6.9-16.8-9.5c-0.2-0.1-0.3,0.1-0.2,0.3c4.8,4.6,9.7,9.1,14.5,13.6
						C50.4,48,50.7,47.8,50.5,47.6L50.5,47.6z"/>
				</g>
			</g>
		</g>
		<g>
			<g>
				<g>
					<path class="st0" d="M36.1,34.4c3,1.9,5.9,4,8.6,6.2c2.1,1.7,4,3.8,6.6,4.8c0.2,0.1,0.3-0.2,0.1-0.3c-3-1-5.2-3.6-7.6-5.6
						c-2.4-1.9-4.9-3.7-7.5-5.4C36.1,34,35.9,34.3,36.1,34.4L36.1,34.4z"/>
				</g>
			</g>
		</g>
		<g>
			<g>
				<g>
					<path class="st0" d="M51.1,50c2-3.3,4-6.7,6.8-9.3c3.2-2.9,7.2-4.1,11.5-4c4.2,0.2,8.6,1.5,12.4,3.3c4,1.8,7.5,4.8,8.4,9.3
						c0.1,0.2,0.4,0.1,0.3-0.1c-0.8-4.2-4.1-7.2-7.8-9.1c-4-2-8.5-3.4-12.9-3.7c-4.2-0.2-8.3,0.8-11.5,3.5c-3.2,2.7-5.4,6.3-7.5,9.9
						C50.7,50,51,50.2,51.1,50L51.1,50z"/>
				</g>
			</g>
		</g>
		<g>
			<g>
				<g>
					<path class="st0" d="M68.8,44.4c-1.4,1-2.9,1.3-4.7,1.3c-1.5,0-2.9-0.1-4.3,0.4c-2.6,0.9-4.6,3.1-7.1,4.3
						c-0.2,0.1,0,0.4,0.2,0.3c2.7-1.4,4.9-3.9,7.9-4.5c1.6-0.3,3.2-0.1,4.8-0.2c1.2-0.1,2.3-0.6,3.4-1.2
						C69.1,44.6,69,44.3,68.8,44.4L68.8,44.4z"/>
				</g>
			</g>
		</g>
		<g>
			<g>
				<g>
					<path class="st0" d="M71.2,45c3.7,1.5,8,0.1,11.6,2.3c2.3,1.5,4.6,3.4,7.4,2.1c0.2-0.1,0-0.4-0.2-0.3c-3.4,1.5-5.7-1.7-8.5-2.9
						c-3.3-1.4-7-0.2-10.3-1.5C71.1,44.6,71,45,71.2,45L71.2,45z"/>
				</g>
			</g>
		</g>
		<g>
			<g>
				<g>
					<path class="st0" d="M98.6,98.9c-0.2,1.2,1.3,1.4,2,0.6c0.6-0.7,0.7-1.9,0.8-2.8c0.2-1.5,0.3-3,0.2-4.5c0-0.2-0.3-0.2-0.3,0
						c0.1,1.2,0.1,2.3,0,3.5c-0.1,0.7-0.2,1.3-0.3,1.9c-0.1,0.3-0.1,0.5-0.2,0.8c-0.1,0.9-0.7,1-1.8,0.5
						C98.9,98.7,98.6,98.6,98.6,98.9L98.6,98.9z"/>
				</g>
			</g>
		</g>
		<g>
			<g>
				<g>
					<path class="st0" d="M100.2,92.2c-0.3,1.4-0.5,2.8-0.8,4.1c-0.1,0.2,0.3,0.3,0.3,0.1c0.3-1.4,0.5-2.8,0.8-4.1
						C100.6,92.1,100.3,92,100.2,92.2L100.2,92.2z"/>
				</g>
			</g>
		</g>
		<g>
			<g>
				<g>
					<path class="st0" d="M53.5,88.2c0.3,4,0.3,8.1-0.1,12.1c0,0.2,0.3,0.2,0.3,0c0.4-4,0.4-8.1,0.1-12.1C53.8,88,53.5,88,53.5,88.2
						L53.5,88.2z"/>
				</g>
			</g>
		</g>
		<g>
			<g>
				<g>
					<path class="st0" d="M55.5,91.6c0.3,1.2,0.3,2.3,0,3.5c-0.1,0.2,0.3,0.3,0.3,0.1c0.3-1.2,0.3-2.5,0-3.7
						C55.7,91.4,55.4,91.4,55.5,91.6L55.5,91.6z"/>
				</g>
			</g>
		</g>
		<g>
			<g>
				<g>
					<path class="st0" d="M57.4,92.4c0,0.1,0,0.3,0,0.4c0,0.2,0.3,0.2,0.3,0c0-0.1,0-0.3,0-0.4C57.7,92.2,57.4,92.2,57.4,92.4
						L57.4,92.4z"/>
				</g>
			</g>
		</g>
		<g>
			<g>
				<g>
					<path class="st0" d="M46,82.8c3.5-0.8,6.6,1.4,9.7,2.7c2.7,1.2,5.5,2.1,8.4,2.7c5.8,1.1,11.8,0.8,17.5-1
						c0.2-0.1,0.1-0.4-0.1-0.3c-6.2,1.9-12.8,2.1-19.1,0.6c-3.1-0.7-6-2-8.8-3.3c-2.4-1.2-5-2.3-7.7-1.7
						C45.7,82.5,45.8,82.8,46,82.8L46,82.8z"/>
				</g>
			</g>
		</g>
		<g>
			<g>
				<g>
					<path class="st0" d="M71,93c-2.1,0.2-4.3,0.5-6.4,0.7c-0.2,0-0.2,0.3,0,0.3c2.1-0.2,4.3-0.5,6.4-0.7C71.2,93.3,71.2,92.9,71,93
						L71,93z"/>
				</g>
			</g>
		</g>
		<g>
			<g>
				<g>
					<path class="st0" d="M57.2,127.8c0-1.4,0.2-2.8,0.3-4.1c0-0.2-0.3-0.3-0.3-0.1c-0.2,1.4-0.3,2.8-0.4,4.2
						C56.9,128,57.2,128,57.2,127.8L57.2,127.8z"/>
				</g>
			</g>
		</g>
		<g>
			<g>
				<g>
					<path class="st0" d="M87.7,126.5c-0.1,0-0.3,0-0.4,0c-0.2,0-0.2,0.3,0,0.3c0.1,0,0.3,0,0.4,0C87.9,126.8,87.9,126.5,87.7,126.5
						L87.7,126.5z"/>
				</g>
			</g>
		</g>
		<g>
			<g>
				<g>
					<path class="st0" d="M87,124.3c1.7-1.4,3.8-2.1,6-2c0.2,0,0.2-0.3,0-0.3c-2.3-0.2-4.5,0.6-6.2,2.1
						C86.6,124.1,86.8,124.4,87,124.3L87,124.3z"/>
				</g>
			</g>
		</g>
		<g>
			<g>
				<g>
					<path class="st0" d="M52.3,123.5c1-0.2,2,0.1,2.7,0.8c0.2,0.2,0.4-0.1,0.2-0.2c-0.8-0.8-1.9-1.1-3-0.9
						C52,123.2,52.1,123.6,52.3,123.5L52.3,123.5z"/>
				</g>
			</g>
		</g>
		<g>
			<g>
				<g>
					<path class="st0" d="M53.4,122.7c0.4,0.1,0.8,0.2,1.1,0.2c0.2,0.1,0.3-0.3,0.1-0.3c-0.4-0.1-0.8-0.2-1.1-0.2
						C53.2,122.4,53.2,122.7,53.4,122.7L53.4,122.7z"/>
				</g>
			</g>
		</g>
		<g>
			<g>
				<g>
					<path class="st0" d="M88.6,122.2c0.3-0.1,0.6-0.1,0.9-0.2c0.2-0.1,0.1-0.4-0.1-0.3c-0.3,0.1-0.6,0.1-0.9,0.2
						C88.4,122,88.4,122.3,88.6,122.2L88.6,122.2z"/>
				</g>
			</g>
		</g>
		<g>
			<g>
				<g>
					<path class="st0" d="M44,87.8c-0.1,1.3-0.1,2.7-0.2,4c0,0.2,0.3,0.2,0.3,0c0.1-1.3,0.1-2.7,0.2-4C44.3,87.6,44,87.6,44,87.8
						L44,87.8z"/>
				</g>
			</g>
		</g>
		<g>
			<g>
				<g>
					<path class="st0" d="M51.6,49c0.3,0.4,0.6,0.7,1,0.8c0.2,0.1,0.3-0.2,0.1-0.3c-0.4-0.1-0.7-0.4-0.9-0.7
						C51.7,48.6,51.5,48.8,51.6,49L51.6,49z"/>
				</g>
			</g>
		</g>
		<g>
			<g>
				<g>
					<path class="st0" d="M52.5,47.4c0.3,0.5,0.8,1,1.4,1.2c0.2,0.1,0.4-0.2,0.2-0.3c-0.5-0.2-0.9-0.6-1.2-1.1
						C52.7,47.1,52.4,47.2,52.5,47.4L52.5,47.4z"/>
				</g>
			</g>
		</g>
		<g>
			<g>
				<g>
					<path class="st0" d="M54,45c0.3,0.9,0.9,1.6,1.8,2c0.2,0.1,0.3-0.2,0.1-0.3c-0.8-0.3-1.4-1-1.6-1.8C54.3,44.6,53.9,44.7,54,45
						L54,45z"/>
				</g>
			</g>
		</g>
		<g>
			<g>
				<g>
					<path class="st0" d="M56.9,41.6c0.8,1,1.5,1.9,2.2,2.9c0.1,0.2,0.4-0.1,0.2-0.2c-0.8-1-1.5-1.9-2.2-2.9
						C57,41.2,56.8,41.4,56.9,41.6L56.9,41.6z"/>
				</g>
			</g>
		</g>
		<g>
			<g>
				<g>
					<path class="st0" d="M62.6,37.5c0.5,1.6,1,3.2,1.6,4.8c0.1,0.2,0.4,0.1,0.3-0.1c-0.5-1.6-1-3.2-1.6-4.8
						C62.9,37.3,62.6,37.3,62.6,37.5L62.6,37.5z"/>
				</g>
			</g>
		</g>
		<g>
			<g>
				<g>
					<path class="st0" d="M74.1,37.3c-0.3,1.5-0.6,3-0.7,4.6c0,0.2,0.3,0.2,0.3,0c0.1-1.5,0.3-3,0.7-4.5
						C74.5,37.2,74.2,37.1,74.1,37.3L74.1,37.3z"/>
				</g>
			</g>
		</g>
		<g>
			<g>
				<g>
					<path class="st0" d="M80.3,43.9c0.7-1.2,1.4-2.4,2.1-3.6c0.1-0.2-0.2-0.3-0.3-0.2c-0.7,1.2-1.4,2.4-2.1,3.6
						C79.9,43.9,80.2,44,80.3,43.9L80.3,43.9z"/>
				</g>
			</g>
		</g>
		<g>
			<g>
				<g>
					<path class="st0" d="M82.6,45.1c0.7-1.2,1.5-2.3,2.2-3.5c0.1-0.2-0.2-0.3-0.3-0.2c-0.7,1.2-1.5,2.3-2.2,3.5
						C82.2,45.1,82.5,45.3,82.6,45.1L82.6,45.1z"/>
				</g>
			</g>
		</g>
		<g>
			<g>
				<g>
					<path class="st0" d="M84.8,46.2c0.6-1,1.2-2,1.8-3c0.1-0.2-0.2-0.3-0.3-0.2c-0.6,1-1.2,2-1.8,3C84.4,46.2,84.7,46.3,84.8,46.2
						L84.8,46.2z"/>
				</g>
			</g>
		</g>
		<g>
			<g>
				<g>
					<path class="st0" d="M86.2,47c0.5-0.9,1.1-1.8,1.6-2.7c0.1-0.2-0.2-0.3-0.3-0.2c-0.5,0.9-1.1,1.8-1.6,2.7
						C85.8,47,86.1,47.2,86.2,47L86.2,47z"/>
				</g>
			</g>
		</g>
		<g>
			<g>
				<g>
					<path class="st0" d="M87.4,47.8c0.4-0.8,0.9-1.6,1.4-2.4c0.1-0.2-0.2-0.3-0.3-0.2c-0.4,0.8-0.9,1.6-1.4,2.4
						C87,47.8,87.3,48,87.4,47.8L87.4,47.8z"/>
				</g>
			</g>
		</g>
		<g>
			<g>
				<g>
					<path class="st0" d="M88.4,48.4c0.5-0.6,0.9-1.2,1.2-2c0.1-0.2-0.2-0.3-0.3-0.1c-0.3,0.7-0.6,1.3-1.1,1.8
						C88,48.4,88.2,48.6,88.4,48.4L88.4,48.4z"/>
				</g>
			</g>
		</g>
		<g>
			<g>
				<g>
					<path class="st0" d="M89.5,48.8c0.1-0.3,0.3-0.5,0.4-0.8c0.1-0.2-0.2-0.3-0.3-0.2c-0.1,0.3-0.3,0.5-0.4,0.8
						C89.1,48.8,89.4,48.9,89.5,48.8L89.5,48.8z"/>
				</g>
			</g>
		</g>
		<g>
			<g>
				<g>
					<path class="st0" d="M100.2,92.1c-0.5-0.3-0.9-0.6-1.1-1.2c-0.3-1,0.9-2.3,1.7-1.1c0.1-0.1,0.2-0.1,0.3-0.2
						c-0.6-0.9,0.1-2.2,1.3-1.8c0.2,0.1,0.3-0.3,0.1-0.3c-1.5-0.5-2.4,1.1-1.6,2.3c0.1,0.2,0.4,0,0.3-0.2c-0.5-0.8-1.6-0.8-2.1,0
						c-0.7,1.1,0.2,2.2,1.1,2.7C100.2,92.5,100.4,92.2,100.2,92.1L100.2,92.1z"/>
				</g>
			</g>
		</g>
		<g>
			<g>
				<g>
					<path class="st0" d="M100.1,92.6c1.4-0.1,2.6-1.3,3.2-2.6c0.4-1,0.3-2.2-0.9-2.5c-0.2-0.1-0.3,0.3-0.1,0.3
						c1.4,0.4,0.8,2,0.2,2.8c-0.6,0.8-1.4,1.5-2.4,1.6C99.9,92.3,99.9,92.6,100.1,92.6L100.1,92.6z"/>
				</g>
			</g>
		</g>
		<g>
			<g>
				<g>
					<path class="st0" d="M40.5,82.7c-0.3-0.7-0.5-1.4-0.6-2.1c-0.2-1-0.4-2.4,0.9-2.8c1-0.3,2.7-0.3,2.8,1c0.1,0.8-0.3,1.8-0.4,2.6
						c0,0.2,0.3,0.3,0.3,0.1c0.1-0.8,0.2-1.6,0.3-2.5c0.1-0.4,0.1-0.8-0.1-1.1c-0.5-0.7-1.9-0.7-2.6-0.5c-0.7,0.1-1.6,0.3-1.7,1.1
						c-0.3,1.3,0.3,3.1,0.7,4.3C40.2,83,40.5,82.9,40.5,82.7L40.5,82.7z"/>
				</g>
			</g>
		</g>
		<g>
			<g>
				<g>
					<path class="st0" d="M44.2,76.7c-0.1,0.6-0.4,1.1-0.8,1.5c-0.1,0.2,0.2,0.3,0.3,0.2c0.4-0.5,0.7-1,0.8-1.6
						C44.5,76.6,44.2,76.5,44.2,76.7L44.2,76.7z"/>
				</g>
			</g>
		</g>
		<g>
			<g>
				<g>
					<path class="st0" d="M38.9,79.2c-0.9-0.9-2-2.5-0.1-3c0.7-0.2,1.4-0.2,2.1-0.3c0.9-0.2,1.8-0.5,2.7-0.3
						c0.2,0.1,0.3-0.3,0.1-0.3c-1.2-0.3-2.3,0.2-3.5,0.3c-0.8,0.1-1.7,0.1-2.3,0.6c-1,0.9,0.2,2.4,0.9,3.1
						C38.9,79.6,39.1,79.3,38.9,79.2L38.9,79.2z"/>
				</g>
			</g>
		</g>
		<g>
			<g>
				<g>
					<path class="st0" d="M35.3,77.9c-0.8-2,1.9-3.3,3.4-3.7c0.9-0.3,1.8-0.4,2.7-0.3c0.7,0.1,4.4,1.1,3,2.5
						c-0.2,0.2,0.1,0.4,0.2,0.2c0.8-0.8,0.2-1.6-0.6-2.2c-1.3-0.9-3.1-1.1-4.6-0.8c-1.8,0.4-5.4,2-4.5,4.4
						C35.1,78.2,35.4,78.1,35.3,77.9L35.3,77.9z"/>
				</g>
			</g>
		</g>
		<g>
			<g>
				<g>
					<path class="st0" d="M37.6,77.9c-0.5,0.3-1,0.6-1.7,0.5c-0.2,0-0.2,0.3,0,0.3c0.7,0.1,1.2-0.2,1.8-0.5
						C37.9,78.1,37.8,77.8,37.6,77.9L37.6,77.9z"/>
				</g>
			</g>
		</g>
		<g>
			<g>
				<g>
					<path class="st0" d="M34.7,77.3c-0.6-0.7-1.5-1.8-1.3-2.8c0.2-0.8,1-1.1,1.6-0.6c0.5,0.3,0.8,0.8,1,1.2c0.1,0.2,0.4,0,0.3-0.2
						c-0.5-0.9-1.8-2.4-2.9-1.3c-1.1,1.1,0.4,3.1,1.1,3.9C34.6,77.7,34.8,77.5,34.7,77.3L34.7,77.3z"/>
				</g>
			</g>
		</g>
		<g>
			<g>
				<g>
					<path class="st0" d="M34.6,73.3c0-0.8,0.9-1.2,1.6-1.1c0.8,0.1,1.4,0.8,1.6,1.6c0.1,0.2,0.4,0.1,0.3-0.1
						c-0.3-1-1.1-1.9-2.2-1.9c-0.9,0-1.7,0.6-1.7,1.5C34.3,73.5,34.6,73.5,34.6,73.3L34.6,73.3z"/>
				</g>
			</g>
		</g>
		<g>
			<g>
				<g>
					<path class="st0" d="M37.2,72.3c0.1-0.9,1.2-1.5,2-1.1c0.8,0.4,1,1.4,0.8,2.2c-0.1,0.2,0.3,0.3,0.3,0.1c0.3-1-0.2-2.3-1.3-2.7
						c-1-0.3-2.1,0.5-2.2,1.5C36.8,72.5,37.1,72.5,37.2,72.3L37.2,72.3z"/>
				</g>
			</g>
		</g>
		<g>
			<g>
				<g>
					<path class="st0" d="M39.6,71.4c0.5-0.7,1.6-0.5,1.9,0.3c0.2,0.6,0.1,1.3-0.1,1.9c-0.1,0.2,0.3,0.3,0.3,0.1
						c0.2-0.8,0.4-2-0.3-2.7c-0.6-0.7-1.6-0.5-2.1,0.2C39.2,71.4,39.5,71.6,39.6,71.4L39.6,71.4z"/>
				</g>
			</g>
		</g>
		<g>
			<g>
				<g>
					<path class="st0" d="M41.8,71.4c1.2,0,1.8,1.5,0.8,2.3c-0.2,0.1,0.1,0.4,0.2,0.2c1.1-1,0.4-2.8-1.1-2.8
						C41.6,71.1,41.6,71.4,41.8,71.4L41.8,71.4z"/>
				</g>
			</g>
		</g>
		<g>
			<g>
				<g>
					<path class="st0" d="M43.3,71.9c1,0.5,1.4,1.7,0.9,2.7c-0.1,0.2,0.2,0.3,0.3,0.2c0.6-1.1,0.2-2.6-1-3.1
						C43.3,71.6,43.1,71.8,43.3,71.9L43.3,71.9z"/>
				</g>
			</g>
		</g>
		<g>
			<g>
				<g>
					<path class="st0" d="M36.4,78.6c0.2,0.6,0.5,1.1,1,1.5c0.2,0.2,0.4,0.4,0.7,0.5c0.2,0.2,0.7,0.3,0.9,0.4c0.4,0.4,0,1.4,0.4,2
						c0.3,0.4,0.6,0.5,1,0.4c0.2,0,0.1-0.3-0.1-0.3c-1,0.2-0.8-1.7-0.8-2.2c0-0.1-0.1-0.1-0.1-0.1c-1.2-0.4-2.1-1.2-2.6-2.4
						C36.6,78.3,36.3,78.4,36.4,78.6L36.4,78.6z"/>
				</g>
			</g>
		</g>
		<g>
			<g>
				<g>
					<path class="st0" d="M38.6,80.7c0.2-0.9,0.5-1.7,1.1-2.4c0.1-0.2-0.1-0.4-0.2-0.2c-0.6,0.8-1,1.6-1.2,2.6
						C38.3,80.8,38.6,80.9,38.6,80.7L38.6,80.7z"/>
				</g>
			</g>
		</g>
		<g>
			<g>
				<g>
					<path class="st0" d="M36,63.5c-1.9,0.7-1.3,3.7,0.8,3.3c0.9-0.2,1.7-1,1.5-1.9c-0.2-1.1-1.2-1.8-2.3-1.6
						c-0.2,0-0.1,0.3,0.1,0.3c0.9-0.2,1.9,0.5,1.9,1.5c0,0.7-0.6,1.3-1.3,1.4c-1.7,0.3-2.1-2.2-0.6-2.7C36.3,63.8,36.1,63.5,36,63.5
						L36,63.5z"/>
				</g>
			</g>
		</g>
		<g>
			<g>
				<g>
					<path class="st0" d="M37.6,63.8c0.7-1.1,2.5-1,3,0.2c0.7,1.6-1.2,2.8-2.6,2c-0.2-0.1-0.3,0.2-0.2,0.3c1.6,1,3.7-0.4,3.1-2.3
						c-0.5-1.6-2.8-1.7-3.6-0.4C37.2,63.8,37.4,64,37.6,63.8L37.6,63.8z"/>
				</g>
			</g>
		</g>
		<g>
			<g>
				<g>
					<path class="st0" d="M37,66.9c0.2,0.4,0.4,0.7,0.5,1.1c0.1,0.1,0.3,0.1,0.3,0c0.1-0.3,0.3-0.6,0.5-0.8c0.2-0.1-0.1-0.4-0.2-0.2
						c-0.3,0.3-0.5,0.6-0.6,1c0.1,0,0.2,0,0.3,0c-0.2-0.4-0.4-0.7-0.5-1.1C37.2,66.6,36.9,66.7,37,66.9L37,66.9z"/>
				</g>
			</g>
		</g>
		<g>
			<g>
				<g>
					<path class="st0" d="M34.9,65.3c-1.4,0.9-2.1,2.4-2.1,4.1c0,1.3,0.7,3.2,2.3,3c0.2,0,0.2-0.3,0-0.3c-1.8,0.2-2.1-2.3-1.9-3.5
						s0.9-2.3,1.9-3C35.3,65.5,35.1,65.2,34.9,65.3L34.9,65.3z"/>
				</g>
			</g>
		</g>
		<g>
			<g>
				<g>
					<path class="st0" d="M42.6,71.4c1.6-1.6,0.9-6.4-1.8-6.4c-0.2,0-0.2,0.3,0,0.3c2.4,0.1,2.9,4.5,1.5,5.8
						C42.2,71.3,42.4,71.5,42.6,71.4L42.6,71.4z"/>
				</g>
			</g>
		</g>
		<g>
			<g>
				<g>
					<path class="st0" d="M36.1,63.5c-0.9-1-0.6-2.7,0.6-3.3c-0.1-0.1-0.2-0.2-0.2-0.2c-0.4,0.9-0.8,2.4,0.6,2.6
						c0.1,0,0.2-0.1,0.2-0.2c0-0.4-0.1-1.4,0.7-1.2c0-0.1-0.1-0.1-0.1-0.2c-0.1,0.4-0.2,0.8-0.1,1.3c0,0.1,0.1,0.2,0.2,0.2
						c0.5-0.2,0.8-0.1,1.3,0.1c0.2,0.1,0.3-0.3,0.1-0.3c-0.2-0.1-0.6-0.3-0.9-0.3c-0.2,0-0.4,0.1-0.6,0.2c0.1,0.1,0.1,0.1,0.2,0.2
						c0-0.4,0-0.8,0.1-1.2c0-0.1,0-0.2-0.1-0.2c-0.9-0.2-1.1,0.8-1.1,1.5c0.1-0.1,0.1-0.1,0.2-0.2c-1.1-0.1-0.6-1.5-0.3-2.1
						c0.1-0.2-0.1-0.3-0.2-0.2c-1.4,0.7-1.7,2.7-0.7,3.8C36,63.9,36.3,63.6,36.1,63.5L36.1,63.5z"/>
				</g>
			</g>
		</g>
		<g>
			<g>
				<g>
					<path class="st0" d="M33.7,68.2c0.5,1,0.7,2.1,0.3,3.1c-0.1,0.2,0.2,0.3,0.3,0.1c0.4-1.1,0.3-2.3-0.3-3.4
						C33.8,67.9,33.5,68,33.7,68.2L33.7,68.2z"/>
				</g>
			</g>
		</g>
		<g>
			<g>
				<g>
					<path class="st0" d="M41.2,67.6c-0.7,1-0.2,2.5,0.9,3c0.2,0.1,0.4-0.2,0.2-0.3c-1-0.4-1.4-1.7-0.8-2.6
						C41.6,67.6,41.4,67.4,41.2,67.6L41.2,67.6z"/>
				</g>
			</g>
		</g>
		<g>
			<g>
				<g>
					<path class="st0" d="M39.5,62.5c0.2-0.2,0.3-0.4,0.3-0.7c-0.1,0-0.2,0.1-0.3,0.1c0.2,0.3,0.3,0.7,0.2,1
						c-0.1,0.2,0.3,0.3,0.3,0.1c0.1-0.5,0-1-0.3-1.4c-0.1-0.1-0.3,0-0.3,0.1c0,0.2-0.1,0.4-0.2,0.5C39.1,62.4,39.4,62.6,39.5,62.5
						L39.5,62.5z"/>
				</g>
			</g>
		</g>
		<g>
			<g>
				<g>
					<path class="st0" d="M38.3,67.9c0.1-0.4,0.4-0.7,0.8-0.8c0.2-0.1,0.1-0.4-0.1-0.3c-0.5,0.1-0.9,0.5-1,1
						C37.9,68,38.3,68.1,38.3,67.9L38.3,67.9z"/>
				</g>
			</g>
		</g>
		<g>
			<g>
				<g>
					<path class="st0" d="M34,71.3c0,0-0.1-0.8-0.1-0.9c0-0.3,0-0.7,0-1c0-0.2-0.3-0.2-0.3,0c0,0.5,0,1,0,1.5c0,0.3,0,0.6,0.3,0.7
						C34.1,71.7,34.2,71.4,34,71.3L34,71.3z"/>
				</g>
			</g>
		</g>
		<g>
			<g>
				<g>
					<path class="st0" d="M42.5,70.4c-0.3-0.5-0.4-1-0.5-1.5c0-0.2-0.3-0.2-0.3,0c0.1,0.6,0.2,1.2,0.5,1.7
						C42.3,70.8,42.6,70.6,42.5,70.4L42.5,70.4z"/>
				</g>
			</g>
		</g>
		<g>
			<g>
				<g>
					<path class="st0" d="M42.6,70.1c0-0.2,0.1-0.3,0.1-0.5c-0.1,0-0.2,0.1-0.3,0.1c0.1,0.1,0.2,0.2,0.3,0.3c0.1,0.1,0.2,0,0.2-0.1
						c0.1-0.3,0.1-0.7,0-1c-0.1-0.2-0.4-0.1-0.3,0.1c0.1,0.3,0.1,0.6,0,0.9c0.1,0,0.2-0.1,0.2-0.1c-0.1-0.1-0.2-0.1-0.3-0.2
						c-0.1-0.1-0.2,0-0.3,0.1c-0.1,0.2-0.1,0.3-0.1,0.5C42.2,70.3,42.5,70.4,42.6,70.1L42.6,70.1z"/>
				</g>
			</g>
		</g>
		<g>
			<g>
				<g>
					<path class="st0" d="M33.7,70.9c-0.2,0-0.3-0.1-0.3-0.3c0-0.1-0.1-0.2-0.2-0.2S33,70.5,33,70.6c0,0.3,0.3,0.6,0.6,0.6
						C33.8,71.2,33.9,70.9,33.7,70.9L33.7,70.9z"/>
				</g>
			</g>
		</g>
		<g>
			<g>
				<g>
					<path class="st0" d="M36.3,65.3c-0.2-0.1-0.2-0.3,0-0.3S36.5,65.2,36.3,65.3c-0.2,0-0.2,0.3,0,0.3c0.3,0,0.5-0.2,0.5-0.5
						s-0.2-0.4-0.4-0.5c-0.2,0-0.5,0.1-0.5,0.3c-0.1,0.2,0.1,0.5,0.3,0.6C36.3,65.6,36.5,65.3,36.3,65.3L36.3,65.3z"/>
				</g>
			</g>
		</g>
		<g>
			<g>
				<g>
					<path class="st0" d="M39.1,64.8c-0.1,0-0.1-0.2,0-0.2C39.2,64.7,39.2,64.8,39.1,64.8c-0.2,0.1-0.1,0.4,0.1,0.3
						c0.4-0.1,0.4-0.8-0.1-0.8S38.6,65,39,65.1C39.2,65.2,39.3,64.9,39.1,64.8L39.1,64.8z"/>
				</g>
			</g>
		</g>
		<g>
			<g>
				<g>
					<path class="st0" d="M41.7,71.4C41.7,71.4,41.7,71.4,41.7,71.4c0.3-0.2,0.1-0.4-0.1-0.3c0,0-0.1,0-0.1,0.1
						C41.4,71.2,41.5,71.5,41.7,71.4L41.7,71.4z"/>
				</g>
			</g>
		</g>
		<g>
			<g>
				<g>
					<path class="st0" d="M43.2,71.9c0.2,0,0.2-0.3,0-0.3S43,71.9,43.2,71.9L43.2,71.9z"/>
				</g>
			</g>
		</g>
		<g>
			<g>
				<g>
					<path class="st0" d="M38.1,74.1c0.2,0,0.2-0.3,0-0.3C37.9,73.7,37.9,74.1,38.1,74.1L38.1,74.1z"/>
				</g>
			</g>
		</g>
		<g>
			<g>
				<g>
					<path class="st0" d="M35,73.4c0.1-0.8,1.2-1.1,1.8-0.6c0.4,0.3,0.6,1,0.7,1.4c0.1,0.2,0.4,0.1,0.3-0.1
						c-0.2-0.8-0.6-1.7-1.5-1.8c-0.8-0.1-1.5,0.3-1.6,1.1C34.7,73.6,35,73.6,35,73.4L35,73.4z"/>
				</g>
			</g>
		</g>
		<g>
			<g>
				<g>
					<path class="st0" d="M39.9,71.6c0.3-0.1,0.6-0.3,0.9-0.1c0.2,0.1,0.3,0.4,0.3,0.7c0.1,0.4-0.1,0.9-0.2,1.4c0,0.2,0.3,0.2,0.3,0
						c0.1-0.7,0.4-1.5-0.1-2.1c-0.4-0.5-1-0.4-1.5-0.2C39.6,71.4,39.7,71.7,39.9,71.6L39.9,71.6z"/>
				</g>
			</g>
		</g>
		<g>
			<g>
				<g>
					<path class="st0" d="M39.4,81.2c0-0.2,0.1-0.4,0.3-0.6c0.2-0.1,0-0.4-0.2-0.3c-0.3,0.2-0.4,0.5-0.4,0.9
						C39.1,81.4,39.4,81.4,39.4,81.2L39.4,81.2z"/>
				</g>
			</g>
		</g>
		<g>
			<g>
				<g>
					<path class="st0" d="M39.5,83c0.1-0.4,0.3-0.7,0.6-1c0.2-0.1-0.1-0.4-0.2-0.2c-0.3,0.3-0.6,0.7-0.7,1.1
						C39.1,83.1,39.4,83.2,39.5,83L39.5,83z"/>
				</g>
			</g>
		</g>
		<g>
			<g>
				<g>
					<path class="st0" d="M37.4,79.9c0.2-0.5,0.5-0.9,1-1.1c0.2-0.1,0-0.4-0.2-0.3c-0.5,0.3-0.9,0.8-1.1,1.4
						C37,80,37.3,80,37.4,79.9L37.4,79.9z"/>
				</g>
			</g>
		</g>
		<g>
			<g>
				<g>
					<path class="st0" d="M41.4,82.5c-0.3-0.7-0.5-1.4-0.5-2.1c-0.1-0.5,0.1-2.3,1-1.9c0.7,0.3,0.8,2.1,0.8,2.7c0,0.2,0.3,0.2,0.3,0
						c0-0.8-0.2-3.1-1.3-3.1c-0.7,0-1.1,0.9-1.1,1.5c-0.1,1,0.2,2.1,0.5,3C41.1,82.8,41.5,82.7,41.4,82.5L41.4,82.5z"/>
				</g>
			</g>
		</g>
		<g>
			<g>
				<g>
					<path class="st0" d="M39.1,77.1c0.5-0.5,3.7-0.9,3.7,0.2c0,0.2,0.3,0.2,0.3,0c-0.1-1.5-3.6-1.2-4.3-0.4
						C38.7,77,39,77.3,39.1,77.1L39.1,77.1z"/>
				</g>
			</g>
		</g>
		<g>
			<g>
				<g>
					<path class="st0" d="M40.7,85.3c0,0.4-0.1,3.7,0.8,3.5c0.4-0.1,0.4-1.4,0.5-1.7c0.2-1.1,0.3-2.2,0.2-3.3c0-0.2-0.3-0.2-0.3,0
						c0,1.3-0.1,2.7-0.4,4c0,0.1-0.2,0.7-0.2,0.7c-0.1-0.1-0.1-0.9-0.2-1C41.1,86.8,41,86,41,85.3C41,85.1,40.7,85.1,40.7,85.3
						L40.7,85.3z"/>
				</g>
			</g>
		</g>
		<g>
			<g>
				<g>
					<path class="st0" d="M41,85.4c0-0.3,0.1-0.6,0.3-0.9c0.1-0.2,0.4-0.8,0.7-0.7c0.2,0.1,0.3-0.2,0.2-0.3
						c-0.4-0.3-0.7,0.1-0.9,0.4c-0.3,0.4-0.6,0.9-0.6,1.5C40.6,85.6,40.9,85.6,41,85.4L41,85.4z"/>
				</g>
			</g>
		</g>
		<g>
			<g>
				<g>
					<path class="st0" d="M45.4,83.2c0.1,0,0.1,0.1,0.1,0.1c0.2,0.1,0.4-0.1,0.2-0.2c-0.1,0-0.1-0.1-0.1-0.1
						C45.4,82.8,45.2,83.1,45.4,83.2L45.4,83.2z"/>
				</g>
			</g>
		</g>
		<g>
			<g>
				<g>
					<path class="st0" d="M45.4,83.1C45.4,83.1,45.4,83.1,45.4,83.1c0.2,0,0.2-0.3,0-0.3h0C45.2,82.8,45.2,83.1,45.4,83.1L45.4,83.1
						z"/>
				</g>
			</g>
		</g>
		<g>
			<g>
				<g>
					<path class="st0" d="M43.7,75.6c0.1,0,0.3,0.4,0.3,0.5c0.1,0.2,0.2,0.4,0.2,0.6c0.1,0.2,0.4,0.1,0.3-0.1
						c-0.1-0.3-0.2-0.6-0.3-0.8c-0.1-0.2-0.3-0.4-0.5-0.5C43.5,75.3,43.5,75.6,43.7,75.6L43.7,75.6z"/>
				</g>
			</g>
		</g>
		<g>
			<g>
				<g>
					<path class="st0" d="M35,78.1c0.2,0.3,0.4,0.5,0.8,0.6c0.2,0.1,0.3-0.2,0.1-0.3c-0.2-0.1-0.4-0.2-0.5-0.4
						C35.2,77.8,34.9,77.9,35,78.1L35,78.1z"/>
				</g>
			</g>
		</g>
		<g>
			<g>
				<g>
					<path class="st0" d="M38.8,77.1c-0.1,0.2,0,0.4,0.2,0.6c0.2,0.2,0.5,0.3,0.7,0.4c0.2,0.1,0.4-0.1,0.2-0.2
						c-0.2-0.1-0.3-0.2-0.5-0.3c-0.2-0.1-0.3-0.2-0.3-0.4C39.1,77,38.8,76.9,38.8,77.1L38.8,77.1z"/>
				</g>
			</g>
		</g>
		<g>
			<g>
				<g>
					<path class="st0" d="M43,77.7c0.2,0,0.2-0.3,0-0.3C42.8,77.4,42.8,77.7,43,77.7L43,77.7z"/>
				</g>
			</g>
		</g>
		<g>
			<g>
				<g>
					<path class="st0" d="M34.5,77.6c0.1,0.1,0.2,0.2,0.3,0.2c0.2,0.1,0.4-0.2,0.2-0.3c-0.1,0-0.1-0.1-0.2-0.1
						C34.7,77.3,34.4,77.4,34.5,77.6L34.5,77.6z"/>
				</g>
			</g>
		</g>
		<g>
			<g>
				<g>
					<path class="st0" d="M40.2,83C40.3,83,40.3,83,40.2,83c0.2,0.3,0.4,0.1,0.3-0.1c0,0,0-0.1-0.1-0.1C40.4,82.6,40.1,82.8,40.2,83
						L40.2,83z"/>
				</g>
			</g>
		</g>
		<g>
			<g>
				<g>
					<path class="st0" d="M50,99.4c0.2-1.2,0.6-2.2,1.2-3.3c-0.1,0-0.2-0.1-0.3-0.1c0,0.7,0.1,1.4,0.1,2.1c0,0.1,0.2,0.2,0.3,0.1
						c0.2-0.2,0.3-0.3,0.5-0.5c0.2-0.1-0.1-0.4-0.2-0.2c-0.2,0.2-0.3,0.3-0.5,0.5c0.1,0,0.2,0.1,0.3,0.1c0-0.7-0.1-1.4-0.1-2.1
						c0-0.2-0.2-0.2-0.3-0.1c-0.6,1-1,2.1-1.2,3.3C49.7,99.5,50,99.6,50,99.4L50,99.4z"/>
				</g>
			</g>
		</g>
		<g>
			<g>
				<g>
					<path class="st0" d="M45.7,75.8c2.6,2.7,5.9,4.3,9.3,5.8c4.1,1.7,8.1,3.6,12.2,5.2c1.7,0.7,3.4,1.1,5.3,0.8
						c1.9-0.3,3.7-0.8,5.5-1.5c3.4-1.2,6.7-2.8,9.8-4.8c3.5-2.3,6.7-5.1,9.4-8.4c0.1-0.2-0.1-0.4-0.2-0.2C91.1,79.7,83,84.9,74.1,87
						c-1.4,0.3-2.8,0.5-4.3,0.3c-1.3-0.2-2.6-0.8-3.8-1.3c-2.6-1.1-5.1-2.2-7.7-3.3c-4.4-1.9-9.2-3.5-12.5-7.1
						C45.8,75.4,45.6,75.7,45.7,75.8L45.7,75.8z"/>
				</g>
			</g>
		</g>
		<g>
			<g>
				<g>
					<path class="st0" d="M58.2,126.7c0.1,1.5,0.3,3.1,1.8,3.9c1.8,0.9,4-0.2,5.8-0.2c0.2,0,0.2-0.3,0-0.3c-1.4-0.1-2.8,0.5-4.2,0.5
						c-2.4-0.1-2.9-1.9-3.1-3.9C58.6,126.5,58.2,126.5,58.2,126.7L58.2,126.7z"/>
				</g>
			</g>
		</g>
		<g>
			<g>
				<g>
					<path class="st0" d="M73.1,130.2c2.4,0.8,5.2,1.2,7.6,0.5c2.3-0.7,3.7-2.5,5.1-4.3c0.1-0.2-0.2-0.3-0.3-0.2
						c-1.4,1.9-2.9,3.7-5.3,4.2c-2.3,0.5-4.8,0.2-7.1-0.6C73,129.8,72.9,130.1,73.1,130.2L73.1,130.2z"/>
				</g>
			</g>
		</g>
		<g>
			<g>
				<g>
					<path class="st0" d="M95.2,123.6c0.2,0.6,0.8,1.2,1.5,1.2c0.7,0,1.2-0.6,1-1.2c-0.1-0.2-0.4-0.1-0.3,0.1c0.1,0.6-0.5,1-1,0.8
						c-0.4-0.1-0.7-0.5-0.9-0.9C95.4,123.3,95.1,123.4,95.2,123.6L95.2,123.6z"/>
				</g>
			</g>
		</g>
		<g>
			<g>
				<g>
					<path class="st0" d="M99.8,79.6c0.2-0.1,0.5-0.1,0.7-0.2c-0.1-0.1-0.1-0.1-0.2-0.2c0.1,2,3,1,3.9,2.1c0.1,0.2,0.4-0.1,0.2-0.2
						c-0.4-0.5-0.9-0.6-1.5-0.7c-0.8-0.1-2.3,0-2.3-1.2c0-0.1-0.1-0.2-0.2-0.2c-0.2,0.1-0.5,0.1-0.7,0.2
						C99.5,79.4,99.6,79.7,99.8,79.6L99.8,79.6z"/>
				</g>
			</g>
		</g>
		<g>
			<g>
				<g>
					<path class="st0" d="M63.6,37.4c0.4,1.6,0.9,3.2,1.5,4.8c0.1,0.2,0.4,0.1,0.3-0.1c-0.6-1.6-1.1-3.1-1.5-4.8
						C63.9,37.1,63.6,37.1,63.6,37.4L63.6,37.4z"/>
				</g>
			</g>
		</g>
		<g>
			<g>
				<g>
					<path class="st0" d="M74.8,41.9c0.3-1.5,0.7-2.9,1-4.4c0.1-0.2-0.3-0.3-0.3-0.1c-0.3,1.5-0.7,2.9-1,4.4
						C74.4,42,74.7,42.1,74.8,41.9L74.8,41.9z"/>
				</g>
			</g>
		</g>
		<g>
			<g>
				<g>
					<path class="st0" d="M58.5,44.7c-0.6-0.9-1.2-1.8-2-2.7c-0.1-0.2-0.4,0.1-0.2,0.2c0.7,0.8,1.4,1.7,1.9,2.6
						C58.3,45.1,58.6,44.9,58.5,44.7L58.5,44.7z"/>
				</g>
			</g>
		</g>
		<g>
			<g>
				<g>
					<path class="st0" d="M55.1,47.1c-0.4-0.4-0.9-0.8-1.3-1.2c-0.2-0.1-0.4,0.1-0.2,0.2c0.4,0.4,0.9,0.8,1.3,1.2
						C55,47.5,55.3,47.3,55.1,47.1L55.1,47.1z"/>
				</g>
			</g>
		</g>
		<g>
			<g>
				<g>
					<path class="st0" d="M81.3,44.4c0.6-1.2,1.1-2.4,1.7-3.6c0.1-0.2-0.2-0.4-0.3-0.2c-0.6,1.2-1.1,2.4-1.7,3.6
						C80.9,44.4,81.2,44.6,81.3,44.4L81.3,44.4z"/>
				</g>
			</g>
		</g>
		<g>
			<g>
				<g>
					<path class="st0" d="M35.7,33.8c-0.6,0.4-1.3-0.4-0.7-0.9C35.6,32.4,36.3,33.2,35.7,33.8c-0.1,0.1,0.1,0.3,0.3,0.2
						c0.3-0.3,0.3-0.9,0.1-1.2c-0.3-0.4-0.9-0.4-1.2-0.1c-0.4,0.3-0.5,0.8-0.2,1.2c0.3,0.4,0.8,0.5,1.2,0.2
						C36.1,33.9,35.9,33.7,35.7,33.8L35.7,33.8z"/>
				</g>
			</g>
		</g>
		<g>
			<g>
				<g>
					<path class="st0" d="M48.2,18.9c-0.3,0-0.7-0.2-0.7-0.5c-0.1-0.3,0.2-0.5,0.4-0.6c0.6-0.2,0.9,0.7,0.5,1
						c-0.2,0.1,0.1,0.4,0.2,0.2c0.7-0.6,0.1-1.9-0.9-1.5c-0.4,0.1-0.7,0.5-0.6,0.9c0.1,0.5,0.5,0.9,1,0.8
						C48.4,19.2,48.4,18.9,48.2,18.9L48.2,18.9z"/>
				</g>
			</g>
		</g>
		<g>
			<g>
				<g>
					<path class="st0" d="M73.3,12.1c-0.7-0.2-0.5-1.2,0.2-1.1c0.9,0.1,0.7,1.3-0.1,1.4c-0.2,0-0.2,0.4,0,0.3c0.5-0.1,1-0.5,1-1
						c0.1-0.5-0.4-1-0.9-1c-0.5-0.1-0.9,0.2-1,0.7c-0.1,0.4,0.2,0.9,0.6,1.1C73.4,12.4,73.5,12.1,73.3,12.1L73.3,12.1z"/>
				</g>
			</g>
		</g>
		<g>
			<g>
				<g>
					<path class="st0" d="M90.7,14.5c-0.5-0.2-0.4-1,0.2-0.9c0.2,0,0.5,0.2,0.4,0.4c0,0.3-0.2,0.5-0.5,0.5c-0.2,0-0.2,0.3,0,0.3
						c0.4,0,0.8-0.4,0.8-0.8c0-0.4-0.3-0.8-0.7-0.8c-0.4-0.1-0.8,0.2-0.9,0.6c-0.1,0.4,0.2,0.8,0.5,1C90.9,14.9,90.9,14.6,90.7,14.5
						L90.7,14.5z"/>
				</g>
			</g>
		</g>
		<g>
			<g>
				<g>
					<path class="st0" d="M103.8,28.1c-0.1-0.3,0.1-0.6,0.4-0.7c0.3-0.1,0.5,0.1,0.6,0.4c0.2,0.6-0.6,0.9-0.9,0.4
						c-0.1-0.2-0.4,0-0.3,0.2c0.5,0.8,1.8,0.2,1.5-0.7c-0.2-0.4-0.6-0.7-1-0.5c-0.4,0.1-0.7,0.6-0.6,1.1
						C103.6,28.4,103.9,28.3,103.8,28.1L103.8,28.1z"/>
				</g>
			</g>
		</g>
		<g>
			<g>
				<g>
					<path class="st0" d="M97.4,72.3c-1.2,1.3-2.6,2.9-2.3,4.8c0.2,1.3,1.1,2.3,2.4,2.4c0.2,0,0.2-0.3,0-0.3c-1.7-0.2-2.3-2-2-3.4
						c0.3-1.3,1.2-2.3,2.1-3.3C97.8,72.4,97.6,72.2,97.4,72.3L97.4,72.3z"/>
				</g>
			</g>
		</g>
		<g>
			<g>
				<g>
					<path class="st0" d="M97.3,74.2c-0.8,0.5-1.2,1.4-1.1,2.3c0.1,0.6,0.7,1.8,1.4,1.2c0.2-0.1-0.1-0.4-0.2-0.2
						c-0.4,0.3-0.8-0.5-0.8-0.8c-0.1-0.3-0.1-0.6,0-0.9c0.1-0.6,0.4-1.1,0.9-1.4C97.6,74.3,97.5,74.1,97.3,74.2L97.3,74.2z"/>
				</g>
			</g>
		</g>
		<g>
			<g>
				<g>
					<path class="st0" d="M97.7,75.8c-0.5-0.1-1,0.3-0.9,0.8c0.1,0.2,0.2,0.4,0.4,0.5c0.1,0.1,0.2,0.1,0.4,0
						c0.2-0.1,0.3-0.3,0.4-0.4c0.2-0.1-0.1-0.4-0.2-0.2c-0.1,0.1-0.2,0.2-0.4,0.3c0,0,0.1,0,0.1-0.1c-0.2,0-0.4-0.2-0.4-0.5
						c0.1-0.2,0.3-0.3,0.5-0.3C97.9,76.2,97.9,75.8,97.7,75.8L97.7,75.8z"/>
				</g>
			</g>
		</g>
		<g>
			<g>
				<g>
					<path class="st0" d="M94.8,76.3c-1,1.3-2.2,2.4-3.7,3.2c-0.2,0.1,0,0.4,0.2,0.3c1.5-0.9,2.8-2,3.8-3.3
						C95.3,76.3,95,76.1,94.8,76.3L94.8,76.3z"/>
				</g>
			</g>
		</g>
		<g>
			<g>
				<g>
					<path class="st0" d="M95,77.9c-0.8,0.8-1.6,1.5-2.6,2c-0.2,0.1,0,0.4,0.2,0.3c1-0.5,1.9-1.2,2.7-2C95.4,78,95.2,77.7,95,77.9
						L95,77.9z"/>
				</g>
			</g>
		</g>
		<g>
			<g>
				<g>
					<path class="st0" d="M95.4,78.8c-0.3,0.4-0.6,0.7-0.9,1.1c-0.1,0.2,0.1,0.4,0.2,0.2c0.3-0.4,0.6-0.7,0.9-1.1
						C95.7,78.9,95.5,78.6,95.4,78.8L95.4,78.8z"/>
				</g>
			</g>
		</g>
		<g>
			<g>
				<g>
					<path class="st0" d="M98.3,109c0.2-0.6,0.3-1.2,0.4-1.9c0.1-0.2-0.3-0.3-0.3-0.1c-0.2,0.6-0.3,1.2-0.4,1.9
						C97.9,109.1,98.2,109.2,98.3,109L98.3,109z"/>
				</g>
			</g>
		</g>
		<g>
			<g>
				<g>
					<path class="st0" d="M47.9,84.6c0.4,1.7,0.7,3.5,0.7,5.3c0,0.2,0.3,0.2,0.3,0c-0.1-1.8-0.3-3.6-0.7-5.4
						C48.1,84.3,47.8,84.4,47.9,84.6L47.9,84.6z"/>
				</g>
			</g>
		</g>
		<g>
			<g>
				<g>
					<path class="st0" d="M102.1,91.6c0.2,1.9,0.2,3.8-0.1,5.7c-0.1,0.8-0.3,1.7-0.6,2.5c-0.1,0.4-0.3,0.9-0.4,1.3
						c-0.1,0.2-0.2,0.5-0.3,0.7c-0.3,0.7-0.9,0.9-1.8,0.5c-0.1-0.2-0.4-0.1-0.3,0.1c0.2,0.5,0.7,0.8,1.2,0.7c0.9-0.2,1.2-1.2,1.5-2
						c1.1-3,1.5-6.3,1.2-9.5C102.4,91.4,102.1,91.4,102.1,91.6L102.1,91.6z"/>
				</g>
			</g>
		</g>
		<g>
			<g>
				<g>
					<path class="st0" d="M59,36.2C59,36.2,59,36.2,59,36.2c0.3,0,0.3-0.3,0.1-0.3c0,0,0,0-0.1,0C58.8,35.9,58.8,36.2,59,36.2
						L59,36.2z"/>
				</g>
			</g>
		</g>
		<g>
			<g>
				<g>
					<path class="st0" d="M56.6,37.6c0.1,0.1,0.1,0.3,0.2,0.4c0.1,0.2,0.4,0.1,0.3-0.1c-0.1-0.1-0.1-0.3-0.2-0.4
						C56.9,37.3,56.6,37.4,56.6,37.6L56.6,37.6z"/>
				</g>
			</g>
		</g>
		<g>
			<g>
				<g>
					<path class="st0" d="M60.6,35c0.1,0,0.1,0,0.1,0.1c0.1,0.2,0.4-0.1,0.2-0.2c-0.1-0.1-0.2-0.2-0.4-0.2
						C60.4,34.7,60.4,35,60.6,35L60.6,35z"/>
				</g>
			</g>
		</g>
		<g>
			<g>
				<g>
					<path class="st0" d="M71.3,31.9c-0.1,0.1-0.1,0.2-0.1,0.4c0.1,0.2,0.4,0.1,0.3-0.1c0-0.1,0-0.1,0-0.1
						C71.7,31.9,71.4,31.7,71.3,31.9L71.3,31.9z"/>
				</g>
			</g>
		</g>
		<g>
			<g>
				<g>
					<path class="st0" d="M81.1,34.8c-0.1,0.1-0.1,0.3-0.1,0.4c-0.1,0.2,0.2,0.3,0.3,0.1c0.1-0.1,0.1-0.3,0.1-0.4
						C81.5,34.7,81.2,34.6,81.1,34.8L81.1,34.8z"/>
				</g>
			</g>
		</g>
		<g>
			<g>
				<g>
					<path class="st0" d="M52.6,49.8c0,0,0.1,0,0.1,0.1c0.2,0.1,0.3-0.2,0.2-0.3c0,0-0.1,0-0.1-0.1C52.6,49.5,52.4,49.7,52.6,49.8
						L52.6,49.8z"/>
				</g>
			</g>
		</g>
		<g>
			<g>
				<g>
					<path class="st0" d="M69.8,45.2c0.2-0.4,0.3-0.8,0.5-1.2c0.1-0.2-0.2-0.3-0.3-0.1c-0.2,0.4-0.3,0.8-0.5,1.2
						C69.4,45.3,69.7,45.4,69.8,45.2L69.8,45.2z"/>
				</g>
			</g>
		</g>
		<g>
			<g>
				<g>
					<path class="st0" d="M69,44.6c0.4-0.3,0.7-0.5,1.1-0.7c0.2-0.1,0-0.4-0.2-0.3c-0.4,0.2-0.8,0.4-1.1,0.7
						C68.7,44.5,68.8,44.8,69,44.6L69,44.6z"/>
				</g>
			</g>
		</g>
		<g>
			<g>
				<g>
					<path class="st0" d="M69.9,43.9c0.3,0.5,0.6,0.9,1,1.4c0.1,0.2,0.4-0.1,0.2-0.2c-0.3-0.4-0.7-0.8-0.9-1.3
						C70.1,43.5,69.8,43.7,69.9,43.9L69.9,43.9z"/>
				</g>
			</g>
		</g>
		<g>
			<g>
				<g>
					<path class="st0" d="M69.9,44c0.4,0.6,1,0.9,1.7,1.1c0.2,0.1,0.3-0.3,0.1-0.3c-0.6-0.1-1.1-0.4-1.5-0.9
						C70,43.7,69.7,43.8,69.9,44L69.9,44z"/>
				</g>
			</g>
		</g>
		<g>
			<g>
				<g>
					<path class="st0" d="M52.5,51c0.1,0,0.2-0.1,0.3-0.1c0.2-0.1,0.1-0.4-0.1-0.3c-0.1,0-0.2,0.1-0.3,0.1
						C52.3,50.8,52.4,51.1,52.5,51L52.5,51z"/>
				</g>
			</g>
		</g>
		<g>
			<g>
				<g>
					<path class="st0" d="M51.6,51.9c0.3-0.3,0.6-0.6,0.9-0.9c0.2-0.2-0.1-0.4-0.2-0.2c-0.3,0.3-0.6,0.6-0.9,0.9
						C51.2,51.9,51.4,52.1,51.6,51.9L51.6,51.9z"/>
				</g>
			</g>
		</g>
		<g>
			<g>
				<g>
					<path class="st0" d="M90,47.9c0-0.1,0.1-0.1,0.1-0.2c0.1-0.2-0.2-0.3-0.3-0.2c0,0.1-0.1,0.1-0.1,0.2
						C89.7,47.9,89.9,48.1,90,47.9L90,47.9z"/>
				</g>
			</g>
		</g>
		<g>
			<g>
				<g>
					<path class="st0" d="M89.9,48c0.1-0.1,0.1-0.2,0.2-0.3c0.1-0.2-0.2-0.4-0.3-0.2c-0.1,0.1-0.1,0.2-0.2,0.3
						C89.6,48,89.8,48.2,89.9,48L89.9,48z"/>
				</g>
			</g>
		</g>
	</g>
</g>
</svg>
