<?xml version="1.0" encoding="utf-8"?>
<!-- Generator: Adobe Illustrator 24.0.1, SVG Export Plug-In . SVG Version: 6.00 Build 0)  -->
<svg version="1.1" id="Layer_1" xmlns="http://www.w3.org/2000/svg" xmlns:xlink="http://www.w3.org/1999/xlink" x="0px" y="0px"
	 viewBox="0 0 141.7 141.7" style="enable-background:new 0 0 141.7 141.7;" xml:space="preserve">
<style type="text/css">
	.st0{fill:#070707;}
</style>
<g id="Layer_1_1_">
</g>
<g id="Layer_1_2_">
</g>
<g id="Layer_1_3_">
</g>
<g id="Layer_1_4_">
</g>
<g id="Layer_1_5_">
</g>
<g id="Layer_3">
</g>
<g id="Layer_3_1_">
</g>
<g id="Layer_1_6_">
</g>
<g id="Layer_1_7_">
</g>
<g id="Layer_1_8_">
</g>
<g id="Layer_1_9_">
</g>
<g id="Layer_1_10_">
</g>
<g id="Layer_1_11_">
</g>
<g id="Layer_1_12_">
</g>
<g id="Layer_1_13_">
</g>
<g id="Layer_1_14_">
</g>
<g id="Layer_2_1_">
	<g>
		<g>
			<g>
				<g>
					<path class="st0" d="M57.3,47.9c-4.3,0.6-8.7,1.5-12.1,4.3c-3.6,3-5.5,7.7-6.1,12.3c-0.8,5.6,0.1,11.2,0.2,16.8
						c0.1,5.9-0.3,11.8-0.1,17.7c0.2,5,1.3,10,5.1,13.6c0.3,0.3,0.8-0.2,0.5-0.5c-3.4-3.2-4.5-7.7-4.8-12.3c-0.3-5.2,0-10.5,0-15.6
						c0.1-9.7-2.9-21.2,3.8-29.5c3.3-4.1,8.5-5.4,13.5-6.1C57.7,48.5,57.7,47.9,57.3,47.9L57.3,47.9z"/>
				</g>
			</g>
		</g>
		<g>
			<g>
				<g>
					<path class="st0" d="M69,48.2c-1.2-0.2-2.4-0.3-3.6-0.4c-0.4,0-0.4,0.6,0,0.7c1.1,0.1,2.3,0.2,3.4,0.4
						C69.2,48.9,69.4,48.2,69,48.2L69,48.2z"/>
				</g>
			</g>
		</g>
		<g>
			<g>
				<g>
					<path class="st0" d="M48.5,115.3c3.7,2.2,8.3,2.3,12.5,1.9c2.1-0.2,4.2-0.5,6.3-0.8c2.2-0.4,4.6-0.6,6.6-1.8
						c0.4-0.2,0-0.8-0.3-0.6c-1.9,1.2-4.3,1.4-6.4,1.7c-2,0.3-4.1,0.7-6.1,0.8c-4,0.3-8.6,0.4-12.1-1.8
						C48.5,114.5,48.2,115.1,48.5,115.3L48.5,115.3z"/>
				</g>
			</g>
		</g>
		<g>
			<g>
				<g>
					<path class="st0" d="M53.5,49.2c0.4,0,0.4-0.7,0-0.7C53,48.6,53,49.2,53.5,49.2L53.5,49.2z"/>
				</g>
			</g>
		</g>
		<g>
			<g>
				<g>
					<path class="st0" d="M40.1,60.8c-3.2-0.3-5.1-3.8-3-6.4c1.5-1.9,5.4-3.2,7.2-1.1c0.3,0.3,0.7-0.2,0.5-0.5
						c-2.3-2.5-7-0.9-8.6,1.6c-2,3.2,0.4,6.7,3.9,7.1C40.5,61.5,40.5,60.8,40.1,60.8L40.1,60.8z"/>
				</g>
			</g>
		</g>
		<g>
			<g>
				<g>
					<path class="st0" d="M57.7,64.7c0.1-0.3,0.1-0.4-0.2-0.3c-0.1,0-0.1,0-0.2,0.1c-0.2,0-0.2,0.1-0.4,0.2c-0.4,0.2-0.9,0.6-1.2,1
						c-0.5,0.5-1.1,1.2-1,2c0.2,0.9,1.2,1.4,2,1.6c1.5,0.2,2.9-0.7,4.3-0.7c1.6,0,4.5,1.8,4.9-0.9c0.3-1.9-2.2-3-3.6-3.6
						c-0.2-0.1-0.3,0.2-0.1,0.3c1.3,0.5,3.7,1.5,3.4,3.3c-0.4,2.2-3.2,0.6-4.5,0.6c-1.7,0-4,1.6-5.5,0.2c-1.5-1.5,1-3.2,2.3-3.7
						c0.1-0.1,0.2-0.2,0.1-0.3c-0.1-0.1-0.2-0.1-0.4,0C57.4,64.4,57.5,64.8,57.7,64.7L57.7,64.7z"/>
				</g>
			</g>
		</g>
		<g>
			<g>
				<g>
					<path class="st0" d="M62.9,68.9c0.3,0.9,0.5,1.9,0.3,2.9c-0.2,0.7-0.8,1.2-1.6,1c-0.5-0.1-0.7-0.6-0.9-1.1
						c-0.1-0.2-0.4,0-0.3,0.2c0.2,0.5,0.4,1,0.9,1.2c0.5,0.2,1.1,0.1,1.5-0.2c1.2-0.8,0.8-2.9,0.4-4.1
						C63.1,68.6,62.8,68.7,62.9,68.9L62.9,68.9z"/>
				</g>
			</g>
		</g>
		<g>
			<g>
				<g>
					<path class="st0" d="M44.6,112.6c1.9-0.9,2.9,1.5,4.2,2.4c0-0.1,0-0.2,0-0.3c-2,0.3-3.7,3.3-5.9,2.9c-2-0.4-1.6-2.4-0.5-3.4
						c0.8-0.7,1.7-1.3,2.7-1.8c0.2-0.1,0-0.4-0.2-0.3c-1.5,0.8-5.1,2.9-3.4,5c2.2,2.8,5.1-1.6,7.3-2c0.2,0,0.1-0.2,0-0.3
						c-1.5-1.1-2.4-3.4-4.6-2.4C44.2,112.4,44.4,112.7,44.6,112.6L44.6,112.6z"/>
				</g>
			</g>
		</g>
		<g>
			<g>
				<g>
					<path class="st0" d="M42.4,117.2c-0.3-1.1,0.5-2,1.4-2.5c0.2-0.1,0-0.4-0.2-0.3c-1.1,0.6-1.9,1.6-1.6,2.8
						C42.1,117.5,42.5,117.4,42.4,117.2L42.4,117.2z"/>
				</g>
			</g>
		</g>
		<g>
			<g>
				<g>
					<path class="st0" d="M77.4,117.1c-1-0.6-1.6-1.6-2.5-2.4c-0.6-0.6-1-1.1-0.2-1.9c0.5-0.5,1.4-1,2.1-1c1.5,0,2.6,1.3,3.1,2.5
						c0.3,0.6,0.6,1.7,0.1,2.3C79.4,117.7,78.3,117.6,77.4,117.1c-0.2-0.1-0.4,0.2-0.2,0.3c1.3,0.6,3.1,0.5,3.4-1.2
						c0.3-1.7-1-3.8-2.6-4.5c-0.8-0.3-1.6-0.3-2.4,0.1c-0.6,0.3-1.9,1.1-1.9,1.9c0,0.6,0.6,0.9,1,1.2c0.8,0.8,1.5,1.8,2.5,2.4
						C77.4,117.5,77.5,117.2,77.4,117.1z"/>
				</g>
			</g>
		</g>
		<g>
			<g>
				<g>
					<path class="st0" d="M85.7,67.1c-1.6-0.2-2.8,0.9-3.8,2c-0.1,0.2,0.1,0.4,0.2,0.2c0.9-1,2-2.1,3.4-1.9
						C85.8,67.4,85.9,67.1,85.7,67.1L85.7,67.1z"/>
				</g>
			</g>
		</g>
		<g>
			<g>
				<g>
					<path class="st0" d="M81.8,72.5c1.6,0.2,3.1-0.2,4.2-1.5c0.1-0.2-0.1-0.4-0.2-0.2c-1,1.2-2.3,1.6-3.8,1.4
						C81.7,72.2,81.6,72.5,81.8,72.5L81.8,72.5z"/>
				</g>
			</g>
		</g>
		<g>
			<g>
				<g>
					<path class="st0" d="M84.6,69.7c1-0.3,1.9-1.2,1.4-2.3c-0.1-0.2-0.4,0-0.3,0.2c0.4,0.9-0.4,1.6-1.2,1.8
						C84.3,69.5,84.4,69.8,84.6,69.7L84.6,69.7z"/>
				</g>
			</g>
		</g>
		<g>
			<path class="st0" d="M97.9,51.8c-7.7,0-14-6.3-14-14.1s6.3-14.1,14-14.1s14,6.3,14,14.1S105.7,51.8,97.9,51.8z M97.9,24.4
				c-7.3,0-13.2,6-13.2,13.3S90.6,51,97.9,51c7.3,0,13.2-6,13.2-13.3S105.2,24.4,97.9,24.4z"/>
		</g>
		<g>
			<path class="st0" d="M52,65.3c-3.7,0-6.8-3-6.8-6.8s3-6.8,6.8-6.8c3.7,0,6.8,3,6.8,6.8S55.8,65.3,52,65.3z M52,52.2
				c-3.5,0-6.4,2.8-6.4,6.4s2.8,6.4,6.4,6.4s6.4-2.8,6.4-6.4S55.5,52.2,52,52.2z"/>
		</g>
		<g>
			<circle class="st0" cx="40.7" cy="56.5" r="1.4"/>
		</g>
		<g>
			<path class="st0" d="M63.3,63.9c0-0.9-1.3-1.6-2.9-1.6c-1.6,0-2.9,0.7-2.9,1.6c0,0.9,1.3,1.6,2.9,1.6
				C62,65.5,63.3,64.8,63.3,63.9z"/>
		</g>
		<g>
			<path class="st0" d="M96.2,35.6c0,2.5,2,4.5,4.5,4.5c2.5,0,4.5-2,4.5-4.5s-2-4.5-4.5-4.5C98.2,31.1,96.2,33.1,96.2,35.6z
				 M103.5,33.8c0,0.7-0.6,1.3-1.3,1.3c-0.7,0-1.3-0.6-1.3-1.3c0-0.7,0.6-1.3,1.3-1.3C102.9,32.5,103.5,33.1,103.5,33.8z"/>
		</g>
		<g>
			<path class="st0" d="M52.8,57c0,1.2,1,2.1,2.1,2.1s2.1-1,2.1-2.1c0-1.2-1-2.1-2.1-2.1C53.7,54.9,52.8,55.8,52.8,57z M56.3,56.1
				c0,0.3-0.3,0.6-0.6,0.6s-0.6-0.3-0.6-0.6s0.3-0.6,0.6-0.6S56.3,55.8,56.3,56.1z"/>
		</g>
		<g>
			<g>
				<g>
					<path class="st0" d="M60.4,68.4c0.3,1.2,0.3,2.9-0.3,4c-0.6,1-1.8,0.5-2.1-0.5C57.7,71,57.8,70,58,69.2
						c0.1-0.2-0.3-0.3-0.3-0.1c-0.3,1-0.5,2.3,0,3.3c0.3,0.7,1.3,1.2,2,0.9c1.4-0.7,1.3-3.6,1-4.8C60.7,68.2,60.4,68.2,60.4,68.4
						L60.4,68.4z"/>
				</g>
			</g>
		</g>
		<g>
			<g>
				<g>
					<path class="st0" d="M49.1,92.9c0.8,1.3,2.4,2.1,3.9,2.2c1.1,0.1,2.1-0.3,1.9-1.6c-0.1-0.2-0.4-0.1-0.3,0.1
						c0.3,1.4-1.6,1.2-2.4,1c-1.1-0.3-2.1-0.9-2.7-1.9C49.2,92.6,49,92.7,49.1,92.9L49.1,92.9z"/>
				</g>
			</g>
		</g>
		<g>
			<g>
				<g>
					<path class="st0" d="M53.1,93.4c0.5,0.2,1.2,0.4,1.6,0c0.4-0.3,0.3-1,0-1.4C54,91,52.1,90.9,51,91c-0.2,0-0.2,0.3,0,0.3
						c0.8-0.1,1.7,0,2.4,0.3c0.5,0.2,0.9,0.4,1.1,0.8c0.5,1-0.7,1-1.3,0.7C53.1,93.1,53,93.4,53.1,93.4L53.1,93.4z"/>
				</g>
			</g>
		</g>
		<g>
			<g>
				<g>
					<path class="st0" d="M80.4,60.7c1.2,5,1,10.2,0.9,15.3c0,0.4,0.7,0.4,0.7,0c0-5.2,0.3-10.4-1-15.4C81,60.1,80.3,60.2,80.4,60.7
						L80.4,60.7z"/>
				</g>
			</g>
		</g>
		<g>
			<g>
				<g>
					<path class="st0" d="M73.7,114.3c0,0,0.1,0,0.1,0c0.2,0,0.2-0.3,0-0.3h0c-0.1,0-0.1,0-0.1,0.1c0,0,0,0,0,0
						c0.1,0.1,0.1,0.1,0.2,0.2c0,0,0-0.1,0-0.1C73.8,114.2,73.7,114.2,73.7,114.3C73.7,114.3,73.7,114.3,73.7,114.3
						c0.2,0.2,0.5,0,0.3-0.2c0,0-0.1-0.1-0.1-0.1c-0.1-0.1-0.2-0.1-0.3,0.1c0,0,0,0.1,0,0.1c-0.1,0.1,0.1,0.2,0.2,0.2
						c0.1,0,0.1-0.1,0.2-0.2c-0.1,0-0.1,0.1-0.1,0.1h0c0.2,0,0.2-0.3,0-0.3c0,0-0.1,0-0.1,0C73.5,114,73.5,114.3,73.7,114.3
						L73.7,114.3z"/>
				</g>
			</g>
		</g>
		<g>
			<g>
				<g>
					<path class="st0" d="M54.8,67.8c0.6,5,1.1,9.9,1.4,14.9c0.1,2.6-0.1,7,3.7,6.7c3.2-0.2,4.4-3.5,4.8-6.2
						c0.7-4.9,0.9-9.8,1.1-14.8c0-0.2-0.3-0.2-0.3,0c-0.2,3.9-0.5,7.8-0.8,11.7c-0.3,3.2-0.5,8.6-4.7,8.9c-2.4,0.2-3.1-2-3.2-3.9
						c-0.1-1.9-0.2-3.7-0.3-5.5c-0.3-4-0.7-7.9-1.2-11.8C55.1,67.5,54.8,67.5,54.8,67.8L54.8,67.8z"/>
				</g>
			</g>
		</g>
		<g>
			<g>
				<g>
					<path class="st0" d="M57,86.1c0.2-0.9,1.1-1.6,2-1.4c0.9,0.2,1.4,1.3,1.1,2.2c-0.1,0.2,0.3,0.3,0.3,0.1
						c0.3-1.1-0.3-2.3-1.4-2.6c-1.1-0.3-2.2,0.6-2.4,1.6C56.6,86.2,56.9,86.3,57,86.1L57,86.1z"/>
				</g>
			</g>
		</g>
		<g>
			<g>
				<g>
					<path class="st0" d="M60.3,85.5c0.7-1.6,2.8-1.5,3.4,0.2c0.1,0.2,0.4,0.1,0.3-0.1c-0.6-1.9-3.2-2.1-4-0.2
						C59.9,85.6,60.2,85.7,60.3,85.5L60.3,85.5z"/>
				</g>
			</g>
		</g>
		<g>
			<g>
				<g>
					<path class="st0" d="M54.7,86.5c0.4,2.9,1.7,7.1,5.4,6.7c3.8-0.5,4.9-4.7,5.4-7.8c0-0.2-0.3-0.3-0.3-0.1
						c-0.5,2.8-1.4,6.6-4.6,7.4c-3.9,1-5.2-3.4-5.6-6.3C55,86.2,54.7,86.3,54.7,86.5L54.7,86.5z"/>
				</g>
			</g>
		</g>
		<g>
			<g>
				<g>
					<path class="st0" d="M45.3,59c3.4,4.7,10.2,4.6,13.5-0.1c0.1-0.2-0.2-0.3-0.3-0.2c-3.2,4.5-9.7,4.5-12.9,0.1
						C45.4,58.7,45.2,58.8,45.3,59L45.3,59z"/>
				</g>
			</g>
		</g>
		<g>
			<g>
				<g>
					<path class="st0" d="M87.5,28.4c-3.1,2.4-6,5-8.6,7.9c-0.3,0.3,0.2,0.8,0.5,0.5c2.7-2.8,5.6-5.5,8.6-7.9
						C88.3,28.7,87.8,28.2,87.5,28.4L87.5,28.4z"/>
				</g>
			</g>
		</g>
		<g>
			<g>
				<g>
					<path class="st0" d="M78.6,36.9c-0.5,2.7-1.2,5.4-0.8,8.1c0.3,2.2,1.1,4.4,2.4,6.2c2.7,3.7,7.3,5.5,11.8,4.9
						c0.4-0.1,0.4-0.7,0-0.7c-4.4,0.6-8.9-1.2-11.5-4.9c-1.2-1.8-2-4-2.2-6.1c-0.2-2.4,0.5-4.9,0.9-7.3
						C79.3,36.7,78.7,36.5,78.6,36.9L78.6,36.9z"/>
				</g>
			</g>
		</g>
		<g>
			<g>
				<g>
					<path class="st0" d="M92.1,56.3c4.7-1.6,9.2-3.8,13.2-6.7c0.3-0.2,0-0.8-0.3-0.6c-4,2.9-8.4,5.1-13,6.7
						C91.6,55.8,91.7,56.4,92.1,56.3L92.1,56.3z"/>
				</g>
			</g>
		</g>
		<g>
			<g>
				<g>
					<path class="st0" d="M77.6,40.9c-4,3.3-7.8,6.8-11.4,10.5c-0.3,0.3,0.2,0.8,0.5,0.5c3.6-3.7,7.4-7.2,11.4-10.5
						C78.4,41.1,78,40.6,77.6,40.9L77.6,40.9z"/>
				</g>
			</g>
		</g>
		<g>
			<g>
				<g>
					<path class="st0" d="M86.7,55.6c-2.8,1.8-5.7,3.6-8.5,5.4c-1.4,0.8-2.7,1.7-4.1,2.5c-0.7,0.4-1.5,0.8-2.2,1.2
						c-0.3,0.2-0.6,0.3-0.9,0.5c-0.2,0.1-0.5,0.2-0.7,0.3c-0.3,0.1-0.5,0.3-0.6,0.7c0.4-0.2,0.1-0.8-0.3-0.6c-0.1,0-0.1,0-0.1,0.1
						c-0.1,0.1-0.2,0.2-0.2,0.4c0,0.1,0,0.1,0,0.2c0,0.1,0.1,0.2,0.2,0.2c1,0.2,2.4-1,3.3-1.4c1.6-0.9,3.2-1.8,4.8-2.8
						c3.2-2,6.4-4.1,9.6-6.1C87.4,56,87.1,55.4,86.7,55.6L86.7,55.6z"/>
				</g>
			</g>
		</g>
		<g>
			<g>
				<g>
					<path class="st0" d="M66.8,51.6c-1-0.7-2,0.1-2.3,1.1c-0.3,1.2-0.2,3.7,0.8,4.7c0.8,0.8,1.6-0.4,1.9-1.1
						c0.5-1.6-0.1-3.4-0.6-4.9c-0.1-0.4-0.8-0.2-0.6,0.2c0.5,1.3,1.3,3.4,0.6,4.7c-0.4,0.8-0.8,0.7-1-0.1c-0.1-0.4-0.2-0.8-0.3-1.2
						c-0.1-0.5-0.3-3.8,1.3-2.8C66.8,52.4,67.2,51.8,66.8,51.6L66.8,51.6z"/>
				</g>
			</g>
		</g>
		<g>
			<g>
				<g>
					<path class="st0" d="M67.5,51.6c0.2-0.3,0.7,1.1,0.7,1.2c0.1,0.5,0.2,1,0.3,1.5c0.1,0.9-0.2,3.2-1.7,2.2
						c-0.3-0.2-0.7,0.3-0.3,0.6c0.6,0.4,1.4,0.3,2-0.2c0.8-0.7,0.8-1.7,0.7-2.6c-0.1-0.9-0.3-2.4-0.9-3.1c-0.4-0.5-1.1-0.5-1.4,0.1
						C66.7,51.6,67.3,52,67.5,51.6L67.5,51.6z"/>
				</g>
			</g>
		</g>
		<g>
			<g>
				<g>
					<path class="st0" d="M64.5,53.9c-1.4,1-2.7,2.4-3.2,4.1c-0.5,1.9,0.3,3.9,1.2,5.5c1.7,2.9,5.6,3.9,8.4,2.1
						c0.4-0.2,0-0.8-0.3-0.6c-2.6,1.6-6,0.8-7.5-1.9c-0.8-1.4-1.6-3.4-1.2-5c0.4-1.6,1.6-2.8,2.8-3.7C65.2,54.2,64.8,53.6,64.5,53.9
						L64.5,53.9z"/>
				</g>
			</g>
		</g>
		<g>
			<path class="st0" d="M98.2,50.8c-7.3,0-13.3-6-13.3-13.3c0-7.3,5.9-13.3,13.3-13.3s13.3,6,13.3,13.3
				C111.4,44.9,105.5,50.8,98.2,50.8z M98.2,25c-6.9,0-12.5,5.6-12.5,12.5c0,6.9,5.6,12.5,12.5,12.5s12.5-5.6,12.5-12.5
				C110.6,30.6,105.1,25,98.2,25z"/>
		</g>
		<g>
			<g>
				<path class="st0" d="M98.6,46.1c-6.5,0-11.9-4.6-13.2-10.7c-0.1,0.3-0.2,0.5-0.2,0.8c1.6,5.9,7,10.3,13.4,10.3
					c5.7,0,10.6-3.5,12.7-8.4v-1.1C109.5,42.2,104.5,46.1,98.6,46.1z"/>
			</g>
		</g>
		<g>
			<g>
				<g>
					<path class="st0" d="M62.2,56.2c-0.4,0-0.5-0.7-0.2-0.9c-0.2,0-0.3,0-0.5,0c0.3,0.3,0.5,0.6,0.6,1c0.1,0.4,0.8,0.2,0.6-0.2
						c-0.1-0.5-0.4-0.9-0.7-1.2c-0.1-0.1-0.3-0.1-0.5,0c-0.8,0.6-0.3,2,0.7,2C62.6,56.9,62.6,56.2,62.2,56.2L62.2,56.2z"/>
				</g>
			</g>
		</g>
		<g>
			<g>
				<g>
					<path class="st0" d="M62.7,55.3c-0.4-1.5-0.8-2.9-1.2-4.3c-0.2-0.6-0.4-1.3-0.5-1.9c-0.1-0.4-0.2-0.8-0.3-1.2
						c-0.1-0.2-0.1-0.3-0.1-0.5c-0.1-0.6-0.2-0.3-0.1,0.7c-0.2,0.4,0.3,0.7,0.6,0.3c0.3-0.5,0.7-1.4,0.1-1.9
						c-0.5-0.3-1.1-0.2-1.2,0.3c-0.1,0.3,0.1,0.8,0.2,1.1c0.2,0.8,0.5,1.6,0.7,2.4c0.5,1.7,1,3.4,1.4,5.1
						C62.2,55.9,62.9,55.7,62.7,55.3L62.7,55.3z"/>
				</g>
			</g>
		</g>
		<g>
			<g>
				<g>
					<path class="st0" d="M61,46.6c-0.1-0.5-0.2-0.9-0.3-1.4c-0.1-0.3-0.4-1.1-0.1-1.3c0.2-0.2,1.1-0.2,1.4-0.2
						c0.5-0.1,1-0.1,1.5-0.1c0.4,0,0.4-0.7,0-0.7c-0.7,0-1.4,0-2,0.1c-0.4,0.1-1.1,0.1-1.4,0.4c-0.3,0.3-0.2,0.7-0.1,1.1
						c0.2,0.8,0.3,1.5,0.5,2.3C60.4,47.2,61.1,47,61,46.6L61,46.6z"/>
				</g>
			</g>
		</g>
		<g>
			<g>
				<g>
					<path class="st0" d="M63.7,43.5c0.6,2.5,1.2,5,1.8,7.6c0.1,0.4,0.7,0.2,0.6-0.2c-0.6-2.5-1.2-5-1.8-7.6
						C64.2,42.9,63.6,43.1,63.7,43.5L63.7,43.5z"/>
				</g>
			</g>
		</g>
		<g>
			<g>
				<g>
					<path class="st0" d="M64.9,46.1c0.3,0.3,0.4,0.9,0,1.2c-0.3,0.2,0,0.8,0.3,0.6c0.7-0.5,0.8-1.6,0.1-2.2
						C65.1,45.3,64.6,45.8,64.9,46.1L64.9,46.1z"/>
				</g>
			</g>
		</g>
		<g>
			<g>
				<g>
					<path class="st0" d="M59.2,47C59.2,47,59.1,47,59.2,47C59.1,47,59.1,47,59.2,47c-0.1,0-0.1,0-0.2,0c-0.1,0-0.2,0-0.3,0
						c-0.2,0.1-0.3,0.2-0.4,0.4c0,0.2,0,0.4,0.1,0.5c0.2,0.2,0.4,0.2,0.6,0c0.3-0.3-0.2-0.8-0.5-0.5c0.1-0.1,0.2-0.1,0.4,0.1
						c0,0,0,0,0,0c0-0.1,0,0.1,0,0c0,0.1,0,0.1,0,0c0,0,0,0.1-0.1,0.1c-0.1,0.1-0.1,0.1-0.1,0.1c0,0,0,0,0,0c0.2,0,0.4,0,0.6-0.1
						c0.2-0.1,0.2-0.3,0.1-0.5C59.6,47,59.4,46.9,59.2,47L59.2,47z"/>
				</g>
			</g>
		</g>
		<g>
			<g>
				<g>
					<path class="st0" d="M58.2,47.3c0-0.4-0.1-0.7-0.4-1.1c-0.1-0.1-0.4-0.1-0.5,0c-0.8,1-0.4,2.5,0.8,2.9c0.1,0.1,0.3,0,0.4-0.2
						c0.2-0.5,0.3-1,0.3-1.5c0-0.4-0.7-0.4-0.7,0c0,0.4-0.1,0.8-0.2,1.2c0.1-0.1,0.2-0.1,0.4-0.2c-0.7-0.3-1-1.2-0.5-1.8
						c-0.2,0-0.3,0-0.5,0c0.2,0.2,0.2,0.4,0.2,0.6C57.5,47.8,58.2,47.8,58.2,47.3L58.2,47.3z"/>
				</g>
			</g>
		</g>
		<g>
			<g>
				<g>
					<path class="st0" d="M61,55.6c-0.3,0.1-0.7,0.3-1.1,0.4c-0.2,0.1-0.3,0.2-0.2,0.4c0.1,0.2,0.2,0.3,0.4,0.2
						c0.3-0.1,0.7-0.3,1.1-0.4c0.2-0.1,0.3-0.2,0.2-0.4C61.4,55.7,61.2,55.5,61,55.6L61,55.6z"/>
				</g>
			</g>
		</g>
		<g>
			<g>
				<g>
					<path class="st0" d="M60.1,55.8c-0.1-0.3-0.3-0.6-0.6-0.8c-0.2-0.1-0.3,0-0.5,0.1c-0.4,0.6-1,2.7,0.2,2.9
						c0.5,0.1,0.8-0.2,1-0.6c0.3-0.6-0.1-1.2,0.1-1.8c0.1-0.4-0.5-0.6-0.6-0.2c-0.1,0.3-0.1,0.6-0.1,0.8c0,0.3,0.2,0.8-0.1,1
						c-0.4,0.4-0.4-0.5-0.3-0.7c0.1-0.4,0.2-0.7,0.4-1c-0.2,0-0.3,0.1-0.5,0.1c0.2,0.1,0.2,0.2,0.3,0.4
						C59.6,56.4,60.2,56.2,60.1,55.8L60.1,55.8z"/>
				</g>
			</g>
		</g>
		<g>
			<g>
				<g>
					<path class="st0" d="M62,52.6c1.5,0.1,2.8-0.4,3.9-1.4c0.3-0.3-0.1-0.7-0.5-0.5c-1,0.8-2.2,1.2-3.4,1.1
						C61.6,51.9,61.6,52.6,62,52.6L62,52.6z"/>
				</g>
			</g>
		</g>
		<g>
			<g>
				<g>
					<path class="st0" d="M62.4,54.2c0.8,0,1.6-0.3,2.3-0.8c0.3-0.2,0-0.8-0.3-0.6c-0.6,0.4-1.2,0.7-2,0.7
						C62,53.6,62,54.3,62.4,54.2L62.4,54.2z"/>
				</g>
			</g>
		</g>
		<g>
			<g>
				<g>
					<path class="st0" d="M68.4,56.8c0.5,4.6,1.3,9.2,2.6,13.6c0.6,1.9,1,3.9,2.3,5.5c1.2,1.5,2.8,2.5,4.4,3.5
						c0.4,0.2,0.7-0.3,0.3-0.6c-1.7-1-3.4-2.1-4.6-3.7c-1.1-1.6-1.6-3.8-2.1-5.8c-1.1-4.1-1.9-8.3-2.3-12.5
						C69,56.4,68.4,56.4,68.4,56.8L68.4,56.8z"/>
				</g>
			</g>
		</g>
		<g>
			<g>
				<g>
					<path class="st0" d="M67.3,57.3c0.5,2.4,0.9,4.8,1.4,7.2c0.4,2.1,0.6,4.3,1.4,6.3c0.6,1.6,1.9,2.8,3.2,3.9
						c1.4,1.2,4.3,2.6,4.6,4.6c0.1,0.4,0.7,0.4,0.7,0c-0.2-1.4-1.1-2.3-2.2-3.1c-1.8-1.4-4.1-2.9-5.2-4.9c-1.1-2-1.3-4.8-1.7-7
						c-0.5-2.4-0.9-4.8-1.4-7.2C67.8,56.7,67.2,56.9,67.3,57.3L67.3,57.3z"/>
				</g>
			</g>
		</g>
		<g>
			<g>
				<g>
					<path class="st0" d="M84.9,57.2c0.7,5.8,2.7,13.3-1.5,18.2c-0.3,0.3,0.2,0.8,0.5,0.5c4.3-5.1,2.4-12.7,1.7-18.7
						C85.5,56.8,84.8,56.8,84.9,57.2L84.9,57.2z"/>
				</g>
			</g>
		</g>
		<g>
			<g>
				<g>
					<path class="st0" d="M86.5,56.6c0.5,4.1,0.9,8.2,1.4,12.4c0.4,3.6,1.2,8.7-2.9,10.5c-0.4,0.2-0.1,0.7,0.3,0.6
						c3.6-1.5,3.8-5.7,3.4-9c-0.5-4.8-1-9.6-1.6-14.4C87.1,56.1,86.5,56.1,86.5,56.6L86.5,56.6z"/>
				</g>
			</g>
		</g>
		<g>
			<g>
				<g>
					<path class="st0" d="M72,64.9c-0.5,1,0.3,2.3,1.5,2c1.5-0.3,1.7-2,1.7-3.3c0-0.4-0.7-0.4-0.7,0c0,0.8,0.1,1.7-0.5,2.3
						c-0.2,0.2-0.6,0.4-1,0.3c-0.4-0.1-0.6-0.7-0.4-1.1C72.7,64.8,72.1,64.5,72,64.9L72,64.9z"/>
				</g>
			</g>
		</g>
		<g>
			<g>
				<g>
					<path class="st0" d="M63.9,64.3C70.2,60.9,76,57,81.4,52.4c0.3-0.3-0.1-0.7-0.5-0.5c-5.4,4.5-11.2,8.5-17.4,11.7
						C63.2,63.9,63.5,64.5,63.9,64.3L63.9,64.3z"/>
				</g>
			</g>
		</g>
		<g>
			<g>
				<g>
					<path class="st0" d="M80.1,50.1c2.6-1,4.8-2.5,6.7-4.5c0.3-0.3-0.2-0.8-0.5-0.5c-1.8,1.9-4,3.4-6.4,4.3
						C79.6,49.7,79.7,50.3,80.1,50.1L80.1,50.1z"/>
				</g>
			</g>
		</g>
		<g>
			<g>
				<g>
					<path class="st0" d="M75.3,78.9c1.3,2,3.5,3.2,5.9,3.3c1.3,0,5-0.6,4.1-2.6c-0.2-0.4-0.7-0.1-0.6,0.3c0.7,1.7-4.2,1.6-4.8,1.5
						c-1.7-0.4-3.1-1.4-4-2.8C75.6,78.3,75,78.6,75.3,78.9L75.3,78.9z"/>
				</g>
			</g>
		</g>
		<g>
			<g>
				<g>
					<path class="st0" d="M76.8,77.3c2.8-1,7.8-1.2,7.9,2.9c0,0.4,0.7,0.4,0.7,0c-0.1-1.7-1.1-3.1-2.6-3.8c-2-0.9-4.2-0.5-6.2,0.2
						C76.2,76.8,76.4,77.4,76.8,77.3L76.8,77.3z"/>
				</g>
			</g>
		</g>
		<g>
			<g>
				<g>
					<path class="st0" d="M75.8,78.5c0-0.2,0-0.4,0-0.6c0-0.2-0.2-0.3-0.3-0.3c-0.2,0-0.3,0.2-0.3,0.3c0,0.2,0,0.4,0,0.6
						c0,0.2,0.2,0.3,0.3,0.3C75.7,78.8,75.8,78.7,75.8,78.5L75.8,78.5z"/>
				</g>
			</g>
		</g>
		<g>
			<g>
				<g>
					<path class="st0" d="M75.1,77.9c-0.3,1.8-1,3.6,0.7,4.9c1.5,1.1,3.5,1.8,5.4,1.8c1.5,0.1,3.5-0.1,4.5-1.4c0.7-1,0.6-2.3-0.5-3
						c-0.4-0.2-0.7,0.3-0.3,0.6c1.9,1.2-0.5,2.8-1.7,3c-1.2,0.2-2.5,0.2-3.6-0.1c-1.1-0.2-2.2-0.6-3.1-1.3c-1.6-1.2-1-2.7-0.8-4.4
						C75.8,77.7,75.2,77.5,75.1,77.9L75.1,77.9z"/>
				</g>
			</g>
		</g>
		<g>
			<g>
				<g>
					<path class="st0" d="M75.5,78.6c-2.9-0.3-4.5,3-5.6,5.1c-2,3.7-4,7.5-5.9,11.4c-3.7,7.4-7.1,15-10.2,22.7
						c-0.1,0.2,0.2,0.3,0.3,0.1c2.9-7.2,6.1-14.3,9.5-21.2c1.6-3.4,3.4-6.7,5.1-10.1c0.8-1.5,1.6-3.1,2.5-4.6c0.9-1.5,2.3-3.2,4.3-3
						C75.7,78.9,75.7,78.6,75.5,78.6L75.5,78.6z"/>
				</g>
			</g>
		</g>
		<g>
			<g>
				<g>
					<path class="st0" d="M79.3,116.9c-0.4-5.4-0.7-10.8-1.1-16.2c-0.2-2.8-0.4-5.6-0.6-8.4c-0.1-1.9-0.4-6.3,2.8-5.6
						c2.8,0.6,3.2,4.1,3.1,6.4c-0.1,2.7-0.6,5.4-1,8.1c-0.4,2.5-0.8,5.1-1.2,7.6c-0.2,1.4-0.5,2.7-0.7,4c-0.1,0.7-0.2,1.4-0.4,2
						c0,0.2-0.6,2.1-0.5,2.1c-0.1-0.2-0.4,0.1-0.2,0.2c0,0,0.1,0.1,0.1,0.1c0.1,0.1,0.1,0.1,0.2,0c0.6-0.3,0.5-1.1,0.6-1.7
						c0.2-1.2,0.5-2.5,0.7-3.8c0.5-2.5,0.9-5,1.3-7.6c0.4-2.5,0.7-4.9,1-7.4c0.3-2,0.6-4.1,0.3-6.2c-0.2-1.6-0.9-3.2-2.4-4
						c-1.1-0.6-2.4-0.6-3.3,0.4c-0.9,1.1-0.9,2.6-0.8,4c0.1,2.7,0.3,5.4,0.5,8c0.4,5.9,0.8,11.9,1.2,17.8
						C79,117.1,79.3,117.1,79.3,116.9L79.3,116.9z"/>
				</g>
			</g>
		</g>
		<g>
			<g>
				<g>
					<path class="st0" d="M54.6,118.6c4.9-7.5,9.8-15,14.5-22.7c1.2-1.9,2.3-3.8,3.5-5.7c0.9-1.5,2.3-3.1,2.6-4.9
						c0.3-2.3-2.1-4.1-4.2-3.5c-0.2,0.1-0.1,0.4,0.1,0.3c2-0.5,4.2,1.4,3.7,3.5c-0.4,1.6-1.7,3.2-2.6,4.6c-1.9,3.2-3.9,6.3-5.8,9.5
						c-3.9,6.3-7.9,12.5-12,18.7C54.2,118.6,54.5,118.8,54.6,118.6L54.6,118.6z"/>
				</g>
			</g>
		</g>
		<g>
			<g>
				<g>
					<path class="st0" d="M87.7,84.4c-0.2-0.7-0.4-1.4-0.4-2.1c0-1.5,1.3-2.7,2.8-1.4c1.3,1.1,1.9,3.2,2.7,4.7
						c1.8,3.7,3.6,7.5,5.4,11.2c3.6,7.4,7.2,14.7,10.8,22.1c0.1,0.2,0.4,0,0.3-0.2c-4.4-9.1-8.9-18.2-13.3-27.3
						c-1.1-2.3-2.2-4.6-3.4-6.9c-0.7-1.4-1.4-3.5-2.9-4.2c-0.8-0.4-1.9-0.2-2.4,0.6c-0.7,1.1-0.3,2.6,0,3.7
						C87.4,84.7,87.8,84.6,87.7,84.4L87.7,84.4z"/>
				</g>
			</g>
		</g>
		<g>
			<g>
				<g>
					<path class="st0" d="M87.7,84.7c5.6,12.2,12.8,23.6,21.5,33.9c0.1,0.2,0.4-0.1,0.2-0.2c-8.6-10.3-15.8-21.6-21.4-33.8
						C87.8,84.3,87.5,84.4,87.7,84.7L87.7,84.7z"/>
				</g>
			</g>
		</g>
		<g>
			<g>
				<g>
					<path class="st0" d="M53.8,117.5c-0.9-0.5-1.9,0.1-2,1.1c0,0.1,0.1,0.3,0.2,0.3c1.9,0.4,3.8,0.3,5.7-0.1
						c0.3-0.1,0.3-0.5,0.1-0.6c-0.8-0.5-1.5-0.7-2.4-0.6c-0.4,0-0.4,0.7,0,0.7c0.8-0.1,1.4,0.1,2.1,0.5c0-0.2,0.1-0.4,0.1-0.6
						c-1.8,0.4-3.6,0.5-5.4,0.1c0.1,0.1,0.2,0.2,0.2,0.3c0.3-0.2,0.7-0.4,1.1-0.6C53.8,118.2,54.2,117.6,53.8,117.5L53.8,117.5z"/>
				</g>
			</g>
		</g>
		<g>
			<g>
				<g>
					<path class="st0" d="M79.6,117.1c-1-0.4-2.8-0.5-3.4,0.7c-0.6,1.2,1.6,1.2,2.2,1.2c1.1,0,2.3-0.1,3.3-0.4
						c0.5-0.1,1.1-0.3,1.4-0.8c0.6-1.5-2.4-1.2-2.9-1.2c-0.4,0-0.4,0.7,0,0.7c0.3,0,0.7-0.1,1,0c0.3-0.1,0.6,0,0.7,0.3
						c0.3,0.2,0.3,0.3,0,0.3c-0.4,0.4-2,0.4-2.4,0.4c-0.6,0-1.3,0.1-1.9,0c-1-0.2-0.4-0.5,0.2-0.7c0.6-0.2,1-0.1,1.5,0.1
						C79.7,117.9,80,117.3,79.6,117.1L79.6,117.1z"/>
				</g>
			</g>
		</g>
		<g>
			<g>
				<g>
					<path class="st0" d="M108.5,117.9c-0.8-0.4-1.6-0.3-2.3,0.3c-0.1,0.2-0.1,0.4,0.1,0.5c1.9,1,4.2,1,6-0.2c0.2-0.1,0.2-0.5,0-0.6
						c-1.1-0.6-2.3-0.8-3.6-0.6c-0.4,0.1-0.2,0.7,0.2,0.6c1.1-0.2,2.1-0.1,3.1,0.5c0-0.2,0-0.4,0-0.6c-1.7,1-3.6,1.1-5.4,0.2
						c0,0.2,0.1,0.3,0.1,0.5c0.4-0.5,0.9-0.6,1.5-0.2C108.6,118.7,108.9,118.1,108.5,117.9L108.5,117.9z"/>
				</g>
			</g>
		</g>
		<g>
			<g>
				<g>
					<path class="st0" d="M71.1,87.5c-0.5-0.6-0.8-1.4-0.6-2.2c0.3-1,1.5-1.5,2.3-0.7c0.6,0.6,0.7,1.5,0.5,2.3
						C73,87.7,71.9,88.2,71.1,87.5c-0.2-0.2-0.7,0.2-0.4,0.5c0.8,0.7,2.1,0.6,2.8-0.3c0.8-1,0.7-2.5-0.1-3.5c-0.8-1-2.1-1-3-0.1
						c-1,1.1-0.6,2.6,0.1,3.7C70.8,88.2,71.4,87.8,71.1,87.5L71.1,87.5z"/>
				</g>
			</g>
		</g>
		<g>
			<g>
				<g>
					<path class="st0" d="M89,84.3c-0.5-0.4-0.6-1.1-0.2-1.6c0.4-0.5,1.2-0.5,1.7-0.1c0.5,0.4,0.7,1.1,0.5,1.7
						c-0.2,0.8-1.3,1.4-1.8,0.5c-0.2-0.4-0.8,0-0.6,0.3c0.6,1.1,2,0.9,2.7,0.1c0.7-0.9,0.6-2.3-0.3-3c-0.8-0.7-2.1-0.6-2.8,0.2
						c-0.6,0.8-0.4,1.9,0.4,2.5C89,85.2,89.4,84.6,89,84.3L89,84.3z"/>
				</g>
			</g>
		</g>
		<g>
			<g>
				<g>
					<path class="st0" d="M82.2,77.9c0.3-0.1,0.7-0.1,1.1-0.2c0.4-0.1,0.2-0.7-0.2-0.6c-0.3,0.1-0.7,0.1-1.1,0.2
						C81.7,77.4,81.8,78,82.2,77.9L82.2,77.9z"/>
				</g>
			</g>
		</g>
		<g>
			<g>
				<g>
					<path class="st0" d="M83.2,76.2c0.3,0.8,0.6,1.6,0.8,2.4c0.1,0.1,0.2,0.2,0.3,0.2c1.6,0.1,3-1.6,2.2-3.2
						c-0.7-1.4-2.7-1.3-3.3,0.1c-0.2,0.4,0.5,0.6,0.6,0.2c0.4-1.1,1.9-0.7,2.2,0.3c0.3,1.1-0.7,1.9-1.7,1.9c0.1,0.1,0.2,0.2,0.3,0.2
						c-0.3-0.8-0.6-1.6-0.8-2.4C83.7,75.6,83.1,75.8,83.2,76.2L83.2,76.2z"/>
				</g>
			</g>
		</g>
		<g>
			<g>
				<g>
					<path class="st0" d="M60.7,46.9c1.4,1.1,3.4,0.8,4.4-0.7c0.2-0.4-0.3-0.7-0.6-0.3c-0.7,1.1-2.3,1.4-3.3,0.6
						C60.8,46.2,60.3,46.7,60.7,46.9L60.7,46.9z"/>
				</g>
			</g>
		</g>
		<g>
			<g>
				<g>
					<path class="st0" d="M54.3,118.2c5.7-10,11.4-20.1,17.1-30.1c0.1-0.2-0.2-0.3-0.3-0.2C65.4,98,59.7,108,54,118.1
						C53.9,118.3,54.2,118.4,54.3,118.2L54.3,118.2z"/>
				</g>
			</g>
		</g>
		<g>
			<g>
				<g>
					<path class="st0" d="M80.1,117.1c-0.8-4.8,0.1-9.7,0.6-14.5c0.2-2.4,0.5-4.7,0.7-7.1c0.2-2,0.6-4-0.1-5.9
						c-0.1-0.2-0.4-0.1-0.3,0.1c0.8,2.2,0.2,4.7,0,6.9c-0.2,2.4-0.5,4.7-0.7,7.1c-0.5,4.5-1.2,9.1-0.5,13.6
						C79.8,117.4,80.1,117.3,80.1,117.1L80.1,117.1z"/>
				</g>
			</g>
		</g>
		<g>
			<g>
				<g>
					<path class="st0" d="M90.8,85.4c5.3,11,11,21.8,17.2,32.4c0.1,0.2,0.4,0,0.3-0.2c-6.2-10.6-11.9-21.4-17.2-32.4
						C91,85,90.8,85.2,90.8,85.4L90.8,85.4z"/>
				</g>
			</g>
		</g>
		<g>
			<g>
				<g>
					<path class="st0" d="M81.3,35c-1.2,1.9-1.9,4.2-1.8,6.4c0,1.2,0.1,4.5,1.8,4.6c1.8,0.1,1.8-3.4,1.9-4.5c0.1-1.4,0.1-2.9,0-4.3
						c-0.1-0.8,0-1.9-0.8-2.4c-0.1-0.1-0.3-0.1-0.4,0.1c-0.1,0-0.1,0.1-0.1,0.1c-0.3,0.3,0.1,0.7,0.5,0.5c-0.3,0.2,0.2,2.5,0.3,3.1
						c0,0.7,0,1.5,0,2.3c-0.1,0.9-0.2,1.8-0.3,2.7c-0.1,0.3-0.1,0.9-0.2,1.1c0,0.3-0.3,0.3-0.7,0c-0.5,0.1-0.8-0.1-0.8-0.5
						c-0.6-1.2-0.4-3.2-0.2-4.5c0.2-1.5,0.8-3,1.6-4.3C82.1,35,81.5,34.7,81.3,35L81.3,35z"/>
				</g>
			</g>
		</g>
		<g>
			<g>
				<g>
					<path class="st0" d="M75.4,46.1c-2,1-3.7,2.5-5,4.3c-0.4,0.5-1,1.3-0.7,1.9c0.2,0.5,0.8,0.5,1.3,0.5c1.8-0.2,3.7-1.8,4.9-3.2
						c0.7-0.9,2.2-3.3,0.2-3.6c-0.4-0.1-0.6,0.6-0.2,0.6c1.5,0.3-0.5,2.6-0.7,2.8c-0.5,0.5-0.9,0.9-1.5,1.3
						c-0.5,0.4-3.2,2.1-3.3,0.8c0-0.4,1-1.4,1.2-1.6c0.4-0.4,0.7-0.8,1.2-1.2c0.9-0.8,1.9-1.5,3-2.1C76.1,46.4,75.7,45.9,75.4,46.1
						L75.4,46.1z"/>
				</g>
			</g>
		</g>
		<g>
			<g>
				<g>
					<path class="st0" d="M75.5,86.6c-0.1-0.1-0.2-0.1-0.2-0.2c-0.1,0.2-0.3,0.3-0.4,0.5c0.7,0.5,1.4,0.8,2.3,0.9
						c0.4,0.1,0.6-0.6,0.2-0.6c-0.8-0.1-1.5-0.4-2.1-0.8c-0.3-0.2-0.7,0.3-0.4,0.5c0.1,0.1,0.2,0.1,0.2,0.2
						C75.4,87.3,75.8,86.9,75.5,86.6L75.5,86.6z"/>
				</g>
			</g>
		</g>
		<g>
			<g>
				<g>
					<path class="st0" d="M83.1,88.9c2-0.3,3.8-1,5.5-2.1c0.3-0.2,0-0.8-0.3-0.6c-1.6,1.1-3.4,1.8-5.3,2
						C82.5,88.3,82.7,88.9,83.1,88.9L83.1,88.9z"/>
				</g>
			</g>
		</g>
		<g>
			<g>
				<g>
					<path class="st0" d="M86.8,79.7c0.8-0.3,1.6-0.1,2.2,0.6c0.3,0.3,0.7-0.2,0.5-0.5c-0.7-0.8-1.9-1.1-2.9-0.7
						C86.2,79.2,86.4,79.8,86.8,79.7L86.8,79.7z"/>
				</g>
			</g>
		</g>
		<g>
			<g>
				<g>
					<path class="st0" d="M74.6,84.5c3.5,3.6,8.6,2.3,12.8,0.7c0.4-0.2,0.2-0.8-0.2-0.6c-3.9,1.4-8.8,2.8-12.1-0.6
						C74.8,83.7,74.3,84.1,74.6,84.5L74.6,84.5z"/>
				</g>
			</g>
		</g>
		<g>
			<g>
				<g>
					<path class="st0" d="M73.5,81.9c-0.7-0.3-1.1-1-0.9-1.8c0.1-0.4-0.6-0.6-0.6-0.2c-0.2,1,0.3,2,1.2,2.5
						C73.6,82.7,73.9,82.1,73.5,81.9L73.5,81.9z"/>
				</g>
			</g>
		</g>
		<g>
			<g>
				<g>
					<path class="st0" d="M89.9,84.3c-0.5-0.2-0.3-1,0.2-0.9c0.6,0.1,0.5,0.9,0,1c-0.4,0-0.4,0.7,0,0.7c0.6,0,1.1-0.5,1.1-1.1
						c0.1-0.6-0.4-1.1-1-1.2c-0.6-0.1-1.1,0.2-1.3,0.7c-0.2,0.5,0.1,1.1,0.6,1.4C89.9,85.1,90.3,84.5,89.9,84.3L89.9,84.3z"/>
				</g>
			</g>
		</g>
		<g>
			<g>
				<g>
					<path class="st0" d="M81.1,90.5c-0.9,0.7-2.5,0.4-2.5-0.9c0-0.5,0.3-1,0.8-1.1c0.5-0.1,1,0.1,1.2,0.6c0.2,0.4,0.8,0.2,0.6-0.2
						c-0.6-1.6-3.1-1.3-3.3,0.4c-0.1,0.8,0.3,1.7,1.1,2c0.9,0.4,1.9,0.2,2.6-0.4C81.9,90.7,81.4,90.2,81.1,90.5L81.1,90.5z"/>
				</g>
			</g>
		</g>
		<g>
			<g>
				<g>
					<path class="st0" d="M94.7,27.8c-3.4-0.7-8.6,8.4-5.3,9.2c1,0.2,2.2-0.7,2.9-1.3c1.1-0.9,2-2.2,2.7-3.4
						c0.5-0.9,1.5-2.3,1.3-3.4c-0.1-0.8-0.7-1.4-1.6-1.3c-0.2,0-0.2,0.3,0,0.3c1,0.5,1.4,1.2,1.1,1.9c-0.1,0.3-0.2,0.6-0.4,0.9
						c-0.1,0.3-0.3,0.6-0.5,0.9c-0.3,0.6-0.7,1.3-1.1,1.9c-0.8,1.2-2.7,3.4-4.3,3c-0.7-0.2-0.8-0.5-0.8-1.2c0-0.4,0.1-0.7,0.2-1.1
						c0.2-0.8,0.6-1.7,1.1-2.4c0.8-1.5,2.6-4.1,4.6-3.6C94.8,28.1,94.9,27.8,94.7,27.8L94.7,27.8z"/>
				</g>
			</g>
		</g>
		<g>
			<g>
				<g>
					<path class="st0" d="M97,26.5c-0.5,0.3-0.6,0.9-0.4,1.5c0.2,0.6,0.8,0.7,1.4,0.5c0.5-0.2,0.8-0.8,0.6-1.4
						c-0.2-0.6-0.9-0.9-1.5-0.7c-0.2,0.1-0.1,0.4,0.1,0.3c0.4-0.2,0.9,0.1,1.1,0.5c0.2,0.4-0.1,0.8-0.5,1c-0.9,0.3-1.4-0.9-0.6-1.4
						C97.4,26.7,97.2,26.4,97,26.5L97,26.5z"/>
				</g>
			</g>
		</g>
		<g>
			<g>
				<g>
					<path class="st0" d="M63.1,55.7c-1.3,1.9-1.3,4.4-0.1,6.3c1.2,2.1,3.5,3.2,5.8,3.5c0.2,0,0.3-0.3,0.1-0.3
						c-2.1-0.3-4-1.2-5.3-2.9c-1.4-1.9-1.5-4.5-0.2-6.4C63.5,55.7,63.2,55.6,63.1,55.7L63.1,55.7z"/>
				</g>
			</g>
		</g>
		<g>
			<g>
				<g>
					<path class="st0" d="M78.6,79.1c-0.2-0.2-0.3-0.3-0.5-0.5c0,0.1,0,0.3,0.1,0.4c0.7-1.5,2.6-1.4,3.8-0.6c1,0.6,0.1,1.4-0.7,1.8
						c-0.9,0.4-2.3,0.4-2.5-0.9c-0.1-0.4-0.7-0.4-0.7,0c0.1,1.1,1,1.8,2.1,1.8c1,0,3-0.8,3.1-2c0-1.1-1.8-1.8-2.7-2
						c-1.2-0.2-2.5,0.3-3.1,1.5c-0.1,0.1-0.1,0.3,0.1,0.4c0.2,0.2,0.3,0.3,0.5,0.5C78.4,79.8,78.8,79.4,78.6,79.1L78.6,79.1z"/>
				</g>
			</g>
		</g>
		<g>
			<g>
				<g>
					<path class="st0" d="M78.4,79.8c1.7,0.3,3.3-0.2,4.6-1.3c0.3-0.3-0.1-0.7-0.5-0.5c-1.1,1-2.5,1.4-4,1.1
						C78.2,79.1,78,79.7,78.4,79.8L78.4,79.8z"/>
				</g>
			</g>
		</g>
		<g>
			<g>
				<g>
					<path class="st0" d="M80,116.3c1-5,2-9.9,3.1-14.9c0.8-4.1,2.5-8.9,1.3-13.1c-0.1-0.2-0.4-0.1-0.3,0.1c0.7,2.4,0.3,4.9-0.1,7.4
						c-0.5,2.2-0.9,4.4-1.4,6.6c-1,4.6-1.9,9.2-2.8,13.8C79.6,116.4,79.9,116.5,80,116.3L80,116.3z"/>
				</g>
			</g>
		</g>
		<g>
			<g>
				<g>
					<path class="st0" d="M55.4,117.8c6.8-10.1,13.4-20.2,19.9-30.5c0.1-0.2-0.2-0.3-0.3-0.2c-6.5,10.3-13.1,20.4-19.9,30.5
						C55,117.8,55.3,118,55.4,117.8L55.4,117.8z"/>
				</g>
			</g>
		</g>
		<g>
			<g>
				<g>
					<path class="st0" d="M60.3,43.8c0.7-0.6,2.8-2.1,3.3-0.4c0.1,0.4,0.8,0.2,0.6-0.2c-0.3-0.8-1-1.2-1.8-1.2c-1,0-1.9,0.7-2.6,1.4
						C59.5,43.6,60,44,60.3,43.8L60.3,43.8z"/>
				</g>
			</g>
		</g>
		<g>
			<g>
				<g>
					<path class="st0" d="M81.7,110.1c0.5,0.2,0.7,0.1,1.2,0.1c1.3-0.1,2.5,0.1,3.7,0.5c1.1,0.4,0.7,0.3,1.8,0
						c1.1-0.4,2.3-0.3,3.3,0.1c0.2,0.1,0.3-0.2,0.1-0.3c-0.7-0.3-1.4-0.4-2.2-0.4c-0.7,0.1-1.4,0.4-2.1,0.4c-0.9,0-1.8-0.5-2.7-0.7
						c-0.7-0.1-2.3,0.2-2.9-0.1C81.7,109.7,81.5,110,81.7,110.1L81.7,110.1z"/>
				</g>
			</g>
		</g>
		<g>
			<g>
				<g>
					<path class="st0" d="M94.4,110.3c2.1-0.3,4.2-0.5,6.3-0.5c0.2,0,0.2-0.3,0-0.3c-2.1-0.1-4.3,0.1-6.4,0.5
						C94.1,110,94.2,110.3,94.4,110.3L94.4,110.3z"/>
				</g>
			</g>
		</g>
		<g>
			<g>
				<g>
					<path class="st0" d="M105.1,109.1c1.9-0.7,4-0.1,5.9-0.1c1.9,0,3.7-0.3,5.5-0.8c0.2-0.1,0.1-0.4-0.1-0.3
						c-2.1,0.6-4.2,0.9-6.4,0.8c-1.7-0.1-3.4-0.5-5,0.1C104.8,108.8,104.9,109.2,105.1,109.1L105.1,109.1z"/>
				</g>
			</g>
		</g>
		<g>
			<g>
				<g>
					<path class="st0" d="M21.1,115.3c3.7-0.7,7.3-1.1,11.1-1.2c0.2,0,0.2-0.3,0-0.3c-3.7,0.1-7.5,0.5-11.1,1.2
						C20.8,115,20.9,115.3,21.1,115.3L21.1,115.3z"/>
				</g>
			</g>
		</g>
		<g>
			<g>
				<g>
					<path class="st0" d="M36.2,114.3c2.1,0.2,4-0.2,6-0.9c0.2-0.1,0.1-0.4-0.1-0.3c-1.9,0.8-3.8,1.1-5.9,0.9
						C36,113.9,36,114.3,36.2,114.3L36.2,114.3z"/>
				</g>
			</g>
		</g>
		<g>
			<g>
				<g>
					<path class="st0" d="M29.9,122.1c0.3-0.1,0.7-0.2,1.1-0.2c0.1,0,0.2,0,0.3,0c0.2-0.1,0.2,0,0.2,0.2c0.1,0.2-0.1,0.3-0.3,0.4
						c-0.3,0.2-1.1,0.4-1.2-0.1c-0.1-0.2-0.4-0.1-0.3,0.1c0.2,0.8,1.5,0.5,1.9,0.1c0.3-0.2,0.5-0.7,0.1-0.9
						c-0.2-0.1-0.6-0.1-0.8-0.1c-0.3,0-0.7,0.1-1,0.2C29.6,121.8,29.7,122.2,29.9,122.1L29.9,122.1z"/>
				</g>
			</g>
		</g>
		<g>
			<g>
				<g>
					<path class="st0" d="M63.4,122.9c1-0.3,2.1-0.6,3.2-0.8c1.1-0.2,2.9-0.5,4,0.1c0.8,0.4,1.5,1.5,0.3,1.8c-0.5,0.2-1,0.2-1.5,0.3
						c-1.3,0.3-2.6,0.5-3.9,0.6c-1.1,0.1-2.2,0.2-3.3,0.2c-0.6,0-1.2,0-1.8,0c-0.3,0-1.2,0.1-1.5-0.1c-1.9-1,0.4-1.4,0.8-1.5
						c0.7-0.2,1.4-0.3,2.1-0.3c1.1-0.1,2.3-0.1,3.4,0.1c0.2,0,0.2-0.3,0-0.3c-1.9-0.2-3.8-0.1-5.7,0.3c-0.6,0.1-2.4,0.4-2.1,1.4
						c0.2,0.9,1.7,0.8,2.4,0.8c2.1,0.1,4.2,0,6.3-0.3c0.9-0.1,7.3-0.6,5.9-2.5c-0.6-0.9-2.3-1-3.3-1c-1.9-0.1-3.7,0.5-5.5,1
						C63.1,122.7,63.3,123,63.4,122.9L63.4,122.9z"/>
				</g>
			</g>
		</g>
		<g>
			<g>
				<g>
					<path class="st0" d="M52.6,124.9c-0.6-0.2-1.8-0.2-2.2,0.4c-0.5,0.7,0.9,0.8,1.2,0.9c0.6,0.1,1.5,0.2,1.6-0.6
						c0.1-0.5-0.6-0.8-1-0.5c-0.2,0.1,0.1,0.4,0.2,0.2c0,0.2,0,0.4,0,0.6c-0.1,0-0.2,0-0.3,0c-0.2,0-0.4-0.1-0.6-0.1
						c-0.2,0-0.7-0.1-0.8-0.2c0-0.1,0.1-0.2,0.1-0.4c0.1,0,0.2-0.1,0.3-0.1c0.1,0,0.2-0.1,0.3-0.1c0.4-0.1,0.7,0,1.1,0.1
						C52.7,125.3,52.8,124.9,52.6,124.9L52.6,124.9z"/>
				</g>
			</g>
		</g>
		<g>
			<g>
				<g>
					<path class="st0" d="M69.1,128.5c-0.3,0.2-0.7,0.4-1,0.6c-0.1,0.1-0.1,0.2,0,0.3c0.7,0.7,1.9,0.6,2.4-0.3
						c0.1-0.1,0-0.2-0.1-0.2c-0.3-0.2-0.7-0.3-1.1-0.2c-0.2,0.1-0.1,0.4,0.1,0.3c0.3-0.1,0.6,0,0.8,0.1c0-0.1,0-0.2-0.1-0.2
						c-0.4,0.6-1.4,0.7-1.9,0.2c0,0.1,0,0.2,0,0.3c0.3-0.2,0.7-0.4,1-0.6C69.5,128.7,69.3,128.4,69.1,128.5L69.1,128.5z"/>
				</g>
			</g>
		</g>
		<g>
			<g>
				<g>
					<path class="st0" d="M85.3,129.9c-0.3,0.1-0.7,0.1-1,0.2c-0.1,0-0.2,0.2-0.1,0.3c0.5,0.6,1.6,0.5,1.9-0.3c0-0.1,0-0.2-0.1-0.2
						c-0.2-0.1-0.3-0.1-0.5-0.2c-0.2-0.1-0.4,0.2-0.2,0.3c0.2,0.1,0.3,0.1,0.5,0.2c0-0.1,0-0.2-0.1-0.2c-0.2,0.5-1,0.6-1.4,0.2
						c0,0.1-0.1,0.2-0.1,0.3c0.3-0.1,0.7-0.1,1-0.2C85.6,130.2,85.5,129.8,85.3,129.9L85.3,129.9z"/>
				</g>
			</g>
		</g>
		<g>
			<g>
				<g>
					<path class="st0" d="M96.6,117.8c-1-0.3-2.1,0-2.8,0.8c-0.6,0.7-0.6,1.5,0.4,1.6c0.8,0.2,1.7,0.1,2.4-0.1
						c0.5-0.1,1.3-0.1,1.7-0.5c0.8-0.9-1.5-1.6-2-1.8c-0.2-0.1-0.4,0.2-0.2,0.3c0.5,0.2,2.2,0.7,1.5,1.5c-0.2,0.2-0.8,0.2-1.1,0.2
						c-0.4,0.1-0.8,0.1-1.2,0.1c-0.2,0-0.7,0.1-0.9,0c-1.1-0.6-0.3-1.2,0.1-1.6c0.6-0.4,1.3-0.5,2-0.3
						C96.8,118.2,96.8,117.8,96.6,117.8L96.6,117.8z"/>
				</g>
			</g>
		</g>
		<g>
			<g>
				<g>
					<path class="st0" d="M93.7,119.7c-3.3,0.2-6.4,1.1-9.3,2.6c-0.2,0.1,0,0.4,0.2,0.3c2.9-1.4,6-2.3,9.2-2.5
						C93.9,120.1,93.9,119.7,93.7,119.7L93.7,119.7z"/>
				</g>
			</g>
		</g>
		<g>
			<g>
				<g>
					<path class="st0" d="M98.2,119.6c0.6,0.1,1.1,0.2,1.7,0.3c0.2,0.1,0.3-0.3,0.1-0.3c-0.6-0.1-1.1-0.2-1.7-0.3
						C98.1,119.2,98,119.5,98.2,119.6L98.2,119.6z"/>
				</g>
			</g>
		</g>
		<g>
			<g>
				<g>
					<path class="st0" d="M57.8,125.3c-0.6,0.1-1.1,0.3-1.6,0.4c-0.2,0.1-0.1,0.4,0.1,0.3c0.6-0.1,1.1-0.3,1.6-0.4
						C58.1,125.6,58,125.3,57.8,125.3L57.8,125.3z"/>
				</g>
			</g>
		</g>
		<g>
			<g>
				<g>
					<path class="st0" d="M72.5,125.8c3.3,0.3,6.5,0.8,9.6,1.6c0.2,0.1,0.3-0.3,0.1-0.3c-3.2-0.8-6.4-1.3-9.7-1.6
						C72.3,125.4,72.3,125.8,72.5,125.8L72.5,125.8z"/>
				</g>
			</g>
		</g>
		<g>
			<g>
				<g>
					<path class="st0" d="M111.8,118.9c1.4-0.1,2.9-0.1,4.3-0.2c0.2,0,0.2-0.3,0-0.3c-1.4,0.1-2.9,0.1-4.3,0.2
						C111.6,118.5,111.6,118.9,111.8,118.9L111.8,118.9z"/>
				</g>
			</g>
		</g>
		<g>
			<g>
				<g>
					<path class="st0" d="M72.9,118.9c1.4,0.3,2.8,0.2,4.2-0.3c0.2-0.1,0.1-0.4-0.1-0.3c-1.3,0.5-2.7,0.6-4,0.3
						C72.7,118.6,72.6,118.9,72.9,118.9L72.9,118.9z"/>
				</g>
			</g>
		</g>
		<g>
			<g>
				<g>
					<path class="st0" d="M82.9,118.2c0.1,0.2,0.5,0.2,0.7,0.1c0.6,0,1.2-0.1,1.8-0.3c0.2-0.1,0.1-0.4-0.1-0.3
						c-0.5,0.1-0.9,0.2-1.4,0.2c-0.1,0-0.7,0.1-0.7,0.1C83,117.8,82.7,118,82.9,118.2L82.9,118.2z"/>
				</g>
			</g>
		</g>
		<g>
			<g>
				<g>
					<path class="st0" d="M48.8,119.5c1.3-0.1,2.6-0.3,3.9-0.4c0.2,0,0.2-0.3,0-0.3c-1.3,0.1-2.6,0.3-3.9,0.4
						C48.6,119.2,48.6,119.5,48.8,119.5L48.8,119.5z"/>
				</g>
			</g>
		</g>
		<g>
			<g>
				<g>
					<path class="st0" d="M120,112.3c-0.7-0.3-1.6-0.2-2.1,0.4c-0.1,0.1-0.1,0.2,0,0.2c0.7,0.7,1.9,0.7,2.7,0c0.1-0.1,0.1-0.1,0-0.2
						c-0.1-0.3-0.4-0.4-0.7-0.3c-0.2,0-0.1,0.4,0.1,0.3c0.1,0.1,0.2,0.1,0.3,0.2c0-0.1,0-0.1,0-0.2c-0.6,0.6-1.6,0.6-2.2,0
						c0,0.1,0,0.2,0,0.2c0.5-0.5,1.1-0.6,1.7-0.3C120,112.7,120.2,112.4,120,112.3L120,112.3z"/>
				</g>
			</g>
		</g>
		<g>
			<path class="st0" d="M44.3,42.3c-2.6,0-4.6-2.1-4.6-4.6c0-2.6,2.1-4.6,4.6-4.6c2.6,0,4.6,2.1,4.6,4.6
				C48.9,40.2,46.8,42.3,44.3,42.3z M44.3,33.4c-2.3,0-4.2,1.9-4.2,4.2c0,2.3,1.9,4.2,4.2,4.2c2.3,0,4.2-1.9,4.2-4.2
				C48.5,35.3,46.6,33.4,44.3,33.4z M44.3,39.9c-1,0-1.5-0.8-1.5-1.5c0-0.8,0.5-1.5,1.5-1.5c1,0,1.5,0.8,1.5,1.5
				c0,0.4-0.1,0.8-0.4,1C45.1,39.8,44.7,39.9,44.3,39.9z M44.3,37.3c-0.7,0-1.1,0.6-1.1,1.1c0,0.5,0.3,1.1,1.1,1.1s1.1-0.6,1.1-1.1
				C45.4,37.9,45,37.3,44.3,37.3z"/>
		</g>
		<g>
			<path class="st0" d="M111.8,71.4c-5,0-9-4-9-9c0-5,4-9,9-9c5,0,9,4,9,9C120.8,67.4,116.8,71.4,111.8,71.4z M111.8,53.8
				c-4.7,0-8.6,3.9-8.6,8.6c0,4.7,3.9,8.6,8.6,8.6c4.7,0,8.6-3.9,8.6-8.6C120.4,57.7,116.6,53.8,111.8,53.8z M111.4,66.1
				c-1,0-1.5-0.8-1.5-1.5c0-0.4,0.1-0.8,0.4-1c0.3-0.3,0.7-0.5,1.1-0.5c1,0,1.5,0.8,1.5,1.5c0,0.4-0.1,0.8-0.4,1
				C112.3,65.9,111.9,66.1,111.4,66.1z M111.4,63.4c-0.7,0-1.1,0.6-1.1,1.1c0,0.5,0.3,1.1,1.1,1.1c0.8,0,1.1-0.6,1.1-1.1
				C112.5,64,112.2,63.4,111.4,63.4z M114.7,63.8c-1,0-1.5-0.8-1.5-1.5c0-0.4,0.1-0.8,0.4-1c0.3-0.3,0.7-0.5,1.1-0.5
				c1,0,1.5,0.8,1.5,1.5C116.2,63,115.7,63.8,114.7,63.8z M114.7,61.2c-0.7,0-1.1,0.6-1.1,1.1c0,0.5,0.3,1.1,1.1,1.1
				c0.8,0,1.1-0.6,1.1-1.1C115.8,61.7,115.5,61.2,114.7,61.2z M110.2,60.9c-0.5,0-0.9-0.2-1.2-0.5c-0.3-0.3-0.5-0.7-0.5-1.1
				c0-0.4,0.2-0.9,0.5-1.2c0.4-0.3,0.7-0.4,1.2-0.5c0.4,0,0.8,0.1,1.1,0.5c0.3,0.2,0.4,0.6,0.5,1.1l0,0.2c0,0.4-0.2,0.8-0.5,1.1
				C111,60.7,110.6,60.9,110.2,60.9z M110.3,58.1C110.2,58.1,110.2,58.1,110.3,58.1c-0.4,0-0.7,0.1-1,0.4c-0.2,0.2-0.4,0.5-0.4,0.9
				c0,0.3,0.1,0.6,0.4,0.9c0.2,0.2,0.5,0.3,0.9,0.4c0.3,0,0.6-0.1,0.8-0.3c0.2-0.2,0.4-0.5,0.3-0.8l0-0.2c0-0.3-0.1-0.6-0.3-0.8
				C110.8,58.2,110.5,58.1,110.3,58.1z"/>
		</g>
		<g>
			<path class="st0" d="M67.4,33.4c-6.2,0-11.3-5.1-11.3-11.3c0-6.2,5.1-11.3,11.3-11.3c6.2,0,11.3,5.1,11.3,11.3
				C78.7,28.3,73.7,33.4,67.4,33.4z M67.4,11.2c-6,0-10.9,4.9-10.9,10.9c0,6,4.9,10.9,10.9,10.9s10.9-4.9,10.9-10.9
				C78.3,16.1,73.4,11.2,67.4,11.2z M60.7,23.9c-0.3,0-0.8-0.2-1-0.5c-0.3-0.3-0.4-0.7-0.4-1.1c0-0.5,0.2-0.9,0.5-1.2
				c0.3-0.3,0.7-0.5,1.1-0.5c0.4,0,0.9,0.2,1.2,0.5c0.3,0.4,0.4,0.7,0.5,1.2c0,0.4-0.2,0.7-0.4,1.1c-0.2,0.3-0.6,0.4-1.1,0.5
				L60.7,23.9C60.7,23.9,60.7,23.9,60.7,23.9z M60.9,21.1c-0.3,0-0.6,0.1-0.9,0.4c-0.2,0.2-0.3,0.5-0.4,0.9c0,0.3,0.1,0.6,0.3,0.8
				c0.2,0.2,0.5,0.4,0.8,0.3l0.2,0c0.3,0,0.6-0.1,0.8-0.3c0.2-0.2,0.3-0.5,0.3-0.8c0-0.4-0.1-0.6-0.4-0.9
				C61.5,21.2,61.2,21.1,60.9,21.1z M72.5,18.7c-0.4,0-0.8-0.2-1.1-0.5C71.1,18,71,17.6,71,17.2c0-0.4,0.2-0.8,0.5-1.1
				c0,0,0.1-0.1,0.1-0.1c0,0,0,0,0,0c0,0,0-0.1,0.1-0.1c0.2-0.3,0.6-0.4,1.1-0.5c0.4,0,0.8,0.2,1.1,0.5c0.3,0.3,0.4,0.7,0.4,1.1
				c0,0.4-0.1,0.7-0.2,0.9c-0.1,0.2-0.4,0.4-0.6,0.6C73.1,18.6,72.8,18.7,72.5,18.7z M72.8,15.8C72.7,15.8,72.7,15.8,72.8,15.8
				c-0.4,0-0.7,0.1-0.8,0.3c0,0,0,0,0,0c0,0,0,0.1-0.1,0.1l-0.1,0c0,0-0.1,0.1-0.1,0.1c-0.2,0.2-0.4,0.5-0.3,0.8
				c0,0.4,0.1,0.6,0.3,0.8c0.2,0.2,0.5,0.3,0.8,0.3c0.2,0,0.5-0.1,0.7-0.2c0.2-0.1,0.3-0.3,0.5-0.5l0,0c0.1-0.2,0.2-0.4,0.2-0.7
				c0-0.3-0.1-0.6-0.3-0.8C73.3,16,73,15.8,72.8,15.8z"/>
		</g>
		<g>
			<g>
				<g>
					<path class="st0" d="M45.1,40.2c0.5,1,1.4,0,1.6-0.7c-0.1,0-0.1,0.1-0.2,0.1c0.4,0.1,0.7,0.3,1.1,0.4c0.2,0.1,0.3-0.2,0.1-0.3
						c-0.4-0.1-0.7-0.3-1.1-0.4c-0.1,0-0.2,0-0.2,0.1c-0.1,0.4-0.6,1.4-1,0.7C45.3,39.8,45,40,45.1,40.2L45.1,40.2z"/>
				</g>
			</g>
		</g>
		<g>
			<g>
				<g>
					<path class="st0" d="M41,40.7c0.8,0.5,1.6-0.4,2.1-1.1c0.1-0.2-0.2-0.3-0.3-0.2c-0.3,0.5-1,1.4-1.6,1
						C41,40.3,40.8,40.6,41,40.7L41,40.7z"/>
				</g>
			</g>
		</g>
		<g>
			<g>
				<g>
					<path class="st0" d="M45.8,37.2c0.7-0.2,1.5-0.5,2.2-0.7c0.2-0.1,0.1-0.4-0.1-0.3c-0.7,0.2-1.5,0.5-2.2,0.7
						C45.5,37,45.6,37.3,45.8,37.2L45.8,37.2z"/>
				</g>
			</g>
		</g>
		<g>
			<g>
				<g>
					<path class="st0" d="M40.1,38.6c1.2,0.2,1.9-0.8,2.8-1.5c0.2-0.1,0-0.4-0.2-0.3c-0.7,0.6-1.5,1.6-2.5,1.4
						C40,38.2,39.9,38.6,40.1,38.6L40.1,38.6z"/>
				</g>
			</g>
		</g>
		<g>
			<g>
				<g>
					<path class="st0" d="M40.3,37.3c0.7-0.3,1.4-0.7,2.1-1.1c0.3-0.2,1.1-0.5,1.2-0.9c0.1-1-2.3-0.5-2.7-0.4
						c-0.2,0.1-0.1,0.4,0.1,0.3c0.5-0.1,1-0.2,1.5-0.2c0.2,0,0.7-0.1,0.6,0.3c0,0.1-0.5,0.3-0.6,0.3c-0.8,0.5-1.6,0.9-2.4,1.3
						C40,37.1,40.1,37.3,40.3,37.3L40.3,37.3z"/>
				</g>
			</g>
		</g>
		<g>
			<g>
				<g>
					<path class="st0" d="M62.3,23.8c0.8,2.4,2,5.1,4.6,6.1c0.9,0.3,2.5,0.6,3-0.6c0.5-1.1-0.2-1.9-0.9-2.6
						c-0.9-0.8-2.7-1.9-2.9-3.2c-0.1-0.6,0.3-1.1,0.8-1.4c0.7-0.3,1.3-0.1,1.9,0.2c0.5,0.2,1.1,0.5,1.7,0.3c0.9-0.3,0.7-1.3,0.4-2
						c-0.5-1.1-1.6-1.8-2.7-2.2c-0.7-0.3-1.5-0.6-2.3-0.6c-0.8,0-1.2,0-1.9-0.6c-0.2-0.2-0.5-0.4-0.7-0.6c-0.6-0.5-1-0.6-1.4-1.3
						c-0.3-0.7,0-0.8,0-1.5c0-0.6-0.3-0.8-0.8-1.1c-0.2-0.1-0.3,0.2-0.2,0.3c1.2,0.8-0.1,1.7,0.4,2.6c0.3,0.5,1.1,0.8,1.6,1.2
						c0.6,0.5,1,1.2,1.8,1.4c0.4,0.1,0.8-0.1,1.2-0.1c0.6,0,1,0.2,1.5,0.3c0.9,0.3,1.8,0.7,2.5,1.4c0.3,0.3,0.9,1,0.9,1.5
						c0,1.4-0.9,1-1.6,0.8c-1.2-0.4-2.3-1-3.2,0.3c-1.4,1.8,2,3.7,3,4.7c1.2,1.2,0.5,2.9-1.4,2.5c-0.9-0.2-1.8-0.7-2.5-1.3
						c-1.3-1.2-2-3-2.6-4.7C62.6,23.5,62.3,23.6,62.3,23.8L62.3,23.8z"/>
				</g>
			</g>
		</g>
		<g>
			<g>
				<g>
					<path class="st0" d="M57.2,26.2c0.7,0.5,1.8,0.6,2.5,0c0.6-0.5,0.5-1.4,0.3-2.1c-0.1-0.2-0.4-0.1-0.3,0.1
						c0.1,0.6,0.3,1.3-0.2,1.8c-0.6,0.5-1.5,0.3-2.2-0.1C57.2,25.8,57,26.1,57.2,26.2L57.2,26.2z"/>
				</g>
			</g>
		</g>
		<g>
			<g>
				<g>
					<path class="st0" d="M74,18.6c1.3,1.4,0.7,3.2,1.6,4.6c0.5,0.8,1.3,1.4,2.2,0.8c0.2-0.1,0-0.4-0.2-0.3
						c-1.6,1.1-2.1-1.8-2.3-2.8c-0.2-1-0.4-1.9-1.1-2.6C74.1,18.2,73.9,18.4,74,18.6L74,18.6z"/>
				</g>
			</g>
		</g>
		<g>
			<g>
				<g>
					<path class="st0" d="M69.4,11.4c-1.2,0.3-3.4,1.5-3,3.1s3,1.9,4.3,2.3c0.2,0.1,0.3-0.3,0.1-0.3c-1.2-0.4-2.8-0.6-3.7-1.5
						c-1.5-1.5,1.1-2.9,2.3-3.3C69.6,11.7,69.5,11.3,69.4,11.4L69.4,11.4z"/>
				</g>
			</g>
		</g>
		<g>
			<g>
				<g>
					<path class="st0" d="M71.7,32c-0.2-1.9,0.4-4.2,2.7-4c0.4,0,0.9,0.2,1.3,0c0.2-0.1,1-0.8,1.1-0.7c0.1,0.2,0.4,0,0.3-0.2
						c-0.2-0.3-0.5-0.3-0.8-0.2c-0.1,0-0.1,0.2-0.2,0.2c-0.6,0.4-0.9,0.5-1.6,0.5c-0.3,0-0.7-0.1-1,0.1c-1.9,0.5-2.3,2.6-2.1,4.3
						C71.3,32.2,71.7,32.2,71.7,32L71.7,32z"/>
				</g>
			</g>
		</g>
		<g>
			<g>
				<g>
					<path class="st0" d="M115.8,63.8c-0.5,1.2-1.4,2.3-2.7,2.8c-1.1,0.5-2.8,0.5-3.6-0.6c-1.5-2.3,1.3-5.1,3.6-4.6
						c0.2,0.1,0.3-0.3,0.1-0.3c-2.6-0.6-5.6,2.5-4,5.1c0.7,1.1,2.2,1.3,3.4,1c1.6-0.4,2.8-1.7,3.5-3.3
						C116.2,63.7,115.8,63.6,115.8,63.8L115.8,63.8z"/>
				</g>
			</g>
		</g>
		<g>
			<g>
				<g>
					<path class="st0" d="M111.9,58.7c1.6-0.2,3.2,0.4,3.9,2c0.1,0.2,0.4,0.1,0.3-0.1c-0.7-1.7-2.4-2.5-4.2-2.3
						C111.7,58.4,111.7,58.8,111.9,58.7L111.9,58.7z"/>
				</g>
			</g>
		</g>
		<g>
			<g>
				<g>
					<path class="st0" d="M104.8,67.4c-1.3-3.8,0.3-8.2,3.8-10.2c3.7-2.1,9.3-1,9.6,4c0.2,4-2.8,8.3-7.1,7.7
						c-4.4-0.5-5.2-5.2-2.6-8.2c0.1-0.2-0.1-0.4-0.2-0.2c-1.7,2-2.4,5.3-0.4,7.3c2.5,2.5,6.7,1.6,8.8-0.9c1.9-2.3,2.7-6.3,0.8-8.9
						c-2.1-2.9-6.4-2.7-9.2-1c-3.6,2.1-5.1,6.6-3.8,10.4C104.5,67.6,104.9,67.6,104.8,67.4L104.8,67.4z"/>
				</g>
			</g>
		</g>
		<g>
			<g>
				<g>
					<path class="st0" d="M80.6,89.3c0,0.2-0.9,0.5-1.1,0.5c-0.4,0-0.7-0.1-0.9-0.4c-0.3-0.3-0.7,0.2-0.5,0.5
						c0.5,0.5,1.1,0.6,1.8,0.5c0.5-0.1,1.4-0.5,1.4-1.1C81.3,88.8,80.6,88.8,80.6,89.3L80.6,89.3z"/>
				</g>
			</g>
		</g>
		<g>
			<g>
				<g>
					<path class="st0" d="M70,86c0.6,1.5,2.5,2,3.6,0.7c0.3-0.3-0.2-0.8-0.5-0.5c-0.7,0.9-2.1,0.7-2.5-0.4
						C70.5,85.4,69.9,85.6,70,86L70,86z"/>
				</g>
			</g>
		</g>
		<g>
			<g>
				<g>
					<path class="st0" d="M83.1,78.7c0.3-0.1,0.7-0.1,1,0.1c0.4,0.2,0.7-0.3,0.3-0.6c-0.5-0.3-1-0.3-1.5-0.1
						C82.5,78.2,82.7,78.8,83.1,78.7L83.1,78.7z"/>
				</g>
			</g>
		</g>
		<g>
			<g>
				<g>
					<path class="st0" d="M85.4,80.1c0.5-0.2,1-0.3,1.5-0.5c0.4-0.1,0.2-0.8-0.2-0.6c-0.5,0.2-1,0.3-1.5,0.5
						C84.8,79.6,85,80.2,85.4,80.1L85.4,80.1z"/>
				</g>
			</g>
		</g>
	</g>
</g>
</svg>
