<?xml version="1.0" encoding="utf-8"?>
<!-- Generator: Adobe Illustrator 24.0.1, SVG Export Plug-In . SVG Version: 6.00 Build 0)  -->
<svg version="1.1" id="Layer_1" xmlns="http://www.w3.org/2000/svg" xmlns:xlink="http://www.w3.org/1999/xlink" x="0px" y="0px"
	 viewBox="0 0 141.7 141.7" style="enable-background:new 0 0 141.7 141.7;" xml:space="preserve">
<style type="text/css">
	.st0{fill:#010101;}
	.st1{fill:#070707;}
</style>
<g id="Layer_1_1_">
</g>
<g id="Layer_1_2_">
</g>
<g id="Layer_1_3_">
</g>
<g id="Layer_1_4_">
</g>
<g id="Layer_1_5_">
</g>
<g id="Layer_3">
</g>
<g id="Layer_3_1_">
</g>
<g id="Layer_1_6_">
</g>
<g id="Layer_1_7_">
</g>
<g id="Layer_1_8_">
</g>
<g id="Layer_1_9_">
</g>
<g id="Layer_1_10_">
</g>
<g id="Layer_1_11_">
</g>
<g id="Layer_1_12_">
</g>
<g id="Layer_1_13_">
</g>
<g id="Layer_1_14_">
</g>
<g id="Layer_1_15_">
</g>
<g id="Layer_1_16_">
</g>
<g id="Layer_1_17_">
</g>
<g id="Layer_1_18_">
</g>
<g id="Layer_1_19_">
</g>
<path class="st0" d="M11.1,76.7c-2.8,0-5.1-2.3-5.1-5.1c0-2.8,2.3-5.1,5.1-5.1s5.1,2.3,5.1,5.1C16.2,74.5,13.9,76.7,11.1,76.7z
	 M11.1,66.8c-2.7,0-4.8,2.2-4.8,4.8c0,2.7,2.2,4.8,4.8,4.8s4.8-2.2,4.8-4.8C15.9,69,13.8,66.8,11.1,66.8z"/>
<path class="st0" d="M28.2,76.7c-2.8,0-5.1-2.3-5.1-5.1c0-2.8,2.3-5.1,5.1-5.1s5.1,2.3,5.1,5.1C33.3,74.5,31,76.7,28.2,76.7z
	 M28.2,66.8c-2.7,0-4.8,2.2-4.8,4.8c0,2.7,2.2,4.8,4.8,4.8s4.8-2.2,4.8-4.8C33.1,69,30.9,66.8,28.2,66.8z"/>
<path class="st0" d="M45.3,76.7c-2.8,0-5.1-2.3-5.1-5.1c0-2.8,2.3-5.1,5.1-5.1s5.1,2.3,5.1,5.1C50.4,74.5,48.1,76.7,45.3,76.7z
	 M45.3,66.8c-2.7,0-4.8,2.2-4.8,4.8c0,2.7,2.2,4.8,4.8,4.8s4.8-2.2,4.8-4.8C50.2,69,48,66.8,45.3,66.8z"/>
<path class="st0" d="M62.2,76.7c-2.8,0-5.1-2.3-5.1-5.1c0-2.8,2.3-5.1,5.1-5.1s5.1,2.3,5.1,5.1C67.3,74.5,65,76.7,62.2,76.7z
	 M62.2,66.8c-2.7,0-4.8,2.2-4.8,4.8c0,2.7,2.2,4.8,4.8,4.8c2.6,0,4.8-2.2,4.8-4.8S64.9,66.8,62.2,66.8z"/>
<path class="st0" d="M79.3,76.7c-2.8,0-5.1-2.3-5.1-5.1c0-2.8,2.3-5.1,5.1-5.1c2.8,0,5.1,2.3,5.1,5.1C84.4,74.5,82.1,76.7,79.3,76.7
	z M79.3,66.8c-2.7,0-4.8,2.2-4.8,4.8c0,2.7,2.2,4.8,4.8,4.8s4.8-2.2,4.8-4.8C84.1,69,81.9,66.8,79.3,66.8z"/>
<path class="st0" d="M96.4,75c-2.1,0-3.8-1.7-3.8-3.8c0-2.1,1.7-3.8,3.8-3.8s3.8,1.7,3.8,3.8C100.2,73.3,98.5,75,96.4,75z
	 M96.4,67.7c-2,0-3.5,1.6-3.5,3.5c0,2,1.6,3.5,3.5,3.5c2,0,3.5-1.6,3.5-3.5C99.9,69.3,98.3,67.7,96.4,67.7z"/>
<path class="st0" d="M113.3,75c-2.1,0-3.8-1.7-3.8-3.8c0-2.1,1.7-3.8,3.8-3.8c2.1,0,3.8,1.7,3.8,3.8C117.1,73.3,115.4,75,113.3,75z
	 M113.3,67.7c-2,0-3.5,1.6-3.5,3.5c0,2,1.6,3.5,3.5,3.5c2,0,3.5-1.6,3.5-3.5C116.8,69.3,115.3,67.7,113.3,67.7z"/>
<path class="st0" d="M130.5,76.7c-2.8,0-5.1-2.3-5.1-5.1c0-2.8,2.3-5.1,5.1-5.1c2.8,0,5.1,2.3,5.1,5.1
	C135.6,74.5,133.3,76.7,130.5,76.7z M130.5,66.8c-2.7,0-4.8,2.2-4.8,4.8c0,2.7,2.2,4.8,4.8,4.8s4.8-2.2,4.8-4.8
	S133.2,66.8,130.5,66.8z"/>
<path class="st0" d="M118.3,76.7c-0.6,0-1.4-0.4-2-0.7c-1.2-0.7-2.7-1.9-4.1-3.3c-2.6-2.6-4.8-5.7-3.9-6.6l0,0
	c0.9-0.9,4.1,1.2,6.7,3.8c1.4,1.4,2.6,2.8,3.3,4c0.6,0.9,1.1,2.1,0.6,2.6C118.7,76.7,118.5,76.7,118.3,76.7z M108.4,66.3
	c-0.6,0.6,0.9,3.3,3.9,6.3c1.4,1.4,2.8,2.5,4.1,3.2c1.1,0.7,2,0.9,2.3,0.6s0.1-1.2-0.6-2.3c-0.7-1.2-1.9-2.6-3.3-4
	C111.6,67.1,108.9,65.7,108.4,66.3L108.4,66.3z"/>
<path class="st0" d="M91.8,76.8c-0.2,0-0.4-0.1-0.5-0.2l0,0c-0.9-0.9,1.2-4.1,3.7-6.8c1.4-1.4,2.8-2.6,4-3.4
	c0.9-0.6,2.1-1.1,2.6-0.6s0,1.7-0.5,2.6c-0.7,1.3-1.8,2.7-3.2,4.1C95.7,74.9,93.1,76.8,91.8,76.8z M91.4,76.4c0.6,0.6,3.3-0.9,6.2-4
	c1.3-1.4,2.5-2.9,3.2-4.1s0.9-2,0.6-2.3s-1.2,0-2.3,0.7c-1.2,0.8-2.6,1.9-3.9,3.4C92.2,73.1,90.8,75.9,91.4,76.4L91.4,76.4z"/>
<path class="st1" d="M42.5,67.8c0.6,0.4-0.3,0.7-0.4,1.1V69C42,69.3,42,69.7,42,70v0.2c0.7-0.4,0.1,0.2,0.3,0.5
	c0.1,0.2,0.2,0.1,0.4,0.2c0.3,0.3,0.2,0.1,0.3,0.3c0,0.1,0,0.1,0,0.2c0.1,0.2,0.1,0.6,0.2,0.9c0.2,0.5,0.7,0.6,1.1,0.8
	c0.4,0.2,0.9,1.1,1.1,0.2c0.1-0.3-0.1-1-0.3-1.2c-0.3-0.2-0.5,0.2-0.8,0.2c-0.5-0.1-0.5-0.7-0.1-0.9c0.7-0.4,0.9,1,1.2,0.2
	c0-0.1,0-0.1,0-0.2c0,0,0,0,0-0.1c0.1-0.1-0.1-0.2,0-0.4c0.2-0.3,0.4,0,0.6-0.2c0.5-0.3,0.1-0.3,0.2-0.7c0-0.3,0.4-0.9-0.2-1.1
	c-0.7-0.3-0.3,0.5-0.7,0.7v0.2c0,0-0.3,0.6-0.4-0.3l0,0c-0.5-0.1,0.1,0.1,0.2-0.3c0.1-0.2-0.1-0.4-0.1-0.5c-0.3-0.4-0.7-0.5-1-0.1
	c-0.1,0.1,0.1,0.3,0,0.4c-0.3,0.4-0.1-0.1-0.3-0.2c-0.4-0.3-0.2,0-0.5,0.3c-0.5,0.5-1,0.2-0.7-0.4c0.2-0.4,0.7-0.8,1-1.1
	c0.2-0.2,1.5-0.6,0.9-1v0.2c0.2,0.2-0.8,0.6-0.9,0.7c-0.3,0.2-0.5,0.4-0.7,0.6s-0.6,0.6-0.6,0.9c0,0.1,0,0.1,0,0.2
	c0.1,0.3,0.2,0.4,0.5,0.4c0.5,0,0.4-0.6,0.6-0.7c0.4-0.2,0.1,0.1,0.3,0.2c0,0.1,0,0.2,0.2,0.3c0.1-0.1,0.2-0.1,0.2-0.3V69
	c0.1-0.2-0.1-0.3,0.3-0.4c0.2,0,0.7,0.3,0.7,0.5c0,0.4-0.4,0.1-0.4,0.5v0.2c0.5,0.1,0.3,0.6,0.7,0.2l0.2-0.4c0-0.1,0-0.1,0-0.2
	c0.1-0.2-0.1-0.2,0.2-0.3c0.1,0,0.4,0.2,0.5,0.2c0.2,0.3-0.1,0.4-0.3,0.6v0.2c0.9,0.5-0.4,0.3-0.6,0.9v0.1c-0.2,0.7,0.2,0.6-0.5,0.1
	c-0.5-0.3-1,0.1-1,0.6c0,0.2,0,0.4,0.1,0.5c0.4,0.6,0.8-0.3,1.2,0.1c0.2,0.2,0.3,1.3-0.2,1.1c-0.2-0.1-0.2-0.4-0.4-0.5
	s-0.5-0.2-0.7-0.2c-0.1-0.1-0.2-0.2-0.3-0.3c-0.5-0.2-0.4-0.2-0.5-0.7c-0.1-0.2,0-0.6-0.1-0.8c-0.3-0.7-0.9,0.1-0.5-1v-0.2
	c-0.6,0.3-0.4-0.1-0.3-0.6c0.1-0.2,0-0.3,0.1-0.4c0.2-0.3,0.5-0.2,0.6-0.6c0-0.2-0.1-0.4-0.3-0.5C42.5,67.6,42.5,67.8,42.5,67.8
	L42.5,67.8z"/>
<path class="st1" d="M44.3,71.8C44.4,71.8,44.4,71.8,44.3,71.8L44.3,71.8L44.3,71.8z"/>
<path class="st1" d="M46.3,76.3C46.3,76.2,46.2,76.2,46.3,76.3C46.2,76.3,46.2,76.3,46.3,76.3c-0.1-0.2,0.3-0.5,0.2-0.9
	c-0.1-0.2-0.3-0.3-0.5-0.5c-0.2-0.1-0.4-0.3-0.5-0.5c-0.2-0.4,0-0.4,0.3-0.6v-0.2c0-0.4,0.1-0.9,0.7-0.8c0.2,0,0.3,0.3,0.4,0.2
	c0.2,0,0.2-0.3,0.3-0.3c0.2-0.1,0.1,0.1,0.3,0.2c0.1,0.1,0.2,0.1,0.2,0c0,0.1,0,0.1,0.1,0.2c0.2,0.2,0.2,0.2,0.4,0.1
	c0.1-0.1,0.3-0.6,0.4-0.2c0-0.1,0-0.1,0-0.2c0,0.1-0.1,0.3-0.1,0.5c0.2,0.5,0.7,0.1,1.1,0.1c0-0.1,0-0.1,0-0.2
	c-0.3,0.7-0.8,0.8-0.6,1.5c0-0.1,0-0.1,0-0.2c-0.1,0.4-0.4,0.1-0.6,0.2c-0.3,0-0.2,0.1-0.4,0.3c0,0.1-0.1,0.2-0.1,0.3
	c-0.1,0.1-0.2,0.1-0.3,0.2c-0.2,0.2-0.4,0.1-0.5,0.4c0,0.2,0,0.3,0.2,0.4v-0.2c-0.1,0-0.2-0.1-0.2-0.2c0,0.1,0,0.1,0,0.2
	c0.1-0.4,0.3-0.3,0.6-0.4s0.1-0.3,0.3-0.4c0.2-0.2,0.2-0.2,0.5-0.2s0.4,0.2,0.5-0.2c0.1-0.2-0.1-0.4-0.1-0.5c0,0.1,0,0.1,0,0.2
	c0.2-0.4,0.5-0.6,0.7-1v-0.2c-0.3,0-0.9,0.5-1.1,0c0,0.1,0,0.1,0,0.2c0-0.1,0.2-0.4,0.1-0.5c-0.2-0.5-0.4,0.3-0.7,0.3
	c-0.1,0-0.2-0.1-0.2-0.2c0-0.2,0-0.2-0.1-0.1c-0.1-0.1-0.2-0.3-0.3-0.3c-0.2,0-0.1,0.2-0.3,0.3c-0.2,0.1-0.2,0-0.3-0.1
	c-0.3-0.1-0.8-0.2-0.9,0.3c-0.1,0.3,0.1,0.5,0.1,0.7c0-0.1,0-0.1,0-0.2c-0.3,0.1-0.4,0.2-0.4,0.4c-0.1,0.7,0.8,0.9,1.1,1.4
	c0-0.1,0-0.1,0-0.2c-0.1,0.4-0.4,0.7-0.2,1.1C46.2,76.5,46.3,76.4,46.3,76.3L46.3,76.3z"/>
<path class="st1" d="M48,67.7c0,0.4,0.2,0.4,0.5,0.7c0.3,0.3,0.4,0.5,0.6,0.9v0.1c0.1,0.2,0.3,0.3,0.4,0.6c0,0.1,0,0.5,0,0.4
	c0.1,0.7,0.6,1.1,0.5,1.9c0,0.3-0.2,0.5,0.1,0.8c0-0.1,0-0.2,0-0.2c-0.2-0.3,0.1-0.7,0.1-1.1c-0.1-0.6-0.4-1.3-0.6-1.9
	c0-0.1,0-0.1,0-0.1c-0.1-0.3-0.2-0.3-0.4-0.5c0,0,0-0.1,0-0.2c-0.1-0.2-0.1-0.3-0.2-0.5c-0.3-0.4-0.9-0.6-0.9-1.2
	C48,67.6,48,67.7,48,67.7L48,67.7z"/>
<path class="st1" d="M48.6,72.7c0,0.1,0,0.2,0,0.2c0,0.3,0.3,0.1,0.4-0.1c0.2-0.2,0.4,0.1,0.6-0.1c0.1-0.1,0.1-0.2,0.1-0.3
	c0-0.1,0-0.3-0.2-0.3c-0.2-0.1-0.5,0-0.6,0.2l-0.1,0.1c-0.1,0-0.1,0.1-0.2,0.1C48.6,72.6,48.6,72.6,48.6,72.7c0,0,0,0.2,0.1,0.2
	C48.6,72.9,48.7,72.7,48.6,72.7C48.6,72.6,48.6,72.6,48.6,72.7C48.6,72.7,48.6,72.7,48.6,72.7s0.2,0,0.3-0.1s0.2-0.2,0.3-0.3
	c0.2-0.1,0.6-0.1,0.6,0.2c0-0.1,0-0.1,0-0.2c-0.1,0.3-0.3,0.2-0.5,0.2c-0.1,0-0.2,0.1-0.3,0.2C48.8,72.8,48.6,72.9,48.6,72.7
	c0,0.1,0,0.1,0,0.2l0,0C48.6,72.8,48.6,72.7,48.6,72.7L48.6,72.7z"/>
<path class="st1" d="M47,72.6c-0.1-0.1-0.3-0.3-0.3-0.5c0,0.1,0,0.1,0,0.2c0.1-0.3,0.5-0.2,0.7-0.1c0.2,0.2,0.2,0.2,0.4,0.2
	c0.1,0,0.3,0.1,0.3,0.2c0-0.1,0-0.1,0-0.2c-0.1,0.3-0.3,0.1-0.5,0c-0.1,0-0.2,0.1-0.3,0.1C47.1,72.6,47,72.6,47,72.6
	C47,72.5,46.9,72.7,47,72.6c0,0.2,0.1,0.2,0.2,0.2s0.2-0.1,0.3-0.1c0.2,0,0.4,0.2,0.5-0.1c0-0.1,0-0.1,0-0.2c0-0.2-0.2-0.2-0.4-0.3
	c-0.2-0.1-0.3-0.3-0.5-0.3s-0.4,0-0.4,0.2C46.6,72.3,46.8,72.5,47,72.6C46.9,72.7,47,72.6,47,72.6L47,72.6z"/>
<path class="st1" d="M46.1,72.5c0.1,0.1,0.2-0.1,0.2-0.2s0-0.2-0.1-0.3C46,71.9,46,72.4,46.1,72.5c-0.1,0,0-0.2,0-0.2L46,72.2
	c0,0.1,0,0.1,0,0.2c0-0.2,0.2-0.2,0.2,0c0-0.1,0-0.1,0-0.2c0,0.1-0.1,0.1-0.2,0.1C46.1,72.3,46.1,72.4,46.1,72.5L46.1,72.5z"/>
<path class="st1" d="M46.3,70.7c-0.2,0-0.2,0.2-0.2,0.3c0-0.1,0-0.1,0-0.2c0,0.2-0.2,0.1-0.3,0.2s-0.1,0.1-0.1,0.2s0,0.1,0.1,0.2
	s0.3-0.1,0.4-0.1c0.1,0,0.1-0.1,0.2-0.1s0.2,0.1,0.2,0c0.1-0.1,0.1-0.1,0.1-0.2s0-0.1,0-0.2C46.6,70.7,46.3,70.7,46.3,70.7
	c-0.1,0-0.1,0.2-0.1,0.2c0.2,0,0.4-0.1,0.5,0.2c0-0.1,0-0.1,0-0.2c0,0.1-0.1,0.1-0.2,0.1c-0.1,0-0.2,0-0.3,0.1s-0.4,0.2-0.5,0
	c0,0.1,0,0.1,0,0.2c0-0.2,0.4-0.1,0.4-0.3c0-0.1,0-0.2,0-0.3c0,0.1,0,0.1,0,0.2C46.1,70.8,46.2,70.8,46.3,70.7
	C46.3,70.9,46.3,70.7,46.3,70.7L46.3,70.7z"/>
<path class="st1" d="M46.6,70.5C46.5,70.5,46.5,70.5,46.6,70.5l-0.1,0.3c0.1,0,0.2,0.1,0.2,0v-0.1C46.7,70.6,46.7,70.4,46.6,70.5
	c-0.1,0,0,0.2,0,0.2c0.1,0,0.1,0,0.1,0.1C46.7,70.7,46.7,70.6,46.6,70.5c0,0.2-0.1,0.1-0.2,0.1c0,0.1,0,0.1,0,0.2
	c0-0.1,0.1-0.1,0.1-0.1C46.6,70.7,46.6,70.5,46.6,70.5L46.6,70.5z"/>
<path class="st1" d="M47.1,70.4c-0.1,0-0.2,0-0.2,0.1v0.2c0.1,0,0.1,0,0.1-0.1s0-0.2-0.1-0.2v0.2c0,0,0,0,0.1,0.1
	C47.1,70.6,47.1,70.5,47.1,70.4c-0.1,0.1-0.1,0.1-0.2,0.1c0,0.1,0,0.1,0,0.2c0-0.1,0.1-0.1,0.2-0.1C47.1,70.6,47.2,70.5,47.1,70.4
	L47.1,70.4z"/>
<path class="st1" d="M31.6,75.1c-0.6-0.7-1.4-1.2-2.1-1.7c-0.2-0.2-0.6-0.5-0.9-0.5c-0.4-0.1-0.4,0.1-0.7,0.2
	c-0.8,0.2-3.7-0.5-3.8,1v0.2c0,0,0,0,0.1,0v-0.2l0,0c0,0.1,0,0.1,0,0.2c-0.2-0.5,1.4-0.9,1.7-0.9c0.7-0.1,1.4,0.2,2.1,0
	c0.4-0.1,0.3-0.3,0.7-0.2c0.3,0.1,0.7,0.4,0.9,0.5c0.8,0.5,1.5,1,2.1,1.7C31.6,75.3,31.6,75.2,31.6,75.1L31.6,75.1z"/>
<path class="st1" d="M24.4,73.6c-0.1,0.1-0.2,0.2-0.3,0.3C24,74,24,74,24,74.1c0,0-0.1,0.2-0.1,0.1v0.1l0,0v-0.1l0,0v0.1
	c0,0.1,0,0,0.1,0c0.1-0.1,0.1-0.1,0.1-0.2C24.2,73.8,24.3,73.7,24.4,73.6L24.4,73.6L24.4,73.6z"/>
<path class="st1" d="M24.8,75.1c0.5-0.4,0.8-0.4,1.4-0.5c0.7-0.2,1.3-0.5,2-0.7c1.4-0.3,2.1,1.2,3.2,1.5v-0.2
	c-1.2-0.3-1.8-1.8-3.2-1.5c-0.7,0.1-1.2,0.5-1.9,0.6c-0.6,0.2-1,0.1-1.5,0.6C24.7,75,24.8,75.1,24.8,75.1L24.8,75.1z"/>
<path class="st1" d="M25.7,75.9c0.3-0.4,0.7-0.5,1.1-0.4c0.5,0,1,0,1.5-0.1c1-0.1,1.9,0.8,2.9,0.3v-0.2c-1,0.5-1.9-0.3-2.9-0.3
	c-0.5,0-0.9,0.1-1.3,0.1c-0.5,0-0.9,0-1.3,0.4C25.7,75.8,25.7,75.9,25.7,75.9L25.7,75.9z"/>
<path class="st1" d="M23.4,72.3c0.9-0.3,1.5-1.1,2.4-1.4c0.8-0.3,1.8-0.4,2.6,0c0.7,0.3,1.7,0.9,2.2,1.4c0.3,0.3,0.5,0.6,0.9,0.9
	c0.5,0.4,0.8,0.5,0.9,1.1c0-0.1,0-0.1,0-0.2c-0.1-0.8-0.8-1.1-1.3-1.6c-0.6-0.7-1.5-1.3-2.3-1.7c-0.9-0.5-2-0.6-3-0.2
	c-0.9,0.4-1.5,1.1-2.4,1.4C23.4,72.1,23.4,72.3,23.4,72.3L23.4,72.3z"/>
<path class="st1" d="M23.3,70.8c0.8-0.9,1.6-2,2.9-2.3c0.6-0.2,1.1-0.1,1.7,0c0.7,0.2,1.1,0.1,1.8,0.1c0.9,0,2.2,0.6,2.6,1.4
	c0.2,0.3,0.1,0.6,0.2,0.9c0.2,0.5,0.4,0.5,0.8,0.9v-0.2c-0.1-0.1-0.3-0.2-0.4-0.3c-0.3-0.3-0.2-0.5-0.3-0.9c0-0.1,0-0.3-0.1-0.4
	c-0.4-0.9-1.7-1.5-2.7-1.5c-0.6,0-1,0.1-1.6,0s-1.1-0.3-1.7-0.1c-1.3,0.3-2.2,1.4-3,2.4C23.3,70.7,23.4,70.8,23.3,70.8L23.3,70.8z"
	/>
<path class="st1" d="M23.4,70.9c0.8-0.7,1.6-1.6,2.6-2s1.8,0.2,2.7,0.2c1,0.1,1.8,0.2,2.6,0.9c0.6,0.6,0.9,2,1.9,1.9v-0.2
	c-0.9,0.1-1.3-1.3-1.9-1.9c-0.8-0.7-1.6-0.9-2.6-0.9c-1-0.1-1.8-0.6-2.7-0.2c-1,0.4-1.8,1.3-2.6,2C23.4,70.7,23.4,70.9,23.4,70.9
	L23.4,70.9z"/>
<path class="st1" d="M57.3,72.3c0.3-0.3,0.2,0,0.5,0s0.1,0,0.4-0.2c0.2-0.1,0.1-0.2,0.4-0.1c0.1,0.1,0.2,0.4,0.3,0.1
	c0.1-0.1,0-0.4,0-0.5c0,0.1,0,0.1,0,0.2c0.1-0.2,0.4-0.6,0.5-0.3c0-0.1,0-0.1,0-0.2c0,0.4-0.2,0.7-0.1,1.1c0.1,0.7,0.3,0.1,0.3-0.2
	c0,0.1,0,0.1,0,0.2c0.1-0.3,0.4-0.2,0.4-0.4v-0.1c0-0.1,0-0.2-0.1-0.3c0,0.1,0,0.1,0,0.2c0.1,0,0.2,0,0.3-0.1v-0.2
	c0-0.1-0.1-0.1-0.1-0.2c0,0.1,0,0.1,0,0.2c0-0.5,0.2-0.3,0.5-0.5c0.1,0,0.2-0.1,0.2-0.2c0-0.2,0-0.2,0,0c0-0.1,0-0.1,0-0.2
	c-0.1,0.3-0.4,0.6-0.4,0.9c0,0.1,0,0.3,0,0.4c0-0.1,0-0.1,0-0.2c-0.2,0.5-0.2,0.5,0,1c0-0.1,0-0.1,0-0.2c0,0.2-0.1,0.7,0.3,0.5
	c0.2-0.1,0.1-0.5,0.1-0.7c0,0.1,0,0.1,0,0.2c0.3-0.3,0.3,0.2,0.4-0.3c0-0.1,0-0.1,0-0.2c-0.1,0.5-0.2,0.1-0.4,0.3c0,0,0,0,0,0.1
	s0,0.2,0,0.2c-0.2,0.7-0.4-0.2-0.5-0.5c0,0.1,0,0.1,0,0.2c0.1-0.4,0.2-0.5,0.1-0.8c0,0.1,0,0.1,0,0.2c0.1-0.4,0.3-0.6,0.4-0.9v-0.1
	l0,0c0-0.4,0-0.1,0-0.1c0.2,0-0.4,0.3-0.3,0.3c-0.1,0.1-0.2,0.1-0.3,0.2s-0.1,0.2-0.1,0.4c0,0.1,0,0.2,0.1,0.3c0-0.1,0-0.1,0-0.2
	c-0.1,0-0.2,0-0.3,0.1v0.2c0,0.1,0,0.1,0.1,0.2c0-0.1,0-0.1,0-0.2c0,0.3-0.4,0.1-0.5,0.5c0,0.1,0,0.4,0,0.4c0-0.1,0-0.1,0-0.2
	c-0.2,0.3-0.2,0-0.3-0.2c0,0.1,0,0.1,0,0.2c0-0.1,0.4-1.2-0.1-1.2c-0.4,0-0.3,0.7-0.3,0.9c0-0.1,0-0.1,0-0.2
	c-0.2,0.4-0.2-0.1-0.4-0.1s-0.2,0-0.3,0.1c-0.3,0.2-0.1,0.2-0.4,0.2C57.5,72.3,57.5,72,57.3,72.3C57.3,72.2,57.3,72.3,57.3,72.3
	L57.3,72.3z"/>
<path class="st1" d="M61.2,72.6c0.2-1,0.3-0.1,0.6-0.1c0.2,0,0.3-0.6,0.6-0.3c0.2,0.2,0,0.9,0.2,1s0.2-0.1,0.4-0.2
	c0.1-0.2,0.2-0.3,0.4-0.2c0.1,0.1,0.2,0.2,0.3,0.2c0,0,0.2-0.2,0.4-0.2c0.1,0.1,0.2,0.2,0.2,0.3c0.1-0.1,0.3-0.2,0.4,0
	c0.3,0.2,0.7,0.9,1.1,0.4c0,0,0-0.1,0-0.2c0.1-0.3-0.2-0.4,0.2-0.4c0.1,0.1,0.2,0.2,0.3,0.3c0.1-0.1,0.1-0.1,0.1-0.2
	c0.2,0,0-0.2,0.4,0v-0.2c-0.4-0.2-0.2,0-0.4,0c0,0.1-0.1,0.2-0.1,0.2c-0.1-0.1-0.2-0.2-0.3-0.3c-0.2,0-0.3,0-0.3,0.2
	c0,0.1,0.1,0.2,0,0.3c-0.1,0.2,0.2,0.1-0.1,0.3c-0.4,0.3-0.6-0.3-0.8-0.4c-0.1-0.1-0.2-0.2-0.3-0.2c-0.1,0.2-0.2,0.2-0.3-0.1
	c-0.1-0.1-0.2-0.2-0.3-0.2c-0.1,0.1-0.2,0.1-0.2,0.3c-0.3,0-0.1-0.3-0.5-0.2c-0.2,0.1-0.2,0.6-0.5,0.4c-0.3-0.1-0.1-0.8-0.2-1
	c-0.3-0.2-0.4,0.1-0.5,0.2c-0.1,0.2-0.2,0.2-0.3,0.1s-0.1-0.2-0.1-0.3c0-0.1-0.1-0.2-0.2-0.2c-0.1,0.2-0.2,0.4-0.2,0.5
	C61.1,72.4,61.2,72.5,61.2,72.6L61.2,72.6z"/>
<path class="st1" d="M66.6,72.8c0.1,0,0.1-0.1,0.2-0.2s0.2-0.1,0.2,0v-0.1l0,0v0.1c0-0.1,0-0.1,0-0.2c-0.1-0.1-0.2,0-0.2,0.1
	C66.7,72.6,66.7,72.7,66.6,72.8C66.5,72.7,66.6,72.8,66.6,72.8L66.6,72.8z"/>
<path class="st1" d="M66.9,72.7c-0.3,0.1-0.9,0.3-1.2,0.5c-0.6,0.4-0.5,0.5-1.2,0.2c-0.5-0.2-0.9-0.3-1.4-0.2c-0.2,0-1.3,0.5-1.2,0
	V73c-0.2-0.1-0.8,0.3-1,0.3c-0.4,0.1-0.3,0.2-0.7-0.1c-0.3-0.2-0.5-0.1-0.5-0.5v-0.2c-0.4-0.1-0.3,0.3-0.5,0.3
	c-0.4,0-0.1-0.1-0.4-0.2c-0.2-0.2-0.3-0.2-0.5-0.3c-1-0.2,0,0.1-0.1,0.1v0.1c-0.1,0-0.3-0.3-0.4-0.3v0.2c0,0.1-0.4,0.2-0.4,0.6
	c0-0.1,0-0.1,0-0.2c0-0.2,0.3,0,0.4-0.1v-0.2c-0.1-0.4,0.3,0.1,0.4,0.1v-0.2c0-0.4,0.9,0.5,0.7,0.4c0.3,0.1,0.8-0.7,0.7-0.1v0.2
	c0.4,0.3,0.8,0.4,1.2,0.4l0.3-0.2l0.4-0.1c0.1,0,0.2-0.1,0.3-0.1c0.2,0.1-0.1,0.1,0,0.1v0.1c0.7,0.5,1.1-0.2,1.9,0
	c0.7,0.1,1.1,0.6,1.8,0.3C65.9,73.2,66.3,72.7,66.9,72.7C66.9,72.9,66.9,72.7,66.9,72.7L66.9,72.7z"/>
<path class="st1" d="M59,75.2c0.8-0.8,2.2,0.7,3.1,0.8c0.1-0.2,0.2-0.2,0.3-0.2s0.1,0.1,0.2,0.1C62.7,76,62.8,76,63,76
	c0.1-0.1,0.1-0.1,0.2-0.2c0.5,0,0.8-0.1,1.2-0.4c0.1-0.1,0.6-0.2,0.5-0.5s-0.4-0.1-0.3-0.3c0-0.1,0.4-0.1,0.4-0.3v-0.1
	c-0.1-0.7-0.4-0.1-0.6,0s-0.5,0.1-0.6,0.1c-0.3,0.1-0.2,0.1-0.5,0S63,74,62.7,74.1c-0.2,0.1-0.1,0.4-0.4,0.5
	c-0.3,0.1-0.3-0.3-0.4-0.3c0-0.1-0.1-0.1-0.2-0.1c-0.2,0-0.3,0.1-0.3,0.2c-0.1,0.2-0.1,0.1-0.1-0.2c0.1-0.3,0-0.4-0.2-0.3
	c-0.2-0.2-0.5-0.1-0.8-0.2c-0.2-0.1-0.6-0.4-0.8-0.4c-0.5,0-0.3,0.3-0.6,0.4c-0.4,0.1-0.4-0.2-0.7-0.2c-0.2,0-0.4-0.2-0.4,0.1
	c0,0.1,0,0.1,0,0.2c0.1-0.5,0.6,0.1,0.8,0.1c0.4,0,0.2-0.3,0.5-0.4s0.4,0,0.7,0.1c0.2,0.1,0.4,0.2,0.7,0.3c0.1,0,0.7,0,0.8,0.1
	c0,0.1,0,0.2,0,0.3c0,0.4,0,0.4,0.1,0.2c0,0,0.3-0.2,0.5-0.2c0.1,0,0.1,0.3,0.3,0.4c0.3,0.1,0.3-0.1,0.5-0.2c0.3-0.2,0-0.4,0.5-0.3
	c0.2,0,0.3,0.3,0.4,0.3c0.1,0,0.9-0.2,1-0.3c0.2-0.1,0.2-0.3,0.4-0.4c0.7-0.3-0.3,0.7-0.2,0.4c-0.1,0.1-0.2,0.1-0.1,0.3
	c0,0.2,0.3,0.2,0.3,0.2c0,0.2,0,0.1-0.3,0.3c-0.2,0.2-0.3,0.3-0.6,0.4c-0.2,0.1-0.3-0.1-0.4-0.1c-0.3,0.1-0.3,0.3-0.6,0.3
	c-0.2,0-0.3-0.2-0.5-0.2s-0.2,0.2-0.4,0.2s-0.4-0.3-0.5-0.4c-0.2-0.1-0.5,0-0.7-0.1c-0.6-0.2-1.1-0.9-1.8-0.3
	C58.9,75,59,75.1,59,75.2L59,75.2z"/>
<path class="st1" d="M66.6,73.6c0-0.2-0.9,0-1,0.3c0,0.1,0,0.1,0,0.2s0.1,0.2,0.2,0.3c0-0.1,0-0.1,0-0.2c-0.1,0.3-0.5,0.4-0.4,0.7
	c0,0.1,0,0.2,0.1,0.2c0.1,0.1,0.4-0.2,0.4,0.1c0-0.1,0-0.1,0-0.2c0-0.3-0.5,0.1-0.5-0.2c0,0.1,0,0.1,0,0.2c0.1-0.2,0.4-0.3,0.4-0.6
	c0-0.1,0-0.1,0-0.1c0-0.1-0.1-0.2-0.2-0.3c0,0.1,0,0.1,0,0.2c0-0.3,1-0.5,1-0.3C66.6,73.7,66.6,73.7,66.6,73.6L66.6,73.6z"/>
<path class="st1" d="M57.3,71.4c0.4,0.1,0.4-0.3,0.7-0.4s0.7-0.1,1-0.2c0.4-0.1,0.9-0.1,1.1-0.4v-0.1c0.5-0.7,0.1-0.6,0.5-1
	c0.3,0.1,0.5,0,0.5-0.3c0.1-0.2,0.3-0.2,0.5-0.2c0.3,0,0.3,0.3,0.6,0.2c0.1-0.1,0.1-0.3,0.3-0.4c0.1-0.1,0.3,0,0.3,0.1
	S62.9,69,63,69c0.1-0.1,0.2-0.2,0.3-0.2c0.3,0.1,0.3,0.6,0.7,0.7c0.3,0.1,0.4-0.3,0.7-0.2c0.3,0.1,0.2,0.5,0.5,0.7
	c0,0,0.8,0.2,0.7,0.2c0.1,0,0.1-0.2,0.4-0.2c0.1,0,0.5,0.1,0.6,0.2c0-0.1,0-0.1,0-0.2c-0.1-0.1-0.5-0.2-0.6-0.2
	C66,69.8,66,70,65.7,70c0.1,0-0.7-0.2-0.7-0.2c-0.3-0.2-0.2-0.6-0.6-0.7s-0.4,0.4-0.9,0.1c-0.2-0.1-0.2-0.4-0.5-0.5
	c-0.1,0.1-0.2,0.2-0.3,0.2c-0.1-0.1-0.2-0.2-0.2-0.3c-0.1-0.1-0.2-0.2-0.3-0.1s-0.2,0.3-0.3,0.4c-0.3,0.1-0.4-0.4-0.8-0.3
	c-0.2,0.1-0.3,0.2-0.3,0.4c-0.3-0.1-0.5,0-0.7,0.2c-0.3,0.3,0,0.5-0.2,0.8c-0.3,0.4-0.7,0.4-1.1,0.5c-0.3,0.1-0.8,0.1-1,0.2
	c-0.3,0.1-0.3,0.5-0.7,0.4C57.3,71.2,57.3,71.4,57.3,71.4L57.3,71.4z"/>
<path class="st1" d="M66.9,70.4c-0.4-0.4-0.6,0-1,0.1c-0.3,0.1-0.4,0.1-0.6,0.3c-0.2,0.1-0.3,0.2-0.5,0.3c-0.4,0.1-1.2-0.1-1.1,0.6
	c0,0.2,0.2,0.4,0.3,0.5c0.2,0.1,0.4-0.1,0.6-0.1c0.2,0.1,0.2,0.3,0.3,0.4c0.3,0.2,0.3,0,0.5-0.1c0.3-0.1,0.2,0.1,0.5,0.2
	c0.3,0.2,0.3,0,0.5-0.1c0.3-0.1,0.4-0.1,0.7,0.1v-0.2c-0.3-0.2-0.4-0.2-0.7-0.1c-0.2,0.1-0.2,0.2-0.4,0.2c-0.2,0-0.2-0.2-0.3-0.3
	c-0.3-0.1-0.3,0.1-0.5,0.2c-0.5,0-0.3-0.5-0.7-0.5c-0.2,0-0.2,0.1-0.4,0.1c-0.2-0.1-0.3-0.3-0.3-0.5c0,0.1,0,0.1,0,0.2
	c0.1-0.4,0.5-0.3,0.9-0.4s0.6-0.2,0.9-0.4c0.3-0.2,0.5-0.1,0.8-0.2s0.4-0.3,0.7,0C66.9,70.5,66.9,70.4,66.9,70.4L66.9,70.4z"/>
<path class="st1" d="M58,69.4c0.5-0.1,0.7-0.4,1.1-0.6c0.3-0.1,0.7,0,0.9-0.2c0.4-0.2,0.4-0.6,0.8-0.8c0.4-0.2,1-0.5,1.4-0.6
	c0.5-0.1,0.7,0.1,1.1,0.4c0.4,0.3,0.6,0.4,1.1,0.5c0.5,0.1,1.9,0.5,2,0.8c0-0.1,0-0.1,0-0.2c-0.1-0.3-1.4-0.6-1.8-0.7
	c-0.5-0.1-0.7-0.1-1.1-0.5c-0.4-0.3-0.6-0.7-1.2-0.5c-0.4,0.1-0.9,0.4-1.2,0.5s-0.4,0.1-0.7,0.4c-0.1,0.1-0.1,0.4-0.3,0.4
	c-0.3,0.2-0.6,0-0.9,0.2c-0.5,0.2-0.7,0.6-1.2,0.6C58,69.2,58,69.4,58,69.4L58,69.4z"/>
<path class="st1" d="M75.4,68.7c2.5-1.1,5.2-1.2,7.7-0.2v-0.2c-2.5-1-5.2-1-7.7,0.2C75.4,68.6,75.4,68.7,75.4,68.7L75.4,68.7z"/>
<path class="st1" d="M74.8,69.5c2.8-1.5,6-1.1,8.9-0.1v-0.2c-2.9-1-6-1.4-8.9,0.1C74.8,69.3,74.8,69.4,74.8,69.5L74.8,69.5z"/>
<path class="st1" d="M74.7,70c3.1-1,6.3-1,9.3,0.1v-0.2c-3.1-1-6.3-1-9.3-0.1V70L74.7,70z"/>
<path class="st1" d="M74.8,70.9L74.8,70.9L74.8,70.9z"/>
<path class="st1" d="M74.5,71.1c3.1-1.2,6.4-1.3,9.6-0.4v-0.2c-3.2-0.9-6.5-0.8-9.6,0.4C74.4,70.9,74.5,71.1,74.5,71.1L74.5,71.1z"
	/>
<path class="st1" d="M74.3,71.9c3.4-0.6,6.6-0.7,10,0v-0.2c-3.4-0.8-6.6-0.6-10,0C74.3,71.7,74.3,71.9,74.3,71.9L74.3,71.9z"/>
<path class="st1" d="M74.5,73.1c3.2,0.1,6.4,0.1,9.6-0.1v-0.2C81,73,77.7,73,74.5,72.9V73.1L74.5,73.1z"/>
<path class="st1" d="M74.8,74c2.9,0.4,5.9,0.4,8.9,0.2V74c-3,0.3-5.9,0.2-8.9-0.2V74L74.8,74z"/>
<path class="st1" d="M75.2,74.6c1.2,0.5,2.6,0.5,3.8,0.5c1.3,0,2.9,0.2,4.1-0.4v-0.2c-1.2,0.6-2.8,0.4-4.1,0.4
	c-1.3,0-2.6-0.1-3.8-0.5C75.2,74.5,75.2,74.6,75.2,74.6L75.2,74.6z"/>
<path class="st1" d="M75.8,75.4c2.3,0.7,4.5,0.7,6.8,0.1v-0.2c-2.3,0.6-4.5,0.6-6.8-0.1C75.8,75.2,75.8,75.3,75.8,75.4L75.8,75.4z"
	/>
<path class="st1" d="M92.9,72.5c-0.6,0.8-1.5,1.9-1.3,3c0.3,2.4,4.6-1.3,5.3-2c0.1-0.1-0.1-0.2,0-0.3c-0.8,0.7-4.8,4.3-5.3,2
	c0,0.1,0,0.2,0,0.3c0.1-1,0.7-2,1.3-2.8C92.9,72.7,92.8,72.5,92.9,72.5L92.9,72.5z"/>
<path class="st1" d="M96.8,68.4c0.5-0.5,1-0.9,1.7-1.3c0.5-0.2,1.4-0.7,1.9-0.5c1.4,0.4-0.7,3.5-1.1,4.1c-0.1,0.1,0.1,0.2,0,0.3
	c0.7-1.1,1.7-2.4,1.6-3.8c-0.1-2-3.4,0.3-4,1C96.8,68.2,96.9,68.3,96.8,68.4L96.8,68.4z"/>
<path class="st1" d="M92.9,72.4c1-0.3,3.4-0.6,3.6,0.8c0-0.1,0-0.1,0-0.2c-0.1,0.8-0.7,1.2-1.3,1.6v0.2c0.7-0.4,1.4-0.9,1.3-1.8
	c-0.2-1.5-2.7-1.2-3.6-0.9C92.9,72.2,92.9,72.4,92.9,72.4L92.9,72.4z"/>
<path class="st1" d="M92.8,70.6c0.6-0.1,7.7,0.1,6.1-2c0,0.1,0,0.2,0,0.2c0.7,0.9-1.7,1.4-2.2,1.5c-1.3,0.2-2.6,0.1-3.9,0.2
	C92.8,70.4,92.8,70.6,92.8,70.6L92.8,70.6z"/>
<path class="st1" d="M96.5,73.6c-0.1,0.4-0.3,0.8-0.5,1.2c0,0.1,0,0.1,0,0.2c0.2-0.4,0.4-0.8,0.5-1.2C96.5,73.7,96.4,73.7,96.5,73.6
	L96.5,73.6z"/>
<path class="st1" d="M115,68c-1.7-0.5-3.8,0.3-4.1,2.2c-0.1,0.7,0.1,1.5,0.6,2c1.9,2,5.8-0.7,4.7-3.2c0,0.1,0,0.1,0,0.2
	c1.1,2.4-3,4.6-4.7,2.8c-0.9-0.9-0.7-2.3,0.2-3.1c0.9-0.9,2.2-1.1,3.3-0.7C115,68.2,115,68,115,68L115,68z"/>
<path class="st1" d="M115.6,68.5c-1.2-0.3-2.6,0.1-3.3,1.1c-0.3,0.5-0.4,1.1,0,1.5c1,1,2.8,0.1,3.2-1.1c0.2-0.5,0.2-1.1-0.1-1.6
	c0,0.1,0,0.2,0,0.2c1.2,2.2-3,3.9-3.4,1.8c0,0.1,0,0.1,0,0.2c0.2-1.6,2.2-2.2,3.5-1.8C115.6,68.6,115.6,68.5,115.6,68.5L115.6,68.5z
	"/>
<path class="st1" d="M110.5,70.6c-0.8-0.8-1.5-1.7-1.6-2.8c0,0.1,0,0.2,0,0.3c0.1-1.4,2.3-0.8,3-0.3c0,0,0.1-0.2,0-0.3
	c-0.8-0.5-3-1.1-3,0.4c-0.1,1.2,0.8,2.2,1.6,3C110.4,70.8,110.5,70.6,110.5,70.6L110.5,70.6z"/>
<path class="st1" d="M116.8,72.4c0.8,0.5,1.1,1.9,1.1,2.7c0-0.1,0-0.2,0-0.2c-0.1,1.5-1.9,0.6-2.6,0.2c0,0,0,0.2,0,0.3
	c0.9,0.4,2.6,1.3,2.7-0.3c0-1-0.2-2.4-1.1-2.9C116.9,72.1,116.8,72.3,116.8,72.4L116.8,72.4z"/>
<path class="st1" d="M135.4,71.7c-0.7-1.2-2.5-1.9-3.7-2.3c-1.3-0.4-2.6-0.4-3.8,0.2c-1.1,0.5-2.5,1.9-2.1,3.3
	c0.3,1.1,1.9,1.5,2.8,1.7c1.4,0.2,2.9,0.1,4.2-0.4c1.3-0.4,2.8-1.2,2.7-2.7C135.5,71.6,135.5,71.6,135.4,71.7
	c0.2,1.9-3.2,2.6-4.6,2.7c-1.4,0.2-5.4,0-5-2.4c0.3-1.9,2.6-2.8,4.3-2.8C131.9,69.2,134.5,70.2,135.4,71.7
	C135.3,71.8,135.4,71.7,135.4,71.7L135.4,71.7z"/>
<path class="st1" d="M132.4,70.9c-1-0.4-2.1-0.7-3.2-0.5c-0.7,0.1-1.9,0.5-2,1.4c-0.1,0.5,0.3,0.8,0.8,1c1,0.4,2.3,0.4,3.4,0.3
	c0.6-0.1,1.8-0.1,2-0.8c0.2-0.7-0.7-1.2-1.3-1.4v0.2c0.3,0.1,1.2,0.5,1.2,0.9c0.1,0.6-0.9,0.7-1.3,0.8c-1.3,0.3-2.8,0.3-4-0.2
	c-1.3-0.5-0.5-1.4,0.5-1.8c1.3-0.5,2.8-0.2,4,0.3C132.4,71.1,132.4,70.9,132.4,70.9L132.4,70.9z"/>
<path class="st1" d="M131.1,71.3c-0.5-0.3-2.3-0.4-2.3,0.4c0,0.3,0.3,0.4,0.6,0.4c0.5,0.1,1.3,0.2,1.7-0.2v-0.2
	c-0.3-0.3-1.2-0.4-1.4-0.2v0.2c0.3-0.3,1.2-0.1,1.4,0.2c0-0.1,0-0.1,0-0.2c-0.3,0.3-0.7,0.3-1.1,0.2c-0.3,0-1-0.1-1.1-0.4
	c0,0.1,0,0.1,0,0.2C129,71,130.7,71.1,131.1,71.3C131.1,71.5,131.1,71.3,131.1,71.3L131.1,71.3z"/>
<path class="st1" d="M11.1,71.7c-0.5-0.3,1.1-0.1,0.3,0.5c-0.5,0.4-1.4-0.7-0.7-1.1c0.6-0.4,1.3,0.2,1.4,0.7c0.2,0.9-0.7,1.2-1.4,1
	c-1.3-0.3-1.5-1.6-0.5-2.5c1-0.8,3,0.8,3,1.9c-0.1,1.6-2.1,1.9-3.3,1.4C8.7,73,7.8,71.1,8.7,70c1-1.2,2.4-0.8,3.7-0.4
	c0.7,0.2,1.4,0.3,1.8,0.9c0.5,0.7,0.6,1.8,0.2,2.6c-1.3,2.2-5.9,2.6-7.2,0.3C6.8,72.7,6.6,71.8,7,71c0.4-0.6,0.9-0.6,1.4-1
	c0.5-0.3,0.5-0.8,0.8-1.3c0.4-0.6,1.1-0.9,1.8-0.8c1.2,0.1,2.7,1,3.6,1.7c0.6,0.5,0.9,1.2,0.9,1.9c0,0.8-0.5,1.4-0.9,2
	c-0.8,1.3-1.9,1.8-3.3,2.1c-1.6,0.4-2.7,0.1-3.9-1.1c-1.3-1.3-2-2.6-1-4.3c0.4-0.7,1-1,1.6-1.4s0.8-1.1,1.4-1.5
	c1.3-0.9,3.2-0.2,4.4,0.6c1.7,1.2,2.5,2.9,1.9,4.9c0,0.1,0,0.1,0,0.2c0.3-1,0.4-2,0-3c-0.7-2-3.7-4.1-5.9-3c-0.5,0.2-0.7,0.6-1,1
	c-0.4,0.5-0.8,0.6-1.4,1C6.6,69.6,6,70.7,6,71.7c-0.1,1,0.4,1.8,1,2.5c0.8,0.9,1.6,1.8,2.8,1.9s2.9-0.4,3.9-1.1
	c0.9-0.7,2-2.4,1.9-3.5c-0.1-1.9-2.1-3-3.7-3.6c-1.1-0.4-2.2-0.2-2.8,0.9c-0.3,0.6-0.4,0.8-0.9,1.1c-0.5,0.3-0.9,0.5-1.2,1
	c-0.4,0.8-0.2,1.9,0.3,2.7c1.2,2.2,4.9,1.9,6.5,0.5c0.7-0.6,1.1-1.5,1-2.4c-0.2-1.3-0.9-1.8-2-2.2c-1.3-0.4-2.5-0.9-3.7,0.1
	c-0.7,0.6-0.8,1.4-0.6,2.2c0.4,1.3,1.2,2.1,2.5,2.2c1.2,0.1,2.2-0.5,2.3-1.7c0.1-1.1-0.9-1.8-1.8-2.3c-1-0.6-2,0.6-2,1.7
	c0.1,1.4,2.6,1.9,2.7,0.3c0-0.6-0.4-1.4-1.2-1.3c-0.4,0.1-0.5,0.4-0.6,0.7c-0.1,0.8,1.1,1.4,1.2,0.5C11.8,70.8,10.4,71.4,11.1,71.7
	C11.1,71.9,11.2,71.7,11.1,71.7L11.1,71.7z"/>
<path d="M19.7,65.9c-0.8,0-1.4-0.7-1.4-1.4c0-0.8,0.7-1.4,1.4-1.4c0.8,0,1.4,0.7,1.4,1.4C21.2,65.2,20.5,65.9,19.7,65.9z M19.7,63.2
	c-0.7,0-1.3,0.6-1.3,1.3s0.6,1.3,1.3,1.3s1.3-0.6,1.3-1.3C21,63.7,20.4,63.2,19.7,63.2z"/>
<path d="M36.6,78.4c-0.6,0-1.2-0.5-1.2-1.2c0-0.6,0.5-1.2,1.2-1.2c0.6,0,1.2,0.5,1.2,1.2C37.7,77.9,37.2,78.4,36.6,78.4z M36.6,76.3
	c-0.5,0-1,0.4-1,1c0,0.5,0.4,1,1,1c0.5,0,1-0.4,1-1C37.6,76.7,37.1,76.3,36.6,76.3z"/>
<path d="M71.3,65.9c-1.4,0-2.5-1.1-2.5-2.5c0-1.4,1.1-2.5,2.5-2.5s2.5,1.1,2.5,2.5C73.8,64.8,72.7,65.9,71.3,65.9z M71.3,61
	C70,61,69,62,69,63.3c0,1.3,1,2.3,2.3,2.3s2.3-1,2.3-2.3C73.6,62,72.6,61,71.3,61z"/>
<path d="M87.3,78.6c-0.5,0-1-0.4-1-1s0.4-1,1-1s1,0.4,1,1S87.9,78.6,87.3,78.6z M87.3,76.8c-0.4,0-0.8,0.4-0.8,0.8s0.4,0.8,0.8,0.8
	s0.8-0.4,0.8-0.8S87.8,76.8,87.3,76.8z"/>
<path d="M122.7,65c-1.4,0-2.5-1.1-2.5-2.5s1.1-2.5,2.5-2.5s2.5,1.1,2.5,2.5C125.1,63.9,124,65,122.7,65z M122.7,60.2
	c-1.2,0-2.3,1-2.3,2.3c0,1.2,1,2.3,2.3,2.3c1.2,0,2.3-1,2.3-2.3C125,61.3,123.9,60.2,122.7,60.2z"/>
<path d="M36,67.4l-0.5-0.3L35,67.4l0.1-0.6l-0.4-0.4l0.6-0.1l0.3-0.5l0.2,0.5l0.6,0.1L36,66.8L36,67.4z M34.9,66.6l0.3,0.3l-0.1,0.4
	l0.3-0.2l0.3,0.2l-0.1-0.4l0.3-0.3l-0.4-0.1l-0.2-0.3l-0.2,0.3L34.9,66.6z"/>
<path d="M56.8,64.1L56,63.7l-0.7,0.4l0.1-0.8l-0.6-0.6l0.8-0.1l0.4-0.8l0.4,0.8l0.8,0.1l-0.6,0.6L56.8,64.1z M56,63.6l0.6,0.3
	l-0.1-0.6l0.5-0.5l-0.7-0.1L56,62.1l-0.3,0.6L55,62.8l0.5,0.5l-0.1,0.6L56,63.6z"/>
<path d="M71.1,77.4l-0.5-0.3l-0.5,0.3l0.1-0.6l-0.4-0.4l0.6-0.1l0.3-0.5l0.2,0.5l0.6,0.1L71,76.8L71.1,77.4z M70.1,76.5l0.3,0.3
	l-0.1,0.4l0.3-0.2l0.3,0.2l-0.1-0.4l0.3-0.3h-0.4l-0.2-0.4l-0.2,0.4H70.1z"/>
<path d="M105.9,63.3l-0.5-0.2l-0.5,0.2l0.1-0.5l-0.4-0.4l0.6-0.1l0.3-0.5l0.2,0.5l0.6,0.1l-0.4,0.4L105.9,63.3z M104.8,62.4l0.3,0.3
	l-0.1,0.4l0.3-0.2l0.3,0.2l-0.1-0.4l0.3-0.3h-0.4l-0.2-0.4l-0.2,0.4H104.8z"/>
<path d="M123.9,79.3l-0.5-0.3l-0.5,0.3l0.1-0.6l-0.4-0.4l0.6-0.1l0.3-0.5l0.2,0.5l0.6,0.1l-0.4,0.4L123.9,79.3z M122.8,78.4l0.3,0.3
	l-0.1,0.4l0.3-0.2l0.3,0.2l-0.1-0.4l0.3-0.3h-0.4l-0.2-0.3l-0.2,0.3H122.8z"/>
<path d="M18.5,65.1c1-0.1,1.6-1.1,1.1-2c-0.1-0.1-0.2,0-0.2,0.1c0.4,0.8-0.1,1.7-1,1.7C18.4,64.9,18.4,65.1,18.5,65.1L18.5,65.1z"/>
<path d="M19.9,65.6c0.1-0.3,0.2-0.4,0.5-0.5c0.1-0.1,0.2-0.1,0.2-0.2c0.2-0.3,0-1.1,0.3-1.1c0.1,0,0.1-0.2-0.1-0.2
	c-0.4,0.1-0.3,0.6-0.4,1c-0.1,0.3-0.2,0.3-0.4,0.5c-0.1,0-0.1,0.1-0.1,0.1c-0.1,0.1-0.2,0.3-0.2,0.5C19.7,65.7,19.8,65.8,19.9,65.6
	L19.9,65.6z"/>
<path d="M36,76.3c-0.1,0.6,0.3,1.1-0.1,1.6c-0.1,0.1-0.2,0.4,0.1,0.4c0.1,0,0.1-0.2,0-0.2c0.2,0,0.3-0.5,0.3-0.6
	c0-0.4-0.2-0.7-0.1-1.1C36.2,76.3,36,76.2,36,76.3L36,76.3z"/>
<path d="M37,76.3c-0.3,0.3-0.3,0.8-0.2,1.1c0.2,0.5,0.7,0.1,0.9-0.1c0.1-0.1,0-0.2-0.1-0.2c-0.1,0.1-0.2,0.2-0.3,0.2
	c-0.1,0.1-0.2,0.1-0.3,0c0-0.1,0-0.1,0-0.2c0-0.3,0-0.6,0.2-0.8C37.2,76.3,37,76.2,37,76.3L37,76.3z"/>
<path d="M69.1,62.8c0.6-0.1,0.4,1.1,0.6,1.4c0.2,0.3,0.4,0.3,0.7,0.3c0.4,0.1,0.6,0.1,0.8,0.5c0.1,0.1,0.1,0.2,0.1,0.3
	c0.2,0.2,0.8,0.1,0.9,0.2s0.2,0,0.2-0.1c-0.2-0.4-0.7-0.1-1-0.5c-0.2-0.3-0.2-0.5-0.6-0.5c-0.3-0.1-0.5,0-0.8-0.2
	c-0.3-0.3-0.1-0.6-0.2-1s-0.3-0.6-0.7-0.6C69,62.6,69,62.8,69.1,62.8L69.1,62.8z"/>
<path d="M69.5,61.9c0.1,0.2,0.3,0.3,0.5,0.3c0.4,0.1,0.8-0.2,1.2-0.1c0.7,0.1,0.9-0.4,1.1-1c0-0.1-0.2-0.2-0.2-0.1
	c-0.1,0.5-0.2,1-0.8,1c-0.1,0-0.3-0.1-0.4-0.1C70.5,61.9,69.8,62.3,69.5,61.9C69.6,61.7,69.4,61.8,69.5,61.9L69.5,61.9z"/>
<path d="M70.9,62.6c-0.2,0.1-0.5,0.3-0.5,0.6c0,0.2,0.2,0.3,0.4,0.4c0.4,0.2,0.6,0.6,1,0.7c0.3,0.1,0.6,0.1,0.9,0
	c0.5-0.3,0.7-0.9,0.3-1.4c-0.2-0.2-0.5-0.3-0.8-0.4c-0.2,0-0.4,0.1-0.6,0.1C71.3,62.6,71.1,62.5,70.9,62.6c-0.1,0.1-0.1,0.2,0.1,0.2
	c0.1-0.1,0.4,0.1,0.5,0.1c0.2,0,0.4-0.1,0.5-0.1c0.4,0,0.8,0.1,1,0.4c0.2,0.4-0.1,0.8-0.4,1c-0.6,0.3-1-0.2-1.4-0.5
	c-0.1-0.1-0.2-0.1-0.3-0.2c-0.1,0-0.1,0-0.1-0.1c-0.1-0.3,0-0.5,0.2-0.5C71.1,62.8,71,62.6,70.9,62.6L70.9,62.6z"/>
<path d="M87,77.1c-0.3,0.2-0.3,0.6-0.1,0.8c0.3,0.3,0.7,0.2,0.9-0.1c0.1-0.2,0.2-0.4,0.1-0.5s-0.3-0.2-0.5-0.1s-0.3,0.1-0.4,0.3
	c0,0.2,0.2,0.3,0.3,0.2c0.1-0.1,0-0.2-0.1-0.2c0-0.1,0-0.1,0.1-0.1h0.1c0.1,0,0.1,0,0.1,0c0.1,0,0.2,0,0.2,0.1
	c0.2,0.2-0.2,0.4-0.4,0.5c-0.2,0-0.4-0.1-0.4-0.2c-0.1-0.2,0-0.3,0.2-0.4C87.2,77.2,87.1,77.1,87,77.1L87,77.1z"/>
<path d="M120.5,62.6c0.3-0.6,1.1,0.5,1.4,0.6s0.6-0.1,0.7-0.4c0.1-0.1-0.1-0.2-0.2-0.1c-0.5,0.8-1-0.3-1.5-0.4
	c-0.3-0.1-0.6,0-0.7,0.2C120.3,62.6,120.4,62.7,120.5,62.6L120.5,62.6z"/>
<path d="M122.8,62.6c0.1-0.4,0.5,0,0.5,0.1c0.1,0.1,0.1,0.2,0.1,0.3c0.1,0.1,0.2,0.3,0.3,0.4c0.3,0.2,0.5,0.1,0.7-0.1
	c0.1-0.1-0.1-0.2-0.1-0.1c-0.5,0.6-0.8-0.6-1.2-0.8c-0.2-0.1-0.5,0-0.6,0.3C122.6,62.7,122.8,62.8,122.8,62.6L122.8,62.6z"/>
<path d="M124.5,63.2c0.1-0.1,0.2,0,0.3,0.1c0,0.1,0.2,0.1,0.2-0.1c-0.1-0.2-0.3-0.3-0.5-0.2S124.4,63.3,124.5,63.2L124.5,63.2z"/>
<path d="M121.5,60.6c0.4,0.4-0.2,1,0.2,1.4c0.4,0.4,0.8-0.1,1.1-0.4c0.1-0.1-0.1-0.2-0.2-0.1c-0.2,0.2-0.5,0.5-0.7,0.4
	c-0.3-0.2-0.1-0.5-0.1-0.8s0-0.5-0.2-0.7C121.6,60.3,121.4,60.5,121.5,60.6L121.5,60.6z"/>
<path d="M122.9,61.5c0.1-0.3,0.3,0.3,0.3,0.4c0,0.1,0,0.1,0.1,0.2c0.1,0.1,0.2,0.2,0.3,0.2c0.3,0.1,0.5-0.2,0.6-0.4
	c0.1-0.1-0.1-0.2-0.2-0.1c-0.1,0.1-0.2,0.3-0.4,0.3c-0.3,0.1-0.3-0.2-0.3-0.3s-0.1-0.3-0.2-0.4c-0.2-0.1-0.4-0.1-0.5,0.1
	C122.7,61.6,122.9,61.6,122.9,61.5L122.9,61.5z"/>
<path d="M124.2,61.8c0.3-0.2,0.5,0,0.7,0.2c0.1,0.1,0.2-0.1,0.1-0.1c-0.3-0.2-0.6-0.5-1-0.2C124,61.7,124.1,61.9,124.2,61.8
	L124.2,61.8z"/>
<path d="M122.1,64.7c0.1-0.2,0.2-0.3,0.3-0.4c0.2-0.2,0.5-0.3,0.6,0c0.1,0.2,0.2,0.3,0.3,0.4c0.1,0.1,0.2-0.1,0.1-0.2
	c-0.3-0.2-0.2-0.6-0.6-0.7c-0.4,0-0.7,0.4-0.9,0.7C121.8,64.7,122,64.8,122.1,64.7L122.1,64.7z"/>
</svg>
