<?xml version="1.0" encoding="utf-8"?>
<!-- Generator: Adobe Illustrator 24.0.1, SVG Export Plug-In . SVG Version: 6.00 Build 0)  -->
<svg version="1.1" id="Layer_1" xmlns="http://www.w3.org/2000/svg" xmlns:xlink="http://www.w3.org/1999/xlink" x="0px" y="0px"
	 viewBox="0 0 141.7 141.7" style="enable-background:new 0 0 141.7 141.7;" xml:space="preserve">
<style type="text/css">
	.st0{fill:#231F20;}
</style>
<g id="Layer_1_1_">
</g>
<g id="Layer_1_2_">
</g>
<g id="Layer_1_3_">
</g>
<g id="Layer_1_4_">
</g>
<g id="Layer_1_5_">
</g>
<g id="Layer_3">
</g>
<g id="Layer_3_1_">
</g>
<g id="Layer_1_6_">
</g>
<g id="Layer_1_7_">
</g>
<g id="Layer_1_8_">
</g>
<g id="Layer_1_9_">
</g>
<g id="Layer_1_10_">
</g>
<g id="Layer_1_11_">
</g>
<g id="Layer_1_12_">
</g>
<g id="Layer_1_13_">
</g>
<g id="Layer_1_14_">
</g>
<g id="Layer_1_15_">
</g>
<g id="Layer_1_16_">
</g>
<g id="Layer_1_17_">
</g>
<g id="Layer_1_18_">
</g>
<g id="Layer_1_19_">
</g>
<g id="Layer_1_20_">
</g>
<g id="Layer_2_1_">
	<g>
		<path class="st0" d="M45.6,94.1c-18.7,0-33.9-15.2-33.9-33.9s15.2-33.9,33.9-33.9c18.7,0,33.9,15.2,33.9,33.9S64.3,94.1,45.6,94.1
			z M45.6,26.9c-18.4,0-33.3,15-33.3,33.3c0,18.4,15,33.3,33.3,33.3s33.3-15,33.3-33.3C78.9,41.9,64,26.9,45.6,26.9z"/>
	</g>
	<g>
		<g>
			<path class="st0" d="M70.4,83c-0.1,0.1-0.1,0.1-0.2,0.2c-0.1,0.1-0.2,0.1-0.3,0.2l0,0c0,0,0,0,0,0c0,0.4,0.1,0.9,0.1,1.4
				c0,11.1-9.1,20.2-20.2,20.2c-9.4,0-17.3-6.4-19.5-15.1c-0.2-0.1-0.4-0.2-0.6-0.3c2.2,9.1,10.4,15.9,20.2,15.9
				c11.4,0,20.8-9.3,20.8-20.8C70.4,84.2,70.4,83.6,70.4,83z"/>
		</g>
	</g>
	<g>
		<g>
			<path class="st0" d="M77.1,72.2c-0.1,0.2-0.2,0.3-0.3,0.5c9.5,3,16.5,11.9,16.5,22.3c0,12.9-10.5,23.4-23.4,23.4
				c-9.3,0-17.3-5.5-21.1-13.3c-0.2,0-0.4,0-0.7-0.1c3.8,8.2,12.1,14,21.8,14c13.2,0,23.9-10.7,23.9-23.9
				C93.8,84.3,86.7,75.3,77.1,72.2z"/>
			<path class="st0" d="M69.8,119c-4.7,0-9.2-1.4-13.1-3.9c-3.8-2.5-6.8-6-8.7-10.1l0-0.1l0.1,0c0.2,0.1,0.4,0.1,0.7,0.1l0,0l0,0
				c1.9,3.9,4.8,7.2,8.5,9.6c3.8,2.4,8.1,3.7,12.6,3.7c12.9,0,23.3-10.5,23.3-23.3c0-5.1-1.6-9.9-4.7-14c-2.9-3.9-7.1-6.9-11.8-8.3
				l-0.1,0l0,0c0.1-0.1,0.2-0.3,0.3-0.5l0,0l0,0c4.7,1.5,9,4.6,12,8.6c3.1,4.2,4.7,9.1,4.7,14.3C93.8,108.2,83,119,69.8,119z
				 M48.1,105c1.9,4.1,4.9,7.5,8.6,10c3.9,2.6,8.4,3.9,13.1,3.9c13.2,0,23.9-10.7,23.9-23.9c0-5.2-1.6-10.1-4.7-14.2
				c-3-4-7.2-7-11.9-8.5c-0.1,0.2-0.2,0.3-0.3,0.4c4.7,1.5,8.8,4.4,11.8,8.3c3.1,4.1,4.7,8.9,4.7,14c0,12.9-10.5,23.4-23.4,23.4
				c-4.5,0-8.9-1.3-12.6-3.7c-3.7-2.4-6.6-5.7-8.5-9.6C48.5,105.1,48.3,105.1,48.1,105z"/>
		</g>
	</g>
	<g>
		<g>
			<path class="st0" d="M92.1,86.8c0.1,0.2,0.1,0.4,0.1,0.6c4.6,0.8,8.1,4.8,8.1,9.7c0,5.4-4.4,9.8-9.8,9.8c-0.2,0-0.4,0-0.6,0
				c-0.1,0.1-0.1,0.2-0.2,0.3c0,0,0,0.1,0,0.1c0,0.1-0.1,0.1-0.1,0.2c0.3,0,0.6,0.1,0.9,0.1c5.7,0,10.4-4.6,10.4-10.4
				C100.9,91.8,97.1,87.5,92.1,86.8z"/>
		</g>
	</g>
	<g>
		<g>
			<path class="st0" d="M103,74.6c-5.8,0-10.8,3.3-13.3,8.1c0.2,0.1,0.3,0.2,0.4,0.4c2.4-4.7,7.2-7.9,12.8-7.9
				c7.9,0,14.4,6.5,14.4,14.4S110.9,104,103,104c-1.6,0-3.1-0.3-4.5-0.7c-0.1,0.2-0.3,0.3-0.4,0.4c1.5,0.5,3.2,0.8,4.9,0.8
				c8.2,0,15-6.7,15-15S111.2,74.6,103,74.6z"/>
		</g>
	</g>
	<g>
		<g>
			<path class="st0" d="M112.3,71.8c-2.7,0-5,1.3-6.4,3.3c0.2,0,0.4,0,0.6,0.1c1.3-1.7,3.4-2.9,5.8-2.9c4.1,0,7.4,3.3,7.4,7.4
				c0,2.2-1,4.1-2.4,5.5c0,0,0,0,0,0c0.1,0.2,0.2,0.4,0.2,0.6c1.7-1.5,2.8-3.6,2.8-6C120.2,75.3,116.7,71.8,112.3,71.8z"/>
		</g>
	</g>
	<g>
		<g>
			<path class="st0" d="M121.6,49.9c-4.4,0-7.9,3.6-7.9,7.9c0,2.4,1.1,4.6,2.8,6c0.1,0,0.2,0,0.3,0c0.1-0.1,0.2-0.2,0.3-0.2
				c-1.7-1.3-2.9-3.4-2.9-5.8c0-4.1,3.3-7.4,7.4-7.4s7.4,3.3,7.4,7.4c0,3.7-2.8,6.9-6.5,7.3c0.1,0.1,0.2,0.1,0.2,0.2l0,0
				c0.1,0.1,0.2,0.2,0.3,0.3c3.7-0.7,6.5-3.9,6.5-7.8C129.5,53.4,126,49.9,121.6,49.9z"/>
		</g>
	</g>
	<g>
		<g>
			<path class="st0" d="M118.4,63.5c-4.1,0-7.3,3.3-7.3,7.4c0,0.6,0.1,1.1,0.2,1.6c0.2-0.1,0.4-0.1,0.6-0.1c-0.1-0.5-0.2-1-0.2-1.5
				c0-3.7,3-6.8,6.8-6.8c3.7,0,6.8,3,6.8,6.8c0,3.3-2.4,6.1-5.5,6.7c0.1,0.2,0.2,0.3,0.2,0.5c3.4-0.7,5.9-3.6,5.9-7.2
				C125.7,66.8,122.4,63.5,118.4,63.5z"/>
		</g>
	</g>
	<g>
		<g>
			<path class="st0" d="M121.2,59.6c1.8,0,3.2,1.5,3.2,3.2c0,1-0.5,1.9-1.2,2.5c0.2,0.1,0.3,0.2,0.4,0.4c0.8-0.7,1.4-1.7,1.4-2.9
				c0-2.1-1.7-3.8-3.8-3.8c-2.1,0-3.8,1.7-3.8,3.8c0,0.3,0.1,0.6,0.1,1c0.1-0.1,0.3-0.2,0.4-0.2c0,0,0,0,0.1,0
				c-0.1-0.2-0.1-0.5-0.1-0.7C117.9,61.1,119.4,59.6,121.2,59.6z"/>
		</g>
	</g>
	<g>
		<g>
			<path class="st0" d="M120,41.6c2.6,0,4.8,2.1,4.8,4.8c0,0.4-0.1,0.8-0.1,1.1c0.1,0,0.1,0.1,0.1,0.1c0.1,0.1,0.2,0.3,0.3,0.4
				c0.2-0.5,0.3-1.1,0.3-1.7c0-2.9-2.4-5.3-5.3-5.3c-2.9,0-5.3,2.4-5.3,5.3c0,2,1.1,3.8,2.8,4.7c-0.1-0.2-0.1-0.5-0.1-0.7
				c-1.3-0.9-2.1-2.3-2.1-3.9C115.2,43.7,117.3,41.6,120,41.6z"/>
		</g>
	</g>
	<g>
		<g>
			<path class="st0" d="M117.3,51.7c0.1-0.1,0.2-0.2,0.3-0.2c-0.1-0.4-0.2-0.8-0.2-1.3c0-2.1,1.7-3.8,3.8-3.8s3.8,1.7,3.8,3.8
				c0,0.3-0.1,0.7-0.1,1c0.2,0,0.4,0.1,0.5,0.2c0.1-0.4,0.2-0.8,0.2-1.2c0-2.4-2-4.3-4.3-4.3c-2.4,0-4.3,2-4.3,4.3
				c0,0.6,0.1,1.1,0.3,1.6C117.2,51.7,117.3,51.7,117.3,51.7z"/>
		</g>
	</g>
	<g>
		<g>
			<path class="st0" d="M117.8,37c-3.3,0-6,2.7-6,6c0,2.5,1.5,4.6,3.6,5.5c-0.1-0.3-0.2-0.4-0.2-0.7c0,0,0,0,0-0.1
				c-1.7-0.9-2.8-2.7-2.8-4.8c0-3,2.5-5.5,5.5-5.5c2.7,0,5,2,5.4,4.7c0.3,0.1,0.4,0.2,0.6,0.4C123.6,39.5,121,37,117.8,37z"/>
		</g>
	</g>
	<g>
		<g>
			<path class="st0" d="M112.8,40.9c-0.7-0.3-1.1-0.9-1.1-1.6c0-1,0.8-1.7,1.7-1.7c0.6,0,1.1,0.3,1.5,0.8c0.1-0.1,0.3-0.2,0.4-0.3
				c-0.4-0.6-1.1-1-1.9-1c-1.3,0-2.3,1-2.3,2.3c0,0.9,0.6,1.7,1.4,2.1C112.5,41.3,112.7,41.1,112.8,40.9z"/>
		</g>
	</g>
	<g>
		<path class="st0" d="M101.1,59.9c-1.2,0-2.2-1-2.2-2.2s1-2.2,2.2-2.2c1.2,0,2.2,1,2.2,2.2S102.3,59.9,101.1,59.9z M101.1,55.9
			c-1,0-1.9,0.8-1.9,1.9s0.8,1.9,1.9,1.9c1,0,1.9-0.8,1.9-1.9S102.2,55.9,101.1,55.9z"/>
	</g>
	<g>
		<path class="st0" d="M121.3,107.4c-1,0-1.8-0.8-1.8-1.8c0-1,0.8-1.8,1.8-1.8s1.8,0.8,1.8,1.8C123.1,106.6,122.3,107.4,121.3,107.4
			z M121.3,104.1c-0.8,0-1.5,0.7-1.5,1.5c0,0.8,0.7,1.5,1.5,1.5c0.8,0,1.5-0.7,1.5-1.5C122.8,104.8,122.1,104.1,121.3,104.1z"/>
	</g>
	<g>
		<path class="st0" d="M21.3,104.4c-2.1,0-3.7-1.7-3.7-3.7s1.7-3.7,3.7-3.7c2.1,0,3.7,1.7,3.7,3.7S23.3,104.4,21.3,104.4z
			 M21.3,97.2c-1.9,0-3.5,1.6-3.5,3.5c0,1.9,1.6,3.5,3.5,3.5s3.5-1.6,3.5-3.5C24.7,98.7,23.2,97.2,21.3,97.2z"/>
	</g>
	<g>
		<path class="st0" d="M100.3,41.5c-0.8,0-1.5-0.7-1.5-1.5s0.7-1.5,1.5-1.5c0.8,0,1.5,0.7,1.5,1.5S101.1,41.5,100.3,41.5z
			 M100.3,38.8c-0.7,0-1.2,0.5-1.2,1.2c0,0.7,0.5,1.2,1.2,1.2s1.2-0.5,1.2-1.2C101.5,39.3,100.9,38.8,100.3,38.8z"/>
	</g>
	<g>
		<g>
			<g>
				<path class="st0" d="M31.9,76c0.7-0.4,0.9,0.2,1.5,0.4c0.4,0.1,0.8-0.3,1-0.3c0.3,0,0.6,0.6,0.8,0.9c0.5,0.6,1,1.1,1.6,1.6
					c1.8,1.2,4.5,1.1,5.3-1.2c0.2-0.5,0.3-0.9,0.6-1.3c0.1-0.1,0.2-0.2,0.3-0.3c0.2-0.4,0.1-0.8-0.1-1.1C42,73,39.7,72.7,39,71
					c-0.3-0.9,0.2-1.7-0.1-2.5c-0.2-0.6-0.8-1.1-1.3-1.5c-1.4-1.1-2.9-1.9-4.1-3.1c-1.5-1.4-4.4-5.2-1.2-6.4c1-0.4,2.2-0.4,2.5-1.6
					c0.1-0.2-0.3-0.3-0.3-0.1c-0.4,1.3-2.4,1-3.3,1.8c-0.9,0.8-0.8,2-0.4,3c1,2.9,3.8,4.5,6.1,6.2c0.8,0.5,1.1,0.8,1.4,1.7
					c0.3,0.8,0.2,0.8,0.1,1.5c-0.1,0.6,0.2,1.1,0.5,1.6c0.4,0.5,0.8,0.9,1.3,1.2c0.9,0.6,1.9,1,2.1,2.2c0.2,1.1,0,0.5-0.4,1.3
					c-0.1,0.2-0.1,0.5-0.2,0.7c-0.3,1.1-1,1.8-2.2,2c-2.3,0.3-3.8-1.7-5-3.4c-0.1-0.1-0.2-0.1-0.3,0c-0.8,0.3-1.4,0.2-1.7-0.4
					c-0.1-0.1-0.1-0.1-0.2,0c-0.2,0.1-0.4,0.3-0.7,0.4C31.5,75.9,31.7,76.2,31.9,76L31.9,76z"/>
			</g>
		</g>
	</g>
	<g>
		<g>
			<g>
				<path class="st0" d="M34.9,55.8c0.3-0.4,0.2-0.7-0.1-1.1c-0.1-0.2-0.3-0.3-0.4-0.5c-0.5-0.3-0.7-0.7-0.5-1.4
					c0.4,0.1,0.8,0.3,1.2,0.6c0.1,0,0.2,0,0.2,0c0.2-0.3,0.3-0.5,0.4-0.8c0.1-0.9-0.3-1.3,0.3-2c0.8-1,2-0.8,2.3-2.3
					c0-0.1-0.1-0.3-0.2-0.2c-1.7,0.6-3.9-2-5.5-0.4c-0.5,0.5-0.3,1.1-1.3,0.9c-0.5-0.1-1-0.5-1.5-0.2c-1.2,0.7,0.1,1.9,0.5,2.5
					c1.8,3-2.2,3.6-3.9,4.9c-0.4,0.4-0.9,0.8-1,1.4c-0.3,1,0.6,1.9,0,2.9C25,61,24,61.5,23,61.3c-0.4-0.1-0.8-0.4-1.2-0.5
					c-0.7-0.3-1.4-0.2-2,0.1c-3.7,1.8-1.6,6.2-0.1,8.7c0.1,0.1,0.1,0.1,0.3,0.1c0.7-0.4,1-0.9,1.2-1.6c0.3-1,0-3.2,1.1-3.7
					c0.3,0.1,0.6,0.2,1,0.3c0.8-0.1,1.2,0.3,1,1c0,0.5-0.2,0.8-0.3,1.3c-0.1,0.5-0.2,1-0.2,1.5c0.1,1,0.9,2.8,0,3.7
					c-0.9,0.8-2.3-1.5-3,0.3c-0.9,2,1.9,2.8,2.4,4.4c0.3,1.1-0.1,2.3,0.3,3.5c0.5,1.3,1.6,2.6,2.4,3.8c0.5,0.7,1.9,3.4,3,2
					c1.1-1.3-0.4-4-0.8-5.3c-0.1-0.4-0.5-1.9,0.1-2c0.4-0.1,0.6,1.2,0.6,1.6c0.2,1,0.4,1.9,1.2,2.6c1.3,1.1,3.4,0.7,4.1-0.8
					c0.4-0.7,0.4-1.6,0.2-2.3c-0.5-1.5-3-2.3-2.3-4.1c0.1-0.2-0.3-0.3-0.3-0.1c-0.3,0.9,0,1.6,0.6,2.2c0.5,0.5,1.1,0.9,1.5,1.6
					c0.5,0.9,0.4,2.2-0.3,3c-0.7,0.7-1.8,0.9-2.7,0.5c-0.9-0.4-1.3-1.2-1.5-2.1c-0.3-1.1-0.3-2-1.1-2.9c-0.1-0.1-0.2-0.1-0.3,0
					c-1.1,2.3,1,4.4,0.9,6.8c0,0.6-0.1,1.3-1.1,1.2c-0.5-0.1-1.1-1.2-1.3-1.6c-0.4-0.6-0.8-1.3-1.3-2c-0.5-0.7-1.1-1.5-1.3-2.3
					c-0.4-1-0.1-2-0.2-3c-0.1-1.1-0.8-1.6-1.5-2.3c-0.3-0.3-0.6-0.5-0.8-0.9c-0.4-0.6-0.7-2.1,1.3-1.4c0.3,0.1,0.4,0.5,0.9,0.5
					c0.5,0,0.7-0.3,0.9-0.7c0.2-0.7,0.3-1.6,0.3-2.3c-0.1-1.1-0.5-1.8-0.2-3c0.1-0.6,0.3-1.1,0.3-1.8c-0.1-0.7-0.4-1.4-1.1-1.6
					c-2.2-0.6-2.3,2.8-2.5,4.1c-0.1,0.2-0.1,0.5-0.2,0.7c-0.4,1-0.7,1-1.2,0.3c-0.6-0.7-1-1.8-1.2-2.6c-0.5-1.9,0.1-4.9,2.6-5
					c1.2,0,2,1,3.2,0.7c0.8-0.2,1.6-0.9,1.9-1.7c0.2-0.5,0.1-0.9,0-1.3c-0.1-0.7-0.3-1.2,0.1-1.8c0.3-0.5,0.8-0.8,1.3-1.1
					c1.1-0.7,2.5-1,3.4-2.1c0.6-0.8,0.8-1.7,0.2-2.5c-0.1-0.2-0.4-0.3-0.5-0.5c-0.5-0.4-0.4-1.1,0.3-1.8c0.2,0.1,0.4,0.1,0.6,0.2
					c0.4,0.1,0.8,0.2,1.2,0.1c0.1,0,0.1-0.1,0.1-0.2c0.9-1.2,1.8-1.5,2.8-0.8c0.1,0.1,0.3,0.1,0.4,0.2c0.3,0.1,0.6,0.3,1,0.3
					c0,0,0.9,0,1,0c0.5,0.4-1,1-1.4,1.2c-1.3,0.5-1,0.8-1,2.1c-0.1,2.3-1.5-0.3-2.2,0.9c-0.8,1.3,2.2,2,1.5,3
					C34.5,55.8,34.7,56,34.9,55.8L34.9,55.8z"/>
			</g>
		</g>
	</g>
	<g>
		<g>
			<g>
				<path class="st0" d="M48.8,84.2c-0.9-0.8-0.7-2.1-0.8-3.2c-0.1-0.7-0.3-1.1-0.7-1.7c-0.6-0.8-1.1-1.3-0.8-2.4
					c0.1-0.4,0.4-0.9,0.5-1.3c0.3-0.6,0.4-1.4,0.2-2c-0.2-0.5-0.6-0.9-1.1-1.2c-0.4-0.3-0.9-0.5-1.2-0.9c-0.4-0.6-1-1,0.3-1.9
					c0.4-0.3,1-0.1,1.5-0.3c1.2-0.5,0.2-1.6-0.4-2.3c-1.1-1.4-0.5-2.3,0.6-3.2c0.5-0.4,0.6-0.5,1.3-0.5c0.8-0.1,0.7-0.1,1,0.6
					c0.4,0.6,0.6,1.1,1.4,1.3c1.3,0.3,2.2-0.4,3.4,0.7c0.9,0.8,1.6,1.9,2.6,2.7c1.3,1,3.2,1.7,4.9,1.1c1-0.4,2-1.5,1.1-2.5
					c-0.4-0.5-1.2-0.7-1.7-1.1c-1.7-1.2,0-3.2,0.7-4.6c0.6-1.3,1.7-4,0.5-5.3c-0.4-0.5-1.1-0.4-1.7-0.4c-1.6,0-3.1,0-4.7,0
					c-1.1,0-2,0-3,0.4c-0.8,0.3-1.5,0.6-2.4,0.5c-0.9-0.1-1.8-0.9-2.5-1.5c-0.7-0.6-1.3-1.3-2.2-1.8c-1-0.6-2.5-0.6-3.4-1.4
					c-1.2-1.2-0.4-3.4,0.6-4.4c1.1-1.2,2.7-1.7,4.3-1.3c1.8,0.4,4.1,1.9,5.9,0.9c1.1-0.6,0.4-2.3,0-3.2c-0.3-0.7-0.8-1.3-1.6-1.6
					c-1.1-0.4-2.5-0.8-1.8-2.3c0.3-0.7,1.1-1.2,1.8-1.5c0.9-0.4,1.9-0.6,2.7-1.2c1.2-1,1.1-2.9,3.1-2.7c1.5,0.2,3.7,1.7,5.2,0.3
					c1.4-1.3-0.3-2.9-1.4-3.7c-0.2-0.1-0.4,0.2-0.2,0.3c0.3,0.2,0.7,0.5,1,0.8c0.2,0.2,0.3,0.4,0.5,0.6c-0.1,0.6-0.2,1.3-0.3,1.9
					c-0.5,0.4-1.6,0.3-2.2,0.1c-0.9-0.2-1.8-0.7-2.7-0.8c-2.3-0.2-2.2,2.4-3.9,3.3c-1.5,0.8-3.3,0.9-3.9,2.7c-0.7,2,1.6,2,2.7,2.8
					c1,0.7,1.9,3,0.6,4c-1,0.8-3.4-0.5-4.5-0.8c-1.8-0.6-3.6-0.5-5.1,0.8c-1.2,1-2,2.6-1.7,4.1c0.4,2,2.8,1.9,4.3,2.8
					c1.7,1.1,2.8,3.1,5,3.3c1,0.1,1.8-0.5,2.7-0.8c1.5-0.4,3.5-0.2,5.1-0.2c0.7,0,1.5-0.1,2.2,0c1.1,0.2,1.6,1,1.5,2.1
					c-0.1,1.8-1,3.3-1.8,4.8c-0.7,1.3-1,2.4,0.4,3.3c0.3,0.2,0.7,0.4,1,0.6c0.9,0.6,1,1.6-0.1,2.2c-1.8,1-4,0-5.4-1.3
					c-1.6-1.4-2.3-3.2-4.6-3.1c-0.8,0-1.5,0.1-2.1-0.8c-0.2-0.3-0.3-0.6-0.5-0.8c-0.4-0.4-0.9-0.5-1.5-0.3c-1.2,0.5-2.8,1.9-2.4,3.3
					c0.1,0.4,0.4,0.6,0.6,0.9c0.3,0.3,0.7,0.5,0.8,0.9c-0.1,0.3-0.1,0.7-0.2,1c-0.1,0-0.3,0-0.4,0.1c-0.6,0.3-1.3,0.3-1.7,0.9
					c-0.9,1.5,1.2,2.3,2,3.2c1.7,1.8-1.4,3.9,0,5.8c0.4,0.6,1,1,1.2,1.8c0.1,0.6,0.1,1.2,0.2,1.8c0.1,0.8,0.2,1.4,0.8,1.9
					C48.8,84.6,49,84.3,48.8,84.2L48.8,84.2z"/>
			</g>
		</g>
	</g>
	<g>
		<g>
			<g>
				<path class="st0" d="M61.4,30.8C61.4,30.8,61.5,30.9,61.4,30.8L61.4,30.8L61.4,30.8C61.5,30.8,61.4,30.8,61.4,30.8
					c0.2,0.2,0.4-0.1,0.3-0.2c-0.3-0.4-0.8,0.4-0.3,0.6C61.5,31.2,61.6,30.9,61.4,30.8L61.4,30.8z"/>
			</g>
		</g>
	</g>
	<g>
		<g>
			<g>
				<path class="st0" d="M48.5,84.6c0.3,0.4,0.6,0.8,0.9,1.1c0.5,0.6,0.6,0.7,0.6,1.5c0,0.9-0.4,1.2-1.1,1.7c-0.8,0.6-1.6,1-1.9,2
					c-0.2,0.6-0.3,1.1-0.8,1.5c-0.2,0.1-0.4,0.1-0.6,0.4c-0.3,0.4,0,0.8,0.4,0.9c0.2,0.1,0.3-0.3,0.1-0.3c-0.3-0.1,0.9-0.8,1.1-1
					c0.1-0.1,0.2-0.3,0.2-0.4c0-0.1,0.1-0.3,0-0.4c0-0.3,0-0.5,0.2-0.8c0.3-0.8,0.4-1,1.1-1.5c0.4-0.3,0.8-0.5,1.1-0.8
					c1.5-1.6-0.3-2.9-1.1-4.2C48.7,84.3,48.4,84.4,48.5,84.6L48.5,84.6z"/>
			</g>
		</g>
	</g>
	<g>
		<g>
			<g>
				<path class="st0" d="M28.8,41.3c-1-1.5,2.1-1.7,2.6-1.8c0.9-0.2,1.8-0.4,2.7-0.7c1-0.3,2.3-0.6,2.9-1.6c0.1-0.1,0-0.3-0.1-0.3
					c-1.4,0-2.7,0.6-4.1,0.6c-1,0-1.4-0.1-1.6-1.1c-0.3-1-0.2-0.8,0.3-1.6c0.4-0.7,0.9-1.6,1.5-2.1c1.6-1.4,2.9,0.5,4.5,0.8
					c1.3,0.2,2.6-0.3,3.9-0.2c1.3,0.1,2.1,0.9,2.6,2c0.3,0.5,0.5,1,0.5,1.6c0,1.1-0.9,1.5-1.8,1.2c-1.3-0.3-2.2-0.7-3.5-0.4
					c-1.4,0.3-2.6,1.2-3.9,1.9c-0.8,0.5-1.6,0.9-2.5,1.2c-0.3,0.1-4.1,1.3-3.6-0.1c0.1-0.2-0.3-0.3-0.3-0.1c-0.6,1.5,1.5,1.2,2.3,1
					c1.2-0.3,2.3-0.6,3.4-1.2c1.2-0.6,2.2-1.4,3.4-2c1.6-0.7,2.9-0.5,4.5,0c0.6,0.2,1.2,0.3,1.7-0.1c1.3-0.9,0.3-2.9-0.4-3.9
					c-1.2-1.9-2.9-1.4-4.9-1.2c-0.6,0.1-1.3,0.1-2-0.1c-0.6-0.2-1-0.7-1.5-1c-0.6-0.4-1.3-0.4-2-0.1c-0.6,0.3-1,0.8-1.4,1.3
					c-0.5,0.7-1.4,1.7-1.6,2.6c-0.3,1.6,1.6,2,2.8,1.9c0.4-0.1,0.8-0.2,1.3-0.3c0.3-0.1,0.6-0.1,0.8-0.2c0.4-0.1,1.9-0.5,0.7,0.3
					c-1.2,0.8-3,1.1-4.4,1.4c-1,0.2-4.3,0.5-3.1,2.3C28.6,41.7,28.9,41.5,28.8,41.3L28.8,41.3z"/>
			</g>
		</g>
	</g>
	<g>
		<g>
			<g>
				<path class="st0" d="M38.8,61.7c-0.9-0.5-1.9,0-2.2,1c-0.3,1.5,1.1,2.7,2.3,3.3c1.2,0.7,2.8,1.3,4,0.3c1.1-0.9,1.1-2.5,1.1-3.7
					c0-0.2-0.4-0.2-0.3,0c0,1.9-0.5,4.4-3,3.8c-0.8-0.2-1.5-0.6-2.1-1c-0.4-0.3-1-0.7-1.3-1.2c-0.5-1-0.1-2.9,1.3-2.2
					C38.8,62.1,39,61.8,38.8,61.7L38.8,61.7z"/>
			</g>
		</g>
	</g>
	<g>
		<g>
			<g>
				<path class="st0" d="M43.9,62.5c0.5-0.9,1.8-0.6,2.4-1.5c0.5-0.8,0.2-1.9,0.1-2.7c-0.1-0.6-0.1-2-0.8-2.3
					c-0.6-0.3-1.4,0.3-1.9,0.6C43,57,42.4,57.5,42,58.3c-0.3,0.6-0.2,1.1-0.3,1.8c-0.1,0.6-0.2,1.4-0.6,1.8c-1.3,0.2-1.9-0.1-2-0.9
					c0-0.1,0-0.1,0-0.2c-0.3-0.2-0.1-0.5-0.7-0.4c-0.6,0.2-0.4,1-0.2,1.4c0.1,0.2,0.4,0,0.3-0.2c0.2-0.6,0.3-0.7,0.2-0.2
					c0,0.1,0,0.1,0.1,0.2c0.1,0.2,0.1,0.3,0.3,0.6c0.3,0.3,0.7,0.5,1.1,0.5c1.3,0,1.7-1.3,1.7-2.3c0.1-1.6,0.4-2.5,1.8-3.3
					c0.5-0.3,1.3-0.8,1.8-0.2c0.2,0.3,0.2,1.1,0.3,1.5c0.1,0.8,0.6,2.3-0.3,2.9c-0.3,0.2-0.8,0.3-1.1,0.4c-0.4,0.2-0.7,0.4-0.9,0.8
					C43.5,62.6,43.8,62.7,43.9,62.5L43.9,62.5z"/>
			</g>
		</g>
	</g>
	<g>
		<g>
			<g>
				<path class="st0" d="M39.8,95.1c0.7,1.1,1.5,2.3,2.4,3.2c1,1,2.3,1.6,3.2,2.6c0.4,0.5,2.8,4.1,3.5,3.2c0.4-0.4-0.2-0.9-0.5-1.1
					c-1.1-1-1.9-2.3-2.9-3.4c-1-1.1-2-2.2-3.1-3.2c-0.6-0.6-1.6-1.9-2.5-1.8c-0.1,0-0.1,0.1-0.2,0.1C39.6,94.8,39.6,94.8,39.8,95.1
					c0.1,0,0.2,0,0.3-0.1c0,0,0.1,0,0.1-0.1c0.2-0.1,0-0.4-0.2-0.3c0.3-0.2,2.5,2.2,2.7,2.3c0.7,0.7,1.4,1.4,2.1,2.2
					c0.7,0.8,1.3,1.6,2,2.5c0.3,0.4,0.6,0.7,0.9,1.1c0.1,0.1,1,0.9,0.5,0.8c-0.5-0.1-1.4-1.6-1.7-2c-0.6-0.7-1.2-1.3-1.9-1.9
					c-0.8-0.6-1.6-1.1-2.3-1.8c-0.9-0.9-1.5-1.9-2.2-3C40,94.7,39.7,94.9,39.8,95.1L39.8,95.1z"/>
			</g>
		</g>
	</g>
	<g>
		<g>
			<g>
				<path class="st0" d="M50.9,102.7c-2.5-0.9-2.6-4-4-5.9c-0.1,0.1-0.1,0.2-0.1,0.3c0.6,0.1,1.4,1.4,1.7,1.9c0.3,0.4,0.7,0.9,1,1.4
					c0.7,1,1.5,2,2.2,3c0.1-0.1,0.1-0.2,0.1-0.3c-0.6,0-1-0.2-1.5-0.6c-0.2-0.1-0.4,0.1-0.3,0.3c0.5,0.4,1,0.6,1.7,0.6
					c0.1,0,0.2-0.2,0.1-0.3c-1.1-1.5-2.2-2.9-3.3-4.3c-0.5-0.7-1.1-2-2-2.1c-0.1,0-0.2,0.2-0.1,0.3c1.5,2,1.6,5.1,4.2,6.1
					C51,103.1,51.1,102.8,50.9,102.7L50.9,102.7z"/>
			</g>
		</g>
	</g>
	<g>
		<g>
			<g>
				<path class="st0" d="M47.7,96.8c0.9,1,1.7,2,2.6,3.1c0.8,1,1.6,2.2,2.6,3.1c0.5,0.4,1.6,1,1.6-0.2c-0.1-1.4-2.4-2.6-3.2-3.5
					c-1-1.2-1.7-3.2-3.4-3.6c-0.1,0-0.2,0.1-0.2,0.2c0,0.2,0.1,0.4,0.1,0.7c0,0.2,0.4,0.2,0.3,0c-0.1-1,1.1,0.4,1.4,0.8
					c0.3,0.5,0.6,1,1,1.5c0.7,1,1.6,1.7,2.5,2.5c0.1,0.1,0.6,0.4,0.6,0.6c-0.1,0.3-0.3,0.6-0.4,0.9c-0.1-0.1-0.2-0.3-0.3-0.4
					c-0.6-0.4-1.1-1.3-1.5-1.8c-1.1-1.3-2.2-2.6-3.3-3.9C47.8,96.4,47.5,96.7,47.7,96.8L47.7,96.8z"/>
			</g>
		</g>
	</g>
	<g>
		<g>
			<g>
				<path class="st0" d="M43,94.9c0.8,1.5,1.8,2.9,3.1,3.9c0.1,0.1,0.3,0.1,0.3-0.1c0.2-0.8-0.3-1.3-0.8-1.9c-0.7-0.9-1.3-1.7-2-2.6
					c-0.1-0.1-0.2-0.1-0.3-0.1c-0.1,0.1-0.3,0.2-0.4,0.3c-0.2,0.1,0,0.4,0.2,0.3c0.5-0.4,1.1,1,1.4,1.3c0.4,0.6,1.7,1.7,1.4,2.6
					c0.1,0,0.2-0.1,0.3-0.1c-1.3-1.1-2.3-2.4-3-3.9C43.2,94.5,42.9,94.7,43,94.9L43,94.9z"/>
			</g>
		</g>
	</g>
	<g>
		<g>
			<g>
				<path class="st0" d="M34.4,93.3c1,0.9,2,1.8,2.9,2.7c0.3,0.2,0.8,0.9,1.2,0.5c0.4-0.4-0.3-1.2-0.6-1.5c-0.8-1-1.6-1.9-2.4-2.9
					c-0.1-0.2-0.4,0.1-0.3,0.3c0.5,0.6,1,1.1,1.4,1.7c0.2,0.2,1.6,1.9,1.5,2c-0.3,0.1-1.3-1.1-1.7-1.4c-0.6-0.6-1.2-1.1-1.8-1.7
					C34.4,92.9,34.2,93.2,34.4,93.3L34.4,93.3z"/>
			</g>
		</g>
	</g>
	<g>
		<g>
			<g>
				<path class="st0" d="M34.7,93c-0.4-0.3-0.7-0.7-0.9-1.1c-0.1-0.2-0.4,0-0.3,0.2c0.2,0.5,0.6,1,1,1.3
					C34.7,93.4,34.9,93.1,34.7,93L34.7,93z"/>
			</g>
		</g>
	</g>
	<g>
		<g>
			<g>
				<path class="st0" d="M50.7,93.6c1.8,0.3,2.3,3.2,3,4.5c0.6,1.1,1.4,2,2.5,2.6c0.1,0.1,0.3,0,0.3-0.2c-0.7-1.6-2.1-2.6-2.6-4.3
					c-0.4-1.2-0.6-2.4-1.7-3.2c-0.2-0.1-0.4,0.2-0.2,0.3c1.3,1,1.3,2.7,1.9,4.1c0.6,1.2,1.7,2,2.2,3.2c0.1-0.1,0.2-0.1,0.3-0.2
					c-1.9-0.9-2.6-2.8-3.4-4.6c-0.5-1-1-2.3-2.3-2.5C50.5,93.2,50.4,93.6,50.7,93.6L50.7,93.6z"/>
			</g>
		</g>
	</g>
	<g>
		<g>
			<g>
				<path class="st0" d="M53.1,93c0.7,3.6,4.6,5.1,5.8,8.4c0.1,0.1,0.2,0.2,0.3,0c0.5-0.8,0.3-1.6-0.1-2.5c-0.3-0.6-1.3-1.8-1-2.4
					c-0.1-0.5,0.1-0.5,0.4-0.2c0.1,0.1,0.3,0.1,0.4,0.2c0.1,0,0.3,0,0.3,0.1c0.1,0,0.1,0,0.1-0.1c0.3-0.4-0.1-0.6-0.3-0.9
					c-1-1.1-2.2-2-3.2-3c-0.2-0.1-0.4,0.1-0.3,0.3c0.8,0.7,1.5,1.4,2.3,2.1c0.1,0.1,1.1,1.1,1.1,1.1c-0.3,0.3-1-0.3-1.1-0.4
					c-0.1-0.1-0.2,0-0.3,0.1c-0.4,2,2.3,3.7,1.2,5.6c0.1,0,0.2,0,0.3,0c-1.2-3.3-5.2-4.8-5.8-8.4C53.4,92.7,53.1,92.8,53.1,93
					L53.1,93z"/>
			</g>
		</g>
	</g>
	<g>
		<g>
			<g>
				<path class="st0" d="M58,91.7c1,1.1,1.8,2.3,2.5,3.7c0.6,1.2,0.8,2.6,1.6,3.7c0.1,0.1,0.2,0.1,0.3,0c0.3-0.4,0.3-0.7,0.3-1.2
					c-0.1-0.7-0.6-2.5,0.6-1.4c0.1,0.1,0.2,0.1,0.3,0c0.6-1.3-0.3-2.5-0.3-3.8c0-0.5,0.3-1,0.1-1.5c-0.3-0.6-1-0.9-1.3-1.6
					c-0.1-0.2-0.4-0.1-0.3,0.1c0.1,0.3,0.2,0.5,0.4,0.7c0.1,0.2,0.4,0.3,0.6,0.5c0.2,0.4,0.2,1.1,0.2,1.5c0,0.5,0,0.9,0.2,1.4
					c0.1,0.6,0.6,2.6-0.4,1.7c-0.1-0.1-0.2-0.1-0.3,0c-0.3,0.4-0.4,0.7-0.4,1.2c0,0.5,0.3,1.1,0.2,1.5c-0.2,1.1-0.7-1-0.8-1.3
					c-0.8-2-1.9-3.9-3.3-5.5C58.1,91.3,57.8,91.6,58,91.7L58,91.7z"/>
			</g>
		</g>
	</g>
	<g>
		<g>
			<g>
				<path class="st0" d="M63.3,89.4c0.6,1.3,1.2,2.5,2,3.7c0.3,0.5,0.7,1.2,1.4,0.9c0.1,0,0.1-0.1,0.1-0.2c-0.7-1.8-1.6-3.5-2.8-5
					c-0.1-0.2-0.4,0-0.3,0.2c1,1.3,1.8,2.6,2.4,4.1c0.6,1.3-0.3,0.2-0.5-0.2c-0.3-0.4-0.5-0.8-0.7-1.3c-0.4-0.8-0.8-1.5-1.1-2.3
					C63.5,89,63.2,89.2,63.3,89.4L63.3,89.4z"/>
			</g>
		</g>
	</g>
	<g>
		<g>
			<g>
				<path class="st0" d="M64.5,88.5c0.4,1.3,1.1,2.5,2.2,3.4c0.1,0.1,0.3,0,0.3-0.1c-0.1-1.5-0.6-2.9-1.6-4.1
					c-0.1-0.2-0.4,0.1-0.3,0.3c0.9,1.1,1.5,2.4,1.5,3.8c0.1,0,0.2-0.1,0.3-0.1c-1-0.9-1.7-1.9-2-3.2C64.8,88.2,64.4,88.2,64.5,88.5
					L64.5,88.5z"/>
			</g>
		</g>
	</g>
	<g>
		<g>
			<g>
				<path class="st0" d="M66,86.9c0.2,1.1,0.7,2,1.5,2.8c0.1,0.1,0.3,0,0.3-0.1c0.1-1.2,0.5-2.2,1-3.2c0.3-0.6,0.4-1.1,0.1-1.8
					c-0.1-0.2-0.4,0-0.3,0.2c0.4,0.9-0.4,1.9-0.7,2.7c-0.3,0.7-0.4,1.4-0.4,2.2c0.1,0,0.2-0.1,0.3-0.1c-0.8-0.7-1.2-1.6-1.4-2.7
					C66.3,86.6,66,86.7,66,86.9L66,86.9z"/>
			</g>
		</g>
	</g>
	<g>
		<g>
			<g>
				<path class="st0" d="M31.6,91.5c1,1.9,2.3,3,4,4.3c0.9,0.7,1.6,1.6,2.4,2.4c0.7,0.6,2,1,2.5,1.7c0.6,0.3,0.4,0.6-0.5,0.7
					c-0.3-0.2-0.5-0.4-0.8-0.6c-0.4-0.4-0.9-0.7-1.3-1.1c-0.9-0.7-1.8-1.4-2.6-2.2c-1.9-1.7-3.6-3.8-3.9-6.4c0-0.2-0.4-0.2-0.3,0
					c0.3,2.7,1.9,4.8,3.9,6.5c1.2,1.1,2.5,2.1,3.7,3.1c0.5,0.4,1.6,1.8,2.5,1.6c2-0.4-1.6-2.8-1.9-3c-1.4-0.9-2.4-2.3-3.7-3.3
					c-1.5-1.1-2.6-2.3-3.5-3.9C31.8,91.2,31.5,91.3,31.6,91.5L31.6,91.5z"/>
			</g>
		</g>
	</g>
	<g>
		<g>
			<g>
				<path class="st0" d="M67.5,94.4c1.1,0.6,2.2,0.4,3.4,0.2c0.8-0.2,1.6-0.5,2.4-0.5c1.3,0,1.7,0.7,2.5,1.6
					c0.7,0.8,1.8,1.2,2.8,0.6c0.5-0.3,0.6-0.8,0.9-1.2c1.1-1.5,2.7-0.5,3.8,0.3c1,0.8,2.3,1.6,3.6,1c0.4-0.2,0.6-0.4,0.8-0.8
					c0.3-0.6,0.1-1,0.6-1.6c0.2-0.3,0.5-0.4,0.8-0.7c0.9-0.9,0.8-1.8,0.1-2.9c-0.6-1.1-1.2-2-0.8-3.3c0.3-1.2,1.2-2.1,2.4-2.5
					c0.2-0.1,0.1-0.4-0.1-0.3c-2.2,0.6-3.4,3.1-2.5,5.2c0.5,1.1,1.8,2.4,0.6,3.6c-0.4,0.4-0.9,0.7-1.1,1.3C87.4,95,87.6,95,87,95.6
					c-0.7,0.8-1.5,0.7-2.4,0.2c-0.8-0.4-1.4-1.1-2.2-1.5c-0.8-0.4-2-0.6-2.7-0.1C79,94.9,79,95.8,78,96.1c-1.6,0.4-1.9-1.1-2.9-1.8
					c-2.2-1.8-5.1,1.2-7.4-0.2C67.5,94,67.3,94.3,67.5,94.4L67.5,94.4z"/>
			</g>
		</g>
	</g>
	<g>
		<g>
			<g>
				<path class="st0" d="M53.9,105c-0.4,1.2,0.2,2.3,1.1,3.1c0.6,0.6,1.4,1,2,1.5c0.6,0.5,1,1.2,1.5,1.7c0.8,1,1.8,1,3,0.7
					c1.3-0.3,2.3-0.4,3.4,0.5c0.5,0.4,1,1,1.5,1.5c1.2,1,2.5,0.6,4,1.1c1.6,0.4,2.5,1.6,4.3,1.3c1.6-0.3,3.2-1.3,4.6-2.2
					c1.6-1,3.1-2.1,4.6-3.2c0.2-0.1-0.1-0.4-0.3-0.3c-1.3,1.1-2.7,2-4.1,2.9c-1.4,0.8-2.9,1.9-4.4,2.3c-2,0.5-3-0.8-4.7-1.2
					c-0.5-0.1-1-0.1-1.6-0.2c-1.1-0.1-1.8-0.5-2.6-1.2c-0.6-0.6-1.1-1.3-1.9-1.6c-1-0.5-2-0.1-3,0.1c-2.2,0.4-2.6-1.3-3.9-2.4
					c-1.3-1.1-3.7-2.2-3-4.3C54.3,104.8,54,104.8,53.9,105L53.9,105z"/>
			</g>
		</g>
	</g>
	<g>
		<g>
			<g>
				<path class="st0" d="M66.4,99.4c1.6,0.7,3.3,1.4,4.9,2.1c1.5,0.6,3.3,1.2,4.5,2.3c1.4,1.3,2.6,3.4,4.7,1.9
					c1.2-0.9,1.6-2.4,2.7-3.4c1-1,2.5-1.5,3.6-2.3c1.8-1.4,2.8-3.8,1.6-5.9c-0.1-0.2-0.4,0-0.3,0.2c1.7,3.1-1.2,5.4-3.6,6.7
					c-0.8,0.5-1.5,1-2.1,1.8c-0.8,1.1-1.3,2.7-2.8,3.1c-1.6,0.4-2.3-1-3.3-2c-0.7-0.7-1.6-1.2-2.5-1.6c-2.4-1.1-4.8-2.1-7.3-3.1
					C66.4,99,66.2,99.3,66.4,99.4L66.4,99.4z"/>
			</g>
		</g>
	</g>
	<g>
		<g>
			<g>
				<path class="st0" d="M66.7,99.1c-0.5-0.3-0.9-0.7-1.2-1.2c-0.1-0.2-0.4,0-0.3,0.2c0.3,0.6,0.8,1,1.3,1.3
					C66.7,99.6,66.8,99.3,66.7,99.1L66.7,99.1z"/>
			</g>
		</g>
	</g>
	<g>
		<g>
			<g>
				<path class="st0" d="M84,110.9c0.9-0.9,1.9-1.3,3.1-1.4c0.7-0.1,1.3-0.1,2-0.5c0.2-0.1,0-0.4-0.2-0.3c-0.9,0.6-2.1,0.4-3.1,0.7
					c-0.8,0.3-1.5,0.7-2.1,1.3C83.6,110.8,83.9,111.1,84,110.9L84,110.9z"/>
			</g>
		</g>
	</g>
	<g>
		<g>
			<g>
				<path class="st0" d="M70.2,84.4c1.6,0.6,2.7,2.6,4.7,2c0.8-0.3,1.5-1,2-1.6c1-1,2.1-1.6,3.1-2.5c1.3-1.1,1.8-2.5,0.7-3.9
					c-1.1-1.5-3-3-4.9-3c-0.2,0-0.2,0.3,0,0.3c1.7,0,4.1,1.6,4.9,3.2c1.3,2.5-1.5,3.4-3,4.6c-1.3,1.1-2.4,3.2-4.5,2.5
					c-1.1-0.4-1.8-1.5-2.9-1.9C70.1,84,70,84.4,70.2,84.4L70.2,84.4z"/>
			</g>
		</g>
	</g>
	<g>
		<g>
			<g>
				<path class="st0" d="M93,89.6c1.1,0,2.1,0.8,2.1,1.9c0.1,1.1-0.8,2-1.8,2.2c-0.2,0-0.1,0.4,0.1,0.3c1.2-0.2,2.2-1.3,2.1-2.6
					c-0.1-1.3-1.3-2.2-2.5-2.2C92.8,89.3,92.8,89.6,93,89.6L93,89.6z"/>
			</g>
		</g>
	</g>
	<g>
		<g>
			<g>
				<path class="st0" d="M92.8,89c2.7,0.7,4.5,3.4,4.4,6.2c-0.1,2.8-2.1,5.2-4.5,6.4c-0.2,0.1,0,0.4,0.2,0.3c2.7-1.3,4.8-4,4.7-7.1
					c-0.1-2.8-1.9-5.4-4.6-6.1C92.6,88.6,92.5,88.9,92.8,89L92.8,89z"/>
			</g>
		</g>
	</g>
	<g>
		<g>
			<g>
				<path class="st0" d="M95.4,88.3c0.6-2.3,2.8-4,5.2-3.4c1.2,0.3,1.9,1,2.7,1.8c0.4,0.4,0.8,0.8,1.3,0.8c0.8,0.1,1.2-0.5,1.3-1.2
					c0-0.3-0.1-0.8-0.1-1.1c0.7-2.7,1.9-0.7,2.2-0.1c0.2,0.4,0.4,0.8,0.8,1c0.3,0.1,0.6,0.1,1,0c0.7-0.3,0.7-0.5,1.5-0.6
					c1.4-0.1,1.9,1,1.8,2.4c-0.1,1-0.8,2.4,0.2,3.2c0.6,0.5,1.5,0.3,2-0.4c1.2-1.4-0.3-4,1.7-4.9c0.2-0.1,0-0.4-0.2-0.3
					c-1.5,0.7-1.1,2.2-1.3,3.6c-0.1,0.4-0.2,0.8-0.3,1.2c-1.8,0.3-2.5-0.1-2-1.3c0.1-0.5,0.3-1,0.3-1.5c0-0.6-0.1-1.1-0.4-1.5
					c-0.5-0.8-1.4-1.2-2.3-0.9c-0.8,0.3-0.7,0.7-1.6,0.4c-0.8-0.3-0.7-0.4-1.1-1c-0.2-0.3-0.5-0.6-0.9-0.6c-1-0.3-1.6,0.6-1.7,1.5
					c0,0.3,0.2,0.8,0.1,1.1c-0.9,0.7-1.5,0.8-2,0.1c-0.1-0.1-0.2-0.2-0.3-0.3c-0.6-0.6-1.2-1.1-2-1.5c-2.8-1.1-5.6,0.6-6.3,3.5
					C95,88.4,95.3,88.5,95.4,88.3L95.4,88.3z"/>
			</g>
		</g>
	</g>
	<g>
		<g>
			<g>
				<path class="st0" d="M92,80.2c0.4,0,0.9-0.1,1.3,0c1.1,0.1,1.1,0.2,1.4,1.3c0.4,1.3,0.3,0.9-0.1,1.7c-0.1,0.1-0.2,0.3-0.2,0.4
					c-0.1,0.4,0,0.4,0.1,0.8c0.1,0.4,0.4,0.8,0.3,1.2c-0.1,0.6-0.8,1.1-1.2,1.5c-0.1,0.1,0,0.4,0.2,0.3c0.2-0.1,0.3-0.1,0.5-0.2
					c0.2-0.1,0.1-0.4-0.1-0.3C94,87,93.8,87,93.6,87.1c0.1,0.1,0.1,0.2,0.2,0.3c0.7-0.6,1.5-1.3,1.4-2.3c0-0.3-0.3-0.6-0.4-0.8
					c-0.2-0.8,0.6-1.3,0.8-2c0.7-2.2-2.1-2.5-3.6-2.5C91.8,79.8,91.8,80.2,92,80.2L92,80.2z"/>
			</g>
		</g>
	</g>
	<g>
		<g>
			<g>
				<path class="st0" d="M97.8,76.8c0,0.8,0.5,1.2,1,1.7c0.7,0.8,0.5,1.4,0.2,2.3c-0.1,0.3-0.3,0.6-0.1,0.9c0.6,2.1,3.2,0.1,4.2-0.1
					c1.5-0.3,2.1,1.1,3.4,1.1c0.9,0,1.4-0.6,2.3,0c0.7,0.5,0.3,0.4,0.7,1c0.4,0.6,1.2,0.3,1.7-0.1c1-0.7,1.8-3.2,3.4-2.4
					c0.2,0.1,0.4-0.2,0.2-0.3c-0.6-0.3-1.2-0.2-1.8,0.2c-0.8,0.5-1.5,2.5-2.5,2.5c-0.9,0-0.8-1.1-1.5-1.5c-0.3-0.1-0.7-0.1-1-0.1
					c-1.1,0.1-1.1,0.6-2.6-0.2c-0.6-0.3-1.2-0.7-1.9-0.6c-0.4,0-0.8,0.2-1.2,0.4c-0.4,0.2-0.7,0.4-1.1,0.5c-0.8,0.3-1.1,0.3-1.5-0.6
					c-0.4-1-0.1-0.6,0.1-1.3c0.1-0.1,0.1-0.3,0.1-0.4c0-0.2,0-0.4-0.1-0.6c-0.3-1-1.6-1.3-1.6-2.4C98.1,76.5,97.8,76.5,97.8,76.8
					L97.8,76.8z"/>
			</g>
		</g>
	</g>
	<g>
		<g>
			<g>
				<path class="st0" d="M103.9,91.7c-0.4,0.3-0.6,0.5-0.6,1c0,0.4,0.1,0.7,0.1,1.1c0,0.8-0.5,1.5-0.9,2.2c-0.7,1.2-1,2.7-0.1,3.9
					c0.7,1,2.1,1.4,3.2,0.9c1-0.4,1.7-1.1,2.8-1.4c1-0.3,2-0.4,3-0.8c1.5-0.6,2.4-1.7,3-3.1c0.4-0.9,0.6-2.1-0.7-2.1
					c-0.3,0-0.7,0.3-1.1,0.3c-0.5,0-1.3-0.7-1.5-1.1c-0.1-0.1-0.1-0.3-0.1-0.5c-0.1-0.7-0.4-1.3-0.8-1.9c-0.6-0.8-2.1-2-3.2-1.6
					c-0.5,0.1-0.6,0.5-0.8,1c-0.2,0.7,0.1,1.4-1.2,0.9c-0.2-0.1-0.3-0.3-0.5-0.4c-1.2-0.5-1.2,1-1,1.7c0.1,0.2,0.4,0.1,0.3-0.1
					c-0.2-0.3-0.1-0.6,0.4-0.6c0.3-0.4,0.5-0.5,0.7-0.2c0.1,0,0.2,0.2,0.3,0.2c0.3,0.1,0.5,0.1,0.7,0c0.3-0.1,0.3-0.3,0.4-0.6
					c0.1-0.3,0-0.6,0.1-0.9c0.4-0.8,1-0.8,1.7-0.5c0.9,0.3,1.6,1,2.1,1.9c0.4,0.7,0.3,1.6,0.6,2.3c0.4,0.8,0.9,0.8,1.7,0.7
					c0.2-0.1,0.3-0.1,0.5-0.2c1,0.4,1.3,0.9,0.9,1.5c-0.1,0.5-0.5,1-0.8,1.4c-0.6,0.9-1.5,1.4-2.6,1.7c-1.3,0.4-2.8,0.5-4,1.2
					c-1.2,0.7-2.5,1.6-3.8,0.3c-0.9-0.9-0.9-2.4-0.3-3.5c0.3-0.6,0.8-1.2,1-1.9c0.2-0.6-0.1-2.2,0.4-2.6
					C104.3,91.9,104.1,91.6,103.9,91.7L103.9,91.7z"/>
			</g>
		</g>
	</g>
	<g>
		<g>
			<g>
				<path class="st0" d="M113.1,78.6c-0.1-0.5,0.1-1,0.5-1.3c0.4-0.3,0.8-0.2,1.2-0.2c0.3,0,0.4-0.1,0.6-0.2c0.1,0,0.6-0.1,0.6-0.1
					c0.4,0.2,0.1,0.9,0,1.1c-0.6,0.8-2,1.3-1.4,2.5c0.1,0.2,0.4,0,0.3-0.2c-0.6-1.2,1.5-1.7,1.6-2.8c0.1-0.5-0.3-1.2-0.8-1.1
					c-0.4,0-0.8,0.4-1.2,0.4c-0.4,0-0.7,0-1,0.2c-0.6,0.4-1,1.1-0.8,1.8C112.9,78.9,113.2,78.8,113.1,78.6L113.1,78.6z"/>
			</g>
		</g>
	</g>
	<g>
		<g>
			<g>
				<path class="st0" d="M110.3,76.2c-0.2-0.8,1.1-1.8,0.3-2.5c-0.3-0.3-0.8-0.1-1.1,0.1c-0.5,0.4-0.6,1.1-0.9,1.6
					c-0.1,0.2,0.2,0.4,0.3,0.2c0.2-0.4,0.3-1,0.6-1.3c0.3-0.4,1.2-0.5,1,0.2c-0.1,0.6-0.7,1.1-0.5,1.8
					C110,76.5,110.3,76.4,110.3,76.2L110.3,76.2z"/>
			</g>
		</g>
	</g>
	<g>
		<g>
			<g>
				<path class="st0" d="M113.4,75c-0.6,0.1-0.8-0.1-0.6-0.5c-0.1-0.2,0-0.4,0.2-0.4c0.2-0.3,0.5-0.3,0.8-0.3c0.4,0,1,0.1,1.3,0.4
					c0.1,0.1,0.2,0.1,0.3,0.2c-0.1,0.3-0.1,0.5-0.2,0.8c-0.1,0.1-0.5,0-0.7,0C114.2,75.1,113.9,75,113.4,75
					c-0.2,0.1-0.1,0.4,0.1,0.4c0.6-0.1,2.2,0.4,2.3-0.7c0.1-0.9-1.2-1.2-1.8-1.3c-0.7-0.1-1.6,0.2-1.7,1c-0.1,0.7,0.6,1.2,1.2,0.9
					C113.8,75.2,113.6,74.9,113.4,75L113.4,75z"/>
			</g>
		</g>
	</g>
	<g>
		<g>
			<g>
				<path class="st0" d="M116.9,81.5c-0.2-0.5-0.2-1.1-0.1-1.6c0.1-0.3,0.2-0.5,0.3-0.7c0.1-0.3,0.4-0.4,0.7-0.3
					c0.4-0.1,0.7,0,0.8,0.5c0.1,0.4,0.1,1.1-0.1,1.5c-0.1,0.3-0.2,0.7-0.4,1c-0.1,0.1-0.2,0.2-0.3,0.2c-0.6,0.3-1,0.1-1-0.8
					c0.1-0.2-0.2-0.4-0.3-0.2c-0.4,0.7,0.2,1.5,1,1.4c1.2-0.2,1.5-1.8,1.4-2.8c0-0.8-0.7-1.8-1.6-1.3c-1,0.6-1.1,2.2-0.8,3.1
					C116.7,81.8,117,81.7,116.9,81.5L116.9,81.5z"/>
			</g>
		</g>
	</g>
	<g>
		<g>
			<g>
				<path class="st0" d="M118.9,63.4c-0.5-1.1,0.5-2.1,1.6-1.8c0-0.1-0.1-0.2-0.1-0.3c-0.6,0.7-1.2,1.6-0.9,2.6
					c0.1,0.2,0.4,0.1,0.3-0.1c-0.3-0.9,0.3-1.6,0.8-2.2c0.1-0.1,0.1-0.3-0.1-0.3c-1.4-0.4-2.6,1-2,2.3
					C118.7,63.8,119,63.6,118.9,63.4L118.9,63.4z"/>
			</g>
		</g>
	</g>
	<g>
		<g>
			<g>
				<path class="st0" d="M121.6,64.5c0.9-0.1,1.5-0.9,1.5-1.8c0-0.2-0.1-0.4-0.1-0.6c0-0.1-0.1-0.1-0.1-0.2c0.2,0,0.4-0.1,0.6-0.1
					c0.1,0.1,0.2,0.6,0.2,0.7c0,0.4-0.1,0.8-0.2,1.1c-0.1,0.1-0.7,1.3-0.9,1c-0.1-0.2-0.4,0-0.3,0.2c0.4,0.6,1-0.1,1.3-0.5
					c0.5-0.7,0.8-1.8,0.3-2.6c-0.2-0.4-1.1-0.8-1.3-0.1c-0.1,0.4,0.3,0.9,0.1,1.4c-0.1,0.6-0.6,1.1-1.3,1.2
					C121.3,64.2,121.4,64.6,121.6,64.5L121.6,64.5z"/>
			</g>
		</g>
	</g>
	<g>
		<g>
			<g>
				<path class="st0" d="M120.8,63.3c0.1-0.3,0.1-0.7,0.3-0.9c0.2-0.2,0.7-0.3,0.7,0.1c0,0.3-0.2,0.7-0.4,0.9
					c-0.1,0.1-0.3,0.2-0.4,0.1c-0.1-0.1-0.2-0.3-0.1-0.3c0.2-0.1,0-0.4-0.2-0.3c-0.4,0.3-0.2,0.9,0.2,1c0.6,0.3,1-0.4,1.1-0.9
					c0.1-0.3,0.1-0.6-0.1-0.8c-0.2-0.2-0.4-0.3-0.6-0.2c-0.6,0.1-0.8,0.8-0.9,1.3C120.5,63.4,120.8,63.5,120.8,63.3L120.8,63.3z"/>
			</g>
		</g>
	</g>
	<g>
		<g>
			<g>
				<path class="st0" d="M121.9,60.8c-0.3,0-0.5,0-0.8-0.1c-0.1,0-0.4,0-0.4,0c0-0.1,0-0.2-0.1-0.3c0.1-0.1,0.2-0.1,0.3-0.1
					c0.3-0.1,0.5-0.1,0.8,0c0.1,0,0.2,0.1,0.3,0.1c0.1,0.1,0.2,0.1,0.3,0.2c0.2,0.2,0.1,0.4-0.1,0.6c-0.2,0-0.2,0.3,0,0.3
					c0.5,0.1,0.8-0.5,0.6-0.9c-0.3-0.6-1-0.8-1.6-0.8c-0.4,0-1.2,0.3-1.1,0.8c0.1,0.2,0.3,0.3,0.4,0.4c0.4,0.1,0.9,0.1,1.3,0.1
					C122.1,61.2,122.1,60.8,121.9,60.8L121.9,60.8z"/>
			</g>
		</g>
	</g>
	<g>
		<g>
			<g>
				<path class="st0" d="M121.5,64.6c-0.4,0-0.6,0.1-1,0.3c-0.8,0.4-1.3,0.5-2.2,0.4c-0.8-0.1-1.6-0.1-2.3,0.5c-1,1-0.6,2.7,0.7,3.2
					c0.3,0.1,0.5,0.1,0.8,0.1c0.7,0,0.7-0.2,1.5,0.1c0.8,0.3,0.6,0.3,0.9,0.8c0.4,0.6,1,1,1.6,0.8c0.8-0.1,0.8-0.7,1.3-1.1
					c0-0.1,0.1-0.2,0.1-0.3c0.3,0.1,0.6,0.1,0.9,0.2c0.1,0.1,0.1,0.5,0.2,0.7c0.2,0.3,0.2,0.3,0.5,0.5c0.1,0,0.2,0,0.2,0
					c0.3-0.4,0.3-0.3,0.4-0.7c0.1-0.2-0.3-0.3-0.3-0.1c-0.2,0.8-0.7-0.8-0.7-0.8c-0.1-0.1-0.1-0.3-0.2-0.4c-0.2-0.2-0.4-0.4-0.7-0.3
					c-0.4,0.1-0.2,0.3-0.5,0.5c-0.1,0.1-0.1,0.2-0.1,0.3c-1.4,1-2.2,1.1-2.6,0.2c-0.2-0.2-0.2-0.5-0.4-0.6c-0.3-0.3-0.6-0.3-1-0.3
					c-0.3,0-0.6,0.1-0.8,0.1c-1.1,0.2-1.7-0.2-1.8-1.2c-0.5-0.8-0.2-1.5,0.9-1.9c0.8-0.3,1.6,0.1,2.4,0.1c0.8-0.1,1.3-0.8,2.1-0.8
					C121.7,65,121.7,64.6,121.5,64.6L121.5,64.6z"/>
			</g>
		</g>
	</g>
	<g>
		<g>
			<g>
				<path class="st0" d="M114.7,72.4c0.6-0.8,1.6-1,2.5-0.8c0.8,0.2,1.3,0.8,2,1.2c0.4,0.3,0.8,0.3,1.3,0.3c1.4,0.1,2.7,1,2,2.6
					c-0.1,0.2,0.2,0.4,0.3,0.2c0.3-0.8,0.3-1.6-0.2-2.3c-0.6-0.8-1.2-0.8-2.1-0.9c-1.4-0.1-2.2-1.4-3.6-1.6c-1-0.1-1.9,0.2-2.5,1
					C114.3,72.3,114.6,72.5,114.7,72.4L114.7,72.4z"/>
			</g>
		</g>
	</g>
	<g>
		<g>
			<g>
				<path class="st0" d="M111.8,71c1.1,0.6,3.1,0.8,3.3-0.9c0-0.3,0-0.6-0.2-0.8c-0.4-0.8-1-1.5-0.5-2.4c0.3-0.6,1.4-1.3,1-2
					c-0.1-0.2-0.4,0-0.3,0.2c0.2,0.3-1,1.6-1.1,2c-0.1,0.3-0.3,0.7-0.2,1.1c0.1,0.3,0.2,0.4,0.3,0.7c0.1,0.1,0.2,0.2,0.3,0.3
					c0,0.6,0,1.1,0.1,1.7c-0.4,0.1-0.8,0.3-1.1,0.4c-0.5,0-0.9-0.2-1.3-0.4C111.8,70.6,111.6,70.9,111.8,71L111.8,71z"/>
			</g>
		</g>
	</g>
	<g>
		<g>
			<g>
				<path class="st0" d="M117.8,62.3c-3.3-3.7-1.9-10.4,3.7-10.7c2.5-0.1,4.5,1.6,5.4,3.8c1,2.4,0.9,6.1-2,7.1
					c-0.2,0.1-0.1,0.4,0.1,0.3c5.5-2.1,2.3-11.2-2.8-11.6c-2.5-0.2-5.1,1.3-6.2,3.7c-1.1,2.6-0.4,5.6,1.5,7.6
					C117.7,62.7,117.9,62.5,117.8,62.3L117.8,62.3z"/>
			</g>
		</g>
	</g>
	<g>
		<g>
			<g>
				<path class="st0" d="M119.1,59.8c-1.7-2.3-1.4-6.1,1.8-6.7c3.5-0.6,5.9,5.4,3,7.4c-0.2,0.1,0,0.4,0.2,0.3c2.8-1.9,1.1-7.7-2.2-8
					c-1.5-0.2-3.1,0.7-3.8,2c-0.9,1.7-0.4,3.7,0.7,5.2C119,60.2,119.3,60,119.1,59.8L119.1,59.8z"/>
			</g>
		</g>
	</g>
	<g>
		<g>
			<g>
				<path class="st0" d="M120.9,58c-0.4-0.7-0.8-1.5-0.6-2.3c0.3-1.2,1.6-1.5,2.5-0.7c0.5,0.4,1.1,1.5,1.1,2.2
					c-0.1,1.1-1.3,0.7-1.6,0.2c-0.2-0.4-0.3-0.8-0.3-1.3c0-0.2-0.4-0.2-0.3,0c0.1,1,0.6,2.5,1.9,2.1c1.3-0.3,0.6-2.1,0.1-2.9
					c-0.6-0.9-1.9-1.6-2.9-0.7c-1.1,1-0.7,2.6,0,3.6C120.7,58.4,121,58.2,120.9,58L120.9,58z"/>
			</g>
		</g>
	</g>
	<g>
		<g>
			<g>
				<path class="st0" d="M76.6,90.4c2.8-0.6,5.1-2.2,6.9-4.4c0.1-0.2-0.2-0.4-0.3-0.2c-1.7,2.2-4,3.6-6.6,4.2
					C76.2,90.1,76.3,90.4,76.6,90.4L76.6,90.4z"/>
			</g>
		</g>
	</g>
	<g>
		<g>
			<g>
				<path class="st0" d="M84.2,84c0.8-2.4,0.6-4.8-0.6-7c-0.1-0.2-0.4,0-0.3,0.2c1.1,2.1,1.3,4.5,0.6,6.8
					C83.8,84.2,84.1,84.3,84.2,84L84.2,84z"/>
			</g>
		</g>
	</g>
	<g>
		<g>
			<g>
				<path class="st0" d="M80.7,91.8c3.2-2.3,5.4-5.5,6.3-9.3c0.1-0.2-0.3-0.3-0.3-0.1c-1,3.7-3.1,6.8-6.2,9
					C80.4,91.7,80.6,92,80.7,91.8L80.7,91.8z"/>
			</g>
		</g>
	</g>
	<g>
		<g>
			<g>
				<path class="st0" d="M52.3,109.1c2.4,3.1,5.3,6.5,9.6,6.2c0.2,0,0.2-0.4,0-0.3c-4.2,0.3-7-3.1-9.4-6.1
					C52.4,108.7,52.1,108.9,52.3,109.1L52.3,109.1z"/>
			</g>
		</g>
	</g>
	<g>
		<g>
			<g>
				<path class="st0" d="M58.7,113.4c1.1,0.7,2.4,0.9,3.7,0.7c0.2,0,0.1-0.4-0.1-0.3c-1.2,0.2-2.4,0-3.4-0.7
					C58.7,113,58.5,113.2,58.7,113.4L58.7,113.4z"/>
			</g>
		</g>
	</g>
	<g>
		<g>
			<g>
				<path class="st0" d="M120.5,46.2c1.8-0.4,2.9-2.3,2.5-4c-0.1-0.2-0.4-0.1-0.3,0.1c0.4,1.6-0.6,3.2-2.2,3.6
					C120.2,45.9,120.3,46.2,120.5,46.2L120.5,46.2z"/>
			</g>
		</g>
	</g>
	<g>
		<g>
			<g>
				<path class="st0" d="M123.1,46.6c1-0.4,1.6-1.3,1.6-2.3c0-0.2-0.3-0.2-0.3,0c-0.1,0.9-0.6,1.7-1.4,2
					C122.7,46.4,122.9,46.7,123.1,46.6L123.1,46.6z"/>
			</g>
		</g>
	</g>
	<g>
		<g>
			<g>
				<path class="st0" d="M117.4,48.9c-1.3-1.4-1.9-3.2-1.5-5.1c0.1-0.2-0.3-0.3-0.3-0.1c-0.5,2,0.1,4,1.5,5.5
					C117.3,49.3,117.5,49,117.4,48.9L117.4,48.9z"/>
			</g>
		</g>
	</g>
	<g>
		<g>
			<g>
				<path class="st0" d="M113.4,43.2c-0.3-1.7,0.8-3.4,2.5-3.9c0.2-0.1,0.1-0.4-0.1-0.3c-1.8,0.5-3,2.4-2.7,4.3
					C113,43.5,113.4,43.4,113.4,43.2L113.4,43.2z"/>
			</g>
		</g>
	</g>
	<g>
		<g>
			<g>
				<path class="st0" d="M118.2,38.8c1.2-0.2,2.4,0.3,3.1,1.2c0.1,0.2,0.4,0,0.3-0.2c-0.8-1.1-2.1-1.6-3.5-1.4
					C117.9,38.5,118,38.9,118.2,38.8L118.2,38.8z"/>
			</g>
		</g>
	</g>
	<g>
		<g>
			<g>
				<path class="st0" d="M114.6,42.4c0.5-1.8,2.3-2.9,4.1-2.6c0.2,0,0.3-0.3,0.1-0.3c-2-0.4-4,0.9-4.6,2.9
					C114.2,42.5,114.6,42.6,114.6,42.4L114.6,42.4z"/>
			</g>
		</g>
	</g>
	<g>
		<g>
			<g>
				<path class="st0" d="M116.8,41.2c0.1-0.3,0.3-0.6,0.7-0.6c0.2,0,0.2-0.4,0-0.3c-0.5,0.1-0.9,0.4-1,0.9
					C116.4,41.4,116.7,41.5,116.8,41.2L116.8,41.2z"/>
			</g>
		</g>
	</g>
	<g>
		<g>
			<g>
				<path class="st0" d="M113.4,44.2c0.1,0.8,0.4,1.6,1,2.2c0.2,0.2,0.4-0.1,0.3-0.3c-0.5-0.5-0.9-1.2-1-1.9
					C113.7,44,113.4,44,113.4,44.2L113.4,44.2z"/>
			</g>
		</g>
	</g>
	<g>
		<g>
			<g>
				<path class="st0" d="M119.8,40.3c0.3,0.3,0.6,0.6,0.8,0.8c0.2,0.2,0.4-0.1,0.3-0.3c-0.3-0.3-0.6-0.6-0.8-0.8
					C119.9,39.9,119.7,40.2,119.8,40.3L119.8,40.3z"/>
			</g>
		</g>
	</g>
	<g>
		<g>
			<g>
				<path class="st0" d="M100.5,59.1c-0.6-0.6,1-1.3,1.3-1.7c0.3-0.4,0.1-0.9-0.2-1.3c0.1,0.2,0.4,0,0.3-0.2
					c-0.1-0.2-0.3-0.2-0.5-0.1c-0.1,0.1-0.1,0.2-0.1,0.3c0,0.1,0.1,0.1,0.1,0.2c0.1,0.3,0.1-0.2,0.1,0.5c0,0.5-0.1,0.4-0.4,0.7
					c-0.1,0.1-0.2,0.1-0.3,0.2c-0.2,0.1-0.3,0.3-0.4,0.5c-0.2,0.3-0.2,0.7,0.1,1C100.5,59.5,100.7,59.2,100.5,59.1L100.5,59.1z"/>
			</g>
		</g>
	</g>
	<g>
		<g>
			<g>
				<path class="st0" d="M102.4,59.3c-0.3-0.8,0.1-1.5,0.8-1.9c0.2-0.1,0-0.4-0.2-0.3c-0.8,0.4-1.2,1.4-0.9,2.3
					C102.1,59.6,102.4,59.5,102.4,59.3L102.4,59.3z"/>
			</g>
		</g>
	</g>
	<g>
		<g>
			<g>
				<path class="st0" d="M99.3,39.4c-0.2,0.3,0.1,0.7,0.4,0.8c0.2,0.1,0.4,0.1,0.6,0.1c0.2,0,0.6,0,0.7,0.2c0.1,0.2,0.4,0.1,0.3-0.1
					c-0.1-0.3-0.3-0.4-0.6-0.4c-0.2,0-1.3,0-1-0.4C99.7,39.4,99.4,39.2,99.3,39.4L99.3,39.4z"/>
			</g>
		</g>
	</g>
	<g>
		<g>
			<g>
				<path class="st0" d="M113.3,38.6c-0.8-0.3-1.7,0.2-1.9,1c-0.1,0.2,0.3,0.3,0.3,0.1c0.1-0.6,0.8-1,1.5-0.8
					C113.4,39,113.5,38.7,113.3,38.6L113.3,38.6z"/>
			</g>
		</g>
	</g>
	<g>
		<g>
			<g>
				<path class="st0" d="M19.8,103.7c-0.7-1.3,0.1-3,1.6-3c1.5-0.1,2.4,1.4,2,2.7c-0.1,0.2,0.3,0.3,0.3,0.1c0.6-1.6-0.7-3.4-2.5-3.2
					c-1.7,0.2-2.5,2.1-1.8,3.5C19.6,104.1,19.8,103.9,19.8,103.7L19.8,103.7z"/>
			</g>
		</g>
	</g>
	<g>
		<g>
			<g>
				<path class="st0" d="M18.9,98.1c1.4,0.7,3.4,1.5,4.6,0.1c0.1-0.2-0.1-0.4-0.3-0.3c-1.1,1.3-2.9,0.6-4.2-0.1
					C18.9,97.6,18.7,97.9,18.9,98.1L18.9,98.1z"/>
			</g>
		</g>
	</g>
	<g>
		<g>
			<g>
				<path class="st0" d="M21.1,103.8c0-0.4,0.3-0.8,0.7-0.8c0.4,0,0.7,0.4,0.7,0.8c0,0.2,0.4,0.2,0.3,0c0-0.6-0.5-1.1-1.1-1.1
					c-0.6,0-1.1,0.6-1.1,1.1C20.7,104,21.1,104,21.1,103.8L21.1,103.8z"/>
			</g>
		</g>
	</g>
	<g>
		<g>
			<g>
				<path class="st0" d="M120.2,105.7c0.9-0.2,1.6-0.6,2.3-1.2c0.2-0.2-0.1-0.4-0.3-0.3c-0.6,0.6-1.3,1-2.1,1.1
					C119.9,105.5,120,105.8,120.2,105.7L120.2,105.7z"/>
			</g>
		</g>
	</g>
	<g>
		<g>
			<g>
				<path class="st0" d="M120.3,106.8c1,0,2-0.5,2.5-1.4c0.1-0.2-0.2-0.4-0.3-0.2c-0.5,0.8-1.3,1.3-2.2,1.3
					C120.1,106.4,120.1,106.8,120.3,106.8L120.3,106.8z"/>
			</g>
		</g>
	</g>
	<g>
		<g>
			<g>
				<path class="st0" d="M120.4,105.8c0.6-0.3,0.5-1.4-0.2-1.4s-0.9,1.1-0.2,1.4c0.2,0.1,0.3-0.3,0.1-0.3c-0.3-0.1-0.2-0.7,0.1-0.7
					c0.3,0,0.4,0.6,0.1,0.7C120.1,105.5,120.1,105.9,120.4,105.8L120.4,105.8z"/>
			</g>
		</g>
	</g>
	<g>
		<g>
			<g>
				<path class="st0" d="M98.1,76.6c0-0.1,0-0.2,0-0.3c0-0.2-0.3-0.2-0.3,0c0,0.1,0,0.2,0,0.3C97.7,76.8,98.1,76.8,98.1,76.6
					L98.1,76.6z"/>
			</g>
		</g>
	</g>
	<g>
		<path class="st0" d="M98.9,116.7l-0.4-1.9l-1.8-0.7l1.6-1l0.1-1.9l1.5,1.2l1.9-0.5l-0.8,1.8l1,1.6l-1.9-0.2L98.9,116.7z
			 M97.2,114.1l1.5,0.6l0.4,1.6l1-1.2l1.6,0.2l-0.8-1.4l0.6-1.5l-1.6,0.4l-1.2-1l-0.1,1.6L97.2,114.1z"/>
	</g>
	<g>
		<path class="st0" d="M42,118.2l-1.7-0.9l-1.7,0.9l0.3-1.9l-1.4-1.3l1.9-0.3l0.9-1.7l0.9,1.7L43,115l-1.4,1.3L42,118.2z M38,115.1
			l1.1,1.1l-0.3,1.6l1.4-0.7l1.4,0.7l-0.3-1.6l1.1-1.1l-1.6-0.2l-0.7-1.5l-0.7,1.5L38,115.1z"/>
	</g>
	<g>
		<path class="st0" d="M13.9,84.9L13.7,84l-0.9-0.3l0.8-0.5l0.1-0.9l0.7,0.6l0.9-0.2L15,83.5l0.5,0.8l-0.9-0.1L13.9,84.9z
			 M13.3,83.6l0.6,0.2l0.1,0.6l0.4-0.5l0.6,0.1l-0.3-0.5l0.2-0.6l-0.6,0.2l-0.5-0.4l0,0.6L13.3,83.6z"/>
	</g>
	<g>
		<path class="st0" d="M129.3,80.1l-0.3-0.9l-0.9-0.3l0.8-0.5l0-0.9l0.7,0.6l0.9-0.3l-0.3,0.9l0.5,0.8l-0.9,0L129.3,80.1z
			 M128.7,78.8l0.6,0.2l0.2,0.6l0.4-0.5l0.6,0l-0.4-0.5l0.2-0.6l-0.6,0.2l-0.5-0.4l0,0.6L128.7,78.8z"/>
	</g>
	<g>
		<path class="st0" d="M24.7,117.7l-0.3-0.9l-0.9-0.3l0.8-0.5v-1l0.8,0.6l0.9-0.3l-0.3,0.9l0.6,0.8l-1,0L24.7,117.7z M24,116.4
			l0.6,0.2l0.2,0.6l0.4-0.5l0.7,0l-0.4-0.5l0.2-0.6l-0.6,0.2l-0.5-0.4v0.7L24,116.4z"/>
	</g>
	<g>
		<path class="st0" d="M87.8,66.1l-1.6-1.4l-2.1,0.5l0.9-1.9L84,61.3l2.1,0.3l1.4-1.6l0.4,2.1l1.9,0.9L88,64L87.8,66.1z M86.3,64.4
			l1.3,1.2l0.2-1.8l1.6-0.9l-1.6-0.7l-0.4-1.8l-1.2,1.4l-1.8-0.2l0.9,1.6l-0.8,1.6L86.3,64.4z"/>
	</g>
	<g>
		<path class="st0" d="M75.6,29.5l-0.7-0.3l-0.7,0.3l0.1-0.7l-0.5-0.5l0.7-0.1l0.3-0.6l0.3,0.6l0.7,0.1l-0.5,0.5L75.6,29.5z
			 M74.3,28.5l0.3,0.3l-0.1,0.4l0.4-0.2l0.4,0.2l-0.1-0.4l0.3-0.3l-0.4-0.1l-0.2-0.4l-0.2,0.4L74.3,28.5z"/>
	</g>
	<g>
		<path class="st0" d="M95.8,31.6L95.2,31l-0.9,0.2l0.4-0.8l-0.4-0.8l0.9,0.1l0.6-0.6l0.1,0.9l0.8,0.4l-0.8,0.4L95.8,31.6z
			 M95.3,30.7l0.4,0.4l0.1-0.5l0.5-0.3l-0.5-0.2l-0.1-0.5L95.3,30l-0.5-0.1l0.3,0.5l-0.3,0.5L95.3,30.7z"/>
	</g>
	<g>
		<path class="st0" d="M86.5,46l-0.2-1.2l-1.1-0.5l1.1-0.6l0.2-1.2l0.9,0.9l1.2-0.3L88,44.2l0.6,1.1l-1.2-0.2L86.5,46z M85.7,44.2
			l0.9,0.4l0.1,0.9l0.6-0.7l0.9,0.1l-0.5-0.8l0.4-0.9l-0.9,0.2l-0.7-0.7l-0.1,0.9L85.7,44.2z"/>
	</g>
</g>
</svg>
