<?xml version="1.0" encoding="utf-8"?>
<!-- Generator: Adobe Illustrator 24.0.1, SVG Export Plug-In . SVG Version: 6.00 Build 0)  -->
<svg version="1.1" id="Layer_1" xmlns="http://www.w3.org/2000/svg" xmlns:xlink="http://www.w3.org/1999/xlink" x="0px" y="0px"
	 viewBox="0 0 141.7 141.7" style="enable-background:new 0 0 141.7 141.7;" xml:space="preserve">
<style type="text/css">
	.st0{fill:#070707;}
	.st1{enable-background:new    ;}
</style>
<g id="Layer_1_1_">
</g>
<g id="Layer_1_2_">
</g>
<g id="Layer_1_3_">
</g>
<g id="Layer_1_4_">
</g>
<g id="Layer_1_5_">
</g>
<g id="Layer_3">
</g>
<g id="Layer_3_1_">
</g>
<g id="Layer_1_6_">
</g>
<g id="Layer_1_7_">
</g>
<g id="Layer_1_8_">
</g>
<g id="Layer_1_9_">
</g>
<g id="Layer_1_10_">
</g>
<g id="Layer_1_11_">
</g>
<g id="Layer_1_12_">
</g>
<g id="Layer_1_13_">
</g>
<g id="Layer_1_14_">
</g>
<g id="Layer_1_15_">
</g>
<g id="Layer_1_16_">
</g>
<g id="Layer_1_17_">
</g>
<g id="Layer_1_18_">
</g>
<g id="Layer_1_19_">
</g>
<g id="Layer_1_20_">
</g>
<g>
	<g>
		<path class="st0" d="M43,91.9c0.2,0,0.3-0.1,0.5-0.2c0-0.1-0.1-0.3-0.2-0.4c-2.8,1.4-6.4,4.4-5.9,7.9c0.5,3.8,5.4,3.5,8,2.8
			c1.9-0.5,3.7-1.4,5.5-2.1c1.5-0.6,3.6-0.8,5-1.8c3.6-2.7-1.8-6.4-4-7.5c-0.3-0.1-0.4,0.3-0.2,0.4c1.5,0.8,2.8,1.7,4,2.9
			c0.9,1,1.2,2.6,0.2,3.6c-0.5,0.5-1.6,0.8-2.3,0.9c-2.5,0.6-4.7,1.8-7.1,2.6c-2.8,1-7.6,1.9-8.7-2c-0.8-3.1,3.3-6.2,5.7-7.4
			c0.3-0.1,0.1-0.5-0.2-0.4c-0.2,0-0.3,0.1-0.5,0.2C42.6,91.6,42.8,92,43,91.9L43,91.9z"/>
	</g>
</g>
<g>
	<path class="st0" d="M55.5,88.1c-0.3-2-3.7-3.2-7.4-2.5c-3.8,0.6-6.6,2.8-6.2,4.8c0.3,2,3.7,3.2,7.4,2.5
		C53.1,92.3,55.9,90.2,55.5,88.1z"/>
</g>
<g>
	<g>
		<path class="st0" d="M51.1,99.7c0.5,2.7,2.7,8.6-0.4,10.5c-2.4,1.5-4.3-1.1-4.9-3.1c-0.5-1.7-0.5-3.5-0.3-5.2c0-0.3-0.4-0.3-0.4,0
			c-0.5,3.4,0.3,10.1,5.2,9c4.3-0.9,1.7-8.6,1.3-11.2C51.5,99.4,51,99.4,51.1,99.7L51.1,99.7z"/>
	</g>
</g>
<g>
	<g>
		<path class="st0" d="M52.6,108.5c4.9,0.3,1.8-7.1,1.4-9.6c0-0.3-0.5-0.2-0.4,0.1c0.4,2.2,3.3,9.3-0.9,9.1
			C52.4,108.1,52.3,108.5,52.6,108.5L52.6,108.5z"/>
	</g>
</g>
<g>
	<path class="st0" d="M37.8,82.9c-3.5,0-6.9-1.1-9.8-3.1c-3.7-2.6-6.1-6.4-6.8-10.7c-1.5-9,4.9-17.5,14.1-19.1l0,0
		c9.3-1.5,18,4.6,19.5,13.6c0.7,4.4-0.4,8.7-3,12.3c-2.7,3.6-6.6,6-11.1,6.7C39.7,82.8,38.7,82.9,37.8,82.9z M35.4,50.3l0.1,0.3
		c-8.9,1.5-15,9.7-13.6,18.3c0.7,4.2,3,7.9,6.5,10.3c3.5,2.5,7.9,3.4,12.2,2.7c4.3-0.7,8.1-3,10.7-6.5c2.6-3.5,3.6-7.7,2.9-11.9
		c-1.4-8.7-9.8-14.5-18.7-13L35.4,50.3z"/>
</g>
<g>
	<path class="st0" d="M40,57.3c-1.4,2.7-0.4,5.9,2.2,7.3c2.6,1.3,5.8,0.3,7.2-2.4c1.4-2.7,0.4-5.9-2.2-7.3
		C44.6,53.6,41.4,54.6,40,57.3z M48.7,59.4c-0.4,0.8-1.3,1-2,0.7c-0.8-0.4-1-1.3-0.6-2c0.4-0.8,1.3-1,2-0.7
		C48.8,57.7,49.1,58.6,48.7,59.4z"/>
</g>
<g>
	<path class="st0" d="M39,80.1c-3.2,0-6.3-1-8.9-2.8c-3.4-2.3-5.6-5.8-6.2-9.7c-1.3-8.2,4.5-16,13-17.3l0,0
		c8.5-1.4,16.5,4.1,17.8,12.3c0.6,4-0.3,7.9-2.8,11.2c-2.5,3.3-6.1,5.4-10.2,6.1C40.7,80.1,39.9,80.1,39,80.1z M36.9,50.9
		c-8.2,1.3-13.7,8.8-12.5,16.6c0.6,3.8,2.7,7.1,6,9.3c3.2,2.2,7.2,3.1,11.1,2.5c4-0.6,7.4-2.7,9.8-5.9c2.4-3.1,3.3-7,2.7-10.7
		C52.7,54.8,45,49.5,36.9,50.9L36.9,50.9z"/>
</g>
<g>
	<g>
		<g>
			<path class="st0" d="M23,70.8c0.1,2.3,1.1,4.6,2.9,6.1c1.1,0.9,2.3,0.9,1.8-0.8c-0.4-1.3-1.1-2.6-1.8-3.8
				c-0.4-0.7-1.1-2.5-1.9-2.8c-1.7-0.6-0.6,2.8-0.4,3.3c0.1,0.3,0.6,0,0.5-0.3c-0.2-0.4-1.3-2.8,0.2-2c0.4,0.2,0.9,1.3,1.1,1.8
				c0.6,1,1.6,2.5,1.8,3.7c0.3,0.4,0.3,0.7-0.1,1c-0.4-0.2-0.7-0.5-1-0.8c-0.4-0.4-0.8-0.8-1.1-1.3c-0.8-1.3-1.2-2.6-1.3-4.1
				C23.5,70.4,23,70.4,23,70.8L23,70.8z"/>
		</g>
	</g>
</g>
<g>
	<g>
		<g>
			<path class="st0" d="M28.9,78.2c0.5-0.5,1.3,0.1,0.8,0.7c-0.2,0.3-0.5,0.3-0.8,0C28.8,78.8,28.8,78.5,28.9,78.2
				c0.2-0.3-0.2-0.6-0.4-0.4c-0.3,0.4-0.3,1,0,1.5c0.4,0.5,1.1,0.4,1.5,0c0.4-0.5,0.4-1.1-0.1-1.5c-0.4-0.3-1.1-0.3-1.5,0.1
				C28.3,78.1,28.7,78.5,28.9,78.2L28.9,78.2z"/>
		</g>
	</g>
</g>
<g>
	<g>
		<path class="st0" d="M73.9,65.2c-1.5-8.9-10.2-15-19.4-13.5c-2,0.3-4,1-5.8,2c0.1,0.1,0.2,0.2,0.3,0.3c0,0,0.1,0,0.1,0.1
			c1.7-0.9,3.5-1.5,5.4-1.9c8.9-1.5,17.4,4.4,18.8,13.1c0.7,4.2-0.3,8.4-2.9,11.9c-2.6,3.5-6.4,5.8-10.7,6.5
			c-4.8,0.8-9.6-0.5-13.2-3.5c-0.2,0.1-0.3,0.2-0.5,0.3c3.1,2.6,6.9,4,10.9,4c1,0,1.9-0.1,2.8-0.3c4.5-0.7,8.4-3.1,11.1-6.7
			C73.5,73.9,74.6,69.5,73.9,65.2z"/>
	</g>
</g>
<g>
	<g>
		<path class="st0" d="M59.2,58.9c-1.4,2.7-0.4,5.9,2.2,7.3c2.6,1.3,5.8,0.3,7.2-2.4c1.4-2.7,0.4-5.9-2.2-7.3
			C63.8,55.1,60.6,56.2,59.2,58.9z M67.9,61c-0.4,0.8-1.3,1-2,0.7c-0.8-0.4-1-1.3-0.6-2c0.4-0.8,1.3-1,2-0.7
			C68,59.3,68.3,60.2,67.9,61z"/>
	</g>
</g>
<g>
	<g>
		<path class="st0" d="M73.8,64.2c-0.6-4-2.8-7.4-6.2-9.7c-3.3-2.3-7.4-3.2-11.6-2.5c-2.3,0.4-4.4,1.2-6.3,2.5
			c0.1,0.1,0.3,0.2,0.4,0.3c0,0,0,0,0,0c1.8-1.2,3.8-2,6-2.3c4-0.7,7.9,0.2,11.2,2.5c3.3,2.3,5.3,5.6,6,9.4
			c0.6,3.8-0.3,7.6-2.7,10.8c-2.4,3.1-5.8,5.3-9.8,5.9c-4,0.7-8.1-0.3-11.3-2.6c-0.2,0.1-0.3,0.2-0.5,0.3c2.7,2,6,3,9.3,3
			c0.9,0,1.7-0.1,2.6-0.2c4.1-0.7,7.7-2.8,10.2-6.1C73.4,72.1,74.4,68.1,73.8,64.2z"/>
	</g>
</g>
<g>
	<g>
		<g>
			<path class="st0" d="M48.1,79.8c0.5-0.5,1.4,0.1,0.9,0.8c-0.2,0.3-0.6,0.3-0.8,0C48,80.4,47.9,80,48.1,79.8
				c0.2-0.2-0.1-0.5-0.3-0.3c-0.3,0.4-0.3,1,0,1.4c0.4,0.5,1.1,0.4,1.5,0c0.4-0.4,0.4-1.1-0.1-1.4c-0.4-0.3-1-0.3-1.4,0.1
				C47.6,79.7,47.9,80,48.1,79.8L48.1,79.8z"/>
		</g>
	</g>
</g>
<g>
	<g>
		<g>
			<path class="st0" d="M45.9,90.7c-3.3,1.5-6.2,4.6-6.6,8.3c-0.5,4.2,4.7,3.2,7.3,2.7c0.3-0.1,0.2-0.6-0.1-0.5
				c-1.3,0.3-3.1,0.7-4.5,0.5c-3.3-0.6-2-3.8-1.1-5.6c1.2-2.2,3-3.9,5.3-4.9C46.5,91,46.2,90.6,45.9,90.7L45.9,90.7z"/>
		</g>
	</g>
</g>
<g>
	<g>
		<g>
			<path class="st0" d="M44,102.4C44.1,102.4,44.1,102.4,44,102.4c0.2-0.1,0.3-0.2,0.3-0.3c0-0.3,0-0.3-0.3-0.5
				c-0.1-0.1-0.3,0-0.4,0.1c-0.6,0.8,0.1,3.2,0,4.2c0,1.4-0.5,3.1,0.3,4.4c1.4,2.4,4.5,1.3,6.4,0.3c0.3-0.1,0-0.6-0.3-0.5
				c-1.1,0.5-2.3,1.1-3.5,1c-2-0.1-2.6-1.9-2.5-3.6c0-0.5-0.1-5.8-0.3-5.8C43.6,102,43.7,102.5,44,102.4L44,102.4z"/>
		</g>
	</g>
</g>
<g>
	<g>
		<g>
			<path class="st0" d="M71.4,113.8c-1.6-11.3-2-22.8-2-34.2c0-0.7-1-0.7-1,0c0.1,11.5,0.5,23.1,2.1,34.5
				C70.5,114.8,71.5,114.5,71.4,113.8L71.4,113.8z"/>
		</g>
	</g>
</g>
<g>
	<g>
		<g>
			<path class="st0" d="M43.7,50.5c-1-5.3,5.3-7.3,9.4-7.3c2.2,0,4.7,0.6,6.1,2.5c1.3,1.9,1,4.3,0.8,6.5c-0.1,0.7,1,0.7,1,0
				c0.3-2.6,0.5-5.5-1.4-7.6c-1.8-2-4.6-2.5-7.1-2.4c-4.8,0.2-10.8,2.8-9.8,8.6C42.8,51.5,43.8,51.2,43.7,50.5L43.7,50.5z"/>
		</g>
	</g>
</g>
<g>
	<g>
		<g>
			<path class="st0" d="M16,59.4c-2.7-1-3.8-5.3-3.1-7.9c0.8-2.7,4-4.3,6.4-5.2c2.2-0.9,4.6-1.4,7.1-1.4c1.4,0,2.8,0.2,3.8,1.2
				c1.3,1.2,1.2,3,1.1,4.6c0,0.7,1,0.7,1,0c0.1-3.2-0.6-6.1-4.1-6.8c-3.5-0.6-7.5,0.4-10.6,1.9c-2.8,1.3-5.7,3.4-5.9,6.8
				c-0.1,2.9,1.2,6.5,4.1,7.6C16.4,60.6,16.6,59.6,16,59.4L16,59.4z"/>
		</g>
	</g>
</g>
<g>
	<circle class="st0" cx="21.7" cy="55.3" r="3.1"/>
</g>
<g>
	<g>
		<path class="st0" d="M73.8,107.5c-1.1,1.5-4.3,3-2.8,5.3c1.4,2.3,4.9,0.5,6.5-0.5c1.7-1,5.1-2.8,3.8-5.2c-1.3-2.4-4.9,1.5-5.8,2.3
			c-0.2,0.1,0,0.4,0.2,0.3c0.9-0.8,4.9-5,5.6-1.6c0.3,1.9-2.9,3.4-4.2,4.2c-1.7,1-4.9,2.5-6.1,0c-0.8-1.7,2.2-3.3,3-4.4
			C74.2,107.5,73.9,107.3,73.8,107.5L73.8,107.5z"/>
	</g>
</g>
<g>
	<g>
		<path class="st0" d="M77.9,105.4c0-0.1,0.1-0.2,0.2-0.3c-1.6-0.1-3.2,1.1-4.4,2.5c-0.1,0.2,0.1,0.4,0.3,0.2
			C75,106.5,76.5,105.3,77.9,105.4z"/>
	</g>
</g>
<g>
	<g>
		<g>
			<path class="st0" d="M100.3,54.1c-2.6,8.9-6.3,17.6-9.5,26.3c-3.3,8.9-6.6,17.7-10.1,26.5c-0.1,0.3,0.4,0.5,0.5,0.1
				c3.4-8.8,6.7-17.7,10.1-26.5c3.3-8.7,7-17.4,9.5-26.3C101,53.9,100.5,53.8,100.3,54.1L100.3,54.1z"/>
		</g>
	</g>
</g>
<g>
	<g>
		<g>
			<path class="st0" d="M75.9,110c8.1-18.8,16.8-37.4,24.2-56.5c0.1-0.3-0.4-0.5-0.5-0.1C92.3,72.5,83.6,91,75.5,109.8
				C75.3,110.1,75.8,110.4,75.9,110L75.9,110z"/>
		</g>
	</g>
</g>
<g>
	<g>
		<g>
			<path class="st0" d="M75.5,112.8c-0.6,1-2,3.1-1.7,4.3c0.2,0.8,1.3,0.8,2,0.8c1.2,0,2-0.6,2.5-1.7c0.8-1.7,1.2-3.7,1.6-5.5
				c0.1-0.3-0.4-0.5-0.5-0.1c-0.3,1-0.5,2-0.8,3c-0.3,1-0.5,2.4-1.3,3.1c-0.5,0.5-1,0.8-1.7,0.7c-0.3,0.1-0.6,0-0.8-0.4
				c-0.4-0.2-0.5-0.5-0.3-0.8c0-1,0.9-2.2,1.4-3C76.1,112.8,75.7,112.5,75.5,112.8L75.5,112.8z"/>
		</g>
	</g>
</g>
<g>
	<g>
		<g>
			<path class="st0" d="M49.4,105.1c-0.8,0.4-1.5,1.1-1.9,2c-0.3,0.8,0,1.5,0.8,1.6c2,0.2,2.9-2.4,1.5-3.7c-0.3-0.3-0.6,0.1-0.4,0.4
				c1,1,0.5,2.8-1,2.8c-1,0-0.5-1.1-0.2-1.5c0.3-0.5,0.8-0.8,1.3-1.1C49.9,105.4,49.7,104.9,49.4,105.1L49.4,105.1z"/>
		</g>
	</g>
</g>
<g>
	<g>
		<g>
			<path class="st0" d="M73.9,113.5c-0.7,0.8-1.5,1.8-1.3,2.9c0.2,0.9,1,1.5,1.9,1.4c0.3-0.1,0.2-0.6-0.1-0.5c-1,0.2-1.4-1-1.2-1.8
				c0.2-0.7,0.7-1.2,1.1-1.7C74.5,113.6,74.1,113.2,73.9,113.5L73.9,113.5z"/>
		</g>
	</g>
</g>
<g>
	<g>
		<g>
			<path class="st0" d="M99.6,53.4c-0.1,0.4-0.3,0.8-0.4,1.1c-0.1,0.3,0.4,0.5,0.5,0.1c0.1-0.4,0.3-0.8,0.4-1.1
				C100.2,53.2,99.7,53.1,99.6,53.4L99.6,53.4z"/>
		</g>
	</g>
</g>
<g>
	<g>
		<g>
			<path class="st0" d="M77.6,107.8c8.4-17.9,15.8-36.2,22.9-54.6c0.1-0.3-0.4-0.5-0.5-0.1c-7.2,18.3-14.6,36.6-22.9,54.5
				C77.1,107.9,77.5,108.1,77.6,107.8L77.6,107.8z"/>
		</g>
	</g>
</g>
<g>
	<g>
		<g>
			<path class="st0" d="M75.6,113.3c1.1,0.5,2.4,0.5,3.5-0.1c0.3-0.2,0-0.6-0.3-0.5c-0.9,0.5-2,0.5-2.9,0.1
				C75.6,112.8,75.3,113.2,75.6,113.3L75.6,113.3z"/>
		</g>
	</g>
</g>
<g>
	<g>
		<g>
			<path class="st0" d="M77.9,104.1c0.9,1.1,2.5,1.4,3.8,0.8c0.3-0.2,0-0.6-0.3-0.5c-1.1,0.5-2.3,0.3-3.1-0.7
				C78.1,103.4,77.7,103.8,77.9,104.1L77.9,104.1z"/>
		</g>
	</g>
</g>
<g>
	<g>
		<g>
			<path class="st0" d="M119.5,31.5c3.5-0.4,7-0.6,10.5-0.6c0.3,0,0.3-0.5,0-0.5c-3.5,0-7,0.3-10.5,0.6
				C119.2,31,119.2,31.5,119.5,31.5L119.5,31.5z"/>
		</g>
	</g>
</g>
<g>
	<g>
		<g>
			<path class="st0" d="M119.7,34c3.7,0,7.5-0.1,11.2-0.1c0.3,0,0.3-0.5,0-0.5c-3.7,0-7.5,0.1-11.2,0.1
				C119.4,33.5,119.4,34.1,119.7,34L119.7,34z"/>
		</g>
	</g>
</g>
<g>
	<g>
		<g>
			<path class="st0" d="M87.3,27.4c-0.6-4.5-6.5-1.9-8.3,0.2c-2.9,3.4-3.9,9.3-1.9,13.3c2.3,4.8,6.6-1,7.9-3.5
				c1-2.1,3.8-10.1-0.3-10.7c-0.3,0-0.5,0.5-0.1,0.5c3.3,0.5,1.1,7.4,0.3,9.1c-0.6,1.3-1.3,2.6-2.3,3.8c-0.5,0.5-1.2,1.5-1.8,1.8
				c-2.6,1.3-3.4-1.1-3.8-2.6c-0.8-3-0.5-6.5,1-9.2c0.7-1.4,1.8-2.8,3.1-3.6c1.6-1,5.2-1.8,5.6,1.2C86.9,27.9,87.4,27.7,87.3,27.4
				L87.3,27.4z"/>
		</g>
	</g>
</g>
<g>
	<g>
		<g>
			<path class="st0" d="M89.7,31.6c1.3-2.1,2.3-4.3,3.2-6.7c-0.2,0-0.3-0.1-0.5-0.1c-1.2,5.5-2,10.9-2.5,16.5c0,0.3,0.5,0.3,0.5,0
				c0.5-5.5,1.4-10.9,2.5-16.4c0.1-0.3-0.4-0.5-0.5-0.1c-0.8,2.3-1.9,4.5-3.2,6.6C89,31.6,89.5,31.9,89.7,31.6L89.7,31.6z"/>
		</g>
	</g>
</g>
<g>
	<g>
		<g>
			<path class="st0" d="M97.6,31.5c-0.3,1.6-0.5,3.2-0.7,4.8c0,0.3,0.5,0.5,0.5,0.1c0.3-1.6,0.5-3.2,0.7-4.8
				C98.1,31.2,97.6,31.1,97.6,31.5L97.6,31.5z"/>
		</g>
	</g>
</g>
<g>
	<g>
		<g>
			<path class="st0" d="M94.9,35.1c1.3-0.4,2.5-0.7,3.9-0.9c0.3,0,0.2-0.5-0.1-0.5c-1.3,0.2-2.6,0.5-3.9,0.9
				C94.5,34.7,94.6,35.2,94.9,35.1L94.9,35.1z"/>
		</g>
	</g>
</g>
<g>
	<g>
		<g>
			<path class="st0" d="M106.4,25.8c-3.1-0.1-4.3,5-4.8,7.3c-0.5,2-0.6,4-0.5,6c0,0.9,0,2.9,1,3.3c2.2,1,4.1-4.2,4.5-5.6
				c0.8-2.5,2-7.3-0.2-9.4c-0.3-0.2-0.6,0.1-0.4,0.4c1.7,1.6,1,5.2,0.6,7.2c-0.3,1.3-0.8,2.6-1.4,3.8c-0.2,0.4-0.4,0.8-0.7,1.2
				c-0.7,1.1-0.7,1.8-2,0.8c-1-0.8-0.9-0.7-1-1.8c0-0.6,0-1.2,0-1.8c0-1.3,0.2-2.5,0.4-3.8c0.4-2,1.6-7.4,4.4-7.3
				C106.8,26.3,106.8,25.8,106.4,25.8L106.4,25.8z"/>
		</g>
	</g>
</g>
<g>
	<g>
		<g>
			<path class="st0" d="M114.7,30.5c0-0.5,0.4-1.6,0.4-0.4c0,0.7-0.3,1.6-0.4,2.3c-0.3,1-0.6,2.1-0.9,3.1c-0.4,1.2-0.9,2.4-1.5,3.6
				c-0.4,0.9-0.5,1.2,0.3,1.9c1.5,1.3,3.9,0.5,3.6-1.7c0-0.3-0.6-0.3-0.5,0c-1.5,1.5-2.7,1.6-3.5,0.5c-0.1-0.1-0.3-0.2-0.4-0.3
				c-0.2-0.1-0.3-0.2-0.5-0.2c-0.3,0-0.8,0.1-1,0.4c-0.6,0.8,0.4,1.5,1.2,1.3c1.3-0.3,1.9-2.9,2.3-3.9c1-2.5,2.1-5.5,1.8-8.2
				c0-0.2-0.2-0.3-0.4-0.2c-0.8,0.5-1,1-1,2C114.2,30.8,114.7,30.8,114.7,30.5L114.7,30.5z"/>
		</g>
	</g>
</g>
<g class="st1">
	<path d="M86,41.3v-0.5h0.5v0.5H86z"/>
</g>
<g class="st1">
	<path d="M107.9,41.3v-0.5h0.5v0.5H107.9z"/>
</g>
</svg>
