<?xml version="1.0" encoding="utf-8"?>
<!-- Generator: Adobe Illustrator 24.0.1, SVG Export Plug-In . SVG Version: 6.00 Build 0)  -->
<svg version="1.1" id="Layer_1" xmlns="http://www.w3.org/2000/svg" xmlns:xlink="http://www.w3.org/1999/xlink" x="0px" y="0px"
	 viewBox="0 0 141.7 141.7" style="enable-background:new 0 0 141.7 141.7;" xml:space="preserve">
<style type="text/css">
	.st0{fill:#070707;}
</style>
<g id="Layer_1_1_">
</g>
<g id="Layer_1_2_">
</g>
<g id="Layer_1_3_">
</g>
<g id="Layer_1_4_">
</g>
<g id="Layer_1_5_">
</g>
<g id="Layer_3">
</g>
<g id="Layer_3_1_">
</g>
<g id="Layer_1_6_">
</g>
<g id="Layer_1_7_">
</g>
<g id="Layer_1_8_">
</g>
<g id="Layer_1_9_">
</g>
<g id="Layer_1_10_">
</g>
<g id="Layer_1_11_">
</g>
<g id="Layer_1_12_">
</g>
<g id="Layer_1_13_">
</g>
<g id="Layer_1_14_">
</g>
<g id="Layer_1_15_">
</g>
<g id="Layer_1_16_">
</g>
<g id="Layer_1_17_">
</g>
<g id="Layer_1_18_">
</g>
<g id="Layer_1_19_">
</g>
<g id="Layer_1_20_">
</g>
<g>
	<g>
		<path class="st0" d="M44.8,88.2c0.2,0,0.3-0.1,0.5-0.2c0-0.1-0.1-0.2-0.2-0.4c-2.6,1.3-6.1,4.2-5.6,7.5c0.5,3.6,5.1,3.3,7.6,2.6
			c1.8-0.5,3.5-1.3,5.2-2c1.4-0.6,3.4-0.7,4.7-1.7c3.4-2.5-1.7-6-3.8-7.1c-0.2-0.1-0.4,0.3-0.2,0.4c1.4,0.7,2.7,1.6,3.8,2.7
			c0.9,1,1.1,2.5,0.2,3.4c-0.5,0.5-1.5,0.7-2.2,0.9c-2.3,0.6-4.5,1.7-6.7,2.5c-2.7,1-7.3,1.8-8.2-1.9c-0.8-2.9,3.2-5.9,5.4-7
			c0.2-0.1,0.1-0.4-0.2-0.4c-0.2,0-0.3,0.1-0.5,0.2C44.4,88,44.6,88.3,44.8,88.2L44.8,88.2z"/>
	</g>
</g>
<g>
	<path class="st0" d="M56.7,84.6c-0.3-1.9-3.5-3-7.1-2.4s-6.2,2.6-5.9,4.6s3.5,3,7.1,2.4S57,86.6,56.7,84.6z"/>
</g>
<g>
	<g>
		<path class="st0" d="M52.5,95.7c0.5,2.6,2.6,8.2-0.4,10c-2.3,1.4-4.1-1.1-4.7-3c-0.4-1.6-0.5-3.3-0.3-5c0-0.3-0.4-0.3-0.4,0
			c-0.4,3.3,0.3,9.6,5,8.6c4.1-0.9,1.6-8.2,1.2-10.6C52.9,95.3,52.4,95.4,52.5,95.7L52.5,95.7z"/>
	</g>
</g>
<g>
	<g>
		<path class="st0" d="M53.9,104c4.7,0.2,1.7-6.7,1.3-9.1c0-0.3-0.4-0.2-0.4,0.1c0.4,2.1,3.2,8.8-0.9,8.6
			C53.7,103.6,53.7,104,53.9,104L53.9,104z"/>
	</g>
</g>
<g>
	<path class="st0" d="M39.9,79.7c-3.3,0-6.5-1-9.3-2.9c-3.5-2.4-5.8-6-6.5-10.2c-1.4-8.5,4.6-16.6,13.4-18.1l0,0
		c8.8-1.4,17.1,4.3,18.5,12.9c0.7,4.1-0.3,8.3-2.9,11.7c-2.5,3.4-6.3,5.7-10.5,6.4C41.7,79.6,40.8,79.7,39.9,79.7z M37.6,48.8l0,0.3
		c-8.5,1.4-14.3,9.2-12.9,17.4c0.6,4,2.9,7.5,6.2,9.8c3.4,2.3,7.5,3.3,11.6,2.6c4.1-0.7,7.7-2.9,10.1-6.1c2.4-3.3,3.4-7.3,2.8-11.3
		c-1.3-8.2-9.3-13.8-17.8-12.4L37.6,48.8z"/>
</g>
<g>
	<path class="st0" d="M42,55.4c-1.3,2.5-0.4,5.6,2.1,6.9c2.5,1.3,5.5,0.3,6.9-2.3c1.3-2.5,0.4-5.6-2.1-6.9
		C46.3,51.9,43.3,52.9,42,55.4z M50.2,57.4c-0.4,0.7-1.2,1-1.9,0.6c-0.7-0.4-1-1.2-0.6-1.9c0.4-0.7,1.2-1,1.9-0.6
		C50.3,55.8,50.6,56.6,50.2,57.4z"/>
</g>
<g>
	<path class="st0" d="M41,77.1c-3,0-6-0.9-8.5-2.6c-3.2-2.2-5.3-5.5-5.9-9.3c-1.3-7.8,4.3-15.1,12.3-16.5l0,0
		c8.1-1.3,15.6,3.9,16.9,11.7c0.6,3.8-0.3,7.5-2.7,10.7c-2.3,3.1-5.8,5.2-9.7,5.8C42.7,77,41.8,77.1,41,77.1z M39,49.3
		c-7.7,1.3-13,8.3-11.8,15.8c0.6,3.6,2.6,6.7,5.7,8.9c3.1,2.1,6.8,2.9,10.6,2.3c3.7-0.6,7-2.6,9.3-5.6c2.2-3,3.1-6.6,2.5-10.2
		C54,53.1,46.7,48,39,49.3L39,49.3z"/>
</g>
<g>
	<g>
		<g>
			<path class="st0" d="M25.9,68.2c0.1,2.2,1,4.3,2.7,5.7c1.1,0.9,2.2,0.9,1.7-0.8c-0.4-1.3-1-2.5-1.7-3.6c-0.4-0.7-1-2.3-1.8-2.6
				c-1.6-0.6-0.6,2.6-0.4,3.1c0.1,0.3,0.6,0,0.4-0.2c-0.2-0.4-1.2-2.7,0.2-1.9c0.4,0.2,0.8,1.3,1.1,1.7c0.6,1,1.5,2.4,1.7,3.5
				c0.3,0.4,0.2,0.7-0.1,1c-0.4-0.2-0.7-0.5-1-0.8c-0.4-0.4-0.8-0.8-1.1-1.2c-0.8-1.2-1.1-2.5-1.2-3.9
				C26.3,67.9,25.8,67.9,25.9,68.2L25.9,68.2z"/>
		</g>
	</g>
</g>
<g>
	<g>
		<g>
			<path class="st0" d="M31.4,75.3c0.4-0.4,1.2,0.1,0.8,0.7c-0.2,0.2-0.5,0.3-0.7,0C31.3,75.8,31.3,75.5,31.4,75.3
				c0.2-0.2-0.2-0.6-0.4-0.4c-0.3,0.4-0.3,1,0,1.4c0.4,0.4,1.1,0.4,1.4,0c0.4-0.4,0.4-1.1-0.1-1.4c-0.4-0.3-1-0.3-1.4,0.1
				C30.9,75.2,31.2,75.5,31.4,75.3L31.4,75.3z"/>
		</g>
	</g>
</g>
<g>
	<g>
		<path class="st0" d="M74.1,62.9c-1.4-8.5-9.6-14.2-18.4-12.8c-1.9,0.3-3.8,1-5.5,1.9c0.1,0.1,0.2,0.2,0.3,0.3c0,0,0.1,0,0.1,0.1
			c1.6-0.9,3.3-1.5,5.2-1.8c8.5-1.4,16.5,4.2,17.8,12.4c0.6,4-0.3,8-2.8,11.3c-2.5,3.3-6.1,5.5-10.2,6.1c-4.6,0.8-9.1-0.5-12.6-3.3
			c-0.2,0.1-0.3,0.2-0.4,0.3c2.9,2.5,6.6,3.8,10.4,3.8c0.9,0,1.8-0.1,2.7-0.2c4.2-0.7,8-2.9,10.5-6.3C73.8,71.2,74.8,67,74.1,62.9z"
			/>
	</g>
</g>
<g>
	<g>
		<path class="st0" d="M60.2,56.9c-1.3,2.5-0.4,5.6,2.1,6.9c2.5,1.3,5.5,0.3,6.9-2.3c1.3-2.5,0.4-5.6-2.1-6.9
			C64.6,53.4,61.5,54.4,60.2,56.9z M68.4,58.9c-0.4,0.7-1.2,1-1.9,0.6c-0.7-0.4-1-1.2-0.6-1.9c0.4-0.7,1.2-1,1.9-0.6
			C68.5,57.3,68.8,58.2,68.4,58.9z"/>
	</g>
</g>
<g>
	<g>
		<path class="st0" d="M74,61.9c-0.6-3.8-2.7-7-5.9-9.2c-3.2-2.2-7.1-3.1-11-2.4c-2.2,0.4-4.2,1.1-6,2.4c0.1,0.1,0.2,0.2,0.4,0.3
			c0,0,0,0,0,0c1.7-1.1,3.6-1.9,5.7-2.2c3.8-0.6,7.5,0.2,10.6,2.3c3.1,2.1,5.1,5.3,5.7,8.9c0.6,3.6-0.3,7.3-2.5,10.2
			c-2.3,3-5.6,5-9.3,5.6c-3.8,0.6-7.7-0.3-10.7-2.5c-0.2,0.1-0.3,0.2-0.4,0.3c2.5,1.9,5.7,2.9,8.8,2.9c0.8,0,1.6-0.1,2.5-0.2
			c3.9-0.6,7.3-2.7,9.6-5.8C73.7,69.5,74.6,65.6,74,61.9z"/>
	</g>
</g>
<g>
	<g>
		<g>
			<path class="st0" d="M49.6,76.8c0.5-0.5,1.3,0.1,0.8,0.7c-0.2,0.2-0.6,0.3-0.8,0C49.5,77.3,49.5,77,49.6,76.8
				c0.2-0.2-0.1-0.5-0.3-0.3c-0.3,0.4-0.3,1,0,1.3c0.4,0.4,1,0.4,1.4,0c0.4-0.4,0.4-1-0.1-1.3c-0.4-0.3-1-0.3-1.3,0.1
				C49.2,76.7,49.4,76.9,49.6,76.8L49.6,76.8z"/>
		</g>
	</g>
</g>
<g>
	<g>
		<g>
			<path class="st0" d="M47.5,87.1c-3.1,1.4-5.9,4.4-6.3,7.9c-0.4,4,4.4,3.1,6.9,2.5c0.3-0.1,0.2-0.6-0.1-0.5
				c-1.3,0.3-2.9,0.7-4.3,0.4c-3.1-0.6-1.9-3.6-1-5.3c1.1-2.1,2.9-3.7,5-4.6C48.1,87.4,47.9,87,47.5,87.1L47.5,87.1z"/>
		</g>
	</g>
</g>
<g>
	<g>
		<g>
			<path class="st0" d="M45.8,98.2C45.8,98.2,45.9,98.2,45.8,98.2c0.2-0.1,0.3-0.2,0.3-0.3c0-0.2,0-0.3-0.3-0.4
				c-0.1-0.1-0.2,0-0.4,0.1c-0.6,0.8,0.1,3,0,4c0,1.3-0.4,3,0.3,4.2c1.3,2.3,4.3,1.2,6.1,0.3c0.3-0.1,0-0.6-0.2-0.4
				c-1,0.5-2.2,1-3.3,1c-1.9-0.1-2.5-1.8-2.4-3.4c0-0.4-0.1-5.6-0.3-5.5C45.4,97.8,45.5,98.3,45.8,98.2L45.8,98.2z"/>
		</g>
	</g>
</g>
<g>
	<g>
		<g>
			<path class="st0" d="M71.7,109.1c-1.5-10.7-1.9-21.6-1.9-32.5c0-0.6-1-0.6-1,0c0.1,10.9,0.5,21.9,2,32.7
				C70.9,110,71.8,109.7,71.7,109.1L71.7,109.1z"/>
		</g>
	</g>
</g>
<g>
	<g>
		<g>
			<path class="st0" d="M45.4,49c-0.9-5,5.1-6.9,9-6.9c2.1,0,4.5,0.6,5.7,2.4c1.3,1.8,1,4,0.7,6.1c-0.1,0.6,0.9,0.6,1,0
				c0.3-2.5,0.5-5.2-1.3-7.3c-1.7-1.9-4.4-2.4-6.8-2.3c-4.5,0.2-10.3,2.7-9.3,8.2C44.6,49.9,45.6,49.6,45.4,49L45.4,49z"/>
		</g>
	</g>
</g>
<g>
	<g>
		<g>
			<path class="st0" d="M19.2,57.4c-2.5-1-3.6-5-2.9-7.5c0.8-2.5,3.8-4,6-4.9c2.1-0.8,4.4-1.3,6.7-1.3c1.3,0,2.6,0.2,3.6,1.1
				c1.2,1.1,1.1,2.9,1.1,4.4c0,0.6,1,0.6,1,0c0.1-3-0.6-5.8-3.9-6.4c-3.3-0.6-7.1,0.4-10.1,1.8c-2.7,1.3-5.4,3.2-5.6,6.5
				c-0.1,2.8,1.1,6.2,3.8,7.3C19.6,58.6,19.8,57.6,19.2,57.4L19.2,57.4z"/>
		</g>
	</g>
</g>
<g>
	<circle class="st0" cx="24.5" cy="53.5" r="3"/>
</g>
<g>
	<g>
		<path class="st0" d="M74,103c-1.1,1.5-4,2.8-2.7,5c1.3,2.2,4.6,0.4,6.2-0.5c1.6-1,4.9-2.6,3.6-5c-1.2-2.3-4.6,1.4-5.5,2.1
			c-0.2,0.1,0,0.4,0.2,0.2c0.9-0.8,4.7-4.7,5.3-1.5c0.3,1.8-2.8,3.2-4,4c-1.6,1-4.7,2.3-5.8,0c-0.7-1.6,2.1-3.1,2.9-4.2
			C74.4,103,74.1,102.8,74,103L74,103z"/>
	</g>
</g>
<g>
	<g>
		<path class="st0" d="M78,101c0-0.1,0.1-0.2,0.2-0.3c-1.5-0.1-3,1-4.2,2.3c-0.1,0.2,0.1,0.4,0.2,0.2C75.2,102.1,76.6,101,78,101z"
			/>
	</g>
</g>
<g>
	<g>
		<g>
			<path class="st0" d="M99.2,52.4c-2.5,8.5-5.9,16.7-9,25c-3.2,8.4-6.3,16.8-9.6,25.2c-0.1,0.3,0.4,0.4,0.5,0.1
				c3.2-8.4,6.4-16.8,9.6-25.2c3.1-8.2,6.6-16.5,9-25C99.8,52.2,99.3,52.1,99.2,52.4L99.2,52.4z"/>
		</g>
	</g>
</g>
<g>
	<g>
		<g>
			<path class="st0" d="M76.1,105.5C83.7,87.6,92,70,99,51.8c0.1-0.3-0.4-0.4-0.5-0.1c-7,18.1-15.3,35.7-22.9,53.5
				C75.5,105.5,75.9,105.8,76.1,105.5L76.1,105.5z"/>
		</g>
	</g>
</g>
<g>
	<g>
		<g>
			<path class="st0" d="M75.7,108.1c-0.6,1-1.9,2.9-1.6,4.1c0.2,0.8,1.2,0.7,1.9,0.7c1.1,0,1.9-0.6,2.4-1.6c0.7-1.6,1.1-3.5,1.5-5.2
				c0.1-0.3-0.4-0.4-0.5-0.1c-0.2,1-0.5,1.9-0.8,2.9c-0.3,1-0.5,2.3-1.3,3c-0.4,0.4-1,0.8-1.6,0.6c-0.3,0.1-0.6,0-0.8-0.4
				c-0.4-0.2-0.5-0.4-0.2-0.8c0-1,0.9-2.1,1.3-2.9C76.3,108.1,75.8,107.8,75.7,108.1L75.7,108.1z"/>
		</g>
	</g>
</g>
<g>
	<g>
		<g>
			<path class="st0" d="M50.9,100.8c-0.8,0.4-1.5,1.1-1.8,1.9c-0.3,0.8,0,1.4,0.8,1.5c1.9,0.2,2.7-2.3,1.5-3.5
				c-0.2-0.2-0.6,0.1-0.4,0.4c0.9,0.9,0.5,2.7-1,2.7c-1,0-0.5-1-0.2-1.5s0.8-0.8,1.3-1C51.4,101.1,51.2,100.6,50.9,100.8L50.9,100.8
				z"/>
		</g>
	</g>
</g>
<g>
	<g>
		<g>
			<path class="st0" d="M74.1,108.7c-0.6,0.8-1.5,1.7-1.2,2.8c0.2,0.8,0.9,1.5,1.8,1.3c0.3-0.1,0.2-0.6-0.1-0.5
				c-1,0.2-1.3-1-1.1-1.7c0.2-0.6,0.6-1.1,1-1.6C74.7,108.8,74.3,108.5,74.1,108.7L74.1,108.7z"/>
		</g>
	</g>
</g>
<g>
	<g>
		<g>
			<path class="st0" d="M98.5,51.7c-0.1,0.4-0.3,0.7-0.4,1.1c-0.1,0.3,0.4,0.4,0.5,0.1c0.1-0.4,0.3-0.7,0.4-1.1
				C99.1,51.5,98.7,51.4,98.5,51.7L98.5,51.7z"/>
		</g>
	</g>
</g>
<g>
	<g>
		<g>
			<path class="st0" d="M77.7,103.4c7.9-17,14.9-34.4,21.8-51.8c0.1-0.3-0.4-0.4-0.5-0.1c-6.8,17.4-13.8,34.7-21.7,51.7
				C77.1,103.4,77.6,103.6,77.7,103.4L77.7,103.4z"/>
		</g>
	</g>
</g>
<g>
	<g>
		<g>
			<path class="st0" d="M75.8,108.6c1.1,0.5,2.3,0.4,3.3-0.1c0.3-0.2,0-0.6-0.2-0.4c-0.9,0.5-1.9,0.5-2.8,0.1
				C75.7,108,75.5,108.5,75.8,108.6L75.8,108.6z"/>
		</g>
	</g>
</g>
<g>
	<g>
		<g>
			<path class="st0" d="M77.9,99.8c0.9,1.1,2.3,1.3,3.6,0.7c0.3-0.2,0-0.6-0.2-0.4c-1,0.5-2.2,0.2-3-0.6
				C78.1,99.2,77.7,99.5,77.9,99.8L77.9,99.8z"/>
		</g>
	</g>
</g>
<g>
	<g>
		<g>
			<path class="st0" d="M117.4,30.9c3.3-0.4,6.7-0.6,10-0.6c0.3,0,0.3-0.5,0-0.5c-3.3,0-6.7,0.2-10,0.6
				C117.1,30.4,117.1,30.9,117.4,30.9L117.4,30.9z"/>
		</g>
	</g>
</g>
<g>
	<g>
		<g>
			<path class="st0" d="M117.6,33.3c3.5,0,7.1-0.1,10.6-0.1c0.3,0,0.3-0.5,0-0.5c-3.5,0-7.1,0.1-10.6,0.1
				C117.3,32.9,117.3,33.4,117.6,33.3L117.6,33.3z"/>
		</g>
	</g>
</g>
<g>
	<g>
		<g>
			<path class="st0" d="M86.9,27c-0.6-4.2-6.1-1.8-7.9,0.2c-2.8,3.2-3.7,8.8-1.8,12.6c2.2,4.5,6.3-0.9,7.5-3.3c1-2,3.6-9.6-0.2-10.2
				c-0.3,0-0.4,0.4-0.1,0.5c3.1,0.5,1,7,0.3,8.6c-0.6,1.3-1.3,2.5-2.2,3.6c-0.4,0.5-1.1,1.4-1.7,1.7c-2.5,1.2-3.2-1.1-3.6-2.5
				c-0.8-2.9-0.4-6.1,0.9-8.8c0.7-1.3,1.7-2.6,3-3.4c1.5-1,5-1.7,5.4,1.1C86.4,27.5,86.9,27.3,86.9,27L86.9,27z"/>
		</g>
	</g>
</g>
<g>
	<g>
		<g>
			<path class="st0" d="M89.1,31c1.2-2,2.2-4.1,3.1-6.3c-0.2,0-0.3-0.1-0.5-0.1c-1.1,5.2-1.9,10.4-2.4,15.7c0,0.3,0.5,0.3,0.5,0
				c0.5-5.2,1.3-10.4,2.4-15.5c0.1-0.3-0.4-0.4-0.5-0.1c-0.8,2.2-1.8,4.2-3,6.2C88.5,31,88.9,31.3,89.1,31L89.1,31z"/>
		</g>
	</g>
</g>
<g>
	<g>
		<g>
			<path class="st0" d="M85.1,41.1c0-0.2,0.1-0.4,0.2-0.6c-0.1,0-0.2,0-0.4,0c0.3,0.1,0.6,0.1,0.8,0c-0.1,0-0.2-0.1-0.3-0.2
				c0.3,1.7,0,3.5-0.6,5.2c-0.1,0.3,0.4,0.4,0.5,0.1c0.7-1.7,0.9-3.6,0.6-5.4c0-0.2-0.2-0.2-0.3-0.2c-0.4,0.1-1,0.2-1.1,0.7
				c-0.1,0.3,0,0.7,0.4,0.8c0.3,0.1,0.6-0.1,0.8-0.3c0.2-0.4,0-0.9-0.4-1.1c-0.1-0.1-0.2-0.1-0.4,0c-0.3,0.3-0.4,0.5-0.3,1
				C84.6,41.4,85.1,41.4,85.1,41.1L85.1,41.1z"/>
		</g>
	</g>
</g>
<g>
	<g>
		<g>
			<path class="st0" d="M96.6,30.9c-0.2,1.5-0.4,3.1-0.7,4.6c0,0.3,0.4,0.4,0.5,0.1c0.2-1.5,0.4-3.1,0.7-4.6
				C97.1,30.7,96.6,30.6,96.6,30.9L96.6,30.9z"/>
		</g>
	</g>
</g>
<g>
	<g>
		<g>
			<path class="st0" d="M94.1,34.3c1.2-0.4,2.4-0.6,3.7-0.8c0.3,0,0.2-0.5-0.1-0.5c-1.2,0.2-2.5,0.5-3.7,0.8
				C93.7,33.9,93.8,34.4,94.1,34.3L94.1,34.3z"/>
		</g>
	</g>
</g>
<g>
	<g>
		<g>
			<path class="st0" d="M105,25.5c-2.9-0.1-4.1,4.8-4.6,6.9c-0.4,1.9-0.6,3.8-0.4,5.7c0,0.8,0,2.7,1,3.2c2.1,0.9,3.8-4,4.3-5.4
				c0.8-2.3,1.9-6.9-0.2-8.9c-0.2-0.2-0.6,0.1-0.4,0.4c1.6,1.5,1,5,0.6,6.9c-0.3,1.2-0.8,2.5-1.3,3.6c-0.2,0.4-0.4,0.8-0.6,1.1
				c-0.7,1.1-0.6,1.7-1.9,0.8c-1-0.7-0.9-0.7-1-1.7c0-0.6,0-1.1,0-1.7c0-1.2,0.2-2.4,0.4-3.6c0.4-1.9,1.5-7,4.2-6.9
				C105.3,26,105.3,25.5,105,25.5L105,25.5z"/>
		</g>
	</g>
</g>
<g>
	<g>
		<g>
			<path class="st0" d="M106.4,40.2c0,0,0-0.1,0-0.1c-0.1,0-0.2,0-0.3,0c0.1,0.1-0.1,1.6-0.1,1.7c-0.1,0.5-0.3,1-0.5,1.5
				c-0.2,0.3,0.3,0.6,0.4,0.2c0.4-0.9,0.8-2,0.7-3c0-0.4-0.4-0.9-0.8-0.4c-0.2,0.4,0.2,0.7,0.5,0.5c0.4-0.2,0.4-0.8,0-1
				c-0.1,0-0.2,0-0.3,0c-0.3,0.3-0.3,0.7,0.1,0.9C106.5,40.8,106.7,40.4,106.4,40.2L106.4,40.2z"/>
		</g>
	</g>
</g>
<g>
	<g>
		<g>
			<path class="st0" d="M112.9,30c0-0.5,0.4-1.5,0.4-0.4c0,0.7-0.2,1.5-0.4,2.2c-0.2,1-0.6,2-0.9,2.9c-0.4,1.1-0.9,2.3-1.4,3.4
				c-0.4,0.9-0.5,1.1,0.3,1.8c1.4,1.2,3.7,0.5,3.4-1.6c0-0.3-0.6-0.3-0.5,0c-1.5,1.4-2.6,1.5-3.3,0.4c-0.1-0.1-0.3-0.2-0.4-0.3
				c-0.2-0.1-0.3-0.2-0.5-0.2c-0.3,0-0.8,0.1-1,0.4c-0.6,0.8,0.4,1.4,1.1,1.2c1.3-0.3,1.8-2.7,2.2-3.7c1-2.4,2-5.2,1.7-7.8
				c0-0.2-0.2-0.3-0.4-0.2c-0.7,0.5-1,1-1,1.9C112.4,30.3,112.9,30.3,112.9,30L112.9,30z"/>
		</g>
	</g>
</g>
</svg>
