<?xml version="1.0" encoding="utf-8"?>
<!-- Generator: Adobe Illustrator 24.0.1, SVG Export Plug-In . SVG Version: 6.00 Build 0)  -->
<svg version="1.1" id="Layer_1" xmlns="http://www.w3.org/2000/svg" xmlns:xlink="http://www.w3.org/1999/xlink" x="0px" y="0px"
	 viewBox="0 0 141.7 141.7" style="enable-background:new 0 0 141.7 141.7;" xml:space="preserve">
<style type="text/css">
	.st0{fill:#070707;}
</style>
<g id="Layer_1_1_">
</g>
<g id="Layer_1_2_">
</g>
<g id="Layer_1_3_">
</g>
<g id="Layer_1_4_">
</g>
<g id="Layer_1_5_">
</g>
<g id="Layer_3">
</g>
<g id="Layer_3_1_">
</g>
<g id="Layer_1_6_">
</g>
<g id="Layer_1_7_">
</g>
<g id="Layer_1_8_">
</g>
<g id="Layer_1_9_">
</g>
<g id="Layer_1_10_">
</g>
<g id="Layer_1_11_">
</g>
<g id="Layer_1_12_">
</g>
<g id="Layer_1_13_">
</g>
<g id="Layer_1_14_">
</g>
<g id="Layer_1_15_">
</g>
<g id="Layer_1_16_">
</g>
<g id="Layer_1_17_">
</g>
<g id="Layer_1_18_">
</g>
<g id="Layer_1_19_">
</g>
<g id="Layer_1_20_">
</g>
<g>
	<g>
		<path class="st0" d="M48.5,73.6c0.1,0,0.2-0.1,0.3-0.1c0-0.1-0.1-0.2-0.1-0.2c-1.8,0.9-4.1,2.8-3.8,5c0.3,2.4,3.4,2.2,5.1,1.8
			c1.2-0.3,2.4-0.9,3.5-1.4c1-0.4,2.3-0.5,3.2-1.1c2.3-1.7-1.2-4-2.5-4.8C54,72.7,53.8,72.9,54,73c0.9,0.5,1.8,1.1,2.5,1.8
			c0.6,0.6,0.8,1.6,0.1,2.3c-0.3,0.3-1,0.5-1.5,0.6c-1.6,0.4-3,1.1-4.5,1.7c-1.8,0.6-4.9,1.2-5.5-1.3c-0.5-2,2.1-4,3.6-4.7
			c0.2-0.1,0.1-0.3-0.1-0.2c-0.1,0-0.2,0.1-0.3,0.1C48.2,73.4,48.3,73.6,48.5,73.6L48.5,73.6z"/>
	</g>
</g>
<g>
	<path class="st0" d="M56.4,71.2c-0.2-1.3-2.3-2-4.7-1.6c-2.4,0.4-4.2,1.8-4,3.1c0.2,1.3,2.3,2,4.7,1.6
		C54.9,73.8,56.6,72.5,56.4,71.2z"/>
</g>
<g>
	<g>
		<path class="st0" d="M53.6,78.5c0.3,1.7,1.7,5.5-0.2,6.7c-1.5,0.9-2.8-0.7-3.1-2c-0.3-1.1-0.3-2.2-0.2-3.3c0-0.2-0.2-0.2-0.3,0
			c-0.3,2.2,0.2,6.4,3.3,5.7c2.7-0.6,1.1-5.5,0.8-7.1C53.8,78.3,53.6,78.3,53.6,78.5L53.6,78.5z"/>
	</g>
</g>
<g>
	<g>
		<path class="st0" d="M54.5,84.1c3.1,0.2,1.1-4.5,0.9-6.1c0-0.2-0.3-0.1-0.3,0.1c0.2,1.4,2.1,5.9-0.6,5.8
			C54.4,83.8,54.4,84.1,54.5,84.1L54.5,84.1z"/>
	</g>
</g>
<g>
	<path class="st0" d="M45.2,67.8c-5.2,0-9.7-3.6-10.6-8.8c-0.5-2.8,0.2-5.6,1.9-7.8c1.7-2.3,4.2-3.8,7.1-4.3l0,0
		c2.8-0.5,5.7,0.2,8,1.8c2.3,1.6,3.9,4,4.3,6.8c0.5,2.8-0.2,5.6-1.9,7.8c-1.7,2.3-4.2,3.8-7.1,4.3C46.4,67.8,45.8,67.8,45.2,67.8z
		 M43.6,47.4c-2.7,0.4-5.2,1.9-6.8,4.1c-1.6,2.2-2.3,4.9-1.9,7.5c0.9,5.5,6.2,9.2,11.9,8.3c2.7-0.4,5.2-1.9,6.8-4.1
		c1.6-2.2,2.3-4.9,1.9-7.5c-0.4-2.7-1.9-5-4.2-6.6C49.1,47.5,46.4,46.9,43.6,47.4L43.6,47.4z"/>
</g>
<g>
	<path class="st0" d="M46.5,51.6c-0.9,1.7-0.3,3.8,1.4,4.6c1.6,0.8,3.7,0.2,4.6-1.5c0.9-1.7,0.3-3.8-1.4-4.6
		C49.5,49.2,47.4,49.9,46.5,51.6z M52.1,52.9c-0.2,0.5-0.8,0.7-1.3,0.4c-0.5-0.2-0.6-0.8-0.4-1.3c0.2-0.5,0.8-0.7,1.3-0.4
		C52.1,51.8,52.3,52.4,52.1,52.9z"/>
</g>
<g>
	<path class="st0" d="M45.9,66.1c-2,0-4-0.6-5.7-1.8c-2.1-1.5-3.5-3.7-4-6.2c-0.4-2.5,0.2-5,1.8-7.1c1.6-2.1,3.9-3.5,6.5-3.9
		c5.4-0.9,10.5,2.6,11.3,7.8c0.4,2.5-0.2,5-1.8,7.1c-1.6,2.1-3.9,3.5-6.5,3.9C47,66,46.5,66.1,45.9,66.1z M46.2,47.4
		c-0.5,0-1.1,0-1.6,0.1c-2.5,0.4-4.7,1.7-6.2,3.7c-1.5,2-2.1,4.4-1.7,6.8c0.4,2.4,1.7,4.5,3.8,5.9c2.1,1.4,4.6,2,7.1,1.6
		c2.5-0.4,4.7-1.7,6.2-3.7c1.5-2,2.1-4.4,1.7-6.8C54.7,50.5,50.7,47.4,46.2,47.4z"/>
</g>
<g>
	<g>
		<g>
			<path class="st0" d="M35.7,60.1c0.1,1.5,0.7,2.9,1.8,3.8c0.7,0.6,1.5,0.6,1.1-0.5c-0.3-0.8-0.7-1.7-1.1-2.4
				c-0.3-0.5-0.7-1.6-1.2-1.8c-1.1-0.4-0.4,1.8-0.2,2.1c0.1,0.2,0.4,0,0.3-0.2c-0.1-0.2-0.8-1.8,0.1-1.3c0.3,0.1,0.6,0.8,0.7,1.1
				c0.4,0.7,1,1.6,1.1,2.3c0.2,0.2,0.2,0.5-0.1,0.7c-0.2-0.1-0.5-0.3-0.6-0.5c-0.3-0.2-0.5-0.5-0.7-0.8c-0.5-0.8-0.8-1.7-0.8-2.6
				C36.1,59.9,35.7,59.9,35.7,60.1L35.7,60.1z"/>
		</g>
	</g>
</g>
<g>
	<g>
		<g>
			<path class="st0" d="M39.5,64.9c0.3-0.3,0.8,0.1,0.5,0.5c-0.1,0.2-0.3,0.2-0.5,0C39.4,65.2,39.4,65,39.5,64.9
				c0.1-0.2-0.1-0.4-0.2-0.2c-0.2,0.3-0.2,0.7,0,0.9c0.3,0.3,0.7,0.3,1,0c0.3-0.3,0.3-0.7-0.1-1c-0.3-0.2-0.7-0.2-0.9,0.1
				C39.1,64.8,39.4,65,39.5,64.9L39.5,64.9z"/>
		</g>
	</g>
</g>
<g>
	<g>
		<path class="st0" d="M68.1,56.6c-0.9-5.7-6.4-9.5-12.3-8.6c-1.3,0.2-2.5,0.6-3.7,1.3c0.1,0.1,0.1,0.1,0.2,0.2c0,0,0.1,0,0.1,0.1
			c1.1-0.6,2.2-1,3.5-1.2c5.7-0.9,11,2.8,11.9,8.3c0.4,2.7-0.2,5.4-1.9,7.6c-1.6,2.2-4.1,3.7-6.8,4.1C56,68.8,53,68,50.7,66.1
			c-0.1,0.1-0.2,0.1-0.3,0.2c2,1.6,4.4,2.5,7,2.5c0.6,0,1.2-0.1,1.8-0.2c2.8-0.5,5.3-2,7-4.2C67.9,62.1,68.5,59.3,68.1,56.6z"/>
	</g>
</g>
<g>
	<g>
		<path class="st0" d="M58.7,52.6c-0.9,1.7-0.3,3.8,1.4,4.6c1.6,0.8,3.7,0.2,4.6-1.5c0.9-1.7,0.3-3.8-1.4-4.6
			C61.7,50.2,59.6,50.9,58.7,52.6z M64.3,53.9c-0.2,0.5-0.8,0.7-1.3,0.4c-0.5-0.2-0.6-0.8-0.4-1.3c0.2-0.5,0.8-0.7,1.3-0.4
			C64.3,52.8,64.5,53.4,64.3,53.9z"/>
	</g>
</g>
<g>
	<g>
		<path class="st0" d="M68,55.9c-0.4-2.5-1.8-4.7-4-6.2c-2.1-1.5-4.7-2-7.4-1.6c-1.5,0.2-2.8,0.8-4,1.6c0.1,0.1,0.2,0.1,0.2,0.2
			c0,0,0,0,0,0c1.1-0.7,2.4-1.2,3.8-1.5c2.5-0.4,5,0.1,7.1,1.6c2.1,1.4,3.4,3.5,3.8,5.9c0.4,2.4-0.2,4.9-1.7,6.8
			c-1.5,2-3.7,3.3-6.2,3.7c-2.5,0.4-5.1-0.2-7.2-1.6c-0.1,0.1-0.2,0.1-0.3,0.2c1.7,1.2,3.8,1.9,5.9,1.9c0.6,0,1.1-0.1,1.6-0.1
			c2.6-0.4,4.9-1.8,6.4-3.9C67.8,61,68.4,58.4,68,55.9z"/>
	</g>
</g>
<g>
	<g>
		<g>
			<path class="st0" d="M51.7,65.9c0.3-0.3,0.9,0.1,0.6,0.5c-0.1,0.2-0.4,0.2-0.5,0C51.6,66.2,51.6,66,51.7,65.9
				c0.1-0.1-0.1-0.3-0.2-0.2c-0.2,0.3-0.2,0.6,0,0.9c0.2,0.3,0.7,0.3,0.9,0c0.2-0.3,0.2-0.7-0.1-0.9c-0.3-0.2-0.7-0.2-0.9,0.1
				C51.4,65.8,51.6,66,51.7,65.9L51.7,65.9z"/>
		</g>
	</g>
</g>
<g>
	<g>
		<g>
			<path class="st0" d="M50.3,72.8c-2.1,0.9-3.9,2.9-4.2,5.3c-0.3,2.7,3,2,4.6,1.7c0.2-0.1,0.1-0.4-0.1-0.3c-0.8,0.2-2,0.5-2.9,0.3
				c-2.1-0.4-1.3-2.4-0.7-3.5c0.7-1.4,1.9-2.5,3.4-3.1C50.7,73,50.5,72.7,50.3,72.8L50.3,72.8z"/>
		</g>
	</g>
</g>
<g>
	<g>
		<g>
			<path class="st0" d="M49.1,80.3C49.1,80.3,49.1,80.3,49.1,80.3c0.1-0.1,0.2-0.1,0.2-0.2c0-0.2,0-0.2-0.2-0.3
				c-0.1-0.1-0.2,0-0.2,0.1c-0.4,0.5,0.1,2,0,2.7c0,0.9-0.3,2,0.2,2.8c0.9,1.5,2.9,0.8,4.1,0.2c0.2-0.1,0-0.4-0.2-0.3
				c-0.7,0.3-1.5,0.7-2.2,0.7c-1.3-0.1-1.6-1.2-1.6-2.3c0-0.3-0.1-3.7-0.2-3.7C48.8,80,48.9,80.3,49.1,80.3L49.1,80.3z"/>
		</g>
	</g>
</g>
<g>
	<g>
		<g>
			<path class="st0" d="M63.3,113.8c3.1-1.6,5.7-4.1,6.9-7.4c1.4-3.9-0.2-7.9-1.7-11.5c-0.9-2.2-1.8-4.2-2.2-6.6
				c-0.5-2.5-0.6-5.2-0.7-7.8c-0.3-4.9-0.5-9.8-0.5-14.8c0-0.4-0.7-0.4-0.7,0c0,4.5,0.1,9,0.4,13.5c0.3,4.3,0.3,9,1.9,13
				c1.5,3.8,4,7.9,3.3,12.2c-0.6,3.9-3.7,7-7.1,8.8C62.6,113.4,62.9,114,63.3,113.8L63.3,113.8z"/>
		</g>
	</g>
</g>
<g>
	<g>
		<g>
			<path class="st0" d="M46.5,116.9c2.8,0,5.6-0.2,8.3-0.6c0.4-0.1,0.2-0.7-0.2-0.6c-2.7,0.4-5.4,0.5-8.2,0.5
				C46,116.2,46,116.9,46.5,116.9L46.5,116.9z"/>
		</g>
	</g>
</g>
<g>
	<g>
		<g>
			<path class="st0" d="M24.6,83c-2.1,7.3-5.6,15-3.9,22.8c0.4,1.7,0.9,3.2,2.1,4.5c1.1,1.1,2.3,2,3.7,2.7c2.9,1.5,6.1,2.1,9.2,2.7
				c0.4,0.1,0.6-0.6,0.2-0.6c-3-0.6-6-1.2-8.7-2.5c-1.4-0.7-2.7-1.5-3.8-2.7c-1.4-1.4-1.9-3.3-2.3-5.3c-1.2-7.4,2.1-14.7,4.1-21.6
				C25.4,82.8,24.8,82.6,24.6,83L24.6,83z"/>
		</g>
	</g>
</g>
<g>
	<g>
		<g>
			<path class="st0" d="M35.8,51.6c-4.2,0.1-6.1,4.6-7,8c-1.7,6.1-1.6,12.6-2.9,18.7c-0.1,0.4,0.6,0.6,0.6,0.2
				c1.2-5.4,1.2-10.9,2.3-16.3c0.7-3.6,2.2-9.8,6.9-10C36.2,52.3,36.2,51.6,35.8,51.6L35.8,51.6z"/>
		</g>
	</g>
</g>
<g>
	<g>
		<g>
			<path class="st0" d="M48.9,47.3c-0.6-3.4,3.4-4.6,6-4.6c1.4,0,3,0.4,3.8,1.6c0.8,1.2,0.7,2.7,0.5,4.1c-0.1,0.4,0.6,0.4,0.7,0
				c0.2-1.7,0.3-3.5-0.9-4.9c-1.1-1.2-2.9-1.6-4.5-1.5c-3,0.1-6.9,1.8-6.2,5.5C48.3,47.9,49,47.7,48.9,47.3L48.9,47.3z"/>
		</g>
	</g>
</g>
<g>
	<g>
		<g>
			<path class="st0" d="M31.3,52.9c-1.7-0.7-2.4-3.4-2-5c0.5-1.7,2.5-2.7,4-3.3c1.4-0.6,2.9-0.9,4.5-0.9c0.9,0,1.8,0.1,2.4,0.8
				c0.8,0.8,0.7,1.9,0.7,2.9c0,0.4,0.6,0.4,0.7,0c0.1-2-0.4-3.9-2.6-4.3c-2.2-0.4-4.8,0.3-6.7,1.2c-1.8,0.8-3.6,2.1-3.7,4.3
				c-0.1,1.9,0.7,4.1,2.6,4.9C31.6,53.7,31.7,53.1,31.3,52.9L31.3,52.9z"/>
		</g>
	</g>
</g>
<g>
	<g>
		<path class="st0" d="M68,83.4c-0.7,1-2.7,1.9-1.8,3.4c0.9,1.5,3.1,0.3,4.1-0.3c1.1-0.6,3.3-1.8,2.4-3.3c-0.8-1.5-3.1,1-3.7,1.4
			c-0.1,0.1,0,0.3,0.1,0.2c0.6-0.5,3.1-3.2,3.5-1c0.2,1.2-1.9,2.1-2.7,2.7c-1.1,0.6-3.1,1.6-3.9,0c-0.5-1.1,1.4-2.1,1.9-2.8
			C68.2,83.5,68.1,83.3,68,83.4L68,83.4z"/>
	</g>
</g>
<g>
	<g>
		<path class="st0" d="M70.6,82.1c0-0.1,0.1-0.1,0.1-0.2c-1-0.1-2,0.7-2.8,1.6c-0.1,0.1,0.1,0.2,0.2,0.1
			C68.8,82.8,69.7,82.1,70.6,82.1z"/>
	</g>
</g>
<g>
	<g>
		<g>
			<path class="st0" d="M84.9,49.5c-1.6,5.7-4,11.2-6.1,16.7c-2.1,5.6-4.2,11.3-6.4,16.9c-0.1,0.2,0.2,0.3,0.3,0.1
				c2.1-5.6,4.3-11.2,6.4-16.9c2.1-5.5,4.4-11,6.1-16.7C85.3,49.4,84.9,49.3,84.9,49.5L84.9,49.5z"/>
		</g>
	</g>
</g>
<g>
	<g>
		<g>
			<path class="st0" d="M69.3,85.1c5.1-12,10.7-23.8,15.4-35.9c0.1-0.2-0.2-0.3-0.3-0.1C79.7,61.2,74.2,73,69.1,84.9
				C69,85.1,69.3,85.3,69.3,85.1L69.3,85.1z"/>
		</g>
	</g>
</g>
<g>
	<g>
		<g>
			<path class="st0" d="M69.1,86.9c-0.4,0.6-1.2,2-1.1,2.8c0.1,0.5,0.8,0.5,1.2,0.5c0.8,0,1.3-0.4,1.6-1.1c0.5-1.1,0.8-2.3,1-3.5
				c0.1-0.2-0.3-0.3-0.3-0.1c-0.2,0.6-0.3,1.3-0.5,1.9c-0.2,0.6-0.3,1.5-0.8,2c-0.3,0.3-0.7,0.5-1.1,0.4c-0.2,0.1-0.4,0-0.5-0.2
				c-0.3-0.1-0.3-0.3-0.2-0.5c0-0.6,0.6-1.4,0.9-1.9C69.5,86.8,69.2,86.7,69.1,86.9L69.1,86.9z"/>
		</g>
	</g>
</g>
<g>
	<g>
		<g>
			<path class="st0" d="M52.5,81.9c-0.5,0.3-1,0.7-1.2,1.3c-0.2,0.5,0,1,0.5,1c1.3,0.1,1.8-1.5,1-2.3c-0.2-0.2-0.4,0.1-0.2,0.2
				c0.6,0.6,0.3,1.8-0.7,1.8c-0.7,0-0.3-0.7-0.1-1c0.2-0.3,0.5-0.5,0.8-0.7C52.9,82.1,52.7,81.8,52.5,81.9L52.5,81.9z"/>
		</g>
	</g>
</g>
<g>
	<g>
		<g>
			<path class="st0" d="M68.1,87.3c-0.4,0.5-1,1.1-0.8,1.9c0.1,0.6,0.6,1,1.2,0.9c0.2-0.1,0.1-0.4-0.1-0.3c-0.6,0.1-0.9-0.6-0.7-1.1
				c0.1-0.4,0.4-0.7,0.7-1.1C68.5,87.3,68.2,87.1,68.1,87.3L68.1,87.3z"/>
		</g>
	</g>
</g>
<g>
	<g>
		<g>
			<path class="st0" d="M84.4,49.1c-0.1,0.2-0.2,0.5-0.3,0.7c-0.1,0.2,0.2,0.3,0.3,0.1c0.1-0.2,0.2-0.5,0.3-0.7
				C84.8,49,84.5,48.9,84.4,49.1L84.4,49.1z"/>
		</g>
	</g>
</g>
<g>
	<g>
		<g>
			<path class="st0" d="M70.5,83.7c5.3-11.4,10-23,14.6-34.7c0.1-0.2-0.2-0.3-0.3-0.1c-4.6,11.7-9.3,23.3-14.5,34.6
				C70.1,83.7,70.4,83.9,70.5,83.7L70.5,83.7z"/>
		</g>
	</g>
</g>
<g>
	<g>
		<g>
			<path class="st0" d="M69.2,87.2c0.7,0.3,1.5,0.3,2.2-0.1c0.2-0.1,0-0.4-0.2-0.3c-0.6,0.3-1.2,0.3-1.9,0.1
				C69.2,86.8,69,87.1,69.2,87.2L69.2,87.2z"/>
		</g>
	</g>
</g>
<g>
	<g>
		<g>
			<path class="st0" d="M70.6,81.3c0.6,0.7,1.6,0.9,2.4,0.5c0.2-0.1,0-0.4-0.2-0.3c-0.7,0.3-1.5,0.2-2-0.4
				C70.7,80.9,70.5,81.1,70.6,81.3L70.6,81.3z"/>
		</g>
	</g>
</g>
<g>
	<g>
		<g>
			<path class="st0" d="M97.1,35.1c2.2-0.2,4.5-0.4,6.7-0.4c0.2,0,0.2-0.3,0-0.3c-2.2,0-4.5,0.2-6.7,0.4
				C96.8,34.8,96.8,35.2,97.1,35.1L97.1,35.1z"/>
		</g>
	</g>
</g>
<g>
	<g>
		<g>
			<path class="st0" d="M97.2,36.8c2.4,0,4.8-0.1,7.1-0.1c0.2,0,0.2-0.3,0-0.3c-2.4,0-4.8,0.1-7.1,0.1C97,36.5,97,36.8,97.2,36.8
				L97.2,36.8z"/>
		</g>
	</g>
</g>
<g>
	<g>
		<g>
			<path class="st0" d="M76.6,32.6c-0.4-2.8-4.1-1.2-5.3,0.1c-1.9,2.1-2.5,5.9-1.2,8.5c1.5,3,4.2-0.6,5-2.2c0.7-1.3,2.4-6.4-0.2-6.8
				c-0.2,0-0.3,0.3-0.1,0.3c2.1,0.3,0.7,4.7,0.2,5.8c-0.4,0.8-0.8,1.7-1.5,2.4c-0.3,0.3-0.8,0.9-1.2,1.1c-1.7,0.8-2.1-0.7-2.4-1.7
				c-0.5-1.9-0.3-4.1,0.6-5.9c0.5-0.9,1.1-1.8,2-2.3c1-0.7,3.3-1.1,3.6,0.7C76.3,32.9,76.6,32.8,76.6,32.6L76.6,32.6z"/>
		</g>
	</g>
</g>
<g>
	<g>
		<g>
			<path class="st0" d="M78.1,35.2c0.8-1.4,1.5-2.8,2-4.2c-0.1,0-0.2-0.1-0.3-0.1c-0.7,3.5-1.3,7-1.6,10.5c0,0.2,0.3,0.2,0.3,0
				c0.3-3.5,0.9-7,1.6-10.4c0.1-0.2-0.2-0.3-0.3-0.1c-0.5,1.5-1.2,2.8-2,4.2C77.7,35.2,78,35.4,78.1,35.2L78.1,35.2z"/>
		</g>
	</g>
</g>
<g>
	<g>
		<g>
			<path class="st0" d="M75.4,42c0-0.1,0.1-0.3,0.1-0.4c-0.1,0-0.2,0-0.2,0c0.2,0.1,0.4,0.1,0.5,0c-0.1,0-0.1-0.1-0.2-0.1
				c0.2,1.2,0,2.3-0.4,3.5c-0.1,0.2,0.2,0.3,0.3,0.1c0.5-1.2,0.6-2.4,0.4-3.6c0-0.1-0.1-0.1-0.2-0.1c-0.3,0.1-0.6,0.2-0.7,0.5
				c-0.1,0.2,0,0.5,0.3,0.6c0.2,0.1,0.4-0.1,0.5-0.2c0.2-0.3,0-0.6-0.3-0.8c-0.1-0.1-0.2-0.1-0.2,0c-0.2,0.2-0.2,0.3-0.2,0.7
				C75.1,42.2,75.5,42.2,75.4,42L75.4,42z"/>
		</g>
	</g>
</g>
<g>
	<g>
		<g>
			<path class="st0" d="M83.1,35.1c-0.2,1-0.3,2-0.5,3.1c0,0.2,0.3,0.3,0.3,0.1c0.2-1,0.3-2,0.5-3.1C83.5,35,83.1,34.9,83.1,35.1
				L83.1,35.1z"/>
		</g>
	</g>
</g>
<g>
	<g>
		<g>
			<path class="st0" d="M81.4,37.5c0.8-0.2,1.6-0.4,2.5-0.6c0.2,0,0.1-0.3-0.1-0.3c-0.8,0.1-1.6,0.3-2.5,0.6
				C81.2,37.2,81.2,37.5,81.4,37.5L81.4,37.5z"/>
		</g>
	</g>
</g>
<g>
	<g>
		<g>
			<path class="st0" d="M88.7,31.5c-2-0.1-2.7,3.2-3.1,4.6c-0.3,1.2-0.4,2.5-0.3,3.8c0,0.6,0,1.8,0.7,2.1c1.4,0.6,2.6-2.7,2.9-3.6
				c0.5-1.6,1.3-4.6-0.1-5.9c-0.2-0.1-0.4,0.1-0.2,0.2c1.1,1,0.7,3.3,0.4,4.6c-0.2,0.8-0.5,1.6-0.9,2.4c-0.1,0.3-0.3,0.5-0.4,0.8
				c-0.5,0.7-0.4,1.2-1.3,0.5c-0.6-0.5-0.6-0.5-0.6-1.1c0-0.4,0-0.7,0-1.1c0-0.8,0.1-1.6,0.3-2.4c0.3-1.2,1-4.7,2.8-4.6
				C89,31.9,89,31.6,88.7,31.5L88.7,31.5z"/>
		</g>
	</g>
</g>
<g>
	<g>
		<g>
			<path class="st0" d="M89.7,41.4C89.7,41.4,89.7,41.4,89.7,41.4c-0.1-0.1-0.1-0.1-0.2-0.1c0.1,0.1-0.1,1.1-0.1,1.2
				c-0.1,0.3-0.2,0.7-0.3,1c-0.1,0.2,0.2,0.4,0.3,0.2c0.3-0.6,0.5-1.3,0.5-2c0-0.2-0.3-0.6-0.5-0.3c-0.2,0.2,0.1,0.5,0.3,0.3
				c0.3-0.1,0.3-0.5,0-0.6c-0.1,0-0.1,0-0.2,0c-0.2,0.2-0.2,0.5,0.1,0.6C89.7,41.8,89.9,41.5,89.7,41.4L89.7,41.4z"/>
		</g>
	</g>
</g>
<g>
	<g>
		<g>
			<path class="st0" d="M94,34.6c0-0.3,0.3-1,0.3-0.3c0,0.5-0.2,1-0.3,1.5c-0.2,0.7-0.4,1.3-0.6,2c-0.3,0.8-0.6,1.5-0.9,2.3
				c-0.3,0.6-0.3,0.7,0.2,1.2c1,0.8,2.5,0.3,2.3-1.1c0-0.2-0.4-0.2-0.3,0c-1,0.9-1.7,1-2.2,0.3c-0.1-0.1-0.2-0.1-0.3-0.2
				c-0.1-0.1-0.2-0.1-0.3-0.1c-0.2,0-0.5,0.1-0.6,0.2c-0.4,0.5,0.3,1,0.7,0.8c0.8-0.2,1.2-1.8,1.5-2.5c0.6-1.6,1.3-3.5,1.2-5.2
				c0-0.1-0.1-0.2-0.2-0.1c-0.5,0.3-0.7,0.7-0.7,1.2C93.7,34.8,94,34.8,94,34.6L94,34.6z"/>
		</g>
	</g>
</g>
<g>
	<g>
		<g>
			<path class="st0" d="M31.6,53.6c0.1-0.1,0.1-0.1,0.2-0.2c0.3-0.3-0.2-0.8-0.5-0.5c-0.1,0.1-0.1,0.1-0.2,0.2
				C30.8,53.4,31.3,53.9,31.6,53.6L31.6,53.6z"/>
		</g>
	</g>
</g>
<g>
	<g>
		<g>
			<path class="st0" d="M60.5,121.3c-1.8-1.1-2.8-2.9-4.4-4.3c-0.6-0.5-1.5-0.8-0.6-2.2c0.3-0.5,1.1-1,1.5-1.3
				c1.2-0.8,2.6-1.2,4-0.8c2.1,0.7,3.7,3,4.2,5.1c0.3,1.1,0.2,2.5-0.7,3.4C63.4,122.3,61.7,121.9,60.5,121.3
				c-0.2-0.1-0.4,0.2-0.2,0.3c2.1,1.1,5,0.8,5.3-2c0.4-2.7-1.6-5.9-4.1-7c-1.3-0.6-2.7-0.5-3.9,0.2c-1,0.5-2.9,1.6-3,2.9
				c-0.1,1.1,1.4,1.7,2,2.4c1.2,1.3,2.2,2.6,3.7,3.5C60.5,121.7,60.7,121.4,60.5,121.3z"/>
		</g>
	</g>
</g>
<g>
	<g>
		<g>
			<path class="st0" d="M61.6,117.1c1.2,1.2,2.1,2.8,2.2,4.6c0,0.2,0.3,0.2,0.3,0c-0.1-1.9-1-3.5-2.3-4.8
				C61.6,116.7,61.4,116.9,61.6,117.1L61.6,117.1z"/>
		</g>
	</g>
</g>
<g>
	<g>
		<g>
			<path class="st0" d="M41.8,123.3c-1.5-1.6-2-3.9-3.2-5.7c-0.1-0.2-0.3-0.3-0.4-0.5c0.1-0.8,0.4-1.4,1-1.6
				c0.5-0.3,1.3-0.6,1.9-0.7c1.6-0.4,3.1-0.1,4.2,1c1.4,1.4,2.1,3.6,1.9,5.6c-0.1,1.1-0.4,2.2-1.4,2.8
				C44.6,125.2,42.8,124.3,41.8,123.3c-0.2-0.1-0.4,0.1-0.2,0.2c1.8,1.7,4.7,2.1,5.8-0.5c0.9-2.3,0.1-5.5-1.6-7.3
				c-1-1.1-2.4-1.6-3.8-1.4c-1.1,0.1-3.2,0.6-3.9,1.6c-0.8,1.1,0.4,1.9,0.9,2.9c0.8,1.6,1.4,3.3,2.7,4.7
				C41.7,123.7,41.9,123.4,41.8,123.3z"/>
		</g>
	</g>
</g>
<g>
	<g>
		<g>
			<path class="st0" d="M44.1,119.5c0.8,1.5,1.2,3.3,0.8,5c-0.1,0.2,0.3,0.3,0.3,0.1c0.5-1.8,0-3.7-0.8-5.3
				C44.2,119.2,43.9,119.4,44.1,119.5L44.1,119.5z"/>
		</g>
	</g>
</g>
<g>
	<g>
		<g>
			<path class="st0" d="M35.5,62c-1,5-2.7,9.9-4.1,14.8c-1.3,4.4-2.1,8.8-2.2,13.3c-0.2,8.8,2.1,17.7,6.8,25.2
				c0.1,0.2,0.4,0,0.3-0.2c-4.7-7.6-7-16.5-6.7-25.5c0.1-4.6,1.1-9.1,2.4-13.5c1.4-4.6,3-9.3,3.9-14C35.9,61.9,35.6,61.8,35.5,62
				L35.5,62z"/>
		</g>
	</g>
</g>
<g>
	<g>
		<g>
			<path class="st0" d="M63.5,67c-0.7,7.9,0.1,15.8,1.1,23.6c0.5,3.9,1.1,7.8,1.5,11.7c0.4,3.8,0.5,8.3-2.9,10.7
				c-0.2,0.1,0,0.4,0.2,0.3c2.5-1.8,3.3-4.9,3.3-7.9c-0.1-4.2-0.9-8.5-1.5-12.7C64,84.1,63.1,75.6,63.8,67
				C63.9,66.8,63.5,66.8,63.5,67L63.5,67z"/>
		</g>
	</g>
</g>
<g>
	<g>
		<g>
			<path class="st0" d="M20.3,101c-0.6-0.5-1.2-1.1-1.7-1.8c-0.1-0.1-0.2-0.2-0.2-0.4c-0.1-0.4,0-0.6,0.5-0.7c0.4,0,0.9,0.4,1.2,0.7
				c0.1,0.2,0.4-0.1,0.2-0.2c-0.4-0.5-2-1.5-2.3-0.3c-0.1,0.4,0.2,0.8,0.4,1.1c0.5,0.6,1.1,1.2,1.6,1.7
				C20.3,101.4,20.5,101.1,20.3,101L20.3,101z"/>
		</g>
	</g>
</g>
<g>
	<g>
		<path class="st0" d="M24,82.7c1.5,0.2,3.6,1.7,4.6-0.2c1-1.8-1.5-3.4-2.8-4.1c-1.3-0.7-3.8-2.3-4.9-0.5c-1.1,1.8,2.9,2.7,3.7,2.9
			c0.2,0.1,0.3-0.2,0.1-0.2c-0.9-0.3-5.1-1.4-3.2-3.1c1.1-1,3.3,0.6,4.4,1.2c1.3,0.7,3.5,2.3,2.3,4c-0.8,1.1-3-0.2-4.1-0.3
			C23.9,82.5,23.8,82.7,24,82.7L24,82.7z"/>
	</g>
</g>
<g>
	<g>
		<path class="st0" d="M20.7,79c-0.6,2.3,1.4,3.3,3.4,3.7c0.2,0,0.2-0.2,0.1-0.2c-1.8-0.4-3.8-1.2-3.2-3.4
			C21,78.9,20.7,78.9,20.7,79L20.7,79z"/>
	</g>
</g>
<g>
	<path class="st0" d="M22.4,106.7c-0.7,0-1.3-0.7-1.3-1.6c0-0.9,0.6-1.6,1.3-1.6c0.7,0,1.3,0.7,1.3,1.6
		C23.7,106,23.1,106.7,22.4,106.7z M22.4,103.6c-0.6,0-1.1,0.6-1.1,1.4c0,0.8,0.5,1.4,1.1,1.4c0.6,0,1.1-0.6,1.1-1.4
		C23.5,104.3,23,103.6,22.4,103.6z"/>
</g>
<g>
	<path class="st0" d="M26.2,110.5c-0.7,0-1.3-0.7-1.3-1.6c0-0.9,0.6-1.6,1.3-1.6s1.3,0.7,1.3,1.6C27.5,109.8,26.9,110.5,26.2,110.5z
		 M26.2,107.5c-0.6,0-1.1,0.6-1.1,1.4s0.5,1.4,1.1,1.4s1.1-0.6,1.1-1.4S26.8,107.5,26.2,107.5z"/>
</g>
<g>
	<path class="st0" d="M31.5,112.8c-0.7,0-1.3-0.7-1.3-1.6s0.6-1.6,1.3-1.6s1.3,0.7,1.3,1.6S32.3,112.8,31.5,112.8z M31.5,109.7
		c-0.6,0-1.1,0.6-1.1,1.4s0.5,1.4,1.1,1.4c0.6,0,1.1-0.6,1.1-1.4S32.1,109.7,31.5,109.7z"/>
</g>
<g>
	<g>
		<g>
			<path class="st0" d="M20.4,101.6c0.1,0.8,0.4,1.6,0.9,2.3c0.1,0.2,0.4-0.1,0.2-0.2c-0.5-0.6-0.7-1.3-0.8-2
				C20.7,101.4,20.4,101.4,20.4,101.6L20.4,101.6z"/>
		</g>
	</g>
</g>
<g>
	<g>
		<g>
			<path class="st0" d="M22.8,106.2c0.1,1,0.9,1.9,1.9,2.1c0.2,0.1,0.3-0.3,0.1-0.3c-0.9-0.2-1.6-0.9-1.7-1.8
				C23.1,106,22.8,106,22.8,106.2L22.8,106.2z"/>
		</g>
	</g>
</g>
<g>
	<g>
		<g>
			<path class="st0" d="M27,109.8c1.1,0.6,2.3,1.2,3.4,1.7c0.2,0.1,0.3-0.2,0.2-0.3c-1.1-0.6-2.3-1.2-3.4-1.7
				C27,109.4,26.8,109.7,27,109.8L27,109.8z"/>
		</g>
	</g>
</g>
<g>
	<g>
		<g>
			<path class="st0" d="M32.1,111.9c0.6,0.3,1.3,0.5,2,0.6c0.2,0,0.2-0.3,0-0.3c-0.7,0-1.3-0.2-1.9-0.5
				C32.1,111.5,31.9,111.8,32.1,111.9L32.1,111.9z"/>
		</g>
	</g>
</g>
<g>
	<g>
		<g>
			<path class="st0" d="M66.5,108.5c1.4-0.6,2.6-1.5,3.6-2.7c0.1-0.2-0.1-0.4-0.2-0.2c-1,1.1-2.1,2-3.5,2.7
				C66.1,108.3,66.3,108.6,66.5,108.5L66.5,108.5z"/>
		</g>
	</g>
</g>
<g>
	<g>
		<g>
			<path class="st0" d="M26.9,109.5c-0.6,0.1-1.2-0.2-1.2-0.8c-0.1-0.6,0.4-1.1,1-1.2c0.2,0,0.2-0.3,0-0.3c-0.7,0.1-1.4,0.7-1.3,1.5
				c0.1,0.8,0.9,1.2,1.7,1.1C27.1,109.8,27.1,109.5,26.9,109.5L26.9,109.5z"/>
		</g>
	</g>
</g>
<g>
	<g>
		<g>
			<path class="st0" d="M22.7,106.2c-0.9-0.6-1.1-1.8-0.7-2.7c0.1-0.2-0.2-0.4-0.3-0.2c-0.6,1.1-0.2,2.5,0.8,3.2
				C22.7,106.6,22.8,106.3,22.7,106.2L22.7,106.2z"/>
		</g>
	</g>
</g>
<g>
	<g>
		<g>
			<path class="st0" d="M32.2,111.8c-1,0.2-1.7-0.7-1.2-1.6c0.1-0.2-0.2-0.3-0.3-0.2c-0.6,1.1,0.4,2.4,1.6,2.1
				C32.5,112.1,32.4,111.8,32.2,111.8L32.2,111.8z"/>
		</g>
	</g>
</g>
<g>
	<g>
		<g>
			<path class="st0" d="M21.7,103.6c1.1-3.2,1.2-6.6,0.5-10c-0.1-0.2-0.4-0.1-0.3,0.1c0.7,3.3,0.6,6.6-0.5,9.8
				C21.3,103.7,21.6,103.8,21.7,103.6L21.7,103.6z"/>
		</g>
	</g>
</g>
<g>
	<g>
		<g>
			<path class="st0" d="M26.4,107.5c2.2-5.2,0.2-10.8,0.2-16.1c0-1.5,0.1-2.9,0.5-4.4c0.4-1.4,1.2-2.7,1.6-4.1
				c0.5-2.2-0.3-4.4-2-5.8c-0.2-0.1-0.4,0.1-0.2,0.2c1.1,1,1.9,2.3,2,3.8c0.1,1.6-0.6,2.9-1.2,4.4c-0.9,2.1-1.1,4.4-1,6.7
				c0.2,5.1,1.9,10.3-0.2,15.2C26,107.6,26.3,107.6,26.4,107.5L26.4,107.5z"/>
		</g>
	</g>
</g>
<g>
	<g>
		<g>
			<path class="st0" d="M29.4,89.8c0.3,3.6,2.3,6.7,5.1,8.8c3.4,2.5,7.6,3.3,11.8,3.4c4,0.1,8.5-0.2,12-2.2
				c3.7-2.1,5.6-6.5,6.4-10.6c0-0.2-0.3-0.3-0.3-0.1c-0.7,4-2.5,8.3-6.2,10.4c-3.3,1.9-7.6,2.2-11.3,2.2c-4,0-8.1-0.7-11.4-2.9
				c-3.1-2-5.3-5.3-5.6-9C29.7,89.6,29.4,89.6,29.4,89.8L29.4,89.8z"/>
		</g>
	</g>
</g>
<g>
	<g>
		<g>
			<path class="st0" d="M34.9,58.4c0.2-0.6,0.7-1,1.3-1.2c0.2-0.1,0.1-0.4-0.1-0.3c-0.7,0.2-1.3,0.7-1.5,1.4
				C34.5,58.5,34.8,58.6,34.9,58.4L34.9,58.4z"/>
		</g>
	</g>
</g>
<g>
	<g>
		<g>
			<path class="st0" d="M35.3,53.5c0.4-0.5,1-0.6,1.6-0.5c0.2,0.1,0.3-0.2,0.1-0.3c-0.7-0.2-1.5,0-1.9,0.5
				C35,53.4,35.2,53.6,35.3,53.5L35.3,53.5z"/>
		</g>
	</g>
</g>
<g>
	<g>
		<g>
			<path class="st0" d="M38.4,49.8c0.3-0.2,0.7,0,0.8,0.4c0,0.2,0.4,0.1,0.3-0.1c-0.1-0.6-0.8-0.9-1.3-0.6
				C38,49.7,38.2,49.9,38.4,49.8L38.4,49.8z"/>
		</g>
	</g>
</g>
<g>
	<g>
		<g>
			<path class="st0" d="M43.1,67.5c0.6-0.3,0.9-0.9,1-1.6c0-0.2-0.3-0.2-0.3,0c0,0.5-0.3,1-0.8,1.3C42.8,67.3,42.9,67.6,43.1,67.5
				L43.1,67.5z"/>
		</g>
	</g>
</g>
<g>
	<g>
		<g>
			<path class="st0" d="M48.1,67.1c0-0.5,0-1,0-1.4c0-0.2-0.3-0.2-0.3,0c0,0.5,0,1,0,1.4C47.8,67.4,48.1,67.4,48.1,67.1L48.1,67.1z"
				/>
		</g>
	</g>
</g>
<g>
	<g>
		<g>
			<path class="st0" d="M56.1,68.6c0.5-0.4,0.9-1,1-1.6c0-0.2-0.3-0.3-0.3-0.1c-0.1,0.6-0.4,1.1-0.9,1.4
				C55.7,68.5,55.9,68.8,56.1,68.6L56.1,68.6z"/>
		</g>
	</g>
</g>
<g>
	<g>
		<g>
			<path class="st0" d="M61.4,67.9c0.1-0.5,0.2-0.9,0.2-1.4c0-0.2-0.3-0.3-0.3-0.1c-0.1,0.5-0.2,0.9-0.2,1.4
				C61,68,61.4,68.1,61.4,67.9L61.4,67.9z"/>
		</g>
	</g>
</g>
<g>
	<g>
		<g>
			<path class="st0" d="M64.7,65.8c0.3-0.5,0.4-1.1,0-1.6c-0.1-0.2-0.4,0-0.3,0.2c0.3,0.4,0.2,0.9,0,1.2
				C64.3,65.8,64.6,66,64.7,65.8L64.7,65.8z"/>
		</g>
	</g>
</g>
<g>
	<g>
		<g>
			<path class="st0" d="M33.8,65.4c0.6,0.1,1.2,0.2,1.8,0.3c0.2,0,0.3-0.3,0.1-0.3c-0.6-0.1-1.2-0.2-1.8-0.3
				C33.6,65.1,33.6,65.4,33.8,65.4L33.8,65.4z"/>
		</g>
	</g>
</g>
<g>
	<g>
		<g>
			<path class="st0" d="M34.3,66.9c0.2-0.1,0.3-0.2,0.6-0.1c0.2,0.1,0.3-0.3,0.1-0.3c-0.3-0.1-0.6,0-0.9,0.2
				C33.9,66.8,34.1,67.1,34.3,66.9L34.3,66.9z"/>
		</g>
	</g>
</g>
<g>
	<g>
		<g>
			<path class="st0" d="M39.4,100.2c0,0.6-0.2,1.3-0.4,1.9c-0.1,0.2,0.2,0.4,0.3,0.2c0.3-0.6,0.5-1.3,0.5-2
				C39.7,100,39.4,100,39.4,100.2L39.4,100.2z"/>
		</g>
	</g>
</g>
<g>
	<g>
		<g>
			<path class="st0" d="M40.6,100.7c-0.2,0.3-0.1,0.7,0.1,0.9c0.1,0.2,0.4-0.1,0.2-0.2c-0.1-0.2-0.1-0.4-0.1-0.5
				C41,100.7,40.7,100.5,40.6,100.7L40.6,100.7z"/>
		</g>
	</g>
</g>
<g>
	<g>
		<g>
			<path class="st0" d="M65.1,104.8c0.7-0.1,1.3-0.2,1.8-0.6c0.2-0.1,0-0.4-0.2-0.3c-0.5,0.3-1.1,0.5-1.7,0.6
				C64.9,104.5,64.9,104.9,65.1,104.8L65.1,104.8z"/>
		</g>
	</g>
</g>
<g>
	<g>
		<g>
			<path class="st0" d="M65.7,106c0.4-0.2,0.8-0.5,1.2-0.7c0.2-0.1,0-0.4-0.2-0.3c-0.4,0.2-0.8,0.5-1.2,0.7
				C65.4,105.8,65.6,106.1,65.7,106L65.7,106z"/>
		</g>
	</g>
</g>
<g>
	<path class="st0" d="M46.6,64.6c-4.3,0-8.1-3-8.8-7.2c-0.4-2.3,0.2-4.6,1.6-6.5c1.4-1.9,3.5-3.2,5.9-3.5c4.9-0.8,9.5,2.4,10.3,7.1
		c0.8,4.7-2.6,9.2-7.5,10C47.6,64.5,47.1,64.6,46.6,64.6z M45.3,47.5l0,0.2c-2.3,0.4-4.3,1.6-5.6,3.4c-1.4,1.8-1.9,4-1.5,6.2
		c0.7,4.5,5.2,7.6,9.9,6.8c4.7-0.8,7.9-5.1,7.2-9.6c-0.7-4.5-5.2-7.6-9.9-6.8L45.3,47.5z"/>
</g>
<g>
	<g>
		<g>
			<path class="st0" d="M37.7,116.1c-2.4,1.1-2.8,4.2-0.8,5.9c0.6,0.5,1.4,0.9,2.1,1.3c0.7,0.5,1.3,1,2.1,1.4
				c1.1,0.6,2.2,0.8,3.3,0.1c0.2-0.1,0-0.4-0.2-0.3c-2.1,1.2-4.2-1.1-5.9-2.1c-1.1-0.6-2.1-1.3-2.4-2.6c-0.3-1.5,0.6-2.9,1.9-3.5
				C38,116.3,37.9,116,37.7,116.1L37.7,116.1z"/>
		</g>
	</g>
</g>
<g>
	<g>
		<g>
			<path class="st0" d="M54.6,115.9c-1.2,1.7-2.1,4.2,0.3,5.1c1.5,0.6,3.2,1.1,4.8,1.5c1.1,0.2,2.2,0.2,3.2-0.4
				c0.2-0.1,0-0.4-0.2-0.3c-1.8,1.2-4.1,0.1-5.9-0.5c-0.5-0.2-0.9-0.3-1.4-0.5c-0.7-0.2-1.1-0.3-1.4-1.1c-0.6-1.2,0.2-2.6,0.9-3.7
				C55,115.9,54.7,115.7,54.6,115.9L54.6,115.9z"/>
		</g>
	</g>
</g>
<g>
	<g>
		<g>
			<path class="st0" d="M35.8,115.8c0.1,0.5,0.3,1.1,0.4,1.6c0.1,0.2,0.4,0.1,0.3-0.1c-0.1-0.5-0.3-1.1-0.4-1.6
				C36.1,115.5,35.8,115.6,35.8,115.8L35.8,115.8z"/>
		</g>
	</g>
</g>
<g>
	<g>
		<g>
			<path class="st0" d="M52.4,116.7c0.4,0.4,0.8,0.7,1.2,1.1c0.2,0.1,0.4-0.1,0.2-0.2c-0.4-0.4-0.8-0.7-1.2-1.1
				C52.5,116.3,52.3,116.5,52.4,116.7L52.4,116.7z"/>
		</g>
	</g>
</g>
<g>
	<g>
		<g>
			<path class="st0" d="M36.2,115.6c0.7-2.1,4.4-1.5,6-1.1c0.2,0.1,0.3-0.3,0.1-0.3c-1.8-0.4-5.7-1-6.4,1.4
				C35.9,115.8,36.2,115.8,36.2,115.6L36.2,115.6z"/>
		</g>
	</g>
</g>
<g>
	<g>
		<g>
			<path class="st0" d="M52,116.5c1-2.6,3.8-3.3,6.3-3.8c0.2-0.1,0.1-0.4-0.1-0.3c-2.6,0.6-5.4,1.3-6.5,4
				C51.6,116.6,51.9,116.8,52,116.5L52,116.5z"/>
		</g>
	</g>
</g>
<g>
	<g>
		<g>
			<path class="st0" d="M21,77.9c0-1.6,1.8-1.8,2.9-1.2c0.8,0.5,1.4,1.4,1.9,2.2c0.1,0.2,0.4,0,0.3-0.2c-0.8-1.2-1.7-2.6-3.3-2.7
				c-1.1-0.1-2.2,0.7-2.2,1.9C20.7,78.2,21,78.2,21,77.9L21,77.9z"/>
		</g>
	</g>
</g>
<g>
	<g>
		<g>
			<path class="st0" d="M66.2,86c0.5-1.8,2.2-5.1,4.5-4.4c0.2,0.1,0.3-0.3,0.1-0.3c-2.5-0.8-4.5,2.6-5,4.6
				C65.8,86.1,66.2,86.1,66.2,86L66.2,86z"/>
		</g>
	</g>
</g>
<g>
	<g>
		<g>
			<path class="st0" d="M85.3,18.8c-19.5,0-35.9,12.2-40.2,28.5c0.2-0.1,0.4-0.1,0.6-0.1c4.3-16,20.4-27.9,39.6-27.9
				c22.5,0,40.7,16.3,40.7,36.4s-18.3,36.4-40.7,36.4c-5.3,0-10.3-0.9-14.9-2.5c-0.1,0.1-0.2,0.3-0.4,0.4c4.8,1.7,9.9,2.7,15.3,2.7
				c22.7,0,41.3-16.6,41.3-36.9C126.6,35.4,108.1,18.8,85.3,18.8z"/>
		</g>
		<g>
			<path class="st0" d="M66.2,88.4c0.3,0.2,0.7,0.3,1,0.5c0-0.2,0.1-0.3,0.2-0.5c-0.5-0.2-0.9-0.4-1.4-0.6
				C66.1,88,66.1,88.2,66.2,88.4z"/>
		</g>
	</g>
	<g>
		<g>
			<path class="st0" d="M85.5,19.1c-18.6,0-34.4,11.9-39.5,28.1c0.1,0,0.2,0,0.2,0c0.1,0,0.2,0,0.3,0.1c5.1-16,20.6-27.7,39-27.7
				c22.5,0,40.7,17.5,40.7,38.9S108,97.4,85.5,97.4c-6.5,0-12.6-1.5-18-4c0.1,0.2,0.2,0.4,0.2,0.7c5.4,2.5,11.4,3.9,17.8,3.9
				c22.7,0,41.3-17.7,41.3-39.4C126.8,36.7,108.3,19.1,85.5,19.1z"/>
		</g>
	</g>
	<g>
		<g>
			<path class="st0" d="M85.3,19.1c-18.4,0-34.1,11.8-39.4,28.1c0.1,0,0.2,0,0.3,0c0.1,0,0.2,0,0.2,0.1c5.2-16,20.6-27.7,38.8-27.7
				c22.5,0,40.7,17.8,40.7,39.6s-18.3,39.6-40.7,39.6c-6.1,0-11.9-1.3-17.2-3.7c0.1,0.2,0.2,0.4,0.3,0.7c5.2,2.3,10.9,3.5,16.9,3.5
				c22.7,0,41.3-18,41.3-40.1S108.1,19.1,85.3,19.1z"/>
		</g>
	</g>
</g>
<g>
	<g>
		<g>
			<path class="st0" d="M80.4,93.3c-0.8-0.3-3.3-0.9-3.8,0.3c-0.4,1,1.4,1.2,2,1.4c0.9,0.2,1.9,0.5,2.8,0.5c0.3,0,0.6,0,0.8-0.2
				c0.6-1-1.6-1.7-2.1-1.8c-0.2,0-0.3,0.3-0.1,0.3c0.5,0.1,0.8,0.2,1.2,0.4c0.2,0.1,0.3,0.2,0.5,0.4c-0.1,0.2-0.2,0.4-0.3,0.6
				c-0.4,0.2-2.1-0.3-2.6-0.4c-0.5-0.1-2.5-0.4-1.2-1.3c0.6-0.4,2.1,0,2.7,0.3C80.5,93.7,80.6,93.4,80.4,93.3L80.4,93.3z"/>
		</g>
	</g>
</g>
<g>
	<g>
		<g>
			<path class="st0" d="M76.5,94.4c-1.5,1.2,2.1,1.8,2.5,1.8c0.9,0.2,3.5,0.7,3-1.2c-0.1-0.2-0.4-0.1-0.3,0.1
				c-0.3,0.3-0.7,0.7-1.1,1c-0.3,0-0.6-0.1-0.9-0.1c-0.3-0.1-0.7-0.1-1-0.2c-0.2,0-2.8-0.5-1.9-1.2C76.9,94.5,76.7,94.3,76.5,94.4
				L76.5,94.4z"/>
		</g>
	</g>
</g>
<g>
	<g>
		<g>
			<path class="st0" d="M85.7,94.4c-0.5-0.3-1.1-0.6-1.6-0.3c-0.3,0.2-0.6,0.6-0.5,1c0.2,0.5,0.7,0.5,1.1,0.5c1.1,0.1,2.3,0,3.5-0.1
				c0.2,0,0.2-0.3,0.1-0.3c-0.9-0.3-1.9-0.6-2.8-0.8c-0.2,0-0.3,0.3-0.1,0.3c1,0.2,1.9,0.4,2.8,0.8c0-0.1,0-0.2,0.1-0.3
				c-0.8,0.1-1.5,0.1-2.3,0.1c-0.3,0-0.7,0-1,0c-0.6,0.1-0.6-0.2,0-0.9c0.3,0.1,0.5,0.2,0.7,0.3C85.7,94.8,85.9,94.5,85.7,94.4
				L85.7,94.4z"/>
		</g>
	</g>
</g>
<g>
	<g>
		<g>
			<path class="st0" d="M84.1,95.6c-0.7,1.1,3,0.8,3.4,0.7c1.2-0.2,0.2-1.2-0.1-0.7c-0.1,0.2,0.2,0.3,0.3,0.2
				c-0.3,0.4-1.3,0.3-1.7,0.3c-0.2,0-1.8,0-1.6-0.3C84.5,95.5,84.2,95.4,84.1,95.6L84.1,95.6z"/>
		</g>
	</g>
</g>
<g>
	<g>
		<g>
			<path class="st0" d="M91.2,94.2c-0.6-0.2-1.6-0.2-2,0.4c-0.3,0.5-0.1,1,0.4,1.2c0.8,0.4,2.1-0.1,2.8-0.3c1.7-0.4,3.3-0.9,4.9-1.6
				c0.1-0.1,0.2-0.2,0.1-0.3c-2.1-1.9-4.8-0.5-6.9,0.8c-0.2,0.1,0,0.4,0.2,0.3c1-0.6,2-1.3,3.2-1.6c0.6-0.1,1.2-0.2,1.8-0.1
				c0.3,0.1,0.7,0.2,1,0.3c0.2,0.2,0.2,0.4-0.1,0.4c-0.3,0.3-1.2,0.5-1.6,0.6c-0.5,0.2-1,0.3-1.4,0.4c-0.5,0.1-1,0.2-1.4,0.3
				c-0.3,0.1-0.6,0.1-1,0.2c-0.8,0.3-0.8,0,0.1-0.9C91.3,94.5,91.4,94.2,91.2,94.2L91.2,94.2z"/>
		</g>
	</g>
</g>
<g>
	<g>
		<g>
			<path class="st0" d="M91.9,95.3c1.8-0.4,3.4-1.1,4.8-2.2c0.2-0.1-0.1-0.4-0.2-0.2c-1.4,1.1-2.9,1.8-4.6,2.1
				C91.6,95,91.7,95.3,91.9,95.3L91.9,95.3z"/>
		</g>
	</g>
</g>
<g>
	<g>
		<g>
			<path class="st0" d="M46.4,116.4c-1.4-1.9-2.4-4.1-2.9-6.5c-0.2-1.2-0.3-2.4-0.3-3.7c0-0.3,0.4-4.4,1.1-4.1
				c0.2,0.1,0.3-0.2,0.1-0.3c-1.6-0.6-1.5,5.5-1.5,6.3c0.2,3.1,1.3,6,3.2,8.5C46.3,116.7,46.6,116.5,46.4,116.4L46.4,116.4z"/>
		</g>
	</g>
</g>
<g>
	<g>
		<g>
			<path class="st0" d="M52,116.4c0.5-2.7,2.1-5.1,2.3-7.9c0.2-2.5-0.5-4.9-1.9-7c-0.1-0.2-0.4,0-0.3,0.2c1.5,2.2,2.2,4.9,1.7,7.6
				c-0.4,2.4-1.8,4.5-2.2,7C51.6,116.5,51.9,116.6,52,116.4L52,116.4z"/>
		</g>
	</g>
</g>
<g>
	<g>
		<g>
			<path class="st0" d="M22.6,106.7c-0.3,1.4-0.1,2.7,0.6,4c0.1,0.2,0.4,0,0.3-0.2c-0.6-1.2-0.8-2.4-0.6-3.7
				C23,106.6,22.7,106.5,22.6,106.7L22.6,106.7z"/>
		</g>
	</g>
</g>
<g>
	<g>
		<g>
			<path class="st0" d="M24.6,108.1c-0.4,1.6,0.1,3.3,1.4,4.3c0.2,0.1,0.4-0.1,0.2-0.2c-1.2-1-1.7-2.5-1.3-4
				C25,108,24.7,107.9,24.6,108.1L24.6,108.1z"/>
		</g>
	</g>
</g>
<g>
	<g>
		<g>
			<path class="st0" d="M26.3,112.6c0.3-0.9,0.6-1.9,0.9-2.8c0.1-0.2-0.3-0.3-0.3-0.1c-0.3,0.9-0.6,1.9-0.9,2.8
				C26,112.8,26.3,112.9,26.3,112.6L26.3,112.6z"/>
		</g>
	</g>
</g>
<g>
	<g>
		<g>
			<path class="st0" d="M30.2,111.3c-0.1,0.8-0.1,1.7,0.2,2.5c0.1,0.4,0.4,0.8,0.8,0.8c1.4,0.1,1.6-1.6,1.5-2.6c0-0.2-0.3-0.2-0.3,0
				c0.1,0.7,0,2.6-1.2,2.2c-0.5-0.2-0.6-1-0.6-1.5c-0.1-0.5-0.1-1,0-1.5C30.5,111.1,30.2,111.1,30.2,111.3L30.2,111.3z"/>
		</g>
	</g>
</g>
<g>
	<g>
		<g>
			<path class="st0" d="M68.1,108c0-0.2,0.1-0.4,0.1-0.7c0-0.2-0.3-0.3-0.3-0.1c-0.1,0.5-0.3,0.9-0.4,1.4c-0.1,0.3-0.3,0.7-0.3,1
				c0,0.3,0.5,0.5,0.6,0.2c0.1-0.2-0.2-0.3-0.3-0.2c0-0.1,0-0.3,0.1-0.4c0-0.1,0-0.1,0.1-0.2c0.1-0.2,0.1-0.4,0.2-0.6
				c0.1-0.4,0.2-0.7,0.3-1.1c-0.1,0-0.2-0.1-0.3-0.1c0,0.2-0.1,0.4-0.1,0.7C67.7,108.2,68,108.3,68.1,108L68.1,108z"/>
		</g>
	</g>
</g>
<g>
	<g>
		<g>
			<path class="st0" d="M74.1,91.2c-1.2,1-2.3,2.2-3.3,3.5c-0.1,0.2,0.1,0.4,0.2,0.2c1-1.2,2.1-2.4,3.3-3.5
				C74.5,91.3,74.3,91.1,74.1,91.2L74.1,91.2z"/>
		</g>
	</g>
</g>
<g>
	<g>
		<g>
			<path class="st0" d="M100.5,89.7c1.5,1,3,2.2,4.3,3.5c0.2,0.2,0.4-0.1,0.2-0.2c-1.3-1.3-2.8-2.5-4.4-3.5
				C100.5,89.3,100.3,89.5,100.5,89.7L100.5,89.7z"/>
		</g>
	</g>
</g>
<g>
	<g>
		<g>
			<path class="st0" d="M109.1,85.5c1.3,0.6,2.6,1.4,3.8,2.2c0.2,0.1,0.3-0.2,0.2-0.3c-1.2-0.8-2.5-1.5-3.8-2.2
				C109.1,85.1,108.9,85.4,109.1,85.5L109.1,85.5z"/>
		</g>
	</g>
</g>
<g>
	<g>
		<g>
			<path class="st0" d="M115.7,81c0.2-0.3,0-0.6-0.3-0.6c-0.2,0-0.2,0.2-0.1,0.3c0.8,0.5,1.6,0.9,2.5,1.3c0.2,0.1,0.3-0.2,0.2-0.3
				c-0.8-0.5-1.6-0.9-2.5-1.3c0,0.1-0.1,0.2-0.1,0.3c0,0,0,0,0,0.1C115.3,81.1,115.6,81.2,115.7,81L115.7,81z"/>
		</g>
	</g>
</g>
<g>
	<g>
		<g>
			<path class="st0" d="M119.3,76.5c0.5,0.3,1,0.6,1.6,0.9c0.2,0.1,0.3-0.2,0.2-0.3c-0.5-0.3-1-0.6-1.6-0.9
				C119.3,76.1,119.2,76.4,119.3,76.5L119.3,76.5z"/>
		</g>
	</g>
</g>
<g>
	<g>
		<g>
			<path class="st0" d="M121.1,73.7L121.1,73.7c0,0,0.1-0.1,0.1-0.1c-0.1,0.1,0.4,0.2,0.5,0.2c0.1,0,0.2,0.1,0.4,0.1
				c0.2,0.1,0.5,0.1,0.7,0.2c0.2,0.1,0.3-0.3,0.1-0.3c-0.3-0.1-0.7-0.1-1.1-0.2c-0.2-0.1-0.5-0.2-0.7,0c-0.3,0.2,0,0.6,0.3,0.4
				c0.1,0,0.1-0.1,0.1-0.1v0C121.4,73.5,121.1,73.5,121.1,73.7L121.1,73.7z"/>
		</g>
	</g>
</g>
<g>
	<g>
		<g>
			<path class="st0" d="M122.9,70.6c-0.1,0.1,0.3,0.1,0.3,0.1c0.1,0,0.2,0,0.3,0.1c0.2,0.1,0.4,0.2,0.5,0.3c0.2,0.1,0.4-0.1,0.2-0.2
				c-0.2-0.2-0.5-0.3-0.7-0.4c-0.2-0.1-0.5-0.1-0.7,0c-0.4,0.2,0.1,0.7,0.3,0.4C123.3,70.6,123,70.4,122.9,70.6L122.9,70.6z"/>
		</g>
	</g>
</g>
<g>
	<g>
		<g>
			<path class="st0" d="M124.2,68.3c0.3-0.1,0.5-0.1,0.7,0c0.2,0.1,0.3-0.2,0.2-0.3c-0.3-0.2-0.7-0.2-1-0.1
				C123.9,68.1,124,68.4,124.2,68.3L124.2,68.3z"/>
		</g>
	</g>
</g>
<g>
	<g>
		<g>
			<path class="st0" d="M125.2,65.6c0.1,0,0.2,0,0.3,0c0.2,0,0.2-0.3,0-0.3c-0.1,0-0.2,0-0.3,0C125,65.2,125,65.6,125.2,65.6
				L125.2,65.6z"/>
		</g>
	</g>
</g>
<g>
	<g>
		<g>
			<path class="st0" d="M52.3,101.8c7.4-9.3,9.1-22.6,4.1-33.4c-0.1-0.2-0.4,0-0.3,0.2c4.9,10.7,3.3,23.8-4.1,33
				C51.9,101.7,52.1,102,52.3,101.8L52.3,101.8z"/>
		</g>
	</g>
</g>
<g>
	<g>
		<g>
			<path class="st0" d="M44.3,101.5c-4.3-10.7-6.6-23.1-1.2-33.8c0.1-0.2-0.2-0.3-0.3-0.2c-5.5,10.9-3.2,23.3,1.1,34.1
				C44.1,101.8,44.4,101.7,44.3,101.5L44.3,101.5z"/>
		</g>
	</g>
</g>
<g>
	<g>
		<g>
			<path class="st0" d="M40.3,97.7c0.5,0.1,1-0.2,1.1-0.7c0.1-0.5-0.2-0.9-0.6-1c-0.4-0.1-0.9,0.1-1,0.5c-0.2,0.4,0,0.9,0.3,1.1
				c0.2,0.1,0.3-0.2,0.2-0.3c-0.5-0.3-0.2-1.2,0.4-1c0.2,0.1,0.5,0.3,0.5,0.5c0,0.3-0.4,0.6-0.7,0.5C40.2,97.3,40.1,97.6,40.3,97.7
				L40.3,97.7z"/>
		</g>
	</g>
</g>
<g>
	<g>
		<g>
			<path class="st0" d="M38.1,90.5c-0.2-0.3-0.1-0.7,0.2-1c0.3-0.3,0.8-0.1,1,0.2C39.8,90.5,38.7,91.1,38.1,90.5
				c-0.1-0.1-0.4,0.1-0.2,0.3c0.3,0.4,1,0.5,1.4,0.2c0.5-0.3,0.5-0.9,0.2-1.4c-0.3-0.5-0.9-0.6-1.4-0.3c-0.5,0.3-0.6,1-0.3,1.4
				C38,90.8,38.3,90.7,38.1,90.5L38.1,90.5z"/>
		</g>
	</g>
</g>
<g>
	<g>
		<g>
			<path class="st0" d="M37.6,84.6c-0.2-0.2-0.3-0.4-0.3-0.7c0-0.2,0.2-0.5,0.4-0.6c0.3-0.1,0.7,0.3,0.7,0.5
				c0.1,0.3-0.2,0.7-0.6,0.6c-0.2-0.1-0.3,0.2-0.1,0.3c0.4,0.2,0.9-0.2,1-0.6c0.1-0.5-0.3-1-0.8-1.1c-0.2-0.1-0.4-0.1-0.6,0.1
				c-0.2,0.1-0.3,0.3-0.3,0.5c-0.1,0.4-0.1,0.9,0.3,1.2C37.5,85,37.8,84.8,37.6,84.6L37.6,84.6z"/>
		</g>
	</g>
</g>
<g>
	<g>
		<g>
			<path class="st0" d="M37.6,78.7c-0.2-0.2-0.2-0.6-0.1-0.8c0.1-0.1,0.2-0.2,0.3-0.3c0.2-0.1,0.3,0,0.4,0.1
				c0.2,0.2,0.5,0.7,0.1,0.9c-0.2,0.1-0.5,0.1-0.6-0.2c0-0.2-0.3-0.1-0.3,0.1c0.1,0.5,0.6,0.6,1,0.4c0.5-0.2,0.5-0.8,0.2-1.2
				c-0.1-0.2-0.4-0.5-0.7-0.5c-0.2,0-0.5,0.2-0.6,0.3c-0.3,0.4-0.4,0.9-0.1,1.4C37.4,79.1,37.7,78.9,37.6,78.7L37.6,78.7z"/>
		</g>
	</g>
</g>
<g>
	<g>
		<g>
			<path class="st0" d="M38.6,71.7c-0.2-0.3-0.1-0.6,0.2-0.8c0.3-0.3,0.7-0.1,0.9,0.2C40,71.7,39.1,72.3,38.6,71.7
				c-0.1-0.1-0.3,0.2-0.2,0.3c0.3,0.4,0.9,0.4,1.3,0.1c0.4-0.3,0.5-0.9,0.2-1.3c-0.3-0.4-0.9-0.6-1.3-0.3c-0.4,0.3-0.6,0.9-0.3,1.3
				C38.4,72.1,38.7,71.9,38.6,71.7L38.6,71.7z"/>
		</g>
	</g>
</g>
<g>
	<g>
		<g>
			<path class="st0" d="M57.2,97.1c-0.3-0.3,0.1-0.8,0.4-0.5c0.4,0.3-0.1,0.8-0.5,0.6c-0.2-0.1-0.3,0.2-0.2,0.3
				c0.3,0.2,0.7,0.1,1-0.1c0.3-0.3,0.2-0.7-0.1-1c-0.3-0.2-0.7-0.2-0.9,0.1c-0.2,0.3-0.2,0.7,0.1,0.9C57.1,97.4,57.4,97.2,57.2,97.1
				L57.2,97.1z"/>
		</g>
	</g>
</g>
<g>
	<g>
		<g>
			<path class="st0" d="M58.4,92.1c-0.2-0.2,0.3-0.6,0.5-0.4C59.1,91.9,58.7,92.4,58.4,92.1c-0.1-0.1-0.3,0.2-0.1,0.3
				c0.6,0.4,1.3-0.5,0.8-1c-0.2-0.2-0.6-0.1-0.8,0.1c-0.2,0.2-0.3,0.6-0.1,0.8C58.3,92.5,58.6,92.3,58.4,92.1L58.4,92.1z"/>
		</g>
	</g>
</g>
<g>
	<g>
		<g>
			<path class="st0" d="M59.8,84.9c0-0.2,0.1-0.3,0.2-0.4c-0.1,0-0.1,0-0.1,0c0.2,0.1,0.5,0.5,0.3,0.7c-0.1,0.1-0.3,0.1-0.3-0.1
				c0-0.2-0.3-0.3-0.3-0.1c-0.1,0.3,0.2,0.5,0.4,0.5c0.3,0,0.6-0.2,0.6-0.5c0.1-0.3-0.2-0.7-0.5-0.9c-0.2-0.1-0.3,0.1-0.5,0.2
				c-0.1,0.1-0.2,0.3-0.2,0.5C59.5,85.1,59.8,85.1,59.8,84.9L59.8,84.9z"/>
		</g>
	</g>
</g>
<g>
	<g>
		<g>
			<path class="st0" d="M60.1,78.1c-0.1,0-0.2-0.2-0.1-0.3c0.1-0.1,0.2-0.2,0.3-0.1c0.4,0.1,0.3,0.6,0.1,0.8c0.1,0,0.1,0,0.2-0.1
				c-0.2-0.1-0.3-0.1-0.5-0.1c-0.2-0.1-0.3,0.3-0.1,0.3c0.2,0.1,0.3,0.1,0.5,0.1c0.1,0,0.1,0,0.2-0.1c0.2-0.2,0.3-0.6,0.2-0.9
				c-0.1-0.3-0.4-0.5-0.7-0.5c-0.6,0-0.8,0.9-0.2,1.1C60.2,78.5,60.3,78.1,60.1,78.1L60.1,78.1z"/>
		</g>
	</g>
</g>
<g>
	<g>
		<g>
			<path class="st0" d="M58.7,72.2c-0.1-0.2-0.1-0.4,0-0.6c0.2-0.2,0.4-0.1,0.6,0c0.2,0.2,0.2,0.4,0,0.6
				C59.1,72.3,58.9,72.4,58.7,72.2c-0.2-0.1-0.4,0.1-0.2,0.2c0.3,0.3,0.7,0.3,1,0c0.3-0.3,0.3-0.7,0-1c-0.3-0.3-0.7-0.3-1,0
				c-0.3,0.3-0.3,0.7,0,1C58.6,72.6,58.8,72.4,58.7,72.2L58.7,72.2z"/>
		</g>
	</g>
</g>
<g>
	<g>
		<g>
			<path class="st0" d="M40,67.7c-0.3,0.7-0.6,1.4-0.8,2.1c-0.1,0.2,0.2,0.3,0.3,0.1c0.3-0.7,0.6-1.4,0.8-2.1
				C40.4,67.6,40.1,67.5,40,67.7L40,67.7z"/>
		</g>
	</g>
</g>
<g>
	<g>
		<g>
			<path class="st0" d="M38.6,73.2c-0.2,1-0.4,1.9-0.7,2.8c-0.1,0.2,0.3,0.3,0.3,0.1c0.2-1,0.4-1.9,0.7-2.8
				C39,73.1,38.7,73,38.6,73.2L38.6,73.2z"/>
		</g>
	</g>
</g>
<g>
	<g>
		<g>
			<path class="st0" d="M37.5,79.9c-0.2,0.8-0.2,1.5-0.2,2.3c0,0.2,0.3,0.2,0.3,0c-0.1-0.8,0-1.5,0.2-2.3
				C37.9,79.8,37.6,79.7,37.5,79.9L37.5,79.9z"/>
		</g>
	</g>
</g>
<g>
	<g>
		<g>
			<path class="st0" d="M37.5,86.2c0.1,0.8,0.2,1.5,0.4,2.3c0,0.2,0.3,0.1,0.3-0.1c0-0.1,0-0.1,0-0.2c0-0.2-0.3-0.2-0.3,0
				c0,0.1,0,0.1,0,0.2c0.1,0,0.2,0,0.3-0.1c-0.1-0.8-0.2-1.5-0.4-2.3C37.8,85.9,37.5,86,37.5,86.2L37.5,86.2z"/>
		</g>
	</g>
</g>
<g>
	<g>
		<g>
			<path class="st0" d="M38.7,91.6c0.2,1.3,0.4,2.5,0.8,3.7c0.1,0.2,0.4,0.1,0.3-0.1c-0.3-1.2-0.6-2.4-0.7-3.7
				C39,91.4,38.7,91.4,38.7,91.6L38.7,91.6z"/>
		</g>
	</g>
</g>
<g>
	<g>
		<g>
			<path class="st0" d="M40.9,98.4c0.1,0.6,0.4,1.2,0.7,1.8c0.1,0.2,0.4,0,0.3-0.2c-0.3-0.5-0.6-1.1-0.7-1.7
				C41.2,98.1,40.9,98.2,40.9,98.4L40.9,98.4z"/>
		</g>
	</g>
</g>
<g>
	<g>
		<g>
			<path class="st0" d="M57.9,69.6c0.1,0.3,0.1,0.7,0.2,1.1c0,0.2,0.4,0.1,0.3-0.1c-0.1-0.3-0.1-0.7-0.2-1.1
				C58.2,69.3,57.9,69.4,57.9,69.6L57.9,69.6z"/>
		</g>
	</g>
</g>
<g>
	<g>
		<g>
			<path class="st0" d="M59.1,73.3c0.2,1,0.4,2,0.7,3c0.1,0.2,0.4,0.1,0.3-0.1c-0.2-1-0.4-2-0.7-3C59.4,73,59,73.1,59.1,73.3
				L59.1,73.3z"/>
		</g>
	</g>
</g>
<g>
	<g>
		<g>
			<path class="st0" d="M60.1,79.2c-0.1,1.5-0.2,3.1-0.3,4.6c0,0.2,0.3,0.2,0.3,0c0.1-1.5,0.2-3.1,0.3-4.6
				C60.5,79,60.1,79,60.1,79.2L60.1,79.2z"/>
		</g>
	</g>
</g>
<g>
	<g>
		<g>
			<path class="st0" d="M59.6,87.4c-0.3,1.2-0.5,2.5-0.8,3.7c-0.1,0.2,0.3,0.3,0.3,0.1c0.3-1.2,0.5-2.5,0.8-3.7
				C59.9,87.2,59.6,87.2,59.6,87.4L59.6,87.4z"/>
		</g>
	</g>
</g>
<g>
	<g>
		<g>
			<path class="st0" d="M57.5,93.8c0.1,0.6,0,1.1-0.3,1.6c-0.1,0.2,0.2,0.3,0.3,0.2c0.3-0.6,0.5-1.2,0.4-1.9
				C57.8,93.5,57.5,93.6,57.5,93.8L57.5,93.8z"/>
		</g>
	</g>
</g>
<g>
	<g>
		<g>
			<path class="st0" d="M56.3,98.9c0,0.3-0.1,0.7-0.3,0.9c0.1,0.1,0.2,0.1,0.3,0.2c0.1-0.2,0.2-0.3,0.3-0.5c0.1-0.2-0.2-0.3-0.3-0.2
				c-0.1,0.2-0.2,0.3-0.3,0.5c-0.1,0.2,0.2,0.3,0.3,0.2c0.2-0.3,0.3-0.7,0.3-1.1C56.7,98.7,56.3,98.7,56.3,98.9L56.3,98.9z"/>
		</g>
	</g>
</g>
<g>
	<g>
		<g>
			<path class="st0" d="M35.4,113.9c2.5-1.5,5.4-1.9,8.3-1.2c0.2,0.1,0.2-0.1,0.2-0.2c-1.1-2.6-5.6-1.2-7.5-0.8
				c-0.4,0.1-1.1,0.4-1.5,0.3c0.1-0.5,0.1-0.9,0.2-1.3c0.3-0.2,0.6-0.3,0.9-0.4c0.9-0.3,1.8-0.2,2.8-0.1c1.1,0.1,3.3,0.9,4.3,0
				c0.4-0.4,0.4-0.8,0-1.2c-0.2-0.2-0.6-0.2-0.9-0.3c-1.1-0.2-2.3-0.2-3.4-0.1c-0.7,0-1.3,0.1-2,0.2c-0.5,0.1-1,0.2-1.4,0.3
				c-0.4,0.1-1.2,0.5-1.5,0.3c-1.5-0.5,0.3-1.5,0.6-1.6c0.5-0.2,1-0.4,1.5-0.5c1.1-0.2,2.3-0.1,3.4,0.1c0.9,0.1,2.7,0.9,3.6,0.4
				c0.8-0.5,0.3-1.4-0.2-1.8c-1-0.7-2.4-0.7-3.5-0.6c-0.8,0.1-1.6,0.2-2.4,0.4c-0.9,0.2-2,0.7-2.9,0.7c-0.2,0.1-0.3,0.1-0.5,0.2
				c-0.7-0.8-0.8-1.4-0.1-1.6c0.4-0.3,1-0.5,1.5-0.6c0.8-0.2,1.6-0.2,2.5-0.2c1,0.1,2,0.2,3,0.5c0.7,0.2,1.6,0.5,2.3,0.2
				c0.5-0.2,1-0.8,0.8-1.4c-0.3-1-1.9-0.8-2.7-0.8c-2.1,0-4.3,0.3-6.4-0.2c-1.1-0.2-2.1-0.7-2.9-1.4c-0.3-0.3-0.7-0.6-0.8-0.9
				c-0.7-1.9,1-1.6,1.9-1.3c1.9,0.7,3.6,1.9,5.5,2.6c1.8,0.6,3.7,0.8,5.5,0.5c0.2-0.1,0.1-0.4-0.1-0.3c-2.3,0.5-4.5-0.1-6.6-1
				c-1.7-0.7-3.3-2-5.1-2.3c-0.7-0.1-1.6-0.1-1.8,0.8c-0.1,1,0.9,2,1.6,2.5c2.8,2.1,6.5,1.3,9.7,1.4c0.2,0,0.3,0,0.5,0
				c1.3-0.1,1.2,0.5-0.5,1.5c-0.3,0-1-0.2-1.3-0.3c-0.6-0.1-1.2-0.2-1.8-0.3c-1.6-0.2-3.2-0.1-4.6,0.6c-0.7,0.3-1.9,1-1.6,1.9
				c0.3,1.2,1.8,0.4,2.5,0.2c1.9-0.6,4.1-1.1,6.1-1c0.5,0,1.9,0.2,2.2,0.7c-0.2,0.4-0.4,0.8-0.6,1.1c-0.4-0.1-0.8-0.1-1.3-0.2
				c-1-0.2-1.9-0.4-2.9-0.5c-1.4-0.1-2.8,0.1-4,0.8c-0.5,0.3-1.5,1-1,1.8c0.5,0.7,1.9,0.1,2.6,0c1.1-0.2,2.2-0.4,3.3-0.5
				c0.5,0,1,0,1.5,0c0.4,0,1.9-0.1,2.2,0.2c-0.1,0.3-0.2,0.7-0.3,1.1c-0.3,0-0.6,0-1,0c-0.6-0.1-1.2-0.2-1.9-0.2
				c-0.9-0.1-1.8-0.2-2.7-0.1c-0.8,0.1-2.6,0.7-2.5,1.8c0.2,2.2,8.3-2.2,9.7,1c0.1-0.1,0.1-0.2,0.2-0.2c-2.9-0.8-5.9-0.3-8.5,1.2
				C35,113.7,35.2,114,35.4,113.9L35.4,113.9z"/>
		</g>
	</g>
</g>
<g>
	<g>
		<g>
			<path class="st0" d="M52.7,114.1c0-0.3,0.6-0.9,0.8-1c0.3-0.2,0.7-0.3,1-0.5c0.5-0.2,1.1-0.4,1.6-0.6c1.1-0.4,2.3-0.6,3.5-0.5
				c1.4,0.1,3.3,1.6,4.6,0.6c0.7-0.5,0.8-1.3,0.2-1.9c-1-1-3.1-1.1-4.4-1c-0.8,0.1-1.7,0.2-2.5,0.5c-0.7,0.2-2.2,1.1-2.9,0.8
				c-0.1-0.1-0.2-0.2-0.2-0.3c-0.3-0.2-0.3-0.3-0.1-0.5c0.1-0.1,0.4-0.2,0.5-0.3c0.5-0.2,0.9-0.5,1.4-0.6c1-0.3,2.1-0.5,3.1-0.6
				c1.8-0.1,3.4,0.4,5.2,0.7c0.6,0.1,1.8,0,1.6-1c-0.2-1-2.1-1.2-2.9-1.3c-1.8-0.2-3.7,0.1-5.5,0.4c-0.6,0.1-1.1,0.2-1.6,0.3
				c-0.6,0.1-0.7,0.3-0.9-0.4c-0.3-0.7,0-0.6,0.7-0.9c1.2-0.4,2.4-0.6,3.7-0.6c1.8,0.1,3.7,1,5.5,0.6c0.6-0.1,1.6-0.7,1.2-1.5
				c-0.2-0.3-0.5-0.4-0.8-0.4c-0.9-0.2-1.9-0.2-2.9-0.2c-2-0.1-4-0.1-5.9,0.3c-0.5,0.1-0.9,0.2-1.4,0.4c0,0-0.5,0.2-0.6,0.2
				c0-0.2,0-0.4,0.1-0.6c-0.2-0.4-0.1-0.6,0.3-0.6c0.8-0.5,2.7-0.4,3.6-0.3c2.1,0,4.4,0.3,6.5-0.3c0.5-0.2,1.6-0.7,1-1.4
				c-0.5-0.5-1.8-0.3-2.4-0.3c-1.1,0-2.1,0.1-3.2,0.3c-2.5,0.4-5.3,1.8-7.8,0.8c0,0.1,0,0.2,0,0.3c2.3-1.4,5-1.5,7.6-1.9
				c1.3-0.2,2.7-0.3,4-0.6c0.5-0.1,1.2-0.1,1.5-0.6c0.5-1-1.2-1.7-1.9-1.8c-1.9-0.2-3.6,1.2-5.4,1.6c0.1,0.1,0.1,0.2,0.2,0.3
				c1.1-1.2,2.4-2.2,3.9-2.8c0.7-0.3,2.1-0.5,2.5-1.2c0.3-0.5,0.2-0.9-0.2-1.3c-0.8-0.7-1.9-0.1-2.5,0.5c-0.2,0.1,0,0.4,0.2,0.3
				c0.2-0.1,0.3-0.3,0.5-0.4c0.5-0.4,1-0.1,1.4,1.1c-0.2,0.2-0.7,0.3-1,0.4c-0.6,0.2-1.2,0.4-1.7,0.7c-1.2,0.6-2.3,1.5-3.2,2.5
				c-0.1,0.1,0,0.3,0.2,0.3c1.5-0.3,2.7-1.2,4.2-1.5c0.5-0.1,1.1-0.1,1.6,0.1c0.6,0.2,1.4,1,0.5,1.5c-0.6,0.3-1.9,0.3-2.6,0.4
				c-3.2,0.5-6.9,0.5-9.7,2.2c-0.1,0.1-0.1,0.3,0,0.3c2.6,1,5.4-0.5,8-0.8c0.8-0.1,1.6-0.2,2.4-0.2c0.8,0,1.8-0.3,2.2,0.5
				c0.5,0.8-0.2,0.6-0.9,0.8c-0.4,0.1-0.9,0.1-1.3,0.2c-0.8,0.1-1.5,0.1-2.3,0.1c-1.4,0-2.8-0.1-4.2,0.1c-0.9,0.1-2.2,0.2-2.8,0.9
				c-0.2,0.3-0.3,0.6-0.1,1c0.4,0.6,1.4,0.1,1.9,0c1.5-0.5,3.1-0.6,4.6-0.7c0.7,0,1.4,0,2.1,0.1c0.2,0,2.5,0,2.6,0.2
				c-0.1,0.2-0.1,0.5-0.2,0.7c0.1,0.6-0.1,0.8-0.6,0.7c-0.2,0.1-1.4-0.2-1.3-0.1c-0.7-0.1-1.4-0.3-2-0.4c-1.2-0.2-2.4-0.2-3.6,0.1
				c-0.6,0.1-4.1,1-2.7,2.2c0.5,0.5,1.5,0.2,2,0.1c1.6-0.3,3.3-0.7,4.9-0.8c0.9,0,1.8,0,2.7,0.2c0.7,0.2,1.1,0.1,1.2,0.9
				c0.1,1-0.5,0.6-1.2,0.5c-1.3-0.3-2.6-0.5-3.9-0.6c-2.5-0.1-4.9,0.6-6.9,2.2c-0.1,0.1-0.1,0.2,0,0.2c1.2,1,2.6,0.3,3.8-0.2
				c1.3-0.5,2.6-0.7,3.9-0.6c0.7,0.1,1.5,0.2,2.2,0.4c1.1,0.2,1.1,1-0.1,2.1c-0.4,0-0.7-0.1-1.1-0.2c-1-0.3-1.9-0.7-3-0.7
				c-1.1,0-2.1,0.2-3.1,0.6c-1.1,0.3-3.7,0.9-3.7,2.4C52.4,114.3,52.7,114.3,52.7,114.1L52.7,114.1z"/>
		</g>
	</g>
</g>
<g>
	<g>
		<g>
			<path class="st0" d="M21.8,105.2c-0.1-0.2-0.1-0.4,0.1-0.6c0.2-0.2,0.5-0.1,0.7,0.1c0.1,0.2,0.1,0.6-0.3,0.6
				c-0.3,0-0.2-0.4,0-0.3c0.2,0.1,0.3-0.2,0.1-0.3c-0.5-0.2-0.8,0.5-0.5,0.8c0.4,0.4,1,0,1.1-0.5c0.1-0.5-0.5-1-1-0.8
				c-0.5,0.2-0.6,0.8-0.4,1.2C21.7,105.6,21.9,105.4,21.8,105.2L21.8,105.2z"/>
		</g>
	</g>
</g>
<g>
	<g>
		<g>
			<path class="st0" d="M26,108.8c0.1-0.4,0.4-0.7,0.8-0.6c-0.1,0-0.1-0.1-0.1-0.1c0.1,0.1,0.3,0.4,0.2,0.6c0,0.1-0.1,0.1-0.1,0.1
				c0,0-0.1,0-0.1-0.1c0.1-0.2-0.2-0.4-0.3-0.2c-0.1,0.3,0.1,0.5,0.4,0.5c0.4,0,0.6-0.3,0.5-0.6c0-0.2-0.1-0.4-0.3-0.5
				c-0.1-0.1-0.4-0.1-0.5,0c-0.4,0.1-0.7,0.5-0.7,0.8C25.6,108.9,26,109.1,26,108.8L26,108.8z"/>
		</g>
	</g>
</g>
<g>
	<g>
		<g>
			<path class="st0" d="M31.3,110.9c0-0.2,0.3-0.3,0.5-0.2c0.2,0.2-0.2,0.5-0.3,0.4c0,0.1,0,0.2,0.1,0.2c0.1-0.2,0.2-0.3,0.3-0.5
				c0.1-0.2-0.2-0.3-0.3-0.2c-0.1,0.2-0.2,0.3-0.3,0.5c-0.1,0.1,0,0.2,0.1,0.2c0.5,0.3,1.2-0.4,0.8-0.9c-0.2-0.2-0.5-0.2-0.7-0.1
				s-0.4,0.3-0.3,0.6C31,111.2,31.4,111.1,31.3,110.9L31.3,110.9z"/>
		</g>
	</g>
</g>
<g>
	<g>
		<g>
			<path class="st0" d="M36.8,121.3c-0.1-1.4,0.3-2.8,1.3-3.8c0.1-0.2-0.1-0.4-0.2-0.2c-1,1.1-1.5,2.5-1.4,4
				C36.5,121.6,36.8,121.6,36.8,121.3L36.8,121.3z"/>
		</g>
	</g>
</g>
<g>
	<g>
		<g>
			<path class="st0" d="M38.2,122.5c-0.2-1,0.1-2,0.8-2.8c0.1-0.2-0.1-0.4-0.2-0.2c-0.8,0.9-1.1,2-0.9,3.2
				C37.9,122.8,38.3,122.8,38.2,122.5L38.2,122.5z"/>
		</g>
	</g>
</g>
<g>
	<g>
		<g>
			<path class="st0" d="M39.8,123.4c-0.4-0.5-0.1-1.3,0.5-1.4c0.2-0.1,0.1-0.4-0.1-0.3c-0.8,0.2-1.2,1.3-0.6,2
				C39.7,123.8,39.9,123.5,39.8,123.4L39.8,123.4z"/>
		</g>
	</g>
</g>
<g>
	<g>
		<g>
			<path class="st0" d="M55.8,120.9c-0.5-1.1-0.4-2.3,0.1-3.4c0.1-0.2-0.2-0.4-0.3-0.2c-0.6,1.2-0.7,2.5-0.2,3.7
				C55.6,121.2,55.9,121.1,55.8,120.9L55.8,120.9z"/>
		</g>
	</g>
</g>
<g>
	<g>
		<g>
			<path class="st0" d="M58.2,121.9c-0.5-0.7-0.5-1.6,0.1-2.2c0.1-0.2-0.1-0.4-0.2-0.2c-0.7,0.7-0.7,1.9-0.1,2.7
				C58.1,122.3,58.4,122.1,58.2,121.9L58.2,121.9z"/>
		</g>
	</g>
</g>
<g>
	<g>
		<g>
			<path class="st0" d="M32,53.2c-1.5-2.7-2.4-7.2,1.3-8.7c0.2-0.1,0.1-0.4-0.1-0.3c-3.9,1.6-3.2,6.2-1.5,9.2
				C31.8,53.6,32.1,53.4,32,53.2L32,53.2z"/>
		</g>
	</g>
</g>
<g>
	<g>
		<g>
			<path class="st0" d="M51.5,48.4c-0.8-1.7-1.8-4.6,0.6-5.5c0.2-0.1,0.1-0.4-0.1-0.3c-2.6,1.1-1.7,4.1-0.8,6
				C51.3,48.8,51.6,48.6,51.5,48.4L51.5,48.4z"/>
		</g>
	</g>
</g>
<g>
	<g>
		<g>
			<path class="st0" d="M33.4,52.5c-0.6-0.9-1.2-1.9-1.2-3.1c0-1.3,1-2.6,2.4-2.6c0.2,0,0.2-0.3,0-0.3c-1.2,0-2.1,0.8-2.5,1.9
				c-0.5,1.5,0.2,3.1,1.1,4.3C33.2,52.9,33.5,52.7,33.4,52.5L33.4,52.5z"/>
		</g>
	</g>
</g>
<g>
	<g>
		<g>
			<path class="st0" d="M36.1,47.2c0.7,0.2,1.3,0.8,1.4,1.5c0,0.2,0.4,0.1,0.3-0.1c-0.2-0.8-0.8-1.5-1.7-1.8
				C36,46.8,35.9,47.1,36.1,47.2L36.1,47.2z"/>
		</g>
	</g>
</g>
<g>
	<g>
		<g>
			<path class="st0" d="M53.3,48.4c-1-1.8,0-3.8,2-4.1c0.2,0,0.1-0.3-0.1-0.3c-2.2,0.3-3.3,2.7-2.1,4.6
				C53.1,48.7,53.4,48.6,53.3,48.4L53.3,48.4z"/>
		</g>
	</g>
</g>
<g>
	<g>
		<g>
			<path class="st0" d="M54.4,48.2c-0.1-0.7-0.1-1.6,0.5-2.1c0.6-0.5,1.6-0.6,1.9,0.2c0.4,0.7-0.2,1.3-0.9,1.5
				c-0.5,0.1-1-0.2-0.8-0.8c0.1-0.3,0.4-0.4,0.7-0.3c0.3,0.1,0.2,0.6,0,0.3c-0.1-0.2-0.4,0-0.3,0.2c0.4,0.6,1.4-0.1,0.8-0.6
				c-0.7-0.6-1.8,0.2-1.4,1.1c0.4,1,2,0.5,2.4-0.3c0.5-1-0.4-2-1.4-1.9c-1.5,0.1-2,1.6-1.8,2.9C54.1,48.6,54.4,48.5,54.4,48.2
				L54.4,48.2z"/>
		</g>
	</g>
</g>
<g>
	<g>
		<g>
			<path class="st0" d="M34.3,51.8c-0.6-1.1-1-2.9,0.4-3.5c0.7-0.3,1.6,0,1.7,0.8c0.1,0.4-0.1,0.7-0.4,1c-0.2,0.1-0.4,0.2-0.6,0.1
				c-0.6-0.2-0.6-0.4-0.1-0.6c-0.2,0.1-0.1,0.4,0.1,0.3c1.1-0.3-0.1-1.8-0.8-0.8c-0.7,1.2,1.3,1.8,2,0.9c0.8-1.2-0.6-2.5-1.8-2.1
				c-1.8,0.5-1.5,2.8-0.8,4.1C34.1,52.1,34.4,52,34.3,51.8L34.3,51.8z"/>
		</g>
	</g>
</g>
<g>
	<g>
		<g>
			<path class="st0" d="M33.3,93.6c-0.9-2.3-1.3-4.7-1.2-7.1c0-1.2,0.2-2.4,0.5-3.6c0.2-0.7,0.8-4.1,2.1-2.9
				c0.3,0.3,0.3,1.5,0.3,1.9c0.1,0.6,0.1,1.2,0.1,1.9c0,1.1,0,2.3-0.1,3.4c-0.1,1.2-0.1,2.3-0.2,3.5c0,0.7-0.1,1.3-0.1,2
				c0,0.4,0,0.7-0.1,1.1c-0.9,0.4-1.4,0.3-1.5-0.3c-0.1-0.2-0.4-0.1-0.3,0.1c0.2,0.7,0.7,1.6,1.5,1.2c0.8-0.4,0.7-1.8,0.7-2.5
				c0.2-3.8,0.8-8-0.1-11.7c-0.2-0.7-0.4-1.6-1.3-1.2c-1.1,0.6-1.4,3-1.6,4c-0.7,3.5-0.4,7.1,0.9,10.4
				C33.1,93.9,33.4,93.8,33.3,93.6L33.3,93.6z"/>
		</g>
	</g>
</g>
<g>
	<g>
		<g>
			<path class="st0" d="M34.2,96c-0.2,0.4-0.3,1.1,0.3,1.3c0.3,0.1,0.8,0,1-0.2c0.3-0.3,0.2-0.8-0.1-1.1c-0.3-0.3-0.8-0.4-1.2-0.2
				c-0.2,0.1,0,0.4,0.2,0.3c0.3-0.1,0.6-0.1,0.8,0.1c0.2,0.2,0.3,0.5,0.1,0.7c-0.1,0.1-0.4,0.2-0.6,0.2c-0.4-0.1-0.2-0.6-0.1-0.9
				C34.6,95.9,34.3,95.9,34.2,96L34.2,96z"/>
		</g>
	</g>
</g>
<g>
	<g>
		<g>
			<path class="st0" d="M66.4,23.9c0.4,10,0.5,20,0.5,30.1c0,0.2,0.3,0.2,0.3,0c0-10-0.1-20.1-0.5-30.1
				C66.7,23.7,66.4,23.7,66.4,23.9L66.4,23.9z"/>
		</g>
	</g>
</g>
<g>
	<g>
		<g>
			<path class="st0" d="M107.9,26c-0.9,20-0.8,40,0.1,60c0,0.2,0.3,0.2,0.3,0c-0.9-20-1-40-0.1-60C108.3,25.8,107.9,25.8,107.9,26
				L107.9,26z"/>
		</g>
	</g>
</g>
<g>
	<g>
		<g>
			<path class="st0" d="M64.1,29.2c0-0.2,0.2-0.5,0.4-0.5c0.2,0,0.3,0.2,0.3,0.4C64.9,29.6,64.2,29.6,64.1,29.2
				c-0.1-0.2-0.4-0.1-0.3,0.1c0.1,0.4,0.5,0.6,0.8,0.6c0.4,0,0.6-0.4,0.6-0.7c0-0.4-0.3-0.7-0.7-0.7c-0.4,0-0.7,0.4-0.7,0.8
				C63.8,29.4,64.1,29.4,64.1,29.2L64.1,29.2z"/>
		</g>
	</g>
</g>
<g>
	<g>
		<g>
			<path class="st0" d="M64.5,38.6c-0.3-0.5,0.2-1.1,0.7-0.7c0.5,0.3,0.1,1.1-0.5,0.9c-0.2-0.1-0.3,0.2-0.1,0.3
				c0.4,0.1,0.8-0.1,1.1-0.4c0.2-0.4,0.1-0.8-0.3-1.1c-0.3-0.2-0.8-0.2-1.1,0.1c-0.3,0.3-0.3,0.8-0.1,1.1
				C64.3,38.9,64.6,38.7,64.5,38.6L64.5,38.6z"/>
		</g>
	</g>
</g>
<g>
	<g>
		<g>
			<path class="st0" d="M64.9,49.2c0-0.3,0.6-0.3,0.7,0c0.1,0.3-0.5,0.5-0.6,0.2c-0.1-0.2-0.4-0.1-0.3,0.1c0.3,0.6,1.4,0.4,1.3-0.3
				c-0.1-0.7-1.3-0.6-1.3,0.1C64.5,49.4,64.9,49.4,64.9,49.2L64.9,49.2z"/>
		</g>
	</g>
</g>
<g>
	<g>
		<g>
			<path class="st0" d="M110,32.4c-0.1-0.5,0.6-0.7,0.7-0.2C110.8,32.7,110.2,32.8,110,32.4c-0.1-0.1-0.4,0.1-0.3,0.2
				c0.2,0.3,0.6,0.4,0.9,0.3c0.3-0.1,0.5-0.5,0.4-0.8c-0.1-0.3-0.4-0.6-0.7-0.6c-0.4,0.1-0.7,0.4-0.7,0.8
				C109.7,32.6,110,32.6,110,32.4L110,32.4z"/>
		</g>
	</g>
</g>
<g>
	<g>
		<g>
			<path class="st0" d="M109.6,46c-0.1-0.4,0.5-0.8,0.8-0.5c0.3,0.3-0.1,1-0.6,0.8c-0.2-0.1-0.3,0.2-0.1,0.3
				c0.7,0.2,1.5-0.8,0.9-1.4c-0.6-0.5-1.6,0.1-1.4,0.8C109.3,46.3,109.7,46.2,109.6,46L109.6,46z"/>
		</g>
	</g>
</g>
<g>
	<g>
		<g>
			<path class="st0" d="M109.8,62.6c-0.1-0.2,0-0.5,0.2-0.6c-0.1,0-0.1,0-0.2,0c0.3,0.1,0.7,0.6,0.5,0.9c-0.1,0.1-0.5,0.2-0.5-0.1
				c0-0.2-0.3-0.2-0.3,0c0,0.3,0.3,0.5,0.6,0.5c0.4,0,0.6-0.3,0.6-0.7c0-0.2-0.1-0.4-0.2-0.6c-0.1-0.1-0.3-0.4-0.5-0.4
				c-0.2,0-0.4,0.2-0.4,0.4c-0.1,0.2-0.1,0.4-0.1,0.6C109.6,62.9,109.9,62.8,109.8,62.6L109.8,62.6z"/>
		</g>
	</g>
</g>
<g>
	<g>
		<g>
			<path class="st0" d="M110.1,76.8c-0.1-0.2,0.2-0.3,0.4-0.2c0.2,0.2,0,0.6-0.2,0.7c0.1,0,0.1,0,0.1,0c-0.3-0.1-0.5-0.3-0.6-0.6
				c-0.1-0.2-0.4-0.1-0.3,0.1c0.1,0.2,0.2,0.4,0.3,0.5c0.1,0.1,0.3,0.3,0.5,0.3c0.2,0,0.3-0.2,0.4-0.4c0.1-0.2,0.1-0.4,0.1-0.6
				c-0.1-0.3-0.4-0.6-0.7-0.5c-0.3,0.1-0.5,0.4-0.3,0.7C109.9,77.2,110.2,77,110.1,76.8L110.1,76.8z"/>
		</g>
	</g>
</g>
<g>
	<g>
		<g>
			<path class="st0" d="M77.5,42.1c0.5-0.5,1.2-0.6,1.9-0.3c0.2,0.1,0.3-0.2,0.1-0.3c-0.8-0.3-1.6-0.1-2.2,0.5
				C77.1,42,77.4,42.3,77.5,42.1L77.5,42.1z"/>
		</g>
	</g>
</g>
<g>
	<g>
		<g>
			<path class="st0" d="M18.4,98.3c-0.4-1.3,1.8-1,2.5-1.1c0.2,0,0.1-0.3-0.1-0.3c-0.7,0.1-1.6-0.1-2.2,0.3
				c-0.4,0.3-0.6,0.7-0.5,1.2C18.1,98.6,18.4,98.5,18.4,98.3L18.4,98.3z"/>
		</g>
	</g>
</g>
<g>
	<g>
		<g>
			<path class="st0" d="M25.6,79c1.5,1.2,1,3.4-0.8,3.8c-0.2,0.1-0.1,0.3,0.1,0.3c1.2,0,2.8-0.2,3.2-1.6c0.3-1.2-0.8-2.1-1.7-2.7
				c-0.2-0.1-0.3,0.2-0.2,0.3c0.7,0.5,1.8,1.3,1.6,2.4c-0.3,1.2-1.8,1.4-2.8,1.4c0,0.1,0,0.2,0.1,0.3c2-0.5,2.6-3.1,1-4.4
				C25.7,78.6,25.4,78.9,25.6,79L25.6,79z"/>
		</g>
	</g>
</g>
<g>
	<g>
		<g>
			<path class="st0" d="M66.9,84.4c-0.4,0.7-0.7,1.6-0.2,2.4c0.4,0.6,1.2,0.8,1.8,0.5c0.1-0.1,0.1-0.2,0-0.3
				c-1.2-1.1-1.2-3.1,0.1-4.1c0.2-0.1-0.1-0.4-0.2-0.2c-1.4,1.2-1.4,3.4-0.1,4.6c0-0.1,0-0.2,0-0.3c-0.7,0.3-1.4-0.1-1.6-0.7
				c-0.2-0.6,0.1-1.1,0.4-1.6C67.2,84.4,67,84.2,66.9,84.4L66.9,84.4z"/>
		</g>
	</g>
</g>
<g>
	<g>
		<g>
			<path class="st0" d="M45.5,115.6c2.1,0.2,4.3,0.1,6.4-0.3c0.2,0,0.1-0.3-0.1-0.3c-2.1,0.4-4.2,0.5-6.3,0.3
				C45.3,115.2,45.3,115.6,45.5,115.6L45.5,115.6z"/>
		</g>
	</g>
</g>
<g>
	<g>
		<g>
			<path class="st0" d="M42.8,123.3c0-0.3,0.4-0.5,0.7-0.5c0.2,0,0.3,0.2,0.2,0.3c-0.2,0.2-0.6,0.1-0.6-0.2c0-0.2-0.3-0.2-0.3,0
				c0.1,0.4,0.4,0.8,0.9,0.7c0.3-0.1,0.7-0.6,0.4-0.9c-0.5-0.5-1.5-0.1-1.5,0.6C42.5,123.5,42.8,123.5,42.8,123.3L42.8,123.3z"/>
		</g>
	</g>
</g>
<g>
	<g>
		<g>
			<path class="st0" d="M45.8,122.8c-0.1-0.2,0.2-0.5,0.4-0.3C46.3,122.7,45.9,123,45.8,122.8c-0.2-0.2-0.4,0-0.3,0.2
				c0.4,0.5,1.3-0.2,0.9-0.7c-0.4-0.5-1.3,0.2-0.9,0.7C45.7,123.2,46,123,45.8,122.8L45.8,122.8z"/>
		</g>
	</g>
</g>
<g>
	<g>
		<g>
			<path class="st0" d="M61.5,121.1c0.1-0.2,0.2-0.5,0.5-0.6c0.2-0.1,0.6,0,0.5,0.3c0.1-0.1,0.1-0.1,0.2-0.1c-0.4,0-0.8,0.1-1.2,0.1
				C61.2,120.8,61.2,121.1,61.5,121.1c0.3,0,0.7-0.1,1.1-0.1c0.1,0,0.1-0.1,0.2-0.1c0.1-0.4-0.2-0.7-0.6-0.8c-0.5,0-0.8,0.4-1,0.8
				C61.1,121.1,61.4,121.2,61.5,121.1L61.5,121.1z"/>
		</g>
	</g>
</g>
<g>
	<g>
		<g>
			<path class="st0" d="M64.1,120.2c-0.1-0.2,0.1-0.7,0.4-0.6c0.2,0,0.4,0.4,0.2,0.5c0.1,0,0.1,0,0.2,0c-0.2-0.1-0.3-0.2-0.5-0.3
				c-0.2-0.1-0.3,0.2-0.2,0.3c0.2,0.1,0.3,0.2,0.5,0.3c0.1,0,0.1,0,0.2,0c0.4-0.3,0.2-1-0.2-1.1c-0.6-0.2-1,0.5-0.8,1
				C63.8,120.5,64.1,120.4,64.1,120.2L64.1,120.2z"/>
		</g>
	</g>
</g>
<g>
	<g>
		<g>
			<path class="st0" d="M22.6,78.1c-0.2-0.2-0.6-0.2-0.8-0.1c-0.1,0.1-0.2,0.2-0.2,0.3c0,0.1,0.1,0.3,0.2,0.3
				c0.5,0.4,1.2,0.2,1.4-0.4c0-0.1,0-0.1-0.1-0.2c-0.2-0.1-0.3-0.3-0.5-0.4c-0.2-0.1-0.3,0.2-0.2,0.3c0.2,0.1,0.3,0.3,0.5,0.4
				c0-0.1-0.1-0.1-0.1-0.2c-0.2,0.4-0.8,0.4-1,0.1c0,0.1,0,0.1,0,0.2c0.1-0.2,0.4-0.3,0.5-0.1C22.6,78.5,22.8,78.2,22.6,78.1
				L22.6,78.1z"/>
		</g>
	</g>
</g>
<g>
	<g>
		<g>
			<path class="st0" d="M71.7,83.9c-0.3-0.1-0.7,0.1-0.8,0.3c-0.1,0.1-0.2,0.3-0.1,0.5c0.1,0.1,0.3,0.2,0.4,0.2
				c0.3,0,0.6-0.1,0.7-0.5c0.1-0.3,0-0.7-0.3-0.8c-0.2-0.1-0.3,0.2-0.2,0.3c0.2,0.1,0.2,0.4,0.1,0.6c-0.1,0.2-0.4,0.2-0.6,0
				c0,0.1,0.1,0.1,0.1,0.1c0-0.3,0.3-0.5,0.5-0.4C71.8,84.3,71.9,83.9,71.7,83.9L71.7,83.9z"/>
		</g>
	</g>
</g>
<g>
	<g>
		<g>
			<path class="st0" d="M102.1,107.8c6.3-0.2,12.6-0.2,18.9-0.3c0.2,0,0.2-0.3,0-0.3c-6.3,0.1-12.6,0.2-18.9,0.3
				C101.9,107.5,101.9,107.8,102.1,107.8L102.1,107.8z"/>
		</g>
	</g>
</g>
<g>
	<g>
		<g>
			<path class="st0" d="M69,109c1.5-0.1,2.9-0.1,4.4-0.2c0.2,0,0.2-0.3,0-0.3c-1.5,0.1-2.9,0.1-4.4,0.2
				C68.8,108.7,68.8,109.1,69,109L69,109z"/>
		</g>
	</g>
</g>
<g>
	<g>
		<g>
			<path class="st0" d="M14,110.2c2.8-0.2,5.5-0.3,8.3-0.2c0.2,0,0.2-0.3,0-0.3c-2.8-0.1-5.5,0-8.3,0.2
				C13.8,109.9,13.8,110.2,14,110.2L14,110.2z"/>
		</g>
	</g>
</g>
<g>
	<g>
		<g>
			<path class="st0" d="M83.5,99.2c0.1,1.8,0.3,3.5,0.6,5.2c0,0.2,0.4,0.1,0.3-0.1c-0.3-1.7-0.5-3.4-0.6-5.1
				C83.8,99,83.5,99,83.5,99.2L83.5,99.2z"/>
		</g>
	</g>
</g>
<g>
	<g>
		<g>
			<path class="st0" d="M87.7,99.4c-0.4,1.7-0.7,3.4-1,5.1c0,0.2,0.3,0.3,0.3,0.1c0.3-1.7,0.6-3.5,1-5.1
				C88.1,99.3,87.8,99.2,87.7,99.4L87.7,99.4z"/>
		</g>
	</g>
</g>
<g>
	<g>
		<g>
			<path class="st0" d="M73.9,108.7c-0.5-2,7.7-3.1,9-3.3c6.2-1,12.7-0.2,18.6,2.2c0.2,0.1,0.3-0.2,0.1-0.3c-6.2-2.5-13-3.2-19.6-2
				c-2,0.4-4.1,0.8-6.1,1.5c-0.8,0.3-2.6,0.9-2.3,2.1C73.6,109,74,108.9,73.9,108.7L73.9,108.7z"/>
		</g>
	</g>
</g>
<g>
	<g>
		<g>
			<path class="st0" d="M73.9,108.7c0.8-2.2,3.6-2.8,5.3-4.2c1.5-1.2,2.6-2.9,2.8-4.9c0-0.2-0.3-0.2-0.3,0c-0.3,2.7-2.4,4.6-4.6,5.9
				c-1.4,0.8-2.9,1.5-3.5,3.1C73.5,108.8,73.9,108.8,73.9,108.7L73.9,108.7z"/>
		</g>
	</g>
</g>
<g>
	<g>
		<g>
			<path class="st0" d="M101.5,106.8c-1.8-1.7-4-2.4-6.2-3.3c-1.9-0.8-4.8-2.2-4-4.7c0.1-0.2-0.2-0.3-0.3-0.1
				c-0.7,2,0.8,3.4,2.4,4.3c2.6,1.5,5.7,2,7.9,4.1C101.5,107.2,101.7,107,101.5,106.8L101.5,106.8z"/>
		</g>
	</g>
</g>
<g>
	<g>
		<g>
			<path class="st0" d="M84.1,100.5c0.1-0.1,0.2-0.1,0.4-0.1c0.1,0,0.2,0,0.3,0c0.2,0,0.4,0,0.6,0c0.4,0,0.8,0,1.2,0.1
				c0.2,0,0.2-0.3,0-0.3c-0.5,0-1-0.1-1.6-0.1c-0.3,0-0.7-0.1-1,0c-0.3,0.1-0.4,0.6,0,0.7C84.2,100.8,84.3,100.5,84.1,100.5
				L84.1,100.5z"/>
		</g>
	</g>
</g>
<g>
	<g>
		<g>
			<path class="st0" d="M84,102c1-0.1,2-0.1,3-0.2c0.2,0,0.2-0.3,0-0.3c-1,0.1-2,0.1-3,0.2C83.8,101.7,83.8,102,84,102L84,102z"/>
		</g>
	</g>
</g>
<g>
	<g>
		<g>
			<path class="st0" d="M84.1,103.4c0.9-0.1,1.9-0.2,2.8-0.1c0.2,0,0.2-0.3,0-0.3c-1-0.1-1.9-0.1-2.9,0.1
				C83.8,103.1,83.9,103.4,84.1,103.4L84.1,103.4z"/>
		</g>
	</g>
</g>
<g>
	<g>
		<g>
			<path class="st0" d="M84.1,104.7c0.7-0.1,1.4-0.1,2.1-0.2c0.2,0,0.2-0.3,0-0.3c-0.7,0.1-1.4,0.1-2.1,0.2
				C83.8,104.4,83.8,104.7,84.1,104.7L84.1,104.7z"/>
		</g>
	</g>
</g>
<g>
	<g>
		<g>
			<path class="st0" d="M86.7,100.6c0.1-0.1,0.2-0.2,0.3-0.1c0.1,0.1,0,0.3-0.2,0.3c0.1,0,0.1,0,0.1,0c-0.1-0.1-0.4-0.3-0.2-0.5
				c0.1-0.1,0.3-0.1,0.3,0.1c-0.1,0.2,0.3,0.3,0.3,0.1c0.1-0.3-0.2-0.5-0.5-0.5c-0.3,0-0.5,0.3-0.5,0.6c0.1,0.3,0.4,0.7,0.7,0.5
				c0.3-0.1,0.4-0.6,0.2-0.8c-0.2-0.3-0.7-0.2-0.8,0.1C86.3,100.6,86.6,100.8,86.7,100.6L86.7,100.6z"/>
		</g>
	</g>
</g>
<g>
	<g>
		<g>
			<path class="st0" d="M88.4,103.5c0-0.3,0.4-0.4,0.6-0.2c0.2,0.2,0,0.6-0.3,0.6c0,0,0.1,0.1,0.1,0.1
				C88.7,103.8,88.5,103.6,88.4,103.5c-0.1-0.2-0.3-0.1-0.2,0.1c0.1,0.1,0.2,0.2,0.2,0.3c0.1,0.1,0.1,0.2,0.2,0.2
				c0.1,0.1,0.3,0,0.5-0.1c0.3-0.2,0.5-0.5,0.3-0.8c-0.2-0.7-1.3-0.4-1.3,0.2C88,103.7,88.4,103.7,88.4,103.5L88.4,103.5z"/>
		</g>
	</g>
</g>
<g>
	<g>
		<g>
			<path class="st0" d="M82.1,104c0.1-0.5,0.8-0.6,0.8-0.1c0,0.2-0.1,0.4-0.3,0.4c-0.2,0-0.4-0.2-0.3-0.5c0.1-0.2-0.2-0.3-0.3-0.1
				c-0.1,0.4,0.2,0.8,0.6,0.8c0.4,0.1,0.7-0.3,0.7-0.7c0-0.4-0.3-0.7-0.7-0.7c-0.4,0-0.8,0.3-0.8,0.7
				C81.7,104.2,82.1,104.2,82.1,104L82.1,104z"/>
		</g>
	</g>
</g>
<g>
	<g>
		<g>
			<path class="st0" d="M73.8,109.3c4.7,2.9,11,2.9,16.3,2.8c3.5-0.1,11.5,0.3,11.7-4.9c0-0.2-0.3-0.2-0.3,0c-0.1,3.1-3.5,4-6,4.2
				c-2.5,0.3-5,0.4-7.5,0.4c-4.7-0.1-10-0.3-14.1-2.8C73.8,108.9,73.6,109.2,73.8,109.3L73.8,109.3z"/>
		</g>
	</g>
</g>
<g>
	<g>
		<g>
			<path class="st0" d="M92.7,107.3c-4.6-1.1-9.3-0.9-13.7,0.5c-0.1,0-0.2,0.2-0.1,0.2c0.9,1.3,2.9,1.2,4.4,1.4
				c2.4,0.3,4.8,0.4,7.2,0.4c1.1,0,2.5,0.2,3.6-0.1c0.2-0.1,0.5,0,0.6-0.3c0.6-1.1-2.7-1.7-3.2-1.9c-0.2-0.1-0.3,0.2-0.1,0.3
				c0.6,0.2,1.5,0.3,2,0.7c1.6,1.1-0.2,0.8-0.9,0.8c-1.2,0-2.4,0-3.6,0c-2.6-0.1-5.3-0.2-7.8-0.6c-0.3-0.1-1.7-0.2-1.6-0.9
				c0.1-0.2,1.6-0.4,1.9-0.5c1.2-0.3,2.5-0.5,3.7-0.5c2.5-0.2,5,0.1,7.5,0.7C92.9,107.6,92.9,107.3,92.7,107.3L92.7,107.3z"/>
		</g>
	</g>
</g>
<g>
	<g>
		<g>
			<path class="st0" d="M87.1,108.1c-0.5-0.1-0.8,0-1.2,0.3c-0.1,0.1-0.1,0.3,0.1,0.3c1.1,0.2,2.1,0.3,3.2,0.2
				c0.2,0,0.2-0.2,0.1-0.3c-0.9-0.4-1.8-0.6-2.7-0.5c-0.2,0-0.2,0.3,0,0.3c0.9-0.1,1.8,0.1,2.5,0.5c0-0.1,0.1-0.2,0.1-0.3
				c-1.1,0.1-2.1,0-3.1-0.2c0,0.1,0.1,0.2,0.1,0.3c0.3-0.2,0.6-0.3,0.9-0.2C87.2,108.5,87.3,108.2,87.1,108.1L87.1,108.1z"/>
		</g>
	</g>
</g>
</svg>
