<?xml version="1.0" encoding="utf-8"?>
<!-- Generator: Adobe Illustrator 24.0.1, SVG Export Plug-In . SVG Version: 6.00 Build 0)  -->
<svg version="1.1" id="Layer_1" xmlns="http://www.w3.org/2000/svg" xmlns:xlink="http://www.w3.org/1999/xlink" x="0px" y="0px"
	 viewBox="0 0 141.7 141.7" style="enable-background:new 0 0 141.7 141.7;" xml:space="preserve">
<style type="text/css">
	.st0{fill:#070707;}
	.st1{enable-background:new    ;}
</style>
<g id="Layer_1_1_">
</g>
<g id="Layer_1_2_">
</g>
<g id="Layer_1_3_">
</g>
<g id="Layer_1_4_">
</g>
<g id="Layer_1_5_">
</g>
<g id="Layer_3">
</g>
<g id="Layer_3_1_">
</g>
<g id="Layer_1_6_">
</g>
<g id="Layer_1_7_">
</g>
<g id="Layer_1_8_">
</g>
<g id="Layer_1_9_">
</g>
<g id="Layer_1_10_">
</g>
<g id="Layer_1_11_">
</g>
<g id="Layer_1_12_">
</g>
<g id="Layer_1_13_">
</g>
<g id="Layer_1_14_">
</g>
<g id="Layer_1_15_">
</g>
<g id="Layer_1_16_">
</g>
<g id="Layer_1_17_">
</g>
<g id="Layer_1_18_">
</g>
<g id="Layer_1_19_">
</g>
<g id="Layer_1_20_">
</g>
<g>
	<g>
		<path class="st0" d="M48,74.4c0.1,0,0.2-0.1,0.3-0.1c0-0.1-0.1-0.2-0.1-0.2c-1.8,0.9-4.1,2.8-3.8,5c0.3,2.4,3.5,2.3,5.1,1.8
			c1.2-0.3,2.4-0.9,3.5-1.4c1-0.4,2.3-0.5,3.2-1.1c2.3-1.7-1.2-4.1-2.6-4.8c-0.2-0.1-0.3,0.2-0.1,0.3c0.9,0.5,1.8,1.1,2.5,1.8
			c0.6,0.6,0.8,1.7,0.1,2.3c-0.3,0.3-1,0.5-1.5,0.6c-1.6,0.4-3,1.2-4.6,1.7c-1.8,0.6-4.9,1.2-5.6-1.3c-0.5-2,2.1-4,3.6-4.7
			c0.2-0.1,0.1-0.3-0.1-0.2c-0.1,0-0.2,0.1-0.3,0.1C47.7,74.2,47.8,74.4,48,74.4L48,74.4z"/>
	</g>
</g>
<g>
	<path class="st0" d="M56,71.9c-0.2-1.3-2.4-2-4.8-1.6s-4.2,1.8-4,3.1c0.2,1.3,2.4,2,4.8,1.6C54.4,74.6,56.2,73.3,56,71.9z"/>
</g>
<g>
	<g>
		<path class="st0" d="M53.1,79.4c0.3,1.7,1.7,5.5-0.2,6.7c-1.6,0.9-2.8-0.7-3.2-2c-0.3-1.1-0.3-2.3-0.2-3.4c0-0.2-0.2-0.2-0.3,0
			c-0.3,2.2,0.2,6.5,3.4,5.8c2.8-0.6,1.1-5.5,0.8-7.2C53.4,79.2,53.1,79.2,53.1,79.4L53.1,79.4z"/>
	</g>
</g>
<g>
	<g>
		<path class="st0" d="M54.1,85c3.2,0.2,1.2-4.6,0.9-6.1c0-0.2-0.3-0.1-0.3,0.1c0.2,1.4,2.1,5.9-0.6,5.8C54,84.8,53.9,85,54.1,85
			L54.1,85z"/>
	</g>
</g>
<g>
	<path class="st0" d="M44.6,68.6c-5.2,0-9.8-3.7-10.7-8.8c-0.5-2.8,0.2-5.6,1.9-7.9c1.7-2.3,4.2-3.8,7.1-4.3l0,0
		c2.9-0.5,5.8,0.2,8.1,1.8c2.4,1.6,3.9,4.1,4.4,6.9c0.5,2.8-0.2,5.6-1.9,7.9c-1.7,2.3-4.2,3.8-7.1,4.3
		C45.9,68.5,45.2,68.6,44.6,68.6z M43.1,47.9c-2.8,0.5-5.2,1.9-6.9,4.2c-1.6,2.2-2.3,4.9-1.9,7.6c0.9,5.5,6.3,9.3,12,8.4
		c2.8-0.5,5.2-1.9,6.9-4.2c1.6-2.2,2.3-4.9,1.9-7.6c-0.4-2.7-1.9-5-4.2-6.6C48.7,48.1,45.9,47.5,43.1,47.9L43.1,47.9z"/>
</g>
<g>
	<path class="st0" d="M46,52.2c-0.9,1.7-0.3,3.8,1.4,4.7c1.7,0.9,3.7,0.2,4.6-1.5c0.9-1.7,0.3-3.8-1.4-4.7
		C49,49.8,46.9,50.5,46,52.2z M51.6,53.5c-0.2,0.5-0.8,0.7-1.3,0.4c-0.5-0.2-0.6-0.8-0.4-1.3c0.2-0.5,0.8-0.7,1.3-0.4
		C51.7,52.4,51.9,53,51.6,53.5z"/>
</g>
<g>
	<path class="st0" d="M45.4,66.8c-2.1,0-4-0.6-5.7-1.8c-2.2-1.5-3.6-3.7-4-6.3c-0.4-2.5,0.2-5.1,1.8-7.2c1.6-2.1,3.9-3.5,6.5-3.9
		c5.4-0.9,10.6,2.7,11.4,7.9c0.4,2.5-0.2,5.1-1.8,7.2c-1.6,2.1-3.9,3.5-6.5,3.9C46.5,66.8,45.9,66.8,45.4,66.8z M45.7,47.9
		c-0.5,0-1.1,0-1.6,0.1c-2.5,0.4-4.8,1.8-6.3,3.8c-1.5,2-2.1,4.5-1.7,6.9c0.4,2.4,1.8,4.6,3.8,6c2.1,1.4,4.6,2,7.1,1.6
		c2.5-0.4,4.8-1.8,6.3-3.8c1.5-2,2.1-4.5,1.7-6.9C54.3,51.1,50.2,47.9,45.7,47.9z"/>
</g>
<g>
	<g>
		<g>
			<path class="st0" d="M35.1,60.8c0.1,1.5,0.7,2.9,1.8,3.9c0.7,0.6,1.5,0.6,1.1-0.5c-0.3-0.9-0.7-1.7-1.1-2.5
				c-0.3-0.5-0.7-1.6-1.2-1.8c-1.1-0.4-0.4,1.8-0.2,2.1c0.1,0.2,0.4,0,0.3-0.2c-0.1-0.2-0.8-1.8,0.1-1.3c0.3,0.1,0.6,0.9,0.7,1.1
				c0.4,0.7,1,1.6,1.1,2.4c0.2,0.2,0.2,0.5-0.1,0.7c-0.2-0.1-0.5-0.3-0.6-0.5c-0.3-0.2-0.5-0.5-0.7-0.8c-0.5-0.8-0.8-1.7-0.8-2.6
				C35.5,60.6,35.1,60.6,35.1,60.8L35.1,60.8z"/>
		</g>
	</g>
</g>
<g>
	<g>
		<g>
			<path class="st0" d="M38.9,65.6c0.3-0.3,0.8,0.1,0.5,0.5c-0.1,0.2-0.3,0.2-0.5,0C38.9,66,38.8,65.8,38.9,65.6
				c0.1-0.2-0.1-0.4-0.2-0.2c-0.2,0.3-0.2,0.7,0,0.9c0.3,0.3,0.7,0.3,1,0c0.3-0.3,0.3-0.7-0.1-1c-0.3-0.2-0.7-0.2-0.9,0.1
				C38.6,65.5,38.8,65.8,38.9,65.6L38.9,65.6z"/>
		</g>
	</g>
</g>
<g>
	<g>
		<path class="st0" d="M67.8,57.2c-0.9-5.7-6.5-9.6-12.4-8.7c-1.3,0.2-2.5,0.6-3.7,1.3c0.1,0.1,0.1,0.1,0.2,0.2c0,0,0.1,0,0.1,0.1
			c1.1-0.6,2.3-1,3.5-1.2c5.7-0.9,11.1,2.8,12.1,8.4c0.4,2.7-0.2,5.4-1.9,7.6c-1.7,2.2-4.1,3.7-6.9,4.2c-3.1,0.5-6.2-0.3-8.5-2.3
			C50.1,66.9,50,67,49.9,67c2,1.7,4.4,2.5,7,2.5c0.6,0,1.2-0.1,1.8-0.2c2.9-0.5,5.4-2,7.1-4.3C67.6,62.8,68.3,60,67.8,57.2z"/>
	</g>
</g>
<g>
	<g>
		<path class="st0" d="M58.3,53.2c-0.9,1.7-0.3,3.8,1.4,4.7c1.7,0.9,3.7,0.2,4.6-1.5c0.9-1.7,0.3-3.8-1.4-4.7
			C61.3,50.8,59.2,51.5,58.3,53.2z M63.9,54.5c-0.2,0.5-0.8,0.7-1.3,0.4c-0.5-0.2-0.6-0.8-0.4-1.3c0.2-0.5,0.8-0.7,1.3-0.4
			C64,53.4,64.2,54,63.9,54.5z"/>
	</g>
</g>
<g>
	<g>
		<path class="st0" d="M67.7,56.6c-0.4-2.5-1.8-4.7-4-6.2c-2.1-1.5-4.8-2.1-7.4-1.6c-1.5,0.2-2.8,0.8-4,1.6c0.1,0.1,0.2,0.1,0.2,0.2
			c0,0,0,0,0,0c1.2-0.8,2.5-1.3,3.9-1.5c2.5-0.4,5.1,0.1,7.2,1.6c2.1,1.4,3.4,3.6,3.8,6c0.4,2.4-0.2,4.9-1.7,6.9
			c-1.5,2-3.8,3.4-6.3,3.8c-2.6,0.4-5.2-0.2-7.3-1.7c-0.1,0.1-0.2,0.1-0.3,0.2c1.7,1.3,3.8,1.9,6,1.9c0.6,0,1.1-0.1,1.7-0.1
			c2.6-0.4,4.9-1.8,6.5-3.9C67.5,61.7,68.1,59.1,67.7,56.6z"/>
	</g>
</g>
<g>
	<g>
		<g>
			<path class="st0" d="M51.2,66.6c0.3-0.3,0.9,0.1,0.6,0.5c-0.1,0.2-0.4,0.2-0.5,0C51.2,67,51.1,66.8,51.2,66.6
				c0.1-0.1-0.1-0.3-0.2-0.2c-0.2,0.3-0.2,0.6,0,0.9c0.2,0.3,0.7,0.3,0.9,0c0.2-0.3,0.2-0.7-0.1-0.9c-0.3-0.2-0.7-0.2-0.9,0.1
				C50.9,66.6,51.1,66.7,51.2,66.6L51.2,66.6z"/>
		</g>
	</g>
</g>
<g>
	<g>
		<g>
			<path class="st0" d="M49.8,73.6c-2.1,0.9-4,2.9-4.2,5.3c-0.3,2.7,3,2.1,4.7,1.7c0.2-0.1,0.1-0.4-0.1-0.3c-0.9,0.2-2,0.5-2.9,0.3
				c-2.1-0.4-1.3-2.5-0.7-3.6c0.8-1.4,2-2.5,3.4-3.1C50.2,73.8,50,73.5,49.8,73.6L49.8,73.6z"/>
		</g>
	</g>
</g>
<g>
	<g>
		<g>
			<path class="st0" d="M48.6,81.1C48.6,81.1,48.7,81.1,48.6,81.1c0.1-0.1,0.2-0.1,0.2-0.2c0-0.2,0-0.2-0.2-0.3
				c-0.1-0.1-0.2,0-0.2,0.1c-0.4,0.5,0.1,2,0,2.7c0,0.9-0.3,2,0.2,2.8c0.9,1.5,2.9,0.8,4.1,0.2c0.2-0.1,0-0.4-0.2-0.3
				c-0.7,0.3-1.5,0.7-2.3,0.7c-1.3-0.1-1.7-1.2-1.6-2.3c0-0.3-0.1-3.8-0.2-3.7C48.3,80.9,48.4,81.2,48.6,81.1L48.6,81.1z"/>
		</g>
	</g>
</g>
<g>
	<g>
		<g>
			<path class="st0" d="M63,115c3.1-1.6,5.8-4.1,7-7.4c1.4-3.9-0.2-8-1.7-11.7c-0.9-2.2-1.8-4.3-2.2-6.6c-0.5-2.6-0.6-5.2-0.8-7.9
				c-0.3-5-0.5-9.9-0.5-14.9c0-0.4-0.7-0.4-0.7,0c0,4.6,0.1,9.1,0.4,13.6c0.3,4.3,0.3,9.1,1.9,13.1c1.5,3.9,4,8,3.4,12.3
				c-0.6,4-3.7,7.1-7.2,8.8C62.3,114.6,62.6,115.2,63,115L63,115z"/>
		</g>
	</g>
</g>
<g>
	<g>
		<g>
			<path class="st0" d="M46,118.1c2.8,0,5.6-0.2,8.4-0.6c0.4-0.1,0.2-0.7-0.2-0.6c-2.7,0.4-5.5,0.5-8.3,0.5
				C45.5,117.4,45.5,118.1,46,118.1L46,118.1z"/>
		</g>
	</g>
</g>
<g>
	<g>
		<g>
			<path class="st0" d="M23.9,84c-2.1,7.4-5.7,15.2-3.9,23c0.4,1.7,0.9,3.3,2.1,4.6c1.1,1.2,2.4,2.1,3.8,2.8
				c2.9,1.5,6.2,2.1,9.3,2.7c0.4,0.1,0.6-0.6,0.2-0.6c-3-0.6-6.1-1.2-8.8-2.5c-1.4-0.7-2.7-1.6-3.8-2.7c-1.4-1.4-2-3.4-2.3-5.3
				c-1.3-7.5,2.1-14.8,4.1-21.8C24.7,83.7,24.1,83.6,23.9,84L23.9,84z"/>
		</g>
	</g>
</g>
<g>
	<g>
		<g>
			<path class="st0" d="M35.2,52.2c-4.2,0.1-6.1,4.6-7.1,8.1c-1.7,6.2-1.6,12.7-2.9,18.9c-0.1,0.4,0.6,0.6,0.6,0.2
				c1.2-5.4,1.3-11,2.4-16.5c0.7-3.7,2.3-9.9,7-10.1C35.6,52.9,35.6,52.2,35.2,52.2L35.2,52.2z"/>
		</g>
	</g>
</g>
<g>
	<g>
		<g>
			<path class="st0" d="M48.4,47.8c-0.6-3.4,3.4-4.7,6.1-4.7c1.4,0,3,0.4,3.9,1.6c0.9,1.2,0.7,2.7,0.5,4.2c-0.1,0.4,0.6,0.4,0.7,0
				c0.2-1.7,0.3-3.5-0.9-4.9c-1.2-1.3-2.9-1.6-4.6-1.5c-3.1,0.1-6.9,1.8-6.3,5.5C47.8,48.4,48.5,48.3,48.4,47.8L48.4,47.8z"/>
		</g>
	</g>
</g>
<g>
	<g>
		<g>
			<path class="st0" d="M30.7,53.5c-1.7-0.7-2.5-3.4-2-5c0.5-1.7,2.5-2.7,4.1-3.3c1.4-0.6,3-0.9,4.5-0.9c0.9,0,1.8,0.1,2.4,0.8
				c0.8,0.8,0.8,1.9,0.7,3c0,0.4,0.6,0.4,0.7,0c0.1-2-0.4-3.9-2.6-4.3c-2.2-0.4-4.8,0.3-6.8,1.2c-1.8,0.9-3.7,2.2-3.8,4.4
				c-0.1,1.9,0.8,4.2,2.6,4.9C30.9,54.3,31.1,53.7,30.7,53.5L30.7,53.5z"/>
		</g>
	</g>
</g>
<g>
	<g>
		<path class="st0" d="M67.7,84.4c-0.7,1-2.7,1.9-1.8,3.4c0.9,1.5,3.1,0.3,4.2-0.3c1.1-0.6,3.3-1.8,2.4-3.4c-0.8-1.6-3.1,1-3.7,1.4
			c-0.1,0.1,0,0.3,0.1,0.2c0.6-0.5,3.2-3.2,3.6-1c0.2,1.2-1.9,2.2-2.7,2.7c-1.1,0.6-3.2,1.6-3.9,0c-0.5-1.1,1.4-2.1,2-2.8
			C67.9,84.4,67.8,84.2,67.7,84.4L67.7,84.4z"/>
	</g>
</g>
<g>
	<g>
		<path class="st0" d="M70.4,83c0-0.1,0.1-0.1,0.1-0.2c-1-0.1-2,0.7-2.8,1.6c-0.1,0.1,0.1,0.2,0.2,0.1C68.5,83.7,69.4,83,70.4,83z"
			/>
	</g>
</g>
<g>
	<g>
		<g>
			<path class="st0" d="M84.7,50.1c-1.7,5.7-4,11.3-6.1,16.9c-2.1,5.7-4.3,11.4-6.5,17c-0.1,0.2,0.2,0.3,0.3,0.1
				c2.2-5.7,4.3-11.3,6.5-17c2.1-5.6,4.5-11.1,6.1-16.9C85.1,50,84.8,49.9,84.7,50.1L84.7,50.1z"/>
		</g>
	</g>
</g>
<g>
	<g>
		<g>
			<path class="st0" d="M69.1,86c5.2-12.1,10.8-24,15.5-36.3c0.1-0.2-0.2-0.3-0.3-0.1C79.5,61.9,74,73.8,68.8,85.9
				C68.7,86,69,86.2,69.1,86L69.1,86z"/>
		</g>
	</g>
</g>
<g>
	<g>
		<g>
			<path class="st0" d="M68.8,87.8c-0.4,0.6-1.3,2-1.1,2.8c0.1,0.5,0.8,0.5,1.3,0.5c0.8,0,1.3-0.4,1.6-1.1c0.5-1.1,0.8-2.4,1-3.5
				c0.1-0.2-0.3-0.3-0.3-0.1c-0.2,0.6-0.3,1.3-0.5,2c-0.2,0.6-0.3,1.5-0.9,2c-0.3,0.3-0.7,0.5-1.1,0.4c-0.2,0.1-0.4,0-0.5-0.2
				c-0.3-0.1-0.3-0.3-0.2-0.5c0-0.6,0.6-1.4,0.9-2C69.2,87.8,68.9,87.6,68.8,87.8L68.8,87.8z"/>
		</g>
	</g>
</g>
<g>
	<g>
		<g>
			<path class="st0" d="M52.1,82.8c-0.5,0.3-1,0.7-1.2,1.3c-0.2,0.5,0,1,0.5,1c1.3,0.1,1.8-1.5,1-2.4c-0.2-0.2-0.4,0.1-0.2,0.2
				c0.6,0.6,0.3,1.8-0.7,1.8c-0.7,0-0.3-0.7-0.1-1c0.2-0.3,0.5-0.5,0.9-0.7C52.4,83,52.3,82.7,52.1,82.8L52.1,82.8z"/>
		</g>
	</g>
</g>
<g>
	<g>
		<g>
			<path class="st0" d="M67.8,88.2c-0.4,0.5-1,1.2-0.8,1.9c0.1,0.6,0.6,1,1.2,0.9c0.2-0.1,0.1-0.4-0.1-0.3c-0.6,0.1-0.9-0.6-0.8-1.1
				c0.1-0.4,0.4-0.8,0.7-1.1C68.2,88.3,67.9,88.1,67.8,88.2L67.8,88.2z"/>
		</g>
	</g>
</g>
<g>
	<g>
		<g>
			<path class="st0" d="M84.3,49.7c-0.1,0.2-0.2,0.5-0.3,0.7c-0.1,0.2,0.2,0.3,0.3,0.1c0.1-0.2,0.2-0.5,0.3-0.7
				C84.7,49.6,84.4,49.5,84.3,49.7L84.3,49.7z"/>
		</g>
	</g>
</g>
<g>
	<g>
		<g>
			<path class="st0" d="M70.2,84.6c5.4-11.5,10.1-23.2,14.7-35c0.1-0.2-0.2-0.3-0.3-0.1C80,61.2,75.2,72.9,69.9,84.4
				C69.8,84.6,70.1,84.8,70.2,84.6L70.2,84.6z"/>
		</g>
	</g>
</g>
<g>
	<g>
		<g>
			<path class="st0" d="M68.9,88.1c0.7,0.3,1.5,0.3,2.2-0.1c0.2-0.1,0-0.4-0.2-0.3c-0.6,0.3-1.3,0.3-1.9,0.1
				C68.9,87.8,68.7,88.1,68.9,88.1L68.9,88.1z"/>
		</g>
	</g>
</g>
<g>
	<g>
		<g>
			<path class="st0" d="M70.3,82.2c0.6,0.7,1.6,0.9,2.4,0.5c0.2-0.1,0-0.4-0.2-0.3c-0.7,0.3-1.5,0.2-2-0.4
				C70.5,81.8,70.2,82,70.3,82.2L70.3,82.2z"/>
		</g>
	</g>
</g>
<g>
	<g>
		<g>
			<path class="st0" d="M97,35.6c2.3-0.2,4.5-0.4,6.8-0.4c0.2,0,0.2-0.3,0-0.3c-2.3,0-4.5,0.2-6.8,0.4C96.8,35.3,96.8,35.6,97,35.6
				L97,35.6z"/>
		</g>
	</g>
</g>
<g>
	<g>
		<g>
			<path class="st0" d="M97.2,37.3c2.4,0,4.8-0.1,7.2-0.1c0.2,0,0.2-0.3,0-0.3c-2.4,0-4.8,0.1-7.2,0.1C97,36.9,97,37.3,97.2,37.3
				L97.2,37.3z"/>
		</g>
	</g>
</g>
<g>
	<g>
		<g>
			<path class="st0" d="M76.4,33c-0.4-2.9-4.2-1.2-5.3,0.1c-1.9,2.2-2.5,5.9-1.2,8.5c1.5,3.1,4.3-0.6,5.1-2.3
				c0.7-1.3,2.5-6.5-0.2-6.9c-0.2,0-0.3,0.3-0.1,0.3c2.1,0.3,0.7,4.7,0.2,5.8c-0.4,0.9-0.9,1.7-1.5,2.4c-0.3,0.3-0.8,0.9-1.2,1.1
				c-1.7,0.8-2.2-0.7-2.4-1.7c-0.5-1.9-0.3-4.2,0.6-5.9c0.5-0.9,1.1-1.8,2-2.3c1-0.7,3.4-1.2,3.6,0.8C76.1,33.3,76.4,33.2,76.4,33
				L76.4,33z"/>
		</g>
	</g>
</g>
<g>
	<g>
		<g>
			<path class="st0" d="M77.9,35.7c0.8-1.4,1.5-2.8,2.1-4.3c-0.1,0-0.2-0.1-0.3-0.1c-0.8,3.5-1.3,7-1.6,10.6c0,0.2,0.3,0.2,0.3,0
				c0.3-3.5,0.9-7,1.6-10.5c0.1-0.2-0.2-0.3-0.3-0.1c-0.5,1.5-1.2,2.9-2,4.2C77.5,35.7,77.8,35.8,77.9,35.7L77.9,35.7z"/>
		</g>
	</g>
</g>
<g>
	<g>
		<g>
			<path class="st0" d="M83,35.6c-0.2,1-0.3,2.1-0.5,3.1c0,0.2,0.3,0.3,0.3,0.1c0.2-1,0.3-2.1,0.5-3.1C83.3,35.5,83,35.4,83,35.6
				L83,35.6z"/>
		</g>
	</g>
</g>
<g>
	<g>
		<g>
			<path class="st0" d="M81.3,37.9c0.8-0.2,1.6-0.4,2.5-0.6c0.2,0,0.1-0.3-0.1-0.3c-0.8,0.1-1.7,0.3-2.5,0.6
				C81,37.7,81.1,38,81.3,37.9L81.3,37.9z"/>
		</g>
	</g>
</g>
<g>
	<g>
		<g>
			<path class="st0" d="M88.7,31.9c-2-0.1-2.8,3.2-3.1,4.7c-0.3,1.3-0.4,2.5-0.3,3.8c0,0.6,0,1.8,0.7,2.1c1.4,0.6,2.6-2.7,2.9-3.6
				c0.5-1.6,1.3-4.7-0.1-6c-0.2-0.1-0.4,0.1-0.2,0.2c1.1,1,0.7,3.4,0.4,4.6c-0.2,0.8-0.5,1.7-0.9,2.4c-0.1,0.3-0.3,0.5-0.4,0.8
				c-0.5,0.7-0.4,1.2-1.3,0.5c-0.6-0.5-0.6-0.5-0.6-1.1c0-0.4,0-0.8,0-1.1c0-0.8,0.1-1.6,0.3-2.4c0.3-1.3,1-4.7,2.8-4.7
				C88.9,32.3,88.9,32,88.7,31.9L88.7,31.9z"/>
		</g>
	</g>
</g>
<g>
	<g>
		<g>
			<path class="st0" d="M94,35c0-0.3,0.3-1,0.3-0.3c0,0.5-0.2,1-0.3,1.5c-0.2,0.7-0.4,1.3-0.6,2c-0.3,0.8-0.6,1.6-0.9,2.3
				c-0.3,0.6-0.3,0.8,0.2,1.2c1,0.8,2.5,0.3,2.3-1.1c0-0.2-0.4-0.2-0.3,0c-1,0.9-1.7,1-2.3,0.3c-0.1-0.1-0.2-0.1-0.3-0.2
				c-0.1-0.1-0.2-0.1-0.3-0.1c-0.2,0-0.5,0.1-0.6,0.2c-0.4,0.5,0.3,1,0.8,0.8c0.9-0.2,1.2-1.8,1.5-2.5c0.6-1.6,1.3-3.5,1.2-5.3
				c0-0.1-0.1-0.2-0.2-0.1c-0.5,0.3-0.7,0.7-0.7,1.3C93.6,35.2,94,35.2,94,35L94,35z"/>
		</g>
	</g>
</g>
<g>
	<g>
		<g>
			<path class="st0" d="M30.9,54.2c0.1-0.1,0.1-0.1,0.2-0.2c0.3-0.3-0.2-0.8-0.5-0.5c-0.1,0.1-0.1,0.1-0.2,0.2
				C30.1,54,30.6,54.5,30.9,54.2L30.9,54.2z"/>
		</g>
	</g>
</g>
<g>
	<g>
		<g>
			<path class="st0" d="M60.1,122.6c-1.8-1.1-2.9-2.9-4.5-4.3c-0.6-0.5-1.5-0.8-0.6-2.2c0.3-0.5,1.1-1,1.6-1.3
				c1.2-0.8,2.6-1.2,4.1-0.8c2.2,0.7,3.7,3,4.2,5.1c0.3,1.2,0.2,2.5-0.8,3.4C63.1,123.6,61.3,123.2,60.1,122.6
				c-0.2-0.1-0.4,0.2-0.2,0.3c2.1,1.1,5,0.8,5.4-2c0.4-2.7-1.7-6-4.2-7c-1.3-0.6-2.7-0.5-4,0.2c-1,0.5-2.9,1.7-3,2.9
				c-0.1,1.1,1.4,1.7,2,2.4c1.2,1.3,2.2,2.7,3.7,3.5C60.1,123,60.3,122.7,60.1,122.6z"/>
		</g>
	</g>
</g>
<g>
	<g>
		<g>
			<path class="st0" d="M61.2,118.3c1.2,1.3,2.2,2.9,2.2,4.6c0,0.2,0.3,0.2,0.3,0c-0.1-1.9-1-3.6-2.3-4.9
				C61.3,117.9,61,118.2,61.2,118.3L61.2,118.3z"/>
		</g>
	</g>
</g>
<g>
	<g>
		<g>
			<path class="st0" d="M41.2,124.6c-1.5-1.7-2-3.9-3.2-5.7c-0.1-0.2-0.3-0.3-0.4-0.5c0.1-0.8,0.4-1.4,1-1.6
				c0.5-0.3,1.3-0.6,1.9-0.7c1.6-0.4,3.1-0.1,4.3,1c1.4,1.4,2.1,3.7,2,5.7c-0.1,1.1-0.4,2.3-1.4,2.9C44,126.5,42.3,125.6,41.2,124.6
				c-0.2-0.1-0.4,0.1-0.2,0.2c1.8,1.7,4.7,2.2,5.8-0.5c0.9-2.3,0.1-5.6-1.6-7.4c-1-1.1-2.4-1.6-3.8-1.4c-1.2,0.1-3.2,0.6-3.9,1.6
				c-0.8,1.1,0.4,2,0.9,2.9c0.9,1.6,1.4,3.4,2.7,4.8C41.1,125,41.4,124.7,41.2,124.6z"/>
		</g>
	</g>
</g>
<g>
	<g>
		<g>
			<path class="st0" d="M43.5,120.8c0.8,1.6,1.3,3.4,0.8,5.1c-0.1,0.2,0.3,0.3,0.3,0.1c0.5-1.8,0-3.7-0.8-5.4
				C43.7,120.5,43.4,120.6,43.5,120.8L43.5,120.8z"/>
		</g>
	</g>
</g>
<g>
	<g>
		<g>
			<path class="st0" d="M34.9,62.7c-1,5.1-2.7,10-4.2,14.9c-1.3,4.4-2.1,8.8-2.2,13.5c-0.2,8.9,2.1,17.8,6.8,25.5
				c0.1,0.2,0.4,0,0.3-0.2c-4.8-7.7-7.1-16.7-6.8-25.7c0.1-4.7,1.1-9.2,2.4-13.6c1.4-4.7,3-9.4,4-14.2C35.3,62.6,35,62.5,34.9,62.7
				L34.9,62.7z"/>
		</g>
	</g>
</g>
<g>
	<g>
		<g>
			<path class="st0" d="M63.2,67.7c-0.7,8,0.1,15.9,1.1,23.8c0.5,3.9,1.1,7.8,1.5,11.8c0.4,3.8,0.5,8.3-2.9,10.9
				c-0.2,0.1,0,0.4,0.2,0.3c2.6-1.8,3.4-5,3.4-8c-0.1-4.3-0.9-8.6-1.5-12.8c-1.1-8.6-2.1-17.3-1.3-25.9
				C63.5,67.5,63.2,67.5,63.2,67.7L63.2,67.7z"/>
		</g>
	</g>
</g>
<g>
	<g>
		<g>
			<path class="st0" d="M19.6,102.1c-0.6-0.5-1.2-1.1-1.7-1.8c-0.1-0.1-0.2-0.2-0.2-0.4c-0.1-0.4,0-0.6,0.5-0.7
				c0.4,0,0.9,0.4,1.2,0.7c0.1,0.2,0.4-0.1,0.2-0.2c-0.4-0.5-2.1-1.5-2.3-0.3c-0.1,0.4,0.2,0.9,0.4,1.2c0.5,0.6,1.1,1.2,1.7,1.7
				C19.5,102.4,19.7,102.2,19.6,102.1L19.6,102.1z"/>
		</g>
	</g>
</g>
<g>
	<g>
		<path class="st0" d="M23.3,83.6c1.5,0.2,3.6,1.7,4.6-0.2c1-1.8-1.6-3.4-2.8-4.2c-1.3-0.8-3.8-2.4-4.9-0.5c-1.1,1.8,2.9,2.7,3.7,3
			c0.2,0.1,0.3-0.2,0.1-0.2c-0.9-0.3-5.2-1.4-3.2-3.1c1.1-1,3.4,0.6,4.4,1.2c1.3,0.8,3.6,2.3,2.3,4.1c-0.8,1.2-3-0.2-4.1-0.3
			C23.1,83.4,23.1,83.6,23.3,83.6L23.3,83.6z"/>
	</g>
</g>
<g>
	<g>
		<path class="st0" d="M19.9,79.9c-0.6,2.4,1.4,3.4,3.4,3.8c0.2,0,0.2-0.2,0.1-0.2c-1.8-0.4-3.8-1.2-3.2-3.5
			C20.2,79.8,20,79.7,19.9,79.9L19.9,79.9z"/>
	</g>
</g>
<g>
	<path class="st0" d="M21.6,107.8c-0.7,0-1.3-0.7-1.3-1.7c0-0.9,0.6-1.7,1.3-1.7s1.3,0.7,1.3,1.7C23,107.1,22.4,107.8,21.6,107.8z
		 M21.6,104.7c-0.6,0-1.1,0.7-1.1,1.5c0,0.8,0.5,1.5,1.1,1.5s1.1-0.7,1.1-1.5C22.8,105.4,22.2,104.7,21.6,104.7z"/>
</g>
<g>
	<path class="st0" d="M25.5,111.7c-0.7,0-1.3-0.7-1.3-1.7c0-0.9,0.6-1.7,1.3-1.7c0.7,0,1.3,0.7,1.3,1.7
		C26.8,111,26.2,111.7,25.5,111.7z M25.5,108.6c-0.6,0-1.1,0.7-1.1,1.5c0,0.8,0.5,1.5,1.1,1.5c0.6,0,1.1-0.7,1.1-1.5
		C26.6,109.3,26.1,108.6,25.5,108.6z"/>
</g>
<g>
	<path class="st0" d="M30.9,114c-0.7,0-1.3-0.7-1.3-1.7c0-0.9,0.6-1.7,1.3-1.7s1.3,0.7,1.3,1.7C32.2,113.3,31.6,114,30.9,114z
		 M30.9,110.9c-0.6,0-1.1,0.7-1.1,1.5c0,0.8,0.5,1.5,1.1,1.5s1.1-0.7,1.1-1.5C32,111.6,31.5,110.9,30.9,110.9z"/>
</g>
<g>
	<g>
		<g>
			<path class="st0" d="M19.7,102.7c0.1,0.9,0.4,1.6,0.9,2.3c0.1,0.2,0.4-0.1,0.2-0.2c-0.5-0.6-0.8-1.3-0.8-2
				C20,102.5,19.6,102.5,19.7,102.7L19.7,102.7z"/>
		</g>
	</g>
</g>
<g>
	<g>
		<g>
			<path class="st0" d="M22.1,107.4c0.1,1,0.9,1.9,1.9,2.1c0.2,0.1,0.3-0.3,0.1-0.3c-0.9-0.2-1.6-0.9-1.7-1.8
				C22.4,107.2,22.1,107.2,22.1,107.4L22.1,107.4z"/>
		</g>
	</g>
</g>
<g>
	<g>
		<g>
			<path class="st0" d="M26.3,110.9c1.1,0.6,2.3,1.2,3.4,1.7c0.2,0.1,0.3-0.2,0.2-0.3c-1.1-0.6-2.3-1.2-3.4-1.7
				C26.3,110.6,26.1,110.9,26.3,110.9L26.3,110.9z"/>
		</g>
	</g>
</g>
<g>
	<g>
		<g>
			<path class="st0" d="M31.5,113.1c0.6,0.3,1.3,0.5,2,0.6c0.2,0,0.2-0.3,0-0.3c-0.7,0-1.3-0.2-1.9-0.5
				C31.5,112.7,31.3,113,31.5,113.1L31.5,113.1z"/>
		</g>
	</g>
</g>
<g>
	<g>
		<g>
			<path class="st0" d="M66.1,109.7c1.4-0.6,2.6-1.6,3.6-2.7c0.1-0.2-0.1-0.4-0.2-0.2c-1,1.2-2.1,2.1-3.5,2.7
				C65.8,109.5,66,109.8,66.1,109.7L66.1,109.7z"/>
		</g>
	</g>
</g>
<g>
	<g>
		<g>
			<path class="st0" d="M26.2,110.7c-0.6,0.1-1.2-0.2-1.3-0.8c-0.1-0.6,0.4-1.1,1-1.2c0.2,0,0.2-0.3,0-0.3c-0.8,0.1-1.4,0.8-1.3,1.6
				c0.1,0.8,0.9,1.3,1.7,1.1C26.4,111,26.4,110.7,26.2,110.7L26.2,110.7z"/>
		</g>
	</g>
</g>
<g>
	<g>
		<g>
			<path class="st0" d="M21.9,107.3c-0.9-0.6-1.2-1.8-0.7-2.8c0.1-0.2-0.2-0.4-0.3-0.2c-0.6,1.1-0.2,2.5,0.8,3.2
				C21.9,107.7,22.1,107.4,21.9,107.3L21.9,107.3z"/>
		</g>
	</g>
</g>
<g>
	<g>
		<g>
			<path class="st0" d="M31.6,113c-1,0.2-1.7-0.8-1.3-1.6c0.1-0.2-0.2-0.3-0.3-0.2c-0.6,1.2,0.4,2.4,1.6,2.1
				C31.9,113.3,31.8,113,31.6,113L31.6,113z"/>
		</g>
	</g>
</g>
<g>
	<g>
		<g>
			<path class="st0" d="M21,104.7c1.1-3.3,1.2-6.7,0.5-10.1c-0.1-0.2-0.4-0.1-0.3,0.1c0.8,3.3,0.6,6.7-0.5,9.9
				C20.5,104.8,20.9,104.9,21,104.7L21,104.7z"/>
		</g>
	</g>
</g>
<g>
	<g>
		<g>
			<path class="st0" d="M25.7,108.6c2.2-5.2,0.2-10.9,0.2-16.3c0-1.5,0.1-3,0.5-4.4c0.4-1.4,1.2-2.7,1.6-4.2c0.5-2.2-0.3-4.4-2-5.9
				c-0.2-0.1-0.4,0.1-0.2,0.2c1.2,1,1.9,2.3,2,3.8c0.1,1.6-0.6,3-1.2,4.4c-0.9,2.2-1.1,4.4-1,6.8c0.2,5.1,1.9,10.4-0.2,15.4
				C25.3,108.7,25.6,108.8,25.7,108.6L25.7,108.6z"/>
		</g>
	</g>
</g>
<g>
	<g>
		<g>
			<path class="st0" d="M28.8,90.8c0.3,3.6,2.3,6.8,5.2,8.9c3.4,2.5,7.7,3.4,11.9,3.4c4,0.1,8.5-0.2,12.1-2.3
				c3.8-2.2,5.7-6.6,6.4-10.7c0-0.2-0.3-0.3-0.3-0.1c-0.8,4-2.6,8.4-6.3,10.5c-3.4,1.9-7.7,2.2-11.4,2.2c-4,0-8.2-0.7-11.6-2.9
				c-3.1-2.1-5.4-5.3-5.7-9.1C29,90.5,28.7,90.5,28.8,90.8L28.8,90.8z"/>
		</g>
	</g>
</g>
<g>
	<g>
		<g>
			<path class="st0" d="M34.3,59c0.2-0.6,0.7-1,1.3-1.2c0.2-0.1,0.1-0.4-0.1-0.3c-0.7,0.2-1.3,0.7-1.5,1.4
				C33.9,59.1,34.2,59.2,34.3,59L34.3,59z"/>
		</g>
	</g>
</g>
<g>
	<g>
		<g>
			<path class="st0" d="M34.7,54.1c0.4-0.5,1-0.6,1.6-0.5c0.2,0.1,0.3-0.2,0.1-0.3c-0.7-0.2-1.5,0-1.9,0.5
				C34.4,54,34.6,54.3,34.7,54.1L34.7,54.1z"/>
		</g>
	</g>
</g>
<g>
	<g>
		<g>
			<path class="st0" d="M37.8,50.4c0.3-0.2,0.8,0,0.8,0.4c0,0.2,0.4,0.1,0.3-0.1c-0.1-0.6-0.8-0.9-1.3-0.6
				C37.4,50.3,37.6,50.5,37.8,50.4L37.8,50.4z"/>
		</g>
	</g>
</g>
<g>
	<g>
		<g>
			<path class="st0" d="M42.6,68.2c0.6-0.3,0.9-0.9,1-1.6c0-0.2-0.3-0.2-0.3,0c0,0.5-0.3,1-0.8,1.3C42.2,68,42.4,68.3,42.6,68.2
				L42.6,68.2z"/>
		</g>
	</g>
</g>
<g>
	<g>
		<g>
			<path class="st0" d="M47.6,67.9c0-0.5,0-1,0-1.4c0-0.2-0.3-0.2-0.3,0c0,0.5,0,1,0,1.4C47.3,68.1,47.6,68.1,47.6,67.9L47.6,67.9z"
				/>
		</g>
	</g>
</g>
<g>
	<g>
		<g>
			<path class="st0" d="M55.7,69.4c0.5-0.4,0.9-1,1-1.6c0-0.2-0.3-0.3-0.3-0.1c-0.1,0.6-0.4,1.1-0.9,1.4
				C55.3,69.2,55.5,69.5,55.7,69.4L55.7,69.4z"/>
		</g>
	</g>
</g>
<g>
	<g>
		<g>
			<path class="st0" d="M61,68.7c0.1-0.5,0.2-0.9,0.2-1.4c0-0.2-0.3-0.3-0.3-0.1c-0.1,0.5-0.2,0.9-0.2,1.4
				C60.7,68.8,61,68.9,61,68.7L61,68.7z"/>
		</g>
	</g>
</g>
<g>
	<g>
		<g>
			<path class="st0" d="M64.4,66.6c0.3-0.5,0.4-1.1,0-1.6c-0.1-0.2-0.4,0-0.3,0.2c0.3,0.4,0.2,0.9,0,1.3
				C64,66.6,64.3,66.7,64.4,66.6L64.4,66.6z"/>
		</g>
	</g>
</g>
<g>
	<g>
		<g>
			<path class="st0" d="M33.1,66.2c0.6,0.1,1.2,0.2,1.8,0.3c0.2,0,0.3-0.3,0.1-0.3c-0.6-0.1-1.2-0.2-1.8-0.3
				C33,65.8,32.9,66.1,33.1,66.2L33.1,66.2z"/>
		</g>
	</g>
</g>
<g>
	<g>
		<g>
			<path class="st0" d="M33.7,67.7c0.2-0.1,0.3-0.2,0.6-0.1c0.2,0.1,0.3-0.3,0.1-0.3c-0.3-0.1-0.6,0-0.9,0.2
				C33.3,67.6,33.5,67.8,33.7,67.7L33.7,67.7z"/>
		</g>
	</g>
</g>
<g>
	<g>
		<g>
			<path class="st0" d="M38.8,101.3c0,0.6-0.2,1.3-0.4,1.9c-0.1,0.2,0.2,0.4,0.3,0.2c0.3-0.6,0.5-1.3,0.5-2
				C39.2,101.1,38.8,101.1,38.8,101.3L38.8,101.3z"/>
		</g>
	</g>
</g>
<g>
	<g>
		<g>
			<path class="st0" d="M40.1,101.8c-0.2,0.3-0.1,0.7,0.1,0.9c0.1,0.2,0.4-0.1,0.2-0.2c-0.1-0.2-0.1-0.4-0.1-0.5
				C40.4,101.7,40.1,101.6,40.1,101.8L40.1,101.8z"/>
		</g>
	</g>
</g>
<g>
	<g>
		<g>
			<path class="st0" d="M64.8,106c0.7-0.1,1.3-0.2,1.8-0.6c0.2-0.1,0-0.4-0.2-0.3c-0.5,0.3-1.1,0.5-1.7,0.6
				C64.6,105.6,64.6,106,64.8,106L64.8,106z"/>
		</g>
	</g>
</g>
<g>
	<g>
		<g>
			<path class="st0" d="M65.4,107.1c0.4-0.2,0.8-0.5,1.3-0.7c0.2-0.1,0-0.4-0.2-0.3c-0.4,0.2-0.8,0.5-1.3,0.7
				C65,106.9,65.2,107.2,65.4,107.1L65.4,107.1z"/>
		</g>
	</g>
</g>
<g>
	<path class="st0" d="M46.1,65.3c-4.4,0-8.2-3-8.9-7.3c-0.4-2.3,0.2-4.6,1.6-6.6c1.4-1.9,3.5-3.2,6-3.6c5-0.8,9.6,2.4,10.4,7.2
		c0.8,4.8-2.6,9.3-7.6,10.1C47.1,65.3,46.6,65.3,46.1,65.3z M44.8,48l0,0.2c-2.3,0.4-4.3,1.6-5.7,3.4c-1.4,1.8-1.9,4-1.6,6.3
		c0.7,4.6,5.2,7.6,10,6.9c4.7-0.8,8-5.1,7.3-9.7c-0.7-4.6-5.2-7.6-10-6.9L44.8,48z"/>
</g>
<g>
	<g>
		<g>
			<path class="st0" d="M37.1,117.3c-2.4,1.1-2.9,4.2-0.8,5.9c0.6,0.5,1.4,0.9,2.1,1.3c0.7,0.5,1.3,1,2.1,1.4
				c1.1,0.6,2.3,0.8,3.4,0.1c0.2-0.1,0-0.4-0.2-0.3c-2.1,1.2-4.3-1.1-6-2.1c-1.1-0.6-2.1-1.3-2.4-2.6c-0.3-1.5,0.6-2.9,1.9-3.5
				C37.4,117.5,37.3,117.2,37.1,117.3L37.1,117.3z"/>
		</g>
	</g>
</g>
<g>
	<g>
		<g>
			<path class="st0" d="M54.1,117.1c-1.2,1.7-2.2,4.3,0.3,5.1c1.6,0.6,3.2,1.2,4.8,1.5c1.2,0.2,2.3,0.2,3.3-0.4
				c0.2-0.1,0-0.4-0.2-0.3c-1.8,1.2-4.2,0.1-6-0.5c-0.5-0.2-0.9-0.3-1.4-0.5c-0.8-0.2-1.1-0.3-1.4-1.1c-0.6-1.3,0.2-2.6,0.9-3.7
				C54.5,117.1,54.2,116.9,54.1,117.1L54.1,117.1z"/>
		</g>
	</g>
</g>
<g>
	<g>
		<g>
			<path class="st0" d="M35.2,117.1c0.1,0.5,0.3,1.1,0.4,1.6c0.1,0.2,0.4,0.1,0.3-0.1c-0.1-0.5-0.3-1.1-0.4-1.6
				C35.5,116.8,35.2,116.8,35.2,117.1L35.2,117.1z"/>
		</g>
	</g>
</g>
<g>
	<g>
		<g>
			<path class="st0" d="M52,117.9c0.4,0.4,0.8,0.7,1.2,1.1c0.2,0.1,0.4-0.1,0.2-0.2c-0.4-0.4-0.8-0.7-1.2-1.1
				C52,117.5,51.8,117.7,52,117.9L52,117.9z"/>
		</g>
	</g>
</g>
<g>
	<g>
		<g>
			<path class="st0" d="M35.6,116.9c0.7-2.2,4.5-1.5,6.1-1.2c0.2,0.1,0.3-0.3,0.1-0.3c-1.8-0.4-5.7-1-6.5,1.4
				C35.2,117,35.6,117.1,35.6,116.9L35.6,116.9z"/>
		</g>
	</g>
</g>
<g>
	<g>
		<g>
			<path class="st0" d="M51.6,117.8c1-2.6,3.9-3.3,6.3-3.8c0.2-0.1,0.1-0.4-0.1-0.3c-2.6,0.6-5.5,1.3-6.6,4.1
				C51.2,117.9,51.5,118,51.6,117.8L51.6,117.8z"/>
		</g>
	</g>
</g>
<g>
	<g>
		<g>
			<path class="st0" d="M20.3,78.8c0-1.6,1.8-1.8,2.9-1.2c0.9,0.5,1.4,1.4,1.9,2.2c0.1,0.2,0.4,0,0.3-0.2c-0.8-1.2-1.7-2.6-3.3-2.8
				c-1.2-0.1-2.2,0.7-2.2,1.9C19.9,79,20.3,79,20.3,78.8L20.3,78.8z"/>
		</g>
	</g>
</g>
<g>
	<g>
		<g>
			<path class="st0" d="M65.9,86.9c0.5-1.8,2.3-5.2,4.6-4.4c0.2,0.1,0.3-0.3,0.1-0.3c-2.5-0.8-4.5,2.7-5,4.6
				C65.5,87,65.8,87.1,65.9,86.9L65.9,86.9z"/>
		</g>
	</g>
</g>
<g>
	<g>
		<g>
			<path class="st0" d="M45.9,117.6c-1.4-2-2.4-4.2-2.9-6.6c-0.2-1.2-0.3-2.5-0.3-3.7c0-0.3,0.4-4.4,1.1-4.1
				c0.2,0.1,0.3-0.2,0.1-0.3c-1.6-0.6-1.6,5.5-1.5,6.3c0.2,3.1,1.3,6.1,3.2,8.6C45.8,117.9,46.1,117.8,45.9,117.6L45.9,117.6z"/>
		</g>
	</g>
</g>
<g>
	<g>
		<g>
			<path class="st0" d="M51.5,117.6c0.5-2.7,2.1-5.1,2.3-7.9c0.2-2.5-0.5-5-1.9-7c-0.1-0.2-0.4,0-0.3,0.2c1.5,2.3,2.2,5,1.7,7.7
				c-0.4,2.4-1.8,4.6-2.2,7C51.2,117.7,51.5,117.8,51.5,117.6L51.5,117.6z"/>
		</g>
	</g>
</g>
<g>
	<g>
		<g>
			<path class="st0" d="M21.9,107.9c-0.3,1.4-0.1,2.8,0.6,4c0.1,0.2,0.4,0,0.3-0.2c-0.6-1.2-0.8-2.5-0.6-3.8
				C22.3,107.8,21.9,107.7,21.9,107.9L21.9,107.9z"/>
		</g>
	</g>
</g>
<g>
	<g>
		<g>
			<path class="st0" d="M23.9,109.3c-0.4,1.6,0.1,3.3,1.4,4.4c0.2,0.1,0.4-0.1,0.2-0.2c-1.2-1-1.7-2.5-1.3-4
				C24.3,109.2,24,109.1,23.9,109.3L23.9,109.3z"/>
		</g>
	</g>
</g>
<g>
	<g>
		<g>
			<path class="st0" d="M25.6,113.8c0.3-0.9,0.6-1.9,0.9-2.8c0.1-0.2-0.3-0.3-0.3-0.1c-0.3,0.9-0.6,1.9-0.9,2.8
				C25.3,114,25.6,114.1,25.6,113.8L25.6,113.8z"/>
		</g>
	</g>
</g>
<g>
	<g>
		<g>
			<path class="st0" d="M29.5,112.5c-0.1,0.8-0.1,1.7,0.2,2.5c0.1,0.4,0.4,0.8,0.9,0.8c1.4,0.1,1.6-1.6,1.5-2.6c0-0.2-0.3-0.2-0.3,0
				c0.1,0.8,0,2.6-1.3,2.2c-0.5-0.2-0.6-1-0.6-1.5c-0.1-0.5-0.1-1,0-1.5C29.9,112.3,29.5,112.3,29.5,112.5L29.5,112.5z"/>
		</g>
	</g>
</g>
<g>
	<g>
		<g>
			<path class="st0" d="M67.8,109.2c0-0.2,0.1-0.4,0.1-0.7c0-0.2-0.3-0.3-0.3-0.1c-0.1,0.5-0.3,0.9-0.4,1.4c-0.1,0.3-0.3,0.7-0.3,1
				c0,0.3,0.5,0.5,0.6,0.2c0.1-0.2-0.2-0.3-0.3-0.2c0-0.1,0-0.3,0.1-0.4c0-0.1,0-0.1,0.1-0.2c0.1-0.2,0.1-0.4,0.2-0.6
				c0.1-0.4,0.2-0.8,0.3-1.1c-0.1,0-0.2-0.1-0.3-0.1c0,0.2-0.1,0.4-0.1,0.7C67.4,109.3,67.7,109.4,67.8,109.2L67.8,109.2z"/>
		</g>
	</g>
</g>
<g>
	<g>
		<g>
			<path class="st0" d="M51.8,102.9c7.5-9.4,9.2-22.8,4.2-33.7c-0.1-0.2-0.4,0-0.3,0.2c4.9,10.8,3.3,24-4.1,33.3
				C51.5,102.8,51.7,103.1,51.8,102.9L51.8,102.9z"/>
		</g>
	</g>
</g>
<g>
	<g>
		<g>
			<path class="st0" d="M43.8,102.6c-4.3-10.8-6.7-23.3-1.2-34.2c0.1-0.2-0.2-0.3-0.3-0.2c-5.5,11-3.2,23.5,1.2,34.4
				C43.5,102.8,43.9,102.8,43.8,102.6L43.8,102.6z"/>
		</g>
	</g>
</g>
<g>
	<g>
		<g>
			<path class="st0" d="M39.7,98.7c0.5,0.1,1-0.2,1.1-0.7c0.1-0.5-0.2-0.9-0.6-1c-0.4-0.1-0.9,0.1-1,0.5c-0.2,0.4,0,0.9,0.3,1.2
				c0.2,0.1,0.3-0.2,0.2-0.3c-0.5-0.3-0.2-1.2,0.4-1c0.2,0.1,0.5,0.3,0.5,0.5c0,0.3-0.4,0.6-0.7,0.5C39.6,98.4,39.5,98.7,39.7,98.7
				L39.7,98.7z"/>
		</g>
	</g>
</g>
<g>
	<g>
		<g>
			<path class="st0" d="M37.5,91.5c-0.2-0.3-0.1-0.7,0.2-1c0.3-0.3,0.8-0.1,1,0.2C39.2,91.5,38.1,92.1,37.5,91.5
				c-0.1-0.1-0.4,0.1-0.2,0.3c0.3,0.4,1,0.5,1.4,0.2c0.5-0.3,0.5-0.9,0.2-1.4c-0.3-0.5-0.9-0.6-1.4-0.3c-0.5,0.3-0.6,1-0.3,1.4
				C37.4,91.8,37.7,91.7,37.5,91.5L37.5,91.5z"/>
		</g>
	</g>
</g>
<g>
	<g>
		<g>
			<path class="st0" d="M37,85.6c-0.2-0.2-0.3-0.4-0.3-0.7c0-0.2,0.2-0.5,0.4-0.6c0.3-0.1,0.7,0.3,0.8,0.5c0.1,0.3-0.2,0.7-0.6,0.6
				c-0.2-0.1-0.3,0.2-0.1,0.3c0.4,0.2,0.9-0.2,1-0.6c0.1-0.5-0.3-1-0.8-1.1c-0.2-0.1-0.4-0.1-0.6,0.1c-0.2,0.1-0.3,0.3-0.3,0.5
				c-0.1,0.4-0.1,0.9,0.3,1.2C37,85.9,37.2,85.7,37,85.6L37,85.6z"/>
		</g>
	</g>
</g>
<g>
	<g>
		<g>
			<path class="st0" d="M37,79.6c-0.2-0.2-0.2-0.6-0.1-0.8c0.1-0.1,0.2-0.2,0.3-0.3c0.2-0.1,0.3,0,0.4,0.1c0.2,0.2,0.5,0.7,0.1,0.9
				c-0.2,0.1-0.5,0.1-0.6-0.2c0-0.2-0.3-0.1-0.3,0.1c0.1,0.5,0.6,0.6,1,0.4c0.5-0.2,0.5-0.8,0.2-1.3c-0.1-0.2-0.4-0.5-0.7-0.5
				c-0.2,0-0.5,0.2-0.6,0.3c-0.3,0.4-0.4,0.9-0.1,1.4C36.8,79.9,37.1,79.7,37,79.6L37,79.6z"/>
		</g>
	</g>
</g>
<g>
	<g>
		<g>
			<path class="st0" d="M38,72.5c-0.2-0.3-0.1-0.6,0.2-0.9c0.3-0.3,0.7-0.1,0.9,0.2C39.5,72.5,38.5,73.1,38,72.5
				c-0.1-0.1-0.3,0.2-0.2,0.3c0.3,0.4,0.9,0.4,1.3,0.1c0.4-0.3,0.5-0.9,0.2-1.3c-0.3-0.4-0.9-0.6-1.3-0.3c-0.4,0.3-0.6,0.9-0.3,1.3
				C37.8,72.9,38.1,72.7,38,72.5L38,72.5z"/>
		</g>
	</g>
</g>
<g>
	<g>
		<g>
			<path class="st0" d="M56.8,98.1c-0.3-0.3,0.1-0.9,0.4-0.5c0.4,0.3-0.1,0.8-0.5,0.6c-0.2-0.1-0.3,0.2-0.2,0.3
				c0.3,0.2,0.7,0.1,1-0.1c0.3-0.3,0.2-0.8-0.1-1c-0.3-0.2-0.7-0.2-0.9,0.1c-0.2,0.3-0.2,0.7,0.1,0.9C56.7,98.5,57,98.2,56.8,98.1
				L56.8,98.1z"/>
		</g>
	</g>
</g>
<g>
	<g>
		<g>
			<path class="st0" d="M58,93.1c-0.2-0.2,0.3-0.6,0.5-0.4S58.3,93.4,58,93.1c-0.1-0.1-0.3,0.2-0.1,0.3c0.6,0.4,1.3-0.5,0.8-1
				c-0.2-0.2-0.6-0.1-0.8,0.1c-0.2,0.2-0.3,0.6-0.1,0.8C57.9,93.5,58.2,93.3,58,93.1L58,93.1z"/>
		</g>
	</g>
</g>
<g>
	<g>
		<g>
			<path class="st0" d="M59.4,85.9c0-0.2,0.1-0.3,0.2-0.4c-0.1,0-0.1,0-0.1,0c0.2,0.1,0.5,0.5,0.3,0.7c-0.1,0.1-0.3,0.1-0.3-0.1
				c0-0.2-0.3-0.3-0.3-0.1c-0.1,0.3,0.2,0.5,0.4,0.5c0.3,0,0.6-0.2,0.6-0.5c0.1-0.3-0.2-0.8-0.5-0.9c-0.2-0.1-0.3,0.1-0.5,0.2
				c-0.1,0.1-0.2,0.3-0.2,0.5C59.1,86.1,59.4,86.1,59.4,85.9L59.4,85.9z"/>
		</g>
	</g>
</g>
<g>
	<g>
		<g>
			<path class="st0" d="M59.7,78.9c-0.1,0-0.2-0.2-0.1-0.3c0.1-0.1,0.2-0.2,0.3-0.1c0.4,0.1,0.3,0.6,0.1,0.8c0.1,0,0.1,0,0.2-0.1
				c-0.2-0.1-0.3-0.1-0.5-0.1c-0.2-0.1-0.3,0.3-0.1,0.3c0.2,0.1,0.3,0.1,0.5,0.1c0.1,0,0.1,0,0.2-0.1c0.2-0.2,0.3-0.6,0.2-0.9
				c-0.1-0.3-0.4-0.5-0.7-0.5c-0.6,0-0.8,0.9-0.2,1.1C59.8,79.3,59.9,79,59.7,78.9L59.7,78.9z"/>
		</g>
	</g>
</g>
<g>
	<g>
		<g>
			<path class="st0" d="M58.3,73c-0.1-0.2-0.1-0.4,0-0.6c0.2-0.2,0.4-0.1,0.6,0c0.2,0.2,0.2,0.4,0,0.6C58.7,73.2,58.5,73.2,58.3,73
				c-0.2-0.1-0.4,0.1-0.2,0.2c0.3,0.3,0.7,0.3,1,0c0.3-0.3,0.3-0.8,0-1c-0.3-0.3-0.8-0.3-1,0c-0.3,0.3-0.3,0.8,0,1
				C58.2,73.4,58.4,73.2,58.3,73L58.3,73z"/>
		</g>
	</g>
</g>
<g>
	<g>
		<g>
			<path class="st0" d="M39.4,68.5c-0.3,0.7-0.6,1.4-0.9,2.2c-0.1,0.2,0.2,0.3,0.3,0.1c0.3-0.7,0.6-1.4,0.9-2.2
				C39.8,68.4,39.5,68.3,39.4,68.5L39.4,68.5z"/>
		</g>
	</g>
</g>
<g>
	<g>
		<g>
			<path class="st0" d="M38,74c-0.2,1-0.4,1.9-0.7,2.9c-0.1,0.2,0.3,0.3,0.3,0.1c0.2-1,0.4-1.9,0.7-2.9C38.4,73.9,38.1,73.8,38,74
				L38,74z"/>
		</g>
	</g>
</g>
<g>
	<g>
		<g>
			<path class="st0" d="M37,80.8c-0.2,0.8-0.2,1.6-0.2,2.4c0,0.2,0.3,0.2,0.3,0c-0.1-0.8,0-1.5,0.2-2.3C37.3,80.7,37,80.6,37,80.8
				L37,80.8z"/>
		</g>
	</g>
</g>
<g>
	<g>
		<g>
			<path class="st0" d="M37,87.1c0.1,0.8,0.2,1.6,0.4,2.3c0,0.2,0.3,0.1,0.3-0.1c0-0.1,0-0.1,0-0.2c0-0.2-0.3-0.2-0.3,0
				c0,0.1,0,0.1,0,0.2c0.1,0,0.2,0,0.3-0.1c-0.1-0.8-0.2-1.6-0.4-2.3C37.2,86.8,36.9,86.9,37,87.1L37,87.1z"/>
		</g>
	</g>
</g>
<g>
	<g>
		<g>
			<path class="st0" d="M38.2,92.6c0.2,1.3,0.4,2.5,0.8,3.8c0.1,0.2,0.4,0.1,0.3-0.1c-0.3-1.2-0.6-2.4-0.8-3.7
				C38.5,92.4,38.1,92.4,38.2,92.6L38.2,92.6z"/>
		</g>
	</g>
</g>
<g>
	<g>
		<g>
			<path class="st0" d="M40.4,99.5c0.1,0.6,0.4,1.3,0.7,1.8c0.1,0.2,0.4,0,0.3-0.2c-0.3-0.5-0.6-1.1-0.7-1.7
				C40.6,99.1,40.3,99.3,40.4,99.5L40.4,99.5z"/>
		</g>
	</g>
</g>
<g>
	<g>
		<g>
			<path class="st0" d="M57.5,70.4c0.1,0.3,0.1,0.7,0.2,1.1c0,0.2,0.4,0.1,0.3-0.1c-0.1-0.3-0.1-0.7-0.2-1.1
				C57.8,70,57.5,70.1,57.5,70.4L57.5,70.4z"/>
		</g>
	</g>
</g>
<g>
	<g>
		<g>
			<path class="st0" d="M58.7,74.1c0.2,1,0.4,2,0.7,3.1c0.1,0.2,0.4,0.1,0.3-0.1c-0.2-1-0.4-2-0.7-3.1C59,73.8,58.7,73.9,58.7,74.1
				L58.7,74.1z"/>
		</g>
	</g>
</g>
<g>
	<g>
		<g>
			<path class="st0" d="M59.7,80.1c-0.1,1.6-0.2,3.1-0.3,4.7c0,0.2,0.3,0.2,0.3,0c0.1-1.6,0.2-3.1,0.3-4.7
				C60.1,79.9,59.8,79.9,59.7,80.1L59.7,80.1z"/>
		</g>
	</g>
</g>
<g>
	<g>
		<g>
			<path class="st0" d="M59.2,88.3c-0.3,1.2-0.5,2.5-0.8,3.7c-0.1,0.2,0.3,0.3,0.3,0.1c0.3-1.2,0.5-2.5,0.8-3.7
				C59.5,88.2,59.2,88.1,59.2,88.3L59.2,88.3z"/>
		</g>
	</g>
</g>
<g>
	<g>
		<g>
			<path class="st0" d="M57.1,94.8c0.1,0.6,0,1.2-0.3,1.7c-0.1,0.2,0.2,0.3,0.3,0.2c0.3-0.6,0.5-1.2,0.4-1.9
				C57.4,94.5,57.1,94.6,57.1,94.8L57.1,94.8z"/>
		</g>
	</g>
</g>
<g>
	<g>
		<g>
			<path class="st0" d="M55.9,100c0,0.3-0.1,0.7-0.3,0.9c0.1,0.1,0.2,0.1,0.3,0.2c0.1-0.2,0.2-0.3,0.3-0.5c0.1-0.2-0.2-0.3-0.3-0.2
				c-0.1,0.2-0.2,0.3-0.3,0.5c-0.1,0.2,0.2,0.3,0.3,0.2c0.2-0.3,0.3-0.7,0.3-1.1C56.2,99.7,55.9,99.7,55.9,100L55.9,100z"/>
		</g>
	</g>
</g>
<g>
	<g>
		<g>
			<path class="st0" d="M34.8,115.1c2.5-1.6,5.5-2,8.3-1.2c0.2,0.1,0.2-0.1,0.2-0.2c-1.1-2.6-5.6-1.2-7.6-0.8
				c-0.4,0.1-1.2,0.4-1.5,0.3c0.1-0.5,0.1-0.9,0.2-1.3c0.3-0.2,0.6-0.3,0.9-0.4c0.9-0.3,1.8-0.2,2.8-0.1c1.1,0.1,3.4,0.9,4.3,0
				c0.4-0.4,0.4-0.9,0-1.2c-0.2-0.2-0.6-0.2-0.9-0.3c-1.1-0.2-2.3-0.2-3.4-0.1c-0.7,0-1.3,0.1-2,0.2c-0.5,0.1-1,0.2-1.4,0.3
				c-0.4,0.1-1.2,0.5-1.6,0.3c-1.6-0.5,0.3-1.5,0.6-1.7c0.5-0.2,1-0.4,1.5-0.5c1.2-0.2,2.3-0.1,3.5,0.1c0.9,0.1,2.7,0.9,3.6,0.4
				c0.8-0.5,0.3-1.4-0.2-1.8c-1-0.7-2.4-0.7-3.5-0.6c-0.8,0.1-1.6,0.2-2.4,0.4c-0.9,0.2-2,0.7-2.9,0.8c-0.2,0.1-0.3,0.1-0.5,0.2
				c-0.8-0.8-0.8-1.4-0.1-1.7c0.4-0.3,1-0.5,1.5-0.6c0.8-0.2,1.7-0.2,2.5-0.2c1,0.1,2,0.2,3,0.5c0.7,0.2,1.6,0.5,2.4,0.2
				c0.5-0.2,1-0.9,0.8-1.4c-0.3-1-2-0.8-2.7-0.8c-2.1,0-4.3,0.3-6.4-0.2c-1.1-0.2-2.1-0.7-3-1.4c-0.3-0.3-0.7-0.6-0.8-0.9
				c-0.7-1.9,1-1.6,1.9-1.3c1.9,0.7,3.6,1.9,5.5,2.6c1.8,0.6,3.7,0.9,5.6,0.5c0.2-0.1,0.1-0.4-0.1-0.3c-2.3,0.5-4.6-0.1-6.7-1
				c-1.7-0.8-3.3-2-5.1-2.3c-0.8-0.1-1.7-0.1-1.8,0.8c-0.1,1,0.9,2,1.6,2.5c2.8,2.1,6.5,1.3,9.8,1.4c0.2,0,0.3,0,0.5,0
				c1.3-0.1,1.2,0.5-0.5,1.6c-0.3,0-1-0.2-1.3-0.3c-0.6-0.1-1.2-0.2-1.8-0.3c-1.6-0.2-3.2-0.1-4.7,0.6c-0.7,0.3-1.9,1-1.6,2
				c0.3,1.2,1.8,0.4,2.5,0.2c2-0.6,4.1-1.1,6.2-1c0.5,0,2,0.2,2.2,0.7c-0.2,0.4-0.4,0.8-0.6,1.2c-0.4-0.1-0.9-0.1-1.3-0.2
				c-1-0.2-2-0.4-2.9-0.5c-1.4-0.1-2.8,0.1-4,0.8c-0.5,0.3-1.5,1-1,1.8c0.5,0.8,2,0.1,2.6,0c1.1-0.2,2.2-0.4,3.4-0.5
				c0.5,0,1,0,1.5,0c0.4,0,1.9-0.1,2.2,0.2c-0.1,0.3-0.2,0.7-0.3,1.1c-0.3,0-0.6,0-1,0c-0.6-0.1-1.3-0.2-1.9-0.2
				c-0.9-0.1-1.8-0.2-2.7-0.1c-0.8,0.1-2.6,0.7-2.5,1.8c0.2,2.2,8.4-2.3,9.8,1c0.1-0.1,0.1-0.2,0.2-0.2c-2.9-0.8-6-0.3-8.6,1.2
				C34.4,114.9,34.6,115.2,34.8,115.1L34.8,115.1z"/>
		</g>
	</g>
</g>
<g>
	<g>
		<g>
			<path class="st0" d="M52.3,115.3c0-0.3,0.6-0.9,0.8-1c0.3-0.2,0.7-0.3,1-0.5c0.5-0.2,1.1-0.4,1.6-0.6c1.1-0.4,2.3-0.6,3.5-0.5
				c1.4,0.1,3.3,1.6,4.7,0.6c0.7-0.5,0.8-1.3,0.2-2c-1-1-3.1-1.1-4.5-1c-0.9,0.1-1.7,0.2-2.5,0.5c-0.7,0.2-2.2,1.1-2.9,0.8
				c-0.1-0.1-0.2-0.2-0.2-0.3c-0.3-0.2-0.3-0.3-0.1-0.5c0.1-0.1,0.4-0.2,0.5-0.3c0.5-0.2,0.9-0.5,1.4-0.6c1-0.3,2.1-0.5,3.2-0.6
				c1.8-0.1,3.5,0.4,5.2,0.7c0.6,0.1,1.8,0,1.6-1c-0.2-1-2.1-1.3-2.9-1.3c-1.8-0.2-3.7,0.1-5.5,0.4c-0.6,0.1-1.1,0.2-1.7,0.3
				c-0.6,0.1-0.7,0.3-0.9-0.4c-0.3-0.8,0-0.6,0.7-0.9c1.2-0.4,2.4-0.6,3.7-0.6c1.8,0.1,3.7,1,5.5,0.6c0.6-0.1,1.6-0.7,1.2-1.5
				c-0.2-0.3-0.5-0.4-0.8-0.4c-0.9-0.2-2-0.2-2.9-0.2c-2-0.1-4-0.1-6,0.3c-0.5,0.1-0.9,0.2-1.4,0.4c0,0-0.5,0.2-0.6,0.2
				c0-0.2,0-0.4,0.1-0.6c-0.2-0.4-0.1-0.6,0.3-0.6c0.8-0.5,2.7-0.4,3.7-0.3c2.2,0,4.5,0.3,6.6-0.3c0.5-0.2,1.7-0.8,1-1.4
				c-0.5-0.5-1.8-0.3-2.4-0.3c-1.1,0-2.1,0.1-3.2,0.3c-2.5,0.4-5.4,1.8-7.9,0.9c0,0.1,0,0.2,0,0.3c2.3-1.4,5.1-1.5,7.7-1.9
				c1.3-0.2,2.7-0.3,4-0.6c0.5-0.1,1.2-0.1,1.5-0.6c0.5-1-1.2-1.7-1.9-1.8c-2-0.2-3.6,1.2-5.4,1.6c0.1,0.1,0.1,0.2,0.2,0.3
				c1.1-1.2,2.4-2.2,3.9-2.8c0.8-0.3,2.1-0.5,2.6-1.2c0.3-0.5,0.2-0.9-0.2-1.3c-0.8-0.8-1.9-0.1-2.6,0.5c-0.2,0.1,0,0.4,0.2,0.3
				c0.2-0.1,0.3-0.3,0.5-0.4c0.5-0.4,1-0.1,1.4,1.1c-0.2,0.2-0.8,0.3-1,0.4c-0.6,0.2-1.2,0.4-1.7,0.7c-1.2,0.6-2.3,1.5-3.2,2.5
				c-0.1,0.1,0,0.3,0.2,0.3c1.5-0.3,2.8-1.3,4.3-1.5c0.5-0.1,1.2-0.1,1.7,0.1c0.6,0.2,1.4,1,0.5,1.5c-0.6,0.3-1.9,0.3-2.7,0.4
				c-3.2,0.5-6.9,0.5-9.8,2.2c-0.1,0.1-0.1,0.3,0,0.3c2.6,1,5.5-0.5,8-0.9c0.8-0.1,1.6-0.2,2.4-0.2c0.8,0,1.8-0.3,2.2,0.5
				c0.5,0.8-0.2,0.6-0.9,0.8c-0.4,0.1-0.9,0.1-1.3,0.2c-0.8,0.1-1.6,0.1-2.4,0.1c-1.4,0-2.8-0.1-4.2,0.1c-0.9,0.1-2.2,0.2-2.8,0.9
				c-0.2,0.3-0.3,0.6-0.1,1c0.4,0.6,1.4,0.1,1.9,0c1.5-0.5,3.1-0.6,4.7-0.7c0.7,0,1.4,0,2.2,0.1c0.2,0,2.5,0,2.7,0.2
				c-0.1,0.2-0.1,0.5-0.2,0.7c0.1,0.6-0.1,0.8-0.6,0.7c-0.2,0.1-1.4-0.2-1.3-0.1c-0.7-0.1-1.4-0.3-2.1-0.4c-1.2-0.2-2.4-0.2-3.6,0.1
				c-0.6,0.1-4.2,1-2.8,2.2c0.5,0.5,1.5,0.2,2.1,0.1c1.6-0.3,3.3-0.7,5-0.8c0.9,0,1.8,0,2.8,0.2c0.8,0.2,1.1,0.1,1.2,0.9
				c0.1,1-0.5,0.6-1.2,0.5c-1.3-0.3-2.6-0.5-4-0.6c-2.5-0.1-5,0.6-7,2.2c-0.1,0.1-0.1,0.2,0,0.2c1.2,1,2.6,0.3,3.9-0.2
				c1.3-0.5,2.6-0.7,4-0.6c0.7,0.1,1.5,0.2,2.2,0.4c1.2,0.2,1.1,1-0.1,2.2c-0.4,0-0.8-0.1-1.1-0.2c-1-0.3-1.9-0.7-3-0.7
				c-1.1,0-2.1,0.2-3.1,0.6c-1.1,0.3-3.7,0.9-3.7,2.4C51.9,115.5,52.3,115.5,52.3,115.3L52.3,115.3z"/>
		</g>
	</g>
</g>
<g>
	<g>
		<g>
			<path class="st0" d="M21.1,106.4c-0.1-0.2-0.1-0.4,0.1-0.6c0.2-0.2,0.5-0.1,0.7,0.1c0.1,0.2,0.1,0.6-0.3,0.6
				c-0.3,0-0.2-0.4,0-0.3c0.2,0.1,0.3-0.2,0.1-0.3c-0.5-0.2-0.8,0.5-0.5,0.8c0.4,0.4,1,0,1.1-0.5c0.1-0.5-0.5-1-1-0.8
				c-0.5,0.2-0.6,0.8-0.4,1.2C20.9,106.7,21.2,106.5,21.1,106.4L21.1,106.4z"/>
		</g>
	</g>
</g>
<g>
	<g>
		<g>
			<path class="st0" d="M25.3,110c0.1-0.4,0.4-0.7,0.8-0.6c-0.1,0-0.1-0.1-0.1-0.1c0.1,0.1,0.3,0.4,0.2,0.6c0,0.1-0.1,0.1-0.1,0.1
				c0,0-0.1,0-0.1-0.1c0.1-0.2-0.2-0.4-0.3-0.2c-0.1,0.3,0.1,0.5,0.4,0.5c0.4,0,0.6-0.3,0.5-0.6c0-0.2-0.1-0.4-0.3-0.5
				c-0.1-0.1-0.4-0.1-0.5,0c-0.4,0.1-0.7,0.5-0.7,0.8C24.9,110.1,25.2,110.2,25.3,110L25.3,110z"/>
		</g>
	</g>
</g>
<g>
	<g>
		<g>
			<path class="st0" d="M30.7,112.1c0-0.2,0.3-0.3,0.5-0.2c0.2,0.2-0.2,0.5-0.3,0.4c0,0.1,0,0.2,0.1,0.2c0.1-0.2,0.2-0.3,0.3-0.5
				c0.1-0.2-0.2-0.3-0.3-0.2c-0.1,0.2-0.2,0.3-0.3,0.5c-0.1,0.1,0,0.2,0.1,0.2c0.5,0.3,1.2-0.4,0.8-0.9c-0.2-0.2-0.5-0.2-0.7-0.1
				s-0.4,0.3-0.3,0.6C30.4,112.4,30.7,112.3,30.7,112.1L30.7,112.1z"/>
		</g>
	</g>
</g>
<g>
	<g>
		<g>
			<path class="st0" d="M36.2,122.6c-0.1-1.4,0.3-2.8,1.3-3.8c0.1-0.2-0.1-0.4-0.2-0.2c-1,1.1-1.5,2.5-1.4,4.1
				C35.9,122.8,36.2,122.8,36.2,122.6L36.2,122.6z"/>
		</g>
	</g>
</g>
<g>
	<g>
		<g>
			<path class="st0" d="M37.6,123.8c-0.2-1,0.1-2.1,0.8-2.9c0.1-0.2-0.1-0.4-0.2-0.2c-0.8,0.9-1.1,2-0.9,3.2
				C37.4,124.1,37.7,124,37.6,123.8L37.6,123.8z"/>
		</g>
	</g>
</g>
<g>
	<g>
		<g>
			<path class="st0" d="M39.2,124.7c-0.4-0.5-0.1-1.3,0.5-1.4c0.2-0.1,0.1-0.4-0.1-0.3c-0.9,0.2-1.2,1.3-0.6,2
				C39.1,125.1,39.3,124.8,39.2,124.7L39.2,124.7z"/>
		</g>
	</g>
</g>
<g>
	<g>
		<g>
			<path class="st0" d="M55.4,122.2c-0.5-1.2-0.4-2.4,0.1-3.5c0.1-0.2-0.2-0.4-0.3-0.2c-0.6,1.2-0.7,2.5-0.2,3.7
				C55.2,122.5,55.5,122.4,55.4,122.2L55.4,122.2z"/>
		</g>
	</g>
</g>
<g>
	<g>
		<g>
			<path class="st0" d="M57.8,123.2c-0.5-0.7-0.5-1.6,0.1-2.2c0.1-0.2-0.1-0.4-0.2-0.2c-0.7,0.8-0.7,1.9-0.1,2.7
				C57.7,123.6,58,123.4,57.8,123.2L57.8,123.2z"/>
		</g>
	</g>
</g>
<g>
	<g>
		<g>
			<path class="st0" d="M31.3,53.8c-1.5-2.8-2.4-7.3,1.3-8.8c0.2-0.1,0.1-0.4-0.1-0.3C28.6,46.3,29.4,51,31,54
				C31.2,54.2,31.4,54,31.3,53.8L31.3,53.8z"/>
		</g>
	</g>
</g>
<g>
	<g>
		<g>
			<path class="st0" d="M51,49c-0.8-1.7-1.8-4.6,0.6-5.6c0.2-0.1,0.1-0.4-0.1-0.3c-2.6,1.1-1.7,4.1-0.8,6.1
				C50.8,49.4,51.1,49.2,51,49L51,49z"/>
		</g>
	</g>
</g>
<g>
	<g>
		<g>
			<path class="st0" d="M32.7,53.1c-0.6-0.9-1.2-2-1.2-3.1c0-1.3,1-2.6,2.4-2.6c0.2,0,0.2-0.3,0-0.3c-1.2,0-2.1,0.8-2.5,1.9
				c-0.5,1.5,0.2,3.1,1.1,4.3C32.6,53.5,32.9,53.3,32.7,53.1L32.7,53.1z"/>
		</g>
	</g>
</g>
<g>
	<g>
		<g>
			<path class="st0" d="M35.5,47.7c0.8,0.2,1.3,0.8,1.4,1.5c0,0.2,0.4,0.1,0.3-0.1c-0.2-0.9-0.8-1.6-1.7-1.8
				C35.3,47.4,35.3,47.7,35.5,47.7L35.5,47.7z"/>
		</g>
	</g>
</g>
<g>
	<g>
		<g>
			<path class="st0" d="M52.8,48.9c-1-1.8,0-3.9,2-4.2c0.2,0,0.1-0.3-0.1-0.3c-2.2,0.3-3.3,2.7-2.2,4.7C52.7,49.3,53,49.1,52.8,48.9
				L52.8,48.9z"/>
		</g>
	</g>
</g>
<g>
	<g>
		<g>
			<path class="st0" d="M53.9,48.8c-0.1-0.7-0.1-1.6,0.5-2.1c0.6-0.5,1.6-0.6,2,0.2c0.4,0.8-0.2,1.3-0.9,1.5c-0.5,0.1-1-0.2-0.9-0.8
				c0.1-0.3,0.4-0.4,0.7-0.3c0.3,0.1,0.2,0.6,0,0.3c-0.1-0.2-0.4,0-0.3,0.2c0.4,0.6,1.4-0.1,0.8-0.6c-0.8-0.6-1.8,0.2-1.4,1.1
				c0.4,1,2,0.5,2.4-0.3c0.5-1-0.4-2-1.4-2c-1.5,0.1-2,1.7-1.8,2.9C53.6,49.1,53.9,49,53.9,48.8L53.9,48.8z"/>
		</g>
	</g>
</g>
<g>
	<g>
		<g>
			<path class="st0" d="M33.7,52.4c-0.6-1.1-1-2.9,0.4-3.5c0.7-0.3,1.6,0,1.7,0.8c0.1,0.4-0.1,0.8-0.4,1c-0.2,0.1-0.4,0.2-0.6,0.1
				c-0.6-0.2-0.6-0.4-0.1-0.6c-0.2,0.1-0.1,0.4,0.1,0.3c1.1-0.3-0.1-1.8-0.8-0.8c-0.7,1.2,1.3,1.8,2,0.9c0.9-1.2-0.6-2.5-1.8-2.1
				c-1.8,0.5-1.5,2.8-0.8,4.1C33.5,52.7,33.8,52.6,33.7,52.4L33.7,52.4z"/>
		</g>
	</g>
</g>
<g>
	<g>
		<g>
			<path class="st0" d="M32.7,94.6c-0.9-2.3-1.3-4.7-1.3-7.2c0-1.2,0.2-2.4,0.5-3.6c0.2-0.8,0.8-4.2,2.1-2.9
				c0.3,0.3,0.3,1.5,0.3,1.9c0.1,0.6,0.1,1.3,0.1,1.9c0,1.1,0,2.3-0.1,3.4c-0.1,1.2-0.1,2.3-0.2,3.5c0,0.7-0.1,1.3-0.1,2
				c0,0.4,0,0.7-0.1,1.1c-0.9,0.4-1.4,0.3-1.5-0.3c-0.1-0.2-0.4-0.1-0.3,0.1c0.2,0.7,0.7,1.7,1.6,1.2c0.8-0.4,0.7-1.8,0.7-2.5
				c0.2-3.9,0.8-8-0.1-11.8c-0.2-0.7-0.4-1.6-1.3-1.2c-1.1,0.6-1.4,3-1.7,4.1c-0.7,3.5-0.4,7.2,0.9,10.5
				C32.4,94.9,32.8,94.8,32.7,94.6L32.7,94.6z"/>
		</g>
	</g>
</g>
<g>
	<g>
		<g>
			<path class="st0" d="M33.6,97.1c-0.2,0.4-0.3,1.1,0.3,1.3c0.3,0.1,0.8,0,1-0.2c0.3-0.3,0.2-0.8-0.1-1.1c-0.3-0.3-0.8-0.4-1.2-0.2
				c-0.2,0.1,0,0.4,0.2,0.3c0.3-0.1,0.6-0.1,0.8,0.1c0.2,0.2,0.3,0.5,0.1,0.7c-0.1,0.1-0.4,0.2-0.6,0.2c-0.4-0.1-0.2-0.6-0.1-0.9
				C34,97,33.7,96.9,33.6,97.1L33.6,97.1z"/>
		</g>
	</g>
</g>
<g>
	<g>
		<g>
			<path class="st0" d="M77.3,42.7c0.5-0.5,1.2-0.6,1.9-0.3c0.2,0.1,0.3-0.2,0.1-0.3c-0.8-0.3-1.6-0.1-2.2,0.5
				C76.9,42.5,77.2,42.8,77.3,42.7L77.3,42.7z"/>
		</g>
	</g>
</g>
<g>
	<g>
		<g>
			<path class="st0" d="M17.6,99.4c-0.4-1.3,1.8-1,2.5-1.1c0.2,0,0.1-0.3-0.1-0.3c-0.8,0.1-1.6-0.1-2.3,0.3
				c-0.4,0.3-0.6,0.7-0.5,1.2C17.3,99.7,17.7,99.6,17.6,99.4L17.6,99.4z"/>
		</g>
	</g>
</g>
<g>
	<g>
		<g>
			<path class="st0" d="M24.9,79.9c1.5,1.2,1,3.4-0.8,3.9c-0.2,0.1-0.1,0.3,0.1,0.3c1.2,0,2.8-0.2,3.2-1.6c0.3-1.2-0.8-2.2-1.7-2.8
				c-0.2-0.1-0.3,0.2-0.2,0.3c0.8,0.5,1.8,1.3,1.6,2.4c-0.3,1.2-1.8,1.4-2.9,1.4c0,0.1,0,0.2,0.1,0.3c2.1-0.5,2.7-3.1,1-4.4
				C24.9,79.5,24.7,79.7,24.9,79.9L24.9,79.9z"/>
		</g>
	</g>
</g>
<g>
	<g>
		<g>
			<path class="st0" d="M66.5,85.3c-0.4,0.7-0.7,1.7-0.2,2.4c0.4,0.6,1.2,0.8,1.8,0.5c0.1-0.1,0.1-0.2,0-0.3
				c-1.2-1.1-1.2-3.1,0.1-4.2c0.2-0.1-0.1-0.4-0.2-0.2c-1.4,1.2-1.4,3.4-0.1,4.7c0-0.1,0-0.2,0-0.3c-0.7,0.3-1.4-0.1-1.6-0.8
				c-0.2-0.6,0.1-1.2,0.4-1.6C66.9,85.3,66.7,85.1,66.5,85.3L66.5,85.3z"/>
		</g>
	</g>
</g>
<g>
	<g>
		<g>
			<path class="st0" d="M45,116.8c2.2,0.2,4.3,0.1,6.5-0.3c0.2,0,0.1-0.3-0.1-0.3c-2.1,0.4-4.2,0.5-6.4,0.3
				C44.8,116.4,44.8,116.8,45,116.8L45,116.8z"/>
		</g>
	</g>
</g>
<g>
	<g>
		<g>
			<path class="st0" d="M42.3,124.6c0-0.3,0.4-0.5,0.7-0.5c0.2,0,0.3,0.2,0.2,0.3c-0.2,0.2-0.6,0.1-0.6-0.2c0-0.2-0.3-0.2-0.3,0
				c0.1,0.4,0.4,0.8,0.9,0.7c0.3-0.1,0.8-0.6,0.4-0.9c-0.5-0.5-1.5-0.1-1.5,0.6C41.9,124.8,42.3,124.8,42.3,124.6L42.3,124.6z"/>
		</g>
	</g>
</g>
<g>
	<g>
		<g>
			<path class="st0" d="M45.3,124.1c-0.1-0.2,0.2-0.5,0.4-0.3C45.8,124,45.4,124.3,45.3,124.1c-0.2-0.2-0.4,0-0.3,0.2
				c0.4,0.5,1.3-0.2,0.9-0.7c-0.4-0.5-1.3,0.2-0.9,0.7C45.2,124.5,45.4,124.3,45.3,124.1L45.3,124.1z"/>
		</g>
	</g>
</g>
<g>
	<g>
		<g>
			<path class="st0" d="M61.1,122.3c0.1-0.2,0.2-0.5,0.5-0.6c0.2-0.1,0.6,0,0.5,0.3c0.1-0.1,0.1-0.1,0.2-0.1c-0.4,0-0.8,0.1-1.2,0.1
				C60.8,122,60.8,122.4,61.1,122.3c0.3,0,0.7-0.1,1.1-0.1c0.1,0,0.1-0.1,0.2-0.1c0.1-0.4-0.2-0.8-0.6-0.8c-0.5,0-0.8,0.4-1,0.8
				C60.7,122.4,61,122.5,61.1,122.3L61.1,122.3z"/>
		</g>
	</g>
</g>
<g>
	<g>
		<g>
			<path class="st0" d="M63.7,121.5c-0.1-0.2,0.1-0.7,0.4-0.6c0.2,0,0.4,0.4,0.2,0.5c0.1,0,0.1,0,0.2,0c-0.2-0.1-0.3-0.2-0.5-0.3
				c-0.2-0.1-0.3,0.2-0.2,0.3c0.2,0.1,0.3,0.2,0.5,0.3c0.1,0,0.1,0,0.2,0c0.4-0.3,0.2-1-0.2-1.1c-0.6-0.2-1,0.5-0.8,1
				C63.5,121.8,63.8,121.7,63.7,121.5L63.7,121.5z"/>
		</g>
	</g>
</g>
<g>
	<g>
		<g>
			<path class="st0" d="M21.9,78.9c-0.2-0.2-0.6-0.2-0.8-0.1c-0.1,0.1-0.2,0.2-0.2,0.3c0,0.1,0.1,0.3,0.2,0.3
				c0.5,0.4,1.2,0.2,1.4-0.4c0-0.1,0-0.1-0.1-0.2c-0.2-0.1-0.3-0.3-0.5-0.4c-0.2-0.1-0.3,0.2-0.2,0.3c0.2,0.1,0.3,0.3,0.5,0.4
				c0-0.1-0.1-0.1-0.1-0.2c-0.2,0.4-0.8,0.4-1,0.1c0,0.1,0,0.1,0,0.2c0.1-0.2,0.4-0.3,0.5-0.1C21.8,79.3,22.1,79.1,21.9,78.9
				L21.9,78.9z"/>
		</g>
	</g>
</g>
<g>
	<g>
		<g>
			<path class="st0" d="M71.4,84.8c-0.3-0.1-0.7,0.1-0.9,0.3c-0.1,0.1-0.2,0.3-0.1,0.5s0.3,0.2,0.4,0.2c0.3,0,0.6-0.1,0.8-0.5
				c0.1-0.3,0-0.7-0.3-0.9c-0.2-0.1-0.3,0.2-0.2,0.3c0.2,0.1,0.2,0.4,0.1,0.6c-0.1,0.2-0.4,0.2-0.6,0c0,0.1,0.1,0.1,0.1,0.1
				c0-0.3,0.3-0.5,0.5-0.4C71.6,85.2,71.7,84.9,71.4,84.8L71.4,84.8z"/>
		</g>
	</g>
</g>
<g>
	<g>
		<g>
			<path class="st0" d="M68.7,110.2c1.5-0.1,3-0.1,4.5-0.2c0.2,0,0.2-0.3,0-0.3c-1.5,0.1-3,0.1-4.5,0.2
				C68.5,109.9,68.5,110.2,68.7,110.2L68.7,110.2z"/>
		</g>
	</g>
</g>
<g>
	<g>
		<g>
			<path class="st0" d="M13.2,111.4c2.8-0.2,5.6-0.3,8.4-0.2c0.2,0,0.2-0.3,0-0.3c-2.8-0.1-5.6,0-8.4,0.2
				C13,111.1,13,111.4,13.2,111.4L13.2,111.4z"/>
		</g>
	</g>
</g>
<g>
	<g>
		<g>
			<path class="st0" d="M55.2,42.5c-0.1-2.7-0.3-5.4-0.7-8.1c-0.4-2.7-1.8-6.2-0.4-8.8c1.2-2.1,3.8-2.9,5.9-3.4c3-0.7,6-1.2,9-1.5
				c11.3-1.2,22.9-0.8,34.3-0.3c2.9,0.1,5.8,0.3,8.6,0.6c3.1,0.3,6.1,0.8,7.4,4c2,5.1,2.8,10.9,3.4,16.3c0.6,5.6,0.7,11.2,0.7,16.8
				c0,1.3,0,2.7,0,4c0,1.4,0.2,3-0.1,4.4c-0.4,1.6-2.3,2-3.6,2.4c-1.4,0.5-2.9,0.9-4.3,1.3c-6.1,1.6-12.4,2.5-18.7,2.7
				c-6.5,0.2-13.1-0.8-19.5,0c-0.2,0-0.2,0.3,0,0.3c6.3-0.7,12.7,0.2,19,0.1c6-0.1,12-0.9,17.9-2.3c2.6-0.6,5.4-1.3,7.9-2.4
				c2.3-1,1.8-3.4,1.8-5.6c0.1-6.1,0.1-12.2-0.3-18.3c-0.4-6-1.3-12-3-17.7c-0.6-2.2-1.4-4.2-3.6-5.2c-2.2-1-5-1-7.4-1.2
				c-6.4-0.5-12.9-0.6-19.3-0.7c-6.3-0.1-12.7-0.1-19,0.5c-3.3,0.3-6.6,0.8-9.9,1.4c-2.3,0.5-4.9,1-6.6,2.8c-1.9,2-1.5,4.7-1,7.2
				c0.7,3.6,1.2,7.3,1.2,11C54.9,42.7,55.2,42.7,55.2,42.5L55.2,42.5z"/>
		</g>
	</g>
</g>
<g>
	<g>
		<g>
			<path class="st0" d="M65,73.4c1.3,0.4,2.7,0.5,4.1,0.4c1.6-0.2,3.2-0.9,4.8-0.5c0.2,0.1,0.3-0.3,0.1-0.3
				c-1.2-0.3-2.3-0.1-3.5,0.2c-1.8,0.4-3.6,0.4-5.4-0.1C64.9,73,64.7,73.3,65,73.4L65,73.4z"/>
		</g>
	</g>
</g>
<g>
	<g>
		<g>
			<path class="st0" d="M64.6,75.7c2.9-0.1,5.9-0.3,8.8-0.7c0.2,0,0.1-0.3-0.1-0.3c-2.9,0.4-5.8,0.7-8.7,0.7
				C64.4,75.3,64.4,75.7,64.6,75.7L64.6,75.7z"/>
		</g>
	</g>
</g>
<g>
	<g>
		<g>
			<path class="st0" d="M76,75.5c9.9-0.1,19.8-0.4,29.7-0.9c4.9-0.3,9.9-0.4,14.7-1c3.7-0.5,2.4-3.9,3.1-6.6
				c0.1-0.2-0.3-0.3-0.3-0.1c-0.3,1.5,0,3-0.3,4.5c-0.6,2.4-4.2,2-6.2,2.2c-4.5,0.3-9,0.6-13.5,0.9c-9,0.5-18,0.7-27.1,0.8
				C75.8,75.2,75.8,75.5,76,75.5L76,75.5z"/>
		</g>
	</g>
</g>
<g>
	<g>
		<g>
			<path class="st0" d="M53.2,42c-1.8-5.7-2.7-11.6-2.7-17.6c0-0.2-0.3-0.2-0.3,0c0,6,0.9,12,2.8,17.7C53,42.3,53.3,42.2,53.2,42
				L53.2,42z"/>
		</g>
	</g>
</g>
<g>
	<g>
		<g>
			<path class="st0" d="M55.2,20c18.5-2.3,37.2-3.8,55.9-4.4c0.2,0,0.2-0.3,0-0.3c-18.7,0.7-37.3,2.2-55.9,4.4
				C54.9,19.7,54.9,20,55.2,20L55.2,20z"/>
		</g>
	</g>
</g>
<g>
	<g>
		<g>
			<path class="st0" d="M123.7,21.9c1.3,14.8,2.5,29.6,3.8,44.5c0,0.2,0.3,0.2,0.3,0c-1.3-14.8-2.5-29.6-3.8-44.5
				C124,21.7,123.6,21.7,123.7,21.9L123.7,21.9z"/>
		</g>
	</g>
</g>
<g>
	<g>
		<g>
			<path class="st0" d="M74.8,78.1c8.9-0.4,17.8-0.7,26.7-1.1c4.5-0.2,9.1-0.4,13.6-0.6c2.2-0.1,4.4-0.1,6.7-0.3
				c1-0.1,2.2-0.2,2.8-1c0.5-0.6,0.5-1.5-0.2-2c-0.8-0.7-2-0.5-2.9,0c-0.2,0.1,0,0.4,0.2,0.3c0.9-0.6,3.2-0.6,2.7,1.1
				c-0.3,1.2-1.6,1.3-2.7,1.4c-2.1,0.2-4.3,0.2-6.4,0.3c-4.5,0.2-9.1,0.4-13.6,0.6c-9,0.4-18,0.8-26.9,1.1
				C74.6,77.8,74.6,78.1,74.8,78.1L74.8,78.1z"/>
		</g>
	</g>
</g>
<g>
	<g>
		<g>
			<path class="st0" d="M124.5,73.9c0.1,0.5,0.2,0.9,0.3,1.4c0.1,0.7,0.4,1-0.4,1.3c-1,0.3-2.4,0.2-3.4,0.2
				c-2.1,0.1-4.2,0.3-6.4,0.4c-4.4,0.2-8.8,0.4-13.3,0.6c-8.8,0.3-17.7,0.5-26.5,0.5c-0.2,0-0.2,0.3,0,0.3c16.8,0,33.6-0.6,50.4-1.7
				c0.1,0,0.2-0.1,0.2-0.2c-0.2-0.9-0.3-1.9-0.5-2.8C124.8,73.6,124.5,73.7,124.5,73.9L124.5,73.9z"/>
		</g>
	</g>
</g>
<g>
	<g>
		<g>
			<path class="st0" d="M72.7,77.6c-2.6,0.2-5.2,0.4-7.9,0.6c-0.2,0-0.2,0.3,0,0.3c2.6-0.2,5.2-0.4,7.9-0.6
				C72.9,77.9,72.9,77.6,72.7,77.6L72.7,77.6z"/>
		</g>
	</g>
</g>
<g>
	<g>
		<g>
			<path class="st0" d="M65.2,78.4c2.5-0.5,4.9-0.8,7.5-0.8c0.2,0,0.2-0.3,0-0.3c-2.5,0-5.1,0.3-7.5,0.8
				C64.9,78.1,65,78.4,65.2,78.4L65.2,78.4z"/>
		</g>
	</g>
</g>
<g>
	<g>
		<g>
			<path class="st0" d="M53,38.3c0-0.3,0.1-0.7,0.4-0.9c-0.1,0-0.1,0-0.1,0c0.3,0.1,0.5,0.5,0.3,0.8c-0.2,0.2-0.7-0.1-0.6-0.4
				c0.1-0.2-0.2-0.3-0.3-0.2c-0.2,0.4,0.1,0.8,0.4,0.9c0.4,0.2,0.8-0.1,0.9-0.5c0.1-0.4-0.2-0.8-0.6-0.9c-0.2-0.1-0.5,0.2-0.6,0.4
				c-0.2,0.2-0.2,0.5-0.2,0.8C52.7,38.6,53,38.6,53,38.3L53,38.3z"/>
		</g>
	</g>
</g>
<g>
	<g>
		<g>
			<path class="st0" d="M51.7,29.2c-0.1-0.2,0.1-0.5,0.3-0.5c0,0-0.1,0-0.1-0.1c0.2,0.2,0.2,0.6-0.1,0.8c0.1,0,0.2,0.1,0.2,0.1
				c-0.1-0.2-0.2-0.5-0.2-0.8c-0.1-0.2-0.4-0.1-0.3,0.1c0.1,0.2,0.2,0.5,0.2,0.8c0,0.1,0.2,0.2,0.2,0.1c0.4-0.3,0.6-1,0.2-1.3
				c-0.2-0.2-0.5,0-0.6,0.1c-0.2,0.2-0.3,0.5-0.2,0.7C51.5,29.5,51.8,29.4,51.7,29.2L51.7,29.2z"/>
		</g>
	</g>
</g>
<g>
	<g>
		<g>
			<path class="st0" d="M52,21.9c-0.3,0.2-0.3-0.2-0.2-0.4c0-0.1,0.1-0.2,0.2-0.3c0.1-0.1,0.3-0.2,0.4-0.2c0.4-0.1,0.7,0.1,0.8,0.5
				c0.1,0.3-0.1,0.8-0.4,0.8c-0.4,0.1-0.8-0.3-0.7-0.7c0.1-0.2-0.3-0.3-0.3-0.1c-0.2,0.6,0.5,1.3,1.2,1.1c0.6-0.2,0.8-1,0.5-1.5
				c-0.3-0.6-1.2-0.6-1.7-0.2c-0.3,0.2-0.5,0.6-0.3,1c0.1,0.3,0.5,0.4,0.7,0.2C52.4,22.1,52.2,21.8,52,21.9L52,21.9z"/>
		</g>
	</g>
</g>
<g>
	<g>
		<g>
			<path class="st0" d="M119.5,17.6c0.2-0.4,0.6-0.8,1.1-0.9c0.5-0.1,1.1,0.2,1.2,0.8c0.1,0.6-0.5,0.9-1,0.9c-0.2,0-0.4,0-0.6-0.1
				c-0.1,0-0.9-0.3-0.6-0.6c0.2-0.2-0.1-0.4-0.2-0.2c-0.5,0.6,0.4,1.1,0.9,1.2c0.7,0.1,1.6,0.1,1.9-0.7c0.2-0.6-0.3-1.4-0.9-1.6
				c-0.8-0.2-1.6,0.4-2,1C119.1,17.7,119.4,17.8,119.5,17.6L119.5,17.6z"/>
		</g>
	</g>
</g>
<g>
	<g>
		<g>
			<path class="st0" d="M114.2,17.5c-0.1-0.2,0.1-0.6,0.3-0.5c0.3,0.1,0,0.4-0.1,0.2C114.3,17.1,114.1,17.3,114.2,17.5
				c0.2,0.2,0.5,0.1,0.7,0c0.2-0.2,0.2-0.5-0.1-0.7c-0.2-0.2-0.5-0.2-0.7,0c-0.2,0.2-0.3,0.5-0.2,0.8
				C113.9,17.8,114.2,17.7,114.2,17.5L114.2,17.5z"/>
		</g>
	</g>
</g>
<g>
	<g>
		<g>
			<path class="st0" d="M121.2,23.6c-0.1-0.2,0.2-0.6,0.5-0.5c0.2,0.2,0,0.6-0.3,0.6c0.1,0.1,0.1,0.1,0.1,0.2c0-0.2,0-0.5,0-0.7
				c0-0.2-0.3-0.2-0.3,0c0,0.2,0,0.5,0,0.7c0,0.1,0.1,0.2,0.1,0.2c0.6,0.1,1-0.8,0.6-1.2c-0.5-0.4-1.3,0.3-1,0.9
				C121.1,23.9,121.4,23.8,121.2,23.6L121.2,23.6z"/>
		</g>
	</g>
</g>
<g>
	<g>
		<g>
			<path class="st0" d="M125.3,72.1c-0.1-0.5,0.3-1.2,0.9-1.2c0.5,0,0.8,0.4,0.8,0.8c0.1,1-1.4,1-1.6,0.1c0-0.2-0.3-0.1-0.3,0.1
				c0.1,0.6,0.8,1,1.3,0.9c0.6-0.1,1-0.7,0.9-1.3c-0.1-0.6-0.6-1.1-1.3-1c-0.8,0.1-1.2,0.9-1.1,1.6C125,72.4,125.3,72.3,125.3,72.1
				L125.3,72.1z"/>
		</g>
	</g>
</g>
<g>
	<g>
		<g>
			<path class="st0" d="M125.4,66.6c0-0.2,0.4-0.3,0.5-0.1c0.2,0.2-0.2,0.5-0.4,0.3c-0.2-0.1-0.4,0.1-0.2,0.2c0.4,0.4,1.3-0.1,1-0.7
				c-0.2-0.5-1-0.4-1.2,0.1C125,66.7,125.3,66.8,125.4,66.6L125.4,66.6z"/>
		</g>
	</g>
</g>
<g>
	<g>
		<g>
			<path class="st0" d="M123.3,77.5c-1.1,12.5-1.6,25.1-1.7,37.7c0,0.2,0.3,0.2,0.3,0c0-12.6,0.6-25.1,1.7-37.7
				C123.7,77.3,123.3,77.3,123.3,77.5L123.3,77.5z"/>
		</g>
	</g>
</g>
<g>
	<g>
		<g>
			<path class="st0" d="M121.1,78c-0.7,12.3-1.3,24.6-2,37c0,0.2,0.3,0.2,0.3,0c0.7-12.3,1.3-24.6,2-37
				C121.4,77.8,121.1,77.8,121.1,78L121.1,78z"/>
		</g>
	</g>
</g>
<g>
	<g>
		<g>
			<path class="st0" d="M118.6,119.9c0.7-0.3,1.4-0.5,2.1-0.6c0.4,0,0.7-0.1,1.1,0c0.1,0,0.2,0,0.4,0c0.6-0.1,0.9,0.2,0.8,0.9
				c0.2,1,0.2,0.9-0.6,1.1c-0.3,0.1-0.6,0.1-0.8,0.2c-0.3,0.1-0.7,0.1-1.1,0.1c-0.2,0-0.4,0-0.6-0.1c-0.8-0.1-1-0.6-0.9-1.4
				c0.2,0,0.2-0.3,0-0.3c-1.1-0.1-0.3,1.5,0.1,1.8c1,0.7,3,0.3,4-0.2c0.9-0.4,1.2-1.3,0.4-2c-1.2-1-3.7-0.4-5,0.2
				C118.4,119.6,118.5,119.9,118.6,119.9L118.6,119.9z"/>
		</g>
	</g>
</g>
<g>
	<g>
		<g>
			<path class="st0" d="M118.5,120.1c0-1.7,0.2-3.3,0.6-5c0.1-0.2-0.3-0.3-0.3-0.1c-0.4,1.7-0.6,3.4-0.6,5.1
				C118.1,120.3,118.5,120.3,118.5,120.1L118.5,120.1z"/>
		</g>
	</g>
</g>
<g>
	<g>
		<g>
			<path class="st0" d="M123.4,119.9c-0.4-1.7-1-3.4-1.6-5c-0.1-0.2-0.4-0.1-0.3,0.1c0.7,1.6,1.2,3.3,1.6,5
				C123.1,120.2,123.4,120.1,123.4,119.9L123.4,119.9z"/>
		</g>
	</g>
</g>
<g>
	<g>
		<g>
			<path class="st0" d="M119.7,115.4c-0.2-0.2-0.4-0.3-0.6-0.5c-0.2-0.1-0.4,0.1-0.2,0.2c0.7,0.8,2.1,0.6,2.6-0.3
				c0.1-0.2-0.2-0.3-0.3-0.2c-0.4,0.8-1.5,0.9-2,0.2c-0.1,0.1-0.2,0.2-0.2,0.2c0.2,0.2,0.4,0.3,0.6,0.5
				C119.6,115.8,119.9,115.5,119.7,115.4L119.7,115.4z"/>
		</g>
	</g>
</g>
<g>
	<g>
		<g>
			<path class="st0" d="M118.9,115.2c0.1-0.9,0.2-1.8,0.1-2.7c-0.1-0.8-1.1-3.4,0.2-3.7c0.2-0.1,0.1-0.4-0.1-0.3
				c-0.8,0.2-1,0.8-1,1.5c0,0.5,0.3,1.1,0.4,1.6c0.2,1.2,0.3,2.3,0.1,3.5C118.6,115.3,118.9,115.4,118.9,115.2L118.9,115.2z"/>
		</g>
	</g>
</g>
<g>
	<g>
		<g>
			<path class="st0" d="M88.7,111.5c9.5-0.6,18.9-1.2,28.4-1.7c0.2,0,0.2-0.3,0-0.3c-9.5,0.6-18.9,1.2-28.4,1.7
				C88.5,111.1,88.5,111.5,88.7,111.5L88.7,111.5z"/>
		</g>
	</g>
</g>
<g>
	<g>
		<g>
			<path class="st0" d="M122.3,109.8c1.3-0.1,2.5-0.3,3.8-0.4c0.2,0,0.2-0.3,0-0.3c-1.3,0.1-2.5,0.3-3.8,0.4
				C122.1,109.5,122.1,109.8,122.3,109.8L122.3,109.8z"/>
		</g>
	</g>
</g>
<g>
	<g>
		<g>
			<path class="st0" d="M106.4,74.8c-1.3-0.3-2.8-0.3-4.1,0.4c-0.7,0.3-0.7,1.1,0,1.4c0.6,0.3,1.5,0.1,2.2,0.1
				c0.6,0,1.4,0.1,1.9-0.1c0.6-0.3,0.8-1.2,0.1-1.5c-0.2-0.1-0.4,0.2-0.2,0.3c0.1,0.7-0.1,1-0.5,1c-0.2,0-0.3,0-0.5,0
				c-0.3,0-0.7,0-1,0c-0.3,0-0.6,0-0.8,0c-0.2,0-0.3,0-0.5,0c-0.4,0.1-0.6,0-0.6-0.4c-0.2-0.6,0.1-0.5,0.6-0.7
				c0.3-0.1,0.6-0.2,0.9-0.2c0.8-0.1,1.6-0.1,2.4,0.1C106.6,75.1,106.7,74.8,106.4,74.8L106.4,74.8z"/>
		</g>
	</g>
</g>
<g>
	<g>
		<g>
			<path class="st0" d="M108.5,75.9c0-0.5,0.8-0.5,1.1-0.5c0.2,0,0.3,0.1,0.3,0.3c0,0.1-0.2,0.3-0.3,0.3c-0.3,0.1-0.7-0.2-0.9-0.4
				C108.6,75.4,108.4,75.7,108.5,75.9c0.5,0.2,1,0.6,1.5,0.3c0.3-0.2,0.5-0.7,0.2-0.9c-0.3-0.3-0.9-0.2-1.3-0.1
				c-0.4,0.1-0.7,0.3-0.7,0.8C108.1,76.1,108.5,76.1,108.5,75.9L108.5,75.9z"/>
		</g>
	</g>
</g>
<g class="st1">
	<path d="M75.1,42.7v-0.3h0.3v0.3H75.1z"/>
</g>
<g class="st1">
	<path d="M89.6,42.3v-0.3h0.3v0.3H89.6z"/>
</g>
</svg>
