<?xml version="1.0" encoding="utf-8"?>
<!-- Generator: Adobe Illustrator 24.0.1, SVG Export Plug-In . SVG Version: 6.00 Build 0)  -->
<svg version="1.1" id="Layer_1" xmlns="http://www.w3.org/2000/svg" xmlns:xlink="http://www.w3.org/1999/xlink" x="0px" y="0px"
	 viewBox="0 0 141.7 141.7" style="enable-background:new 0 0 141.7 141.7;" xml:space="preserve">
<style type="text/css">
	.st0{fill:#231F20;}
	.st1{fill:#070707;}
</style>
<g id="Layer_1_1_">
</g>
<g id="Layer_1_2_">
</g>
<g id="Layer_1_3_">
</g>
<g id="Layer_1_4_">
</g>
<g id="Layer_1_5_">
</g>
<g id="Layer_3">
</g>
<g id="Layer_3_1_">
</g>
<g id="Layer_1_6_">
</g>
<g id="Layer_1_7_">
</g>
<g id="Layer_1_8_">
</g>
<g id="Layer_1_9_">
</g>
<g id="Layer_1_10_">
</g>
<g id="Layer_1_11_">
</g>
<g id="Layer_1_12_">
</g>
<g id="Layer_1_13_">
</g>
<g id="Layer_1_14_">
</g>
<g id="Layer_1_15_">
</g>
<g id="Layer_1_16_">
</g>
<g id="Layer_1_17_">
</g>
<g id="Layer_1_18_">
</g>
<g id="Layer_1_19_">
</g>
<g id="Layer_1_20_">
</g>
<g>
	<g>
		<g>
			<path class="st0" d="M64.4,65.5c2.9-10.8,6.1-22.3,14.8-30.1c0.2-0.1-0.1-0.4-0.2-0.3C70.3,43,67,54.5,64.1,65.4
				C64,65.6,64.3,65.7,64.4,65.5L64.4,65.5z"/>
		</g>
	</g>
	<g>
		<g>
			<path class="st0" d="M82.7,30.8c2.6-2.9,5.6-5.4,8.9-7.6c3-2,6.2-3.5,9.5-5.1c1.1-0.5,2.5-1.3,3.8-1.1c1.9,0.2,1.3,2.7,1.1,3.9
				c-0.7,3-1.7,6.1-2.7,9c-0.7,2.1-1.6,4.2-2.5,6.3c-0.7,1.6-2,3.2-2.2,5c0,0.1,0.2,0.2,0.3,0.1c0.2-0.1,0.1-0.1,0.2-0.3
				c0.1-0.1,0-0.2-0.1-0.2c0,0-0.1-0.1-0.1-0.1c-0.2-0.1-0.4,0.1-0.2,0.3c0,0-0.1,0.1-0.1,0.1c0.1,0.1,0.2,0.1,0.3,0.1
				c0.2-1.1,0.8-2,1.3-3c0.5-0.9,0.9-1.8,1.3-2.8c0.9-2.1,1.7-4.2,2.4-6.3c0.6-1.8,1-3.6,1.6-5.4c0.4-1.3,0.9-2.7,1-4.1
				c0.1-0.9,0.2-2-0.6-2.6c-0.8-0.7-1.9-0.4-2.8-0.2c-1.2,0.4-2.3,1-3.4,1.5c-2,0.9-3.9,1.8-5.8,3c-4.2,2.5-8,5.6-11.4,9.2
				C82.4,30.7,82.6,31,82.7,30.8L82.7,30.8z"/>
		</g>
	</g>
	<g>
		<g>
			<path class="st0" d="M95.9,46.9c-2.5,5.4-5.9,10.3-10.1,14.5c-3.8,3.8-8.8,6.4-12.4,10.5c-0.1,0.2,0.1,0.3,0.3,0.2
				c2-2.2,4.4-3.9,6.7-5.7c2.3-1.8,4.6-3.6,6.6-5.8c3.8-4,6.9-8.6,9.1-13.6C96.3,46.8,96,46.7,95.9,46.9L95.9,46.9z"/>
		</g>
	</g>
	<g>
		<g>
			<path class="st0" d="M64.3,65.6c1.1,0.7,2.3,1.5,3.4,2.2c0.2,0.1,0.4-0.2,0.2-0.3c-1.1-0.7-2.3-1.5-3.4-2.2
				C64.3,65.3,64.1,65.5,64.3,65.6L64.3,65.6z"/>
		</g>
	</g>
	<g>
		<g>
			<path class="st0" d="M70,69.8c0.6,0.3,1.2,0.7,1.8,1c0.1,0.1,1.7,1.1,1.7,1.1c0.1-0.2-0.2-0.3-0.3-0.1c0,0,0,0,0,0.1
				c0,0.1,0,0.2,0.1,0.2c0.1,0.1,0.2,0.1,0.3,0c0.1,0,0.1-0.1,0.1-0.2c-0.1-0.5-0.9-0.9-1.2-1.1c-0.7-0.5-1.5-0.9-2.2-1.3
				C69.9,69.4,69.8,69.7,70,69.8L70,69.8z"/>
		</g>
	</g>
	<g>
		<g>
			<path class="st0" d="M73.6,41.1c-2.2,1.5-4.6,2.8-6.6,4.5c-0.8,0.7-1.3,1.7-1.9,2.7c-0.7,1.2-1.3,2.5-2,3.7
				c-2.5,4.8-4.9,9.6-7.3,14.5c-0.1,0.2,0.2,0.3,0.3,0.1c2.3-4.9,4.7-9.7,7.2-14.4c1.1-2.1,2.1-4.9,3.9-6.5c2-1.7,4.3-3,6.4-4.4
				C74,41.3,73.8,41,73.6,41.1L73.6,41.1z"/>
		</g>
	</g>
	<g>
		<g>
			<path class="st0" d="M55.9,66.8c1.2,1.1,2.5,2.1,4,2.9c0.1,0.1,0.2,0,0.2-0.1c0.5-1.1,0.9-2.2,1.4-3.3c0.7-1.4,1.6-3.5,3.3-4
				c0.2-0.1,0.2-0.4-0.1-0.3c-1.9,0.5-2.9,2.8-3.6,4.4c-0.3,0.6-0.5,1.2-0.8,1.8c-0.3,0.6-0.3,1.1-1,0.9c-1.2-0.4-2.5-1.7-3.4-2.5
				C56,66.4,55.8,66.7,55.9,66.8L55.9,66.8z"/>
		</g>
	</g>
	<g>
		<g>
			<path class="st0" d="M76,69.9c0.6,3.5-3.5,5.3-5.5,7.4c-0.1,0.1-0.1,0.2,0,0.2c1.1,1.1,2.4,1.9,3.8,2.6c0.1,0,0.2,0,0.2-0.1
				c5-5.7,10.3-11.2,15.8-16.5c0.2-0.2-0.1-0.4-0.2-0.3c-4.7,4.5-9.3,9.2-13.8,14.1c-0.5,0.6-1,1.4-1.7,1.9
				c-0.8,0.6-1.7-0.2-2.4-0.7c-0.2-0.2-0.8-0.5-0.9-0.7c-0.3-0.6,0.1-1.1,0.5-1.5c0.6-0.5,1.2-0.9,1.8-1.4c1.6-1.3,3.1-3,2.7-5.2
				C76.3,69.7,76,69.7,76,69.9L76,69.9z"/>
		</g>
	</g>
	<g>
		<g>
			<path class="st0" d="M90.1,63.7c0.8-1.2,0.9-2.9,1.2-4.3c0.4-1.9,0.7-3.8,1.1-5.7c0.1-0.2-0.3-0.2-0.3,0
				c-0.3,1.6-0.6,3.1-0.9,4.7c-0.3,1.6-0.4,3.7-1.3,5.1C89.7,63.7,90,63.8,90.1,63.7L90.1,63.7z"/>
		</g>
	</g>
	<g>
		<g>
			<path class="st1" d="M83.9,41c0.1,0,0.1,0.1,0.2,0.1c0.1-0.1,0.1-0.2,0.2-0.3c-1.4-0.3-4.1-0.6-4.9,1c-0.5,0.9,0.2,2,0.8,2.7
				c1.2,1.2,3,1.2,4.4,2.1c1.5,1,3.1,4.7,5.2,2.3c1.4-1.6-0.1-4.1-1.1-5.5c-0.1-0.2-0.4,0-0.3,0.2c0.9,1.3,2.5,3.9,0.9,5.3
				c-1.9,1.7-3.3-1.7-4.6-2.5c-0.7-0.5-1.6-0.7-2.4-1c-1.2-0.5-3.2-1.6-2.7-3.2c0.5-1.7,3.4-1.3,4.6-1c0.2,0.1,0.3-0.2,0.2-0.3
				c-0.1-0.1-0.2-0.1-0.3-0.1C83.8,40.6,83.7,40.9,83.9,41L83.9,41z"/>
		</g>
	</g>
	<g>
		<path class="st1" d="M90.9,44.7c-1.7-1.2-2.1-3.6-0.9-5.3s3.6-2.1,5.3-0.9c1.7,1.2,2.1,3.6,0.9,5.3C94.9,45.5,92.6,45.9,90.9,44.7
			z M95,38.8c-1.5-1.1-3.7-0.7-4.8,0.8c-1.1,1.5-0.7,3.7,0.8,4.8s3.7,0.7,4.8-0.8C96.9,42,96.5,39.9,95,38.8z"/>
	</g>
	<g>
		<path class="st1" d="M83,39.2c-1.7-1.2-2.1-3.6-0.9-5.3c1.2-1.7,3.6-2.1,5.3-0.9c1.7,1.2,2.1,3.6,0.9,5.3
			C87.1,39.9,84.7,40.4,83,39.2z M87.2,33.3c-1.5-1.1-3.7-0.7-4.8,0.8c-1.1,1.5-0.7,3.7,0.8,4.8c1.5,1.1,3.7,0.7,4.8-0.8
			C89,36.5,88.7,34.3,87.2,33.3z"/>
	</g>
	<g>
		<path class="st1" d="M89.5,43.9c0.6-0.8-0.2-2.3-1.7-3.4c-1.5-1-3.2-1.2-3.8-0.4c-0.6,0.8,0.2,2.3,1.7,3.4
			C87.2,44.5,88.9,44.7,89.5,43.9z"/>
	</g>
	<g>
		<path class="st1" d="M82.8,36.5c0.2,1.3,1.5,2.2,2.8,2c1.3-0.2,2.2-1.5,2-2.8s-1.5-2.2-2.8-2C83.5,33.9,82.6,35.2,82.8,36.5z
			 M86.5,34.8c0.1,0.4-0.2,0.7-0.6,0.8c-0.4,0.1-0.7-0.2-0.8-0.6c-0.1-0.4,0.2-0.7,0.6-0.8C86.1,34.2,86.5,34.5,86.5,34.8z"/>
	</g>
	<g>
		<path class="st1" d="M93,46.2l-12.2-8.6c-1.5-1-1.8-3.1-0.8-4.5l0.6-0.9c1-1.5,3.1-1.8,4.5-0.8L97.4,40c1.5,1,1.8,3.1,0.8,4.5
			l-0.6,0.9C96.5,46.9,94.5,47.3,93,46.2z M84.9,31.7c-1.3-0.9-3.1-0.6-4,0.7l-0.6,0.9c-0.9,1.3-0.6,3.1,0.7,4l12.2,8.6
			c1.3,0.9,3.1,0.6,4-0.7l0.6-0.9c0.9-1.3,0.6-3.1-0.7-4L84.9,31.7z"/>
	</g>
	<g>
		<g>
			<path class="st1" d="M83.9,46.2c-5.2,7-9.4,14.7-14.4,21.9c-1.2,1.7-2.5,3.4-3.9,5.1c-0.2,0.3-0.4,0.5-0.6,0.8
				c-0.3,0.4-0.3,0.7-0.7,0.2c-0.4-0.5,0.3-1.1,0.6-1.7c0.6-1,1.2-2,1.9-3c2.3-3.8,4.7-7.6,7.2-11.3c2.8-4.2,5.6-8.4,8.6-12.4
				c0.1-0.2-0.1-0.4-0.3-0.2C76.1,53.8,70.7,62.4,65.3,71c-0.4,0.6-2.4,2.9-1.6,3.7c0.8,0.8,2.2-1.6,2.5-2c3.2-3.9,5.9-8.1,8.6-12.4
				c3-4.7,5.9-9.5,9.3-14C84.3,46.2,84,46.1,83.9,46.2L83.9,46.2z"/>
		</g>
	</g>
	<g>
		<g>
			<path class="st1" d="M64.8,75c0.1-0.3,0.2-0.6,0.4-0.9c-0.1,0-0.2-0.1-0.3-0.1c-0.1,0.4-0.2,0.7-0.3,1.1c0,0.1,0,0.2,0.1,0.2
				c2.1,0.3,3.3-2.3,4.3-3.7c1.9-2.7,3.7-5.4,5.6-8.1c3.7-5.4,7.5-10.7,11.2-16.1c0.1-0.2-0.2-0.4-0.3-0.2c-3.4,5-6.9,9.9-10.3,14.9
				c-1.7,2.4-3.3,4.8-5,7.2c-0.9,1.2-1.7,2.5-2.6,3.7c-0.4,0.5-0.7,1-1.2,1.5c-0.2,0.2-0.7,0.6-1,0.5c-0.5-0.1-0.2-0.6-0.1-0.9
				c0.1-0.2-0.2-0.3-0.3-0.1c-0.1,0.3-0.2,0.6-0.4,0.9C64.4,75.1,64.7,75.2,64.8,75L64.8,75z"/>
		</g>
	</g>
	<g>
		<g>
			<path class="st1" d="M56.8,67.3c2.3-4.6,4.7-9.3,7-13.9c1.1-2.2,2.1-4.7,3.5-6.8c1.4-2,3.7-2.3,5.5-3.8c0.2-0.1-0.1-0.4-0.2-0.3
				c-1.6,1.3-3.8,1.7-5.2,3.3c-1.5,1.9-2.4,4.4-3.5,6.5c-2.5,4.9-5,9.9-7.4,14.8C56.4,67.4,56.7,67.5,56.8,67.3L56.8,67.3z"/>
		</g>
	</g>
	<g>
		<g>
			<path class="st1" d="M73.8,79.6c3.6-4.3,7.4-8.4,11.4-12.4c1.6-1.7,3.7-3.3,4.8-5.3c1.2-2.2,1.5-5,2.1-7.4
				c0.1-0.2-0.3-0.3-0.3-0.1c-0.6,2.5-0.9,5.6-2.3,7.8c-1.4,2.2-3.7,4-5.6,5.9c-3.6,3.7-7,7.5-10.4,11.4
				C73.4,79.6,73.6,79.8,73.8,79.6L73.8,79.6z"/>
		</g>
	</g>
	<g>
		<path class="st1" d="M90.7,42c0.2,1.3,1.5,2.2,2.8,2c1.3-0.2,2.2-1.5,2-2.8s-1.5-2.2-2.8-2C91.3,39.4,90.4,40.7,90.7,42z
			 M94.4,40.4c0.1,0.4-0.2,0.7-0.6,0.8S93.1,41,93,40.6c-0.1-0.4,0.2-0.7,0.6-0.8S94.3,40,94.4,40.4z"/>
	</g>
	<g>
		<g>
			<path class="st1" d="M63.6,65.9c-1.3,1.5-1.5,3.6-2.5,5.4c-0.9,1.7-2.4,3.5-4.2,4.3c-0.9,0.4-1.9,0.5-2.9,0.1
				c-1.5-0.7-2-2.3-0.9-3.7c0.8-1,2.7-1.8,3.5-0.2c0.3,0.6,0.3,1.3,0,1.9c-0.2,0.6-0.6,0.9-1.2,1.1c-0.8,0-1.2-0.4-1.2-1.3
				c0.1-0.2-0.2-0.3-0.3-0.1c-0.3,0.8,0.4,1.7,1.2,1.8c1.1,0.1,1.8-1,1.9-2c0.1-1.1-0.4-2.3-1.6-2.5c-1.3-0.3-2.6,0.8-3.1,2
				c-1.2,2.6,2.1,4.3,4.3,3.5c1.7-0.6,3-2,4-3.3c0.6-0.9,1.1-1.8,1.5-2.8c0.5-1.3,0.7-2.6,1.7-3.7C64,65.9,63.8,65.8,63.6,65.9
				L63.6,65.9z"/>
		</g>
	</g>
	<g>
		<g>
			<path class="st1" d="M63.5,66.1c-0.5,2.7-1.2,5.4-2.6,7.8c-1.5,2.4-3.6,3.8-6.2,5c-1.9,0.9-3.8,1.8-4.9,3.7
				c-0.5,0.8-0.8,1.7-0.9,2.6c-0.1,1.1,0.6,4.9-1.7,4.1c-0.2-0.1-0.3,0.2-0.1,0.3c2,0.6,2.1-1.9,2.1-3.2c-0.1-1.9,0.6-3.8,2-5.1
				c1.1-1,2.6-1.7,4-2.3c2.5-1.1,4.5-2.6,5.9-4.9c1.5-2.4,2.2-5.2,2.7-7.9C63.9,65.9,63.6,65.9,63.5,66.1L63.5,66.1z"/>
		</g>
	</g>
	<g>
		<g>
			<path class="st1" d="M69.3,83.7c-1.8-0.2-0.8-2.8,0.8-2.2c0.7,0.2,1.3,0.9,1.4,1.6c0.2,1.2-0.6,2.3-1.6,2.9
				c-2.5,1.4-4.9-1.5-4.9-3.8c0.1-3,2.6-4.6,4.9-5.9c1.5-0.8,2.8-1.9,3-3.6c0-0.2-0.2-0.2-0.3-0.1c-1.2,1.3-2.8,2-4.3,2.9
				c-1.2,0.8-2.4,1.8-3.3,2.9c-1.9,2.3-2.8,4.9-3.3,7.7c-0.4,1.7-0.7,3.4-1.8,4.8c-1,1.4-2.6,2.3-3.5,3.7c-0.9,1.5-1,3.8,0.8,4.6
				c0.2,0.1,0.3-0.2,0.1-0.3c-1.8-0.8-1.3-3.2-0.4-4.5c0.8-1.1,2-1.9,3-3c1.7-2,1.9-4.6,2.5-7c0.7-2.8,2.1-5.4,4.3-7.3
				c1.9-1.7,4.6-2.5,6.3-4.4c-0.1,0-0.2-0.1-0.3-0.1c-0.3,2.8-3.5,3.4-5.3,4.9c-1.3,1-2.3,2.5-2.5,4.2c-0.3,2.5,1.9,5.7,4.7,4.8
				c2.1-0.7,3.5-4,1-5.2c-2.4-1.2-3.4,2.5-1.2,2.8C69.5,84,69.5,83.7,69.3,83.7L69.3,83.7z"/>
		</g>
	</g>
	<g>
		<g>
			<path class="st1" d="M46.6,89.8c1.4,1.2,3.5,0.9,4.5-0.6c-0.1,0-0.2-0.1-0.3-0.1c-0.4,2.4-2.5,3.5-4.3,4.8
				c-1.2,0.9-2.1,1.9-2.7,3.3c-1.2,3-0.8,6.3-2,9.3c-0.1,0.2,0.2,0.3,0.3,0.2c3.2-4.6,6.9-8.7,11-12.3c-0.1-0.1-0.1-0.2-0.2-0.3
				c-1.2,1.2-1.4,3.3-0.2,4.7c1.2,1.3,3.3,1.4,4.7,0.4c0.2-0.1,0-0.4-0.2-0.3c-1.2,0.9-3.2,0.9-4.2-0.3c-1.1-1.2-0.9-3.1,0.2-4.2
				c0.1-0.2-0.1-0.4-0.2-0.3c-4.2,3.7-7.9,7.8-11.1,12.4c0.1,0.1,0.2,0.1,0.3,0.2c1.3-3.1,0.8-6.6,2.1-9.6c1.5-3.3,6.1-4.1,6.8-7.9
				c0-0.2-0.2-0.2-0.3-0.1c-0.9,1.4-2.9,1.6-4.1,0.5C46.6,89.5,46.5,89.7,46.6,89.8L46.6,89.8z"/>
		</g>
	</g>
	<g>
		<g>
			<path class="st1" d="M47.4,89.4c-0.4-0.2-0.8-0.4-1.2-0.6C46,88.7,45.9,88.9,46,89c0.2,0.3,0.4,0.6,0.7,0.8
				c0.1,0.2,0.4-0.1,0.3-0.2c-0.3-0.3-0.5-0.6-0.7-0.8C46.2,88.9,46.1,89,46,89c0.4,0.2,0.8,0.4,1.2,0.6
				C47.4,89.8,47.5,89.5,47.4,89.4L47.4,89.4z"/>
		</g>
	</g>
	<g>
		<g>
			<path class="st1" d="M87.6,33.2c2.6-2.8,5.3-5.5,8.1-8.2c1.3-1.3,2.6-2.6,3.9-3.8c0.7-0.7,1.5-1.4,2.2-2.1c0.6-0.6,1.3-1.4,2-1.8
				c0.7-0.6,1.4-0.2,2,1.3c-0.1,0.1-0.1,0.2-0.2,0.3c-0.1,0.5-0.7,1.2-0.9,1.7c-0.4,0.8-0.9,1.6-1.3,2.4c-0.9,1.7-1.9,3.3-2.9,5
				c-1.9,3.3-4,6.5-6.1,9.7c-0.1,0.2,0.2,0.4,0.3,0.2c2.6-3.9,5.1-7.8,7.4-11.9c1.2-2,2.3-4.1,3.4-6.1c0.5-0.9,1.4-2.2,0.3-3
				c-1.2-0.8-2.4,0.3-3.2,1.1c-1.7,1.6-3.4,3.2-5.1,4.8c-3.4,3.3-6.7,6.7-10,10.1C87.3,33.1,87.5,33.3,87.6,33.2L87.6,33.2z"/>
		</g>
	</g>
	<g>
		<g>
			<path class="st1" d="M63.5,73.6c-0.3,2.4-3.1,2.9-4.5,4.4c-1.1,1.2-1.6,3-2.2,4.5c-1.4,3.9-3.5,7.6-6.2,10.9
				c-0.1,0.2,0.1,0.3,0.2,0.2c3.2-2.4,6.5-5,8.5-8.6c1-1.9,1.6-3.9,2.9-5.7c1.2-1.8,2.8-3.2,4.5-4.4c0.2-0.1,0-0.4-0.2-0.3
				c-3.3,2.2-5.2,5.1-6.7,8.7c-1.9,4.3-5.4,7.2-9.1,10c0.1,0.1,0.2,0.2,0.2,0.2c2.6-3.3,4.8-7,6.2-11c0.4-1.1,0.7-2.2,1.3-3.3
				c0.7-1.3,1.7-1.9,2.9-2.6c1.2-0.7,2.3-1.6,2.5-3.1C63.9,73.5,63.6,73.4,63.5,73.6L63.5,73.6z"/>
		</g>
	</g>
	<g>
		<g>
			<path class="st1" d="M80.5,32.9c0.2,0.1,0.4-0.2,0.2-0.3C80.6,32.6,80.4,32.8,80.5,32.9L80.5,32.9z"/>
		</g>
	</g>
	<g>
		<g>
			<path class="st1" d="M80.3,32.9c0.3,0.7,0.7,1.2,1.2,1.7c0.2,0.1,0.4-0.1,0.2-0.3c-0.5-0.4-0.9-0.9-1.1-1.5
				C80.5,32.6,80.2,32.7,80.3,32.9L80.3,32.9z"/>
		</g>
	</g>
	<g>
		<g>
			<path class="st1" d="M87.4,39c0.7,0.5,1.3,0.9,2,1.4c0.2,0.1,0.4-0.2,0.2-0.3c-0.7-0.5-1.3-0.9-2-1.4
				C87.4,38.6,87.2,38.9,87.4,39L87.4,39z"/>
		</g>
	</g>
	<g>
		<g>
			<path class="st1" d="M95.2,44.6c0.9,0.7,2.2,0.5,3-0.4c0.1-0.2-0.1-0.3-0.3-0.2c-0.6,0.7-1.7,0.8-2.5,0.3
				C95.2,44.2,95,44.5,95.2,44.6L95.2,44.6z"/>
		</g>
	</g>
	<g>
		<g>
			<path class="st1" d="M80.5,48c-0.4,0.3-0.5,0.9-0.2,1.3c0.3,0.4,0.8,0.5,1.3,0.3c0.2-0.1,0.1-0.4-0.1-0.3
				c-0.7,0.3-1.3-0.5-0.8-1.1C80.8,48.1,80.6,47.9,80.5,48L80.5,48z"/>
		</g>
	</g>
	<g>
		<g>
			<path class="st1" d="M81.5,49.5c0.2,0.9,1.5,1.3,2.1,0.6c0.2-0.2-0.1-0.4-0.2-0.3c-0.5,0.5-1.5,0.3-1.6-0.5
				C81.8,49.3,81.5,49.3,81.5,49.5L81.5,49.5z"/>
		</g>
	</g>
	<g>
		<g>
			<path class="st1" d="M59.6,69.1c2.2-7,5.5-13.6,9.6-19.6c0.1-0.2-0.2-0.4-0.3-0.2c-4.2,6.1-7.4,12.7-9.6,19.7
				C59.3,69.2,59.6,69.3,59.6,69.1L59.6,69.1z"/>
		</g>
	</g>
	<g>
		<g>
			<path class="st1" d="M71.4,78.2c6.1-4.3,11-9.9,14.5-16.5c0.1-0.2-0.2-0.4-0.3-0.2c-3.5,6.5-8.4,12.1-14.4,16.4
				C71,78,71.2,78.3,71.4,78.2L71.4,78.2z"/>
		</g>
	</g>
	<g>
		<g>
			<path class="st1" d="M99.7,18.6c1.2-0.3,2.5-0.5,3.8-0.1c1.4,0.5,2.5,1.9,2,3.4c-0.1,0.2,0.2,0.3,0.3,0.1
				c0.4-1.3-0.2-2.5-1.2-3.3c-1.4-1-3.3-0.8-4.9-0.4C99.5,18.3,99.5,18.6,99.7,18.6L99.7,18.6z"/>
		</g>
	</g>
	<g>
		<path class="st1" d="M66.2,65.5c-0.5-0.4-0.6-1-0.3-1.5c0.4-0.5,1-0.6,1.5-0.3c0.5,0.4,0.6,1,0.3,1.5
			C67.3,65.7,66.7,65.8,66.2,65.5z M67.2,64c-0.3-0.2-0.8-0.2-1,0.2c-0.2,0.3-0.2,0.8,0.2,1c0.3,0.2,0.8,0.2,1-0.2
			C67.6,64.7,67.5,64.2,67.2,64z"/>
	</g>
	<g>
		<path class="st1" d="M72.4,69.9c-0.5-0.4-0.6-1-0.3-1.5c0.4-0.5,1-0.6,1.5-0.3c0.5,0.4,0.6,1,0.3,1.5
			C73.6,70.1,72.9,70.3,72.4,69.9z M73.5,68.4c-0.3-0.2-0.8-0.2-1,0.2c-0.2,0.3-0.2,0.8,0.2,1c0.3,0.2,0.8,0.2,1-0.2
			C73.9,69.1,73.8,68.6,73.5,68.4z"/>
	</g>
	<g>
		<path class="st1" d="M97,38.3c-0.5-0.4-0.6-1-0.3-1.5c0.4-0.5,1-0.6,1.5-0.3c0.5,0.4,0.6,1,0.3,1.5C98.2,38.5,97.5,38.7,97,38.3z
			 M98,36.8c-0.3-0.2-0.8-0.2-1,0.2s-0.2,0.8,0.2,1c0.3,0.2,0.8,0.2,1-0.2C98.4,37.5,98.3,37.1,98,36.8z"/>
	</g>
	<g>
		<path class="st1" d="M86.4,30.9c-0.5-0.4-0.6-1-0.3-1.5c0.4-0.5,1-0.6,1.5-0.3c0.5,0.4,0.6,1,0.3,1.5
			C87.5,31.1,86.9,31.2,86.4,30.9z M87.4,29.4c-0.3-0.2-0.8-0.2-1,0.2c-0.2,0.3-0.2,0.8,0.2,1c0.3,0.2,0.8,0.2,1-0.2
			S87.7,29.6,87.4,29.4z"/>
	</g>
	<g>
		<path class="st1" d="M99.1,35c-0.5-0.4-0.6-1-0.3-1.5c0.4-0.5,1-0.6,1.5-0.3c0.5,0.4,0.6,1,0.3,1.5C100.2,35.2,99.5,35.3,99.1,35z
			 M100.1,33.5c-0.3-0.2-0.8-0.2-1,0.2s-0.2,0.8,0.2,1c0.3,0.2,0.8,0.2,1-0.2C100.5,34.2,100.4,33.7,100.1,33.5z"/>
	</g>
	<g>
		<path class="st1" d="M89.4,28.2c-0.5-0.4-0.6-1-0.3-1.5c0.4-0.5,1-0.6,1.5-0.3c0.5,0.4,0.6,1,0.3,1.5
			C90.5,28.4,89.9,28.5,89.4,28.2z M90.4,26.7c-0.3-0.2-0.8-0.2-1,0.2c-0.2,0.3-0.2,0.8,0.2,1c0.3,0.2,0.8,0.2,1-0.2
			C90.8,27.3,90.8,26.9,90.4,26.7z"/>
	</g>
	<g>
		<path class="st1" d="M100.4,31.8c-0.3-0.2-0.4-0.7-0.2-1s0.7-0.4,1-0.2c0.3,0.2,0.4,0.7,0.2,1S100.8,32.1,100.4,31.8z M101.1,31
			c-0.2-0.1-0.4-0.1-0.5,0.1c-0.1,0.2-0.1,0.4,0.1,0.5s0.4,0.1,0.5-0.1S101.2,31.1,101.1,31z"/>
	</g>
	<g>
		<path class="st1" d="M91.9,25.6c-0.3-0.2-0.4-0.7-0.2-1c0.2-0.3,0.7-0.4,1-0.2c0.3,0.2,0.4,0.7,0.2,1
			C92.7,25.8,92.2,25.9,91.9,25.6z M92.5,24.7c-0.2-0.1-0.4-0.1-0.5,0.1c-0.1,0.2-0.1,0.4,0.1,0.5c0.2,0.1,0.4,0.1,0.5-0.1
			C92.7,25,92.7,24.8,92.5,24.7z"/>
	</g>
	<g>
		<path class="st1" d="M74.7,67.4c-0.3-0.2-0.4-0.7-0.2-1c0.2-0.3,0.7-0.4,1-0.2c0.3,0.2,0.4,0.7,0.2,1S75,67.7,74.7,67.4z
			 M75.3,66.5c-0.2-0.1-0.4-0.1-0.5,0.1c-0.1,0.2-0.1,0.4,0.1,0.5s0.4,0.1,0.5-0.1C75.5,66.9,75.5,66.6,75.3,66.5z"/>
	</g>
	<g>
		<path class="st1" d="M67.3,62.9c-0.3-0.2-0.4-0.7-0.2-1c0.2-0.3,0.7-0.4,1-0.2c0.3,0.2,0.4,0.7,0.2,1C68.2,63,67.7,63.1,67.3,62.9
			z M68,61.9c-0.2-0.1-0.4-0.1-0.5,0.1c-0.1,0.2-0.1,0.4,0.1,0.5c0.2,0.1,0.4,0.1,0.5-0.1C68.2,62.3,68.2,62.1,68,61.9z"/>
	</g>
	<g>
		<path class="st1" d="M88,61.9c-0.5-0.4-0.6-1-0.3-1.5c0.4-0.5,1-0.6,1.5-0.3c0.5,0.4,0.6,1,0.3,1.5C89.1,62.1,88.4,62.2,88,61.9z
			 M89,60.4c-0.3-0.2-0.8-0.2-1,0.2s-0.2,0.8,0.2,1c0.3,0.2,0.8,0.2,1-0.2C89.4,61.1,89.3,60.6,89,60.4z"/>
	</g>
	<g>
		<path class="st1" d="M68.2,47.9c-0.5-0.4-0.6-1-0.3-1.5c0.4-0.5,1-0.6,1.5-0.3c0.5,0.4,0.6,1,0.3,1.5
			C69.4,48.2,68.7,48.3,68.2,47.9z M69.2,46.5c-0.3-0.2-0.8-0.2-1,0.2c-0.2,0.3-0.2,0.8,0.2,1c0.3,0.2,0.8,0.2,1-0.2
			C69.6,47.2,69.6,46.7,69.2,46.5z"/>
	</g>
</g>
<g>
	<g>
		<path class="st1" d="M39.3,109.7c-3.4,5.3-7,10.6-10.7,15.8c-0.1,0.2,0.2,0.3,0.3,0.2c3.7-5.2,7.3-10.4,10.7-15.8
			C39.7,109.7,39.4,109.5,39.3,109.7L39.3,109.7z"/>
	</g>
</g>
<g>
	<g>
		<path class="st1" d="M50,102c-3.7,4.2-7.2,8.6-10.2,13.3c-0.1,0.2,0.2,0.3,0.3,0.2c3.1-4.7,6.4-9.1,10.2-13.2
			C50.4,102.1,50.1,101.9,50,102L50,102z"/>
	</g>
</g>
<g>
	<g>
		<path class="st1" d="M43.2,95c-3.7,5.8-7.5,11.6-11.3,17.5c-0.1,0.2,0.2,0.3,0.3,0.2c3.7-5.8,7.5-11.6,11.3-17.5
			C43.6,94.9,43.3,94.8,43.2,95L43.2,95z"/>
	</g>
</g>
</svg>
