<?xml version="1.0" encoding="utf-8"?>
<!-- Generator: Adobe Illustrator 24.0.1, SVG Export Plug-In . SVG Version: 6.00 Build 0)  -->
<svg version="1.1" id="Layer_1" xmlns="http://www.w3.org/2000/svg" xmlns:xlink="http://www.w3.org/1999/xlink" x="0px" y="0px"
	 viewBox="0 0 141.7 141.7" style="enable-background:new 0 0 141.7 141.7;" xml:space="preserve">
<style type="text/css">
	.st0{fill:#231F20;}
	.st1{fill:#070707;}
</style>
<g id="Layer_1_1_">
</g>
<g id="Layer_1_2_">
</g>
<g id="Layer_1_3_">
</g>
<g id="Layer_1_4_">
</g>
<g id="Layer_1_5_">
</g>
<g id="Layer_3">
</g>
<g id="Layer_3_1_">
</g>
<g id="Layer_1_6_">
</g>
<g id="Layer_1_7_">
</g>
<g id="Layer_1_8_">
</g>
<g id="Layer_1_9_">
</g>
<g id="Layer_1_10_">
</g>
<g id="Layer_1_11_">
</g>
<g id="Layer_1_12_">
</g>
<g id="Layer_1_13_">
</g>
<g id="Layer_1_14_">
</g>
<g id="Layer_1_15_">
</g>
<g id="Layer_1_16_">
</g>
<g id="Layer_1_17_">
</g>
<g id="Layer_1_18_">
</g>
<g id="Layer_1_19_">
</g>
<g id="Layer_1_20_">
</g>
<g>
	<g>
		<g>
			<g>
				<path class="st0" d="M89.4,106.8c-16.2-2.4-33.5-5.1-46.2-16.4c-0.2-0.2-0.6,0.1-0.3,0.3C55.7,102,73,104.8,89.3,107.2
					C89.6,107.2,89.7,106.8,89.4,106.8L89.4,106.8z"/>
			</g>
		</g>
	</g>
	<g>
		<g>
			<g>
				<path class="st0" d="M35.9,86.1c-4.6-3.3-8.8-7.2-12.5-11.5c-3.5-4-6.1-8.4-9-12.9c-1-1.5-2.3-3.4-2.3-5.3
					c0-2.8,3.6-2.4,5.5-2.2c4.5,0.5,9.1,1.4,13.5,2.3c3.2,0.7,6.4,1.6,9.6,2.6c2.5,0.8,5,2.3,7.6,2.4c0.2,0,0.3-0.3,0.1-0.4
					c-0.2-0.2-0.2-0.2-0.4-0.3c-0.1,0-0.3,0-0.3,0.1c0,0-0.1,0.1-0.1,0.1c-0.1,0.3,0.3,0.5,0.4,0.2c0,0,0.1,0.1,0.1,0.1
					c0-0.1,0.1-0.3,0.1-0.4c-1.6-0.1-3.1-0.8-4.5-1.4c-1.4-0.6-2.8-1-4.2-1.5c-3.2-1-6.4-1.8-9.6-2.4c-2.7-0.6-5.4-0.9-8.1-1.4
					c-2-0.4-4.1-0.8-6.1-0.8c-1.3,0-2.9,0.1-3.6,1.3c-0.8,1.2-0.3,2.8,0.3,4.1c0.7,1.7,1.8,3.2,2.8,4.7c1.6,2.7,3.3,5.4,5.3,7.9
					c4.4,5.7,9.5,10.7,15.3,14.9C35.8,86.6,36.1,86.3,35.9,86.1L35.9,86.1z"/>
			</g>
		</g>
	</g>
	<g>
		<g>
			<g>
				<path class="st0" d="M56.9,64.2c8.2,2.6,15.9,6.7,22.7,12.1c6.2,5,10.9,11.6,17.4,16.2c0.3,0.2,0.5-0.2,0.2-0.4
					c-3.6-2.5-6.5-5.7-9.5-8.8c-2.9-3.1-6.1-6-9.5-8.6c-6.4-4.8-13.6-8.5-21.3-10.9C56.8,63.6,56.6,64.1,56.9,64.2L56.9,64.2z"/>
			</g>
		</g>
	</g>
	<g>
		<g>
			<g>
				<path class="st0" d="M89.6,106.9c0.9-1.8,1.7-3.6,2.6-5.3c0.1-0.3-0.3-0.5-0.4-0.2c-0.9,1.8-1.7,3.6-2.6,5.3
					C89,106.9,89.4,107.2,89.6,106.9L89.6,106.9z"/>
			</g>
		</g>
	</g>
	<g>
		<g>
			<g>
				<path class="st0" d="M94.7,97.8c0.3-0.9,0.7-1.9,1.2-2.8c0.1-0.2,1.4-2.6,1.3-2.7c-0.3-0.1-0.4,0.4-0.1,0.4c0,0,0,0,0.1,0
					c0.1,0,0.2,0,0.3-0.1c0.1-0.2,0.1-0.2,0-0.4c0-0.1-0.1-0.1-0.3-0.1c-0.7,0.2-1.1,1.5-1.4,2c-0.6,1.1-1.1,2.3-1.5,3.5
					C94.2,98,94.6,98.1,94.7,97.8L94.7,97.8z"/>
			</g>
		</g>
	</g>
	<g>
		<g>
			<g>
				<path class="st0" d="M52.4,97.5c2.5,2.9,4.9,6.2,7.7,8.7c1.2,1.1,2.7,1.7,4.2,2.3c1.9,0.7,3.8,1.5,5.8,2.2
					c7.4,2.8,14.8,5.5,22.3,8.1c0.3,0.1,0.4-0.4,0.1-0.4c-7.4-2.5-14.9-5.2-22.2-8c-3.2-1.2-7.5-2.2-10-4.6c-2.7-2.6-5-5.7-7.5-8.6
					C52.6,97,52.3,97.3,52.4,97.5L52.4,97.5z"/>
			</g>
		</g>
	</g>
	<g>
		<g>
			<g>
				<path class="st0" d="M92.7,118.8c1.4-2,2.6-4.1,3.4-6.3c0.1-0.1,0-0.3-0.1-0.3c-1.7-0.5-3.4-0.9-5.1-1.5
					c-2.2-0.7-5.4-1.7-6.3-4.1c-0.1-0.3-0.6-0.1-0.4,0.1c1.1,2.6,4.5,3.7,7,4.5c0.9,0.3,1.8,0.6,2.8,0.8c0.9,0.3,1.6,0.2,1.5,1.2
					c-0.3,1.8-2,3.9-3.1,5.3C92.2,118.8,92.6,119,92.7,118.8L92.7,118.8z"/>
			</g>
		</g>
	</g>
	<g>
		<g>
			<g>
				<path class="st0" d="M93.8,89.1c5-1.5,8.2,4.2,11.7,6.7c0.1,0,0.2,0,0.3,0c1.4-1.8,2.4-3.8,3.1-6c0-0.1,0-0.2-0.1-0.3
					c-9.2-6.4-18-13.1-26.6-20.2c-0.2-0.2-0.6,0.1-0.3,0.3c7.4,6.1,15,11.9,22.9,17.5c0.9,0.7,2.2,1.3,3,2.1c1,1.1,0,2.5-0.6,3.6
					c-0.2,0.4-0.5,1.2-0.9,1.4c-0.8,0.6-1.6,0.1-2.2-0.4c-0.8-0.7-1.5-1.5-2.3-2.3c-2.2-2.1-4.9-3.9-8-3
					C93.4,88.7,93.5,89.2,93.8,89.1L93.8,89.1z"/>
			</g>
		</g>
	</g>
	<g>
		<g>
			<g>
				<path class="st0" d="M82.3,69.7c-1.9-1-4.3-0.8-6.4-1c-2.8-0.2-5.6-0.4-8.4-0.7c-0.3,0-0.3,0.4,0,0.4c2.3,0.2,4.7,0.4,7,0.6
					c2.4,0.2,5.5,0,7.7,1.1C82.3,70.3,82.5,69.8,82.3,69.7L82.3,69.7z"/>
			</g>
		</g>
	</g>
	<g>
		<g>
			<g>
				<path class="st1" d="M50.4,82.7c0-0.1,0.1-0.2,0.1-0.3c-0.1,0-0.3-0.1-0.4-0.1c-0.3,2.1-0.2,6,2.3,7c1.4,0.5,2.9-0.6,3.8-1.6
					c1.5-1.9,1.3-4.6,2.3-6.7c1.2-2.3,6.3-5.4,2.5-8c-2.6-1.7-6,0.9-7.8,2.5c-0.2,0.2,0.1,0.5,0.3,0.3c1.7-1.5,5.2-4.3,7.5-2.3
					c2.8,2.5-1.9,5.1-2.9,7.2c-0.6,1.2-0.8,2.5-1.1,3.8c-0.4,1.8-1.7,4.9-4.2,4.4c-2.5-0.5-2.5-4.7-2.3-6.5c0-0.3-0.3-0.4-0.4-0.1
					c-0.1,0.1-0.1,0.3-0.1,0.4C49.9,82.9,50.4,83,50.4,82.7L50.4,82.7z"/>
			</g>
		</g>
	</g>
	<g>
		<g>
			<path class="st1" d="M54.6,71.9c-1.5,2.7-4.8,3.7-7.5,2.2c-2.7-1.5-3.7-4.8-2.2-7.5c1.5-2.7,4.8-3.7,7.5-2.2
				C55.1,65.9,56.1,69.2,54.6,71.9z M45.4,66.9c-1.3,2.4-0.4,5.4,2,6.7c2.4,1.3,5.4,0.4,6.7-2c1.3-2.4,0.4-5.4-2-6.7
				C49.7,63.6,46.7,64.5,45.4,66.9z"/>
		</g>
	</g>
	<g>
		<g>
			<path class="st1" d="M47.9,84.2c-1.5,2.7-4.8,3.7-7.5,2.2c-2.7-1.5-3.7-4.8-2.2-7.5c1.5-2.7,4.8-3.7,7.5-2.2
				C48.4,78.2,49.4,81.6,47.9,84.2z M38.7,79.2c-1.3,2.4-0.4,5.4,2,6.7c2.4,1.3,5.4,0.4,6.7-2c1.3-2.4,0.4-5.4-2-6.7
				S40,76.8,38.7,79.2z"/>
		</g>
	</g>
	<g>
		<g>
			<path class="st1" d="M53.7,74c-1.3-0.7-3.4,0.6-4.7,3c-1.3,2.3-1.3,4.8,0,5.5c1.3,0.7,3.4-0.6,4.7-3C55,77.2,55,74.7,53.7,74z"/>
		</g>
	</g>
	<g>
		<g>
			<path class="st1" d="M44.1,85c1.9-0.6,2.9-2.5,2.4-4.4c-0.6-1.9-2.5-2.9-4.4-2.4c-1.9,0.6-2.9,2.5-2.4,4.4
				C40.2,84.5,42.2,85.5,44.1,85z M41,79.9c0.5-0.1,1.1,0.1,1.2,0.7c0.1,0.5-0.1,1.1-0.7,1.2c-0.5,0.1-1.1-0.1-1.2-0.7
				C40.2,80.6,40.5,80,41,79.9z"/>
		</g>
	</g>
	<g>
		<g>
			<path class="st1" d="M56.5,68.5L46.1,87.7c-1.2,2.3-4.1,3.2-6.4,1.9l-1.4-0.7c-2.3-1.2-3.2-4.1-1.9-6.4l10.4-19.2
				c1.2-2.3,4.1-3.2,6.4-1.9l1.4,0.7C56.9,63.3,57.7,66.2,56.5,68.5z M36.8,82.7c-1.1,2-0.3,4.6,1.7,5.7l1.4,0.7
				c2,1.1,4.6,0.3,5.7-1.7L56,68.2c1.1-2,0.3-4.6-1.7-5.7l-1.4-0.7c-2-1.1-4.6-0.3-5.7,1.7L36.8,82.7z"/>
		</g>
	</g>
	<g>
		<g>
			<g>
				<path class="st1" d="M58,81.7C69.1,88,81,92.8,92.2,98.9c2.8,1.5,5.4,3.1,8.1,4.8c0.4,0.3,0.8,0.5,1.2,0.8
					c0.6,0.4,1.1,0.4,0.4,1c-0.7,0.7-1.7-0.1-2.5-0.5c-1.6-0.7-3.1-1.5-4.7-2.2c-5.9-2.8-11.8-5.5-17.6-8.4
					c-6.6-3.3-13.1-6.7-19.5-10.4c-0.3-0.1-0.5,0.3-0.2,0.4c12.9,7.4,26.4,13.8,39.8,20.1c0.9,0.4,4.6,3,5.7,1.6
					c1-1.3-2.7-3-3.3-3.3c-6.2-3.9-12.8-7.2-19.4-10.4c-7.4-3.5-14.9-7-22-11.1C58,81.2,57.8,81.6,58,81.7L58,81.7z"/>
			</g>
		</g>
	</g>
	<g>
		<g>
			<g>
				<path class="st1" d="M103.2,104.5c-0.5-0.1-0.9-0.2-1.4-0.3c0,0.1-0.1,0.3-0.1,0.4c0.6,0.1,1.1,0.2,1.7,0.3
					c0.1,0,0.3-0.1,0.3-0.2c0.1-3-4-4.4-6.1-5.5c-4.2-2.2-8.4-4.5-12.7-6.7c-8.4-4.5-16.9-9-25.3-13.5c-0.3-0.1-0.5,0.3-0.2,0.4
					c7.8,4.1,15.6,8.3,23.4,12.4c3.8,2,7.6,4,11.4,6c1.9,1,3.9,2,5.8,3.1c0.8,0.4,1.6,0.9,2.3,1.5c0.3,0.3,1,1,0.9,1.4
					c-0.1,0.8-0.8,0.4-1.3,0.3c-0.3,0-0.4,0.4-0.1,0.4c0.5,0.1,0.9,0.2,1.4,0.3C103.4,105.1,103.5,104.6,103.2,104.5L103.2,104.5z"
					/>
			</g>
		</g>
	</g>
	<g>
		<g>
			<g>
				<path class="st1" d="M93.3,117.4c-7.1-2.6-14.3-5.2-21.4-7.8c-3.4-1.2-7.2-2.2-10.5-3.9c-3.2-1.7-4-5-6.4-7.3
					c-0.2-0.2-0.6,0.1-0.3,0.3c2.2,2.1,3.1,5.2,5.7,7c2.9,1.9,6.7,2.8,10,3.9c7.6,2.8,15.2,5.5,22.8,8.3
					C93.5,118,93.6,117.5,93.3,117.4L93.3,117.4z"/>
			</g>
		</g>
	</g>
	<g>
		<g>
			<g>
				<path class="st1" d="M108.2,90.7c-6.8-4.6-13.5-9.3-20-14.4c-2.7-2.1-5.4-4.8-8.5-6.1c-3.4-1.4-7.5-1.3-11.1-1.7
					c-0.3,0-0.4,0.4-0.1,0.4c3.8,0.4,8.2,0.3,11.7,2c3.5,1.7,6.5,4.7,9.5,7c6,4.5,12.1,8.9,18.3,13.1
					C108.3,91.3,108.5,90.9,108.2,90.7L108.2,90.7z"/>
			</g>
		</g>
	</g>
	<g>
		<g>
			<path class="st1" d="M50.8,72.6c1.9-0.6,2.9-2.5,2.4-4.4c-0.6-1.9-2.5-2.9-4.4-2.4c-1.9,0.6-2.9,2.5-2.4,4.4
				C46.9,72.1,48.9,73.2,50.8,72.6z M47.7,67.5c0.5-0.1,1.1,0.1,1.2,0.7c0.1,0.5-0.1,1.1-0.7,1.2c-0.5,0.1-1.1-0.1-1.2-0.7
				C46.9,68.2,47.2,67.7,47.7,67.5z"/>
		</g>
	</g>
	<g>
		<g>
			<g>
				<path class="st1" d="M38.4,78.6c-4.5-3.3-8.9-6.8-13.3-10.3c-2.1-1.7-4.2-3.3-6.3-5.1c-1.1-0.9-2.2-1.9-3.4-2.8
					c-0.9-0.8-2.3-1.6-2.9-2.6c-1-1-0.5-2,1.5-3.1c0.1,0,0.3,0.1,0.5,0.1c0.7,0.1,1.9,0.7,2.7,1c1.3,0.5,2.5,1,3.7,1.5
					c2.6,1,5.2,2.2,7.7,3.3c5.1,2.3,10.2,4.7,15.1,7.3c0.3,0.1,0.5-0.3,0.2-0.4c-6.1-3.1-12.2-6-18.5-8.7c-3.1-1.3-6.3-2.6-9.5-3.8
					c-1.4-0.5-3.5-1.7-4.4,0.1c-0.9,1.9,0.8,3.4,2.1,4.5c2.6,2.2,5.2,4.4,7.9,6.6c5.4,4.4,10.9,8.7,16.4,12.8
					C38.4,79.1,38.7,78.7,38.4,78.6L38.4,78.6z"/>
			</g>
		</g>
	</g>
	<g>
		<g>
			<g>
				<path class="st1" d="M39.3,88.9c0.1-0.3-0.3-0.5-0.4-0.2C38.8,88.9,39.2,89.1,39.3,88.9L39.3,88.9z"/>
			</g>
		</g>
	</g>
	<g>
		<g>
			<g>
				<path class="st1" d="M39.3,89.2c0.9-0.5,1.6-1.2,2.2-2.1c0.1-0.3-0.3-0.5-0.4-0.2c-0.5,0.8-1.2,1.5-2,1.9
					C38.9,89,39.1,89.3,39.3,89.2L39.3,89.2z"/>
			</g>
		</g>
	</g>
	<g>
		<g>
			<g>
				<path class="st1" d="M47,78c0.6-1.1,1.2-2.1,1.7-3.2c0.1-0.3-0.3-0.5-0.4-0.2c-0.6,1.1-1.2,2.1-1.7,3.2C46.4,78,46.8,78.2,47,78
					L47,78z"/>
			</g>
		</g>
	</g>
	<g>
		<g>
			<g>
				<path class="st1" d="M53.8,65.6c0.8-1.5,0.3-3.3-1-4.2c-0.3-0.2-0.5,0.3-0.2,0.4c1.2,0.8,1.5,2.4,0.8,3.6
					C53.2,65.7,53.6,65.9,53.8,65.6L53.8,65.6z"/>
			</g>
		</g>
	</g>
	<g>
		<g>
			<g>
				<path class="st1" d="M61.2,86.4c0.6,0.4,1.4,0.5,1.9,0s0.6-1.3,0.3-1.9c-0.1-0.3-0.6,0-0.4,0.2c0.6,1-0.6,2-1.5,1.3
					C61.3,85.9,61,86.2,61.2,86.4L61.2,86.4z"/>
			</g>
		</g>
	</g>
	<g>
		<g>
			<g>
				<path class="st1" d="M63.2,84.6c1.3-0.4,1.7-2.3,0.6-3.2c-0.2-0.2-0.6,0.1-0.3,0.3c0.8,0.6,0.6,2.1-0.4,2.4
					C62.8,84.2,63,84.7,63.2,84.6L63.2,84.6z"/>
			</g>
		</g>
	</g>
	<g>
		<g>
			<g>
				<path class="st1" d="M95.4,113c-10.5-2-20.7-5.6-30.1-10.6c-0.3-0.1-0.5,0.3-0.2,0.4c9.5,5,19.7,8.6,30.3,10.6
					C95.5,113.5,95.6,113.1,95.4,113L95.4,113z"/>
			</g>
		</g>
	</g>
	<g>
		<g>
			<g>
				<path class="st1" d="M106.6,94.4c-7.3-8-16.3-14.3-26.4-18.2c-0.3-0.1-0.5,0.3-0.2,0.4C90,80.5,99,86.7,106.2,94.7
					C106.4,94.9,106.8,94.6,106.6,94.4L106.6,94.4z"/>
			</g>
		</g>
	</g>
	<g>
		<g>
			<g>
				<path class="st1" d="M15.2,63.5c-0.6-1.7-1.2-3.6-0.8-5.5c0.4-2.1,2.3-3.9,4.6-3.5c0.3,0,0.4-0.4,0.1-0.4
					c-1.9-0.4-3.7,0.7-4.6,2.4c-1.2,2.3-0.5,5,0.3,7.2C14.8,63.9,15.3,63.8,15.2,63.5L15.2,63.5z"/>
			</g>
		</g>
	</g>
	<g>
		<g>
			<path class="st1" d="M89,104.1c-0.4,0.8-1.4,1.1-2.2,0.6c-0.8-0.4-1.1-1.4-0.6-2.2c0.4-0.8,1.4-1.1,2.2-0.6
				C89.2,102.4,89.5,103.4,89,104.1z M86.7,102.9c-0.3,0.5-0.1,1.1,0.4,1.4c0.5,0.3,1.1,0.1,1.4-0.4c0.3-0.5,0.1-1.1-0.4-1.4
				C87.6,102.2,87,102.4,86.7,102.9z"/>
		</g>
	</g>
	<g>
		<g>
			<path class="st1" d="M94.4,94.3c-0.4,0.8-1.4,1.1-2.2,0.6c-0.8-0.4-1.1-1.4-0.6-2.2c0.4-0.8,1.4-1.1,2.2-0.6
				C94.5,92.5,94.8,93.5,94.4,94.3z M92.1,93c-0.3,0.5-0.1,1.1,0.4,1.4c0.5,0.3,1.1,0.1,1.4-0.4s0.1-1.1-0.4-1.4
				C93,92.4,92.3,92.5,92.1,93z"/>
		</g>
	</g>
	<g>
		<g>
			<path class="st1" d="M44.3,64.1c-0.4,0.8-1.4,1.1-2.2,0.6c-0.8-0.4-1.1-1.4-0.6-2.2c0.4-0.8,1.4-1.1,2.2-0.6
				C44.5,62.4,44.7,63.3,44.3,64.1z M42,62.8c-0.3,0.5-0.1,1.1,0.4,1.4c0.5,0.3,1.1,0.1,1.4-0.4c0.3-0.5,0.1-1.1-0.4-1.4
				C42.9,62.1,42.3,62.3,42,62.8z"/>
		</g>
	</g>
	<g>
		<g>
			<path class="st1" d="M35.3,80.7c-0.4,0.8-1.4,1.1-2.2,0.6c-0.8-0.4-1.1-1.4-0.6-2.2c0.4-0.8,1.4-1.1,2.2-0.6
				C35.4,79,35.7,80,35.3,80.7z M33,79.5c-0.3,0.5-0.1,1.1,0.4,1.4c0.5,0.3,1.1,0.1,1.4-0.4c0.3-0.5,0.1-1.1-0.4-1.4
				C33.9,78.8,33.3,79,33,79.5z"/>
		</g>
	</g>
	<g>
		<g>
			<path class="st1" d="M39.1,61.7c-0.4,0.8-1.4,1.1-2.2,0.6c-0.8-0.4-1.1-1.4-0.6-2.2c0.4-0.8,1.4-1.1,2.2-0.6
				C39.2,59.9,39.5,60.9,39.1,61.7z M36.8,60.4c-0.3,0.5-0.1,1.1,0.4,1.4c0.5,0.3,1.1,0.1,1.4-0.4c0.3-0.5,0.1-1.1-0.4-1.4
				C37.7,59.7,37.1,59.9,36.8,60.4z"/>
		</g>
	</g>
	<g>
		<g>
			<path class="st1" d="M30.9,76.8c-0.4,0.8-1.4,1.1-2.2,0.6c-0.8-0.4-1.1-1.4-0.6-2.2c0.4-0.8,1.4-1.1,2.2-0.6
				C31,75.1,31.3,76.1,30.9,76.8z M28.5,75.6c-0.3,0.5-0.1,1.1,0.4,1.4s1.1,0.1,1.4-0.4c0.3-0.5,0.1-1.1-0.4-1.4
				S28.8,75.1,28.5,75.6z"/>
		</g>
	</g>
	<g>
		<g>
			<path class="st1" d="M34.3,60.2c-0.3,0.5-0.9,0.7-1.5,0.4c-0.5-0.3-0.7-0.9-0.4-1.5c0.3-0.5,0.9-0.7,1.5-0.4
				C34.5,59,34.6,59.6,34.3,60.2z M32.9,59.4c-0.1,0.3,0,0.6,0.2,0.7c0.3,0.1,0.6,0,0.7-0.2c0.1-0.3,0-0.6-0.2-0.7
				C33.4,59,33.1,59.2,32.9,59.4z"/>
		</g>
	</g>
	<g>
		<g>
			<path class="st1" d="M26.8,73.6c-0.3,0.5-0.9,0.7-1.5,0.4c-0.6-0.3-0.7-0.9-0.4-1.5s0.9-0.7,1.5-0.4
				C26.9,72.5,27.1,73.1,26.8,73.6z M25.3,72.9c-0.1,0.3,0,0.6,0.2,0.7c0.3,0.1,0.6,0,0.7-0.2c0.1-0.3,0-0.6-0.2-0.7
				C25.8,72.5,25.5,72.6,25.3,72.9z"/>
		</g>
	</g>
	<g>
		<g>
			<path class="st1" d="M90.4,91.5c-0.3,0.5-0.9,0.7-1.5,0.4c-0.5-0.3-0.7-0.9-0.4-1.5c0.3-0.5,0.9-0.7,1.5-0.4S90.7,90.9,90.4,91.5
				z M88.9,90.7c-0.1,0.3,0,0.6,0.2,0.7c0.3,0.1,0.6,0,0.7-0.2c0.1-0.3,0-0.6-0.2-0.7C89.4,90.3,89.1,90.4,88.9,90.7z"/>
		</g>
	</g>
	<g>
		<g>
			<path class="st1" d="M85,102.9c-0.3,0.5-0.9,0.7-1.5,0.4c-0.5-0.3-0.7-0.9-0.4-1.5s0.9-0.7,1.5-0.4
				C85.1,101.7,85.3,102.3,85,102.9z M83.6,102.1c-0.1,0.3,0,0.6,0.2,0.7c0.3,0.1,0.6,0,0.7-0.2c0.1-0.3,0-0.6-0.2-0.7
				C84.1,101.7,83.7,101.9,83.6,102.1z"/>
		</g>
	</g>
	<g>
		<g>
			<path class="st1" d="M80.1,73.2c-0.4,0.8-1.4,1.1-2.2,0.6c-0.8-0.4-1.1-1.4-0.6-2.2c0.4-0.8,1.4-1.1,2.2-0.6
				C80.2,71.4,80.5,72.4,80.1,73.2z M77.7,71.9c-0.3,0.5-0.1,1.1,0.4,1.4c0.5,0.3,1.1,0.1,1.4-0.4c0.3-0.5,0.1-1.1-0.4-1.4
				C78.6,71.2,78,71.4,77.7,71.9z"/>
		</g>
	</g>
	<g>
		<g>
			<path class="st1" d="M63.3,104.2c-0.4,0.8-1.4,1.1-2.2,0.6c-0.8-0.4-1.1-1.4-0.6-2.2c0.4-0.8,1.4-1.1,2.2-0.6
				C63.4,102.4,63.7,103.4,63.3,104.2z M60.9,103c-0.3,0.5-0.1,1.1,0.4,1.4c0.5,0.3,1.1,0.1,1.4-0.4c0.3-0.5,0.1-1.1-0.4-1.4
				C61.9,102.3,61.2,102.4,60.9,103z"/>
		</g>
	</g>
</g>
<g>
	<path d="M72.4,56.4c-9.4,0-17.1-7.7-17.1-17.1c0-9.4,7.7-17.1,17.1-17.1s17.1,7.7,17.1,17.1C89.5,48.7,81.8,56.4,72.4,56.4z
		 M72.4,22.6c-9.2,0-16.7,7.5-16.7,16.7c0,9.2,7.5,16.7,16.7,16.7c9.2,0,16.7-7.5,16.7-16.7C89.1,30.1,81.6,22.6,72.4,22.6z"/>
</g>
<g>
	<g>
		<g>
			<path class="st1" d="M62.8,26c0.7,0.3,1.3,1.1,0.7,1.9c-0.5,0.7-1.7,0.6-2.1,1.5c-0.2,0.3-0.1,0.4-0.1,0.7
				c-0.1,0.5,0.2,1,0.1,1.6c-0.1,0.5-0.6,1-0.6,1.6c0,0.3,0,0.4,0,0.7l0,0c0.3-0.1,1-0.8,1.3-0.5c0.1,0.1-0.4,1.1-0.4,1.3
				c0.1-0.7-0.1,0.5-0.1,0.7c0.1,0.4,0.1,0.5,0.6,0.7c0.4,0.2,1.2,0,1.6,0.4c0.5,0.4,0.1,0.7,0,1.3c0,0.1,0,0.4,0,0.5
				c0.1,0.7-0.1-0.4,0.2,0.7c0.1,0.1,0.1,0.3,0.2,0.5c0.1,0.4,0.1,0.9,0.1,1.3c0,0,0,0.1,0,0.1c0.3,0.9,0.5,0.8,1.3,1.2
				c0.7,0.3,1,1,1.7,1.3c0.8,0.3,1.5,0.1,2.1,0.8c0.4,0.4,0.4,1.3,1.1,1.5c0.9,0.3,1.3-0.7,1.4-1.3c0-0.1,0-0.2,0-0.3
				c0-1.1-0.4-3.7-1.8-3.5c-0.7,0.1-1.3,1-2.1,0.9c-1-0.1-1.3-1.3-1-2.2c0.7-2.1,3-1.6,4.1-0.3c1.9,2.3,0.9-2.1,1.2-2.5
				c0.8-0.8,3.2,0.4,3-1.5c-0.1-0.7-1-1-1-1.4c0-0.1,0.8-0.7,0.9-0.9c0.1-0.3,0.1-0.3,0.1-0.7c0-0.3,0-0.4-0.1-0.7
				c-0.5-1-2.2-1.6-2.7-0.4c-0.3,0.7,0.5,1.6-0.5,1.9c0,0,0,0.3,0,0.3c0.3,0.9-1.5,1.1-1.3-0.2c0,0,0-0.3,0-0.3
				c-1.8-0.3,0.1-0.3,0.5-1c0.1-0.2,0.1-0.4,0.1-0.7c-0.1-0.9-0.9-1.5-1.7-1.9c-0.9-0.4-1.5-0.3-1.9,0.5c-0.2,0.4,0.4,1.3,0,1.6
				c-0.7,0.6-0.7-0.6-0.8-1c-0.2-0.7-0.4-1.2-1.1-0.4c-0.7,0.8-0.6,2-1.9,2.3c-1.6,0.4-2-1.2-1.2-2.4c0.7-1,1.6-2,2.6-2.9
				c0.9-0.8,1.9-1.5,2.9-1.9c0.6-0.3,1.6-0.5,1.6-1.3c0-0.4-0.1-0.6-0.5-0.8c0,0,0,0.3,0,0.3c1.2,0.5-0.4,1.2-0.9,1.4
				c-1,0.4-1.9,1-2.8,1.7c-1.2,1-3.2,2.8-3.5,4.5c0,0.2,0,0.5,0,0.7c0.5,1.9,2.6,0.8,3.3-0.4c0.2-0.4,0.4-1.6,1.2-1.2
				c0.4,0.3,0.1,1.1,0.4,1.5c0.5,0.8,0.8,0,0.9-0.6c0.1-1,0-1.9,1.3-1.5c0.6,0.1,1.8,0.9,2,1.5c0.6,1.6-1.3,0.7-1.4,1.9
				c0,0,0,0.3,0,0.3c1.5,0.3,0.4,0.3,1,1c0.8,1.1,1.1,0.1,1.4-0.5c0.3-0.6,0.4-0.7,0.5-1.3c0.1-1.2,0.4-1.6,1.6-1
				c1.7,0.9,0.9,2.1-0.4,2.8c0,0,0,0.3,0,0.3c0.8,0.3,2.1,1.3,0.8,1.9c-0.7,0.3-2.1-0.3-2.6,0.6c-0.2,0.4,0.1,0.7,0.1,1.2
				c0,0.4,0.2,2-0.6,1.7c-0.4-0.1-0.7-0.9-1-1.2c-0.9-0.8-2.3-0.9-3.1,0.1c-0.5,0.5-0.7,1.3-0.6,2c0.1,0.6,0.3,1.3,1,1.5
				c1.1,0.3,2-1.4,3.1-0.8c0.6,0.3,1,2.6,1,3.2c-0.1,1.3-1.2,1.6-2,0.6c-0.7-1-0.8-1.2-2.1-1.6c-0.7-0.2-0.9-0.4-1.3-0.7
				C66.1,42,65.5,42,65,41.6c-0.8-0.6-0.4-1.1-0.6-1.9c-0.1-0.4-0.3-0.6-0.4-1c-0.3-1.1,0.1-1,0.1-1.8c0-0.1,0-0.1,0-0.2
				C64,36.2,63.6,36.2,63,36c-0.4-0.1-0.9,0-1.2-0.3c-0.5-0.5,0.3-2,0.5-2.6c0,0,0-0.3,0-0.3c-0.4,0.2-1.2,0.9-1.5,0.2
				c-0.1-0.1,0.5-1.2,0.5-1.3c0-0.2,0.1-0.3,0.1-0.5c0-0.7-0.4-1.3,0.2-1.9c0.7-0.8,1.9-0.6,2-1.9c0.1-0.7-0.3-1.3-1-1.6
				C62.8,25.7,62.7,26,62.8,26L62.8,26z"/>
		</g>
	</g>
</g>
<g>
	<g>
		<g>
			<path class="st1" d="M69.1,39.8C69.1,39.8,69.1,39.8,69.1,39.8C69,39.8,69,39.8,69.1,39.8L69.1,39.8z"/>
		</g>
	</g>
</g>
<g>
	<g>
		<g>
			<path class="st1" d="M75.6,55.5c-0.7-1.1,1-2,0.6-3.1c-0.3-0.9-1.5-1.3-2.2-1.9c-0.6-0.4-1.2-0.9-1.4-1.6c-0.4-1.4,0.3-1,1-1.5
				c0.7-0.5,0.2-0.8,0.1-1.4c-0.3-1.3,1.5-2.3,2.7-1.9c0.4,0.1,0.6,0.7,1,0.7c0.6,0,0.5-0.6,0.9-0.9c0.6-0.4,0.4,0,0.8,0.2
				c0.1,0.1,0.1,0.3,0.3,0.4c0.1,0.1,0.6,0.1,0.5,0c0,0,0.3,0.9,0.6,1.1c0.8,0.3,0.9-0.6,1.3-1c1.3-1.2,0.6,0.6,0.7,1.2
				c0.2,0.9,1.2,0.8,1.9,0.6c0.4-0.1,1.2-0.8,1.5-0.3c0.2,0.4-1.2,1.7-1.5,1.9c-0.6,0.7-0.6,0.8-0.6,1.6c0,0.7,0.3,1.2-0.7,1.3
				c-0.7,0-1.3-0.7-2-0.2c-0.5,0.4-0.4,1.2-0.9,1.7c-0.4,0.5-1.2,0.4-1.7,0.7c-0.6,0.3-1.4,1.6-0.2,1.9c0,0,0-0.3,0-0.3
				c-1-0.2-0.4-1,0.2-1.3c0.9-0.5,1.5-0.3,2-1.3c0.4-0.8,0.4-1.3,1.4-1.3c0.9,0,1.7,0.8,2-0.4c0-0.1,0-0.2,0-0.3
				c0.1-0.9-0.2-1.2,0.4-1.9c0.7-0.9,1.2-1.4,1.6-2.5c0,0,0-0.3,0-0.3c-0.9,0-2.9,1.4-3.5,0.3c-0.3-0.5,0.3-0.9,0.2-1.3
				c-0.3-1.7-1.4,0.8-2,0.9c-0.6,0.1-0.6-0.5-0.9-0.8c0-0.5-0.1-0.6-0.2-0.3c-0.2,0-0.4,0-0.6-0.2c-0.4-0.2-0.1-0.9-0.8-0.7
				c-0.3,0.1-0.3,0.6-0.5,0.7c-0.9,0.7-1.4-0.6-2.6-0.4c-0.8,0.1-1.7,0.6-1.9,1.5c0,0.1,0,0.1,0,0.2c0,0.1,0.1,0.6,0,0.5
				c0.2,0.9,0.5,0.7-0.4,1.1c-0.7,0.3-0.9,0.7-0.8,1.5c0.2,1.2,1.1,1.8,2,2.5c0.4,0.3,1,0.6,1.3,1c0.7,1,0,1.4-0.3,2.3
				c-0.2,0.5-0.2,1,0.1,1.5C75.5,55.7,75.6,55.5,75.6,55.5L75.6,55.5z"/>
		</g>
	</g>
</g>
<g>
	<g>
		<g>
			<path class="st1" d="M81.6,25.5c-0.4,1.8,1.9,2.8,2.9,4c0.6,0.7,0.4,1.2,0.7,2.1c0,0,0,0.1,0,0.2c0.4,1.2,1.2,0.3,1.3,2
				c0,1.8,0.9,3.2,1.5,4.9c0.5,1.2,0.4,2.1,0,3.3c-0.1,0.3-0.2,0.7-0.2,1c0,0.4,0.1,0.7,0.4,1.1c0,0,0-0.2,0-0.3
				c-0.8-1,0.3-2.5,0.1-3.8c-0.1-1.6-1.1-2.9-1.6-4.3c-0.3-0.9-0.2-1.7-0.3-2.6c0-0.4,0-0.6-0.3-0.9c-0.6-0.6-0.7,0.1-0.9-0.8
				c0,0,0-0.1,0-0.1c-0.1-0.6,0-0.9-0.3-1.4c-0.6-1.1-3.7-2.8-3.4-4.1C81.6,25.7,81.5,25.6,81.6,25.5L81.6,25.5z"/>
		</g>
	</g>
</g>
<g>
	<g>
		<g>
			<path class="st1" d="M83.6,43.1c-0.1,0.1-0.1,0.2-0.1,0.4c0.1,0.9,0.9,0.1,1.3-0.1c0.7-0.6,1.5,0.3,2.1-0.2
				c0.3-0.2,0.3-0.5,0.3-0.8c0-0.4-0.1-0.7-0.5-1c-0.8-0.4-1.6,0.1-2.1,0.7c-0.1,0.1-0.2,0.2-0.3,0.3c-0.2,0.1-0.4,0.1-0.6,0.3
				c-0.1,0.1-0.2,0.1-0.2,0.3c0,0.2,0,0.4,0.2,0.5c0,0,0-0.3,0-0.3c-0.1,0-0.1-0.1-0.2-0.3C83.6,42.9,83.6,43,83.6,43.1
				c0.1-0.4,0.6-0.3,0.8-0.6c0.3-0.3,0.5-0.7,0.9-0.9c0.7-0.4,1.9-0.2,1.9,0.8c0-0.1,0-0.2,0-0.3c-0.1,1.1-1,0.6-1.8,0.6
				c-0.4,0-0.6,0.3-0.9,0.6C84.2,43.6,83.6,43.7,83.6,43.1c0,0.1,0,0.2,0,0.3c0,0,0-0.1,0.1-0.1C83.6,43.3,83.5,43.2,83.6,43.1
				L83.6,43.1z"/>
		</g>
	</g>
</g>
<g>
	<g>
		<g>
			<path class="st1" d="M77.9,42.7c-0.4-0.4-1-1-1-1.6c0,0.1,0,0.2,0,0.3c0.4-0.9,1.6-0.7,2.2-0.1c0.5,0.5,0.6,0.6,1.3,0.7
				c0.4,0.1,0.9,0.3,0.9,0.8c0-0.1,0-0.2,0-0.3c-0.3,0.8-1.1,0.1-1.7,0.1c-0.4,0-0.5,0.2-0.9,0.3c-0.4,0.1-0.8-0.1-1.1-0.3
				c0,0,0,0.3,0,0.3c0.3,0.2,0.7,0.4,1.1,0.3c0.4-0.1,0.6-0.3,1-0.3s1.3,0.7,1.5-0.1c0.2-0.8-0.7-1-1.3-1.2c-0.7-0.2-1-1-1.8-1.1
				c-0.4-0.1-1.2,0.1-1.3,0.6c-0.2,0.7,0.6,1.5,1,1.9C77.9,43,78,42.8,77.9,42.7L77.9,42.7z"/>
		</g>
	</g>
</g>
<g>
	<g>
		<g>
			<path class="st1" d="M75,42c0.3,0.1,0.6-0.1,0.6-0.4c0-0.2,0-0.5-0.2-0.6c-0.3-0.1-0.6,0-0.6,0.3C74.8,41.5,74.8,41.8,75,42
				c-0.1,0,0-0.3,0-0.3c0,0-0.1-0.1-0.1-0.1c0,0,0-0.1,0-0.1c0,0,0,0,0,0c0,0.1,0,0.1,0,0c0,0,0-0.1,0.1-0.2c0,0,0.1-0.1,0.1-0.1
				c0.3-0.1,0.6,0.1,0.6,0.4c0-0.1,0-0.2,0-0.3c0,0.3-0.4,0.5-0.6,0.3C75,41.7,75,41.9,75,42L75,42z"/>
		</g>
	</g>
</g>
<g>
	<g>
		<g>
			<path class="st1" d="M75.6,36.2c-0.6-0.1-0.6,0.3-0.5,0.7c0-0.1,0-0.2,0-0.3c-0.1,0.7-1.3,0.2-1.3,1c0,0.9,1.1,0.3,1.5,0.1
				c0.2-0.1,0.4-0.2,0.7-0.2c0.2,0,0.5,0.1,0.7,0c0.2-0.1,0.2-0.3,0.2-0.6c0-0.9-1-0.7-1.6-0.7c0,0,0,0.3,0,0.3
				c0.6,0,1.5-0.2,1.6,0.5c0-0.1,0-0.2,0-0.3c0,0.5-0.3,0.5-0.7,0.4c-0.3,0-0.6,0-0.9,0.1c-0.4,0.2-1.3,0.7-1.5,0.1
				c0,0.1,0,0.2,0,0.3c0.1-0.7,1.2-0.2,1.3-0.9c0-0.1,0-0.3,0-0.5c0,0.1,0,0.2,0,0.3c0.1-0.2,0.3-0.2,0.5-0.2
				C75.6,36.5,75.6,36.2,75.6,36.2L75.6,36.2z"/>
		</g>
	</g>
</g>
<g>
	<g>
		<g>
			<path class="st1" d="M76.9,35.6c-0.2,0-0.4,0.1-0.4,0.3c0,0,0,0.3,0,0.3c0.3,0.1,0.7,0.1,0.7-0.3c0-0.1,0-0.1,0-0.2
				C77,35.5,76.9,35.4,76.9,35.6c-0.1,0,0,0.2-0.1,0.3c0.1-0.1,0.3,0,0.3,0.1c0-0.1,0-0.2,0-0.3c0,0.3-0.4,0.3-0.7,0.2
				c0,0.1,0,0.2,0,0.3c0.1-0.1,0.3-0.3,0.4-0.3C76.9,35.8,76.9,35.6,76.9,35.6L76.9,35.6z"/>
		</g>
	</g>
</g>
<g>
	<g>
		<g>
			<path class="st1" d="M78.6,35.5c-0.2-0.1-0.5,0-0.6,0.3c0,0,0,0.3,0,0.3c0.2,0,0.4,0,0.4-0.3c0-0.1,0-0.4-0.1-0.4
				c0,0,0,0.3,0,0.3c0.1,0,0.1,0.1,0.1,0.1c0-0.1,0-0.2,0-0.3c0,0.2-0.3,0.2-0.4,0.2c0,0.1,0,0.2,0,0.3c0-0.3,0.3-0.4,0.6-0.3
				C78.5,35.7,78.6,35.5,78.6,35.5L78.6,35.5z"/>
		</g>
	</g>
</g>
<g>
	<g>
		<g>
			<path class="st0" d="M106.3,107.1c7.8,4.2,15.6,8.4,23.4,12.7c0.3,0.1,0.5-0.3,0.2-0.4c-7.8-4.2-15.6-8.4-23.4-12.7
				C106.3,106.6,106.1,107,106.3,107.1L106.3,107.1z"/>
		</g>
	</g>
</g>
<g>
	<g>
		<g>
			<path class="st0" d="M105.3,110.7c3.5,1.8,7,3.6,10.6,5.4c0.3,0.1,0.5-0.3,0.2-0.4c-3.5-1.8-7-3.6-10.6-5.4
				C105.3,110.2,105,110.6,105.3,110.7L105.3,110.7z"/>
		</g>
	</g>
</g>
<g>
	<g>
		<g>
			<path class="st0" d="M108.4,104c3.5,1.8,7,3.6,10.6,5.4c0.3,0.1,0.5-0.3,0.2-0.4c-3.5-1.8-7-3.6-10.6-5.4
				C108.3,103.5,108.1,103.9,108.4,104L108.4,104z"/>
		</g>
	</g>
</g>
<g>
	<path class="st0" d="M40.3,109.7l-0.9-1.8l-2-0.3l1.4-1.4l-0.3-2l1.8,1l1.8-1l-0.3,2l1.5,1.4l-2,0.3L40.3,109.7z M38.3,107.3
		l1.4,0.2l0.6,1.3l0.7-1.3l1.4-0.2l-1.1-1l0.2-1.4l-1.3,0.7l-1.3-0.7l0.2,1.4L38.3,107.3z"/>
</g>
<g>
	<path class="st0" d="M38.7,33.8L37.1,31l-3.6-0.5l2.6-2.2l-0.6-3.1l3.2,1.5l3.2-1.5l-0.6,3.1l2.6,2.2L40.3,31L38.7,33.8z
		 M34.5,30.3l2.9,0.4l1.4,2.4l1.3-2.4l2.9-0.4l-2.1-1.8l0.5-2.6l-2.7,1.2l-2.7-1.2l0.5,2.6L34.5,30.3z"/>
</g>
<g>
	<path class="st0" d="M94.8,64.6l-0.4-0.9l-0.9-0.1l0.7-0.7L94,62l0.8,0.5l0.8-0.5l-0.1,1l0.7,0.7l-0.9,0.1L94.8,64.6z M94,63.4
		l0.5,0.1l0.2,0.5l0.2-0.5l0.5-0.1L95.2,63l0.1-0.5l-0.5,0.3l-0.5-0.3l0.1,0.5L94,63.4z"/>
</g>
<g>
	<path class="st0" d="M104.2,39.1l-1.2-2.5l-2.7-0.4l2-1.9l-0.5-2.7l2.4,1.3l2.4-1.3l-0.5,2.7l2,1.9l-2.7,0.4L104.2,39.1z M101,36
		l2.2,0.3l1,2l1-2l2.2-0.3l-1.6-1.6l0.4-2.1l-1.9,1l-2-1l0.4,2.1L101,36z"/>
</g>
<g>
	<path class="st0" d="M120.6,98.6l-0.9-1.8l-2-0.3l1.4-1.4l-0.3-1.9l1.8,0.9l1.8-0.9l-0.3,1.9l1.4,1.4l-2,0.3L120.6,98.6z
		 M118.5,96.2l1.4,0.2l0.7,1.3l0.6-1.3l1.4-0.2l-1-1l0.2-1.4l-1.3,0.7l-1.3-0.7l0.2,1.4L118.5,96.2z"/>
</g>
</svg>
