<?xml version="1.0" encoding="utf-8"?>
<!-- Generator: Adobe Illustrator 24.0.1, SVG Export Plug-In . SVG Version: 6.00 Build 0)  -->
<svg version="1.1" id="Layer_1" xmlns="http://www.w3.org/2000/svg" xmlns:xlink="http://www.w3.org/1999/xlink" x="0px" y="0px"
	 viewBox="0 0 141.7 141.7" style="enable-background:new 0 0 141.7 141.7;" xml:space="preserve">
<style type="text/css">
	.st0{fill:#231F20;}
	.st1{fill:#070707;}
</style>
<g id="Layer_1_1_">
</g>
<g id="Layer_1_2_">
</g>
<g id="Layer_1_3_">
</g>
<g id="Layer_1_4_">
</g>
<g id="Layer_1_5_">
</g>
<g id="Layer_3">
</g>
<g id="Layer_3_1_">
</g>
<g id="Layer_1_6_">
</g>
<g id="Layer_1_7_">
</g>
<g id="Layer_1_8_">
</g>
<g id="Layer_1_9_">
</g>
<g id="Layer_1_10_">
</g>
<g id="Layer_1_11_">
</g>
<g id="Layer_1_12_">
</g>
<g id="Layer_1_13_">
</g>
<g id="Layer_1_14_">
</g>
<g id="Layer_1_15_">
</g>
<g id="Layer_1_16_">
</g>
<g id="Layer_1_17_">
</g>
<g id="Layer_1_18_">
</g>
<g id="Layer_1_19_">
</g>
<g id="Layer_1_20_">
</g>
<g>
	<g>
		<g>
			<g>
				<path class="st0" d="M61,95.4C56,81.2,50.8,66.1,54.5,51c0.1-0.3-0.3-0.4-0.4-0.1c-3.7,15.2,1.4,30.5,6.5,44.7
					C60.7,95.8,61.1,95.7,61,95.4L61,95.4z"/>
			</g>
		</g>
		<g>
			<g>
				<path class="st0" d="M54.9,43.1c0.8-5.2,2.1-10.2,4-15.1c1.8-4.5,4.2-8.6,6.6-12.8c0.8-1.5,1.8-3.3,3.3-4.2
					c2.3-1.2,3.5,1.9,4.2,3.6c1.5,3.9,2.8,8,3.9,11.9c0.8,2.9,1.5,5.9,2,8.8c0.4,2.4,0.3,5.1,1.3,7.2c0.1,0.2,0.3,0.1,0.4,0
					c0.1-0.2,0.1-0.2,0-0.5c0-0.1-0.1-0.2-0.2-0.2c-0.1,0-0.1,0-0.2,0c-0.3,0-0.3,0.4,0,0.4c0,0,0,0.1-0.1,0.1c0.1,0,0.3,0,0.4,0
					c-0.6-1.3-0.7-2.8-0.8-4.3c-0.1-1.4-0.4-2.7-0.6-4.1c-0.6-3-1.3-5.9-2.2-8.8c-0.7-2.4-1.6-4.7-2.3-7.1c-0.5-1.8-1.1-3.7-1.9-5.3
					c-0.5-1-1.3-2.3-2.6-2.4c-1.3-0.1-2.4,1-3.2,1.9c-1.1,1.3-1.8,2.8-2.6,4.3c-1.5,2.5-2.9,5-4.2,7.7c-2.8,6-4.6,12.3-5.6,18.8
					C54.4,43.3,54.8,43.4,54.9,43.1L54.9,43.1z"/>
			</g>
		</g>
		<g>
			<g>
				<path class="st0" d="M81.6,50.8c1.4,7.8,1.4,15.8-0.1,23.6c-1.4,7.1-4.8,13.8-5.6,21c0,0.3,0.4,0.3,0.4,0
					c0.4-4,1.8-7.7,3.1-11.4c1.3-3.7,2.3-7.5,2.9-11.4c1.2-7.3,1.1-14.7-0.2-22C82,50.4,81.6,50.6,81.6,50.8L81.6,50.8z"/>
			</g>
		</g>
		<g>
			<g>
				<path class="st0" d="M61,95.6c1.8-0.1,3.6-0.1,5.4-0.2c0.3,0,0.3-0.4,0-0.4c-1.8,0.1-3.6,0.1-5.4,0.2
					C60.7,95.2,60.7,95.6,61,95.6L61,95.6z"/>
			</g>
		</g>
		<g>
			<g>
				<path class="st0" d="M70.5,95.9c0.9-0.1,1.8-0.2,2.8-0.2c0.2,0,2.8,0,2.7,0c-0.1-0.3-0.5-0.2-0.4,0.1c0,0,0,0,0,0.1
					c0,0.1,0.1,0.2,0.2,0.2c0.2,0,0.2,0,0.3-0.2c0.1-0.1,0-0.2,0-0.3c-0.4-0.5-1.6-0.3-2.3-0.3c-1.2,0-2.3,0.1-3.5,0.2
					C70.1,95.5,70.3,95.9,70.5,95.9L70.5,95.9z"/>
			</g>
		</g>
		<g>
			<g>
				<path class="st0" d="M52.6,61.5c-1.3,3.3-2.9,6.6-3.8,10c-0.4,1.4-0.2,2.9,0,4.4c0.2,1.9,0.4,3.8,0.6,5.6
					c0.9,7.2,1.9,14.4,3,21.5c0,0.3,0.4,0.2,0.4-0.1c-1.1-7.1-2.2-14.3-3-21.4c-0.4-3.1-1.4-7-0.5-10.1c0.9-3.3,2.5-6.6,3.8-9.7
					C53.1,61.3,52.7,61.2,52.6,61.5L52.6,61.5z"/>
			</g>
		</g>
		<g>
			<g>
				<path class="st0" d="M52.7,103.3c2.2,0.3,4.4,0.3,6.6,0.1c0.1,0,0.2-0.1,0.2-0.3c-0.3-1.6-0.7-3.2-1-4.8c-0.3-2-0.9-5.1,0.6-6.9
					c0.2-0.2-0.1-0.5-0.3-0.3c-1.7,2-1.1,5.3-0.6,7.6c0.2,0.9,0.3,1.7,0.5,2.6c0.2,0.8,0.5,1.4-0.4,1.7c-1.6,0.5-4,0-5.6-0.2
					C52.4,102.8,52.4,103.2,52.7,103.3L52.7,103.3z"/>
			</g>
		</g>
		<g>
			<g>
				<path class="st0" d="M77.2,91.4c3.4,3.4,0.1,8.5-0.4,12.4c0,0.1,0.1,0.2,0.2,0.2c2.1,0.3,4.1,0.3,6.1,0c0.1,0,0.1-0.1,0.2-0.2
					c1.2-10.1,2.9-20.2,5-30.2c0.1-0.3-0.3-0.4-0.4-0.1c-1.8,8.6-3.3,17.3-4.4,26c-0.1,1-0.1,2.3-0.4,3.3c-0.4,1.3-2,1.1-3.2,1.1
					c-0.4,0-1.2,0.1-1.5-0.1c-0.8-0.4-0.8-1.3-0.6-1.9c0.3-1,0.6-1.9,0.9-2.9c0.8-2.6,1.1-5.7-1-7.8C77.3,90.9,77,91.2,77.2,91.4
					L77.2,91.4z"/>
			</g>
		</g>
		<g>
			<g>
				<path class="st0" d="M88,73.8c-0.1-2-1.2-3.9-1.9-5.7c-1-2.4-2-4.7-3.1-7.1c-0.1-0.2-0.5,0-0.4,0.2c0.9,1.9,1.7,3.9,2.5,5.9
					c0.9,2,2.4,4.4,2.4,6.7C87.6,74,88,74,88,73.8L88,73.8z"/>
			</g>
		</g>
		<g>
			<g>
				<path class="st1" d="M63.8,53.5c0.1,0,0.2,0,0.3,0c0-0.1,0-0.3-0.1-0.4c-1.8,0.7-5,2.4-4.6,4.8c0.2,1.3,1.7,2.2,2.9,2.4
					c2.2,0.4,4.3-1,6.4-1c2.3-0.1,7.1,2.8,7.5-1.4c0.3-2.9-3.3-4.4-5.4-5.3c-0.3-0.1-0.4,0.3-0.1,0.4c2,0.8,5.7,2.4,5.1,5.1
					c-0.8,3.3-4.9,0.7-7.1,0.7c-1.2,0-2.4,0.4-3.5,0.7c-1.6,0.4-4.7,0.7-5.4-1.5c-0.7-2.2,2.7-4,4.3-4.6c0.2-0.1,0.2-0.4-0.1-0.4
					c-0.1,0-0.3,0-0.4,0C63.5,53.1,63.6,53.5,63.8,53.5L63.8,53.5z"/>
			</g>
		</g>
		<g>
			<path class="st1" d="M74.4,52.3c-2.8,0-5.1-2.3-5-5.1s2.3-5.1,5.1-5c2.8,0,5.1,2.3,5,5.1C79.5,50,77.2,52.3,74.4,52.3z
				 M74.5,42.6c-2.5,0-4.6,2-4.6,4.5c0,2.5,2,4.6,4.5,4.6c2.5,0,4.6-2,4.6-4.5C79,44.7,77,42.6,74.5,42.6z"/>
		</g>
		<g>
			<path class="st1" d="M61.5,52.1c-2.8,0-5.1-2.3-5-5.1c0-2.8,2.3-5.1,5.1-5s5.1,2.3,5,5.1C66.6,49.9,64.3,52.2,61.5,52.1z
				 M61.6,42.5c-2.5,0-4.6,2-4.6,4.5c0,2.5,2,4.6,4.5,4.6c2.5,0,4.6-2,4.6-4.5C66.2,44.5,64.1,42.5,61.6,42.5z"/>
		</g>
		<g>
			<path class="st1" d="M72.3,52.4c0-1.4-1.9-2.5-4.4-2.5s-4.4,1.1-4.5,2.4c0,1.4,1.9,2.5,4.4,2.5C70.3,54.8,72.3,53.7,72.3,52.4z"
				/>
		</g>
		<g>
			<path class="st1" d="M59.3,49.3c1.3,1.3,3.3,1.3,4.6,0c1.3-1.3,1.3-3.3,0-4.6c-1.3-1.3-3.3-1.3-4.6,0C58,46,58,48,59.3,49.3z
				 M62.1,44.6c0.3,0.4,0.3,1,0,1.3c-0.4,0.3-1,0.3-1.3,0c-0.3-0.4-0.3-1,0-1.3C61.2,44.3,61.8,44.3,62.1,44.6z"/>
		</g>
		<g>
			<path class="st1" d="M77.9,52.3l-20.1-0.2c-2.4,0-4.3-2-4.3-4.4v-1.5c0-2.4,2-4.3,4.4-4.3L78,42.1c2.4,0,4.3,2,4.3,4.4V48
				C82.3,50.4,80.4,52.3,77.9,52.3z M58,42.4c-2.1,0-3.9,1.7-3.9,3.8v1.5c0,2.1,1.7,3.9,3.8,3.9L78,51.8c2.1,0,3.9-1.7,3.9-3.8v-1.5
				c0-2.1-1.7-3.9-3.8-3.9L58,42.4z"/>
		</g>
		<g>
			<g>
				<path class="st1" d="M67.9,59.2c-0.4,11.7,0.9,23.4,0.7,35.1c0,2.9-0.2,5.7-0.4,8.6c0,0.4-0.1,0.9-0.1,1.3
					c-0.1,0.7,0.2,1-0.6,0.8c-0.8-0.3-0.6-1.4-0.6-2.3c-0.1-1.6-0.2-3.1-0.2-4.7c-0.3-6-0.5-11.9-0.7-17.9
					c-0.2-6.8-0.2-13.5,0.1-20.3c0-0.3-0.4-0.3-0.4,0c-0.5,13.7,0.1,27.3,0.8,40.9c0,0.9-0.4,5,1.1,5.3c1.5,0.3,1.3-3.4,1.3-4.1
					c0.5-6.7,0.4-13.5,0.1-20.2c-0.3-7.5-0.7-15-0.4-22.5C68.3,59,67.9,59,67.9,59.2L67.9,59.2z"/>
			</g>
		</g>
		<g>
			<g>
				<path class="st1" d="M68.7,105.6c-0.1-0.4-0.2-0.9-0.3-1.3c-0.1,0-0.3,0.1-0.4,0.1c0.2,0.5,0.3,1,0.5,1.5c0,0.1,0.2,0.2,0.3,0.1
					c2.5-1.2,1.8-5.1,1.8-7.3c0-4.4,0-8.8,0-13.1c0-8.8,0.1-17.5,0.1-26.3c0-0.3-0.4-0.3-0.4,0c0,8.1-0.1,16.2-0.1,24.3
					c0,3.9,0,7.9,0,11.8c0,2,0,4.1,0,6.1c0,0.9,0,1.7-0.2,2.5c-0.1,0.3-0.4,1.2-0.8,1.4c-0.7,0.3-0.7-0.5-0.8-1
					c-0.1-0.3-0.5-0.2-0.4,0.1c0.1,0.4,0.2,0.9,0.3,1.3C68.3,106,68.7,105.9,68.7,105.6L68.7,105.6z"/>
			</g>
		</g>
		<g>
			<g>
				<path class="st1" d="M54,103.1c-1-6.9-1.9-13.8-2.9-20.7c-0.4-3.3-1.3-6.8-1.3-10.2c0-3.3,2.4-5.4,3.2-8.4
					c0.1-0.3-0.3-0.4-0.4-0.1c-0.8,2.7-2.9,4.7-3.2,7.6c-0.3,3.2,0.6,6.7,1.1,9.8c1,7.3,2,14.7,3.1,22C53.6,103.5,54,103.4,54,103.1
					L54,103.1z"/>
			</g>
		</g>
		<g>
			<g>
				<path class="st1" d="M82.1,103.8c0.8-7.5,1.8-14.9,3.1-22.3c0.5-3.1,1.6-6.4,1.3-9.5c-0.3-3.3-2.1-6.7-3.3-9.8
					c-0.1-0.2-0.5-0.1-0.4,0.1c1.3,3.2,3.2,6.8,3.4,10.3c0.1,3.5-1.1,7.3-1.6,10.7c-1.1,6.8-2,13.6-2.8,20.4
					C81.6,104,82.1,104,82.1,103.8L82.1,103.8z"/>
			</g>
		</g>
		<g>
			<path class="st1" d="M72.1,49.4c1.3,1.3,3.3,1.3,4.6,0s1.3-3.3,0-4.6c-1.3-1.3-3.3-1.3-4.6,0C70.9,46.1,70.9,48.2,72.1,49.4z
				 M75,44.8c0.3,0.4,0.3,1,0,1.3c-0.4,0.3-1,0.3-1.3,0c-0.3-0.4-0.3-1,0-1.3C74,44.4,74.6,44.4,75,44.8z"/>
		</g>
		<g>
			<g>
				<path class="st1" d="M62.1,42c0.8-5.1,1.7-10.1,2.7-15.2c0.5-2.4,1-4.8,1.4-7.2c0.3-1.3,0.5-2.6,0.8-3.9
					c0.2-1.1,0.3-2.5,0.9-3.5c0.4-1.2,1.4-1.3,3.1-0.1c0,0.1,0,0.3,0.1,0.4c0.2,0.6,0.2,1.9,0.3,2.6c0.1,1.2,0.3,2.5,0.4,3.7
					c0.3,2.6,0.5,5.1,0.6,7.7c0.4,5.1,0.5,10.2,0.6,15.4c0,0.3,0.4,0.3,0.4,0c-0.1-6.2-0.3-12.5-0.9-18.7c-0.3-3.1-0.6-6.2-1-9.3
					c-0.2-1.3-0.1-3.6-2-3.6c-1.9,0-2.4,2.2-2.7,3.6c-0.7,3-1.3,6.1-1.9,9.2c-1.3,6.2-2.4,12.5-3.4,18.8C61.6,42.1,62,42.3,62.1,42
					L62.1,42z"/>
			</g>
		</g>
		<g>
			<g>
				<path class="st1" d="M54.1,47.1c0.3,0,0.3-0.4,0-0.4C53.8,46.7,53.8,47.1,54.1,47.1L54.1,47.1z"/>
			</g>
		</g>
		<g>
			<g>
				<path class="st1" d="M53.8,47.3c0.8,0.5,1.7,0.8,2.6,0.9c0.3,0,0.3-0.4,0-0.4c-0.9,0-1.7-0.3-2.4-0.8
					C53.8,46.8,53.6,47.1,53.8,47.3L53.8,47.3z"/>
			</g>
		</g>
		<g>
			<g>
				<path class="st1" d="M66.2,48.6c1.1,0,2.2,0,3.3,0c0.3,0,0.3-0.4,0-0.4c-1.1,0-2.2,0-3.3,0C65.9,48.2,65.9,48.6,66.2,48.6
					L66.2,48.6z"/>
			</g>
		</g>
		<g>
			<g>
				<path class="st1" d="M79.1,48.9c1.5,0,2.8-1.1,3-2.6c0-0.3-0.4-0.3-0.4,0c-0.1,1.3-1.3,2.3-2.6,2.2
					C78.8,48.4,78.8,48.9,79.1,48.9L79.1,48.9z"/>
			</g>
		</g>
		<g>
			<g>
				<path class="st1" d="M65.4,63.8c-0.1,0.6,0.2,1.3,0.8,1.6c0.6,0.2,1.3-0.1,1.7-0.6c0.1-0.2-0.2-0.4-0.4-0.2
					c-0.5,0.9-1.9,0.4-1.7-0.6C65.9,63.7,65.5,63.6,65.4,63.8L65.4,63.8z"/>
			</g>
		</g>
		<g>
			<g>
				<path class="st1" d="M67.8,64.7c0.9,0.9,2.6,0.3,2.8-0.9c0-0.3-0.4-0.4-0.4-0.1c-0.2,0.9-1.4,1.4-2.1,0.7
					C67.9,64.2,67.6,64.5,67.8,64.7L67.8,64.7z"/>
			</g>
		</g>
		<g>
			<g>
				<path class="st1" d="M58.5,102.9c-2.8-9.4-4.3-19.2-4.3-29c0-0.3-0.4-0.3-0.4,0c0,9.9,1.5,19.7,4.4,29.1
					C58.1,103.3,58.5,103.2,58.5,102.9L58.5,102.9z"/>
			</g>
		</g>
		<g>
			<g>
				<path class="st1" d="M78.4,104c3.4-9.4,4.6-19.3,3.5-29.2c0-0.3-0.4-0.3-0.4,0c1.1,9.8-0.1,19.8-3.5,29.1
					C77.9,104.2,78.3,104.3,78.4,104L78.4,104z"/>
			</g>
		</g>
		<g>
			<g>
				<path class="st1" d="M64.3,16.7c1.1-1.2,2.4-2.5,4.1-3c1.9-0.5,4.2,0.2,4.8,2.2c0.1,0.3,0.5,0.2,0.4-0.1
					c-0.5-1.7-2.1-2.7-3.9-2.7c-2.4,0-4.2,1.7-5.7,3.3C63.8,16.6,64.1,16.9,64.3,16.7L64.3,16.7z"/>
			</g>
		</g>
		<g>
			<path class="st1" d="M63,94c-0.8,0-1.5-0.7-1.4-1.5c0-0.8,0.7-1.5,1.5-1.4c0.8,0,1.5,0.7,1.4,1.5C64.4,93.3,63.8,94,63,94z
				 M63,91.6c-0.5,0-1,0.4-1,1c0,0.5,0.4,1,1,1c0.5,0,1-0.4,1-1C63.9,92,63.5,91.6,63,91.6z"/>
		</g>
		<g>
			<path class="st1" d="M73.2,94.1c-0.8,0-1.5-0.7-1.4-1.5c0-0.8,0.7-1.5,1.5-1.4c0.8,0,1.5,0.7,1.4,1.5
				C74.7,93.4,74,94.1,73.2,94.1z M73.3,91.7c-0.5,0-1,0.4-1,1c0,0.5,0.4,1,1,1s1-0.4,1-1C74.2,92.1,73.8,91.7,73.3,91.7z"/>
		</g>
		<g>
			<path class="st1" d="M76.3,40.5c-0.8,0-1.5-0.7-1.4-1.5c0-0.8,0.7-1.5,1.5-1.4c0.8,0,1.5,0.7,1.4,1.5
				C77.8,39.9,77.1,40.6,76.3,40.5z M76.3,38.2c-0.5,0-1,0.4-1,1s0.4,1,1,1c0.5,0,1-0.4,1-1S76.8,38.2,76.3,38.2z"/>
		</g>
		<g>
			<path class="st1" d="M58.9,40.4c-0.8,0-1.5-0.7-1.4-1.5c0-0.8,0.7-1.5,1.5-1.4c0.8,0,1.5,0.7,1.4,1.5
				C60.4,39.7,59.7,40.4,58.9,40.4z M59,38c-0.5,0-1,0.4-1,1c0,0.5,0.4,1,1,1c0.5,0,1-0.4,1-1C59.9,38.4,59.5,38,59,38z"/>
		</g>
		<g>
			<path class="st1" d="M76,35.3c-0.8,0-1.5-0.7-1.4-1.5c0-0.8,0.7-1.5,1.5-1.4c0.8,0,1.5,0.7,1.4,1.5C77.5,34.6,76.8,35.3,76,35.3z
				 M76.1,32.9c-0.5,0-1,0.4-1,1c0,0.5,0.4,1,1,1c0.5,0,1-0.4,1-1S76.6,32.9,76.1,32.9z"/>
		</g>
		<g>
			<path class="st1" d="M60.2,35.1c-0.8,0-1.5-0.7-1.4-1.5c0-0.8,0.7-1.5,1.5-1.4s1.5,0.7,1.4,1.5C61.6,34.5,61,35.1,60.2,35.1z
				 M60.2,32.7c-0.5,0-1,0.4-1,1c0,0.5,0.4,1,1,1c0.5,0,1-0.4,1-1C61.1,33.1,60.7,32.7,60.2,32.7z"/>
		</g>
		<g>
			<path class="st1" d="M75.2,30.8c-0.5,0-1-0.4-1-1s0.4-1,1-1c0.5,0,1,0.4,1,1S75.7,30.8,75.2,30.8z M75.2,29.3
				c-0.3,0-0.5,0.2-0.5,0.5s0.2,0.5,0.5,0.5c0.3,0,0.5-0.2,0.5-0.5S75.5,29.3,75.2,29.3z"/>
		</g>
		<g>
			<path class="st1" d="M61,30.4c-0.5,0-1-0.4-1-1c0-0.5,0.4-1,1-1c0.6,0,1,0.4,1,1C62,30,61.6,30.4,61,30.4z M61,28.9
				c-0.3,0-0.5,0.2-0.5,0.5c0,0.3,0.2,0.5,0.5,0.5s0.5-0.2,0.5-0.5C61.5,29.1,61.3,28.9,61,28.9z"/>
		</g>
		<g>
			<path class="st1" d="M73.8,89.6c-0.5,0-1-0.4-1-1c0-0.5,0.4-1,1-1s1,0.4,1,1C74.8,89.2,74.4,89.6,73.8,89.6z M73.8,88.1
				c-0.3,0-0.5,0.2-0.5,0.5c0,0.3,0.2,0.5,0.5,0.5s0.5-0.2,0.5-0.5C74.3,88.4,74.1,88.1,73.8,88.1z"/>
		</g>
		<g>
			<path class="st1" d="M62.3,90.2c-0.5,0-1-0.4-1-1s0.4-1,1-1c0.5,0,1,0.4,1,1C63.3,89.7,62.8,90.2,62.3,90.2z M62.3,88.7
				c-0.3,0-0.5,0.2-0.5,0.5s0.2,0.5,0.5,0.5c0.3,0,0.5-0.2,0.5-0.5C62.8,88.9,62.5,88.7,62.3,88.7z"/>
		</g>
		<g>
			<path class="st1" d="M84.2,73.4c-0.8,0-1.5-0.7-1.4-1.5c0-0.8,0.7-1.5,1.5-1.4c0.8,0,1.5,0.7,1.4,1.5
				C85.7,72.8,85.1,73.4,84.2,73.4z M84.3,71c-0.5,0-1,0.4-1,1c0,0.5,0.4,1,1,1c0.5,0,1-0.4,1-1C85.2,71.4,84.8,71,84.3,71z"/>
		</g>
		<g>
			<path class="st1" d="M51.9,73.1c-0.8,0-1.5-0.7-1.4-1.5c0-0.8,0.7-1.5,1.5-1.4c0.8,0,1.5,0.7,1.4,1.5
				C53.3,72.4,52.7,73.1,51.9,73.1z M51.9,70.7c-0.5,0-1,0.4-1,1c0,0.5,0.4,1,1,1c0.5,0,1-0.4,1-1C52.8,71.1,52.4,70.7,51.9,70.7z"
				/>
		</g>
	</g>
	<g>
		<g>
			<path class="st0" d="M67.9,109.3c-0.1,8.1-0.2,16.3-0.3,24.4c0,0.3,0.4,0.3,0.4,0c0.1-8.1,0.2-16.3,0.3-24.4
				C68.4,109,67.9,109,67.9,109.3L67.9,109.3z"/>
		</g>
	</g>
	<g>
		<g>
			<path class="st0" d="M64.6,110c0,3.6,0.1,7.3,0.1,10.9c0,0.3,0.4,0.3,0.4,0c0-3.6-0.1-7.3-0.1-10.9C65,109.7,64.6,109.7,64.6,110
				L64.6,110z"/>
		</g>
	</g>
	<g>
		<g>
			<path class="st0" d="M71.3,109.6c0,3.6,0.1,7.3,0.1,10.9c0,0.3,0.4,0.3,0.4,0c0-3.6-0.1-7.3-0.1-10.9
				C71.8,109.3,71.3,109.3,71.3,109.6L71.3,109.6z"/>
		</g>
	</g>
</g>
</svg>
