<?xml version="1.0" encoding="utf-8"?>
<!-- Generator: Adobe Illustrator 24.0.1, SVG Export Plug-In . SVG Version: 6.00 Build 0)  -->
<svg version="1.1" id="Layer_1" xmlns="http://www.w3.org/2000/svg" xmlns:xlink="http://www.w3.org/1999/xlink" x="0px" y="0px"
	 viewBox="0 0 141.7 141.7" style="enable-background:new 0 0 141.7 141.7;" xml:space="preserve">
<style type="text/css">
	.st0{fill:#231F20;}
	.st1{fill:#070707;}
</style>
<g id="Layer_1_1_">
</g>
<g id="Layer_1_2_">
</g>
<g id="Layer_1_3_">
</g>
<g id="Layer_1_4_">
</g>
<g id="Layer_1_5_">
</g>
<g id="Layer_3">
</g>
<g id="Layer_3_1_">
</g>
<g id="Layer_1_6_">
</g>
<g id="Layer_1_7_">
</g>
<g id="Layer_1_8_">
</g>
<g id="Layer_1_9_">
</g>
<g id="Layer_1_10_">
</g>
<g id="Layer_1_11_">
</g>
<g id="Layer_1_12_">
</g>
<g id="Layer_1_13_">
</g>
<g id="Layer_1_14_">
</g>
<g id="Layer_1_15_">
</g>
<g id="Layer_1_16_">
</g>
<g id="Layer_1_17_">
</g>
<g id="Layer_1_18_">
</g>
<g id="Layer_1_19_">
</g>
<g id="Layer_1_20_">
</g>
<g>
	<g>
		<g>
			<path class="st0" d="M44.8,112.5c-6.1-4.4-7.9-12.3-7.9-19.5c0-4.6,0.9-9.3,1.7-13.9c0.8-4.7,1-9.3,0.7-14.1
				c-0.2-2.7-0.6-5.3-0.7-8c-0.1-2.9,0.5-5.7,1.3-8.4c0.2-0.6-0.8-0.9-1-0.3c-0.7,2.3-1.2,4.7-1.3,7.1c-0.1,2.6,0.3,5.2,0.6,7.7
				c0.5,5.3,0.4,10.4-0.5,15.6c-1.4,8.2-2.9,16.8-0.1,24.9c1.3,3.8,3.5,7.2,6.8,9.6C44.8,113.8,45.3,112.9,44.8,112.5L44.8,112.5z"
				/>
		</g>
	</g>
	<g>
		<g>
			<path class="st0" d="M74.5,122.1c-8.1-1.3-15.9-3.5-23.5-6.5c-0.6-0.2-0.9,0.7-0.3,1c7.6,3,15.5,5.1,23.5,6.5
				C74.8,123.1,75.1,122.2,74.5,122.1L74.5,122.1z"/>
		</g>
	</g>
	<g>
		<g>
			<path class="st0" d="M98.9,51.1c-0.3,3.2-0.5,6.5-0.3,9.7c0.2,3.1,0.9,6.1,1.8,9c1.8,5.9,4.5,11.4,5.9,17.4
				c0.8,3.3,1.2,6.6,1.2,10c0,1.7,0,3.4-0.2,5.1c-0.1,0.9-0.3,2,0.5,2.7c0.9,0.7,2,0.6,2.8,1.5c0.6,0.8,0.3,1.2-0.7,1.3
				c-0.5,0.1-1.1,0.2-1.6,0.4c-2.2,0.9-3.4,3.3-4.6,5.2c-3.5,5.6-9.8,8.9-16.4,9c-0.6,0-0.6,1,0,1c5.5-0.1,10.9-2.3,14.8-6.3
				c2-2,3-4.7,5-6.8c1-1.1,2-1.3,3.4-1.6c0.8-0.2,1.5-0.5,1.5-1.4c0-0.8-0.6-1.5-1.1-2c-0.4-0.3-0.8-0.6-1.3-0.8
				c-0.2-0.1-0.6-0.1-0.8-0.3c-0.8-0.6-0.6-1.4-0.5-2.2c0.4-3.2,0.3-6.6-0.1-9.8c-0.7-6.5-3.1-12.4-5.4-18.4
				c-1.3-3.5-2.5-7.1-3-10.8c-0.6-4-0.3-8,0-12C100,50.4,99,50.4,98.9,51.1L98.9,51.1z"/>
		</g>
	</g>
	<g>
		<g>
			<path class="st0" d="M96.8,34.5c1.1,1.9,1.8,3.9,2.2,6.1c0.1,0.6,1.1,0.4,1-0.3c-0.4-2.2-1.1-4.4-2.3-6.3
				C97.3,33.5,96.4,34,96.8,34.5L96.8,34.5z"/>
		</g>
	</g>
	<g>
		<g>
			<path class="st0" d="M64.3,20.8c6-1.3,12.4-1,18.2,1.2c2.9,1.1,5.7,2.7,8,4.8c1.2,1,2.2,2.1,3.2,3.3c1.2,1.5,2,3.1,3.1,4.7
				c0.4,0.5,1.3,0,0.9-0.5c-1.1-1.5-1.8-3.1-3-4.6c-1.1-1.3-2.3-2.6-3.6-3.7c-2.4-2-5.1-3.6-8-4.8c-6-2.4-12.7-2.7-19-1.3
				C63.4,20,63.7,20.9,64.3,20.8L64.3,20.8z"/>
		</g>
	</g>
	<g>
		<g>
			<path class="st0" d="M47,31.7c0.3-2.2,2.2-3.6,3.9-4.8c0.5-0.4,0-1.3-0.5-0.9c-1.9,1.4-3.9,2.9-4.3,5.4
				C45.9,32.1,46.9,32.4,47,31.7L47,31.7z"/>
		</g>
	</g>
	<path class="st1" d="M46.9,37.7c0.1,1.5,1.3,2.6,2.7,2.5c1.5-0.1,2.6-1.3,2.5-2.7c-0.1-1.5-1.3-2.6-2.7-2.5
		C48,35,46.8,36.2,46.9,37.7z M51.2,36.5c0,0.4-0.3,0.7-0.7,0.8c-0.4,0-0.7-0.3-0.8-0.7c0-0.4,0.3-0.7,0.7-0.8
		C50.8,35.7,51.2,36,51.2,36.5z"/>
	<g>
		<g>
			<path class="st0" d="M46.7,30.2c-5.4-1-10.9,2.9-12.6,8c-1.5,4.6,1.1,10.4,6.4,10.6c0.4,0,0.4-0.6,0-0.7
				c-5.1-0.2-7.2-5.9-5.7-10.2c1.7-4.6,6.7-8,11.6-7.2C46.9,31,47.1,30.3,46.7,30.2L46.7,30.2z"/>
		</g>
	</g>
	<g>
		<g>
			<path class="st0" d="M45.1,50.8c-1-0.3-1.7,0.4-2.6,0.7c-1.9,0.5-2.2-2.3-1.6-3.4c0.2-0.4-0.4-0.7-0.6-0.3
				c-0.7,1.2-0.6,2.9,0.4,3.9c0.5,0.5,1,0.7,1.7,0.6c0.8-0.2,1.6-1,2.5-0.7C45.3,51.6,45.5,50.9,45.1,50.8L45.1,50.8z"/>
		</g>
	</g>
	<g>
		<path class="st0" d="M40.5,47.7c0.1,0.5,0.6,0.8,1.2,0.9c0.5,0,1-0.1,1.5-0.3c0.8-0.3,1.7-0.6,2.5-0.9c0.8-0.3,1.6-0.6,2.2-1.2
			c0.6-0.6,0.9-1.6,0.5-2.3c-0.2-0.4-0.6-0.6-1-0.9c-1.6-0.9-3.6-0.9-5.1,0.1c-1.5,1-2.3,3.1-1.6,4.7"/>
	</g>
	<g>
		<g>
			<path class="st0" d="M48,43.9c2,0.7,4.1,3.2,2.1,5.1c-1.5,1.5-4,1.2-5.9,1.6c-0.4,0.1-0.2,0.7,0.2,0.6c2.3-0.5,6.1-0.2,7-3.2
				c0.7-2.3-1.3-4.2-3.2-4.9C47.8,43.1,47.6,43.8,48,43.9L48,43.9z"/>
		</g>
	</g>
	<g>
		<g>
			<path class="st0" d="M47.8,50.8c0.1,1.3,0.3,2.9-0.4,4.1c-0.2,0.4-0.8,1.2-1.4,0.5c-0.2-0.2-0.3-0.9-0.4-1.2
				c-0.2-0.9-0.3-1.9-0.2-2.8c0-0.4-0.6-0.4-0.7,0c-0.1,1,0.1,5.8,2.1,5c2-0.8,1.8-3.9,1.7-5.6C48.4,50.3,47.7,50.3,47.8,50.8
				L47.8,50.8z"/>
		</g>
	</g>
	<g>
		<g>
			<path class="st0" d="M46.1,56c-2.1-0.2-3.2-2.2-2.4-4.1c0.2-0.4-0.5-0.6-0.6-0.2c-1,2.3,0.6,4.7,3.1,4.9
				C46.6,56.7,46.6,56,46.1,56L46.1,56z"/>
		</g>
	</g>
	<g>
		<g>
			<path class="st1" d="M85,75.5c0.3,2.6,1.4,5.4,3.5,7.1c1.5,1.2,3.2,1.3,4.3-0.3c0.2-0.3-0.3-0.7-0.6-0.3c-1.5,2.2-3.7,0-4.7-1.5
				c-1-1.5-1.6-3.3-1.8-5.1C85.6,74.8,84.9,75,85,75.5L85,75.5z"/>
		</g>
	</g>
	<g>
		<g>
			<path class="st1" d="M90.4,79.5c0.4,1,1.1,2.4,2.4,2.5c1.2,0.1,2-1.1,2.1-2.1c0.5-2.7-2-5.8-3.9-7.4c-0.3-0.3-0.8,0.2-0.5,0.5
				c1.4,1.3,2.7,2.9,3.3,4.7c0.4,0.9,0.6,2,0.1,2.9c-1,1.9-2.5,0-2.9-1.2C90.9,78.9,90.3,79.1,90.4,79.5L90.4,79.5z"/>
		</g>
	</g>
	<g>
		<g>
			<path class="st1" d="M47,112.8c2.5-0.4,2.9,2.8,4,4.3c0.1-0.2,0.2-0.4,0.2-0.6c-2.5-0.3-6.9,3.3-8.7,0.5c-1.7-2.8,3.4-4,5.2-4.3
				c0.4-0.1,0.2-0.7-0.2-0.6c-2.1,0.4-7.1,1.6-5.9,4.7c1.6,4.4,6.7,0,9.6,0.4c0.3,0.1,0.4-0.4,0.2-0.6c-1.4-1.8-1.7-5-4.7-4.5
				C46.4,112.2,46.6,112.8,47,112.8L47,112.8z"/>
		</g>
	</g>
	<g>
		<g>
			<path class="st1" d="M42.9,117.3c0-1.4,1.3-2.1,2.5-2.3c0.4-0.1,0.2-0.7-0.2-0.6c-1.5,0.3-3,1.3-3,2.9
				C42.2,117.7,42.9,117.7,42.9,117.3L42.9,117.3z"/>
		</g>
	</g>
	<g>
		<g>
			<path class="st1" d="M79.3,119.4c3.3-2,5.4,2.4,7.9,3.8c0-0.2,0.1-0.4,0.1-0.6c-1.9,0.4-3.5,1.8-4.9,3.1
				c-1.5,1.3-3.7,3.5-5.9,2.7c-1.1-0.4-2.3-1.5-2.3-2.8c0-1.1,0.7-2.1,1.4-2.9c1.3-1.6,3.1-2.8,4.8-3.8c0.4-0.2,0-0.8-0.3-0.6
				c-2.8,1.7-9.3,6.2-5.2,9.8c4.6,4,8.5-4,12.7-4.8c0.3-0.1,0.3-0.5,0.1-0.6c-2.8-1.6-4.9-6-8.6-3.8C78.6,119,79,119.6,79.3,119.4
				L79.3,119.4z"/>
		</g>
	</g>
	<g>
		<g>
			<path class="st1" d="M76,127.9c-0.7-2,0.7-3.6,2.2-4.6c0.4-0.2,0-0.8-0.3-0.6c-1.8,1.1-3.4,3.1-2.6,5.3
				C75.5,128.5,76.1,128.3,76,127.9L76,127.9z"/>
		</g>
	</g>
	<g>
		<g>
			<path class="st1" d="M88.8,24.2c3.5-2.5,9.3-4.3,12.5-0.4c2.9,3.6,2.3,9.9-2.5,11.5c-0.4,0.1-0.2,0.8,0.2,0.6
				c5.1-1.7,6-8.1,3.2-12.2c-3.2-4.7-9.7-3.1-13.7-0.2C88.1,23.8,88.4,24.4,88.8,24.2L88.8,24.2z"/>
		</g>
	</g>
	<path class="st1" d="M98,27.9c-0.2-1.2-1.3-2.1-2.5-1.9c-1.2,0.2-2.1,1.3-1.9,2.5c0.2,1.2,1.3,2.1,2.5,1.9
		C97.3,30.2,98.1,29.1,98,27.9z"/>
	<path class="st1" d="M35.6,38.9c0.1,1.5,1.3,2.6,2.7,2.5c1.5-0.1,2.6-1.3,2.5-2.7c-0.1-1.5-1.3-2.6-2.7-2.5
		C36.6,36.2,35.5,37.5,35.6,38.9z M39.8,37.7c0,0.4-0.3,0.7-0.7,0.8c-0.4,0-0.7-0.3-0.8-0.7c0-0.4,0.3-0.7,0.7-0.8
		C39.5,37,39.8,37.3,39.8,37.7z"/>
	<g>
		<g>
			<path class="st0" d="M45.8,42.8c-2.8-3.4-1.4-8.4,1.8-10.9c3.3-2.7,8.7-3.8,12.5-1.6c2,1.2,4,2.8,4.4,5.2
				c0.3,2.1-0.3,4.4-1.4,6.2c-2.4,4-7.2,5.7-11.7,4.4c-0.4-0.1-0.6,0.5-0.2,0.6c3.7,1.1,7.8,0.2,10.6-2.5c2.6-2.4,4.4-6.8,2.9-10.3
				c-1.4-3.5-5.8-5.8-9.4-5.6c-3.7,0.1-7.7,1.7-10,4.7c-2.2,2.9-2.5,7.3-0.1,10.2C45.6,43.6,46.1,43.2,45.8,42.8L45.8,42.8z"/>
		</g>
	</g>
	<g>
		<g>
			<path class="st1" d="M38.5,69.4c-2.5,0.1-5.2,0.8-7.2,2.4c-1.6,1.3-2.2,3.2-0.5,4.6c0.3,0.3,0.8-0.2,0.5-0.5
				c-2-1.7,0.2-3.6,1.8-4.5c1.7-0.9,3.5-1.4,5.4-1.4C38.9,70.1,38.9,69.4,38.5,69.4L38.5,69.4z"/>
		</g>
	</g>
	<g>
		<g>
			<path class="st1" d="M33.8,74.5c-1.5,0.4-3.7,1.8-2.3,3.5c1.7,2.2,5.1,0.6,6.9-0.5c0.4-0.2,0-0.8-0.3-0.6
				c-1.4,0.8-3.1,1.7-4.7,1.3c-1.1-0.2-2.1-1.4-1-2.4c0.5-0.4,1.1-0.7,1.7-0.8C34.4,75,34.2,74.4,33.8,74.5L33.8,74.5z"/>
		</g>
	</g>
	<g>
		<g>
			<path class="st1" d="M67.9,19.6c0.8-3,4.5-4.3,7.2-3.8c2.8,0.5,4.9,2.5,5.7,5.1c0.1,0.4,0.8,0.2,0.6-0.2c-0.9-3-3.4-5.3-6.5-5.7
				c-3-0.4-6.9,1.1-7.7,4.3C67.2,19.9,67.8,20,67.9,19.6L67.9,19.6z"/>
		</g>
	</g>
	<g>
		<g>
			<path class="st1" d="M98.4,44c0.1-1.7,1.2-2.9,2.5-3.7c0.5-0.3,1.1-0.6,1.7-0.9c0.3-0.1,0.6-0.3,0.9-0.4c0.2-0.1,0.3-0.1,0.5,0
				c0.4-0.1,0.5,0.1,0.3,0.5c0.8,3.5-3.2,5.8-6.1,4.4c-0.4-0.2-0.7,0.4-0.3,0.6c1.7,0.8,3.8,0.7,5.3-0.5c1.8-1.5,1.6-3.3,1.8-5.4
				c0-0.1-0.1-0.3-0.2-0.3c-1.5-0.3-3.7,1-4.8,1.8c-1.3,1-2.2,2.3-2.3,3.9C97.7,44.4,98.3,44.4,98.4,44L98.4,44z"/>
		</g>
	</g>
	<g>
		<g>
			<path class="st1" d="M97.7,44.8c-0.6,1.8-0.3,3.7,0.8,5.3c0.6,0.8,2.7,2.7,3.9,2c0.5-0.3,0.6-1.4,0.8-1.9c0.2-0.9,0.3-2,0.1-2.9
				c-0.5-1.7-1.9-2.8-3.6-3.1c-0.4-0.1-0.6,0.6-0.2,0.6c1.2,0.2,2.3,0.9,2.9,2c0.4,0.8,0.6,4.2-0.5,4.5c-1.1,0.3-2.6-1.3-3.1-2.1
				c-0.8-1.3-0.9-2.8-0.4-4.3C98.5,44.5,97.8,44.4,97.7,44.8L97.7,44.8z"/>
		</g>
	</g>
	<g>
		<g>
			<path class="st1" d="M97.7,42.9c-3-1.7-1.6-5.3-0.2-7.6c-0.2,0-0.4,0-0.6,0c0.5,1.2,1,2.3,1.3,3.5c0.2,1.2,0.6,3.6-0.9,4.2
				c-0.4,0.2-0.2,0.8,0.2,0.6c3.2-1.2,0.9-6.7,0-8.7c-0.1-0.2-0.5-0.2-0.6,0c-1.6,2.6-2.8,6.7,0.5,8.5C97.8,43.6,98.1,43,97.7,42.9
				L97.7,42.9z"/>
		</g>
	</g>
	<g>
		<g>
			<path class="st1" d="M97.6,43c-1.1-1.1-2.6-0.5-3.5,0.6c-1.2,1.7-1.3,4-0.6,6c0.1,0.2,0.3,0.3,0.5,0.2c2.6-1.4,4.2-4,4.3-6.9
				c0-0.4-0.7-0.4-0.7,0c-0.1,2.7-1.6,5.1-4,6.3c0.2,0.1,0.3,0.1,0.5,0.2c-0.4-1.2-0.5-2.5-0.2-3.7c0.3-1.2,1.6-3.8,3.2-2.2
				C97.4,43.8,97.9,43.3,97.6,43L97.6,43z"/>
		</g>
	</g>
	<g>
		<g>
			<path class="st1" d="M95.4,39c-2.7-1.6-6.1-0.6-7.5,2.3c-0.1,0.2-0.1,0.3,0.1,0.5c1.5,0.9,3.6,1.7,5.4,1.2c1.5-0.4,1.8-2,2-3.4
				c0.1-0.4-0.6-0.4-0.7,0c-0.2,1.6-0.7,2.9-2.5,2.8c-1.4,0-2.7-0.5-3.8-1.2c0,0.2,0.1,0.3,0.1,0.5c1.2-2.6,4.1-3.5,6.6-2.1
				C95.4,39.8,95.8,39.2,95.4,39L95.4,39z"/>
		</g>
	</g>
	<g>
		<g>
			<path class="st1" d="M92.4,42.4c-1.2,0.8-1.7,2.2-1.4,3.5c0.1,0.2,0.2,0.3,0.4,0.2c0.5-0.1,1-0.2,1.6-0.2
				c0.4-0.1,0.2-0.7-0.2-0.6c-0.5,0.1-1,0.2-1.6,0.2c0.1,0.1,0.3,0.2,0.4,0.2c-0.3-1.1,0.1-2.2,1-2.8C93.1,42.7,92.8,42.1,92.4,42.4
				L92.4,42.4z"/>
		</g>
	</g>
	<g>
		<g>
			<path class="st1" d="M94.8,38.4c-2-2.1-2.3-5.2-0.9-7.7c-0.2,0-0.4,0-0.6,0c1.4,1.9,2.9,4,2.2,6.5c-0.1,0.4,0.5,0.6,0.6,0.2
				c0.7-2.7-0.7-5-2.3-7c-0.1-0.2-0.4-0.2-0.6,0c-1.6,2.7-1.2,6.2,1,8.5C94.6,39.2,95.1,38.8,94.8,38.4L94.8,38.4z"/>
		</g>
	</g>
	<g>
		<g>
			<path class="st1" d="M91,38.4c-2.2,0.5-4.4-0.6-5.5-2.6c0,0.2-0.1,0.3-0.1,0.5c2-0.9,4.3-1.8,6.4-0.7c0.4,0.2,0.7-0.4,0.3-0.6
				c-2.4-1.3-4.8-0.3-7.1,0.7c-0.2,0.1-0.2,0.3-0.1,0.5c1.2,2.3,3.7,3.5,6.2,2.9C91.6,38.9,91.4,38.3,91,38.4L91,38.4z"/>
		</g>
	</g>
	<g>
		<g>
			<path class="st1" d="M90.5,34.4c-2.4-1.3-0.5-5.2,0-7.2c-0.2,0.1-0.4,0.1-0.6,0.2c2,2,2.4,5,1.1,7.4c-0.2,0.4,0.4,0.7,0.6,0.3
				c1.5-2.7,1-6.1-1.2-8.2c-0.2-0.2-0.5-0.1-0.6,0.2c-0.6,2.3-2.5,6.3,0.3,7.9C90.6,35.2,90.9,34.6,90.5,34.4L90.5,34.4z"/>
		</g>
	</g>
	<g>
		<g>
			<path class="st1" d="M89.1,32.7c-1.8-1.6-4.7-3-7.2-2.1c-1,0.3-1.8,1.2-2.4,2c-0.5,0.7-1.5,2-1.3,3c0.4,2.3,4.5,1.2,5.8,0.5
				c1.1-0.6,4.7-3.1,3-4.6c-0.3-0.3-0.8,0.2-0.5,0.5c1.2,1.1-3.1,3.7-3.8,4c-0.8,0.3-1.7,0.5-2.5,0.2c-1.7-0.5-0.9-1.9-0.3-2.8
				c0.9-1.5,2.1-2.5,4-2.4c1.8,0.1,3.5,1,4.8,2.2C88.9,33.4,89.4,32.9,89.1,32.7L89.1,32.7z"/>
		</g>
	</g>
	<g>
		<g>
			<path class="st1" d="M82.5,36.2c0,0.8,0,1.6,0.1,2.4c0.1,0.5,0.1,1,0.6,1.2c1.1,0.2,2.4-0.7,3.1-1.4c0.3-0.3-0.2-0.8-0.5-0.5
				c-0.3,0.3-0.7,0.6-1.1,0.8c-0.3,0.1-0.9,0.5-1.2,0.4c-0.2-0.1-0.2-0.2-0.3-0.4c-0.1-0.3-0.1-0.6-0.1-0.9c0-0.5,0-1,0-1.5
				C83.2,35.8,82.5,35.8,82.5,36.2L82.5,36.2z"/>
		</g>
	</g>
	<g>
		<g>
			<path class="st1" d="M86,30.6c-0.9-1.9,1-3.3,2.4-4.3c-0.2,0-0.3-0.1-0.5-0.1c0.7,1.6,1.7,4.6-0.7,5.4c-0.4,0.1-0.2,0.8,0.2,0.6
				c2.9-1,2-4.3,1.1-6.4c-0.1-0.2-0.3-0.2-0.5-0.1c-1.7,1.2-3.7,2.9-2.7,5.2C85.6,31.4,86.2,31,86,30.6L86,30.6z"/>
		</g>
	</g>
	<g>
		<g>
			<path class="st1" d="M84.1,29.8c-2.6-0.9-2.9-3.9-3.1-6.2c-0.1,0.1-0.2,0.2-0.3,0.3c2.6,0.3,4.4,2.6,4.3,5.1c0,0.4,0.6,0.4,0.7,0
				c0.2-2.9-2.1-5.5-5-5.8c-0.2,0-0.3,0.2-0.3,0.3c0.2,2.7,0.6,5.8,3.5,6.8C84.3,30.6,84.5,30,84.1,29.8L84.1,29.8z"/>
		</g>
	</g>
	<g>
		<g>
			<path class="st1" d="M82.3,28.6c-0.9-0.8-2.1-1.1-3.2-0.7c-1.4,0.5-2.2,2.3-3.8,2.5c-0.3,0-0.5,0.4-0.2,0.6
				c1.7,1.2,3.8,2,5.7,0.8c0.4-0.2,0-0.8-0.3-0.6c-1.7,1.1-3.5,0.2-5.1-0.8c-0.1,0.2-0.1,0.4-0.2,0.6c2.4-0.3,3.9-4.2,6.6-2
				C82.2,29.4,82.7,28.9,82.3,28.6L82.3,28.6z"/>
		</g>
	</g>
	<g>
		<g>
			<path class="st1" d="M78.2,28.3c-1.4-0.2-2.4-0.6-2.9-1.9c-0.4-1-0.6-2.2-0.5-3.3c-0.1,0.1-0.3,0.2-0.4,0.3
				c1.5,0.3,6.9,1.8,6.1,4.1c-0.1,0.4,0.5,0.6,0.6,0.2c1-2.9-4.7-4.5-6.6-4.9c-0.2-0.1-0.4,0.1-0.4,0.3c0,1.4,0.2,3,0.9,4.2
				c0.7,1.2,1.8,1.4,3.1,1.6C78.4,29.1,78.6,28.4,78.2,28.3L78.2,28.3z"/>
		</g>
	</g>
	<g>
		<g>
			<path class="st1" d="M73.9,24.6c-3-0.5-5.1,1.7-6.9,3.9c-0.2,0.2-0.1,0.5,0.2,0.6c2.1,0.9,7.3,2,8.1-1.3c0.1-0.4-0.5-0.6-0.6-0.2
				c-0.7,2.8-5.5,1.5-7.3,0.8c0.1,0.2,0.1,0.4,0.2,0.6c1.6-1.9,3.5-4.2,6.2-3.7C74.2,25.3,74.4,24.6,73.9,24.6L73.9,24.6z"/>
		</g>
	</g>
	<g>
		<g>
			<path class="st1" d="M69.8,25.9c-1-0.2-1.9-0.8-2.5-1.7c-0.3-0.4-0.5-0.8-0.6-1.3c-0.2-1,0.2-1.1,1-1c2,0.4,4.7,0.7,5.1,3.2
				c0.1,0.4,0.7,0.2,0.6-0.2c-0.2-1.4-1.3-2.4-2.6-2.9c-0.9-0.3-1.8-0.5-2.7-0.7c-0.5-0.1-1.2-0.4-1.7-0.2c-0.9,0.4-0.3,2.1-0.1,2.7
				c0.6,1.3,1.8,2.3,3.2,2.6C70.1,26.6,70.3,26,69.8,25.9L69.8,25.9z"/>
		</g>
	</g>
	<g>
		<g>
			<path class="st1" d="M66.3,23.6c-2.7-1.8-4.7,1.8-6.4,3.2c-0.2,0.1-0.1,0.4,0.1,0.5c2.9,1.9,6.5,0.9,8.1-2.1
				c0.2-0.4-0.4-0.7-0.6-0.3c-1.4,2.7-4.7,3.5-7.2,1.8c0,0.2,0.1,0.3,0.1,0.5c1.5-1.2,3.3-4.6,5.6-3.1
				C66.3,24.4,66.6,23.9,66.3,23.6L66.3,23.6z"/>
		</g>
	</g>
	<g>
		<g>
			<path class="st1" d="M62.4,24.1c-0.2,0.2-1.2-2-1.2-2.2c-0.2-0.8-0.2-1.6-0.1-2.4c-0.1,0.1-0.3,0.2-0.4,0.2
				c2.3,0.6,5.1,1.4,5.5,4.1c0.1,0.4,0.7,0.2,0.6-0.2c-0.4-2.9-3.5-4-5.9-4.6c-0.2-0.1-0.4,0.1-0.4,0.2c-0.3,1.4-0.1,2.8,0.5,4
				c0.3,0.5,1.2,2.1,1.9,1.3C63.2,24.3,62.7,23.8,62.4,24.1L62.4,24.1z"/>
		</g>
	</g>
	<g>
		<g>
			<path class="st1" d="M60.7,21.7c-1.9-1.7-4.5-2-6.7-1c-0.2,0.1-0.2,0.3-0.1,0.5c1,1.6,2.6,3.3,4.7,2.5c0.4-0.2,0.2-0.8-0.2-0.6
				c-1.8,0.7-3-0.9-3.9-2.2c0,0.2-0.1,0.3-0.1,0.5c2-0.9,4.3-0.6,5.9,0.9C60.6,22.5,61,22,60.7,21.7L60.7,21.7z"/>
		</g>
	</g>
	<g>
		<g>
			<path class="st1" d="M59.2,23.5c-2.1-0.3-3,2-4.6,2.9c-0.3,0.2-0.2,0.5,0.1,0.6c1.5,0.6,3.6,0.1,5.1-0.5c1.3-0.5,2.3-1.4,2.6-2.8
				c0.1-0.4-0.6-0.6-0.6-0.2c-0.5,2.5-4.7,3.7-6.9,2.9c0,0.2,0.1,0.4,0.1,0.6c1.4-0.9,2.4-3.1,4.3-2.8
				C59.6,24.2,59.6,23.5,59.2,23.5L59.2,23.5z"/>
		</g>
	</g>
	<g>
		<g>
			<path class="st1" d="M55.8,23.3c-2.7-0.7-5.9-1.2-8,1.2c-0.1,0.1-0.2,0.3,0,0.5c3.1,2.4,7.9,2.4,9.5-1.6c0.2-0.4-0.5-0.6-0.6-0.2
				c-1.4,3.6-5.8,3.4-8.4,1.3c0,0.2,0,0.3,0,0.5c1.9-2.2,4.8-1.6,7.3-1C56,24,56.2,23.4,55.8,23.3L55.8,23.3z"/>
		</g>
	</g>
	<g>
		<g>
			<path class="st1" d="M52.1,22.7c-0.3-0.6-0.5-1.2-0.5-1.8c0-0.5,0.1-0.5,0.6-0.3c0.2,0.1,0.5,0.3,0.7,0.5c1,0.6,1.8,1.4,2.5,2.3
				c0.3,0.3,0.7-0.1,0.5-0.5c-0.6-0.7-1.3-1.4-2.1-2c-0.5-0.4-1.4-1.2-2.1-1.2c-1.5-0.1-0.6,2.8-0.2,3.4
				C51.7,23.4,52.3,23,52.1,22.7L52.1,22.7z"/>
		</g>
	</g>
	<g>
		<g>
			<path class="st1" d="M59.1,24.2c0.8,0.5,1.8,0.3,2.5-0.3c0.3-0.3-0.2-0.8-0.5-0.5c-0.4,0.5-1.1,0.6-1.6,0.2
				C59,23.4,58.7,24,59.1,24.2L59.1,24.2z"/>
		</g>
	</g>
	<g>
		<g>
			<path class="st1" d="M73.7,25.2c-1.3,0.8-2.7,1.4-4.2,1.8c-0.4,0.1-0.2,0.7,0.2,0.6c1.6-0.4,3-1,4.4-1.8
				C74.4,25.5,74.1,24.9,73.7,25.2L73.7,25.2z"/>
		</g>
	</g>
	<g>
		<g>
			<path class="st1" d="M73.8,25.7c-0.4,0.7-1.1,1.3-1.9,1.7c-0.4,0.2-0.2,0.8,0.2,0.6c1-0.4,1.8-1.1,2.3-2
				C74.5,25.6,74,25.3,73.8,25.7L73.8,25.7z"/>
		</g>
	</g>
	<g>
		<g>
			<path class="st1" d="M77.1,26.4c0.8,1.1,2.1,1.8,3.5,1.8c0.4,0,0.4-0.6,0-0.7c-1.1-0.1-2.2-0.6-2.9-1.5
				C77.4,25.7,76.8,26,77.1,26.4L77.1,26.4z"/>
		</g>
	</g>
	<g>
		<g>
			<path class="st1" d="M78.7,27c0.1,0.4,0.4,0.7,0.8,0.8c0.2,0,0.4-0.1,0.4-0.2c0.1-0.2-0.1-0.4-0.2-0.4c-0.2,0-0.3-0.1-0.3-0.3
				C79.2,26.4,78.6,26.6,78.7,27L78.7,27z"/>
		</g>
	</g>
	<g>
		<g>
			<path class="st1" d="M82.4,26.9c0.1,1.4,0.7,2.7,1.8,3.6c0.3,0.3,0.8-0.2,0.5-0.5c-1-0.8-1.5-1.8-1.6-3.1
				C83,26.5,82.3,26.5,82.4,26.9L82.4,26.9z"/>
		</g>
	</g>
	<g>
		<g>
			<path class="st1" d="M83.1,29.8c-1.6-0.5-3.3-0.2-4.7,0.8c-0.3,0.2,0,0.8,0.3,0.6c1.3-0.9,2.7-1.1,4.2-0.7
				C83.3,30.5,83.5,29.9,83.1,29.8L83.1,29.8z"/>
		</g>
	</g>
	<g>
		<g>
			<path class="st1" d="M85.8,31.2c-1.4,0.2-2.7,0.7-3.8,1.6c-0.3,0.2,0,0.8,0.3,0.6c1.1-0.8,2.3-1.3,3.6-1.5
				C86.4,31.8,86.2,31.1,85.8,31.2L85.8,31.2z"/>
		</g>
	</g>
	<g>
		<g>
			<path class="st1" d="M85.5,31.4c-0.7,0.4-1.3,0.9-2,1.3c-0.3,0.2,0,0.8,0.3,0.6c0.7-0.4,1.3-0.9,2-1.3
				C86.2,31.7,85.9,31.2,85.5,31.4L85.5,31.4z"/>
		</g>
	</g>
	<g>
		<g>
			<path class="st1" d="M87.1,31.4c0-1,0.3-2,0.7-3c0.2-0.4-0.4-0.7-0.6-0.3c-0.5,1-0.8,2.1-0.8,3.3C86.4,31.8,87.1,31.8,87.1,31.4
				L87.1,31.4z"/>
		</g>
	</g>
	<g>
		<g>
			<path class="st1" d="M93.9,38.3c-1.3-1.1-2.8-1.8-4.4-2.1c-0.4-0.1-0.6,0.6-0.2,0.6c1.6,0.2,2.9,0.9,4.1,1.9
				C93.8,39.1,94.3,38.6,93.9,38.3L93.9,38.3z"/>
		</g>
	</g>
	<g>
		<g>
			<path class="st1" d="M93.5,37.7c-0.6-0.6-1.3-1.1-2.1-1.4c-0.4-0.2-0.6,0.5-0.2,0.6c0.7,0.3,1.3,0.7,1.8,1.3
				C93.3,38.5,93.8,38,93.5,37.7L93.5,37.7z"/>
		</g>
	</g>
	<g>
		<g>
			<path class="st1" d="M95.2,38.4c-0.6-1.3-0.8-2.7-0.6-4.1c0.1-0.4-0.6-0.4-0.7,0c-0.2,1.6,0.1,3,0.7,4.4
				C94.8,39.2,95.4,38.8,95.2,38.4L95.2,38.4z"/>
		</g>
	</g>
	<g>
		<g>
			<path class="st1" d="M91.2,34.8c-0.2-0.6-0.2-1.1,0.1-1.7c0.2-0.4-0.5-0.6-0.6-0.2c-0.3,0.7-0.3,1.4-0.1,2
				C90.6,35.4,91.3,35.2,91.2,34.8L91.2,34.8z"/>
		</g>
	</g>
	<g>
		<g>
			<path class="st1" d="M94.3,39.5c-1,0.5-2.1,1-3.2,1.5c-0.4,0.2-0.1,0.7,0.3,0.6c1-0.5,2.1-1,3.2-1.5C95,39.9,94.7,39.3,94.3,39.5
				L94.3,39.5z"/>
		</g>
	</g>
	<g>
		<g>
			<path class="st1" d="M97.6,43.5c-0.1-0.6-0.3-1.2-0.4-1.8c-0.1-0.4-0.7-0.2-0.6,0.2c0.1,0.6,0.3,1.2,0.4,1.8
				C97,44.1,97.6,43.9,97.6,43.5L97.6,43.5z"/>
		</g>
	</g>
	<g>
		<g>
			<path class="st1" d="M96.6,44c-1.1,0.7-1.8,1.9-1.8,3.3c0,0.4,0.7,0.4,0.7,0c0-1.1,0.6-2.1,1.5-2.7C97.3,44.4,97,43.8,96.6,44
				L96.6,44z"/>
		</g>
	</g>
	<g>
		<g>
			<path class="st1" d="M98.5,43.2C98.5,43.2,98.5,43.2,98.5,43.2c-0.2-0.1-0.3,0-0.4,0.1c-0.4,0.4,0,1,0.6,0.8
				c0.4-0.1,0.7-0.5,1.1-0.7c0.5-0.3,1-0.6,1.4-0.9c0.3-0.2,0-0.8-0.3-0.6c-0.4,0.3-0.8,0.6-1.3,0.8c-0.2,0.1-0.3,0.2-0.5,0.3
				c-0.1,0.1-0.2,0.2-0.3,0.2c-0.2,0.1-0.3,0.2-0.1,0.5c-0.1,0-0.2,0.1-0.3,0.1c0,0,0.1,0,0.1,0C98.8,44,99,43.3,98.5,43.2
				L98.5,43.2z"/>
		</g>
	</g>
	<g>
		<g>
			<path class="st1" d="M97.4,45.1c0.7,1.5,2.1,2.5,3.7,2.9c0.4,0.1,0.6-0.6,0.2-0.6c-1.5-0.3-2.7-1.2-3.3-2.6
				C97.8,44.4,97.3,44.7,97.4,45.1L97.4,45.1z"/>
		</g>
	</g>
	<g>
		<g>
			<path class="st1" d="M52.3,24.6c0.4,0,0.4-0.7,0-0.7C51.9,24,51.9,24.6,52.3,24.6L52.3,24.6z"/>
		</g>
	</g>
	<g>
		<g>
			<path class="st1" d="M51.3,24c1.4,0.4,2.9,0.5,4.4,0.3c0.4-0.1,0.2-0.7-0.2-0.6c-1.4,0.2-2.7,0.1-4.1-0.3
				C51.1,23.3,50.9,23.9,51.3,24L51.3,24z"/>
		</g>
	</g>
	<g>
		<g>
			<path class="st1" d="M66.2,24c-1.1,0.1-2.1,0.6-3,1.3c-0.3,0.3,0.1,0.7,0.5,0.5c0.7-0.6,1.6-1,2.5-1.1
				C66.6,24.6,66.7,23.9,66.2,24L66.2,24z"/>
		</g>
	</g>
	<g>
		<g>
			<path class="st1" d="M66,24.5c-0.5,0.4-1,0.9-1.5,1.3c-0.3,0.3,0.2,0.7,0.5,0.5c0.5-0.4,1-0.9,1.5-1.3
				C66.8,24.6,66.3,24.2,66,24.5L66,24.5z"/>
		</g>
	</g>
	<g>
		<g>
			<path class="st1" d="M64.4,23.4c-0.7-0.8-1.2-1.7-1.7-2.6c-0.2-0.4-0.8-0.1-0.6,0.3c0.5,1,1.1,1.9,1.8,2.7
				C64.2,24.2,64.6,23.7,64.4,23.4L64.4,23.4z"/>
		</g>
	</g>
	<g>
		<g>
			<path class="st1" d="M68.7,23.7c0.7,0.6,1.4,0.9,2.3,0.9c0.4,0,0.4-0.6,0-0.7c-0.7-0.1-1.3-0.3-1.8-0.7
				C68.9,23,68.4,23.4,68.7,23.7L68.7,23.7z"/>
		</g>
	</g>
	<g>
		<g>
			<path class="st1" d="M97.4,42.5c-0.1-0.9-0.1-1.7,0-2.6c0.1-0.4-0.6-0.4-0.7,0c-0.1,0.9-0.1,1.7,0,2.6
				C96.8,42.9,97.4,42.9,97.4,42.5L97.4,42.5z"/>
		</g>
	</g>
	<g>
		<g>
			<path class="st0" d="M49.2,23.4c-1.3-0.1-2.8-0.1-3.9,0.7c-0.5,0.4-0.6,0.9-1,1.4c-0.2,0.3-1,0.7-0.9,1.3c0.2,0.9,2.2,1,2.8,1.1
				c1.4,0.1,2.7-0.2,3.8-1.2c0.3-0.3-0.2-0.7-0.5-0.5c-0.9,0.8-2,1-3.2,1c-0.5,0-1.2-0.1-1.6-0.3c-0.5-0.2-0.4-0.2-0.3-0.6
				c0.8-2,2.5-2.5,4.6-2.3C49.6,24.1,49.6,23.4,49.2,23.4L49.2,23.4z"/>
		</g>
	</g>
	<g>
		<g>
			<path class="st0" d="M49,25.3c-0.7,0-1.4,0.1-2.1,0.4c-0.4,0.2-0.2,0.8,0.2,0.6c0.6-0.3,1.3-0.4,2-0.4C49.4,26,49.4,25.3,49,25.3
				L49,25.3z"/>
		</g>
	</g>
	<g>
		<g>
			<path class="st0" d="M46.5,23.4c-0.6-1.1-0.7-2.2-0.5-3.5c-0.1,0.1-0.2,0.2-0.3,0.2c1-0.1,1.9-0.1,2.9,0.2
				c0.5,0.2,3.2,1.4,2.5,2.3c-0.3,0.3,0.3,0.7,0.6,0.3c0.7-1-0.7-2.1-1.4-2.6c-1.4-0.9-3-1.2-4.6-1c-0.1,0-0.3,0.1-0.3,0.2
				c-0.3,1.4-0.1,2.7,0.5,4C46.1,24.1,46.7,23.7,46.5,23.4L46.5,23.4z"/>
		</g>
	</g>
	<g>
		<g>
			<path class="st0" d="M50.8,22.4C50,22.1,49.1,22,48.2,22c-0.4,0-0.4,0.7,0,0.7c0.8,0,1.6,0.1,2.4,0.4
				C51,23.2,51.2,22.6,50.8,22.4L50.8,22.4z"/>
		</g>
	</g>
	<g>
		<g>
			<path class="st0" d="M45.5,22.5c-1.9-0.6-4-0.1-5.4,1.4c-0.1,0.2-0.1,0.4,0.1,0.5c1.7,0.9,3.6,1.2,5.6,0.7
				c0.4-0.1,0.2-0.7-0.2-0.6c-1.7,0.4-3.5,0.2-5-0.6c0,0.2,0.1,0.3,0.1,0.5c1.2-1.3,3-1.8,4.7-1.3C45.7,23.3,45.9,22.6,45.5,22.5
				L45.5,22.5z"/>
		</g>
	</g>
	<g>
		<g>
			<path class="st0" d="M45.6,23.6c-1,0-2,0.1-3.1,0.3c-0.4,0.1-0.2,0.7,0.2,0.6c1-0.1,1.9-0.2,2.9-0.2
				C46.1,24.2,46.1,23.5,45.6,23.6L45.6,23.6z"/>
		</g>
	</g>
	<g>
		<g>
			<path class="st0" d="M42.2,24.6c-1.2,1.2-2.4,3.7-0.3,4.5c2.2,0.9,4.7,0.1,6.4-1.4c0.3-0.3-0.2-0.8-0.5-0.5
				c-1.1,1-2.6,1.6-4.1,1.6c-0.8,0-2.1-0.2-2.2-1.1c-0.2-0.9,0.6-2,1.2-2.6C42.9,24.8,42.5,24.3,42.2,24.6L42.2,24.6z"/>
		</g>
	</g>
	<g>
		<g>
			<path class="st0" d="M43.1,28.2c0.3-0.3,0.7-0.6,1.2-0.8c0.4-0.1,0.2-0.8-0.2-0.6c-0.6,0.2-1.1,0.5-1.5,1
				C42.3,28.1,42.8,28.5,43.1,28.2L43.1,28.2z"/>
		</g>
	</g>
	<g>
		<g>
			<path class="st0" d="M103,44.2c1-0.1,2.1-0.3,3.1,0.1c0.4,0.1,0.8,0.3,1.1,0.6c0.5,0.5,0.5,0.8,0.1,1.4c-1,1.2-2.9,1.6-4.3,0.9
				c-0.4-0.2-0.7,0.4-0.3,0.6c1.9,1,4.4,0.4,5.5-1.4c0.5-0.9-0.1-1.7-0.9-2.2c-1.2-0.8-2.7-0.6-4.1-0.5
				C102.6,43.5,102.6,44.2,103,44.2L103,44.2z"/>
		</g>
	</g>
	<g>
		<g>
			<path class="st0" d="M101.5,45.6c1.3,0.5,2.6,0.7,4,0.6c0.4,0,0.4-0.7,0-0.7c-1.3,0.1-2.6-0.1-3.8-0.5
				C101.3,44.8,101.2,45.5,101.5,45.6L101.5,45.6z"/>
		</g>
	</g>
	<g>
		<g>
			<path class="st0" d="M39.5,65.6c1.4-0.5,3.6-1.2,4.7,0.4c1.2,1.7-1.4,2.8-2.7,2.8c-0.9,0-2.5-0.2-2.4-1.3
				c0.1-1.2,1.5-1.4,2.5-1.2c0.4,0.1,1.6,0.1,1,1.1c-0.1,0.2-1,0.2-1.2,0.2c-0.8,0-1.6-0.2-2.3-0.5c-0.4-0.2-0.6,0.5-0.2,0.6
				c1.2,0.5,3.1,0.9,4.3,0.1c0.9-0.6,0.5-1.6-0.3-2c-1.1-0.5-2.9-0.5-3.8,0.3c-0.7,0.6-0.9,1.8-0.2,2.5c0.8,0.9,2.6,0.9,3.6,0.7
				c1-0.2,2.1-0.8,2.6-1.8c0.4-1-0.1-2.1-1-2.7c-1.4-0.9-3.1-0.4-4.6,0.1C38.9,65.1,39.1,65.7,39.5,65.6L39.5,65.6z"/>
		</g>
	</g>
	<g>
		<g>
			<path class="st0" d="M44.9,66.6c6.8,3.6,14.6,4,22.1,3.3c4.3-0.4,8.6-1.2,12.9-1.8c2.1-0.3,4.2-0.6,6.3-0.7
				c2.1-0.1,4.2,0.1,6.3-0.1c3.2-0.3,5.9-2.5,7-5.6c0.1-0.4-0.5-0.6-0.6-0.2c-0.7,2.1-2.2,3.7-4.2,4.6c-2.3,1-5,0.5-7.4,0.5
				c-4.7,0.1-9.4,1-14,1.7c-9.4,1.4-19.3,2.3-28-2.3C44.8,65.9,44.5,66.5,44.9,66.6L44.9,66.6z"/>
		</g>
	</g>
	<g>
		<g>
			<path class="st0" d="M44,68.5c5,6.7,14.9,6.6,22.4,5.7c4.8-0.6,9.5-1.6,14.3-2.1c4-0.4,9-0.7,12.1,2.4c2.2,2.2,3,5.6,3.3,8.7
				c0.3,2.9,0.2,5.9-0.1,8.8c-0.5,4.5-1.6,8.8-2.6,13.2c-0.6,2.4-1.2,4.8-1.6,7.2c-0.1,0.9-0.2,2.5,1.2,2.5c0.6,0.1,0.9-0.4,1.2-0.9
				c1-1.9,2.2-0.7,3.5-0.1c1.5,0.8,3,0.4,4.2-0.8c1.6-1.6,1.7-3.9,2.8-5.7c1.4-2.2,4.3-2.5,6.4-1.3c0.4,0.2,0.7-0.4,0.3-0.6
				c-2.5-1.4-5.8-1-7.3,1.5c-1.1,1.8-1.2,4.2-2.9,5.7c-1.1,1-2.3,1.1-3.5,0.3c-0.7-0.4-1.3-0.9-2.1-1c-0.5,0-1,0.1-1.3,0.4
				c-0.2,0.2-0.3,0.5-0.5,0.7c-0.1,0.1-0.1,0.3-0.1,0.3c-0.1,0.4-0.3,0.4-0.6-0.1c-0.6-0.2-0.7-0.5-0.5-1c0.3-2.4,1-4.7,1.5-7
				c1-4.3,2.1-8.5,2.6-12.8c0.7-5.4,0.9-12-1.9-16.9c-4-6.8-13.8-4.6-20.2-3.6c-5.5,0.9-11.1,1.9-16.7,1.6
				c-4.8-0.3-10.1-1.6-13.2-5.7C44.3,67.8,43.7,68.1,44,68.5L44,68.5z"/>
		</g>
	</g>
	<g>
		<g>
			<path class="st0" d="M38.6,68.1c0.2,7.2-1.5,14.2-3.2,21.1c-0.8,3.3-1.7,6.7-2.3,10.1c-0.5,2.3-1.6,5.8,0.1,7.9
				c0.1,0.2,0.4,0.1,0.5-0.1c0.7-0.5,1.2-0.3,1.5,0.6c0.1,0.3,0.1,0.7,0.2,1c0.1,0.4,0.1,0.7,0.2,1.1c0.1,0.5,0.4,1,0.8,1.3
				c0.6,0.4,1.6,0.3,2.2,0.3c1.4,0.1,2.7,0.1,4.1,0.1c0.4,0,0.4-0.7,0-0.7c-1.5-0.1-3.1,0-4.6-0.1c-1.4-0.2-1.9-0.7-2-2
				c-0.1-0.5-0.1-0.9-0.2-1.4c-0.4-1.1-2-1.8-2.7-0.6c0.2,0,0.3-0.1,0.5-0.1c-1.2-1.4-0.5-3.6-0.3-5.3c0.3-1.6,0.6-3.2,0.9-4.8
				c0.7-3.2,1.5-6.4,2.3-9.6c1.5-6.2,2.8-12.5,2.6-18.9C39.2,67.6,38.6,67.6,38.6,68.1L38.6,68.1z"/>
		</g>
	</g>
	<g>
		<g>
			<path class="st0" d="M35.9,108.6c-0.4-1.9-0.6-3.9-0.5-5.8c0-0.4-0.7-0.4-0.7,0c-0.1,2,0.1,4,0.5,6C35.4,109.2,36,109,35.9,108.6
				L35.9,108.6z"/>
		</g>
	</g>
	<g>
		<g>
			<path class="st0" d="M94.3,113.9c0.9-4.7,2-9.3,3.3-13.9c0.1-0.4-0.5-0.6-0.6-0.2c-1.2,4.6-2.3,9.2-3.3,13.9
				C93.6,114.2,94.2,114.4,94.3,113.9L94.3,113.9z"/>
		</g>
	</g>
	<g>
		<g>
			<path class="st0" d="M97.2,112.9c-0.1-2.7,0.1-5.3,0.7-7.9c0.1-0.4-0.6-0.6-0.6-0.2c-0.6,2.7-0.8,5.3-0.7,8.1
				C96.6,113.4,97.3,113.4,97.2,112.9L97.2,112.9z"/>
		</g>
	</g>
	<g>
		<g>
			<path class="st0" d="M103.3,110.5c0.6-4.7,0.1-9.3-1.3-13.8c-0.1-0.4-0.8-0.2-0.6,0.2c1.5,4.4,1.9,9,1.3,13.6
				C102.6,111,103.2,111,103.3,110.5L103.3,110.5z"/>
		</g>
	</g>
	<g>
		<g>
			<path class="st0" d="M44.8,67.6c4.1,3.9,9.8,5.7,15.4,4.8c0.4-0.1,0.2-0.7-0.2-0.6c-5.4,0.9-10.8-0.9-14.8-4.6
				C45,66.9,44.5,67.3,44.8,67.6L44.8,67.6z"/>
		</g>
	</g>
	<g>
		<g>
			<path class="st0" d="M44.8,68c3.4,2.1,6.9,4.1,11,3.5c0.4-0.1,0.2-0.7-0.2-0.6c-3.9,0.6-7.3-1.4-10.5-3.4
				C44.7,67.2,44.4,67.7,44.8,68L44.8,68z"/>
		</g>
	</g>
</g>
</svg>
